  0
SECTION
  2
HEADER
  9
$ACADVER
  1
AC1009
  9
$INSBASE
 10
0.0
 20
0.0
 30
0.0
  9
$EXTMIN
 10
702.02728450999984
 20
726.08560334342235
 30
-0.0015258207003583
  9
$EXTMAX
 10
742.01751844261025
 20
777.09169131388376
 30
0.0000000349246037
  9
$LIMMIN
 10
0.0
 20
0.0
  9
$LIMMAX
 10
420.0
 20
297.0
  9
$ORTHOMODE
 70
     0
  9
$REGENMODE
 70
     1
  9
$FILLMODE
 70
     1
  9
$QTEXTMODE
 70
     0
  9
$MIRRTEXT
 70
     0
  9
$DRAGMODE
 70
     2
  9
$LTSCALE
 40
1.0
  9
$OSMODE
 70
  3071
  9
$ATTMODE
 70
     1
  9
$TEXTSIZE
 40
2.5
  9
$TRACEWID
 40
1.0
  9
$TEXTSTYLE
  7
STANDARD
  9
$CLAYER
  8
0
  9
$CELTYPE
  6
BYLAYER
  9
$CECOLOR
 62
   256
  9
$DIMSCALE
 40
1.0
  9
$DIMASZ
 40
2.5
  9
$DIMEXO
 40
0.625
  9
$DIMDLI
 40
3.75
  9
$DIMRND
 40
0.0
  9
$DIMDLE
 40
0.0
  9
$DIMEXE
 40
1.25
  9
$DIMTP
 40
0.0
  9
$DIMTM
 40
0.0
  9
$DIMTXT
 40
2.5
  9
$DIMCEN
 40
2.5
  9
$DIMTSZ
 40
0.0
  9
$DIMTOL
 70
     0
  9
$DIMLIM
 70
     0
  9
$DIMTIH
 70
     0
  9
$DIMTOH
 70
     0
  9
$DIMSE1
 70
     0
  9
$DIMSE2
 70
     0
  9
$DIMTAD
 70
     1
  9
$DIMZIN
 70
     8
  9
$DIMBLK
  1

  9
$DIMASO
 70
     1
  9
$DIMSHO
 70
     1
  9
$DIMPOST
  1

  9
$DIMAPOST
  1

  9
$DIMALT
 70
     0
  9
$DIMALTD
 70
     3
  9
$DIMALTF
 40
0.03937007874016
  9
$DIMLFAC
 40
1.0
  9
$DIMTOFL
 70
     1
  9
$DIMTVP
 40
0.0
  9
$DIMTIX
 70
     0
  9
$DIMSOXD
 70
     0
  9
$DIMSAH
 70
     0
  9
$DIMBLK1
  1

  9
$DIMBLK2
  1

  9
$DIMSTYLE
  2
ISO-25
  9
$DIMCLRD
 70
     0
  9
$DIMCLRE
 70
     0
  9
$DIMCLRT
 70
     0
  9
$DIMTFAC
 40
1.0
  9
$DIMGAP
 40
0.625
  9
$LUNITS
 70
     2
  9
$LUPREC
 70
     4
  9
$SKETCHINC
 40
1.0
  9
$FILLETRAD
 40
0.0
  9
$AUNITS
 70
     0
  9
$AUPREC
 70
     0
  9
$MENU
  1
.
  9
$ELEVATION
 40
0.0
  9
$PELEVATION
 40
0.0
  9
$THICKNESS
 40
0.0
  9
$LIMCHECK
 70
     0
  9
$BLIPMODE
 70
     0
  9
$CHAMFERA
 40
0.0
  9
$CHAMFERB
 40
0.0
  9
$SKPOLY
 70
     0
  9
$TDCREATE
 40
2456484.4801619682
  9
$TDUPDATE
 40
2456484.4802729278
  9
$TDINDWG
 40
0.0001114468
  9
$TDUSRTIMER
 40
0.0001114352
  9
$USRTIMER
 70
     1
  9
$ANGBASE
 50
0.0
  9
$ANGDIR
 70
     0
  9
$PDMODE
 70
     0
  9
$PDSIZE
 40
0.0
  9
$PLINEWID
 40
0.0
  9
$COORDS
 70
     0
  9
$SPLFRAME
 70
     0
  9
$SPLINETYPE
 70
     6
  9
$SPLINESEGS
 70
     8
  9
$ATTDIA
 70
     0
  9
$ATTREQ
 70
     1
  9
$HANDLING
 70
     1
  9
$HANDSEED
  5
23F
  9
$SURFTAB1
 70
     6
  9
$SURFTAB2
 70
     6
  9
$SURFTYPE
 70
     6
  9
$SURFU
 70
     6
  9
$SURFV
 70
     6
  9
$UCSNAME
  2

  9
$UCSORG
 10
0.0
 20
0.0
 30
0.0
  9
$UCSXDIR
 10
1.0
 20
0.0
 30
0.0
  9
$UCSYDIR
 10
0.0
 20
1.0
 30
0.0
  9
$PUCSNAME
  2

  9
$PUCSORG
 10
0.0
 20
0.0
 30
0.0
  9
$PUCSXDIR
 10
1.0
 20
0.0
 30
0.0
  9
$PUCSYDIR
 10
0.0
 20
1.0
 30
0.0
  9
$USERI1
 70
     0
  9
$USERI2
 70
     0
  9
$USERI3
 70
     0
  9
$USERI4
 70
     0
  9
$USERI5
 70
     0
  9
$USERR1
 40
0.0
  9
$USERR2
 40
0.0
  9
$USERR3
 40
0.0
  9
$USERR4
 40
0.0
  9
$USERR5
 40
0.0
  9
$WORLDVIEW
 70
     1
  9
$SHADEDGE
 70
     3
  9
$SHADEDIF
 70
    70
  9
$TILEMODE
 70
     1
  9
$MAXACTVP
 70
    64
  9
$PLIMCHECK
 70
     0
  9
$PEXTMIN
 10
0.0
 20
0.0
 30
0.0
  9
$PEXTMAX
 10
0.0
 20
0.0
 30
0.0
  9
$PLIMMIN
 10
0.0
 20
0.0
  9
$PLIMMAX
 10
12.0
 20
9.0
  9
$UNITMODE
 70
     0
  9
$VISRETAIN
 70
     1
  9
$PLINEGEN
 70
     0
  9
$PSLTSCALE
 70
     1
  0
ENDSEC
  0
SECTION
  2
TABLES
  0
TABLE
  2
VPORT
 70
     2
  0
VPORT
  2
*ACTIVE
 70
     0
 10
0.0
 20
0.0
 11
1.0
 21
1.0
 12
722.02240147630505
 22
751.588647328653
 13
0.0
 23
0.0
 14
10.0
 24
10.0
 15
10.0
 25
10.0
 16
0.0
 26
0.0
 36
1.0
 17
0.0
 27
0.0
 37
0.0
 40
51.479096514236737
 41
2.3219814241486061
 42
50.0
 43
0.0
 44
0.0
 50
0.0
 51
0.0
 71
     0
 72
  1000
 73
     1
 74
     3
 75
     0
 76
     0
 77
     0
 78
     0
  0
ENDTAB
  0
TABLE
  2
LTYPE
 70
     1
  0
LTYPE
  2
CONTINUOUS
 70
     0
  3
Solid line
 72
    65
 73
     0
 40
0.0
  0
ENDTAB
  0
TABLE
  2
LAYER
 70
     1
  0
LAYER
  2
0
 70
     0
 62
     7
  6
CONTINUOUS
  0
ENDTAB
  0
TABLE
  2
STYLE
 70
     2
  0
STYLE
  2
STANDARD
 70
     0
 40
0.0
 41
1.0
 50
0.0
 71
     0
 42
2.5
  3
txt
  4

  0
STYLE
  2
ROMANT
 70
     0
 40
3.0
 41
1.0
 50
15.0
 71
     0
 42
2.5
  3
romant.shx
  4

  0
ENDTAB
  0
TABLE
  2
VIEW
 70
     0
  0
ENDTAB
  0
TABLE
  2
UCS
 70
     0
  0
ENDTAB
  0
TABLE
  2
APPID
 70
     1
  0
APPID
  2
ACAD
 70
     0
  0
ENDTAB
  0
TABLE
  2
DIMSTYLE
 70
     3
  0
DIMSTYLE
  2
ISO-25
 70
     0
  3

  4

  5

  6

  7

 40
1.0
 41
2.5
 42
0.625
 43
3.75
 44
1.25
 45
0.0
 46
0.0
 47
0.0
 48
0.0
140
2.5
141
2.5
142
0.0
143
0.03937007874016
144
1.0
145
0.0
146
1.0
147
0.625
 71
     0
 72
     0
 73
     0
 74
     0
 75
     0
 76
     0
 77
     1
 78
     8
170
     0
171
     3
172
     1
173
     0
174
     0
175
     0
176
     0
177
     0
178
     0
  0
DIMSTYLE
  2
STANDARD
 70
     0
  3

  4

  5

  6

  7

 40
1.0
 41
0.18
 42
0.0625
 43
0.38
 44
0.18
 45
0.0
 46
0.0
 47
0.0
 48
0.0
140
0.18
141
0.09
142
0.0
143
25.399999999999999
144
1.0
145
0.0
146
1.0
147
0.09
 71
     0
 72
     0
 73
     1
 74
     1
 75
     0
 76
     0
 77
     0
 78
     0
170
     0
171
     2
172
     0
173
     0
174
     0
175
     0
176
     0
177
     0
178
     0
  0
DIMSTYLE
  2
ÝSMAIL_1_5___1
 70
     0
  3

  4

  5

  6

  7

 40
0.0
 41
2.0
 42
0.625
 43
0.38
 44
0.18
 45
0.0
 46
0.0
 47
0.0135
 48
0.0135
140
2.5
141
0.137
142
0.0
143
25.399999999999999
144
1.0
145
0.0
146
1.0
147
0.5
 71
     0
 72
     0
 73
     0
 74
     0
 75
     0
 76
     0
 77
     1
 78
     8
170
     0
171
     2
172
     0
173
     0
174
     0
175
     0
176
     5
177
     5
178
     5
  0
ENDTAB
  0
ENDSEC
  0
SECTION
  2
BLOCKS
  0
BLOCK
  8
0
  2
$MODEL_SPACE
 70
     0
 10
0.0
 20
0.0
 30
0.0
  3
$MODEL_SPACE
  1

  0
ENDBLK
  5
21
  8
0
  0
BLOCK
 67
     1
  8
0
  2
$PAPER_SPACE
 70
     0
 10
0.0
 20
0.0
 30
0.0
  3
$PAPER_SPACE
  1

  0
ENDBLK
  5
53
 67
     1
  8
0
  0
BLOCK
  8
0
  2
*X2
 70
     1
 10
0.0
 20
0.0
 30
0.0
  3
*X2
  1

  0
LINE
  5
127
  8
0
 62
     0
 10
28.093365230617788
 20
0.0006327374966304
 30
0.0
 11
28.373258844206191
 21
0.2805263510850864
 31
0.0
  0
LINE
  5
128
  8
0
 62
     0
 10
26.74569410497503
 20
0.0000000300140073
 30
0.0
 11
28.019237964908822
 21
1.273543889947802
 31
0.0
  0
LINE
  5
129
  8
0
 62
     0
 10
25.398655686815012
 20
0.0000000300145189
 30
0.0
 11
26.69379133175886
 21
1.2951356749583729
 31
0.0
  0
LINE
  5
12A
  8
0
 62
     0
 10
24.051617268654979
 20
0.0000000300150305
 30
0.0
 11
25.346752913592351
 21
1.295135674952405
 31
0.0
  0
LINE
  5
12B
  8
0
 62
     0
 10
22.704578850495071
 20
0.000000030015201
 30
0.0
 11
24.372325133249831
 21
1.667746312769907
 31
0.0
  0
LINE
  5
12C
  8
0
 62
     0
 10
23.072325133231569
 20
1.7147847309122419
 30
0.0
 11
24.37232513324426
 21
3.01478473092493
 31
0.0
  0
LINE
  5
12D
  8
0
 62
     0
 10
21.357540432335099
 20
0.0000000300157694
 30
0.0
 11
22.657540432336589
 21
1.3000000300172581
 31
0.0
  0
LINE
  5
12E
  8
0
 62
     0
 10
23.072325133231509
 20
3.0618231490724952
 30
0.0
 11
24.37232513323875
 21
4.3618231490797248
 31
0.0
  0
LINE
  5
12F
  8
0
 62
     0
 10
20.010502014174961
 20
0.00000003001594
 30
0.0
 11
21.310502014176219
 21
1.300000030017201
 31
0.0
  0
LINE
  5
130
  8
0
 62
     0
 10
23.072325133231629
 20
4.4088615672329183
 30
0.0
 11
24.056694503406561
 21
5.3932309374078491
 31
0.0
  0
LINE
  5
131
  8
0
 62
     0
 10
18.66346359601539
 20
0.0000000300166789
 30
0.0
 11
20.056609626168779
 21
1.3931460601700669
 31
0.0
  0
LINE
  5
132
  8
0
 62
     0
 10
17.316425177855422
 20
0.0000000300172474
 30
0.0
 11
19.97389155168992
 21
2.6574664038517422
 31
0.0
  0
LINE
  5
133
  8
0
 62
     0
 10
18.473891551691729
 20
2.504504822013871
 30
0.0
 11
19.97389155168992
 21
4.004504822012052
 31
0.0
  0
LINE
  5
134
  8
0
 62
     0
 10
15.969386759695171
 20
0.0000000300173042
 30
0.0
 11
17.469386759694309
 21
1.500000030016394
 31
0.0
  0
LINE
  5
135
  8
0
 62
     0
 10
18.473891551691899
 20
3.851543240174351
 30
0.0
 11
19.973891551690091
 21
5.3515432401724752
 31
0.0
  0
LINE
  5
136
  8
0
 62
     0
 10
14.62234834153543
 20
0.0000000300178726
 30
0.0
 11
16.122348341534181
 21
1.500000030016565
 31
0.0
  0
LINE
  5
137
  8
0
 62
     0
 10
18.473891551691899
 20
5.1985816583348869
 30
0.0
 11
19.973891551690031
 21
6.698581658333012
 31
0.0
  0
LINE
  5
138
  8
0
 62
     0
 10
13.275309923375289
 20
0.0000000300182705
 30
0.0
 11
14.775309923373641
 21
1.5000000300166221
 31
0.0
  0
LINE
  5
139
  8
0
 62
     0
 10
18.473891551691789
 20
6.5456200764950827
 30
0.0
 11
19.97389155168986
 21
8.0456200764931491
 31
0.0
  0
LINE
  5
13A
  8
0
 62
     0
 10
11.928271505215321
 20
0.0000000300186116
 30
0.0
 11
13.428271505213271
 21
1.500000030016565
 31
0.0
  0
LINE
  5
13B
  8
0
 62
     0
 10
18.47389155169185
 20
7.892658494655449
 30
0.0
 11
19.973891551690031
 21
9.3926584946536291
 31
0.0
  0
LINE
  5
13C
  8
0
 62
     0
 10
10.581233087055519
 20
0.0000000300191232
 30
0.0
 11
12.08123308705296
 21
1.500000030016565
 31
0.0
  0
LINE
  5
13D
  8
0
 62
     0
 10
18.473891551691729
 20
9.239696912815873
 30
0.0
 11
19.97389155168997
 21
10.739696912814111
 31
0.0
  0
LINE
  5
13E
  8
0
 62
     0
 10
9.7176383412589757
 20
0.4834437023831129
 30
0.0
 11
11.0756973067418
 21
1.8415026678659381
 31
0.0
  0
LINE
  5
13F
  8
0
 62
     0
 10
18.47389155169196
 20
10.586735330976181
 30
0.0
 11
19.973891551690141
 21
12.08673533097436
 31
0.0
  0
LINE
  5
140
  8
0
 62
     0
 10
9.573891551694885
 20
1.686735330979104
 30
0.0
 11
11.075697306742139
 21
3.188541086026361
 31
0.0
  0
LINE
  5
141
  8
0
 62
     0
 10
18.473891551691899
 20
11.933773749136661
 30
0.0
 11
19.973891551690031
 21
13.43377374913478
 31
0.0
  0
LINE
  5
142
  8
0
 62
     0
 10
9.5738915516947714
 20
3.0337737491395269
 30
0.0
 11
11.075697306742139
 21
4.5355795041868978
 31
0.0
  0
LINE
  5
143
  8
0
 62
     0
 10
18.473891551691789
 20
13.28081216729708
 30
0.0
 11
19.973891551690031
 21
14.78081216729532
 31
0.0
  0
LINE
  5
144
  8
0
 62
     0
 10
9.5738915516947714
 20
4.3808121673000642
 30
0.0
 11
11.07569730674231
 21
5.8826179223476061
 31
0.0
  0
LINE
  5
145
  8
0
 62
     0
 10
18.47389155169185
 20
14.627850585457219
 30
0.0
 11
19.973891551690141
 21
16.127850585455519
 31
0.0
  0
LINE
  5
146
  8
0
 62
     0
 10
39.254697778710408
 20
35.408656812475783
 30
0.0
 11
39.771749165581809
 21
35.925708199347191
 31
0.0
  0
LINE
  5
147
  8
0
 62
     0
 10
9.573891551694885
 20
5.727850585460259
 30
0.0
 11
11.075697306742819
 21
7.2296563405081988
 31
0.0
  0
LINE
  5
148
  8
0
 62
     0
 10
18.473891551691899
 20
15.974889003617809
 30
0.0
 11
19.973891551690141
 21
17.474889003616049
 31
0.0
  0
LINE
  5
149
  8
0
 62
     0
 10
37.90765936055044
 20
35.408656812476352
 30
0.0
 11
39.207659360549542
 21
36.708656812475454
 31
0.0
  0
LINE
  5
14A
  8
0
 62
     0
 10
9.5738915516948282
 20
7.0748890036206831
 30
0.0
 11
11.07569730674299
 21
8.5766947586689071
 31
0.0
  0
LINE
  5
14B
  8
0
 62
     0
 10
23.199780452519231
 20
22.04781632260546
 30
0.0
 11
24.37232513323568
 21
23.220361003321841
 31
0.0
  0
LINE
  5
14C
  8
0
 62
     0
 10
18.473891551691729
 20
17.321927421777961
 30
0.0
 11
19.97389155168997
 21
18.821927421776191
 31
0.0
  0
LINE
  5
14D
  8
0
 62
     0
 10
36.560620942390422
 20
35.408656812476643
 30
0.0
 11
37.860620942388842
 21
36.708656812475063
 31
0.0
  0
LINE
  5
14E
  8
0
 62
     0
 10
9.5738915516947714
 20
8.4219274217809925
 30
0.0
 11
11.07569730674299
 21
9.9237331768292165
 31
0.0
  0
LINE
  5
14F
  8
0
 62
     0
 10
23.072325133231349
 20
23.267399421477879
 30
0.0
 11
24.372325133235741
 21
24.567399421482211
 31
0.0
  0
LINE
  5
150
  8
0
 62
     0
 10
18.473891551691899
 20
18.66896583993838
 30
0.0
 11
19.973891551690141
 21
20.168965839936678
 31
0.0
  0
LINE
  5
151
  8
0
 62
     0
 10
35.213582524230617
 20
35.408656812477147
 30
0.0
 11
36.695769059202803
 21
36.890843347449326
 31
0.0
  0
LINE
  5
152
  8
0
 62
     0
 10
9.5738915516948282
 20
9.7689658399413588
 30
0.0
 11
11.075697306743329
 21
11.270771594989871
 31
0.0
  0
LINE
  5
153
  8
0
 62
     0
 10
22.154075536652378
 20
23.696188243059389
 30
0.0
 11
24.37232513323568
 21
25.914437839642751
 31
0.0
  0
LINE
  5
154
  8
0
 62
     0
 10
18.473891551691789
 20
20.01600425809886
 30
0.0
 11
19.973891551690091
 21
21.516004258097158
 31
0.0
  0
LINE
  5
155
  8
0
 62
     0
 10
33.866544106070478
 20
35.408656812477552
 30
0.0
 11
36.671667568548742
 21
38.213780274955809
 31
0.0
  0
LINE
  5
156
  8
0
 62
     0
 10
9.5738915516947714
 20
11.116004258101841
 30
0.0
 11
11.07569730674367
 21
12.61781001315074
 31
0.0
  0
LINE
  5
157
  8
0
 62
     0
 10
22.872325133231019
 20
25.761476257798389
 30
0.0
 11
24.37232513323579
 21
27.26147625780311
 31
0.0
  0
LINE
  5
158
  8
0
 62
     0
 10
20.807037118492811
 20
23.696188243060188
 30
0.0
 11
22.308081459911879
 21
25.197232584479249
 31
0.0
  0
LINE
  5
159
  8
0
 62
     0
 10
32.51950568791063
 20
35.408656812477943
 30
0.0
 11
34.019505687922504
 21
36.90865681248988
 31
0.0
  0
LINE
  5
15A
  8
0
 62
     0
 10
18.473891551691789
 20
21.36304267625917
 30
0.0
 11
19.973891551690031
 21
22.863042676257411
 31
0.0
  0
LINE
  5
15B
  8
0
 62
     0
 10
35.17166756856102
 20
38.060818693128397
 30
0.0
 11
36.671667568549537
 21
39.560818693116921
 31
0.0
  0
LINE
  5
15C
  8
0
 62
     0
 10
9.5738915516947714
 20
12.46304267626209
 30
0.0
 11
11.07569730674367
 21
13.964848431310999
 31
0.0
  0
LINE
  5
15D
  8
0
 62
     0
 10
22.872325133228738
 20
27.108514675956432
 30
0.0
 11
24.372325133235851
 21
28.60851467596348
 31
0.0
  0
LINE
  5
15E
  8
0
 62
     0
 10
31.172467269750602
 20
35.408656812478277
 30
0.0
 11
32.672467269762201
 21
36.90865681248988
 31
0.0
  0
LINE
  5
15F
  8
0
 62
     0
 10
18.473891551691899
 20
22.710081094419589
 30
0.0
 11
20.961043041752131
 21
25.197232584479821
 31
0.0
  0
LINE
  5
160
  8
0
 62
     0
 10
35.171667568560451
 20
39.407857111288081
 30
0.0
 11
36.671667568550561
 21
40.90785711127824
 31
0.0
  0
LINE
  5
161
  8
0
 62
     0
 10
9.573891551694885
 20
13.81008109442257
 30
0.0
 11
11.07569730674402
 21
15.3118868494717
 31
0.0
  0
LINE
  5
162
  8
0
 62
     0
 10
22.872325133226301
 20
28.455553094114521
 30
0.0
 11
24.37232513323579
 21
29.95555309412401
 31
0.0
  0
LINE
  5
163
  8
0
 62
     0
 10
29.82542885159069
 20
35.408656812478853
 30
0.0
 11
31.325428851601721
 21
36.90865681248988
 31
0.0
  0
LINE
  5
164
  8
0
 62
     0
 10
18.473891551691729
 20
24.057119512579959
 30
0.0
 11
19.614004623591939
 21
25.197232584480162
 31
0.0
  0
LINE
  5
165
  8
0
 62
     0
 10
35.171667568559542
 20
40.754895529447758
 30
0.0
 11
36.671667568551356
 21
42.254895529439572
 31
0.0
  0
LINE
  5
166
  8
0
 62
     0
 10
9.5738915516947714
 20
15.157119512582989
 30
0.0
 11
11.075697306744191
 21
16.658925267632409
 31
0.0
  0
LINE
  5
167
  8
0
 62
     0
 10
28.478390433430832
 20
35.408656812479137
 30
0.0
 11
29.978390433441572
 21
36.908656812489831
 31
0.0
  0
LINE
  5
168
  8
0
 62
     0
 10
22.87232513322385
 20
29.802591512272159
 30
0.0
 11
24.372325133235961
 21
31.30259151228427
 31
0.0
  0
LINE
  5
169
  8
0
 62
     0
 10
35.171667568559087
 20
42.101933947607392
 30
0.0
 11
36.67166756855238
 21
43.601933947600678
 31
0.0
  0
LINE
  5
16A
  8
0
 62
     0
 10
9.5738915516949987
 20
16.5041579307433
 30
0.0
 11
11.07569730674453
 21
18.005963685792828
 31
0.0
  0
LINE
  5
16B
  8
0
 62
     0
 10
27.120788291515339
 20
35.398093088724181
 30
0.0
 11
28.631352015281209
 21
36.908656812489987
 31
0.0
  0
LINE
  5
16C
  8
0
 62
     0
 10
22.872325133221519
 20
31.149629930430361
 30
0.0
 11
24.382888792446071
 21
32.660193589654909
 31
0.0
  0
LINE
  5
16D
  8
0
 62
     0
 10
35.171667568558291
 20
43.448972365767133
 30
0.0
 11
36.671667568553232
 21
44.948972365762067
 31
0.0
  0
LINE
  5
16E
  8
0
 62
     0
 10
9.573891551694885
 20
17.851196348903731
 30
0.0
 11
11.075697306744701
 21
19.353002103953539
 31
0.0
  0
LINE
  5
16F
  8
0
 62
     0
 10
22.871228624406001
 20
32.49557183977533
 30
0.0
 11
27.771667568561892
 21
37.396010783931267
 31
0.0
  0
LINE
  5
170
  8
0
 62
     0
 10
35.171667568557673
 20
44.796010783926988
 30
0.0
 11
36.671667568554028
 21
46.2960107839234
 31
0.0
  0
LINE
  5
171
  8
0
 62
     0
 10
9.5738915516947145
 20
19.19823476706409
 30
0.0
 11
11.075697306744869
 21
20.70004052211425
 31
0.0
  0
LINE
  5
172
  8
0
 62
     0
 10
23.22737017201678
 20
34.198751805546181
 30
0.0
 11
25.38861533466763
 21
36.359996968197088
 31
0.0
  0
LINE
  5
173
  8
0
 62
     0
 10
34.136590556431372
 20
45.107972189960833
 30
0.0
 11
36.129805390161607
 21
47.101187023691068
 31
0.0
  0
LINE
  5
174
  8
0
 62
     0
 10
9.5738915516949419
 20
20.545273185224399
 30
0.0
 11
11.07569730674521
 21
22.04707894027468
 31
0.0
  0
LINE
  5
175
  8
0
 62
     0
 10
32.788803424438413
 20
45.107223476128411
 30
0.0
 11
35.857890091002453
 21
48.176310142692437
 31
0.0
  0
LINE
  5
176
  8
0
 62
     0
 10
9.573891551694885
 20
21.892311603384879
 30
0.0
 11
11.075697306745379
 21
23.394117358435381
 31
0.0
  0
LINE
  5
177
  8
0
 62
     0
 10
31.441016292445632
 20
45.106474762295932
 30
0.0
 11
33.434411076877502
 21
47.099869546727803
 31
0.0
  0
LINE
  5
178
  8
0
 62
     0
 10
34.383428141144464
 20
48.048886610994771
 30
0.0
 11
36.840553324318648
 21
50.506011794168899
 31
0.0
  0
LINE
  5
179
  8
0
 62
     0
 10
9.5738915516947714
 20
23.239350021545079
 30
0.0
 11
11.07569730674555
 21
24.741155776595861
 31
0.0
  0
LINE
  5
17A
  8
0
 62
     0
 10
30.093229160452729
 20
45.105726048463332
 30
0.0
 11
32.087372658717022
 21
47.099869546727632
 31
0.0
  0
LINE
  5
17B
  8
0
 62
     0
 10
34.098765428731269
 20
49.111262316741879
 30
0.0
 11
35.687372658721927
 21
50.699869546732543
 31
0.0
  0
LINE
  5
17C
  8
0
 62
     0
 10
9.5738915516949987
 20
24.586388439705608
 30
0.0
 11
11.075697306745891
 21
26.088194194756511
 31
0.0
  0
LINE
  5
17D
  8
0
 62
     0
 10
28.74544202845982
 20
45.104977334630973
 30
0.0
 11
30.740334240556251
 21
47.099869546727398
 31
0.0
  0
LINE
  5
17E
  8
0
 62
     0
 10
9.573891551694885
 20
25.933426857866039
 30
0.0
 11
11.075697306745891
 21
27.435232612917051
 31
0.0
  0
LINE
  5
17F
  8
0
 62
     0
 10
27.397654896466861
 20
45.104228620798317
 30
0.0
 11
29.533801796893329
 21
47.240375521224792
 31
0.0
  0
LINE
  5
180
  8
0
 62
     0
 10
9.5738915516947145
 20
27.280465276026181
 30
0.0
 11
11.07569730674618
 21
28.782271031077642
 31
0.0
  0
LINE
  5
181
  8
0
 62
     0
 10
26.049867764474019
 20
45.103479906965731
 30
0.0
 11
30.565973437335739
 21
49.619585579827508
 31
0.0
  0
LINE
  5
182
  8
0
 62
     0
 10
9.5738915516949987
 20
28.627503694186771
 30
0.0
 11
11.075697306746569
 21
30.129309449238349
 31
0.0
  0
LINE
  5
183
  8
0
 62
     0
 10
18.813548098879661
 20
39.214198659531966
 30
0.0
 11
19.699891551690541
 21
40.10054211234285
 31
0.0
  0
LINE
  5
184
  8
0
 62
     0
 10
24.70208063248106
 20
45.102731193133309
 30
0.0
 11
29.299218986076031
 21
49.69986954672833
 31
0.0
  0
LINE
  5
185
  8
0
 62
     0
 10
9.5738915516948282
 20
29.974542112347141
 30
0.0
 11
11.075697306746751
 21
31.47634786739906
 31
0.0
  0
LINE
  5
186
  8
0
 62
     0
 10
23.354293500488438
 20
45.10198247930083
 30
0.0
 11
25.352180567914271
 21
47.099869546726659
 31
0.0
  0
LINE
  5
187
  8
0
 62
     0
 10
18.31648731464821
 20
40.064176293460598
 30
0.0
 11
19.699891551690591
 21
41.447580530502982
 31
0.0
  0
LINE
  5
188
  8
0
 62
     0
 10
26.261000581951858
 20
48.008689560764253
 30
0.0
 11
27.708109326164902
 21
49.455798304977293
 31
0.0
  0
LINE
  5
189
  8
0
 62
     0
 10
9.5738915516949987
 20
31.32158053050739
 30
0.0
 11
11.075697306746971
 21
32.823386285559309
 31
0.0
  0
LINE
  5
18A
  8
0
 62
     0
 10
22.006506368495309
 20
45.101233765468237
 30
0.0
 11
24.005142149754249
 21
47.09986954672717
 31
0.0
  0
LINE
  5
18B
  8
0
 62
     0
 10
17.005504871387579
 20
40.100232268360507
 30
0.0
 11
19.699891551690481
 21
42.794618948663413
 31
0.0
  0
LINE
  5
18C
  8
0
 62
     0
 10
25.733592918225838
 20
48.828320315198759
 30
0.0
 11
26.605142149755689
 21
49.699869546728621
 31
0.0
  0
LINE
  5
18D
  8
0
 62
     0
 10
9.5738915516949987
 20
32.668618948667927
 30
0.0
 11
11.07569730674726
 21
34.170424703720187
 31
0.0
  0
LINE
  5
18E
  8
0
 62
     0
 10
18.19994020635346
 20
42.641706021486918
 30
0.0
 11
19.699891551690431
 21
44.141657366823893
 31
0.0
  0
LINE
  5
18F
  8
0
 62
     0
 10
15.6584664532279
 20
40.10023226836131
 30
0.0
 11
17.158466453226541
 21
41.600232268360003
 31
0.0
  0
LINE
  5
190
  8
0
 62
     0
 10
20.658719236502289
 20
45.100485051635758
 30
0.0
 11
22.658103731594451
 21
47.099869546727923
 31
0.0
  0
LINE
  5
191
  8
0
 62
     0
 10
9.573891551694885
 20
34.01565736682835
 30
0.0
 11
11.075697306747429
 21
35.517463121880901
 31
0.0
  0
LINE
  5
192
  8
0
 62
     0
 10
14.31142803506822
 20
40.100232268361758
 30
0.0
 11
15.81142803506583
 21
41.600232268359377
 31
0.0
  0
LINE
  5
193
  8
0
 62
     0
 10
18.19994020635465
 20
43.988744439648201
 30
0.0
 11
21.501310517292669
 21
47.290114750586213
 31
0.0
  0
LINE
  5
194
  8
0
 62
     0
 10
9.5738915516949987
 20
35.362695784988553
 30
0.0
 11
11.0756973067476
 21
36.864501540041147
 31
0.0
  0
LINE
  5
195
  8
0
 62
     0
 10
18.19994020635545
 20
45.335782857809527
 30
0.0
 11
19.966772720018518
 21
47.102615371472602
 31
0.0
  0
LINE
  5
196
  8
0
 62
     0
 10
12.96438961690842
 20
40.100232268362497
 30
0.0
 11
14.46438961690472
 21
41.600232268358809
 31
0.0
  0
LINE
  5
197
  8
0
 62
     0
 10
20.22353053395852
 20
47.359373185412601
 30
0.0
 11
21.989054450691981
 21
49.124897102146072
 31
0.0
  0
LINE
  5
198
  8
0
 62
     0
 10
9.5738915516949987
 20
36.709734203149083
 30
0.0
 11
11.07569730674777
 21
38.211539958201861
 31
0.0
  0
LINE
  5
199
  8
0
 62
     0
 10
18.19994020635659
 20
46.682821275970923
 30
0.0
 11
18.616988477132729
 21
47.099869546747129
 31
0.0
  0
LINE
  5
19A
  8
0
 62
     0
 10
11.61735119874851
 20
40.100232268362902
 30
0.0
 11
13.117351198743901
 21
41.60023226835829
 31
0.0
  0
LINE
  5
19B
  8
0
 62
     0
 10
20.12090587174055
 20
48.60378694135494
 30
0.0
 11
21.83929984916216
 21
50.32218091877656
 31
0.0
  0
LINE
  5
19C
  8
0
 62
     0
 10
9.4915188272248656
 20
37.974399896839259
 30
0.0
 11
11.075697306748109
 21
39.558578376362448
 31
0.0
  0
LINE
  5
19D
  8
0
 62
     0
 10
19.573609622918411
 20
49.403529110693057
 30
0.0
 11
20.869950058957219
 21
50.699869546731918
 31
0.0
  0
LINE
  5
19E
  8
0
 62
     0
 10
9.0711402283613438
 20
38.901059716136047
 30
0.0
 11
12.399940206368109
 21
42.22985969414281
 31
0.0
  0
LINE
  5
19F
  8
0
 62
     0
 10
11.09994020636884
 20
42.276898112304067
 30
0.0
 11
12.39994020636601
 21
43.576898112301251
 31
0.0
  0
LINE
  5
1A0
  8
0
 62
     0
 10
19.224211420940769
 20
50.401169326876023
 30
0.0
 11
19.522908825073269
 21
50.699866731008512
 31
0.0
  0
LINE
  5
1A1
  8
0
 62
     0
 10
8.4015740779454973
 20
39.578531983880737
 30
0.0
 11
10.42327436242749
 21
41.600232268362731
 31
0.0
  0
LINE
  5
1A2
  8
0
 62
     0
 10
11.099940206365661
 20
43.623936530461208
 30
0.0
 11
12.39994020636391
 21
44.923936530459457
 31
0.0
  0
LINE
  5
1A3
  8
0
 62
     0
 10
7.4845499335128798
 20
40.008546257608373
 30
0.0
 11
9.0762359442665552
 21
41.600232268362099
 31
0.0
  0
LINE
  5
1A4
  8
0
 62
     0
 10
11.099940206362991
 20
44.970974948618782
 30
0.0
 11
12.39994020636186
 21
46.27097494861772
 31
0.0
  0
LINE
  5
1A5
  8
0
 62
     0
 10
6.2291975261056791
 20
40.10023226836153
 30
0.0
 11
7.7291975261056223
 21
41.600232268361466
 31
0.0
  0
LINE
  5
1A6
  8
0
 62
     0
 10
10.28582803964656
 20
45.503901200062948
 30
0.0
 11
11.58593627431088
 21
46.804009434727277
 31
0.0
  0
LINE
  5
1A7
  8
0
 62
     0
 10
4.8821591079447444
 20
40.100232268361133
 30
0.0
 11
6.3821591079446867
 21
41.600232268361083
 31
0.0
  0
LINE
  5
1A8
  8
0
 62
     0
 10
9.0582542403616344
 20
45.623365818938332
 30
0.0
 11
10.236320056068561
 21
46.801431634645269
 31
0.0
  0
LINE
  5
1A9
  8
0
 62
     0
 10
3.535120689784093
 20
40.100232268360742
 30
0.0
 11
5.0351206897837519
 21
41.60023226836045
 31
0.0
  0
LINE
  5
1AA
  8
0
 62
     0
 10
2.1880822716234429
 20
40.100232268360458
 30
0.0
 11
3.6880822716229882
 21
41.600232268360003
 31
0.0
  0
LINE
  5
1AB
  8
0
 62
     0
 10
0.8410438534626791
 20
40.10023226836023
 30
0.0
 11
2.341043853462053
 21
41.600232268359598
 31
0.0
  0
LINE
  5
1AC
  8
0
 62
     0
 10
-0.0000001008001504
 20
40.606226732257483
 30
0.0
 11
1.328223736181769
 21
41.934450569239402
 31
0.0
  0
LINE
  5
1AD
  8
0
 62
     0
 10
3.5506484708764101
 20
45.50391372209458
 30
0.0
 11
3.9738208175955938
 21
45.927086068813757
 31
0.0
  0
LINE
  5
1AE
  8
0
 62
     0
 10
-0.0000001008008894
 20
41.95326515041728
 30
0.0
 11
1.299940206362691
 21
43.253205457580862
 31
0.0
  0
LINE
  5
1AF
  8
0
 62
     0
 10
2.2035898901639248
 20
45.503893559542632
 30
0.0
 11
3.337380159621488
 21
46.637683829000188
 31
0.0
  0
LINE
  5
1B0
  8
0
 62
     0
 10
-0.0000001008018558
 20
43.300303568576851
 30
0.0
 11
1.299940206364681
 21
44.600243875743381
 31
0.0
  0
LINE
  5
1B1
  8
0
 62
     0
 10
-0.0000001008023673
 20
44.647341986736407
 30
0.0
 11
2.1567959545369599
 21
46.804138042075742
 31
0.0
  0
LINE
  5
1B2
  8
0
 62
     0
 10
-0.0000001008031631
 20
45.994380404896162
 30
0.0
 11
0.8095242879241482
 21
46.803904793623467
 31
0.0
  0
ENDBLK
  5
1B4
  8
0
  0
BLOCK
  8
0
  2
*U3
 70
     1
 10
0.0
 20
0.0
 30
0.0
  3
*U3
  1

  0
ARC
  5
1B6
  8
0
 10
30.361706786118699
 20
49.3998695467264
 30
0.0
 40
0.3000000000018196
 50
328.59999999992772
 51
89.999999999305217
  0
LINE
  5
1B7
  8
0
 10
30.36170678612234
 20
49.69986954672823
 30
0.0
 11
28.69681058959668
 21
49.699869546728401
 31
0.0
  0
LINE
  5
1B8
  8
0
 10
29.531984749740332
 20
47.556172436281599
 30
0.0
 11
30.61777202530266
 21
49.243566657172963
 31
0.0
  0
ARC
  5
1B9
  8
0
 10
28.696810589595771
 20
49.399869546727317
 30
0.0
 40
0.3000000000010914
 50
89.999999999826301
 51
147.23994147774019
  0
ARC
  5
1BA
  8
0
 10
29.788256811810239
 20
47.399743301499427
 30
0.0
 40
0.3002423088210597
 50
148.59999999993681
 51
267.16079524645369
  0
LINE
  5
1BB
  8
0
 10
28.44452738071686
 20
49.562206180049692
 30
0.0
 11
28.294366433722651
 21
49.328844893805758
 31
0.0
  0
LINE
  5
1BC
  8
0
 10
33.918949689096742
 20
47.099869546727987
 30
0.0
 11
29.773384851449919
 21
47.099869546727128
 31
0.0
  0
ARC
  5
1BD
  8
0
 10
28.04208322484374
 20
49.491181527126351
 30
0.0
 40
0.3000000000001713
 50
212.76005852197341
 51
327.23994147802671
  0
ARC
  5
1BE
  8
0
 10
34.235177455112527
 20
47.249869546725627
 30
0.0
 40
0.3499999999981547
 50
205.37693352487699
 51
14.999999999959821
  0
LINE
  5
1BF
  8
0
 10
27.789800015964829
 20
49.328844893805758
 30
0.0
 11
27.639639068968791
 21
49.562206180049728
 31
0.0
  0
LINE
  5
1C0
  8
0
 10
34.055797224841633
 20
49.27162183676792
 30
0.0
 11
34.57325149431199
 21
47.340456212510787
 31
0.0
  0
ARC
  5
1C1
  8
0
 10
27.38735586008989
 20
49.399869546727317
 30
0.0
 40
0.3000000000011556
 50
32.760058522265503
 51
90.000000000173699
  0
ARC
  5
1C2
  8
0
 10
33.769483850831421
 20
49.196652889973123
 30
0.0
 40
0.2959656924723573
 50
14.67304296517235
 51
60.710272141888701
  0
LINE
  5
1C3
  8
0
 10
27.38735586008897
 20
49.699869546728472
 30
0.0
 11
25.722459663566951
 21
49.699869546728401
 31
0.0
  0
ARC
  5
1C4
  8
0
 10
34.060412738716877
 20
49.715299925674302
 30
0.0
 40
0.2987059525955683
 50
134.6730429576927
 51
240.71027214189999
  0
ARC
  5
1C5
  8
0
 10
25.72245966356877
 20
49.399869546725498
 30
0.0
 40
0.3000000000029104
 50
90.000000000347399
 51
211.3999999997443
  0
LINE
  5
1C6
  8
0
 10
34.534687262833359
 20
50.612001581085963
 30
0.0
 11
33.85040447148549
 21
49.927718789738897
 31
0.0
  0
LINE
  5
1C7
  8
0
 10
25.466394424383001
 20
49.243566657172948
 30
0.0
 11
26.552181699946232
 21
47.55617243628167
 31
0.0
  0
ARC
  5
1C8
  8
0
 10
34.746819297189631
 20
50.399869546729818
 30
0.0
 40
0.3000000000004093
 50
90.000000000086857
 51
135.00000000001731
  0
ARC
  5
1C9
  8
0
 10
26.295909637875869
 20
47.399743301499207
 30
0.0
 40
0.3002423088217005
 50
272.83920475345332
 51
31.400000000066541
  0
LINE
  5
1CA
  8
0
 10
36.559957844473502
 20
50.699869546734853
 30
0.0
 11
34.746819297189177
 21
50.699869546730227
 31
0.0
  0
LINE
  5
1CB
  8
0
 10
26.310781598235732
 20
47.099869546726239
 30
0.0
 11
22.165216760588009
 21
47.099869546728037
 31
0.0
  0
ARC
  5
1CC
  8
0
 10
36.559957844473047
 20
50.399869546734593
 30
0.0
 40
0.3000000000002502
 50
340.00000000021259
 51
89.999999999913101
  0
ARC
  5
1CD
  8
0
 10
21.848988994573119
 20
47.249869546725627
 30
0.0
 40
0.3499999999972073
 50
165.00000000000389
 51
334.6230664750675
  0
LINE
  5
1CE
  8
0
 10
36.291160871266591
 20
48.811689386562882
 30
0.0
 11
36.841865630709442
 21
50.297263503737852
 31
0.0
  0
LINE
  5
1CF
  8
0
 10
21.51091495537457
 20
47.340456212510787
 30
0.0
 11
22.028369224844031
 21
49.27162183676792
 31
0.0
  0
ARC
  5
1D0
  8
0
 10
36.056237716069518
 20
48.897194422394207
 30
0.0
 40
0.2500000000003968
 50
275.92950474528209
 51
340.00000000006611
  0
ARC
  5
1D1
  8
0
 10
22.31468259885423
 20
49.196652889973123
 30
0.0
 40
0.2959656924723356
 50
119.28972785811931
 51
165.32695703482901
  0
ARC
  5
1D2
  8
0
 10
36.107890091231639
 20
48.399869546312587
 30
0.0
 40
0.2500000002291927
 50
95.929504745491954
 51
179.99999997373641
  0
ARC
  5
1D3
  8
0
 10
22.02375371096878
 20
49.715299925674302
 30
0.0
 40
0.2987059525956484
 50
299.28972785809202
 51
45.326957042314973
  0
LINE
  5
1D4
  8
0
 10
35.857890091002453
 20
47.399869546746409
 30
0.0
 11
35.857890091002453
 21
48.399869546427183
 31
0.0
  0
LINE
  5
1D5
  8
0
 10
22.23376197820016
 20
49.927718789738961
 30
0.0
 11
21.549479186854121
 21
50.61200158108587
 31
0.0
  0
ARC
  5
1D6
  8
0
 10
36.157890091003537
 20
47.399869546747333
 30
0.0
 40
0.3000000000010914
 50
180.00000000017371
 51
270.0
  0
ARC
  5
1D7
  8
0
 10
21.3373471524983
 20
50.399869546731857
 30
0.0
 40
0.2999999999985072
 50
44.999999999754337
 51
89.999999999652587
  0
LINE
  5
1D8
  8
0
 10
36.371667568534583
 20
47.099869546760367
 30
0.0
 11
36.157890091003537
 21
47.099869546746227
 31
0.0
  0
LINE
  5
1D9
  8
0
 10
21.337347152500119
 20
50.699869546730369
 30
0.0
 11
19.524208605213971
 21
50.699869546735677
 31
0.0
  0
ARC
  5
1DA
  8
0
 10
36.371667568554592
 20
46.799869546760377
 30
0.0
 40
0.3
 50
359.99999999995657
 51
90.000000003821427
  0
ARC
  5
1DB
  8
0
 10
19.524208605213971
 20
50.39986954673482
 30
0.0
 40
0.300000000000864
 50
90.0
 51
199.99999999980491
  0
LINE
  5
1DC
  8
0
 10
36.671667568547491
 20
37.008656812475422
 30
0.0
 11
36.671667568554767
 21
46.799869546760149
 31
0.0
  0
LINE
  5
1DD
  8
0
 10
19.242300818977132
 20
50.29726350373781
 30
0.0
 11
19.79300557841907
 21
48.811689386562833
 31
0.0
  0
ARC
  5
1DE
  8
0
 10
36.971667568547673
 20
37.008656812475202
 30
0.0
 40
0.3
 50
179.9999999999566
 51
270.0
  0
ARC
  5
1DF
  8
0
 10
20.02792873361614
 20
48.897194422394207
 30
0.0
 40
0.2500000000005389
 50
199.99999999994469
 51
264.0704952547236
  0
LINE
  5
1E0
  8
0
 10
39.27174916558306
 20
36.70865681247524
 30
0.0
 11
36.971667568547673
 21
36.70865681247524
 31
0.0
  0
ARC
  5
1E1
  8
0
 10
19.976276358454012
 20
48.399869546312587
 30
0.0
 40
0.2500000002290907
 50
0.0000000262635448
 51
84.070495254502333
  0
ARC
  5
1E2
  8
0
 10
39.27174916558306
 20
36.20865681247524
 30
0.0
 40
0.5
 50
0.0
 51
90.0
  0
LINE
  5
1E3
  8
0
 10
20.226276358683211
 20
48.399869546427183
 30
0.0
 11
20.226276358683211
 21
47.399869546749137
 31
0.0
  0
LINE
  5
1E4
  8
0
 10
39.771749165581241
 20
35.708656812477059
 30
0.0
 11
39.77174916558306
 21
36.20865681247524
 31
0.0
  0
ARC
  5
1E5
  8
0
 10
19.926276358683928
 20
47.399869546747333
 30
0.0
 40
0.2999999999992724
 50
270.0
 51
0.0000000003474021
  0
ARC
  5
1E6
  8
0
 10
39.47174916558015
 20
35.708656812477059
 30
0.0
 40
0.3000000000010914
 50
270.0
 51
0.0
  0
LINE
  5
1E7
  8
0
 10
19.926276358683928
 20
47.099869546748053
 30
0.0
 11
18.499940206355859
 21
47.099869546747144
 31
0.0
  0
LINE
  5
1E8
  8
0
 10
27.372325068689861
 20
35.40865681247945
 30
0.0
 11
39.47174916558015
 21
35.408656812475968
 31
0.0
  0
ARC
  5
1E9
  8
0
 10
18.499940206355859
 20
46.799869546747871
 30
0.0
 40
0.2999999999992724
 50
90.0
 51
180.0
  0
ARC
  5
1EA
  8
0
 10
27.37232506869168
 20
32.408656812478696
 30
0.0
 40
3.0000000000007581
 50
90.00000000003476
 51
179.9881147624944
  0
LINE
  5
1EB
  8
0
 10
18.19994020635659
 20
46.799869546747871
 30
0.0
 11
18.199940206352949
 21
41.900232268360199
 31
0.0
  0
LINE
  5
1EC
  8
0
 10
24.372325133234881
 20
22.29323093740841
 30
0.0
 11
24.37232513323579
 21
32.409279122054798
 31
0.0
  0
ARC
  5
1ED
  8
0
 10
17.899940206353669
 20
41.900232268359282
 30
0.0
 40
0.2999999999992724
 50
270.0
 51
0.0000000001737011
  0
ARC
  5
1EE
  8
0
 10
24.072325133235609
 20
22.293230937406591
 30
0.0
 40
0.2999999999992724
 50
270.0
 51
0.0000000003474021
  0
LINE
  5
1EF
  8
0
 10
17.899940206353669
 20
41.600232268360017
 30
0.0
 11
12.69994020636932
 21
41.600232268358198
 31
0.0
  0
LINE
  5
1F0
  8
0
 10
23.372325133231239
 20
21.993230937407318
 30
0.0
 11
24.072325133235609
 21
21.993230937407318
 31
0.0
  0
ARC
  5
1F1
  8
0
 10
12.69994020636841
 20
41.90023226835838
 30
0.0
 40
0.3000000000001819
 50
180.00000000017371
 51
270.00000000017371
  0
ARC
  5
1F2
  8
0
 10
23.372325133231239
 20
22.2932309374075
 30
0.0
 40
0.3000000000001819
 50
180.0
 51
270.0
  0
LINE
  5
1F3
  8
0
 10
12.39994020636823
 20
41.90023226835747
 30
0.0
 11
12.399940206360951
 21
46.503920447016931
 31
0.0
  0
LINE
  5
1F4
  8
0
 10
23.072325133231971
 20
23.39618824305872
 30
0.0
 11
23.072325133231061
 21
22.2932309374075
 31
0.0
  0
ARC
  5
1F5
  8
0
 10
12.09994020636077
 20
46.503920447016029
 30
0.0
 40
0.3000000000001819
 50
0.0000000001737007
 51
90.000000000173699
  0
ARC
  5
1F6
  8
0
 10
22.772325133232702
 20
23.39618824305963
 30
0.0
 40
0.2999999999992724
 50
359.99999999982629
 51
90.0
  0
LINE
  5
1F7
  8
0
 10
12.099940206359859
 20
46.80392044701621
 30
0.0
 11
10.32475863945365
 21
46.804227778019779
 31
0.0
  0
LINE
  5
1F8
  8
0
 10
20.273891551689299
 20
23.696188243060529
 30
0.0
 11
22.772325133232702
 21
23.696188243058899
 31
0.0
  0
ARC
  5
1F9
  8
0
 10
10.324758639452281
 20
45.404227778020591
 30
0.0
 40
1.399999999999181
 50
89.99999999994418
 51
158.69374811907031
  0
ARC
  5
1FA
  8
0
 10
20.273891551689299
 20
23.396188243060539
 30
0.0
 40
0.3
 50
90.0
 51
180.0
  0
ARC
  5
1FB
  8
0
 10
9.2967828703312971
 20
45.801757227007514
 30
0.0
 40
0.2978580228693084
 50
158.08606854207119
 51
270.60767996581239
  0
LINE
  5
1FC
  8
0
 10
19.973891551690031
 20
1.6000000300172841
 30
0.0
 11
19.973891551689121
 21
23.396188243060539
 31
0.0
  0
LINE
  5
1FD
  8
0
 10
9.2999418981216877
 20
45.503915956645201
 30
0.0
 11
10.79994469671419
 21
45.503893504848932
 31
0.0
  0
ARC
  5
1FE
  8
0
 10
20.273891551690209
 20
1.6000000300172841
 30
0.0
 40
0.3
 50
180.0
 51
270.0
  0
ARC
  5
1FF
  8
0
 10
10.79994020636331
 20
45.203893504882629
 30
0.0
 40
0.2999999999999086
 50
0.0000000001302755
 51
89.999142406154377
  0
LINE
  5
200
  8
0
 10
22.772325133232702
 20
1.3000000300173289
 30
0.0
 11
20.273891551690209
 21
1.3000000300173289
 31
0.0
  0
LINE
  5
201
  8
0
 10
11.099940206363041
 20
45.203893504883311
 30
0.0
 11
11.099940206368951
 21
41.90023226836383
 31
0.0
  0
ARC
  5
202
  8
0
 10
22.772325133232702
 20
1.600000030015692
 30
0.0
 40
0.2999999999983629
 50
270.0
 51
0.0000000003474021
  0
ARC
  5
203
  8
0
 10
10.79994020636695
 20
41.900232268364739
 30
0.0
 40
0.3000000000020009
 50
270.00000000017371
 51
359.99999999982629
  0
LINE
  5
204
  8
0
 10
23.072325133231971
 20
5.0932309374058633
 30
0.0
 11
23.072325133231061
 21
1.600000030017511
 31
0.0
  0
LINE
  5
205
  8
0
 10
10.799940206367859
 20
41.600232268362738
 30
0.0
 11
1.799940206360588
 21
41.6002322683591
 31
0.0
  0
ARC
  5
206
  8
0
 10
23.372325133231239
 20
5.0932309374067719
 30
0.0
 40
0.2999999999992724
 50
90.0
 51
180.00000000017371
  0
ARC
  5
207
  8
0
 10
1.7999402063587691
 20
42.100232268357288
 30
0.0
 40
0.499999999998181
 50
179.99999999958311
 51
270.00000000020839
  0
LINE
  5
208
  8
0
 10
24.072325133235609
 20
5.3932309374078642
 30
0.0
 11
23.372325133231239
 21
5.3932309374060452
 31
0.0
  0
LINE
  5
209
  8
0
 10
1.299940206360588
 20
42.100232268360919
 30
0.0
 11
1.2999402063651351
 21
45.203884524179742
 31
0.0
  0
ARC
  5
20A
  8
0
 10
24.072325133234699
 20
5.0932309374076823
 30
0.0
 40
0.3000000000001819
 50
0.0000000001737007
 51
89.999999999826301
  0
ARC
  5
20B
  8
0
 10
1.599940206365317
 20
45.203884524179507
 30
0.0
 40
0.3000000000001819
 50
90.000857593845637
 51
179.9999999999566
  0
LINE
  5
20C
  8
0
 10
24.372325133249429
 20
1.5951356749485079
 30
0.0
 11
24.372325133234881
 21
5.0932309374085909
 31
0.0
  0
LINE
  5
20D
  8
0
 10
1.5999357160144421
 20
45.503884524146081
 30
0.0
 11
3.6999385145936681
 21
45.503915956643318
 31
0.0
  0
ARC
  5
20E
  8
0
 10
24.672325133248709
 20
1.5951356749485079
 30
0.0
 40
0.2999999999992724
 50
180.0
 51
270.0
  0
ARC
  5
20F
  8
0
 10
3.7013088809699179
 20
45.802979514549591
 30
0.0
 40
0.2990666975300984
 50
269.7374616259462
 51
21.568789866247421
  0
LINE
  5
210
  8
0
 10
27.873891551688761
 20
1.2951356749637879
 30
0.0
 11
24.672325133248709
 21
1.295135674949236
 31
0.0
  0
ARC
  5
211
  8
0
 10
2.6751217732639812
 20
45.404227778020591
 30
0.0
 40
1.3999999999993611
 50
21.306251880933189
 51
90.000000000093081
  0
ARC
  5
212
  8
0
 10
27.873891551688761
 20
0.7951356749637882
 30
0.0
 40
0.5
 50
359.9999999997915
 51
90.0
  0
LINE
  5
213
  8
0
 10
2.675121773261707
 20
46.804227778019957
 30
0.0
 11
0.2999479612426512
 21
46.803816572448518
 31
0.0
  0
LINE
  5
214
  8
0
 10
28.373891551688761
 20
0.3000000300146013
 30
0.0
 11
28.373891551688761
 21
0.7951356749619692
 31
0.0
  0
ARC
  5
215
  8
0
 10
0.2999998991967914
 20
46.503816576944658
 30
0.0
 40
0.299999999999786
 50
90.009919418612128
 51
179.9999999999566
  0
ARC
  5
216
  8
0
 10
28.073891551689481
 20
0.3000000300127823
 30
0.0
 40
0.2999999999992724
 50
270.0
 51
0.0000000003474021
  0
LINE
  5
217
  8
0
 10
-0.0000001008029358
 20
46.503816576944878
 30
0.0
 11
-0.0000001008002073
 21
40.40023226835951
 31
0.0
  0
LINE
  5
218
  8
0
 10
10.573891551693571
 20
0.0000000300189669
 30
0.0
 11
28.073891551689481
 21
0.0000000300135099
 31
0.0
  0
ARC
  5
219
  8
0
 10
0.2999998991999746
 20
40.400232268359737
 30
0.0
 40
0.3
 50
180.0000000000434
 51
270.0
  0
ARC
  5
21A
  8
0
 10
10.573891551694031
 20
1.000000030018966
 30
0.0
 40
1.0
 50
180.0
 51
269.99999999997391
  0
LINE
  5
21B
  8
0
 10
0.2999998991999746
 20
40.100232268359747
 30
0.0
 11
6.7738915516938496
 21
40.100232268361601
 31
0.0
  0
LINE
  5
21C
  8
0
 10
9.5738915516940324
 20
37.300232268361647
 30
0.0
 11
9.5738915516940324
 21
1.000000030018966
 31
0.0
  0
ARC
  5
21D
  8
0
 10
6.7738915516938496
 20
37.300232268361647
 30
0.0
 40
2.7999999999999989
 50
0.0
 51
90.0
  0
LINE
  5
21E
  8
0
 10
19.699891551690591
 20
39.514198659563547
 30
0.0
 11
19.699891551690591
 21
44.800119017731227
 31
0.0
  0
ARC
  5
21F
  8
0
 10
19.99989155169169
 20
44.800119017729642
 30
0.0
 40
0.300000000001259
 50
90.032009368395066
 51
179.999999999696
  0
ARC
  5
220
  8
0
 10
19.399891551691319
 20
39.514198659563547
 30
0.0
 40
0.2999999999992724
 50
270.00000000486358
 51
0.0
  0
LINE
  5
221
  8
0
 10
19.99972395103941
 20
45.100118970914259
 30
0.0
 11
34.871515239748078
 21
45.108380450481761
 31
0.0
  0
LINE
  5
222
  8
0
 10
18.773891551715678
 20
39.214198659529721
 30
0.0
 11
19.399891551716792
 21
39.214198659564282
 31
0.0
  0
ARC
  5
223
  8
0
 10
34.87166756855823
 20
44.80838048915593
 30
0.0
 40
0.2999999999992724
 50
359.99999999982629
 51
90.029092660982116
  0
ARC
  5
224
  8
0
 10
18.773891551689761
 20
39.514198659528532
 30
0.0
 40
0.2999999999988176
 50
179.9999999997394
 51
270.00000000495049
  0
LINE
  5
225
  8
0
 10
35.171667568557503
 20
44.808380489155027
 30
0.0
 11
35.171667568561134
 21
37.20865681248911
 31
0.0
  0
LINE
  5
226
  8
0
 10
18.47389155169094
 20
39.800232268359608
 30
0.0
 11
18.47389155169094
 21
39.514198659529903
 31
0.0
  0
ARC
  5
227
  8
0
 10
34.871667568558678
 20
37.208656812492293
 30
0.0
 40
0.3000000000024556
 50
269.9999999999132
 51
359.999999999392
  0
ARC
  5
228
  8
0
 10
18.173891551689849
 20
39.800232268358698
 30
0.0
 40
0.3000000000010914
 50
0.0000000001736837
 51
89.999999999652587
  0
LINE
  5
229
  8
0
 10
34.87166756855823
 20
36.908656812489838
 30
0.0
 11
28.07166756856077
 21
36.908656812489838
 31
0.0
  0
LINE
  5
22A
  8
0
 10
11.375697306749309
 20
40.10023226836342
 30
0.0
 11
18.173891551691661
 21
40.100232268359782
 31
0.0
  0
ARC
  5
22B
  8
0
 10
28.07166756856077
 20
37.20865681248911
 30
0.0
 40
0.2999999999992724
 50
180.0
 51
270.0
  0
ARC
  5
22C
  8
0
 10
11.375697306749309
 20
39.800232268362343
 30
0.0
 40
0.3000000000010914
 50
90.0
 51
179.99999999982629
  0
LINE
  5
22D
  8
0
 10
27.771667568561501
 20
37.20865681248911
 30
0.0
 11
27.771667568561501
 21
37.608656812491482
 31
0.0
  0
LINE
  5
22E
  8
0
 10
11.075697306740951
 20
1.8000000300164201
 30
0.0
 11
11.07569730674822
 21
39.800232268363253
 31
0.0
  0
ARC
  5
22F
  8
0
 10
27.47166756856268
 20
37.608656812492839
 30
0.0
 40
0.2999999999988176
 50
359.99999999973937
 51
90.000000000086885
  0
ARC
  5
230
  8
0
 10
11.375697306741131
 20
1.800000030016647
 30
0.0
 40
0.3000000000001819
 50
180.0000000000434
 51
270.0
  0
LINE
  5
231
  8
0
 10
27.471667568562228
 20
37.908656812491657
 30
0.0
 11
27.07166756856077
 21
37.908656812489838
 31
0.0
  0
LINE
  5
232
  8
0
 10
18.173891551690762
 20
1.5000000300164651
 30
0.0
 11
11.375697306741131
 21
1.5000000300164651
 31
0.0
  0
ARC
  5
233
  8
0
 10
27.07166756856077
 20
37.608656812490572
 30
0.0
 40
0.2999999999992724
 50
90.0
 51
180.0
  0
ARC
  5
234
  8
0
 10
18.173891551690762
 20
1.800000030016647
 30
0.0
 40
0.3000000000001819
 50
270.0
 51
359.99999999995651
  0
LINE
  5
235
  8
0
 10
26.771667568561501
 20
37.608656812490572
 30
0.0
 11
26.771667568561501
 21
37.548285722963058
 31
0.0
  0
LINE
  5
236
  8
0
 10
18.47389155169094
 20
24.897232584480388
 30
0.0
 11
18.47389155169094
 21
1.8000000300164201
 31
0.0
  0
ARC
  5
237
  8
0
 10
25.771667568561501
 20
37.548285722963058
 30
0.0
 40
0.9999999999999879
 50
284.57994383576357
 51
0.0
  0
ARC
  5
238
  8
0
 10
18.773891551691118
 20
24.897232584480161
 30
0.0
 40
0.3000000000001819
 50
90.0
 51
179.9999999999566
  0
ARC
  5
239
  8
0
 10
27.08384433858873
 20
32.503522801624932
 30
0.0
 40
4.2126232175656524
 50
104.5799438354333
 51
181.31177014513599
  0
LINE
  5
23A
  8
0
 10
22.572325133231519
 20
25.19723258447944
 30
0.0
 11
18.773891551691118
 21
25.19723258448035
 31
0.0
  0
LINE
  5
23B
  8
0
 10
22.87232513321942
 20
32.407084448376473
 30
0.0
 11
22.872325133231701
 21
25.49723258447985
 31
0.0
  0
ARC
  5
23C
  8
0
 10
22.572325133231519
 20
25.497232584479391
 30
0.0
 40
0.2999999999999545
 50
270.0
 51
0.0000000000868106
  0
ENDBLK
  5
23E
  8
0
  0
ENDSEC
  0
SECTION
  2
ENTITIES
  0
ARC
  5
91
  8
0
 10
732.47371677603485
 20
775.71278522278487
 30
0.0
 40
0.3000000000018196
 50
328.59999999992772
 51
89.999999999305217
  0
LINE
  5
92
  8
0
 10
732.47371677603849
 20
776.01278522278665
 30
0.0
 11
730.80882057951294
 21
776.01278522278699
 31
0.0
  0
LINE
  5
93
  8
0
 10
731.64399473965659
 20
773.86908811234014
 30
0.0
 11
732.72978201521892
 21
775.55648233323154
 31
0.0
  0
ARC
  5
94
  8
0
 10
730.80882057951203
 20
775.7127852227859
 30
0.0
 40
0.3000000000010914
 50
89.999999999826301
 51
147.23994147775269
  0
ARC
  5
95
  8
0
 10
731.90026680172639
 20
773.71265897755802
 30
0.0
 40
0.3002423088210597
 50
148.59999999994369
 51
267.16079524645369
  0
LINE
  5
96
  8
0
 10
730.55653737063312
 20
775.87512185610819
 30
0.0
 11
730.4063764236389
 21
775.64176056986435
 31
0.0
  0
LINE
  5
97
  8
0
 10
736.03095967901299
 20
773.41278522278651
 30
0.0
 11
731.88539484136618
 21
773.41278522278571
 31
0.0
  0
ARC
  5
98
  8
0
 10
730.15409321476
 20
775.80409720318494
 30
0.0
 40
0.3000000000001713
 50
212.76005852197341
 51
327.23994147802671
  0
ARC
  5
99
  8
0
 10
736.34718744502868
 20
773.56278522278421
 30
0.0
 40
0.3499999999981547
 50
205.37693352488549
 51
14.999999999959821
  0
LINE
  5
9A
  8
0
 10
729.90181000588109
 20
775.64176056986435
 30
0.0
 11
729.75164905888505
 21
775.87512185610831
 31
0.0
  0
LINE
  5
9B
  8
0
 10
736.16780721475777
 20
775.5845375128265
 30
0.0
 11
736.68526148422825
 21
773.65337188856927
 31
0.0
  0
ARC
  5
9C
  8
0
 10
729.49936585000614
 20
775.7127852227859
 30
0.0
 40
0.3000000000011556
 50
32.760058522265503
 51
90.000000000173699
  0
ARC
  5
9D
  8
0
 10
735.88149384074757
 20
775.50956856603159
 30
0.0
 40
0.2959656924723573
 50
14.67304296517101
 51
60.710272141881973
  0
LINE
  5
9E
  8
0
 10
729.49936585000523
 20
776.01278522278699
 30
0.0
 11
727.83446965348321
 21
776.01278522278699
 31
0.0
  0
ARC
  5
9F
  8
0
 10
736.17242272863314
 20
776.02821560173277
 30
0.0
 40
0.2987059525955683
 50
134.6730429576927
 51
240.7102721419067
  0
ARC
  5
A0
  8
0
 10
727.83446965348503
 20
775.71278522278396
 30
0.0
 40
0.3000000000029104
 50
90.000000000347399
 51
211.3999999997431
  0
LINE
  5
A1
  8
0
 10
736.64669725274962
 20
776.92491725714444
 30
0.0
 11
735.96241446140175
 21
776.24063446579748
 31
0.0
  0
LINE
  5
A2
  8
0
 10
727.57840441429926
 20
775.55648233323154
 30
0.0
 11
728.66419168986238
 21
773.86908811234025
 31
0.0
  0
ARC
  5
A3
  8
0
 10
736.85882928710578
 20
776.7127852227884
 30
0.0
 40
0.3000000000004093
 50
90.000000000086857
 51
135.0000000000307
  0
ARC
  5
A4
  8
0
 10
728.40791962779213
 20
773.71265897755779
 30
0.0
 40
0.3002423088217005
 50
272.8392047534532
 51
31.400000000066541
  0
LINE
  5
A5
  8
0
 10
738.67196783438965
 20
777.01278522279335
 30
0.0
 11
736.85882928710544
 21
777.01278522278869
 31
0.0
  0
LINE
  5
A6
  8
0
 10
728.42279158815199
 20
773.41278522278481
 30
0.0
 11
724.27722675050416
 21
773.41278522278662
 31
0.0
  0
ARC
  5
A7
  8
0
 10
738.67196783438931
 20
776.71278522279317
 30
0.0
 40
0.3000000000002502
 50
340.00000000021259
 51
89.999999999913101
  0
ARC
  5
A8
  8
0
 10
723.96099898448927
 20
773.56278522278421
 30
0.0
 40
0.3499999999972073
 50
165.00000000000171
 51
334.6230664750675
  0
LINE
  5
A9
  8
0
 10
738.40317086118284
 20
775.12460506262141
 30
0.0
 11
738.95387562062558
 21
776.61017917979643
 31
0.0
  0
LINE
  5
AA
  8
0
 10
723.62292494529083
 20
773.65337188856927
 30
0.0
 11
724.14037921476017
 21
775.5845375128265
 31
0.0
  0
ARC
  5
AB
  8
0
 10
738.16824770598566
 20
775.21011009845267
 30
0.0
 40
0.2500000000003968
 50
275.9295047452797
 51
340.00000000005531
  0
ARC
  5
AC
  8
0
 10
724.42669258877038
 20
775.50956856603159
 30
0.0
 40
0.2959656924723356
 50
119.289727858118
 51
165.32695703482901
  0
ARC
  5
AD
  8
0
 10
738.21990008114778
 20
774.71278522237105
 30
0.0
 40
0.2500000002291927
 50
95.929504745494299
 51
179.99999997373641
  0
ARC
  5
AE
  8
0
 10
724.13576370088504
 20
776.02821560173277
 30
0.0
 40
0.2987059525956484
 50
299.28972785809327
 51
45.326957042307299
  0
LINE
  5
AF
  8
0
 10
737.96990008091859
 20
773.71278522280488
 30
0.0
 11
737.96990008091859
 21
774.71278522248565
 31
0.0
  0
LINE
  5
B0
  8
0
 10
724.34577196811642
 20
776.24063446579748
 30
0.0
 11
723.66148917677026
 21
776.92491725714444
 31
0.0
  0
ARC
  5
B1
  8
0
 10
738.26990008091968
 20
773.71278522280579
 30
0.0
 40
0.3000000000010914
 50
180.00000000017371
 51
270.0
  0
ARC
  5
B2
  8
0
 10
723.44935714241456
 20
776.71278522279044
 30
0.0
 40
0.2999999999985072
 50
44.999999999754337
 51
89.999999999652587
  0
LINE
  5
B3
  8
0
 10
738.48367755845084
 20
773.41278522281891
 30
0.0
 11
738.26990008091968
 21
773.41278522280481
 31
0.0
  0
LINE
  5
B4
  8
0
 10
723.44935714241626
 20
777.01278522278892
 30
0.0
 11
721.63621859513023
 21
777.01278522279415
 31
0.0
  0
ARC
  5
B5
  8
0
 10
738.48367755847084
 20
773.11278522281896
 30
0.0
 40
0.3
 50
359.99999999995657
 51
90.000000003821427
  0
ARC
  5
B6
  8
0
 10
721.63621859513023
 20
776.71278522279329
 30
0.0
 40
0.300000000000864
 50
90.0
 51
199.9999999998189
  0
LINE
  5
B7
  8
0
 10
738.78367755846375
 20
763.321572488534
 30
0.0
 11
738.78367755847103
 21
773.11278522281873
 31
0.0
  0
LINE
  5
B8
  8
0
 10
721.35431080889327
 20
776.61017917979632
 30
0.0
 11
721.90501556833533
 21
775.12460506262141
 31
0.0
  0
ARC
  5
B9
  8
0
 10
739.08367755846393
 20
763.32157248853377
 30
0.0
 40
0.3
 50
179.9999999999566
 51
270.0
  0
ARC
  5
BA
  8
0
 10
722.13993872353228
 20
775.21011009845267
 30
0.0
 40
0.2500000000005389
 50
199.99999999994469
 51
264.0704952547257
  0
LINE
  5
BB
  8
0
 10
741.38375915549932
 20
763.02157248853382
 30
0.0
 11
739.08367755846393
 21
763.02157248853382
 31
0.0
  0
ARC
  5
BC
  8
0
 10
722.08828634837016
 20
774.71278522237105
 30
0.0
 40
0.2500000002290907
 50
0.0000000262635448
 51
84.070495254500315
  0
ARC
  5
BD
  8
0
 10
741.38375915549932
 20
762.52157248853382
 30
0.0
 40
0.5
 50
0.0
 51
90.0
  0
LINE
  5
BE
  8
0
 10
722.33828634859935
 20
774.71278522248565
 30
0.0
 11
722.33828634859935
 21
773.71278522280772
 31
0.0
  0
LINE
  5
BF
  8
0
 10
741.8837591554975
 20
762.02157248853564
 30
0.0
 11
741.88375915549932
 21
762.52157248853382
 31
0.0
  0
ARC
  5
C0
  8
0
 10
722.03828634860008
 20
773.71278522280579
 30
0.0
 40
0.2999999999992724
 50
270.0
 51
0.0000000003474021
  0
ARC
  5
C1
  8
0
 10
741.5837591554963
 20
762.02157248853564
 30
0.0
 40
0.3000000000010914
 50
270.0
 51
0.0
  0
LINE
  5
C2
  8
0
 10
722.03828634860008
 20
773.41278522280663
 30
0.0
 11
720.61195019627212
 21
773.41278522280561
 31
0.0
  0
LINE
  5
C3
  8
0
 10
729.48433505860612
 20
761.72157248853796
 30
0.0
 11
741.5837591554963
 21
761.72157248853455
 31
0.0
  0
ARC
  5
C4
  8
0
 10
720.61195019627212
 20
773.11278522280645
 30
0.0
 40
0.2999999999992724
 50
90.0
 51
180.0
  0
ARC
  5
C5
  8
0
 10
729.48433505860794
 20
758.72157248853716
 30
0.0
 40
3.0000000000007581
 50
90.00000000003476
 51
179.9881147624944
  0
LINE
  5
C6
  8
0
 10
720.31195019627285
 20
773.11278522280645
 30
0.0
 11
720.31195019626909
 21
768.21314794441878
 31
0.0
  0
LINE
  5
C7
  8
0
 10
726.48433512315114
 20
748.60614661346688
 30
0.0
 11
726.48433512315205
 21
758.72219479811338
 31
0.0
  0
ARC
  5
C8
  8
0
 10
720.01195019626994
 20
768.21314794441776
 30
0.0
 40
0.2999999999992724
 50
270.0
 51
0.0000000001737011
  0
ARC
  5
C9
  8
0
 10
726.18433512315187
 20
748.60614661346517
 30
0.0
 40
0.2999999999992724
 50
270.0
 51
0.0000000003474021
  0
LINE
  5
CA
  8
0
 10
720.01195019626994
 20
767.9131479444186
 30
0.0
 11
714.81195019628547
 21
767.91314794441666
 31
0.0
  0
LINE
  5
CB
  8
0
 10
725.4843351231475
 20
748.3061466134659
 30
0.0
 11
726.18433512315187
 21
748.3061466134659
 31
0.0
  0
ARC
  5
CC
  8
0
 10
714.81195019628456
 20
768.21314794441685
 30
0.0
 40
0.3000000000001819
 50
180.00000000017371
 51
270.00000000017371
  0
ARC
  5
CD
  8
0
 10
725.4843351231475
 20
748.60614661346597
 30
0.0
 40
0.3000000000001819
 50
180.0
 51
270.0
  0
LINE
  5
CE
  8
0
 10
714.51195019628437
 20
768.21314794441605
 30
0.0
 11
714.51195019627721
 21
772.81683612307552
 31
0.0
  0
LINE
  5
CF
  8
0
 10
725.18433512314823
 20
749.7091039191173
 30
0.0
 11
725.18433512314732
 21
748.60614661346597
 31
0.0
  0
ARC
  5
D0
  8
0
 10
714.21195019627703
 20
772.81683612307449
 30
0.0
 40
0.3000000000001819
 50
0.0000000001737007
 51
90.000000000173699
  0
ARC
  5
D1
  8
0
 10
724.88433512314896
 20
749.70910391911821
 30
0.0
 40
0.2999999999992724
 50
359.99999999982629
 51
90.0
  0
LINE
  5
D2
  8
0
 10
714.21195019627612
 20
773.11683612307468
 30
0.0
 11
712.43676862936991
 21
773.11714345407825
 31
0.0
  0
LINE
  5
D3
  8
0
 10
722.38590154160556
 20
750.00910391911907
 30
0.0
 11
724.88433512314896
 21
750.00910391911748
 31
0.0
  0
ARC
  5
D4
  8
0
 10
712.43676862936854
 20
771.71714345407918
 30
0.0
 40
1.399999999999181
 50
89.99999999994418
 51
158.69374811907221
  0
ARC
  5
D5
  8
0
 10
722.38590154160556
 20
749.709103919119
 30
0.0
 40
0.3
 50
90.0
 51
180.0
  0
ARC
  5
D6
  8
0
 10
711.40879286024744
 20
772.11467290306598
 30
0.0
 40
0.2978580228693084
 50
158.08606854208
 51
270.60767996581222
  0
LINE
  5
D7
  8
0
 10
722.08590154160629
 20
727.91291570607575
 30
0.0
 11
722.08590154160538
 21
749.709103919119
 31
0.0
  0
LINE
  5
D8
  8
0
 10
711.41195188803795
 20
771.81683163270372
 30
0.0
 11
712.91195468663045
 21
771.81680918090751
 31
0.0
  0
ARC
  5
D9
  8
0
 10
722.38590154160636
 20
727.91291570607575
 30
0.0
 40
0.3
 50
180.0
 51
270.0
  0
ARC
  5
DA
  8
0
 10
712.91195019627946
 20
771.5168091809411
 30
0.0
 40
0.2999999999999086
 50
0.0000000001302755
 51
89.999142406154377
  0
LINE
  5
DB
  8
0
 10
724.88433512314896
 20
727.61291570607591
 30
0.0
 11
722.38590154160636
 21
727.61291570607591
 31
0.0
  0
LINE
  5
DC
  8
0
 10
713.2119501962793
 20
771.51680918094178
 30
0.0
 11
713.21195019628522
 21
768.2131479444223
 31
0.0
  0
ARC
  5
DD
  8
0
 10
724.88433512314896
 20
727.91291570607427
 30
0.0
 40
0.2999999999983629
 50
270.0
 51
0.0000000003474021
  0
ARC
  5
DE
  8
0
 10
712.91195019628321
 20
768.21314794442333
 30
0.0
 40
0.3000000000020009
 50
270.00000000017371
 51
359.99999999982629
  0
LINE
  5
DF
  8
0
 10
725.18433512314823
 20
731.40614661346444
 30
0.0
 11
725.18433512314732
 21
727.91291570607609
 31
0.0
  0
LINE
  5
E0
  8
0
 10
712.91195019628412
 20
767.91314794442133
 30
0.0
 11
703.91195019627685
 21
767.91314794441757
 31
0.0
  0
ARC
  5
E1
  8
0
 10
725.4843351231475
 20
731.40614661346535
 30
0.0
 40
0.2999999999992724
 50
90.0
 51
180.00000000017371
  0
ARC
  5
E2
  8
0
 10
703.91195019627503
 20
768.41314794441575
 30
0.0
 40
0.499999999998181
 50
179.99999999958311
 51
270.00000000020839
  0
LINE
  5
E3
  8
0
 10
726.18433512315187
 20
731.70614661346644
 30
0.0
 11
725.4843351231475
 21
731.70614661346463
 31
0.0
  0
LINE
  5
E4
  8
0
 10
703.41195019627685
 20
768.41314794441951
 30
0.0
 11
703.41195019628128
 21
771.51680020023832
 31
0.0
  0
ARC
  5
E5
  8
0
 10
726.18433512315084
 20
731.40614661346626
 30
0.0
 40
0.3000000000001819
 50
0.0000000001737007
 51
89.999999999826301
  0
ARC
  5
E6
  8
0
 10
703.71195019628146
 20
771.51680020023798
 30
0.0
 40
0.3000000000001819
 50
90.000857593845637
 51
179.9999999999566
  0
LINE
  5
E7
  8
0
 10
726.48433512316569
 20
727.90805135100709
 30
0.0
 11
726.48433512315114
 21
731.40614661346706
 31
0.0
  0
LINE
  5
E8
  8
0
 10
703.7119457059307
 20
771.81680020020463
 30
0.0
 11
705.81194850450993
 21
771.81683163270191
 31
0.0
  0
ARC
  5
E9
  8
0
 10
726.78433512316496
 20
727.90805135100709
 30
0.0
 40
0.2999999999992724
 50
180.0
 51
270.0
  0
ARC
  5
EA
  8
0
 10
705.81331887088606
 20
772.11589519060806
 30
0.0
 40
0.2990666975300984
 50
269.7374616259462
 51
21.56878986624238
  0
LINE
  5
EB
  8
0
 10
729.98590154160502
 20
727.60805135102237
 30
0.0
 11
726.78433512316496
 21
727.60805135100782
 31
0.0
  0
ARC
  5
EC
  8
0
 10
704.78713176318024
 20
771.71714345407918
 30
0.0
 40
1.3999999999993611
 50
21.306251880932109
 51
90.000000000093067
  0
ARC
  5
ED
  8
0
 10
729.98590154160502
 20
727.10805135102237
 30
0.0
 40
0.5
 50
359.9999999997915
 51
90.0
  0
LINE
  5
EE
  8
0
 10
704.78713176317797
 20
773.11714345407836
 30
0.0
 11
702.41195795115891
 21
773.11673224850711
 31
0.0
  0
LINE
  5
EF
  8
0
 10
730.48590154160502
 20
726.61291570607307
 30
0.0
 11
730.48590154160502
 21
727.10805135102055
 31
0.0
  0
ARC
  5
F0
  8
0
 10
702.41200988911305
 20
772.81673225300324
 30
0.0
 40
0.299999999999786
 50
90.009919418612128
 51
179.9999999999566
  0
ARC
  5
F1
  8
0
 10
730.18590154160574
 20
726.61291570607136
 30
0.0
 40
0.2999999999992724
 50
270.0
 51
0.0000000003474021
  0
LINE
  5
F2
  8
0
 10
702.11200988911332
 20
772.81673225300335
 30
0.0
 11
702.11200988911605
 21
766.71314794441798
 31
0.0
  0
LINE
  5
F3
  8
0
 10
712.68590154160984
 20
726.31291570607755
 30
0.0
 11
730.18590154160574
 21
726.31291570607209
 31
0.0
  0
ARC
  5
F4
  8
0
 10
702.41200988911623
 20
766.71314794441832
 30
0.0
 40
0.3
 50
180.0000000000434
 51
270.0
  0
ARC
  5
F5
  8
0
 10
712.68590154161018
 20
727.31291570607755
 30
0.0
 40
1.0
 50
180.0
 51
269.99999999997391
  0
LINE
  5
F6
  8
0
 10
702.41200988911623
 20
766.41314794441826
 30
0.0
 11
708.88590154161011
 21
766.41314794442007
 31
0.0
  0
LINE
  5
F7
  8
0
 10
711.68590154161018
 20
763.61314794442023
 30
0.0
 11
711.68590154161018
 21
727.31291570607755
 31
0.0
  0
ARC
  5
F8
  8
0
 10
708.88590154161011
 20
763.61314794442023
 30
0.0
 40
2.7999999999999989
 50
0.0
 51
90.0
  0
LINE
  5
F9
  8
0
 10
721.81190154160686
 20
765.82711433562213
 30
0.0
 11
721.81190154160686
 21
771.11303469378981
 31
0.0
  0
ARC
  5
FA
  8
0
 10
722.11190154160795
 20
771.11303469378822
 30
0.0
 40
0.300000000001259
 50
90.032009368395066
 51
179.999999999696
  0
ARC
  5
FB
  8
0
 10
721.51190154160759
 20
765.82711433562213
 30
0.0
 40
0.2999999999992724
 50
270.00000000486358
 51
0.0
  0
LINE
  5
FC
  8
0
 10
722.11173394095556
 20
771.41303464697285
 30
0.0
 11
736.98352522966434
 21
771.42129612654026
 31
0.0
  0
LINE
  5
FD
  8
0
 10
720.88590154163194
 20
765.52711433558818
 30
0.0
 11
721.51190154163305
 21
765.52711433562285
 31
0.0
  0
ARC
  5
FE
  8
0
 10
736.98367755847448
 20
771.12129616521452
 30
0.0
 40
0.2999999999992724
 50
359.99999999982629
 51
90.029092660982116
  0
ARC
  5
FF
  8
0
 10
720.8859015416059
 20
765.82711433558711
 30
0.0
 40
0.2999999999988176
 50
179.9999999997394
 51
270.00000000495049
  0
LINE
  5
100
  8
0
 10
737.28367755847376
 20
771.12129616521361
 30
0.0
 11
737.28367755847728
 21
763.52157248854758
 31
0.0
  0
LINE
  5
101
  8
0
 10
720.5859015416072
 20
766.11314794441819
 30
0.0
 11
720.5859015416072
 21
765.82711433558836
 31
0.0
  0
ARC
  5
102
  8
0
 10
736.98367755847494
 20
763.52157248855076
 30
0.0
 40
0.3000000000024556
 50
269.9999999999132
 51
359.999999999392
  0
ARC
  5
103
  8
0
 10
720.28590154160611
 20
766.11314794441716
 30
0.0
 40
0.3000000000010914
 50
0.0000000001736837
 51
89.999999999652587
  0
LINE
  5
104
  8
0
 10
736.98367755847448
 20
763.22157248854842
 30
0.0
 11
730.18367755847703
 21
763.22157248854842
 31
0.0
  0
LINE
  5
105
  8
0
 10
713.48770729666558
 20
766.41314794442201
 30
0.0
 11
720.28590154160793
 21
766.41314794441837
 31
0.0
  0
ARC
  5
106
  8
0
 10
730.18367755847703
 20
763.52157248854758
 30
0.0
 40
0.2999999999992724
 50
180.0
 51
270.0
  0
ARC
  5
107
  8
0
 10
713.48770729666558
 20
766.1131479444208
 30
0.0
 40
0.3000000000010914
 50
90.0
 51
179.99999999982629
  0
LINE
  5
108
  8
0
 10
729.88367755847764
 20
763.52157248854758
 30
0.0
 11
729.88367755847764
 21
763.92157248855005
 31
0.0
  0
LINE
  5
109
  8
0
 10
713.18770729665721
 20
728.112915706075
 30
0.0
 11
713.18770729666448
 21
766.11314794442183
 31
0.0
  0
ARC
  5
10A
  8
0
 10
729.58367755847894
 20
763.92157248855142
 30
0.0
 40
0.2999999999988176
 50
359.99999999973937
 51
90.000000000086885
  0
ARC
  5
10B
  8
0
 10
713.48770729665739
 20
728.11291570607523
 30
0.0
 40
0.3000000000001819
 50
180.0000000000434
 51
270.0
  0
LINE
  5
10C
  8
0
 10
729.58367755847848
 20
764.22157248855024
 30
0.0
 11
729.18367755847703
 21
764.22157248854842
 31
0.0
  0
LINE
  5
10D
  8
0
 10
720.28590154160702
 20
727.81291570607505
 30
0.0
 11
713.48770729665739
 21
727.81291570607505
 31
0.0
  0
ARC
  5
10E
  8
0
 10
729.18367755847703
 20
763.92157248854915
 30
0.0
 40
0.2999999999992724
 50
90.0
 51
180.0
  0
ARC
  5
10F
  8
0
 10
720.28590154160702
 20
728.11291570607523
 30
0.0
 40
0.3000000000001819
 50
270.0
 51
359.99999999995651
  0
LINE
  5
110
  8
0
 10
728.88367755847764
 20
763.92157248854915
 30
0.0
 11
728.88367755847764
 21
763.86120139902164
 31
0.0
  0
LINE
  5
111
  8
0
 10
720.5859015416072
 20
751.21014826053886
 30
0.0
 11
720.5859015416072
 21
728.112915706075
 31
0.0
  0
ARC
  5
112
  8
0
 10
727.88367755847764
 20
763.86120139902164
 30
0.0
 40
0.9999999999999879
 50
284.57994383576261
 51
0.0
  0
ARC
  5
113
  8
0
 10
720.88590154160738
 20
751.21014826053874
 30
0.0
 40
0.3000000000001819
 50
90.0
 51
179.9999999999566
  0
ARC
  5
114
  8
0
 10
729.19585432850488
 20
758.8164384776835
 30
0.0
 40
4.2126232175656524
 50
104.5799438354336
 51
181.31177014513599
  0
LINE
  5
115
  8
0
 10
724.68433512314766
 20
751.51014826053802
 30
0.0
 11
720.88590154160738
 21
751.51014826053893
 31
0.0
  0
LINE
  5
116
  8
0
 10
724.98433512313568
 20
758.72000012443505
 30
0.0
 11
724.98433512314784
 21
751.81014826053843
 31
0.0
  0
ARC
  5
117
  8
0
 10
724.68433512314766
 20
751.81014826053797
 30
0.0
 40
0.2999999999999545
 50
270.0
 51
0.0000000000868106
  0
ENDSEC
  0
EOF
