  0
SECTION
  2
HEADER
  9
$ACADVER
  1
AC1009
  9
$INSBASE
 10
0.0
 20
0.0
 30
0.0
  9
$EXTMIN
 10
554.01860373213015
 20
847.51302165899506
 30
0.0
  9
$EXTMAX
 10
709.01696857740762
 20
897.5140706366401
 30
0.0
  9
$LIMMIN
 10
0.0
 20
0.0
  9
$LIMMAX
 10
420.0
 20
297.0
  9
$ORTHOMODE
 70
     0
  9
$REGENMODE
 70
     1
  9
$FILLMODE
 70
     1
  9
$QTEXTMODE
 70
     0
  9
$MIRRTEXT
 70
     0
  9
$DRAGMODE
 70
     2
  9
$LTSCALE
 40
1.0
  9
$OSMODE
 70
  3071
  9
$ATTMODE
 70
     1
  9
$TEXTSIZE
 40
2.5
  9
$TRACEWID
 40
1.0
  9
$TEXTSTYLE
  7
STANDARD
  9
$CLAYER
  8
0
  9
$CELTYPE
  6
BYLAYER
  9
$CECOLOR
 62
   256
  9
$DIMSCALE
 40
1.0
  9
$DIMASZ
 40
2.5
  9
$DIMEXO
 40
0.625
  9
$DIMDLI
 40
3.75
  9
$DIMRND
 40
0.0
  9
$DIMDLE
 40
0.0
  9
$DIMEXE
 40
1.25
  9
$DIMTP
 40
0.0
  9
$DIMTM
 40
0.0
  9
$DIMTXT
 40
2.5
  9
$DIMCEN
 40
2.5
  9
$DIMTSZ
 40
0.0
  9
$DIMTOL
 70
     0
  9
$DIMLIM
 70
     0
  9
$DIMTIH
 70
     0
  9
$DIMTOH
 70
     0
  9
$DIMSE1
 70
     0
  9
$DIMSE2
 70
     0
  9
$DIMTAD
 70
     1
  9
$DIMZIN
 70
     8
  9
$DIMBLK
  1

  9
$DIMASO
 70
     1
  9
$DIMSHO
 70
     1
  9
$DIMPOST
  1

  9
$DIMAPOST
  1

  9
$DIMALT
 70
     0
  9
$DIMALTD
 70
     3
  9
$DIMALTF
 40
0.03937007874016
  9
$DIMLFAC
 40
1.0
  9
$DIMTOFL
 70
     1
  9
$DIMTVP
 40
0.0
  9
$DIMTIX
 70
     0
  9
$DIMSOXD
 70
     0
  9
$DIMSAH
 70
     0
  9
$DIMBLK1
  1

  9
$DIMBLK2
  1

  9
$DIMSTYLE
  2
ISO-25
  9
$DIMCLRD
 70
     0
  9
$DIMCLRE
 70
     0
  9
$DIMCLRT
 70
     0
  9
$DIMTFAC
 40
1.0
  9
$DIMGAP
 40
0.625
  9
$LUNITS
 70
     2
  9
$LUPREC
 70
     4
  9
$SKETCHINC
 40
1.0
  9
$FILLETRAD
 40
0.0
  9
$AUNITS
 70
     0
  9
$AUPREC
 70
     0
  9
$MENU
  1
.
  9
$ELEVATION
 40
0.0
  9
$PELEVATION
 40
0.0
  9
$THICKNESS
 40
0.0
  9
$LIMCHECK
 70
     0
  9
$BLIPMODE
 70
     0
  9
$CHAMFERA
 40
0.0
  9
$CHAMFERB
 40
0.0
  9
$SKPOLY
 70
     0
  9
$TDCREATE
 40
2454564.581793658
  9
$TDUPDATE
 40
2454564.5819211919
  9
$TDINDWG
 40
0.0001278935
  9
$TDUSRTIMER
 40
0.0001278935
  9
$USRTIMER
 70
     1
  9
$ANGBASE
 50
0.0
  9
$ANGDIR
 70
     0
  9
$PDMODE
 70
     0
  9
$PDSIZE
 40
0.0
  9
$PLINEWID
 40
0.0
  9
$COORDS
 70
     2
  9
$SPLFRAME
 70
     0
  9
$SPLINETYPE
 70
     6
  9
$SPLINESEGS
 70
     8
  9
$ATTDIA
 70
     0
  9
$ATTREQ
 70
     1
  9
$HANDLING
 70
     1
  9
$HANDSEED
  5
372
  9
$SURFTAB1
 70
     6
  9
$SURFTAB2
 70
     6
  9
$SURFTYPE
 70
     6
  9
$SURFU
 70
     6
  9
$SURFV
 70
     6
  9
$UCSNAME
  2

  9
$UCSORG
 10
0.0
 20
0.0
 30
0.0
  9
$UCSXDIR
 10
1.0
 20
0.0
 30
0.0
  9
$UCSYDIR
 10
0.0
 20
1.0
 30
0.0
  9
$PUCSNAME
  2

  9
$PUCSORG
 10
0.0
 20
0.0
 30
0.0
  9
$PUCSXDIR
 10
1.0
 20
0.0
 30
0.0
  9
$PUCSYDIR
 10
0.0
 20
1.0
 30
0.0
  9
$USERI1
 70
     0
  9
$USERI2
 70
     0
  9
$USERI3
 70
     0
  9
$USERI4
 70
     0
  9
$USERI5
 70
     0
  9
$USERR1
 40
0.0
  9
$USERR2
 40
0.0
  9
$USERR3
 40
0.0
  9
$USERR4
 40
0.0
  9
$USERR5
 40
0.0
  9
$WORLDVIEW
 70
     1
  9
$SHADEDGE
 70
     3
  9
$SHADEDIF
 70
    70
  9
$TILEMODE
 70
     1
  9
$MAXACTVP
 70
    64
  9
$PLIMCHECK
 70
     0
  9
$PEXTMIN
 10
0.0
 20
0.0
 30
0.0
  9
$PEXTMAX
 10
0.0
 20
0.0
 30
0.0
  9
$PLIMMIN
 10
0.0
 20
0.0
  9
$PLIMMAX
 10
12.0
 20
9.0
  9
$UNITMODE
 70
     0
  9
$VISRETAIN
 70
     1
  9
$PLINEGEN
 70
     0
  9
$PSLTSCALE
 70
     1
  0
ENDSEC
  0
SECTION
  2
TABLES
  0
TABLE
  2
VPORT
 70
     2
  0
VPORT
  2
*ACTIVE
 70
     0
 10
0.0
 20
0.0
 11
1.0
 21
1.0
 12
631.51778615476894
 22
872.51354614781735
 13
0.0
 23
0.0
 14
10.0
 24
10.0
 15
10.0
 25
10.0
 16
0.0
 26
0.0
 36
1.0
 17
0.0
 27
0.0
 37
0.0
 40
65.063588210084035
 41
2.394904458598726
 42
50.0
 43
0.0
 44
0.0
 50
0.0
 51
0.0
 71
     0
 72
  1000
 73
     1
 74
     3
 75
     0
 76
     0
 77
     0
 78
     0
  0
ENDTAB
  0
TABLE
  2
LTYPE
 70
     1
  0
LTYPE
  2
CONTINUOUS
 70
     0
  3
Solid line
 72
    65
 73
     0
 40
0.0
  0
ENDTAB
  0
TABLE
  2
LAYER
 70
     2
  0
LAYER
  2
0
 70
     0
 62
     7
  6
CONTINUOUS
  0
LAYER
  2
290304SEND
 70
     0
 62
   182
  6
CONTINUOUS
  0
ENDTAB
  0
TABLE
  2
STYLE
 70
     2
  0
STYLE
  2
STANDARD
 70
     0
 40
0.0
 41
1.0
 50
0.0
 71
     0
 42
2.5
  3
txt
  4

  0
STYLE
  2
ROMANT
 70
     0
 40
2.0
 41
1.0
 50
15.0
 71
     0
 42
2.2000000000000002
  3
romant.shx
  4

  0
ENDTAB
  0
TABLE
  2
VIEW
 70
     0
  0
ENDTAB
  0
TABLE
  2
UCS
 70
     0
  0
ENDTAB
  0
TABLE
  2
APPID
 70
     6
  0
APPID
  2
ACAD
 70
     0
  0
APPID
  2
ACAD_DSTYLE_DIMARC_LENGTH_
 70
     0
  0
APPID
  2
ACAD_DSTYLE_DIMJOGGED_JOGA
 70
     0
  0
APPID
  2
ACAD_DSTYLE_DIMJAG
 70
     0
  0
APPID
  2
ACAD_DSTYLE_DIMTALN
 70
     0
  0
APPID
  2
ACAD_PSEXT
 70
     0
  0
ENDTAB
  0
TABLE
  2
DIMSTYLE
 70
     3
  0
DIMSTYLE
  2
ISO-25
 70
     0
  3

  4

  5

  6

  7

 40
1.0
 41
2.5
 42
0.625
 43
3.75
 44
1.25
 45
0.0
 46
0.0
 47
0.0
 48
0.0
140
2.5
141
2.5
142
0.0
143
0.03937007874016
144
1.0
145
0.0
146
1.0
147
0.625
 71
     0
 72
     0
 73
     0
 74
     0
 75
     0
 76
     0
 77
     1
 78
     8
170
     0
171
     3
172
     1
173
     0
174
     0
175
     0
176
     0
177
     0
178
     0
  0
DIMSTYLE
  2
AM_ISO
 70
     0
  3

  4
"
  5

  6

  7

 40
1.0
 41
2.5
 42
1.0
 43
10.0
 44
1.0
 45
0.0
 46
0.0
 47
0.1
 48
0.1
140
2.0
141
0.0
142
0.0
143
0.0393701
144
1.0
145
0.0
146
0.71
147
1.5
 71
     0
 72
     0
 73
     0
 74
     0
 75
     0
 76
     0
 77
     1
 78
     8
170
     0
171
     2
172
     1
173
     0
174
     0
175
     0
176
     1
177
     1
178
     1
  0
DIMSTYLE
  2
ISO-25_1_E_1
 70
     0
  3

  4

  5

  6

  7

 40
1.0
 41
2.5
 42
0.625
 43
3.75
 44
1.25
 45
0.0
 46
0.0
 47
0.0
 48
0.0
140
2.2000000000000002
141
2.5
142
0.0
143
0.03937007874016
144
0.333333333333333
145
0.0
146
1.0
147
0.3
 71
     0
 72
     0
 73
     0
 74
     1
 75
     0
 76
     0
 77
     1
 78
     8
170
     0
171
     3
172
     0
173
     0
174
     0
175
     0
176
   242
177
   242
178
   256
  0
ENDTAB
  0
ENDSEC
  0
SECTION
  2
BLOCKS
  0
BLOCK
  8
0
  2
$MODEL_SPACE
 70
     0
 10
0.0
 20
0.0
 30
0.0
  3
$MODEL_SPACE
  1

  0
ENDBLK
  5
21
  8
0
  0
BLOCK
 67
     1
  8
0
  2
$PAPER_SPACE
 70
     0
 10
0.0
 20
0.0
 30
0.0
  3
$PAPER_SPACE
  1

  0
ENDBLK
  5
53
 67
     1
  8
0
  0
BLOCK
  8
0
  2
*X2
 70
     1
 10
0.0
 20
0.0
 30
0.0
  3
*X2
  1

  0
LINE
  5
B0
  8
0
 62
     0
 10
154.02404061109559
 20
0.0000001585685823
 30
0.0
 11
154.99836528224159
 21
0.9743248297145328
 31
0.0
  0
LINE
  5
B1
  8
0
 62
     0
 10
152.90150859596221
 20
0.0000001585688096
 30
0.0
 11
154.99836528224179
 21
2.0968568448483889
 31
0.0
  0
LINE
  5
B2
  8
0
 62
     0
 10
151.7789765808279
 20
0.0000001585681275
 30
0.0
 11
154.99836528224159
 21
3.219388859981791
 31
0.0
  0
LINE
  5
B3
  8
0
 62
     0
 10
150.6564445656945
 20
0.0000001585683549
 30
0.0
 11
154.99836528224179
 21
4.341920875115874
 31
0.0
  0
LINE
  5
B4
  8
0
 62
     0
 10
149.5339125505611
 20
0.0000001585685823
 30
0.0
 11
154.9983652822425
 21
5.4644528902501861
 31
0.0
  0
LINE
  5
B5
  8
0
 62
     0
 10
148.4113805354275
 20
0.0000001585688096
 30
0.0
 11
154.9983652822425
 21
6.5869849053838152
 31
0.0
  0
LINE
  5
B6
  8
0
 62
     0
 10
147.28884852029341
 20
0.0000001585683549
 30
0.0
 11
154.9983652822423
 21
7.709516920517216
 31
0.0
  0
LINE
  5
B7
  8
0
 62
     0
 10
148.99836528224071
 20
2.832048935649254
 30
0.0
 11
154.9983652822427
 21
8.8320489356510734
 31
0.0
  0
LINE
  5
B8
  8
0
 62
     0
 10
146.16631650516001
 20
0.0000001585685823
 30
0.0
 11
148.16631650516069
 21
2.0000001585692639
 31
0.0
  0
LINE
  5
B9
  8
0
 62
     0
 10
148.9983652822404
 20
3.9545809507828831
 30
0.0
 11
154.9983652822427
 21
9.9545809507851573
 31
0.0
  0
LINE
  5
BA
  8
0
 62
     0
 10
145.0437844900261
 20
0.0000001585685823
 30
0.0
 11
147.04378449002701
 21
2.0000001585694909
 31
0.0
  0
LINE
  5
BB
  8
0
 62
     0
 10
148.9983652822402
 20
5.0771129659162852
 30
0.0
 11
154.9983652822431
 21
11.077112965919239
 31
0.0
  0
LINE
  5
BC
  8
0
 62
     0
 10
143.9212524748925
 20
0.0000001585685823
 30
0.0
 11
145.92125247489341
 21
2.0000001585694909
 31
0.0
  0
LINE
  5
BD
  8
0
 62
     0
 10
148.9983652822404
 20
6.1996449810499143
 30
0.0
 11
154.9983652822431
 21
12.19964498105241
 31
0.0
  0
LINE
  5
BE
  8
0
 62
     0
 10
142.7987204597591
 20
0.0000001585685823
 30
0.0
 11
144.79872045976001
 21
2.0000001585694909
 31
0.0
  0
LINE
  5
BF
  8
0
 62
     0
 10
148.9983652822404
 20
7.3221769961835426
 30
0.0
 11
154.99836528224341
 21
13.322176996186499
 31
0.0
  0
LINE
  5
C0
  8
0
 62
     0
 10
141.6761884446255
 20
0.0000001585683549
 30
0.0
 11
143.6761884446264
 21
2.0000001585694909
 31
0.0
  0
LINE
  5
C1
  8
0
 62
     0
 10
148.99836528224071
 20
8.4447090113173982
 30
0.0
 11
154.99836528224361
 21
14.44470901132035
 31
0.0
  0
LINE
  5
C2
  8
0
 62
     0
 10
140.55365642949181
 20
0.0000001585685823
 30
0.0
 11
142.5536564294928
 21
2.0000001585697191
 31
0.0
  0
LINE
  5
C3
  8
0
 62
     0
 10
148.9983652822404
 20
9.5672410264508017
 30
0.0
 11
154.99836528224361
 21
15.56724102645421
 31
0.0
  0
LINE
  5
C4
  8
0
 62
     0
 10
139.43112441435781
 20
0.0000001585683549
 30
0.0
 11
141.43112441435889
 21
2.0000001585692639
 31
0.0
  0
LINE
  5
C5
  8
0
 62
     0
 10
148.9983652822404
 20
10.6897730415842
 30
0.0
 11
154.99836528224361
 21
16.68977304158761
 31
0.0
  0
LINE
  5
C6
  8
0
 62
     0
 10
138.3085923992243
 20
0.0000001585683549
 30
0.0
 11
140.30859239922549
 21
2.0000001585692639
 31
0.0
  0
LINE
  5
C7
  8
0
 62
     0
 10
148.9983652822402
 20
11.812305056717831
 30
0.0
 11
154.99836528224381
 21
17.81230505672147
 31
0.0
  0
LINE
  5
C8
  8
0
 62
     0
 10
137.18606038409101
 20
0.0000001585685823
 30
0.0
 11
139.1860603840916
 21
2.0000001585692639
 31
0.0
  0
LINE
  5
C9
  8
0
 62
     0
 10
148.9983652822404
 20
12.934837071851909
 30
0.0
 11
154.99836528224409
 21
18.93483707185533
 31
0.0
  0
LINE
  5
CA
  8
0
 62
     0
 10
136.06352836895761
 20
0.0000001585688096
 30
0.0
 11
138.063528368958
 21
2.0000001585694909
 31
0.0
  0
LINE
  5
CB
  8
0
 62
     0
 10
148.9983652822404
 20
14.05736908698554
 30
0.0
 11
154.99836528224409
 21
20.05736908698918
 31
0.0
  0
LINE
  5
CC
  8
0
 62
     0
 10
134.94099635382321
 20
0.0000001585681275
 30
0.0
 11
136.94099635382409
 21
2.0000001585692639
 31
0.0
  0
LINE
  5
CD
  8
0
 62
     0
 10
148.9983652822404
 20
15.179901102119169
 30
0.0
 11
154.99836528224469
 21
21.179901102123502
 31
0.0
  0
LINE
  5
CE
  8
0
 62
     0
 10
133.81846433868981
 20
0.0000001585683549
 30
0.0
 11
135.8184643386908
 21
2.0000001585694909
 31
0.0
  0
LINE
  5
CF
  8
0
 62
     0
 10
148.9983652822404
 20
16.3024331172528
 30
0.0
 11
154.99836528224469
 21
22.3024331172569
 31
0.0
  0
LINE
  5
D0
  8
0
 62
     0
 10
132.69593232355641
 20
0.0000001585685823
 30
0.0
 11
134.69593232355729
 21
2.0000001585697191
 31
0.0
  0
LINE
  5
D1
  8
0
 62
     0
 10
148.99836528224071
 20
17.424965132386429
 30
0.0
 11
154.99836528224469
 21
23.424965132390749
 31
0.0
  0
LINE
  5
D2
  8
0
 62
     0
 10
131.5734003084228
 20
0.0000001585688096
 30
0.0
 11
133.57340030842349
 21
2.0000001585692639
 31
0.0
  0
LINE
  5
D3
  8
0
 62
     0
 10
148.9983652822404
 20
18.547497147519831
 30
0.0
 11
154.998365282245
 21
24.547497147524378
 31
0.0
  0
LINE
  5
D4
  8
0
 62
     0
 10
130.45086829328869
 20
0.0000001585683549
 30
0.0
 11
132.45086829328989
 21
2.0000001585692639
 31
0.0
  0
LINE
  5
D5
  8
0
 62
     0
 10
148.99836528224071
 20
19.670029162653918
 30
0.0
 11
154.998365282245
 21
25.670029162658011
 31
0.0
  0
LINE
  5
D6
  8
0
 62
     0
 10
129.32833627815509
 20
0.0000001585683549
 30
0.0
 11
131.328336278156
 21
2.0000001585692639
 31
0.0
  0
LINE
  5
D7
  8
0
 62
     0
 10
148.9983652822404
 20
20.792561177787551
 30
0.0
 11
154.9983652822452
 21
26.792561177792319
 31
0.0
  0
LINE
  5
D8
  8
0
 62
     0
 10
128.20580426302149
 20
0.0000001585685823
 30
0.0
 11
130.2058042630224
 21
2.0000001585694909
 31
0.0
  0
LINE
  5
D9
  8
0
 62
     0
 10
148.9983652822402
 20
21.915093192920949
 30
0.0
 11
154.9983652822454
 21
27.915093192925951
 31
0.0
  0
LINE
  5
DA
  8
0
 62
     0
 10
127.08327224788781
 20
0.0000001585685823
 30
0.0
 11
129.08327224788849
 21
2.0000001585692639
 31
0.0
  0
LINE
  5
DB
  8
0
 62
     0
 10
148.9983652822404
 20
23.037625208054578
 30
0.0
 11
154.99836528224569
 21
29.037625208059811
 31
0.0
  0
LINE
  5
DC
  8
0
 62
     0
 10
125.9607402327544
 20
0.0000001585685823
 30
0.0
 11
127.9607402327551
 21
2.0000001585692639
 31
0.0
  0
LINE
  5
DD
  8
0
 62
     0
 10
148.9983652822404
 20
24.160157223188211
 30
0.0
 11
154.99836528224591
 21
30.160157223193661
 31
0.0
  0
LINE
  5
DE
  8
0
 62
     0
 10
124.8382082176208
 20
0.0000001585683549
 30
0.0
 11
126.8382082176217
 21
2.0000001585694909
 31
0.0
  0
LINE
  5
DF
  8
0
 62
     0
 10
148.99836528224071
 20
25.28268923832206
 30
0.0
 11
154.99836528224611
 21
31.282689238327752
 31
0.0
  0
LINE
  5
E0
  8
0
 62
     0
 10
123.7156762024872
 20
0.0000001585688096
 30
0.0
 11
125.7156762024879
 21
2.0000001585692639
 31
0.0
  0
LINE
  5
E1
  8
0
 62
     0
 10
148.9983652822404
 20
26.405221253455469
 30
0.0
 11
154.99836528224591
 21
32.40522125346115
 31
0.0
  0
LINE
  5
E2
  8
0
 62
     0
 10
122.5931441873531
 20
0.0000001585683549
 30
0.0
 11
124.5931441873542
 21
2.0000001585692639
 31
0.0
  0
LINE
  5
E3
  8
0
 62
     0
 10
148.9983652822404
 20
27.527753268588871
 30
0.0
 11
154.99836528224611
 21
33.527753268594779
 31
0.0
  0
LINE
  5
E4
  8
0
 62
     0
 10
121.4706121722197
 20
0.0000001585683549
 30
0.0
 11
123.4706121722204
 21
2.000000158569037
 31
0.0
  0
LINE
  5
E5
  8
0
 62
     0
 10
148.99836528224071
 20
28.650285283722951
 30
0.0
 11
154.9983652822466
 21
34.650285283728643
 31
0.0
  0
LINE
  5
E6
  8
0
 62
     0
 10
120.3480801570863
 20
0.0000001585685823
 30
0.0
 11
122.348080157087
 21
2.0000001585692639
 31
0.0
  0
LINE
  5
E7
  8
0
 62
     0
 10
148.9983652822404
 20
29.77281729885658
 30
0.0
 11
154.99836528224679
 21
35.772817298862947
 31
0.0
  0
LINE
  5
E8
  8
0
 62
     0
 10
119.2255481419529
 20
0.0000001585688096
 30
0.0
 11
121.2255481419531
 21
2.0000001585692639
 31
0.0
  0
LINE
  5
E9
  8
0
 62
     0
 10
148.9983652822404
 20
30.895349313990209
 30
0.0
 11
154.9983652822466
 21
36.895349313996348
 31
0.0
  0
LINE
  5
EA
  8
0
 62
     0
 10
118.1030161268186
 20
0.0000001585681275
 30
0.0
 11
120.1030161268195
 21
2.0000001585692639
 31
0.0
  0
LINE
  5
EB
  8
0
 62
     0
 10
148.9983652822404
 20
32.017881329123838
 30
0.0
 11
154.99836528224699
 21
38.017881329130212
 31
0.0
  0
LINE
  5
EC
  8
0
 62
     0
 10
116.9804841116852
 20
0.0000001585683549
 30
0.0
 11
118.9804841116861
 21
2.0000001585694909
 31
0.0
  0
LINE
  5
ED
  8
0
 62
     0
 10
148.9983652822404
 20
33.140413344257468
 30
0.0
 11
154.99836528224731
 21
39.140413344264289
 31
0.0
  0
LINE
  5
EE
  8
0
 62
     0
 10
115.8579520965518
 20
0.0000001585685823
 30
0.0
 11
117.857952096552
 21
2.000000158569037
 31
0.0
  0
LINE
  5
EF
  8
0
 62
     0
 10
148.99836528224071
 20
34.262945359391097
 30
0.0
 11
154.99836528224731
 21
40.262945359397918
 31
0.0
  0
LINE
  5
F0
  8
0
 62
     0
 10
114.7354200814177
 20
0.0000001585683549
 30
0.0
 11
116.7354200814184
 21
2.000000158569037
 31
0.0
  0
LINE
  5
F1
  8
0
 62
     0
 10
148.9983652822404
 20
35.385477374524498
 30
0.0
 11
154.99836528224751
 21
41.385477374531767
 31
0.0
  0
LINE
  5
F2
  8
0
 62
     0
 10
113.6128880662841
 20
0.0000001585683549
 30
0.0
 11
115.6128880662848
 21
2.000000158569037
 31
0.0
  0
LINE
  5
F3
  8
0
 62
     0
 10
148.99836528224071
 20
36.508009389658582
 30
0.0
 11
154.9983652822477
 21
42.508009389665631
 31
0.0
  0
LINE
  5
F4
  8
0
 62
     0
 10
112.4903560511504
 20
0.0000001585683549
 30
0.0
 11
114.49035605115129
 21
2.0000001585692639
 31
0.0
  0
LINE
  5
F5
  8
0
 62
     0
 10
148.9983652822404
 20
37.630541404792211
 30
0.0
 11
154.9983652822479
 21
43.63054140479948
 31
0.0
  0
LINE
  5
F6
  8
0
 62
     0
 10
111.3678240360168
 20
0.0000001585685823
 30
0.0
 11
113.3678240360175
 21
2.0000001585692639
 31
0.0
  0
LINE
  5
F7
  8
0
 62
     0
 10
148.9983652822402
 20
38.75307341992562
 30
0.0
 11
154.9983652822477
 21
44.753073419932882
 31
0.0
  0
LINE
  5
F8
  8
0
 62
     0
 10
110.2452920208832
 20
0.0000001585685823
 30
0.0
 11
112.24529202088389
 21
2.0000001585692639
 31
0.0
  0
LINE
  5
F9
  8
0
 62
     0
 10
148.9983652822404
 20
39.875605435059242
 30
0.0
 11
154.99836528224819
 21
45.875605435066973
 31
0.0
  0
LINE
  5
FA
  8
0
 62
     0
 10
109.1227600057498
 20
0.0000001585685823
 30
0.0
 11
111.12276000575019
 21
2.0000001585688092
 31
0.0
  0
LINE
  5
FB
  8
0
 62
     0
 10
148.9983652822404
 20
40.998137450192871
 30
0.0
 11
154.99836528224819
 21
46.998137450200602
 31
0.0
  0
LINE
  5
FC
  8
0
 62
     0
 10
108.0002279906161
 20
0.0000001585683549
 30
0.0
 11
110.00022799061681
 21
2.000000158569037
 31
0.0
  0
LINE
  5
FD
  8
0
 62
     0
 10
148.99836528224071
 20
42.120669465326721
 30
0.0
 11
154.99836528224861
 21
48.120669465334913
 31
0.0
  0
LINE
  5
FE
  8
0
 62
     0
 10
106.8776959754825
 20
0.0000001585688096
 30
0.0
 11
108.87769597548321
 21
2.0000001585692639
 31
0.0
  0
LINE
  5
FF
  8
0
 62
     0
 10
148.9983652822404
 20
43.243201480460122
 30
0.0
 11
154.99836528224839
 21
49.243201480468308
 31
0.0
  0
LINE
  5
100
  8
0
 62
     0
 10
105.7551639603484
 20
0.0000001585683549
 30
0.0
 11
107.75516396034909
 21
2.000000158569037
 31
0.0
  0
LINE
  5
101
  8
0
 62
     0
 10
148.9983652822404
 20
44.365733495593531
 30
0.0
 11
154.63368092285941
 21
50.001049136212707
 31
0.0
  0
LINE
  5
102
  8
0
 62
     0
 10
104.632631945215
 20
0.0000001585683549
 30
0.0
 11
106.63263194521571
 21
2.000000158569037
 31
0.0
  0
LINE
  5
103
  8
0
 62
     0
 10
148.99836528224071
 20
45.488265510727608
 30
0.0
 11
153.51114890772601
 21
50.001049136212941
 31
0.0
  0
LINE
  5
104
  8
0
 62
     0
 10
103.51009993008159
 20
0.0000001585685823
 30
0.0
 11
105.51009993008211
 21
2.000000158569037
 31
0.0
  0
LINE
  5
105
  8
0
 62
     0
 10
148.9983652822404
 20
46.610797525861237
 30
0.0
 11
152.3886168925921
 21
50.001049136212707
 31
0.0
  0
LINE
  5
106
  8
0
 62
     0
 10
102.38756791494821
 20
0.0000001585688096
 30
0.0
 11
104.38756791494841
 21
2.0000001585692639
 31
0.0
  0
LINE
  5
107
  8
0
 62
     0
 10
148.99669057687689
 20
47.731654835631389
 30
0.0
 11
151.2660848774585
 21
50.001049136212707
 31
0.0
  0
LINE
  5
108
  8
0
 62
     0
 10
101.2650358998139
 20
0.0000001585681275
 30
0.0
 11
103.26503589981461
 21
2.0000001585688092
 31
0.0
  0
LINE
  5
109
  8
0
 62
     0
 10
148.1425038846796
 20
48.000000158567453
 30
0.0
 11
150.14355286232509
 21
50.001049136212941
 31
0.0
  0
LINE
  5
10A
  8
0
 62
     0
 10
100.14250388468049
 20
0.0000001585683549
 30
0.0
 11
102.1425038846812
 21
2.000000158569037
 31
0.0
  0
LINE
  5
10B
  8
0
 62
     0
 10
147.0199718695462
 20
48.0000001585679
 30
0.0
 11
149.02102084719169
 21
50.001049136213389
 31
0.0
  0
LINE
  5
10C
  8
0
 62
     0
 10
99.019971869547135
 20
0.0000001585685823
 30
0.0
 11
101.01997186954731
 21
2.000000158569037
 31
0.0
  0
LINE
  5
10D
  8
0
 62
     0
 10
145.8974398544126
 20
48.0000001585679
 30
0.0
 11
147.89848883205761
 21
50.001049136212941
 31
0.0
  0
LINE
  5
10E
  8
0
 62
     0
 10
97.897439854413051
 20
0.0000001585683549
 30
0.0
 11
99.897439854413733
 21
2.000000158569037
 31
0.0
  0
LINE
  5
10F
  8
0
 62
     0
 10
144.77490783927851
 20
48.000000158567453
 30
0.0
 11
146.77595681692401
 21
50.001049136212941
 31
0.0
  0
LINE
  5
110
  8
0
 62
     0
 10
96.774907839279436
 20
0.0000001585683549
 30
0.0
 11
98.774907839280104
 21
2.000000158569037
 31
0.0
  0
LINE
  5
111
  8
0
 62
     0
 10
143.65237582414531
 20
48.000000158567673
 30
0.0
 11
145.65342480179029
 21
50.001049136212941
 31
0.0
  0
LINE
  5
112
  8
0
 62
     0
 10
95.652375824145807
 20
0.0000001585683549
 30
0.0
 11
97.652375824146475
 21
2.000000158569037
 31
0.0
  0
LINE
  5
113
  8
0
 62
     0
 10
142.5298438090112
 20
48.000000158567673
 30
0.0
 11
144.53089278665669
 21
50.001049136213169
 31
0.0
  0
LINE
  5
114
  8
0
 62
     0
 10
94.529843809012164
 20
0.0000001585685823
 30
0.0
 11
96.529843809012846
 21
2.0000001585692639
 31
0.0
  0
LINE
  5
115
  8
0
 62
     0
 10
141.40731179387811
 20
48.0000001585679
 30
0.0
 11
143.40836077152289
 21
50.001049136212707
 31
0.0
  0
LINE
  5
116
  8
0
 62
     0
 10
93.407311793878534
 20
0.0000001585685823
 30
0.0
 11
95.407311793878989
 21
2.0000001585688092
 31
0.0
  0
LINE
  5
117
  8
0
 62
     0
 10
140.28477977874419
 20
48.000000158567673
 30
0.0
 11
142.28582875638949
 21
50.001049136212707
 31
0.0
  0
LINE
  5
118
  8
0
 62
     0
 10
92.284779778745133
 20
0.0000001585685823
 30
0.0
 11
94.284779778745587
 21
2.0000001585688092
 31
0.0
  0
LINE
  5
119
  8
0
 62
     0
 10
139.16224776361079
 20
48.0000001585679
 30
0.0
 11
141.16329674125609
 21
50.001049136213169
 31
0.0
  0
LINE
  5
11A
  8
0
 62
     0
 10
91.162247763611504
 20
0.0000001585683549
 30
0.0
 11
93.162247763611717
 21
2.0000001585688092
 31
0.0
  0
LINE
  5
11B
  8
0
 62
     0
 10
138.03971574847691
 20
48.0000001585679
 30
0.0
 11
140.04076472612201
 21
50.001049136212941
 31
0.0
  0
LINE
  5
11C
  8
0
 62
     0
 10
90.039715748477875
 20
0.0000001585688096
 30
0.0
 11
92.039715748477875
 21
2.0000001585688092
 31
0.0
  0
LINE
  5
11D
  8
0
 62
     0
 10
136.91718373334331
 20
48.0000001585679
 30
0.0
 11
138.91823271098829
 21
50.001049136212941
 31
0.0
  0
LINE
  5
11E
  8
0
 62
     0
 10
88.917183733343791
 20
0.0000001585683549
 30
0.0
 11
90.917183733344245
 21
2.0000001585688092
 31
0.0
  0
LINE
  5
11F
  8
0
 62
     0
 10
135.79465171820971
 20
48.000000158567453
 30
0.0
 11
137.79570069585469
 21
50.001049136212707
 31
0.0
  0
LINE
  5
120
  8
0
 62
     0
 10
87.794651718210389
 20
0.0000001585683549
 30
0.0
 11
89.794651718210844
 21
2.0000001585688092
 31
0.0
  0
LINE
  5
121
  8
0
 62
     0
 10
134.67211970307631
 20
48.000000158567673
 30
0.0
 11
136.67316868072129
 21
50.001049136212941
 31
0.0
  0
LINE
  5
122
  8
0
 62
     0
 10
86.672119703076987
 20
0.0000001585685823
 30
0.0
 11
88.672119703077442
 21
2.000000158569037
 31
0.0
  0
LINE
  5
123
  8
0
 62
     0
 10
133.54958768794259
 20
48.0000001585679
 30
0.0
 11
135.55063666558749
 21
50.001049136212707
 31
0.0
  0
LINE
  5
124
  8
0
 62
     0
 10
85.549587687943585
 20
0.0000001585688096
 30
0.0
 11
87.549587687943585
 21
2.0000001585688092
 31
0.0
  0
LINE
  5
125
  8
0
 62
     0
 10
132.42705567280899
 20
48.0000001585679
 30
0.0
 11
134.4281046504538
 21
50.001049136212707
 31
0.0
  0
LINE
  5
126
  8
0
 62
     0
 10
84.427055672809274
 20
0.0000001585681275
 30
0.0
 11
86.427055672809956
 21
2.0000001585688092
 31
0.0
  0
LINE
  5
127
  8
0
 62
     0
 10
131.30452365767519
 20
48.0000001585679
 30
0.0
 11
133.3055726353204
 21
50.001049136212941
 31
0.0
  0
LINE
  5
128
  8
0
 62
     0
 10
83.304523657675873
 20
0.0000001585683549
 30
0.0
 11
85.3045236576761
 21
2.0000001585688092
 31
0.0
  0
LINE
  5
129
  8
0
 62
     0
 10
130.1819916425415
 20
48.0000001585679
 30
0.0
 11
132.183040620187
 21
50.001049136213389
 31
0.0
  0
LINE
  5
12A
  8
0
 62
     0
 10
82.181991642542471
 20
0.0000001585685823
 30
0.0
 11
84.181991642542698
 21
2.000000158569037
 31
0.0
  0
LINE
  5
12B
  8
0
 62
     0
 10
129.0594596274079
 20
48.0000001585679
 30
0.0
 11
131.060508605053
 21
50.001049136212941
 31
0.0
  0
LINE
  5
12C
  8
0
 62
     0
 10
81.059459627408387
 20
0.0000001585683549
 30
0.0
 11
83.059459627409055
 21
2.000000158569037
 31
0.0
  0
LINE
  5
12D
  8
0
 62
     0
 10
127.9369276122743
 20
48.0000001585679
 30
0.0
 11
129.93797658991929
 21
50.001049136212941
 31
0.0
  0
LINE
  5
12E
  8
0
 62
     0
 10
79.936927612274744
 20
0.0000001585683549
 30
0.0
 11
81.936927612274758
 21
2.000000158568354
 31
0.0
  0
LINE
  5
12F
  8
0
 62
     0
 10
126.8143955971409
 20
48.000000158568128
 30
0.0
 11
128.81544457478569
 21
50.001049136212941
 31
0.0
  0
LINE
  5
130
  8
0
 62
     0
 10
78.814395597141129
 20
0.0000001585683549
 30
0.0
 11
80.814395597141583
 21
2.0000001585685818
 31
0.0
  0
LINE
  5
131
  8
0
 62
     0
 10
125.6918635820073
 20
48.0000001585679
 30
0.0
 11
127.6929125596521
 21
50.001049136212707
 31
0.0
  0
LINE
  5
132
  8
0
 62
     0
 10
77.691863582007727
 20
0.0000001585685823
 30
0.0
 11
79.691863582008182
 21
2.0000001585688092
 31
0.0
  0
LINE
  5
133
  8
0
 62
     0
 10
124.5693315668734
 20
48.0000001585679
 30
0.0
 11
126.5703805445182
 21
50.001049136212707
 31
0.0
  0
LINE
  5
134
  8
0
 62
     0
 10
76.569331566873871
 20
0.0000001585685823
 30
0.0
 11
78.569331566874325
 21
2.0000001585688092
 31
0.0
  0
LINE
  5
135
  8
0
 62
     0
 10
123.4467995517395
 20
48.000000158567673
 30
0.0
 11
125.4478485293848
 21
50.001049136212707
 31
0.0
  0
LINE
  5
136
  8
0
 62
     0
 10
75.446799551740455
 20
0.0000001585685823
 30
0.0
 11
77.446799551740469
 21
2.0000001585685818
 31
0.0
  0
LINE
  5
137
  8
0
 62
     0
 10
122.3242675366061
 20
48.0000001585679
 30
0.0
 11
124.3253165142514
 21
50.001049136213169
 31
0.0
  0
LINE
  5
138
  8
0
 62
     0
 10
74.32426753660684
 20
0.0000001585683549
 30
0.0
 11
76.324267536607067
 21
2.0000001585688092
 31
0.0
  0
LINE
  5
139
  8
0
 62
     0
 10
121.2017355214725
 20
48.000000158568128
 30
0.0
 11
123.2027844991173
 21
50.001049136212941
 31
0.0
  0
LINE
  5
13A
  8
0
 62
     0
 10
73.201735521473211
 20
0.0000001585688096
 30
0.0
 11
75.201735521473211
 21
2.0000001585688092
 31
0.0
  0
LINE
  5
13B
  8
0
 62
     0
 10
120.0792035063389
 20
48.000000158568128
 30
0.0
 11
122.0802524839837
 21
50.001049136212941
 31
0.0
  0
LINE
  5
13C
  8
0
 62
     0
 10
72.079203506339127
 20
0.0000001585683549
 30
0.0
 11
74.079203506339582
 21
2.0000001585688092
 31
0.0
  0
LINE
  5
13D
  8
0
 62
     0
 10
118.956671491205
 20
48.000000158567453
 30
0.0
 11
120.9577204688501
 21
50.001049136212707
 31
0.0
  0
LINE
  5
13E
  8
0
 62
     0
 10
70.956671491205725
 20
0.0000001585683549
 30
0.0
 11
72.956671491206166
 21
2.0000001585688092
 31
0.0
  0
LINE
  5
13F
  8
0
 62
     0
 10
117.8341394760716
 20
48.000000158567673
 30
0.0
 11
119.8351884537167
 21
50.001049136212941
 31
0.0
  0
LINE
  5
140
  8
0
 62
     0
 10
69.834139476072323
 20
0.0000001585685823
 30
0.0
 11
71.834139476072551
 21
2.0000001585685818
 31
0.0
  0
LINE
  5
141
  8
0
 62
     0
 10
116.711607460938
 20
48.0000001585679
 30
0.0
 11
118.7126564385828
 21
50.001049136212707
 31
0.0
  0
LINE
  5
142
  8
0
 62
     0
 10
68.711607460938922
 20
0.0000001585688096
 30
0.0
 11
70.711607460938922
 21
2.0000001585688092
 31
0.0
  0
LINE
  5
143
  8
0
 62
     0
 10
115.5890754458044
 20
48.0000001585679
 30
0.0
 11
117.5901244234492
 21
50.001049136212707
 31
0.0
  0
LINE
  5
144
  8
0
 62
     0
 10
67.58907544580461
 20
0.0000001585681275
 30
0.0
 11
69.589075445804824
 21
2.0000001585685818
 31
0.0
  0
LINE
  5
145
  8
0
 62
     0
 10
114.4665434306705
 20
48.0000001585679
 30
0.0
 11
116.4675924083158
 21
50.001049136213169
 31
0.0
  0
LINE
  5
146
  8
0
 62
     0
 10
66.466543430671209
 20
0.0000001585683549
 30
0.0
 11
68.466543430671436
 21
2.0000001585688092
 31
0.0
  0
LINE
  5
147
  8
0
 62
     0
 10
113.3440114155371
 20
48.000000158568128
 30
0.0
 11
115.34506039318239
 21
50.001049136213389
 31
0.0
  0
LINE
  5
148
  8
0
 62
     0
 10
65.344011415537807
 20
0.0000001585688096
 30
0.0
 11
67.344011415537807
 21
2.0000001585688092
 31
0.0
  0
LINE
  5
149
  8
0
 62
     0
 10
112.2214794004033
 20
48.0000001585679
 30
0.0
 11
114.2225283780483
 21
50.001049136212941
 31
0.0
  0
LINE
  5
14A
  8
0
 62
     0
 10
64.221479400404164
 20
0.0000001585688096
 30
0.0
 11
66.221479400404164
 21
2.0000001585688092
 31
0.0
  0
LINE
  5
14B
  8
0
 62
     0
 10
111.0989473852696
 20
48.0000001585679
 30
0.0
 11
113.09999636291469
 21
50.001049136212941
 31
0.0
  0
LINE
  5
14C
  8
0
 62
     0
 10
63.098947385270101
 20
0.0000001585683549
 30
0.0
 11
65.098947385270094
 21
2.000000158568354
 31
0.0
  0
LINE
  5
14D
  8
0
 62
     0
 10
109.97641537013619
 20
48.000000158568128
 30
0.0
 11
111.97746434778099
 21
50.001049136212941
 31
0.0
  0
LINE
  5
14E
  8
0
 62
     0
 10
61.976415370136458
 20
0.0000001585683549
 30
0.0
 11
63.97641537013692
 21
2.0000001585685818
 31
0.0
  0
LINE
  5
14F
  8
0
 62
     0
 10
108.85388335500279
 20
48.000000158568348
 30
0.0
 11
110.85493233264739
 21
50.001049136212707
 31
0.0
  0
LINE
  5
150
  8
0
 62
     0
 10
60.853883355003063
 20
0.0000001585685823
 30
0.0
 11
62.853883355003518
 21
2.0000001585688092
 31
0.0
  0
LINE
  5
151
  8
0
 62
     0
 10
107.7313513398687
 20
48.0000001585679
 30
0.0
 11
109.73240031751349
 21
50.001049136212707
 31
0.0
  0
LINE
  5
152
  8
0
 62
     0
 10
59.731351339869207
 20
0.0000001585685823
 30
0.0
 11
61.731351339869207
 21
2.0000001585685818
 31
0.0
  0
LINE
  5
153
  8
0
 62
     0
 10
106.60881932473529
 20
48.0000001585679
 30
0.0
 11
108.60986830238009
 21
50.001049136212707
 31
0.0
  0
LINE
  5
154
  8
0
 62
     0
 10
58.608819324735812
 20
0.0000001585685823
 30
0.0
 11
60.608819324735812
 21
2.0000001585685818
 31
0.0
  0
LINE
  5
155
  8
0
 62
     0
 10
105.48628730960149
 20
48.0000001585679
 30
0.0
 11
107.48733628724671
 21
50.001049136213169
 31
0.0
  0
LINE
  5
156
  8
0
 62
     0
 10
57.486287309602169
 20
0.0000001585683549
 30
0.0
 11
59.486287309602169
 21
2.0000001585685818
 31
0.0
  0
LINE
  5
157
  8
0
 62
     0
 10
104.36375529446779
 20
48.000000158568128
 30
0.0
 11
106.36480427211271
 21
50.001049136212941
 31
0.0
  0
LINE
  5
158
  8
0
 62
     0
 10
56.363755294468547
 20
0.0000001585688096
 30
0.0
 11
58.36375529446854
 21
2.0000001585688092
 31
0.0
  0
LINE
  5
159
  8
0
 62
     0
 10
103.24122327933421
 20
48.000000158568128
 30
0.0
 11
105.24227225697901
 21
50.001049136212941
 31
0.0
  0
LINE
  5
15A
  8
0
 62
     0
 10
55.241223279334463
 20
0.0000001585683549
 30
0.0
 11
57.241223279334463
 21
2.000000158568354
 31
0.0
  0
LINE
  5
15B
  8
0
 62
     0
 10
102.11869126420081
 20
48.000000158568128
 30
0.0
 11
104.11974024184541
 21
50.001049136212707
 31
0.0
  0
LINE
  5
15C
  8
0
 62
     0
 10
54.118691264201061
 20
0.0000001585683549
 30
0.0
 11
56.118691264201289
 21
2.000000158568354
 31
0.0
  0
LINE
  5
15D
  8
0
 62
     0
 10
100.9961592490672
 20
48.000000158568128
 30
0.0
 11
102.997208226712
 21
50.001049136212941
 31
0.0
  0
LINE
  5
15E
  8
0
 62
     0
 10
52.996159249067659
 20
0.0000001585685823
 30
0.0
 11
54.996159249067432
 21
2.000000158568354
 31
0.0
  0
LINE
  5
15F
  8
0
 62
     0
 10
99.873627233933576
 20
48.000000158568348
 30
0.0
 11
101.87467621157811
 21
50.001049136212707
 31
0.0
  0
LINE
  5
160
  8
0
 62
     0
 10
51.873627233934258
 20
0.0000001585688096
 30
0.0
 11
54.020704431222377
 21
2.1470773558569358
 31
0.0
  0
LINE
  5
161
  8
0
 62
     0
 10
98.751095218799719
 20
48.0000001585679
 30
0.0
 11
100.7521441964445
 21
50.001049136212707
 31
0.0
  0
LINE
  5
162
  8
0
 62
     0
 10
50.751095218799939
 20
0.0000001585681275
 30
0.0
 11
53.998535282254352
 21
3.2474402220227598
 31
0.0
  0
LINE
  5
163
  8
0
 62
     0
 10
97.628563203666317
 20
48.000000158568128
 30
0.0
 11
99.629612181311131
 21
50.001049136213169
 31
0.0
  0
LINE
  5
164
  8
0
 62
     0
 10
49.628563203666538
 20
0.0000001585683549
 30
0.0
 11
53.998535282254352
 21
4.3699722371563894
 31
0.0
  0
LINE
  5
165
  8
0
 62
     0
 10
51.998516458413633
 20
3.492485428449299
 30
0.0
 11
53.998535282254352
 21
5.4925042522900176
 31
0.0
  0
LINE
  5
166
  8
0
 62
     0
 10
96.506031188532475
 20
48.000000158568128
 30
0.0
 11
98.507080166177275
 21
50.001049136212941
 31
0.0
  0
LINE
  5
167
  8
0
 62
     0
 10
48.506031188533143
 20
0.0000001585688096
 30
0.0
 11
50.506050012373862
 21
2.0000189824095278
 31
0.0
  0
LINE
  5
168
  8
0
 62
     0
 10
51.998535282254352
 20
4.6150362674236467
 30
0.0
 11
53.998535282254352
 21
6.6150362674236467
 31
0.0
  0
LINE
  5
169
  8
0
 62
     0
 10
95.383499173398846
 20
48.000000158568128
 30
0.0
 11
97.384548151043646
 21
50.001049136212941
 31
0.0
  0
LINE
  5
16A
  8
0
 62
     0
 10
47.383499173399507
 20
0.0000001585688096
 30
0.0
 11
49.383499173399521
 21
2.0000001585688092
 31
0.0
  0
LINE
  5
16B
  8
0
 62
     0
 10
51.998535282254117
 20
5.7375682825570493
 30
0.0
 11
53.998535282254117
 21
7.7375682825570493
 31
0.0
  0
LINE
  5
16C
  8
0
 62
     0
 10
94.260967158265203
 20
48.000000158568128
 30
0.0
 11
96.262016135909775
 21
50.001049136212707
 31
0.0
  0
LINE
  5
16D
  8
0
 62
     0
 10
46.26096715826543
 20
0.0000001585683549
 30
0.0
 11
48.26096715826543
 21
2.000000158568354
 31
0.0
  0
LINE
  5
16E
  8
0
 62
     0
 10
51.998535282254117
 20
6.8601002976906784
 30
0.0
 11
53.998535282254579
 21
8.8601002976909058
 31
0.0
  0
LINE
  5
16F
  8
0
 62
     0
 10
93.138435143131801
 20
48.000000158568348
 30
0.0
 11
95.139484120776373
 21
50.001049136212941
 31
0.0
  0
LINE
  5
170
  8
0
 62
     0
 10
45.138435143131801
 20
0.0000001585683549
 30
0.0
 11
47.138435143132249
 21
2.0000001585685818
 31
0.0
  0
LINE
  5
171
  8
0
 62
     0
 10
51.998535282254579
 20
7.982632312824534
 30
0.0
 11
53.998535282254579
 21
9.9826323128245331
 31
0.0
  0
LINE
  5
172
  8
0
 62
     0
 10
92.015903127998172
 20
48.000000158568348
 30
0.0
 11
94.016952105642744
 21
50.001049136212707
 31
0.0
  0
LINE
  5
173
  8
0
 62
     0
 10
44.015903127998392
 20
0.0000001585685823
 30
0.0
 11
46.015903127998847
 21
2.0000001585688092
 31
0.0
  0
LINE
  5
174
  8
0
 62
     0
 10
51.998535282254352
 20
9.1051643279583914
 30
0.0
 11
53.998535282254117
 21
11.10516432795793
 31
0.0
  0
LINE
  5
175
  8
0
 62
     0
 10
90.893371112864315
 20
48.000000158568348
 30
0.0
 11
92.894420090508902
 21
50.001049136212707
 31
0.0
  0
LINE
  5
176
  8
0
 62
     0
 10
42.893371112864543
 20
0.0000001585685823
 30
0.0
 11
44.893371112864308
 21
2.000000158568354
 31
0.0
  0
LINE
  5
177
  8
0
 62
     0
 10
51.998535282254352
 20
10.22769634309179
 30
0.0
 11
53.998535282254352
 21
12.22769634309179
 31
0.0
  0
LINE
  5
178
  8
0
 62
     0
 10
89.770839097730914
 20
48.000000158568348
 30
0.0
 11
91.7718880753755
 21
50.001049136212707
 31
0.0
  0
LINE
  5
179
  8
0
 62
     0
 10
41.770839097731141
 20
0.0000001585685823
 30
0.0
 11
43.770839097730907
 21
2.000000158568354
 31
0.0
  0
LINE
  5
17A
  8
0
 62
     0
 10
51.998535282254352
 20
11.35022835822542
 30
0.0
 11
53.998535282254352
 21
13.35022835822542
 31
0.0
  0
LINE
  5
17B
  8
0
 62
     0
 10
88.648307082597498
 20
48.000000158568582
 30
0.0
 11
90.649356060242098
 21
50.001049136213169
 31
0.0
  0
LINE
  5
17C
  8
0
 62
     0
 10
40.648307082597512
 20
0.0000001585683549
 30
0.0
 11
42.695369312060159
 21
2.0470623880312351
 31
0.0
  0
LINE
  5
17D
  8
0
 62
     0
 10
51.998535282254352
 20
12.47276037335928
 30
0.0
 11
53.998535282254807
 21
14.47276037335973
 31
0.0
  0
LINE
  5
17E
  8
0
 62
     0
 10
87.525775067463201
 20
48.000000158568128
 30
0.0
 11
89.526824045108015
 21
50.001049136212941
 31
0.0
  0
LINE
  5
17F
  8
0
 62
     0
 10
39.525775067463883
 20
0.0000001585688096
 30
0.0
 11
42.095728551120139
 21
2.5699536422250731
 31
0.0
  0
LINE
  5
180
  8
0
 62
     0
 10
51.998535282254117
 20
13.59529238849268
 30
0.0
 11
53.998535282254579
 21
15.59529238849291
 31
0.0
  0
LINE
  5
181
  8
0
 62
     0
 10
86.403243052329557
 20
48.000000158568128
 30
0.0
 11
88.404292029974386
 21
50.001049136212941
 31
0.0
  0
LINE
  5
182
  8
0
 62
     0
 10
38.403243052329799
 20
0.0000001585683549
 30
0.0
 11
41.998535282254117
 21
3.59529238849268
 31
0.0
  0
LINE
  5
183
  8
0
 62
     0
 10
52.15256205003584
 20
14.871851171407799
 30
0.0
 11
53.998535282254807
 21
16.717824403626761
 31
0.0
  0
LINE
  5
184
  8
0
 62
     0
 10
40.498535282255027
 20
3.2178244036269912
 30
0.0
 11
41.998535282254352
 21
4.7178244036263086
 31
0.0
  0
LINE
  5
185
  8
0
 62
     0
 10
85.280711037196156
 20
48.000000158568128
 30
0.0
 11
87.281760014840756
 21
50.001049136212707
 31
0.0
  0
LINE
  5
186
  8
0
 62
     0
 10
37.280711037196397
 20
0.0000001585683549
 30
0.0
 11
39.280711037196632
 21
2.000000158568354
 31
0.0
  0
LINE
  5
187
  8
0
 62
     0
 10
51.998535282254579
 20
15.84035641875994
 30
0.0
 11
53.998535282254807
 21
17.84035641876039
 31
0.0
  0
LINE
  5
188
  8
0
 62
     0
 10
40.498535282255027
 20
4.3403564187606198
 30
0.0
 11
41.998535282254352
 21
5.8403564187599377
 31
0.0
  0
LINE
  5
189
  8
0
 62
     0
 10
84.158179022062555
 20
48.000000158568128
 30
0.0
 11
86.159227999707127
 21
50.001049136212487
 31
0.0
  0
LINE
  5
18A
  8
0
 62
     0
 10
36.158179022063003
 20
0.0000001585685823
 30
0.0
 11
38.158179022062768
 21
2.000000158568354
 31
0.0
  0
LINE
  5
18B
  8
0
 62
     0
 10
51.998535282254352
 20
16.962888433893571
 30
0.0
 11
53.998535282254579
 21
18.962888433894019
 31
0.0
  0
LINE
  5
18C
  8
0
 62
     0
 10
40.498535282254352
 20
5.4628884338935668
 30
0.0
 11
41.998535282254579
 21
6.9628884338937951
 31
0.0
  0
LINE
  5
18D
  8
0
 62
     0
 10
83.035647006928912
 20
48.000000158568348
 30
0.0
 11
85.036695984573484
 21
50.001049136212707
 31
0.0
  0
LINE
  5
18E
  8
0
 62
     0
 10
35.105772238734062
 20
0.0701253903735051
 30
0.0
 11
37.035647006929139
 21
2.0000001585685818
 31
0.0
  0
LINE
  5
18F
  8
0
 62
     0
 10
51.998535282254117
 20
18.085420449026969
 30
0.0
 11
53.998535282254579
 21
20.085420449027652
 31
0.0
  0
LINE
  5
190
  8
0
 62
     0
 10
40.579750808752351
 20
6.666635975525196
 30
0.0
 11
41.998535282254352
 21
8.0854204490271968
 31
0.0
  0
LINE
  5
191
  8
0
 62
     0
 10
81.913114991795283
 20
48.000000158568348
 30
0.0
 11
83.914163969439855
 21
50.001049136212707
 31
0.0
  0
LINE
  5
192
  8
0
 62
     0
 10
34.998535282255041
 20
1.0854204490281061
 30
0.0
 11
36.29853528224271
 21
2.3854204490157822
 31
0.0
  0
LINE
  5
193
  8
0
 62
     0
 10
51.998535282254352
 20
19.20795246416105
 30
0.0
 11
53.998535282255027
 21
21.207952464161728
 31
0.0
  0
LINE
  5
194
  8
0
 62
     0
 10
40.498535282254352
 20
7.7079524641610533
 30
0.0
 11
41.998535282254579
 21
9.2079524641612807
 31
0.0
  0
LINE
  5
195
  8
0
 62
     0
 10
80.790582976661881
 20
48.000000158568582
 30
0.0
 11
82.791631954306453
 21
50.001049136213169
 31
0.0
  0
LINE
  5
196
  8
0
 62
     0
 10
34.998535282255723
 20
2.2079524641621902
 30
0.0
 11
36.298267020681351
 21
3.5076842025880519
 31
0.0
  0
LINE
  5
197
  8
0
 62
     0
 10
51.668575450348953
 20
20.00052464738928
 30
0.0
 11
53.998535282255027
 21
22.330484479295372
 31
0.0
  0
LINE
  5
198
  8
0
 62
     0
 10
79.668050961528252
 20
48.000000158568348
 30
0.0
 11
81.669099939172611
 21
50.001049136212941
 31
0.0
  0
LINE
  5
199
  8
0
 62
     0
 10
40.498535282254352
 20
8.8304844792946824
 30
0.0
 11
41.998535282254579
 21
10.33048447929491
 31
0.0
  0
LINE
  5
19A
  8
0
 62
     0
 10
50.54604343521487
 20
20.000524647388829
 30
0.0
 11
53.998535282254807
 21
23.45301649442877
 31
0.0
  0
LINE
  5
19B
  8
0
 62
     0
 10
78.545518946394623
 20
48.000000158568348
 30
0.0
 11
80.546567924038982
 21
50.001049136212941
 31
0.0
  0
LINE
  5
19C
  8
0
 62
     0
 10
40.498535282254352
 20
9.9530164944283115
 30
0.0
 11
41.795084724281189
 21
11.24956593645493
 31
0.0
  0
LINE
  5
19D
  8
0
 62
     0
 10
51.998535282255261
 20
22.575548509562619
 30
0.0
 11
53.998535282254807
 21
24.575548509562399
 31
0.0
  0
LINE
  5
19E
  8
0
 62
     0
 10
49.423511420081461
 20
20.000524647388829
 30
0.0
 11
50.723511420073237
 21
21.300524647380829
 31
0.0
  0
LINE
  5
19F
  8
0
 62
     0
 10
77.422986931260539
 20
48.000000158568128
 30
0.0
 11
79.424035908905125
 21
50.001049136212707
 31
0.0
  0
LINE
  5
1A0
  8
0
 62
     0
 10
39.918258638920641
 20
10.49527186622799
 30
0.0
 11
41.228602701749423
 21
11.80561592905701
 31
0.0
  0
LINE
  5
1A1
  8
0
 62
     0
 10
51.998535282255489
 20
23.69808052469671
 30
0.0
 11
53.998535282254807
 21
25.698080524696021
 31
0.0
  0
LINE
  5
1A2
  8
0
 62
     0
 10
48.300979404948059
 20
20.00052464738906
 30
0.0
 11
49.600979404939842
 21
21.300524647381049
 31
0.0
  0
LINE
  5
1A3
  8
0
 62
     0
 10
76.300454916127137
 20
48.000000158568348
 30
0.0
 11
78.301503893771724
 21
50.001049136212941
 31
0.0
  0
LINE
  5
1A4
  8
0
 62
     0
 10
38.795726623786777
 20
10.49527186622799
 30
0.0
 11
40.295726623786777
 21
11.99527186622799
 31
0.0
  0
LINE
  5
1A5
  8
0
 62
     0
 10
47.178447389814657
 20
20.00052464738928
 30
0.0
 11
48.478447389806199
 21
21.300524647381049
 31
0.0
  0
LINE
  5
1A6
  8
0
 62
     0
 10
51.998535282255489
 20
24.820612539830339
 30
0.0
 11
53.998535282255261
 21
26.820612539829881
 31
0.0
  0
LINE
  5
1A7
  8
0
 62
     0
 10
37.673194608653368
 20
10.495271866228221
 30
0.0
 11
39.173194608652921
 21
11.995271866227769
 31
0.0
  0
LINE
  5
1A8
  8
0
 62
     0
 10
75.177922900993494
 20
48.000000158568348
 30
0.0
 11
77.178971878638094
 21
50.001049136212707
 31
0.0
  0
LINE
  5
1A9
  8
0
 62
     0
 10
35.968856674415292
 20
8.7909339319901392
 30
0.0
 11
36.300890556196009
 21
9.1229678137706287
 31
0.0
  0
LINE
  5
1AA
  8
0
 62
     0
 10
46.055915374680353
 20
20.00052464738906
 30
0.0
 11
47.35591537467235
 21
21.300524647381049
 31
0.0
  0
LINE
  5
1AB
  8
0
 62
     0
 10
51.998535282255027
 20
25.943144554963741
 30
0.0
 11
53.998535282254579
 21
27.94314455496329
 31
0.0
  0
LINE
  5
1AC
  8
0
 62
     0
 10
36.545920417201387
 20
10.490529689909859
 30
0.0
 11
38.050662593518609
 21
11.99527186622708
 31
0.0
  0
LINE
  5
1AD
  8
0
 62
     0
 10
74.055390885859651
 20
48.000000158568348
 30
0.0
 11
76.056439863504238
 21
50.001049136212707
 31
0.0
  0
LINE
  5
1AE
  8
0
 62
     0
 10
35.273678004769408
 20
9.2182872774781117
 30
0.0
 11
36.3037927878961
 21
10.2484020606048
 31
0.0
  0
LINE
  5
1AF
  8
0
 62
     0
 10
51.998535282255261
 20
27.06567657009737
 30
0.0
 11
53.998535282254579
 21
29.065676570096691
 31
0.0
  0
LINE
  5
1B0
  8
0
 62
     0
 10
44.933383359546951
 20
20.00052464738906
 30
0.0
 11
46.233383359538493
 21
21.300524647380598
 31
0.0
  0
LINE
  5
1B1
  8
0
 62
     0
 10
72.93285887072625
 20
48.000000158568348
 30
0.0
 11
74.933907848370836
 21
50.001049136212941
 31
0.0
  0
LINE
  5
1B2
  8
0
 62
     0
 10
35.000539376607321
 20
10.067680664449201
 30
0.0
 11
36.928130578385208
 21
11.99527186622708
 31
0.0
  0
LINE
  5
1B3
  8
0
 62
     0
 10
51.998535282255261
 20
28.188208585230999
 30
0.0
 11
53.998535282255027
 21
30.188208585230772
 31
0.0
  0
LINE
  5
1B4
  8
0
 62
     0
 10
43.810851344413322
 20
20.00052464738906
 30
0.0
 11
45.110851344404857
 21
21.300524647380598
 31
0.0
  0
LINE
  5
1B5
  8
0
 62
     0
 10
71.810326855592834
 20
48.000000158568582
 30
0.0
 11
73.811375833237435
 21
50.001049136213169
 31
0.0
  0
LINE
  5
1B6
  8
0
 62
     0
 10
34.999373505153699
 20
11.189046808129429
 30
0.0
 11
35.805598563251131
 21
11.995271866226849
 31
0.0
  0
LINE
  5
1B7
  8
0
 62
     0
 10
51.38831932926724
 20
28.70052464737682
 30
0.0
 11
53.998535282255027
 21
31.310740600364628
 31
0.0
  0
LINE
  5
1B8
  8
0
 62
     0
 10
70.687794840458992
 20
48.000000158568348
 30
0.0
 11
72.688843818103351
 21
50.001049136212941
 31
0.0
  0
LINE
  5
1B9
  8
0
 62
     0
 10
42.688319329279693
 20
20.00052464738928
 30
0.0
 11
43.988319329271228
 21
21.300524647380829
 31
0.0
  0
LINE
  5
1BA
  8
0
 62
     0
 10
51.998535282255261
 20
30.43327261549825
 30
0.0
 11
53.998535282254807
 21
32.433272615498034
 31
0.0
  0
LINE
  5
1BB
  8
0
 62
     0
 10
50.265787314133597
 20
28.70052464737682
 30
0.0
 11
51.565787314145162
 21
30.000524647388382
 31
0.0
  0
LINE
  5
1BC
  8
0
 62
     0
 10
69.565262825325362
 20
48.000000158568348
 30
0.0
 11
71.566311802969494
 21
50.001049136212707
 31
0.0
  0
LINE
  5
1BD
  8
0
 62
     0
 10
41.565787314146057
 20
20.00052464738928
 30
0.0
 11
42.865787314137613
 21
21.300524647380829
 31
0.0
  0
LINE
  5
1BE
  8
0
 62
     0
 10
51.998535282255709
 20
31.555804630632341
 30
0.0
 11
53.998535282254807
 21
33.555804630631428
 31
0.0
  0
LINE
  5
1BF
  8
0
 62
     0
 10
49.143255299000202
 20
28.70052464737682
 30
0.0
 11
50.443255299011071
 21
30.000524647387689
 31
0.0
  0
LINE
  5
1C0
  8
0
 62
     0
 10
68.442730810191506
 20
48.000000158568128
 30
0.0
 11
70.443779787836093
 21
50.001049136212707
 31
0.0
  0
LINE
  5
1C1
  8
0
 62
     0
 10
40.443255299012662
 20
20.00052464738928
 30
0.0
 11
41.743255299004197
 21
21.300524647380829
 31
0.0
  0
LINE
  5
1C2
  8
0
 62
     0
 10
51.998535282255709
 20
32.678336645765967
 30
0.0
 11
53.998535282255261
 21
34.678336645765292
 31
0.0
  0
LINE
  5
1C3
  8
0
 62
     0
 10
48.020723283866801
 20
28.700524647377051
 30
0.0
 11
49.320723283877669
 21
30.00052464738792
 31
0.0
  0
LINE
  5
1C4
  8
0
 62
     0
 10
67.320198795058104
 20
48.000000158568348
 30
0.0
 11
69.321247772702463
 21
50.001049136212487
 31
0.0
  0
LINE
  5
1C5
  8
0
 62
     0
 10
39.320723283879033
 20
20.00052464738906
 30
0.0
 11
40.620723283870568
 21
21.300524647380829
 31
0.0
  0
LINE
  5
1C6
  8
0
 62
     0
 10
51.998535282256171
 20
33.800868660900278
 30
0.0
 11
53.998535282254807
 21
35.800868660898907
 31
0.0
  0
LINE
  5
1C7
  8
0
 62
     0
 10
46.898191268732937
 20
28.70052464737682
 30
0.0
 11
48.19819126874404
 21
30.000524647388151
 31
0.0
  0
LINE
  5
1C8
  8
0
 62
     0
 10
66.197666779924248
 20
48.000000158568348
 30
0.0
 11
68.198715757568834
 21
50.001049136212707
 31
0.0
  0
LINE
  5
1C9
  8
0
 62
     0
 10
38.198191268745397
 20
20.00052464738928
 30
0.0
 11
39.498191268736953
 21
21.300524647381049
 31
0.0
  0
LINE
  5
1CA
  8
0
 62
     0
 10
52.003008526581198
 20
34.927873920358707
 30
0.0
 11
52.287656381116449
 21
35.212521774894192
 31
0.0
  0
LINE
  5
1CB
  8
0
 62
     0
 10
52.484279455381511
 20
35.40914484915902
 30
0.0
 11
53.998535282255027
 21
36.92340067603277
 31
0.0
  0
LINE
  5
1CC
  8
0
 62
     0
 10
45.775659253599308
 20
28.700524647377051
 30
0.0
 11
47.075659253610183
 21
30.00052464738792
 31
0.0
  0
LINE
  5
1CD
  8
0
 62
     0
 10
65.075134764790604
 20
48.000000158568348
 30
0.0
 11
67.076183742435205
 21
50.001049136212707
 31
0.0
  0
LINE
  5
1CE
  8
0
 62
     0
 10
37.075659253611782
 20
20.00052464738928
 30
0.0
 11
38.375659253602862
 21
21.300524647380598
 31
0.0
  0
LINE
  5
1CF
  8
0
 62
     0
 10
52.00692784128023
 20
36.054325250191603
 30
0.0
 11
53.998535282255027
 21
38.045932691166399
 31
0.0
  0
LINE
  5
1D0
  8
0
 62
     0
 10
44.653127238465913
 20
28.700524647377279
 30
0.0
 11
45.953127238476782
 21
30.000524647388151
 31
0.0
  0
LINE
  5
1D1
  8
0
 62
     0
 10
63.95260274965721
 20
48.000000158568582
 30
0.0
 11
65.953651727301803
 21
50.001049136213169
 31
0.0
  0
LINE
  5
1D2
  8
0
 62
     0
 10
35.953127238477919
 20
20.00052464738928
 30
0.0
 11
37.25312723846946
 21
21.300524647380829
 31
0.0
  0
LINE
  5
1D3
  8
0
 62
     0
 10
51.998535282254352
 20
37.168464706299353
 30
0.0
 11
53.998535282255261
 21
39.168464706300263
 31
0.0
  0
LINE
  5
1D4
  8
0
 62
     0
 10
43.530595223332512
 20
28.70052464737751
 30
0.0
 11
44.830595223343153
 21
30.00052464738792
 31
0.0
  0
LINE
  5
1D5
  8
0
 62
     0
 10
62.830070734523808
 20
48.000000158568803
 30
0.0
 11
64.831119712167947
 21
50.001049136212941
 31
0.0
  0
LINE
  5
1D6
  8
0
 62
     0
 10
34.830595223344517
 20
20.000524647389511
 30
0.0
 11
36.130595223335831
 21
21.300524647380829
 31
0.0
  0
LINE
  5
1D7
  8
0
 62
     0
 10
51.998535282254352
 20
38.290996721432982
 30
0.0
 11
53.998535282255027
 21
40.290996721433658
 31
0.0
  0
LINE
  5
1D8
  8
0
 62
     0
 10
42.408063208198421
 20
28.700524647377051
 30
0.0
 11
43.708063208209524
 21
30.00052464738792
 31
0.0
  0
LINE
  5
1D9
  8
0
 62
     0
 10
61.707538719389959
 20
48.000000158568348
 30
0.0
 11
63.708587697034311
 21
50.001049136212941
 31
0.0
  0
LINE
  5
1DA
  8
0
 62
     0
 10
33.708063208210888
 20
20.000524647389511
 30
0.0
 11
35.008063208202202
 21
21.300524647380829
 31
0.0
  0
LINE
  5
1DB
  8
0
 62
     0
 10
51.998535282254117
 20
39.413528736566377
 30
0.0
 11
53.998535282255261
 21
41.41352873656728
 31
0.0
  0
LINE
  5
1DC
  8
0
 62
     0
 10
41.285531193064799
 20
28.700524647377051
 30
0.0
 11
42.58553119307544
 21
30.000524647387689
 31
0.0
  0
LINE
  5
1DD
  8
0
 62
     0
 10
60.58500670425633
 20
48.000000158568348
 30
0.0
 11
62.586055681900461
 21
50.001049136212707
 31
0.0
  0
LINE
  5
1DE
  8
0
 62
     0
 10
32.585531193077259
 20
20.000524647389511
 30
0.0
 11
33.88553119306858
 21
21.300524647380829
 31
0.0
  0
LINE
  5
1DF
  8
0
 62
     0
 10
51.998535282254117
 20
40.536060751700013
 30
0.0
 11
53.998535282255261
 21
42.536060751700909
 31
0.0
  0
LINE
  5
1E0
  8
0
 62
     0
 10
40.162999177931617
 20
28.700524647377279
 30
0.0
 11
41.462999177941811
 21
30.000524647387689
 31
0.0
  0
LINE
  5
1E1
  8
0
 62
     0
 10
59.462474689122928
 20
48.000000158568582
 30
0.0
 11
61.46352366676706
 21
50.001049136212941
 31
0.0
  0
LINE
  5
1E2
  8
0
 62
     0
 10
31.46299917794363
 20
20.000524647389511
 30
0.0
 11
32.762999177935171
 21
21.300524647381049
 31
0.0
  0
LINE
  5
1E3
  8
0
 62
     0
 10
51.998535282254579
 20
41.658592766833863
 30
0.0
 11
53.998535282255261
 21
43.658592766834538
 31
0.0
  0
LINE
  5
1E4
  8
0
 62
     0
 10
39.040467162798222
 20
28.70052464737751
 30
0.0
 11
40.340467162808402
 21
30.00052464738792
 31
0.0
  0
LINE
  5
1E5
  8
0
 62
     0
 10
58.339942673989533
 20
48.000000158569037
 30
0.0
 11
60.340991651633431
 21
50.001049136212707
 31
0.0
  0
LINE
  5
1E6
  8
0
 62
     0
 10
30.340467162810231
 20
20.000524647389739
 30
0.0
 11
31.640467162801539
 21
21.300524647381049
 31
0.0
  0
LINE
  5
1E7
  8
0
 62
     0
 10
51.998535282254352
 20
42.781124781967257
 30
0.0
 11
53.998535282255261
 21
44.781124781968401
 31
0.0
  0
LINE
  5
1E8
  8
0
 62
     0
 10
37.917935147664593
 20
28.70052464737751
 30
0.0
 11
39.217935147674332
 21
30.000524647387468
 31
0.0
  0
LINE
  5
1E9
  8
0
 62
     0
 10
57.217410658855208
 20
48.000000158568348
 30
0.0
 11
59.218459636499801
 21
50.001049136212707
 31
0.0
  0
LINE
  5
1EA
  8
0
 62
     0
 10
29.217935147676371
 20
20.00052464738928
 30
0.0
 11
30.517935147667909
 21
21.300524647381049
 31
0.0
  0
LINE
  5
1EB
  8
0
 62
     0
 10
51.998535282254352
 20
43.903656797101121
 30
0.0
 11
53.998535282255261
 21
45.90365679710203
 31
0.0
  0
LINE
  5
1EC
  8
0
 62
     0
 10
36.79540313253051
 20
28.700524647377279
 30
0.0
 11
38.09540313254093
 21
30.000524647387468
 31
0.0
  0
LINE
  5
1ED
  8
0
 62
     0
 10
56.094878643721593
 20
48.000000158568348
 30
0.0
 11
58.095927621366172
 21
50.001049136212941
 31
0.0
  0
LINE
  5
1EE
  8
0
 62
     0
 10
28.095403132542739
 20
20.00052464738928
 30
0.0
 11
29.395403132533829
 21
21.300524647380598
 31
0.0
  0
LINE
  5
1EF
  8
0
 62
     0
 10
51.998535282254352
 20
45.02618881223475
 30
0.0
 11
53.998535282255261
 21
47.026188812235659
 31
0.0
  0
LINE
  5
1F0
  8
0
 62
     0
 10
35.672871117397108
 20
28.70052464737751
 30
0.0
 11
36.972871117407067
 21
30.000524647387468
 31
0.0
  0
LINE
  5
1F1
  8
0
 62
     0
 10
54.972346628588191
 20
48.000000158568582
 30
0.0
 11
56.973395606232309
 21
50.001049136212707
 31
0.0
  0
LINE
  5
1F2
  8
0
 62
     0
 10
26.972871117409341
 20
20.000524647389511
 30
0.0
 11
28.2728711174002
 21
21.300524647380598
 31
0.0
  0
LINE
  5
1F3
  8
0
 62
     0
 10
34.550339102263251
 20
28.70052464737751
 30
0.0
 11
35.850339102273438
 21
30.000524647387689
 31
0.0
  0
LINE
  5
1F4
  8
0
 62
     0
 10
51.998535282254117
 20
46.148720827368372
 30
0.0
 11
55.850863591098687
 21
50.001049136212941
 31
0.0
  0
LINE
  5
1F5
  8
0
 62
     0
 10
25.850339102275711
 20
20.000524647389739
 30
0.0
 11
27.150339102266571
 21
21.300524647380829
 31
0.0
  0
LINE
  5
1F6
  8
0
 62
     0
 10
33.427807087129622
 20
28.70052464737751
 30
0.0
 11
34.727807087139581
 21
30.000524647387468
 31
0.0
  0
LINE
  5
1F7
  8
0
 62
     0
 10
51.85934976215276
 20
47.13206732240041
 30
0.0
 11
54.72833157596483
 21
50.001049136212707
 31
0.0
  0
LINE
  5
1F8
  8
0
 62
     0
 10
24.727807087141631
 20
20.000524647389511
 30
0.0
 11
26.027807087132938
 21
21.300524647380829
 31
0.0
  0
LINE
  5
1F9
  8
0
 62
     0
 10
32.305275071996221
 20
28.70052464737751
 30
0.0
 11
33.605275072006179
 21
30.000524647387468
 31
0.0
  0
LINE
  5
1FA
  8
0
 62
     0
 10
51.344491585745338
 20
47.739741161126403
 30
0.0
 11
53.605799560831422
 21
50.001049136212707
 31
0.0
  0
LINE
  5
1FB
  8
0
 62
     0
 10
23.605275072008219
 20
20.000524647389511
 30
0.0
 11
24.90527507199954
 21
21.300524647380829
 31
0.0
  0
LINE
  5
1FC
  8
0
 62
     0
 10
40.48799583803838
 20
38.005777428553301
 30
0.0
 11
41.998535282254807
 21
39.516316872769487
 31
0.0
  0
LINE
  5
1FD
  8
0
 62
     0
 10
31.182743056862819
 20
28.70052464737773
 30
0.0
 11
32.482743056872323
 21
30.000524647387241
 31
0.0
  0
LINE
  5
1FE
  8
0
 62
     0
 10
50.483267545698027
 20
48.001049136212941
 30
0.0
 11
52.4832675456978
 21
50.001049136212487
 31
0.0
  0
LINE
  5
1FF
  8
0
 62
     0
 10
22.4827430568746
 20
20.000524647389511
 30
0.0
 11
23.782743056865911
 21
21.300524647380829
 31
0.0
  0
LINE
  5
200
  8
0
 62
     0
 10
39.365463822904758
 20
38.005777428553529
 30
0.0
 11
41.998535282254579
 21
40.638848887903123
 31
0.0
  0
LINE
  5
201
  8
0
 62
     0
 10
30.06021104172919
 20
28.700524647377961
 30
0.0
 11
31.36021104173847
 21
30.000524647387241
 31
0.0
  0
LINE
  5
202
  8
0
 62
     0
 10
49.36073553056417
 20
48.001049136212721
 30
0.0
 11
51.36073553056417
 21
50.001049136212707
 31
0.0
  0
LINE
  5
203
  8
0
 62
     0
 10
21.360211041741191
 20
20.00052464738997
 30
0.0
 11
22.660211041732278
 21
21.300524647381049
 31
0.0
  0
LINE
  5
204
  8
0
 62
     0
 10
38.242931807771591
 20
38.005777428553991
 30
0.0
 11
39.742931807771129
 21
39.505777428553529
 31
0.0
  0
LINE
  5
205
  8
0
 62
     0
 10
40.498535282254352
 20
40.261380903036752
 30
0.0
 11
41.998535282254352
 21
41.761380903036518
 31
0.0
  0
LINE
  5
206
  8
0
 62
     0
 10
28.93767902659533
 20
28.70052464737751
 30
0.0
 11
30.237679026604841
 21
30.000524647387241
 31
0.0
  0
LINE
  5
207
  8
0
 62
     0
 10
48.238203515430541
 20
48.001049136212721
 30
0.0
 11
50.238203515430541
 21
50.001049136212707
 31
0.0
  0
LINE
  5
208
  8
0
 62
     0
 10
20.237679026607339
 20
20.000524647389739
 30
0.0
 11
21.537679026598202
 21
21.300524647380598
 31
0.0
  0
LINE
  5
209
  8
0
 62
     0
 10
37.120399792638182
 20
38.005777428554211
 30
0.0
 11
38.6203997926375
 21
39.505777428553301
 31
0.0
  0
LINE
  5
20A
  8
0
 62
     0
 10
40.498535282254352
 20
41.383912918170381
 30
0.0
 11
41.998535282254352
 21
42.883912918170147
 31
0.0
  0
LINE
  5
20B
  8
0
 62
     0
 10
27.815147011461931
 20
28.70052464737773
 30
0.0
 11
29.115147011471208
 21
30.00052464738701
 31
0.0
  0
LINE
  5
20C
  8
0
 62
     0
 10
47.11567150029714
 20
48.001049136212941
 30
0.0
 11
49.11567150029714
 21
50.001049136213169
 31
0.0
  0
LINE
  5
20D
  8
0
 62
     0
 10
19.11514701147394
 20
20.00052464738997
 30
0.0
 11
20.4151470114648
 21
21.300524647380829
 31
0.0
  0
LINE
  5
20E
  8
0
 62
     0
 10
35.99786777750478
 20
38.005777428554438
 30
0.0
 11
37.497867777504098
 21
39.505777428553529
 31
0.0
  0
LINE
  5
20F
  8
0
 62
     0
 10
40.498535282254572
 20
42.50644493330423
 30
0.0
 11
41.998535282254579
 21
44.006444933304238
 31
0.0
  0
LINE
  5
210
  8
0
 62
     0
 10
26.692614996328079
 20
28.70052464737773
 30
0.0
 11
27.99261499633781
 21
30.000524647387241
 31
0.0
  0
LINE
  5
211
  8
0
 62
     0
 10
45.993139485163738
 20
48.001049136213169
 30
0.0
 11
47.993139485163283
 21
50.001049136212941
 31
0.0
  0
LINE
  5
212
  8
0
 62
     0
 10
17.992614996340311
 20
20.000524647389739
 30
0.0
 11
19.292614996331171
 21
21.300524647380829
 31
0.0
  0
LINE
  5
213
  8
0
 62
     0
 10
35.034147668172643
 20
38.164589334355931
 30
0.0
 11
36.428518454574032
 21
39.55896012075732
 31
0.0
  0
LINE
  5
214
  8
0
 62
     0
 10
40.863930217139803
 20
43.994371883323083
 30
0.0
 11
41.998535282254352
 21
45.128976948437639
 31
0.0
  0
LINE
  5
215
  8
0
 62
     0
 10
25.570082981194449
 20
28.70052464737773
 30
0.0
 11
26.870082981204181
 21
30.000524647387241
 31
0.0
  0
LINE
  5
216
  8
0
 62
     0
 10
44.870607470029647
 20
48.001049136212941
 30
0.0
 11
46.870607470029647
 21
50.001049136212941
 31
0.0
  0
LINE
  5
217
  8
0
 62
     0
 10
16.870082981206679
 20
20.000524647389739
 30
0.0
 11
18.170082981197542
 21
21.300524647380829
 31
0.0
  0
LINE
  5
218
  8
0
 62
     0
 10
34.999831802948847
 20
39.252805484265757
 30
0.0
 11
36.300333148180918
 21
40.553306829497842
 31
0.0
  0
LINE
  5
219
  8
0
 62
     0
 10
40.498535282254117
 20
44.751508963571041
 30
0.0
 11
41.998535282254352
 21
46.251508963571261
 31
0.0
  0
LINE
  5
21A
  8
0
 62
     0
 10
24.447550966061272
 20
28.700524647377961
 30
0.0
 11
25.747550966070101
 21
30.00052464738701
 31
0.0
  0
LINE
  5
21B
  8
0
 62
     0
 10
43.748075454896018
 20
48.001049136212941
 30
0.0
 11
45.74807545489579
 21
50.001049136212707
 31
0.0
  0
LINE
  5
21C
  8
0
 62
     0
 10
15.747550966072589
 20
20.000524647389511
 30
0.0
 11
17.047550966063909
 21
21.300524647380829
 31
0.0
  0
LINE
  5
21D
  8
0
 62
     0
 10
35.001000101211957
 20
40.376505797662503
 30
0.0
 11
35.834609666341521
 21
41.210115362792067
 31
0.0
  0
LINE
  5
21E
  8
0
 62
     0
 10
40.498535282254799
 20
45.874040978705352
 30
0.0
 11
42.142559715881582
 21
47.518065412332128
 31
0.0
  0
LINE
  5
21F
  8
0
 62
     0
 10
23.325018950927412
 20
28.700524647377961
 30
0.0
 11
24.625018950936472
 21
30.00052464738701
 31
0.0
  0
LINE
  5
220
  8
0
 62
     0
 10
42.481519006134931
 20
47.857024702585477
 30
0.0
 11
44.625543439762168
 21
50.001049136212487
 31
0.0
  0
LINE
  5
221
  8
0
 62
     0
 10
14.625018950939189
 20
20.000524647389739
 30
0.0
 11
15.9250189509305
 21
21.300524647381049
 31
0.0
  0
LINE
  5
222
  8
0
 62
     0
 10
22.20248693579401
 20
28.700524647378192
 30
0.0
 11
23.502486935803059
 21
30.000524647387241
 31
0.0
  0
LINE
  5
223
  8
0
 62
     0
 10
40.498535282255489
 20
46.996572993839663
 30
0.0
 11
43.503011424628767
 21
50.001049136212707
 31
0.0
  0
LINE
  5
224
  8
0
 62
     0
 10
13.50248693580579
 20
20.00052464738997
 30
0.0
 11
14.80248693579688
 21
21.300524647381049
 31
0.0
  0
LINE
  5
225
  8
0
 62
     0
 10
21.07995492066016
 20
28.700524647377961
 30
0.0
 11
22.37995492066921
 21
30.000524647386779
 31
0.0
  0
LINE
  5
226
  8
0
 62
     0
 10
40.343261370931479
 20
47.96383109764929
 30
0.0
 11
42.38047940949513
 21
50.001049136212707
 31
0.0
  0
LINE
  5
227
  8
0
 62
     0
 10
12.37995492067216
 20
20.00052464738997
 30
0.0
 11
13.679954920662791
 21
21.300524647380598
 31
0.0
  0
LINE
  5
228
  8
0
 62
     0
 10
19.957422905526531
 20
28.700524647377961
 30
0.0
 11
21.257422905535581
 21
30.000524647386779
 31
0.0
  0
LINE
  5
229
  8
0
 62
     0
 10
39.257947394361508
 20
48.001049136212721
 30
0.0
 11
41.257947394361508
 21
50.001049136212941
 31
0.0
  0
LINE
  5
22A
  8
0
 62
     0
 10
11.2574229055383
 20
20.000524647389739
 30
0.0
 11
12.55742290552916
 21
21.300524647380598
 31
0.0
  0
LINE
  5
22B
  8
0
 62
     0
 10
18.834890890393119
 20
28.700524647378192
 30
0.0
 11
20.134890890401721
 21
30.000524647386779
 31
0.0
  0
LINE
  5
22C
  8
0
 62
     0
 10
38.135415379228107
 20
48.001049136212941
 30
0.0
 11
40.135415379227652
 21
50.001049136212707
 31
0.0
  0
LINE
  5
22D
  8
0
 62
     0
 10
10.1348908904049
 20
20.00052464738997
 30
0.0
 11
11.434890890395531
 21
21.300524647380598
 31
0.0
  0
LINE
  5
22E
  8
0
 62
     0
 10
35.458209323174287
 20
46.446375095293199
 30
0.0
 11
36.298535282243158
 21
47.286701054362076
 31
0.0
  0
LINE
  5
22F
  8
0
 62
     0
 10
17.71235887525949
 20
28.700524647378419
 30
0.0
 11
19.012358875268092
 21
30.00052464738701
 31
0.0
  0
LINE
  5
230
  8
0
 62
     0
 10
37.012883364094023
 20
48.001049136212941
 30
0.0
 11
39.01288336409403
 21
50.001049136212941
 31
0.0
  0
LINE
  5
231
  8
0
 62
     0
 10
9.0123588752710475
 20
20.000524647389739
 30
0.0
 11
10.3123588752619
 21
21.300524647380829
 31
0.0
  0
LINE
  5
232
  8
0
 62
     0
 10
16.589826860125871
 20
28.700524647378419
 30
0.0
 11
17.889826860134459
 21
30.00052464738701
 31
0.0
  0
LINE
  5
233
  8
0
 62
     0
 10
34.998535282256171
 20
47.109233069508718
 30
0.0
 11
37.890351348960174
 21
50.001049136212707
 31
0.0
  0
LINE
  5
234
  8
0
 62
     0
 10
8.0699136485593481
 20
20.180611435811901
 30
0.0
 11
9.1898268601282762
 21
21.300524647380829
 31
0.0
  0
LINE
  5
235
  8
0
 62
     0
 10
15.46729484499224
 20
28.700524647377961
 30
0.0
 11
16.767294845000599
 21
30.000524647386332
 31
0.0
  0
LINE
  5
236
  8
0
 62
     0
 10
34.998535282255489
 20
48.231765084641431
 30
0.0
 11
36.767819333826772
 21
50.001049136212707
 31
0.0
  0
LINE
  5
237
  8
0
 62
     0
 10
6.7672948450040158
 20
20.00052464738997
 30
0.0
 11
8.0672948449948763
 21
21.300524647380829
 31
0.0
  0
LINE
  5
238
  8
0
 62
     0
 10
14.34476282985883
 20
28.700524647378419
 30
0.0
 11
15.644762829867201
 21
30.000524647386559
 31
0.0
  0
LINE
  5
239
  8
0
 62
     0
 10
34.998535282254807
 20
49.354297099774378
 30
0.0
 11
35.645287318693143
 21
50.001049136212487
 31
0.0
  0
LINE
  5
23A
  8
0
 62
     0
 10
5.6447628298706141
 20
20.00052464739019
 30
0.0
 11
6.9447628298612472
 21
21.300524647380829
 31
0.0
  0
LINE
  5
23B
  8
0
 62
     0
 10
13.22223081472521
 20
28.700524647378639
 30
0.0
 11
14.52223081473357
 21
30.000524647386779
 31
0.0
  0
LINE
  5
23C
  8
0
 62
     0
 10
4.5222308147365311
 20
20.00052464738997
 30
0.0
 11
6.0546778886039192
 21
21.53297172125713
 31
0.0
  0
LINE
  5
23D
  8
0
 62
     0
 10
7.3996987995908512
 20
24.000524647377919
 30
0.0
 11
7.430137932390152
 21
24.03096378017722
 31
0.0
  0
LINE
  5
23E
  8
0
 62
     0
 10
12.09969879959112
 20
28.700524647378192
 30
0.0
 11
13.39969879959926
 21
30.000524647386332
 31
0.0
  0
LINE
  5
23F
  8
0
 62
     0
 10
3.3996987996029011
 20
20.00052464738997
 30
0.0
 11
6.7886933081988436
 21
23.389519155985681
 31
0.0
  0
LINE
  5
240
  8
0
 62
     0
 10
10.977166784457721
 20
28.700524647378419
 30
0.0
 11
12.277166784465861
 21
30.000524647386559
 31
0.0
  0
LINE
  5
241
  8
0
 62
     0
 10
2.277166784469272
 20
20.00052464738997
 30
0.0
 11
7.4966639450619823
 21
25.220021807982668
 31
0.0
  0
LINE
  5
242
  8
0
 62
     0
 10
4.7662408648182
 20
23.61213074287253
 30
0.0
 11
7.1546347693256394
 21
26.000524647379962
 31
0.0
  0
LINE
  5
243
  8
0
 62
     0
 10
9.8546347693245462
 20
28.700524647378639
 30
0.0
 11
11.154634769332461
 21
30.000524647386779
 31
0.0
  0
LINE
  5
244
  8
0
 62
     0
 10
1.1546347693358709
 20
20.00052464739019
 30
0.0
 11
2.5546347693373259
 21
21.400524647391649
 31
0.0
  0
LINE
  5
245
  8
0
 62
     0
 10
5.1660515955727533
 20
25.134473488760701
 30
0.0
 11
6.7570768635105187
 21
26.725498756698251
 31
0.0
  0
LINE
  5
246
  8
0
 62
     0
 10
8.7321027541909189
 20
28.700524647378639
 30
0.0
 11
10.032102754198601
 21
30.000524647386332
 31
0.0
  0
LINE
  5
247
  8
0
 62
     0
 10
0.104527695501929
 20
20.072949588689649
 30
0.0
 11
1.4384787131307339
 21
21.40690060631869
 31
0.0
  0
LINE
  5
248
  8
0
 62
     0
 10
4.886030720884718
 20
25.976984629206299
 30
0.0
 11
6.4567039206560821
 21
27.547657828977659
 31
0.0
  0
LINE
  5
249
  8
0
 62
     0
 10
7.609570739056835
 20
28.700524647378419
 30
0.0
 11
8.9095707390649732
 21
30.000524647386332
 31
0.0
  0
LINE
  5
24A
  8
0
 62
     0
 10
0.0000004369715043
 20
21.090954345293081
 30
0.0
 11
1.2000004369706401
 21
22.290954345292221
 31
0.0
  0
LINE
  5
24B
  8
0
 62
     0
 10
6.4870387239234333
 20
28.700524647378639
 30
0.0
 11
7.7185195804574951
 21
29.932005503912709
 31
0.0
  0
LINE
  5
24C
  8
0
 62
     0
 10
4.5951465837481464
 20
26.80863250720336
 30
0.0
 11
6.070523861681294
 21
28.284009785136512
 31
0.0
  0
LINE
  5
24D
  8
0
 62
     0
 10
4.1760800018437294
 20
27.512097940432572
 30
0.0
 11
6.6645067088013539
 21
30.00052464738997
 31
0.0
  0
LINE
  5
24E
  8
0
 62
     0
 10
3.647137794155014
 20
28.105687747877251
 30
0.0
 11
5.54197469366727
 21
30.000524647389739
 31
0.0
  0
LINE
  5
24F
  8
0
 62
     0
 10
2.997796677094811
 20
28.578878645950681
 30
0.0
 11
4.4194426785334144
 21
30.000524647389511
 31
0.0
  0
LINE
  5
250
  8
0
 62
     0
 10
1.896910663402422
 20
28.600524647392149
 30
0.0
 11
3.2969106633997849
 21
30.00052464738928
 31
0.0
  0
LINE
  5
251
  8
0
 62
     0
 10
0.7275587047436148
 20
27.431172688733341
 30
0.0
 11
1.2000004369724591
 21
27.903614420962189
 31
0.0
  0
LINE
  5
252
  8
0
 62
     0
 10
0.1104201425459905
 20
27.93656614166958
 30
0.0
 11
2.174378648265701
 21
30.00052464738928
 31
0.0
  0
LINE
  5
253
  8
0
 62
     0
 10
0.0000004369715043
 20
28.948678451228719
 30
0.0
 11
1.051846633131845
 21
30.00052464738906
 31
0.0
  0
ENDBLK
  5
255
  8
0
  0
ENDSEC
  0
SECTION
  2
ENTITIES
  0
POLYLINE
  5
9E
  8
0
 66
     1
 10
0.0
 20
0.0
 30
0.0
 70
     1
  0
VERTEX
  5
2E4
  8
0
 10
608.26713857741424
 20
895.51302165899574
 30
0.0
 42
0.4142135623730951
  0
VERTEX
  5
2E5
  8
0
 10
608.01713857741424
 20
895.26302165899551
 30
0.0
  0
VERTEX
  5
2E6
  8
0
 10
608.01713857741333
 20
849.76302165899551
 30
0.0
 42
0.4142135623730951
  0
VERTEX
  5
2E7
  8
0
 10
608.26713857741333
 20
849.51302165899563
 30
0.0
  0
VERTEX
  5
2E8
  8
0
 10
702.71696857739914
 20
849.51302165899654
 30
0.0
 42
0.4142135623730922
  0
VERTEX
  5
2E9
  8
0
 10
703.01696857739944
 20
849.81302165899672
 30
0.0
  0
VERTEX
  5
2EA
  8
0
 10
703.01696857739944
 20
895.21302165899465
 30
0.0
 42
0.4142135623730922
  0
VERTEX
  5
2EB
  8
0
 10
702.71696857739914
 20
895.51302165899483
 30
0.0
  0
SEQEND
  5
2EC
  8
0
  0
POLYLINE
  5
9F
  8
0
 62
     0
 66
     1
 10
0.0
 20
0.0
 30
0.0
 70
     1
  0
VERTEX
  5
2ED
  8
0
 62
     0
 10
555.21860373213121
 20
875.21354614781865
 30
0.0
  0
VERTEX
  5
2EE
  8
0
 62
     0
 10
555.21860373213121
 20
875.81354614781981
 30
0.0
 42
-0.4142135623730951
  0
VERTEX
  5
2EF
  8
0
 62
     0
 10
555.51860373213049
 20
876.11354614781908
 30
0.0
  0
VERTEX
  5
2F0
  8
0
 62
     0
 10
556.87087522502895
 20
876.11354614781908
 30
0.0
 42
-0.1495243751401724
  0
VERTEX
  5
2F1
  8
0
 62
     0
 10
557.15059066525146
 20
876.02798465047772
 30
0.0
 42
-0.2298160789566474
  0
VERTEX
  5
2F2
  8
0
 62
     0
 10
559.00714911070588
 20
872.82500076921531
 30
0.0
  0
VERTEX
  5
2F3
  8
0
 62
     0
 10
559.31860373210066
 20
872.51354614781712
 30
0.0
  0
VERTEX
  5
2F4
  8
0
 62
     0
 10
559.00714911069497
 20
872.20209152642406
 30
0.0
 42
-0.2298160789565681
  0
VERTEX
  5
2F5
  8
0
 62
     0
 10
557.15059066525964
 20
868.9991076451455
 30
0.0
 42
-0.1495243751401545
  0
VERTEX
  5
2F6
  8
0
 62
     0
 10
556.87087522502895
 20
868.91354614781847
 30
0.0
  0
VERTEX
  5
2F7
  8
0
 62
     0
 10
555.51860373213049
 20
868.91354614781847
 30
0.0
 42
-0.4142135623729619
  0
VERTEX
  5
2F8
  8
0
 62
     0
 10
555.21860373212746
 20
869.21354614781762
 30
0.0
  0
VERTEX
  5
2F9
  8
0
 62
     0
 10
555.21860373212985
 20
869.81354614781696
 30
0.0
 42
0.4539747945145676
  0
VERTEX
  5
2FA
  8
0
 62
     0
 10
554.87574658957635
 20
870.11046914193992
 30
0.0
 42
0.3728246933598933
  0
VERTEX
  5
2FB
  8
0
 62
     0
 10
554.01860373213037
 20
869.12072582328551
 30
0.0
  0
VERTEX
  5
2FC
  8
0
 62
     0
 10
554.01860373213037
 20
867.81354614781719
 30
0.0
 42
0.4142135623730951
  0
VERTEX
  5
2FD
  8
0
 62
     0
 10
554.31860373213055
 20
867.51354614781701
 30
0.0
  0
VERTEX
  5
2FE
  8
0
 62
     0
 10
561.66860373213922
 20
867.51354614781701
 30
0.0
  0
VERTEX
  5
2FF
  8
0
 62
     0
 10
561.96860373213838
 20
867.81354614781981
 30
0.0
  0
VERTEX
  5
300
  8
0
 62
     0
 10
562.26860373213765
 20
867.51354614781701
 30
0.0
  0
VERTEX
  5
301
  8
0
 62
     0
 10
605.71713857741315
 20
867.5135461478161
 30
0.0
 42
-0.4142135623730829
  0
VERTEX
  5
302
  8
0
 62
     0
 10
606.01713857741333
 20
867.21354614781592
 30
0.0
  0
VERTEX
  5
303
  8
0
 62
     0
 10
606.01713857741333
 20
862.63781021545708
 30
0.0
 42
0.198912365807439
  0
VERTEX
  5
304
  8
0
 62
     0
 10
606.10500654177429
 20
862.42567818238444
 30
0.0
  0
VERTEX
  5
305
  8
0
 62
     0
 10
606.42927061176886
 20
862.22567817868219
 30
0.0
 42
-0.4142135623730951
  0
VERTEX
  5
306
  8
0
 62
     0
 10
606.42927061176886
 20
861.80141410997044
 30
0.0
  0
VERTEX
  5
307
  8
0
 62
     0
 10
606.1050065430577
 20
861.60141411345307
 30
0.0
 42
0.1989123673794272
  0
VERTEX
  5
308
  8
0
 62
     0
 10
606.01713857741333
 20
861.38928207909737
 30
0.0
  0
VERTEX
  5
309
  8
0
 62
     0
 10
606.01713857741333
 20
851.01302165899563
 30
0.0
 42
-0.4142135623730951
  0
VERTEX
  5
30A
  8
0
 62
     0
 10
604.51713857741333
 20
849.51302165899563
 30
0.0
  0
VERTEX
  5
30B
  8
0
 62
     0
 10
597.01713857741333
 20
849.51302165899563
 30
0.0
 42
-0.4142135623730951
  0
VERTEX
  5
30C
  8
0
 62
     0
 10
596.01713857741333
 20
850.51302165899563
 30
0.0
  0
VERTEX
  5
30D
  8
0
 62
     0
 10
596.01713857741333
 20
858.00829336665515
 30
0.0
 42
0.4142135623730951
  0
VERTEX
  5
30E
  8
0
 62
     0
 10
594.51713857741333
 20
859.50829336665493
 30
0.0
  0
VERTEX
  5
30F
  8
0
 62
     0
 10
589.31745064609777
 20
859.50829336665413
 30
0.0
 42
0.4145181127626661
  0
VERTEX
  5
310
  8
0
 62
     0
 10
589.01745080824037
 20
859.20798146028085
 30
0.0
  0
VERTEX
  5
311
  8
0
 62
     0
 10
589.01961341481956
 20
857.12792898749694
 30
0.0
 42
0.1986421752090224
  0
VERTEX
  5
312
  8
0
 62
     0
 10
589.10748121832012
 20
856.91610885951434
 30
0.0
  0
VERTEX
  5
313
  8
0
 62
     0
 10
589.63176667976995
 20
856.39182339806166
 30
0.0
 42
0.1989123673832994
  0
VERTEX
  5
314
  8
0
 62
     0
 10
589.84389871412941
 20
856.3039554324165
 30
0.0
  0
VERTEX
  5
315
  8
0
 62
     0
 10
590.01954838899155
 20
856.3039554324173
 30
0.0
 42
0.4147163414446785
  0
VERTEX
  5
316
  8
0
 62
     0
 10
590.31954794714193
 20
856.60447031914714
 30
0.0
  0
VERTEX
  5
317
  8
0
 62
     0
 10
590.31765434858471
 20
857.70777847992622
 30
0.0
 42
-0.414716341446308
  0
VERTEX
  5
318
  8
0
 62
     0
 10
590.61765390673679
 20
858.00829336665515
 30
0.0
  0
VERTEX
  5
319
  8
0
 62
     0
 10
594.21713857741315
 20
858.00829336665515
 30
0.0
 42
-0.4142135623730951
  0
VERTEX
  5
31A
  8
0
 62
     0
 10
594.51713857741333
 20
857.70829336665486
 30
0.0
  0
VERTEX
  5
31B
  8
0
 62
     0
 10
594.51713857741333
 20
854.38492158424788
 30
0.0
 42
0.198912367379658
  0
VERTEX
  5
31C
  8
0
 62
     0
 10
594.6050065430577
 20
854.17278954989206
 30
0.0
  0
VERTEX
  5
31D
  8
0
 62
     0
 10
594.92927061176886
 20
853.97278954718115
 30
0.0
 42
-0.4142135623727721
  0
VERTEX
  5
31E
  8
0
 62
     0
 10
594.92927061176988
 20
853.5485254784694
 30
0.0
  0
VERTEX
  5
31F
  8
0
 62
     0
 10
594.6050065430577
 20
853.34852548117976
 30
0.0
 42
0.198912367379688
  0
VERTEX
  5
320
  8
0
 62
     0
 10
594.51713857741333
 20
853.13639344682394
 30
0.0
  0
VERTEX
  5
321
  8
0
 62
     0
 10
594.51713857741424
 20
849.81302165899581
 30
0.0
 42
-0.4142135623730951
  0
VERTEX
  5
322
  8
0
 62
     0
 10
594.21713857741395
 20
849.51302165899563
 30
0.0
  0
VERTEX
  5
323
  8
0
 62
     0
 10
590.61713857740176
 20
849.51302165899563
 30
0.0
 42
-0.4142135623730951
  0
VERTEX
  5
324
  8
0
 62
     0
 10
590.31713857740158
 20
849.81302165899581
 30
0.0
  0
VERTEX
  5
325
  8
0
 62
     0
 10
590.3171385774026
 20
851.00802165897915
 30
0.0
 42
0.4142135623719154
  0
VERTEX
  5
326
  8
0
 62
     0
 10
590.01713857740333
 20
851.30802165897933
 30
0.0
  0
VERTEX
  5
327
  8
0
 62
     0
 10
589.84140264610915
 20
851.30802165897933
 30
0.0
 42
0.1989123673801348
  0
VERTEX
  5
328
  8
0
 62
     0
 10
589.62927061175242
 20
851.22015369333496
 30
0.0
  0
VERTEX
  5
329
  8
0
 62
     0
 10
589.10500654305952
 20
850.69588962464024
 30
0.0
 42
0.1989123673796799
  0
VERTEX
  5
32A
  8
0
 62
     0
 10
589.01713857741515
 20
850.48375759028431
 30
0.0
  0
VERTEX
  5
32B
  8
0
 62
     0
 10
589.01713857741333
 20
847.81302165899581
 30
0.0
 42
0.4142135623730951
  0
VERTEX
  5
32C
  8
0
 62
     0
 10
589.31713857741352
 20
847.51302165899563
 30
0.0
  0
VERTEX
  5
32D
  8
0
 62
     0
 10
708.71696857740744
 20
847.51302165899563
 30
0.0
 42
0.4142135623730488
  0
VERTEX
  5
32E
  8
0
 62
     0
 10
709.01696857740035
 20
847.81302165899581
 30
0.0
  0
VERTEX
  5
32F
  8
0
 62
     0
 10
709.01696857740762
 20
897.21407063663969
 30
0.0
 42
0.4142135623731356
  0
VERTEX
  5
330
  8
0
 62
     0
 10
708.71696857740744
 20
897.51407063663987
 30
0.0
  0
VERTEX
  5
331
  8
0
 62
     0
 10
589.31713857741352
 20
897.51407063663987
 30
0.0
 42
0.4142135623730951
  0
VERTEX
  5
332
  8
0
 62
     0
 10
589.01713857741333
 20
897.21407063663969
 30
0.0
  0
VERTEX
  5
333
  8
0
 62
     0
 10
589.01713857741515
 20
894.54333470535119
 30
0.0
 42
0.1989123673796909
  0
VERTEX
  5
334
  8
0
 62
     0
 10
589.10500654305952
 20
894.33120267099525
 30
0.0
  0
VERTEX
  5
335
  8
0
 62
     0
 10
589.62927061175242
 20
893.80693860230065
 30
0.0
 42
0.1989123673802088
  0
VERTEX
  5
336
  8
0
 62
     0
 10
589.84140264610915
 20
893.71907063665617
 30
0.0
  0
VERTEX
  5
337
  8
0
 62
     0
 10
590.01713857740333
 20
893.71907063665617
 30
0.0
 42
0.4142135623719152
  0
VERTEX
  5
338
  8
0
 62
     0
 10
590.3171385774026
 20
894.01907063665635
 30
0.0
  0
VERTEX
  5
339
  8
0
 62
     0
 10
590.31713857740158
 20
895.2140706366398
 30
0.0
 42
-0.4142135623730951
  0
VERTEX
  5
33A
  8
0
 62
     0
 10
590.61713857740176
 20
895.51407063663999
 30
0.0
  0
VERTEX
  5
33B
  8
0
 62
     0
 10
594.21713857741395
 20
895.51407063663999
 30
0.0
 42
-0.4142135623730951
  0
VERTEX
  5
33C
  8
0
 62
     0
 10
594.51713857741424
 20
895.2140706366398
 30
0.0
  0
VERTEX
  5
33D
  8
0
 62
     0
 10
594.51713857741333
 20
891.89069884881155
 30
0.0
 42
0.1989123673796799
  0
VERTEX
  5
33E
  8
0
 62
     0
 10
594.6050065430577
 20
891.67856681445585
 30
0.0
  0
VERTEX
  5
33F
  8
0
 62
     0
 10
594.92927061176988
 20
891.47856681716632
 30
0.0
 42
-0.414213562372983
  0
VERTEX
  5
340
  8
0
 62
     0
 10
594.92927061176886
 20
891.05430274845457
 30
0.0
  0
VERTEX
  5
341
  8
0
 62
     0
 10
594.6050065430577
 20
890.85430274574367
 30
0.0
 42
0.1989123673796799
  0
VERTEX
  5
342
  8
0
 62
     0
 10
594.51713857741333
 20
890.64217071138785
 30
0.0
  0
VERTEX
  5
343
  8
0
 62
     0
 10
594.51713857741333
 20
887.31879892898075
 30
0.0
 42
-0.4142135623730951
  0
VERTEX
  5
344
  8
0
 62
     0
 10
594.21713857741315
 20
887.01879892898046
 30
0.0
  0
VERTEX
  5
345
  8
0
 62
     0
 10
590.61765390673679
 20
887.01879892898046
 30
0.0
 42
-0.4147163414463081
  0
VERTEX
  5
346
  8
0
 62
     0
 10
590.31765434858471
 20
887.31931381570928
 30
0.0
  0
VERTEX
  5
347
  8
0
 62
     0
 10
590.31954794714193
 20
888.42262197648847
 30
0.0
 42
0.4147163414446786
  0
VERTEX
  5
348
  8
0
 62
     0
 10
590.01954838899155
 20
888.7231368632182
 30
0.0
  0
VERTEX
  5
349
  8
0
 62
     0
 10
589.84389871412941
 20
888.72313686321911
 30
0.0
 42
0.1989123673833291
  0
VERTEX
  5
34A
  8
0
 62
     0
 10
589.63176667976995
 20
888.63526889757395
 30
0.0
  0
VERTEX
  5
34B
  8
0
 62
     0
 10
589.10748121832012
 20
888.11098343612127
 30
0.0
 42
0.1986421752090306
  0
VERTEX
  5
34C
  8
0
 62
     0
 10
589.01961341481956
 20
887.89916330813855
 30
0.0
  0
VERTEX
  5
34D
  8
0
 62
     0
 10
589.01745080824037
 20
885.81911083535476
 30
0.0
 42
0.4145181127626663
  0
VERTEX
  5
34E
  8
0
 62
     0
 10
589.31745064609777
 20
885.51879892898148
 30
0.0
  0
VERTEX
  5
34F
  8
0
 62
     0
 10
594.51713857741333
 20
885.51879892898057
 30
0.0
 42
0.4142135623730951
  0
VERTEX
  5
350
  8
0
 62
     0
 10
596.01713857741333
 20
887.01879892898046
 30
0.0
  0
VERTEX
  5
351
  8
0
 62
     0
 10
596.01713857741333
 20
894.51407063663999
 30
0.0
 42
-0.4142135623730951
  0
VERTEX
  5
352
  8
0
 62
     0
 10
597.01713857741333
 20
895.51407063663999
 30
0.0
  0
VERTEX
  5
353
  8
0
 62
     0
 10
604.51713857741333
 20
895.51407063663999
 30
0.0
 42
-0.4142135623730951
  0
VERTEX
  5
354
  8
0
 62
     0
 10
606.01713857741333
 20
894.01407063663987
 30
0.0
  0
VERTEX
  5
355
  8
0
 62
     0
 10
606.01713857741333
 20
883.63781021894306
 30
0.0
 42
0.1989123658072082
  0
VERTEX
  5
356
  8
0
 62
     0
 10
606.10500654177429
 20
883.42567818587065
 30
0.0
  0
VERTEX
  5
357
  8
0
 62
     0
 10
606.42927061176886
 20
883.22567818216817
 30
0.0
 42
-0.4142135623730951
  0
VERTEX
  5
358
  8
0
 62
     0
 10
606.42927061176886
 20
882.80141411345664
 30
0.0
  0
VERTEX
  5
359
  8
0
 62
     0
 10
606.1050065430577
 20
882.60141411693928
 30
0.0
 42
0.1989123673796102
  0
VERTEX
  5
35A
  8
0
 62
     0
 10
606.01713857741515
 20
882.38928208258335
 30
0.0
  0
VERTEX
  5
35B
  8
0
 62
     0
 10
606.01713857741424
 20
877.81354614781537
 30
0.0
 42
-0.4142135623730768
  0
VERTEX
  5
35C
  8
0
 62
     0
 10
605.71713857741395
 20
877.51354614781519
 30
0.0
  0
VERTEX
  5
35D
  8
0
 62
     0
 10
562.26860373213412
 20
877.51354614781337
 30
0.0
  0
VERTEX
  5
35E
  8
0
 62
     0
 10
561.96860373213838
 20
877.21354614781774
 30
0.0
  0
VERTEX
  5
35F
  8
0
 62
     0
 10
561.66860373213922
 20
877.51354614781701
 30
0.0
  0
VERTEX
  5
360
  8
0
 62
     0
 10
554.31860373213055
 20
877.5135461478161
 30
0.0
 42
0.4142135623730951
  0
VERTEX
  5
361
  8
0
 62
     0
 10
554.01860373213037
 20
877.21354614781592
 30
0.0
  0
VERTEX
  5
362
  8
0
 62
     0
 10
554.01860373213037
 20
875.90636647235112
 30
0.0
 42
0.3728246933597993
  0
VERTEX
  5
363
  8
0
 62
     0
 10
554.87574658957817
 20
874.91662315369683
 30
0.0
 42
0.4612296980989752
  0
SEQEND
  5
364
  8
0
 62
     0
  0
POLYLINE
  5
A0
  8
290304SEND
 62
     0
 66
     1
 10
0.0
 20
0.0
 30
0.0
 70
     1
  0
VERTEX
  5
365
  8
290304SEND
 62
     0
 10
560.10930437096204
 20
875.75758284505366
 30
0.0
 42
-0.0967394291685241
  0
VERTEX
  5
366
  8
290304SEND
 62
     0
 10
560.93819291353827
 20
873.51354614780848
 30
0.0
  0
VERTEX
  5
367
  8
290304SEND
 62
     0
 10
561.44424551203383
 20
873.51354614780496
 30
0.0
 42
-0.0745967863901176
  0
VERTEX
  5
368
  8
290304SEND
 62
     0
 10
561.44424551203008
 20
871.51354614780496
 30
0.0
  0
VERTEX
  5
369
  8
290304SEND
 62
     0
 10
560.93819291354203
 20
871.51354614780587
 30
0.0
 42
-0.0967394291684056
  0
VERTEX
  5
36A
  8
290304SEND
 62
     0
 10
560.1093043709775
 20
869.26950945055705
 30
0.0
 42
0.585079125553766
  0
VERTEX
  5
36B
  8
290304SEND
 62
     0
 10
560.36557658600623
 20
868.81354614780787
 30
0.0
  0
VERTEX
  5
36C
  8
290304SEND
 62
     0
 10
605.71713857741395
 20
868.81354614780787
 30
0.0
 42
0.4142135623731009
  0
VERTEX
  5
36D
  8
290304SEND
 62
     0
 10
606.01713857741424
 20
869.11354614780805
 30
0.0
  0
VERTEX
  5
36E
  8
290304SEND
 62
     0
 10
606.01713857741424
 20
875.91354614780357
 30
0.0
 42
0.4142135623730833
  0
VERTEX
  5
36F
  8
290304SEND
 62
     0
 10
605.71713857741395
 20
876.21354614780375
 30
0.0
  0
VERTEX
  5
370
  8
290304SEND
 62
     0
 10
560.36557658598804
 20
876.21354614780557
 30
0.0
 42
0.585079125555625
  0
SEQEND
  5
371
  8
290304SEND
 62
     0
  0
ENDSEC
  0
EOF
