  0
SECTION
  2
HEADER
  9
$ACADVER
  1
AC1012
  9
$DWGCODEPAGE
  3
ANSI_1252
  9
$INSBASE
 10
0.0
 20
0.0
 30
0.0
  9
$EXTMIN
 10
857.487479240725
 20
-62.67557711819268
 30
-0.0000000349181948
  9
$EXTMAX
 10
917.5965833383166
 20
17.34742349706209
 30
0.0000000814935746
  9
$LIMMIN
 10
0.0
 20
0.0
  9
$LIMMAX
 10
12.0
 20
9.0
  9
$ORTHOMODE
 70
     1
  9
$REGENMODE
 70
     1
  9
$FILLMODE
 70
     1
  9
$QTEXTMODE
 70
     0
  9
$MIRRTEXT
 70
     1
  9
$DRAGMODE
 70
     2
  9
$LTSCALE
 40
15.0
  9
$OSMODE
 70
    37
  9
$ATTMODE
 70
     1
  9
$TEXTSIZE
 40
2.5
  9
$TRACEWID
 40
0.05
  9
$TEXTSTYLE
  7
ROMANT
  9
$CLAYER
  8
0
  9
$CELTYPE
  6
BYLAYER
  9
$CECOLOR
 62
     0
  9
$CELTSCALE
 40
0.05
  9
$DELOBJ
 70
     1
  9
$DISPSILH
 70
     0
  9
$DIMSCALE
 40
0.0
  9
$DIMASZ
 40
2.5
  9
$DIMEXO
 40
0.625
  9
$DIMDLI
 40
0.38
  9
$DIMRND
 40
0.0
  9
$DIMDLE
 40
0.0
  9
$DIMEXE
 40
0.18
  9
$DIMTP
 40
0.0135
  9
$DIMTM
 40
0.0135
  9
$DIMTXT
 40
2.5
  9
$DIMCEN
 40
0.09
  9
$DIMTSZ
 40
0.0
  9
$DIMTOL
 70
     0
  9
$DIMLIM
 70
     0
  9
$DIMTIH
 70
     0
  9
$DIMTOH
 70
     0
  9
$DIMSE1
 70
     0
  9
$DIMSE2
 70
     0
  9
$DIMTAD
 70
     1
  9
$DIMZIN
 70
     8
  9
$DIMBLK
  1

  9
$DIMASO
 70
     1
  9
$DIMSHO
 70
     1
  9
$DIMPOST
  1

  9
$DIMAPOST
  1

  9
$DIMALT
 70
     0
  9
$DIMALTD
 70
     2
  9
$DIMALTF
 40
25.4
  9
$DIMLFAC
 40
0.5
  9
$DIMTOFL
 70
     0
  9
$DIMTVP
 40
0.0
  9
$DIMTIX
 70
     0
  9
$DIMSOXD
 70
     0
  9
$DIMSAH
 70
     0
  9
$DIMBLK1
  1

  9
$DIMBLK2
  1

  9
$DIMSTYLE
  2
\U+0130SMAIL_1_5___1
  9
$DIMCLRD
 70
   242
  9
$DIMCLRE
 70
   242
  9
$DIMCLRT
 70
   242
  9
$DIMTFAC
 40
1.0
  9
$DIMGAP
 40
0.5
  9
$DIMJUST
 70
     0
  9
$DIMSD1
 70
     0
  9
$DIMSD2
 70
     0
  9
$DIMTOLJ
 70
     1
  9
$DIMTZIN
 70
     0
  9
$DIMALTZ
 70
     0
  9
$DIMALTTZ
 70
     0
  9
$DIMFIT
 70
     3
  9
$DIMUPT
 70
     0
  9
$DIMUNIT
 70
     2
  9
$DIMDEC
 70
     2
  9
$DIMTDEC
 70
     2
  9
$DIMALTU
 70
     2
  9
$DIMALTTD
 70
     2
  9
$DIMTXSTY
  7
ROMANT
  9
$DIMAUNIT
 70
     0
  9
$LUNITS
 70
     2
  9
$LUPREC
 70
     4
  9
$SKETCHINC
 40
0.1
  9
$FILLETRAD
 40
0.0
  9
$AUNITS
 70
     0
  9
$AUPREC
 70
     0
  9
$MENU
  1
.
  9
$ELEVATION
 40
0.0
  9
$PELEVATION
 40
0.0
  9
$THICKNESS
 40
0.0
  9
$LIMCHECK
 70
     0
  9
$BLIPMODE
 70
     0
  9
$CHAMFERA
 40
0.0
  9
$CHAMFERB
 40
0.0
  9
$CHAMFERC
 40
0.0
  9
$CHAMFERD
 40
0.0
  9
$SKPOLY
 70
     0
  9
$TDCREATE
 40
2452396.589542465
  9
$TDUPDATE
 40
2453554.427465127
  9
$TDINDWG
 40
9.7060713426
  9
$TDUSRTIMER
 40
9.7060712269
  9
$USRTIMER
 70
     1
  9
$ANGBASE
 50
0.0
  9
$ANGDIR
 70
     0
  9
$PDMODE
 70
     0
  9
$PDSIZE
 40
0.0
  9
$PLINEWID
 40
0.0
  9
$COORDS
 70
     0
  9
$SPLFRAME
 70
     0
  9
$SPLINETYPE
 70
     6
  9
$SPLINESEGS
 70
     8
  9
$ATTDIA
 70
     0
  9
$ATTREQ
 70
     1
  9
$HANDLING
 70
-16383
  9
$HANDSEED
  5
402F9
  9
$SURFTAB1
 70
     6
  9
$SURFTAB2
 70
     6
  9
$SURFTYPE
 70
     6
  9
$SURFU
 70
     6
  9
$SURFV
 70
     6
  9
$UCSNAME
  2

  9
$UCSORG
 10
0.0
 20
0.0
 30
0.0
  9
$UCSXDIR
 10
1.0
 20
0.0
 30
0.0
  9
$UCSYDIR
 10
0.0
 20
1.0
 30
0.0
  9
$PUCSNAME
  2

  9
$PUCSORG
 10
0.0
 20
0.0
 30
0.0
  9
$PUCSXDIR
 10
1.0
 20
0.0
 30
0.0
  9
$PUCSYDIR
 10
0.0
 20
1.0
 30
0.0
  9
$USERI1
 70
     0
  9
$USERI2
 70
     0
  9
$USERI3
 70
     0
  9
$USERI4
 70
     0
  9
$USERI5
 70
     0
  9
$USERR1
 40
0.0
  9
$USERR2
 40
0.0
  9
$USERR3
 40
0.0
  9
$USERR4
 40
0.0
  9
$USERR5
 40
0.0
  9
$WORLDVIEW
 70
     1
  9
$SHADEDGE
 70
     3
  9
$SHADEDIF
 70
    70
  9
$TILEMODE
 70
     1
  9
$MAXACTVP
 70
    64
  9
$PINSBASE
 10
0.0
 20
0.0
 30
0.0
  9
$PLIMCHECK
 70
     0
  9
$PEXTMIN
 10
26.66076962115562
 20
20.31135699206657
 30
-0.0015258207003583
  9
$PEXTMAX
 10
240.039213369355
 20
182.8886381005154
 30
0.0000000349246037
  9
$PLIMMIN
 10
-6.350006103515625
 20
-6.349999904632568
  9
$PLIMMAX
 10
273.0499877929687
 20
209.5499939918517
  9
$UNITMODE
 70
     0
  9
$VISRETAIN
 70
     1
  9
$PLINEGEN
 70
     0
  9
$PSLTSCALE
 70
     1
  9
$TREEDEPTH
 70
  3020
  9
$PICKSTYLE
 70
     1
  9
$CMLSTYLE
  2
STANDARD
  9
$CMLJUST
 70
     0
  9
$CMLSCALE
 40
1.0
  9
$SAVEIMAGES
 70
     1
  0
ENDSEC
  0
SECTION
  2
CLASSES
  0
CLASS
  1
ACDBDICTIONARYWDFLT
  2
AcDbDictionaryWithDefault
  3
AutoCAD 2000
 90
    32768
280
     0
281
     0
  0
CLASS
  1
ACDBPLACEHOLDER
  2
AcDbPlaceHolder
  3
AutoCAD 2000
 90
    32768
280
     0
281
     0
  0
CLASS
  1
LAYOUT
  2
AcDbLayout
  3
AutoCAD 2000
 90
    32768
280
     0
281
     0
  0
CLASS
  1
DICTIONARYVAR
  2
AcDbDictionaryVar
  3
AutoCAD 2000
 90
    32768
280
     0
281
     0
  0
CLASS
  1
LONG_TRANSACTION
  2
AcDbLongTransaction
  3
AutoCAD 2000
 90
    32768
280
     0
281
     0
  0
CLASS
  1
LWPOLYLINE
  2
AcDbPolyline
  3
AutoCAD 2000
 90
    32768
280
     0
281
     1
  0
CLASS
  1
HATCH
  2
AcDbHatch
  3
AutoCAD 2000
 90
    32768
280
     0
281
     1
  0
CLASS
  1
XRECORD
  2
AcDbXrecord
  3
AutoCAD 2000
 90
    32768
280
     0
281
     0
  0
ENDSEC
  0
SECTION
  2
TABLES
  0
TABLE
  2
VPORT
  5
1A
330
0
100
AcDbSymbolTable
 70
     2
  0
VPORT
  5
40244
330
1A
100
AcDbSymbolTableRecord
100
AcDbViewportTableRecord
  2
*ACTIVE
 70
     0
 10
0.0
 20
0.0
 11
1.0
 21
1.0
 12
887.2698758060904
 22
-22.25584529824235
 13
0.0
 23
0.0
 14
1.0
 24
1.0
 15
0.0
 25
0.0
 16
0.0
 26
0.0
 36
1.0
 17
0.0
 27
0.0
 37
0.0
 40
80.82995521325774
 41
1.595959595959596
 42
50.0
 43
0.0
 44
0.0
 50
0.0
 51
0.0
 71
     0
 72
   100
 73
     1
 74
     1
 75
     0
 76
     1
 77
     0
 78
     0
  0
ENDTAB
  0
TABLE
  2
LTYPE
  5
15
330
0
100
AcDbSymbolTable
 70
     5
  0
LTYPE
  5
16
330
15
100
AcDbSymbolTableRecord
100
AcDbLinetypeTableRecord
  2
BYBLOCK
 70
     0
  3

 72
    65
 73
     0
 40
0.0
  0
LTYPE
  5
17
330
15
100
AcDbSymbolTableRecord
100
AcDbLinetypeTableRecord
  2
BYLAYER
 70
     0
  3

 72
    65
 73
     0
 40
0.0
  0
LTYPE
  5
8
330
15
100
AcDbSymbolTableRecord
100
AcDbLinetypeTableRecord
  2
CONTINUOUS
 70
     0
  3
CONTINUOUS
 72
    65
 73
     0
 40
0.0
  0
LTYPE
  5
2B054
330
15
100
AcDbSymbolTableRecord
100
AcDbLinetypeTableRecord
  2
HIDDEN
 70
     0
  3
Hidden __ __ __ __ __ __ __ __ __ __ __ __ __ _
 72
    65
 73
     2
 40
9.524999999999998
 49
6.349999999999999
 74
     0
 49
-3.174999999999999
 74
     0
  0
LTYPE
  5
2E1A9
330
15
100
AcDbSymbolTableRecord
100
AcDbLinetypeTableRecord
  2
CENTER
 70
     0
  3
----- - ----- - -----
 72
    65
 73
     4
 40
1.25
 49
0.8
 74
     0
 49
-0.15
 74
     0
 49
0.15
 74
     0
 49
-0.15
 74
     0
  0
LTYPE
  5
3A7B8
330
15
100
AcDbSymbolTableRecord
100
AcDbLinetypeTableRecord
  2
DOT
 70
     0
  3
Dot . . . . . . . . . . . . . . . . . . . . . .
 72
    65
 73
     2
 40
6.349999999999999
 49
0.0
 74
     0
 49
-6.349999999999999
 74
     0
  0
LTYPE
  5
3F3FB
330
15
100
AcDbSymbolTableRecord
100
AcDbLinetypeTableRecord
  2
ACAD_ISO10W100
 70
     0
  3
ISO dash dot __ . __ . __ . __ . __ . __ . __ .
 72
    65
 73
     4
 40
18.0
 49
12.0
 74
     0
 49
-3.0
 74
     0
 49
0.0
 74
     0
 49
-3.0
 74
     0
  0
ENDTAB
  0
TABLE
  2
LAYER
  5
10
102
{ACAD_XDICTIONARY
360
2A172
102
}
330
0
100
AcDbSymbolTable
 70
     6
  0
LAYER
  5
4
330
10
100
AcDbSymbolTableRecord
100
AcDbLayerTableRecord
  2
0
 70
     0
 62
     7
  6
CONTINUOUS
  0
LAYER
  5
2D
330
10
100
AcDbSymbolTableRecord
100
AcDbLayerTableRecord
  2
DEFPOINTS
 70
     0
 62
     7
  6
CONTINUOUS
  0
LAYER
  5
42F
330
10
100
AcDbSymbolTableRecord
100
AcDbLayerTableRecord
  2
ANA
 70
     0
 62
   220
  6
CONTINUOUS
  0
LAYER
  5
432
330
10
100
AcDbSymbolTableRecord
100
AcDbLayerTableRecord
  2
ANTET
 70
     0
 62
   220
  6
CONTINUOUS
  0
LAYER
  5
3DBE1
330
10
100
AcDbSymbolTableRecord
100
AcDbLayerTableRecord
  2
260404SEND
 70
     0
 62
   160
  6
CONTINUOUS
  0
LAYER
  5
3EA7B
330
10
100
AcDbSymbolTableRecord
100
AcDbLayerTableRecord
  2
NEW_PROFILES
 70
     0
 62
     5
  6
CONTINUOUS
  0
ENDTAB
  0
TABLE
  2
STYLE
  5
11
330
0
100
AcDbSymbolTable
 70
     2
  0
STYLE
  5
12
330
11
100
AcDbSymbolTableRecord
100
AcDbTextStyleTableRecord
  2
STANDARD
 70
     0
 40
0.0
 41
1.0
 50
0.0
 71
     0
 42
0.2
  3
TIMES.TTF
  4

1001
ACAD
1000
Times New Roman Tur
1071
    41490
  0
STYLE
  5
436
330
11
100
AcDbSymbolTableRecord
100
AcDbTextStyleTableRecord
  2
ROMANT
 70
     0
 40
2.5
 41
1.0
 50
15.0
 71
     0
 42
2.5
  3
romant.shx
  4

  0
ENDTAB
  0
TABLE
  2
VIEW
  5
18
330
0
100
AcDbSymbolTable
 70
     0
  0
ENDTAB
  0
TABLE
  2
UCS
  5
19
330
0
100
AcDbSymbolTable
 70
     0
  0
ENDTAB
  0
TABLE
  2
APPID
  5
1C
330
0
100
AcDbSymbolTable
 70
     1
  0
APPID
  5
13
330
1C
100
AcDbSymbolTableRecord
100
AcDbRegAppTableRecord
  2
ACAD
 70
     0
  0
ENDTAB
  0
TABLE
  2
DIMSTYLE
  5
1D
330
0
100
AcDbSymbolTable
 70
     3
  0
DIMSTYLE
105
439
330
1D
100
AcDbSymbolTableRecord
100
AcDbDimStyleTableRecord
  2
STANDARD
 70
     0
  3

  4

  5

  6

  7

 40
1.0
 41
0.18
 42
0.0625
 43
0.38
 44
0.18
 45
0.0
 46
0.0
 47
0.0
 48
0.0
140
0.18
141
0.09
142
0.0
143
25.4
144
1.0
145
0.0
146
1.0
147
0.09
 71
     0
 72
     0
 73
     1
 74
     1
 75
     0
 76
     0
 77
     0
 78
     0
170
     0
171
     2
172
     0
173
     0
174
     0
175
     0
176
     0
177
     0
178
     0
270
     2
271
     4
272
     4
273
     2
274
     2
340
12
275
     0
280
     0
281
     0
282
     0
283
     1
284
     0
285
     0
286
     0
287
     3
288
     0
  0
DIMSTYLE
105
1105
330
1D
100
AcDbSymbolTableRecord
100
AcDbDimStyleTableRecord
  2
\U+0130SMAIL_1_5___1
 70
     0
  3

  4

  5

  6

  7

 40
0.0
 41
2.0
 42
0.625
 43
0.38
 44
0.18
 45
0.0
 46
0.0
 47
0.0135
 48
0.0135
140
2.5
141
0.137
142
0.0
143
25.4
144
1.0
145
0.0
146
1.0
147
0.5
 71
     0
 72
     0
 73
     0
 74
     0
 75
     0
 76
     0
 77
     1
 78
     8
170
     0
171
     2
172
     0
173
     0
174
     0
175
     0
176
     5
177
     5
178
     5
270
     2
271
     2
272
     2
273
     2
274
     2
340
436
275
     0
280
     0
281
     0
282
     0
283
     1
284
     0
285
     0
286
     0
287
     3
288
     0
  0
DIMSTYLE
105
3DBE2
330
1D
100
AcDbSymbolTableRecord
100
AcDbDimStyleTableRecord
  2
ISO-25
 70
     0
  3

  4

  5

  6

  7

 40
1.0
 41
2.5
 42
0.625
 43
3.75
 44
1.25
 45
0.0
 46
0.0
 47
0.0
 48
0.0
140
2.5
141
2.5
142
0.0
143
0.03937007874016
144
1.0
145
0.0
146
1.0
147
0.625
 71
     0
 72
     0
 73
     0
 74
     0
 75
     0
 76
     0
 77
     1
 78
     8
170
     0
171
     3
172
     1
173
     0
174
     0
175
     0
176
     0
177
     0
178
     0
270
     2
271
     2
272
     2
273
     2
274
     3
340
12
275
     0
280
     0
281
     0
282
     0
283
     0
284
     8
285
     0
286
     0
287
     3
288
     0
  0
ENDTAB
  0
TABLE
  2
BLOCK_RECORD
  5
1
330
0
100
AcDbSymbolTable
 70
   115
  0
BLOCK_RECORD
  5
2
102
{ACAD_XDICTIONARY
360
40245
102
}
330
1
100
AcDbSymbolTableRecord
100
AcDbBlockTableRecord
  2
*MODEL_SPACE
  0
BLOCK_RECORD
  5
C
102
{ACAD_XDICTIONARY
360
40247
102
}
330
1
100
AcDbSymbolTableRecord
100
AcDbBlockTableRecord
  2
*PAPER_SPACE
  0
BLOCK_RECORD
  5
3FB10
330
1
100
AcDbSymbolTableRecord
100
AcDbBlockTableRecord
  2
*D70
  0
BLOCK_RECORD
  5
3FB27
330
1
100
AcDbSymbolTableRecord
100
AcDbBlockTableRecord
  2
*D71
  0
BLOCK_RECORD
  5
3FE93
330
1
100
AcDbSymbolTableRecord
100
AcDbBlockTableRecord
  2
*D90
  0
BLOCK_RECORD
  5
3FEAA
330
1
100
AcDbSymbolTableRecord
100
AcDbBlockTableRecord
  2
*D91
  0
BLOCK_RECORD
  5
3FECC
330
1
100
AcDbSymbolTableRecord
100
AcDbBlockTableRecord
  2
*D92
  0
BLOCK_RECORD
  5
3FEE4
330
1
100
AcDbSymbolTableRecord
100
AcDbBlockTableRecord
  2
*D93
  0
BLOCK_RECORD
  5
3FF09
330
1
100
AcDbSymbolTableRecord
100
AcDbBlockTableRecord
  2
*D94
  0
BLOCK_RECORD
  5
3FF1F
330
1
100
AcDbSymbolTableRecord
100
AcDbBlockTableRecord
  2
*D95
  0
BLOCK_RECORD
  5
3FF3E
330
1
100
AcDbSymbolTableRecord
100
AcDbBlockTableRecord
  2
*D96
  0
BLOCK_RECORD
  5
3FF5D
330
1
100
AcDbSymbolTableRecord
100
AcDbBlockTableRecord
  2
*D97
  0
BLOCK_RECORD
  5
3FF6A
330
1
100
AcDbSymbolTableRecord
100
AcDbBlockTableRecord
  2
*D98
  0
BLOCK_RECORD
  5
3FF94
330
1
100
AcDbSymbolTableRecord
100
AcDbBlockTableRecord
  2
*D99
  0
BLOCK_RECORD
  5
3FFB7
330
1
100
AcDbSymbolTableRecord
100
AcDbBlockTableRecord
  2
*D100
  0
BLOCK_RECORD
  5
3FFD1
330
1
100
AcDbSymbolTableRecord
100
AcDbBlockTableRecord
  2
*D101
  0
BLOCK_RECORD
  5
40007
330
1
100
AcDbSymbolTableRecord
100
AcDbBlockTableRecord
  2
*D102
  0
BLOCK_RECORD
  5
40047
330
1
100
AcDbSymbolTableRecord
100
AcDbBlockTableRecord
  2
*D103
  0
BLOCK_RECORD
  5
4005F
330
1
100
AcDbSymbolTableRecord
100
AcDbBlockTableRecord
  2
*D104
  0
BLOCK_RECORD
  5
4008D
330
1
100
AcDbSymbolTableRecord
100
AcDbBlockTableRecord
  2
*D105
  0
BLOCK_RECORD
  5
400A5
330
1
100
AcDbSymbolTableRecord
100
AcDbBlockTableRecord
  2
*D106
  0
BLOCK_RECORD
  5
400BD
330
1
100
AcDbSymbolTableRecord
100
AcDbBlockTableRecord
  2
*D107
  0
BLOCK_RECORD
  5
400DF
330
1
100
AcDbSymbolTableRecord
100
AcDbBlockTableRecord
  2
*D108
  0
BLOCK_RECORD
  5
400F7
330
1
100
AcDbSymbolTableRecord
100
AcDbBlockTableRecord
  2
*D109
  0
BLOCK_RECORD
  5
40119
330
1
100
AcDbSymbolTableRecord
100
AcDbBlockTableRecord
  2
*D110
  0
BLOCK_RECORD
  5
40131
330
1
100
AcDbSymbolTableRecord
100
AcDbBlockTableRecord
  2
*D111
  0
BLOCK_RECORD
  5
40153
330
1
100
AcDbSymbolTableRecord
100
AcDbBlockTableRecord
  2
*D112
  0
BLOCK_RECORD
  5
40179
330
1
100
AcDbSymbolTableRecord
100
AcDbBlockTableRecord
  2
*D113
  0
BLOCK_RECORD
  5
401A7
330
1
100
AcDbSymbolTableRecord
100
AcDbBlockTableRecord
  2
*D114
  0
ENDTAB
  0
ENDSEC
  0
SECTION
  2
BLOCKS
  0
BLOCK
  5
3
330
2
100
AcDbEntity
  8
0
100
AcDbBlockBegin
  2
*MODEL_SPACE
 70
     0
 10
0.0
 20
0.0
 30
0.0
  3
*MODEL_SPACE
  1

  0
ENDBLK
  5
9
330
2
100
AcDbEntity
  8
0
100
AcDbBlockEnd
  0
BLOCK
  5
D
330
C
100
AcDbEntity
 67
     1
  8
0
100
AcDbBlockBegin
  2
*PAPER_SPACE
 70
     0
 10
0.0
 20
0.0
 30
0.0
  3
*PAPER_SPACE
  1

  0
ENDBLK
  5
E
330
C
100
AcDbEntity
 67
     1
  8
0
100
AcDbBlockEnd
  0
BLOCK
  5
3FB1A
330
3FB10
100
AcDbEntity
  8
0
 62
     0
 48
0.05
100
AcDbBlockBegin
  2
*D70
 70
     1
 10
0.0
 20
0.0
 30
0.0
  3
*D70
  1

  0
LINE
  5
401FE
330
3FB10
100
AcDbEntity
  8
0
 62
   242
 48
0.05
100
AcDbLine
 10
824.7693861813036
 20
-189.0587317674264
 30
0.0
 11
800.8800112321495
 21
-189.0587317674264
 31
0.0
  0
LINE
  5
401FF
330
3FB10
100
AcDbEntity
  8
0
 62
   242
 48
0.05
100
AcDbLine
 10
824.7693861813036
 20
-102.058731767421
 30
0.0
 11
800.8800112321495
 21
-102.058731767421
 31
0.0
  0
LINE
  5
40200
330
3FB10
100
AcDbEntity
  8
0
 62
   242
 48
0.05
100
AcDbLine
 10
801.0600112321494
 20
-186.5587317674264
 30
0.0
 11
801.0600112321494
 21
-104.558731767421
 31
0.0
  0
SOLID
  5
40201
330
3FB10
100
AcDbEntity
  8
0
 62
   242
 48
0.05
100
AcDbTrace
 10
800.6433445654828
 20
-186.5587317674264
 30
0.0
 11
801.476677898816
 21
-186.5587317674264
 31
0.0
 12
801.0600112321494
 22
-189.0587317674264
 32
0.0
 13
801.0600112321494
 23
-189.0587317674264
 33
0.0
  0
SOLID
  5
40202
330
3FB10
100
AcDbEntity
  8
0
 62
   242
 48
0.05
100
AcDbTrace
 10
800.6433445654828
 20
-104.558731767421
 30
0.0
 11
801.476677898816
 21
-104.558731767421
 31
0.0
 12
801.0600112321494
 22
-102.058731767421
 32
0.0
 13
801.0600112321494
 23
-102.058731767421
 33
0.0
  0
MTEXT
  5
40203
330
3FB10
100
AcDbEntity
  8
0
 62
   242
 48
0.05
100
AcDbMText
 10
799.3100112321494
 20
-145.5587317674236
 30
0.0
 40
2.5
 41
0.0
 71
     5
 72
     1
  1
\A1;58
  7
ROMANT
 11
0.0000000000000001
 21
1.0
 31
0.0
1001
ACAD
1000
MTEXTBEGIN
1070
    73
1070
     1
1070
    44
1040
1.0
1070
    74
1070
     0
1000
MTEXTEND
  0
POINT
  5
40204
330
3FB10
100
AcDbEntity
  8
DEFPOINTS
 62
     0
 48
0.05
100
AcDbPoint
 10
825.3943861813036
 20
-189.0587317674264
 30
0.0
  0
POINT
  5
40205
330
3FB10
100
AcDbEntity
  8
DEFPOINTS
 62
     0
 48
0.05
100
AcDbPoint
 10
825.3943861813036
 20
-102.058731767421
 30
0.0
  0
POINT
  5
40206
330
3FB10
100
AcDbEntity
  8
DEFPOINTS
 62
     0
 48
0.05
100
AcDbPoint
 10
801.0600112321494
 20
-102.058731767421
 30
0.0
  0
ENDBLK
  5
3FB1B
330
3FB10
100
AcDbEntity
  8
0
 62
     0
 48
0.05
100
AcDbBlockEnd
  0
BLOCK
  5
3FB31
330
3FB27
100
AcDbEntity
  8
0
 62
     0
 48
0.05
100
AcDbBlockBegin
  2
*D71
 70
     1
 10
0.0
 20
0.0
 30
0.0
  3
*D71
  1

  0
LINE
  5
3FB45
330
3FB27
100
AcDbEntity
  8
0
 62
   242
 48
0.05
100
AcDbLine
 10
916.0193861813036
 20
-139.5587317674264
 30
0.0
 11
926.643851177441
 21
-139.5587317674264
 31
0.0
  0
LINE
  5
3FB46
330
3FB27
100
AcDbEntity
  8
0
 62
   242
 48
0.05
100
AcDbLine
 10
915.869386181305
 20
-69.05873176742648
 30
0.0
 11
926.643851177441
 21
-69.05873176742648
 31
0.0
  0
LINE
  5
3FB47
330
3FB27
100
AcDbEntity
  8
0
 62
   242
 48
0.05
100
AcDbLine
 10
926.4638511774411
 20
-137.0587317674264
 30
0.0
 11
926.4638511774411
 21
-71.55873176742648
 31
0.0
  0
SOLID
  5
3FB48
330
3FB27
100
AcDbEntity
  8
0
 62
   242
 48
0.05
100
AcDbTrace
 10
926.0471845107744
 20
-137.0587317674264
 30
0.0
 11
926.8805178441077
 21
-137.0587317674264
 31
0.0
 12
926.4638511774411
 22
-139.5587317674264
 32
0.0
 13
926.4638511774411
 23
-139.5587317674264
 33
0.0
  0
SOLID
  5
3FB49
330
3FB27
100
AcDbEntity
  8
0
 62
   242
 48
0.05
100
AcDbTrace
 10
926.0471845107744
 20
-71.55873176742648
 30
0.0
 11
926.8805178441077
 21
-71.55873176742648
 31
0.0
 12
926.4638511774411
 22
-69.05873176742648
 32
0.0
 13
926.4638511774411
 23
-69.05873176742648
 33
0.0
  0
MTEXT
  5
3FB4A
330
3FB27
100
AcDbEntity
  8
0
 62
   242
 48
0.05
100
AcDbMText
 10
924.713851177441
 20
-104.3087317674263
 30
0.0
 40
2.5
 41
0.0
 71
     5
 72
     1
  1
\A1;47
  7
ROMANT
 11
0.0000000000000001
 21
1.0
 31
0.0
1001
ACAD
1000
MTEXTBEGIN
1070
    73
1070
     1
1070
    44
1040
1.0
1070
    74
1070
     0
1000
MTEXTEND
  0
POINT
  5
3FB4B
330
3FB27
100
AcDbEntity
  8
DEFPOINTS
 62
     0
 48
0.05
100
AcDbPoint
 10
915.3943861813036
 20
-139.5587317674264
 30
0.0
  0
POINT
  5
3FB4C
330
3FB27
100
AcDbEntity
  8
DEFPOINTS
 62
     0
 48
0.05
100
AcDbPoint
 10
915.2443861813051
 20
-69.05873176742648
 30
0.0
  0
POINT
  5
3FB4D
330
3FB27
100
AcDbEntity
  8
DEFPOINTS
 62
     0
 48
0.05
100
AcDbPoint
 10
926.4638511774411
 20
-69.05873176742648
 30
0.0
  0
ENDBLK
  5
3FB32
330
3FB27
100
AcDbEntity
  8
0
 62
     0
 48
0.05
100
AcDbBlockEnd
  0
BLOCK
  5
3FE9E
330
3FE93
100
AcDbEntity
  8
0
 62
     0
 48
0.05
100
AcDbBlockBegin
  2
*D90
 70
     1
 10
0.0
 20
0.0
 30
0.0
  3
*D90
  1

  0
LINE
  5
3FEA0
330
3FE93
100
AcDbEntity
  8
0
 62
   242
 48
0.05
100
AcDbLine
 10
825.3943861813036
 20
-189.6837317674264
 30
0.0
 11
825.3943861813036
 21
-194.3215443000451
 31
0.0
  0
LINE
  5
3FEA1
330
3FE93
100
AcDbEntity
  8
0
 62
   242
 48
0.05
100
AcDbLine
 10
832.8943861813035
 20
-189.6837317674264
 30
0.0
 11
832.8943861813035
 21
-194.3215443000451
 31
0.0
  0
LINE
  5
3FEA2
330
3FE93
100
AcDbEntity
  8
0
 62
   242
 48
0.05
100
AcDbLine
 10
827.8943861813036
 20
-194.1415443000451
 30
0.0
 11
830.3943861813035
 21
-194.1415443000451
 31
0.0
  0
SOLID
  5
3FEA3
330
3FE93
100
AcDbEntity
  8
0
 62
   242
 48
0.05
100
AcDbTrace
 10
827.8943861813036
 20
-193.7248776333784
 30
0.0
 11
827.8943861813036
 21
-194.5582109667117
 31
0.0
 12
825.3943861813036
 22
-194.1415443000451
 32
0.0
 13
825.3943861813036
 23
-194.1415443000451
 33
0.0
  0
SOLID
  5
3FEA4
330
3FE93
100
AcDbEntity
  8
0
 62
   242
 48
0.05
100
AcDbTrace
 10
830.3943861813035
 20
-193.7248776333784
 30
0.0
 11
830.3943861813035
 21
-194.5582109667117
 31
0.0
 12
832.8943861813035
 22
-194.1415443000451
 32
0.0
 13
832.8943861813035
 23
-194.1415443000451
 33
0.0
  0
MTEXT
  5
3FEA5
330
3FE93
100
AcDbEntity
  8
0
 62
   242
 48
0.05
100
AcDbMText
 10
829.1443861813036
 20
-192.3915443000451
 30
0.0
 40
2.5
 41
0.0
 71
     5
 72
     1
  1
\A1;5
  7
ROMANT
1001
ACAD
1000
MTEXTBEGIN
1070
    73
1070
     1
1070
    44
1040
1.0
1070
    74
1070
     0
1000
MTEXTEND
  0
POINT
  5
3FEA6
330
3FE93
100
AcDbEntity
  8
DEFPOINTS
 62
     0
 48
0.05
100
AcDbPoint
 10
825.3943861813036
 20
-189.0587317674264
 30
0.0
  0
POINT
  5
3FEA7
330
3FE93
100
AcDbEntity
  8
DEFPOINTS
 62
     0
 48
0.05
100
AcDbPoint
 10
832.8943861813035
 20
-189.0587317674264
 30
0.0
  0
POINT
  5
3FEA8
330
3FE93
100
AcDbEntity
  8
DEFPOINTS
 62
     0
 48
0.05
100
AcDbPoint
 10
832.8943861813035
 20
-194.1415443000451
 30
0.0
  0
ENDBLK
  5
3FE9F
330
3FE93
100
AcDbEntity
  8
0
 62
     0
 48
0.05
100
AcDbBlockEnd
  0
BLOCK
  5
3FEB5
330
3FEAA
100
AcDbEntity
  8
0
 62
     0
 48
0.05
100
AcDbBlockBegin
  2
*D91
 70
     1
 10
0.0
 20
0.0
 30
0.0
  3
*D91
  1

  0
LINE
  5
3FEC1
330
3FEAA
100
AcDbEntity
  8
0
 62
   242
 48
0.05
100
AcDbLine
 10
833.5193861813035
 20
-189.0587317674264
 30
0.0
 11
840.6480285992653
 21
-189.0587317674264
 31
0.0
  0
LINE
  5
3FEC2
330
3FEAA
100
AcDbEntity
  8
0
 62
   242
 48
0.05
100
AcDbLine
 10
832.6193861813058
 20
-185.3087317674265
 30
0.0
 11
840.6480285992653
 21
-185.3087317674265
 31
0.0
  0
LINE
  5
3FEC3
330
3FEAA
100
AcDbEntity
  8
0
 62
   242
 48
0.05
100
AcDbLine
 10
840.4680285992654
 20
-182.8087317674265
 30
0.0
 11
840.4680285992654
 21
-180.3087317674265
 31
0.0
  0
LINE
  5
3FEC4
330
3FEAA
100
AcDbEntity
  8
0
 62
   242
 48
0.05
100
AcDbLine
 10
840.4680285992654
 20
-191.5587317674264
 30
0.0
 11
840.4680285992654
 21
-200.8476523675519
 31
0.0
  0
SOLID
  5
3FEC5
330
3FEAA
100
AcDbEntity
  8
0
 62
   242
 48
0.05
100
AcDbTrace
 10
840.0513619325987
 20
-182.8087317674265
 30
0.0
 11
840.884695265932
 21
-182.8087317674265
 31
0.0
 12
840.4680285992654
 22
-185.3087317674265
 32
0.0
 13
840.4680285992654
 23
-185.3087317674265
 33
0.0
  0
SOLID
  5
3FEC6
330
3FEAA
100
AcDbEntity
  8
0
 62
   242
 48
0.05
100
AcDbTrace
 10
840.0513619325987
 20
-191.5587317674264
 30
0.0
 11
840.884695265932
 21
-191.5587317674264
 31
0.0
 12
840.4680285992654
 22
-189.0587317674264
 32
0.0
 13
840.4680285992654
 23
-189.0587317674264
 33
0.0
  0
MTEXT
  5
3FEC7
330
3FEAA
100
AcDbEntity
  8
0
 62
   242
 48
0.05
100
AcDbMText
 10
838.7180285992654
 20
-197.453192067489
 30
0.0
 40
2.5
 41
0.0
 71
     5
 72
     1
  1
\A1;2.5
  7
ROMANT
 11
0.0000000000000001
 21
1.0
 31
0.0
1001
ACAD
1000
MTEXTBEGIN
1070
    73
1070
     1
1070
    44
1040
1.0
1070
    74
1070
     0
1000
MTEXTEND
  0
POINT
  5
3FEC8
330
3FEAA
100
AcDbEntity
  8
DEFPOINTS
 62
     0
 48
0.05
100
AcDbPoint
 10
832.8943861813035
 20
-189.0587317674264
 30
0.0
  0
POINT
  5
3FEC9
330
3FEAA
100
AcDbEntity
  8
DEFPOINTS
 62
     0
 48
0.05
100
AcDbPoint
 10
831.9943861813058
 20
-185.3087317674264
 30
0.0
  0
POINT
  5
3FECA
330
3FEAA
100
AcDbEntity
  8
DEFPOINTS
 62
     0
 48
0.05
100
AcDbPoint
 10
840.4680285992654
 20
-185.3087317674265
 30
0.0
  0
ENDBLK
  5
3FEB6
330
3FEAA
100
AcDbEntity
  8
0
 62
     0
 48
0.05
100
AcDbBlockEnd
  0
BLOCK
  5
3FED7
330
3FECC
100
AcDbEntity
  8
0
 62
     0
 48
0.05
100
AcDbBlockBegin
  2
*D92
 70
     1
 10
0.0
 20
0.0
 30
0.0
  3
*D92
  1

  0
LINE
  5
3FED9
330
3FECC
100
AcDbEntity
  8
0
 62
   242
 48
0.05
100
AcDbLine
 10
832.6193861813058
 20
-181.5587317674265
 30
0.0
 11
840.6480285992653
 21
-181.5587317674265
 31
0.0
  0
LINE
  5
3FEDA
330
3FECC
100
AcDbEntity
  8
0
 62
   242
 48
0.05
100
AcDbLine
 10
833.5193861813035
 20
-177.8087317674264
 30
0.0
 11
840.6480285992653
 21
-177.8087317674264
 31
0.0
  0
LINE
  5
3FEDB
330
3FECC
100
AcDbEntity
  8
0
 62
   242
 48
0.05
100
AcDbLine
 10
840.4680285992654
 20
-184.0587317674265
 30
0.0
 11
840.4680285992654
 21
-186.5587317674265
 31
0.0
  0
LINE
  5
3FEDC
330
3FECC
100
AcDbEntity
  8
0
 62
   242
 48
0.05
100
AcDbLine
 10
840.4680285992654
 20
-175.3087317674264
 30
0.0
 11
840.4680285992654
 21
-166.019811167301
 31
0.0
  0
SOLID
  5
3FEDD
330
3FECC
100
AcDbEntity
  8
0
 62
   242
 48
0.05
100
AcDbTrace
 10
840.0513619325987
 20
-184.0587317674265
 30
0.0
 11
840.884695265932
 21
-184.0587317674265
 31
0.0
 12
840.4680285992654
 22
-181.5587317674265
 32
0.0
 13
840.4680285992654
 23
-181.5587317674265
 33
0.0
  0
SOLID
  5
3FEDE
330
3FECC
100
AcDbEntity
  8
0
 62
   242
 48
0.05
100
AcDbTrace
 10
840.0513619325987
 20
-175.3087317674264
 30
0.0
 11
840.884695265932
 21
-175.3087317674264
 31
0.0
 12
840.4680285992654
 22
-177.8087317674264
 32
0.0
 13
840.4680285992654
 23
-177.8087317674264
 33
0.0
  0
MTEXT
  5
3FEDF
330
3FECC
100
AcDbEntity
  8
0
 62
   242
 48
0.05
100
AcDbMText
 10
838.7180285992654
 20
-169.4142714673636
 30
0.0
 40
2.5
 41
0.0
 71
     5
 72
     1
  1
\A1;2.5
  7
ROMANT
 11
0.0000000000000001
 21
1.0
 31
0.0
1001
ACAD
1000
MTEXTBEGIN
1070
    73
1070
     1
1070
    44
1040
1.0
1070
    74
1070
     0
1000
MTEXTEND
  0
POINT
  5
3FEE0
330
3FECC
100
AcDbEntity
  8
DEFPOINTS
 62
     0
 48
0.05
100
AcDbPoint
 10
831.9943861813058
 20
-181.5587317674264
 30
0.0
  0
POINT
  5
3FEE1
330
3FECC
100
AcDbEntity
  8
DEFPOINTS
 62
     0
 48
0.05
100
AcDbPoint
 10
832.8943861813035
 20
-177.8087317674264
 30
0.0
  0
POINT
  5
3FEE2
330
3FECC
100
AcDbEntity
  8
DEFPOINTS
 62
     0
 48
0.05
100
AcDbPoint
 10
840.4680285992654
 20
-177.8087317674264
 30
0.0
  0
ENDBLK
  5
3FED8
330
3FECC
100
AcDbEntity
  8
0
 62
     0
 48
0.05
100
AcDbBlockEnd
  0
BLOCK
  5
3FEEF
330
3FEE4
100
AcDbEntity
  8
0
 62
     0
 48
0.05
100
AcDbBlockBegin
  2
*D93
 70
     1
 10
0.0
 20
0.0
 30
0.0
  3
*D93
  1

  0
LINE
  5
3FEFA
330
3FEE4
100
AcDbEntity
  8
0
 62
   242
 48
0.05
100
AcDbLine
 10
832.0193861813036
 20
-186.8087317674265
 30
0.0
 11
848.6556701889695
 21
-186.8087317674265
 31
0.0
  0
LINE
  5
3FEFB
330
3FEE4
100
AcDbEntity
  8
0
 62
   242
 48
0.05
100
AcDbLine
 10
832.0193861813036
 20
-180.0587317674265
 30
0.0
 11
848.6556701889695
 21
-180.0587317674265
 31
0.0
  0
LINE
  5
3FEFC
330
3FEE4
100
AcDbEntity
  8
0
 62
   242
 48
0.05
100
AcDbLine
 10
848.4756701889695
 20
-184.3087317674265
 30
0.0
 11
848.4756701889695
 21
-182.5587317674265
 31
0.0
  0
LINE
  5
3FEFD
330
3FEE4
100
AcDbEntity
  8
0
 62
   242
 48
0.05
100
AcDbLine
 10
848.4756701889695
 20
-180.0587317674265
 30
0.0
 11
848.4756701889695
 21
-159.4135843999899
 31
0.0
  0
SOLID
  5
3FEFE
330
3FEE4
100
AcDbEntity
  8
0
 62
   242
 48
0.05
100
AcDbTrace
 10
848.0590035223029
 20
-184.3087317674265
 30
0.0
 11
848.8923368556362
 21
-184.3087317674265
 31
0.0
 12
848.4756701889695
 22
-186.8087317674265
 32
0.0
 13
848.4756701889695
 23
-186.8087317674265
 33
0.0
  0
SOLID
  5
3FEFF
330
3FEE4
100
AcDbEntity
  8
0
 62
   242
 48
0.05
100
AcDbTrace
 10
848.0590035223029
 20
-182.5587317674265
 30
0.0
 11
848.8923368556362
 21
-182.5587317674265
 31
0.0
 12
848.4756701889695
 22
-180.0587317674265
 32
0.0
 13
848.4756701889695
 23
-180.0587317674265
 33
0.0
  0
MTEXT
  5
3FF00
330
3FEE4
100
AcDbEntity
  8
0
 62
   242
 48
0.05
100
AcDbMText
 10
846.7256701889695
 20
-168.4861580837081
 30
0.0
 40
2.5
 41
0.0
 71
     5
 72
     1
  1
\A1;4.5±0.15
  7
ROMANT
 11
0.0000000000000001
 21
1.0
 31
0.0
1001
ACAD
1000
MTEXTBEGIN
1070
    73
1070
     1
1070
    44
1040
1.0
1070
    74
1070
     0
1000
MTEXTEND
  0
POINT
  5
3FF01
330
3FEE4
100
AcDbEntity
  8
DEFPOINTS
 62
     0
 48
0.05
100
AcDbPoint
 10
831.3943861813037
 20
-186.8087317674264
 30
0.0
  0
POINT
  5
3FF02
330
3FEE4
100
AcDbEntity
  8
DEFPOINTS
 62
     0
 48
0.05
100
AcDbPoint
 10
831.3943861813037
 20
-180.0587317674264
 30
0.0
  0
POINT
  5
3FF03
330
3FEE4
100
AcDbEntity
  8
DEFPOINTS
 62
     0
 48
0.05
100
AcDbPoint
 10
848.4756701889695
 20
-180.0587317674265
 30
0.0
  0
ENDBLK
  5
3FEF0
330
3FEE4
100
AcDbEntity
  8
0
 62
     0
 48
0.05
100
AcDbBlockEnd
  0
BLOCK
  5
3FF13
330
3FF09
100
AcDbEntity
  8
0
 62
     0
 48
0.05
100
AcDbBlockBegin
  2
*D94
 70
     1
 10
0.0
 20
0.0
 30
0.0
  3
*D94
  1

  0
LINE
  5
3FF15
330
3FF09
100
AcDbEntity
  8
0
 62
   242
 48
0.05
100
AcDbLine
 10
916.0193861813036
 20
-139.5587317674264
 30
0.0
 11
926.8238511774409
 21
-139.5587317674264
 31
0.0
  0
LINE
  5
3FF16
330
3FF09
100
AcDbEntity
  8
0
 62
   242
 48
0.05
100
AcDbLine
 10
908.0693861813101
 20
-153.0587317674264
 30
0.0
 11
926.8238511774409
 21
-153.0587317674264
 31
0.0
  0
LINE
  5
3FF17
330
3FF09
100
AcDbEntity
  8
0
 62
   242
 48
0.05
100
AcDbLine
 10
926.643851177441
 20
-142.0587317674264
 30
0.0
 11
926.643851177441
 21
-150.5587317674264
 31
0.0
  0
SOLID
  5
3FF18
330
3FF09
100
AcDbEntity
  8
0
 62
   242
 48
0.05
100
AcDbTrace
 10
926.2271845107743
 20
-142.0587317674264
 30
0.0
 11
927.0605178441076
 21
-142.0587317674264
 31
0.0
 12
926.643851177441
 22
-139.5587317674264
 32
0.0
 13
926.643851177441
 23
-139.5587317674264
 33
0.0
  0
SOLID
  5
3FF19
330
3FF09
100
AcDbEntity
  8
0
 62
   242
 48
0.05
100
AcDbTrace
 10
926.2271845107743
 20
-150.5587317674264
 30
0.0
 11
927.0605178441076
 21
-150.5587317674264
 31
0.0
 12
926.643851177441
 22
-153.0587317674264
 32
0.0
 13
926.643851177441
 23
-153.0587317674264
 33
0.0
  0
MTEXT
  5
3FF1A
330
3FF09
100
AcDbEntity
  8
0
 62
   242
 48
0.05
100
AcDbMText
 10
924.893851177441
 20
-146.3087317674263
 30
0.0
 40
2.5
 41
0.0
 71
     5
 72
     1
  1
\A1;9
  7
ROMANT
 11
0.0000000000000001
 21
1.0
 31
0.0
1001
ACAD
1000
MTEXTBEGIN
1070
    73
1070
     1
1070
    44
1040
1.0
1070
    74
1070
     0
1000
MTEXTEND
  0
POINT
  5
3FF1B
330
3FF09
100
AcDbEntity
  8
DEFPOINTS
 62
     0
 48
0.05
100
AcDbPoint
 10
915.3943861813036
 20
-139.5587317674264
 30
0.0
  0
POINT
  5
3FF1C
330
3FF09
100
AcDbEntity
  8
DEFPOINTS
 62
     0
 48
0.05
100
AcDbPoint
 10
907.4443861813101
 20
-153.0587317674264
 30
0.0
  0
POINT
  5
3FF1D
330
3FF09
100
AcDbEntity
  8
DEFPOINTS
 62
     0
 48
0.05
100
AcDbPoint
 10
926.643851177441
 20
-153.0587317674264
 30
0.0
  0
ENDBLK
  5
3FF14
330
3FF09
100
AcDbEntity
  8
0
 62
     0
 48
0.05
100
AcDbBlockEnd
  0
BLOCK
  5
3FF29
330
3FF1F
100
AcDbEntity
  8
0
 62
     0
 48
0.05
100
AcDbBlockBegin
  2
*D95
 70
     1
 10
0.0
 20
0.0
 30
0.0
  3
*D95
  1

  0
LINE
  5
3FF34
330
3FF1F
100
AcDbEntity
  8
0
 62
   242
 48
0.05
100
AcDbLine
 10
915.869386181305
 20
-69.05873176742648
 30
0.0
 11
933.6126268393574
 21
-69.05873176742649
 31
0.0
  0
LINE
  5
3FF35
330
3FF1F
100
AcDbEntity
  8
0
 62
   242
 48
0.05
100
AcDbLine
 10
908.0693861813101
 20
-153.0587317674264
 30
0.0
 11
933.6126268393574
 21
-153.0587317674264
 31
0.0
  0
LINE
  5
3FF36
330
3FF1F
100
AcDbEntity
  8
0
 62
   242
 48
0.05
100
AcDbLine
 10
933.4326268393574
 20
-71.55873176742649
 30
0.0
 11
933.4326268393574
 21
-150.5587317674264
 31
0.0
  0
SOLID
  5
3FF37
330
3FF1F
100
AcDbEntity
  8
0
 62
   242
 48
0.05
100
AcDbTrace
 10
933.0159601726908
 20
-71.55873176742649
 30
0.0
 11
933.8492935060241
 21
-71.55873176742649
 31
0.0
 12
933.4326268393574
 22
-69.05873176742649
 32
0.0
 13
933.4326268393574
 23
-69.05873176742649
 33
0.0
  0
SOLID
  5
3FF38
330
3FF1F
100
AcDbEntity
  8
0
 62
   242
 48
0.05
100
AcDbTrace
 10
933.0159601726908
 20
-150.5587317674264
 30
0.0
 11
933.8492935060241
 21
-150.5587317674264
 31
0.0
 12
933.4326268393574
 22
-153.0587317674264
 32
0.0
 13
933.4326268393574
 23
-153.0587317674264
 33
0.0
  0
MTEXT
  5
3FF39
330
3FF1F
100
AcDbEntity
  8
0
 62
   242
 48
0.05
100
AcDbMText
 10
931.6826268393574
 20
-111.0587317674263
 30
0.0
 40
2.5
 41
0.0
 71
     5
 72
     1
  1
\A1;56
  7
ROMANT
 11
0.0000000000000001
 21
1.0
 31
0.0
1001
ACAD
1000
MTEXTBEGIN
1070
    73
1070
     1
1070
    44
1040
1.0
1070
    74
1070
     0
1000
MTEXTEND
  0
POINT
  5
3FF3A
330
3FF1F
100
AcDbEntity
  8
DEFPOINTS
 62
     0
 48
0.05
100
AcDbPoint
 10
915.2443861813051
 20
-69.05873176742648
 30
0.0
  0
POINT
  5
3FF3B
330
3FF1F
100
AcDbEntity
  8
DEFPOINTS
 62
     0
 48
0.05
100
AcDbPoint
 10
907.4443861813101
 20
-153.0587317674264
 30
0.0
  0
POINT
  5
3FF3C
330
3FF1F
100
AcDbEntity
  8
DEFPOINTS
 62
     0
 48
0.05
100
AcDbPoint
 10
933.4326268393574
 20
-153.0587317674264
 30
0.0
  0
ENDBLK
  5
3FF2A
330
3FF1F
100
AcDbEntity
  8
0
 62
     0
 48
0.05
100
AcDbBlockEnd
  0
BLOCK
  5
3FF48
330
3FF3E
100
AcDbEntity
  8
0
 62
     0
 48
0.05
100
AcDbBlockBegin
  2
*D96
 70
     1
 10
0.0
 20
0.0
 30
0.0
  3
*D96
  1

  0
LINE
  5
3FF53
330
3FF3E
100
AcDbEntity
  8
0
 62
   242
 48
0.05
100
AcDbLine
 10
825.3943861813036
 20
-101.433731767421
 30
0.0
 11
825.3943861813036
 21
-94.63239862058873
 31
0.0
  0
LINE
  5
3FF54
330
3FF3E
100
AcDbEntity
  8
0
 62
   242
 48
0.05
100
AcDbLine
 10
846.3943861813035
 20
-103.6837317674264
 30
0.0
 11
846.3943861813035
 21
-94.63239862058873
 31
0.0
  0
LINE
  5
3FF55
330
3FF3E
100
AcDbEntity
  8
0
 62
   242
 48
0.05
100
AcDbLine
 10
827.8943861813036
 20
-94.81239862058874
 30
0.0
 11
843.8943861813037
 21
-94.81239862058874
 31
0.0
  0
SOLID
  5
3FF56
330
3FF3E
100
AcDbEntity
  8
0
 62
   242
 48
0.05
100
AcDbTrace
 10
827.8943861813036
 20
-94.39573195392206
 30
0.0
 11
827.8943861813036
 21
-95.2290652872554
 31
0.0
 12
825.3943861813036
 22
-94.81239862058874
 32
0.0
 13
825.3943861813036
 23
-94.81239862058874
 33
0.0
  0
SOLID
  5
3FF57
330
3FF3E
100
AcDbEntity
  8
0
 62
   242
 48
0.05
100
AcDbTrace
 10
843.8943861813037
 20
-94.39573195392206
 30
0.0
 11
843.8943861813037
 21
-95.2290652872554
 31
0.0
 12
846.3943861813035
 22
-94.81239862058874
 32
0.0
 13
846.3943861813035
 23
-94.81239862058874
 33
0.0
  0
MTEXT
  5
3FF58
330
3FF3E
100
AcDbEntity
  8
0
 62
   242
 48
0.05
100
AcDbMText
 10
835.8943861813036
 20
-93.06239862058873
 30
0.0
 40
2.5
 41
0.0
 71
     5
 72
     1
  1
\A1;14
  7
ROMANT
1001
ACAD
1000
MTEXTBEGIN
1070
    73
1070
     1
1070
    44
1040
1.0
1070
    74
1070
     0
1000
MTEXTEND
  0
POINT
  5
3FF59
330
3FF3E
100
AcDbEntity
  8
DEFPOINTS
 62
     0
 48
0.05
100
AcDbPoint
 10
825.3943861813036
 20
-102.058731767421
 30
0.0
  0
POINT
  5
3FF5A
330
3FF3E
100
AcDbEntity
  8
DEFPOINTS
 62
     0
 48
0.05
100
AcDbPoint
 10
846.3943861813035
 20
-104.3087317674264
 30
0.0
  0
POINT
  5
3FF5B
330
3FF3E
100
AcDbEntity
  8
DEFPOINTS
 62
     0
 48
0.05
100
AcDbPoint
 10
846.3943861813035
 20
-94.81239862058874
 30
0.0
  0
ENDBLK
  5
3FF49
330
3FF3E
100
AcDbEntity
  8
0
 62
     0
 48
0.05
100
AcDbBlockEnd
  0
BLOCK
  5
3FF67
330
3FF5D
100
AcDbEntity
  8
0
 62
     0
 48
0.05
100
AcDbBlockBegin
  2
*D97
 70
     1
 10
0.0
 20
0.0
 30
0.0
  3
*D97
  1

  0
LINE
  5
3FFFD
330
3FF5D
100
AcDbEntity
  8
0
 62
   242
 48
0.05
100
AcDbLine
 10
846.3943861813035
 20
-103.6837317674264
 30
0.0
 11
846.3943861813035
 21
-94.63239862058873
 31
0.0
  0
LINE
  5
3FFFE
330
3FF5D
100
AcDbEntity
  8
0
 62
   242
 48
0.05
100
AcDbLine
 10
867.3943861813036
 20
-103.6837317674264
 30
0.0
 11
867.3943861813036
 21
-94.63239862058873
 31
0.0
  0
LINE
  5
3FFFF
330
3FF5D
100
AcDbEntity
  8
0
 62
   242
 48
0.05
100
AcDbLine
 10
848.8943861813035
 20
-94.81239862058874
 30
0.0
 11
864.8943861813036
 21
-94.81239862058874
 31
0.0
  0
SOLID
  5
40000
330
3FF5D
100
AcDbEntity
  8
0
 62
   242
 48
0.05
100
AcDbTrace
 10
848.8943861813035
 20
-94.39573195392206
 30
0.0
 11
848.8943861813035
 21
-95.2290652872554
 31
0.0
 12
846.3943861813035
 22
-94.81239862058874
 32
0.0
 13
846.3943861813035
 23
-94.81239862058874
 33
0.0
  0
SOLID
  5
40001
330
3FF5D
100
AcDbEntity
  8
0
 62
   242
 48
0.05
100
AcDbTrace
 10
864.8943861813036
 20
-94.39573195392206
 30
0.0
 11
864.8943861813036
 21
-95.2290652872554
 31
0.0
 12
867.3943861813036
 22
-94.81239862058874
 32
0.0
 13
867.3943861813036
 23
-94.81239862058874
 33
0.0
  0
MTEXT
  5
40002
330
3FF5D
100
AcDbEntity
  8
0
 62
   242
 48
0.05
100
AcDbMText
 10
856.8943861813036
 20
-93.06239862058873
 30
0.0
 40
2.5
 41
0.0
 71
     5
 72
     1
  1
\A1;14±0.2
  7
ROMANT
1001
ACAD
1000
MTEXTBEGIN
1070
    73
1070
     1
1070
    44
1040
1.0
1070
    74
1070
     0
1000
MTEXTEND
  0
POINT
  5
40003
330
3FF5D
100
AcDbEntity
  8
DEFPOINTS
 62
     0
 48
0.05
100
AcDbPoint
 10
846.3943861813035
 20
-104.3087317674264
 30
0.0
  0
POINT
  5
40004
330
3FF5D
100
AcDbEntity
  8
DEFPOINTS
 62
     0
 48
0.05
100
AcDbPoint
 10
867.3943861813036
 20
-104.3087317674264
 30
0.0
  0
POINT
  5
40005
330
3FF5D
100
AcDbEntity
  8
DEFPOINTS
 62
     0
 48
0.05
100
AcDbPoint
 10
867.3943861813036
 20
-94.81239862058874
 30
0.0
  0
ENDBLK
  5
3FF68
330
3FF5D
100
AcDbEntity
  8
0
 62
     0
 48
0.05
100
AcDbBlockEnd
  0
BLOCK
  5
3FF75
330
3FF6A
100
AcDbEntity
  8
0
 62
     0
 48
0.05
100
AcDbBlockBegin
  2
*D98
 70
     1
 10
0.0
 20
0.0
 30
0.0
  3
*D98
  1

  0
LINE
  5
3FF80
330
3FF6A
100
AcDbEntity
  8
0
 62
   242
 48
0.05
100
AcDbLine
 10
867.3943861813036
 20
-103.6837317674264
 30
0.0
 11
867.3943861813036
 21
-94.63239862058873
 31
0.0
  0
LINE
  5
3FF81
330
3FF6A
100
AcDbEntity
  8
0
 62
   242
 48
0.05
100
AcDbLine
 10
873.3943861813036
 20
-101.4337317674264
 30
0.0
 11
873.3943861813036
 21
-94.63239862058873
 31
0.0
  0
LINE
  5
3FF82
330
3FF6A
100
AcDbEntity
  8
0
 62
   242
 48
0.05
100
AcDbLine
 10
864.8943861813036
 20
-94.81239862058874
 30
0.0
 11
862.3943861813035
 21
-94.81239862058874
 31
0.0
  0
LINE
  5
3FF83
330
3FF6A
100
AcDbEntity
  8
0
 62
   242
 48
0.05
100
AcDbLine
 10
875.8943861813035
 20
-94.81239862058874
 30
0.0
 11
878.3943861813035
 21
-94.81239862058874
 31
0.0
  0
SOLID
  5
3FF84
330
3FF6A
100
AcDbEntity
  8
0
 62
   242
 48
0.05
100
AcDbTrace
 10
864.8943861813036
 20
-94.39573195392206
 30
0.0
 11
864.8943861813036
 21
-95.2290652872554
 31
0.0
 12
867.3943861813036
 22
-94.81239862058874
 32
0.0
 13
867.3943861813036
 23
-94.81239862058874
 33
0.0
  0
SOLID
  5
3FF85
330
3FF6A
100
AcDbEntity
  8
0
 62
   242
 48
0.05
100
AcDbTrace
 10
875.8943861813035
 20
-94.39573195392206
 30
0.0
 11
875.8943861813035
 21
-95.2290652872554
 31
0.0
 12
873.3943861813036
 22
-94.81239862058874
 32
0.0
 13
873.3943861813036
 23
-94.81239862058874
 33
0.0
  0
MTEXT
  5
3FF86
330
3FF6A
100
AcDbEntity
  8
0
 62
   242
 48
0.05
100
AcDbMText
 10
870.3943861813035
 20
-93.06239862058873
 30
0.0
 40
2.5
 41
0.0
 71
     5
 72
     1
  1
\A1;4
  7
ROMANT
1001
ACAD
1000
MTEXTBEGIN
1070
    73
1070
     1
1070
    44
1040
1.0
1070
    74
1070
     0
1000
MTEXTEND
  0
POINT
  5
3FF87
330
3FF6A
100
AcDbEntity
  8
DEFPOINTS
 62
     0
 48
0.05
100
AcDbPoint
 10
867.3943861813036
 20
-104.3087317674264
 30
0.0
  0
POINT
  5
3FF88
330
3FF6A
100
AcDbEntity
  8
DEFPOINTS
 62
     0
 48
0.05
100
AcDbPoint
 10
873.3943861813036
 20
-102.0587317674264
 30
0.0
  0
POINT
  5
3FF89
330
3FF6A
100
AcDbEntity
  8
DEFPOINTS
 62
     0
 48
0.05
100
AcDbPoint
 10
873.3943861813036
 20
-94.81239862058874
 30
0.0
  0
ENDBLK
  5
3FF76
330
3FF6A
100
AcDbEntity
  8
0
 62
     0
 48
0.05
100
AcDbBlockEnd
  0
BLOCK
  5
3FF9E
330
3FF94
100
AcDbEntity
  8
0
 62
     0
 48
0.05
100
AcDbBlockBegin
  2
*D99
 70
     1
 10
0.0
 20
0.0
 30
0.0
  3
*D99
  1

  0
LINE
  5
40207
330
3FF94
100
AcDbEntity
  8
0
 62
   242
 48
0.05
100
AcDbLine
 10
847.3148257317884
 20
-153.3587317674221
 30
0.0
 11
814.8501449656249
 21
-153.358731767422
 31
0.0
  0
LINE
  5
40208
330
3FF94
100
AcDbEntity
  8
0
 62
   242
 48
0.05
100
AcDbLine
 10
844.2693861813037
 20
-112.8587317674275
 30
0.0
 11
814.8501449656249
 21
-112.8587317674275
 31
0.0
  0
LINE
  5
40209
330
3FF94
100
AcDbEntity
  8
0
 62
   242
 48
0.05
100
AcDbLine
 10
815.0301449656248
 20
-150.858731767422
 30
0.0
 11
815.0301449656248
 21
-115.3587317674275
 31
0.0
  0
SOLID
  5
4020A
330
3FF94
100
AcDbEntity
  8
0
 62
   242
 48
0.05
100
AcDbTrace
 10
814.6134782989582
 20
-150.858731767422
 30
0.0
 11
815.4468116322915
 21
-150.858731767422
 31
0.0
 12
815.0301449656248
 22
-153.358731767422
 32
0.0
 13
815.0301449656248
 23
-153.358731767422
 33
0.0
  0
SOLID
  5
4020B
330
3FF94
100
AcDbEntity
  8
0
 62
   242
 48
0.05
100
AcDbTrace
 10
814.6134782989582
 20
-115.3587317674275
 30
0.0
 11
815.4468116322915
 21
-115.3587317674275
 31
0.0
 12
815.0301449656248
 22
-112.8587317674275
 32
0.0
 13
815.0301449656248
 23
-112.8587317674275
 33
0.0
  0
MTEXT
  5
4020C
330
3FF94
100
AcDbEntity
  8
0
 62
   242
 48
0.05
100
AcDbMText
 10
813.2801449656248
 20
-133.1087317674247
 30
0.0
 40
2.5
 41
0.0
 71
     5
 72
     1
  1
\A1;27±0.2
  7
ROMANT
 11
0.0000000000000001
 21
1.0
 31
0.0
1001
ACAD
1000
MTEXTBEGIN
1070
    73
1070
     1
1070
    44
1040
1.0
1070
    74
1070
     0
1000
MTEXTEND
  0
POINT
  5
4020D
330
3FF94
100
AcDbEntity
  8
DEFPOINTS
 62
     0
 48
0.05
100
AcDbPoint
 10
847.9398257317884
 20
-153.3587317674221
 30
0.0
  0
POINT
  5
4020E
330
3FF94
100
AcDbEntity
  8
DEFPOINTS
 62
     0
 48
0.05
100
AcDbPoint
 10
844.8943861813036
 20
-112.8587317674275
 30
0.0
  0
POINT
  5
4020F
330
3FF94
100
AcDbEntity
  8
DEFPOINTS
 62
     0
 48
0.05
100
AcDbPoint
 10
815.0301449656248
 20
-112.8587317674275
 30
0.0
  0
ENDBLK
  5
3FF9F
330
3FF94
100
AcDbEntity
  8
0
 62
     0
 48
0.05
100
AcDbBlockEnd
  0
BLOCK
  5
3FFC1
330
3FFB7
100
AcDbEntity
  8
0
 62
     0
 48
0.05
100
AcDbBlockBegin
  2
*D100
 70
     1
 10
0.0
 20
0.0
 30
0.0
  3
*D100
  1

  0
LINE
  5
3FFC3
330
3FFB7
100
AcDbEntity
  8
0
 62
   242
 48
0.05
100
AcDbLine
 10
896.1068861818853
 20
-150.3587317674221
 30
0.0
 11
896.1216868068529
 21
-150.3587317674221
 31
0.0
  0
LINE
  5
3FFC4
330
3FFB7
100
AcDbEntity
  8
0
 62
   242
 48
0.05
100
AcDbLine
 10
895.8068861818787
 20
-111.6587317674232
 30
0.0
 11
896.1216868068529
 21
-111.6587317674232
 31
0.0
  0
LINE
  5
3FFC5
330
3FFB7
100
AcDbEntity
  8
0
 62
   242
 48
0.05
100
AcDbLine
 10
895.9416868068528
 20
-147.8587317674221
 30
0.0
 11
895.9416868068528
 21
-114.1587317674232
 31
0.0
  0
SOLID
  5
3FFC6
330
3FFB7
100
AcDbEntity
  8
0
 62
   242
 48
0.05
100
AcDbTrace
 10
895.5250201401863
 20
-147.8587317674221
 30
0.0
 11
896.3583534735194
 21
-147.8587317674221
 31
0.0
 12
895.9416868068528
 22
-150.3587317674221
 32
0.0
 13
895.9416868068528
 23
-150.3587317674221
 33
0.0
  0
SOLID
  5
3FFC7
330
3FFB7
100
AcDbEntity
  8
0
 62
   242
 48
0.05
100
AcDbTrace
 10
895.5250201401863
 20
-114.1587317674232
 30
0.0
 11
896.3583534735194
 21
-114.1587317674232
 31
0.0
 12
895.9416868068528
 22
-111.6587317674232
 32
0.0
 13
895.9416868068528
 23
-111.6587317674232
 33
0.0
  0
MTEXT
  5
3FFC8
330
3FFB7
100
AcDbEntity
  8
0
 62
   242
 48
0.05
100
AcDbMText
 10
894.1916868068529
 20
-131.0087317674225
 30
0.0
 40
2.5
 41
0.0
 71
     5
 72
     1
  1
\A1;25.8±0.2
  7
ROMANT
 11
0.0000000000000001
 21
1.0
 31
0.0
1001
ACAD
1000
MTEXTBEGIN
1070
    73
1070
     1
1070
    44
1040
1.0
1070
    74
1070
     0
1000
MTEXTEND
  0
POINT
  5
3FFC9
330
3FFB7
100
AcDbEntity
  8
DEFPOINTS
 62
     0
 48
0.05
100
AcDbPoint
 10
895.4818861818854
 20
-150.3587317674221
 30
0.0
  0
POINT
  5
3FFCA
330
3FFB7
100
AcDbEntity
  8
DEFPOINTS
 62
     0
 48
0.05
100
AcDbPoint
 10
895.1818861818788
 20
-111.6587317674232
 30
0.0
  0
POINT
  5
3FFCB
330
3FFB7
100
AcDbEntity
  8
DEFPOINTS
 62
     0
 48
0.05
100
AcDbPoint
 10
895.9416868068528
 20
-111.6587317674232
 30
0.0
  0
ENDBLK
  5
3FFC2
330
3FFB7
100
AcDbEntity
  8
0
 62
     0
 48
0.05
100
AcDbBlockEnd
  0
BLOCK
  5
3FFDC
330
3FFD1
100
AcDbEntity
  8
0
 62
     0
 48
0.05
100
AcDbBlockBegin
  2
*D101
 70
     1
 10
0.0
 20
0.0
 30
0.0
  3
*D101
  1

  0
LINE
  5
3FFF2
330
3FFD1
100
AcDbEntity
  8
0
 62
   242
 48
0.05
100
AcDbLine
 10
881.2845696107181
 20
-111.6587317674232
 30
0.0
 11
882.4315567684154
 21
-111.6587317674232
 31
0.0
  0
LINE
  5
3FFF3
330
3FFD1
100
AcDbEntity
  8
0
 62
   242
 48
0.05
100
AcDbLine
 10
881.2845696107181
 20
-109.558731767421
 30
0.0
 11
882.4315567684154
 21
-109.558731767421
 31
0.0
  0
LINE
  5
3FFF4
330
3FFD1
100
AcDbEntity
  8
0
 62
   242
 48
0.05
100
AcDbLine
 10
882.2515567684154
 20
-114.1587317674232
 30
0.0
 11
882.2515567684154
 21
-116.6587317674232
 31
0.0
  0
LINE
  5
3FFF5
330
3FFD1
100
AcDbEntity
  8
0
 62
   242
 48
0.05
100
AcDbLine
 10
882.2515567684154
 20
-107.058731767421
 30
0.0
 11
882.2515567684154
 21
-86.57933497681941
 31
0.0
  0
SOLID
  5
3FFF6
330
3FFD1
100
AcDbEntity
  8
0
 62
   242
 48
0.05
100
AcDbTrace
 10
881.8348901017488
 20
-114.1587317674232
 30
0.0
 11
882.6682234350821
 21
-114.1587317674232
 31
0.0
 12
882.2515567684154
 22
-111.6587317674232
 32
0.0
 13
882.2515567684154
 23
-111.6587317674232
 33
0.0
  0
SOLID
  5
3FFF7
330
3FFD1
100
AcDbEntity
  8
0
 62
   242
 48
0.05
100
AcDbTrace
 10
881.8348901017488
 20
-107.058731767421
 30
0.0
 11
882.6682234350821
 21
-107.058731767421
 31
0.0
 12
882.2515567684154
 22
-109.558731767421
 32
0.0
 13
882.2515567684154
 23
-109.558731767421
 33
0.0
  0
MTEXT
  5
3FFF8
330
3FFD1
100
AcDbEntity
  8
0
 62
   242
 48
0.05
100
AcDbMText
 10
880.5015567684154
 20
-95.56903337212007
 30
0.0
 40
2.5
 41
0.0
 71
     5
 72
     1
  1
\A1;1.4±0.15
  7
ROMANT
 11
0.0000000000000001
 21
1.0
 31
0.0
1001
ACAD
1000
MTEXTBEGIN
1070
    73
1070
     1
1070
    44
1040
1.0
1070
    74
1070
     0
1000
MTEXTEND
  0
POINT
  5
3FFF9
330
3FFD1
100
AcDbEntity
  8
DEFPOINTS
 62
     0
 48
0.05
100
AcDbPoint
 10
880.6595696107182
 20
-111.6587317674232
 30
0.0
  0
POINT
  5
3FFFA
330
3FFD1
100
AcDbEntity
  8
DEFPOINTS
 62
     0
 48
0.05
100
AcDbPoint
 10
880.6595696107182
 20
-109.558731767421
 30
0.0
  0
POINT
  5
3FFFB
330
3FFD1
100
AcDbEntity
  8
DEFPOINTS
 62
     0
 48
0.05
100
AcDbPoint
 10
882.2515567684154
 20
-109.558731767421
 30
0.0
  0
ENDBLK
  5
3FFDD
330
3FFD1
100
AcDbEntity
  8
0
 62
     0
 48
0.05
100
AcDbBlockEnd
  0
BLOCK
  5
40012
330
40007
100
AcDbEntity
  8
0
 62
     0
 48
0.05
100
AcDbBlockBegin
  2
*D102
 70
     1
 10
0.0
 20
0.0
 30
0.0
  3
*D102
  1

  0
LINE
  5
4003C
330
40007
100
AcDbEntity
  8
0
 62
   242
 48
0.05
100
AcDbLine
 10
907.4193861813014
 20
-69.05873176742648
 30
0.0
 11
904.1212472874338
 21
-69.05873176742648
 31
0.0
  0
LINE
  5
4003D
330
40007
100
AcDbEntity
  8
0
 62
   242
 48
0.05
100
AcDbLine
 10
908.4693861813079
 20
-73.55873176742647
 30
0.0
 11
904.1212472874338
 21
-73.55873176742647
 31
0.0
  0
LINE
  5
4003E
330
40007
100
AcDbEntity
  8
0
 62
   242
 48
0.05
100
AcDbLine
 10
904.3012472874337
 20
-66.55873176742648
 30
0.0
 11
904.3012472874337
 21
-64.05873176742648
 31
0.0
  0
LINE
  5
4003F
330
40007
100
AcDbEntity
  8
0
 62
   242
 48
0.05
100
AcDbLine
 10
904.3012472874337
 20
-76.05873176742647
 30
0.0
 11
904.3012472874337
 21
-78.55873176742647
 31
0.0
  0
SOLID
  5
40040
330
40007
100
AcDbEntity
  8
0
 62
   242
 48
0.05
100
AcDbTrace
 10
903.8845806207673
 20
-66.55873176742648
 30
0.0
 11
904.7179139541004
 21
-66.55873176742648
 31
0.0
 12
904.3012472874337
 22
-69.05873176742648
 32
0.0
 13
904.3012472874337
 23
-69.05873176742648
 33
0.0
  0
SOLID
  5
40041
330
40007
100
AcDbEntity
  8
0
 62
   242
 48
0.05
100
AcDbTrace
 10
903.8845806207673
 20
-76.05873176742647
 30
0.0
 11
904.7179139541004
 21
-76.05873176742647
 31
0.0
 12
904.3012472874337
 22
-73.55873176742647
 32
0.0
 13
904.3012472874337
 23
-73.55873176742647
 33
0.0
  0
MTEXT
  5
40042
330
40007
100
AcDbEntity
  8
0
 62
   242
 48
0.05
100
AcDbMText
 10
902.5512472874337
 20
-71.30873176742634
 30
0.0
 40
2.5
 41
0.0
 71
     5
 72
     1
  1
\A1;3
  7
ROMANT
 11
0.0000000000000001
 21
1.0
 31
0.0
1001
ACAD
1000
MTEXTBEGIN
1070
    73
1070
     1
1070
    44
1040
1.0
1070
    74
1070
     0
1000
MTEXTEND
  0
POINT
  5
40043
330
40007
100
AcDbEntity
  8
DEFPOINTS
 62
     0
 48
0.05
100
AcDbPoint
 10
908.0443861813014
 20
-69.05873176742648
 30
0.0
  0
POINT
  5
40044
330
40007
100
AcDbEntity
  8
DEFPOINTS
 62
     0
 48
0.05
100
AcDbPoint
 10
909.094386181308
 20
-73.55873176742647
 30
0.0
  0
POINT
  5
40045
330
40007
100
AcDbEntity
  8
DEFPOINTS
 62
     0
 48
0.05
100
AcDbPoint
 10
904.3012472874337
 20
-73.55873176742647
 30
0.0
  0
ENDBLK
  5
40013
330
40007
100
AcDbEntity
  8
0
 62
     0
 48
0.05
100
AcDbBlockEnd
  0
BLOCK
  5
40052
330
40047
100
AcDbEntity
  8
0
 62
     0
 48
0.05
100
AcDbBlockBegin
  2
*D103
 70
     1
 10
0.0
 20
0.0
 30
0.0
  3
*D103
  1

  0
LINE
  5
40054
330
40047
100
AcDbEntity
  8
0
 62
   242
 48
0.05
100
AcDbLine
 10
908.3193861813102
 20
-80.30873176742648
 30
0.0
 11
904.1212472874338
 21
-80.30873176742648
 31
0.0
  0
LINE
  5
40055
330
40047
100
AcDbEntity
  8
0
 62
   242
 48
0.05
100
AcDbLine
 10
907.2693861813036
 20
-86.30873176742648
 30
0.0
 11
904.1212472874338
 21
-86.30873176742648
 31
0.0
  0
LINE
  5
40056
330
40047
100
AcDbEntity
  8
0
 62
   242
 48
0.05
100
AcDbLine
 10
904.3012472874337
 20
-77.80873176742648
 30
0.0
 11
904.3012472874337
 21
-75.30873176742648
 31
0.0
  0
LINE
  5
40057
330
40047
100
AcDbEntity
  8
0
 62
   242
 48
0.05
100
AcDbLine
 10
904.3012472874337
 20
-88.80873176742648
 30
0.0
 11
904.3012472874337
 21
-91.30873176742648
 31
0.0
  0
SOLID
  5
40058
330
40047
100
AcDbEntity
  8
0
 62
   242
 48
0.05
100
AcDbTrace
 10
903.8845806207673
 20
-77.80873176742648
 30
0.0
 11
904.7179139541004
 21
-77.80873176742648
 31
0.0
 12
904.3012472874337
 22
-80.30873176742648
 32
0.0
 13
904.3012472874337
 23
-80.30873176742648
 33
0.0
  0
SOLID
  5
40059
330
40047
100
AcDbEntity
  8
0
 62
   242
 48
0.05
100
AcDbTrace
 10
903.8845806207673
 20
-88.80873176742648
 30
0.0
 11
904.7179139541004
 21
-88.80873176742648
 31
0.0
 12
904.3012472874337
 22
-86.30873176742648
 32
0.0
 13
904.3012472874337
 23
-86.30873176742648
 33
0.0
  0
MTEXT
  5
4005A
330
40047
100
AcDbEntity
  8
0
 62
   242
 48
0.05
100
AcDbMText
 10
902.5512472874337
 20
-83.30873176742633
 30
0.0
 40
2.5
 41
0.0
 71
     5
 72
     1
  1
\A1;4
  7
ROMANT
 11
0.0000000000000001
 21
1.0
 31
0.0
1001
ACAD
1000
MTEXTBEGIN
1070
    73
1070
     1
1070
    44
1040
1.0
1070
    74
1070
     0
1000
MTEXTEND
  0
POINT
  5
4005B
330
40047
100
AcDbEntity
  8
DEFPOINTS
 62
     0
 48
0.05
100
AcDbPoint
 10
908.9443861813101
 20
-80.30873176742648
 30
0.0
  0
POINT
  5
4005C
330
40047
100
AcDbEntity
  8
DEFPOINTS
 62
     0
 48
0.05
100
AcDbPoint
 10
907.8943861813035
 20
-86.30873176742648
 30
0.0
  0
POINT
  5
4005D
330
40047
100
AcDbEntity
  8
DEFPOINTS
 62
     0
 48
0.05
100
AcDbPoint
 10
904.3012472874337
 20
-86.30873176742648
 30
0.0
  0
ENDBLK
  5
40053
330
40047
100
AcDbEntity
  8
0
 62
     0
 48
0.05
100
AcDbBlockEnd
  0
BLOCK
  5
40069
330
4005F
100
AcDbEntity
  8
0
 62
     0
 48
0.05
100
AcDbBlockBegin
  2
*D104
 70
     1
 10
0.0
 20
0.0
 30
0.0
  3
*D104
  1

  0
LINE
  5
4007E
330
4005F
100
AcDbEntity
  8
0
 62
   242
 48
0.05
100
AcDbLine
 10
909.5193861813037
 20
-82.7087317674243
 30
0.0
 11
897.9194461528981
 21
-82.7087317674243
 31
0.0
  0
LINE
  5
4007F
330
4005F
100
AcDbEntity
  8
0
 62
   242
 48
0.05
100
AcDbLine
 10
909.5193861813037
 20
-71.1587317674232
 30
0.0
 11
897.9194461528981
 21
-71.1587317674232
 31
0.0
  0
LINE
  5
40080
330
4005F
100
AcDbEntity
  8
0
 62
   242
 48
0.05
100
AcDbLine
 10
898.0994461528981
 20
-73.6587317674232
 30
0.0
 11
898.0994461528981
 21
-80.2087317674243
 31
0.0
  0
LINE
  5
40081
330
4005F
100
AcDbEntity
  8
0
 62
   242
 48
0.05
100
AcDbLine
 10
898.0994461528981
 20
-82.7087317674243
 30
0.0
 11
898.0994461528981
 21
-102.9477430953512
 31
0.0
  0
SOLID
  5
40082
330
4005F
100
AcDbEntity
  8
0
 62
   242
 48
0.05
100
AcDbTrace
 10
897.6827794862314
 20
-73.6587317674232
 30
0.0
 11
898.5161128195647
 21
-73.6587317674232
 31
0.0
 12
898.0994461528981
 22
-71.1587317674232
 32
0.0
 13
898.0994461528981
 23
-71.1587317674232
 33
0.0
  0
SOLID
  5
40083
330
4005F
100
AcDbEntity
  8
0
 62
   242
 48
0.05
100
AcDbTrace
 10
897.6827794862314
 20
-80.2087317674243
 30
0.0
 11
898.5161128195647
 21
-80.2087317674243
 31
0.0
 12
898.0994461528981
 22
-82.7087317674243
 32
0.0
 13
898.0994461528981
 23
-82.7087317674243
 33
0.0
  0
MTEXT
  5
40084
330
4005F
100
AcDbEntity
  8
0
 62
   242
 48
0.05
100
AcDbMText
 10
896.3494461528981
 20
-94.07823743138765
 30
0.0
 40
2.5
 41
0.0
 71
     5
 72
     1
  1
\A1;7.7±0.15
  7
ROMANT
 11
0.0000000000000001
 21
1.0
 31
0.0
1001
ACAD
1000
MTEXTBEGIN
1070
    73
1070
     1
1070
    44
1040
1.0
1070
    74
1070
     0
1000
MTEXTEND
  0
POINT
  5
40085
330
4005F
100
AcDbEntity
  8
DEFPOINTS
 62
     0
 48
0.05
100
AcDbPoint
 10
910.1443861813036
 20
-82.7087317674243
 30
0.0
  0
POINT
  5
40086
330
4005F
100
AcDbEntity
  8
DEFPOINTS
 62
     0
 48
0.05
100
AcDbPoint
 10
910.1443861813036
 20
-71.1587317674232
 30
0.0
  0
POINT
  5
40087
330
4005F
100
AcDbEntity
  8
DEFPOINTS
 62
     0
 48
0.05
100
AcDbPoint
 10
898.0994461528981
 20
-71.1587317674232
 30
0.0
  0
ENDBLK
  5
4006A
330
4005F
100
AcDbEntity
  8
0
 62
     0
 48
0.05
100
AcDbBlockEnd
  0
BLOCK
  5
40098
330
4008D
100
AcDbEntity
  8
0
 62
     0
 48
0.05
100
AcDbBlockBegin
  2
*D105
 70
     1
 10
0.0
 20
0.0
 30
0.0
  3
*D105
  1

  0
LINE
  5
4009A
330
4008D
100
AcDbEntity
  8
0
 62
   242
 48
0.05
100
AcDbLine
 10
904.7193861813079
 20
-150.9587317674242
 30
0.0
 11
904.7491248286268
 21
-150.9587317674242
 31
0.0
  0
LINE
  5
4009B
330
4008D
100
AcDbEntity
  8
0
 62
   242
 48
0.05
100
AcDbLine
 10
904.7193861813079
 20
-153.0587317674264
 30
0.0
 11
904.7491248286268
 21
-153.0587317674264
 31
0.0
  0
LINE
  5
4009C
330
4008D
100
AcDbEntity
  8
0
 62
   242
 48
0.05
100
AcDbLine
 10
904.9291248286268
 20
-148.4587317674242
 30
0.0
 11
904.9291248286268
 21
-145.9587317674243
 31
0.0
  0
LINE
  5
4009D
330
4008D
100
AcDbEntity
  8
0
 62
   242
 48
0.05
100
AcDbLine
 10
904.9291248286268
 20
-155.5587317674264
 30
0.0
 11
904.9291248286268
 21
-164.4882192858296
 31
0.0
  0
SOLID
  5
4009E
330
4008D
100
AcDbEntity
  8
0
 62
   242
 48
0.05
100
AcDbTrace
 10
904.5124581619601
 20
-148.4587317674242
 30
0.0
 11
905.3457914952934
 21
-148.4587317674242
 31
0.0
 12
904.9291248286268
 22
-150.9587317674242
 32
0.0
 13
904.9291248286268
 23
-150.9587317674242
 33
0.0
  0
SOLID
  5
4009F
330
4008D
100
AcDbEntity
  8
0
 62
   242
 48
0.05
100
AcDbTrace
 10
904.5124581619601
 20
-155.5587317674264
 30
0.0
 11
905.3457914952934
 21
-155.5587317674264
 31
0.0
 12
904.9291248286268
 22
-153.0587317674264
 32
0.0
 13
904.9291248286268
 23
-153.0587317674264
 33
0.0
  0
MTEXT
  5
400A0
330
4008D
100
AcDbEntity
  8
0
 62
   242
 48
0.05
100
AcDbMText
 10
903.1791248286268
 20
-161.2734755266279
 30
0.0
 40
2.5
 41
0.0
 71
     5
 72
     1
  1
\A1;1.4
  7
ROMANT
 11
0.0000000000000001
 21
1.0
 31
0.0
1001
ACAD
1000
MTEXTBEGIN
1070
    73
1070
     1
1070
    44
1040
1.0
1070
    74
1070
     0
1000
MTEXTEND
  0
POINT
  5
400A1
330
4008D
100
AcDbEntity
  8
DEFPOINTS
 62
     0
 48
0.05
100
AcDbPoint
 10
905.3443861813079
 20
-150.9587317674242
 30
0.0
  0
POINT
  5
400A2
330
4008D
100
AcDbEntity
  8
DEFPOINTS
 62
     0
 48
0.05
100
AcDbPoint
 10
905.3443861813079
 20
-153.0587317674264
 30
0.0
  0
POINT
  5
400A3
330
4008D
100
AcDbEntity
  8
DEFPOINTS
 62
     0
 48
0.05
100
AcDbPoint
 10
904.9291248286268
 20
-153.0587317674264
 30
0.0
  0
ENDBLK
  5
40099
330
4008D
100
AcDbEntity
  8
0
 62
     0
 48
0.05
100
AcDbBlockEnd
  0
BLOCK
  5
400B0
330
400A5
100
AcDbEntity
  8
0
 62
     0
 48
0.05
100
AcDbBlockBegin
  2
*D106
 70
     1
 10
0.0
 20
0.0
 30
0.0
  3
*D106
  1

  0
LINE
  5
400B2
330
400A5
100
AcDbEntity
  8
0
 62
   242
 48
0.05
100
AcDbLine
 10
877.2957221555261
 20
-156.0587317674264
 30
0.0
 11
877.3510733456546
 21
-156.0587317674264
 31
0.0
  0
LINE
  5
400B3
330
400A5
100
AcDbEntity
  8
0
 62
   242
 48
0.05
100
AcDbLine
 10
877.2957221555261
 20
-153.9587317674242
 30
0.0
 11
877.3510733456546
 21
-153.9587317674242
 31
0.0
  0
LINE
  5
400B4
330
400A5
100
AcDbEntity
  8
0
 62
   242
 48
0.05
100
AcDbLine
 10
877.1710733456547
 20
-158.5587317674264
 30
0.0
 11
877.1710733456547
 21
-161.0587317674264
 31
0.0
  0
LINE
  5
400B5
330
400A5
100
AcDbEntity
  8
0
 62
   242
 48
0.05
100
AcDbLine
 10
877.1710733456547
 20
-151.4587317674243
 30
0.0
 11
877.1710733456547
 21
-142.5292442490211
 31
0.0
  0
SOLID
  5
400B6
330
400A5
100
AcDbEntity
  8
0
 62
   242
 48
0.05
100
AcDbTrace
 10
876.7544066789881
 20
-158.5587317674264
 30
0.0
 11
877.5877400123214
 21
-158.5587317674264
 31
0.0
 12
877.1710733456547
 22
-156.0587317674264
 32
0.0
 13
877.1710733456547
 23
-156.0587317674264
 33
0.0
  0
SOLID
  5
400B7
330
400A5
100
AcDbEntity
  8
0
 62
   242
 48
0.05
100
AcDbTrace
 10
876.7544066789881
 20
-151.4587317674243
 30
0.0
 11
877.5877400123214
 21
-151.4587317674243
 31
0.0
 12
877.1710733456547
 22
-153.9587317674242
 32
0.0
 13
877.1710733456547
 23
-153.9587317674242
 33
0.0
  0
MTEXT
  5
400B8
330
400A5
100
AcDbEntity
  8
0
 62
   242
 48
0.05
100
AcDbMText
 10
875.4210733456547
 20
-145.7439880082225
 30
0.0
 40
2.5
 41
0.0
 71
     5
 72
     1
  1
\A1;1.4
  7
ROMANT
 11
0.0000000000000001
 21
1.0
 31
0.0
1001
ACAD
1000
MTEXTBEGIN
1070
    73
1070
     1
1070
    44
1040
1.0
1070
    74
1070
     0
1000
MTEXTEND
  0
POINT
  5
400B9
330
400A5
100
AcDbEntity
  8
DEFPOINTS
 62
     0
 48
0.05
100
AcDbPoint
 10
876.6707221555261
 20
-156.0587317674264
 30
0.0
  0
POINT
  5
400BA
330
400A5
100
AcDbEntity
  8
DEFPOINTS
 62
     0
 48
0.05
100
AcDbPoint
 10
876.6707221555261
 20
-153.9587317674242
 30
0.0
  0
POINT
  5
400BB
330
400A5
100
AcDbEntity
  8
DEFPOINTS
 62
     0
 48
0.05
100
AcDbPoint
 10
877.1710733456547
 20
-153.9587317674242
 30
0.0
  0
ENDBLK
  5
400B1
330
400A5
100
AcDbEntity
  8
0
 62
     0
 48
0.05
100
AcDbBlockEnd
  0
BLOCK
  5
400C8
330
400BD
100
AcDbEntity
  8
0
 62
     0
 48
0.05
100
AcDbBlockBegin
  2
*D107
 70
     1
 10
0.0
 20
0.0
 30
0.0
  3
*D107
  1

  0
LINE
  5
401D0
330
400BD
100
AcDbEntity
  8
0
 62
   242
 48
0.05
100
AcDbLine
 10
863.8253379739223
 20
-156.0587317674264
 30
0.0
 11
867.0321825349271
 21
-156.0587317674264
 31
0.0
  0
LINE
  5
401D1
330
400BD
100
AcDbEntity
  8
0
 62
   242
 48
0.05
100
AcDbLine
 10
863.5193861813036
 20
-153.3587317674221
 30
0.0
 11
867.0321825349271
 21
-153.3587317674221
 31
0.0
  0
LINE
  5
401D2
330
400BD
100
AcDbEntity
  8
0
 62
   242
 48
0.05
100
AcDbLine
 10
866.8521825349271
 20
-158.5587317674264
 30
0.0
 11
866.8521825349271
 21
-161.0587317674264
 31
0.0
  0
LINE
  5
401D3
330
400BD
100
AcDbEntity
  8
0
 62
   242
 48
0.05
100
AcDbLine
 10
866.8521825349271
 20
-150.8587317674221
 30
0.0
 11
866.8521825349271
 21
-141.7845549264982
 31
0.0
  0
SOLID
  5
401D4
330
400BD
100
AcDbEntity
  8
0
 62
   242
 48
0.05
100
AcDbTrace
 10
866.4355158682605
 20
-158.5587317674264
 30
0.0
 11
867.2688492015938
 21
-158.5587317674264
 31
0.0
 12
866.8521825349271
 22
-156.0587317674264
 32
0.0
 13
866.8521825349271
 23
-156.0587317674264
 33
0.0
  0
SOLID
  5
401D5
330
400BD
100
AcDbEntity
  8
0
 62
   242
 48
0.05
100
AcDbTrace
 10
866.4355158682605
 20
-150.8587317674221
 30
0.0
 11
867.2688492015938
 21
-150.8587317674221
 31
0.0
 12
866.8521825349271
 22
-153.3587317674221
 32
0.0
 13
866.8521825349271
 23
-153.3587317674221
 33
0.0
  0
MTEXT
  5
401D6
330
400BD
100
AcDbEntity
  8
0
 62
   242
 48
0.05
100
AcDbMText
 10
865.1021825349271
 20
-145.07164334696
 30
0.0
 40
2.5
 41
0.0
 71
     5
 72
     1
  1
\A1;1.8
  7
ROMANT
 11
0.0000000000000001
 21
1.0
 31
0.0
1001
ACAD
1000
MTEXTBEGIN
1070
    73
1070
     1
1070
    44
1040
1.0
1070
    74
1070
     0
1000
MTEXTEND
  0
POINT
  5
401D7
330
400BD
100
AcDbEntity
  8
DEFPOINTS
 62
     0
 48
0.05
100
AcDbPoint
 10
863.2003379739224
 20
-156.0587317674264
 30
0.0
  0
POINT
  5
401D8
330
400BD
100
AcDbEntity
  8
DEFPOINTS
 62
     0
 48
0.05
100
AcDbPoint
 10
862.8943861813036
 20
-153.3587317674221
 30
0.0
  0
POINT
  5
401D9
330
400BD
100
AcDbEntity
  8
DEFPOINTS
 62
     0
 48
0.05
100
AcDbPoint
 10
866.8521825349271
 20
-153.3587317674221
 30
0.0
  0
ENDBLK
  5
400C9
330
400BD
100
AcDbEntity
  8
0
 62
     0
 48
0.05
100
AcDbBlockEnd
  0
BLOCK
  5
400EA
330
400DF
100
AcDbEntity
  8
0
 62
     0
 48
0.05
100
AcDbBlockBegin
  2
*D108
 70
     1
 10
0.0
 20
0.0
 30
0.0
  3
*D108
  1

  0
LINE
  5
400EC
330
400DF
100
AcDbEntity
  8
0
 62
   242
 48
0.05
100
AcDbLine
 10
831.144441550184
 20
-156.0587317674227
 30
0.0
 11
831.5894415501841
 21
-156.0587317674227
 31
0.0
  0
LINE
  5
400ED
330
400DF
100
AcDbEntity
  8
0
 62
   242
 48
0.05
100
AcDbLine
 10
831.144441550184
 20
-153.9587317674242
 30
0.0
 11
831.5894415501841
 21
-153.9587317674242
 31
0.0
  0
LINE
  5
400EE
330
400DF
100
AcDbEntity
  8
0
 62
   242
 48
0.05
100
AcDbLine
 10
831.769441550184
 20
-158.5587317674227
 30
0.0
 11
831.769441550184
 21
-161.0587317674227
 31
0.0
  0
LINE
  5
400EF
330
400DF
100
AcDbEntity
  8
0
 62
   242
 48
0.05
100
AcDbLine
 10
831.769441550184
 20
-151.4587317674243
 30
0.0
 11
831.769441550184
 21
-142.5292442490211
 31
0.0
  0
SOLID
  5
400F0
330
400DF
100
AcDbEntity
  8
0
 62
   242
 48
0.05
100
AcDbTrace
 10
831.3527748835173
 20
-158.5587317674227
 30
0.0
 11
832.1861082168506
 21
-158.5587317674227
 31
0.0
 12
831.769441550184
 22
-156.0587317674227
 32
0.0
 13
831.769441550184
 23
-156.0587317674227
 33
0.0
  0
SOLID
  5
400F1
330
400DF
100
AcDbEntity
  8
0
 62
   242
 48
0.05
100
AcDbTrace
 10
831.3527748835173
 20
-151.4587317674243
 30
0.0
 11
832.1861082168506
 21
-151.4587317674243
 31
0.0
 12
831.769441550184
 22
-153.9587317674242
 32
0.0
 13
831.769441550184
 23
-153.9587317674242
 33
0.0
  0
MTEXT
  5
400F2
330
400DF
100
AcDbEntity
  8
0
 62
   242
 48
0.05
100
AcDbMText
 10
830.019441550184
 20
-145.7439880082226
 30
0.0
 40
2.5
 41
0.0
 71
     5
 72
     1
  1
\A1;1.4
  7
ROMANT
 11
0.0000000000000001
 21
1.0
 31
0.0
1001
ACAD
1000
MTEXTBEGIN
1070
    73
1070
     1
1070
    44
1040
1.0
1070
    74
1070
     0
1000
MTEXTEND
  0
POINT
  5
400F3
330
400DF
100
AcDbEntity
  8
DEFPOINTS
 62
     0
 48
0.05
100
AcDbPoint
 10
831.769441550184
 20
-156.0587317674227
 30
0.0
  0
POINT
  5
400F4
330
400DF
100
AcDbEntity
  8
DEFPOINTS
 62
     0
 48
0.05
100
AcDbPoint
 10
831.769441550184
 20
-153.9587317674242
 30
0.0
  0
POINT
  5
400F5
330
400DF
100
AcDbEntity
  8
DEFPOINTS
 62
     0
 48
0.05
100
AcDbPoint
 10
831.769441550184
 20
-153.9587317674242
 30
0.0
  0
ENDBLK
  5
400EB
330
400DF
100
AcDbEntity
  8
0
 62
     0
 48
0.05
100
AcDbBlockEnd
  0
BLOCK
  5
40102
330
400F7
100
AcDbEntity
  8
0
 62
     0
 48
0.05
100
AcDbBlockBegin
  2
*D109
 70
     1
 10
0.0
 20
0.0
 30
0.0
  3
*D109
  1

  0
LINE
  5
4010E
330
400F7
100
AcDbEntity
  8
0
 62
   242
 48
0.05
100
AcDbLine
 10
825.3943861813036
 20
-170.7890432573723
 30
0.0
 11
825.3943861813036
 21
-171.1455936697134
 31
0.0
  0
LINE
  5
4010F
330
400F7
100
AcDbEntity
  8
0
 62
   242
 48
0.05
100
AcDbLine
 10
827.7943861813014
 20
-170.7890432573723
 30
0.0
 11
827.7943861813014
 21
-171.1455936697134
 31
0.0
  0
LINE
  5
40110
330
400F7
100
AcDbEntity
  8
0
 62
   242
 48
0.05
100
AcDbLine
 10
830.2943861813014
 20
-171.3255936697134
 30
0.0
 11
832.7943861813015
 21
-171.3255936697134
 31
0.0
  0
LINE
  5
40111
330
400F7
100
AcDbEntity
  8
0
 62
   242
 48
0.05
100
AcDbLine
 10
822.8943861813036
 20
-171.3255936697134
 30
0.0
 11
813.8202093403798
 21
-171.3255936697134
 31
0.0
  0
SOLID
  5
40112
330
400F7
100
AcDbEntity
  8
0
 62
   242
 48
0.05
100
AcDbTrace
 10
830.2943861813014
 20
-170.9089270030467
 30
0.0
 11
830.2943861813014
 21
-171.74226033638
 31
0.0
 12
827.7943861813014
 22
-171.3255936697134
 32
0.0
 13
827.7943861813014
 23
-171.3255936697134
 33
0.0
  0
SOLID
  5
40113
330
400F7
100
AcDbEntity
  8
0
 62
   242
 48
0.05
100
AcDbTrace
 10
822.8943861813036
 20
-170.9089270030467
 30
0.0
 11
822.8943861813036
 21
-171.74226033638
 31
0.0
 12
825.3943861813036
 22
-171.3255936697134
 32
0.0
 13
825.3943861813036
 23
-171.3255936697134
 33
0.0
  0
MTEXT
  5
40114
330
400F7
100
AcDbEntity
  8
0
 62
   242
 48
0.05
100
AcDbMText
 10
817.1072977608416
 20
-169.5755936697134
 30
0.0
 40
2.5
 41
0.0
 71
     5
 72
     1
  1
\A1;1.6
  7
ROMANT
1001
ACAD
1000
MTEXTBEGIN
1070
    73
1070
     1
1070
    44
1040
1.0
1070
    74
1070
     0
1000
MTEXTEND
  0
POINT
  5
40115
330
400F7
100
AcDbEntity
  8
DEFPOINTS
 62
     0
 48
0.05
100
AcDbPoint
 10
825.3943861813036
 20
-171.4140432573723
 30
0.0
  0
POINT
  5
40116
330
400F7
100
AcDbEntity
  8
DEFPOINTS
 62
     0
 48
0.05
100
AcDbPoint
 10
827.7943861813014
 20
-171.4140432573723
 30
0.0
  0
POINT
  5
40117
330
400F7
100
AcDbEntity
  8
DEFPOINTS
 62
     0
 48
0.05
100
AcDbPoint
 10
827.7943861813014
 20
-171.3255936697134
 30
0.0
  0
ENDBLK
  5
40103
330
400F7
100
AcDbEntity
  8
0
 62
     0
 48
0.05
100
AcDbBlockEnd
  0
BLOCK
  5
40124
330
40119
100
AcDbEntity
  8
0
 62
     0
 48
0.05
100
AcDbBlockBegin
  2
*D110
 70
     1
 10
0.0
 20
0.0
 30
0.0
  3
*D110
  1

  0
LINE
  5
40126
330
40119
100
AcDbEntity
  8
0
 62
   242
 48
0.05
100
AcDbLine
 10
825.3943861813036
 20
-130.3778907125611
 30
0.0
 11
825.3943861813036
 21
-129.6978907125612
 31
0.0
  0
LINE
  5
40127
330
40119
100
AcDbEntity
  8
0
 62
   242
 48
0.05
100
AcDbLine
 10
827.6443861813035
 20
-130.3778907125611
 30
0.0
 11
827.6443861813035
 21
-129.6978907125612
 31
0.0
  0
LINE
  5
40128
330
40119
100
AcDbEntity
  8
0
 62
   242
 48
0.05
100
AcDbLine
 10
822.8943861813036
 20
-129.8778907125612
 30
0.0
 11
820.3943861813035
 21
-129.8778907125612
 31
0.0
  0
LINE
  5
40129
330
40119
100
AcDbEntity
  8
0
 62
   242
 48
0.05
100
AcDbLine
 10
830.1443861813035
 20
-129.8778907125612
 30
0.0
 11
839.1952115433337
 21
-129.8778907125612
 31
0.0
  0
SOLID
  5
4012A
330
40119
100
AcDbEntity
  8
0
 62
   242
 48
0.05
100
AcDbTrace
 10
822.8943861813036
 20
-129.4612240458945
 30
0.0
 11
822.8943861813036
 21
-130.2945573792278
 31
0.0
 12
825.3943861813036
 22
-129.8778907125612
 32
0.0
 13
825.3943861813036
 23
-129.8778907125612
 33
0.0
  0
SOLID
  5
4012B
330
40119
100
AcDbEntity
  8
0
 62
   242
 48
0.05
100
AcDbTrace
 10
830.1443861813035
 20
-129.4612240458945
 30
0.0
 11
830.1443861813035
 21
-130.2945573792278
 31
0.0
 12
827.6443861813035
 22
-129.8778907125612
 32
0.0
 13
827.6443861813035
 23
-129.8778907125612
 33
0.0
  0
MTEXT
  5
4012C
330
40119
100
AcDbEntity
  8
0
 62
   242
 48
0.05
100
AcDbMText
 10
835.9197988623186
 20
-128.1278907125612
 30
0.0
 40
2.5
 41
0.0
 71
     5
 72
     1
  1
\A1;1.5
  7
ROMANT
1001
ACAD
1000
MTEXTBEGIN
1070
    73
1070
     1
1070
    44
1040
1.0
1070
    74
1070
     0
1000
MTEXTEND
  0
POINT
  5
4012D
330
40119
100
AcDbEntity
  8
DEFPOINTS
 62
     0
 48
0.05
100
AcDbPoint
 10
825.3943861813036
 20
-131.0028907125611
 30
0.0
  0
POINT
  5
4012E
330
40119
100
AcDbEntity
  8
DEFPOINTS
 62
     0
 48
0.05
100
AcDbPoint
 10
827.6443861813035
 20
-131.0028907125611
 30
0.0
  0
POINT
  5
4012F
330
40119
100
AcDbEntity
  8
DEFPOINTS
 62
     0
 48
0.05
100
AcDbPoint
 10
827.6443861813035
 20
-129.8778907125612
 30
0.0
  0
ENDBLK
  5
40125
330
40119
100
AcDbEntity
  8
0
 62
     0
 48
0.05
100
AcDbBlockEnd
  0
BLOCK
  5
4013C
330
40131
100
AcDbEntity
  8
0
 62
     0
 48
0.05
100
AcDbBlockBegin
  2
*D111
 70
     1
 10
0.0
 20
0.0
 30
0.0
  3
*D111
  1

  0
LINE
  5
40148
330
40131
100
AcDbEntity
  8
0
 62
   242
 48
0.05
100
AcDbLine
 10
830.4129048237687
 20
-104.1587317674232
 30
0.0
 11
832.1100568506208
 21
-104.1587317674232
 31
0.0
  0
LINE
  5
40149
330
40131
100
AcDbEntity
  8
0
 62
   242
 48
0.05
100
AcDbLine
 10
830.4129048237692
 20
-102.0587317674223
 30
0.0
 11
832.1100568506208
 21
-102.0587317674223
 31
0.0
  0
LINE
  5
4014A
330
40131
100
AcDbEntity
  8
0
 62
   242
 48
0.05
100
AcDbLine
 10
831.9300568506209
 20
-99.5587317674223
 30
0.0
 11
831.9300568506209
 21
-97.0587317674223
 31
0.0
  0
LINE
  5
4014B
330
40131
100
AcDbEntity
  8
0
 62
   242
 48
0.05
100
AcDbLine
 10
831.9300568506209
 20
-106.6587317674231
 30
0.0
 11
831.9300568506209
 21
-115.5882192858263
 31
0.0
  0
SOLID
  5
4014C
330
40131
100
AcDbEntity
  8
0
 62
   242
 48
0.05
100
AcDbTrace
 10
831.5133901839542
 20
-99.5587317674223
 30
0.0
 11
832.3467235172875
 21
-99.5587317674223
 31
0.0
 12
831.9300568506209
 22
-102.0587317674223
 32
0.0
 13
831.9300568506209
 23
-102.0587317674223
 33
0.0
  0
SOLID
  5
4014D
330
40131
100
AcDbEntity
  8
0
 62
   242
 48
0.05
100
AcDbTrace
 10
831.5133901839542
 20
-106.6587317674231
 30
0.0
 11
832.3467235172875
 21
-106.6587317674231
 31
0.0
 12
831.9300568506209
 22
-104.1587317674232
 32
0.0
 13
831.9300568506209
 23
-104.1587317674232
 33
0.0
  0
MTEXT
  5
4014E
330
40131
100
AcDbEntity
  8
0
 62
   242
 48
0.05
100
AcDbMText
 10
830.1800568506209
 20
-112.3734755266246
 30
0.0
 40
2.5
 41
0.0
 71
     5
 72
     1
  1
\A1;1.4
  7
ROMANT
 11
0.0000000000000001
 21
1.0
 31
0.0
1001
ACAD
1000
MTEXTBEGIN
1070
    73
1070
     1
1070
    44
1040
1.0
1070
    74
1070
     0
1000
MTEXTEND
  0
POINT
  5
4014F
330
40131
100
AcDbEntity
  8
DEFPOINTS
 62
     0
 48
0.05
100
AcDbPoint
 10
829.7879048237687
 20
-104.1587317674232
 30
0.0
  0
POINT
  5
40150
330
40131
100
AcDbEntity
  8
DEFPOINTS
 62
     0
 48
0.05
100
AcDbPoint
 10
829.7879048237692
 20
-102.0587317674223
 30
0.0
  0
POINT
  5
40151
330
40131
100
AcDbEntity
  8
DEFPOINTS
 62
     0
 48
0.05
100
AcDbPoint
 10
831.9300568506209
 20
-102.0587317674223
 30
0.0
  0
ENDBLK
  5
4013D
330
40131
100
AcDbEntity
  8
0
 62
     0
 48
0.05
100
AcDbBlockEnd
  0
BLOCK
  5
4015E
330
40153
100
AcDbEntity
  8
0
 62
     0
 48
0.05
100
AcDbBlockBegin
  2
*D112
 70
     1
 10
0.0
 20
0.0
 30
0.0
  3
*D112
  1

  0
LINE
  5
4016A
330
40153
100
AcDbEntity
  8
0
 62
   242
 48
0.05
100
AcDbLine
 10
847.4036731869743
 20
-112.8587317674249
 30
0.0
 11
846.9261542376619
 21
-112.8587317674249
 31
0.0
  0
LINE
  5
4016B
330
40153
100
AcDbEntity
  8
0
 62
   242
 48
0.05
100
AcDbLine
 10
847.4036731869743
 20
-109.5587317674264
 30
0.0
 11
846.9261542376619
 21
-109.5587317674264
 31
0.0
  0
LINE
  5
4016C
330
40153
100
AcDbEntity
  8
0
 62
   242
 48
0.05
100
AcDbLine
 10
847.1061542376618
 20
-107.0587317674264
 30
0.0
 11
847.1061542376618
 21
-104.5587317674264
 31
0.0
  0
LINE
  5
4016D
330
40153
100
AcDbEntity
  8
0
 62
   242
 48
0.05
100
AcDbLine
 10
847.1061542376618
 20
-115.3587317674249
 30
0.0
 11
847.1061542376618
 21
-124.758152752107
 31
0.0
  0
SOLID
  5
4016E
330
40153
100
AcDbEntity
  8
0
 62
   242
 48
0.05
100
AcDbTrace
 10
846.6894875709952
 20
-107.0587317674264
 30
0.0
 11
847.5228209043285
 21
-107.0587317674264
 31
0.0
 12
847.1061542376618
 22
-109.5587317674264
 32
0.0
 13
847.1061542376618
 23
-109.5587317674264
 33
0.0
  0
SOLID
  5
4016F
330
40153
100
AcDbEntity
  8
0
 62
   242
 48
0.05
100
AcDbTrace
 10
846.6894875709952
 20
-115.3587317674249
 30
0.0
 11
847.5228209043285
 21
-115.3587317674249
 31
0.0
 12
847.1061542376618
 22
-112.8587317674249
 32
0.0
 13
847.1061542376618
 23
-112.8587317674249
 33
0.0
  0
MTEXT
  5
40170
330
40153
100
AcDbEntity
  8
0
 62
   242
 48
0.05
100
AcDbMText
 10
845.3561542376618
 20
-121.3084422597658
 30
0.0
 40
2.5
 41
0.0
 71
     5
 72
     1
  1
\A1;2.2
  7
ROMANT
 11
0.0000000000000001
 21
1.0
 31
0.0
1001
ACAD
1000
MTEXTBEGIN
1070
    73
1070
     1
1070
    44
1040
1.0
1070
    74
1070
     0
1000
MTEXTEND
  0
POINT
  5
40171
330
40153
100
AcDbEntity
  8
DEFPOINTS
 62
     0
 48
0.05
100
AcDbPoint
 10
848.0286731869744
 20
-112.8587317674249
 30
0.0
  0
POINT
  5
40172
330
40153
100
AcDbEntity
  8
DEFPOINTS
 62
     0
 48
0.05
100
AcDbPoint
 10
848.0286731869744
 20
-109.5587317674264
 30
0.0
  0
POINT
  5
40173
330
40153
100
AcDbEntity
  8
DEFPOINTS
 62
     0
 48
0.05
100
AcDbPoint
 10
847.1061542376618
 20
-109.5587317674264
 30
0.0
  0
ENDBLK
  5
4015F
330
40153
100
AcDbEntity
  8
0
 62
     0
 48
0.05
100
AcDbBlockEnd
  0
BLOCK
  5
40184
330
40179
100
AcDbEntity
  8
0
 62
     0
 48
0.05
100
AcDbBlockBegin
  2
*D113
 70
     1
 10
0.0
 20
0.0
 30
0.0
  3
*D113
  1

  0
LINE
  5
4019A
330
40179
100
AcDbEntity
  8
0
 62
   242
 48
0.05
100
AcDbLine
 10
824.7693861813036
 20
-189.0587317674264
 30
0.0
 11
819.1897155750565
 21
-189.0587317674264
 31
0.0
  0
LINE
  5
4019B
330
40179
100
AcDbEntity
  8
0
 62
   242
 48
0.05
100
AcDbLine
 10
827.1693861813014
 20
-186.8087317674264
 30
0.0
 11
819.1897155750565
 21
-186.8087317674264
 31
0.0
  0
LINE
  5
4019C
330
40179
100
AcDbEntity
  8
0
 62
   242
 48
0.05
100
AcDbLine
 10
819.3697155750564
 20
-191.5587317674264
 30
0.0
 11
819.3697155750564
 21
-194.0587317674264
 31
0.0
  0
LINE
  5
4019D
330
40179
100
AcDbEntity
  8
0
 62
   242
 48
0.05
100
AcDbLine
 10
819.3697155750564
 20
-184.3087317674264
 30
0.0
 11
819.3697155750564
 21
-175.2579064053962
 31
0.0
  0
SOLID
  5
4019E
330
40179
100
AcDbEntity
  8
0
 62
   242
 48
0.05
100
AcDbTrace
 10
818.9530489083898
 20
-191.5587317674264
 30
0.0
 11
819.7863822417231
 21
-191.5587317674264
 31
0.0
 12
819.3697155750564
 22
-189.0587317674264
 32
0.0
 13
819.3697155750564
 23
-189.0587317674264
 33
0.0
  0
SOLID
  5
4019F
330
40179
100
AcDbEntity
  8
0
 62
   242
 48
0.05
100
AcDbTrace
 10
818.9530489083898
 20
-184.3087317674264
 30
0.0
 11
819.7863822417231
 21
-184.3087317674264
 31
0.0
 12
819.3697155750564
 22
-186.8087317674264
 32
0.0
 13
819.3697155750564
 23
-186.8087317674264
 33
0.0
  0
MTEXT
  5
401A0
330
40179
100
AcDbEntity
  8
0
 62
   242
 48
0.05
100
AcDbMText
 10
817.6197155750564
 20
-178.5333190864112
 30
0.0
 40
2.5
 41
0.0
 71
     5
 72
     1
  1
\A1;1.5
  7
ROMANT
 11
0.0000000000000001
 21
1.0
 31
0.0
1001
ACAD
1000
MTEXTBEGIN
1070
    73
1070
     1
1070
    44
1040
1.0
1070
    74
1070
     0
1000
MTEXTEND
  0
POINT
  5
401A1
330
40179
100
AcDbEntity
  8
DEFPOINTS
 62
     0
 48
0.05
100
AcDbPoint
 10
825.3943861813036
 20
-189.0587317674264
 30
0.0
  0
POINT
  5
401A2
330
40179
100
AcDbEntity
  8
DEFPOINTS
 62
     0
 48
0.05
100
AcDbPoint
 10
827.7943861813014
 20
-186.8087317674264
 30
0.0
  0
POINT
  5
401A3
330
40179
100
AcDbEntity
  8
DEFPOINTS
 62
     0
 48
0.05
100
AcDbPoint
 10
819.3697155750564
 20
-186.8087317674264
 30
0.0
  0
ENDBLK
  5
40185
330
40179
100
AcDbEntity
  8
0
 62
     0
 48
0.05
100
AcDbBlockEnd
  0
BLOCK
  5
401B1
330
401A7
100
AcDbEntity
  8
0
 62
     0
 48
0.05
100
AcDbBlockBegin
  2
*D114
 70
     1
 10
0.0
 20
0.0
 30
0.0
  3
*D114
  1

  0
LINE
  5
40219
330
401A7
100
AcDbEntity
  8
0
 62
   242
 48
0.05
100
AcDbLine
 10
839.644386181369
 20
-159.0274377511479
 30
0.0
 11
839.644386181369
 21
-139.8286775603776
 31
0.0
  0
LINE
  5
4021A
330
401A7
100
AcDbEntity
  8
0
 62
   242
 48
0.05
100
AcDbLine
 10
871.1443861812435
 20
-159.0274377490616
 30
0.0
 11
871.1443861812435
 21
-139.8286775603776
 31
0.0
  0
LINE
  5
4021B
330
401A7
100
AcDbEntity
  8
0
 62
   242
 48
0.05
100
AcDbLine
 10
842.144386181369
 20
-140.0086775603776
 30
0.0
 11
868.6443861812435
 21
-140.0086775603776
 31
0.0
  0
SOLID
  5
4021C
330
401A7
100
AcDbEntity
  8
0
 62
   242
 48
0.05
100
AcDbTrace
 10
842.144386181369
 20
-139.592010893711
 30
0.0
 11
842.144386181369
 21
-140.4253442270443
 31
0.0
 12
839.644386181369
 22
-140.0086775603776
 32
0.0
 13
839.644386181369
 23
-140.0086775603776
 33
0.0
  0
SOLID
  5
4021D
330
401A7
100
AcDbEntity
  8
0
 62
   242
 48
0.05
100
AcDbTrace
 10
868.6443861812435
 20
-139.592010893711
 30
0.0
 11
868.6443861812435
 21
-140.4253442270443
 31
0.0
 12
871.1443861812435
 22
-140.0086775603776
 32
0.0
 13
871.1443861812435
 23
-140.0086775603776
 33
0.0
  0
MTEXT
  5
4021E
330
401A7
100
AcDbEntity
  8
0
 62
   242
 48
0.05
100
AcDbMText
 10
855.3943861813063
 20
-138.2586775603776
 30
0.0
 40
2.5
 41
0.0
 71
     5
 72
     1
  1
\A1;21±0.2
  7
ROMANT
1001
ACAD
1000
MTEXTBEGIN
1070
    73
1070
     1
1070
    44
1040
1.0
1070
    74
1070
     0
1000
MTEXTEND
  0
POINT
  5
4021F
330
401A7
100
AcDbEntity
  8
DEFPOINTS
 62
     0
 48
0.05
100
AcDbPoint
 10
839.644386181369
 20
-159.652437751148
 30
0.0
  0
POINT
  5
40220
330
401A7
100
AcDbEntity
  8
DEFPOINTS
 62
     0
 48
0.05
100
AcDbPoint
 10
871.1443861812435
 20
-159.6524377490616
 30
0.0
  0
POINT
  5
40221
330
401A7
100
AcDbEntity
  8
DEFPOINTS
 62
     0
 48
0.05
100
AcDbPoint
 10
871.1443861812435
 20
-140.0086775603776
 30
0.0
  0
ENDBLK
  5
401B2
330
401A7
100
AcDbEntity
  8
0
 62
     0
 48
0.05
100
AcDbBlockEnd
  0
ENDSEC
  0
SECTION
  2
ENTITIES
  0
POLYLINE
  5
3F954
330
2
100
AcDbEntity
  8
0
 62
     0
 48
5.0
100
AcDb2dPolyline
 66
     1
 10
0.0
 20
0.0
 30
0.0
  0
VERTEX
  5
40249
330
3F954
100
AcDbEntity
  8
0
 62
     0
 48
5.0
100
AcDbVertex
100
AcDb2dVertex
 10
896.6588556167849
 20
-44.77223400506637
 30
0.0
 42
-0.3249196962330394
  0
VERTEX
  5
4024A
330
3F954
100
AcDbEntity
  8
0
 62
     0
 48
5.0
100
AcDbVertex
100
AcDb2dVertex
 10
896.0882217070107
 20
-45.1868238084412
 30
0.0
 42
-0.414213562372873
  0
VERTEX
  5
4024B
330
3F954
100
AcDbEntity
  8
0
 62
     0
 48
5.0
100
AcDbVertex
100
AcDb2dVertex
 10
895.4882217070048
 20
-44.58682380844265
 30
0.0
 42
-0.0750375237586697
  0
VERTEX
  5
4024C
330
3F954
100
AcDbEntity
  8
0
 62
     0
 48
5.0
100
AcDbVertex
100
AcDb2dVertex
 10
895.5149469239627
 20
-44.40974748839153
 30
0.0
  0
VERTEX
  5
4024D
330
3F954
100
AcDbEntity
  8
0
 62
     0
 48
5.0
100
AcDbVertex
100
AcDb2dVertex
 10
896.100523140682
 20
-42.06112996607998
 30
0.0
 42
0.0611626302535426
  0
VERTEX
  5
4024E
330
3F954
100
AcDbEntity
  8
0
 62
     0
 48
5.0
100
AcDbVertex
100
AcDb2dVertex
 10
896.1599317076037
 20
-41.57728609674677
 30
0.0
  0
VERTEX
  5
4024F
330
3F954
100
AcDbEntity
  8
0
 62
     0
 48
5.0
100
AcDbVertex
100
AcDb2dVertex
 10
896.1599317076037
 20
-40.67509308462695
 30
0.0
  0
VERTEX
  5
40250
330
3F954
100
AcDbEntity
  8
0
 62
     0
 48
5.0
100
AcDbVertex
100
AcDb2dVertex
 10
889.5099317068456
 20
-40.67509308462695
 30
0.0
  0
VERTEX
  5
40251
330
3F954
100
AcDbEntity
  8
0
 62
     0
 48
5.0
100
AcDbVertex
100
AcDb2dVertex
 10
889.5099317068384
 20
-44.17509308462695
 30
0.0
 42
-0.4142135623729619
  0
VERTEX
  5
40252
330
3F954
100
AcDbEntity
  8
0
 62
     0
 48
5.0
100
AcDbVertex
100
AcDb2dVertex
 10
888.5099317068384
 20
-45.17509308462694
 30
0.0
  0
VERTEX
  5
40253
330
3F954
100
AcDbEntity
  8
0
 62
     0
 48
5.0
100
AcDbVertex
100
AcDb2dVertex
 10
886.0099317068383
 20
-45.17509308462694
 30
0.0
 42
-0.4142135623730951
  0
VERTEX
  5
40254
330
3F954
100
AcDbEntity
  8
0
 62
     0
 48
5.0
100
AcDbVertex
100
AcDb2dVertex
 10
885.0099317068384
 20
-44.17509308462695
 30
0.0
  0
VERTEX
  5
40255
330
3F954
100
AcDbEntity
  8
0
 62
     0
 48
5.0
100
AcDbVertex
100
AcDb2dVertex
 10
885.0099317068384
 20
-43.77509308462549
 30
0.0
 42
-0.4142135623730951
  0
VERTEX
  5
40256
330
3F954
100
AcDbEntity
  8
0
 62
     0
 48
5.0
100
AcDbVertex
100
AcDb2dVertex
 10
885.1099317068369
 20
-43.67509308462695
 30
0.0
  0
VERTEX
  5
40257
330
3F954
100
AcDbEntity
  8
0
 62
     0
 48
5.0
100
AcDbVertex
100
AcDb2dVertex
 10
888.0099317068383
 20
-43.67509308462695
 30
0.0
  0
VERTEX
  5
40258
330
3F954
100
AcDbEntity
  8
0
 62
     0
 48
5.0
100
AcDbVertex
100
AcDb2dVertex
 10
888.0099317067584
 20
-42.4667010629223
 30
0.0
 42
0.3659773818219701
  0
VERTEX
  5
40259
330
3F954
100
AcDbEntity
  8
0
 62
     0
 48
5.0
100
AcDbVertex
100
AcDb2dVertex
 10
887.7599317067947
 20
-42.17089707377318
 30
0.0
 42
-0.3659773818223402
  0
VERTEX
  5
4025A
330
3F954
100
AcDbEntity
  8
0
 62
     0
 48
5.0
100
AcDbVertex
100
AcDb2dVertex
 10
887.5099317068384
 20
-41.87509308462404
 30
0.0
  0
VERTEX
  5
4025B
330
3F954
100
AcDbEntity
  8
0
 62
     0
 48
5.0
100
AcDbVertex
100
AcDb2dVertex
 10
887.5099317068457
 20
-40.67509308462695
 30
0.0
  0
VERTEX
  5
4025C
330
3F954
100
AcDbEntity
  8
0
 62
     0
 48
5.0
100
AcDbVertex
100
AcDb2dVertex
 10
878.8099317068413
 20
-40.67509308462695
 30
0.0
  0
VERTEX
  5
4025D
330
3F954
100
AcDbEntity
  8
0
 62
     0
 48
5.0
100
AcDbVertex
100
AcDb2dVertex
 10
878.5099317068384
 20
-40.37509308462768
 30
0.0
  0
VERTEX
  5
4025E
330
3F954
100
AcDbEntity
  8
0
 62
     0
 48
5.0
100
AcDbVertex
100
AcDb2dVertex
 10
878.2099317068427
 20
-40.67509308462695
 30
0.0
  0
VERTEX
  5
4025F
330
3F954
100
AcDbEntity
  8
0
 62
     0
 48
5.0
100
AcDbVertex
100
AcDb2dVertex
 10
867.5099317068385
 20
-40.67509308462695
 30
0.0
  0
VERTEX
  5
40260
330
3F954
100
AcDbEntity
  8
0
 62
     0
 48
5.0
100
AcDbVertex
100
AcDb2dVertex
 10
867.5099317068385
 20
-41.87509308462404
 30
0.0
 42
-0.3659773818223404
  0
VERTEX
  5
40261
330
3F954
100
AcDbEntity
  8
0
 62
     0
 48
5.0
100
AcDbVertex
100
AcDb2dVertex
 10
867.259931706882
 20
-42.17089707377318
 30
0.0
 42
0.3659773818219701
  0
VERTEX
  5
40262
330
3F954
100
AcDbEntity
  8
0
 62
     0
 48
5.0
100
AcDbVertex
100
AcDb2dVertex
 10
867.0099317069256
 20
-42.4667010629223
 30
0.0
  0
VERTEX
  5
40263
330
3F954
100
AcDbEntity
  8
0
 62
     0
 48
5.0
100
AcDbVertex
100
AcDb2dVertex
 10
867.0099317068384
 20
-43.67509308462695
 30
0.0
  0
VERTEX
  5
40264
330
3F954
100
AcDbEntity
  8
0
 62
     0
 48
5.0
100
AcDbVertex
100
AcDb2dVertex
 10
869.9099317068398
 20
-43.67509308462695
 30
0.0
 42
-0.4142135623730951
  0
VERTEX
  5
40265
330
3F954
100
AcDbEntity
  8
0
 62
     0
 48
5.0
100
AcDbVertex
100
AcDb2dVertex
 10
870.0099317068383
 20
-43.77509308462549
 30
0.0
  0
VERTEX
  5
40266
330
3F954
100
AcDbEntity
  8
0
 62
     0
 48
5.0
100
AcDbVertex
100
AcDb2dVertex
 10
870.0099317068383
 20
-44.17509308462695
 30
0.0
 42
-0.4142135623730951
  0
VERTEX
  5
40267
330
3F954
100
AcDbEntity
  8
0
 62
     0
 48
5.0
100
AcDbVertex
100
AcDb2dVertex
 10
869.0099317068384
 20
-45.17509308462694
 30
0.0
  0
VERTEX
  5
40268
330
3F954
100
AcDbEntity
  8
0
 62
     0
 48
5.0
100
AcDbVertex
100
AcDb2dVertex
 10
866.5099317068383
 20
-45.17509308462694
 30
0.0
 42
-0.4142135623732283
  0
VERTEX
  5
40269
330
3F954
100
AcDbEntity
  8
0
 62
     0
 48
5.0
100
AcDbVertex
100
AcDb2dVertex
 10
865.5099317068383
 20
-44.17509308462331
 30
0.0
  0
VERTEX
  5
4026A
330
3F954
100
AcDbEntity
  8
0
 62
     0
 48
5.0
100
AcDbVertex
100
AcDb2dVertex
 10
865.5099317068456
 20
-40.67509308462695
 30
0.0
  0
VERTEX
  5
4026B
330
3F954
100
AcDbEntity
  8
0
 62
     0
 48
5.0
100
AcDbVertex
100
AcDb2dVertex
 10
860.1099317068369
 20
-40.67509308462331
 30
0.0
 42
0.4142135623730951
  0
VERTEX
  5
4026C
330
3F954
100
AcDbEntity
  8
0
 62
     0
 48
5.0
100
AcDbVertex
100
AcDb2dVertex
 10
859.1099317068369
 20
-41.67509308462331
 30
0.0
  0
VERTEX
  5
4026D
330
3F954
100
AcDbEntity
  8
0
 62
     0
 48
5.0
100
AcDbVertex
100
AcDb2dVertex
 10
859.1099317068369
 20
-55.17509308462695
 30
0.0
  0
VERTEX
  5
4026E
330
3F954
100
AcDbEntity
  8
0
 62
     0
 48
5.0
100
AcDbVertex
100
AcDb2dVertex
 10
860.4099317068399
 20
-55.17509308462695
 30
0.0
  0
VERTEX
  5
4026F
330
3F954
100
AcDbEntity
  8
0
 62
     0
 48
5.0
100
AcDbVertex
100
AcDb2dVertex
 10
860.4099317068399
 20
-54.17509308462695
 30
0.0
  0
VERTEX
  5
40270
330
3F954
100
AcDbEntity
  8
0
 62
     0
 48
5.0
100
AcDbVertex
100
AcDb2dVertex
 10
861.4099317068399
 20
-54.17509308462695
 30
0.0
  0
VERTEX
  5
40271
330
3F954
100
AcDbEntity
  8
0
 62
     0
 48
5.0
100
AcDbVertex
100
AcDb2dVertex
 10
861.4099317068399
 20
-55.17509308462695
 30
0.0
  0
VERTEX
  5
40272
330
3F954
100
AcDbEntity
  8
0
 62
     0
 48
5.0
100
AcDbVertex
100
AcDb2dVertex
 10
862.5099317068384
 20
-55.17509308462695
 30
0.0
  0
VERTEX
  5
40273
330
3F954
100
AcDbEntity
  8
0
 62
     0
 48
5.0
100
AcDbVertex
100
AcDb2dVertex
 10
862.5099317068384
 20
-57.0750930846284
 30
0.0
 42
-0.4142135623730951
  0
VERTEX
  5
40274
330
3F954
100
AcDbEntity
  8
0
 62
     0
 48
5.0
100
AcDbVertex
100
AcDb2dVertex
 10
861.9099317068398
 20
-57.67509308462695
 30
0.0
  0
VERTEX
  5
40275
330
3F954
100
AcDbEntity
  8
0
 62
     0
 48
5.0
100
AcDbVertex
100
AcDb2dVertex
 10
861.5099317068384
 20
-57.67509308462695
 30
0.0
  0
VERTEX
  5
40276
330
3F954
100
AcDbEntity
  8
0
 62
     0
 48
5.0
100
AcDbVertex
100
AcDb2dVertex
 10
861.5099317068384
 20
-56.67509308462695
 30
0.0
  0
VERTEX
  5
40277
330
3F954
100
AcDbEntity
  8
0
 62
     0
 48
5.0
100
AcDbVertex
100
AcDb2dVertex
 10
859.1099317068369
 20
-56.67509308462695
 30
0.0
  0
VERTEX
  5
40278
330
3F954
100
AcDbEntity
  8
0
 62
     0
 48
5.0
100
AcDbVertex
100
AcDb2dVertex
 10
859.1099317068369
 20
-61.17509308462695
 30
0.0
  0
VERTEX
  5
40279
330
3F954
100
AcDbEntity
  8
0
 62
     0
 48
5.0
100
AcDbVertex
100
AcDb2dVertex
 10
861.5099317068384
 20
-61.17509308462695
 30
0.0
  0
VERTEX
  5
4027A
330
3F954
100
AcDbEntity
  8
0
 62
     0
 48
5.0
100
AcDbVertex
100
AcDb2dVertex
 10
861.5099317068384
 20
-60.17509308462695
 30
0.0
  0
VERTEX
  5
4027B
330
3F954
100
AcDbEntity
  8
0
 62
     0
 48
5.0
100
AcDbVertex
100
AcDb2dVertex
 10
861.9099317068398
 20
-60.17509308462695
 30
0.0
 42
-0.4142135623730951
  0
VERTEX
  5
4027C
330
3F954
100
AcDbEntity
  8
0
 62
     0
 48
5.0
100
AcDbVertex
100
AcDb2dVertex
 10
862.5099317068384
 20
-60.77509308462549
 30
0.0
  0
VERTEX
  5
4027D
330
3F954
100
AcDbEntity
  8
0
 62
     0
 48
5.0
100
AcDbVertex
100
AcDb2dVertex
 10
862.5099317068384
 20
-62.67509308462695
 30
0.0
  0
VERTEX
  5
4027E
330
3F954
100
AcDbEntity
  8
0
 62
     0
 48
5.0
100
AcDbVertex
100
AcDb2dVertex
 10
857.5099317068383
 20
-62.67509308462695
 30
0.0
  0
VERTEX
  5
4027F
330
3F954
100
AcDbEntity
  8
0
 62
     0
 48
5.0
100
AcDbVertex
100
AcDb2dVertex
 10
857.5099317068383
 20
-4.675093084623313
 30
0.0
  0
VERTEX
  5
40280
330
3F954
100
AcDbEntity
  8
0
 62
     0
 48
5.0
100
AcDbVertex
100
AcDb2dVertex
 10
870.0099317068383
 20
-4.675093084626951
 30
0.0
 42
-0.4142135623730951
  0
VERTEX
  5
40281
330
3F954
100
AcDbEntity
  8
0
 62
     0
 48
5.0
100
AcDbVertex
100
AcDb2dVertex
 10
871.5099317068384
 20
-6.175093084626951
 30
0.0
  0
VERTEX
  5
40282
330
3F954
100
AcDbEntity
  8
0
 62
     0
 48
5.0
100
AcDbVertex
100
AcDb2dVertex
 10
871.5099317068384
 20
-6.575093084624768
 30
0.0
 42
-0.4142135623730951
  0
VERTEX
  5
40283
330
3F954
100
AcDbEntity
  8
0
 62
     0
 48
5.0
100
AcDbVertex
100
AcDb2dVertex
 10
871.4099317068399
 20
-6.675093084626951
 30
0.0
  0
VERTEX
  5
40284
330
3F954
100
AcDbEntity
  8
0
 62
     0
 48
5.0
100
AcDbVertex
100
AcDb2dVertex
 10
870.8099317069651
 20
-6.675093084626951
 30
0.0
 42
-0.4142135623730951
  0
VERTEX
  5
40285
330
3F954
100
AcDbEntity
  8
0
 62
     0
 48
5.0
100
AcDbVertex
100
AcDb2dVertex
 10
870.509931706962
 20
-6.375093084627678
 30
0.0
 42
0.4142135623730951
  0
VERTEX
  5
40286
330
3F954
100
AcDbEntity
  8
0
 62
     0
 48
5.0
100
AcDbVertex
100
AcDb2dVertex
 10
870.2099317069665
 20
-6.075093084624768
 30
0.0
  0
VERTEX
  5
40287
330
3F954
100
AcDbEntity
  8
0
 62
     0
 48
5.0
100
AcDbVertex
100
AcDb2dVertex
 10
869.2099317068427
 20
-6.075093084624768
 30
0.0
 42
0.4142135623730951
  0
VERTEX
  5
40288
330
3F954
100
AcDbEntity
  8
0
 62
     0
 48
5.0
100
AcDbVertex
100
AcDb2dVertex
 10
868.9099317068398
 20
-6.375093084627678
 30
0.0
  0
VERTEX
  5
40289
330
3F954
100
AcDbEntity
  8
0
 62
     0
 48
5.0
100
AcDbVertex
100
AcDb2dVertex
 10
868.9099317068398
 20
-7.87509308462404
 30
0.0
 42
0.4142135623722072
  0
VERTEX
  5
4028A
330
3F954
100
AcDbEntity
  8
0
 62
     0
 48
5.0
100
AcDbVertex
100
AcDb2dVertex
 10
869.2099317068427
 20
-8.175093084626951
 30
0.0
 42
-0.4142135623722071
  0
VERTEX
  5
4028B
330
3F954
100
AcDbEntity
  8
0
 62
     0
 48
5.0
100
AcDbVertex
100
AcDb2dVertex
 10
869.5099317068384
 20
-8.475093084626223
 30
0.0
  0
VERTEX
  5
4028C
330
3F954
100
AcDbEntity
  8
0
 62
     0
 48
5.0
100
AcDbVertex
100
AcDb2dVertex
 10
869.5099317068384
 20
-9.175093084626951
 30
0.0
 42
0.4142135623730951
  0
VERTEX
  5
4028D
330
3F954
100
AcDbEntity
  8
0
 62
     0
 48
5.0
100
AcDbVertex
100
AcDb2dVertex
 10
870.0099317068383
 20
-9.675093084626951
 30
0.0
  0
VERTEX
  5
4028E
330
3F954
100
AcDbEntity
  8
0
 62
     0
 48
5.0
100
AcDbVertex
100
AcDb2dVertex
 10
878.2099317068427
 20
-9.675093084626951
 30
0.0
  0
VERTEX
  5
4028F
330
3F954
100
AcDbEntity
  8
0
 62
     0
 48
5.0
100
AcDbVertex
100
AcDb2dVertex
 10
878.5099317068384
 20
-9.975093084626223
 30
0.0
  0
VERTEX
  5
40290
330
3F954
100
AcDbEntity
  8
0
 62
     0
 48
5.0
100
AcDbVertex
100
AcDb2dVertex
 10
878.809931706834
 20
-9.675093084626951
 30
0.0
  0
VERTEX
  5
40291
330
3F954
100
AcDbEntity
  8
0
 62
     0
 48
5.0
100
AcDbVertex
100
AcDb2dVertex
 10
887.0099317068383
 20
-9.675093084626951
 30
0.0
 42
0.4142135623730951
  0
VERTEX
  5
40292
330
3F954
100
AcDbEntity
  8
0
 62
     0
 48
5.0
100
AcDbVertex
100
AcDb2dVertex
 10
887.5099317068384
 20
-9.175093084626951
 30
0.0
  0
VERTEX
  5
40293
330
3F954
100
AcDbEntity
  8
0
 62
     0
 48
5.0
100
AcDbVertex
100
AcDb2dVertex
 10
887.5099317068384
 20
-8.475093084626223
 30
0.0
 42
-0.4142135623722071
  0
VERTEX
  5
40294
330
3F954
100
AcDbEntity
  8
0
 62
     0
 48
5.0
100
AcDbVertex
100
AcDb2dVertex
 10
887.8099317068413
 20
-8.175093084626951
 30
0.0
 42
0.4142135623722072
  0
VERTEX
  5
40295
330
3F954
100
AcDbEntity
  8
0
 62
     0
 48
5.0
100
AcDbVertex
100
AcDb2dVertex
 10
888.109931706837
 20
-7.87509308462404
 30
0.0
  0
VERTEX
  5
40296
330
3F954
100
AcDbEntity
  8
0
 62
     0
 48
5.0
100
AcDbVertex
100
AcDb2dVertex
 10
888.109931706837
 20
-6.375093084627678
 30
0.0
 42
0.4142135623722071
  0
VERTEX
  5
40297
330
3F954
100
AcDbEntity
  8
0
 62
     0
 48
5.0
100
AcDbVertex
100
AcDb2dVertex
 10
887.8099317068413
 20
-6.075093084628406
 30
0.0
  0
VERTEX
  5
40298
330
3F954
100
AcDbEntity
  8
0
 62
     0
 48
5.0
100
AcDbVertex
100
AcDb2dVertex
 10
886.8099317067176
 20
-6.075093084624768
 30
0.0
 42
0.414213562373983
  0
VERTEX
  5
40299
330
3F954
100
AcDbEntity
  8
0
 62
     0
 48
5.0
100
AcDbVertex
100
AcDb2dVertex
 10
886.5099317067146
 20
-6.375093084627678
 30
0.0
 42
-0.4142135623730951
  0
VERTEX
  5
4029A
330
3F954
100
AcDbEntity
  8
0
 62
     0
 48
5.0
100
AcDbVertex
100
AcDb2dVertex
 10
886.2099317067118
 20
-6.675093084626951
 30
0.0
  0
VERTEX
  5
4029B
330
3F954
100
AcDbEntity
  8
0
 62
     0
 48
5.0
100
AcDbVertex
100
AcDb2dVertex
 10
885.609931706837
 20
-6.675093084626951
 30
0.0
 42
-0.4142135623730951
  0
VERTEX
  5
4029C
330
3F954
100
AcDbEntity
  8
0
 62
     0
 48
5.0
100
AcDbVertex
100
AcDb2dVertex
 10
885.5099317068457
 20
-6.575093084624768
 30
0.0
  0
VERTEX
  5
4029D
330
3F954
100
AcDbEntity
  8
0
 62
     0
 48
5.0
100
AcDbVertex
100
AcDb2dVertex
 10
885.5099317068384
 20
-6.175093084626951
 30
0.0
 42
-0.4142135623730951
  0
VERTEX
  5
4029E
330
3F954
100
AcDbEntity
  8
0
 62
     0
 48
5.0
100
AcDbVertex
100
AcDb2dVertex
 10
887.0099317068383
 20
-4.675093084626951
 30
0.0
  0
VERTEX
  5
4029F
330
3F954
100
AcDbEntity
  8
0
 62
     0
 48
5.0
100
AcDbVertex
100
AcDb2dVertex
 10
889.5099317068384
 20
-4.675093084626951
 30
0.0
  0
VERTEX
  5
402A0
330
3F954
100
AcDbEntity
  8
0
 62
     0
 48
5.0
100
AcDbVertex
100
AcDb2dVertex
 10
889.5099317068456
 20
-9.675093084623313
 30
0.0
  0
VERTEX
  5
402A1
330
3F954
100
AcDbEntity
  8
0
 62
     0
 48
5.0
100
AcDbVertex
100
AcDb2dVertex
 10
913.0256539579354
 20
-9.675093084623313
 30
0.0
 42
0.408087108900649
  0
VERTEX
  5
402A2
330
3F954
100
AcDbEntity
  8
0
 62
     0
 48
5.0
100
AcDbVertex
100
AcDb2dVertex
 10
914.0254342583652
 20
-8.696053783313345
 30
0.0
 42
-0.0511757267385293
  0
VERTEX
  5
402A3
330
3F954
100
AcDbEntity
  8
0
 62
     0
 48
5.0
100
AcDbVertex
100
AcDb2dVertex
 10
915.7961930554234
 20
5.601326129349672
 30
0.0
 42
0.4819095102308057
  0
VERTEX
  5
402A4
330
3F954
100
AcDbEntity
  8
0
 62
     0
 48
5.0
100
AcDbVertex
100
AcDb2dVertex
 10
914.8215076538113
 20
6.824906915373048
 30
0.0
  0
VERTEX
  5
402A5
330
3F954
100
AcDbEntity
  8
0
 62
     0
 48
5.0
100
AcDbVertex
100
AcDb2dVertex
 10
913.5099317068384
 20
6.824906915373048
 30
0.0
  0
VERTEX
  5
402A6
330
3F954
100
AcDbEntity
  8
0
 62
     0
 48
5.0
100
AcDbVertex
100
AcDb2dVertex
 10
913.5099317068384
 20
5.824906915373048
 30
0.0
  0
VERTEX
  5
402A7
330
3F954
100
AcDbEntity
  8
0
 62
     0
 48
5.0
100
AcDbVertex
100
AcDb2dVertex
 10
912.5099317068384
 20
5.824906915373048
 30
0.0
  0
VERTEX
  5
402A8
330
3F954
100
AcDbEntity
  8
0
 62
     0
 48
5.0
100
AcDbVertex
100
AcDb2dVertex
 10
912.5099317068384
 20
9.124906915372321
 30
0.0
 42
-0.4142135623727146
  0
VERTEX
  5
402A9
330
3F954
100
AcDbEntity
  8
0
 62
     0
 48
5.0
100
AcDbVertex
100
AcDb2dVertex
 10
913.2099317068428
 20
9.824906915373048
 30
0.0
  0
VERTEX
  5
402AA
330
3F954
100
AcDbEntity
  8
0
 62
     0
 48
5.0
100
AcDbVertex
100
AcDb2dVertex
 10
913.4099317068399
 20
9.824906915373048
 30
0.0
 42
-0.4142135623730951
  0
VERTEX
  5
402AB
330
3F954
100
AcDbEntity
  8
0
 62
     0
 48
5.0
100
AcDbVertex
100
AcDb2dVertex
 10
913.5099317068384
 20
9.724906915374504
 30
0.0
  0
VERTEX
  5
402AC
330
3F954
100
AcDbEntity
  8
0
 62
     0
 48
5.0
100
AcDbVertex
100
AcDb2dVertex
 10
913.5099317068384
 20
8.724906915374504
 30
0.0
 42
0.4142135623730951
  0
VERTEX
  5
402AD
330
3F954
100
AcDbEntity
  8
0
 62
     0
 48
5.0
100
AcDbVertex
100
AcDb2dVertex
 10
914.0099317068385
 20
8.224906915374504
 30
0.0
  0
VERTEX
  5
402AE
330
3F954
100
AcDbEntity
  8
0
 62
     0
 48
5.0
100
AcDbVertex
100
AcDb2dVertex
 10
915.7099317068427
 20
8.224906915374504
 30
0.0
 42
0.4142135623730951
  0
VERTEX
  5
402AF
330
3F954
100
AcDbEntity
  8
0
 62
     0
 48
5.0
100
AcDbVertex
100
AcDb2dVertex
 10
916.2099317068427
 20
8.724906915374504
 30
0.0
  0
VERTEX
  5
402B0
330
3F954
100
AcDbEntity
  8
0
 62
     0
 48
5.0
100
AcDbVertex
100
AcDb2dVertex
 10
916.2099317068427
 20
15.42490691537523
 30
0.0
 42
0.4142135623730951
  0
VERTEX
  5
402B1
330
3F954
100
AcDbEntity
  8
0
 62
     0
 48
5.0
100
AcDbVertex
100
AcDb2dVertex
 10
915.7099317068427
 20
15.92490691537523
 30
0.0
  0
VERTEX
  5
402B2
330
3F954
100
AcDbEntity
  8
0
 62
     0
 48
5.0
100
AcDbVertex
100
AcDb2dVertex
 10
914.0099317068385
 20
15.92490691537523
 30
0.0
 42
0.4142135623730951
  0
VERTEX
  5
402B3
330
3F954
100
AcDbEntity
  8
0
 62
     0
 48
5.0
100
AcDbVertex
100
AcDb2dVertex
 10
913.5099317068384
 20
15.42490691537523
 30
0.0
  0
VERTEX
  5
402B4
330
3F954
100
AcDbEntity
  8
0
 62
     0
 48
5.0
100
AcDbVertex
100
AcDb2dVertex
 10
913.5099317068384
 20
14.42490691537523
 30
0.0
 42
-0.4142135623704312
  0
VERTEX
  5
402B5
330
3F954
100
AcDbEntity
  8
0
 62
     0
 48
5.0
100
AcDbVertex
100
AcDb2dVertex
 10
913.4099317068399
 20
14.32490691537305
 30
0.0
  0
VERTEX
  5
402B6
330
3F954
100
AcDbEntity
  8
0
 62
     0
 48
5.0
100
AcDbVertex
100
AcDb2dVertex
 10
913.2099317068428
 20
14.32490691537305
 30
0.0
 42
-0.4142135623727145
  0
VERTEX
  5
402B7
330
3F954
100
AcDbEntity
  8
0
 62
     0
 48
5.0
100
AcDbVertex
100
AcDb2dVertex
 10
912.5099317068384
 20
15.02490691537377
 30
0.0
  0
VERTEX
  5
402B8
330
3F954
100
AcDbEntity
  8
0
 62
     0
 48
5.0
100
AcDbVertex
100
AcDb2dVertex
 10
912.5099317068384
 20
17.2249069153745
 30
0.0
 42
-0.4142135623730951
  0
VERTEX
  5
402B9
330
3F954
100
AcDbEntity
  8
0
 62
     0
 48
5.0
100
AcDbVertex
100
AcDb2dVertex
 10
912.6099317068369
 20
17.32490691537305
 30
0.0
  0
VERTEX
  5
402BA
330
3F954
100
AcDbEntity
  8
0
 62
     0
 48
5.0
100
AcDbVertex
100
AcDb2dVertex
 10
917.4099317068398
 20
17.32490691537305
 30
0.0
 42
-0.4142135623704312
  0
VERTEX
  5
402BB
330
3F954
100
AcDbEntity
  8
0
 62
     0
 48
5.0
100
AcDbVertex
100
AcDb2dVertex
 10
917.5099317068385
 20
17.2249069153745
 30
0.0
  0
VERTEX
  5
402BC
330
3F954
100
AcDbEntity
  8
0
 62
     0
 48
5.0
100
AcDbVertex
100
AcDb2dVertex
 10
917.5099317068385
 20
6.324906915373048
 30
0.0
 42
0.1212121212121292
  0
VERTEX
  5
402BD
330
3F954
100
AcDbEntity
  8
0
 62
     0
 48
5.0
100
AcDbVertex
100
AcDb2dVertex
 10
917.5099317068385
 20
-26.67509308462695
 30
0.0
  0
VERTEX
  5
402BE
330
3F954
100
AcDbEntity
  8
0
 62
     0
 48
5.0
100
AcDbVertex
100
AcDb2dVertex
 10
917.5099317068385
 20
-29.67509308462695
 30
0.0
  0
VERTEX
  5
402BF
330
3F954
100
AcDbEntity
  8
0
 62
     0
 48
5.0
100
AcDbVertex
100
AcDb2dVertex
 10
916.5099317068383
 20
-29.67509308462695
 30
0.0
  0
VERTEX
  5
402C0
330
3F954
100
AcDbEntity
  8
0
 62
     0
 48
5.0
100
AcDbVertex
100
AcDb2dVertex
 10
916.5099317068383
 20
-29.17509308462695
 30
0.0
  0
VERTEX
  5
402C1
330
3F954
100
AcDbEntity
  8
0
 62
     0
 48
5.0
100
AcDbVertex
100
AcDb2dVertex
 10
912.7099317068427
 20
-29.17509308462331
 30
0.0
 42
0.4142135623730951
  0
VERTEX
  5
402C2
330
3F954
100
AcDbEntity
  8
0
 62
     0
 48
5.0
100
AcDbVertex
100
AcDb2dVertex
 10
912.2099317068428
 20
-29.67509308462331
 30
0.0
  0
VERTEX
  5
402C3
330
3F954
100
AcDbEntity
  8
0
 62
     0
 48
5.0
100
AcDbVertex
100
AcDb2dVertex
 10
912.2099317068428
 20
-38.67509308462695
 30
0.0
  0
VERTEX
  5
402C4
330
3F954
100
AcDbEntity
  8
0
 62
     0
 48
5.0
100
AcDbVertex
100
AcDb2dVertex
 10
904.4349317072269
 20
-38.67509308462695
 30
0.0
  0
VERTEX
  5
402C5
330
3F954
100
AcDbEntity
  8
0
 62
     0
 48
5.0
100
AcDbVertex
100
AcDb2dVertex
 10
904.134931707224
 20
-38.37509308462404
 30
0.0
  0
VERTEX
  5
402C6
330
3F954
100
AcDbEntity
  8
0
 62
     0
 48
5.0
100
AcDbVertex
100
AcDb2dVertex
 10
903.8349317072212
 20
-38.67509308462695
 30
0.0
  0
VERTEX
  5
402C7
330
3F954
100
AcDbEntity
  8
0
 62
     0
 48
5.0
100
AcDbVertex
100
AcDb2dVertex
 10
897.6599317076111
 20
-38.67509308462695
 30
0.0
  0
VERTEX
  5
402C8
330
3F954
100
AcDbEntity
  8
0
 62
     0
 48
5.0
100
AcDbVertex
100
AcDb2dVertex
 10
897.6599317076111
 20
-41.37447014365398
 30
0.0
 42
-0.0787016893344727
  0
VERTEX
  5
402C9
330
3F954
100
AcDbEntity
  8
0
 62
     0
 48
5.0
100
AcDbVertex
100
AcDb2dVertex
 10
897.5620447831683
 20
-41.99250400014943
 30
0.0
  0
VERTEX
  5
402CA
330
3F954
100
AcDbEntity
  8
0
 62
     0
 48
5.0
100
AcDbVertex
100
AcDb2dVertex
 10
896.6588557070068
 20
-44.77223480844123
 30
0.0
  0
SEQEND
  5
402CB
330
3F954
100
AcDbEntity
  8
0
 62
     0
 48
5.0
  0
POLYLINE
  5
3FB0A
330
2
100
AcDbEntity
  8
0
 62
     0
 48
5.0
100
AcDb2dPolyline
 66
     1
 10
0.0
 20
0.0
 30
0.0
 70
     1
  0
VERTEX
  5
402CC
330
3FB0A
100
AcDbEntity
  8
0
 62
     0
 48
5.0
100
AcDbVertex
100
AcDb2dVertex
 10
889.5099317068456
 20
-11.07509308462476
 30
0.0
  0
VERTEX
  5
402CD
330
3FB0A
100
AcDbEntity
  8
0
 62
     0
 48
5.0
100
AcDbVertex
100
AcDb2dVertex
 10
895.8599317076082
 20
-11.07509308462476
 30
0.0
  0
VERTEX
  5
402CE
330
3FB0A
100
AcDbEntity
  8
0
 62
     0
 48
5.0
100
AcDbVertex
100
AcDb2dVertex
 10
895.8599317076082
 20
-12.87509308462404
 30
0.0
  0
VERTEX
  5
402CF
330
3FB0A
100
AcDbEntity
  8
0
 62
     0
 48
5.0
100
AcDbVertex
100
AcDb2dVertex
 10
897.2599317076024
 20
-12.87509308462404
 30
0.0
  0
VERTEX
  5
402D0
330
3FB0A
100
AcDbEntity
  8
0
 62
     0
 48
5.0
100
AcDbVertex
100
AcDb2dVertex
 10
897.2599317076024
 20
-11.07509308462476
 30
0.0
  0
VERTEX
  5
402D1
330
3FB0A
100
AcDbEntity
  8
0
 62
     0
 48
5.0
100
AcDbVertex
100
AcDb2dVertex
 10
910.8099317068413
 20
-11.07509308462476
 30
0.0
  0
VERTEX
  5
402D2
330
3FB0A
100
AcDbEntity
  8
0
 62
     0
 48
5.0
100
AcDbVertex
100
AcDb2dVertex
 10
910.8099317068413
 20
-12.07509308462476
 30
0.0
  0
VERTEX
  5
402D3
330
3FB0A
100
AcDbEntity
  8
0
 62
     0
 48
5.0
100
AcDbVertex
100
AcDb2dVertex
 10
911.8099317068413
 20
-12.07509308462476
 30
0.0
  0
VERTEX
  5
402D4
330
3FB0A
100
AcDbEntity
  8
0
 62
     0
 48
5.0
100
AcDbVertex
100
AcDb2dVertex
 10
911.8099317068413
 20
-11.07509308462476
 30
0.0
  0
VERTEX
  5
402D5
330
3FB0A
100
AcDbEntity
  8
0
 62
     0
 48
5.0
100
AcDbVertex
100
AcDb2dVertex
 10
914.1156796794316
 20
-11.07509308462472
 30
0.0
 42
0.057712571320608
  0
VERTEX
  5
402D6
330
3FB0A
100
AcDbEntity
  8
0
 62
     0
 48
5.0
100
AcDbVertex
100
AcDb2dVertex
 10
916.1863218860167
 20
-27.15460691234193
 30
0.0
 42
-0.4874298072107075
  0
VERTEX
  5
402D7
330
3FB0A
100
AcDbEntity
  8
0
 62
     0
 48
5.0
100
AcDbVertex
100
AcDb2dVertex
 10
915.7010558947446
 20
-27.77509308461458
 30
0.0
  0
VERTEX
  5
402D8
330
3FB0A
100
AcDbEntity
  8
0
 62
     0
 48
5.0
100
AcDbVertex
100
AcDb2dVertex
 10
912.3099317068414
 20
-27.77509308462549
 30
0.0
 42
0.4142135623730951
  0
VERTEX
  5
402D9
330
3FB0A
100
AcDbEntity
  8
0
 62
     0
 48
5.0
100
AcDbVertex
100
AcDb2dVertex
 10
910.8099317068413
 20
-29.27509308462549
 30
0.0
  0
VERTEX
  5
402DA
330
3FB0A
100
AcDbEntity
  8
0
 62
     0
 48
5.0
100
AcDbVertex
100
AcDb2dVertex
 10
910.8099317068413
 20
-37.27509308462549
 30
0.0
  0
VERTEX
  5
402DB
330
3FB0A
100
AcDbEntity
  8
0
 62
     0
 48
5.0
100
AcDbVertex
100
AcDb2dVertex
 10
906.2349317072298
 20
-37.27509308462549
 30
0.0
  0
VERTEX
  5
402DC
330
3FB0A
100
AcDbEntity
  8
0
 62
     0
 48
5.0
100
AcDbVertex
100
AcDb2dVertex
 10
906.2349317072225
 20
-36.87509308462404
 30
0.0
  0
VERTEX
  5
402DD
330
3FB0A
100
AcDbEntity
  8
0
 62
     0
 48
5.0
100
AcDbVertex
100
AcDb2dVertex
 10
902.2349317072299
 20
-36.87509308462404
 30
0.0
  0
VERTEX
  5
402DE
330
3FB0A
100
AcDbEntity
  8
0
 62
     0
 48
5.0
100
AcDbVertex
100
AcDb2dVertex
 10
902.2349317072226
 20
-37.27509308462549
 30
0.0
  0
VERTEX
  5
402DF
330
3FB0A
100
AcDbEntity
  8
0
 62
     0
 48
5.0
100
AcDbVertex
100
AcDb2dVertex
 10
895.8599317076082
 20
-37.27509308462549
 30
0.0
  0
VERTEX
  5
402E0
330
3FB0A
100
AcDbEntity
  8
0
 62
     0
 48
5.0
100
AcDbVertex
100
AcDb2dVertex
 10
895.8599317076082
 20
-39.27509308462549
 30
0.0
  0
VERTEX
  5
402E1
330
3FB0A
100
AcDbEntity
  8
0
 62
     0
 48
5.0
100
AcDbVertex
100
AcDb2dVertex
 10
882.5099317068383
 20
-39.27509308462549
 30
0.0
  0
VERTEX
  5
402E2
330
3FB0A
100
AcDbEntity
  8
0
 62
     0
 48
5.0
100
AcDbVertex
100
AcDb2dVertex
 10
882.5099317068383
 20
-38.87509308462404
 30
0.0
  0
VERTEX
  5
402E3
330
3FB0A
100
AcDbEntity
  8
0
 62
     0
 48
5.0
100
AcDbVertex
100
AcDb2dVertex
 10
872.5099317068384
 20
-38.87509308462404
 30
0.0
  0
VERTEX
  5
402E4
330
3FB0A
100
AcDbEntity
  8
0
 62
     0
 48
5.0
100
AcDbVertex
100
AcDb2dVertex
 10
872.5099317068384
 20
-39.27509308462549
 30
0.0
  0
VERTEX
  5
402E5
330
3FB0A
100
AcDbEntity
  8
0
 62
     0
 48
5.0
100
AcDbVertex
100
AcDb2dVertex
 10
859.0099317068384
 20
-39.27509308462549
 30
0.0
  0
VERTEX
  5
402E6
330
3FB0A
100
AcDbEntity
  8
0
 62
     0
 48
5.0
100
AcDbVertex
100
AcDb2dVertex
 10
859.0099317068384
 20
-6.075093084624768
 30
0.0
  0
VERTEX
  5
402E7
330
3FB0A
100
AcDbEntity
  8
0
 62
     0
 48
5.0
100
AcDbVertex
100
AcDb2dVertex
 10
862.8661873908804
 20
-6.075093084624768
 30
0.0
  0
VERTEX
  5
402E8
330
3FB0A
100
AcDbEntity
  8
0
 62
     0
 48
5.0
100
AcDbVertex
100
AcDb2dVertex
 10
863.0461873908807
 20
-6.315093084624821
 30
0.0
 42
0.5249926553339179
  0
VERTEX
  5
402E9
330
3FB0A
100
AcDbEntity
  8
0
 62
     0
 48
5.0
100
AcDbVertex
100
AcDb2dVertex
 10
863.2929297370228
 20
-6.305320123049796
 30
0.0
  0
VERTEX
  5
402EA
330
3FB0A
100
AcDbEntity
  8
0
 62
     0
 48
5.0
100
AcDbVertex
100
AcDb2dVertex
 10
863.3911873908806
 20
-6.150093084625041
 30
0.0
  0
VERTEX
  5
402EB
330
3FB0A
100
AcDbEntity
  8
0
 62
     0
 48
5.0
100
AcDbVertex
100
AcDb2dVertex
 10
863.4894450447388
 20
-6.305320123050067
 30
0.0
 42
0.5249926553342988
  0
VERTEX
  5
402EC
330
3FB0A
100
AcDbEntity
  8
0
 62
     0
 48
5.0
100
AcDbVertex
100
AcDb2dVertex
 10
863.7361873908806
 20
-6.315093084624777
 30
0.0
  0
VERTEX
  5
402ED
330
3FB0A
100
AcDbEntity
  8
0
 62
     0
 48
5.0
100
AcDbVertex
100
AcDb2dVertex
 10
863.9161873908809
 20
-6.075093084624768
 30
0.0
  0
VERTEX
  5
402EE
330
3FB0A
100
AcDbEntity
  8
0
 62
     0
 48
5.0
100
AcDbVertex
100
AcDb2dVertex
 10
867.5099317068385
 20
-6.075093084624768
 30
0.0
  0
VERTEX
  5
402EF
330
3FB0A
100
AcDbEntity
  8
0
 62
     0
 48
5.0
100
AcDbVertex
100
AcDb2dVertex
 10
867.5099317068385
 20
-9.075093084628406
 30
0.0
 42
0.4142135623730951
  0
VERTEX
  5
402F0
330
3FB0A
100
AcDbEntity
  8
0
 62
     0
 48
5.0
100
AcDbVertex
100
AcDb2dVertex
 10
869.5099317068384
 20
-11.0750930846284
 30
0.0
  0
VERTEX
  5
402F1
330
3FB0A
100
AcDbEntity
  8
0
 62
     0
 48
5.0
100
AcDbVertex
100
AcDb2dVertex
 10
870.5099317068384
 20
-11.0750930846284
 30
0.0
  0
VERTEX
  5
402F2
330
3FB0A
100
AcDbEntity
  8
0
 62
     0
 48
5.0
100
AcDbVertex
100
AcDb2dVertex
 10
870.5099317068384
 20
-11.87509308462404
 30
0.0
  0
VERTEX
  5
402F3
330
3FB0A
100
AcDbEntity
  8
0
 62
     0
 48
5.0
100
AcDbVertex
100
AcDb2dVertex
 10
874.5099317068383
 20
-11.87509308462767
 30
0.0
  0
VERTEX
  5
402F4
330
3FB0A
100
AcDbEntity
  8
0
 62
     0
 48
5.0
100
AcDbVertex
100
AcDb2dVertex
 10
874.509931706831
 20
-11.0750930846284
 30
0.0
  0
VERTEX
  5
402F5
330
3FB0A
100
AcDbEntity
  8
0
 62
     0
 48
5.0
100
AcDbVertex
100
AcDb2dVertex
 10
885.5099317068457
 20
-11.0750930846284
 30
0.0
  0
VERTEX
  5
402F6
330
3FB0A
100
AcDbEntity
  8
0
 62
     0
 48
5.0
100
AcDbVertex
100
AcDb2dVertex
 10
885.5099317068457
 20
-11.87509308462404
 30
0.0
  0
VERTEX
  5
402F7
330
3FB0A
100
AcDbEntity
  8
0
 62
     0
 48
5.0
100
AcDbVertex
100
AcDb2dVertex
 10
889.5099317068456
 20
-11.87509308462404
 30
0.0
  0
SEQEND
  5
402F8
330
3FB0A
100
AcDbEntity
  8
0
 62
     0
 48
5.0
  0
VIEWPORT
  5
D68D
330
C
100
AcDbEntity
 67
     1
  8
0
  6
BYBLOCK
 62
     0
 48
0.05
100
AcDbViewport
 10
133.3499914952553
 20
101.599997546291
 30
0.0
 40
241.9415135716025
 41
163.7727022930698
 68
     1
 69
     1
1001
ACAD
1000
MVIEW
1002
{
1070
    16
1010
0.0
1020
0.0
1030
0.0
1010
0.0
1020
0.0
1030
1.0
1040
0.0
1040
163.7727022930698
1040
133.3499914952553
1040
101.599997546291
1040
50.0
1040
0.0
1040
0.0
1070
     0
1070
   100
1070
     1
1070
     1
1070
     0
1070
     0
1070
     0
1070
     0
1040
0.0
1040
0.0
1040
0.0
1040
10.0
1040
10.0
1040
10.0
1040
10.0
1070
     0
1002
{
1002
}
1002
}
  0
VIEWPORT
  5
D68F
330
C
100
AcDbEntity
 67
     1
  8
0
  6
BYBLOCK
 62
     0
 48
0.05
100
AcDbViewport
 10
133.349993944168
 20
101.599993944168
 30
0.0
 40
213.3599903106689
 41
162.5599903106689
 68
     2
 69
     2
1001
ACAD
1000
MVIEW
1002
{
1070
    16
1010
0.0
1020
0.0
1030
0.0
1010
0.0
1020
0.0
1030
1.0
1040
0.0
1040
293.8955062794127
1040
190.5105367298877
1040
130.3007286656822
1040
50.0
1040
0.0
1040
0.0
1070
     0
1070
   100
1070
     1
1070
     1
1070
     0
1070
     1
1070
     0
1070
     0
1040
0.0
1040
0.0
1040
0.0
1040
1.0
1040
1.0
1040
0.0
1040
0.0
1070
     0
1002
{
1002
}
1002
}
  0
ENDSEC
  0
SECTION
  2
OBJECTS
  0
DICTIONARY
  5
7
330
0
100
AcDbDictionary
  3
ACAD_GROUP
350
20
  3
ACAD_LAYOUT
350
B
  3
ACAD_MLINESTYLE
350
21
  3
ACAD_PLOTSETTINGS
350
22
  3
ACADDIM
350
3F65B
1001
ACAD
1000
TREAT_AS_HARD
1070
     0
  0
DICTIONARY
  5
2A172
330
10
100
AcDbDictionary
  3
ACAD_LAYERFILTERS
350
2A173
  3
ACAD_LAYERSTATES
350
2A3E5
1001
ACAD
1000
TREAT_AS_HARD
1070
     1
  0
DICTIONARY
  5
40245
330
2
100
AcDbDictionary
  3
ACAD_LAYOUTSELFREF
350
40246
  0
DICTIONARY
  5
40247
330
C
100
AcDbDictionary
  3
ACAD_LAYOUTSELFREF
350
40248
  0
DICTIONARY
  5
20
102
{ACAD_REACTORS
330
7
102
}
330
7
100
AcDbDictionary
1001
ACAD
1000
TREAT_AS_HARD
1070
     0
  0
DICTIONARY
  5
B
102
{ACAD_REACTORS
330
7
102
}
330
7
100
AcDbDictionary
1001
ACAD
1000
TREAT_AS_HARD
1070
     0
  0
DICTIONARY
  5
21
102
{ACAD_REACTORS
330
7
102
}
330
7
100
AcDbDictionary
  3
STANDARD
350
23
1001
ACAD
1000
TREAT_AS_HARD
1070
     0
  0
DICTIONARY
  5
22
102
{ACAD_REACTORS
330
7
102
}
330
7
100
AcDbDictionary
1001
ACAD
1000
TREAT_AS_HARD
1070
     0
  0
XRECORD
  5
3F65B
102
{ACAD_REACTORS
330
7
102
}
330
7
100
AcDbXrecord
 90
   990106
  3

 60
     0
 61
     0
 62
     1
 63
     3
 64
     0
 65
     0
 66
     0
 67
     3
 68
     1
 69
     0
 70
     0
 71
     0
 72
     0
 40
0.0
170
     0
340
4023A
  0
DICTIONARY
  5
2A173
102
{ACAD_REACTORS
330
2A172
102
}
330
2A172
100
AcDbDictionary
  3
032
350
3A0B8
  3
032G
350
3A0B9
  3
1
350
2A174
  3
12
350
2A175
  3
2
350
2FD23
  3
220G
350
3A0BA
  3
232
350
3DBA9
  3
245
350
2FD24
  3
3D
350
3AEE4
  3
600
350
3A0BB
  3
720
350
3A0BC
  3
720G
350
3A0BD
  3
A
350
3DBAA
  3
A000D
350
3A0BE
  3
A032G
350
3A0BF
  3
AA
350
2A176
  3
ADLER
350
3DBAB
  3
ALEV07
350
3A0C0
  3
BOUNARY
350
3A0C1
  3
DIMS
350
3A0C2
  3
DSD
350
3A0C3
  3
DUVAR
350
3DBAC
  3
FIRE_STRATEGY
350
3A0C4
  3
FIRST_FLOOR
350
3A0C5
  3
FROZEN
350
3A0C6
  3
GRID
350
3A0C7
  3
GROUND_FLOOR
350
3A0C8
  3
LIGHTING
350
3A0C9
  3
MECHANICAL
350
3A0CA
  3
OFF
350
2FD25
  3
ON
350
2FD26
  3
PANEL
350
3DBAD
  3
PLUMBING
350
3A0CB
  3
POWER
350
3A0CC
  3
PROF\U+0131L
350
3DBAE
  3
RSFL
350
3A0CD
  3
SS
350
2A177
  3
TAGS
350
3A0CE
1001
ACAD
1000
TREAT_AS_HARD
1070
     1
  0
DICTIONARY
  5
2A3E5
102
{ACAD_REACTORS
330
2A172
102
}
330
2A172
100
AcDbDictionary
1001
ACAD
1000
TREAT_AS_HARD
1070
     0
  0
XRECORD
  5
40246
102
{ACAD_REACTORS
330
40245
102
}
330
40245
100
AcDbXrecord
340
2
  0
XRECORD
  5
40248
102
{ACAD_REACTORS
330
40247
102
}
330
40247
100
AcDbXrecord
340
C
  0
MLINESTYLE
  5
23
102
{ACAD_REACTORS
330
21
102
}
330
21
100
AcDbMlineStyle
  2
STANDARD
 70
     0
  3

 62
   256
 51
90.0
 52
90.0
 71
     2
 49
0.5
 62
   256
  6
BYLAYER
 49
-0.5
 62
   256
  6
BYLAYER
  0
XRECORD
  5
3A0B8
102
{ACAD_REACTORS
330
2A173
102
}
330
2A173
100
AcDbXrecord
  1
032
  1
*032*
  1
*
  1
*
 70
     0
  1
*
  1
*
  0
XRECORD
  5
3A0B9
102
{ACAD_REACTORS
330
2A173
102
}
330
2A173
100
AcDbXrecord
  1
032G
  1
*032G*
  1
*
  1
*
 70
     0
  1
*
  1
*
  0
XRECORD
  5
2A174
102
{ACAD_REACTORS
330
2A173
102
}
330
2A173
100
AcDbXrecord
  1
1
  1
*
  1
*
  1
*
 70
  1367
  1
*
  1
*
  0
XRECORD
  5
2A175
102
{ACAD_REACTORS
330
2A173
102
}
330
2A173
100
AcDbXrecord
  1
12
  1
*
  1
ALL
  1
L
 70
  1493
  1
L
  1
L
  0
XRECORD
  5
2FD23
102
{ACAD_REACTORS
330
2A173
102
}
330
2A173
100
AcDbXrecord
  1
2
  1
*
  1
*
  1
*
 70
     4
  1
*
  1
*
  0
XRECORD
  5
3A0BA
102
{ACAD_REACTORS
330
2A173
102
}
330
2A173
100
AcDbXrecord
  1
220g
  1
*220*
  1
*
  1
*
 70
     0
  1
*
  1
*
  0
XRECORD
  5
3DBA9
102
{ACAD_REACTORS
330
2A173
102
}
330
2A173
100
AcDbXrecord
  1
232
  1
LAYER5
  1
*
  1
*
 70
     0
  1
*
  1
*
  0
XRECORD
  5
2FD24
102
{ACAD_REACTORS
330
2A173
102
}
330
2A173
100
AcDbXrecord
  1
245
  1
*
  1
245
  1
*
 70
     0
  1
*
  1
*
  0
XRECORD
  5
3AEE4
102
{ACAD_REACTORS
330
2A173
102
}
330
2A173
100
AcDbXrecord
  1
3D
  1
*
  1
*
  1
*
 70
     1
  1
*
  1
*
  0
XRECORD
  5
3A0BB
102
{ACAD_REACTORS
330
2A173
102
}
330
2A173
100
AcDbXrecord
  1
600
  1
*600*
  1
*
  1
*
 70
     0
  1
*
  1
*
  0
XRECORD
  5
3A0BC
102
{ACAD_REACTORS
330
2A173
102
}
330
2A173
100
AcDbXrecord
  1
720
  1
*720g*
  1
*
  1
*
 70
     0
  1
*
  1
*
  0
XRECORD
  5
3A0BD
102
{ACAD_REACTORS
330
2A173
102
}
330
2A173
100
AcDbXrecord
  1
720g
  1
*720*
  1
*
  1
*
 70
     0
  1
*
  1
*
  0
XRECORD
  5
3DBAA
102
{ACAD_REACTORS
330
2A173
102
}
330
2A173
100
AcDbXrecord
  1
A
  1
SOL1,SOL2,SOL3,SOL4,SOL5
  1
*
  1
*
 70
     0
  1
*
  1
*
  0
XRECORD
  5
3A0BE
102
{ACAD_REACTORS
330
2A173
102
}
330
2A173
100
AcDbXrecord
  1
A000D
  1
A000D*
  1
*
  1
*
 70
     0
  1
*
  1
*
  0
XRECORD
  5
3A0BF
102
{ACAD_REACTORS
330
2A173
102
}
330
2A173
100
AcDbXrecord
  1
A032G
  1
*a032G
  1
*
  1
*
 70
     0
  1
*
  1
*
  0
XRECORD
  5
2A176
102
{ACAD_REACTORS
330
2A173
102
}
330
2A173
100
AcDbXrecord
  1
aa
  1
*
  1
*
  1
*
 70
     0
  1
*
  1
*
  0
XRECORD
  5
3DBAB
102
{ACAD_REACTORS
330
2A173
102
}
330
2A173
100
AcDbXrecord
  1
adler
  1
aadler*,xre*
  1
*
  1
*
 70
     0
  1
*
  1
*
  0
XRECORD
  5
3A0C0
102
{ACAD_REACTORS
330
2A173
102
}
330
2A173
100
AcDbXrecord
  1
ALEV07
  1
ALEV07*
  1
*
  1
*
 70
     0
  1
*
  1
*
  0
XRECORD
  5
3A0C1
102
{ACAD_REACTORS
330
2A173
102
}
330
2A173
100
AcDbXrecord
  1
BOUNARY
  1
*BOUND*
  1
*
  1
*
 70
     0
  1
*
  1
*
  0
XRECORD
  5
3A0C2
102
{ACAD_REACTORS
330
2A173
102
}
330
2A173
100
AcDbXrecord
  1
dims
  1
*00d
  1
*
  1
*
 70
     0
  1
*
  1
*
  0
XRECORD
  5
3A0C3
102
{ACAD_REACTORS
330
2A173
102
}
330
2A173
100
AcDbXrecord
  1
DSD
  1
*720G*
  1
*
  1
*
 70
     0
  1
*
  1
*
  0
XRECORD
  5
3DBAC
102
{ACAD_REACTORS
330
2A173
102
}
330
2A173
100
AcDbXrecord
  1
DUVAR
  1
*DUVAR,DV
  1
*
  1
*
 70
     0
  1
*
  1
*
  0
XRECORD
  5
3A0C4
102
{ACAD_REACTORS
330
2A173
102
}
330
2A173
100
AcDbXrecord
  1
Fire strategy
  1
Fire*
  1
*
  1
*
 70
     0
  1
*
  1
*
  0
XRECORD
  5
3A0C5
102
{ACAD_REACTORS
330
2A173
102
}
330
2A173
100
AcDbXrecord
  1
First Floor
  1
*01
  1
*
  1
*
 70
     0
  1
*
  1
*
  0
XRECORD
  5
3A0C6
102
{ACAD_REACTORS
330
2A173
102
}
330
2A173
100
AcDbXrecord
  1
frozen
  1
*
  1
*
  1
*
 70
     4
  1
*
  1
*
  0
XRECORD
  5
3A0C7
102
{ACAD_REACTORS
330
2A173
102
}
330
2A173
100
AcDbXrecord
  1
GRID
  1
*A032*
  1
*
  1
*
 70
     0
  1
*
  1
*
  0
XRECORD
  5
3A0C8
102
{ACAD_REACTORS
330
2A173
102
}
330
2A173
100
AcDbXrecord
  1
Ground Floor
  1
*00
  1
*
  1
*
 70
     0
  1
*
  1
*
  0
XRECORD
  5
3A0C9
102
{ACAD_REACTORS
330
2A173
102
}
330
2A173
100
AcDbXrecord
  1
Lighting
  1
light*
  1
*
  1
*
 70
     0
  1
*
  1
*
  0
XRECORD
  5
3A0CA
102
{ACAD_REACTORS
330
2A173
102
}
330
2A173
100
AcDbXrecord
  1
Mechanical
  1
mech*
  1
*
  1
*
 70
     0
  1
*
  1
*
  0
XRECORD
  5
2FD25
102
{ACAD_REACTORS
330
2A173
102
}
330
2A173
100
AcDbXrecord
  1
off
  1
*
  1
*
  1
*
 70
     3
  1
*
  1
*
  0
XRECORD
  5
2FD26
102
{ACAD_REACTORS
330
2A173
102
}
330
2A173
100
AcDbXrecord
  1
on
  1
*
  1
*
  1
*
 70
     1
  1
*
  1
*
  0
XRECORD
  5
3DBAD
102
{ACAD_REACTORS
330
2A173
102
}
330
2A173
100
AcDbXrecord
  1
panel
  1
*
  1
21
  1
*
 70
     0
  1
*
  1
*
  0
XRECORD
  5
3A0CB
102
{ACAD_REACTORS
330
2A173
102
}
330
2A173
100
AcDbXrecord
  1
Plumbing
  1
P+D*
  1
*
  1
*
 70
     0
  1
*
  1
*
  0
XRECORD
  5
3A0CC
102
{ACAD_REACTORS
330
2A173
102
}
330
2A173
100
AcDbXrecord
  1
Power
  1
Power*
  1
*
  1
*
 70
     0
  1
*
  1
*
  0
XRECORD
  5
3DBAE
102
{ACAD_REACTORS
330
2A173
102
}
330
2A173
100
AcDbXrecord
  1
prof\U+0131l
  1
*
  1
*
  1
*
 70
     0
  1
*
  1
*
  0
XRECORD
  5
3A0CD
102
{ACAD_REACTORS
330
2A173
102
}
330
2A173
100
AcDbXrecord
  1
rsfl
  1
a33*
  1
*
  1
*
 70
     0
  1
*
  1
*
  0
XRECORD
  5
2A177
102
{ACAD_REACTORS
330
2A173
102
}
330
2A173
100
AcDbXrecord
  1
ss
  1
*
  1
*
  1
*
 70
     0
  1
*
  1
*
  0
XRECORD
  5
3A0CE
102
{ACAD_REACTORS
330
2A173
102
}
330
2A173
100
AcDbXrecord
  1
tags
  1
*220t
  1
*
  1
*
 70
     0
  1
*
  1
*
  0
ENDSEC
  0
EOF
