  0
SECTION
  2
HEADER
  9
$ACADVER
  1
AC1009
  9
$INSBASE
 10
0.0
 20
0.0
 30
0.0
  9
$EXTMIN
 10
411.2969985270139
 20
716.02487335124135
 30
-0.0015258207003583
  9
$EXTMAX
 10
560.42724723511765
 20
808.1575940600103
 30
0.0000000349246037
  9
$LIMMIN
 10
0.0
 20
0.0
  9
$LIMMAX
 10
420.0
 20
297.0
  9
$ORTHOMODE
 70
     0
  9
$REGENMODE
 70
     1
  9
$FILLMODE
 70
     1
  9
$QTEXTMODE
 70
     0
  9
$MIRRTEXT
 70
     0
  9
$DRAGMODE
 70
     2
  9
$LTSCALE
 40
1.0
  9
$OSMODE
 70
  3071
  9
$ATTMODE
 70
     1
  9
$TEXTSIZE
 40
2.5
  9
$TRACEWID
 40
1.0
  9
$TEXTSTYLE
  7
STANDARD
  9
$CLAYER
  8
0
  9
$CELTYPE
  6
BYLAYER
  9
$CECOLOR
 62
   256
  9
$DIMSCALE
 40
1.0
  9
$DIMASZ
 40
2.5
  9
$DIMEXO
 40
0.625
  9
$DIMDLI
 40
3.75
  9
$DIMRND
 40
0.0
  9
$DIMDLE
 40
0.0
  9
$DIMEXE
 40
1.25
  9
$DIMTP
 40
0.0
  9
$DIMTM
 40
0.0
  9
$DIMTXT
 40
2.5
  9
$DIMCEN
 40
2.5
  9
$DIMTSZ
 40
0.0
  9
$DIMTOL
 70
     0
  9
$DIMLIM
 70
     0
  9
$DIMTIH
 70
     0
  9
$DIMTOH
 70
     0
  9
$DIMSE1
 70
     0
  9
$DIMSE2
 70
     0
  9
$DIMTAD
 70
     1
  9
$DIMZIN
 70
     8
  9
$DIMBLK
  1

  9
$DIMASO
 70
     1
  9
$DIMSHO
 70
     1
  9
$DIMPOST
  1

  9
$DIMAPOST
  1

  9
$DIMALT
 70
     0
  9
$DIMALTD
 70
     3
  9
$DIMALTF
 40
0.03937007874016
  9
$DIMLFAC
 40
1.0
  9
$DIMTOFL
 70
     1
  9
$DIMTVP
 40
0.0
  9
$DIMTIX
 70
     0
  9
$DIMSOXD
 70
     0
  9
$DIMSAH
 70
     0
  9
$DIMBLK1
  1

  9
$DIMBLK2
  1

  9
$DIMSTYLE
  2
ISO-25
  9
$DIMCLRD
 70
     0
  9
$DIMCLRE
 70
     0
  9
$DIMCLRT
 70
     0
  9
$DIMTFAC
 40
1.0
  9
$DIMGAP
 40
0.625
  9
$LUNITS
 70
     2
  9
$LUPREC
 70
     4
  9
$SKETCHINC
 40
1.0
  9
$FILLETRAD
 40
0.0
  9
$AUNITS
 70
     0
  9
$AUPREC
 70
     0
  9
$MENU
  1
.
  9
$ELEVATION
 40
0.0
  9
$PELEVATION
 40
0.0
  9
$THICKNESS
 40
0.0
  9
$LIMCHECK
 70
     0
  9
$BLIPMODE
 70
     0
  9
$CHAMFERA
 40
0.0
  9
$CHAMFERB
 40
0.0
  9
$SKPOLY
 70
     0
  9
$TDCREATE
 40
2456602.4657301619
  9
$TDUPDATE
 40
2456602.4658546532
  9
$TDINDWG
 40
0.0001247801
  9
$TDUSRTIMER
 40
0.0001247801
  9
$USRTIMER
 70
     1
  9
$ANGBASE
 50
0.0
  9
$ANGDIR
 70
     0
  9
$PDMODE
 70
     0
  9
$PDSIZE
 40
0.0
  9
$PLINEWID
 40
0.0
  9
$COORDS
 70
     0
  9
$SPLFRAME
 70
     0
  9
$SPLINETYPE
 70
     6
  9
$SPLINESEGS
 70
     8
  9
$ATTDIA
 70
     0
  9
$ATTREQ
 70
     1
  9
$HANDLING
 70
     1
  9
$HANDSEED
  5
301
  9
$SURFTAB1
 70
     6
  9
$SURFTAB2
 70
     6
  9
$SURFTYPE
 70
     6
  9
$SURFU
 70
     6
  9
$SURFV
 70
     6
  9
$UCSNAME
  2

  9
$UCSORG
 10
0.0
 20
0.0
 30
0.0
  9
$UCSXDIR
 10
1.0
 20
0.0
 30
0.0
  9
$UCSYDIR
 10
0.0
 20
1.0
 30
0.0
  9
$PUCSNAME
  2

  9
$PUCSORG
 10
0.0
 20
0.0
 30
0.0
  9
$PUCSXDIR
 10
1.0
 20
0.0
 30
0.0
  9
$PUCSYDIR
 10
0.0
 20
1.0
 30
0.0
  9
$USERI1
 70
     0
  9
$USERI2
 70
     0
  9
$USERI3
 70
     0
  9
$USERI4
 70
     0
  9
$USERI5
 70
     0
  9
$USERR1
 40
0.0
  9
$USERR2
 40
0.0
  9
$USERR3
 40
0.0
  9
$USERR4
 40
0.0
  9
$USERR5
 40
0.0
  9
$WORLDVIEW
 70
     1
  9
$SHADEDGE
 70
     3
  9
$SHADEDIF
 70
    70
  9
$TILEMODE
 70
     1
  9
$MAXACTVP
 70
    64
  9
$PLIMCHECK
 70
     0
  9
$PEXTMIN
 10
0.0
 20
0.0
 30
0.0
  9
$PEXTMAX
 10
0.0
 20
0.0
 30
0.0
  9
$PLIMMIN
 10
0.0
 20
0.0
  9
$PLIMMAX
 10
12.0
 20
9.0
  9
$UNITMODE
 70
     0
  9
$VISRETAIN
 70
     1
  9
$PLINEGEN
 70
     0
  9
$PSLTSCALE
 70
     1
  0
ENDSEC
  0
SECTION
  2
TABLES
  0
TABLE
  2
VPORT
 70
     2
  0
VPORT
  2
*ACTIVE
 70
     0
 10
0.0
 20
0.0
 11
1.0
 21
1.0
 12
485.86212288106572
 22
762.09123370562588
 13
0.0
 23
0.0
 14
10.0
 24
10.0
 15
10.0
 25
10.0
 16
0.0
 26
0.0
 36
1.0
 17
0.0
 27
0.0
 37
0.0
 40
92.987119973455947
 41
2.0743034055727549
 42
50.0
 43
0.0
 44
0.0
 50
0.0
 51
0.0
 71
     0
 72
  1000
 73
     1
 74
     3
 75
     0
 76
     0
 77
     0
 78
     0
  0
ENDTAB
  0
TABLE
  2
LTYPE
 70
     1
  0
LTYPE
  2
CONTINUOUS
 70
     0
  3
Solid line
 72
    65
 73
     0
 40
0.0
  0
ENDTAB
  0
TABLE
  2
LAYER
 70
     1
  0
LAYER
  2
0
 70
     0
 62
     7
  6
CONTINUOUS
  0
ENDTAB
  0
TABLE
  2
STYLE
 70
     2
  0
STYLE
  2
STANDARD
 70
     0
 40
0.0
 41
1.0
 50
0.0
 71
     0
 42
2.5
  3
txt
  4

  0
STYLE
  2
ROMANT
 70
     0
 40
2.5
 41
1.0
 50
15.0
 71
     0
 42
2.5
  3
romant.shx
  4

  0
ENDTAB
  0
TABLE
  2
VIEW
 70
     0
  0
ENDTAB
  0
TABLE
  2
UCS
 70
     0
  0
ENDTAB
  0
TABLE
  2
APPID
 70
     1
  0
APPID
  2
ACAD
 70
     0
  0
ENDTAB
  0
TABLE
  2
DIMSTYLE
 70
     2
  0
DIMSTYLE
  2
ISO-25
 70
     0
  3

  4

  5

  6

  7

 40
1.0
 41
2.5
 42
0.625
 43
3.75
 44
1.25
 45
0.0
 46
0.0
 47
0.0
 48
0.0
140
2.5
141
2.5
142
0.0
143
0.03937007874016
144
1.0
145
0.0
146
1.0
147
0.625
 71
     0
 72
     0
 73
     0
 74
     0
 75
     0
 76
     0
 77
     1
 78
     8
170
     0
171
     3
172
     1
173
     0
174
     0
175
     0
176
     0
177
     0
178
     0
  0
DIMSTYLE
  2
ISO-25_1_E_1
 70
     0
  3

  4

  5

  6

  7

 40
1.0
 41
2.5
 42
0.0
 43
3.75
 44
0.5
 45
0.0
 46
0.0
 47
0.0
 48
0.0
140
1.0
141
0.2
142
0.0
143
0.03937007874016
144
1.0
145
0.0
146
1.0
147
0.4
 71
     0
 72
     0
 73
     0
 74
     0
 75
     0
 76
     0
 77
     1
 78
     8
170
     0
171
     3
172
     0
173
     0
174
     0
175
     0
176
   242
177
   242
178
   242
  0
ENDTAB
  0
ENDSEC
  0
SECTION
  2
BLOCKS
  0
BLOCK
  8
0
  2
$MODEL_SPACE
 70
     0
 10
0.0
 20
0.0
 30
0.0
  3
$MODEL_SPACE
  1

  0
ENDBLK
  5
21
  8
0
  0
BLOCK
 67
     1
  8
0
  2
$PAPER_SPACE
 70
     0
 10
0.0
 20
0.0
 30
0.0
  3
$PAPER_SPACE
  1

  0
ENDBLK
  5
53
 67
     1
  8
0
  0
BLOCK
  8
0
  2
*X2
 70
     1
 10
0.0
 20
0.0
 30
0.0
  3
*X2
  1

  0
LINE
  5
EE
  8
0
 62
     0
 10
148.89849520106591
 20
-0.0000002040667368
 30
0.0
 11
149.10388597354441
 21
0.2053905684117581
 31
0.0
  0
LINE
  5
EF
  8
0
 62
     0
 10
147.77596318593231
 20
-0.0000002040666232
 30
0.0
 11
149.10388597354441
 21
1.3279225835453869
 31
0.0
  0
LINE
  5
F0
  8
0
 62
     0
 10
146.65343117079871
 20
-0.0000002040666232
 30
0.0
 11
149.10388597354421
 21
2.4504545986789021
 31
0.0
  0
LINE
  5
F1
  8
0
 62
     0
 10
145.53089915566511
 20
-0.0000002040666232
 30
0.0
 11
149.10388597354441
 21
3.5729866138126449
 31
0.0
  0
LINE
  5
F2
  8
0
 62
     0
 10
147.10388597354429
 20
2.695518628946274
 30
0.0
 11
149.10388597354441
 21
4.6955186289462736
 31
0.0
  0
LINE
  5
F3
  8
0
 62
     0
 10
144.4083671405314
 20
-0.0000002040667368
 30
0.0
 11
146.4083671405316
 21
1.9999997959334901
 31
0.0
  0
LINE
  5
F4
  8
0
 62
     0
 10
147.10388597354429
 20
3.8180506440799031
 30
0.0
 11
149.10388597354441
 21
5.8180506440799027
 31
0.0
  0
LINE
  5
F5
  8
0
 62
     0
 10
143.28583512539791
 20
-0.0000002040666232
 30
0.0
 11
145.28583512539791
 21
1.9999997959334901
 31
0.0
  0
LINE
  5
F6
  8
0
 62
     0
 10
147.10388597354449
 20
4.9405826592136464
 30
0.0
 11
149.10388597354421
 21
6.9405826592134181
 31
0.0
  0
LINE
  5
F7
  8
0
 62
     0
 10
142.1633031102642
 20
-0.0000002040666232
 30
0.0
 11
144.1633031102642
 21
1.999999795933376
 31
0.0
  0
LINE
  5
F8
  8
0
 62
     0
 10
147.10388597354449
 20
6.0631146743472746
 30
0.0
 11
149.10388597354441
 21
8.0631146743471618
 31
0.0
  0
LINE
  5
F9
  8
0
 62
     0
 10
141.04077109513059
 20
-0.0000002040666232
 30
0.0
 11
143.04077109513071
 21
1.9999997959334901
 31
0.0
  0
LINE
  5
FA
  8
0
 62
     0
 10
147.10388597354449
 20
7.1856466894809037
 30
0.0
 11
149.10388597354441
 21
9.1856466894807909
 31
0.0
  0
LINE
  5
FB
  8
0
 62
     0
 10
139.91823907999679
 20
-0.0000002040667368
 30
0.0
 11
141.91823907999711
 21
1.9999997959334901
 31
0.0
  0
LINE
  5
FC
  8
0
 62
     0
 10
147.10388597354429
 20
8.3081787046144182
 30
0.0
 11
149.10388597354441
 21
10.30817870461442
 31
0.0
  0
LINE
  5
FD
  8
0
 62
     0
 10
138.79570706486339
 20
-0.0000002040666232
 30
0.0
 11
140.79570706486339
 21
1.9999997959334901
 31
0.0
  0
LINE
  5
FE
  8
0
 62
     0
 10
147.10388597354449
 20
9.4307107197480491
 30
0.0
 11
149.10388597354449
 21
11.430710719748159
 31
0.0
  0
LINE
  5
FF
  8
0
 62
     0
 10
137.67317504972971
 20
-0.0000002040666232
 30
0.0
 11
139.67317504972971
 21
1.999999795933376
 31
0.0
  0
LINE
  5
100
  8
0
 62
     0
 10
147.10388597354449
 20
10.55324273488179
 30
0.0
 11
149.10388597354449
 21
12.55324273488179
 31
0.0
  0
LINE
  5
101
  8
0
 62
     0
 10
136.55064303459599
 20
-0.0000002040666232
 30
0.0
 11
138.55064303459599
 21
1.999999795933376
 31
0.0
  0
LINE
  5
102
  8
0
 62
     0
 10
147.10388597354449
 20
11.675774750015419
 30
0.0
 11
149.10388597354441
 21
13.675774750015311
 31
0.0
  0
LINE
  5
103
  8
0
 62
     0
 10
135.42811101946231
 20
-0.0000002040667368
 30
0.0
 11
137.42811101946251
 21
1.9999997959334901
 31
0.0
  0
LINE
  5
104
  8
0
 62
     0
 10
147.10388597354449
 20
12.79830676514916
 30
0.0
 11
149.10388597354421
 21
14.798306765148929
 31
0.0
  0
LINE
  5
105
  8
0
 62
     0
 10
134.30557900432879
 20
-0.0000002040666232
 30
0.0
 11
136.30557900432859
 21
1.9999997959332629
 31
0.0
  0
LINE
  5
106
  8
0
 62
     0
 10
147.10388597354449
 20
13.920838780282789
 30
0.0
 11
149.10388597354441
 21
15.920838780282679
 31
0.0
  0
LINE
  5
107
  8
0
 62
     0
 10
133.18304698919491
 20
-0.0000002040667368
 30
0.0
 11
135.18304698919499
 21
1.999999795933376
 31
0.0
  0
LINE
  5
108
  8
0
 62
     0
 10
147.10388597354429
 20
15.04337079541642
 30
0.0
 11
149.10388597354441
 21
17.043370795416418
 31
0.0
  0
LINE
  5
109
  8
0
 62
     0
 10
132.06051497406119
 20
-0.0000002040667368
 30
0.0
 11
134.06051497406139
 21
1.9999997959334901
 31
0.0
  0
LINE
  5
10A
  8
0
 62
     0
 10
147.10388597354429
 20
16.165902810550051
 30
0.0
 11
149.10388597354441
 21
18.165902810550051
 31
0.0
  0
LINE
  5
10B
  8
0
 62
     0
 10
130.93798295892771
 20
-0.0000002040666232
 30
0.0
 11
132.93798295892779
 21
1.9999997959334901
 31
0.0
  0
LINE
  5
10C
  8
0
 62
     0
 10
146.72774876798059
 20
16.91229762011994
 30
0.0
 11
149.10388597354421
 21
19.28843482568357
 31
0.0
  0
LINE
  5
10D
  8
0
 62
     0
 10
129.81545094379399
 20
-0.0000002040666232
 30
0.0
 11
131.81545094379399
 21
1.999999795933376
 31
0.0
  0
LINE
  5
10E
  8
0
 62
     0
 10
145.21743602671691
 20
16.524516893989809
 30
0.0
 11
149.10388597354441
 21
20.410966840817309
 31
0.0
  0
LINE
  5
10F
  8
0
 62
     0
 10
128.69291892866039
 20
-0.0000002040666232
 30
0.0
 11
130.6929189286605
 21
1.9999997959334901
 31
0.0
  0
LINE
  5
110
  8
0
 62
     0
 10
144.13491470742289
 20
16.564527589829481
 30
0.0
 11
145.8928155581925
 21
18.322428440599079
 31
0.0
  0
LINE
  5
111
  8
0
 62
     0
 10
146.48146343239429
 20
18.91107631480088
 30
0.0
 11
149.10388597354441
 21
21.533498855950938
 31
0.0
  0
LINE
  5
112
  8
0
 62
     0
 10
127.5703869135267
 20
-0.0000002040667368
 30
0.0
 11
129.5703869135269
 21
1.9999997959334901
 31
0.0
  0
LINE
  5
113
  8
0
 62
     0
 10
143.29148993729649
 20
16.843634834836731
 30
0.0
 11
144.47507091538051
 21
18.027215812920758
 31
0.0
  0
LINE
  5
114
  8
0
 62
     0
 10
146.7766760600727
 20
20.328820957612951
 30
0.0
 11
149.10388597354441
 21
22.656030871084571
 31
0.0
  0
LINE
  5
115
  8
0
 62
     0
 10
126.4478548983933
 20
-0.0000002040666232
 30
0.0
 11
128.4478548983933
 21
1.9999997959334901
 31
0.0
  0
LINE
  5
116
  8
0
 62
     0
 10
142.6035045813384
 20
17.278181494012301
 30
0.0
 11
143.67463356724389
 21
18.34931047991779
 31
0.0
  0
LINE
  5
117
  8
0
 62
     0
 10
146.45458139307561
 20
21.129258305749431
 30
0.0
 11
149.10388597354421
 21
23.778562886218079
 31
0.0
  0
LINE
  5
118
  8
0
 62
     0
 10
125.3253228832595
 20
-0.0000002040666232
 30
0.0
 11
127.3253228832595
 21
1.999999795933376
 31
0.0
  0
LINE
  5
119
  8
0
 62
     0
 10
142.04678507508149
 20
17.843994002888849
 30
0.0
 11
143.08389305713581
 21
18.88110198494326
 31
0.0
  0
LINE
  5
11A
  8
0
 62
     0
 10
145.885249332819
 20
21.6824582606265
 30
0.0
 11
149.10388597354441
 21
24.901094901351829
 31
0.0
  0
LINE
  5
11B
  8
0
 62
     0
 10
124.2027908681259
 20
-0.0000002040666232
 30
0.0
 11
126.202790868126
 21
1.9999997959334901
 31
0.0
  0
LINE
  5
11C
  8
0
 62
     0
 10
145.06335693157351
 20
21.983097874514559
 30
0.0
 11
146.2620479060742
 21
23.18178884901533
 31
0.0
  0
LINE
  5
11D
  8
0
 62
     0
 10
147.10388597354429
 20
24.023626916485458
 30
0.0
 11
149.10388597354441
 21
26.023626916485458
 31
0.0
  0
LINE
  5
11E
  8
0
 62
     0
 10
123.0802588529922
 20
-0.0000002040667368
 30
0.0
 11
125.0802588529924
 21
1.9999997959334901
 31
0.0
  0
LINE
  5
11F
  8
0
 62
     0
 10
143.0726998181195
 20
21.114972776194239
 30
0.0
 11
145.40561459815569
 21
23.447887556230398
 31
0.0
  0
LINE
  5
120
  8
0
 62
     0
 10
147.10388597354429
 20
25.14615893161908
 30
0.0
 11
149.10388597354441
 21
27.146158931619091
 31
0.0
  0
LINE
  5
121
  8
0
 62
     0
 10
121.9577268378588
 20
-0.0000002040666232
 30
0.0
 11
123.9577268378588
 21
1.9999997959334901
 31
0.0
  0
LINE
  5
122
  8
0
 62
     0
 10
142.28783336974519
 20
21.452638342953609
 30
0.0
 11
144.29851624405009
 21
23.46332121725845
 31
0.0
  0
LINE
  5
123
  8
0
 62
     0
 10
147.10388597354449
 20
26.268690946752709
 30
0.0
 11
149.10388597354449
 21
28.26869094675283
 31
0.0
  0
LINE
  5
124
  8
0
 62
     0
 10
120.835194822725
 20
-0.0000002040666232
 30
0.0
 11
122.835194822725
 21
1.999999795933376
 31
0.0
  0
LINE
  5
125
  8
0
 62
     0
 10
147.10388597354449
 20
27.391222961886459
 30
0.0
 11
149.10388597354449
 21
29.391222961886459
 31
0.0
  0
LINE
  5
126
  8
0
 62
     0
 10
119.7126628075914
 20
-0.0000002040666232
 30
0.0
 11
121.7126628075915
 21
1.9999997959334901
 31
0.0
  0
LINE
  5
127
  8
0
 62
     0
 10
147.10388597354449
 20
28.513754977020081
 30
0.0
 11
149.10388597354441
 21
30.513754977019971
 31
0.0
  0
LINE
  5
128
  8
0
 62
     0
 10
118.5901307924577
 20
-0.0000002040667368
 30
0.0
 11
120.5901307924579
 21
1.9999997959334901
 31
0.0
  0
LINE
  5
129
  8
0
 62
     0
 10
147.10388597354421
 20
29.6362869921536
 30
0.0
 11
149.10388597354421
 21
31.6362869921536
 31
0.0
  0
LINE
  5
12A
  8
0
 62
     0
 10
117.4675987773241
 20
-0.0000002040665095
 30
0.0
 11
119.4675987773239
 21
1.9999997959332629
 31
0.0
  0
LINE
  5
12B
  8
0
 62
     0
 10
147.10388597354429
 20
30.758819007287229
 30
0.0
 11
149.10388597354441
 21
32.758819007287343
 31
0.0
  0
LINE
  5
12C
  8
0
 62
     0
 10
116.3450667621904
 20
-0.0000002040666232
 30
0.0
 11
118.3450667621904
 21
1.999999795933376
 31
0.0
  0
LINE
  5
12D
  8
0
 62
     0
 10
147.10388597354429
 20
31.881351022421089
 30
0.0
 11
149.10388597354441
 21
33.881351022421093
 31
0.0
  0
LINE
  5
12E
  8
0
 62
     0
 10
115.2225347470568
 20
-0.0000002040665095
 30
0.0
 11
117.2225347470568
 21
1.9999997959334901
 31
0.0
  0
LINE
  5
12F
  8
0
 62
     0
 10
147.10388597354429
 20
33.003883037554722
 30
0.0
 11
149.10388597354441
 21
35.003883037554708
 31
0.0
  0
LINE
  5
130
  8
0
 62
     0
 10
114.100002731923
 20
-0.0000002040666232
 30
0.0
 11
116.1000027319231
 21
1.9999997959334901
 31
0.0
  0
LINE
  5
131
  8
0
 62
     0
 10
147.10388597354449
 20
34.126415052688458
 30
0.0
 11
149.10388597354421
 21
36.12641505268823
 31
0.0
  0
LINE
  5
132
  8
0
 62
     0
 10
112.9774707167896
 20
-0.0000002040663958
 30
0.0
 11
114.9774707167894
 21
1.999999795933376
 31
0.0
  0
LINE
  5
133
  8
0
 62
     0
 10
147.10388597354429
 20
35.248947067821859
 30
0.0
 11
149.10388597354441
 21
37.24894706782198
 31
0.0
  0
LINE
  5
134
  8
0
 62
     0
 10
111.8549387016559
 20
-0.0000002040665095
 30
0.0
 11
113.8549387016559
 21
1.9999997959334901
 31
0.0
  0
LINE
  5
135
  8
0
 62
     0
 10
147.10388597354429
 20
36.371479082955602
 30
0.0
 11
149.10388597354441
 21
38.371479082955602
 31
0.0
  0
LINE
  5
136
  8
0
 62
     0
 10
110.7324066865222
 20
-0.0000002040665095
 30
0.0
 11
112.7324066865222
 21
1.9999997959334901
 31
0.0
  0
LINE
  5
137
  8
0
 62
     0
 10
147.10388597354429
 20
37.494011098089231
 30
0.0
 11
149.10388597354441
 21
39.494011098089231
 31
0.0
  0
LINE
  5
138
  8
0
 62
     0
 10
109.6098746713886
 20
-0.0000002040666232
 30
0.0
 11
111.6098746713886
 21
1.9999997959334901
 31
0.0
  0
LINE
  5
139
  8
0
 62
     0
 10
147.10388597354449
 20
38.61654311322286
 30
0.0
 11
149.10388597354449
 21
40.616543113222967
 31
0.0
  0
LINE
  5
13A
  8
0
 62
     0
 10
108.4873426562549
 20
-0.0000002040666232
 30
0.0
 11
110.4873426562549
 21
1.999999795933376
 31
0.0
  0
LINE
  5
13B
  8
0
 62
     0
 10
147.10388597354449
 20
39.73907512835661
 30
0.0
 11
149.10388597354441
 21
41.73907512835649
 31
0.0
  0
LINE
  5
13C
  8
0
 62
     0
 10
107.3648106411212
 20
-0.0000002040666232
 30
0.0
 11
109.36481064112139
 21
1.9999997959334901
 31
0.0
  0
LINE
  5
13D
  8
0
 62
     0
 10
147.10388597354429
 20
40.861607143490119
 30
0.0
 11
149.10388597354441
 21
42.861607143490112
 31
0.0
  0
LINE
  5
13E
  8
0
 62
     0
 10
106.2422786259875
 20
-0.0000002040667368
 30
0.0
 11
108.24227862598769
 21
1.9999997959334901
 31
0.0
  0
LINE
  5
13F
  8
0
 62
     0
 10
147.10388597354429
 20
41.984139158623741
 30
0.0
 11
149.10388597354441
 21
43.984139158623741
 31
0.0
  0
LINE
  5
140
  8
0
 62
     0
 10
105.11974661085409
 20
-0.0000002040665095
 30
0.0
 11
107.11974661085409
 21
1.9999997959334901
 31
0.0
  0
LINE
  5
141
  8
0
 62
     0
 10
147.10388597354449
 20
43.106671173757377
 30
0.0
 11
149.10388597354449
 21
45.106671173757483
 31
0.0
  0
LINE
  5
142
  8
0
 62
     0
 10
103.99721459572029
 20
-0.0000002040666232
 30
0.0
 11
105.99721459572039
 21
1.999999795933376
 31
0.0
  0
LINE
  5
143
  8
0
 62
     0
 10
147.10388597354449
 20
44.229203188891113
 30
0.0
 11
149.10388597354449
 21
46.22920318889112
 31
0.0
  0
LINE
  5
144
  8
0
 62
     0
 10
102.87468258058669
 20
-0.0000002040666232
 30
0.0
 11
104.87468258058681
 21
1.9999997959334901
 31
0.0
  0
LINE
  5
145
  8
0
 62
     0
 10
147.10388597354449
 20
45.351735204024749
 30
0.0
 11
149.10388597354449
 21
47.351735204024749
 31
0.0
  0
LINE
  5
146
  8
0
 62
     0
 10
101.75215056545299
 20
-0.0000002040667368
 30
0.0
 11
103.75215056545321
 21
1.9999997959334901
 31
0.0
  0
LINE
  5
147
  8
0
 62
     0
 10
147.10388597354421
 20
46.474267219158257
 30
0.0
 11
149.10388597354421
 21
48.474267219158271
 31
0.0
  0
LINE
  5
148
  8
0
 62
     0
 10
100.62961855031951
 20
-0.0000002040665095
 30
0.0
 11
102.62961855031951
 21
1.9999997959334901
 31
0.0
  0
LINE
  5
149
  8
0
 62
     0
 10
147.10388597354429
 20
47.596799234291893
 30
0.0
 11
149.10388597354441
 21
49.596799234292007
 31
0.0
  0
LINE
  5
14A
  8
0
 62
     0
 10
99.507086535185735
 20
-0.0000002040666232
 30
0.0
 11
101.50708653518571
 21
1.999999795933376
 31
0.0
  0
LINE
  5
14B
  8
0
 62
     0
 10
147.10388597354429
 20
48.71933124942575
 30
0.0
 11
149.10388597354441
 21
50.719331249425743
 31
0.0
  0
LINE
  5
14C
  8
0
 62
     0
 10
98.384554520052134
 20
-0.0000002040665095
 30
0.0
 11
100.38455452005211
 21
1.9999997959334901
 31
0.0
  0
LINE
  5
14D
  8
0
 62
     0
 10
147.10388597354429
 20
49.841863264559379
 30
0.0
 11
149.10388597354441
 21
51.841863264559379
 31
0.0
  0
LINE
  5
14E
  8
0
 62
     0
 10
97.262022504918363
 20
-0.0000002040666232
 30
0.0
 11
99.262022504918491
 21
1.9999997959334901
 31
0.0
  0
LINE
  5
14F
  8
0
 62
     0
 10
147.10388597354449
 20
50.964395279693122
 30
0.0
 11
149.10388597354421
 21
52.964395279692887
 31
0.0
  0
LINE
  5
150
  8
0
 62
     0
 10
96.139490489784762
 20
-0.0000002040666232
 30
0.0
 11
98.139490489784748
 21
1.999999795933376
 31
0.0
  0
LINE
  5
151
  8
0
 62
     0
 10
147.10388597354429
 20
52.08692729482653
 30
0.0
 11
149.10388597354441
 21
54.08692729482663
 31
0.0
  0
LINE
  5
152
  8
0
 62
     0
 10
95.016958474651233
 20
-0.0000002040665095
 30
0.0
 11
97.016958474651247
 21
1.9999997959334901
 31
0.0
  0
LINE
  5
153
  8
0
 62
     0
 10
147.10388597354429
 20
53.209459309960259
 30
0.0
 11
149.10388597354441
 21
55.209459309960273
 31
0.0
  0
LINE
  5
154
  8
0
 62
     0
 10
93.894426459517604
 20
-0.0000002040665095
 30
0.0
 11
95.894426459517604
 21
1.9999997959334901
 31
0.0
  0
LINE
  5
155
  8
0
 62
     0
 10
147.10388597354429
 20
54.331991325093902
 30
0.0
 11
149.10388597354441
 21
56.331991325093888
 31
0.0
  0
LINE
  5
156
  8
0
 62
     0
 10
92.771894444383975
 20
-0.0000002040666232
 30
0.0
 11
94.771894444383975
 21
1.9999997959334901
 31
0.0
  0
LINE
  5
157
  8
0
 62
     0
 10
147.10388597354449
 20
55.454523340227517
 30
0.0
 11
149.10388597354421
 21
57.454523340227411
 31
0.0
  0
LINE
  5
158
  8
0
 62
     0
 10
91.649362429250232
 20
-0.0000002040666232
 30
0.0
 11
93.649362429250246
 21
1.999999795933376
 31
0.0
  0
LINE
  5
159
  8
0
 62
     0
 10
147.10388597354449
 20
56.577055355361267
 30
0.0
 11
149.10388597354441
 21
58.577055355361161
 31
0.0
  0
LINE
  5
15A
  8
0
 62
     0
 10
90.526830414116716
 20
-0.0000002040665095
 30
0.0
 11
92.526830414116716
 21
1.9999997959334901
 31
0.0
  0
LINE
  5
15B
  8
0
 62
     0
 10
147.10388597354429
 20
57.699587370494783
 30
0.0
 11
149.10388597354441
 21
59.699587370494783
 31
0.0
  0
LINE
  5
15C
  8
0
 62
     0
 10
89.404298398983087
 20
-0.0000002040665095
 30
0.0
 11
91.404298398983073
 21
1.9999997959334901
 31
0.0
  0
LINE
  5
15D
  8
0
 62
     0
 10
147.10388597354429
 20
58.822119385628412
 30
0.0
 11
149.10388597354441
 21
60.822119385628412
 31
0.0
  0
LINE
  5
15E
  8
0
 62
     0
 10
88.281766383849444
 20
-0.0000002040665095
 30
0.0
 11
90.281766383849458
 21
1.9999997959334901
 31
0.0
  0
LINE
  5
15F
  8
0
 62
     0
 10
147.10388597354449
 20
59.944651400762041
 30
0.0
 11
149.10388597354449
 21
61.944651400762147
 31
0.0
  0
LINE
  5
160
  8
0
 62
     0
 10
87.159234368715715
 20
-0.0000002040666232
 30
0.0
 11
89.159234368715715
 21
1.999999795933376
 31
0.0
  0
LINE
  5
161
  8
0
 62
     0
 10
147.10388597354449
 20
61.067183415895776
 30
0.0
 11
149.10388597354441
 21
63.06718341589567
 31
0.0
  0
LINE
  5
162
  8
0
 62
     0
 10
86.036702353582214
 20
-0.0000002040665095
 30
0.0
 11
88.0367023535822
 21
1.9999997959334901
 31
0.0
  0
LINE
  5
163
  8
0
 62
     0
 10
147.10388597354449
 20
62.189715431029413
 30
0.0
 11
149.10388597354441
 21
64.189715431029299
 31
0.0
  0
LINE
  5
164
  8
0
 62
     0
 10
84.914170338448571
 20
-0.0000002040665095
 30
0.0
 11
86.914170338448571
 21
1.9999997959334901
 31
0.0
  0
LINE
  5
165
  8
0
 62
     0
 10
147.10388597354429
 20
63.312247446162921
 30
0.0
 11
149.10388597354441
 21
65.312247446162914
 31
0.0
  0
LINE
  5
166
  8
0
 62
     0
 10
83.791638323314942
 20
-0.0000002040665095
 30
0.0
 11
85.791638323314928
 21
1.9999997959334901
 31
0.0
  0
LINE
  5
167
  8
0
 62
     0
 10
147.10388597354429
 20
64.434779461296557
 30
0.0
 11
149.10388597354441
 21
66.434779461296671
 31
0.0
  0
LINE
  5
168
  8
0
 62
     0
 10
82.669106308181085
 20
-0.0000002040666232
 30
0.0
 11
84.669106308181085
 21
1.999999795933376
 31
0.0
  0
LINE
  5
169
  8
0
 62
     0
 10
147.10388597354429
 20
65.557311476430414
 30
0.0
 11
149.10388597354441
 21
67.557311476430414
 31
0.0
  0
LINE
  5
16A
  8
0
 62
     0
 10
81.546574293047456
 20
-0.0000002040665095
 30
0.0
 11
83.546574293047456
 21
1.9999997959334901
 31
0.0
  0
LINE
  5
16B
  8
0
 62
     0
 10
147.10388597354429
 20
66.679843491564043
 30
0.0
 11
149.10388597354421
 21
68.679843491563929
 31
0.0
  0
LINE
  5
16C
  8
0
 62
     0
 10
80.424042277913699
 20
-0.0000002040666232
 30
0.0
 11
82.424042277913955
 21
1.999999795933604
 31
0.0
  0
LINE
  5
16D
  8
0
 62
     0
 10
147.10388597354449
 20
67.802375506697672
 30
0.0
 11
149.10388597354421
 21
69.802375506697544
 31
0.0
  0
LINE
  5
16E
  8
0
 62
     0
 10
79.301510262780084
 20
-0.0000002040666232
 30
0.0
 11
81.301510262780084
 21
1.999999795933376
 31
0.0
  0
LINE
  5
16F
  8
0
 62
     0
 10
146.95892372431501
 20
68.779945272601935
 30
0.0
 11
149.10388597354441
 21
70.924907521831301
 31
0.0
  0
LINE
  5
170
  8
0
 62
     0
 10
78.178978247646555
 20
-0.0000002040665095
 30
0.0
 11
80.178978247646569
 21
1.9999997959334901
 31
0.0
  0
LINE
  5
171
  8
0
 62
     0
 10
145.66369934119609
 20
68.607252904616644
 30
0.0
 11
149.10388597354441
 21
72.04743953696493
 31
0.0
  0
LINE
  5
172
  8
0
 62
     0
 10
77.05644623251294
 20
-0.0000002040665095
 30
0.0
 11
79.05644623251294
 21
1.9999997959334901
 31
0.0
  0
LINE
  5
173
  8
0
 62
     0
 10
144.45168110731959
 20
68.517766685873767
 30
0.0
 11
149.10388597354441
 21
73.169971552098559
 31
0.0
  0
LINE
  5
174
  8
0
 62
     0
 10
75.933914217379311
 20
-0.0000002040665095
 30
0.0
 11
77.933914217379311
 21
1.9999997959334901
 31
0.0
  0
LINE
  5
175
  8
0
 62
     0
 10
143.54544885188329
 20
68.734066445571102
 30
0.0
 11
144.8113962805626
 21
70.000013874250385
 31
0.0
  0
LINE
  5
176
  8
0
 62
     0
 10
146.80387799874291
 20
71.9924955924306
 30
0.0
 11
149.10388597354421
 21
74.292503567232075
 31
0.0
  0
LINE
  5
177
  8
0
 62
     0
 10
74.811382202245568
 20
-0.0000002040666232
 30
0.0
 11
76.811382202245568
 21
1.999999795933376
 31
0.0
  0
LINE
  5
178
  8
0
 62
     0
 10
142.81137374279299
 20
69.122523351614404
 30
0.0
 11
143.9031614366686
 21
70.214311045489922
 31
0.0
  0
LINE
  5
179
  8
0
 62
     0
 10
146.5895808275032
 20
72.900730436324693
 30
0.0
 11
149.10388597354441
 21
75.415035582365803
 31
0.0
  0
LINE
  5
17A
  8
0
 62
     0
 10
73.688850187112052
 20
-0.0000002040665095
 30
0.0
 11
75.688850187112052
 21
1.9999997959334901
 31
0.0
  0
LINE
  5
17B
  8
0
 62
     0
 10
142.21308375327121
 20
69.646765377226302
 30
0.0
 11
143.2758891510409
 21
70.709570774995996
 31
0.0
  0
LINE
  5
17C
  8
0
 62
     0
 10
146.09432109799721
 20
73.528002721952234
 30
0.0
 11
149.10388597354441
 21
76.537567597499446
 31
0.0
  0
LINE
  5
17D
  8
0
 62
     0
 10
72.566318171978423
 20
-0.0000002040665095
 30
0.0
 11
74.566318171978295
 21
1.999999795933376
 31
0.0
  0
LINE
  5
17E
  8
0
 62
     0
 10
145.36381007284149
 20
73.920023711930185
 30
0.0
 11
146.52256145816139
 21
75.078775097250173
 31
0.0
  0
LINE
  5
17F
  8
0
 62
     0
 10
147.10388597354461
 20
75.660099612633303
 30
0.0
 11
149.10388597354441
 21
77.660099612633076
 31
0.0
  0
LINE
  5
180
  8
0
 62
     0
 10
71.443786156844794
 20
-0.0000002040665095
 30
0.0
 11
73.443786156844794
 21
1.9999997959334901
 31
0.0
  0
LINE
  5
181
  8
0
 62
     0
 10
144.24016238061949
 20
73.91890803484182
 30
0.0
 11
145.7036306098957
 21
75.382376264118079
 31
0.0
  0
LINE
  5
182
  8
0
 62
     0
 10
147.10388597354449
 20
76.782631627766705
 30
0.0
 11
149.10388597354449
 21
78.782631627766818
 31
0.0
  0
LINE
  5
183
  8
0
 62
     0
 10
70.321254141711051
 20
-0.0000002040666232
 30
0.0
 11
72.321254141711051
 21
1.999999795933376
 31
0.0
  0
LINE
  5
184
  8
0
 62
     0
 10
142.5183018876088
 20
73.319579556964754
 30
0.0
 11
144.69709229076031
 21
75.498369960116293
 31
0.0
  0
LINE
  5
185
  8
0
 62
     0
 10
147.10388597354449
 20
77.905163642900447
 30
0.0
 11
149.10388597354441
 21
79.905163642900334
 31
0.0
  0
LINE
  5
186
  8
0
 62
     0
 10
69.198722126577536
 20
-0.0000002040665095
 30
0.0
 11
71.198722126577536
 21
1.9999997959334901
 31
0.0
  0
LINE
  5
187
  8
0
 62
     0
 10
141.8965631509538
 20
73.820372835443436
 30
0.0
 11
143.1729862020714
 21
75.09679588656104
 31
0.0
  0
LINE
  5
188
  8
0
 62
     0
 10
147.10388597354449
 20
79.027695658034077
 30
0.0
 11
149.10388597354441
 21
81.027695658033963
 31
0.0
  0
LINE
  5
189
  8
0
 62
     0
 10
68.076190111443907
 20
-0.0000002040665095
 30
0.0
 11
70.076190111443793
 21
1.999999795933376
 31
0.0
  0
LINE
  5
18A
  8
0
 62
     0
 10
147.10388597354461
 20
80.150227673167819
 30
0.0
 11
149.10388597354441
 21
82.150227673167578
 31
0.0
  0
LINE
  5
18B
  8
0
 62
     0
 10
66.953658096310264
 20
-0.0000002040665095
 30
0.0
 11
68.953658096310264
 21
1.9999997959334901
 31
0.0
  0
LINE
  5
18C
  8
0
 62
     0
 10
147.10388597354449
 20
81.272759688301448
 30
0.0
 11
149.10388597354441
 21
83.272759688301335
 31
0.0
  0
LINE
  5
18D
  8
0
 62
     0
 10
65.831126081176421
 20
-0.0000002040666232
 30
0.0
 11
67.831126081176421
 21
1.999999795933376
 31
0.0
  0
LINE
  5
18E
  8
0
 62
     0
 10
147.10388597354429
 20
82.395291703435063
 30
0.0
 11
149.10388597354441
 21
84.395291703435078
 31
0.0
  0
LINE
  5
18F
  8
0
 62
     0
 10
64.708594066042792
 20
-0.0000002040665095
 30
0.0
 11
66.708594066042906
 21
1.999999795933604
 31
0.0
  0
LINE
  5
190
  8
0
 62
     0
 10
147.10388597354429
 20
83.517823718568707
 30
0.0
 11
149.10388597354421
 21
85.517823718568593
 31
0.0
  0
LINE
  5
191
  8
0
 62
     0
 10
63.58606205090905
 20
-0.0000002040666232
 30
0.0
 11
65.586062050909163
 21
1.9999997959334901
 31
0.0
  0
LINE
  5
192
  8
0
 62
     0
 10
147.10388597354449
 20
84.640355733702336
 30
0.0
 11
149.10388597354421
 21
86.640355733702222
 31
0.0
  0
LINE
  5
193
  8
0
 62
     0
 10
62.46353003577542
 20
-0.0000002040666232
 30
0.0
 11
64.46353003577542
 21
1.999999795933376
 31
0.0
  0
LINE
  5
194
  8
0
 62
     0
 10
147.10388597354449
 20
85.762887748836064
 30
0.0
 11
149.10388597354441
 21
87.762887748835965
 31
0.0
  0
LINE
  5
195
  8
0
 62
     0
 10
61.340998020641912
 20
-0.0000002040665095
 30
0.0
 11
63.340998020641912
 21
1.9999997959334901
 31
0.0
  0
LINE
  5
196
  8
0
 62
     0
 10
147.10388597354449
 20
86.885419763969708
 30
0.0
 11
149.10388597354441
 21
88.885419763969594
 31
0.0
  0
LINE
  5
197
  8
0
 62
     0
 10
60.218466005508269
 20
-0.0000002040665095
 30
0.0
 11
62.218466005508162
 21
1.999999795933376
 31
0.0
  0
LINE
  5
198
  8
0
 62
     0
 10
147.10388597354429
 20
88.007951779103209
 30
0.0
 11
149.10388597354421
 21
90.007951779103095
 31
0.0
  0
LINE
  5
199
  8
0
 62
     0
 10
59.095933990374647
 20
-0.0000002040665095
 30
0.0
 11
61.09593399037464
 21
1.9999997959334901
 31
0.0
  0
LINE
  5
19A
  8
0
 62
     0
 10
147.10388597354449
 20
89.130483794236852
 30
0.0
 11
149.10388597354421
 21
91.130483794236724
 31
0.0
  0
LINE
  5
19B
  8
0
 62
     0
 10
57.973401975240897
 20
-0.0000002040666232
 30
0.0
 11
59.973401975240897
 21
1.999999795933376
 31
0.0
  0
LINE
  5
19C
  8
0
 62
     0
 10
146.85086996010739
 20
89.999999795933377
 30
0.0
 11
148.85086996010739
 21
91.999999795933476
 31
0.0
  0
LINE
  5
19D
  8
0
 62
     0
 10
56.850869960107381
 20
-0.0000002040665095
 30
0.0
 11
58.850869960107389
 21
1.9999997959334901
 31
0.0
  0
LINE
  5
19E
  8
0
 62
     0
 10
145.7283379449739
 20
89.999999795933604
 30
0.0
 11
147.72833794497359
 21
91.999999795933377
 31
0.0
  0
LINE
  5
19F
  8
0
 62
     0
 10
55.728337944973759
 20
-0.0000002040665095
 30
0.0
 11
57.728337944973653
 21
1.999999795933376
 31
0.0
  0
LINE
  5
1A0
  8
0
 62
     0
 10
144.60580592983999
 20
89.999999795933377
 30
0.0
 11
146.60580592983999
 21
91.999999795933377
 31
0.0
  0
LINE
  5
1A1
  8
0
 62
     0
 10
54.60580592984013
 20
-0.0000002040665095
 30
0.0
 11
56.60580592984013
 21
1.9999997959334901
 31
0.0
  0
LINE
  5
1A2
  8
0
 62
     0
 10
143.4832739147065
 20
89.999999795933491
 30
0.0
 11
145.48327391470639
 21
91.999999795933377
 31
0.0
  0
LINE
  5
1A3
  8
0
 62
     0
 10
53.483273914706388
 20
-0.0000002040666232
 30
0.0
 11
55.483273914706388
 21
1.999999795933376
 31
0.0
  0
LINE
  5
1A4
  8
0
 62
     0
 10
142.36074189957259
 20
89.999999795933263
 30
0.0
 11
144.36074189957259
 21
91.999999795933263
 31
0.0
  0
LINE
  5
1A5
  8
0
 62
     0
 10
52.360741899572872
 20
-0.0000002040665095
 30
0.0
 11
54.360741899572872
 21
1.9999997959334901
 31
0.0
  0
LINE
  5
1A6
  8
0
 62
     0
 10
141.2382098844391
 20
89.999999795933377
 30
0.0
 11
143.23820988443899
 21
91.999999795933263
 31
0.0
  0
LINE
  5
1A7
  8
0
 62
     0
 10
51.238209884439243
 20
-0.0000002040665095
 30
0.0
 11
53.238209884439122
 21
1.999999795933376
 31
0.0
  0
LINE
  5
1A8
  8
0
 62
     0
 10
140.1156778693055
 20
89.999999795933377
 30
0.0
 11
142.11567786930539
 21
91.999999795933263
 31
0.0
  0
LINE
  5
1A9
  8
0
 62
     0
 10
50.115677869305607
 20
-0.0000002040665095
 30
0.0
 11
52.115677869305621
 21
1.9999997959334901
 31
0.0
  0
LINE
  5
1AA
  8
0
 62
     0
 10
138.9931458541717
 20
89.999999795933263
 30
0.0
 11
140.9931458541715
 21
91.999999795933135
 31
0.0
  0
LINE
  5
1AB
  8
0
 62
     0
 10
48.993145854171757
 20
-0.0000002040666232
 30
0.0
 11
50.99314585417175
 21
1.999999795933376
 31
0.0
  0
LINE
  5
1AC
  8
0
 62
     0
 10
137.87061383903821
 20
89.999999795933604
 30
0.0
 11
139.8706138390379
 21
91.999999795933263
 31
0.0
  0
LINE
  5
1AD
  8
0
 62
     0
 10
47.870613839038128
 20
-0.0000002040665095
 30
0.0
 11
49.870613839038242
 21
1.999999795933604
 31
0.0
  0
LINE
  5
1AE
  8
0
 62
     0
 10
136.74808182390441
 20
89.999999795933377
 30
0.0
 11
138.7480818239043
 21
91.999999795933135
 31
0.0
  0
LINE
  5
1AF
  8
0
 62
     0
 10
46.748081823904378
 20
-0.0000002040665095
 30
0.0
 11
48.748081823904499
 21
1.9999997959334901
 31
0.0
  0
LINE
  5
1B0
  8
0
 62
     0
 10
135.62554980877081
 20
89.999999795933491
 30
0.0
 11
137.6255498087705
 21
91.999999795933135
 31
0.0
  0
LINE
  5
1B1
  8
0
 62
     0
 10
45.625549808770756
 20
-0.0000002040666232
 30
0.0
 11
47.625549808770977
 21
1.999999795933604
 31
0.0
  0
LINE
  5
1B2
  8
0
 62
     0
 10
134.50301779363721
 20
89.999999795933377
 30
0.0
 11
136.50301779363701
 21
91.999999795933263
 31
0.0
  0
LINE
  5
1B3
  8
0
 62
     0
 10
44.503017793637241
 20
-0.0000002040665095
 30
0.0
 11
46.503017793637241
 21
1.9999997959334901
 31
0.0
  0
LINE
  5
1B4
  8
0
 62
     0
 10
133.3804857785035
 20
89.999999795933377
 30
0.0
 11
135.3804857785033
 21
91.999999795933036
 31
0.0
  0
LINE
  5
1B5
  8
0
 62
     0
 10
43.380485778503612
 20
-0.0000002040665095
 30
0.0
 11
45.380485778503491
 21
1.999999795933376
 31
0.0
  0
LINE
  5
1B6
  8
0
 62
     0
 10
132.25795376337001
 20
89.999999795933491
 30
0.0
 11
134.2579537633695
 21
91.999999795933036
 31
0.0
  0
LINE
  5
1B7
  8
0
 62
     0
 10
42.257953763369869
 20
-0.0000002040665095
 30
0.0
 11
44.257953763369983
 21
1.9999997959334901
 31
0.0
  0
LINE
  5
1B8
  8
0
 62
     0
 10
131.1354217482363
 20
89.999999795933491
 30
0.0
 11
133.1354217482359
 21
91.999999795933036
 31
0.0
  0
LINE
  5
1B9
  8
0
 62
     0
 10
41.135421748236233
 20
-0.0000002040666232
 30
0.0
 11
43.13542174823624
 21
1.999999795933376
 31
0.0
  0
LINE
  5
1BA
  8
0
 62
     0
 10
130.0128897331027
 20
89.999999795933377
 30
0.0
 11
132.01288973310241
 21
91.999999795933135
 31
0.0
  0
LINE
  5
1BB
  8
0
 62
     0
 10
40.012889733102732
 20
-0.0000002040665095
 30
0.0
 11
42.012889733102718
 21
1.9999997959334901
 31
0.0
  0
LINE
  5
1BC
  8
0
 62
     0
 10
128.89035771796921
 20
89.999999795933604
 30
0.0
 11
130.8903577179687
 21
91.999999795933036
 31
0.0
  0
LINE
  5
1BD
  8
0
 62
     0
 10
38.890357717969103
 20
-0.0000002040665095
 30
0.0
 11
40.890357717968982
 21
1.999999795933376
 31
0.0
  0
LINE
  5
1BE
  8
0
 62
     0
 10
127.7678257028353
 20
89.999999795933377
 30
0.0
 11
129.76782570283501
 21
91.999999795933036
 31
0.0
  0
LINE
  5
1BF
  8
0
 62
     0
 10
37.767825702835466
 20
-0.0000002040665095
 30
0.0
 11
39.767825702835466
 21
1.9999997959334901
 31
0.0
  0
LINE
  5
1C0
  8
0
 62
     0
 10
126.64529368770179
 20
89.999999795933491
 30
0.0
 11
128.6452936877011
 21
91.999999795932808
 31
0.0
  0
LINE
  5
1C1
  8
0
 62
     0
 10
36.645293687701717
 20
-0.0000002040666232
 30
0.0
 11
38.645293687701731
 21
1.999999795933376
 31
0.0
  0
LINE
  5
1C2
  8
0
 62
     0
 10
125.5227616725679
 20
89.999999795933263
 30
0.0
 11
127.5227616725675
 21
91.999999795932808
 31
0.0
  0
LINE
  5
1C3
  8
0
 62
     0
 10
35.522761672568208
 20
-0.0000002040665095
 30
0.0
 11
37.522761672568208
 21
1.9999997959334901
 31
0.0
  0
LINE
  5
1C4
  8
0
 62
     0
 10
124.40022965743439
 20
89.999999795933377
 30
0.0
 11
126.400229657434
 21
91.999999795932908
 31
0.0
  0
LINE
  5
1C5
  8
0
 62
     0
 10
34.400229657434579
 20
-0.0000002040665095
 30
0.0
 11
36.400229657434473
 21
1.999999795933376
 31
0.0
  0
LINE
  5
1C6
  8
0
 62
     0
 10
123.27769764230079
 20
89.999999795933377
 30
0.0
 11
125.2776976423004
 21
91.999999795932908
 31
0.0
  0
LINE
  5
1C7
  8
0
 62
     0
 10
33.277697642300723
 20
-0.0000002040667368
 30
0.0
 11
35.27769764230095
 21
1.9999997959334901
 31
0.0
  0
LINE
  5
1C8
  8
0
 62
     0
 10
122.15516562716719
 20
89.999999795933263
 30
0.0
 11
124.1551656271666
 21
91.999999795932808
 31
0.0
  0
LINE
  5
1C9
  8
0
 62
     0
 10
32.155165627167207
 20
-0.0000002040666232
 30
0.0
 11
34.155165627167207
 21
1.999999795933376
 31
0.0
  0
LINE
  5
1CA
  8
0
 62
     0
 10
121.03263361203361
 20
89.999999795933604
 30
0.0
 11
123.0326336120329
 21
91.999999795932908
 31
0.0
  0
LINE
  5
1CB
  8
0
 62
     0
 10
31.032633612033461
 20
-0.0000002040665095
 30
0.0
 11
33.032633612033578
 21
1.999999795933604
 31
0.0
  0
LINE
  5
1CC
  8
0
 62
     0
 10
119.91010159689969
 20
89.999999795933377
 30
0.0
 11
121.910101596899
 21
91.999999795932695
 31
0.0
  0
LINE
  5
1CD
  8
0
 62
     0
 10
29.910101596899722
 20
-0.0000002040665095
 30
0.0
 11
31.910101596899839
 21
1.9999997959334901
 31
0.0
  0
LINE
  5
1CE
  8
0
 62
     0
 10
118.78756958176621
 20
89.999999795933491
 30
0.0
 11
120.7875695817655
 21
91.999999795932808
 31
0.0
  0
LINE
  5
1CF
  8
0
 62
     0
 10
28.787569581766089
 20
-0.0000002040666232
 30
0.0
 11
30.78756958176632
 21
1.999999795933604
 31
0.0
  0
LINE
  5
1D0
  8
0
 62
     0
 10
117.66503756663261
 20
89.999999795933377
 30
0.0
 11
119.6650375666319
 21
91.999999795932808
 31
0.0
  0
LINE
  5
1D1
  8
0
 62
     0
 10
27.665037566632581
 20
-0.0000002040665095
 30
0.0
 11
29.665037566632581
 21
1.9999997959334901
 31
0.0
  0
LINE
  5
1D2
  8
0
 62
     0
 10
116.54250555149881
 20
89.999999795933377
 30
0.0
 11
118.54250555149829
 21
91.999999795932808
 31
0.0
  0
LINE
  5
1D3
  8
0
 62
     0
 10
26.542505551498952
 20
-0.0000002040665095
 30
0.0
 11
28.542505551498841
 21
1.999999795933376
 31
0.0
  0
LINE
  5
1D4
  8
0
 62
     0
 10
115.4199735363653
 20
89.999999795933491
 30
0.0
 11
117.41997353636449
 21
91.999999795932695
 31
0.0
  0
LINE
  5
1D5
  8
0
 62
     0
 10
25.419973536365209
 20
-0.0000002040665095
 30
0.0
 11
27.419973536365319
 21
1.9999997959334901
 31
0.0
  0
LINE
  5
1D6
  8
0
 62
     0
 10
114.2974415212317
 20
89.999999795933491
 30
0.0
 11
116.29744152123089
 21
91.999999795932695
 31
0.0
  0
LINE
  5
1D7
  8
0
 62
     0
 10
24.29744152123158
 20
-0.0000002040666232
 30
0.0
 11
26.29744152123158
 21
1.999999795933376
 31
0.0
  0
LINE
  5
1D8
  8
0
 62
     0
 10
113.174909506098
 20
89.999999795933491
 30
0.0
 11
115.17490950609729
 21
91.999999795932695
 31
0.0
  0
LINE
  5
1D9
  8
0
 62
     0
 10
23.174909506098061
 20
-0.0000002040665095
 30
0.0
 11
25.322846156398779
 21
2.147936446234211
 31
0.0
  0
LINE
  5
1DA
  8
0
 62
     0
 10
112.0523774909645
 20
89.999999795933604
 30
0.0
 11
114.05237749096349
 21
91.999999795932581
 31
0.0
  0
LINE
  5
1DB
  8
0
 62
     0
 10
22.052377490964432
 20
-0.0000002040665095
 30
0.0
 11
25.322846156398779
 21
3.2704684613678401
 31
0.0
  0
LINE
  5
1DC
  8
0
 62
     0
 10
23.322846156397532
 20
2.3930004765002191
 30
0.0
 11
25.322846156398779
 21
4.3930004765014701
 31
0.0
  0
LINE
  5
1DD
  8
0
 62
     0
 10
110.9298454758307
 20
89.999999795933377
 30
0.0
 11
112.92984547582989
 21
91.999999795932581
 31
0.0
  0
LINE
  5
1DE
  8
0
 62
     0
 10
20.929845475830799
 20
-0.0000002040665095
 30
0.0
 11
23.091014473299541
 21
2.1611687934022248
 31
0.0
  0
LINE
  5
1DF
  8
0
 62
     0
 10
23.32284615639708
 20
3.515532491633393
 30
0.0
 11
25.322846156398779
 21
5.5155324916350992
 31
0.0
  0
LINE
  5
1E0
  8
0
 62
     0
 10
109.8073134606972
 20
89.999999795933491
 30
0.0
 11
111.80731346069619
 21
91.999999795932581
 31
0.0
  0
LINE
  5
1E1
  8
0
 62
     0
 10
19.80731346069706
 20
-0.0000002040666232
 30
0.0
 11
21.93552119525873
 21
2.1282075304950459
 31
0.0
  0
LINE
  5
1E2
  8
0
 62
     0
 10
23.322846156396619
 20
4.6380645067665682
 30
0.0
 11
25.322846156398899
 21
6.6380645067688411
 31
0.0
  0
LINE
  5
1E3
  8
0
 62
     0
 10
108.6847814455635
 20
89.999999795933491
 30
0.0
 11
110.68478144556271
 21
91.999999795932695
 31
0.0
  0
LINE
  5
1E4
  8
0
 62
     0
 10
18.684781445563541
 20
-0.0000002040665095
 30
0.0
 11
20.782875019820271
 21
2.0980933701902131
 31
0.0
  0
LINE
  5
1E5
  8
0
 62
     0
 10
23.322846156396281
 20
5.7605965218998563
 30
0.0
 11
25.322846156398779
 21
7.7605965219023574
 31
0.0
  0
LINE
  5
1E6
  8
0
 62
     0
 10
107.5622494304298
 20
89.999999795933377
 30
0.0
 11
109.56224943042891
 21
91.999999795932467
 31
0.0
  0
LINE
  5
1E7
  8
0
 62
     0
 10
17.562249430429912
 20
-0.0000002040665095
 30
0.0
 11
19.633054476049889
 21
2.0708048415534668
 31
0.0
  0
LINE
  5
1E8
  8
0
 62
     0
 10
22.737438980427889
 20
6.2977213610650997
 30
0.0
 11
25.322846156398899
 21
8.8831285370361002
 31
0.0
  0
LINE
  5
1E9
  8
0
 62
     0
 10
106.4397174152961
 20
89.999999795933377
 30
0.0
 11
108.43971741529521
 21
91.999999795932354
 31
0.0
  0
LINE
  5
1EA
  8
0
 62
     0
 10
16.439717415296279
 20
-0.0000002040665095
 30
0.0
 11
18.486038409419621
 21
2.0463207900568241
 31
0.0
  0
LINE
  5
1EB
  8
0
 62
     0
 10
23.322846156399009
 20
8.0056605521698412
 30
0.0
 11
25.322846156398779
 21
10.00566055216961
 31
0.0
  0
LINE
  5
1EC
  8
0
 62
     0
 10
21.634164689673071
 20
6.3169790854439043
 30
0.0
 11
22.420559971406419
 21
7.1033743671772518
 31
0.0
  0
LINE
  5
1ED
  8
0
 62
     0
 10
105.3171854001625
 20
89.999999795933263
 30
0.0
 11
107.31718540016151
 21
91.999999795932354
 31
0.0
  0
LINE
  5
1EE
  8
0
 62
     0
 10
15.31718540016254
 20
-0.0000002040666232
 30
0.0
 11
17.341805975349871
 21
2.024620371120704
 31
0.0
  0
LINE
  5
1EF
  8
0
 62
     0
 10
23.322846156398899
 20
9.1281925673035857
 30
0.0
 11
25.322846156398779
 21
11.12819256730347
 31
0.0
  0
LINE
  5
1F0
  8
0
 62
     0
 10
20.530890398918022
 20
6.3362368098227071
 30
0.0
 11
21.447448778643999
 21
7.2527951895486922
 31
0.0
  0
LINE
  5
1F1
  8
0
 62
     0
 10
104.1946533850289
 20
89.999999795933604
 30
0.0
 11
106.19465338502781
 21
91.999999795932467
 31
0.0
  0
LINE
  5
1F2
  8
0
 62
     0
 10
14.194653385028801
 20
-0.0000002040665095
 30
0.0
 11
16.200336632922241
 21
2.005683043826934
 31
0.0
  0
LINE
  5
1F3
  8
0
 62
     0
 10
23.322846156398899
 20
10.25072458243721
 30
0.0
 11
25.322846156398779
 21
12.250724582437099
 31
0.0
  0
LINE
  5
1F4
  8
0
 62
     0
 10
19.427616108163189
 20
6.3554945342015108
 30
0.0
 11
20.729338300331388
 21
7.6572167263697111
 31
0.0
  0
LINE
  5
1F5
  8
0
 62
     0
 10
103.072121369895
 20
89.999999795933377
 30
0.0
 11
105.07212136989421
 21
91.999999795932581
 31
0.0
  0
LINE
  5
1F6
  8
0
 62
     0
 10
13.07212136989506
 20
-0.0000002040665095
 30
0.0
 11
15.061610138756009
 21
1.9894885647943279
 31
0.0
  0
LINE
  5
1F7
  8
0
 62
     0
 10
23.322846156398899
 20
11.37325659757084
 30
0.0
 11
25.322846156398779
 21
13.37325659757073
 31
0.0
  0
LINE
  5
1F8
  8
0
 62
     0
 10
18.324341817408481
 20
6.374752258580429
 30
0.0
 11
19.798832970658509
 21
7.8492434118304573
 31
0.0
  0
LINE
  5
1F9
  8
0
 62
     0
 10
101.9495893547615
 20
89.999999795933491
 30
0.0
 11
103.9495893547606
 21
91.999999795932581
 31
0.0
  0
LINE
  5
1FA
  8
0
 62
     0
 10
11.94958935476143
 20
-0.0000002040666232
 30
0.0
 11
13.835054356548421
 21
1.885464797720374
 31
0.0
  0
LINE
  5
1FB
  8
0
 62
     0
 10
23.322846156398899
 20
12.49578861270447
 30
0.0
 11
25.322846156398779
 21
14.495788612704359
 31
0.0
  0
LINE
  5
1FC
  8
0
 62
     0
 10
17.221067526653432
 20
6.3940099829590054
 30
0.0
 11
18.69555867990357
 21
7.8685011362091473
 31
0.0
  0
LINE
  5
1FD
  8
0
 62
     0
 10
100.8270573396279
 20
89.999999795933377
 30
0.0
 11
102.8270573396268
 21
91.999999795932354
 31
0.0
  0
LINE
  5
1FE
  8
0
 62
     0
 10
10.82705733962791
 20
-0.0000002040665095
 30
0.0
 11
12.60883707575487
 21
1.7817795320604539
 31
0.0
  0
LINE
  5
1FF
  8
0
 62
     0
 10
23.322846156398899
 20
13.6183206278381
 30
0.0
 11
25.322846156398779
 21
15.61832062783799
 31
0.0
  0
LINE
  5
200
  8
0
 62
     0
 10
16.117793235898599
 20
6.413267707337809
 30
0.0
 11
17.592284389148631
 21
7.8877588605878373
 31
0.0
  0
LINE
  5
201
  8
0
 62
     0
 10
99.70452532449417
 20
89.999999795933377
 30
0.0
 11
101.7045253244932
 21
91.999999795932467
 31
0.0
  0
LINE
  5
202
  8
0
 62
     0
 10
9.7045253244942842
 20
-0.0000002040665095
 30
0.0
 11
11.38411372255484
 21
1.67958819399405
 31
0.0
  0
LINE
  5
203
  8
0
 62
     0
 10
23.322846156398899
 20
14.740852642971729
 30
0.0
 11
25.322846156398779
 21
16.74085264297161
 31
0.0
  0
LINE
  5
204
  8
0
 62
     0
 10
15.01451894514377
 20
6.4325254317166118
 30
0.0
 11
16.489010098393798
 21
7.9070165849666401
 31
0.0
  0
LINE
  5
205
  8
0
 62
     0
 10
98.581993309360655
 20
89.999999795933491
 30
0.0
 11
100.5819933093594
 21
91.99999979593224
 31
0.0
  0
LINE
  5
206
  8
0
 62
     0
 10
8.5819933093605414
 20
-0.0000002040665095
 30
0.0
 11
10.18045485540199
 21
1.598461341974825
 31
0.0
  0
LINE
  5
207
  8
0
 62
     0
 10
23.322846156399009
 20
15.86338465810547
 30
0.0
 11
25.322846156398779
 21
17.86338465810525
 31
0.0
  0
LINE
  5
208
  8
0
 62
     0
 10
13.91124465438895
 20
6.4517831560954164
 30
0.0
 11
15.38573580763898
 21
7.9262743093454437
 31
0.0
  0
LINE
  5
209
  8
0
 62
     0
 10
97.459461294227026
 20
89.999999795933491
 30
0.0
 11
99.459461294225889
 21
91.999999795932354
 31
0.0
  0
LINE
  5
20A
  8
0
 62
     0
 10
7.4594612942269123
 20
-0.0000002040666232
 30
0.0
 11
9.1148383224609688
 21
1.6553768241674329
 31
0.0
  0
LINE
  5
20B
  8
0
 62
     0
 10
23.322846156398899
 20
16.985916673238989
 30
0.0
 11
25.322846156398779
 21
18.985916673238869
 31
0.0
  0
LINE
  5
20C
  8
0
 62
     0
 10
12.807970363634009
 20
6.4710408804741064
 30
0.0
 11
14.282461516883931
 21
7.9455320337240201
 31
0.0
  0
LINE
  5
20D
  8
0
 62
     0
 10
96.336929279093397
 20
89.999999795933491
 30
0.0
 11
98.33692927909226
 21
91.999999795932354
 31
0.0
  0
LINE
  5
20E
  8
0
 62
     0
 10
6.336929279093396
 20
-0.0000002040665095
 30
0.0
 11
8.0492217895199474
 21
1.712292306360041
 31
0.0
  0
LINE
  5
20F
  8
0
 62
     0
 10
23.322846156399009
 20
18.108448688372729
 30
0.0
 11
25.322846156398779
 21
20.108448688372508
 31
0.0
  0
LINE
  5
210
  8
0
 62
     0
 10
11.704696072879189
 20
6.4902986048529101
 30
0.0
 11
13.17918722612899
 21
7.9647897581027101
 31
0.0
  0
LINE
  5
211
  8
0
 62
     0
 10
95.214397263959867
 20
89.999999795933604
 30
0.0
 11
97.214397263958404
 21
91.999999795932126
 31
0.0
  0
LINE
  5
212
  8
0
 62
     0
 10
5.2143972639597669
 20
-0.0000002040665095
 30
0.0
 11
6.9836052565789251
 21
1.769207788552648
 31
0.0
  0
LINE
  5
213
  8
0
 62
     0
 10
23.322846156399009
 20
19.230980703506361
 30
0.0
 11
25.322846156398779
 21
21.23098070350613
 31
0.0
  0
LINE
  5
214
  8
0
 62
     0
 10
11.00058558063404
 20
6.9087201277413888
 30
0.0
 11
12.09371640977883
 21
8.0018509568862992
 31
0.0
  0
LINE
  5
215
  8
0
 62
     0
 10
94.091865248826025
 20
89.999999795933377
 30
0.0
 11
96.091865248824874
 21
91.99999979593224
 31
0.0
  0
LINE
  5
216
  8
0
 62
     0
 10
4.0918652488261378
 20
-0.0000002040665095
 30
0.0
 11
5.9179887236380182
 21
1.8261232707453701
 31
0.0
  0
LINE
  5
217
  8
0
 62
     0
 10
23.32284615639912
 20
20.353512718640101
 30
0.0
 11
25.322846156398779
 21
22.35351271863976
 31
0.0
  0
LINE
  5
218
  8
0
 62
     0
 10
10.299380240336969
 20
7.3300468025779528
 30
0.0
 11
11.39251106948165
 21
8.4231776317226377
 31
0.0
  0
LINE
  5
219
  8
0
 62
     0
 10
92.969333233692495
 20
89.999999795933491
 30
0.0
 11
94.969333233691245
 21
91.99999979593224
 31
0.0
  0
LINE
  5
21A
  8
0
 62
     0
 10
2.969333233692395
 20
-0.0000002040666232
 30
0.0
 11
5.0978883131695047
 21
2.1285548754104862
 31
0.0
  0
LINE
  5
21B
  8
0
 62
     0
 10
23.32284615639912
 20
21.47604473377374
 30
0.0
 11
25.322846156398899
 21
23.476044733773509
 31
0.0
  0
LINE
  5
21C
  8
0
 62
     0
 10
9.7091308108492722
 20
7.8623293882238841
 30
0.0
 11
10.684341846269939
 21
8.8375404236445547
 31
0.0
  0
LINE
  5
21D
  8
0
 62
     0
 10
91.846801218558895
 20
89.999999795933491
 30
0.0
 11
93.846801218557516
 21
91.999999795932126
 31
0.0
  0
LINE
  5
21E
  8
0
 62
     0
 10
1.84680121855888
 20
-0.0000002040665095
 30
0.0
 11
5.0881190858192431
 21
3.2413176631938541
 31
0.0
  0
LINE
  5
21F
  8
0
 62
     0
 10
23.32284615639924
 20
22.598576748907469
 30
0.0
 11
25.322846156398779
 21
24.598576748907021
 31
0.0
  0
LINE
  5
220
  8
0
 62
     0
 10
90.724269203425123
 20
89.999999795933377
 30
0.0
 11
92.724269203423873
 21
91.999999795932126
 31
0.0
  0
LINE
  5
221
  8
0
 62
     0
 10
1.4700265717837051
 20
0.7457571642919448
 30
0.0
 11
3.7534499544315159
 21
3.029180546939755
 31
0.0
  0
LINE
  5
222
  8
0
 62
     0
 10
89.601737188291622
 20
89.999999795933491
 30
0.0
 11
91.601737188290258
 21
91.999999795932126
 31
0.0
  0
LINE
  5
223
  8
0
 62
     0
 10
23.32284615639912
 20
23.721108764040991
 30
0.0
 11
25.322846156398899
 21
25.721108764040771
 31
0.0
  0
LINE
  5
224
  8
0
 62
     0
 10
88.479205173157993
 20
89.999999795933491
 30
0.0
 11
90.479205173156515
 21
91.999999795932013
 31
0.0
  0
LINE
  5
225
  8
0
 62
     0
 10
23.32284615639924
 20
24.843640779174741
 30
0.0
 11
25.322846156398779
 21
26.843640779174279
 31
0.0
  0
LINE
  5
226
  8
0
 62
     0
 10
87.35667315802425
 20
89.999999795933604
 30
0.0
 11
89.356673158022772
 21
91.999999795932126
 31
0.0
  0
LINE
  5
227
  8
0
 62
     0
 10
23.322846156399009
 20
25.96617279430836
 30
0.0
 11
25.322846156398779
 21
27.96617279430814
 31
0.0
  0
LINE
  5
228
  8
0
 62
     0
 10
86.234141142890394
 20
89.999999795933377
 30
0.0
 11
88.234141142889129
 21
91.999999795932126
 31
0.0
  0
LINE
  5
229
  8
0
 62
     0
 10
23.32284615639912
 20
27.08870480944211
 30
0.0
 11
25.322846156398779
 21
29.088704809441769
 31
0.0
  0
LINE
  5
22A
  8
0
 62
     0
 10
85.111609127756878
 20
89.999999795933491
 30
0.0
 11
87.111609127755401
 21
91.999999795932013
 31
0.0
  0
LINE
  5
22B
  8
0
 62
     0
 10
23.32284615639912
 20
28.211236824575739
 30
0.0
 11
25.322846156398779
 21
30.211236824575401
 31
0.0
  0
LINE
  5
22C
  8
0
 62
     0
 10
83.989077112623235
 20
89.999999795933491
 30
0.0
 11
85.989077112621757
 21
91.999999795932013
 31
0.0
  0
LINE
  5
22D
  8
0
 62
     0
 10
23.32284615639912
 20
29.333768839709361
 30
0.0
 11
25.322846156398779
 21
31.33376883970902
 31
0.0
  0
LINE
  5
22E
  8
0
 62
     0
 10
82.866545097489507
 20
89.999999795933377
 30
0.0
 11
84.866545097488157
 21
91.999999795932013
 31
0.0
  0
LINE
  5
22F
  8
0
 62
     0
 10
23.32284615639912
 20
30.456300854843001
 30
0.0
 11
25.322846156398779
 21
32.456300854842652
 31
0.0
  0
LINE
  5
230
  8
0
 62
     0
 10
81.744013082356005
 20
89.999999795933491
 30
0.0
 11
83.744013082354385
 21
91.999999795931899
 31
0.0
  0
LINE
  5
231
  8
0
 62
     0
 10
23.32284615639912
 20
31.57883286997674
 30
0.0
 11
25.322846156398779
 21
33.578832869976281
 31
0.0
  0
LINE
  5
232
  8
0
 62
     0
 10
80.621481067222362
 20
89.999999795933491
 30
0.0
 11
82.621481067220785
 21
91.999999795931899
 31
0.0
  0
LINE
  5
233
  8
0
 62
     0
 10
23.32284615639912
 20
32.701364885110252
 30
0.0
 11
25.322846156398779
 21
34.701364885109911
 31
0.0
  0
LINE
  5
234
  8
0
 62
     0
 10
79.498949052088733
 20
89.999999795933491
 30
0.0
 11
81.498949052087141
 21
91.999999795931899
 31
0.0
  0
LINE
  5
235
  8
0
 62
     0
 10
23.32284615639912
 20
33.823896900243881
 30
0.0
 11
25.322846156398779
 21
35.82389690024354
 31
0.0
  0
LINE
  5
236
  8
0
 62
     0
 10
78.376417036955203
 20
89.999999795933604
 30
0.0
 11
80.376417036953626
 21
91.999999795932013
 31
0.0
  0
LINE
  5
237
  8
0
 62
     0
 10
23.32284615639924
 20
34.946428915377624
 30
0.0
 11
25.322846156398779
 21
36.946428915377169
 31
0.0
  0
LINE
  5
238
  8
0
 62
     0
 10
77.253885021821361
 20
89.999999795933377
 30
0.0
 11
79.253885021819769
 21
91.999999795931785
 31
0.0
  0
LINE
  5
239
  8
0
 62
     0
 10
23.32284615639912
 20
36.068960930511139
 30
0.0
 11
25.322846156398779
 21
38.068960930510798
 31
0.0
  0
LINE
  5
23A
  8
0
 62
     0
 10
76.131353006687846
 20
89.999999795933491
 30
0.0
 11
78.131353006686254
 21
91.999999795931899
 31
0.0
  0
LINE
  5
23B
  8
0
 62
     0
 10
23.32284615639924
 20
37.191492945644882
 30
0.0
 11
25.322846156398779
 21
39.191492945644427
 31
0.0
  0
LINE
  5
23C
  8
0
 62
     0
 10
75.008820991554217
 20
89.999999795933491
 30
0.0
 11
77.008820991552625
 21
91.999999795931899
 31
0.0
  0
LINE
  5
23D
  8
0
 62
     0
 10
23.32284615639912
 20
38.314024960778397
 30
0.0
 11
25.322846156398779
 21
40.314024960778049
 31
0.0
  0
LINE
  5
23E
  8
0
 62
     0
 10
73.886288976420474
 20
89.999999795933377
 30
0.0
 11
75.886288976418768
 21
91.999999795931672
 31
0.0
  0
LINE
  5
23F
  8
0
 62
     0
 10
23.32284615639924
 20
39.43655697591214
 30
0.0
 11
25.322846156398779
 21
41.436556975911678
 31
0.0
  0
LINE
  5
240
  8
0
 62
     0
 10
72.763756961286944
 20
89.999999795933491
 30
0.0
 11
74.763756961285253
 21
91.999999795931785
 31
0.0
  0
LINE
  5
241
  8
0
 62
     0
 10
23.32284615639924
 20
40.559088991045769
 30
0.0
 11
25.322846156398899
 21
42.559088991045421
 31
0.0
  0
LINE
  5
242
  8
0
 62
     0
 10
71.641224946153329
 20
89.999999795933491
 30
0.0
 11
73.641224946151624
 21
91.999999795931672
 31
0.0
  0
LINE
  5
243
  8
0
 62
     0
 10
23.322846156399351
 20
41.681621006179512
 30
0.0
 11
25.322846156398779
 21
43.681621006178943
 31
0.0
  0
LINE
  5
244
  8
0
 62
     0
 10
70.518692931019586
 20
89.999999795933604
 30
0.0
 11
72.518692931017753
 21
91.999999795931785
 31
0.0
  0
LINE
  5
245
  8
0
 62
     0
 10
23.32284615639924
 20
42.804153021313248
 30
0.0
 11
25.322846156398779
 21
44.804153021312793
 31
0.0
  0
LINE
  5
246
  8
0
 62
     0
 10
69.396160915886071
 20
89.999999795933718
 30
0.0
 11
71.396160915884138
 21
91.999999795931785
 31
0.0
  0
LINE
  5
247
  8
0
 62
     0
 10
23.32284615639924
 20
43.926685036446877
 30
0.0
 11
25.322846156398668
 21
45.926685036446308
 31
0.0
  0
LINE
  5
248
  8
0
 62
     0
 10
68.273628900752215
 20
89.999999795933491
 30
0.0
 11
70.273628900750509
 21
91.999999795931672
 31
0.0
  0
LINE
  5
249
  8
0
 62
     0
 10
23.32284615639924
 20
45.049217051580513
 30
0.0
 11
25.322846156398779
 21
47.049217051580058
 31
0.0
  0
LINE
  5
24A
  8
0
 62
     0
 10
67.151096885618585
 20
89.999999795933491
 30
0.0
 11
69.151096885616766
 21
91.999999795931672
 31
0.0
  0
LINE
  5
24B
  8
0
 62
     0
 10
23.32284615639924
 20
46.171749066714142
 30
0.0
 11
25.322846156398779
 21
48.17174906671368
 31
0.0
  0
LINE
  5
24C
  8
0
 62
     0
 10
66.028564870484843
 20
89.999999795933377
 30
0.0
 11
68.028564870483123
 21
91.999999795931672
 31
0.0
  0
LINE
  5
24D
  8
0
 62
     0
 10
23.322846156399351
 20
47.294281081847878
 30
0.0
 11
25.322846156398779
 21
49.294281081847309
 31
0.0
  0
LINE
  5
24E
  8
0
 62
     0
 10
64.906032855351327
 20
89.999999795933491
 30
0.0
 11
66.906032855349395
 21
91.999999795931558
 31
0.0
  0
LINE
  5
24F
  8
0
 62
     0
 10
23.32284615639924
 20
48.4168130969814
 30
0.0
 11
25.322846156398779
 21
50.416813096980952
 31
0.0
  0
LINE
  5
250
  8
0
 62
     0
 10
63.783500840217698
 20
89.999999795933491
 30
0.0
 11
65.783500840215765
 21
91.999999795931558
 31
0.0
  0
LINE
  5
251
  8
0
 62
     0
 10
23.322846156399351
 20
49.539345112115143
 30
0.0
 11
25.322846156398779
 21
51.539345112114567
 31
0.0
  0
LINE
  5
252
  8
0
 62
     0
 10
62.660968825084062
 20
89.999999795933491
 30
0.0
 11
64.660968825082136
 21
91.999999795931558
 31
0.0
  0
LINE
  5
253
  8
0
 62
     0
 10
23.322846156399351
 20
50.661877127248772
 30
0.0
 11
25.322846156398779
 21
52.661877127248196
 31
0.0
  0
LINE
  5
254
  8
0
 62
     0
 10
61.538436809950561
 20
89.999999795933604
 30
0.0
 11
63.538436809948386
 21
91.999999795931444
 31
0.0
  0
LINE
  5
255
  8
0
 62
     0
 10
23.322846156399351
 20
51.784409142382401
 30
0.0
 11
25.322846156398779
 21
53.784409142381833
 31
0.0
  0
LINE
  5
256
  8
0
 62
     0
 10
60.41590479481669
 20
89.999999795933377
 30
0.0
 11
62.415904794814772
 21
91.999999795931444
 31
0.0
  0
LINE
  5
257
  8
0
 62
     0
 10
23.322846156399351
 20
52.90694115751603
 30
0.0
 11
25.322846156398779
 21
54.906941157515462
 31
0.0
  0
LINE
  5
258
  8
0
 62
     0
 10
59.293372779683182
 20
89.999999795933491
 30
0.0
 11
61.293372779681128
 21
91.999999795931444
 31
0.0
  0
LINE
  5
259
  8
0
 62
     0
 10
23.322846156399351
 20
54.029473172649659
 30
0.0
 11
25.322846156398779
 21
56.029473172649091
 31
0.0
  0
LINE
  5
25A
  8
0
 62
     0
 10
58.170840764549553
 20
89.999999795933491
 30
0.0
 11
60.17084076454762
 21
91.999999795931558
 31
0.0
  0
LINE
  5
25B
  8
0
 62
     0
 10
23.322846156399351
 20
55.152005187783281
 30
0.0
 11
25.322846156398899
 21
57.152005187782827
 31
0.0
  0
LINE
  5
25C
  8
0
 62
     0
 10
57.04830874941581
 20
89.999999795933377
 30
0.0
 11
59.048308749413877
 21
91.999999795931444
 31
0.0
  0
LINE
  5
25D
  8
0
 62
     0
 10
23.322846156399351
 20
56.274537202916918
 30
0.0
 11
25.322846156398779
 21
58.274537202916349
 31
0.0
  0
LINE
  5
25E
  8
0
 62
     0
 10
55.925776734282287
 20
89.999999795933491
 30
0.0
 11
57.925776734280241
 21
91.999999795931444
 31
0.0
  0
LINE
  5
25F
  8
0
 62
     0
 10
23.322846156399471
 20
57.39706921805066
 30
0.0
 11
25.322846156398779
 21
59.397069218049971
 31
0.0
  0
LINE
  5
260
  8
0
 62
     0
 10
54.803244719148658
 20
89.999999795933491
 30
0.0
 11
56.803244719146392
 21
91.999999795931217
 31
0.0
  0
LINE
  5
261
  8
0
 62
     0
 10
23.322846156399471
 20
58.519601233184289
 30
0.0
 11
25.322846156398779
 21
60.519601233183607
 31
0.0
  0
LINE
  5
262
  8
0
 62
     0
 10
53.680712704015043
 20
89.999999795933604
 30
0.0
 11
55.680712704012763
 21
91.99999979593133
 31
0.0
  0
LINE
  5
263
  8
0
 62
     0
 10
23.322846156399471
 20
59.642133248318032
 30
0.0
 11
25.322846156398899
 21
61.642133248317457
 31
0.0
  0
LINE
  5
264
  8
0
 62
     0
 10
52.558180688881407
 20
89.999999795933718
 30
0.0
 11
54.558180688879133
 21
91.999999795931444
 31
0.0
  0
LINE
  5
265
  8
0
 62
     0
 10
23.32284615639924
 20
60.764665263451541
 30
0.0
 11
25.322846156398779
 21
62.764665263451093
 31
0.0
  0
LINE
  5
266
  8
0
 62
     0
 10
51.435648673747551
 20
89.999999795933491
 30
0.0
 11
53.435648673745497
 21
91.999999795931444
 31
0.0
  0
LINE
  5
267
  8
0
 62
     0
 10
23.322846156399471
 20
61.887197278585397
 30
0.0
 11
25.322846156398668
 21
63.887197278584608
 31
0.0
  0
LINE
  5
268
  8
0
 62
     0
 10
50.313116658613922
 20
89.999999795933491
 30
0.0
 11
52.313116658611762
 21
91.99999979593133
 31
0.0
  0
LINE
  5
269
  8
0
 62
     0
 10
23.322846156399471
 20
63.009729293719033
 30
0.0
 11
25.322846156398668
 21
65.009729293718223
 31
0.0
  0
LINE
  5
26A
  8
0
 62
     0
 10
49.190584643480179
 20
89.999999795933377
 30
0.0
 11
51.190584643478132
 21
91.99999979593133
 31
0.0
  0
LINE
  5
26B
  8
0
 62
     0
 10
23.322846156399581
 20
64.132261308852776
 30
0.0
 11
25.322846156398779
 21
66.13226130885198
 31
0.0
  0
LINE
  5
26C
  8
0
 62
     0
 10
48.068052628346663
 20
89.999999795933491
 30
0.0
 11
50.06805262834451
 21
91.99999979593133
 31
0.0
  0
LINE
  5
26D
  8
0
 62
     0
 10
23.322846156399581
 20
65.254793323986405
 30
0.0
 11
25.322846156398779
 21
67.254793323985609
 31
0.0
  0
LINE
  5
26E
  8
0
 62
     0
 10
46.945520613213027
 20
89.999999795933491
 30
0.0
 11
48.945520613210761
 21
91.999999795931217
 31
0.0
  0
LINE
  5
26F
  8
0
 62
     0
 10
23.322846156399581
 20
66.377325339120034
 30
0.0
 11
25.322846156398779
 21
68.377325339119238
 31
0.0
  0
LINE
  5
270
  8
0
 62
     0
 10
45.822988598079412
 20
89.999999795933491
 30
0.0
 11
47.822988598077117
 21
91.999999795931217
 31
0.0
  0
LINE
  5
271
  8
0
 62
     0
 10
23.322846156399692
 20
67.499857354253777
 30
0.0
 11
25.322846156398668
 21
69.499857354252754
 31
0.0
  0
LINE
  5
272
  8
0
 62
     0
 10
44.70045658294589
 20
89.999999795933604
 30
0.0
 11
46.700456582943502
 21
91.999999795931217
 31
0.0
  0
LINE
  5
273
  8
0
 62
     0
 10
23.322846156399581
 20
68.622389369387292
 30
0.0
 11
25.322846156398779
 21
70.622389369386497
 31
0.0
  0
LINE
  5
274
  8
0
 62
     0
 10
43.577924567812033
 20
89.999999795933377
 30
0.0
 11
45.577924567809752
 21
91.999999795931103
 31
0.0
  0
LINE
  5
275
  8
0
 62
     0
 10
23.322846156399581
 20
69.744921384520921
 30
0.0
 11
25.322846156398779
 21
71.744921384520126
 31
0.0
  0
LINE
  5
276
  8
0
 62
     0
 10
42.455392552678518
 20
89.999999795933491
 30
0.0
 11
44.455392552676237
 21
91.999999795931217
 31
0.0
  0
LINE
  5
277
  8
0
 62
     0
 10
23.322846156399581
 20
70.867453399654551
 30
0.0
 11
25.322846156398779
 21
72.867453399653755
 31
0.0
  0
LINE
  5
278
  8
0
 62
     0
 10
41.332860537544882
 20
89.999999795933491
 30
0.0
 11
43.332860537542501
 21
91.999999795931004
 31
0.0
  0
LINE
  5
279
  8
0
 62
     0
 10
23.322846156399692
 20
71.989985414788293
 30
0.0
 11
25.322846156398668
 21
73.98998541478727
 31
0.0
  0
LINE
  5
27A
  8
0
 62
     0
 10
40.210328522411139
 20
89.999999795933377
 30
0.0
 11
42.210328522408759
 21
91.999999795931004
 31
0.0
  0
LINE
  5
27B
  8
0
 62
     0
 10
23.322846156399692
 20
73.112517429921922
 30
0.0
 11
25.322846156398779
 21
75.112517429921013
 31
0.0
  0
LINE
  5
27C
  8
0
 62
     0
 10
39.087796507277631
 20
89.999999795933491
 30
0.0
 11
41.087796507275122
 21
91.999999795931004
 31
0.0
  0
LINE
  5
27D
  8
0
 62
     0
 10
23.322846156399692
 20
74.235049445055552
 30
0.0
 11
25.322846156398779
 21
76.235049445054642
 31
0.0
  0
LINE
  5
27E
  8
0
 62
     0
 10
37.965264492144001
 20
89.999999795933491
 30
0.0
 11
39.965264492141387
 21
91.999999795930876
 31
0.0
  0
LINE
  5
27F
  8
0
 62
     0
 10
23.322846156399581
 20
75.357581460189067
 30
0.0
 11
25.322846156398779
 21
77.357581460188271
 31
0.0
  0
LINE
  5
280
  8
0
 62
     0
 10
36.842732477010379
 20
89.999999795933604
 30
0.0
 11
38.842732477007992
 21
91.999999795931217
 31
0.0
  0
LINE
  5
281
  8
0
 62
     0
 10
23.322846156399692
 20
76.480113475322923
 30
0.0
 11
25.322846156398899
 21
78.480113475322128
 31
0.0
  0
LINE
  5
282
  8
0
 62
     0
 10
35.720200461876743
 20
89.999999795933718
 30
0.0
 11
37.720200461874128
 21
91.999999795931103
 31
0.0
  0
LINE
  5
283
  8
0
 62
     0
 10
23.322846156399581
 20
77.602645490456553
 30
0.0
 11
25.322846156398668
 21
79.602645490455643
 31
0.0
  0
LINE
  5
284
  8
0
 62
     0
 10
34.597668446742887
 20
89.999999795933491
 30
0.0
 11
36.597668446740499
 21
91.999999795931103
 31
0.0
  0
LINE
  5
285
  8
0
 62
     0
 10
23.322846156399581
 20
78.725177505590182
 30
0.0
 11
25.322846156398668
 21
80.725177505589286
 31
0.0
  0
LINE
  5
286
  8
0
 62
     0
 10
33.475136431609371
 20
89.999999795933604
 30
0.0
 11
35.47513643160665
 21
91.999999795930876
 31
0.0
  0
LINE
  5
287
  8
0
 62
     0
 10
23.322846156399692
 20
79.847709520723924
 30
0.0
 11
25.322846156398668
 21
81.847709520722887
 31
0.0
  0
LINE
  5
288
  8
0
 62
     0
 10
32.352604416475522
 20
89.999999795933377
 30
0.0
 11
34.352604416473007
 21
91.999999795930876
 31
0.0
  0
LINE
  5
289
  8
0
 62
     0
 10
23.322846156399581
 20
80.97024153585744
 30
0.0
 11
25.322846156398779
 21
82.970241535856644
 31
0.0
  0
LINE
  5
28A
  8
0
 62
     0
 10
31.230072401341999
 20
89.999999795933491
 30
0.0
 11
33.230072401339498
 21
91.999999795931004
 31
0.0
  0
LINE
  5
28B
  8
0
 62
     0
 10
23.322846156399581
 20
82.092773550991069
 30
0.0
 11
25.322846156398779
 21
84.092773550990259
 31
0.0
  0
LINE
  5
28C
  8
0
 62
     0
 10
30.10754038620837
 20
89.999999795933491
 30
0.0
 11
32.107540386205763
 21
91.999999795930876
 31
0.0
  0
LINE
  5
28D
  8
0
 62
     0
 10
23.322846156399809
 20
83.215305566124925
 30
0.0
 11
25.322846156398668
 21
85.215305566123789
 31
0.0
  0
LINE
  5
28E
  8
0
 62
     0
 10
28.985008371074741
 20
89.999999795933491
 30
0.0
 11
30.98500837107213
 21
91.999999795930876
 31
0.0
  0
LINE
  5
28F
  8
0
 62
     0
 10
23.322846156399809
 20
84.337837581258555
 30
0.0
 11
25.322846156398668
 21
86.337837581257418
 31
0.0
  0
LINE
  5
290
  8
0
 62
     0
 10
27.862476355941229
 20
89.999999795933604
 30
0.0
 11
29.86247635593827
 21
91.999999795930634
 31
0.0
  0
LINE
  5
291
  8
0
 62
     0
 10
23.322846156399692
 20
85.460369596392084
 30
0.0
 11
25.322846156398779
 21
87.46036959639116
 31
0.0
  0
LINE
  5
292
  8
0
 62
     0
 10
26.739944340807369
 20
89.999999795933377
 30
0.0
 11
28.739944340804641
 21
91.999999795930634
 31
0.0
  0
LINE
  5
293
  8
0
 62
     0
 10
23.322846156399692
 20
86.582901611525685
 30
0.0
 11
25.322846156398779
 21
88.582901611524804
 31
0.0
  0
LINE
  5
294
  8
0
 62
     0
 10
25.61741232567385
 20
89.999999795933491
 30
0.0
 11
27.617412325671129
 21
91.999999795930762
 31
0.0
  0
LINE
  5
295
  8
0
 62
     0
 10
23.322846156399809
 20
87.705433626659456
 30
0.0
 11
25.322846156398779
 21
89.705433626658404
 31
0.0
  0
LINE
  5
296
  8
0
 62
     0
 10
23.322846156399809
 20
88.827965641793057
 30
0.0
 11
26.4948803105375
 21
91.999999795930762
 31
0.0
  0
LINE
  5
297
  8
0
 62
     0
 10
23.227129454528491
 20
89.854780955055389
 30
0.0
 11
25.372348295403761
 21
91.999999795930634
 31
0.0
  0
LINE
  5
298
  8
0
 62
     0
 10
22.136101718322841
 20
89.886285233983358
 30
0.0
 11
24.249816280270121
 21
91.999999795930634
 31
0.0
  0
LINE
  5
299
  8
0
 62
     0
 10
21.042660358291069
 20
89.915375889085226
 30
0.0
 11
23.127284265136272
 21
91.999999795930435
 31
0.0
  0
LINE
  5
29A
  8
0
 62
     0
 10
19.946789726552542
 20
89.942037272480434
 30
0.0
 11
22.004752250002749
 21
91.999999795930634
 31
0.0
  0
LINE
  5
29B
  8
0
 62
     0
 10
18.8484739673072
 20
89.966253528368838
 30
0.0
 11
20.88222023486901
 21
91.999999795930634
 31
0.0
  0
LINE
  5
29C
  8
0
 62
     0
 10
15.96282237926925
 20
88.203133955464523
 30
0.0
 11
19.759688219735381
 21
91.999999795930634
 31
0.0
  0
LINE
  5
29D
  8
0
 62
     0
 10
16.660428491355329
 20
90.023272082684116
 30
0.0
 11
18.637156204601641
 21
91.999999795930535
 31
0.0
  0
LINE
  5
29E
  8
0
 62
     0
 10
14.518015602188029
 20
87.880859193516926
 30
0.0
 11
16.100488091754521
 21
89.463331683083311
 31
0.0
  0
LINE
  5
29F
  8
0
 62
     0
 10
16.754337799725128
 20
91.239713406187661
 30
0.0
 11
17.514624189468119
 21
91.999999795930634
 31
0.0
  0
LINE
  5
2A0
  8
0
 62
     0
 10
13.07320882510669
 20
87.558584431569216
 30
0.0
 11
14.65568131467432
 21
89.141056921136837
 31
0.0
  0
LINE
  5
2A1
  8
0
 62
     0
 10
11.66912618778292
 20
87.277033809379077
 30
0.0
 11
13.21087453759435
 21
88.818782159190505
 31
0.0
  0
LINE
  5
2A2
  8
0
 62
     0
 10
10.9195133956805
 20
87.649953032410266
 30
0.0
 11
12.16120995616359
 21
88.891649592893359
 31
0.0
  0
LINE
  5
2A3
  8
0
 62
     0
 10
9.0428846667333573
 20
86.895856318596756
 30
0.0
 11
11.199769383442231
 21
89.052741035305644
 31
0.0
  0
LINE
  5
2A4
  8
0
 62
     0
 10
7.0753209228373626
 20
86.050824589834406
 30
0.0
 11
8.5733820175220217
 21
87.548885684519064
 31
0.0
  0
LINE
  5
2A5
  8
0
 62
     0
 10
5.9338725021905239
 20
86.031908184321196
 30
0.0
 11
7.1713363503827159
 21
87.269372032513374
 31
0.0
  0
LINE
  5
2A6
  8
0
 62
     0
 10
4.7924240815437988
 20
86.012991778808086
 30
0.0
 11
6.026726267612502
 21
87.247293964876789
 31
0.0
  0
LINE
  5
2A7
  8
0
 62
     0
 10
4.1840460014828968
 20
85.404613698747184
 30
0.0
 11
4.5117891588636212
 21
85.732356856127907
 31
0.0
  0
LINE
  5
2A8
  8
0
 62
     0
 10
3.243149528358003
 20
85.586249240755919
 30
0.0
 11
4.8821161848426291
 21
87.22521589724056
 31
0.0
  0
LINE
  5
2A9
  8
0
 62
     0
 10
2.3035220394179978
 20
85.769153766949543
 30
0.0
 11
3.7375061020724161
 21
87.203137829603975
 31
0.0
  0
LINE
  5
2AA
  8
0
 62
     0
 10
1.363894550477994
 20
85.952058293143182
 30
0.0
 11
2.5928960193022021
 21
87.181059761967376
 31
0.0
  0
LINE
  5
2AB
  8
0
 62
     0
 10
0.6285437511534157
 20
86.339239508952232
 30
0.0
 11
1.4482859365322149
 21
87.158981694331032
 31
0.0
  0
LINE
  5
2AC
  8
0
 62
     0
 10
0.0631434713975523
 20
86.896371244330098
 30
0.0
 11
0.7437012040179525
 21
87.576928976950512
 31
0.0
  0
ENDBLK
  5
2AE
  8
0
  0
BLOCK
  8
0
  2
*U3
 70
     1
 10
0.0
 20
0.0
 30
0.0
  3
*U3
  1

  0
LINE
  5
2B0
  8
0
 10
23.028081878327381
 20
6.2926481704113248
 30
0.0
 11
11.69672435695543
 21
6.4904377516719469
 31
0.0
  0
ARC
  5
2B1
  8
0
 10
23.022846156396099
 20
5.9926938618644954
 30
0.0
 40
0.3
 50
0.0000000000434209
 51
88.999999999980574
  0
LINE
  5
2B2
  8
0
 10
11.69672435695543
 20
6.4904377516719469
 30
0.0
 11
10.01900239373753
 21
7.4985148090471512
 31
0.0
  0
LINE
  5
2B3
  8
0
 10
23.322846156397642
 20
2.168116375649447
 30
0.0
 11
23.322846156396281
 21
5.9926938618647219
 31
0.0
  0
ARC
  5
2B4
  8
0
 10
10.40528094992009
 20
8.1413902845737312
 30
0.0
 40
0.7500000000000066
 50
58.999999999998543
 51
238.99999999999861
  0
ARC
  5
2B5
  8
0
 10
8.7842329389764018
 20
483.43108729692
 30
0.0
 40
481.4825214421117
 50
270.74529551194638
 51
271.73033864435229
  0
LINE
  5
2B6
  8
0
 10
10.79155950610266
 20
8.7842657601003111
 30
0.0
 11
12.124765540318091
 21
7.9831947570902448
 31
0.0
  0
ARC
  5
2B7
  8
0
 10
-80.224517125188626
 20
1106.963332117901
 30
0.0
 40
1109.0736205627859
 50
274.68248157000892
 51
274.92789480682052
  0
LINE
  5
2B8
  8
0
 10
12.124765540318091
 20
7.9831947570902448
 30
0.0
 11
19.912688693062819
 21
7.8472560528033446
 31
0.0
  0
LINE
  5
2B9
  8
0
 10
5.3375953044846929
 20
1.857122575177413
 30
0.0
 11
10.313353327942879
 21
1.5913631219176521
 31
0.0
  0
ARC
  5
2BA
  8
0
 10
19.87778388018819
 20
5.8475606624905359
 30
0.0
 40
2.0000000000000031
 50
54.588491330227271
 51
88.999999999998238
  0
ARC
  5
2BB
  8
0
 10
5.3469640558319043
 20
2.1069469664965932
 30
0.0
 40
0.2499999999997058
 50
175.58551999983521
 51
267.85233746618871
  0
ARC
  5
2BC
  8
0
 10
22.195563442716089
 20
9.1076063522820032
 30
0.0
 40
2.00000000000002
 50
234.58849133022349
 51
269.00000000000472
  0
LINE
  5
2BD
  8
0
 10
5.166620825315249
 20
3.0188720281279302
 30
0.0
 11
5.0977057229142702
 21
2.126189717624924
 31
0.0
  0
LINE
  5
2BE
  8
0
 10
22.160658629841691
 20
7.1079109619691963
 30
0.0
 11
23.017610434468001
 21
7.0929528125790284
 31
0.0
  0
ARC
  5
2BF
  8
0
 10
4.8758194369106604
 20
3.0413219044443158
 30
0.0
 40
0.2916666666668571
 50
355.58551999984559
 51
107.6139912142592
  0
ARC
  5
2C0
  8
0
 10
23.022846156399051
 20
7.3929071211258579
 30
0.0
 40
0.3
 50
269.00000000002399
 51
0.0
  0
ARC
  5
2C1
  8
0
 10
6.2079806805227227
 20
-3.7314073019821299
 30
0.0
 40
7.1923757652333631
 50
101.39020352663999
 51
126.4737321670904
  0
LINE
  5
2C2
  8
0
 10
23.322846156399009
 20
7.3929071211258579
 30
0.0
 11
23.322846156399919
 21
89.851898948347639
 31
0.0
  0
ARC
  5
2C3
  8
0
 10
2.351069780688249
 20
1.3316415875727889
 30
0.0
 40
0.8333333333322356
 50
120.1557555349024
 51
175.58552000008461
  0
ARC
  5
2C4
  8
0
 10
8.7842329390334726
 20
-391.41107197290842
 30
0.0
 40
481.48252144209539
 50
88.269661355654108
 51
88.921246298813145
  0
LINE
  5
2C5
  8
0
 10
1.4373967381388859
 20
0.3230910972873744
 30
0.0
 11
1.5202086709628011
 21
1.3957840913302559
 31
0.0
  0
LINE
  5
2C6
  8
0
 10
17.848955860499242
 20
89.986112535471307
 30
0.0
 11
17.848955860499242
 21
89.425367852227609
 31
0.0
  0
ARC
  5
2C7
  8
0
 10
1.7365067376404111
 20
0.2999997959326492
 30
0.0
 40
0.3
 50
175.585519999702
 51
270.0
  0
ARC
  5
2C8
  8
0
 10
16.848955860499242
 20
89.425367852227609
 30
0.0
 40
1.0000000000000071
 50
282.57439686180771
 51
0.0
  0
LINE
  5
2C9
  8
0
 10
1.7365067376404111
 20
-0.0000002040666232
 30
0.0
 11
149.10388597354449
 21
-0.0000002040666232
 31
0.0
  0
LINE
  5
2CA
  8
0
 10
17.066662982883368
 20
88.449353708445287
 30
0.0
 11
11.91652959009298
 21
87.300578633820237
 31
0.0
  0
LINE
  5
2CB
  8
0
 10
149.10388597354449
 20
-0.0000002040666232
 30
0.0
 11
149.10388597354449
 21
91.999999795933377
 31
0.0
  0
ARC
  5
2CC
  8
0
 10
11.69882246770749
 20
88.276592777603923
 30
0.0
 40
1.000000000000006
 50
208.67386719182409
 51
282.57439686186689
  0
LINE
  5
2CD
  8
0
 10
149.10388597354449
 20
91.999999795933377
 30
0.0
 11
17.090764572157241
 21
91.999999795930435
 31
0.0
  0
ARC
  5
2CE
  8
0
 10
10.733720853196701
 20
87.74878706177185
 30
0.0
 40
0.0999999999997615
 50
28.67386719076983
 51
119.7952214382603
  0
ARC
  5
2CF
  8
0
 10
17.090764572157241
 20
91.699999795930466
 30
0.0
 40
0.3
 50
90.0
 51
175.585519999702
  0
LINE
  5
2D0
  8
0
 10
10.68403069457281
 20
87.835567751650714
 30
0.0
 11
7.6933402183076387
 21
86.123114389427769
 31
0.0
  0
LINE
  5
2D1
  8
0
 10
16.643344928520939
 20
89.801982498664415
 30
0.0
 11
16.791654572655709
 21
91.723091097285192
 31
0.0
  0
ARC
  5
2D2
  8
0
 10
7.4448894251904667
 20
86.557017838824663
 30
0.0
 40
0.5000000000001124
 50
270.94943492417298
 51
299.79522143789183
  0
ARC
  5
2D3
  8
0
 10
16.344234929019422
 20
89.82507380001914
 30
0.0
 40
0.3000000000000251
 50
282.57439686170039
 51
355.585519999702
  0
LINE
  5
2D4
  8
0
 10
7.4531744287448873
 20
86.057086484820616
 30
0.0
 11
4.5117891588629391
 21
86.008341017632446
 31
0.0
  0
LINE
  5
2D5
  8
0
 10
12.105557781232619
 20
88.572233139499417
 30
0.0
 11
16.409547065733928
 21
89.532269556885126
 31
0.0
  0
LINE
  5
2D6
  8
0
 10
4.5117891588629391
 20
86.008341017632446
 30
0.0
 11
4.5117891588638477
 21
85.703328139674682
 31
0.0
  0
LINE
  5
2D7
  8
0
 10
12.187672403238141
 20
89.043531186076848
 30
0.0
 11
12.105557781232619
 21
88.572233139499417
 31
0.0
  0
ARC
  5
2D8
  8
0
 10
4.2117891588636658
 20
85.703328139674682
 30
0.0
 40
0.3000000000000745
 50
258.98475659690621
 51
0.0
  0
ARC
  5
2D9
  8
0
 10
11.85433906990465
 20
89.043531186076848
 30
0.0
 40
0.3333333333334933
 50
0.0
 51
118.507016483182
  0
LINE
  5
2DA
  8
0
 10
4.154468114418477
 20
85.408855224343256
 30
0.0
 11
1.241551704081757
 21
85.975873114034016
 31
0.0
  0
LINE
  5
2DB
  8
0
 10
8.1909606376261763
 20
87.329913248893376
 30
0.0
 11
11.69525027748068
 21
89.336450743698492
 31
0.0
  0
ARC
  5
2DC
  8
0
 10
1.432621852236025
 20
86.957449498472101
 30
0.0
 40
0.999999999999998
 50
227.17400620660811
 51
258.98475659670152
  0
ARC
  5
2DD
  8
0
 10
7.9839415492383523
 20
87.785043007361637
 30
0.0
 40
0.5000000000002693
 50
269.98148701122273
 51
294.45876048784112
  0
LINE
  5
2DE
  8
0
 10
0.7528477413393376
 20
86.224027956550685
 30
0.0
 11
0.1595055544426032
 21
86.773969067495614
 31
0.0
  0
LINE
  5
2DF
  8
0
 10
1.3409123476517371
 20
87.156910594841861
 30
0.0
 11
7.9837799929368876
 21
87.285043033460511
 31
0.0
  0
ARC
  5
2E0
  8
0
 10
0.4993926098900375
 20
87.140679838458126
 30
0.0
 40
0.5000000000001093
 50
47.17400620631205
 51
227.17400620682611
  0
ARC
  5
2E1
  8
0
 10
1.335126806708558
 20
87.456854802180146
 30
0.0
 40
0.2999999999996983
 50
227.1740062065428
 51
271.10502543089802
  0
LINE
  5
2E2
  8
0
 10
0.8392796653404275
 20
87.507390609417243
 30
0.0
 11
1.131194573440097
 21
87.236828339604813
 31
0.0
  0
LINE
  5
2E3
  8
0
 10
147.10388597354449
 20
68.427882500460669
 30
0.0
 11
147.10388597354449
 21
23.572117091406081
 31
0.0
  0
ARC
  5
2E4
  8
0
 10
146.60388597354449
 20
23.572117091406081
 30
0.0
 40
0.5
 50
243.2564139482368
 51
0.0
  0
ARC
  5
2E5
  8
0
 10
146.60388597354449
 20
68.427882500460669
 30
0.0
 40
0.5
 50
0.0
 51
116.7435860517634
  0
ARC
  5
2E6
  8
0
 10
144.80389207706
 20
19.99999979593338
 30
0.0
 40
3.5
 50
63.256413948363303
 51
144.6207927022636
  0
ARC
  5
2E7
  8
0
 10
144.80389207706
 20
71.999999795933377
 30
0.0
 40
3.5
 50
215.3792072977337
 51
296.74358605163673
  0
ARC
  5
2E8
  8
0
 10
142.19481059158119
 20
21.852752831733941
 30
0.0
 40
0.3
 50
144.62079270197029
 51
240.00042415513769
  0
ARC
  5
2E9
  8
0
 10
142.19481059158119
 20
70.147246760132816
 30
0.0
 40
0.3
 50
119.9995758446742
 51
215.3792072979991
  0
LINE
  5
2EA
  8
0
 10
142.0448125149162
 20
21.592944100170261
 30
0.0
 11
142.82905048506791
 21
21.140171837816869
 31
0.0
  0
LINE
  5
2EB
  8
0
 10
142.82905048506771
 20
70.859827754050343
 30
0.0
 11
142.04481251491731
 21
70.407055491696497
 31
0.0
  0
ARC
  5
2EC
  8
0
 10
142.9790485617313
 20
21.399980569380549
 30
0.0
 40
0.3
 50
240.00042415540099
 51
322.50535399548181
  0
ARC
  5
2ED
  8
0
 10
142.97904856173199
 20
70.600019022486208
 30
0.0
 40
0.3
 50
37.494646004349327
 51
119.999575844706
  0
ARC
  5
2EE
  8
0
 10
144.80389207706
 20
19.99999979593338
 30
0.0
 40
2.0
 50
217.49464600463341
 51
142.50535399540891
  0
ARC
  5
2EF
  8
0
 10
144.80389207706
 20
71.999999795933377
 30
0.0
 40
2.0
 50
217.49464600462821
 51
142.50535399540891
  0
ARC
  5
2F0
  8
0
 10
142.9790485617325
 20
18.600019022486212
 30
0.0
 40
0.3
 50
37.494646004367752
 51
119.99957584486231
  0
ARC
  5
2F1
  8
0
 10
142.9790485617313
 20
73.399980569380546
 30
0.0
 40
0.3
 50
240.00042415513769
 51
322.50535399548181
  0
LINE
  5
2F2
  8
0
 10
142.8290504850674
 20
18.859827754049888
 30
0.0
 11
142.0448125149189
 21
18.4070554916965
 31
0.0
  0
LINE
  5
2F3
  8
0
 10
142.04481251491569
 20
73.59294410017003
 30
0.0
 11
142.82905048506629
 21
73.140171837816865
 31
0.0
  0
ARC
  5
2F4
  8
0
 10
142.19481059158119
 20
18.147246760132809
 30
0.0
 40
0.3
 50
119.999575844411
 51
215.3792072979991
  0
ARC
  5
2F5
  8
0
 10
142.19481059158031
 20
73.852752831733937
 30
0.0
 40
0.3
 50
144.6207927027379
 51
240.0004241552347
  0
ARC
  5
2F6
  8
0
 10
144.80389207706
 20
19.99999979593338
 30
0.0
 40
3.5
 50
215.3792072977337
 51
296.74358605163673
  0
ARC
  5
2F7
  8
0
 10
144.80389207706
 20
71.999999795933377
 30
0.0
 40
3.5
 50
63.256413948363303
 51
144.62079270233809
  0
ARC
  5
2F8
  8
0
 10
146.60388597354449
 20
16.427882500460669
 30
0.0
 40
0.5
 50
0.0
 51
116.7435860517634
  0
ARC
  5
2F9
  8
0
 10
146.60388597354449
 20
75.572117091406085
 30
0.0
 40
0.5
 50
243.2564139482368
 51
0.0
  0
LINE
  5
2FA
  8
0
 10
147.10388597354449
 20
16.427882500460669
 30
0.0
 11
147.10388597354449
 21
1.999999795933376
 31
0.0
  0
LINE
  5
2FB
  8
0
 10
147.10388597354449
 20
89.999999795933377
 30
0.0
 11
147.10388597354449
 21
75.572117091406085
 31
0.0
  0
LINE
  5
2FC
  8
0
 10
147.10388597354449
 20
1.999999795933376
 30
0.0
 11
25.322846156399009
 21
1.999999795933376
 31
0.0
  0
LINE
  5
2FD
  8
0
 10
25.322846156399009
 20
89.999999795933377
 30
0.0
 11
147.10388597354449
 21
89.999999795933377
 31
0.0
  0
LINE
  5
2FE
  8
0
 10
25.322846156399009
 20
1.999999795933376
 30
0.0
 11
25.322846156399009
 21
89.999999795933377
 31
0.0
  0
ENDBLK
  5
300
  8
0
  0
ENDSEC
  0
SECTION
  2
ENTITIES
  0
LINE
  5
90
  8
0
 10
434.3263339121188
 20
722.38608594848927
 30
0.0
 11
422.99497639074679
 21
722.58387552974978
 31
0.0
  0
ARC
  5
91
  8
0
 10
434.32109819018751
 20
722.08613163994244
 30
0.0
 40
0.3
 50
0.0000000000434209
 51
88.999999999980574
  0
LINE
  5
92
  8
0
 10
422.99497639074679
 20
722.58387552974978
 30
0.0
 11
421.31725442752889
 21
723.59195258712509
 31
0.0
  0
LINE
  5
93
  8
0
 10
434.621098190189
 20
718.26155415372727
 30
0.0
 11
434.62109819018769
 21
722.08613163994255
 31
0.0
  0
ARC
  5
94
  8
0
 10
421.70353298371151
 20
724.23482806265156
 30
0.0
 40
0.7500000000000066
 50
58.999999999998543
 51
238.99999999999861
  0
ARC
  5
95
  8
0
 10
420.08248497276782
 20
1199.5245250749981
 30
0.0
 40
481.4825214421117
 50
270.74529551194638
 51
271.73033864435229
  0
LINE
  5
96
  8
0
 10
422.08981153989407
 20
724.87770353817825
 30
0.0
 11
423.42301757410939
 21
724.07663253516819
 31
0.0
  0
ARC
  5
97
  8
0
 10
331.07373490860277
 20
1823.056769895979
 30
0.0
 40
1109.0736205627859
 50
274.68248157000892
 51
274.92789480682052
  0
LINE
  5
98
  8
0
 10
423.42301757410939
 20
724.07663253516819
 30
0.0
 11
431.21094072685418
 21
723.94069383088117
 31
0.0
  0
LINE
  5
99
  8
0
 10
416.63584733827611
 20
717.95056035325536
 30
0.0
 11
421.61160536173418
 21
717.68480089999559
 31
0.0
  0
ARC
  5
9A
  8
0
 10
431.17603591397949
 20
721.94099844056836
 30
0.0
 40
2.0000000000000031
 50
54.588491330227271
 51
88.999999999998238
  0
ARC
  5
9B
  8
0
 10
416.6452160896232
 20
718.20038474457454
 30
0.0
 40
0.2499999999997058
 50
175.58551999983521
 51
267.85233746618871
  0
ARC
  5
9C
  8
0
 10
433.49381547650751
 20
725.20104413035995
 30
0.0
 40
2.00000000000002
 50
234.58849133022349
 51
269.00000000000472
  0
LINE
  5
9D
  8
0
 10
416.46487285910661
 20
719.11230980620587
 30
0.0
 11
416.39595775670563
 21
718.21962749570275
 31
0.0
  0
LINE
  5
9E
  8
0
 10
433.45891066363311
 20
723.20134874004714
 30
0.0
 11
434.31586246825941
 21
723.18639059065686
 31
0.0
  0
ARC
  5
9F
  8
0
 10
416.17407147070202
 20
719.13475968252214
 30
0.0
 40
0.2916666666668571
 50
355.58551999984559
 51
107.6139912142592
  0
ARC
  5
A0
  8
0
 10
434.32109819019041
 20
723.4863448992038
 30
0.0
 40
0.3
 50
269.00000000002399
 51
0.0
  0
ARC
  5
A1
  8
0
 10
417.50623271431408
 20
712.36203047609581
 30
0.0
 40
7.1923757652333631
 50
101.39020352663999
 51
126.4737321670904
  0
LINE
  5
A2
  8
0
 10
434.62109819019031
 20
723.4863448992038
 30
0.0
 11
434.62109819019128
 21
805.94533672642547
 31
0.0
  0
ARC
  5
A3
  8
0
 10
413.64932181447972
 20
717.42507936565073
 30
0.0
 40
0.8333333333322356
 50
120.1557555349024
 51
175.58552000008461
  0
ARC
  5
A4
  8
0
 10
420.08248497282477
 20
324.68236580516952
 30
0.0
 40
481.48252144209539
 50
88.269661355654108
 51
88.921246298813145
  0
LINE
  5
A5
  8
0
 10
412.73564877193019
 20
716.41652887536532
 30
0.0
 11
412.81846070475422
 21
717.4892218694082
 31
0.0
  0
LINE
  5
A6
  8
0
 10
429.14720789429072
 20
806.07955031354925
 30
0.0
 11
429.14720789429072
 21
805.51880563030545
 31
0.0
  0
ARC
  5
A7
  8
0
 10
413.03475877143183
 20
716.39343757401048
 30
0.0
 40
0.3
 50
175.585519999702
 51
270.0
  0
ARC
  5
A8
  8
0
 10
428.1472078942906
 20
805.51880563030545
 30
0.0
 40
1.0000000000000071
 50
282.57439686180771
 51
0.0
  0
LINE
  5
A9
  8
0
 10
413.03475877143183
 20
716.0934375740112
 30
0.0
 11
560.40213800733579
 21
716.0934375740112
 31
0.0
  0
LINE
  5
AA
  8
0
 10
428.36491501667467
 20
804.54279148652324
 30
0.0
 11
423.21478162388428
 21
803.39401641189818
 31
0.0
  0
LINE
  5
AB
  8
0
 10
560.40213800733579
 20
716.0934375740112
 30
0.0
 11
560.40213800733579
 21
808.09343757401132
 31
0.0
  0
ARC
  5
AC
  8
0
 10
422.9970745014989
 20
804.37003055568175
 30
0.0
 40
1.000000000000006
 50
208.67386719182409
 51
282.57439686186689
  0
LINE
  5
AD
  8
0
 10
560.40213800733579
 20
808.09343757401132
 30
0.0
 11
428.3890166059486
 21
808.09343757400825
 31
0.0
  0
ARC
  5
AE
  8
0
 10
422.031972886988
 20
803.84222483984979
 30
0.0
 40
0.0999999999997615
 50
28.67386719076983
 51
119.7952214382603
  0
ARC
  5
AF
  8
0
 10
428.3890166059486
 20
807.79343757400829
 30
0.0
 40
0.3
 50
90.0
 51
175.585519999702
  0
LINE
  5
B0
  8
0
 10
421.98228272836423
 20
803.92900552972856
 30
0.0
 11
418.991592252099
 21
802.21655216750582
 31
0.0
  0
LINE
  5
B1
  8
0
 10
427.9415969623123
 20
805.89542027674236
 30
0.0
 11
428.08990660644707
 21
807.81652887536313
 31
0.0
  0
ARC
  5
B2
  8
0
 10
418.74314145898182
 20
802.6504556169026
 30
0.0
 40
0.5000000000001124
 50
270.94943492417298
 51
299.79522143789183
  0
ARC
  5
B3
  8
0
 10
427.64248696281078
 20
805.91851157809708
 30
0.0
 40
0.3000000000000251
 50
282.57439686170039
 51
355.585519999702
  0
LINE
  5
B4
  8
0
 10
418.75142646253619
 20
802.15052426289856
 30
0.0
 11
415.8100411926543
 21
802.1017787957104
 31
0.0
  0
LINE
  5
B5
  8
0
 10
423.40380981502398
 20
804.66567091757736
 30
0.0
 11
427.70779909952529
 21
805.62570733496295
 31
0.0
  0
LINE
  5
B6
  8
0
 10
415.8100411926543
 20
802.1017787957104
 30
0.0
 11
415.81004119265521
 21
801.79676591775251
 31
0.0
  0
LINE
  5
B7
  8
0
 10
423.4859244370295
 20
805.13696896415479
 30
0.0
 11
423.40380981502398
 21
804.66567091757736
 31
0.0
  0
ARC
  5
B8
  8
0
 10
415.51004119265502
 20
801.79676591775251
 30
0.0
 40
0.3000000000000745
 50
258.98475659690621
 51
0.0
  0
ARC
  5
B9
  8
0
 10
423.15259110369601
 20
805.13696896415479
 30
0.0
 40
0.3333333333334933
 50
0.0
 51
118.507016483182
  0
LINE
  5
BA
  8
0
 10
415.45272014820989
 20
801.5022930024212
 30
0.0
 11
412.53980373787311
 21
802.06931089211184
 31
0.0
  0
LINE
  5
BB
  8
0
 10
419.48921267141759
 20
803.42335102697132
 30
0.0
 11
422.99350231127198
 21
805.42988852177655
 31
0.0
  0
ARC
  5
BC
  8
0
 10
412.73087388602738
 20
803.05088727655004
 30
0.0
 40
0.999999999999998
 50
227.17400620660811
 51
258.98475659670152
  0
ARC
  5
BD
  8
0
 10
419.28219358302982
 20
803.87848078543959
 30
0.0
 40
0.5000000000002693
 50
269.98148701122273
 51
294.45876048784112
  0
LINE
  5
BE
  8
0
 10
412.05109977513069
 20
802.31746573462863
 30
0.0
 11
411.45775758823402
 21
802.86740684557356
 31
0.0
  0
LINE
  5
BF
  8
0
 10
412.63916438144309
 20
803.25034837291969
 30
0.0
 11
419.2820320267283
 21
803.37848081153845
 31
0.0
  0
ARC
  5
C0
  8
0
 10
411.79764464368139
 20
803.23411761653597
 30
0.0
 40
0.5000000000001093
 50
47.17400620631205
 51
227.17400620682611
  0
ARC
  5
C1
  8
0
 10
412.63337884049992
 20
803.55029258025797
 30
0.0
 40
0.2999999999996983
 50
227.1740062065428
 51
271.10502543089802
  0
LINE
  5
C2
  8
0
 10
412.13753169913178
 20
803.6008283874952
 30
0.0
 11
412.4294466072314
 21
803.33026611768275
 31
0.0
  0
LINE
  5
C3
  8
0
 10
558.40213800733591
 20
784.52132027853861
 30
0.0
 11
558.40213800733591
 21
739.66555486948403
 31
0.0
  0
ARC
  5
C4
  8
0
 10
557.90213800733591
 20
739.66555486948403
 30
0.0
 40
0.5
 50
243.2564139482368
 51
0.0
  0
ARC
  5
C5
  8
0
 10
557.90213800733591
 20
784.52132027853861
 30
0.0
 40
0.5
 50
0.0
 51
116.7435860517634
  0
ARC
  5
C6
  8
0
 10
556.10214411085144
 20
736.09343757401132
 30
0.0
 40
3.5
 50
63.256413948363303
 51
144.6207927022636
  0
ARC
  5
C7
  8
0
 10
556.10214411085144
 20
788.09343757401132
 30
0.0
 40
3.5
 50
215.3792072977337
 51
296.74358605163673
  0
ARC
  5
C8
  8
0
 10
553.49306262537254
 20
737.94619060981188
 30
0.0
 40
0.3
 50
144.62079270197029
 51
240.00042415513769
  0
ARC
  5
C9
  8
0
 10
553.49306262537254
 20
786.24068453821064
 30
0.0
 40
0.3
 50
119.9995758446742
 51
215.3792072979991
  0
LINE
  5
CA
  8
0
 10
553.34306454870762
 20
737.68638187824808
 30
0.0
 11
554.12730251885932
 21
737.23360961589481
 31
0.0
  0
LINE
  5
CB
  8
0
 10
554.1273025188591
 20
786.95326553212817
 30
0.0
 11
553.34306454870875
 21
786.50049326977444
 31
0.0
  0
ARC
  5
CC
  8
0
 10
554.27730059552266
 20
737.49341834745849
 30
0.0
 40
0.3
 50
240.00042415540099
 51
322.50535399548181
  0
ARC
  5
CD
  8
0
 10
554.27730059552346
 20
786.69345680056415
 30
0.0
 40
0.3
 50
37.494646004349327
 51
119.999575844706
  0
ARC
  5
CE
  8
0
 10
556.10214411085144
 20
736.09343757401132
 30
0.0
 40
2.0
 50
217.49464600463341
 51
142.50535399540891
  0
ARC
  5
CF
  8
0
 10
556.10214411085144
 20
788.09343757401132
 30
0.0
 40
2.0
 50
217.49464600462821
 51
142.50535399540891
  0
ARC
  5
D0
  8
0
 10
554.27730059552391
 20
734.69345680056415
 30
0.0
 40
0.3
 50
37.494646004367752
 51
119.99957584486231
  0
ARC
  5
D1
  8
0
 10
554.27730059552266
 20
789.49341834745837
 30
0.0
 40
0.3
 50
240.00042415513769
 51
322.50535399548181
  0
LINE
  5
D2
  8
0
 10
554.12730251885876
 20
734.95326553212783
 30
0.0
 11
553.34306454871034
 21
734.50049326977444
 31
0.0
  0
LINE
  5
D3
  8
0
 10
553.34306454870705
 20
789.68638187824786
 30
0.0
 11
554.12730251885773
 21
789.23360961589481
 31
0.0
  0
ARC
  5
D4
  8
0
 10
553.49306262537254
 20
734.24068453821064
 30
0.0
 40
0.3
 50
119.999575844411
 51
215.3792072979991
  0
ARC
  5
D5
  8
0
 10
553.49306262537175
 20
789.94619060981177
 30
0.0
 40
0.3
 50
144.6207927027379
 51
240.0004241552347
  0
ARC
  5
D6
  8
0
 10
556.10214411085144
 20
736.09343757401132
 30
0.0
 40
3.5
 50
215.3792072977337
 51
296.74358605163673
  0
ARC
  5
D7
  8
0
 10
556.10214411085144
 20
788.09343757401132
 30
0.0
 40
3.5
 50
63.256413948363303
 51
144.62079270233809
  0
ARC
  5
D8
  8
0
 10
557.90213800733591
 20
732.52132027853861
 30
0.0
 40
0.5
 50
0.0
 51
116.7435860517634
  0
ARC
  5
D9
  8
0
 10
557.90213800733591
 20
791.66555486948403
 30
0.0
 40
0.5
 50
243.2564139482368
 51
0.0
  0
LINE
  5
DA
  8
0
 10
558.40213800733591
 20
732.52132027853861
 30
0.0
 11
558.40213800733591
 21
718.09343757401132
 31
0.0
  0
LINE
  5
DB
  8
0
 10
558.40213800733591
 20
806.09343757401143
 30
0.0
 11
558.40213800733591
 21
791.66555486948403
 31
0.0
  0
LINE
  5
DC
  8
0
 10
558.40213800733591
 20
718.09343757401132
 30
0.0
 11
436.62109819019042
 21
718.09343757401132
 31
0.0
  0
LINE
  5
DD
  8
0
 10
436.62109819019042
 20
806.09343757401143
 30
0.0
 11
558.40213800733591
 21
806.09343757401143
 31
0.0
  0
LINE
  5
DE
  8
0
 10
436.62109819019042
 20
718.09343757401132
 30
0.0
 11
436.62109819019042
 21
806.09343757401143
 31
0.0
  0
ENDSEC
  0
EOF
