  0
SECTION
  2
HEADER
  9
$ACADVER
  1
AC1009
  9
$INSBASE
 10
0.0
 20
0.0
 30
0.0
  9
$EXTMIN
 10
2889.0510493526699
 20
1690.8296128094271
 30
0.0
  9
$EXTMAX
 10
2936.355916416514
 20
1725.5767567109599
 30
0.0
  9
$LIMMIN
 10
0.0
 20
0.0
  9
$LIMMAX
 10
420.0
 20
297.0
  9
$ORTHOMODE
 70
     0
  9
$REGENMODE
 70
     1
  9
$FILLMODE
 70
     1
  9
$QTEXTMODE
 70
     0
  9
$MIRRTEXT
 70
     0
  9
$DRAGMODE
 70
     2
  9
$LTSCALE
 40
1.0
  9
$OSMODE
 70
  3071
  9
$ATTMODE
 70
     1
  9
$TEXTSIZE
 40
2.5
  9
$TRACEWID
 40
1.0
  9
$TEXTSTYLE
  7
STANDARD
  9
$CLAYER
  8
0
  9
$CELTYPE
  6
BYLAYER
  9
$CECOLOR
 62
   256
  9
$DIMSCALE
 40
1.0
  9
$DIMASZ
 40
2.5
  9
$DIMEXO
 40
0.625
  9
$DIMDLI
 40
3.75
  9
$DIMRND
 40
0.0
  9
$DIMDLE
 40
0.0
  9
$DIMEXE
 40
1.25
  9
$DIMTP
 40
0.0
  9
$DIMTM
 40
0.0
  9
$DIMTXT
 40
2.5
  9
$DIMCEN
 40
2.5
  9
$DIMTSZ
 40
0.0
  9
$DIMTOL
 70
     0
  9
$DIMLIM
 70
     0
  9
$DIMTIH
 70
     0
  9
$DIMTOH
 70
     0
  9
$DIMSE1
 70
     0
  9
$DIMSE2
 70
     0
  9
$DIMTAD
 70
     1
  9
$DIMZIN
 70
     8
  9
$DIMBLK
  1

  9
$DIMASO
 70
     1
  9
$DIMSHO
 70
     1
  9
$DIMPOST
  1

  9
$DIMAPOST
  1

  9
$DIMALT
 70
     0
  9
$DIMALTD
 70
     3
  9
$DIMALTF
 40
0.03937007874016
  9
$DIMLFAC
 40
1.0
  9
$DIMTOFL
 70
     1
  9
$DIMTVP
 40
0.0
  9
$DIMTIX
 70
     0
  9
$DIMSOXD
 70
     0
  9
$DIMSAH
 70
     0
  9
$DIMBLK1
  1

  9
$DIMBLK2
  1

  9
$DIMSTYLE
  2
ISO-25
  9
$DIMCLRD
 70
     0
  9
$DIMCLRE
 70
     0
  9
$DIMCLRT
 70
     0
  9
$DIMTFAC
 40
1.0
  9
$DIMGAP
 40
0.625
  9
$LUNITS
 70
     2
  9
$LUPREC
 70
     4
  9
$SKETCHINC
 40
1.0
  9
$FILLETRAD
 40
0.0
  9
$AUNITS
 70
     0
  9
$AUPREC
 70
     0
  9
$MENU
  1
.
  9
$ELEVATION
 40
0.0
  9
$PELEVATION
 40
0.0
  9
$THICKNESS
 40
0.0
  9
$LIMCHECK
 70
     0
  9
$BLIPMODE
 70
     0
  9
$CHAMFERA
 40
0.0
  9
$CHAMFERB
 40
0.0
  9
$SKPOLY
 70
     0
  9
$TDCREATE
 40
2456820.402607847
  9
$TDUPDATE
 40
2456820.40270794
  9
$TDINDWG
 40
0.0001014583
  9
$TDUSRTIMER
 40
0.0001014583
  9
$USRTIMER
 70
     1
  9
$ANGBASE
 50
0.0
  9
$ANGDIR
 70
     0
  9
$PDMODE
 70
     0
  9
$PDSIZE
 40
0.0
  9
$PLINEWID
 40
0.0
  9
$COORDS
 70
     1
  9
$SPLFRAME
 70
     0
  9
$SPLINETYPE
 70
     6
  9
$SPLINESEGS
 70
     8
  9
$ATTDIA
 70
     1
  9
$ATTREQ
 70
     1
  9
$HANDLING
 70
     1
  9
$HANDSEED
  5
3F4
  9
$SURFTAB1
 70
     6
  9
$SURFTAB2
 70
     6
  9
$SURFTYPE
 70
     6
  9
$SURFU
 70
     6
  9
$SURFV
 70
     6
  9
$UCSNAME
  2

  9
$UCSORG
 10
0.0
 20
0.0
 30
0.0
  9
$UCSXDIR
 10
1.0
 20
0.0
 30
0.0
  9
$UCSYDIR
 10
0.0
 20
1.0
 30
0.0
  9
$PUCSNAME
  2

  9
$PUCSORG
 10
0.0
 20
0.0
 30
0.0
  9
$PUCSXDIR
 10
1.0
 20
0.0
 30
0.0
  9
$PUCSYDIR
 10
0.0
 20
1.0
 30
0.0
  9
$USERI1
 70
     0
  9
$USERI2
 70
     0
  9
$USERI3
 70
     0
  9
$USERI4
 70
     0
  9
$USERI5
 70
     0
  9
$USERR1
 40
0.0
  9
$USERR2
 40
0.0
  9
$USERR3
 40
0.0
  9
$USERR4
 40
0.0
  9
$USERR5
 40
0.0
  9
$WORLDVIEW
 70
     1
  9
$SHADEDGE
 70
     3
  9
$SHADEDIF
 70
    70
  9
$TILEMODE
 70
     1
  9
$MAXACTVP
 70
    64
  9
$PLIMCHECK
 70
     0
  9
$PEXTMIN
 10
0.0
 20
0.0
 30
0.0
  9
$PEXTMAX
 10
0.0
 20
0.0
 30
0.0
  9
$PLIMMIN
 10
0.0
 20
0.0
  9
$PLIMMAX
 10
12.0
 20
9.0
  9
$UNITMODE
 70
     0
  9
$VISRETAIN
 70
     1
  9
$PLINEGEN
 70
     0
  9
$PSLTSCALE
 70
     1
  0
ENDSEC
  0
SECTION
  2
TABLES
  0
TABLE
  2
VPORT
 70
     1
  0
VPORT
  2
*ACTIVE
 70
     0
 10
0.0
 20
0.0
 11
1.0
 21
1.0
 12
2912.7034828845922
 22
1708.20375555548
 13
0.0
 23
0.0
 14
10.0
 24
10.0
 15
10.0
 25
10.0
 16
0.0
 26
0.0
 36
1.0
 17
0.0
 27
0.0
 37
0.0
 40
35.087766268117782
 41
2.068965517241379
 42
50.0
 43
0.0
 44
0.0
 50
0.0
 51
0.0
 71
     0
 72
  1000
 73
     1
 74
     3
 75
     0
 76
     1
 77
     0
 78
     0
  0
ENDTAB
  0
TABLE
  2
LTYPE
 70
     1
  0
LTYPE
  2
CONTINUOUS
 70
     0
  3
Solid line
 72
    65
 73
     0
 40
0.0
  0
ENDTAB
  0
TABLE
  2
LAYER
 70
     1
  0
LAYER
  2
0
 70
     0
 62
     7
  6
CONTINUOUS
  0
ENDTAB
  0
TABLE
  2
STYLE
 70
     5
  0
STYLE
  2
STANDARD
 70
     0
 40
0.0
 41
1.0
 50
0.0
 71
     0
 42
2.5
  3
txt
  4

  0
STYLE
  2
ANNOTATIVE
 70
     0
 40
0.0
 41
1.0
 50
0.0
 71
     0
 42
2.5
  3
txt
  4

  0
STYLE
  2
ROMANT
 70
     0
 40
3.0
 41
1.0
 50
0.0
 71
     0
 42
2.5
  3
romant.shx
  4

  0
STYLE
  2
LEADER
 70
     0
 40
0.0
 41
1.05
 50
0.0
 71
     0
 42
3.4267938661068911
  3
txt
  4

  0
STYLE
  2
BILGIN
 70
     0
 40
0.0
 41
1.0
 50
0.0
 71
     0
 42
3.9107383764021502
  3
txt
  4

  0
ENDTAB
  0
TABLE
  2
VIEW
 70
     1
  0
ENDTAB
  0
TABLE
  2
UCS
 70
     0
  0
ENDTAB
  0
TABLE
  2
APPID
 70
    10
  0
APPID
  2
ACAD
 70
     0
  0
APPID
  2
ACAD_PSEXT
 70
     0
  0
APPID
  2
ACADANNOPO
 70
     0
  0
APPID
  2
ACADANNOTATIVE
 70
     0
  0
APPID
  2
ACAD_DSTYLE_DIMJAG
 70
     0
  0
APPID
  2
ACAD_DSTYLE_DIMTALN
 70
     0
  0
APPID
  2
ACAD_MLEADERVER
 70
     0
  0
APPID
  2
ACAD_NAV_VCDISPLAY
 70
     0
  0
APPID
  2
GRADIENTCOLOR1ACI
 70
     0
  0
APPID
  2
GRADIENTCOLOR2ACI
 70
     0
  0
ENDTAB
  0
TABLE
  2
DIMSTYLE
 70
     8
  0
DIMSTYLE
  2
STANDARD
 70
     0
  3

  4

  5

  6

  7

 40
1.0
 41
0.18
 42
0.0625
 43
0.38
 44
0.18
 45
0.0
 46
0.0
 47
0.0
 48
0.0
140
0.18
141
0.09
142
0.0
143
25.399999999999999
144
1.0
145
0.0
146
1.0
147
0.09
 71
     0
 72
     0
 73
     1
 74
     1
 75
     0
 76
     0
 77
     0
 78
     0
170
     0
171
     2
172
     0
173
     0
174
     0
175
     0
176
     0
177
     0
178
     0
  0
DIMSTYLE
  2
ANNOTATIVE
 70
     0
  3

  4

  5

  6

  7

 40
0.0
 41
2.5
 42
0.625
 43
3.75
 44
1.25
 45
0.0
 46
0.0
 47
0.0
 48
0.0
140
2.5
141
2.5
142
0.0
143
0.03937007874016
144
1.0
145
0.0
146
1.0
147
0.625
 71
     0
 72
     0
 73
     0
 74
     0
 75
     0
 76
     0
 77
     1
 78
     8
170
     0
171
     3
172
     1
173
     0
174
     0
175
     0
176
     0
177
     0
178
     0
  0
DIMSTYLE
  2
ISO-25
 70
     0
  3

  4

  5

  6

  7

 40
1.0
 41
2.5
 42
0.625
 43
3.75
 44
1.25
 45
0.0
 46
0.0
 47
0.0
 48
0.0
140
2.5
141
2.5
142
0.0
143
0.03937007874016
144
1.0
145
0.0
146
1.0
147
0.625
 71
     0
 72
     0
 73
     0
 74
     0
 75
     0
 76
     0
 77
     1
 78
     8
170
     0
171
     3
172
     1
173
     0
174
     0
175
     0
176
     0
177
     0
178
     0
  0
DIMSTYLE
  2
ISO-25_1_E_4
 70
     0
  3

  4

  5

  6

  7

 40
1.0
 41
2.5
 42
0.0
 43
3.75
 44
0.3
 45
0.0
 46
0.0
 47
0.0
 48
0.0
140
3.0
141
0.2
142
0.0
143
0.03937007874016
144
0.25
145
0.0
146
1.0
147
0.5
 71
     0
 72
     0
 73
     0
 74
     0
 75
     0
 76
     0
 77
     1
 78
     8
170
     0
171
     3
172
     0
173
     0
174
     0
175
     0
176
   242
177
   242
178
     1
  0
DIMSTYLE
  2
ISO-25_1-3
 70
     0
  3

  4

  5

  6

  7

 40
1.0
 41
2.5
 42
0.0
 43
3.75
 44
0.0
 45
0.0
 46
0.0
 47
0.0
 48
0.0
140
2.5
141
2.5
142
0.0
143
0.03937007874016
144
0.333333333333333
145
0.0
146
1.0
147
0.5
 71
     0
 72
     0
 73
     0
 74
     0
 75
     0
 76
     0
 77
     1
 78
     8
170
     0
171
     3
172
     1
173
     0
174
     0
175
     0
176
   256
177
     0
178
   256
  0
DIMSTYLE
  2
ISO-25_1_E_3
 70
     0
  3

  4

  5

  6

  7

 40
1.0
 41
2.5
 42
0.0
 43
3.75
 44
0.3
 45
0.0
 46
0.0
 47
0.0
 48
0.0
140
3.0
141
0.2
142
0.0
143
0.03937007874016
144
0.333333333333333
145
0.0
146
1.0
147
0.5
 71
     0
 72
     0
 73
     0
 74
     0
 75
     0
 76
     0
 77
     1
 78
     8
170
     0
171
     3
172
     0
173
     0
174
     0
175
     0
176
   242
177
   242
178
     1
  0
DIMSTYLE
  2
DETAY-1
 70
     0
  3

  4

  5

  6

  7

 40
1.0
 41
2.5
 42
0.625
 43
3.75
 44
1.25
 45
0.0
 46
0.0
 47
0.0
 48
0.0
140
2.5
141
2.5
142
0.0
143
0.03937007874016
144
1.0
145
0.0
146
1.0
147
0.5
 71
     0
 72
     0
 73
     0
 74
     0
 75
     0
 76
     0
 77
     1
 78
     8
170
     0
171
     3
172
     1
173
     0
174
     0
175
     0
176
     0
177
     0
178
     0
  0
DIMSTYLE
  2
BILGIN
 70
     0
  3

  4

  5

  6

  7

 40
1.0
 41
2.5
 42
2.0
 43
3.75
 44
1.25
 45
0.0
 46
0.0
 47
0.0
 48
0.0
140
2.5
141
2.5
142
0.0
143
0.03937007874016
144
1.0
145
0.0
146
1.0
147
0.625
 71
     0
 72
     0
 73
     0
 74
     0
 75
     0
 76
     0
 77
     1
 78
     8
170
     0
171
     3
172
     1
173
     0
174
     0
175
     0
176
     0
177
     0
178
     0
  0
ENDTAB
  0
ENDSEC
  0
SECTION
  2
BLOCKS
  0
BLOCK
  8
0
  2
$MODEL_SPACE
 70
     0
 10
0.0
 20
0.0
 30
0.0
  3
$MODEL_SPACE
  1

  0
ENDBLK
  5
21
  8
0
  0
BLOCK
 67
     1
  8
0
  2
$PAPER_SPACE
 70
     0
 10
0.0
 20
0.0
 30
0.0
  3
$PAPER_SPACE
  1

  0
ENDBLK
  5
D5
 67
     1
  8
0
  0
BLOCK
  8
0
  2
*X2
 70
     1
 10
0.0
 20
0.0
 30
0.0
  3
*X2
  1

  0
LINE
  5
329
  8
0
 62
     0
 10
41.541639332809147
 20
0.1169796229305575
 30
0.0
 11
42.823690844496923
 21
1.399031134618326
 31
0.0
  0
LINE
  5
32A
  8
0
 62
     0
 10
40.365497434348981
 20
1.185901754737642
 30
0.0
 11
42.204867583764091
 21
3.0252719041527589
 31
0.0
  0
LINE
  5
32B
  8
0
 62
     0
 10
39.911935052954959
 20
0.7323393733436207
 30
0.0
 11
40.2158041337143
 21
1.036208454102961
 31
0.0
  0
LINE
  5
32C
  8
0
 62
     0
 10
40.632147324131893
 20
3.697615674788266
 30
0.0
 11
42.392484205813162
 21
5.457952556469535
 31
0.0
  0
LINE
  5
32D
  8
0
 62
     0
 10
38.188326175512891
 20
3.4988585564365162
 30
0.0
 11
41.399967583738992
 21
6.7104999646626311
 31
0.0
  0
LINE
  5
32E
  8
0
 62
     0
 10
35.688326175514248
 20
0.9988585564378809
 30
0.0
 11
36.49750280951821
 21
1.8080351904418419
 31
0.0
  0
LINE
  5
32F
  8
0
 62
     0
 10
39.799967583738642
 20
7.3555639949290699
 30
0.0
 11
41.399967583738992
 21
8.9555639949294346
 31
0.0
  0
LINE
  5
330
  8
0
 62
     0
 10
34.180251850014884
 20
1.735848261205319
 30
0.0
 11
37.968262140381739
 21
5.5238585515721752
 31
0.0
  0
LINE
  5
331
  8
0
 62
     0
 10
39.79996758373909
 20
9.6006280251967837
 30
0.0
 11
41.399967583739453
 21
11.200628025197149
 31
0.0
  0
LINE
  5
332
  8
0
 62
     0
 10
33.303540051347682
 20
3.1042004928053748
 30
0.0
 11
35.723198110114943
 21
5.5238585515726291
 31
0.0
  0
LINE
  5
333
  8
0
 62
     0
 10
39.799967583738642
 20
11.84569205546404
 30
0.0
 11
41.399967583738537
 21
13.445692055463949
 31
0.0
  0
LINE
  5
334
  8
0
 62
     0
 10
31.478134079848129
 20
3.523858551573539
 30
0.0
 11
33.478134079847678
 21
5.5238585515730838
 31
0.0
  0
LINE
  5
335
  8
0
 62
     0
 10
39.79996758373818
 20
14.09075608573084
 30
0.0
 11
41.399967583738537
 21
15.690756085731209
 31
0.0
  0
LINE
  5
336
  8
0
 62
     0
 10
29.233070049580419
 20
3.5238585515730838
 30
0.0
 11
31.233070049580419
 21
5.5238585515730838
 31
0.0
  0
LINE
  5
337
  8
0
 62
     0
 10
39.79996758373909
 20
16.335820115998558
 30
0.0
 11
41.399967583738537
 21
17.935820115998009
 31
0.0
  0
LINE
  5
338
  8
0
 62
     0
 10
26.98800601931362
 20
3.5238585515730838
 30
0.0
 11
28.98800601931362
 21
5.5238585515730838
 31
0.0
  0
LINE
  5
339
  8
0
 62
     0
 10
39.799967583738642
 20
18.58088414626582
 30
0.0
 11
41.399967583738089
 21
20.180884146265271
 31
0.0
  0
LINE
  5
33A
  8
0
 62
     0
 10
22.21794199393571
 20
0.998858556462892
 30
0.0
 11
26.742941989046809
 21
5.5238585515739942
 31
0.0
  0
LINE
  5
33B
  8
0
 62
     0
 10
39.79996758373818
 20
20.825948176533078
 30
0.0
 11
41.399967583738089
 21
22.42594817653298
 31
0.0
  0
LINE
  5
33C
  8
0
 62
     0
 10
22.438813626059979
 20
3.4647942188548759
 30
0.0
 11
24.4978779587791
 21
5.5238585515739942
 31
0.0
  0
LINE
  5
33D
  8
0
 62
     0
 10
39.799967583738642
 20
23.071012206800329
 30
0.0
 11
41.399967583738537
 21
24.671012206800238
 31
0.0
  0
LINE
  5
33E
  8
0
 62
     0
 10
20.227813933400739
 20
3.4988585564624368
 30
0.0
 11
22.252813928511841
 21
5.5238585515735394
 31
0.0
  0
LINE
  5
33F
  8
0
 62
     0
 10
45.870551371306192
 20
29.14159599436789
 30
0.0
 11
47.282997010785039
 21
30.55404163384674
 31
0.0
  0
LINE
  5
340
  8
0
 62
     0
 10
16.844280086352679
 20
0.1153247094143808
 30
0.0
 11
18.01303188680458
 21
1.284076509866281
 31
0.0
  0
LINE
  5
341
  8
0
 62
     0
 10
39.79996758373909
 20
25.316076237068049
 30
0.0
 11
41.399967583738537
 21
26.9160762370675
 31
0.0
  0
LINE
  5
342
  8
0
 62
     0
 10
18.053580308802339
 20
3.5696889621312939
 30
0.0
 11
20.007749898245041
 21
5.5238585515739942
 31
0.0
  0
LINE
  5
343
  8
0
 62
     0
 10
43.625487341038927
 20
29.14159599436789
 30
0.0
 11
45.225487341038843
 21
30.741595994367799
 31
0.0
  0
LINE
  5
344
  8
0
 62
     0
 10
15.40845072767115
 20
0.9245593810001082
 30
0.0
 11
17.5385940327842
 21
3.054702686113159
 31
0.0
  0
LINE
  5
345
  8
0
 62
     0
 10
39.799967583738642
 20
27.561140267335311
 30
0.0
 11
42.980423310771577
 21
30.74159599436825
 31
0.0
  0
LINE
  5
346
  8
0
 62
     0
 10
16.199967583740541
 20
3.961140267337214
 30
0.0
 11
17.799967583738631
 21
5.5611402673353041
 31
0.0
  0
LINE
  5
347
  8
0
 62
     0
 10
39.799967583738642
 20
29.806204297602559
 30
0.0
 11
40.735359280503872
 21
30.741595994367799
 31
0.0
  0
LINE
  5
348
  8
0
 62
     0
 10
40.904867583597927
 20
30.911104297461861
 30
0.0
 11
42.50486758379202
 21
32.511104297655947
 31
0.0
  0
LINE
  5
349
  8
0
 62
     0
 10
15.338679356876581
 20
5.344916070740509
 30
0.0
 11
17.799967583738631
 21
7.8062042976025623
 31
0.0
  0
LINE
  5
34A
  8
0
 62
     0
 10
16.1999675837369
 20
8.4512683278676377
 30
0.0
 11
17.799967583738631
 21
10.05126832786936
 31
0.0
  0
LINE
  5
34B
  8
0
 62
     0
 10
40.811855777723387
 20
33.063156521854133
 30
0.0
 11
42.41185577785199
 21
34.663156521982728
 31
0.0
  0
LINE
  5
34C
  8
0
 62
     0
 10
13.093615326609781
 20
5.344916070740509
 30
0.0
 11
14.593615326609781
 21
6.844916070740509
 31
0.0
  0
LINE
  5
34D
  8
0
 62
     0
 10
16.199967583736001
 20
10.696332358133979
 30
0.0
 11
17.79996758373909
 21
12.29633235813708
 31
0.0
  0
LINE
  5
34E
  8
0
 62
     0
 10
38.649637683524361
 20
33.14600245792235
 30
0.0
 11
40.249637683567009
 21
34.746002457965012
 31
0.0
  0
LINE
  5
34F
  8
0
 62
     0
 10
11.199967583738269
 20
5.6963323581362602
 30
0.0
 11
13.199967583737809
 21
7.6963323581358054
 31
0.0
  0
LINE
  5
350
  8
0
 62
     0
 10
36.404573653269381
 20
33.14600245793509
 30
0.0
 11
38.004573653299758
 21
34.74600245796546
 31
0.0
  0
LINE
  5
351
  8
0
 62
     0
 10
16.199967583735539
 20
12.941396388401239
 30
0.0
 11
17.79996758373909
 21
14.54139638840479
 31
0.0
  0
LINE
  5
352
  8
0
 62
     0
 10
34.159509623014863
 20
33.146002457947823
 30
0.0
 11
35.7595096230325
 21
34.74600245796546
 31
0.0
  0
LINE
  5
353
  8
0
 62
     0
 10
16.19996758373463
 20
15.18646041866759
 30
0.0
 11
17.799967583738631
 21
16.786460418671592
 31
0.0
  0
LINE
  5
354
  8
0
 62
     0
 10
31.91444559276033
 20
33.146002457960101
 30
0.0
 11
33.514445592765242
 21
34.746002457965012
 31
0.0
  0
LINE
  5
355
  8
0
 62
     0
 10
16.199967583719619
 20
17.43152444891939
 30
0.0
 11
17.799967583738631
 21
19.031524448938399
 31
0.0
  0
LINE
  5
356
  8
0
 62
     0
 10
29.669381562506722
 20
33.146002457973736
 30
0.0
 11
31.269381562498442
 21
34.74600245796546
 31
0.0
  0
LINE
  5
357
  8
0
 62
     0
 10
16.199967583725989
 20
19.676588479193011
 30
0.0
 11
17.79996758373909
 21
21.276588479206112
 31
0.0
  0
LINE
  5
358
  8
0
 62
     0
 10
27.424317532251742
 20
33.146002457986469
 30
0.0
 11
29.024317532231638
 21
34.74600245796637
 31
0.0
  0
LINE
  5
359
  8
0
 62
     0
 10
16.19996758373145
 20
21.921652509466188
 30
0.0
 11
17.79996758373909
 21
23.521652509473832
 31
0.0
  0
LINE
  5
35A
  8
0
 62
     0
 10
25.179253501996751
 20
33.146002457998748
 30
0.0
 11
26.779253501963922
 21
34.746002457965922
 31
0.0
  0
LINE
  5
35B
  8
0
 62
     0
 10
16.199967583737362
 20
24.166716539739351
 30
0.0
 11
17.799967583738631
 21
25.766716539740631
 31
0.0
  0
LINE
  5
35C
  8
0
 62
     0
 10
16.199967583739181
 20
26.411780570007981
 30
0.0
 11
17.79996758373909
 21
28.01178057000789
 31
0.0
  0
LINE
  5
35D
  8
0
 62
     0
 10
14.63310308447126
 20
24.844916070740052
 30
0.0
 11
16.133103084466711
 21
26.344916070735511
 31
0.0
  0
LINE
  5
35E
  8
0
 62
     0
 10
22.93418947174268
 20
33.14600245801148
 30
0.0
 11
24.534189471697569
 21
34.74600245796637
 31
0.0
  0
LINE
  5
35F
  8
0
 62
     0
 10
12.65751498588315
 20
22.86932797215195
 30
0.0
 11
13.199967583744179
 21
23.411780570012979
 31
0.0
  0
LINE
  5
360
  8
0
 62
     0
 10
16.199967583738719
 20
28.656844600275232
 30
0.0
 11
17.799967583738631
 21
30.256844600275151
 31
0.0
  0
LINE
  5
361
  8
0
 62
     0
 10
20.689125441487711
 20
33.146002458024213
 30
0.0
 11
22.289125441430318
 21
34.746002457966831
 31
0.0
  0
LINE
  5
362
  8
0
 62
     0
 10
11.37102998767068
 20
23.827907004207191
 30
0.0
 11
13.88803905420218
 21
26.344916070738691
 31
0.0
  0
LINE
  5
363
  8
0
 62
     0
 10
16.199967583739181
 20
30.90190863054341
 30
0.0
 11
17.799967583738631
 21
32.501908630542857
 31
0.0
  0
LINE
  5
364
  8
0
 62
     0
 10
18.444061411233179
 20
33.146002458037401
 30
0.0
 11
20.04406141116306
 21
34.746002457967279
 31
0.0
  0
LINE
  5
365
  8
0
 62
     0
 10
11.19996758373463
 20
25.901908630538859
 30
0.0
 11
11.64297502393674
 21
26.344916070740961
 31
0.0
  0
LINE
  5
366
  8
0
 62
     0
 10
16.199967583739181
 20
33.146972660810214
 30
0.0
 11
17.798997380896711
 21
34.746002457967741
 31
0.0
  0
LINE
  5
367
  8
0
 62
     0
 10
14.053933350635811
 20
33.2460024579741
 30
0.0
 11
15.55393335062899
 21
34.746002457967279
 31
0.0
  0
LINE
  5
368
  8
0
 62
     0
 10
11.80886932037037
 20
33.246002457976381
 30
0.0
 11
13.30886932036219
 21
34.746002457968189
 31
0.0
  0
LINE
  5
369
  8
0
 62
     0
 10
9.0088693203701951
 20
30.446002457976199
 30
0.0
 11
10.100000519941201
 21
31.537133657547201
 31
0.0
  0
LINE
  5
36A
  8
0
 62
     0
 10
8.900000519945479
 20
32.582197687818741
 30
0.0
 11
11.06380529009493
 21
34.746002457968189
 31
0.0
  0
LINE
  5
36B
  8
0
 62
     0
 10
7.3158215802059203
 20
30.998018748079179
 30
0.0
 11
7.7638052900979337
 21
31.44600245797119
 31
0.0
  0
LINE
  5
36C
  8
0
 62
     0
 10
7.3187412598304027
 20
33.246002457970462
 30
0.0
 11
8.8187412598285846
 21
34.746002457968643
 31
0.0
  0
LINE
  5
36D
  8
0
 62
     0
 10
5.0736772295631454
 20
33.246002457970462
 30
0.0
 11
6.5736772295617811
 21
34.746002457969098
 31
0.0
  0
LINE
  5
36E
  8
0
 62
     0
 10
2.3040895422832359
 20
30.47641477069055
 30
0.0
 11
2.7695882072348459
 21
30.94191343564216
 31
0.0
  0
LINE
  5
36F
  8
0
 62
     0
 10
2.8286131992958872
 20
33.246002457970917
 30
0.0
 11
4.3286131992940682
 21
34.746002457969098
 31
0.0
  0
LINE
  5
370
  8
0
 62
     0
 10
0.1026577900615848
 20
30.520047048736622
 30
0.0
 11
1.271295786064911
 21
31.688685044739941
 31
0.0
  0
LINE
  5
371
  8
0
 62
     0
 10
0.0000005199440238
 20
32.662453808886312
 30
0.0
 11
2.0835491690272638
 21
34.746002457969553
 31
0.0
  0
ENDBLK
  5
373
  8
0
  0
BLOCK
  8
0
  2
*U3
 70
     1
 10
0.0
 20
0.0
 30
0.0
  3
*U3
  1

  0
ARC
  5
375
  8
0
 62
     0
 10
11.49996758373868
 20
5.6449160707401234
 30
0.0
 40
0.3
 50
180.0
 51
270.0
  0
LINE
  5
376
  8
0
 62
     0
 10
11.49996758373868
 20
5.3449160707401679
 30
0.0
 11
16.199967583743039
 21
5.3449160707403962
 31
0.0
  0
LINE
  5
377
  8
0
 62
     0
 10
11.19996758373577
 20
7.4203559993214858
 30
0.0
 11
11.1999675837385
 21
5.6449160707401234
 31
0.0
  0
LINE
  5
378
  8
0
 62
     0
 10
16.199967583737589
 20
2.298858556462505
 30
0.0
 11
16.199967583743039
 21
5.3449160707403962
 31
0.0
  0
ARC
  5
379
  8
0
 62
     0
 10
11.49996758375141
 20
7.420355999384241
 30
0.0
 40
0.3000000000156173
 50
152.35163491808959
 51
180.00000001198529
  0
ARC
  5
37A
  8
0
 62
     0
 10
15.899967583738309
 20
2.2988585564615951
 30
0.0
 40
0.2999999999997453
 50
280.90428327732923
 51
0.0000000001737011
  0
ARC
  5
37B
  8
0
 62
     0
 10
13.484587061522459
 20
6.3806879258635263
 30
0.0
 40
2.5404517791540151
 50
104.5345340977493
 51
152.351634906096
  0
ARC
  5
37C
  8
0
 62
     0
 10
16.013468894359669
 20
1.7096918122427951
 30
0.0
 40
0.3000000000054181
 50
100.9042832771156
 51
159.9999999997454
  0
ARC
  5
37D
  8
0
 62
     0
 10
12.90182730175343
 20
8.5467675028620533
 30
0.0
 40
0.2981485678786541
 50
359.57283862894502
 51
100.5914100199337
  0
LINE
  5
37E
  8
0
 62
     0
 10
15.21805979748637
 20
0.4014645994656121
 30
0.0
 11
15.731561108119189
 21
1.8122978552436271
 31
0.0
  0
LINE
  5
37F
  8
0
 62
     0
 10
13.1999675837385
 20
7.1449160707396677
 30
0.0
 11
13.199967583737591
 21
8.5445447148607627
 31
0.0
  0
ARC
  5
380
  8
0
 62
     0
 10
15.499967583735041
 20
0.2988585564725099
 30
0.0
 40
0.3000000000106279
 50
160.0000000016675
 51
275.00000000059879
  0
ARC
  5
381
  8
0
 62
     0
 10
13.49996758373868
 20
7.1449160707405781
 30
0.0
 40
0.3000000000004093
 50
180.00000000017371
 51
270.0
  0
LINE
  5
382
  8
0
 62
     0
 10
17.891650555244041
 20
0.2069577519549739
 30
0.0
 11
15.526114306563381
 21
0.0000001470347115
 31
0.0
  0
LINE
  5
383
  8
0
 62
     0
 10
15.899967583738309
 20
6.8449160707413048
 30
0.0
 11
13.49996758373868
 21
6.8449160707399406
 31
0.0
  0
ARC
  5
384
  8
0
 62
     0
 10
17.865503832419328
 20
0.5058161613832226
 30
0.0
 40
0.3000000000007581
 50
275.0000000000656
 51
314.99999999981583
  0
ARC
  5
385
  8
0
 62
     0
 10
15.899967583736499
 20
7.1449160707423971
 30
0.0
 40
0.3000000000010914
 50
270.00000000034743
 51
359.99999999991309
  0
LINE
  5
386
  8
0
 62
     0
 10
18.423001696406342
 20
0.5961999566546865
 30
0.0
 11
18.07763586677515
 21
0.2936841270260402
 31
0.0
  0
LINE
  5
387
  8
0
 62
     0
 10
16.19996758373486
 20
15.220652002033029
 30
0.0
 11
16.199967583737589
 21
7.1449160707419423
 31
0.0
  0
ARC
  5
388
  8
0
 62
     0
 10
18.24622500111013
 20
0.7729766519522628
 30
0.0
 40
0.25
 50
314.99999999977888
 51
75.000000000220354
  0
ARC
  5
389
  8
0
 62
     0
 10
16.499967583735039
 20
15.22065200203258
 30
0.0
 40
0.3000000000001149
 50
134.9999999990174
 51
179.99999999991309
  0
LINE
  5
38A
  8
0
 62
     0
 10
18.18267150043334
 20
1.037343183341249
 30
0.0
 11
18.310929762384831
 21
1.014458108524763
 31
0.0
  0
LINE
  5
38B
  8
0
 62
     0
 10
16.699967583743039
 20
15.844916070740391
 30
0.0
 11
16.287835549382859
 21
15.432784036392031
 31
0.0
  0
ARC
  5
38C
  8
0
 62
     0
 10
18.234435309453829
 20
1.230528348597431
 30
0.0
 40
0.1999999999984189
 50
195.00000000011579
 51
254.99999999988421
  0
LINE
  5
38D
  8
0
 62
     0
 10
16.28783554936285
 20
16.257048105119001
 30
0.0
 11
16.699967583743039
 21
15.844916070740391
 31
0.0
  0
LINE
  5
38E
  8
0
 62
     0
 10
17.510189835853222
 20
3.1607085922081519
 30
0.0
 11
18.041250144197651
 21
1.178764539576945
 31
0.0
  0
ARC
  5
38F
  8
0
 62
     0
 10
16.499967583718671
 20
16.469180139475501
 30
0.0
 40
0.3000000000001819
 50
179.99999999991309
 51
225.00000000009209
  0
ARC
  5
390
  8
0
 62
     0
 10
17.79996758372522
 20
3.2383543057457009
 30
0.0
 40
0.2999999999879037
 50
180.00000000191071
 51
195.00000000198111
  0
LINE
  5
391
  8
0
 62
     0
 10
16.199967583738498
 20
24.544916070738399
 30
0.0
 11
16.19996758371758
 21
16.469180139475949
 31
0.0
  0
LINE
  5
392
  8
0
 62
     0
 10
17.499967583735948
 20
3.3988585564628688
 30
0.0
 11
17.499967583736861
 21
3.2383543057356969
 31
0.0
  0
ARC
  5
393
  8
0
 62
     0
 10
15.899967583738309
 20
24.544916070740669
 30
0.0
 40
0.2999999999999545
 50
359.99999999956577
 51
90.000000000347399
  0
ARC
  5
394
  8
0
 62
     0
 10
17.799967583737949
 20
3.3988585564610498
 30
0.0
 40
0.300000000001615
 50
41.810314896615218
 51
179.9999999996526
  0
LINE
  5
395
  8
0
 62
     0
 10
13.499967583740499
 20
24.844916070739941
 30
0.0
 11
15.899967583736499
 21
24.8449160707404
 31
0.0
  0
ARC
  5
396
  8
0
 62
     0
 10
18.24718117924181
 20
3.798858556467962
 30
0.0
 40
0.3000000000060936
 50
221.81031489542991
 51
269.99999999930509
  0
ARC
  5
397
  8
0
 62
     0
 10
13.49996758373868
 20
24.544916070740669
 30
0.0
 40
0.2999999999992724
 50
89.999999999652587
 51
180.0000000004342
  0
LINE
  5
398
  8
0
 62
     0
 10
22.299967583737949
 20
3.4988585564627779
 30
0.0
 11
18.247181179238169
 21
3.4988585564618679
 31
0.0
  0
LINE
  5
399
  8
0
 62
     0
 10
13.199967583745771
 20
23.144916070741491
 30
0.0
 11
13.19996758373941
 21
24.544916070738399
 31
0.0
  0
ARC
  5
39A
  8
0
 62
     0
 10
22.299967583739772
 20
3.1988585564648702
 30
0.0
 40
0.2999999999979081
 50
359.99999999965257
 51
90.000000000347399
  0
ARC
  5
39B
  8
0
 62
     0
 10
12.89996758374741
 20
23.144916070742401
 30
0.0
 40
0.299999999998215
 50
259.83575137813102
 51
359.99999999982629
  0
LINE
  5
39C
  8
0
 62
     0
 10
22.599967583738142
 20
2.9779327384202361
 30
0.0
 11
22.599967583737229
 21
3.1988585564630512
 31
0.0
  0
ARC
  5
39D
  8
0
 62
     0
 10
12.93105155784337
 20
24.579003801840258
 30
0.0
 40
1.731419561752136
 50
181.1280970610571
 51
267.21836444493368
  0
ARC
  5
39E
  8
0
 62
     0
 10
22.299967583737949
 20
2.9779327384202361
 30
0.0
 40
0.3000000000002835
 50
328.60448902750818
 51
0.0
  0
LINE
  5
39F
  8
0
 62
     0
 10
11.19996758373486
 20
26.044916070741131
 30
0.0
 11
11.199967583737591
 21
24.544916070732938
 31
0.0
  0
LINE
  5
3A0
  8
0
 62
     0
 10
21.632810454193301
 20
1.3790942454573949
 30
0.0
 11
22.556045068202138
 21
2.8216499116264231
 31
0.0
  0
ARC
  5
3A1
  8
0
 62
     0
 10
11.499967583735041
 20
26.044916070740669
 30
0.0
 40
0.3000000000001819
 50
89.999999999652587
 51
179.99999999991309
  0
ARC
  5
3A2
  8
0
 62
     0
 10
21.846208357914058
 20
1.2488585564632331
 30
0.0
 40
0.25
 50
148.60448902771401
 51
270.0
  0
LINE
  5
3A3
  8
0
 62
     0
 10
16.199967583739411
 20
26.344916070735849
 30
0.0
 11
11.49996758373686
 21
26.344916070740851
 31
0.0
  0
LINE
  5
3A4
  8
0
 62
     0
 10
23.213082270028959
 20
0.9988585564627783
 30
0.0
 11
21.846208357914058
 21
0.998858556463233
 31
0.0
  0
LINE
  5
3A5
  8
0
 62
     0
 10
16.199967583739411
 20
33.246002457972168
 30
0.0
 11
16.199967583739411
 21
26.344916070735849
 31
0.0
  0
ARC
  5
3A6
  8
0
 62
     0
 10
23.213082270028959
 20
1.9988585564627781
 30
0.0
 40
1.0
 50
270.0
 51
327.3963097606017
  0
LINE
  5
3A7
  8
0
 62
     0
 10
10.40000051994843
 20
33.246002457976942
 30
0.0
 11
16.199967583739411
 21
33.246002457972168
 31
0.0
  0
LINE
  5
3A8
  8
0
 62
     0
 10
24.055499964771801
 20
1.4600335128869799
 30
0.0
 11
25.080582896673828
 21
3.0626835951496778
 31
0.0
  0
ARC
  5
3A9
  8
0
 62
     0
 10
10.40000051994298
 20
32.946002457976988
 30
0.0
 40
0.3
 50
89.99999999895779
 51
180.0
  0
ARC
  5
3AA
  8
0
 62
     0
 10
25.923000591415761
 20
2.523858551572971
 30
0.0
 40
1.0
 50
90.0
 51
147.3963097605297
  0
LINE
  5
3AB
  8
0
 62
     0
 10
10.10000051994097
 20
30.746002457979898
 30
0.0
 11
10.100000519942791
 21
32.946002457976988
 31
0.0
  0
LINE
  5
3AC
  8
0
 62
     0
 10
25.923000591415761
 20
3.523858551572971
 30
0.0
 11
32.489167144598241
 21
3.523858551572971
 31
0.0
  0
ARC
  5
3AD
  8
0
 62
     0
 10
9.8000005199407951
 20
30.746002457979898
 30
0.0
 40
0.3
 50
270.00000000034743
 51
0.0
  0
ARC
  5
3AE
  8
0
 62
     0
 10
32.489167144598241
 20
2.523858551572971
 30
0.0
 40
1.0
 50
32.60369024324315
 51
90.0
  0
LINE
  5
3AF
  8
0
 62
     0
 10
8.0000005200015494
 20
30.446002457971311
 30
0.0
 11
9.8000005199426141
 21
30.44600245797972
 31
0.0
  0
LINE
  5
3B0
  8
0
 62
     0
 10
33.331584839304703
 20
3.062683595205157
 30
0.0
 11
34.356667771445927
 21
1.46003351280467
 31
0.0
  0
ARC
  5
3B1
  8
0
 62
     0
 10
8.0000005199979114
 20
31.146002458015008
 30
0.0
 40
0.7000000000437013
 50
180.00000000208439
 51
270.00000000029769
  0
ARC
  5
3B2
  8
0
 62
     0
 10
35.199085466152383
 20
1.998858556437312
 30
0.0
 40
1.0
 50
212.60369024326511
 51
270.0
  0
LINE
  5
3B3
  8
0
 62
     0
 10
7.3000005199526177
 20
31.196002457960621
 30
0.0
 11
7.3000005199544367
 21
31.146002457989539
 31
0.0
  0
LINE
  5
3B4
  8
0
 62
     0
 10
35.199085466152383
 20
0.9988585564373124
 30
0.0
 11
36.558626809588311
 21
0.9988585564373124
 31
0.0
  0
ARC
  5
3B5
  8
0
 62
     0
 10
7.5500005199526177
 20
31.196002457970849
 30
0.0
 40
0.25
 50
90.0
 51
180.00000000234499
  0
ARC
  5
3B6
  8
0
 62
     0
 10
36.558626809588311
 20
1.248858556437312
 30
0.0
 40
0.25
 50
270.0
 51
31.395510972438998
  0
LINE
  5
3B7
  8
0
 62
     0
 10
8.4000005199520729
 20
31.446002457971531
 30
0.0
 11
7.5500005199526177
 21
31.446002457970849
 31
0.0
  0
LINE
  5
3B8
  8
0
 62
     0
 10
36.772024713308163
 20
1.379094245431701
 30
0.0
 11
35.848790099298412
 21
2.821649911600502
 31
0.0
  0
ARC
  5
3B9
  8
0
 62
     0
 10
8.4000005199520729
 20
31.946002457971531
 30
0.0
 40
0.5
 50
270.0
 51
0.0000000008337331
  0
ARC
  5
3BA
  8
0
 62
     0
 10
36.104867583762598
 20
2.977932738394315
 30
0.0
 40
0.3000000000002835
 50
180.0
 51
211.39551097249179
  0
LINE
  5
3BB
  8
0
 62
     0
 10
8.9000005199447951
 20
32.746002457970803
 30
0.0
 11
8.9000005199520729
 21
31.94600245797881
 31
0.0
  0
LINE
  5
3BC
  8
0
 62
     0
 10
35.804867583762423
 20
2.977932738394315
 30
0.0
 11
35.804867583763333
 21
3.1988585564371301
 31
0.0
  0
ARC
  5
3BD
  8
0
 62
     0
 10
8.4000005199447951
 20
32.746002457970803
 30
0.0
 40
0.4999999999998864
 50
0.0
 51
90.0
  0
ARC
  5
3BE
  8
0
 62
     0
 10
36.104867583760779
 20
3.1988585564389491
 30
0.0
 40
0.2999999999979081
 50
89.999999999652587
 51
180.0000000003474
  0
LINE
  5
3BF
  8
0
 62
     0
 10
1.700000519925879
 20
33.24600245797081
 30
0.0
 11
8.4000005199447951
 21
33.246002457970349
 31
0.0
  0
LINE
  5
3C0
  8
0
 62
     0
 10
36.104867583762598
 20
3.4988585564368568
 30
0.0
 11
40.157653988262382
 21
3.4988585564359478
 31
0.0
  0
ARC
  5
3C1
  8
0
 62
     0
 10
1.700000519918603
 20
32.746002457992631
 30
0.0
 40
0.4999999999781723
 50
89.999999999166235
 51
180.00000000083369
  0
ARC
  5
3C2
  8
0
 62
     0
 10
40.157653988258737
 20
3.798858556442041
 30
0.0
 40
0.3000000000060936
 50
270.0000000006948
 51
318.18968510506062
  0
LINE
  5
3C3
  8
0
 62
     0
 10
1.2000005199477071
 20
31.946002457954251
 30
0.0
 11
1.2000005199404311
 21
32.746002457985362
 31
0.0
  0
ARC
  5
3C4
  8
0
 62
     0
 10
40.604867583762591
 20
3.3988585564351288
 30
0.0
 40
0.300000000001615
 50
0.0000000003474014
 51
138.1896851028942
  0
ARC
  5
3C5
  8
0
 62
     0
 10
1.7000005199313359
 20
31.946002457954251
 30
0.0
 40
0.4999999999836434
 50
180.0
 51
270.00000000041689
  0
LINE
  5
3C6
  8
0
 62
     0
 10
40.904867583764592
 20
3.3988585564369478
 30
0.0
 11
40.904867583763689
 21
3.2383543057097759
 31
0.0
  0
LINE
  5
3C7
  8
0
 62
     0
 10
2.5500005199498901
 20
31.446002457976761
 30
0.0
 11
1.7000005199349739
 21
31.446002457970621
 31
0.0
  0
ARC
  5
3C8
  8
0
 62
     0
 10
40.604867583775331
 20
3.2383543057197808
 30
0.0
 40
0.2999999999879037
 50
344.9999999981477
 51
359.99999999808932
  0
ARC
  5
3C9
  8
0
 62
     0
 10
2.5500005199517091
 20
31.196002457976761
 30
0.0
 40
0.25
 50
0.0000000020844083
 51
90.000000000416875
  0
LINE
  5
3CA
  8
0
 62
     0
 10
40.894645331648228
 20
3.1607085921826861
 30
0.0
 11
40.363585023303813
 21
1.1787645395510249
 31
0.0
  0
LINE
  5
3CB
  8
0
 62
     0
 10
2.8000005199535281
 20
31.146002457990448
 30
0.0
 11
2.8000005199517091
 21
31.196002457985859
 31
0.0
  0
ARC
  5
3CC
  8
0
 62
     0
 10
40.170399858046721
 20
1.2305283485715099
 30
0.0
 40
0.1999999999984189
 50
285.00000000011579
 51
344.99999999995163
  0
ARC
  5
3CD
  8
0
 62
     0
 10
2.1000005199346101
 20
31.146002457990448
 30
0.0
 40
0.7000000000190455
 50
270.0
 51
0.0
  0
LINE
  5
3CE
  8
0
 62
     0
 10
40.222163667067207
 20
1.037343183315329
 30
0.0
 11
40.093905405116622
 21
1.0144581084981601
 31
0.0
  0
LINE
  5
3CF
  8
0
 62
     0
 10
0.3000005199444331
 20
30.446002457970849
 30
0.0
 11
2.1000005199346101
 21
30.44600245797108
 31
0.0
  0
ARC
  5
3D0
  8
0
 62
     0
 10
40.158610166392229
 20
0.7729766519263422
 30
0.0
 40
0.25
 50
105.0000000000214
 51
225.00000000014739
  0
ARC
  5
3D1
  8
0
 62
     0
 10
0.3000005199444331
 20
30.74600245797081
 30
0.0
 40
0.3
 50
180.0
 51
270.0
  0
LINE
  5
3D2
  8
0
 62
     0
 10
39.981833471096017
 20
0.5961999566292207
 30
0.0
 11
40.327199300725397
 21
0.2936841270001196
 31
0.0
  0
LINE
  5
3D3
  8
0
 62
     0
 10
0.0000005199442512
 20
34.446002457969712
 30
0.0
 11
0.0000005199442512
 21
30.74600245797081
 31
0.0
  0
ARC
  5
3D4
  8
0
 62
     0
 10
40.539331335081208
 20
0.505816161357302
 30
0.0
 40
0.3000000000007581
 50
225.0000000001842
 51
264.9999999999344
  0
ARC
  5
3D5
  8
0
 62
     0
 10
0.3000005199444331
 20
34.446002457969712
 30
0.0
 40
0.3
 50
90.0
 51
180.0
  0
LINE
  5
3D6
  8
0
 62
     0
 10
40.513184612256502
 20
0.2069577519290533
 30
0.0
 11
42.878720860937158
 21
0.0000001470087909
 31
0.0
  0
LINE
  5
3D7
  8
0
 62
     0
 10
42.204867583792058
 20
34.746002457964209
 30
0.0
 11
0.3000005199444331
 21
34.746002457969439
 31
0.0
  0
ARC
  5
3D8
  8
0
 62
     0
 10
42.904867583765508
 20
0.2988585564465893
 30
0.0
 40
0.3000000000106279
 50
264.99999999940121
 51
19.999999998210001
  0
ARC
  5
3D9
  8
0
 62
     0
 10
42.204867583792058
 20
34.446002457964262
 30
0.0
 40
0.3
 50
0.0
 51
90.0
  0
LINE
  5
3DA
  8
0
 62
     0
 10
43.186775370014168
 20
0.4014645994390094
 30
0.0
 11
42.673274059381349
 21
1.8122978552177069
 31
0.0
  0
LINE
  5
3DB
  8
0
 62
     0
 10
42.50486758379224
 20
34.446002457964262
 30
0.0
 11
42.504867583793157
 21
30.741595994367461
 31
0.0
  0
ARC
  5
3DC
  8
0
 62
     0
 10
42.391366273140882
 20
1.709691812217329
 30
0.0
 40
0.3000000000054181
 50
20.00000000017296
 51
79.095716722884347
  0
LINE
  5
3DD
  8
0
 62
     0
 10
47.0048675837877
 20
30.741595994367682
 30
0.0
 11
42.504867583793157
 21
30.741595994367461
 31
0.0
  0
ARC
  5
3DE
  8
0
 62
     0
 10
42.504867583762227
 20
2.2988585564356749
 30
0.0
 40
0.2999999999997453
 50
179.99999999982629
 51
259.0957167226544
  0
ARC
  5
3DF
  8
0
 62
     0
 10
47.0048675837877
 20
30.441595994367731
 30
0.0
 40
0.3
 50
0.0
 51
90.0
  0
LINE
  5
3E0
  8
0
 62
     0
 10
42.204867583762052
 20
2.298858556436584
 30
0.0
 11
42.204867583764781
 21
3.2885130550315571
 31
0.0
  0
LINE
  5
3E1
  8
0
 62
     0
 10
47.304867583787882
 20
29.441595994367731
 30
0.0
 11
47.304867583787882
 21
30.441595994367731
 31
0.0
  0
ARC
  5
3E2
  8
0
 62
     0
 10
42.504867583764053
 20
3.2885130550315571
 30
0.0
 40
0.3
 50
120.00000002800169
 51
180.0
  0
ARC
  5
3E3
  8
0
 62
     0
 10
47.0048675837877
 20
29.441595994367731
 30
0.0
 40
0.3
 50
270.0
 51
0.0
  0
ARC
  5
3E4
  8
0
 62
     0
 10
42.204867583759317
 20
3.8081282967258399
 30
0.0
 40
0.3
 50
300.00000002782087
 51
0.0000000000868905
  0
LINE
  5
3E5
  8
0
 62
     0
 10
47.0048675837877
 20
29.141595994367549
 30
0.0
 11
41.399967583738317
 21
29.141595994367549
 31
0.0
  0
LINE
  5
3E6
  8
0
 62
     0
 10
42.504867583759498
 20
3.808128296726295
 30
0.0
 11
42.504867583758589
 21
5.2238585515723344
 31
0.0
  0
LINE
  5
3E7
  8
0
 62
     0
 10
41.399967583738317
 20
29.141595994367549
 30
0.0
 11
41.399967583739219
 21
5.5238585515720606
 31
0.0
  0
ARC
  5
3E8
  8
0
 62
     0
 10
42.204867583758407
 20
5.2238585515723344
 30
0.0
 40
0.3
 50
0.0
 51
90.0
  0
LINE
  5
3E9
  8
0
 62
     0
 10
41.399967583739219
 20
5.5238585515720606
 30
0.0
 11
42.204867583758407
 21
5.523858551572288
 31
0.0
  0
ARC
  5
3EA
  8
0
 62
     0
 10
40.099967583739037
 20
30.441595994367731
 30
0.0
 40
0.3
 50
90.0
 51
180.0
  0
LINE
  5
3EB
  8
0
 62
     0
 10
39.799967583738862
 20
30.441595994367731
 30
0.0
 11
39.799967583738862
 21
5.5238585515720606
 31
0.0
  0
LINE
  5
3EC
  8
0
 62
     0
 10
40.90486758359998
 20
30.741595994367461
 30
0.0
 11
40.099967583739037
 21
30.741595994367682
 31
0.0
  0
LINE
  5
3ED
  8
0
 62
     0
 10
39.799967583738862
 20
5.5238585515720606
 30
0.0
 11
17.799967583738859
 21
5.5238585515743353
 31
0.0
  0
LINE
  5
3EE
  8
0
 62
     0
 10
40.904867583584512
 20
32.846002457914778
 30
0.0
 11
40.90486758359998
 21
30.741595994367461
 31
0.0
  0
LINE
  5
3EF
  8
0
 62
     0
 10
17.799967583738859
 20
5.5238585515743353
 30
0.0
 11
17.799967583738859
 21
33.146002458040932
 31
0.0
  0
ARC
  5
3F0
  8
0
 62
     0
 10
40.60486758358433
 20
32.84600245791114
 30
0.0
 40
0.3
 50
0.0000000006947858
 51
89.999999999652587
  0
LINE
  5
3F1
  8
0
 62
     0
 10
17.799967583738859
 20
33.146002458040932
 30
0.0
 11
40.604867583586149
 21
33.146002457910868
 31
0.0
  0
ENDBLK
  5
3F3
  8
0
  0
ENDSEC
  0
SECTION
  2
ENTITIES
  0
ARC
  5
257
  8
0
 62
     0
 10
2900.5510164164648
 20
1696.475670323731
 30
0.0
 40
0.3
 50
180.0
 51
270.0
  0
LINE
  5
258
  8
0
 62
     0
 10
2900.5510164164648
 20
1696.1756703237311
 30
0.0
 11
2905.2510164164692
 21
1696.175670323732
 31
0.0
  0
LINE
  5
259
  8
0
 62
     0
 10
2900.2510164164619
 20
1698.2511102523131
 30
0.0
 11
2900.2510164164651
 21
1696.475670323731
 31
0.0
  0
LINE
  5
25A
  8
0
 62
     0
 10
2905.2510164164642
 20
1693.129612809453
 30
0.0
 11
2905.2510164164692
 21
1696.175670323732
 31
0.0
  0
ARC
  5
25B
  8
0
 62
     0
 10
2900.5510164164771
 20
1698.2511102523749
 30
0.0
 40
0.3000000000156173
 50
152.3516349181281
 51
180.00000001198529
  0
ARC
  5
25C
  8
0
 62
     0
 10
2904.951016416464
 20
1693.129612809453
 30
0.0
 40
0.2999999999997453
 50
280.90428327732923
 51
0.0000000001737011
  0
ARC
  5
25D
  8
0
 62
     0
 10
2902.5356358942481
 20
1697.211442178854
 30
0.0
 40
2.5404517791540151
 50
104.5345340977493
 51
152.35163490610049
  0
ARC
  5
25E
  8
0
 62
     0
 10
2905.0645177270849
 20
1692.540446065233
 30
0.0
 40
0.3000000000054181
 50
100.9042832771156
 51
159.9999999997454
  0
ARC
  5
25F
  8
0
 62
     0
 10
2901.9528761344791
 20
1699.377521755853
 30
0.0
 40
0.2981485678786541
 50
359.57283862894502
 51
100.5914100199337
  0
LINE
  5
260
  8
0
 62
     0
 10
2904.269108630212
 20
1691.2322188524561
 30
0.0
 11
2904.7826099408448
 21
1692.643052108235
 31
0.0
  0
LINE
  5
261
  8
0
 62
     0
 10
2902.2510164164642
 20
1697.975670323731
 30
0.0
 11
2902.2510164164628
 21
1699.3752989678519
 31
0.0
  0
ARC
  5
262
  8
0
 62
     0
 10
2904.5510164164612
 20
1691.129612809463
 30
0.0
 40
0.3000000000106279
 50
160.0000000016675
 51
275.00000000059879
  0
ARC
  5
263
  8
0
 62
     0
 10
2902.5510164164648
 20
1697.9756703237319
 30
0.0
 40
0.3000000000004093
 50
180.00000000017371
 51
270.0
  0
LINE
  5
264
  8
0
 62
     0
 10
2906.9426993879702
 20
1691.0377120049459
 30
0.0
 11
2904.577163139289
 21
1690.8307544000261
 31
0.0
  0
LINE
  5
265
  8
0
 62
     0
 10
2904.951016416464
 20
1697.675670323732
 30
0.0
 11
2902.5510164164648
 21
1697.6756703237311
 31
0.0
  0
ARC
  5
266
  8
0
 62
     0
 10
2906.916552665145
 20
1691.3365704143739
 30
0.0
 40
0.3000000000007581
 50
275.0000000000656
 51
314.99999999981583
  0
ARC
  5
267
  8
0
 62
     0
 10
2904.9510164164631
 20
1697.9756703237331
 30
0.0
 40
0.3000000000010914
 50
270.00000000034743
 51
359.99999999991309
  0
LINE
  5
268
  8
0
 62
     0
 10
2907.474050529132
 20
1691.4269542096461
 30
0.0
 11
2907.1286846995008
 21
1691.124438380017
 31
0.0
  0
LINE
  5
269
  8
0
 62
     0
 10
2905.251016416461
 20
1706.0514062550239
 30
0.0
 11
2905.2510164164642
 21
1697.9756703237331
 31
0.0
  0
ARC
  5
26A
  8
0
 62
     0
 10
2907.2972738338358
 20
1691.6037309049429
 30
0.0
 40
0.25
 50
314.99999999977888
 51
75.000000000206825
  0
ARC
  5
26B
  8
0
 62
     0
 10
2905.5510164164612
 20
1706.0514062550239
 30
0.0
 40
0.3000000000001149
 50
134.9999999990174
 51
179.99999999991309
  0
LINE
  5
26C
  8
0
 62
     0
 10
2907.233720333159
 20
1691.8680974363319
 30
0.0
 11
2907.36197859511
 21
1691.845212361515
 31
0.0
  0
LINE
  5
26D
  8
0
 62
     0
 10
2905.7510164164678
 20
1706.675670323732
 30
0.0
 11
2905.338884382109
 21
1706.263538289383
 31
0.0
  0
ARC
  5
26E
  8
0
 62
     0
 10
2907.2854841421799
 20
1692.061282601589
 30
0.0
 40
0.1999999999984189
 50
195.00000000011579
 51
254.99999999988421
  0
LINE
  5
26F
  8
0
 62
     0
 10
2905.338884382089
 20
1707.0878023581099
 30
0.0
 11
2905.7510164164678
 21
1706.675670323732
 31
0.0
  0
LINE
  5
270
  8
0
 62
     0
 10
2906.5612386685789
 20
1693.9914628451991
 30
0.0
 11
2907.0922989769242
 21
1692.0095187925681
 31
0.0
  0
ARC
  5
271
  8
0
 62
     0
 10
2905.5510164164448
 20
1707.2999343924671
 30
0.0
 40
0.3000000000001819
 50
179.99999999991309
 51
225.00000000012281
  0
ARC
  5
272
  8
0
 62
     0
 10
2906.8510164164509
 20
1694.0691085587371
 30
0.0
 40
0.2999999999879037
 50
180.00000000191071
 51
195.00000000198111
  0
LINE
  5
273
  8
0
 62
     0
 10
2905.2510164164642
 20
1715.3756703237291
 30
0.0
 11
2905.2510164164428
 21
1707.2999343924671
 31
0.0
  0
LINE
  5
274
  8
0
 62
     0
 10
2906.5510164164621
 20
1694.229612809454
 30
0.0
 11
2906.551016416463
 21
1694.0691085587271
 31
0.0
  0
ARC
  5
275
  8
0
 62
     0
 10
2904.951016416464
 20
1715.3756703237309
 30
0.0
 40
0.2999999999999545
 50
359.99999999956577
 51
90.000000000347399
  0
ARC
  5
276
  8
0
 62
     0
 10
2906.8510164164641
 20
1694.229612809452
 30
0.0
 40
0.300000000001615
 50
41.810314896615218
 51
179.9999999996526
  0
LINE
  5
277
  8
0
 62
     0
 10
2902.5510164164662
 20
1715.6756703237311
 30
0.0
 11
2904.9510164164631
 21
1715.6756703237311
 31
0.0
  0
ARC
  5
278
  8
0
 62
     0
 10
2907.298230011967
 20
1694.6296128094591
 30
0.0
 40
0.3000000000060936
 50
221.81031489542991
 51
269.99999999930509
  0
ARC
  5
279
  8
0
 62
     0
 10
2902.5510164164648
 20
1715.3756703237309
 30
0.0
 40
0.2999999999992724
 50
89.999999999652587
 51
180.0000000004342
  0
LINE
  5
27A
  8
0
 62
     0
 10
2911.3510164164641
 20
1694.3296128094539
 30
0.0
 11
2907.2982300119638
 21
1694.329612809453
 31
0.0
  0
LINE
  5
27B
  8
0
 62
     0
 10
2902.251016416471
 20
1713.9756703237331
 30
0.0
 11
2902.2510164164651
 21
1715.3756703237291
 31
0.0
  0
ARC
  5
27C
  8
0
 62
     0
 10
2911.3510164164659
 20
1694.029612809456
 30
0.0
 40
0.2999999999979081
 50
359.99999999965257
 51
90.000000000347399
  0
ARC
  5
27D
  8
0
 62
     0
 10
2901.9510164164731
 20
1713.9756703237331
 30
0.0
 40
0.299999999998215
 50
259.8357513781387
 51
359.99999999982629
  0
LINE
  5
27E
  8
0
 62
     0
 10
2911.6510164164638
 20
1693.8086869914109
 30
0.0
 11
2911.6510164164629
 21
1694.029612809454
 31
0.0
  0
ARC
  5
27F
  8
0
 62
     0
 10
2901.982100390569
 20
1715.4097580548309
 30
0.0
 40
1.731419561752136
 50
181.1280970610571
 51
267.21836444493408
  0
ARC
  5
280
  8
0
 62
     0
 10
2911.3510164164641
 20
1693.8086869914109
 30
0.0
 40
0.3000000000002835
 50
328.60448902750818
 51
0.0
  0
LINE
  5
281
  8
0
 62
     0
 10
2900.2510164164601
 20
1716.875670323732
 30
0.0
 11
2900.2510164164642
 21
1715.3756703237241
 31
0.0
  0
LINE
  5
282
  8
0
 62
     0
 10
2910.683859286919
 20
1692.2098484984481
 30
0.0
 11
2911.6070939009278
 21
1693.6524041646171
 31
0.0
  0
ARC
  5
283
  8
0
 62
     0
 10
2900.5510164164612
 20
1716.875670323732
 30
0.0
 40
0.3000000000001819
 50
89.999999999652587
 51
179.99999999991309
  0
ARC
  5
284
  8
0
 62
     0
 10
2910.8972571906402
 20
1692.0796128094539
 30
0.0
 40
0.25
 50
148.60448902771401
 51
270.0
  0
LINE
  5
285
  8
0
 62
     0
 10
2905.2510164164651
 20
1717.175670323727
 30
0.0
 11
2900.551016416463
 21
1717.175670323732
 31
0.0
  0
LINE
  5
286
  8
0
 62
     0
 10
2912.2641311027551
 20
1691.8296128094539
 30
0.0
 11
2910.8972571906402
 21
1691.8296128094539
 31
0.0
  0
LINE
  5
287
  8
0
 62
     0
 10
2905.2510164164651
 20
1724.0767567109631
 30
0.0
 11
2905.2510164164651
 21
1717.175670323727
 31
0.0
  0
ARC
  5
288
  8
0
 62
     0
 10
2912.2641311027551
 20
1692.8296128094539
 30
0.0
 40
1.0
 50
270.0
 51
327.3963097606017
  0
LINE
  5
289
  8
0
 62
     0
 10
2899.4510493526741
 20
1724.0767567109681
 30
0.0
 11
2905.2510164164651
 21
1724.0767567109631
 31
0.0
  0
LINE
  5
28A
  8
0
 62
     0
 10
2913.1065487974979
 20
1692.2907877658779
 30
0.0
 11
2914.1316317293999
 21
1693.893437848141
 31
0.0
  0
ARC
  5
28B
  8
0
 62
     0
 10
2899.4510493526682
 20
1723.7767567109679
 30
0.0
 40
0.3
 50
89.99999999895779
 51
180.0
  0
ARC
  5
28C
  8
0
 62
     0
 10
2914.9740494241419
 20
1693.3546128045641
 30
0.0
 40
1.0
 50
90.0
 51
147.3963097605297
  0
LINE
  5
28D
  8
0
 62
     0
 10
2899.1510493526671
 20
1721.576756710971
 30
0.0
 11
2899.1510493526689
 21
1723.7767567109679
 31
0.0
  0
LINE
  5
28E
  8
0
 62
     0
 10
2914.9740494241419
 20
1694.3546128045641
 30
0.0
 11
2921.5402159773239
 21
1694.3546128045641
 31
0.0
  0
ARC
  5
28F
  8
0
 62
     0
 10
2898.851049352666
 20
1721.576756710971
 30
0.0
 40
0.3
 50
270.00000000034743
 51
0.0
  0
ARC
  5
290
  8
0
 62
     0
 10
2921.5402159773239
 20
1693.3546128045641
 30
0.0
 40
1.0
 50
32.60369024324315
 51
90.0
  0
LINE
  5
291
  8
0
 62
     0
 10
2897.0510493527272
 20
1721.276756710962
 30
0.0
 11
2898.8510493526678
 21
1721.2767567109699
 31
0.0
  0
LINE
  5
292
  8
0
 62
     0
 10
2922.3826336720308
 20
1693.8934378481961
 30
0.0
 11
2923.407716604172
 21
1692.290787765796
 31
0.0
  0
ARC
  5
293
  8
0
 62
     0
 10
2897.051049352724
 20
1721.9767567110059
 30
0.0
 40
0.7000000000437013
 50
180.00000000208439
 51
270.00000000029769
  0
ARC
  5
294
  8
0
 62
     0
 10
2924.250134298878
 20
1692.829612809428
 30
0.0
 40
1.0
 50
212.60369024326511
 51
270.0
  0
LINE
  5
295
  8
0
 62
     0
 10
2896.3510493526792
 20
1722.026756710952
 30
0.0
 11
2896.3510493526801
 21
1721.9767567109809
 31
0.0
  0
LINE
  5
296
  8
0
 62
     0
 10
2924.250134298878
 20
1691.829612809428
 30
0.0
 11
2925.609675642314
 21
1691.829612809428
 31
0.0
  0
ARC
  5
297
  8
0
 62
     0
 10
2896.6010493526792
 20
1722.026756710962
 30
0.0
 40
0.25
 50
90.0
 51
180.00000000229281
  0
ARC
  5
298
  8
0
 62
     0
 10
2925.609675642314
 20
1692.079612809428
 30
0.0
 40
0.25
 50
270.0
 51
31.395510972394561
  0
LINE
  5
299
  8
0
 62
     0
 10
2897.4510493526782
 20
1722.2767567109629
 30
0.0
 11
2896.6010493526792
 21
1722.276756710962
 31
0.0
  0
LINE
  5
29A
  8
0
 62
     0
 10
2925.8230735460338
 20
1692.2098484984219
 30
0.0
 11
2924.8998389320241
 21
1693.652404164591
 31
0.0
  0
ARC
  5
29B
  8
0
 62
     0
 10
2897.4510493526782
 20
1722.7767567109629
 30
0.0
 40
0.5
 50
270.0
 51
0.0000000008337331
  0
ARC
  5
29C
  8
0
 62
     0
 10
2925.1559164164892
 20
1693.808686991385
 30
0.0
 40
0.3000000000002835
 50
180.0
 51
211.39551097249179
  0
LINE
  5
29D
  8
0
 62
     0
 10
2897.95104935267
 20
1723.5767567109619
 30
0.0
 11
2897.9510493526782
 21
1722.7767567109699
 31
0.0
  0
LINE
  5
29E
  8
0
 62
     0
 10
2924.8559164164881
 20
1693.808686991385
 30
0.0
 11
2924.855916416489
 21
1694.029612809428
 31
0.0
  0
ARC
  5
29F
  8
0
 62
     0
 10
2897.4510493526709
 20
1723.5767567109619
 30
0.0
 40
0.4999999999998864
 50
0.0
 51
90.0
  0
ARC
  5
2A0
  8
0
 62
     0
 10
2925.155916416486
 20
1694.0296128094301
 30
0.0
 40
0.2999999999979081
 50
89.999999999652587
 51
180.0000000003474
  0
LINE
  5
2A1
  8
0
 62
     0
 10
2890.7510493526511
 20
1724.0767567109619
 30
0.0
 11
2897.4510493526709
 21
1724.076756710961
 31
0.0
  0
LINE
  5
2A2
  8
0
 62
     0
 10
2925.1559164164892
 20
1694.329612809428
 30
0.0
 11
2929.208702820988
 21
1694.3296128094271
 31
0.0
  0
ARC
  5
2A3
  8
0
 62
     0
 10
2890.7510493526438
 20
1723.576756710984
 30
0.0
 40
0.4999999999781723
 50
89.999999999166235
 51
180.00000000083369
  0
ARC
  5
2A4
  8
0
 62
     0
 10
2929.2087028209839
 20
1694.629612809433
 30
0.0
 40
0.3000000000060936
 50
270.0000000006948
 51
318.18968510506062
  0
LINE
  5
2A5
  8
0
 62
     0
 10
2890.2510493526738
 20
1722.7767567109449
 30
0.0
 11
2890.2510493526661
 21
1723.576756710976
 31
0.0
  0
ARC
  5
2A6
  8
0
 62
     0
 10
2929.6559164164878
 20
1694.229612809426
 30
0.0
 40
0.300000000001615
 50
0.0000000003474014
 51
138.1896851028942
  0
ARC
  5
2A7
  8
0
 62
     0
 10
2890.751049352657
 20
1722.7767567109449
 30
0.0
 40
0.4999999999836434
 50
180.0
 51
270.00000000041689
  0
LINE
  5
2A8
  8
0
 62
     0
 10
2929.9559164164912
 20
1694.2296128094281
 30
0.0
 11
2929.9559164164889
 21
1694.0691085587009
 31
0.0
  0
LINE
  5
2A9
  8
0
 62
     0
 10
2891.601049352676
 20
1722.2767567109679
 30
0.0
 11
2890.7510493526611
 21
1722.276756710962
 31
0.0
  0
ARC
  5
2AA
  8
0
 62
     0
 10
2929.655916416501
 20
1694.0691085587109
 30
0.0
 40
0.2999999999879037
 50
344.9999999981477
 51
359.99999999808932
  0
ARC
  5
2AB
  8
0
 62
     0
 10
2891.6010493526778
 20
1722.026756710967
 30
0.0
 40
0.25
 50
0.0000000020844083
 51
90.000000000416875
  0
LINE
  5
2AC
  8
0
 62
     0
 10
2929.9456941643739
 20
1693.9914628451741
 30
0.0
 11
2929.4146338560299
 21
1692.0095187925419
 31
0.0
  0
LINE
  5
2AD
  8
0
 62
     0
 10
2891.8510493526792
 20
1721.9767567109809
 30
0.0
 11
2891.8510493526769
 21
1722.026756710977
 31
0.0
  0
ARC
  5
2AE
  8
0
 62
     0
 10
2929.2214486907728
 20
1692.0612826015631
 30
0.0
 40
0.1999999999984189
 50
285.00000000011579
 51
344.99999999995163
  0
ARC
  5
2AF
  8
0
 62
     0
 10
2891.1510493526598
 20
1721.9767567109809
 30
0.0
 40
0.7000000000190455
 50
270.0
 51
0.0
  0
LINE
  5
2B0
  8
0
 62
     0
 10
2929.2732124997929
 20
1691.868097436306
 30
0.0
 11
2929.1449542378432
 21
1691.8452123614891
 31
0.0
  0
LINE
  5
2B1
  8
0
 62
     0
 10
2889.3510493526701
 20
1721.276756710962
 30
0.0
 11
2891.1510493526598
 21
1721.276756710962
 31
0.0
  0
ARC
  5
2B2
  8
0
 62
     0
 10
2929.2096589991179
 20
1691.603730904917
 30
0.0
 40
0.25
 50
105.0000000000214
 51
225.00000000014739
  0
ARC
  5
2B3
  8
0
 62
     0
 10
2889.3510493526701
 20
1721.5767567109619
 30
0.0
 40
0.3
 50
180.0
 51
270.0
  0
LINE
  5
2B4
  8
0
 62
     0
 10
2929.0328823038221
 20
1691.4269542096199
 30
0.0
 11
2929.3782481334511
 21
1691.124438379991
 31
0.0
  0
LINE
  5
2B5
  8
0
 62
     0
 10
2889.0510493526699
 20
1725.2767567109611
 30
0.0
 11
2889.0510493526699
 21
1721.5767567109619
 31
0.0
  0
ARC
  5
2B6
  8
0
 62
     0
 10
2929.5903801678069
 20
1691.336570414348
 30
0.0
 40
0.3000000000007581
 50
225.0000000001842
 51
264.9999999999344
  0
ARC
  5
2B7
  8
0
 62
     0
 10
2889.3510493526701
 20
1725.2767567109611
 30
0.0
 40
0.3
 50
90.0
 51
180.0
  0
LINE
  5
2B8
  8
0
 62
     0
 10
2929.5642334449831
 20
1691.03771200492
 30
0.0
 11
2931.9297696936628
 21
1690.8307543999999
 31
0.0
  0
LINE
  5
2B9
  8
0
 62
     0
 10
2931.2559164165182
 20
1725.5767567109549
 30
0.0
 11
2889.3510493526701
 21
1725.5767567109599
 31
0.0
  0
ARC
  5
2BA
  8
0
 62
     0
 10
2931.9559164164912
 20
1691.129612809438
 30
0.0
 40
0.3000000000106279
 50
264.99999999940121
 51
19.99999999816923
  0
ARC
  5
2BB
  8
0
 62
     0
 10
2931.2559164165182
 20
1725.2767567109549
 30
0.0
 40
0.3
 50
0.0
 51
90.0
  0
LINE
  5
2BC
  8
0
 62
     0
 10
2932.2378242027398
 20
1691.2322188524299
 30
0.0
 11
2931.724322892107
 21
1692.6430521082091
 31
0.0
  0
LINE
  5
2BD
  8
0
 62
     0
 10
2931.5559164165179
 20
1725.2767567109549
 30
0.0
 11
2931.5559164165188
 21
1721.5723502473579
 31
0.0
  0
ARC
  5
2BE
  8
0
 62
     0
 10
2931.442415105867
 20
1692.540446065208
 30
0.0
 40
0.3000000000054181
 50
20.00000000017296
 51
79.095716722884347
  0
LINE
  5
2BF
  8
0
 62
     0
 10
2936.0559164165138
 20
1721.5723502473591
 30
0.0
 11
2931.5559164165188
 21
1721.5723502473579
 31
0.0
  0
ARC
  5
2C0
  8
0
 62
     0
 10
2931.5559164164879
 20
1693.129612809427
 30
0.0
 40
0.2999999999997453
 50
179.99999999982629
 51
259.0957167226544
  0
ARC
  5
2C1
  8
0
 62
     0
 10
2936.0559164165138
 20
1721.2723502473591
 30
0.0
 40
0.3
 50
0.0
 51
90.0
  0
LINE
  5
2C2
  8
0
 62
     0
 10
2931.2559164164882
 20
1693.129612809428
 30
0.0
 11
2931.2559164164909
 21
1694.119267308022
 31
0.0
  0
LINE
  5
2C3
  8
0
 62
     0
 10
2936.355916416514
 20
1720.272350247358
 30
0.0
 11
2936.355916416514
 21
1721.2723502473591
 31
0.0
  0
ARC
  5
2C4
  8
0
 62
     0
 10
2931.5559164164902
 20
1694.119267308022
 30
0.0
 40
0.3
 50
120.00000002800169
 51
180.0
  0
ARC
  5
2C5
  8
0
 62
     0
 10
2936.0559164165138
 20
1720.272350247358
 30
0.0
 40
0.3
 50
270.0
 51
0.0
  0
ARC
  5
2C6
  8
0
 62
     0
 10
2931.255916416485
 20
1694.638882549717
 30
0.0
 40
0.3
 50
300.00000002782087
 51
0.0000000000868905
  0
LINE
  5
2C7
  8
0
 62
     0
 10
2936.0559164165138
 20
1719.972350247358
 30
0.0
 11
2930.451016416464
 21
1719.972350247358
 31
0.0
  0
LINE
  5
2C8
  8
0
 62
     0
 10
2931.5559164164852
 20
1694.638882549717
 30
0.0
 11
2931.5559164164838
 21
1696.054612804563
 31
0.0
  0
LINE
  5
2C9
  8
0
 62
     0
 10
2930.451016416464
 20
1719.972350247358
 30
0.0
 11
2930.4510164164649
 21
1696.354612804563
 31
0.0
  0
ARC
  5
2CA
  8
0
 62
     0
 10
2931.2559164164841
 20
1696.054612804563
 30
0.0
 40
0.3
 50
0.0
 51
90.0
  0
LINE
  5
2CB
  8
0
 62
     0
 10
2930.4510164164649
 20
1696.354612804563
 30
0.0
 11
2931.2559164164841
 21
1696.354612804563
 31
0.0
  0
ARC
  5
2CC
  8
0
 62
     0
 10
2929.1510164164652
 20
1721.2723502473591
 30
0.0
 40
0.3
 50
90.0
 51
180.0
  0
LINE
  5
2CD
  8
0
 62
     0
 10
2928.8510164164641
 20
1721.2723502473591
 30
0.0
 11
2928.8510164164641
 21
1696.354612804563
 31
0.0
  0
LINE
  5
2CE
  8
0
 62
     0
 10
2929.9559164163252
 20
1721.5723502473579
 30
0.0
 11
2929.1510164164652
 21
1721.5723502473591
 31
0.0
  0
LINE
  5
2CF
  8
0
 62
     0
 10
2928.8510164164641
 20
1696.354612804563
 30
0.0
 11
2906.851016416465
 21
1696.354612804565
 31
0.0
  0
LINE
  5
2D0
  8
0
 62
     0
 10
2929.9559164163111
 20
1723.6767567109059
 30
0.0
 11
2929.9559164163252
 21
1721.5723502473579
 31
0.0
  0
LINE
  5
2D1
  8
0
 62
     0
 10
2906.851016416465
 20
1696.354612804565
 30
0.0
 11
2906.851016416465
 21
1723.9767567110321
 31
0.0
  0
ARC
  5
2D2
  8
0
 62
     0
 10
2929.65591641631
 20
1723.6767567109021
 30
0.0
 40
0.3
 50
0.0000000006947858
 51
89.999999999652587
  0
LINE
  5
2D3
  8
0
 62
     0
 10
2906.851016416465
 20
1723.9767567110321
 30
0.0
 11
2929.6559164163118
 21
1723.976756710902
 31
0.0
  0
ENDSEC
  0
EOF
