  0
SECTION
  2
HEADER
  9
$ACADVER
  1
AC1009
  9
$INSBASE
 10
0.0
 20
0.0
 30
0.0
  9
$EXTMIN
 10
626.98150805544765
 20
585.80186599749368
 30
-0.0015258207003583
  9
$EXTMAX
 10
707.37854135150383
 20
609.14094648945729
 30
0.0000000349246037
  9
$LIMMIN
 10
0.0
 20
0.0
  9
$LIMMAX
 10
420.0
 20
297.0
  9
$ORTHOMODE
 70
     0
  9
$REGENMODE
 70
     1
  9
$FILLMODE
 70
     1
  9
$QTEXTMODE
 70
     0
  9
$MIRRTEXT
 70
     0
  9
$DRAGMODE
 70
     2
  9
$LTSCALE
 40
1.0
  9
$OSMODE
 70
  3071
  9
$ATTMODE
 70
     1
  9
$TEXTSIZE
 40
2.5
  9
$TRACEWID
 40
1.0
  9
$TEXTSTYLE
  7
STANDARD
  9
$CLAYER
  8
0
  9
$CELTYPE
  6
BYLAYER
  9
$CECOLOR
 62
   256
  9
$DIMSCALE
 40
1.0
  9
$DIMASZ
 40
2.5
  9
$DIMEXO
 40
0.625
  9
$DIMDLI
 40
3.75
  9
$DIMRND
 40
0.0
  9
$DIMDLE
 40
0.0
  9
$DIMEXE
 40
1.25
  9
$DIMTP
 40
0.0
  9
$DIMTM
 40
0.0
  9
$DIMTXT
 40
2.5
  9
$DIMCEN
 40
2.5
  9
$DIMTSZ
 40
0.0
  9
$DIMTOL
 70
     0
  9
$DIMLIM
 70
     0
  9
$DIMTIH
 70
     0
  9
$DIMTOH
 70
     0
  9
$DIMSE1
 70
     0
  9
$DIMSE2
 70
     0
  9
$DIMTAD
 70
     1
  9
$DIMZIN
 70
     8
  9
$DIMBLK
  1

  9
$DIMASO
 70
     1
  9
$DIMSHO
 70
     1
  9
$DIMPOST
  1

  9
$DIMAPOST
  1

  9
$DIMALT
 70
     0
  9
$DIMALTD
 70
     3
  9
$DIMALTF
 40
0.03937007874016
  9
$DIMLFAC
 40
1.0
  9
$DIMTOFL
 70
     1
  9
$DIMTVP
 40
0.0
  9
$DIMTIX
 70
     0
  9
$DIMSOXD
 70
     0
  9
$DIMSAH
 70
     0
  9
$DIMBLK1
  1

  9
$DIMBLK2
  1

  9
$DIMSTYLE
  2
ISO-25
  9
$DIMCLRD
 70
     0
  9
$DIMCLRE
 70
     0
  9
$DIMCLRT
 70
     0
  9
$DIMTFAC
 40
1.0
  9
$DIMGAP
 40
0.625
  9
$LUNITS
 70
     2
  9
$LUPREC
 70
     4
  9
$SKETCHINC
 40
1.0
  9
$FILLETRAD
 40
0.0
  9
$AUNITS
 70
     0
  9
$AUPREC
 70
     0
  9
$MENU
  1
.
  9
$ELEVATION
 40
0.0
  9
$PELEVATION
 40
0.0
  9
$THICKNESS
 40
0.0
  9
$LIMCHECK
 70
     0
  9
$BLIPMODE
 70
     0
  9
$CHAMFERA
 40
0.0
  9
$CHAMFERB
 40
0.0
  9
$SKPOLY
 70
     0
  9
$TDCREATE
 40
2455065.427649688
  9
$TDUPDATE
 40
2455065.4277898502
  9
$TDINDWG
 40
0.0001408912
  9
$TDUSRTIMER
 40
0.0001408912
  9
$USRTIMER
 70
     1
  9
$ANGBASE
 50
0.0
  9
$ANGDIR
 70
     0
  9
$PDMODE
 70
     0
  9
$PDSIZE
 40
0.0
  9
$PLINEWID
 40
0.0
  9
$COORDS
 70
     0
  9
$SPLFRAME
 70
     0
  9
$SPLINETYPE
 70
     6
  9
$SPLINESEGS
 70
     8
  9
$ATTDIA
 70
     0
  9
$ATTREQ
 70
     1
  9
$HANDLING
 70
     1
  9
$HANDSEED
  5
2C3
  9
$SURFTAB1
 70
     6
  9
$SURFTAB2
 70
     6
  9
$SURFTYPE
 70
     6
  9
$SURFU
 70
     6
  9
$SURFV
 70
     6
  9
$UCSNAME
  2

  9
$UCSORG
 10
0.0
 20
0.0
 30
0.0
  9
$UCSXDIR
 10
1.0
 20
0.0
 30
0.0
  9
$UCSYDIR
 10
0.0
 20
1.0
 30
0.0
  9
$PUCSNAME
  2

  9
$PUCSORG
 10
0.0
 20
0.0
 30
0.0
  9
$PUCSXDIR
 10
1.0
 20
0.0
 30
0.0
  9
$PUCSYDIR
 10
0.0
 20
1.0
 30
0.0
  9
$USERI1
 70
     0
  9
$USERI2
 70
     0
  9
$USERI3
 70
     0
  9
$USERI4
 70
     0
  9
$USERI5
 70
     0
  9
$USERR1
 40
0.0
  9
$USERR2
 40
0.0
  9
$USERR3
 40
0.0
  9
$USERR4
 40
0.0
  9
$USERR5
 40
0.0
  9
$WORLDVIEW
 70
     1
  9
$SHADEDGE
 70
     3
  9
$SHADEDIF
 70
    70
  9
$TILEMODE
 70
     1
  9
$MAXACTVP
 70
    64
  9
$PLIMCHECK
 70
     0
  9
$PEXTMIN
 10
0.0
 20
0.0
 30
0.0
  9
$PEXTMAX
 10
0.0
 20
0.0
 30
0.0
  9
$PLIMMIN
 10
0.0
 20
0.0
  9
$PLIMMAX
 10
12.0
 20
9.0
  9
$UNITMODE
 70
     0
  9
$VISRETAIN
 70
     1
  9
$PLINEGEN
 70
     0
  9
$PSLTSCALE
 70
     1
  0
ENDSEC
  0
SECTION
  2
TABLES
  0
TABLE
  2
VPORT
 70
     2
  0
VPORT
  2
*ACTIVE
 70
     0
 10
0.0
 20
0.0
 11
1.0
 21
1.0
 12
667.18002470347574
 22
597.47140624347537
 13
0.0
 23
0.0
 14
10.0
 24
10.0
 15
10.0
 25
10.0
 16
0.0
 26
0.0
 36
1.0
 17
0.0
 27
0.0
 37
0.0
 40
41.012594821714828
 41
1.9694189602446479
 42
50.0
 43
0.0
 44
0.0
 50
0.0
 51
0.0
 71
     0
 72
  1000
 73
     1
 74
     3
 75
     0
 76
     0
 77
     0
 78
     0
  0
ENDTAB
  0
TABLE
  2
LTYPE
 70
     1
  0
LTYPE
  2
CONTINUOUS
 70
     0
  3
Solid line
 72
    65
 73
     0
 40
0.0
  0
ENDTAB
  0
TABLE
  2
LAYER
 70
     1
  0
LAYER
  2
0
 70
     0
 62
     7
  6
CONTINUOUS
  0
ENDTAB
  0
TABLE
  2
STYLE
 70
     4
  0
STYLE
  2
STANDARD
 70
     0
 40
0.0
 41
1.0
 50
0.0
 71
     0
 42
2.5
  3
txt
  4

  0
STYLE
  2
ROMANT
 70
     0
 40
3.0
 41
1.0
 50
0.0
 71
     0
 42
2.5
  3
romant.shx
  4

  0
STYLE
  2
LEADER
 70
     0
 40
0.0
 41
1.05
 50
0.0
 71
     0
 42
3.4267938661068911
  3
txt
  4

  0
STYLE
  2
BILGIN
 70
     0
 40
0.0
 41
1.0
 50
0.0
 71
     0
 42
3.9107383764021488
  3
txt
  4

  0
ENDTAB
  0
TABLE
  2
VIEW
 70
     0
  0
ENDTAB
  0
TABLE
  2
UCS
 70
     0
  0
ENDTAB
  0
TABLE
  2
APPID
 70
     5
  0
APPID
  2
ACAD
 70
     0
  0
APPID
  2
ACAD_PSEXT
 70
     0
  0
APPID
  2
ACAD_DSTYLE_DIMJAG
 70
     0
  0
APPID
  2
ACAD_DSTYLE_DIMTALN
 70
     0
  0
APPID
  2
ACAD_DSTYLE_DIMARC_LENGTH_
 70
     0
  0
ENDTAB
  0
TABLE
  2
DIMSTYLE
 70
     6
  0
DIMSTYLE
  2
ISO-25
 70
     0
  3

  4

  5

  6

  7

 40
1.0
 41
2.5
 42
0.625
 43
3.75
 44
1.25
 45
0.0
 46
0.0
 47
0.0
 48
0.0
140
2.5
141
2.5
142
0.0
143
0.03937007874016
144
1.0
145
0.0
146
1.0
147
0.625
 71
     0
 72
     0
 73
     0
 74
     0
 75
     0
 76
     0
 77
     1
 78
     8
170
     0
171
     3
172
     1
173
     0
174
     0
175
     0
176
     0
177
     0
178
     0
  0
DIMSTYLE
  2
ISO-25_1_E_4
 70
     0
  3

  4

  5

  6

  7

 40
1.0
 41
2.5
 42
0.0
 43
3.75
 44
0.3
 45
0.0
 46
0.0
 47
0.0
 48
0.0
140
3.0
141
0.2
142
0.0
143
0.03937007874016
144
0.25
145
0.0
146
1.0
147
0.5
 71
     0
 72
     0
 73
     0
 74
     0
 75
     0
 76
     0
 77
     1
 78
     8
170
     0
171
     3
172
     0
173
     0
174
     0
175
     0
176
   242
177
   242
178
     1
  0
DIMSTYLE
  2
ISO-25_1_E_3
 70
     0
  3

  4

  5

  6

  7

 40
1.0
 41
2.5
 42
0.0
 43
3.75
 44
0.3
 45
0.0
 46
0.0
 47
0.0
 48
0.0
140
3.0
141
0.2
142
0.0
143
0.03937007874016
144
0.333333333333333
145
0.0
146
1.0
147
0.5
 71
     0
 72
     0
 73
     0
 74
     0
 75
     0
 76
     0
 77
     1
 78
     8
170
     0
171
     3
172
     0
173
     0
174
     0
175
     0
176
   242
177
   242
178
     1
  0
DIMSTYLE
  2
AM_ISO
 70
     0
  3

  4
"
  5

  6

  7

 40
1.0
 41
2.5
 42
1.0
 43
10.0
 44
1.0
 45
0.0
 46
0.0
 47
0.1
 48
0.1
140
3.5
141
0.0
142
0.0
143
0.0393701
144
1.0
145
0.0
146
0.71
147
1.5
 71
     0
 72
     0
 73
     0
 74
     0
 75
     0
 76
     0
 77
     1
 78
     8
170
     0
171
     2
172
     1
173
     0
174
     0
175
     0
176
   256
177
   256
178
     2
  0
DIMSTYLE
  2
DETAY-1
 70
     0
  3

  4

  5

  6

  7

 40
1.0
 41
2.5
 42
0.625
 43
3.75
 44
1.25
 45
0.0
 46
0.0
 47
0.0
 48
0.0
140
2.5
141
2.5
142
0.0
143
0.03937007874016
144
1.0
145
0.0
146
1.0
147
0.5
 71
     0
 72
     0
 73
     0
 74
     0
 75
     0
 76
     0
 77
     1
 78
     8
170
     0
171
     3
172
     1
173
     0
174
     0
175
     0
176
     0
177
     0
178
     0
  0
DIMSTYLE
  2
BILGIN
 70
     0
  3

  4

  5

  6

  7

 40
1.0
 41
2.5
 42
2.0
 43
3.75
 44
1.25
 45
0.0
 46
0.0
 47
0.0
 48
0.0
140
2.5
141
2.5
142
0.0
143
0.03937007874016
144
1.0
145
0.0
146
1.0
147
0.625
 71
     0
 72
     0
 73
     0
 74
     0
 75
     0
 76
     0
 77
     1
 78
     8
170
     0
171
     3
172
     1
173
     0
174
     0
175
     0
176
     0
177
     0
178
     0
  0
ENDTAB
  0
ENDSEC
  0
SECTION
  2
BLOCKS
  0
BLOCK
  8
0
  2
$MODEL_SPACE
 70
     0
 10
0.0
 20
0.0
 30
0.0
  3
$MODEL_SPACE
  1

  0
ENDBLK
  5
21
  8
0
  0
BLOCK
 67
     1
  8
0
  2
$PAPER_SPACE
 70
     0
 10
0.0
 20
0.0
 30
0.0
  3
$PAPER_SPACE
  1

  0
ENDBLK
  5
53
 67
     1
  8
0
  0
BLOCK
  8
0
  2
*X2
 70
     1
 10
0.0
 20
0.0
 30
0.0
  3
*X2
  1

  0
LINE
  5
14A
  8
0
 62
     0
 10
78.700000625229904
 20
11.80691671055274
 30
0.0
 11
78.206917627481516
 21
12.299999708301129
 31
0.0
  0
LINE
  5
14B
  8
0
 62
     0
 10
78.700000625229677
 20
10.90889109844602
 30
0.0
 11
77.30889201537525
 21
12.299999708300669
 31
0.0
  0
LINE
  5
14C
  8
0
 62
     0
 10
78.700000625229677
 20
10.010865486339521
 30
0.0
 11
76.431459412199729
 21
12.279406699369471
 31
0.0
  0
LINE
  5
14D
  8
0
 62
     0
 10
76.512840791168856
 20
11.29999970829294
 30
0.0
 11
75.950869596101256
 21
11.86197090336054
 31
0.0
  0
LINE
  5
14E
  8
0
 62
     0
 10
78.700000625229222
 20
9.1128398742328045
 30
0.0
 11
77.500000625228495
 21
10.31283987423353
 31
0.0
  0
LINE
  5
14F
  8
0
 62
     0
 10
78.648560308118476
 20
8.2662545792363744
 30
0.0
 11
77.103900807644322
 21
9.8109140797105283
 31
0.0
  0
LINE
  5
150
  8
0
 62
     0
 10
78.489471427023773
 20
7.5273178482243557
 30
0.0
 11
76.216789566947909
 21
9.7999997083002182
 31
0.0
  0
LINE
  5
151
  8
0
 62
     0
 10
76.318763954789574
 20
8.7999997083516064
 30
0.0
 11
75.318763954840961
 21
9.7999997083004473
 31
0.0
  0
LINE
  5
152
  8
0
 62
     0
 10
78.285384779449259
 20
6.8333788836919211
 30
0.0
 11
76.657538718030537
 21
8.4612249451108692
 31
0.0
  0
LINE
  5
153
  8
0
 62
     0
 10
75.420738342688082
 20
8.7999997083461494
 30
0.0
 11
74.420738342734012
 21
9.7999997082999926
 31
0.0
  0
LINE
  5
154
  8
0
 62
     0
 10
78.041364863667923
 20
6.1793731873660809
 30
0.0
 11
76.481489249369361
 21
7.7392488016648713
 31
0.0
  0
LINE
  5
155
  8
0
 62
     0
 10
74.522712730586804
 20
8.7999997083402377
 30
0.0
 11
73.522712730627504
 21
9.7999997082995378
 31
0.0
  0
LINE
  5
156
  8
0
 62
     0
 10
77.761078224597213
 20
5.5616342143296151
 30
0.0
 11
76.25198883908979
 21
7.0707235998372653
 31
0.0
  0
LINE
  5
157
  8
0
 62
     0
 10
73.624687118484871
 20
8.7999997083352355
 30
0.0
 11
72.624687118520797
 21
9.7999997082995378
 31
0.0
  0
LINE
  5
158
  8
0
 62
     0
 10
71.124687118520342
 20
11.299999708299991
 30
0.0
 11
70.124687118522388
 21
12.299999708297941
 31
0.0
  0
LINE
  5
159
  8
0
 62
     0
 10
77.447211241203604
 20
4.9774755856165021
 30
0.0
 11
75.976084768094779
 21
6.448602058725327
 31
0.0
  0
LINE
  5
15A
  8
0
 62
     0
 10
72.72666150638338
 20
8.7999997083300059
 30
0.0
 11
71.726661506413848
 21
9.7999997082997652
 31
0.0
  0
LINE
  5
15B
  8
0
 62
     0
 10
70.231391137614537
 20
11.29527007709885
 30
0.0
 11
69.226661506412711
 21
12.299999708300669
 31
0.0
  0
LINE
  5
15C
  8
0
 62
     0
 10
77.101726421357853
 20
4.4249347933555319
 30
0.0
 11
75.658167503038612
 21
5.8684937116749998
 31
0.0
  0
LINE
  5
15D
  8
0
 62
     0
 10
71.828635894282343
 20
8.7999997083245471
 30
0.0
 11
70.828635894306899
 21
9.7999997082999926
 31
0.0
  0
LINE
  5
15E
  8
0
 62
     0
 10
69.800777328193362
 20
10.827858274413529
 30
0.0
 11
68.328635894303261
 21
12.299999708303631
 31
0.0
  0
LINE
  5
15F
  8
0
 62
     0
 10
76.726024418981297
 20
3.902611183625595
 30
0.0
 11
75.301197339904775
 21
5.327438262702116
 31
0.0
  0
LINE
  5
160
  8
0
 62
     0
 10
70.930610282180623
 20
8.7999997083190902
 30
0.0
 11
67.430610282193129
 21
12.299999708306361
 31
0.0
  0
LINE
  5
161
  8
0
 62
     0
 10
76.321047187689601
 20
3.4095628028101141
 30
0.0
 11
74.907087267886027
 21
4.8235227226136876
 31
0.0
  0
LINE
  5
162
  8
0
 62
     0
 10
70.03258467007845
 20
8.7999997083138624
 30
0.0
 11
68.60000062524341
 21
10.232583753149131
 31
0.0
  0
LINE
  5
163
  8
0
 62
     0
 10
67.532584670146875
 20
11.29999970824565
 30
0.0
 11
67.10000062524864
 21
11.732583753143899
 31
0.0
  0
LINE
  5
164
  8
0
 62
     0
 10
75.887341690764515
 20
2.9452426876280242
 30
0.0
 11
74.476918779825837
 21
4.3556655985667021
 31
0.0
  0
LINE
  5
165
  8
0
 62
     0
 10
69.13455905797764
 20
8.799999708308178
 30
0.0
 11
68.134559057988099
 21
9.7999997082977188
 31
0.0
  0
LINE
  5
166
  8
0
 62
     0
 10
75.425094852175107
 20
2.50946391411071
 30
0.0
 11
74.01105332226939
 21
3.9235054440164272
 31
0.0
  0
LINE
  5
167
  8
0
 62
     0
 10
68.236533445876148
 20
8.7999997083029484
 30
0.0
 11
67.255203559509482
 21
9.7813295946696144
 31
0.0
  0
LINE
  5
168
  8
0
 62
     0
 10
74.93414516140615
 20
2.1023879927729459
 30
0.0
 11
73.509167881720941
 21
3.5273652724581548
 31
0.0
  0
LINE
  5
169
  8
0
 62
     0
 10
67.338230613730957
 20
8.8002769283414182
 30
0.0
 11
67.100277845285973
 21
9.0382296967864022
 31
0.0
  0
LINE
  5
16A
  8
0
 62
     0
 10
74.413972656494479
 20
1.724534885577895
 30
0.0
 11
72.970223221559991
 21
3.1682843205123841
 31
0.0
  0
LINE
  5
16B
  8
0
 62
     0
 10
73.863665798980037
 20
1.3768161309851621
 30
0.0
 11
72.392357183706963
 21
2.8481247462582351
 31
0.0
  0
LINE
  5
16C
  8
0
 62
     0
 10
73.281860132910865
 20
1.0605961849469161
 30
0.0
 11
71.772675918986579
 21
2.5697803988712158
 31
0.0
  0
LINE
  5
16D
  8
0
 62
     0
 10
72.666638512424925
 20
0.7777921933261496
 30
0.0
 11
71.106882920567159
 21
2.337547785183915
 31
0.0
  0
LINE
  5
16E
  8
0
 62
     0
 10
72.015374293094283
 20
0.5310308005502975
 30
0.0
 11
70.388617733566207
 21
2.157787360078145
 31
0.0
  0
LINE
  5
16F
  8
0
 62
     0
 10
71.324483618184559
 20
0.3238958633526181
 30
0.0
 11
69.6082146583135
 21
2.0401648232236762
 31
0.0
  0
LINE
  5
170
  8
0
 62
     0
 10
49.63502913856405
 20
21.115324730866181
 30
0.0
 11
49.325507045181674
 21
21.424846824248341
 31
0.0
  0
LINE
  5
171
  8
0
 62
     0
 10
70.589022760122361
 20
0.161331109307639
 30
0.0
 11
68.750354161139512
 21
1.9999997082907151
 31
0.0
  0
LINE
  5
172
  8
0
 62
     0
 10
49.40696816609784
 20
20.445360091225439
 30
0.0
 11
48.499303836933677
 21
21.353024420389829
 31
0.0
  0
LINE
  5
173
  8
0
 62
     0
 10
69.802001610279831
 20
0.0503266470436756
 30
0.0
 11
67.852328549035064
 21
1.9999997082882139
 31
0.0
  0
LINE
  5
174
  8
0
 62
     0
 10
52.000000625313298
 20
16.954302019903249
 30
0.0
 11
51.05930293693018
 21
17.894999708286601
 31
0.0
  0
LINE
  5
175
  8
0
 62
     0
 10
49.167333470117228
 20
19.786969175099561
 30
0.0
 11
47.673524550926459
 21
21.28077809429033
 31
0.0
  0
LINE
  5
176
  8
0
 62
     0
 10
68.953130431299542
 20
0.0011722139172434
 30
0.0
 11
66.954302936930617
 21
1.99999970828594
 31
0.0
  0
LINE
  5
177
  8
0
 62
     0
 10
52.00000062531398
 20
16.05627640779608
 30
0.0
 11
50.161277324822549
 21
17.894999708287511
 31
0.0
  0
LINE
  5
178
  8
0
 62
     0
 10
48.721056876916919
 20
19.335220156193142
 30
0.0
 11
46.859247505841267
 21
21.197029527268569
 31
0.0
  0
LINE
  5
179
  8
0
 62
     0
 10
68.056277324806615
 20
-0.0000002916967787
 30
0.0
 11
66.056277324826851
 21
1.999999708282985
 31
0.0
  0
LINE
  5
17A
  8
0
 62
     0
 10
52.000000625314442
 20
15.15825079568844
 30
0.0
 11
49.263251712715139
 21
17.894999708287742
 31
0.0
  0
LINE
  5
17B
  8
0
 62
     0
 10
48.635083424995628
 20
18.52316799600726
 30
0.0
 11
46.39274917822695
 21
20.76550224277571
 31
0.0
  0
LINE
  5
17C
  8
0
 62
     0
 10
67.158251712699666
 20
-0.0000002916967787
 30
0.0
 11
65.158251712721494
 21
1.999999708281393
 31
0.0
  0
LINE
  5
17D
  8
0
 62
     0
 10
52.000000625315351
 20
14.26022518358036
 30
0.0
 11
47.078813419447897
 21
19.181412389447811
 31
0.0
  0
LINE
  5
17E
  8
0
 62
     0
 10
66.260226100592945
 20
-0.0000002916972335
 30
0.0
 11
64.260226100617274
 21
1.9999997082782099
 31
0.0
  0
LINE
  5
17F
  8
0
 62
     0
 10
52.000000625315572
 20
13.362199571473409
 30
0.0
 11
50.00000062526464
 21
15.36219957152411
 31
0.0
  0
LINE
  5
180
  8
0
 62
     0
 10
53.40000062529338
 20
11.96219957149537
 30
0.0
 11
53.062200488521512
 21
12.29999970826748
 31
0.0
  0
LINE
  5
181
  8
0
 62
     0
 10
49.462200488495
 20
15.89999970829399
 30
0.0
 11
47.335083424994536
 21
18.02711677179445
 31
0.0
  0
LINE
  5
182
  8
0
 62
     0
 10
65.362200488485996
 20
-0.0000002916970061
 30
0.0
 11
63.362200488513281
 21
1.9999997082757091
 31
0.0
  0
LINE
  5
183
  8
0
 62
     0
 10
53.163794068260813
 20
11.30038051642145
 30
0.0
 11
50.000000625265557
 21
14.464173959416479
 31
0.0
  0
LINE
  5
184
  8
0
 62
     0
 10
48.564174876388051
 20
15.899999708294221
 30
0.0
 11
46.53917487639319
 21
17.924999708288851
 31
0.0
  0
LINE
  5
185
  8
0
 62
     0
 10
64.464174876379715
 20
-0.0000002916974609
 30
0.0
 11
62.464174876408833
 21
1.9999997082732071
 31
0.0
  0
LINE
  5
186
  8
0
 62
     0
 10
52.267874383418757
 20
11.29827458915679
 30
0.0
 11
50.000000625266232
 21
13.56614834730931
 31
0.0
  0
LINE
  5
187
  8
0
 62
     0
 10
47.666149264281778
 20
15.899999708293761
 30
0.0
 11
45.641149264286689
 21
17.924999708288851
 31
0.0
  0
LINE
  5
188
  8
0
 62
     0
 10
63.566149264273008
 20
-0.0000002916974609
 30
0.0
 11
61.56614926430484
 21
1.9999997082707059
 31
0.0
  0
LINE
  5
189
  8
0
 62
     0
 10
52.000000625328987
 20
10.668122735139381
 30
0.0
 11
50.000000625266232
 21
12.6681227352019
 31
0.0
  0
LINE
  5
18A
  8
0
 62
     0
 10
46.768123652173699
 20
15.89999970829467
 30
0.0
 11
44.74312365217861
 21
17.924999708289761
 31
0.0
  0
LINE
  5
18B
  8
0
 62
     0
 10
53.400000625305438
 20
9.2681227351629332
 30
0.0
 11
52.868123652230452
 21
9.7999997082379195
 31
0.0
  0
LINE
  5
18C
  8
0
 62
     0
 10
42.956236975043339
 20
19.711886385425029
 30
0.0
 11
42.243123652178831
 21
20.42499970828953
 31
0.0
  0
LINE
  5
18D
  8
0
 62
     0
 10
62.668123652165832
 20
-0.0000002916976882
 30
0.0
 11
60.668123652199711
 21
1.99999970826866
 31
0.0
  0
LINE
  5
18E
  8
0
 62
     0
 10
45.870098040066971
 20
15.899999708294221
 30
0.0
 11
43.845098040071889
 21
17.924999708289299
 31
0.0
  0
LINE
  5
18F
  8
0
 62
     0
 10
52.970098040065061
 20
8.7999997082961272
 30
0.0
 11
50.000000625267603
 21
11.77009712309359
 31
0.0
  0
LINE
  5
190
  8
0
 62
     0
 10
42.615889038150037
 20
19.154208710211151
 30
0.0
 11
41.375803637867882
 21
20.39429411049332
 31
0.0
  0
LINE
  5
191
  8
0
 62
     0
 10
61.770098040058883
 20
-0.0000002916979156
 30
0.0
 11
59.770098040095938
 21
1.999999708265249
 31
0.0
  0
LINE
  5
192
  8
0
 62
     0
 10
44.972072427960249
 20
15.89999970829399
 30
0.0
 11
42.947072427964258
 21
17.924999708290208
 31
0.0
  0
LINE
  5
193
  8
0
 62
     0
 10
52.126987695468642
 20
8.7450844407858312
 30
0.0
 11
50.00000062526783
 21
10.87207151098664
 31
0.0
  0
LINE
  5
194
  8
0
 62
     0
 10
42.275595036530603
 20
18.59647709972387
 30
0.0
 11
40.832694727080479
 21
20.039377409173991
 31
0.0
  0
LINE
  5
195
  8
0
 62
     0
 10
60.872072427952617
 20
-0.000000291698143
 30
0.0
 11
58.872072427991718
 21
1.9999997082625209
 31
0.0
  0
LINE
  5
196
  8
0
 62
     0
 10
52.000000625342643
 20
7.9740458988051151
 30
0.0
 11
50.00000062526874
 21
9.9740458988790124
 31
0.0
  0
LINE
  5
197
  8
0
 62
     0
 10
44.074046815853762
 20
15.89999970829399
 30
0.0
 11
40.484945841500121
 21
19.489100682647631
 31
0.0
  0
LINE
  5
198
  8
0
 62
     0
 10
59.974046815845902
 20
-0.0000002916983703
 30
0.0
 11
57.97404681588705
 21
1.9999997082607019
 31
0.0
  0
LINE
  5
199
  8
0
 62
     0
 10
52.000000625343318
 20
7.0760202866970303
 30
0.0
 11
50.00000062526874
 21
9.0760202867716089
 31
0.0
  0
LINE
  5
19A
  8
0
 62
     0
 10
43.176021203745897
 20
15.89999970829467
 30
0.0
 11
40.141311862398418
 21
18.934709049641921
 31
0.0
  0
LINE
  5
19B
  8
0
 62
     0
 10
59.076021203738939
 20
-0.0000002916983703
 30
0.0
 11
57.076021203782602
 21
1.999999708257973
 31
0.0
  0
LINE
  5
19C
  8
0
 62
     0
 10
52.000000625344228
 20
6.1779946745889438
 30
0.0
 11
49.67766886153322
 21
8.5003264384001795
 31
0.0
  0
LINE
  5
19D
  8
0
 62
     0
 10
42.277995591639183
 20
15.89999970829399
 30
0.0
 11
39.797518643632891
 21
18.380476656300509
 31
0.0
  0
LINE
  5
19E
  8
0
 62
     0
 10
58.177995591632232
 20
-0.0000002916988251
 30
0.0
 11
56.177995591678147
 21
1.999999708255245
 31
0.0
  0
LINE
  5
19F
  8
0
 62
     0
 10
52.000000625345592
 20
5.2799690624810864
 30
0.0
 11
48.779643249426947
 21
8.5003264383997248
 31
0.0
  0
LINE
  5
1A0
  8
0
 62
     0
 10
41.379969979532682
 20
15.89999970829399
 30
0.0
 11
39.296289505952927
 21
17.98368018187352
 31
0.0
  0
LINE
  5
1A1
  8
0
 62
     0
 10
57.279969979525497
 20
-0.0000002916988251
 30
0.0
 11
55.279969979574162
 21
1.9999997082525161
 31
0.0
  0
LINE
  5
1A2
  8
0
 62
     0
 10
49.381617637318193
 20
7.0003264384017712
 30
0.0
 11
48.500000625274197
 21
7.8819434504457604
 31
0.0
  0
LINE
  5
1A3
  8
0
 62
     0
 10
52.000000625346502
 20
4.3819434503734547
 30
0.0
 11
50.000000625269877
 21
6.3819434504500796
 31
0.0
  0
LINE
  5
1A4
  8
0
 62
     0
 10
40.481944367425967
 20
15.89999970829399
 30
0.0
 11
38.456944367430197
 21
17.92499970828953
 31
0.0
  0
LINE
  5
1A5
  8
0
 62
     0
 10
56.381944367418782
 20
-0.0000002916990525
 30
0.0
 11
54.381944367469941
 21
1.999999708249788
 31
0.0
  0
LINE
  5
1A6
  8
0
 62
     0
 10
52.000000625347411
 20
3.4839178382658238
 30
0.0
 11
50.000000625272151
 21
5.4839178383410854
 31
0.0
  0
LINE
  5
1A7
  8
0
 62
     0
 10
39.583918755319019
 20
15.899999708294221
 30
0.0
 11
37.558918755323248
 21
17.924999708289761
 31
0.0
  0
LINE
  5
1A8
  8
0
 62
     0
 10
55.483918755311599
 20
-0.0000002916983703
 30
0.0
 11
53.483918755365274
 21
1.999999708247969
 31
0.0
  0
LINE
  5
1A9
  8
0
 62
     0
 10
52.000000625348093
 20
2.585892226157966
 30
0.0
 11
50.000000625273053
 21
4.5858922262327724
 31
0.0
  0
LINE
  5
1AA
  8
0
 62
     0
 10
38.685893143211622
 20
15.899999708294439
 30
0.0
 11
36.660893143215851
 21
17.924999708290208
 31
0.0
  0
LINE
  5
1AB
  8
0
 62
     0
 10
54.585893143204878
 20
-0.0000002916988251
 30
0.0
 11
52.585893143260819
 21
1.9999997082452401
 31
0.0
  0
LINE
  5
1AC
  8
0
 62
     0
 10
37.787867531104673
 20
15.899999708294221
 30
0.0
 11
35.762867531109578
 21
17.924999708289299
 31
0.0
  0
LINE
  5
1AD
  8
0
 62
     0
 10
53.687867531097943
 20
-0.0000002916990525
 30
0.0
 11
50.000000625275327
 21
3.687866614123549
 31
0.0
  0
LINE
  5
1AE
  8
0
 62
     0
 10
36.889841918997952
 20
15.899999708294221
 30
0.0
 11
34.864841919002629
 21
17.92499970828953
 31
0.0
  0
LINE
  5
1AF
  8
0
 62
     0
 10
52.789841918991442
 20
-0.0000002916995072
 30
0.0
 11
50.000000625277153
 21
2.7898410020150091
 31
0.0
  0
LINE
  5
1B0
  8
0
 62
     0
 10
35.991816306891216
 20
15.89999970829399
 30
0.0
 11
33.96681630689568
 21
17.924999708289761
 31
0.0
  0
LINE
  5
1B1
  8
0
 62
     0
 10
51.891816306884941
 20
-0.0000002916995072
 30
0.0
 11
49.851028036895279
 21
2.0407879782901541
 31
0.0
  0
LINE
  5
1B2
  8
0
 62
     0
 10
35.093790694784047
 20
15.89999970829467
 30
0.0
 11
33.068790694788731
 21
17.924999708289981
 31
0.0
  0
LINE
  5
1B3
  8
0
 62
     0
 10
50.993790694778227
 20
-0.0000002916995072
 30
0.0
 11
48.99379069484803
 21
1.9999997082306891
 31
0.0
  0
LINE
  5
1B4
  8
0
 62
     0
 10
34.195765082676871
 20
15.89999970829467
 30
0.0
 11
32.170765082681783
 21
17.92499970828953
 31
0.0
  0
LINE
  5
1B5
  8
0
 62
     0
 10
50.095765082671051
 20
-0.0000002916997346
 30
0.0
 11
48.095765082739263
 21
1.99999970823228
 31
0.0
  0
LINE
  5
1B6
  8
0
 62
     0
 10
33.29773947057015
 20
15.89999970829399
 30
0.0
 11
31.272739470574841
 21
17.92499970828953
 31
0.0
  0
LINE
  5
1B7
  8
0
 62
     0
 10
49.197739470564549
 20
-0.0000002917001893
 30
0.0
 11
47.197739470631397
 21
1.9999997082329619
 31
0.0
  0
LINE
  5
1B8
  8
0
 62
     0
 10
32.399713858463663
 20
15.89999970829399
 30
0.0
 11
30.374713858467889
 21
17.924999708289761
 31
0.0
  0
LINE
  5
1B9
  8
0
 62
     0
 10
48.299713858457842
 20
-0.0000002917001893
 30
0.0
 11
46.299713858523312
 21
1.999999708234099
 31
0.0
  0
LINE
  5
1BA
  8
0
 62
     0
 10
31.501688246356249
 20
15.899999708294439
 30
0.0
 11
29.47668824636094
 21
17.924999708289981
 31
0.0
  0
LINE
  5
1BB
  8
0
 62
     0
 10
47.401688246351107
 20
-0.0000002917001893
 30
0.0
 11
45.401688246415461
 21
1.999999708235463
 31
0.0
  0
LINE
  5
1BC
  8
0
 62
     0
 10
30.6036626342493
 20
15.899999708294439
 30
0.0
 11
28.578662634253529
 21
17.924999708290208
 31
0.0
  0
LINE
  5
1BD
  8
0
 62
     0
 10
46.50366263424371
 20
-0.000000291699962
 30
0.0
 11
44.503662634306693
 21
1.9999997082370551
 31
0.0
  0
LINE
  5
1BE
  8
0
 62
     0
 10
29.705637022142579
 20
15.89999970829399
 30
0.0
 11
27.68063702214727
 21
17.924999708289299
 31
0.0
  0
LINE
  5
1BF
  8
0
 62
     0
 10
45.605637022137437
 20
-0.0000002917008715
 30
0.0
 11
43.605637022199062
 21
1.999999708237282
 31
0.0
  0
LINE
  5
1C0
  8
0
 62
     0
 10
28.807611410035641
 20
15.899999708294221
 30
0.0
 11
26.78261141004009
 21
17.92499970828953
 31
0.0
  0
LINE
  5
1C1
  8
0
 62
     0
 10
44.707611410030722
 20
-0.0000002917008715
 30
0.0
 11
42.707611410091197
 21
1.9999997082386469
 31
0.0
  0
LINE
  5
1C2
  8
0
 62
     0
 10
27.909585797928909
 20
15.899999708294221
 30
0.0
 11
25.88458579793382
 21
17.924999708289299
 31
0.0
  0
LINE
  5
1C3
  8
0
 62
     0
 10
43.809585797924001
 20
-0.0000002917010988
 30
0.0
 11
41.809585797983353
 21
1.999999708239784
 31
0.0
  0
LINE
  5
1C4
  8
0
 62
     0
 10
27.01156018582196
 20
15.899999708294439
 30
0.0
 11
24.986560185826189
 21
17.924999708289981
 31
0.0
  0
LINE
  5
1C5
  8
0
 62
     0
 10
42.911560185817052
 20
-0.0000002917008715
 30
0.0
 11
40.911560185875253
 21
1.999999708241148
 31
0.0
  0
LINE
  5
1C6
  8
0
 62
     0
 10
26.11353457371456
 20
15.89999970829467
 30
0.0
 11
24.088534573719471
 21
17.924999708289761
 31
0.0
  0
LINE
  5
1C7
  8
0
 62
     0
 10
42.013534573710331
 20
-0.0000002917010988
 30
0.0
 11
40.013534573766492
 21
1.9999997082425121
 31
0.0
  0
LINE
  5
1C8
  8
0
 62
     0
 10
25.215508961607839
 20
15.899999708294221
 30
0.0
 11
23.190508961612519
 21
17.92499970828953
 31
0.0
  0
LINE
  5
1C9
  8
0
 62
     0
 10
41.115508961603609
 20
-0.000000291701781
 30
0.0
 11
39.115508961658861
 21
1.999999708242967
 31
0.0
  0
LINE
  5
1CA
  8
0
 62
     0
 10
24.317483349501121
 20
15.89999970829399
 30
0.0
 11
22.292483349505581
 21
17.924999708289761
 31
0.0
  0
LINE
  5
1CB
  8
0
 62
     0
 10
40.217483349497122
 20
-0.000000291701781
 30
0.0
 11
38.21748334955101
 21
1.999999708244331
 31
0.0
  0
LINE
  5
1CC
  8
0
 62
     0
 10
23.419457737393941
 20
15.89999970829467
 30
0.0
 11
21.39445773739908
 21
17.924999708289299
 31
0.0
  0
LINE
  5
1CD
  8
0
 62
     0
 10
39.319457737390621
 20
-0.0000002917022357
 30
0.0
 11
37.319457737443138
 21
1.9999997082454679
 31
0.0
  0
LINE
  5
1CE
  8
0
 62
     0
 10
22.52143212528722
 20
15.899999708294439
 30
0.0
 11
20.496432125292131
 21
17.92499970828953
 31
0.0
  0
LINE
  5
1CF
  8
0
 62
     0
 10
38.421432125283673
 20
-0.0000002917020083
 30
0.0
 11
36.421432125334832
 21
1.9999997082470591
 31
0.0
  0
LINE
  5
1D0
  8
0
 62
     0
 10
21.623406513180271
 20
15.899999708294439
 30
0.0
 11
19.59840651318472
 21
17.924999708289761
 31
0.0
  0
LINE
  5
1D1
  8
0
 62
     0
 10
37.523406513176717
 20
-0.0000002917020083
 30
0.0
 11
35.523406513226753
 21
1.999999708247969
 31
0.0
  0
LINE
  5
1D2
  8
0
 62
     0
 10
20.725380901073549
 20
15.89999970829399
 30
0.0
 11
18.700380901077779
 21
17.924999708289761
 31
0.0
  0
LINE
  5
1D3
  8
0
 62
     0
 10
36.62538090107001
 20
-0.0000002917024631
 30
0.0
 11
34.625380901119122
 21
1.999999708248424
 31
0.0
  0
LINE
  5
1D4
  8
0
 62
     0
 10
19.827355288966139
 20
15.899999708294439
 30
0.0
 11
17.802355288971508
 21
17.924999708289299
 31
0.0
  0
LINE
  5
1D5
  8
0
 62
     0
 10
35.727355288963061
 20
-0.0000002917022357
 30
0.0
 11
33.727355289010802
 21
1.999999708249788
 31
0.0
  0
LINE
  5
1D6
  8
0
 62
     0
 10
18.929329676859648
 20
15.899999708294439
 30
0.0
 11
16.90432967686456
 21
17.92499970828953
 31
0.0
  0
LINE
  5
1D7
  8
0
 62
     0
 10
34.829329676856332
 20
-0.0000002917022357
 30
0.0
 11
32.829329676902951
 21
1.999999708251152
 31
0.0
  0
LINE
  5
1D8
  8
0
 62
     0
 10
18.031304064752469
 20
15.899999708294439
 30
0.0
 11
16.00630406475716
 21
17.924999708289761
 31
0.0
  0
LINE
  5
1D9
  8
0
 62
     0
 10
33.931304064749163
 20
-0.0000002917024631
 30
0.0
 11
31.931304064794631
 21
1.9999997082522889
 31
0.0
  0
LINE
  5
1DA
  8
0
 62
     0
 10
17.133278452645531
 20
15.899999708294221
 30
0.0
 11
15.108278452650209
 21
17.92499970828953
 31
0.0
  0
LINE
  5
1DB
  8
0
 62
     0
 10
33.033278452642662
 20
-0.0000002917029178
 30
0.0
 11
31.033278452686549
 21
1.999999708252971
 31
0.0
  0
LINE
  5
1DC
  8
0
 62
     0
 10
16.235252840538578
 20
15.899999708294439
 30
0.0
 11
14.210252840543721
 21
17.924999708289079
 31
0.0
  0
LINE
  5
1DD
  8
0
 62
     0
 10
32.135252840535941
 20
-0.0000002917029178
 30
0.0
 11
30.13525284057846
 21
1.9999997082545631
 31
0.0
  0
LINE
  5
1DE
  8
0
 62
     0
 10
15.33722722843163
 20
15.89999970829467
 30
0.0
 11
13.31222722843677
 21
17.92499970828953
 31
0.0
  0
LINE
  5
1DF
  8
0
 62
     0
 10
31.237227228429219
 20
-0.0000002917031452
 30
0.0
 11
29.23722722847106
 21
1.999999708255245
 31
0.0
  0
LINE
  5
1E0
  8
0
 62
     0
 10
14.439201616324681
 20
15.899999708294899
 30
0.0
 11
9.9142016163341395
 21
20.42499970828521
 31
0.0
  0
LINE
  5
1E1
  8
0
 62
     0
 10
30.339201616322729
 20
-0.0000002917031452
 30
0.0
 11
28.33920161636275
 21
1.999999708256609
 31
0.0
  0
LINE
  5
1E2
  8
0
 62
     0
 10
13.54117600421773
 20
15.899999708294439
 30
0.0
 11
9.0161760042278711
 21
20.424999708284531
 31
0.0
  0
LINE
  5
1E3
  8
0
 62
     0
 10
29.441176004215549
 20
-0.0000002917031452
 30
0.0
 11
27.44117600425443
 21
1.999999708257973
 31
0.0
  0
LINE
  5
1E4
  8
0
 62
     0
 10
12.64315039211078
 20
15.899999708294439
 30
0.0
 11
9.3609827387101632
 21
19.18216736169483
 31
0.0
  0
LINE
  5
1E5
  8
0
 62
     0
 10
28.543150392108831
 20
-0.0000002917038273
 30
0.0
 11
26.543150392146121
 21
1.999999708258883
 31
0.0
  0
LINE
  5
1E6
  8
0
 62
     0
 10
11.745124780003829
 20
15.89999970829467
 30
0.0
 11
9.6507345295337927
 21
17.994389958764479
 31
0.0
  0
LINE
  5
1E7
  8
0
 62
     0
 10
27.64512478000233
 20
-0.0000002917038273
 30
0.0
 11
25.645124780038259
 21
1.999999708260247
 31
0.0
  0
LINE
  5
1E8
  8
0
 62
     0
 10
10.84709916789688
 20
15.899999708294899
 30
0.0
 11
8.822099167905435
 21
17.92499970828635
 31
0.0
  0
LINE
  5
1E9
  8
0
 62
     0
 10
26.74709916789562
 20
-0.0000002917038273
 30
0.0
 11
24.747099167930859
 21
1.9999997082607019
 31
0.0
  0
LINE
  5
1EA
  8
0
 62
     0
 10
9.9490735557901644
 20
15.89999970829467
 30
0.0
 11
7.924073555798941
 21
17.924999708285888
 31
0.0
  0
LINE
  5
1EB
  8
0
 62
     0
 10
5.4369872638915231
 20
20.41208600019354
 30
0.0
 11
4.5920615814557086
 21
21.257011682629351
 31
0.0
  0
LINE
  5
1EC
  8
0
 62
     0
 10
25.849073555788891
 20
-0.0000002917038273
 30
0.0
 11
23.84907355582277
 21
1.999999708262294
 31
0.0
  0
LINE
  5
1ED
  8
0
 62
     0
 10
9.0510479436832156
 20
15.89999970829467
 30
0.0
 11
7.0260479436922187
 21
17.924999708285672
 31
0.0
  0
LINE
  5
1EE
  8
0
 62
     0
 10
5.0957014148668804
 20
19.855346237111011
 30
0.0
 11
3.607936150667455
 21
21.343111501310428
 31
0.0
  0
LINE
  5
1EF
  8
0
 62
     0
 10
24.951047943681719
 20
-0.0000002917040547
 30
0.0
 11
22.951047943714229
 21
1.99999970826343
 31
0.0
  0
LINE
  5
1F0
  8
0
 62
     0
 10
8.1530223315758121
 20
15.899999708294899
 30
0.0
 11
6.1280223315859521
 21
17.924999708284759
 31
0.0
  0
LINE
  5
1F1
  8
0
 62
     0
 10
4.9059262732569087
 20
19.147095766613798
 30
0.0
 11
2.6294650602535512
 21
21.42355697961716
 31
0.0
  0
LINE
  5
1F2
  8
0
 62
     0
 10
24.053022331575221
 20
-0.0000002917045094
 30
0.0
 11
22.053022331606371
 21
1.9999997082643399
 31
0.0
  0
LINE
  5
1F3
  8
0
 62
     0
 10
7.2549967194690899
 20
15.89999970829467
 30
0.0
 11
5.2651510041405336
 21
17.889845423623228
 31
0.0
  0
LINE
  5
1F4
  8
0
 62
     0
 10
4.7161511316478482
 20
18.438845296115911
 30
0.0
 11
2.5167684785119491
 21
20.638227949252041
 31
0.0
  0
LINE
  5
1F5
  8
0
 62
     0
 10
23.1549967194685
 20
-0.0000002917045094
 30
0.0
 11
21.15499671949852
 21
1.999999708265477
 31
0.0
  0
LINE
  5
1F6
  8
0
 62
     0
 10
6.3569711073625959
 20
15.89999970829467
 30
0.0
 11
3.3588513790834891
 21
18.898119436573779
 31
0.0
  0
LINE
  5
1F7
  8
0
 62
     0
 10
22.256971107361782
 20
-0.0000002917047368
 30
0.0
 11
20.2569711073902
 21
1.999999708267068
 31
0.0
  0
LINE
  5
1F8
  8
0
 62
     0
 10
5.4589454952556471
 20
15.899999708294899
 30
0.0
 11
3.316919255308675
 21
18.042025948241871
 31
0.0
  0
LINE
  5
1F9
  8
0
 62
     0
 10
21.358945495255291
 20
-0.0000002917047368
 30
0.0
 11
19.358945495282569
 21
1.9999997082679779
 31
0.0
  0
LINE
  5
1FA
  8
0
 62
     0
 10
4.560919883148471
 20
15.899999708294899
 30
0.0
 11
2.5659198831581298
 21
17.894999708285241
 31
0.0
  0
LINE
  5
1FB
  8
0
 62
     0
 10
20.460919883148339
 20
-0.0000002917051916
 30
0.0
 11
18.460919883173801
 21
1.9999997082695691
 31
0.0
  0
LINE
  5
1FC
  8
0
 62
     0
 10
15.09739399837167
 20
4.4654999809645233
 30
0.0
 11
11.365581636152911
 21
8.1973123431830572
 31
0.0
  0
LINE
  5
1FD
  8
0
 62
     0
 10
3.6628942710410679
 20
15.899999708294899
 30
0.0
 11
1.6678942710514091
 21
17.894999708284558
 31
0.0
  0
LINE
  5
1FE
  8
0
 62
     0
 10
19.56289427104138
 20
-0.0000002917054189
 30
0.0
 11
17.56289427106617
 21
1.999999708270024
 31
0.0
  0
LINE
  5
1FF
  8
0
 62
     0
 10
15.35752684396425
 20
3.3073415232652219
 30
0.0
 11
10.207423178453841
 21
8.4574451887756368
 31
0.0
  0
LINE
  5
200
  8
0
 62
     0
 10
2.7648686589345739
 20
15.899999708294899
 30
0.0
 11
0.7698686589444606
 21
17.89499970828501
 31
0.0
  0
LINE
  5
201
  8
0
 62
     0
 10
18.664868658934889
 20
-0.0000002917054189
 30
0.0
 11
16.664868658957861
 21
1.9999997082713881
 31
0.0
  0
LINE
  5
202
  8
0
 62
     0
 10
15.400081362600529
 20
2.366761392521993
 30
0.0
 11
9.2668430468272618
 21
8.4999997082952632
 31
0.0
  0
LINE
  5
203
  8
0
 62
     0
 10
2.0320086665901722
 20
15.73483408853258
 30
0.0
 11
0.0336994120505096
 21
17.733143343072239
 31
0.0
  0
LINE
  5
204
  8
0
 62
     0
 10
17.766843046828171
 20
-0.0000002917054189
 30
0.0
 11
15.76684304685023
 21
1.999999708272298
 31
0.0
  0
LINE
  5
205
  8
0
 62
     0
 10
10.49888486768373
 20
6.3699322753318484
 30
0.0
 11
8.3688174347196291
 21
8.4999997082959453
 31
0.0
  0
LINE
  5
206
  8
0
 62
     0
 10
2.000000625253278
 20
14.868816517762291
 30
0.0
 11
0.0000006252789717
 21
16.868816517736601
 31
0.0
  0
LINE
  5
207
  8
0
 62
     0
 10
16.86881743472145
 20
-0.0000002917058737
 30
0.0
 11
13.27001393052001
 21
3.598803212495568
 31
0.0
  0
LINE
  5
208
  8
0
 62
     0
 10
9.4707918226135916
 20
6.4999997082948084
 30
0.0
 11
7.4707918226129086
 21
8.4999997082952632
 31
0.0
  0
LINE
  5
209
  8
0
 62
     0
 10
2.0000006252557792
 20
13.97079090565262
 30
0.0
 11
0.0000006252791991
 21
15.970790905629199
 31
0.0
  0
LINE
  5
20A
  8
0
 62
     0
 10
15.970791822614039
 20
-0.0000002917056463
 30
0.0
 11
13.400081363485469
 21
2.5707101674227029
 31
0.0
  0
LINE
  5
20B
  8
0
 62
     0
 10
8.5727662105064155
 20
6.4999997082952632
 30
0.0
 11
6.5727662105064146
 21
8.4999997082952632
 31
0.0
  0
LINE
  5
20C
  8
0
 62
     0
 10
2.0000006252585081
 20
13.072765293543171
 30
0.0
 11
0.0000006252801086
 21
15.07276529352157
 31
0.0
  0
LINE
  5
20D
  8
0
 62
     0
 10
15.07276621050732
 20
-0.0000002917058737
 30
0.0
 11
13.072766210526421
 21
1.9999997082752541
 31
0.0
  0
LINE
  5
20E
  8
0
 62
     0
 10
7.6747405983996941
 20
6.4999997082952632
 30
0.0
 11
5.6747405983992394
 21
8.4999997082954906
 31
0.0
  0
LINE
  5
20F
  8
0
 62
     0
 10
2.0000006252610092
 20
12.17473968143395
 30
0.0
 11
0.0000006252812454
 21
14.17473968141371
 31
0.0
  0
LINE
  5
210
  8
0
 62
     0
 10
14.174740598400829
 20
-0.0000002917058737
 30
0.0
 11
12.17474059841334
 21
1.9999997082816201
 31
0.0
  0
LINE
  5
211
  8
0
 62
     0
 10
6.7767149862929719
 20
6.4999997082950349
 30
0.0
 11
4.7767149862927454
 21
8.4999997082954906
 31
0.0
  0
LINE
  5
212
  8
0
 62
     0
 10
2.0000006252635099
 20
11.27671406932472
 30
0.0
 11
0.0000006252817002
 21
13.27671406930631
 31
0.0
  0
LINE
  5
213
  8
0
 62
     0
 10
13.27671498629411
 20
-0.0000002917058737
 30
0.0
 11
11.276714986299559
 21
1.9999997082886689
 31
0.0
  0
LINE
  5
214
  8
0
 62
     0
 10
5.8786893741848871
 20
6.4999997082959453
 30
0.0
 11
3.878689374185341
 21
8.4999997082957162
 31
0.0
  0
LINE
  5
215
  8
0
 62
     0
 10
2.0000006252655562
 20
10.3786884572155
 30
0.0
 11
0.0000006252819276
 21
12.37868845719913
 31
0.0
  0
LINE
  5
216
  8
0
 62
     0
 10
12.37868937418693
 20
-0.0000002917061011
 30
0.0
 11
10.90000062526337
 21
1.478688457217685
 31
0.0
  0
LINE
  5
217
  8
0
 62
     0
 10
4.9806637620786196
 20
6.4999997082952632
 30
0.0
 11
2.9806637620783931
 21
8.4999997082954906
 31
0.0
  0
LINE
  5
218
  8
0
 62
     0
 10
2.0000006252682851
 20
9.4806628451053712
 30
0.0
 11
0.0000006252830644
 21
11.48066284509059
 31
0.0
  0
LINE
  5
219
  8
0
 62
     0
 10
11.480663762080439
 20
-0.0000002917065558
 30
0.0
 11
10.90000062526496
 21
0.5806628451089182
 31
0.0
  0
LINE
  5
21A
  8
0
 62
     0
 10
4.0826381499716708
 20
6.4999997082954897
 30
0.0
 11
0.0000006252837466
 21
10.58263723298341
 31
0.0
  0
LINE
  5
21B
  8
0
 62
     0
 10
3.1846125378647221
 20
6.499999708295717
 30
0.0
 11
0.0000006252848834
 21
9.6846116208753301
 31
0.0
  0
LINE
  5
21C
  8
0
 62
     0
 10
2.2865869257577738
 20
6.4999997082959453
 30
0.0
 11
0.0000006252851108
 21
8.7865860087683814
 31
0.0
  0
LINE
  5
21D
  8
0
 62
     0
 10
1.3885613136505981
 20
6.4999997082959453
 30
0.0
 11
0.0000006252855655
 21
7.8885603966607496
 31
0.0
  0
LINE
  5
21E
  8
0
 62
     0
 10
0.4905357015436494
 20
6.499999708295717
 30
0.0
 11
0.000000625286475
 21
6.9905347845528922
 31
0.0
  0
ENDBLK
  5
220
  8
0
  0
BLOCK
  8
0
  2
*U3
 70
     1
 10
0.0
 20
0.0
 30
0.0
  3
*U3
  1

  0
LINE
  5
222
  8
0
 62
     0
 10
15.400081362347921
 20
2.2999997082428081
 30
0.0
 11
15.40008136348388
 21
2.599999708295285
 31
0.0
  0
ARC
  5
223
  8
0
 62
     0
 10
15.700081362348101
 20
2.2999997082428081
 30
0.0
 40
0.3
 50
180.0
 51
269.99999999982629
  0
ARC
  5
224
  8
0
 62
     0
 10
9.5000813634842416
 20
2.599999708295285
 30
0.0
 40
5.9000000000000004
 50
0.0
 51
90.0
  0
LINE
  5
225
  8
0
 62
     0
 10
49.700000625273788
 20
1.99999970823012
 30
0.0
 11
15.70008136234719
 21
1.9999997082724119
 31
0.0
  0
LINE
  5
226
  8
0
 62
     0
 10
2.300000625271422
 20
8.4999997082958316
 30
0.0
 11
9.5000813634842416
 21
8.4999997082953769
 31
0.0
  0
ARC
  5
227
  8
0
 62
     0
 10
49.700000625273788
 20
2.2999997082300752
 30
0.0
 40
0.3
 50
270.0
 51
0.0000000000868905
  0
ARC
  5
228
  8
0
 62
     0
 10
2.300000625271422
 20
8.7999997082960135
 30
0.0
 40
0.3
 50
180.00000000026051
 51
270.0
  0
LINE
  5
229
  8
0
 62
     0
 10
50.000000625268513
 20
6.7003264384023851
 30
0.0
 11
50.000000625278517
 21
2.299999708230529
 31
0.0
  0
LINE
  5
22A
  8
0
 62
     0
 10
2.000000625271241
 20
8.7999997082946493
 30
0.0
 11
2.0000006252512321
 21
15.59999970829301
 31
0.0
  0
ARC
  5
22B
  8
0
 62
     0
 10
49.700000625268331
 20
6.7003264384019303
 30
0.0
 40
0.3
 50
0.0000000000868503
 51
90.0
  0
ARC
  5
22C
  8
0
 62
     0
 10
2.3000006252505041
 20
15.599999708295281
 30
0.0
 40
0.3
 50
90.0
 51
180.0000000004342
  0
LINE
  5
22D
  8
0
 62
     0
 10
48.750000625268513
 20
7.0003264384012018
 30
0.0
 11
49.700000625268331
 21
7.0003264384021122
 31
0.0
  0
LINE
  5
22E
  8
0
 62
     0
 10
2.3000006252505041
 20
15.89999970829524
 30
0.0
 11
49.700000625264693
 21
15.8999997082941
 31
0.0
  0
ARC
  5
22F
  8
0
 62
     0
 10
48.750000625275788
 20
7.2503264383939259
 30
0.0
 40
0.2499999999927241
 50
179.999999998124
 51
269.9999999983325
  0
ARC
  5
230
  8
0
 62
     0
 10
49.700000625264693
 20
15.59999970829392
 30
0.0
 40
0.3
 50
0.0000000000868503
 51
90.0
  0
LINE
  5
231
  8
0
 62
     0
 10
48.500000625267603
 20
8.2503264383998385
 30
0.0
 11
48.500000625283057
 21
7.2503264384021122
 31
0.0
  0
LINE
  5
232
  8
0
 62
     0
 10
50.000000625264867
 20
15.599999708294369
 30
0.0
 11
50.000000625269422
 21
8.8003264384000204
 31
0.0
  0
ARC
  5
233
  8
0
 62
     0
 10
48.750000625267603
 20
8.2503264383998385
 30
0.0
 40
0.25
 50
90.0
 51
180.0
  0
ARC
  5
234
  8
0
 62
     0
 10
49.700000625268331
 20
8.8003264384000204
 30
0.0
 40
0.3
 50
270.0
 51
0.0
  0
LINE
  5
235
  8
0
 62
     0
 10
49.700000625268331
 20
8.5003264384000659
 30
0.0
 11
48.750000625267603
 21
8.5003264383998385
 31
0.0
  0
ENDBLK
  5
237
  8
0
  0
BLOCK
  8
0
  2
*U4
 70
     1
 10
0.0
 20
0.0
 30
0.0
  3
*U4
  1

  0
ARC
  5
239
  8
0
 10
13.02782946871139
 20
18.92499970828964
 30
0.0
 40
1.0
 50
211.79228071937729
 51
270.0
  0
LINE
  5
23A
  8
0
 10
12.177865788336931
 20
18.39815842095129
 30
0.0
 11
11.218446239347941
 21
19.946009340157499
 31
0.0
  0
LINE
  5
23B
  8
0
 10
38.958772766831324
 20
17.924999708289871
 30
0.0
 11
13.02782946871139
 21
17.924999708289651
 31
0.0
  0
ARC
  5
23C
  8
0
 10
10.364895442091431
 20
19.42499970828624
 30
0.0
 40
1.0
 50
31.400000002062811
 51
90.000000000052125
  0
ARC
  5
23D
  8
0
 10
38.958772766831324
 20
18.924999708289871
 30
0.0
 40
1.0
 50
270.0
 51
328.20771928446158
  0
LINE
  5
23E
  8
0
 10
10.36489544209053
 20
20.42499970828624
 30
0.0
 11
8.9588513790858997
 21
20.4249997082851
 31
0.0
  0
LINE
  5
23F
  8
0
 10
40.768155996018322
 20
19.94600934010316
 30
0.0
 11
39.808736447241252
 21
18.398158421008361
 31
0.0
  0
ARC
  5
240
  8
0
 10
8.9588513790849902
 20
20.224999708285281
 30
0.0
 40
0.1999999999998181
 50
89.999999999739444
 51
179.99999999947889
  0
ARC
  5
241
  8
0
 10
41.621706793310288
 20
19.424999708290098
 30
0.0
 40
1.0
 50
89.999999999947889
 51
148.6000000018426
  0
ARC
  5
242
  8
0
 10
8.9588513790877187
 20
20.224999708287331
 30
0.0
 40
0.2000000000025466
 50
180.00000000006511
 51
211.39551097245311
  0
LINE
  5
243
  8
0
 10
43.035083424994809
 20
20.424999708288741
 30
0.0
 11
41.621706793311198
 21
20.424999708290098
 31
0.0
  0
LINE
  5
244
  8
0
 10
8.7881330561094728
 20
20.120811157090309
 30
0.0
 11
9.7149288635491757
 21
18.602208353120542
 31
0.0
  0
ARC
  5
245
  8
0
 10
43.035083424995712
 20
20.224999708288919
 30
0.0
 40
0.1999999999998181
 50
0.0000000005211021
 51
90.000000000260556
  0
ARC
  5
246
  8
0
 10
9.4588513790858997
 20
18.44592552632718
 30
0.0
 40
0.2999999999992704
 50
0.0000000001737007
 51
31.395510972508148
  0
ARC
  5
247
  8
0
 10
43.035083424992081
 20
20.224999708290959
 30
0.0
 40
0.2000000000033691
 50
328.60448902768269
 51
359.99999999993491
  0
LINE
  5
248
  8
0
 10
9.7588513790851721
 20
18.4459255263281
 30
0.0
 11
9.7588513790851721
 21
18.224999708285281
 31
0.0
  0
LINE
  5
249
  8
0
 10
42.279005940531533
 20
18.60220835312418
 30
0.0
 11
43.205801747971229
 21
20.120811157093961
 31
0.0
  0
ARC
  5
24A
  8
0
 10
9.4588513790886282
 20
18.224999708283459
 30
0.0
 40
0.2999999999965439
 50
269.99999999930509
 51
0.0000000003474021
  0
ARC
  5
24B
  8
0
 10
42.535083424994809
 20
18.445925526330821
 30
0.0
 40
0.2999999999992724
 50
148.60448902749181
 51
179.99999999982629
  0
LINE
  5
24C
  8
0
 10
9.4588513790849902
 20
17.924999708286919
 30
0.0
 11
5.4060649745888441
 21
17.924999708284869
 31
0.0
  0
LINE
  5
24D
  8
0
 10
42.23508342499553
 20
18.224999708288919
 30
0.0
 11
42.23508342499553
 21
18.445925526331731
 31
0.0
  0
ARC
  5
24E
  8
0
 10
5.4060649745897527
 20
17.624999708273769
 30
0.0
 40
0.3000000000110958
 50
90.000000000173699
 51
138.18968510423781
  0
ARC
  5
24F
  8
0
 10
42.534568033995129
 20
18.22448431728856
 30
0.0
 40
0.2994850524735972
 50
179.90139827196171
 51
270.09860172808197
  0
ARC
  5
250
  8
0
 10
4.9588513790849902
 20
18.02499970828546
 30
0.0
 40
0.3000000000002949
 50
269.99999999913149
 51
318.18968510315318
  0
LINE
  5
251
  8
0
 10
46.587869829493677
 20
17.92499970828851
 30
0.0
 11
42.535083424995712
 21
17.924999708289651
 31
0.0
  0
ARC
  5
252
  8
0
 10
4.9588513790840798
 20
18.024999708284099
 30
0.0
 40
0.2999999999988176
 50
179.99999999956569
 51
269.99999999930509
  0
ARC
  5
253
  8
0
 10
46.587869829491872
 20
17.624999708279692
 30
0.0
 40
0.3000000000088844
 50
41.81031489555432
 51
89.999999999652587
  0
LINE
  5
254
  8
0
 10
4.6588513790848083
 20
18.024999708286369
 30
0.0
 11
4.6588513790848083
 21
18.185503959011719
 31
0.0
  0
ARC
  5
255
  8
0
 10
47.035083424995719
 20
18.02499970828887
 30
0.0
 40
0.3000000000001819
 50
221.8103148968145
 51
270.00000000086851
  0
ARC
  5
256
  8
0
 10
4.9588513790777142
 20
18.185503959009448
 30
0.0
 40
0.2999999999929059
 50
164.99999999955301
 51
179.99999999956569
  0
ARC
  5
257
  8
0
 10
47.035083424996621
 20
18.02499970828751
 30
0.0
 40
0.2999999999992724
 50
270.0000000006948
 51
0.0000000004776179
  0
LINE
  5
258
  8
0
 10
4.6690736311984429
 20
18.263149672540631
 30
0.0
 11
5.2001339395446839
 21
20.24509372517139
 31
0.0
  0
LINE
  5
259
  8
0
 10
47.335083424995901
 20
18.18550395901536
 30
0.0
 11
47.335083424995901
 21
18.024999708290011
 31
0.0
  0
ARC
  5
25A
  8
0
 10
5.3933191048008657
 20
20.19332991615067
 30
0.0
 40
0.1999999999984778
 50
104.9999999998473
 51
164.9999999998212
  0
ARC
  5
25B
  8
0
 10
47.035083425002078
 20
18.18550395901309
 30
0.0
 40
0.2999999999937928
 50
0.0000000004342517
 51
15.00000000040203
  0
LINE
  5
25C
  8
0
 10
5.3415552957812897
 20
20.386515081407079
 30
0.0
 11
5.5106151881027472
 21
20.43181454302578
 31
0.0
  0
LINE
  5
25D
  8
0
 10
46.793800864536017
 20
20.245093725175028
 30
0.0
 11
47.324861172882258
 21
18.263149672544269
 31
0.0
  0
ARC
  5
25E
  8
0
 10
5.4588513790840798
 20
20.624999708284921
 30
0.0
 40
0.2000000000008033
 50
284.99999999939331
 51
344.9999999990124
  0
ARC
  5
25F
  8
0
 10
46.600615699279842
 20
20.193329916154308
 30
0.0
 40
0.1999999999984031
 50
15.000000000178749
 51
75.000000000152696
  0
ARC
  5
260
  8
0
 10
5.4588513790868092
 20
20.624999708283099
 30
0.0
 40
0.1999999999980112
 50
344.99999999931339
 51
0.0000000005211032
  0
LINE
  5
261
  8
0
 10
46.483319615977962
 20
20.431814543029649
 30
0.0
 11
46.652379508299418
 21
20.386515081410721
 31
0.0
  0
ARC
  5
262
  8
0
 10
5.4588513790831712
 20
20.624999708285831
 30
0.0
 40
0.2000000000016371
 50
359.99999999973937
 51
44.999999999631491
  0
ARC
  5
263
  8
0
 10
46.535083424995719
 20
20.624999708288328
 30
0.0
 40
0.2000000000001801
 50
195.0000000009922
 51
255.0000000008246
  0
LINE
  5
264
  8
0
 10
5.6002727353225046
 20
20.766421064523339
 30
0.0
 11
5.2365196621240102
 21
21.130174137720928
 31
0.0
  0
ARC
  5
265
  8
0
 10
46.535083424995719
 20
20.62499970828674
 30
0.0
 40
0.1999999999998181
 50
179.99999999947889
 51
195.00000000055169
  0
ARC
  5
266
  8
0
 10
5.0243876277645541
 20
20.918042103364431
 30
0.0
 40
0.3000000000028482
 50
44.999999999600817
 51
84.999999999445578
  0
ARC
  5
267
  8
0
 10
46.535083424997538
 20
20.624999708289462
 30
0.0
 40
0.2000000000015772
 50
135.00000000036849
 51
180.00000000026051
  0
LINE
  5
268
  8
0
 10
5.0505343505919882
 20
21.216900512794499
 30
0.0
 11
2.684998101911332
 21
21.42385811771226
 31
0.0
  0
LINE
  5
269
  8
0
 10
46.757415141956699
 20
21.13017413772457
 30
0.0
 11
46.393662068758204
 21
20.76642106452698
 31
0.0
  0
ARC
  5
26A
  8
0
 10
2.6588513790829889
 20
21.124999708279461
 30
0.0
 40
0.3000000000056051
 50
84.999999999317936
 51
89.999999999305217
  0
ARC
  5
26B
  8
0
 10
46.969547176315238
 20
20.918042103367839
 30
0.0
 40
0.3000000000025019
 50
95.000000000385199
 51
135.00000000024571
  0
ARC
  5
26C
  8
0
 10
2.6588513790857169
 20
21.124999708284921
 30
0.0
 40
0.3000000000001819
 50
89.999999999826301
 51
179.99999999947889
  0
LINE
  5
26D
  8
0
 10
49.308936702169383
 20
21.423858117715891
 30
0.0
 11
46.943400453488721
 21
21.216900512797679
 31
0.0
  0
ARC
  5
26E
  8
0
 10
2.6401084581966638
 20
21.121740204575989
 30
0.0
 40
0.2812759657606207
 50
179.33602579380801
 51
200.2803094072527
  0
ARC
  5
26F
  8
0
 10
49.33508342499772
 20
21.124999708283099
 30
0.0
 40
0.3000000000056389
 50
90.000000000694797
 51
95.000000000682064
  0
LINE
  5
270
  8
0
 10
2.376269321418476
 20
21.024246210818891
 30
0.0
 11
2.8904449034671411
 21
19.611560409505611
 31
0.0
  0
ARC
  5
271
  8
0
 10
49.335083424994991
 20
21.124999708288559
 30
0.0
 40
0.3000000000001819
 50
0.0000000005211021
 51
90.000000000173699
  0
ARC
  5
272
  8
0
 10
3.1723526897076222
 20
19.714166452503719
 30
0.0
 40
0.3000000000045627
 50
199.99999999976481
 51
259.09571672269738
  0
ARC
  5
273
  8
0
 10
49.353826345884961
 20
21.12174020457962
 30
0.0
 40
0.2812759657597649
 50
339.71969059268309
 51
0.6639742061942222
  0
ARC
  5
274
  8
0
 10
3.058851379084444
 20
19.124999708284911
 30
0.0
 40
0.3000000000002779
 50
0.0
 51
79.095716722516642
  0
LINE
  5
275
  8
0
 10
49.103489900613567
 20
19.61156040950948
 30
0.0
 11
49.617665482662233
 21
21.024246210822529
 31
0.0
  0
LINE
  5
276
  8
0
 10
3.3588513790846259
 20
19.124999708284911
 30
0.0
 11
3.3588513790846259
 21
18.19499970828485
 31
0.0
  0
ARC
  5
277
  8
0
 10
48.82158211437126
 20
19.714166452507129
 30
0.0
 40
0.3000000000055338
 50
280.90428327764369
 51
340.00000000043548
  0
ARC
  5
278
  8
0
 10
3.058851379084444
 20
18.19499970828485
 30
0.0
 40
0.3
 50
270.0
 51
0.0
  0
ARC
  5
279
  8
0
 10
48.935083424996257
 20
19.124999708288328
 30
0.0
 40
0.3000000000001819
 50
100.9042832774833
 51
180.0000000000434
  0
LINE
  5
27A
  8
0
 10
3.058851379084444
 20
17.894999708284899
 30
0.0
 11
0.3000006252805178
 21
17.894999708284669
 31
0.0
  0
LINE
  5
27B
  8
0
 10
48.635083424996083
 20
19.124999708288101
 30
0.0
 11
48.635083424996083
 21
18.194999708288041
 31
0.0
  0
ARC
  5
27C
  8
0
 10
0.3000006252805178
 20
17.59499970828471
 30
0.0
 40
0.3
 50
90.0
 51
180.0000000000434
  0
ARC
  5
27D
  8
0
 10
48.935083424996257
 20
18.194999708288041
 30
0.0
 40
0.3
 50
180.0
 51
270.0
  0
LINE
  5
27E
  8
0
 10
0.0000006252876119
 20
6.7999997082957861
 30
0.0
 11
0.0000006252794265
 21
17.59499970828449
 31
0.0
  0
LINE
  5
27F
  8
0
 10
51.700000625312903
 20
17.894999708286939
 30
0.0
 11
48.935083424996257
 21
17.894999708288079
 31
0.0
  0
ARC
  5
280
  8
0
 10
0.3000006252877938
 20
6.7999997082960126
 30
0.0
 40
0.3
 50
180.0000000000434
 51
270.0
  0
ARC
  5
281
  8
0
 10
51.700000625312903
 20
17.594999708286991
 30
0.0
 40
0.3
 50
0.0000000000868503
 51
90.0
  0
LINE
  5
282
  8
0
 10
0.3000006252877938
 20
6.4999997082960581
 30
0.0
 11
9.5000813634842416
 21
6.4999997082952632
 31
0.0
  0
LINE
  5
283
  8
0
 10
52.000000625313078
 20
17.594999708287439
 30
0.0
 11
52.000000625317632
 21
12.599999708261629
 31
0.0
  0
ARC
  5
284
  8
0
 10
9.5000813634842416
 20
2.599999708295285
 30
0.0
 40
3.8999999999999999
 50
0.0
 51
90.0
  0
ARC
  5
285
  8
0
 10
52.300000625316898
 20
12.599999708262089
 30
0.0
 40
0.3
 50
180.0000000000868
 51
270.00000000034743
  0
LINE
  5
286
  8
0
 10
13.400081363484791
 20
2.599999708295285
 30
0.0
 11
13.40008136348388
 21
2.2999997082748669
 31
0.0
  0
LINE
  5
287
  8
0
 10
52.30000062531871
 20
12.29999970826213
 30
0.0
 11
53.150000625293607
 21
12.29999970826827
 31
0.0
  0
ARC
  5
288
  8
0
 10
13.100081363483691
 20
2.2999997082748669
 30
0.0
 40
0.3
 50
269.99999999965257
 51
0.0
  0
ARC
  5
289
  8
0
 10
53.150000625295426
 20
12.04999970826827
 30
0.0
 40
0.25
 50
359.99999999937472
 51
90.000000000416875
  0
LINE
  5
28A
  8
0
 10
11.200000625267419
 20
1.999999708288783
 30
0.0
 11
13.10008136348187
 21
1.999999708274913
 31
0.0
  0
LINE
  5
28B
  8
0
 10
53.400000625295441
 20
12.04999970826554
 30
0.0
 11
53.400000625288151
 21
11.54999970825099
 31
0.0
  0
ARC
  5
28C
  8
0
 10
11.200000625264691
 20
1.6999997082888281
 30
0.0
 40
0.3
 50
89.999999999478902
 51
180.0
  0
ARC
  5
28D
  8
0
 10
53.150000625288158
 20
11.54999970825326
 30
0.0
 40
0.25
 50
270.00000000041689
 51
359.99999999947892
  0
LINE
  5
28E
  8
0
 10
10.90000062526542
 20
0.299999708293285
 30
0.0
 11
10.900000625264511
 21
1.6999997082888281
 31
0.0
  0
LINE
  5
28F
  8
0
 10
53.150000625289977
 20
11.29999970825326
 30
0.0
 11
52.300000625333269
 21
11.29999970824894
 31
0.0
  0
ARC
  5
290
  8
0
 10
11.2000006252656
 20
0.299999708293285
 30
0.0
 40
0.3
 50
180.0
 51
270.0
  0
ARC
  5
291
  8
0
 10
52.300000625335088
 20
10.999999708248991
 30
0.0
 40
0.3
 50
90.000000000347399
 51
179.9999999990446
  0
LINE
  5
292
  8
0
 10
68.800000625229586
 20
-0.0000002916968924
 30
0.0
 11
11.2000006252656
 21
-0.0000002917066695
 31
0.0
  0
LINE
  5
293
  8
0
 10
52.000000625334899
 20
10.99999970825399
 30
0.0
 11
52.000000625319451
 21
10.099999708273909
 31
0.0
  0
ARC
  5
294
  8
0
 10
68.800000625229586
 20
9.9999997083031076
 30
0.0
 40
10.0
 50
270.0
 51
351.76572104723817
  0
ARC
  5
295
  8
0
 10
52.30000062531871
 20
10.099999708268911
 30
0.0
 40
0.3
 50
179.9999999990446
 51
269.99999999687338
  0
ARC
  5
296
  8
0
 10
78.40000062522995
 20
8.6107553094080913
 30
0.0
 40
0.3
 50
351.76572104723232
 51
0.0
  0
LINE
  5
297
  8
0
 10
52.300000625302339
 20
9.7999997082689561
 30
0.0
 11
53.150000625317261
 21
9.7999997082218897
 31
0.0
  0
LINE
  5
298
  8
0
 10
78.700000625230132
 20
11.999999708301059
 30
0.0
 11
78.700000625229222
 21
8.6107553094080913
 31
0.0
  0
ARC
  5
299
  8
0
 10
53.150000625304529
 20
9.5499997082218897
 30
0.0
 40
0.25
 50
0.0000000004168817
 51
89.999999997081829
  0
ARC
  5
29A
  8
0
 10
78.40000062522995
 20
11.999999708301059
 30
0.0
 40
0.3
 50
0.0
 51
90.0
  0
LINE
  5
29B
  8
0
 10
53.400000625304529
 20
9.5499997082237087
 30
0.0
 11
53.40000062530634
 21
9.049999708296923
 31
0.0
  0
LINE
  5
29C
  8
0
 10
76.600000625223402
 20
12.299999708300559
 30
0.0
 11
78.40000062522995
 21
12.29999970830101
 31
0.0
  0
ARC
  5
29D
  8
0
 10
53.150000625306348
 20
9.049999708295104
 30
0.0
 40
0.2500000000000001
 50
270.0
 51
0.0000000004168665
  0
ARC
  5
29E
  8
0
 10
76.600000625223402
 20
11.599999708288919
 30
0.0
 40
0.7000000000116418
 50
90.0
 51
180.00000000416881
  0
LINE
  5
29F
  8
0
 10
53.150000625306348
 20
8.799999708295104
 30
0.0
 11
52.300000625344182
 21
8.7999997083007884
 31
0.0
  0
LINE
  5
2A0
  8
0
 10
75.900000625225402
 20
11.399999708306829
 30
0.0
 11
75.90000062521176
 21
11.59999970823799
 31
0.0
  0
ARC
  5
2A1
  8
0
 10
52.300000625342363
 20
8.4999997083008338
 30
0.0
 40
0.3
 50
89.999999999652587
 51
180.0
  0
ARC
  5
2A2
  8
0
 10
76.000000625223038
 20
11.39999970828319
 30
0.0
 40
0.0999999999976354
 50
179.99999998645129
 51
270.00000000104222
  0
LINE
  5
2A3
  8
0
 10
52.000000625342182
 20
8.4999997083008338
 30
0.0
 11
52.000000625348541
 21
2.2999997082437171
 31
0.0
  0
LINE
  5
2A4
  8
0
 10
77.000000625217581
 20
11.29999970829919
 30
0.0
 11
76.000000625224857
 21
11.299999708285551
 31
0.0
  0
ARC
  5
2A5
  8
0
 10
52.300000625349639
 20
2.2999997082441719
 30
0.0
 40
0.3
 50
180.0000000000868
 51
270.0
  0
ARC
  5
2A6
  8
0
 10
77.000000625210305
 20
10.799999708288739
 30
0.0
 40
0.5000000000104592
 50
0.0000000009379837
 51
89.999999999166235
  0
LINE
  5
2A7
  8
0
 10
52.300000625349639
 20
1.9999997082442169
 30
0.0
 11
68.807572039899242
 21
1.999999708290829
 31
0.0
  0
LINE
  5
2A8
  8
0
 10
77.500000625228495
 20
10.29999970831147
 30
0.0
 11
77.500000625221219
 21
10.799999708296919
 31
0.0
  0
ARC
  5
2A9
  8
0
 10
68.807572039875595
 20
9.9999997082908294
 30
0.0
 40
8.0
 50
270.00000000016928
 51
348.76665615748709
  0
ARC
  5
2AA
  8
0
 10
77.000000625224857
 20
10.299999708304201
 30
0.0
 40
0.5000000000036382
 50
270.00000000083378
 51
0.0000000008337331
  0
ARC
  5
2AB
  8
0
 10
76.360055075227137
 20
8.4999997083517655
 30
0.0
 40
0.3
 50
348.7666561574581
 51
90.000000000347399
  0
LINE
  5
2AC
  8
0
 10
70.300000625227767
 20
9.7999997082996515
 30
0.0
 11
77.000000625232133
 21
9.7999997083005592
 31
0.0
  0
LINE
  5
2AD
  8
0
 10
76.360055075225318
 20
8.7999997083517201
 30
0.0
 11
67.350000625241591
 21
8.7999997082971504
 31
0.0
  0
ARC
  5
2AE
  8
0
 10
70.300000625231405
 20
10.299999708304201
 30
0.0
 40
0.5000000000045474
 50
180.00000000052111
 51
269.99999999958311
  0
ARC
  5
2AF
  8
0
 10
67.350000625241591
 20
9.049999708296923
 30
0.0
 40
0.2499999999997726
 50
179.99999999958311
 51
270.0
  0
LINE
  5
2B0
  8
0
 10
69.800000625220491
 20
10.79999970829965
 30
0.0
 11
69.800000625227753
 21
10.29999970829965
 31
0.0
  0
LINE
  5
2B1
  8
0
 10
67.100000625241591
 20
9.049999708298742
 30
0.0
 11
67.10000062524341
 21
9.5499997082996515
 31
0.0
  0
ARC
  5
2B2
  8
0
 10
70.300000625220491
 20
10.79999970829965
 30
0.0
 40
0.5
 50
90.0
 51
180.0
  0
ARC
  5
2B3
  8
0
 10
67.35000062524341
 20
9.549999708298742
 30
0.0
 40
0.25
 50
90.0
 51
179.9999999997915
  0
LINE
  5
2B4
  8
0
 10
71.300000625220491
 20
11.299999708300099
 30
0.0
 11
70.300000625220491
 21
11.29999970829965
 31
0.0
  0
LINE
  5
2B5
  8
0
 10
67.35000062524341
 20
9.799999708298742
 30
0.0
 11
68.300000625244138
 21
9.7999997082971504
 31
0.0
  0
ARC
  5
2B6
  8
0
 10
71.300000625231405
 20
11.39999970829501
 30
0.0
 40
0.0999999999949069
 50
269.99999999374671
 51
0.0000000023449243
  0
ARC
  5
2B7
  8
0
 10
68.300000625244138
 20
10.0999997082971
 30
0.0
 40
0.3
 50
270.0
 51
0.0000000003474021
  0
LINE
  5
2B8
  8
0
 10
71.400000625219036
 20
11.599999708277551
 30
0.0
 11
71.400000625226312
 21
11.3999997082991
 31
0.0
  0
LINE
  5
2B9
  8
0
 10
68.60000062524432
 20
10.09999970829892
 30
0.0
 11
68.600000625239772
 21
10.99999970824717
 31
0.0
  0
ARC
  5
2BA
  8
0
 10
70.700000625218308
 20
11.599999708295741
 30
0.0
 40
0.7000000000007282
 50
359.9999999985111
 51
90.0
  0
ARC
  5
2BB
  8
0
 10
68.300000625238681
 20
10.9999997082449
 30
0.0
 40
0.3
 50
0.0000000004342517
 51
90.0
  0
LINE
  5
2BC
  8
0
 10
67.350000625252505
 20
12.29999970830602
 30
0.0
 11
70.700000625218308
 21
12.29999970829647
 31
0.0
  0
LINE
  5
2BD
  8
0
 10
68.300000625238681
 20
11.299999708244849
 30
0.0
 11
67.350000625248853
 21
11.29999970824599
 31
0.0
  0
ARC
  5
2BE
  8
0
 10
67.350000625250686
 20
12.04999970830602
 30
0.0
 40
0.25
 50
89.999999999583125
 51
179.99999999958311
  0
ARC
  5
2BF
  8
0
 10
67.350000625248853
 20
11.54999970824599
 30
0.0
 40
0.25
 50
179.99999999958311
 51
270.0
  0
LINE
  5
2C0
  8
0
 10
67.100000625248867
 20
11.54999970824781
 30
0.0
 11
67.100000625250686
 21
12.04999970830783
 31
0.0
  0
ENDBLK
  5
2C2
  8
0
  0
ENDSEC
  0
SECTION
  2
ENTITIES
  0
ARC
  5
9F
  8
0
 10
640.08904540209323
 20
606.57842969319574
 30
0.0
 40
1.0
 50
211.79228071937729
 51
270.0
  0
LINE
  5
A0
  8
0
 10
639.23908172171866
 20
606.05158840585739
 30
0.0
 11
638.27966217272979
 21
607.5994393250636
 31
0.0
  0
LINE
  5
A1
  8
0
 10
666.01998870021305
 20
605.57842969319586
 30
0.0
 11
640.08904540209323
 21
605.57842969319574
 31
0.0
  0
ARC
  5
A2
  8
0
 10
637.42611137547328
 20
607.07842969319233
 30
0.0
 40
1.0
 50
31.400000002062811
 51
90.000000000052125
  0
ARC
  5
A3
  8
0
 10
666.01998870021305
 20
606.57842969319586
 30
0.0
 40
1.0
 50
270.0
 51
328.20771928446158
  0
LINE
  5
A4
  8
0
 10
637.42611137547226
 20
608.07842969319233
 30
0.0
 11
636.02006731246775
 21
608.0784296931912
 31
0.0
  0
LINE
  5
A5
  8
0
 10
667.82937192940017
 20
607.59943932500914
 30
0.0
 11
666.86995238062309
 21
606.05158840591434
 31
0.0
  0
ARC
  5
A6
  8
0
 10
636.02006731246684
 20
607.87842969319138
 30
0.0
 40
0.1999999999998181
 50
89.999999999739444
 51
179.99999999947889
  0
ARC
  5
A7
  8
0
 10
668.68292272669214
 20
607.0784296931962
 30
0.0
 40
1.0
 50
89.999999999947889
 51
148.6000000018426
  0
ARC
  5
A8
  8
0
 10
636.02006731246945
 20
607.87842969319343
 30
0.0
 40
0.2000000000025466
 50
180.00000000006511
 51
211.39551097245311
  0
LINE
  5
A9
  8
0
 10
670.09629935837665
 20
608.07842969319483
 30
0.0
 11
668.68292272669305
 21
608.0784296931962
 31
0.0
  0
LINE
  5
AA
  8
0
 10
635.84934898949132
 20
607.77424114199641
 30
0.0
 11
636.77614479693102
 21
606.25563833802664
 31
0.0
  0
ARC
  5
AB
  8
0
 10
670.09629935837745
 20
607.8784296931949
 30
0.0
 40
0.1999999999998181
 50
0.0000000005211021
 51
90.000000000260556
  0
ARC
  5
AC
  8
0
 10
636.52006731246775
 20
606.09935551123317
 30
0.0
 40
0.2999999999992704
 50
0.0000000001737007
 51
31.395510972508148
  0
ARC
  5
AD
  8
0
 10
670.09629935837393
 20
607.87842969319706
 30
0.0
 40
0.2000000000033691
 50
328.60448902768269
 51
359.99999999993491
  0
LINE
  5
AE
  8
0
 10
636.82006731246702
 20
606.09935551123408
 30
0.0
 11
636.82006731246702
 21
605.87842969319126
 31
0.0
  0
LINE
  5
AF
  8
0
 10
669.34022187391338
 20
606.25563833803028
 30
0.0
 11
670.26701768135308
 21
607.77424114200005
 31
0.0
  0
ARC
  5
B0
  8
0
 10
636.52006731247047
 20
605.87842969318956
 30
0.0
 40
0.2999999999965439
 50
269.99999999930509
 51
0.0000000003474021
  0
ARC
  5
B1
  8
0
 10
669.59629935837665
 20
606.09935551123692
 30
0.0
 40
0.2999999999992724
 50
148.60448902749181
 51
179.99999999982629
  0
LINE
  5
B2
  8
0
 10
636.52006731246684
 20
605.57842969319302
 30
0.0
 11
632.46728090797058
 21
605.57842969319097
 31
0.0
  0
LINE
  5
B3
  8
0
 10
669.29629935837738
 20
605.87842969319502
 30
0.0
 11
669.29629935837738
 21
606.09935551123783
 31
0.0
  0
ARC
  5
B4
  8
0
 10
632.46728090797149
 20
605.27842969317987
 30
0.0
 40
0.3000000000110958
 50
90.000000000173699
 51
138.18968510423781
  0
ARC
  5
B5
  8
0
 10
669.59578396737686
 20
605.87791430219465
 30
0.0
 40
0.2994850524735972
 50
179.90139827196171
 51
270.09860172808197
  0
ARC
  5
B6
  8
0
 10
632.02006731246684
 20
605.67842969319145
 30
0.0
 40
0.3000000000002949
 50
269.99999999913149
 51
318.18968510315318
  0
LINE
  5
B7
  8
0
 10
673.64908576287553
 20
605.57842969319461
 30
0.0
 11
669.59629935837745
 21
605.57842969319574
 31
0.0
  0
ARC
  5
B8
  8
0
 10
632.02006731246593
 20
605.67842969319008
 30
0.0
 40
0.2999999999988176
 50
179.99999999956569
 51
269.99999999930509
  0
ARC
  5
B9
  8
0
 10
673.64908576287371
 20
605.27842969318567
 30
0.0
 40
0.3000000000088844
 50
41.81031489555432
 51
89.999999999652587
  0
LINE
  5
BA
  8
0
 10
631.72006731246665
 20
605.67842969319236
 30
0.0
 11
631.72006731246665
 21
605.83893394391782
 31
0.0
  0
ARC
  5
BB
  8
0
 10
674.09629935837745
 20
605.67842969319486
 30
0.0
 40
0.3000000000001819
 50
221.8103148968145
 51
270.00000000086851
  0
ARC
  5
BC
  8
0
 10
632.02006731245945
 20
605.83893394391555
 30
0.0
 40
0.2999999999929059
 50
164.99999999955301
 51
179.99999999956569
  0
ARC
  5
BD
  8
0
 10
674.09629935837836
 20
605.67842969319361
 30
0.0
 40
0.2999999999992724
 50
270.0000000006948
 51
0.0000000004776179
  0
LINE
  5
BE
  8
0
 10
631.73028956458018
 20
605.91657965744673
 30
0.0
 11
632.26134987292653
 21
607.89852371007737
 31
0.0
  0
LINE
  5
BF
  8
0
 10
674.39629935837775
 20
605.83893394392135
 30
0.0
 11
674.39629935837775
 21
605.67842969319611
 31
0.0
  0
ARC
  5
C0
  8
0
 10
632.45453503818271
 20
607.84675990105677
 30
0.0
 40
0.1999999999984778
 50
104.9999999998473
 51
164.9999999998212
  0
ARC
  5
C1
  8
0
 10
674.09629935838393
 20
605.83893394391919
 30
0.0
 40
0.2999999999937928
 50
0.0000000004342517
 51
15.00000000040203
  0
LINE
  5
C2
  8
0
 10
632.40277122916314
 20
608.03994506631307
 30
0.0
 11
632.57183112148459
 21
608.08524452793188
 31
0.0
  0
LINE
  5
C3
  8
0
 10
673.85501679791787
 20
607.89852371008112
 30
0.0
 11
674.38607710626411
 21
605.91657965745037
 31
0.0
  0
ARC
  5
C4
  8
0
 10
632.52006731246593
 20
608.27842969319101
 30
0.0
 40
0.2000000000008033
 50
284.99999999939331
 51
344.9999999990124
  0
ARC
  5
C5
  8
0
 10
673.66183163266169
 20
607.84675990106041
 30
0.0
 40
0.1999999999984031
 50
15.000000000178749
 51
75.000000000152696
  0
ARC
  5
C6
  8
0
 10
632.52006731246865
 20
608.27842969318908
 30
0.0
 40
0.1999999999980112
 50
344.99999999931339
 51
0.0000000005211032
  0
LINE
  5
C7
  8
0
 10
673.54453554935981
 20
608.08524452793574
 30
0.0
 11
673.71359544168115
 21
608.03994506631682
 31
0.0
  0
ARC
  5
C8
  8
0
 10
632.5200673124649
 20
608.27842969319192
 30
0.0
 40
0.2000000000016371
 50
359.99999999973937
 51
44.999999999631491
  0
ARC
  5
C9
  8
0
 10
673.59629935837745
 20
608.27842969319443
 30
0.0
 40
0.2000000000001801
 50
195.0000000009922
 51
255.0000000008246
  0
LINE
  5
CA
  8
0
 10
632.66148866870435
 20
608.41985104942944
 30
0.0
 11
632.29773559550586
 21
608.78360412262703
 31
0.0
  0
ARC
  5
CB
  8
0
 10
673.59629935837745
 20
608.27842969319283
 30
0.0
 40
0.1999999999998181
 50
179.99999999947889
 51
195.00000000055169
  0
ARC
  5
CC
  8
0
 10
632.0856035611464
 20
608.57147208827053
 30
0.0
 40
0.3000000000028482
 50
44.999999999600817
 51
84.999999999445578
  0
ARC
  5
CD
  8
0
 10
673.59629935837927
 20
608.27842969319545
 30
0.0
 40
0.2000000000015772
 50
135.00000000036849
 51
180.00000000026051
  0
LINE
  5
CE
  8
0
 10
632.11175028397383
 20
608.87033049770059
 30
0.0
 11
629.74621403529318
 21
609.07728810261835
 31
0.0
  0
LINE
  5
CF
  8
0
 10
673.81863107533854
 20
608.78360412263066
 30
0.0
 11
673.45487800214005
 21
608.41985104943308
 31
0.0
  0
ARC
  5
D0
  8
0
 10
629.72006731246483
 20
608.77842969318556
 30
0.0
 40
0.3000000000056051
 50
84.999999999317936
 51
89.999999999305217
  0
ARC
  5
D1
  8
0
 10
674.03076310969698
 20
608.57147208827394
 30
0.0
 40
0.3000000000025019
 50
95.000000000385199
 51
135.00000000024571
  0
ARC
  5
D2
  8
0
 10
629.72006731246756
 20
608.77842969319101
 30
0.0
 40
0.3000000000001819
 50
89.999999999826301
 51
179.99999999947889
  0
LINE
  5
D3
  8
0
 10
676.37015263555122
 20
609.07728810262199
 30
0.0
 11
674.00461638687045
 21
608.87033049770378
 31
0.0
  0
ARC
  5
D4
  8
0
 10
629.70132439157851
 20
608.77517018948208
 30
0.0
 40
0.2812759657606207
 50
179.33602579380801
 51
200.2803094072527
  0
ARC
  5
D5
  8
0
 10
676.39629935837945
 20
608.7784296931892
 30
0.0
 40
0.3000000000056389
 50
90.000000000694797
 51
95.000000000682064
  0
LINE
  5
D6
  8
0
 10
629.43748525480032
 20
608.67767619572487
 30
0.0
 11
629.95166083684899
 21
607.26499039441171
 31
0.0
  0
ARC
  5
D7
  8
0
 10
676.39629935837684
 20
608.77842969319465
 30
0.0
 40
0.3000000000001819
 50
0.0000000005211021
 51
90.000000000173699
  0
ARC
  5
D8
  8
0
 10
630.23356862308935
 20
607.36759643740982
 30
0.0
 40
0.3000000000045627
 50
199.99999999976481
 51
259.09571672269738
  0
ARC
  5
D9
  8
0
 10
676.4150422792668
 20
608.77517018948572
 30
0.0
 40
0.2812759657597649
 50
339.71969059268309
 51
0.6639742061942222
  0
ARC
  5
DA
  8
0
 10
630.12006731246629
 20
606.77842969319101
 30
0.0
 40
0.3000000000002779
 50
0.0
 51
79.095716722516642
  0
LINE
  5
DB
  8
0
 10
676.16470583399541
 20
607.26499039441558
 30
0.0
 11
676.67888141604408
 21
608.67767619572862
 31
0.0
  0
LINE
  5
DC
  8
0
 10
630.42006731246647
 20
606.77842969319101
 30
0.0
 11
630.42006731246647
 21
605.84842969319095
 31
0.0
  0
ARC
  5
DD
  8
0
 10
675.88279804775311
 20
607.36759643741323
 30
0.0
 40
0.3000000000055338
 50
280.90428327764369
 51
340.00000000043548
  0
ARC
  5
DE
  8
0
 10
630.12006731246629
 20
605.84842969319095
 30
0.0
 40
0.3
 50
270.0
 51
0.0
  0
ARC
  5
DF
  8
0
 10
675.99629935837811
 20
606.77842969319443
 30
0.0
 40
0.3000000000001819
 50
100.9042832774833
 51
180.0000000000434
  0
LINE
  5
E0
  8
0
 10
630.12006731246629
 20
605.548429693191
 30
0.0
 11
627.36121655866225
 21
605.54842969319077
 31
0.0
  0
LINE
  5
E1
  8
0
 10
675.69629935837793
 20
606.77842969319408
 30
0.0
 11
675.69629935837793
 21
605.84842969319413
 31
0.0
  0
ARC
  5
E2
  8
0
 10
627.36121655866225
 20
605.24842969319081
 30
0.0
 40
0.3
 50
90.0
 51
180.0000000000434
  0
ARC
  5
E3
  8
0
 10
675.99629935837811
 20
605.84842969319413
 30
0.0
 40
0.3
 50
180.0
 51
270.0
  0
LINE
  5
E4
  8
0
 10
627.06121655866934
 20
594.45342969320177
 30
0.0
 11
627.06121655866116
 21
605.24842969319059
 31
0.0
  0
LINE
  5
E5
  8
0
 10
678.76121655869474
 20
605.54842969319304
 30
0.0
 11
675.99629935837811
 21
605.54842969319418
 31
0.0
  0
ARC
  5
E6
  8
0
 10
627.36121655866964
 20
594.45342969320211
 30
0.0
 40
0.3
 50
180.0000000000434
 51
270.0
  0
ARC
  5
E7
  8
0
 10
678.76121655869474
 20
605.24842969319309
 30
0.0
 40
0.3
 50
0.0000000000868503
 51
90.0
  0
LINE
  5
E8
  8
0
 10
627.36121655866964
 20
594.15342969320216
 30
0.0
 11
636.56129729686597
 21
594.15342969320125
 31
0.0
  0
LINE
  5
E9
  8
0
 10
679.06121655869492
 20
605.24842969319354
 30
0.0
 11
679.06121655869947
 21
600.25342969316773
 31
0.0
  0
ARC
  5
EA
  8
0
 10
636.56129729686597
 20
590.25342969320138
 30
0.0
 40
3.8999999999999999
 50
0.0
 51
90.0
  0
ARC
  5
EB
  8
0
 10
679.36121655869874
 20
600.25342969316807
 30
0.0
 40
0.3
 50
180.0000000000868
 51
270.00000000034743
  0
LINE
  5
EC
  8
0
 10
640.46129729686663
 20
590.25342969320138
 30
0.0
 11
640.46129729686561
 21
589.95342969318085
 31
0.0
  0
LINE
  5
ED
  8
0
 10
679.36121655870045
 20
599.95342969316823
 30
0.0
 11
680.21121655867546
 21
599.95342969317426
 31
0.0
  0
ARC
  5
EE
  8
0
 10
640.16129729686554
 20
589.95342969318085
 30
0.0
 40
0.3
 50
269.99999999965257
 51
0.0
  0
ARC
  5
EF
  8
0
 10
680.21121655867717
 20
599.70342969317437
 30
0.0
 40
0.25
 50
359.99999999937472
 51
90.000000000416875
  0
LINE
  5
F0
  8
0
 10
638.26121655864915
 20
589.65342969319488
 30
0.0
 11
640.16129729686372
 21
589.65342969318101
 31
0.0
  0
LINE
  5
F1
  8
0
 10
680.46121655867728
 20
599.70342969317164
 30
0.0
 11
680.46121655867
 21
599.20342969315709
 31
0.0
  0
ARC
  5
F2
  8
0
 10
638.26121655864654
 20
589.35342969319493
 30
0.0
 40
0.3
 50
89.999999999478902
 51
180.0
  0
ARC
  5
F3
  8
0
 10
680.21121655867
 20
599.20342969315925
 30
0.0
 40
0.25
 50
270.00000000041689
 51
359.99999999947892
  0
LINE
  5
F4
  8
0
 10
637.96121655864715
 20
587.95342969319938
 30
0.0
 11
637.96121655864636
 21
589.35342969319493
 31
0.0
  0
LINE
  5
F5
  8
0
 10
680.21121655867182
 20
598.95342969315925
 30
0.0
 11
679.36121655871511
 21
598.95342969315504
 31
0.0
  0
ARC
  5
F6
  8
0
 10
638.26121655864745
 20
587.95342969319938
 30
0.0
 40
0.3
 50
180.0
 51
270.0
  0
ARC
  5
F7
  8
0
 10
679.36121655871693
 20
598.65342969315509
 30
0.0
 40
0.3
 50
90.000000000347399
 51
179.9999999990446
  0
LINE
  5
F8
  8
0
 10
695.86121655861143
 20
587.65342969320909
 30
0.0
 11
638.26121655864745
 21
587.65342969319943
 31
0.0
  0
LINE
  5
F9
  8
0
 10
679.06121655871675
 20
598.65342969315998
 30
0.0
 11
679.06121655870118
 21
597.75342969318001
 31
0.0
  0
ARC
  5
FA
  8
0
 10
695.86121655861143
 20
597.6534296932092
 30
0.0
 40
10.0
 50
270.0
 51
351.76572104723817
  0
ARC
  5
FB
  8
0
 10
679.36121655870045
 20
597.75342969317501
 30
0.0
 40
0.3
 50
179.9999999990446
 51
269.99999999687338
  0
ARC
  5
FC
  8
0
 10
705.46121655861168
 20
596.26418529431419
 30
0.0
 40
0.3
 50
351.76572104723232
 51
0.0
  0
LINE
  5
FD
  8
0
 10
679.36121655868419
 20
597.45342969317505
 30
0.0
 11
680.21121655869911
 21
597.45342969312787
 31
0.0
  0
LINE
  5
FE
  8
0
 10
705.76121655861186
 20
599.65342969320704
 30
0.0
 11
705.76121655861095
 21
596.26418529431419
 31
0.0
  0
ARC
  5
FF
  8
0
 10
680.21121655868626
 20
597.20342969312799
 30
0.0
 40
0.25
 50
0.0000000004168817
 51
89.999999997081829
  0
ARC
  5
100
  8
0
 10
705.46121655861168
 20
599.65342969320704
 30
0.0
 40
0.3
 50
0.0
 51
90.0
  0
LINE
  5
101
  8
0
 10
680.46121655868626
 20
597.20342969312981
 30
0.0
 11
680.46121655868808
 21
596.70342969320302
 31
0.0
  0
LINE
  5
102
  8
0
 10
703.66121655860525
 20
599.95342969320666
 30
0.0
 11
705.46121655861168
 21
599.95342969320711
 31
0.0
  0
ARC
  5
103
  8
0
 10
680.21121655868819
 20
596.7034296932012
 30
0.0
 40
0.2500000000000001
 50
270.0
 51
0.0000000004168665
  0
ARC
  5
104
  8
0
 10
703.66121655860525
 20
599.25342969319502
 30
0.0
 40
0.7000000000116418
 50
90.0
 51
180.00000000416881
  0
LINE
  5
105
  8
0
 10
680.21121655868819
 20
596.45342969320109
 30
0.0
 11
679.36121655872603
 21
596.45342969320677
 31
0.0
  0
LINE
  5
106
  8
0
 10
702.96121655860725
 20
599.05342969321293
 30
0.0
 11
702.96121655859361
 21
599.25342969314408
 31
0.0
  0
ARC
  5
107
  8
0
 10
679.36121655872421
 20
596.15342969320693
 30
0.0
 40
0.3
 50
89.999999999652587
 51
180.0
  0
ARC
  5
108
  8
0
 10
703.06121655860488
 20
599.05342969318917
 30
0.0
 40
0.0999999999976354
 50
179.99999998645129
 51
270.00000000104222
  0
LINE
  5
109
  8
0
 10
679.06121655872403
 20
596.15342969320693
 30
0.0
 11
679.06121655873039
 21
589.95342969314981
 31
0.0
  0
LINE
  5
10A
  8
0
 10
704.06121655859943
 20
598.95342969320529
 30
0.0
 11
703.0612165586067
 21
598.95342969319165
 31
0.0
  0
ARC
  5
10B
  8
0
 10
679.36121655873137
 20
589.95342969315016
 30
0.0
 40
0.3
 50
180.0000000000868
 51
270.0
  0
ARC
  5
10C
  8
0
 10
704.06121655859215
 20
598.45342969319483
 30
0.0
 40
0.5000000000104592
 50
0.0000000009379837
 51
89.999999999166235
  0
LINE
  5
10D
  8
0
 10
679.36121655873137
 20
589.65342969315031
 30
0.0
 11
695.86878797328109
 21
589.65342969319693
 31
0.0
  0
LINE
  5
10E
  8
0
 10
704.56121655861034
 20
597.95342969321746
 30
0.0
 11
704.56121655860295
 21
598.45342969320302
 31
0.0
  0
ARC
  5
10F
  8
0
 10
695.86878797325744
 20
597.65342969319693
 30
0.0
 40
8.0
 50
270.00000000016928
 51
348.76665615748709
  0
ARC
  5
110
  8
0
 10
704.06121655860659
 20
597.9534296932103
 30
0.0
 40
0.5000000000036382
 50
270.00000000083378
 51
0.0000000008337331
  0
ARC
  5
111
  8
0
 10
703.42127100860887
 20
596.15342969325775
 30
0.0
 40
0.3
 50
348.7666561574581
 51
90.000000000347399
  0
LINE
  5
112
  8
0
 10
697.36121655860961
 20
597.45342969320575
 30
0.0
 11
704.06121655861386
 21
597.45342969320654
 31
0.0
  0
LINE
  5
113
  8
0
 10
703.42127100860705
 20
596.45342969325782
 30
0.0
 11
694.41121655862344
 21
596.45342969320325
 31
0.0
  0
ARC
  5
114
  8
0
 10
697.36121655861325
 20
597.9534296932103
 30
0.0
 40
0.5000000000045474
 50
180.00000000052111
 51
269.99999999958311
  0
ARC
  5
115
  8
0
 10
694.41121655862344
 20
596.70342969320302
 30
0.0
 40
0.2499999999997726
 50
179.99999999958311
 51
270.0
  0
LINE
  5
116
  8
0
 10
696.86121655860234
 20
598.45342969320575
 30
0.0
 11
696.86121655860961
 21
597.95342969320575
 31
0.0
  0
LINE
  5
117
  8
0
 10
694.16121655862344
 20
596.70342969320484
 30
0.0
 11
694.16121655862526
 21
597.20342969320575
 31
0.0
  0
ARC
  5
118
  8
0
 10
697.36121655860234
 20
598.45342969320575
 30
0.0
 40
0.5
 50
90.0
 51
180.0
  0
ARC
  5
119
  8
0
 10
694.41121655862526
 20
597.20342969320484
 30
0.0
 40
0.25
 50
90.0
 51
179.9999999997915
  0
LINE
  5
11A
  8
0
 10
698.36121655860234
 20
598.95342969320609
 30
0.0
 11
697.36121655860234
 21
598.95342969320575
 31
0.0
  0
LINE
  5
11B
  8
0
 10
694.41121655862526
 20
597.45342969320484
 30
0.0
 11
695.36121655862587
 21
597.45342969320325
 31
0.0
  0
ARC
  5
11C
  8
0
 10
698.36121655861325
 20
599.05342969320111
 30
0.0
 40
0.0999999999949069
 50
269.99999999374671
 51
0.0000000023449243
  0
ARC
  5
11D
  8
0
 10
695.36121655862587
 20
597.7534296932032
 30
0.0
 40
0.3
 50
270.0
 51
0.0000000003474021
  0
LINE
  5
11E
  8
0
 10
698.46121655860088
 20
599.25342969318365
 30
0.0
 11
698.46121655860804
 21
599.0534296932052
 31
0.0
  0
LINE
  5
11F
  8
0
 10
695.66121655862605
 20
597.75342969320491
 30
0.0
 11
695.66121655862162
 21
598.65342969315316
 31
0.0
  0
ARC
  5
120
  8
0
 10
697.76121655860015
 20
599.25342969320184
 30
0.0
 40
0.7000000000007282
 50
359.9999999985111
 51
90.0
  0
ARC
  5
121
  8
0
 10
695.36121655862053
 20
598.653429693151
 30
0.0
 40
0.3
 50
0.0000000004342517
 51
90.0
  0
LINE
  5
122
  8
0
 10
694.41121655863435
 20
599.95342969321212
 30
0.0
 11
697.76121655860015
 21
599.95342969320257
 31
0.0
  0
LINE
  5
123
  8
0
 10
695.36121655862053
 20
598.95342969315095
 30
0.0
 11
694.4112165586306
 21
598.95342969315209
 31
0.0
  0
ARC
  5
124
  8
0
 10
694.41121655863253
 20
599.703429693212
 30
0.0
 40
0.25
 50
89.999999999583125
 51
179.99999999958311
  0
ARC
  5
125
  8
0
 10
694.4112165586306
 20
599.20342969315209
 30
0.0
 40
0.25
 50
179.99999999958311
 51
270.0
  0
LINE
  5
126
  8
0
 10
694.16121655863071
 20
599.20342969315391
 30
0.0
 11
694.16121655863253
 21
599.70342969321393
 31
0.0
  0
LINE
  5
127
  8
0
 62
     0
 10
642.46129729572965
 20
589.95342969314891
 30
0.0
 11
642.46129729686572
 21
590.25342969320138
 31
0.0
  0
ARC
  5
128
  8
0
 62
     0
 10
642.76129729572995
 20
589.95342969314891
 30
0.0
 40
0.3
 50
180.0
 51
269.99999999982629
  0
ARC
  5
129
  8
0
 62
     0
 10
636.56129729686597
 20
590.25342969320138
 30
0.0
 40
5.9000000000000004
 50
0.0
 51
90.0
  0
LINE
  5
12A
  8
0
 62
     0
 10
676.76121655865563
 20
589.65342969313622
 30
0.0
 11
642.76129729572904
 21
589.6534296931784
 31
0.0
  0
LINE
  5
12B
  8
0
 62
     0
 10
629.36121655865315
 20
596.15342969320193
 30
0.0
 11
636.56129729686597
 21
596.15342969320136
 31
0.0
  0
ARC
  5
12C
  8
0
 62
     0
 10
676.76121655865563
 20
589.95342969313617
 30
0.0
 40
0.3
 50
270.0
 51
0.0000000000868905
  0
ARC
  5
12D
  8
0
 62
     0
 10
629.36121655865315
 20
596.45342969320211
 30
0.0
 40
0.3
 50
180.00000000026051
 51
270.0
  0
LINE
  5
12E
  8
0
 62
     0
 10
677.06121655865024
 20
594.35375642330848
 30
0.0
 11
677.06121655866025
 21
589.95342969313663
 31
0.0
  0
LINE
  5
12F
  8
0
 62
     0
 10
629.06121655865297
 20
596.45342969320075
 30
0.0
 11
629.06121655863296
 21
603.25342969319911
 31
0.0
  0
ARC
  5
130
  8
0
 62
     0
 10
676.76121655865006
 20
594.35375642330803
 30
0.0
 40
0.3
 50
0.0000000000868503
 51
90.0
  0
ARC
  5
131
  8
0
 62
     0
 10
629.36121655863235
 20
603.25342969320138
 30
0.0
 40
0.3
 50
90.0
 51
180.0000000004342
  0
LINE
  5
132
  8
0
 62
     0
 10
675.81121655865024
 20
594.65375642330719
 30
0.0
 11
676.76121655865006
 21
594.6537564233081
 31
0.0
  0
LINE
  5
133
  8
0
 62
     0
 10
629.36121655863235
 20
603.55342969320134
 30
0.0
 11
676.76121655864654
 21
603.55342969320009
 31
0.0
  0
ARC
  5
134
  8
0
 62
     0
 10
675.81121655865763
 20
594.90375642330002
 30
0.0
 40
0.2499999999927241
 50
179.999999998124
 51
269.9999999983325
  0
ARC
  5
135
  8
0
 62
     0
 10
676.76121655864654
 20
603.25342969319991
 30
0.0
 40
0.3
 50
0.0000000000868503
 51
90.0
  0
LINE
  5
136
  8
0
 62
     0
 10
675.56121655864945
 20
595.90375642330594
 30
0.0
 11
675.56121655866491
 21
594.90375642330821
 31
0.0
  0
LINE
  5
137
  8
0
 62
     0
 10
677.06121655864672
 20
603.25342969320047
 30
0.0
 11
677.06121655865127
 21
596.45375642330612
 31
0.0
  0
ARC
  5
138
  8
0
 62
     0
 10
675.81121655864945
 20
595.90375642330594
 30
0.0
 40
0.25
 50
90.0
 51
180.0
  0
ARC
  5
139
  8
0
 62
     0
 10
676.76121655865006
 20
596.45375642330612
 30
0.0
 40
0.3
 50
270.0
 51
0.0
  0
LINE
  5
13A
  8
0
 62
     0
 10
676.76121655865006
 20
596.15375642330605
 30
0.0
 11
675.81121655864945
 21
596.15375642330594
 31
0.0
  0
ENDSEC
  0
EOF
