  0
SECTION
  2
HEADER
  9
$ACADVER
  1
AC1009
  9
$INSBASE
 10
0.0
 20
0.0
 30
0.0
  9
$EXTMIN
 10
585.13275312391659
 20
726.22155915412748
 30
-0.0015258207003583
  9
$EXTMAX
 10
630.53833130111275
 20
743.89581420004345
 30
0.0000000349246037
  9
$LIMMIN
 10
0.0
 20
0.0
  9
$LIMMAX
 10
420.0
 20
297.0
  9
$ORTHOMODE
 70
     0
  9
$REGENMODE
 70
     1
  9
$FILLMODE
 70
     1
  9
$QTEXTMODE
 70
     0
  9
$MIRRTEXT
 70
     0
  9
$DRAGMODE
 70
     2
  9
$LTSCALE
 40
1.0
  9
$OSMODE
 70
  3071
  9
$ATTMODE
 70
     1
  9
$TEXTSIZE
 40
2.5
  9
$TRACEWID
 40
1.0
  9
$TEXTSTYLE
  7
STANDARD
  9
$CLAYER
  8
0
  9
$CELTYPE
  6
BYLAYER
  9
$CECOLOR
 62
   256
  9
$DIMSCALE
 40
1.0
  9
$DIMASZ
 40
2.5
  9
$DIMEXO
 40
0.625
  9
$DIMDLI
 40
3.75
  9
$DIMRND
 40
0.0
  9
$DIMDLE
 40
0.0
  9
$DIMEXE
 40
1.25
  9
$DIMTP
 40
0.0
  9
$DIMTM
 40
0.0
  9
$DIMTXT
 40
2.5
  9
$DIMCEN
 40
2.5
  9
$DIMTSZ
 40
0.0
  9
$DIMTOL
 70
     0
  9
$DIMLIM
 70
     0
  9
$DIMTIH
 70
     0
  9
$DIMTOH
 70
     0
  9
$DIMSE1
 70
     0
  9
$DIMSE2
 70
     0
  9
$DIMTAD
 70
     1
  9
$DIMZIN
 70
     8
  9
$DIMBLK
  1

  9
$DIMASO
 70
     1
  9
$DIMSHO
 70
     1
  9
$DIMPOST
  1

  9
$DIMAPOST
  1

  9
$DIMALT
 70
     0
  9
$DIMALTD
 70
     3
  9
$DIMALTF
 40
0.03937007874016
  9
$DIMLFAC
 40
1.0
  9
$DIMTOFL
 70
     1
  9
$DIMTVP
 40
0.0
  9
$DIMTIX
 70
     0
  9
$DIMSOXD
 70
     0
  9
$DIMSAH
 70
     0
  9
$DIMBLK1
  1

  9
$DIMBLK2
  1

  9
$DIMSTYLE
  2
ISO-25
  9
$DIMCLRD
 70
     0
  9
$DIMCLRE
 70
     0
  9
$DIMCLRT
 70
     0
  9
$DIMTFAC
 40
1.0
  9
$DIMGAP
 40
0.625
  9
$LUNITS
 70
     2
  9
$LUPREC
 70
     4
  9
$SKETCHINC
 40
1.0
  9
$FILLETRAD
 40
0.0
  9
$AUNITS
 70
     0
  9
$AUPREC
 70
     0
  9
$MENU
  1
.
  9
$ELEVATION
 40
0.0
  9
$PELEVATION
 40
0.0
  9
$THICKNESS
 40
0.0
  9
$LIMCHECK
 70
     0
  9
$BLIPMODE
 70
     0
  9
$CHAMFERA
 40
0.0
  9
$CHAMFERB
 40
0.0
  9
$SKPOLY
 70
     0
  9
$TDCREATE
 40
2456164.6507995492
  9
$TDUPDATE
 40
2456164.6510416549
  9
$TDINDWG
 40
0.0002426157
  9
$TDUSRTIMER
 40
0.0002425926
  9
$USRTIMER
 70
     1
  9
$ANGBASE
 50
0.0
  9
$ANGDIR
 70
     0
  9
$PDMODE
 70
     0
  9
$PDSIZE
 40
0.0
  9
$PLINEWID
 40
0.0
  9
$COORDS
 70
     1
  9
$SPLFRAME
 70
     0
  9
$SPLINETYPE
 70
     6
  9
$SPLINESEGS
 70
     8
  9
$ATTDIA
 70
     0
  9
$ATTREQ
 70
     1
  9
$HANDLING
 70
     1
  9
$HANDSEED
  5
135
  9
$SURFTAB1
 70
     6
  9
$SURFTAB2
 70
     6
  9
$SURFTYPE
 70
     6
  9
$SURFU
 70
     6
  9
$SURFV
 70
     6
  9
$UCSNAME
  2

  9
$UCSORG
 10
0.0
 20
0.0
 30
0.0
  9
$UCSXDIR
 10
1.0
 20
0.0
 30
0.0
  9
$UCSYDIR
 10
0.0
 20
1.0
 30
0.0
  9
$PUCSNAME
  2

  9
$PUCSORG
 10
0.0
 20
0.0
 30
0.0
  9
$PUCSXDIR
 10
1.0
 20
0.0
 30
0.0
  9
$PUCSYDIR
 10
0.0
 20
1.0
 30
0.0
  9
$USERI1
 70
     0
  9
$USERI2
 70
     0
  9
$USERI3
 70
     0
  9
$USERI4
 70
     0
  9
$USERI5
 70
     0
  9
$USERR1
 40
0.0
  9
$USERR2
 40
0.0
  9
$USERR3
 40
0.0
  9
$USERR4
 40
0.0
  9
$USERR5
 40
0.0
  9
$WORLDVIEW
 70
     1
  9
$SHADEDGE
 70
     3
  9
$SHADEDIF
 70
    70
  9
$TILEMODE
 70
     1
  9
$MAXACTVP
 70
    64
  9
$PLIMCHECK
 70
     0
  9
$PEXTMIN
 10
0.0
 20
0.0
 30
0.0
  9
$PEXTMAX
 10
0.0
 20
0.0
 30
0.0
  9
$PLIMMIN
 10
0.0
 20
0.0
  9
$PLIMMAX
 10
12.0
 20
9.0
  9
$UNITMODE
 70
     0
  9
$VISRETAIN
 70
     1
  9
$PLINEGEN
 70
     0
  9
$PSLTSCALE
 70
     1
  0
ENDSEC
  0
SECTION
  2
TABLES
  0
TABLE
  2
VPORT
 70
     2
  0
VPORT
  2
*ACTIVE
 70
     0
 10
0.0
 20
0.0
 11
1.0
 21
1.0
 12
607.83554221251472
 22
735.05868667708546
 13
0.0
 23
0.0
 14
10.0
 24
10.0
 15
10.0
 25
10.0
 16
0.0
 26
0.0
 36
1.0
 17
0.0
 27
0.0
 37
0.0
 40
19.632766783253569
 41
2.3219814241486061
 42
50.0
 43
0.0
 44
0.0
 50
0.0
 51
0.0
 71
     0
 72
  1000
 73
     1
 74
     3
 75
     0
 76
     0
 77
     0
 78
     0
  0
ENDTAB
  0
TABLE
  2
LTYPE
 70
     1
  0
LTYPE
  2
CONTINUOUS
 70
     0
  3
Solid line
 72
    65
 73
     0
 40
0.0
  0
ENDTAB
  0
TABLE
  2
LAYER
 70
     1
  0
LAYER
  2
0
 70
     0
 62
     7
  6
CONTINUOUS
  0
ENDTAB
  0
TABLE
  2
STYLE
 70
     4
  0
STYLE
  2
STANDARD
 70
     0
 40
0.0
 41
1.0
 50
0.0
 71
     0
 42
2.5
  3
txt
  4

  0
STYLE
  2
ROMANT
 70
     0
 40
3.0
 41
1.0
 50
0.0
 71
     0
 42
2.5
  3
romant.shx
  4

  0
STYLE
  2
LEADER
 70
     0
 40
0.0
 41
1.05
 50
0.0
 71
     0
 42
3.4267938661068911
  3
txt
  4

  0
STYLE
  2
BILGIN
 70
     0
 40
0.0
 41
1.0
 50
0.0
 71
     0
 42
3.9107383764021488
  3
txt
  4

  0
ENDTAB
  0
TABLE
  2
VIEW
 70
     0
  0
ENDTAB
  0
TABLE
  2
UCS
 70
     0
  0
ENDTAB
  0
TABLE
  2
APPID
 70
     4
  0
APPID
  2
ACAD
 70
     0
  0
APPID
  2
ACAD_PSEXT
 70
     0
  0
APPID
  2
ACAD_DSTYLE_DIMJAG
 70
     0
  0
APPID
  2
ACAD_DSTYLE_DIMTALN
 70
     0
  0
ENDTAB
  0
TABLE
  2
DIMSTYLE
 70
     6
  0
DIMSTYLE
  2
ISO-25
 70
     0
  3

  4

  5

  6

  7

 40
1.0
 41
2.5
 42
0.625
 43
3.75
 44
1.25
 45
0.0
 46
0.0
 47
0.0
 48
0.0
140
2.5
141
2.5
142
0.0
143
0.03937007874016
144
1.0
145
0.0
146
1.0
147
0.625
 71
     0
 72
     0
 73
     0
 74
     0
 75
     0
 76
     0
 77
     1
 78
     8
170
     0
171
     3
172
     1
173
     0
174
     0
175
     0
176
     0
177
     0
178
     0
  0
DIMSTYLE
  2
ISO-25_1_E_1
 70
     0
  3

  4

  5

  6

  7

 40
1.0
 41
1.3
 42
0.0
 43
3.75
 44
0.2
 45
0.0
 46
0.0
 47
0.0
 48
0.0
140
1.0
141
0.2
142
0.0
143
0.03937007874016
144
1.0
145
0.0
146
1.0
147
0.7
 71
     0
 72
     0
 73
     0
 74
     0
 75
     0
 76
     0
 77
     1
 78
     8
170
     0
171
     3
172
     0
173
     0
174
     0
175
     0
176
   242
177
   242
178
   242
  0
DIMSTYLE
  2
ISO-25_1-3
 70
     0
  3

  4

  5

  6

  7

 40
1.0
 41
2.5
 42
0.0
 43
3.75
 44
0.0
 45
0.0
 46
0.0
 47
0.0
 48
0.0
140
2.5
141
2.5
142
0.0
143
0.03937007874016
144
0.333333333333333
145
0.0
146
1.0
147
0.5
 71
     0
 72
     0
 73
     0
 74
     0
 75
     0
 76
     0
 77
     1
 78
     8
170
     0
171
     3
172
     1
173
     0
174
     0
175
     0
176
   256
177
     0
178
   256
  0
DIMSTYLE
  2
ISO-25_1_E_3
 70
     0
  3

  4

  5

  6

  7

 40
1.0
 41
2.5
 42
0.0
 43
3.75
 44
0.3
 45
0.0
 46
0.0
 47
0.0
 48
0.0
140
3.0
141
0.2
142
0.0
143
0.03937007874016
144
0.333333333333333
145
0.0
146
1.0
147
0.5
 71
     0
 72
     0
 73
     0
 74
     0
 75
     0
 76
     0
 77
     1
 78
     8
170
     0
171
     3
172
     0
173
     0
174
     0
175
     0
176
   242
177
   242
178
     1
  0
DIMSTYLE
  2
DETAY-1
 70
     0
  3

  4

  5

  6

  7

 40
1.0
 41
2.5
 42
0.625
 43
3.75
 44
1.25
 45
0.0
 46
0.0
 47
0.0
 48
0.0
140
2.5
141
2.5
142
0.0
143
0.03937007874016
144
1.0
145
0.0
146
1.0
147
0.5
 71
     0
 72
     0
 73
     0
 74
     0
 75
     0
 76
     0
 77
     1
 78
     8
170
     0
171
     3
172
     1
173
     0
174
     0
175
     0
176
     0
177
     0
178
     0
  0
DIMSTYLE
  2
BILGIN
 70
     0
  3

  4

  5

  6

  7

 40
1.0
 41
2.5
 42
2.0
 43
3.75
 44
1.25
 45
0.0
 46
0.0
 47
0.0
 48
0.0
140
2.5
141
2.5
142
0.0
143
0.03937007874016
144
1.0
145
0.0
146
1.0
147
0.625
 71
     0
 72
     0
 73
     0
 74
     0
 75
     0
 76
     0
 77
     1
 78
     8
170
     0
171
     3
172
     1
173
     0
174
     0
175
     0
176
     0
177
     0
178
     0
  0
ENDTAB
  0
ENDSEC
  0
SECTION
  2
BLOCKS
  0
BLOCK
  8
0
  2
$MODEL_SPACE
 70
     0
 10
0.0
 20
0.0
 30
0.0
  3
$MODEL_SPACE
  1

  0
ENDBLK
  5
21
  8
0
  0
BLOCK
 67
     1
  8
0
  2
$PAPER_SPACE
 70
     0
 10
0.0
 20
0.0
 30
0.0
  3
$PAPER_SPACE
  1

  0
ENDBLK
  5
53
 67
     1
  8
0
  0
BLOCK
  8
0
  2
*U2
 70
     1
 10
0.0
 20
0.0
 30
0.0
  3
*U2
  1

  0
LINE
  5
C2
  8
0
 62
     0
 10
42.794998378882163
 20
11.65034520240147
 30
0.0
 11
45.195790114485128
 21
17.079258882572269
 31
0.0
  0
ARC
  5
C3
  8
0
 62
     0
 10
44.921839100476973
 20
17.201532518011621
 30
0.0
 40
0.3
 50
335.94717167185053
 51
90.0
  0
ARC
  5
C4
  8
0
 62
     0
 10
42.521047364873077
 20
11.77261883784081
 30
0.0
 40
0.3
 50
257.10710853541968
 51
335.9471716719213
  0
LINE
  5
C5
  8
0
 62
     0
 10
44.921839100476973
 20
17.50153251801089
 30
0.0
 11
0.3000087940836238
 21
17.501532518007249
 31
0.0
  0
ARC
  5
C6
  8
0
 62
     0
 10
41.829346911767971
 20
8.7507732929013855
 30
0.0
 40
2.800000000005034
 50
77.107108535526962
 51
269.89561611263173
  0
ARC
  5
C7
  8
0
 62
     0
 10
0.3000087940836238
 20
17.20153251800798
 30
0.0
 40
0.3
 50
90.0
 51
179.99997109689949
  0
ARC
  5
C8
  8
0
 62
     0
 10
41.823699203074277
 20
5.6507784352149883
 30
0.0
 40
0.3
 50
11.055552976396459
 51
89.895616112663987
  0
LINE
  5
C9
  8
0
 62
     0
 10
0.0000087940834419
 20
17.20153266934426
 30
0.0
 11
0.0000003184077286
 21
0.2999999780956841
 31
0.0
  0
LINE
  5
CA
  8
0
 62
     0
 10
43.153833442142961
 20
0.3575280289339844
 30
0.0
 11
42.118131718184479
 21
5.7083066373932061
 31
0.0
  0
ARC
  5
CB
  8
0
 62
     0
 10
0.3000003184079105
 20
0.2999998267594037
 30
0.0
 40
0.3
 50
179.99997109689949
 51
270.0
  0
ARC
  5
CC
  8
0
 62
     0
 10
42.859400927032773
 20
0.2999998267557657
 30
0.0
 40
0.3
 50
270.0
 51
11.055552976396431
  0
LINE
  5
CD
  8
0
 62
     0
 10
0.3000003184079105
 20
-0.0000001732398687
 30
0.0
 11
42.859400927032773
 21
-0.0000001732435067
 31
0.0
  0
LINE
  5
CE
  8
0
 62
     0
 10
2.0000013273247532
 20
2.2999999780956841
 30
0.0
 11
2.0000077851673259
 21
15.20153266934426
 31
0.0
  0
ARC
  5
CF
  8
0
 62
     0
 10
2.3000077851675078
 20
15.20153251800798
 30
0.0
 40
0.3
 50
89.999999999999986
 51
179.99997109689949
  0
ARC
  5
D0
  8
0
 62
     0
 10
2.3000013273249351
 20
2.2999998267594028
 30
0.0
 40
0.3
 50
179.99997109689949
 51
270.0
  0
LINE
  5
D1
  8
0
 62
     0
 10
2.3000077851675078
 20
15.501532518007251
 30
0.0
 11
41.838998637422257
 21
15.50153251801089
 31
0.0
  0
LINE
  5
D2
  8
0
 62
     0
 10
40.43080908455704
 20
1.9999998267564929
 30
0.0
 11
2.3000013273249351
 21
1.9999998267601311
 31
0.0
  0
ARC
  5
D3
  8
0
 62
     0
 10
41.838998637422257
 20
15.201532518011611
 30
0.0
 40
0.3
 50
335.9471716719213
 51
90.0
  0
ARC
  5
D4
  8
0
 62
     0
 10
40.43080908455704
 20
2.2999998267557649
 30
0.0
 40
0.3
 50
270.0
 51
11.055552976396431
  0
LINE
  5
D5
  8
0
 62
     0
 10
42.112949651431329
 20
15.079258882572271
 30
0.0
 11
41.517300464762229
 21
13.74472181663873
 31
0.0
  0
LINE
  5
D6
  8
0
 62
     0
 10
40.413377504690281
 20
4.003665686294652
 30
0.0
 11
40.725241599667243
 21
2.3575280289339839
 31
0.0
  0
ARC
  5
D7
  8
0
 62
     0
 10
41.175025750046188
 20
13.86793257558088
 30
0.0
 40
0.3637758533122661
 50
286.41397827508382
 51
340.20232968929042
  0
ARC
  5
D8
  8
0
 62
     0
 10
40.11894498957917
 20
3.9461374841200718
 30
0.0
 40
0.3
 50
11.05555297568125
 51
70.404783030330634
  0
ARC
  5
D9
  8
0
 62
     0
 10
41.829346911767971
 20
8.7507732929013855
 30
0.0
 40
4.800000000005034
 50
96.597941618136431
 51
250.40478303002831
  0
ENDBLK
  5
DB
  8
0
  0
BLOCK
  8
0
  2
*X3
 70
     1
 10
0.0
 20
0.0
 30
0.0
  3
*X3
  1

  0
LINE
  5
DD
  8
0
 62
     0
 10
42.731845748436172
 20
-0.0000001732432793
 30
0.0
 11
43.143379983739571
 21
0.4115340620601274
 31
0.0
  0
LINE
  5
DE
  8
0
 62
     0
 10
41.384807330275628
 20
-0.000000173243734
 30
0.0
 11
42.924929453977697
 21
1.5401219504583421
 31
0.0
  0
LINE
  5
DF
  8
0
 62
     0
 10
40.037768912115553
 20
-0.0000001732428245
 30
0.0
 11
42.706478924216299
 21
2.6687098388579211
 31
0.0
  0
LINE
  5
E0
  8
0
 62
     0
 10
38.690730493955023
 20
-0.0000001732432793
 30
0.0
 11
42.488028394455327
 21
3.7972977272570461
 31
0.0
  0
LINE
  5
E1
  8
0
 62
     0
 10
40.562138843326011
 20
3.2184465942877969
 30
0.0
 11
42.269577864693467
 21
4.9258856156552611
 31
0.0
  0
LINE
  5
E2
  8
0
 62
     0
 10
37.343692075794479
 20
-0.000000173243734
 30
0.0
 11
39.343692075794927
 21
1.9999998267567201
 31
0.0
  0
LINE
  5
E3
  8
0
 62
     0
 10
40.223851236346491
 20
4.2271974054692691
 30
0.0
 11
41.928522962309209
 21
5.931869131431994
 31
0.0
  0
LINE
  5
E4
  8
0
 62
     0
 10
35.996653657634397
 20
-0.0000001732428245
 30
0.0
 11
37.996653657634852
 21
1.99999982675763
 31
0.0
  0
LINE
  5
E5
  8
0
 62
     0
 10
39.312905222515838
 20
4.6632898097986981
 30
0.0
 11
40.797463912882897
 21
6.1478485001657637
 31
0.0
  0
LINE
  5
E6
  8
0
 62
     0
 10
34.64961523947386
 20
-0.0000001732432793
 30
0.0
 11
36.649615239474322
 21
1.999999826757175
 31
0.0
  0
LINE
  5
E7
  8
0
 62
     0
 10
38.549084514677361
 20
5.2465075201203026
 30
0.0
 11
39.964620084633232
 21
6.6620430900761667
 31
0.0
  0
LINE
  5
E8
  8
0
 62
     0
 10
33.302576821314688
 20
-0.0000001732423698
 30
0.0
 11
35.302576821313778
 21
1.9999998267567201
 31
0.0
  0
LINE
  5
E9
  8
0
 62
     0
 10
37.920487449025593
 20
5.9649488726295203
 30
0.0
 11
39.369225147052482
 21
7.4136865706564086
 31
0.0
  0
LINE
  5
EA
  8
0
 62
     0
 10
31.9555384031537
 20
-0.0000001732423698
 30
0.0
 11
33.955538403153241
 21
1.999999826757175
 31
0.0
  0
LINE
  5
EB
  8
0
 62
     0
 10
37.43287312296161
 20
6.824372964725625
 30
0.0
 11
39.046833436946599
 21
8.4383332787106156
 31
0.0
  0
LINE
  5
EC
  8
0
 62
     0
 10
42.141786925958513
 20
11.533286767722529
 30
0.0
 11
43.220077605803453
 21
12.61157744756747
 31
0.0
  0
LINE
  5
ED
  8
0
 62
     0
 10
30.608499984993159
 20
-0.0000001732428245
 30
0.0
 11
32.608499984993159
 21
1.999999826757175
 31
0.0
  0
LINE
  5
EE
  8
0
 62
     0
 10
37.114117812522181
 20
7.8526560724462788
 30
0.0
 11
39.394089703896498
 21
10.132627963820591
 31
0.0
  0
LINE
  5
EF
  8
0
 62
     0
 10
40.447492240848533
 20
11.186030500772629
 30
0.0
 11
44.288052661319853
 21
15.026590921243949
 31
0.0
  0
LINE
  5
F0
  8
0
 62
     0
 10
29.261461566833528
 20
-0.0000001732423698
 30
0.0
 11
31.261461566833081
 21
1.999999826757175
 31
0.0
  0
LINE
  5
F1
  8
0
 62
     0
 10
37.044344636115063
 20
9.1299213142001463
 30
0.0
 11
45.207523218354247
 21
17.29309989643934
 31
0.0
  0
LINE
  5
F2
  8
0
 62
     0
 10
27.914423148672999
 20
-0.000000173241915
 30
0.0
 11
29.914423148672089
 21
1.999999826757175
 31
0.0
  0
LINE
  5
F3
  8
0
 62
     0
 10
37.614010203850277
 20
11.04662530009545
 30
0.0
 11
39.533494904573672
 21
12.966110000818841
 31
0.0
  0
LINE
  5
F4
  8
0
 62
     0
 10
42.013175992023207
 20
15.445791088268381
 30
0.0
 11
44.068917421765939
 21
17.501532518011121
 31
0.0
  0
LINE
  5
F5
  8
0
 62
     0
 10
26.567384730512909
 20
-0.000000173241915
 30
0.0
 11
28.567384730512462
 21
1.99999982675763
 31
0.0
  0
LINE
  5
F6
  8
0
 62
     0
 10
40.721879003605409
 20
15.501532518010659
 30
0.0
 11
42.721879003605864
 21
17.501532518010659
 31
0.0
  0
LINE
  5
F7
  8
0
 62
     0
 10
25.22034631235238
 20
-0.0000001732423698
 30
0.0
 11
27.220346312352831
 21
1.9999998267580841
 31
0.0
  0
LINE
  5
F8
  8
0
 62
     0
 10
39.374840585444417
 20
15.501532518010659
 30
0.0
 11
41.374840585444872
 21
17.501532518011121
 31
0.0
  0
LINE
  5
F9
  8
0
 62
     0
 10
23.873307894191839
 20
-0.000000173241915
 30
0.0
 11
25.873307894191839
 21
1.9999998267580841
 31
0.0
  0
LINE
  5
FA
  8
0
 62
     0
 10
38.02780216728479
 20
15.501532518011119
 30
0.0
 11
40.027802167283419
 21
17.50153251800975
 31
0.0
  0
LINE
  5
FB
  8
0
 62
     0
 10
22.526269476031761
 20
-0.000000173241915
 30
0.0
 11
24.526269476031761
 21
1.9999998267580841
 31
0.0
  0
LINE
  5
FC
  8
0
 62
     0
 10
36.68076374912426
 20
15.501532518010659
 30
0.0
 11
38.680763749123798
 21
17.501532518010212
 31
0.0
  0
LINE
  5
FD
  8
0
 62
     0
 10
21.179231057871679
 20
-0.000000173241915
 30
0.0
 11
23.17923105787122
 21
1.99999982675763
 31
0.0
  0
LINE
  5
FE
  8
0
 62
     0
 10
35.333725330963262
 20
15.501532518010659
 30
0.0
 11
37.333725330962352
 21
17.50153251800975
 31
0.0
  0
LINE
  5
FF
  8
0
 62
     0
 10
19.83219263971068
 20
-0.000000173241915
 30
0.0
 11
21.83219263971068
 21
1.9999998267580841
 31
0.0
  0
LINE
  5
100
  8
0
 62
     0
 10
33.98668691280227
 20
15.50153251800975
 30
0.0
 11
35.98668691280227
 21
17.50153251800975
 31
0.0
  0
LINE
  5
101
  8
0
 62
     0
 10
18.485154221551049
 20
-0.0000001732414603
 30
0.0
 11
20.485154221550602
 21
1.9999998267580841
 31
0.0
  0
LINE
  5
102
  8
0
 62
     0
 10
32.639648494642188
 20
15.50153251800975
 30
0.0
 11
34.639648494642643
 21
17.501532518010212
 31
0.0
  0
LINE
  5
103
  8
0
 62
     0
 10
17.138115803391429
 20
-0.0000001732414603
 30
0.0
 11
19.138115803390971
 21
1.999999826758539
 31
0.0
  0
LINE
  5
104
  8
0
 62
     0
 10
31.2926100764812
 20
15.50153251800975
 30
0.0
 11
33.292610076481203
 21
17.50153251800975
 31
0.0
  0
LINE
  5
105
  8
0
 62
     0
 10
15.79107738523089
 20
-0.0000001732405508
 30
0.0
 11
17.791077385229979
 21
1.999999826758539
 31
0.0
  0
LINE
  5
106
  8
0
 62
     0
 10
29.945571658321111
 20
15.50153251800975
 30
0.0
 11
31.945571658321121
 21
17.50153251800975
 31
0.0
  0
LINE
  5
107
  8
0
 62
     0
 10
14.444038967069901
 20
-0.0000001732414603
 30
0.0
 11
16.444038967069439
 21
1.9999998267580841
 31
0.0
  0
LINE
  5
108
  8
0
 62
     0
 10
28.598533240160581
 20
15.5015325180093
 30
0.0
 11
30.598533240160581
 21
17.501532518009299
 31
0.0
  0
LINE
  5
109
  8
0
 62
     0
 10
13.09700054890982
 20
-0.0000001732414603
 30
0.0
 11
15.09700054891027
 21
1.999999826758994
 31
0.0
  0
LINE
  5
10A
  8
0
 62
     0
 10
27.251494822000041
 20
15.5015325180093
 30
0.0
 11
29.251494822000499
 21
17.50153251800975
 31
0.0
  0
LINE
  5
10B
  8
0
 62
     0
 10
11.749962130749729
 20
-0.0000001732410055
 30
0.0
 11
13.74996213074928
 21
1.999999826758539
 31
0.0
  0
LINE
  5
10C
  8
0
 62
     0
 10
25.904456403839511
 20
15.5015325180093
 30
0.0
 11
27.9044564038395
 21
17.501532518009299
 31
0.0
  0
LINE
  5
10D
  8
0
 62
     0
 10
10.4029237125892
 20
-0.0000001732410055
 30
0.0
 11
12.402923712589651
 21
1.999999826759449
 31
0.0
  0
LINE
  5
10E
  8
0
 62
     0
 10
24.557417985679422
 20
15.5015325180093
 30
0.0
 11
26.557417985679422
 21
17.501532518009299
 31
0.0
  0
LINE
  5
10F
  8
0
 62
     0
 10
9.0558852944286627
 20
-0.0000001732414603
 30
0.0
 11
11.05588529442911
 21
1.999999826758994
 31
0.0
  0
LINE
  5
110
  8
0
 62
     0
 10
23.21037956751934
 20
15.5015325180093
 30
0.0
 11
25.21037956751934
 21
17.501532518009299
 31
0.0
  0
LINE
  5
111
  8
0
 62
     0
 10
7.7088468762690354
 20
-0.0000001732410055
 30
0.0
 11
9.7088468762685807
 21
1.999999826758539
 31
0.0
  0
LINE
  5
112
  8
0
 62
     0
 10
21.863341149358352
 20
15.5015325180093
 30
0.0
 11
23.863341149357439
 21
17.501532518008389
 31
0.0
  0
LINE
  5
113
  8
0
 62
     0
 10
6.361808458108043
 20
-0.0000001732410055
 30
0.0
 11
8.3618084581084986
 21
1.999999826759449
 31
0.0
  0
LINE
  5
114
  8
0
 62
     0
 10
20.51630273119736
 20
15.501532518008389
 30
0.0
 11
22.516302731197811
 21
17.50153251800884
 31
0.0
  0
LINE
  5
115
  8
0
 62
     0
 10
5.0147700399484156
 20
-0.0000001732405508
 30
0.0
 11
7.0147700399484156
 21
1.999999826759449
 31
0.0
  0
LINE
  5
116
  8
0
 62
     0
 10
19.16926431303682
 20
15.501532518007931
 30
0.0
 11
21.169264313037282
 21
17.501532518008389
 31
0.0
  0
LINE
  5
117
  8
0
 62
     0
 10
3.667731621788334
 20
-0.0000001732405508
 30
0.0
 11
5.6677316217883336
 21
1.999999826759449
 31
0.0
  0
LINE
  5
118
  8
0
 62
     0
 10
17.82222589487673
 20
15.50153251800884
 30
0.0
 11
19.822225894877189
 21
17.501532518009299
 31
0.0
  0
LINE
  5
119
  8
0
 62
     0
 10
2.320693203627342
 20
-0.0000001732405508
 30
0.0
 11
4.3206932036277967
 21
1.9999998267599031
 31
0.0
  0
LINE
  5
11A
  8
0
 62
     0
 10
16.475187476716201
 20
15.501532518008389
 30
0.0
 11
18.475187476715739
 21
17.501532518007931
 31
0.0
  0
LINE
  5
11B
  8
0
 62
     0
 10
0.9736547854677154
 20
-0.000000173240096
 30
0.0
 11
2.9736547854672599
 21
1.999999826759449
 31
0.0
  0
LINE
  5
11C
  8
0
 62
     0
 10
15.12814905855566
 20
15.501532518007931
 30
0.0
 11
17.128149058556119
 21
17.501532518008389
 31
0.0
  0
LINE
  5
11D
  8
0
 62
     0
 10
0.000000355208158
 20
0.3733838146604285
 30
0.0
 11
2.0000013640578791
 21
2.37338482351015
 31
0.0
  0
LINE
  5
11E
  8
0
 62
     0
 10
13.781110640394671
 20
15.501532518007931
 30
0.0
 11
15.781110640395131
 21
17.501532518008389
 31
0.0
  0
LINE
  5
11F
  8
0
 62
     0
 10
0.0000010307117009
 20
1.720422908324962
 30
0.0
 11
2.0000020383163242
 21
3.7204239159295862
 31
0.0
  0
LINE
  5
120
  8
0
 62
     0
 10
12.43407222223504
 20
15.501532518008389
 30
0.0
 11
14.43407222223459
 21
17.501532518007931
 31
0.0
  0
LINE
  5
121
  8
0
 62
     0
 10
0.0000017062175175
 20
3.0674620019908612
 30
0.0
 11
2.0000027125743141
 21
5.0674630083476577
 31
0.0
  0
LINE
  5
122
  8
0
 62
     0
 10
11.08703380407451
 20
15.501532518007931
 30
0.0
 11
13.087033804074959
 21
17.501532518008389
 31
0.0
  0
LINE
  5
123
  8
0
 62
     0
 10
0.0000023817219699
 20
4.4145010956553961
 30
0.0
 11
2.0000033868327591
 21
6.4145021007661853
 31
0.0
  0
LINE
  5
124
  8
0
 62
     0
 10
9.7399953859135167
 20
15.501532518007931
 30
0.0
 11
11.73999538591397
 21
17.501532518008389
 31
0.0
  0
LINE
  5
125
  8
0
 62
     0
 10
0.0000030572264222
 20
5.7615401893208391
 30
0.0
 11
2.000004061090749
 21
7.7615411931851659
 31
0.0
  0
LINE
  5
126
  8
0
 62
     0
 10
8.3929569677534346
 20
15.501532518007931
 30
0.0
 11
10.392956967754341
 21
17.50153251800884
 31
0.0
  0
LINE
  5
127
  8
0
 62
     0
 10
0.0000037327313294
 20
7.1085792829858292
 30
0.0
 11
2.000004735349648
 21
9.1085802856041482
 31
0.0
  0
LINE
  5
128
  8
0
 62
     0
 10
7.0459185495933516
 20
15.501532518007931
 30
0.0
 11
9.045918549592443
 21
17.501532518007021
 31
0.0
  0
LINE
  5
129
  8
0
 62
     0
 10
0.0000044082362365
 20
8.4556183766508184
 30
0.0
 11
2.0000054096076378
 21
10.45561937802222
 31
0.0
  0
LINE
  5
12A
  8
0
 62
     0
 10
5.6988801314319062
 20
15.50153251800748
 30
0.0
 11
7.6988801314323601
 21
17.501532518007931
 31
0.0
  0
LINE
  5
12B
  8
0
 62
     0
 10
0.0000050837406889
 20
9.8026574703162623
 30
0.0
 11
2.0000060838656282
 21
11.8026584704412
 31
0.0
  0
LINE
  5
12C
  8
0
 62
     0
 10
4.3518417132713694
 20
15.50153251800702
 30
0.0
 11
6.3518417132718241
 21
17.50153251800748
 31
0.0
  0
LINE
  5
12D
  8
0
 62
     0
 10
0.000005759245596
 20
11.14969656398125
 30
0.0
 11
2.0000067581245271
 21
13.14969756286018
 31
0.0
  0
LINE
  5
12E
  8
0
 62
     0
 10
3.0048032951108321
 20
15.50153251800657
 30
0.0
 11
5.0048032951112873
 21
17.501532518007021
 31
0.0
  0
LINE
  5
12F
  8
0
 62
     0
 10
0.0000064347514126
 20
12.49673565764715
 30
0.0
 11
2.000007432382517
 21
14.49673665527825
 31
0.0
  0
LINE
  5
130
  8
0
 62
     0
 10
0.0000071102554102
 20
13.843774751312139
 30
0.0
 11
3.6577648769502948
 21
17.501532518007021
 31
0.0
  0
LINE
  5
131
  8
0
 62
     0
 10
0.0000077857603173
 20
15.19081384497713
 30
0.0
 11
2.310726458790668
 21
17.50153251800748
 31
0.0
  0
LINE
  5
132
  8
0
 62
     0
 10
0.000008461266134
 20
16.537852938642569
 30
0.0
 11
0.9636880406301315
 21
17.501532518007021
 31
0.0
  0
ENDBLK
  5
134
  8
0
  0
ENDSEC
  0
SECTION
  2
ENTITIES
  0
LINE
  5
9B
  8
0
 62
     0
 10
628.0101092627973
 20
737.96326087846001
 30
0.0
 11
630.41090099840039
 21
743.39217455863081
 31
0.0
  0
ARC
  5
9C
  8
0
 62
     0
 10
630.13694998439223
 20
743.51444819407016
 30
0.0
 40
0.3
 50
335.94717167185053
 51
90.0
  0
ARC
  5
9D
  8
0
 62
     0
 10
627.73615824878834
 20
738.08553451389935
 30
0.0
 40
0.3
 50
257.10710853541968
 51
335.9471716719213
  0
LINE
  5
9E
  8
0
 62
     0
 10
630.13694998439223
 20
743.81444819406943
 30
0.0
 11
585.51511967799877
 21
743.81444819406579
 31
0.0
  0
ARC
  5
9F
  8
0
 62
     0
 10
627.04445779568323
 20
735.06368896895992
 30
0.0
 40
2.800000000005034
 50
77.107108535526962
 51
269.89561611263173
  0
ARC
  5
A0
  8
0
 62
     0
 10
585.51511967799877
 20
743.51444819406652
 30
0.0
 40
0.3
 50
90.0
 51
179.99997109689949
  0
ARC
  5
A1
  8
0
 62
     0
 10
627.03881008698954
 20
731.96369411127353
 30
0.0
 40
0.3
 50
11.055552976396459
 51
89.895616112663987
  0
LINE
  5
A2
  8
0
 62
     0
 10
585.2151196779987
 20
743.5144483454028
 30
0.0
 11
585.21511120232287
 21
726.61291565415422
 31
0.0
  0
LINE
  5
A3
  8
0
 62
     0
 10
628.36894432605823
 20
726.67044370499241
 30
0.0
 11
627.33324260209974
 21
732.02122231345174
 31
0.0
  0
ARC
  5
A4
  8
0
 62
     0
 10
585.51511120232306
 20
726.61291550281794
 30
0.0
 40
0.3
 50
179.99997109689949
 51
270.0
  0
ARC
  5
A5
  8
0
 62
     0
 10
628.07451181094791
 20
726.6129155028143
 30
0.0
 40
0.3
 50
270.0
 51
11.055552976396431
  0
LINE
  5
A6
  8
0
 62
     0
 10
585.51511120232306
 20
726.31291550281856
 30
0.0
 11
628.07451181094791
 21
726.31291550281503
 31
0.0
  0
LINE
  5
A7
  8
0
 62
     0
 10
587.2151122112399
 20
728.61291565415422
 30
0.0
 11
587.21511866908259
 21
741.5144483454028
 31
0.0
  0
ARC
  5
A8
  8
0
 62
     0
 10
587.51511866908265
 20
741.5144481940664
 30
0.0
 40
0.3
 50
89.999999999999986
 51
179.99997109689949
  0
ARC
  5
A9
  8
0
 62
     0
 10
587.51511221124008
 20
728.61291550281794
 30
0.0
 40
0.3
 50
179.99997109689949
 51
270.0
  0
LINE
  5
AA
  8
0
 62
     0
 10
587.51511866908265
 20
741.81444819406568
 30
0.0
 11
627.05410952133752
 21
741.81444819406943
 31
0.0
  0
LINE
  5
AB
  8
0
 62
     0
 10
625.6459199684723
 20
728.31291550281503
 30
0.0
 11
587.51511221124008
 21
728.31291550281856
 31
0.0
  0
ARC
  5
AC
  8
0
 62
     0
 10
627.05410952133752
 20
741.51444819407016
 30
0.0
 40
0.3
 50
335.9471716719213
 51
90.0
  0
ARC
  5
AD
  8
0
 62
     0
 10
625.6459199684723
 20
728.6129155028143
 30
0.0
 40
0.3
 50
270.0
 51
11.055552976396431
  0
LINE
  5
AE
  8
0
 62
     0
 10
627.32806053534648
 20
741.39217455863081
 30
0.0
 11
626.73241134867737
 21
740.05763749269727
 31
0.0
  0
LINE
  5
AF
  8
0
 62
     0
 10
625.62848838860555
 20
730.31658136235319
 30
0.0
 11
625.9403524835825
 21
728.67044370499252
 31
0.0
  0
ARC
  5
B0
  8
0
 62
     0
 10
626.39013663396145
 20
740.1808482516393
 30
0.0
 40
0.3637758533122661
 50
286.41397827508382
 51
340.20232968929042
  0
ARC
  5
B1
  8
0
 62
     0
 10
625.33405587349444
 20
730.25905316017861
 30
0.0
 40
0.3
 50
11.05555297568125
 51
70.404783030330634
  0
ARC
  5
B2
  8
0
 62
     0
 10
627.04445779568323
 20
735.06368896895992
 30
0.0
 40
4.800000000005034
 50
96.597941618136431
 51
250.40478303002831
  0
ENDSEC
  0
EOF
