  0
SECTION
  2
HEADER
  9
$ACADVER
  1
AC1009
  9
$INSBASE
 10
0.0
 20
0.0
 30
0.0
  9
$EXTMIN
 10
865.70526321617092
 20
502.57425054415847
 30
-0.0015258207003583
  9
$EXTMAX
 10
985.83618327723377
 20
552.60598853789975
 30
0.0000000349246037
  9
$LIMMIN
 10
0.0
 20
0.0
  9
$LIMMAX
 10
420.0
 20
297.0
  9
$ORTHOMODE
 70
     0
  9
$REGENMODE
 70
     1
  9
$FILLMODE
 70
     1
  9
$QTEXTMODE
 70
     0
  9
$MIRRTEXT
 70
     0
  9
$DRAGMODE
 70
     2
  9
$LTSCALE
 40
1.0
  9
$OSMODE
 70
  3071
  9
$ATTMODE
 70
     1
  9
$TEXTSIZE
 40
2.5
  9
$TRACEWID
 40
1.0
  9
$TEXTSTYLE
  7
STANDARD
  9
$CLAYER
  8
0
  9
$CELTYPE
  6
BYLAYER
  9
$CECOLOR
 62
   256
  9
$DIMSCALE
 40
1.0
  9
$DIMASZ
 40
2.5
  9
$DIMEXO
 40
0.625
  9
$DIMDLI
 40
3.75
  9
$DIMRND
 40
0.0
  9
$DIMDLE
 40
0.0
  9
$DIMEXE
 40
1.25
  9
$DIMTP
 40
0.0
  9
$DIMTM
 40
0.0
  9
$DIMTXT
 40
2.5
  9
$DIMCEN
 40
2.5
  9
$DIMTSZ
 40
0.0
  9
$DIMTOL
 70
     0
  9
$DIMLIM
 70
     0
  9
$DIMTIH
 70
     0
  9
$DIMTOH
 70
     0
  9
$DIMSE1
 70
     0
  9
$DIMSE2
 70
     0
  9
$DIMTAD
 70
     1
  9
$DIMZIN
 70
     8
  9
$DIMBLK
  1

  9
$DIMASO
 70
     1
  9
$DIMSHO
 70
     1
  9
$DIMPOST
  1

  9
$DIMAPOST
  1

  9
$DIMALT
 70
     0
  9
$DIMALTD
 70
     3
  9
$DIMALTF
 40
0.03937007874016
  9
$DIMLFAC
 40
1.0
  9
$DIMTOFL
 70
     1
  9
$DIMTVP
 40
0.0
  9
$DIMTIX
 70
     0
  9
$DIMSOXD
 70
     0
  9
$DIMSAH
 70
     0
  9
$DIMBLK1
  1

  9
$DIMBLK2
  1

  9
$DIMSTYLE
  2
ISO-25
  9
$DIMCLRD
 70
     0
  9
$DIMCLRE
 70
     0
  9
$DIMCLRT
 70
     0
  9
$DIMTFAC
 40
1.0
  9
$DIMGAP
 40
0.625
  9
$LUNITS
 70
     2
  9
$LUPREC
 70
     4
  9
$SKETCHINC
 40
1.0
  9
$FILLETRAD
 40
0.0
  9
$AUNITS
 70
     0
  9
$AUPREC
 70
     0
  9
$MENU
  1
.
  9
$ELEVATION
 40
0.0
  9
$PELEVATION
 40
0.0
  9
$THICKNESS
 40
0.0
  9
$LIMCHECK
 70
     0
  9
$BLIPMODE
 70
     0
  9
$CHAMFERA
 40
0.0
  9
$CHAMFERB
 40
0.0
  9
$SKPOLY
 70
     0
  9
$TDCREATE
 40
2456059.5304518631
  9
$TDUPDATE
 40
2456059.5305703012
  9
$TDINDWG
 40
0.0001187963
  9
$TDUSRTIMER
 40
0.0001187963
  9
$USRTIMER
 70
     1
  9
$ANGBASE
 50
0.0
  9
$ANGDIR
 70
     0
  9
$PDMODE
 70
     0
  9
$PDSIZE
 40
0.0
  9
$PLINEWID
 40
0.0
  9
$COORDS
 70
     0
  9
$SPLFRAME
 70
     0
  9
$SPLINETYPE
 70
     6
  9
$SPLINESEGS
 70
     8
  9
$ATTDIA
 70
     0
  9
$ATTREQ
 70
     1
  9
$HANDLING
 70
     1
  9
$HANDSEED
  5
2CA
  9
$SURFTAB1
 70
     6
  9
$SURFTAB2
 70
     6
  9
$SURFTYPE
 70
     6
  9
$SURFU
 70
     6
  9
$SURFV
 70
     6
  9
$UCSNAME
  2

  9
$UCSORG
 10
0.0
 20
0.0
 30
0.0
  9
$UCSXDIR
 10
1.0
 20
0.0
 30
0.0
  9
$UCSYDIR
 10
0.0
 20
1.0
 30
0.0
  9
$PUCSNAME
  2

  9
$PUCSORG
 10
0.0
 20
0.0
 30
0.0
  9
$PUCSXDIR
 10
1.0
 20
0.0
 30
0.0
  9
$PUCSYDIR
 10
0.0
 20
1.0
 30
0.0
  9
$USERI1
 70
     0
  9
$USERI2
 70
     0
  9
$USERI3
 70
     0
  9
$USERI4
 70
     0
  9
$USERI5
 70
     0
  9
$USERR1
 40
0.0
  9
$USERR2
 40
0.0
  9
$USERR3
 40
0.0
  9
$USERR4
 40
0.0
  9
$USERR5
 40
0.0
  9
$WORLDVIEW
 70
     1
  9
$SHADEDGE
 70
     3
  9
$SHADEDIF
 70
    70
  9
$TILEMODE
 70
     1
  9
$MAXACTVP
 70
    64
  9
$PLIMCHECK
 70
     0
  9
$PEXTMIN
 10
0.0
 20
0.0
 30
0.0
  9
$PEXTMAX
 10
0.0
 20
0.0
 30
0.0
  9
$PLIMMIN
 10
0.0
 20
0.0
  9
$PLIMMAX
 10
12.0
 20
9.0
  9
$UNITMODE
 70
     0
  9
$VISRETAIN
 70
     1
  9
$PLINEGEN
 70
     0
  9
$PSLTSCALE
 70
     1
  0
ENDSEC
  0
SECTION
  2
TABLES
  0
TABLE
  2
VPORT
 70
     2
  0
VPORT
  2
*ACTIVE
 70
     0
 10
0.0
 20
0.0
 11
1.0
 21
1.0
 12
925.77072324670246
 22
527.59011954102914
 13
0.0
 23
0.0
 14
10.0
 24
10.0
 15
10.0
 25
10.0
 16
0.0
 26
0.0
 36
1.0
 17
0.0
 27
0.0
 37
0.0
 40
51.943008583932787
 41
2.3219814241486061
 42
50.0
 43
0.0
 44
0.0
 50
0.0
 51
0.0
 71
     0
 72
  1000
 73
     1
 74
     3
 75
     0
 76
     0
 77
     0
 78
     0
  0
ENDTAB
  0
TABLE
  2
LTYPE
 70
     1
  0
LTYPE
  2
CONTINUOUS
 70
     0
  3
Solid line
 72
    65
 73
     0
 40
0.0
  0
ENDTAB
  0
TABLE
  2
LAYER
 70
     1
  0
LAYER
  2
0
 70
     0
 62
     7
  6
CONTINUOUS
  0
ENDTAB
  0
TABLE
  2
STYLE
 70
     3
  0
STYLE
  2
STANDARD
 70
     0
 40
0.0
 41
1.0
 50
0.0
 71
     0
 42
2.5
  3
txt
  4

  0
STYLE
  2
ROMANT
 70
     0
 40
2.299999999999998
 41
1.0
 50
15.0
 71
     0
 42
2.299999999999998
  3
romant.shx
  4

  0
STYLE
  2
LEADER
 70
     0
 40
0.0
 41
1.05
 50
0.0
 71
     0
 42
3.4267938661068911
  3
txt
  4

  0
ENDTAB
  0
TABLE
  2
VIEW
 70
     0
  0
ENDTAB
  0
TABLE
  2
UCS
 70
     0
  0
ENDTAB
  0
TABLE
  2
APPID
 70
     6
  0
APPID
  2
ACAD
 70
     0
  0
APPID
  2
ACAD_DSTYLE_DIMJAG
 70
     0
  0
APPID
  2
ACAD_DSTYLE_DIMTALN
 70
     0
  0
APPID
  2
ACAD_DSTYLE_DIMARC_LENGTH_
 70
     0
  0
APPID
  2
GRADIENTCOLOR1ACI
 70
     0
  0
APPID
  2
GRADIENTCOLOR2ACI
 70
     0
  0
ENDTAB
  0
TABLE
  2
DIMSTYLE
 70
     6
  0
DIMSTYLE
  2
ISO-25
 70
     0
  3

  4

  5

  6

  7

 40
1.0
 41
2.5
 42
0.625
 43
3.75
 44
1.25
 45
0.0
 46
0.0
 47
0.0
 48
0.0
140
2.5
141
2.5
142
0.0
143
0.03937007874016
144
1.0
145
0.0
146
1.0
147
0.625
 71
     0
 72
     0
 73
     0
 74
     0
 75
     0
 76
     0
 77
     1
 78
     8
170
     0
171
     3
172
     1
173
     0
174
     0
175
     0
176
     0
177
     0
178
     0
  0
DIMSTYLE
  2
AM_ISO
 70
     0
  3

  4
"
  5

  6

  7

 40
1.0
 41
2.5
 42
1.0
 43
10.0
 44
1.0
 45
0.0
 46
0.0
 47
0.1
 48
0.1
140
3.5
141
0.0
142
0.0
143
0.0393701
144
1.0
145
0.0
146
0.71
147
1.5
 71
     0
 72
     0
 73
     0
 74
     0
 75
     0
 76
     0
 77
     1
 78
     8
170
     0
171
     2
172
     1
173
     0
174
     0
175
     0
176
   256
177
   256
178
     2
  0
DIMSTYLE
  2
DETAY-1
 70
     0
  3

  4

  5

  6

  7

 40
1.0
 41
2.5
 42
0.625
 43
3.75
 44
1.25
 45
0.0
 46
0.0
 47
0.0
 48
0.0
140
2.5
141
2.5
142
0.0
143
0.03937007874016
144
1.0
145
0.0
146
1.0
147
0.5
 71
     0
 72
     0
 73
     0
 74
     0
 75
     0
 76
     0
 77
     1
 78
     8
170
     0
171
     3
172
     1
173
     0
174
     0
175
     0
176
     0
177
     0
178
     0
  0
DIMSTYLE
  2
ISO-25_1_E_1
 70
     0
  3

  4

  5

  6

  7

 40
1.0
 41
1.3
 42
0.0
 43
3.75
 44
0.2
 45
0.0
 46
0.0
 47
0.0
 48
0.0
140
1.0
141
0.2
142
0.0
143
0.03937007874016
144
1.0
145
0.0
146
1.0
147
0.7
 71
     0
 72
     0
 73
     0
 74
     0
 75
     0
 76
     0
 77
     1
 78
     8
170
     0
171
     3
172
     0
173
     0
174
     0
175
     0
176
   242
177
   242
178
   242
  0
DIMSTYLE
  2
ISO-25_1_E_2
 70
     0
  3

  4

  5

  6

  7

 40
1.0
 41
2.299999999999998
 42
0.0
 43
3.75
 44
0.0
 45
0.0
 46
0.0
 47
0.0
 48
0.0
140
2.299999999999998
141
0.2
142
0.0
143
0.03937007874016
144
0.5
145
0.0
146
1.0
147
0.2
 71
     0
 72
     0
 73
     0
 74
     0
 75
     0
 76
     0
 77
     1
 78
     8
170
     0
171
     3
172
     0
173
     0
174
     0
175
     0
176
   242
177
   242
178
     1
  0
DIMSTYLE
  2
ISO-25_1_E_4
 70
     0
  3

  4

  5

  6

  7

 40
1.0
 41
2.5
 42
0.0
 43
3.75
 44
0.3
 45
0.0
 46
0.0
 47
0.0
 48
0.0
140
2.299999999999998
141
0.2
142
0.0
143
0.03937007874016
144
0.25
145
0.0
146
1.0
147
0.3
 71
     0
 72
     0
 73
     0
 74
     0
 75
     0
 76
     0
 77
     1
 78
     8
170
     0
171
     3
172
     0
173
     0
174
     0
175
     0
176
   242
177
   242
178
     1
  0
ENDTAB
  0
ENDSEC
  0
SECTION
  2
BLOCKS
  0
BLOCK
  8
0
  2
$MODEL_SPACE
 70
     0
 10
0.0
 20
0.0
 30
0.0
  3
$MODEL_SPACE
  1

  0
ENDBLK
  5
21
  8
0
  0
BLOCK
 67
     1
  8
0
  2
$PAPER_SPACE
 70
     0
 10
0.0
 20
0.0
 30
0.0
  3
$PAPER_SPACE
  1

  0
ENDBLK
  5
53
 67
     1
  8
0
  0
BLOCK
  8
0
  2
*X2
 70
     1
 10
0.0
 20
0.0
 30
0.0
  3
*X2
  1

  0
LINE
  5
11A
  8
0
 62
     0
 10
119.6431197800903
 20
0.0000002580654836
 30
0.0
 11
119.99999981725161
 21
0.356880295227711
 31
0.0
  0
LINE
  5
11B
  8
0
 62
     0
 10
118.52397213022959
 20
0.0033846233372969
 30
0.0
 11
119.99999981725161
 21
1.4794123103592931
 31
0.0
  0
LINE
  5
11C
  8
0
 62
     0
 10
117.59565664841099
 20
0.1976011566539455
 30
0.0
 11
119.99999981725161
 21
2.601944325494514
 31
0.0
  0
LINE
  5
11D
  8
0
 62
     0
 10
118.48648080584189
 20
2.2109573292163982
 30
0.0
 11
119.9999998172525
 21
3.7244763406270058
 31
0.0
  0
LINE
  5
11E
  8
0
 62
     0
 10
116.87163218394829
 20
0.5961087073228555
 30
0.0
 11
118.28904274610071
 21
2.0135192694751818
 31
0.0
  0
LINE
  5
11F
  8
0
 62
     0
 10
118.49999981725161
 20
3.347008355760408
 30
0.0
 11
119.99999981725161
 21
4.8470083557613171
 31
0.0
  0
LINE
  5
120
  8
0
 62
     0
 10
116.30398267341479
 20
1.1509912119236101
 30
0.0
 11
117.1529917195557
 21
2.0000002580645742
 31
0.0
  0
LINE
  5
121
  8
0
 62
     0
 10
118.49999981725161
 20
4.4695403708956292
 30
0.0
 11
119.99999981725161
 21
5.9695403708956292
 31
0.0
  0
LINE
  5
122
  8
0
 62
     0
 10
117.90792768928711
 20
5.0000002580636638
 30
0.0
 11
119.9999998172507
 21
7.092072386027211
 31
0.0
  0
LINE
  5
123
  8
0
 62
     0
 10
118.49999981725161
 20
6.7146044011624317
 30
0.0
 11
119.99999981725161
 21
8.2146044011624326
 31
0.0
  0
LINE
  5
124
  8
0
 62
     0
 10
116.7853956741528
 20
5.0000002580636638
 30
0.0
 11
118.2853956741555
 21
6.5000002580663931
 31
0.0
  0
LINE
  5
125
  8
0
 62
     0
 10
118.4999998172506
 20
7.8371364162940154
 30
0.0
 11
119.9999998172525
 21
9.3371364162958344
 31
0.0
  0
LINE
  5
126
  8
0
 62
     0
 10
115.6628636590203
 20
5.0000002580636638
 30
0.0
 11
117.162863659023
 21
6.5000002580663931
 31
0.0
  0
LINE
  5
127
  8
0
 62
     0
 10
118.49999981725161
 20
8.9596684314292361
 30
0.0
 11
119.99999981725161
 21
10.459668431429231
 31
0.0
  0
LINE
  5
128
  8
0
 62
     0
 10
114.54033164388601
 20
5.0000002580636638
 30
0.0
 11
116.0403316438878
 21
6.5000002580654828
 31
0.0
  0
LINE
  5
129
  8
0
 62
     0
 10
118.4999998172525
 20
10.08220044656264
 30
0.0
 11
119.9999998172525
 21
11.58220044656264
 31
0.0
  0
LINE
  5
12A
  8
0
 62
     0
 10
113.4177996287535
 20
5.0000002580636638
 30
0.0
 11
114.91779962875439
 21
6.5000002580645742
 31
0.0
  0
LINE
  5
12B
  8
0
 62
     0
 10
118.49999981725161
 20
11.20473246169604
 30
0.0
 11
119.99999981725161
 21
12.70473246169604
 31
0.0
  0
LINE
  5
12C
  8
0
 62
     0
 10
112.2952676136192
 20
5.0000002580636638
 30
0.0
 11
113.79526761362099
 21
6.5000002580654828
 31
0.0
  0
LINE
  5
12D
  8
0
 62
     0
 10
118.49999981725161
 20
12.327264476829439
 30
0.0
 11
119.99999981725161
 21
13.827264476829439
 31
0.0
  0
LINE
  5
12E
  8
0
 62
     0
 10
111.1727355984858
 20
5.0000002580636638
 30
0.0
 11
112.6727355984867
 21
6.5000002580645742
 31
0.0
  0
LINE
  5
12F
  8
0
 62
     0
 10
118.4999998172506
 20
13.449796491962839
 30
0.0
 11
119.9999998172525
 21
14.94979649196466
 31
0.0
  0
LINE
  5
130
  8
0
 62
     0
 10
110.0502035833515
 20
5.0000002580636638
 30
0.0
 11
111.55020358335329
 21
6.5000002580654828
 31
0.0
  0
LINE
  5
131
  8
0
 62
     0
 10
118.49999981725161
 20
14.57232850709806
 30
0.0
 11
119.99999981725161
 21
16.07232850709806
 31
0.0
  0
LINE
  5
132
  8
0
 62
     0
 10
109.0888356927353
 20
5.1611643825817728
 30
0.0
 11
110.427671568219
 21
6.5000002580654828
 31
0.0
  0
LINE
  5
133
  8
0
 62
     0
 10
118.49999981725161
 20
15.694860522230551
 30
0.0
 11
119.99999981725161
 21
17.194860522231458
 31
0.0
  0
LINE
  5
134
  8
0
 62
     0
 10
107.8051395530847
 20
5.0000002580636638
 30
0.0
 11
109.30513955308651
 21
6.5000002580654828
 31
0.0
  0
LINE
  5
135
  8
0
 62
     0
 10
118.4999998172506
 20
16.817392537364871
 30
0.0
 11
119.99999981725161
 21
18.31739253736486
 31
0.0
  0
LINE
  5
136
  8
0
 62
     0
 10
106.68260753795219
 20
5.0000002580654828
 30
0.0
 11
108.18260753795219
 21
6.5000002580654828
 31
0.0
  0
LINE
  5
137
  8
0
 62
     0
 10
118.49999981725161
 20
17.939924552497359
 30
0.0
 11
119.99999981725161
 21
19.439924552498269
 31
0.0
  0
LINE
  5
138
  8
0
 62
     0
 10
105.5600755228179
 20
5.0000002580636638
 30
0.0
 11
107.0600755228197
 21
6.5000002580654828
 31
0.0
  0
LINE
  5
139
  8
0
 62
     0
 10
104.4375435076854
 20
5.0000002580654828
 30
0.0
 11
105.9375435076854
 21
6.5000002580654828
 31
0.0
  0
LINE
  5
13A
  8
0
 62
     0
 10
118.4999998172506
 20
19.062456567631671
 30
0.0
 11
119.9999998172525
 21
20.56245656763258
 31
0.0
  0
LINE
  5
13B
  8
0
 62
     0
 10
99.51625236803558
 20
0.0787091184156452
 30
0.0
 11
101.3785925440534
 21
1.941049294433469
 31
0.0
  0
LINE
  5
13C
  8
0
 62
     0
 10
103.3150114925529
 20
5.0000002580654828
 30
0.0
 11
104.81501149255109
 21
6.5000002580636638
 31
0.0
  0
LINE
  5
13D
  8
0
 62
     0
 10
118.49999981725161
 20
20.184988582764159
 30
0.0
 11
119.99999981725161
 21
21.684988582765069
 31
0.0
  0
LINE
  5
13E
  8
0
 62
     0
 10
98.315011492550184
 20
0.0000002580627552
 30
0.0
 11
100.31501149255109
 21
2.0000002580636642
 31
0.0
  0
LINE
  5
13F
  8
0
 62
     0
 10
102.19247947741771
 20
5.0000002580654828
 30
0.0
 11
103.6924794774167
 21
6.5000002580645742
 31
0.0
  0
LINE
  5
140
  8
0
 62
     0
 10
118.49999981725161
 20
21.30752059789938
 30
0.0
 11
119.99999981725161
 21
22.80752059789938
 31
0.0
  0
LINE
  5
141
  8
0
 62
     0
 10
97.499999817250682
 20
0.3075205978984741
 30
0.0
 11
99.207194956569765
 21
2.014715737217557
 31
0.0
  0
LINE
  5
142
  8
0
 62
     0
 10
101.0699474622852
 20
5.0000002580673018
 30
0.0
 11
102.5699474622824
 21
6.5000002580645742
 31
0.0
  0
LINE
  5
143
  8
0
 62
     0
 10
118.4999998172506
 20
22.430052613032789
 30
0.0
 11
119.9999998172507
 21
23.930052613032789
 31
0.0
  0
LINE
  5
144
  8
0
 62
     0
 10
97.499999817251606
 20
1.4300526130336939
 30
0.0
 11
98.999999817251592
 21
2.9300526130336939
 31
0.0
  0
LINE
  5
145
  8
0
 62
     0
 10
99.947415447150902
 20
5.0000002580654828
 30
0.0
 11
101.44741544714999
 21
6.5000002580645742
 31
0.0
  0
LINE
  5
146
  8
0
 62
     0
 10
118.49999981725161
 20
23.552584628166191
 30
0.0
 11
119.99999981725161
 21
25.052584628166191
 31
0.0
  0
LINE
  5
147
  8
0
 62
     0
 10
97.499999817251606
 20
2.552584628166187
 30
0.0
 11
98.999999817251592
 21
4.0525846281670956
 31
0.0
  0
LINE
  5
148
  8
0
 62
     0
 10
118.4999998172506
 20
24.675116643299589
 30
0.0
 11
119.9999998172507
 21
26.175116643299589
 31
0.0
  0
LINE
  5
149
  8
0
 62
     0
 10
97.499999817250682
 20
3.6751166433004978
 30
0.0
 11
100.3248834320156
 21
6.5000002580645742
 31
0.0
  0
LINE
  5
14A
  8
0
 62
     0
 10
118.49999981725161
 20
25.79764865843299
 30
0.0
 11
119.99999981725161
 21
27.29764865843299
 31
0.0
  0
LINE
  5
14B
  8
0
 62
     0
 10
97.487625228309284
 20
4.785274069490697
 30
0.0
 11
99.202351416883175
 21
6.5000002580645742
 31
0.0
  0
LINE
  5
14C
  8
0
 62
     0
 10
118.4999998172525
 20
26.920180673568211
 30
0.0
 11
119.9999998172525
 21
28.420180673568211
 31
0.0
  0
LINE
  5
14D
  8
0
 62
     0
 10
96.579819401749774
 20
5.0000002580654828
 30
0.0
 11
98.079819401748864
 21
6.5000002580645742
 31
0.0
  0
LINE
  5
14E
  8
0
 62
     0
 10
118.49999981725161
 20
28.042712688699801
 30
0.0
 11
119.99999981725161
 21
29.54271268869979
 31
0.0
  0
LINE
  5
14F
  8
0
 62
     0
 10
95.457287386615462
 20
5.0000002580645742
 30
0.0
 11
96.957287386614567
 21
6.5000002580627552
 31
0.0
  0
LINE
  5
150
  8
0
 62
     0
 10
118.49999981725161
 20
29.165244703835022
 30
0.0
 11
119.99999981725161
 21
30.665244703835022
 31
0.0
  0
LINE
  5
151
  8
0
 62
     0
 10
94.334755371482061
 20
5.0000002580654828
 30
0.0
 11
95.834755371481165
 21
6.5000002580645742
 31
0.0
  0
LINE
  5
152
  8
0
 62
     0
 10
118.4999998172506
 20
30.28777671896842
 30
0.0
 11
119.9999998172507
 21
31.78777671896842
 31
0.0
  0
LINE
  5
153
  8
0
 62
     0
 10
93.212223356347749
 20
5.0000002580663931
 30
0.0
 11
94.712223356346826
 21
6.5000002580645742
 31
0.0
  0
LINE
  5
154
  8
0
 62
     0
 10
118.49999981725161
 20
31.410308734101822
 30
0.0
 11
119.99999981725161
 21
32.910308734101818
 31
0.0
  0
LINE
  5
155
  8
0
 62
     0
 10
92.089691341215257
 20
5.0000002580654828
 30
0.0
 11
93.589691341214348
 21
6.5000002580645742
 31
0.0
  0
LINE
  5
156
  8
0
 62
     0
 10
118.49999981725161
 20
32.532840749236129
 30
0.0
 11
119.99999981725161
 21
34.032840749237039
 31
0.0
  0
LINE
  5
157
  8
0
 62
     0
 10
90.967159326080946
 20
5.0000002580663931
 30
0.0
 11
92.467159326080036
 21
6.5000002580645742
 31
0.0
  0
LINE
  5
158
  8
0
 62
     0
 10
118.4999998172506
 20
33.655372764368622
 30
0.0
 11
119.99999981725161
 21
35.155372764368622
 31
0.0
  0
LINE
  5
159
  8
0
 62
     0
 10
90.09731356409975
 20
5.2526865112167789
 30
0.0
 11
91.344627310946635
 21
6.5000002580636638
 31
0.0
  0
LINE
  5
15A
  8
0
 62
     0
 10
118.49999981725161
 20
34.777904779502933
 30
0.0
 11
119.99999981725161
 21
36.277904779503842
 31
0.0
  0
LINE
  5
15B
  8
0
 62
     0
 10
88.722095295815052
 20
5.0000002580663931
 30
0.0
 11
90.222095295812323
 21
6.5000002580636638
 31
0.0
  0
LINE
  5
15C
  8
0
 62
     0
 10
118.4999998172506
 20
35.900436794635432
 30
0.0
 11
119.99999981725161
 21
37.400436794635432
 31
0.0
  0
LINE
  5
15D
  8
0
 62
     0
 10
87.599563280680741
 20
5.0000002580645742
 30
0.0
 11
89.099563280678012
 21
6.5000002580618448
 31
0.0
  0
LINE
  5
15E
  8
0
 62
     0
 10
86.477031265548248
 20
5.0000002580663931
 30
0.0
 11
87.97703126554552
 21
6.5000002580636638
 31
0.0
  0
LINE
  5
15F
  8
0
 62
     0
 10
118.49999981725161
 20
37.022968809769743
 30
0.0
 11
119.99999981725161
 21
38.522968809769743
 31
0.0
  0
LINE
  5
160
  8
0
 62
     0
 10
81.477031265545506
 20
0.0000002580636647
 30
0.0
 11
82.199999817252319
 21
0.7229688097704639
 31
0.0
  0
LINE
  5
161
  8
0
 62
     0
 10
85.354499250413028
 20
5.0000002580663931
 30
0.0
 11
86.854499250412104
 21
6.5000002580654828
 31
0.0
  0
LINE
  5
162
  8
0
 62
     0
 10
118.49999981725161
 20
38.145500824904957
 30
0.0
 11
119.9999998172507
 21
39.645500824904047
 31
0.0
  0
LINE
  5
163
  8
0
 62
     0
 10
80.392216380433624
 20
0.0377173880870032
 30
0.0
 11
82.199999817252319
 21
1.8455008249056839
 31
0.0
  0
LINE
  5
164
  8
0
 62
     0
 10
84.231967235280536
 20
5.0000002580663931
 30
0.0
 11
85.731967235277807
 21
6.5000002580636638
 31
0.0
  0
LINE
  5
165
  8
0
 62
     0
 10
118.4999998172506
 20
39.26803284003654
 30
0.0
 11
119.9999998172507
 21
40.76803284003654
 31
0.0
  0
LINE
  5
166
  8
0
 62
     0
 10
79.540760239021424
 20
0.3087932618072955
 30
0.0
 11
82.19999981725141
 21
2.9680328400372669
 31
0.0
  0
LINE
  5
167
  8
0
 62
     0
 10
83.109435220144405
 20
5.0000002580645742
 30
0.0
 11
84.609435220143496
 21
6.5000002580636638
 31
0.0
  0
LINE
  5
168
  8
0
 62
     0
 10
80.69999981725141
 20
2.5905648551715781
 30
0.0
 11
82.199999817252319
 21
4.090564855172488
 31
0.0
  0
LINE
  5
169
  8
0
 62
     0
 10
118.49999981725161
 20
40.39056485517176
 30
0.0
 11
119.99999981725161
 21
41.89056485517176
 31
0.0
  0
LINE
  5
16A
  8
0
 62
     0
 10
78.870095585865784
 20
0.7606606237859525
 30
0.0
 11
80.109435220144405
 21
2.0000002580645742
 31
0.0
  0
LINE
  5
16B
  8
0
 62
     0
 10
80.699999817252305
 20
3.7130968703049798
 30
0.0
 11
83.486903205010094
 21
6.5000002580627552
 31
0.0
  0
LINE
  5
16C
  8
0
 62
     0
 10
118.4999998172506
 20
41.513096870303343
 30
0.0
 11
119.9999998172507
 21
43.013096870303343
 31
0.0
  0
LINE
  5
16D
  8
0
 62
     0
 10
78.351430759997129
 20
1.3645278130497891
 30
0.0
 11
78.986903205010094
 21
2.0000002580627552
 31
0.0
  0
LINE
  5
16E
  8
0
 62
     0
 10
118.49999981725161
 20
42.635628885438557
 30
0.0
 11
119.99999981725161
 21
44.135628885438557
 31
0.0
  0
LINE
  5
16F
  8
0
 62
     0
 10
80.677750104056955
 20
4.8133791722439119
 30
0.0
 11
82.364371189876692
 21
6.5000002580636638
 31
0.0
  0
LINE
  5
170
  8
0
 62
     0
 10
117.54183917474251
 20
42.80000025806202
 30
0.0
 11
119.9999998172507
 21
45.258160900570147
 31
0.0
  0
LINE
  5
171
  8
0
 62
     0
 10
79.74183917474511
 20
5.0000002580645742
 30
0.0
 11
81.241839174743291
 21
6.5000002580627552
 31
0.0
  0
LINE
  5
172
  8
0
 62
     0
 10
116.41930715961
 20
42.800000258063839
 30
0.0
 11
117.91930715961099
 21
44.300000258064749
 31
0.0
  0
LINE
  5
173
  8
0
 62
     0
 10
118.49999981725161
 20
44.88069291570536
 30
0.0
 11
119.99999981725161
 21
46.380692915705367
 31
0.0
  0
LINE
  5
174
  8
0
 62
     0
 10
78.619307159610784
 20
5.0000002580654828
 30
0.0
 11
80.119307159609889
 21
6.5000002580636638
 31
0.0
  0
LINE
  5
175
  8
0
 62
     0
 10
115.29677514447479
 20
42.80000025806202
 30
0.0
 11
116.79677514447749
 21
44.300000258064749
 31
0.0
  0
LINE
  5
176
  8
0
 62
     0
 10
118.49999981725161
 20
46.003224930838769
 30
0.0
 11
119.99999981725161
 21
47.503224930838769
 31
0.0
  0
LINE
  5
177
  8
0
 62
     0
 10
77.496775144477397
 20
5.0000002580645742
 30
0.0
 11
78.996775144473744
 21
6.5000002580609362
 31
0.0
  0
LINE
  5
178
  8
0
 62
     0
 10
114.1742431293405
 20
42.80000025806202
 30
0.0
 11
115.6742431293432
 21
44.300000258064749
 31
0.0
  0
LINE
  5
179
  8
0
 62
     0
 10
118.48053764906309
 20
47.106294777784562
 30
0.0
 11
119.9999998172507
 21
48.625756945972171
 31
0.0
  0
LINE
  5
17A
  8
0
 62
     0
 10
76.374243129343085
 20
5.0000002580654828
 30
0.0
 11
77.874243129341266
 21
6.5000002580627552
 31
0.0
  0
LINE
  5
17B
  8
0
 62
     0
 10
113.0517111142062
 20
42.80000025806202
 30
0.0
 11
114.5517111142108
 21
44.300000258066568
 31
0.0
  0
LINE
  5
17C
  8
0
 62
     0
 10
117.55171111420989
 20
47.300000258065673
 30
0.0
 11
119.5517111142089
 21
49.300000258064749
 31
0.0
  0
LINE
  5
17D
  8
0
 62
     0
 10
75.251711114209684
 20
5.0000002580654828
 30
0.0
 11
76.751711114206955
 21
6.5000002580627552
 31
0.0
  0
LINE
  5
17E
  8
0
 62
     0
 10
111.92917909907371
 20
42.80000025806202
 30
0.0
 11
113.42917909907641
 21
44.300000258064749
 31
0.0
  0
LINE
  5
17F
  8
0
 62
     0
 10
116.4291790990773
 20
47.300000258065673
 30
0.0
 11
118.4189541485448
 21
49.289775307533091
 31
0.0
  0
LINE
  5
180
  8
0
 62
     0
 10
74.129179099075373
 20
5.0000002580636638
 30
0.0
 11
75.629179099074463
 21
6.5000002580627552
 31
0.0
  0
LINE
  5
181
  8
0
 62
     0
 10
110.8066470839394
 20
42.80000025806202
 30
0.0
 11
112.30664708394301
 21
44.300000258065658
 31
0.0
  0
LINE
  5
182
  8
0
 62
     0
 10
73.00664708394288
 20
5.0000002580654828
 30
0.0
 11
74.506647083940152
 21
6.5000002580627552
 31
0.0
  0
LINE
  5
183
  8
0
 62
     0
 10
109.6841150688069
 20
42.80000025806202
 30
0.0
 11
111.18411506880869
 21
44.300000258063847
 31
0.0
  0
LINE
  5
184
  8
0
 62
     0
 10
71.88411506880766
 20
5.0000002580627552
 30
0.0
 11
73.38411506880675
 21
6.5000002580618448
 31
0.0
  0
LINE
  5
185
  8
0
 62
     0
 10
108.5615830536744
 20
42.800000258063839
 30
0.0
 11
110.0615830536762
 21
44.300000258065658
 31
0.0
  0
LINE
  5
186
  8
0
 62
     0
 10
71.105791435464198
 20
5.3442086398536039
 30
0.0
 11
72.261583053673334
 21
6.5000002580627552
 31
0.0
  0
LINE
  5
187
  8
0
 62
     0
 10
107.4390510385401
 20
42.80000025806202
 30
0.0
 11
108.59452542789769
 21
43.955474647419578
 31
0.0
  0
LINE
  5
188
  8
0
 62
     0
 10
69.639051038540856
 20
5.0000002580627552
 30
0.0
 11
71.139051038539947
 21
6.5000002580618448
 31
0.0
  0
LINE
  5
189
  8
0
 62
     0
 10
106.31651902340489
 20
42.80000025806202
 30
0.0
 11
107.8165190234085
 21
44.300000258065658
 31
0.0
  0
LINE
  5
18A
  8
0
 62
     0
 10
68.516519023406545
 20
5.0000002580636638
 30
0.0
 11
70.016519023404726
 21
6.5000002580618448
 31
0.0
  0
LINE
  5
18B
  8
0
 62
     0
 10
105.1939870082724
 20
42.800000258063839
 30
0.0
 11
106.69398700827421
 21
44.300000258065658
 31
0.0
  0
LINE
  5
18C
  8
0
 62
     0
 10
67.393987008273143
 20
5.0000002580645742
 30
0.0
 11
68.893987008272234
 21
6.5000002580636638
 31
0.0
  0
LINE
  5
18D
  8
0
 62
     0
 10
66.271454993139741
 20
5.0000002580636638
 30
0.0
 11
67.771454993137922
 21
6.5000002580618448
 31
0.0
  0
LINE
  5
18E
  8
0
 62
     0
 10
104.07145499313989
 20
42.800000258063839
 30
0.0
 11
105.5714549931417
 21
44.300000258065658
 31
0.0
  0
LINE
  5
18F
  8
0
 62
     0
 10
61.281737287919889
 20
0.0102825528438189
 30
0.0
 11
63.271454993139741
 21
2.0000002580636642
 31
0.0
  0
LINE
  5
190
  8
0
 62
     0
 10
65.14892297800634
 20
5.0000002580645742
 30
0.0
 11
66.648922978003611
 21
6.5000002580618448
 31
0.0
  0
LINE
  5
191
  8
0
 62
     0
 10
102.9489229780056
 20
42.800000258063839
 30
0.0
 11
104.4489229780074
 21
44.300000258065658
 31
0.0
  0
LINE
  5
192
  8
0
 62
     0
 10
60.14892297800634
 20
0.0000002580645742
 30
0.0
 11
62.148922978007249
 21
2.0000002580654832
 31
0.0
  0
LINE
  5
193
  8
0
 62
     0
 10
64.026390962872014
 20
5.0000002580627552
 30
0.0
 11
65.5263909628693
 21
6.5000002580609362
 31
0.0
  0
LINE
  5
194
  8
0
 62
     0
 10
101.8263909628713
 20
42.800000258062937
 30
0.0
 11
103.32639096287311
 21
44.300000258063847
 31
0.0
  0
LINE
  5
195
  8
0
 62
     0
 10
59.699999817252319
 20
0.6736091124430459
 30
0.0
 11
61.21963663562201
 21
2.1932459308127359
 31
0.0
  0
LINE
  5
196
  8
0
 62
     0
 10
62.903858947739543
 20
5.0000002580645742
 30
0.0
 11
64.403858947736794
 21
6.5000002580618448
 31
0.0
  0
LINE
  5
197
  8
0
 62
     0
 10
100.70385894773879
 20
42.800000258063839
 30
0.0
 11
102.2038589477406
 21
44.300000258065658
 31
0.0
  0
LINE
  5
198
  8
0
 62
     0
 10
59.699999817252319
 20
1.7961411275773571
 30
0.0
 11
61.199999817253229
 21
3.2961411275782662
 31
0.0
  0
LINE
  5
199
  8
0
 62
     0
 10
61.781326932605218
 20
5.0000002580627552
 30
0.0
 11
63.281326932602497
 21
6.5000002580609362
 31
0.0
  0
LINE
  5
19A
  8
0
 62
     0
 10
99.581326932605407
 20
42.800000258062937
 30
0.0
 11
101.0813269326063
 21
44.300000258063847
 31
0.0
  0
LINE
  5
19B
  8
0
 62
     0
 10
59.699999817252319
 20
2.9186731427098489
 30
0.0
 11
61.199999817252319
 21
4.4186731427098493
 31
0.0
  0
LINE
  5
19C
  8
0
 62
     0
 10
98.4587949174702
 20
42.800000258062937
 30
0.0
 11
99.958794917472915
 21
44.300000258065658
 31
0.0
  0
LINE
  5
19D
  8
0
 62
     0
 10
59.69999981725141
 20
4.0412051578441597
 30
0.0
 11
62.158794917469102
 21
6.5000002580618448
 31
0.0
  0
LINE
  5
19E
  8
0
 62
     0
 10
97.336262902337694
 20
42.800000258064749
 30
0.0
 11
99.022433746948082
 21
44.486171102675137
 31
0.0
  0
LINE
  5
19F
  8
0
 62
     0
 10
59.531168581916972
 20
4.9949059376440337
 30
0.0
 11
61.036262902335693
 21
6.5000002580627552
 31
0.0
  0
LINE
  5
1A0
  8
0
 62
     0
 10
96.213730887203397
 20
42.800000258062937
 30
0.0
 11
98.999999817251592
 21
45.586269188111139
 31
0.0
  0
LINE
  5
1A1
  8
0
 62
     0
 10
100.71373088720431
 20
47.300000258063847
 30
0.0
 11
101.34881885393131
 21
47.935088224790888
 31
0.0
  0
LINE
  5
1A2
  8
0
 62
     0
 10
58.517211459827188
 20
5.1034808306867481
 30
0.0
 11
59.913730887201382
 21
6.5000002580609362
 31
0.0
  0
LINE
  5
1A3
  8
0
 62
     0
 10
97.499999817250682
 20
45.208801203244548
 30
0.0
 11
98.999999817250682
 21
46.708801203244541
 31
0.0
  0
LINE
  5
1A4
  8
0
 62
     0
 10
95.091198872070905
 20
42.800000258064749
 30
0.0
 11
96.591198872070905
 21
44.300000258064749
 31
0.0
  0
LINE
  5
1A5
  8
0
 62
     0
 10
99.591198872070891
 20
47.300000258064749
 30
0.0
 11
100.83023945328659
 21
48.53904083928046
 31
0.0
  0
LINE
  5
1A6
  8
0
 62
     0
 10
57.48498735231987
 20
5.1937887383137422
 30
0.0
 11
58.869580872064937
 21
6.5783822580588094
 31
0.0
  0
LINE
  5
1A7
  8
0
 62
     0
 10
93.968666856936565
 20
42.800000258062937
 30
0.0
 11
95.468666856938398
 21
44.300000258064749
 31
0.0
  0
LINE
  5
1A8
  8
0
 62
     0
 10
97.499999817251606
 20
46.331333218377949
 30
0.0
 11
100.1596644381579
 21
48.990997839284319
 31
0.0
  0
LINE
  5
1A9
  8
0
 62
     0
 10
56.452763244810733
 20
5.2840966459370966
 30
0.0
 11
57.837356764556709
 21
6.6686901656830742
 31
0.0
  0
LINE
  5
1AA
  8
0
 62
     0
 10
92.846134841804087
 20
42.800000258064749
 30
0.0
 11
94.346134841804087
 21
44.300000258064749
 31
0.0
  0
LINE
  5
1AB
  8
0
 62
     0
 10
97.499999817252515
 20
47.453865233513163
 30
0.0
 11
99.308330115943136
 21
49.262195532203812
 31
0.0
  0
LINE
  5
1AC
  8
0
 62
     0
 10
55.420539137303422
 20
5.3744045535640899
 30
0.0
 11
56.805132657047579
 21
6.7589980733082484
 31
0.0
  0
LINE
  5
1AD
  8
0
 62
     0
 10
91.723602826669776
 20
42.800000258062937
 30
0.0
 11
93.223602826671595
 21
44.300000258064749
 31
0.0
  0
LINE
  5
1AE
  8
0
 62
     0
 10
97.499999817251606
 20
48.576397248644753
 30
0.0
 11
98.223602826670685
 21
49.300000258063847
 31
0.0
  0
LINE
  5
1AF
  8
0
 62
     0
 10
54.388315029794292
 20
5.464712461187446
 30
0.0
 11
55.772908549540261
 21
6.8493059809334218
 31
0.0
  0
LINE
  5
1B0
  8
0
 62
     0
 10
90.601070811537284
 20
42.800000258064749
 30
0.0
 11
92.101070811537284
 21
44.300000258064749
 31
0.0
  0
LINE
  5
1B1
  8
0
 62
     0
 10
53.356090922286967
 20
5.5550203688144393
 30
0.0
 11
54.740684442031117
 21
6.9396138885585961
 31
0.0
  0
LINE
  5
1B2
  8
0
 62
     0
 10
89.478538796402063
 20
42.800000258064749
 30
0.0
 11
90.978538796403868
 21
44.300000258066568
 31
0.0
  0
LINE
  5
1B3
  8
0
 62
     0
 10
52.32386681477692
 20
5.6453282764396127
 30
0.0
 11
53.708460334522897
 21
7.0299217961855902
 31
0.0
  0
LINE
  5
1B4
  8
0
 62
     0
 10
88.356006781267752
 20
42.800000258062937
 30
0.0
 11
89.603003299261218
 21
44.046996776056403
 31
0.0
  0
LINE
  5
1B5
  8
0
 62
     0
 10
51.291642707268693
 20
5.7356361840638783
 30
0.0
 11
52.67623622701376
 21
7.1202297038089446
 31
0.0
  0
LINE
  5
1B6
  8
0
 62
     0
 10
87.233474766135245
 20
42.800000258064749
 30
0.0
 11
88.733474766135259
 21
44.300000258064749
 31
0.0
  0
LINE
  5
1B7
  8
0
 62
     0
 10
50.259418599760473
 20
5.8259440916899621
 30
0.0
 11
51.644012119506442
 21
7.2105376114359379
 31
0.0
  0
LINE
  5
1B8
  8
0
 62
     0
 10
86.110942751000948
 20
42.800000258062937
 30
0.0
 11
87.610942751002753
 21
44.300000258064749
 31
0.0
  0
LINE
  5
1B9
  8
0
 62
     0
 10
49.227194492251328
 20
5.916251999314226
 30
0.0
 11
50.611788011997298
 21
7.300845519059294
 31
0.0
  0
LINE
  5
1BA
  8
0
 62
     0
 10
84.988410735868456
 20
42.800000258064749
 30
0.0
 11
86.488410735868456
 21
44.300000258064749
 31
0.0
  0
LINE
  5
1BB
  8
0
 62
     0
 10
48.194970384744011
 20
6.0065599069403097
 30
0.0
 11
49.579563904488168
 21
7.3911534266844683
 31
0.0
  0
LINE
  5
1BC
  8
0
 62
     0
 10
83.865878720735964
 20
42.800000258064749
 30
0.0
 11
85.365878720735964
 21
44.300000258064749
 31
0.0
  0
LINE
  5
1BD
  8
0
 62
     0
 10
47.162746277234866
 20
6.0968678145645754
 30
0.0
 11
48.54733979698085
 21
7.4814613343096417
 31
0.0
  0
LINE
  5
1BE
  8
0
 62
     0
 10
82.743346705601653
 20
42.800000258064749
 30
0.0
 11
84.243346705601653
 21
44.300000258064749
 31
0.0
  0
LINE
  5
1BF
  8
0
 62
     0
 10
46.130522169727548
 20
6.1871757221906591
 30
0.0
 11
47.515115689471713
 21
7.5717692419348159
 31
0.0
  0
LINE
  5
1C0
  8
0
 62
     0
 10
81.620814690468251
 20
42.800000258064749
 30
0.0
 11
83.120814690468251
 21
44.300000258064749
 31
0.0
  0
LINE
  5
1C1
  8
0
 62
     0
 10
45.098298062217509
 20
6.2774836298140144
 30
0.0
 11
46.482891581963479
 21
7.6620771495599911
 31
0.0
  0
LINE
  5
1C2
  8
0
 62
     0
 10
80.49828267533394
 20
42.800000258064749
 30
0.0
 11
82.212519841667927
 21
44.514237424398743
 31
0.0
  0
LINE
  5
1C3
  8
0
 62
     0
 10
44.066073954709282
 20
6.3677915374400982
 30
0.0
 11
45.450667474456161
 21
7.7523850571869843
 31
0.0
  0
LINE
  5
1C4
  8
0
 62
     0
 10
79.375750660201433
 20
42.800000258066568
 30
0.0
 11
82.19999981725141
 21
45.62424941511653
 31
0.0
  0
LINE
  5
1C5
  8
0
 62
     0
 10
43.033849847200138
 20
6.4580994450652716
 30
0.0
 11
44.418443366947017
 21
7.8426929648121577
 31
0.0
  0
LINE
  5
1C6
  8
0
 62
     0
 10
78.253218645067136
 20
42.800000258064749
 30
0.0
 11
79.753218645067136
 21
44.300000258064749
 31
0.0
  0
LINE
  5
1C7
  8
0
 62
     0
 10
80.699999817252305
 20
45.246781430249939
 30
0.0
 11
82.199999817252319
 21
46.746781430249932
 31
0.0
  0
LINE
  5
1C8
  8
0
 62
     0
 10
42.00162573969282
 20
6.5484073526904458
 30
0.0
 11
43.386219259437887
 21
7.933000872435513
 31
0.0
  0
LINE
  5
1C9
  8
0
 62
     0
 10
77.130686629932825
 20
42.800000258064749
 30
0.0
 11
78.630686629934644
 21
44.300000258066568
 31
0.0
  0
LINE
  5
1CA
  8
0
 62
     0
 10
80.699999817252305
 20
46.36931344538425
 30
0.0
 11
82.19999981725141
 21
47.869313445383327
 31
0.0
  0
LINE
  5
1CB
  8
0
 62
     0
 10
40.969401632184599
 20
6.6387152603165296
 30
0.0
 11
42.353995151930583
 21
8.0233087800625071
 31
0.0
  0
LINE
  5
1CC
  8
0
 62
     0
 10
76.008154614799423
 20
42.800000258063839
 30
0.0
 11
77.508154614799423
 21
44.300000258063847
 31
0.0
  0
LINE
  5
1CD
  8
0
 62
     0
 10
80.493283068403784
 20
47.285128711668222
 30
0.0
 11
82.199999817252319
 21
48.991845460516743
 31
0.0
  0
LINE
  5
1CE
  8
0
 62
     0
 10
39.937177524676372
 20
6.7290231679407952
 30
0.0
 11
41.321771044422341
 21
8.1136166876867701
 31
0.0
  0
LINE
  5
1CF
  8
0
 62
     0
 10
74.885622599666021
 20
42.800000258064749
 30
0.0
 11
76.385622599666931
 21
44.300000258065658
 31
0.0
  0
LINE
  5
1D0
  8
0
 62
     0
 10
79.385622599666931
 20
47.300000258065673
 30
0.0
 11
81.385622599666036
 21
49.300000258064749
 31
0.0
  0
LINE
  5
1D1
  8
0
 62
     0
 10
38.904953417168137
 20
6.819331075566879
 30
0.0
 11
40.289546936912302
 21
8.2039245953110367
 31
0.0
  0
LINE
  5
1D2
  8
0
 62
     0
 10
73.76309058453262
 20
42.800000258063839
 30
0.0
 11
75.26309058453262
 21
44.300000258063847
 31
0.0
  0
LINE
  5
1D3
  8
0
 62
     0
 10
78.321771778431867
 20
47.358681451963093
 30
0.0
 11
80.184575046718237
 21
49.221484720249471
 31
0.0
  0
LINE
  5
1D4
  8
0
 62
     0
 10
37.872729309659917
 20
6.9096389831911429
 30
0.0
 11
39.257322829404991
 21
8.2942325029362092
 31
0.0
  0
LINE
  5
1D5
  8
0
 62
     0
 10
72.640558569398308
 20
42.800000258064749
 30
0.0
 11
74.140558569399204
 21
44.300000258065658
 31
0.0
  0
LINE
  5
1D6
  8
0
 62
     0
 10
36.84050520215078
 20
6.9999468908172267
 30
0.0
 11
38.225098721894938
 21
8.3845404105613852
 31
0.0
  0
LINE
  5
1D7
  8
0
 62
     0
 10
71.518026554264907
 20
42.800000258065658
 30
0.0
 11
73.018026554264907
 21
44.300000258065658
 31
0.0
  0
LINE
  5
1D8
  8
0
 62
     0
 10
35.808281094642552
 20
7.0902547984433113
 30
0.0
 11
37.19287461438671
 21
8.4748483181874672
 31
0.0
  0
LINE
  5
1D9
  8
0
 62
     0
 10
70.395494539131505
 20
42.800000258064749
 30
0.0
 11
71.895494539132415
 21
44.300000258065658
 31
0.0
  0
LINE
  5
1DA
  8
0
 62
     0
 10
34.776056987133423
 20
7.1805627060666657
 30
0.0
 11
36.160650506878483
 21
8.5651562258117337
 31
0.0
  0
LINE
  5
1DB
  8
0
 62
     0
 10
69.272962523998103
 20
42.800000258065658
 30
0.0
 11
70.611481170625666
 21
44.138518904693228
 31
0.0
  0
LINE
  5
1DC
  8
0
 62
     0
 10
33.743832879626098
 20
7.2708706136936589
 30
0.0
 11
35.128426399371172
 21
8.655464133438727
 31
0.0
  0
LINE
  5
1DD
  8
0
 62
     0
 10
68.150430508864702
 20
42.800000258064749
 30
0.0
 11
69.650430508863792
 21
44.300000258063847
 31
0.0
  0
LINE
  5
1DE
  8
0
 62
     0
 10
32.711608772116961
 20
7.3611785213170151
 30
0.0
 11
34.096202291862028
 21
8.7457720410620823
 31
0.0
  0
LINE
  5
1DF
  8
0
 62
     0
 10
67.0278984937313
 20
42.800000258065658
 30
0.0
 11
68.5278984937313
 21
44.300000258065658
 31
0.0
  0
LINE
  5
1E0
  8
0
 62
     0
 10
31.67938466460873
 20
7.4514864289440084
 30
0.0
 11
33.06397818435471
 21
8.8360799486890755
 31
0.0
  0
LINE
  5
1E1
  8
0
 62
     0
 10
65.905366478596989
 20
42.800000258063839
 30
0.0
 11
67.405366478596974
 21
44.300000258063847
 31
0.0
  0
LINE
  5
1E2
  8
0
 62
     0
 10
30.647160557100509
 20
7.5417943365673628
 30
0.0
 11
32.031754076845573
 21
8.9263878563124308
 31
0.0
  0
LINE
  5
1E3
  8
0
 62
     0
 10
64.782834463463587
 20
42.800000258065658
 30
0.0
 11
66.282834463463587
 21
44.300000258065658
 31
0.0
  0
LINE
  5
1E4
  8
0
 62
     0
 10
29.614936449591369
 20
7.632102244194356
 30
0.0
 11
30.99952996933553
 21
9.0166957639376051
 31
0.0
  0
LINE
  5
1E5
  8
0
 62
     0
 10
63.660302448330192
 20
42.800000258066568
 30
0.0
 11
65.160302448329276
 21
44.300000258065658
 31
0.0
  0
LINE
  5
1E6
  8
0
 62
     0
 10
28.582712342083141
 20
7.7224101518195312
 30
0.0
 11
29.967305861828208
 21
9.1070036715645983
 31
0.0
  0
LINE
  5
1E7
  8
0
 62
     0
 10
62.537770433196783
 20
42.800000258065658
 30
0.0
 11
64.037770433196783
 21
44.300000258065658
 31
0.0
  0
LINE
  5
1E8
  8
0
 62
     0
 10
27.550488234574001
 20
7.8127180594428864
 30
0.0
 11
28.935081754319071
 21
9.1973115791879536
 31
0.0
  0
LINE
  5
1E9
  8
0
 62
     0
 10
61.415238418062472
 20
42.800000258065658
 30
0.0
 11
62.915238418062472
 21
44.300000258065658
 31
0.0
  0
LINE
  5
1EA
  8
0
 62
     0
 10
26.51826412706669
 20
7.9030259670698788
 30
0.0
 11
27.902857646811761
 21
9.2876194868149469
 31
0.0
  0
LINE
  5
1EB
  8
0
 62
     0
 10
60.29270640292998
 20
42.800000258065658
 30
0.0
 11
61.792706402929973
 21
44.300000258065658
 31
0.0
  0
LINE
  5
1EC
  8
0
 62
     0
 10
25.486040019557549
 20
7.9933338746932341
 30
0.0
 11
26.87063353930262
 21
9.3779273944383021
 31
0.0
  0
LINE
  5
1ED
  8
0
 62
     0
 10
59.11309731602887
 20
42.74292318629886
 30
0.0
 11
61.199999817252319
 21
44.829825687522309
 31
0.0
  0
LINE
  5
1EE
  8
0
 62
     0
 10
24.453815912050231
 20
8.0836417823202282
 30
0.0
 11
25.838409431795299
 21
9.4682353020652954
 31
0.0
  0
LINE
  5
1EF
  8
0
 62
     0
 10
59.630364855936023
 20
44.382722741338512
 30
0.0
 11
61.199999817252319
 21
45.952357702654808
 31
0.0
  0
LINE
  5
1F0
  8
0
 62
     0
 10
57.882940527543717
 20
42.635298412946213
 30
0.0
 11
59.592176686182931
 21
44.34453457158542
 31
0.0
  0
LINE
  5
1F1
  8
0
 62
     0
 10
62.547642372661358
 20
47.300000258063847
 30
0.0
 11
63.396295490732882
 21
48.148653376135371
 31
0.0
  0
LINE
  5
1F2
  8
0
 62
     0
 10
23.421591804541091
 20
8.1739496899435835
 30
0.0
 11
24.806185324286162
 21
9.5585432096886507
 31
0.0
  0
LINE
  5
1F3
  8
0
 62
     0
 10
59.699999817252319
 20
45.574889717789112
 30
0.0
 11
61.213235032784723
 21
47.088124933321517
 31
0.0
  0
LINE
  5
1F4
  8
0
 62
     0
 10
56.65278373905948
 20
42.527673639596287
 30
0.0
 11
58.302878040499301
 21
44.177767941036109
 31
0.0
  0
LINE
  5
1F5
  8
0
 62
     0
 10
61.411875141996461
 20
47.286765042533261
 30
0.0
 11
62.828730674416882
 21
48.703620574953668
 31
0.0
  0
LINE
  5
1F6
  8
0
 62
     0
 10
22.38936769703378
 20
8.2642575975705768
 30
0.0
 11
23.773961216777941
 21
9.6488511173147344
 31
0.0
  0
LINE
  5
1F7
  8
0
 62
     0
 10
55.422626950571612
 20
42.420048866243633
 30
0.0
 11
57.072721252011434
 21
44.070143167684357
 31
0.0
  0
LINE
  5
1F8
  8
0
 62
     0
 10
59.699999817252319
 20
46.69742173292434
 30
0.0
 11
62.10480201088739
 21
49.102223926559418
 31
0.0
  0
LINE
  5
1F9
  8
0
 62
     0
 10
21.35714358952373
 20
8.354565505195751
 30
0.0
 11
22.741737109268801
 21
9.7391590249408182
 31
0.0
  0
LINE
  5
1FA
  8
0
 62
     0
 10
54.192470162085549
 20
42.312424092890069
 30
0.0
 11
55.84256446352537
 21
43.962518394329891
 31
0.0
  0
LINE
  5
1FB
  8
0
 62
     0
 10
59.69999981725141
 20
47.819953748055923
 30
0.0
 11
61.176633110054347
 21
49.296587040858867
 31
0.0
  0
LINE
  5
1FC
  8
0
 62
     0
 10
20.324919482016409
 20
8.4448734128209253
 30
0.0
 11
21.70951300176057
 21
9.8294669325650812
 31
0.0
  0
LINE
  5
1FD
  8
0
 62
     0
 10
52.962313373600402
 20
42.204799319539227
 30
0.0
 11
54.612407675040231
 21
43.854893620979958
 31
0.0
  0
LINE
  5
1FE
  8
0
 62
     0
 10
59.699999817252319
 20
48.942485763191137
 30
0.0
 11
60.057514312125932
 21
49.300000258064749
 31
0.0
  0
LINE
  5
1FF
  8
0
 62
     0
 10
19.292695374505449
 20
8.5351813204451901
 30
0.0
 11
20.677288894252339
 21
9.9197748401911667
 31
0.0
  0
LINE
  5
200
  8
0
 62
     0
 10
51.732156585116172
 20
42.097174546187489
 30
0.0
 11
53.382250886555987
 21
43.747268847627311
 31
0.0
  0
LINE
  5
201
  8
0
 62
     0
 10
18.260471266998142
 20
8.6254892280694548
 30
0.0
 11
19.645064786744111
 21
10.01008274781543
 31
0.0
  0
LINE
  5
202
  8
0
 62
     0
 10
50.5019997966292
 20
41.989549772834827
 30
0.0
 11
52.152094098069021
 21
43.639644074275559
 31
0.0
  0
LINE
  5
203
  8
0
 62
     0
 10
17.228247159489001
 20
8.7157971356946291
 30
0.0
 11
18.612840679235891
 21
10.10039065544151
 31
0.0
  0
LINE
  5
204
  8
0
 62
     0
 10
49.27184300814497
 20
41.88192499948309
 30
0.0
 11
50.921937309584791
 21
43.532019300922911
 31
0.0
  0
LINE
  5
205
  8
0
 62
     0
 10
16.19602305198168
 20
8.8061050433198034
 30
0.0
 11
17.58061657172766
 21
10.19069856306578
 31
0.0
  0
LINE
  5
206
  8
0
 62
     0
 10
48.041686219659823
 20
41.774300226132247
 30
0.0
 11
49.691780521097819
 21
43.42439452757116
 31
0.0
  0
LINE
  5
207
  8
0
 62
     0
 10
15.163798944472539
 20
8.8964129509449776
 30
0.0
 11
16.548392464219429
 21
10.28100647069186
 31
0.0
  0
LINE
  5
208
  8
0
 62
     0
 10
46.81152943117285
 20
41.666675452778691
 30
0.0
 11
48.46162373261086
 21
43.316769754216693
 31
0.0
  0
LINE
  5
209
  8
0
 62
     0
 10
14.131574836964321
 20
8.9867208585701501
 30
0.0
 11
15.516168356709381
 21
10.37131437831613
 31
0.0
  0
LINE
  5
20A
  8
0
 62
     0
 10
45.581372642685892
 20
41.559050679426043
 30
0.0
 11
47.231466944125707
 21
43.20914498086676
 31
0.0
  0
LINE
  5
20B
  8
0
 62
     0
 10
13.09935072945518
 20
9.0770287661953262
 30
0.0
 11
14.48394424920116
 21
10.461622285941299
 31
0.0
  0
LINE
  5
20C
  8
0
 62
     0
 10
44.351215854201648
 20
41.451425906076111
 30
0.0
 11
46.00131015564147
 21
43.101520207515932
 31
0.0
  0
LINE
  5
20D
  8
0
 62
     0
 10
12.06712662194786
 20
9.1673366738223194
 30
0.0
 11
13.45172014169202
 21
10.55193019356647
 31
0.0
  0
LINE
  5
20E
  8
0
 62
     0
 10
43.121059065716508
 20
41.343801132723449
 30
0.0
 11
44.771153367154511
 21
42.993895434161459
 31
0.0
  0
LINE
  5
20F
  8
0
 62
     0
 10
11.03490251443872
 20
9.2576445814456747
 30
0.0
 11
12.4194960341847
 21
10.64223810119165
 31
0.0
  0
LINE
  5
210
  8
0
 62
     0
 10
41.890902277231362
 20
41.236176359372621
 30
0.0
 11
43.540996578670267
 21
42.886270660811533
 31
0.0
  0
LINE
  5
211
  8
0
 62
     0
 10
10.002678406930499
 20
9.3479524890717585
 30
0.0
 11
11.387271926676471
 21
10.73254600881773
 31
0.0
  0
LINE
  5
212
  8
0
 62
     0
 10
40.660745488745313
 20
41.12855158601905
 30
0.0
 11
42.310839790183309
 21
42.77864588745706
 31
0.0
  0
LINE
  5
213
  8
0
 62
     0
 10
8.970454299422272
 20
9.4382603966960232
 30
0.0
 11
10.35504781916825
 21
10.822853916442
 31
0.0
  0
LINE
  5
214
  8
0
 62
     0
 10
39.43058870025925
 20
41.020926812667312
 30
0.0
 11
41.080683001699057
 21
42.671021114107127
 31
0.0
  0
LINE
  5
215
  8
0
 62
     0
 10
7.9382301919140437
 20
9.5285683043221052
 30
0.0
 11
9.3228237116591117
 21
10.913161824067171
 31
0.0
  0
LINE
  5
216
  8
0
 62
     0
 10
38.200431911774103
 20
40.913302039314651
 30
0.0
 11
39.850526213213932
 21
42.563396340754473
 31
0.0
  0
LINE
  5
217
  8
0
 62
     0
 10
6.9060060844058171
 20
9.6188762119463718
 30
0.0
 11
8.2905996041517938
 21
11.00346973169235
 31
0.0
  0
LINE
  5
218
  8
0
 62
     0
 10
36.970275123288047
 20
40.805677265963823
 30
0.0
 11
38.62036942472696
 21
42.455771567402742
 31
0.0
  0
LINE
  5
219
  8
0
 62
     0
 10
5.8737819768966801
 20
9.7091841195724555
 30
0.0
 11
7.2583754966426559
 21
11.09377763931843
 31
0.0
  0
LINE
  5
21A
  8
0
 62
     0
 10
35.740118334801991
 20
40.698052492612071
 30
0.0
 11
37.390212636240001
 21
42.348146794050074
 31
0.0
  0
LINE
  5
21B
  8
0
 62
     0
 10
4.8415578693884518
 20
9.7994920271985393
 30
0.0
 11
6.2261513891344293
 21
11.184085546944511
 31
0.0
  0
LINE
  5
21C
  8
0
 62
     0
 10
34.509961546316852
 20
40.590427719259417
 30
0.0
 11
36.160055847756666
 21
42.240522020699238
 31
0.0
  0
LINE
  5
21D
  8
0
 62
     0
 10
3.8093337618811338
 20
9.8897999348237136
 30
0.0
 11
5.1939272816252924
 21
11.274393454567869
 31
0.0
  0
LINE
  5
21E
  8
0
 62
     0
 10
33.279804757830789
 20
40.482802945907672
 30
0.0
 11
34.929899059268791
 21
42.132897247345667
 31
0.0
  0
LINE
  5
21F
  8
0
 62
     0
 10
2.7771096543719969
 20
9.9801078424488878
 30
0.0
 11
4.1617031741179744
 21
11.364701362194859
 31
0.0
  0
LINE
  5
220
  8
0
 62
     0
 10
32.049647969344733
 20
40.375178172554122
 30
0.0
 11
33.699742270784562
 21
42.025272473993937
 31
0.0
  0
LINE
  5
221
  8
0
 62
     0
 10
1.7448855468628599
 20
10.070415750073151
 30
0.0
 11
3.129479066608837
 21
11.45500926981822
 31
0.0
  0
LINE
  5
222
  8
0
 62
     0
 10
30.819491180860499
 20
40.267553399204189
 30
0.0
 11
32.469585482299408
 21
41.917647700643101
 31
0.0
  0
LINE
  5
223
  8
0
 62
     0
 10
0.7126614393546334
 20
10.16072365769832
 30
0.0
 11
2.097254959101519
 21
11.545317177445209
 31
0.0
  0
LINE
  5
224
  8
0
 62
     0
 10
29.58933439237444
 20
40.159928625850618
 30
0.0
 11
31.239428693813348
 21
41.810022927289538
 31
0.0
  0
LINE
  5
225
  8
0
 62
     0
 10
-0.0000001827484084
 20
10.57059405072868
 30
0.0
 11
1.4999998172506821
 21
12.07059405072687
 31
0.0
  0
LINE
  5
226
  8
0
 62
     0
 10
28.359177603887481
 20
40.052303852498881
 30
0.0
 11
30.009271905327299
 21
41.702398153938702
 31
0.0
  0
LINE
  5
227
  8
0
 62
     0
 10
-0.0000001827484084
 20
11.693126065862989
 30
0.0
 11
1.4999998172506821
 21
13.19312606586209
 31
0.0
  0
LINE
  5
228
  8
0
 62
     0
 10
27.129020815402331
 20
39.944679079148052
 30
0.0
 11
28.77911511684124
 21
41.59477338058695
 31
0.0
  0
LINE
  5
229
  8
0
 62
     0
 10
-0.0000001827493179
 20
12.8156580809964
 30
0.0
 11
1.4999998172515909
 21
14.315658080997309
 31
0.0
  0
LINE
  5
22A
  8
0
 62
     0
 10
25.898864026917181
 20
39.837054305795391
 30
0.0
 11
27.5489583283561
 21
41.487148607234303
 31
0.0
  0
LINE
  5
22B
  8
0
 62
     0
 10
-0.0000001827484084
 20
13.9381900961298
 30
0.0
 11
1.4999998172506821
 21
15.43819009612889
 31
0.0
  0
LINE
  5
22C
  8
0
 62
     0
 10
24.668707238431129
 20
39.729429532443653
 30
0.0
 11
26.318801539870041
 21
41.379523833882551
 31
0.0
  0
LINE
  5
22D
  8
0
 62
     0
 10
-0.0000001827493179
 20
15.0607221112632
 30
0.0
 11
1.4999998172515909
 21
16.560722111264109
 31
0.0
  0
LINE
  5
22E
  8
0
 62
     0
 10
23.438550449945069
 20
39.621804759090082
 30
0.0
 11
25.088644751384891
 21
41.271899060529897
 31
0.0
  0
LINE
  5
22F
  8
0
 62
     0
 10
-0.0000001827484084
 20
16.183254126396601
 30
0.0
 11
1.4999998172506821
 21
17.683254126395688
 31
0.0
  0
LINE
  5
230
  8
0
 62
     0
 10
22.208393661459919
 20
39.514179985739247
 30
0.0
 11
23.858487962899751
 21
41.164274287179069
 31
0.0
  0
LINE
  5
231
  8
0
 62
     0
 10
-0.0000001827474989
 20
17.305786141531819
 30
0.0
 11
1.4999998172515909
 21
18.805786141530909
 31
0.0
  0
LINE
  5
232
  8
0
 62
     0
 10
20.978236872974779
 20
39.406555212386593
 30
0.0
 11
22.628331174413692
 21
41.056649513825498
 31
0.0
  0
LINE
  5
233
  8
0
 62
     0
 10
-0.0000001827484084
 20
18.428318156663408
 30
0.0
 11
1.4999998172515909
 21
19.928318156663408
 31
0.0
  0
LINE
  5
234
  8
0
 62
     0
 10
19.748080084489629
 20
39.298930439035757
 30
0.0
 11
21.398174385927629
 21
40.949024740473753
 31
0.0
  0
LINE
  5
235
  8
0
 62
     0
 10
-0.0000001827474989
 20
19.550850171798629
 30
0.0
 11
1.4999998172515909
 21
21.05085017179772
 31
0.0
  0
LINE
  5
236
  8
0
 62
     0
 10
18.51792329600266
 20
39.191305665684013
 30
0.0
 11
20.16801759744158
 21
40.841399967122918
 31
0.0
  0
LINE
  5
237
  8
0
 62
     0
 10
-0.0000001827493179
 20
20.673382186932031
 30
0.0
 11
1.4999998172506821
 21
22.173382186932031
 31
0.0
  0
LINE
  5
238
  8
0
 62
     0
 10
17.287766507516611
 20
39.083680892330449
 30
0.0
 11
18.93786080895552
 21
40.733775193769347
 31
0.0
  0
LINE
  5
239
  8
0
 62
     0
 10
-0.0000001827484084
 20
21.795914202065429
 30
0.0
 11
1.4999998172506821
 21
23.29591420206452
 31
0.0
  0
LINE
  5
23A
  8
0
 62
     0
 10
16.057609719031461
 20
38.976056118979621
 30
0.0
 11
17.70770402047037
 21
40.626150420418519
 31
0.0
  0
LINE
  5
23B
  8
0
 62
     0
 10
-0.0000001827484084
 20
22.91844621720065
 30
0.0
 11
1.4999998172506821
 21
24.418446217198841
 31
0.0
  0
LINE
  5
23C
  8
0
 62
     0
 10
14.827452930546309
 20
38.868431345626959
 30
0.0
 11
16.477547231985231
 21
40.518525647065871
 31
0.0
  0
LINE
  5
23D
  8
0
 62
     0
 10
-0.0000001827484084
 20
24.04097823233224
 30
0.0
 11
1.4999998172515909
 21
25.54097823233224
 31
0.0
  0
LINE
  5
23E
  8
0
 62
     0
 10
13.59729614206026
 20
38.760806572275222
 30
0.0
 11
15.247390443499169
 21
40.41090087371412
 31
0.0
  0
LINE
  5
23F
  8
0
 62
     0
 10
-0.0000001827484084
 20
25.16351024746746
 30
0.0
 11
1.4999998172506821
 21
26.663510247465641
 31
0.0
  0
LINE
  5
240
  8
0
 62
     0
 10
12.36713935357511
 20
38.65318179892256
 30
0.0
 11
14.017233655014021
 21
40.303276100361472
 31
0.0
  0
LINE
  5
241
  8
0
 62
     0
 10
-0.0000001827484084
 20
26.28604226259904
 30
0.0
 11
1.4999998172515909
 21
27.78604226259904
 31
0.0
  0
LINE
  5
242
  8
0
 62
     0
 10
11.136982565089051
 20
38.545557025570822
 30
0.0
 11
12.78707686652797
 21
40.19565132700972
 31
0.0
  0
LINE
  5
243
  8
0
 62
     0
 10
-0.0000001827484084
 20
27.40857427773426
 30
0.0
 11
1.4999998172506821
 21
28.908574277732441
 31
0.0
  0
LINE
  5
244
  8
0
 62
     0
 10
9.9068257766030001
 20
38.437932252218161
 30
0.0
 11
11.556920078041911
 21
40.088026553657073
 31
0.0
  0
LINE
  5
245
  8
0
 62
     0
 10
-0.0000001827484084
 20
28.531106292866749
 30
0.0
 11
1.4999998172506821
 21
30.03110629286585
 31
0.0
  0
LINE
  5
246
  8
0
 62
     0
 10
8.6766689881187631
 20
38.330307478868228
 30
0.0
 11
10.326763289555849
 21
39.980401780305328
 31
0.0
  0
LINE
  5
247
  8
0
 62
     0
 10
-0.0000001827493179
 20
29.653638308000151
 30
0.0
 11
1.4999998172515909
 21
31.15363830800106
 31
0.0
  0
LINE
  5
248
  8
0
 62
     0
 10
7.4465121996317967
 20
38.222682705515581
 30
0.0
 11
9.0966065010707098
 21
39.872777006954493
 31
0.0
  0
LINE
  5
249
  8
0
 62
     0
 10
-0.0000001827484084
 20
30.776170323135378
 30
0.0
 11
1.4999998172506821
 21
32.276170323134458
 31
0.0
  0
LINE
  5
24A
  8
0
 62
     0
 10
6.2163554111475596
 20
38.115057932163829
 30
0.0
 11
7.8664497125846529
 21
39.765152233600929
 31
0.0
  0
LINE
  5
24B
  8
0
 62
     0
 10
-0.0000001827493179
 20
31.898702338266961
 30
0.0
 11
1.4999998172515909
 21
33.398702338267867
 31
0.0
  0
LINE
  5
24C
  8
0
 62
     0
 10
4.9861986226624131
 20
38.007433158813001
 30
0.0
 11
6.6362929240995072
 21
39.657527460250087
 31
0.0
  0
LINE
  5
24D
  8
0
 62
     0
 10
-0.0000001827484084
 20
33.021234353402178
 30
0.0
 11
1.4999998172506821
 21
34.521234353401269
 31
0.0
  0
LINE
  5
24E
  8
0
 62
     0
 10
3.7560418341763571
 20
37.899808385459437
 30
0.0
 11
5.4061361356143598
 21
39.54990268689744
 31
0.0
  0
LINE
  5
24F
  8
0
 62
     0
 10
-0.0000001827474989
 20
34.14376636853558
 30
0.0
 11
1.4999998172515909
 21
35.643766368534671
 31
0.0
  0
LINE
  5
250
  8
0
 62
     0
 10
2.525885045691211
 20
37.792183612108602
 30
0.0
 11
4.1759793471283038
 21
39.442277913545702
 31
0.0
  0
LINE
  5
251
  8
0
 62
     0
 10
-0.0000001827484084
 20
35.266298383668982
 30
0.0
 11
1.4999998172515909
 21
36.766298383668982
 31
0.0
  0
LINE
  5
252
  8
0
 62
     0
 10
-0.0000001827474989
 20
36.388830398802376
 30
0.0
 11
2.9458225586422482
 21
39.334653140192131
 31
0.0
  0
LINE
  5
253
  8
0
 62
     0
 10
-0.0000001827484084
 20
37.511362413937611
 30
0.0
 11
1.7156657701561919
 21
39.227028366841303
 31
0.0
  0
LINE
  5
254
  8
0
 62
     0
 10
-0.0000001827484084
 20
38.633894429071013
 30
0.0
 11
0.4855089816710461
 21
39.11940359349046
 31
0.0
  0
ENDBLK
  5
256
  8
0
  0
BLOCK
  8
0
  2
*U3
 70
     1
 10
0.0
 20
0.0
 30
0.0
  3
*U3
  1

  0
LINE
  5
258
  8
0
 62
     0
 10
80.866431730490149
 20
0.0000002580632099
 30
0.0
 11
81.899999817251214
 21
0.0000002580632099
 31
0.0
  0
ARC
  5
259
  8
0
 62
     0
 10
81.899999817251214
 20
0.3000002580624823
 30
0.0
 40
0.3
 50
270.0
 51
0.0
  0
ARC
  5
25A
  8
0
 62
     0
 10
80.866431730490149
 20
3.000000258065028
 30
0.0
 40
3.0000000000010369
 50
208.7822046806007
 51
270.0
  0
LINE
  5
25B
  8
0
 62
     0
 10
82.199999817250514
 20
0.3000002580624823
 30
0.0
 11
82.199999817250514
 21
4.7000002580657556
 31
0.0
  0
ARC
  5
25C
  8
0
 62
     0
 10
78.499999817249773
 20
1.7000002580639371
 30
0.0
 40
0.2999999999992724
 50
90.0
 51
208.78220468064009
  0
ARC
  5
25D
  8
0
 62
     0
 10
82.499999817249773
 20
4.7000002580657556
 30
0.0
 40
0.3
 50
90.0
 51
180.0
  0
LINE
  5
25E
  8
0
 62
     0
 10
80.399999817251214
 20
2.000000258063209
 30
0.0
 11
78.499999817249773
 21
2.000000258063209
 31
0.0
  0
LINE
  5
25F
  8
0
 62
     0
 10
82.499999817249773
 20
5.000000258065028
 30
0.0
 11
89.349999817250136
 21
5.000000258065028
 31
0.0
  0
ARC
  5
260
  8
0
 62
     0
 10
80.399999817251214
 20
2.3000002580624819
 30
0.0
 40
0.3
 50
270.0
 51
0.0
  0
LINE
  5
261
  8
0
 62
     0
 10
89.349999817250136
 20
5.000000258065028
 30
0.0
 11
89.849999817250136
 21
5.500000258065028
 31
0.0
  0
LINE
  5
262
  8
0
 62
     0
 10
80.6999998172505
 20
4.7000002580657556
 30
0.0
 11
80.6999998172505
 21
2.3000002580624819
 31
0.0
  0
LINE
  5
263
  8
0
 62
     0
 10
89.849999817250136
 20
5.500000258065028
 30
0.0
 11
90.349999817250136
 21
5.000000258065028
 31
0.0
  0
ARC
  5
264
  8
0
 62
     0
 10
80.399999817251214
 20
4.7000002580657556
 30
0.0
 40
0.3
 50
0.0
 51
90.0
  0
LINE
  5
265
  8
0
 62
     0
 10
90.349999817250136
 20
5.000000258065028
 30
0.0
 11
97.199999817250514
 21
5.000000258065028
 31
0.0
  0
LINE
  5
266
  8
0
 62
     0
 10
71.4499998172505
 20
5.000000258063209
 30
0.0
 11
80.399999817251214
 21
5.000000258065028
 31
0.0
  0
ARC
  5
267
  8
0
 62
     0
 10
97.199999817250514
 20
4.7000002580657556
 30
0.0
 40
0.3
 50
0.0
 51
90.0
  0
LINE
  5
268
  8
0
 62
     0
 10
70.9499998172505
 20
5.500000258063209
 30
0.0
 11
71.4499998172505
 21
5.000000258063209
 31
0.0
  0
LINE
  5
269
  8
0
 62
     0
 10
97.499999817249773
 20
4.7000002580657556
 30
0.0
 11
97.499999817249773
 21
0.3000002580624823
 31
0.0
  0
LINE
  5
26A
  8
0
 62
     0
 10
70.4499998172505
 20
5.000000258063209
 30
0.0
 11
70.9499998172505
 21
5.500000258063209
 31
0.0
  0
ARC
  5
26B
  8
0
 62
     0
 10
97.799999817250864
 20
0.3000002580624823
 30
0.0
 40
0.3
 50
180.0
 51
270.0
  0
LINE
  5
26C
  8
0
 62
     0
 10
61.499999817249773
 20
5.000000258063209
 30
0.0
 11
70.4499998172505
 21
5.000000258063209
 31
0.0
  0
LINE
  5
26D
  8
0
 62
     0
 10
97.799999817250864
 20
0.0000002580632099
 30
0.0
 11
98.833567904010124
 21
0.0000002580632099
 31
0.0
  0
ARC
  5
26E
  8
0
 62
     0
 10
61.499999817249773
 20
4.7000002580639366
 30
0.0
 40
0.3
 50
90.0
 51
180.0
  0
ARC
  5
26F
  8
0
 62
     0
 10
98.833567904010124
 20
3.000000258065028
 30
0.0
 40
3.0000000000018181
 50
270.0
 51
331.2177953194161
  0
LINE
  5
270
  8
0
 62
     0
 10
61.1999998172505
 20
2.3000002580624819
 30
0.0
 11
61.1999998172505
 21
4.7000002580639366
 31
0.0
  0
ARC
  5
271
  8
0
 62
     0
 10
101.1999998172505
 20
1.7000002580639371
 30
0.0
 40
0.2999999999996496
 50
331.21779531952711
 51
90.0
  0
ARC
  5
272
  8
0
 62
     0
 10
61.499999817249773
 20
2.3000002580624819
 30
0.0
 40
0.3
 50
180.0
 51
270.0
  0
LINE
  5
273
  8
0
 62
     0
 10
101.1999998172505
 20
2.000000258063209
 30
0.0
 11
99.299999817250864
 21
2.000000258063209
 31
0.0
  0
LINE
  5
274
  8
0
 62
     0
 10
63.399999817251228
 20
2.000000258063209
 30
0.0
 11
61.499999817249773
 21
2.000000258063209
 31
0.0
  0
ARC
  5
275
  8
0
 62
     0
 10
99.299999817250864
 20
2.3000002580624819
 30
0.0
 40
0.3
 50
180.0
 51
270.0
  0
ARC
  5
276
  8
0
 62
     0
 10
63.399999817251228
 20
1.7000002580639371
 30
0.0
 40
0.2999999999996496
 50
331.21779531952711
 51
90.0
  0
LINE
  5
277
  8
0
 62
     0
 10
98.999999817249773
 20
2.3000002580624819
 30
0.0
 11
98.999999817249773
 21
4.7000002580657556
 31
0.0
  0
ARC
  5
278
  8
0
 62
     0
 10
61.033567904010852
 20
3.000000258065028
 30
0.0
 40
3.0000000000018181
 50
270.0
 51
331.2177953194161
  0
ARC
  5
279
  8
0
 62
     0
 10
99.299999817250864
 20
4.7000002580657556
 30
0.0
 40
0.3
 50
90.0
 51
180.0
  0
LINE
  5
27A
  8
0
 62
     0
 10
59.999999817249773
 20
0.0000002580632099
 30
0.0
 11
61.033567904010852
 21
0.0000002580632099
 31
0.0
  0
LINE
  5
27B
  8
0
 62
     0
 10
99.299999817250864
 20
5.000000258065028
 30
0.0
 11
108.2499998172497
 21
5.000000258063209
 31
0.0
  0
ARC
  5
27C
  8
0
 62
     0
 10
59.999999817249773
 20
0.3000002580624823
 30
0.0
 40
0.3
 50
180.0
 51
270.0
  0
LINE
  5
27D
  8
0
 62
     0
 10
108.2499998172497
 20
5.000000258063209
 30
0.0
 11
108.7499998172497
 21
5.500000258063209
 31
0.0
  0
LINE
  5
27E
  8
0
 62
     0
 10
59.6999998172505
 20
4.7251009058577429
 30
0.0
 11
59.6999998172505
 21
0.3000002580624823
 31
0.0
  0
LINE
  5
27F
  8
0
 62
     0
 10
108.7499998172497
 20
5.500000258063209
 30
0.0
 11
109.2499998172497
 21
5.000000258063209
 31
0.0
  0
ARC
  5
280
  8
0
 62
     0
 10
59.399999817251221
 20
4.7251009058577429
 30
0.0
 40
0.3
 50
0.0
 51
85.000000000265359
  0
LINE
  5
281
  8
0
 62
     0
 10
109.2499998172497
 20
5.000000258063209
 30
0.0
 11
118.1999998172505
 21
5.000000258063209
 31
0.0
  0
LINE
  5
282
  8
0
 62
     0
 10
0.2738530944261583
 20
10.199114413338521
 30
0.0
 11
59.426146540074107
 21
5.0239593152850821
 31
0.0
  0
ARC
  5
283
  8
0
 62
     0
 10
118.1999998172505
 20
4.7000002580639366
 30
0.0
 40
0.3
 50
0.0
 51
90.0
  0
ARC
  5
284
  8
0
 62
     0
 10
0.299999817250864
 20
10.49797282276586
 30
0.0
 40
0.3
 50
180.0
 51
264.99999999991923
  0
LINE
  5
285
  8
0
 62
     0
 10
118.4999998172497
 20
4.7000002580639366
 30
0.0
 11
118.4999998172497
 21
2.3000002580624819
 31
0.0
  0
LINE
  5
286
  8
0
 62
     0
 10
-0.0000001827502274
 20
38.802027693359832
 30
0.0
 11
-0.0000001827502274
 21
10.49797282276586
 31
0.0
  0
ARC
  5
287
  8
0
 62
     0
 10
118.1999998172505
 20
2.3000002580624819
 30
0.0
 40
0.3
 50
270.0
 51
0.0
  0
ARC
  5
288
  8
0
 62
     0
 10
0.299999817250864
 20
38.802027693359832
 30
0.0
 40
0.3
 50
95.000000000080746
 51
180.0
  0
LINE
  5
289
  8
0
 62
     0
 10
118.1999998172505
 20
2.000000258063209
 30
0.0
 11
116.29999981725079
 21
2.000000258063209
 31
0.0
  0
LINE
  5
28A
  8
0
 62
     0
 10
59.426146540074107
 20
44.276041200842421
 30
0.0
 11
0.2738530944261583
 21
39.100886102787172
 31
0.0
  0
ARC
  5
28B
  8
0
 62
     0
 10
116.29999981725079
 20
1.7000002580639371
 30
0.0
 40
0.2999999999992724
 50
90.0
 51
208.78220468047289
  0
ARC
  5
28C
  8
0
 62
     0
 10
59.399999817251221
 20
44.57489961026976
 30
0.0
 40
0.3
 50
274.99999999973471
 51
0.0
  0
ARC
  5
28D
  8
0
 62
     0
 10
118.6664317304912
 20
3.000000258065028
 30
0.0
 40
3.0000000000010369
 50
208.78220468058399
 51
269.99999999996533
  0
LINE
  5
28E
  8
0
 62
     0
 10
59.6999998172505
 20
49.000000258065029
 30
0.0
 11
59.6999998172505
 21
44.57489961026976
 31
0.0
  0
LINE
  5
28F
  8
0
 62
     0
 10
118.66643173048941
 20
0.0000002580632099
 30
0.0
 11
119.6999998172505
 21
0.0000002580632099
 31
0.0
  0
ARC
  5
290
  8
0
 62
     0
 10
59.999999817249773
 20
49.000000258065029
 30
0.0
 40
0.3
 50
90.0
 51
180.0
  0
ARC
  5
291
  8
0
 62
     0
 10
119.6999998172505
 20
0.3000002580624823
 30
0.0
 40
0.3
 50
270.0
 51
0.0
  0
LINE
  5
292
  8
0
 62
     0
 10
61.033567904010852
 20
49.300000258064301
 30
0.0
 11
59.999999817249773
 21
49.300000258064301
 31
0.0
  0
LINE
  5
293
  8
0
 62
     0
 10
119.9999998172498
 20
0.3000002580624823
 30
0.0
 11
119.9999998172498
 21
49.000000258065029
 31
0.0
  0
ARC
  5
294
  8
0
 62
     0
 10
61.033567904010852
 20
46.300000258064301
 30
0.0
 40
3.0000000000001621
 50
28.782204680583941
 51
90.0
  0
ARC
  5
295
  8
0
 62
     0
 10
119.6999998172505
 20
49.000000258065029
 30
0.0
 40
0.3
 50
0.0
 51
90.0
  0
ARC
  5
296
  8
0
 62
     0
 10
63.399999817251228
 20
47.600000258065393
 30
0.0
 40
0.3000000000010914
 50
270.0
 51
28.78220468047288
  0
LINE
  5
297
  8
0
 62
     0
 10
119.6999998172505
 20
49.300000258064301
 30
0.0
 11
118.66643173048941
 21
49.300000258064301
 31
0.0
  0
LINE
  5
298
  8
0
 62
     0
 10
61.499999817249773
 20
47.300000258064301
 30
0.0
 11
63.399999817251228
 21
47.300000258064301
 31
0.0
  0
ARC
  5
299
  8
0
 62
     0
 10
118.6664317304912
 20
46.300000258064301
 30
0.0
 40
3.0
 50
90.00000000003476
 51
151.21779531944651
  0
ARC
  5
29A
  8
0
 62
     0
 10
61.499999817249773
 20
47.000000258065022
 30
0.0
 40
0.3
 50
90.0
 51
180.0
  0
ARC
  5
29B
  8
0
 62
     0
 10
116.29999981725079
 20
47.600000258065393
 30
0.0
 40
0.2999999999987738
 50
151.21779531983159
 51
270.0
  0
LINE
  5
29C
  8
0
 62
     0
 10
61.1999998172505
 20
44.600000258063567
 30
0.0
 11
61.1999998172505
 21
47.000000258065022
 31
0.0
  0
LINE
  5
29D
  8
0
 62
     0
 10
116.29999981725079
 20
47.30000025806612
 30
0.0
 11
118.1999998172505
 21
47.300000258064301
 31
0.0
  0
ARC
  5
29E
  8
0
 62
     0
 10
61.499999817249773
 20
44.600000258063567
 30
0.0
 40
0.3
 50
180.0
 51
270.0
  0
ARC
  5
29F
  8
0
 62
     0
 10
118.1999998172505
 20
47.000000258065022
 30
0.0
 40
0.3
 50
0.0
 51
90.0
  0
LINE
  5
2A0
  8
0
 62
     0
 10
70.4499998172505
 20
44.300000258064301
 30
0.0
 11
61.499999817249773
 21
44.300000258064301
 31
0.0
  0
LINE
  5
2A1
  8
0
 62
     0
 10
118.4999998172497
 20
47.000000258065022
 30
0.0
 11
118.4999998172497
 21
44.600000258063567
 31
0.0
  0
LINE
  5
2A2
  8
0
 62
     0
 10
70.9499998172505
 20
43.800000258064301
 30
0.0
 11
70.4499998172505
 21
44.300000258064301
 31
0.0
  0
ARC
  5
2A3
  8
0
 62
     0
 10
118.1999998172505
 20
44.600000258063567
 30
0.0
 40
0.3
 50
270.0
 51
0.0
  0
LINE
  5
2A4
  8
0
 62
     0
 10
71.4499998172505
 20
44.300000258064301
 30
0.0
 11
70.9499998172505
 21
43.800000258064301
 31
0.0
  0
LINE
  5
2A5
  8
0
 62
     0
 10
118.1999998172505
 20
44.300000258064301
 30
0.0
 11
109.2499998172497
 21
44.300000258064301
 31
0.0
  0
LINE
  5
2A6
  8
0
 62
     0
 10
80.399999817251214
 20
44.300000258064301
 30
0.0
 11
71.4499998172505
 21
44.300000258064301
 31
0.0
  0
LINE
  5
2A7
  8
0
 62
     0
 10
109.2499998172497
 20
44.300000258064301
 30
0.0
 11
108.7499998172497
 21
43.800000258064301
 31
0.0
  0
ARC
  5
2A8
  8
0
 62
     0
 10
80.399999817251214
 20
44.600000258063567
 30
0.0
 40
0.3
 50
270.0
 51
0.0
  0
LINE
  5
2A9
  8
0
 62
     0
 10
108.7499998172497
 20
43.800000258064301
 30
0.0
 11
108.2499998172497
 21
44.300000258064301
 31
0.0
  0
LINE
  5
2AA
  8
0
 62
     0
 10
80.6999998172505
 20
47.000000258065022
 30
0.0
 11
80.6999998172505
 21
44.600000258063567
 31
0.0
  0
LINE
  5
2AB
  8
0
 62
     0
 10
108.2499998172497
 20
44.300000258064301
 30
0.0
 11
99.299999817250864
 21
44.300000258064301
 31
0.0
  0
ARC
  5
2AC
  8
0
 62
     0
 10
80.399999817251214
 20
47.000000258065022
 30
0.0
 40
0.3
 50
0.0
 51
90.0
  0
ARC
  5
2AD
  8
0
 62
     0
 10
99.299999817250864
 20
44.600000258063567
 30
0.0
 40
0.3
 50
180.0
 51
270.0
  0
LINE
  5
2AE
  8
0
 62
     0
 10
78.499999817249773
 20
47.30000025806612
 30
0.0
 11
80.399999817251214
 21
47.300000258064301
 31
0.0
  0
LINE
  5
2AF
  8
0
 62
     0
 10
98.999999817249773
 20
44.600000258063567
 30
0.0
 11
98.999999817249773
 21
47.000000258065022
 31
0.0
  0
ARC
  5
2B0
  8
0
 62
     0
 10
78.499999817249773
 20
47.600000258065393
 30
0.0
 40
0.2999999999987738
 50
151.2177953196643
 51
270.0
  0
ARC
  5
2B1
  8
0
 62
     0
 10
99.299999817250864
 20
47.000000258065022
 30
0.0
 40
0.3
 50
90.0
 51
180.0
  0
ARC
  5
2B2
  8
0
 62
     0
 10
80.866431730490149
 20
46.300000258064301
 30
0.0
 40
3.0
 50
90.0
 51
151.2177953194298
  0
LINE
  5
2B3
  8
0
 62
     0
 10
99.299999817250864
 20
47.300000258064301
 30
0.0
 11
101.1999998172505
 21
47.300000258064301
 31
0.0
  0
LINE
  5
2B4
  8
0
 62
     0
 10
81.899999817251214
 20
49.300000258064301
 30
0.0
 11
80.866431730490149
 21
49.300000258064301
 31
0.0
  0
ARC
  5
2B5
  8
0
 62
     0
 10
101.1999998172505
 20
47.600000258065393
 30
0.0
 40
0.3000000000010914
 50
270.0
 51
28.782204680305579
  0
ARC
  5
2B6
  8
0
 62
     0
 10
81.899999817251214
 20
49.000000258065029
 30
0.0
 40
0.3
 50
0.0
 51
90.0
  0
ARC
  5
2B7
  8
0
 62
     0
 10
98.833567904010124
 20
46.300000258064301
 30
0.0
 40
3.0000000000001621
 50
28.782204680567212
 51
90.0
  0
LINE
  5
2B8
  8
0
 62
     0
 10
82.199999817250514
 20
44.600000258063567
 30
0.0
 11
82.199999817250514
 21
49.000000258065029
 31
0.0
  0
LINE
  5
2B9
  8
0
 62
     0
 10
98.833567904010124
 20
49.300000258064301
 30
0.0
 11
97.799999817250864
 21
49.300000258064301
 31
0.0
  0
ARC
  5
2BA
  8
0
 62
     0
 10
82.499999817249773
 20
44.600000258063567
 30
0.0
 40
0.3
 50
180.0
 51
270.0
  0
ARC
  5
2BB
  8
0
 62
     0
 10
97.799999817250864
 20
49.000000258065029
 30
0.0
 40
0.3
 50
90.0
 51
180.0
  0
LINE
  5
2BC
  8
0
 62
     0
 10
89.349999817250136
 20
44.300000258064301
 30
0.0
 11
82.499999817249773
 21
44.300000258064301
 31
0.0
  0
LINE
  5
2BD
  8
0
 62
     0
 10
97.499999817249773
 20
49.000000258065029
 30
0.0
 11
97.499999817249773
 21
44.600000258063567
 31
0.0
  0
LINE
  5
2BE
  8
0
 62
     0
 10
89.849999817250136
 20
43.800000258064301
 30
0.0
 11
89.349999817250136
 21
44.300000258064301
 31
0.0
  0
ARC
  5
2BF
  8
0
 62
     0
 10
97.199999817250514
 20
44.600000258063567
 30
0.0
 40
0.3
 50
270.0
 51
0.0
  0
LINE
  5
2C0
  8
0
 62
     0
 10
90.349999817250136
 20
44.300000258064301
 30
0.0
 11
89.849999817250136
 21
43.800000258064301
 31
0.0
  0
LINE
  5
2C1
  8
0
 62
     0
 10
97.199999817250514
 20
44.300000258064301
 30
0.0
 11
90.349999817250136
 21
44.300000258064301
 31
0.0
  0
LINE
  5
2C2
  8
0
 62
     0
 10
1.4999998172497719
 20
11.597570231587721
 30
0.0
 11
1.4999998172497719
 21
37.702430284539787
 31
0.0
  0
LINE
  5
2C3
  8
0
 62
     0
 10
1.4999998172497719
 20
37.702430284539787
 30
0.0
 11
59.765491231610213
 21
42.800000258064301
 31
0.0
  0
LINE
  5
2C4
  8
0
 62
     0
 10
59.765491231617489
 20
6.50000025806139
 30
0.0
 11
1.4999998172497719
 21
11.597570231587721
 31
0.0
  0
LINE
  5
2C5
  8
0
 62
     0
 10
59.765491231610213
 20
42.800000258064301
 30
0.0
 11
118.4999998172497
 21
42.800000258062482
 31
0.0
  0
LINE
  5
2C6
  8
0
 62
     0
 10
118.4999998172497
 20
6.500000258065028
 30
0.0
 11
59.765491231617489
 21
6.50000025806139
 31
0.0
  0
LINE
  5
2C7
  8
0
 62
     0
 10
118.4999998172497
 20
42.800000258062482
 30
0.0
 11
118.4999998172497
 21
6.500000258065028
 31
0.0
  0
ENDBLK
  5
2C9
  8
0
  0
ENDSEC
  0
SECTION
  2
ENTITIES
  0
LINE
  5
9B
  8
0
 62
     0
 10
946.6341035327813
 20
502.94432099479138
 30
0.0
 11
947.66767161954249
 21
502.94432099479138
 31
0.0
  0
ARC
  5
9C
  8
0
 62
     0
 10
947.66767161954249
 20
503.24432099479071
 30
0.0
 40
0.3
 50
270.0
 51
0.0
  0
ARC
  5
9D
  8
0
 62
     0
 10
946.6341035327813
 20
505.94432099479332
 30
0.0
 40
3.0000000000010369
 50
208.7822046806007
 51
270.0
  0
LINE
  5
9E
  8
0
 62
     0
 10
947.96767161954165
 20
503.24432099479071
 30
0.0
 11
947.96767161954165
 21
507.64432099479399
 31
0.0
  0
ARC
  5
9F
  8
0
 62
     0
 10
944.26767161954115
 20
504.64432099479222
 30
0.0
 40
0.2999999999992724
 50
90.0
 51
208.78220468064009
  0
ARC
  5
A0
  8
0
 62
     0
 10
948.26767161954103
 20
507.64432099479399
 30
0.0
 40
0.3
 50
90.0
 51
180.0
  0
LINE
  5
A1
  8
0
 62
     0
 10
946.16767161954249
 20
504.9443209947915
 30
0.0
 11
944.26767161954115
 21
504.9443209947915
 31
0.0
  0
LINE
  5
A2
  8
0
 62
     0
 10
948.26767161954103
 20
507.94432099479332
 30
0.0
 11
955.11767161954128
 21
507.94432099479332
 31
0.0
  0
ARC
  5
A3
  8
0
 62
     0
 10
946.16767161954249
 20
505.24432099479083
 30
0.0
 40
0.3
 50
270.0
 51
0.0
  0
LINE
  5
A4
  8
0
 62
     0
 10
955.11767161954128
 20
507.94432099479332
 30
0.0
 11
955.6176716195414
 21
508.44432099479332
 31
0.0
  0
LINE
  5
A5
  8
0
 62
     0
 10
946.46767161954176
 20
507.64432099479399
 30
0.0
 11
946.46767161954176
 21
505.24432099479083
 31
0.0
  0
LINE
  5
A6
  8
0
 62
     0
 10
955.6176716195414
 20
508.44432099479332
 30
0.0
 11
956.11767161954128
 21
507.94432099479332
 31
0.0
  0
ARC
  5
A7
  8
0
 62
     0
 10
946.16767161954249
 20
507.64432099479399
 30
0.0
 40
0.3
 50
0.0
 51
90.0
  0
LINE
  5
A8
  8
0
 62
     0
 10
956.11767161954128
 20
507.94432099479332
 30
0.0
 11
962.96767161954165
 21
507.94432099479332
 31
0.0
  0
LINE
  5
A9
  8
0
 62
     0
 10
937.21767161954165
 20
507.9443209947915
 30
0.0
 11
946.16767161954249
 21
507.94432099479332
 31
0.0
  0
ARC
  5
AA
  8
0
 62
     0
 10
962.96767161954165
 20
507.64432099479399
 30
0.0
 40
0.3
 50
0.0
 51
90.0
  0
LINE
  5
AB
  8
0
 62
     0
 10
936.71767161954176
 20
508.4443209947915
 30
0.0
 11
937.21767161954165
 21
507.9443209947915
 31
0.0
  0
LINE
  5
AC
  8
0
 62
     0
 10
963.26767161954103
 20
507.64432099479399
 30
0.0
 11
963.26767161954103
 21
503.24432099479071
 31
0.0
  0
LINE
  5
AD
  8
0
 62
     0
 10
936.21767161954165
 20
507.9443209947915
 30
0.0
 11
936.71767161954176
 21
508.4443209947915
 31
0.0
  0
ARC
  5
AE
  8
0
 62
     0
 10
963.56767161954212
 20
503.24432099479071
 30
0.0
 40
0.3
 50
180.0
 51
270.0
  0
LINE
  5
AF
  8
0
 62
     0
 10
927.26767161954115
 20
507.9443209947915
 30
0.0
 11
936.21767161954165
 21
507.9443209947915
 31
0.0
  0
LINE
  5
B0
  8
0
 62
     0
 10
963.56767161954212
 20
502.94432099479138
 30
0.0
 11
964.60123970630139
 21
502.94432099479138
 31
0.0
  0
ARC
  5
B1
  8
0
 62
     0
 10
927.26767161954115
 20
507.64432099479222
 30
0.0
 40
0.3
 50
90.0
 51
180.0
  0
ARC
  5
B2
  8
0
 62
     0
 10
964.60123970630139
 20
505.94432099479332
 30
0.0
 40
3.0000000000018181
 50
270.0
 51
331.2177953194161
  0
LINE
  5
B3
  8
0
 62
     0
 10
926.96767161954176
 20
505.24432099479083
 30
0.0
 11
926.96767161954176
 21
507.64432099479222
 31
0.0
  0
ARC
  5
B4
  8
0
 62
     0
 10
966.96767161954176
 20
504.64432099479222
 30
0.0
 40
0.2999999999996496
 50
331.21779531952711
 51
90.0
  0
ARC
  5
B5
  8
0
 62
     0
 10
927.26767161954115
 20
505.24432099479083
 30
0.0
 40
0.3
 50
180.0
 51
270.0
  0
LINE
  5
B6
  8
0
 62
     0
 10
966.96767161954176
 20
504.9443209947915
 30
0.0
 11
965.06767161954212
 21
504.9443209947915
 31
0.0
  0
LINE
  5
B7
  8
0
 62
     0
 10
929.16767161954249
 20
504.9443209947915
 30
0.0
 11
927.26767161954115
 21
504.9443209947915
 31
0.0
  0
ARC
  5
B8
  8
0
 62
     0
 10
965.06767161954212
 20
505.24432099479083
 30
0.0
 40
0.3
 50
180.0
 51
270.0
  0
ARC
  5
B9
  8
0
 62
     0
 10
929.16767161954249
 20
504.64432099479222
 30
0.0
 40
0.2999999999996496
 50
331.21779531952711
 51
90.0
  0
LINE
  5
BA
  8
0
 62
     0
 10
964.76767161954115
 20
505.24432099479083
 30
0.0
 11
964.76767161954115
 21
507.64432099479399
 31
0.0
  0
ARC
  5
BB
  8
0
 62
     0
 10
926.80123970630211
 20
505.94432099479332
 30
0.0
 40
3.0000000000018181
 50
270.0
 51
331.2177953194161
  0
ARC
  5
BC
  8
0
 62
     0
 10
965.06767161954212
 20
507.64432099479399
 30
0.0
 40
0.3
 50
90.0
 51
180.0
  0
LINE
  5
BD
  8
0
 62
     0
 10
925.76767161954103
 20
502.94432099479138
 30
0.0
 11
926.80123970630211
 21
502.94432099479138
 31
0.0
  0
LINE
  5
BE
  8
0
 62
     0
 10
965.06767161954212
 20
507.94432099479332
 30
0.0
 11
974.01767161954103
 21
507.9443209947915
 31
0.0
  0
ARC
  5
BF
  8
0
 62
     0
 10
925.76767161954103
 20
503.24432099479071
 30
0.0
 40
0.3
 50
180.0
 51
270.0
  0
LINE
  5
C0
  8
0
 62
     0
 10
974.01767161954103
 20
507.9443209947915
 30
0.0
 11
974.51767161954115
 21
508.4443209947915
 31
0.0
  0
LINE
  5
C1
  8
0
 62
     0
 10
925.46767161954165
 20
507.66942164258597
 30
0.0
 11
925.46767161954165
 21
503.24432099479071
 31
0.0
  0
LINE
  5
C2
  8
0
 62
     0
 10
974.51767161954115
 20
508.4443209947915
 30
0.0
 11
975.01767161954103
 21
507.9443209947915
 31
0.0
  0
ARC
  5
C3
  8
0
 62
     0
 10
925.16767161954238
 20
507.66942164258597
 30
0.0
 40
0.3
 50
0.0
 51
85.000000000265359
  0
LINE
  5
C4
  8
0
 62
     0
 10
975.01767161954103
 20
507.9443209947915
 30
0.0
 11
983.96767161954176
 21
507.9443209947915
 31
0.0
  0
LINE
  5
C5
  8
0
 62
     0
 10
866.04152489671742
 20
513.14343515006681
 30
0.0
 11
925.19381834236538
 21
507.96828005201331
 31
0.0
  0
ARC
  5
C6
  8
0
 62
     0
 10
983.96767161954176
 20
507.64432099479222
 30
0.0
 40
0.3
 50
0.0
 51
90.0
  0
ARC
  5
C7
  8
0
 62
     0
 10
866.06767161954212
 20
513.44229355949415
 30
0.0
 40
0.3
 50
180.0
 51
264.99999999991923
  0
LINE
  5
C8
  8
0
 62
     0
 10
984.26767161954115
 20
507.64432099479222
 30
0.0
 11
984.26767161954115
 21
505.24432099479083
 31
0.0
  0
LINE
  5
C9
  8
0
 62
     0
 10
865.76767161954103
 20
541.74634843008801
 30
0.0
 11
865.76767161954103
 21
513.44229355949415
 31
0.0
  0
ARC
  5
CA
  8
0
 62
     0
 10
983.96767161954176
 20
505.24432099479083
 30
0.0
 40
0.3
 50
270.0
 51
0.0
  0
ARC
  5
CB
  8
0
 62
     0
 10
866.06767161954212
 20
541.74634843008801
 30
0.0
 40
0.3
 50
95.000000000080746
 51
180.0
  0
LINE
  5
CC
  8
0
 62
     0
 10
983.96767161954176
 20
504.9443209947915
 30
0.0
 11
982.06767161954212
 21
504.9443209947915
 31
0.0
  0
LINE
  5
CD
  8
0
 62
     0
 10
925.19381834236538
 20
547.22036193757071
 30
0.0
 11
866.04152489671742
 21
542.04520683951534
 31
0.0
  0
ARC
  5
CE
  8
0
 62
     0
 10
982.06767161954212
 20
504.64432099479222
 30
0.0
 40
0.2999999999992724
 50
90.0
 51
208.78220468047289
  0
ARC
  5
CF
  8
0
 62
     0
 10
925.16767161954238
 20
547.51922034699805
 30
0.0
 40
0.3
 50
274.99999999973471
 51
0.0
  0
ARC
  5
D0
  8
0
 62
     0
 10
984.43410353278261
 20
505.94432099479332
 30
0.0
 40
3.0000000000010369
 50
208.78220468058399
 51
269.99999999996533
  0
LINE
  5
D1
  8
0
 62
     0
 10
925.46767161954165
 20
551.94432099479332
 30
0.0
 11
925.46767161954165
 21
547.51922034699805
 31
0.0
  0
LINE
  5
D2
  8
0
 62
     0
 10
984.43410353278057
 20
502.94432099479138
 30
0.0
 11
985.46767161954165
 21
502.94432099479138
 31
0.0
  0
ARC
  5
D3
  8
0
 62
     0
 10
925.76767161954103
 20
551.94432099479332
 30
0.0
 40
0.3
 50
90.0
 51
180.0
  0
ARC
  5
D4
  8
0
 62
     0
 10
985.46767161954165
 20
503.24432099479071
 30
0.0
 40
0.3
 50
270.0
 51
0.0
  0
LINE
  5
D5
  8
0
 62
     0
 10
926.80123970630211
 20
552.24432099479247
 30
0.0
 11
925.76767161954103
 21
552.24432099479247
 31
0.0
  0
LINE
  5
D6
  8
0
 62
     0
 10
985.76767161954103
 20
503.24432099479071
 30
0.0
 11
985.76767161954103
 21
551.94432099479332
 31
0.0
  0
ARC
  5
D7
  8
0
 62
     0
 10
926.80123970630211
 20
549.24432099479259
 30
0.0
 40
3.0000000000001621
 50
28.782204680583941
 51
90.0
  0
ARC
  5
D8
  8
0
 62
     0
 10
985.46767161954165
 20
551.94432099479332
 30
0.0
 40
0.3
 50
0.0
 51
90.0
  0
ARC
  5
D9
  8
0
 62
     0
 10
929.16767161954249
 20
550.54432099479357
 30
0.0
 40
0.3000000000010914
 50
270.0
 51
28.78220468047288
  0
LINE
  5
DA
  8
0
 62
     0
 10
985.46767161954165
 20
552.24432099479247
 30
0.0
 11
984.43410353278057
 21
552.24432099479247
 31
0.0
  0
LINE
  5
DB
  8
0
 62
     0
 10
927.26767161954115
 20
550.24432099479259
 30
0.0
 11
929.16767161954249
 21
550.24432099479259
 31
0.0
  0
ARC
  5
DC
  8
0
 62
     0
 10
984.43410353278261
 20
549.24432099479259
 30
0.0
 40
3.0
 50
90.00000000003476
 51
151.21779531944651
  0
ARC
  5
DD
  8
0
 62
     0
 10
927.26767161954115
 20
549.94432099479332
 30
0.0
 40
0.3
 50
90.0
 51
180.0
  0
ARC
  5
DE
  8
0
 62
     0
 10
982.06767161954212
 20
550.54432099479357
 30
0.0
 40
0.2999999999987738
 50
151.21779531983159
 51
270.0
  0
LINE
  5
DF
  8
0
 62
     0
 10
926.96767161954176
 20
547.54432099479175
 30
0.0
 11
926.96767161954176
 21
549.94432099479332
 31
0.0
  0
LINE
  5
E0
  8
0
 62
     0
 10
982.06767161954212
 20
550.24432099479429
 30
0.0
 11
983.96767161954176
 21
550.24432099479259
 31
0.0
  0
ARC
  5
E1
  8
0
 62
     0
 10
927.26767161954115
 20
547.54432099479175
 30
0.0
 40
0.3
 50
180.0
 51
270.0
  0
ARC
  5
E2
  8
0
 62
     0
 10
983.96767161954176
 20
549.94432099479332
 30
0.0
 40
0.3
 50
0.0
 51
90.0
  0
LINE
  5
E3
  8
0
 62
     0
 10
936.21767161954165
 20
547.24432099479247
 30
0.0
 11
927.26767161954115
 21
547.24432099479247
 31
0.0
  0
LINE
  5
E4
  8
0
 62
     0
 10
984.26767161954115
 20
549.94432099479332
 30
0.0
 11
984.26767161954115
 21
547.54432099479175
 31
0.0
  0
LINE
  5
E5
  8
0
 62
     0
 10
936.71767161954176
 20
546.74432099479247
 30
0.0
 11
936.21767161954165
 21
547.24432099479247
 31
0.0
  0
ARC
  5
E6
  8
0
 62
     0
 10
983.96767161954176
 20
547.54432099479175
 30
0.0
 40
0.3
 50
270.0
 51
0.0
  0
LINE
  5
E7
  8
0
 62
     0
 10
937.21767161954165
 20
547.24432099479247
 30
0.0
 11
936.71767161954176
 21
546.74432099479247
 31
0.0
  0
LINE
  5
E8
  8
0
 62
     0
 10
983.96767161954176
 20
547.24432099479247
 30
0.0
 11
975.01767161954103
 21
547.24432099479247
 31
0.0
  0
LINE
  5
E9
  8
0
 62
     0
 10
946.16767161954249
 20
547.24432099479247
 30
0.0
 11
937.21767161954165
 21
547.24432099479247
 31
0.0
  0
LINE
  5
EA
  8
0
 62
     0
 10
975.01767161954103
 20
547.24432099479247
 30
0.0
 11
974.51767161954115
 21
546.74432099479247
 31
0.0
  0
ARC
  5
EB
  8
0
 62
     0
 10
946.16767161954249
 20
547.54432099479175
 30
0.0
 40
0.3
 50
270.0
 51
0.0
  0
LINE
  5
EC
  8
0
 62
     0
 10
974.51767161954115
 20
546.74432099479247
 30
0.0
 11
974.01767161954103
 21
547.24432099479247
 31
0.0
  0
LINE
  5
ED
  8
0
 62
     0
 10
946.46767161954176
 20
549.94432099479332
 30
0.0
 11
946.46767161954176
 21
547.54432099479175
 31
0.0
  0
LINE
  5
EE
  8
0
 62
     0
 10
974.01767161954103
 20
547.24432099479247
 30
0.0
 11
965.06767161954212
 21
547.24432099479247
 31
0.0
  0
ARC
  5
EF
  8
0
 62
     0
 10
946.16767161954249
 20
549.94432099479332
 30
0.0
 40
0.3
 50
0.0
 51
90.0
  0
ARC
  5
F0
  8
0
 62
     0
 10
965.06767161954212
 20
547.54432099479175
 30
0.0
 40
0.3
 50
180.0
 51
270.0
  0
LINE
  5
F1
  8
0
 62
     0
 10
944.26767161954115
 20
550.24432099479429
 30
0.0
 11
946.16767161954249
 21
550.24432099479259
 31
0.0
  0
LINE
  5
F2
  8
0
 62
     0
 10
964.76767161954115
 20
547.54432099479175
 30
0.0
 11
964.76767161954115
 21
549.94432099479332
 31
0.0
  0
ARC
  5
F3
  8
0
 62
     0
 10
944.26767161954115
 20
550.54432099479357
 30
0.0
 40
0.2999999999987738
 50
151.2177953196643
 51
270.0
  0
ARC
  5
F4
  8
0
 62
     0
 10
965.06767161954212
 20
549.94432099479332
 30
0.0
 40
0.3
 50
90.0
 51
180.0
  0
ARC
  5
F5
  8
0
 62
     0
 10
946.6341035327813
 20
549.24432099479259
 30
0.0
 40
3.0
 50
90.0
 51
151.2177953194298
  0
LINE
  5
F6
  8
0
 62
     0
 10
965.06767161954212
 20
550.24432099479259
 30
0.0
 11
966.96767161954176
 21
550.24432099479259
 31
0.0
  0
LINE
  5
F7
  8
0
 62
     0
 10
947.66767161954249
 20
552.24432099479247
 30
0.0
 11
946.6341035327813
 21
552.24432099479247
 31
0.0
  0
ARC
  5
F8
  8
0
 62
     0
 10
966.96767161954176
 20
550.54432099479357
 30
0.0
 40
0.3000000000010914
 50
270.0
 51
28.782204680305579
  0
ARC
  5
F9
  8
0
 62
     0
 10
947.66767161954249
 20
551.94432099479332
 30
0.0
 40
0.3
 50
0.0
 51
90.0
  0
ARC
  5
FA
  8
0
 62
     0
 10
964.60123970630139
 20
549.24432099479259
 30
0.0
 40
3.0000000000001621
 50
28.782204680567212
 51
90.0
  0
LINE
  5
FB
  8
0
 62
     0
 10
947.96767161954165
 20
547.54432099479175
 30
0.0
 11
947.96767161954165
 21
551.94432099479332
 31
0.0
  0
LINE
  5
FC
  8
0
 62
     0
 10
964.60123970630139
 20
552.24432099479247
 30
0.0
 11
963.56767161954212
 21
552.24432099479247
 31
0.0
  0
ARC
  5
FD
  8
0
 62
     0
 10
948.26767161954103
 20
547.54432099479175
 30
0.0
 40
0.3
 50
180.0
 51
270.0
  0
ARC
  5
FE
  8
0
 62
     0
 10
963.56767161954212
 20
551.94432099479332
 30
0.0
 40
0.3
 50
90.0
 51
180.0
  0
LINE
  5
FF
  8
0
 62
     0
 10
955.11767161954128
 20
547.24432099479247
 30
0.0
 11
948.26767161954103
 21
547.24432099479247
 31
0.0
  0
LINE
  5
100
  8
0
 62
     0
 10
963.26767161954103
 20
551.94432099479332
 30
0.0
 11
963.26767161954103
 21
547.54432099479175
 31
0.0
  0
LINE
  5
101
  8
0
 62
     0
 10
955.6176716195414
 20
546.74432099479247
 30
0.0
 11
955.11767161954128
 21
547.24432099479247
 31
0.0
  0
ARC
  5
102
  8
0
 62
     0
 10
962.96767161954165
 20
547.54432099479175
 30
0.0
 40
0.3
 50
270.0
 51
0.0
  0
LINE
  5
103
  8
0
 62
     0
 10
956.11767161954128
 20
547.24432099479247
 30
0.0
 11
955.6176716195414
 21
546.74432099479247
 31
0.0
  0
LINE
  5
104
  8
0
 62
     0
 10
962.96767161954165
 20
547.24432099479247
 30
0.0
 11
956.11767161954128
 21
547.24432099479247
 31
0.0
  0
LINE
  5
105
  8
0
 62
     0
 10
867.26767161954092
 20
514.54189096831601
 30
0.0
 11
867.26767161954092
 21
540.64675102126807
 31
0.0
  0
LINE
  5
106
  8
0
 62
     0
 10
867.26767161954092
 20
540.64675102126807
 30
0.0
 11
925.53316303390136
 21
545.74432099479259
 31
0.0
  0
LINE
  5
107
  8
0
 62
     0
 10
925.53316303390875
 20
509.44432099478962
 30
0.0
 11
867.26767161954092
 21
514.54189096831601
 31
0.0
  0
LINE
  5
108
  8
0
 62
     0
 10
925.53316303390136
 20
545.74432099479259
 30
0.0
 11
984.26767161954115
 21
545.74432099479066
 31
0.0
  0
LINE
  5
109
  8
0
 62
     0
 10
984.26767161954115
 20
509.4443209947932
 30
0.0
 11
925.53316303390875
 21
509.44432099478962
 31
0.0
  0
LINE
  5
10A
  8
0
 62
     0
 10
984.26767161954115
 20
545.74432099479066
 30
0.0
 11
984.26767161954115
 21
509.4443209947932
 31
0.0
  0
ENDSEC
  0
EOF
