  0
SECTION
  2
HEADER
  9
$ACADVER
  1
AC1009
  9
$INSBASE
 10
0.0
 20
0.0
 30
0.0
  9
$EXTMIN
 10
629.60907153506901
 20
775.86808936329112
 30
-0.0015258207003583
  9
$EXTMAX
 10
709.58953988923406
 20
815.81643806306693
 30
0.0000000349246037
  9
$LIMMIN
 10
0.0
 20
0.0
  9
$LIMMAX
 10
420.0
 20
297.0
  9
$ORTHOMODE
 70
     0
  9
$REGENMODE
 70
     1
  9
$FILLMODE
 70
     1
  9
$QTEXTMODE
 70
     0
  9
$MIRRTEXT
 70
     0
  9
$DRAGMODE
 70
     2
  9
$LTSCALE
 40
1.0
  9
$OSMODE
 70
  3071
  9
$ATTMODE
 70
     1
  9
$TEXTSIZE
 40
2.5
  9
$TRACEWID
 40
1.0
  9
$TEXTSTYLE
  7
STANDARD
  9
$CLAYER
  8
0
  9
$CELTYPE
  6
BYLAYER
  9
$CECOLOR
 62
   256
  9
$DIMSCALE
 40
1.0
  9
$DIMASZ
 40
2.5
  9
$DIMEXO
 40
0.625
  9
$DIMDLI
 40
3.75
  9
$DIMRND
 40
0.0
  9
$DIMDLE
 40
0.0
  9
$DIMEXE
 40
1.25
  9
$DIMTP
 40
0.0
  9
$DIMTM
 40
0.0
  9
$DIMTXT
 40
2.5
  9
$DIMCEN
 40
2.5
  9
$DIMTSZ
 40
0.0
  9
$DIMTOL
 70
     0
  9
$DIMLIM
 70
     0
  9
$DIMTIH
 70
     0
  9
$DIMTOH
 70
     0
  9
$DIMSE1
 70
     0
  9
$DIMSE2
 70
     0
  9
$DIMTAD
 70
     1
  9
$DIMZIN
 70
     8
  9
$DIMBLK
  1

  9
$DIMASO
 70
     1
  9
$DIMSHO
 70
     1
  9
$DIMPOST
  1

  9
$DIMAPOST
  1

  9
$DIMALT
 70
     0
  9
$DIMALTD
 70
     3
  9
$DIMALTF
 40
0.03937007874016
  9
$DIMLFAC
 40
1.0
  9
$DIMTOFL
 70
     1
  9
$DIMTVP
 40
0.0
  9
$DIMTIX
 70
     0
  9
$DIMSOXD
 70
     0
  9
$DIMSAH
 70
     0
  9
$DIMBLK1
  1

  9
$DIMBLK2
  1

  9
$DIMSTYLE
  2
ISO-25
  9
$DIMCLRD
 70
     0
  9
$DIMCLRE
 70
     0
  9
$DIMCLRT
 70
     0
  9
$DIMTFAC
 40
1.0
  9
$DIMGAP
 40
0.625
  9
$LUNITS
 70
     2
  9
$LUPREC
 70
     4
  9
$SKETCHINC
 40
1.0
  9
$FILLETRAD
 40
0.0
  9
$AUNITS
 70
     0
  9
$AUPREC
 70
     0
  9
$MENU
  1
.
  9
$ELEVATION
 40
0.0
  9
$PELEVATION
 40
0.0
  9
$THICKNESS
 40
0.0
  9
$LIMCHECK
 70
     0
  9
$BLIPMODE
 70
     0
  9
$CHAMFERA
 40
0.0
  9
$CHAMFERB
 40
0.0
  9
$SKPOLY
 70
     0
  9
$TDCREATE
 40
2455987.4402259612
  9
$TDUPDATE
 40
2455987.4403709369
  9
$TDINDWG
 40
0.0001454398
  9
$TDUSRTIMER
 40
0.0001454398
  9
$USRTIMER
 70
     1
  9
$ANGBASE
 50
0.0
  9
$ANGDIR
 70
     0
  9
$PDMODE
 70
     0
  9
$PDSIZE
 40
0.0
  9
$PLINEWID
 40
0.0
  9
$COORDS
 70
     0
  9
$SPLFRAME
 70
     0
  9
$SPLINETYPE
 70
     6
  9
$SPLINESEGS
 70
     8
  9
$ATTDIA
 70
     0
  9
$ATTREQ
 70
     1
  9
$HANDLING
 70
     1
  9
$HANDSEED
  5
2AC
  9
$SURFTAB1
 70
     6
  9
$SURFTAB2
 70
     6
  9
$SURFTYPE
 70
     6
  9
$SURFU
 70
     6
  9
$SURFV
 70
     6
  9
$UCSNAME
  2

  9
$UCSORG
 10
0.0
 20
0.0
 30
0.0
  9
$UCSXDIR
 10
1.0
 20
0.0
 30
0.0
  9
$UCSYDIR
 10
0.0
 20
1.0
 30
0.0
  9
$PUCSNAME
  2

  9
$PUCSORG
 10
0.0
 20
0.0
 30
0.0
  9
$PUCSXDIR
 10
1.0
 20
0.0
 30
0.0
  9
$PUCSYDIR
 10
0.0
 20
1.0
 30
0.0
  9
$USERI1
 70
     0
  9
$USERI2
 70
     0
  9
$USERI3
 70
     0
  9
$USERI4
 70
     0
  9
$USERI5
 70
     0
  9
$USERR1
 40
0.0
  9
$USERR2
 40
0.0
  9
$USERR3
 40
0.0
  9
$USERR4
 40
0.0
  9
$USERR5
 40
0.0
  9
$WORLDVIEW
 70
     1
  9
$SHADEDGE
 70
     3
  9
$SHADEDIF
 70
    70
  9
$TILEMODE
 70
     1
  9
$MAXACTVP
 70
    64
  9
$PLIMCHECK
 70
     0
  9
$PEXTMIN
 10
0.0
 20
0.0
 30
0.0
  9
$PEXTMAX
 10
0.0
 20
0.0
 30
0.0
  9
$PLIMMIN
 10
0.0
 20
0.0
  9
$PLIMMAX
 10
12.0
 20
9.0
  9
$UNITMODE
 70
     0
  9
$VISRETAIN
 70
     1
  9
$PLINEGEN
 70
     0
  9
$PSLTSCALE
 70
     1
  0
ENDSEC
  0
SECTION
  2
TABLES
  0
TABLE
  2
VPORT
 70
     2
  0
VPORT
  2
*ACTIVE
 70
     0
 10
0.0
 20
0.0
 11
1.0
 21
1.0
 12
669.59930571215159
 22
795.84226371317902
 13
0.0
 23
0.0
 14
10.0
 24
10.0
 15
10.0
 25
10.0
 16
0.0
 26
0.0
 36
1.0
 17
0.0
 27
0.0
 37
0.0
 40
40.318812520793927
 41
2.3219814241486061
 42
50.0
 43
0.0
 44
0.0
 50
0.0
 51
0.0
 71
     0
 72
  1000
 73
     1
 74
     3
 75
     0
 76
     0
 77
     0
 78
     0
  0
ENDTAB
  0
TABLE
  2
LTYPE
 70
     1
  0
LTYPE
  2
CONTINUOUS
 70
     0
  3
Solid line
 72
    65
 73
     0
 40
0.0
  0
ENDTAB
  0
TABLE
  2
LAYER
 70
     1
  0
LAYER
  2
0
 70
     0
 62
     7
  6
CONTINUOUS
  0
ENDTAB
  0
TABLE
  2
STYLE
 70
     2
  0
STYLE
  2
STANDARD
 70
     0
 40
0.0
 41
1.0
 50
0.0
 71
     0
 42
2.5
  3
txt
  4

  0
STYLE
  2
ROMANT
 70
     0
 40
3.0
 41
1.0
 50
15.0
 71
     0
 42
3.0
  3
romant.shx
  4

  0
ENDTAB
  0
TABLE
  2
VIEW
 70
     0
  0
ENDTAB
  0
TABLE
  2
UCS
 70
     0
  0
ENDTAB
  0
TABLE
  2
APPID
 70
     4
  0
APPID
  2
ACAD
 70
     0
  0
APPID
  2
ACADANNOTATIVE
 70
     0
  0
APPID
  2
ACAD_DSTYLE_DIMJAG
 70
     0
  0
APPID
  2
ACAD_DSTYLE_DIMTALN
 70
     0
  0
ENDTAB
  0
TABLE
  2
DIMSTYLE
 70
     4
  0
DIMSTYLE
  2
ISO-25
 70
     0
  3

  4

  5

  6

  7

 40
1.0
 41
2.5
 42
0.625
 43
3.75
 44
1.25
 45
0.0
 46
0.0
 47
0.0
 48
0.0
140
2.5
141
2.5
142
0.0
143
0.03937007874016
144
1.0
145
0.0
146
1.0
147
0.625
 71
     0
 72
     0
 73
     0
 74
     0
 75
     0
 76
     0
 77
     1
 78
     8
170
     0
171
     3
172
     1
173
     0
174
     0
175
     0
176
     0
177
     0
178
     0
  0
DIMSTYLE
  2
STANDARD
 70
     0
  3

  4

  5

  6

  7

 40
1.0
 41
0.18
 42
0.0625
 43
0.38
 44
0.18
 45
0.0
 46
0.0
 47
0.0
 48
0.0
140
0.18
141
0.09
142
0.0
143
25.399999999999999
144
1.0
145
0.0
146
1.0
147
0.09
 71
     0
 72
     0
 73
     1
 74
     1
 75
     0
 76
     0
 77
     0
 78
     0
170
     0
171
     2
172
     0
173
     0
174
     0
175
     0
176
     0
177
     0
178
     0
  0
DIMSTYLE
  2
ANNOTATIVE
 70
     0
  3

  4

  5

  6

  7

 40
0.0
 41
0.18
 42
0.0625
 43
0.38
 44
0.18
 45
0.0
 46
0.0
 47
0.0
 48
0.0
140
0.18
141
0.09
142
0.0
143
25.399999999999999
144
1.0
145
0.0
146
1.0
147
0.09
 71
     0
 72
     0
 73
     1
 74
     1
 75
     0
 76
     0
 77
     0
 78
     0
170
     0
171
     2
172
     0
173
     0
174
     0
175
     0
176
     0
177
     0
178
     0
  0
DIMSTYLE
  2
ISO-25_1_E_2
 70
     0
  3

  4

  5

  6

  7

 40
1.0
 41
2.299999999999998
 42
0.0
 43
3.75
 44
0.0
 45
0.0
 46
0.0
 47
0.0
 48
0.0
140
3.0
141
0.2
142
0.0
143
0.03937007874016
144
0.5
145
0.0
146
1.0
147
0.2
 71
     0
 72
     0
 73
     0
 74
     0
 75
     0
 76
     0
 77
     1
 78
     8
170
     0
171
     3
172
     0
173
     0
174
     0
175
     0
176
   242
177
   242
178
     1
  0
ENDTAB
  0
ENDSEC
  0
SECTION
  2
BLOCKS
  0
BLOCK
  8
0
  2
$MODEL_SPACE
 70
     0
 10
0.0
 20
0.0
 30
0.0
  3
$MODEL_SPACE
  1

  0
ENDBLK
  5
21
  8
0
  0
BLOCK
 67
     1
  8
0
  2
$PAPER_SPACE
 70
     0
 10
0.0
 20
0.0
 30
0.0
  3
$PAPER_SPACE
  1

  0
ENDBLK
  5
53
 67
     1
  8
0
  0
BLOCK
  8
0
  2
*X2
 70
     1
 10
0.0
 20
0.0
 30
0.0
  3
*X2
  1

  0
LINE
  5
144
  8
0
 62
     0
 10
70.305942356469927
 20
0.0172826190356545
 30
0.0
 11
70.779147789260378
 21
0.4904880518262189
 31
0.0
  0
LINE
  5
145
  8
0
 62
     0
 10
72.600080229378364
 20
3.5488573590206438
 30
0.0
 11
73.600000872850615
 21
4.5487780024928952
 31
0.0
  0
LINE
  5
146
  8
0
 62
     0
 10
69.168057513546955
 20
0.116834643189236
 30
0.0
 11
70.448942499522104
 21
1.3977196291643841
 31
0.0
  0
LINE
  5
147
  8
0
 62
     0
 10
71.362643362299991
 20
3.5488573590187111
 30
0.0
 11
73.600000872857208
 21
5.7862148695759279
 31
0.0
  0
LINE
  5
148
  8
0
 62
     0
 10
77.662643362258677
 20
9.8488573589773978
 30
0.0
 11
78.700000873032195
 21
10.88621486975091
 31
0.0
  0
LINE
  5
149
  8
0
 62
     0
 10
68.044482463456916
 20
0.2306964601755226
 30
0.0
 11
69.909181152121164
 21
2.0953951488398839
 31
0.0
  0
LINE
  5
14A
  8
0
 62
     0
 10
70.125173204974772
 20
3.5488240687699308
 30
0.0
 11
73.600000872863916
 21
7.0236517366590761
 31
0.0
  0
LINE
  5
14B
  8
0
 62
     0
 10
76.425206495183374
 20
9.8488573589784192
 30
0.0
 11
78.660539522808335
 21
12.08419038660349
 31
0.0
  0
LINE
  5
14C
  8
0
 62
     0
 10
68.073734197623253
 20
1.4973850614184121
 30
0.0
 11
69.829675615940914
 21
3.2533264797360739
 31
0.0
  0
LINE
  5
14D
  8
0
 62
     0
 10
71.700000873036615
 20
6.3610886039083416
 30
0.0
 11
73.600000872870723
 21
8.2610886037424507
 31
0.0
  0
LINE
  5
14E
  8
0
 62
     0
 10
75.187769628107844
 20
9.8488573589795578
 30
0.0
 11
78.268570948794135
 21
12.929658679665859
 31
0.0
  0
LINE
  5
14F
  8
0
 62
     0
 10
68.525066159650692
 20
3.1861538905224052
 30
0.0
 11
70.787769628087844
 21
5.4488573589595708
 31
0.0
  0
LINE
  5
150
  8
0
 62
     0
 10
73.950332761032655
 20
9.8488573589806947
 30
0.0
 11
75.950332761030722
 21
11.84885735897876
 31
0.0
  0
LINE
  5
151
  8
0
 62
     0
 10
71.700000873036515
 20
7.5985254709844412
 30
0.0
 11
73.600000872877672
 21
9.4985254708257116
 31
0.0
  0
LINE
  5
152
  8
0
 62
     0
 10
76.700000873031627
 20
12.598525470979659
 30
0.0
 11
77.584243357599348
 21
13.482767955547271
 31
0.0
  0
LINE
  5
153
  8
0
 62
     0
 10
67.600332761012623
 20
3.4988573589606631
 30
0.0
 11
69.550332761011532
 21
5.4488573589594571
 31
0.0
  0
LINE
  5
154
  8
0
 62
     0
 10
66.362895893935729
 20
3.498857358960322
 30
0.0
 11
68.312895893934865
 21
5.4488573589594571
 31
0.0
  0
LINE
  5
155
  8
0
 62
     0
 10
71.700000873036402
 20
8.8359623380609946
 30
0.0
 11
74.712895893954851
 21
11.848857358979441
 31
0.0
  0
LINE
  5
156
  8
0
 62
     0
 10
63.862895893935843
 20
0.9988573589604357
 30
0.0
 11
64.311949946869163
 21
1.4479114118937551
 31
0.0
  0
LINE
  5
157
  8
0
 62
     0
 10
65.125459026859176
 20
3.4988573589602079
 30
0.0
 11
67.075459026858653
 21
5.4488573589596854
 31
0.0
  0
LINE
  5
158
  8
0
 62
     0
 10
71.700000873036174
 20
10.073399205137211
 30
0.0
 11
73.634943529859584
 21
12.008341861960609
 31
0.0
  0
LINE
  5
159
  8
0
 62
     0
 10
62.640947248095813
 20
1.0143455801968451
 30
0.0
 11
63.842966569260739
 21
2.216364901361771
 31
0.0
  0
LINE
  5
15A
  8
0
 62
     0
 10
63.888022159782508
 20
3.4988573589599801
 30
0.0
 11
65.838022159782213
 21
5.4488573589596854
 31
0.0
  0
LINE
  5
15B
  8
0
 62
     0
 10
71.700000873036061
 20
11.310836072213529
 30
0.0
 11
73.600000872903934
 21
13.210836072081401
 31
0.0
  0
LINE
  5
15C
  8
0
 62
     0
 10
61.924640297392102
 20
1.535475496569574
 30
0.0
 11
63.429642325692953
 21
3.040477524870425
 31
0.0
  0
LINE
  5
15D
  8
0
 62
     0
 10
71.700000873035947
 20
12.548272939289861
 30
0.0
 11
73.600000872912105
 21
14.44827293916603
 31
0.0
  0
LINE
  5
15E
  8
0
 62
     0
 10
61.432333643762831
 20
2.2806057100167432
 30
0.0
 11
64.600585292705773
 21
5.4488573589596854
 31
0.0
  0
LINE
  5
15F
  8
0
 62
     0
 10
71.700000873035719
 20
13.78570980636618
 30
0.0
 11
73.600000872920305
 21
15.68570980625077
 31
0.0
  0
LINE
  5
160
  8
0
 62
     0
 10
60.940489488444882
 20
3.026198421775347
 30
0.0
 11
63.363148425629333
 21
5.4488573589596854
 31
0.0
  0
LINE
  5
161
  8
0
 62
     0
 10
71.700000873035719
 20
15.023146673442509
 30
0.0
 11
73.600000872928604
 21
16.923146673335282
 31
0.0
  0
LINE
  5
162
  8
0
 62
     0
 10
60.149790119815627
 20
3.472935920222425
 30
0.0
 11
62.125711558553
 21
5.4488573589597991
 31
0.0
  0
LINE
  5
163
  8
0
 62
     0
 10
71.700000873035492
 20
16.260583540518841
 30
0.0
 11
73.600000872936562
 21
18.160583540419911
 31
0.0
  0
LINE
  5
164
  8
0
 62
     0
 10
58.91327469151679
 20
3.4738573590001351
 30
0.0
 11
60.88827469147656
 21
5.4488573589599119
 31
0.0
  0
LINE
  5
165
  8
0
 62
     0
 10
71.700000873035378
 20
17.49802040759516
 30
0.0
 11
73.600000872944506
 21
19.398020407504301
 31
0.0
  0
LINE
  5
166
  8
0
 62
     0
 10
57.675837824440237
 20
3.473857359000021
 30
0.0
 11
59.650837824400007
 21
5.4488573589597991
 31
0.0
  0
LINE
  5
167
  8
0
 62
     0
 10
71.700000873035265
 20
18.735457274671489
 30
0.0
 11
73.600000872952819
 21
20.635457274589051
 31
0.0
  0
LINE
  5
168
  8
0
 62
     0
 10
56.43840095736369
 20
3.4738573589999069
 30
0.0
 11
58.413400957323802
 21
5.4488573589600264
 31
0.0
  0
LINE
  5
169
  8
0
 62
     0
 10
71.700000873035023
 20
19.972894141747702
 30
0.0
 11
73.600000872961004
 21
21.872894141673559
 31
0.0
  0
LINE
  5
16A
  8
0
 62
     0
 10
55.20096409028713
 20
3.4738573589997941
 30
0.0
 11
57.175964090247248
 21
5.4488573589599119
 31
0.0
  0
LINE
  5
16B
  8
0
 62
     0
 10
71.700000873035151
 20
21.210331008824259
 30
0.0
 11
73.600000872969304
 21
23.110331008758411
 31
0.0
  0
LINE
  5
16C
  8
0
 62
     0
 10
53.963527223210797
 20
3.4738573589999069
 30
0.0
 11
55.938527223170922
 21
5.4488573589600264
 31
0.0
  0
LINE
  5
16D
  8
0
 62
     0
 10
71.700000873034696
 20
22.44776787590035
 30
0.0
 11
73.600000872977375
 21
24.347767875843029
 31
0.0
  0
LINE
  5
16E
  8
0
 62
     0
 10
77.380374668162744
 20
28.128141671028398
 30
0.0
 11
78.58071656098241
 21
29.328483563848071
 31
0.0
  0
LINE
  5
16F
  8
0
 62
     0
 10
52.72609035613425
 20
3.4738573589999069
 30
0.0
 11
54.701090356094369
 21
5.4488573589600264
 31
0.0
  0
LINE
  5
170
  8
0
 62
     0
 10
71.70000087303481
 20
23.68520474297679
 30
0.0
 11
73.600000872985675
 21
25.585204742927662
 31
0.0
  0
LINE
  5
171
  8
0
 62
     0
 10
76.700000873032764
 20
28.685204742974751
 30
0.0
 11
78.700000873032877
 21
30.685204742974751
 31
0.0
  0
LINE
  5
172
  8
0
 62
     0
 10
51.48865348905769
 20
3.47385735899968
 30
0.0
 11
53.463653489018043
 21
5.4488573589600264
 31
0.0
  0
LINE
  5
173
  8
0
 62
     0
 10
71.700000873034583
 20
24.92264161005312
 30
0.0
 11
73.600000872993746
 21
26.82264161001228
 31
0.0
  0
LINE
  5
174
  8
0
 62
     0
 10
76.572008175627047
 20
29.794648912645592
 30
0.0
 11
78.572008175628525
 21
31.794648912647059
 31
0.0
  0
LINE
  5
175
  8
0
 62
     0
 10
50.251216621981143
 20
3.47385735899968
 30
0.0
 11
52.226216621941489
 21
5.4488573589600264
 31
0.0
  0
LINE
  5
176
  8
0
 62
     0
 10
71.700000873034583
 20
26.160078477129559
 30
0.0
 11
73.600000873002045
 21
28.060078477096909
 31
0.0
  0
LINE
  5
177
  8
0
 62
     0
 10
75.388779754883103
 20
29.84885735897808
 30
0.0
 11
77.48147162701639
 21
31.941549231111249
 31
0.0
  0
LINE
  5
178
  8
0
 62
     0
 10
49.013779754904697
 20
3.47385735899968
 30
0.0
 11
50.98877975486505
 21
5.4488573589599119
 31
0.0
  0
LINE
  5
179
  8
0
 62
     0
 10
71.700000873034242
 20
27.397515344205662
 30
0.0
 11
73.600000873010003
 21
29.29751534418142
 31
0.0
  0
LINE
  5
17A
  8
0
 62
     0
 10
74.151342887806663
 20
29.84885735897808
 30
0.0
 11
77.398320284192778
 21
33.095834755364187
 31
0.0
  0
LINE
  5
17B
  8
0
 62
     0
 10
47.776342887828257
 20
3.47385735899968
 30
0.0
 11
49.751342887788503
 21
5.4488573589599119
 31
0.0
  0
LINE
  5
17C
  8
0
 62
     0
 10
71.700000873034128
 20
28.634952211281991
 30
0.0
 11
74.913906020732952
 21
31.848857358980808
 31
0.0
  0
LINE
  5
17D
  8
0
 62
     0
 10
75.398320284192778
 20
32.33327162244052
 30
0.0
 11
77.384301000388859
 21
34.319252338636602
 31
0.0
  0
LINE
  5
17E
  8
0
 62
     0
 10
46.53890602075171
 20
3.4738573589995658
 30
0.0
 11
48.513906020712049
 21
5.4488573589599119
 31
0.0
  0
LINE
  5
17F
  8
0
 62
     0
 10
71.700000873034128
 20
29.872389078358541
 30
0.0
 11
73.676469153656512
 21
31.848857358980919
 31
0.0
  0
LINE
  5
180
  8
0
 62
     0
 10
75.398320284192778
 20
33.570708489517187
 30
0.0
 11
77.190005895834815
 21
35.362394101159232
 31
0.0
  0
LINE
  5
181
  8
0
 62
     0
 10
45.301469153675257
 20
3.47385735899968
 30
0.0
 11
47.276469153635837
 21
5.4488573589602529
 31
0.0
  0
LINE
  5
182
  8
0
 62
     0
 10
71.700000873034014
 20
31.10982594543475
 30
0.0
 11
72.439032286580073
 21
31.848857358980808
 31
0.0
  0
LINE
  5
183
  8
0
 62
     0
 10
75.30016148346067
 20
34.709986555861413
 30
0.0
 11
76.829850341640508
 21
36.239675414041251
 31
0.0
  0
LINE
  5
184
  8
0
 62
     0
 10
44.064032286598831
 20
3.473857358999453
 30
0.0
 11
46.039032286559397
 21
5.4488573589601401
 31
0.0
  0
LINE
  5
185
  8
0
 62
     0
 10
74.922642947949953
 20
35.569904887427242
 30
0.0
 11
76.341423711656262
 21
36.988685651133551
 31
0.0
  0
LINE
  5
186
  8
0
 62
     0
 10
42.82659541952227
 20
3.4738573589995658
 30
0.0
 11
44.801595419482958
 21
5.4488573589602529
 31
0.0
  0
LINE
  5
187
  8
0
 62
     0
 10
74.345969657471642
 20
36.230668464025371
 30
0.0
 11
75.739255597803435
 21
37.623954404357157
 31
0.0
  0
LINE
  5
188
  8
0
 62
     0
 10
41.589158552445603
 20
3.4738573589993389
 30
0.0
 11
43.56415855240629
 21
5.4488573589600264
 31
0.0
  0
LINE
  5
189
  8
0
 62
     0
 10
73.582931972670849
 20
36.705067646301018
 30
0.0
 11
75.025025933623851
 21
38.14716160725402
 31
0.0
  0
LINE
  5
18A
  8
0
 62
     0
 10
40.351721685369277
 20
3.473857358999453
 30
0.0
 11
42.326721685329971
 21
5.4488573589601401
 31
0.0
  0
LINE
  5
18B
  8
0
 62
     0
 10
72.583560374936496
 20
36.943132915643112
 30
0.0
 11
74.188540722285438
 21
38.548113262992047
 31
0.0
  0
LINE
  5
18C
  8
0
 62
     0
 10
39.114284818292731
 20
3.4738573589993389
 30
0.0
 11
41.089284818253411
 21
5.4488573589600264
 31
0.0
  0
LINE
  5
18D
  8
0
 62
     0
 10
71.351847951272021
 20
36.948857359055069
 30
0.0
 11
73.20117701921879
 21
38.798186427001838
 31
0.0
  0
LINE
  5
18E
  8
0
 62
     0
 10
37.876847951216412
 20
3.473857358999453
 30
0.0
 11
39.851847951177092
 21
5.4488573589601401
 31
0.0
  0
LINE
  5
18F
  8
0
 62
     0
 10
70.114411084195467
 20
36.948857359055069
 30
0.0
 11
72.014411084113476
 21
38.848857358973078
 31
0.0
  0
LINE
  5
190
  8
0
 62
     0
 10
36.639411084139631
 20
3.4738573589992252
 30
0.0
 11
38.614411084100539
 21
5.4488573589601401
 31
0.0
  0
LINE
  5
191
  8
0
 62
     0
 10
35.401974217063298
 20
3.4738573589992252
 30
0.0
 11
37.376974217024213
 21
5.4488573589601401
 31
0.0
  0
LINE
  5
192
  8
0
 62
     0
 10
68.876974217119141
 20
36.948857359054962
 30
0.0
 11
70.776974217037264
 21
38.848857358973191
 31
0.0
  0
LINE
  5
193
  8
0
 62
     0
 10
33.063013424220003
 20
1.13489656615593
 30
0.0
 11
33.426714748520681
 21
1.498597890456608
 31
0.0
  0
LINE
  5
194
  8
0
 62
     0
 10
67.639537350042588
 20
36.948857359054962
 30
0.0
 11
69.539537349961051
 21
38.848857358973532
 31
0.0
  0
LINE
  5
195
  8
0
 62
     0
 10
31.689537349951141
 20
0.9988573589636189
 30
0.0
 11
36.139537349947773
 21
5.4488573589602529
 31
0.0
  0
LINE
  5
196
  8
0
 62
     0
 10
66.402100482966034
 20
36.948857359054962
 30
0.0
 11
68.302100482884725
 21
38.848857358973653
 31
0.0
  0
LINE
  5
197
  8
0
 62
     0
 10
31.33724889988946
 20
1.8840057759783799
 30
0.0
 11
34.90210048287134
 21
5.4488573589602529
 31
0.0
  0
LINE
  5
198
  8
0
 62
     0
 10
65.164663615889594
 20
36.948857359054962
 30
0.0
 11
67.064663615808513
 21
38.848857358973881
 31
0.0
  0
LINE
  5
199
  8
0
 62
     0
 10
31.70939374865327
 20
3.49358749181863
 30
0.0
 11
33.664663615794893
 21
5.4488573589602529
 31
0.0
  0
LINE
  5
19A
  8
0
 62
     0
 10
30.47722674872114
 20
3.4988573589629359
 30
0.0
 11
32.427226748718461
 21
5.4488573589602529
 31
0.0
  0
LINE
  5
19B
  8
0
 62
     0
 10
63.927226748813162
 20
36.948857359054962
 30
0.0
 11
65.827226748732187
 21
38.848857358973987
 31
0.0
  0
LINE
  5
19C
  8
0
 62
     0
 10
27.179595646286661
 20
0.2012262565284573
 30
0.0
 11
27.842469489493741
 21
0.8641000997355376
 31
0.0
  0
LINE
  5
19D
  8
0
 62
     0
 10
29.239789881645152
 20
3.4988573589635048
 30
0.0
 11
31.18978988164201
 21
5.4488573589603666
 31
0.0
  0
LINE
  5
19E
  8
0
 62
     0
 10
62.689789881736708
 20
36.948857359055069
 30
0.0
 11
64.589789881655861
 21
38.848857358974222
 31
0.0
  0
LINE
  5
19F
  8
0
 62
     0
 10
25.823517296776231
 20
0.0825847740945847
 30
0.0
 11
27.294314168330061
 21
1.5533816456483001
 31
0.0
  0
LINE
  5
1A0
  8
0
 62
     0
 10
28.00235301456917
 20
3.4988573589638459
 30
0.0
 11
29.952353014565581
 21
5.4488573589602529
 31
0.0
  0
LINE
  5
1A1
  8
0
 62
     0
 10
61.452353014660268
 20
36.948857359054962
 30
0.0
 11
63.352353014579649
 21
38.848857358974328
 31
0.0
  0
LINE
  5
1A2
  8
0
 62
     0
 10
24.617291312833459
 20
0.1137956572281382
 30
0.0
 11
27.03281298894785
 21
2.5293173333425321
 31
0.0
  0
LINE
  5
1A3
  8
0
 62
     0
 10
25.553180655620739
 20
2.287121867091968
 30
0.0
 11
28.714916147489252
 21
5.4488573589604812
 31
0.0
  0
LINE
  5
1A4
  8
0
 62
     0
 10
60.214916147583828
 20
36.948857359055069
 30
0.0
 11
62.114916147503322
 21
38.848857358974549
 31
0.0
  0
LINE
  5
1A5
  8
0
 62
     0
 10
25.089184067573228
 20
1.823125279044461
 30
0.0
 11
25.25347692610671
 21
1.9874181375779469
 31
0.0
  0
LINE
  5
1A6
  8
0
 62
     0
 10
58.977479280507282
 20
36.948857359054962
 30
0.0
 11
60.877479280426883
 21
38.848857358974549
 31
0.0
  0
LINE
  5
1A7
  8
0
 62
     0
 10
25.47723517365387
 20
3.4486132522015391
 30
0.0
 11
27.477479280412691
 21
5.4488573589603666
 31
0.0
  0
LINE
  5
1A8
  8
0
 62
     0
 10
57.740042413430963
 20
36.948857359055069
 30
0.0
 11
59.640042413350791
 21
38.848857358974897
 31
0.0
  0
LINE
  5
1A9
  8
0
 62
     0
 10
24.340042413339571
 20
3.5488573589636871
 30
0.0
 11
26.240042413336369
 21
5.4488573589604812
 31
0.0
  0
LINE
  5
1AA
  8
0
 62
     0
 10
56.502605546354403
 20
36.948857359055069
 30
0.0
 11
58.402605546274337
 21
38.84885735897501
 31
0.0
  0
LINE
  5
1AB
  8
0
 62
     0
 10
23.102605546262229
 20
3.5488573589628909
 30
0.0
 11
25.002605546259812
 21
5.4488573589604812
 31
0.0
  0
LINE
  5
1AC
  8
0
 62
     0
 10
55.265168679278069
 20
36.948857359055069
 30
0.0
 11
57.165168679198352
 21
38.848857358975351
 31
0.0
  0
LINE
  5
1AD
  8
0
 62
     0
 10
21.8651686791851
 20
3.5488573589620951
 30
0.0
 11
23.765168679183489
 21
5.4488573589604812
 31
0.0
  0
LINE
  5
1AE
  8
0
 62
     0
 10
54.027731812201523
 20
36.948857359055069
 30
0.0
 11
55.927731812121799
 21
38.848857358975351
 31
0.0
  0
LINE
  5
1AF
  8
0
 62
     0
 10
21.006717729537971
 20
3.927843276391513
 30
0.0
 11
22.527731812107049
 21
5.448857358960594
 31
0.0
  0
LINE
  5
1B0
  8
0
 62
     0
 10
52.790294945125083
 20
36.948857359054962
 30
0.0
 11
54.690294945045594
 21
38.848857358975579
 31
0.0
  0
LINE
  5
1B1
  8
0
 62
     0
 10
20.22221419139089
 20
4.3807766053208752
 30
0.0
 11
21.644809455582848
 21
5.80337186951283
 31
0.0
  0
LINE
  5
1B2
  8
0
 62
     0
 10
23.352858077958778
 20
8.7488573589652106
 30
0.0
 11
23.700000873036629
 21
9.0960001540430522
 31
0.0
  0
LINE
  5
1B3
  8
0
 62
     0
 10
51.55285807804853
 20
36.948857359054962
 30
0.0
 11
53.452858077969381
 21
38.848857358975813
 31
0.0
  0
LINE
  5
1B4
  8
0
 62
     0
 10
19.437710653243698
 20
4.8337099342501233
 30
0.0
 11
20.860305917435539
 21
6.2563051984419644
 31
0.0
  0
LINE
  5
1B5
  8
0
 62
     0
 10
22.11542121088257
 20
8.7488573589654361
 30
0.0
 11
23.700000873036629
 21
10.33343702111949
 31
0.0
  0
LINE
  5
1B6
  8
0
 62
     0
 10
50.31542121097209
 20
36.948857359054962
 30
0.0
 11
52.215421210893062
 21
38.84885735897592
 31
0.0
  0
LINE
  5
1B7
  8
0
 62
     0
 10
18.65320711509651
 20
5.2866432631793714
 30
0.0
 11
20.075802379288241
 21
6.7092385273710979
 31
0.0
  0
LINE
  5
1B8
  8
0
 62
     0
 10
20.877984343806361
 20
8.7488573589657772
 30
0.0
 11
23.700000873036629
 21
11.57087388819604
 31
0.0
  0
LINE
  5
1B9
  8
0
 62
     0
 10
49.07798434389565
 20
36.948857359055069
 30
0.0
 11
50.977984343816722
 21
38.848857358976147
 31
0.0
  0
LINE
  5
1BA
  8
0
 62
     0
 10
17.868703576949311
 20
5.7395765921087332
 30
0.0
 11
19.291298841140929
 21
7.162171856300346
 31
0.0
  0
LINE
  5
1BB
  8
0
 62
     0
 10
21.800000873061549
 20
10.90831075529729
 30
0.0
 11
23.700000873036629
 21
12.80831075527237
 31
0.0
  0
LINE
  5
1BC
  8
0
 62
     0
 10
19.640547476729921
 20
8.7488573589656653
 30
0.0
 11
21.240547476726189
 21
10.348857358961929
 31
0.0
  0
LINE
  5
1BD
  8
0
 62
     0
 10
47.840547476819211
 20
36.948857359054962
 30
0.0
 11
49.740547476740517
 21
38.848857358976261
 31
0.0
  0
LINE
  5
1BE
  8
0
 62
     0
 10
17.300000873050632
 20
6.4083107552863794
 30
0.0
 11
18.800000873046429
 21
7.9083107552821721
 31
0.0
  0
LINE
  5
1BF
  8
0
 62
     0
 10
21.800000873064281
 20
12.14574762237657
 30
0.0
 11
23.700000873036629
 21
14.04574762234893
 31
0.0
  0
LINE
  5
1C0
  8
0
 62
     0
 10
46.603110609742771
 20
36.948857359055069
 30
0.0
 11
48.503110609664297
 21
38.848857358976602
 31
0.0
  0
LINE
  5
1C1
  8
0
 62
     0
 10
17.300000873050859
 20
7.6457476223631602
 30
0.0
 11
20.003110609649749
 21
10.34885735896205
 31
0.0
  0
LINE
  5
1C2
  8
0
 62
     0
 10
21.80000087306712
 20
13.38318448945585
 30
0.0
 11
23.700000873036512
 21
15.283184489425251
 31
0.0
  0
LINE
  5
1C3
  8
0
 62
     0
 10
45.36567374266621
 20
36.948857359054962
 30
0.0
 11
47.265673742587751
 21
38.848857358976488
 31
0.0
  0
LINE
  5
1C4
  8
0
 62
     0
 10
17.30000087305109
 20
8.8831844894398273
 30
0.0
 11
18.871400764070021
 21
10.454584380458749
 31
0.0
  0
LINE
  5
1C5
  8
0
 62
     0
 10
21.800000873069958
 20
14.620621356535141
 30
0.0
 11
23.700000873036629
 21
16.520621356501799
 31
0.0
  0
LINE
  5
1C6
  8
0
 62
     0
 10
44.128236875589891
 20
36.948857359055069
 30
0.0
 11
46.028236875511652
 21
38.848857358976829
 31
0.0
  0
LINE
  5
1C7
  8
0
 62
     0
 10
17.30000087305131
 20
10.120621356516491
 30
0.0
 11
18.800000873048361
 21
11.62062135651354
 31
0.0
  0
LINE
  5
1C8
  8
0
 62
     0
 10
21.800000873072921
 20
15.858058223614529
 30
0.0
 11
23.700000873036629
 21
17.758058223578239
 31
0.0
  0
LINE
  5
1C9
  8
0
 62
     0
 10
42.890800008513338
 20
36.948857359054962
 30
0.0
 11
44.790800008435319
 21
38.84885735897695
 31
0.0
  0
LINE
  5
1CA
  8
0
 62
     0
 10
17.300000873051541
 20
11.35805822359316
 30
0.0
 11
18.707482585251
 21
12.765539935792621
 31
0.0
  0
LINE
  5
1CB
  8
0
 62
     0
 10
21.80000087307576
 20
17.09549509069382
 30
0.0
 11
23.700000873036739
 21
18.995495090654799
 31
0.0
  0
LINE
  5
1CC
  8
0
 62
     0
 10
41.653363141437012
 20
36.948857359055069
 30
0.0
 11
43.553363141358993
 21
38.848857358977057
 31
0.0
  0
LINE
  5
1CD
  8
0
 62
     0
 10
17.304368595264119
 20
12.599862812882179
 30
0.0
 11
17.548995419130499
 21
12.844489636748561
 31
0.0
  0
LINE
  5
1CE
  8
0
 62
     0
 10
40.415926274360451
 20
36.948857359055069
 30
0.0
 11
42.315926274282788
 21
38.848857358977398
 31
0.0
  0
LINE
  5
1CF
  8
0
 62
     0
 10
21.800000873078488
 20
18.332931957773098
 30
0.0
 11
23.700000873036629
 21
20.232931957731239
 31
0.0
  0
LINE
  5
1D0
  8
0
 62
     0
 10
39.178489407284133
 20
36.948857359055069
 30
0.0
 11
41.078489407206568
 21
38.848857358977511
 31
0.0
  0
LINE
  5
1D1
  8
0
 62
     0
 10
21.800000873081562
 20
19.570368824852491
 30
0.0
 11
23.700000873036739
 21
21.470368824807679
 31
0.0
  0
LINE
  5
1D2
  8
0
 62
     0
 10
37.941052540207579
 20
36.948857359054962
 30
0.0
 11
39.841052540130249
 21
38.848857358977739
 31
0.0
  0
LINE
  5
1D3
  8
0
 62
     0
 10
21.82856402733626
 20
20.836368846183749
 30
0.0
 11
23.700000873036629
 21
22.707805691884118
 31
0.0
  0
LINE
  5
1D4
  8
0
 62
     0
 10
36.703615673131033
 20
36.948857359054962
 30
0.0
 11
38.60361567305393
 21
38.848857358977853
 31
0.0
  0
LINE
  5
1D5
  8
0
 62
     0
 10
21.800000873087701
 20
22.04524255901163
 30
0.0
 11
23.700000873036629
 21
23.945242558960562
 31
0.0
  0
LINE
  5
1D6
  8
0
 62
     0
 10
35.466178806054593
 20
36.948857359054962
 30
0.0
 11
37.366178805977597
 21
38.848857358977959
 31
0.0
  0
LINE
  5
1D7
  8
0
 62
     0
 10
21.800000873089971
 20
23.28267942609034
 30
0.0
 11
23.700000873036629
 21
25.182679426037001
 31
0.0
  0
LINE
  5
1D8
  8
0
 62
     0
 10
34.228741938978153
 20
36.948857359054962
 30
0.0
 11
36.128741938901499
 21
38.848857358978307
 31
0.0
  0
LINE
  5
1D9
  8
0
 62
     0
 10
21.800000873092358
 20
24.520116293169171
 30
0.0
 11
23.700000873036629
 21
26.420116293113441
 31
0.0
  0
LINE
  5
1DA
  8
0
 62
     0
 10
32.991305071901706
 20
36.948857359055069
 30
0.0
 11
34.891305071825059
 21
38.848857358978421
 31
0.0
  0
LINE
  5
1DB
  8
0
 62
     0
 10
21.800000873094859
 20
25.757553160248222
 30
0.0
 11
23.700000873036629
 21
27.657553160189991
 31
0.0
  0
LINE
  5
1DC
  8
0
 62
     0
 10
31.75386820482527
 20
36.948857359054962
 30
0.0
 11
33.65386820474896
 21
38.848857358978648
 31
0.0
  0
LINE
  5
1DD
  8
0
 62
     0
 10
21.80000087309713
 20
26.994990027326821
 30
0.0
 11
23.700000873036629
 21
28.894990027266321
 31
0.0
  0
LINE
  5
1DE
  8
0
 62
     0
 10
30.516431337748831
 20
36.948857359055069
 30
0.0
 11
32.416431337672641
 21
38.848857358978883
 31
0.0
  0
LINE
  5
1DF
  8
0
 62
     0
 10
21.80000087309929
 20
28.232426894405538
 30
0.0
 11
23.700000873036629
 21
30.132426894342871
 31
0.0
  0
LINE
  5
1E0
  8
0
 62
     0
 10
29.278994470672281
 20
36.948857359054962
 30
0.0
 11
31.178994470596312
 21
38.848857358978883
 31
0.0
  0
LINE
  5
1E1
  8
0
 62
     0
 10
21.800000873101681
 20
29.469863761484358
 30
0.0
 11
23.700000873036512
 21
31.3698637614192
 31
0.0
  0
LINE
  5
1E2
  8
0
 62
     0
 10
28.041557603595951
 20
36.948857359055069
 30
0.0
 11
29.941557603520099
 21
38.848857358979217
 31
0.0
  0
LINE
  5
1E3
  8
0
 62
     0
 10
21.441557603495539
 20
30.34885735895466
 30
0.0
 11
23.700000873036739
 21
32.60730062849575
 31
0.0
  0
LINE
  5
1E4
  8
0
 62
     0
 10
20.204120736418989
 20
30.348857358954429
 30
0.0
 11
23.700000873036629
 21
33.84473749557219
 31
0.0
  0
LINE
  5
1E5
  8
0
 62
     0
 10
26.804120736519401
 20
36.948857359054962
 30
0.0
 11
28.704120736443659
 21
38.848857358979217
 31
0.0
  0
LINE
  5
1E6
  8
0
 62
     0
 10
17.704120736426599
 20
27.84885735896205
 30
0.0
 11
18.800000873051658
 21
28.944737495587219
 31
0.0
  0
LINE
  5
1E7
  8
0
 62
     0
 10
21.80000087305643
 20
33.182174362668441
 30
0.0
 11
23.700000873036739
 21
35.08217436264875
 31
0.0
  0
LINE
  5
1E8
  8
0
 62
     0
 10
25.566683869443072
 20
36.948857359055069
 30
0.0
 11
27.466683869367561
 21
38.848857358979437
 31
0.0
  0
LINE
  5
1E9
  8
0
 62
     0
 10
17.300000873050859
 20
28.68217436266287
 30
0.0
 11
20.46668386934812
 21
31.848857358960121
 31
0.0
  0
LINE
  5
1EA
  8
0
 62
     0
 10
21.800000873060871
 20
34.419611229749421
 30
0.0
 11
23.700000873036629
 21
36.319611229725183
 31
0.0
  0
LINE
  5
1EB
  8
0
 62
     0
 10
24.329247002366522
 20
36.948857359055069
 30
0.0
 11
26.229247002291121
 21
38.848857358979672
 31
0.0
  0
LINE
  5
1EC
  8
0
 62
     0
 10
17.30000087305109
 20
29.919611229739651
 30
0.0
 11
19.22924700227156
 21
31.848857358960121
 31
0.0
  0
LINE
  5
1ED
  8
0
 62
     0
 10
21.800000873065301
 20
35.657048096830181
 30
0.0
 11
24.991810135214909
 21
38.848857358979792
 31
0.0
  0
LINE
  5
1EE
  8
0
 62
     0
 10
17.300000873051658
 20
31.157048096816538
 30
0.0
 11
18.580740982772561
 21
32.437788206537341
 31
0.0
  0
LINE
  5
1EF
  8
0
 62
     0
 10
21.737569842420729
 20
36.832053933262159
 30
0.0
 11
23.754373268138689
 21
38.848857358980133
 31
0.0
  0
LINE
  5
1F0
  8
0
 62
     0
 10
20.616936401137419
 20
36.948857359055303
 30
0.0
 11
22.516936401062249
 21
38.848857358980133
 31
0.0
  0
LINE
  5
1F1
  8
0
 62
     0
 10
19.379499534061441
 20
36.948857359055751
 30
0.0
 11
21.279499533986161
 21
38.848857358980467
 31
0.0
  0
LINE
  5
1F2
  8
0
 62
     0
 10
18.14206266698557
 20
36.948857359056319
 30
0.0
 11
20.042062666909828
 21
38.848857358980581
 31
0.0
  0
LINE
  5
1F3
  8
0
 62
     0
 10
16.90462579990924
 20
36.948857359056547
 30
0.0
 11
18.804625799833389
 21
38.848857358980702
 31
0.0
  0
LINE
  5
1F4
  8
0
 62
     0
 10
15.66718893283325
 20
36.948857359056888
 30
0.0
 11
17.56718893275729
 21
38.848857358980922
 31
0.0
  0
LINE
  5
1F5
  8
0
 62
     0
 10
14.42975206575727
 20
36.948857359057463
 30
0.0
 11
16.32975206568096
 21
38.848857358981149
 31
0.0
  0
LINE
  5
1F6
  8
0
 62
     0
 10
13.19231519868117
 20
36.948857359057797
 30
0.0
 11
15.09231519860475
 21
38.848857358981377
 31
0.0
  0
LINE
  5
1F7
  8
0
 62
     0
 10
11.95487833160518
 20
36.948857359058252
 30
0.0
 11
13.85487833152842
 21
38.848857358981491
 31
0.0
  0
LINE
  5
1F8
  8
0
 62
     0
 10
10.717441464528971
 20
36.9488573590586
 30
0.0
 11
12.61744146445198
 21
38.848857358981611
 31
0.0
  0
LINE
  5
1F9
  8
0
 62
     0
 10
7.6308888635194299
 20
33.862304758049049
 30
0.0
 11
7.7865534739714803
 21
34.017969368501099
 31
0.0
  0
LINE
  5
1FA
  8
0
 62
     0
 10
9.4800045974531031
 20
36.948857359059048
 30
0.0
 11
11.380004597376001
 21
38.848857358981938
 31
0.0
  0
LINE
  5
1FB
  8
0
 62
     0
 10
6.3800045973564457
 20
33.848857358962391
 30
0.0
 11
7.800000873060525
 21
35.26885363466647
 31
0.0
  0
LINE
  5
1FC
  8
0
 62
     0
 10
6.6000008730437676
 20
35.306290501726266
 30
0.0
 11
7.8000008730633681
 21
36.506290501745752
 31
0.0
  0
LINE
  5
1FD
  8
0
 62
     0
 10
8.2425677303770044
 20
36.94885735905951
 30
0.0
 11
10.14256773029944
 21
38.848857358981938
 31
0.0
  0
LINE
  5
1FE
  8
0
 62
     0
 10
5.4043865907236741
 20
34.110676219406173
 30
0.0
 11
6.1425677302798931
 21
34.848857358962391
 31
0.0
  0
LINE
  5
1FF
  8
0
 62
     0
 10
6.6000008730447908
 20
36.543727368803623
 30
0.0
 11
8.9051308632233486
 21
38.848857358982173
 31
0.0
  0
LINE
  5
200
  8
0
 62
     0
 10
5.7676939962233291
 20
36.948857359058707
 30
0.0
 11
7.6676939961470216
 21
38.8488573589824
 31
0.0
  0
LINE
  5
201
  8
0
 62
     0
 10
4.530257129146662
 20
36.948857359058479
 30
0.0
 11
6.4302571290706956
 21
38.848857358982507
 31
0.0
  0
LINE
  5
202
  8
0
 62
     0
 10
1.430257129051256
 20
33.84885735896296
 30
0.0
 11
2.430257129046026
 21
34.848857358957837
 31
0.0
  0
LINE
  5
203
  8
0
 62
     0
 10
3.2928202620702218
 20
36.9488573590586
 30
0.0
 11
5.1928202619943704
 21
38.848857358982741
 31
0.0
  0
LINE
  5
204
  8
0
 62
     0
 10
0.2074524482977722
 20
33.863489545286143
 30
0.0
 11
1.8917618548949799
 21
35.547798951883351
 31
0.0
  0
LINE
  5
205
  8
0
 62
     0
 10
0.0150708968366189
 20
34.908544860901323
 30
0.0
 11
3.9403133711218739
 21
38.833787335186571
 31
0.0
  0
LINE
  5
206
  8
0
 62
     0
 10
0.5873784891832657
 20
36.718289320324523
 30
0.0
 11
2.1305689116989011
 21
38.261479742840152
 31
0.0
  0
ENDBLK
  5
208
  8
0
  0
BLOCK
  8
0
  2
*U3
 70
     1
 10
0.0
 20
0.0
 30
0.0
  3
*U3
  1

  0
ARC
  5
20A
  8
0
 10
24.834667358894201
 20
0.3021168626735289
 30
0.0
 40
0.2812759657606207
 50
159.7196905927907
 51
180.66397420623829
  0
ARC
  5
20B
  8
0
 10
24.853410279780519
 20
0.2988573589698262
 30
0.0
 40
0.3000000000056051
 50
180.00000000156331
 51
275.00000000068212
  0
LINE
  5
20C
  8
0
 10
24.57082822211601
 20
0.3996108564303995
 30
0.0
 11
25.085003804164451
 21
1.8122966577437289
 31
0.0
  0
LINE
  5
20D
  8
0
 10
27.245093251289521
 20
0.2069565544541092
 30
0.0
 11
24.879557002608859
 21
-0.0000010504629699
 31
0.0
  0
ARC
  5
20E
  8
0
 10
25.366911590405149
 20
1.7096906147460229
 30
0.0
 40
0.3000000000045627
 50
100.9042832773191
 51
160.00000000032139
  0
ARC
  5
20F
  8
0
 10
27.21894652846208
 20
0.5058149638850864
 30
0.0
 40
0.3000000000028482
 50
275.00000000053927
 51
315.00000000035323
  0
ARC
  5
210
  8
0
 10
25.253410279781981
 20
2.2988573589643688
 30
0.0
 40
0.3000000000002779
 50
280.90428327748327
 51
0.0
  0
LINE
  5
211
  8
0
 10
27.794831636020039
 20
0.6574360027259445
 30
0.0
 11
27.43107856282132
 21
0.2936829295284724
 31
0.0
  0
LINE
  5
212
  8
0
 10
25.55341027978216
 20
2.2988573589643688
 30
0.0
 11
25.553410279781929
 21
3.2488573589641869
 31
0.0
  0
ARC
  5
213
  8
0
 10
27.65341027978161
 20
0.7988573589643693
 30
0.0
 40
0.2000000000008033
 50
315.0
 51
75.00000000060669
  0
ARC
  5
214
  8
0
 10
25.253410279781981
 20
3.2488573589641869
 30
0.0
 40
0.3
 50
0.0
 51
90.0
  0
LINE
  5
215
  8
0
 10
27.53611419647882
 20
1.0373419858422031
 30
0.0
 11
27.70517408880028
 21
0.9920425242235069
 31
0.0
  0
LINE
  5
216
  8
0
 10
25.253410279781981
 20
3.5488573589643688
 30
0.0
 11
21.743525351609829
 21
3.5488573589618109
 31
0.0
  0
ARC
  5
217
  8
0
 10
27.5878780054984
 20
1.2305271510983851
 30
0.0
 40
0.1999999999984778
 50
195.00000000011579
 51
255.0000000001358
  0
ARC
  5
218
  8
0
 10
21.743525351609829
 20
3.8488573589618218
 30
0.0
 40
0.3
 50
239.99999999989939
 51
270.0
  0
LINE
  5
219
  8
0
 10
26.86363253189597
 20
3.160707394708651
 30
0.0
 11
27.394692840242222
 21
1.1787633420779
 31
0.0
  0
LINE
  5
21A
  8
0
 10
21.593525351609291
 20
3.5890497378265991
 30
0.0
 11
17.45000087305198
 21
5.98131471091392
 31
0.0
  0
ARC
  5
21B
  8
0
 10
27.153410279775251
 20
3.2383531082402892
 30
0.0
 40
0.2999999999929059
 50
180.00000000052111
 51
195.00000000053089
  0
ARC
  5
21C
  8
0
 10
17.60000087305184
 20
6.2411223320493709
 30
0.0
 40
0.3
 50
180.0
 51
240.00000000003391
  0
LINE
  5
21D
  8
0
 10
26.853410279783251
 20
3.3988573589629141
 30
0.0
 11
26.853410279782342
 21
3.2383531082375612
 31
0.0
  0
LINE
  5
21E
  8
0
 10
17.30000087305234
 20
12.54885735896073
 30
0.0
 11
17.300000873051658
 21
6.2411223320493709
 31
0.0
  0
ARC
  5
21F
  8
0
 10
27.15341027978252
 20
3.3988573589638231
 30
0.0
 40
0.3000000000002949
 50
41.810314896846819
 51
180.00000000017371
  0
ARC
  5
220
  8
0
 10
17.60000087305184
 20
12.54885735896073
 30
0.0
 40
0.2999999999994998
 50
90.0
 51
180.0
  0
ARC
  5
221
  8
0
 10
27.60062387528729
 20
3.7988573589752832
 30
0.0
 40
0.3000000000110958
 50
221.81031489572979
 51
269.99999999982629
  0
LINE
  5
222
  8
0
 10
17.60000087305184
 20
12.84885735896
 30
0.0
 11
18.500000873051469
 21
12.84885735896137
 31
0.0
  0
LINE
  5
223
  8
0
 10
31.65341027978252
 20
3.4988573589623679
 30
0.0
 11
27.600623875286381
 21
3.4988573589641869
 31
0.0
  0
ARC
  5
224
  8
0
 10
18.500000873050571
 20
12.54885735896073
 30
0.0
 40
0.3000000000006366
 50
359.99999999965257
 51
89.999999999826301
  0
ARC
  5
225
  8
0
 10
31.653410279786161
 20
3.198857358965824
 30
0.0
 40
0.2999999999965439
 50
359.99999999965257
 51
90.000000000694797
  0
LINE
  5
226
  8
0
 10
18.800000873051658
 20
12.548857358958911
 30
0.0
 11
18.800000873044841
 21
10.64885735896382
 31
0.0
  0
LINE
  5
227
  8
0
 10
31.953410279782702
 20
2.9779315409211899
 30
0.0
 11
31.953410279782702
 21
3.198857358964005
 31
0.0
  0
ARC
  5
228
  8
0
 10
19.10000087304547
 20
10.648857358961999
 30
0.0
 40
0.300000000000523
 50
179.9999999996526
 51
269.99999999982629
  0
ARC
  5
229
  8
0
 10
31.653410279783429
 20
2.977931540922099
 30
0.0
 40
0.2999999999992704
 50
328.60448902749181
 51
359.99999999982629
  0
LINE
  5
22A
  8
0
 10
19.100000873044561
 20
10.348857358961819
 30
0.0
 11
21.500000873060571
 21
10.34885735896199
 31
0.0
  0
LINE
  5
22B
  8
0
 10
30.982691956806999
 20
1.3030459101589711
 30
0.0
 11
31.909487764246709
 21
2.8216487141287412
 31
0.0
  0
ARC
  5
22C
  8
0
 10
21.500000873060571
 20
10.648857358961999
 30
0.0
 40
0.3
 50
270.0
 51
0.0
  0
ARC
  5
22D
  8
0
 10
31.15341027978252
 20
1.198857358964005
 30
0.0
 40
0.1999999999998181
 50
148.60448902764011
 51
270.00000000026063
  0
LINE
  5
22E
  8
0
 10
21.80000087306075
 20
10.648857358961999
 30
0.0
 11
21.80000087308213
 21
19.745303968369399
 31
0.0
  0
LINE
  5
22F
  8
0
 10
32.559454342788058
 20
0.9988573589623683
 30
0.0
 11
31.153410279783429
 21
0.9988573589641873
 31
0.0
  0
ARC
  5
230
  8
0
 10
22.050000873082581
 20
19.745303968368489
 30
0.0
 40
0.2500000000003411
 50
134.999999999263
 51
179.9999999997915
  0
ARC
  5
231
  8
0
 10
32.559454342788968
 20
1.998857358963277
 30
0.0
 40
1.0
 50
269.99999999994787
 51
328.59999999792609
  0
LINE
  5
232
  8
0
 10
21.873224177788192
 20
19.92208066366743
 30
0.0
 11
22.300000873098039
 21
20.34885735896637
 31
0.0
  0
LINE
  5
233
  8
0
 10
34.415297979434627
 20
2.9948669908706052
 30
0.0
 11
33.41300514004547
 21
1.477847727091784
 31
0.0
  0
LINE
  5
234
  8
0
 10
22.300000873098039
 20
20.34885735896637
 30
0.0
 11
21.873224177784099
 21
20.77563405429316
 31
0.0
  0
ARC
  5
235
  8
0
 10
35.268848776691129
 20
2.4738573589991111
 30
0.0
 40
1.0
 50
90.0
 51
148.59999999792601
  0
ARC
  5
236
  8
0
 10
22.050000873083491
 20
20.95241074958426
 30
0.0
 40
0.2499999999979521
 50
179.99999999958311
 51
224.99999999865511
  0
LINE
  5
237
  8
0
 10
35.268848776691129
 20
3.4738573589991111
 30
0.0
 11
60.106871260253911
 21
3.473857359000021
 31
0.0
  0
LINE
  5
238
  8
0
 10
21.800000873086219
 20
20.952410749586079
 30
0.0
 11
21.800000873103269
 21
30.048857358953459
 31
0.0
  0
ARC
  5
239
  8
0
 10
60.106871260253911
 20
2.473857359000021
 30
0.0
 40
1.0
 50
31.39999999816845
 51
90.0
  0
ARC
  5
23A
  8
0
 10
21.500000873103321
 20
30.048857358954368
 30
0.0
 40
0.3
 50
359.99999999982629
 51
90.0
  0
LINE
  5
23B
  8
0
 10
61.962714896715852
 20
1.4778477271463539
 30
0.0
 11
60.960422057545891
 21
2.9948669908133061
 31
0.0
  0
LINE
  5
23C
  8
0
 10
21.500000873103321
 20
30.34885735895455
 30
0.0
 11
19.10000087305184
 21
30.34885735895455
 31
0.0
  0
ARC
  5
23D
  8
0
 10
62.816265694007818
 20
1.998857358959639
 30
0.0
 40
1.0
 50
211.39999999816851
 51
270.00000000005213
  0
ARC
  5
23E
  8
0
 10
19.10000087305184
 20
30.048857358954368
 30
0.0
 40
0.3000000000001819
 50
90.0
 51
180.0
  0
LINE
  5
23F
  8
0
 10
64.229642325692339
 20
0.9988573589605493
 30
0.0
 11
62.816265694008742
 21
0.9988573589596398
 31
0.0
  0
LINE
  5
240
  8
0
 10
18.800000873051658
 20
30.048857358954368
 30
0.0
 11
18.800000873052571
 21
28.148857358961099
 31
0.0
  0
ARC
  5
241
  8
0
 10
64.229642325689611
 20
1.1988573589585481
 30
0.0
 40
0.2000000000033691
 50
270.00000000078171
 51
31.395510972275691
  0
ARC
  5
242
  8
0
 10
18.500000873053288
 20
28.148857358961099
 30
0.0
 40
0.2999999999992724
 50
270.0
 51
0.0
  0
LINE
  5
243
  8
0
 10
63.473564841229063
 20
2.8216487141251032
 30
0.0
 11
64.400360648668766
 21
1.30304591015539
 31
0.0
  0
LINE
  5
244
  8
0
 10
18.500000873053288
 20
27.848857358961819
 30
0.0
 11
17.60000087305275
 21
27.848857358962281
 31
0.0
  0
ARC
  5
245
  8
0
 10
63.729642325692339
 20
2.977931540918461
 30
0.0
 40
0.2999999999992724
 50
180.00000000017371
 51
211.39551097250811
  0
ARC
  5
246
  8
0
 10
17.60000087305184
 20
28.148857358962012
 30
0.0
 40
0.2999999999997271
 50
180.00000000017371
 51
270.00000000017371
  0
LINE
  5
247
  8
0
 10
63.429642325693969
 20
3.198857358960367
 30
0.0
 11
63.429642325693067
 21
2.977931540917552
 31
0.0
  0
LINE
  5
248
  8
0
 10
17.300000873051658
 20
28.148857358961099
 30
0.0
 11
17.300000873051879
 21
32.148857358959283
 31
0.0
  0
ARC
  5
249
  8
0
 10
63.729126934692658
 20
3.1993727499609572
 30
0.0
 40
0.2994850524735972
 50
89.901398271917955
 51
180.09860172808209
  0
ARC
  5
24A
  8
0
 10
17.60000087305184
 20
32.148857358959283
 30
0.0
 40
0.3
 50
90.0
 51
180.0
  0
LINE
  5
24B
  8
0
 10
67.782428730191214
 20
3.4988573589605489
 30
0.0
 11
63.729642325693248
 21
3.4988573589598668
 31
0.0
  0
LINE
  5
24C
  8
0
 10
17.60000087305184
 20
32.448857358959458
 30
0.0
 11
18.500000873052379
 21
32.448857358959287
 31
0.0
  0
ARC
  5
24D
  8
0
 10
67.782428730189395
 20
3.7988573589698258
 30
0.0
 40
0.3000000000088844
 50
270.00000000034743
 51
318.18968510442949
  0
ARC
  5
24E
  8
0
 10
18.500000873052379
 20
32.148857358959283
 30
0.0
 40
0.3
 50
0.0000000001737007
 51
90.0
  0
ARC
  5
24F
  8
0
 10
68.229642325694144
 20
3.3988573589620041
 30
0.0
 40
0.2999999999992724
 50
359.99999999947892
 51
138.18968510351181
  0
ARC
  5
250
  8
0
 10
19.10000087305184
 20
32.148857358960193
 30
0.0
 40
0.3
 50
180.0
 51
270.0
  0
LINE
  5
251
  8
0
 10
68.52964232569343
 20
3.2383531082339232
 30
0.0
 11
68.52964232569343
 21
3.3988573589592761
 31
0.0
  0
LINE
  5
252
  8
0
 10
19.10000087305184
 20
31.84885735896
 30
0.0
 11
21.500000873052379
 21
31.848857358960171
 31
0.0
  0
ARC
  5
253
  8
0
 10
68.229642325699615
 20
3.2383531082366508
 30
0.0
 40
0.2999999999937928
 50
344.9999999995141
 51
359.99999999947892
  0
ARC
  5
254
  8
0
 10
21.500000873052379
 20
32.148857358960193
 30
0.0
 40
0.3
 50
270.0
 51
359.99999999965257
  0
LINE
  5
255
  8
0
 10
67.988359765233554
 20
1.178763342074262
 30
0.0
 11
68.519420073579795
 21
3.1607073947050131
 31
0.0
  0
LINE
  5
256
  8
0
 10
21.800000873052571
 20
32.148857358958367
 30
0.0
 11
21.800000873068711
 21
36.648857359053864
 31
0.0
  0
ARC
  5
257
  8
0
 10
67.795174599977372
 20
1.2305271510947471
 30
0.0
 40
0.1999999999984031
 50
284.99999999984732
 51
344.99999999988421
  0
ARC
  5
258
  8
0
 10
21.50000087306876
 20
36.648857359055683
 30
0.0
 40
0.3
 50
359.99999999965257
 51
90.0
  0
LINE
  5
259
  8
0
 10
67.677878516675491
 20
0.9920425242196415
 30
0.0
 11
67.846938408996948
 21
1.0373419858383379
 31
0.0
  0
LINE
  5
25A
  8
0
 10
21.50000087306876
 20
36.948857359054962
 30
0.0
 11
8.1000008730645732
 21
36.94885735905951
 31
0.0
  0
ARC
  5
25B
  8
0
 10
67.729642325695053
 20
0.7988573589598218
 30
0.0
 40
0.2000000000015772
 50
104.99999999959439
 51
224.99999999963151
  0
ARC
  5
25C
  8
0
 10
8.1000008730645732
 20
36.648857359059321
 30
0.0
 40
0.3000000000001819
 50
90.0
 51
180.0
  0
LINE
  5
25D
  8
0
 10
67.951974042654214
 20
0.2936829295247207
 30
0.0
 11
67.588220969455733
 21
0.6574360027223066
 31
0.0
  0
LINE
  5
25E
  8
0
 10
7.8000008730643913
 20
36.648857359059321
 30
0.0
 11
7.8000008730580239
 21
34.09885735896092
 31
0.0
  0
ARC
  5
25F
  8
0
 10
68.164106077012775
 20
0.5058149638814485
 30
0.0
 40
0.3000000000025019
 50
224.99999999975429
 51
264.99999999961477
  0
ARC
  5
260
  8
0
 10
7.5500008730580239
 20
34.098857358962732
 30
0.0
 40
0.25
 50
269.99999999958311
 51
359.99999999958311
  0
LINE
  5
261
  8
0
 10
70.503495602866906
 20
-0.0000010504666079
 30
0.0
 11
68.13795935418625
 21
0.2069565544516081
 31
0.0
  0
LINE
  5
262
  8
0
 10
7.5500008730562049
 20
33.848857358962732
 30
0.0
 11
5.9000008730583877
 21
33.848857358962277
 31
0.0
  0
ARC
  5
263
  8
0
 10
70.529642325692521
 20
0.2988573589607313
 30
0.0
 40
0.3000000000001819
 50
264.99999999974619
 51
359.99999999947892
  0
ARC
  5
264
  8
0
 10
5.9000008730583877
 20
34.448857358972191
 30
0.0
 40
0.6000000000099135
 50
180.00000000017371
 51
270.0
  0
ARC
  5
265
  8
0
 10
70.548385246582484
 20
0.3021168626698909
 30
0.0
 40
0.2812759657597649
 50
359.33602579375952
 51
20.280309407273489
  0
LINE
  5
266
  8
0
 10
5.3000008730480204
 20
34.448857358970372
 30
0.0
 11
5.30000087304711
 21
34.598857358962739
 31
0.0
  0
LINE
  5
267
  8
0
 10
70.298048801310188
 20
1.8122966577400339
 30
0.0
 11
70.812224383359762
 21
0.3996108564267615
 31
0.0
  0
ARC
  5
268
  8
0
 10
5.55000087304711
 20
34.598857358962739
 30
0.0
 40
0.25
 50
90.0
 51
180.0
  0
ARC
  5
269
  8
0
 10
70.016141015068797
 20
1.7096906147423849
 30
0.0
 40
0.3000000000055338
 50
19.999999999623871
 51
79.095716722356244
  0
LINE
  5
26A
  8
0
 10
5.55000087304711
 20
34.848857358962732
 30
0.0
 11
6.300000873043472
 21
34.848857358962277
 31
0.0
  0
ARC
  5
26B
  8
0
 10
70.129642325693794
 20
2.2988573589607308
 30
0.0
 40
0.3000000000001819
 50
179.99999999982629
 51
259.0957167225003
  0
ARC
  5
26C
  8
0
 10
6.300000873043472
 20
35.148857358962907
 30
0.0
 40
0.3000000000006366
 50
270.0
 51
359.99999999965257
  0
LINE
  5
26D
  8
0
 10
69.829642325693612
 20
2.2988573589616399
 30
0.0
 11
69.829642325693612
 21
3.2488573590169381
 31
0.0
  0
LINE
  5
26E
  8
0
 10
6.6000008730436539
 20
35.148857358961102
 30
0.0
 11
6.600000873045019
 21
36.648857359059321
 31
0.0
  0
ARC
  5
26F
  8
0
 10
70.129642325693794
 20
3.2488573590169381
 30
0.0
 40
0.3
 50
90.0
 51
180.0
  0
ARC
  5
270
  8
0
 10
6.300000873045291
 20
36.648857359059321
 30
0.0
 40
0.2999999999996135
 50
0.0
 51
90.0
  0
LINE
  5
271
  8
0
 10
73.300000872847022
 20
3.548857359021667
 30
0.0
 11
70.129642325693794
 21
3.548857359016949
 31
0.0
  0
LINE
  5
272
  8
0
 10
6.300000873045291
 20
36.9488573590586
 30
0.0
 11
3.2525949891080468
 21
36.9488573590586
 31
0.0
  0
ARC
  5
273
  8
0
 10
73.300000872847022
 20
3.8488573590218489
 30
0.0
 40
0.3
 50
270.0
 51
359.99999999079392
  0
ARC
  5
274
  8
0
 10
3.2525949891080468
 20
36.64885735906023
 30
0.0
 40
0.2999999999983629
 50
90.0
 51
116.508401526124
  0
LINE
  5
275
  8
0
 10
73.600000872878127
 20
9.5488573589825592
 30
0.0
 11
73.600000872846977
 21
3.8488573589736461
 31
0.0
  0
ARC
  5
276
  8
0
 10
4.1161100262718264
 20
34.789391090399249
 30
0.0
 40
2.3500866519912789
 50
115.1136867958429
 51
168.66900542817041
  0
ARC
  5
277
  8
0
 10
73.900000872878294
 20
9.5488573589807402
 30
0.0
 40
0.3
 50
90.0
 51
179.9999999996526
  0
ARC
  5
278
  8
0
 10
2.0938596522557869
 20
35.148857358958367
 30
0.0
 40
0.300000000000143
 50
160.06813443655901
 51
270.0
  0
LINE
  5
279
  8
0
 10
73.900000872878294
 20
9.8488573589807515
 30
0.0
 11
78.400000873032695
 21
9.8488573589766588
 31
0.0
  0
LINE
  5
27A
  8
0
 10
2.0938596522557869
 20
34.848857358958192
 30
0.0
 11
2.550000873045291
 21
34.84885735895773
 31
0.0
  0
ARC
  5
27B
  8
0
 10
78.400000873032923
 20
10.14885735897667
 30
0.0
 40
0.3
 50
269.99999999995651
 51
0.0000000000216627
  0
ARC
  5
27C
  8
0
 10
2.5500008730462009
 20
34.598857358958192
 30
0.0
 40
0.2499999999995452
 50
0.0000000014590858
 51
90.000000000208431
  0
LINE
  5
27D
  8
0
 10
78.700000873032877
 20
10.14885735897678
 30
0.0
 11
78.700000873032195
 21
11.68885735897743
 31
0.0
  0
LINE
  5
27E
  8
0
 10
2.8000008730462009
 20
34.598857358964551
 30
0.0
 11
2.80000087304711
 21
34.448857358984007
 31
0.0
  0
ARC
  5
27F
  8
0
 10
76.700000873032195
 20
11.68885735897743
 30
0.0
 40
2.0
 50
0.0
 51
79.835751378510736
  0
ARC
  5
280
  8
0
 10
2.2000008730431091
 20
34.4488573589731
 30
0.0
 40
0.6000000000040018
 50
270.00000000052108
 51
0.0000000010422063
  0
ARC
  5
281
  8
0
 10
77.00000087303215
 20
13.36217741208452
 30
0.0
 40
0.3
 50
79.83575137851706
 51
180.0
  0
LINE
  5
282
  8
0
 10
2.2000008730485661
 20
33.848857358969099
 30
0.0
 11
0.3000008730434729
 21
33.848857358954092
 31
0.0
  0
LINE
  5
283
  8
0
 10
76.700000873032195
 20
13.36217741208452
 30
0.0
 11
76.700000873032195
 21
12.14885735897837
 31
0.0
  0
ARC
  5
284
  8
0
 10
0.3000008730398349
 20
34.148857358953819
 30
0.0
 40
0.2999999999997271
 50
180.0000000003474
 51
270.0000000006948
  0
ARC
  5
285
  8
0
 10
76.400000873032241
 20
12.14885735897837
 30
0.0
 40
0.3
 50
269.99999999995651
 51
0.0
  0
LINE
  5
286
  8
0
 10
0.000000873039653
 20
34.148857358952
 30
0.0
 11
0.0000008730398804
 21
34.548857358983469
 31
0.0
  0
LINE
  5
287
  8
0
 10
76.400000873032013
 20
11.848857358978419
 30
0.0
 11
73.900000872896484
 21
11.848857358980011
 31
0.0
  0
ARC
  5
288
  8
0
 10
4.300000873039834
 20
34.548857358983469
 30
0.0
 40
4.299999999999998
 50
89.999999999987907
 51
180.0
  0
ARC
  5
289
  8
0
 10
73.900000872896484
 20
12.148857358980189
 30
0.0
 40
0.3
 50
179.9999999996526
 51
270.0
  0
LINE
  5
28A
  8
0
 10
4.3000008730407444
 20
38.848857358982741
 30
0.0
 11
72.498320284194278
 21
38.848857358973078
 31
0.0
  0
LINE
  5
28B
  8
0
 10
73.600000873011822
 20
29.548857358978012
 30
0.0
 11
73.600000872896544
 21
12.14885735898201
 31
0.0
  0
ARC
  5
28C
  8
0
 10
72.498320284193369
 20
33.9488573589731
 30
0.0
 40
4.9000000000000004
 50
0.0
 51
89.99999999998937
  0
ARC
  5
28D
  8
0
 10
73.900000873012004
 20
29.548857358978012
 30
0.0
 40
0.3
 50
90.0
 51
180.0
  0
LINE
  5
28E
  8
0
 10
77.398320284193005
 20
32.148857358980933
 30
0.0
 11
77.398320284193005
 21
33.9488573589731
 31
0.0
  0
LINE
  5
28F
  8
0
 10
73.900000873012004
 20
29.84885735897803
 30
0.0
 11
76.40000087303315
 21
29.84885735897819
 31
0.0
  0
ARC
  5
290
  8
0
 10
77.69832028419296
 20
32.148857358980933
 30
0.0
 40
0.3
 50
180.0
 51
270.0
  0
ARC
  5
291
  8
0
 10
76.40000087303315
 20
29.548857358978179
 30
0.0
 40
0.3
 50
0.0
 51
90.0
  0
LINE
  5
292
  8
0
 10
78.40000087303315
 20
31.848857358980919
 30
0.0
 11
77.69832028419296
 21
31.848857358980919
 31
0.0
  0
LINE
  5
293
  8
0
 10
76.700000873033105
 20
29.548857358978179
 30
0.0
 11
76.700000873033105
 21
28.335537305870961
 31
0.0
  0
ARC
  5
294
  8
0
 10
78.40000087303315
 20
31.548857358980911
 30
0.0
 40
0.3
 50
0.0
 51
90.0
  0
ARC
  5
295
  8
0
 10
77.000000873033059
 20
28.335537305870961
 30
0.0
 40
0.3
 50
180.0
 51
280.16424862149307
  0
LINE
  5
296
  8
0
 10
78.700000873033105
 20
30.008857358978052
 30
0.0
 11
78.700000873033105
 21
31.548857358980911
 31
0.0
  0
ARC
  5
297
  8
0
 10
76.700000873033105
 20
30.008857358978052
 30
0.0
 40
2.0
 50
280.1642486214908
 51
0.0
  0
ARC
  5
298
  8
0
 10
19.10000087304638
 20
8.4488573589658245
 30
0.0
 40
0.3
 50
90.0
 51
180.0
  0
LINE
  5
299
  8
0
 10
19.10000087304638
 20
8.7488573589658358
 30
0.0
 11
23.400000873036561
 21
8.7488573589652674
 31
0.0
  0
LINE
  5
29A
  8
0
 10
18.800000873047111
 20
7.6190279511881718
 30
0.0
 11
18.800000873046429
 21
8.4488573589658245
 31
0.0
  0
ARC
  5
29B
  8
0
 10
23.400000873036561
 20
9.0488573589652788
 30
0.0
 40
0.3
 50
270.0
 51
0.0
  0
ARC
  5
29C
  8
0
 10
19.100000873047289
 20
7.6190279511881718
 30
0.0
 40
0.3
 50
180.0
 51
240.00000000003391
  0
LINE
  5
29D
  8
0
 10
23.700000873036739
 20
9.0488573589652788
 30
0.0
 11
23.700000873037649
 21
36.648857359055683
 31
0.0
  0
LINE
  5
29E
  8
0
 10
22.1892313576102
 20
5.4890497378253249
 30
0.0
 11
18.950000873047429
 21
7.3592203300527208
 31
0.0
  0
ARC
  5
29F
  8
0
 10
24.000000873036932
 20
36.648857359055683
 30
0.0
 40
0.2999999999992724
 50
90.0
 51
180.0
  0
ARC
  5
2A0
  8
0
 10
22.33923135760983
 20
5.7488573589605494
 30
0.0
 40
0.3
 50
240.00000000004991
 51
270.0
  0
LINE
  5
2A1
  8
0
 10
24.000000873036932
 20
36.948857359054962
 30
0.0
 11
72.398320284193005
 21
36.948857359054962
 31
0.0
  0
LINE
  5
2A2
  8
0
 10
71.400000873036561
 20
5.4488573589594571
 30
0.0
 11
22.33923135760983
 21
5.448857358960538
 31
0.0
  0
ARC
  5
2A3
  8
0
 10
72.398320284193005
 20
33.948857359054962
 30
0.0
 40
3.0
 50
0.0
 51
90.0
  0
ARC
  5
2A4
  8
0
 10
71.400000873036561
 20
5.748857358959639
 30
0.0
 40
0.3000000000001819
 50
270.0
 51
0.0
  0
LINE
  5
2A5
  8
0
 10
75.398320284193005
 20
33.948857359054962
 30
0.0
 11
75.398320284193005
 21
32.148857358980933
 31
0.0
  0
LINE
  5
2A6
  8
0
 10
71.700000873034014
 20
31.54885735898074
 30
0.0
 11
71.700000873036743
 21
5.748857358959639
 31
0.0
  0
ARC
  5
2A7
  8
0
 10
75.098320284193051
 20
32.148857358980933
 30
0.0
 40
0.3
 50
270.0
 51
0.0
  0
ARC
  5
2A8
  8
0
 10
72.000000873034196
 20
31.54885735898074
 30
0.0
 40
0.3
 50
90.0
 51
180.0
  0
LINE
  5
2A9
  8
0
 10
75.098320284193051
 20
31.848857358980919
 30
0.0
 11
72.000000873034196
 21
31.848857358980752
 31
0.0
  0
ENDBLK
  5
2AB
  8
0
  0
ENDSEC
  0
SECTION
  2
ENTITIES
  0
ARC
  5
95
  8
0
 10
655.34732658255155
 20
776.25249881388982
 30
0.0
 40
0.2812759657606207
 50
159.7196905927907
 51
180.66397420623829
  0
ARC
  5
96
  8
0
 10
655.36606950343798
 20
776.24923931018611
 30
0.0
 40
0.3000000000056051
 50
180.00000000156331
 51
275.00000000068212
  0
LINE
  5
97
  8
0
 10
655.08348744577336
 20
776.34999280764657
 30
0.0
 11
655.59766302782191
 21
777.76267860895985
 31
0.0
  0
LINE
  5
98
  8
0
 10
657.75775247494698
 20
776.1573385056704
 30
0.0
 11
655.39221622626633
 21
775.95038090075332
 31
0.0
  0
ARC
  5
99
  8
0
 10
655.87957081406262
 20
777.66007256596231
 30
0.0
 40
0.3000000000045627
 50
100.9042832773191
 51
160.0000000003316
  0
ARC
  5
9A
  8
0
 10
657.73160575211955
 20
776.45619691510137
 30
0.0
 40
0.3000000000028482
 50
275.00000000053927
 51
315.00000000035323
  0
ARC
  5
9B
  8
0
 10
655.76606950343944
 20
778.24923931018066
 30
0.0
 40
0.3000000000002779
 50
280.90428327748327
 51
0.0
  0
LINE
  5
9C
  8
0
 10
658.3074908596775
 20
776.60781795394223
 30
0.0
 11
657.94373778647866
 21
776.24406488074465
 31
0.0
  0
LINE
  5
9D
  8
0
 10
656.06606950343962
 20
778.24923931018066
 30
0.0
 11
656.06606950343928
 21
779.19923931018036
 31
0.0
  0
ARC
  5
9E
  8
0
 10
658.16606950343908
 20
776.74923931018066
 30
0.0
 40
0.2000000000008033
 50
315.0
 51
75.00000000060669
  0
ARC
  5
9F
  8
0
 10
655.76606950343944
 20
779.19923931018036
 30
0.0
 40
0.3
 50
0.0
 51
90.0
  0
LINE
  5
A0
  8
0
 10
658.04877342013617
 20
776.98772393705838
 30
0.0
 11
658.21783331245774
 21
776.94242447543968
 31
0.0
  0
LINE
  5
A1
  8
0
 10
655.76606950343944
 20
779.49923931018066
 30
0.0
 11
652.25618457526718
 21
779.49923931017815
 31
0.0
  0
ARC
  5
A2
  8
0
 10
658.10053722915575
 20
777.18090910231456
 30
0.0
 40
0.1999999999984778
 50
195.00000000011579
 51
255.0000000001358
  0
ARC
  5
A3
  8
0
 10
652.25618457526718
 20
779.79923931017811
 30
0.0
 40
0.3
 50
239.99999999989939
 51
270.0
  0
LINE
  5
A4
  8
0
 10
657.37629175555344
 20
779.11108934592494
 30
0.0
 11
657.90735206389957
 21
777.12914529329419
 31
0.0
  0
LINE
  5
A5
  8
0
 10
652.10618457526675
 20
779.53943168904289
 30
0.0
 11
647.96266009670944
 21
781.93169666213009
 31
0.0
  0
ARC
  5
A6
  8
0
 10
657.66606950343271
 20
779.18873505945646
 30
0.0
 40
0.2999999999929059
 50
180.00000000052111
 51
195.00000000053089
  0
ARC
  5
A7
  8
0
 10
648.11266009670931
 20
782.19150428326566
 30
0.0
 40
0.3
 50
180.0
 51
240.00000000003391
  0
LINE
  5
A8
  8
0
 10
657.36606950344071
 20
779.3492393101792
 30
0.0
 11
657.3660695034398
 21
779.18873505945385
 31
0.0
  0
LINE
  5
A9
  8
0
 10
647.81266009670969
 20
788.49923931017702
 30
0.0
 11
647.81266009670912
 21
782.19150428326566
 31
0.0
  0
ARC
  5
AA
  8
0
 10
657.66606950343999
 20
779.34923931018011
 30
0.0
 40
0.3000000000002949
 50
41.810314896846819
 51
180.00000000017371
  0
ARC
  5
AB
  8
0
 10
648.11266009670931
 20
788.49923931017702
 30
0.0
 40
0.2999999999994998
 50
90.0
 51
180.0
  0
ARC
  5
AC
  8
0
 10
658.11328309894475
 20
779.74923931019146
 30
0.0
 40
0.3000000000110958
 50
221.81031489572979
 51
269.99999999982629
  0
LINE
  5
AD
  8
0
 10
648.11266009670931
 20
788.79923931017629
 30
0.0
 11
649.01266009670894
 21
788.79923931017765
 31
0.0
  0
LINE
  5
AE
  8
0
 10
662.16606950343999
 20
779.44923931017865
 30
0.0
 11
658.11328309894384
 21
779.44923931018047
 31
0.0
  0
ARC
  5
AF
  8
0
 10
649.01266009670803
 20
788.49923931017702
 30
0.0
 40
0.3000000000006366
 50
359.99999999965257
 51
89.999999999826301
  0
ARC
  5
B0
  8
0
 10
662.16606950344362
 20
779.14923931018211
 30
0.0
 40
0.2999999999965439
 50
359.99999999965257
 51
90.000000000694797
  0
LINE
  5
B1
  8
0
 10
649.31266009670912
 20
788.4992393101752
 30
0.0
 11
649.31266009670219
 21
786.59923931018011
 31
0.0
  0
LINE
  5
B2
  8
0
 10
662.46606950344017
 20
778.92831349213736
 30
0.0
 11
662.46606950344017
 21
779.14923931018029
 31
0.0
  0
ARC
  5
B3
  8
0
 10
649.61266009670294
 20
786.59923931017829
 30
0.0
 40
0.300000000000523
 50
179.9999999996526
 51
269.99999999982629
  0
ARC
  5
B4
  8
0
 10
662.16606950344089
 20
778.92831349213839
 30
0.0
 40
0.2999999999992704
 50
328.60448902749181
 51
359.99999999982629
  0
LINE
  5
B5
  8
0
 10
649.61266009670203
 20
786.29923931017811
 30
0.0
 11
652.01266009671804
 21
786.29923931017834
 31
0.0
  0
LINE
  5
B6
  8
0
 10
661.49535118046435
 20
777.25342786137514
 30
0.0
 11
662.42214698790406
 21
778.77203066534503
 31
0.0
  0
ARC
  5
B7
  8
0
 10
652.01266009671804
 20
786.59923931017829
 30
0.0
 40
0.3
 50
270.0
 51
0.0
  0
ARC
  5
B8
  8
0
 10
661.66606950343999
 20
777.14923931018018
 30
0.0
 40
0.1999999999998181
 50
148.60448902764011
 51
270.00000000026063
  0
LINE
  5
B9
  8
0
 10
652.31266009671822
 20
786.59923931017829
 30
0.0
 11
652.31266009673959
 21
795.69568591958557
 31
0.0
  0
LINE
  5
BA
  8
0
 10
663.07211356644552
 20
776.94923931017865
 30
0.0
 11
661.66606950344089
 21
776.94923931018036
 31
0.0
  0
ARC
  5
BB
  8
0
 10
652.56266009674005
 20
795.69568591958466
 30
0.0
 40
0.2500000000003411
 50
134.999999999263
 51
179.9999999997915
  0
ARC
  5
BC
  8
0
 10
663.07211356644643
 20
777.94923931017945
 30
0.0
 40
1.0
 50
269.99999999994787
 51
328.59999999792609
  0
LINE
  5
BD
  8
0
 10
652.38588340144565
 20
795.8724626148836
 30
0.0
 11
652.81266009675551
 21
796.29923931018266
 31
0.0
  0
LINE
  5
BE
  8
0
 10
664.92795720309209
 20
778.94524894208678
 30
0.0
 11
663.92566436370294
 21
777.42822967830807
 31
0.0
  0
LINE
  5
BF
  8
0
 10
652.81266009675551
 20
796.29923931018266
 30
0.0
 11
652.38588340144145
 21
796.72601600550945
 31
0.0
  0
ARC
  5
C0
  8
0
 10
665.78150800034848
 20
778.4242393102154
 30
0.0
 40
1.0
 50
90.0
 51
148.59999999792601
  0
ARC
  5
C1
  8
0
 10
652.56266009674096
 20
796.90279270080055
 30
0.0
 40
0.2499999999979521
 50
179.99999999958311
 51
224.99999999865511
  0
LINE
  5
C2
  8
0
 10
665.78150800034848
 20
779.4242393102154
 30
0.0
 11
690.61953048391138
 21
779.42423931021619
 31
0.0
  0
LINE
  5
C3
  8
0
 10
652.31266009674368
 20
796.90279270080225
 30
0.0
 11
652.31266009676074
 21
805.99923931016986
 31
0.0
  0
ARC
  5
C4
  8
0
 10
690.61953048391138
 20
778.42423931021631
 30
0.0
 40
1.0
 50
31.39999999816845
 51
90.0
  0
ARC
  5
C5
  8
0
 10
652.01266009676067
 20
805.99923931017065
 30
0.0
 40
0.3
 50
359.99999999982629
 51
90.0
  0
LINE
  5
C6
  8
0
 10
692.4753741203732
 20
777.42822967836264
 30
0.0
 11
691.47308128120335
 21
778.94524894202959
 31
0.0
  0
LINE
  5
C7
  8
0
 10
652.01266009676067
 20
806.29923931017083
 30
0.0
 11
649.61266009670931
 21
806.29923931017083
 31
0.0
  0
ARC
  5
C8
  8
0
 10
693.32892491766518
 20
777.94923931017593
 30
0.0
 40
1.0
 50
211.39999999816851
 51
270.00000000005213
  0
ARC
  5
C9
  8
0
 10
649.61266009670931
 20
805.99923931017065
 30
0.0
 40
0.3000000000001819
 50
90.0
 51
180.0
  0
LINE
  5
CA
  8
0
 10
694.7423015493498
 20
776.94923931017684
 30
0.0
 11
693.32892491766609
 21
776.94923931017593
 31
0.0
  0
LINE
  5
CB
  8
0
 10
649.31266009670912
 20
805.99923931017065
 30
0.0
 11
649.31266009671003
 21
804.09923931017738
 31
0.0
  0
ARC
  5
CC
  8
0
 10
694.74230154934708
 20
777.14923931017483
 30
0.0
 40
0.2000000000033691
 50
270.00000000078171
 51
31.395510972261778
  0
ARC
  5
CD
  8
0
 10
649.01266009671076
 20
804.09923931017738
 30
0.0
 40
0.2999999999992724
 50
270.0
 51
0.0
  0
LINE
  5
CE
  8
0
 10
693.98622406488653
 20
778.77203066534128
 30
0.0
 11
694.91301987232623
 21
777.25342786137162
 31
0.0
  0
LINE
  5
CF
  8
0
 10
649.01266009671076
 20
803.79923931017811
 30
0.0
 11
648.11266009671021
 21
803.79923931017845
 31
0.0
  0
ARC
  5
D0
  8
0
 10
694.24230154934969
 20
778.92831349213475
 30
0.0
 40
0.2999999999992724
 50
180.00000000017371
 51
211.39551097250811
  0
ARC
  5
D1
  8
0
 10
648.11266009670931
 20
804.09923931017829
 30
0.0
 40
0.2999999999997271
 50
180.00000000017371
 51
270.00000000017371
  0
LINE
  5
D2
  8
0
 10
693.94230154935144
 20
779.14923931017665
 30
0.0
 11
693.94230154935053
 21
778.92831349213384
 31
0.0
  0
LINE
  5
D3
  8
0
 10
647.81266009670912
 20
804.09923931017738
 30
0.0
 11
647.81266009670935
 21
808.09923931017545
 31
0.0
  0
ARC
  5
D4
  8
0
 10
694.24178615835012
 20
779.14975470117724
 30
0.0
 40
0.2994850524735972
 50
89.901398271917955
 51
180.09860172808209
  0
ARC
  5
D5
  8
0
 10
648.11266009670931
 20
808.09923931017545
 30
0.0
 40
0.3
 50
90.0
 51
180.0
  0
LINE
  5
D6
  8
0
 10
698.29508795384868
 20
779.44923931017684
 30
0.0
 11
694.24230154935071
 21
779.44923931017615
 31
0.0
  0
LINE
  5
D7
  8
0
 10
648.11266009670931
 20
808.39923931017574
 30
0.0
 11
649.01266009670985
 21
808.39923931017552
 31
0.0
  0
ARC
  5
D8
  8
0
 10
698.29508795384675
 20
779.74923931018611
 30
0.0
 40
0.3000000000088844
 50
270.00000000034743
 51
318.18968510442949
  0
ARC
  5
D9
  8
0
 10
649.01266009670985
 20
808.09923931017545
 30
0.0
 40
0.3
 50
0.0000000001737007
 51
90.0
  0
ARC
  5
DA
  8
0
 10
698.74230154935162
 20
779.34923931017818
 30
0.0
 40
0.2999999999992724
 50
359.99999999947892
 51
138.18968510351181
  0
ARC
  5
DB
  8
0
 10
649.61266009670931
 20
808.09923931017636
 30
0.0
 40
0.3
 50
180.0
 51
270.0
  0
LINE
  5
DC
  8
0
 10
699.0423015493509
 20
779.1887350594501
 30
0.0
 11
699.0423015493509
 21
779.34923931017556
 31
0.0
  0
LINE
  5
DD
  8
0
 10
649.61266009670931
 20
807.79923931017618
 30
0.0
 11
652.01266009670985
 21
807.7992393101764
 31
0.0
  0
ARC
  5
DE
  8
0
 10
698.74230154935697
 20
779.18873505945294
 30
0.0
 40
0.2999999999937928
 50
344.9999999995141
 51
359.99999999947892
  0
ARC
  5
DF
  8
0
 10
652.01266009670985
 20
808.09923931017636
 30
0.0
 40
0.3
 50
270.0
 51
359.99999999965257
  0
LINE
  5
E0
  8
0
 10
698.50101898889102
 20
777.12914529329055
 30
0.0
 11
699.03207929723715
 21
779.1110893459213
 31
0.0
  0
LINE
  5
E1
  8
0
 10
652.31266009671003
 20
808.09923931017465
 30
0.0
 11
652.31266009672618
 21
812.59923931027015
 31
0.0
  0
ARC
  5
E2
  8
0
 10
698.30783382363484
 20
777.18090910231103
 30
0.0
 40
0.1999999999984031
 50
284.99999999984732
 51
344.99999999988421
  0
ARC
  5
E3
  8
0
 10
652.01266009672622
 20
812.59923931027197
 30
0.0
 40
0.3
 50
359.99999999965257
 51
90.0
  0
LINE
  5
E4
  8
0
 10
698.19053774033296
 20
776.94242447543593
 30
0.0
 11
698.35959763265441
 21
776.98772393705462
 31
0.0
  0
LINE
  5
E5
  8
0
 10
652.01266009672622
 20
812.89923931027135
 30
0.0
 11
638.61266009672204
 21
812.89923931027568
 31
0.0
  0
ARC
  5
E6
  8
0
 10
698.24230154935253
 20
776.74923931017611
 30
0.0
 40
0.2000000000015772
 50
104.99999999959439
 51
224.99999999963151
  0
ARC
  5
E7
  8
0
 10
638.61266009672204
 20
812.59923931027549
 30
0.0
 40
0.3000000000001819
 50
90.0
 51
180.0
  0
LINE
  5
E8
  8
0
 10
698.46463326631169
 20
776.24406488074101
 30
0.0
 11
698.1008801931132
 21
776.60781795393859
 31
0.0
  0
LINE
  5
E9
  8
0
 10
638.31266009672186
 20
812.59923931027549
 30
0.0
 11
638.31266009671549
 21
810.0492393101772
 31
0.0
  0
ARC
  5
EA
  8
0
 10
698.67676530067024
 20
776.45619691509773
 30
0.0
 40
0.3000000000025019
 50
224.99999999975429
 51
264.99999999961477
  0
ARC
  5
EB
  8
0
 10
638.06266009671538
 20
810.04923931017902
 30
0.0
 40
0.25
 50
269.99999999958311
 51
359.99999999958311
  0
LINE
  5
EC
  8
0
 10
701.01615482652426
 20
775.95038090074968
 30
0.0
 11
698.65061857784372
 21
776.15733850566789
 31
0.0
  0
LINE
  5
ED
  8
0
 10
638.06266009671356
 20
809.79923931017902
 30
0.0
 11
636.41266009671585
 21
809.79923931017845
 31
0.0
  0
ARC
  5
EE
  8
0
 10
701.04230154934999
 20
776.24923931017702
 30
0.0
 40
0.3000000000001819
 50
264.99999999974619
 51
359.99999999947892
  0
ARC
  5
EF
  8
0
 10
636.41266009671585
 20
810.39923931018848
 30
0.0
 40
0.6000000000099135
 50
180.00000000017371
 51
270.0
  0
ARC
  5
F0
  8
0
 10
701.06104447023995
 20
776.25249881388618
 30
0.0
 40
0.2812759657597649
 50
359.33602579375952
 51
20.280309407273489
  0
LINE
  5
F1
  8
0
 10
635.81266009670549
 20
810.39923931018666
 30
0.0
 11
635.81266009670458
 21
810.54923931017913
 31
0.0
  0
LINE
  5
F2
  8
0
 10
700.81070802496765
 20
777.76267860895632
 30
0.0
 11
701.32488360701723
 21
776.34999280764305
 31
0.0
  0
ARC
  5
F3
  8
0
 10
636.06266009670446
 20
810.54923931017913
 30
0.0
 40
0.25
 50
90.0
 51
180.0
  0
ARC
  5
F4
  8
0
 10
700.52880023872626
 20
777.66007256595856
 30
0.0
 40
0.3000000000055338
 50
19.999999999623871
 51
79.095716722356244
  0
LINE
  5
F5
  8
0
 10
636.06266009670446
 20
810.79923931017902
 30
0.0
 11
636.81266009670094
 21
810.79923931017845
 31
0.0
  0
ARC
  5
F6
  8
0
 10
700.64230154935115
 20
778.24923931017702
 30
0.0
 40
0.3000000000001819
 50
179.99999999982629
 51
259.0957167225003
  0
ARC
  5
F7
  8
0
 10
636.81266009670094
 20
811.0992393101792
 30
0.0
 40
0.3000000000006366
 50
270.0
 51
359.99999999965257
  0
LINE
  5
F8
  8
0
 10
700.34230154935108
 20
778.24923931017793
 30
0.0
 11
700.34230154935108
 21
779.19923931023322
 31
0.0
  0
LINE
  5
F9
  8
0
 10
637.11266009670112
 20
811.09923931017738
 30
0.0
 11
637.11266009670237
 21
812.59923931027549
 31
0.0
  0
ARC
  5
FA
  8
0
 10
700.64230154935115
 20
779.19923931023322
 30
0.0
 40
0.3
 50
90.0
 51
180.0
  0
ARC
  5
FB
  8
0
 10
636.81266009670264
 20
812.59923931027549
 30
0.0
 40
0.2999999999996135
 50
0.0
 51
90.0
  0
LINE
  5
FC
  8
0
 10
703.81266009650437
 20
779.49923931023795
 30
0.0
 11
700.64230154935115
 21
779.49923931023307
 31
0.0
  0
LINE
  5
FD
  8
0
 10
636.81266009670264
 20
812.89923931027477
 30
0.0
 11
633.76525421276551
 21
812.89923931027477
 31
0.0
  0
ARC
  5
FE
  8
0
 10
703.81266009650437
 20
779.79923931023814
 30
0.0
 40
0.3
 50
270.0
 51
359.99999999079392
  0
ARC
  5
FF
  8
0
 10
633.76525421276551
 20
812.5992393102764
 30
0.0
 40
0.2999999999983629
 50
90.0
 51
116.508401526124
  0
LINE
  5
100
  8
0
 10
704.11266009653548
 20
785.49923931019885
 30
0.0
 11
704.11266009650444
 21
779.79923931018993
 31
0.0
  0
ARC
  5
101
  8
0
 10
634.62876924992918
 20
810.73977304161542
 30
0.0
 40
2.3500866519912789
 50
115.1136867958429
 51
168.66900542817041
  0
ARC
  5
102
  8
0
 10
704.41266009653566
 20
785.49923931019703
 30
0.0
 40
0.3
 50
90.0
 51
179.9999999996526
  0
ARC
  5
103
  8
0
 10
632.60651887591325
 20
811.09923931017465
 30
0.0
 40
0.300000000000143
 50
160.06813443655901
 51
270.0
  0
LINE
  5
104
  8
0
 10
704.41266009653566
 20
785.79923931019687
 30
0.0
 11
708.91266009669005
 21
785.79923931019289
 31
0.0
  0
LINE
  5
105
  8
0
 10
632.60651887591325
 20
810.79923931017436
 30
0.0
 11
633.06266009670264
 21
810.79923931017402
 31
0.0
  0
ARC
  5
106
  8
0
 10
708.91266009669039
 20
786.09923931019296
 30
0.0
 40
0.3
 50
269.99999999995651
 51
0.0000000000216627
  0
ARC
  5
107
  8
0
 10
633.06266009670355
 20
810.54923931017436
 30
0.0
 40
0.2499999999995452
 50
0.0000000014590858
 51
90.000000000208431
  0
LINE
  5
108
  8
0
 10
709.21266009669034
 20
786.09923931019296
 30
0.0
 11
709.21266009668966
 21
787.63923931019372
 31
0.0
  0
LINE
  5
109
  8
0
 10
633.31266009670367
 20
810.54923931018084
 30
0.0
 11
633.31266009670446
 21
810.39923931020019
 31
0.0
  0
ARC
  5
10A
  8
0
 10
707.21266009668955
 20
787.63923931019372
 30
0.0
 40
2.0
 50
0.0
 51
79.835751378510736
  0
ARC
  5
10B
  8
0
 10
632.71266009670046
 20
810.39923931018939
 30
0.0
 40
0.6000000000040018
 50
270.00000000052108
 51
0.0000000010422063
  0
ARC
  5
10C
  8
0
 10
707.51266009668961
 20
789.31255936330081
 30
0.0
 40
0.3
 50
79.83575137851706
 51
180.0
  0
LINE
  5
10D
  8
0
 10
632.71266009670603
 20
809.79923931018538
 30
0.0
 11
630.81266009670094
 21
809.79923931017026
 31
0.0
  0
LINE
  5
10E
  8
0
 10
707.21266009668955
 20
789.31255936330081
 30
0.0
 11
707.21266009668955
 21
788.09923931019455
 31
0.0
  0
ARC
  5
10F
  8
0
 10
630.81266009669719
 20
810.09923931017022
 30
0.0
 40
0.2999999999997271
 50
180.0000000003474
 51
270.0000000006948
  0
ARC
  5
110
  8
0
 10
706.91266009668971
 20
788.09923931019455
 30
0.0
 40
0.3
 50
269.99999999995651
 51
0.0
  0
LINE
  5
111
  8
0
 10
630.51266009669712
 20
810.09923931016817
 30
0.0
 11
630.51266009669735
 21
810.49923931019975
 31
0.0
  0
LINE
  5
112
  8
0
 10
706.91266009668936
 20
787.79923931019471
 30
0.0
 11
704.41266009655385
 21
787.7992393101963
 31
0.0
  0
ARC
  5
113
  8
0
 10
634.81266009669719
 20
810.49923931019975
 30
0.0
 40
4.299999999999998
 50
89.999999999987907
 51
180.0
  0
ARC
  5
114
  8
0
 10
704.41266009655385
 20
788.09923931019648
 30
0.0
 40
0.3
 50
179.9999999996526
 51
270.0
  0
LINE
  5
115
  8
0
 10
634.81266009669821
 20
814.79923931019903
 30
0.0
 11
703.01097950785174
 21
814.79923931018936
 31
0.0
  0
LINE
  5
116
  8
0
 10
704.11266009666917
 20
805.49923931019418
 30
0.0
 11
704.11266009655401
 21
788.09923931019819
 31
0.0
  0
ARC
  5
117
  8
0
 10
703.01097950785083
 20
809.89923931018927
 30
0.0
 40
4.9000000000000004
 50
0.0
 51
89.99999999998937
  0
ARC
  5
118
  8
0
 10
704.41266009666936
 20
805.49923931019418
 30
0.0
 40
0.3
 50
90.0
 51
180.0
  0
LINE
  5
119
  8
0
 10
707.91097950785047
 20
808.09923931019716
 30
0.0
 11
707.91097950785047
 21
809.89923931018927
 31
0.0
  0
LINE
  5
11A
  8
0
 10
704.41266009666936
 20
805.79923931019425
 30
0.0
 11
706.91266009669062
 21
805.79923931019437
 31
0.0
  0
ARC
  5
11B
  8
0
 10
708.21097950785042
 20
808.09923931019716
 30
0.0
 40
0.3
 50
180.0
 51
270.0
  0
ARC
  5
11C
  8
0
 10
706.91266009669062
 20
805.49923931019464
 30
0.0
 40
0.3
 50
0.0
 51
90.0
  0
LINE
  5
11D
  8
0
 10
708.91266009669062
 20
807.79923931019721
 30
0.0
 11
708.21097950785042
 21
807.79923931019721
 31
0.0
  0
LINE
  5
11E
  8
0
 10
707.21266009669046
 20
805.49923931019464
 30
0.0
 11
707.21266009669046
 21
804.28591925708724
 31
0.0
  0
ARC
  5
11F
  8
0
 10
708.91266009669062
 20
807.49923931019725
 30
0.0
 40
0.3
 50
0.0
 51
90.0
  0
ARC
  5
120
  8
0
 10
707.51266009669052
 20
804.28591925708724
 30
0.0
 40
0.3
 50
180.0
 51
280.16424862149307
  0
LINE
  5
121
  8
0
 10
709.21266009669046
 20
805.95923931019445
 30
0.0
 11
709.21266009669046
 21
807.49923931019725
 31
0.0
  0
ARC
  5
122
  8
0
 10
707.21266009669046
 20
805.95923931019445
 30
0.0
 40
2.0
 50
280.1642486214908
 51
0.0
  0
ARC
  5
123
  8
0
 10
649.61266009670385
 20
784.39923931018211
 30
0.0
 40
0.3
 50
90.0
 51
180.0
  0
LINE
  5
124
  8
0
 10
649.61266009670385
 20
784.69923931018195
 30
0.0
 11
653.91266009669403
 21
784.69923931018161
 31
0.0
  0
LINE
  5
125
  8
0
 10
649.31266009670458
 20
783.56940990240446
 30
0.0
 11
649.31266009670378
 21
784.39923931018211
 31
0.0
  0
ARC
  5
126
  8
0
 10
653.91266009669403
 20
784.99923931018145
 30
0.0
 40
0.3
 50
270.0
 51
0.0
  0
ARC
  5
127
  8
0
 10
649.61266009670464
 20
783.56940990240446
 30
0.0
 40
0.3
 50
180.0
 51
240.00000000003391
  0
LINE
  5
128
  8
0
 10
654.21266009669421
 20
784.99923931018145
 30
0.0
 11
654.21266009669512
 21
812.59923931027197
 31
0.0
  0
LINE
  5
129
  8
0
 10
652.70189058126755
 20
781.43943168904161
 30
0.0
 11
649.46266009670478
 21
783.30960228126901
 31
0.0
  0
ARC
  5
12A
  8
0
 10
654.51266009669439
 20
812.59923931027197
 30
0.0
 40
0.2999999999992724
 50
90.0
 51
180.0
  0
ARC
  5
12B
  8
0
 10
652.85189058126718
 20
781.69923931017684
 30
0.0
 40
0.3
 50
240.00000000004991
 51
270.0
  0
LINE
  5
12C
  8
0
 10
654.51266009669439
 20
812.89923931027135
 30
0.0
 11
702.91097950785036
 21
812.89923931027135
 31
0.0
  0
LINE
  5
12D
  8
0
 10
701.91266009669403
 20
781.39923931017574
 30
0.0
 11
652.85189058126718
 21
781.39923931017677
 31
0.0
  0
ARC
  5
12E
  8
0
 10
702.91097950785036
 20
809.89923931027124
 30
0.0
 40
3.0
 50
0.0
 51
90.0
  0
ARC
  5
12F
  8
0
 10
701.91266009669403
 20
781.69923931017593
 30
0.0
 40
0.3000000000001819
 50
270.0
 51
0.0
  0
LINE
  5
130
  8
0
 10
705.91097950785036
 20
809.89923931027124
 30
0.0
 11
705.91097950785036
 21
808.09923931019716
 31
0.0
  0
LINE
  5
131
  8
0
 10
702.21266009669137
 20
807.49923931019703
 30
0.0
 11
702.21266009669421
 21
781.69923931017593
 31
0.0
  0
ARC
  5
132
  8
0
 10
705.61097950785052
 20
808.09923931019716
 30
0.0
 40
0.3
 50
270.0
 51
0.0
  0
ARC
  5
133
  8
0
 10
702.51266009669155
 20
807.49923931019703
 30
0.0
 40
0.3
 50
90.0
 51
180.0
  0
LINE
  5
134
  8
0
 10
705.61097950785052
 20
807.79923931019721
 30
0.0
 11
702.51266009669155
 21
807.79923931019698
 31
0.0
  0
ENDSEC
  0
EOF
