  0
SECTION
  2
HEADER
  9
$ACADVER
  1
AC1009
  9
$INSBASE
 10
0.0
 20
0.0
 30
0.0
  9
$EXTMIN
 10
268.03070197351121
 20
647.32187034157323
 30
-0.0015258207003583
  9
$EXTMAX
 10
318.0825814256475
 20
697.33094903353003
 30
0.0000000349246037
  9
$LIMMIN
 10
0.0
 20
0.0
  9
$LIMMAX
 10
420.0
 20
297.0
  9
$ORTHOMODE
 70
     0
  9
$REGENMODE
 70
     1
  9
$FILLMODE
 70
     1
  9
$QTEXTMODE
 70
     0
  9
$MIRRTEXT
 70
     0
  9
$DRAGMODE
 70
     2
  9
$LTSCALE
 40
1.0
  9
$OSMODE
 70
  3071
  9
$ATTMODE
 70
     1
  9
$TEXTSIZE
 40
2.5
  9
$TRACEWID
 40
1.0
  9
$TEXTSTYLE
  7
STANDARD
  9
$CLAYER
  8
0
  9
$CELTYPE
  6
BYLAYER
  9
$CECOLOR
 62
   256
  9
$DIMSCALE
 40
1.0
  9
$DIMASZ
 40
2.5
  9
$DIMEXO
 40
0.625
  9
$DIMDLI
 40
3.75
  9
$DIMRND
 40
0.0
  9
$DIMDLE
 40
0.0
  9
$DIMEXE
 40
1.25
  9
$DIMTP
 40
0.0
  9
$DIMTM
 40
0.0
  9
$DIMTXT
 40
2.5
  9
$DIMCEN
 40
2.5
  9
$DIMTSZ
 40
0.0
  9
$DIMTOL
 70
     0
  9
$DIMLIM
 70
     0
  9
$DIMTIH
 70
     0
  9
$DIMTOH
 70
     0
  9
$DIMSE1
 70
     0
  9
$DIMSE2
 70
     0
  9
$DIMTAD
 70
     1
  9
$DIMZIN
 70
     8
  9
$DIMBLK
  1

  9
$DIMASO
 70
     1
  9
$DIMSHO
 70
     1
  9
$DIMPOST
  1

  9
$DIMAPOST
  1

  9
$DIMALT
 70
     0
  9
$DIMALTD
 70
     3
  9
$DIMALTF
 40
0.03937007874016
  9
$DIMLFAC
 40
1.0
  9
$DIMTOFL
 70
     1
  9
$DIMTVP
 40
0.0
  9
$DIMTIX
 70
     0
  9
$DIMSOXD
 70
     0
  9
$DIMSAH
 70
     0
  9
$DIMBLK1
  1

  9
$DIMBLK2
  1

  9
$DIMSTYLE
  2
ISO-25
  9
$DIMCLRD
 70
     0
  9
$DIMCLRE
 70
     0
  9
$DIMCLRT
 70
     0
  9
$DIMTFAC
 40
1.0
  9
$DIMGAP
 40
0.625
  9
$LUNITS
 70
     2
  9
$LUPREC
 70
     4
  9
$SKETCHINC
 40
1.0
  9
$FILLETRAD
 40
0.0
  9
$AUNITS
 70
     0
  9
$AUPREC
 70
     0
  9
$MENU
  1
.
  9
$ELEVATION
 40
0.0
  9
$PELEVATION
 40
0.0
  9
$THICKNESS
 40
0.0
  9
$LIMCHECK
 70
     0
  9
$BLIPMODE
 70
     0
  9
$CHAMFERA
 40
0.0
  9
$CHAMFERB
 40
0.0
  9
$SKPOLY
 70
     0
  9
$TDCREATE
 40
2454574.4257465508
  9
$TDUPDATE
 40
2454574.425861944
  9
$TDINDWG
 40
0.0001155671
  9
$TDUSRTIMER
 40
0.0001155671
  9
$USRTIMER
 70
     1
  9
$ANGBASE
 50
0.0
  9
$ANGDIR
 70
     0
  9
$PDMODE
 70
     0
  9
$PDSIZE
 40
0.0
  9
$PLINEWID
 40
0.0
  9
$COORDS
 70
     2
  9
$SPLFRAME
 70
     0
  9
$SPLINETYPE
 70
     6
  9
$SPLINESEGS
 70
     8
  9
$ATTDIA
 70
     0
  9
$ATTREQ
 70
     1
  9
$HANDLING
 70
     1
  9
$HANDSEED
  5
1BB
  9
$SURFTAB1
 70
     6
  9
$SURFTAB2
 70
     6
  9
$SURFTYPE
 70
     6
  9
$SURFU
 70
     6
  9
$SURFV
 70
     6
  9
$UCSNAME
  2

  9
$UCSORG
 10
0.0
 20
0.0
 30
0.0
  9
$UCSXDIR
 10
1.0
 20
0.0
 30
0.0
  9
$UCSYDIR
 10
0.0
 20
1.0
 30
0.0
  9
$PUCSNAME
  2

  9
$PUCSORG
 10
0.0
 20
0.0
 30
0.0
  9
$PUCSXDIR
 10
1.0
 20
0.0
 30
0.0
  9
$PUCSYDIR
 10
0.0
 20
1.0
 30
0.0
  9
$USERI1
 70
     0
  9
$USERI2
 70
     0
  9
$USERI3
 70
     0
  9
$USERI4
 70
     0
  9
$USERI5
 70
     0
  9
$USERR1
 40
0.0
  9
$USERR2
 40
0.0
  9
$USERR3
 40
0.0
  9
$USERR4
 40
0.0
  9
$USERR5
 40
0.0
  9
$WORLDVIEW
 70
     1
  9
$SHADEDGE
 70
     3
  9
$SHADEDIF
 70
    70
  9
$TILEMODE
 70
     1
  9
$MAXACTVP
 70
    64
  9
$PLIMCHECK
 70
     0
  9
$PEXTMIN
 10
0.0
 20
0.0
 30
0.0
  9
$PEXTMAX
 10
0.0
 20
0.0
 30
0.0
  9
$PLIMMIN
 10
0.0
 20
0.0
  9
$PLIMMAX
 10
12.0
 20
9.0
  9
$UNITMODE
 70
     0
  9
$VISRETAIN
 70
     1
  9
$PLINEGEN
 70
     0
  9
$PSLTSCALE
 70
     1
  0
ENDSEC
  0
SECTION
  2
TABLES
  0
TABLE
  2
VPORT
 70
     2
  0
VPORT
  2
*ACTIVE
 70
     0
 10
0.0
 20
0.0
 11
1.0
 21
1.0
 12
293.05664169957942
 22
672.32640968755163
 13
0.0
 23
0.0
 14
10.0
 24
10.0
 15
10.0
 25
10.0
 16
0.0
 26
0.0
 36
1.0
 17
0.0
 27
0.0
 37
0.0
 40
50.646137019242808
 41
2.399999999999999
 42
50.0
 43
0.0
 44
0.0
 50
0.0
 51
0.0
 71
     0
 72
  1000
 73
     1
 74
     3
 75
     0
 76
     0
 77
     0
 78
     0
  0
ENDTAB
  0
TABLE
  2
LTYPE
 70
     1
  0
LTYPE
  2
CONTINUOUS
 70
     0
  3
Solid line
 72
    65
 73
     0
 40
0.0
  0
ENDTAB
  0
TABLE
  2
LAYER
 70
     2
  0
LAYER
  2
0
 70
     0
 62
     7
  6
CONTINUOUS
  0
LAYER
  2
OLÇÜ
 70
     0
 62
     5
  6
CONTINUOUS
  0
ENDTAB
  0
TABLE
  2
STYLE
 70
     4
  0
STYLE
  2
STANDARD
 70
     0
 40
0.0
 41
1.0
 50
0.0
 71
     0
 42
2.5
  3
txt
  4

  0
STYLE
  2
EBRU
 70
     0
 40
0.0
 41
1.0
 50
0.0
 71
     0
 42
200.0
  3
txt
  4

  0
STYLE
  2
2_YUK_3
 70
     0
 40
3.0
 41
1.0
 50
0.0
 71
     0
 42
3.0
  3
txt
  4

  0
STYLE
  2
ROMANT
 70
     0
 40
2.5
 41
1.0
 50
15.0
 71
     0
 42
2.5
  3
romant.shx
  4

  0
ENDTAB
  0
TABLE
  2
VIEW
 70
     0
  0
ENDTAB
  0
TABLE
  2
UCS
 70
     0
  0
ENDTAB
  0
TABLE
  2
APPID
 70
     1
  0
APPID
  2
ACAD
 70
     0
  0
ENDTAB
  0
TABLE
  2
DIMSTYLE
 70
     7
  0
DIMSTYLE
  2
ISO-25
 70
     0
  3

  4

  5

  6

  7

 40
1.0
 41
2.5
 42
0.625
 43
3.75
 44
1.25
 45
0.0
 46
0.0
 47
0.0
 48
0.0
140
2.5
141
2.5
142
0.0
143
0.03937007874016
144
1.0
145
0.0
146
1.0
147
0.625
 71
     0
 72
     0
 73
     0
 74
     0
 75
     0
 76
     0
 77
     1
 78
     8
170
     0
171
     3
172
     1
173
     0
174
     0
175
     0
176
     0
177
     0
178
     0
  0
DIMSTYLE
  2
OLCEK_0_2_AYARLAR
 70
     0
  3

  4
"
  5

  6

  7

 40
1.0
 41
2.5
 42
2.0
 43
10.0
 44
1.0
 45
0.0
 46
0.0
 47
0.1
 48
0.1
140
3.0
141
0.0
142
0.0
143
0.0393701
144
0.2
145
0.0
146
0.71
147
1.5
 71
     0
 72
     0
 73
     0
 74
     1
 75
     0
 76
     0
 77
     1
 78
     8
170
     0
171
     2
172
     1
173
     0
174
     0
175
     0
176
     3
177
     3
178
     7
  0
DIMSTYLE
  2
ISO-25-2
 70
     0
  3

  4

  5

  6

  7

 40
0.8
 41
2.5
 42
0.625
 43
3.75
 44
0.5
 45
0.0
 46
0.0
 47
0.0
 48
0.0
140
2.5
141
0.2
142
0.0
143
0.03937007874016
144
0.5
145
0.0
146
1.0
147
0.2
 71
     0
 72
     0
 73
     0
 74
     0
 75
     0
 76
     0
 77
     1
 78
     8
170
     0
171
     3
172
     0
173
     0
174
     0
175
     0
176
   242
177
   242
178
   242
  0
DIMSTYLE
  2
ISO-25_1_E_4
 70
     0
  3

  4

  5

  6

  7

 40
1.0
 41
2.5
 42
0.0
 43
3.75
 44
0.3
 45
0.0
 46
0.0
 47
0.0
 48
0.0
140
1.0
141
0.2
142
0.0
143
0.03937007874016
144
0.25
145
0.0
146
1.0
147
0.3
 71
     0
 72
     0
 73
     0
 74
     0
 75
     0
 76
     0
 77
     1
 78
     8
170
     0
171
     3
172
     0
173
     0
174
     0
175
     0
176
   242
177
   242
178
   256
  0
DIMSTYLE
  2
ISO-25_1_E_2
 70
     0
  3

  4

  5

  6

  7

 40
1.0
 41
2.5
 42
0.0
 43
3.75
 44
0.3
 45
0.0
 46
0.0
 47
0.0
 48
0.0
140
1.0
141
0.2
142
0.0
143
0.03937007874016
144
0.5
145
0.0
146
1.0
147
0.3
 71
     0
 72
     0
 73
     0
 74
     0
 75
     0
 76
     0
 77
     1
 78
     8
170
     0
171
     3
172
     0
173
     0
174
     0
175
     0
176
   242
177
   242
178
   256
  0
DIMSTYLE
  2
ISO-25_1_E_3
 70
     0
  3

  4

  5

  6

  7

 40
1.0
 41
2.5
 42
0.0
 43
3.75
 44
0.3
 45
0.0
 46
0.0
 47
0.0
 48
0.0
140
1.0
141
0.2
142
0.0
143
0.03937007874016
144
0.333333333333333
145
0.0
146
1.0
147
0.5
 71
     0
 72
     0
 73
     0
 74
     0
 75
     0
 76
     0
 77
     1
 78
     8
170
     0
171
     3
172
     0
173
     0
174
     0
175
     0
176
   242
177
   242
178
   256
  0
DIMSTYLE
  2
ISO-25_1_E_1
 70
     0
  3

  4

  5

  6

  7

 40
1.0
 41
2.5
 42
0.0
 43
3.75
 44
0.5
 45
0.0
 46
0.0
 47
0.0
 48
0.0
140
1.0
141
0.2
142
0.0
143
0.03937007874016
144
1.0
145
0.0
146
1.0
147
0.4
 71
     0
 72
     0
 73
     0
 74
     0
 75
     0
 76
     0
 77
     1
 78
     8
170
     0
171
     3
172
     0
173
     0
174
     0
175
     0
176
   242
177
   242
178
   242
  0
ENDTAB
  0
ENDSEC
  0
SECTION
  2
BLOCKS
  0
BLOCK
  8
0
  2
$MODEL_SPACE
 70
     0
 10
0.0
 20
0.0
 30
0.0
  3
$MODEL_SPACE
  1

  0
ENDBLK
  5
21
  8
0
  0
BLOCK
 67
     1
  8
0
  2
$PAPER_SPACE
 70
     0
 10
0.0
 20
0.0
 30
0.0
  3
$PAPER_SPACE
  1

  0
ENDBLK
  5
53
 67
     1
  8
0
  0
BLOCK
  8
0
  2
*X2
 70
     1
 10
0.0
 20
0.0
 30
0.0
  3
*X2
  1

  0
LINE
  5
B6
  8
0
 62
     0
 10
38.436774653948191
 20
2.482749351221059
 30
0.0
 11
46.079156662864527
 21
10.1251313601374
 31
0.0
  0
LINE
  5
B7
  8
0
 62
     0
 10
36.369760616583562
 20
1.299618790339536
 30
0.0
 11
47.262287223746057
 21
12.19214539750214
 31
0.0
  0
LINE
  5
B8
  8
0
 62
     0
 10
34.715896073731422
 20
0.5296377239707227
 30
0.0
 11
48.032268290114871
 21
13.84600994035406
 31
0.0
  0
LINE
  5
B9
  8
0
 62
     0
 10
33.302374594332719
 20
-0.0000002789449809
 30
0.0
 11
48.587888319016763
 21
15.285513445739181
 31
0.0
  0
LINE
  5
BA
  8
0
 62
     0
 10
44.112888839871403
 20
11.69439744307704
 30
0.0
 11
49.004826343222128
 21
16.586334946427769
 31
0.0
  0
LINE
  5
BB
  8
0
 62
     0
 10
32.99822929567631
 20
0.579737898881831
 30
0.0
 11
36.867508571009921
 21
4.4490171742155553
 31
0.0
  0
LINE
  5
BC
  8
0
 62
     0
 10
45.207875857144579
 20
13.67326793683344
 30
0.0
 11
49.321695762460081
 21
17.787087842148821
 31
0.0
  0
LINE
  5
BD
  8
0
 62
     0
 10
32.998229295676197
 20
1.46362137536505
 30
0.0
 11
35.998229295676083
 21
4.4636213753649372
 31
0.0
  0
LINE
  5
BE
  8
0
 62
     0
 10
33.998229295676197
 20
3.3475048518481572
 30
0.0
 11
35.998229295676083
 21
5.3475048518480426
 31
0.0
  0
LINE
  5
BF
  8
0
 62
     0
 10
45.909395854244167
 20
15.258671410416129
 30
0.0
 11
49.561405653902632
 21
18.910681210074578
 31
0.0
  0
LINE
  5
C0
  8
0
 62
     0
 10
32.998902365878621
 20
2.3481779220504668
 30
0.0
 11
33.30323460366003
 21
2.6525101598319898
 31
0.0
  0
LINE
  5
C1
  8
0
 62
     0
 10
46.406290270702243
 20
16.63944930335742
 30
0.0
 11
49.738888072871191
 21
19.972047105526372
 31
0.0
  0
LINE
  5
C2
  8
0
 62
     0
 10
33.99822929567631
 20
4.2313883283313771
 30
0.0
 11
35.998229295676083
 21
6.2313883283312634
 31
0.0
  0
LINE
  5
C3
  8
0
 62
     0
 10
46.770491576284478
 20
17.887534085422882
 30
0.0
 11
49.86452612146968
 21
20.981568630608081
 31
0.0
  0
LINE
  5
C4
  8
0
 62
     0
 10
33.998229295676197
 20
5.1152718048145971
 30
0.0
 11
35.998229295676083
 21
7.1152718048144834
 31
0.0
  0
LINE
  5
C5
  8
0
 62
     0
 10
47.038717586465161
 20
19.039643572086561
 30
0.0
 11
49.945889716213742
 21
21.946815701835249
 31
0.0
  0
LINE
  5
C6
  8
0
 62
     0
 10
33.998229295676197
 20
5.9991552812977034
 30
0.0
 11
35.998229295676083
 21
7.9991552812975888
 31
0.0
  0
LINE
  5
C7
  8
0
 62
     0
 10
47.232759711039527
 20
20.117569173144151
 30
0.0
 11
49.988700887640107
 21
22.87351034974483
 31
0.0
  0
LINE
  5
C8
  8
0
 62
     0
 10
33.99822929567631
 20
6.8830387577809233
 30
0.0
 11
35.998229295676197
 21
8.8830387577808096
 31
0.0
  0
LINE
  5
C9
  8
0
 62
     0
 10
47.36682427688504
 20
21.135517215472991
 30
0.0
 11
49.997409756820161
 21
23.766102695408112
 31
0.0
  0
LINE
  5
CA
  8
0
 62
     0
 10
33.998229295676197
 20
7.7669222342641433
 30
0.0
 11
35.998229295676083
 21
9.7669222342640296
 31
0.0
  0
LINE
  5
CB
  8
0
 62
     0
 10
47.45079027728093
 20
22.10336669235198
 30
0.0
 11
49.975557627771423
 21
24.628134042842468
 31
0.0
  0
LINE
  5
CC
  8
0
 62
     0
 10
33.998229295676197
 20
8.6508057107472496
 30
0.0
 11
35.998229295676083
 21
10.650805710747131
 31
0.0
  0
LINE
  5
CD
  8
0
 62
     0
 10
47.491859335333629
 20
23.028319226887898
 30
0.0
 11
49.92601621859751
 21
25.46247611015179
 31
0.0
  0
LINE
  5
CE
  8
0
 62
     0
 10
33.99822929567631
 20
9.5346891872305832
 30
0.0
 11
35.998229295676197
 21
11.534689187230351
 31
0.0
  0
LINE
  5
CF
  8
0
 62
     0
 10
47.495473511610037
 20
23.91581687964754
 30
0.0
 11
49.851151115011021
 21
26.2714944830484
 31
0.0
  0
LINE
  5
D0
  8
0
 62
     0
 10
33.998229295676197
 20
10.41857266371369
 30
0.0
 11
35.998229295676083
 21
12.41857266371357
 31
0.0
  0
LINE
  5
D1
  8
0
 62
     0
 10
47.46586306551103
 20
24.770089910031519
 30
0.0
 11
49.752936896939786
 21
27.057163741460268
 31
0.0
  0
LINE
  5
D2
  8
0
 62
     0
 10
33.99822929567631
 20
11.30245614019679
 30
0.0
 11
35.998229295676083
 21
13.30245614019668
 31
0.0
  0
LINE
  5
D3
  8
0
 62
     0
 10
47.406391827991342
 20
25.594502148995161
 30
0.0
 11
49.633040347661222
 21
27.821150668664931
 31
0.0
  0
LINE
  5
D4
  8
0
 62
     0
 10
33.99822929567609
 20
12.1863396166799
 30
0.0
 11
35.998229295676197
 21
14.1863396166799
 31
0.0
  0
LINE
  5
D5
  8
0
 62
     0
 10
47.319784792702308
 20
26.39177859018924
 30
0.0
 11
49.492881943549953
 21
28.564875741036989
 31
0.0
  0
LINE
  5
D6
  8
0
 62
     0
 10
33.99822929567609
 20
13.07022309316301
 30
0.0
 11
35.998229295676083
 21
15.07022309316312
 31
0.0
  0
LINE
  5
D7
  8
0
 62
     0
 10
47.208283631931522
 20
27.164160905901671
 30
0.0
 11
49.333682176959648
 21
29.289559450929801
 31
0.0
  0
LINE
  5
D8
  8
0
 62
     0
 10
33.99822929567609
 20
13.95410656964623
 30
0.0
 11
35.998229295676083
 21
15.95410656964623
 31
0.0
  0
LINE
  5
D9
  8
0
 62
     0
 10
47.073756235113812
 20
27.913516985567071
 30
0.0
 11
49.156497045699552
 21
29.996257796152811
 31
0.0
  0
LINE
  5
DA
  8
0
 62
     0
 10
33.99822929567609
 20
14.83799004612945
 30
0.0
 11
35.998229295676197
 21
16.837990046129448
 31
0.0
  0
LINE
  5
DB
  8
0
 62
     0
 10
46.91777587298747
 20
28.641420099924058
 30
0.0
 11
48.962245648352678
 21
30.685889875289149
 31
0.0
  0
LINE
  5
DC
  8
0
 62
     0
 10
33.99822929567609
 20
15.72187352261267
 30
0.0
 11
35.998229295676083
 21
17.721873522612668
 31
0.0
  0
LINE
  5
DD
  8
0
 62
     0
 10
46.741679685665417
 20
29.349207389084999
 30
0.0
 11
48.751731923970738
 21
31.359259627390429
 31
0.0
  0
LINE
  5
DE
  8
0
 62
     0
 10
33.99822929567609
 20
16.605756999095771
 30
0.0
 11
35.998229295676083
 21
18.605756999095771
 31
0.0
  0
LINE
  5
DF
  8
0
 62
     0
 10
33.99822929567609
 20
17.489640475578991
 30
0.0
 11
35.99822929567631
 21
19.489640475579218
 31
0.0
  0
LINE
  5
E0
  8
0
 62
     0
 10
46.546612726689091
 20
30.038023906591889
 30
0.0
 11
48.525661978289243
 21
32.017073158192147
 31
0.0
  0
LINE
  5
E1
  8
0
 62
     0
 10
16.54483285589356
 20
0.0362440357964715
 30
0.0
 11
16.998229295675849
 21
0.4896404755787671
 31
0.0
  0
LINE
  5
E2
  8
0
 62
     0
 10
33.99822929567609
 20
18.373523952062211
 30
0.0
 11
35.998229295676083
 21
20.373523952062211
 31
0.0
  0
LINE
  5
E3
  8
0
 62
     0
 10
46.333561684918429
 20
30.708856341304571
 30
0.0
 11
48.284658034917811
 21
32.659952691303829
 31
0.0
  0
LINE
  5
E4
  8
0
 62
     0
 10
15.901953322781649
 20
0.2772479791677824
 30
0.0
 11
16.998229295676079
 21
1.373523952062214
 31
0.0
  0
LINE
  5
E5
  8
0
 62
     0
 10
33.99822929567609
 20
19.257407428545321
 30
0.0
 11
35.99822929567631
 21
21.257407428545442
 31
0.0
  0
LINE
  5
E6
  8
0
 62
     0
 10
46.103381080016788
 20
31.36255921288603
 30
0.0
 11
48.029269771261049
 21
33.288447904130287
 31
0.0
  0
LINE
  5
E7
  8
0
 62
     0
 10
15.2734581099553
 20
0.5326362428245375
 30
0.0
 11
16.998229295676079
 21
2.2574074285453198
 31
0.0
  0
LINE
  5
E8
  8
0
 62
     0
 10
33.998229295676197
 20
20.141290905028541
 30
0.0
 11
35.998229295676197
 21
22.141290905028541
 31
0.0
  0
LINE
  5
E9
  8
0
 62
     0
 10
45.856813870412559
 20
31.99987547976502
 30
0.0
 11
47.759983603029582
 21
33.90304521238204
 31
0.0
  0
LINE
  5
EA
  8
0
 62
     0
 10
14.658860801703669
 20
0.8019224110561253
 30
0.0
 11
16.56203053432148
 21
2.7050921436738231
 31
0.0
  0
LINE
  5
EB
  8
0
 62
     0
 10
33.99822929567609
 20
21.025174381511871
 30
0.0
 11
35.998229295676083
 21
23.025174381511881
 31
0.0
  0
LINE
  5
EC
  8
0
 62
     0
 10
45.594507845111593
 20
32.621452930947271
 30
0.0
 11
47.477230341262491
 21
34.504175427098183
 31
0.0
  0
LINE
  5
ED
  8
0
 62
     0
 10
14.057730586987409
 20
1.084675672823209
 30
0.0
 11
16.01463451610698
 21
3.0415796019427712
 31
0.0
  0
LINE
  5
EE
  8
0
 62
     0
 10
33.99822929567609
 20
21.90905785799487
 30
0.0
 11
35.99822929567631
 21
23.909057857994981
 31
0.0
  0
LINE
  5
EF
  8
0
 62
     0
 10
45.317028786444659
 20
33.22785734876345
 30
0.0
 11
47.181391544292858
 21
35.092220106611649
 31
0.0
  0
LINE
  5
F0
  8
0
 62
     0
 10
13.46968590747394
 20
1.3805144697927281
 30
0.0
 11
15.998229295675969
 21
3.9090578579947528
 31
0.0
  0
LINE
  5
F1
  8
0
 62
     0
 10
33.998229295676197
 20
22.79294133447809
 30
0.0
 11
35.998229295676197
 21
24.79294133447809
 31
0.0
  0
LINE
  5
F2
  8
0
 62
     0
 10
45.024871125418017
 20
33.819583164220042
 30
0.0
 11
46.87280481247182
 21
35.667516851273717
 31
0.0
  0
LINE
  5
F3
  8
0
 62
     0
 10
12.894389162811869
 20
1.68910120161388
 30
0.0
 11
15.998229295675969
 21
4.7929413344779732
 31
0.0
  0
LINE
  5
F4
  8
0
 62
     0
 10
33.99822929567609
 20
23.676824810961421
 30
0.0
 11
35.998229295676197
 21
25.676824810961541
 31
0.0
  0
LINE
  5
F5
  8
0
 62
     0
 10
44.718466624640421
 20
34.397062139925772
 30
0.0
 11
46.551768217894619
 21
36.230363733179964
 31
0.0
  0
LINE
  5
F6
  8
0
 62
     0
 10
12.331542280905751
 20
2.0101377961909739
 30
0.0
 11
15.998229295675969
 21
5.6768248109611932
 31
0.0
  0
LINE
  5
F7
  8
0
 62
     0
 10
33.922970738488971
 20
24.485449730257301
 30
0.0
 11
35.922970738489198
 21
26.485449730257528
 31
0.0
  0
LINE
  5
F8
  8
0
 62
     0
 10
13.998229295676079
 20
4.5607082874444131
 30
0.0
 11
15.998229295675969
 21
6.5607082874442986
 31
0.0
  0
LINE
  5
F9
  8
0
 62
     0
 10
44.398191490298359
 20
34.960670482066689
 30
0.0
 11
46.21854401947212
 21
36.78102301124045
 31
0.0
  0
LINE
  5
FA
  8
0
 62
     0
 10
11.78088300284514
 20
2.3433619946134741
 30
0.0
 11
13.606626509349891
 21
4.1691055011182243
 31
0.0
  0
LINE
  5
FB
  8
0
 62
     0
 10
33.140363121846121
 20
24.586725590097561
 30
0.0
 11
35.140363121846121
 21
26.586725590097561
 31
0.0
  0
LINE
  5
FC
  8
0
 62
     0
 10
13.99822929567619
 20
5.4445917639276331
 30
0.0
 11
15.998229295675969
 21
7.4445917639275194
 31
0.0
  0
LINE
  5
FD
  8
0
 62
     0
 10
44.06437221767726
 20
35.51073468592881
 30
0.0
 11
45.873361781733131
 21
37.319724249984688
 31
0.0
  0
LINE
  5
FE
  8
0
 62
     0
 10
11.242181764101019
 20
2.6885442323524549
 30
0.0
 11
13.05117132815815
 21
4.4975337964096971
 31
0.0
  0
LINE
  5
FF
  8
0
 62
     0
 10
32.256479645363022
 20
24.586725590097789
 30
0.0
 11
34.256479645363022
 21
26.586725590097899
 31
0.0
  0
LINE
  5
100
  8
0
 62
     0
 10
13.998229295676079
 20
6.3284752404109659
 30
0.0
 11
15.998229295675969
 21
8.3284752404107394
 31
0.0
  0
LINE
  5
101
  8
0
 62
     0
 10
43.717290403269651
 20
36.047536348004542
 30
0.0
 11
45.516420991099608
 21
37.846666935834492
 31
0.0
  0
LINE
  5
102
  8
0
 62
     0
 10
10.71523907825121
 20
3.045485022986099
 30
0.0
 11
12.514369666082411
 21
4.8446156108172991
 31
0.0
  0
LINE
  5
103
  8
0
 62
     0
 10
31.372596168879681
 20
24.586725590097561
 30
0.0
 11
33.372596168879681
 21
26.586725590097561
 31
0.0
  0
LINE
  5
104
  8
0
 62
     0
 10
13.998229295676079
 20
7.2123587168939594
 30
0.0
 11
15.998229295675969
 21
9.2123587168938457
 31
0.0
  0
LINE
  5
105
  8
0
 62
     0
 10
43.357186703089269
 20
36.571316124307153
 30
0.0
 11
45.147893244131858
 21
38.362022665349627
 31
0.0
  0
LINE
  5
106
  8
0
 62
     0
 10
10.199883348735851
 20
3.4140127699537279
 30
0.0
 11
11.990589889779701
 21
5.2047193109975751
 31
0.0
  0
LINE
  5
107
  8
0
 62
     0
 10
30.488712692396579
 20
24.586725590097561
 30
0.0
 11
32.488712692396568
 21
26.586725590097561
 31
0.0
  0
LINE
  5
108
  8
0
 62
     0
 10
13.99822929567619
 20
8.0962421933771793
 30
0.0
 11
15.998229295675969
 21
10.09624219337706
 31
0.0
  0
LINE
  5
109
  8
0
 62
     0
 10
42.98426407630938
 20
37.082276974010483
 30
0.0
 11
44.767924067061237
 21
38.865936964762341
 31
0.0
  0
LINE
  5
10A
  8
0
 62
     0
 10
9.6959690493232529
 20
3.7939819470243492
 30
0.0
 11
11.479629040076469
 21
5.577641937777571
 31
0.0
  0
LINE
  5
10B
  8
0
 62
     0
 10
29.604829215913469
 20
24.586725590097789
 30
0.0
 11
31.604829215913469
 21
26.586725590097789
 31
0.0
  0
LINE
  5
10C
  8
0
 62
     0
 10
13.998229295676079
 20
8.9801256698605112
 30
0.0
 11
15.998229295676079
 21
10.980125669860509
 31
0.0
  0
LINE
  5
10D
  8
0
 62
     0
 10
42.598690422206118
 20
37.580586796390548
 30
0.0
 11
44.376634413790953
 21
39.358530787975383
 31
0.0
  0
LINE
  5
10E
  8
0
 62
     0
 10
9.2033752261103245
 20
4.18527160029464
 30
0.0
 11
10.981319217696409
 21
5.9632155918808394
 31
0.0
  0
LINE
  5
10F
  8
0
 62
     0
 10
28.720945739430139
 20
24.586725590097561
 30
0.0
 11
30.720945739430139
 21
26.586725590097561
 31
0.0
  0
LINE
  5
110
  8
0
 62
     0
 10
13.998229295676079
 20
9.8640091463435056
 30
0.0
 11
15.998229295675969
 21
11.86400914634339
 31
0.0
  0
LINE
  5
111
  8
0
 62
     0
 10
42.200600694039387
 20
38.066380544706711
 30
0.0
 11
43.974121879702459
 21
39.839901730369888
 31
0.0
  0
LINE
  5
112
  8
0
 62
     0
 10
8.7220042837157052
 20
4.5877841343830141
 30
0.0
 11
10.495525469380141
 21
6.3613053200474488
 31
0.0
  0
LINE
  5
113
  8
0
 62
     0
 10
27.837062262947029
 20
24.586725590097561
 30
0.0
 11
29.837062262947029
 21
26.586725590097561
 31
0.0
  0
LINE
  5
114
  8
0
 62
     0
 10
13.99822929567631
 20
10.747892622826949
 30
0.0
 11
15.998229295675969
 21
12.74789262282661
 31
0.0
  0
LINE
  5
115
  8
0
 62
     0
 10
41.790098554157787
 20
38.539761881308429
 30
0.0
 11
43.560461660502931
 21
40.31012498765358
 31
0.0
  0
LINE
  5
116
  8
0
 62
     0
 10
8.2517810264321252
 20
5.0014443535826549
 30
0.0
 11
10.02214413277852
 21
6.7718074599291631
 31
0.0
  0
LINE
  5
117
  8
0
 62
     0
 10
26.953178786463699
 20
24.586725590097672
 30
0.0
 11
28.953178786463919
 21
26.586725590097789
 31
0.0
  0
LINE
  5
118
  8
0
 62
     0
 10
13.99822929567619
 20
11.631776099310169
 30
0.0
 11
15.998229295675969
 21
13.63177609930983
 31
0.0
  0
LINE
  5
119
  8
0
 62
     0
 10
41.367257618903182
 20
39.000804422537158
 30
0.0
 11
43.135707278550619
 21
40.769254082184602
 31
0.0
  0
LINE
  5
11A
  8
0
 62
     0
 10
7.7926519319011041
 20
5.4261987355349666
 30
0.0
 11
9.5611015915498001
 21
7.1946483951837763
 31
0.0
  0
LINE
  5
11B
  8
0
 62
     0
 10
26.069295309980589
 20
24.586725590097672
 30
0.0
 11
28.069295309980589
 21
26.586725590097672
 31
0.0
  0
LINE
  5
11C
  8
0
 62
     0
 10
13.99822929567631
 20
12.515659575793279
 30
0.0
 11
15.998229295675969
 21
14.51565957579305
 31
0.0
  0
LINE
  5
11D
  8
0
 62
     0
 10
40.932122328805242
 20
39.449552608922318
 30
0.0
 11
42.699891093260362
 21
41.217321373377317
 31
0.0
  0
LINE
  5
11E
  8
0
 62
     0
 10
7.3445846407082618
 20
5.8620149208253451
 30
0.0
 11
9.1123534051646402
 21
7.6297836852817218
 31
0.0
  0
LINE
  5
11F
  8
0
 62
     0
 10
25.1854118334976
 20
24.586725590097789
 30
0.0
 11
27.185411833497479
 21
26.586725590097561
 31
0.0
  0
LINE
  5
120
  8
0
 62
     0
 10
13.99822929567631
 20
13.399543052276501
 30
0.0
 11
15.9982292956762
 21
15.39954305227638
 31
0.0
  0
LINE
  5
121
  8
0
 62
     0
 10
40.484708468338113
 20
39.886022224938188
 30
0.0
 11
42.253024607046648
 21
41.654338363646723
 31
0.0
  0
LINE
  5
122
  8
0
 62
     0
 10
6.907567650438863
 20
6.3088814070390518
 30
0.0
 11
8.6758837891486564
 21
8.0771975457488452
 31
0.0
  0
LINE
  5
123
  8
0
 62
     0
 10
24.301528357014149
 20
24.586725590097672
 30
0.0
 11
26.301528357014039
 21
26.586725590097561
 31
0.0
  0
LINE
  5
124
  8
0
 62
     0
 10
13.99822929567619
 20
14.283426528759721
 30
0.0
 11
15.998229295675969
 21
16.283426528759382
 31
0.0
  0
LINE
  5
125
  8
0
 62
     0
 10
40.025003349524923
 20
40.310200582608438
 30
0.0
 11
41.795098573595283
 21
42.080295806678798
 31
0.0
  0
LINE
  5
126
  8
0
 62
     0
 10
6.4816102074069022
 20
6.76680744049031
 30
0.0
 11
8.2517054314785128
 21
8.5369026645620352
 31
0.0
  0
LINE
  5
127
  8
0
 62
     0
 10
23.417644880530929
 20
24.586725590097672
 30
0.0
 11
25.417644880530929
 21
26.586725590097672
 31
0.0
  0
LINE
  5
128
  8
0
 62
     0
 10
13.99822929567619
 20
15.16731000524282
 30
0.0
 11
15.99822929567585
 21
17.167310005242602
 31
0.0
  0
LINE
  5
129
  8
0
 62
     0
 10
39.552965664394037
 20
40.722046373960779
 30
0.0
 11
41.32608291084955
 21
42.495163620416172
 31
0.0
  0
LINE
  5
12A
  8
0
 62
     0
 10
6.0667423936693012
 20
7.2358231032360427
 30
0.0
 11
7.8398596401260638
 21
9.0089403496928071
 31
0.0
  0
LINE
  5
12B
  8
0
 62
     0
 10
22.53376140404805
 20
24.586725590097789
 30
0.0
 11
24.53376140404794
 21
26.586725590097561
 31
0.0
  0
LINE
  5
12C
  8
0
 62
     0
 10
13.99822929567631
 20
16.051193481726042
 30
0.0
 11
15.9982292956762
 21
18.051193481725932
 31
0.0
  0
LINE
  5
12D
  8
0
 62
     0
 10
39.068525002265581
 20
41.121489188315309
 30
0.0
 11
40.845926416789659
 21
42.898890602839401
 31
0.0
  0
LINE
  5
12E
  8
0
 62
     0
 10
5.663015411246306
 20
7.7159795972959273
 30
0.0
 11
7.4404168257716492
 21
9.4933810118213842
 31
0.0
  0
LINE
  5
12F
  8
0
 62
     0
 10
21.649877927564599
 20
24.586725590097672
 30
0.0
 11
23.649877927564599
 21
26.586725590097672
 31
0.0
  0
LINE
  5
130
  8
0
 62
     0
 10
13.99822929567619
 20
16.935076958209262
 30
0.0
 11
15.998229295675969
 21
18.935076958208921
 31
0.0
  0
LINE
  5
131
  8
0
 62
     0
 10
38.571581018618872
 20
41.508428681151933
 30
0.0
 11
40.354556281711893
 21
43.291403944244962
 31
0.0
  0
LINE
  5
132
  8
0
 62
     0
 10
5.2705020698407452
 20
8.2073497323737001
 30
0.0
 11
7.0534773329350173
 21
9.9903249954680842
 31
0.0
  0
LINE
  5
133
  8
0
 62
     0
 10
20.765994451081379
 20
24.586725590097561
 30
0.0
 11
22.765994451081379
 21
26.586725590097672
 31
0.0
  0
LINE
  5
134
  8
0
 62
     0
 10
13.99822929567619
 20
17.818960434692482
 30
0.0
 11
15.998229295676079
 21
19.818960434692261
 31
0.0
  0
LINE
  5
135
  8
0
 62
     0
 10
38.062002232408418
 20
41.882733371424699
 30
0.0
 11
39.851877386069987
 21
43.672608525086282
 31
0.0
  0
LINE
  5
136
  8
0
 62
     0
 10
4.8892974889993184
 20
8.7100286280154933
 30
0.0
 11
6.6791726426621381
 21
10.49990378167843
 31
0.0
  0
LINE
  5
137
  8
0
 62
     0
 10
19.882110974598501
 20
24.586725590097789
 30
0.0
 11
21.88211097459839
 21
26.586725590097561
 31
0.0
  0
LINE
  5
138
  8
0
 62
     0
 10
13.99822929567631
 20
18.702843911175592
 30
0.0
 11
15.998229295675969
 21
20.70284391117525
 31
0.0
  0
LINE
  5
139
  8
0
 62
     0
 10
37.53962441762372
 20
42.244239033122867
 30
0.0
 11
39.337771367865571
 21
44.042385983364852
 31
0.0
  0
LINE
  5
13A
  8
0
 62
     0
 10
4.5195200307208552
 20
9.2241346462201363
 30
0.0
 11
6.3176669809640771
 21
11.022281596463239
 31
0.0
  0
LINE
  5
13B
  8
0
 62
     0
 10
18.99822749811505
 20
24.586725590097672
 30
0.0
 11
20.99822749811506
 21
26.586725590097672
 31
0.0
  0
LINE
  5
13C
  8
0
 62
     0
 10
13.99822929567619
 20
19.586727387658811
 30
0.0
 11
15.998229295675969
 21
21.586727387658581
 31
0.0
  0
LINE
  5
13D
  8
0
 62
     0
 10
37.00424854205869
 20
42.592746634041298
 30
0.0
 11
38.812095437827217
 21
44.400593529809832
 31
0.0
  0
LINE
  5
13E
  8
0
 62
     0
 10
4.1613124842758671
 20
9.7498105762584828
 30
0.0
 11
5.9691593800456531
 21
11.55765747202827
 31
0.0
  0
LINE
  5
13F
  8
0
 62
     0
 10
18.11434402163184
 20
24.586725590097561
 30
0.0
 11
20.11434402163184
 21
26.586725590097672
 31
0.0
  0
LINE
  5
140
  8
0
 62
     0
 10
13.99822929567619
 20
20.470610864142031
 30
0.0
 11
15.998229295676079
 21
22.470610864141811
 31
0.0
  0
LINE
  5
141
  8
0
 62
     0
 10
36.45563819086977
 20
42.928019759335591
 30
0.0
 11
38.27468091393871
 21
44.747062482404431
 31
0.0
  0
LINE
  5
142
  8
0
 62
     0
 10
3.8148435316810492
 20
10.28722510014688
 30
0.0
 11
5.6338862547512463
 21
12.106267823217079
 31
0.0
  0
LINE
  5
143
  8
0
 62
     0
 10
17.23046054514862
 20
24.586725590097451
 30
0.0
 11
19.230460545148961
 21
26.586725590097789
 31
0.0
  0
LINE
  5
144
  8
0
 62
     0
 10
13.99822929567665
 20
21.354494340625479
 30
0.0
 11
15.998229295675969
 21
23.3544943406248
 31
0.0
  0
LINE
  5
145
  8
0
 62
     0
 10
35.893516393594609
 20
43.249781438543437
 30
0.0
 11
37.725331438931903
 21
45.08159648388061
 31
0.0
  0
LINE
  5
146
  8
0
 62
     0
 10
3.480309530204976
 20
10.836574575153801
 30
0.0
 11
5.3121245755435211
 21
12.66838962049235
 31
0.0
  0
LINE
  5
147
  8
0
 62
     0
 10
16.346577068665511
 20
24.586725590097672
 30
0.0
 11
18.346577068665511
 21
26.586725590097672
 31
0.0
  0
LINE
  5
148
  8
0
 62
     0
 10
13.99822929567654
 20
22.238377817108699
 30
0.0
 11
15.998229295676079
 21
24.238377817108251
 31
0.0
  0
LINE
  5
149
  8
0
 62
     0
 10
35.317561749599349
 20
43.55771027103151
 30
0.0
 11
37.163820834732412
 21
45.403969356164559
 31
0.0
  0
LINE
  5
14A
  8
0
 62
     0
 10
3.1579366579211401
 20
11.3980851793533
 30
0.0
 11
5.0041957430554467
 21
13.24434426448749
 31
0.0
  0
LINE
  5
14B
  8
0
 62
     0
 10
13.99822929567654
 20
23.122261293591809
 30
0.0
 11
17.462693592182291
 21
26.586725590097672
 31
0.0
  0
LINE
  5
14C
  8
0
 62
     0
 10
34.727403716615761
 20
43.851435714531128
 30
0.0
 11
36.589890535999757
 21
45.713922533915138
 31
0.0
  0
LINE
  5
14D
  8
0
 62
     0
 10
2.8479834801704551
 20
11.972015478085719
 30
0.0
 11
4.7104702995557091
 21
13.83450229747109
 31
0.0
  0
LINE
  5
14E
  8
0
 62
     0
 10
13.99822929567665
 20
24.006144770075029
 30
0.0
 11
16.578810115699412
 21
26.586725590097789
 31
0.0
  0
LINE
  5
14F
  8
0
 62
     0
 10
34.122616887696381
 20
44.130532362094748
 30
0.0
 11
36.003246530076581
 21
46.011162004474841
 31
0.0
  0
LINE
  5
150
  8
0
 62
     0
 10
2.5507440096107521
 20
12.558659484009119
 30
0.0
 11
4.4313736519922031
 21
14.43928912639058
 31
0.0
  0
LINE
  5
151
  8
0
 62
     0
 10
13.99822929567654
 20
24.890028246558249
 30
0.0
 11
15.694926639215961
 21
26.586725590097672
 31
0.0
  0
LINE
  5
152
  8
0
 62
     0
 10
33.502714030121751
 20
44.394512981003459
 30
0.0
 11
35.4035557119388
 21
46.2953546628205
 31
0.0
  0
LINE
  5
153
  8
0
 62
     0
 10
2.266551351265206
 20
13.158350302146911
 30
0.0
 11
4.1673930330834992
 21
15.059191983965199
 31
0.0
  0
LINE
  5
154
  8
0
 62
     0
 10
13.99822929567654
 20
25.773911723041351
 30
0.0
 11
14.811043162732741
 21
26.586725590097672
 31
0.0
  0
LINE
  5
155
  8
0
 62
     0
 10
32.867137590601942
 20
44.642820017966869
 30
0.0
 11
34.790441538754983
 21
46.566123966119903
 31
0.0
  0
LINE
  5
156
  8
0
 62
     0
 10
1.99578204796569
 20
13.771464475330619
 30
0.0
 11
3.919085996119974
 21
15.6947684234849
 31
0.0
  0
LINE
  5
157
  8
0
 62
     0
 10
32.215249277368123
 20
44.874815181216043
 30
0.0
 11
34.16347883760227
 21
46.823044741450069
 31
0.0
  0
LINE
  5
158
  8
0
 62
     0
 10
1.738861272635517
 20
14.398427176483439
 30
0.0
 11
3.6870908328709211
 21
16.346656736718838
 31
0.0
  0
LINE
  5
159
  8
0
 62
     0
 10
31.54631720090094
 20
45.08976658123219
 30
0.0
 11
33.522187579236181
 21
47.065636959567421
 31
0.0
  0
LINE
  5
15A
  8
0
 62
     0
 10
1.4962690545182791
 20
15.039718434849419
 30
0.0
 11
3.4721394328547599
 21
17.01558881318601
 31
0.0
  0
LINE
  5
15B
  8
0
 62
     0
 10
30.859499875179491
 20
45.286832731993968
 30
0.0
 11
32.866025376949551
 21
47.293358233764017
 31
0.0
  0
LINE
  5
15C
  8
0
 62
     0
 10
1.268547780321569
 20
15.695880637135931
 30
0.0
 11
3.2750732820928761
 21
17.702406138907349
 31
0.0
  0
LINE
  5
15D
  8
0
 62
     0
 10
30.153826126064821
 20
45.465042459362387
 30
0.0
 11
32.19437839732155
 21
47.505594730619002
 31
0.0
  0
LINE
  5
15E
  8
0
 62
     0
 10
1.0563112834664701
 20
16.36752761676405
 30
0.0
 11
3.0968635547244499
 21
18.40807988802203
 31
0.0
  0
LINE
  5
15F
  8
0
 62
     0
 10
29.428169584659031
 20
45.623269394439831
 30
0.0
 11
31.506550271585979
 21
47.701650081366779
 31
0.0
  0
LINE
  5
160
  8
0
 62
     0
 10
0.8602559327188146
 20
17.055355742499611
 30
0.0
 11
2.9386366196471272
 21
19.13373642942793
 31
0.0
  0
LINE
  5
161
  8
0
 62
     0
 10
28.681215900048869
 20
45.760199186312882
 30
0.0
 11
30.801748461290462
 21
47.880731747554478
 31
0.0
  0
LINE
  5
162
  8
0
 62
     0
 10
0.6811742665311158
 20
17.760157552795128
 30
0.0
 11
2.801706827773955
 21
19.880690114037971
 31
0.0
  0
LINE
  5
163
  8
0
 62
     0
 10
27.91141998742637
 20
45.874286750173489
 30
0.0
 11
30.079067343203981
 21
48.041934105950979
 31
0.0
  0
LINE
  5
164
  8
0
 62
     0
 10
0.5199719081344938
 20
18.48283867088162
 30
0.0
 11
2.6876192639133469
 21
20.65048602666047
 31
0.0
  0
LINE
  5
165
  8
0
 62
     0
 10
27.116949364557851
 20
45.9636996037882
 30
0.0
 11
29.3374670104239
 21
48.184217249654118
 31
0.0
  0
LINE
  5
166
  8
0
 62
     0
 10
0.3776887644314684
 20
19.224439003661811
 30
0.0
 11
2.598206410298757
 21
21.4449566495291
 31
0.0
  0
LINE
  5
167
  8
0
 62
     0
 10
26.295607626157341
 20
46.0262413418709
 30
0.0
 11
28.57574639923871
 21
48.306380114952283
 31
0.0
  0
LINE
  5
168
  8
0
 62
     0
 10
0.2555258991333176
 20
19.98615961484688
 30
0.0
 11
2.535664672215943
 21
22.26629838792951
 31
0.0
  0
LINE
  5
169
  8
0
 62
     0
 10
25.44472882694356
 20
46.059246019140232
 30
0.0
 11
27.792508780239359
 21
48.407025972436031
 31
0.0
  0
LINE
  5
16A
  8
0
 62
     0
 10
0.1548800416494487
 20
20.769397233846121
 30
0.0
 11
2.5026599949466108
 21
23.11717718714328
 31
0.0
  0
LINE
  5
16B
  8
0
 62
     0
 10
24.561027982187969
 20
46.059428650867851
 30
0.0
 11
26.986116791917659
 21
48.484517460597552
 31
0.0
  0
LINE
  5
16C
  8
0
 62
     0
 10
0.0773885534881629
 20
21.575789222168059
 30
0.0
 11
2.5024773632190991
 21
24.000878031898999
 31
0.0
  0
LINE
  5
16D
  8
0
 62
     0
 10
23.640383057895971
 20
46.022667203059079
 30
0.0
 11
26.154632867108951
 21
48.536917012272049
 31
0.0
  0
LINE
  5
16E
  8
0
 62
     0
 10
0.0249890018134238
 20
22.407273146976539
 30
0.0
 11
2.5392388110277571
 21
24.92152295619087
 31
0.0
  0
LINE
  5
16F
  8
0
 62
     0
 10
22.677505551102168
 20
45.943673172748269
 30
0.0
 11
25.29573879592613
 21
48.561906417572338
 31
0.0
  0
LINE
  5
170
  8
0
 62
     0
 10
-0.0000004034867516
 20
23.26616721815935
 30
0.0
 11
2.6182328413385672
 21
25.884400462984679
 31
0.0
  0
LINE
  5
171
  8
0
 62
     0
 10
21.665420768433929
 20
45.815471866563371
 30
0.0
 11
24.4066247204529
 21
48.556675818582328
 31
0.0
  0
LINE
  5
172
  8
0
 62
     0
 10
0.0052301955033727
 20
24.155281293632701
 30
0.0
 11
2.7464341475235861
 21
26.896485245653029
 31
0.0
  0
LINE
  5
173
  8
0
 62
     0
 10
20.59460274064406
 20
45.628537315256601
 30
0.0
 11
23.483832005842029
 21
48.517766580454577
 31
0.0
  0
LINE
  5
174
  8
0
 62
     0
 10
0.0441394336309031
 20
25.078074008243561
 30
0.0
 11
2.9333686988302361
 21
27.967303273442781
 31
0.0
  0
LINE
  5
175
  8
0
 62
     0
 10
19.451432350205319
 20
45.369250401301088
 30
0.0
 11
22.523024083670069
 21
48.44084213476583
 31
0.0
  0
LINE
  5
176
  8
0
 62
     0
 10
0.1210638793197631
 20
26.03888193041541
 30
0.0
 11
3.1926556127857562
 21
29.110473663881521
 31
0.0
  0
LINE
  5
177
  8
0
 62
     0
 10
18.215188372857028
 20
45.016889900435892
 30
0.0
 11
21.518640137565171
 21
48.320341665144042
 31
0.0
  0
LINE
  5
178
  8
0
 62
     0
 10
0.2415643489415515
 20
27.04326587652054
 30
0.0
 11
3.5450161136510578
 21
30.34671764122993
 31
0.0
  0
LINE
  5
179
  8
0
 62
     0
 10
16.851380975889349
 20
44.53696597995156
 30
0.0
 11
20.46334862335107
 21
48.14893362741315
 31
0.0
  0
LINE
  5
17A
  8
0
 62
     0
 10
0.4129723866723225
 20
28.098557390734531
 30
0.0
 11
4.024940034135283
 21
31.710525038197488
 31
0.0
  0
LINE
  5
17B
  8
0
 62
     0
 10
15.29382955725521
 20
43.863298037800519
 30
0.0
 11
19.347137442893541
 21
47.91660592343873
 31
0.0
  0
LINE
  5
17C
  8
0
 62
     0
 10
0.6453000906467424
 20
29.21476857119206
 30
0.0
 11
4.6986079762863247
 21
33.268076456831523
 31
0.0
  0
LINE
  5
17D
  8
0
 62
     0
 10
13.376493449251599
 20
42.829845406280128
 30
0.0
 11
18.155691933464588
 21
47.609043890493012
 31
0.0
  0
LINE
  5
17E
  8
0
 62
     0
 10
0.9528621235925811
 20
30.406214080621108
 30
0.0
 11
5.7320606078068286
 21
35.18541256483536
 31
0.0
  0
LINE
  5
17F
  8
0
 62
     0
 10
9.9860467107359892
 20
40.323282144247742
 30
0.0
 11
16.867228690343261
 21
47.204464123854912
 31
0.0
  0
LINE
  5
180
  8
0
 62
     0
 10
1.3574418902305749
 20
31.694677323742329
 30
0.0
 11
8.2386238698391026
 21
38.57585930335086
 31
0.0
  0
LINE
  5
181
  8
0
 62
     0
 10
1.89530831821844
 20
33.116427228213297
 30
0.0
 11
15.4454787858723
 21
46.666597695867146
 31
0.0
  0
LINE
  5
182
  8
0
 62
     0
 10
2.6360853017623631
 20
34.741087688240441
 30
0.0
 11
13.820818325845259
 21
45.92582071232323
 31
0.0
  0
LINE
  5
183
  8
0
 62
     0
 10
3.7545475900736842
 20
36.743433453034982
 30
0.0
 11
11.81847256105061
 21
44.807358424011802
 31
0.0
  0
LINE
  5
184
  8
0
 62
     0
 10
6.4235608651642897
 20
40.296330204608687
 30
0.0
 11
8.2655758094768998
 21
42.138345148921303
 31
0.0
  0
ENDBLK
  5
186
  8
0
  0
ENDSEC
  0
SECTION
  2
ENTITIES
  0
POLYLINE
  5
A5
  8
0
 62
     0
 66
     1
 10
0.0
 20
0.0
 30
0.0
 70
     1
  0
VERTEX
  5
1A1
  8
0
 62
     0
 10
301.7591626226785
 20
673.35311266603969
 30
0.0
 42
-0.4142135623730397
  0
VERTEX
  5
1A2
  8
0
 62
     0
 10
302.05916262267829
 20
673.05311266603951
 30
0.0
  0
VERTEX
  5
1A3
  8
0
 62
     0
 10
302.05916262267851
 20
651.90581350196885
 30
0.0
 42
-0.3006219721112937
  0
VERTEX
  5
1A4
  8
0
 62
     0
 10
301.87673019024493
 20
651.62981011964041
 30
0.0
 42
-0.0075227612153629
  0
VERTEX
  5
1A5
  8
0
 62
     0
 10
301.2499520963629
 20
651.37389601958819
 30
0.0
 42
0.3088431844455956
  0
VERTEX
  5
1A6
  8
0
 62
     0
 10
301.05916262267851
 20
651.09448044925989
 30
0.0
  0
VERTEX
  5
1A7
  8
0
 62
     0
 10
301.05916262267851
 20
649.06635815646314
 30
0.0
 42
0.5185463530188577
  0
VERTEX
  5
1A8
  8
0
 62
     0
 10
301.45997233927687
 20
648.78380302725782
 30
0.0
 42
5.7787597153910131
  0
VERTEX
  5
1A9
  8
0
 62
     0
 10
284.6583529060772
 20
648.78380302733194
 30
0.0
 42
0.5185463530217317
  0
VERTEX
  5
1AA
  8
0
 62
     0
 10
285.05916262267812
 20
649.06635815653635
 30
0.0
  0
VERTEX
  5
1AB
  8
0
 62
     0
 10
285.05916262267829
 20
651.09448044934572
 30
0.0
 42
0.3088431844426803
  0
VERTEX
  5
1AC
  8
0
 62
     0
 10
284.8683731489968
 20
651.37389601967288
 30
0.0
 42
-0.0075227612154579
  0
VERTEX
  5
1AD
  8
0
 62
     0
 10
284.24159505510897
 20
651.62981011973329
 30
0.0
 42
-0.3006219721085271
  0
VERTEX
  5
1AE
  8
0
 62
     0
 10
284.05916262267829
 20
651.90581350206025
 30
0.0
  0
VERTEX
  5
1AF
  8
0
 62
     0
 10
284.05916262267829
 20
673.05311266603951
 30
0.0
 42
-0.4142135623730396
  0
VERTEX
  5
1B0
  8
0
 62
     0
 10
284.35916262267801
 20
673.35311266603969
 30
0.0
  0
SEQEND
  5
1B1
  8
0
 62
     0
  0
POLYLINE
  5
A6
  8
0
 62
     0
 66
     1
 10
0.0
 20
0.0
 30
0.0
 70
     1
  0
VERTEX
  5
1B2
  8
0
 62
     0
 10
282.0591626226788
 20
675.05311266603962
 30
0.0
 42
-0.4142135623729841
  0
VERTEX
  5
1B3
  8
0
 62
     0
 10
282.35916262267841
 20
675.35311266603981
 30
0.0
  0
VERTEX
  5
1B4
  8
0
 62
     0
 10
303.7591626226785
 20
675.35311266603981
 30
0.0
 42
-0.4142135623729841
  0
VERTEX
  5
1B5
  8
0
 62
     0
 10
304.05916262267851
 20
675.05311266603962
 30
0.0
  0
VERTEX
  5
1B6
  8
0
 62
     0
 10
304.05916262267829
 20
653.22116534346765
 30
0.0
 42
0.5808336319801509
  0
VERTEX
  5
1B7
  8
0
 62
     0
 10
304.51186532537957
 20
652.96293698602472
 30
0.0
 42
3.6556547301517508
  0
VERTEX
  5
1B8
  8
0
 62
     0
 10
281.60645991997262
 20
652.96293698615023
 30
0.0
 42
0.5808336319838693
  0
VERTEX
  5
1B9
  8
0
 62
     0
 10
282.05916262267829
 20
653.22116534359452
 30
0.0
  0
SEQEND
  5
1BA
  8
0
 62
     0
  0
ENDSEC
  0
EOF
