  0
SECTION
  2
HEADER
  9
$ACADVER
  1
AC1012
  9
$DWGCODEPAGE
  3
ANSI_1252
  9
$INSBASE
 10
0.0
 20
0.0
 30
0.0
  9
$EXTMIN
 10
-783.0624565262859
 20
-133.3778864702263
 30
0.0
  9
$EXTMAX
 10
-573.0624565262859
 20
134.0246080447053
 30
0.0
  9
$LIMMIN
 10
0.0
 20
0.0
  9
$LIMMAX
 10
0.0
 20
0.0
  9
$ORTHOMODE
 70
     0
  9
$REGENMODE
 70
     1
  9
$FILLMODE
 70
     1
  9
$QTEXTMODE
 70
     0
  9
$MIRRTEXT
 70
     1
  9
$DRAGMODE
 70
     2
  9
$LTSCALE
 40
1.0
  9
$OSMODE
 70
   447
  9
$ATTMODE
 70
     1
  9
$TEXTSIZE
 40
0.0
  9
$TRACEWID
 40
0.05
  9
$TEXTSTYLE
  7
STANDARD
  9
$CLAYER
  8
0
  9
$CELTYPE
  6
CONTINUOUS
  9
$CECOLOR
 62
   256
  9
$CELTSCALE
 40
1.0
  9
$DELOBJ
 70
     1
  9
$DISPSILH
 70
     0
  9
$DIMSCALE
 40
1.0
  9
$DIMASZ
 40
2.0
  9
$DIMEXO
 40
0.0625
  9
$DIMDLI
 40
0.38
  9
$DIMRND
 40
0.0
  9
$DIMDLE
 40
0.0
  9
$DIMEXE
 40
0.18
  9
$DIMTP
 40
0.0
  9
$DIMTM
 40
0.0
  9
$DIMTXT
 40
2.5
  9
$DIMCEN
 40
0.09
  9
$DIMTSZ
 40
0.0
  9
$DIMTOL
 70
     0
  9
$DIMLIM
 70
     0
  9
$DIMTIH
 70
     0
  9
$DIMTOH
 70
     0
  9
$DIMSE1
 70
     0
  9
$DIMSE2
 70
     0
  9
$DIMTAD
 70
     1
  9
$DIMZIN
 70
     0
  9
$DIMBLK
  1

  9
$DIMASO
 70
     1
  9
$DIMSHO
 70
     1
  9
$DIMPOST
  1

  9
$DIMAPOST
  1

  9
$DIMALT
 70
     0
  9
$DIMALTD
 70
     2
  9
$DIMALTF
 40
25.4
  9
$DIMLFAC
 40
0.333333333333333
  9
$DIMTOFL
 70
     0
  9
$DIMTVP
 40
0.0
  9
$DIMTIX
 70
     0
  9
$DIMSOXD
 70
     0
  9
$DIMSAH
 70
     0
  9
$DIMBLK1
  1

  9
$DIMBLK2
  1

  9
$DIMSTYLE
  2
STANDARD
  9
$DIMCLRD
 70
     5
  9
$DIMCLRE
 70
     5
  9
$DIMCLRT
 70
     5
  9
$DIMTFAC
 40
1.0
  9
$DIMGAP
 40
0.9975000000000001
  9
$DIMJUST
 70
     0
  9
$DIMSD1
 70
     0
  9
$DIMSD2
 70
     0
  9
$DIMTOLJ
 70
     1
  9
$DIMTZIN
 70
     0
  9
$DIMALTZ
 70
     0
  9
$DIMALTTZ
 70
     0
  9
$DIMFIT
 70
     3
  9
$DIMUPT
 70
     0
  9
$DIMUNIT
 70
     2
  9
$DIMDEC
 70
     1
  9
$DIMTDEC
 70
     1
  9
$DIMALTU
 70
     2
  9
$DIMALTTD
 70
     2
  9
$DIMTXSTY
  7
ROMANT
  9
$DIMAUNIT
 70
     0
  9
$LUNITS
 70
     2
  9
$LUPREC
 70
     4
  9
$SKETCHINC
 40
0.1
  9
$FILLETRAD
 40
1.0
  9
$AUNITS
 70
     0
  9
$AUPREC
 70
     0
  9
$MENU
  1
acad
  9
$ELEVATION
 40
0.0
  9
$PELEVATION
 40
0.0
  9
$THICKNESS
 40
0.0
  9
$LIMCHECK
 70
     0
  9
$BLIPMODE
 70
     0
  9
$CHAMFERA
 40
1.0
  9
$CHAMFERB
 40
1.0
  9
$CHAMFERC
 40
0.0
  9
$CHAMFERD
 40
0.0
  9
$SKPOLY
 70
     0
  9
$TDCREATE
 40
2444972.125000000
  9
$TDUPDATE
 40
2453546.757607893
  9
$TDINDWG
 40
1.7182636806
  9
$TDUSRTIMER
 40
1.7182636806
  9
$USRTIMER
 70
     1
  9
$ANGBASE
 50
0.0
  9
$ANGDIR
 70
     0
  9
$PDMODE
 70
     0
  9
$PDSIZE
 40
0.0
  9
$PLINEWID
 40
0.0
  9
$COORDS
 70
     2
  9
$SPLFRAME
 70
     0
  9
$SPLINETYPE
 70
     6
  9
$SPLINESEGS
 70
     8
  9
$ATTDIA
 70
     0
  9
$ATTREQ
 70
     1
  9
$HANDLING
 70
-16383
  9
$HANDSEED
  5
DF34
  9
$SURFTAB1
 70
     6
  9
$SURFTAB2
 70
     6
  9
$SURFTYPE
 70
     6
  9
$SURFU
 70
     6
  9
$SURFV
 70
     6
  9
$UCSNAME
  2

  9
$UCSORG
 10
0.0
 20
0.0
 30
0.0
  9
$UCSXDIR
 10
1.0
 20
0.0
 30
0.0
  9
$UCSYDIR
 10
0.0
 20
1.0
 30
0.0
  9
$PUCSNAME
  2

  9
$PUCSORG
 10
0.0
 20
0.0
 30
0.0
  9
$PUCSXDIR
 10
1.0
 20
0.0
 30
0.0
  9
$PUCSYDIR
 10
0.0
 20
1.0
 30
0.0
  9
$USERI1
 70
     0
  9
$USERI2
 70
     0
  9
$USERI3
 70
     0
  9
$USERI4
 70
     0
  9
$USERI5
 70
     0
  9
$USERR1
 40
0.0
  9
$USERR2
 40
0.0
  9
$USERR3
 40
0.0
  9
$USERR4
 40
0.0
  9
$USERR5
 40
0.0
  9
$WORLDVIEW
 70
     1
  9
$SHADEDGE
 70
     3
  9
$SHADEDIF
 70
    70
  9
$TILEMODE
 70
     1
  9
$MAXACTVP
 70
    16
  9
$PINSBASE
 10
0.0
 20
0.0
 30
0.0
  9
$PLIMCHECK
 70
     0
  9
$PEXTMIN
 10
1.000000000000000E+20
 20
1.000000000000000E+20
 30
1.000000000000000E+20
  9
$PEXTMAX
 10
-1.000000000000000E+20
 20
-1.000000000000000E+20
 30
-1.000000000000000E+20
  9
$PLIMMIN
 10
0.0
 20
0.0
  9
$PLIMMAX
 10
12.0
 20
9.0
  9
$UNITMODE
 70
     0
  9
$VISRETAIN
 70
     0
  9
$PLINEGEN
 70
     0
  9
$PSLTSCALE
 70
     0
  9
$TREEDEPTH
 70
  3020
  9
$PICKSTYLE
 70
     1
  9
$CMLSTYLE
  2
STANDARD
  9
$CMLJUST
 70
     0
  9
$CMLSCALE
 40
1.0
  9
$SAVEIMAGES
 70
     1
  0
ENDSEC
  0
SECTION
  2
CLASSES
  0
CLASS
  1
LWPOLYLINE
  2
AcDbPolyline
  3
AutoCAD 2000
 90
    32768
280
     0
281
     1
  0
CLASS
  1
IMAGE
  2
AcDbRasterImage
  3
ISM
 90
    32895
280
     0
281
     1
  0
CLASS
  1
OLE2FRAME
  2
AcDbOle2Frame
  3
AutoCAD 2000
 90
    32768
280
     0
281
     1
  0
CLASS
  1
HATCH
  2
AcDbHatch
  3
AutoCAD 2000
 90
    32768
280
     0
281
     1
  0
CLASS
  1
DICTIONARYVAR
  2
AcDbDictionaryVar
  3
AutoCAD 2000
 90
    32768
280
     0
281
     0
  0
CLASS
  1
RASTERVARIABLES
  2
AcDbRasterVariables
  3
ISM
 90
    32768
280
     0
281
     0
  0
CLASS
  1
IMAGEDEF
  2
AcDbRasterImageDef
  3
ISM
 90
    32768
280
     0
281
     0
  0
CLASS
  1
IMAGEDEF_REACTOR
  2
AcDbRasterImageDefReactor
  3
ISM
 90
    32769
280
     0
281
     0
  0
CLASS
  1
IDBUFFER
  2
AcDbIdBuffer
  3
AutoCAD 2000
 90
    32768
280
     0
281
     0
  0
CLASS
  1
SPATIAL_FILTER
  2
AcDbSpatialFilter
  3
AutoCAD 2000
 90
    32768
280
     0
281
     0
  0
CLASS
  1
XRECORD
  2
AcDbXrecord
  3
AutoCAD 2000
 90
    32768
280
     0
281
     0
  0
CLASS
  1
SORTENTSTABLE
  2
AcDbSortentsTable
  3
AutoCAD 2000
 90
    32768
280
     0
281
     0
  0
CLASS
  1
LAYER_INDEX
  2
AcDbLayerIndex
  3
AutoCAD 2000
 90
    32768
280
     0
281
     0
  0
CLASS
  1
SPATIAL_INDEX
  2
AcDbSpatialIndex
  3
AutoCAD 2000
 90
    32768
280
     0
281
     0
  0
CLASS
  1
OBJECT_PTR
  2
CAseDLPNTableRecord
  3
"ASE-LPNTableRecord"
 90
    32768
280
     0
281
     0
  0
CLASS
  1
LAYOUT
  2
AcDbLayout
  3
AutoCAD 2000
 90
    32768
280
     0
281
     0
  0
CLASS
  1
PLOTSETTINGS
  2
AcDbPlotSettings
  3
AutoCAD 2000
 90
    32768
280
     0
281
     0
  0
CLASS
  1
ACDBDICTIONARYWDFLT
  2
AcDbDictionaryWithDefault
  3
AutoCAD 2000
 90
    32768
280
     0
281
     0
  0
CLASS
  1
ACDBPLACEHOLDER
  2
AcDbPlaceHolder
  3
AutoCAD 2000
 90
    32768
280
     0
281
     0
  0
CLASS
  1
VBA_PROJECT
  2
AcDbVbaProject
  3
"acadvba"
 90
    32768
280
     0
281
     0
  0
CLASS
  1
WIPEOUT
  2
AcDbWipeout
  3
WipeOut|AutoCAD Express Tool|expresstools@autodesk.com
 90
    32768
280
     0
281
     1
  0
CLASS
  1
WIPEOUTVARIABLES
  2
AcDbWipeoutVariables
  3
WipeOut|AutoCAD Express Tool|expresstools@autodesk.com
 90
    32768
280
     0
281
     0
  0
CLASS
  1
RTEXT
  2
RText
  3
RText|AutoCAD Express Tool|expresstools@autodesk.com
 90
    32768
280
     0
281
     1
  0
CLASS
  1
ARCALIGNEDTEXT
  2
AcDbArcAlignedText
  3
ATEXT|AutoCAD Express Tool|expresstools@autodesk.com
 90
    32768
280
     0
281
     1
  0
CLASS
  1
LONG_TRANSACTION
  2
AcDbLongTransaction
  3
AutoCAD 2000
 90
    32768
280
     0
281
     0
  0
CLASS
  1
LWPOLYLINE
  2
AcDbPolyline
  3
AutoCAD 2000
 90
    32768
280
     0
281
     1
  0
CLASS
  1
HATCH
  2
AcDbHatch
  3
AutoCAD 2000
 90
    32768
280
     0
281
     1
  0
CLASS
  1
XRECORD
  2
AcDbXrecord
  3
AutoCAD 2000
 90
    32768
280
     0
281
     0
  0
ENDSEC
  0
SECTION
  2
TABLES
  0
TABLE
  2
VPORT
  5
7
330
0
100
AcDbSymbolTable
 70
     3
  0
VPORT
  5
1F
330
7
100
AcDbSymbolTableRecord
100
AcDbViewportTableRecord
  2
DCADVPORT
 70
     0
 10
-156.7322689246958
 20
-75.13546852332912
 11
208.0207233351361
 21
176.1122858231787
 12
6.209999999999999
 22
9.019999999999999
 13
0.0
 23
0.0
 14
1.0
 24
1.0
 15
0.0
 25
0.0
 16
0.0
 26
0.0
 36
1.0
 17
0.0
 27
0.0
 37
0.0
 40
18.04
 41
0.688564
 42
50.0
 43
1.0
 44
1.0
 50
0.0
 51
0.0
 71
     0
 72
   100
 73
     1
 74
     1
 75
     0
 76
     0
 77
     0
 78
     0
  0
VPORT
  5
DF28
330
7
100
AcDbSymbolTableRecord
100
AcDbViewportTableRecord
  2
*ACTIVE
 70
     0
 10
0.0
 20
0.0
 11
1.0
 21
1.0
 12
-620.0005262069399
 22
77.84210581490913
 13
0.0
 23
0.0
 14
1.0
 24
1.0
 15
0.0
 25
0.0
 16
0.0
 26
0.0
 36
1.0
 17
0.0
 27
0.0
 37
0.0
 40
82.47812568701169
 41
1.436233611442193
 42
50.0
 43
0.0
 44
0.0
 50
0.0
 51
0.0
 71
     0
 72
   100
 73
     1
 74
     1
 75
     0
 76
     0
 77
     0
 78
     0
  0
ENDTAB
  0
TABLE
  2
LTYPE
  5
4
330
0
100
AcDbSymbolTable
 70
     1
  0
LTYPE
  5
11
330
4
100
AcDbSymbolTableRecord
100
AcDbLinetypeTableRecord
  2
BYBLOCK
 70
     0
  3

 72
    65
 73
     0
 40
0.0
  0
LTYPE
  5
12
330
4
100
AcDbSymbolTableRecord
100
AcDbLinetypeTableRecord
  2
BYLAYER
 70
     0
  3

 72
    65
 73
     0
 40
0.0
  0
LTYPE
  5
13
330
4
100
AcDbSymbolTableRecord
100
AcDbLinetypeTableRecord
  2
CONTINUOUS
 70
     0
  3
Solid line
 72
    65
 73
     0
 40
0.0
  0
ENDTAB
  0
TABLE
  2
LAYER
  5
2
330
0
100
AcDbSymbolTable
 70
     4
  0
LAYER
  5
14
330
2
100
AcDbSymbolTableRecord
100
AcDbLayerTableRecord
  2
0
 70
     0
 62
     7
  6
CONTINUOUS
  0
LAYER
  5
925
330
2
100
AcDbSymbolTableRecord
100
AcDbLayerTableRecord
  2
DEFPOINTS
 70
     0
 62
     7
  6
CONTINUOUS
  0
LAYER
  5
3986
330
2
100
AcDbSymbolTableRecord
100
AcDbLayerTableRecord
  2
ANA
 70
     0
 62
   220
  6
CONTINUOUS
  0
LAYER
  5
3987
330
2
100
AcDbSymbolTableRecord
100
AcDbLayerTableRecord
  2
ANTET
 70
     0
 62
   220
  6
CONTINUOUS
  0
ENDTAB
  0
TABLE
  2
STYLE
  5
3
330
0
100
AcDbSymbolTable
 70
     2
  0
STYLE
  5
17
330
3
100
AcDbSymbolTableRecord
100
AcDbTextStyleTableRecord
  2
STANDARD
 70
     0
 40
0.0
 41
1.0
 50
0.0
 71
     0
 42
0.0
  3
txt
  4

  0
STYLE
  5
3988
330
3
100
AcDbSymbolTableRecord
100
AcDbTextStyleTableRecord
  2
ROMANT
 70
     0
 40
2.5
 41
1.0
 50
15.0
 71
     0
 42
2.5
  3
C:\ACADR13\COMMON\FONTS\romant.shx
  4

  0
ENDTAB
  0
TABLE
  2
VIEW
  5
5
330
0
100
AcDbSymbolTable
 70
     0
  0
ENDTAB
  0
TABLE
  2
UCS
  5
6
330
0
100
AcDbSymbolTable
 70
     0
  0
ENDTAB
  0
TABLE
  2
APPID
  5
8
330
0
100
AcDbSymbolTable
 70
     1
  0
APPID
  5
16
330
8
100
AcDbSymbolTableRecord
100
AcDbRegAppTableRecord
  2
ACAD
 70
     0
  0
ENDTAB
  0
TABLE
  2
DIMSTYLE
  5
9
330
0
100
AcDbSymbolTable
 70
     1
  0
DIMSTYLE
105
18
330
9
100
AcDbSymbolTableRecord
100
AcDbDimStyleTableRecord
  2
STANDARD
 70
     0
  3

  4

  5

  6

  7

 40
1.0
 41
0.18
 42
0.0625
 43
0.38
 44
0.18
 45
0.0
 46
0.0
 47
0.0
 48
0.0
140
0.18
141
0.09
142
0.0
143
25.4
144
1.0
145
0.0
146
1.0
147
0.09
 71
     0
 72
     0
 73
     1
 74
     1
 75
     0
 76
     0
 77
     0
 78
     0
170
     0
171
     2
172
     0
173
     0
174
     0
175
     0
176
     0
177
     0
178
     0
270
     2
271
     4
272
     4
273
     2
274
     2
340
17
275
     0
280
     0
281
     0
282
     0
283
     1
284
     0
285
     0
286
     0
287
     0
288
     0
  0
ENDTAB
  0
TABLE
  2
BLOCK_RECORD
  5
1
330
0
100
AcDbSymbolTable
 70
    10
  0
BLOCK_RECORD
  5
A
102
{ACAD_XDICTIONARY
360
DF29
102
}
330
1
100
AcDbSymbolTableRecord
100
AcDbBlockTableRecord
  2
*MODEL_SPACE
  0
BLOCK_RECORD
  5
B
102
{ACAD_XDICTIONARY
360
DF2B
102
}
330
1
100
AcDbSymbolTableRecord
100
AcDbBlockTableRecord
  2
*PAPER_SPACE
  0
BLOCK_RECORD
  5
380F
330
1
100
AcDbSymbolTableRecord
100
AcDbBlockTableRecord
  2
*X0
  0
BLOCK_RECORD
  5
DE7A
330
1
100
AcDbSymbolTableRecord
100
AcDbBlockTableRecord
  2
*D1
  0
BLOCK_RECORD
  5
DE87
330
1
100
AcDbSymbolTableRecord
100
AcDbBlockTableRecord
  2
*D2
  0
BLOCK_RECORD
  5
DE95
330
1
100
AcDbSymbolTableRecord
100
AcDbBlockTableRecord
  2
*D3
  0
BLOCK_RECORD
  5
DEA0
330
1
100
AcDbSymbolTableRecord
100
AcDbBlockTableRecord
  2
*D4
  0
BLOCK_RECORD
  5
DEAD
330
1
100
AcDbSymbolTableRecord
100
AcDbBlockTableRecord
  2
*D5
  0
BLOCK_RECORD
  5
DEBA
330
1
100
AcDbSymbolTableRecord
100
AcDbBlockTableRecord
  2
*D6
  0
BLOCK_RECORD
  5
DEC5
330
1
100
AcDbSymbolTableRecord
100
AcDbBlockTableRecord
  2
*D7
  0
BLOCK_RECORD
  5
DED0
330
1
100
AcDbSymbolTableRecord
100
AcDbBlockTableRecord
  2
*D8
  0
BLOCK_RECORD
  5
DED9
330
1
100
AcDbSymbolTableRecord
100
AcDbBlockTableRecord
  2
*D9
  0
ENDTAB
  0
ENDSEC
  0
SECTION
  2
BLOCKS
  0
BLOCK
  5
D
330
A
100
AcDbEntity
  8
0
100
AcDbBlockBegin
  2
*MODEL_SPACE
 70
     0
 10
0.0
 20
0.0
 30
0.0
  3
*MODEL_SPACE
  1

  0
ENDBLK
  5
E
330
A
100
AcDbEntity
  8
0
100
AcDbBlockEnd
  0
BLOCK
  5
F
330
B
100
AcDbEntity
 67
     1
  8
0
100
AcDbBlockBegin
  2
*PAPER_SPACE
 70
     0
 10
0.0
 20
0.0
 30
0.0
  3
*PAPER_SPACE
  1

  0
ENDBLK
  5
10
330
B
100
AcDbEntity
 67
     1
  8
0
100
AcDbBlockEnd
  0
BLOCK
  5
3984
330
380F
100
AcDbEntity
  8
0
100
AcDbBlockBegin
  2
*X0
 70
     1
 10
0.0
 20
0.0
 30
0.0
  3
*X0
  1

  0
LINE
  5
3810
330
380F
100
AcDbEntity
  8
0
 62
     0
100
AcDbLine
 10
119.6249999999999
 20
30.73434161302726
 30
0.0
 11
119.6249999999999
 21
31.73434161302726
 31
0.0
  0
LINE
  5
3811
330
380F
100
AcDbEntity
  8
0
 62
     0
100
AcDbLine
 10
119.6249999999999
 20
50.73434161302725
 30
0.0
 11
119.6249999999999
 21
51.73434161302726
 31
0.0
  0
LINE
  5
3812
330
380F
100
AcDbEntity
  8
0
 62
     0
100
AcDbLine
 10
119.6249999999999
 20
34.23389329927631
 30
0.0
 11
119.6249999999999
 21
39.78358833883456
 31
0.0
  0
LINE
  5
3813
330
380F
100
AcDbEntity
  8
0
 62
     0
100
AcDbLine
 10
119.6249999999999
 20
42.36292722007112
 30
0.0
 11
119.6249999999999
 21
48.39196114086594
 31
0.0
  0
LINE
  5
3814
330
380F
100
AcDbEntity
  8
0
 62
     0
100
AcDbLine
 10
119.4374999999999
 20
30.73434161302726
 30
0.0
 11
119.4374999999999
 21
31.73434161302726
 31
0.0
  0
LINE
  5
3815
330
380F
100
AcDbEntity
  8
0
 62
     0
100
AcDbLine
 10
119.4374999999999
 20
50.73434161302725
 30
0.0
 11
119.4374999999999
 21
51.73434161302726
 31
0.0
  0
LINE
  5
3816
330
380F
100
AcDbEntity
  8
0
 62
     0
100
AcDbLine
 10
119.4374999999999
 20
34.23389329927631
 30
0.0
 11
119.4374999999999
 21
39.4588288124154
 31
0.0
  0
LINE
  5
3817
330
380F
100
AcDbEntity
  8
0
 62
     0
100
AcDbLine
 10
119.4374999999999
 20
42.36292722007112
 30
0.0
 11
119.4374999999999
 21
48.39196114086594
 31
0.0
  0
LINE
  5
3818
330
380F
100
AcDbEntity
  8
0
 62
     0
100
AcDbLine
 10
119.2499999999999
 20
30.73434161302726
 30
0.0
 11
119.2499999999999
 21
31.73434161302726
 31
0.0
  0
LINE
  5
3819
330
380F
100
AcDbEntity
  8
0
 62
     0
100
AcDbLine
 10
119.2499999999999
 20
50.73434161302725
 30
0.0
 11
119.2499999999999
 21
51.73434161302726
 31
0.0
  0
LINE
  5
381A
330
380F
100
AcDbEntity
  8
0
 62
     0
100
AcDbLine
 10
119.2499999999999
 20
34.23389329927631
 30
0.0
 11
119.2499999999999
 21
39.13406928599623
 31
0.0
  0
LINE
  5
381B
330
380F
100
AcDbEntity
  8
0
 62
     0
100
AcDbLine
 10
119.2499999999999
 20
42.36292722007112
 30
0.0
 11
119.2499999999999
 21
48.39196114086594
 31
0.0
  0
LINE
  5
381C
330
380F
100
AcDbEntity
  8
0
 62
     0
100
AcDbLine
 10
119.0624999999999
 20
30.73434161302726
 30
0.0
 11
119.0624999999999
 21
31.73434161302726
 31
0.0
  0
LINE
  5
381D
330
380F
100
AcDbEntity
  8
0
 62
     0
100
AcDbLine
 10
119.0624999999999
 20
50.73434161302725
 30
0.0
 11
119.0624999999999
 21
51.73434161302726
 31
0.0
  0
LINE
  5
381E
330
380F
100
AcDbEntity
  8
0
 62
     0
100
AcDbLine
 10
119.0624999999999
 20
34.23389329927631
 30
0.0
 11
119.0624999999999
 21
38.80930975957706
 31
0.0
  0
LINE
  5
381F
330
380F
100
AcDbEntity
  8
0
 62
     0
100
AcDbLine
 10
119.0624999999999
 20
42.36292722007112
 30
0.0
 11
119.0624999999999
 21
48.39196114086594
 31
0.0
  0
LINE
  5
3820
330
380F
100
AcDbEntity
  8
0
 62
     0
100
AcDbLine
 10
118.8749999999999
 20
30.73434161302726
 30
0.0
 11
118.8749999999999
 21
31.73434161302726
 31
0.0
  0
LINE
  5
3821
330
380F
100
AcDbEntity
  8
0
 62
     0
100
AcDbLine
 10
118.8749999999999
 20
50.73434161302725
 30
0.0
 11
118.8749999999999
 21
51.73434161302726
 31
0.0
  0
LINE
  5
3822
330
380F
100
AcDbEntity
  8
0
 62
     0
100
AcDbLine
 10
118.8749999999999
 20
34.23389329927631
 30
0.0
 11
118.8749999999999
 21
38.48455023315789
 31
0.0
  0
LINE
  5
3823
330
380F
100
AcDbEntity
  8
0
 62
     0
100
AcDbLine
 10
118.8749999999999
 20
42.36292722007112
 30
0.0
 11
118.8749999999999
 21
48.39196114086594
 31
0.0
  0
LINE
  5
3824
330
380F
100
AcDbEntity
  8
0
 62
     0
100
AcDbLine
 10
118.8749999999999
 20
40.08455023785443
 30
0.0
 11
118.8749999999999
 21
40.44130420998858
 31
0.0
  0
LINE
  5
3825
330
380F
100
AcDbEntity
  8
0
 62
     0
100
AcDbLine
 10
118.6874999999999
 20
30.73434161302726
 30
0.0
 11
118.6874999999999
 21
31.73434161302726
 31
0.0
  0
LINE
  5
3826
330
380F
100
AcDbEntity
  8
0
 62
     0
100
AcDbLine
 10
118.6874999999999
 20
50.73434161302725
 30
0.0
 11
118.6874999999999
 21
51.73434161302726
 31
0.0
  0
LINE
  5
3827
330
380F
100
AcDbEntity
  8
0
 62
     0
100
AcDbLine
 10
118.6874999999999
 20
34.23389329927631
 30
0.0
 11
118.6874999999999
 21
38.15979070673873
 31
0.0
  0
LINE
  5
3828
330
380F
100
AcDbEntity
  8
0
 62
     0
100
AcDbLine
 10
118.6874999999999
 20
42.41926881554642
 30
0.0
 11
118.6874999999999
 21
48.39196114086594
 31
0.0
  0
LINE
  5
3829
330
380F
100
AcDbEntity
  8
0
 62
     0
100
AcDbLine
 10
118.6874999999999
 20
39.75979071181569
 30
0.0
 11
118.6874999999999
 21
40.76606373625941
 31
0.0
  0
LINE
  5
382A
330
380F
100
AcDbEntity
  8
0
 62
     0
100
AcDbLine
 10
118.4999999999999
 20
30.73434161302726
 30
0.0
 11
118.4999999999999
 21
31.73434161302726
 31
0.0
  0
LINE
  5
382B
330
380F
100
AcDbEntity
  8
0
 62
     0
100
AcDbLine
 10
118.4999999999999
 20
50.73434161302725
 30
0.0
 11
118.4999999999999
 21
51.73434161302726
 31
0.0
  0
LINE
  5
382C
330
380F
100
AcDbEntity
  8
0
 62
     0
100
AcDbLine
 10
118.4999999999999
 20
34.23389329927631
 30
0.0
 11
118.4999999999999
 21
37.83503118031956
 31
0.0
  0
LINE
  5
382D
330
380F
100
AcDbEntity
  8
0
 62
     0
100
AcDbLine
 10
118.4999999999999
 20
42.69082325982261
 30
0.0
 11
118.4999999999999
 21
48.39196114086594
 31
0.0
  0
LINE
  5
382E
330
380F
100
AcDbEntity
  8
0
 62
     0
100
AcDbLine
 10
118.4999999999999
 20
39.43503118577694
 30
0.0
 11
118.4999999999999
 21
41.09082326253024
 31
0.0
  0
LINE
  5
382F
330
380F
100
AcDbEntity
  8
0
 62
     0
100
AcDbLine
 10
118.3124999999999
 20
30.73434161302726
 30
0.0
 11
118.3124999999999
 21
31.73434161302726
 31
0.0
  0
LINE
  5
3830
330
380F
100
AcDbEntity
  8
0
 62
     0
100
AcDbLine
 10
118.3124999999999
 20
50.73434161302725
 30
0.0
 11
118.3124999999999
 21
51.73434161302726
 31
0.0
  0
LINE
  5
3831
330
380F
100
AcDbEntity
  8
0
 62
     0
100
AcDbLine
 10
118.3124999999999
 20
34.23389329927631
 30
0.0
 11
118.3124999999999
 21
37.51027165390039
 31
0.0
  0
LINE
  5
3832
330
380F
100
AcDbEntity
  8
0
 62
     0
100
AcDbLine
 10
118.3124999999999
 20
43.01558278624178
 30
0.0
 11
118.3124999999999
 21
48.39196114086594
 31
0.0
  0
LINE
  5
3833
330
380F
100
AcDbEntity
  8
0
 62
     0
100
AcDbLine
 10
118.3124999999999
 20
39.1102716597382
 30
0.0
 11
118.3124999999999
 21
41.41558278880107
 31
0.0
  0
LINE
  5
3834
330
380F
100
AcDbEntity
  8
0
 62
     0
100
AcDbLine
 10
118.1249999999999
 20
30.73434161302726
 30
0.0
 11
118.1249999999999
 21
31.73434161302726
 31
0.0
  0
LINE
  5
3835
330
380F
100
AcDbEntity
  8
0
 62
     0
100
AcDbLine
 10
118.1249999999999
 20
50.73434161302725
 30
0.0
 11
118.1249999999999
 21
51.73434161302726
 31
0.0
  0
LINE
  5
3836
330
380F
100
AcDbEntity
  8
0
 62
     0
100
AcDbLine
 10
118.1249999999999
 20
34.23389329927631
 30
0.0
 11
118.1249999999999
 21
37.18551212748122
 31
0.0
  0
LINE
  5
3837
330
380F
100
AcDbEntity
  8
0
 62
     0
100
AcDbLine
 10
118.1249999999999
 20
43.34034231266095
 30
0.0
 11
118.1249999999999
 21
48.39196114086594
 31
0.0
  0
LINE
  5
3838
330
380F
100
AcDbEntity
  8
0
 62
     0
100
AcDbLine
 10
118.1249999999999
 20
38.78551213369945
 30
0.0
 11
118.1249999999999
 21
41.7403423150719
 31
0.0
  0
LINE
  5
3839
330
380F
100
AcDbEntity
  8
0
 62
     0
100
AcDbLine
 10
117.9374999999999
 20
30.73434161302726
 30
0.0
 11
117.9374999999999
 21
31.73434161302726
 31
0.0
  0
LINE
  5
383A
330
380F
100
AcDbEntity
  8
0
 62
     0
100
AcDbLine
 10
117.9374999999999
 20
50.73434161302725
 30
0.0
 11
117.9374999999999
 21
51.73434161302726
 31
0.0
  0
LINE
  5
383B
330
380F
100
AcDbEntity
  8
0
 62
     0
100
AcDbLine
 10
117.9374999999999
 20
34.23389329927631
 30
0.0
 11
117.9374999999999
 21
36.86075260106206
 31
0.0
  0
LINE
  5
383C
330
380F
100
AcDbEntity
  8
0
 62
     0
100
AcDbLine
 10
117.9374999999999
 20
43.66510183908012
 30
0.0
 11
117.9374999999999
 21
48.39196114086594
 31
0.0
  0
LINE
  5
383D
330
380F
100
AcDbEntity
  8
0
 62
     0
100
AcDbLine
 10
117.9374999999999
 20
38.46075260766071
 30
0.0
 11
117.9374999999999
 21
42.06510184134273
 31
0.0
  0
LINE
  5
383E
330
380F
100
AcDbEntity
  8
0
 62
     0
100
AcDbLine
 10
117.7499999999999
 20
30.73434161302726
 30
0.0
 11
117.7499999999999
 21
31.73434161302726
 31
0.0
  0
LINE
  5
383F
330
380F
100
AcDbEntity
  8
0
 62
     0
100
AcDbLine
 10
117.7499999999999
 20
50.73434161302725
 30
0.0
 11
117.7499999999999
 21
51.73434161302726
 31
0.0
  0
LINE
  5
3840
330
380F
100
AcDbEntity
  8
0
 62
     0
100
AcDbLine
 10
117.7499999999999
 20
34.23389329927631
 30
0.0
 11
117.7499999999999
 21
36.53599307464288
 31
0.0
  0
LINE
  5
3841
330
380F
100
AcDbEntity
  8
0
 62
     0
100
AcDbLine
 10
117.7499999999999
 20
43.98986136549929
 30
0.0
 11
117.7499999999999
 21
48.39196114086594
 31
0.0
  0
LINE
  5
3842
330
380F
100
AcDbEntity
  8
0
 62
     0
100
AcDbLine
 10
117.7499999999999
 20
38.13599308162197
 30
0.0
 11
117.7499999999999
 21
42.38986136761356
 31
0.0
  0
LINE
  5
3843
330
380F
100
AcDbEntity
  8
0
 62
     0
100
AcDbLine
 10
117.5624999999999
 20
30.73434161302726
 30
0.0
 11
117.5624999999999
 21
31.73434161302726
 31
0.0
  0
LINE
  5
3844
330
380F
100
AcDbEntity
  8
0
 62
     0
100
AcDbLine
 10
117.5624999999999
 20
50.73434161302725
 30
0.0
 11
117.5624999999999
 21
51.73434161302726
 31
0.0
  0
LINE
  5
3845
330
380F
100
AcDbEntity
  8
0
 62
     0
100
AcDbLine
 10
117.5624999999999
 20
34.23389329927631
 30
0.0
 11
117.5624999999999
 21
36.21123354822372
 31
0.0
  0
LINE
  5
3846
330
380F
100
AcDbEntity
  8
0
 62
     0
100
AcDbLine
 10
117.5624999999999
 20
44.31462089191845
 30
0.0
 11
117.5624999999999
 21
48.39196114086594
 31
0.0
  0
LINE
  5
3847
330
380F
100
AcDbEntity
  8
0
 62
     0
100
AcDbLine
 10
117.5624999999999
 20
37.81123355558323
 30
0.0
 11
117.5624999999999
 21
42.71462089388439
 31
0.0
  0
LINE
  5
3848
330
380F
100
AcDbEntity
  8
0
 62
     0
100
AcDbLine
 10
117.3749999999999
 20
30.73434161302726
 30
0.0
 11
117.3749999999999
 21
31.73434161302726
 31
0.0
  0
LINE
  5
3849
330
380F
100
AcDbEntity
  8
0
 62
     0
100
AcDbLine
 10
117.3749999999999
 20
50.73434161302725
 30
0.0
 11
117.3749999999999
 21
51.73434161302726
 31
0.0
  0
LINE
  5
384A
330
380F
100
AcDbEntity
  8
0
 62
     0
100
AcDbLine
 10
117.3749999999999
 20
34.23389329927631
 30
0.0
 11
117.3749999999999
 21
35.88647402180455
 31
0.0
  0
LINE
  5
384B
330
380F
100
AcDbEntity
  8
0
 62
     0
100
AcDbLine
 10
117.3749999999999
 20
44.63938041833762
 30
0.0
 11
117.3749999999999
 21
48.39196114086594
 31
0.0
  0
LINE
  5
384C
330
380F
100
AcDbEntity
  8
0
 62
     0
100
AcDbLine
 10
117.3749999999999
 20
37.48647402954448
 30
0.0
 11
117.3749999999999
 21
43.03938042015523
 31
0.0
  0
LINE
  5
384D
330
380F
100
AcDbEntity
  8
0
 62
     0
100
AcDbLine
 10
117.1874999999999
 20
30.73434161302726
 30
0.0
 11
117.1874999999999
 21
31.73434161302726
 31
0.0
  0
LINE
  5
384E
330
380F
100
AcDbEntity
  8
0
 62
     0
100
AcDbLine
 10
117.1874999999999
 20
50.73434161302725
 30
0.0
 11
117.1874999999999
 21
51.73434161302726
 31
0.0
  0
LINE
  5
384F
330
380F
100
AcDbEntity
  8
0
 62
     0
100
AcDbLine
 10
117.1874999999999
 20
34.23389329927631
 30
0.0
 11
117.1874999999999
 21
35.56171449538538
 31
0.0
  0
LINE
  5
3850
330
380F
100
AcDbEntity
  8
0
 62
     0
100
AcDbLine
 10
117.1874999999999
 20
44.9641399447568
 30
0.0
 11
117.1874999999999
 21
48.39196114086594
 31
0.0
  0
LINE
  5
3851
330
380F
100
AcDbEntity
  8
0
 62
     0
100
AcDbLine
 10
117.1874999999999
 20
37.16171450350574
 30
0.0
 11
117.1874999999999
 21
43.36413994642605
 31
0.0
  0
LINE
  5
3852
330
380F
100
AcDbEntity
  8
0
 62
     0
100
AcDbLine
 10
116.9999999999999
 20
30.73434161302726
 30
0.0
 11
116.9999999999999
 21
31.73434161302726
 31
0.0
  0
LINE
  5
3853
330
380F
100
AcDbEntity
  8
0
 62
     0
100
AcDbLine
 10
116.9999999999999
 20
50.73434161302725
 30
0.0
 11
116.9999999999999
 21
51.73434161302726
 31
0.0
  0
LINE
  5
3854
330
380F
100
AcDbEntity
  8
0
 62
     0
100
AcDbLine
 10
116.9999999999999
 20
34.23389329927631
 30
0.0
 11
116.9999999999999
 21
35.23695496896622
 31
0.0
  0
LINE
  5
3855
330
380F
100
AcDbEntity
  8
0
 62
     0
100
AcDbLine
 10
116.9999999999999
 20
45.28889947117597
 30
0.0
 11
116.9999999999999
 21
48.39196114086594
 31
0.0
  0
LINE
  5
3856
330
380F
100
AcDbEntity
  8
0
 62
     0
100
AcDbLine
 10
116.9999999999999
 20
36.83695497746699
 30
0.0
 11
116.9999999999999
 21
43.68889947269688
 31
0.0
  0
LINE
  5
3857
330
380F
100
AcDbEntity
  8
0
 62
     0
100
AcDbLine
 10
116.8124999999999
 20
30.73434161302726
 30
0.0
 11
116.8124999999999
 21
31.73434161302726
 31
0.0
  0
LINE
  5
3858
330
380F
100
AcDbEntity
  8
0
 62
     0
100
AcDbLine
 10
116.8124999999999
 20
50.73434161302725
 30
0.0
 11
116.8124999999999
 21
51.73434161302726
 31
0.0
  0
LINE
  5
3859
330
380F
100
AcDbEntity
  8
0
 62
     0
100
AcDbLine
 10
116.8124999999999
 20
34.23389329927631
 30
0.0
 11
116.8124999999999
 21
34.91219544254705
 31
0.0
  0
LINE
  5
385A
330
380F
100
AcDbEntity
  8
0
 62
     0
100
AcDbLine
 10
116.8124999999999
 20
45.61365899759514
 30
0.0
 11
116.8124999999999
 21
48.38373565494333
 31
0.0
  0
LINE
  5
385B
330
380F
100
AcDbEntity
  8
0
 62
     0
100
AcDbLine
 10
116.8124999999999
 20
36.51219545142825
 30
0.0
 11
116.8124999999999
 21
44.01365899896771
 31
0.0
  0
LINE
  5
385C
330
380F
100
AcDbEntity
  8
0
 62
     0
100
AcDbLine
 10
116.6249999999999
 20
30.73434161302726
 30
0.0
 11
116.6249999999999
 21
31.73434161302726
 31
0.0
  0
LINE
  5
385D
330
380F
100
AcDbEntity
  8
0
 62
     0
100
AcDbLine
 10
116.6249999999999
 20
50.73434161302725
 30
0.0
 11
116.6249999999999
 21
51.73434161302726
 31
0.0
  0
LINE
  5
385E
330
380F
100
AcDbEntity
  8
0
 62
     0
100
AcDbLine
 10
116.6249999999999
 20
34.23389329927631
 30
0.0
 11
116.6249999999999
 21
34.59269753062041
 31
0.0
  0
LINE
  5
385F
330
380F
100
AcDbEntity
  8
0
 62
     0
100
AcDbLine
 10
116.6249999999999
 20
45.9384185240143
 30
0.0
 11
116.6249999999999
 21
48.34088760946108
 31
0.0
  0
LINE
  5
3860
330
380F
100
AcDbEntity
  8
0
 62
     0
100
AcDbLine
 10
116.6249999999999
 20
36.18743592538951
 30
0.0
 11
116.6249999999999
 21
44.33841852523854
 31
0.0
  0
LINE
  5
3861
330
380F
100
AcDbEntity
  8
0
 62
     0
100
AcDbLine
 10
116.4374999999999
 20
30.73434161302726
 30
0.0
 11
116.4374999999999
 21
31.73434161302726
 31
0.0
  0
LINE
  5
3862
330
380F
100
AcDbEntity
  8
0
 62
     0
100
AcDbLine
 10
116.4374999999999
 20
50.73434161302725
 30
0.0
 11
116.4374999999999
 21
51.73434161302726
 31
0.0
  0
LINE
  5
3863
330
380F
100
AcDbEntity
  8
0
 62
     0
100
AcDbLine
 10
116.4374999999999
 20
34.23389329927631
 30
0.0
 11
116.4374999999999
 21
34.44874299145622
 31
0.0
  0
LINE
  5
3864
330
380F
100
AcDbEntity
  8
0
 62
     0
100
AcDbLine
 10
116.4374999999999
 20
46.26317805043347
 30
0.0
 11
116.4374999999999
 21
48.25624911302998
 31
0.0
  0
LINE
  5
3865
330
380F
100
AcDbEntity
  8
0
 62
     0
100
AcDbLine
 10
116.4374999999999
 20
35.86267639935076
 30
0.0
 11
116.4374999999999
 21
44.66317805150937
 31
0.0
  0
LINE
  5
3866
330
380F
100
AcDbEntity
  8
0
 62
     0
100
AcDbLine
 10
116.2499999999999
 20
30.73434161302726
 30
0.0
 11
116.2499999999999
 21
31.73434161302726
 31
0.0
  0
LINE
  5
3867
330
380F
100
AcDbEntity
  8
0
 62
     0
100
AcDbLine
 10
116.2499999999999
 20
50.73434161302725
 30
0.0
 11
116.2499999999999
 21
51.73434161302726
 31
0.0
  0
LINE
  5
3868
330
380F
100
AcDbEntity
  8
0
 62
     0
100
AcDbLine
 10
116.2499999999999
 20
34.23389329927631
 30
0.0
 11
116.2499999999999
 21
34.33758771320932
 31
0.0
  0
LINE
  5
3869
330
380F
100
AcDbEntity
  8
0
 62
     0
100
AcDbLine
 10
116.2499999999999
 20
46.58793757685264
 30
0.0
 11
116.2499999999999
 21
48.11529609429651
 31
0.0
  0
LINE
  5
386A
330
380F
100
AcDbEntity
  8
0
 62
     0
100
AcDbLine
 10
116.2499999999999
 20
35.53791687331202
 30
0.0
 11
116.2499999999999
 21
44.98793757778019
 31
0.0
  0
LINE
  5
386B
330
380F
100
AcDbEntity
  8
0
 62
     0
100
AcDbLine
 10
116.0624999999999
 20
30.73434161302726
 30
0.0
 11
116.0624999999999
 21
31.73434161302726
 31
0.0
  0
LINE
  5
386C
330
380F
100
AcDbEntity
  8
0
 62
     0
100
AcDbLine
 10
116.0624999999999
 20
50.73434161302725
 30
0.0
 11
116.0624999999999
 21
51.73434161302726
 31
0.0
  0
LINE
  5
386D
330
380F
100
AcDbEntity
  8
0
 62
     0
100
AcDbLine
 10
116.0624999999999
 20
34.23389329927631
 30
0.0
 11
116.0624999999999
 21
34.25304788190206
 31
0.0
  0
LINE
  5
386E
330
380F
100
AcDbEntity
  8
0
 62
     0
100
AcDbLine
 10
116.0624999999999
 20
46.91329558864667
 30
0.0
 11
116.0624999999999
 21
47.87062669308522
 31
0.0
  0
LINE
  5
386F
330
380F
100
AcDbEntity
  8
0
 62
     0
100
AcDbLine
 10
116.0624999999999
 20
35.29731832849843
 30
0.0
 11
116.0624999999999
 21
45.31269710405103
 31
0.0
  0
LINE
  5
3870
330
380F
100
AcDbEntity
  8
0
 62
     0
100
AcDbLine
 10
115.8749999999999
 20
30.73434161302726
 30
0.0
 11
115.8749999999999
 21
31.73434161302726
 31
0.0
  0
LINE
  5
3871
330
380F
100
AcDbEntity
  8
0
 62
     0
100
AcDbLine
 10
115.8749999999999
 20
50.73434161302725
 30
0.0
 11
115.8749999999999
 21
51.73434161302726
 31
0.0
  0
LINE
  5
3872
330
380F
100
AcDbEntity
  8
0
 62
     0
100
AcDbLine
 10
115.8749999999999
 20
35.15800657298843
 30
0.0
 11
115.8749999999999
 21
45.63745663032186
 31
0.0
  0
LINE
  5
3873
330
380F
100
AcDbEntity
  8
0
 62
     0
100
AcDbLine
 10
115.6874999999999
 20
30.73434161302726
 30
0.0
 11
115.6874999999999
 21
31.73434161302726
 31
0.0
  0
LINE
  5
3874
330
380F
100
AcDbEntity
  8
0
 62
     0
100
AcDbLine
 10
115.6874999999999
 20
50.73434161302725
 30
0.0
 11
115.6874999999999
 21
51.73434161302726
 31
0.0
  0
LINE
  5
3875
330
380F
100
AcDbEntity
  8
0
 62
     0
100
AcDbLine
 10
115.6874999999999
 20
35.07447046157856
 30
0.0
 11
115.6874999999999
 21
45.96221615659269
 31
0.0
  0
LINE
  5
3876
330
380F
100
AcDbEntity
  8
0
 62
     0
100
AcDbLine
 10
115.4999999999999
 20
30.73434161302726
 30
0.0
 11
115.4999999999999
 21
31.73434161302726
 31
0.0
  0
LINE
  5
3877
330
380F
100
AcDbEntity
  8
0
 62
     0
100
AcDbLine
 10
115.4999999999999
 20
50.73434161302725
 30
0.0
 11
115.4999999999999
 21
51.73434161302726
 31
0.0
  0
LINE
  5
3878
330
380F
100
AcDbEntity
  8
0
 62
     0
100
AcDbLine
 10
115.4999999999999
 20
35.03252279226054
 30
0.0
 11
115.4999999999999
 21
46.28697568286352
 31
0.0
  0
LINE
  5
3879
330
380F
100
AcDbEntity
  8
0
 62
     0
100
AcDbLine
 10
115.3124999999999
 20
30.73434161302726
 30
0.0
 11
115.3124999999999
 21
31.73434161302726
 31
0.0
  0
LINE
  5
387A
330
380F
100
AcDbEntity
  8
0
 62
     0
100
AcDbLine
 10
115.3124999999999
 20
50.73434161302725
 30
0.0
 11
115.3124999999999
 21
51.73434161302726
 31
0.0
  0
LINE
  5
387B
330
380F
100
AcDbEntity
  8
0
 62
     0
100
AcDbLine
 10
115.3124999999999
 20
35.02690536785105
 30
0.0
 11
115.3124999999999
 21
46.61173520913435
 31
0.0
  0
LINE
  5
387C
330
380F
100
AcDbEntity
  8
0
 62
     0
100
AcDbLine
 10
115.1249999999999
 20
30.73434161302726
 30
0.0
 11
115.1249999999999
 21
31.73434161302726
 31
0.0
  0
LINE
  5
387D
330
380F
100
AcDbEntity
  8
0
 62
     0
100
AcDbLine
 10
115.1249999999999
 20
50.73434161302725
 30
0.0
 11
115.1249999999999
 21
51.73434161302726
 31
0.0
  0
LINE
  5
387E
330
380F
100
AcDbEntity
  8
0
 62
     0
100
AcDbLine
 10
115.1249999999999
 20
35.05698541235051
 30
0.0
 11
115.1249999999999
 21
46.93649473540518
 31
0.0
  0
LINE
  5
387F
330
380F
100
AcDbEntity
  8
0
 62
     0
100
AcDbLine
 10
114.9374999999999
 20
30.73434161302726
 30
0.0
 11
114.9374999999999
 21
31.73434161302726
 31
0.0
  0
LINE
  5
3880
330
380F
100
AcDbEntity
  8
0
 62
     0
100
AcDbLine
 10
114.9374999999999
 20
50.73434161302725
 30
0.0
 11
114.9374999999999
 21
51.73434161302726
 31
0.0
  0
LINE
  5
3881
330
380F
100
AcDbEntity
  8
0
 62
     0
100
AcDbLine
 10
114.9374999999999
 20
35.1263409750557
 30
0.0
 11
114.9374999999999
 21
47.54073586155272
 31
0.0
  0
LINE
  5
3882
330
380F
100
AcDbEntity
  8
0
 62
     0
100
AcDbLine
 10
114.7499999999999
 20
30.73434161302726
 30
0.0
 11
114.7499999999999
 21
31.73434161302726
 31
0.0
  0
LINE
  5
3883
330
380F
100
AcDbEntity
  8
0
 62
     0
100
AcDbLine
 10
114.7499999999999
 20
50.73434161302725
 30
0.0
 11
114.7499999999999
 21
51.73434161302726
 31
0.0
  0
LINE
  5
3884
330
380F
100
AcDbEntity
  8
0
 62
     0
100
AcDbLine
 10
114.7499999999999
 20
35.24538639737466
 30
0.0
 11
114.7499999999999
 21
47.21597633515672
 31
0.0
  0
LINE
  5
3885
330
380F
100
AcDbEntity
  8
0
 62
     0
100
AcDbLine
 10
114.5624999999999
 20
30.73434161302726
 30
0.0
 11
114.5624999999999
 21
31.73434161302726
 31
0.0
  0
LINE
  5
3886
330
380F
100
AcDbEntity
  8
0
 62
     0
100
AcDbLine
 10
114.5624999999999
 20
50.73434161302725
 30
0.0
 11
114.5624999999999
 21
51.73434161302726
 31
0.0
  0
LINE
  5
3887
330
380F
100
AcDbEntity
  8
0
 62
     0
100
AcDbLine
 10
114.5624999999999
 20
35.44390461668304
 30
0.0
 11
114.5624999999999
 21
46.89121680876072
 31
0.0
  0
LINE
  5
3888
330
380F
100
AcDbEntity
  8
0
 62
     0
100
AcDbLine
 10
114.3749999999999
 20
30.73434161302726
 30
0.0
 11
114.3749999999999
 21
31.73434161302726
 31
0.0
  0
LINE
  5
3889
330
380F
100
AcDbEntity
  8
0
 62
     0
100
AcDbLine
 10
114.3749999999999
 20
50.73434161302725
 30
0.0
 11
114.3749999999999
 21
51.73434161302726
 31
0.0
  0
LINE
  5
388A
330
380F
100
AcDbEntity
  8
0
 62
     0
100
AcDbLine
 10
114.3749999999999
 20
35.75939714825758
 30
0.0
 11
114.3749999999999
 21
46.56645728236473
 31
0.0
  0
LINE
  5
388B
330
380F
100
AcDbEntity
  8
0
 62
     0
100
AcDbLine
 10
114.1874999999999
 20
30.73434161302726
 30
0.0
 11
114.1874999999999
 21
31.73434161302726
 31
0.0
  0
LINE
  5
388C
330
380F
100
AcDbEntity
  8
0
 62
     0
100
AcDbLine
 10
114.1874999999999
 20
50.73434161302725
 30
0.0
 11
114.1874999999999
 21
51.73434161302726
 31
0.0
  0
LINE
  5
388D
330
380F
100
AcDbEntity
  8
0
 62
     0
100
AcDbLine
 10
114.1874999999999
 20
36.08415667527249
 30
0.0
 11
114.1874999999999
 21
46.24169775596873
 31
0.0
  0
LINE
  5
388E
330
380F
100
AcDbEntity
  8
0
 62
     0
100
AcDbLine
 10
113.9999999999999
 20
30.73434161302726
 30
0.0
 11
113.9999999999999
 21
31.73434161302726
 31
0.0
  0
LINE
  5
388F
330
380F
100
AcDbEntity
  8
0
 62
     0
100
AcDbLine
 10
113.9999999999999
 20
50.73434161302725
 30
0.0
 11
113.9999999999999
 21
51.73434161302726
 31
0.0
  0
LINE
  5
3890
330
380F
100
AcDbEntity
  8
0
 62
     0
100
AcDbLine
 10
113.9999999999999
 20
36.40891620228741
 30
0.0
 11
113.9999999999999
 21
45.91693822957273
 31
0.0
  0
LINE
  5
3891
330
380F
100
AcDbEntity
  8
0
 62
     0
100
AcDbLine
 10
113.8124999999999
 20
30.73434161302726
 30
0.0
 11
113.8124999999999
 21
31.73434161302726
 31
0.0
  0
LINE
  5
3892
330
380F
100
AcDbEntity
  8
0
 62
     0
100
AcDbLine
 10
113.8124999999999
 20
50.73434161302725
 30
0.0
 11
113.8124999999999
 21
51.73434161302726
 31
0.0
  0
LINE
  5
3893
330
380F
100
AcDbEntity
  8
0
 62
     0
100
AcDbLine
 10
113.8124999999999
 20
36.73367572930232
 30
0.0
 11
113.8124999999999
 21
45.59217870317673
 31
0.0
  0
LINE
  5
3894
330
380F
100
AcDbEntity
  8
0
 62
     0
100
AcDbLine
 10
113.6249999999999
 20
30.73434161302726
 30
0.0
 11
113.6249999999999
 21
31.73434161302726
 31
0.0
  0
LINE
  5
3895
330
380F
100
AcDbEntity
  8
0
 62
     0
100
AcDbLine
 10
113.6249999999999
 20
50.73434161302725
 30
0.0
 11
113.6249999999999
 21
51.73434161302726
 31
0.0
  0
LINE
  5
3896
330
380F
100
AcDbEntity
  8
0
 62
     0
100
AcDbLine
 10
113.6249999999999
 20
37.05843525631724
 30
0.0
 11
113.6249999999999
 21
45.26741917678073
 31
0.0
  0
LINE
  5
3897
330
380F
100
AcDbEntity
  8
0
 62
     0
100
AcDbLine
 10
113.4374999999999
 20
30.73434161302726
 30
0.0
 11
113.4374999999999
 21
31.73434161302726
 31
0.0
  0
LINE
  5
3898
330
380F
100
AcDbEntity
  8
0
 62
     0
100
AcDbLine
 10
113.4374999999999
 20
50.73434161302725
 30
0.0
 11
113.4374999999999
 21
51.73434161302726
 31
0.0
  0
LINE
  5
3899
330
380F
100
AcDbEntity
  8
0
 62
     0
100
AcDbLine
 10
113.4374999999999
 20
37.38319478333215
 30
0.0
 11
113.4374999999999
 21
44.94265965038473
 31
0.0
  0
LINE
  5
389A
330
380F
100
AcDbEntity
  8
0
 62
     0
100
AcDbLine
 10
113.2499999999999
 20
30.73434161302726
 30
0.0
 11
113.2499999999999
 21
31.73434161302726
 31
0.0
  0
LINE
  5
389B
330
380F
100
AcDbEntity
  8
0
 62
     0
100
AcDbLine
 10
113.2499999999999
 20
50.73434161302725
 30
0.0
 11
113.2499999999999
 21
51.73434161302726
 31
0.0
  0
LINE
  5
389C
330
380F
100
AcDbEntity
  8
0
 62
     0
100
AcDbLine
 10
113.2499999999999
 20
37.70795431034707
 30
0.0
 11
113.2499999999999
 21
44.61790012398874
 31
0.0
  0
LINE
  5
389D
330
380F
100
AcDbEntity
  8
0
 62
     0
100
AcDbLine
 10
113.0624999999999
 20
30.73434161302726
 30
0.0
 11
113.0624999999999
 21
31.73434161302726
 31
0.0
  0
LINE
  5
389E
330
380F
100
AcDbEntity
  8
0
 62
     0
100
AcDbLine
 10
113.0624999999999
 20
50.73434161302725
 30
0.0
 11
113.0624999999999
 21
51.73434161302726
 31
0.0
  0
LINE
  5
389F
330
380F
100
AcDbEntity
  8
0
 62
     0
100
AcDbLine
 10
113.0624999999999
 20
38.03271383736198
 30
0.0
 11
113.0624999999999
 21
44.29314059759273
 31
0.0
  0
LINE
  5
38A0
330
380F
100
AcDbEntity
  8
0
 62
     0
100
AcDbLine
 10
112.8749999999999
 20
30.73434161302726
 30
0.0
 11
112.8749999999999
 21
31.73434161302726
 31
0.0
  0
LINE
  5
38A1
330
380F
100
AcDbEntity
  8
0
 62
     0
100
AcDbLine
 10
112.8749999999999
 20
50.73434161302725
 30
0.0
 11
112.8749999999999
 21
51.73434161302726
 31
0.0
  0
LINE
  5
38A2
330
380F
100
AcDbEntity
  8
0
 62
     0
100
AcDbLine
 10
112.8749999999999
 20
38.35747336437689
 30
0.0
 11
112.8749999999999
 21
43.96838107119673
 31
0.0
  0
LINE
  5
38A3
330
380F
100
AcDbEntity
  8
0
 62
     0
100
AcDbLine
 10
112.6874999999999
 20
30.73434161302726
 30
0.0
 11
112.6874999999999
 21
31.73434161302726
 31
0.0
  0
LINE
  5
38A4
330
380F
100
AcDbEntity
  8
0
 62
     0
100
AcDbLine
 10
112.6874999999999
 20
50.73434161302725
 30
0.0
 11
112.6874999999999
 21
51.73434161302726
 31
0.0
  0
LINE
  5
38A5
330
380F
100
AcDbEntity
  8
0
 62
     0
100
AcDbLine
 10
112.6874999999999
 20
38.68223289139181
 30
0.0
 11
112.6874999999999
 21
43.64362154480074
 31
0.0
  0
LINE
  5
38A6
330
380F
100
AcDbEntity
  8
0
 62
     0
100
AcDbLine
 10
112.4999999999999
 20
30.73434161302726
 30
0.0
 11
112.4999999999999
 21
31.73434161302726
 31
0.0
  0
LINE
  5
38A7
330
380F
100
AcDbEntity
  8
0
 62
     0
100
AcDbLine
 10
112.4999999999999
 20
50.73434161302725
 30
0.0
 11
112.4999999999999
 21
51.73434161302726
 31
0.0
  0
LINE
  5
38A8
330
380F
100
AcDbEntity
  8
0
 62
     0
100
AcDbLine
 10
112.4999999999999
 20
39.00699241840672
 30
0.0
 11
112.4999999999999
 21
43.31886201840474
 31
0.0
  0
LINE
  5
38A9
330
380F
100
AcDbEntity
  8
0
 62
     0
100
AcDbLine
 10
112.3124999999999
 20
30.73434161302726
 30
0.0
 11
112.3124999999999
 21
31.73434161302726
 31
0.0
  0
LINE
  5
38AA
330
380F
100
AcDbEntity
  8
0
 62
     0
100
AcDbLine
 10
112.3124999999999
 20
50.73434161302725
 30
0.0
 11
112.3124999999999
 21
51.73434161302726
 31
0.0
  0
LINE
  5
38AB
330
380F
100
AcDbEntity
  8
0
 62
     0
100
AcDbLine
 10
112.3124999999999
 20
39.33175194542164
 30
0.0
 11
112.3124999999999
 21
42.99410249200874
 31
0.0
  0
LINE
  5
38AC
330
380F
100
AcDbEntity
  8
0
 62
     0
100
AcDbLine
 10
112.1249999999999
 20
30.73434161302726
 30
0.0
 11
112.1249999999999
 21
31.73434161302726
 31
0.0
  0
LINE
  5
38AD
330
380F
100
AcDbEntity
  8
0
 62
     0
100
AcDbLine
 10
112.1249999999999
 20
50.73434161302725
 30
0.0
 11
112.1249999999999
 21
51.73434161302726
 31
0.0
  0
LINE
  5
38AE
330
380F
100
AcDbEntity
  8
0
 62
     0
100
AcDbLine
 10
112.1249999999999
 20
39.65651147243655
 30
0.0
 11
112.1249999999999
 21
42.66934296561275
 31
0.0
  0
LINE
  5
38AF
330
380F
100
AcDbEntity
  8
0
 62
     0
100
AcDbLine
 10
111.9374999999999
 20
30.73434161302726
 30
0.0
 11
111.9374999999999
 21
31.73434161302726
 31
0.0
  0
LINE
  5
38B0
330
380F
100
AcDbEntity
  8
0
 62
     0
100
AcDbLine
 10
111.9374999999999
 20
50.73434161302725
 30
0.0
 11
111.9374999999999
 21
51.73434161302726
 31
0.0
  0
LINE
  5
38B1
330
380F
100
AcDbEntity
  8
0
 62
     0
100
AcDbLine
 10
111.9374999999999
 20
39.98127099945147
 30
0.0
 11
111.9374999999999
 21
42.34458343921675
 31
0.0
  0
LINE
  5
38B2
330
380F
100
AcDbEntity
  8
0
 62
     0
100
AcDbLine
 10
111.7499999999999
 20
30.73434161302726
 30
0.0
 11
111.7499999999999
 21
31.73434161302726
 31
0.0
  0
LINE
  5
38B3
330
380F
100
AcDbEntity
  8
0
 62
     0
100
AcDbLine
 10
111.7499999999999
 20
50.73434161302725
 30
0.0
 11
111.7499999999999
 21
51.73434161302726
 31
0.0
  0
LINE
  5
38B4
330
380F
100
AcDbEntity
  8
0
 62
     0
100
AcDbLine
 10
111.7499999999999
 20
40.30603052646639
 30
0.0
 11
111.7499999999999
 21
42.01982391282075
 31
0.0
  0
LINE
  5
38B5
330
380F
100
AcDbEntity
  8
0
 62
     0
100
AcDbLine
 10
111.5624999999999
 20
30.740674914095
 30
0.0
 11
111.5624999999999
 21
31.74492105275434
 31
0.0
  0
LINE
  5
38B6
330
380F
100
AcDbEntity
  8
0
 62
     0
100
AcDbLine
 10
111.5624999999999
 20
50.72376217330047
 30
0.0
 11
111.5624999999999
 21
51.72800831195969
 31
0.0
  0
LINE
  5
38B7
330
380F
100
AcDbEntity
  8
0
 62
     0
100
AcDbLine
 10
111.5624999999999
 20
40.6307900534813
 30
0.0
 11
111.5624999999999
 21
41.69506438642475
 31
0.0
  0
LINE
  5
38B8
330
380F
100
AcDbEntity
  8
0
 62
     0
100
AcDbLine
 10
111.3749999999999
 20
30.76118006092885
 30
0.0
 11
111.3749999999999
 21
31.77951239185461
 31
0.0
  0
LINE
  5
38B9
330
380F
100
AcDbEntity
  8
0
 62
     0
100
AcDbLine
 10
111.3749999999999
 20
50.6891708342002
 30
0.0
 11
111.3749999999999
 21
51.70750316512584
 31
0.0
  0
LINE
  5
38BA
330
380F
100
AcDbEntity
  8
0
 62
     0
100
AcDbLine
 10
111.1874999999999
 20
30.79623373596523
 30
0.0
 11
111.1874999999999
 21
31.83993492192459
 31
0.0
  0
LINE
  5
38BB
330
380F
100
AcDbEntity
  8
0
 62
     0
100
AcDbLine
 10
111.1874999999999
 20
50.62874830413023
 30
0.0
 11
111.1874999999999
 21
51.67244949008946
 31
0.0
  0
LINE
  5
38BC
330
380F
100
AcDbEntity
  8
0
 62
     0
100
AcDbLine
 10
110.9999999999999
 20
30.84647656709062
 30
0.0
 11
110.9999999999999
 21
31.92977291893484
 31
0.0
  0
LINE
  5
38BD
330
380F
100
AcDbEntity
  8
0
 62
     0
100
AcDbLine
 10
110.9999999999999
 20
50.53891030712001
 30
0.0
 11
110.9999999999999
 21
51.62220665896407
 31
0.0
  0
LINE
  5
38BE
330
380F
100
AcDbEntity
  8
0
 62
     0
100
AcDbLine
 10
110.8124999999999
 20
30.91289455676685
 30
0.0
 11
110.8124999999999
 21
32.05573377535601
 31
0.0
  0
LINE
  5
38BF
330
380F
100
AcDbEntity
  8
0
 62
     0
100
AcDbLine
 10
110.8124999999999
 20
50.41294945069886
 30
0.0
 11
110.8124999999999
 21
51.55578866928784
 31
0.0
  0
LINE
  5
38C0
330
380F
100
AcDbEntity
  8
0
 62
     0
100
AcDbLine
 10
110.6249999999999
 20
30.99692772810695
 30
0.0
 11
110.6249999999999
 21
32.23133568461298
 31
0.0
  0
LINE
  5
38C1
330
380F
100
AcDbEntity
  8
0
 62
     0
100
AcDbLine
 10
110.6249999999999
 20
50.23734754144197
 30
0.0
 11
110.6249999999999
 21
51.47175549794775
 31
0.0
  0
LINE
  5
38C2
330
380F
100
AcDbEntity
  8
0
 62
     0
100
AcDbLine
 10
110.4374999999999
 20
31.10065633870766
 30
0.0
 11
110.4374999999999
 21
32.49096226851445
 31
0.0
  0
LINE
  5
38C3
330
380F
100
AcDbEntity
  8
0
 62
     0
100
AcDbLine
 10
110.4374999999999
 20
49.97772095754063
 30
0.0
 11
110.4374999999999
 21
51.36802688734705
 31
0.0
  0
LINE
  5
38C4
330
380F
100
AcDbEntity
  8
0
 62
     0
100
AcDbLine
 10
110.2499999999999
 20
31.22713153252687
 30
0.0
 11
110.2499999999999
 21
33.06436424023194
 31
0.0
  0
LINE
  5
38C5
330
380F
100
AcDbEntity
  8
0
 62
     0
100
AcDbLine
 10
110.2499999999999
 20
49.40431898582504
 30
0.0
 11
110.2499999999999
 21
51.24155169352786
 31
0.0
  0
LINE
  5
38C6
330
380F
100
AcDbEntity
  8
0
 62
     0
100
AcDbLine
 10
110.0624999999999
 20
31.38100428143419
 30
0.0
 11
110.0624999999999
 21
51.08767894462054
 31
0.0
  0
LINE
  5
38C7
330
380F
100
AcDbEntity
  8
0
 62
     0
100
AcDbLine
 10
109.8749999999999
 20
31.56985558962826
 30
0.0
 11
109.8749999999999
 21
50.89882763642649
 31
0.0
  0
LINE
  5
38C8
330
380F
100
AcDbEntity
  8
0
 62
     0
100
AcDbLine
 10
109.6874999999999
 20
31.80750746726795
 30
0.0
 11
109.6874999999999
 21
50.66117575878685
 31
0.0
  0
LINE
  5
38C9
330
380F
100
AcDbEntity
  8
0
 62
     0
100
AcDbLine
 10
109.4999999999999
 20
32.12488898361093
 30
0.0
 11
109.4999999999999
 21
50.34379424244395
 31
0.0
  0
LINE
  5
38CA
330
380F
100
AcDbEntity
  8
0
 62
     0
100
AcDbLine
 10
109.3124999999999
 20
32.63801779635305
 30
0.0
 11
109.3124999999999
 21
49.83066542970214
 31
0.0
  0
LINE
  5
38CB
330
380F
100
AcDbEntity
  8
0
 62
     0
100
AcDbLine
 10
119.8124999999999
 20
30.73434161302726
 30
0.0
 11
119.8124999999999
 21
31.73434161302726
 31
0.0
  0
LINE
  5
38CC
330
380F
100
AcDbEntity
  8
0
 62
     0
100
AcDbLine
 10
119.8124999999999
 20
50.73434161302725
 30
0.0
 11
119.8124999999999
 21
51.73434161302726
 31
0.0
  0
LINE
  5
38CD
330
380F
100
AcDbEntity
  8
0
 62
     0
100
AcDbLine
 10
119.8124999999999
 20
34.23389329927631
 30
0.0
 11
119.8124999999999
 21
40.08222418853857
 31
0.0
  0
LINE
  5
38CE
330
380F
100
AcDbEntity
  8
0
 62
     0
100
AcDbLine
 10
119.8124999999999
 20
42.36292722007112
 30
0.0
 11
119.8124999999999
 21
48.39196114086594
 31
0.0
  0
LINE
  5
38CF
330
380F
100
AcDbEntity
  8
0
 62
     0
100
AcDbLine
 10
119.9999999999999
 20
30.73434161302726
 30
0.0
 11
119.9999999999999
 21
31.73434161302726
 31
0.0
  0
LINE
  5
38D0
330
380F
100
AcDbEntity
  8
0
 62
     0
100
AcDbLine
 10
119.9999999999999
 20
50.73434161302725
 30
0.0
 11
119.9999999999999
 21
51.73434161302726
 31
0.0
  0
LINE
  5
38D1
330
380F
100
AcDbEntity
  8
0
 62
     0
100
AcDbLine
 10
119.9999999999999
 20
34.23389329927631
 30
0.0
 11
119.9999999999999
 21
40.1624328003386
 31
0.0
  0
LINE
  5
38D2
330
380F
100
AcDbEntity
  8
0
 62
     0
100
AcDbLine
 10
119.9999999999999
 20
42.36292722007112
 30
0.0
 11
119.9999999999999
 21
48.39196114086594
 31
0.0
  0
LINE
  5
38D3
330
380F
100
AcDbEntity
  8
0
 62
     0
100
AcDbLine
 10
120.1874999999999
 20
30.73434161302726
 30
0.0
 11
120.1874999999999
 21
31.73434161302726
 31
0.0
  0
LINE
  5
38D4
330
380F
100
AcDbEntity
  8
0
 62
     0
100
AcDbLine
 10
120.1874999999999
 20
50.73434161302725
 30
0.0
 11
120.1874999999999
 21
51.73434161302726
 31
0.0
  0
LINE
  5
38D5
330
380F
100
AcDbEntity
  8
0
 62
     0
100
AcDbLine
 10
120.1874999999999
 20
34.23389329927631
 30
0.0
 11
120.1874999999999
 21
40.16292722007113
 31
0.0
  0
LINE
  5
38D6
330
380F
100
AcDbEntity
  8
0
 62
     0
100
AcDbLine
 10
120.1874999999999
 20
42.36292722007112
 30
0.0
 11
120.1874999999999
 21
48.39196114086594
 31
0.0
  0
LINE
  5
38D7
330
380F
100
AcDbEntity
  8
0
 62
     0
100
AcDbLine
 10
120.3749999999999
 20
30.73434161302726
 30
0.0
 11
120.3749999999999
 21
31.73434161302726
 31
0.0
  0
LINE
  5
38D8
330
380F
100
AcDbEntity
  8
0
 62
     0
100
AcDbLine
 10
120.3749999999999
 20
50.73434161302725
 30
0.0
 11
120.3749999999999
 21
51.73434161302726
 31
0.0
  0
LINE
  5
38D9
330
380F
100
AcDbEntity
  8
0
 62
     0
100
AcDbLine
 10
120.3749999999999
 20
34.23389329927631
 30
0.0
 11
120.3749999999999
 21
40.16292722007113
 31
0.0
  0
LINE
  5
38DA
330
380F
100
AcDbEntity
  8
0
 62
     0
100
AcDbLine
 10
120.3749999999999
 20
42.36292722007112
 30
0.0
 11
120.3749999999999
 21
48.39196114086594
 31
0.0
  0
LINE
  5
38DB
330
380F
100
AcDbEntity
  8
0
 62
     0
100
AcDbLine
 10
120.5624999999999
 20
30.73434161302726
 30
0.0
 11
120.5624999999999
 21
31.73434161302726
 31
0.0
  0
LINE
  5
38DC
330
380F
100
AcDbEntity
  8
0
 62
     0
100
AcDbLine
 10
120.5624999999999
 20
50.73434161302725
 30
0.0
 11
120.5624999999999
 21
51.73434161302726
 31
0.0
  0
LINE
  5
38DD
330
380F
100
AcDbEntity
  8
0
 62
     0
100
AcDbLine
 10
120.5624999999999
 20
34.23389329927631
 30
0.0
 11
120.5624999999999
 21
40.16292722007113
 31
0.0
  0
LINE
  5
38DE
330
380F
100
AcDbEntity
  8
0
 62
     0
100
AcDbLine
 10
120.5624999999999
 20
42.36292722007112
 30
0.0
 11
120.5624999999999
 21
48.39196114086594
 31
0.0
  0
LINE
  5
38DF
330
380F
100
AcDbEntity
  8
0
 62
     0
100
AcDbLine
 10
120.7499999999999
 20
30.73434161302726
 30
0.0
 11
120.7499999999999
 21
31.73434161302726
 31
0.0
  0
LINE
  5
38E0
330
380F
100
AcDbEntity
  8
0
 62
     0
100
AcDbLine
 10
120.7499999999999
 20
50.73434161302725
 30
0.0
 11
120.7499999999999
 21
51.73434161302726
 31
0.0
  0
LINE
  5
38E1
330
380F
100
AcDbEntity
  8
0
 62
     0
100
AcDbLine
 10
120.7499999999999
 20
34.23389329927631
 30
0.0
 11
120.7499999999999
 21
40.16292722007113
 31
0.0
  0
LINE
  5
38E2
330
380F
100
AcDbEntity
  8
0
 62
     0
100
AcDbLine
 10
120.7499999999999
 20
42.36292722007112
 30
0.0
 11
120.7499999999999
 21
48.39196114086594
 31
0.0
  0
LINE
  5
38E3
330
380F
100
AcDbEntity
  8
0
 62
     0
100
AcDbLine
 10
120.9374999999999
 20
30.73434161302726
 30
0.0
 11
120.9374999999999
 21
31.73434161302726
 31
0.0
  0
LINE
  5
38E4
330
380F
100
AcDbEntity
  8
0
 62
     0
100
AcDbLine
 10
120.9374999999999
 20
50.73434161302725
 30
0.0
 11
120.9374999999999
 21
51.73434161302726
 31
0.0
  0
LINE
  5
38E5
330
380F
100
AcDbEntity
  8
0
 62
     0
100
AcDbLine
 10
120.9374999999999
 20
34.23389329927631
 30
0.0
 11
120.9374999999999
 21
40.16292722007113
 31
0.0
  0
LINE
  5
38E6
330
380F
100
AcDbEntity
  8
0
 62
     0
100
AcDbLine
 10
120.9374999999999
 20
42.36292722007112
 30
0.0
 11
120.9374999999999
 21
48.39196114086594
 31
0.0
  0
LINE
  5
38E7
330
380F
100
AcDbEntity
  8
0
 62
     0
100
AcDbLine
 10
121.1249999999999
 20
30.73434161302726
 30
0.0
 11
121.1249999999999
 21
31.73434161302726
 31
0.0
  0
LINE
  5
38E8
330
380F
100
AcDbEntity
  8
0
 62
     0
100
AcDbLine
 10
121.1249999999999
 20
50.73434161302725
 30
0.0
 11
121.1249999999999
 21
51.73434161302726
 31
0.0
  0
LINE
  5
38E9
330
380F
100
AcDbEntity
  8
0
 62
     0
100
AcDbLine
 10
121.1249999999999
 20
34.23389329927631
 30
0.0
 11
121.1249999999999
 21
40.16292722007113
 31
0.0
  0
LINE
  5
38EA
330
380F
100
AcDbEntity
  8
0
 62
     0
100
AcDbLine
 10
121.1249999999999
 20
42.36292722007112
 30
0.0
 11
121.1249999999999
 21
48.39196114086594
 31
0.0
  0
LINE
  5
38EB
330
380F
100
AcDbEntity
  8
0
 62
     0
100
AcDbLine
 10
121.3124999999999
 20
30.73434161302726
 30
0.0
 11
121.3124999999999
 21
31.73434161302726
 31
0.0
  0
LINE
  5
38EC
330
380F
100
AcDbEntity
  8
0
 62
     0
100
AcDbLine
 10
121.3124999999999
 20
50.73434161302725
 30
0.0
 11
121.3124999999999
 21
51.73434161302726
 31
0.0
  0
LINE
  5
38ED
330
380F
100
AcDbEntity
  8
0
 62
     0
100
AcDbLine
 10
121.3124999999999
 20
34.23389329927631
 30
0.0
 11
121.3124999999999
 21
40.16292722007113
 31
0.0
  0
LINE
  5
38EE
330
380F
100
AcDbEntity
  8
0
 62
     0
100
AcDbLine
 10
121.3124999999999
 20
42.36292722007112
 30
0.0
 11
121.3124999999999
 21
48.39196114086594
 31
0.0
  0
LINE
  5
38EF
330
380F
100
AcDbEntity
  8
0
 62
     0
100
AcDbLine
 10
121.4999999999999
 20
30.73434161302726
 30
0.0
 11
121.4999999999999
 21
31.73434161302726
 31
0.0
  0
LINE
  5
38F0
330
380F
100
AcDbEntity
  8
0
 62
     0
100
AcDbLine
 10
121.4999999999999
 20
50.73434161302725
 30
0.0
 11
121.4999999999999
 21
51.73434161302726
 31
0.0
  0
LINE
  5
38F1
330
380F
100
AcDbEntity
  8
0
 62
     0
100
AcDbLine
 10
121.4999999999999
 20
34.23389329927631
 30
0.0
 11
121.4999999999999
 21
40.16292722007113
 31
0.0
  0
LINE
  5
38F2
330
380F
100
AcDbEntity
  8
0
 62
     0
100
AcDbLine
 10
121.4999999999999
 20
42.36292722007112
 30
0.0
 11
121.4999999999999
 21
48.39196114086594
 31
0.0
  0
LINE
  5
38F3
330
380F
100
AcDbEntity
  8
0
 62
     0
100
AcDbLine
 10
121.6874999999999
 20
30.73434161302726
 30
0.0
 11
121.6874999999999
 21
31.73434161302726
 31
0.0
  0
LINE
  5
38F4
330
380F
100
AcDbEntity
  8
0
 62
     0
100
AcDbLine
 10
121.6874999999999
 20
50.73434161302725
 30
0.0
 11
121.6874999999999
 21
51.73434161302726
 31
0.0
  0
LINE
  5
38F5
330
380F
100
AcDbEntity
  8
0
 62
     0
100
AcDbLine
 10
121.6874999999999
 20
34.23389329927631
 30
0.0
 11
121.6874999999999
 21
40.16292722007113
 31
0.0
  0
LINE
  5
38F6
330
380F
100
AcDbEntity
  8
0
 62
     0
100
AcDbLine
 10
121.6874999999999
 20
42.36292722007112
 30
0.0
 11
121.6874999999999
 21
48.39196114086594
 31
0.0
  0
LINE
  5
38F7
330
380F
100
AcDbEntity
  8
0
 62
     0
100
AcDbLine
 10
121.8749999999999
 20
30.73434161302726
 30
0.0
 11
121.8749999999999
 21
31.73434161302726
 31
0.0
  0
LINE
  5
38F8
330
380F
100
AcDbEntity
  8
0
 62
     0
100
AcDbLine
 10
121.8749999999999
 20
50.73434161302725
 30
0.0
 11
121.8749999999999
 21
51.73434161302726
 31
0.0
  0
LINE
  5
38F9
330
380F
100
AcDbEntity
  8
0
 62
     0
100
AcDbLine
 10
121.8749999999999
 20
34.23389329927631
 30
0.0
 11
121.8749999999999
 21
40.16292722007113
 31
0.0
  0
LINE
  5
38FA
330
380F
100
AcDbEntity
  8
0
 62
     0
100
AcDbLine
 10
121.8749999999999
 20
42.36292722007112
 30
0.0
 11
121.8749999999999
 21
48.39196114086594
 31
0.0
  0
LINE
  5
38FB
330
380F
100
AcDbEntity
  8
0
 62
     0
100
AcDbLine
 10
122.0624999999999
 20
30.73434161302726
 30
0.0
 11
122.0624999999999
 21
31.73434161302726
 31
0.0
  0
LINE
  5
38FC
330
380F
100
AcDbEntity
  8
0
 62
     0
100
AcDbLine
 10
122.0624999999999
 20
50.73434161302725
 30
0.0
 11
122.0624999999999
 21
51.73434161302726
 31
0.0
  0
LINE
  5
38FD
330
380F
100
AcDbEntity
  8
0
 62
     0
100
AcDbLine
 10
122.0624999999999
 20
34.23389329927631
 30
0.0
 11
122.0624999999999
 21
40.16292722007113
 31
0.0
  0
LINE
  5
38FE
330
380F
100
AcDbEntity
  8
0
 62
     0
100
AcDbLine
 10
122.0624999999999
 20
42.36292722007112
 30
0.0
 11
122.0624999999999
 21
48.39196114086594
 31
0.0
  0
LINE
  5
38FF
330
380F
100
AcDbEntity
  8
0
 62
     0
100
AcDbLine
 10
122.2499999999999
 20
30.73434161302726
 30
0.0
 11
122.2499999999999
 21
31.73434161302726
 31
0.0
  0
LINE
  5
3900
330
380F
100
AcDbEntity
  8
0
 62
     0
100
AcDbLine
 10
122.2499999999999
 20
50.73434161302725
 30
0.0
 11
122.2499999999999
 21
51.73434161302726
 31
0.0
  0
LINE
  5
3901
330
380F
100
AcDbEntity
  8
0
 62
     0
100
AcDbLine
 10
122.2499999999999
 20
34.23389329927631
 30
0.0
 11
122.2499999999999
 21
40.16292722007113
 31
0.0
  0
LINE
  5
3902
330
380F
100
AcDbEntity
  8
0
 62
     0
100
AcDbLine
 10
122.2499999999999
 20
42.36292722007112
 30
0.0
 11
122.2499999999999
 21
48.39196114086594
 31
0.0
  0
LINE
  5
3903
330
380F
100
AcDbEntity
  8
0
 62
     0
100
AcDbLine
 10
122.4374999999999
 20
30.73434161302726
 30
0.0
 11
122.4374999999999
 21
31.73434161302726
 31
0.0
  0
LINE
  5
3904
330
380F
100
AcDbEntity
  8
0
 62
     0
100
AcDbLine
 10
122.4374999999999
 20
50.73434161302725
 30
0.0
 11
122.4374999999999
 21
51.73434161302726
 31
0.0
  0
LINE
  5
3905
330
380F
100
AcDbEntity
  8
0
 62
     0
100
AcDbLine
 10
122.4374999999999
 20
34.23389329927631
 30
0.0
 11
122.4374999999999
 21
40.16292722007113
 31
0.0
  0
LINE
  5
3906
330
380F
100
AcDbEntity
  8
0
 62
     0
100
AcDbLine
 10
122.4374999999999
 20
42.36292722007112
 30
0.0
 11
122.4374999999999
 21
48.39196114086594
 31
0.0
  0
LINE
  5
3907
330
380F
100
AcDbEntity
  8
0
 62
     0
100
AcDbLine
 10
122.6249999999999
 20
30.73434161302726
 30
0.0
 11
122.6249999999999
 21
31.73434161302726
 31
0.0
  0
LINE
  5
3908
330
380F
100
AcDbEntity
  8
0
 62
     0
100
AcDbLine
 10
122.6249999999999
 20
50.73434161302725
 30
0.0
 11
122.6249999999999
 21
51.73434161302726
 31
0.0
  0
LINE
  5
3909
330
380F
100
AcDbEntity
  8
0
 62
     0
100
AcDbLine
 10
122.6249999999999
 20
34.23389329927631
 30
0.0
 11
122.6249999999999
 21
40.16292722007113
 31
0.0
  0
LINE
  5
390A
330
380F
100
AcDbEntity
  8
0
 62
     0
100
AcDbLine
 10
122.6249999999999
 20
42.36292722007112
 30
0.0
 11
122.6249999999999
 21
48.39196114086594
 31
0.0
  0
LINE
  5
390B
330
380F
100
AcDbEntity
  8
0
 62
     0
100
AcDbLine
 10
122.8124999999999
 20
30.73434161302726
 30
0.0
 11
122.8124999999999
 21
31.73434161302726
 31
0.0
  0
LINE
  5
390C
330
380F
100
AcDbEntity
  8
0
 62
     0
100
AcDbLine
 10
122.8124999999999
 20
50.73434161302725
 30
0.0
 11
122.8124999999999
 21
51.73434161302726
 31
0.0
  0
LINE
  5
390D
330
380F
100
AcDbEntity
  8
0
 62
     0
100
AcDbLine
 10
122.8124999999999
 20
34.23389329927631
 30
0.0
 11
122.8124999999999
 21
40.16292722007113
 31
0.0
  0
LINE
  5
390E
330
380F
100
AcDbEntity
  8
0
 62
     0
100
AcDbLine
 10
122.8124999999999
 20
42.36292722007112
 30
0.0
 11
122.8124999999999
 21
48.39196114086594
 31
0.0
  0
LINE
  5
390F
330
380F
100
AcDbEntity
  8
0
 62
     0
100
AcDbLine
 10
122.9999999999999
 20
30.73434161302726
 30
0.0
 11
122.9999999999999
 21
31.73434161302726
 31
0.0
  0
LINE
  5
3910
330
380F
100
AcDbEntity
  8
0
 62
     0
100
AcDbLine
 10
122.9999999999999
 20
50.73434161302725
 30
0.0
 11
122.9999999999999
 21
51.73434161302726
 31
0.0
  0
LINE
  5
3911
330
380F
100
AcDbEntity
  8
0
 62
     0
100
AcDbLine
 10
122.9999999999999
 20
34.23389329927631
 30
0.0
 11
122.9999999999999
 21
40.16292722007113
 31
0.0
  0
LINE
  5
3912
330
380F
100
AcDbEntity
  8
0
 62
     0
100
AcDbLine
 10
122.9999999999999
 20
42.36292722007112
 30
0.0
 11
122.9999999999999
 21
48.39145010178652
 31
0.0
  0
LINE
  5
3913
330
380F
100
AcDbEntity
  8
0
 62
     0
100
AcDbLine
 10
123.1874999999999
 20
30.73434161302726
 30
0.0
 11
123.1874999999999
 21
31.73434161302726
 31
0.0
  0
LINE
  5
3914
330
380F
100
AcDbEntity
  8
0
 62
     0
100
AcDbLine
 10
123.1874999999999
 20
50.73434161302725
 30
0.0
 11
123.1874999999999
 21
51.73434161302726
 31
0.0
  0
LINE
  5
3915
330
380F
100
AcDbEntity
  8
0
 62
     0
100
AcDbLine
 10
123.1874999999999
 20
34.24705839230357
 30
0.0
 11
123.1874999999999
 21
40.16292722007113
 31
0.0
  0
LINE
  5
3916
330
380F
100
AcDbEntity
  8
0
 62
     0
100
AcDbLine
 10
123.1874999999999
 20
42.36292722007112
 30
0.0
 11
123.1874999999999
 21
48.36758131842096
 31
0.0
  0
LINE
  5
3917
330
380F
100
AcDbEntity
  8
0
 62
     0
100
AcDbLine
 10
123.3749999999999
 20
30.73434161302726
 30
0.0
 11
123.3749999999999
 21
31.73434161302726
 31
0.0
  0
LINE
  5
3918
330
380F
100
AcDbEntity
  8
0
 62
     0
100
AcDbLine
 10
123.3749999999999
 20
50.73434161302725
 30
0.0
 11
123.3749999999999
 21
51.73434161302726
 31
0.0
  0
LINE
  5
3919
330
380F
100
AcDbEntity
  8
0
 62
     0
100
AcDbLine
 10
123.3749999999999
 20
34.29685657824298
 30
0.0
 11
123.3749999999999
 21
40.16292722007113
 31
0.0
  0
LINE
  5
391A
330
380F
100
AcDbEntity
  8
0
 62
     0
100
AcDbLine
 10
123.3749999999999
 20
42.36292722007112
 30
0.0
 11
123.3749999999999
 21
48.30540450457434
 31
0.0
  0
LINE
  5
391B
330
380F
100
AcDbEntity
  8
0
 62
     0
100
AcDbLine
 10
123.5624999999999
 20
30.73434161302726
 30
0.0
 11
123.5624999999999
 21
31.73434161302726
 31
0.0
  0
LINE
  5
391C
330
380F
100
AcDbEntity
  8
0
 62
     0
100
AcDbLine
 10
123.5624999999999
 20
50.73434161302725
 30
0.0
 11
123.5624999999999
 21
51.73434161302726
 31
0.0
  0
LINE
  5
391D
330
380F
100
AcDbEntity
  8
0
 62
     0
100
AcDbLine
 10
123.5624999999999
 20
34.39013978105555
 30
0.0
 11
123.5624999999999
 21
40.16292722007112
 31
0.0
  0
LINE
  5
391E
330
380F
100
AcDbEntity
  8
0
 62
     0
100
AcDbLine
 10
123.5624999999999
 20
42.36292722007112
 30
0.0
 11
123.5624999999999
 21
48.19608198163137
 31
0.0
  0
LINE
  5
391F
330
380F
100
AcDbEntity
  8
0
 62
     0
100
AcDbLine
 10
123.7499999999999
 20
30.73434161302726
 30
0.0
 11
123.7499999999999
 21
31.73434161302726
 31
0.0
  0
LINE
  5
3920
330
380F
100
AcDbEntity
  8
0
 62
     0
100
AcDbLine
 10
123.7499999999999
 20
50.73434161302725
 30
0.0
 11
123.7499999999999
 21
51.73434161302726
 31
0.0
  0
LINE
  5
3921
330
380F
100
AcDbEntity
  8
0
 62
     0
100
AcDbLine
 10
123.7499999999999
 20
34.54433570019199
 30
0.0
 11
123.7499999999999
 21
40.16292722007112
 31
0.0
  0
LINE
  5
3922
330
380F
100
AcDbEntity
  8
0
 62
     0
100
AcDbLine
 10
123.7499999999999
 20
42.36292722007112
 30
0.0
 11
123.7499999999999
 21
48.01528238581408
 31
0.0
  0
LINE
  5
3923
330
380F
100
AcDbEntity
  8
0
 62
     0
100
AcDbLine
 10
123.9374999999999
 20
30.73434161302726
 30
0.0
 11
123.9374999999999
 21
31.73434161302726
 31
0.0
  0
LINE
  5
3924
330
380F
100
AcDbEntity
  8
0
 62
     0
100
AcDbLine
 10
123.9374999999999
 20
50.73434161302725
 30
0.0
 11
123.9374999999999
 21
51.73434161302726
 31
0.0
  0
LINE
  5
3925
330
380F
100
AcDbEntity
  8
0
 62
     0
100
AcDbLine
 10
123.9374999999999
 20
34.81305744647532
 30
0.0
 11
123.9374999999999
 21
40.16292722007112
 31
0.0
  0
LINE
  5
3926
330
380F
100
AcDbEntity
  8
0
 62
     0
100
AcDbLine
 10
123.9374999999999
 20
42.36292722007112
 30
0.0
 11
123.9374999999999
 21
47.71279699366689
 31
0.0
  0
LINE
  5
3927
330
380F
100
AcDbEntity
  8
0
 62
     0
100
AcDbLine
 10
124.1249999999999
 20
30.73434161302725
 30
0.0
 11
124.1249999999999
 21
31.73434161302725
 31
0.0
  0
LINE
  5
3928
330
380F
100
AcDbEntity
  8
0
 62
     0
100
AcDbLine
 10
124.1249999999999
 20
50.73434161302725
 30
0.0
 11
124.1249999999999
 21
51.73434161302726
 31
0.0
  0
LINE
  5
3929
330
380F
100
AcDbEntity
  8
0
 62
     0
100
AcDbLine
 10
124.1249999999999
 20
35.13781697289449
 30
0.0
 11
124.1249999999999
 21
40.16292722007112
 31
0.0
  0
LINE
  5
392A
330
380F
100
AcDbEntity
  8
0
 62
     0
100
AcDbLine
 10
124.1249999999999
 20
42.36292722007112
 30
0.0
 11
124.1249999999999
 21
47.38803746724773
 31
0.0
  0
LINE
  5
392B
330
380F
100
AcDbEntity
  8
0
 62
     0
100
AcDbLine
 10
124.3124999999999
 20
30.73434161302725
 30
0.0
 11
124.3124999999999
 21
31.73434161302725
 31
0.0
  0
LINE
  5
392C
330
380F
100
AcDbEntity
  8
0
 62
     0
100
AcDbLine
 10
124.3124999999999
 20
50.73434161302725
 30
0.0
 11
124.3124999999999
 21
51.73434161302726
 31
0.0
  0
LINE
  5
392D
330
380F
100
AcDbEntity
  8
0
 62
     0
100
AcDbLine
 10
124.3124999999999
 20
35.46257649931365
 30
0.0
 11
124.3124999999999
 21
40.16292722007112
 31
0.0
  0
LINE
  5
392E
330
380F
100
AcDbEntity
  8
0
 62
     0
100
AcDbLine
 10
124.3124999999999
 20
42.36292722007112
 30
0.0
 11
124.3124999999999
 21
47.06327794082857
 31
0.0
  0
LINE
  5
392F
330
380F
100
AcDbEntity
  8
0
 62
     0
100
AcDbLine
 10
124.4999999999999
 20
30.73434161302725
 30
0.0
 11
124.4999999999999
 21
31.73434161302725
 31
0.0
  0
LINE
  5
3930
330
380F
100
AcDbEntity
  8
0
 62
     0
100
AcDbLine
 10
124.4999999999999
 20
50.73434161302725
 30
0.0
 11
124.4999999999999
 21
51.73434161302726
 31
0.0
  0
LINE
  5
3931
330
380F
100
AcDbEntity
  8
0
 62
     0
100
AcDbLine
 10
124.4999999999999
 20
35.78733602573282
 30
0.0
 11
124.4999999999999
 21
40.16292722007112
 31
0.0
  0
LINE
  5
3932
330
380F
100
AcDbEntity
  8
0
 62
     0
100
AcDbLine
 10
124.4999999999999
 20
42.36292722007112
 30
0.0
 11
124.4999999999999
 21
46.7385184144094
 31
0.0
  0
LINE
  5
3933
330
380F
100
AcDbEntity
  8
0
 62
     0
100
AcDbLine
 10
124.6874999999999
 20
30.73434161302725
 30
0.0
 11
124.6874999999999
 21
31.73434161302725
 31
0.0
  0
LINE
  5
3934
330
380F
100
AcDbEntity
  8
0
 62
     0
100
AcDbLine
 10
124.6874999999999
 20
50.73434161302725
 30
0.0
 11
124.6874999999999
 21
51.73434161302726
 31
0.0
  0
LINE
  5
3935
330
380F
100
AcDbEntity
  8
0
 62
     0
100
AcDbLine
 10
124.6874999999999
 20
36.11209555215198
 30
0.0
 11
124.6874999999999
 21
40.16292722007112
 31
0.0
  0
LINE
  5
3936
330
380F
100
AcDbEntity
  8
0
 62
     0
100
AcDbLine
 10
124.6874999999999
 20
42.36292722007112
 30
0.0
 11
124.6874999999999
 21
46.41375888799024
 31
0.0
  0
LINE
  5
3937
330
380F
100
AcDbEntity
  8
0
 62
     0
100
AcDbLine
 10
124.8749999999999
 20
30.73434161302725
 30
0.0
 11
124.8749999999999
 21
31.73434161302725
 31
0.0
  0
LINE
  5
3938
330
380F
100
AcDbEntity
  8
0
 62
     0
100
AcDbLine
 10
124.8749999999999
 20
50.73434161302725
 30
0.0
 11
124.8749999999999
 21
51.73434161302726
 31
0.0
  0
LINE
  5
3939
330
380F
100
AcDbEntity
  8
0
 62
     0
100
AcDbLine
 10
124.8749999999999
 20
36.43685507857115
 30
0.0
 11
124.8749999999999
 21
40.16292722007112
 31
0.0
  0
LINE
  5
393A
330
380F
100
AcDbEntity
  8
0
 62
     0
100
AcDbLine
 10
124.8749999999999
 20
42.36292722007112
 30
0.0
 11
124.8749999999999
 21
46.08899936157107
 31
0.0
  0
LINE
  5
393B
330
380F
100
AcDbEntity
  8
0
 62
     0
100
AcDbLine
 10
125.0624999999999
 20
30.73434161302725
 30
0.0
 11
125.0624999999999
 21
31.73434161302725
 31
0.0
  0
LINE
  5
393C
330
380F
100
AcDbEntity
  8
0
 62
     0
100
AcDbLine
 10
125.0624999999999
 20
50.73434161302725
 30
0.0
 11
125.0624999999999
 21
51.73434161302726
 31
0.0
  0
LINE
  5
393D
330
380F
100
AcDbEntity
  8
0
 62
     0
100
AcDbLine
 10
125.0624999999999
 20
36.7616146049903
 30
0.0
 11
125.0624999999999
 21
40.16292722007112
 31
0.0
  0
LINE
  5
393E
330
380F
100
AcDbEntity
  8
0
 62
     0
100
AcDbLine
 10
125.0624999999999
 20
42.36292722007112
 30
0.0
 11
125.0624999999999
 21
45.76423983515191
 31
0.0
  0
LINE
  5
393F
330
380F
100
AcDbEntity
  8
0
 62
     0
100
AcDbLine
 10
125.2499999999999
 20
30.73434161302725
 30
0.0
 11
125.2499999999999
 21
31.73434161302725
 31
0.0
  0
LINE
  5
3940
330
380F
100
AcDbEntity
  8
0
 62
     0
100
AcDbLine
 10
125.2499999999999
 20
50.73434161302725
 30
0.0
 11
125.2499999999999
 21
51.73434161302726
 31
0.0
  0
LINE
  5
3941
330
380F
100
AcDbEntity
  8
0
 62
     0
100
AcDbLine
 10
125.2499999999999
 20
37.08637413140947
 30
0.0
 11
125.2499999999999
 21
40.16292722007112
 31
0.0
  0
LINE
  5
3942
330
380F
100
AcDbEntity
  8
0
 62
     0
100
AcDbLine
 10
125.2499999999999
 20
42.36292722007112
 30
0.0
 11
125.2499999999999
 21
45.43948030873274
 31
0.0
  0
LINE
  5
3943
330
380F
100
AcDbEntity
  8
0
 62
     0
100
AcDbLine
 10
125.4374999999999
 20
30.73434161302725
 30
0.0
 11
125.4374999999999
 21
31.73434161302725
 31
0.0
  0
LINE
  5
3944
330
380F
100
AcDbEntity
  8
0
 62
     0
100
AcDbLine
 10
125.4374999999999
 20
50.73434161302725
 30
0.0
 11
125.4374999999999
 21
51.73434161302726
 31
0.0
  0
LINE
  5
3945
330
380F
100
AcDbEntity
  8
0
 62
     0
100
AcDbLine
 10
125.4374999999999
 20
37.41113365782863
 30
0.0
 11
125.4374999999999
 21
40.16292722007112
 31
0.0
  0
LINE
  5
3946
330
380F
100
AcDbEntity
  8
0
 62
     0
100
AcDbLine
 10
125.4374999999999
 20
42.36292722007112
 30
0.0
 11
125.4374999999999
 21
45.11472078231358
 31
0.0
  0
LINE
  5
3947
330
380F
100
AcDbEntity
  8
0
 62
     0
100
AcDbLine
 10
125.6249999999999
 20
30.73434161302725
 30
0.0
 11
125.6249999999999
 21
31.73434161302725
 31
0.0
  0
LINE
  5
3948
330
380F
100
AcDbEntity
  8
0
 62
     0
100
AcDbLine
 10
125.6249999999999
 20
50.73434161302725
 30
0.0
 11
125.6249999999999
 21
51.73434161302726
 31
0.0
  0
LINE
  5
3949
330
380F
100
AcDbEntity
  8
0
 62
     0
100
AcDbLine
 10
125.6249999999999
 20
37.7358931842478
 30
0.0
 11
125.6249999999999
 21
40.16292722007112
 31
0.0
  0
LINE
  5
394A
330
380F
100
AcDbEntity
  8
0
 62
     0
100
AcDbLine
 10
125.6249999999999
 20
42.36292722007112
 30
0.0
 11
125.6249999999999
 21
44.78996125589442
 31
0.0
  0
LINE
  5
394B
330
380F
100
AcDbEntity
  8
0
 62
     0
100
AcDbLine
 10
125.8124999999999
 20
30.73434161302725
 30
0.0
 11
125.8124999999999
 21
31.73434161302725
 31
0.0
  0
LINE
  5
394C
330
380F
100
AcDbEntity
  8
0
 62
     0
100
AcDbLine
 10
125.8124999999999
 20
50.73434161302725
 30
0.0
 11
125.8124999999999
 21
51.73434161302726
 31
0.0
  0
LINE
  5
394D
330
380F
100
AcDbEntity
  8
0
 62
     0
100
AcDbLine
 10
125.8124999999999
 20
38.06065271066696
 30
0.0
 11
125.8124999999999
 21
40.16292722007112
 31
0.0
  0
LINE
  5
394E
330
380F
100
AcDbEntity
  8
0
 62
     0
100
AcDbLine
 10
125.8124999999999
 20
42.36292722007112
 30
0.0
 11
125.8124999999999
 21
44.46520172947525
 31
0.0
  0
LINE
  5
394F
330
380F
100
AcDbEntity
  8
0
 62
     0
100
AcDbLine
 10
125.9999999999999
 20
30.73434161302725
 30
0.0
 11
125.9999999999999
 21
31.73434161302725
 31
0.0
  0
LINE
  5
3950
330
380F
100
AcDbEntity
  8
0
 62
     0
100
AcDbLine
 10
125.9999999999999
 20
50.73434161302725
 30
0.0
 11
125.9999999999999
 21
51.73434161302726
 31
0.0
  0
LINE
  5
3951
330
380F
100
AcDbEntity
  8
0
 62
     0
100
AcDbLine
 10
125.9999999999999
 20
38.38541223708613
 30
0.0
 11
125.9999999999999
 21
40.16292722007112
 31
0.0
  0
LINE
  5
3952
330
380F
100
AcDbEntity
  8
0
 62
     0
100
AcDbLine
 10
125.9999999999999
 20
42.36292722007112
 30
0.0
 11
125.9999999999999
 21
44.14044220305608
 31
0.0
  0
LINE
  5
3953
330
380F
100
AcDbEntity
  8
0
 62
     0
100
AcDbLine
 10
126.1874999999999
 20
30.73434161302725
 30
0.0
 11
126.1874999999999
 21
31.73434161302725
 31
0.0
  0
LINE
  5
3954
330
380F
100
AcDbEntity
  8
0
 62
     0
100
AcDbLine
 10
126.1874999999999
 20
50.73434161302725
 30
0.0
 11
126.1874999999999
 21
51.73434161302726
 31
0.0
  0
LINE
  5
3955
330
380F
100
AcDbEntity
  8
0
 62
     0
100
AcDbLine
 10
126.1874999999999
 20
38.71017176350529
 30
0.0
 11
126.1874999999999
 21
40.16292722007112
 31
0.0
  0
LINE
  5
3956
330
380F
100
AcDbEntity
  8
0
 62
     0
100
AcDbLine
 10
126.1874999999999
 20
42.36292722007112
 30
0.0
 11
126.1874999999999
 21
43.81568267663692
 31
0.0
  0
LINE
  5
3957
330
380F
100
AcDbEntity
  8
0
 62
     0
100
AcDbLine
 10
126.3749999999999
 20
30.73434161302725
 30
0.0
 11
126.3749999999999
 21
31.73434161302725
 31
0.0
  0
LINE
  5
3958
330
380F
100
AcDbEntity
  8
0
 62
     0
100
AcDbLine
 10
126.3749999999999
 20
50.73434161302725
 30
0.0
 11
126.3749999999999
 21
51.73434161302726
 31
0.0
  0
LINE
  5
3959
330
380F
100
AcDbEntity
  8
0
 62
     0
100
AcDbLine
 10
126.3749999999999
 20
39.03493128992446
 30
0.0
 11
126.3749999999999
 21
40.16292722007112
 31
0.0
  0
LINE
  5
395A
330
380F
100
AcDbEntity
  8
0
 62
     0
100
AcDbLine
 10
126.3749999999999
 20
42.36292722007112
 30
0.0
 11
126.3749999999999
 21
43.49092315021776
 31
0.0
  0
LINE
  5
395B
330
380F
100
AcDbEntity
  8
0
 62
     0
100
AcDbLine
 10
126.5624999999999
 20
30.73434161302725
 30
0.0
 11
126.5624999999999
 21
31.73434161302725
 31
0.0
  0
LINE
  5
395C
330
380F
100
AcDbEntity
  8
0
 62
     0
100
AcDbLine
 10
126.5624999999999
 20
50.73434161302725
 30
0.0
 11
126.5624999999999
 21
51.73434161302726
 31
0.0
  0
LINE
  5
395D
330
380F
100
AcDbEntity
  8
0
 62
     0
100
AcDbLine
 10
126.5624999999999
 20
39.35969081634362
 30
0.0
 11
126.5624999999999
 21
40.16292722007112
 31
0.0
  0
LINE
  5
395E
330
380F
100
AcDbEntity
  8
0
 62
     0
100
AcDbLine
 10
126.5624999999999
 20
42.36292722007112
 30
0.0
 11
126.5624999999999
 21
43.1661636237986
 31
0.0
  0
LINE
  5
395F
330
380F
100
AcDbEntity
  8
0
 62
     0
100
AcDbLine
 10
126.7499999999999
 20
30.73434161302725
 30
0.0
 11
126.7499999999999
 21
31.73434161302725
 31
0.0
  0
LINE
  5
3960
330
380F
100
AcDbEntity
  8
0
 62
     0
100
AcDbLine
 10
126.7499999999999
 20
50.73434161302725
 30
0.0
 11
126.7499999999999
 21
51.73434161302726
 31
0.0
  0
LINE
  5
3961
330
380F
100
AcDbEntity
  8
0
 62
     0
100
AcDbLine
 10
126.7499999999999
 20
39.68445034276278
 30
0.0
 11
126.7499999999999
 21
40.16292722007112
 31
0.0
  0
LINE
  5
3962
330
380F
100
AcDbEntity
  8
0
 62
     0
100
AcDbLine
 10
126.7499999999999
 20
42.36292722007112
 30
0.0
 11
126.7499999999999
 21
42.84140409737942
 31
0.0
  0
LINE
  5
3963
330
380F
100
AcDbEntity
  8
0
 62
     0
100
AcDbLine
 10
126.9374999999999
 20
30.73434161302725
 30
0.0
 11
126.9374999999999
 21
31.73434161302725
 31
0.0
  0
LINE
  5
3964
330
380F
100
AcDbEntity
  8
0
 62
     0
100
AcDbLine
 10
126.9374999999999
 20
50.73434161302725
 30
0.0
 11
126.9374999999999
 21
51.73434161302726
 31
0.0
  0
LINE
  5
3965
330
380F
100
AcDbEntity
  8
0
 62
     0
100
AcDbLine
 10
126.9374999999999
 20
40.00920986918194
 30
0.0
 11
126.9374999999999
 21
40.16292722007112
 31
0.0
  0
LINE
  5
3966
330
380F
100
AcDbEntity
  8
0
 62
     0
100
AcDbLine
 10
126.9374999999999
 20
42.36292722007112
 30
0.0
 11
126.9374999999999
 21
42.51664457096026
 31
0.0
  0
LINE
  5
3967
330
380F
100
AcDbEntity
  8
0
 62
     0
100
AcDbLine
 10
127.1249999999999
 20
30.73434161302725
 30
0.0
 11
127.1249999999999
 21
31.73434161302725
 31
0.0
  0
LINE
  5
3968
330
380F
100
AcDbEntity
  8
0
 62
     0
100
AcDbLine
 10
127.1249999999999
 20
50.73434161302725
 30
0.0
 11
127.1249999999999
 21
51.73434161302726
 31
0.0
  0
LINE
  5
3969
330
380F
100
AcDbEntity
  8
0
 62
     0
100
AcDbLine
 10
127.3124999999999
 20
30.73434161302725
 30
0.0
 11
127.3124999999999
 21
31.73434161302725
 31
0.0
  0
LINE
  5
396A
330
380F
100
AcDbEntity
  8
0
 62
     0
100
AcDbLine
 10
127.3124999999999
 20
50.73434161302725
 30
0.0
 11
127.3124999999999
 21
51.73434161302726
 31
0.0
  0
LINE
  5
396B
330
380F
100
AcDbEntity
  8
0
 62
     0
100
AcDbLine
 10
127.4999999999999
 20
30.73434161302725
 30
0.0
 11
127.4999999999999
 21
31.73434161302725
 31
0.0
  0
LINE
  5
396C
330
380F
100
AcDbEntity
  8
0
 62
     0
100
AcDbLine
 10
127.4999999999999
 20
50.73434161302725
 30
0.0
 11
127.4999999999999
 21
51.73434161302726
 31
0.0
  0
LINE
  5
396D
330
380F
100
AcDbEntity
  8
0
 62
     0
100
AcDbLine
 10
127.6874999999999
 20
30.73434161302725
 30
0.0
 11
127.6874999999999
 21
31.73434161302725
 31
0.0
  0
LINE
  5
396E
330
380F
100
AcDbEntity
  8
0
 62
     0
100
AcDbLine
 10
127.6874999999999
 20
50.73434161302725
 30
0.0
 11
127.6874999999999
 21
51.73434161302726
 31
0.0
  0
LINE
  5
396F
330
380F
100
AcDbEntity
  8
0
 62
     0
100
AcDbLine
 10
127.8749999999999
 20
30.73797101226689
 30
0.0
 11
127.8749999999999
 21
31.74039844933573
 31
0.0
  0
LINE
  5
3970
330
380F
100
AcDbEntity
  8
0
 62
     0
100
AcDbLine
 10
127.8749999999999
 20
50.72828477671877
 30
0.0
 11
127.8749999999999
 21
51.73071221378761
 31
0.0
  0
LINE
  5
3971
330
380F
100
AcDbEntity
  8
0
 62
     0
100
AcDbLine
 10
128.0624999999999
 20
30.75518616833917
 30
0.0
 11
128.0624999999999
 21
31.76934614582384
 31
0.0
  0
LINE
  5
3972
330
380F
100
AcDbEntity
  8
0
 62
     0
100
AcDbLine
 10
128.0624999999999
 20
50.69933708023067
 30
0.0
 11
128.0624999999999
 21
51.71349705771533
 31
0.0
  0
LINE
  5
3973
330
380F
100
AcDbEntity
  8
0
 62
     0
100
AcDbLine
 10
128.2499999999999
 20
30.78684396001255
 30
0.0
 11
128.2499999999999
 21
31.82358126431013
 31
0.0
  0
LINE
  5
3974
330
380F
100
AcDbEntity
  8
0
 62
     0
100
AcDbLine
 10
128.2499999999999
 20
50.64510196174438
 30
0.0
 11
128.2499999999999
 21
51.68183926604196
 31
0.0
  0
LINE
  5
3975
330
380F
100
AcDbEntity
  8
0
 62
     0
100
AcDbLine
 10
128.4374999999999
 20
30.83351565013482
 30
0.0
 11
128.4374999999999
 21
31.90619805749631
 31
0.0
  0
LINE
  5
3976
330
380F
100
AcDbEntity
  8
0
 62
     0
100
AcDbLine
 10
128.4374999999999
 20
50.5624851685582
 30
0.0
 11
128.4374999999999
 21
51.63516757591969
 31
0.0
  0
LINE
  5
3977
330
380F
100
AcDbEntity
  8
0
 62
     0
100
AcDbLine
 10
128.6249999999999
 20
30.89610010567942
 30
0.0
 11
128.6249999999999
 21
32.02298974561454
 31
0.0
  0
LINE
  5
3978
330
380F
100
AcDbEntity
  8
0
 62
     0
100
AcDbLine
 10
128.6249999999999
 20
50.44569348043999
 30
0.0
 11
128.6249999999999
 21
51.57258312037509
 31
0.0
  0
LINE
  5
3979
330
380F
100
AcDbEntity
  8
0
 62
     0
100
AcDbLine
 10
128.8124999999999
 20
30.9759198434567
 30
0.0
 11
128.8124999999999
 21
32.18530925448431
 31
0.0
  0
LINE
  5
397A
330
380F
100
AcDbEntity
  8
0
 62
     0
100
AcDbLine
 10
128.8124999999999
 20
50.28337397157022
 30
0.0
 11
128.8124999999999
 21
51.49276338259781
 31
0.0
  0
LINE
  5
397B
330
380F
100
AcDbEntity
  8
0
 62
     0
100
AcDbLine
 10
128.9999999999999
 20
31.07488521572351
 30
0.0
 11
128.9999999999999
 21
32.41993880614599
 31
0.0
  0
LINE
  5
397C
330
380F
100
AcDbEntity
  8
0
 62
     0
100
AcDbLine
 10
128.9999999999999
 20
50.04874441990855
 30
0.0
 11
128.9999999999999
 21
51.39379801033101
 31
0.0
  0
LINE
  5
397D
330
380F
100
AcDbEntity
  8
0
 62
     0
100
AcDbLine
 10
129.1874999999999
 20
31.19578269201418
 30
0.0
 11
129.1874999999999
 21
32.83972474257949
 31
0.0
  0
LINE
  5
397E
330
380F
100
AcDbEntity
  8
0
 62
     0
100
AcDbLine
 10
129.1874999999999
 20
49.6289584834751
 30
0.0
 11
129.1874999999999
 21
51.27290053404035
 31
0.0
  0
LINE
  5
397F
330
380F
100
AcDbEntity
  8
0
 62
     0
100
AcDbLine
 10
129.3749999999999
 20
31.34281299388666
 30
0.0
 11
129.3749999999999
 21
51.12587023216786
 31
0.0
  0
LINE
  5
3980
330
380F
100
AcDbEntity
  8
0
 62
     0
100
AcDbLine
 10
129.5624999999999
 20
31.52269735687652
 30
0.0
 11
129.5624999999999
 21
50.94598586917801
 31
0.0
  0
LINE
  5
3981
330
380F
100
AcDbEntity
  8
0
 62
     0
100
AcDbLine
 10
129.7499999999999
 20
31.74731131669846
 30
0.0
 11
129.7499999999999
 21
50.72137190935608
 31
0.0
  0
LINE
  5
3982
330
380F
100
AcDbEntity
  8
0
 62
     0
100
AcDbLine
 10
129.9374999999999
 20
32.0416641022199
 30
0.0
 11
129.9374999999999
 21
50.42701912383464
 31
0.0
  0
LINE
  5
3983
330
380F
100
AcDbEntity
  8
0
 62
     0
100
AcDbLine
 10
130.1249999999999
 20
32.48375005474038
 30
0.0
 11
130.1249999999999
 21
49.9849331713142
 31
0.0
  0
ENDBLK
  5
3985
330
380F
100
AcDbEntity
  8
0
100
AcDbBlockEnd
  0
BLOCK
  5
DE84
330
DE7A
100
AcDbEntity
  8
0
100
AcDbBlockBegin
  2
*D1
 70
     1
 10
0.0
 20
0.0
 30
0.0
  3
*D1
  1

  0
LINE
  5
DF0B
330
DE7A
100
AcDbEntity
  8
0
  6
CONTINUOUS
 62
     5
100
AcDbLine
 10
-686.927370203475
 20
38.3979927037887
 30
0.0
 11
-719.9287675856975
 21
38.3979927037887
 31
0.0
  0
LINE
  5
DF0C
330
DE7A
100
AcDbEntity
  8
0
  6
CONTINUOUS
 62
     5
100
AcDbLine
 10
-667.1273702034749
 20
-15.60200729621109
 30
0.0
 11
-719.9287675856975
 21
-15.60200729621108
 31
0.0
  0
LINE
  5
DF0D
330
DE7A
100
AcDbEntity
  8
0
  6
CONTINUOUS
 62
     5
100
AcDbLine
 10
-719.7487675856976
 20
36.39799270378871
 30
0.0
 11
-719.7487675856976
 21
-13.60200729621108
 31
0.0
  0
SOLID
  5
DF0E
330
DE7A
100
AcDbEntity
  8
0
  6
CONTINUOUS
 62
     5
100
AcDbTrace
 10
-720.0821009190309
 20
36.39799270378871
 30
0.0
 11
-719.4154342523642
 21
36.39799270378871
 31
0.0
 12
-719.7487675856976
 22
38.3979927037887
 32
0.0
 13
-719.7487675856976
 23
38.3979927037887
 33
0.0
  0
SOLID
  5
DF0F
330
DE7A
100
AcDbEntity
  8
0
  6
CONTINUOUS
 62
     5
100
AcDbTrace
 10
-720.0821009190309
 20
-13.60200729621108
 30
0.0
 11
-719.4154342523642
 21
-13.60200729621108
 31
0.0
 12
-719.7487675856976
 22
-15.60200729621108
 32
0.0
 13
-719.7487675856976
 23
-15.60200729621108
 33
0.0
  0
MTEXT
  5
DF10
330
DE7A
100
AcDbEntity
  8
0
  6
CONTINUOUS
 62
     5
100
AcDbMText
 10
-721.9962675856975
 20
11.3979927037887
 30
0.0
 40
2.5
 41
0.0
 71
     5
 72
     1
  1
\A1;18.00.3
  7
ROMANT
 11
0.0000000000000001
 21
1.0
 31
0.0
1001
ACAD
1000
MTEXTBEGIN
1070
    73
1070
     1
1070
    44
1040
1.0
1070
    74
1070
     0
1000
MTEXTEND
  0
POINT
  5
DF11
330
DE7A
100
AcDbEntity
  8
DEFPOINTS
  6
CONTINUOUS
 62
     0
100
AcDbPoint
 10
-686.8648702034749
 20
38.3979927037887
 30
0.0
  0
POINT
  5
DF12
330
DE7A
100
AcDbEntity
  8
DEFPOINTS
  6
CONTINUOUS
 62
     0
100
AcDbPoint
 10
-667.0648702034749
 20
-15.60200729621109
 30
0.0
  0
POINT
  5
DF13
330
DE7A
100
AcDbEntity
  8
DEFPOINTS
  6
CONTINUOUS
 62
     0
100
AcDbPoint
 10
-719.7487675856976
 20
-15.60200729621108
 30
0.0
  0
ENDBLK
  5
DE85
330
DE7A
100
AcDbEntity
  8
0
100
AcDbBlockEnd
  0
BLOCK
  5
DE92
330
DE87
100
AcDbEntity
  8
0
100
AcDbBlockBegin
  2
*D2
 70
     1
 10
0.0
 20
0.0
 30
0.0
  3
*D2
  1

  0
LINE
  5
DE88
330
DE87
100
AcDbEntity
  8
0
  6
CONTINUOUS
 62
     5
100
AcDbLine
 10
-685.0648702034752
 20
36.66049270378886
 30
0.0
 11
-685.0648702034752
 21
44.09181039052958
 31
0.0
  0
LINE
  5
DE89
330
DE87
100
AcDbEntity
  8
0
  6
CONTINUOUS
 62
     5
100
AcDbLine
 10
-688.6648702034749
 20
36.66049270378886
 30
0.0
 11
-688.6648702034749
 21
44.09181039052958
 31
0.0
  0
LINE
  5
DE8A
330
DE87
100
AcDbEntity
  8
0
  6
CONTINUOUS
 62
     5
100
AcDbLine
 10
-683.0648702034753
 20
43.91181039052958
 30
0.0
 11
-681.0648702034752
 21
43.91181039052958
 31
0.0
  0
LINE
  5
DE8B
330
DE87
100
AcDbEntity
  8
0
  6
CONTINUOUS
 62
     5
100
AcDbLine
 10
-690.664870203475
 20
43.91181039052958
 30
0.0
 11
-700.3211959500617
 21
43.91181039052958
 31
0.0
  0
SOLID
  5
DE8C
330
DE87
100
AcDbEntity
  8
0
  6
CONTINUOUS
 62
     5
100
AcDbTrace
 10
-683.0648702034753
 20
44.24514372386291
 30
0.0
 11
-683.0648702034753
 21
43.57847705719624
 31
0.0
 12
-685.0648702034752
 22
43.91181039052958
 32
0.0
 13
-685.0648702034752
 23
43.91181039052958
 33
0.0
  0
SOLID
  5
DE8D
330
DE87
100
AcDbEntity
  8
0
  6
CONTINUOUS
 62
     5
100
AcDbTrace
 10
-690.664870203475
 20
44.24514372386291
 30
0.0
 11
-690.664870203475
 21
43.57847705719624
 31
0.0
 12
-688.6648702034749
 22
43.91181039052958
 32
0.0
 13
-688.6648702034749
 23
43.91181039052958
 33
0.0
  0
MTEXT
  5
DE8E
330
DE87
100
AcDbEntity
  8
0
  6
CONTINUOUS
 62
     5
100
AcDbMText
 10
-696.4930330767684
 20
46.15931039052958
 30
0.0
 40
2.5
 41
0.0
 71
     5
 72
     1
  1
\A1;1.2
  7
ROMANT
1001
ACAD
1000
MTEXTBEGIN
1070
    73
1070
     1
1070
    44
1040
1.0
1070
    74
1070
     0
1000
MTEXTEND
  0
POINT
  5
DE8F
330
DE87
100
AcDbEntity
  8
DEFPOINTS
  6
CONTINUOUS
 62
     0
100
AcDbPoint
 10
-685.0648702034752
 20
36.59799270378886
 30
0.0
  0
POINT
  5
DE90
330
DE87
100
AcDbEntity
  8
DEFPOINTS
  6
CONTINUOUS
 62
     0
100
AcDbPoint
 10
-688.6648702034749
 20
36.59799270378886
 30
0.0
  0
POINT
  5
DE91
330
DE87
100
AcDbEntity
  8
DEFPOINTS
  6
CONTINUOUS
 62
     0
100
AcDbPoint
 10
-688.6648702034749
 20
43.91181039052958
 30
0.0
  0
ENDBLK
  5
DE93
330
DE87
100
AcDbEntity
  8
0
100
AcDbBlockEnd
  0
BLOCK
  5
DE9D
330
DE95
100
AcDbEntity
  8
0
100
AcDbBlockBegin
  2
*D3
 70
     1
 10
0.0
 20
0.0
 30
0.0
  3
*D3
  1

  0
LINE
  5
DE96
330
DE95
100
AcDbEntity
  8
0
  6
CONTINUOUS
 62
     5
100
AcDbLine
 10
-671.1305089448622
 20
41.02528403312931
 30
0.0
 11
-683.2069179762329
 21
37.62725724860448
 31
0.0
  0
MTEXT
  5
DE97
330
DE95
100
AcDbEntity
  8
0
  6
CONTINUOUS
 62
     5
100
AcDbMText
 10
-676.8148502598188
 20
41.76061595022008
 30
0.0
 40
2.5
 41
0.0
 71
     5
 72
     1
  1
\A1;R0.6
  7
ROMANT
 11
0.9626190071689768
 21
0.2708590907409495
 31
0.0
1001
ACAD
1000
MTEXTBEGIN
1070
    73
1070
     1
1070
    44
1040
1.0
1070
    74
1070
     0
1000
MTEXTEND
  0
SOLID
  5
DE98
330
DE95
100
AcDbEntity
  8
0
  6
CONTINUOUS
 62
     5
100
AcDbTrace
 10
-683.2972043398132
 20
37.94813025099415
 30
0.0
 11
-683.1166316126527
 21
37.3063842462148
 31
0.0
 12
-685.1321559905709
 22
37.08553906712259
 32
0.0
 13
-685.1321559905709
 23
37.08553906712259
 33
0.0
  0
LINE
  5
DE99
330
DE95
100
AcDbEntity
  8
0
  6
CONTINUOUS
 62
     5
100
AcDbLine
 10
-686.9548702034744
 20
36.59799270378906
 30
0.0
 11
-686.7748702034743
 21
36.59799270378906
 31
0.0
  0
LINE
  5
DE9A
330
DE95
100
AcDbEntity
  8
0
  6
CONTINUOUS
 62
     5
100
AcDbLine
 10
-686.8648702034744
 20
36.50799270378902
 30
0.0
 11
-686.8648702034745
 21
36.68799270378903
 31
0.0
  0
POINT
  5
DE9B
330
DE95
100
AcDbEntity
  8
DEFPOINTS
  6
CONTINUOUS
 62
     0
100
AcDbPoint
 10
-685.1321559905709
 20
37.08553906712259
 30
0.0
  0
POINT
  5
DE9C
330
DE95
100
AcDbEntity
  8
DEFPOINTS
  6
CONTINUOUS
 62
     0
100
AcDbPoint
 10
-686.8648702034745
 20
36.59799270378906
 30
0.0
  0
ENDBLK
  5
DE9E
330
DE95
100
AcDbEntity
  8
0
100
AcDbBlockEnd
  0
BLOCK
  5
DEAA
330
DEA0
100
AcDbEntity
  8
0
100
AcDbBlockBegin
  2
*D4
 70
     1
 10
0.0
 20
0.0
 30
0.0
  3
*D4
  1

  0
LINE
  5
DF14
330
DEA0
100
AcDbEntity
  8
0
  6
CONTINUOUS
 62
     5
100
AcDbLine
 10
-645.5543115814539
 20
3.971856340152462
 30
0.0
 11
-645.5543115814539
 21
-39.07984639235501
 31
0.0
  0
LINE
  5
DF15
330
DEA0
100
AcDbEntity
  8
0
  6
CONTINUOUS
 62
     5
100
AcDbLine
 10
-688.6648702034749
 20
5.935492703788819
 30
0.0
 11
-688.6648702034749
 21
-39.07984639235501
 31
0.0
  0
LINE
  5
DF16
330
DEA0
100
AcDbEntity
  8
0
  6
CONTINUOUS
 62
     5
100
AcDbLine
 10
-647.5543115814539
 20
-38.89984639235501
 30
0.0
 11
-686.6648702034749
 21
-38.89984639235501
 31
0.0
  0
SOLID
  5
DF17
330
DEA0
100
AcDbEntity
  8
0
  6
CONTINUOUS
 62
     5
100
AcDbTrace
 10
-647.5543115814539
 20
-38.56651305902168
 30
0.0
 11
-647.5543115814539
 21
-39.23317972568835
 31
0.0
 12
-645.5543115814539
 22
-38.89984639235501
 32
0.0
 13
-645.5543115814539
 23
-38.89984639235501
 33
0.0
  0
SOLID
  5
DF18
330
DEA0
100
AcDbEntity
  8
0
  6
CONTINUOUS
 62
     5
100
AcDbTrace
 10
-686.6648702034749
 20
-38.56651305902168
 30
0.0
 11
-686.6648702034749
 21
-39.23317972568835
 31
0.0
 12
-688.6648702034749
 22
-38.89984639235501
 32
0.0
 13
-688.6648702034749
 23
-38.89984639235501
 33
0.0
  0
MTEXT
  5
DF19
330
DEA0
100
AcDbEntity
  8
0
  6
CONTINUOUS
 62
     5
100
AcDbMText
 10
-667.1095908924644
 20
-36.65234639235501
 30
0.0
 40
2.5
 41
0.0
 71
     5
 72
     1
  1
\A1;14.40.3
  7
ROMANT
1001
ACAD
1000
MTEXTBEGIN
1070
    73
1070
     1
1070
    44
1040
1.0
1070
    74
1070
     0
1000
MTEXTEND
  0
POINT
  5
DF1A
330
DEA0
100
AcDbEntity
  8
DEFPOINTS
  6
CONTINUOUS
 62
     0
100
AcDbPoint
 10
-645.5543115814539
 20
4.034356340152462
 30
0.0
  0
POINT
  5
DF1B
330
DEA0
100
AcDbEntity
  8
DEFPOINTS
  6
CONTINUOUS
 62
     0
100
AcDbPoint
 10
-688.6648702034749
 20
5.997992703788819
 30
0.0
  0
POINT
  5
DF1C
330
DEA0
100
AcDbEntity
  8
DEFPOINTS
  6
CONTINUOUS
 62
     0
100
AcDbPoint
 10
-688.6648702034749
 20
-38.89984639235501
 30
0.0
  0
ENDBLK
  5
DEAB
330
DEA0
100
AcDbEntity
  8
0
100
AcDbBlockEnd
  0
BLOCK
  5
DEB7
330
DEAD
100
AcDbEntity
  8
0
100
AcDbBlockBegin
  2
*D5
 70
     1
 10
0.0
 20
0.0
 30
0.0
  3
*D5
  1

  0
LINE
  5
DEAE
330
DEAD
100
AcDbEntity
  8
0
  6
CONTINUOUS
 62
     5
100
AcDbLine
 10
-667.9852063455517
 20
-15.57963536599266
 30
0.0
 11
-625.8687595112654
 21
-15.57963536599267
 31
0.0
  0
LINE
  5
DEAF
330
DEAD
100
AcDbEntity
  8
0
  6
CONTINUOUS
 62
     5
100
AcDbLine
 10
-647.1207217696528
 20
5.990539255624083
 30
0.0
 11
-625.8687595112654
 21
5.990539255624077
 31
0.0
  0
LINE
  5
DEB0
330
DEAD
100
AcDbEntity
  8
0
  6
CONTINUOUS
 62
     5
100
AcDbLine
 10
-626.0487595112654
 20
-13.57963536599267
 30
0.0
 11
-626.0487595112654
 21
3.990539255624078
 31
0.0
  0
SOLID
  5
DEB1
330
DEAD
100
AcDbEntity
  8
0
  6
CONTINUOUS
 62
     5
100
AcDbTrace
 10
-626.3820928445987
 20
-13.57963536599267
 30
0.0
 11
-625.715426177932
 21
-13.57963536599267
 31
0.0
 12
-626.0487595112654
 22
-15.57963536599267
 32
0.0
 13
-626.0487595112654
 23
-15.57963536599267
 33
0.0
  0
SOLID
  5
DEB2
330
DEAD
100
AcDbEntity
  8
0
  6
CONTINUOUS
 62
     5
100
AcDbTrace
 10
-626.3820928445987
 20
3.990539255624078
 30
0.0
 11
-625.715426177932
 21
3.990539255624078
 31
0.0
 12
-626.0487595112654
 22
5.990539255624078
 32
0.0
 13
-626.0487595112654
 23
5.990539255624078
 33
0.0
  0
MTEXT
  5
DEB3
330
DEAD
100
AcDbEntity
  8
0
  6
CONTINUOUS
 62
     5
100
AcDbMText
 10
-628.2962595112653
 20
-4.794548055184397
 30
0.0
 40
2.5
 41
0.0
 71
     5
 72
     1
  1
\A1;7.2
  7
ROMANT
 11
0.0000000000000001
 21
1.0
 31
0.0
1001
ACAD
1000
MTEXTBEGIN
1070
    73
1070
     1
1070
    44
1040
1.0
1070
    74
1070
     0
1000
MTEXTEND
  0
POINT
  5
DEB4
330
DEAD
100
AcDbEntity
  8
DEFPOINTS
  6
CONTINUOUS
 62
     0
100
AcDbPoint
 10
-668.0477063455517
 20
-15.57963536599265
 30
0.0
  0
POINT
  5
DEB5
330
DEAD
100
AcDbEntity
  8
DEFPOINTS
  6
CONTINUOUS
 62
     0
100
AcDbPoint
 10
-647.1832217696528
 20
5.990539255624083
 30
0.0
  0
POINT
  5
DEB6
330
DEAD
100
AcDbEntity
  8
DEFPOINTS
  6
CONTINUOUS
 62
     0
100
AcDbPoint
 10
-626.0487595112654
 20
5.990539255624078
 30
0.0
  0
ENDBLK
  5
DEB8
330
DEAD
100
AcDbEntity
  8
0
100
AcDbBlockEnd
  0
BLOCK
  5
DEC2
330
DEBA
100
AcDbEntity
  8
0
100
AcDbBlockBegin
  2
*D6
 70
     1
 10
0.0
 20
0.0
 30
0.0
  3
*D6
  1

  0
LINE
  5
DEBB
330
DEBA
100
AcDbEntity
  8
0
  6
CONTINUOUS
 62
     5
100
AcDbLine
 10
-702.8643438583344
 20
-27.54127394886995
 30
0.0
 11
-684.28740575963
 21
-10.1371945903511
 31
0.0
  0
MTEXT
  5
DEBC
330
DEBA
100
AcDbEntity
  8
0
  6
CONTINUOUS
 62
     5
100
AcDbMText
 10
-700.5213094979315
 20
-22.2664235677808
 30
0.0
 40
2.5
 41
0.0
 71
     5
 72
     1
  1
\A1;R7.2
  7
ROMANT
 11
0.729768455769288
 21
0.6836943768703301
 31
0.0
1001
ACAD
1000
MTEXTBEGIN
1070
    73
1070
     1
1070
    44
1040
1.0
1070
    74
1070
     0
1000
MTEXTEND
  0
SOLID
  5
DEBD
330
DEBA
100
AcDbEntity
  8
0
  6
CONTINUOUS
 62
     5
100
AcDbTrace
 10
-684.5153038852534
 20
-9.893938438427994
 30
0.0
 11
-684.0595076340065
 21
-10.38045074227414
 31
0.0
 12
-682.8278688480914
 22
-8.769805836610487
 32
0.0
 13
-682.8278688480914
 23
-8.769805836610487
 33
0.0
  0
LINE
  5
DEBE
330
DEBA
100
AcDbEntity
  8
0
  6
CONTINUOUS
 62
     5
100
AcDbLine
 10
-667.1548702034745
 20
5.997992703788952
 30
0.0
 11
-666.9748702034744
 21
5.997992703788952
 31
0.0
  0
LINE
  5
DEBF
330
DEBA
100
AcDbEntity
  8
0
  6
CONTINUOUS
 62
     5
100
AcDbLine
 10
-667.0648702034744
 20
5.90799270378892
 30
0.0
 11
-667.0648702034744
 21
6.087992703788984
 31
0.0
  0
POINT
  5
DEC0
330
DEBA
100
AcDbEntity
  8
DEFPOINTS
  6
CONTINUOUS
 62
     0
100
AcDbPoint
 10
-682.8278688480914
 20
-8.769805836610487
 30
0.0
  0
POINT
  5
DEC1
330
DEBA
100
AcDbEntity
  8
DEFPOINTS
  6
CONTINUOUS
 62
     0
100
AcDbPoint
 10
-667.0648702034744
 20
5.997992703788952
 30
0.0
  0
ENDBLK
  5
DEC3
330
DEBA
100
AcDbEntity
  8
0
100
AcDbBlockEnd
  0
BLOCK
  5
DECD
330
DEC5
100
AcDbEntity
  8
0
100
AcDbBlockBegin
  2
*D7
 70
     1
 10
0.0
 20
0.0
 30
0.0
  3
*D7
  1

  0
LINE
  5
DEC6
330
DEC5
100
AcDbEntity
  8
0
  6
CONTINUOUS
 62
     5
100
AcDbLine
 10
-634.8165868112047
 20
-28.6708753777458
 30
0.0
 11
-650.9913052095988
 21
-11.28206830269022
 31
0.0
  0
MTEXT
  5
DEC7
330
DEC5
100
AcDbEntity
  8
0
  6
CONTINUOUS
 62
     5
100
AcDbMText
 10
-636.7917683012709
 20
-23.24754479237617
 30
0.0
 40
2.5
 41
0.0
 71
     5
 72
     1
  1
\A1;R7.2
  7
ROMANT
 11
0.6810832624523663
 21
-0.7322059748508211
 31
0.0
1001
ACAD
1000
MTEXTBEGIN
1070
    73
1070
     1
1070
    44
1040
1.0
1070
    74
1070
     0
1000
MTEXTEND
  0
SOLID
  5
DEC8
330
DEC5
100
AcDbEntity
  8
0
  6
CONTINUOUS
 62
     5
100
AcDbTrace
 10
-650.7472365513152
 20
-11.0550405485394
 30
0.0
 11
-651.2353738678823
 21
-11.50909605684097
 31
0.0
 12
-652.3534717345035
 22
-9.817656352988535
 32
0.0
 13
-652.3534717345035
 23
-9.817656352988535
 33
0.0
  0
LINE
  5
DEC9
330
DEC5
100
AcDbEntity
  8
0
  6
CONTINUOUS
 62
     5
100
AcDbLine
 10
-667.1548702034742
 20
5.997992703788668
 30
0.0
 11
-666.9748702034742
 21
5.997992703788668
 31
0.0
  0
LINE
  5
DECA
330
DEC5
100
AcDbEntity
  8
0
  6
CONTINUOUS
 62
     5
100
AcDbLine
 10
-667.0648702034741
 20
5.907992703788693
 30
0.0
 11
-667.0648702034741
 21
6.0879927037887
 31
0.0
  0
POINT
  5
DECB
330
DEC5
100
AcDbEntity
  8
DEFPOINTS
  6
CONTINUOUS
 62
     0
100
AcDbPoint
 10
-652.3534717345035
 20
-9.817656352988535
 30
0.0
  0
POINT
  5
DECC
330
DEC5
100
AcDbEntity
  8
DEFPOINTS
  6
CONTINUOUS
 62
     0
100
AcDbPoint
 10
-667.0648702034741
 20
5.997992703788668
 30
0.0
  0
ENDBLK
  5
DECE
330
DEC5
100
AcDbEntity
  8
0
100
AcDbBlockEnd
  0
BLOCK
  5
DED6
330
DED0
100
AcDbEntity
  8
0
100
AcDbBlockBegin
  2
*D8
 70
     1
 10
0.0
 20
0.0
 30
0.0
  3
*D8
  1

  0
LINE
  5
DED1
330
DED0
100
AcDbEntity
  8
0
  6
CONTINUOUS
 62
     5
100
AcDbLine
 10
-657.2266833345391
 20
13.192875798398
 30
0.0
 11
-679.9797261435603
 21
-3.446926356046731
 31
0.0
  0
MTEXT
  5
DED2
330
DED0
100
AcDbEntity
  8
0
  6
CONTINUOUS
 62
     5
100
AcDbMText
 10
-662.7965221977185
 20
11.90392009372095
 30
0.0
 40
2.5
 41
0.0
 71
     5
 72
     1
  1
\A1;R6.0
  7
ROMANT
 11
0.8071784962553351
 21
0.5903074412397118
 31
0.0
1001
ACAD
1000
MTEXTBEGIN
1070
    73
1070
     1
1070
    44
1040
1.0
1070
    74
1070
     0
1000
MTEXTEND
  0
SOLID
  5
DED3
330
DED0
100
AcDbEntity
  8
0
  6
CONTINUOUS
 62
     5
100
AcDbTrace
 10
-680.1764952906403
 20
-3.177866857294986
 30
0.0
 11
-679.7829569964805
 21
-3.715985854798532
 31
0.0
 12
-681.594083136071
 22
-4.627541238526134
 32
0.0
 13
-681.594083136071
 23
-4.627541238526134
 33
0.0
  0
POINT
  5
DED4
330
DED0
100
AcDbEntity
  8
DEFPOINTS
  6
CONTINUOUS
 62
     0
100
AcDbPoint
 10
-681.594083136071
 20
-4.627541238526134
 30
0.0
  0
POINT
  5
DED5
330
DED0
100
AcDbEntity
  8
DEFPOINTS
  6
CONTINUOUS
 62
     0
100
AcDbPoint
 10
-667.0648702034741
 20
5.99799270378935
 30
0.0
  0
ENDBLK
  5
DED7
330
DED0
100
AcDbEntity
  8
0
100
AcDbBlockEnd
  0
BLOCK
  5
DEE1
330
DED9
100
AcDbEntity
  8
0
100
AcDbBlockBegin
  2
*D9
 70
     1
 10
0.0
 20
0.0
 30
0.0
  3
*D9
  1

  0
LINE
  5
DEDA
330
DED9
100
AcDbEntity
  8
0
  6
CONTINUOUS
 62
     5
100
AcDbLine
 10
-636.4619533117355
 20
16.39183868268782
 30
0.0
 11
-644.8163161442696
 21
7.032839655885197
 31
0.0
  0
MTEXT
  5
DEDB
330
DED9
100
AcDbEntity
  8
0
  6
CONTINUOUS
 62
     5
100
AcDbMText
 10
-641.6498653953229
 20
13.95503392518583
 30
0.0
 40
2.5
 41
0.0
 71
     5
 72
     1
  1
\A1;R0.6
  7
ROMANT
 11
0.6659321023735299
 21
0.7460123558148153
 31
0.0
1001
ACAD
1000
MTEXTBEGIN
1070
    73
1070
     1
1070
    44
1040
1.0
1070
    74
1070
     0
1000
MTEXTEND
  0
SOLID
  5
DEDC
330
DED9
100
AcDbEntity
  8
0
  6
CONTINUOUS
 62
     5
100
AcDbTrace
 10
-645.0649869295411
 20
7.254817023343036
 30
0.0
 11
-644.5676453589981
 21
6.810862288427358
 31
0.0
 12
-646.1481803490166
 22
5.540814944255544
 32
0.0
 13
-646.1481803490166
 23
5.540814944255544
 33
0.0
  0
LINE
  5
DEDD
330
DED9
100
AcDbEntity
  8
0
  6
CONTINUOUS
 62
     5
100
AcDbLine
 10
-647.4368581332891
 20
4.197992703788941
 30
0.0
 11
-647.2568581332891
 21
4.197992703788941
 31
0.0
  0
LINE
  5
DEDE
330
DED9
100
AcDbEntity
  8
0
  6
CONTINUOUS
 62
     5
100
AcDbLine
 10
-647.346858133289
 20
4.107992703788966
 30
0.0
 11
-647.346858133289
 21
4.287992703788972
 31
0.0
  0
POINT
  5
DEDF
330
DED9
100
AcDbEntity
  8
DEFPOINTS
  6
CONTINUOUS
 62
     0
100
AcDbPoint
 10
-646.1481803490166
 20
5.540814944255544
 30
0.0
  0
POINT
  5
DEE0
330
DED9
100
AcDbEntity
  8
DEFPOINTS
  6
CONTINUOUS
 62
     0
100
AcDbPoint
 10
-647.346858133289
 20
4.197992703788941
 30
0.0
  0
ENDBLK
  5
DEE2
330
DED9
100
AcDbEntity
  8
0
100
AcDbBlockEnd
  0
ENDSEC
  0
SECTION
  2
ENTITIES
  0
TEXT
  5
5F1C
330
A
100
AcDbEntity
  8
ANA
 62
     7
100
AcDbText
 10
383.0953914777967
 20
-258.9711579041849
 30
0.0
 40
2.0
  1

 51
22.0
  7
ROMANT
100
AcDbText
  0
TEXT
  5
A16F
330
A
100
AcDbEntity
  8
ANA
 62
     7
100
AcDbText
 10
-758.7462754396037
 20
-98.84862029467043
 30
0.0
 40
1.6
  1

  7
ROMANT
100
AcDbText
  0
POLYLINE
  5
DE77
330
A
100
AcDbEntity
  8
ANA
 62
     0
100
AcDb2dPolyline
 66
     1
 10
0.0
 20
0.0
 30
0.0
 70
     1
  0
VERTEX
  5
DF2D
330
DE77
100
AcDbEntity
  8
ANA
 62
     0
100
AcDbVertex
100
AcDb2dVertex
 10
-641.3344865707564
 20
96.25666604887584
 30
0.0
 42
-1.0
  0
VERTEX
  5
DF2E
330
DE77
100
AcDbEntity
  8
ANA
 62
     0
100
AcDbVertex
100
AcDb2dVertex
 10
-640.1344865707565
 20
96.25666604887584
 30
0.0
  0
VERTEX
  5
DF2F
330
DE77
100
AcDbEntity
  8
ANA
 62
     0
100
AcDbVertex
100
AcDb2dVertex
 10
-640.1344865707565
 20
86.05666604887579
 30
0.0
 42
0.9554879614778654
  0
VERTEX
  5
DF30
330
DE77
100
AcDbEntity
  8
ANA
 62
     0
100
AcDbVertex
100
AcDb2dVertex
 10
-628.1593313979729
 20
85.51121150342126
 30
0.0
 42
-0.9999999999999998
  0
VERTEX
  5
DF31
330
DE77
100
AcDbEntity
  8
ANA
 62
     0
100
AcDbVertex
100
AcDb2dVertex
 10
-626.964300363416
 20
85.40212059433036
 30
0.0
 42
-0.955487961477864
  0
VERTEX
  5
DF32
330
DE77
100
AcDbEntity
  8
ANA
 62
     0
100
AcDbVertex
100
AcDb2dVertex
 10
-641.3344865707564
 20
86.05666604887579
 30
0.0
  0
SEQEND
  5
DF33
330
DE77
100
AcDbEntity
  8
ANA
 62
     0
  0
ENDSEC
  0
SECTION
  2
OBJECTS
  0
DICTIONARY
  5
19
330
0
100
AcDbDictionary
  3
ACAD_GROUP
350
1A
  3
ACAD_LAYOUT
350
6CB
  3
ACAD_MLINESTYLE
350
1B
  3
ACAD_PLOTSETTINGS
350
6CC
1001
ACAD
1000
TREAT_AS_HARD
1070
     0
  0
DICTIONARY
  5
DF29
330
A
100
AcDbDictionary
  3
ACAD_LAYOUTSELFREF
350
DF2A
  0
DICTIONARY
  5
DF2B
330
B
100
AcDbDictionary
  3
ACAD_LAYOUTSELFREF
350
DF2C
  0
DICTIONARY
  5
1A
102
{ACAD_REACTORS
330
19
102
}
330
19
100
AcDbDictionary
1001
ACAD
1000
TREAT_AS_HARD
1070
     0
  0
DICTIONARY
  5
6CB
102
{ACAD_REACTORS
330
19
102
}
330
19
100
AcDbDictionary
1001
ACAD
1000
TREAT_AS_HARD
1070
     0
  0
DICTIONARY
  5
1B
102
{ACAD_REACTORS
330
19
102
}
330
19
100
AcDbDictionary
  3
STANDARD
350
1C
1001
ACAD
1000
TREAT_AS_HARD
1070
     0
  0
DICTIONARY
  5
6CC
102
{ACAD_REACTORS
330
19
102
}
330
19
100
AcDbDictionary
1001
ACAD
1000
TREAT_AS_HARD
1070
     0
  0
XRECORD
  5
DF2A
102
{ACAD_REACTORS
330
DF29
102
}
330
DF29
100
AcDbXrecord
340
A
  0
XRECORD
  5
DF2C
102
{ACAD_REACTORS
330
DF2B
102
}
330
DF2B
100
AcDbXrecord
340
B
  0
MLINESTYLE
  5
1C
102
{ACAD_REACTORS
330
1B
102
}
330
1B
100
AcDbMlineStyle
  2
STANDARD
 70
     0
  3

 62
     0
 51
90.00000000000019
 52
90.00000000000019
 71
     2
 49
0.5
 62
   256
  6
BYLAYER
 49
-0.5
 62
   256
  6
BYLAYER
  0
ENDSEC
  0
EOF
