  0
SECTION
  2
HEADER
  9
$ACADVER
  1
AC1009
  9
$INSBASE
 10
0.0
 20
0.0
 30
0.0
  9
$EXTMIN
 10
826.16363719357605
 20
711.49301299440322
 30
-0.0015258207003583
  9
$EXTMAX
 10
856.38061672027766
 20
740.72351195025658
 30
0.0000000349246037
  9
$LIMMIN
 10
0.0
 20
0.0
  9
$LIMMAX
 10
420.0
 20
297.0
  9
$ORTHOMODE
 70
     0
  9
$REGENMODE
 70
     1
  9
$FILLMODE
 70
     1
  9
$QTEXTMODE
 70
     0
  9
$MIRRTEXT
 70
     0
  9
$DRAGMODE
 70
     2
  9
$LTSCALE
 40
1.0
  9
$OSMODE
 70
  3071
  9
$ATTMODE
 70
     1
  9
$TEXTSIZE
 40
2.5
  9
$TRACEWID
 40
1.0
  9
$TEXTSTYLE
  7
STANDARD
  9
$CLAYER
  8
0
  9
$CELTYPE
  6
BYLAYER
  9
$CECOLOR
 62
   256
  9
$DIMSCALE
 40
1.0
  9
$DIMASZ
 40
2.5
  9
$DIMEXO
 40
0.625
  9
$DIMDLI
 40
3.75
  9
$DIMRND
 40
0.0
  9
$DIMDLE
 40
0.0
  9
$DIMEXE
 40
1.25
  9
$DIMTP
 40
0.0
  9
$DIMTM
 40
0.0
  9
$DIMTXT
 40
2.5
  9
$DIMCEN
 40
2.5
  9
$DIMTSZ
 40
0.0
  9
$DIMTOL
 70
     0
  9
$DIMLIM
 70
     0
  9
$DIMTIH
 70
     0
  9
$DIMTOH
 70
     0
  9
$DIMSE1
 70
     0
  9
$DIMSE2
 70
     0
  9
$DIMTAD
 70
     1
  9
$DIMZIN
 70
     8
  9
$DIMBLK
  1

  9
$DIMASO
 70
     1
  9
$DIMSHO
 70
     1
  9
$DIMPOST
  1

  9
$DIMAPOST
  1

  9
$DIMALT
 70
     0
  9
$DIMALTD
 70
     3
  9
$DIMALTF
 40
0.03937007874016
  9
$DIMLFAC
 40
1.0
  9
$DIMTOFL
 70
     1
  9
$DIMTVP
 40
0.0
  9
$DIMTIX
 70
     0
  9
$DIMSOXD
 70
     0
  9
$DIMSAH
 70
     0
  9
$DIMBLK1
  1

  9
$DIMBLK2
  1

  9
$DIMSTYLE
  2
ISO-25
  9
$DIMCLRD
 70
     0
  9
$DIMCLRE
 70
     0
  9
$DIMCLRT
 70
     0
  9
$DIMTFAC
 40
1.0
  9
$DIMGAP
 40
0.625
  9
$LUNITS
 70
     2
  9
$LUPREC
 70
     4
  9
$SKETCHINC
 40
1.0
  9
$FILLETRAD
 40
0.0
  9
$AUNITS
 70
     0
  9
$AUPREC
 70
     0
  9
$MENU
  1
.
  9
$ELEVATION
 40
0.0
  9
$PELEVATION
 40
0.0
  9
$THICKNESS
 40
0.0
  9
$LIMCHECK
 70
     0
  9
$BLIPMODE
 70
     0
  9
$CHAMFERA
 40
0.0
  9
$CHAMFERB
 40
0.0
  9
$SKPOLY
 70
     0
  9
$TDCREATE
 40
2456553.3739053709
  9
$TDUPDATE
 40
2456553.3741957531
  9
$TDINDWG
 40
0.0002907407
  9
$TDUSRTIMER
 40
0.0002905556
  9
$USRTIMER
 70
     1
  9
$ANGBASE
 50
0.0
  9
$ANGDIR
 70
     0
  9
$PDMODE
 70
     0
  9
$PDSIZE
 40
0.0
  9
$PLINEWID
 40
0.0
  9
$COORDS
 70
     0
  9
$SPLFRAME
 70
     0
  9
$SPLINETYPE
 70
     6
  9
$SPLINESEGS
 70
     8
  9
$ATTDIA
 70
     0
  9
$ATTREQ
 70
     1
  9
$HANDLING
 70
     1
  9
$HANDSEED
  5
346
  9
$SURFTAB1
 70
     6
  9
$SURFTAB2
 70
     6
  9
$SURFTYPE
 70
     6
  9
$SURFU
 70
     6
  9
$SURFV
 70
     6
  9
$UCSNAME
  2

  9
$UCSORG
 10
0.0
 20
0.0
 30
0.0
  9
$UCSXDIR
 10
1.0
 20
0.0
 30
0.0
  9
$UCSYDIR
 10
0.0
 20
1.0
 30
0.0
  9
$PUCSNAME
  2

  9
$PUCSORG
 10
0.0
 20
0.0
 30
0.0
  9
$PUCSXDIR
 10
1.0
 20
0.0
 30
0.0
  9
$PUCSYDIR
 10
0.0
 20
1.0
 30
0.0
  9
$USERI1
 70
     0
  9
$USERI2
 70
     0
  9
$USERI3
 70
     0
  9
$USERI4
 70
     0
  9
$USERI5
 70
     0
  9
$USERR1
 40
0.0
  9
$USERR2
 40
0.0
  9
$USERR3
 40
0.0
  9
$USERR4
 40
0.0
  9
$USERR5
 40
0.0
  9
$WORLDVIEW
 70
     1
  9
$SHADEDGE
 70
     3
  9
$SHADEDIF
 70
    70
  9
$TILEMODE
 70
     1
  9
$MAXACTVP
 70
    64
  9
$PLIMCHECK
 70
     0
  9
$PEXTMIN
 10
0.0
 20
0.0
 30
0.0
  9
$PEXTMAX
 10
0.0
 20
0.0
 30
0.0
  9
$PLIMMIN
 10
0.0
 20
0.0
  9
$PLIMMAX
 10
12.0
 20
9.0
  9
$UNITMODE
 70
     0
  9
$VISRETAIN
 70
     1
  9
$PLINEGEN
 70
     0
  9
$PSLTSCALE
 70
     1
  0
ENDSEC
  0
SECTION
  2
TABLES
  0
TABLE
  2
VPORT
 70
     2
  0
VPORT
  2
*ACTIVE
 70
     0
 10
0.0
 20
0.0
 11
1.0
 21
1.0
 12
841.27212695692685
 22
726.10826247232978
 13
0.0
 23
0.0
 14
10.0
 24
10.0
 15
10.0
 25
10.0
 16
0.0
 26
0.0
 36
1.0
 17
0.0
 27
0.0
 37
0.0
 40
29.50157004354287
 41
2.0743034055727549
 42
50.0
 43
0.0
 44
0.0
 50
0.0
 51
0.0
 71
     0
 72
  1000
 73
     1
 74
     3
 75
     0
 76
     0
 77
     0
 78
     0
  0
ENDTAB
  0
TABLE
  2
LTYPE
 70
     1
  0
LTYPE
  2
CONTINUOUS
 70
     0
  3
Solid line
 72
    65
 73
     0
 40
0.0
  0
ENDTAB
  0
TABLE
  2
LAYER
 70
     2
  0
LAYER
  2
0
 70
     0
 62
     7
  6
CONTINUOUS
  0
LAYER
  2
ANA
 70
     0
 62
   220
  6
CONTINUOUS
  0
ENDTAB
  0
TABLE
  2
STYLE
 70
     2
  0
STYLE
  2
STANDARD
 70
     0
 40
0.0
 41
1.0
 50
0.0
 71
     0
 42
2.5
  3
txt
  4

  0
STYLE
  2
ROMANT
 70
     0
 40
2.5
 41
1.0
 50
15.0
 71
     0
 42
2.5
  3
C:\ACADR13\COMMON\FONTS\romant.shx
  4

  0
ENDTAB
  0
TABLE
  2
VIEW
 70
     0
  0
ENDTAB
  0
TABLE
  2
UCS
 70
     0
  0
ENDTAB
  0
TABLE
  2
APPID
 70
     1
  0
APPID
  2
ACAD
 70
     0
  0
ENDTAB
  0
TABLE
  2
DIMSTYLE
 70
     2
  0
DIMSTYLE
  2
ISO-25
 70
     0
  3

  4

  5

  6

  7

 40
1.0
 41
2.5
 42
0.625
 43
3.75
 44
1.25
 45
0.0
 46
0.0
 47
0.0
 48
0.0
140
2.5
141
2.5
142
0.0
143
0.03937007874016
144
1.0
145
0.0
146
1.0
147
0.625
 71
     0
 72
     0
 73
     0
 74
     0
 75
     0
 76
     0
 77
     1
 78
     8
170
     0
171
     3
172
     1
173
     0
174
     0
175
     0
176
     0
177
     0
178
     0
  0
DIMSTYLE
  2
STANDARD
 70
     0
  3

  4

  5

  6

  7

 40
1.0
 41
0.18
 42
0.0625
 43
0.38
 44
0.18
 45
0.0
 46
0.0
 47
0.0
 48
0.0
140
0.18
141
0.09
142
0.0
143
25.399999999999999
144
1.0
145
0.0
146
1.0
147
0.09
 71
     0
 72
     0
 73
     1
 74
     1
 75
     0
 76
     0
 77
     0
 78
     0
170
     0
171
     2
172
     0
173
     0
174
     0
175
     0
176
     0
177
     0
178
     0
  0
ENDTAB
  0
ENDSEC
  0
SECTION
  2
BLOCKS
  0
BLOCK
  8
0
  2
$MODEL_SPACE
 70
     0
 10
0.0
 20
0.0
 30
0.0
  3
$MODEL_SPACE
  1

  0
ENDBLK
  5
21
  8
0
  0
BLOCK
 67
     1
  8
0
  2
$PAPER_SPACE
 70
     0
 10
0.0
 20
0.0
 30
0.0
  3
$PAPER_SPACE
  1

  0
ENDBLK
  5
53
 67
     1
  8
0
  0
BLOCK
  8
0
  2
*X1
 70
     1
 10
0.0
 20
0.0
 30
0.0
  3
*X1
  1

  0
LINE
  5
83
  8
0
 62
     0
 10
246.6306557886187
 20
242.5647917967961
 30
0.0
 11
248.58426074221529
 21
244.5183967503927
 31
0.0
  0
LINE
  5
84
  8
0
 62
     0
 10
258.8853215209229
 20
254.81945752910019
 30
0.0
 11
264.25978883288587
 21
260.19392484106322
 31
0.0
  0
LINE
  5
85
  8
0
 62
     0
 10
246.5968379449088
 20
242.70775064838281
 30
0.0
 11
248.58426074221529
 21
244.69517344568931
 31
0.0
  0
LINE
  5
86
  8
0
 62
     0
 10
258.74236266933622
 20
254.8532753728102
 30
0.0
 11
264.22036862078022
 21
260.33128132425418
 31
0.0
  0
LINE
  5
87
  8
0
 62
     0
 10
246.58426074221541
 20
242.871950140986
 30
0.0
 11
248.58426074221529
 21
244.87195014098589
 31
0.0
  0
LINE
  5
88
  8
0
 62
     0
 10
258.57816317673303
 20
254.8658525755036
 30
0.0
 11
264.18520604197312
 21
260.47289544074363
 31
0.0
  0
LINE
  5
89
  8
0
 62
     0
 10
246.58426074221541
 20
243.04872683628261
 30
0.0
 11
248.58426074221529
 21
245.04872683628261
 31
0.0
  0
LINE
  5
8A
  8
0
 62
     0
 10
261.50030166287161
 20
257.9647677569389
 30
0.0
 11
264.15459183118088
 21
260.61905792524823
 31
0.0
  0
LINE
  5
8B
  8
0
 62
     0
 10
258.40138648143642
 20
254.8658525755036
 30
0.0
 11
260.9853455607801
 21
257.44981165484728
 31
0.0
  0
LINE
  5
8C
  8
0
 62
     0
 10
246.58426074221541
 20
243.22550353157931
 30
0.0
 11
248.58426074221529
 21
245.22550353157919
 31
0.0
  0
LINE
  5
8D
  8
0
 62
     0
 10
261.57264695041448
 20
258.21388973977838
 30
0.0
 11
264.12887239681152
 21
260.7701151861753
 31
0.0
  0
LINE
  5
8E
  8
0
 62
     0
 10
258.22460978613969
 20
254.8658525755036
 30
0.0
 11
260.73622357794051
 21
257.37746636730452
 31
0.0
  0
LINE
  5
8F
  8
0
 62
     0
 10
246.58426074221541
 20
243.40228022687589
 30
0.0
 11
248.58426074221529
 21
245.40228022687589
 31
0.0
  0
LINE
  5
90
  8
0
 62
     0
 10
261.58426074221529
 20
258.40228022687592
 30
0.0
 11
264.10846455868779
 21
260.9264840433483
 31
0.0
  0
LINE
  5
91
  8
0
 62
     0
 10
258.04783309084308
 20
254.8658525755036
 30
0.0
 11
260.54783309084308
 21
257.3658525755036
 31
0.0
  0
LINE
  5
92
  8
0
 62
     0
 10
246.58426074221541
 20
243.5790569221725
 30
0.0
 11
248.58426074221529
 21
245.5790569221725
 31
0.0
  0
LINE
  5
93
  8
0
 62
     0
 10
261.58426074221529
 20
258.57905692217253
 30
0.0
 11
264.09387592531812
 21
261.08867210527518
 31
0.0
  0
LINE
  5
94
  8
0
 62
     0
 10
257.87105639554647
 20
254.8658525755036
 30
0.0
 11
260.37105639554647
 21
257.3658525755036
 31
0.0
  0
LINE
  5
95
  8
0
 62
     0
 10
246.58426074221541
 20
243.75583361746919
 30
0.0
 11
248.58426074221529
 21
245.75583361746911
 31
0.0
  0
LINE
  5
96
  8
0
 62
     0
 10
261.58426074221529
 20
258.75583361746908
 30
0.0
 11
264.08573379027081
 21
261.2573066655246
 31
0.0
  0
LINE
  5
97
  8
0
 62
     0
 10
257.69427970024981
 20
254.8658525755036
 30
0.0
 11
260.19427970024981
 21
257.3658525755036
 31
0.0
  0
LINE
  5
98
  8
0
 62
     0
 10
246.58426074221541
 20
243.9326103127658
 30
0.0
 11
248.58426074221529
 21
245.9326103127658
 31
0.0
  0
LINE
  5
99
  8
0
 62
     0
 10
261.58426074221529
 20
258.93261031276569
 30
0.0
 11
264.08426074221529
 21
261.4326103127658
 31
0.0
  0
LINE
  5
9A
  8
0
 62
     0
 10
257.5175030049532
 20
254.8658525755036
 30
0.0
 11
260.0175030049532
 21
257.3658525755036
 31
0.0
  0
LINE
  5
9B
  8
0
 62
     0
 10
246.58426074221541
 20
244.10938700806241
 30
0.0
 11
248.58426074221529
 21
246.10938700806241
 31
0.0
  0
LINE
  5
9C
  8
0
 62
     0
 10
261.58426074221529
 20
259.10938700806241
 30
0.0
 11
264.08426074221529
 21
261.60938700806241
 31
0.0
  0
LINE
  5
9D
  8
0
 62
     0
 10
257.34072630965647
 20
254.8658525755036
 30
0.0
 11
259.84072630965659
 21
257.3658525755036
 31
0.0
  0
LINE
  5
9E
  8
0
 62
     0
 10
246.58426074221541
 20
244.28616370335911
 30
0.0
 11
248.58426074221529
 21
246.28616370335899
 31
0.0
  0
LINE
  5
9F
  8
0
 62
     0
 10
261.58426074221529
 20
259.28616370335902
 30
0.0
 11
264.08426074221529
 21
261.78616370335902
 31
0.0
  0
LINE
  5
A0
  8
0
 62
     0
 10
257.16394961435992
 20
254.8658525755036
 30
0.0
 11
259.66394961435992
 21
257.3658525755036
 31
0.0
  0
LINE
  5
A1
  8
0
 62
     0
 10
246.58426074221541
 20
244.46294039865569
 30
0.0
 11
248.58426074221529
 21
246.46294039865569
 31
0.0
  0
LINE
  5
A2
  8
0
 62
     0
 10
261.58426074221529
 20
259.46294039865569
 30
0.0
 11
264.08426074221529
 21
261.96294039865558
 31
0.0
  0
LINE
  5
A3
  8
0
 62
     0
 10
256.98717291906331
 20
254.8658525755036
 30
0.0
 11
259.48717291906331
 21
257.3658525755036
 31
0.0
  0
LINE
  5
A4
  8
0
 62
     0
 10
246.58426074221541
 20
244.63971709395241
 30
0.0
 11
248.58426074221529
 21
246.6397170939523
 31
0.0
  0
LINE
  5
A5
  8
0
 62
     0
 10
261.58426074221529
 20
259.6397170939523
 30
0.0
 11
264.08426074221529
 21
262.1397170939523
 31
0.0
  0
LINE
  5
A6
  8
0
 62
     0
 10
256.81039622376659
 20
254.8658525755036
 30
0.0
 11
259.3103962237667
 21
257.3658525755036
 31
0.0
  0
LINE
  5
A7
  8
0
 62
     0
 10
246.58426074221541
 20
244.81649378924899
 30
0.0
 11
248.58426074221529
 21
246.81649378924899
 31
0.0
  0
LINE
  5
A8
  8
0
 62
     0
 10
261.58426074221529
 20
259.81649378924902
 30
0.0
 11
264.08426074221529
 21
262.31649378924891
 31
0.0
  0
LINE
  5
A9
  8
0
 62
     0
 10
256.63361952846998
 20
254.8658525755036
 30
0.0
 11
259.13361952846998
 21
257.3658525755036
 31
0.0
  0
LINE
  5
AA
  8
0
 62
     0
 10
246.58426074221541
 20
244.9932704845456
 30
0.0
 11
248.58426074221529
 21
246.9932704845456
 31
0.0
  0
LINE
  5
AB
  8
0
 62
     0
 10
261.58426074221529
 20
259.99327048454558
 30
0.0
 11
264.08426074221529
 21
262.49327048454558
 31
0.0
  0
LINE
  5
AC
  8
0
 62
     0
 10
256.45684283317343
 20
254.8658525755036
 30
0.0
 11
258.95684283317343
 21
257.3658525755036
 31
0.0
  0
LINE
  5
AD
  8
0
 62
     0
 10
246.58426074221541
 20
245.1700471798423
 30
0.0
 11
248.58426074221529
 21
247.17004717984219
 31
0.0
  0
LINE
  5
AE
  8
0
 62
     0
 10
261.58426074221529
 20
260.1700471798423
 30
0.0
 11
264.08426074221529
 21
262.67004717984219
 31
0.0
  0
LINE
  5
AF
  8
0
 62
     0
 10
256.2800661378767
 20
254.8658525755036
 30
0.0
 11
258.78006613787682
 21
257.3658525755036
 31
0.0
  0
LINE
  5
B0
  8
0
 62
     0
 10
246.58426074221541
 20
245.34682387513891
 30
0.0
 11
248.58426074221529
 21
247.3468238751388
 31
0.0
  0
LINE
  5
B1
  8
0
 62
     0
 10
261.58426074221529
 20
260.34682387513891
 30
0.0
 11
264.08426074221529
 21
262.84682387513891
 31
0.0
  0
LINE
  5
B2
  8
0
 62
     0
 10
256.10328944258009
 20
254.8658525755036
 30
0.0
 11
258.60328944258009
 21
257.3658525755036
 31
0.0
  0
LINE
  5
B3
  8
0
 62
     0
 10
246.58426074221541
 20
245.52360057043549
 30
0.0
 11
248.58426074221529
 21
247.52360057043549
 31
0.0
  0
LINE
  5
B4
  8
0
 62
     0
 10
261.58426074221529
 20
260.52360057043552
 30
0.0
 11
264.08426074221529
 21
263.02360057043552
 31
0.0
  0
LINE
  5
B5
  8
0
 62
     0
 10
255.9265127472834
 20
254.8658525755036
 30
0.0
 11
258.42651274728348
 21
257.3658525755036
 31
0.0
  0
LINE
  5
B6
  8
0
 62
     0
 10
246.58426074221541
 20
245.70037726573219
 30
0.0
 11
248.58426074221529
 21
247.7003772657321
 31
0.0
  0
LINE
  5
B7
  8
0
 62
     0
 10
261.58426074221529
 20
260.70037726573207
 30
0.0
 11
264.08426074221529
 21
263.20037726573207
 31
0.0
  0
LINE
  5
B8
  8
0
 62
     0
 10
255.74973605198679
 20
254.8658525755036
 30
0.0
 11
258.24973605198682
 21
257.3658525755036
 31
0.0
  0
LINE
  5
B9
  8
0
 62
     0
 10
246.58426074221541
 20
245.8771539610288
 30
0.0
 11
248.58426074221529
 21
247.8771539610288
 31
0.0
  0
LINE
  5
BA
  8
0
 62
     0
 10
261.58426074221529
 20
260.87715396102868
 30
0.0
 11
264.08426074221529
 21
263.37715396102868
 31
0.0
  0
LINE
  5
BB
  8
0
 62
     0
 10
255.57295935669009
 20
254.8658525755036
 30
0.0
 11
258.07295935669021
 21
257.3658525755036
 31
0.0
  0
LINE
  5
BC
  8
0
 62
     0
 10
246.58426074221541
 20
246.05393065632549
 30
0.0
 11
248.58426074221529
 21
248.05393065632541
 31
0.0
  0
LINE
  5
BD
  8
0
 62
     0
 10
261.58426074221529
 20
261.05393065632541
 30
0.0
 11
264.08426074221529
 21
263.55393065632541
 31
0.0
  0
LINE
  5
BE
  8
0
 62
     0
 10
255.54349763495691
 20
255.01316754906691
 30
0.0
 11
257.8961826613936
 21
257.3658525755036
 31
0.0
  0
LINE
  5
BF
  8
0
 62
     0
 10
246.58426074221541
 20
246.2307073516221
 30
0.0
 11
248.58426074221529
 21
248.2307073516221
 31
0.0
  0
LINE
  5
C0
  8
0
 62
     0
 10
261.58426074221529
 20
261.23070735162202
 30
0.0
 11
264.08426074221529
 21
263.73070735162202
 31
0.0
  0
LINE
  5
C1
  8
0
 62
     0
 10
255.5038710910986
 20
255.1503177005053
 30
0.0
 11
257.71940596609687
 21
257.3658525755036
 31
0.0
  0
LINE
  5
C2
  8
0
 62
     0
 10
246.58426074221541
 20
246.40748404691871
 30
0.0
 11
248.58426074221529
 21
248.40748404691871
 31
0.0
  0
LINE
  5
C3
  8
0
 62
     0
 10
261.58426074221529
 20
261.40748404691868
 30
0.0
 11
264.08426074221529
 21
263.90748404691868
 31
0.0
  0
LINE
  5
C4
  8
0
 62
     0
 10
255.4540101450589
 20
255.27723344976221
 30
0.0
 11
257.54262927080021
 21
257.3658525755036
 31
0.0
  0
LINE
  5
C5
  8
0
 62
     0
 10
246.58426074221541
 20
246.58426074221541
 30
0.0
 11
248.58426074221529
 21
248.58426074221529
 31
0.0
  0
LINE
  5
C6
  8
0
 62
     0
 10
261.58426074221529
 20
261.58426074221529
 30
0.0
 11
264.08426074221529
 21
264.08426074221529
 31
0.0
  0
LINE
  5
C7
  8
0
 62
     0
 10
255.3950751561735
 20
255.3950751561735
 30
0.0
 11
257.3658525755036
 21
257.3658525755036
 31
0.0
  0
LINE
  5
C8
  8
0
 62
     0
 10
246.58426074221541
 20
246.76103743751199
 30
0.0
 11
248.58426074221529
 21
248.7610374375119
 31
0.0
  0
LINE
  5
C9
  8
0
 62
     0
 10
261.58426074221529
 20
261.76103743751202
 30
0.0
 11
264.08426074221529
 21
264.26103743751202
 31
0.0
  0
LINE
  5
CA
  8
0
 62
     0
 10
255.3278364897553
 20
255.50461318505191
 30
0.0
 11
257.18907588020699
 21
257.3658525755036
 31
0.0
  0
LINE
  5
CB
  8
0
 62
     0
 10
246.58426074221541
 20
246.9378141328086
 30
0.0
 11
248.58426074221529
 21
248.9378141328086
 31
0.0
  0
LINE
  5
CC
  8
0
 62
     0
 10
261.58426074221529
 20
261.93781413280863
 30
0.0
 11
264.08426074221529
 21
264.43781413280863
 31
0.0
  0
LINE
  5
CD
  8
0
 62
     0
 10
255.2527938881571
 20
255.60634727875029
 30
0.0
 11
257.01229918491038
 21
257.3658525755036
 31
0.0
  0
LINE
  5
CE
  8
0
 62
     0
 10
246.58426074221541
 20
247.11459082810521
 30
0.0
 11
248.58426074221529
 21
249.11459082810521
 31
0.0
  0
LINE
  5
CF
  8
0
 62
     0
 10
261.58426074221529
 20
262.11459082810518
 30
0.0
 11
264.08426074221529
 21
264.61459082810518
 31
0.0
  0
LINE
  5
D0
  8
0
 62
     0
 10
255.17024205718999
 20
255.70057214308
 30
0.0
 11
256.83552248961371
 21
257.3658525755036
 31
0.0
  0
LINE
  5
D1
  8
0
 62
     0
 10
246.58426074221541
 20
247.2913675234019
 30
0.0
 11
248.58426074221529
 21
249.2913675234019
 31
0.0
  0
LINE
  5
D2
  8
0
 62
     0
 10
261.58426074221529
 20
262.29136752340179
 30
0.0
 11
264.08426074221529
 21
264.79136752340179
 31
0.0
  0
LINE
  5
D3
  8
0
 62
     0
 10
255.0803051852759
 20
255.7874119664624
 30
0.0
 11
256.6587457943171
 21
257.3658525755036
 31
0.0
  0
LINE
  5
D4
  8
0
 62
     0
 10
246.58426074221541
 20
247.4681442186986
 30
0.0
 11
248.58426074221529
 21
249.46814421869851
 31
0.0
  0
LINE
  5
D5
  8
0
 62
     0
 10
261.58426074221529
 20
262.46814421869851
 30
0.0
 11
264.08426074221529
 21
264.96814421869851
 31
0.0
  0
LINE
  5
D6
  8
0
 62
     0
 10
254.98295059376559
 20
255.86683407024881
 30
0.0
 11
256.48196909902049
 21
257.3658525755036
 31
0.0
  0
LINE
  5
D7
  8
0
 62
     0
 10
246.58426074221541
 20
247.64492091399521
 30
0.0
 11
248.58426074221529
 21
249.64492091399521
 31
0.0
  0
LINE
  5
D8
  8
0
 62
     0
 10
261.58426074221529
 20
262.64492091399512
 30
0.0
 11
264.08426074221529
 21
265.14492091399512
 31
0.0
  0
LINE
  5
D9
  8
0
 62
     0
 10
254.87798519585331
 20
255.93864536763309
 30
0.0
 11
256.30519240372382
 21
257.3658525755036
 31
0.0
  0
LINE
  5
DA
  8
0
 62
     0
 10
246.58426074221541
 20
247.82169760929179
 30
0.0
 11
248.58426074221529
 21
249.82169760929179
 31
0.0
  0
LINE
  5
DB
  8
0
 62
     0
 10
261.58426074221529
 20
262.82169760929179
 30
0.0
 11
264.08426074221529
 21
265.32169760929168
 31
0.0
  0
LINE
  5
DC
  8
0
 62
     0
 10
254.7650338300077
 20
256.00247069708422
 30
0.0
 11
256.1284157084271
 21
257.3658525755036
 31
0.0
  0
LINE
  5
DD
  8
0
 62
     0
 10
246.58426074221541
 20
247.99847430458851
 30
0.0
 11
248.58426074221529
 21
249.9984743045884
 31
0.0
  0
LINE
  5
DE
  8
0
 62
     0
 10
261.58426074221529
 20
262.9984743045884
 30
0.0
 11
264.08426074221529
 21
265.4984743045884
 31
0.0
  0
LINE
  5
DF
  8
0
 62
     0
 10
254.64349345130961
 20
256.05770701368277
 30
0.0
 11
255.95163901313049
 21
257.3658525755036
 31
0.0
  0
LINE
  5
E0
  8
0
 62
     0
 10
246.58426074221541
 20
248.17525099988509
 30
0.0
 11
248.58426074221529
 21
250.17525099988509
 31
0.0
  0
LINE
  5
E1
  8
0
 62
     0
 10
261.58426074221529
 20
263.17525099988512
 30
0.0
 11
264.08426074221529
 21
265.67525099988501
 31
0.0
  0
LINE
  5
E2
  8
0
 62
     0
 10
254.5124488250469
 20
256.10343908271659
 30
0.0
 11
255.77486231783391
 21
257.3658525755036
 31
0.0
  0
LINE
  5
E3
  8
0
 62
     0
 10
246.58426074221541
 20
248.35202769518179
 30
0.0
 11
248.58426074221529
 21
250.3520276951817
 31
0.0
  0
LINE
  5
E4
  8
0
 62
     0
 10
261.58426074221529
 20
263.35202769518168
 30
0.0
 11
264.08426074221529
 21
265.85202769518168
 31
0.0
  0
LINE
  5
E5
  8
0
 62
     0
 10
254.37051790793291
 20
256.1382848608992
 30
0.0
 11
255.5980856225373
 21
257.3658525755036
 31
0.0
  0
LINE
  5
E6
  8
0
 62
     0
 10
246.58426074221541
 20
248.52880439047831
 30
0.0
 11
248.58426074221529
 21
250.52880439047831
 31
0.0
  0
LINE
  5
E7
  8
0
 62
     0
 10
261.58426074221529
 20
263.52880439047829
 30
0.0
 11
264.08426074221529
 21
266.02880439047829
 31
0.0
  0
LINE
  5
E8
  8
0
 62
     0
 10
254.21555207540291
 20
256.1600957236659
 30
0.0
 11
255.4213089272406
 21
257.3658525755036
 31
0.0
  0
LINE
  5
E9
  8
0
 62
     0
 10
246.58426074221541
 20
248.70558108577501
 30
0.0
 11
248.58426074221529
 21
250.70558108577501
 31
0.0
  0
LINE
  5
EA
  8
0
 62
     0
 10
261.58426074221529
 20
263.7055810857749
 30
0.0
 11
264.08426074221529
 21
266.2055810857749
 31
0.0
  0
LINE
  5
EB
  8
0
 62
     0
 10
254.04399159990899
 20
256.16531194346868
 30
0.0
 11
255.24453223194399
 21
257.3658525755036
 31
0.0
  0
LINE
  5
EC
  8
0
 62
     0
 10
246.58426074221541
 20
248.8823577810717
 30
0.0
 11
248.58426074221529
 21
250.88235778107159
 31
0.0
  0
LINE
  5
ED
  8
0
 62
     0
 10
261.58426074221529
 20
263.88235778107162
 30
0.0
 11
264.08426074221529
 21
266.38235778107151
 31
0.0
  0
LINE
  5
EE
  8
0
 62
     0
 10
252.5677555366473
 20
254.8658525755036
 30
0.0
 11
252.60278869989591
 21
254.90088573875221
 31
0.0
  0
LINE
  5
EF
  8
0
 62
     0
 10
253.84922757896661
 20
256.1473246178229
 30
0.0
 11
255.06775553664741
 21
257.3658525755036
 31
0.0
  0
LINE
  5
F0
  8
0
 62
     0
 10
246.58426074221541
 20
249.05913447636831
 30
0.0
 11
248.58426074221529
 21
251.0591344763682
 31
0.0
  0
LINE
  5
F1
  8
0
 62
     0
 10
261.58426074221529
 20
264.05913447636817
 30
0.0
 11
264.08426074221529
 21
266.55913447636817
 31
0.0
  0
LINE
  5
F2
  8
0
 62
     0
 10
252.39097884135069
 20
254.8658525755036
 30
0.0
 11
252.65921524439139
 21
255.1340889785443
 31
0.0
  0
LINE
  5
F3
  8
0
 62
     0
 10
253.61602433917449
 20
256.09089807332742
 30
0.0
 11
254.89097884135069
 21
257.3658525755036
 31
0.0
  0
LINE
  5
F4
  8
0
 62
     0
 10
246.58426074221541
 20
249.2359111716649
 30
0.0
 11
248.58426074221529
 21
251.2359111716649
 31
0.0
  0
LINE
  5
F5
  8
0
 62
     0
 10
261.58426074221529
 20
264.2359111716649
 30
0.0
 11
264.08426074221529
 21
266.7359111716649
 31
0.0
  0
LINE
  5
F6
  8
0
 62
     0
 10
252.21420214605411
 20
254.8658525755036
 30
0.0
 11
252.81746787470439
 21
255.46911830415391
 31
0.0
  0
LINE
  5
F7
  8
0
 62
     0
 10
253.28099501356479
 20
255.93264544301439
 30
0.0
 11
254.71420214605411
 21
257.3658525755036
 31
0.0
  0
LINE
  5
F8
  8
0
 62
     0
 10
246.58426074221541
 20
249.41268786696151
 30
0.0
 11
248.58426074221529
 21
251.41268786696151
 31
0.0
  0
LINE
  5
F9
  8
0
 62
     0
 10
261.58426074221529
 20
264.41268786696151
 30
0.0
 11
264.08426074221529
 21
266.91268786696151
 31
0.0
  0
LINE
  5
FA
  8
0
 62
     0
 10
252.03742545075741
 20
254.8658525755036
 30
0.0
 11
254.5374254507575
 21
257.3658525755036
 31
0.0
  0
LINE
  5
FB
  8
0
 62
     0
 10
246.58426074221541
 20
249.5894645622582
 30
0.0
 11
248.58426074221529
 21
251.58946456225809
 31
0.0
  0
LINE
  5
FC
  8
0
 62
     0
 10
261.58426074221529
 20
264.58946456225812
 30
0.0
 11
264.08426074221529
 21
267.08946456225812
 31
0.0
  0
LINE
  5
FD
  8
0
 62
     0
 10
251.86064875546069
 20
254.8658525755036
 30
0.0
 11
254.3606487554608
 21
257.3658525755036
 31
0.0
  0
LINE
  5
FE
  8
0
 62
     0
 10
246.58426074221541
 20
249.76624125755481
 30
0.0
 11
248.58426074221529
 21
251.76624125755481
 31
0.0
  0
LINE
  5
FF
  8
0
 62
     0
 10
261.58426074221529
 20
264.76624125755478
 30
0.0
 11
264.08426074221529
 21
267.26624125755478
 31
0.0
  0
LINE
  5
100
  8
0
 62
     0
 10
251.68387206016411
 20
254.8658525755036
 30
0.0
 11
254.18387206016419
 21
257.3658525755036
 31
0.0
  0
LINE
  5
101
  8
0
 62
     0
 10
246.58426074221541
 20
249.94301795285151
 30
0.0
 11
248.58426074221529
 21
251.94301795285139
 31
0.0
  0
LINE
  5
102
  8
0
 62
     0
 10
261.58426074221529
 20
264.94301795285139
 30
0.0
 11
264.08426074221529
 21
267.44301795285139
 31
0.0
  0
LINE
  5
103
  8
0
 62
     0
 10
251.5070953648675
 20
254.8658525755036
 30
0.0
 11
254.00709536486761
 21
257.3658525755036
 31
0.0
  0
LINE
  5
104
  8
0
 62
     0
 10
246.58426074221541
 20
250.11979464814809
 30
0.0
 11
248.58426074221529
 21
252.11979464814809
 31
0.0
  0
LINE
  5
105
  8
0
 62
     0
 10
261.58426074221529
 20
265.119794648148
 30
0.0
 11
264.08426074221529
 21
267.619794648148
 31
0.0
  0
LINE
  5
106
  8
0
 62
     0
 10
251.33031866957089
 20
254.8658525755036
 30
0.0
 11
253.83031866957089
 21
257.3658525755036
 31
0.0
  0
LINE
  5
107
  8
0
 62
     0
 10
246.58426074221541
 20
250.2965713434447
 30
0.0
 11
248.58426074221529
 21
252.2965713434447
 31
0.0
  0
LINE
  5
108
  8
0
 62
     0
 10
261.58426074221529
 20
265.29657134344473
 30
0.0
 11
264.08426074221529
 21
267.79657134344473
 31
0.0
  0
LINE
  5
109
  8
0
 62
     0
 10
251.15354197427419
 20
254.8658525755036
 30
0.0
 11
253.6535419742743
 21
257.3658525755036
 31
0.0
  0
LINE
  5
10A
  8
0
 62
     0
 10
246.58426074221541
 20
250.47334803874139
 30
0.0
 11
248.58426074221529
 21
252.47334803874131
 31
0.0
  0
LINE
  5
10B
  8
0
 62
     0
 10
261.58426074221529
 20
265.47334803874128
 30
0.0
 11
264.08426074221529
 21
267.97334803874128
 31
0.0
  0
LINE
  5
10C
  8
0
 62
     0
 10
250.97676527897761
 20
254.8658525755036
 30
0.0
 11
253.4820069368246
 21
257.37109423335062
 31
0.0
  0
LINE
  5
10D
  8
0
 62
     0
 10
246.58426074221541
 20
250.650124734038
 30
0.0
 11
248.58426074221529
 21
252.650124734038
 31
0.0
  0
LINE
  5
10E
  8
0
 62
     0
 10
261.58426074221529
 20
265.65012473403789
 30
0.0
 11
264.08426074221529
 21
268.150124734038
 31
0.0
  0
LINE
  5
10F
  8
0
 62
     0
 10
250.79998858368091
 20
254.8658525755036
 30
0.0
 11
253.33226122394089
 21
257.39812521576363
 31
0.0
  0
LINE
  5
110
  8
0
 62
     0
 10
246.58426074221541
 20
250.82690142933461
 30
0.0
 11
248.58426074221529
 21
252.82690142933461
 31
0.0
  0
LINE
  5
111
  8
0
 62
     0
 10
261.58426074221529
 20
265.82690142933461
 30
0.0
 11
264.08426074221529
 21
268.32690142933461
 31
0.0
  0
LINE
  5
112
  8
0
 62
     0
 10
250.6232118883843
 20
254.8658525755036
 30
0.0
 11
253.199991016647
 21
257.44263170376632
 31
0.0
  0
LINE
  5
113
  8
0
 62
     0
 10
246.58426074221541
 20
251.00367812463131
 30
0.0
 11
248.58426074221529
 21
253.00367812463119
 31
0.0
  0
LINE
  5
114
  8
0
 62
     0
 10
261.58426074221529
 20
266.00367812463122
 30
0.0
 11
264.08426074221529
 21
268.50367812463122
 31
0.0
  0
LINE
  5
115
  8
0
 62
     0
 10
250.44643519308769
 20
254.8658525755036
 30
0.0
 11
253.08182224261711
 21
257.50123962503312
 31
0.0
  0
LINE
  5
116
  8
0
 62
     0
 10
246.58426074221541
 20
251.18045481992789
 30
0.0
 11
248.58426074221529
 21
253.18045481992789
 31
0.0
  0
LINE
  5
117
  8
0
 62
     0
 10
261.58426074221529
 20
266.18045481992789
 30
0.0
 11
264.08426074221529
 21
268.68045481992777
 31
0.0
  0
LINE
  5
118
  8
0
 62
     0
 10
250.269658497791
 20
254.8658525755036
 30
0.0
 11
252.9759553988626
 21
257.57214947657519
 31
0.0
  0
LINE
  5
119
  8
0
 62
     0
 10
246.58426074221541
 20
251.35723151522461
 30
0.0
 11
248.58426074221529
 21
253.3572315152245
 31
0.0
  0
LINE
  5
11A
  8
0
 62
     0
 10
261.58426074221529
 20
266.3572315152245
 30
0.0
 11
264.08426074221529
 21
268.8572315152245
 31
0.0
  0
LINE
  5
11B
  8
0
 62
     0
 10
250.09288180249439
 20
254.8658525755036
 30
0.0
 11
252.88147762980819
 21
257.65444840281742
 31
0.0
  0
LINE
  5
11C
  8
0
 62
     0
 10
246.58426074221541
 20
251.53400821052119
 30
0.0
 11
248.58426074221529
 21
253.53400821052119
 31
0.0
  0
LINE
  5
11D
  8
0
 62
     0
 10
261.58426074221529
 20
266.53400821052122
 30
0.0
 11
264.08426074221529
 21
269.03400821052111
 31
0.0
  0
LINE
  5
11E
  8
0
 62
     0
 10
249.91610510719781
 20
254.8658525755036
 30
0.0
 11
252.79809253123651
 21
257.74783999954241
 31
0.0
  0
LINE
  5
11F
  8
0
 62
     0
 10
246.58426074221541
 20
251.7107849058178
 30
0.0
 11
248.58426074221529
 21
253.7107849058178
 31
0.0
  0
LINE
  5
120
  8
0
 62
     0
 10
261.58426074221529
 20
266.71078490581777
 30
0.0
 11
264.08426074221529
 21
269.21078490581777
 31
0.0
  0
LINE
  5
121
  8
0
 62
     0
 10
249.7393284119012
 20
254.8658525755036
 30
0.0
 11
252.7260428567717
 21
257.85256702037418
 31
0.0
  0
LINE
  5
122
  8
0
 62
     0
 10
246.58426074221541
 20
251.8875616011145
 30
0.0
 11
248.58450167149871
 21
253.88780253039789
 31
0.0
  0
LINE
  5
123
  8
0
 62
     0
 10
261.58426074221529
 20
266.8875616011145
 30
0.0
 11
264.08426074221529
 21
269.38756160111438
 31
0.0
  0
LINE
  5
124
  8
0
 62
     0
 10
249.56231078732111
 20
254.86561164622029
 30
0.0
 11
252.66617345242071
 21
257.9694743113198
 31
0.0
  0
LINE
  5
125
  8
0
 62
     0
 10
246.58426074221541
 20
252.06433829641111
 30
0.0
 11
248.60964074581
 21
254.08971830000581
 31
0.0
  0
LINE
  5
126
  8
0
 62
     0
 10
261.58426074221529
 20
267.06433829641111
 30
0.0
 11
264.08426074221529
 21
269.56433829641111
 31
0.0
  0
LINE
  5
127
  8
0
 62
     0
 10
249.36039501771319
 20
254.840472571909
 30
0.0
 11
252.62017690685661
 21
258.10025446105237
 31
0.0
  0
LINE
  5
128
  8
0
 62
     0
 10
246.58426074221541
 20
252.24111499170769
 30
0.0
 11
248.7318165442002
 21
254.3886707936926
 31
0.0
  0
LINE
  5
129
  8
0
 62
     0
 10
261.58426074221529
 20
267.24111499170772
 30
0.0
 11
264.08426074221529
 21
269.74111499170772
 31
0.0
  0
LINE
  5
12A
  8
0
 62
     0
 10
249.06144252402649
 20
254.71829677351889
 30
0.0
 11
252.5912207425956
 21
258.24807499208799
 31
0.0
  0
LINE
  5
12B
  8
0
 62
     0
 10
246.58426074221541
 20
252.4178916870043
 30
0.0
 11
252.58426074221529
 21
258.41789168700433
 31
0.0
  0
LINE
  5
12C
  8
0
 62
     0
 10
261.58426074221529
 20
267.41789168700433
 30
0.0
 11
264.08426074221529
 21
269.91789168700433
 31
0.0
  0
LINE
  5
12D
  8
0
 62
     0
 10
246.58426074221541
 20
252.59466838230099
 30
0.0
 11
252.58426074221529
 21
258.59466838230099
 31
0.0
  0
LINE
  5
12E
  8
0
 62
     0
 10
261.58426074221529
 20
267.59466838230099
 30
0.0
 11
264.08426074221529
 21
270.09466838230088
 31
0.0
  0
LINE
  5
12F
  8
0
 62
     0
 10
246.58426074221541
 20
252.77144507759769
 30
0.0
 11
252.58426074221529
 21
258.7714450775976
 31
0.0
  0
LINE
  5
130
  8
0
 62
     0
 10
261.58426074221529
 20
267.7714450775976
 30
0.0
 11
264.08426074221529
 21
270.2714450775976
 31
0.0
  0
LINE
  5
131
  8
0
 62
     0
 10
246.58426074221541
 20
252.9482217728943
 30
0.0
 11
252.58426074221529
 21
258.94822177289433
 31
0.0
  0
LINE
  5
132
  8
0
 62
     0
 10
261.58426074221529
 20
267.94822177289421
 30
0.0
 11
264.08426074221529
 21
270.44822177289421
 31
0.0
  0
LINE
  5
133
  8
0
 62
     0
 10
246.58426074221541
 20
253.12499846819091
 30
0.0
 11
252.58426074221529
 21
259.12499846819088
 31
0.0
  0
LINE
  5
134
  8
0
 62
     0
 10
261.58426074221529
 20
268.12499846819088
 30
0.0
 11
264.08426074221529
 21
270.62499846819088
 31
0.0
  0
LINE
  5
135
  8
0
 62
     0
 10
246.58426074221541
 20
253.3017751634876
 30
0.0
 11
252.58426074221529
 21
259.30177516348749
 31
0.0
  0
LINE
  5
136
  8
0
 62
     0
 10
261.58426074221529
 20
268.30177516348749
 30
0.0
 11
264.08426074221529
 21
270.80177516348749
 31
0.0
  0
LINE
  5
137
  8
0
 62
     0
 10
246.58426074221541
 20
253.47855185878419
 30
0.0
 11
252.58426074221529
 21
259.4785518587841
 31
0.0
  0
LINE
  5
138
  8
0
 62
     0
 10
261.58426074221529
 20
268.47855185878421
 30
0.0
 11
263.97156145893479
 21
270.86585257550371
 31
0.0
  0
LINE
  5
139
  8
0
 62
     0
 10
246.58426074221541
 20
253.6553285540808
 30
0.0
 11
252.58426074221529
 21
259.65532855408082
 31
0.0
  0
LINE
  5
13A
  8
0
 62
     0
 10
261.58426074221529
 20
268.65532855408082
 30
0.0
 11
263.79478476363818
 21
270.86585257550371
 31
0.0
  0
LINE
  5
13B
  8
0
 62
     0
 10
246.58426074221541
 20
253.83210524937741
 30
0.0
 11
252.58426074221529
 21
259.83210524937738
 31
0.0
  0
LINE
  5
13C
  8
0
 62
     0
 10
261.58426074221529
 20
268.83210524937738
 30
0.0
 11
263.61800806834151
 21
270.86585257550371
 31
0.0
  0
LINE
  5
13D
  8
0
 62
     0
 10
246.58426074221541
 20
254.0088819446741
 30
0.0
 11
252.58426074221529
 21
260.0088819446741
 31
0.0
  0
LINE
  5
13E
  8
0
 62
     0
 10
261.58426074221529
 20
269.00888194467399
 30
0.0
 11
263.4412313730449
 21
270.86585257550371
 31
0.0
  0
LINE
  5
13F
  8
0
 62
     0
 10
246.58426074221541
 20
254.1856586399708
 30
0.0
 11
252.58426074221529
 21
260.18565863997071
 31
0.0
  0
LINE
  5
140
  8
0
 62
     0
 10
261.58426074221529
 20
269.18565863997071
 30
0.0
 11
263.26445467774818
 21
270.86585257550371
 31
0.0
  0
LINE
  5
141
  8
0
 62
     0
 10
246.58426074221541
 20
254.36243533526741
 30
0.0
 11
252.58426074221529
 21
260.36243533526738
 31
0.0
  0
LINE
  5
142
  8
0
 62
     0
 10
261.58426074221529
 20
269.36243533526732
 30
0.0
 11
263.08767798245162
 21
270.86585257550371
 31
0.0
  0
LINE
  5
143
  8
0
 62
     0
 10
246.58426074221541
 20
254.53921203056399
 30
0.0
 11
252.58426074221529
 21
260.53921203056399
 31
0.0
  0
LINE
  5
144
  8
0
 62
     0
 10
261.58426074221529
 20
269.53921203056399
 30
0.0
 11
262.91090128715501
 21
270.86585257550371
 31
0.0
  0
LINE
  5
145
  8
0
 62
     0
 10
246.58426074221541
 20
254.71598872586071
 30
0.0
 11
252.58426074221529
 21
260.71598872586071
 31
0.0
  0
LINE
  5
146
  8
0
 62
     0
 10
261.58426074221529
 20
269.7159887258606
 30
0.0
 11
262.7341245918584
 21
270.86585257550371
 31
0.0
  0
LINE
  5
147
  8
0
 62
     0
 10
246.58173377311289
 20
254.8902384520548
 30
0.0
 11
252.58426074221529
 21
260.89276542115732
 31
0.0
  0
LINE
  5
148
  8
0
 62
     0
 10
261.58426074221529
 20
269.89276542115732
 30
0.0
 11
262.55734789656168
 21
270.86585257550371
 31
0.0
  0
LINE
  5
149
  8
0
 62
     0
 10
246.5722710336712
 20
255.0575524079097
 30
0.0
 11
249.2699025506293
 21
257.75518392486788
 31
0.0
  0
LINE
  5
14A
  8
0
 62
     0
 10
261.58426074221529
 20
270.06954211645387
 30
0.0
 11
262.38057120126513
 21
270.86585257550371
 31
0.0
  0
LINE
  5
14B
  8
0
 62
     0
 10
249.69492939285121
 20
258.1802107670897
 30
0.0
 11
252.58426074221529
 21
261.06954211645387
 31
0.0
  0
LINE
  5
14C
  8
0
 62
     0
 10
246.55649600851601
 20
255.2185540780512
 30
0.0
 11
248.86063216560041
 21
257.5226902351356
 31
0.0
  0
LINE
  5
14D
  8
0
 62
     0
 10
261.58426074221529
 20
270.24631881175048
 30
0.0
 11
262.2037945059684
 21
270.86585257550371
 31
0.0
  0
LINE
  5
14E
  8
0
 62
     0
 10
249.9274230825834
 20
258.58948115211859
 30
0.0
 11
252.58426074221529
 21
261.24631881175048
 31
0.0
  0
LINE
  5
14F
  8
0
 62
     0
 10
246.53500970030089
 20
255.37384446513269
 30
0.0
 11
248.59273361920239
 21
257.43156838403422
 31
0.0
  0
LINE
  5
150
  8
0
 62
     0
 10
261.58426074221529
 20
270.42309550704709
 30
0.0
 11
262.02701781067179
 21
270.86585257550371
 31
0.0
  0
LINE
  5
151
  8
0
 62
     0
 10
250.01854493368481
 20
258.85737969851658
 30
0.0
 11
252.58426074221529
 21
261.42309550704721
 31
0.0
  0
LINE
  5
152
  8
0
 62
     0
 10
246.5082999557126
 20
255.5239114158411
 30
0.0
 11
248.3708862100637
 21
257.38649767019211
 31
0.0
  0
LINE
  5
153
  8
0
 62
     0
 10
261.58426074221529
 20
270.59987220234382
 30
0.0
 11
261.85024111537518
 21
270.86585257550371
 31
0.0
  0
LINE
  5
154
  8
0
 62
     0
 10
250.06361564752689
 20
259.07922710765541
 30
0.0
 11
252.58426074221529
 21
261.59987220234382
 31
0.0
  0
LINE
  5
155
  8
0
 62
     0
 10
246.4767683894911
 20
255.66915654491629
 30
0.0
 11
248.17554888770661
 21
257.3679370431318
 31
0.0
  0
LINE
  5
156
  8
0
 62
     0
 10
261.58426074221529
 20
270.77664889764043
 30
0.0
 11
261.67346442007852
 21
270.86585257550371
 31
0.0
  0
LINE
  5
157
  8
0
 62
     0
 10
250.0821762745872
 20
259.27456443001228
 30
0.0
 11
252.58426074221529
 21
261.77664889764043
 31
0.0
  0
LINE
  5
158
  8
0
 62
     0
 10
246.44074947153669
 20
255.80991432225841
 30
0.0
 11
247.99852617381049
 21
257.36769102453218
 31
0.0
  0
LINE
  5
159
  8
0
 62
     0
 10
250.08426074221529
 20
259.45342559293709
 30
0.0
 11
252.58426074221529
 21
261.95342559293709
 31
0.0
  0
LINE
  5
15A
  8
0
 62
     0
 10
246.40052439378729
 20
255.94646593980571
 30
0.0
 11
247.83544829017521
 21
257.3813898361937
 31
0.0
  0
LINE
  5
15B
  8
0
 62
     0
 10
250.08426074221529
 20
259.6302022882337
 30
0.0
 11
252.58426074221529
 21
262.1302022882337
 31
0.0
  0
LINE
  5
15C
  8
0
 62
     0
 10
246.35633135756211
 20
256.07904959887708
 30
0.0
 11
247.6836643687266
 21
257.4063826100417
 31
0.0
  0
LINE
  5
15D
  8
0
 62
     0
 10
250.08426074221529
 20
259.80697898353043
 30
0.0
 11
252.58426074221529
 21
262.30697898353043
 31
0.0
  0
LINE
  5
15E
  8
0
 62
     0
 10
246.30837334357849
 20
256.20786828019021
 30
0.0
 11
247.54143235632381
 21
257.44092729293538
 31
0.0
  0
LINE
  5
15F
  8
0
 62
     0
 10
250.08426074221529
 20
259.98375567882698
 30
0.0
 11
252.58426074221529
 21
262.48375567882698
 31
0.0
  0
LINE
  5
160
  8
0
 62
     0
 10
246.256824071681
 20
256.33309570358932
 30
0.0
 11
247.40754568172849
 21
257.48381731363679
 31
0.0
  0
LINE
  5
161
  8
0
 62
     0
 10
250.08426074221529
 20
260.1605323741237
 30
0.0
 11
252.58426074221529
 21
262.6605323741237
 31
0.0
  0
LINE
  5
162
  8
0
 62
     0
 10
246.20183263243959
 20
256.45488095964458
 30
0.0
 11
247.2811394012933
 21
257.53418772849818
 31
0.0
  0
LINE
  5
163
  8
0
 62
     0
 10
250.08426074221529
 20
260.33730906942031
 30
0.0
 11
252.58426074221529
 21
262.83730906942031
 31
0.0
  0
LINE
  5
164
  8
0
 62
     0
 10
246.1435271264773
 20
256.57335214897893
 30
0.0
 11
247.1615807175059
 21
257.59140574000747
 31
0.0
  0
LINE
  5
165
  8
0
 62
     0
 10
250.08426074221529
 20
260.51408576471692
 30
0.0
 11
252.58426074221529
 21
263.01408576471692
 31
0.0
  0
LINE
  5
166
  8
0
 62
     0
 10
246.0820175498711
 20
256.68861926766931
 30
0.0
 11
247.04840330114681
 21
257.65500501894502
 31
0.0
  0
LINE
  5
167
  8
0
 62
     0
 10
250.08426074221529
 20
260.69086246001348
 30
0.0
 11
252.58426074221529
 21
263.19086246001348
 31
0.0
  0
LINE
  5
168
  8
0
 62
     0
 10
246.0173980975346
 20
256.80077651062942
 30
0.0
 11
246.9409129077666
 21
257.72429132086148
 31
0.0
  0
LINE
  5
169
  8
0
 62
     0
 10
250.08426074221529
 20
260.8676391553102
 30
0.0
 11
252.58426074221529
 21
263.3676391553102
 31
0.0
  0
LINE
  5
16A
  8
0
 62
     0
 10
245.94974901031091
 20
256.9099041187024
 30
0.0
 11
246.8346809411149
 21
257.79483604950639
 31
0.0
  0
LINE
  5
16B
  8
0
 62
     0
 10
250.08426074221529
 20
261.04441585060681
 30
0.0
 11
252.58426074221529
 21
263.54441585060681
 31
0.0
  0
LINE
  5
16C
  8
0
 62
     0
 10
245.88042354158321
 20
257.01735534527143
 30
0.0
 11
246.72844897446311
 21
257.86538077815118
 31
0.0
  0
LINE
  5
16D
  8
0
 62
     0
 10
250.08426074221529
 20
261.22119254590348
 30
0.0
 11
252.58426074221529
 21
263.72119254590348
 31
0.0
  0
LINE
  5
16E
  8
0
 62
     0
 10
245.81617816108951
 20
257.12988666007431
 30
0.0
 11
246.6222170078114
 21
257.9359255067962
 31
0.0
  0
LINE
  5
16F
  8
0
 62
     0
 10
250.08426074221529
 20
261.39796924120009
 30
0.0
 11
252.58426074221529
 21
263.89796924120009
 31
0.0
  0
LINE
  5
170
  8
0
 62
     0
 10
245.75827305201679
 20
257.24875824629822
 30
0.0
 11
246.51598504115969
 21
258.00647023544099
 31
0.0
  0
LINE
  5
171
  8
0
 62
     0
 10
250.08426074221529
 20
261.57474593649681
 30
0.0
 11
252.58426074221529
 21
264.07474593649681
 31
0.0
  0
LINE
  5
172
  8
0
 62
     0
 10
245.70715981375429
 20
257.37442170333242
 30
0.0
 11
246.40975307450779
 21
258.07701496408589
 31
0.0
  0
LINE
  5
173
  8
0
 62
     0
 10
250.08426074221529
 20
261.75152263179342
 30
0.0
 11
252.58426074221529
 21
264.25152263179342
 31
0.0
  0
LINE
  5
174
  8
0
 62
     0
 10
245.6634512861537
 20
257.50748987102838
 30
0.0
 11
246.30352110785611
 21
258.14755969273079
 31
0.0
  0
LINE
  5
175
  8
0
 62
     0
 10
250.08426074221529
 20
261.92829932708997
 30
0.0
 11
252.58426074221529
 21
264.42829932708997
 31
0.0
  0
LINE
  5
176
  8
0
 62
     0
 10
245.62798397696071
 20
257.648799257132
 30
0.0
 11
246.19728914120441
 21
258.21810442137559
 31
0.0
  0
LINE
  5
177
  8
0
 62
     0
 10
250.08426074221529
 20
262.10507602238658
 30
0.0
 11
252.58426074221529
 21
264.60507602238658
 31
0.0
  0
LINE
  5
178
  8
0
 62
     0
 10
245.60192158625421
 20
257.79951356172211
 30
0.0
 11
246.09105717455259
 21
258.2886491500206
 31
0.0
  0
LINE
  5
179
  8
0
 62
     0
 10
250.08426074221529
 20
262.28185271768319
 30
0.0
 11
252.58426074221529
 21
264.78185271768331
 31
0.0
  0
LINE
  5
17A
  8
0
 62
     0
 10
245.58693698023171
 20
257.96130565099628
 30
0.0
 11
245.97684129641041
 21
258.35120996717501
 31
0.0
  0
LINE
  5
17B
  8
0
 62
     0
 10
250.08426074221529
 20
262.45862941297992
 30
0.0
 11
252.58426074221529
 21
264.95862941297992
 31
0.0
  0
LINE
  5
17C
  8
0
 62
     0
 10
245.59528442399679
 20
258.14642979005799
 30
0.0
 11
245.80368352766101
 21
258.35482889372219
 31
0.0
  0
LINE
  5
17D
  8
0
 62
     0
 10
250.08426074221529
 20
262.63540610827653
 30
0.0
 11
252.58426074221529
 21
265.13540610827658
 31
0.0
  0
LINE
  5
17E
  8
0
 62
     0
 10
250.08426074221529
 20
262.81218280357319
 30
0.0
 11
252.58426074221529
 21
265.31218280357319
 31
0.0
  0
LINE
  5
17F
  8
0
 62
     0
 10
250.08426074221529
 20
262.9889594988698
 30
0.0
 11
252.58426074221529
 21
265.4889594988698
 31
0.0
  0
LINE
  5
180
  8
0
 62
     0
 10
250.08426074221529
 20
263.16573619416653
 30
0.0
 11
252.58426074221529
 21
265.66573619416653
 31
0.0
  0
LINE
  5
181
  8
0
 62
     0
 10
250.08426074221529
 20
263.34251288946308
 30
0.0
 11
252.58426074221529
 21
265.84251288946308
 31
0.0
  0
LINE
  5
182
  8
0
 62
     0
 10
250.08426074221529
 20
263.51928958475969
 30
0.0
 11
252.58426074221529
 21
266.01928958475969
 31
0.0
  0
LINE
  5
183
  8
0
 62
     0
 10
250.08426074221529
 20
263.6960662800563
 30
0.0
 11
252.58426074221529
 21
266.1960662800563
 31
0.0
  0
LINE
  5
184
  8
0
 62
     0
 10
250.08426074221529
 20
263.87284297535302
 30
0.0
 11
252.58426074221529
 21
266.37284297535302
 31
0.0
  0
LINE
  5
185
  8
0
 62
     0
 10
250.08426074221529
 20
264.04961967064969
 30
0.0
 11
252.58426074221529
 21
266.54961967064958
 31
0.0
  0
LINE
  5
186
  8
0
 62
     0
 10
250.08426074221529
 20
264.2263963659463
 30
0.0
 11
252.58426074221529
 21
266.7263963659463
 31
0.0
  0
LINE
  5
187
  8
0
 62
     0
 10
250.08426074221529
 20
264.40317306124291
 30
0.0
 11
252.58426074221529
 21
266.90317306124291
 31
0.0
  0
LINE
  5
188
  8
0
 62
     0
 10
250.08426074221529
 20
264.57994975653958
 30
0.0
 11
252.58426074221529
 21
267.07994975653958
 31
0.0
  0
LINE
  5
189
  8
0
 62
     0
 10
250.08426074221529
 20
264.75672645183619
 30
0.0
 11
252.58426074221529
 21
267.25672645183619
 31
0.0
  0
LINE
  5
18A
  8
0
 62
     0
 10
250.08426074221529
 20
264.9335031471328
 30
0.0
 11
252.58426074221529
 21
267.43350314713291
 31
0.0
  0
LINE
  5
18B
  8
0
 62
     0
 10
250.08426074221529
 20
265.11027984242941
 30
0.0
 11
252.58426074221529
 21
267.61027984242952
 31
0.0
  0
LINE
  5
18C
  8
0
 62
     0
 10
250.08426074221529
 20
265.28705653772607
 30
0.0
 11
252.58426074221529
 21
267.78705653772607
 31
0.0
  0
LINE
  5
18D
  8
0
 62
     0
 10
250.08426074221529
 20
265.4638332330228
 30
0.0
 11
252.58426074221529
 21
267.96383323302268
 31
0.0
  0
LINE
  5
18E
  8
0
 62
     0
 10
250.08426074221529
 20
265.64060992831941
 30
0.0
 11
252.58426074221529
 21
268.14060992831941
 31
0.0
  0
LINE
  5
18F
  8
0
 62
     0
 10
250.08426074221529
 20
265.81738662361602
 30
0.0
 11
252.58426074221529
 21
268.31738662361602
 31
0.0
  0
LINE
  5
190
  8
0
 62
     0
 10
250.08426074221529
 20
265.99416331891268
 30
0.0
 11
252.58426074221529
 21
268.49416331891268
 31
0.0
  0
LINE
  5
191
  8
0
 62
     0
 10
250.08426074221529
 20
266.17094001420929
 30
0.0
 11
252.58426074221529
 21
268.67094001420929
 31
0.0
  0
LINE
  5
192
  8
0
 62
     0
 10
250.08426074221529
 20
266.3477167095059
 30
0.0
 11
252.58426074221529
 21
268.84771670950602
 31
0.0
  0
LINE
  5
193
  8
0
 62
     0
 10
250.08426074221529
 20
266.52449340480251
 30
0.0
 11
252.58426074221529
 21
269.02449340480263
 31
0.0
  0
LINE
  5
194
  8
0
 62
     0
 10
250.08426074221529
 20
266.70127010009918
 30
0.0
 11
252.58426074221529
 21
269.20127010009918
 31
0.0
  0
LINE
  5
195
  8
0
 62
     0
 10
250.08426074221529
 20
266.87804679539579
 30
0.0
 11
252.58426074221529
 21
269.37804679539579
 31
0.0
  0
LINE
  5
196
  8
0
 62
     0
 10
250.08426074221529
 20
267.05482349069251
 30
0.0
 11
252.58426074221529
 21
269.55482349069251
 31
0.0
  0
LINE
  5
197
  8
0
 62
     0
 10
250.08426074221529
 20
267.23160018598912
 30
0.0
 11
252.58426074221529
 21
269.73160018598912
 31
0.0
  0
LINE
  5
198
  8
0
 62
     0
 10
250.08426074221529
 20
267.40837688128568
 30
0.0
 11
252.58426074221529
 21
269.90837688128568
 31
0.0
  0
LINE
  5
199
  8
0
 62
     0
 10
250.08426074221529
 20
267.58515357658229
 30
0.0
 11
252.58426074221529
 21
270.0851535765824
 31
0.0
  0
LINE
  5
19A
  8
0
 62
     0
 10
250.08426074221529
 20
267.76193027187901
 30
0.0
 11
252.58426074221529
 21
270.26193027187901
 31
0.0
  0
LINE
  5
19B
  8
0
 62
     0
 10
250.08426074221529
 20
267.93870696717562
 30
0.0
 11
252.58426074221529
 21
270.43870696717568
 31
0.0
  0
LINE
  5
19C
  8
0
 62
     0
 10
250.08426074221529
 20
268.11548366247229
 30
0.0
 11
252.58426074221529
 21
270.61548366247229
 31
0.0
  0
LINE
  5
19D
  8
0
 62
     0
 10
250.08426074221529
 20
268.2922603577689
 30
0.0
 11
252.58426074221529
 21
270.7922603577689
 31
0.0
  0
LINE
  5
19E
  8
0
 62
     0
 10
250.08426074221529
 20
268.46903705306562
 30
0.0
 11
252.48107626465341
 21
270.86585257550371
 31
0.0
  0
LINE
  5
19F
  8
0
 62
     0
 10
250.08426074221529
 20
268.64581374836217
 30
0.0
 11
252.3042995693568
 21
270.86585257550371
 31
0.0
  0
LINE
  5
1A0
  8
0
 62
     0
 10
250.08426074221529
 20
268.82259044365878
 30
0.0
 11
252.12752287406011
 21
270.86585257550371
 31
0.0
  0
LINE
  5
1A1
  8
0
 62
     0
 10
250.08426074221529
 20
268.99936713895539
 30
0.0
 11
251.9507461787635
 21
270.86585257550371
 31
0.0
  0
LINE
  5
1A2
  8
0
 62
     0
 10
250.08426074221529
 20
269.17614383425212
 30
0.0
 11
251.77396948346691
 21
270.86585257550371
 31
0.0
  0
LINE
  5
1A3
  8
0
 62
     0
 10
250.08426074221529
 20
269.35292052954873
 30
0.0
 11
251.59719278817019
 21
270.86585257550371
 31
0.0
  0
LINE
  5
1A4
  8
0
 62
     0
 10
250.08426074221529
 20
269.52969722484539
 30
0.0
 11
251.42041609287361
 21
270.86585257550371
 31
0.0
  0
LINE
  5
1A5
  8
0
 62
     0
 10
250.08426074221529
 20
269.706473920142
 30
0.0
 11
251.24363939757691
 21
270.86585257550371
 31
0.0
  0
LINE
  5
1A6
  8
0
 62
     0
 10
250.08426074221529
 20
269.88325061543873
 30
0.0
 11
251.0668627022803
 21
270.86585257550371
 31
0.0
  0
LINE
  5
1A7
  8
0
 62
     0
 10
250.08426074221529
 20
270.06002731073528
 30
0.0
 11
250.89008600698369
 21
270.86585257550371
 31
0.0
  0
LINE
  5
1A8
  8
0
 62
     0
 10
250.08426074221529
 20
270.23680400603189
 30
0.0
 11
250.713309311687
 21
270.86585257550371
 31
0.0
  0
LINE
  5
1A9
  8
0
 62
     0
 10
250.08426074221529
 20
270.4135807013285
 30
0.0
 11
250.53653261639039
 21
270.86585257550371
 31
0.0
  0
LINE
  5
1AA
  8
0
 62
     0
 10
250.08426074221529
 20
270.59035739662522
 30
0.0
 11
250.35975592109369
 21
270.86585257550371
 31
0.0
  0
LINE
  5
1AB
  8
0
 62
     0
 10
250.08426074221529
 20
270.76713409192189
 30
0.0
 11
250.18297922579711
 21
270.8658525755036
 31
0.0
  0
LINE
  5
1AC
  8
0
 62
     0
 10
246.68048562513559
 20
242.4378449380163
 30
0.0
 11
248.58426074221529
 21
244.341620055096
 31
0.0
  0
LINE
  5
1AD
  8
0
 62
     0
 10
259.01226837970268
 20
254.76962769258341
 30
0.0
 11
264.30322072590991
 21
260.06058003879059
 31
0.0
  0
LINE
  5
1AE
  8
0
 62
     0
 10
246.74364225847921
 20
242.32422487606331
 30
0.0
 11
248.58426074221529
 21
244.16484335979939
 31
0.0
  0
LINE
  5
1AF
  8
0
 62
     0
 10
259.12588844165572
 20
254.70647105923979
 30
0.0
 11
264.35045493074261
 21
259.93103754832669
 31
0.0
  0
LINE
  5
1B0
  8
0
 62
     0
 10
246.81869225156521
 20
242.2224981738527
 30
0.0
 11
248.58426074221529
 21
243.98806666450281
 31
0.0
  0
LINE
  5
1B1
  8
0
 62
     0
 10
259.22761514386627
 20
254.63142106615371
 30
0.0
 11
264.40131239052079
 21
259.80511831280819
 31
0.0
  0
LINE
  5
1B2
  8
0
 62
     0
 10
246.9049617381813
 20
242.13199096517209
 30
0.0
 11
248.6388233485128
 21
243.86585257550371
 31
0.0
  0
LINE
  5
1B3
  8
0
 62
     0
 10
259.31812235254688
 20
254.54515157953759
 30
0.0
 11
264.45563949880932
 21
259.68266872580011
 31
0.0
  0
LINE
  5
1B4
  8
0
 62
     0
 10
247.00234847532499
 20
242.05260100701909
 30
0.0
 11
248.8156000438095
 21
243.86585257550371
 31
0.0
  0
LINE
  5
1B5
  8
0
 62
     0
 10
259.39751231069982
 20
254.44776484239401
 30
0.0
 11
264.51330428700533
 21
259.5635568186994
 31
0.0
  0
LINE
  5
1B6
  8
0
 62
     0
 10
247.1112955997929
 20
241.9847714361905
 30
0.0
 11
248.99237673910611
 21
243.86585257550371
 31
0.0
  0
LINE
  5
1B7
  8
0
 62
     0
 10
259.4653418815285
 20
254.33881771792599
 30
0.0
 11
264.57419340638432
 21
259.44766924278179
 31
0.0
  0
LINE
  5
1B8
  8
0
 62
     0
 10
247.23290965537191
 20
241.92960879647279
 30
0.0
 11
249.1691534344028
 21
243.86585257550371
 31
0.0
  0
LINE
  5
1B9
  8
0
 62
     0
 10
259.52050452124621
 20
254.217203662347
 30
0.0
 11
264.63820972171482
 21
259.33490886281561
 31
0.0
  0
LINE
  5
1BA
  8
0
 62
     0
 10
247.36930609731289
 20
241.88922854311721
 30
0.0
 11
249.34593012969941
 21
243.86585257550371
 31
0.0
  0
LINE
  5
1BB
  8
0
 62
     0
 10
259.56088477460179
 20
254.08080722040609
 30
0.0
 11
264.70527038289208
 21
259.22519282869632
 31
0.0
  0
LINE
  5
1BC
  8
0
 62
     0
 10
247.52449442886549
 20
241.86764017937321
 30
0.0
 11
249.52270682499599
 21
243.86585257550371
 31
0.0
  0
LINE
  5
1BD
  8
0
 62
     0
 10
259.58247313834579
 20
253.92561888885339
 30
0.0
 11
264.77530527598429
 21
259.11845102649193
 31
0.0
  0
LINE
  5
1BE
  8
0
 62
     0
 10
247.69948352029269
 20
241.8658525755036
 30
0.0
 11
249.69948352029269
 21
243.86585257550371
 31
0.0
  0
LINE
  5
1BF
  8
0
 62
     0
 10
259.58426074221529
 20
253.75062979742631
 30
0.0
 11
264.84825578019729
 21
259.0146248354082
 31
0.0
  0
LINE
  5
1C0
  8
0
 62
     0
 10
247.8762602155893
 20
241.8658525755036
 30
0.0
 11
249.8762602155893
 21
243.86585257550371
 31
0.0
  0
LINE
  5
1C1
  8
0
 62
     0
 10
259.58426074221529
 20
253.57385310212959
 30
0.0
 11
264.92407377563859
 21
258.91366613555289
 31
0.0
  0
LINE
  5
1C2
  8
0
 62
     0
 10
248.05303691088591
 20
241.8658525755036
 30
0.0
 11
250.05303691088591
 21
243.86585257550371
 31
0.0
  0
LINE
  5
1C3
  8
0
 62
     0
 10
259.58426074221529
 20
253.39707640683301
 30
0.0
 11
265.00272086045192
 21
258.81553652506949
 31
0.0
  0
LINE
  5
1C4
  8
0
 62
     0
 10
248.22981360618249
 20
241.8658525755036
 30
0.0
 11
250.08426074221541
 21
243.7202997115364
 31
0.0
  0
LINE
  5
1C5
  8
0
 62
     0
 10
259.58426074221529
 20
253.22029971153631
 30
0.0
 11
265.08416774630479
 21
258.72020671562581
 31
0.0
  0
LINE
  5
1C6
  8
0
 62
     0
 10
248.40659030147921
 20
241.8658525755036
 30
0.0
 11
250.08426074221541
 21
243.54352301623979
 31
0.0
  0
LINE
  5
1C7
  8
0
 62
     0
 10
259.58426074221529
 20
253.0435230162397
 30
0.0
 11
265.1683938093222
 21
258.62765608334672
 31
0.0
  0
LINE
  5
1C8
  8
0
 62
     0
 10
248.58336699677579
 20
241.8658525755036
 30
0.0
 11
250.08426074221541
 21
243.36674632094321
 31
0.0
  0
LINE
  5
1C9
  8
0
 62
     0
 10
259.58426074221529
 20
252.86674632094309
 30
0.0
 11
265.2553867800508
 21
258.5378723587786
 31
0.0
  0
LINE
  5
1CA
  8
0
 62
     0
 10
248.76014369207249
 20
241.8658525755036
 30
0.0
 11
250.08426074221541
 21
243.18996962564651
 31
0.0
  0
LINE
  5
1CB
  8
0
 62
     0
 10
259.58426074221529
 20
252.68996962564651
 30
0.0
 11
265.34514256142609
 21
258.45085144485722
 31
0.0
  0
LINE
  5
1CC
  8
0
 62
     0
 10
248.9369203873691
 20
241.8658525755036
 30
0.0
 11
250.08426074221541
 21
243.0131929303499
 31
0.0
  0
LINE
  5
1CD
  8
0
 62
     0
 10
259.58426074221529
 20
252.51319293034979
 30
0.0
 11
265.43766516838701
 21
258.36659735652142
 31
0.0
  0
LINE
  5
1CE
  8
0
 62
     0
 10
249.11369708266571
 20
241.8658525755036
 30
0.0
 11
250.08426074221541
 21
242.83641623505329
 31
0.0
  0
LINE
  5
1CF
  8
0
 62
     0
 10
259.58426074221529
 20
252.33641623505321
 30
0.0
 11
265.53296678704891
 21
258.28512227988682
 31
0.0
  0
LINE
  5
1D0
  8
0
 62
     0
 10
249.2904737779624
 20
241.8658525755036
 30
0.0
 11
250.08426074221541
 21
242.6596395397566
 31
0.0
  0
LINE
  5
1D1
  8
0
 62
     0
 10
262.22289978500032
 20
254.7982785825416
 30
0.0
 11
265.63106795548231
 21
258.20644675302361
 31
0.0
  0
LINE
  5
1D2
  8
0
 62
     0
 10
259.58426074221529
 20
252.15963953975651
 30
0.0
 11
261.65183473517737
 21
254.22721353271859
 31
0.0
  0
LINE
  5
1D3
  8
0
 62
     0
 10
249.46725047325901
 20
241.8658525755036
 30
0.0
 11
250.08426074221541
 21
242.48286284445999
 31
0.0
  0
LINE
  5
1D4
  8
0
 62
     0
 10
262.45942831239068
 20
254.85803041463541
 30
0.0
 11
265.73199787240691
 21
258.13059997465149
 31
0.0
  0
LINE
  5
1D5
  8
0
 62
     0
 10
259.58426074221529
 20
251.9828628444599
 30
0.0
 11
261.59208290308362
 21
253.9906850053282
 31
0.0
  0
LINE
  5
1D6
  8
0
 62
     0
 10
249.6440271685556
 20
241.8658525755036
 30
0.0
 11
250.08426074221541
 21
242.30608614916341
 31
0.0
  0
LINE
  5
1D7
  8
0
 62
     0
 10
262.64402716855568
 20
254.86585257550371
 30
0.0
 11
265.83579484478042
 21
258.05762025172828
 31
0.0
  0
LINE
  5
1D8
  8
0
 62
     0
 10
259.58426074221529
 20
251.80608614916329
 30
0.0
 11
261.58426074221529
 21
253.80608614916329
 31
0.0
  0
LINE
  5
1D9
  8
0
 62
     0
 10
249.82080386385229
 20
241.8658525755036
 30
0.0
 11
250.08426074221541
 21
242.12930945386671
 31
0.0
  0
LINE
  5
1DA
  8
0
 62
     0
 10
262.82080386385229
 20
254.86585257550371
 30
0.0
 11
265.9425068906358
 21
257.9875556022871
 31
0.0
  0
LINE
  5
1DB
  8
0
 62
     0
 10
259.58426074221529
 20
251.6293094538666
 30
0.0
 11
261.58426074221529
 21
253.62930945386671
 31
0.0
  0
LINE
  5
1DC
  8
0
 62
     0
 10
249.9975805591489
 20
241.8658525755036
 30
0.0
 11
250.08426074221541
 21
241.9525327585701
 31
0.0
  0
LINE
  5
1DD
  8
0
 62
     0
 10
262.9975805591489
 20
254.86585257550371
 30
0.0
 11
266.05219252000438
 21
257.92046453635908
 31
0.0
  0
LINE
  5
1DE
  8
0
 62
     0
 10
259.58426074221529
 20
251.45253275856999
 30
0.0
 11
261.58426074221529
 21
253.45253275856999
 31
0.0
  0
LINE
  5
1DF
  8
0
 62
     0
 10
259.58426074221529
 20
251.27575606327341
 30
0.0
 11
261.58426074221529
 21
253.27575606327341
 31
0.0
  0
LINE
  5
1E0
  8
0
 62
     0
 10
263.17435725444562
 20
254.86585257550371
 30
0.0
 11
266.16492172484709
 21
257.85641704590518
 31
0.0
  0
LINE
  5
1E1
  8
0
 62
     0
 10
259.58426074221529
 20
251.09897936797671
 30
0.0
 11
261.58426074221529
 21
253.0989793679768
 31
0.0
  0
LINE
  5
1E2
  8
0
 62
     0
 10
263.35113394974218
 20
254.86585257550371
 30
0.0
 11
266.28077721930379
 21
257.79549584506532
 31
0.0
  0
LINE
  5
1E3
  8
0
 62
     0
 10
259.58426074221529
 20
250.9222026726801
 30
0.0
 11
261.58426074221529
 21
252.9222026726801
 31
0.0
  0
LINE
  5
1E4
  8
0
 62
     0
 10
263.5279106450389
 20
254.86585257550371
 30
0.0
 11
266.39985598522208
 21
257.73779791568683
 31
0.0
  0
LINE
  5
1E5
  8
0
 62
     0
 10
259.58426074221529
 20
250.74542597738341
 30
0.0
 11
261.58426074221529
 21
252.74542597738341
 31
0.0
  0
LINE
  5
1E6
  8
0
 62
     0
 10
263.70468734033551
 20
254.86585257550371
 30
0.0
 11
266.52227119624303
 21
257.68343643141111
 31
0.0
  0
LINE
  5
1E7
  8
0
 62
     0
 10
259.58426074221529
 20
250.5686492820868
 30
0.0
 11
261.58426074221529
 21
252.5686492820868
 31
0.0
  0
LINE
  5
1E8
  8
0
 62
     0
 10
263.88146403563218
 20
254.86585257550371
 30
0.0
 11
266.64815461875338
 21
257.63254315862491
 31
0.0
  0
LINE
  5
1E9
  8
0
 62
     0
 10
259.58426074221529
 20
250.3918725867901
 30
0.0
 11
261.58426074221529
 21
252.39187258679021
 31
0.0
  0
LINE
  5
1EA
  8
0
 62
     0
 10
264.05824073092879
 20
254.86585257550371
 30
0.0
 11
266.77765962283911
 21
257.58527146741392
 31
0.0
  0
LINE
  5
1EB
  8
0
 62
     0
 10
259.58426074221529
 20
250.21509589149349
 30
0.0
 11
261.58426074221529
 21
252.21509589149349
 31
0.0
  0
LINE
  5
1EC
  8
0
 62
     0
 10
264.2350174262254
 20
254.86585257550371
 30
0.0
 11
266.9109649857146
 21
257.54180013499268
 31
0.0
  0
LINE
  5
1ED
  8
0
 62
     0
 10
259.58426074221529
 20
250.03831919619691
 30
0.0
 11
261.58426074221529
 21
252.03831919619691
 31
0.0
  0
LINE
  5
1EE
  8
0
 62
     0
 10
264.41179412152201
 20
254.86585257550371
 30
0.0
 11
267.04827974134491
 21
257.5023381953265
 31
0.0
  0
LINE
  5
1EF
  8
0
 62
     0
 10
259.58426074221529
 20
249.8615425009003
 30
0.0
 11
261.58426074221529
 21
251.8615425009003
 31
0.0
  0
LINE
  5
1F0
  8
0
 62
     0
 10
264.58857081681867
 20
254.86585257550371
 30
0.0
 11
267.18984943495047
 21
257.4671311936354
 31
0.0
  0
LINE
  5
1F1
  8
0
 62
     0
 10
259.58426074221529
 20
249.6847658056036
 30
0.0
 11
261.58426074221529
 21
251.6847658056036
 31
0.0
  0
LINE
  5
1F2
  8
0
 62
     0
 10
264.7653475121154
 20
254.86585257550371
 30
0.0
 11
267.33596429926098
 21
257.43646936264918
 31
0.0
  0
LINE
  5
1F3
  8
0
 62
     0
 10
259.58426074221529
 20
249.50798911030699
 30
0.0
 11
261.58426074221529
 21
251.50798911030699
 31
0.0
  0
LINE
  5
1F4
  8
0
 62
     0
 10
264.94212420741201
 20
254.86585257550371
 30
0.0
 11
267.48697011369109
 21
257.41069848178267
 31
0.0
  0
LINE
  5
1F5
  8
0
 62
     0
 10
259.58426074221529
 20
249.3312124150103
 30
0.0
 11
261.58426074221529
 21
251.3312124150103
 31
0.0
  0
LINE
  5
1F6
  8
0
 62
     0
 10
265.11890090270862
 20
254.86585257550371
 30
0.0
 11
267.64328289556062
 21
257.3902345683556
 31
0.0
  0
LINE
  5
1F7
  8
0
 62
     0
 10
259.58426074221529
 20
249.15443571971369
 30
0.0
 11
261.58426074221529
 21
251.15443571971369
 31
0.0
  0
LINE
  5
1F8
  8
0
 62
     0
 10
266.4592715795805
 20
256.02944655707893
 30
0.0
 11
267.80540920828219
 21
257.3755841857805
 31
0.0
  0
LINE
  5
1F9
  8
0
 62
     0
 10
265.29567759800523
 20
254.86585257550371
 30
0.0
 11
265.72066676064048
 21
255.29084173813891
 31
0.0
  0
LINE
  5
1FA
  8
0
 62
     0
 10
259.58426074221529
 20
248.97765902441711
 30
0.0
 11
261.58426074221529
 21
250.97765902441711
 31
0.0
  0
LINE
  5
1FB
  8
0
 62
     0
 10
266.73002711807987
 20
256.12342540028169
 30
0.0
 11
267.9739749517982
 21
257.3673732339999
 31
0.0
  0
LINE
  5
1FC
  8
0
 62
     0
 10
265.47245429330178
 20
254.86585257550371
 30
0.0
 11
265.62668791743772
 21
255.02008619963951
 31
0.0
  0
LINE
  5
1FD
  8
0
 62
     0
 10
259.58426074221529
 20
248.80088232912041
 30
0.0
 11
261.58426074221529
 21
250.80088232912041
 31
0.0
  0
LINE
  5
1FE
  8
0
 62
     0
 10
266.94251907159139
 20
256.15914065849648
 30
0.0
 11
268.1492309885985
 21
257.3658525755036
 31
0.0
  0
LINE
  5
1FF
  8
0
 62
     0
 10
259.58426074221529
 20
248.6241056338238
 30
0.0
 11
261.58426074221529
 21
250.6241056338238
 31
0.0
  0
LINE
  5
200
  8
0
 62
     0
 10
267.12544227122089
 20
256.16528716282937
 30
0.0
 11
268.32600768389523
 21
257.3658525755036
 31
0.0
  0
LINE
  5
201
  8
0
 62
     0
 10
259.58426074221529
 20
248.44732893852719
 30
0.0
 11
261.58426074221529
 21
250.44732893852719
 31
0.0
  0
LINE
  5
202
  8
0
 62
     0
 10
267.28877671346061
 20
256.15184490977248
 30
0.0
 11
268.50278437919178
 21
257.3658525755036
 31
0.0
  0
LINE
  5
203
  8
0
 62
     0
 10
259.58426074221529
 20
248.2705522432305
 30
0.0
 11
261.58426074221529
 21
250.2705522432305
 31
0.0
  0
LINE
  5
204
  8
0
 62
     0
 10
267.43739953944072
 20
256.12369104045592
 30
0.0
 11
268.67956107448839
 21
257.3658525755036
 31
0.0
  0
LINE
  5
205
  8
0
 62
     0
 10
259.58426074221529
 20
248.09377554793389
 30
0.0
 11
261.58426074221529
 21
250.09377554793389
 31
0.0
  0
LINE
  5
206
  8
0
 62
     0
 10
267.57410203399428
 20
256.08361683971287
 30
0.0
 11
268.85633776978511
 21
257.3658525755036
 31
0.0
  0
LINE
  5
207
  8
0
 62
     0
 10
259.58426074221529
 20
247.91699885263719
 30
0.0
 11
261.58426074221529
 21
249.91699885263731
 31
0.0
  0
LINE
  5
208
  8
0
 62
     0
 10
267.70062753004891
 20
256.03336564047089
 30
0.0
 11
269.03311446508172
 21
257.3658525755036
 31
0.0
  0
LINE
  5
209
  8
0
 62
     0
 10
259.58426074221529
 20
247.74022215734061
 30
0.0
 11
261.58426074221529
 21
249.74022215734061
 31
0.0
  0
LINE
  5
20A
  8
0
 62
     0
 10
267.81811703561488
 20
255.97407845074019
 30
0.0
 11
269.20989116037828
 21
257.3658525755036
 31
0.0
  0
LINE
  5
20B
  8
0
 62
     0
 10
259.58426074221529
 20
247.563445462044
 30
0.0
 11
261.58426074221529
 21
249.563445462044
 31
0.0
  0
LINE
  5
20C
  8
0
 62
     0
 10
267.9273280012323
 20
255.90651272106101
 30
0.0
 11
269.386667855675
 21
257.3658525755036
 31
0.0
  0
LINE
  5
20D
  8
0
 62
     0
 10
259.58426074221529
 20
247.38666876674731
 30
0.0
 11
261.58426074221529
 21
249.38666876674739
 31
0.0
  0
LINE
  5
20E
  8
0
 62
     0
 10
268.02875077078443
 20
255.8311587953165
 30
0.0
 11
269.56344455097161
 21
257.3658525755036
 31
0.0
  0
LINE
  5
20F
  8
0
 62
     0
 10
259.58426074221529
 20
247.2098920714507
 30
0.0
 11
261.58426074221529
 21
249.2098920714507
 31
0.0
  0
LINE
  5
210
  8
0
 62
     0
 10
268.12267257180798
 20
255.74830390104341
 30
0.0
 11
269.74022124626828
 21
257.3658525755036
 31
0.0
  0
LINE
  5
211
  8
0
 62
     0
 10
259.58426074221529
 20
247.03311537615409
 30
0.0
 11
261.58426074221529
 21
249.03311537615409
 31
0.0
  0
LINE
  5
212
  8
0
 62
     0
 10
268.20921103877407
 20
255.65806567271281
 30
0.0
 11
269.91699794156489
 21
257.3658525755036
 31
0.0
  0
LINE
  5
213
  8
0
 62
     0
 10
259.58426074221529
 20
246.85633868085739
 30
0.0
 11
261.58426074221529
 21
248.8563386808575
 31
0.0
  0
LINE
  5
214
  8
0
 62
     0
 10
268.28832712304973
 20
255.5604050616918
 30
0.0
 11
270.0937746368615
 21
257.3658525755036
 31
0.0
  0
LINE
  5
215
  8
0
 62
     0
 10
259.58426074221529
 20
246.67956198556081
 30
0.0
 11
261.58426074221529
 21
248.67956198556081
 31
0.0
  0
LINE
  5
216
  8
0
 62
     0
 10
268.35982085959768
 20
255.45512210294319
 30
0.0
 11
270.27055133215822
 21
257.3658525755036
 31
0.0
  0
LINE
  5
217
  8
0
 62
     0
 10
259.58426074221529
 20
246.50278529026409
 30
0.0
 11
261.58426074221529
 21
248.5027852902642
 31
0.0
  0
LINE
  5
218
  8
0
 62
     0
 10
268.42330887297499
 20
255.34183342102389
 30
0.0
 11
270.44732802745477
 21
257.3658525755036
 31
0.0
  0
LINE
  5
219
  8
0
 62
     0
 10
259.58426074221529
 20
246.3260085949675
 30
0.0
 11
261.58426074221529
 21
248.3260085949675
 31
0.0
  0
LINE
  5
21A
  8
0
 62
     0
 10
268.47817735366459
 20
255.2199252064168
 30
0.0
 11
270.62601271040671
 21
257.36776056315898
 31
0.0
  0
LINE
  5
21B
  8
0
 62
     0
 10
259.58426074221529
 20
246.14923189967089
 30
0.0
 11
261.58426074221529
 21
248.14923189967089
 31
0.0
  0
LINE
  5
21C
  8
0
 62
     0
 10
268.52349567448289
 20
255.08846683193849
 30
0.0
 11
270.8129484283653
 21
257.37791958582091
 31
0.0
  0
LINE
  5
21D
  8
0
 62
     0
 10
259.58426074221529
 20
245.97245520437431
 30
0.0
 11
261.58426074221529
 21
247.97245520437431
 31
0.0
  0
LINE
  5
21E
  8
0
 62
     0
 10
268.55785775634843
 20
254.94605221850739
 30
0.0
 11
271.0099836955805
 21
257.39817815773949
 31
0.0
  0
LINE
  5
21F
  8
0
 62
     0
 10
259.58426074221529
 20
245.79567850907759
 30
0.0
 11
261.58426074221529
 21
247.79567850907759
 31
0.0
  0
LINE
  5
220
  8
0
 62
     0
 10
268.65443480864133
 20
254.8658525755036
 30
0.0
 11
271.21916273993543
 21
257.4305805067977
 31
0.0
  0
LINE
  5
221
  8
0
 62
     0
 10
259.58426074221529
 20
245.61890181378101
 30
0.0
 11
261.58426074221529
 21
247.61890181378101
 31
0.0
  0
LINE
  5
222
  8
0
 62
     0
 10
268.83121150393799
 20
254.8658525755036
 30
0.0
 11
271.44346926198358
 21
257.47811033354918
 31
0.0
  0
LINE
  5
223
  8
0
 62
     0
 10
259.58426074221529
 20
245.44212511848431
 30
0.0
 11
261.58426074221529
 21
247.4421251184844
 31
0.0
  0
LINE
  5
224
  8
0
 62
     0
 10
269.0079881992346
 20
254.8658525755036
 30
0.0
 11
271.68757623383732
 21
257.54544061010643
 31
0.0
  0
LINE
  5
225
  8
0
 62
     0
 10
258.08426074221529
 20
243.7653484231877
 30
0.0
 11
258.18476489453121
 21
243.86585257550371
 31
0.0
  0
LINE
  5
226
  8
0
 62
     0
 10
274.22763385334582
 20
259.9087215343182
 30
0.0
 11
274.64121745066211
 21
260.32230513163461
 31
0.0
  0
LINE
  5
227
  8
0
 62
     0
 10
259.58426074221529
 20
245.2653484231877
 30
0.0
 11
261.58426074221529
 21
247.2653484231877
 31
0.0
  0
LINE
  5
228
  8
0
 62
     0
 10
269.18476489453121
 20
254.8658525755036
 30
0.0
 11
271.95961132335952
 21
257.64069900433202
 31
0.0
  0
LINE
  5
229
  8
0
 62
     0
 10
258.08426074221529
 20
243.58857172789109
 30
0.0
 11
258.36154158982788
 21
243.86585257550371
 31
0.0
  0
LINE
  5
22A
  8
0
 62
     0
 10
274.08761320808389
 20
259.59192419375972
 30
0.0
 11
274.86116032214738
 21
260.36547130782333
 31
0.0
  0
LINE
  5
22B
  8
0
 62
     0
 10
259.58426074221529
 20
245.08857172789109
 30
0.0
 11
261.58426074221529
 21
247.08857172789101
 31
0.0
  0
LINE
  5
22C
  8
0
 62
     0
 10
269.36154158982788
 20
254.8658525755036
 30
0.0
 11
272.27640866391801
 21
257.78071964959389
 31
0.0
  0
LINE
  5
22D
  8
0
 62
     0
 10
258.08426074221529
 20
243.41179503259451
 30
0.0
 11
258.53831828512449
 21
243.86585257550371
 31
0.0
  0
LINE
  5
22E
  8
0
 62
     0
 10
273.85231371144101
 20
259.17984800182018
 30
0.0
 11
275.02418987501193
 21
260.35172416539098
 31
0.0
  0
LINE
  5
22F
  8
0
 62
     0
 10
259.58426074221529
 20
244.9117950325944
 30
0.0
 11
261.58426074221529
 21
246.9117950325944
 31
0.0
  0
LINE
  5
230
  8
0
 62
     0
 10
269.53831828512449
 20
254.8658525755036
 30
0.0
 11
272.6884848558575
 21
258.01601914623672
 31
0.0
  0
LINE
  5
231
  8
0
 62
     0
 10
258.08426074221529
 20
243.23501833729779
 30
0.0
 11
258.71509498042121
 21
243.86585257550371
 31
0.0
  0
LINE
  5
232
  8
0
 62
     0
 10
269.7150949804211
 20
254.8658525755036
 30
0.0
 11
275.15894810865592
 21
260.30970570373847
 31
0.0
  0
LINE
  5
233
  8
0
 62
     0
 10
259.58426074221529
 20
244.73501833729779
 30
0.0
 11
261.58426074221529
 21
246.73501833729779
 31
0.0
  0
LINE
  5
234
  8
0
 62
     0
 10
258.08426074221529
 20
243.05824164200121
 30
0.0
 11
258.89187167571782
 21
243.86585257550371
 31
0.0
  0
LINE
  5
235
  8
0
 62
     0
 10
269.89187167571771
 20
254.8658525755036
 30
0.0
 11
275.27360365529069
 21
260.24758455507663
 31
0.0
  0
LINE
  5
236
  8
0
 62
     0
 10
259.58426074221529
 20
244.55824164200121
 30
0.0
 11
261.58426074221529
 21
246.55824164200121
 31
0.0
  0
LINE
  5
237
  8
0
 62
     0
 10
258.08426074221529
 20
242.88146494670451
 30
0.0
 11
259.06864837101438
 21
243.86585257550371
 31
0.0
  0
LINE
  5
238
  8
0
 62
     0
 10
270.06864837101438
 20
254.8658525755036
 30
0.0
 11
275.37136774443297
 21
260.16857194892231
 31
0.0
  0
LINE
  5
239
  8
0
 62
     0
 10
259.58426074221529
 20
244.38146494670451
 30
0.0
 11
261.58426074221529
 21
246.3814649467046
 31
0.0
  0
LINE
  5
23A
  8
0
 62
     0
 10
258.08426074221529
 20
242.7046882514079
 30
0.0
 11
259.24542506631099
 21
243.86585257550371
 31
0.0
  0
LINE
  5
23B
  8
0
 62
     0
 10
270.2454250663111
 20
254.8658525755036
 30
0.0
 11
275.45321419249541
 21
260.07364170168802
 31
0.0
  0
LINE
  5
23C
  8
0
 62
     0
 10
259.58426074221529
 20
244.2046882514079
 30
0.0
 11
261.58426074221529
 21
246.2046882514079
 31
0.0
  0
LINE
  5
23D
  8
0
 62
     0
 10
258.08426074221529
 20
242.52791155611129
 30
0.0
 11
259.42220176160771
 21
243.86585257550371
 31
0.0
  0
LINE
  5
23E
  8
0
 62
     0
 10
270.42220176160771
 20
254.8658525755036
 30
0.0
 11
275.51847201416581
 21
259.96212282806169
 31
0.0
  0
LINE
  5
23F
  8
0
 62
     0
 10
259.58426074221529
 20
244.02791155611121
 30
0.0
 11
261.58426074221529
 21
246.02791155611129
 31
0.0
  0
LINE
  5
240
  8
0
 62
     0
 10
258.08426074221529
 20
242.3511348608146
 30
0.0
 11
261.58426074221529
 21
245.8511348608146
 31
0.0
  0
LINE
  5
241
  8
0
 62
     0
 10
270.59897845690432
 20
254.8658525755036
 30
0.0
 11
275.56442737923783
 21
259.8313014978371
 31
0.0
  0
LINE
  5
242
  8
0
 62
     0
 10
258.08426074221529
 20
242.17435816551799
 30
0.0
 11
261.58426074221529
 21
245.67435816551799
 31
0.0
  0
LINE
  5
243
  8
0
 62
     0
 10
270.77575515220099
 20
254.8658525755036
 30
0.0
 11
275.58420968386338
 21
259.6743071071661
 31
0.0
  0
LINE
  5
244
  8
0
 62
     0
 10
258.08426074221529
 20
241.99758147022141
 30
0.0
 11
261.58426074221529
 21
245.49758147022129
 31
0.0
  0
LINE
  5
245
  8
0
 62
     0
 10
270.9525318474976
 20
254.8658525755036
 30
0.0
 11
275.579254696357
 21
259.492575424363
 31
0.0
  0
LINE
  5
246
  8
0
 62
     0
 10
258.12930854279421
 20
241.8658525755036
 30
0.0
 11
261.58426074221529
 21
245.32080477492471
 31
0.0
  0
LINE
  5
247
  8
0
 62
     0
 10
271.12930854279432
 20
254.8658525755036
 30
0.0
 11
275.56165210948711
 21
259.2981961421965
 31
0.0
  0
LINE
  5
248
  8
0
 62
     0
 10
258.30608523809087
 20
241.8658525755036
 30
0.0
 11
261.58426074221529
 21
245.1440280796281
 31
0.0
  0
LINE
  5
249
  8
0
 62
     0
 10
271.30608523809087
 20
254.8658525755036
 30
0.0
 11
275.52805611200591
 21
259.08782344941858
 31
0.0
  0
LINE
  5
24A
  8
0
 62
     0
 10
258.48286193338748
 20
241.8658525755036
 30
0.0
 11
261.58426074221529
 21
244.96725138433141
 31
0.0
  0
LINE
  5
24B
  8
0
 62
     0
 10
271.48286193338748
 20
254.8658525755036
 30
0.0
 11
275.47285041900761
 21
258.85584106112378
 31
0.0
  0
LINE
  5
24C
  8
0
 62
     0
 10
258.65963862868421
 20
241.8658525755036
 30
0.0
 11
261.58426074221529
 21
244.7904746890348
 31
0.0
  0
LINE
  5
24D
  8
0
 62
     0
 10
271.65699032576811
 20
254.86320427258761
 30
0.0
 11
275.38531954590178
 21
258.59153349272128
 31
0.0
  0
LINE
  5
24E
  8
0
 62
     0
 10
258.83641532398082
 20
241.8658525755036
 30
0.0
 11
261.58426074221529
 21
244.6136979937381
 31
0.0
  0
LINE
  5
24F
  8
0
 62
     0
 10
271.81048952031313
 20
254.83992677183591
 30
0.0
 11
275.23888461207167
 21
258.26832186359462
 31
0.0
  0
LINE
  5
250
  8
0
 62
     0
 10
259.01319201927743
 20
241.8658525755036
 30
0.0
 11
261.58426074221529
 21
244.43692129844149
 31
0.0
  0
LINE
  5
251
  8
0
 62
     0
 10
271.945619052231
 20
254.79827960845719
 30
0.0
 11
275.01679671513892
 21
257.86945727136509
 31
0.0
  0
LINE
  5
252
  8
0
 62
     0
 10
259.18996871457398
 20
241.8658525755036
 30
0.0
 11
261.58426074221529
 21
244.26014460314491
 31
0.0
  0
LINE
  5
253
  8
0
 62
     0
 10
272.0661828024746
 20
254.74206666340419
 30
0.0
 11
274.87063190114952
 21
257.54651576207908
 31
0.0
  0
LINE
  5
254
  8
0
 62
     0
 10
259.3667454098707
 20
241.8658525755036
 30
0.0
 11
261.58426074221529
 21
244.08336790784821
 31
0.0
  0
LINE
  5
255
  8
0
 62
     0
 10
272.17419597714388
 20
254.6733031427768
 30
0.0
 11
274.77190132766827
 21
257.27100849330128
 31
0.0
  0
LINE
  5
256
  8
0
 62
     0
 10
259.54352210516731
 20
241.8658525755036
 30
0.0
 11
261.58426074221529
 21
243.9065912125516
 31
0.0
  0
LINE
  5
257
  8
0
 62
     0
 10
272.27070475892413
 20
254.59303522926041
 30
0.0
 11
274.70223704169342
 21
257.02456751202971
 31
0.0
  0
LINE
  5
258
  8
0
 62
     0
 10
259.72029880046398
 20
241.8658525755036
 30
0.0
 11
261.72029880046398
 21
243.86585257550371
 31
0.0
  0
LINE
  5
259
  8
0
 62
     0
 10
272.35610745740843
 20
254.5016612324481
 30
0.0
 11
274.65298293549972
 21
256.79853671053939
 31
0.0
  0
LINE
  5
25A
  8
0
 62
     0
 10
259.89707549576059
 20
241.8658525755036
 30
0.0
 11
261.89707549576059
 21
243.86585257550371
 31
0.0
  0
LINE
  5
25B
  8
0
 62
     0
 10
272.43025983333138
 20
254.39903691307441
 30
0.0
 11
274.61922816929012
 21
256.58800524903319
 31
0.0
  0
LINE
  5
25C
  8
0
 62
     0
 10
260.07385219105731
 20
241.8658525755036
 30
0.0
 11
262.07385219105731
 21
243.86585257550371
 31
0.0
  0
LINE
  5
25D
  8
0
 62
     0
 10
272.49243799585253
 20
254.28443838029889
 30
0.0
 11
274.59786387225239
 21
256.38986425669879
 31
0.0
  0
LINE
  5
25E
  8
0
 62
     0
 10
260.25062888635392
 20
241.8658525755036
 30
0.0
 11
262.25062888635392
 21
243.86585257550371
 31
0.0
  0
LINE
  5
25F
  8
0
 62
     0
 10
272.54113413928491
 20
254.15635782843469
 30
0.0
 11
274.58677273815158
 21
256.20199642730131
 31
0.0
  0
LINE
  5
260
  8
0
 62
     0
 10
260.42740558165048
 20
241.8658525755036
 30
0.0
 11
262.42740558165048
 21
243.86585257550371
 31
0.0
  0
LINE
  5
261
  8
0
 62
     0
 10
272.57352735331892
 20
254.0119743471721
 30
0.0
 11
274.58426074221529
 21
256.02270773606841
 31
0.0
  0
LINE
  5
262
  8
0
 62
     0
 10
260.60418227694709
 20
241.8658525755036
 30
0.0
 11
262.60418227694709
 21
243.86585257550371
 31
0.0
  0
LINE
  5
263
  8
0
 62
     0
 10
272.58426074221529
 20
253.8459310407718
 30
0.0
 11
274.58426074221529
 21
255.8459310407718
 31
0.0
  0
LINE
  5
264
  8
0
 62
     0
 10
260.78095897224381
 20
241.8658525755036
 30
0.0
 11
262.78095897224381
 21
243.86585257550371
 31
0.0
  0
LINE
  5
265
  8
0
 62
     0
 10
272.58426074221529
 20
253.66915434547511
 30
0.0
 11
274.58426074221529
 21
255.66915434547519
 31
0.0
  0
LINE
  5
266
  8
0
 62
     0
 10
260.95773566754042
 20
241.8658525755036
 30
0.0
 11
262.95773566754042
 21
243.86585257550371
 31
0.0
  0
LINE
  5
267
  8
0
 62
     0
 10
272.58426074221529
 20
253.4923776501785
 30
0.0
 11
274.58426074221529
 21
255.4923776501785
 31
0.0
  0
LINE
  5
268
  8
0
 62
     0
 10
261.13451236283697
 20
241.8658525755036
 30
0.0
 11
263.08426074221529
 21
243.81560095488189
 31
0.0
  0
LINE
  5
269
  8
0
 62
     0
 10
272.58426074221529
 20
253.31560095488189
 30
0.0
 11
274.58426074221529
 21
255.31560095488189
 31
0.0
  0
LINE
  5
26A
  8
0
 62
     0
 10
261.3112890581337
 20
241.8658525755036
 30
0.0
 11
263.08426074221529
 21
243.63882425958519
 31
0.0
  0
LINE
  5
26B
  8
0
 62
     0
 10
272.58426074221529
 20
253.13882425958519
 30
0.0
 11
274.58426074221529
 21
255.13882425958519
 31
0.0
  0
LINE
  5
26C
  8
0
 62
     0
 10
261.48806575343031
 20
241.8658525755036
 30
0.0
 11
263.08426074221529
 21
243.46204756428861
 31
0.0
  0
LINE
  5
26D
  8
0
 62
     0
 10
272.58426074221529
 20
252.96204756428861
 30
0.0
 11
274.58426074221529
 21
254.96204756428861
 31
0.0
  0
LINE
  5
26E
  8
0
 62
     0
 10
261.66484244872697
 20
241.8658525755036
 30
0.0
 11
263.08426074221529
 21
243.285270868992
 31
0.0
  0
LINE
  5
26F
  8
0
 62
     0
 10
272.58426074221529
 20
252.785270868992
 30
0.0
 11
274.58426074221529
 21
254.785270868992
 31
0.0
  0
LINE
  5
270
  8
0
 62
     0
 10
261.84161914402358
 20
241.8658525755036
 30
0.0
 11
263.08426074221529
 21
243.10849417369531
 31
0.0
  0
LINE
  5
271
  8
0
 62
     0
 10
272.58426074221529
 20
252.60849417369531
 30
0.0
 11
274.58426074221529
 21
254.60849417369531
 31
0.0
  0
LINE
  5
272
  8
0
 62
     0
 10
262.01839583932019
 20
241.8658525755036
 30
0.0
 11
263.08426074221529
 21
242.9317174783987
 31
0.0
  0
LINE
  5
273
  8
0
 62
     0
 10
272.58426074221529
 20
252.4317174783987
 30
0.0
 11
274.58426074221529
 21
254.4317174783987
 31
0.0
  0
LINE
  5
274
  8
0
 62
     0
 10
262.19517253461692
 20
241.8658525755036
 30
0.0
 11
263.08426074221529
 21
242.754940783102
 31
0.0
  0
LINE
  5
275
  8
0
 62
     0
 10
272.58426074221529
 20
252.25494078310211
 30
0.0
 11
274.58426074221529
 21
254.25494078310211
 31
0.0
  0
LINE
  5
276
  8
0
 62
     0
 10
262.37194922991353
 20
241.8658525755036
 30
0.0
 11
263.08426074221529
 21
242.57816408780539
 31
0.0
  0
LINE
  5
277
  8
0
 62
     0
 10
272.58426074221529
 20
252.07816408780539
 30
0.0
 11
274.58426074221529
 21
254.0781640878055
 31
0.0
  0
LINE
  5
278
  8
0
 62
     0
 10
262.54872592521008
 20
241.8658525755036
 30
0.0
 11
263.08426074221529
 21
242.4013873925087
 31
0.0
  0
LINE
  5
279
  8
0
 62
     0
 10
272.58426074221529
 20
251.90138739250881
 30
0.0
 11
274.58426074221529
 21
253.90138739250881
 31
0.0
  0
LINE
  5
27A
  8
0
 62
     0
 10
262.7255026205068
 20
241.8658525755036
 30
0.0
 11
263.08426074221529
 21
242.22461069721211
 31
0.0
  0
LINE
  5
27B
  8
0
 62
     0
 10
272.58426074221529
 20
251.72461069721211
 30
0.0
 11
274.58426074221529
 21
253.72461069721211
 31
0.0
  0
LINE
  5
27C
  8
0
 62
     0
 10
262.90227931580341
 20
241.8658525755036
 30
0.0
 11
263.08426074221529
 21
242.0478340019155
 31
0.0
  0
LINE
  5
27D
  8
0
 62
     0
 10
272.58426074221529
 20
251.5478340019155
 30
0.0
 11
274.58426074221529
 21
253.5478340019155
 31
0.0
  0
LINE
  5
27E
  8
0
 62
     0
 10
263.07905601110008
 20
241.8658525755036
 30
0.0
 11
263.08426074221529
 21
241.87105730661889
 31
0.0
  0
LINE
  5
27F
  8
0
 62
     0
 10
272.58426074221529
 20
251.37105730661889
 30
0.0
 11
274.58426074221529
 21
253.37105730661889
 31
0.0
  0
LINE
  5
280
  8
0
 62
     0
 10
272.58426074221529
 20
251.1942806113222
 30
0.0
 11
274.58426074221529
 21
253.19428061132231
 31
0.0
  0
LINE
  5
281
  8
0
 62
     0
 10
272.58426074221529
 20
251.01750391602559
 30
0.0
 11
274.58426074221529
 21
253.01750391602559
 31
0.0
  0
LINE
  5
282
  8
0
 62
     0
 10
272.58426074221529
 20
250.84072722072901
 30
0.0
 11
274.58426074221529
 21
252.84072722072901
 31
0.0
  0
LINE
  5
283
  8
0
 62
     0
 10
272.58426074221529
 20
250.66395052543231
 30
0.0
 11
274.58426074221529
 21
252.66395052543231
 31
0.0
  0
LINE
  5
284
  8
0
 62
     0
 10
272.58426074221529
 20
250.4871738301357
 30
0.0
 11
274.58426074221529
 21
252.4871738301357
 31
0.0
  0
LINE
  5
285
  8
0
 62
     0
 10
272.58426074221529
 20
250.31039713483901
 30
0.0
 11
274.58426074221529
 21
252.31039713483901
 31
0.0
  0
LINE
  5
286
  8
0
 62
     0
 10
272.58426074221529
 20
250.1336204395424
 30
0.0
 11
274.58426074221529
 21
252.1336204395424
 31
0.0
  0
LINE
  5
287
  8
0
 62
     0
 10
272.58426074221529
 20
249.95684374424579
 30
0.0
 11
274.58426074221529
 21
251.95684374424579
 31
0.0
  0
LINE
  5
288
  8
0
 62
     0
 10
272.58426074221529
 20
249.78006704894909
 30
0.0
 11
274.58426074221529
 21
251.78006704894909
 31
0.0
  0
LINE
  5
289
  8
0
 62
     0
 10
272.58426074221529
 20
249.60329035365251
 30
0.0
 11
274.58426074221529
 21
251.6032903536526
 31
0.0
  0
LINE
  5
28A
  8
0
 62
     0
 10
272.58426074221529
 20
249.4265136583559
 30
0.0
 11
274.58426074221529
 21
251.4265136583559
 31
0.0
  0
LINE
  5
28B
  8
0
 62
     0
 10
272.58426074221529
 20
249.24973696305921
 30
0.0
 11
274.58426074221529
 21
251.24973696305929
 31
0.0
  0
LINE
  5
28C
  8
0
 62
     0
 10
272.58426074221529
 20
249.0729602677626
 30
0.0
 11
274.58426074221529
 21
251.0729602677626
 31
0.0
  0
LINE
  5
28D
  8
0
 62
     0
 10
272.58426074221529
 20
248.8961835724659
 30
0.0
 11
274.58426074221529
 21
250.8961835724659
 31
0.0
  0
LINE
  5
28E
  8
0
 62
     0
 10
272.58426074221529
 20
248.71940687716929
 30
0.0
 11
274.58426074221529
 21
250.71940687716929
 31
0.0
  0
LINE
  5
28F
  8
0
 62
     0
 10
272.58426074221529
 20
248.54263018187271
 30
0.0
 11
274.58426074221529
 21
250.54263018187271
 31
0.0
  0
LINE
  5
290
  8
0
 62
     0
 10
272.58426074221529
 20
248.36585348657599
 30
0.0
 11
274.58426074221529
 21
250.3658534865761
 31
0.0
  0
LINE
  5
291
  8
0
 62
     0
 10
272.58426074221529
 20
248.1890767912794
 30
0.0
 11
274.58426074221529
 21
250.1890767912794
 31
0.0
  0
LINE
  5
292
  8
0
 62
     0
 10
272.58426074221529
 20
248.01230009598279
 30
0.0
 11
274.58426074221529
 21
250.01230009598279
 31
0.0
  0
LINE
  5
293
  8
0
 62
     0
 10
272.58426074221529
 20
247.8355234006861
 30
0.0
 11
274.58426074221529
 21
249.8355234006861
 31
0.0
  0
LINE
  5
294
  8
0
 62
     0
 10
272.58426074221529
 20
247.65874670538949
 30
0.0
 11
274.58426074221529
 21
249.65874670538949
 31
0.0
  0
LINE
  5
295
  8
0
 62
     0
 10
272.58426074221529
 20
247.48197001009279
 30
0.0
 11
274.58426074221529
 21
249.48197001009291
 31
0.0
  0
LINE
  5
296
  8
0
 62
     0
 10
272.58426074221529
 20
247.30519331479621
 30
0.0
 11
274.58426074221529
 21
249.30519331479621
 31
0.0
  0
LINE
  5
297
  8
0
 62
     0
 10
272.58426074221529
 20
247.1284166194996
 30
0.0
 11
274.58426074221529
 21
249.1284166194996
 31
0.0
  0
LINE
  5
298
  8
0
 62
     0
 10
272.58426074221529
 20
246.95163992420291
 30
0.0
 11
274.58426074221529
 21
248.95163992420299
 31
0.0
  0
LINE
  5
299
  8
0
 62
     0
 10
272.58426074221529
 20
246.7748632289063
 30
0.0
 11
274.58426074221529
 21
248.7748632289063
 31
0.0
  0
LINE
  5
29A
  8
0
 62
     0
 10
272.58426074221529
 20
246.59808653360969
 30
0.0
 11
274.58426074221529
 21
248.59808653360969
 31
0.0
  0
LINE
  5
29B
  8
0
 62
     0
 10
272.58426074221529
 20
246.42130983831299
 30
0.0
 11
274.58426074221529
 21
248.42130983831299
 31
0.0
  0
LINE
  5
29C
  8
0
 62
     0
 10
272.58426074221529
 20
246.24453314301641
 30
0.0
 11
274.58426074221529
 21
248.24453314301641
 31
0.0
  0
LINE
  5
29D
  8
0
 62
     0
 10
272.58426074221529
 20
246.0677564477198
 30
0.0
 11
274.58426074221529
 21
248.0677564477198
 31
0.0
  0
LINE
  5
29E
  8
0
 62
     0
 10
272.58426074221529
 20
245.89097975242311
 30
0.0
 11
274.58426074221529
 21
247.89097975242311
 31
0.0
  0
LINE
  5
29F
  8
0
 62
     0
 10
272.58426074221529
 20
245.7142030571265
 30
0.0
 11
274.58426074221529
 21
247.7142030571265
 31
0.0
  0
LINE
  5
2A0
  8
0
 62
     0
 10
272.58426074221529
 20
245.53742636182989
 30
0.0
 11
274.58426074221529
 21
247.53742636182989
 31
0.0
  0
LINE
  5
2A1
  8
0
 62
     0
 10
271.08426074221529
 20
243.86064966653319
 30
0.0
 11
271.08946365118572
 21
243.86585257550371
 31
0.0
  0
LINE
  5
2A2
  8
0
 62
     0
 10
272.58426074221529
 20
245.36064966653319
 30
0.0
 11
274.58426074221529
 21
247.36064966653319
 31
0.0
  0
LINE
  5
2A3
  8
0
 62
     0
 10
271.08426074221529
 20
243.68387297123661
 30
0.0
 11
271.26624034648239
 21
243.86585257550371
 31
0.0
  0
LINE
  5
2A4
  8
0
 62
     0
 10
272.58426074221529
 20
245.18387297123661
 30
0.0
 11
274.58426074221529
 21
247.18387297123661
 31
0.0
  0
LINE
  5
2A5
  8
0
 62
     0
 10
271.08426074221529
 20
243.50709627593989
 30
0.0
 11
271.443017041779
 21
243.86585257550371
 31
0.0
  0
LINE
  5
2A6
  8
0
 62
     0
 10
272.58426074221529
 20
245.00709627593989
 30
0.0
 11
274.58426074221529
 21
247.00709627594
 31
0.0
  0
LINE
  5
2A7
  8
0
 62
     0
 10
271.08426074221529
 20
243.33031958064331
 30
0.0
 11
271.61979373707572
 21
243.86585257550371
 31
0.0
  0
LINE
  5
2A8
  8
0
 62
     0
 10
272.58426074221529
 20
244.83031958064331
 30
0.0
 11
274.58426074221529
 21
246.83031958064331
 31
0.0
  0
LINE
  5
2A9
  8
0
 62
     0
 10
271.08426074221529
 20
243.1535428853467
 30
0.0
 11
271.79657043237228
 21
243.86585257550371
 31
0.0
  0
LINE
  5
2AA
  8
0
 62
     0
 10
272.58426074221529
 20
244.6535428853467
 30
0.0
 11
274.58426074221529
 21
246.6535428853467
 31
0.0
  0
LINE
  5
2AB
  8
0
 62
     0
 10
271.08426074221529
 20
242.97676619005
 30
0.0
 11
271.97334712766889
 21
243.86585257550371
 31
0.0
  0
LINE
  5
2AC
  8
0
 62
     0
 10
272.58426074221529
 20
244.47676619005
 30
0.0
 11
274.58426074221529
 21
246.47676619005
 31
0.0
  0
LINE
  5
2AD
  8
0
 62
     0
 10
271.08426074221529
 20
242.79998949475339
 30
0.0
 11
272.1501238229655
 21
243.86585257550371
 31
0.0
  0
LINE
  5
2AE
  8
0
 62
     0
 10
272.58426074221529
 20
244.29998949475339
 30
0.0
 11
274.58426074221529
 21
246.29998949475339
 31
0.0
  0
LINE
  5
2AF
  8
0
 62
     0
 10
271.08426074221529
 20
242.6232127994567
 30
0.0
 11
272.32690051826222
 21
243.86585257550371
 31
0.0
  0
LINE
  5
2B0
  8
0
 62
     0
 10
272.58426074221529
 20
244.12321279945681
 30
0.0
 11
274.58426074221529
 21
246.12321279945681
 31
0.0
  0
LINE
  5
2B1
  8
0
 62
     0
 10
271.08426074221529
 20
242.44643610416011
 30
0.0
 11
272.50367721355877
 21
243.86585257550371
 31
0.0
  0
LINE
  5
2B2
  8
0
 62
     0
 10
272.58426074221529
 20
243.94643610416011
 30
0.0
 11
274.58426074221529
 21
245.9464361041602
 31
0.0
  0
LINE
  5
2B3
  8
0
 62
     0
 10
271.08426074221529
 20
242.2696594088635
 30
0.0
 11
274.58426074221529
 21
245.7696594088635
 31
0.0
  0
LINE
  5
2B4
  8
0
 62
     0
 10
271.08426074221529
 20
242.09288271356681
 30
0.0
 11
274.58426074221529
 21
245.59288271356681
 31
0.0
  0
LINE
  5
2B5
  8
0
 62
     0
 10
271.08426074221529
 20
241.9161060182702
 30
0.0
 11
274.58426074221529
 21
245.4161060182702
 31
0.0
  0
LINE
  5
2B6
  8
0
 62
     0
 10
271.21078399474538
 20
241.8658525755036
 30
0.0
 11
274.58426074221529
 21
245.23932932297359
 31
0.0
  0
LINE
  5
2B7
  8
0
 62
     0
 10
271.38756069004199
 20
241.8658525755036
 30
0.0
 11
274.58426074221529
 21
245.06255262767701
 31
0.0
  0
LINE
  5
2B8
  8
0
 62
     0
 10
271.5643373853386
 20
241.8658525755036
 30
0.0
 11
274.58426074221529
 21
244.88577593238031
 31
0.0
  0
LINE
  5
2B9
  8
0
 62
     0
 10
271.74111408063533
 20
241.8658525755036
 30
0.0
 11
274.58426074221529
 21
244.7089992370837
 31
0.0
  0
LINE
  5
2BA
  8
0
 62
     0
 10
271.91789077593188
 20
241.8658525755036
 30
0.0
 11
274.58426074221529
 21
244.53222254178709
 31
0.0
  0
LINE
  5
2BB
  8
0
 62
     0
 10
272.0946674712286
 20
241.8658525755036
 30
0.0
 11
274.58426074221529
 21
244.3554458464904
 31
0.0
  0
LINE
  5
2BC
  8
0
 62
     0
 10
272.27144416652521
 20
241.8658525755036
 30
0.0
 11
274.58426074221529
 21
244.1786691511937
 31
0.0
  0
LINE
  5
2BD
  8
0
 62
     0
 10
272.44822086182182
 20
241.8658525755036
 30
0.0
 11
274.58426074221529
 21
244.00189245589709
 31
0.0
  0
LINE
  5
2BE
  8
0
 62
     0
 10
272.62499755711838
 20
241.8658525755036
 30
0.0
 11
274.58426074221529
 21
243.8251157606004
 31
0.0
  0
LINE
  5
2BF
  8
0
 62
     0
 10
272.8017742524151
 20
241.8658525755036
 30
0.0
 11
274.58426074221529
 21
243.6483390653039
 31
0.0
  0
LINE
  5
2C0
  8
0
 62
     0
 10
272.97855094771171
 20
241.8658525755036
 30
0.0
 11
274.58426074221529
 21
243.47156237000721
 31
0.0
  0
LINE
  5
2C1
  8
0
 62
     0
 10
273.15532764300838
 20
241.8658525755036
 30
0.0
 11
274.58426074221529
 21
243.2947856747106
 31
0.0
  0
LINE
  5
2C2
  8
0
 62
     0
 10
273.33210433830499
 20
241.8658525755036
 30
0.0
 11
274.58426074221529
 21
243.1180089794139
 31
0.0
  0
LINE
  5
2C3
  8
0
 62
     0
 10
273.50888103360171
 20
241.8658525755036
 30
0.0
 11
274.58426074221529
 21
242.94123228411729
 31
0.0
  0
LINE
  5
2C4
  8
0
 62
     0
 10
273.69141536012688
 20
241.87161020673221
 30
0.0
 11
274.57850311098667
 21
242.75869795759209
 31
0.0
  0
LINE
  5
2C5
  8
0
 62
     0
 10
273.92074551831848
 20
241.92416366962721
 30
0.0
 11
274.5259496480918
 21
242.52936779940049
 31
0.0
  0
ENDBLK
  5
2C6
  8
0
  0
ENDSEC
  0
SECTION
  2
ENTITIES
  0
LINE
  5
2D5
  8
ANA
 62
     0
 10
838.74924269954272
 20
713.71366141351609
 30
0.0
 11
840.24924269954272
 21
713.71366141351609
 31
0.0
1001
ACAD
1000
ASC_BOUNDS
1002
{
1070
    19
1005
2D3
1002
}
  0
LINE
  5
2D6
  8
ANA
 62
     0
 10
840.24924269954272
 20
713.71366141351609
 30
0.0
 11
840.24924269954272
 21
723.71366141351598
 31
0.0
1001
ACAD
1000
ASC_BOUNDS
1002
{
1070
    19
1005
2D3
1002
}
  0
ARC
  5
2D7
  8
ANA
 62
     0
 10
839.24924269954283
 20
723.71366141351598
 30
0.0
 40
1.0
 50
0.0
 51
90.0
1001
ACAD
1000
ASC_BOUNDS
1002
{
1070
    19
1005
2D3
1002
}
  0
LINE
  5
2D8
  8
ANA
 62
     0
 10
839.24924269954283
 20
724.71366141351598
 30
0.0
 11
836.23584957427408
 21
724.71366141351598
 31
0.0
1001
ACAD
1000
ASC_BOUNDS
1002
{
1070
    19
1005
2D3
1002
}
  0
ARC
  5
2D9
  8
ANA
 62
     0
 10
834.74924269954238
 20
724.51366141351605
 30
0.0
 40
1.4999999999997491
 50
7.6622556607691017
 51
172.3377443392308
1001
ACAD
1000
ASC_BOUNDS
1002
{
1070
    19
1005
2D3
1002
}
  0
LINE
  5
2DA
  8
ANA
 62
     0
 10
833.2626358248109
 20
724.71366141351598
 30
0.0
 11
830.24924269954261
 21
724.71366141351598
 31
0.0
1001
ACAD
1000
ASC_BOUNDS
1002
{
1070
    19
1005
2D3
1002
}
  0
ARC
  5
2DB
  8
ANA
 62
     0
 10
830.24924269954261
 20
723.71366141351598
 30
0.0
 40
1.0
 50
90.0
 51
180.0
1001
ACAD
1000
ASC_BOUNDS
1002
{
1070
    19
1005
2D3
1002
}
  0
LINE
  5
2DC
  8
ANA
 62
     0
 10
829.24924269954261
 20
723.71366141351598
 30
0.0
 11
829.24924269954261
 21
713.71366141351609
 31
0.0
1001
ACAD
1000
ASC_BOUNDS
1002
{
1070
    19
1005
2D3
1002
}
  0
LINE
  5
2DD
  8
ANA
 62
     0
 10
829.24924269954261
 20
713.71366141351609
 30
0.0
 11
830.74924269954272
 21
713.71366141351609
 31
0.0
1001
ACAD
1000
ASC_BOUNDS
1002
{
1070
    19
1005
2D3
1002
}
  0
LINE
  5
2DE
  8
ANA
 62
     0
 10
830.74924269954272
 20
713.71366141351609
 30
0.0
 11
830.74924269954272
 21
711.71366141351598
 31
0.0
1001
ACAD
1000
ASC_BOUNDS
1002
{
1070
    19
1005
2D3
1002
}
  0
LINE
  5
2DF
  8
ANA
 62
     0
 10
830.74924269954272
 20
711.71366141351598
 30
0.0
 11
828.24924269954261
 21
711.71366141351598
 31
0.0
1001
ACAD
1000
ASC_BOUNDS
1002
{
1070
    19
1005
2D3
1002
}
  0
ARC
  5
2E0
  8
ANA
 62
     0
 10
828.24924269954261
 20
712.71366141351598
 30
0.0
 40
1.0
 50
180.0
 51
270.0
1001
ACAD
1000
ASC_BOUNDS
1002
{
1070
    19
1005
2D3
1002
}
  0
LINE
  5
2E1
  8
ANA
 62
     0
 10
827.24924269954272
 20
712.71366141351598
 30
0.0
 11
827.24924269954272
 21
724.59588763599356
 31
0.0
1001
ACAD
1000
ASC_BOUNDS
1002
{
1070
    19
1005
2D3
1002
}
  0
ARC
  5
2E2
  8
ANA
 62
     0
 10
823.24924269954283
 20
724.59588763599356
 30
0.0
 40
4.0
 50
0.0
 51
33.557278538941482
1001
ACAD
1000
ASC_BOUNDS
1002
{
1070
    19
1005
2D3
1002
}
  0
ARC
  5
2E3
  8
ANA
 62
     0
 10
828.24924450691606
 20
727.91250970162946
 30
0.0
 40
2.0000000000000608
 50
179.99686324011981
 51
213.55727853893831
1001
ACAD
1000
ASC_BOUNDS
1002
{
1070
    19
1005
2D3
1002
}
  0
ARC
  5
2E4
  8
ANA
 62
     0
 10
826.54924269954267
 20
727.91366141351614
 30
0.0
 40
0.2999999999999669
 50
56.413330657401481
 51
180.19904943558609
1001
ACAD
1000
ASC_BOUNDS
1002
{
1070
    19
1005
2D3
1002
}
  0
LINE
  5
2E5
  8
ANA
 62
     0
 10
826.7152020226207
 20
728.16357640523006
 30
0.0
 11
827.64284721235617
 21
727.54756146875479
 31
0.0
1001
ACAD
1000
ASC_BOUNDS
1002
{
1070
    19
1005
2D3
1002
}
  0
ARC
  5
2E6
  8
ANA
 62
     0
 10
828.74924269954272
 20
729.21366141351598
 30
0.0
 40
2.0000000000000271
 50
236.4133306574102
 51
0.0
1001
ACAD
1000
ASC_BOUNDS
1002
{
1070
    19
1005
2D3
1002
}
  0
LINE
  5
2E7
  8
ANA
 62
     0
 10
830.74924269954272
 20
729.21366141351598
 30
0.0
 11
830.74924269954272
 21
740.71366141351598
 31
0.0
1001
ACAD
1000
ASC_BOUNDS
1002
{
1070
    19
1005
2D3
1002
}
  0
LINE
  5
2E8
  8
ANA
 62
     0
 10
830.74924269954272
 20
740.71366141351598
 30
0.0
 11
833.24924269954272
 21
740.71366141351598
 31
0.0
1001
ACAD
1000
ASC_BOUNDS
1002
{
1070
    19
1005
2D3
1002
}
  0
LINE
  5
2E9
  8
ANA
 62
     0
 10
833.24924269954272
 20
740.71366141351598
 30
0.0
 11
833.24924269954272
 21
728.21366141351598
 31
0.0
1001
ACAD
1000
ASC_BOUNDS
1002
{
1070
    19
1005
2D3
1002
}
  0
ARC
  5
2EA
  8
ANA
 62
     0
 10
834.24924269954272
 20
728.21366141351598
 30
0.0
 40
1.0
 50
180.0
 51
270.0
1001
ACAD
1000
ASC_BOUNDS
1002
{
1070
    19
1005
2D3
1002
}
  0
LINE
  5
2EB
  8
ANA
 62
     0
 10
834.24924269954272
 20
727.21366141351609
 30
0.0
 11
841.24924269954272
 21
727.21366141351609
 31
0.0
1001
ACAD
1000
ASC_BOUNDS
1002
{
1070
    19
1005
2D3
1002
}
  0
ARC
  5
2EC
  8
ANA
 62
     0
 10
841.24924269954272
 20
728.21366141351598
 30
0.0
 40
1.0
 50
270.0
 51
0.0
1001
ACAD
1000
ASC_BOUNDS
1002
{
1070
    19
1005
2D3
1002
}
  0
LINE
  5
2ED
  8
ANA
 62
     0
 10
842.24924269954272
 20
728.21366141351598
 30
0.0
 11
842.24924269954272
 21
740.71366141351598
 31
0.0
1001
ACAD
1000
ASC_BOUNDS
1002
{
1070
    19
1005
2D3
1002
}
  0
LINE
  5
2EE
  8
ANA
 62
     0
 10
842.24924269954272
 20
740.71366141351598
 30
0.0
 11
844.74924269954272
 21
740.71366141351598
 31
0.0
1001
ACAD
1000
ASC_BOUNDS
1002
{
1070
    19
1005
2D3
1002
}
  0
LINE
  5
2EF
  8
ANA
 62
     0
 10
844.74924269954272
 20
740.71366141351598
 30
0.0
 11
844.74924269954272
 21
731.21366141351609
 31
0.0
1001
ACAD
1000
ASC_BOUNDS
1002
{
1070
    19
1005
2D3
1002
}
  0
ARC
  5
2F0
  8
ANA
 62
     0
 10
848.74924269954272
 20
731.21366141351609
 30
0.0
 40
4.0
 50
180.0
 51
270.0
1001
ACAD
1000
ASC_BOUNDS
1002
{
1070
    19
1005
2D3
1002
}
  0
LINE
  5
2F1
  8
ANA
 62
     0
 10
848.74924269954272
 20
727.21366141351609
 30
0.0
 11
851.16746223950145
 21
727.21366141351609
 31
0.0
1001
ACAD
1000
ASC_BOUNDS
1002
{
1070
    19
1005
2D3
1002
}
  0
ARC
  5
2F2
  8
ANA
 62
     0
 10
851.16746223950156
 20
731.21366141351609
 30
0.0
 40
4.0
 50
269.99999999999841
 51
338.79523363711832
1001
ACAD
1000
ASC_BOUNDS
1002
{
1070
    19
1005
2D3
1002
}
  0
ARC
  5
2F3
  8
ANA
 62
     0
 10
855.54924269954279
 20
729.51366141351605
 30
0.0
 40
0.6999999999999594
 50
0.0517808534881385
 51
158.7952336371286
1001
ACAD
1000
ASC_BOUNDS
1002
{
1070
    19
1005
2D3
1002
}
  0
ARC
  5
2F4
  8
ANA
 62
     0
 10
853.24924248982859
 20
729.51361808837055
 30
0.0
 40
2.9999999999998761
 50
329.00589133919118
 51
0.0129096469396982
1001
ACAD
1000
ASC_BOUNDS
1002
{
1070
    19
1005
2D3
1002
}
  0
ARC
  5
2F5
  8
ANA
 62
     0
 10
859.24924269954295
 20
725.90806727687868
 30
0.0
 40
4.0000000000002442
 50
148.99083025509699
 51
179.99999999999841
1001
ACAD
1000
ASC_BOUNDS
1002
{
1070
    19
1005
2D3
1002
}
  0
LINE
  5
2F6
  8
ANA
 62
     0
 10
855.24924269954261
 20
725.9080672768788
 30
0.0
 11
855.24924269954261
 21
712.71366141351598
 31
0.0
1001
ACAD
1000
ASC_BOUNDS
1002
{
1070
    19
1005
2D3
1002
}
  0
ARC
  5
2F7
  8
ANA
 62
     0
 10
854.24924269954261
 20
712.71366141351598
 30
0.0
 40
1.0
 50
270.0
 51
0.0
1001
ACAD
1000
ASC_BOUNDS
1002
{
1070
    19
1005
2D3
1002
}
  0
LINE
  5
2F8
  8
ANA
 62
     0
 10
854.24924269954261
 20
711.71366141351598
 30
0.0
 11
851.74924269954283
 21
711.71366141351598
 31
0.0
1001
ACAD
1000
ASC_BOUNDS
1002
{
1070
    19
1005
2D3
1002
}
  0
LINE
  5
2F9
  8
ANA
 62
     0
 10
851.74924269954283
 20
711.71366141351598
 30
0.0
 11
851.74924269954283
 21
713.71366141351609
 31
0.0
1001
ACAD
1000
ASC_BOUNDS
1002
{
1070
    19
1005
2D3
1002
}
  0
LINE
  5
2FA
  8
ANA
 62
     0
 10
851.74924269954283
 20
713.71366141351609
 30
0.0
 11
853.24924269954261
 21
713.71366141351609
 31
0.0
1001
ACAD
1000
ASC_BOUNDS
1002
{
1070
    19
1005
2D3
1002
}
  0
LINE
  5
2FB
  8
ANA
 62
     0
 10
853.24924269954261
 20
713.71366141351609
 30
0.0
 11
853.24924269954261
 21
723.71366141351598
 31
0.0
1001
ACAD
1000
ASC_BOUNDS
1002
{
1070
    19
1005
2D3
1002
}
  0
ARC
  5
2FC
  8
ANA
 62
     0
 10
852.24924269954272
 20
723.71366141351598
 30
0.0
 40
1.0
 50
0.0
 51
90.0
1001
ACAD
1000
ASC_BOUNDS
1002
{
1070
    19
1005
2D3
1002
}
  0
LINE
  5
2FD
  8
ANA
 62
     0
 10
852.24924269954272
 20
724.71366141351598
 30
0.0
 11
849.23584957427556
 21
724.71366141351598
 31
0.0
1001
ACAD
1000
ASC_BOUNDS
1002
{
1070
    19
1005
2D3
1002
}
  0
ARC
  5
2FE
  8
ANA
 62
     0
 10
847.74924269954317
 20
724.51366141351605
 30
0.0
 40
1.500000000000538
 50
7.662255660765048
 51
172.3377443392344
1001
ACAD
1000
ASC_BOUNDS
1002
{
1070
    19
1005
2D3
1002
}
  0
LINE
  5
2FF
  8
ANA
 62
     0
 10
846.26263582481079
 20
724.71366141351598
 30
0.0
 11
843.24924269954272
 21
724.71366141351598
 31
0.0
1001
ACAD
1000
ASC_BOUNDS
1002
{
1070
    19
1005
2D3
1002
}
  0
ARC
  5
300
  8
ANA
 62
     0
 10
843.24924269954272
 20
723.71366141351598
 30
0.0
 40
1.0
 50
90.0
 51
180.0
1001
ACAD
1000
ASC_BOUNDS
1002
{
1070
    19
1005
2D3
1002
}
  0
LINE
  5
301
  8
ANA
 62
     0
 10
842.24924269954272
 20
723.71366141351598
 30
0.0
 11
842.24924269954272
 21
713.71366141351609
 31
0.0
1001
ACAD
1000
ASC_BOUNDS
1002
{
1070
    19
1005
2D3
1002
}
  0
LINE
  5
302
  8
ANA
 62
     0
 10
842.24924269954272
 20
713.71366141351609
 30
0.0
 11
843.74924269954283
 21
713.71366141351609
 31
0.0
1001
ACAD
1000
ASC_BOUNDS
1002
{
1070
    19
1005
2D3
1002
}
  0
LINE
  5
303
  8
ANA
 62
     0
 10
843.74924269954283
 20
713.71366141351609
 30
0.0
 11
843.74924269954283
 21
711.71366141351598
 31
0.0
1001
ACAD
1000
ASC_BOUNDS
1002
{
1070
    19
1005
2D3
1002
}
  0
LINE
  5
304
  8
ANA
 62
     0
 10
843.74924269954283
 20
711.71366141351598
 30
0.0
 11
838.74924269954272
 21
711.71366141351598
 31
0.0
1001
ACAD
1000
ASC_BOUNDS
1002
{
1070
    19
1005
2D3
1002
}
  0
LINE
  5
305
  8
ANA
 62
     0
 10
838.74924269954272
 20
711.71366141351598
 30
0.0
 11
838.74924269954272
 21
713.71366141351609
 31
0.0
1001
ACAD
1000
ASC_BOUNDS
1002
{
1070
    19
1005
2D3
1002
}
  0
ENDSEC
  0
EOF
