  0
SECTION
  2
HEADER
  9
$ACADVER
  1
AC1012
  9
$DWGCODEPAGE
  3
ANSI_1252
  9
$INSBASE
 10
0.0
 20
0.0
 30
0.0
  9
$EXTMIN
 10
220.5733033946458
 20
-1.036333858159901
 30
0.0
  9
$EXTMAX
 10
430.5733033946459
 20
266.3661606567717
 30
0.0
  9
$LIMMIN
 10
0.0
 20
0.0
  9
$LIMMAX
 10
210.0
 20
300.0
  9
$ORTHOMODE
 70
     0
  9
$REGENMODE
 70
     1
  9
$FILLMODE
 70
     1
  9
$QTEXTMODE
 70
     0
  9
$MIRRTEXT
 70
     1
  9
$DRAGMODE
 70
     2
  9
$LTSCALE
 40
1.0
  9
$OSMODE
 70
   447
  9
$ATTMODE
 70
     1
  9
$TEXTSIZE
 40
2.5
  9
$TRACEWID
 40
0.05
  9
$TEXTSTYLE
  7
ROMANT
  9
$CLAYER
  8
0
  9
$CELTYPE
  6
BYLAYER
  9
$CECOLOR
 62
   256
  9
$CELTSCALE
 40
1.0
  9
$DELOBJ
 70
     1
  9
$DISPSILH
 70
     0
  9
$DIMSCALE
 40
1.0
  9
$DIMASZ
 40
1.5
  9
$DIMEXO
 40
0.2
  9
$DIMDLI
 40
0.38
  9
$DIMRND
 40
0.0
  9
$DIMDLE
 40
0.0
  9
$DIMEXE
 40
1.5
  9
$DIMTP
 40
0.0
  9
$DIMTM
 40
0.0
  9
$DIMTXT
 40
2.5
  9
$DIMCEN
 40
1.0
  9
$DIMTSZ
 40
0.0
  9
$DIMTOL
 70
     0
  9
$DIMLIM
 70
     0
  9
$DIMTIH
 70
     0
  9
$DIMTOH
 70
     0
  9
$DIMSE1
 70
     0
  9
$DIMSE2
 70
     0
  9
$DIMTAD
 70
     1
  9
$DIMZIN
 70
     0
  9
$DIMBLK
  1

  9
$DIMASO
 70
     1
  9
$DIMSHO
 70
     1
  9
$DIMPOST
  1

  9
$DIMAPOST
  1

  9
$DIMALT
 70
     0
  9
$DIMALTD
 70
     2
  9
$DIMALTF
 40
25.4
  9
$DIMLFAC
 40
0.5
  9
$DIMTOFL
 70
     0
  9
$DIMTVP
 40
0.0
  9
$DIMTIX
 70
     0
  9
$DIMSOXD
 70
     0
  9
$DIMSAH
 70
     0
  9
$DIMBLK1
  1

  9
$DIMBLK2
  1

  9
$DIMSTYLE
  2
STANDARD
  9
$DIMCLRD
 70
     0
  9
$DIMCLRE
 70
     0
  9
$DIMCLRT
 70
   256
  9
$DIMTFAC
 40
0.5333333333333333
  9
$DIMGAP
 40
0.09
  9
$DIMJUST
 70
     0
  9
$DIMSD1
 70
     0
  9
$DIMSD2
 70
     0
  9
$DIMTOLJ
 70
     1
  9
$DIMTZIN
 70
     0
  9
$DIMALTZ
 70
     0
  9
$DIMALTTZ
 70
     0
  9
$DIMFIT
 70
     3
  9
$DIMUPT
 70
     0
  9
$DIMUNIT
 70
     2
  9
$DIMDEC
 70
     1
  9
$DIMTDEC
 70
     1
  9
$DIMALTU
 70
     2
  9
$DIMALTTD
 70
     2
  9
$DIMTXSTY
  7
ROMANT
  9
$DIMAUNIT
 70
     0
  9
$LUNITS
 70
     2
  9
$LUPREC
 70
     2
  9
$SKETCHINC
 40
0.1
  9
$FILLETRAD
 40
2.0
  9
$AUNITS
 70
     0
  9
$AUPREC
 70
     1
  9
$MENU
  1
acad
  9
$ELEVATION
 40
0.0
  9
$PELEVATION
 40
0.0
  9
$THICKNESS
 40
0.0
  9
$LIMCHECK
 70
     0
  9
$BLIPMODE
 70
     0
  9
$CHAMFERA
 40
0.0
  9
$CHAMFERB
 40
0.0
  9
$CHAMFERC
 40
0.0
  9
$CHAMFERD
 40
0.0
  9
$SKPOLY
 70
     0
  9
$TDCREATE
 40
2451776.606358911
  9
$TDUPDATE
 40
2453547.910496654
  9
$TDINDWG
 40
0.4729749537
  9
$TDUSRTIMER
 40
0.4729749537
  9
$USRTIMER
 70
     1
  9
$ANGBASE
 50
0.0
  9
$ANGDIR
 70
     0
  9
$PDMODE
 70
     0
  9
$PDSIZE
 40
0.0
  9
$PLINEWID
 40
0.0
  9
$COORDS
 70
     2
  9
$SPLFRAME
 70
     0
  9
$SPLINETYPE
 70
     6
  9
$SPLINESEGS
 70
     8
  9
$ATTDIA
 70
     0
  9
$ATTREQ
 70
     1
  9
$HANDLING
 70
-16383
  9
$HANDSEED
  5
451B
  9
$SURFTAB1
 70
     6
  9
$SURFTAB2
 70
     6
  9
$SURFTYPE
 70
     6
  9
$SURFU
 70
     6
  9
$SURFV
 70
     6
  9
$UCSNAME
  2

  9
$UCSORG
 10
0.0
 20
0.0
 30
0.0
  9
$UCSXDIR
 10
1.0
 20
0.0
 30
0.0
  9
$UCSYDIR
 10
0.0
 20
1.0
 30
0.0
  9
$PUCSNAME
  2

  9
$PUCSORG
 10
0.0
 20
0.0
 30
0.0
  9
$PUCSXDIR
 10
1.0
 20
0.0
 30
0.0
  9
$PUCSYDIR
 10
0.0
 20
1.0
 30
0.0
  9
$USERI1
 70
     0
  9
$USERI2
 70
     0
  9
$USERI3
 70
     0
  9
$USERI4
 70
     0
  9
$USERI5
 70
     0
  9
$USERR1
 40
0.0
  9
$USERR2
 40
0.0
  9
$USERR3
 40
0.0
  9
$USERR4
 40
0.0
  9
$USERR5
 40
0.0
  9
$WORLDVIEW
 70
     1
  9
$SHADEDGE
 70
     1
  9
$SHADEDIF
 70
    70
  9
$TILEMODE
 70
     1
  9
$MAXACTVP
 70
    16
  9
$PINSBASE
 10
0.0
 20
0.0
 30
0.0
  9
$PLIMCHECK
 70
     0
  9
$PEXTMIN
 10
1.000000000000000E+20
 20
1.000000000000000E+20
 30
1.000000000000000E+20
  9
$PEXTMAX
 10
-1.000000000000000E+20
 20
-1.000000000000000E+20
 30
-1.000000000000000E+20
  9
$PLIMMIN
 10
0.0
 20
0.0
  9
$PLIMMAX
 10
12.0
 20
9.0
  9
$UNITMODE
 70
     0
  9
$VISRETAIN
 70
     0
  9
$PLINEGEN
 70
     0
  9
$PSLTSCALE
 70
     1
  9
$TREEDEPTH
 70
  3020
  9
$PICKSTYLE
 70
     1
  9
$CMLSTYLE
  2
STANDARD
  9
$CMLJUST
 70
     0
  9
$CMLSCALE
 40
1.0
  9
$SAVEIMAGES
 70
     1
  0
ENDSEC
  0
SECTION
  2
CLASSES
  0
CLASS
  1
LWPOLYLINE
  2
AcDbPolyline
  3
AutoCAD 2000
 90
    32768
280
     0
281
     1
  0
CLASS
  1
DICTIONARYVAR
  2
AcDbDictionaryVar
  3
AutoCAD 2000
 90
    32768
280
     0
281
     0
  0
CLASS
  1
HATCH
  2
AcDbHatch
  3
AutoCAD 2000
 90
    32768
280
     0
281
     1
  0
CLASS
  1
ACDBDICTIONARYWDFLT
  2
AcDbDictionaryWithDefault
  3
AutoCAD 2000
 90
    32768
280
     0
281
     0
  0
CLASS
  1
ACDBPLACEHOLDER
  2
AcDbPlaceHolder
  3
AutoCAD 2000
 90
    32768
280
     0
281
     0
  0
CLASS
  1
LAYOUT
  2
AcDbLayout
  3
AutoCAD 2000
 90
    32768
280
     0
281
     0
  0
CLASS
  1
LONG_TRANSACTION
  2
AcDbLongTransaction
  3
AutoCAD 2000
 90
    32768
280
     0
281
     0
  0
CLASS
  1
LWPOLYLINE
  2
AcDbPolyline
  3
AutoCAD 2000
 90
    32768
280
     0
281
     1
  0
CLASS
  1
HATCH
  2
AcDbHatch
  3
AutoCAD 2000
 90
    32768
280
     0
281
     1
  0
CLASS
  1
XRECORD
  2
AcDbXrecord
  3
AutoCAD 2000
 90
    32768
280
     0
281
     0
  0
ENDSEC
  0
SECTION
  2
TABLES
  0
TABLE
  2
VPORT
  5
446
330
0
100
AcDbSymbolTable
 70
     2
  0
VPORT
  5
44DF
330
446
100
AcDbSymbolTableRecord
100
AcDbViewportTableRecord
  2
*ACTIVE
 70
     0
 10
0.0
 20
0.0
 11
1.0
 21
1.0
 12
350.2390138362473
 22
212.3227372889949
 13
0.0
 23
0.0
 14
1.0
 24
1.0
 15
0.0
 25
0.0
 16
0.0
 26
0.0
 36
1.0
 17
0.0
 27
0.0
 37
0.0
 40
263.0253385439225
 41
1.539641943734015
 42
50.0
 43
0.0
 44
0.0
 50
0.0
 51
0.0
 71
     0
 72
   100
 73
     1
 74
     1
 75
     0
 76
     0
 77
     0
 78
     0
  0
ENDTAB
  0
TABLE
  2
LTYPE
  5
443
330
0
100
AcDbSymbolTable
 70
     1
  0
LTYPE
  5
41D
330
443
100
AcDbSymbolTableRecord
100
AcDbLinetypeTableRecord
  2
BYBLOCK
 70
     0
  3

 72
    65
 73
     0
 40
0.0
  0
LTYPE
  5
E7
330
443
100
AcDbSymbolTableRecord
100
AcDbLinetypeTableRecord
  2
BYLAYER
 70
     0
  3

 72
    65
 73
     0
 40
0.0
  0
LTYPE
  5
416
330
443
100
AcDbSymbolTableRecord
100
AcDbLinetypeTableRecord
  2
CONTINUOUS
 70
     0
  3
Solid line
 72
    65
 73
     0
 40
0.0
  0
ENDTAB
  0
TABLE
  2
LAYER
  5
441
102
{ACAD_XDICTIONARY
360
409B
102
}
330
0
100
AcDbSymbolTable
 70
     4
  0
LAYER
  5
419
330
441
100
AcDbSymbolTableRecord
100
AcDbLayerTableRecord
  2
0
 70
     0
 62
     7
  6
CONTINUOUS
  0
LAYER
  5
E6
330
441
100
AcDbSymbolTableRecord
100
AcDbLayerTableRecord
  2
ANA
 70
     0
 62
   220
  6
CONTINUOUS
  0
LAYER
  5
41E
330
441
100
AcDbSymbolTableRecord
100
AcDbLayerTableRecord
  2
DEFPOINTS
 70
     0
 62
     7
  6
CONTINUOUS
  0
LAYER
  5
510
330
441
100
AcDbSymbolTableRecord
100
AcDbLayerTableRecord
  2
ANTET
 70
     0
 62
   220
  6
CONTINUOUS
  0
ENDTAB
  0
TABLE
  2
STYLE
  5
442
330
0
100
AcDbSymbolTable
 70
     2
  0
STYLE
  5
41A
330
442
100
AcDbSymbolTableRecord
100
AcDbTextStyleTableRecord
  2
STANDARD
 70
     0
 40
0.0
 41
1.0
 50
0.0
 71
     0
 42
0.2
  3
txt
  4

  0
STYLE
  5
E8
330
442
100
AcDbSymbolTableRecord
100
AcDbTextStyleTableRecord
  2
ROMANT
 70
     0
 40
2.5
 41
1.0
 50
15.0
 71
     0
 42
2.5
  3
C:\ACADR13\COMMON\FONTS\romant.shx
  4

  0
ENDTAB
  0
TABLE
  2
VIEW
  5
444
330
0
100
AcDbSymbolTable
 70
     0
  0
ENDTAB
  0
TABLE
  2
UCS
  5
445
330
0
100
AcDbSymbolTable
 70
     0
  0
ENDTAB
  0
TABLE
  2
APPID
  5
448
330
0
100
AcDbSymbolTable
 70
     1
  0
APPID
  5
261
330
448
100
AcDbSymbolTableRecord
100
AcDbRegAppTableRecord
  2
ACAD
 70
     0
  0
ENDTAB
  0
TABLE
  2
DIMSTYLE
  5
449
330
0
100
AcDbSymbolTable
 70
     1
  0
DIMSTYLE
105
264
330
449
100
AcDbSymbolTableRecord
100
AcDbDimStyleTableRecord
  2
STANDARD
 70
     0
  3

  4

  5

  6

  7

 40
1.0
 41
0.18
 42
0.0625
 43
0.38
 44
0.18
 45
0.0
 46
0.0
 47
0.0
 48
0.0
140
0.18
141
0.09
142
0.0
143
25.4
144
1.0
145
0.0
146
1.0
147
0.09
 71
     0
 72
     0
 73
     1
 74
     1
 75
     0
 76
     0
 77
     0
 78
     0
170
     0
171
     2
172
     0
173
     0
174
     0
175
     0
176
     0
177
     0
178
     0
270
     2
271
     4
272
     4
273
     2
274
     2
340
41A
275
     0
280
     0
281
     0
282
     0
283
     1
284
     0
285
     0
286
     0
287
     3
288
     0
  0
ENDTAB
  0
TABLE
  2
BLOCK_RECORD
  5
1
330
0
100
AcDbSymbolTable
 70
    15
  0
BLOCK_RECORD
  5
2
102
{ACAD_XDICTIONARY
360
44E0
102
}
330
1
100
AcDbSymbolTableRecord
100
AcDbBlockTableRecord
  2
*MODEL_SPACE
  0
BLOCK_RECORD
  5
E3
102
{ACAD_XDICTIONARY
360
44E2
102
}
330
1
100
AcDbSymbolTableRecord
100
AcDbBlockTableRecord
  2
*PAPER_SPACE
  0
BLOCK_RECORD
  5
40A2
330
1
100
AcDbSymbolTableRecord
100
AcDbBlockTableRecord
  2
*X0
  0
BLOCK_RECORD
  5
4369
330
1
100
AcDbSymbolTableRecord
100
AcDbBlockTableRecord
  2
*D1
  0
BLOCK_RECORD
  5
4380
330
1
100
AcDbSymbolTableRecord
100
AcDbBlockTableRecord
  2
*D2
  0
BLOCK_RECORD
  5
4393
330
1
100
AcDbSymbolTableRecord
100
AcDbBlockTableRecord
  2
*D3
  0
BLOCK_RECORD
  5
439E
330
1
100
AcDbSymbolTableRecord
100
AcDbBlockTableRecord
  2
*D4
  0
BLOCK_RECORD
  5
43AB
330
1
100
AcDbSymbolTableRecord
100
AcDbBlockTableRecord
  2
*D5
  0
BLOCK_RECORD
  5
43B8
330
1
100
AcDbSymbolTableRecord
100
AcDbBlockTableRecord
  2
*D6
  0
BLOCK_RECORD
  5
43C6
330
1
100
AcDbSymbolTableRecord
100
AcDbBlockTableRecord
  2
*D7
  0
BLOCK_RECORD
  5
43F0
330
1
100
AcDbSymbolTableRecord
100
AcDbBlockTableRecord
  2
*D8
  0
BLOCK_RECORD
  5
43FE
330
1
100
AcDbSymbolTableRecord
100
AcDbBlockTableRecord
  2
*D9
  0
BLOCK_RECORD
  5
4407
330
1
100
AcDbSymbolTableRecord
100
AcDbBlockTableRecord
  2
*D10
  0
BLOCK_RECORD
  5
4412
330
1
100
AcDbSymbolTableRecord
100
AcDbBlockTableRecord
  2
*D11
  0
BLOCK_RECORD
  5
445C
330
1
100
AcDbSymbolTableRecord
100
AcDbBlockTableRecord
  2
*D12
  0
BLOCK_RECORD
  5
446B
330
1
100
AcDbSymbolTableRecord
100
AcDbBlockTableRecord
  2
*D13
  0
BLOCK_RECORD
  5
4485
330
1
100
AcDbSymbolTableRecord
100
AcDbBlockTableRecord
  2
*D14
  0
ENDTAB
  0
ENDSEC
  0
SECTION
  2
BLOCKS
  0
BLOCK
  5
E4
330
2
100
AcDbEntity
  8
0
100
AcDbBlockBegin
  2
*MODEL_SPACE
 70
     0
 10
0.0
 20
0.0
 30
0.0
  3
*MODEL_SPACE
  1

  0
ENDBLK
  5
E5
330
2
100
AcDbEntity
  8
0
100
AcDbBlockEnd
  0
BLOCK
  5
414
330
E3
100
AcDbEntity
 67
     1
  8
0
100
AcDbBlockBegin
  2
*PAPER_SPACE
 70
     0
 10
0.0
 20
0.0
 30
0.0
  3
*PAPER_SPACE
  1

  0
ENDBLK
  5
415
330
E3
100
AcDbEntity
 67
     1
  8
0
100
AcDbBlockEnd
  0
BLOCK
  5
4217
330
40A2
100
AcDbEntity
  8
0
100
AcDbBlockBegin
  2
*X0
 70
     1
 10
0.0
 20
0.0
 30
0.0
  3
*X0
  1

  0
LINE
  5
40A3
330
40A2
100
AcDbEntity
  8
0
 62
     0
100
AcDbLine
 10
119.6249999999999
 20
30.73434161302726
 30
0.0
 11
119.6249999999999
 21
31.73434161302726
 31
0.0
  0
LINE
  5
40A4
330
40A2
100
AcDbEntity
  8
0
 62
     0
100
AcDbLine
 10
119.6249999999999
 20
50.73434161302725
 30
0.0
 11
119.6249999999999
 21
51.73434161302726
 31
0.0
  0
LINE
  5
40A5
330
40A2
100
AcDbEntity
  8
0
 62
     0
100
AcDbLine
 10
119.6249999999999
 20
34.23389329927631
 30
0.0
 11
119.6249999999999
 21
39.78358833883456
 31
0.0
  0
LINE
  5
40A6
330
40A2
100
AcDbEntity
  8
0
 62
     0
100
AcDbLine
 10
119.6249999999999
 20
42.36292722007112
 30
0.0
 11
119.6249999999999
 21
48.39196114086594
 31
0.0
  0
LINE
  5
40A7
330
40A2
100
AcDbEntity
  8
0
 62
     0
100
AcDbLine
 10
119.4374999999999
 20
30.73434161302726
 30
0.0
 11
119.4374999999999
 21
31.73434161302726
 31
0.0
  0
LINE
  5
40A8
330
40A2
100
AcDbEntity
  8
0
 62
     0
100
AcDbLine
 10
119.4374999999999
 20
50.73434161302725
 30
0.0
 11
119.4374999999999
 21
51.73434161302726
 31
0.0
  0
LINE
  5
40A9
330
40A2
100
AcDbEntity
  8
0
 62
     0
100
AcDbLine
 10
119.4374999999999
 20
34.23389329927631
 30
0.0
 11
119.4374999999999
 21
39.4588288124154
 31
0.0
  0
LINE
  5
40AA
330
40A2
100
AcDbEntity
  8
0
 62
     0
100
AcDbLine
 10
119.4374999999999
 20
42.36292722007112
 30
0.0
 11
119.4374999999999
 21
48.39196114086594
 31
0.0
  0
LINE
  5
40AB
330
40A2
100
AcDbEntity
  8
0
 62
     0
100
AcDbLine
 10
119.2499999999999
 20
30.73434161302726
 30
0.0
 11
119.2499999999999
 21
31.73434161302726
 31
0.0
  0
LINE
  5
40AC
330
40A2
100
AcDbEntity
  8
0
 62
     0
100
AcDbLine
 10
119.2499999999999
 20
50.73434161302725
 30
0.0
 11
119.2499999999999
 21
51.73434161302726
 31
0.0
  0
LINE
  5
40AD
330
40A2
100
AcDbEntity
  8
0
 62
     0
100
AcDbLine
 10
119.2499999999999
 20
34.23389329927631
 30
0.0
 11
119.2499999999999
 21
39.13406928599623
 31
0.0
  0
LINE
  5
40AE
330
40A2
100
AcDbEntity
  8
0
 62
     0
100
AcDbLine
 10
119.2499999999999
 20
42.36292722007112
 30
0.0
 11
119.2499999999999
 21
48.39196114086594
 31
0.0
  0
LINE
  5
40AF
330
40A2
100
AcDbEntity
  8
0
 62
     0
100
AcDbLine
 10
119.0624999999999
 20
30.73434161302726
 30
0.0
 11
119.0624999999999
 21
31.73434161302726
 31
0.0
  0
LINE
  5
40B0
330
40A2
100
AcDbEntity
  8
0
 62
     0
100
AcDbLine
 10
119.0624999999999
 20
50.73434161302725
 30
0.0
 11
119.0624999999999
 21
51.73434161302726
 31
0.0
  0
LINE
  5
40B1
330
40A2
100
AcDbEntity
  8
0
 62
     0
100
AcDbLine
 10
119.0624999999999
 20
34.23389329927631
 30
0.0
 11
119.0624999999999
 21
38.80930975957706
 31
0.0
  0
LINE
  5
40B2
330
40A2
100
AcDbEntity
  8
0
 62
     0
100
AcDbLine
 10
119.0624999999999
 20
42.36292722007112
 30
0.0
 11
119.0624999999999
 21
48.39196114086594
 31
0.0
  0
LINE
  5
40B3
330
40A2
100
AcDbEntity
  8
0
 62
     0
100
AcDbLine
 10
118.8749999999999
 20
30.73434161302726
 30
0.0
 11
118.8749999999999
 21
31.73434161302726
 31
0.0
  0
LINE
  5
40B4
330
40A2
100
AcDbEntity
  8
0
 62
     0
100
AcDbLine
 10
118.8749999999999
 20
50.73434161302725
 30
0.0
 11
118.8749999999999
 21
51.73434161302726
 31
0.0
  0
LINE
  5
40B5
330
40A2
100
AcDbEntity
  8
0
 62
     0
100
AcDbLine
 10
118.8749999999999
 20
34.23389329927631
 30
0.0
 11
118.8749999999999
 21
38.48455023315789
 31
0.0
  0
LINE
  5
40B6
330
40A2
100
AcDbEntity
  8
0
 62
     0
100
AcDbLine
 10
118.8749999999999
 20
42.36292722007112
 30
0.0
 11
118.8749999999999
 21
48.39196114086594
 31
0.0
  0
LINE
  5
40B7
330
40A2
100
AcDbEntity
  8
0
 62
     0
100
AcDbLine
 10
118.8749999999999
 20
40.08455023785443
 30
0.0
 11
118.8749999999999
 21
40.44130420998858
 31
0.0
  0
LINE
  5
40B8
330
40A2
100
AcDbEntity
  8
0
 62
     0
100
AcDbLine
 10
118.6874999999999
 20
30.73434161302726
 30
0.0
 11
118.6874999999999
 21
31.73434161302726
 31
0.0
  0
LINE
  5
40B9
330
40A2
100
AcDbEntity
  8
0
 62
     0
100
AcDbLine
 10
118.6874999999999
 20
50.73434161302725
 30
0.0
 11
118.6874999999999
 21
51.73434161302726
 31
0.0
  0
LINE
  5
40BA
330
40A2
100
AcDbEntity
  8
0
 62
     0
100
AcDbLine
 10
118.6874999999999
 20
34.23389329927631
 30
0.0
 11
118.6874999999999
 21
38.15979070673873
 31
0.0
  0
LINE
  5
40BB
330
40A2
100
AcDbEntity
  8
0
 62
     0
100
AcDbLine
 10
118.6874999999999
 20
42.41926881554642
 30
0.0
 11
118.6874999999999
 21
48.39196114086594
 31
0.0
  0
LINE
  5
40BC
330
40A2
100
AcDbEntity
  8
0
 62
     0
100
AcDbLine
 10
118.6874999999999
 20
39.75979071181569
 30
0.0
 11
118.6874999999999
 21
40.76606373625941
 31
0.0
  0
LINE
  5
40BD
330
40A2
100
AcDbEntity
  8
0
 62
     0
100
AcDbLine
 10
118.4999999999999
 20
30.73434161302726
 30
0.0
 11
118.4999999999999
 21
31.73434161302726
 31
0.0
  0
LINE
  5
40BE
330
40A2
100
AcDbEntity
  8
0
 62
     0
100
AcDbLine
 10
118.4999999999999
 20
50.73434161302725
 30
0.0
 11
118.4999999999999
 21
51.73434161302726
 31
0.0
  0
LINE
  5
40BF
330
40A2
100
AcDbEntity
  8
0
 62
     0
100
AcDbLine
 10
118.4999999999999
 20
34.23389329927631
 30
0.0
 11
118.4999999999999
 21
37.83503118031956
 31
0.0
  0
LINE
  5
40C0
330
40A2
100
AcDbEntity
  8
0
 62
     0
100
AcDbLine
 10
118.4999999999999
 20
42.69082325982261
 30
0.0
 11
118.4999999999999
 21
48.39196114086594
 31
0.0
  0
LINE
  5
40C1
330
40A2
100
AcDbEntity
  8
0
 62
     0
100
AcDbLine
 10
118.4999999999999
 20
39.43503118577694
 30
0.0
 11
118.4999999999999
 21
41.09082326253024
 31
0.0
  0
LINE
  5
40C2
330
40A2
100
AcDbEntity
  8
0
 62
     0
100
AcDbLine
 10
118.3124999999999
 20
30.73434161302726
 30
0.0
 11
118.3124999999999
 21
31.73434161302726
 31
0.0
  0
LINE
  5
40C3
330
40A2
100
AcDbEntity
  8
0
 62
     0
100
AcDbLine
 10
118.3124999999999
 20
50.73434161302725
 30
0.0
 11
118.3124999999999
 21
51.73434161302726
 31
0.0
  0
LINE
  5
40C4
330
40A2
100
AcDbEntity
  8
0
 62
     0
100
AcDbLine
 10
118.3124999999999
 20
34.23389329927631
 30
0.0
 11
118.3124999999999
 21
37.51027165390039
 31
0.0
  0
LINE
  5
40C5
330
40A2
100
AcDbEntity
  8
0
 62
     0
100
AcDbLine
 10
118.3124999999999
 20
43.01558278624178
 30
0.0
 11
118.3124999999999
 21
48.39196114086594
 31
0.0
  0
LINE
  5
40C6
330
40A2
100
AcDbEntity
  8
0
 62
     0
100
AcDbLine
 10
118.3124999999999
 20
39.1102716597382
 30
0.0
 11
118.3124999999999
 21
41.41558278880107
 31
0.0
  0
LINE
  5
40C7
330
40A2
100
AcDbEntity
  8
0
 62
     0
100
AcDbLine
 10
118.1249999999999
 20
30.73434161302726
 30
0.0
 11
118.1249999999999
 21
31.73434161302726
 31
0.0
  0
LINE
  5
40C8
330
40A2
100
AcDbEntity
  8
0
 62
     0
100
AcDbLine
 10
118.1249999999999
 20
50.73434161302725
 30
0.0
 11
118.1249999999999
 21
51.73434161302726
 31
0.0
  0
LINE
  5
40C9
330
40A2
100
AcDbEntity
  8
0
 62
     0
100
AcDbLine
 10
118.1249999999999
 20
34.23389329927631
 30
0.0
 11
118.1249999999999
 21
37.18551212748122
 31
0.0
  0
LINE
  5
40CA
330
40A2
100
AcDbEntity
  8
0
 62
     0
100
AcDbLine
 10
118.1249999999999
 20
43.34034231266095
 30
0.0
 11
118.1249999999999
 21
48.39196114086594
 31
0.0
  0
LINE
  5
40CB
330
40A2
100
AcDbEntity
  8
0
 62
     0
100
AcDbLine
 10
118.1249999999999
 20
38.78551213369945
 30
0.0
 11
118.1249999999999
 21
41.7403423150719
 31
0.0
  0
LINE
  5
40CC
330
40A2
100
AcDbEntity
  8
0
 62
     0
100
AcDbLine
 10
117.9374999999999
 20
30.73434161302726
 30
0.0
 11
117.9374999999999
 21
31.73434161302726
 31
0.0
  0
LINE
  5
40CD
330
40A2
100
AcDbEntity
  8
0
 62
     0
100
AcDbLine
 10
117.9374999999999
 20
50.73434161302725
 30
0.0
 11
117.9374999999999
 21
51.73434161302726
 31
0.0
  0
LINE
  5
40CE
330
40A2
100
AcDbEntity
  8
0
 62
     0
100
AcDbLine
 10
117.9374999999999
 20
34.23389329927631
 30
0.0
 11
117.9374999999999
 21
36.86075260106206
 31
0.0
  0
LINE
  5
40CF
330
40A2
100
AcDbEntity
  8
0
 62
     0
100
AcDbLine
 10
117.9374999999999
 20
43.66510183908012
 30
0.0
 11
117.9374999999999
 21
48.39196114086594
 31
0.0
  0
LINE
  5
40D0
330
40A2
100
AcDbEntity
  8
0
 62
     0
100
AcDbLine
 10
117.9374999999999
 20
38.46075260766071
 30
0.0
 11
117.9374999999999
 21
42.06510184134273
 31
0.0
  0
LINE
  5
40D1
330
40A2
100
AcDbEntity
  8
0
 62
     0
100
AcDbLine
 10
117.7499999999999
 20
30.73434161302726
 30
0.0
 11
117.7499999999999
 21
31.73434161302726
 31
0.0
  0
LINE
  5
40D2
330
40A2
100
AcDbEntity
  8
0
 62
     0
100
AcDbLine
 10
117.7499999999999
 20
50.73434161302725
 30
0.0
 11
117.7499999999999
 21
51.73434161302726
 31
0.0
  0
LINE
  5
40D3
330
40A2
100
AcDbEntity
  8
0
 62
     0
100
AcDbLine
 10
117.7499999999999
 20
34.23389329927631
 30
0.0
 11
117.7499999999999
 21
36.53599307464288
 31
0.0
  0
LINE
  5
40D4
330
40A2
100
AcDbEntity
  8
0
 62
     0
100
AcDbLine
 10
117.7499999999999
 20
43.98986136549929
 30
0.0
 11
117.7499999999999
 21
48.39196114086594
 31
0.0
  0
LINE
  5
40D5
330
40A2
100
AcDbEntity
  8
0
 62
     0
100
AcDbLine
 10
117.7499999999999
 20
38.13599308162197
 30
0.0
 11
117.7499999999999
 21
42.38986136761356
 31
0.0
  0
LINE
  5
40D6
330
40A2
100
AcDbEntity
  8
0
 62
     0
100
AcDbLine
 10
117.5624999999999
 20
30.73434161302726
 30
0.0
 11
117.5624999999999
 21
31.73434161302726
 31
0.0
  0
LINE
  5
40D7
330
40A2
100
AcDbEntity
  8
0
 62
     0
100
AcDbLine
 10
117.5624999999999
 20
50.73434161302725
 30
0.0
 11
117.5624999999999
 21
51.73434161302726
 31
0.0
  0
LINE
  5
40D8
330
40A2
100
AcDbEntity
  8
0
 62
     0
100
AcDbLine
 10
117.5624999999999
 20
34.23389329927631
 30
0.0
 11
117.5624999999999
 21
36.21123354822372
 31
0.0
  0
LINE
  5
40D9
330
40A2
100
AcDbEntity
  8
0
 62
     0
100
AcDbLine
 10
117.5624999999999
 20
44.31462089191845
 30
0.0
 11
117.5624999999999
 21
48.39196114086594
 31
0.0
  0
LINE
  5
40DA
330
40A2
100
AcDbEntity
  8
0
 62
     0
100
AcDbLine
 10
117.5624999999999
 20
37.81123355558323
 30
0.0
 11
117.5624999999999
 21
42.71462089388439
 31
0.0
  0
LINE
  5
40DB
330
40A2
100
AcDbEntity
  8
0
 62
     0
100
AcDbLine
 10
117.3749999999999
 20
30.73434161302726
 30
0.0
 11
117.3749999999999
 21
31.73434161302726
 31
0.0
  0
LINE
  5
40DC
330
40A2
100
AcDbEntity
  8
0
 62
     0
100
AcDbLine
 10
117.3749999999999
 20
50.73434161302725
 30
0.0
 11
117.3749999999999
 21
51.73434161302726
 31
0.0
  0
LINE
  5
40DD
330
40A2
100
AcDbEntity
  8
0
 62
     0
100
AcDbLine
 10
117.3749999999999
 20
34.23389329927631
 30
0.0
 11
117.3749999999999
 21
35.88647402180455
 31
0.0
  0
LINE
  5
40DE
330
40A2
100
AcDbEntity
  8
0
 62
     0
100
AcDbLine
 10
117.3749999999999
 20
44.63938041833762
 30
0.0
 11
117.3749999999999
 21
48.39196114086594
 31
0.0
  0
LINE
  5
40DF
330
40A2
100
AcDbEntity
  8
0
 62
     0
100
AcDbLine
 10
117.3749999999999
 20
37.48647402954448
 30
0.0
 11
117.3749999999999
 21
43.03938042015523
 31
0.0
  0
LINE
  5
40E0
330
40A2
100
AcDbEntity
  8
0
 62
     0
100
AcDbLine
 10
117.1874999999999
 20
30.73434161302726
 30
0.0
 11
117.1874999999999
 21
31.73434161302726
 31
0.0
  0
LINE
  5
40E1
330
40A2
100
AcDbEntity
  8
0
 62
     0
100
AcDbLine
 10
117.1874999999999
 20
50.73434161302725
 30
0.0
 11
117.1874999999999
 21
51.73434161302726
 31
0.0
  0
LINE
  5
40E2
330
40A2
100
AcDbEntity
  8
0
 62
     0
100
AcDbLine
 10
117.1874999999999
 20
34.23389329927631
 30
0.0
 11
117.1874999999999
 21
35.56171449538538
 31
0.0
  0
LINE
  5
40E3
330
40A2
100
AcDbEntity
  8
0
 62
     0
100
AcDbLine
 10
117.1874999999999
 20
44.9641399447568
 30
0.0
 11
117.1874999999999
 21
48.39196114086594
 31
0.0
  0
LINE
  5
40E4
330
40A2
100
AcDbEntity
  8
0
 62
     0
100
AcDbLine
 10
117.1874999999999
 20
37.16171450350574
 30
0.0
 11
117.1874999999999
 21
43.36413994642605
 31
0.0
  0
LINE
  5
40E5
330
40A2
100
AcDbEntity
  8
0
 62
     0
100
AcDbLine
 10
116.9999999999999
 20
30.73434161302726
 30
0.0
 11
116.9999999999999
 21
31.73434161302726
 31
0.0
  0
LINE
  5
40E6
330
40A2
100
AcDbEntity
  8
0
 62
     0
100
AcDbLine
 10
116.9999999999999
 20
50.73434161302725
 30
0.0
 11
116.9999999999999
 21
51.73434161302726
 31
0.0
  0
LINE
  5
40E7
330
40A2
100
AcDbEntity
  8
0
 62
     0
100
AcDbLine
 10
116.9999999999999
 20
34.23389329927631
 30
0.0
 11
116.9999999999999
 21
35.23695496896622
 31
0.0
  0
LINE
  5
40E8
330
40A2
100
AcDbEntity
  8
0
 62
     0
100
AcDbLine
 10
116.9999999999999
 20
45.28889947117597
 30
0.0
 11
116.9999999999999
 21
48.39196114086594
 31
0.0
  0
LINE
  5
40E9
330
40A2
100
AcDbEntity
  8
0
 62
     0
100
AcDbLine
 10
116.9999999999999
 20
36.83695497746699
 30
0.0
 11
116.9999999999999
 21
43.68889947269688
 31
0.0
  0
LINE
  5
40EA
330
40A2
100
AcDbEntity
  8
0
 62
     0
100
AcDbLine
 10
116.8124999999999
 20
30.73434161302726
 30
0.0
 11
116.8124999999999
 21
31.73434161302726
 31
0.0
  0
LINE
  5
40EB
330
40A2
100
AcDbEntity
  8
0
 62
     0
100
AcDbLine
 10
116.8124999999999
 20
50.73434161302725
 30
0.0
 11
116.8124999999999
 21
51.73434161302726
 31
0.0
  0
LINE
  5
40EC
330
40A2
100
AcDbEntity
  8
0
 62
     0
100
AcDbLine
 10
116.8124999999999
 20
34.23389329927631
 30
0.0
 11
116.8124999999999
 21
34.91219544254705
 31
0.0
  0
LINE
  5
40ED
330
40A2
100
AcDbEntity
  8
0
 62
     0
100
AcDbLine
 10
116.8124999999999
 20
45.61365899759514
 30
0.0
 11
116.8124999999999
 21
48.38373565494333
 31
0.0
  0
LINE
  5
40EE
330
40A2
100
AcDbEntity
  8
0
 62
     0
100
AcDbLine
 10
116.8124999999999
 20
36.51219545142825
 30
0.0
 11
116.8124999999999
 21
44.01365899896771
 31
0.0
  0
LINE
  5
40EF
330
40A2
100
AcDbEntity
  8
0
 62
     0
100
AcDbLine
 10
116.6249999999999
 20
30.73434161302726
 30
0.0
 11
116.6249999999999
 21
31.73434161302726
 31
0.0
  0
LINE
  5
40F0
330
40A2
100
AcDbEntity
  8
0
 62
     0
100
AcDbLine
 10
116.6249999999999
 20
50.73434161302725
 30
0.0
 11
116.6249999999999
 21
51.73434161302726
 31
0.0
  0
LINE
  5
40F1
330
40A2
100
AcDbEntity
  8
0
 62
     0
100
AcDbLine
 10
116.6249999999999
 20
34.23389329927631
 30
0.0
 11
116.6249999999999
 21
34.59269753062041
 31
0.0
  0
LINE
  5
40F2
330
40A2
100
AcDbEntity
  8
0
 62
     0
100
AcDbLine
 10
116.6249999999999
 20
45.9384185240143
 30
0.0
 11
116.6249999999999
 21
48.34088760946108
 31
0.0
  0
LINE
  5
40F3
330
40A2
100
AcDbEntity
  8
0
 62
     0
100
AcDbLine
 10
116.6249999999999
 20
36.18743592538951
 30
0.0
 11
116.6249999999999
 21
44.33841852523854
 31
0.0
  0
LINE
  5
40F4
330
40A2
100
AcDbEntity
  8
0
 62
     0
100
AcDbLine
 10
116.4374999999999
 20
30.73434161302726
 30
0.0
 11
116.4374999999999
 21
31.73434161302726
 31
0.0
  0
LINE
  5
40F5
330
40A2
100
AcDbEntity
  8
0
 62
     0
100
AcDbLine
 10
116.4374999999999
 20
50.73434161302725
 30
0.0
 11
116.4374999999999
 21
51.73434161302726
 31
0.0
  0
LINE
  5
40F6
330
40A2
100
AcDbEntity
  8
0
 62
     0
100
AcDbLine
 10
116.4374999999999
 20
34.23389329927631
 30
0.0
 11
116.4374999999999
 21
34.44874299145622
 31
0.0
  0
LINE
  5
40F7
330
40A2
100
AcDbEntity
  8
0
 62
     0
100
AcDbLine
 10
116.4374999999999
 20
46.26317805043347
 30
0.0
 11
116.4374999999999
 21
48.25624911302998
 31
0.0
  0
LINE
  5
40F8
330
40A2
100
AcDbEntity
  8
0
 62
     0
100
AcDbLine
 10
116.4374999999999
 20
35.86267639935076
 30
0.0
 11
116.4374999999999
 21
44.66317805150937
 31
0.0
  0
LINE
  5
40F9
330
40A2
100
AcDbEntity
  8
0
 62
     0
100
AcDbLine
 10
116.2499999999999
 20
30.73434161302726
 30
0.0
 11
116.2499999999999
 21
31.73434161302726
 31
0.0
  0
LINE
  5
40FA
330
40A2
100
AcDbEntity
  8
0
 62
     0
100
AcDbLine
 10
116.2499999999999
 20
50.73434161302725
 30
0.0
 11
116.2499999999999
 21
51.73434161302726
 31
0.0
  0
LINE
  5
40FB
330
40A2
100
AcDbEntity
  8
0
 62
     0
100
AcDbLine
 10
116.2499999999999
 20
34.23389329927631
 30
0.0
 11
116.2499999999999
 21
34.33758771320932
 31
0.0
  0
LINE
  5
40FC
330
40A2
100
AcDbEntity
  8
0
 62
     0
100
AcDbLine
 10
116.2499999999999
 20
46.58793757685264
 30
0.0
 11
116.2499999999999
 21
48.11529609429651
 31
0.0
  0
LINE
  5
40FD
330
40A2
100
AcDbEntity
  8
0
 62
     0
100
AcDbLine
 10
116.2499999999999
 20
35.53791687331202
 30
0.0
 11
116.2499999999999
 21
44.98793757778019
 31
0.0
  0
LINE
  5
40FE
330
40A2
100
AcDbEntity
  8
0
 62
     0
100
AcDbLine
 10
116.0624999999999
 20
30.73434161302726
 30
0.0
 11
116.0624999999999
 21
31.73434161302726
 31
0.0
  0
LINE
  5
40FF
330
40A2
100
AcDbEntity
  8
0
 62
     0
100
AcDbLine
 10
116.0624999999999
 20
50.73434161302725
 30
0.0
 11
116.0624999999999
 21
51.73434161302726
 31
0.0
  0
LINE
  5
4100
330
40A2
100
AcDbEntity
  8
0
 62
     0
100
AcDbLine
 10
116.0624999999999
 20
34.23389329927631
 30
0.0
 11
116.0624999999999
 21
34.25304788190206
 31
0.0
  0
LINE
  5
4101
330
40A2
100
AcDbEntity
  8
0
 62
     0
100
AcDbLine
 10
116.0624999999999
 20
46.91329558864667
 30
0.0
 11
116.0624999999999
 21
47.87062669308522
 31
0.0
  0
LINE
  5
4102
330
40A2
100
AcDbEntity
  8
0
 62
     0
100
AcDbLine
 10
116.0624999999999
 20
35.29731832849843
 30
0.0
 11
116.0624999999999
 21
45.31269710405103
 31
0.0
  0
LINE
  5
4103
330
40A2
100
AcDbEntity
  8
0
 62
     0
100
AcDbLine
 10
115.8749999999999
 20
30.73434161302726
 30
0.0
 11
115.8749999999999
 21
31.73434161302726
 31
0.0
  0
LINE
  5
4104
330
40A2
100
AcDbEntity
  8
0
 62
     0
100
AcDbLine
 10
115.8749999999999
 20
50.73434161302725
 30
0.0
 11
115.8749999999999
 21
51.73434161302726
 31
0.0
  0
LINE
  5
4105
330
40A2
100
AcDbEntity
  8
0
 62
     0
100
AcDbLine
 10
115.8749999999999
 20
35.15800657298843
 30
0.0
 11
115.8749999999999
 21
45.63745663032186
 31
0.0
  0
LINE
  5
4106
330
40A2
100
AcDbEntity
  8
0
 62
     0
100
AcDbLine
 10
115.6874999999999
 20
30.73434161302726
 30
0.0
 11
115.6874999999999
 21
31.73434161302726
 31
0.0
  0
LINE
  5
4107
330
40A2
100
AcDbEntity
  8
0
 62
     0
100
AcDbLine
 10
115.6874999999999
 20
50.73434161302725
 30
0.0
 11
115.6874999999999
 21
51.73434161302726
 31
0.0
  0
LINE
  5
4108
330
40A2
100
AcDbEntity
  8
0
 62
     0
100
AcDbLine
 10
115.6874999999999
 20
35.07447046157856
 30
0.0
 11
115.6874999999999
 21
45.96221615659269
 31
0.0
  0
LINE
  5
4109
330
40A2
100
AcDbEntity
  8
0
 62
     0
100
AcDbLine
 10
115.4999999999999
 20
30.73434161302726
 30
0.0
 11
115.4999999999999
 21
31.73434161302726
 31
0.0
  0
LINE
  5
410A
330
40A2
100
AcDbEntity
  8
0
 62
     0
100
AcDbLine
 10
115.4999999999999
 20
50.73434161302725
 30
0.0
 11
115.4999999999999
 21
51.73434161302726
 31
0.0
  0
LINE
  5
410B
330
40A2
100
AcDbEntity
  8
0
 62
     0
100
AcDbLine
 10
115.4999999999999
 20
35.03252279226054
 30
0.0
 11
115.4999999999999
 21
46.28697568286352
 31
0.0
  0
LINE
  5
410C
330
40A2
100
AcDbEntity
  8
0
 62
     0
100
AcDbLine
 10
115.3124999999999
 20
30.73434161302726
 30
0.0
 11
115.3124999999999
 21
31.73434161302726
 31
0.0
  0
LINE
  5
410D
330
40A2
100
AcDbEntity
  8
0
 62
     0
100
AcDbLine
 10
115.3124999999999
 20
50.73434161302725
 30
0.0
 11
115.3124999999999
 21
51.73434161302726
 31
0.0
  0
LINE
  5
410E
330
40A2
100
AcDbEntity
  8
0
 62
     0
100
AcDbLine
 10
115.3124999999999
 20
35.02690536785105
 30
0.0
 11
115.3124999999999
 21
46.61173520913435
 31
0.0
  0
LINE
  5
410F
330
40A2
100
AcDbEntity
  8
0
 62
     0
100
AcDbLine
 10
115.1249999999999
 20
30.73434161302726
 30
0.0
 11
115.1249999999999
 21
31.73434161302726
 31
0.0
  0
LINE
  5
4110
330
40A2
100
AcDbEntity
  8
0
 62
     0
100
AcDbLine
 10
115.1249999999999
 20
50.73434161302725
 30
0.0
 11
115.1249999999999
 21
51.73434161302726
 31
0.0
  0
LINE
  5
4111
330
40A2
100
AcDbEntity
  8
0
 62
     0
100
AcDbLine
 10
115.1249999999999
 20
35.05698541235051
 30
0.0
 11
115.1249999999999
 21
46.93649473540518
 31
0.0
  0
LINE
  5
4112
330
40A2
100
AcDbEntity
  8
0
 62
     0
100
AcDbLine
 10
114.9374999999999
 20
30.73434161302726
 30
0.0
 11
114.9374999999999
 21
31.73434161302726
 31
0.0
  0
LINE
  5
4113
330
40A2
100
AcDbEntity
  8
0
 62
     0
100
AcDbLine
 10
114.9374999999999
 20
50.73434161302725
 30
0.0
 11
114.9374999999999
 21
51.73434161302726
 31
0.0
  0
LINE
  5
4114
330
40A2
100
AcDbEntity
  8
0
 62
     0
100
AcDbLine
 10
114.9374999999999
 20
35.1263409750557
 30
0.0
 11
114.9374999999999
 21
47.54073586155272
 31
0.0
  0
LINE
  5
4115
330
40A2
100
AcDbEntity
  8
0
 62
     0
100
AcDbLine
 10
114.7499999999999
 20
30.73434161302726
 30
0.0
 11
114.7499999999999
 21
31.73434161302726
 31
0.0
  0
LINE
  5
4116
330
40A2
100
AcDbEntity
  8
0
 62
     0
100
AcDbLine
 10
114.7499999999999
 20
50.73434161302725
 30
0.0
 11
114.7499999999999
 21
51.73434161302726
 31
0.0
  0
LINE
  5
4117
330
40A2
100
AcDbEntity
  8
0
 62
     0
100
AcDbLine
 10
114.7499999999999
 20
35.24538639737466
 30
0.0
 11
114.7499999999999
 21
47.21597633515672
 31
0.0
  0
LINE
  5
4118
330
40A2
100
AcDbEntity
  8
0
 62
     0
100
AcDbLine
 10
114.5624999999999
 20
30.73434161302726
 30
0.0
 11
114.5624999999999
 21
31.73434161302726
 31
0.0
  0
LINE
  5
4119
330
40A2
100
AcDbEntity
  8
0
 62
     0
100
AcDbLine
 10
114.5624999999999
 20
50.73434161302725
 30
0.0
 11
114.5624999999999
 21
51.73434161302726
 31
0.0
  0
LINE
  5
411A
330
40A2
100
AcDbEntity
  8
0
 62
     0
100
AcDbLine
 10
114.5624999999999
 20
35.44390461668304
 30
0.0
 11
114.5624999999999
 21
46.89121680876072
 31
0.0
  0
LINE
  5
411B
330
40A2
100
AcDbEntity
  8
0
 62
     0
100
AcDbLine
 10
114.3749999999999
 20
30.73434161302726
 30
0.0
 11
114.3749999999999
 21
31.73434161302726
 31
0.0
  0
LINE
  5
411C
330
40A2
100
AcDbEntity
  8
0
 62
     0
100
AcDbLine
 10
114.3749999999999
 20
50.73434161302725
 30
0.0
 11
114.3749999999999
 21
51.73434161302726
 31
0.0
  0
LINE
  5
411D
330
40A2
100
AcDbEntity
  8
0
 62
     0
100
AcDbLine
 10
114.3749999999999
 20
35.75939714825758
 30
0.0
 11
114.3749999999999
 21
46.56645728236473
 31
0.0
  0
LINE
  5
411E
330
40A2
100
AcDbEntity
  8
0
 62
     0
100
AcDbLine
 10
114.1874999999999
 20
30.73434161302726
 30
0.0
 11
114.1874999999999
 21
31.73434161302726
 31
0.0
  0
LINE
  5
411F
330
40A2
100
AcDbEntity
  8
0
 62
     0
100
AcDbLine
 10
114.1874999999999
 20
50.73434161302725
 30
0.0
 11
114.1874999999999
 21
51.73434161302726
 31
0.0
  0
LINE
  5
4120
330
40A2
100
AcDbEntity
  8
0
 62
     0
100
AcDbLine
 10
114.1874999999999
 20
36.08415667527249
 30
0.0
 11
114.1874999999999
 21
46.24169775596873
 31
0.0
  0
LINE
  5
4121
330
40A2
100
AcDbEntity
  8
0
 62
     0
100
AcDbLine
 10
113.9999999999999
 20
30.73434161302726
 30
0.0
 11
113.9999999999999
 21
31.73434161302726
 31
0.0
  0
LINE
  5
4122
330
40A2
100
AcDbEntity
  8
0
 62
     0
100
AcDbLine
 10
113.9999999999999
 20
50.73434161302725
 30
0.0
 11
113.9999999999999
 21
51.73434161302726
 31
0.0
  0
LINE
  5
4123
330
40A2
100
AcDbEntity
  8
0
 62
     0
100
AcDbLine
 10
113.9999999999999
 20
36.40891620228741
 30
0.0
 11
113.9999999999999
 21
45.91693822957273
 31
0.0
  0
LINE
  5
4124
330
40A2
100
AcDbEntity
  8
0
 62
     0
100
AcDbLine
 10
113.8124999999999
 20
30.73434161302726
 30
0.0
 11
113.8124999999999
 21
31.73434161302726
 31
0.0
  0
LINE
  5
4125
330
40A2
100
AcDbEntity
  8
0
 62
     0
100
AcDbLine
 10
113.8124999999999
 20
50.73434161302725
 30
0.0
 11
113.8124999999999
 21
51.73434161302726
 31
0.0
  0
LINE
  5
4126
330
40A2
100
AcDbEntity
  8
0
 62
     0
100
AcDbLine
 10
113.8124999999999
 20
36.73367572930232
 30
0.0
 11
113.8124999999999
 21
45.59217870317673
 31
0.0
  0
LINE
  5
4127
330
40A2
100
AcDbEntity
  8
0
 62
     0
100
AcDbLine
 10
113.6249999999999
 20
30.73434161302726
 30
0.0
 11
113.6249999999999
 21
31.73434161302726
 31
0.0
  0
LINE
  5
4128
330
40A2
100
AcDbEntity
  8
0
 62
     0
100
AcDbLine
 10
113.6249999999999
 20
50.73434161302725
 30
0.0
 11
113.6249999999999
 21
51.73434161302726
 31
0.0
  0
LINE
  5
4129
330
40A2
100
AcDbEntity
  8
0
 62
     0
100
AcDbLine
 10
113.6249999999999
 20
37.05843525631724
 30
0.0
 11
113.6249999999999
 21
45.26741917678073
 31
0.0
  0
LINE
  5
412A
330
40A2
100
AcDbEntity
  8
0
 62
     0
100
AcDbLine
 10
113.4374999999999
 20
30.73434161302726
 30
0.0
 11
113.4374999999999
 21
31.73434161302726
 31
0.0
  0
LINE
  5
412B
330
40A2
100
AcDbEntity
  8
0
 62
     0
100
AcDbLine
 10
113.4374999999999
 20
50.73434161302725
 30
0.0
 11
113.4374999999999
 21
51.73434161302726
 31
0.0
  0
LINE
  5
412C
330
40A2
100
AcDbEntity
  8
0
 62
     0
100
AcDbLine
 10
113.4374999999999
 20
37.38319478333215
 30
0.0
 11
113.4374999999999
 21
44.94265965038473
 31
0.0
  0
LINE
  5
412D
330
40A2
100
AcDbEntity
  8
0
 62
     0
100
AcDbLine
 10
113.2499999999999
 20
30.73434161302726
 30
0.0
 11
113.2499999999999
 21
31.73434161302726
 31
0.0
  0
LINE
  5
412E
330
40A2
100
AcDbEntity
  8
0
 62
     0
100
AcDbLine
 10
113.2499999999999
 20
50.73434161302725
 30
0.0
 11
113.2499999999999
 21
51.73434161302726
 31
0.0
  0
LINE
  5
412F
330
40A2
100
AcDbEntity
  8
0
 62
     0
100
AcDbLine
 10
113.2499999999999
 20
37.70795431034707
 30
0.0
 11
113.2499999999999
 21
44.61790012398874
 31
0.0
  0
LINE
  5
4130
330
40A2
100
AcDbEntity
  8
0
 62
     0
100
AcDbLine
 10
113.0624999999999
 20
30.73434161302726
 30
0.0
 11
113.0624999999999
 21
31.73434161302726
 31
0.0
  0
LINE
  5
4131
330
40A2
100
AcDbEntity
  8
0
 62
     0
100
AcDbLine
 10
113.0624999999999
 20
50.73434161302725
 30
0.0
 11
113.0624999999999
 21
51.73434161302726
 31
0.0
  0
LINE
  5
4132
330
40A2
100
AcDbEntity
  8
0
 62
     0
100
AcDbLine
 10
113.0624999999999
 20
38.03271383736198
 30
0.0
 11
113.0624999999999
 21
44.29314059759273
 31
0.0
  0
LINE
  5
4133
330
40A2
100
AcDbEntity
  8
0
 62
     0
100
AcDbLine
 10
112.8749999999999
 20
30.73434161302726
 30
0.0
 11
112.8749999999999
 21
31.73434161302726
 31
0.0
  0
LINE
  5
4134
330
40A2
100
AcDbEntity
  8
0
 62
     0
100
AcDbLine
 10
112.8749999999999
 20
50.73434161302725
 30
0.0
 11
112.8749999999999
 21
51.73434161302726
 31
0.0
  0
LINE
  5
4135
330
40A2
100
AcDbEntity
  8
0
 62
     0
100
AcDbLine
 10
112.8749999999999
 20
38.35747336437689
 30
0.0
 11
112.8749999999999
 21
43.96838107119673
 31
0.0
  0
LINE
  5
4136
330
40A2
100
AcDbEntity
  8
0
 62
     0
100
AcDbLine
 10
112.6874999999999
 20
30.73434161302726
 30
0.0
 11
112.6874999999999
 21
31.73434161302726
 31
0.0
  0
LINE
  5
4137
330
40A2
100
AcDbEntity
  8
0
 62
     0
100
AcDbLine
 10
112.6874999999999
 20
50.73434161302725
 30
0.0
 11
112.6874999999999
 21
51.73434161302726
 31
0.0
  0
LINE
  5
4138
330
40A2
100
AcDbEntity
  8
0
 62
     0
100
AcDbLine
 10
112.6874999999999
 20
38.68223289139181
 30
0.0
 11
112.6874999999999
 21
43.64362154480074
 31
0.0
  0
LINE
  5
4139
330
40A2
100
AcDbEntity
  8
0
 62
     0
100
AcDbLine
 10
112.4999999999999
 20
30.73434161302726
 30
0.0
 11
112.4999999999999
 21
31.73434161302726
 31
0.0
  0
LINE
  5
413A
330
40A2
100
AcDbEntity
  8
0
 62
     0
100
AcDbLine
 10
112.4999999999999
 20
50.73434161302725
 30
0.0
 11
112.4999999999999
 21
51.73434161302726
 31
0.0
  0
LINE
  5
413B
330
40A2
100
AcDbEntity
  8
0
 62
     0
100
AcDbLine
 10
112.4999999999999
 20
39.00699241840672
 30
0.0
 11
112.4999999999999
 21
43.31886201840474
 31
0.0
  0
LINE
  5
413C
330
40A2
100
AcDbEntity
  8
0
 62
     0
100
AcDbLine
 10
112.3124999999999
 20
30.73434161302726
 30
0.0
 11
112.3124999999999
 21
31.73434161302726
 31
0.0
  0
LINE
  5
413D
330
40A2
100
AcDbEntity
  8
0
 62
     0
100
AcDbLine
 10
112.3124999999999
 20
50.73434161302725
 30
0.0
 11
112.3124999999999
 21
51.73434161302726
 31
0.0
  0
LINE
  5
413E
330
40A2
100
AcDbEntity
  8
0
 62
     0
100
AcDbLine
 10
112.3124999999999
 20
39.33175194542164
 30
0.0
 11
112.3124999999999
 21
42.99410249200874
 31
0.0
  0
LINE
  5
413F
330
40A2
100
AcDbEntity
  8
0
 62
     0
100
AcDbLine
 10
112.1249999999999
 20
30.73434161302726
 30
0.0
 11
112.1249999999999
 21
31.73434161302726
 31
0.0
  0
LINE
  5
4140
330
40A2
100
AcDbEntity
  8
0
 62
     0
100
AcDbLine
 10
112.1249999999999
 20
50.73434161302725
 30
0.0
 11
112.1249999999999
 21
51.73434161302726
 31
0.0
  0
LINE
  5
4141
330
40A2
100
AcDbEntity
  8
0
 62
     0
100
AcDbLine
 10
112.1249999999999
 20
39.65651147243655
 30
0.0
 11
112.1249999999999
 21
42.66934296561275
 31
0.0
  0
LINE
  5
4142
330
40A2
100
AcDbEntity
  8
0
 62
     0
100
AcDbLine
 10
111.9374999999999
 20
30.73434161302726
 30
0.0
 11
111.9374999999999
 21
31.73434161302726
 31
0.0
  0
LINE
  5
4143
330
40A2
100
AcDbEntity
  8
0
 62
     0
100
AcDbLine
 10
111.9374999999999
 20
50.73434161302725
 30
0.0
 11
111.9374999999999
 21
51.73434161302726
 31
0.0
  0
LINE
  5
4144
330
40A2
100
AcDbEntity
  8
0
 62
     0
100
AcDbLine
 10
111.9374999999999
 20
39.98127099945147
 30
0.0
 11
111.9374999999999
 21
42.34458343921675
 31
0.0
  0
LINE
  5
4145
330
40A2
100
AcDbEntity
  8
0
 62
     0
100
AcDbLine
 10
111.7499999999999
 20
30.73434161302726
 30
0.0
 11
111.7499999999999
 21
31.73434161302726
 31
0.0
  0
LINE
  5
4146
330
40A2
100
AcDbEntity
  8
0
 62
     0
100
AcDbLine
 10
111.7499999999999
 20
50.73434161302725
 30
0.0
 11
111.7499999999999
 21
51.73434161302726
 31
0.0
  0
LINE
  5
4147
330
40A2
100
AcDbEntity
  8
0
 62
     0
100
AcDbLine
 10
111.7499999999999
 20
40.30603052646639
 30
0.0
 11
111.7499999999999
 21
42.01982391282075
 31
0.0
  0
LINE
  5
4148
330
40A2
100
AcDbEntity
  8
0
 62
     0
100
AcDbLine
 10
111.5624999999999
 20
30.740674914095
 30
0.0
 11
111.5624999999999
 21
31.74492105275434
 31
0.0
  0
LINE
  5
4149
330
40A2
100
AcDbEntity
  8
0
 62
     0
100
AcDbLine
 10
111.5624999999999
 20
50.72376217330047
 30
0.0
 11
111.5624999999999
 21
51.72800831195969
 31
0.0
  0
LINE
  5
414A
330
40A2
100
AcDbEntity
  8
0
 62
     0
100
AcDbLine
 10
111.5624999999999
 20
40.6307900534813
 30
0.0
 11
111.5624999999999
 21
41.69506438642475
 31
0.0
  0
LINE
  5
414B
330
40A2
100
AcDbEntity
  8
0
 62
     0
100
AcDbLine
 10
111.3749999999999
 20
30.76118006092885
 30
0.0
 11
111.3749999999999
 21
31.77951239185461
 31
0.0
  0
LINE
  5
414C
330
40A2
100
AcDbEntity
  8
0
 62
     0
100
AcDbLine
 10
111.3749999999999
 20
50.6891708342002
 30
0.0
 11
111.3749999999999
 21
51.70750316512584
 31
0.0
  0
LINE
  5
414D
330
40A2
100
AcDbEntity
  8
0
 62
     0
100
AcDbLine
 10
111.1874999999999
 20
30.79623373596523
 30
0.0
 11
111.1874999999999
 21
31.83993492192459
 31
0.0
  0
LINE
  5
414E
330
40A2
100
AcDbEntity
  8
0
 62
     0
100
AcDbLine
 10
111.1874999999999
 20
50.62874830413023
 30
0.0
 11
111.1874999999999
 21
51.67244949008946
 31
0.0
  0
LINE
  5
414F
330
40A2
100
AcDbEntity
  8
0
 62
     0
100
AcDbLine
 10
110.9999999999999
 20
30.84647656709062
 30
0.0
 11
110.9999999999999
 21
31.92977291893484
 31
0.0
  0
LINE
  5
4150
330
40A2
100
AcDbEntity
  8
0
 62
     0
100
AcDbLine
 10
110.9999999999999
 20
50.53891030712001
 30
0.0
 11
110.9999999999999
 21
51.62220665896407
 31
0.0
  0
LINE
  5
4151
330
40A2
100
AcDbEntity
  8
0
 62
     0
100
AcDbLine
 10
110.8124999999999
 20
30.91289455676685
 30
0.0
 11
110.8124999999999
 21
32.05573377535601
 31
0.0
  0
LINE
  5
4152
330
40A2
100
AcDbEntity
  8
0
 62
     0
100
AcDbLine
 10
110.8124999999999
 20
50.41294945069886
 30
0.0
 11
110.8124999999999
 21
51.55578866928784
 31
0.0
  0
LINE
  5
4153
330
40A2
100
AcDbEntity
  8
0
 62
     0
100
AcDbLine
 10
110.6249999999999
 20
30.99692772810695
 30
0.0
 11
110.6249999999999
 21
32.23133568461298
 31
0.0
  0
LINE
  5
4154
330
40A2
100
AcDbEntity
  8
0
 62
     0
100
AcDbLine
 10
110.6249999999999
 20
50.23734754144197
 30
0.0
 11
110.6249999999999
 21
51.47175549794775
 31
0.0
  0
LINE
  5
4155
330
40A2
100
AcDbEntity
  8
0
 62
     0
100
AcDbLine
 10
110.4374999999999
 20
31.10065633870766
 30
0.0
 11
110.4374999999999
 21
32.49096226851445
 31
0.0
  0
LINE
  5
4156
330
40A2
100
AcDbEntity
  8
0
 62
     0
100
AcDbLine
 10
110.4374999999999
 20
49.97772095754063
 30
0.0
 11
110.4374999999999
 21
51.36802688734705
 31
0.0
  0
LINE
  5
4157
330
40A2
100
AcDbEntity
  8
0
 62
     0
100
AcDbLine
 10
110.2499999999999
 20
31.22713153252687
 30
0.0
 11
110.2499999999999
 21
33.06436424023194
 31
0.0
  0
LINE
  5
4158
330
40A2
100
AcDbEntity
  8
0
 62
     0
100
AcDbLine
 10
110.2499999999999
 20
49.40431898582504
 30
0.0
 11
110.2499999999999
 21
51.24155169352786
 31
0.0
  0
LINE
  5
4159
330
40A2
100
AcDbEntity
  8
0
 62
     0
100
AcDbLine
 10
110.0624999999999
 20
31.38100428143419
 30
0.0
 11
110.0624999999999
 21
51.08767894462054
 31
0.0
  0
LINE
  5
415A
330
40A2
100
AcDbEntity
  8
0
 62
     0
100
AcDbLine
 10
109.8749999999999
 20
31.56985558962826
 30
0.0
 11
109.8749999999999
 21
50.89882763642649
 31
0.0
  0
LINE
  5
415B
330
40A2
100
AcDbEntity
  8
0
 62
     0
100
AcDbLine
 10
109.6874999999999
 20
31.80750746726795
 30
0.0
 11
109.6874999999999
 21
50.66117575878685
 31
0.0
  0
LINE
  5
415C
330
40A2
100
AcDbEntity
  8
0
 62
     0
100
AcDbLine
 10
109.4999999999999
 20
32.12488898361093
 30
0.0
 11
109.4999999999999
 21
50.34379424244395
 31
0.0
  0
LINE
  5
415D
330
40A2
100
AcDbEntity
  8
0
 62
     0
100
AcDbLine
 10
109.3124999999999
 20
32.63801779635305
 30
0.0
 11
109.3124999999999
 21
49.83066542970214
 31
0.0
  0
LINE
  5
415E
330
40A2
100
AcDbEntity
  8
0
 62
     0
100
AcDbLine
 10
119.8124999999999
 20
30.73434161302726
 30
0.0
 11
119.8124999999999
 21
31.73434161302726
 31
0.0
  0
LINE
  5
415F
330
40A2
100
AcDbEntity
  8
0
 62
     0
100
AcDbLine
 10
119.8124999999999
 20
50.73434161302725
 30
0.0
 11
119.8124999999999
 21
51.73434161302726
 31
0.0
  0
LINE
  5
4160
330
40A2
100
AcDbEntity
  8
0
 62
     0
100
AcDbLine
 10
119.8124999999999
 20
34.23389329927631
 30
0.0
 11
119.8124999999999
 21
40.08222418853857
 31
0.0
  0
LINE
  5
4161
330
40A2
100
AcDbEntity
  8
0
 62
     0
100
AcDbLine
 10
119.8124999999999
 20
42.36292722007112
 30
0.0
 11
119.8124999999999
 21
48.39196114086594
 31
0.0
  0
LINE
  5
4162
330
40A2
100
AcDbEntity
  8
0
 62
     0
100
AcDbLine
 10
119.9999999999999
 20
30.73434161302726
 30
0.0
 11
119.9999999999999
 21
31.73434161302726
 31
0.0
  0
LINE
  5
4163
330
40A2
100
AcDbEntity
  8
0
 62
     0
100
AcDbLine
 10
119.9999999999999
 20
50.73434161302725
 30
0.0
 11
119.9999999999999
 21
51.73434161302726
 31
0.0
  0
LINE
  5
4164
330
40A2
100
AcDbEntity
  8
0
 62
     0
100
AcDbLine
 10
119.9999999999999
 20
34.23389329927631
 30
0.0
 11
119.9999999999999
 21
40.1624328003386
 31
0.0
  0
LINE
  5
4165
330
40A2
100
AcDbEntity
  8
0
 62
     0
100
AcDbLine
 10
119.9999999999999
 20
42.36292722007112
 30
0.0
 11
119.9999999999999
 21
48.39196114086594
 31
0.0
  0
LINE
  5
4166
330
40A2
100
AcDbEntity
  8
0
 62
     0
100
AcDbLine
 10
120.1874999999999
 20
30.73434161302726
 30
0.0
 11
120.1874999999999
 21
31.73434161302726
 31
0.0
  0
LINE
  5
4167
330
40A2
100
AcDbEntity
  8
0
 62
     0
100
AcDbLine
 10
120.1874999999999
 20
50.73434161302725
 30
0.0
 11
120.1874999999999
 21
51.73434161302726
 31
0.0
  0
LINE
  5
4168
330
40A2
100
AcDbEntity
  8
0
 62
     0
100
AcDbLine
 10
120.1874999999999
 20
34.23389329927631
 30
0.0
 11
120.1874999999999
 21
40.16292722007113
 31
0.0
  0
LINE
  5
4169
330
40A2
100
AcDbEntity
  8
0
 62
     0
100
AcDbLine
 10
120.1874999999999
 20
42.36292722007112
 30
0.0
 11
120.1874999999999
 21
48.39196114086594
 31
0.0
  0
LINE
  5
416A
330
40A2
100
AcDbEntity
  8
0
 62
     0
100
AcDbLine
 10
120.3749999999999
 20
30.73434161302726
 30
0.0
 11
120.3749999999999
 21
31.73434161302726
 31
0.0
  0
LINE
  5
416B
330
40A2
100
AcDbEntity
  8
0
 62
     0
100
AcDbLine
 10
120.3749999999999
 20
50.73434161302725
 30
0.0
 11
120.3749999999999
 21
51.73434161302726
 31
0.0
  0
LINE
  5
416C
330
40A2
100
AcDbEntity
  8
0
 62
     0
100
AcDbLine
 10
120.3749999999999
 20
34.23389329927631
 30
0.0
 11
120.3749999999999
 21
40.16292722007113
 31
0.0
  0
LINE
  5
416D
330
40A2
100
AcDbEntity
  8
0
 62
     0
100
AcDbLine
 10
120.3749999999999
 20
42.36292722007112
 30
0.0
 11
120.3749999999999
 21
48.39196114086594
 31
0.0
  0
LINE
  5
416E
330
40A2
100
AcDbEntity
  8
0
 62
     0
100
AcDbLine
 10
120.5624999999999
 20
30.73434161302726
 30
0.0
 11
120.5624999999999
 21
31.73434161302726
 31
0.0
  0
LINE
  5
416F
330
40A2
100
AcDbEntity
  8
0
 62
     0
100
AcDbLine
 10
120.5624999999999
 20
50.73434161302725
 30
0.0
 11
120.5624999999999
 21
51.73434161302726
 31
0.0
  0
LINE
  5
4170
330
40A2
100
AcDbEntity
  8
0
 62
     0
100
AcDbLine
 10
120.5624999999999
 20
34.23389329927631
 30
0.0
 11
120.5624999999999
 21
40.16292722007113
 31
0.0
  0
LINE
  5
4171
330
40A2
100
AcDbEntity
  8
0
 62
     0
100
AcDbLine
 10
120.5624999999999
 20
42.36292722007112
 30
0.0
 11
120.5624999999999
 21
48.39196114086594
 31
0.0
  0
LINE
  5
4172
330
40A2
100
AcDbEntity
  8
0
 62
     0
100
AcDbLine
 10
120.7499999999999
 20
30.73434161302726
 30
0.0
 11
120.7499999999999
 21
31.73434161302726
 31
0.0
  0
LINE
  5
4173
330
40A2
100
AcDbEntity
  8
0
 62
     0
100
AcDbLine
 10
120.7499999999999
 20
50.73434161302725
 30
0.0
 11
120.7499999999999
 21
51.73434161302726
 31
0.0
  0
LINE
  5
4174
330
40A2
100
AcDbEntity
  8
0
 62
     0
100
AcDbLine
 10
120.7499999999999
 20
34.23389329927631
 30
0.0
 11
120.7499999999999
 21
40.16292722007113
 31
0.0
  0
LINE
  5
4175
330
40A2
100
AcDbEntity
  8
0
 62
     0
100
AcDbLine
 10
120.7499999999999
 20
42.36292722007112
 30
0.0
 11
120.7499999999999
 21
48.39196114086594
 31
0.0
  0
LINE
  5
4176
330
40A2
100
AcDbEntity
  8
0
 62
     0
100
AcDbLine
 10
120.9374999999999
 20
30.73434161302726
 30
0.0
 11
120.9374999999999
 21
31.73434161302726
 31
0.0
  0
LINE
  5
4177
330
40A2
100
AcDbEntity
  8
0
 62
     0
100
AcDbLine
 10
120.9374999999999
 20
50.73434161302725
 30
0.0
 11
120.9374999999999
 21
51.73434161302726
 31
0.0
  0
LINE
  5
4178
330
40A2
100
AcDbEntity
  8
0
 62
     0
100
AcDbLine
 10
120.9374999999999
 20
34.23389329927631
 30
0.0
 11
120.9374999999999
 21
40.16292722007113
 31
0.0
  0
LINE
  5
4179
330
40A2
100
AcDbEntity
  8
0
 62
     0
100
AcDbLine
 10
120.9374999999999
 20
42.36292722007112
 30
0.0
 11
120.9374999999999
 21
48.39196114086594
 31
0.0
  0
LINE
  5
417A
330
40A2
100
AcDbEntity
  8
0
 62
     0
100
AcDbLine
 10
121.1249999999999
 20
30.73434161302726
 30
0.0
 11
121.1249999999999
 21
31.73434161302726
 31
0.0
  0
LINE
  5
417B
330
40A2
100
AcDbEntity
  8
0
 62
     0
100
AcDbLine
 10
121.1249999999999
 20
50.73434161302725
 30
0.0
 11
121.1249999999999
 21
51.73434161302726
 31
0.0
  0
LINE
  5
417C
330
40A2
100
AcDbEntity
  8
0
 62
     0
100
AcDbLine
 10
121.1249999999999
 20
34.23389329927631
 30
0.0
 11
121.1249999999999
 21
40.16292722007113
 31
0.0
  0
LINE
  5
417D
330
40A2
100
AcDbEntity
  8
0
 62
     0
100
AcDbLine
 10
121.1249999999999
 20
42.36292722007112
 30
0.0
 11
121.1249999999999
 21
48.39196114086594
 31
0.0
  0
LINE
  5
417E
330
40A2
100
AcDbEntity
  8
0
 62
     0
100
AcDbLine
 10
121.3124999999999
 20
30.73434161302726
 30
0.0
 11
121.3124999999999
 21
31.73434161302726
 31
0.0
  0
LINE
  5
417F
330
40A2
100
AcDbEntity
  8
0
 62
     0
100
AcDbLine
 10
121.3124999999999
 20
50.73434161302725
 30
0.0
 11
121.3124999999999
 21
51.73434161302726
 31
0.0
  0
LINE
  5
4180
330
40A2
100
AcDbEntity
  8
0
 62
     0
100
AcDbLine
 10
121.3124999999999
 20
34.23389329927631
 30
0.0
 11
121.3124999999999
 21
40.16292722007113
 31
0.0
  0
LINE
  5
4181
330
40A2
100
AcDbEntity
  8
0
 62
     0
100
AcDbLine
 10
121.3124999999999
 20
42.36292722007112
 30
0.0
 11
121.3124999999999
 21
48.39196114086594
 31
0.0
  0
LINE
  5
4182
330
40A2
100
AcDbEntity
  8
0
 62
     0
100
AcDbLine
 10
121.4999999999999
 20
30.73434161302726
 30
0.0
 11
121.4999999999999
 21
31.73434161302726
 31
0.0
  0
LINE
  5
4183
330
40A2
100
AcDbEntity
  8
0
 62
     0
100
AcDbLine
 10
121.4999999999999
 20
50.73434161302725
 30
0.0
 11
121.4999999999999
 21
51.73434161302726
 31
0.0
  0
LINE
  5
4184
330
40A2
100
AcDbEntity
  8
0
 62
     0
100
AcDbLine
 10
121.4999999999999
 20
34.23389329927631
 30
0.0
 11
121.4999999999999
 21
40.16292722007113
 31
0.0
  0
LINE
  5
4185
330
40A2
100
AcDbEntity
  8
0
 62
     0
100
AcDbLine
 10
121.4999999999999
 20
42.36292722007112
 30
0.0
 11
121.4999999999999
 21
48.39196114086594
 31
0.0
  0
LINE
  5
4186
330
40A2
100
AcDbEntity
  8
0
 62
     0
100
AcDbLine
 10
121.6874999999999
 20
30.73434161302726
 30
0.0
 11
121.6874999999999
 21
31.73434161302726
 31
0.0
  0
LINE
  5
4187
330
40A2
100
AcDbEntity
  8
0
 62
     0
100
AcDbLine
 10
121.6874999999999
 20
50.73434161302725
 30
0.0
 11
121.6874999999999
 21
51.73434161302726
 31
0.0
  0
LINE
  5
4188
330
40A2
100
AcDbEntity
  8
0
 62
     0
100
AcDbLine
 10
121.6874999999999
 20
34.23389329927631
 30
0.0
 11
121.6874999999999
 21
40.16292722007113
 31
0.0
  0
LINE
  5
4189
330
40A2
100
AcDbEntity
  8
0
 62
     0
100
AcDbLine
 10
121.6874999999999
 20
42.36292722007112
 30
0.0
 11
121.6874999999999
 21
48.39196114086594
 31
0.0
  0
LINE
  5
418A
330
40A2
100
AcDbEntity
  8
0
 62
     0
100
AcDbLine
 10
121.8749999999999
 20
30.73434161302726
 30
0.0
 11
121.8749999999999
 21
31.73434161302726
 31
0.0
  0
LINE
  5
418B
330
40A2
100
AcDbEntity
  8
0
 62
     0
100
AcDbLine
 10
121.8749999999999
 20
50.73434161302725
 30
0.0
 11
121.8749999999999
 21
51.73434161302726
 31
0.0
  0
LINE
  5
418C
330
40A2
100
AcDbEntity
  8
0
 62
     0
100
AcDbLine
 10
121.8749999999999
 20
34.23389329927631
 30
0.0
 11
121.8749999999999
 21
40.16292722007113
 31
0.0
  0
LINE
  5
418D
330
40A2
100
AcDbEntity
  8
0
 62
     0
100
AcDbLine
 10
121.8749999999999
 20
42.36292722007112
 30
0.0
 11
121.8749999999999
 21
48.39196114086594
 31
0.0
  0
LINE
  5
418E
330
40A2
100
AcDbEntity
  8
0
 62
     0
100
AcDbLine
 10
122.0624999999999
 20
30.73434161302726
 30
0.0
 11
122.0624999999999
 21
31.73434161302726
 31
0.0
  0
LINE
  5
418F
330
40A2
100
AcDbEntity
  8
0
 62
     0
100
AcDbLine
 10
122.0624999999999
 20
50.73434161302725
 30
0.0
 11
122.0624999999999
 21
51.73434161302726
 31
0.0
  0
LINE
  5
4190
330
40A2
100
AcDbEntity
  8
0
 62
     0
100
AcDbLine
 10
122.0624999999999
 20
34.23389329927631
 30
0.0
 11
122.0624999999999
 21
40.16292722007113
 31
0.0
  0
LINE
  5
4191
330
40A2
100
AcDbEntity
  8
0
 62
     0
100
AcDbLine
 10
122.0624999999999
 20
42.36292722007112
 30
0.0
 11
122.0624999999999
 21
48.39196114086594
 31
0.0
  0
LINE
  5
4192
330
40A2
100
AcDbEntity
  8
0
 62
     0
100
AcDbLine
 10
122.2499999999999
 20
30.73434161302726
 30
0.0
 11
122.2499999999999
 21
31.73434161302726
 31
0.0
  0
LINE
  5
4193
330
40A2
100
AcDbEntity
  8
0
 62
     0
100
AcDbLine
 10
122.2499999999999
 20
50.73434161302725
 30
0.0
 11
122.2499999999999
 21
51.73434161302726
 31
0.0
  0
LINE
  5
4194
330
40A2
100
AcDbEntity
  8
0
 62
     0
100
AcDbLine
 10
122.2499999999999
 20
34.23389329927631
 30
0.0
 11
122.2499999999999
 21
40.16292722007113
 31
0.0
  0
LINE
  5
4195
330
40A2
100
AcDbEntity
  8
0
 62
     0
100
AcDbLine
 10
122.2499999999999
 20
42.36292722007112
 30
0.0
 11
122.2499999999999
 21
48.39196114086594
 31
0.0
  0
LINE
  5
4196
330
40A2
100
AcDbEntity
  8
0
 62
     0
100
AcDbLine
 10
122.4374999999999
 20
30.73434161302726
 30
0.0
 11
122.4374999999999
 21
31.73434161302726
 31
0.0
  0
LINE
  5
4197
330
40A2
100
AcDbEntity
  8
0
 62
     0
100
AcDbLine
 10
122.4374999999999
 20
50.73434161302725
 30
0.0
 11
122.4374999999999
 21
51.73434161302726
 31
0.0
  0
LINE
  5
4198
330
40A2
100
AcDbEntity
  8
0
 62
     0
100
AcDbLine
 10
122.4374999999999
 20
34.23389329927631
 30
0.0
 11
122.4374999999999
 21
40.16292722007113
 31
0.0
  0
LINE
  5
4199
330
40A2
100
AcDbEntity
  8
0
 62
     0
100
AcDbLine
 10
122.4374999999999
 20
42.36292722007112
 30
0.0
 11
122.4374999999999
 21
48.39196114086594
 31
0.0
  0
LINE
  5
419A
330
40A2
100
AcDbEntity
  8
0
 62
     0
100
AcDbLine
 10
122.6249999999999
 20
30.73434161302726
 30
0.0
 11
122.6249999999999
 21
31.73434161302726
 31
0.0
  0
LINE
  5
419B
330
40A2
100
AcDbEntity
  8
0
 62
     0
100
AcDbLine
 10
122.6249999999999
 20
50.73434161302725
 30
0.0
 11
122.6249999999999
 21
51.73434161302726
 31
0.0
  0
LINE
  5
419C
330
40A2
100
AcDbEntity
  8
0
 62
     0
100
AcDbLine
 10
122.6249999999999
 20
34.23389329927631
 30
0.0
 11
122.6249999999999
 21
40.16292722007113
 31
0.0
  0
LINE
  5
419D
330
40A2
100
AcDbEntity
  8
0
 62
     0
100
AcDbLine
 10
122.6249999999999
 20
42.36292722007112
 30
0.0
 11
122.6249999999999
 21
48.39196114086594
 31
0.0
  0
LINE
  5
419E
330
40A2
100
AcDbEntity
  8
0
 62
     0
100
AcDbLine
 10
122.8124999999999
 20
30.73434161302726
 30
0.0
 11
122.8124999999999
 21
31.73434161302726
 31
0.0
  0
LINE
  5
419F
330
40A2
100
AcDbEntity
  8
0
 62
     0
100
AcDbLine
 10
122.8124999999999
 20
50.73434161302725
 30
0.0
 11
122.8124999999999
 21
51.73434161302726
 31
0.0
  0
LINE
  5
41A0
330
40A2
100
AcDbEntity
  8
0
 62
     0
100
AcDbLine
 10
122.8124999999999
 20
34.23389329927631
 30
0.0
 11
122.8124999999999
 21
40.16292722007113
 31
0.0
  0
LINE
  5
41A1
330
40A2
100
AcDbEntity
  8
0
 62
     0
100
AcDbLine
 10
122.8124999999999
 20
42.36292722007112
 30
0.0
 11
122.8124999999999
 21
48.39196114086594
 31
0.0
  0
LINE
  5
41A2
330
40A2
100
AcDbEntity
  8
0
 62
     0
100
AcDbLine
 10
122.9999999999999
 20
30.73434161302726
 30
0.0
 11
122.9999999999999
 21
31.73434161302726
 31
0.0
  0
LINE
  5
41A3
330
40A2
100
AcDbEntity
  8
0
 62
     0
100
AcDbLine
 10
122.9999999999999
 20
50.73434161302725
 30
0.0
 11
122.9999999999999
 21
51.73434161302726
 31
0.0
  0
LINE
  5
41A4
330
40A2
100
AcDbEntity
  8
0
 62
     0
100
AcDbLine
 10
122.9999999999999
 20
34.23389329927631
 30
0.0
 11
122.9999999999999
 21
40.16292722007113
 31
0.0
  0
LINE
  5
41A5
330
40A2
100
AcDbEntity
  8
0
 62
     0
100
AcDbLine
 10
122.9999999999999
 20
42.36292722007112
 30
0.0
 11
122.9999999999999
 21
48.39145010178652
 31
0.0
  0
LINE
  5
41A6
330
40A2
100
AcDbEntity
  8
0
 62
     0
100
AcDbLine
 10
123.1874999999999
 20
30.73434161302726
 30
0.0
 11
123.1874999999999
 21
31.73434161302726
 31
0.0
  0
LINE
  5
41A7
330
40A2
100
AcDbEntity
  8
0
 62
     0
100
AcDbLine
 10
123.1874999999999
 20
50.73434161302725
 30
0.0
 11
123.1874999999999
 21
51.73434161302726
 31
0.0
  0
LINE
  5
41A8
330
40A2
100
AcDbEntity
  8
0
 62
     0
100
AcDbLine
 10
123.1874999999999
 20
34.24705839230357
 30
0.0
 11
123.1874999999999
 21
40.16292722007113
 31
0.0
  0
LINE
  5
41A9
330
40A2
100
AcDbEntity
  8
0
 62
     0
100
AcDbLine
 10
123.1874999999999
 20
42.36292722007112
 30
0.0
 11
123.1874999999999
 21
48.36758131842096
 31
0.0
  0
LINE
  5
41AA
330
40A2
100
AcDbEntity
  8
0
 62
     0
100
AcDbLine
 10
123.3749999999999
 20
30.73434161302726
 30
0.0
 11
123.3749999999999
 21
31.73434161302726
 31
0.0
  0
LINE
  5
41AB
330
40A2
100
AcDbEntity
  8
0
 62
     0
100
AcDbLine
 10
123.3749999999999
 20
50.73434161302725
 30
0.0
 11
123.3749999999999
 21
51.73434161302726
 31
0.0
  0
LINE
  5
41AC
330
40A2
100
AcDbEntity
  8
0
 62
     0
100
AcDbLine
 10
123.3749999999999
 20
34.29685657824298
 30
0.0
 11
123.3749999999999
 21
40.16292722007113
 31
0.0
  0
LINE
  5
41AD
330
40A2
100
AcDbEntity
  8
0
 62
     0
100
AcDbLine
 10
123.3749999999999
 20
42.36292722007112
 30
0.0
 11
123.3749999999999
 21
48.30540450457434
 31
0.0
  0
LINE
  5
41AE
330
40A2
100
AcDbEntity
  8
0
 62
     0
100
AcDbLine
 10
123.5624999999999
 20
30.73434161302726
 30
0.0
 11
123.5624999999999
 21
31.73434161302726
 31
0.0
  0
LINE
  5
41AF
330
40A2
100
AcDbEntity
  8
0
 62
     0
100
AcDbLine
 10
123.5624999999999
 20
50.73434161302725
 30
0.0
 11
123.5624999999999
 21
51.73434161302726
 31
0.0
  0
LINE
  5
41B0
330
40A2
100
AcDbEntity
  8
0
 62
     0
100
AcDbLine
 10
123.5624999999999
 20
34.39013978105555
 30
0.0
 11
123.5624999999999
 21
40.16292722007112
 31
0.0
  0
LINE
  5
41B1
330
40A2
100
AcDbEntity
  8
0
 62
     0
100
AcDbLine
 10
123.5624999999999
 20
42.36292722007112
 30
0.0
 11
123.5624999999999
 21
48.19608198163137
 31
0.0
  0
LINE
  5
41B2
330
40A2
100
AcDbEntity
  8
0
 62
     0
100
AcDbLine
 10
123.7499999999999
 20
30.73434161302726
 30
0.0
 11
123.7499999999999
 21
31.73434161302726
 31
0.0
  0
LINE
  5
41B3
330
40A2
100
AcDbEntity
  8
0
 62
     0
100
AcDbLine
 10
123.7499999999999
 20
50.73434161302725
 30
0.0
 11
123.7499999999999
 21
51.73434161302726
 31
0.0
  0
LINE
  5
41B4
330
40A2
100
AcDbEntity
  8
0
 62
     0
100
AcDbLine
 10
123.7499999999999
 20
34.54433570019199
 30
0.0
 11
123.7499999999999
 21
40.16292722007112
 31
0.0
  0
LINE
  5
41B5
330
40A2
100
AcDbEntity
  8
0
 62
     0
100
AcDbLine
 10
123.7499999999999
 20
42.36292722007112
 30
0.0
 11
123.7499999999999
 21
48.01528238581408
 31
0.0
  0
LINE
  5
41B6
330
40A2
100
AcDbEntity
  8
0
 62
     0
100
AcDbLine
 10
123.9374999999999
 20
30.73434161302726
 30
0.0
 11
123.9374999999999
 21
31.73434161302726
 31
0.0
  0
LINE
  5
41B7
330
40A2
100
AcDbEntity
  8
0
 62
     0
100
AcDbLine
 10
123.9374999999999
 20
50.73434161302725
 30
0.0
 11
123.9374999999999
 21
51.73434161302726
 31
0.0
  0
LINE
  5
41B8
330
40A2
100
AcDbEntity
  8
0
 62
     0
100
AcDbLine
 10
123.9374999999999
 20
34.81305744647532
 30
0.0
 11
123.9374999999999
 21
40.16292722007112
 31
0.0
  0
LINE
  5
41B9
330
40A2
100
AcDbEntity
  8
0
 62
     0
100
AcDbLine
 10
123.9374999999999
 20
42.36292722007112
 30
0.0
 11
123.9374999999999
 21
47.71279699366689
 31
0.0
  0
LINE
  5
41BA
330
40A2
100
AcDbEntity
  8
0
 62
     0
100
AcDbLine
 10
124.1249999999999
 20
30.73434161302725
 30
0.0
 11
124.1249999999999
 21
31.73434161302725
 31
0.0
  0
LINE
  5
41BB
330
40A2
100
AcDbEntity
  8
0
 62
     0
100
AcDbLine
 10
124.1249999999999
 20
50.73434161302725
 30
0.0
 11
124.1249999999999
 21
51.73434161302726
 31
0.0
  0
LINE
  5
41BC
330
40A2
100
AcDbEntity
  8
0
 62
     0
100
AcDbLine
 10
124.1249999999999
 20
35.13781697289449
 30
0.0
 11
124.1249999999999
 21
40.16292722007112
 31
0.0
  0
LINE
  5
41BD
330
40A2
100
AcDbEntity
  8
0
 62
     0
100
AcDbLine
 10
124.1249999999999
 20
42.36292722007112
 30
0.0
 11
124.1249999999999
 21
47.38803746724773
 31
0.0
  0
LINE
  5
41BE
330
40A2
100
AcDbEntity
  8
0
 62
     0
100
AcDbLine
 10
124.3124999999999
 20
30.73434161302725
 30
0.0
 11
124.3124999999999
 21
31.73434161302725
 31
0.0
  0
LINE
  5
41BF
330
40A2
100
AcDbEntity
  8
0
 62
     0
100
AcDbLine
 10
124.3124999999999
 20
50.73434161302725
 30
0.0
 11
124.3124999999999
 21
51.73434161302726
 31
0.0
  0
LINE
  5
41C0
330
40A2
100
AcDbEntity
  8
0
 62
     0
100
AcDbLine
 10
124.3124999999999
 20
35.46257649931365
 30
0.0
 11
124.3124999999999
 21
40.16292722007112
 31
0.0
  0
LINE
  5
41C1
330
40A2
100
AcDbEntity
  8
0
 62
     0
100
AcDbLine
 10
124.3124999999999
 20
42.36292722007112
 30
0.0
 11
124.3124999999999
 21
47.06327794082857
 31
0.0
  0
LINE
  5
41C2
330
40A2
100
AcDbEntity
  8
0
 62
     0
100
AcDbLine
 10
124.4999999999999
 20
30.73434161302725
 30
0.0
 11
124.4999999999999
 21
31.73434161302725
 31
0.0
  0
LINE
  5
41C3
330
40A2
100
AcDbEntity
  8
0
 62
     0
100
AcDbLine
 10
124.4999999999999
 20
50.73434161302725
 30
0.0
 11
124.4999999999999
 21
51.73434161302726
 31
0.0
  0
LINE
  5
41C4
330
40A2
100
AcDbEntity
  8
0
 62
     0
100
AcDbLine
 10
124.4999999999999
 20
35.78733602573282
 30
0.0
 11
124.4999999999999
 21
40.16292722007112
 31
0.0
  0
LINE
  5
41C5
330
40A2
100
AcDbEntity
  8
0
 62
     0
100
AcDbLine
 10
124.4999999999999
 20
42.36292722007112
 30
0.0
 11
124.4999999999999
 21
46.7385184144094
 31
0.0
  0
LINE
  5
41C6
330
40A2
100
AcDbEntity
  8
0
 62
     0
100
AcDbLine
 10
124.6874999999999
 20
30.73434161302725
 30
0.0
 11
124.6874999999999
 21
31.73434161302725
 31
0.0
  0
LINE
  5
41C7
330
40A2
100
AcDbEntity
  8
0
 62
     0
100
AcDbLine
 10
124.6874999999999
 20
50.73434161302725
 30
0.0
 11
124.6874999999999
 21
51.73434161302726
 31
0.0
  0
LINE
  5
41C8
330
40A2
100
AcDbEntity
  8
0
 62
     0
100
AcDbLine
 10
124.6874999999999
 20
36.11209555215198
 30
0.0
 11
124.6874999999999
 21
40.16292722007112
 31
0.0
  0
LINE
  5
41C9
330
40A2
100
AcDbEntity
  8
0
 62
     0
100
AcDbLine
 10
124.6874999999999
 20
42.36292722007112
 30
0.0
 11
124.6874999999999
 21
46.41375888799024
 31
0.0
  0
LINE
  5
41CA
330
40A2
100
AcDbEntity
  8
0
 62
     0
100
AcDbLine
 10
124.8749999999999
 20
30.73434161302725
 30
0.0
 11
124.8749999999999
 21
31.73434161302725
 31
0.0
  0
LINE
  5
41CB
330
40A2
100
AcDbEntity
  8
0
 62
     0
100
AcDbLine
 10
124.8749999999999
 20
50.73434161302725
 30
0.0
 11
124.8749999999999
 21
51.73434161302726
 31
0.0
  0
LINE
  5
41CC
330
40A2
100
AcDbEntity
  8
0
 62
     0
100
AcDbLine
 10
124.8749999999999
 20
36.43685507857115
 30
0.0
 11
124.8749999999999
 21
40.16292722007112
 31
0.0
  0
LINE
  5
41CD
330
40A2
100
AcDbEntity
  8
0
 62
     0
100
AcDbLine
 10
124.8749999999999
 20
42.36292722007112
 30
0.0
 11
124.8749999999999
 21
46.08899936157107
 31
0.0
  0
LINE
  5
41CE
330
40A2
100
AcDbEntity
  8
0
 62
     0
100
AcDbLine
 10
125.0624999999999
 20
30.73434161302725
 30
0.0
 11
125.0624999999999
 21
31.73434161302725
 31
0.0
  0
LINE
  5
41CF
330
40A2
100
AcDbEntity
  8
0
 62
     0
100
AcDbLine
 10
125.0624999999999
 20
50.73434161302725
 30
0.0
 11
125.0624999999999
 21
51.73434161302726
 31
0.0
  0
LINE
  5
41D0
330
40A2
100
AcDbEntity
  8
0
 62
     0
100
AcDbLine
 10
125.0624999999999
 20
36.7616146049903
 30
0.0
 11
125.0624999999999
 21
40.16292722007112
 31
0.0
  0
LINE
  5
41D1
330
40A2
100
AcDbEntity
  8
0
 62
     0
100
AcDbLine
 10
125.0624999999999
 20
42.36292722007112
 30
0.0
 11
125.0624999999999
 21
45.76423983515191
 31
0.0
  0
LINE
  5
41D2
330
40A2
100
AcDbEntity
  8
0
 62
     0
100
AcDbLine
 10
125.2499999999999
 20
30.73434161302725
 30
0.0
 11
125.2499999999999
 21
31.73434161302725
 31
0.0
  0
LINE
  5
41D3
330
40A2
100
AcDbEntity
  8
0
 62
     0
100
AcDbLine
 10
125.2499999999999
 20
50.73434161302725
 30
0.0
 11
125.2499999999999
 21
51.73434161302726
 31
0.0
  0
LINE
  5
41D4
330
40A2
100
AcDbEntity
  8
0
 62
     0
100
AcDbLine
 10
125.2499999999999
 20
37.08637413140947
 30
0.0
 11
125.2499999999999
 21
40.16292722007112
 31
0.0
  0
LINE
  5
41D5
330
40A2
100
AcDbEntity
  8
0
 62
     0
100
AcDbLine
 10
125.2499999999999
 20
42.36292722007112
 30
0.0
 11
125.2499999999999
 21
45.43948030873274
 31
0.0
  0
LINE
  5
41D6
330
40A2
100
AcDbEntity
  8
0
 62
     0
100
AcDbLine
 10
125.4374999999999
 20
30.73434161302725
 30
0.0
 11
125.4374999999999
 21
31.73434161302725
 31
0.0
  0
LINE
  5
41D7
330
40A2
100
AcDbEntity
  8
0
 62
     0
100
AcDbLine
 10
125.4374999999999
 20
50.73434161302725
 30
0.0
 11
125.4374999999999
 21
51.73434161302726
 31
0.0
  0
LINE
  5
41D8
330
40A2
100
AcDbEntity
  8
0
 62
     0
100
AcDbLine
 10
125.4374999999999
 20
37.41113365782863
 30
0.0
 11
125.4374999999999
 21
40.16292722007112
 31
0.0
  0
LINE
  5
41D9
330
40A2
100
AcDbEntity
  8
0
 62
     0
100
AcDbLine
 10
125.4374999999999
 20
42.36292722007112
 30
0.0
 11
125.4374999999999
 21
45.11472078231358
 31
0.0
  0
LINE
  5
41DA
330
40A2
100
AcDbEntity
  8
0
 62
     0
100
AcDbLine
 10
125.6249999999999
 20
30.73434161302725
 30
0.0
 11
125.6249999999999
 21
31.73434161302725
 31
0.0
  0
LINE
  5
41DB
330
40A2
100
AcDbEntity
  8
0
 62
     0
100
AcDbLine
 10
125.6249999999999
 20
50.73434161302725
 30
0.0
 11
125.6249999999999
 21
51.73434161302726
 31
0.0
  0
LINE
  5
41DC
330
40A2
100
AcDbEntity
  8
0
 62
     0
100
AcDbLine
 10
125.6249999999999
 20
37.7358931842478
 30
0.0
 11
125.6249999999999
 21
40.16292722007112
 31
0.0
  0
LINE
  5
41DD
330
40A2
100
AcDbEntity
  8
0
 62
     0
100
AcDbLine
 10
125.6249999999999
 20
42.36292722007112
 30
0.0
 11
125.6249999999999
 21
44.78996125589442
 31
0.0
  0
LINE
  5
41DE
330
40A2
100
AcDbEntity
  8
0
 62
     0
100
AcDbLine
 10
125.8124999999999
 20
30.73434161302725
 30
0.0
 11
125.8124999999999
 21
31.73434161302725
 31
0.0
  0
LINE
  5
41DF
330
40A2
100
AcDbEntity
  8
0
 62
     0
100
AcDbLine
 10
125.8124999999999
 20
50.73434161302725
 30
0.0
 11
125.8124999999999
 21
51.73434161302726
 31
0.0
  0
LINE
  5
41E0
330
40A2
100
AcDbEntity
  8
0
 62
     0
100
AcDbLine
 10
125.8124999999999
 20
38.06065271066696
 30
0.0
 11
125.8124999999999
 21
40.16292722007112
 31
0.0
  0
LINE
  5
41E1
330
40A2
100
AcDbEntity
  8
0
 62
     0
100
AcDbLine
 10
125.8124999999999
 20
42.36292722007112
 30
0.0
 11
125.8124999999999
 21
44.46520172947525
 31
0.0
  0
LINE
  5
41E2
330
40A2
100
AcDbEntity
  8
0
 62
     0
100
AcDbLine
 10
125.9999999999999
 20
30.73434161302725
 30
0.0
 11
125.9999999999999
 21
31.73434161302725
 31
0.0
  0
LINE
  5
41E3
330
40A2
100
AcDbEntity
  8
0
 62
     0
100
AcDbLine
 10
125.9999999999999
 20
50.73434161302725
 30
0.0
 11
125.9999999999999
 21
51.73434161302726
 31
0.0
  0
LINE
  5
41E4
330
40A2
100
AcDbEntity
  8
0
 62
     0
100
AcDbLine
 10
125.9999999999999
 20
38.38541223708613
 30
0.0
 11
125.9999999999999
 21
40.16292722007112
 31
0.0
  0
LINE
  5
41E5
330
40A2
100
AcDbEntity
  8
0
 62
     0
100
AcDbLine
 10
125.9999999999999
 20
42.36292722007112
 30
0.0
 11
125.9999999999999
 21
44.14044220305608
 31
0.0
  0
LINE
  5
41E6
330
40A2
100
AcDbEntity
  8
0
 62
     0
100
AcDbLine
 10
126.1874999999999
 20
30.73434161302725
 30
0.0
 11
126.1874999999999
 21
31.73434161302725
 31
0.0
  0
LINE
  5
41E7
330
40A2
100
AcDbEntity
  8
0
 62
     0
100
AcDbLine
 10
126.1874999999999
 20
50.73434161302725
 30
0.0
 11
126.1874999999999
 21
51.73434161302726
 31
0.0
  0
LINE
  5
41E8
330
40A2
100
AcDbEntity
  8
0
 62
     0
100
AcDbLine
 10
126.1874999999999
 20
38.71017176350529
 30
0.0
 11
126.1874999999999
 21
40.16292722007112
 31
0.0
  0
LINE
  5
41E9
330
40A2
100
AcDbEntity
  8
0
 62
     0
100
AcDbLine
 10
126.1874999999999
 20
42.36292722007112
 30
0.0
 11
126.1874999999999
 21
43.81568267663692
 31
0.0
  0
LINE
  5
41EA
330
40A2
100
AcDbEntity
  8
0
 62
     0
100
AcDbLine
 10
126.3749999999999
 20
30.73434161302725
 30
0.0
 11
126.3749999999999
 21
31.73434161302725
 31
0.0
  0
LINE
  5
41EB
330
40A2
100
AcDbEntity
  8
0
 62
     0
100
AcDbLine
 10
126.3749999999999
 20
50.73434161302725
 30
0.0
 11
126.3749999999999
 21
51.73434161302726
 31
0.0
  0
LINE
  5
41EC
330
40A2
100
AcDbEntity
  8
0
 62
     0
100
AcDbLine
 10
126.3749999999999
 20
39.03493128992446
 30
0.0
 11
126.3749999999999
 21
40.16292722007112
 31
0.0
  0
LINE
  5
41ED
330
40A2
100
AcDbEntity
  8
0
 62
     0
100
AcDbLine
 10
126.3749999999999
 20
42.36292722007112
 30
0.0
 11
126.3749999999999
 21
43.49092315021776
 31
0.0
  0
LINE
  5
41EE
330
40A2
100
AcDbEntity
  8
0
 62
     0
100
AcDbLine
 10
126.5624999999999
 20
30.73434161302725
 30
0.0
 11
126.5624999999999
 21
31.73434161302725
 31
0.0
  0
LINE
  5
41EF
330
40A2
100
AcDbEntity
  8
0
 62
     0
100
AcDbLine
 10
126.5624999999999
 20
50.73434161302725
 30
0.0
 11
126.5624999999999
 21
51.73434161302726
 31
0.0
  0
LINE
  5
41F0
330
40A2
100
AcDbEntity
  8
0
 62
     0
100
AcDbLine
 10
126.5624999999999
 20
39.35969081634362
 30
0.0
 11
126.5624999999999
 21
40.16292722007112
 31
0.0
  0
LINE
  5
41F1
330
40A2
100
AcDbEntity
  8
0
 62
     0
100
AcDbLine
 10
126.5624999999999
 20
42.36292722007112
 30
0.0
 11
126.5624999999999
 21
43.1661636237986
 31
0.0
  0
LINE
  5
41F2
330
40A2
100
AcDbEntity
  8
0
 62
     0
100
AcDbLine
 10
126.7499999999999
 20
30.73434161302725
 30
0.0
 11
126.7499999999999
 21
31.73434161302725
 31
0.0
  0
LINE
  5
41F3
330
40A2
100
AcDbEntity
  8
0
 62
     0
100
AcDbLine
 10
126.7499999999999
 20
50.73434161302725
 30
0.0
 11
126.7499999999999
 21
51.73434161302726
 31
0.0
  0
LINE
  5
41F4
330
40A2
100
AcDbEntity
  8
0
 62
     0
100
AcDbLine
 10
126.7499999999999
 20
39.68445034276278
 30
0.0
 11
126.7499999999999
 21
40.16292722007112
 31
0.0
  0
LINE
  5
41F5
330
40A2
100
AcDbEntity
  8
0
 62
     0
100
AcDbLine
 10
126.7499999999999
 20
42.36292722007112
 30
0.0
 11
126.7499999999999
 21
42.84140409737942
 31
0.0
  0
LINE
  5
41F6
330
40A2
100
AcDbEntity
  8
0
 62
     0
100
AcDbLine
 10
126.9374999999999
 20
30.73434161302725
 30
0.0
 11
126.9374999999999
 21
31.73434161302725
 31
0.0
  0
LINE
  5
41F7
330
40A2
100
AcDbEntity
  8
0
 62
     0
100
AcDbLine
 10
126.9374999999999
 20
50.73434161302725
 30
0.0
 11
126.9374999999999
 21
51.73434161302726
 31
0.0
  0
LINE
  5
41F8
330
40A2
100
AcDbEntity
  8
0
 62
     0
100
AcDbLine
 10
126.9374999999999
 20
40.00920986918194
 30
0.0
 11
126.9374999999999
 21
40.16292722007112
 31
0.0
  0
LINE
  5
41F9
330
40A2
100
AcDbEntity
  8
0
 62
     0
100
AcDbLine
 10
126.9374999999999
 20
42.36292722007112
 30
0.0
 11
126.9374999999999
 21
42.51664457096026
 31
0.0
  0
LINE
  5
41FA
330
40A2
100
AcDbEntity
  8
0
 62
     0
100
AcDbLine
 10
127.1249999999999
 20
30.73434161302725
 30
0.0
 11
127.1249999999999
 21
31.73434161302725
 31
0.0
  0
LINE
  5
41FB
330
40A2
100
AcDbEntity
  8
0
 62
     0
100
AcDbLine
 10
127.1249999999999
 20
50.73434161302725
 30
0.0
 11
127.1249999999999
 21
51.73434161302726
 31
0.0
  0
LINE
  5
41FC
330
40A2
100
AcDbEntity
  8
0
 62
     0
100
AcDbLine
 10
127.3124999999999
 20
30.73434161302725
 30
0.0
 11
127.3124999999999
 21
31.73434161302725
 31
0.0
  0
LINE
  5
41FD
330
40A2
100
AcDbEntity
  8
0
 62
     0
100
AcDbLine
 10
127.3124999999999
 20
50.73434161302725
 30
0.0
 11
127.3124999999999
 21
51.73434161302726
 31
0.0
  0
LINE
  5
41FE
330
40A2
100
AcDbEntity
  8
0
 62
     0
100
AcDbLine
 10
127.4999999999999
 20
30.73434161302725
 30
0.0
 11
127.4999999999999
 21
31.73434161302725
 31
0.0
  0
LINE
  5
41FF
330
40A2
100
AcDbEntity
  8
0
 62
     0
100
AcDbLine
 10
127.4999999999999
 20
50.73434161302725
 30
0.0
 11
127.4999999999999
 21
51.73434161302726
 31
0.0
  0
LINE
  5
4200
330
40A2
100
AcDbEntity
  8
0
 62
     0
100
AcDbLine
 10
127.6874999999999
 20
30.73434161302725
 30
0.0
 11
127.6874999999999
 21
31.73434161302725
 31
0.0
  0
LINE
  5
4201
330
40A2
100
AcDbEntity
  8
0
 62
     0
100
AcDbLine
 10
127.6874999999999
 20
50.73434161302725
 30
0.0
 11
127.6874999999999
 21
51.73434161302726
 31
0.0
  0
LINE
  5
4202
330
40A2
100
AcDbEntity
  8
0
 62
     0
100
AcDbLine
 10
127.8749999999999
 20
30.73797101226689
 30
0.0
 11
127.8749999999999
 21
31.74039844933573
 31
0.0
  0
LINE
  5
4203
330
40A2
100
AcDbEntity
  8
0
 62
     0
100
AcDbLine
 10
127.8749999999999
 20
50.72828477671877
 30
0.0
 11
127.8749999999999
 21
51.73071221378761
 31
0.0
  0
LINE
  5
4204
330
40A2
100
AcDbEntity
  8
0
 62
     0
100
AcDbLine
 10
128.0624999999999
 20
30.75518616833917
 30
0.0
 11
128.0624999999999
 21
31.76934614582384
 31
0.0
  0
LINE
  5
4205
330
40A2
100
AcDbEntity
  8
0
 62
     0
100
AcDbLine
 10
128.0624999999999
 20
50.69933708023067
 30
0.0
 11
128.0624999999999
 21
51.71349705771533
 31
0.0
  0
LINE
  5
4206
330
40A2
100
AcDbEntity
  8
0
 62
     0
100
AcDbLine
 10
128.2499999999999
 20
30.78684396001255
 30
0.0
 11
128.2499999999999
 21
31.82358126431013
 31
0.0
  0
LINE
  5
4207
330
40A2
100
AcDbEntity
  8
0
 62
     0
100
AcDbLine
 10
128.2499999999999
 20
50.64510196174438
 30
0.0
 11
128.2499999999999
 21
51.68183926604196
 31
0.0
  0
LINE
  5
4208
330
40A2
100
AcDbEntity
  8
0
 62
     0
100
AcDbLine
 10
128.4374999999999
 20
30.83351565013482
 30
0.0
 11
128.4374999999999
 21
31.90619805749631
 31
0.0
  0
LINE
  5
4209
330
40A2
100
AcDbEntity
  8
0
 62
     0
100
AcDbLine
 10
128.4374999999999
 20
50.5624851685582
 30
0.0
 11
128.4374999999999
 21
51.63516757591969
 31
0.0
  0
LINE
  5
420A
330
40A2
100
AcDbEntity
  8
0
 62
     0
100
AcDbLine
 10
128.6249999999999
 20
30.89610010567942
 30
0.0
 11
128.6249999999999
 21
32.02298974561454
 31
0.0
  0
LINE
  5
420B
330
40A2
100
AcDbEntity
  8
0
 62
     0
100
AcDbLine
 10
128.6249999999999
 20
50.44569348043999
 30
0.0
 11
128.6249999999999
 21
51.57258312037509
 31
0.0
  0
LINE
  5
420C
330
40A2
100
AcDbEntity
  8
0
 62
     0
100
AcDbLine
 10
128.8124999999999
 20
30.9759198434567
 30
0.0
 11
128.8124999999999
 21
32.18530925448431
 31
0.0
  0
LINE
  5
420D
330
40A2
100
AcDbEntity
  8
0
 62
     0
100
AcDbLine
 10
128.8124999999999
 20
50.28337397157022
 30
0.0
 11
128.8124999999999
 21
51.49276338259781
 31
0.0
  0
LINE
  5
420E
330
40A2
100
AcDbEntity
  8
0
 62
     0
100
AcDbLine
 10
128.9999999999999
 20
31.07488521572351
 30
0.0
 11
128.9999999999999
 21
32.41993880614599
 31
0.0
  0
LINE
  5
420F
330
40A2
100
AcDbEntity
  8
0
 62
     0
100
AcDbLine
 10
128.9999999999999
 20
50.04874441990855
 30
0.0
 11
128.9999999999999
 21
51.39379801033101
 31
0.0
  0
LINE
  5
4210
330
40A2
100
AcDbEntity
  8
0
 62
     0
100
AcDbLine
 10
129.1874999999999
 20
31.19578269201418
 30
0.0
 11
129.1874999999999
 21
32.83972474257949
 31
0.0
  0
LINE
  5
4211
330
40A2
100
AcDbEntity
  8
0
 62
     0
100
AcDbLine
 10
129.1874999999999
 20
49.6289584834751
 30
0.0
 11
129.1874999999999
 21
51.27290053404035
 31
0.0
  0
LINE
  5
4212
330
40A2
100
AcDbEntity
  8
0
 62
     0
100
AcDbLine
 10
129.3749999999999
 20
31.34281299388666
 30
0.0
 11
129.3749999999999
 21
51.12587023216786
 31
0.0
  0
LINE
  5
4213
330
40A2
100
AcDbEntity
  8
0
 62
     0
100
AcDbLine
 10
129.5624999999999
 20
31.52269735687652
 30
0.0
 11
129.5624999999999
 21
50.94598586917801
 31
0.0
  0
LINE
  5
4214
330
40A2
100
AcDbEntity
  8
0
 62
     0
100
AcDbLine
 10
129.7499999999999
 20
31.74731131669846
 30
0.0
 11
129.7499999999999
 21
50.72137190935608
 31
0.0
  0
LINE
  5
4215
330
40A2
100
AcDbEntity
  8
0
 62
     0
100
AcDbLine
 10
129.9374999999999
 20
32.0416641022199
 30
0.0
 11
129.9374999999999
 21
50.42701912383464
 31
0.0
  0
LINE
  5
4216
330
40A2
100
AcDbEntity
  8
0
 62
     0
100
AcDbLine
 10
130.1249999999999
 20
32.48375005474038
 30
0.0
 11
130.1249999999999
 21
49.9849331713142
 31
0.0
  0
ENDBLK
  5
4218
330
40A2
100
AcDbEntity
  8
0
100
AcDbBlockEnd
  0
BLOCK
  5
4373
330
4369
100
AcDbEntity
  8
0
100
AcDbBlockBegin
  2
*D1
 70
     1
 10
0.0
 20
0.0
 30
0.0
  3
*D1
  1

  0
LINE
  5
436A
330
4369
100
AcDbEntity
  8
0
 62
     0
100
AcDbLine
 10
334.220004275064
 20
163.3471762505217
 30
0.0
 11
409.7624177785966
 21
163.3471762505217
 31
0.0
  0
LINE
  5
436B
330
4369
100
AcDbEntity
  8
0
 62
     0
100
AcDbLine
 10
386.2200042750641
 20
120.3471762505217
 30
0.0
 11
409.7624177785966
 21
120.3471762505217
 31
0.0
  0
LINE
  5
436C
330
4369
100
AcDbEntity
  8
0
 62
     0
100
AcDbLine
 10
408.2624177785967
 20
161.8471762505216
 30
0.0
 11
408.2624177785966
 21
121.8471762505217
 31
0.0
  0
SOLID
  5
436D
330
4369
100
AcDbEntity
  8
0
 62
     0
100
AcDbTrace
 10
408.0124177785966
 20
161.8471762505216
 30
0.0
 11
408.5124177785967
 21
161.8471762505216
 31
0.0
 12
408.2624177785967
 22
163.3471762505217
 32
0.0
 13
408.2624177785967
 23
163.3471762505217
 33
0.0
  0
SOLID
  5
436E
330
4369
100
AcDbEntity
  8
0
 62
     0
100
AcDbTrace
 10
408.0124177785966
 20
121.8471762505217
 30
0.0
 11
408.5124177785966
 21
121.8471762505217
 31
0.0
 12
408.2624177785966
 22
120.3471762505217
 32
0.0
 13
408.2624177785966
 23
120.3471762505217
 33
0.0
  0
MTEXT
  5
436F
330
4369
100
AcDbEntity
  8
0
100
AcDbMText
 10
406.9224177785967
 20
141.8471762505217
 30
0.0
 40
2.5
 41
0.0
 71
     5
 72
     1
  1
\A1;21.5
  7
ROMANT
 11
0.0000000000000001
 21
1.0
 31
0.0
1001
ACAD
1000
MTEXTBEGIN
1070
    73
1070
     1
1070
    44
1040
1.0
1070
    74
1070
     0
1000
MTEXTEND
  0
POINT
  5
4370
330
4369
100
AcDbEntity
  8
DEFPOINTS
 62
     0
100
AcDbPoint
 10
334.0200042750641
 20
163.3471762505217
 30
0.0
  0
POINT
  5
4371
330
4369
100
AcDbEntity
  8
DEFPOINTS
 62
     0
100
AcDbPoint
 10
386.0200042750641
 20
120.3471762505217
 30
0.0
  0
POINT
  5
4372
330
4369
100
AcDbEntity
  8
DEFPOINTS
 62
     0
100
AcDbPoint
 10
408.2624177785966
 20
120.3471762505217
 30
0.0
  0
ENDBLK
  5
4374
330
4369
100
AcDbEntity
  8
0
100
AcDbBlockEnd
  0
BLOCK
  5
4386
330
4380
100
AcDbEntity
  8
0
100
AcDbBlockBegin
  2
*D2
 70
     1
 10
0.0
 20
0.0
 30
0.0
  3
*D2
  1

  0
LINE
  5
4381
330
4380
100
AcDbEntity
  8
0
 62
     0
100
AcDbLine
 10
389.0128898995945
 20
142.0646042770041
 30
0.0
 11
380.2698469247727
 21
133.0202119894991
 31
0.0
  0
MTEXT
  5
4382
330
4380
100
AcDbEntity
  8
0
100
AcDbMText
 10
384.1992015238257
 20
139.012982321397
 30
0.0
 40
2.5
 41
0.0
 71
     5
 72
     1
  1
\A1;R18.0
  7
ROMANT
 11
0.6950274567858214
 21
0.7189831947367292
 31
0.0
1001
ACAD
1000
MTEXTBEGIN
1070
    73
1070
     1
1070
    44
1040
1.0
1070
    74
1070
     0
1000
MTEXTEND
  0
SOLID
  5
4383
330
4380
100
AcDbEntity
  8
0
 62
     0
100
AcDbTrace
 10
380.0901011260885
 20
133.1939688536955
 30
0.0
 11
380.4495927234569
 21
132.8464551253026
 31
0.0
 12
379.227305739594
 22
131.941737197394
 32
0.0
 13
379.227305739594
 23
131.941737197394
 33
0.0
  0
POINT
  5
4384
330
4380
100
AcDbEntity
  8
DEFPOINTS
 62
     0
100
AcDbPoint
 10
379.227305739594
 20
131.941737197394
 30
0.0
  0
POINT
  5
4385
330
4380
100
AcDbEntity
  8
DEFPOINTS
 62
     0
100
AcDbPoint
 10
404.2482941838833
 20
157.825132207916
 30
0.0
  0
ENDBLK
  5
4387
330
4380
100
AcDbEntity
  8
0
100
AcDbBlockEnd
  0
BLOCK
  5
439B
330
4393
100
AcDbEntity
  8
0
100
AcDbBlockBegin
  2
*D3
 70
     1
 10
0.0
 20
0.0
 30
0.0
  3
*D3
  1

  0
LINE
  5
4394
330
4393
100
AcDbEntity
  8
0
 62
     0
100
AcDbLine
 10
345.3353313991172
 20
176.1004377994527
 30
0.0
 11
342.9176244488179
 21
163.9660046218529
 31
0.0
  0
MTEXT
  5
4395
330
4393
100
AcDbEntity
  8
0
100
AcDbMText
 10
342.9843774305355
 20
171.1586696792122
 30
0.0
 40
2.5
 41
0.0
 71
     5
 72
     1
  1
\A1;R22.1
  7
ROMANT
 11
0.1954027025371831
 21
0.9807230923360402
 31
0.0
1001
ACAD
1000
MTEXTBEGIN
1070
    73
1070
     1
1070
    44
1040
1.0
1070
    74
1070
     0
1000
MTEXTEND
  0
SOLID
  5
4396
330
4393
100
AcDbEntity
  8
0
 62
     0
100
AcDbTrace
 10
342.6724436757338
 20
164.0148552974872
 30
0.0
 11
343.1628052219019
 21
163.9171539462186
 31
0.0
 12
342.6245203950121
 22
162.4949199833489
 32
0.0
 13
342.6245203950121
 23
162.4949199833489
 33
0.0
  0
LINE
  5
4397
330
4393
100
AcDbEntity
  8
0
 62
     0
100
AcDbLine
 10
332.9853844229982
 20
119.135232345596
 30
0.0
 11
334.9853844229982
 21
119.135232345596
 31
0.0
  0
LINE
  5
4398
330
4393
100
AcDbEntity
  8
0
 62
     0
100
AcDbLine
 10
333.9853844229982
 20
118.135232345596
 30
0.0
 11
333.9853844229982
 21
120.135232345596
 31
0.0
  0
POINT
  5
4399
330
4393
100
AcDbEntity
  8
DEFPOINTS
 62
     0
100
AcDbPoint
 10
342.6245203950121
 20
162.4949199833489
 30
0.0
  0
POINT
  5
439A
330
4393
100
AcDbEntity
  8
DEFPOINTS
 62
     0
100
AcDbPoint
 10
333.9853844229982
 20
119.135232345596
 30
0.0
  0
ENDBLK
  5
439C
330
4393
100
AcDbEntity
  8
0
100
AcDbBlockEnd
  0
BLOCK
  5
43A8
330
439E
100
AcDbEntity
  8
0
100
AcDbBlockBegin
  2
*D4
 70
     1
 10
0.0
 20
0.0
 30
0.0
  3
*D4
  1

  0
LINE
  5
439F
330
439E
100
AcDbEntity
  8
0
 62
     0
100
AcDbLine
 10
351.520004275064
 20
136.7471762505217
 30
0.0
 11
351.520004275064
 21
99.40458014452929
 31
0.0
  0
LINE
  5
43A0
330
439E
100
AcDbEntity
  8
0
 62
     0
100
AcDbLine
 10
316.520004275064
 20
136.7471762505217
 30
0.0
 11
316.520004275064
 21
99.40458014452929
 31
0.0
  0
LINE
  5
43A1
330
439E
100
AcDbEntity
  8
0
 62
     0
100
AcDbLine
 10
350.020004275064
 20
100.9045801445292
 30
0.0
 11
318.020004275064
 21
100.9045801445292
 31
0.0
  0
SOLID
  5
43A2
330
439E
100
AcDbEntity
  8
0
 62
     0
100
AcDbTrace
 10
350.020004275064
 20
101.1545801445292
 30
0.0
 11
350.020004275064
 21
100.6545801445292
 31
0.0
 12
351.520004275064
 22
100.9045801445292
 32
0.0
 13
351.520004275064
 23
100.9045801445292
 33
0.0
  0
SOLID
  5
43A3
330
439E
100
AcDbEntity
  8
0
 62
     0
100
AcDbTrace
 10
318.020004275064
 20
101.1545801445292
 30
0.0
 11
318.020004275064
 21
100.6545801445292
 31
0.0
 12
316.520004275064
 22
100.9045801445292
 32
0.0
 13
316.520004275064
 23
100.9045801445292
 33
0.0
  0
MTEXT
  5
43A4
330
439E
100
AcDbEntity
  8
0
100
AcDbMText
 10
334.0200042750641
 20
102.2445801445293
 30
0.0
 40
2.5
 41
0.0
 71
     5
 72
     1
  1
\A1;17.5
  7
ROMANT
1001
ACAD
1000
MTEXTBEGIN
1070
    73
1070
     1
1070
    44
1040
1.0
1070
    74
1070
     0
1000
MTEXTEND
  0
POINT
  5
43A5
330
439E
100
AcDbEntity
  8
DEFPOINTS
 62
     0
100
AcDbPoint
 10
351.520004275064
 20
136.9471762505217
 30
0.0
  0
POINT
  5
43A6
330
439E
100
AcDbEntity
  8
DEFPOINTS
 62
     0
100
AcDbPoint
 10
316.520004275064
 20
136.9471762505217
 30
0.0
  0
POINT
  5
43A7
330
439E
100
AcDbEntity
  8
DEFPOINTS
 62
     0
100
AcDbPoint
 10
316.520004275064
 20
100.9045801445292
 30
0.0
  0
ENDBLK
  5
43A9
330
439E
100
AcDbEntity
  8
0
100
AcDbBlockEnd
  0
BLOCK
  5
43B5
330
43AB
100
AcDbEntity
  8
0
100
AcDbBlockBegin
  2
*D5
 70
     1
 10
0.0
 20
0.0
 30
0.0
  3
*D5
  1

  0
LINE
  5
43AC
330
43AB
100
AcDbEntity
  8
0
 62
     0
100
AcDbLine
 10
334.0200042750641
 20
137.7471762505217
 30
0.0
 11
334.0200042750641
 21
110.7656410583321
 31
0.0
  0
LINE
  5
43AD
330
43AB
100
AcDbEntity
  8
0
 62
     0
100
AcDbLine
 10
316.520004275064
 20
136.7471762505217
 30
0.0
 11
316.520004275064
 21
110.7656410583321
 31
0.0
  0
LINE
  5
43AE
330
43AB
100
AcDbEntity
  8
0
 62
     0
100
AcDbLine
 10
332.520004275064
 20
112.265641058332
 30
0.0
 11
318.020004275064
 21
112.265641058332
 31
0.0
  0
SOLID
  5
43AF
330
43AB
100
AcDbEntity
  8
0
 62
     0
100
AcDbTrace
 10
332.520004275064
 20
112.5156410583321
 30
0.0
 11
332.520004275064
 21
112.0156410583321
 31
0.0
 12
334.0200042750641
 22
112.265641058332
 32
0.0
 13
334.0200042750641
 23
112.265641058332
 33
0.0
  0
SOLID
  5
43B0
330
43AB
100
AcDbEntity
  8
0
 62
     0
100
AcDbTrace
 10
318.020004275064
 20
112.5156410583321
 30
0.0
 11
318.020004275064
 21
112.0156410583321
 31
0.0
 12
316.520004275064
 22
112.265641058332
 32
0.0
 13
316.520004275064
 23
112.265641058332
 33
0.0
  0
MTEXT
  5
43B1
330
43AB
100
AcDbEntity
  8
0
100
AcDbMText
 10
325.270004275064
 20
113.6056410583321
 30
0.0
 40
2.5
 41
0.0
 71
     5
 72
     1
  1
\A1;8.8
  7
ROMANT
1001
ACAD
1000
MTEXTBEGIN
1070
    73
1070
     1
1070
    44
1040
1.0
1070
    74
1070
     0
1000
MTEXTEND
  0
POINT
  5
43B2
330
43AB
100
AcDbEntity
  8
DEFPOINTS
 62
     0
100
AcDbPoint
 10
334.0200042750641
 20
137.9471762505217
 30
0.0
  0
POINT
  5
43B3
330
43AB
100
AcDbEntity
  8
DEFPOINTS
 62
     0
100
AcDbPoint
 10
316.520004275064
 20
136.9471762505217
 30
0.0
  0
POINT
  5
43B4
330
43AB
100
AcDbEntity
  8
DEFPOINTS
 62
     0
100
AcDbPoint
 10
316.520004275064
 20
112.265641058332
 30
0.0
  0
ENDBLK
  5
43B6
330
43AB
100
AcDbEntity
  8
0
100
AcDbBlockEnd
  0
BLOCK
  5
43C3
330
43B8
100
AcDbEntity
  8
0
100
AcDbBlockBegin
  2
*D6
 70
     1
 10
0.0
 20
0.0
 30
0.0
  3
*D6
  1

  0
LINE
  5
43B9
330
43B8
100
AcDbEntity
  8
0
 62
     0
100
AcDbLine
 10
334.220004275064
 20
137.9471762505217
 30
0.0
 11
343.9710068236156
 21
137.9471762505217
 31
0.0
  0
LINE
  5
43BA
330
43B8
100
AcDbEntity
  8
0
 62
     0
100
AcDbLine
 10
335.220004275064
 20
136.9471762505217
 30
0.0
 11
343.9710068236156
 21
136.9471762505217
 31
0.0
  0
LINE
  5
43BB
330
43B8
100
AcDbEntity
  8
0
 62
     0
100
AcDbLine
 10
342.4710068236156
 20
139.4471762505217
 30
0.0
 11
342.4710068236156
 21
140.9471762505217
 31
0.0
  0
LINE
  5
43BC
330
43B8
100
AcDbEntity
  8
0
 62
     0
100
AcDbLine
 10
342.4710068236156
 20
135.4471762505217
 30
0.0
 11
342.4710068236156
 21
128.2248981229826
 31
0.0
  0
SOLID
  5
43BD
330
43B8
100
AcDbEntity
  8
0
 62
     0
100
AcDbTrace
 10
342.2210068236156
 20
139.4471762505217
 30
0.0
 11
342.7210068236156
 21
139.4471762505217
 31
0.0
 12
342.4710068236156
 22
137.9471762505217
 32
0.0
 13
342.4710068236156
 23
137.9471762505217
 33
0.0
  0
SOLID
  5
43BE
330
43B8
100
AcDbEntity
  8
0
 62
     0
100
AcDbTrace
 10
342.2210068236156
 20
135.4471762505217
 30
0.0
 11
342.7210068236156
 21
135.4471762505217
 31
0.0
 12
342.4710068236156
 22
136.9471762505217
 32
0.0
 13
342.4710068236156
 23
136.9471762505217
 33
0.0
  0
MTEXT
  5
43BF
330
43B8
100
AcDbEntity
  8
0
100
AcDbMText
 10
341.1310068236156
 20
131.0860371867522
 30
0.0
 40
2.5
 41
0.0
 71
     5
 72
     1
  1
\A1;0.5
  7
ROMANT
 11
0.0000000000000001
 21
1.0
 31
0.0
1001
ACAD
1000
MTEXTBEGIN
1070
    73
1070
     1
1070
    44
1040
1.0
1070
    74
1070
     0
1000
MTEXTEND
  0
POINT
  5
43C0
330
43B8
100
AcDbEntity
  8
DEFPOINTS
 62
     0
100
AcDbPoint
 10
334.0200042750641
 20
137.9471762505217
 30
0.0
  0
POINT
  5
43C1
330
43B8
100
AcDbEntity
  8
DEFPOINTS
 62
     0
100
AcDbPoint
 10
335.020004275064
 20
136.9471762505217
 30
0.0
  0
POINT
  5
43C2
330
43B8
100
AcDbEntity
  8
DEFPOINTS
 62
     0
100
AcDbPoint
 10
342.4710068236156
 20
136.9471762505217
 30
0.0
  0
ENDBLK
  5
43C4
330
43B8
100
AcDbEntity
  8
0
100
AcDbBlockEnd
  0
BLOCK
  5
43D0
330
43C6
100
AcDbEntity
  8
0
100
AcDbBlockBegin
  2
*D7
 70
     1
 10
0.0
 20
0.0
 30
0.0
  3
*D7
  1

  0
LINE
  5
44B1
330
43C6
100
AcDbEntity
  8
0
 62
     0
100
AcDbLine
 10
279.020004275064
 20
123.1471762505217
 30
0.0
 11
279.020004275064
 21
88.81545119735381
 31
0.0
  0
LINE
  5
44B2
330
43C6
100
AcDbEntity
  8
0
 62
     0
100
AcDbLine
 10
389.0200042750641
 20
123.1471762505217
 30
0.0
 11
389.0200042750641
 21
88.81545119735381
 31
0.0
  0
LINE
  5
44B3
330
43C6
100
AcDbEntity
  8
0
 62
     0
100
AcDbLine
 10
280.520004275064
 20
90.31545119735381
 30
0.0
 11
387.5200042750641
 21
90.31545119735381
 31
0.0
  0
SOLID
  5
44B4
330
43C6
100
AcDbEntity
  8
0
 62
     0
100
AcDbTrace
 10
280.520004275064
 20
90.5654511973538
 30
0.0
 11
280.520004275064
 21
90.06545119735381
 31
0.0
 12
279.020004275064
 22
90.31545119735381
 32
0.0
 13
279.020004275064
 23
90.31545119735381
 33
0.0
  0
SOLID
  5
44B5
330
43C6
100
AcDbEntity
  8
0
 62
     0
100
AcDbTrace
 10
387.5200042750641
 20
90.5654511973538
 30
0.0
 11
387.5200042750641
 21
90.06545119735381
 31
0.0
 12
389.0200042750641
 22
90.31545119735381
 32
0.0
 13
389.0200042750641
 23
90.31545119735381
 33
0.0
  0
MTEXT
  5
44B6
330
43C6
100
AcDbEntity
  8
0
100
AcDbMText
 10
334.0200042750641
 20
91.65545119735382
 30
0.0
 40
2.5
 41
0.0
 71
     5
 72
     1
  1
\A1;55.00.45
  7
ROMANT
1001
ACAD
1000
MTEXTBEGIN
1070
    73
1070
     1
1070
    44
1040
1.0
1070
    74
1070
     0
1000
MTEXTEND
  0
POINT
  5
44B7
330
43C6
100
AcDbEntity
  8
DEFPOINTS
 62
     0
100
AcDbPoint
 10
279.020004275064
 20
123.3471762505217
 30
0.0
  0
POINT
  5
44B8
330
43C6
100
AcDbEntity
  8
DEFPOINTS
 62
     0
100
AcDbPoint
 10
389.0200042750641
 20
123.3471762505217
 30
0.0
  0
POINT
  5
44B9
330
43C6
100
AcDbEntity
  8
DEFPOINTS
 62
     0
100
AcDbPoint
 10
389.0200042750641
 20
90.31545119735381
 30
0.0
  0
ENDBLK
  5
43D1
330
43C6
100
AcDbEntity
  8
0
100
AcDbBlockEnd
  0
BLOCK
  5
43FB
330
43F0
100
AcDbEntity
  8
0
100
AcDbBlockBegin
  2
*D8
 70
     1
 10
0.0
 20
0.0
 30
0.0
  3
*D8
  1

  0
LINE
  5
43F1
330
43F0
100
AcDbEntity
  8
0
 62
     0
100
AcDbLine
 10
294.6371515703655
 20
124.3471762505217
 30
0.0
 11
295.9671105304123
 21
124.3471762505217
 31
0.0
  0
LINE
  5
43F2
330
43F0
100
AcDbEntity
  8
0
 62
     0
100
AcDbLine
 10
294.6371515703655
 20
123.3471762505217
 30
0.0
 11
295.9671105304123
 21
123.3471762505217
 31
0.0
  0
LINE
  5
43F3
330
43F0
100
AcDbEntity
  8
0
 62
     0
100
AcDbLine
 10
294.4671105304123
 20
125.8471762505217
 30
0.0
 11
294.4671105304123
 21
127.3471762505217
 31
0.0
  0
LINE
  5
43F4
330
43F0
100
AcDbEntity
  8
0
 62
     0
100
AcDbLine
 10
294.4671105304123
 20
121.8471762505217
 30
0.0
 11
294.4671105304123
 21
114.6248981229825
 31
0.0
  0
SOLID
  5
43F5
330
43F0
100
AcDbEntity
  8
0
 62
     0
100
AcDbTrace
 10
294.2171105304123
 20
125.8471762505217
 30
0.0
 11
294.7171105304123
 21
125.8471762505217
 31
0.0
 12
294.4671105304123
 22
124.3471762505217
 32
0.0
 13
294.4671105304123
 23
124.3471762505217
 33
0.0
  0
SOLID
  5
43F6
330
43F0
100
AcDbEntity
  8
0
 62
     0
100
AcDbTrace
 10
294.2171105304123
 20
121.8471762505217
 30
0.0
 11
294.7171105304123
 21
121.8471762505217
 31
0.0
 12
294.4671105304123
 22
123.3471762505217
 32
0.0
 13
294.4671105304123
 23
123.3471762505217
 33
0.0
  0
MTEXT
  5
43F7
330
43F0
100
AcDbEntity
  8
0
100
AcDbMText
 10
293.1271105304123
 20
117.4860371867522
 30
0.0
 40
2.5
 41
0.0
 71
     5
 72
     1
  1
\A1;0.5
  7
ROMANT
 11
0.0000000000000001
 21
1.0
 31
0.0
1001
ACAD
1000
MTEXTBEGIN
1070
    73
1070
     1
1070
    44
1040
1.0
1070
    74
1070
     0
1000
MTEXTEND
  0
POINT
  5
43F8
330
43F0
100
AcDbEntity
  8
DEFPOINTS
 62
     0
100
AcDbPoint
 10
294.4371515703655
 20
124.3471762505217
 30
0.0
  0
POINT
  5
43F9
330
43F0
100
AcDbEntity
  8
DEFPOINTS
 62
     0
100
AcDbPoint
 10
294.4371515703655
 20
123.3471762505217
 30
0.0
  0
POINT
  5
43FA
330
43F0
100
AcDbEntity
  8
DEFPOINTS
 62
     0
100
AcDbPoint
 10
294.4671105304123
 20
123.3471762505217
 30
0.0
  0
ENDBLK
  5
43FC
330
43F0
100
AcDbEntity
  8
0
100
AcDbBlockEnd
  0
BLOCK
  5
4404
330
43FE
100
AcDbEntity
  8
0
100
AcDbBlockBegin
  2
*D9
 70
     1
 10
0.0
 20
0.0
 30
0.0
  3
*D9
  1

  0
LINE
  5
43FF
330
43FE
100
AcDbEntity
  8
0
 62
     0
100
AcDbLine
 10
298.2087383438108
 20
109.0407214715806
 30
0.0
 11
302.5240062352506
 21
120.3576832158172
 31
0.0
  0
MTEXT
  5
4400
330
43FE
100
AcDbEntity
  8
0
100
AcDbMText
 10
298.8470924574252
 20
114.4758443535627
 30
0.0
 40
2.5
 41
0.0
 71
     5
 72
     1
  1
\A1;R12.1
  7
ROMANT
 11
0.3562869120464204
 21
0.9343766030377828
 31
0.0
1001
ACAD
1000
MTEXTBEGIN
1070
    73
1070
     1
1070
    44
1040
1.0
1070
    74
1070
     0
1000
MTEXTEND
  0
SOLID
  5
4401
330
43FE
100
AcDbEntity
  8
0
 62
     0
100
AcDbTrace
 10
302.2904120844912
 20
120.4467549438288
 30
0.0
 11
302.75760038601
 21
120.2686114878056
 31
0.0
 12
303.0584366033203
 22
121.7592481203739
 32
0.0
 13
303.0584366033203
 23
121.7592481203739
 33
0.0
  0
POINT
  5
4402
330
43FE
100
AcDbEntity
  8
DEFPOINTS
 62
     0
100
AcDbPoint
 10
303.0584366033203
 20
121.7592481203739
 30
0.0
  0
POINT
  5
4403
330
43FE
100
AcDbEntity
  8
DEFPOINTS
 62
     0
100
AcDbPoint
 10
294.4371515703652
 20
99.14958509165355
 30
0.0
  0
ENDBLK
  5
4405
330
43FE
100
AcDbEntity
  8
0
100
AcDbBlockEnd
  0
BLOCK
  5
440F
330
4407
100
AcDbEntity
  8
0
100
AcDbBlockBegin
  2
*D10
 70
     1
 10
0.0
 20
0.0
 30
0.0
  3
*D10
  1

  0
LINE
  5
4408
330
4407
100
AcDbEntity
  8
0
 62
     0
100
AcDbLine
 10
315.662108303567
 20
110.4588676250877
 30
0.0
 11
310.5156294215866
 21
119.2635548414849
 31
0.0
  0
MTEXT
  5
4409
330
4407
100
AcDbEntity
  8
0
100
AcDbMText
 10
314.6242111418805
 20
114.8899181206565
 30
0.0
 40
2.5
 41
0.0
 71
     5
 72
     1
  1
\A1;R2.0
  7
ROMANT
 11
0.5046325170916663
 21
-0.8633342473768369
 31
0.0
1001
ACAD
1000
MTEXTBEGIN
1070
    73
1070
     1
1070
    44
1040
1.0
1070
    74
1070
     0
1000
MTEXTEND
  0
SOLID
  5
440A
330
4407
100
AcDbEntity
  8
0
 62
     0
100
AcDbTrace
 10
310.7314629834308
 20
119.3897129707578
 30
0.0
 11
310.2997958597424
 21
119.137396712212
 31
0.0
 12
309.7586806459491
 22
120.5585562125502
 32
0.0
 13
309.7586806459491
 23
120.5585562125502
 33
0.0
  0
LINE
  5
440B
330
4407
100
AcDbEntity
  8
0
 62
     0
100
AcDbLine
 10
306.7401505775824
 20
124.0118932020575
 30
0.0
 11
308.7401505775824
 21
124.0118932020575
 31
0.0
  0
LINE
  5
440C
330
4407
100
AcDbEntity
  8
0
 62
     0
100
AcDbLine
 10
307.7401505775824
 20
123.0118932020575
 30
0.0
 11
307.7401505775824
 21
125.0118932020575
 31
0.0
  0
POINT
  5
440D
330
4407
100
AcDbEntity
  8
DEFPOINTS
 62
     0
100
AcDbPoint
 10
309.7586806459491
 20
120.5585562125502
 30
0.0
  0
POINT
  5
440E
330
4407
100
AcDbEntity
  8
DEFPOINTS
 62
     0
100
AcDbPoint
 10
307.7401505775824
 20
124.0118932020575
 30
0.0
  0
ENDBLK
  5
4410
330
4407
100
AcDbEntity
  8
0
100
AcDbBlockEnd
  0
BLOCK
  5
441A
330
4412
100
AcDbEntity
  8
0
100
AcDbBlockBegin
  2
*D11
 70
     1
 10
0.0
 20
0.0
 30
0.0
  3
*D11
  1

  0
LINE
  5
4413
330
4412
100
AcDbEntity
  8
0
 62
     0
100
AcDbLine
 10
270.0758563667463
 20
114.7661713204507
 30
0.0
 11
278.3653767028446
 21
120.7215911141429
 31
0.0
  0
MTEXT
  5
4414
330
4412
100
AcDbEntity
  8
0
100
AcDbMText
 10
272.8296710321483
 20
118.3945505716279
 30
0.0
 40
2.5
 41
0.0
 71
     5
 72
     1
  1
\A1;R1.5
  7
ROMANT
 11
0.8121394604932199
 21
0.5834633636397247
 31
0.0
1001
ACAD
1000
MTEXTBEGIN
1070
    73
1070
     1
1070
    44
1040
1.0
1070
    74
1070
     0
1000
MTEXTEND
  0
SOLID
  5
4415
330
4412
100
AcDbEntity
  8
0
 62
     0
100
AcDbTrace
 10
278.2195108619347
 20
120.9246259792662
 30
0.0
 11
278.5112425437545
 21
120.5185562490196
 31
0.0
 12
279.5835858935844
 22
121.5967861596025
 32
0.0
 13
279.5835858935844
 23
121.5967861596025
 33
0.0
  0
LINE
  5
4416
330
4412
100
AcDbEntity
  8
0
 62
     0
100
AcDbLine
 10
281.0200042750641
 20
123.3471762505217
 30
0.0
 11
283.0200042750641
 21
123.3471762505217
 31
0.0
  0
LINE
  5
4417
330
4412
100
AcDbEntity
  8
0
 62
     0
100
AcDbLine
 10
282.0200042750641
 20
122.3471762505217
 30
0.0
 11
282.0200042750641
 21
124.3471762505217
 31
0.0
  0
POINT
  5
4418
330
4412
100
AcDbEntity
  8
DEFPOINTS
 62
     0
100
AcDbPoint
 10
279.5835858935844
 20
121.5967861596025
 30
0.0
  0
POINT
  5
4419
330
4412
100
AcDbEntity
  8
DEFPOINTS
 62
     0
100
AcDbPoint
 10
282.0200042750641
 20
123.3471762505217
 30
0.0
  0
ENDBLK
  5
441B
330
4412
100
AcDbEntity
  8
0
100
AcDbBlockEnd
  0
BLOCK
  5
4468
330
445C
100
AcDbEntity
  8
0
100
AcDbBlockBegin
  2
*D12
 70
     1
 10
0.0
 20
0.0
 30
0.0
  3
*D12
  1

  0
LINE
  5
445D
330
445C
100
AcDbEntity
  8
0
 62
     0
100
AcDbLine
 10
334.8200042750641
 20
136.9471762505217
 30
0.0
 11
330.3710231656359
 21
136.9471762505217
 31
0.0
  0
LINE
  5
445E
330
445C
100
AcDbEntity
  8
0
 62
     0
100
AcDbLine
 10
356.5918714993426
 20
122.4983423061366
 30
0.0
 11
358.5247555249899
 21
116.991904719079
 31
0.0
  0
ARC
  5
445F
330
445C
100
AcDbEntity
  8
0
 62
     0
100
AcDbCircle
 10
351.520004275064
 20
136.9471762505217
 30
0.0
 40
19.64898110942804
100
AcDbArc
 50
184.3750132208521
 51
284.9672128095414
  0
SOLID
  5
4460
330
445C
100
AcDbEntity
  8
0
 62
     0
100
AcDbTrace
 10
331.6784602270225
 20
135.4387268762726
 30
0.0
 11
332.1780958585959
 21
135.4578118353304
 31
0.0
 12
331.871023165636
 22
136.9471762505217
 32
0.0
 13
331.871023165636
 23
136.9471762505217
 33
0.0
  0
SOLID
  5
4461
330
445C
100
AcDbEntity
  8
0
 62
     0
100
AcDbTrace
 10
356.5209348302786
 20
118.2036888179706
 30
0.0
 11
356.6684113332112
 21
117.7259329377528
 31
0.0
 12
358.0279407223985
 22
118.4072403866597
 32
0.0
 13
358.0279407223985
 23
118.4072403866597
 33
0.0
  0
MTEXT
  5
4462
330
445C
100
AcDbEntity
  8
0
100
AcDbMText
 10
340.9324876118061
 20
122.0098645723571
 30
0.0
 40
2.5
 41
0.0
 71
     5
 72
     1
  1
\A1;109
  7
ROMANT
 11
0.8158461461557052
 21
-0.5782690254569096
 31
0.0
1001
ACAD
1000
MTEXTBEGIN
1070
    73
1070
     1
1070
    44
1040
1.0
1070
    74
1070
     0
1000
MTEXTEND
  0
POINT
  5
4463
330
445C
100
AcDbEntity
  8
DEFPOINTS
 62
     0
100
AcDbPoint
 10
335.7143146532216
 20
125.2740175427579
 30
0.0
  0
POINT
  5
4464
330
445C
100
AcDbEntity
  8
DEFPOINTS
 62
     0
100
AcDbPoint
 10
335.020004275064
 20
136.9471762505217
 30
0.0
  0
POINT
  5
4465
330
445C
100
AcDbEntity
  8
DEFPOINTS
 62
     0
100
AcDbPoint
 10
351.520004275064
 20
136.9471762505217
 30
0.0
  0
POINT
  5
4466
330
445C
100
AcDbEntity
  8
DEFPOINTS
 62
     0
100
AcDbPoint
 10
356.5256295256638
 20
122.6870537284806
 30
0.0
  0
POINT
  5
4467
330
445C
100
AcDbEntity
  8
DEFPOINTS
 62
     0
100
AcDbPoint
 10
351.520004275064
 20
136.9471762505217
 30
0.0
  0
ENDBLK
  5
4469
330
445C
100
AcDbEntity
  8
0
100
AcDbBlockEnd
  0
BLOCK
  5
4475
330
446B
100
AcDbEntity
  8
0
100
AcDbBlockBegin
  2
*D13
 70
     1
 10
0.0
 20
0.0
 30
0.0
  3
*D13
  1

  0
LINE
  5
446C
330
446B
100
AcDbEntity
  8
0
 62
     0
100
AcDbLine
 10
334.0200042750641
 20
163.3471762505217
 30
0.0
 11
285.9547582497864
 21
163.3471762505217
 31
0.0
  0
LINE
  5
446D
330
446B
100
AcDbEntity
  8
0
 62
     0
100
AcDbLine
 10
351.3200042750641
 20
136.9471762505217
 30
0.0
 11
285.9547582497864
 21
136.9471762505217
 31
0.0
  0
LINE
  5
446E
330
446B
100
AcDbEntity
  8
0
 62
     0
100
AcDbLine
 10
287.4547582497864
 20
161.8471762505217
 30
0.0
 11
287.4547582497864
 21
138.4471762505217
 31
0.0
  0
SOLID
  5
446F
330
446B
100
AcDbEntity
  8
0
 62
     0
100
AcDbTrace
 10
287.2047582497864
 20
161.8471762505217
 30
0.0
 11
287.7047582497864
 21
161.8471762505217
 31
0.0
 12
287.4547582497864
 22
163.3471762505217
 32
0.0
 13
287.4547582497864
 23
163.3471762505217
 33
0.0
  0
SOLID
  5
4470
330
446B
100
AcDbEntity
  8
0
 62
     0
100
AcDbTrace
 10
287.2047582497864
 20
138.4471762505217
 30
0.0
 11
287.7047582497864
 21
138.4471762505217
 31
0.0
 12
287.4547582497864
 22
136.9471762505217
 32
0.0
 13
287.4547582497864
 23
136.9471762505217
 33
0.0
  0
MTEXT
  5
4471
330
446B
100
AcDbEntity
  8
0
100
AcDbMText
 10
286.1147582497864
 20
150.1471762505217
 30
0.0
 40
2.5
 41
0.0
 71
     5
 72
     1
  1
\A1;13.2
  7
ROMANT
 11
0.0000000000000001
 21
1.0
 31
0.0
1001
ACAD
1000
MTEXTBEGIN
1070
    73
1070
     1
1070
    44
1040
1.0
1070
    74
1070
     0
1000
MTEXTEND
  0
POINT
  5
4472
330
446B
100
AcDbEntity
  8
DEFPOINTS
 62
     0
100
AcDbPoint
 10
334.220004275064
 20
163.3471762505217
 30
0.0
  0
POINT
  5
4473
330
446B
100
AcDbEntity
  8
DEFPOINTS
 62
     0
100
AcDbPoint
 10
351.520004275064
 20
136.9471762505217
 30
0.0
  0
POINT
  5
4474
330
446B
100
AcDbEntity
  8
DEFPOINTS
 62
     0
100
AcDbPoint
 10
287.4547582497864
 20
136.9471762505217
 30
0.0
  0
ENDBLK
  5
4476
330
446B
100
AcDbEntity
  8
0
100
AcDbBlockEnd
  0
BLOCK
  5
448B
330
4485
100
AcDbEntity
  8
0
100
AcDbBlockBegin
  2
*D14
 70
     1
 10
0.0
 20
0.0
 30
0.0
  3
*D14
  1

  0
LINE
  5
4486
330
4485
100
AcDbEntity
  8
0
 62
     0
100
AcDbLine
 10
290.8170508209463
 20
107.2804645000873
 30
0.0
 11
284.7984728934245
 21
120.798411851909
 31
0.0
  0
MTEXT
  5
4487
330
4485
100
AcDbEntity
  8
0
100
AcDbMText
 10
289.7815112971204
 20
112.9008394211006
 30
0.0
 40
2.5
 41
0.0
 71
     5
 72
     1
  1
\A1;R12.6
  7
ROMANT
 11
0.4067366430758065
 21
-0.9135454576425981
 31
0.0
1001
ACAD
1000
MTEXTBEGIN
1070
    73
1070
     1
1070
    44
1040
1.0
1070
    74
1070
     0
1000
MTEXTEND
  0
SOLID
  5
4488
330
4485
100
AcDbEntity
  8
0
 62
     0
100
AcDbTrace
 10
285.0268592578352
 20
120.9000960126779
 30
0.0
 11
284.5700865290138
 21
120.69672769114
 31
0.0
 12
284.1883679288108
 22
122.1687300383728
 32
0.0
 13
284.1883679288108
 23
122.1687300383728
 33
0.0
  0
POINT
  5
4489
330
4485
100
AcDbEntity
  8
DEFPOINTS
 62
     0
100
AcDbPoint
 10
284.1883679288108
 20
122.1687300383728
 30
0.0
  0
POINT
  5
448A
330
4485
100
AcDbEntity
  8
DEFPOINTS
 62
     0
100
AcDbPoint
 10
294.4371515703656
 20
99.14958509165357
 30
0.0
  0
ENDBLK
  5
448C
330
4485
100
AcDbEntity
  8
0
100
AcDbBlockEnd
  0
ENDSEC
  0
SECTION
  2
ENTITIES
  0
TEXT
  5
7E
330
2
100
AcDbEntity
  8
ANA
 62
   220
100
AcDbText
 10
127.4678932372032
 20
64.00710211675894
 30
0.0
 40
2.0
  1

  7
ROMANT
100
AcDbText
  0
MTEXT
  5
CA
330
2
100
AcDbEntity
  8
ANA
100
AcDbMText
 10
100.7434285720723
 20
96.78094278396756
 30
0.0
 40
1.5
 41
0.0
 71
     7
 72
     1
  1

  7
ROMANT
1001
ACAD
1000
MTEXTBEGIN
1070
    73
1070
     1
1070
    44
1040
1.0
1070
    74
1070
     0
1000
MTEXTEND
  0
MTEXT
  5
CC
330
2
100
AcDbEntity
  8
ANA
100
AcDbMText
 10
99.06342857207235
 20
96.78094278396756
 30
0.0
 40
1.5
 41
0.0
 71
     9
 72
     1
  1

  7
ROMANT
1001
ACAD
1000
MTEXTBEGIN
1070
    73
1070
     1
1070
    44
1040
1.0
1070
    74
1070
     0
1000
MTEXTEND
  0
TEXT
  5
815
330
2
100
AcDbEntity
  8
ANA
 62
     7
100
AcDbText
 10
63.84626493600369
 20
31.34563671656074
 30
0.0
 40
1.6
  1

  7
ROMANT
100
AcDbText
  0
POLYLINE
  5
4364
330
2
100
AcDbEntity
  8
ANA
 62
     7
100
AcDb2dPolyline
 66
     1
 10
0.0
 20
0.0
 30
0.0
 70
     1
  0
VERTEX
  5
44E4
330
4364
100
AcDbEntity
  8
ANA
 62
     7
100
AcDbVertex
100
AcDb2dVertex
 10
390.4392972928273
 20
211.3753351600736
 30
0.0
  0
VERTEX
  5
44E5
330
4364
100
AcDbEntity
  8
ANA
 62
     7
100
AcDbVertex
100
AcDb2dVertex
 10
391.1660655699148
 20
211.0016928209655
 30
0.0
  0
VERTEX
  5
44E6
330
4364
100
AcDbEntity
  8
ANA
 62
     7
100
AcDbVertex
100
AcDb2dVertex
 10
391.7418014430732
 20
211.5816315509306
 30
0.0
  0
VERTEX
  5
44E7
330
4364
100
AcDbEntity
  8
ANA
 62
     7
100
AcDbVertex
100
AcDb2dVertex
 10
392.4255321479771
 20
211.1340680924954
 30
0.0
  0
VERTEX
  5
44E8
330
4364
100
AcDbEntity
  8
ANA
 62
     7
100
AcDbVertex
100
AcDb2dVertex
 10
393.0587341840147
 20
211.6506490713486
 30
0.0
  0
VERTEX
  5
44E9
330
4364
100
AcDbEntity
  8
ANA
 62
     7
100
AcDbVertex
100
AcDb2dVertex
 10
393.6919362200523
 20
211.1340680924954
 30
0.0
  0
VERTEX
  5
44EA
330
4364
100
AcDbEntity
  8
ANA
 62
     7
100
AcDbVertex
100
AcDb2dVertex
 10
394.3756669249563
 20
211.5816315509307
 30
0.0
  0
VERTEX
  5
44EB
330
4364
100
AcDbEntity
  8
ANA
 62
     7
100
AcDbVertex
100
AcDb2dVertex
 10
394.9514027981147
 20
211.0016928209655
 30
0.0
  0
VERTEX
  5
44EC
330
4364
100
AcDbEntity
  8
ANA
 62
     7
100
AcDbVertex
100
AcDb2dVertex
 10
395.6781710752022
 20
211.3753351600736
 30
0.0
  0
VERTEX
  5
44ED
330
4364
100
AcDbEntity
  8
ANA
 62
     7
100
AcDbVertex
100
AcDb2dVertex
 10
396.1901329027745
 20
210.7383926090818
 30
0.0
  0
VERTEX
  5
44EE
330
4364
100
AcDbEntity
  8
ANA
 62
     7
100
AcDbVertex
100
AcDb2dVertex
 10
396.9519761267158
 20
211.0340201252058
 30
0.0
  0
VERTEX
  5
44EF
330
4364
100
AcDbEntity
  8
ANA
 62
     7
100
AcDbVertex
100
AcDb2dVertex
 10
397.3945547477843
 20
210.347052229065
 30
0.0
  0
VERTEX
  5
44F0
330
4364
100
AcDbEntity
  8
ANA
 62
     7
100
AcDbVertex
100
AcDb2dVertex
 10
398.183126004792
 20
210.5614259652741
 30
0.0
  0
VERTEX
  5
44F1
330
4364
100
AcDbEntity
  8
ANA
 62
     7
100
AcDbVertex
100
AcDb2dVertex
 10
398.5514724353686
 20
209.8319592880116
 30
0.0
 42
-0.0007195754061294
  0
VERTEX
  5
44F2
330
4364
100
AcDbEntity
  8
ANA
 62
     7
100
AcDbVertex
100
AcDb2dVertex
 10
398.5824780305939
 20
209.8161049006429
 30
0.0
 42
0.9939079606728473
  0
VERTEX
  5
44F3
330
4364
100
AcDbEntity
  8
ANA
 62
     7
100
AcDbVertex
100
AcDb2dVertex
 10
399.9683959050816
 20
212.4767243004791
 30
0.0
 42
-0.1448424968652884
  0
VERTEX
  5
44F4
330
4364
100
AcDbEntity
  8
ANA
 62
     7
100
AcDbVertex
100
AcDb2dVertex
 10
392.6640550285597
 20
219.6167479484026
 30
0.0
 42
0.2744335815655669
  0
VERTEX
  5
44F5
330
4364
100
AcDbEntity
  8
ANA
 62
     7
100
AcDbVertex
100
AcDb2dVertex
 10
373.2673078316654
 20
231.1506490713485
 30
0.0
 42
0.2744335815655669
  0
VERTEX
  5
44F6
330
4364
100
AcDbEntity
  8
ANA
 62
     7
100
AcDbVertex
100
AcDb2dVertex
 10
353.870560634771
 20
219.6167479484026
 30
0.0
 42
-0.1448424968652884
  0
VERTEX
  5
44F7
330
4364
100
AcDbEntity
  8
ANA
 62
     7
100
AcDbVertex
100
AcDb2dVertex
 10
346.5662197582493
 20
212.4767243004791
 30
0.0
 42
0.9939079606728473
  0
VERTEX
  5
44F8
330
4364
100
AcDbEntity
  8
ANA
 62
     7
100
AcDbVertex
100
AcDb2dVertex
 10
347.9521376327369
 20
209.8161049006429
 30
0.0
 42
-0.0007195754061295
  0
VERTEX
  5
44F9
330
4364
100
AcDbEntity
  8
ANA
 62
     7
100
AcDbVertex
100
AcDb2dVertex
 10
347.9831432279622
 20
209.8319592880116
 30
0.0
  0
VERTEX
  5
44FA
330
4364
100
AcDbEntity
  8
ANA
 62
     7
100
AcDbVertex
100
AcDb2dVertex
 10
348.3514896585388
 20
210.5614259652741
 30
0.0
  0
VERTEX
  5
44FB
330
4364
100
AcDbEntity
  8
ANA
 62
     7
100
AcDbVertex
100
AcDb2dVertex
 10
349.1400609155465
 20
210.347052229065
 30
0.0
  0
VERTEX
  5
44FC
330
4364
100
AcDbEntity
  8
ANA
 62
     7
100
AcDbVertex
100
AcDb2dVertex
 10
349.582639536615
 20
211.0340201252058
 30
0.0
  0
VERTEX
  5
44FD
330
4364
100
AcDbEntity
  8
ANA
 62
     7
100
AcDbVertex
100
AcDb2dVertex
 10
350.3444827605564
 20
210.7383926090818
 30
0.0
  0
VERTEX
  5
44FE
330
4364
100
AcDbEntity
  8
ANA
 62
     7
100
AcDbVertex
100
AcDb2dVertex
 10
350.8564445881286
 20
211.3753351600736
 30
0.0
  0
VERTEX
  5
44FF
330
4364
100
AcDbEntity
  8
ANA
 62
     7
100
AcDbVertex
100
AcDb2dVertex
 10
351.5832128652161
 20
211.0016928209655
 30
0.0
  0
VERTEX
  5
4500
330
4364
100
AcDbEntity
  8
ANA
 62
     7
100
AcDbVertex
100
AcDb2dVertex
 10
352.1589487383745
 20
211.5816315509307
 30
0.0
  0
VERTEX
  5
4501
330
4364
100
AcDbEntity
  8
ANA
 62
     7
100
AcDbVertex
100
AcDb2dVertex
 10
352.8426794432785
 20
211.1340680924954
 30
0.0
  0
VERTEX
  5
4502
330
4364
100
AcDbEntity
  8
ANA
 62
     7
100
AcDbVertex
100
AcDb2dVertex
 10
353.4758814793161
 20
211.6506490713486
 30
0.0
  0
VERTEX
  5
4503
330
4364
100
AcDbEntity
  8
ANA
 62
     7
100
AcDbVertex
100
AcDb2dVertex
 10
354.1090835153537
 20
211.1340680924954
 30
0.0
  0
VERTEX
  5
4504
330
4364
100
AcDbEntity
  8
ANA
 62
     7
100
AcDbVertex
100
AcDb2dVertex
 10
354.7928142202577
 20
211.5816315509306
 30
0.0
  0
VERTEX
  5
4505
330
4364
100
AcDbEntity
  8
ANA
 62
     7
100
AcDbVertex
100
AcDb2dVertex
 10
355.368550093416
 20
211.0016928209655
 30
0.0
  0
VERTEX
  5
4506
330
4364
100
AcDbEntity
  8
ANA
 62
     7
100
AcDbVertex
100
AcDb2dVertex
 10
356.0953183705036
 20
211.3753351600736
 30
0.0
  0
VERTEX
  5
4507
330
4364
100
AcDbEntity
  8
ANA
 62
     7
100
AcDbVertex
100
AcDb2dVertex
 10
356.6072801980758
 20
210.7383926090819
 30
0.0
  0
VERTEX
  5
4508
330
4364
100
AcDbEntity
  8
ANA
 62
     7
100
AcDbVertex
100
AcDb2dVertex
 10
357.3691234220172
 20
211.0340201252058
 30
0.0
  0
VERTEX
  5
4509
330
4364
100
AcDbEntity
  8
ANA
 62
     7
100
AcDbVertex
100
AcDb2dVertex
 10
357.8117020430856
 20
210.347052229065
 30
0.0
  0
VERTEX
  5
450A
330
4364
100
AcDbEntity
  8
ANA
 62
     7
100
AcDbVertex
100
AcDb2dVertex
 10
358.6002733000934
 20
210.5614259652741
 30
0.0
  0
VERTEX
  5
450B
330
4364
100
AcDbEntity
  8
ANA
 62
     7
100
AcDbVertex
100
AcDb2dVertex
 10
358.96861973067
 20
209.8319592880116
 30
0.0
 42
-0.0050168287683168
  0
VERTEX
  5
450C
330
4364
100
AcDbEntity
  8
ANA
 62
     7
100
AcDbVertex
100
AcDb2dVertex
 10
359.1838252775975
 20
209.7195726515378
 30
0.0
 42
0.4599884534370337
  0
VERTEX
  5
450D
330
4364
100
AcDbEntity
  8
ANA
 62
     7
100
AcDbVertex
100
AcDb2dVertex
 10
362.0144952063656
 20
210.820587810328
 30
0.0
  0
VERTEX
  5
450E
330
4364
100
AcDbEntity
  8
ANA
 62
     7
100
AcDbVertex
100
AcDb2dVertex
 10
364.5173078316654
 20
217.9506490713486
 30
0.0
  0
VERTEX
  5
450F
330
4364
100
AcDbEntity
  8
ANA
 62
     7
100
AcDbVertex
100
AcDb2dVertex
 10
372.7673078316654
 20
217.9506490713486
 30
0.0
  0
VERTEX
  5
4510
330
4364
100
AcDbEntity
  8
ANA
 62
     7
100
AcDbVertex
100
AcDb2dVertex
 10
373.2673078316654
 20
218.4506490713486
 30
0.0
  0
VERTEX
  5
4511
330
4364
100
AcDbEntity
  8
ANA
 62
     7
100
AcDbVertex
100
AcDb2dVertex
 10
373.7673078316654
 20
217.9506490713486
 30
0.0
  0
VERTEX
  5
4512
330
4364
100
AcDbEntity
  8
ANA
 62
     7
100
AcDbVertex
100
AcDb2dVertex
 10
382.0173078316654
 20
217.9506490713485
 30
0.0
  0
VERTEX
  5
4513
330
4364
100
AcDbEntity
  8
ANA
 62
     7
100
AcDbVertex
100
AcDb2dVertex
 10
384.5201204569653
 20
210.820587810328
 30
0.0
 42
0.4599884534370282
  0
VERTEX
  5
4514
330
4364
100
AcDbEntity
  8
ANA
 62
     7
100
AcDbVertex
100
AcDb2dVertex
 10
387.3507903857333
 20
209.7195726515378
 30
0.0
 42
-0.0050168287683174
  0
VERTEX
  5
4515
330
4364
100
AcDbEntity
  8
ANA
 62
     7
100
AcDbVertex
100
AcDb2dVertex
 10
387.5659959326608
 20
209.8319592880116
 30
0.0
  0
VERTEX
  5
4516
330
4364
100
AcDbEntity
  8
ANA
 62
     7
100
AcDbVertex
100
AcDb2dVertex
 10
387.9343423632374
 20
210.5614259652741
 30
0.0
  0
VERTEX
  5
4517
330
4364
100
AcDbEntity
  8
ANA
 62
     7
100
AcDbVertex
100
AcDb2dVertex
 10
388.7229136202451
 20
210.347052229065
 30
0.0
  0
VERTEX
  5
4518
330
4364
100
AcDbEntity
  8
ANA
 62
     7
100
AcDbVertex
100
AcDb2dVertex
 10
389.1654922413136
 20
211.0340201252058
 30
0.0
  0
VERTEX
  5
4519
330
4364
100
AcDbEntity
  8
ANA
 62
     7
100
AcDbVertex
100
AcDb2dVertex
 10
389.927335465255
 20
210.7383926090818
 30
0.0
  0
SEQEND
  5
451A
330
4364
100
AcDbEntity
  8
ANA
 62
     7
  0
ENDSEC
  0
SECTION
  2
OBJECTS
  0
DICTIONARY
  5
44D
330
0
100
AcDbDictionary
  3
ACAD_GROUP
350
44B
  3
ACAD_LAYOUT
350
3D82
  3
ACAD_MLINESTYLE
350
44C
  3
ACAD_PLOTSETTINGS
350
3D83
1001
ACAD
1000
TREAT_AS_HARD
1070
     0
  0
DICTIONARY
  5
409B
330
441
100
AcDbDictionary
  3
ACAD_LAYERFILTERS
350
409C
1001
ACAD
1000
TREAT_AS_HARD
1070
     1
  0
DICTIONARY
  5
44E0
330
2
100
AcDbDictionary
  3
ACAD_LAYOUTSELFREF
350
44E1
  0
DICTIONARY
  5
44E2
330
E3
100
AcDbDictionary
  3
ACAD_LAYOUTSELFREF
350
44E3
  0
DICTIONARY
  5
44B
102
{ACAD_REACTORS
330
44D
102
}
330
44D
100
AcDbDictionary
1001
ACAD
1000
TREAT_AS_HARD
1070
     0
  0
DICTIONARY
  5
3D82
102
{ACAD_REACTORS
330
44D
102
}
330
44D
100
AcDbDictionary
1001
ACAD
1000
TREAT_AS_HARD
1070
     0
  0
DICTIONARY
  5
44C
102
{ACAD_REACTORS
330
44D
102
}
330
44D
100
AcDbDictionary
  3
STANDARD
350
44E
1001
ACAD
1000
TREAT_AS_HARD
1070
     0
  0
DICTIONARY
  5
3D83
102
{ACAD_REACTORS
330
44D
102
}
330
44D
100
AcDbDictionary
1001
ACAD
1000
TREAT_AS_HARD
1070
     0
  0
DICTIONARY
  5
409C
102
{ACAD_REACTORS
330
409B
102
}
330
409B
100
AcDbDictionary
  3
1
350
409D
  3
2
350
409E
  3
245
350
409F
  3
OFF
350
40A0
  3
ON
350
40A1
1001
ACAD
1000
TREAT_AS_HARD
1070
     1
  0
XRECORD
  5
44E1
102
{ACAD_REACTORS
330
44E0
102
}
330
44E0
100
AcDbXrecord
340
2
  0
XRECORD
  5
44E3
102
{ACAD_REACTORS
330
44E2
102
}
330
44E2
100
AcDbXrecord
340
E3
  0
MLINESTYLE
  5
44E
102
{ACAD_REACTORS
330
44C
102
}
330
44C
100
AcDbMlineStyle
  2
STANDARD
 70
     0
  3

 62
     0
 51
90.0
 52
90.0
 71
     2
 49
0.5
 62
   256
  6
BYLAYER
 49
-0.5
 62
   256
  6
BYLAYER
  0
XRECORD
  5
409D
102
{ACAD_REACTORS
330
409C
102
}
330
409C
100
AcDbXrecord
  1
1
  1
*
  1
*
  1
*
 70
    12
  1
*
  1
*
  0
XRECORD
  5
409E
102
{ACAD_REACTORS
330
409C
102
}
330
409C
100
AcDbXrecord
  1
2
  1
*
  1
*
  1
*
 70
     4
  1
*
  1
*
  0
XRECORD
  5
409F
102
{ACAD_REACTORS
330
409C
102
}
330
409C
100
AcDbXrecord
  1
245
  1
*
  1
245
  1
*
 70
     0
  1
*
  1
*
  0
XRECORD
  5
40A0
102
{ACAD_REACTORS
330
409C
102
}
330
409C
100
AcDbXrecord
  1
off
  1
*
  1
*
  1
*
 70
     3
  1
*
  1
*
  0
XRECORD
  5
40A1
102
{ACAD_REACTORS
330
409C
102
}
330
409C
100
AcDbXrecord
  1
on
  1
*
  1
*
  1
*
 70
     1
  1
*
  1
*
  0
ENDSEC
  0
EOF
