  0
SECTION
  2
HEADER
  9
$ACADVER
  1
AC1009
  9
$INSBASE
 10
0.0
 20
0.0
 30
0.0
  9
$EXTMIN
 10
2078.7889274351450695
 20
1802.8840026624980055
 30
0.0
  9
$EXTMAX
 10
2109.8959636532040349
 20
1852.5341681647848873
 30
0.0
  9
$LIMMIN
 10
0.0
 20
0.0
  9
$LIMMAX
 10
420.0
 20
297.0
  9
$ORTHOMODE
 70
     0
  9
$REGENMODE
 70
     1
  9
$FILLMODE
 70
     1
  9
$QTEXTMODE
 70
     0
  9
$MIRRTEXT
 70
     0
  9
$DRAGMODE
 70
     2
  9
$LTSCALE
 40
1.0
  9
$OSMODE
 70
  4095
  9
$ATTMODE
 70
     1
  9
$TEXTSIZE
 40
2.5
  9
$TRACEWID
 40
1.0
  9
$TEXTSTYLE
  7
STANDARD
  9
$CLAYER
  8
0
  9
$CELTYPE
  6
BYLAYER
  9
$CECOLOR
 62
   256
  9
$DIMSCALE
 40
1.0
  9
$DIMASZ
 40
2.5
  9
$DIMEXO
 40
0.625
  9
$DIMDLI
 40
3.75
  9
$DIMRND
 40
0.0
  9
$DIMDLE
 40
0.0
  9
$DIMEXE
 40
1.25
  9
$DIMTP
 40
0.0
  9
$DIMTM
 40
0.0
  9
$DIMTXT
 40
2.5
  9
$DIMCEN
 40
2.5
  9
$DIMTSZ
 40
0.0
  9
$DIMTOL
 70
     0
  9
$DIMLIM
 70
     0
  9
$DIMTIH
 70
     0
  9
$DIMTOH
 70
     0
  9
$DIMSE1
 70
     0
  9
$DIMSE2
 70
     0
  9
$DIMTAD
 70
     1
  9
$DIMZIN
 70
     8
  9
$DIMBLK
  1

  9
$DIMASO
 70
     1
  9
$DIMSHO
 70
     1
  9
$DIMPOST
  1

  9
$DIMAPOST
  1

  9
$DIMALT
 70
     0
  9
$DIMALTD
 70
     3
  9
$DIMALTF
 40
0.03937007874016
  9
$DIMLFAC
 40
1.0
  9
$DIMTOFL
 70
     1
  9
$DIMTVP
 40
0.0
  9
$DIMTIX
 70
     0
  9
$DIMSOXD
 70
     0
  9
$DIMSAH
 70
     0
  9
$DIMBLK1
  1

  9
$DIMBLK2
  1

  9
$DIMSTYLE
  2
ISO-25
  9
$DIMCLRD
 70
     0
  9
$DIMCLRE
 70
     0
  9
$DIMCLRT
 70
     0
  9
$DIMTFAC
 40
1.0
  9
$DIMGAP
 40
0.625
  9
$LUNITS
 70
     2
  9
$LUPREC
 70
     4
  9
$SKETCHINC
 40
1.0
  9
$FILLETRAD
 40
0.0
  9
$AUNITS
 70
     0
  9
$AUPREC
 70
     0
  9
$MENU
  1
.
  9
$ELEVATION
 40
0.0
  9
$PELEVATION
 40
0.0
  9
$THICKNESS
 40
0.0
  9
$LIMCHECK
 70
     0
  9
$BLIPMODE
 70
     0
  9
$CHAMFERA
 40
0.0
  9
$CHAMFERB
 40
0.0
  9
$SKPOLY
 70
     0
  9
$TDCREATE
 40
2458449.4426504629664123
  9
$TDUPDATE
 40
2458449.4427662040106952
  9
$TDINDWG
 40
0.0001157407
  9
$TDUSRTIMER
 40
0.0001157407
  9
$USRTIMER
 70
     1
  9
$ANGBASE
 50
0.0
  9
$ANGDIR
 70
     0
  9
$PDMODE
 70
     0
  9
$PDSIZE
 40
0.0
  9
$PLINEWID
 40
0.0
  9
$COORDS
 70
     1
  9
$SPLFRAME
 70
     0
  9
$SPLINETYPE
 70
     6
  9
$SPLINESEGS
 70
     8
  9
$ATTDIA
 70
     1
  9
$ATTREQ
 70
     1
  9
$HANDLING
 70
     1
  9
$HANDSEED
  5
496
  9
$SURFTAB1
 70
     6
  9
$SURFTAB2
 70
     6
  9
$SURFTYPE
 70
     6
  9
$SURFU
 70
     6
  9
$SURFV
 70
     6
  9
$UCSNAME
  2

  9
$UCSORG
 10
0.0
 20
0.0
 30
0.0
  9
$UCSXDIR
 10
1.0
 20
0.0
 30
0.0
  9
$UCSYDIR
 10
0.0
 20
1.0
 30
0.0
  9
$PUCSNAME
  2

  9
$PUCSORG
 10
0.0
 20
0.0
 30
0.0
  9
$PUCSXDIR
 10
1.0
 20
0.0
 30
0.0
  9
$PUCSYDIR
 10
0.0
 20
1.0
 30
0.0
  9
$USERI1
 70
     0
  9
$USERI2
 70
     0
  9
$USERI3
 70
     0
  9
$USERI4
 70
     0
  9
$USERI5
 70
     0
  9
$USERR1
 40
0.0
  9
$USERR2
 40
0.0
  9
$USERR3
 40
0.0
  9
$USERR4
 40
0.0
  9
$USERR5
 40
0.0
  9
$WORLDVIEW
 70
     1
  9
$SHADEDGE
 70
     3
  9
$SHADEDIF
 70
    70
  9
$TILEMODE
 70
     1
  9
$MAXACTVP
 70
    64
  9
$PLIMCHECK
 70
     0
  9
$PEXTMIN
 10
0.0
 20
0.0
 30
0.0
  9
$PEXTMAX
 10
0.0
 20
0.0
 30
0.0
  9
$PLIMMIN
 10
0.0
 20
0.0
  9
$PLIMMAX
 10
12.0
 20
9.0
  9
$UNITMODE
 70
     0
  9
$VISRETAIN
 70
     1
  9
$PLINEGEN
 70
     0
  9
$PSLTSCALE
 70
     1
  0
ENDSEC
  0
SECTION
  2
TABLES
  0
TABLE
  2
VPORT
 70
     1
  0
VPORT
  2
*ACTIVE
 70
     0
 10
0.0
 20
0.0
 11
1.0
 21
1.0
 12
2094.3424455441750069
 22
1827.7090854136420148
 13
0.0
 23
0.0
 14
10.0
 24
10.0
 15
10.0
 25
10.0
 16
0.0
 26
0.0
 36
1.0
 17
0.0
 27
0.0
 37
0.0
 40
50.0244129809477727
 41
2.2150943396226408
 42
50.0
 43
0.0
 44
0.0
 50
0.0
 51
0.0
 71
     0
 72
  1000
 73
     1
 74
     3
 75
     0
 76
     1
 77
     0
 78
     0
  0
ENDTAB
  0
TABLE
  2
LTYPE
 70
     1
  0
LTYPE
  2
CONTINUOUS
 70
     0
  3
Solid line
 72
    65
 73
     0
 40
0.0
  0
ENDTAB
  0
TABLE
  2
LAYER
 70
     1
  0
LAYER
  2
0
 70
     0
 62
     7
  6
CONTINUOUS
  0
ENDTAB
  0
TABLE
  2
STYLE
 70
     3
  0
STYLE
  2
STANDARD
 70
     0
 40
0.0
 41
1.0
 50
0.0
 71
     0
 42
2.5
  3
txt
  4

  0
STYLE
  2
ANNOTATIVE
 70
     0
 40
0.0
 41
1.0
 50
0.0
 71
     0
 42
2.5
  3
txt
  4

  0
STYLE
  2
ROMANT
 70
     0
 40
2.5
 41
1.0
 50
15.0
 71
     0
 42
2.5
  3
romant.shx
  4

  0
ENDTAB
  0
TABLE
  2
VIEW
 70
     1
  0
ENDTAB
  0
TABLE
  2
UCS
 70
     0
  0
ENDTAB
  0
TABLE
  2
APPID
 70
    10
  0
APPID
  2
ACAD
 70
     0
  0
APPID
  2
ACAD_PSEXT
 70
     0
  0
APPID
  2
ACADANNOPO
 70
     0
  0
APPID
  2
ACADANNOTATIVE
 70
     0
  0
APPID
  2
ACAD_DSTYLE_DIMJAG
 70
     0
  0
APPID
  2
ACAD_DSTYLE_DIMTALN
 70
     0
  0
APPID
  2
ACAD_MLEADERVER
 70
     0
  0
APPID
  2
ACAD_NAV_VCDISPLAY
 70
     0
  0
APPID
  2
GRADIENTCOLOR1ACI
 70
     0
  0
APPID
  2
GRADIENTCOLOR2ACI
 70
     0
  0
ENDTAB
  0
TABLE
  2
DIMSTYLE
 70
     6
  0
DIMSTYLE
  2
STANDARD
 70
     0
  3

  4

  5

  6

  7

 40
1.0
 41
0.18
 42
0.0625
 43
0.38
 44
0.18
 45
0.0
 46
0.0
 47
0.0
 48
0.0
140
0.18
141
0.09
142
0.0
143
25.3999999999999986
144
1.0
145
0.0
146
1.0
147
0.09
 71
     0
 72
     0
 73
     1
 74
     1
 75
     0
 76
     0
 77
     0
 78
     0
170
     0
171
     2
172
     0
173
     0
174
     0
175
     0
176
     0
177
     0
178
     0
  0
DIMSTYLE
  2
ANNOTATIVE
 70
     0
  3

  4

  5

  6

  7

 40
0.0
 41
2.5
 42
0.625
 43
3.75
 44
1.25
 45
0.0
 46
0.0
 47
0.0
 48
0.0
140
2.5
141
2.5
142
0.0
143
0.03937007874016
144
1.0
145
0.0
146
1.0
147
0.625
 71
     0
 72
     0
 73
     0
 74
     0
 75
     0
 76
     0
 77
     1
 78
     8
170
     0
171
     3
172
     1
173
     0
174
     0
175
     0
176
     0
177
     0
178
     0
  0
DIMSTYLE
  2
ISO-25
 70
     0
  3

  4

  5

  6

  7

 40
1.0
 41
2.5
 42
0.625
 43
3.75
 44
1.25
 45
0.0
 46
0.0
 47
0.0
 48
0.0
140
2.5
141
2.5
142
0.0
143
0.03937007874016
144
1.0
145
0.0
146
1.0
147
0.625
 71
     0
 72
     0
 73
     0
 74
     0
 75
     0
 76
     0
 77
     1
 78
     8
170
     0
171
     3
172
     1
173
     0
174
     0
175
     0
176
     0
177
     0
178
     0
  0
DIMSTYLE
  2
ISO-25_1_E_1
 70
     0
  3

  4

  5

  6

  7

 40
1.0
 41
1.3
 42
0.0
 43
3.75
 44
0.2
 45
0.0
 46
0.0
 47
0.0
 48
0.0
140
1.0
141
0.2
142
0.0
143
0.03937007874016
144
0.5
145
0.0
146
1.0
147
0.7
 71
     0
 72
     0
 73
     0
 74
     0
 75
     0
 76
     0
 77
     1
 78
     8
170
     0
171
     3
172
     0
173
     0
174
     0
175
     0
176
   242
177
   242
178
   242
  0
DIMSTYLE
  2
MELÝH_A4
 70
     0
  3

  4

  5

  6

  7

 40
1.0
 41
1.5
 42
0.0
 43
3.75
 44
0.5
 45
0.0
 46
0.0
 47
0.0
 48
0.0
140
2.2999999999999989
141
0.2
142
0.0
143
0.03937007874016
144
1.0
145
0.0
146
1.0
147
0.4
 71
     0
 72
     0
 73
     0
 74
     0
 75
     0
 76
     0
 77
     1
 78
     8
170
     0
171
     3
172
     0
173
     0
174
     0
175
     0
176
   242
177
   242
178
   242
  0
DIMSTYLE
  2
MELÝH_A3
 70
     0
  3

  4

  5

  6

  7

 40
1.0
 41
1.3
 42
0.0
 43
3.75
 44
0.2
 45
0.0
 46
0.0
 47
0.0
 48
0.0
140
1.0
141
0.2
142
0.0
143
0.03937007874016
144
1.0
145
0.0
146
1.0
147
0.7
 71
     0
 72
     0
 73
     0
 74
     0
 75
     0
 76
     0
 77
     1
 78
     8
170
     0
171
     3
172
     0
173
     0
174
     0
175
     0
176
   242
177
   242
178
   242
  0
ENDTAB
  0
ENDSEC
  0
SECTION
  2
BLOCKS
  0
BLOCK
  8
0
  2
$MODEL_SPACE
 70
     0
 10
0.0
 20
0.0
 30
0.0
  3
$MODEL_SPACE
  1

  0
ENDBLK
  5
21
  8
0
  0
BLOCK
 67
     1
  8
0
  2
$PAPER_SPACE
 70
     0
 10
0.0
 20
0.0
 30
0.0
  3
$PAPER_SPACE
  1

  0
ENDBLK
  5
D5
 67
     1
  8
0
  0
BLOCK
  8
0
  2
*X2
 70
     1
 10
0.0
 20
0.0
 30
0.0
  3
*X2
  1

  0
LINE
  5
36B
  8
0
 62
     0
 10
37.0455806150376077
 20
3.864831806510181
 30
0.0
 11
38.3493818305702305
 21
5.1686330220427967
 31
0.0
  0
LINE
  5
36C
  8
0
 62
     0
 10
36.267429861524171
 20
3.98470666510363
 30
0.0
 11
39.1597316036952918
 21
6.877008407274757
 31
0.0
  0
LINE
  5
36D
  8
0
 62
     0
 10
36.2308952057199178
 20
4.8461976214063318
 30
0.0
 11
39.2309161865548504
 21
7.8462186022412652
 31
0.0
  0
LINE
  5
36E
  8
0
 62
     0
 10
36.2308952057199178
 20
5.7442232335132237
 30
0.0
 11
39.2309161865548788
 21
8.7442442143481856
 31
0.0
  0
LINE
  5
36F
  8
0
 62
     0
 10
36.2308952057199534
 20
6.6422488456201441
 30
0.0
 11
39.2309161865548788
 21
9.6422698264550775
 31
0.0
  0
LINE
  5
370
  8
0
 62
     0
 10
36.8045303070382772
 20
8.1139095590454247
 30
0.0
 11
39.2309161865548504
 21
10.5402954385619907
 31
0.0
  0
LINE
  5
371
  8
0
 62
     0
 10
36.8045303070382772
 20
9.0119351711523166
 30
0.0
 11
39.2309161865548788
 21
11.4383210506689199
 31
0.0
  0
LINE
  5
372
  8
0
 62
     0
 10
36.8045303070382488
 20
9.9099607832592351
 30
0.0
 11
39.2309161865548504
 21
12.3363466627758402
 31
0.0
  0
LINE
  5
373
  8
0
 62
     0
 10
36.8045303070382772
 20
10.8079863953661608
 30
0.0
 11
39.2309161865548788
 21
13.2343722748827606
 31
0.0
  0
LINE
  5
374
  8
0
 62
     0
 10
36.5325792060489007
 20
11.4340609064837206
 30
0.0
 11
39.2309161865548788
 21
14.1323978869897093
 31
0.0
  0
LINE
  5
375
  8
0
 62
     0
 10
36.2308952057199178
 20
12.0304025182616403
 30
0.0
 11
39.2309161865548788
 21
15.0304234990965995
 31
0.0
  0
LINE
  5
376
  8
0
 62
     0
 10
36.2308952057199178
 20
12.9284281303685304
 30
0.0
 11
39.2309161865548788
 21
15.9284491112034896
 31
0.0
  0
LINE
  5
377
  8
0
 62
     0
 10
36.2308952057199178
 20
13.8264537424754792
 30
0.0
 11
39.2309161865549072
 21
16.8264747233104686
 31
0.0
  0
LINE
  5
378
  8
0
 62
     0
 10
36.8045303070382772
 20
15.2981144559007305
 30
0.0
 11
39.2309161865549072
 21
17.7245003354173605
 31
0.0
  0
LINE
  5
379
  8
0
 62
     0
 10
36.8045303070382488
 20
16.1961400680076508
 30
0.0
 11
39.2309161865548788
 21
18.6225259475242808
 31
0.0
  0
LINE
  5
37A
  8
0
 62
     0
 10
36.8045303070382488
 20
17.0941656801145392
 30
0.0
 11
39.2309161865548788
 21
19.5205515596311692
 31
0.0
  0
LINE
  5
37B
  8
0
 62
     0
 10
36.8045303070382488
 20
17.9921912922214915
 30
0.0
 11
39.2309161865549072
 21
20.4185771717381499
 31
0.0
  0
LINE
  5
37C
  8
0
 62
     0
 10
36.4567152926915128
 20
18.542401889981651
 30
0.0
 11
39.2309161865548504
 21
21.3166027838449885
 31
0.0
  0
LINE
  5
37D
  8
0
 62
     0
 10
36.2308952057199178
 20
19.2146074151169408
 30
0.0
 11
39.2309161865549072
 21
22.2146283959519408
 31
0.0
  0
LINE
  5
37E
  8
0
 62
     0
 10
36.2308952057198894
 20
20.1126330272238683
 30
0.0
 11
39.2309161865548788
 21
23.1126540080588505
 31
0.0
  0
LINE
  5
37F
  8
0
 62
     0
 10
36.2308952057198894
 20
21.0106586393307602
 30
0.0
 11
39.2309161865549427
 21
24.0106796201657993
 31
0.0
  0
LINE
  5
380
  8
0
 62
     0
 10
36.1871266841322381
 20
21.8649157298500008
 30
0.0
 11
39.2309161865549427
 21
24.9087052322726983
 31
0.0
  0
LINE
  5
381
  8
0
 62
     0
 10
35.2891010720253178
 20
21.8649157298500292
 30
0.0
 11
39.2309161865549072
 21
25.8067308443796115
 31
0.0
  0
LINE
  5
382
  8
0
 62
     0
 10
34.391075459918433
 20
21.8649157298500292
 30
0.0
 11
39.2309161865549072
 21
26.7047564564865105
 31
0.0
  0
LINE
  5
383
  8
0
 62
     0
 10
33.4930498478115126
 20
21.8649157298500505
 30
0.0
 11
39.2309161865549072
 21
27.6027820685934593
 31
0.0
  0
LINE
  5
384
  8
0
 62
     0
 10
32.5950242357045923
 20
21.8649157298500292
 30
0.0
 11
39.2309161865549072
 21
28.5008076807003512
 31
0.0
  0
LINE
  5
385
  8
0
 62
     0
 10
31.6969986235976684
 20
21.8649157298500505
 30
0.0
 11
39.2309161865548788
 21
29.3988332928072715
 31
0.0
  0
LINE
  5
386
  8
0
 62
     0
 10
30.798973011490741
 20
21.8649157298500292
 30
0.0
 11
39.2309161865549427
 21
30.2968589049142203
 31
0.0
  0
LINE
  5
387
  8
0
 62
     0
 10
29.900947399383849
 20
21.8649157298500292
 30
0.0
 11
39.2309161865549427
 21
31.1948845170211086
 31
0.0
  0
LINE
  5
388
  8
0
 62
     0
 10
33.156612352165439
 20
26.0186062947385608
 30
0.0
 11
39.2309161865549072
 21
32.092910129128029
 31
0.0
  0
LINE
  5
389
  8
0
 62
     0
 10
29.0029217872769109
 20
21.8649157298500292
 30
0.0
 11
31.3371875389809382
 21
24.1991814815540707
 31
0.0
  0
LINE
  5
38A
  8
0
 62
     0
 10
30.3708877855480317
 20
24.130907340228049
 30
0.0
 11
30.6539090145263096
 21
24.4139285692063197
 31
0.0
  0
LINE
  5
38B
  8
0
 62
     0
 10
32.6429995212598101
 20
26.4030190759398309
 30
0.0
 11
39.2309161865549072
 21
32.9909357412349209
 31
0.0
  0
LINE
  5
38C
  8
0
 62
     0
 10
28.1048961751700084
 20
21.8649157298500292
 30
0.0
 11
30.3177750877195002
 21
24.0777946423995104
 31
0.0
  0
LINE
  5
38D
  8
0
 62
     0
 10
32.0736872942361018
 20
26.7317324610230607
 30
0.0
 11
35.7068505359024471
 21
30.3648957026894095
 31
0.0
  0
LINE
  5
38E
  8
0
 62
     0
 10
36.2308952057198894
 20
30.8889403725068483
 30
0.0
 11
39.2309161865549427
 21
33.8889613533418981
 31
0.0
  0
LINE
  5
38F
  8
0
 62
     0
 10
27.2068705630630916
 20
21.8649157298500505
 30
0.0
 11
29.5457869658736989
 21
24.2038321326606685
 31
0.0
  0
LINE
  5
390
  8
0
 62
     0
 10
31.4605962040286116
 20
27.0166669829224588
 30
0.0
 11
34.8088249237955623
 21
30.3648957026894095
 31
0.0
  0
LINE
  5
391
  8
0
 62
     0
 10
36.2308952057199178
 20
31.7869659846137687
 30
0.0
 11
39.2309161865549427
 21
34.78698696544879
 31
0.0
  0
LINE
  5
392
  8
0
 62
     0
 10
26.3088449509561713
 20
21.8649157298500292
 30
0.0
 11
28.7708106875074101
 21
24.3268814664012609
 31
0.0
  0
LINE
  5
393
  8
0
 62
     0
 10
30.4711508494725116
 20
26.9252472404733112
 30
0.0
 11
33.9107993116886419
 21
30.3648957026894415
 31
0.0
  0
LINE
  5
394
  8
0
 62
     0
 10
36.110806750348253
 20
32.5649031413490491
 30
0.0
 11
39.2309161865549072
 21
35.6850125775557103
 31
0.0
  0
LINE
  5
395
  8
0
 62
     0
 10
25.4108193388492509
 20
21.8649157298500505
 30
0.0
 11
27.9509705121459398
 21
24.40506690314675
 31
0.0
  0
LINE
  5
396
  8
0
 62
     0
 10
35.2127811382413611
 20
32.5649031413490491
 30
0.0
 11
36.2127086589933072
 21
33.5648306621010022
 31
0.0
  0
LINE
  5
397
  8
0
 62
     0
 10
29.6988109639971185
 20
27.0509329671048206
 30
0.0
 11
33.0127736995816932
 21
30.3648957026893811
 31
0.0
  0
LINE
  5
398
  8
0
 62
     0
 10
36.2308952057199178
 20
33.5830172088276129
 30
0.0
 11
39.2309161865549072
 21
36.5830381896626022
 31
0.0
  0
LINE
  5
399
  8
0
 62
     0
 10
24.512793726742359
 20
21.8649157298500505
 30
0.0
 11
26.7850489395757698
 21
24.1371709426834684
 31
0.0
  0
LINE
  5
39A
  8
0
 62
     0
 10
34.3147555261344621
 20
32.5649031413490491
 30
0.0
 11
35.3146830468864223
 21
33.5648306621010022
 31
0.0
  0
LINE
  5
39B
  8
0
 62
     0
 10
28.5649003977610008
 20
26.8150480129755806
 30
0.0
 11
32.1147480874748013
 21
30.3648957026893811
 31
0.0
  0
LINE
  5
39C
  8
0
 62
     0
 10
36.2308952057198894
 20
34.4810428209344835
 30
0.0
 11
39.2309161865549072
 21
37.481063801769487
 31
0.0
  0
LINE
  5
39D
  8
0
 62
     0
 10
23.6147681146354387
 20
21.8649157298500292
 30
0.0
 11
26.0127969625491495
 21
24.26294457776374
 31
0.0
  0
LINE
  5
39E
  8
0
 62
     0
 10
33.6456250588546197
 20
32.7937982861761625
 30
0.0
 11
34.416657434779502
 21
33.5648306621010306
 31
0.0
  0
LINE
  5
39F
  8
0
 62
     0
 10
27.7226551272567292
 20
26.8708283545782685
 30
0.0
 11
31.2167224753678809
 21
30.3648957026894095
 31
0.0
  0
LINE
  5
3A0
  8
0
 62
     0
 10
36.2308952057199178
 20
35.3790684330414607
 30
0.0
 11
39.2309161865549427
 21
38.3790894138764713
 31
0.0
  0
LINE
  5
3A1
  8
0
 62
     0
 10
22.7167425025285183
 20
21.8649157298500505
 30
0.0
 11
25.2228060941090817
 21
24.3709793214306103
 31
0.0
  0
LINE
  5
3A2
  8
0
 62
     0
 10
26.9380406314754985
 20
26.9842394709039297
 30
0.0
 11
30.3186968632609286
 21
30.3648957026893598
 31
0.0
  0
LINE
  5
3A3
  8
0
 62
     0
 10
24.0562808740655782
 20
24.1024797134940094
 30
0.0
 11
24.3686874611827911
 21
24.4148863006112187
 31
0.0
  0
LINE
  5
3A4
  8
0
 62
     0
 10
36.2308952057199178
 20
36.2770940451483526
 30
0.0
 11
39.2309161865549427
 21
39.2771150259833703
 31
0.0
  0
LINE
  5
3A5
  8
0
 62
     0
 10
21.8187168904216016
 20
21.8649157298500292
 30
0.0
 11
24.0238571275085597
 21
24.0700559669369909
 31
0.0
  0
LINE
  5
3A6
  8
0
 62
     0
 10
26.1661686508875313
 20
27.1103931024229006
 30
0.0
 11
29.4206712511540012
 21
30.3648957026893811
 31
0.0
  0
LINE
  5
3A7
  8
0
 62
     0
 10
25.9014993581251112
 20
26.8457238096604911
 30
0.0
 11
25.99959978024566
 21
26.9438242317810399
 31
0.0
  0
LINE
  5
3A8
  8
0
 62
     0
 10
36.2308952057199534
 20
37.1751196572553226
 30
0.0
 11
39.2309161865549072
 21
40.1751406380902765
 31
0.0
  0
LINE
  5
3A9
  8
0
 62
     0
 10
20.9206912783146812
 20
21.8649157298500505
 30
0.0
 11
23.2516115907975198
 21
24.1958360423328998
 31
0.0
  0
LINE
  5
3AA
  8
0
 62
     0
 10
24.9895938751725986
 20
26.8318439388148704
 30
0.0
 11
28.5226456390471093
 21
30.3648957026893811
 31
0.0
  0
LINE
  5
3AB
  8
0
 62
     0
 10
36.2308952057199534
 20
38.0731452693622217
 30
0.0
 11
39.2309161865549427
 21
41.0731662501971968
 31
0.0
  0
LINE
  5
3AC
  8
0
 62
     0
 10
20.2340945549510707
 20
22.076344618593339
 30
0.0
 11
22.4775659813469701
 21
24.3198160449892384
 31
0.0
  0
LINE
  5
3AD
  8
0
 62
     0
 10
24.1778269288012702
 20
26.9181026045504801
 30
0.0
 11
27.6246200269401889
 21
30.3648957026894095
 31
0.0
  0
LINE
  5
3AE
  8
0
 62
     0
 10
36.2308952057199178
 20
38.9711708814691278
 30
0.0
 11
39.1862706828139267
 21
41.9265463585631366
 31
0.0
  0
LINE
  5
3AF
  8
0
 62
     0
 10
20.2314247814828683
 20
22.9717004572320889
 30
0.0
 11
21.6617867784419786
 21
24.4020624541911992
 31
0.0
  0
LINE
  5
3B0
  8
0
 62
     0
 10
23.4049363774864183
 20
27.0432376653425308
 30
0.0
 11
26.7265944148333006
 21
30.3648957026894095
 31
0.0
  0
LINE
  5
3B1
  8
0
 62
     0
 10
36.2308952057199178
 20
39.8691964935760268
 30
0.0
 11
38.9483780376987383
 21
42.5866793255548473
 31
0.0
  0
LINE
  5
3B2
  8
0
 62
     0
 10
20.5231299754121288
 20
24.1614312632682413
 30
0.0
 11
20.6475358965730287
 21
24.2858371844291412
 31
0.0
  0
LINE
  5
3B3
  8
0
 62
     0
 10
22.6326731582044616
 20
27.1690000581674589
 30
0.0
 11
25.8285688027263802
 21
30.3648957026893811
 31
0.0
  0
LINE
  5
3B4
  8
0
 62
     0
 10
36.2308952057199178
 20
40.7672221056829116
 30
0.0
 11
38.7104853925835712
 21
43.2468122925465721
 31
0.0
  0
LINE
  5
3B5
  8
0
 62
     0
 10
22.2784165198946802
 20
26.8147434198576811
 30
0.0
 11
22.6249158355951501
 21
27.1612427355581509
 31
0.0
  0
LINE
  5
3B6
  8
0
 62
     0
 10
36.2308952057198894
 20
41.6652477177898319
 30
0.0
 11
38.4725927474683189
 21
43.9069452595382685
 31
0.0
  0
LINE
  5
3B7
  8
0
 62
     0
 10
21.43082584641758
 20
26.8651783584875297
 30
0.0
 11
24.9305431906194599
 21
30.3648957026894095
 31
0.0
  0
LINE
  5
3B8
  8
0
 62
     0
 10
36.2308952057199178
 20
42.5632733298967594
 30
0.0
 11
38.2347001023531732
 21
44.5670782265300076
 31
0.0
  0
LINE
  5
3B9
  8
0
 62
     0
 10
20.7025792143512284
 20
27.0349573385280806
 30
0.0
 11
24.0325175785125396
 21
30.3648957026893811
 31
0.0
  0
LINE
  5
3BA
  8
0
 62
     0
 10
25.3344994050653192
 20
32.5649031413490491
 30
0.0
 11
25.8170463287667715
 21
33.0474500650504979
 31
0.0
  0
LINE
  5
3BB
  8
0
 62
     0
 10
36.2308952057199178
 20
43.4612989420036513
 30
0.0
 11
37.8649454576165567
 21
45.0953491939002902
 31
0.0
  0
LINE
  5
3BC
  8
0
 62
     0
 10
20.3654566658555609
 20
27.5958604021393015
 30
0.0
 11
23.230883761628121
 21
30.4612874979118509
 31
0.0
  0
LINE
  5
3BD
  8
0
 62
     0
 10
24.4364737929583917
 20
32.5649031413490775
 30
0.0
 11
25.43640131371032
 21
33.5648306621010022
 31
0.0
  0
LINE
  5
3BE
  8
0
 62
     0
 10
36.2308952057198894
 20
44.3593245541105716
 30
0.0
 11
36.9669198455096435
 21
45.0953491939003186
 31
0.0
  0
LINE
  5
3BF
  8
0
 62
     0
 10
20.231437927659389
 20
28.3598672760500712
 30
0.0
 11
23.230883761628089
 21
31.3593131100187783
 31
0.0
  0
LINE
  5
3C0
  8
0
 62
     0
 10
23.5384481808514785
 20
32.5649031413490491
 30
0.0
 11
24.5383757016034316
 21
33.5648306621010022
 31
0.0
  0
LINE
  5
3C1
  8
0
 62
     0
 10
20.23094968783494
 20
29.2574046483325105
 30
0.0
 11
23.230883761628121
 21
32.2573387221257022
 31
0.0
  0
LINE
  5
3C2
  8
0
 62
     0
 10
20.230461448010491
 20
30.1549420206150103
 30
0.0
 11
23.6403500894965113
 21
33.5648306621010306
 31
0.0
  0
LINE
  5
3C3
  8
0
 62
     0
 10
20.2299732081860988
 20
31.05247939289751
 30
0.0
 11
23.230883761628121
 21
34.0533899463395429
 31
0.0
  0
LINE
  5
3C4
  8
0
 62
     0
 10
20.2294849683615894
 20
31.9500167651799494
 30
0.0
 11
23.230883761628121
 21
34.9514155584464916
 31
0.0
  0
LINE
  5
3C5
  8
0
 62
     0
 10
20.2289967285371404
 20
32.8475541374624029
 30
0.0
 11
23.230883761628121
 21
35.8494411705533835
 31
0.0
  0
LINE
  5
3C6
  8
0
 62
     0
 10
20.2285084887127198
 20
33.7450915097448672
 30
0.0
 11
23.230883761628121
 21
36.7474667826602683
 31
0.0
  0
LINE
  5
3C7
  8
0
 62
     0
 10
20.2280202488882388
 20
34.6426288820273385
 30
0.0
 11
23.230883761628089
 21
37.6454923947671887
 31
0.0
  0
LINE
  5
3C8
  8
0
 62
     0
 10
19.8022748088837908
 20
35.1149090541297895
 30
0.0
 11
23.230883761628089
 21
38.5435180068740806
 31
0.0
  0
LINE
  5
3C9
  8
0
 62
     0
 10
18.9042491967768704
 20
35.1149090541298108
 30
0.0
 11
23.2308837616280606
 21
39.4415436189810009
 31
0.0
  0
LINE
  5
3CA
  8
0
 62
     0
 10
20.23086278079316
 20
37.3395482502529887
 30
0.0
 11
23.230883761628121
 21
40.3395692310879497
 31
0.0
  0
LINE
  5
3CB
  8
0
 62
     0
 10
18.0062235846699785
 20
35.1149090541298108
 30
0.0
 11
20.0061978354634391
 21
37.1148833049232678
 31
0.0
  0
LINE
  5
3CC
  8
0
 62
     0
 10
20.23086278079316
 20
38.2375738623599375
 30
0.0
 11
23.230883761628089
 21
41.23759484319487
 31
0.0
  0
LINE
  5
3CD
  8
0
 62
     0
 10
17.1081979725630617
 20
35.1149090541298392
 30
0.0
 11
19.1081722233565188
 21
37.1148833049233033
 31
0.0
  0
LINE
  5
3CE
  8
0
 62
     0
 10
20.23086278079316
 20
39.1355994744668294
 30
0.0
 11
23.230883761628089
 21
42.1356204553017619
 31
0.0
  0
LINE
  5
3CF
  8
0
 62
     0
 10
16.2101723604561698
 20
35.1149090541298392
 30
0.0
 11
18.2101466112495984
 21
37.1148833049232678
 31
0.0
  0
LINE
  5
3D0
  8
0
 62
     0
 10
20.23086278079316
 20
40.0336250865737213
 30
0.0
 11
23.230883761628121
 21
43.0336460674086823
 31
0.0
  0
LINE
  5
3D1
  8
0
 62
     0
 10
15.3121467483492495
 20
35.1149090541298108
 30
0.0
 11
17.3121209991426817
 21
37.1148833049232394
 31
0.0
  0
LINE
  5
3D2
  8
0
 62
     0
 10
20.2308627807931316
 20
40.9316506986806417
 30
0.0
 11
23.230883761628089
 21
43.9316716795156026
 31
0.0
  0
LINE
  5
3D3
  8
0
 62
     0
 10
14.4141211362423007
 20
35.1149090541298108
 30
0.0
 11
16.4140953870357613
 21
37.1148833049232678
 31
0.0
  0
LINE
  5
3D4
  8
0
 62
     0
 10
20.2308627807931316
 20
41.8296763107875265
 30
0.0
 11
23.230883761628121
 21
44.8296972916225229
 31
0.0
  0
LINE
  5
3D5
  8
0
 62
     0
 10
13.5160955241354106
 20
35.1149090541298108
 30
0.0
 11
15.5160697749288605
 21
37.1148833049232678
 31
0.0
  0
LINE
  5
3D6
  8
0
 62
     0
 10
20.23086278079316
 20
42.7277019228944468
 30
0.0
 11
22.5985100517990283
 21
45.0953491939003186
 31
0.0
  0
LINE
  5
3D7
  8
0
 62
     0
 10
12.6180699120284903
 20
35.1149090541297895
 30
0.0
 11
14.6180441628219704
 21
37.1148833049232678
 31
0.0
  0
LINE
  5
3D8
  8
0
 62
     0
 10
20.2308627807931316
 20
43.6257275350013671
 30
0.0
 11
22.0309230530099285
 21
45.4257878072181711
 31
0.0
  0
LINE
  5
3D9
  8
0
 62
     0
 10
11.7200442999215699
 20
35.1149090541298108
 30
0.0
 11
13.7200185507150199
 21
37.1148833049232678
 31
0.0
  0
LINE
  5
3DA
  8
0
 62
     0
 10
20.2308627807930996
 20
44.5237531471082875
 30
0.0
 11
22.0309230530099001
 21
46.3238134193250914
 31
0.0
  0
LINE
  5
3DB
  8
0
 62
     0
 10
10.8220186878146407
 20
35.1149090541298392
 30
0.0
 11
12.8219929386080995
 21
37.1148833049233033
 31
0.0
  0
LINE
  5
3DC
  8
0
 62
     0
 10
20.2308627807930996
 20
45.4217787592151865
 30
0.0
 11
22.0309230530099285
 21
47.2218390314320118
 31
0.0
  0
LINE
  5
3DD
  8
0
 62
     0
 10
9.9239930757077275
 20
35.1149090541298108
 30
0.0
 11
11.9239673265011792
 21
37.1148833049232678
 31
0.0
  0
LINE
  5
3DE
  8
0
 62
     0
 10
20.23086278079316
 20
46.3198043713221281
 30
0.0
 11
22.0309230530099605
 21
48.1198646435389321
 31
0.0
  0
LINE
  5
3DF
  8
0
 62
     0
 10
9.0259674636008072
 20
35.1149090541297895
 30
0.0
 11
11.0259417143942908
 21
37.1148833049232678
 31
0.0
  0
LINE
  5
3E0
  8
0
 62
     0
 10
20.2308627807931316
 20
47.2178299834290485
 30
0.0
 11
22.0309230530099285
 21
49.0178902556458524
 31
0.0
  0
LINE
  5
3E1
  8
0
 62
     0
 10
8.4215258373506572
 20
35.4084930399865812
 30
0.0
 11
10.42709080813691
 21
37.4140580107728269
 31
0.0
  0
LINE
  5
3E2
  8
0
 62
     0
 10
20.2308627807931884
 20
48.1158555955359972
 30
0.0
 11
22.0309230530099818
 21
49.9159158677528012
 31
0.0
  0
LINE
  5
3E3
  8
0
 62
     0
 10
8.3769294464426292
 20
36.2619222611854468
 30
0.0
 11
10.42709080813691
 21
38.312083622879733
 31
0.0
  0
LINE
  5
3E4
  8
0
 62
     0
 10
20.2308627807931884
 20
49.0138812076428891
 30
0.0
 11
22.0309230530099818
 21
50.8139414798596931
 31
0.0
  0
LINE
  5
3E5
  8
0
 62
     0
 10
8.3769294464426292
 20
37.1599478732923387
 30
0.0
 11
10.42709080813691
 21
39.2101092349866178
 31
0.0
  0
LINE
  5
3E6
  8
0
 62
     0
 10
20.23086278079316
 20
49.9119068197498095
 30
0.0
 11
21.8123155007109517
 21
51.4933595396676083
 31
0.0
  0
LINE
  5
3E7
  8
0
 62
     0
 10
8.3769294464426292
 20
38.0579734853992875
 30
0.0
 11
10.4270908081368798
 21
40.1081348470935382
 31
0.0
  0
LINE
  5
3E8
  8
0
 62
     0
 10
20.23086278079316
 20
50.8099324318567085
 30
0.0
 11
20.9162686709495595
 21
51.4953383220131116
 31
0.0
  0
LINE
  5
3E9
  8
0
 62
     0
 10
8.3769294464426292
 20
38.9559990975061794
 30
0.0
 11
10.4270908081368798
 21
41.0061604592004301
 31
0.0
  0
LINE
  5
3EA
  8
0
 62
     0
 10
8.3769294464425741
 20
39.8540247096130713
 30
0.0
 11
10.4270908081368798
 21
41.9041860713073717
 31
0.0
  0
LINE
  5
3EB
  8
0
 62
     0
 10
8.3769294464426025
 20
40.7520503217199916
 30
0.0
 11
10.42709080813691
 21
42.8022116834142921
 31
0.0
  0
LINE
  5
3EC
  8
0
 62
     0
 10
8.3769294464425741
 20
41.650075933826912
 30
0.0
 11
10.4270908081368798
 21
43.7002372955212195
 31
0.0
  0
LINE
  5
3ED
  8
0
 62
     0
 10
8.3769294464426025
 20
42.5481015459338323
 30
0.0
 11
10.42709080813691
 21
44.5982629076281398
 31
0.0
  0
LINE
  5
3EE
  8
0
 62
     0
 10
8.3769294464426025
 20
43.4461271580407171
 30
0.0
 11
10.42709080813691
 21
45.4962885197350317
 31
0.0
  0
LINE
  5
3EF
  8
0
 62
     0
 10
8.3769294464426025
 20
44.344152770147673
 30
0.0
 11
10.4270908081368798
 21
46.3943141318419521
 31
0.0
  0
LINE
  5
3F0
  8
0
 62
     0
 10
8.3769294464426025
 20
45.2421783822545578
 30
0.0
 11
10.4270908081368798
 21
47.2923397439488369
 31
0.0
  0
LINE
  5
3F1
  8
0
 62
     0
 10
8.3769294464426025
 20
46.1402039943615065
 30
0.0
 11
10.42709080813691
 21
48.1903653560558212
 31
0.0
  0
LINE
  5
3F2
  8
0
 62
     0
 10
8.3769294464426025
 20
47.0382296064683985
 30
0.0
 11
10.42709080813691
 21
49.0883909681627131
 31
0.0
  0
LINE
  5
3F3
  8
0
 62
     0
 10
8.3769294464425741
 20
47.9362552185753188
 30
0.0
 11
10.4270908081368798
 21
49.9864165802696334
 31
0.0
  0
LINE
  5
3F4
  8
0
 62
     0
 10
8.3769294464425741
 20
48.8342808306822107
 30
0.0
 11
10.4270908081368798
 21
50.8844421923765182
 31
0.0
  0
LINE
  5
3F5
  8
0
 62
     0
 10
8.3769294464425741
 20
49.7323064427891097
 30
0.0
 11
10.4270908081368798
 21
51.7824678044834172
 31
0.0
  0
LINE
  5
3F6
  8
0
 62
     0
 10
8.3769294464425741
 20
50.6303320548960585
 30
0.0
 11
10.42709080813691
 21
52.6804934165904015
 31
0.0
  0
LINE
  5
3F7
  8
0
 62
     0
 10
8.4631123962593904
 20
51.6145406168197596
 30
0.0
 11
10.1538482776502406
 21
53.3052764982106098
 31
0.0
  0
ENDBLK
  5
3F9
  8
0
  0
BLOCK
  8
0
  2
*U3
 70
     1
 10
0.0
 20
0.0
 30
0.0
  3
*U3
  1

  0
LINE
  5
3FB
  8
0
 10
36.2308952057198894
 20
11.8648947490150203
 30
0.0
 11
36.8045303070382488
 21
11.0456885112220498
 31
0.0
  0
LINE
  5
3FC
  8
0
 10
36.8045303070382488
 20
11.0456885112220498
 30
0.0
 11
36.8045303070382488
 21
7.9711617244178541
 31
0.0
  0
LINE
  5
3FD
  8
0
 10
36.8045303070382488
 20
7.9711617244178541
 30
0.0
 11
36.2308952057198894
 21
7.1520746959144361
 31
0.0
  0
LINE
  5
3FE
  8
0
 10
36.2308952057198894
 20
7.1520746959144361
 30
0.0
 11
36.2308952057198894
 21
4.1148136866983123
 31
0.0
  0
ARC
  5
3FF
  8
0
 10
36.4808952050654511
 20
4.1148317860724433
 30
0.0
 40
0.2500000000007364
 50
180.0041480710129917
 51
270.0231681522542999
  0
LINE
  5
400
  8
0
 10
36.4809962951974285
 20
3.8648318065101388
 30
0.0
 11
37.5727149689034334
 21
3.8648318065101668
 31
0.0
  0
ARC
  5
401
  8
0
 10
37.5728233316699516
 20
4.1148317830251102
 30
0.0
 40
0.249999999999922
 50
269.9751650825093066
 51
334.6420434634159164
  0
LINE
  5
402
  8
0
 10
37.7987357818917715
 20
4.0077637446815251
 30
0.0
 11
39.2068359100655925
 21
6.9763134730750798
 31
0.0
  0
ARC
  5
403
  8
0
 10
38.9809162136543819
 20
7.083366220697541
 30
0.0
 40
0.2500000000001039
 50
334.6459214247183809
 51
0.0266777601449775
  0
LINE
  5
404
  8
0
 10
39.2309161865548504
 20
7.0834826244446409
 30
0.0
 11
39.2309161865549072
 21
41.758919597953188
 31
0.0
  0
ARC
  5
405
  8
0
 10
38.9809161954972296
 20
41.7589869421983124
 30
0.0
 40
0.2500000001281724
 50
359.9845658357431262
 51
19.8014567633572014
  0
LINE
  5
406
  8
0
 10
39.2161342346505606
 20
41.8436774028236087
 30
0.0
 11
38.1039115631417715
 21
44.9300059092933424
 31
0.0
  0
ARC
  5
407
  8
0
 10
37.8686813711158266
 20
44.8453492096541027
 30
0.0
 40
0.2500000000687361
 50
19.7932332831530111
 51
90.020384818292527
  0
LINE
  5
408
  8
0
 10
37.8685924255685293
 20
45.0953491939002973
 30
0.0
 11
36.4809962951974285
 21
45.0953491939002689
 31
0.0
  0
ARC
  5
409
  8
0
 10
36.4808951852734822
 20
44.8453492143466903
 30
0.0
 40
0.2500000000000128
 50
89.9768273117322366
 51
180.0231726882709893
  0
LINE
  5
40A
  8
0
 10
36.2308952057198894
 20
44.8452481044227298
 30
0.0
 11
36.2308952057198894
 21
33.5648306621009596
 31
0.0
  0
LINE
  5
40B
  8
0
 10
36.2308952057198894
 20
33.5648306621009596
 30
0.0
 11
33.8948337280587566
 21
33.5648306621009596
 31
0.0
  0
ARC
  5
40C
  8
0
 10
33.8947326379259266
 20
33.3148306825395082
 30
0.0
 40
0.2499999999998821
 50
89.9768318475223339
 51
179.9958519291513142
  0
LINE
  5
40D
  8
0
 10
33.6447326385812175
 20
33.3148487819129713
 30
0.0
 11
33.6447326385812175
 21
32.8148850215370516
 31
0.0
  0
ARC
  5
40E
  8
0
 10
33.8947326379258698
 20
32.8149031209104294
 30
0.0
 40
0.2499999999998268
 50
180.0041480708372887
 51
270.0231681524858232
  0
LINE
  5
40F
  8
0
 10
33.8948337280587566
 20
32.5649031413490135
 30
0.0
 11
36.2308952057198894
 21
32.5649031413490135
 31
0.0
  0
LINE
  5
410
  8
0
 10
36.2308952057198894
 20
32.5649031413490135
 30
0.0
 11
36.2308952057198894
 21
30.3648957026893385
 31
0.0
  0
LINE
  5
411
  8
0
 10
36.2308952057198894
 20
30.3648957026893385
 30
0.0
 11
23.230883761628089
 21
30.3648957026893385
 31
0.0
  0
LINE
  5
412
  8
0
 10
23.230883761628089
 20
30.3648957026893385
 30
0.0
 11
23.230883761628089
 21
32.5649031413490135
 31
0.0
  0
LINE
  5
413
  8
0
 10
23.230883761628089
 20
32.5649031413490135
 30
0.0
 11
25.5671836578683305
 21
32.5649031413490206
 31
0.0
  0
ARC
  5
414
  8
0
 10
25.5670463294205206
 20
32.8149031036310319
 30
0.0
 40
0.2500000000002122
 50
270.0314733634482991
 51
359.9958558893023906
  0
LINE
  5
415
  8
0
 10
25.8170463287667715
 20
32.8148850215369876
 30
0.0
 11
25.8170463287667715
 21
33.3148487819129286
 31
0.0
  0
ARC
  5
416
  8
0
 10
25.5670463294208616
 20
33.3148306998193107
 30
0.0
 40
0.249999999999827
 50
0.0041441106007024
 51
89.968526636617554
  0
LINE
  5
417
  8
0
 10
25.5671836578683305
 20
33.5648306621009596
 30
0.0
 11
23.230883761628089
 21
33.5648306621009596
 31
0.0
  0
LINE
  5
418
  8
0
 10
23.230883761628089
 20
33.5648306621009596
 30
0.0
 11
23.230883761628089
 21
44.8453673137123303
 31
0.0
  0
ARC
  5
419
  8
0
 10
22.9808837622818487
 20
44.84534923161835
 30
0.0
 40
0.2500000000001681
 50
0.00414411068865
 51
89.9685266365589769
  0
LINE
  5
41A
  8
0
 10
22.9810210907296515
 20
45.0953491939002689
 30
0.0
 11
22.0309230530099285
 21
45.0953491939002689
 31
0.0
  0
LINE
  5
41B
  8
0
 10
22.0309230530099285
 20
45.0953491939002689
 30
0.0
 11
22.0309230530099285
 21
51.245356441824498
 31
0.0
  0
ARC
  5
41C
  8
0
 10
21.7809230536646012
 20
51.2453383424510989
 30
0.0
 40
0.250000000000509
 50
0.0041480708372737
 51
90.0231681521958933
  0
LINE
  5
41D
  8
0
 10
21.7808219635323894
 20
51.4953383220130974
 30
0.0
 11
20.4809638702706707
 21
51.4953383220130974
 31
0.0
  0
ARC
  5
41E
  8
0
 10
20.4808627801381213
 20
51.2453383424513831
 30
0.0
 40
0.250000000000152
 50
89.9768318475874906
 51
179.9958519290958918
  0
LINE
  5
41F
  8
0
 10
20.2308627807931316
 20
51.2453564418250807
 30
0.0
 11
20.2308627807931316
 21
37.1148833049232181
 31
0.0
  0
LINE
  5
420
  8
0
 10
20.2308627807931316
 20
37.1148833049232181
 30
0.0
 11
10.4270908081368798
 21
37.1148833049232181
 31
0.0
  0
LINE
  5
421
  8
0
 10
10.4270908081368798
 20
37.1148833049232181
 30
0.0
 11
10.4270908081368798
 21
52.8596886409215188
 31
0.0
  0
ARC
  5
422
  8
0
 10
9.9270901826957356
 20
52.8596517758565128
 30
0.0
 40
0.5000006268001773
 50
0.0042244199786931
 51
89.9957755799716352
  0
LINE
  5
423
  8
0
 10
9.927127047760905
 20
53.3596524012977724
 30
0.0
 11
9.7485515320138916
 21
53.3596524012977298
 31
0.0
  0
ARC
  5
424
  8
0
 10
9.7485316539747373
 20
52.8596524016950227
 30
0.0
 40
0.4999999999978436
 50
89.9977221445023048
 51
132.7192122210344962
  0
ARC
  5
425
  8
0
 10
11.5647515691609897
 20
50.8783015733197601
 30
0.0
 40
3.1878226876744051
 50
132.5429481220342041
 51
180.0341112675282886
  0
LINE
  5
426
  8
0
 10
8.3769294464425457
 20
50.8764036906653487
 30
0.0
 11
8.3769294464426025
 21
35.6148728145061
 31
0.0
  0
ARC
  5
427
  8
0
 10
8.8769294451321343
 20
35.6149090132528912
 30
0.0
 40
0.4999999999998811
 50
180.0041480708372887
 51
270.0231681524173837
  0
LINE
  5
428
  8
0
 10
8.8771316253976238
 20
35.1149090541297682
 30
0.0
 11
20.2277633392648113
 21
35.1149090541297682
 31
0.0
  0
LINE
  5
429
  8
0
 10
20.2277633392648113
 20
35.1149090541297682
 30
0.0
 11
20.2315780365304292
 21
28.1023033870155317
 31
0.0
  0
ARC
  5
42A
  8
0
 10
22.3040069168469586
 20
28.3792347492785417
 30
0.0
 40
2.0908496941135781
 50
187.6111450380952874
 51
222.3367212871606
  0
ARC
  5
42B
  8
0
 10
20.9431983913655095
 20
27.1395058251252799
 30
0.0
 40
0.2500000000003472
 50
222.3548080901933872
 51
335.7761024438905224
  0
LINE
  5
42C
  8
0
 10
21.1711856567696906
 20
27.0369299663001783
 30
0.0
 11
21.231743975861491
 21
27.1716364634925611
 31
0.0
  0
LINE
  5
42D
  8
0
 10
21.231743975861491
 20
27.1716364634925611
 30
0.0
 11
21.3647815430002197
 21
26.9401616428104198
 31
0.0
  0
ARC
  5
42E
  8
0
 10
21.5816244325466187
 20
27.0645769202215014
 30
0.0
 40
0.2500000000002128
 50
209.8453805241811096
 51
330.1535217482955886
  0
LINE
  5
42F
  8
0
 10
21.7984649383859015
 20
26.9401574883491293
 30
0.0
 11
21.9315025055245805
 21
27.1718748820716591
 31
0.0
  0
LINE
  5
430
  8
0
 10
21.9315025055245805
 20
27.1718748820716591
 30
0.0
 11
22.0643016540841508
 21
26.9403704417640384
 31
0.0
  0
ARC
  5
431
  8
0
 10
22.2811775511546593
 20
27.0647281728050615
 30
0.0
 40
0.2499999999996149
 50
209.8301763679581882
 51
330.1383251284199218
  0
LINE
  5
432
  8
0
 10
22.4979850494698894
 20
26.9402512324744912
 30
0.0
 11
22.6310226166085613
 21
27.1718748820716591
 31
0.0
  0
LINE
  5
433
  8
0
 10
22.6310226166085613
 20
27.1718748820716591
 30
0.0
 11
22.7640601837472296
 21
26.9401572573018591
 31
0.0
  0
ARC
  5
434
  8
0
 10
22.9809018192212307
 20
27.0645747204044085
 30
0.0
 40
0.2499999999998227
 50
209.8459580449388113
 51
330.1540992602402866
  0
LINE
  5
435
  8
0
 10
23.1977435791329683
 20
26.9401574741791414
 30
0.0
 11
23.3310195648507488
 21
27.1721133006507607
 31
0.0
  0
LINE
  5
436
  8
0
 10
23.3310195648507488
 20
27.1721133006507607
 30
0.0
 11
23.4640571319893709
 21
26.9401592921715292
 31
0.0
  0
ARC
  5
437
  8
0
 10
23.6808984606593604
 20
27.0645772899874792
 30
0.0
 40
0.2499999999998034
 50
209.8460993316602128
 51
330.1542405478411979
  0
LINE
  5
438
  8
0
 10
23.8977405273751593
 20
26.9401605784800218
 30
0.0
 11
24.0307780945138383
 21
27.1716364634925611
 31
0.0
  0
LINE
  5
439
  8
0
 10
24.0307780945138383
 20
27.1716364634925611
 30
0.0
 11
24.1635772430733518
 21
26.9401656327303094
 31
0.0
  0
ARC
  5
43A
  8
0
 10
24.38041918620263
 20
27.0645825596334397
 30
0.0
 40
0.2500000000001996
 50
209.8458163657230102
 51
330.1539575811016789
  0
LINE
  5
43B
  8
0
 10
24.5972606384591508
 20
26.9401647772091195
 30
0.0
 11
24.7307750427560293
 21
27.1724709285194201
 31
0.0
  0
LINE
  5
43C
  8
0
 10
24.7307750427560293
 20
27.1724709285194201
 30
0.0
 11
24.8640510284737992
 21
26.9401600713557094
 31
0.0
  0
ARC
  5
43D
  8
0
 10
25.0808932928754302
 20
27.0645764383228595
 30
0.0
 40
0.2500000000002677
 50
209.8456684148904969
 51
330.1538096318673183
  0
LINE
  5
43E
  8
0
 10
25.2977344238595414
 20
26.9401580959706308
 30
0.0
 11
25.4307719909982097
 21
27.1718748820716591
 31
0.0
  0
LINE
  5
43F
  8
0
 10
25.4307719909982097
 20
27.1718748820716591
 30
0.0
 11
25.5638095581368816
 21
26.9401572573018591
 31
0.0
  0
ARC
  5
440
  8
0
 10
25.7806511936108791
 20
27.0645747204044085
 30
0.0
 40
0.2499999999998227
 50
209.8459580449388113
 51
330.1540992602402866
  0
LINE
  5
441
  8
0
 10
25.9974929535226309
 20
26.9401574741791414
 30
0.0
 11
26.1307689392404008
 21
27.1721133006507607
 31
0.0
  0
LINE
  5
442
  8
0
 10
26.1307689392404008
 20
27.1721133006507607
 30
0.0
 11
26.2638065063790087
 21
26.9401592921715505
 31
0.0
  0
ARC
  5
443
  8
0
 10
26.4806478350491297
 20
27.0645772899881116
 30
0.0
 40
0.2500000000002061
 50
209.8460993317686132
 51
330.1542405476304225
  0
LINE
  5
444
  8
0
 10
26.6974899017648113
 20
26.9401605784796487
 30
0.0
 11
26.8305274689034903
 21
27.1716364634925611
 31
0.0
  0
LINE
  5
445
  8
0
 10
26.8305274689034903
 20
27.1716364634925611
 30
0.0
 11
26.9633266174630606
 21
26.9401656327304906
 31
0.0
  0
ARC
  5
446
  8
0
 10
27.1801685605922785
 20
27.0645825596334788
 30
0.0
 40
0.2500000000000866
 50
209.8458163657041098
 51
330.1539575811639224
  0
LINE
  5
447
  8
0
 10
27.3970100128487992
 20
26.9401647772094606
 30
0.0
 11
27.5305244171456707
 21
27.1724709285194201
 31
0.0
  0
LINE
  5
448
  8
0
 10
27.5305244171456707
 20
27.1724709285194201
 30
0.0
 11
27.6638004028634512
 21
26.9401634922976996
 31
0.0
  0
ARC
  5
449
  8
0
 10
27.8806418558018585
 20
27.0645812735335483
 30
0.0
 40
0.2500000000001851
 50
209.8460421048696958
 51
330.1541833202588805
  0
LINE
  5
44A
  8
0
 10
28.0974837982491898
 20
26.9401643454420316
 30
0.0
 11
28.2305213653878617
 21
27.1716364634925611
 31
0.0
  0
LINE
  5
44B
  8
0
 10
28.2305213653878617
 20
27.1716364634925611
 30
0.0
 11
28.3633205139473716
 21
26.9401637378509093
 31
0.0
  0
ARC
  5
44C
  8
0
 10
28.5801618312500487
 20
27.06458175547953
 30
0.0
 40
0.2500000000003916
 50
209.8461045666633993
 51
330.1542457824403982
  0
LINE
  5
44D
  8
0
 10
28.7970039093331707
 20
26.9401650637827217
 30
0.0
 11
28.930041476471839
 21
27.1716364634925611
 31
0.0
  0
LINE
  5
44E
  8
0
 10
28.930041476471839
 20
27.1716364634925611
 30
0.0
 11
29.0628406250314697
 21
26.9401621341968394
 31
0.0
  0
ARC
  5
44F
  8
0
 10
29.2796823227244012
 20
27.0645794888609288
 30
0.0
 40
0.2499999999999219
 50
209.8459293923793894
 51
330.1540706075305138
  0
LINE
  5
450
  8
0
 10
29.4965240204171586
 20
26.9401621341964912
 30
0.0
 11
29.6295615875558305
 21
27.1716364634925611
 31
0.0
  0
LINE
  5
451
  8
0
 10
29.6295615875558305
 20
27.1716364634925611
 30
0.0
 11
29.7623607361153404
 21
26.9401640319387496
 31
0.0
  0
ARC
  5
452
  8
0
 10
29.9792030589529794
 20
27.0645802970587006
 30
0.0
 40
0.2500000000000368
 50
209.8456415040494107
 51
330.1537827216852747
  0
LINE
  5
453
  8
0
 10
30.1960441315011394
 20
26.9401618528625484
 30
0.0
 11
30.3290804008150907
 21
27.1716389950924189
 31
0.0
  0
LINE
  5
454
  8
0
 10
30.3290804008150907
 20
27.1716389950924189
 30
0.0
 11
30.4618814707882315
 21
26.9401632144638015
 31
0.0
  0
ARC
  5
455
  8
0
 10
30.6787237936258705
 20
27.0645794795836707
 30
0.0
 40
0.2500000000000014
 50
209.8456415040353136
 51
325.5834454664920941
  0
ARC
  5
456
  8
0
 10
31.0911989072724317
 20
26.781976789182
 30
0.0
 40
0.2500000000000284
 50
90.0
 51
145.5834454664868076
  0
LINE
  5
457
  8
0
 10
31.0911989072724317
 20
27.0319767891820284
 30
0.0
 11
31.2857829773263383
 21
27.0319767891820497
 31
0.0
  0
ARC
  5
458
  8
0
 10
31.2865556872420214
 20
26.035102823150261
 30
0.0
 40
0.9968742655082315
 50
59.9499521830403665
 51
90.0444118410130869
  0
LINE
  5
459
  8
0
 10
31.7857467377023113
 20
26.8979855477269503
 30
0.0
 11
32.9919063293771231
 21
26.2015648781713111
 31
0.0
  0
ARC
  5
45A
  8
0
 10
32.4320719441276992
 20
25.53196495389777
 30
0.0
 40
0.8727992882070472
 50
5.4542904740563536
 51
50.1019164411885285
  0
ARC
  5
45B
  8
0
 10
32.4320740263074825
 20
25.6979087151433205
 30
0.0
 40
0.8727992879067357
 50
309.8979054092666274
 51
354.5442718945072897
  0
LINE
  5
45C
  8
0
 10
32.9919063293771231
 20
25.0283070504125007
 30
0.0
 11
31.7857467377023717
 21
24.3318863808568615
 31
0.0
  0
ARC
  5
45D
  8
0
 10
31.2865556872422985
 20
25.1947691054325986
 30
0.0
 40
0.996874265507283
 50
269.9555881589737965
 51
300.0500478169760754
  0
LINE
  5
45E
  8
0
 10
31.2857829773263383
 20
24.1978951394017514
 30
0.0
 11
31.1660591346490605
 21
24.171221161744139
 31
0.0
  0
ARC
  5
45F
  8
0
 10
31.111693135785
 20
24.4152382475548393
 30
0.0
 40
0.2500000000000611
 50
210.0099354702799133
 51
282.5601247735339143
  0
ARC
  5
460
  8
0
 10
30.6787237920700591
 20
24.1651631640236495
 30
0.0
 40
0.2500000000004838
 50
30.009935470265269
 51
150.1543577792409963
  0
LINE
  5
461
  8
0
 10
30.4618814707882883
 20
24.2895794318563283
 30
0.0
 11
30.3291150699707295
 21
24.0580653167827911
 31
0.0
  0
LINE
  5
462
  8
0
 10
30.3291150699707295
 20
24.0580653167827911
 30
0.0
 11
30.1960441315011998
 21
24.2895824229840116
 31
0.0
  0
ARC
  5
463
  8
0
 10
29.9792030573971715
 20
24.1651639814985906
 30
0.0
 40
0.2500000000004948
 50
29.8462165620015512
 51
150.1543577792382109
  0
LINE
  5
464
  8
0
 10
29.7623607361154008
 20
24.28958024933128
 30
0.0
 11
29.6295615875558305
 21
24.0580090297157092
 31
0.0
  0
LINE
  5
465
  8
0
 10
29.6295615875558305
 20
24.0580090297157092
 30
0.0
 11
29.4965240204171586
 21
24.2895821536387402
 31
0.0
  0
ARC
  5
466
  8
0
 10
29.2796823227242911
 20
24.1651647989735494
 30
0.0
 40
0.2500000000004172
 50
29.8459293926034412
 51
150.1540706074135016
  0
LINE
  5
467
  8
0
 10
29.0628406250314093
 20
24.2895821536386514
 30
0.0
 11
28.930041476471839
 21
24.0580090297157092
 31
0.0
  0
LINE
  5
468
  8
0
 10
28.930041476471839
 20
24.0580090297157092
 30
0.0
 11
28.7970039093331707
 21
24.2895792241152293
 31
0.0
  0
ARC
  5
469
  8
0
 10
28.5801618312468086
 20
24.1651625324239205
 30
0.0
 40
0.2500000000004411
 50
29.8457542160911302
 51
150.1538954317938135
  0
LINE
  5
46A
  8
0
 10
28.3633205139474285
 20
24.2895805500583997
 30
0.0
 11
28.2305213653878617
 21
24.0580090297157092
 31
0.0
  0
LINE
  5
46B
  8
0
 10
28.2305213653878617
 20
24.0580090297157092
 30
0.0
 11
28.0974837982491294
 21
24.2895799358710107
 31
0.0
  0
ARC
  5
46C
  8
0
 10
27.8806418573608497
 20
24.1651630050619914
 30
0.0
 40
0.2500000000002712
 50
29.8458173977619801
 51
150.1539586130232067
  0
LINE
  5
46D
  8
0
 10
27.6638004028634512
 20
24.2895807835809485
 30
0.0
 11
27.5305244171456707
 21
24.057293773978401
 31
0.0
  0
LINE
  5
46E
  8
0
 10
27.5305244171456707
 20
24.057293773978401
 30
0.0
 11
27.397010012848849
 21
24.2895794986998013
 31
0.0
  0
ARC
  5
46F
  8
0
 10
27.1801685590331807
 20
24.1651617189912216
 30
0.0
 40
0.2500000000010166
 50
29.84604170121181
 51
150.1541829159087911
  0
LINE
  5
470
  8
0
 10
26.9633266174630606
 20
24.2895786486134995
 30
0.0
 11
26.8305274689034903
 21
24.0580090297157092
 31
0.0
  0
LINE
  5
471
  8
0
 10
26.8305274689034903
 20
24.0580090297157092
 30
0.0
 11
26.6974899017648113
 21
24.2895800252370613
 31
0.0
  0
ARC
  5
472
  8
0
 10
26.4806487089599614
 20
24.1651617906286518
 30
0.0
 40
0.2500000000002084
 50
29.846161899074481
 51
150.1543031156521124
  0
LINE
  5
473
  8
0
 10
26.2638065063790691
 20
24.2895782653416106
 30
0.0
 11
26.1307689392404008
 21
24.0576514018470498
 31
0.0
  0
LINE
  5
474
  8
0
 10
26.1307689392404008
 20
24.0576514018470498
 30
0.0
 11
25.9974929535226806
 21
24.289576399196271
 31
0.0
  0
ARC
  5
475
  8
0
 10
25.780651193610769
 20
24.1651591529707801
 30
0.0
 40
0.2500000000000622
 50
29.8459007397853604
 51
150.1540419548892089
  0
LINE
  5
476
  8
0
 10
25.5638095581368816
 20
24.2895766160740898
 30
0.0
 11
25.4307719909982097
 21
24.0578898204261513
 31
0.0
  0
LINE
  5
477
  8
0
 10
25.4307719909982097
 20
24.0578898204261513
 30
0.0
 11
25.2977344238595414
 21
24.28957945493908
 31
0.0
  0
ARC
  5
478
  8
0
 10
25.0808924205231314
 20
24.1651626329681903
 30
0.0
 40
0.2500000000005639
 50
29.8457886396107206
 51
150.1539298549066075
  0
LINE
  5
479
  8
0
 10
24.8640510284737992
 20
24.2895805203251491
 30
0.0
 11
24.7307750427560293
 21
24.057293773978401
 31
0.0
  0
LINE
  5
47A
  8
0
 10
24.7307750427560293
 20
24.057293773978401
 30
0.0
 11
24.5972606384591508
 21
24.289579498699581
 31
0.0
  0
ARC
  5
47B
  8
0
 10
24.3804191846435288
 20
24.1651617189919499
 30
0.0
 40
0.2500000000004935
 50
29.8460417010290193
 51
150.1541829161442081
  0
LINE
  5
47C
  8
0
 10
24.1635772430734086
 20
24.2895786486130696
 30
0.0
 11
24.0307780945138383
 21
24.0580090297157092
 31
0.0
  0
LINE
  5
47D
  8
0
 10
24.0307780945138383
 20
24.0580090297157092
 30
0.0
 11
23.8977405273751593
 21
24.2895800252371004
 31
0.0
  0
ARC
  5
47E
  8
0
 10
23.6808993345704302
 20
24.1651617906283604
 30
0.0
 40
0.2500000000002724
 50
29.8461618991523991
 51
150.1543031157110875
  0
LINE
  5
47F
  8
0
 10
23.4640571319894207
 20
24.2895782653410883
 30
0.0
 11
23.3310195648507488
 21
24.0576514018470498
 31
0.0
  0
LINE
  5
480
  8
0
 10
23.3310195648507488
 20
24.0576514018470498
 30
0.0
 11
23.1977435791329683
 21
24.2895763991962497
 31
0.0
  0
ARC
  5
481
  8
0
 10
22.9809018192209997
 20
24.1651591529709187
 30
0.0
 40
0.2500000000000337
 50
29.8459007397478118
 51
150.1540419548431942
  0
LINE
  5
482
  8
0
 10
22.7640601837472296
 20
24.2895766160744309
 30
0.0
 11
22.6310226166085613
 21
24.0578898204261513
 31
0.0
  0
LINE
  5
483
  8
0
 10
22.6310226166085613
 20
24.0578898204261513
 30
0.0
 11
22.4979850494699498
 21
24.2895784297202511
 31
0.0
  0
ARC
  5
484
  8
0
 10
22.2811432893290693
 20
24.1651611838928417
 30
0.0
 40
0.2500000000005498
 50
29.8459006345386086
 51
150.1540418492554068
  0
LINE
  5
485
  8
0
 10
22.0643016540841508
 20
24.2895786473961692
 30
0.0
 11
21.9315025055245805
 21
24.0580090297157092
 31
0.0
  0
LINE
  5
486
  8
0
 10
21.9315025055245805
 20
24.0580090297157092
 30
0.0
 11
21.7984649383859015
 21
24.2896326793128985
 31
0.0
  0
ARC
  5
487
  8
0
 10
21.5815890413154001
 20
24.1652749482714313
 30
0.0
 40
0.2499999999998411
 50
29.8301763680486083
 51
150.1383251283295124
  0
LINE
  5
488
  8
0
 10
21.3647815430001593
 20
24.2897518886024493
 30
0.0
 11
21.2315055572823894
 21
24.0580090297157092
 31
0.0
  0
LINE
  5
489
  8
0
 10
21.2315055572823894
 20
24.0580090297157092
 30
0.0
 11
21.1354228699044597
 21
24.2721089137489088
 31
0.0
  0
ARC
  5
48A
  8
0
 10
20.9073737842477989
 20
24.1696705687255999
 30
0.0
 40
0.2499999999999131
 50
24.1893434676055108
 51
123.4720877201694975
  0
ARC
  5
48B
  8
0
 10
21.4315780831813107
 20
23.3773890766599202
 30
0.0
 40
1.2000000478712209
 50
123.4864058226498003
 51
179.9974160076974101
  0
LINE
  5
48C
  8
0
 10
20.2315780365304292
 20
23.3774431956702884
 30
0.0
 11
20.23110119937229
 21
22.1150168193273515
 31
0.0
  0
ARC
  5
48D
  8
0
 10
20.4811011789365693
 20
22.1149156921603307
 30
0.0
 40
0.250000000017688
 50
179.9768233599230882
 51
269.9685311702465924
  0
LINE
  5
48E
  8
0
 10
20.4809638702706707
 20
21.8649157298499794
 30
0.0
 11
36.2308952057198894
 21
21.8649157298499794
 31
0.0
  0
LINE
  5
48F
  8
0
 10
36.2308952057198894
 20
21.8649157298499794
 30
0.0
 11
36.2308952057198894
 21
18.8648947490150185
 31
0.0
  0
LINE
  5
490
  8
0
 10
36.2308952057198894
 20
18.8648947490150185
 30
0.0
 11
36.8045303070382488
 21
18.0456885112220498
 31
0.0
  0
LINE
  5
491
  8
0
 10
36.8045303070382488
 20
18.0456885112220498
 30
0.0
 11
36.8045303070382488
 21
14.9711617244178505
 31
0.0
  0
LINE
  5
492
  8
0
 10
36.8045303070382488
 20
14.9711617244178505
 30
0.0
 11
36.2308952057198894
 21
14.1520746959144308
 31
0.0
  0
LINE
  5
493
  8
0
 10
36.2308952057198894
 20
11.8648947490150203
 30
0.0
 11
36.2308952057198894
 21
14.1520746959144308
 31
0.0
  0
ENDBLK
  5
495
  8
0
  0
ENDSEC
  0
SECTION
  2
ENTITIES
  0
LINE
  5
27D
  8
0
 10
2106.8899840872882123
 20
1810.9358754098059308
 30
0.0
 11
2107.4636191886070264
 21
1810.116669172012962
 31
0.0
  0
LINE
  5
27E
  8
0
 10
2107.4636191886070264
 20
1810.116669172012962
 30
0.0
 11
2107.4636191886070264
 21
1807.0421423852089902
 31
0.0
  0
LINE
  5
27F
  8
0
 10
2107.4636191886070264
 20
1807.0421423852089902
 30
0.0
 11
2106.8899840872882123
 21
1806.2230553567048901
 31
0.0
  0
LINE
  5
280
  8
0
 10
2106.8899840872882123
 20
1806.2230553567048901
 30
0.0
 11
2106.8899840872882123
 21
1803.1857943474899457
 31
0.0
  0
ARC
  5
281
  8
0
 10
2107.1399840866338309
 20
1803.1858124468640199
 30
0.0
 40
0.2500000000007364
 50
180.0041480710129917
 51
270.0231681522542999
  0
LINE
  5
282
  8
0
 10
2107.1400851767662061
 20
1802.9358124673010479
 30
0.0
 11
2108.2318038504718061
 21
1802.9358124673010479
 31
0.0
  0
ARC
  5
283
  8
0
 10
2108.2319122132380471
 20
1803.1858124438160758
 30
0.0
 40
0.249999999999922
 50
269.9751650825093066
 51
334.6420434634159164
  0
LINE
  5
284
  8
0
 10
2108.4578246634600873
 20
1803.0787444054728894
 30
0.0
 11
2109.8659247916339154
 21
1806.0472941338659894
 31
0.0
  0
ARC
  5
285
  8
0
 10
2109.6400050952229321
 20
1806.1543468814879816
 30
0.0
 40
0.2500000000001039
 50
334.6459214247183809
 51
0.0266777601449775
  0
LINE
  5
286
  8
0
 10
2109.8900050681231733
 20
1806.1544632852360337
 30
0.0
 11
2109.8900050681231733
 21
1840.829900258743919
 31
0.0
  0
ARC
  5
287
  8
0
 10
2109.6400050770657799
 20
1840.8299676029889724
 30
0.0
 40
0.2500000001281724
 50
359.9845658357431262
 51
19.8014567633572014
  0
LINE
  5
288
  8
0
 10
2109.8752231162188764
 20
1840.9146580636149793
 30
0.0
 11
2108.7630004447100873
 21
1844.0009865700840237
 31
0.0
  0
ARC
  5
289
  8
0
 10
2108.5277702526841495
 20
1843.9163298704449971
 30
0.0
 40
0.2500000000687361
 50
19.7932332831530111
 51
90.020384818292527
  0
LINE
  5
28A
  8
0
 10
2108.5276813071368451
 20
1844.1663298546909573
 30
0.0
 11
2107.1400851767662061
 21
1844.1663298546909573
 31
0.0
  0
ARC
  5
28B
  8
0
 10
2107.1399840668418619
 20
1843.9163298751379898
 30
0.0
 40
0.2500000000000128
 50
89.9768273117322366
 51
180.0231726882709893
  0
LINE
  5
28C
  8
0
 10
2106.8899840872882123
 20
1843.9162287652141003
 30
0.0
 11
2106.8899840872882123
 21
1832.6358113228920956
 31
0.0
  0
LINE
  5
28D
  8
0
 10
2106.8899840872882123
 20
1832.6358113228920956
 30
0.0
 11
2104.5539226096270795
 21
1832.6358113228920956
 31
0.0
  0
ARC
  5
28E
  8
0
 10
2104.5538215194937948
 20
1832.3858113433300332
 30
0.0
 40
0.2499999999998821
 50
89.9768318475223339
 51
179.9958519291513142
  0
LINE
  5
28F
  8
0
 10
2104.3038215201490857
 20
1832.3858294427041074
 30
0.0
 11
2104.3038215201490857
 21
1831.8858656823279034
 31
0.0
  0
ARC
  5
290
  8
0
 10
2104.5538215194937948
 20
1831.8858837817010681
 30
0.0
 40
0.2499999999998268
 50
180.0041480708372887
 51
270.0231681524858232
  0
LINE
  5
291
  8
0
 10
2104.5539226096270795
 20
1831.6358838021399151
 30
0.0
 11
2106.8899840872882123
 21
1831.6358838021399151
 31
0.0
  0
LINE
  5
292
  8
0
 10
2106.8899840872882123
 20
1831.6358838021399151
 30
0.0
 11
2106.8899840872882123
 21
1829.4358763634800198
 31
0.0
  0
LINE
  5
293
  8
0
 10
2106.8899840872882123
 20
1829.4358763634800198
 30
0.0
 11
2093.8899726431959607
 21
1829.4358763634800198
 31
0.0
  0
LINE
  5
294
  8
0
 10
2093.8899726431959607
 20
1829.4358763634800198
 30
0.0
 11
2093.8899726431959607
 21
1831.6358838021399151
 31
0.0
  0
LINE
  5
295
  8
0
 10
2093.8899726431959607
 20
1831.6358838021399151
 30
0.0
 11
2096.2262725394371046
 21
1831.6358838021399151
 31
0.0
  0
ARC
  5
296
  8
0
 10
2096.226135210989014
 20
1831.885883764422033
 30
0.0
 40
0.2500000000002122
 50
270.0314733634482991
 51
359.9958558893023906
  0
LINE
  5
297
  8
0
 10
2096.4761352103350873
 20
1831.8858656823279034
 30
0.0
 11
2096.4761352103350873
 21
1832.3858294427041074
 31
0.0
  0
ARC
  5
298
  8
0
 10
2096.226135210989014
 20
1832.3858113606099778
 30
0.0
 40
0.249999999999827
 50
0.0041441106007024
 51
89.968526636617554
  0
LINE
  5
299
  8
0
 10
2096.2262725394371046
 20
1832.6358113228920956
 30
0.0
 11
2093.8899726431959607
 21
1832.6358113228920956
 31
0.0
  0
LINE
  5
29A
  8
0
 10
2093.8899726431959607
 20
1832.6358113228920956
 30
0.0
 11
2093.8899726431959607
 21
1843.916347974502969
 31
0.0
  0
ARC
  5
29B
  8
0
 10
2093.6399726438498874
 20
1843.9163298924099763
 30
0.0
 40
0.2500000000001681
 50
0.00414411068865
 51
89.9685266365589769
  0
LINE
  5
29C
  8
0
 10
2093.6401099722979779
 20
1844.1663298546909573
 30
0.0
 11
2092.6900119345777966
 21
1844.1663298546909573
 31
0.0
  0
LINE
  5
29D
  8
0
 10
2092.6900119345777966
 20
1844.1663298546909573
 30
0.0
 11
2092.6900119345777966
 21
1850.3163371026159894
 31
0.0
  0
ARC
  5
29E
  8
0
 10
2092.4400119352330876
 20
1850.3163190032419152
 30
0.0
 40
0.250000000000509
 50
0.0041480708372737
 51
90.0231681521958933
  0
LINE
  5
29F
  8
0
 10
2092.4399108451011671
 20
1850.5663189828039776
 30
0.0
 11
2091.1400527518389936
 21
1850.5663189828039776
 31
0.0
  0
ARC
  5
2A0
  8
0
 10
2091.1399516617061636
 20
1850.3163190032419152
 30
0.0
 40
0.250000000000152
 50
89.9768318475874906
 51
179.9958519290958918
  0
LINE
  5
2A1
  8
0
 10
2090.8899516623619093
 20
1850.3163371026159894
 30
0.0
 11
2090.8899516623619093
 21
1836.1858639657139065
 31
0.0
  0
LINE
  5
2A2
  8
0
 10
2090.8899516623619093
 20
1836.1858639657139065
 30
0.0
 11
2081.0861796897052045
 21
1836.1858639657139065
 31
0.0
  0
LINE
  5
2A3
  8
0
 10
2081.0861796897052045
 20
1836.1858639657139065
 30
0.0
 11
2081.0861796897052045
 21
1851.9306693017128964
 31
0.0
  0
ARC
  5
2A4
  8
0
 10
2080.586179064263888
 20
1851.9306324366471017
 30
0.0
 40
0.5000006268001773
 50
0.0042244199786931
 51
89.9957755799716352
  0
LINE
  5
2A5
  8
0
 10
2080.5862159293287732
 20
1852.4306330620891003
 30
0.0
 11
2080.4076404135821576
 21
1852.4306330620891003
 31
0.0
  0
ARC
  5
2A6
  8
0
 10
2080.4076205355431739
 20
1851.9306330624860948
 30
0.0
 40
0.4999999999978436
 50
89.9977221445023048
 51
132.7192122210344962
  0
ARC
  5
2A7
  8
0
 10
2082.2238404507288578
 20
1849.9492822341110241
 30
0.0
 40
3.1878226876744051
 50
132.5429481220342041
 51
180.0341112675282886
  0
LINE
  5
2A8
  8
0
 10
2079.0360183280108686
 20
1849.947384351456094
 30
0.0
 11
2079.0360183280108686
 21
1834.6858534752971082
 31
0.0
  0
ARC
  5
2A9
  8
0
 10
2079.5360183267011962
 20
1834.6858896740438922
 30
0.0
 40
0.4999999999998811
 50
180.0041480708372887
 51
270.0231681524173837
  0
LINE
  5
2AA
  8
0
 10
2079.5362205069659467
 20
1834.1858897149209042
 30
0.0
 11
2090.8868522208331342
 21
1834.1858897149209042
 31
0.0
  0
LINE
  5
2AB
  8
0
 10
2090.8868522208331342
 20
1834.1858897149209042
 30
0.0
 11
2090.8906669180992139
 21
1827.1732840478059643
 31
0.0
  0
ARC
  5
2AC
  8
0
 10
2092.9630957984149973
 20
1827.4502154100700864
 30
0.0
 40
2.0908496941135781
 50
187.6111450380952874
 51
222.3367212871606
  0
ARC
  5
2AD
  8
0
 10
2091.6022872729340634
 20
1826.2104864859159079
 30
0.0
 40
0.2500000000003472
 50
222.3548080901933872
 51
335.7761024438905224
  0
LINE
  5
2AE
  8
0
 10
2091.830274538338017
 20
1826.107910627091087
 30
0.0
 11
2091.8908328574298139
 21
1826.2426171242830151
 31
0.0
  0
LINE
  5
2AF
  8
0
 10
2091.8908328574298139
 20
1826.2426171242830151
 30
0.0
 11
2092.0238704245689405
 21
1826.0111423036019005
 31
0.0
  0
ARC
  5
2B0
  8
0
 10
2092.2407133141150553
 20
1826.1355575810121081
 30
0.0
 40
0.2500000000002128
 50
209.8453805241811096
 51
330.1535217482955886
  0
LINE
  5
2B1
  8
0
 10
2092.4575538199537732
 20
1826.0111381491399243
 30
0.0
 11
2092.5905913870928998
 21
1826.2428555428630261
 31
0.0
  0
LINE
  5
2B2
  8
0
 10
2092.5905913870928998
 20
1826.2428555428630261
 30
0.0
 11
2092.7233905356529249
 21
1826.0113511025549542
 31
0.0
  0
ARC
  5
2B3
  8
0
 10
2092.9402664327230923
 20
1826.135708833596027
 30
0.0
 40
0.2499999999996149
 50
209.8301763679581882
 51
330.1383251284199218
  0
LINE
  5
2B4
  8
0
 10
2093.1570739310382123
 20
1826.0112318932649487
 30
0.0
 11
2093.2901114981768842
 21
1826.2428555428630261
 31
0.0
  0
LINE
  5
2B5
  8
0
 10
2093.2901114981768842
 20
1826.2428555428630261
 30
0.0
 11
2093.4231490653160108
 21
1826.0111379180930271
 31
0.0
  0
ARC
  5
2B6
  8
0
 10
2093.6399907007898946
 20
1826.1355553811949903
 30
0.0
 40
0.2499999999998227
 50
209.8459580449388113
 51
330.1540992602402866
  0
LINE
  5
2B7
  8
0
 10
2093.8568324607008435
 20
1826.0111381349699968
 30
0.0
 11
2093.9901084464190717
 21
1826.2430939614419003
 31
0.0
  0
LINE
  5
2B8
  8
0
 10
2093.9901084464190717
 20
1826.2430939614419003
 30
0.0
 11
2094.1231460135581983
 21
1826.0111399529630489
 31
0.0
  0
ARC
  5
2B9
  8
0
 10
2094.3399873422281416
 20
1826.1355579507780931
 30
0.0
 40
0.2499999999998034
 50
209.8460993316602128
 51
330.1542405478411979
  0
LINE
  5
2BA
  8
0
 10
2094.5568294089439405
 20
1826.0111412392709553
 30
0.0
 11
2094.6898669760821576
 21
1826.2426171242830151
 31
0.0
  0
LINE
  5
2BB
  8
0
 10
2094.6898669760821576
 20
1826.2426171242830151
 30
0.0
 11
2094.8226661246421827
 21
1826.0111462935210511
 31
0.0
  0
ARC
  5
2BC
  8
0
 10
2095.0395080677708393
 20
1826.1355632204240464
 30
0.0
 40
0.2500000000001996
 50
209.8458163657230102
 51
330.1539575811016789
  0
LINE
  5
2BD
  8
0
 10
2095.2563495200279249
 20
1826.0111454380000851
 30
0.0
 11
2095.3898639243238904
 21
1826.2434515893100979
 31
0.0
  0
LINE
  5
2BE
  8
0
 10
2095.3898639243238904
 20
1826.2434515893100979
 30
0.0
 11
2095.5231399100421186
 21
1826.0111407321469414
 31
0.0
  0
ARC
  5
2BF
  8
0
 10
2095.7399821744438668
 20
1826.1355570991140667
 30
0.0
 40
0.2500000000002677
 50
209.8456684148904969
 51
330.1538096318673183
  0
LINE
  5
2C0
  8
0
 10
2095.9568233054278608
 20
1826.0111387567619659
 30
0.0
 11
2096.0898608725669874
 21
1826.2428555428630261
 31
0.0
  0
LINE
  5
2C1
  8
0
 10
2096.0898608725669874
 20
1826.2428555428630261
 30
0.0
 11
2096.2228984397052045
 21
1826.0111379180930271
 31
0.0
  0
ARC
  5
2C2
  8
0
 10
2096.4397400751790883
 20
1826.1355553811949903
 30
0.0
 40
0.2499999999998227
 50
209.8459580449388113
 51
330.1540992602402866
  0
LINE
  5
2C3
  8
0
 10
2096.6565818350909467
 20
1826.0111381349699968
 30
0.0
 11
2096.7898578208091749
 21
1826.2430939614419003
 31
0.0
  0
LINE
  5
2C4
  8
0
 10
2096.7898578208091749
 20
1826.2430939614419003
 30
0.0
 11
2096.9228953879469373
 21
1826.0111399529630489
 31
0.0
  0
ARC
  5
2C5
  8
0
 10
2097.1397367166168806
 20
1826.1355579507790026
 30
0.0
 40
0.2500000000002061
 50
209.8460993317686132
 51
330.1542405476304225
  0
LINE
  5
2C6
  8
0
 10
2097.3565787833331342
 20
1826.0111412392709553
 30
0.0
 11
2097.4896163504718061
 21
1826.2426171242830151
 31
0.0
  0
LINE
  5
2C7
  8
0
 10
2097.4896163504718061
 20
1826.2426171242830151
 30
0.0
 11
2097.6224154990309216
 21
1826.0111462935219606
 31
0.0
  0
ARC
  5
2C8
  8
0
 10
2097.839257442160033
 20
1826.1355632204240464
 30
0.0
 40
0.2500000000000866
 50
209.8458163657041098
 51
330.1539575811639224
  0
LINE
  5
2C9
  8
0
 10
2098.0560988944171186
 20
1826.0111454380000851
 30
0.0
 11
2098.1896132987139936
 21
1826.2434515893100979
 31
0.0
  0
LINE
  5
2CA
  8
0
 10
2098.1896132987139936
 20
1826.2434515893100979
 30
0.0
 11
2098.3228892844322218
 21
1826.0111441530889351
 31
0.0
  0
ARC
  5
2CB
  8
0
 10
2098.5397307373700642
 20
1826.1355619343239596
 30
0.0
 40
0.2500000000001851
 50
209.8460421048696958
 51
330.1541833202588805
  0
LINE
  5
2CC
  8
0
 10
2098.7565726798179639
 20
1826.0111450062329368
 30
0.0
 11
2098.8896102469561811
 21
1826.2426171242830151
 31
0.0
  0
LINE
  5
2CD
  8
0
 10
2098.8896102469561811
 20
1826.2426171242830151
 30
0.0
 11
2099.0224093955162061
 21
1826.0111443986420454
 31
0.0
  0
ARC
  5
2CE
  8
0
 10
2099.2392507128179204
 20
1826.1355624162699769
 30
0.0
 40
0.2500000000003916
 50
209.8461045666633993
 51
330.1542457824403982
  0
LINE
  5
2CF
  8
0
 10
2099.4560927909019483
 20
1826.0111457245739075
 30
0.0
 11
2099.5891303580401654
 21
1826.2426171242830151
 31
0.0
  0
LINE
  5
2D0
  8
0
 10
2099.5891303580401654
 20
1826.2426171242830151
 30
0.0
 11
2099.7219295066001905
 21
1826.0111427949880181
 31
0.0
  0
ARC
  5
2D1
  8
0
 10
2099.9387712042930616
 20
1826.1355601496520649
 30
0.0
 40
0.2499999999999219
 50
209.8459293923793894
 51
330.1540706075305138
  0
LINE
  5
2D2
  8
0
 10
2100.1556129019859327
 20
1826.0111427949871086
 30
0.0
 11
2100.2886504691241498
 21
1826.2426171242830151
 31
0.0
  0
LINE
  5
2D3
  8
0
 10
2100.2886504691241498
 20
1826.2426171242830151
 30
0.0
 11
2100.4214496176841749
 21
1826.0111446927301131
 31
0.0
  0
ARC
  5
2D4
  8
0
 10
2100.6382919405209577
 20
1826.1355609578490657
 30
0.0
 40
0.2500000000000368
 50
209.8456415040494107
 51
330.1537827216852747
  0
LINE
  5
2D5
  8
0
 10
2100.8551330130699171
 20
1826.011142513654022
 30
0.0
 11
2100.9881692823828416
 21
1826.2426196558828906
 31
0.0
  0
LINE
  5
2D6
  8
0
 10
2100.9881692823828416
 20
1826.2426196558828906
 30
0.0
 11
2101.1209703523568351
 21
1826.011143875254902
 31
0.0
  0
ARC
  5
2D7
  8
0
 10
2101.3378126751940727
 20
1826.135560140374082
 30
0.0
 40
0.2500000000000014
 50
209.8456415040353136
 51
325.5834454664920941
  0
ARC
  5
2D8
  8
0
 10
2101.750287788840069
 20
1825.8529574499730188
 30
0.0
 40
0.2500000000000284
 50
90.0
 51
145.5834454664868076
  0
LINE
  5
2D9
  8
0
 10
2101.750287788840069
 20
1826.1029574499730188
 30
0.0
 11
2101.9448718588951124
 21
1826.1029574499730188
 31
0.0
  0
ARC
  5
2DA
  8
0
 10
2101.9456445688101667
 20
1825.1060834839408926
 30
0.0
 40
0.9968742655082315
 50
59.9499521830403665
 51
90.0444118410130869
  0
LINE
  5
2DB
  8
0
 10
2102.4448356192710889
 20
1825.9689662085179407
 30
0.0
 11
2103.6509952109458936
 21
1825.2725455389620492
 31
0.0
  0
ARC
  5
2DC
  8
0
 10
2103.091160825696079
 20
1824.6029456146889061
 30
0.0
 40
0.8727992882070472
 50
5.4542904740563536
 51
50.1019164411885285
  0
ARC
  5
2DD
  8
0
 10
2103.0911629078759688
 20
1824.7688893759338953
 30
0.0
 40
0.8727992879067357
 50
309.8979054092666274
 51
354.5442718945072897
  0
LINE
  5
2DE
  8
0
 10
2103.6509952109458936
 20
1824.0992877112039423
 30
0.0
 11
2102.4448356192710889
 21
1823.4028670416480509
 31
0.0
  0
ARC
  5
2DF
  8
0
 10
2101.9456445688110762
 20
1824.2657497662230526
 30
0.0
 40
0.996874265507283
 50
269.9555881589737965
 51
300.0500478169760754
  0
LINE
  5
2E0
  8
0
 10
2101.9448718588951124
 20
1823.2688758001929727
 30
0.0
 11
2101.8251480162170992
 21
1823.2422018225349802
 31
0.0
  0
ARC
  5
2E1
  8
0
 10
2101.7707820173541222
 20
1823.486218908346018
 30
0.0
 40
0.2500000000000611
 50
210.0099354702799133
 51
282.5601247735339143
  0
ARC
  5
2E2
  8
0
 10
2101.3378126736388367
 20
1823.2361438248140075
 30
0.0
 40
0.2500000000004838
 50
30.009935470265269
 51
150.1543577792409963
  0
LINE
  5
2E3
  8
0
 10
2101.1209703523568351
 20
1823.3605600926480292
 30
0.0
 11
2100.9882039515391625
 21
1823.1290459775739237
 31
0.0
  0
LINE
  5
2E4
  8
0
 10
2100.9882039515391625
 20
1823.1290459775739237
 30
0.0
 11
2100.8551330130699171
 21
1823.360563083775105
 31
0.0
  0
ARC
  5
2E5
  8
0
 10
2100.6382919389648123
 20
1823.2361446422889912
 30
0.0
 40
0.2500000000004948
 50
29.8462165620015512
 51
150.1543577792382109
  0
LINE
  5
2E6
  8
0
 10
2100.4214496176841749
 20
1823.3605609101221035
 30
0.0
 11
2100.2886504691241498
 21
1823.1289896905070691
 31
0.0
  0
LINE
  5
2E7
  8
0
 10
2100.2886504691241498
 20
1823.1289896905070691
 30
0.0
 11
2100.1556129019859327
 21
1823.3605628144300681
 31
0.0
  0
ARC
  5
2E8
  8
0
 10
2099.9387712042930616
 20
1823.2361454597639749
 30
0.0
 40
0.2500000000004172
 50
29.8459293926034412
 51
150.1540706074135016
  0
LINE
  5
2E9
  8
0
 10
2099.7219295066001905
 20
1823.3605628144300681
 30
0.0
 11
2099.5891303580401654
 21
1823.1289896905070691
 31
0.0
  0
LINE
  5
2EA
  8
0
 10
2099.5891303580401654
 20
1823.1289896905070691
 30
0.0
 11
2099.4560927909019483
 21
1823.3605598849060243
 31
0.0
  0
ARC
  5
2EB
  8
0
 10
2099.2392507128151919
 20
1823.2361431932149571
 30
0.0
 40
0.2500000000004411
 50
29.8457542160911302
 51
150.1538954317938135
  0
LINE
  5
2EC
  8
0
 10
2099.0224093955162061
 20
1823.3605612108490277
 30
0.0
 11
2098.8896102469561811
 21
1823.1289896905070691
 31
0.0
  0
LINE
  5
2ED
  8
0
 10
2098.8896102469561811
 20
1823.1289896905070691
 30
0.0
 11
2098.7565726798179639
 21
1823.360560596662026
 31
0.0
  0
ARC
  5
2EE
  8
0
 10
2098.5397307389289381
 20
1823.2361436658529783
 30
0.0
 40
0.2500000000002712
 50
29.8458173977619801
 51
150.1539586130232067
  0
LINE
  5
2EF
  8
0
 10
2098.3228892844322218
 20
1823.3605614443720242
 30
0.0
 11
2098.1896132987139936
 21
1823.1282744347690823
 31
0.0
  0
LINE
  5
2F0
  8
0
 10
2098.1896132987139936
 20
1823.1282744347690823
 30
0.0
 11
2098.0560988944171186
 21
1823.3605601594908876
 31
0.0
  0
ARC
  5
2F1
  8
0
 10
2097.839257440601159
 20
1823.2361423797819953
 30
0.0
 40
0.2500000000010166
 50
29.84604170121181
 51
150.1541829159087911
  0
LINE
  5
2F2
  8
0
 10
2097.6224154990309216
 20
1823.3605593094050619
 30
0.0
 11
2097.4896163504718061
 21
1823.1289896905070691
 31
0.0
  0
LINE
  5
2F3
  8
0
 10
2097.4896163504718061
 20
1823.1289896905070691
 30
0.0
 11
2097.3565787833331342
 21
1823.3605606860280659
 31
0.0
  0
ARC
  5
2F4
  8
0
 10
2097.1397375905280569
 20
1823.2361424514199371
 30
0.0
 40
0.2500000000002084
 50
29.846161899074481
 51
150.1543031156521124
  0
LINE
  5
2F5
  8
0
 10
2096.9228953879469373
 20
1823.3605589261330806
 30
0.0
 11
2096.7898578208091749
 21
1823.128632062637962
 31
0.0
  0
LINE
  5
2F6
  8
0
 10
2096.7898578208091749
 20
1823.128632062637962
 30
0.0
 11
2096.6565818350909467
 21
1823.3605570599870589
 31
0.0
  0
ARC
  5
2F7
  8
0
 10
2096.4397400751790883
 20
1823.2361398137620654
 30
0.0
 40
0.2500000000000622
 50
29.8459007397853604
 51
150.1540419548892089
  0
LINE
  5
2F8
  8
0
 10
2096.2228984397052045
 20
1823.3605572768649381
 30
0.0
 11
2096.0898608725669874
 21
1823.1288704812170636
 31
0.0
  0
LINE
  5
2F9
  8
0
 10
2096.0898608725669874
 20
1823.1288704812170636
 30
0.0
 11
2095.9568233054278608
 21
1823.3605601157300953
 31
0.0
  0
ARC
  5
2FA
  8
0
 10
2095.7399813020911097
 20
1823.2361432937589143
 30
0.0
 40
0.2500000000005639
 50
29.8457886396107206
 51
150.1539298549066075
  0
LINE
  5
2FB
  8
0
 10
2095.5231399100421186
 20
1823.3605611811160543
 30
0.0
 11
2095.3898639243238904
 21
1823.1282744347690823
 31
0.0
  0
LINE
  5
2FC
  8
0
 10
2095.3898639243238904
 20
1823.1282744347690823
 30
0.0
 11
2095.2563495200279249
 21
1823.3605601594899781
 31
0.0
  0
ARC
  5
2FD
  8
0
 10
2095.0395080662119653
 20
1823.2361423797829048
 30
0.0
 40
0.2500000000004935
 50
29.8460417010290193
 51
150.1541829161442081
  0
LINE
  5
2FE
  8
0
 10
2094.8226661246421827
 20
1823.360559309403925
 30
0.0
 11
2094.6898669760821576
 21
1823.1289896905070691
 31
0.0
  0
LINE
  5
2FF
  8
0
 10
2094.6898669760821576
 20
1823.1289896905070691
 30
0.0
 11
2094.5568294089439405
 21
1823.3605606860280659
 31
0.0
  0
ARC
  5
300
  8
0
 10
2094.3399882161379537
 20
1823.2361424514190276
 30
0.0
 40
0.2500000000002724
 50
29.8461618991523991
 51
150.1543031157110875
  0
LINE
  5
301
  8
0
 10
2094.1231460135581983
 20
1823.3605589261319437
 30
0.0
 11
2093.9901084464190717
 21
1823.128632062637962
 31
0.0
  0
LINE
  5
302
  8
0
 10
2093.9901084464190717
 20
1823.128632062637962
 30
0.0
 11
2093.8568324607008435
 21
1823.3605570599870589
 31
0.0
  0
ARC
  5
303
  8
0
 10
2093.6399907007889851
 20
1823.2361398137620654
 30
0.0
 40
0.2500000000000337
 50
29.8459007397478118
 51
150.1540419548431942
  0
LINE
  5
304
  8
0
 10
2093.4231490653160108
 20
1823.3605572768649381
 30
0.0
 11
2093.2901114981768842
 21
1823.1288704812170636
 31
0.0
  0
LINE
  5
305
  8
0
 10
2093.2901114981768842
 20
1823.1288704812170636
 30
0.0
 11
2093.1570739310382123
 21
1823.3605590905110603
 31
0.0
  0
ARC
  5
306
  8
0
 10
2092.9402321708980708
 20
1823.2361418446839707
 30
0.0
 40
0.2500000000005498
 50
29.8459006345386086
 51
150.1540418492554068
  0
LINE
  5
307
  8
0
 10
2092.7233905356529249
 20
1823.3605593081870211
 30
0.0
 11
2092.5905913870928998
 21
1823.1289896905070691
 31
0.0
  0
LINE
  5
308
  8
0
 10
2092.5905913870928998
 20
1823.1289896905070691
 30
0.0
 11
2092.4575538199537732
 21
1823.3606133401040097
 31
0.0
  0
ARC
  5
309
  8
0
 10
2092.2406779228840605
 20
1823.2362556090620274
 30
0.0
 40
0.2499999999998411
 50
29.8301763680486083
 51
150.1383251283295124
  0
LINE
  5
30A
  8
0
 10
2092.0238704245689405
 20
1823.3607325493931057
 30
0.0
 11
2091.8905944388511671
 21
1823.1289896905070691
 31
0.0
  0
LINE
  5
30B
  8
0
 10
2091.8905944388511671
 20
1823.1289896905070691
 30
0.0
 11
2091.7945117514727826
 21
1823.3430895745400449
 31
0.0
  0
ARC
  5
30C
  8
0
 10
2091.566462665815834
 20
1823.240651229516061
 30
0.0
 40
0.2499999999999131
 50
24.1893434676055108
 51
123.4720877201694975
  0
ARC
  5
30D
  8
0
 10
2092.0906669647488343
 20
1822.4483697374510029
 30
0.0
 40
1.2000000478712209
 50
123.4864058226498003
 51
179.9974160076974101
  0
LINE
  5
30E
  8
0
 10
2090.8906669180992139
 20
1822.4484238564609768
 30
0.0
 11
2090.8901900809410108
 21
1821.185997480117976
 31
0.0
  0
ARC
  5
30F
  8
0
 10
2091.1401900605051196
 20
1821.1858963529509765
 30
0.0
 40
0.250000000017688
 50
179.9768233599230882
 51
269.9685311702465924
  0
LINE
  5
310
  8
0
 10
2091.1400527518389936
 20
1820.9358963906408917
 30
0.0
 11
2106.8899840872882123
 21
1820.9358963906408917
 31
0.0
  0
LINE
  5
311
  8
0
 10
2106.8899840872882123
 20
1820.9358963906408917
 30
0.0
 11
2106.8899840872882123
 21
1817.9358754098059308
 31
0.0
  0
LINE
  5
312
  8
0
 10
2106.8899840872882123
 20
1817.9358754098059308
 30
0.0
 11
2107.4636191886070264
 21
1817.116669172012962
 31
0.0
  0
LINE
  5
313
  8
0
 10
2107.4636191886070264
 20
1817.116669172012962
 30
0.0
 11
2107.4636191886070264
 21
1814.0421423852089902
 31
0.0
  0
LINE
  5
314
  8
0
 10
2107.4636191886070264
 20
1814.0421423852089902
 30
0.0
 11
2106.8899840872882123
 21
1813.2230553567048901
 31
0.0
  0
LINE
  5
315
  8
0
 10
2106.8899840872882123
 20
1810.9358754098059308
 30
0.0
 11
2106.8899840872882123
 21
1813.2230553567048901
 31
0.0
  0
ENDSEC
  0
EOF
