  0
SECTION
  2
HEADER
  9
$ACADVER
  1
AC1009
  9
$INSBASE
 10
0.0
 20
0.0
 30
0.0
  9
$EXTMIN
 10
1650.8340457238300587
 20
2109.883772974805197
 30
0.0
  9
$EXTMAX
 10
1692.1127984467250371
 20
2151.1625256977008576
 30
0.0
  9
$LIMMIN
 10
0.0
 20
0.0
  9
$LIMMAX
 10
420.0
 20
297.0
  9
$ORTHOMODE
 70
     0
  9
$REGENMODE
 70
     1
  9
$FILLMODE
 70
     1
  9
$QTEXTMODE
 70
     0
  9
$MIRRTEXT
 70
     0
  9
$DRAGMODE
 70
     2
  9
$LTSCALE
 40
1.0
  9
$OSMODE
 70
  4095
  9
$ATTMODE
 70
     1
  9
$TEXTSIZE
 40
2.5
  9
$TRACEWID
 40
1.0
  9
$TEXTSTYLE
  7
STANDARD
  9
$CLAYER
  8
0
  9
$CELTYPE
  6
BYLAYER
  9
$CECOLOR
 62
   256
  9
$DIMSCALE
 40
1.0
  9
$DIMASZ
 40
2.5
  9
$DIMEXO
 40
0.625
  9
$DIMDLI
 40
3.75
  9
$DIMRND
 40
0.0
  9
$DIMDLE
 40
0.0
  9
$DIMEXE
 40
1.25
  9
$DIMTP
 40
0.0
  9
$DIMTM
 40
0.0
  9
$DIMTXT
 40
2.5
  9
$DIMCEN
 40
2.5
  9
$DIMTSZ
 40
0.0
  9
$DIMTOL
 70
     0
  9
$DIMLIM
 70
     0
  9
$DIMTIH
 70
     0
  9
$DIMTOH
 70
     0
  9
$DIMSE1
 70
     0
  9
$DIMSE2
 70
     0
  9
$DIMTAD
 70
     1
  9
$DIMZIN
 70
     8
  9
$DIMBLK
  1

  9
$DIMASO
 70
     1
  9
$DIMSHO
 70
     1
  9
$DIMPOST
  1

  9
$DIMAPOST
  1

  9
$DIMALT
 70
     0
  9
$DIMALTD
 70
     3
  9
$DIMALTF
 40
0.03937007874016
  9
$DIMLFAC
 40
1.0
  9
$DIMTOFL
 70
     1
  9
$DIMTVP
 40
0.0
  9
$DIMTIX
 70
     0
  9
$DIMSOXD
 70
     0
  9
$DIMSAH
 70
     0
  9
$DIMBLK1
  1

  9
$DIMBLK2
  1

  9
$DIMSTYLE
  2
ISO-25
  9
$DIMCLRD
 70
     0
  9
$DIMCLRE
 70
     0
  9
$DIMCLRT
 70
     0
  9
$DIMTFAC
 40
1.0
  9
$DIMGAP
 40
0.625
  9
$LUNITS
 70
     2
  9
$LUPREC
 70
     4
  9
$SKETCHINC
 40
1.0
  9
$FILLETRAD
 40
0.0
  9
$AUNITS
 70
     0
  9
$AUPREC
 70
     0
  9
$MENU
  1
.
  9
$ELEVATION
 40
0.0
  9
$PELEVATION
 40
0.0
  9
$THICKNESS
 40
0.0
  9
$LIMCHECK
 70
     0
  9
$BLIPMODE
 70
     0
  9
$CHAMFERA
 40
0.0
  9
$CHAMFERB
 40
0.0
  9
$SKPOLY
 70
     0
  9
$TDCREATE
 40
2458493.5132175930775702
  9
$TDUPDATE
 40
2458493.5133449072018266
  9
$TDINDWG
 40
0.0001273148
  9
$TDUSRTIMER
 40
0.0001273148
  9
$USRTIMER
 70
     1
  9
$ANGBASE
 50
0.0
  9
$ANGDIR
 70
     0
  9
$PDMODE
 70
     0
  9
$PDSIZE
 40
0.0
  9
$PLINEWID
 40
0.0
  9
$COORDS
 70
     1
  9
$SPLFRAME
 70
     0
  9
$SPLINETYPE
 70
     6
  9
$SPLINESEGS
 70
     8
  9
$ATTDIA
 70
     1
  9
$ATTREQ
 70
     1
  9
$HANDLING
 70
     1
  9
$HANDSEED
  5
58B
  9
$SURFTAB1
 70
     6
  9
$SURFTAB2
 70
     6
  9
$SURFTYPE
 70
     6
  9
$SURFU
 70
     6
  9
$SURFV
 70
     6
  9
$UCSNAME
  2

  9
$UCSORG
 10
0.0
 20
0.0
 30
0.0
  9
$UCSXDIR
 10
1.0
 20
0.0
 30
0.0
  9
$UCSYDIR
 10
0.0
 20
1.0
 30
0.0
  9
$PUCSNAME
  2

  9
$PUCSORG
 10
0.0
 20
0.0
 30
0.0
  9
$PUCSXDIR
 10
1.0
 20
0.0
 30
0.0
  9
$PUCSYDIR
 10
0.0
 20
1.0
 30
0.0
  9
$USERI1
 70
     0
  9
$USERI2
 70
     0
  9
$USERI3
 70
     0
  9
$USERI4
 70
     0
  9
$USERI5
 70
     0
  9
$USERR1
 40
0.0
  9
$USERR2
 40
0.0
  9
$USERR3
 40
0.0
  9
$USERR4
 40
0.0
  9
$USERR5
 40
0.0
  9
$WORLDVIEW
 70
     1
  9
$SHADEDGE
 70
     3
  9
$SHADEDIF
 70
    70
  9
$TILEMODE
 70
     1
  9
$MAXACTVP
 70
    64
  9
$PLIMCHECK
 70
     0
  9
$PEXTMIN
 10
0.0
 20
0.0
 30
0.0
  9
$PEXTMAX
 10
0.0
 20
0.0
 30
0.0
  9
$PLIMMIN
 10
0.0
 20
0.0
  9
$PLIMMAX
 10
12.0
 20
9.0
  9
$UNITMODE
 70
     0
  9
$VISRETAIN
 70
     1
  9
$PLINEGEN
 70
     0
  9
$PSLTSCALE
 70
     1
  0
ENDSEC
  0
SECTION
  2
TABLES
  0
TABLE
  2
VPORT
 70
     1
  0
VPORT
  2
*ACTIVE
 70
     0
 10
0.0
 20
0.0
 11
1.0
 21
1.0
 12
1671.4734220852769795
 22
2130.5231493362530273
 13
0.0
 23
0.0
 14
10.0
 24
10.0
 15
10.0
 25
10.0
 16
0.0
 26
0.0
 36
1.0
 17
0.0
 27
0.0
 37
0.0
 40
41.585657947600339
 41
2.1848635235731999
 42
50.0
 43
0.0
 44
0.0
 50
0.0
 51
0.0
 71
     0
 72
  1000
 73
     1
 74
     3
 75
     0
 76
     1
 77
     0
 78
     0
  0
ENDTAB
  0
TABLE
  2
LTYPE
 70
     1
  0
LTYPE
  2
CONTINUOUS
 70
     0
  3
Solid line
 72
    65
 73
     0
 40
0.0
  0
ENDTAB
  0
TABLE
  2
LAYER
 70
     1
  0
LAYER
  2
0
 70
     0
 62
     7
  6
CONTINUOUS
  0
ENDTAB
  0
TABLE
  2
STYLE
 70
     3
  0
STYLE
  2
STANDARD
 70
     0
 40
0.0
 41
1.0
 50
0.0
 71
     0
 42
2.5
  3
txt
  4

  0
STYLE
  2
ANNOTATIVE
 70
     0
 40
0.0
 41
1.0
 50
0.0
 71
     0
 42
2.5
  3
txt
  4

  0
STYLE
  2
ROMANT
 70
     0
 40
2.2000000000000002
 41
1.0
 50
0.0
 71
     0
 42
2.5
  3
romant.shx
  4

  0
ENDTAB
  0
TABLE
  2
VIEW
 70
     1
  0
ENDTAB
  0
TABLE
  2
UCS
 70
     0
  0
ENDTAB
  0
TABLE
  2
APPID
 70
    10
  0
APPID
  2
ACAD
 70
     0
  0
APPID
  2
ACAD_PSEXT
 70
     0
  0
APPID
  2
ACADANNOPO
 70
     0
  0
APPID
  2
ACADANNOTATIVE
 70
     0
  0
APPID
  2
ACAD_DSTYLE_DIMJAG
 70
     0
  0
APPID
  2
ACAD_DSTYLE_DIMTALN
 70
     0
  0
APPID
  2
ACAD_MLEADERVER
 70
     0
  0
APPID
  2
ACAD_NAV_VCDISPLAY
 70
     0
  0
APPID
  2
GRADIENTCOLOR1ACI
 70
     0
  0
APPID
  2
GRADIENTCOLOR2ACI
 70
     0
  0
ENDTAB
  0
TABLE
  2
DIMSTYLE
 70
     4
  0
DIMSTYLE
  2
STANDARD
 70
     0
  3

  4

  5

  6

  7

 40
1.0
 41
0.18
 42
0.0625
 43
0.38
 44
0.18
 45
0.0
 46
0.0
 47
0.0
 48
0.0
140
0.18
141
0.09
142
0.0
143
25.3999999999999986
144
1.0
145
0.0
146
1.0
147
0.09
 71
     0
 72
     0
 73
     1
 74
     1
 75
     0
 76
     0
 77
     0
 78
     0
170
     0
171
     2
172
     0
173
     0
174
     0
175
     0
176
     0
177
     0
178
     0
  0
DIMSTYLE
  2
ANNOTATIVE
 70
     0
  3

  4

  5

  6

  7

 40
0.0
 41
2.5
 42
0.625
 43
3.75
 44
1.25
 45
0.0
 46
0.0
 47
0.0
 48
0.0
140
2.5
141
2.5
142
0.0
143
0.03937007874016
144
1.0
145
0.0
146
1.0
147
0.625
 71
     0
 72
     0
 73
     0
 74
     0
 75
     0
 76
     0
 77
     1
 78
     8
170
     0
171
     3
172
     1
173
     0
174
     0
175
     0
176
     0
177
     0
178
     0
  0
DIMSTYLE
  2
ISO-25
 70
     0
  3

  4

  5

  6

  7

 40
1.0
 41
2.5
 42
0.625
 43
3.75
 44
1.25
 45
0.0
 46
0.0
 47
0.0
 48
0.0
140
2.5
141
2.5
142
0.0
143
0.03937007874016
144
1.0
145
0.0
146
1.0
147
0.625
 71
     0
 72
     0
 73
     0
 74
     0
 75
     0
 76
     0
 77
     1
 78
     8
170
     0
171
     3
172
     1
173
     0
174
     0
175
     0
176
     0
177
     0
178
     0
  0
DIMSTYLE
  2
MELÝH_A3
 70
     0
  3

  4

  5

  6

  7

 40
1.0
 41
1.3
 42
0.0
 43
3.75
 44
0.2
 45
0.0
 46
0.0
 47
0.0
 48
0.0
140
1.0
141
0.2
142
0.0
143
0.03937007874016
144
1.0
145
0.0
146
1.0
147
0.7
 71
     0
 72
     0
 73
     0
 74
     0
 75
     0
 76
     0
 77
     1
 78
     8
170
     0
171
     3
172
     0
173
     0
174
     0
175
     0
176
   242
177
   242
178
   242
  0
ENDTAB
  0
ENDSEC
  0
SECTION
  2
BLOCKS
  0
BLOCK
  8
0
  2
$MODEL_SPACE
 70
     0
 10
0.0
 20
0.0
 30
0.0
  3
$MODEL_SPACE
  1

  0
ENDBLK
  5
21
  8
0
  0
BLOCK
 67
     1
  8
0
  2
$PAPER_SPACE
 70
     0
 10
0.0
 20
0.0
 30
0.0
  3
$PAPER_SPACE
  1

  0
ENDBLK
  5
D5
 67
     1
  8
0
  0
BLOCK
  8
0
  2
*X2
 70
     1
 10
0.0
 20
0.0
 30
0.0
  3
*X2
  1

  0
LINE
  5
397
  8
0
 62
     0
 10
87.1935311534861057
 20
45.157163428821292
 30
0.0
 11
89.2693120662588058
 21
47.232944341593992
 31
0.0
  0
LINE
  5
398
  8
0
 62
     0
 10
86.185623062502998
 20
45.0472809499450975
 30
0.0
 11
89.37919454513505
 21
48.2408524325771566
 31
0.0
  0
LINE
  5
399
  8
0
 62
     0
 10
87.9909432134506631
 20
47.75062671299969
 30
0.0
 11
89.3684482081235245
 21
49.1281317076725728
 31
0.0
  0
LINE
  5
39A
  8
0
 62
     0
 10
85.2983437874075747
 20
45.058027286956623
 30
0.0
 11
86.6758487820805783
 21
46.4355322816295981
 31
0.0
  0
LINE
  5
39B
  8
0
 62
     0
 10
88.0813450167169663
 20
48.739054128372878
 30
0.0
 11
89.357701871111999
 21
50.0154109827679179
 31
0.0
  0
LINE
  5
39C
  8
0
 62
     0
 10
84.4110645123121941
 20
45.0687736239680916
 30
0.0
 11
85.6874213667073263
 21
46.3451304783632381
 31
0.0
  0
LINE
  5
39D
  8
0
 62
     0
 10
88.0813450167169663
 20
49.6370797404798125
 30
0.0
 11
89.3469555341005162
 21
50.9026902578633482
 31
0.0
  0
LINE
  5
39E
  8
0
 62
     0
 10
83.5237852372168135
 20
45.0795199609796668
 30
0.0
 11
84.7893957546004344
 21
46.3451304783632665
 31
0.0
  0
LINE
  5
39F
  8
0
 62
     0
 10
88.0813450167169663
 20
50.5351053525867329
 30
0.0
 11
89.3362091970889765
 21
51.7899695329587288
 31
0.0
  0
LINE
  5
3A0
  8
0
 62
     0
 10
82.6365059621213902
 20
45.0902662979911497
 30
0.0
 11
83.8913701424935141
 21
46.3451304783632665
 31
0.0
  0
LINE
  5
3A1
  8
0
 62
     0
 10
88.0813450167169236
 20
51.4331309646936177
 30
0.0
 11
89.3254628600774652
 21
52.6772488080541379
 31
0.0
  0
LINE
  5
3A2
  8
0
 62
     0
 10
81.749226687026038
 20
45.1010126350027107
 30
0.0
 11
82.9933445303865369
 21
46.3451304783632096
 31
0.0
  0
LINE
  5
3A3
  8
0
 62
     0
 10
88.0806751358207833
 20
52.3304866959043977
 30
0.0
 11
89.3147165230659255
 21
53.5645280831495185
 31
0.0
  0
LINE
  5
3A4
  8
0
 62
     0
 10
80.8619474119306574
 20
45.1117589720142504
 30
0.0
 11
82.0959887991758137
 21
46.3458003592594068
 31
0.0
  0
LINE
  5
3A5
  8
0
 62
     0
 10
87.8200651670351249
 20
52.9679023392256383
 30
0.0
 11
89.3039701860544568
 21
54.4518073582449702
 31
0.0
  0
LINE
  5
3A6
  8
0
 62
     0
 10
79.9746681368352483
 20
45.1225053090257617
 30
0.0
 11
81.458573155854566
 21
46.6064103280450794
 31
0.0
  0
LINE
  5
3A7
  8
0
 62
     0
 10
87.2359963904550852
 20
53.2818591747524906
 30
0.0
 11
89.2932238490429029
 21
55.3390866333403082
 31
0.0
  0
LINE
  5
3A8
  8
0
 62
     0
 10
79.0873888617398961
 20
45.1332516460373014
 30
0.0
 11
81.1446163203276853
 21
47.1904791046250907
 31
0.0
  0
LINE
  5
3A9
  8
0
 62
     0
 10
86.0996919858156389
 20
53.0435803822199716
 30
0.0
 11
89.2824775120313916
 21
56.2263659084357315
 31
0.0
  0
LINE
  5
3AA
  8
0
 62
     0
 10
78.2001095866445155
 20
45.1439979830488483
 30
0.0
 11
81.3828951128601545
 21
48.3267835092644873
 31
0.0
  0
LINE
  5
3AB
  8
0
 62
     0
 10
85.1589977999347951
 20
53.0009118084460624
 30
0.0
 11
89.2717311750199229
 21
57.1136451835311902
 31
0.0
  0
LINE
  5
3AC
  8
0
 62
     0
 10
77.3128303115491065
 20
45.1547443200603595
 30
0.0
 11
81.4255636866340637
 21
49.2674776951453097
 31
0.0
  0
LINE
  5
3AD
  8
0
 62
     0
 10
84.4203907105123079
 20
53.1603303311305027
 30
0.0
 11
85.6165826150451323
 21
54.3565222356632987
 31
0.0
  0
LINE
  5
3AE
  8
0
 62
     0
 10
80.0699532594166214
 20
48.809892880034802
 30
0.0
 11
81.2661451639496448
 21
50.0060847845677969
 31
0.0
  0
LINE
  5
3AF
  8
0
 62
     0
 10
87.3668351369220773
 20
56.1067747575402507
 30
0.0
 11
89.260984838008369
 21
58.0009244586265424
 31
0.0
  0
LINE
  5
3B0
  8
0
 62
     0
 10
76.4255510364537258
 20
45.1654906570718992
 30
0.0
 11
78.3197007375399892
 21
47.0596403581581626
 31
0.0
  0
LINE
  5
3B1
  8
0
 62
     0
 10
83.8047826709648263
 20
53.4427479036899271
 30
0.0
 11
84.7929471179166967
 21
54.4309123506417905
 31
0.0
  0
LINE
  5
3B2
  8
0
 62
     0
 10
79.9955631444381936
 20
49.6335283771632803
 30
0.0
 11
80.9837275913901493
 21
50.6216928241152573
 31
0.0
  0
LINE
  5
3B3
  8
0
 62
     0
 10
87.3728374084362542
 20
57.010802641161348
 30
0.0
 11
89.2502385009968577
 21
58.8882037337219515
 31
0.0
  0
LINE
  5
3B4
  8
0
 62
     0
 10
75.5382717613582884
 20
45.1762369940833821
 30
0.0
 11
77.4156728539189203
 21
47.0536380866440069
 31
0.0
  0
LINE
  5
3B5
  8
0
 62
     0
 10
79.7036371577567877
 20
50.2396280025888018
 30
0.0
 11
84.1868474924914096
 21
54.7228383373234166
 31
0.0
  0
LINE
  5
3B6
  8
0
 62
     0
 10
87.3620910714246861
 20
57.8980819162567002
 30
0.0
 11
89.2394921639853465
 21
59.7754830088173605
 31
0.0
  0
LINE
  5
3B7
  8
0
 62
     0
 10
74.6509924862628651
 20
45.1869833310948934
 30
0.0
 11
76.5283935788235112
 21
47.0643844236555182
 31
0.0
  0
LINE
  5
3B8
  8
0
 62
     0
 10
79.3672632439733547
 20
50.8012797009122608
 30
0.0
 11
83.6251957941680075
 21
55.0592122511069135
 31
0.0
  0
LINE
  5
3B9
  8
0
 62
     0
 10
87.2095833222958277
 20
58.6435997792347408
 30
0.0
 11
89.1959329622327175
 21
60.6299494191716235
 31
0.0
  0
LINE
  5
3BA
  8
0
 62
     0
 10
73.7965260759086448
 20
45.2305425328475508
 30
0.0
 11
75.7828757158455346
 21
47.2168921727844406
 31
0.0
  0
LINE
  5
3BB
  8
0
 62
     0
 10
81.9673733938458611
 20
54.2994154628916803
 30
0.0
 11
83.0738776683572553
 21
55.4059197374030816
 31
0.0
  0
LINE
  5
3BC
  8
0
 62
     0
 10
79.0205557576771582
 20
51.3525978267229775
 30
0.0
 11
80.127060032188524
 21
52.4591021012343504
 31
0.0
  0
LINE
  5
3BD
  8
0
 62
     0
 10
86.613074082460173
 20
58.9451161515059994
 30
0.0
 11
88.6130884093175268
 21
60.9451304783633532
 31
0.0
  0
LINE
  5
3BE
  8
0
 62
     0
 10
73.4813450167169151
 20
45.8133870857627414
 30
0.0
 11
75.4813593435741836
 21
47.81340141262001
 31
0.0
  0
LINE
  5
3BF
  8
0
 62
     0
 10
81.5971049941081787
 20
54.8271726752609183
 30
0.0
 11
82.5327408211261968
 21
55.7628085022789435
 31
0.0
  0
LINE
  5
3C0
  8
0
 62
     0
 10
78.663666992801268
 20
51.8937346739540217
 30
0.0
 11
79.5993028198193429
 21
52.8293705009720895
 31
0.0
  0
LINE
  5
3C1
  8
0
 62
     0
 10
85.7158152890536655
 20
58.9458829702064122
 30
0.0
 11
87.7150627972105639
 21
60.9451304783633319
 31
0.0
  0
LINE
  5
3C2
  8
0
 62
     0
 10
73.4813450167169435
 20
46.7114126978696902
 30
0.0
 11
75.4805925248737424
 21
48.710660206026489
 31
0.0
  0
LINE
  5
3C3
  8
0
 62
     0
 10
81.0695308870866143
 20
55.1976241803462813
 30
0.0
 11
82.0016506662209395
 21
56.1297439594806065
 31
0.0
  0
LINE
  5
3C4
  8
0
 62
     0
 10
78.2967315355996334
 20
52.4248248288593004
 30
0.0
 11
79.228851314733987
 21
53.3569446079936469
 31
0.0
  0
LINE
  5
3C5
  8
0
 62
     0
 10
85.2480224848754631
 20
59.3761157781351301
 30
0.0
 11
86.8170371851036577
 21
60.9451304783633319
 31
0.0
  0
LINE
  5
3C6
  8
0
 62
     0
 10
73.4813450167168867
 20
47.6094383099765466
 30
0.0
 11
75.050359716945195
 21
49.178453010204862
 31
0.0
  0
LINE
  5
3C7
  8
0
 62
     0
 10
80.5514389332478515
 20
55.5775578386144389
 30
0.0
 11
81.4804892868839374
 21
56.5066081922505177
 31
0.0
  0
LINE
  5
3C8
  8
0
 62
     0
 10
77.9198673028296867
 20
52.9459862081962669
 30
0.0
 11
78.8489176564657726
 21
53.8750365618323599
 31
0.0
  0
LINE
  5
3C9
  8
0
 62
     0
 10
85.2333371261685784
 20
60.2594560315351586
 30
0.0
 11
85.9190115729966237
 21
60.9451304783632111
 31
0.0
  0
LINE
  5
3CA
  8
0
 62
     0
 10
73.4813450167168867
 20
48.5074639220834669
 30
0.0
 11
74.167019463545131
 21
49.1931383689117183
 31
0.0
  0
LINE
  5
3CB
  8
0
 62
     0
 10
80.0427396821355757
 20
55.9668841996090904
 30
0.0
 11
80.9691545505669694
 21
56.89329906804047
 31
0.0
  0
LINE
  5
3CC
  8
0
 62
     0
 10
77.5331764270397343
 20
53.457320944513242
 30
0.0
 11
78.4595912954711139
 21
54.3837358129446216
 31
0.0
  0
LINE
  5
3CD
  8
0
 62
     0
 10
79.5433567501467138
 20
56.3655268797271276
 30
0.0
 11
80.4675593603664652
 21
57.2897294899468719
 31
0.0
  0
LINE
  5
3CE
  8
0
 62
     0
 10
77.1367460051333751
 20
53.9589161347137676
 30
0.0
 11
78.0609486153531122
 21
54.8831187449335118
 31
0.0
  0
LINE
  5
3CF
  8
0
 62
     0
 10
79.0532263196222402
 20
56.7734220613095601
 30
0.0
 11
79.9756310299383415
 21
57.6958267716256614
 31
0.0
  0
LINE
  5
3D0
  8
0
 62
     0
 10
76.73064872345455
 20
54.4508444651418628
 30
0.0
 11
77.6530534337706513
 21
55.3732491754579712
 31
0.0
  0
LINE
  5
3D1
  8
0
 62
     0
 10
78.5722967272039909
 20
57.1905180809982312
 30
0.0
 11
79.4933107711423332
 21
58.1115321249365877
 31
0.0
  0
LINE
  5
3D2
  8
0
 62
     0
 10
76.3149433701435953
 20
54.9331647239378285
 30
0.0
 11
77.2359574140819234
 21
55.8541787678761565
 31
0.0
  0
LINE
  5
3D3
  8
0
 62
     0
 10
78.1005281351457938
 20
57.6167751010469473
 30
0.0
 11
79.0205532858180959
 21
58.5368002517192494
 31
0.0
  0
LINE
  5
3D4
  8
0
 62
     0
 10
75.8896752433609834
 20
55.4059222092621368
 30
0.0
 11
76.809700394033257
 21
56.3259473599344176
 31
0.0
  0
LINE
  5
3D5
  8
0
 62
     0
 10
77.6378922806344036
 20
58.0521648586424703
 30
0.0
 11
78.557326454982217
 21
58.9715990329902624
 31
0.0
  0
LINE
  5
3D6
  8
0
 62
     0
 10
75.4548764620899703
 20
55.8691490400980229
 30
0.0
 11
76.3743106364377411
 21
56.7885832144457865
 31
0.0
  0
LINE
  5
3D7
  8
0
 62
     0
 10
88.730857900355204
 20
69.1451304783632565
 30
0.0
 11
89.231388109509794
 21
69.6456606875178466
 31
0.0
  0
LINE
  5
3D8
  8
0
 62
     0
 10
64.7808148075623649
 20
45.1950873855704174
 30
0.0
 11
65.281345016716898
 21
45.6956175947249434
 31
0.0
  0
LINE
  5
3D9
  8
0
 62
     0
 10
77.1843722994070731
 20
58.4966704895220673
 30
0.0
 11
78.1036111204220163
 21
59.4159093105370175
 31
0.0
  0
LINE
  5
3DA
  8
0
 62
     0
 10
75.0105661845432508
 20
56.322864374658252
 30
0.0
 11
75.9298050055581655
 21
57.2421031956731596
 31
0.0
  0
LINE
  5
3DB
  8
0
 62
     0
 10
87.8328322882483121
 20
69.1451304783633134
 30
0.0
 11
89.2423979477638341
 21
70.5546961378788353
 31
0.0
  0
LINE
  5
3DC
  8
0
 62
     0
 10
63.8717793572013832
 20
45.1840775473163703
 30
0.0
 11
65.2813450167168554
 21
46.5936432068318709
 31
0.0
  0
LINE
  5
3DD
  8
0
 62
     0
 10
76.7577146176900129
 20
58.9680384199119203
 30
0.0
 11
77.6673497176707031
 21
59.8776735198925891
 31
0.0
  0
LINE
  5
3DE
  8
0
 62
     0
 10
74.5488019751874731
 20
56.7591257774093734
 30
0.0
 11
75.4584370751682343
 21
57.6687608773901275
 31
0.0
  0
LINE
  5
3DF
  8
0
 62
     0
 10
86.9348066761413349
 20
69.1451304783632139
 30
0.0
 11
89.2534077860179593
 21
71.4637315882398525
 31
0.0
  0
LINE
  5
3E0
  8
0
 62
     0
 10
62.9627439068403874
 20
45.1730677090622805
 30
0.0
 11
65.2813450167169265
 21
47.4916688189388196
 31
0.0
  0
LINE
  5
3E1
  8
0
 62
     0
 10
76.3857665045879912
 20
59.4941159189168118
 30
0.0
 11
77.2962180656907947
 21
60.4045674800196082
 31
0.0
  0
LINE
  5
3E2
  8
0
 62
     0
 10
74.0219080150605038
 20
57.1302574293893315
 30
0.0
 11
74.9323595761634067
 21
58.0407089904922202
 31
0.0
  0
LINE
  5
3E3
  8
0
 62
     0
 10
86.0367810640344146
 20
69.1451304783632139
 30
0.0
 11
89.2644176242720135
 21
72.3727670386008413
 31
0.0
  0
LINE
  5
3E4
  8
0
 62
     0
 10
62.0537084564793417
 20
45.1620578708081482
 30
0.0
 11
65.2813450167169265
 21
48.3896944310457329
 31
0.0
  0
LINE
  5
3E5
  8
0
 62
     0
 10
76.072416757642813
 20
60.078791784078561
 30
0.0
 11
77.0043127624805095
 21
61.0106877889162433
 31
0.0
  0
LINE
  5
3E6
  8
0
 62
     0
 10
73.4157877061639113
 20
57.422162732599638
 30
0.0
 11
74.3476837110015651
 21
58.354058737437299
 31
0.0
  0
LINE
  5
3E7
  8
0
 62
     0
 10
85.3344163742149249
 20
69.3407914006506445
 30
0.0
 11
89.2754274625261246
 21
73.2818024889618584
 31
0.0
  0
LINE
  5
3E8
  8
0
 62
     0
 10
61.144673006118353
 20
45.1510480325540797
 30
0.0
 11
65.0856840944295811
 21
49.0920591208653079
 31
0.0
  0
LINE
  5
3E9
  8
0
 62
     0
 10
75.8248601044250563
 20
60.7292607429677105
 30
0.0
 11
76.8076093899847763
 21
61.7120100285274304
 31
0.0
  0
LINE
  5
3EA
  8
0
 62
     0
 10
72.7144654665526957
 20
57.6188661050953428
 30
0.0
 11
73.6972147521124157
 21
58.6016153906550699
 31
0.0
  0
LINE
  5
3EB
  8
0
 62
     0
 10
85.2371001379049744
 20
70.1415007764476286
 30
0.0
 11
86.2407298398205739
 21
71.1451304783632139
 31
0.0
  0
LINE
  5
3EC
  8
0
 62
     0
 10
63.2813450167168696
 20
48.1857456552595309
 30
0.0
 11
64.2849747186326397
 21
49.1893753571752868
 31
0.0
  0
LINE
  5
3ED
  8
0
 62
     0
 10
87.3630021484145232
 20
72.2674027869571773
 30
0.0
 11
89.2864373007801646
 21
74.1908379393228188
 31
0.0
  0
LINE
  5
3EE
  8
0
 62
     0
 10
60.2356375557573287
 20
45.14003819429999
 30
0.0
 11
62.1590727081231478
 21
47.063473346665802
 31
0.0
  0
LINE
  5
3EF
  8
0
 62
     0
 10
75.65618784033731
 20
61.4586140909868917
 30
0.0
 11
76.7413450167169344
 21
62.5437712673665089
 31
0.0
  0
LINE
  5
3F0
  8
0
 62
     0
 10
71.8827042277136741
 20
57.6851304783632486
 30
0.0
 11
72.9678614040932985
 21
58.770287654742873
 31
0.0
  0
LINE
  5
3F1
  8
0
 62
     0
 10
87.3740119866685347
 20
73.1764382373181093
 30
0.0
 11
89.2974471390342188
 21
75.0998733896838075
 31
0.0
  0
LINE
  5
3F2
  8
0
 62
     0
 10
59.3266021053963399
 20
45.1290283560459216
 30
0.0
 11
61.250037257762159
 21
47.0524635084117335
 31
0.0
  0
LINE
  5
3F3
  8
0
 62
     0
 10
75.4722660890375323
 20
62.1727179517939916
 30
0.0
 11
76.7413450167169344
 21
63.4417968794734008
 31
0.0
  0
LINE
  5
3F4
  8
0
 62
     0
 10
70.9846786156067537
 20
57.6851304783632202
 30
0.0
 11
72.2537575432862127
 21
58.954209406042672
 31
0.0
  0
LINE
  5
3F5
  8
0
 62
     0
 10
87.3566973591986056
 20
74.0571492219550862
 30
0.0
 11
89.3084569772883015
 21
76.0089088400447679
 31
0.0
  0
LINE
  5
3F6
  8
0
 62
     0
 10
58.4175666550353796
 20
45.1180185177918531
 30
0.0
 11
60.3693262731251465
 21
47.0697781358816201
 31
0.0
  0
LINE
  5
3F7
  8
0
 62
     0
 10
74.9792405460804616
 20
62.5777180209438768
 30
0.0
 11
76.7413450167169344
 21
64.3398224915803354
 31
0.0
  0
LINE
  5
3F8
  8
0
 62
     0
 10
70.0866530034998334
 20
57.6851304783632486
 30
0.0
 11
71.8487574741363062
 21
59.4472349489997214
 31
0.0
  0
LINE
  5
3F9
  8
0
 62
     0
 10
87.1260188741421189
 20
74.7244963490055341
 30
0.0
 11
89.3194668155423983
 21
76.9179442904058135
 31
0.0
  0
LINE
  5
3FA
  8
0
 62
     0
 10
57.5085312046743695
 20
45.1070086795377918
 30
0.0
 11
59.701979146074649
 21
47.300456620938057
 31
0.0
  0
LINE
  5
3FB
  8
0
 62
     0
 10
69.1886273913929131
 20
57.6851304783632202
 30
0.0
 11
76.7413450167169344
 21
65.2378481036872415
 31
0.0
  0
LINE
  5
3FC
  8
0
 62
     0
 10
86.7287124811859087
 20
75.2252155681562158
 30
0.0
 11
89.3304766537965236
 21
77.8269797407668307
 31
0.0
  0
LINE
  5
3FD
  8
0
 62
     0
 10
56.5994957543133808
 20
45.0959988412836879
 30
0.0
 11
59.2012599269239885
 21
47.6977630138943027
 31
0.0
  0
LINE
  5
3FE
  8
0
 62
     0
 10
68.2906017792860496
 20
57.685130478363277
 30
0.0
 11
76.7413450167169344
 21
66.1358737157941619
 31
0.0
  0
LINE
  5
3FF
  8
0
 62
     0
 10
86.184543724513901
 20
75.5790724235911284
 30
0.0
 11
87.4884695118897042
 21
76.8829982109669459
 31
0.0
  0
LINE
  5
400
  8
0
 62
     0
 10
57.5434772841132869
 20
46.9380059831905214
 30
0.0
 11
58.8474030714890617
 21
48.241931770566282
 31
0.0
  0
LINE
  5
401
  8
0
 62
     0
 10
87.994717692808365
 20
77.3892463918855924
 30
0.0
 11
89.3414864920505352
 21
78.7360151911277626
 31
0.0
  0
LINE
  5
402
  8
0
 62
     0
 10
55.690460303952392
 20
45.0849890030296194
 30
0.0
 11
57.0372291031946688
 21
46.4317578022719033
 31
0.0
  0
LINE
  5
403
  8
0
 62
     0
 10
67.392576167179044
 20
57.6851304783631917
 30
0.0
 11
76.741345016716906
 21
67.0338993279010538
 31
0.0
  0
LINE
  5
404
  8
0
 62
     0
 10
85.4538000183816848
 20
75.7463543295658326
 30
0.0
 11
86.6126135181796855
 21
76.905167829363819
 31
0.0
  0
LINE
  5
405
  8
0
 62
     0
 10
57.5213076657164208
 20
47.8138619769005615
 30
0.0
 11
58.6801211655143007
 21
48.9726754766984413
 31
0.0
  0
LINE
  5
406
  8
0
 62
     0
 10
88.0813450167169094
 20
78.3738993279010572
 30
0.0
 11
89.3524963303046462
 21
79.6450506414887798
 31
0.0
  0
LINE
  5
407
  8
0
 62
     0
 10
54.7814248535913535
 20
45.073979164775487
 30
0.0
 11
56.0525761671790619
 21
46.3451304783632096
 31
0.0
  0
LINE
  5
408
  8
0
 62
     0
 10
72.9753747831606745
 20
64.1659547064517142
 30
0.0
 11
76.7518141213819263
 21
67.9423940446729659
 31
0.0
  0
LINE
  5
409
  8
0
 62
     0
 10
66.4840814504072171
 20
57.6746613736982567
 30
0.0
 11
70.2605207886285257
 21
61.4511007119195725
 31
0.0
  0
LINE
  5
40A
  8
0
 62
     0
 10
84.1627514017469878
 20
75.3533313250380274
 30
0.0
 11
85.8892441712358448
 21
77.0798240945268844
 31
0.0
  0
LINE
  5
40B
  8
0
 62
     0
 10
57.346651400553327
 20
48.5372313238443667
 30
0.0
 11
59.0731441700421911
 21
50.2637240933332308
 31
0.0
  0
LINE
  5
40C
  8
0
 62
     0
 10
87.9793731591663857
 20
79.1699530824574254
 30
0.0
 11
89.3635061685587431
 21
80.554086091849797
 31
0.0
  0
LINE
  5
40D
  8
0
 62
     0
 10
53.8723894032304074
 20
45.062969326521447
 30
0.0
 11
55.15455055507217
 21
46.3451304783632096
 31
0.0
  0
LINE
  5
40E
  8
0
 62
     0
 10
73.0793072272676909
 20
65.1679127626656793
 30
0.0
 11
77.0126678967787655
 21
69.1012734321767539
 31
0.0
  0
LINE
  5
40F
  8
0
 62
     0
 10
65.3252020629034007
 20
57.4138075983013891
 30
0.0
 11
69.2585627324145889
 21
61.3471682678125703
 31
0.0
  0
LINE
  5
410
  8
0
 62
     0
 10
81.5360113700075715
 20
73.6246169054055457
 30
0.0
 11
84.9778956221616966
 21
77.066501157559685
 31
0.0
  0
LINE
  5
411
  8
0
 62
     0
 10
57.3599743375205477
 20
49.4485798729185433
 30
0.0
 11
60.8018585896746231
 21
52.8904641250726115
 31
0.0
  0
LINE
  5
412
  8
0
 62
     0
 10
88.0366941806020407
 20
80.1252997160000149
 30
0.0
 11
89.3745160068127973
 21
81.4631215422107857
 31
0.0
  0
LINE
  5
413
  8
0
 62
     0
 10
52.9633539528693689
 20
45.0519594882673502
 30
0.0
 11
54.2565249429652496
 21
46.3451304783632381
 31
0.0
  0
LINE
  5
414
  8
0
 62
     0
 10
72.9678570470810257
 20
65.9544881945859061
 30
0.0
 11
74.4723429114532678
 21
67.4589740589581339
 31
0.0
  0
LINE
  5
415
  8
0
 62
     0
 10
66.9675014361220349
 20
59.9541325836269223
 30
0.0
 11
68.4719873004943622
 21
61.4586184479992426
 31
0.0
  0
LINE
  5
416
  8
0
 62
     0
 10
75.6583028806607558
 20
68.6449340281656362
 30
0.0
 11
83.5491356500319853
 21
76.5357667975368656
 31
0.0
  0
LINE
  5
417
  8
0
 62
     0
 10
57.8907086975434879
 20
50.8773398450483612
 30
0.0
 11
65.7815414669145753
 21
58.7681726144194627
 31
0.0
  0
LINE
  5
418
  8
0
 62
     0
 10
88.0813450167168668
 20
81.0679761642217329
 30
0.0
 11
89.3655865364595456
 21
82.352217683964426
 31
0.0
  0
LINE
  5
419
  8
0
 62
     0
 10
52.0742578111157286
 20
45.0608889586206089
 30
0.0
 11
53.3584993308583577
 21
46.3451304783632381
 31
0.0
  0
LINE
  5
41A
  8
0
 62
     0
 10
72.731331133488851
 20
66.6159878931006517
 30
0.0
 11
73.8870070445468343
 21
67.771663804158635
 31
0.0
  0
LINE
  5
41B
  8
0
 62
     0
 10
66.6548116909215196
 20
60.5394684505333203
 30
0.0
 11
67.8104876019795739
 21
61.6951443615913888
 31
0.0
  0
LINE
  5
41C
  8
0
 62
     0
 10
76.0286881303144071
 20
69.9133448899261936
 30
0.0
 11
80.8462278682705886
 21
74.7308846278824035
 31
0.0
  0
LINE
  5
41D
  8
0
 62
     0
 10
59.6955908671976871
 20
53.5802476268094878
 30
0.0
 11
64.5131306051541458
 21
58.3977873647659464
 31
0.0
  0
LINE
  5
41E
  8
0
 62
     0
 10
81.9629048726442306
 20
75.8475616322560313
 30
0.0
 11
82.9542069629537053
 21
76.8388637225655202
 31
0.0
  0
LINE
  5
41F
  8
0
 62
     0
 10
57.5876117725146912
 20
51.4722685321264919
 30
0.0
 11
58.5789138628241233
 21
52.4635706224359311
 31
0.0
  0
LINE
  5
420
  8
0
 62
     0
 10
88.0703070507403254
 20
81.9549638103521261
 30
0.0
 11
89.1967014814887165
 21
83.0813582411005314
 31
0.0
  0
LINE
  5
421
  8
0
 62
     0
 10
51.3451172539796517
 20
45.2297740135914523
 30
0.0
 11
52.4715116847280569
 21
46.3561684443398505
 31
0.0
  0
LINE
  5
422
  8
0
 62
     0
 10
72.4008332294238812
 20
67.1835156011426022
 30
0.0
 11
73.5079736547743607
 21
68.2906560264930818
 31
0.0
  0
LINE
  5
423
  8
0
 62
     0
 10
66.1358194685870444
 20
60.9185018403057583
 30
0.0
 11
67.242959893937666
 21
62.0256422656563799
 31
0.0
  0
LINE
  5
424
  8
0
 62
     0
 10
81.5859553413576748
 20
76.3686377130763958
 30
0.0
 11
82.5051941569002736
 21
77.2878765286189946
 31
0.0
  0
LINE
  5
425
  8
0
 62
     0
 10
57.1385989664612666
 20
51.9212813381799876
 30
0.0
 11
58.0578377820037588
 21
52.8405201537224798
 31
0.0
  0
LINE
  5
426
  8
0
 62
     0
 10
87.865739683562964
 20
82.6484220552816851
 30
0.0
 11
88.8969662800829781
 21
83.6796486518016849
 31
0.0
  0
LINE
  5
427
  8
0
 62
     0
 10
50.7468268432784768
 20
45.529509214997212
 30
0.0
 11
51.7780534397985193
 21
46.5607358115172474
 31
0.0
  0
LINE
  5
428
  8
0
 62
     0
 10
71.9891651638593828
 20
67.6698731476850242
 30
0.0
 11
73.085184714205468
 21
68.7658926980311094
 31
0.0
  0
LINE
  5
429
  8
0
 62
     0
 10
65.6605827970490736
 20
61.3412907808747221
 30
0.0
 11
66.7566023473952725
 21
62.437310331220921
 31
0.0
  0
LINE
  5
42A
  8
0
 62
     0
 10
81.1369425353042288
 20
76.8176505191298702
 30
0.0
 11
82.0561813508467708
 21
77.7368893346724121
 31
0.0
  0
LINE
  5
42B
  8
0
 62
     0
 10
56.6895861604078206
 20
52.370294144233462
 30
0.0
 11
57.6088249759503128
 21
53.2895329597759471
 31
0.0
  0
LINE
  5
42C
  8
0
 62
     0
 10
87.4870720058474944
 20
83.1677799896731358
 30
0.0
 11
88.4941872245021841
 21
84.1748952083278255
 31
0.0
  0
LINE
  5
42D
  8
0
 62
     0
 10
50.2515802867524073
 20
45.9322882705780628
 30
0.0
 11
51.2586955054070472
 21
46.9394034892326886
 31
0.0
  0
LINE
  5
42E
  8
0
 62
     0
 10
71.4998595904439185
 20
68.0785931863764802
 30
0.0
 11
72.6078860795497008
 21
69.1866196754822624
 31
0.0
  0
LINE
  5
42F
  8
0
 62
     0
 10
65.2398558195979206
 20
61.8185894155304823
 30
0.0
 11
66.3478823087037881
 21
62.9266159046363498
 31
0.0
  0
LINE
  5
430
  8
0
 62
     0
 10
80.6879297292507545
 20
77.2666633251833161
 30
0.0
 11
81.6071685447932964
 21
78.1859021407258439
 31
0.0
  0
LINE
  5
431
  8
0
 62
     0
 10
56.2405733543543533
 20
52.8193069502869079
 30
0.0
 11
57.1598121698968598
 21
53.7385457658294214
 31
0.0
  0
LINE
  5
432
  8
0
 62
     0
 10
86.9620478728136845
 20
83.5407814687462462
 30
0.0
 11
87.9952756608486766
 21
84.5740092567812383
 31
0.0
  0
LINE
  5
433
  8
0
 62
     0
 10
49.85246623829903
 20
46.4311998342315917
 30
0.0
 11
50.8856940263339084
 21
47.4644276222664701
 31
0.0
  0
LINE
  5
434
  8
0
 62
     0
 10
70.9290956113955531
 20
68.4058548194350067
 30
0.0
 11
72.0904227871158696
 21
69.5671819951553232
 31
0.0
  0
LINE
  5
435
  8
0
 62
     0
 10
64.859293499924874
 20
62.3360527079643418
 30
0.0
 11
66.0206206756452332
 21
63.4973798836846868
 31
0.0
  0
LINE
  5
436
  8
0
 62
     0
 10
74.1905566642031431
 20
71.6673158722425967
 30
0.0
 11
79.1573846957031435
 21
76.6341439037425971
 31
0.0
  0
LINE
  5
437
  8
0
 62
     0
 10
57.7923315913378133
 20
55.2690907993772669
 30
0.0
 11
62.7591596228376503
 21
60.2359188308770968
 31
0.0
  0
LINE
  5
438
  8
0
 62
     0
 10
80.1531508720778589
 20
77.6299100801173267
 30
0.0
 11
81.1581557387398647
 21
78.634914946779304
 31
0.0
  0
LINE
  5
439
  8
0
 62
     0
 10
55.7915605483009003
 20
53.268319756340361
 30
0.0
 11
56.7965654149627994
 21
54.273324623002253
 31
0.0
  0
LINE
  5
43A
  8
0
 62
     0
 10
86.2603449231369552
 20
83.7371041311763946
 30
0.0
 11
87.3927427982174265
 21
84.8695020062568801
 31
0.0
  0
LINE
  5
43B
  8
0
 62
     0
 10
49.556973488823381
 20
47.0337326968628275
 30
0.0
 11
50.6893713639037102
 21
48.1661305719431709
 31
0.0
  0
LINE
  5
43C
  8
0
 62
     0
 10
70.2636166885108935
 20
68.6384015086572958
 30
0.0
 11
71.7910771396216205
 21
70.1658619597680229
 31
0.0
  0
LINE
  5
43D
  8
0
 62
     0
 10
64.2606135353121886
 20
62.6353983554585909
 30
0.0
 11
65.788073986422944
 21
64.1628588065693464
 31
0.0
  0
LINE
  5
43E
  8
0
 62
     0
 10
72.9410215127026902
 20
71.3158063328490925
 30
0.0
 11
80.8806471051337041
 21
79.2554319252801065
 31
0.0
  0
LINE
  5
43F
  8
0
 62
     0
 10
55.1710435697999273
 20
53.5458283899463368
 30
0.0
 11
63.1106691622311118
 21
61.4854539823775212
 31
0.0
  0
LINE
  5
440
  8
0
 62
     0
 10
85.3703456582169053
 20
83.7451304783632935
 30
0.0
 11
86.6575991851882037
 21
85.0323840053346203
 31
0.0
  0
LINE
  5
441
  8
0
 62
     0
 10
49.3940914897456977
 20
47.7688763098921001
 30
0.0
 11
50.6813450167168469
 21
49.0561298368632421
 31
0.0
  0
LINE
  5
442
  8
0
 62
     0
 10
69.4712281316997462
 20
68.7440385639530405
 30
0.0
 11
73.3829001675017736
 21
72.6557105997550821
 31
0.0
  0
LINE
  5
443
  8
0
 62
     0
 10
61.7707648953252999
 20
61.0435753275785871
 30
0.0
 11
65.6824369311272278
 21
64.9552473633805221
 31
0.0
  0
LINE
  5
444
  8
0
 62
     0
 10
78.0532788828526236
 20
77.3260893151059179
 30
0.0
 11
81.4086015325371051
 21
80.6814119647903851
 31
0.0
  0
LINE
  5
445
  8
0
 62
     0
 10
53.745063530289741
 20
53.0178739625430424
 30
0.0
 11
57.1003861799744001
 21
56.3731966122277015
 31
0.0
  0
LINE
  5
446
  8
0
 62
     0
 10
84.472320046109985
 20
83.7451304783632793
 30
0.0
 11
85.7650760942943862
 21
85.0378865265476662
 31
0.0
  0
LINE
  5
447
  8
0
 62
     0
 10
49.3885889685326092
 20
48.6613994007859105
 30
0.0
 11
50.6813450167168682
 21
49.9541554489701696
 31
0.0
  0
LINE
  5
448
  8
0
 62
     0
 10
68.4569637210259145
 20
68.6277997653861291
 30
0.0
 11
72.2422972449294321
 21
72.4131332892896467
 31
0.0
  0
LINE
  5
449
  8
0
 62
     0
 10
62.0133422057906003
 20
62.1841782501508007
 30
0.0
 11
65.7986757296940823
 21
65.9695117740542969
 31
0.0
  0
LINE
  5
44A
  8
0
 62
     0
 10
79.7369259269076451
 20
79.9077619712678597
 30
0.0
 11
81.412165809502369
 21
81.5830018538625836
 31
0.0
  0
LINE
  5
44B
  8
0
 62
     0
 10
52.8434736412174573
 20
53.0143096855776719
 30
0.0
 11
54.5187135238121527
 21
54.6895495681723673
 31
0.0
  0
LINE
  5
44C
  8
0
 62
     0
 10
83.5742944340030931
 20
83.7451304783632935
 30
0.0
 11
84.8560406439333974
 21
85.026876688293612
 31
0.0
  0
LINE
  5
44D
  8
0
 62
     0
 10
49.3995988067866278
 20
49.5704348511468424
 30
0.0
 11
50.6813450167168682
 21
50.8521810610770899
 31
0.0
  0
LINE
  5
44E
  8
0
 62
     0
 10
62.0213450167169
 20
63.0902066731840421
 30
0.0
 11
71.3362688218961409
 21
72.4051304783632759
 31
0.0
  0
LINE
  5
44F
  8
0
 62
     0
 10
80.0811221683845957
 20
81.1499838248517449
 30
0.0
 11
81.2322516365142917
 21
82.3011132929814266
 31
0.0
  0
LINE
  5
450
  8
0
 62
     0
 10
52.1253622020986924
 20
53.1942238585658274
 30
0.0
 11
53.2764916702282108
 21
54.3453533266953386
 31
0.0
  0
LINE
  5
451
  8
0
 62
     0
 10
82.6762688218961728
 20
83.7451304783632935
 30
0.0
 11
83.9470051935723802
 21
85.0158668500395152
 31
0.0
  0
LINE
  5
452
  8
0
 62
     0
 10
49.4106086450407531
 20
50.4794703015078881
 30
0.0
 11
50.6813450167168682
 21
51.7502066731840102
 31
0.0
  0
LINE
  5
453
  8
0
 62
     0
 10
62.0213450167169
 20
63.9882322852909269
 30
0.0
 11
70.4382432097892632
 21
72.4051304783633043
 31
0.0
  0
LINE
  5
454
  8
0
 62
     0
 10
79.9048391190340226
 20
81.8717263876080352
 30
0.0
 11
81.2518478892644112
 21
83.218735157838438
 31
0.0
  0
LINE
  5
455
  8
0
 62
     0
 10
51.2077403372418019
 20
53.1746276058158287
 30
0.0
 11
52.5547491074719275
 21
54.5216363760459615
 31
0.0
  0
LINE
  5
456
  8
0
 62
     0
 10
81.6589807459368444
 20
83.6258680145108713
 30
0.0
 11
83.0379697432113488
 21
85.0048570117853757
 31
0.0
  0
LINE
  5
457
  8
0
 62
     0
 10
49.4216184832948002
 20
51.38850575186882
 30
0.0
 11
50.800607480569262
 21
52.7674947491432818
 31
0.0
  0
LINE
  5
458
  8
0
 62
     0
 10
62.0213450167168787
 20
64.8862578973978543
 30
0.0
 11
69.5402175976823003
 21
72.4051304783632759
 31
0.0
  0
LINE
  5
459
  8
0
 62
     0
 10
79.5451822800992545
 20
82.4100951607802301
 30
0.0
 11
82.1289342928503743
 21
84.9938471735313641
 31
0.0
  0
LINE
  5
45A
  8
0
 62
     0
 10
49.43262832154889
 20
52.2975412022298585
 30
0.0
 11
52.016380334299761
 21
54.8812932149807295
 31
0.0
  0
LINE
  5
45B
  8
0
 62
     0
 10
66.9043522578321017
 20
70.6672907506199692
 30
0.0
 11
68.6421919855754084
 21
72.4051304783632759
 31
0.0
  0
LINE
  5
45C
  8
0
 62
     0
 10
62.0213450167169
 20
65.7842835095047747
 30
0.0
 11
63.7591847444602067
 21
67.5221232372480813
 31
0.0
  0
LINE
  5
45D
  8
0
 62
     0
 10
79.0388971858797902
 20
82.8018356786676577
 30
0.0
 11
81.2198988424894139
 21
84.9828373352772815
 31
0.0
  0
LINE
  5
45E
  8
0
 62
     0
 10
49.4436381598029868
 20
53.2065766525908472
 30
0.0
 11
51.6246398164124116
 21
55.3875783092002791
 31
0.0
  0
LINE
  5
45F
  8
0
 62
     0
 10
66.4878812007970623
 20
71.1488453056918502
 30
0.0
 11
67.7441663734685164
 21
72.4051304783633043
 31
0.0
  0
LINE
  5
460
  8
0
 62
     0
 10
62.0213450167169
 20
66.682309121611695
 30
0.0
 11
63.2776301893883613
 21
67.9385942942831491
 31
0.0
  0
LINE
  5
461
  8
0
 62
     0
 10
78.3639076144011142
 20
83.0248717192958878
 30
0.0
 11
80.3108633921283968
 21
84.9718274970231846
 31
0.0
  0
LINE
  5
462
  8
0
 62
     0
 10
49.4546479980570197
 20
54.1156121029518218
 30
0.0
 11
51.4016037757841673
 21
56.062567880678948
 31
0.0
  0
LINE
  5
463
  8
0
 62
     0
 10
65.7656703384483592
 20
71.3246600554500674
 30
0.0
 11
66.8461407613615961
 21
72.4051304783633043
 31
0.0
  0
LINE
  5
464
  8
0
 62
     0
 10
62.0213450167169
 20
67.5803347337186153
 30
0.0
 11
63.1018154396301512
 21
68.6608051566318522
 31
0.0
  0
LINE
  5
465
  8
0
 62
     0
 10
77.478392789401596
 20
83.0373825064033042
 30
0.0
 11
79.401827941767408
 21
84.9608176587691162
 31
0.0
  0
LINE
  5
466
  8
0
 62
     0
 10
49.4656578363110668
 20
55.0246475533127821
 30
0.0
 11
51.389092988676822
 21
56.9480827056785301
 31
0.0
  0
LINE
  5
467
  8
0
 62
     0
 10
65.0396371081771747
 20
71.4966524372858032
 30
0.0
 11
66.0197371395313723
 21
72.4767524686400009
 31
0.0
  0
LINE
  5
468
  8
0
 62
     0
 10
61.9497230264402106
 20
68.4067383555488391
 30
0.0
 11
62.9298230577943798
 21
69.3868383869030083
 31
0.0
  0
LINE
  5
469
  8
0
 62
     0
 10
74.4434553285311154
 20
80.9004706576397439
 30
0.0
 11
75.4813450167169435
 21
81.9383603458255863
 31
0.0
  0
LINE
  5
46A
  8
0
 62
     0
 10
52.4881151492546323
 20
58.9451304783632608
 30
0.0
 11
53.5260048374403326
 21
59.9830201665489469
 31
0.0
  0
LINE
  5
46B
  8
0
 62
     0
 10
76.569357339040593
 20
83.0263726681492358
 30
0.0
 11
78.4927924914063624
 21
84.9498078205149909
 31
0.0
  0
LINE
  5
46C
  8
0
 62
     0
 10
49.4766676745651921
 20
55.9336830036738206
 30
0.0
 11
51.4001028269308335
 21
57.8571181560394621
 31
0.0
  0
LINE
  5
46D
  8
0
 62
     0
 10
64.3918368904191709
 20
71.7468778316347198
 30
0.0
 11
65.3224733179301609
 21
72.6775142591457097
 31
0.0
  0
LINE
  5
46E
  8
0
 62
     0
 10
61.7489612359345301
 20
69.1040021771500648
 30
0.0
 11
62.6795976634455201
 21
70.0346386046610689
 31
0.0
  0
LINE
  5
46F
  8
0
 62
     0
 10
73.6582669154184657
 20
81.0133078566340146
 30
0.0
 11
77.583757041045402
 21
84.9387979822609367
 31
0.0
  0
LINE
  5
470
  8
0
 62
     0
 10
49.4876775128192605
 20
56.8427184540348094
 30
0.0
 11
53.41316763844614
 21
60.7682085796616818
 31
0.0
  0
LINE
  5
471
  8
0
 62
     0
 10
63.8094728260074007
 20
72.0625393793298343
 30
0.0
 11
64.7195510526551061
 21
72.9726176059775469
 31
0.0
  0
LINE
  5
472
  8
0
 62
     0
 10
61.4538578891026575
 20
69.7069244424251053
 30
0.0
 11
62.3639361157503913
 21
70.6170026690728321
 31
0.0
  0
LINE
  5
473
  8
0
 62
     0
 10
73.4813450167169435
 20
81.7344115700393843
 30
0.0
 11
76.6747215906844417
 21
84.9277881440068825
 31
0.0
  0
LINE
  5
474
  8
0
 62
     0
 10
49.4986873510733005
 20
57.7517539043957413
 30
0.0
 11
52.6920639250408485
 21
60.9451304783632892
 31
0.0
  0
LINE
  5
475
  8
0
 62
     0
 10
63.285514743747683
 20
72.4366069091770726
 30
0.0
 11
64.1954709566718975
 21
73.346563122101287
 31
0.0
  0
LINE
  5
476
  8
0
 62
     0
 10
61.0799123729789173
 20
70.2310045384083139
 30
0.0
 11
61.9898685859031104
 21
71.1409607513325
 31
0.0
  0
LINE
  5
477
  8
0
 62
     0
 10
73.4813450167169435
 20
82.632437182146333
 30
0.0
 11
75.7656861403233393
 21
84.9167783057527288
 31
0.0
  0
LINE
  5
478
  8
0
 62
     0
 10
49.5096971893274329
 20
58.6607893547568082
 30
0.0
 11
51.7940383129339281
 21
60.9451304783633319
 31
0.0
  0
LINE
  5
479
  8
0
 62
     0
 10
62.8159671674274875
 20
72.865084944963769
 30
0.0
 11
63.7352061904508389
 21
73.7843239679871203
 31
0.0
  0
LINE
  5
47A
  8
0
 62
     0
 10
60.6421515270930911
 20
70.6912693046293725
 30
0.0
 11
61.5613905501164069
 21
71.6105083276526955
 31
0.0
  0
LINE
  5
47B
  8
0
 62
     0
 10
73.4813450167169719
 20
83.5304627942532534
 30
0.0
 11
74.8566506899624358
 21
84.9057684674987172
 31
0.0
  0
LINE
  5
47C
  8
0
 62
     0
 10
49.5207070275814871
 20
59.5698248051177686
 30
0.0
 11
50.8960127008269865
 21
60.9451304783632608
 31
0.0
  0
LINE
  5
47D
  8
0
 62
     0
 10
62.3718049265098387
 20
73.3189483161530404
 30
0.0
 11
63.2912541899009398
 21
74.2383975795441415
 31
0.0
  0
LINE
  5
47E
  8
0
 62
     0
 10
60.1880779155360983
 20
71.1352213051793001
 30
0.0
 11
61.107527178927171
 21
72.0546705685703728
 31
0.0
  0
LINE
  5
47F
  8
0
 62
     0
 10
73.4825403752058151
 20
84.4296837648490168
 30
0.0
 11
73.9467917302312117
 21
84.8939351198744134
 31
0.0
  0
LINE
  5
480
  8
0
 62
     0
 10
49.5325403752057412
 20
60.4796837648489429
 30
0.0
 11
49.996791730231223
 21
60.9439351198744177
 31
0.0
  0
LINE
  5
481
  8
0
 62
     0
 10
61.9367589892194985
 20
73.7819279909696206
 30
0.0
 11
62.8568141744420927
 21
74.7019831761922148
 31
0.0
  0
LINE
  5
482
  8
0
 62
     0
 10
59.7244923188879895
 20
71.5696613206381187
 30
0.0
 11
60.6445475041106192
 21
72.4897165058607413
 31
0.0
  0
LINE
  5
483
  8
0
 62
     0
 10
61.5108466470692505
 20
74.2540412609262717
 30
0.0
 11
62.4319057878582484
 21
75.1751004017152695
 31
0.0
  0
LINE
  5
484
  8
0
 62
     0
 10
59.2513750933649135
 20
71.9945697072219133
 30
0.0
 11
60.1724342341539682
 21
72.9156288480109822
 31
0.0
  0
LINE
  5
485
  8
0
 62
     0
 10
61.0940965954562785
 20
74.7353168214202412
 30
0.0
 11
62.0165616413058203
 21
75.6577818672697902
 31
0.0
  0
LINE
  5
486
  8
0
 62
     0
 10
58.7686936278103929
 20
72.4099138537743556
 30
0.0
 11
59.6911586736599418
 21
73.3323788996239045
 31
0.0
  0
LINE
  5
487
  8
0
 62
     0
 10
60.6865491127918233
 20
75.225794950862678
 30
0.0
 11
61.6108275351297507
 21
76.1500733732005983
 31
0.0
  0
LINE
  5
488
  8
0
 62
     0
 10
58.2764021218795776
 20
72.8156479599504394
 30
0.0
 11
59.2006805442175335
 21
73.7399263822883739
 31
0.0
  0
LINE
  5
489
  8
0
 62
     0
 10
60.2882563140447303
 20
75.7255277642225053
 30
0.0
 11
61.214762773236707
 21
76.6520342234144749
 31
0.0
  0
LINE
  5
48A
  8
0
 62
     0
 10
57.7744412716656726
 20
73.2117127218434405
 30
0.0
 11
58.7009477308577132
 21
74.1382191810354811
 31
0.0
  0
LINE
  5
48B
  8
0
 62
     0
 10
59.8992824824594905
 20
76.2345795447441645
 30
0.0
 11
60.8284405751108821
 21
77.1637376373955703
 31
0.0
  0
LINE
  5
48C
  8
0
 62
     0
 10
57.2627378576845913
 20
73.5980349199692654
 30
0.0
 11
58.1918959503360327
 21
74.527193012620728
 31
0.0
  0
LINE
  5
48D
  8
0
 62
     0
 10
64.5622305365319562
 20
80.8975275988166516
 30
0.0
 11
65.2813450167169549
 21
81.616642079001636
 31
0.0
  0
LINE
  5
48E
  8
0
 62
     0
 10
52.8098334160786109
 20
69.1451304783633134
 30
0.0
 11
53.5289478962634391
 21
69.8642449585481415
 31
0.0
  0
LINE
  5
48F
  8
0
 62
     0
 10
59.5197044844400409
 20
76.7530271588316566
 30
0.0
 11
60.4519485922496926
 21
77.6852712666413083
 31
0.0
  0
LINE
  5
490
  8
0
 62
     0
 10
56.7412042284389315
 20
73.9745269028305472
 30
0.0
 11
57.6734483362486117
 21
74.9067710106402131
 31
0.0
  0
LINE
  5
491
  8
0
 62
     0
 10
63.6833886675628378
 20
80.9167113419544535
 30
0.0
 11
65.2813450167169549
 21
82.5146676911085706
 31
0.0
  0
LINE
  5
492
  8
0
 62
     0
 10
51.9118078039716693
 20
69.145130478363285
 30
0.0
 11
53.509764153125758
 21
70.7430868275173736
 31
0.0
  0
LINE
  5
493
  8
0
 62
     0
 10
59.1496122739665608
 20
77.280960560465104
 30
0.0
 11
60.0853895376932599
 21
78.2167378241917959
 31
0.0
  0
LINE
  5
494
  8
0
 62
     0
 10
56.20973767088838
 20
74.3410859573869232
 30
0.0
 11
57.1455149346151288
 21
75.2768632211136719
 31
0.0
  0
LINE
  5
495
  8
0
 62
     0
 10
63.281345016716898
 20
81.4126933032154341
 30
0.0
 11
65.2813450167169265
 21
83.4126933032154625
 31
0.0
  0
LINE
  5
496
  8
0
 62
     0
 10
51.0137821918647205
 20
69.1451304783632565
 30
0.0
 11
53.0137821918648626
 21
71.1451304783633844
 31
0.0
  0
LINE
  5
497
  8
0
 62
     0
 10
58.5997104728387725
 20
77.6290843714442076
 30
0.0
 11
59.7288819394848431
 21
78.758255838090264
 31
0.0
  0
LINE
  5
498
  8
0
 62
     0
 10
55.6682196569899119
 20
74.697593555595347
 30
0.0
 11
56.7973911236359967
 21
75.8267650222414318
 31
0.0
  0
LINE
  5
499
  8
0
 62
     0
 10
63.2804042094975117
 20
82.3097781081029183
 30
0.0
 11
65.2813450167169265
 21
84.3107189153223544
 31
0.0
  0
LINE
  5
49A
  8
0
 62
     0
 10
50.1157565797577718
 20
69.1451304783631997
 30
0.0
 11
52.1166973869772505
 21
71.1460712855826785
 31
0.0
  0
LINE
  5
49B
  8
0
 62
     0
 10
55.1165149529609195
 20
75.0439144636733033
 30
0.0
 11
59.3825610314068513
 21
79.309960542119228
 31
0.0
  0
LINE
  5
49C
  8
0
 62
     0
 10
62.9601502689899633
 20
82.8875497797023257
 30
0.0
 11
64.941415818888629
 21
84.8688153296010057
 31
0.0
  0
LINE
  5
49D
  8
0
 62
     0
 10
49.557660165479092
 20
69.4850596761914687
 30
0.0
 11
51.5389257153778075
 21
71.4663252260901913
 31
0.0
  0
LINE
  5
49E
  8
0
 62
     0
 10
54.5544705749740828
 20
75.3798956977933585
 30
0.0
 11
59.0465797972868813
 21
79.8720049201061357
 31
0.0
  0
LINE
  5
49F
  8
0
 62
     0
 10
62.2008564212535404
 20
83.0262815440728161
 30
0.0
 11
64.0782575138141937
 21
84.9036826366334765
 31
0.0
  0
LINE
  5
4A0
  8
0
 62
     0
 10
49.5227928584466213
 20
70.3482179812658899
 30
0.0
 11
51.4001939510072816
 21
72.2256190738265502
 31
0.0
  0
LINE
  5
4A1
  8
0
 62
     0
 10
57.7664733985909322
 20
79.4899241335171212
 30
0.0
 11
58.7593149231898266
 21
80.4827656581160369
 31
0.0
  0
LINE
  5
4A2
  8
0
 62
     0
 10
53.9437098369640111
 20
75.6671605718902072
 30
0.0
 11
54.9365513615630334
 21
76.6600020964892224
 31
0.0
  0
LINE
  5
4A3
  8
0
 62
     0
 10
61.3135771461581598
 20
83.0370278810843558
 30
0.0
 11
63.1909782387187988
 21
84.9144289736449736
 31
0.0
  0
LINE
  5
4A4
  8
0
 62
     0
 10
49.5120465214350816
 20
71.2354972563612705
 30
0.0
 11
51.3894476139957703
 21
73.1128983489219593
 31
0.0
  0
LINE
  5
4A5
  8
0
 62
     0
 10
57.4880516285613794
 20
80.1095279755944887
 30
0.0
 11
58.6977346173894716
 21
81.3192109644225809
 31
0.0
  0
LINE
  5
4A6
  8
0
 62
     0
 10
53.1072645306574884
 20
75.7287408776905977
 30
0.0
 11
54.3169475194856872
 21
76.9384238665188036
 31
0.0
  0
LINE
  5
4A7
  8
0
 62
     0
 10
60.4041464081628874
 20
83.0256227551959967
 30
0.0
 11
62.3036989636234182
 21
84.9251753106565275
 31
0.0
  0
LINE
  5
4A8
  8
0
 62
     0
 10
49.5013001844235987
 20
72.122776531456708
 30
0.0
 11
51.4008527398841295
 21
74.0223290869172388
 31
0.0
  0
LINE
  5
4A9
  8
0
 62
     0
 10
57.3342353416297215
 20
80.8537373007697084
 30
0.0
 11
61.4164196885280589
 21
84.9359216476680672
 31
0.0
  0
LINE
  5
4AA
  8
0
 62
     0
 10
49.4905538474121087
 20
73.010055806552117
 30
0.0
 11
53.5727381943104888
 21
77.09224015345049
 31
0.0
  0
LINE
  5
4AB
  8
0
 62
     0
 10
57.3881252160545898
 20
81.805652787301554
 30
0.0
 11
60.5291404134326783
 21
84.9466679846796353
 31
0.0
  0
LINE
  5
4AC
  8
0
 62
     0
 10
49.4798075104005477
 20
73.8973350816474834
 30
0.0
 11
52.6208227077786717
 21
77.0383502790256216
 31
0.0
  0
LINE
  5
4AD
  8
0
 62
     0
 10
57.6131169202390367
 20
82.9286701035928644
 30
0.0
 11
59.6418611383372479
 21
84.957414321691104
 31
0.0
  0
LINE
  5
4AE
  8
0
 62
     0
 10
49.4690611733890577
 20
74.7846143567429067
 30
0.0
 11
51.4978053914873328
 21
76.8133585748411747
 31
0.0
  0
LINE
  5
4AF
  8
0
 62
     0
 10
57.2862158617130603
 20
83.4997946571738225
 30
0.0
 11
58.7545818632418886
 21
84.9681606587026579
 31
0.0
  0
LINE
  5
4B0
  8
0
 62
     0
 10
49.4583148363775535
 20
75.6718936318383157
 30
0.0
 11
50.9266808379063889
 21
77.1402596333671511
 31
0.0
  0
LINE
  5
4B1
  8
0
 62
     0
 10
56.6335202375161728
 20
83.745124645083834
 30
0.0
 11
57.8673025881464866
 21
84.9789069957141692
 31
0.0
  0
LINE
  5
4B2
  8
0
 62
     0
 10
49.4475684993660067
 20
76.5591729069336964
 30
0.0
 11
50.6813508499963135
 21
77.7929552575639889
 31
0.0
  0
LINE
  5
4B3
  8
0
 62
     0
 10
55.7355004586886693
 20
83.7451304783632793
 30
0.0
 11
56.9800233130510776
 21
84.9896533327256805
 31
0.0
  0
LINE
  5
4B4
  8
0
 62
     0
 10
49.436822162354531
 20
77.4464521820291338
 30
0.0
 11
50.6813450167168682
 21
78.6909750363914782
 31
0.0
  0
LINE
  5
4B5
  8
0
 62
     0
 10
54.8374748465817774
 20
83.7451304783632935
 30
0.0
 11
56.0927440379556614
 21
85.0003996697371917
 31
0.0
  0
LINE
  5
4B6
  8
0
 62
     0
 10
49.4260758253429913
 20
78.3337314571245145
 30
0.0
 11
50.6813450167168682
 21
79.5890006484983985
 31
0.0
  0
LINE
  5
4B7
  8
0
 62
     0
 10
53.9394492344748571
 20
83.7451304783632793
 30
0.0
 11
55.2054647628603234
 21
85.0111460067487172
 31
0.0
  0
LINE
  5
4B8
  8
0
 62
     0
 10
49.4153294883315084
 20
79.2210107322199235
 30
0.0
 11
50.6813450167168966
 21
80.4870262606053046
 31
0.0
  0
LINE
  5
4B9
  8
0
 62
     0
 10
53.0414236223679225
 20
83.7451304783632793
 30
0.0
 11
54.3181854877649428
 21
85.0218923437603138
 31
0.0
  0
LINE
  5
4BA
  8
0
 62
     0
 10
49.4045831513199687
 20
80.1082900073153326
 30
0.0
 11
50.6813450167168469
 21
81.3850518727122108
 31
0.0
  0
LINE
  5
4BB
  8
0
 62
     0
 10
52.0366360792825731
 20
83.6383685473848288
 30
0.0
 11
53.4309062126695196
 21
85.0326386807717824
 31
0.0
  0
LINE
  5
4BC
  8
0
 62
     0
 10
49.393836814308429
 20
80.9955692824106848
 30
0.0
 11
50.7881069476952689
 21
82.3898394157975247
 31
0.0
  0
LINE
  5
4BD
  8
0
 62
     0
 10
49.3830904772969532
 20
81.8828485575061222
 30
0.0
 11
52.5436269375741816
 21
85.0433850177833506
 31
0.0
  0
LINE
  5
4BE
  8
0
 62
     0
 10
49.5072141804344028
 20
82.9049978727504993
 30
0.0
 11
51.5214776223297406
 21
84.919261314645837
 31
0.0
  0
ENDBLK
  5
4C0
  8
0
  0
BLOCK
  8
0
  2
*U3
 70
     1
 10
0.0
 20
0.0
 30
0.0
  3
*U3
  1

  0
ARC
  5
4C2
  8
0
 10
53.7997272088797374
 20
35.1072967426317817
 30
0.0
 40
31.3000000000102112
 50
34.1508601911532494
 51
45.1343452114435095
  0
ARC
  5
4C3
  8
0
 10
72.1413450167162864
 20
53.5351304783621273
 30
0.0
 40
5.3000000000012513
 50
45.1343452114535495
 51
84.1488393292228949
  0
ARC
  5
4C4
  8
0
 10
72.7835960458714908
 20
59.8023079623308433
 30
0.0
 40
0.9999999999999953
 50
122.9809503632998968
 51
264.1488393292254955
  0
ARC
  5
4C5
  8
0
 10
69.381345016715386
 20
65.0451304783648538
 30
0.0
 40
5.250000000002137
 50
302.9809503632994279
 51
327.0190496366979005
  0
ARC
  5
4C6
  8
0
 10
74.6241675327493112
 20
61.6428794492086567
 30
0.0
 40
0.9999999999999719
 50
5.8511606707776842
 51
147.0190496367050059
  0
ARC
  5
4C7
  8
0
 10
80.8913450167162864
 20
62.2851304783630511
 30
0.0
 40
5.2999999999994314
 50
185.8511606707695023
 51
224.8656547885586861
  0
ARC
  5
4C8
  8
0
 10
99.3191787524445431
 20
80.6267482861960332
 30
0.0
 40
31.3000000000044096
 50
224.8656547885566113
 51
235.8491398088478945
  0
ARC
  5
4C9
  8
0
 10
81.4674911379908053
 20
54.3102658214698408
 30
0.0
 40
0.4999999999999639
 50
314.9999999999953957
 51
55.8491398088521791
  0
LINE
  5
4CA
  8
0
 10
81.8210445285840251
 20
53.9567124308765571
 30
0.0
 11
80.469763064203562
 21
52.6054309664960229
 31
0.0
  0
ARC
  5
4CB
  8
0
 10
80.1162096736103422
 20
52.9589843570894132
 30
0.0
 40
0.5000000000000608
 50
214.1508601911567098
 51
314.9999999999839133
  0
ARC
  5
4CC
  8
0
 10
39.4435112809899806
 20
80.62674828619501
 30
0.0
 40
31.3000000000031484
 50
304.1508601911518781
 51
315.1343452114396086
  0
ARC
  5
4CD
  8
0
 10
57.8713450167166528
 20
62.2851304783633566
 30
0.0
 40
5.3000000000002441
 50
315.1343452114409729
 51
354.1488393292279966
  0
ARC
  5
4CE
  8
0
 10
64.1385225006844166
 20
61.6428794492086922
 30
0.0
 40
0.9999999999999895
 50
32.9809503632903827
 51
174.1488393292237902
  0
ARC
  5
4CF
  8
0
 10
69.3813450167162387
 20
65.0451304783624948
 30
0.0
 40
5.249999999999015
 50
212.9809503632930046
 51
237.019049636702988
  0
ARC
  5
4D0
  8
0
 10
65.9790939875622371
 20
59.8023079623308433
 30
0.0
 40
1.000000000000022
 50
275.8511606707742203
 51
57.0190496367009914
  0
ARC
  5
4D1
  8
0
 10
66.6213450167165746
 20
53.5351304783638398
 30
0.0
 40
5.2999999999993888
 50
95.8511606707711366
 51
134.8656547885622103
  0
ARC
  5
4D2
  8
0
 10
84.9629628245539834
 20
35.1072967426322577
 30
0.0
 40
31.3000000000099092
 50
134.8656547885616988
 51
145.8491398088486051
  0
ARC
  5
4D3
  8
0
 10
58.6464803598233786
 20
52.9589843570893777
 30
0.0
 40
0.500000000000004
 50
225.0000000000092086
 51
325.8491398087718949
  0
LINE
  5
4D4
  8
0
 10
58.2929269692301588
 20
52.6054309664960371
 30
0.0
 11
56.9416455048497028
 21
53.9567124308765429
 31
0.0
  0
ARC
  5
4D5
  8
0
 10
57.2951988954429794
 20
54.3102658214698408
 30
0.0
 40
0.5000000000000289
 50
124.1508601911512955
 51
225.0000000000023022
  0
ARC
  5
4D6
  8
0
 10
84.9629628245390336
 20
94.9829642140820738
 30
0.0
 40
31.2999999999906393
 50
214.1508601911494054
 51
225.1343452114412003
  0
ARC
  5
4D7
  8
0
 10
66.6213450167169867
 20
76.5551304783635658
 30
0.0
 40
5.300000000000324
 50
225.1343452114400918
 51
264.1488393292243018
  0
ARC
  5
4D8
  8
0
 10
65.9790939875622371
 20
70.2879529943956811
 30
0.0
 40
0.9999999999999953
 50
302.9809503632998826
 51
84.1488393292256944
  0
ARC
  5
4D9
  8
0
 10
69.3813450167154429
 20
65.0451304783645412
 30
0.0
 40
5.249999999998157
 50
122.9809503632928056
 51
147.0190496367090134
  0
ARC
  5
4DA
  8
0
 10
64.1385225006844166
 20
68.4473815075178607
 30
0.0
 40
0.9999999999999634
 50
185.8511606707727992
 51
327.0190496366947173
  0
ARC
  5
4DB
  8
0
 10
57.8713450167169796
 20
67.8051304783632531
 30
0.0
 40
5.2999999999999146
 50
5.8511606707723827
 51
44.8656547885607324
  0
ARC
  5
4DC
  8
0
 10
39.4435112809986776
 20
49.4635126705419381
 30
0.0
 40
31.2999999999895984
 50
44.8656547885577908
 51
55.849139808854801
  0
ARC
  5
4DD
  8
0
 10
57.2951988954429794
 20
75.7799951352566836
 30
0.0
 40
0.5000000000000241
 50
134.9999999999976978
 51
235.8491398085812989
  0
LINE
  5
4DE
  8
0
 10
56.9416455048497028
 20
76.1335485258499887
 30
0.0
 11
58.2929269692301588
 21
77.4848299902305087
 31
0.0
  0
ARC
  5
4DF
  8
0
 10
58.6464803598233786
 20
77.1312765996371184
 30
0.0
 40
0.5000000000000608
 50
34.1508601911567098
 51
134.9999999999837996
  0
ARC
  5
4E0
  8
0
 10
99.3191787524458647
 20
49.4635126705287291
 30
0.0
 40
31.3000000000066301
 50
124.1508601911522049
 51
135.1343452114427066
  0
ARC
  5
4E1
  8
0
 10
80.8913450167181054
 20
67.8051304783626136
 30
0.0
 40
5.3000000000013303
 50
135.1343452114483057
 51
174.1488393292225965
  0
ARC
  5
4E2
  8
0
 10
74.6241675327493112
 20
68.4473815075178607
 30
0.0
 40
1.00000000000002
 50
212.9809503632930898
 51
354.1488393292257797
  0
ARC
  5
4E3
  8
0
 10
69.3813450167151586
 20
65.0451304783616138
 30
0.0
 40
5.2500000000023332
 50
32.9809503633009271
 51
57.0190496366990587
  0
ARC
  5
4E4
  8
0
 10
72.7835960458714908
 20
70.2879529943957095
 30
0.0
 40
0.9999999999999944
 50
95.8511606707743056
 51
237.019049636700089
  0
ARC
  5
4E5
  8
0
 10
72.1413450167166843
 20
76.5551304783635373
 30
0.0
 40
5.3000000000003
 50
275.8511606707738224
 51
314.8656547885555028
  0
ARC
  5
4E6
  8
0
 10
53.799727208895149
 20
94.9829642140817327
 30
0.0
 40
31.2999999999901313
 50
314.8656547885541954
 51
325.8491398088506799
  0
ARC
  5
4E7
  8
0
 10
80.1162096736103422
 20
77.1312765996371468
 30
0.0
 40
0.500000000000004
 50
45.0000000000092086
 51
145.8491398088422955
  0
LINE
  5
4E8
  8
0
 10
80.469763064203562
 20
77.4848299902304802
 30
0.0
 11
81.8210445285840251
 21
76.1335485258499602
 31
0.0
  0
ARC
  5
4E9
  8
0
 10
81.4674911379908053
 20
75.7799951352566836
 30
0.0
 40
0.4999999999999735
 50
304.1508601911477854
 51
45.0000000000046398
  0
LINE
  5
4EA
  8
0
 10
88.008121712013704
 20
79.8059336771615051
 30
0.0
 11
87.8525338335344941
 21
79.6503457986821104
 31
0.0
  0
ARC
  5
4EB
  8
0
 10
88.0293105288312177
 20
79.4735691033856426
 30
0.0
 40
0.2499999999999417
 50
135.0000000000414104
 51
225.0000000000322871
  0
LINE
  5
4EC
  8
0
 10
87.8525338335347215
 20
79.2967924080889333
 30
0.0
 11
88.0081217120131782
 21
79.1412045296104907
 31
0.0
  0
ARC
  5
4ED
  8
0
 10
87.8313450167171368
 20
78.9644278343137387
 30
0.0
 40
0.2499999999996589
 50
0.0
 51
45.0000000000825935
  0
LINE
  5
4EE
  8
0
 10
88.0813450167167957
 20
78.964427834313625
 30
0.0
 11
88.0813450167169094
 21
77.7963708870582877
 31
0.0
  0
ARC
  5
4EF
  8
0
 10
87.0813450167169236
 20
77.7963708870583162
 30
0.0
 40
1.0000000000000191
 50
248.1552425142353968
 51
359.9999999999984084
  0
ARC
  5
4F0
  8
0
 10
85.4813450167168867
 20
73.8051304783629689
 30
0.0
 40
3.3000000000003178
 50
68.1552425142390632
 51
121.9473365996380068
  0
ARC
  5
4F1
  8
0
 10
83.4706146989177569
 20
77.0295627677876951
 30
0.0
 40
0.4999999999998633
 50
224.9999999999930935
 51
301.9473365996545908
  0
LINE
  5
4F2
  8
0
 10
83.1170613083245371
 20
76.6760093771945606
 30
0.0
 11
81.0122239155481338
 21
78.7808467699709638
 31
0.0
  0
ARC
  5
4F3
  8
0
 10
81.3657773061410126
 20
79.1344001605641836
 30
0.0
 40
0.4999999999996921
 50
148.0526634003331878
 51
225.0000000000275975
  0
ARC
  5
4F4
  8
0
 10
78.1413450167169117
 20
81.1451304783632565
 30
0.0
 40
3.299999999999927
 50
328.0526634003588811
 51
21.8447574857634095
  0
ARC
  5
4F5
  8
0
 10
82.1325854254118752
 20
82.7451304783633361
 30
0.0
 40
0.999999999999943
 50
90.0
 51
201.8447574857680138
  0
LINE
  5
4F6
  8
0
 10
82.1325854254118752
 20
83.7451304783632793
 30
0.0
 11
86.0813450167168952
 21
83.7451304783632509
 31
0.0
  0
ARC
  5
4F7
  8
0
 10
86.0813450167170231
 20
81.7451304783633645
 30
0.0
 40
1.9999999999998861
 50
0.0
 51
90.0000000000040643
  0
LINE
  5
4F8
  8
0
 10
88.0813450167169094
 20
81.7451304783632651
 30
0.0
 11
88.0813450167167957
 21
81.000992910602406
 31
0.0
  0
ARC
  5
4F9
  8
0
 10
87.8313450167173642
 20
81.0009929106021644
 30
0.0
 40
0.2499999999994192
 50
314.9999999999217266
 51
0.0000000000585931
  0
LINE
  5
4FA
  8
0
 10
88.0081217120133346
 20
80.8242162153056967
 30
0.0
 11
87.8525338335347215
 21
80.6686283368271404
 31
0.0
  0
ARC
  5
4FB
  8
0
 10
88.0293105288312745
 20
80.4918516415304168
 30
0.0
 40
0.250000000000002
 50
134.9999999999724025
 51
224.9999999999309068
  0
LINE
  5
4FC
  8
0
 10
87.8525338335343804
 20
80.315074946233949
 30
0.0
 11
88.008121712013704
 21
80.1594870677545543
 31
0.0
  0
ARC
  5
4FD
  8
0
 10
87.8313450167168526
 20
79.9827103724580297
 30
0.0
 40
0.2500000000000623
 50
315.0000000000507043
 51
44.9999999999494023
  0
CIRCLE
  5
4FE
  8
0
 10
69.3813450167168639
 20
65.0451304783632906
 30
0.0
 40
3.7000000000000002
  0
LINE
  5
4FF
  8
0
 10
50.6813450167168185
 20
77.7963708870583162
 30
0.0
 11
50.6813450167168185
 21
81.7451304783632651
 31
0.0
  0
ARC
  5
500
  8
0
 10
52.6813450167167616
 20
81.7451304783633077
 30
0.0
 40
1.9999999999999709
 50
89.9999999999983658
 51
180.0000000000007958
  0
LINE
  5
501
  8
0
 10
52.6813450167168114
 20
83.7451304783632793
 30
0.0
 11
56.6301046080218313
 21
83.7451304783632793
 31
0.0
  0
ARC
  5
502
  8
0
 10
56.6301046080217816
 20
82.745130478363194
 30
0.0
 40
1.000000000000087
 50
338.155242514247675
 51
89.9999999999967031
  0
ARC
  5
503
  8
0
 10
60.6213450167172709
 20
81.145130478363285
 30
0.0
 40
3.300000000000376
 50
158.1552425142378127
 51
211.9473365996367988
  0
ARC
  5
504
  8
0
 10
57.3969127272926585
 20
79.1344001605641836
 30
0.0
 40
0.4999999999997428
 50
314.999999999974591
 51
31.9473365996659986
  0
LINE
  5
505
  8
0
 10
57.7504661178855869
 20
78.7808467699709354
 30
0.0
 11
55.6456287251091908
 21
76.6760093771945037
 31
0.0
  0
ARC
  5
506
  8
0
 10
55.292075334515971
 20
77.0295627677878372
 30
0.0
 40
0.5000000000000178
 50
238.0526634003718982
 51
314.9999999999907914
  0
ARC
  5
507
  8
0
 10
53.2813450167168412
 20
73.805130478363111
 30
0.0
 40
3.3000000000001619
 50
58.0526634003579929
 51
111.8447574857575972
  0
ARC
  5
508
  8
0
 10
51.6813450167168185
 20
77.7963708870583162
 30
0.0
 40
1.0
 50
180.0
 51
291.8447574857580094
  0
ARC
  5
509
  8
0
 10
53.2813450167168412
 20
56.2851304783632713
 30
0.0
 40
3.3000000000000491
 50
248.1552425142413938
 51
301.9473365996406073
  0
ARC
  5
50A
  8
0
 10
55.292075334515971
 20
53.0606981889386589
 30
0.0
 40
0.500000000000004
 50
45.0000000000092086
 51
121.9473365996443022
  0
LINE
  5
50B
  8
0
 10
55.6456287251091908
 20
53.4142515795319568
 30
0.0
 11
57.7504661178855869
 21
51.3094141867556104
 31
0.0
  0
ARC
  5
50C
  8
0
 10
57.3969127272927082
 20
50.9558607961623693
 30
0.0
 40
0.4999999999997133
 50
328.0526634003539925
 51
45.0000000000299707
  0
ARC
  5
50D
  8
0
 10
60.6213450167169867
 20
48.9451304783631826
 30
0.0
 40
3.3000000000001108
 50
148.0526634003556978
 51
201.8447574857611926
  0
ARC
  5
50E
  8
0
 10
56.6301046080218313
 20
47.3451304783632665
 30
0.0
 40
1.000000000000028
 50
270.0
 51
21.8447574857625391
  0
LINE
  5
50F
  8
0
 10
56.6301046080218313
 20
46.3451304783632381
 30
0.0
 11
52.6813450167168114
 21
46.3451304783632665
 31
0.0
  0
ARC
  5
510
  8
0
 10
52.6813450167167119
 20
48.3451304783631599
 30
0.0
 40
1.9999999999998861
 50
180.0
 51
270.0000000000040927
  0
LINE
  5
511
  8
0
 10
50.6813450167168185
 20
48.3451304783632381
 30
0.0
 11
50.6813450167168185
 21
52.2938900696682083
 31
0.0
  0
ARC
  5
512
  8
0
 10
51.6813450167168185
 20
52.2938900696682083
 30
0.0
 40
1.0000000000000031
 50
68.1552425142420191
 51
180.0
  0
ARC
  5
513
  8
0
 10
83.4706146989177569
 20
53.0606981889388507
 30
0.0
 40
0.499999999999861
 50
58.0526634003470789
 51
135.0000000000069065
  0
ARC
  5
514
  8
0
 10
85.4813450167168867
 20
56.2851304783631576
 30
0.0
 40
3.2999999999999332
 50
238.052663400357801
 51
291.8447574857636937
  0
ARC
  5
515
  8
0
 10
87.0813450167168384
 20
52.2938900696682296
 30
0.0
 40
1.000000000000056
 50
0.0
 51
111.8447574857625995
  0
LINE
  5
516
  8
0
 10
88.0813450167169094
 20
52.2938900696682083
 30
0.0
 11
88.0813450167169094
 21
48.3451304783632381
 31
0.0
  0
ARC
  5
517
  8
0
 10
86.0813450167169663
 20
48.3451304783632096
 30
0.0
 40
1.9999999999999709
 50
269.9999999999984084
 51
0.0000000000007994
  0
LINE
  5
518
  8
0
 10
86.0813450167168952
 20
46.3451304783632381
 30
0.0
 11
82.1325854254118752
 21
46.3451304783632096
 31
0.0
  0
ARC
  5
519
  8
0
 10
82.1325854254118752
 20
47.3451304783632665
 30
0.0
 40
1.0000000000000351
 50
158.1552425142373863
 51
270.0
  0
ARC
  5
51A
  8
0
 10
78.1413450167165138
 20
48.9451304783631187
 30
0.0
 40
3.3000000000003329
 50
338.1552425142423886
 51
31.9473365996394598
  0
ARC
  5
51B
  8
0
 10
81.3657773061410552
 20
50.9558607961623409
 30
0.0
 40
0.4999999999997428
 50
134.9999999999747047
 51
211.9473365996543066
  0
LINE
  5
51C
  8
0
 10
81.0122239155481338
 20
51.3094141867555891
 30
0.0
 11
83.1170613083245371
 21
53.4142515795319923
 31
0.0
  0
LINE
  5
51D
  8
0
 10
64.787400353074986
 20
45.1951671468062202
 30
0.0
 11
52.4176770348657328
 21
45.045350489021132
 31
0.0
  0
ARC
  5
51E
  8
0
 10
64.7813450167168838
 20
45.6951304783631826
 30
0.0
 40
0.4999999999999397
 50
270.6939073967866989
 51
0.0000000000064748
  0
LINE
  5
51F
  8
0
 10
65.2813450167168412
 20
45.6951304783632324
 30
0.0
 11
65.2813450167168412
 21
48.6953505051573075
 31
0.0
  0
ARC
  5
520
  8
0
 10
64.7813450167169549
 20
48.6953505051573075
 30
0.0
 40
0.4999999999998864
 50
0.0
 51
90.6939073968128042
  0
LINE
  5
521
  8
0
 10
64.7752896803586395
 20
49.1953138367141989
 30
0.0
 11
63.7752896803586893
 21
49.1832022757737874
 31
0.0
  0
ARC
  5
522
  8
0
 10
63.7813450167167773
 20
48.6832389442168392
 30
0.0
 40
0.4999999999999397
 50
90.6939073967866847
 51
180.0000000000065086
  0
LINE
  5
523
  8
0
 10
63.2813450167168412
 20
48.6832389442167823
 30
0.0
 11
63.2813450167168412
 21
47.8180371521162471
 31
0.0
  0
ARC
  5
524
  8
0
 10
62.5313450167168412
 20
47.8180371521162471
 30
0.0
 40
0.749999999999996
 50
270.6939073967931222
 51
0.0
  0
LINE
  5
525
  8
0
 10
62.5404280212540584
 20
47.0680921547807429
 30
0.0
 11
60.7030092326692667
 21
47.0458381451496379
 31
0.0
  0
ARC
  5
526
  8
0
 10
60.6787878872367514
 20
49.0456914713777223
 30
0.0
 40
1.9999999999999889
 50
150.1454568403611916
 51
270.6939073967914737
  0
ARC
  5
527
  8
0
 10
84.96296282454324
 20
35.107296742641239
 30
0.0
 40
29.9999999999959499
 50
134.3951365478922071
 51
150.1454568403615042
  0
ARC
  5
528
  8
0
 10
66.7732928526158389
 20
53.6851304783632202
 30
0.0
 40
4.0
 50
89.9999999999992042
 51
134.395136547892406
  0
LINE
  5
529
  8
0
 10
66.7732928526158958
 20
57.6851304783632202
 30
0.0
 11
69.3813450167167503
 21
57.6851304783632202
 31
0.0
  0
LINE
  5
52A
  8
0
 10
71.9893971808178321
 20
57.6851304783632486
 30
0.0
 11
69.3813450167167503
 21
57.6851304783632202
 31
0.0
  0
ARC
  5
52B
  8
0
 10
71.9893971808180027
 20
53.6851304783636678
 30
0.0
 40
3.999999999999535
 50
45.6048634521056471
 51
90.0000000000024443
  0
ARC
  5
52C
  8
0
 10
53.7997272088842919
 20
35.1072967426360734
 30
0.0
 40
30.0000000000039613
 50
29.8545431596411213
 51
45.6048634521073808
  0
ARC
  5
52D
  8
0
 10
78.0839021461970901
 20
49.0456914713776726
 30
0.0
 40
1.99999999999996
 50
269.3060926032051725
 51
29.85454315964164
  0
LINE
  5
52E
  8
0
 10
76.2222620121796695
 20
47.0680921547807429
 30
0.0
 11
78.059680800764454
 21
47.0458381451496379
 31
0.0
  0
ARC
  5
52F
  8
0
 10
76.2313450167168867
 20
47.8180371521162471
 30
0.0
 40
0.75
 50
180.0
 51
269.3060926032068778
  0
LINE
  5
530
  8
0
 10
75.4813450167168867
 20
48.6832389442167823
 30
0.0
 11
75.4813450167168867
 21
47.8180371521162471
 31
0.0
  0
ARC
  5
531
  8
0
 10
74.9813450167169435
 20
48.6832389442168108
 30
0.0
 40
0.4999999999999432
 50
0.0000000000032569
 51
89.3060926032198381
  0
LINE
  5
532
  8
0
 10
73.9874003530750315
 20
49.1953138367142628
 30
0.0
 11
74.9874003530750315
 21
49.183202275773759
 31
0.0
  0
ARC
  5
533
  8
0
 10
73.9813450167168298
 20
48.6953505051572506
 30
0.0
 40
0.4999999999999979
 50
89.3060926032003692
 51
180.0
  0
LINE
  5
534
  8
0
 10
73.4813450167168867
 20
45.6951304783632324
 30
0.0
 11
73.4813450167168298
 21
48.6953505051572506
 31
0.0
  0
ARC
  5
535
  8
0
 10
73.9813450167168298
 20
45.6951304783632111
 30
0.0
 40
0.4999999999999432
 50
180.0000000000032117
 51
269.3060926032197813
  0
LINE
  5
536
  8
0
 10
73.9752896803587419
 20
45.1951671468062628
 30
0.0
 11
86.3450129985679951
 21
45.045350489021132
 31
0.0
  0
ARC
  5
537
  8
0
 10
86.3813450167169066
 20
48.0451304783631485
 30
0.0
 40
2.9999999999999272
 50
269.3060926032057978
 51
0.6939073967948062
  0
LINE
  5
538
  8
0
 10
89.3811250060589373
 20
48.0814624965121027
 30
0.0
 11
89.2313083482739557
 21
60.4511858147213772
 31
0.0
  0
ARC
  5
539
  8
0
 10
88.731345016716844
 20
60.4451304783632111
 30
0.0
 40
0.5000000000001112
 50
0.6939073967959092
 51
89.9999999999931646
  0
LINE
  5
53A
  8
0
 10
85.7311249899229892
 20
60.9451304783632395
 30
0.0
 11
88.7313450167168867
 21
60.9451304783633319
 31
0.0
  0
ARC
  5
53B
  8
0
 10
85.7311249899229182
 20
60.4451304783632892
 30
0.0
 40
0.4999999999999432
 50
89.9999999999934914
 51
180.6939073967996876
  0
LINE
  5
53C
  8
0
 10
85.2432732193064453
 20
59.4390751420050734
 30
0.0
 11
85.231161658365977
 21
60.4390751420050876
 31
0.0
  0
ARC
  5
53D
  8
0
 10
85.7432365508635144
 20
59.4451304783632111
 30
0.0
 40
0.5000000000000541
 50
180.6939073967926959
 51
269.9999999999997158
  0
LINE
  5
53E
  8
0
 10
86.6084383429638365
 20
58.9451304783632608
 30
0.0
 11
85.7432365508635144
 21
58.9451304783631613
 31
0.0
  0
ARC
  5
53F
  8
0
 10
86.6084383429638933
 20
58.1951304783632324
 30
0.0
 40
0.7500000000000246
 50
0.6939073967948587
 51
90.0000000000039364
  0
LINE
  5
540
  8
0
 10
87.3806373499305664
 20
56.3667946943154519
 30
0.0
 11
87.3583833402994401
 21
58.204213482900478
 31
0.0
  0
ARC
  5
541
  8
0
 10
85.3807840237024607
 20
56.3425733488828584
 30
0.0
 40
1.999999999999992
 50
240.145456840359401
 51
0.6939073967931276
  0
ARC
  5
542
  8
0
 10
99.3191787524398961
 20
80.6267482861904341
 30
0.0
 40
29.9999999999971507
 50
224.3951365478903881
 51
240.1454568403609073
  0
ARC
  5
543
  8
0
 10
80.7413450167169344
 20
62.4370783142621022
 30
0.0
 40
4.000000000000056
 50
180.0
 51
224.3951365478901891
  0
LINE
  5
544
  8
0
 10
76.7413450167168634
 20
65.0451304783632338
 30
0.0
 11
76.7413450167168634
 21
62.4370783142621235
 31
0.0
  0
LINE
  5
545
  8
0
 10
76.7413450167168634
 20
65.0451304783632338
 30
0.0
 11
76.7413450167168634
 21
67.6531826424643441
 31
0.0
  0
ARC
  5
546
  8
0
 10
80.7413450167168207
 20
67.6531826424644009
 30
0.0
 40
3.9999999999999392
 50
135.6048634521096119
 51
180.0000000000007958
  0
ARC
  5
547
  8
0
 10
99.3191787524382903
 20
49.4635126705378525
 30
0.0
 40
29.9999999999948308
 50
119.8545431596382969
 51
135.6048634521100951
  0
ARC
  5
548
  8
0
 10
85.3807840237024607
 20
73.7476876078432895
 30
0.0
 40
1.999999999999988
 50
359.3060926032072189
 51
119.8545431596388937
  0
LINE
  5
549
  8
0
 10
87.3806373499305096
 20
73.7234662624107102
 30
0.0
 11
87.3583833402994969
 21
71.8860474738260393
 31
0.0
  0
ARC
  5
54A
  8
0
 10
86.6084383429639502
 20
71.895130478363285
 30
0.0
 40
0.7500000000000285
 50
270.0
 51
359.3060926032047178
  0
LINE
  5
54B
  8
0
 10
86.6084383429639502
 20
71.1451304783632565
 30
0.0
 11
85.7432365508634007
 21
71.145130478363285
 31
0.0
  0
ARC
  5
54C
  8
0
 10
85.7432365508635144
 20
70.6451304783631997
 30
0.0
 40
0.5000000000000853
 50
90.0000000000130314
 51
179.3060926031972997
  0
LINE
  5
54D
  8
0
 10
85.2432732193063885
 20
70.6511858147214298
 30
0.0
 11
85.231161658365977
 21
69.6511858147214014
 31
0.0
  0
ARC
  5
54E
  8
0
 10
85.7311249899231029
 20
69.6451304783633134
 30
0.0
 40
0.5000000000001102
 50
179.3060926032140969
 51
269.9999999999874944
  0
LINE
  5
54F
  8
0
 10
85.7311249899229892
 20
69.1451304783631997
 30
0.0
 11
88.7313450167168867
 21
69.145130478363285
 31
0.0
  0
ARC
  5
550
  8
0
 10
88.7313450167168867
 20
69.6451304783633134
 30
0.0
 40
0.5000000000000285
 50
270.0
 51
359.3060926032036946
  0
LINE
  5
551
  8
0
 10
89.3811250060589373
 20
82.0087984602144076
 30
0.0
 11
89.2313083482739557
 21
69.6390751420051402
 31
0.0
  0
ARC
  5
552
  8
0
 10
86.3813450167168071
 20
82.0451304783632764
 30
0.0
 40
3.0000000000000391
 50
359.3060926032088105
 51
90.6939073967922411
  0
LINE
  5
553
  8
0
 10
73.9752896803587419
 20
84.8950938099202972
 30
0.0
 11
86.3450129985679951
 21
85.0449104677053924
 31
0.0
  0
ARC
  5
554
  8
0
 10
73.9813450167168298
 20
84.3951304783633276
 30
0.0
 40
0.4999999999999397
 50
90.6939073967866847
 51
180.0000000000065086
  0
LINE
  5
555
  8
0
 10
73.4813450167168867
 20
84.395130478363285
 30
0.0
 11
73.4813450167168867
 21
81.3949104515692738
 31
0.0
  0
ARC
  5
556
  8
0
 10
73.981345016716773
 20
81.394910451569217
 30
0.0
 40
0.4999999999998864
 50
180.0
 51
270.6939073968129037
  0
LINE
  5
557
  8
0
 10
73.9874003530750883
 20
80.8949471200123043
 30
0.0
 11
74.9874003530750315
 21
80.9070586809527299
 31
0.0
  0
ARC
  5
558
  8
0
 10
74.9813450167169435
 20
81.4070220125096853
 30
0.0
 40
0.4999999999999397
 50
270.6939073967866989
 51
0.0000000000064748
  0
LINE
  5
559
  8
0
 10
75.4813450167168867
 20
81.4070220125097421
 30
0.0
 11
75.4813450167168867
 21
82.2722238046102632
 31
0.0
  0
ARC
  5
55A
  8
0
 10
76.2313450167168867
 20
82.2722238046102632
 30
0.0
 40
0.749999999999996
 50
90.693907396793108
 51
180.0
  0
LINE
  5
55B
  8
0
 10
76.2222620121796695
 20
83.0221688019457815
 30
0.0
 11
78.0596808007642835
 21
83.044422811576851
 31
0.0
  0
ARC
  5
55C
  8
0
 10
78.0839021461969764
 20
81.044569485348859
 30
0.0
 40
1.9999999999999529
 50
330.1454568403598273
 51
90.6939073967964902
  0
ARC
  5
55D
  8
0
 10
53.7997272088924774
 20
94.9829642140838644
 30
0.0
 40
29.9999999999935092
 50
314.3951365478895923
 51
330.1454568403619874
  0
ARC
  5
55E
  8
0
 10
71.9893971808177184
 20
76.4051304783635032
 30
0.0
 40
4.0000000000001981
 50
270.0000000000017053
 51
314.3951365478906723
  0
LINE
  5
55F
  8
0
 10
71.9893971808178321
 20
72.4051304783633043
 30
0.0
 11
69.3813450167169634
 21
72.4051304783633043
 31
0.0
  0
LINE
  5
560
  8
0
 10
66.7732928526158958
 20
72.4051304783632759
 30
0.0
 11
69.3813450167169634
 21
72.4051304783633043
 31
0.0
  0
ARC
  5
561
  8
0
 10
66.7732928526158958
 20
76.4051304783633611
 30
0.0
 40
4.0000000000000391
 50
225.6048634521069971
 51
270.0
  0
ARC
  5
562
  8
0
 10
84.962962824545059
 20
94.9829642140873744
 30
0.0
 40
29.9999999999986215
 50
209.8545431596400874
 51
225.604863452107594
  0
ARC
  5
563
  8
0
 10
60.6787878872366377
 20
81.0445694853487737
 30
0.0
 40
2.0000000000000169
 50
89.306092603206892
 51
209.8545431596394906
  0
LINE
  5
564
  8
0
 10
62.5404280212540584
 20
83.0221688019457531
 30
0.0
 11
60.703009232669217
 21
83.044422811576851
 31
0.0
  0
ARC
  5
565
  8
0
 10
62.5313450167168412
 20
82.2722238046102348
 30
0.0
 40
0.75
 50
0.0
 51
89.306092603206892
  0
LINE
  5
566
  8
0
 10
63.2813450167168412
 20
81.4070220125097421
 30
0.0
 11
63.2813450167168412
 21
82.2722238046102348
 31
0.0
  0
ARC
  5
567
  8
0
 10
63.7813450167167773
 20
81.4070220125097137
 30
0.0
 40
0.4999999999999432
 50
180.0000000000032117
 51
269.3060926032197813
  0
LINE
  5
568
  8
0
 10
64.7752896803586964
 20
80.8949471200122616
 30
0.0
 11
63.7752896803586893
 21
80.9070586809527441
 31
0.0
  0
ARC
  5
569
  8
0
 10
64.7813450167168838
 20
81.3949104515692738
 30
0.0
 40
0.4999999999999979
 50
269.3060926032003977
 51
0.0
  0
LINE
  5
56A
  8
0
 10
65.2813450167168412
 20
84.395130478363285
 30
0.0
 11
65.281345016716898
 21
81.3949104515692738
 31
0.0
  0
ARC
  5
56B
  8
0
 10
64.7813450167168838
 20
84.3951304783633134
 30
0.0
 40
0.4999999999999432
 50
0.0000000000032569
 51
89.3060926032198381
  0
LINE
  5
56C
  8
0
 10
64.787400353074986
 20
84.8950938099202688
 30
0.0
 11
52.4176770348657328
 21
85.0449104677053924
 31
0.0
  0
ARC
  5
56D
  8
0
 10
52.3813450167168
 20
82.0451304783633759
 30
0.0
 40
2.9999999999999272
 50
89.3060926032057836
 51
180.6939073967947991
  0
LINE
  5
56E
  8
0
 10
49.3815650273747906
 20
82.0087984602144076
 30
0.0
 11
49.5313816851597721
 21
69.6390751420051402
 31
0.0
  0
ARC
  5
56F
  8
0
 10
50.031345016716898
 20
69.6451304783633134
 30
0.0
 40
0.5000000000001112
 50
180.6939073967959075
 51
269.9999999999931788
  0
LINE
  5
570
  8
0
 10
53.0315650435107386
 20
69.145130478363285
 30
0.0
 11
50.0313450167168412
 21
69.1451304783631997
 31
0.0
  0
ARC
  5
571
  8
0
 10
53.0315650435106178
 20
69.6451304783633702
 30
0.0
 40
0.5000000000000853
 50
270.0000000000130171
 51
0.6939073967832154
  0
LINE
  5
572
  8
0
 10
53.5194168141273394
 20
70.651185814721444
 30
0.0
 11
53.5315283750677509
 21
69.6511858147214298
 31
0.0
  0
ARC
  5
573
  8
0
 10
53.0194534825702704
 20
70.6451304783633134
 30
0.0
 40
0.5000000000000541
 50
0.6939073967927577
 51
89.9999999999997158
  0
LINE
  5
574
  8
0
 10
52.1542516904698914
 20
71.1451304783632565
 30
0.0
 11
53.0194534825702704
 21
71.1451304783633702
 31
0.0
  0
ARC
  5
575
  8
0
 10
52.1542516904698417
 20
71.895130478363285
 30
0.0
 40
0.7500000000000246
 50
180.6939073967947991
 51
270.0000000000039222
  0
LINE
  5
576
  8
0
 10
51.3820526835032183
 20
73.7234662624108523
 30
0.0
 11
51.4043066931342807
 21
71.8860474738260393
 31
0.0
  0
ARC
  5
577
  8
0
 10
53.3819060097312672
 20
73.7476876078434316
 30
0.0
 40
1.999999999999968
 50
60.1454568403590315
 51
180.6939073967930938
  0
ARC
  5
578
  8
0
 10
39.4435112809882185
 20
49.4635126705292123
 30
0.0
 40
30.0000000000060183
 50
44.3951365478904521
 51
60.1454568403578591
  0
ARC
  5
579
  8
0
 10
58.0213450167172979
 20
67.6531826424645146
 30
0.0
 40
3.9999999999995448
 50
0.0
 51
44.3951365478830624
  0
LINE
  5
57A
  8
0
 10
62.0213450167168503
 20
65.0451304783632906
 30
0.0
 11
62.0213450167168503
 21
67.6531826424644009
 31
0.0
  0
LINE
  5
57B
  8
0
 10
62.0213450167168503
 20
65.0451304783632906
 30
0.0
 11
62.0213450167168503
 21
62.4370783142621804
 31
0.0
  0
ARC
  5
57C
  8
0
 10
58.0213450167169071
 20
62.4370783142621519
 30
0.0
 40
3.9999999999999392
 50
315.6048634521096119
 51
0.0000000000003997
  0
ARC
  5
57D
  8
0
 10
39.4435112809917428
 20
80.6267482861932052
 30
0.0
 40
30.0000000000006395
 50
299.8545431596398885
 51
315.6048634521088729
  0
ARC
  5
57E
  8
0
 10
53.3819060097312672
 20
56.3425733488829508
 30
0.0
 40
2.0000000000000449
 50
179.3060926032077873
 51
299.8545431596381832
  0
LINE
  5
57F
  8
0
 10
51.3820526835031615
 20
56.3667946943155016
 30
0.0
 11
51.4043066931342807
 21
58.204213482900478
 31
0.0
  0
ARC
  5
580
  8
0
 10
52.1542516904698417
 20
58.1951304783632324
 30
0.0
 40
0.7500000000000285
 50
90.0
 51
179.3060926032046893
  0
LINE
  5
581
  8
0
 10
52.1542516904698417
 20
58.9451304783632608
 30
0.0
 11
53.0194534825702704
 21
58.9451304783632395
 31
0.0
  0
ARC
  5
582
  8
0
 10
53.0194534825701567
 20
59.4451304783633176
 30
0.0
 40
0.5000000000000853
 50
270.0000000000130171
 51
359.3060926031973281
  0
LINE
  5
583
  8
0
 10
53.5194168141272826
 20
59.4390751420051018
 30
0.0
 11
53.5315283750677509
 21
60.4390751420051231
 31
0.0
  0
ARC
  5
584
  8
0
 10
53.0315650435106178
 20
60.4451304783632111
 30
0.0
 40
0.5000000000001102
 50
359.3060926032140969
 51
89.9999999999874518
  0
LINE
  5
585
  8
0
 10
53.0315650435107386
 20
60.9451304783633319
 30
0.0
 11
50.0313450167168412
 21
60.9451304783632395
 31
0.0
  0
ARC
  5
586
  8
0
 10
50.0313450167168412
 20
60.4451304783632111
 30
0.0
 40
0.5000000000000285
 50
90.0
 51
179.3060926032036946
  0
LINE
  5
587
  8
0
 10
49.3815650273747906
 20
48.0814624965121027
 30
0.0
 11
49.5313816851597721
 21
60.4511858147213772
 31
0.0
  0
ARC
  5
588
  8
0
 10
52.3813450167169208
 20
48.0451304783632622
 30
0.0
 40
3.0000000000000391
 50
179.3060926032088105
 51
270.6939073967923264
  0
ENDBLK
  5
58A
  8
0
  0
ENDSEC
  0
SECTION
  2
ENTITIES
  0
ARC
  5
27B
  8
0
 10
1655.8918042774400874
 20
2100.5853156005218807
 30
0.0
 40
31.3000000000102112
 50
34.1508601911532494
 51
45.1343452114435095
  0
ARC
  5
27C
  8
0
 10
1674.2334220852769704
 20
2119.0131493362518995
 30
0.0
 40
5.3000000000012513
 50
45.1343452114535495
 51
84.1488393292228949
  0
ARC
  5
27D
  8
0
 10
1674.8756731144319474
 20
2125.2803268202210347
 30
0.0
 40
0.9999999999999953
 50
122.9809503632998968
 51
264.1488393292254955
  0
ARC
  5
27E
  8
0
 10
1671.47342208527607
 20
2130.5231493362548463
 30
0.0
 40
5.250000000002137
 50
302.9809503632994279
 51
327.0190496366979005
  0
ARC
  5
27F
  8
0
 10
1676.7162446013101089
 20
2127.1208983070991962
 30
0.0
 40
0.9999999999999719
 50
5.8511606707776842
 51
147.0190496367050059
  0
ARC
  5
280
  8
0
 10
1682.9834220852769704
 20
2127.763149336252809
 30
0.0
 40
5.2999999999994314
 50
185.8511606707695023
 51
224.8656547885586861
  0
ARC
  5
281
  8
0
 10
1701.4112558210049428
 20
2146.104767144086054
 30
0.0
 40
31.3000000000044096
 50
224.8656547885566113
 51
235.8491398088478945
  0
ARC
  5
282
  8
0
 10
1683.5595682065509209
 20
2119.7882846793600038
 30
0.0
 40
0.4999999999999639
 50
314.9999999999953957
 51
55.8491398088521791
  0
LINE
  5
283
  8
0
 10
1683.9131215971449365
 20
2119.4347312887662156
 30
0.0
 11
1682.5618401327640186
 21
2118.0834498243862072
 31
0.0
  0
ARC
  5
284
  8
0
 10
1682.2082867421709125
 20
2118.4370032149790859
 30
0.0
 40
0.5000000000000608
 50
214.1508601911567098
 51
314.9999999999839133
  0
ARC
  5
285
  8
0
 10
1641.5355883495510625
 20
2146.1047671440851445
 30
0.0
 40
31.3000000000031484
 50
304.1508601911518781
 51
315.1343452114396086
  0
ARC
  5
286
  8
0
 10
1659.9634220852769886
 20
2127.763149336252809
 30
0.0
 40
5.3000000000002441
 50
315.1343452114409729
 51
354.1488393292279966
  0
ARC
  5
287
  8
0
 10
1666.2305995692449869
 20
2127.1208983070991962
 30
0.0
 40
0.9999999999999895
 50
32.9809503632903827
 51
174.1488393292237902
  0
ARC
  5
288
  8
0
 10
1671.4734220852769795
 20
2130.5231493362521178
 30
0.0
 40
5.249999999999015
 50
212.9809503632930046
 51
237.019049636702988
  0
ARC
  5
289
  8
0
 10
1668.0711710561220116
 20
2125.2803268202210347
 30
0.0
 40
1.000000000000022
 50
275.8511606707742203
 51
57.0190496367009914
  0
ARC
  5
28A
  8
0
 10
1668.7134220852769886
 20
2119.0131493362541732
 30
0.0
 40
5.2999999999993888
 50
95.8511606707711366
 51
134.8656547885622103
  0
ARC
  5
28B
  8
0
 10
1687.0550398931150085
 20
2100.5853156005218807
 30
0.0
 40
31.3000000000099092
 50
134.8656547885616988
 51
145.8491398088486051
  0
ARC
  5
28C
  8
0
 10
1660.738557428383956
 20
2118.4370032149790859
 30
0.0
 40
0.500000000000004
 50
225.0000000000092086
 51
325.8491398087718949
  0
LINE
  5
28D
  8
0
 10
1660.3850040377910773
 20
2118.0834498243862072
 30
0.0
 11
1659.033722573409932
 21
2119.4347312887662156
 31
0.0
  0
ARC
  5
28E
  8
0
 10
1659.3872759640030381
 20
2119.7882846793600038
 30
0.0
 40
0.5000000000000289
 50
124.1508601911512955
 51
225.0000000000023022
  0
ARC
  5
28F
  8
0
 10
1687.0550398930990923
 20
2160.4609830719718957
 30
0.0
 40
31.2999999999906393
 50
214.1508601911494054
 51
225.1343452114412003
  0
ARC
  5
290
  8
0
 10
1668.7134220852769886
 20
2142.0331493362527908
 30
0.0
 40
5.300000000000324
 50
225.1343452114400918
 51
264.1488393292243018
  0
ARC
  5
291
  8
0
 10
1668.0711710561220116
 20
2135.7659718522850198
 30
0.0
 40
0.9999999999999953
 50
302.9809503632998826
 51
84.1488393292256944
  0
ARC
  5
292
  8
0
 10
1671.47342208527607
 20
2130.5231493362548463
 30
0.0
 40
5.249999999998157
 50
122.9809503632928056
 51
147.0190496367090134
  0
ARC
  5
293
  8
0
 10
1666.2305995692449869
 20
2133.9254003654082226
 30
0.0
 40
0.9999999999999634
 50
185.8511606707727992
 51
327.0190496366947173
  0
ARC
  5
294
  8
0
 10
1659.9634220852778981
 20
2133.2831493362527908
 30
0.0
 40
5.2999999999999146
 50
5.8511606707723827
 51
44.8656547885607324
  0
ARC
  5
295
  8
0
 10
1641.5355883495590206
 20
2114.941531528431824
 30
0.0
 40
31.2999999999895984
 50
44.8656547885577908
 51
55.849139808854801
  0
ARC
  5
296
  8
0
 10
1659.3872759640030381
 20
2141.2580139931460508
 30
0.0
 40
0.5000000000000241
 50
134.9999999999976978
 51
235.8491398085812989
  0
LINE
  5
297
  8
0
 10
1659.033722573409932
 20
2141.611567383739839
 30
0.0
 11
1660.3850040377910773
 21
2142.9628488481198474
 31
0.0
  0
ARC
  5
298
  8
0
 10
1660.738557428383956
 20
2142.6092954575269687
 30
0.0
 40
0.5000000000000608
 50
34.1508601911567098
 51
134.9999999999837996
  0
ARC
  5
299
  8
0
 10
1701.4112558210060797
 20
2114.941531528419091
 30
0.0
 40
31.3000000000066301
 50
124.1508601911522049
 51
135.1343452114427066
  0
ARC
  5
29A
  8
0
 10
1682.9834220852781073
 20
2133.2831493362518813
 30
0.0
 40
5.3000000000013303
 50
135.1343452114483057
 51
174.1488393292225965
  0
ARC
  5
29B
  8
0
 10
1676.7162446013101089
 20
2133.9254003654082226
 30
0.0
 40
1.00000000000002
 50
212.9809503632930898
 51
354.1488393292257797
  0
ARC
  5
29C
  8
0
 10
1671.4734220852749331
 20
2130.5231493362512083
 30
0.0
 40
5.2500000000023332
 50
32.9809503633009271
 51
57.0190496366990587
  0
ARC
  5
29D
  8
0
 10
1674.8756731144319474
 20
2135.7659718522850198
 30
0.0
 40
0.9999999999999944
 50
95.8511606707743056
 51
237.019049636700089
  0
ARC
  5
29E
  8
0
 10
1674.2334220852769704
 20
2142.0331493362527908
 30
0.0
 40
5.3000000000003
 50
275.8511606707738224
 51
314.8656547885555028
  0
ARC
  5
29F
  8
0
 10
1655.8918042774550941
 20
2160.4609830719709862
 30
0.0
 40
31.2999999999901313
 50
314.8656547885541954
 51
325.8491398088506799
  0
ARC
  5
2A0
  8
0
 10
1682.2082867421709125
 20
2142.6092954575269687
 30
0.0
 40
0.500000000000004
 50
45.0000000000092086
 51
145.8491398088422955
  0
LINE
  5
2A1
  8
0
 10
1682.5618401327640186
 20
2142.9628488481198474
 30
0.0
 11
1683.9131215971449365
 21
2141.611567383739839
 31
0.0
  0
ARC
  5
2A2
  8
0
 10
1683.5595682065509209
 20
2141.2580139931460508
 30
0.0
 40
0.4999999999999735
 50
304.1508601911477854
 51
45.0000000000046398
  0
LINE
  5
2A3
  8
0
 10
1690.1001987805739191
 20
2145.2839525350509575
 30
0.0
 11
1689.9446109020950644
 21
2145.1283646565721028
 31
0.0
  0
ARC
  5
2A4
  8
0
 10
1690.121387597391049
 20
2144.9515879612749814
 30
0.0
 40
0.2499999999999417
 50
135.0000000000414104
 51
225.0000000000322871
  0
LINE
  5
2A5
  8
0
 10
1689.9446109020950644
 20
2144.7748112659792241
 30
0.0
 11
1690.1001987805739191
 21
2144.6192233874999147
 31
0.0
  0
ARC
  5
2A6
  8
0
 10
1689.923422085277025
 20
2144.4424466922027932
 30
0.0
 40
0.2499999999996589
 50
0.0
 51
45.0000000000825935
  0
LINE
  5
2A7
  8
0
 10
1690.173422085277025
 20
2144.4424466922027932
 30
0.0
 11
1690.173422085277025
 21
2143.2743897449481665
 31
0.0
  0
ARC
  5
2A8
  8
0
 10
1689.173422085277025
 20
2143.2743897449481665
 30
0.0
 40
1.0000000000000191
 50
248.1552425142353968
 51
359.9999999999984084
  0
ARC
  5
2A9
  8
0
 10
1687.5734220852768885
 20
2139.2831493362527908
 30
0.0
 40
3.3000000000003178
 50
68.1552425142390632
 51
121.9473365996380068
  0
ARC
  5
2AA
  8
0
 10
1685.5626917674780998
 20
2142.5075816256771759
 30
0.0
 40
0.4999999999998633
 50
224.9999999999930935
 51
301.9473365996545908
  0
LINE
  5
2AB
  8
0
 10
1685.2091383768849937
 20
2142.1540282350852067
 30
0.0
 11
1683.1043009841089315
 21
2144.2588656278608141
 31
0.0
  0
ARC
  5
2AC
  8
0
 10
1683.4578543747020376
 20
2144.6124190184541476
 30
0.0
 40
0.4999999999996921
 50
148.0526634003331878
 51
225.0000000000275975
  0
ARC
  5
2AD
  8
0
 10
1680.2334220852769704
 20
2146.6231493362529363
 30
0.0
 40
3.299999999999927
 50
328.0526634003588811
 51
21.8447574857634095
  0
ARC
  5
2AE
  8
0
 10
1684.2246624939718913
 20
2148.2231493362528454
 30
0.0
 40
0.999999999999943
 50
90.0
 51
201.8447574857680138
  0
LINE
  5
2AF
  8
0
 10
1684.2246624939718913
 20
2149.2231493362528454
 30
0.0
 11
1688.173422085277025
 21
2149.2231493362528454
 31
0.0
  0
ARC
  5
2B0
  8
0
 10
1688.173422085277025
 20
2147.2231493362528454
 30
0.0
 40
1.9999999999998861
 50
0.0
 51
90.0000000000040643
  0
LINE
  5
2B1
  8
0
 10
1690.173422085277025
 20
2147.2231493362528454
 30
0.0
 11
1690.173422085277025
 21
2146.4790117684920006
 31
0.0
  0
ARC
  5
2B2
  8
0
 10
1689.9234220852779345
 20
2146.4790117684920006
 30
0.0
 40
0.2499999999994192
 50
314.9999999999217266
 51
0.0000000000585931
  0
LINE
  5
2B3
  8
0
 10
1690.1001987805739191
 20
2146.3022350731948791
 30
0.0
 11
1689.9446109020950644
 21
2146.1466471947169339
 31
0.0
  0
ARC
  5
2B4
  8
0
 10
1690.121387597391049
 20
2145.9698704994211766
 30
0.0
 40
0.250000000000002
 50
134.9999999999724025
 51
224.9999999999309068
  0
LINE
  5
2B5
  8
0
 10
1689.9446109020950644
 20
2145.7930938041240552
 30
0.0
 11
1690.1001987805739191
 21
2145.6375059256452005
 31
0.0
  0
ARC
  5
2B6
  8
0
 10
1689.923422085277025
 20
2145.460729230348079
 30
0.0
 40
0.2500000000000623
 50
315.0000000000507043
 51
44.9999999999494023
  0
CIRCLE
  5
2B7
  8
0
 10
1671.4734220852769795
 20
2130.5231493362530273
 30
0.0
 40
3.7000000000000002
  0
LINE
  5
2B8
  8
0
 10
1652.773422085276934
 20
2143.2743897449481665
 30
0.0
 11
1652.773422085276934
 21
2147.2231493362528454
 31
0.0
  0
ARC
  5
2B9
  8
0
 10
1654.773422085276934
 20
2147.2231493362528454
 30
0.0
 40
1.9999999999999709
 50
89.9999999999983658
 51
180.0000000000007958
  0
LINE
  5
2BA
  8
0
 10
1654.773422085276934
 20
2149.2231493362528454
 30
0.0
 11
1658.7221816765820677
 21
2149.2231493362528454
 31
0.0
  0
ARC
  5
2BB
  8
0
 10
1658.7221816765820677
 20
2148.2231493362528454
 30
0.0
 40
1.000000000000087
 50
338.155242514247675
 51
89.9999999999967031
  0
ARC
  5
2BC
  8
0
 10
1662.7134220852778981
 20
2146.6231493362529363
 30
0.0
 40
3.300000000000376
 50
158.1552425142378127
 51
211.9473365996367988
  0
ARC
  5
2BD
  8
0
 10
1659.4889897958530582
 20
2144.6124190184541476
 30
0.0
 40
0.4999999999997428
 50
314.999999999974591
 51
31.9473365996659986
  0
LINE
  5
2BE
  8
0
 10
1659.842543186445937
 20
2144.2588656278608141
 30
0.0
 11
1657.7377057936689653
 21
2142.1540282350852067
 31
0.0
  0
ARC
  5
2BF
  8
0
 10
1657.3841524030760866
 20
2142.5075816256780854
 30
0.0
 40
0.5000000000000178
 50
238.0526634003718982
 51
314.9999999999907914
  0
ARC
  5
2C0
  8
0
 10
1655.3734220852770704
 20
2139.2831493362527908
 30
0.0
 40
3.3000000000001619
 50
58.0526634003579929
 51
111.8447574857575972
  0
ARC
  5
2C1
  8
0
 10
1653.773422085276934
 20
2143.2743897449481665
 30
0.0
 40
1.0
 50
180.0
 51
291.8447574857580094
  0
ARC
  5
2C2
  8
0
 10
1655.3734220852770704
 20
2121.763149336252809
 30
0.0
 40
3.3000000000000491
 50
248.1552425142413938
 51
301.9473365996406073
  0
ARC
  5
2C3
  8
0
 10
1657.3841524030760866
 20
2118.5387170468288787
 30
0.0
 40
0.500000000000004
 50
45.0000000000092086
 51
121.9473365996443022
  0
LINE
  5
2C4
  8
0
 10
1657.7377057936689653
 20
2118.8922704374222121
 30
0.0
 11
1659.842543186445937
 21
2116.7874330446447857
 31
0.0
  0
ARC
  5
2C5
  8
0
 10
1659.4889897958530582
 20
2116.433879654051907
 30
0.0
 40
0.4999999999997133
 50
328.0526634003539925
 51
45.0000000000299707
  0
ARC
  5
2C6
  8
0
 10
1662.7134220852778981
 20
2114.4231493362531182
 30
0.0
 40
3.3000000000001108
 50
148.0526634003556978
 51
201.8447574857611926
  0
ARC
  5
2C7
  8
0
 10
1658.7221816765820677
 20
2112.8231493362532092
 30
0.0
 40
1.000000000000028
 50
270.0
 51
21.8447574857625391
  0
LINE
  5
2C8
  8
0
 10
1658.7221816765820677
 20
2111.8231493362532092
 30
0.0
 11
1654.773422085276934
 21
2111.8231493362532092
 31
0.0
  0
ARC
  5
2C9
  8
0
 10
1654.773422085276934
 20
2113.8231493362532092
 30
0.0
 40
1.9999999999998861
 50
180.0
 51
270.0000000000040927
  0
LINE
  5
2CA
  8
0
 10
1652.773422085276934
 20
2113.8231493362532092
 30
0.0
 11
1652.773422085276934
 21
2117.7719089275578881
 31
0.0
  0
ARC
  5
2CB
  8
0
 10
1653.773422085276934
 20
2117.7719089275578881
 30
0.0
 40
1.0000000000000031
 50
68.1552425142420191
 51
180.0
  0
ARC
  5
2CC
  8
0
 10
1685.5626917674780998
 20
2118.5387170468288787
 30
0.0
 40
0.499999999999861
 50
58.0526634003470789
 51
135.0000000000069065
  0
ARC
  5
2CD
  8
0
 10
1687.5734220852768885
 20
2121.763149336252809
 30
0.0
 40
3.2999999999999332
 50
238.052663400357801
 51
291.8447574857636937
  0
ARC
  5
2CE
  8
0
 10
1689.173422085277025
 20
2117.7719089275578881
 30
0.0
 40
1.000000000000056
 50
0.0
 51
111.8447574857625995
  0
LINE
  5
2CF
  8
0
 10
1690.173422085277025
 20
2117.7719089275578881
 30
0.0
 11
1690.173422085277025
 21
2113.8231493362532092
 31
0.0
  0
ARC
  5
2D0
  8
0
 10
1688.173422085277025
 20
2113.8231493362532092
 30
0.0
 40
1.9999999999999709
 50
269.9999999999984084
 51
0.0000000000007994
  0
LINE
  5
2D1
  8
0
 10
1688.173422085277025
 20
2111.8231493362532092
 30
0.0
 11
1684.2246624939718913
 21
2111.8231493362532092
 31
0.0
  0
ARC
  5
2D2
  8
0
 10
1684.2246624939718913
 20
2112.8231493362532092
 30
0.0
 40
1.0000000000000351
 50
158.1552425142373863
 51
270.0
  0
ARC
  5
2D3
  8
0
 10
1680.2334220852769704
 20
2114.4231493362531182
 30
0.0
 40
3.3000000000003329
 50
338.1552425142423886
 51
31.9473365996394598
  0
ARC
  5
2D4
  8
0
 10
1683.4578543747020376
 20
2116.433879654051907
 30
0.0
 40
0.4999999999997428
 50
134.9999999999747047
 51
211.9473365996543066
  0
LINE
  5
2D5
  8
0
 10
1683.1043009841089315
 20
2116.7874330446447857
 30
0.0
 11
1685.2091383768849937
 21
2118.8922704374222121
 31
0.0
  0
LINE
  5
2D6
  8
0
 10
1666.8794774216351016
 20
2110.6731860046961629
 30
0.0
 11
1654.5097541034260757
 21
2110.5233693469108402
 31
0.0
  0
ARC
  5
2D7
  8
0
 10
1666.8734220852770704
 20
2111.1731493362531182
 30
0.0
 40
0.4999999999999397
 50
270.6939073967866989
 51
0.0000000000064748
  0
LINE
  5
2D8
  8
0
 10
1667.3734220852770704
 20
2111.1731493362531182
 30
0.0
 11
1667.3734220852770704
 21
2114.1733693630471862
 31
0.0
  0
ARC
  5
2D9
  8
0
 10
1666.8734220852770704
 20
2114.1733693630471862
 30
0.0
 40
0.4999999999998864
 50
0.0
 51
90.6939073968128042
  0
LINE
  5
2DA
  8
0
 10
1666.8673667489190393
 20
2114.6733326946041416
 30
0.0
 11
1665.8673667489190393
 21
2114.6612211336641849
 31
0.0
  0
ARC
  5
2DB
  8
0
 10
1665.8734220852770704
 20
2114.1612578021058653
 30
0.0
 40
0.4999999999999397
 50
90.6939073967866847
 51
180.0000000000065086
  0
LINE
  5
2DC
  8
0
 10
1665.3734220852770704
 20
2114.1612578021058653
 30
0.0
 11
1665.3734220852770704
 21
2113.2960560100059411
 31
0.0
  0
ARC
  5
2DD
  8
0
 10
1664.6234220852770704
 20
2113.2960560100059411
 30
0.0
 40
0.749999999999996
 50
270.6939073967931222
 51
0.0
  0
LINE
  5
2DE
  8
0
 10
1664.6325050898149129
 20
2112.5461110126711901
 30
0.0
 11
1662.7950863012299578
 21
2112.5238570030401206
 31
0.0
  0
ARC
  5
2DF
  8
0
 10
1662.7708649557969238
 20
2114.5237103292679421
 30
0.0
 40
1.9999999999999889
 50
150.1454568403611916
 51
270.6939073967914737
  0
ARC
  5
2E0
  8
0
 10
1687.0550398931040945
 20
2100.5853156005309756
 30
0.0
 40
29.9999999999959499
 50
134.3951365478922071
 51
150.1454568403615042
  0
ARC
  5
2E1
  8
0
 10
1668.8653699211758976
 20
2119.1631493362529
 30
0.0
 40
4.0
 50
89.9999999999992042
 51
134.395136547892406
  0
LINE
  5
2E2
  8
0
 10
1668.8653699211758976
 20
2123.1631493362529
 30
0.0
 11
1671.4734220852769795
 21
2123.1631493362529
 31
0.0
  0
LINE
  5
2E3
  8
0
 10
1674.0814742493780614
 20
2123.1631493362529
 30
0.0
 11
1671.4734220852769795
 21
2123.1631493362529
 31
0.0
  0
ARC
  5
2E4
  8
0
 10
1674.0814742493780614
 20
2119.1631493362529
 30
0.0
 40
3.999999999999535
 50
45.6048634521056471
 51
90.0000000000024443
  0
ARC
  5
2E5
  8
0
 10
1655.8918042774450896
 20
2100.5853156005259734
 30
0.0
 40
30.0000000000039613
 50
29.8545431596411213
 51
45.6048634521073808
  0
ARC
  5
2E6
  8
0
 10
1680.1759792147579446
 20
2114.5237103292679421
 30
0.0
 40
1.99999999999996
 50
269.3060926032051725
 51
29.85454315964164
  0
LINE
  5
2E7
  8
0
 10
1678.3143390807399555
 20
2112.5461110126711901
 30
0.0
 11
1680.1517578693249106
 21
2112.5238570030401206
 31
0.0
  0
ARC
  5
2E8
  8
0
 10
1678.3234220852768885
 20
2113.2960560100059411
 30
0.0
 40
0.75
 50
180.0
 51
269.3060926032068778
  0
LINE
  5
2E9
  8
0
 10
1677.5734220852768885
 20
2114.1612578021058653
 30
0.0
 11
1677.5734220852768885
 21
2113.2960560100059411
 31
0.0
  0
ARC
  5
2EA
  8
0
 10
1677.0734220852780254
 20
2114.1612578021058653
 30
0.0
 40
0.4999999999999432
 50
0.0000000000032569
 51
89.3060926032198381
  0
LINE
  5
2EB
  8
0
 10
1676.0794774216360565
 20
2114.6733326946041416
 30
0.0
 11
1677.0794774216349197
 21
2114.6612211336641849
 31
0.0
  0
ARC
  5
2EC
  8
0
 10
1676.0734220852768885
 20
2114.1733693630471862
 30
0.0
 40
0.4999999999999979
 50
89.3060926032003692
 51
180.0
  0
LINE
  5
2ED
  8
0
 10
1675.5734220852768885
 20
2111.1731493362531182
 30
0.0
 11
1675.5734220852768885
 21
2114.1733693630471862
 31
0.0
  0
ARC
  5
2EE
  8
0
 10
1676.0734220852768885
 20
2111.1731493362531182
 30
0.0
 40
0.4999999999999432
 50
180.0000000000032117
 51
269.3060926032197813
  0
LINE
  5
2EF
  8
0
 10
1676.0673667489190848
 20
2110.6731860046961629
 30
0.0
 11
1688.4370900671281106
 21
2110.5233693469108402
 31
0.0
  0
ARC
  5
2F0
  8
0
 10
1688.4734220852769795
 20
2113.5231493362530273
 30
0.0
 40
2.9999999999999272
 50
269.3060926032057978
 51
0.6939073967948062
  0
LINE
  5
2F1
  8
0
 10
1691.4732020746189392
 20
2113.5594813544021235
 30
0.0
 11
1691.3233854168349808
 21
2125.929204672610922
 31
0.0
  0
ARC
  5
2F2
  8
0
 10
1690.8234220852768885
 20
2125.9231493362531182
 30
0.0
 40
0.5000000000001112
 50
0.6939073967959092
 51
89.9999999999931646
  0
LINE
  5
2F3
  8
0
 10
1687.8232020584830479
 20
2126.4231493362531182
 30
0.0
 11
1690.8234220852768885
 21
2126.4231493362531182
 31
0.0
  0
ARC
  5
2F4
  8
0
 10
1687.8232020584830479
 20
2125.9231493362531182
 30
0.0
 40
0.4999999999999432
 50
89.9999999999934914
 51
180.6939073967996876
  0
LINE
  5
2F5
  8
0
 10
1687.3353502878669588
 20
2124.9170939998948597
 30
0.0
 11
1687.3232387269260926
 21
2125.9170939998948597
 31
0.0
  0
ARC
  5
2F6
  8
0
 10
1687.8353136194239141
 20
2124.9231493362531182
 30
0.0
 40
0.5000000000000541
 50
180.6939073967926959
 51
269.9999999999997158
  0
LINE
  5
2F7
  8
0
 10
1688.7005154115249752
 20
2124.4231493362531182
 30
0.0
 11
1687.8353136194239141
 21
2124.4231493362531182
 31
0.0
  0
ARC
  5
2F8
  8
0
 10
1688.7005154115249752
 20
2123.6731493362531182
 30
0.0
 40
0.7500000000000246
 50
0.6939073967948587
 51
90.0000000000039364
  0
LINE
  5
2F9
  8
0
 10
1689.472714418491023
 20
2121.8448135522048688
 30
0.0
 11
1689.4504604088599535
 21
2123.6822323407900512
 31
0.0
  0
ARC
  5
2FA
  8
0
 10
1687.4728610922629741
 20
2121.820592206773199
 30
0.0
 40
1.999999999999992
 50
240.145456840359401
 51
0.6939073967931276
  0
ARC
  5
2FB
  8
0
 10
1701.4112558209999406
 20
2146.1047671440801423
 30
0.0
 40
29.9999999999971507
 50
224.3951365478903881
 51
240.1454568403609073
  0
ARC
  5
2FC
  8
0
 10
1682.8334220852771068
 20
2127.9150971721519454
 30
0.0
 40
4.000000000000056
 50
180.0
 51
224.3951365478901891
  0
LINE
  5
2FD
  8
0
 10
1678.8334220852771068
 20
2130.5231493362530273
 30
0.0
 11
1678.8334220852771068
 21
2127.9150971721519454
 31
0.0
  0
LINE
  5
2FE
  8
0
 10
1678.8334220852771068
 20
2130.5231493362530273
 30
0.0
 11
1678.8334220852771068
 21
2133.1312015003541092
 31
0.0
  0
ARC
  5
2FF
  8
0
 10
1682.8334220852771068
 20
2133.1312015003541092
 30
0.0
 40
3.9999999999999392
 50
135.6048634521096119
 51
180.0000000000007958
  0
ARC
  5
300
  8
0
 10
1701.4112558209990311
 20
2114.941531528428186
 30
0.0
 40
29.9999999999948308
 50
119.8545431596382969
 51
135.6048634521100951
  0
ARC
  5
301
  8
0
 10
1687.4728610922629741
 20
2139.2257064657328556
 30
0.0
 40
1.999999999999988
 50
359.3060926032072189
 51
119.8545431596388937
  0
LINE
  5
302
  8
0
 10
1689.472714418491023
 20
2139.2014851203011858
 30
0.0
 11
1689.4504604088599535
 21
2137.3640663317160033
 31
0.0
  0
ARC
  5
303
  8
0
 10
1688.7005154115249752
 20
2137.3731493362529363
 30
0.0
 40
0.7500000000000285
 50
270.0
 51
359.3060926032047178
  0
LINE
  5
304
  8
0
 10
1688.7005154115249752
 20
2136.6231493362529363
 30
0.0
 11
1687.8353136194239141
 21
2136.6231493362529363
 31
0.0
  0
ARC
  5
305
  8
0
 10
1687.8353136194239141
 20
2136.1231493362529363
 30
0.0
 40
0.5000000000000853
 50
90.0000000000130314
 51
179.3060926031972997
  0
LINE
  5
306
  8
0
 10
1687.3353502878669588
 20
2136.1292046726111948
 30
0.0
 11
1687.3232387269260926
 21
2135.1292046726111948
 31
0.0
  0
ARC
  5
307
  8
0
 10
1687.8232020584839574
 20
2135.1231493362529363
 30
0.0
 40
0.5000000000001102
 50
179.3060926032140969
 51
269.9999999999874944
  0
LINE
  5
308
  8
0
 10
1687.8232020584830479
 20
2134.6231493362529363
 30
0.0
 11
1690.8234220852768885
 21
2134.6231493362529363
 31
0.0
  0
ARC
  5
309
  8
0
 10
1690.8234220852768885
 20
2135.1231493362529363
 30
0.0
 40
0.5000000000000285
 50
270.0
 51
359.3060926032036946
  0
LINE
  5
30A
  8
0
 10
1691.4732020746189392
 20
2147.486817318103931
 30
0.0
 11
1691.3233854168349808
 21
2135.1170939998951326
 31
0.0
  0
ARC
  5
30B
  8
0
 10
1688.4734220852769795
 20
2147.5231493362530273
 30
0.0
 40
3.0000000000000391
 50
359.3060926032088105
 51
90.6939073967922411
  0
LINE
  5
30C
  8
0
 10
1676.0673667489190848
 20
2150.3731126678098917
 30
0.0
 11
1688.4370900671281106
 21
2150.5229293255952143
 31
0.0
  0
ARC
  5
30D
  8
0
 10
1676.0734220852768885
 20
2149.8731493362529363
 30
0.0
 40
0.4999999999999397
 50
90.6939073967866847
 51
180.0000000000065086
  0
LINE
  5
30E
  8
0
 10
1675.5734220852768885
 20
2149.8731493362529363
 30
0.0
 11
1675.5734220852768885
 21
2146.8729293094588684
 31
0.0
  0
ARC
  5
30F
  8
0
 10
1676.0734220852768885
 20
2146.8729293094588684
 30
0.0
 40
0.4999999999998864
 50
180.0
 51
270.6939073968129037
  0
LINE
  5
310
  8
0
 10
1676.0794774216360565
 20
2146.372965977901913
 30
0.0
 11
1677.0794774216349197
 21
2146.3850775388418697
 31
0.0
  0
ARC
  5
311
  8
0
 10
1677.0734220852780254
 20
2146.8850408703988251
 30
0.0
 40
0.4999999999999397
 50
270.6939073967866989
 51
0.0000000000064748
  0
LINE
  5
312
  8
0
 10
1677.5734220852768885
 20
2146.8850408703988251
 30
0.0
 11
1677.5734220852768885
 21
2147.7502426625001135
 31
0.0
  0
ARC
  5
313
  8
0
 10
1678.3234220852768885
 20
2147.7502426625001135
 30
0.0
 40
0.749999999999996
 50
90.693907396793108
 51
180.0
  0
LINE
  5
314
  8
0
 10
1678.3143390807399555
 20
2148.5001876598348645
 30
0.0
 11
1680.1517578693249106
 21
2148.5224416694668435
 31
0.0
  0
ARC
  5
315
  8
0
 10
1680.1759792147570352
 20
2146.5225883432390219
 30
0.0
 40
1.9999999999999529
 50
330.1454568403598273
 51
90.6939073967964902
  0
ARC
  5
316
  8
0
 10
1655.8918042774530477
 20
2160.4609830719741694
 30
0.0
 40
29.9999999999935092
 50
314.3951365478895923
 51
330.1454568403619874
  0
ARC
  5
317
  8
0
 10
1674.0814742493780614
 20
2141.8831493362531546
 30
0.0
 40
4.0000000000001981
 50
270.0000000000017053
 51
314.3951365478906723
  0
LINE
  5
318
  8
0
 10
1674.0814742493780614
 20
2137.8831493362540641
 30
0.0
 11
1671.4734220852769795
 21
2137.8831493362540641
 31
0.0
  0
LINE
  5
319
  8
0
 10
1668.8653699211758976
 20
2137.8831493362540641
 30
0.0
 11
1671.4734220852769795
 21
2137.8831493362540641
 31
0.0
  0
ARC
  5
31A
  8
0
 10
1668.8653699211758976
 20
2141.8831493362531546
 30
0.0
 40
4.0000000000000391
 50
225.6048634521069971
 51
270.0
  0
ARC
  5
31B
  8
0
 10
1687.0550398931059135
 20
2160.4609830719768979
 30
0.0
 40
29.9999999999986215
 50
209.8545431596400874
 51
225.604863452107594
  0
ARC
  5
31C
  8
0
 10
1662.7708649557969238
 20
2146.5225883432390219
 30
0.0
 40
2.0000000000000169
 50
89.306092603206892
 51
209.8545431596394906
  0
LINE
  5
31D
  8
0
 10
1664.6325050898149129
 20
2148.5001876598348645
 30
0.0
 11
1662.7950863012299578
 21
2148.5224416694668435
 31
0.0
  0
ARC
  5
31E
  8
0
 10
1664.6234220852770704
 20
2147.7502426625001135
 30
0.0
 40
0.75
 50
0.0
 51
89.306092603206892
  0
LINE
  5
31F
  8
0
 10
1665.3734220852770704
 20
2146.8850408703988251
 30
0.0
 11
1665.3734220852770704
 21
2147.7502426625001135
 31
0.0
  0
ARC
  5
320
  8
0
 10
1665.8734220852770704
 20
2146.8850408703988251
 30
0.0
 40
0.4999999999999432
 50
180.0000000000032117
 51
269.3060926032197813
  0
LINE
  5
321
  8
0
 10
1666.8673667489190393
 20
2146.372965977901913
 30
0.0
 11
1665.8673667489190393
 21
2146.3850775388418697
 31
0.0
  0
ARC
  5
322
  8
0
 10
1666.8734220852770704
 20
2146.8729293094588684
 30
0.0
 40
0.4999999999999979
 50
269.3060926032003977
 51
0.0
  0
LINE
  5
323
  8
0
 10
1667.3734220852770704
 20
2149.8731493362529363
 30
0.0
 11
1667.3734220852770704
 21
2146.8729293094588684
 31
0.0
  0
ARC
  5
324
  8
0
 10
1666.8734220852770704
 20
2149.8731493362529363
 30
0.0
 40
0.4999999999999432
 50
0.0000000000032569
 51
89.3060926032198381
  0
LINE
  5
325
  8
0
 10
1666.8794774216351016
 20
2150.3731126678098917
 30
0.0
 11
1654.5097541034260757
 21
2150.5229293255952143
 31
0.0
  0
ARC
  5
326
  8
0
 10
1654.4734220852769795
 20
2147.5231493362530273
 30
0.0
 40
2.9999999999999272
 50
89.3060926032057836
 51
180.6939073967947991
  0
LINE
  5
327
  8
0
 10
1651.4736420959350198
 20
2147.486817318103931
 30
0.0
 11
1651.6234587537198877
 21
2135.1170939998951326
 31
0.0
  0
ARC
  5
328
  8
0
 10
1652.1234220852770704
 20
2135.1231493362529363
 30
0.0
 40
0.5000000000001112
 50
180.6939073967959075
 51
269.9999999999931788
  0
LINE
  5
329
  8
0
 10
1655.123642112070911
 20
2134.6231493362529363
 30
0.0
 11
1652.1234220852770704
 21
2134.6231493362529363
 31
0.0
  0
ARC
  5
32A
  8
0
 10
1655.123642112070911
 20
2135.1231493362529363
 30
0.0
 40
0.5000000000000853
 50
270.0000000000130171
 51
0.6939073967832154
  0
LINE
  5
32B
  8
0
 10
1655.6114938826879097
 20
2136.1292046726111948
 30
0.0
 11
1655.6236054436280938
 21
2135.1292046726111948
 31
0.0
  0
ARC
  5
32C
  8
0
 10
1655.1115305511300448
 20
2136.1231493362529363
 30
0.0
 40
0.5000000000000541
 50
0.6939073967927577
 51
89.9999999999997158
  0
LINE
  5
32D
  8
0
 10
1654.2463287590298933
 20
2136.6231493362529363
 30
0.0
 11
1655.1115305511300448
 21
2136.6231493362529363
 31
0.0
  0
ARC
  5
32E
  8
0
 10
1654.2463287590298933
 20
2137.3731493362529363
 30
0.0
 40
0.7500000000000246
 50
180.6939073967947991
 51
270.0000000000039222
  0
LINE
  5
32F
  8
0
 10
1653.4741297520640728
 20
2139.2014851203011858
 30
0.0
 11
1653.4963837616949149
 21
2137.3640663317160033
 31
0.0
  0
ARC
  5
330
  8
0
 10
1655.4739830782918943
 20
2139.2257064657328556
 30
0.0
 40
1.999999999999968
 50
60.1454568403590315
 51
180.6939073967930938
  0
ARC
  5
331
  8
0
 10
1641.5355883495490161
 20
2114.941531528419091
 30
0.0
 40
30.0000000000060183
 50
44.3951365478904521
 51
60.1454568403578591
  0
ARC
  5
332
  8
0
 10
1660.1134220852770795
 20
2133.1312015003541092
 30
0.0
 40
3.9999999999995448
 50
0.0
 51
44.3951365478830624
  0
LINE
  5
333
  8
0
 10
1664.1134220852770795
 20
2130.5231493362530273
 30
0.0
 11
1664.1134220852770795
 21
2133.1312015003541092
 31
0.0
  0
LINE
  5
334
  8
0
 10
1664.1134220852770795
 20
2130.5231493362530273
 30
0.0
 11
1664.1134220852770795
 21
2127.9150971721519454
 31
0.0
  0
ARC
  5
335
  8
0
 10
1660.1134220852770795
 20
2127.9150971721519454
 30
0.0
 40
3.9999999999999392
 50
315.6048634521096119
 51
0.0000000000003997
  0
ARC
  5
336
  8
0
 10
1641.535588349551972
 20
2146.1047671440828708
 30
0.0
 40
30.0000000000006395
 50
299.8545431596398885
 51
315.6048634521088729
  0
ARC
  5
337
  8
0
 10
1655.4739830782918943
 20
2121.820592206773199
 30
0.0
 40
2.0000000000000449
 50
179.3060926032077873
 51
299.8545431596381832
  0
LINE
  5
338
  8
0
 10
1653.4741297520629359
 20
2121.8448135522048688
 30
0.0
 11
1653.4963837616949149
 21
2123.6822323407900512
 31
0.0
  0
ARC
  5
339
  8
0
 10
1654.2463287590298933
 20
2123.6731493362531182
 30
0.0
 40
0.7500000000000285
 50
90.0
 51
179.3060926032046893
  0
LINE
  5
33A
  8
0
 10
1654.2463287590298933
 20
2124.4231493362531182
 30
0.0
 11
1655.1115305511300448
 21
2124.4231493362531182
 31
0.0
  0
ARC
  5
33B
  8
0
 10
1655.1115305511300448
 20
2124.9231493362531182
 30
0.0
 40
0.5000000000000853
 50
270.0000000000130171
 51
359.3060926031973281
  0
LINE
  5
33C
  8
0
 10
1655.6114938826879097
 20
2124.9170939998948597
 30
0.0
 11
1655.6236054436280938
 21
2125.9170939998948597
 31
0.0
  0
ARC
  5
33D
  8
0
 10
1655.123642112070911
 20
2125.9231493362531182
 30
0.0
 40
0.5000000000001102
 50
359.3060926032140969
 51
89.9999999999874518
  0
LINE
  5
33E
  8
0
 10
1655.123642112070911
 20
2126.4231493362531182
 30
0.0
 11
1652.1234220852770704
 21
2126.4231493362531182
 31
0.0
  0
ARC
  5
33F
  8
0
 10
1652.1234220852770704
 20
2125.9231493362531182
 30
0.0
 40
0.5000000000000285
 50
90.0
 51
179.3060926032036946
  0
LINE
  5
340
  8
0
 10
1651.4736420959350198
 20
2113.5594813544021235
 30
0.0
 11
1651.6234587537198877
 21
2125.929204672610922
 31
0.0
  0
ARC
  5
341
  8
0
 10
1654.4734220852769795
 20
2113.5231493362530273
 30
0.0
 40
3.0000000000000391
 50
179.3060926032088105
 51
270.6939073967923264
  0
ENDSEC
  0
EOF
