  0
SECTION
  2
HEADER
  9
$ACADVER
  1
AC1009
  9
$INSBASE
 10
0.0
 20
0.0
 30
0.0
  9
$EXTMIN
 10
2299.6243815834041015
 20
1647.749032768007055
 30
0.0
  9
$EXTMAX
 10
2349.8029338873739107
 20
1689.7561885774789516
 30
0.0
  9
$LIMMIN
 10
0.0
 20
0.0
  9
$LIMMAX
 10
420.0
 20
297.0
  9
$ORTHOMODE
 70
     0
  9
$REGENMODE
 70
     1
  9
$FILLMODE
 70
     1
  9
$QTEXTMODE
 70
     0
  9
$MIRRTEXT
 70
     0
  9
$DRAGMODE
 70
     2
  9
$LTSCALE
 40
1.0
  9
$OSMODE
 70
  4095
  9
$ATTMODE
 70
     1
  9
$TEXTSIZE
 40
2.5
  9
$TRACEWID
 40
1.0
  9
$TEXTSTYLE
  7
STANDARD
  9
$CLAYER
  8
0
  9
$CELTYPE
  6
BYLAYER
  9
$CECOLOR
 62
   256
  9
$DIMSCALE
 40
1.0
  9
$DIMASZ
 40
2.5
  9
$DIMEXO
 40
0.625
  9
$DIMDLI
 40
3.75
  9
$DIMRND
 40
0.0
  9
$DIMDLE
 40
0.0
  9
$DIMEXE
 40
1.25
  9
$DIMTP
 40
0.0
  9
$DIMTM
 40
0.0
  9
$DIMTXT
 40
2.5
  9
$DIMCEN
 40
2.5
  9
$DIMTSZ
 40
0.0
  9
$DIMTOL
 70
     0
  9
$DIMLIM
 70
     0
  9
$DIMTIH
 70
     0
  9
$DIMTOH
 70
     0
  9
$DIMSE1
 70
     0
  9
$DIMSE2
 70
     0
  9
$DIMTAD
 70
     1
  9
$DIMZIN
 70
     8
  9
$DIMBLK
  1

  9
$DIMASO
 70
     1
  9
$DIMSHO
 70
     1
  9
$DIMPOST
  1

  9
$DIMAPOST
  1

  9
$DIMALT
 70
     0
  9
$DIMALTD
 70
     3
  9
$DIMALTF
 40
0.03937007874016
  9
$DIMLFAC
 40
1.0
  9
$DIMTOFL
 70
     1
  9
$DIMTVP
 40
0.0
  9
$DIMTIX
 70
     0
  9
$DIMSOXD
 70
     0
  9
$DIMSAH
 70
     0
  9
$DIMBLK1
  1

  9
$DIMBLK2
  1

  9
$DIMSTYLE
  2
ISO-25
  9
$DIMCLRD
 70
     0
  9
$DIMCLRE
 70
     0
  9
$DIMCLRT
 70
     0
  9
$DIMTFAC
 40
1.0
  9
$DIMGAP
 40
0.625
  9
$LUNITS
 70
     2
  9
$LUPREC
 70
     4
  9
$SKETCHINC
 40
1.0
  9
$FILLETRAD
 40
0.0
  9
$AUNITS
 70
     0
  9
$AUPREC
 70
     0
  9
$MENU
  1
.
  9
$ELEVATION
 40
0.0
  9
$PELEVATION
 40
0.0
  9
$THICKNESS
 40
0.0
  9
$LIMCHECK
 70
     0
  9
$BLIPMODE
 70
     0
  9
$CHAMFERA
 40
0.0
  9
$CHAMFERB
 40
0.0
  9
$SKPOLY
 70
     0
  9
$TDCREATE
 40
2458695.4478472219780087
  9
$TDUPDATE
 40
2458695.4479629630222917
  9
$TDINDWG
 40
0.0001157407
  9
$TDUSRTIMER
 40
0.0001157407
  9
$USRTIMER
 70
     1
  9
$ANGBASE
 50
0.0
  9
$ANGDIR
 70
     0
  9
$PDMODE
 70
     0
  9
$PDSIZE
 40
0.0
  9
$PLINEWID
 40
0.0
  9
$COORDS
 70
     1
  9
$SPLFRAME
 70
     0
  9
$SPLINETYPE
 70
     6
  9
$SPLINESEGS
 70
     8
  9
$ATTDIA
 70
     1
  9
$ATTREQ
 70
     1
  9
$HANDLING
 70
     1
  9
$HANDSEED
  5
369
  9
$SURFTAB1
 70
     6
  9
$SURFTAB2
 70
     6
  9
$SURFTYPE
 70
     6
  9
$SURFU
 70
     6
  9
$SURFV
 70
     6
  9
$UCSNAME
  2

  9
$UCSORG
 10
0.0
 20
0.0
 30
0.0
  9
$UCSXDIR
 10
1.0
 20
0.0
 30
0.0
  9
$UCSYDIR
 10
0.0
 20
1.0
 30
0.0
  9
$PUCSNAME
  2

  9
$PUCSORG
 10
0.0
 20
0.0
 30
0.0
  9
$PUCSXDIR
 10
1.0
 20
0.0
 30
0.0
  9
$PUCSYDIR
 10
0.0
 20
1.0
 30
0.0
  9
$USERI1
 70
     0
  9
$USERI2
 70
     0
  9
$USERI3
 70
     0
  9
$USERI4
 70
     0
  9
$USERI5
 70
     0
  9
$USERR1
 40
0.0
  9
$USERR2
 40
0.0
  9
$USERR3
 40
0.0
  9
$USERR4
 40
0.0
  9
$USERR5
 40
0.0
  9
$WORLDVIEW
 70
     1
  9
$SHADEDGE
 70
     3
  9
$SHADEDIF
 70
    70
  9
$TILEMODE
 70
     1
  9
$MAXACTVP
 70
    64
  9
$PLIMCHECK
 70
     0
  9
$PEXTMIN
 10
0.0
 20
0.0
 30
0.0
  9
$PEXTMAX
 10
0.0
 20
0.0
 30
0.0
  9
$PLIMMIN
 10
0.0
 20
0.0
  9
$PLIMMAX
 10
12.0
 20
9.0
  9
$UNITMODE
 70
     0
  9
$VISRETAIN
 70
     1
  9
$PLINEGEN
 70
     0
  9
$PSLTSCALE
 70
     1
  0
ENDSEC
  0
SECTION
  2
TABLES
  0
TABLE
  2
VPORT
 70
     1
  0
VPORT
  2
*ACTIVE
 70
     0
 10
0.0
 20
0.0
 11
1.0
 21
1.0
 12
2324.7136577353880966
 22
1668.7526106727430033
 13
0.0
 23
0.0
 14
10.0
 24
10.0
 15
10.0
 25
10.0
 16
0.0
 26
0.0
 36
1.0
 17
0.0
 27
0.0
 37
0.0
 40
42.3194766705078109
 41
2.1848635235731999
 42
50.0
 43
0.0
 44
0.0
 50
0.0
 51
0.0
 71
     0
 72
  1000
 73
     1
 74
     3
 75
     0
 76
     1
 77
     0
 78
     0
  0
ENDTAB
  0
TABLE
  2
LTYPE
 70
     1
  0
LTYPE
  2
CONTINUOUS
 70
     0
  3
Solid line
 72
    65
 73
     0
 40
0.0
  0
ENDTAB
  0
TABLE
  2
LAYER
 70
     1
  0
LAYER
  2
0
 70
     0
 62
     7
  6
CONTINUOUS
  0
ENDTAB
  0
TABLE
  2
STYLE
 70
     3
  0
STYLE
  2
STANDARD
 70
     0
 40
0.0
 41
1.0
 50
0.0
 71
     0
 42
2.5
  3
txt
  4

  0
STYLE
  2
ANNOTATIVE
 70
     0
 40
0.0
 41
1.0
 50
0.0
 71
     0
 42
2.5
  3
txt
  4

  0
STYLE
  2
ROMANT
 70
     0
 40
2.2000000000000002
 41
1.0
 50
0.0
 71
     0
 42
2.5
  3
romant.shx
  4

  0
ENDTAB
  0
TABLE
  2
VIEW
 70
     1
  0
ENDTAB
  0
TABLE
  2
UCS
 70
     0
  0
ENDTAB
  0
TABLE
  2
APPID
 70
    10
  0
APPID
  2
ACAD
 70
     0
  0
APPID
  2
ACAD_PSEXT
 70
     0
  0
APPID
  2
ACADANNOPO
 70
     0
  0
APPID
  2
ACADANNOTATIVE
 70
     0
  0
APPID
  2
ACAD_DSTYLE_DIMJAG
 70
     0
  0
APPID
  2
ACAD_DSTYLE_DIMTALN
 70
     0
  0
APPID
  2
ACAD_MLEADERVER
 70
     0
  0
APPID
  2
ACAD_NAV_VCDISPLAY
 70
     0
  0
APPID
  2
GRADIENTCOLOR1ACI
 70
     0
  0
APPID
  2
GRADIENTCOLOR2ACI
 70
     0
  0
ENDTAB
  0
TABLE
  2
DIMSTYLE
 70
     4
  0
DIMSTYLE
  2
STANDARD
 70
     0
  3

  4

  5

  6

  7

 40
1.0
 41
0.18
 42
0.0625
 43
0.38
 44
0.18
 45
0.0
 46
0.0
 47
0.0
 48
0.0
140
0.18
141
0.09
142
0.0
143
25.3999999999999986
144
1.0
145
0.0
146
1.0
147
0.09
 71
     0
 72
     0
 73
     1
 74
     1
 75
     0
 76
     0
 77
     0
 78
     0
170
     0
171
     2
172
     0
173
     0
174
     0
175
     0
176
     0
177
     0
178
     0
  0
DIMSTYLE
  2
ANNOTATIVE
 70
     0
  3

  4

  5

  6

  7

 40
0.0
 41
2.5
 42
0.625
 43
3.75
 44
1.25
 45
0.0
 46
0.0
 47
0.0
 48
0.0
140
2.5
141
2.5
142
0.0
143
0.03937007874016
144
1.0
145
0.0
146
1.0
147
0.625
 71
     0
 72
     0
 73
     0
 74
     0
 75
     0
 76
     0
 77
     1
 78
     8
170
     0
171
     3
172
     1
173
     0
174
     0
175
     0
176
     0
177
     0
178
     0
  0
DIMSTYLE
  2
ISO-25
 70
     0
  3

  4

  5

  6

  7

 40
1.0
 41
2.5
 42
0.625
 43
3.75
 44
1.25
 45
0.0
 46
0.0
 47
0.0
 48
0.0
140
2.5
141
2.5
142
0.0
143
0.03937007874016
144
1.0
145
0.0
146
1.0
147
0.625
 71
     0
 72
     0
 73
     0
 74
     0
 75
     0
 76
     0
 77
     1
 78
     8
170
     0
171
     3
172
     1
173
     0
174
     0
175
     0
176
     0
177
     0
178
     0
  0
DIMSTYLE
  2
MELÝH_A3
 70
     0
  3

  4

  5

  6

  7

 40
1.0
 41
1.3
 42
0.0
 43
3.75
 44
0.2
 45
0.0
 46
0.0
 47
0.0
 48
0.0
140
1.0
141
0.2
142
0.0
143
0.03937007874016
144
1.0
145
0.0
146
1.0
147
0.7
 71
     0
 72
     0
 73
     0
 74
     0
 75
     0
 76
     0
 77
     1
 78
     8
170
     0
171
     3
172
     0
173
     0
174
     0
175
     0
176
   242
177
   242
178
   242
  0
ENDTAB
  0
ENDSEC
  0
SECTION
  2
BLOCKS
  0
BLOCK
  8
0
  2
$MODEL_SPACE
 70
     0
 10
0.0
 20
0.0
 30
0.0
  3
$MODEL_SPACE
  1

  0
ENDBLK
  5
21
  8
0
  0
BLOCK
 67
     1
  8
0
  2
$PAPER_SPACE
 70
     0
 10
0.0
 20
0.0
 30
0.0
  3
$PAPER_SPACE
  1

  0
ENDBLK
  5
D5
 67
     1
  8
0
  0
BLOCK
  8
0
  2
*X2
 70
     1
 10
0.0
 20
0.0
 30
0.0
  3
*X2
  1

  0
LINE
  5
2E5
  8
0
 62
     0
 10
49.5950608871886729
 20
14.5091197401860406
 30
0.0
 11
49.9908799093362006
 21
14.9049387623335594
 31
0.0
  0
LINE
  5
2E6
  8
0
 62
     0
 10
48.6879154765437434
 20
14.4999999416479799
 30
0.0
 11
49.9999997078741671
 21
15.8120841729784107
 31
0.0
  0
LINE
  5
2E7
  8
0
 62
     0
 10
47.7898898644367804
 20
14.4999999416479799
 30
0.0
 11
49.9999997078742027
 21
16.7101097850853897
 31
0.0
  0
LINE
  5
2E8
  8
0
 62
     0
 10
46.8918642523298885
 20
14.4999999416479799
 30
0.0
 11
49.9999997078742027
 21
17.6081353971922816
 31
0.0
  0
LINE
  5
2E9
  8
0
 62
     0
 10
45.9938386402229966
 20
14.4999999416479799
 30
0.0
 11
49.9999997078742524
 21
18.5061610092992304
 31
0.0
  0
LINE
  5
2EA
  8
0
 62
     0
 10
45.0958130281160834
 20
14.4999999416480101
 30
0.0
 11
49.9999997078742169
 21
19.4041866214061507
 31
0.0
  0
LINE
  5
2EB
  8
0
 62
     0
 10
30.5958130281160301
 20
-0.0000000583520432
 30
0.0
 11
31.4999997078743093
 21
0.9041866214062395
 31
0.0
  0
LINE
  5
2EC
  8
0
 62
     0
 10
44.1977874160091631
 20
14.4999999416480403
 30
0.0
 11
49.9999997078742027
 21
20.3022122335130817
 31
0.0
  0
LINE
  5
2ED
  8
0
 62
     0
 10
29.6977874160091098
 20
-0.0000000583520148
 30
0.0
 11
31.4999997078742808
 21
1.802212233513159
 31
0.0
  0
LINE
  5
2EE
  8
0
 62
     0
 10
43.2997618039022072
 20
14.4999999416479799
 30
0.0
 11
49.9999997078742027
 21
21.20023784561997
 31
0.0
  0
LINE
  5
2EF
  8
0
 62
     0
 10
28.7997618039022107
 20
-0.0000000583520148
 30
0.0
 11
31.4999997078742808
 21
2.7002378456200509
 31
0.0
  0
LINE
  5
2F0
  8
0
 62
     0
 10
42.4017361917953224
 20
14.4999999416479799
 30
0.0
 11
46.4017361917953224
 21
18.4999999416479817
 31
0.0
  0
LINE
  5
2F1
  8
0
 62
     0
 10
46.9999997078741885
 20
19.0982634577268584
 30
0.0
 11
49.9999997078742027
 21
22.0982634577268584
 31
0.0
  0
LINE
  5
2F2
  8
0
 62
     0
 10
27.9017361917953188
 20
-0.0000000583520148
 30
0.0
 11
31.4999997078743093
 21
3.5982634577269721
 31
0.0
  0
LINE
  5
2F3
  8
0
 62
     0
 10
41.5037105796883381
 20
14.4999999416479604
 30
0.0
 11
45.5037105796883665
 21
18.4999999416479817
 31
0.0
  0
LINE
  5
2F4
  8
0
 62
     0
 10
46.9999997078741885
 20
19.9962890698338107
 30
0.0
 11
49.9999997078742027
 21
22.9962890698338107
 31
0.0
  0
LINE
  5
2F5
  8
0
 62
     0
 10
27.0037105796883985
 20
-0.0000000583519864
 30
0.0
 11
31.4999997078743093
 21
4.49628906983392
 31
0.0
  0
LINE
  5
2F6
  8
0
 62
     0
 10
40.6056849675814533
 20
14.4999999416479604
 30
0.0
 11
44.6056849675814817
 21
18.4999999416479817
 31
0.0
  0
LINE
  5
2F7
  8
0
 62
     0
 10
46.9999997078741885
 20
20.8943146819406991
 30
0.0
 11
49.9999997078742027
 21
23.8943146819406991
 31
0.0
  0
LINE
  5
2F8
  8
0
 62
     0
 10
26.1056849675815101
 20
-0.0000000583519864
 30
0.0
 11
31.4999997078743093
 21
5.3943146819408119
 31
0.0
  0
LINE
  5
2F9
  8
0
 62
     0
 10
39.7076593554745898
 20
14.4999999416479799
 30
0.0
 11
43.7076593554745898
 21
18.4999999416479817
 31
0.0
  0
LINE
  5
2FA
  8
0
 62
     0
 10
46.9999997078742169
 20
21.7923402940476194
 30
0.0
 11
49.9999997078742169
 21
24.7923402940476194
 31
0.0
  0
LINE
  5
2FB
  8
0
 62
     0
 10
25.5319067465384499
 20
0.3242473327118489
 30
0.0
 11
31.4999997078743412
 21
6.2923402940477331
 31
0.0
  0
LINE
  5
2FC
  8
0
 62
     0
 10
38.809633743367641
 20
14.4999999416479799
 30
0.0
 11
42.8096337433676624
 21
18.4999999416480101
 31
0.0
  0
LINE
  5
2FD
  8
0
 62
     0
 10
46.9999997078741885
 20
22.6903659061545397
 30
0.0
 11
49.9999997078742169
 21
25.6903659061545717
 31
0.0
  0
LINE
  5
2FE
  8
0
 62
     0
 10
25.4999997078743412
 20
1.190365906154681
 30
0.0
 11
31.4999997078743093
 21
7.1903659061546534
 31
0.0
  0
LINE
  5
2FF
  8
0
 62
     0
 10
37.9116081312607207
 20
14.4999999416479604
 30
0.0
 11
41.9116081312607207
 21
18.4999999416479604
 31
0.0
  0
LINE
  5
300
  8
0
 62
     0
 10
46.9999997078742169
 20
23.5883915182614601
 30
0.0
 11
49.9999997078742027
 21
26.5883915182614317
 31
0.0
  0
LINE
  5
301
  8
0
 62
     0
 10
25.4999997078743412
 20
2.0883915182615729
 30
0.0
 11
31.4999997078743412
 21
8.0883915182615738
 31
0.0
  0
LINE
  5
302
  8
0
 62
     0
 10
37.0135825191538004
 20
14.4999999416479799
 30
0.0
 11
41.0135825191538004
 21
18.4999999416479817
 31
0.0
  0
LINE
  5
303
  8
0
 62
     0
 10
46.9999997078742169
 20
24.4864171303684088
 30
0.0
 11
49.9999997078742027
 21
27.4864171303683804
 31
0.0
  0
LINE
  5
304
  8
0
 62
     0
 10
25.4999997078743093
 20
2.9864171303684941
 30
0.0
 11
31.4999997078743412
 21
8.9864171303685225
 31
0.0
  0
LINE
  5
305
  8
0
 62
     0
 10
36.1155569070469085
 20
14.4999999416479799
 30
0.0
 11
40.1155569070469085
 21
18.4999999416479817
 31
0.0
  0
LINE
  5
306
  8
0
 62
     0
 10
46.9999997078742169
 20
25.3844427424753007
 30
0.0
 11
49.9999997078742169
 21
28.3844427424753007
 31
0.0
  0
LINE
  5
307
  8
0
 62
     0
 10
25.4999997078743093
 20
3.884442742475386
 30
0.0
 11
31.4999997078743412
 21
9.8844427424754144
 31
0.0
  0
LINE
  5
308
  8
0
 62
     0
 10
35.2175312949399881
 20
14.4999999416480101
 30
0.0
 11
39.2175312949399313
 21
18.4999999416479604
 31
0.0
  0
LINE
  5
309
  8
0
 62
     0
 10
46.99999970787416
 20
26.2824683545821891
 30
0.0
 11
49.9999997078742169
 21
29.2824683545822495
 31
0.0
  0
LINE
  5
30A
  8
0
 62
     0
 10
25.4999997078743093
 20
4.7824683545823339
 30
0.0
 11
31.4999997078743093
 21
10.7824683545823294
 31
0.0
  0
LINE
  5
30B
  8
0
 62
     0
 10
34.3195056828331033
 20
14.4999999416480101
 30
0.0
 11
38.3195056828330394
 21
18.4999999416479604
 31
0.0
  0
LINE
  5
30C
  8
0
 62
     0
 10
46.9999997078741885
 20
27.1804939666891201
 30
0.0
 11
49.9999997078742027
 21
30.1804939666891094
 31
0.0
  0
LINE
  5
30D
  8
0
 62
     0
 10
25.4999997078743412
 20
5.6804939666892551
 30
0.0
 11
31.4999997078743093
 21
11.6804939666892196
 31
0.0
  0
LINE
  5
30E
  8
0
 62
     0
 10
33.4214800707262114
 20
14.4999999416480101
 30
0.0
 11
37.421480070726183
 21
18.4999999416479817
 31
0.0
  0
LINE
  5
30F
  8
0
 62
     0
 10
46.9999997078742169
 20
28.0785195787960404
 30
0.0
 11
49.9999997078742169
 21
31.0785195787960298
 31
0.0
  0
LINE
  5
310
  8
0
 62
     0
 10
25.4999997078743412
 20
6.578519578796147
 30
0.0
 11
31.4999997078743093
 21
12.5785195787961204
 31
0.0
  0
LINE
  5
311
  8
0
 62
     0
 10
32.5234544586192271
 20
14.4999999416479799
 30
0.0
 11
36.5234544586192271
 21
18.4999999416479817
 31
0.0
  0
LINE
  5
312
  8
0
 62
     0
 10
46.99999970787416
 20
28.9765451909029288
 30
0.0
 11
49.9999997078742169
 21
31.9765451909029785
 31
0.0
  0
LINE
  5
313
  8
0
 62
     0
 10
25.4999997078743412
 20
7.4765451909030949
 30
0.0
 11
31.4999997078743093
 21
13.4765451909030691
 31
0.0
  0
LINE
  5
314
  8
0
 62
     0
 10
46.9999997078741885
 20
29.8745708030098385
 30
0.0
 11
49.9999997078742027
 21
32.8745708030098527
 31
0.0
  0
LINE
  5
315
  8
0
 62
     0
 10
25.4999997078743412
 20
8.3745708030099877
 30
0.0
 11
35.6254288465123068
 21
18.4999999416479604
 31
0.0
  0
LINE
  5
316
  8
0
 62
     0
 10
46.9999997078741387
 20
30.772596415116741
 30
0.0
 11
49.9999997078742027
 21
33.7725964151168014
 31
0.0
  0
LINE
  5
317
  8
0
 62
     0
 10
25.4999997078743093
 20
9.272596415116908
 30
0.0
 11
34.7274032344053865
 21
18.4999999416479817
 31
0.0
  0
LINE
  5
318
  8
0
 62
     0
 10
46.99999970787416
 20
31.6706220272236614
 30
0.0
 11
49.9999997078741671
 21
34.6706220272236578
 31
0.0
  0
LINE
  5
319
  8
0
 62
     0
 10
25.4999997078743093
 20
10.1706220272237999
 30
0.0
 11
33.8293776222984874
 21
18.4999999416479817
 31
0.0
  0
LINE
  5
31A
  8
0
 62
     0
 10
46.99999970787416
 20
32.5686476393306066
 30
0.0
 11
49.9999997078741671
 21
35.5686476393306066
 31
0.0
  0
LINE
  5
31B
  8
0
 62
     0
 10
25.4999997078742808
 20
11.0686476393307203
 30
0.0
 11
32.9313520101915813
 21
18.4999999416480101
 31
0.0
  0
LINE
  5
31C
  8
0
 62
     0
 10
46.9999997078741885
 20
33.4666732514375269
 30
0.0
 11
49.9999997078742027
 21
36.4666732514375269
 31
0.0
  0
LINE
  5
31D
  8
0
 62
     0
 10
25.4999997078743093
 20
11.9666732514376406
 30
0.0
 11
32.0333263980846823
 21
18.4999999416480101
 31
0.0
  0
LINE
  5
31E
  8
0
 62
     0
 10
46.9999997078742169
 20
34.3646988635444472
 30
0.0
 11
49.9999997078741671
 21
37.3646988635443904
 31
0.0
  0
LINE
  5
31F
  8
0
 62
     0
 10
25.4999997078743093
 20
12.8646988635445307
 30
0.0
 11
31.1353007859777904
 21
18.4999999416480101
 31
0.0
  0
LINE
  5
320
  8
0
 62
     0
 10
46.99999970787416
 20
35.2627244756513392
 30
0.0
 11
49.9999997078742169
 21
38.2627244756514031
 31
0.0
  0
LINE
  5
321
  8
0
 62
     0
 10
25.4999997078742808
 20
13.7627244756514493
 30
0.0
 11
30.2372751738708203
 21
18.4999999416479817
 31
0.0
  0
LINE
  5
322
  8
0
 62
     0
 10
46.9999997078741885
 20
36.1607500877582595
 30
0.0
 11
49.9999997078742027
 21
39.1607500877582595
 31
0.0
  0
LINE
  5
323
  8
0
 62
     0
 10
25.2639207974921511
 20
14.4246711773762097
 30
0.0
 11
29.3392495617639213
 21
18.4999999416479817
 31
0.0
  0
LINE
  5
324
  8
0
 62
     0
 10
46.9999997078742169
 20
37.0587756998651798
 30
0.0
 11
49.9999997078742169
 21
40.0587756998651798
 31
0.0
  0
LINE
  5
325
  8
0
 62
     0
 10
24.4412239496570294
 20
14.4999999416479799
 30
0.0
 11
28.441223949656969
 21
18.4999999416479284
 31
0.0
  0
LINE
  5
326
  8
0
 62
     0
 10
46.9999997078742169
 20
37.9568013119721286
 30
0.0
 11
49.9999997078741671
 21
40.9568013119720717
 31
0.0
  0
LINE
  5
327
  8
0
 62
     0
 10
23.543198337550109
 20
14.4999999416480101
 30
0.0
 11
27.5431983375500486
 21
18.4999999416479604
 31
0.0
  0
LINE
  5
328
  8
0
 62
     0
 10
46.99999970787416
 20
38.8548269240790205
 30
0.0
 11
49.8251016288255073
 21
41.6799288450303607
 31
0.0
  0
LINE
  5
329
  8
0
 62
     0
 10
22.6451727254431283
 20
14.4999999416479799
 30
0.0
 11
26.6451727254431603
 21
18.4999999416480101
 31
0.0
  0
LINE
  5
32A
  8
0
 62
     0
 10
46.9999997078741885
 20
39.7528525361859408
 30
0.0
 11
49.0471961133362413
 21
41.8000489416479795
 31
0.0
  0
LINE
  5
32B
  8
0
 62
     0
 10
21.74714711333624
 20
14.4999999416479799
 30
0.0
 11
25.74714711333624
 21
18.4999999416479817
 31
0.0
  0
LINE
  5
32C
  8
0
 62
     0
 10
46.99999970787416
 20
40.6508781482927972
 30
0.0
 11
48.1491705012293778
 21
41.8000489416480221
 31
0.0
  0
LINE
  5
32D
  8
0
 62
     0
 10
20.8491215012293516
 20
14.4999999416479799
 30
0.0
 11
24.8491215012293196
 21
18.4999999416479604
 31
0.0
  0
LINE
  5
32E
  8
0
 62
     0
 10
46.99999970787416
 20
41.5489037603997531
 30
0.0
 11
47.2511448891224219
 21
41.8000489416480221
 31
0.0
  0
LINE
  5
32F
  8
0
 62
     0
 10
19.9510958891223709
 20
14.4999999416479604
 30
0.0
 11
23.9510958891223993
 21
18.4999999416479817
 31
0.0
  0
LINE
  5
330
  8
0
 62
     0
 10
19.0530702770155109
 20
14.4999999416479799
 30
0.0
 11
23.0530702770155109
 21
18.4999999416479817
 31
0.0
  0
LINE
  5
331
  8
0
 62
     0
 10
18.1550446649085906
 20
14.4999999416479604
 30
0.0
 11
22.155044664908619
 21
18.4999999416479817
 31
0.0
  0
LINE
  5
332
  8
0
 62
     0
 10
17.2570190528016383
 20
14.4999999416479604
 30
0.0
 11
21.2570190528016987
 21
18.4999999416480101
 31
0.0
  0
LINE
  5
333
  8
0
 62
     0
 10
16.3589934406947393
 20
14.4999999416479604
 30
0.0
 11
20.3589934406947712
 21
18.4999999416479817
 31
0.0
  0
LINE
  5
334
  8
0
 62
     0
 10
15.4609678285878207
 20
14.4999999416479799
 30
0.0
 11
19.4609678285878189
 21
18.4999999416479817
 31
0.0
  0
LINE
  5
335
  8
0
 62
     0
 10
14.5629422164809306
 20
14.4999999416479799
 30
0.0
 11
18.5629422164809306
 21
18.4999999416479817
 31
0.0
  0
LINE
  5
336
  8
0
 62
     0
 10
13.6649166043740102
 20
14.4999999416480101
 30
0.0
 11
17.6649166043740387
 21
18.4999999416480385
 31
0.0
  0
LINE
  5
337
  8
0
 62
     0
 10
12.7668909922671201
 20
14.4999999416480101
 30
0.0
 11
16.7668909922670615
 21
18.4999999416479604
 31
0.0
  0
LINE
  5
338
  8
0
 62
     0
 10
11.8688653801601998
 20
14.4999999416479799
 30
0.0
 11
15.8688653801601998
 21
18.4999999416479817
 31
0.0
  0
LINE
  5
339
  8
0
 62
     0
 10
10.9708397680532492
 20
14.4999999416479799
 30
0.0
 11
14.9708397680532208
 21
18.4999999416479604
 31
0.0
  0
LINE
  5
33A
  8
0
 62
     0
 10
10.0728141559463893
 20
14.4999999416480101
 30
0.0
 11
14.0728141559463307
 21
18.4999999416479604
 31
0.0
  0
LINE
  5
33B
  8
0
 62
     0
 10
9.1747885438393837
 20
14.4999999416479604
 30
0.0
 11
13.1747885438394103
 21
18.4999999416479817
 31
0.0
  0
LINE
  5
33C
  8
0
 62
     0
 10
8.2767629317325202
 20
14.4999999416479799
 30
0.0
 11
12.2767629317325202
 21
18.4999999416479817
 31
0.0
  0
LINE
  5
33D
  8
0
 62
     0
 10
7.378737319625599
 20
14.4999999416480101
 30
0.0
 11
11.3787373196255999
 21
18.4999999416480101
 31
0.0
  0
LINE
  5
33E
  8
0
 62
     0
 10
6.4807117075186511
 20
14.4999999416479604
 30
0.0
 11
10.4989608019767999
 21
18.5182490361061092
 31
0.0
  0
LINE
  5
33F
  8
0
 62
     0
 10
5.5826860954117592
 20
14.4999999416479604
 30
0.0
 11
9.9162650003978552
 21
18.833578846634051
 31
0.0
  0
LINE
  5
340
  8
0
 62
     0
 10
4.684660483304838
 20
14.4999999416479799
 30
0.0
 11
9.3447935330032408
 21
19.1601329913463907
 31
0.0
  0
LINE
  5
341
  8
0
 62
     0
 10
3.7866348711979461
 20
14.4999999416479799
 30
0.0
 11
8.7733220656086246
 21
19.4866871360586593
 31
0.0
  0
LINE
  5
342
  8
0
 62
     0
 10
2.888609259091055
 20
14.4999999416479799
 30
0.0
 11
8.2018505982139782
 21
19.8132412807709102
 31
0.0
  0
LINE
  5
343
  8
0
 62
     0
 10
1.9905836469841061
 20
14.4999999416479799
 30
0.0
 11
7.6303791308193629
 21
20.1397954254832392
 31
0.0
  0
LINE
  5
344
  8
0
 62
     0
 10
1.0925580348771851
 20
14.4999999416480101
 30
0.0
 11
7.0589076634246899
 21
20.4663495701955185
 31
0.0
  0
LINE
  5
345
  8
0
 62
     0
 10
0.2087474834561931
 20
14.5142150023339092
 30
0.0
 11
6.487436196030103
 21
20.7929037149078191
 31
0.0
  0
LINE
  5
346
  8
0
 62
     0
 10
-0.0000002921257192
 20
15.2034928388588906
 30
0.0
 11
5.9159647286354584
 21
21.1194578596200699
 31
0.0
  0
LINE
  5
347
  8
0
 62
     0
 10
-0.0000002921256907
 20
16.1015184509658695
 30
0.0
 11
5.3444932612408129
 21
21.4460120043323705
 31
0.0
  0
LINE
  5
348
  8
0
 62
     0
 10
-0.0000002921256907
 20
16.9995440630727614
 30
0.0
 11
4.7730217938461692
 21
21.7725661490446214
 31
0.0
  0
LINE
  5
349
  8
0
 62
     0
 10
-0.0000002921256907
 20
17.8975696751796498
 30
0.0
 11
4.2015503264515814
 21
22.0991202937569291
 31
0.0
  0
LINE
  5
34A
  8
0
 62
     0
 10
-0.0000002921256907
 20
18.7955952872865986
 30
0.0
 11
3.630078859056908
 21
22.4256744384692013
 31
0.0
  0
LINE
  5
34B
  8
0
 62
     0
 10
-0.0000002921256623
 20
19.6936208993935189
 30
0.0
 11
3.0586073916623491
 21
22.7522285831815303
 31
0.0
  0
LINE
  5
34C
  8
0
 62
     0
 10
-0.0000002921256907
 20
20.5916465115004392
 30
0.0
 11
2.4871359242676472
 21
23.0787827278937812
 31
0.0
  0
LINE
  5
34D
  8
0
 62
     0
 10
-0.0000002921256623
 20
21.4896721236073596
 30
0.0
 11
1.915664456873031
 21
23.4053368726060604
 31
0.0
  0
LINE
  5
34E
  8
0
 62
     0
 10
-0.0000002921256907
 20
22.3876977357142799
 30
0.0
 11
1.344192989478415
 21
23.7318910173183895
 31
0.0
  0
LINE
  5
34F
  8
0
 62
     0
 10
-0.0000002921256907
 20
23.2857233478211683
 30
0.0
 11
0.7727215220837707
 21
24.0584451620306403
 31
0.0
  0
ENDBLK
  5
351
  8
0
  0
ENDSEC
  0
SECTION
  2
ENTITIES
  0
ARC
  5
27B
  8
0
 10
2349.1993804826379346
 20
1689.1526351727429756
 30
0.0
 40
0.5
 50
0.0
 51
90.0
  0
LINE
  5
27C
  8
0
 10
2349.1993804826379346
 20
1689.6526351727429756
 30
0.0
 11
2346.9493804826379346
 21
1689.6526351727429756
 31
0.0
  0
ARC
  5
27D
  8
0
 10
2346.9493804826379346
 20
1689.4026351727429756
 30
0.0
 40
0.25
 50
90.0
 51
180.0
  0
LINE
  5
27E
  8
0
 10
2346.6993804826379346
 20
1689.4026351727429756
 30
0.0
 11
2346.6993804826379346
 21
1666.8525861727430311
 31
0.0
  0
ARC
  5
27F
  8
0
 10
2346.1993804826379346
 20
1666.8525861727430311
 30
0.0
 40
0.5
 50
270.0
 51
0.0
  0
LINE
  5
280
  8
0
 10
2346.1993804826379346
 20
1666.3525861727430311
 30
0.0
 11
2310.3321924826382201
 21
1666.3525861727430311
 31
0.0
  0
ARC
  5
281
  8
0
 10
2310.3321924826382201
 20
1666.8525861727430311
 30
0.0
 40
0.5
 50
240.2551175146959963
 51
270.0
  0
LINE
  5
282
  8
0
 10
2310.0841230044561598
 20
1666.4184646068260918
 30
0.0
 11
2300.148221827585985
 21
1672.0961053918520065
 31
0.0
  0
ARC
  5
283
  8
0
 10
2299.9993804826381165
 20
1671.8356322568959058
 30
0.0
 40
0.2999999999997516
 50
60.2551927354403603
 51
180.0
  0
LINE
  5
284
  8
0
 10
2299.6993804826388441
 20
1671.8356322568959058
 30
0.0
 11
2299.6993804826388441
 21
1662.6525861727429856
 31
0.0
  0
ARC
  5
285
  8
0
 10
2299.9993804826381165
 20
1662.6525861727429856
 30
0.0
 40
0.3000000000001819
 50
179.9999999999566
 51
269.9999999999130864
  0
LINE
  5
286
  8
0
 10
2299.9993804826381165
 20
1662.3525861727430311
 30
0.0
 11
2324.6993804826388441
 21
1662.3525861727430311
 31
0.0
  0
ARC
  5
287
  8
0
 10
2324.6993804826388441
 20
1661.8525861727430311
 30
0.0
 40
0.5
 50
0.0
 51
90.0
  0
LINE
  5
288
  8
0
 10
2325.1993804826379346
 20
1661.8525861727430311
 30
0.0
 11
2325.1993804826379346
 21
1648.3525861727430311
 31
0.0
  0
ARC
  5
289
  8
0
 10
2325.6993804826379346
 20
1648.3525861727430311
 30
0.0
 40
0.5
 50
180.0
 51
270.0
  0
LINE
  5
28A
  8
0
 10
2325.6993804826379346
 20
1647.8525861727430311
 30
0.0
 11
2330.6993804826379346
 21
1647.8525861727430311
 31
0.0
  0
ARC
  5
28B
  8
0
 10
2330.6993804826379346
 20
1648.3525861727430311
 30
0.0
 40
0.5
 50
270.0
 51
0.0
  0
LINE
  5
28C
  8
0
 10
2331.1993804826379346
 20
1648.3525861727430311
 30
0.0
 11
2331.1993804826379346
 21
1661.8525861727430311
 31
0.0
  0
ARC
  5
28D
  8
0
 10
2331.6993804826388441
 20
1661.8525861727430311
 30
0.0
 40
0.5
 50
90.0
 51
180.0
  0
LINE
  5
28E
  8
0
 10
2331.6993804826388441
 20
1662.3525861727430311
 30
0.0
 11
2349.1993804826379346
 21
1662.3525861727430311
 31
0.0
  0
ARC
  5
28F
  8
0
 10
2349.1993804826379346
 20
1662.8525861727430311
 30
0.0
 40
0.5
 50
270.0
 51
0.0
  0
LINE
  5
290
  8
0
 10
2349.6993804826379346
 20
1662.8525861727430311
 30
0.0
 11
2349.6993804826379346
 21
1689.1526351727429756
 31
0.0
  0
ENDSEC
  0
EOF
