  0
SECTION
  2
HEADER
  9
$ACADVER
  1
AC1009
  9
$INSBASE
 10
0.0
 20
0.0
 30
0.0
  9
$EXTMIN
 10
2225.721826812953168
 20
1588.9256770496599529
 30
0.0
  9
$EXTMAX
 10
2311.9496683494371609
 20
1610.0810071638529735
 30
0.0
  9
$LIMMIN
 10
0.0
 20
0.0
  9
$LIMMAX
 10
420.0
 20
297.0
  9
$ORTHOMODE
 70
     0
  9
$REGENMODE
 70
     1
  9
$FILLMODE
 70
     1
  9
$QTEXTMODE
 70
     0
  9
$MIRRTEXT
 70
     0
  9
$DRAGMODE
 70
     2
  9
$LTSCALE
 40
1.0
  9
$OSMODE
 70
  4095
  9
$ATTMODE
 70
     1
  9
$TEXTSIZE
 40
2.5
  9
$TRACEWID
 40
1.0
  9
$TEXTSTYLE
  7
STANDARD
  9
$CLAYER
  8
0
  9
$CELTYPE
  6
BYLAYER
  9
$CECOLOR
 62
   256
  9
$DIMSCALE
 40
1.0
  9
$DIMASZ
 40
2.5
  9
$DIMEXO
 40
0.625
  9
$DIMDLI
 40
3.75
  9
$DIMRND
 40
0.0
  9
$DIMDLE
 40
0.0
  9
$DIMEXE
 40
1.25
  9
$DIMTP
 40
0.0
  9
$DIMTM
 40
0.0
  9
$DIMTXT
 40
2.5
  9
$DIMCEN
 40
2.5
  9
$DIMTSZ
 40
0.0
  9
$DIMTOL
 70
     0
  9
$DIMLIM
 70
     0
  9
$DIMTIH
 70
     0
  9
$DIMTOH
 70
     0
  9
$DIMSE1
 70
     0
  9
$DIMSE2
 70
     0
  9
$DIMTAD
 70
     1
  9
$DIMZIN
 70
     8
  9
$DIMBLK
  1

  9
$DIMASO
 70
     1
  9
$DIMSHO
 70
     1
  9
$DIMPOST
  1

  9
$DIMAPOST
  1

  9
$DIMALT
 70
     0
  9
$DIMALTD
 70
     3
  9
$DIMALTF
 40
0.03937007874016
  9
$DIMLFAC
 40
1.0
  9
$DIMTOFL
 70
     1
  9
$DIMTVP
 40
0.0
  9
$DIMTIX
 70
     0
  9
$DIMSOXD
 70
     0
  9
$DIMSAH
 70
     0
  9
$DIMBLK1
  1

  9
$DIMBLK2
  1

  9
$DIMSTYLE
  2
ISO-25
  9
$DIMCLRD
 70
     0
  9
$DIMCLRE
 70
     0
  9
$DIMCLRT
 70
     0
  9
$DIMTFAC
 40
1.0
  9
$DIMGAP
 40
0.625
  9
$LUNITS
 70
     2
  9
$LUPREC
 70
     4
  9
$SKETCHINC
 40
1.0
  9
$FILLETRAD
 40
0.0
  9
$AUNITS
 70
     0
  9
$AUPREC
 70
     0
  9
$MENU
  1
.
  9
$ELEVATION
 40
0.0
  9
$PELEVATION
 40
0.0
  9
$THICKNESS
 40
0.0
  9
$LIMCHECK
 70
     0
  9
$BLIPMODE
 70
     0
  9
$CHAMFERA
 40
0.0
  9
$CHAMFERB
 40
0.0
  9
$SKPOLY
 70
     0
  9
$TDCREATE
 40
2458723.6581481480970979
  9
$TDUPDATE
 40
2458723.6583912041969597
  9
$TDINDWG
 40
0.0002546296
  9
$TDUSRTIMER
 40
0.0002546296
  9
$USRTIMER
 70
     1
  9
$ANGBASE
 50
0.0
  9
$ANGDIR
 70
     0
  9
$PDMODE
 70
     0
  9
$PDSIZE
 40
0.0
  9
$PLINEWID
 40
0.0
  9
$COORDS
 70
     1
  9
$SPLFRAME
 70
     0
  9
$SPLINETYPE
 70
     6
  9
$SPLINESEGS
 70
     8
  9
$ATTDIA
 70
     1
  9
$ATTREQ
 70
     1
  9
$HANDLING
 70
     1
  9
$HANDSEED
  5
3D1
  9
$SURFTAB1
 70
     6
  9
$SURFTAB2
 70
     6
  9
$SURFTYPE
 70
     6
  9
$SURFU
 70
     6
  9
$SURFV
 70
     6
  9
$UCSNAME
  2

  9
$UCSORG
 10
0.0
 20
0.0
 30
0.0
  9
$UCSXDIR
 10
1.0
 20
0.0
 30
0.0
  9
$UCSYDIR
 10
0.0
 20
1.0
 30
0.0
  9
$PUCSNAME
  2

  9
$PUCSORG
 10
0.0
 20
0.0
 30
0.0
  9
$PUCSXDIR
 10
1.0
 20
0.0
 30
0.0
  9
$PUCSYDIR
 10
0.0
 20
1.0
 30
0.0
  9
$USERI1
 70
     0
  9
$USERI2
 70
     0
  9
$USERI3
 70
     0
  9
$USERI4
 70
     0
  9
$USERI5
 70
     0
  9
$USERR1
 40
0.0
  9
$USERR2
 40
0.0
  9
$USERR3
 40
0.0
  9
$USERR4
 40
0.0
  9
$USERR5
 40
0.0
  9
$WORLDVIEW
 70
     1
  9
$SHADEDGE
 70
     3
  9
$SHADEDIF
 70
    70
  9
$TILEMODE
 70
     1
  9
$MAXACTVP
 70
    64
  9
$PLIMCHECK
 70
     0
  9
$PEXTMIN
 10
0.0
 20
0.0
 30
0.0
  9
$PEXTMAX
 10
0.0
 20
0.0
 30
0.0
  9
$PLIMMIN
 10
0.0
 20
0.0
  9
$PLIMMAX
 10
12.0
 20
9.0
  9
$UNITMODE
 70
     0
  9
$VISRETAIN
 70
     1
  9
$PLINEGEN
 70
     0
  9
$PSLTSCALE
 70
     1
  0
ENDSEC
  0
SECTION
  2
TABLES
  0
TABLE
  2
VPORT
 70
     1
  0
VPORT
  2
*ACTIVE
 70
     0
 10
0.0
 20
0.0
 11
1.0
 21
1.0
 12
2268.8357475811958466
 22
1599.5033421067569179
 13
0.0
 23
0.0
 14
10.0
 24
10.0
 15
10.0
 25
10.0
 16
0.0
 26
0.0
 36
1.0
 17
0.0
 27
0.0
 37
0.0
 40
39.5020440852181522
 41
2.190298507462686
 42
50.0
 43
0.0
 44
0.0
 50
0.0
 51
0.0
 71
     0
 72
  1000
 73
     1
 74
     3
 75
     0
 76
     1
 77
     0
 78
     0
  0
ENDTAB
  0
TABLE
  2
LTYPE
 70
     1
  0
LTYPE
  2
CONTINUOUS
 70
     0
  3
Solid line
 72
    65
 73
     0
 40
0.0
  0
ENDTAB
  0
TABLE
  2
LAYER
 70
     1
  0
LAYER
  2
0
 70
     0
 62
     7
  6
CONTINUOUS
  0
ENDTAB
  0
TABLE
  2
STYLE
 70
     3
  0
STYLE
  2
STANDARD
 70
     0
 40
0.0
 41
1.0
 50
0.0
 71
     0
 42
2.5
  3
txt
  4

  0
STYLE
  2
ANNOTATIVE
 70
     0
 40
0.0
 41
1.0
 50
0.0
 71
     0
 42
2.5
  3
txt
  4

  0
STYLE
  2
ROMANT
 70
     0
 40
2.2000000000000002
 41
1.0
 50
0.0
 71
     0
 42
2.5
  3
romant.shx
  4

  0
ENDTAB
  0
TABLE
  2
VIEW
 70
     1
  0
ENDTAB
  0
TABLE
  2
UCS
 70
     0
  0
ENDTAB
  0
TABLE
  2
APPID
 70
    10
  0
APPID
  2
ACAD
 70
     0
  0
APPID
  2
ACAD_PSEXT
 70
     0
  0
APPID
  2
ACADANNOPO
 70
     0
  0
APPID
  2
ACADANNOTATIVE
 70
     0
  0
APPID
  2
ACAD_DSTYLE_DIMJAG
 70
     0
  0
APPID
  2
ACAD_DSTYLE_DIMTALN
 70
     0
  0
APPID
  2
ACAD_MLEADERVER
 70
     0
  0
APPID
  2
ACAD_NAV_VCDISPLAY
 70
     0
  0
APPID
  2
GRADIENTCOLOR1ACI
 70
     0
  0
APPID
  2
GRADIENTCOLOR2ACI
 70
     0
  0
ENDTAB
  0
TABLE
  2
DIMSTYLE
 70
     4
  0
DIMSTYLE
  2
STANDARD
 70
     0
  3

  4

  5

  6

  7

 40
1.0
 41
0.18
 42
0.0625
 43
0.38
 44
0.18
 45
0.0
 46
0.0
 47
0.0
 48
0.0
140
0.18
141
0.09
142
0.0
143
25.3999999999999986
144
1.0
145
0.0
146
1.0
147
0.09
 71
     0
 72
     0
 73
     1
 74
     1
 75
     0
 76
     0
 77
     0
 78
     0
170
     0
171
     2
172
     0
173
     0
174
     0
175
     0
176
     0
177
     0
178
     0
  0
DIMSTYLE
  2
ANNOTATIVE
 70
     0
  3

  4

  5

  6

  7

 40
0.0
 41
2.5
 42
0.625
 43
3.75
 44
1.25
 45
0.0
 46
0.0
 47
0.0
 48
0.0
140
2.5
141
2.5
142
0.0
143
0.03937007874016
144
1.0
145
0.0
146
1.0
147
0.625
 71
     0
 72
     0
 73
     0
 74
     0
 75
     0
 76
     0
 77
     1
 78
     8
170
     0
171
     3
172
     1
173
     0
174
     0
175
     0
176
     0
177
     0
178
     0
  0
DIMSTYLE
  2
ISO-25
 70
     0
  3

  4

  5

  6

  7

 40
1.0
 41
2.5
 42
0.625
 43
3.75
 44
1.25
 45
0.0
 46
0.0
 47
0.0
 48
0.0
140
2.5
141
2.5
142
0.0
143
0.03937007874016
144
1.0
145
0.0
146
1.0
147
0.625
 71
     0
 72
     0
 73
     0
 74
     0
 75
     0
 76
     0
 77
     1
 78
     8
170
     0
171
     3
172
     1
173
     0
174
     0
175
     0
176
     0
177
     0
178
     0
  0
DIMSTYLE
  2
MELÝH_A3
 70
     0
  3

  4

  5

  6

  7

 40
1.0
 41
1.3
 42
0.0
 43
3.75
 44
0.2
 45
0.0
 46
0.0
 47
0.0
 48
0.0
140
1.0
141
0.2
142
0.0
143
0.03937007874016
144
1.0
145
0.0
146
1.0
147
0.7
 71
     0
 72
     0
 73
     0
 74
     0
 75
     0
 76
     0
 77
     1
 78
     8
170
     0
171
     3
172
     0
173
     0
174
     0
175
     0
176
   242
177
   242
178
   242
  0
ENDTAB
  0
ENDSEC
  0
SECTION
  2
BLOCKS
  0
BLOCK
  8
0
  2
$MODEL_SPACE
 70
     0
 10
0.0
 20
0.0
 30
0.0
  3
$MODEL_SPACE
  1

  0
ENDBLK
  5
21
  8
0
  0
BLOCK
 67
     1
  8
0
  2
$PAPER_SPACE
 70
     0
 10
0.0
 20
0.0
 30
0.0
  3
$PAPER_SPACE
  1

  0
ENDBLK
  5
D5
 67
     1
  8
0
  0
BLOCK
  8
0
  2
*X2
 70
     1
 10
0.0
 20
0.0
 30
0.0
  3
*X2
  1

  0
LINE
  5
303
  8
0
 62
     0
 10
85.7594123881613086
 20
0.0000883380789674
 30
0.0
 11
86.2499109078701167
 21
0.4905868577877755
 31
0.0
  0
LINE
  5
304
  8
0
 62
     0
 10
84.4122853600219969
 20
-0.0000002719000349
 30
0.0
 11
86.249999517849119
 21
1.837713885927087
 31
0.0
  0
LINE
  5
305
  8
0
 62
     0
 10
83.065246941862128
 20
-0.0000002718995802
 30
0.0
 11
86.1346682460298325
 21
3.0694210322681101
 31
0.0
  0
LINE
  5
306
  8
0
 62
     0
 10
81.7182085237018327
 20
-0.0000002718995802
 30
0.0
 11
84.9682085236947842
 21
3.2499997280933708
 31
0.0
  0
LINE
  5
307
  8
0
 62
     0
 10
80.3711701055419638
 20
-0.0000002718991254
 30
0.0
 11
83.6211701055378853
 21
3.2499997280967809
 31
0.0
  0
LINE
  5
308
  8
0
 62
     0
 10
79.024131687381896
 20
-0.0000002718986707
 30
0.0
 11
82.2741316873807591
 21
3.249999728100192
 31
0.0
  0
LINE
  5
309
  8
0
 62
     0
 10
77.6770932692215865
 20
-0.0000002718986707
 30
0.0
 11
81.1716293064784935
 21
3.4945357653582501
 31
0.0
  0
LINE
  5
30A
  8
0
 62
     0
 10
76.330054851061945
 20
-0.0000002718979886
 30
0.0
 11
80.3993036209949565
 21
4.0692484980349937
 31
0.0
  0
LINE
  5
30B
  8
0
 62
     0
 10
74.9830164329014224
 20
-0.0000002718979886
 30
0.0
 11
79.8947329192085363
 21
4.9117162144091253
 31
0.0
  0
LINE
  5
30C
  8
0
 62
     0
 10
73.6359780147413403
 20
-0.0000002718977612
 30
0.0
 11
79.7499995178493464
 21
6.114021231210244
 31
0.0
  0
LINE
  5
30D
  8
0
 62
     0
 10
77.7309562388233957
 20
5.4420163703446169
 30
0.0
 11
79.7499995178493464
 21
7.4610596493705543
 31
0.0
  0
LINE
  5
30E
  8
0
 62
     0
 10
86.0937932088941125
 20
13.8048533404153204
 30
0.0
 11
86.2451459055293839
 21
13.9562060370506007
 31
0.0
  0
LINE
  5
30F
  8
0
 62
     0
 10
72.288939596581713
 20
-0.0000002718970791
 30
0.0
 11
75.5579828756060436
 21
3.2690430071272649
 31
0.0
  0
LINE
  5
310
  8
0
 62
     0
 10
77.7499995178498011
 20
6.8080980675313176
 30
0.0
 11
79.7499995178493464
 21
8.8080980675308638
 31
0.0
  0
LINE
  5
311
  8
0
 62
     0
 10
84.7419011784140679
 20
13.7999997280955995
 30
0.0
 11
86.2053698109362045
 21
15.2634683606177095
 31
0.0
  0
LINE
  5
312
  8
0
 62
     0
 10
70.9419011784211762
 20
-0.0000002718973064
 30
0.0
 11
74.1919011784198119
 21
3.2499997281013289
 31
0.0
  0
LINE
  5
313
  8
0
 62
     0
 10
77.7499995178495737
 20
8.1551364856916262
 30
0.0
 11
79.7499995178493464
 21
10.1551364856914006
 31
0.0
  0
LINE
  5
314
  8
0
 62
     0
 10
83.3948627602535453
 20
13.7999997280955995
 30
0.0
 11
85.394862760257169
 21
15.7999997280992392
 31
0.0
  0
LINE
  5
315
  8
0
 62
     0
 10
69.5948627602613215
 20
-0.0000002718966243
 30
0.0
 11
72.8448627602595025
 21
3.2499997281015558
 31
0.0
  0
LINE
  5
316
  8
0
 62
     0
 10
77.7499995178500285
 20
9.5021749038523922
 30
0.0
 11
79.7499995178493464
 21
11.50217490385171
 31
0.0
  0
LINE
  5
317
  8
0
 62
     0
 10
82.0478243420939037
 20
13.7999997280962798
 30
0.0
 11
84.0478243420973286
 21
15.7999997280996904
 31
0.0
  0
LINE
  5
318
  8
0
 62
     0
 10
68.2478243421012394
 20
-0.000000271896397
 30
0.0
 11
71.4978243420996336
 21
3.249999728102011
 31
0.0
  0
LINE
  5
319
  8
0
 62
     0
 10
77.451766526408619
 20
10.5509803305712904
 30
0.0
 11
82.7007859239372465
 21
15.7999997280999196
 31
0.0
  0
LINE
  5
31A
  8
0
 62
     0
 10
85.5832135711807354
 20
18.6824273753434191
 30
0.0
 11
86.2499995178493464
 21
19.3492133220120195
 31
0.0
  0
LINE
  5
31B
  8
0
 62
     0
 10
66.9007859239411431
 20
-0.0000002718961696
 30
0.0
 11
70.1507859239395657
 21
3.2499997281022379
 31
0.0
  0
LINE
  5
31C
  8
0
 62
     0
 10
77.7499995178479821
 20
12.1962517401711903
 30
0.0
 11
81.353747505776937
 21
15.7999997281001399
 31
0.0
  0
LINE
  5
31D
  8
0
 62
     0
 10
83.9478092461499585
 20
18.3940614684731791
 30
0.0
 11
86.2499995178495737
 21
20.6962517401727908
 31
0.0
  0
LINE
  5
31E
  8
0
 62
     0
 10
65.5537475057808479
 20
-0.0000002718959422
 30
0.0
 11
68.8037475057792562
 21
3.2499997281024662
 31
0.0
  0
LINE
  5
31F
  8
0
 62
     0
 10
77.7499995178486643
 20
13.5432901583321801
 30
0.0
 11
80.0067090876170823
 21
15.7999997281005999
 31
0.0
  0
LINE
  5
320
  8
0
 62
     0
 10
82.3124049211198781
 20
18.105695561603401
 30
0.0
 11
85.2067090876162041
 21
20.9999997280997412
 31
0.0
  0
LINE
  5
321
  8
0
 62
     0
 10
64.2067090876209932
 20
-0.0000002718954875
 30
0.0
 11
67.4567090876194015
 21
3.24999972810292
 31
0.0
  0
LINE
  5
322
  8
0
 62
     0
 10
77.7499995178488916
 20
14.8903285764927205
 30
0.0
 11
79.7499995178475132
 21
16.8903285764913491
 31
0.0
  0
LINE
  5
323
  8
0
 62
     0
 10
80.6770005960893286
 20
17.817329654733161
 30
0.0
 11
83.8596706694559089
 21
20.9999997280997412
 31
0.0
  0
LINE
  5
324
  8
0
 62
     0
 10
62.8596706694609111
 20
-0.0000002718952601
 30
0.0
 11
66.1096706694590921
 21
3.24999972810292
 31
0.0
  0
LINE
  5
325
  8
0
 62
     0
 10
77.749999517849119
 20
16.2373669946534811
 30
0.0
 11
82.5126322512960542
 21
20.9999997281004198
 31
0.0
  0
LINE
  5
326
  8
0
 62
     0
 10
61.5126322513006016
 20
-0.0000002718950327
 30
0.0
 11
64.76263225129901
 21
3.2499997281033748
 31
0.0
  0
LINE
  5
327
  8
0
 62
     0
 10
77.3902202569806832
 20
17.2246261519453583
 30
0.0
 11
81.1655938331357447
 21
20.9999997281004198
 31
0.0
  0
LINE
  5
328
  8
0
 62
     0
 10
60.1655938331407398
 20
-0.000000271894578
 30
0.0
 11
63.4155938331391482
 21
3.24999972810383
 31
0.0
  0
LINE
  5
329
  8
0
 62
     0
 10
76.5402130247518926
 20
17.72165733787687
 30
0.0
 11
79.81855541497589
 21
20.999999728100871
 31
0.0
  0
LINE
  5
32A
  8
0
 62
     0
 10
58.8185554149806578
 20
-0.0000002718943506
 30
0.0
 11
62.0685554149790732
 21
3.2499997281040569
 31
0.0
  0
LINE
  5
32B
  8
0
 62
     0
 10
75.2215169968158079
 20
17.7499997281010984
 30
0.0
 11
78.4715169968160353
 21
20.9999997281013293
 31
0.0
  0
LINE
  5
32C
  8
0
 62
     0
 10
57.4715169968205828
 20
-0.0000002718941232
 30
0.0
 11
60.7215169968189912
 21
3.2499997281042852
 31
0.0
  0
LINE
  5
32D
  8
0
 62
     0
 10
73.8744785786557259
 20
17.7499997281015602
 30
0.0
 11
77.1244785786554985
 21
20.9999997281013293
 31
0.0
  0
LINE
  5
32E
  8
0
 62
     0
 10
56.1244785786605007
 20
-0.0000002718936685
 30
0.0
 11
59.3744785786591365
 21
3.2499997281049668
 31
0.0
  0
LINE
  5
32F
  8
0
 62
     0
 10
72.5274401604956438
 20
17.7499997281017805
 30
0.0
 11
75.7774401604956438
 21
20.9999997281017912
 31
0.0
  0
LINE
  5
330
  8
0
 62
     0
 10
54.7774401605004186
 20
-0.0000002718934411
 30
0.0
 11
58.0274401604990473
 21
3.2499997281051942
 31
0.0
  0
LINE
  5
331
  8
0
 62
     0
 10
71.1804017423357891
 20
17.7499997281022388
 30
0.0
 11
74.4304017423357891
 21
20.9999997281022388
 31
0.0
  0
LINE
  5
332
  8
0
 62
     0
 10
53.4304017423403295
 20
-0.0000002718932137
 30
0.0
 11
56.6804017423387378
 21
3.2499997281051942
 31
0.0
  0
LINE
  5
333
  8
0
 62
     0
 10
69.833363324175707
 20
17.74999972810269
 30
0.0
 11
73.0833633241754796
 21
20.9999997281024591
 31
0.0
  0
LINE
  5
334
  8
0
 62
     0
 10
52.0833633241802474
 20
-0.000000271892759
 30
0.0
 11
55.3333633241788903
 21
3.2499997281058759
 31
0.0
  0
LINE
  5
335
  8
0
 62
     0
 10
68.4863249060158523
 20
17.7499997281031483
 30
0.0
 11
71.7363249060153976
 21
20.9999997281027007
 31
0.0
  0
LINE
  5
336
  8
0
 62
     0
 10
50.7363249060201724
 20
-0.0000002718925316
 30
0.0
 11
53.9863249060188011
 21
3.2499997281061042
 31
0.0
  0
LINE
  5
337
  8
0
 62
     0
 10
67.1392864878557702
 20
17.7499997281033686
 30
0.0
 11
70.3892864878553155
 21
20.9999997281029209
 31
0.0
  0
LINE
  5
338
  8
0
 62
     0
 10
49.3892864878600903
 20
-0.0000002718923042
 30
0.0
 11
52.639286487858719
 21
3.2499997281063311
 31
0.0
  0
LINE
  5
339
  8
0
 62
     0
 10
65.7922480696954608
 20
17.7499997281033686
 30
0.0
 11
69.0422480696952334
 21
20.9999997281031483
 31
0.0
  0
LINE
  5
33A
  8
0
 62
     0
 10
48.0422480697000083
 20
-0.0000002718920769
 30
0.0
 11
51.2922480696986369
 21
3.249999728106558
 31
0.0
  0
LINE
  5
33B
  8
0
 62
     0
 10
64.4452096515358335
 20
17.7499997281040507
 30
0.0
 11
67.6952096515353787
 21
20.9999997281035995
 31
0.0
  0
LINE
  5
33C
  8
0
 62
     0
 10
46.6952096515399191
 20
-0.0000002718918495
 30
0.0
 11
49.9452096515387893
 21
3.2499997281070132
 31
0.0
  0
LINE
  5
33D
  8
0
 62
     0
 10
63.0981712333757514
 20
17.749999728104509
 30
0.0
 11
66.3481712333750693
 21
20.9999997281038304
 31
0.0
  0
LINE
  5
33E
  8
0
 62
     0
 10
45.348171233379837
 20
-0.0000002718913947
 30
0.0
 11
48.5981712333784728
 21
3.249999728107241
 31
0.0
  0
LINE
  5
33F
  8
0
 62
     0
 10
61.751132815215442
 20
17.749999728104509
 30
0.0
 11
65.0011328152149872
 21
20.9999997281040613
 31
0.0
  0
LINE
  5
340
  8
0
 62
     0
 10
44.0011328152195276
 20
-0.0000002718913947
 30
0.0
 11
47.2511328152183907
 21
3.249999728107468
 31
0.0
  0
LINE
  5
341
  8
0
 62
     0
 10
60.4040943970555873
 20
17.7499997281049708
 30
0.0
 11
63.6540943970549122
 21
20.9999997281042887
 31
0.0
  0
LINE
  5
342
  8
0
 62
     0
 10
42.65409439705968
 20
-0.00000027189094
 30
0.0
 11
45.9040943970585431
 21
3.2499997281079231
 31
0.0
  0
LINE
  5
343
  8
0
 62
     0
 10
59.0570559788954981
 20
17.7499997281054185
 30
0.0
 11
62.3070559788948231
 21
20.9999997281047399
 31
0.0
  0
LINE
  5
344
  8
0
 62
     0
 10
41.3070559788995908
 20
-0.0000002718904852
 30
0.0
 11
44.5570559788982266
 21
3.2499997281081501
 31
0.0
  0
LINE
  5
345
  8
0
 62
     0
 10
57.7100175607354231
 20
17.7499997281056494
 30
0.0
 11
60.960017560734741
 21
20.9999997281049708
 31
0.0
  0
LINE
  5
346
  8
0
 62
     0
 10
39.9600175607392885
 20
-0.0000002718904852
 30
0.0
 11
43.210017560738379
 21
3.2499997281086048
 31
0.0
  0
LINE
  5
347
  8
0
 62
     0
 10
56.3629791425755684
 20
17.7499997281061006
 30
0.0
 11
59.6129791425746589
 21
20.9999997281052018
 31
0.0
  0
LINE
  5
348
  8
0
 62
     0
 10
38.6129791425794409
 20
-0.0000002718900305
 30
0.0
 11
41.929049072013413
 21
3.3160696575439479
 31
0.0
  0
LINE
  5
349
  8
0
 62
     0
 10
55.0159407244154792
 20
17.7499997281063315
 30
0.0
 11
58.2659407244145768
 21
20.9999997281054185
 31
0.0
  0
LINE
  5
34A
  8
0
 62
     0
 10
37.2659407244193517
 20
-0.0000002718898031
 30
0.0
 11
41.0091273129196381
 21
3.7431863166104899
 31
0.0
  0
LINE
  5
34B
  8
0
 62
     0
 10
53.6689023062556316
 20
17.7499997281070101
 30
0.0
 11
56.9189023062545019
 21
20.9999997281058803
 31
0.0
  0
LINE
  5
34C
  8
0
 62
     0
 10
35.9189023062590422
 20
-0.0000002718895757
 30
0.0
 11
40.3662194502819602
 21
4.4473168721333423
 31
0.0
  0
LINE
  5
34D
  8
0
 62
     0
 10
52.3218638880955496
 20
17.749999728107241
 30
0.0
 11
55.5718638880944127
 21
20.9999997281061113
 31
0.0
  0
LINE
  5
34E
  8
0
 62
     0
 10
34.5718638880991875
 20
-0.000000271889121
 30
0.0
 11
40.0184765709848165
 21
5.4466124109965222
 31
0.0
  0
LINE
  5
34F
  8
0
 62
     0
 10
37.563596722002103
 20
4.338770980174103
 30
0.0
 11
39.999999517849119
 21
6.775173776021119
 31
0.0
  0
LINE
  5
350
  8
0
 62
     0
 10
50.9748254699354604
 20
17.7499997281074684
 30
0.0
 11
54.2248254699343306
 21
20.9999997281063315
 31
0.0
  0
LINE
  5
351
  8
0
 62
     0
 10
33.2248254699390984
 20
-0.0000002718888936
 30
0.0
 11
36.9112282657827109
 21
3.6864025239547109
 31
0.0
  0
LINE
  5
352
  8
0
 62
     0
 10
37.9999995178463905
 20
6.1222121941789283
 30
0.0
 11
39.999999517849119
 21
8.1222121941816567
 31
0.0
  0
LINE
  5
353
  8
0
 62
     0
 10
49.6277870517753783
 20
17.7499997281079196
 30
0.0
 11
52.8777870517742485
 21
20.9999997281067898
 31
0.0
  0
LINE
  5
354
  8
0
 62
     0
 10
31.8777870517787996
 20
-0.0000002718886662
 30
0.0
 11
35.1277870517776591
 21
3.249999728110196
 31
0.0
  0
LINE
  5
355
  8
0
 62
     0
 10
37.9999995178466179
 20
7.4692506123394651
 30
0.0
 11
39.999999517849119
 21
9.4692506123419662
 31
0.0
  0
LINE
  5
356
  8
0
 62
     0
 10
48.2807486336155307
 20
17.7499997281083814
 30
0.0
 11
51.5307486336141665
 21
20.9999997281070101
 31
0.0
  0
LINE
  5
357
  8
0
 62
     0
 10
30.5307486336189413
 20
-0.0000002718882115
 30
0.0
 11
33.7807486336177973
 21
3.2499997281106512
 31
0.0
  0
LINE
  5
358
  8
0
 62
     0
 10
37.9999995178463905
 20
8.8162890304995472
 30
0.0
 11
39.9999995178488916
 21
10.81628903050205
 31
0.0
  0
LINE
  5
359
  8
0
 62
     0
 10
46.9337102154554415
 20
17.7499997281086017
 30
0.0
 11
50.1837102154540915
 21
20.999999728107241
 31
0.0
  0
LINE
  5
35A
  8
0
 62
     0
 10
29.1837102154586283
 20
-0.0000002718882115
 30
0.0
 11
32.4337102154575021
 21
3.2499997281106512
 31
0.0
  0
LINE
  5
35B
  8
0
 62
     0
 10
37.9999995178461702
 20
10.1633274486598602
 30
0.0
 11
39.9999995178488916
 21
12.1633274486625798
 31
0.0
  0
LINE
  5
35C
  8
0
 62
     0
 10
45.5866717972951321
 20
17.7499997281088291
 30
0.0
 11
48.8366717972940023
 21
20.9999997281076993
 31
0.0
  0
LINE
  5
35D
  8
0
 62
     0
 10
27.8366717972985498
 20
-0.0000002718877568
 30
0.0
 11
31.0866717972974094
 21
3.2499997281111059
 31
0.0
  0
LINE
  5
35E
  8
0
 62
     0
 10
37.9999995178463905
 20
11.5103658668203899
 30
0.0
 11
39.999999517849119
 21
13.5103658668231201
 31
0.0
  0
LINE
  5
35F
  8
0
 62
     0
 10
44.2396333791352774
 20
17.7499997281092909
 30
0.0
 11
47.4896333791341476
 21
20.9999997281081505
 31
0.0
  0
LINE
  5
360
  8
0
 62
     0
 10
26.4896333791386915
 20
-0.000000271887302
 30
0.0
 11
29.7396333791375618
 21
3.2499997281115611
 31
0.0
  0
LINE
  5
361
  8
0
 62
     0
 10
37.9999995178461702
 20
12.8574042849804702
 30
0.0
 11
39.9999995178488916
 21
14.8574042849832004
 31
0.0
  0
LINE
  5
362
  8
0
 62
     0
 10
42.8925949609752024
 20
17.7499997281095112
 30
0.0
 11
46.1425949609738382
 21
20.9999997281081505
 31
0.0
  0
LINE
  5
363
  8
0
 62
     0
 10
25.1425949609786095
 20
-0.0000002718870746
 30
0.0
 11
28.3925949609772488
 21
3.2499997281115611
 31
0.0
  0
LINE
  5
364
  8
0
 62
     0
 10
37.9999995178461702
 20
14.2044427031407796
 30
0.0
 11
39.999999517849119
 21
16.2044427031437408
 31
0.0
  0
LINE
  5
365
  8
0
 62
     0
 10
41.5455565428153406
 20
17.7499997281099695
 30
0.0
 11
44.7955565428139835
 21
20.9999997281086088
 31
0.0
  0
LINE
  5
366
  8
0
 62
     0
 10
23.7955565428185309
 20
-0.0000002718868473
 30
0.0
 11
27.0455565428173905
 21
3.249999728112015
 31
0.0
  0
LINE
  5
367
  8
0
 62
     0
 10
37.9999995178461702
 20
15.55148112130132
 30
0.0
 11
43.4485181246539014
 21
20.99999972810906
 31
0.0
  0
LINE
  5
368
  8
0
 62
     0
 10
22.4485181246582215
 20
-0.0000002718866199
 30
0.0
 11
25.6985181246573084
 21
3.2499997281124702
 31
0.0
  0
LINE
  5
369
  8
0
 62
     0
 10
37.8972051916350665
 20
16.795725213250531
 30
0.0
 11
42.1014797064935919
 21
20.99999972810906
 31
0.0
  0
LINE
  5
36A
  8
0
 62
     0
 10
21.1014797064981394
 20
-0.0000002718863925
 30
0.0
 11
24.351479706496999
 21
3.2499997281124702
 31
0.0
  0
LINE
  5
36B
  8
0
 62
     0
 10
37.2835329213362527
 20
17.5290913611120196
 30
0.0
 11
40.7544412883337372
 21
20.9999997281095183
 31
0.0
  0
LINE
  5
36C
  8
0
 62
     0
 10
19.7544412883382812
 20
-0.0000002718859378
 30
0.0
 11
23.0044412883371514
 21
3.2499997281129249
 31
0.0
  0
LINE
  5
36D
  8
0
 62
     0
 10
36.1574028701741099
 20
17.7499997281104207
 30
0.0
 11
39.4074028701734278
 21
20.9999997281097386
 31
0.0
  0
LINE
  5
36E
  8
0
 62
     0
 10
18.4074028701781991
 20
-0.000000271885483
 30
0.0
 11
21.6574028701770587
 21
3.2499997281133801
 31
0.0
  0
LINE
  5
36F
  8
0
 62
     0
 10
34.8103644520138005
 20
17.7499997281104207
 30
0.0
 11
38.0603644520133528
 21
20.9999997281099695
 31
0.0
  0
LINE
  5
370
  8
0
 62
     0
 10
17.0603644520178896
 20
-0.000000271885483
 30
0.0
 11
20.3103644520167599
 21
3.2499997281133801
 31
0.0
  0
LINE
  5
371
  8
0
 62
     0
 10
33.4633260338539529
 20
17.749999728110879
 30
0.0
 11
36.713326033853491
 21
20.9999997281104207
 31
0.0
  0
LINE
  5
372
  8
0
 62
     0
 10
15.7133260338580403
 20
-0.0000002718850283
 30
0.0
 11
18.9633260338569016
 21
3.249999728113834
 31
0.0
  0
LINE
  5
373
  8
0
 62
     0
 10
32.1162876156938566
 20
17.7499997281110993
 30
0.0
 11
35.3662876156931816
 21
20.9999997281104207
 31
0.0
  0
LINE
  5
374
  8
0
 62
     0
 10
14.3662876156979493
 20
-0.0000002718848009
 30
0.0
 11
17.6162876156965886
 21
3.249999728113834
 31
0.0
  0
LINE
  5
375
  8
0
 62
     0
 10
30.7692491975337816
 20
17.7499997281113302
 30
0.0
 11
34.0192491975333269
 21
20.999999728110879
 31
0.0
  0
LINE
  5
376
  8
0
 62
     0
 10
13.0192491975378708
 20
-0.0000002718845735
 30
0.0
 11
16.269249197536741
 21
3.2499997281142892
 31
0.0
  0
LINE
  5
377
  8
0
 62
     0
 10
29.4222107793736996
 20
17.7499997281117885
 30
0.0
 11
32.6722107793730174
 21
20.9999997281111099
 31
0.0
  0
LINE
  5
378
  8
0
 62
     0
 10
11.6722107793777905
 20
-0.0000002718841188
 30
0.0
 11
14.9222107793766501
 21
3.2499997281147439
 31
0.0
  0
LINE
  5
379
  8
0
 62
     0
 10
28.0751723612133901
 20
17.7499997281117885
 30
0.0
 11
31.3251723612129389
 21
20.9999997281113302
 31
0.0
  0
LINE
  5
37A
  8
0
 62
     0
 10
10.3251723612174793
 20
-0.0000002718841188
 30
0.0
 11
13.5751723612163406
 21
3.2499997281147439
 31
0.0
  0
LINE
  5
37B
  8
0
 62
     0
 10
26.728133943053539
 20
17.7499997281122397
 30
0.0
 11
29.9781339430530807
 21
20.9999997281117885
 31
0.0
  0
LINE
  5
37C
  8
0
 62
     0
 10
8.9781339430576281
 20
-0.000000271883664
 30
0.0
 11
12.2281339430567204
 21
3.249999728115426
 31
0.0
  0
LINE
  5
37D
  8
0
 62
     0
 10
25.3810955248934498
 20
17.7499997281127015
 30
0.0
 11
28.6310955248927712
 21
20.9999997281120194
 31
0.0
  0
LINE
  5
37E
  8
0
 62
     0
 10
7.6310955248975461
 20
-0.0000002718832093
 30
0.0
 11
10.88109552489618
 21
3.249999728115426
 31
0.0
  0
LINE
  5
37F
  8
0
 62
     0
 10
24.0340571067335986
 20
17.7499997281131492
 30
0.0
 11
27.2840571067326891
 21
20.9999997281122397
 31
0.0
  0
LINE
  5
380
  8
0
 62
     0
 10
6.2840571067372357
 20
-0.0000002718832093
 30
0.0
 11
9.5340571067360997
 21
3.249999728115653
 31
0.0
  0
LINE
  5
381
  8
0
 62
     0
 10
22.6870186885732892
 20
17.7499997281131492
 30
0.0
 11
25.9370186885728415
 21
20.9999997281127015
 31
0.0
  0
LINE
  5
382
  8
0
 62
     0
 10
4.937018688577381
 20
-0.0000002718827545
 30
0.0
 11
8.187018688576245
 21
3.2499997281161082
 31
0.0
  0
LINE
  5
383
  8
0
 62
     0
 10
21.3399802704134309
 20
17.749999728113611
 30
0.0
 11
24.5899802704127488
 21
20.9999997281129289
 31
0.0
  0
LINE
  5
384
  8
0
 62
     0
 10
3.5899802704172989
 20
-0.0000002718825272
 30
0.0
 11
6.8399802704159347
 21
3.2499997281161082
 31
0.0
  0
LINE
  5
385
  8
0
 62
     0
 10
19.9929418522533489
 20
17.7499997281140587
 30
0.0
 11
23.24294185225245
 21
20.9999997281131492
 31
0.0
  0
LINE
  5
386
  8
0
 62
     0
 10
2.2429418522569899
 20
-0.0000002718822998
 30
0.0
 11
5.49294185225608
 21
3.2499997281167898
 31
0.0
  0
LINE
  5
387
  8
0
 62
     0
 10
18.6459034340932703
 20
17.7499997281142896
 30
0.0
 11
21.8959034340925918
 21
20.999999728113611
 31
0.0
  0
LINE
  5
388
  8
0
 62
     0
 10
0.8959034340971356
 20
-0.000000271881845
 30
0.0
 11
4.1459034340959979
 21
3.2499997281170181
 31
0.0
  0
LINE
  5
389
  8
0
 62
     0
 10
17.2988650159331883
 20
17.7499997281145205
 30
0.0
 11
20.5488650159322788
 21
20.999999728113611
 31
0.0
  0
LINE
  5
38A
  8
0
 62
     0
 10
0.2499995178493464
 20
0.7011342300306751
 30
0.0
 11
2.7988650159356889
 21
3.2499997281170181
 31
0.0
  0
LINE
  5
38B
  8
0
 62
     0
 10
15.9518265977731009
 20
17.7499997281149717
 30
0.0
 11
19.2018265977724205
 21
20.9999997281142896
 31
0.0
  0
LINE
  5
38C
  8
0
 62
     0
 10
0.249999517849119
 20
2.0481726481909841
 30
0.0
 11
1.6140664359222681
 21
3.4122395662641329
 31
0.0
  0
LINE
  5
38D
  8
0
 62
     0
 10
14.6047881796130206
 20
17.7499997281151991
 30
0.0
 11
17.8547881796123384
 21
20.9999997281145205
 31
0.0
  0
LINE
  5
38E
  8
0
 62
     0
 10
0.2499995178493464
 20
3.3952110663515209
 30
0.0
 11
0.7854035165316873
 21
3.9306150650338618
 31
0.0
  0
LINE
  5
38F
  8
0
 62
     0
 10
13.2577497614529403
 20
17.7499997281154194
 30
0.0
 11
16.507749761452029
 21
20.9999997281145205
 31
0.0
  0
LINE
  5
390
  8
0
 62
     0
 10
11.91071134329286
 20
17.7499997281158812
 30
0.0
 11
15.1607113432919505
 21
20.9999997281149717
 31
0.0
  0
LINE
  5
391
  8
0
 62
     0
 10
10.5636729251327797
 20
17.7499997281161086
 30
0.0
 11
13.8136729251318702
 21
20.9999997281151991
 31
0.0
  0
LINE
  5
392
  8
0
 62
     0
 10
9.2166345069726958
 20
17.7499997281163289
 30
0.0
 11
12.4666345069720101
 21
20.9999997281156503
 31
0.0
  0
LINE
  5
393
  8
0
 62
     0
 10
7.8695960888128411
 20
17.7499997281167907
 30
0.0
 11
11.1195960888119298
 21
20.9999997281158812
 31
0.0
  0
LINE
  5
394
  8
0
 62
     0
 10
6.5225576706525308
 20
17.7499997281170216
 30
0.0
 11
9.7725576706518495
 21
20.9999997281163395
 31
0.0
  0
LINE
  5
395
  8
0
 62
     0
 10
5.1755192524924487
 20
17.7499997281172384
 30
0.0
 11
8.4255192524917675
 21
20.9999997281165598
 31
0.0
  0
LINE
  5
396
  8
0
 62
     0
 10
3.828480834332594
 20
17.7499997281177002
 30
0.0
 11
7.078480834331458
 21
20.9999997281165598
 31
0.0
  0
LINE
  5
397
  8
0
 62
     0
 10
2.4814424161725119
 20
17.7499997281181514
 30
0.0
 11
5.7314424161716033
 21
20.9999997281172384
 31
0.0
  0
LINE
  5
398
  8
0
 62
     0
 10
1.072066431967414
 20
17.6876621620733587
 30
0.0
 11
4.3844039980115213
 21
20.9999997281174693
 31
0.0
  0
LINE
  5
399
  8
0
 62
     0
 10
0.2499995178495737
 20
18.2126336661158312
 30
0.0
 11
3.0373655798514392
 21
20.9999997281177002
 31
0.0
  0
LINE
  5
39A
  8
0
 62
     0
 10
0.2499995178493464
 20
19.5596720842759204
 30
0.0
 11
1.6903271616913571
 21
20.9999997281179311
 31
0.0
  0
ENDBLK
  5
39C
  8
0
  0
BLOCK
  8
0
  2
*U3
 70
     1
 10
0.0
 20
0.0
 30
0.0
  3
*U3
  1

  0
ARC
  5
39E
  8
0
 10
77.6979650299633704
 20
10.5944118496232704
 30
0.0
 40
0.2499999999995599
 50
134.9999999999631086
 51
225.0000000001105889
  0
LINE
  5
39F
  8
0
 10
77.5211883346673858
 20
10.4176351543266001
 30
0.0
 11
77.7499995178495737
 21
10.1888239711445294
 31
0.0
  0
LINE
  5
3A0
  8
0
 10
77.7499995178495737
 20
10.1888239711445294
 30
0.0
 11
77.7499995178495737
 21
5.749999728098941
 31
0.0
  0
ARC
  5
3A1
  8
0
 10
75.249999517849119
 20
5.749999728101101
 30
0.0
 40
2.5000000000001128
 50
270.0
 51
359.9999999999504894
  0
LINE
  5
3A2
  8
0
 10
75.249999517849119
 20
3.2499997281009878
 30
0.0
 11
42.499999517849119
 21
3.2499997281084911
 31
0.0
  0
ARC
  5
3A3
  8
0
 10
42.499999517849119
 20
5.749999728108377
 30
0.0
 40
2.5
 50
180.0
 51
270.0000000000026148
  0
LINE
  5
3A4
  8
0
 10
39.999999517849119
 20
5.7499997281084907
 30
0.0
 11
39.9999995178486714
 21
16.2499997281098487
 31
0.0
  0
ARC
  5
3A5
  8
0
 10
41.499999517849119
 20
16.2499997281092909
 30
0.0
 40
1.500000000000568
 50
89.999999999991303
 51
179.9999999999695888
  0
LINE
  5
3A6
  8
0
 10
41.4999995178493393
 20
17.7499997281098487
 30
0.0
 11
76.249999517849119
 21
17.7499997281007609
 31
0.0
  0
ARC
  5
3A7
  8
0
 10
76.249999517849119
 20
16.2499997281009882
 30
0.0
 40
1.499999999999772
 50
0.0
 51
89.9999999999652687
  0
LINE
  5
3A8
  8
0
 10
77.7499995178488916
 20
16.2499997281019013
 30
0.0
 11
77.7499995178479821
 21
11.8111754850562001
 31
0.0
  0
LINE
  5
3A9
  8
0
 10
77.7499995178479821
 20
11.8111754850562001
 30
0.0
 11
77.5211883346673858
 21
11.5823643018758204
 31
0.0
  0
ARC
  5
3AA
  8
0
 10
77.6979650299642657
 20
11.4055876065791608
 30
0.0
 40
0.250000000000203
 50
135.0000000000368061
 51
224.9999999998894964
  0
LINE
  5
3AB
  8
0
 10
77.5211883346671584
 20
11.2288109112827197
 30
0.0
 11
77.7499995178481953
 21
10.9999997281012103
 31
0.0
  0
LINE
  5
3AC
  8
0
 10
77.7499995178481953
 20
10.9999997281012103
 30
0.0
 11
77.5211883346671584
 21
10.7711885449197098
 31
0.0
  0
ARC
  5
3AD
  8
0
 10
0.499999517849119
 20
20.7499997281180413
 30
0.0
 40
0.25
 50
90.0
 51
180.0
  0
LINE
  5
3AE
  8
0
 10
0.2499995178493464
 20
17.6861403897515785
 30
0.0
 11
0.249999517849119
 21
20.7499997281180413
 31
0.0
  0
ARC
  5
3AF
  8
0
 10
0.4999995178493464
 20
17.686140389751241
 30
0.0
 40
0.2499999999998552
 50
179.9999999999218119
 51
304.8499045790455853
  0
ARC
  5
3B0
  8
0
 10
1.4999995178509371
 20
16.2499997281186097
 30
0.0
 40
1.4999999999994309
 50
90.0000000000694911
 51
124.8499045791374016
  0
LINE
  5
3B1
  8
0
 10
36.499999517845481
 20
17.7499997281099695
 30
0.0
 11
1.499999517849119
 21
17.7499997281180413
 31
0.0
  0
ARC
  5
3B2
  8
0
 10
36.4999995178459429
 20
16.2499997281099695
 30
0.0
 40
1.5
 50
0.0
 51
90.0000000000304254
  0
LINE
  5
3B3
  8
0
 10
37.9999995178463905
 20
5.7499997281094011
 30
0.0
 11
37.9999995178459429
 21
16.2499997281096284
 31
0.0
  0
ARC
  5
3B4
  8
0
 10
35.4999995178461702
 20
5.7499997281104243
 30
0.0
 40
2.5000000000003411
 50
269.9999999999844249
 51
359.9999999999765805
  0
LINE
  5
3B5
  8
0
 10
2.499999517849119
 20
3.2499997281171309
 30
0.0
 11
35.499999517845481
 21
3.2499997281100832
 31
0.0
  0
ARC
  5
3B6
  8
0
 10
2.4999995178488912
 20
5.7499997281151991
 30
0.0
 40
2.4999999999981051
 50
223.3417582272012112
 51
270.0000000000051728
  0
ARC
  5
3B7
  8
0
 10
0.4999995178493464
 20
3.8625411192992938
 30
0.0
 40
0.2500000000002274
 50
43.3417582272702475
 51
180.0
  0
LINE
  5
3B8
  8
0
 10
0.249999517849119
 20
0.2499997281180413
 30
0.0
 11
0.249999517849119
 21
3.862541119299407
 31
0.0
  0
ARC
  5
3B9
  8
0
 10
0.499999517849119
 20
0.2499997281179276
 30
0.0
 40
0.2499999999998863
 50
179.9999999999739089
 51
270.0
  0
LINE
  5
3BA
  8
0
 10
85.7499995178488916
 20
-0.000000271900376
 30
0.0
 11
0.499999517849119
 21
-0.0000002718819587
 31
0.0
  0
ARC
  5
3BB
  8
0
 10
85.7499995178488916
 20
0.4999997280998514
 30
0.0
 40
0.5000000000002274
 50
270.0000000000521254
 51
0.0
  0
LINE
  5
3BC
  8
0
 10
86.249999517849119
 20
2.7499997280993962
 30
0.0
 11
86.249999517849119
 21
0.4999997280993967
 31
0.0
  0
ARC
  5
3BD
  8
0
 10
85.7499995178536665
 20
2.7499997280956441
 30
0.0
 40
0.4999999999955663
 50
0.0000000004299092
 51
90.0000000005210836
  0
LINE
  5
3BE
  8
0
 10
82.2499995178495737
 20
3.2499997281000779
 30
0.0
 11
85.749999517849119
 21
3.2499997280912112
 31
0.0
  0
ARC
  5
3BF
  8
0
 10
82.2499995178493464
 20
5.7499997281003061
 30
0.0
 40
2.5000000000002269
 50
180.0
 51
270.0000000000051728
  0
LINE
  5
3C0
  8
0
 10
79.749999517849119
 20
11.79999972809685
 30
0.0
 11
79.749999517849119
 21
5.7499997281003061
 31
0.0
  0
ARC
  5
3C1
  8
0
 10
81.7499995178488774
 20
11.7999997280961697
 30
0.0
 40
1.999999999999772
 50
89.9999999999934914
 51
179.999999999980389
  0
LINE
  5
3C2
  8
0
 10
86.0499995178488462
 20
13.7999997280952602
 30
0.0
 11
81.7499995178491048
 21
13.7999997280959406
 31
0.0
  0
ARC
  5
3C3
  8
0
 10
86.0499995178483772
 20
13.9999997280959807
 30
0.0
 40
0.2000000000007276
 50
270.0000000000651994
 51
0.0
  0
LINE
  5
3C4
  8
0
 10
86.249999517849119
 20
14.9999997280998496
 30
0.0
 11
86.249999517849119
 21
13.9999997280962099
 31
0.0
  0
ARC
  5
3C5
  8
0
 10
85.4499995178484824
 20
14.9999997280986008
 30
0.0
 40
0.8000000000005228
 50
0.0000000000895644
 51
89.9999999999348574
  0
LINE
  5
3C6
  8
0
 10
79.9499995178473455
 20
15.7999997281004898
 30
0.0
 11
85.4499995178493919
 21
15.7999997280991202
 31
0.0
  0
ARC
  5
3C7
  8
0
 10
79.9499995178473455
 20
15.9999997281005299
 30
0.0
 40
0.2000000000000455
 50
180.0
 51
269.9999999999349143
  0
LINE
  5
3C8
  8
0
 10
79.7499995178477548
 20
17.4860544272570415
 30
0.0
 11
79.7499995178473
 21
15.9999997281003008
 31
0.0
  0
ARC
  5
3C9
  8
0
 10
79.9499995178478002
 20
17.4860544272576099
 30
0.0
 40
0.200000000000158
 50
99.9999999999574953
 51
180.0000000001627996
  0
LINE
  5
3CA
  8
0
 10
86.0847291533825683
 20
18.7708581037312605
 30
0.0
 11
79.9152698823145329
 21
17.6830159778602294
 31
0.0
  0
ARC
  5
3CB
  8
0
 10
86.0499995178495141
 20
18.9678196543333115
 30
0.0
 40
0.1999999999995907
 50
279.9999999999216129
 51
0.0
  0
LINE
  5
3CC
  8
0
 10
86.2499995178495737
 20
20.7999997280991309
 30
0.0
 11
86.249999517849119
 21
18.9678196543333115
 31
0.0
  0
ARC
  5
3CD
  8
0
 10
86.0499995178493151
 20
20.7999997280991309
 30
0.0
 40
0.2000000000002728
 50
0.0
 51
90.0
  0
LINE
  5
3CE
  8
0
 10
0.499999517849119
 20
20.9999997281180413
 30
0.0
 11
86.0499995178493151
 21
20.9999997280994002
 31
0.0
  0
ENDBLK
  5
3D0
  8
0
  0
ENDSEC
  0
SECTION
  2
ENTITIES
  0
LINE
  5
279
  8
0
 10
2265.5339829103459124
 20
1600.0292304544050239
 30
0.0
 11
2265.5339829103459124
 21
1600.0292304544050239
 31
0.0
  0
ARC
  5
27D
  8
0
 10
2303.2319484224608459
 20
1599.6236425759188933
 30
0.0
 40
0.2499999999995599
 50
134.9999999999631086
 51
225.0000000001105889
  0
LINE
  5
27E
  8
0
 10
2303.0551717271650887
 20
1599.4468658806219992
 30
0.0
 11
2303.2839829103468219
 21
1599.2180546974409481
 31
0.0
  0
LINE
  5
27F
  8
0
 10
2303.2839829103468219
 20
1599.2180546974409481
 30
0.0
 11
2303.2839829103468219
 21
1594.7792304543950195
 31
0.0
  0
ARC
  5
280
  8
0
 10
2300.7839829103459124
 20
1594.7792304543970658
 30
0.0
 40
2.5000000000001128
 50
270.0
 51
359.9999999999504894
  0
LINE
  5
281
  8
0
 10
2300.7839829103459124
 20
1592.2792304543970658
 30
0.0
 11
2268.0339829103459124
 21
1592.2792304544038871
 31
0.0
  0
ARC
  5
282
  8
0
 10
2268.0339829103459124
 20
1594.7792304544050239
 30
0.0
 40
2.5
 50
180.0
 51
270.0000000000026148
  0
LINE
  5
283
  8
0
 10
2265.5339829103459124
 20
1594.7792304544050239
 30
0.0
 11
2265.5339829103459124
 21
1605.2792304544059334
 31
0.0
  0
ARC
  5
284
  8
0
 10
2267.0339829103459124
 20
1605.2792304544050239
 30
0.0
 40
1.500000000000568
 50
89.999999999991303
 51
179.9999999999695888
  0
LINE
  5
285
  8
0
 10
2267.0339829103468219
 20
1606.7792304544059334
 30
0.0
 11
2301.7839829103468219
 21
1606.7792304543970658
 31
0.0
  0
ARC
  5
286
  8
0
 10
2301.7839829103468219
 20
1605.2792304543970658
 30
0.0
 40
1.499999999999772
 50
0.0
 51
89.9999999999652687
  0
LINE
  5
287
  8
0
 10
2303.2839829103459124
 20
1605.2792304543979753
 30
0.0
 11
2303.2839829103450029
 21
1600.8404062113520467
 31
0.0
  0
LINE
  5
288
  8
0
 10
2303.2839829103450029
 20
1600.8404062113520467
 30
0.0
 11
2303.0551717271650887
 21
1600.6115950281719051
 31
0.0
  0
ARC
  5
289
  8
0
 10
2303.2319484224622101
 20
1600.434818332875011
 30
0.0
 40
0.250000000000203
 50
135.0000000000368061
 51
224.9999999998894964
  0
LINE
  5
28A
  8
0
 10
2303.0551717271650887
 20
1600.2580416375790264
 30
0.0
 11
2303.2839829103450029
 21
1600.0292304543970658
 31
0.0
  0
LINE
  5
28B
  8
0
 10
2303.2839829103450029
 20
1600.0292304543970658
 30
0.0
 11
2303.0551717271650887
 21
1599.8004192712160147
 31
0.0
  0
ARC
  5
28C
  8
0
 10
2226.0339829103468219
 20
1609.7792304544138915
 30
0.0
 40
0.25
 50
90.0
 51
180.0
  0
LINE
  5
28D
  8
0
 10
2225.7839829103468219
 20
1606.7153711160469811
 30
0.0
 11
2225.7839829103459124
 21
1609.7792304544138915
 31
0.0
  0
ARC
  5
28E
  8
0
 10
2226.0339829103468219
 20
1606.7153711160469811
 30
0.0
 40
0.2499999999998552
 50
179.9999999999218119
 51
304.8499045790455853
  0
ARC
  5
28F
  8
0
 10
2227.0339829103481861
 20
1605.2792304544150284
 30
0.0
 40
1.4999999999994309
 50
90.0000000000694911
 51
124.8499045791374016
  0
LINE
  5
290
  8
0
 10
2262.0339829103431839
 20
1606.7792304544059334
 30
0.0
 11
2227.0339829103459124
 21
1606.7792304544138915
 31
0.0
  0
ARC
  5
291
  8
0
 10
2262.0339829103431839
 20
1605.2792304544059334
 30
0.0
 40
1.5
 50
0.0
 51
90.0000000000304254
  0
LINE
  5
292
  8
0
 10
2263.5339829103440934
 20
1594.7792304544050239
 30
0.0
 11
2263.5339829103440934
 21
1605.2792304544059334
 31
0.0
  0
ARC
  5
293
  8
0
 10
2261.0339829103431839
 20
1594.7792304544059334
 30
0.0
 40
2.5000000000003411
 50
269.9999999999844249
 51
359.9999999999765805
  0
LINE
  5
294
  8
0
 10
2228.0339829103459124
 20
1592.279230454412982
 30
0.0
 11
2261.0339829103431839
 21
1592.2792304544059334
 31
0.0
  0
ARC
  5
295
  8
0
 10
2228.0339829103459124
 20
1594.7792304544109356
 30
0.0
 40
2.4999999999981051
 50
223.3417582272012112
 51
270.0000000000051728
  0
ARC
  5
296
  8
0
 10
2226.0339829103468219
 20
1592.8917718455950308
 30
0.0
 40
0.2500000000002274
 50
43.3417582272702475
 51
180.0
  0
LINE
  5
297
  8
0
 10
2225.7839829103459124
 20
1589.2792304544138915
 30
0.0
 11
2225.7839829103459124
 21
1592.8917718455950308
 31
0.0
  0
ARC
  5
298
  8
0
 10
2226.0339829103468219
 20
1589.2792304544138915
 30
0.0
 40
0.2499999999998863
 50
179.9999999999739089
 51
270.0
  0
LINE
  5
299
  8
0
 10
2311.2839829103459124
 20
1589.029230454395929
 30
0.0
 11
2226.0339829103468219
 21
1589.0292304544138915
 31
0.0
  0
ARC
  5
29A
  8
0
 10
2311.2839829103459124
 20
1589.529230454395929
 30
0.0
 40
0.5000000000002274
 50
270.0000000000521254
 51
0.0
  0
LINE
  5
29B
  8
0
 10
2311.7839829103468219
 20
1591.7792304543950195
 30
0.0
 11
2311.7839829103468219
 21
1589.5292304543950195
 31
0.0
  0
ARC
  5
29C
  8
0
 10
2311.2839829103509146
 20
1591.7792304543920636
 30
0.0
 40
0.4999999999955663
 50
0.0000000004299092
 51
90.0000000005210836
  0
LINE
  5
29D
  8
0
 10
2307.7839829103468219
 20
1592.279230454395929
 30
0.0
 11
2311.2839829103459124
 21
1592.2792304543870614
 31
0.0
  0
ARC
  5
29E
  8
0
 10
2307.7839829103468219
 20
1594.779230454395929
 30
0.0
 40
2.5000000000002269
 50
180.0
 51
270.0000000000051728
  0
LINE
  5
29F
  8
0
 10
2305.2839829103468219
 20
1600.8292304543929276
 30
0.0
 11
2305.2839829103468219
 21
1594.779230454395929
 31
0.0
  0
ARC
  5
2A0
  8
0
 10
2307.2839829103459124
 20
1600.8292304543920181
 30
0.0
 40
1.999999999999772
 50
89.9999999999934914
 51
179.999999999980389
  0
LINE
  5
2A1
  8
0
 10
2311.5839829103460943
 20
1602.8292304543920181
 30
0.0
 11
2307.2839829103459124
 21
1602.8292304543920181
 31
0.0
  0
ARC
  5
2A2
  8
0
 10
2311.5839829103460943
 20
1603.0292304543920636
 30
0.0
 40
0.2000000000007276
 50
270.0000000000651994
 51
0.0
  0
LINE
  5
2A3
  8
0
 10
2311.7839829103468219
 20
1604.029230454395929
 30
0.0
 11
2311.7839829103468219
 21
1603.0292304543920636
 31
0.0
  0
ARC
  5
2A4
  8
0
 10
2310.9839829103461852
 20
1604.0292304543950195
 30
0.0
 40
0.8000000000005228
 50
0.0000000000895644
 51
89.9999999999348574
  0
LINE
  5
2A5
  8
0
 10
2305.483982910344821
 20
1604.8292304543961109
 30
0.0
 11
2310.9839829103470947
 21
1604.829230454394974
 31
0.0
  0
ARC
  5
2A6
  8
0
 10
2305.483982910344821
 20
1605.0292304543970658
 30
0.0
 40
0.2000000000000455
 50
180.0
 51
269.9999999999349143
  0
LINE
  5
2A7
  8
0
 10
2305.2839829103450029
 20
1606.5152851535528953
 30
0.0
 11
2305.2839829103440934
 21
1605.029230454395929
 31
0.0
  0
ARC
  5
2A8
  8
0
 10
2305.483982910344821
 20
1606.5152851535540321
 30
0.0
 40
0.200000000000158
 50
99.9999999999574953
 51
180.0000000001627996
  0
LINE
  5
2A9
  8
0
 10
2311.6187125458800438
 20
1607.8000888300280167
 30
0.0
 11
2305.449253274811781
 21
1606.7122467041560867
 31
0.0
  0
ARC
  5
2AA
  8
0
 10
2311.5839829103470038
 20
1607.9970503806289344
 30
0.0
 40
0.1999999999995907
 50
279.9999999999216129
 51
0.0
  0
LINE
  5
2AB
  8
0
 10
2311.7839829103468219
 20
1609.829230454394974
 30
0.0
 11
2311.7839829103468219
 21
1607.9970503806289344
 31
0.0
  0
ARC
  5
2AC
  8
0
 10
2311.5839829103470038
 20
1609.829230454394974
 30
0.0
 40
0.2000000000002728
 50
0.0
 51
90.0
  0
LINE
  5
2AD
  8
0
 10
2226.0339829103468219
 20
1610.0292304544138915
 30
0.0
 11
2311.5839829103470038
 21
1610.0292304543950195
 31
0.0
  0
ENDSEC
  0
EOF
