  0
SECTION
  2
HEADER
  9
$ACADVER
  1
AC1009
  9
$INSBASE
 10
0.0
 20
0.0
 30
0.0
  9
$EXTMIN
 10
2.5720860297101349
 20
2.7208730344980259
 30
-0.0015258207003583
  9
$EXTMAX
 10
64.3897260749304223
 20
64.1263159588879716
 30
0.0000000349246037
  9
$LIMMIN
 10
0.0
 20
0.0
  9
$LIMMAX
 10
420.0
 20
297.0
  9
$ORTHOMODE
 70
     0
  9
$REGENMODE
 70
     1
  9
$FILLMODE
 70
     1
  9
$QTEXTMODE
 70
     0
  9
$MIRRTEXT
 70
     0
  9
$DRAGMODE
 70
     2
  9
$LTSCALE
 40
1.0
  9
$OSMODE
 70
  4095
  9
$ATTMODE
 70
     1
  9
$TEXTSIZE
 40
2.5
  9
$TRACEWID
 40
1.0
  9
$TEXTSTYLE
  7
STANDARD
  9
$CLAYER
  8
0
  9
$CELTYPE
  6
BYLAYER
  9
$CECOLOR
 62
   256
  9
$DIMSCALE
 40
1.0
  9
$DIMASZ
 40
2.5
  9
$DIMEXO
 40
0.625
  9
$DIMDLI
 40
3.75
  9
$DIMRND
 40
0.0
  9
$DIMDLE
 40
0.0
  9
$DIMEXE
 40
1.25
  9
$DIMTP
 40
0.0
  9
$DIMTM
 40
0.0
  9
$DIMTXT
 40
2.5
  9
$DIMCEN
 40
2.5
  9
$DIMTSZ
 40
0.0
  9
$DIMTOL
 70
     0
  9
$DIMLIM
 70
     0
  9
$DIMTIH
 70
     0
  9
$DIMTOH
 70
     0
  9
$DIMSE1
 70
     0
  9
$DIMSE2
 70
     0
  9
$DIMTAD
 70
     1
  9
$DIMZIN
 70
     8
  9
$DIMBLK
  1

  9
$DIMASO
 70
     1
  9
$DIMSHO
 70
     1
  9
$DIMPOST
  1

  9
$DIMAPOST
  1

  9
$DIMALT
 70
     0
  9
$DIMALTD
 70
     3
  9
$DIMALTF
 40
0.03937007874016
  9
$DIMLFAC
 40
1.0
  9
$DIMTOFL
 70
     1
  9
$DIMTVP
 40
0.0
  9
$DIMTIX
 70
     0
  9
$DIMSOXD
 70
     0
  9
$DIMSAH
 70
     0
  9
$DIMBLK1
  1

  9
$DIMBLK2
  1

  9
$DIMSTYLE
  2
ISO-25
  9
$DIMCLRD
 70
     0
  9
$DIMCLRE
 70
     0
  9
$DIMCLRT
 70
     0
  9
$DIMTFAC
 40
1.0
  9
$DIMGAP
 40
0.625
  9
$LUNITS
 70
     2
  9
$LUPREC
 70
     4
  9
$SKETCHINC
 40
1.0
  9
$FILLETRAD
 40
0.0
  9
$AUNITS
 70
     0
  9
$AUPREC
 70
     0
  9
$MENU
  1
.
  9
$ELEVATION
 40
0.0
  9
$PELEVATION
 40
0.0
  9
$THICKNESS
 40
0.0
  9
$LIMCHECK
 70
     0
  9
$BLIPMODE
 70
     0
  9
$CHAMFERA
 40
0.0
  9
$CHAMFERB
 40
0.0
  9
$SKPOLY
 70
     0
  9
$TDCREATE
 40
2458883.5307407411746681
  9
$TDUPDATE
 40
2458883.5312268519774079
  9
$TDINDWG
 40
0.0004976852
  9
$TDUSRTIMER
 40
0.0004976852
  9
$USRTIMER
 70
     1
  9
$ANGBASE
 50
0.0
  9
$ANGDIR
 70
     0
  9
$PDMODE
 70
     0
  9
$PDSIZE
 40
0.0
  9
$PLINEWID
 40
0.0
  9
$COORDS
 70
     1
  9
$SPLFRAME
 70
     0
  9
$SPLINETYPE
 70
     6
  9
$SPLINESEGS
 70
     8
  9
$ATTDIA
 70
     1
  9
$ATTREQ
 70
     1
  9
$HANDLING
 70
     1
  9
$HANDSEED
  5
3DE
  9
$SURFTAB1
 70
     6
  9
$SURFTAB2
 70
     6
  9
$SURFTYPE
 70
     6
  9
$SURFU
 70
     6
  9
$SURFV
 70
     6
  9
$UCSNAME
  2

  9
$UCSORG
 10
0.0
 20
0.0
 30
0.0
  9
$UCSXDIR
 10
1.0
 20
0.0
 30
0.0
  9
$UCSYDIR
 10
0.0
 20
1.0
 30
0.0
  9
$PUCSNAME
  2

  9
$PUCSORG
 10
0.0
 20
0.0
 30
0.0
  9
$PUCSXDIR
 10
1.0
 20
0.0
 30
0.0
  9
$PUCSYDIR
 10
0.0
 20
1.0
 30
0.0
  9
$USERI1
 70
     0
  9
$USERI2
 70
     0
  9
$USERI3
 70
     0
  9
$USERI4
 70
     0
  9
$USERI5
 70
     0
  9
$USERR1
 40
0.0
  9
$USERR2
 40
0.0
  9
$USERR3
 40
0.0
  9
$USERR4
 40
0.0
  9
$USERR5
 40
0.0
  9
$WORLDVIEW
 70
     1
  9
$SHADEDGE
 70
     3
  9
$SHADEDIF
 70
    70
  9
$TILEMODE
 70
     1
  9
$MAXACTVP
 70
    64
  9
$PLIMCHECK
 70
     0
  9
$PEXTMIN
 10
0.0
 20
0.0
 30
0.0
  9
$PEXTMAX
 10
0.0
 20
0.0
 30
0.0
  9
$PLIMMIN
 10
0.0
 20
0.0
  9
$PLIMMAX
 10
12.0
 20
9.0
  9
$UNITMODE
 70
     0
  9
$VISRETAIN
 70
     1
  9
$PLINEGEN
 70
     0
  9
$PSLTSCALE
 70
     1
  0
ENDSEC
  0
SECTION
  2
TABLES
  0
TABLE
  2
VPORT
 70
     1
  0
VPORT
  2
*ACTIVE
 70
     0
 10
0.0
 20
0.0
 11
1.0
 21
1.0
 12
33.4809060523202717
 22
33.4235944966929992
 13
0.0
 23
0.0
 14
10.0
 24
10.0
 15
10.0
 25
10.0
 16
0.0
 26
0.0
 36
1.0
 17
0.0
 27
0.0
 37
0.0
 40
61.8940804012418511
 41
2.1872509960159361
 42
50.0
 43
0.0
 44
0.0
 50
0.0
 51
0.0
 71
     0
 72
  1000
 73
     1
 74
     3
 75
     0
 76
     0
 77
     0
 78
     0
  0
ENDTAB
  0
TABLE
  2
LTYPE
 70
     1
  0
LTYPE
  2
CONTINUOUS
 70
     0
  3
Solid line
 72
    65
 73
     0
 40
0.0
  0
ENDTAB
  0
TABLE
  2
LAYER
 70
     1
  0
LAYER
  2
0
 70
     0
 62
     7
  6
CONTINUOUS
  0
ENDTAB
  0
TABLE
  2
STYLE
 70
     3
  0
STYLE
  2
STANDARD
 70
     0
 40
0.0
 41
1.0
 50
0.0
 71
     0
 42
2.5
  3
txt
  4

  0
STYLE
  2
ANNOTATIVE
 70
     0
 40
0.0
 41
1.0
 50
0.0
 71
     0
 42
2.5
  3
txt
  4

  0
STYLE
  2
ROMANT
 70
     0
 40
2.2000000000000002
 41
1.0
 50
0.0
 71
     0
 42
2.5
  3
romant.shx
  4

  0
ENDTAB
  0
TABLE
  2
VIEW
 70
     0
  0
ENDTAB
  0
TABLE
  2
UCS
 70
     0
  0
ENDTAB
  0
TABLE
  2
APPID
 70
     8
  0
APPID
  2
ACAD
 70
     0
  0
APPID
  2
ACAD_PSEXT
 70
     0
  0
APPID
  2
ACADANNOPO
 70
     0
  0
APPID
  2
ACADANNOTATIVE
 70
     0
  0
APPID
  2
ACAD_DSTYLE_DIMJAG
 70
     0
  0
APPID
  2
ACAD_DSTYLE_DIMTALN
 70
     0
  0
APPID
  2
ACAD_MLEADERVER
 70
     0
  0
APPID
  2
ACAD_NAV_VCDISPLAY
 70
     0
  0
ENDTAB
  0
TABLE
  2
DIMSTYLE
 70
     4
  0
DIMSTYLE
  2
STANDARD
 70
     0
  3

  4

  5

  6

  7

 40
1.0
 41
0.18
 42
0.0625
 43
0.38
 44
0.18
 45
0.0
 46
0.0
 47
0.0
 48
0.0
140
0.18
141
0.09
142
0.0
143
25.3999999999999986
144
1.0
145
0.0
146
1.0
147
0.09
 71
     0
 72
     0
 73
     1
 74
     1
 75
     0
 76
     0
 77
     0
 78
     0
170
     0
171
     2
172
     0
173
     0
174
     0
175
     0
176
     0
177
     0
178
     0
  0
DIMSTYLE
  2
ANNOTATIVE
 70
     0
  3

  4

  5

  6

  7

 40
0.0
 41
2.5
 42
0.625
 43
3.75
 44
1.25
 45
0.0
 46
0.0
 47
0.0
 48
0.0
140
2.5
141
2.5
142
0.0
143
0.03937007874016
144
1.0
145
0.0
146
1.0
147
0.625
 71
     0
 72
     0
 73
     0
 74
     0
 75
     0
 76
     0
 77
     1
 78
     8
170
     0
171
     3
172
     1
173
     0
174
     0
175
     0
176
     0
177
     0
178
     0
  0
DIMSTYLE
  2
ISO-25
 70
     0
  3

  4

  5

  6

  7

 40
1.0
 41
2.5
 42
0.625
 43
3.75
 44
1.25
 45
0.0
 46
0.0
 47
0.0
 48
0.0
140
2.5
141
2.5
142
0.0
143
0.03937007874016
144
1.0
145
0.0
146
1.0
147
0.625
 71
     0
 72
     0
 73
     0
 74
     0
 75
     0
 76
     0
 77
     1
 78
     8
170
     0
171
     3
172
     1
173
     0
174
     0
175
     0
176
     0
177
     0
178
     0
  0
DIMSTYLE
  2
MELÝH_A3
 70
     0
  3

  4

  5

  6

  7

 40
1.0
 41
1.3
 42
0.0
 43
3.75
 44
0.2
 45
0.0
 46
0.0
 47
0.0
 48
0.0
140
1.0
141
0.2
142
0.0
143
0.03937007874016
144
1.0
145
0.0
146
1.0
147
0.7
 71
     0
 72
     0
 73
     0
 74
     0
 75
     0
 76
     0
 77
     1
 78
     8
170
     0
171
     3
172
     0
173
     0
174
     0
175
     0
176
   242
177
   242
178
   242
  0
ENDTAB
  0
ENDSEC
  0
SECTION
  2
BLOCKS
  0
BLOCK
  8
0
  2
$MODEL_SPACE
 70
     0
 10
0.0
 20
0.0
 30
0.0
  3
$MODEL_SPACE
  1

  0
ENDBLK
  5
21
  8
0
  0
BLOCK
 67
     1
  8
0
  2
$PAPER_SPACE
 70
     0
 10
0.0
 20
0.0
 30
0.0
  3
$PAPER_SPACE
  1

  0
ENDBLK
  5
D5
 67
     1
  8
0
  0
BLOCK
  8
0
  2
*U2
 70
     1
 10
0.0
 20
0.0
 30
0.0
  3
*U2
  1

  0
LINE
  5
353
  8
0
 10
22.999999205077529
 20
57.19999993897477
 30
0.0
 11
25.599999205077669
 21
57.19999993897477
 31
0.0
  0
ARC
  5
354
  8
0
 10
25.599999205077669
 20
57.4499999389746492
 30
0.0
 40
0.2499999999998863
 50
270.0
 51
0.0000000000260592
  0
LINE
  5
355
  8
0
 10
25.849999205077669
 20
57.44999993897477
 30
0.0
 11
25.849999205077669
 21
60.9721119766748032
 31
0.0
  0
ARC
  5
356
  8
0
 10
25.3499992050815308
 20
60.9721119766720605
 30
0.0
 40
0.4999999999961347
 50
0.0
 51
100.6754693325501933
  0
ARC
  5
357
  8
0
 10
30.99999920507776
 20
30.9999999389745007
 30
0.0
 40
31.0000000000002807
 50
100.6754693325012937
 51
173.1688797851176957
  0
ARC
  5
358
  8
0
 10
0.7165171648098294
 20
34.6277699863717316
 30
0.0
 40
0.5000000000000379
 50
173.1688797851302013
 51
240.0000000000318039
  0
LINE
  5
359
  8
0
 10
0.4665171648100568
 20
34.1947572844793513
 30
0.0
 11
3.718910291832116
 21
32.3169872370825715
 31
0.0
  0
ARC
  5
35A
  8
0
 10
3.968910291832116
 20
32.7499999389754066
 30
0.0
 40
0.5000000000005334
 50
240.0000000000351861
 51
269.9999999999998863
  0
LINE
  5
35B
  8
0
 10
3.968910291832116
 20
32.2499999389748382
 30
0.0
 11
4.1909939535751164
 21
32.2499999389747316
 31
0.0
  0
ARC
  5
35C
  8
0
 10
4.1909939535669301
 20
32.4999999389697294
 30
0.0
 40
0.2499999999949978
 50
270.0000000018758897
 51
320.3349870942981283
  0
ARC
  5
35D
  8
0
 10
5.999999205077529
 20
30.9999999389812118
 30
0.0
 40
2.0999999999959909
 50
219.6650129078884106
 51
140.3349870923848925
  0
ARC
  5
35E
  8
0
 10
4.1909939535751164
 20
29.4999999389740388
 30
0.0
 40
0.2500000000007398
 50
39.6650129078601807
 51
89.9999999999478888
  0
LINE
  5
35F
  8
0
 10
4.1909939535753429
 20
29.7499999389747316
 30
0.0
 11
3.968910291832116
 21
29.7499999389749483
 31
0.0
  0
ARC
  5
360
  8
0
 10
3.968910291832116
 20
29.2499999389743905
 30
0.0
 40
0.5000000000005685
 50
90.0
 51
119.9999999999647002
  0
LINE
  5
361
  8
0
 10
3.718910291832116
 20
29.6830126408672186
 30
0.0
 11
0.4665171648098294
 21
27.8052425934703216
 31
0.0
  0
ARC
  5
362
  8
0
 10
0.7165171648093747
 20
27.3722298915785203
 30
0.0
 40
0.4999999999994199
 50
119.9999999999782005
 51
186.8311202149307917
  0
ARC
  5
363
  8
0
 10
30.9999992050581987
 20
30.9999999389934793
 30
0.0
 40
30.9999999999829292
 50
186.8311202149199914
 51
263.883098860241887
  0
ARC
  5
364
  8
0
 10
27.7499992050773017
 20
0.6736500102751961
 30
0.0
 40
0.5000000000002675
 50
263.8830988602329057
 51
359.9999999999608917
  0
LINE
  5
365
  8
0
 10
28.24999920507776
 20
0.673650010274855
 30
0.0
 11
28.249999205077529
 21
2.7499999389748382
 31
0.0
  0
ARC
  5
366
  8
0
 10
27.999999205077529
 20
2.7499999389748382
 30
0.0
 40
0.25
 50
0.0
 51
89.9999999999478888
  0
LINE
  5
367
  8
0
 10
27.99999920507776
 20
2.9999999389748382
 30
0.0
 11
25.749999205077529
 21
2.9999999389748382
 31
0.0
  0
LINE
  5
368
  8
0
 10
25.749999205077529
 20
2.9999999389748382
 30
0.0
 11
25.749999205077529
 21
7.9999999389748382
 31
0.0
  0
LINE
  5
369
  8
0
 10
25.749999205077529
 20
7.9999999389748382
 30
0.0
 11
36.249999205077529
 21
7.9999999389748382
 31
0.0
  0
LINE
  5
36A
  8
0
 10
36.249999205077529
 20
7.9999999389748382
 30
0.0
 11
36.249999205077529
 21
2.9999999389748382
 31
0.0
  0
LINE
  5
36B
  8
0
 10
36.249999205077529
 20
2.9999999389748382
 30
0.0
 11
33.999999205077529
 21
2.9999999389748382
 31
0.0
  0
ARC
  5
36C
  8
0
 10
33.9999992050773017
 20
2.749999938975292
 30
0.0
 40
0.2499999999995452
 50
89.9999999999478888
 51
180.000000000104194
  0
LINE
  5
36D
  8
0
 10
33.7499992050777635
 20
2.7499999389748382
 30
0.0
 11
33.749999205077529
 21
0.673650010274855
 31
0.0
  0
ARC
  5
36E
  8
0
 10
34.2499992050941273
 20
0.6736500102596211
 30
0.0
 40
0.5000000000165983
 50
180.0
 51
276.1169011397922191
  0
ARC
  5
36F
  8
0
 10
30.999999205077529
 20
30.9999999389753
 30
0.0
 40
31.0000000000004405
 50
276.1169011397964255
 51
353.1688797851174968
  0
ARC
  5
370
  8
0
 10
61.2834812453447668
 20
27.372229891577831
 30
0.0
 40
0.500000000000476
 50
353.1688797851525123
 51
59.999999999970612
  0
LINE
  5
371
  8
0
 10
61.5334812453452287
 20
27.8052425934703216
 30
0.0
 11
58.2810881183227067
 21
29.6830126408673287
 31
0.0
  0
ARC
  5
372
  8
0
 10
58.0310881183227067
 20
29.2499999389745007
 30
0.0
 40
0.5000000000005334
 50
60.0000000000352784
 51
90.0000000000260485
  0
LINE
  5
373
  8
0
 10
58.0310881183224865
 20
29.7499999389750691
 30
0.0
 11
57.8090044565797072
 21
29.7499999389748417
 31
0.0
  0
ARC
  5
374
  8
0
 10
57.8090044565878998
 20
29.4999999389798404
 30
0.0
 40
0.2499999999949978
 50
90.0000000018759465
 51
140.3349870942980999
  0
ARC
  5
375
  8
0
 10
55.999999205077529
 20
30.99999993896893
 30
0.0
 40
2.0999999999961791
 50
39.6650129078732476
 51
320.3349870923689195
  0
ARC
  5
376
  8
0
 10
57.8090044565799417
 20
32.4999999389750727
 30
0.0
 40
0.2500000000002744
 50
219.6650129078132068
 51
270.0
  0
LINE
  5
377
  8
0
 10
57.8090044565799417
 20
32.2499999389748382
 30
0.0
 11
58.0310881183227067
 21
32.2499999389747316
 31
0.0
  0
ARC
  5
378
  8
0
 10
58.0310881183231615
 20
32.7499999389738079
 30
0.0
 40
0.4999999999990905
 50
269.9999999999478746
 51
300.0000000000334239
  0
LINE
  5
379
  8
0
 10
58.2810881183229412
 20
32.3169872370825715
 30
0.0
 11
61.5334812453450013
 21
34.1947572844790102
 31
0.0
  0
ARC
  5
37A
  8
0
 10
61.2834812453445394
 20
34.6277699863715114
 30
0.0
 40
0.5000000000004654
 50
300.000000000029388
 51
6.8311202148765204
  0
ARC
  5
37B
  8
0
 10
30.999999205077529
 20
30.9999999389749483
 30
0.0
 40
30.9999999999998792
 50
6.8311202148813122
 51
79.3245306674989621
  0
ARC
  5
37C
  8
0
 10
36.649999205073982
 20
60.9721119766718402
 30
0.0
 40
0.4999999999962752
 50
79.3245306671955746
 51
179.9999999996612985
  0
LINE
  5
37D
  8
0
 10
36.14999920507762
 20
60.9721119766748032
 30
0.0
 11
36.14999920507762
 21
57.44999993897477
 31
0.0
  0
ARC
  5
37E
  8
0
 10
36.39999920507762
 20
57.44999993897477
 30
0.0
 40
0.25
 50
180.0
 51
269.9999999999478746
  0
LINE
  5
37F
  8
0
 10
36.3999992050773926
 20
57.19999993897477
 30
0.0
 11
38.999999205077529
 21
57.19999993897477
 31
0.0
  0
LINE
  5
380
  8
0
 10
38.999999205077529
 20
57.19999993897477
 30
0.0
 11
38.999999205077529
 21
53.9999999389748382
 31
0.0
  0
LINE
  5
381
  8
0
 10
38.999999205077529
 20
53.9999999389748382
 30
0.0
 11
36.39999920507762
 21
53.9999999389748382
 31
0.0
  0
ARC
  5
382
  8
0
 10
36.3999992050773926
 20
53.7499999389752929
 30
0.0
 40
0.2499999999995452
 50
89.9999999999478888
 51
180.000000000104194
  0
LINE
  5
383
  8
0
 10
36.1499992050778474
 20
53.7499999389748382
 30
0.0
 11
36.14999920507762
 21
51.9612143969748104
 31
0.0
  0
ARC
  5
384
  8
0
 10
38.1499992050773926
 20
51.9612143969748104
 30
0.0
 40
1.999999999999772
 50
180.0
 51
231.3385516619084115
  0
LINE
  5
385
  8
0
 10
36.9005644059507176
 20
50.3995125423525678
 30
0.0
 11
37.49327129317453
 21
49.9253192074821683
 31
0.0
  0
ARC
  5
386
  8
0
 10
37.8056299929578472
 20
50.3157446711370469
 30
0.0
 40
0.5000000000004513
 50
231.3385516617121027
 51
294.9999999995227995
  0
LINE
  5
387
  8
0
 10
38.0169391238246135
 20
49.8625907776165604
 30
0.0
 11
40.1774199754531693
 21
50.8700395440069926
 31
0.0
  0
ARC
  5
388
  8
0
 10
39.9661108445859625
 20
51.3231934375271521
 30
0.0
 40
0.500000000000334
 50
294.999999999586521
 51
17.2335658309796997
  0
ARC
  5
389
  8
0
 10
43.4999992050825313
 20
52.4193836835711409
 30
0.0
 40
3.1999999999961992
 50
272.7664341651578752
 51
197.2335658309181099
  0
ARC
  5
38A
  8
0
 10
43.6785783231950973
 20
48.7236957234591728
 30
0.0
 40
0.4999999999961379
 50
92.7664341647478068
 51
174.9999999962348056
  0
LINE
  5
38B
  8
0
 10
43.1804809741558984
 20
48.7672735948654008
 30
0.0
 11
43.0488892975513409
 21
47.2631738496592106
 31
0.0
  0
ARC
  5
38C
  8
0
 10
43.5469866465939504
 20
47.2195959782563932
 30
0.0
 40
0.4999999999992756
 50
174.9999999966582891
 51
270.5177343705432236
  0
ARC
  5
38D
  8
0
 10
43.4999992050743529
 20
52.4193836835727325
 30
0.0
 40
5.7000000000015083
 50
270.5177343705228168
 51
326.1179792175303191
  0
ARC
  5
38E
  8
0
 10
49.892441127996328
 20
48.1267520592498386
 30
0.0
 40
2.000000000002903
 50
42.1935614560844385
 51
146.1179792183723976
  0
ARC
  5
38F
  8
0
 10
30.9999992050022684
 20
30.9999999389501717
 30
0.0
 40
27.5000000000793214
 50
25.5546971284772688
 51
42.1935614551801805
  0
ARC
  5
390
  8
0
 10
54.0054333457642315
 20
41.9999999389551704
 30
0.0
 40
1.999999999980391
 50
270.0000000003843184
 51
25.5546971288903997
  0
LINE
  5
391
  8
0
 10
54.0054333457776465
 20
39.9999999389748382
 30
0.0
 11
46.0999992050776726
 21
39.9999999389748382
 31
0.0
  0
ARC
  5
392
  8
0
 10
46.099999205077431
 20
39.4999999389753
 30
0.0
 40
0.4999999999995453
 50
89.9999999999739515
 51
180.000000000052097
  0
LINE
  5
393
  8
0
 10
45.5999992050778928
 20
39.4999999389748382
 30
0.0
 11
45.5999992050776584
 21
38.2499999389748382
 31
0.0
  0
ARC
  5
394
  8
0
 10
45.8499992050776584
 20
38.2499999389748382
 30
0.0
 40
0.25
 50
180.0
 51
270.0
  0
LINE
  5
395
  8
0
 10
45.8499992050776584
 20
37.9999999389748382
 30
0.0
 11
47.5999992050776584
 21
37.9999999389748382
 31
0.0
  0
LINE
  5
396
  8
0
 10
47.5999992050776584
 20
37.9999999389748382
 30
0.0
 11
47.5999992050776584
 21
35.9999999389748382
 31
0.0
  0
LINE
  5
397
  8
0
 10
47.5999992050776584
 20
35.9999999389748382
 30
0.0
 11
45.8499992050776584
 21
35.9999999389748382
 31
0.0
  0
ARC
  5
398
  8
0
 10
45.8499992050776584
 20
35.7499999389749519
 30
0.0
 40
0.2499999999998863
 50
90.0
 51
180.0000000000260059
  0
LINE
  5
399
  8
0
 10
45.5999992050776584
 20
35.7499999389748382
 30
0.0
 11
45.5999992050776584
 21
34.4999999389748382
 31
0.0
  0
ARC
  5
39A
  8
0
 10
46.0999992050776726
 20
34.4999999389747316
 30
0.0
 40
0.5
 50
180.0
 51
270.0000000000130171
  0
LINE
  5
39B
  8
0
 10
46.0999992050776726
 20
33.9999999389747174
 30
0.0
 11
48.4660759243774919
 21
33.9999999389748382
 31
0.0
  0
ARC
  5
39C
  8
0
 10
48.4660759243774919
 20
31.9999999389747316
 30
0.0
 40
2.0000000000001128
 50
352.4391568233039038
 51
90.0
  0
ARC
  5
39D
  8
0
 10
55.9999992050929905
 20
30.9999999389592595
 30
0.0
 40
5.599999999982737
 50
172.4391568231534109
 51
275.8595870811590203
  0
ARC
  5
39E
  8
0
 10
56.6737992050743671
 20
24.4344844557805416
 30
0.0
 40
1.000000000004555
 50
345.6552778606268248
 51
95.8595870810624149
  0
ARC
  5
39F
  8
0
 10
30.9999992051407389
 20
30.9999999389521008
 30
0.0
 40
27.4999999999356994
 50
338.6763137364991962
 51
345.6552778608801759
  0
LINE
  5
3A0
  8
0
 10
56.6173761199793191
 20
20.9999999389741596
 30
0.0
 11
53.0999992050776726
 21
20.9999999389748417
 31
0.0
  0
ARC
  5
3A1
  8
0
 10
53.0999992050774381
 20
20.4999999389752894
 30
0.0
 40
0.4999999999995453
 50
89.9999999999739515
 51
180.000000000052097
  0
LINE
  5
3A2
  8
0
 10
52.5999992050778928
 20
20.4999999389748417
 30
0.0
 11
52.5999992050776584
 21
18.2499999389748417
 31
0.0
  0
ARC
  5
3A3
  8
0
 10
52.8499992050776584
 20
18.2499999389748417
 30
0.0
 40
0.25
 50
180.0
 51
270.0
  0
LINE
  5
3A4
  8
0
 10
52.8499992050776584
 20
17.9999999389748417
 30
0.0
 11
54.5999992050776584
 21
17.9999999389748417
 31
0.0
  0
LINE
  5
3A5
  8
0
 10
54.5999992050776584
 20
17.9999999389748417
 30
0.0
 11
54.5999992050776584
 21
15.9999999389748293
 31
0.0
  0
LINE
  5
3A6
  8
0
 10
54.5999992050776584
 20
15.9999999389748293
 30
0.0
 11
52.8499992050776584
 21
15.9999999389748293
 31
0.0
  0
ARC
  5
3A7
  8
0
 10
52.8499992050776584
 20
15.7499999389749501
 30
0.0
 40
0.2499999999998863
 50
90.0
 51
180.0000000000260059
  0
LINE
  5
3A8
  8
0
 10
52.5999992050776584
 20
15.74999993897484
 30
0.0
 11
52.5999992050776584
 21
14.1539321485747696
 31
0.0
  0
ARC
  5
3A9
  8
0
 10
52.09999920507925
 20
14.1539321485741993
 30
0.0
 40
0.4999999999984084
 50
321.3964192949659946
 51
0.0
  0
ARC
  5
3AA
  8
0
 10
30.9999992049306492
 20
30.9999999390332803
 30
0.0
 40
27.5000000001282885
 50
302.482163992286587
 51
321.3964192952902863
  0
ARC
  5
3AB
  8
0
 10
45.4999992050663806
 20
8.2239159910936905
 30
0.0
 40
0.4999999999888838
 50
180.0000000021626079
 51
302.4821639941702074
  0
LINE
  5
3AC
  8
0
 10
44.999999205077529
 20
8.2239159910748185
 30
0.0
 11
44.999999205077529
 21
12.99999993897484
 31
0.0
  0
ARC
  5
3AD
  8
0
 10
44.4999992050775219
 20
12.9999999389749501
 30
0.0
 40
0.5
 50
0.0
 51
89.9999999999869686
  0
LINE
  5
3AE
  8
0
 10
44.4999992050777493
 20
13.4999999389749501
 30
0.0
 11
17.499999205077529
 21
13.49999993897484
 31
0.0
  0
ARC
  5
3AF
  8
0
 10
17.4999992050773017
 20
12.9999999389752894
 30
0.0
 40
0.4999999999995453
 50
89.9999999999739515
 51
180.000000000052097
  0
LINE
  5
3B0
  8
0
 10
16.9999992050777493
 20
12.99999993897484
 30
0.0
 11
16.999999205077529
 21
8.2239159910748185
 31
0.0
  0
ARC
  5
3B1
  8
0
 10
16.499999205077529
 20
8.2239159910745911
 30
0.0
 40
0.5
 50
237.5178360078801916
 51
0.0
  0
ARC
  5
3B2
  8
0
 10
30.99999920518826
 20
30.9999999389505092
 30
0.0
 40
27.5000000000720597
 50
218.2372622784218947
 51
237.517836007723588
  0
LINE
  5
3B3
  8
0
 10
9.3999992050894434
 20
13.9797179201443704
 30
0.0
 11
9.3999992050776182
 21
15.74999993897484
 31
0.0
  0
ARC
  5
3B4
  8
0
 10
9.1499992050776182
 20
15.74999993897484
 30
0.0
 40
0.25
 50
0.0
 51
89.9999999999478888
  0
LINE
  5
3B5
  8
0
 10
9.1499992050778474
 20
15.9999999389748293
 30
0.0
 11
7.3999992050776191
 21
15.9999999389748293
 31
0.0
  0
LINE
  5
3B6
  8
0
 10
7.3999992050776191
 20
15.9999999389748293
 30
0.0
 11
7.3999992050776191
 21
17.9999999389748417
 31
0.0
  0
LINE
  5
3B7
  8
0
 10
7.3999992050776191
 20
17.9999999389748417
 30
0.0
 11
9.1499992050776182
 21
17.9999999389748417
 31
0.0
  0
ARC
  5
3B8
  8
0
 10
9.1499992050778474
 20
18.2499999389743799
 30
0.0
 40
0.2499999999995452
 50
269.9999999999478746
 51
0.0000000001042366
  0
LINE
  5
3B9
  8
0
 10
9.3999992050773926
 20
18.2499999389748417
 30
0.0
 11
9.3999992050776182
 21
20.4999999389748417
 31
0.0
  0
ARC
  5
3BA
  8
0
 10
8.8999992050776182
 20
20.4999999389749483
 30
0.0
 40
0.5
 50
0.0
 51
89.9999999999869686
  0
LINE
  5
3BB
  8
0
 10
8.8999992050778474
 20
20.9999999389749483
 30
0.0
 11
5.38262229017755
 21
20.9999999389748417
 31
0.0
  0
ARC
  5
3BC
  8
0
 10
30.9999992050404707
 20
30.9999999389916603
 30
0.0
 40
27.4999999999725091
 50
194.344722139155806
 51
201.323686263557903
  0
ARC
  5
3BD
  8
0
 10
5.3261992050699973
 20
24.4344844557799696
 30
0.0
 40
0.9999999999955846
 50
84.1404129182419638
 51
194.3447221386554986
  0
ARC
  5
3BE
  8
0
 10
5.9999992050736628
 20
30.9999999389692711
 30
0.0
 40
5.6000000000046279
 50
264.1404129187495187
 51
7.5608431767499074
  0
ARC
  5
3BF
  8
0
 10
13.5339224857939406
 20
31.9999999389913192
 30
0.0
 40
1.999999999983707
 50
90.0000000004689724
 51
187.5608431771358937
  0
LINE
  5
3C0
  8
0
 10
13.5339224857775609
 20
33.9999999389750727
 30
0.0
 11
15.89999920507762
 21
33.9999999389748382
 31
0.0
  0
ARC
  5
3C1
  8
0
 10
15.8999992050778491
 20
34.4999999389743905
 30
0.0
 40
0.4999999999995453
 50
269.9999999999739089
 51
0.0000000000521183
  0
LINE
  5
3C2
  8
0
 10
16.3999992050773891
 20
34.4999999389748382
 30
0.0
 11
16.39999920507762
 21
35.7499999389748382
 31
0.0
  0
ARC
  5
3C3
  8
0
 10
16.14999920507762
 20
35.7499999389748382
 30
0.0
 40
0.25
 50
0.0
 51
89.9999999999478888
  0
LINE
  5
3C4
  8
0
 10
16.1499992050778403
 20
35.9999999389748382
 30
0.0
 11
14.39999920507762
 21
35.9999999389748382
 31
0.0
  0
LINE
  5
3C5
  8
0
 10
14.39999920507762
 20
35.9999999389748382
 30
0.0
 11
14.39999920507762
 21
37.9999999389748382
 31
0.0
  0
LINE
  5
3C6
  8
0
 10
14.39999920507762
 20
37.9999999389748382
 30
0.0
 11
16.14999920507762
 21
37.9999999389748382
 31
0.0
  0
ARC
  5
3C7
  8
0
 10
16.1499992050778403
 20
38.2499999389743905
 30
0.0
 40
0.2499999999995452
 50
269.9999999999478746
 51
0.0000000001042366
  0
LINE
  5
3C8
  8
0
 10
16.3999992050773891
 20
38.2499999389748382
 30
0.0
 11
16.39999920507762
 21
39.4999999389748382
 31
0.0
  0
ARC
  5
3C9
  8
0
 10
15.89999920507762
 20
39.4999999389749519
 30
0.0
 40
0.5
 50
0.0
 51
89.9999999999869686
  0
LINE
  5
3CA
  8
0
 10
15.8999992050778491
 20
39.9999999389749519
 30
0.0
 11
7.994565064377638
 21
39.9999999389748382
 31
0.0
  0
ARC
  5
3CB
  8
0
 10
7.994565064377638
 20
41.9999999389750585
 30
0.0
 40
2.0000000000002269
 50
154.4453028715103073
 51
270.0
  0
ARC
  5
3CC
  8
0
 10
30.9999992050086313
 20
30.9999999388543301
 30
0.0
 40
27.5000000000306812
 50
137.8064385445202049
 51
154.4453028712165974
  0
ARC
  5
3CD
  8
0
 10
12.1075572821800908
 20
48.1267520592584788
 30
0.0
 40
2.000000000006795
 50
33.8820207829315834
 51
137.806438545201388
  0
ARC
  5
3CE
  8
0
 10
18.4999992051236788
 20
52.419383683600131
 30
0.0
 40
5.7000000000258746
 50
213.88202078204759
 51
269.4822656290451732
  0
ARC
  5
3CF
  8
0
 10
18.4530117635617898
 20
47.2195959782588872
 30
0.0
 40
0.4999999999986163
 50
269.4822656293519003
 51
5.000000003086793
  0
LINE
  5
3D0
  8
0
 10
18.951109112603941
 20
47.263173849659438
 30
0.0
 11
18.8195174359991597
 21
48.7672735948654008
 31
0.0
  0
ARC
  5
3D1
  8
0
 10
18.3214200869563193
 20
48.7236957234633792
 30
0.0
 40
0.4999999999994328
 50
5.0000000032486511
 51
87.2335658348273739
  0
ARC
  5
3D2
  8
0
 10
18.4999992050829789
 20
52.4193836835781894
 30
0.0
 40
3.1999999999961211
 50
342.7664341688998206
 51
267.2335658346586911
  0
ARC
  5
3D3
  8
0
 10
22.0338875655706907
 20
51.3231934375214678
 30
0.0
 40
0.4999999999961745
 50
162.7664341684960903
 51
244.9999999999837996
  0
LINE
  5
3D4
  8
0
 10
21.8225784347018816
 20
50.8700395440066586
 30
0.0
 11
23.9830592863306684
 21
49.862590777616667
 31
0.0
  0
ARC
  5
3D5
  8
0
 10
24.1943684171972109
 20
50.3157446711376224
 30
0.0
 40
0.5000000000007671
 50
245.0000000005227889
 51
308.6614483382268759
  0
LINE
  5
3D6
  8
0
 10
24.5067271169803007
 20
49.9253192074821683
 30
0.0
 11
25.0994340041775104
 21
50.3995125423747368
 31
0.0
  0
ARC
  5
3D7
  8
0
 10
23.8499992050863092
 20
51.9612143970144871
 30
0.0
 40
1.999999999991328
 50
308.6614483369847903
 51
359.9999999988634158
  0
LINE
  5
3D8
  8
0
 10
25.849999205077669
 20
51.9612143969748104
 30
0.0
 11
25.849999205077669
 21
53.7499999389748382
 31
0.0
  0
ARC
  5
3D9
  8
0
 10
25.599999205077669
 20
53.7499999389748382
 30
0.0
 40
0.25
 50
0.0
 51
90.0
  0
LINE
  5
3DA
  8
0
 10
25.599999205077669
 20
53.9999999389748382
 30
0.0
 11
22.999999205077529
 21
53.9999999389748382
 31
0.0
  0
LINE
  5
3DB
  8
0
 10
22.999999205077529
 20
53.9999999389748382
 30
0.0
 11
22.999999205077529
 21
57.19999993897477
 31
0.0
  0
ENDBLK
  5
3DD
  8
0
  0
ENDSEC
  0
SECTION
  2
ENTITIES
  0
LINE
  5
275
  8
0
 10
25.4993873595953993
 20
59.7956187396650876
 30
0.0
 11
28.0993873595955392
 21
59.7956187396650876
 31
0.0
  0
ARC
  5
276
  8
0
 10
28.0993873595955392
 20
60.045618739664981
 30
0.0
 40
0.2499999999998863
 50
270.0
 51
0.0000000000260551
  0
LINE
  5
277
  8
0
 10
28.3493873595955392
 20
60.0456187396650805
 30
0.0
 11
28.3493873595955392
 21
63.5677307773651066
 31
0.0
  0
ARC
  5
278
  8
0
 10
27.849387359599401
 20
63.5677307773623923
 30
0.0
 40
0.4999999999961347
 50
0.0
 51
100.6754693325535044
  0
ARC
  5
279
  8
0
 10
33.4993873595956302
 20
33.5956187396648218
 30
0.0
 40
31.0000000000002807
 50
100.6754693325010948
 51
173.1688797851172978
  0
ARC
  5
27A
  8
0
 10
3.2159053193277032
 20
37.2233887870620492
 30
0.0
 40
0.5000000000000379
 50
173.1688797851302013
 51
240.0000000000318039
  0
LINE
  5
27B
  8
0
 10
2.9659053193279301
 20
36.7903760851696688
 30
0.0
 11
6.2182984463499897
 21
34.9126060377728891
 31
0.0
  0
ARC
  5
27C
  8
0
 10
6.4682984463499897
 20
35.3456187396657171
 30
0.0
 40
0.5000000000005334
 50
240.0000000000318039
 51
270.0
  0
LINE
  5
27D
  8
0
 10
6.4682984463499897
 20
34.8456187396651629
 30
0.0
 11
6.6903821080929902
 21
34.8456187396650421
 31
0.0
  0
ARC
  5
27E
  8
0
 10
6.6903821080848038
 20
35.0956187396600399
 30
0.0
 40
0.2499999999949978
 50
270.0000000018758897
 51
320.3349870943019937
  0
ARC
  5
27F
  8
0
 10
8.4993873595954028
 20
33.5956187396715222
 30
0.0
 40
2.0999999999959909
 50
219.6650129078863927
 51
140.3349870923871094
  0
ARC
  5
280
  8
0
 10
6.6903821080929902
 20
32.09561873966436
 30
0.0
 40
0.2500000000007398
 50
39.6650129078580918
 51
89.9999999999478888
  0
LINE
  5
281
  8
0
 10
6.6903821080932167
 20
32.3456187396650421
 30
0.0
 11
6.4682984463499897
 21
32.3456187396652695
 31
0.0
  0
ARC
  5
282
  8
0
 10
6.4682984463499897
 20
31.845618739664701
 30
0.0
 40
0.5000000000005685
 50
90.0
 51
119.9999999999681961
  0
LINE
  5
283
  8
0
 10
6.2182984463499897
 20
32.2786314415575433
 30
0.0
 11
2.9659053193277032
 21
30.4008613941606392
 31
0.0
  0
ARC
  5
284
  8
0
 10
3.215905319327248
 20
29.9678486922688307
 30
0.0
 40
0.4999999999994199
 50
119.9999999999827054
 51
186.8311202149295127
  0
ARC
  5
285
  8
0
 10
33.4993873595760832
 20
33.5956187396838004
 30
0.0
 40
30.9999999999829292
 50
186.8311202149230041
 51
263.8830988602423986
  0
ARC
  5
286
  8
0
 10
30.249387359595179
 20
3.2692688109655128
 30
0.0
 40
0.5000000000002675
 50
263.8830988602294951
 51
359.9999999999608917
  0
LINE
  5
287
  8
0
 10
30.7493873595956302
 20
3.2692688109651722
 30
0.0
 11
30.7493873595953993
 21
5.3456187396651549
 31
0.0
  0
ARC
  5
288
  8
0
 10
30.4993873595953993
 20
5.3456187396651549
 30
0.0
 40
0.25
 50
0.0
 51
89.9999999999478888
  0
LINE
  5
289
  8
0
 10
30.4993873595956302
 20
5.5956187396651549
 30
0.0
 11
28.2493873595953993
 21
5.5956187396651549
 31
0.0
  0
LINE
  5
28A
  8
0
 10
28.2493873595953993
 20
5.5956187396651549
 30
0.0
 11
28.2493873595953993
 21
10.5956187396651504
 31
0.0
  0
LINE
  5
28B
  8
0
 10
28.2493873595953993
 20
10.5956187396651504
 30
0.0
 11
38.7493873595954028
 21
10.5956187396651504
 31
0.0
  0
LINE
  5
28C
  8
0
 10
38.7493873595954028
 20
10.5956187396651504
 30
0.0
 11
38.7493873595954028
 21
5.5956187396651549
 31
0.0
  0
LINE
  5
28D
  8
0
 10
38.7493873595954028
 20
5.5956187396651549
 30
0.0
 11
36.4993873595954028
 21
5.5956187396651549
 31
0.0
  0
ARC
  5
28E
  8
0
 10
36.4993873595951825
 20
5.3456187396656096
 30
0.0
 40
0.2499999999995452
 50
89.9999999999478888
 51
180.000000000104194
  0
LINE
  5
28F
  8
0
 10
36.2493873595956302
 20
5.3456187396651549
 30
0.0
 11
36.2493873595954099
 21
3.2692688109651722
 31
0.0
  0
ARC
  5
290
  8
0
 10
36.7493873596120011
 20
3.2692688109499382
 30
0.0
 40
0.5000000000165983
 50
180.0
 51
276.1169011397964255
  0
ARC
  5
291
  8
0
 10
33.4993873595954028
 20
33.5956187396656105
 30
0.0
 40
31.0000000000004405
 50
276.1169011397964255
 51
353.1688797851173263
  0
ARC
  5
292
  8
0
 10
63.7828693998626406
 20
29.9678486922681486
 30
0.0
 40
0.500000000000476
 50
353.1688797851496133
 51
59.9999999999703704
  0
LINE
  5
293
  8
0
 10
64.0328693998631024
 20
30.4008613941606392
 30
0.0
 11
60.7804762728405876
 21
32.2786314415576499
 31
0.0
  0
ARC
  5
294
  8
0
 10
60.5304762728405805
 20
31.8456187396648183
 30
0.0
 40
0.5000000000005334
 50
60.0000000000317968
 51
90.0000000000260485
  0
LINE
  5
295
  8
0
 10
60.5304762728403603
 20
32.3456187396653831
 30
0.0
 11
60.308392611097581
 21
32.3456187396651629
 31
0.0
  0
ARC
  5
296
  8
0
 10
60.3083926111057735
 20
32.095618739670158
 30
0.0
 40
0.2499999999949978
 50
90.0000000018759465
 51
140.3349870943019937
  0
ARC
  5
297
  8
0
 10
58.4993873595954028
 20
33.5956187396592512
 30
0.0
 40
2.0999999999961791
 50
39.665012907876438
 51
320.3349870923688059
  0
ARC
  5
298
  8
0
 10
60.3083926110978226
 20
35.0956187396653831
 30
0.0
 40
0.2500000000002744
 50
219.66501290781639
 51
270.0
  0
LINE
  5
299
  8
0
 10
60.3083926110978226
 20
34.8456187396651629
 30
0.0
 11
60.5304762728405805
 21
34.8456187396650421
 31
0.0
  0
ARC
  5
29A
  8
0
 10
60.5304762728410424
 20
35.3456187396641326
 30
0.0
 40
0.4999999999990905
 50
269.9999999999478746
 51
300.0000000000296154
  0
LINE
  5
29B
  8
0
 10
60.7804762728408221
 20
34.9126060377728891
 30
0.0
 11
64.0328693998628751
 21
36.7903760851693278
 31
0.0
  0
ARC
  5
29C
  8
0
 10
63.7828693998624203
 20
37.2233887870618219
 30
0.0
 40
0.5000000000004654
 50
300.0000000000296154
 51
6.8311202148762371
  0
ARC
  5
29D
  8
0
 10
33.4993873595954028
 20
33.5956187396652695
 30
0.0
 40
30.9999999999998792
 50
6.8311202148827048
 51
79.324530667498891
  0
ARC
  5
29E
  8
0
 10
39.1493873595918629
 20
63.5677307773621578
 30
0.0
 40
0.4999999999962752
 50
79.324530667193585
 51
179.9999999996612985
  0
LINE
  5
29F
  8
0
 10
38.6493873595955009
 20
63.5677307773651066
 30
0.0
 11
38.6493873595955009
 21
60.0456187396650805
 31
0.0
  0
ARC
  5
2A0
  8
0
 10
38.8993873595955009
 20
60.0456187396650805
 30
0.0
 40
0.25
 50
180.0
 51
269.9999999999478746
  0
LINE
  5
2A1
  8
0
 10
38.8993873595952735
 20
59.7956187396650876
 30
0.0
 11
41.4993873595954028
 21
59.7956187396650876
 31
0.0
  0
LINE
  5
2A2
  8
0
 10
41.4993873595954028
 20
59.7956187396650876
 30
0.0
 11
41.4993873595954028
 21
56.5956187396651629
 31
0.0
  0
LINE
  5
2A3
  8
0
 10
41.4993873595954028
 20
56.5956187396651629
 30
0.0
 11
38.8993873595955009
 21
56.5956187396651629
 31
0.0
  0
ARC
  5
2A4
  8
0
 10
38.8993873595952735
 20
56.3456187396656105
 30
0.0
 40
0.2499999999995452
 50
89.9999999999478888
 51
180.000000000104194
  0
LINE
  5
2A5
  8
0
 10
38.6493873595957211
 20
56.3456187396651487
 30
0.0
 11
38.6493873595955009
 21
54.556833197665128
 31
0.0
  0
ARC
  5
2A6
  8
0
 10
40.6493873595952593
 20
54.556833197665128
 30
0.0
 40
1.999999999999772
 50
180.0
 51
231.3385516619073883
  0
LINE
  5
2A7
  8
0
 10
39.3999525604685914
 20
52.9951313430428783
 30
0.0
 11
39.9926594476923967
 21
52.520938008172493
 31
0.0
  0
ARC
  5
2A8
  8
0
 10
40.305018147475721
 20
52.9113634718273715
 30
0.0
 40
0.5000000000004513
 50
231.33855166170801
 51
294.9999999995184794
  0
LINE
  5
2A9
  8
0
 10
40.5163272783424802
 20
52.4582095783068709
 30
0.0
 11
42.6768081299710502
 21
53.4656583446973173
 31
0.0
  0
ARC
  5
2AA
  8
0
 10
42.4654989991038292
 20
53.9188122382174697
 30
0.0
 40
0.500000000000334
 50
294.9999999995885105
 51
17.2335658309826592
  0
ARC
  5
2AB
  8
0
 10
45.9993873596003979
 20
55.0150024842614584
 30
0.0
 40
3.1999999999961992
 50
272.7664341651562268
 51
197.2335658309189057
  0
ARC
  5
2AC
  8
0
 10
46.177966477712971
 20
51.3193145241494904
 30
0.0
 40
0.4999999999961379
 50
92.7664341647518285
 51
174.999999996234493
  0
LINE
  5
2AD
  8
0
 10
45.6798691286737721
 20
51.3628923955557184
 30
0.0
 11
45.5482774520692075
 21
49.8587926503495211
 31
0.0
  0
ARC
  5
2AE
  8
0
 10
46.046374801111817
 20
49.8152147789467108
 30
0.0
 40
0.4999999999992756
 50
174.9999999966586017
 51
270.5177343705425983
  0
ARC
  5
2AF
  8
0
 10
45.9993873595922196
 20
55.0150024842630501
 30
0.0
 40
5.7000000000015083
 50
270.5177343705165072
 51
326.1179792175311718
  0
ARC
  5
2B0
  8
0
 10
52.3918292825142089
 20
50.722370859940149
 30
0.0
 40
2.000000000002903
 50
42.1935614560871812
 51
146.117979218376604
  0
ARC
  5
2B1
  8
0
 10
33.4993873595201421
 20
33.5956187396404928
 30
0.0
 40
27.5000000000793214
 50
25.5546971284751017
 51
42.1935614551788731
  0
ARC
  5
2B2
  8
0
 10
56.5048215002820982
 20
44.5956187396454808
 30
0.0
 40
1.999999999980391
 50
270.0000000003777814
 51
25.5546971288887406
  0
LINE
  5
2B3
  8
0
 10
56.5048215002955203
 20
42.5956187396651487
 30
0.0
 11
48.5993873595955392
 21
42.5956187396651487
 31
0.0
  0
ARC
  5
2B4
  8
0
 10
48.5993873595953119
 20
42.0956187396656105
 30
0.0
 40
0.4999999999995453
 50
89.9999999999739515
 51
180.000000000052097
  0
LINE
  5
2B5
  8
0
 10
48.0993873595957595
 20
42.0956187396651487
 30
0.0
 11
48.0993873595955392
 21
40.8456187396651487
 31
0.0
  0
ARC
  5
2B6
  8
0
 10
48.3493873595955321
 20
40.8456187396651487
 30
0.0
 40
0.25
 50
180.0
 51
270.0
  0
LINE
  5
2B7
  8
0
 10
48.3493873595955321
 20
40.5956187396651487
 30
0.0
 11
50.0993873595955392
 21
40.5956187396651487
 31
0.0
  0
LINE
  5
2B8
  8
0
 10
50.0993873595955392
 20
40.5956187396651487
 30
0.0
 11
50.0993873595955392
 21
38.5956187396651629
 31
0.0
  0
LINE
  5
2B9
  8
0
 10
50.0993873595955392
 20
38.5956187396651629
 30
0.0
 11
48.3493873595955321
 21
38.5956187396651629
 31
0.0
  0
ARC
  5
2BA
  8
0
 10
48.3493873595955321
 20
38.3456187396652695
 30
0.0
 40
0.2499999999998863
 50
90.0
 51
180.0000000000260059
  0
LINE
  5
2BB
  8
0
 10
48.0993873595955392
 20
38.3456187396651629
 30
0.0
 11
48.0993873595955392
 21
37.0956187396651629
 31
0.0
  0
ARC
  5
2BC
  8
0
 10
48.5993873595955392
 20
37.0956187396650421
 30
0.0
 40
0.5
 50
180.0
 51
270.0000000000130171
  0
LINE
  5
2BD
  8
0
 10
48.5993873595955392
 20
36.5956187396650492
 30
0.0
 11
50.9654640788953728
 21
36.5956187396651629
 31
0.0
  0
ARC
  5
2BE
  8
0
 10
50.9654640788953728
 20
34.5956187396650421
 30
0.0
 40
2.0000000000001128
 50
352.4391568233070871
 51
90.0
  0
ARC
  5
2BF
  8
0
 10
58.4993873596108571
 20
33.5956187396495807
 30
0.0
 40
5.599999999982737
 50
172.4391568231552014
 51
275.8595870811552118
  0
ARC
  5
2C0
  8
0
 10
59.1731873595922409
 20
27.0301032564708485
 30
0.0
 40
1.000000000004555
 50
345.655277860628587
 51
95.8595870810637933
  0
ARC
  5
2C1
  8
0
 10
33.4993873596586127
 20
33.5956187396424184
 30
0.0
 40
27.4999999999356994
 50
338.6763137365027774
 51
345.6552778608783001
  0
LINE
  5
2C2
  8
0
 10
59.1167642744971928
 20
23.5956187396644701
 30
0.0
 11
55.5993873595955392
 21
23.5956187396651593
 31
0.0
  0
ARC
  5
2C3
  8
0
 10
55.5993873595953119
 20
23.0956187396656105
 30
0.0
 40
0.4999999999995453
 50
89.9999999999739515
 51
180.000000000052097
  0
LINE
  5
2C4
  8
0
 10
55.0993873595957595
 20
23.0956187396651593
 30
0.0
 11
55.0993873595955392
 21
20.8456187396651487
 31
0.0
  0
ARC
  5
2C5
  8
0
 10
55.3493873595955392
 20
20.8456187396651487
 30
0.0
 40
0.25
 50
180.0
 51
270.0
  0
LINE
  5
2C6
  8
0
 10
55.3493873595955392
 20
20.5956187396651593
 30
0.0
 11
57.0993873595955321
 21
20.5956187396651593
 31
0.0
  0
LINE
  5
2C7
  8
0
 10
57.0993873595955321
 20
20.5956187396651593
 30
0.0
 11
57.0993873595955321
 21
18.5956187396651487
 31
0.0
  0
LINE
  5
2C8
  8
0
 10
57.0993873595955321
 20
18.5956187396651487
 30
0.0
 11
55.3493873595955392
 21
18.5956187396651487
 31
0.0
  0
ARC
  5
2C9
  8
0
 10
55.3493873595955392
 20
18.3456187396652695
 30
0.0
 40
0.2499999999998863
 50
90.0
 51
180.0000000000260059
  0
LINE
  5
2CA
  8
0
 10
55.0993873595955392
 20
18.3456187396651487
 30
0.0
 11
55.0993873595955392
 21
16.7495509492650783
 31
0.0
  0
ARC
  5
2CB
  8
0
 10
54.5993873595971309
 20
16.7495509492645205
 30
0.0
 40
0.4999999999984084
 50
321.3964192949688936
 51
0.0
  0
ARC
  5
2CC
  8
0
 10
33.4993873594485194
 20
33.5956187397235908
 30
0.0
 40
27.5000000001282885
 50
302.4821639922924987
 51
321.3964192952843177
  0
ARC
  5
2CD
  8
0
 10
47.9993873595842615
 20
10.8195347917840099
 30
0.0
 40
0.4999999999888838
 50
180.0000000021626079
 51
302.4821639941753801
  0
LINE
  5
2CE
  8
0
 10
47.4993873595954028
 20
10.8195347917651308
 30
0.0
 11
47.4993873595954028
 21
15.5956187396651504
 31
0.0
  0
ARC
  5
2CF
  8
0
 10
46.9993873595954028
 20
15.5956187396652695
 30
0.0
 40
0.5
 50
0.0
 51
89.9999999999869686
  0
LINE
  5
2D0
  8
0
 10
46.9993873595956302
 20
16.0956187396652695
 30
0.0
 11
19.9993873595953993
 21
16.0956187396651487
 31
0.0
  0
ARC
  5
2D1
  8
0
 10
19.9993873595951683
 20
15.5956187396656105
 30
0.0
 40
0.4999999999995453
 50
89.9999999999739515
 51
180.000000000052097
  0
LINE
  5
2D2
  8
0
 10
19.4993873595956302
 20
15.5956187396651504
 30
0.0
 11
19.4993873595953993
 21
10.8195347917651308
 31
0.0
  0
ARC
  5
2D3
  8
0
 10
18.9993873595953993
 20
10.8195347917649105
 30
0.0
 40
0.5
 50
237.5178360078774062
 51
0.0
  0
ARC
  5
2D4
  8
0
 10
33.4993873597061409
 20
33.5956187396408268
 30
0.0
 40
27.5000000000720597
 50
218.2372622784195073
 51
237.5178360077219963
  0
LINE
  5
2D5
  8
0
 10
11.8993873596073207
 20
16.5753367208346809
 30
0.0
 11
11.8993873595954902
 21
18.3456187396651487
 31
0.0
  0
ARC
  5
2D6
  8
0
 10
11.6493873595954902
 20
18.3456187396651487
 30
0.0
 40
0.25
 50
0.0
 51
89.9999999999478888
  0
LINE
  5
2D7
  8
0
 10
11.6493873595957194
 20
18.5956187396651487
 30
0.0
 11
9.8993873595954938
 21
18.5956187396651487
 31
0.0
  0
LINE
  5
2D8
  8
0
 10
9.8993873595954938
 20
18.5956187396651487
 30
0.0
 11
9.8993873595954938
 21
20.5956187396651593
 31
0.0
  0
LINE
  5
2D9
  8
0
 10
9.8993873595954938
 20
20.5956187396651593
 30
0.0
 11
11.6493873595954902
 21
20.5956187396651593
 31
0.0
  0
ARC
  5
2DA
  8
0
 10
11.6493873595957194
 20
20.845618739664701
 30
0.0
 40
0.2499999999995452
 50
269.9999999999478746
 51
0.0000000001042204
  0
LINE
  5
2DB
  8
0
 10
11.8993873595952593
 20
20.8456187396651487
 30
0.0
 11
11.8993873595954902
 21
23.0956187396651593
 31
0.0
  0
ARC
  5
2DC
  8
0
 10
11.3993873595954902
 20
23.0956187396652695
 30
0.0
 40
0.5
 50
0.0
 51
89.9999999999869686
  0
LINE
  5
2DD
  8
0
 10
11.3993873595957194
 20
23.5956187396652695
 30
0.0
 11
7.8820104446954238
 21
23.5956187396651593
 31
0.0
  0
ARC
  5
2DE
  8
0
 10
33.4993873595583409
 20
33.5956187396819814
 30
0.0
 40
27.4999999999725091
 50
194.3447221391564881
 51
201.3236862635552029
  0
ARC
  5
2DF
  8
0
 10
7.8255873595878711
 20
27.0301032564702801
 30
0.0
 40
0.9999999999955846
 50
84.1404129182420348
 51
194.3447221386572039
  0
ARC
  5
2E0
  8
0
 10
8.4993873595915375
 20
33.595618739659578
 30
0.0
 40
5.6000000000046279
 50
264.1404129187528156
 51
7.5608431767526616
  0
ARC
  5
2E1
  8
0
 10
16.0333106403118109
 20
34.5956187396816404
 30
0.0
 40
1.999999999983707
 50
90.0000000004689724
 51
187.5608431771323126
  0
LINE
  5
2E2
  8
0
 10
16.03331064029544
 20
36.5956187396653831
 30
0.0
 11
18.3993873595954902
 21
36.5956187396651629
 31
0.0
  0
ARC
  5
2E3
  8
0
 10
18.3993873595957211
 20
37.095618739664701
 30
0.0
 40
0.4999999999995453
 50
269.9999999999739089
 51
0.0000000000521102
  0
LINE
  5
2E4
  8
0
 10
18.8993873595952593
 20
37.0956187396651629
 30
0.0
 11
18.8993873595954902
 21
38.3456187396651629
 31
0.0
  0
ARC
  5
2E5
  8
0
 10
18.6493873595954902
 20
38.3456187396651629
 30
0.0
 40
0.25
 50
0.0
 51
89.9999999999478888
  0
LINE
  5
2E6
  8
0
 10
18.6493873595957211
 20
38.5956187396651629
 30
0.0
 11
16.8993873595954902
 21
38.5956187396651629
 31
0.0
  0
LINE
  5
2E7
  8
0
 10
16.8993873595954902
 20
38.5956187396651629
 30
0.0
 11
16.8993873595954902
 21
40.5956187396651487
 31
0.0
  0
LINE
  5
2E8
  8
0
 10
16.8993873595954902
 20
40.5956187396651487
 30
0.0
 11
18.6493873595954902
 21
40.5956187396651487
 31
0.0
  0
ARC
  5
2E9
  8
0
 10
18.6493873595957211
 20
40.845618739664701
 30
0.0
 40
0.2499999999995452
 50
269.9999999999478746
 51
0.0000000001042204
  0
LINE
  5
2EA
  8
0
 10
18.8993873595952593
 20
40.8456187396651487
 30
0.0
 11
18.8993873595954902
 21
42.0956187396651487
 31
0.0
  0
ARC
  5
2EB
  8
0
 10
18.3993873595954902
 20
42.0956187396652695
 30
0.0
 40
0.5
 50
0.0
 51
89.9999999999869686
  0
LINE
  5
2EC
  8
0
 10
18.3993873595957211
 20
42.5956187396652695
 30
0.0
 11
10.4939532188955091
 21
42.5956187396651487
 31
0.0
  0
ARC
  5
2ED
  8
0
 10
10.4939532188955091
 20
44.5956187396653831
 30
0.0
 40
2.0000000000002269
 50
154.4453028715074936
 51
270.0
  0
ARC
  5
2EE
  8
0
 10
33.4993873595265086
 20
33.5956187395446477
 30
0.0
 40
27.5000000000306812
 50
137.8064385445169933
 51
154.4453028712163132
  0
ARC
  5
2EF
  8
0
 10
14.6069454366979699
 20
50.7223708599487892
 30
0.0
 40
2.000000000006795
 50
33.8820207829331395
 51
137.8064385451997111
  0
ARC
  5
2F0
  8
0
 10
20.9993873596415597
 20
55.0150024842904486
 30
0.0
 40
5.7000000000258746
 50
213.8820207820461121
 51
269.4822656290406258
  0
ARC
  5
2F1
  8
0
 10
20.9523999180796601
 20
49.8152147789492119
 30
0.0
 40
0.4999999999986163
 50
269.4822656293532077
 51
5.0000000030861056
  0
LINE
  5
2F2
  8
0
 10
21.4504972671218184
 20
49.8587926503497485
 30
0.0
 11
21.3189055905170299
 21
51.3628923955557184
 31
0.0
  0
ARC
  5
2F3
  8
0
 10
20.8208082414742002
 20
51.3193145241536897
 30
0.0
 40
0.4999999999994328
 50
5.0000000032494656
 51
87.2335658348308272
  0
ARC
  5
2F4
  8
0
 10
20.9993873596008598
 20
55.0150024842684999
 30
0.0
 40
3.1999999999961211
 50
342.7664341689037997
 51
267.2335658346610217
  0
ARC
  5
2F5
  8
0
 10
24.5332757200885716
 20
53.9188122382117925
 30
0.0
 40
0.4999999999961745
 50
162.7664341684919123
 51
244.9999999999801901
  0
LINE
  5
2F6
  8
0
 10
24.321966589219759
 20
53.4656583446969691
 30
0.0
 11
26.4824474408485493
 21
52.4582095783069917
 31
0.0
  0
ARC
  5
2F7
  8
0
 10
26.6937565717150918
 20
52.91136347182794
 30
0.0
 40
0.5000000000007671
 50
245.0000000005252048
 51
308.6614483382268759
  0
LINE
  5
2F8
  8
0
 10
27.0061152714981709
 20
52.520938008172493
 30
0.0
 11
27.5988221586953806
 21
52.9951313430650472
 31
0.0
  0
ARC
  5
2F9
  8
0
 10
26.3493873596041794
 20
54.5568331977047976
 30
0.0
 40
1.999999999991328
 50
308.6614483369796744
 51
359.9999999988601189
  0
LINE
  5
2FA
  8
0
 10
28.3493873595955392
 20
54.556833197665128
 30
0.0
 11
28.3493873595955392
 21
56.3456187396651487
 31
0.0
  0
ARC
  5
2FB
  8
0
 10
28.0993873595955392
 20
56.3456187396651487
 30
0.0
 40
0.25
 50
0.0
 51
90.0
  0
LINE
  5
2FC
  8
0
 10
28.0993873595955392
 20
56.5956187396651629
 30
0.0
 11
25.4993873595953993
 21
56.5956187396651629
 31
0.0
  0
LINE
  5
2FD
  8
0
 10
25.4993873595953993
 20
56.5956187396651629
 30
0.0
 11
25.4993873595953993
 21
59.7956187396650876
 31
0.0
  0
ENDSEC
  0
EOF
