  0
SECTION
  2
HEADER
  9
$ACADVER
  1
AC1009
  9
$INSBASE
 10
0.0
 20
0.0
 30
0.0
  9
$EXTMIN
 10
1.7954619898298461
 20
1.882913970297295
 30
0.0
  9
$EXTMAX
 10
19.2954619898305317
 20
54.6829139702972498
 30
0.0
  9
$LIMMIN
 10
0.0
 20
0.0
  9
$LIMMAX
 10
420.0
 20
297.0
  9
$ORTHOMODE
 70
     0
  9
$REGENMODE
 70
     1
  9
$FILLMODE
 70
     1
  9
$QTEXTMODE
 70
     0
  9
$MIRRTEXT
 70
     0
  9
$DRAGMODE
 70
     2
  9
$LTSCALE
 40
1.0
  9
$OSMODE
 70
  4095
  9
$ATTMODE
 70
     1
  9
$TEXTSIZE
 40
2.5
  9
$TRACEWID
 40
1.0
  9
$TEXTSTYLE
  7
STANDARD
  9
$CLAYER
  8
0
  9
$CELTYPE
  6
BYLAYER
  9
$CECOLOR
 62
   256
  9
$DIMSCALE
 40
1.0
  9
$DIMASZ
 40
2.5
  9
$DIMEXO
 40
0.625
  9
$DIMDLI
 40
3.75
  9
$DIMRND
 40
0.0
  9
$DIMDLE
 40
0.0
  9
$DIMEXE
 40
1.25
  9
$DIMTP
 40
0.0
  9
$DIMTM
 40
0.0
  9
$DIMTXT
 40
2.5
  9
$DIMCEN
 40
2.5
  9
$DIMTSZ
 40
0.0
  9
$DIMTOL
 70
     0
  9
$DIMLIM
 70
     0
  9
$DIMTIH
 70
     0
  9
$DIMTOH
 70
     0
  9
$DIMSE1
 70
     0
  9
$DIMSE2
 70
     0
  9
$DIMTAD
 70
     1
  9
$DIMZIN
 70
     8
  9
$DIMBLK
  1

  9
$DIMASO
 70
     1
  9
$DIMSHO
 70
     1
  9
$DIMPOST
  1

  9
$DIMAPOST
  1

  9
$DIMALT
 70
     0
  9
$DIMALTD
 70
     3
  9
$DIMALTF
 40
0.03937007874016
  9
$DIMLFAC
 40
1.0
  9
$DIMTOFL
 70
     1
  9
$DIMTVP
 40
0.0
  9
$DIMTIX
 70
     0
  9
$DIMSOXD
 70
     0
  9
$DIMSAH
 70
     0
  9
$DIMBLK1
  1

  9
$DIMBLK2
  1

  9
$DIMSTYLE
  2
ISO-25
  9
$DIMCLRD
 70
     0
  9
$DIMCLRE
 70
     0
  9
$DIMCLRT
 70
     0
  9
$DIMTFAC
 40
1.0
  9
$DIMGAP
 40
0.625
  9
$LUNITS
 70
     2
  9
$LUPREC
 70
     4
  9
$SKETCHINC
 40
1.0
  9
$FILLETRAD
 40
0.0
  9
$AUNITS
 70
     0
  9
$AUPREC
 70
     0
  9
$MENU
  1
.
  9
$ELEVATION
 40
0.0
  9
$PELEVATION
 40
0.0
  9
$THICKNESS
 40
0.0
  9
$LIMCHECK
 70
     0
  9
$BLIPMODE
 70
     0
  9
$CHAMFERA
 40
0.0
  9
$CHAMFERB
 40
0.0
  9
$SKPOLY
 70
     0
  9
$TDCREATE
 40
2459072.3918518521822989
  9
$TDUPDATE
 40
2459072.3924421300180256
  9
$TDINDWG
 40
0.0006018519
  9
$TDUSRTIMER
 40
0.0006018519
  9
$USRTIMER
 70
     1
  9
$ANGBASE
 50
0.0
  9
$ANGDIR
 70
     0
  9
$PDMODE
 70
     0
  9
$PDSIZE
 40
0.0
  9
$PLINEWID
 40
0.0
  9
$COORDS
 70
     0
  9
$SPLFRAME
 70
     0
  9
$SPLINETYPE
 70
     6
  9
$SPLINESEGS
 70
     8
  9
$ATTDIA
 70
     1
  9
$ATTREQ
 70
     1
  9
$HANDLING
 70
     1
  9
$HANDSEED
  5
433
  9
$SURFTAB1
 70
     6
  9
$SURFTAB2
 70
     6
  9
$SURFTYPE
 70
     6
  9
$SURFU
 70
     6
  9
$SURFV
 70
     6
  9
$UCSNAME
  2

  9
$UCSORG
 10
0.0
 20
0.0
 30
0.0
  9
$UCSXDIR
 10
1.0
 20
0.0
 30
0.0
  9
$UCSYDIR
 10
0.0
 20
1.0
 30
0.0
  9
$PUCSNAME
  2

  9
$PUCSORG
 10
0.0
 20
0.0
 30
0.0
  9
$PUCSXDIR
 10
1.0
 20
0.0
 30
0.0
  9
$PUCSYDIR
 10
0.0
 20
1.0
 30
0.0
  9
$USERI1
 70
     0
  9
$USERI2
 70
     0
  9
$USERI3
 70
     0
  9
$USERI4
 70
     0
  9
$USERI5
 70
     0
  9
$USERR1
 40
0.0
  9
$USERR2
 40
0.0
  9
$USERR3
 40
0.0
  9
$USERR4
 40
0.0
  9
$USERR5
 40
0.0
  9
$WORLDVIEW
 70
     1
  9
$SHADEDGE
 70
     3
  9
$SHADEDIF
 70
    70
  9
$TILEMODE
 70
     1
  9
$MAXACTVP
 70
    64
  9
$PLIMCHECK
 70
     0
  9
$PEXTMIN
 10
0.0
 20
0.0
 30
0.0
  9
$PEXTMAX
 10
0.0
 20
0.0
 30
0.0
  9
$PLIMMIN
 10
0.0
 20
0.0
  9
$PLIMMAX
 10
12.0
 20
9.0
  9
$UNITMODE
 70
     0
  9
$VISRETAIN
 70
     1
  9
$PLINEGEN
 70
     0
  9
$PSLTSCALE
 70
     1
  0
ENDSEC
  0
SECTION
  2
TABLES
  0
TABLE
  2
VPORT
 70
     1
  0
VPORT
  2
*ACTIVE
 70
     0
 10
0.0
 20
0.0
 11
1.0
 21
1.0
 12
10.54546198983018
 22
28.2829139702972689
 13
0.0
 23
0.0
 14
10.0
 24
10.0
 15
10.0
 25
10.0
 16
0.0
 26
0.0
 36
1.0
 17
0.0
 27
0.0
 37
0.0
 40
53.1964956195243488
 41
2.0388471177944858
 42
50.0
 43
0.0
 44
0.0
 50
0.0
 51
0.0
 71
     0
 72
  1000
 73
     1
 74
     3
 75
     0
 76
     0
 77
     0
 78
     0
  0
ENDTAB
  0
TABLE
  2
LTYPE
 70
     1
  0
LTYPE
  2
CONTINUOUS
 70
     0
  3
Solid line
 72
    65
 73
     0
 40
0.0
  0
ENDTAB
  0
TABLE
  2
LAYER
 70
     1
  0
LAYER
  2
0
 70
     0
 62
     7
  6
CONTINUOUS
  0
ENDTAB
  0
TABLE
  2
STYLE
 70
     3
  0
STYLE
  2
STANDARD
 70
     0
 40
0.0
 41
1.0
 50
0.0
 71
     0
 42
2.5
  3
txt
  4

  0
STYLE
  2
ANNOTATIVE
 70
     0
 40
0.0
 41
1.0
 50
0.0
 71
     0
 42
2.5
  3
txt
  4

  0
STYLE
  2
ROMANT
 70
     0
 40
2.2000000000000002
 41
1.0
 50
0.0
 71
     0
 42
2.5
  3
romant.shx
  4

  0
ENDTAB
  0
TABLE
  2
VIEW
 70
     0
  0
ENDTAB
  0
TABLE
  2
UCS
 70
     0
  0
ENDTAB
  0
TABLE
  2
APPID
 70
    10
  0
APPID
  2
ACAD
 70
     0
  0
APPID
  2
ACAD_PSEXT
 70
     0
  0
APPID
  2
ACADANNOPO
 70
     0
  0
APPID
  2
ACADANNOTATIVE
 70
     0
  0
APPID
  2
ACAD_DSTYLE_DIMJAG
 70
     0
  0
APPID
  2
ACAD_DSTYLE_DIMTALN
 70
     0
  0
APPID
  2
ACAD_MLEADERVER
 70
     0
  0
APPID
  2
ACAD_NAV_VCDISPLAY
 70
     0
  0
APPID
  2
GRADIENTCOLOR1ACI
 70
     0
  0
APPID
  2
GRADIENTCOLOR2ACI
 70
     0
  0
ENDTAB
  0
TABLE
  2
DIMSTYLE
 70
     4
  0
DIMSTYLE
  2
STANDARD
 70
     0
  3

  4

  5

  6

  7

 40
1.0
 41
0.18
 42
0.0625
 43
0.38
 44
0.18
 45
0.0
 46
0.0
 47
0.0
 48
0.0
140
0.18
141
0.09
142
0.0
143
25.3999999999999986
144
1.0
145
0.0
146
1.0
147
0.09
 71
     0
 72
     0
 73
     1
 74
     1
 75
     0
 76
     0
 77
     0
 78
     0
170
     0
171
     2
172
     0
173
     0
174
     0
175
     0
176
     0
177
     0
178
     0
  0
DIMSTYLE
  2
ANNOTATIVE
 70
     0
  3

  4

  5

  6

  7

 40
0.0
 41
2.5
 42
0.625
 43
3.75
 44
1.25
 45
0.0
 46
0.0
 47
0.0
 48
0.0
140
2.5
141
2.5
142
0.0
143
0.03937007874016
144
1.0
145
0.0
146
1.0
147
0.625
 71
     0
 72
     0
 73
     0
 74
     0
 75
     0
 76
     0
 77
     1
 78
     8
170
     0
171
     3
172
     1
173
     0
174
     0
175
     0
176
     0
177
     0
178
     0
  0
DIMSTYLE
  2
ISO-25
 70
     0
  3

  4

  5

  6

  7

 40
1.0
 41
2.5
 42
0.625
 43
3.75
 44
1.25
 45
0.0
 46
0.0
 47
0.0
 48
0.0
140
2.5
141
2.5
142
0.0
143
0.03937007874016
144
1.0
145
0.0
146
1.0
147
0.625
 71
     0
 72
     0
 73
     0
 74
     0
 75
     0
 76
     0
 77
     1
 78
     8
170
     0
171
     3
172
     1
173
     0
174
     0
175
     0
176
     0
177
     0
178
     0
  0
DIMSTYLE
  2
MELÝH_A3
 70
     0
  3

  4

  5

  6

  7

 40
1.0
 41
1.3
 42
0.0
 43
3.75
 44
0.2
 45
0.0
 46
0.0
 47
0.0
 48
0.0
140
1.0
141
0.2
142
0.0
143
0.03937007874016
144
1.0
145
0.0
146
1.0
147
0.7
 71
     0
 72
     0
 73
     0
 74
     0
 75
     0
 76
     0
 77
     1
 78
     8
170
     0
171
     3
172
     0
173
     0
174
     0
175
     0
176
   242
177
   242
178
   242
  0
ENDTAB
  0
ENDSEC
  0
SECTION
  2
BLOCKS
  0
BLOCK
  8
0
  2
$MODEL_SPACE
 70
     0
 10
0.0
 20
0.0
 30
0.0
  3
$MODEL_SPACE
  1

  0
ENDBLK
  5
21
  8
0
  0
BLOCK
 67
     1
  8
0
  2
$PAPER_SPACE
 70
     0
 10
0.0
 20
0.0
 30
0.0
  3
$PAPER_SPACE
  1

  0
ENDBLK
  5
D5
 67
     1
  8
0
  0
BLOCK
  8
0
  2
*X2
 70
     1
 10
0.0
 20
0.0
 30
0.0
  3
*X2
  1

  0
LINE
  5
346
  8
0
 62
     0
 10
16.3365217242837808
 20
-0.0000001590067313
 30
0.0
 11
17.4999996445737906
 21
1.1634777612832741
 31
0.0
  0
LINE
  5
347
  8
0
 62
     0
 10
16.299999644573969
 20
1.310516179443538
 30
0.0
 11
17.4999996445737906
 21
2.510516179443357
 31
0.0
  0
LINE
  5
348
  8
0
 62
     0
 10
15.0237205158762208
 20
0.0342370507457872
 30
0.0
 11
16.1894833061230585
 21
1.199999840992632
 31
0.0
  0
LINE
  5
349
  8
0
 62
     0
 10
16.2999996445737416
 20
2.6575545976038479
 30
0.0
 11
17.4999996445735597
 21
3.857554597603666
 31
0.0
  0
LINE
  5
34A
  8
0
 62
     0
 10
16.299999644573969
 20
4.0045930157646117
 30
0.0
 11
17.4999996445735597
 21
5.2045930157642033
 31
0.0
  0
LINE
  5
34B
  8
0
 62
     0
 10
16.299999644573969
 20
5.3516314339246938
 30
0.0
 11
17.4999996445737906
 21
6.5516314339245119
 31
0.0
  0
LINE
  5
34C
  8
0
 62
     0
 10
16.299999644573969
 20
6.6986698520852306
 30
0.0
 11
17.4999996445737906
 21
7.8986698520850487
 31
0.0
  0
LINE
  5
34D
  8
0
 62
     0
 10
16.2999996445737416
 20
8.0457082702455391
 30
0.0
 11
17.4999996445735597
 21
9.245708270245359
 31
0.0
  0
LINE
  5
34E
  8
0
 62
     0
 10
15.4087982035459792
 20
8.5015452473778623
 30
0.0
 11
17.4999996445737906
 21
10.5927466884056702
 31
0.0
  0
LINE
  5
34F
  8
0
 62
     0
 10
16.299999644573969
 20
10.7397851065663907
 30
0.0
 11
17.4999996445737906
 21
11.9397851065662
 31
0.0
  0
LINE
  5
350
  8
0
 62
     0
 10
16.299999644573969
 20
12.0868235247269205
 30
0.0
 11
17.4999996445735597
 21
13.2868235247265094
 31
0.0
  0
LINE
  5
351
  8
0
 62
     0
 10
16.2999996445737416
 20
13.4338619428867805
 30
0.0
 11
17.4999996445735597
 21
14.6338619428865897
 31
0.0
  0
LINE
  5
352
  8
0
 62
     0
 10
16.2999996445741999
 20
14.7809003610477703
 30
0.0
 11
17.4999996445737906
 21
15.9809003610473592
 31
0.0
  0
LINE
  5
353
  8
0
 62
     0
 10
1.5190991245196981
 20
-0.0000001590067313
 30
0.0
 11
2.5759940554412419
 21
1.0568947719148121
 31
0.0
  0
LINE
  5
354
  8
0
 62
     0
 10
16.2999996445741999
 20
16.1279387792078488
 30
0.0
 11
17.4999996445737906
 21
17.3279387792074395
 31
0.0
  0
LINE
  5
355
  8
0
 62
     0
 10
0.1921262101789125
 20
0.020065344812565
 30
0.0
 11
1.3720607063594339
 21
1.1999998409930861
 31
0.0
  0
LINE
  5
356
  8
0
 62
     0
 10
16.2999996445741999
 20
17.4749771973683892
 30
0.0
 11
17.4999996445735597
 21
18.674977197367749
 31
0.0
  0
LINE
  5
357
  8
0
 62
     0
 10
-0.0000003554264367
 20
1.1749771973677521
 30
0.0
 11
1.19999964457429
 21
2.3749771973684801
 31
0.0
  0
LINE
  5
358
  8
0
 62
     0
 10
16.2999996445741999
 20
18.8220156155284712
 30
0.0
 11
17.4999996445740109
 21
20.0220156155282893
 31
0.0
  0
LINE
  5
359
  8
0
 62
     0
 10
-0.0000003554264367
 20
2.5220156155278342
 30
0.0
 11
1.1999996445740631
 21
3.7220156155283339
 31
0.0
  0
LINE
  5
35A
  8
0
 62
     0
 10
15.9309454518781894
 20
19.7999998409929887
 30
0.0
 11
17.4999996445737906
 21
21.3690540336885988
 31
0.0
  0
LINE
  5
35B
  8
0
 62
     0
 10
-0.0000003554262094
 20
3.8690540336885979
 30
0.0
 11
1.1999996445736081
 21
5.069054033688416
 31
0.0
  0
LINE
  5
35C
  8
0
 62
     0
 10
14.9366065151266394
 20
20.1526993224019897
 30
0.0
 11
15.6839070337175599
 21
20.8999998409929084
 31
0.0
  0
LINE
  5
35D
  8
0
 62
     0
 10
16.2999996445741999
 20
21.5160924518495484
 30
0.0
 11
17.4999996445735597
 21
22.7160924518489082
 31
0.0
  0
LINE
  5
35E
  8
0
 62
     0
 10
-0.0000003554264367
 20
5.2160924518489082
 30
0.0
 11
1.1999996445733809
 21
6.4160924518487263
 31
0.0
  0
LINE
  5
35F
  8
0
 62
     0
 10
1.936868615557386
 20
8.4999998409928121
 30
0.0
 11
2.5902048178975292
 21
9.1533360433329563
 31
0.0
  0
LINE
  5
360
  8
0
 62
     0
 10
16.2999996445746511
 20
22.8631308700100817
 30
0.0
 11
17.4999996445737906
 21
24.0631308700092212
 31
0.0
  0
LINE
  5
361
  8
0
 62
     0
 10
-0.0000003554264367
 20
6.5631308700089903
 30
0.0
 11
1.1999996445733809
 21
7.7631308700088084
 31
0.0
  0
LINE
  5
362
  8
0
 62
     0
 10
16.2999996445744202
 20
24.2101692881703912
 30
0.0
 11
17.4999996445737906
 21
25.4101692881697616
 31
0.0
  0
LINE
  5
363
  8
0
 62
     0
 10
-0.0000003554262094
 20
7.9101692881697536
 30
0.0
 11
1.689830197396986
 21
9.5999998409929503
 31
0.0
  0
LINE
  5
364
  8
0
 62
     0
 10
16.2999996445741999
 20
25.5572077063307006
 30
0.0
 11
17.4999996445737906
 21
26.7572077063302913
 31
0.0
  0
LINE
  5
365
  8
0
 62
     0
 10
-0.0000003554264367
 20
9.2572077063300622
 30
0.0
 11
1.199999644574518
 21
10.4572077063310207
 31
0.0
  0
LINE
  5
366
  8
0
 62
     0
 10
16.2999996445741999
 20
26.9042461244907791
 30
0.0
 11
17.4999996445737906
 21
28.1042461244903805
 31
0.0
  0
LINE
  5
367
  8
0
 62
     0
 10
-0.0000003554262094
 20
10.6042461244903699
 30
0.0
 11
1.1999996445740631
 21
11.8042461244906391
 31
0.0
  0
LINE
  5
368
  8
0
 62
     0
 10
16.2999996445744202
 20
28.2512845426515504
 30
0.0
 11
17.4999996445740109
 21
29.4512845426511412
 31
0.0
  0
LINE
  5
369
  8
0
 62
     0
 10
-0.0000003554262094
 20
11.9512845426509102
 30
0.0
 11
1.1999996445740631
 21
13.1512845426511795
 31
0.0
  0
LINE
  5
36A
  8
0
 62
     0
 10
16.2999996445741999
 20
29.5983229608118599
 30
0.0
 11
17.4999996445737906
 21
30.7983229608114506
 31
0.0
  0
LINE
  5
36B
  8
0
 62
     0
 10
-0.0000003554264367
 20
13.2983229608112197
 30
0.0
 11
1.1999996445738359
 21
14.4983229608114907
 31
0.0
  0
LINE
  5
36C
  8
0
 62
     0
 10
16.2999996445741999
 20
30.9453613789719384
 30
0.0
 11
17.4999996445737906
 21
32.1453613789715291
 31
0.0
  0
LINE
  5
36D
  8
0
 62
     0
 10
-0.0000003554262094
 20
14.6453613789715291
 30
0.0
 11
1.1999996445736081
 21
15.8453613789713401
 31
0.0
  0
LINE
  5
36E
  8
0
 62
     0
 10
15.1789989788755904
 20
31.1713991314338692
 30
0.0
 11
16.2075996884348115
 21
32.1999998409930868
 31
0.0
  0
LINE
  5
36F
  8
0
 62
     0
 10
16.2999996445744202
 20
32.2923997971327026
 30
0.0
 11
17.4999996445735597
 21
33.4923997971318386
 31
0.0
  0
LINE
  5
370
  8
0
 62
     0
 10
-0.0000003554264367
 20
15.9923997971318403
 30
0.0
 11
1.1999996445733809
 21
17.1923997971316496
 31
0.0
  0
LINE
  5
371
  8
0
 62
     0
 10
16.2999996445741999
 20
33.639438215293012
 30
0.0
 11
17.4999996445737906
 21
34.8394382152926099
 31
0.0
  0
LINE
  5
372
  8
0
 62
     0
 10
-0.0000003554266641
 20
17.3394382152921516
 30
0.0
 11
1.199999644573154
 21
18.539438215291959
 31
0.0
  0
LINE
  5
373
  8
0
 62
     0
 10
16.2999996445744202
 20
34.9864766334533215
 30
0.0
 11
17.4999996445737906
 21
36.1864766334526919
 31
0.0
  0
LINE
  5
374
  8
0
 62
     0
 10
-0.0000003554262094
 20
18.6864766334526813
 30
0.0
 11
2.1942652071688822
 21
20.8807421960477804
 31
0.0
  0
LINE
  5
375
  8
0
 62
     0
 10
16.2999996445741999
 20
36.3335150516136309
 30
0.0
 11
17.4999996445735597
 21
37.5335150516130014
 31
0.0
  0
LINE
  5
376
  8
0
 62
     0
 10
-0.0000003554264367
 20
20.0335150516129907
 30
0.0
 11
1.19999964457429
 21
21.2335150516137183
 31
0.0
  0
LINE
  5
377
  8
0
 62
     0
 10
15.8194460157933392
 20
37.199999840993307
 30
0.0
 11
17.4999996445735597
 21
38.8805534697735311
 31
0.0
  0
LINE
  5
378
  8
0
 62
     0
 10
-0.0000003554266641
 20
21.3805534697733002
 30
0.0
 11
1.1999996445738359
 21
22.5805534697738004
 31
0.0
  0
LINE
  5
379
  8
0
 62
     0
 10
14.4724075976332607
 20
37.199999840993307
 30
0.0
 11
15.6724075976330806
 21
38.3999998409931322
 31
0.0
  0
LINE
  5
37A
  8
0
 62
     0
 10
16.2999996445737416
 20
39.0275918879338022
 30
0.0
 11
17.4999996445737906
 21
40.2275918879338406
 31
0.0
  0
LINE
  5
37B
  8
0
 62
     0
 10
-0.0000003554262094
 20
22.7275918879338406
 30
0.0
 11
1.19999964457429
 21
23.9275918879343408
 31
0.0
  0
LINE
  5
37C
  8
0
 62
     0
 10
13.2722552374737006
 20
37.3468858989942873
 30
0.0
 11
14.4819790389005902
 21
38.556609700421177
 31
0.0
  0
LINE
  5
37D
  8
0
 62
     0
 10
16.2999996445735214
 20
40.3746303060940974
 30
0.0
 11
17.4999996445737906
 21
41.5746303060943703
 31
0.0
  0
LINE
  5
37E
  8
0
 62
     0
 10
-0.0000003554264367
 20
24.07463030609415
 30
0.0
 11
1.1999996445738359
 21
25.2746303060944193
 31
0.0
  0
LINE
  5
37F
  8
0
 62
     0
 10
12.4783307613115504
 20
37.8999998409926775
 30
0.0
 11
13.6783307613120506
 21
39.0999998409931777
 31
0.0
  0
LINE
  5
380
  8
0
 62
     0
 10
16.2999996445732904
 20
41.7216687242544069
 30
0.0
 11
17.4999996445735597
 21
42.9216687242546797
 31
0.0
  0
LINE
  5
381
  8
0
 62
     0
 10
-0.0000003554264367
 20
25.4216687242546904
 30
0.0
 11
1.199999644573154
 21
26.6216687242542811
 31
0.0
  0
LINE
  5
382
  8
0
 62
     0
 10
11.1312923431514701
 20
37.8999998409926775
 30
0.0
 11
12.3312923431515191
 21
39.099999840992723
 31
0.0
  0
LINE
  5
383
  8
0
 62
     0
 10
16.2999996445737416
 20
43.0687071424149508
 30
0.0
 11
17.4999996445737906
 21
44.2687071424149892
 31
0.0
  0
LINE
  5
384
  8
0
 62
     0
 10
-0.0000003554262094
 20
26.7687071424149998
 30
0.0
 11
1.199999644572926
 21
27.9687071424141287
 31
0.0
  0
LINE
  5
385
  8
0
 62
     0
 10
9.7842539249911624
 20
37.899999840992912
 30
0.0
 11
11.9052601166076801
 21
40.0210060326094208
 31
0.0
  0
LINE
  5
386
  8
0
 62
     0
 10
16.2999996445735214
 20
44.4157455605752602
 30
0.0
 11
17.4999996445737906
 21
45.6157455605755331
 31
0.0
  0
LINE
  5
387
  8
0
 62
     0
 10
-0.0000003554264367
 20
28.1157455605753093
 30
0.0
 11
1.199999644573154
 21
29.3157455605749
 31
0.0
  0
LINE
  5
388
  8
0
 62
     0
 10
8.4372155068306256
 20
37.899999840992912
 30
0.0
 11
9.7858268698046231
 21
39.2486112039669024
 31
0.0
  0
LINE
  5
389
  8
0
 62
     0
 10
10.72350175450992
 20
40.1862860886721975
 30
0.0
 11
11.9430360477651902
 21
41.4058203819274624
 31
0.0
  0
LINE
  5
38A
  8
0
 62
     0
 10
1.6372155068311249
 20
31.0999998409934086
 30
0.0
 11
2.5014168647564921
 21
31.9642011989187793
 31
0.0
  0
LINE
  5
38B
  8
0
 62
     0
 10
16.2999996445735214
 20
45.76278397873579
 30
0.0
 11
17.4999996445735597
 21
46.9627839787358425
 31
0.0
  0
LINE
  5
38C
  8
0
 62
     0
 10
-0.0000003554264367
 20
29.462783978735839
 30
0.0
 11
1.199999644572699
 21
30.6627839787349785
 31
0.0
  0
LINE
  5
38D
  8
0
 62
     0
 10
10.4409478236641409
 20
41.2507705759865075
 30
0.0
 11
11.5829462420331293
 21
42.3927689943554924
 31
0.0
  0
LINE
  5
38E
  8
0
 62
     0
 10
7.0901770886705426
 20
37.899999840992912
 30
0.0
 11
8.2992289095557226
 21
39.1090516618780768
 31
0.0
  0
LINE
  5
38F
  8
0
 62
     0
 10
16.2999996445735214
 20
47.109822396895872
 30
0.0
 11
17.4999996445735597
 21
48.3098223968959317
 31
0.0
  0
LINE
  5
390
  8
0
 62
     0
 10
-0.0000003554264367
 20
30.8098223968959317
 30
0.0
 11
1.39017708867027
 21
32.199999840992632
 31
0.0
  0
LINE
  5
391
  8
0
 62
     0
 10
9.9328519661751216
 20
42.0897131366580126
 30
0.0
 11
10.9940449861523994
 21
43.1509061566353012
 31
0.0
  0
LINE
  5
392
  8
0
 62
     0
 10
5.7431386705104606
 20
37.8999998409933596
 30
0.0
 11
7.2361504652103568
 21
39.3930116356932487
 31
0.0
  0
LINE
  5
393
  8
0
 62
     0
 10
16.2999996445732904
 20
48.4568608150561815
 30
0.0
 11
17.4999996445737906
 21
49.6568608150566888
 31
0.0
  0
LINE
  5
394
  8
0
 62
     0
 10
-0.0000003554266641
 20
32.156860815056227
 30
0.0
 11
1.199999644574518
 21
33.3568608150574235
 31
0.0
  0
LINE
  5
395
  8
0
 62
     0
 10
4.396100252350152
 20
37.8999998409931322
 30
0.0
 11
5.596100252350424
 21
39.0999998409934122
 31
0.0
  0
LINE
  5
396
  8
0
 62
     0
 10
5.8385873801414609
 20
39.3424869687844421
 30
0.0
 11
7.0096715164995649
 21
40.5135711051425389
 31
0.0
  0
LINE
  5
397
  8
0
 62
     0
 10
3.6961002523501061
 20
37.1999998409930868
 30
0.0
 11
4.2499996445731076
 21
37.7538992332160888
 31
0.0
  0
LINE
  5
398
  8
0
 62
     0
 10
16.2999996445737416
 20
49.8038992332167325
 30
0.0
 11
17.4999996445737906
 21
51.0038992332167709
 31
0.0
  0
LINE
  5
399
  8
0
 62
     0
 10
-0.0000003554262094
 20
33.5038992332167709
 30
0.0
 11
1.199999644574518
 21
34.7038992332174985
 31
0.0
  0
LINE
  5
39A
  8
0
 62
     0
 10
5.5274613538886106
 20
40.3783993606921285
 30
0.0
 11
7.7247852515524746
 21
42.5757232583559926
 31
0.0
  0
LINE
  5
39B
  8
0
 62
     0
 10
13.3491296120682801
 20
48.2000676188717989
 30
0.0
 11
14.2899996445737507
 21
49.1409376513772713
 31
0.0
  0
LINE
  5
39C
  8
0
 62
     0
 10
2.3490618341895688
 20
37.1999998409930868
 30
0.0
 11
4.249061834189888
 21
39.0999998409934122
 31
0.0
  0
LINE
  5
39D
  8
0
 62
     0
 10
16.2999996445735214
 20
51.150937651377042
 30
0.0
 11
17.4999996445735597
 21
52.3509376513770803
 31
0.0
  0
LINE
  5
39E
  8
0
 62
     0
 10
-0.0000003554264367
 20
34.8509376513770803
 30
0.0
 11
1.19999964457429
 21
36.0509376513778079
 31
0.0
  0
LINE
  5
39F
  8
0
 62
     0
 10
13.2017215856098993
 20
49.399698010573502
 30
0.0
 11
14.2899996445737507
 21
50.4879760695373534
 31
0.0
  0
LINE
  5
3A0
  8
0
 62
     0
 10
5.6861512867562851
 20
41.8841277117198771
 30
0.0
 11
7.2198222771783094
 21
43.4177987021419085
 31
0.0
  0
LINE
  5
3A1
  8
0
 62
     0
 10
15.4020234160293494
 20
51.5999998409929503
 30
0.0
 11
16.6020234160293896
 21
52.7999998409929887
 31
0.0
  0
LINE
  5
3A2
  8
0
 62
     0
 10
-0.0000003554264367
 20
36.1979760695371624
 30
0.0
 11
2.2020234160290779
 21
38.3999998409926775
 31
0.0
  0
LINE
  5
3A3
  8
0
 62
     0
 10
13.1184411959559402
 20
50.6634560390800814
 30
0.0
 11
15.2549849978690801
 21
52.7999998409932303
 31
0.0
  0
LINE
  5
3A4
  8
0
 62
     0
 10
-0.0000003554262094
 20
37.5450144876979266
 30
0.0
 11
1.199999644574518
 21
38.7450144876986613
 31
0.0
  0
LINE
  5
3A5
  8
0
 62
     0
 10
13.0999996445736997
 20
51.9920529058583725
 30
0.0
 11
13.9079465797083195
 21
52.7999998409929887
 31
0.0
  0
LINE
  5
3A6
  8
0
 62
     0
 10
-0.0000003554264367
 20
38.8920529058582432
 30
0.0
 11
1.19999964457429
 21
40.0920529058589565
 31
0.0
  0
LINE
  5
3A7
  8
0
 62
     0
 10
-0.0000003554264367
 20
40.2390913240183181
 30
0.0
 11
1.199999644574518
 21
41.4390913240192731
 31
0.0
  0
LINE
  5
3A8
  8
0
 62
     0
 10
-0.0000003554262094
 20
41.5861297421790823
 30
0.0
 11
1.19999964457429
 21
42.7861297421795825
 31
0.0
  0
LINE
  5
3A9
  8
0
 62
     0
 10
-0.0000003554264367
 20
42.9331681603393776
 30
0.0
 11
1.199999644574518
 21
44.1331681603403467
 31
0.0
  0
LINE
  5
3AA
  8
0
 62
     0
 10
3.9197929070674031
 20
48.199999840993307
 30
0.0
 11
4.3590302735997284
 21
48.639237207525639
 31
0.0
  0
LINE
  5
3AB
  8
0
 62
     0
 10
-0.0000003554262094
 20
44.2802065784997012
 30
0.0
 11
1.1999996445740631
 21
45.480206578499967
 31
0.0
  0
LINE
  5
3AC
  8
0
 62
     0
 10
3.209999644573827
 20
48.8372449966602673
 30
0.0
 11
4.3226389128135452
 21
49.9498842648999926
 31
0.0
  0
LINE
  5
3AD
  8
0
 62
     0
 10
-0.0000003554262094
 20
45.627244996660238
 30
0.0
 11
1.19999964457429
 21
46.8272449966607383
 31
0.0
  0
LINE
  5
3AE
  8
0
 62
     0
 10
3.2099996445735992
 20
50.1842834148205768
 30
0.0
 11
4.2862475520280441
 21
51.2605313222750283
 31
0.0
  0
LINE
  5
3AF
  8
0
 62
     0
 10
-0.0000003554264367
 20
46.9742834148205404
 30
0.0
 11
1.1999996445740631
 21
48.1742834148210477
 31
0.0
  0
LINE
  5
3B0
  8
0
 62
     0
 10
3.209999644574054
 20
51.5313218329811207
 30
0.0
 11
4.3616826150068837
 21
52.6830048034139509
 31
0.0
  0
LINE
  5
3B1
  8
0
 62
     0
 10
-0.0000003554262094
 20
48.3213218329808498
 30
0.0
 11
1.19999964457429
 21
49.5213218329813571
 31
0.0
  0
LINE
  5
3B2
  8
0
 62
     0
 10
1.931639234425347
 20
51.5999998409929503
 30
0.0
 11
3.1316392344251649
 21
52.7999998409927613
 31
0.0
  0
LINE
  5
3B3
  8
0
 62
     0
 10
-0.0000003554264367
 20
49.6683602511411593
 30
0.0
 11
1.1999996445740631
 21
50.8683602511416595
 31
0.0
  0
LINE
  5
3B4
  8
0
 62
     0
 10
-0.0000003554266641
 20
51.0153986693014687
 30
0.0
 11
1.784600816264855
 21
52.7999998409929887
 31
0.0
  0
LINE
  5
3B5
  8
0
 62
     0
 10
-0.0000003554262094
 20
52.3624370874620126
 30
0.0
 11
0.4375623981050012
 21
52.7999998409932303
 31
0.0
  0
ENDBLK
  5
3B7
  8
0
  0
BLOCK
  8
0
  2
*U3
 70
     1
 10
0.0
 20
0.0
 30
0.0
  3
*U3
  1

  0
ARC
  5
3B9
  8
0
 10
4.1450486509561406
 20
49.5972349879821124
 30
0.0
 40
0.2499999999981437
 50
292.2694996518566199
 51
12.5547339408295393
  0
LINE
  5
3BA
  8
0
 10
4.389070850861116
 20
49.6515780275792622
 30
0.0
 11
4.2099332871343904
 21
50.4559780521553876
 31
0.0
  0
ARC
  5
3BB
  8
0
 10
4.258737727026527
 20
50.466846659903922
 30
0.0
 40
0.0499999998758537
 50
112.2694994835516979
 51
192.5547337718155063
  0
ARC
  5
3BC
  8
0
 10
4.1450486509538669
 20
50.7444701349695606
 30
0.0
 40
0.2500000000004401
 50
292.2694996522964743
 51
12.5547339402358507
  0
LINE
  5
3BD
  8
0
 10
4.3890708508615708
 20
50.7988131745646498
 30
0.0
 11
4.2273253173411831
 21
51.5251159579265732
 31
0.0
  0
ARC
  5
3BE
  8
0
 10
4.3249341971054491
 20
51.546853173312229
 30
0.0
 40
0.0999999997076839
 50
119.9876292936767044
 51
192.5547337119988072
  0
ARC
  5
3BF
  8
0
 10
4.1499996445736542
 20
51.8499998409929503
 30
0.0
 40
0.2500000000000661
 50
299.9876295219053759
 51
359.9999999999478746
  0
LINE
  5
3C0
  8
0
 10
4.3999996445736542
 20
51.849999840992723
 30
0.0
 11
4.3999996445736542
 21
52.5499998409929887
 31
0.0
  0
ARC
  5
3C1
  8
0
 10
4.1499996445745628
 20
52.5499998409929887
 30
0.0
 40
0.2499999999990905
 50
0.0
 51
90.0000000001042082
  0
LINE
  5
3C2
  8
0
 10
4.1499996445741081
 20
52.7999998409920934
 30
0.0
 11
0.2999996445737452
 21
52.7999998409927613
 31
0.0
  0
ARC
  5
3C3
  8
0
 10
0.2999996445732904
 20
52.4999998409923592
 30
0.0
 40
0.3000000000004093
 50
89.9999999999131433
 51
179.9999999999130864
  0
LINE
  5
3C4
  8
0
 10
-0.0000003554264367
 20
52.4999998409928068
 30
0.0
 11
-0.0000003554264367
 21
0.2999998409923137
 31
0.0
  0
ARC
  5
3C5
  8
0
 10
0.2999996445728357
 20
0.2999998409923137
 30
0.0
 40
0.2999999999992724
 50
180.0
 51
270.0000000001737135
  0
LINE
  5
3C6
  8
0
 10
0.2999996445737452
 20
-0.0000001590069587
 30
0.0
 11
2.3499996445739271
 21
-0.0000001590071861
 31
0.0
  0
ARC
  5
3C7
  8
0
 10
2.3499996445739271
 20
0.2499998409928139
 30
0.0
 40
0.25
 50
270.0
 51
0.0
  0
LINE
  5
3C8
  8
0
 10
2.5999996445739271
 20
0.2499998409928139
 30
0.0
 11
2.5999996445739271
 21
0.9499998409928593
 31
0.0
  0
ARC
  5
3C9
  8
0
 10
2.3499996445739271
 20
0.9499998409928593
 30
0.0
 40
0.25
 50
0.0
 51
90.0
  0
LINE
  5
3CA
  8
0
 10
2.3499996445739271
 20
1.1999998409928589
 30
0.0
 11
1.19999964457429
 21
1.199999840992632
 31
0.0
  0
LINE
  5
3CB
  8
0
 10
1.19999964457429
 20
1.199999840992632
 30
0.0
 11
1.199999644572926
 21
8.4999998409930413
 31
0.0
  0
LINE
  5
3CC
  8
0
 10
1.199999644572926
 20
8.4999998409930413
 30
0.0
 11
2.04999964457329
 21
8.4999998409928121
 31
0.0
  0
ARC
  5
3CD
  8
0
 10
2.0499996445728348
 20
9.0499998409927684
 30
0.0
 40
0.5499999999999546
 50
270.0000000000474074
 51
89.9999999999526636
  0
LINE
  5
3CE
  8
0
 10
2.04999964457329
 20
9.5999998409927212
 30
0.0
 11
1.19999964457429
 21
9.5999998409927212
 31
0.0
  0
LINE
  5
3CF
  8
0
 10
1.19999964457429
 20
9.5999998409927212
 30
0.0
 11
1.199999644572926
 21
19.7999998409927684
 31
0.0
  0
LINE
  5
3D0
  8
0
 10
1.199999644572926
 20
19.7999998409927684
 30
0.0
 11
2.049999644574199
 21
19.7999998409927684
 31
0.0
  0
ARC
  5
3D1
  8
0
 10
2.0499996445737452
 20
20.3499998409927194
 30
0.0
 40
0.5499999999999546
 50
270.0000000000474074
 51
89.9999999999526636
  0
LINE
  5
3D2
  8
0
 10
2.049999644574199
 20
20.899999840992681
 30
0.0
 11
1.19999964457429
 21
20.899999840992681
 31
0.0
  0
LINE
  5
3D3
  8
0
 10
1.19999964457429
 20
20.899999840992681
 30
0.0
 11
1.199999644572471
 21
31.0999998409929503
 31
0.0
  0
LINE
  5
3D4
  8
0
 10
1.199999644572471
 20
31.0999998409929503
 30
0.0
 11
2.0499996445737452
 21
31.0999998409927194
 31
0.0
  0
ARC
  5
3D5
  8
0
 10
2.049999644574199
 20
31.6499998409924501
 30
0.0
 40
0.5499999999997272
 50
269.9999999999525926
 51
89.9999999999525784
  0
LINE
  5
3D6
  8
0
 10
2.0499996445746538
 20
32.1999998409921773
 30
0.0
 11
1.19999964457429
 21
32.199999840992632
 31
0.0
  0
LINE
  5
3D7
  8
0
 10
1.19999964457429
 20
32.199999840992632
 30
0.0
 11
1.19999964457429
 21
37.1999998409928594
 31
0.0
  0
LINE
  5
3D8
  8
0
 10
1.19999964457429
 20
37.1999998409928594
 30
0.0
 11
3.9999996445735628
 21
37.1999998409928594
 31
0.0
  0
ARC
  5
3D9
  8
0
 10
3.9999996445735628
 20
37.4499998409928594
 30
0.0
 40
0.25
 50
270.0
 51
0.0
  0
LINE
  5
3DA
  8
0
 10
4.2499996445735633
 20
37.4499998409928594
 30
0.0
 11
4.2499996445731076
 21
37.7999998409925411
 31
0.0
  0
ARC
  5
3DB
  8
0
 10
4.3499996445739271
 20
37.7999998409923066
 30
0.0
 40
0.1000000000005912
 50
90.0000000007816539
 51
179.9999999998696865
  0
LINE
  5
3DC
  8
0
 10
4.3499996445730167
 20
37.899999840992912
 30
0.0
 11
13.1499996445736507
 21
37.8999998409922227
 31
0.0
  0
ARC
  5
3DD
  8
0
 10
13.1499996445727394
 20
37.7999998409918589
 30
0.0
 40
0.1000000000003638
 50
0.0
 51
89.9999999990880752
  0
LINE
  5
3DE
  8
0
 10
13.2499996445726502
 20
37.7999998409925411
 30
0.0
 11
13.2499996445735597
 21
37.4499998409928594
 31
0.0
  0
ARC
  5
3DF
  8
0
 10
13.4999996445735597
 20
37.4499998409928594
 30
0.0
 40
0.25
 50
180.0
 51
270.0
  0
LINE
  5
3E0
  8
0
 10
13.4999996445735597
 20
37.1999998409928594
 30
0.0
 11
16.2999996445741999
 21
37.1999998409928594
 31
0.0
  0
LINE
  5
3E1
  8
0
 10
16.2999996445741999
 20
37.1999998409928594
 30
0.0
 11
16.2999996445741999
 21
32.199999840992632
 31
0.0
  0
LINE
  5
3E2
  8
0
 10
16.2999996445741999
 20
32.199999840992632
 30
0.0
 11
15.4499996445733796
 21
32.199999840992632
 31
0.0
  0
ARC
  5
3E3
  8
0
 10
15.4499996445738308
 20
31.649999840992681
 30
0.0
 40
0.5499999999999546
 50
90.0000000000473648
 51
269.9999999999525926
  0
LINE
  5
3E4
  8
0
 10
15.4499996445733796
 20
31.0999998409927194
 30
0.0
 11
16.2999996445741999
 21
31.0999998409927194
 31
0.0
  0
LINE
  5
3E5
  8
0
 10
16.2999996445741999
 20
31.0999998409927194
 30
0.0
 11
16.2999996445741999
 21
20.8999998409924501
 31
0.0
  0
LINE
  5
3E6
  8
0
 10
16.2999996445741999
 20
20.8999998409924501
 30
0.0
 11
15.4499996445729195
 21
20.899999840992681
 31
0.0
  0
ARC
  5
3E7
  8
0
 10
15.4499996445733796
 20
20.3499998409927194
 30
0.0
 40
0.5499999999999546
 50
90.0000000000473648
 51
269.9999999999525926
  0
LINE
  5
3E8
  8
0
 10
15.4499996445729195
 20
19.7999998409927684
 30
0.0
 11
16.2999996445741999
 21
19.7999998409925411
 31
0.0
  0
LINE
  5
3E9
  8
0
 10
16.2999996445741999
 20
19.7999998409925411
 30
0.0
 11
16.2999996445737416
 21
9.5999998409927212
 31
0.0
  0
LINE
  5
3EA
  8
0
 10
16.2999996445737416
 20
9.5999998409927212
 30
0.0
 11
15.4499996445738308
 21
9.5999998409931777
 31
0.0
  0
ARC
  5
3EB
  8
0
 10
15.4499996445738308
 20
9.0499998409929958
 30
0.0
 40
0.5500000000001819
 50
90.0
 51
270.0
  0
LINE
  5
3EC
  8
0
 10
15.4499996445738308
 20
8.4999998409928121
 30
0.0
 11
16.2999996445737416
 21
8.4999998409925865
 31
0.0
  0
LINE
  5
3ED
  8
0
 10
16.2999996445737416
 20
8.4999998409925865
 30
0.0
 11
16.2999996445737416
 21
1.199999840992632
 31
0.0
  0
LINE
  5
3EE
  8
0
 10
16.2999996445737416
 20
1.199999840992632
 30
0.0
 11
15.1499996445741107
 21
1.199999840992632
 31
0.0
  0
ARC
  5
3EF
  8
0
 10
15.1499996445741107
 20
0.949999840992632
 30
0.0
 40
0.25
 50
90.0
 51
180.0
  0
LINE
  5
3F0
  8
0
 10
14.8999996445741107
 20
0.949999840992632
 30
0.0
 11
14.8999996445741107
 21
0.2499998409928139
 31
0.0
  0
ARC
  5
3F1
  8
0
 10
15.1499996445741107
 20
0.2499998409928139
 30
0.0
 40
0.25
 50
180.0
 51
270.0
  0
LINE
  5
3F2
  8
0
 10
15.1499996445741107
 20
-0.0000001590071861
 30
0.0
 11
17.1999996445733814
 21
-0.0000001590071861
 31
0.0
  0
ARC
  5
3F3
  8
0
 10
17.1999996445742909
 20
0.2999998409916316
 30
0.0
 40
0.2999999999988176
 50
269.9999999998262865
 51
0.0000000002171063
  0
LINE
  5
3F4
  8
0
 10
17.4999996445735597
 20
0.2999998409927684
 30
0.0
 11
17.4999996445735597
 21
52.4999998409935031
 31
0.0
  0
ARC
  5
3F5
  8
0
 10
17.1999996445742909
 20
52.4999998409935031
 30
0.0
 40
0.2999999999992724
 50
0.0
 51
90.0000000001736993
  0
LINE
  5
3F6
  8
0
 10
17.1999996445733814
 20
52.7999998409927613
 30
0.0
 11
13.3499996445734705
 21
52.7999998409927613
 31
0.0
  0
ARC
  5
3F7
  8
0
 10
13.3499996445739306
 20
52.5499998409913971
 30
0.0
 40
0.2500000000013642
 50
90.0000000001042082
 51
179.9999999996873044
  0
LINE
  5
3F8
  8
0
 10
13.0999996445730194
 20
52.5499998409927684
 30
0.0
 11
13.0999996445734705
 21
51.849999840992723
 31
0.0
  0
ARC
  5
3F9
  8
0
 10
13.3499996445734705
 20
51.849999840992723
 30
0.0
 40
0.25
 50
180.0
 51
240.0123704780945957
  0
ARC
  5
3FA
  8
0
 10
13.1750650920421304
 20
51.546853173312229
 30
0.0
 40
0.0999999997073428
 50
347.4452662879444915
 51
60.0123707064838499
  0
LINE
  5
3FB
  8
0
 10
13.2726739718059399
 20
51.5251159579265732
 30
0.0
 11
13.1109284382855495
 21
50.7988131745651117
 31
0.0
  0
ARC
  5
3FC
  8
0
 10
13.3549506381928005
 20
50.744470134969113
 30
0.0
 40
0.2500000000002131
 50
167.4452660595381133
 51
247.7305003477605965
  0
ARC
  5
3FD
  8
0
 10
13.2412615621187797
 20
50.4668466599030126
 30
0.0
 40
0.0499999998773454
 50
347.4452662296549192
 51
67.7305005149142971
  0
LINE
  5
3FE
  8
0
 10
13.2900660020127308
 20
50.4559780521551602
 30
0.0
 11
13.1109284382860096
 21
49.6515780275790419
 31
0.0
  0
ARC
  5
3FF
  8
0
 10
13.3549506381923493
 20
49.597234987983029
 30
0.0
 40
0.2499999999993253
 50
167.4452660594926954
 51
247.7305003479337131
  0
ARC
  5
400
  8
0
 10
13.2412615621192309
 20
49.3196115129169428
 30
0.0
 40
0.0499999998773454
 50
347.4452662296549192
 51
67.7305005149142971
  0
LINE
  5
401
  8
0
 10
13.2900660020131909
 20
49.3087429051690833
 30
0.0
 11
13.1109284382855495
 21
48.5043428805888581
 31
0.0
  0
ARC
  5
402
  8
0
 10
13.3549506381932606
 20
48.4499998409939892
 30
0.0
 40
0.2500000000004098
 50
167.4452660598149976
 51
269.999999999895806
  0
LINE
  5
403
  8
0
 10
13.3549506381928005
 20
48.199999840993307
 30
0.0
 11
14.0399996445735304
 21
48.1999998409930797
 31
0.0
  0
ARC
  5
404
  8
0
 10
14.0399996445735304
 20
48.4499998409930868
 30
0.0
 40
0.25
 50
270.0
 51
0.0
  0
LINE
  5
405
  8
0
 10
14.2899996445735304
 20
48.4499998409930868
 30
0.0
 11
14.2899996445735304
 21
51.599999840992723
 31
0.0
  0
LINE
  5
406
  8
0
 10
14.2899996445735304
 20
51.599999840992723
 30
0.0
 11
16.2999996445732904
 21
51.599999840992723
 31
0.0
  0
LINE
  5
407
  8
0
 10
16.2999996445732904
 20
51.599999840992723
 30
0.0
 11
16.2999996445732904
 21
38.3999998409926775
 31
0.0
  0
LINE
  5
408
  8
0
 10
16.2999996445732904
 20
38.3999998409926775
 30
0.0
 11
14.7299106354989799
 21
38.3999998409926775
 31
0.0
  0
ARC
  5
409
  8
0
 10
14.7299106354980704
 20
38.649999840991768
 30
0.0
 40
0.2499999999990862
 50
219.9716977106467937
 51
270.000000000208388
  0
LINE
  5
40A
  8
0
 10
14.5383201689378403
 20
38.4893975585585011
 30
0.0
 11
14.1763545320654902
 21
38.9212044058608626
 31
0.0
  0
ARC
  5
40B
  8
0
 10
13.7931735989459394
 20
38.5999998409972704
 30
0.0
 40
0.4999999999955766
 50
39.9716977104541726
 51
90.0000000002084306
  0
LINE
  5
40C
  8
0
 10
13.7931735989441204
 20
39.099999840992723
 30
0.0
 11
11.8568469211309093
 21
39.0999998409925027
 31
0.0
  0
ARC
  5
40D
  8
0
 10
11.8568469211309093
 20
39.2999998409925411
 30
0.0
 40
0.2000000000000662
 50
154.2285382592069141
 51
270.0
  0
ARC
  5
40E
  8
0
 10
8.7499996445708348
 20
40.7999998410091393
 30
0.0
 40
3.2499999999881291
 50
334.2285382590388281
 51
54.1632203985174314
  0
ARC
  5
40F
  8
0
 10
10.4771603248004794
 20
43.1915298919254766
 30
0.0
 40
0.3000000000276994
 50
54.1632204035283067
 51
150.0000000049211906
  0
LINE
  5
410
  8
0
 10
10.2173527036284195
 20
43.3415298919169274
 30
0.0
 11
9.7639646340658146
 21
42.5562387198895067
 31
0.0
  0
ARC
  5
411
  8
0
 10
10.0237722551996704
 20
42.4062387198894086
 30
0.0
 40
0.2999999999987705
 50
149.9999999998443059
 51
231.585031915072193
  0
ARC
  5
412
  8
0
 10
8.7499996446044861
 20
40.7999998409145519
 30
0.0
 40
1.7499999999602729
 50
353.1477266486112967
 51
51.5850319173333887
  0
ARC
  5
413
  8
0
 10
10.7357137844446697
 20
40.5613801546428405
 30
0.0
 40
0.2499999999995899
 50
173.1477266460570092
 51
252.6743531815561141
  0
ARC
  5
414
  8
0
 10
10.6314830089636398
 20
40.2272604972711108
 30
0.0
 40
0.0999999999998535
 50
343.0693104951647001
 51
72.6743531816213988
  0
ARC
  5
415
  8
0
 10
8.749999644574018
 20
40.7999998409920934
 30
0.0
 40
2.066725706935387
 50
307.5560610954614162
 51
343.0693104952742942
  0
ARC
  5
416
  8
0
 10
9.9487925078933586
 20
39.2408636451539223
 30
0.0
 40
0.1000000000004898
 50
217.9510184097416072
 51
307.5560610952633169
  0
ARC
  5
417
  8
0
 10
9.6728046319367422
 20
39.0256179893890476
 30
0.0
 40
0.2500000000005039
 50
37.9510184092756617
 51
117.4776449444469932
  0
ARC
  5
418
  8
0
 10
8.7499996445731085
 20
40.7999998409938982
 30
0.0
 40
1.7500000000011271
 50
242.5223550555072052
 51
297.4776449445259914
  0
ARC
  5
419
  8
0
 10
7.8271946572103843
 20
39.0256179893906392
 30
0.0
 40
0.2499999999992124
 50
62.5223550553606131
 51
142.0489815909068056
  0
ARC
  5
41A
  8
0
 10
7.5512067812533132
 20
39.2408636451523307
 30
0.0
 40
0.0999999999996153
 50
232.443938904625611
 51
322.0489815911375899
  0
ARC
  5
41B
  8
0
 10
8.7499996445781107
 20
40.7999998409959517
 30
0.0
 40
2.0667257069416691
 50
196.9306895047841124
 51
232.4439389045016924
  0
ARC
  5
41C
  8
0
 10
6.8685162801843944
 20
40.2272604972704286
 30
0.0
 40
0.1000000000010097
 50
107.3256468187208981
 51
196.9306895042338112
  0
ARC
  5
41D
  8
0
 10
6.7642855047033663
 20
40.5613801546421584
 30
0.0
 40
0.2499999999983882
 50
287.3256468183070069
 51
6.852273354122981
  0
ARC
  5
41E
  8
0
 10
8.7499996445744728
 20
40.7999998409927613
 30
0.0
 40
1.750000000000814
 50
128.4149680850765947
 51
186.8522733538086982
  0
ARC
  5
41F
  8
0
 10
7.476227033959276
 20
42.4062387199505721
 30
0.0
 40
0.2999999999576807
 50
308.414968075860827
 51
29.9999999912493784
  0
LINE
  5
420
  8
0
 10
7.7360346550808572
 20
42.556238719889727
 30
0.0
 11
7.2826465855187053
 21
43.3415298919167071
 31
0.0
  0
ARC
  5
421
  8
0
 10
7.0228389643834808
 20
43.1915298919170709
 30
0.0
 40
0.2999999999997245
 50
29.9999999999501412
 51
125.8367796012044977
  0
ARC
  5
422
  8
0
 10
8.7499996445635588
 20
40.7999998409497877
 30
0.0
 40
3.249999999972236
 50
125.8367796006853041
 51
205.7714617401182124
  0
ARC
  5
423
  8
0
 10
5.6431523680098499
 20
39.2999998409823093
 30
0.0
 40
0.1999999999889042
 50
270.0000000018238779
 51
25.7714617426137487
  0
LINE
  5
424
  8
0
 10
5.6431523680162172
 20
39.0999998409934122
 30
0.0
 11
3.7068256902025492
 21
39.099999840992723
 31
0.0
  0
ARC
  5
425
  8
0
 10
3.7068256902039129
 20
38.5999998409902219
 30
0.0
 40
0.5000000000025011
 50
90.0000000001563336
 51
140.0283022891811129
  0
LINE
  5
426
  8
0
 10
3.3236447570811829
 20
38.9212044058606423
 30
0.0
 11
2.9616791202083732
 21
38.4893975585587214
 31
0.0
  0
ARC
  5
427
  8
0
 10
2.7700886536472349
 20
38.649999840992912
 30
0.0
 40
0.2500000000004547
 50
270.000000000104194
 51
320.0283022892874101
  0
LINE
  5
428
  8
0
 10
2.7700886536476901
 20
38.3999998409924501
 30
0.0
 11
1.19999964457429
 21
38.3999998409926775
 31
0.0
  0
LINE
  5
429
  8
0
 10
1.19999964457429
 20
38.3999998409926775
 30
0.0
 11
1.1999996445738359
 21
51.599999840992723
 31
0.0
  0
LINE
  5
42A
  8
0
 10
1.1999996445738359
 20
51.599999840992723
 30
0.0
 11
3.2099996445735992
 21
51.599999840992723
 31
0.0
  0
LINE
  5
42B
  8
0
 10
3.2099996445735992
 20
51.599999840992723
 30
0.0
 11
3.2099996445735992
 21
48.4499998409930868
 31
0.0
  0
ARC
  5
42C
  8
0
 10
3.4599996445735992
 20
48.4499998409930868
 30
0.0
 40
0.25
 50
180.0
 51
270.0
  0
LINE
  5
42D
  8
0
 10
3.4599996445735992
 20
48.1999998409930797
 30
0.0
 11
4.1450486509543216
 21
48.1999998409930797
 31
0.0
  0
ARC
  5
42E
  8
0
 10
4.1450486509556859
 20
48.4499998409921702
 30
0.0
 40
0.2499999999990905
 50
269.999999999687418
 51
12.5547339406825404
  0
LINE
  5
42F
  8
0
 10
4.3890708508615708
 20
48.5043428805888581
 30
0.0
 11
4.2099332871343904
 21
49.308742905169531
 31
0.0
  0
ARC
  5
430
  8
0
 10
4.2587377271161131
 20
49.3196115130888302
 30
0.0
 40
0.0500000000003562
 50
112.269499653184198
 51
192.5547339404957086
  0
ENDBLK
  5
432
  8
0
  0
ENDSEC
  0
SECTION
  2
ENTITIES
  0
ARC
  5
279
  8
0
 10
5.9405109962131064
 20
51.4801491172866008
 30
0.0
 40
0.2499999999981437
 50
292.2694996518594053
 51
12.5547339408272496
  0
LINE
  5
27A
  8
0
 10
6.1845331961180809
 20
51.5344921568837435
 30
0.0
 11
6.0053956323913553
 21
52.3388921814598689
 31
0.0
  0
ARC
  5
27B
  8
0
 10
6.0542000722834919
 20
52.3497607892084105
 30
0.0
 40
0.0499999998758537
 50
112.2694994835483016
 51
192.5547337718182064
  0
ARC
  5
27C
  8
0
 10
5.9405109962108318
 20
52.6273842642740419
 30
0.0
 40
0.2500000000004401
 50
292.2694996522948827
 51
12.5547339402330707
  0
LINE
  5
27D
  8
0
 10
6.1845331961185357
 20
52.6817273038691383
 30
0.0
 11
6.022787662598148
 21
53.4080300872310474
 31
0.0
  0
ARC
  5
27E
  8
0
 10
6.120396542362414
 20
53.4297673026167104
 30
0.0
 40
0.0999999997076839
 50
119.9876292936812945
 51
192.5547337119986935
  0
ARC
  5
27F
  8
0
 10
5.9454619898306191
 20
53.7329139702974317
 30
0.0
 40
0.2500000000000661
 50
299.987629521900601
 51
359.9999999999478746
  0
LINE
  5
280
  8
0
 10
6.1954619898306191
 20
53.7329139702972114
 30
0.0
 11
6.1954619898306191
 21
54.4329139702974771
 31
0.0
  0
ARC
  5
281
  8
0
 10
5.9454619898315277
 20
54.4329139702974771
 30
0.0
 40
0.2499999999990905
 50
0.0
 51
90.0000000001042082
  0
LINE
  5
282
  8
0
 10
5.945461989831073
 20
54.6829139702965605
 30
0.0
 11
2.0954619898307101
 21
54.6829139702972498
 31
0.0
  0
ARC
  5
283
  8
0
 10
2.0954619898302549
 20
54.3829139702968405
 30
0.0
 40
0.3000000000004093
 50
89.9999999999088089
 51
179.9999999999153033
  0
LINE
  5
284
  8
0
 10
1.795461989830528
 20
54.3829139702972881
 30
0.0
 11
1.795461989830528
 21
2.182913970296795
 31
0.0
  0
ARC
  5
285
  8
0
 10
2.0954619898298001
 20
2.182913970296795
 30
0.0
 40
0.2999999999992724
 50
180.0
 51
270.0000000001692797
  0
LINE
  5
286
  8
0
 10
2.0954619898307101
 20
1.8829139702975219
 30
0.0
 11
4.1454619898308911
 21
1.882913970297295
 31
0.0
  0
ARC
  5
287
  8
0
 10
4.1454619898308911
 20
2.1329139702972948
 30
0.0
 40
0.25
 50
270.0
 51
0.0
  0
LINE
  5
288
  8
0
 10
4.3954619898308911
 20
2.1329139702972948
 30
0.0
 11
4.3954619898308911
 21
2.8329139702973398
 31
0.0
  0
ARC
  5
289
  8
0
 10
4.1454619898308911
 20
2.8329139702973398
 30
0.0
 40
0.25
 50
0.0
 51
90.0
  0
LINE
  5
28A
  8
0
 10
4.1454619898308911
 20
3.0829139702973398
 30
0.0
 11
2.9954619898312549
 21
3.0829139702971129
 31
0.0
  0
LINE
  5
28B
  8
0
 10
2.9954619898312549
 20
3.0829139702971129
 30
0.0
 11
2.9954619898298911
 21
10.3829139702975208
 31
0.0
  0
LINE
  5
28C
  8
0
 10
2.9954619898298911
 20
10.3829139702975208
 30
0.0
 11
3.8454619898302549
 21
10.3829139702972899
 31
0.0
  0
ARC
  5
28D
  8
0
 10
3.8454619898298001
 20
10.9329139702972498
 30
0.0
 40
0.5499999999999546
 50
270.0000000000521254
 51
89.9999999999478888
  0
LINE
  5
28E
  8
0
 10
3.8454619898302549
 20
11.4829139702972007
 30
0.0
 11
2.9954619898312549
 21
11.4829139702972007
 31
0.0
  0
LINE
  5
28F
  8
0
 10
2.9954619898312549
 20
11.4829139702972007
 30
0.0
 11
2.9954619898298911
 21
21.6829139702972498
 31
0.0
  0
LINE
  5
290
  8
0
 10
2.9954619898298911
 20
21.6829139702972498
 30
0.0
 11
3.8454619898311639
 21
21.6829139702972498
 31
0.0
  0
ARC
  5
291
  8
0
 10
3.8454619898307101
 20
22.2329139702972007
 30
0.0
 40
0.5499999999999546
 50
270.0000000000521254
 51
89.9999999999478888
  0
LINE
  5
292
  8
0
 10
3.8454619898311639
 20
22.7829139702971588
 30
0.0
 11
2.9954619898312549
 21
22.7829139702971588
 31
0.0
  0
LINE
  5
293
  8
0
 10
2.9954619898312549
 20
22.7829139702971588
 30
0.0
 11
2.9954619898294359
 21
32.9829139702974317
 31
0.0
  0
LINE
  5
294
  8
0
 10
2.9954619898294359
 20
32.9829139702974317
 30
0.0
 11
3.8454619898307101
 21
32.9829139702971972
 31
0.0
  0
ARC
  5
295
  8
0
 10
3.8454619898311639
 20
33.5329139702969314
 30
0.0
 40
0.5499999999997272
 50
269.9999999999478746
 51
89.9999999999478888
  0
LINE
  5
296
  8
0
 10
3.8454619898316191
 20
34.0829139702966586
 30
0.0
 11
2.9954619898312549
 21
34.0829139702971133
 31
0.0
  0
LINE
  5
297
  8
0
 10
2.9954619898312549
 20
34.0829139702971133
 30
0.0
 11
2.9954619898312549
 21
39.0829139702973407
 31
0.0
  0
LINE
  5
298
  8
0
 10
2.9954619898312549
 20
39.0829139702973407
 30
0.0
 11
5.7954619898305282
 21
39.0829139702973407
 31
0.0
  0
ARC
  5
299
  8
0
 10
5.7954619898305282
 20
39.3329139702973407
 30
0.0
 40
0.25
 50
270.0
 51
0.0
  0
LINE
  5
29A
  8
0
 10
6.0454619898305282
 20
39.3329139702973407
 30
0.0
 11
6.0454619898300734
 21
39.6829139702970224
 31
0.0
  0
ARC
  5
29B
  8
0
 10
6.1454619898308911
 20
39.6829139702968021
 30
0.0
 40
0.1000000000005912
 50
90.0000000007816539
 51
179.9999999998696865
  0
LINE
  5
29C
  8
0
 10
6.1454619898299816
 20
39.7829139702973933
 30
0.0
 11
14.9454619898306191
 21
39.782913970296697
 31
0.0
  0
ARC
  5
29D
  8
0
 10
14.9454619898297096
 20
39.6829139702963403
 30
0.0
 40
0.1000000000003638
 50
0.0
 51
89.9999999990880752
  0
LINE
  5
29E
  8
0
 10
15.0454619898296205
 20
39.6829139702970224
 30
0.0
 11
15.04546198983053
 21
39.3329139702973407
 31
0.0
  0
ARC
  5
29F
  8
0
 10
15.29546198983053
 20
39.3329139702973407
 30
0.0
 40
0.25
 50
180.0
 51
270.0
  0
LINE
  5
2A0
  8
0
 10
15.29546198983053
 20
39.0829139702973407
 30
0.0
 11
18.0954619898311613
 21
39.0829139702973407
 31
0.0
  0
LINE
  5
2A1
  8
0
 10
18.0954619898311613
 20
39.0829139702973407
 30
0.0
 11
18.0954619898311613
 21
34.0829139702971133
 31
0.0
  0
LINE
  5
2A2
  8
0
 10
18.0954619898311613
 20
34.0829139702971133
 30
0.0
 11
17.2454619898303392
 21
34.0829139702971133
 31
0.0
  0
ARC
  5
2A3
  8
0
 10
17.245461989830801
 20
33.5329139702971588
 30
0.0
 40
0.5499999999999546
 50
90.0000000000521254
 51
269.9999999999478746
  0
LINE
  5
2A4
  8
0
 10
17.2454619898303392
 20
32.9829139702971972
 30
0.0
 11
18.0954619898311613
 21
32.9829139702971972
 31
0.0
  0
LINE
  5
2A5
  8
0
 10
18.0954619898311613
 20
32.9829139702971972
 30
0.0
 11
18.0954619898311613
 21
22.7829139702969314
 31
0.0
  0
LINE
  5
2A6
  8
0
 10
18.0954619898311613
 20
22.7829139702969314
 30
0.0
 11
17.2454619898298915
 21
22.7829139702971588
 31
0.0
  0
ARC
  5
2A7
  8
0
 10
17.2454619898303392
 20
22.2329139702972007
 30
0.0
 40
0.5499999999999546
 50
90.0000000000521254
 51
269.9999999999478746
  0
LINE
  5
2A8
  8
0
 10
17.2454619898298915
 20
21.6829139702972498
 30
0.0
 11
18.0954619898311613
 21
21.6829139702970188
 31
0.0
  0
LINE
  5
2A9
  8
0
 10
18.0954619898311613
 20
21.6829139702970188
 30
0.0
 11
18.0954619898307101
 21
11.4829139702972007
 31
0.0
  0
LINE
  5
2AA
  8
0
 10
18.0954619898307101
 20
11.4829139702972007
 30
0.0
 11
17.245461989830801
 21
11.4829139702976608
 31
0.0
  0
ARC
  5
2AB
  8
0
 10
17.245461989830801
 20
10.93291397029747
 30
0.0
 40
0.5500000000001819
 50
90.0
 51
270.0
  0
LINE
  5
2AC
  8
0
 10
17.245461989830801
 20
10.3829139702972899
 30
0.0
 11
18.0954619898307101
 21
10.3829139702970608
 31
0.0
  0
LINE
  5
2AD
  8
0
 10
18.0954619898307101
 20
10.3829139702970608
 30
0.0
 11
18.0954619898307101
 21
3.0829139702971129
 31
0.0
  0
LINE
  5
2AE
  8
0
 10
18.0954619898307101
 20
3.0829139702971129
 30
0.0
 11
16.9454619898310703
 21
3.0829139702971129
 31
0.0
  0
ARC
  5
2AF
  8
0
 10
16.9454619898310703
 20
2.8329139702971129
 30
0.0
 40
0.25
 50
90.0
 51
180.0
  0
LINE
  5
2B0
  8
0
 10
16.6954619898310703
 20
2.8329139702971129
 30
0.0
 11
16.6954619898310703
 21
2.1329139702972948
 31
0.0
  0
ARC
  5
2B1
  8
0
 10
16.9454619898310703
 20
2.1329139702972948
 30
0.0
 40
0.25
 50
180.0
 51
270.0
  0
LINE
  5
2B2
  8
0
 10
16.9454619898310703
 20
1.882913970297295
 30
0.0
 11
18.9954619898303392
 21
1.882913970297295
 31
0.0
  0
ARC
  5
2B3
  8
0
 10
18.9954619898312487
 20
2.182913970296112
 30
0.0
 40
0.2999999999988176
 50
269.9999999998307203
 51
0.0000000002149546
  0
LINE
  5
2B4
  8
0
 10
19.2954619898305317
 20
2.1829139702972489
 30
0.0
 11
19.2954619898305317
 21
54.3829139702979703
 31
0.0
  0
ARC
  5
2B5
  8
0
 10
18.9954619898312487
 20
54.3829139702979703
 30
0.0
 40
0.2999999999992724
 50
0.0
 51
90.0000000001693508
  0
LINE
  5
2B6
  8
0
 10
18.9954619898303392
 20
54.6829139702972498
 30
0.0
 11
15.1454619898304301
 21
54.6829139702972498
 31
0.0
  0
ARC
  5
2B7
  8
0
 10
15.1454619898308902
 20
54.4329139702958926
 30
0.0
 40
0.2500000000013642
 50
90.0000000001042082
 51
179.9999999996873044
  0
LINE
  5
2B8
  8
0
 10
14.8954619898299807
 20
54.4329139702972427
 30
0.0
 11
14.8954619898304408
 21
53.7329139702972114
 31
0.0
  0
ARC
  5
2B9
  8
0
 10
15.1454619898304301
 20
53.7329139702972114
 30
0.0
 40
0.25
 50
180.0
 51
240.012370478099399
  0
ARC
  5
2BA
  8
0
 10
14.97052743729909
 20
53.4297673026167104
 30
0.0
 40
0.0999999997073428
 50
347.4452662879413083
 51
60.0123707064851288
  0
LINE
  5
2BB
  8
0
 10
15.0681363170629101
 20
53.4080300872310474
 30
0.0
 11
14.9063907835425198
 21
52.681727303869593
 31
0.0
  0
ARC
  5
2BC
  8
0
 10
15.1504129834497707
 20
52.6273842642735801
 30
0.0
 40
0.2500000000002131
 50
167.4452660595393922
 51
247.7305003477607954
  0
ARC
  5
2BD
  8
0
 10
15.0367239073757393
 20
52.3497607892074868
 30
0.0
 40
0.0499999998773454
 50
347.4452662296578183
 51
67.7305005149179067
  0
LINE
  5
2BE
  8
0
 10
15.0855283472696993
 20
52.3388921814596415
 30
0.0
 11
14.9063907835429692
 21
51.534492156883509
 31
0.0
  0
ARC
  5
2BF
  8
0
 10
15.1504129834493106
 20
51.4801491172875103
 30
0.0
 40
0.2499999999993253
 50
167.4452660594949123
 51
247.7305003479301035
  0
ARC
  5
2C0
  8
0
 10
15.0367239073761993
 20
51.2025256422214099
 30
0.0
 40
0.0499999998773454
 50
347.4452662296578183
 51
67.7305005149179067
  0
LINE
  5
2C1
  8
0
 10
15.0855283472701505
 20
51.1916570344735575
 30
0.0
 11
14.9063907835425198
 21
50.3872570098933465
 31
0.0
  0
ARC
  5
2C2
  8
0
 10
15.1504129834502201
 20
50.3329139702984776
 30
0.0
 40
0.2500000000004098
 50
167.445266059814287
 51
269.999999999895806
  0
LINE
  5
2C3
  8
0
 10
15.1504129834497707
 20
50.0829139702977884
 30
0.0
 11
15.83546198983049
 21
50.0829139702975681
 31
0.0
  0
ARC
  5
2C4
  8
0
 10
15.83546198983049
 20
50.332913970297561
 30
0.0
 40
0.25
 50
270.0
 51
0.0
  0
LINE
  5
2C5
  8
0
 10
16.0854619898304882
 20
50.332913970297561
 30
0.0
 11
16.0854619898304882
 21
53.4829139702971972
 31
0.0
  0
LINE
  5
2C6
  8
0
 10
16.0854619898304882
 20
53.4829139702971972
 30
0.0
 11
18.0954619898302482
 21
53.4829139702971972
 31
0.0
  0
LINE
  5
2C7
  8
0
 10
18.0954619898302482
 20
53.4829139702971972
 30
0.0
 11
18.0954619898302482
 21
40.2829139702971588
 31
0.0
  0
LINE
  5
2C8
  8
0
 10
18.0954619898302482
 20
40.2829139702971588
 30
0.0
 11
16.5253729807559502
 21
40.2829139702971588
 31
0.0
  0
ARC
  5
2C9
  8
0
 10
16.52537298075503
 20
40.5329139702962422
 30
0.0
 40
0.2499999999990862
 50
219.971697710651199
 51
270.000000000208388
  0
LINE
  5
2CA
  8
0
 10
16.3337825141948088
 20
40.3723116878629824
 30
0.0
 11
15.9718168773224498
 21
40.8041185351653368
 31
0.0
  0
ARC
  5
2CB
  8
0
 10
15.5886359442029008
 20
40.4829139703017518
 30
0.0
 40
0.4999999999955766
 50
39.9716977104527018
 51
90.0000000002084306
  0
LINE
  5
2CC
  8
0
 10
15.5886359442010907
 20
40.9829139702971972
 30
0.0
 11
13.6523092663878707
 21
40.9829139702969698
 31
0.0
  0
ARC
  5
2CD
  8
0
 10
13.6523092663878707
 20
41.1829139702970224
 30
0.0
 40
0.2000000000000662
 50
154.228538259207113
 51
270.0
  0
ARC
  5
2CE
  8
0
 10
10.5454619898277997
 20
42.6829139703136207
 30
0.0
 40
3.2499999999881291
 50
334.2285382590382028
 51
54.163220398518682
  0
ARC
  5
2CF
  8
0
 10
12.2726226700574408
 20
45.074444021229958
 30
0.0
 40
0.3000000000276994
 50
54.163220403529948
 51
150.0000000049165862
  0
LINE
  5
2D0
  8
0
 10
12.0128150488853898
 20
45.2244440212214087
 30
0.0
 11
11.5594269793227795
 21
44.4391528491939809
 31
0.0
  0
ARC
  5
2D1
  8
0
 10
11.8192346004566406
 20
44.2891528491938971
 30
0.0
 40
0.2999999999987705
 50
149.9999999998451869
 51
231.5850319150773089
  0
ARC
  5
2D2
  8
0
 10
10.5454619898614492
 20
42.6829139702190332
 30
0.0
 40
1.7499999999602729
 50
353.1477266486144799
 51
51.5850319173397409
  0
ARC
  5
2D3
  8
0
 10
12.5311761297016293
 20
42.4442942839473289
 30
0.0
 40
0.2499999999995899
 50
173.1477266460549913
 51
252.6743531815621964
  0
ARC
  5
2D4
  8
0
 10
12.4269453542205994
 20
42.1101746265755992
 30
0.0
 40
0.0999999999998535
 50
343.0693104951624264
 51
72.6743531816178034
  0
ARC
  5
2D5
  8
0
 10
10.5454619898309794
 20
42.6829139702965605
 30
0.0
 40
2.066725706935387
 50
307.5560610954642016
 51
343.0693104952736121
  0
ARC
  5
2D6
  8
0
 10
11.7442548531503199
 20
41.1237777744583966
 30
0.0
 40
0.1000000000004898
 50
217.9510184097443073
 51
307.5560610952687739
  0
ARC
  5
2D7
  8
0
 10
11.4682669771937107
 20
40.9085321186935289
 30
0.0
 40
0.2500000000005039
 50
37.9510184092752496
 51
117.4776449444442932
  0
ARC
  5
2D8
  8
0
 10
10.5454619898300699
 20
42.6829139702983795
 30
0.0
 40
1.7500000000011271
 50
242.5223550555120084
 51
297.4776449445286062
  0
ARC
  5
2D9
  8
0
 10
9.6226570024673492
 20
40.9085321186951205
 30
0.0
 40
0.2499999999992124
 50
62.5223550553663898
 51
142.0489815909099036
  0
ARC
  5
2DA
  8
0
 10
9.3466691265102781
 20
41.123777774456812
 30
0.0
 40
0.0999999999996153
 50
232.4439389046295048
 51
322.0489815911417963
  0
ARC
  5
2DB
  8
0
 10
10.5454619898350703
 20
42.682913970300433
 30
0.0
 40
2.0667257069416691
 50
196.9306895047839134
 51
232.443938904499305
  0
ARC
  5
2DC
  8
0
 10
8.6639786254413593
 20
42.11017462657491
 30
0.0
 40
0.1000000000010097
 50
107.325646818724195
 51
196.9306895042298038
  0
ARC
  5
2DD
  8
0
 10
8.5597478499603312
 20
42.4442942839466397
 30
0.0
 40
0.2499999999983882
 50
287.3256468183017773
 51
6.8522733541211682
  0
ARC
  5
2DE
  8
0
 10
10.5454619898314306
 20
42.6829139702972498
 30
0.0
 40
1.750000000000814
 50
128.4149680850711945
 51
186.8522733538075897
  0
ARC
  5
2DF
  8
0
 10
9.2716893792162391
 20
44.2891528492550606
 30
0.0
 40
0.2999999999576807
 50
308.4149680758587238
 51
29.9999999912545796
  0
LINE
  5
2E0
  8
0
 10
9.5314970003378221
 20
44.4391528491942083
 30
0.0
 11
9.0781089307756702
 21
45.2244440212211813
 31
0.0
  0
ARC
  5
2E1
  8
0
 10
8.8183013096404466
 20
45.0744440212215522
 30
0.0
 40
0.2999999999997245
 50
29.9999999999512887
 51
125.8367796012064019
  0
ARC
  5
2E2
  8
0
 10
10.5454619898205202
 20
42.6829139702542832
 30
0.0
 40
3.249999999972236
 50
125.8367796006786961
 51
205.771461740116905
  0
ARC
  5
2E3
  8
0
 10
7.4386147132668148
 20
41.1829139702867906
 30
0.0
 40
0.1999999999889042
 50
270.0000000018238779
 51
25.7714617426107502
  0
LINE
  5
2E4
  8
0
 10
7.4386147132731821
 20
40.9829139702978935
 30
0.0
 11
5.5022880354595136
 21
40.9829139702971972
 31
0.0
  0
ARC
  5
2E5
  8
0
 10
5.5022880354608779
 20
40.4829139702947032
 30
0.0
 40
0.5000000000025011
 50
90.0000000001563336
 51
140.028302289181994
  0
LINE
  5
2E6
  8
0
 10
5.1191071023381483
 20
40.8041185351651094
 30
0.0
 11
4.7571414654653381
 21
40.3723116878632027
 31
0.0
  0
ARC
  5
2E7
  8
0
 10
4.5655509989042002
 20
40.5329139702973791
 30
0.0
 40
0.2500000000004547
 50
270.000000000104194
 51
320.0283022892887175
  0
LINE
  5
2E8
  8
0
 10
4.5655509989046541
 20
40.2829139702969172
 30
0.0
 11
2.9954619898312549
 21
40.2829139702971588
 31
0.0
  0
LINE
  5
2E9
  8
0
 10
2.9954619898312549
 20
40.2829139702971588
 30
0.0
 11
2.995461989830801
 21
53.4829139702971972
 31
0.0
  0
LINE
  5
2EA
  8
0
 10
2.995461989830801
 20
53.4829139702971972
 30
0.0
 11
5.0054619898305637
 21
53.4829139702971972
 31
0.0
  0
LINE
  5
2EB
  8
0
 10
5.0054619898305637
 20
53.4829139702971972
 30
0.0
 11
5.0054619898305637
 21
50.332913970297561
 31
0.0
  0
ARC
  5
2EC
  8
0
 10
5.2554619898305637
 20
50.332913970297561
 30
0.0
 40
0.25
 50
180.0
 51
270.0
  0
LINE
  5
2ED
  8
0
 10
5.2554619898305637
 20
50.0829139702975681
 30
0.0
 11
5.9405109962112874
 21
50.0829139702975681
 31
0.0
  0
ARC
  5
2EE
  8
0
 10
5.9405109962126508
 20
50.3329139702966586
 30
0.0
 40
0.2499999999990905
 50
269.999999999687418
 51
12.5547339406788794
  0
LINE
  5
2EF
  8
0
 10
6.1845331961185357
 20
50.3872570098933465
 30
0.0
 11
6.0053956323913553
 21
51.1916570344740194
 31
0.0
  0
ARC
  5
2F0
  8
0
 10
6.054200072373078
 20
51.2025256423933115
 30
0.0
 40
0.0500000000003562
 50
112.2694996531827059
 51
192.554733940492298
  0
ENDSEC
  0
EOF
