  0
SECTION
  2
HEADER
  9
$ACADVER
  1
AC1009
  9
$INSBASE
 10
0.0
 20
0.0
 30
0.0
  9
$EXTMIN
 10
994.29565643227625
 20
372.91772573501538
 30
-0.0015258207003583
  9
$EXTMAX
 10
1039.412843495855
 20
417.89643943088191
 30
0.0000000349246037
  9
$LIMMIN
 10
0.0
 20
0.0
  9
$LIMMAX
 10
420.0
 20
297.0
  9
$ORTHOMODE
 70
     0
  9
$REGENMODE
 70
     1
  9
$FILLMODE
 70
     1
  9
$QTEXTMODE
 70
     0
  9
$MIRRTEXT
 70
     0
  9
$DRAGMODE
 70
     2
  9
$LTSCALE
 40
1.0
  9
$OSMODE
 70
  3071
  9
$ATTMODE
 70
     1
  9
$TEXTSIZE
 40
2.5
  9
$TRACEWID
 40
1.0
  9
$TEXTSTYLE
  7
STANDARD
  9
$CLAYER
  8
0
  9
$CELTYPE
  6
BYLAYER
  9
$CECOLOR
 62
   256
  9
$DIMSCALE
 40
1.0
  9
$DIMASZ
 40
2.5
  9
$DIMEXO
 40
0.625
  9
$DIMDLI
 40
3.75
  9
$DIMRND
 40
0.0
  9
$DIMDLE
 40
0.0
  9
$DIMEXE
 40
1.25
  9
$DIMTP
 40
0.0
  9
$DIMTM
 40
0.0
  9
$DIMTXT
 40
2.5
  9
$DIMCEN
 40
2.5
  9
$DIMTSZ
 40
0.0
  9
$DIMTOL
 70
     0
  9
$DIMLIM
 70
     0
  9
$DIMTIH
 70
     0
  9
$DIMTOH
 70
     0
  9
$DIMSE1
 70
     0
  9
$DIMSE2
 70
     0
  9
$DIMTAD
 70
     1
  9
$DIMZIN
 70
     8
  9
$DIMBLK
  1

  9
$DIMASO
 70
     1
  9
$DIMSHO
 70
     1
  9
$DIMPOST
  1

  9
$DIMAPOST
  1

  9
$DIMALT
 70
     0
  9
$DIMALTD
 70
     3
  9
$DIMALTF
 40
0.03937007874016
  9
$DIMLFAC
 40
1.0
  9
$DIMTOFL
 70
     1
  9
$DIMTVP
 40
0.0
  9
$DIMTIX
 70
     0
  9
$DIMSOXD
 70
     0
  9
$DIMSAH
 70
     0
  9
$DIMBLK1
  1

  9
$DIMBLK2
  1

  9
$DIMSTYLE
  2
ISO-25
  9
$DIMCLRD
 70
     0
  9
$DIMCLRE
 70
     0
  9
$DIMCLRT
 70
     0
  9
$DIMTFAC
 40
1.0
  9
$DIMGAP
 40
0.625
  9
$LUNITS
 70
     2
  9
$LUPREC
 70
     4
  9
$SKETCHINC
 40
1.0
  9
$FILLETRAD
 40
0.0
  9
$AUNITS
 70
     0
  9
$AUPREC
 70
     0
  9
$MENU
  1
.
  9
$ELEVATION
 40
0.0
  9
$PELEVATION
 40
0.0
  9
$THICKNESS
 40
0.0
  9
$LIMCHECK
 70
     0
  9
$BLIPMODE
 70
     0
  9
$CHAMFERA
 40
0.0
  9
$CHAMFERB
 40
0.0
  9
$SKPOLY
 70
     0
  9
$TDCREATE
 40
2456290.7530786688
  9
$TDUPDATE
 40
2456290.7531882748
  9
$TDINDWG
 40
0.0001102431
  9
$TDUSRTIMER
 40
0.0001102431
  9
$USRTIMER
 70
     1
  9
$ANGBASE
 50
0.0
  9
$ANGDIR
 70
     0
  9
$PDMODE
 70
     0
  9
$PDSIZE
 40
0.0
  9
$PLINEWID
 40
0.0
  9
$COORDS
 70
     0
  9
$SPLFRAME
 70
     0
  9
$SPLINETYPE
 70
     6
  9
$SPLINESEGS
 70
     8
  9
$ATTDIA
 70
     0
  9
$ATTREQ
 70
     1
  9
$HANDLING
 70
     1
  9
$HANDSEED
  5
35E
  9
$SURFTAB1
 70
     6
  9
$SURFTAB2
 70
     6
  9
$SURFTYPE
 70
     6
  9
$SURFU
 70
     6
  9
$SURFV
 70
     6
  9
$UCSNAME
  2

  9
$UCSORG
 10
0.0
 20
0.0
 30
0.0
  9
$UCSXDIR
 10
1.0
 20
0.0
 30
0.0
  9
$UCSYDIR
 10
0.0
 20
1.0
 30
0.0
  9
$PUCSNAME
  2

  9
$PUCSORG
 10
0.0
 20
0.0
 30
0.0
  9
$PUCSXDIR
 10
1.0
 20
0.0
 30
0.0
  9
$PUCSYDIR
 10
0.0
 20
1.0
 30
0.0
  9
$USERI1
 70
     0
  9
$USERI2
 70
     0
  9
$USERI3
 70
     0
  9
$USERI4
 70
     0
  9
$USERI5
 70
     0
  9
$USERR1
 40
0.0
  9
$USERR2
 40
0.0
  9
$USERR3
 40
0.0
  9
$USERR4
 40
0.0
  9
$USERR5
 40
0.0
  9
$WORLDVIEW
 70
     1
  9
$SHADEDGE
 70
     3
  9
$SHADEDIF
 70
    70
  9
$TILEMODE
 70
     1
  9
$MAXACTVP
 70
    64
  9
$PLIMCHECK
 70
     0
  9
$PEXTMIN
 10
0.0
 20
0.0
 30
0.0
  9
$PEXTMAX
 10
0.0
 20
0.0
 30
0.0
  9
$PLIMMIN
 10
0.0
 20
0.0
  9
$PLIMMAX
 10
12.0
 20
9.0
  9
$UNITMODE
 70
     0
  9
$VISRETAIN
 70
     1
  9
$PLINEGEN
 70
     0
  9
$PSLTSCALE
 70
     1
  0
ENDSEC
  0
SECTION
  2
TABLES
  0
TABLE
  2
VPORT
 70
     2
  0
VPORT
  2
*ACTIVE
 70
     0
 10
0.0
 20
0.0
 11
1.0
 21
1.0
 12
1016.854249964066
 22
395.4070825829487
 13
0.0
 23
0.0
 14
10.0
 24
10.0
 15
10.0
 25
10.0
 16
0.0
 26
0.0
 36
1.0
 17
0.0
 27
0.0
 37
0.0
 40
45.395826960433958
 41
2.3219814241486061
 42
50.0
 43
0.0
 44
0.0
 50
0.0
 51
0.0
 71
     0
 72
  1000
 73
     1
 74
     3
 75
     0
 76
     0
 77
     0
 78
     0
  0
ENDTAB
  0
TABLE
  2
LTYPE
 70
     1
  0
LTYPE
  2
CONTINUOUS
 70
     0
  3
Solid line
 72
    65
 73
     0
 40
0.0
  0
ENDTAB
  0
TABLE
  2
LAYER
 70
     1
  0
LAYER
  2
0
 70
     0
 62
     7
  6
CONTINUOUS
  0
ENDTAB
  0
TABLE
  2
STYLE
 70
     2
  0
STYLE
  2
STANDARD
 70
     0
 40
0.0
 41
1.0
 50
0.0
 71
     0
 42
2.5
  3
txt
  4

  0
STYLE
  2
ROMANT
 70
     0
 40
2.2999999999999989
 41
1.0
 50
15.0
 71
     0
 42
2.5
  3
romant.shx
  4

  0
ENDTAB
  0
TABLE
  2
VIEW
 70
     0
  0
ENDTAB
  0
TABLE
  2
UCS
 70
     0
  0
ENDTAB
  0
TABLE
  2
APPID
 70
     5
  0
APPID
  2
ACAD
 70
     0
  0
APPID
  2
ACAD_PSEXT
 70
     0
  0
APPID
  2
ACADANNOTATIVE
 70
     0
  0
APPID
  2
ACAD_DSTYLE_DIMJAG
 70
     0
  0
APPID
  2
ACAD_DSTYLE_DIMTALN
 70
     0
  0
ENDTAB
  0
TABLE
  2
DIMSTYLE
 70
     3
  0
DIMSTYLE
  2
ISO-25
 70
     0
  3

  4

  5

  6

  7

 40
1.0
 41
2.5
 42
0.625
 43
3.75
 44
1.25
 45
0.0
 46
0.0
 47
0.0
 48
0.0
140
2.5
141
2.5
142
0.0
143
0.03937007874016
144
1.0
145
0.0
146
1.0
147
0.625
 71
     0
 72
     0
 73
     0
 74
     0
 75
     0
 76
     0
 77
     1
 78
     8
170
     0
171
     3
172
     1
173
     0
174
     0
175
     0
176
     0
177
     0
178
     0
  0
DIMSTYLE
  2
ANNOTATIVE
 70
     0
  3

  4

  5

  6

  7

 40
0.0
 41
2.5
 42
0.625
 43
3.75
 44
1.25
 45
0.0
 46
0.0
 47
0.0
 48
0.0
140
2.5
141
2.5
142
0.0
143
0.03937007874016
144
1.0
145
0.0
146
1.0
147
0.625
 71
     0
 72
     0
 73
     0
 74
     0
 75
     0
 76
     0
 77
     1
 78
     8
170
     0
171
     3
172
     1
173
     0
174
     0
175
     0
176
     0
177
     0
178
     0
  0
DIMSTYLE
  2
ISO-25_1_E_1
 70
     0
  3

  4

  5

  6

  7

 40
1.0
 41
2.5
 42
0.0
 43
3.75
 44
0.5
 45
0.0
 46
0.0
 47
0.0
 48
0.0
140
1.0
141
0.2
142
0.0
143
0.03937007874016
144
1.0
145
0.0
146
1.0
147
0.4
 71
     0
 72
     0
 73
     0
 74
     0
 75
     0
 76
     0
 77
     1
 78
     8
170
     0
171
     3
172
     0
173
     0
174
     0
175
     0
176
   242
177
   242
178
   242
  0
ENDTAB
  0
ENDSEC
  0
SECTION
  2
BLOCKS
  0
BLOCK
  8
0
  2
$MODEL_SPACE
 70
     0
 10
0.0
 20
0.0
 30
0.0
  3
$MODEL_SPACE
  1

  0
ENDBLK
  5
21
  8
0
  0
BLOCK
 67
     1
  8
0
  2
$PAPER_SPACE
 70
     0
 10
0.0
 20
0.0
 30
0.0
  3
$PAPER_SPACE
  1

  0
ENDBLK
  5
53
 67
     1
  8
0
  0
BLOCK
  8
0
  2
*X2
 70
     1
 10
0.0
 20
0.0
 30
0.0
  3
*X2
  1

  0
LINE
  5
19A
  8
0
 62
     0
 10
39.76597013724632
 20
9.0688069983252717
 30
0.0
 11
42.173144295417387
 21
11.47598115649634
 31
0.0
  0
LINE
  5
19B
  8
0
 62
     0
 10
33.400140199033558
 20
2.702977060112516
 30
0.0
 11
35.806170459341047
 21
5.1090073204200053
 31
0.0
  0
LINE
  5
19C
  8
0
 62
     0
 10
40.09110422885032
 20
10.74097950808936
 30
0.0
 11
43.336287606700353
 21
13.98616288593939
 31
0.0
  0
LINE
  5
19D
  8
0
 62
     0
 10
31.233327895565711
 20
1.883203174804748
 30
0.0
 11
34.135141847437808
 21
4.7850171266773032
 31
0.0
  0
LINE
  5
19E
  8
0
 62
     0
 10
39.664045307588367
 20
11.660959004987941
 30
0.0
 11
40.688916438184599
 21
12.68583013558418
 31
0.0
  0
LINE
  5
19F
  8
0
 62
     0
 10
32.190291219943902
 20
4.187204917343478
 30
0.0
 11
33.215162350540602
 21
5.2120760479401724
 31
0.0
  0
LINE
  5
1A0
  8
0
 62
     0
 10
41.741309920093038
 20
13.73822361749262
 30
0.0
 11
42.626388668814343
 21
14.62330236621392
 31
0.0
  0
LINE
  5
1A1
  8
0
 62
     0
 10
30.964040546963592
 20
2.9609542443631649
 30
0.0
 11
31.130112009839191
 21
3.1270257072387722
 31
0.0
  0
LINE
  5
1A2
  8
0
 62
     0
 10
38.810057170348053
 20
12.154009285908611
 30
0.0
 11
39.834928300944291
 21
13.17888041650485
 31
0.0
  0
LINE
  5
1A3
  8
0
 62
     0
 10
31.697240939023231
 20
5.0411930545838004
 30
0.0
 11
32.722112069619932
 21
6.0660641851804931
 31
0.0
  0
LINE
  5
1A4
  8
0
 62
     0
 10
37.956069033108179
 20
12.64705956682883
 30
0.0
 11
38.980940163704418
 21
13.67193069742552
 31
0.0
  0
LINE
  5
1A5
  8
0
 62
     0
 10
44.272389933083097
 20
18.963380466803748
 30
0.0
 11
44.807798281617572
 21
19.49878881533823
 31
0.0
  0
LINE
  5
1A6
  8
0
 62
     0
 10
31.204190658103471
 20
5.895181191824121
 30
0.0
 11
32.22906178869971
 21
6.9200523224203598
 31
0.0
  0
LINE
  5
1A7
  8
0
 62
     0
 10
37.102080895868312
 20
13.1401098477495
 30
0.0
 11
38.126952026464551
 21
14.16498097834574
 31
0.0
  0
LINE
  5
1A8
  8
0
 62
     0
 10
30.711140377182801
 20
6.7491693290639878
 30
0.0
 11
31.736011507779502
 21
7.7740404596606822
 31
0.0
  0
LINE
  5
1A9
  8
0
 62
     0
 10
43.409359110978578
 20
19.447388062859769
 30
0.0
 11
44.950128600397868
 21
20.988157552279059
 31
0.0
  0
LINE
  5
1AA
  8
0
 62
     0
 10
24.269093270575919
 20
0.3071222224571102
 30
0.0
 11
25.598140426907779
 21
1.6361693787889631
 31
0.0
  0
LINE
  5
1AB
  8
0
 62
     0
 10
36.24809275862799
 20
13.63316012866926
 30
0.0
 11
37.272963889224677
 21
14.65803125926595
 31
0.0
  0
LINE
  5
1AC
  8
0
 62
     0
 10
30.218090096262589
 20
7.6031574663038546
 30
0.0
 11
31.242961226859279
 21
8.628028596900549
 31
0.0
  0
LINE
  5
1AD
  8
0
 62
     0
 10
43.543199521917813
 20
20.928266891959542
 30
0.0
 11
44.99338843343093
 21
22.378455803472662
 31
0.0
  0
LINE
  5
1AE
  8
0
 62
     0
 10
23.776042989656158
 20
1.161110359697431
 30
0.0
 11
25.826218292683741
 21
3.211285662725003
 31
0.0
  0
LINE
  5
1AF
  8
0
 62
     0
 10
35.394104621388578
 20
14.12621040958993
 30
0.0
 11
36.418975751984817
 21
15.151081540186169
 31
0.0
  0
LINE
  5
1B0
  8
0
 62
     0
 10
29.725039815342829
 20
8.4571456035441752
 30
0.0
 11
30.749910945939071
 21
9.4820167341404158
 31
0.0
  0
LINE
  5
1B1
  8
0
 62
     0
 10
42.950626727445517
 20
21.68273251564688
 30
0.0
 11
44.955518260044748
 21
23.687624048246111
 31
0.0
  0
LINE
  5
1B2
  8
0
 62
     0
 10
24.430978780912479
 20
3.163084569114289
 30
0.0
 11
25.66477905537932
 21
4.396884843580664
 31
0.0
  0
LINE
  5
1B3
  8
0
 62
     0
 10
34.540116484147802
 20
14.61926069051014
 30
0.0
 11
35.564987614744041
 21
15.64413182110593
 31
0.0
  0
LINE
  5
1B4
  8
0
 62
     0
 10
29.2319895344217
 20
9.311133740783589
 30
0.0
 11
30.25686066501839
 21
10.336004871380281
 31
0.0
  0
LINE
  5
1B5
  8
0
 62
     0
 10
41.60358830928498
 20
21.68273251564688
 30
0.0
 11
43.003588309283707
 21
23.082732515645599
 31
0.0
  0
LINE
  5
1B6
  8
0
 62
     0
 10
24.216496239562272
 20
4.2956404459246178
 30
0.0
 11
25.339084877399269
 21
5.4182290837611609
 31
0.0
  0
LINE
  5
1B7
  8
0
 62
     0
 10
43.556176473322459
 20
23.635320679684352
 30
0.0
 11
44.826400802803612
 21
24.905545009165511
 31
0.0
  0
LINE
  5
1B8
  8
0
 62
     0
 10
19.960530494287919
 20
0.0396747006498117
 30
0.0
 11
21.385610184109741
 21
1.4647543904716249
 31
0.0
  0
LINE
  5
1B9
  8
0
 62
     0
 10
28.73893925350194
 20
10.16512187802436
 30
0.0
 11
29.76381038409864
 21
11.189993008621061
 31
0.0
  0
LINE
  5
1BA
  8
0
 62
     0
 10
33.686128346907928
 20
15.112310971430359
 30
0.0
 11
34.710999477504167
 21
16.1371821020266
 31
0.0
  0
LINE
  5
1BB
  8
0
 62
     0
 10
23.577448934951011
 20
5.0036315594734333
 30
0.0
 11
24.773610249095331
 21
6.1997928736177519
 31
0.0
  0
LINE
  5
1BC
  8
0
 62
     0
 10
40.256549891124898
 20
21.682732515647331
 30
0.0
 11
41.656549891123632
 21
23.082732515646061
 31
0.0
  0
LINE
  5
1BD
  8
0
 62
     0
 10
19.497253968089812
 20
0.9234365926122337
 30
0.0
 11
20.87248979605511
 21
2.2986724205775309
 31
0.0
  0
LINE
  5
1BE
  8
0
 62
     0
 10
28.24588897258127
 20
11.01911001526423
 30
0.0
 11
29.27076010317796
 21
12.04398114586092
 31
0.0
  0
LINE
  5
1BF
  8
0
 62
     0
 10
32.832140209667621
 20
15.605361252350569
 30
0.0
 11
33.85701134026386
 21
16.63023238294727
 31
0.0
  0
LINE
  5
1C0
  8
0
 62
     0
 10
22.558426579485062
 20
5.3316476221680196
 30
0.0
 11
24.002989235875251
 21
6.7762102785582101
 31
0.0
  0
LINE
  5
1C1
  8
0
 62
     0
 10
38.909511472964368
 20
21.682732515647331
 30
0.0
 11
40.309511472963088
 21
23.082732515646061
 31
0.0
  0
LINE
  5
1C2
  8
0
 62
     0
 10
19.319119217871499
 20
2.0923402605544652
 30
0.0
 11
20.544473733360071
 21
3.3176947760430262
 31
0.0
  0
LINE
  5
1C3
  8
0
 62
     0
 10
31.978152072427751
 20
16.098411533271239
 30
0.0
 11
33.003023203023993
 21
17.123282663867482
 31
0.0
  0
LINE
  5
1C4
  8
0
 62
     0
 10
27.7528386916606
 20
11.873098152504101
 30
0.0
 11
28.7777098222573
 21
12.897969283100791
 31
0.0
  0
LINE
  5
1C5
  8
0
 62
     0
 10
37.562473054803831
 20
21.682732515647331
 30
0.0
 11
38.962473054803013
 21
23.082732515646509
 31
0.0
  0
LINE
  5
1C6
  8
0
 62
     0
 10
19.158831540226402
 20
3.2790910010698999
 30
0.0
 11
23.19338883988075
 21
7.3136483007242532
 31
0.0
  0
LINE
  5
1C7
  8
0
 62
     0
 10
27.259788410740839
 20
12.72708628974442
 30
0.0
 11
28.284659541337529
 21
13.75195742034111
 31
0.0
  0
LINE
  5
1C8
  8
0
 62
     0
 10
31.124163935188339
 20
16.591461814191909
 30
0.0
 11
32.149035065784119
 21
17.6163329447877
 31
0.0
  0
LINE
  5
1C9
  8
0
 62
     0
 10
21.79315371073017
 20
7.2604515897337469
 30
0.0
 11
23.193388839881209
 21
8.66068671888479
 31
0.0
  0
LINE
  5
1CA
  8
0
 62
     0
 10
36.215434636643749
 20
21.682732515647331
 30
0.0
 11
37.615434636642483
 21
23.082732515646061
 31
0.0
  0
LINE
  5
1CB
  8
0
 62
     0
 10
19.43778624150309
 20
4.9050841205066709
 30
0.0
 11
21.54297168893163
 21
7.0102695679352101
 31
0.0
  0
LINE
  5
1CC
  8
0
 62
     0
 10
30.27017579794801
 20
17.08451209511167
 30
0.0
 11
31.295046928544249
 21
18.109383225707909
 31
0.0
  0
LINE
  5
1CD
  8
0
 62
     0
 10
26.766738129820631
 20
13.58107442698428
 30
0.0
 11
27.791609260417321
 21
14.605945557580981
 31
0.0
  0
LINE
  5
1CE
  8
0
 62
     0
 10
34.868396218483667
 20
21.682732515647331
 30
0.0
 11
36.268396218482387
 21
23.082732515646061
 31
0.0
  0
LINE
  5
1CF
  8
0
 62
     0
 10
21.793388839881121
 20
8.6077251370447811
 30
0.0
 11
23.193388839881209
 21
10.00772513704487
 31
0.0
  0
LINE
  5
1D0
  8
0
 62
     0
 10
29.411048637301981
 20
17.572423352626171
 30
0.0
 11
33.034660795606207
 21
21.196035510930411
 31
0.0
  0
LINE
  5
1D1
  8
0
 62
     0
 10
26.273687848899499
 20
14.435062564223699
 30
0.0
 11
27.298558979496651
 21
15.459933694820849
 31
0.0
  0
LINE
  5
1D2
  8
0
 62
     0
 10
33.521357800322683
 20
21.68273251564688
 30
0.0
 11
34.921357800321857
 21
23.082732515646061
 31
0.0
  0
LINE
  5
1D3
  8
0
 62
     0
 10
21.793388839880659
 20
9.9547635552048632
 30
0.0
 11
23.193388839881209
 21
11.354763555205411
 31
0.0
  0
LINE
  5
1D4
  8
0
 62
     0
 10
41.477576142239279
 20
29.638950857563479
 30
0.0
 11
43.119984525855209
 21
31.28135924117942
 31
0.0
  0
LINE
  5
1D5
  8
0
 62
     0
 10
13.68779596773993
 20
1.8491706830641299
 30
0.0
 11
13.95085516185827
 21
2.1122298771824708
 31
0.0
  0
LINE
  5
1D6
  8
0
 62
     0
 10
28.074169382161472
 20
17.58258251564575
 30
0.0
 11
29.816727589872698
 21
19.325140723357428
 31
0.0
  0
LINE
  5
1D7
  8
0
 62
     0
 10
25.780637567979738
 20
15.289050701464021
 30
0.0
 11
26.805508698576428
 21
16.313921832060711
 31
0.0
  0
LINE
  5
1D8
  8
0
 62
     0
 10
31.46401663216966
 20
20.972429765653938
 30
0.0
 11
33.574319382161782
 21
23.082732515646061
 31
0.0
  0
LINE
  5
1D9
  8
0
 62
     0
 10
21.793388839880659
 20
11.3018019733654
 30
0.0
 11
23.193388839882122
 21
12.7018019733664
 31
0.0
  0
LINE
  5
1DA
  8
0
 62
     0
 10
38.923142204591841
 20
28.43155533807613
 30
0.0
 11
42.374319382161957
 21
31.882732515646239
 31
0.0
  0
LINE
  5
1DB
  8
0
 62
     0
 10
12.644436892622711
 20
2.1528500261069889
 30
0.0
 11
13.695856746527619
 21
3.204269880011906
 31
0.0
  0
LINE
  5
1DC
  8
0
 62
     0
 10
26.72713096400048
 20
17.58258251564575
 30
0.0
 11
28.127130964000571
 21
18.982582515645841
 31
0.0
  0
LINE
  5
1DD
  8
0
 62
     0
 10
25.287587287059068
 20
16.143038838704339
 30
0.0
 11
26.312458417655758
 21
17.167909969301029
 31
0.0
  0
LINE
  5
1DE
  8
0
 62
     0
 10
31.802193948351938
 20
22.657645499997219
 30
0.0
 11
33.007983737172708
 21
23.863435288817978
 31
0.0
  0
LINE
  5
1DF
  8
0
 62
     0
 10
21.793388839880659
 20
12.64884039152593
 30
0.0
 11
23.19338883988166
 21
14.04884039152693
 31
0.0
  0
LINE
  5
1E0
  8
0
 62
     0
 10
37.644912234163257
 20
28.500363785808531
 30
0.0
 11
39.08189192064583
 21
29.937343472291111
 31
0.0
  0
LINE
  5
1E1
  8
0
 62
     0
 10
11.75509979157914
 20
2.6105513432244152
 30
0.0
 11
12.79055296716751
 21
3.646004518812787
 31
0.0
  0
LINE
  5
1E2
  8
0
 62
     0
 10
24.794537006138398
 20
16.997026975944209
 30
0.0
 11
26.780092545840489
 21
18.982582515646751
 31
0.0
  0
LINE
  5
1E3
  8
0
 62
     0
 10
31.562982777205431
 20
23.765472747011241
 30
0.0
 11
32.614674832565932
 21
24.817164802371739
 31
0.0
  0
LINE
  5
1E4
  8
0
 62
     0
 10
21.793388839880659
 20
13.99587880968693
 30
0.0
 11
23.19338883988166
 21
15.395878809687471
 31
0.0
  0
LINE
  5
1E5
  8
0
 62
     0
 10
36.710209575355748
 20
28.912699545161558
 30
0.0
 11
37.984712014485467
 21
30.187201984291281
 31
0.0
  0
LINE
  5
1E6
  8
0
 62
     0
 10
10.898128247816659
 20
3.1006182176224679
 30
0.0
 11
13.905386967662251
 21
6.1078769374680633
 31
0.0
  0
LINE
  5
1E7
  8
0
 62
     0
 10
24.03305412768032
 20
17.582582515646209
 30
0.0
 11
25.46051922869356
 21
19.010047616659449
 31
0.0
  0
LINE
  5
1E8
  8
0
 62
     0
 10
21.793388839880659
 20
15.342917227847011
 30
0.0
 11
23.193388839882122
 21
16.742917227848459
 31
0.0
  0
LINE
  5
1E9
  8
0
 62
     0
 10
31.0747851405281
 20
24.624313528493989
 30
0.0
 11
32.070449342122629
 21
25.619977730088522
 31
0.0
  0
LINE
  5
1EA
  8
0
 62
     0
 10
11.920604536147041
 20
5.4701329241133863
 30
0.0
 11
15.745475666743459
 21
9.2950040547093522
 31
0.0
  0
LINE
  5
1EB
  8
0
 62
     0
 10
35.581117300815102
 20
29.130645688780991
 30
0.0
 11
37.296366699030841
 21
30.845895086996741
 31
0.0
  0
LINE
  5
1EC
  8
0
 62
     0
 10
10.07237972019265
 20
3.62190810815855
 30
0.0
 11
11.08397257870365
 21
4.6335009666695441
 31
0.0
  0
LINE
  5
1ED
  8
0
 62
     0
 10
30.394804746790669
 20
25.29137155291664
 30
0.0
 11
31.39233628358534
 21
26.288903089711312
 31
0.0
  0
LINE
  5
1EE
  8
0
 62
     0
 10
21.793388839881121
 20
16.689955646007089
 30
0.0
 11
24.751047060656219
 21
19.647613866782191
 31
0.0
  0
LINE
  5
1EF
  8
0
 62
     0
 10
32.39399018357517
 20
27.290556989701141
 30
0.0
 11
36.997906859439809
 21
31.89447366556578
 31
0.0
  0
LINE
  5
1F0
  8
0
 62
     0
 10
13.76069323522824
 20
8.6572600413542204
 30
0.0
 11
17.585564365825121
 21
12.482131171951091
 31
0.0
  0
LINE
  5
1F1
  8
0
 62
     0
 10
38.936130361866617
 20
33.832697167992592
 30
0.0
 11
40.702607853005702
 21
35.599174659131677
 31
0.0
  0
LINE
  5
1F2
  8
0
 62
     0
 10
9.2769466963968625
 20
4.1735135025228374
 30
0.0
 11
10.28015305167264
 21
5.1767198577986164
 31
0.0
  0
LINE
  5
1F3
  8
0
 62
     0
 10
29.521388992368429
 20
25.76499421665449
 30
0.0
 11
33.031734196932582
 21
29.275339421218629
 31
0.0
  0
LINE
  5
1F4
  8
0
 62
     0
 10
21.338977291359239
 20
17.582582515645299
 30
0.0
 11
25.401222482481899
 21
21.644827706767959
 31
0.0
  0
LINE
  5
1F5
  8
0
 62
     0
 10
35.254095516790592
 20
31.497700741076638
 30
0.0
 11
39.389084081846711
 21
35.632689306132761
 31
0.0
  0
LINE
  5
1F6
  8
0
 62
     0
 10
15.600781934309
 20
11.844387158595049
 30
0.0
 11
19.425653064906331
 21
15.66925828919238
 31
0.0
  0
LINE
  5
1F7
  8
0
 62
     0
 10
28.390922367666921
 20
25.981566010113511
 30
0.0
 11
29.84460707969129
 21
27.43525072213788
 31
0.0
  0
LINE
  5
1F8
  8
0
 62
     0
 10
35.808280404333352
 20
33.398924046779939
 30
0.0
 11
36.779869661122568
 21
34.370513303569169
 31
0.0
  0
LINE
  5
1F9
  8
0
 62
     0
 10
17.44087063338975
 20
15.03151427583634
 30
0.0
 11
25.42571236705772
 21
23.016356009504761
 31
0.0
  0
LINE
  5
1FA
  8
0
 62
     0
 10
23.917156904117292
 20
22.85483896472488
 30
0.0
 11
25.036484759282761
 21
23.974166819890339
 31
0.0
  0
LINE
  5
1FB
  8
0
 62
     0
 10
20.892971277634839
 20
19.830653338242421
 30
0.0
 11
22.02128239080275
 21
20.958964451410338
 31
0.0
  0
LINE
  5
1FC
  8
0
 62
     0
 10
27.044900455037808
 20
25.982582515645849
 30
0.0
 11
28.443000896145811
 21
27.38068295675339
 31
0.0
  0
LINE
  5
1FD
  8
0
 62
     0
 10
18.609299227445721
 20
17.546981288053761
 30
0.0
 11
20.04490045503826
 21
18.982582515645841
 31
0.0
  0
LINE
  5
1FE
  8
0
 62
     0
 10
23.337774953907228
 20
23.622495432674889
 30
0.0
 11
24.407789284975031
 21
24.692509763742692
 31
0.0
  0
LINE
  5
1FF
  8
0
 62
     0
 10
20.189495101196371
 20
20.474215579964039
 30
0.0
 11
21.18296208478068
 21
21.467682563548809
 31
0.0
  0
LINE
  5
200
  8
0
 62
     0
 10
25.697862036878181
 20
25.982582515645849
 30
0.0
 11
27.097862036878269
 21
27.382582515645939
 31
0.0
  0
LINE
  5
201
  8
0
 62
     0
 10
17.29786203687808
 20
17.58258251564575
 30
0.0
 11
18.697862036878181
 21
18.982582515645841
 31
0.0
  0
LINE
  5
202
  8
0
 62
     0
 10
22.227158335696458
 20
23.858917232624659
 30
0.0
 11
23.657407586536468
 21
25.289166483464669
 31
0.0
  0
LINE
  5
203
  8
0
 62
     0
 10
24.350823618717641
 20
25.982582515645849
 30
0.0
 11
26.78600786122934
 21
28.417766758157541
 31
0.0
  0
LINE
  5
204
  8
0
 62
     0
 10
15.95082361871755
 20
17.582582515646209
 30
0.0
 11
17.350823618717641
 21
18.9825825156463
 31
0.0
  0
LINE
  5
205
  8
0
 62
     0
 10
20.534753716364779
 20
23.513551031453058
 30
0.0
 11
24.403785200558112
 21
27.382582515646391
 31
0.0
  0
LINE
  5
206
  8
0
 62
     0
 10
24.8012254297123
 20
27.78002274480059
 30
0.0
 11
28.626096560310089
 21
31.60489387539883
 31
0.0
  0
LINE
  5
207
  8
0
 62
     0
 10
13.271227480131071
 20
16.250024795219812
 30
0.0
 11
16.059299831926641
 21
19.03809714701492
 31
0.0
  0
LINE
  5
208
  8
0
 62
     0
 10
21.335319425701069
 20
25.661155158949899
 30
0.0
 11
23.21202721180407
 21
27.537862945052439
 31
0.0
  0
LINE
  5
209
  8
0
 62
     0
 10
10.08410036289024
 20
14.40993609613861
 30
0.0
 11
15.05628208054895
 21
19.382117813797318
 31
0.0
  0
LINE
  5
20A
  8
0
 62
     0
 10
26.641314128793969
 20
30.96714986204233
 30
0.0
 11
30.466185259391299
 21
34.792020992639671
 31
0.0
  0
LINE
  5
20B
  8
0
 62
     0
 10
4.560298712392977
 20
8.8861344456413462
 30
0.0
 11
5.5153379150974606
 21
9.8411736483458299
 31
0.0
  0
LINE
  5
20C
  8
0
 62
     0
 10
20.309708364236482
 20
25.98258251564539
 30
0.0
 11
23.193388839881209
 21
28.86626299129011
 31
0.0
  0
LINE
  5
20D
  8
0
 62
     0
 10
13.28073749689565
 20
18.95361164830501
 30
0.0
 11
14.27092911073168
 21
19.943803262141039
 31
0.0
  0
LINE
  5
20E
  8
0
 62
     0
 10
28.481402827874259
 20
34.154276979283168
 30
0.0
 11
32.3062739584716
 21
37.979148109880498
 31
0.0
  0
LINE
  5
20F
  8
0
 62
     0
 10
6.8969732456484962
 20
12.5698473970574
 30
0.0
 11
10.72184437624492
 21
16.394718527653819
 31
0.0
  0
LINE
  5
210
  8
0
 62
     0
 10
34.238655193517388
 20
39.911529344926301
 30
0.0
 11
35.246517139866683
 21
40.919391291275588
 31
0.0
  0
LINE
  5
211
  8
0
 62
     0
 10
3.9567300642524961
 20
9.6296042156614021
 30
0.0
 11
4.964592010600426
 21
10.63746616200933
 31
0.0
  0
LINE
  5
212
  8
0
 62
     0
 10
18.962669946076851
 20
25.9825825156463
 30
0.0
 11
20.41125602135299
 21
27.43116859092288
 31
0.0
  0
LINE
  5
213
  8
0
 62
     0
 10
21.793388839881569
 20
28.813301409451011
 30
0.0
 11
23.19338883988166
 21
30.213301409451098
 31
0.0
  0
LINE
  5
214
  8
0
 62
     0
 10
12.660512264042611
 20
19.680424833612051
 30
0.0
 11
13.672602631935201
 21
20.692515201504651
 31
0.0
  0
LINE
  5
215
  8
0
 62
     0
 10
30.321491526955018
 20
37.341404096524911
 30
0.0
 11
34.433385648495921
 21
41.453298218065349
 31
0.0
  0
LINE
  5
216
  8
0
 62
     0
 10
3.422823137462728
 20
10.44273570703217
 30
0.0
 11
7.5347172590036271
 21
14.55462982857307
 31
0.0
  0
LINE
  5
217
  8
0
 62
     0
 10
17.615631527915859
 20
25.982582515645849
 30
0.0
 11
19.902804765691599
 21
28.269755753421581
 31
0.0
  0
LINE
  5
218
  8
0
 62
     0
 10
21.793388839881569
 20
30.160339827611551
 30
0.0
 11
23.193388839881209
 21
31.560339827611639
 31
0.0
  0
LINE
  5
219
  8
0
 62
     0
 10
12.17910630151118
 20
20.54605728924162
 30
0.0
 11
13.281140507803681
 21
21.64809149553367
 31
0.0
  0
LINE
  5
21A
  8
0
 62
     0
 10
32.161580226035767
 20
40.528531213765739
 30
0.0
 11
33.589432544274587
 21
41.95638353200502
 31
0.0
  0
LINE
  5
21B
  8
0
 62
     0
 10
2.919737823523064
 20
11.28668881125304
 30
0.0
 11
4.3475901417627929
 21
12.714541129492771
 31
0.0
  0
LINE
  5
21C
  8
0
 62
     0
 10
18.38488335417469
 20
28.09887276006566
 30
0.0
 11
19.409754484770929
 21
29.123743890661441
 31
0.0
  0
LINE
  5
21D
  8
0
 62
     0
 10
16.240916134880081
 20
25.9549055407706
 30
0.0
 11
17.668593109755871
 21
27.382582515646391
 31
0.0
  0
LINE
  5
21E
  8
0
 62
     0
 10
21.793388839881121
 20
31.507378245772092
 30
0.0
 11
23.19338883988166
 21
32.907378245772179
 31
0.0
  0
LINE
  5
21F
  8
0
 62
     0
 10
11.850690394914629
 20
21.564679800805148
 30
0.0
 11
13.207879814757231
 21
22.92186922064775
 31
0.0
  0
LINE
  5
220
  8
0
 62
     0
 10
31.66914902644157
 20
41.383138432332537
 30
0.0
 11
32.71361645612842
 21
42.427605862018929
 31
0.0
  0
LINE
  5
221
  8
0
 62
     0
 10
2.4485154935091482
 20
12.162504899400121
 30
0.0
 11
3.4929829231941758
 21
13.206972329084691
 31
0.0
  0
LINE
  5
222
  8
0
 62
     0
 10
17.891833073254929
 20
28.952860897305531
 30
0.0
 11
18.916704203851172
 21
29.977732027901769
 31
0.0
  0
LINE
  5
223
  8
0
 62
     0
 10
21.793388839881121
 20
32.854416663931723
 30
0.0
 11
23.19338883988166
 21
34.254416663932723
 31
0.0
  0
LINE
  5
224
  8
0
 62
     0
 10
10.621704691596729
 20
21.682732515647331
 30
0.0
 11
16.307348334142709
 21
27.36837615819331
 31
0.0
  0
LINE
  5
225
  8
0
 62
     0
 10
30.901403138263511
 20
41.962430962314102
 30
0.0
 11
31.804639378820411
 21
42.865667202871002
 31
0.0
  0
LINE
  5
226
  8
0
 62
     0
 10
2.0104541526570752
 20
13.07148197670767
 30
0.0
 11
3.0726861476127851
 21
14.133713971663839
 31
0.0
  0
LINE
  5
227
  8
0
 62
     0
 10
12.330351320440061
 20
24.738417562650739
 30
0.0
 11
15.06927232098314
 21
27.477338563193829
 31
0.0
  0
LINE
  5
228
  8
0
 62
     0
 10
17.39878279233471
 20
29.806849034545401
 30
0.0
 11
18.423653922930949
 21
30.83172016514164
 31
0.0
  0
LINE
  5
229
  8
0
 62
     0
 10
9.2746662734366492
 20
21.682732515647331
 30
0.0
 11
10.674666273435379
 21
23.082732515646061
 31
0.0
  0
LINE
  5
22A
  8
0
 62
     0
 10
21.793388839881569
 20
34.201455082092259
 30
0.0
 11
23.19338883988166
 21
35.601455082092798
 31
0.0
  0
LINE
  5
22B
  8
0
 62
     0
 10
1.652939962256823
 20
14.0610062044675
 30
0.0
 11
2.125284143526641
 21
14.53335038573732
 31
0.0
  0
LINE
  5
22C
  8
0
 62
     0
 10
16.90573251141404
 20
30.660837171785261
 30
0.0
 11
17.930603642010279
 21
31.685708302381499
 31
0.0
  0
LINE
  5
22D
  8
0
 62
     0
 10
13.19041305314567
 20
26.945517713517351
 30
0.0
 11
14.215284183742369
 21
27.970388844114041
 31
0.0
  0
LINE
  5
22E
  8
0
 62
     0
 10
21.793388839881121
 20
35.548493500252341
 30
0.0
 11
23.19338883988166
 21
36.94849350025288
 31
0.0
  0
LINE
  5
22F
  8
0
 62
     0
 10
7.9276278552756594
 20
21.68273251564688
 30
0.0
 11
9.3276278552748408
 21
23.082732515646061
 31
0.0
  0
LINE
  5
230
  8
0
 62
     0
 10
16.412682230493829
 20
31.514825309025579
 30
0.0
 11
17.437553361090071
 21
32.539696439622283
 31
0.0
  0
LINE
  5
231
  8
0
 62
     0
 10
12.336424915905811
 20
27.43856799443757
 30
0.0
 11
13.361296046502501
 21
28.46343912503426
 31
0.0
  0
LINE
  5
232
  8
0
 62
     0
 10
21.793388839881121
 20
36.895531918412871
 30
0.0
 11
23.19338883988166
 21
38.295531918413872
 31
0.0
  0
LINE
  5
233
  8
0
 62
     0
 10
6.5805894371155773
 20
21.682732515647331
 30
0.0
 11
7.980589437114304
 21
23.082732515646061
 31
0.0
  0
LINE
  5
234
  8
0
 62
     0
 10
15.91963194957316
 20
32.368813446265449
 30
0.0
 11
16.94450308016939
 21
33.39368457686215
 31
0.0
  0
LINE
  5
235
  8
0
 62
     0
 10
11.482436778665029
 20
27.931618275357781
 30
0.0
 11
12.507307909262179
 21
28.956489405954471
 31
0.0
  0
LINE
  5
236
  8
0
 62
     0
 10
21.793388839880659
 20
38.242570336572953
 30
0.0
 11
23.19338883988166
 21
39.642570336573947
 31
0.0
  0
LINE
  5
237
  8
0
 62
     0
 10
5.2335510189550396
 20
21.682732515647331
 30
0.0
 11
6.6335510189537672
 21
23.082732515646061
 31
0.0
  0
LINE
  5
238
  8
0
 62
     0
 10
10.628448641425161
 20
28.424668556278
 30
0.0
 11
11.653319772022311
 21
29.449539686875141
 31
0.0
  0
LINE
  5
239
  8
0
 62
     0
 10
15.42658166865294
 20
33.222801583506218
 30
0.0
 11
16.45145279924963
 21
34.247672714102919
 31
0.0
  0
LINE
  5
23A
  8
0
 62
     0
 10
3.8865126007945028
 20
21.682732515647331
 30
0.0
 11
5.2865126007936851
 21
23.082732515646509
 31
0.0
  0
LINE
  5
23B
  8
0
 62
     0
 10
21.793388839880659
 20
39.58960875473349
 30
0.0
 11
23.193388839882122
 21
40.989608754734938
 31
0.0
  0
LINE
  5
23C
  8
0
 62
     0
 10
1.2604580815764159
 20
19.056677996429698
 30
0.0
 11
1.5509510800325179
 21
19.347170994885801
 31
0.0
  0
LINE
  5
23D
  8
0
 62
     0
 10
14.933531387733179
 20
34.076789720746092
 30
0.0
 11
15.95840251832942
 21
35.101660851342331
 31
0.0
  0
LINE
  5
23E
  8
0
 62
     0
 10
9.7744605041848445
 20
28.91771883719775
 30
0.0
 11
10.79933163478244
 21
29.94258996779536
 31
0.0
  0
LINE
  5
23F
  8
0
 62
     0
 10
21.793388839881121
 20
40.93664717289402
 30
0.0
 11
23.193388839882122
 21
42.33664717289502
 31
0.0
  0
LINE
  5
240
  8
0
 62
     0
 10
2.5394741826344212
 20
21.682732515647331
 30
0.0
 11
3.9394741826331479
 21
23.082732515646061
 31
0.0
  0
LINE
  5
241
  8
0
 62
     0
 10
24.26497056646258
 20
43.408228899475482
 30
0.0
 11
25.224217779678838
 21
44.367476112691747
 31
0.0
  0
LINE
  5
242
  8
0
 62
     0
 10
0.2020183041963719
 20
19.345276637209281
 30
0.0
 11
1.4678924560589619
 21
20.61115078907233
 31
0.0
  0
LINE
  5
243
  8
0
 62
     0
 10
14.440481106812969
 20
34.930777857985959
 30
0.0
 11
15.465352237409199
 21
35.955648988582197
 31
0.0
  0
LINE
  5
244
  8
0
 62
     0
 10
8.8669576603424503
 20
29.357254411515441
 30
0.0
 11
9.9453434975425807
 21
30.435640248715568
 31
0.0
  0
LINE
  5
245
  8
0
 62
     0
 10
21.793388839881121
 20
42.283685591054109
 30
0.0
 11
24.318306444069101
 21
44.808603195242078
 31
0.0
  0
LINE
  5
246
  8
0
 62
     0
 10
0.0675181602859993
 20
20.557814911458991
 30
0.0
 11
2.5924357644730658
 21
23.082732515646061
 31
0.0
  0
LINE
  5
247
  8
0
 62
     0
 10
13.94743082589229
 20
35.784765995225833
 30
0.0
 11
14.972301956488529
 21
36.809637125822071
 31
0.0
  0
LINE
  5
248
  8
0
 62
     0
 10
6.5595302481792714
 20
28.396865417513251
 30
0.0
 11
9.7341158055569394
 21
31.571450974890471
 31
0.0
  0
LINE
  5
249
  8
0
 62
     0
 10
21.613663218653532
 20
43.450998387987049
 30
0.0
 11
23.038786191240892
 21
44.876121360574871
 31
0.0
  0
LINE
  5
24A
  8
0
 62
     0
 10
-0.0000000050467861
 20
21.837335164286738
 30
0.0
 11
1.425122967542847
 21
23.262458136876379
 31
0.0
  0
LINE
  5
24B
  8
0
 62
     0
 10
7.7334307855871884
 20
30.917804373080799
 30
0.0
 11
9.5319718209493658
 21
32.716345408442983
 31
0.0
  0
LINE
  5
24C
  8
0
 62
     0
 10
13.45438054497208
 20
36.638754132465692
 30
0.0
 11
14.479251675568319
 21
37.663625263061931
 31
0.0
  0
LINE
  5
24D
  8
0
 62
     0
 10
5.4145484616224158
 20
28.59892204911603
 30
0.0
 11
7.0038343105434251
 21
30.188207898037039
 31
0.0
  0
LINE
  5
24E
  8
0
 62
     0
 10
20.213645448810439
 20
43.398019036304042
 30
0.0
 11
21.683788598246789
 21
44.868162185740857
 31
0.0
  0
LINE
  5
24F
  8
0
 62
     0
 10
0.0079591697872274
 20
23.192332757280841
 30
0.0
 11
1.5101599204963341
 21
24.694533507989949
 31
0.0
  0
LINE
  5
250
  8
0
 62
     0
 10
7.9078136930370411
 20
32.439225698691651
 30
0.0
 11
9.0468879172371999
 21
33.578299922891802
 31
0.0
  0
LINE
  5
251
  8
0
 62
     0
 10
12.96133026405141
 20
37.492742269706021
 30
0.0
 11
13.986201394647651
 21
38.517613400302707
 31
0.0
  0
LINE
  5
252
  8
0
 62
     0
 10
4.4342551579552492
 20
28.965667163609851
 30
0.0
 11
5.4824129849330339
 21
30.01382499058764
 31
0.0
  0
LINE
  5
253
  8
0
 62
     0
 10
19.752884904430172
 20
44.284296910085232
 30
0.0
 11
20.237995096999839
 21
44.769407102654441
 31
0.0
  0
LINE
  5
254
  8
0
 62
     0
 10
0.1067142528731892
 20
24.638126258527791
 30
0.0
 11
0.664977675339742
 21
25.196389680994798
 31
0.0
  0
LINE
  5
255
  8
0
 62
     0
 10
7.4003436696466451
 20
33.278794093461777
 30
0.0
 11
8.3619593580456222
 21
34.240409781860762
 31
0.0
  0
LINE
  5
256
  8
0
 62
     0
 10
12.4682799831312
 20
38.34673040694679
 30
0.0
 11
13.49315111372743
 21
39.371601537542581
 31
0.0
  0
LINE
  5
257
  8
0
 62
     0
 10
3.648800717066933
 20
29.527251140882068
 30
0.0
 11
4.6428445901633486
 21
30.521295013978492
 31
0.0
  0
LINE
  5
258
  8
0
 62
     0
 10
6.5413905487944239
 20
33.766879390769653
 30
0.0
 11
7.6039053017557299
 21
34.829394143730951
 31
0.0
  0
LINE
  5
259
  8
0
 62
     0
 10
11.97522970221098
 20
39.200718544186657
 30
0.0
 11
13.00010083280722
 21
40.225589674782441
 31
0.0
  0
LINE
  5
25A
  8
0
 62
     0
 10
2.9005067101570599
 20
30.125995552132281
 30
0.0
 11
4.1547592928550321
 21
31.38024813483025
 31
0.0
  0
LINE
  5
25B
  8
0
 62
     0
 10
5.1025614912891788
 20
33.675088751424937
 30
0.0
 11
6.6493831657317051
 21
35.221910425867009
 31
0.0
  0
LINE
  5
25C
  8
0
 62
     0
 10
11.482179421291219
 20
40.054706681426516
 30
0.0
 11
13.982429186738949
 21
42.55495644687425
 31
0.0
  0
LINE
  5
25D
  8
0
 62
     0
 10
2.152212703246732
 20
30.72473996338249
 30
0.0
 11
3.3102052555109358
 21
31.882732515646239
 31
0.0
  0
LINE
  5
25E
  8
0
 62
     0
 10
9.9268536980416684
 20
39.84641937633706
 30
0.0
 11
12.738642998914649
 21
42.658208677210041
 31
0.0
  0
LINE
  5
25F
  8
0
 62
     0
 10
4.5470820337650357
 20
34.466647712060421
 30
0.0
 11
5.680701582423807
 21
35.6002672607192
 31
0.0
  0
LINE
  5
260
  8
0
 62
     0
 10
4.2050556610638523
 20
35.471659757519781
 30
0.0
 11
4.5906407358738761
 21
35.857244832329798
 31
0.0
  0
ENDBLK
  5
262
  8
0
  0
BLOCK
  8
0
  2
*U3
 70
     1
 10
0.0
 20
0.0
 30
0.0
  3
*U3
  1

  0
ARC
  5
264
  8
0
 10
20.674648889393211
 20
17.33258251564575
 30
0.0
 40
0.2500000000002347
 50
89.999999999895778
 51
149.99999999989939
  0
LINE
  5
265
  8
0
 10
20.674648889393669
 20
17.582582515645981
 30
0.0
 11
21.543388839880659
 21
17.582582515645981
 31
0.0
  0
LINE
  5
266
  8
0
 10
12.68543358766828
 20
3.9948557004531722
 30
0.0
 11
20.458142538447191
 21
17.457582515646209
 31
0.0
  0
ARC
  5
267
  8
0
 10
21.543388839880659
 20
17.332582515645981
 30
0.0
 40
0.25
 50
0.0
 51
90.0
  0
ARC
  5
268
  8
0
 10
12.90193993861385
 20
3.869855700452717
 30
0.0
 40
0.2499999999996843
 50
149.99999999984729
 51
242.6115031947059
  0
LINE
  5
269
  8
0
 10
21.793388839880659
 20
17.332582515645981
 30
0.0
 11
21.793388839880659
 21
7.2712917599112643
 31
0.0
  0
ARC
  5
26A
  8
0
 10
22.493388839822732
 20
22.382732515684658
 30
0.0
 40
21.100000000010368
 50
242.61150319501499
 51
245.6748470449692
  0
ARC
  5
26B
  8
0
 10
21.54338883988521
 20
7.2712917599137654
 30
0.0
 40
0.2499999999952652
 50
285.98360715704251
 51
359.99999999942679
  0
ARC
  5
26C
  8
0
 10
13.596037223265281
 20
2.7003257977025892
 30
0.0
 40
0.5000000000062582
 50
344.9999999992209
 51
65.6748470439953
  0
ARC
  5
26D
  8
0
 10
22.493388839868199
 20
3.9546669695696428
 30
0.0
 40
3.1999999999894091
 50
105.983607157072
 51
169.9999999996829
  0
LINE
  5
26E
  8
0
 10
13.974111749492289
 20
2.1794674860245768
 30
0.0
 11
14.079000136413921
 21
2.57091627514319
 31
0.0
  0
LINE
  5
26F
  8
0
 10
19.342004030242599
 20
4.5103411381194292
 30
0.0
 11
19.189143456224429
 21
3.643425743755869
 31
0.0
  0
ARC
  5
270
  8
0
 10
13.491148836347289
 20
2.308877008575791
 30
0.0
 40
0.5000000000001988
 50
245.84586671539
 51
345.00000000001899
  0
ARC
  5
271
  8
0
 10
21.158758962247699
 20
3.2961293884236511
 30
0.0
 40
1.999999999998594
 50
170.00000000004059
 51
188.66490650257151
  0
ARC
  5
272
  8
0
 10
22.493388839880939
 20
22.382732515647149
 30
0.0
 40
22.500000000000028
 50
233.62876029942851
 51
245.84586671536309
  0
LINE
  5
273
  8
0
 10
19.181586265859089
 20
2.99481870383056
 30
0.0
 11
19.55906507607369
 21
0.5178378492244065
 31
0.0
  0
ARC
  5
274
  8
0
 10
9.4470635517304782
 20
4.66851798392804
 30
0.0
 40
0.5000000000000761
 50
134.94685754545071
 51
233.62876029940571
  0
ARC
  5
275
  8
0
 10
20.152216884991049
 20
0.6082310546019017
 30
0.0
 40
0.600000000000077
 50
188.6649065025197
 51
263.86319221561428
  0
LINE
  5
276
  8
0
 10
9.3802865512084281
 20
5.3083165848679519
 30
0.0
 11
9.0938382377566995
 21
5.0223991469872544
 31
0.0
  0
ARC
  5
277
  8
0
 10
22.49338884245708
 20
22.38273251328906
 30
0.0
 40
22.499999997917751
 50
263.86319220850862
 51
264.14773990989289
  0
ARC
  5
278
  8
0
 10
9.7335118651822086
 20
4.9544354218089657
 30
0.0
 40
0.4999999999999486
 50
53.79081340195988
 51
134.94685754546919
  0
ARC
  5
279
  8
0
 10
20.250187524000012
 20
0.4973938649307002
 30
0.0
 40
0.4999999999982072
 50
264.14773991721438
 51
330.00000000016672
  0
ARC
  5
27A
  8
0
 10
22.493388839722229
 20
22.382732515759471
 30
0.0
 40
21.10000000000942
 50
233.7908134025426
 51
237.3884968056984
  0
LINE
  5
27B
  8
0
 10
20.6832002258916
 20
0.2473938649327465
 30
0.0
 11
21.378433683833009
 21
1.451573537209242
 31
0.0
  0
ARC
  5
27C
  8
0
 10
11.256491671426829
 20
4.8198557004529903
 30
0.0
 40
0.2499999999978288
 50
237.38849680476361
 51
329.99999999968401
  0
ARC
  5
27D
  8
0
 10
21.118626062697789
 20
1.6015735372093329
 30
0.0
 40
0.3000000000000869
 50
329.9999999999747
 51
52.337744339227072
  0
LINE
  5
27E
  8
0
 10
18.697224217418349
 20
17.20758251564575
 30
0.0
 11
11.47299802237057
 21
4.694855700452762
 31
0.0
  0
ARC
  5
27F
  8
0
 10
22.493388839881849
 20
3.382732515646921
 30
0.0
 40
1.949999999999898
 50
307.66225566072092
 51
232.33774433923921
  0
ARC
  5
280
  8
0
 10
18.480717866471881
 20
17.33258251564575
 30
0.0
 40
0.2500000000002081
 50
330.00000000004189
 51
90.0
  0
ARC
  5
281
  8
0
 10
23.868151617064541
 20
1.6015735372095601
 30
0.0
 40
0.2999999999996436
 50
127.66225566085249
 51
210.00000000010641
  0
LINE
  5
282
  8
0
 10
15.64627245403471
 20
17.582582515645981
 30
0.0
 11
18.480717866471881
 21
17.582582515645981
 31
0.0
  0
LINE
  5
283
  8
0
 10
23.608343995929769
 20
1.451573537209242
 30
0.0
 11
24.303577453871188
 21
0.2473938649327465
 31
0.0
  0
ARC
  5
284
  8
0
 10
15.64627245403471
 20
17.332582515645981
 30
0.0
 40
0.2500000000000621
 50
90.0
 51
119.9999999999842
  0
ARC
  5
285
  8
0
 10
24.736590155763221
 20
0.4973938649327465
 30
0.0
 40
0.4999999999999477
 50
210.00000000001029
 51
275.8522600829744
  0
LINE
  5
286
  8
0
 10
4.8055120246876859
 20
11.362341698136561
 30
0.0
 11
15.52127245403471
 21
17.549088866592228
 31
0.0
  0
ARC
  5
287
  8
0
 10
22.493388840001899
 20
22.382732515198079
 30
0.0
 40
22.4999999995417
 50
275.85226008278732
 51
276.13680778418097
  0
ARC
  5
288
  8
0
 10
4.9305120246876859
 20
11.14583534719031
 30
0.0
 40
0.250000000000161
 50
119.9999999999842
 51
212.61150319485549
  0
ARC
  5
289
  8
0
 10
24.83456079477174
 20
0.6082310545857581
 30
0.0
 40
0.5999999999980767
 50
276.13680778589088
 51
351.33509349900442
  0
ARC
  5
28A
  8
0
 10
22.4933888398823
 20
22.38273251571195
 30
0.0
 40
21.100000000039341
 50
212.61150319497821
 51
216.21493029116871
  0
LINE
  5
28B
  8
0
 10
25.427712603689091
 20
0.5178378492244065
 30
0.0
 11
25.805191413903682
 21
2.9948187038303331
 31
0.0
  0
ARC
  5
28C
  8
0
 10
5.0663709647678843
 20
9.6211084818205563
 30
0.0
 40
0.5000000000059333
 50
314.94685754471442
 51
36.214930290254351
  0
ARC
  5
28D
  8
0
 10
23.828018717512808
 20
3.2961293884236511
 30
0.0
 40
2.0000000000007261
 50
351.33509349743179
 51
9.9999999999608757
  0
LINE
  5
28E
  8
0
 10
5.133232926630626
 20
8.9813946847541501
 30
0.0
 11
5.4195962787412091
 21
9.2672273187527026
 31
0.0
  0
LINE
  5
28F
  8
0
 10
25.797634223538349
 20
3.6434257437563242
 30
0.0
 11
25.64477364952063
 21
4.5103411381182923
 31
0.0
  0
ARC
  5
290
  8
0
 10
4.78000761265639
 20
9.3352758478131364
 30
0.0
 40
0.5000000000000762
 50
216.37489918009911
 51
314.94685754550608
  0
ARC
  5
291
  8
0
 10
22.493388839880481
 20
3.95466696958374
 30
0.0
 40
3.2000000000011051
 50
10.000000000003229
 51
74.016392842623901
  0
ARC
  5
292
  8
0
 10
22.493388839881391
 20
22.382732515647149
 30
0.0
 40
22.499999999999989
 50
202.37721818037579
 51
216.37489918010789
  0
ARC
  5
293
  8
0
 10
23.44338883986984
 20
7.2712917599319553
 30
0.0
 40
0.2499999999889288
 50
180.000000003335
 51
254.01639284570521
  0
ARC
  5
294
  8
0
 10
2.1500442606702559
 20
14.007272448791809
 30
0.0
 40
0.5000000000000429
 50
111.0032200590109
 51
202.37721818032591
  0
LINE
  5
295
  8
0
 10
23.19338883988075
 20
7.2712917599174034
 30
0.0
 11
23.193388839882122
 21
17.332582515645981
 31
0.0
  0
LINE
  5
296
  8
0
 10
2.3443675556313792
 20
14.617462755533319
 30
0.0
 11
1.9708340522756771
 21
14.47405259105062
 31
0.0
  0
ARC
  5
297
  8
0
 10
23.443388839882122
 20
17.332582515645981
 30
0.0
 40
0.25
 50
90.0
 51
180.0
  0
ARC
  5
298
  8
0
 10
2.5235777640250481
 20
14.150682613274279
 30
0.0
 40
0.5000000000000773
 50
22.402667605022788
 51
111.0032200589042
  0
LINE
  5
299
  8
0
 10
23.443388839882122
 20
17.582582515645981
 30
0.0
 11
24.312128790369119
 21
17.582582515645981
 31
0.0
  0
ARC
  5
29A
  8
0
 10
22.493388839821371
 20
22.38273251577402
 30
0.0
 40
21.100000000005512
 50
202.4026676054477
 51
207.38849680553551
  0
ARC
  5
29B
  8
0
 10
24.312128790368661
 20
17.332582515645981
 30
0.0
 40
0.2499999999999854
 50
29.999999999958209
 51
89.999999999895778
  0
ARC
  5
29C
  8
0
 10
3.9805120246905972
 20
12.79128361438347
 30
0.0
 40
0.2500000000007184
 50
207.388496804124
 51
299.99999999894959
  0
LINE
  5
29D
  8
0
 10
24.528635141315139
 20
17.457582515645981
 30
0.0
 11
32.301344092094503
 21
3.9948557004531722
 31
0.0
  0
LINE
  5
29E
  8
0
 10
13.73268056520692
 20
18.13302561183718
 30
0.0
 11
4.1055120246869592
 21
12.5747772634345
 31
0.0
  0
ARC
  5
29F
  8
0
 10
32.084837741148931
 20
3.869855700452717
 30
0.0
 40
0.2499999999996882
 50
297.3884968052941
 51
30.00000000015266
  0
ARC
  5
2A0
  8
0
 10
13.60768056520692
 20
18.3495319627832
 30
0.0
 40
0.2499999999999108
 50
300.00000000001029
 51
53.37277587129018
  0
ARC
  5
2A1
  8
0
 10
22.49338883998508
 20
22.382732515595759
 30
0.0
 40
21.099999999910981
 50
294.32515295503822
 51
297.38849680498748
  0
ARC
  5
2A2
  8
0
 10
16.68020283994565
 20
22.48258251554148
 30
0.0
 40
4.9000000000408441
 50
191.76244311544849
 51
233.3727758700129
  0
ARC
  5
2A3
  8
0
 10
31.390740456502499
 20
2.7003257977005428
 30
0.0
 40
0.5000000000104357
 50
114.32515295561539
 51
195.00000000040421
  0
ARC
  5
2A4
  8
0
 10
11.6383465371041
 20
21.432732515603899
 30
0.0
 40
0.250000000043535
 50
11.76244312892932
 51
90.000000012089586
  0
LINE
  5
2A5
  8
0
 10
30.90777754334886
 20
2.57091627514319
 30
0.0
 11
31.01266593027049
 21
2.1794674860245768
 31
0.0
  0
LINE
  5
2A6
  8
0
 10
1.665042770158379
 20
21.682732515647331
 30
0.0
 11
11.638346537051341
 21
21.682732515647331
 31
0.0
  0
ARC
  5
2A7
  8
0
 10
31.495628843415489
 20
2.308877008575791
 30
0.0
 40
0.5000000000002201
 50
194.9999999999809
 51
294.15413328462063
  0
ARC
  5
2A8
  8
0
 10
1.665042770158379
 20
21.432732515647562
 30
0.0
 40
0.2499999999999364
 50
90.0
 51
182.6115031948901
  0
ARC
  5
2A9
  8
0
 10
22.49338883989731
 20
22.38273251562055
 30
0.0
 40
22.49999999996934
 50
294.15413328462898
 51
306.3712397005915
  0
ARC
  5
2AA
  8
0
 10
22.493388839852742
 20
22.382732515679439
 30
0.0
 40
21.09999999997574
 50
182.6115031949212
 51
187.60462806315991
  0
ARC
  5
2AB
  8
0
 10
35.53971412803503
 20
4.6685179839278126
 30
0.0
 40
0.499999999998135
 50
306.37123970087907
 51
45.053142454788947
  0
ARC
  5
2AC
  8
0
 10
1.083363993126113
 20
19.524265083336331
 30
0.0
 40
0.5000000000060929
 50
278.85373645035821
 51
7.6046280623710851
  0
LINE
  5
2AD
  8
0
 10
35.892939442006082
 20
5.0223991469872544
 30
0.0
 11
35.606491128554353
 21
5.3083165848677254
 31
0.0
  0
LINE
  5
2AE
  8
0
 10
0.7649942759921942
 20
18.968643441085529
 30
0.0
 11
1.1603202963815411
 21
19.030222850935839
 31
0.0
  0
ARC
  5
2AF
  8
0
 10
35.253265814580118
 20
4.9544354218089657
 30
0.0
 40
0.4999999999999935
 50
45.053142454475527
 51
126.2091865979673
  0
ARC
  5
2B0
  8
0
 10
0.6880379727303989
 20
19.462685673478742
 30
0.0
 40
0.4999999999999613
 50
187.6273426258424
 51
278.8537364512074
  0
ARC
  5
2B1
  8
0
 10
22.493388839995529
 20
22.382732515819271
 30
0.0
 40
21.100000000083948
 50
302.61150319430681
 51
306.20918659746093
  0
ARC
  5
2B2
  8
0
 10
22.493388839881391
 20
22.382732515646008
 30
0.0
 40
22.500000000000039
 50
173.9568665263071
 51
187.62734262584681
  0
ARC
  5
2B3
  8
0
 10
33.730286008335952
 20
4.8198557004507157
 30
0.0
 40
0.249999999996039
 50
209.9999999998717
 51
302.61150319464991
  0
ARC
  5
2B4
  8
0
 10
0.6156445487977181
 20
24.69882939055174
 30
0.0
 40
0.500000000000115
 50
82.578408421298846
 51
173.956866526276
  0
LINE
  5
2B5
  8
0
 10
33.513779657392661
 20
4.6948557004529903
 30
0.0
 11
26.289553462344429
 21
17.20758251564575
 31
0.0
  0
LINE
  5
2B6
  8
0
 10
1.0769951663901329
 20
25.142957717646599
 30
0.0
 11
0.6802291952421911
 21
25.194640668604048
 31
0.0
  0
ARC
  5
2B7
  8
0
 10
26.5060598132909
 20
17.33258251564575
 30
0.0
 40
0.2500000000001978
 50
90.0
 51
209.99999999995819
  0
ARC
  5
2B8
  8
0
 10
1.012410519945206
 20
24.647146439594739
 30
0.0
 40
0.5000000000000127
 50
353.98239859224037
 51
82.578408421240482
  0
LINE
  5
2B9
  8
0
 10
26.5060598132909
 20
17.582582515645981
 30
0.0
 11
29.340505225728069
 21
17.582582515645981
 31
0.0
  0
ARC
  5
2BA
  8
0
 10
22.493388839896401
 20
22.38273251584587
 30
0.0
 40
21.100000000006091
 50
173.98239859283271
 51
177.38849680570669
  0
ARC
  5
2BB
  8
0
 10
29.340505225728069
 20
17.332582515645981
 30
0.0
 40
0.2500000000000493
 50
59.99999999998969
 51
90.0
  0
ARC
  5
2BC
  8
0
 10
1.665042770161107
 20
23.33273251564583
 30
0.0
 40
0.2499999999993252
 50
177.38849680458449
 51
269.99999999937461
  0
LINE
  5
2BD
  8
0
 10
29.465505225728059
 20
17.549088866592001
 30
0.0
 11
40.181265655075087
 21
11.362341698136561
 31
0.0
  0
LINE
  5
2BE
  8
0
 10
11.6008579039285
 20
23.082732515646509
 30
0.0
 11
1.665042770158379
 21
23.082732515646509
 31
0.0
  0
ARC
  5
2BF
  8
0
 10
40.056265655075087
 20
11.14583534719031
 30
0.0
 40
0.250000000000163
 50
327.38849680514448
 51
60.000000000015767
  0
ARC
  5
2C0
  8
0
 10
11.60085790392804
 20
23.332732515646281
 30
0.0
 40
0.2499999999998737
 50
270.00000000010419
 51
350.49825350085501
  0
ARC
  5
2C1
  8
0
 10
22.49338883993369
 20
22.382732515675801
 30
0.0
 40
21.09999999997514
 50
323.78506970883348
 51
327.38849680502659
  0
ARC
  5
2C2
  8
0
 10
16.68020283982105
 20
22.48258251554034
 30
0.0
 40
4.9000000000443178
 50
128.70744475382801
 51
170.4982534995068
  0
ARC
  5
2C3
  8
0
 10
39.920406714997632
 20
9.6211084818207837
 30
0.0
 40
0.5000000000078476
 50
143.785069709597
 51
225.05314245508271
  0
ARC
  5
2C4
  8
0
 10
13.45968094800946
 20
26.501380687290069
 30
0.0
 40
0.2500000000424488
 50
308.70744476232562
 51
60.000000007181811
  0
LINE
  5
2C5
  8
0
 10
39.567181401021571
 20
9.2672273187527026
 30
0.0
 11
39.853544753132148
 21
8.9813946847541501
 31
0.0
  0
LINE
  5
2C6
  8
0
 10
9.0564972576362361
 20
29.332235110861351
 30
0.0
 11
13.58468094800355
 21
26.717887038288609
 31
0.0
  0
ARC
  5
2C7
  8
0
 10
40.20677006710639
 20
9.3352758478131364
 30
0.0
 40
0.5000000000000431
 50
225.05314245449401
 51
323.62510081988
  0
ARC
  5
2C8
  8
0
 10
8.9314972576366927
 20
29.115728759915779
 30
0.0
 40
0.2499999999995266
 50
60.000000000027832
 51
134.01639284248921
  0
ARC
  5
2C9
  8
0
 10
22.493388839880481
 20
22.38273251564852
 30
0.0
 40
22.500000000002021
 50
323.62510081989018
 51
337.6227818196154
  0
ARC
  5
2CA
  8
0
 10
6.5342159343667836
 20
31.596765288673168
 30
0.0
 40
3.1999999999896729
 50
250.00000000032429
 51
314.01639284293219
  0
ARC
  5
2CB
  8
0
 10
42.836733419091161
 20
14.007272448791349
 30
0.0
 40
0.500000000001222
 50
337.62278181949699
 51
68.996779940871136
  0
LINE
  5
2CC
  8
0
 10
4.6125504342858221
 20
28.89082545900715
 30
0.0
 11
5.4397514757451972
 21
28.58974890216178
 31
0.0
  0
LINE
  5
2CD
  8
0
 10
43.015943627487097
 20
14.47405259105085
 30
0.0
 11
42.642410124131402
 21
14.61746275553355
 31
0.0
  0
ARC
  5
2CE
  8
0
 10
5.2965907209368188
 20
30.7702107005789
 30
0.0
 40
2.0000000000000679
 50
231.3350934974799
 51
250.0000000000085
  0
ARC
  5
2CF
  8
0
 10
42.463199915737732
 20
14.150682613274279
 30
0.0
 40
0.5000000000000587
 50
68.996779941105089
 51
157.59733239497299
  0
LINE
  5
2D0
  8
0
 10
2.0906727257847701
 20
30.773980926471271
 30
0.0
 11
4.0470616654538381
 21
29.208584260131829
 31
0.0
  0
ARC
  5
2D1
  8
0
 10
22.493388839955969
 20
22.382732515765159
 30
0.0
 40
21.099999999988341
 50
332.61150319447478
 51
337.5973323945596
  0
ARC
  5
2D2
  8
0
 10
2.4655314424298922
 20
31.24246885860498
 30
0.0
 40
0.5999999999998695
 50
156.1368077843386
 51
231.33509349743861
  0
ARC
  5
2D3
  8
0
 10
41.006265655071722
 20
12.79128361438552
 30
0.0
 40
0.2500000000020664
 50
240.00000000137521
 51
332.61150319611238
  0
ARC
  5
2D4
  8
0
 10
22.493388839241561
 20
22.382732519020241
 30
0.0
 40
22.499999998036099
 50
155.8522600901444
 51
156.1368077915275
  0
LINE
  5
2D5
  8
0
 10
40.881265655075822
 20
12.5747772634345
 30
0.0
 11
31.254097114555861
 21
18.13302561183718
 31
0.0
  0
ARC
  5
2D6
  8
0
 10
2.4185289399952121
 20
31.38273251564851
 30
0.0
 40
0.4999999999983076
 50
89.999999999843666
 51
155.8522600828455
  0
ARC
  5
2D7
  8
0
 10
31.379097114555861
 20
18.3495319627832
 30
0.0
 40
0.2499999999999049
 50
126.6272241287098
 51
239.9999999999896
  0
LINE
  5
2D8
  8
0
 10
3.8089958558798571
 20
31.882732515646701
 30
0.0
 11
2.4185289399965759
 21
31.882732515646921
 31
0.0
  0
ARC
  5
2D9
  8
0
 10
28.306574839817589
 20
22.482582515541711
 30
0.0
 40
4.9000000000408237
 50
306.62722412998119
 51
348.2375568845514
  0
ARC
  5
2DA
  8
0
 10
3.8089958558798571
 20
31.582732515646509
 30
0.0
 40
0.3000000000000281
 50
7.6622556607994783
 51
90.0
  0
ARC
  5
2DB
  8
0
 10
33.348431142658228
 20
21.432732515604361
 30
0.0
 40
0.2500000000431302
 50
89.999999987806206
 51
168.23755687107919
  0
ARC
  5
2DC
  8
0
 10
6.0389061679775287
 20
31.882732515646701
 30
0.0
 40
1.949999999999867
 50
187.66225566076659
 51
112.3377443392371
  0
LINE
  5
2DD
  8
0
 10
33.348431142711433
 20
21.682732515647331
 30
0.0
 11
43.321734909604402
 21
21.682732515647562
 31
0.0
  0
ARC
  5
2DE
  8
0
 10
5.1837586330643708
 20
33.963891494084237
 30
0.0
 40
0.2999999999999314
 50
209.99999999995009
 51
292.33774433914431
  0
ARC
  5
2DF
  8
0
 10
43.321734909604402
 20
21.432732515647562
 30
0.0
 40
0.2499999999999372
 50
357.38849680510509
 51
90.0
  0
LINE
  5
2E0
  8
0
 10
4.2287175539868249
 20
35.018071166360642
 30
0.0
 11
4.9239510119291481
 21
33.813891494084601
 31
0.0
  0
ARC
  5
2E1
  8
0
 10
22.493388839912321
 20
22.382732515680349
 30
0.0
 40
21.09999999997363
 50
352.39537193683873
 51
357.38849680507599
  0
ARC
  5
2E2
  8
0
 10
4.661730255879319
 20
35.268071166360407
 30
0.0
 40
0.5000000000001548
 50
144.14773991700491
 51
209.99999999996169
  0
ARC
  5
2E3
  8
0
 10
43.903413686637123
 20
19.524265083336559
 30
0.0
 40
0.5000000000064822
 50
172.39537193758409
 51
261.14626354959432
  0
ARC
  5
2E4
  8
0
 10
22.493388839876388
 20
22.382732515638509
 30
0.0
 40
22.500000000000931
 50
143.86319221564369
 51
144.1477399169971
  0
LINE
  5
2E5
  8
0
 10
43.826457383381239
 20
19.030222850935839
 30
0.0
 11
44.22178340377058
 21
18.968643441085302
 31
0.0
  0
ARC
  5
2E6
  8
0
 10
4.8067033973111393
 20
35.297497633730252
 30
0.0
 40
0.6000000000066668
 50
68.664906501735771
 51
143.86319221483359
  0
ARC
  5
2E7
  8
0
 10
44.298739707032382
 20
19.462685673478742
 30
0.0
 40
0.499999999999969
 50
261.1462635487967
 51
352.37265737415748
  0
LINE
  5
2E8
  8
0
 10
7.3588642394702211
 20
34.944794582980883
 30
0.0
 11
5.0249964895933772
 21
35.85637877124509
 31
0.0
  0
ARC
  5
2E9
  8
0
 10
22.493388839875941
 20
22.382732515645781
 30
0.0
 40
22.500000000005429
 50
352.37265737415561
 51
6.0431334736897213
  0
ARC
  5
2EA
  8
0
 10
6.6312205985641413
 20
33.081857457941616
 30
0.0
 40
2.000000000000199
 50
50.00000000001576
 51
68.664906502555411
  0
ARC
  5
2EB
  8
0
 10
44.371133130964601
 20
24.698829390551278
 30
0.0
 40
0.5000000000004842
 50
6.0431334736666509
 51
97.421591578642747
  0
LINE
  5
2EC
  8
0
 10
8.5911362853835271
 20
34.048107506657288
 30
0.0
 11
7.9167958179368716
 21
34.613946344180022
 31
0.0
  0
LINE
  5
2ED
  8
0
 10
44.30654848452059
 20
25.194640668604048
 30
0.0
 11
43.909782513372647
 21
25.142957717646819
 31
0.0
  0
ARC
  5
2EE
  8
0
 10
6.534215934385883
 20
31.596765288676352
 30
0.0
 40
3.2000000000004509
 50
345.98360715742177
 51
49.999999999992539
  0
ARC
  5
2EF
  8
0
 10
43.974367159817568
 20
24.647146439594739
 30
0.0
 40
0.5000000000000076
 50
97.421591578756193
 51
186.01760140775411
  0
ARC
  5
2F0
  8
0
 10
9.8814972576433302
 20
30.761177027090529
 30
0.0
 40
0.2499999999892825
 50
165.9836071542156
 51
239.99999999701851
  0
ARC
  5
2F1
  8
0
 10
22.49338883987684
 20
22.382732515846559
 30
0.0
 40
21.0999999999956
 50
2.6115031942927298
 51
6.0176014071685424
  0
LINE
  5
2F2
  8
0
 10
15.48830359264093
 20
27.23541074570312
 30
0.0
 11
9.7564972576374203
 21
30.544670676160202
 31
0.0
  0
ARC
  5
2F3
  8
0
 10
43.321734909601673
 20
23.33273251564583
 30
0.0
 40
0.249999999999326
 50
270.00000000062528
 51
2.6115031954154939
  0
ARC
  5
2F4
  8
0
 10
16.68020283988335
 20
22.482582515635158
 30
0.0
 40
4.9000000000111923
 50
90.000000000015945
 51
104.0781272731338
  0
LINE
  5
2F5
  8
0
 10
43.321734909604402
 20
23.082732515646509
 30
0.0
 11
33.385919775834282
 21
23.082732515646509
 31
0.0
  0
LINE
  5
2F6
  8
0
 10
18.36542101771602
 20
27.382582515646391
 30
0.0
 11
16.680202839881979
 21
27.382582515646391
 31
0.0
  0
ARC
  5
2F7
  8
0
 10
33.385919775834743
 20
23.332732515646281
 30
0.0
 40
0.2499999999998721
 50
189.50174649912771
 51
269.99999999989581
  0
ARC
  5
2F8
  8
0
 10
18.365421017715558
 20
27.632582515646391
 30
0.0
 40
0.2499999999999631
 50
270.00000000010419
 51
29.999999999965119
  0
ARC
  5
2F9
  8
0
 10
28.30657483994219
 20
22.48258251554034
 30
0.0
 40
4.9000000000440549
 50
9.5017465004950061
 51
51.292555246177741
  0
LINE
  5
2FA
  8
0
 10
11.47299802237057
 20
40.070609330840618
 30
0.0
 11
18.581927368661582
 21
27.75758251564616
 31
0.0
  0
ARC
  5
2FB
  8
0
 10
31.527096731753321
 20
26.501380687290069
 30
0.0
 40
0.2500000000424488
 50
119.99999999284429
 51
231.29255523764169
  0
ARC
  5
2FC
  8
0
 10
11.25649167142455
 20
39.945609330840398
 30
0.0
 40
0.2500000000000713
 50
30.00000000005544
 51
122.61150319492739
  0
LINE
  5
2FD
  8
0
 10
31.402096731759229
 20
26.717887038288382
 30
0.0
 11
35.93028042212655
 21
29.332235110861578
 31
0.0
  0
ARC
  5
2FE
  8
0
 10
22.49338883989185
 20
22.382732515853149
 30
0.0
 40
21.099999999835081
 50
122.61150319515831
 51
124.29187977254681
  0
ARC
  5
2FF
  8
0
 10
36.055280422126089
 20
29.115728759915779
 30
0.0
 40
0.2499999999995305
 50
45.983607157547027
 51
119.9999999999461
  0
ARC
  5
300
  8
0
 10
10.323755201580299
 20
40.228180593792104
 30
0.0
 40
0.5000000000061277
 50
248.6649065011901
 51
304.29187977084541
  0
ARC
  5
301
  8
0
 10
38.452561745395997
 20
31.596765288673168
 30
0.0
 40
3.199999999989712
 50
225.98360715706499
 51
289.99999999967707
  0
LINE
  5
302
  8
0
 10
9.6923347608717432
 20
39.938020005800361
 30
0.0
 11
10.141844291340471
 21
39.76244631253099
 31
0.0
  0
LINE
  5
303
  8
0
 10
39.547026204017591
 20
28.589748902162
 30
0.0
 11
40.374227245476952
 21
28.890825459006919
 31
0.0
  0
ARC
  5
304
  8
0
 10
9.8742456710983788
 20
40.40375428706011
 30
0.0
 40
0.4999999999999679
 50
125.0014674929287
 51
248.6649065025409
  0
ARC
  5
305
  8
0
 10
39.690186958826423
 20
30.770210700577771
 30
0.0
 40
1.999999999998793
 50
289.99999999998812
 51
308.66490650253428
  0
ARC
  5
306
  8
0
 10
22.493388839881849
 20
22.382732515646691
 30
0.0
 40
22.499999999999918
 50
114.1541332846397
 51
125.0014674929255
  0
LINE
  5
307
  8
0
 10
40.939716014308942
 20
29.20858426013206
 30
0.0
 11
42.896104953978011
 21
30.773980926471271
 31
0.0
  0
ARC
  5
308
  8
0
 10
13.491148836347289
 20
42.456588022717817
 30
0.0
 40
0.4999999999998963
 50
14.99999999996928
 51
114.1541332846313
  0
ARC
  5
309
  8
0
 10
42.521246237332889
 20
31.242468858605211
 30
0.0
 40
0.5999999999999344
 50
308.66490650254792
 51
23.863192215641462
  0
LINE
  5
30A
  8
0
 10
14.07900013641483
 20
42.194548756150418
 30
0.0
 11
13.97411174949184
 21
42.58599754526881
 31
0.0
  0
ARC
  5
30B
  8
0
 10
22.493388841059179
 20
22.382732519248751
 30
0.0
 40
22.49999999745172
 50
23.863192208494539
 51
24.147739909881938
  0
ARC
  5
30C
  8
0
 10
13.59603722326983
 20
42.065139233599659
 30
0.0
 40
0.5000000000004463
 50
294.32515295516231
 51
14.99999999993064
  0
ARC
  5
30D
  8
0
 10
42.568248739767107
 20
31.38273251564738
 30
0.0
 40
0.4999999999992083
 50
24.147739917114279
 51
90.000000000104208
  0
ARC
  5
30E
  8
0
 10
22.493388840085569
 20
22.38273251574515
 30
0.0
 40
21.100000000006371
 50
114.32515295583261
 51
117.3884968058028
  0
LINE
  5
30F
  8
0
 10
42.568248739766197
 20
31.882732515646701
 30
0.0
 11
41.177781823882917
 21
31.88273251564647
 31
0.0
  0
ARC
  5
310
  8
0
 10
12.90193993861021
 20
40.895609330839299
 30
0.0
 40
0.2499999999951426
 50
117.3884968055645
 51
210.0000000003127
  0
ARC
  5
311
  8
0
 10
41.177781823882917
 20
31.582732515646509
 30
0.0
 40
0.3000000000000274
 50
90.0
 51
172.3377443392005
  0
LINE
  5
312
  8
0
 10
20.342845689690421
 20
27.50758251564616
 30
0.0
 11
12.685433587669189
 21
40.770609330840671
 31
0.0
  0
ARC
  5
313
  8
0
 10
38.947871511785252
 20
31.882732515646921
 30
0.0
 40
1.949999999999896
 50
67.662255660748016
 51
352.33774433922679
  0
ARC
  5
314
  8
0
 10
20.559352040636441
 20
27.632582515646849
 30
0.0
 40
0.2500000000002347
 50
210.00000000014569
 51
270.00000000010419
  0
ARC
  5
315
  8
0
 10
39.803019046698857
 20
33.963891494083782
 30
0.0
 40
0.2999999999995108
 50
247.66225566082269
 51
330.00000000008748
  0
LINE
  5
316
  8
0
 10
21.543388839881569
 20
27.382582515646391
 30
0.0
 11
20.559352040636899
 21
27.382582515646622
 31
0.0
  0
LINE
  5
317
  8
0
 10
40.062826667834081
 20
33.81389149408438
 30
0.0
 11
40.758060125775948
 21
35.018071166360642
 31
0.0
  0
ARC
  5
318
  8
0
 10
21.543388839881569
 20
27.632582515646391
 30
0.0
 40
0.25
 50
270.0
 51
0.0
  0
ARC
  5
319
  8
0
 10
40.325047423883461
 20
35.268071166360407
 30
0.0
 40
0.500000000000261
 50
330.00000000003831
 51
35.85226008299508
  0
LINE
  5
31A
  8
0
 10
21.793388839880659
 20
43.211078585369698
 30
0.0
 11
21.793388839881569
 21
27.632582515646391
 31
0.0
  0
ARC
  5
31B
  8
0
 10
22.493388840222
 20
22.38273251593273
 30
0.0
 40
22.499999999556529
 50
35.85226008289613
 51
36.136807784259801
  0
ARC
  5
31C
  8
0
 10
21.543388839880659
 20
43.211078585369933
 30
0.0
 40
0.2499999999999035
 50
359.99999999994787
 51
92.611503194785996
  0
ARC
  5
31D
  8
0
 10
40.180074282452551
 20
35.297497633731837
 30
0.0
 40
0.6000000000055729
 50
36.136807785268807
 51
111.3350934984004
  0
ARC
  5
31E
  8
0
 10
22.493388839951422
 20
22.382732515623271
 30
0.0
 40
21.100000000030239
 50
92.611503195019012
 51
95.674847044964835
  0
LINE
  5
31F
  8
0
 10
39.961781190169411
 20
35.85637877124509
 30
0.0
 11
37.627913440292559
 21
34.944794582980649
 31
0.0
  0
ARC
  5
320
  8
0
 10
20.357518007301682
 20
43.876872549311649
 30
0.0
 40
0.5000000000061072
 50
194.9999999992115
 51
275.67484704395252
  0
ARC
  5
321
  8
0
 10
38.35555708119864
 20
33.081857457941403
 30
0.0
 40
2.0000000000002189
 50
111.3350934974446
 51
129.9999999999942
  0
LINE
  5
322
  8
0
 10
19.769666707226861
 20
44.138911815884278
 30
0.0
 11
19.8745550941494
 21
43.747463026765438
 31
0.0
  0
LINE
  5
323
  8
0
 10
37.069981861825447
 20
34.613946344179801
 30
0.0
 11
36.395641394379261
 21
34.048107506657061
 31
0.0
  0
ARC
  5
324
  8
0
 10
20.25262962037095
 20
44.268321338435719
 30
0.0
 40
0.4999999999997542
 50
95.845866715368956
 51
195.00000000003311
  0
ARC
  5
325
  8
0
 10
38.452561745376897
 20
31.596765288676352
 30
0.0
 40
3.2000000000004389
 50
130.00000000001009
 51
194.01639284258411
  0
ARC
  5
326
  8
0
 10
22.493388839880939
 20
22.382732515651021
 30
0.0
 40
22.49999999999579
 50
84.154133284632096
 51
95.845866715360984
  0
ARC
  5
327
  8
0
 10
35.105280422119911
 20
30.761177027090302
 30
0.0
 40
0.2499999999890865
 50
300.00000000291732
 51
14.016392845784431
  0
ARC
  5
328
  8
0
 10
24.734148059392741
 20
44.268321338436181
 30
0.0
 40
0.4999999999991239
 50
344.99999999990308
 51
84.154133284522061
  0
LINE
  5
329
  8
0
 10
35.230280422125361
 20
30.544670676160202
 30
0.0
 11
29.498474087121849
 21
27.23541074570312
 31
0.0
  0
LINE
  5
32A
  8
0
 10
25.112222585613381
 20
43.747463026765438
 30
0.0
 11
25.217110972536378
 21
44.138911815884278
 31
0.0
  0
ARC
  5
32B
  8
0
 10
28.306574839879431
 20
22.48258251563448
 30
0.0
 40
4.9000000000117288
 50
75.921872726868116
 51
89.999999999984041
  0
ARC
  5
32C
  8
0
 10
24.629259672469288
 20
43.876872549316879
 30
0.0
 40
0.5000000000000328
 50
264.32515295519238
 51
344.99999999996692
  0
LINE
  5
32D
  8
0
 10
28.306574839880799
 20
27.38258251564616
 30
0.0
 11
26.621356662046761
 21
27.382582515646391
 31
0.0
  0
ARC
  5
32E
  8
0
 10
22.493388840093299
 20
22.38273251545138
 30
0.0
 40
21.100000000185219
 50
84.325152955842725
 51
87.388496805762898
  0
ARC
  5
32F
  8
0
 10
26.621356662047219
 20
27.632582515646391
 30
0.0
 40
0.249999999999953
 50
150.00000000004181
 51
269.99999999989581
  0
ARC
  5
330
  8
0
 10
23.443388839881209
 20
43.211078585367432
 30
0.0
 40
0.2499999999988477
 50
87.388496804679164
 51
179.99999999947889
  0
LINE
  5
331
  8
0
 10
26.404850311100741
 20
27.757582515646391
 30
0.0
 11
33.513779657392213
 21
40.070609330840618
 31
0.0
  0
LINE
  5
332
  8
0
 10
23.193388839881209
 20
27.632582515646391
 30
0.0
 11
23.193388839882569
 21
43.211078585369698
 31
0.0
  0
ARC
  5
333
  8
0
 10
33.730286008338233
 20
39.945609330840398
 30
0.0
 40
0.2500000000000853
 50
57.388496805072563
 51
149.99999999994449
  0
ARC
  5
334
  8
0
 10
23.443388839881209
 20
27.632582515646391
 30
0.0
 40
0.25
 50
180.0
 51
270.0
  0
ARC
  5
335
  8
0
 10
22.49338883988003
 20
22.382732515862251
 30
0.0
 40
21.099999999822661
 50
55.70812022745865
 51
57.388496804849233
  0
LINE
  5
336
  8
0
 10
24.427425639125889
 20
27.382582515646391
 30
0.0
 11
23.443388839881209
 21
27.382582515646391
 31
0.0
  0
ARC
  5
337
  8
0
 10
34.663022478182938
 20
40.228180593791421
 30
0.0
 40
0.5000000000055546
 50
235.70812022911059
 51
291.33509349878028
  0
ARC
  5
338
  8
0
 10
24.427425639125431
 20
27.632582515646391
 30
0.0
 40
0.2499999999999854
 50
270.00000000010419
 51
330.00000000003479
  0
LINE
  5
339
  8
0
 10
34.844933388422312
 20
39.762446312530763
 30
0.0
 11
35.294442918891043
 21
39.938020005800361
 31
0.0
  0
LINE
  5
33A
  8
0
 10
32.301344092093593
 20
40.770609330840671
 30
0.0
 11
24.643931990071451
 21
27.507582515646622
 31
0.0
  0
ARC
  5
33B
  8
0
 10
35.112532008664402
 20
40.40375428706011
 30
0.0
 40
0.4999999999999589
 50
291.33509349745913
 51
54.998532507071339
  0
ARC
  5
33C
  8
0
 10
32.084837741148021
 20
40.895609330841118
 30
0.0
 40
0.2499999999996882
 50
329.99999999984732
 51
62.611503194705918
  0
ARC
  5
33D
  8
0
 10
22.49338883987912
 20
22.382732515643969
 30
0.0
 40
22.500000000003329
 50
54.998532507074657
 51
65.845866715375678
  0
ARC
  5
33E
  8
0
 10
22.493388840002812
 20
22.382732515735821
 30
0.0
 40
21.099999999868739
 50
62.611503195010293
 51
65.674847044963187
  0
ARC
  5
33F
  8
0
 10
31.49562884341367
 20
42.456588022721462
 30
0.0
 40
0.4999999999974459
 50
65.845866715764672
 51
165.0000000003929
  0
ARC
  5
340
  8
0
 10
31.390740456502499
 20
42.065139233592838
 30
0.0
 40
0.5000000000104429
 50
164.99999999959579
 51
245.67484704437391
  0
LINE
  5
341
  8
0
 10
31.01266593027049
 20
42.58599754526881
 30
0.0
 11
30.90777754334886
 21
42.194548756150198
 31
0.0
  0
ENDBLK
  5
343
  8
0
  0
BLOCK
  8
0
  2
*U4
 70
     1
 10
0.0
 20
0.0
 30
0.0
  3
*U4
  1

  0
ARC
  5
345
  8
0
 10
20.534019048979189
 20
19.482582515646069
 30
0.0
 40
0.5
 50
270.00000000005213
 51
55.956653672969111
  0
ARC
  5
346
  8
0
 10
22.493388839881849
 20
22.382732515645781
 30
0.0
 40
3.0
 50
221.5369590328186
 51
235.95665367295001
  0
LINE
  5
347
  8
0
 10
20.534019048979651
 20
18.982582515646069
 30
0.0
 11
16.680202839881979
 21
18.982582515646069
 31
0.0
  0
ARC
  5
348
  8
0
 10
20.622068496321841
 20
20.72497494236222
 30
0.0
 40
0.5
 50
120.00000000005539
 51
221.53695903288241
  0
ARC
  5
349
  8
0
 10
16.680202839881979
 20
22.482582515646069
 30
0.0
 40
3.5
 50
90.0
 51
270.0
  0
LINE
  5
34A
  8
0
 10
20.816337856756949
 20
21.414486679094349
 30
0.0
 11
20.37206849632139
 21
21.157987644254259
 31
0.0
  0
LINE
  5
34B
  8
0
 10
16.680202839881979
 20
25.982582515646069
 30
0.0
 11
20.86829500335898
 21
25.982582515646069
 31
0.0
  0
ARC
  5
34C
  8
0
 10
21.066337856756949
 20
20.981473977201858
 30
0.0
 40
0.5
 50
44.477512185898199
 51
119.9999999999842
  0
ARC
  5
34D
  8
0
 10
20.86829500335898
 20
25.482582515646069
 30
0.0
 40
0.5
 50
297.66573890079871
 51
90.0
  0
ARC
  5
34E
  8
0
 10
22.493388839881849
 20
22.382732515645781
 30
0.0
 40
1.5
 50
224.4775121859349
 51
135.52248781404049
  0
ARC
  5
34F
  8
0
 10
22.493388839881849
 20
22.382732515646691
 30
0.0
 40
3.0
 50
117.6657389007736
 51
138.4630409672092
  0
ARC
  5
350
  8
0
 10
21.066337856756949
 20
23.78399105409062
 30
0.0
 40
0.5
 50
239.9999999999896
 51
315.52248781410111
  0
ARC
  5
351
  8
0
 10
20.622068496321841
 20
24.040490088929801
 30
0.0
 40
0.5
 50
138.46304096724521
 51
239.99999999996359
  0
LINE
  5
352
  8
0
 10
20.372068496321841
 20
23.60747738703822
 30
0.0
 11
20.816337856756949
 21
23.350978352198581
 31
0.0
  0
ENDBLK
  5
354
  8
0
  0
BLOCK
  8
0
  2
*U5
 70
     1
 10
0.0
 20
0.0
 30
0.0
  3
*U5
  1

  0
ARC
  5
356
  8
0
 10
25.693276334388429
 20
19.9825825156463
 30
0.0
 40
1.0
 50
143.12741656729159
 51
270.0
  0
LINE
  5
357
  8
0
 10
28.306574839880799
 20
18.982582515646069
 30
0.0
 11
25.693276334388429
 21
18.9825825156463
 31
0.0
  0
ARC
  5
358
  8
0
 10
22.493388839881849
 20
22.382732515645781
 30
0.0
 40
3.0
 50
323.1274165672811
 51
62.334261099255457
  0
ARC
  5
359
  8
0
 10
28.306574839880799
 20
22.482582515646069
 30
0.0
 40
3.5
 50
270.0
 51
90.0
  0
ARC
  5
35A
  8
0
 10
24.118482676402891
 20
25.482582515646069
 30
0.0
 40
0.5
 50
90.0
 51
242.33426109925949
  0
LINE
  5
35B
  8
0
 10
24.118482676402891
 20
25.982582515646069
 30
0.0
 11
28.306574839880799
 21
25.982582515646069
 31
0.0
  0
ENDBLK
  5
35D
  8
0
  0
ENDSEC
  0
SECTION
  2
ENTITIES
  0
ARC
  5
99
  8
0
 10
1020.047541749242
 20
392.99353700811821
 30
0.0
 40
1.0
 50
143.12741656729159
 51
270.0
  0
LINE
  5
9A
  8
0
 10
1022.660840254735
 20
391.99353700811798
 30
0.0
 11
1020.047541749242
 21
391.99353700811821
 31
0.0
  0
ARC
  5
9B
  8
0
 10
1016.847654254736
 20
395.39368700811769
 30
0.0
 40
3.0
 50
323.1274165672811
 51
62.334261099255457
  0
ARC
  5
9C
  8
0
 10
1022.660840254735
 20
395.49353700811798
 30
0.0
 40
3.5
 50
270.0
 51
90.0
  0
ARC
  5
9D
  8
0
 10
1018.472748091257
 20
398.49353700811798
 30
0.0
 40
0.5
 50
90.0
 51
242.33426109925949
  0
LINE
  5
9E
  8
0
 10
1018.472748091257
 20
398.99353700811798
 30
0.0
 11
1022.660840254735
 21
398.99353700811798
 31
0.0
  0
ARC
  5
9F
  8
0
 10
1014.888284463833
 20
392.49353700811798
 30
0.0
 40
0.5
 50
270.00000000005213
 51
55.956653672969111
  0
ARC
  5
A0
  8
0
 10
1016.847654254736
 20
395.39368700811769
 30
0.0
 40
3.0
 50
221.5369590328186
 51
235.95665367295001
  0
LINE
  5
A1
  8
0
 10
1014.888284463834
 20
391.99353700811798
 30
0.0
 11
1011.034468254736
 21
391.99353700811798
 31
0.0
  0
ARC
  5
A2
  8
0
 10
1014.976333911176
 20
393.73592943483408
 30
0.0
 40
0.5
 50
120.00000000005539
 51
221.53695903288241
  0
ARC
  5
A3
  8
0
 10
1011.034468254736
 20
395.49353700811798
 30
0.0
 40
3.5
 50
90.0
 51
270.0
  0
LINE
  5
A4
  8
0
 10
1015.170603271611
 20
394.42544117156632
 30
0.0
 11
1014.7263339111749
 21
394.16894213672617
 31
0.0
  0
LINE
  5
A5
  8
0
 10
1011.034468254736
 20
398.99353700811798
 30
0.0
 11
1015.222560418213
 21
398.99353700811798
 31
0.0
  0
ARC
  5
A6
  8
0
 10
1015.420603271611
 20
393.99242846967383
 30
0.0
 40
0.5
 50
44.477512185898199
 51
119.9999999999842
  0
ARC
  5
A7
  8
0
 10
1015.222560418213
 20
398.49353700811798
 30
0.0
 40
0.5
 50
297.66573890079871
 51
90.0
  0
ARC
  5
A8
  8
0
 10
1016.847654254736
 20
395.39368700811769
 30
0.0
 40
1.5
 50
224.4775121859349
 51
135.52248781404049
  0
ARC
  5
A9
  8
0
 10
1016.847654254736
 20
395.3936870081186
 30
0.0
 40
3.0
 50
117.6657389007736
 51
138.4630409672092
  0
ARC
  5
AA
  8
0
 10
1015.420603271611
 20
396.79494554656259
 30
0.0
 40
0.5
 50
239.9999999999896
 51
315.52248781410111
  0
ARC
  5
AB
  8
0
 10
1014.976333911176
 20
397.05144458140171
 30
0.0
 40
0.5
 50
138.46304096724521
 51
239.99999999996359
  0
LINE
  5
AC
  8
0
 10
1014.726333911176
 20
396.61843187951013
 30
0.0
 11
1015.170603271611
 21
396.36193284467049
 31
0.0
  0
ARC
  5
AD
  8
0
 10
1015.028914304247
 20
390.34353700811772
 30
0.0
 40
0.2500000000002347
 50
89.999999999895778
 51
149.99999999989939
  0
LINE
  5
AE
  8
0
 10
1015.028914304248
 20
390.59353700811789
 30
0.0
 11
1015.897654254735
 21
390.59353700811789
 31
0.0
  0
LINE
  5
AF
  8
0
 10
1007.039699002522
 20
377.00581019292508
 30
0.0
 11
1014.812407953301
 21
390.46853700811812
 31
0.0
  0
ARC
  5
B0
  8
0
 10
1015.897654254735
 20
390.34353700811789
 30
0.0
 40
0.25
 50
0.0
 51
90.0
  0
ARC
  5
B1
  8
0
 10
1007.256205353468
 20
376.88081019292463
 30
0.0
 40
0.2499999999996843
 50
149.99999999984729
 51
242.6115031947059
  0
LINE
  5
B2
  8
0
 10
1016.147654254734
 20
390.34353700811789
 30
0.0
 11
1016.147654254734
 21
380.28224625238312
 31
0.0
  0
ARC
  5
B3
  8
0
 10
1016.847654254677
 20
395.39368700815658
 30
0.0
 40
21.100000000010368
 50
242.61150319501499
 51
245.6748470449692
  0
ARC
  5
B4
  8
0
 10
1015.897654254739
 20
380.28224625238568
 30
0.0
 40
0.2499999999952652
 50
285.98360715704251
 51
359.99999999942679
  0
ARC
  5
B5
  8
0
 10
1007.950302638119
 20
375.7112802901745
 30
0.0
 40
0.5000000000062582
 50
344.9999999992209
 51
65.6748470439953
  0
ARC
  5
B6
  8
0
 10
1016.847654254722
 20
376.96562146204161
 30
0.0
 40
3.1999999999894091
 50
105.983607157072
 51
169.9999999996829
  0
LINE
  5
B7
  8
0
 10
1008.328377164346
 20
375.19042197849649
 30
0.0
 11
1008.4332655512681
 21
375.5818707676151
 31
0.0
  0
LINE
  5
B8
  8
0
 10
1013.696269445097
 20
377.52129563059128
 30
0.0
 11
1013.543408871078
 21
376.65438023622778
 31
0.0
  0
ARC
  5
B9
  8
0
 10
1007.845414251201
 20
375.3198315010477
 30
0.0
 40
0.5000000000001988
 50
245.84586671539
 51
345.00000000001899
  0
ARC
  5
BA
  8
0
 10
1015.5130243771021
 20
376.3070838808955
 30
0.0
 40
1.999999999998594
 50
170.00000000004059
 51
188.66490650257151
  0
ARC
  5
BB
  8
0
 10
1016.8476542547349
 20
395.39368700811912
 30
0.0
 40
22.500000000000028
 50
233.62876029942851
 51
245.84586671536309
  0
LINE
  5
BC
  8
0
 10
1013.535851680713
 20
376.00577319630253
 30
0.0
 11
1013.913330490928
 21
373.52879234169632
 31
0.0
  0
ARC
  5
BD
  8
0
 10
1003.801328966584
 20
377.67947247640001
 30
0.0
 40
0.5000000000000761
 50
134.94685754545071
 51
233.62876029940571
  0
ARC
  5
BE
  8
0
 10
1014.5064822998449
 20
373.61918554707381
 30
0.0
 40
0.600000000000077
 50
188.6649065025197
 51
263.86319221561428
  0
LINE
  5
BF
  8
0
 10
1003.734551966062
 20
378.31927107733992
 30
0.0
 11
1003.4481036526111
 21
378.03335363945922
 31
0.0
  0
ARC
  5
C0
  8
0
 10
1016.847654257311
 20
395.39368700576102
 30
0.0
 40
22.499999997917751
 50
263.86319220850862
 51
264.14773990989289
  0
ARC
  5
C1
  8
0
 10
1004.087777280036
 20
377.96538991428088
 30
0.0
 40
0.4999999999999486
 50
53.79081340195988
 51
134.94685754546919
  0
ARC
  5
C2
  8
0
 10
1014.604452938854
 20
373.50834835740261
 30
0.0
 40
0.4999999999982072
 50
264.14773991721438
 51
330.00000000016672
  0
ARC
  5
C3
  8
0
 10
1016.847654254576
 20
395.39368700823138
 30
0.0
 40
21.10000000000942
 50
233.7908134025426
 51
237.3884968056984
  0
LINE
  5
C4
  8
0
 10
1015.037465640745
 20
373.25834835740471
 30
0.0
 11
1015.732699098687
 21
374.46252802968121
 31
0.0
  0
ARC
  5
C5
  8
0
 10
1005.610757086281
 20
377.8308101929249
 30
0.0
 40
0.2499999999978288
 50
237.38849680476361
 51
329.99999999968401
  0
ARC
  5
C6
  8
0
 10
1015.472891477552
 20
374.6125280296813
 30
0.0
 40
0.3000000000000869
 50
329.9999999999747
 51
52.337744339227072
  0
LINE
  5
C7
  8
0
 10
1013.051489632272
 20
390.21853700811772
 30
0.0
 11
1005.827263437224
 21
377.70581019292467
 31
0.0
  0
ARC
  5
C8
  8
0
 10
1016.847654254736
 20
376.39368700811889
 30
0.0
 40
1.949999999999898
 50
307.66225566072092
 51
232.33774433923921
  0
ARC
  5
C9
  8
0
 10
1012.834983281326
 20
390.34353700811772
 30
0.0
 40
0.2500000000002081
 50
330.00000000004189
 51
90.0
  0
ARC
  5
CA
  8
0
 10
1018.222417031918
 20
374.61252802968153
 30
0.0
 40
0.2999999999996436
 50
127.66225566085249
 51
210.00000000010641
  0
LINE
  5
CB
  8
0
 10
1010.000537868889
 20
390.59353700811789
 30
0.0
 11
1012.834983281326
 21
390.59353700811789
 31
0.0
  0
LINE
  5
CC
  8
0
 10
1017.962609410784
 20
374.46252802968121
 30
0.0
 11
1018.657842868725
 21
373.25834835740471
 31
0.0
  0
ARC
  5
CD
  8
0
 10
1010.000537868889
 20
390.34353700811789
 30
0.0
 40
0.2500000000000621
 50
90.0
 51
119.9999999999842
  0
ARC
  5
CE
  8
0
 10
1019.090855570617
 20
373.5083483574046
 30
0.0
 40
0.4999999999999477
 50
210.00000000001029
 51
275.8522600829744
  0
LINE
  5
CF
  8
0
 10
999.1597774395417
 20
384.37329619060853
 30
0.0
 11
1009.875537868889
 21
390.56004335906408
 31
0.0
  0
ARC
  5
D0
  8
0
 10
1016.847654254856
 20
395.39368700767
 30
0.0
 40
22.4999999995417
 50
275.85226008278732
 51
276.13680778418097
  0
ARC
  5
D1
  8
0
 10
999.28477743954181
 20
384.15678983966222
 30
0.0
 40
0.250000000000161
 50
119.9999999999842
 51
212.61150319485549
  0
ARC
  5
D2
  8
0
 10
1019.188826209626
 20
373.61918554705773
 30
0.0
 40
0.5999999999980767
 50
276.13680778589088
 51
351.33509349900442
  0
ARC
  5
D3
  8
0
 10
1016.847654254736
 20
395.39368700818392
 30
0.0
 40
21.100000000039341
 50
212.61150319497821
 51
216.21493029116871
  0
LINE
  5
D4
  8
0
 10
1019.781978018543
 20
373.52879234169632
 30
0.0
 11
1020.159456828758
 21
376.00577319630219
 31
0.0
  0
ARC
  5
D5
  8
0
 10
999.4206363796219
 20
382.63206297429252
 30
0.0
 40
0.5000000000059333
 50
314.94685754471442
 51
36.214930290254351
  0
ARC
  5
D6
  8
0
 10
1018.182284132367
 20
376.3070838808955
 30
0.0
 40
2.0000000000007261
 50
351.33509349743179
 51
9.9999999999608757
  0
LINE
  5
D7
  8
0
 10
999.48749834148475
 20
381.99234917722612
 30
0.0
 11
999.77386169359534
 21
382.27818181122461
 31
0.0
  0
LINE
  5
D8
  8
0
 10
1020.151899638392
 20
376.65438023622818
 30
0.0
 11
1019.999039064375
 21
377.5212956305902
 31
0.0
  0
ARC
  5
D9
  8
0
 10
999.13427302751052
 20
382.34623034028499
 30
0.0
 40
0.5000000000000762
 50
216.37489918009911
 51
314.94685754550608
  0
ARC
  5
DA
  8
0
 10
1016.847654254734
 20
376.96562146205571
 30
0.0
 40
3.2000000000011051
 50
10.000000000003229
 51
74.016392842623901
  0
ARC
  5
DB
  8
0
 10
1016.8476542547349
 20
395.39368700811912
 30
0.0
 40
22.499999999999989
 50
202.37721818037579
 51
216.37489918010789
  0
ARC
  5
DC
  8
0
 10
1017.797654254724
 20
380.28224625240392
 30
0.0
 40
0.2499999999889288
 50
180.000000003335
 51
254.01639284570521
  0
ARC
  5
DD
  8
0
 10
996.50430967552427
 20
387.01822694126372
 30
0.0
 40
0.5000000000000429
 50
111.0032200590109
 51
202.37721818032591
  0
LINE
  5
DE
  8
0
 10
1017.547654254735
 20
380.28224625238931
 30
0.0
 11
1017.547654254736
 21
390.34353700811789
 31
0.0
  0
LINE
  5
DF
  8
0
 10
996.69863297048551
 20
387.62841724800529
 30
0.0
 11
996.3250994671298
 21
387.48500708352259
 31
0.0
  0
ARC
  5
E0
  8
0
 10
1017.797654254736
 20
390.34353700811789
 30
0.0
 40
0.25
 50
90.0
 51
180.0
  0
ARC
  5
E1
  8
0
 10
996.87784317887906
 20
387.16163710574619
 30
0.0
 40
0.5000000000000773
 50
22.402667605022788
 51
111.0032200589042
  0
LINE
  5
E2
  8
0
 10
1017.797654254736
 20
390.59353700811789
 30
0.0
 11
1018.666394205223
 21
390.59353700811789
 31
0.0
  0
ARC
  5
E3
  8
0
 10
1016.847654254675
 20
395.39368700824588
 30
0.0
 40
21.100000000005512
 50
202.4026676054477
 51
207.38849680553551
  0
ARC
  5
E4
  8
0
 10
1018.666394205222
 20
390.34353700811789
 30
0.0
 40
0.2499999999999854
 50
29.999999999958209
 51
89.999999999895778
  0
ARC
  5
E5
  8
0
 10
998.33477743954472
 20
385.80223810685538
 30
0.0
 40
0.2500000000007184
 50
207.388496804124
 51
299.99999999894959
  0
LINE
  5
E6
  8
0
 10
1018.882900556169
 20
390.46853700811789
 30
0.0
 11
1026.6556095069479
 21
377.00581019292508
 31
0.0
  0
LINE
  5
E7
  8
0
 10
1008.086945980061
 20
391.14398010430909
 30
0.0
 11
998.45977743954097
 21
385.58573175590641
 31
0.0
  0
ARC
  5
E8
  8
0
 10
1026.4391031560031
 20
376.88081019292463
 30
0.0
 40
0.2499999999996882
 50
297.3884968052941
 51
30.00000000015266
  0
ARC
  5
E9
  8
0
 10
1007.961945980061
 20
391.36048645525511
 30
0.0
 40
0.2499999999999108
 50
300.00000000001029
 51
53.37277587129018
  0
ARC
  5
EA
  8
0
 10
1016.847654254839
 20
395.39368700806767
 30
0.0
 40
21.099999999910981
 50
294.32515295503822
 51
297.38849680498748
  0
ARC
  5
EB
  8
0
 10
1011.0344682548
 20
395.49353700801339
 30
0.0
 40
4.9000000000408441
 50
191.76244311544849
 51
233.3727758700129
  0
ARC
  5
EC
  8
0
 10
1025.7450058713559
 20
375.7112802901724
 30
0.0
 40
0.5000000000104357
 50
114.32515295561539
 51
195.00000000040421
  0
ARC
  5
ED
  8
0
 10
1005.992611951958
 20
394.44368700807581
 30
0.0
 40
0.250000000043535
 50
11.76244312892932
 51
90.000000012089586
  0
LINE
  5
EE
  8
0
 10
1025.262042958203
 20
375.5818707676151
 30
0.0
 11
1025.3669313451239
 21
375.19042197849649
 31
0.0
  0
LINE
  5
EF
  8
0
 10
996.01930818501251
 20
394.69368700811918
 30
0.0
 11
1005.992611951905
 21
394.69368700811918
 31
0.0
  0
ARC
  5
F0
  8
0
 10
1025.8498942582689
 20
375.3198315010477
 30
0.0
 40
0.5000000000002201
 50
194.9999999999809
 51
294.15413328462063
  0
ARC
  5
F1
  8
0
 10
996.01930818501251
 20
394.44368700811953
 30
0.0
 40
0.2499999999999364
 50
90.0
 51
182.6115031948901
  0
ARC
  5
F2
  8
0
 10
1016.847654254751
 20
395.39368700809251
 30
0.0
 40
22.49999999996934
 50
294.15413328462898
 51
306.3712397005915
  0
ARC
  5
F3
  8
0
 10
1016.847654254707
 20
395.3936870081514
 30
0.0
 40
21.09999999997574
 50
182.6115031949212
 51
187.60462806315991
  0
ARC
  5
F4
  8
0
 10
1029.8939795428889
 20
377.67947247639972
 30
0.0
 40
0.499999999998135
 50
306.37123970087907
 51
45.053142454788947
  0
ARC
  5
F5
  8
0
 10
995.43762940798024
 20
392.53521957580818
 30
0.0
 40
0.5000000000060929
 50
278.85373645035821
 51
7.6046280623710851
  0
LINE
  5
F6
  8
0
 10
1030.24720485686
 20
378.03335363945922
 30
0.0
 11
1029.960756543408
 21
378.31927107733958
 31
0.0
  0
LINE
  5
F7
  8
0
 10
995.11925969084621
 20
391.97959793355739
 30
0.0
 11
995.51458571123555
 21
392.04117734340781
 31
0.0
  0
ARC
  5
F8
  8
0
 10
1029.607531229434
 20
377.96538991428088
 30
0.0
 40
0.4999999999999935
 50
45.053142454475527
 51
126.2091865979673
  0
ARC
  5
F9
  8
0
 10
995.04230338758452
 20
392.47364016595071
 30
0.0
 40
0.4999999999999613
 50
187.6273426258424
 51
278.8537364512074
  0
ARC
  5
FA
  8
0
 10
1016.847654254849
 20
395.39368700829118
 30
0.0
 40
21.100000000083948
 50
302.61150319430681
 51
306.20918659746093
  0
ARC
  5
FB
  8
0
 10
1016.8476542547349
 20
395.39368700811792
 30
0.0
 40
22.500000000000039
 50
173.9568665263071
 51
187.62734262584681
  0
ARC
  5
FC
  8
0
 10
1028.0845514231901
 20
377.83081019292263
 30
0.0
 40
0.249999999996039
 50
209.9999999998717
 51
302.61150319464991
  0
ARC
  5
FD
  8
0
 10
994.96990996365184
 20
397.70978388302359
 30
0.0
 40
0.500000000000115
 50
82.578408421298846
 51
173.956866526276
  0
LINE
  5
FE
  8
0
 10
1027.868045072247
 20
377.7058101929249
 30
0.0
 11
1020.643818877198
 21
390.21853700811772
 31
0.0
  0
LINE
  5
FF
  8
0
 10
995.43126058124426
 20
398.15391221011851
 30
0.0
 11
995.03449461009643
 21
398.20559516107602
 31
0.0
  0
ARC
  5
100
  8
0
 10
1020.860325228145
 20
390.34353700811772
 30
0.0
 40
0.2500000000001978
 50
90.0
 51
209.99999999995819
  0
ARC
  5
101
  8
0
 10
995.36667593479945
 20
397.65810093206659
 30
0.0
 40
0.5000000000000127
 50
353.98239859224037
 51
82.578408421240482
  0
LINE
  5
102
  8
0
 10
1020.860325228145
 20
390.59353700811789
 30
0.0
 11
1023.694770640582
 21
390.59353700811789
 31
0.0
  0
ARC
  5
103
  8
0
 10
1016.84765425475
 20
395.39368700831778
 30
0.0
 40
21.100000000006091
 50
173.98239859283271
 51
177.38849680570669
  0
ARC
  5
104
  8
0
 10
1023.694770640582
 20
390.34353700811789
 30
0.0
 40
0.2500000000000493
 50
59.99999999998969
 51
90.0
  0
ARC
  5
105
  8
0
 10
996.01930818501512
 20
396.3436870081178
 30
0.0
 40
0.2499999999993252
 50
177.38849680458449
 51
269.99999999937461
  0
LINE
  5
106
  8
0
 10
1023.819770640582
 20
390.56004335906391
 30
0.0
 11
1034.535531069929
 21
384.37329619060853
 31
0.0
  0
LINE
  5
107
  8
0
 10
1005.9551233187819
 20
396.09368700811842
 30
0.0
 11
996.01930818501251
 21
396.09368700811842
 31
0.0
  0
ARC
  5
108
  8
0
 10
1034.410531069929
 20
384.15678983966222
 30
0.0
 40
0.250000000000163
 50
327.38849680514448
 51
60.000000000015767
  0
ARC
  5
109
  8
0
 10
1005.9551233187819
 20
396.3436870081182
 30
0.0
 40
0.2499999999998737
 50
270.00000000010419
 51
350.49825350085501
  0
ARC
  5
10A
  8
0
 10
1016.847654254788
 20
395.39368700814771
 30
0.0
 40
21.09999999997514
 50
323.78506970883348
 51
327.38849680502659
  0
ARC
  5
10B
  8
0
 10
1011.0344682546749
 20
395.4935370080122
 30
0.0
 40
4.9000000000443178
 50
128.70744475382801
 51
170.4982534995068
  0
ARC
  5
10C
  8
0
 10
1034.274672129852
 20
382.63206297429269
 30
0.0
 40
0.5000000000078476
 50
143.785069709597
 51
225.05314245508271
  0
ARC
  5
10D
  8
0
 10
1007.813946362863
 20
399.51233517976198
 30
0.0
 40
0.2500000000424488
 50
308.70744476232562
 51
60.000000007181811
  0
LINE
  5
10E
  8
0
 10
1033.921446815875
 20
382.27818181122461
 30
0.0
 11
1034.2078101679861
 21
381.99234917722612
 31
0.0
  0
LINE
  5
10F
  8
0
 10
1003.41076267249
 20
402.3431896033332
 30
0.0
 11
1007.938946362857
 21
399.72884153076052
 31
0.0
  0
ARC
  5
110
  8
0
 10
1034.5610354819601
 20
382.34623034028499
 30
0.0
 40
0.5000000000000431
 50
225.05314245449401
 51
323.62510081988
  0
ARC
  5
111
  8
0
 10
1003.285762672491
 20
402.12668325238769
 30
0.0
 40
0.2499999999995266
 50
60.000000000027832
 51
134.01639284248921
  0
ARC
  5
112
  8
0
 10
1016.847654254734
 20
395.39368700812042
 30
0.0
 40
22.500000000002021
 50
323.62510081989018
 51
337.6227818196154
  0
ARC
  5
113
  8
0
 10
1000.888481349221
 20
404.60771978114508
 30
0.0
 40
3.1999999999896729
 50
250.00000000032429
 51
314.01639284293219
  0
ARC
  5
114
  8
0
 10
1037.1909988339451
 20
387.01822694126332
 30
0.0
 40
0.500000000001222
 50
337.62278181949699
 51
68.996779940871136
  0
LINE
  5
115
  8
0
 10
998.96681584913995
 20
401.901779951479
 30
0.0
 11
999.79401689059932
 21
401.60070339463363
 31
0.0
  0
LINE
  5
116
  8
0
 10
1037.370209042341
 20
387.48500708352282
 30
0.0
 11
1036.9966755389851
 21
387.62841724800552
 31
0.0
  0
ARC
  5
117
  8
0
 10
999.65085613579095
 20
403.78116519305081
 30
0.0
 40
2.0000000000000679
 50
231.3350934974799
 51
250.0000000000085
  0
ARC
  5
118
  8
0
 10
1036.8174653305921
 20
387.16163710574619
 30
0.0
 40
0.5000000000000587
 50
68.996779941105089
 51
157.59733239497299
  0
LINE
  5
119
  8
0
 10
996.4449381406389
 20
403.78493541894318
 30
0.0
 11
998.40132708030796
 21
402.21953875260368
 31
0.0
  0
ARC
  5
11A
  8
0
 10
1016.84765425481
 20
395.39368700823712
 30
0.0
 40
21.099999999988341
 50
332.61150319447478
 51
337.5973323945596
  0
ARC
  5
11B
  8
0
 10
996.8197968572839
 20
404.25342335107678
 30
0.0
 40
0.5999999999998695
 50
156.1368077843386
 51
231.33509349743861
  0
ARC
  5
11C
  8
0
 10
1035.3605310699261
 20
385.80223810685737
 30
0.0
 40
0.2500000000020664
 50
240.00000000137521
 51
332.61150319611238
  0
ARC
  5
11D
  8
0
 10
1016.847654254095
 20
395.3936870114922
 30
0.0
 40
22.499999998036099
 50
155.8522600901444
 51
156.1368077915275
  0
LINE
  5
11E
  8
0
 10
1035.2355310699299
 20
385.58573175590641
 30
0.0
 11
1025.60836252941
 21
391.14398010430909
 31
0.0
  0
ARC
  5
11F
  8
0
 10
996.77279435484945
 20
404.39368700812031
 30
0.0
 40
0.4999999999983076
 50
89.999999999843666
 51
155.8522600828455
  0
ARC
  5
120
  8
0
 10
1025.73336252941
 20
391.36048645525511
 30
0.0
 40
0.2499999999999049
 50
126.6272241287098
 51
239.9999999999896
  0
LINE
  5
121
  8
0
 10
998.16326127073398
 20
404.8936870081186
 30
0.0
 11
996.77279435485059
 21
404.89368700811877
 31
0.0
  0
ARC
  5
122
  8
0
 10
1022.660840254671
 20
395.49353700801362
 30
0.0
 40
4.9000000000408237
 50
306.62722412998119
 51
348.2375568845514
  0
ARC
  5
123
  8
0
 10
998.16326127073398
 20
404.59368700811842
 30
0.0
 40
0.3000000000000281
 50
7.6622556607994783
 51
90.0
  0
ARC
  5
124
  8
0
 10
1027.7026965575119
 20
394.44368700807621
 30
0.0
 40
0.2500000000431302
 50
89.999999987806206
 51
168.23755687107919
  0
ARC
  5
125
  8
0
 10
1000.393171582832
 20
404.8936870081186
 30
0.0
 40
1.949999999999867
 50
187.66225566076659
 51
112.3377443392371
  0
LINE
  5
126
  8
0
 10
1027.7026965575651
 20
394.69368700811918
 30
0.0
 11
1037.6760003244581
 21
394.69368700811953
 31
0.0
  0
ARC
  5
127
  8
0
 10
999.5380240479185
 20
406.97484598655609
 30
0.0
 40
0.2999999999999314
 50
209.99999999995009
 51
292.33774433914431
  0
ARC
  5
128
  8
0
 10
1037.6760003244581
 20
394.44368700811953
 30
0.0
 40
0.2499999999999372
 50
357.38849680510509
 51
90.0
  0
LINE
  5
129
  8
0
 10
998.58298296884095
 20
408.0290256588325
 30
0.0
 11
999.27821642678327
 21
406.8248459865564
 31
0.0
  0
ARC
  5
12A
  8
0
 10
1016.847654254766
 20
395.3936870081522
 30
0.0
 40
21.09999999997363
 50
352.39537193683873
 51
357.38849680507599
  0
ARC
  5
12B
  8
0
 10
999.01599567073345
 20
408.27902565883232
 30
0.0
 40
0.5000000000001548
 50
144.14773991700491
 51
209.99999999996169
  0
ARC
  5
12C
  8
0
 10
1038.257679101491
 20
392.53521957580853
 30
0.0
 40
0.5000000000064822
 50
172.39537193758409
 51
261.14626354959432
  0
ARC
  5
12D
  8
0
 10
1016.8476542547299
 20
395.39368700811042
 30
0.0
 40
22.500000000000931
 50
143.86319221564369
 51
144.1477399169971
  0
LINE
  5
12E
  8
0
 10
1038.1807227982349
 20
392.04117734340781
 30
0.0
 11
1038.5760488186249
 21
391.97959793355722
 31
0.0
  0
ARC
  5
12F
  8
0
 10
999.16096881216515
 20
408.3084521262021
 30
0.0
 40
0.6000000000066668
 50
68.664906501735771
 51
143.86319221483359
  0
ARC
  5
130
  8
0
 10
1038.6530051218861
 20
392.47364016595071
 30
0.0
 40
0.499999999999969
 50
261.1462635487967
 51
352.37265737415748
  0
LINE
  5
131
  8
0
 10
1001.713129654324
 20
407.95574907545279
 30
0.0
 11
999.3792619044475
 21
408.867333263717
 31
0.0
  0
ARC
  5
132
  8
0
 10
1016.8476542547299
 20
395.39368700811769
 30
0.0
 40
22.500000000005429
 50
352.37265737415561
 51
6.0431334736897213
  0
ARC
  5
133
  8
0
 10
1000.985486013418
 20
406.09281195041348
 30
0.0
 40
2.000000000000199
 50
50.00000000001576
 51
68.664906502555411
  0
ARC
  5
134
  8
0
 10
1038.7253985458181
 20
397.70978388302319
 30
0.0
 40
0.5000000000004842
 50
6.0431334736666509
 51
97.421591578642747
  0
LINE
  5
135
  8
0
 10
1002.945401700237
 20
407.0590619991292
 30
0.0
 11
1002.271061232791
 21
407.62490083665188
 31
0.0
  0
LINE
  5
136
  8
0
 10
1038.660813899374
 20
398.20559516107602
 30
0.0
 11
1038.264047928227
 21
398.15391221011868
 31
0.0
  0
ARC
  5
137
  8
0
 10
1000.88848134924
 20
404.60771978114832
 30
0.0
 40
3.2000000000004509
 50
345.98360715742177
 51
49.999999999992539
  0
ARC
  5
138
  8
0
 10
1038.328632574671
 20
397.65810093206659
 30
0.0
 40
0.5000000000000076
 50
97.421591578756193
 51
186.01760140775411
  0
ARC
  5
139
  8
0
 10
1004.235762672497
 20
403.77213151956238
 30
0.0
 40
0.2499999999892825
 50
165.9836071542156
 51
239.99999999701851
  0
ARC
  5
13A
  8
0
 10
1016.847654254731
 20
395.39368700831852
 30
0.0
 40
21.0999999999956
 50
2.6115031942927298
 51
6.0176014071685424
  0
LINE
  5
13B
  8
0
 10
1009.8425690074949
 20
400.24636523817497
 30
0.0
 11
1004.110762672491
 21
403.5556251686321
 31
0.0
  0
ARC
  5
13C
  8
0
 10
1037.676000324456
 20
396.3436870081178
 30
0.0
 40
0.249999999999326
 50
270.00000000062528
 51
2.6115031954154939
  0
ARC
  5
13D
  8
0
 10
1011.034468254737
 20
395.49353700810713
 30
0.0
 40
4.9000000000111923
 50
90.000000000015945
 51
104.0781272731338
  0
LINE
  5
13E
  8
0
 10
1037.6760003244581
 20
396.09368700811842
 30
0.0
 11
1027.740185190688
 21
396.09368700811842
 31
0.0
  0
LINE
  5
13F
  8
0
 10
1012.71968643257
 20
400.39353700811819
 30
0.0
 11
1011.034468254736
 21
400.39353700811819
 31
0.0
  0
ARC
  5
140
  8
0
 10
1027.7401851906891
 20
396.3436870081182
 30
0.0
 40
0.2499999999998721
 50
189.50174649912771
 51
269.99999999989581
  0
ARC
  5
141
  8
0
 10
1012.71968643257
 20
400.6435370081183
 30
0.0
 40
0.2499999999999631
 50
270.00000000010419
 51
29.999999999965119
  0
ARC
  5
142
  8
0
 10
1022.660840254796
 20
395.4935370080122
 30
0.0
 40
4.9000000000440549
 50
9.5017465004950061
 51
51.292555246177741
  0
LINE
  5
143
  8
0
 10
1005.827263437224
 20
413.08156382331248
 30
0.0
 11
1012.936192783516
 21
400.76853700811807
 31
0.0
  0
ARC
  5
144
  8
0
 10
1025.881362146607
 20
399.51233517976198
 30
0.0
 40
0.2500000000424488
 50
119.99999999284429
 51
231.29255523764169
  0
ARC
  5
145
  8
0
 10
1005.610757086278
 20
412.95656382331219
 30
0.0
 40
0.2500000000000713
 50
30.00000000005544
 51
122.61150319492739
  0
LINE
  5
146
  8
0
 10
1025.7563621466129
 20
399.72884153076029
 30
0.0
 11
1030.28454583698
 21
402.34318960333349
 31
0.0
  0
ARC
  5
147
  8
0
 10
1016.847654254746
 20
395.39368700832512
 30
0.0
 40
21.099999999835081
 50
122.61150319515831
 51
124.29187977254681
  0
ARC
  5
148
  8
0
 10
1030.40954583698
 20
402.12668325238769
 30
0.0
 40
0.2499999999995305
 50
45.983607157547027
 51
119.9999999999461
  0
ARC
  5
149
  8
0
 10
1004.678020616434
 20
413.23913508626401
 30
0.0
 40
0.5000000000061277
 50
248.6649065011901
 51
304.29187977084541
  0
ARC
  5
14A
  8
0
 10
1032.8068271602499
 20
404.60771978114508
 30
0.0
 40
3.199999999989712
 50
225.98360715706499
 51
289.99999999967707
  0
LINE
  5
14B
  8
0
 10
1004.046600175726
 20
412.94897449827232
 30
0.0
 11
1004.496109706194
 21
412.77340080500289
 31
0.0
  0
LINE
  5
14C
  8
0
 10
1033.9012916188719
 20
401.60070339463391
 30
0.0
 11
1034.7284926603311
 21
401.90177995147877
 31
0.0
  0
ARC
  5
14D
  8
0
 10
1004.2285110859521
 20
413.41470877953191
 30
0.0
 40
0.4999999999999679
 50
125.0014674929287
 51
248.6649065025409
  0
ARC
  5
14E
  8
0
 10
1034.0444523736801
 20
403.78116519304962
 30
0.0
 40
1.999999999998793
 50
289.99999999998812
 51
308.66490650253428
  0
ARC
  5
14F
  8
0
 10
1016.847654254736
 20
395.3936870081186
 30
0.0
 40
22.499999999999918
 50
114.1541332846397
 51
125.0014674929255
  0
LINE
  5
150
  8
0
 10
1035.2939814291631
 20
402.21953875260391
 30
0.0
 11
1037.2503703688319
 21
403.78493541894318
 31
0.0
  0
ARC
  5
151
  8
0
 10
1007.845414251201
 20
415.46754251518968
 30
0.0
 40
0.4999999999998963
 50
14.99999999996928
 51
114.1541332846313
  0
ARC
  5
152
  8
0
 10
1036.875511652187
 20
404.25342335107712
 30
0.0
 40
0.5999999999999344
 50
308.66490650254792
 51
23.863192215641462
  0
LINE
  5
153
  8
0
 10
1008.433265551269
 20
415.20550324862228
 30
0.0
 11
1008.328377164346
 21
415.59695203774072
 31
0.0
  0
ARC
  5
154
  8
0
 10
1016.847654255913
 20
395.39368701172071
 30
0.0
 40
22.49999999745172
 50
23.863192208494539
 51
24.147739909881938
  0
ARC
  5
155
  8
0
 10
1007.950302638124
 20
415.07609372607158
 30
0.0
 40
0.5000000000004463
 50
294.32515295516231
 51
14.99999999993064
  0
ARC
  5
156
  8
0
 10
1036.922514154621
 20
404.39368700811929
 30
0.0
 40
0.4999999999992083
 50
24.147739917114279
 51
90.000000000104208
  0
ARC
  5
157
  8
0
 10
1016.84765425494
 20
395.39368700821711
 30
0.0
 40
21.100000000006371
 50
114.32515295583261
 51
117.3884968058028
  0
LINE
  5
158
  8
0
 10
1036.9225141546201
 20
404.8936870081186
 30
0.0
 11
1035.5320472387371
 21
404.89368700811832
 31
0.0
  0
ARC
  5
159
  8
0
 10
1007.256205353464
 20
413.90656382331122
 30
0.0
 40
0.2499999999951426
 50
117.3884968055645
 51
210.0000000003127
  0
ARC
  5
15A
  8
0
 10
1035.5320472387371
 20
404.59368700811842
 30
0.0
 40
0.3000000000000274
 50
90.0
 51
172.3377443392005
  0
LINE
  5
15B
  8
0
 10
1014.697111104544
 20
400.51853700811802
 30
0.0
 11
1007.039699002523
 21
413.78156382331252
 31
0.0
  0
ARC
  5
15C
  8
0
 10
1033.3021369266389
 20
404.89368700811877
 30
0.0
 40
1.949999999999896
 50
67.662255660748016
 51
352.33774433922679
  0
ARC
  5
15D
  8
0
 10
1014.91361745549
 20
400.6435370081187
 30
0.0
 40
0.2500000000002347
 50
210.00000000014569
 51
270.00000000010419
  0
ARC
  5
15E
  8
0
 10
1034.157284461553
 20
406.97484598655558
 30
0.0
 40
0.2999999999995108
 50
247.66225566082269
 51
330.00000000008748
  0
LINE
  5
15F
  8
0
 10
1015.897654254735
 20
400.39353700811819
 30
0.0
 11
1014.913617455491
 21
400.39353700811853
 31
0.0
  0
LINE
  5
160
  8
0
 10
1034.417092082688
 20
406.82484598655628
 30
0.0
 11
1035.1123255406301
 21
408.0290256588325
 31
0.0
  0
ARC
  5
161
  8
0
 10
1015.897654254735
 20
400.6435370081183
 30
0.0
 40
0.25
 50
270.0
 51
0.0
  0
ARC
  5
162
  8
0
 10
1034.6793128387369
 20
408.27902565883232
 30
0.0
 40
0.500000000000261
 50
330.00000000003831
 51
35.85226008299508
  0
LINE
  5
163
  8
0
 10
1016.147654254734
 20
416.2220330778415
 30
0.0
 11
1016.147654254735
 21
400.6435370081183
 31
0.0
  0
ARC
  5
164
  8
0
 10
1016.847654255076
 20
395.3936870084047
 30
0.0
 40
22.499999999556529
 50
35.85226008289613
 51
36.136807784259801
  0
ARC
  5
165
  8
0
 10
1015.897654254735
 20
416.22203307784179
 30
0.0
 40
0.2499999999999035
 50
359.99999999994787
 51
92.611503194785996
  0
ARC
  5
166
  8
0
 10
1034.5343396973069
 20
408.30845212620369
 30
0.0
 40
0.6000000000055729
 50
36.136807785268807
 51
111.3350934984004
  0
ARC
  5
167
  8
0
 10
1016.847654254805
 20
395.39368700809518
 30
0.0
 40
21.100000000030239
 50
92.611503195019012
 51
95.674847044964835
  0
LINE
  5
168
  8
0
 10
1034.3160466050231
 20
408.867333263717
 30
0.0
 11
1031.982178855146
 21
407.9557490754525
 31
0.0
  0
ARC
  5
169
  8
0
 10
1014.711783422156
 20
416.88782704178351
 30
0.0
 40
0.5000000000061072
 50
194.9999999992115
 51
275.67484704395252
  0
ARC
  5
16A
  8
0
 10
1032.709822496053
 20
406.09281195041331
 30
0.0
 40
2.0000000000002189
 50
111.3350934974446
 51
129.9999999999942
  0
LINE
  5
16B
  8
0
 10
1014.123932122081
 20
417.14986630835608
 30
0.0
 11
1014.228820509003
 21
416.7584175192373
 31
0.0
  0
LINE
  5
16C
  8
0
 10
1031.4242472766789
 20
407.6249008366517
 30
0.0
 11
1030.7499068092329
 21
407.05906199912891
 31
0.0
  0
ARC
  5
16D
  8
0
 10
1014.606895035225
 20
417.27927583090758
 30
0.0
 40
0.4999999999997542
 50
95.845866715368956
 51
195.00000000003311
  0
ARC
  5
16E
  8
0
 10
1032.806827160231
 20
404.60771978114832
 30
0.0
 40
3.2000000000004389
 50
130.00000000001009
 51
194.01639284258411
  0
ARC
  5
16F
  8
0
 10
1016.8476542547349
 20
395.39368700812292
 30
0.0
 40
22.49999999999579
 50
84.154133284632096
 51
95.845866715360984
  0
ARC
  5
170
  8
0
 10
1029.459545836974
 20
403.77213151956209
 30
0.0
 40
0.2499999999890865
 50
300.00000000291732
 51
14.016392845784431
  0
ARC
  5
171
  8
0
 10
1019.088413474247
 20
417.27927583090798
 30
0.0
 40
0.4999999999991239
 50
344.99999999990308
 51
84.154133284522061
  0
LINE
  5
172
  8
0
 10
1029.584545836979
 20
403.5556251686321
 30
0.0
 11
1023.852739501976
 21
400.24636523817497
 31
0.0
  0
LINE
  5
173
  8
0
 10
1019.4664880004671
 20
416.7584175192373
 30
0.0
 11
1019.57137638739
 21
417.14986630835608
 31
0.0
  0
ARC
  5
174
  8
0
 10
1022.660840254733
 20
395.49353700810639
 30
0.0
 40
4.9000000000117288
 50
75.921872726868116
 51
89.999999999984041
  0
ARC
  5
175
  8
0
 10
1018.983525087323
 20
416.8878270417888
 30
0.0
 40
0.5000000000000328
 50
264.32515295519238
 51
344.99999999996692
  0
LINE
  5
176
  8
0
 10
1022.660840254735
 20
400.39353700811807
 30
0.0
 11
1020.975622076901
 21
400.39353700811819
 31
0.0
  0
ARC
  5
177
  8
0
 10
1016.847654254947
 20
395.39368700792329
 30
0.0
 40
21.100000000185219
 50
84.325152955842725
 51
87.388496805762898
  0
ARC
  5
178
  8
0
 10
1020.975622076901
 20
400.6435370081183
 30
0.0
 40
0.249999999999953
 50
150.00000000004181
 51
269.99999999989581
  0
ARC
  5
179
  8
0
 10
1017.797654254735
 20
416.22203307783928
 30
0.0
 40
0.2499999999988477
 50
87.388496804679164
 51
179.99999999947889
  0
LINE
  5
17A
  8
0
 10
1020.759115725955
 20
400.76853700811819
 30
0.0
 11
1027.8680450722461
 21
413.08156382331248
 31
0.0
  0
LINE
  5
17B
  8
0
 10
1017.547654254735
 20
400.6435370081183
 30
0.0
 11
1017.547654254737
 21
416.2220330778415
 31
0.0
  0
ARC
  5
17C
  8
0
 10
1028.0845514231919
 20
412.95656382331219
 30
0.0
 40
0.2500000000000853
 50
57.388496805072563
 51
149.99999999994449
  0
ARC
  5
17D
  8
0
 10
1017.797654254735
 20
400.6435370081183
 30
0.0
 40
0.25
 50
180.0
 51
270.0
  0
ARC
  5
17E
  8
0
 10
1016.847654254734
 20
395.3936870083341
 30
0.0
 40
21.099999999822661
 50
55.70812022745865
 51
57.388496804849233
  0
LINE
  5
17F
  8
0
 10
1018.78169105398
 20
400.39353700811819
 30
0.0
 11
1017.797654254735
 21
400.39353700811819
 31
0.0
  0
ARC
  5
180
  8
0
 10
1029.0172878930371
 20
413.23913508626327
 30
0.0
 40
0.5000000000055546
 50
235.70812022911059
 51
291.33509349878028
  0
ARC
  5
181
  8
0
 10
1018.781691053979
 20
400.6435370081183
 30
0.0
 40
0.2499999999999854
 50
270.00000000010419
 51
330.00000000003479
  0
LINE
  5
182
  8
0
 10
1029.199198803276
 20
412.77340080500261
 30
0.0
 11
1029.6487083337449
 21
412.94897449827232
 31
0.0
  0
LINE
  5
183
  8
0
 10
1026.655609506947
 20
413.78156382331252
 30
0.0
 11
1018.998197404926
 21
400.51853700811853
 31
0.0
  0
ARC
  5
184
  8
0
 10
1029.4667974235181
 20
413.41470877953191
 30
0.0
 40
0.4999999999999589
 50
291.33509349745913
 51
54.998532507071339
  0
ARC
  5
185
  8
0
 10
1026.4391031560019
 20
413.90656382331298
 30
0.0
 40
0.2499999999996882
 50
329.99999999984732
 51
62.611503194705918
  0
ARC
  5
186
  8
0
 10
1016.847654254733
 20
395.39368700811588
 30
0.0
 40
22.500000000003329
 50
54.998532507074657
 51
65.845866715375678
  0
ARC
  5
187
  8
0
 10
1016.847654254857
 20
395.39368700820779
 30
0.0
 40
21.099999999868739
 50
62.611503195010293
 51
65.674847044963187
  0
ARC
  5
188
  8
0
 10
1025.849894258268
 20
415.46754251519337
 30
0.0
 40
0.4999999999974459
 50
65.845866715764672
 51
165.0000000003929
  0
ARC
  5
189
  8
0
 10
1025.7450058713559
 20
415.0760937260647
 30
0.0
 40
0.5000000000104429
 50
164.99999999959579
 51
245.67484704437391
  0
LINE
  5
18A
  8
0
 10
1025.3669313451239
 20
415.59695203774072
 30
0.0
 11
1025.262042958203
 21
415.20550324862211
 31
0.0
  0
ENDSEC
  0
EOF
