  0
SECTION
  2
HEADER
  9
$ACADVER
  1
AC1009
  9
$INSBASE
 10
0.0
 20
0.0
 30
0.0
  9
$EXTMIN
 10
1033.4848044271171
 20
708.47932585710578
 30
-0.0015258207003583
  9
$EXTMAX
 10
1079.563295202752
 20
758.37510804014187
 30
0.0000000349246037
  9
$LIMMIN
 10
0.0
 20
0.0
  9
$LIMMAX
 10
420.0
 20
297.0
  9
$ORTHOMODE
 70
     0
  9
$REGENMODE
 70
     1
  9
$FILLMODE
 70
     1
  9
$QTEXTMODE
 70
     0
  9
$MIRRTEXT
 70
     0
  9
$DRAGMODE
 70
     2
  9
$LTSCALE
 40
1.0
  9
$OSMODE
 70
  3071
  9
$ATTMODE
 70
     1
  9
$TEXTSIZE
 40
2.5
  9
$TRACEWID
 40
1.0
  9
$TEXTSTYLE
  7
STANDARD
  9
$CLAYER
  8
0
  9
$CELTYPE
  6
BYLAYER
  9
$CECOLOR
 62
   256
  9
$DIMSCALE
 40
1.0
  9
$DIMASZ
 40
2.5
  9
$DIMEXO
 40
0.625
  9
$DIMDLI
 40
3.75
  9
$DIMRND
 40
0.0
  9
$DIMDLE
 40
0.0
  9
$DIMEXE
 40
1.25
  9
$DIMTP
 40
0.0
  9
$DIMTM
 40
0.0
  9
$DIMTXT
 40
2.5
  9
$DIMCEN
 40
2.5
  9
$DIMTSZ
 40
0.0
  9
$DIMTOL
 70
     0
  9
$DIMLIM
 70
     0
  9
$DIMTIH
 70
     0
  9
$DIMTOH
 70
     0
  9
$DIMSE1
 70
     0
  9
$DIMSE2
 70
     0
  9
$DIMTAD
 70
     1
  9
$DIMZIN
 70
     8
  9
$DIMBLK
  1

  9
$DIMASO
 70
     1
  9
$DIMSHO
 70
     1
  9
$DIMPOST
  1

  9
$DIMAPOST
  1

  9
$DIMALT
 70
     0
  9
$DIMALTD
 70
     3
  9
$DIMALTF
 40
0.03937007874016
  9
$DIMLFAC
 40
1.0
  9
$DIMTOFL
 70
     1
  9
$DIMTVP
 40
0.0
  9
$DIMTIX
 70
     0
  9
$DIMSOXD
 70
     0
  9
$DIMSAH
 70
     0
  9
$DIMBLK1
  1

  9
$DIMBLK2
  1

  9
$DIMSTYLE
  2
ISO-25
  9
$DIMCLRD
 70
     0
  9
$DIMCLRE
 70
     0
  9
$DIMCLRT
 70
     0
  9
$DIMTFAC
 40
1.0
  9
$DIMGAP
 40
0.625
  9
$LUNITS
 70
     2
  9
$LUPREC
 70
     4
  9
$SKETCHINC
 40
1.0
  9
$FILLETRAD
 40
0.0
  9
$AUNITS
 70
     0
  9
$AUPREC
 70
     0
  9
$MENU
  1
.
  9
$ELEVATION
 40
0.0
  9
$PELEVATION
 40
0.0
  9
$THICKNESS
 40
0.0
  9
$LIMCHECK
 70
     0
  9
$BLIPMODE
 70
     0
  9
$CHAMFERA
 40
0.0
  9
$CHAMFERB
 40
0.0
  9
$SKPOLY
 70
     0
  9
$TDCREATE
 40
2456358.7528097448
  9
$TDUPDATE
 40
2456358.7529104981
  9
$TDINDWG
 40
0.0001011111
  9
$TDUSRTIMER
 40
0.0001011111
  9
$USRTIMER
 70
     1
  9
$ANGBASE
 50
0.0
  9
$ANGDIR
 70
     0
  9
$PDMODE
 70
     0
  9
$PDSIZE
 40
0.0
  9
$PLINEWID
 40
0.0
  9
$COORDS
 70
     1
  9
$SPLFRAME
 70
     0
  9
$SPLINETYPE
 70
     6
  9
$SPLINESEGS
 70
     8
  9
$ATTDIA
 70
     0
  9
$ATTREQ
 70
     1
  9
$HANDLING
 70
     1
  9
$HANDSEED
  5
200
  9
$SURFTAB1
 70
     6
  9
$SURFTAB2
 70
     6
  9
$SURFTYPE
 70
     6
  9
$SURFU
 70
     6
  9
$SURFV
 70
     6
  9
$UCSNAME
  2

  9
$UCSORG
 10
0.0
 20
0.0
 30
0.0
  9
$UCSXDIR
 10
1.0
 20
0.0
 30
0.0
  9
$UCSYDIR
 10
0.0
 20
1.0
 30
0.0
  9
$PUCSNAME
  2

  9
$PUCSORG
 10
0.0
 20
0.0
 30
0.0
  9
$PUCSXDIR
 10
1.0
 20
0.0
 30
0.0
  9
$PUCSYDIR
 10
0.0
 20
1.0
 30
0.0
  9
$USERI1
 70
     0
  9
$USERI2
 70
     0
  9
$USERI3
 70
     0
  9
$USERI4
 70
     0
  9
$USERI5
 70
     0
  9
$USERR1
 40
0.0
  9
$USERR2
 40
0.0
  9
$USERR3
 40
0.0
  9
$USERR4
 40
0.0
  9
$USERR5
 40
0.0
  9
$WORLDVIEW
 70
     1
  9
$SHADEDGE
 70
     3
  9
$SHADEDIF
 70
    70
  9
$TILEMODE
 70
     1
  9
$MAXACTVP
 70
    64
  9
$PLIMCHECK
 70
     0
  9
$PEXTMIN
 10
0.0
 20
0.0
 30
0.0
  9
$PEXTMAX
 10
0.0
 20
0.0
 30
0.0
  9
$PLIMMIN
 10
0.0
 20
0.0
  9
$PLIMMAX
 10
12.0
 20
9.0
  9
$UNITMODE
 70
     0
  9
$VISRETAIN
 70
     1
  9
$PLINEGEN
 70
     0
  9
$PSLTSCALE
 70
     1
  0
ENDSEC
  0
SECTION
  2
TABLES
  0
TABLE
  2
VPORT
 70
     2
  0
VPORT
  2
*ACTIVE
 70
     0
 10
0.0
 20
0.0
 11
1.0
 21
1.0
 12
1056.5240498149351
 22
733.42721694862382
 13
0.0
 23
0.0
 14
10.0
 24
10.0
 15
10.0
 25
10.0
 16
0.0
 26
0.0
 36
1.0
 17
0.0
 27
0.0
 37
0.0
 40
50.358494228010159
 41
2.3219814241486061
 42
50.0
 43
0.0
 44
0.0
 50
0.0
 51
0.0
 71
     0
 72
  1000
 73
     1
 74
     3
 75
     0
 76
     0
 77
     0
 78
     0
  0
ENDTAB
  0
TABLE
  2
LTYPE
 70
     1
  0
LTYPE
  2
CONTINUOUS
 70
     0
  3
Solid line
 72
    65
 73
     0
 40
0.0
  0
ENDTAB
  0
TABLE
  2
LAYER
 70
     1
  0
LAYER
  2
0
 70
     0
 62
     7
  6
CONTINUOUS
  0
ENDTAB
  0
TABLE
  2
STYLE
 70
     2
  0
STYLE
  2
STANDARD
 70
     0
 40
0.0
 41
1.0
 50
0.0
 71
     0
 42
2.5
  3
txt
  4

  0
STYLE
  2
ROMANT
 70
     0
 40
2.2000000000000002
 41
1.0
 50
15.0
 71
     0
 42
2.5
  3
romant.shx
  4

  0
ENDTAB
  0
TABLE
  2
VIEW
 70
     0
  0
ENDTAB
  0
TABLE
  2
UCS
 70
     0
  0
ENDTAB
  0
TABLE
  2
APPID
 70
     2
  0
APPID
  2
ACAD
 70
     0
  0
APPID
  2
DCO15
 70
     0
  0
ENDTAB
  0
TABLE
  2
DIMSTYLE
 70
     3
  0
DIMSTYLE
  2
ISO-25
 70
     0
  3

  4

  5

  6

  7

 40
1.0
 41
2.5
 42
0.625
 43
3.75
 44
1.25
 45
0.0
 46
0.0
 47
0.0
 48
0.0
140
2.5
141
2.5
142
0.0
143
0.03937007874016
144
1.0
145
0.0
146
1.0
147
0.625
 71
     0
 72
     0
 73
     0
 74
     0
 75
     0
 76
     0
 77
     1
 78
     8
170
     0
171
     3
172
     1
173
     0
174
     0
175
     0
176
     0
177
     0
178
     0
  0
DIMSTYLE
  2
STANDARD
 70
     0
  3

  4

  5

  6

  7

 40
1.0
 41
0.18
 42
0.0625
 43
0.38
 44
0.18
 45
0.0
 46
0.0
 47
0.0
 48
0.0
140
0.18
141
0.09
142
0.0
143
25.399999999999999
144
1.0
145
0.0
146
1.0
147
0.09
 71
     0
 72
     0
 73
     1
 74
     1
 75
     0
 76
     0
 77
     0
 78
     0
170
     0
171
     2
172
     0
173
     0
174
     0
175
     0
176
     0
177
     0
178
     0
  0
DIMSTYLE
  2
ISO-25_1_E_1
 70
     0
  3

  4

  5

  6

  7

 40
1.0
 41
1.3
 42
0.0
 43
3.75
 44
0.2
 45
0.0
 46
0.0
 47
0.0
 48
0.0
140
1.0
141
0.2
142
0.0
143
0.03937007874016
144
0.166666666666667
145
0.0
146
1.0
147
0.7
 71
     0
 72
     0
 73
     0
 74
     0
 75
     0
 76
     0
 77
     1
 78
     8
170
     0
171
     3
172
     0
173
     0
174
     0
175
     0
176
   242
177
   242
178
   242
  0
ENDTAB
  0
ENDSEC
  0
SECTION
  2
BLOCKS
  0
BLOCK
  8
0
  2
$MODEL_SPACE
 70
     0
 10
0.0
 20
0.0
 30
0.0
  3
$MODEL_SPACE
  1

  0
ENDBLK
  5
21
  8
0
  0
BLOCK
 67
     1
  8
0
  2
$PAPER_SPACE
 70
     0
 10
0.0
 20
0.0
 30
0.0
  3
$PAPER_SPACE
  1

  0
ENDBLK
  5
53
 67
     1
  8
0
  0
BLOCK
  8
0
  2
*U2
 70
     1
 10
0.0
 20
0.0
 30
0.0
  3
*U2
  1

  0
ARC
  5
EE
  8
0
 10
45.000200658248552
 20
31.3002045772736
 30
0.0
 40
0.5000000447035263
 50
269.99999995011751
 51
0.0174852829833494
  0
LINE
  5
EF
  8
0
 10
45.500197627911113
 20
49.200244250125174
 30
0.0
 11
45.500200679668971
 21
31.300357165164229
 31
0.0
  0
LINE
  5
F0
  8
0
 10
45.000200657813252
 20
30.800204532570088
 30
0.0
 11
38.130099481097773
 21
30.800204577273611
 31
0.0
  0
ARC
  5
F1
  8
0
 10
45.200197627911159
 20
49.200244250125174
 30
0.0
 40
0.2999999999999974
 50
0.0
 51
90.000002504481714
  0
ARC
  5
F2
  8
0
 10
38.130099481097773
 20
29.800204577273611
 30
0.0
 40
1.000000000000014
 50
90.0
 51
180.00005976296481
  0
LINE
  5
F3
  8
0
 10
40.800203718313348
 20
49.500244250125142
 30
0.0
 11
45.20019761479773
 21
49.500244250125142
 31
0.0
  0
LINE
  5
F4
  8
0
 10
37.130099481098277
 20
29.8002035342131
 30
0.0
 11
37.130101045755907
 21
28.300139447299021
 31
0.0
  0
ARC
  5
F5
  8
0
 10
40.800203731426791
 20
49.200244250125174
 30
0.0
 40
0.2999999999999974
 50
90.000002504481714
 51
179.999994991042
  0
ARC
  5
F6
  8
0
 10
38.130101045755389
 20
28.300140490359521
 30
0.0
 40
1.0000000000000031
 50
180.00005976296481
 51
270.0
  0
LINE
  5
F7
  8
0
 10
40.500197627911177
 20
35.800250353640791
 30
0.0
 11
40.500203731426829
 21
49.200244276352009
 31
0.0
  0
LINE
  5
F8
  8
0
 10
38.130101045755389
 20
27.300140490359531
 30
0.0
 11
45.000200657813252
 21
27.30014053506304
 31
0.0
  0
ARC
  5
F9
  8
0
 10
40.200197627911159
 20
35.800250353640791
 30
0.0
 40
0.3000000000000114
 50
270.00001798608798
 51
0.0
  0
ARC
  5
FA
  8
0
 10
45.000200679668978
 20
26.800140490359521
 30
0.0
 40
0.5000000447035125
 50
0.0242283277910435
 51
90.000002504481515
  0
LINE
  5
FB
  8
0
 10
27.800234164365921
 20
35.500244250125149
 30
0.0
 11
40.200197722086102
 21
35.500250353640808
 31
0.0
  0
LINE
  5
FC
  8
0
 10
45.500200679668971
 20
26.80035192241823
 30
0.0
 11
45.500201848799399
 21
10.76199643832561
 31
0.0
  0
ARC
  5
FD
  8
0
 10
27.800234249004919
 20
35.200244250125174
 30
0.0
 40
0.3000000000000057
 50
90.000016164857897
 51
179.9999776882002
  0
ARC
  5
FE
  8
0
 10
44.000200679668978
 20
10.7619965694611
 30
0.0
 40
1.5000013416133979
 50
284.47761479991328
 51
359.99999499099698
  0
LINE
  5
FF
  8
0
 10
27.500228145489249
 20
32.80025037984084
 30
0.0
 11
27.500234249004961
 21
35.200244366949477
 31
0.0
  0
ARC
  5
100
  8
0
 10
44.300203731426791
 20
9.6001008175079772
 30
0.0
 40
0.3000000268186262
 50
180.00000865142269
 51
284.47749663988429
  0
ARC
  5
101
  8
0
 10
27.200228145489291
 20
32.800250353640791
 30
0.0
 40
0.2999999999999841
 50
270.00000432571181
 51
0.0000050038392629
  0
LINE
  5
102
  8
0
 10
44.000203704608168
 20
9.6001007722092311
 30
0.0
 11
44.000197654733249
 21
20.000033705062631
 31
0.0
  0
LINE
  5
103
  8
0
 10
24.80023427165429
 20
32.500250353640808
 30
0.0
 11
27.200228168138661
 21
32.500250353640808
 31
0.0
  0
ARC
  5
104
  8
0
 10
43.700197627911159
 20
20.000033678836111
 30
0.0
 40
0.3000000268220629
 50
0.0000050088978632
 51
90.000002504481515
  0
ARC
  5
105
  8
0
 10
24.800234249004919
 20
32.800250353640791
 30
0.0
 40
0.2999999999999838
 50
179.99999499104189
 51
270.00000432571181
  0
LINE
  5
106
  8
0
 10
43.70019761479773
 20
20.300033705658159
 30
0.0
 11
41.850222004818981
 21
20.300042758113541
 31
0.0
  0
LINE
  5
107
  8
0
 10
24.500228145489249
 20
35.200244276325208
 30
0.0
 11
24.500234249004961
 21
32.800250379867641
 31
0.0
  0
ARC
  5
108
  8
0
 10
41.850222041973659
 20
21.150042834109541
 30
0.0
 40
0.850000075996008
 50
90.000002504477663
 51
269.99999749552228
  0
ARC
  5
109
  8
0
 10
24.200228145489291
 20
35.200244250125174
 30
0.0
 40
0.2999999999999841
 50
0.00000500383928
 51
89.999995674288215
  0
LINE
  5
10A
  8
0
 10
41.850222004818981
 20
22.000042910105549
 30
0.0
 11
43.70019761479773
 21
22.00003670377183
 31
0.0
  0
LINE
  5
10B
  8
0
 10
1.000002390909116
 20
35.500247301882979
 30
0.0
 11
24.200228168138668
 21
35.500244250125149
 31
0.0
  0
ARC
  5
10C
  8
0
 10
43.700197627911159
 20
22.30003673059392
 30
0.0
 40
0.3000000268220762
 50
269.99999749551853
 51
359.99999499616109
  0
ARC
  5
10D
  8
0
 10
1.000002315411165
 20
34.500247301882979
 30
0.0
 40
1.0000000000000031
 50
89.999995674286041
 51
179.999994991043
  0
LINE
  5
10E
  8
0
 10
44.000197654733249
 20
22.300036704393872
 30
0.0
 11
44.000185420879909
 21
24.600067335593941
 31
0.0
  0
LINE
  5
10F
  8
0
 10
-0.0000003872811476
 20
1.5000029347638699
 30
0.0
 11
0.0000023154111659
 21
34.50024738930577
 31
0.0
  0
ARC
  5
110
  8
0
 10
43.000185420879909
 20
24.600067248172031
 30
0.0
 40
1.00000000000001
 50
0.0000050089064634
 51
89.999995674286041
  0
ARC
  5
111
  8
0
 10
1.500002315411165
 20
1.5000031612579781
 30
0.0
 40
1.5000027026923091
 50
180.00000865142209
 51
269.99985941957038
  0
LINE
  5
112
  8
0
 10
43.00018549637786
 20
25.600067248172049
 30
0.0
 11
27.75030756669031
 21
25.600067248186608
 31
0.0
  0
ARC
  5
113
  8
0
 10
1.500002315411165
 20
0.2000001095001664
 30
0.0
 40
0.2000000178921107
 50
269.99894564471509
 51
0.0000086514010356
  0
ARC
  5
114
  8
0
 10
27.750307491192419
 20
24.600067248172031
 30
0.0
 40
1.000000000014569
 50
89.999995674289309
 51
179.9999949910414
  0
LINE
  5
115
  8
0
 10
1.700002315411097
 20
20.000064222641068
 30
0.0
 11
1.700002333303245
 21
0.2000001396992559
 31
0.0
  0
LINE
  5
116
  8
0
 10
26.75030749117786
 20
24.600067335594851
 30
0.0
 11
26.750310516128248
 21
22.300036685295169
 31
0.0
  0
ARC
  5
117
  8
0
 10
2.000002315411165
 20
20.000064196414229
 30
0.0
 40
0.3000000000000975
 50
89.999995674288215
 51
179.999994991042
  0
ARC
  5
118
  8
0
 10
27.050310542950228
 20
22.30003673059392
 30
0.0
 40
0.3000000268219444
 50
180.00000865142269
 51
269.99999749551853
  0
LINE
  5
119
  8
0
 10
6.2001182929365077
 20
20.300064196165579
 30
0.0
 11
2.000002338060539
 21
20.300064196414318
 31
0.0
  0
LINE
  5
11A
  8
0
 10
27.0503105298368
 20
22.000036703771968
 30
0.0
 11
28.900286091733051
 21
22.000042910105751
 31
0.0
  0
ARC
  5
11B
  8
0
 10
6.20010607517679
 20
20.000064196414229
 30
0.0
 40
0.3000000000001535
 50
359.99999995249277
 51
89.997666579776237
  0
ARC
  5
11C
  8
0
 10
28.900286128887728
 20
21.150042834109541
 30
0.0
 40
0.850000075996207
 50
269.99999749552228
 51
90.000002504477663
  0
LINE
  5
11D
  8
0
 10
6.5001090598793212
 20
10.050051876136139
 30
0.0
 11
6.5001060751769719
 21
20.000064196165479
 31
0.0
  0
LINE
  5
11E
  8
0
 10
28.900286091733051
 20
20.300042758113339
 30
0.0
 11
27.0503105298368
 21
20.300033705658048
 31
0.0
  0
ARC
  5
11F
  8
0
 10
7.2501091269346034
 20
10.050051989382981
 30
0.0
 40
0.7500000670552816
 50
180.00000865142059
 51
359.99999499100232
  0
ARC
  5
120
  8
0
 10
27.050310542950228
 20
20.000033678836111
 30
0.0
 40
0.3000000268219625
 50
90.000002504481515
 51
179.9999913485772
  0
LINE
  5
121
  8
0
 10
8.0001121786923477
 20
20.000064222641068
 30
0.0
 11
8.0001091939898856
 21
10.050051923815341
 31
0.0
  0
LINE
  5
122
  8
0
 10
26.750310516128248
 20
20.000033724134848
 30
0.0
 11
26.750307558233381
 21
10.05008244139335
 31
0.0
  0
ARC
  5
123
  8
0
 10
8.3001121786924141
 20
20.000064196414229
 30
0.0
 40
0.3000000000000978
 50
89.999995674288215
 51
179.999994991042
  0
ARC
  5
124
  8
0
 10
26.000307491192419
 20
10.0500825069611
 30
0.0
 40
0.7500000670409662
 50
180.00000865142059
 51
359.99999499099363
  0
LINE
  5
125
  8
0
 10
10.150072468686171
 20
20.30005801690271
 30
0.0
 11
8.3001122013417898
 21
20.300064196414318
 31
0.0
  0
LINE
  5
126
  8
0
 10
25.250307424151458
 20
10.050082393714259
 30
0.0
 11
25.2503044662426
 21
20.000033705062631
 31
0.0
  0
ARC
  5
127
  8
0
 10
10.15007250584085
 20
21.1500580928986
 30
0.0
 40
0.8500000759958943
 50
269.99999749552228
 51
90.000002504477663
  0
ARC
  5
128
  8
0
 10
24.9503044394346
 20
20.000033678836111
 30
0.0
 40
0.3000000268079932
 50
0.0000050088978632
 51
90.000002504481515
  0
LINE
  5
129
  8
0
 10
2.000063373216789
 20
22.000067248171941
 30
0.0
 11
10.150072468686171
 21
22.000058168894501
 31
0.0
  0
LINE
  5
12A
  8
0
 10
24.950304426321171
 20
20.3000337056441
 30
0.0
 11
23.100023640561179
 21
20.300042758113651
 31
0.0
  0
ARC
  5
12B
  8
0
 10
2.000063350567415
 20
22.300067248172041
 30
0.0
 40
0.3000000000000833
 50
179.99999499104189
 51
270.00000432571181
  0
ARC
  5
12C
  8
0
 10
23.10002367771585
 20
21.150042834109541
 30
0.0
 40
0.8500000759958943
 50
90.000002504477663
 51
269.99999749552228
  0
LINE
  5
12D
  8
0
 10
1.700063350567347
 20
30.5000947402192
 30
0.0
 11
1.700063350567347
 21
22.300067274398891
 31
0.0
  0
LINE
  5
12E
  8
0
 10
23.100023640561179
 20
22.000042910105432
 30
0.0
 11
24.950304426321171
 21
22.000036703773048
 31
0.0
  0
ARC
  5
12F
  8
0
 10
2.000063350567415
 20
30.50009471399235
 30
0.0
 40
0.3000000000000942
 50
89.999995674288215
 51
179.999994991042
  0
ARC
  5
130
  8
0
 10
24.9503044394346
 20
22.30003673059392
 30
0.0
 40
0.3000000268208541
 50
269.99999749551853
 51
359.99999499616109
  0
LINE
  5
131
  8
0
 10
32.630265861020007
 20
30.80009776575017
 30
0.0
 11
2.000063373216789
 21
30.800094713992451
 31
0.0
  0
LINE
  5
132
  8
0
 10
25.25030446625545
 20
22.300036704393872
 30
0.0
 11
25.25030749119151
 21
26.800048981336548
 31
0.0
  0
ARC
  5
133
  8
0
 10
32.630265861020007
 20
29.800097765750159
 30
0.0
 40
1.0
 50
359.99993970680077
 51
90.0
  0
ARC
  5
134
  8
0
 10
25.750307491192419
 20
26.800048937625149
 30
0.0
 40
0.5000000000009469
 50
89.999995674292563
 51
179.999994991043
  0
LINE
  5
135
  8
0
 10
33.63026428249583
 20
28.300047885310331
 30
0.0
 11
33.630265861019438
 21
29.80009671343533
 31
0.0
  0
LINE
  5
136
  8
0
 10
25.750307528941342
 20
27.300048937626119
 30
0.0
 11
32.630264282496341
 21
27.300048937625181
 31
0.0
  0
ARC
  5
137
  8
0
 10
32.630264282496341
 20
28.300048937625181
 30
0.0
 40
1.0
 50
270.0
 51
359.99993970680077
  0
ENDBLK
  5
139
  8
0
  0
BLOCK
  8
0
  2
*X3
 70
     1
 10
0.0
 20
0.0
 30
0.0
  3
*X3
  1

  0
LINE
  5
13B
  8
0
 62
     0
 10
44.477232377784823
 20
9.3398697172307266
 30
0.0
 11
45.422327531899349
 21
10.28496487134527
 31
0.0
  0
LINE
  5
13C
  8
0
 62
     0
 10
44.000203619313837
 20
9.7467244352429248
 30
0.0
 11
45.50020181346482
 21
11.24672262939395
 31
0.0
  0
LINE
  5
13D
  8
0
 62
     0
 10
44.000203105139292
 20
10.63060739755155
 30
0.0
 11
45.500201749033351
 21
12.13060604144567
 31
0.0
  0
LINE
  5
13E
  8
0
 62
     0
 10
44.000202590964733
 20
11.51449035986019
 30
0.0
 11
45.500201684601933
 21
13.01448945349739
 31
0.0
  0
LINE
  5
13F
  8
0
 62
     0
 10
44.000202076790082
 20
12.398373322168711
 30
0.0
 11
45.500201620170429
 21
13.898372865549049
 31
0.0
  0
LINE
  5
140
  8
0
 62
     0
 10
44.000201562615473
 20
13.282256284477279
 30
0.0
 11
45.500201555738947
 21
14.78225627760076
 31
0.0
  0
LINE
  5
141
  8
0
 62
     0
 10
44.000201048440879
 20
14.166139246785971
 30
0.0
 11
45.50020149130745
 21
15.66613968965248
 31
0.0
  0
LINE
  5
142
  8
0
 62
     0
 10
44.00020053426632
 20
15.05002220909449
 30
0.0
 11
45.500201426875968
 21
16.550023101704141
 31
0.0
  0
LINE
  5
143
  8
0
 62
     0
 10
44.000200020091711
 20
15.933905171403071
 30
0.0
 11
45.5002013624445
 21
17.433906513755911
 31
0.0
  0
LINE
  5
144
  8
0
 62
     0
 10
44.000199505917067
 20
16.817788133711641
 30
0.0
 11
45.500201298012989
 21
18.317789925807631
 31
0.0
  0
LINE
  5
145
  8
0
 62
     0
 10
44.000198991742501
 20
17.70167109602022
 30
0.0
 11
45.500201233581578
 21
19.20167333785929
 31
0.0
  0
LINE
  5
146
  8
0
 62
     0
 10
44.000198477567892
 20
18.585554058328789
 30
0.0
 11
45.500201169150039
 21
20.08555674991095
 31
0.0
  0
LINE
  5
147
  8
0
 62
     0
 10
44.000197963393298
 20
19.469437020637429
 30
0.0
 11
45.500201104718542
 21
20.96944016196267
 31
0.0
  0
LINE
  5
148
  8
0
 62
     0
 10
43.884006627491793
 20
20.237129161219059
 30
0.0
 11
45.500201040287124
 21
21.853323574014379
 31
0.0
  0
LINE
  5
149
  8
0
 62
     0
 10
43.063030813285557
 20
20.30003682349605
 30
0.0
 11
45.500200975855613
 21
22.737206986066099
 31
0.0
  0
LINE
  5
14A
  8
0
 62
     0
 10
42.179151661873732
 20
20.300041148567399
 30
0.0
 11
45.500200911424137
 21
23.621090398117818
 31
0.0
  0
LINE
  5
14B
  8
0
 62
     0
 10
44.000193905212683
 20
23.004966868389491
 30
0.0
 11
45.500200846992669
 21
24.504973810169481
 31
0.0
  0
LINE
  5
14C
  8
0
 62
     0
 10
41.415091033489972
 20
20.419863996666781
 30
0.0
 11
42.995266105512741
 21
22.000039068689549
 31
0.0
  0
LINE
  5
14D
  8
0
 62
     0
 10
44.000189203865119
 20
23.888845643525141
 30
0.0
 11
45.500200782561173
 21
25.388857222221191
 31
0.0
  0
LINE
  5
14E
  8
0
 62
     0
 10
41.031811651806457
 20
20.920468091466489
 30
0.0
 11
42.111385594288862
 21
22.00004203394889
 31
0.0
  0
LINE
  5
14F
  8
0
 62
     0
 10
43.987333787094137
 20
24.759873703237361
 30
0.0
 11
45.500200718129683
 21
26.27274063427291
 31
0.0
  0
LINE
  5
150
  8
0
 62
     0
 10
43.678456047365408
 20
25.33487943999177
 30
0.0
 11
45.41815360528156
 21
27.074576997907968
 31
0.0
  0
LINE
  5
151
  8
0
 62
     0
 10
43.058082912355609
 20
25.59838978146519
 30
0.0
 11
44.75983366438939
 21
27.300140533498961
 31
0.0
  0
LINE
  5
152
  8
0
 62
     0
 10
42.175876902580058
 20
25.600067248172881
 30
0.0
 11
43.875950182154781
 21
27.300140527747541
 31
0.0
  0
LINE
  5
153
  8
0
 62
     0
 10
25.884834715174009
 20
9.3090250607667713
 30
0.0
 11
26.750307595219279
 21
10.174497940812101
 31
0.0
  0
LINE
  5
154
  8
0
 62
     0
 10
41.291993426097747
 20
25.600067248173669
 30
0.0
 11
42.992066699920187
 21
27.300140521996191
 31
0.0
  0
LINE
  5
155
  8
0
 62
     0
 10
25.356793934985891
 20
9.6648677570618133
 30
0.0
 11
26.750307857977869
 21
11.058381680053801
 31
0.0
  0
LINE
  5
156
  8
0
 62
     0
 10
40.408109949615408
 20
25.600067248174529
 30
0.0
 11
42.108183217685593
 21
27.30014051624471
 31
0.0
  0
LINE
  5
157
  8
0
 62
     0
 10
25.250307307564039
 20
10.44226460612316
 30
0.0
 11
26.750308120736491
 21
11.942265419295611
 31
0.0
  0
LINE
  5
158
  8
0
 62
     0
 10
39.524226473133012
 20
25.600067248175321
 30
0.0
 11
41.224299735451041
 21
27.30014051049335
 31
0.0
  0
LINE
  5
159
  8
0
 62
     0
 10
44.724363759322607
 20
30.800204534364919
 30
0.0
 11
45.500200632667543
 21
31.576041407709852
 31
0.0
  0
LINE
  5
15A
  8
0
 62
     0
 10
25.250307044804401
 20
11.32614781984671
 30
0.0
 11
26.750308383495049
 21
12.826149158537421
 31
0.0
  0
LINE
  5
15B
  8
0
 62
     0
 10
38.640342996650638
 20
25.60006724817617
 30
0.0
 11
40.340416253216461
 21
27.300140504741929
 31
0.0
  0
LINE
  5
15C
  8
0
 62
     0
 10
43.840480288590811
 20
30.80020454011634
 30
0.0
 11
45.500200481973927
 21
32.459924733499413
 31
0.0
  0
LINE
  5
15D
  8
0
 62
     0
 10
25.250306782044682
 20
12.21003103357015
 30
0.0
 11
26.75030864625365
 21
13.71003289777911
 31
0.0
  0
LINE
  5
15E
  8
0
 62
     0
 10
37.756459520168363
 20
25.60006724817703
 30
0.0
 11
39.456532770981909
 21
27.300140498990569
 31
0.0
  0
LINE
  5
15F
  8
0
 62
     0
 10
42.95659681785903
 20
30.8002045458677
 30
0.0
 11
45.500200331280347
 21
33.343808059289067
 31
0.0
  0
LINE
  5
160
  8
0
 62
     0
 10
25.250306519285029
 20
13.093914247293689
 30
0.0
 11
26.750308909012261
 21
14.59391663702092
 31
0.0
  0
LINE
  5
161
  8
0
 62
     0
 10
36.872576043686017
 20
25.60006724817794
 30
0.0
 11
38.5726492887473
 21
27.300140493239159
 31
0.0
  0
LINE
  5
162
  8
0
 62
     0
 10
42.072713347127262
 20
30.800204551619121
 30
0.0
 11
45.50020018058683
 21
34.227691385078693
 31
0.0
  0
LINE
  5
163
  8
0
 62
     0
 10
25.250306256525391
 20
13.977797461017239
 30
0.0
 11
26.750309171770819
 21
15.47780037626273
 31
0.0
  0
LINE
  5
164
  8
0
 62
     0
 10
35.988692567203657
 20
25.600067248178728
 30
0.0
 11
37.759838615036927
 21
27.371213296011941
 31
0.0
  0
LINE
  5
165
  8
0
 62
     0
 10
41.188829876395459
 20
30.800204557370481
 30
0.0
 11
45.500200029893222
 21
35.111574710868297
 31
0.0
  0
LINE
  5
166
  8
0
 62
     0
 10
25.250305993765672
 20
14.86168067474074
 30
0.0
 11
26.75030943452947
 21
16.361684115504492
 31
0.0
  0
LINE
  5
167
  8
0
 62
     0
 10
35.104809090721318
 20
25.600067248179531
 30
0.0
 11
37.279336040363411
 21
27.77459419782161
 31
0.0
  0
LINE
  5
168
  8
0
 62
     0
 10
40.304946405663678
 20
30.800204563121898
 30
0.0
 11
45.500199879199641
 21
35.995458036657851
 31
0.0
  0
LINE
  5
169
  8
0
 62
     0
 10
25.25030573100597
 20
15.74556388846417
 30
0.0
 11
26.750309697288031
 21
17.245567854746241
 31
0.0
  0
LINE
  5
16A
  8
0
 62
     0
 10
34.220925614239043
 20
25.600067248180441
 30
0.0
 11
37.130100827648789
 21
28.509242461590251
 31
0.0
  0
LINE
  5
16B
  8
0
 62
     0
 10
28.921157404034659
 20
20.30029903797606
 30
0.0
 11
29.750029925021241
 21
21.129171558962639
 31
0.0
  0
LINE
  5
16C
  8
0
 62
     0
 10
39.421062934931911
 20
30.800204568873308
 30
0.0
 11
45.500199728506118
 21
36.879341362447519
 31
0.0
  0
LINE
  5
16D
  8
0
 62
     0
 10
25.250305468246331
 20
16.629447102187719
 30
0.0
 11
26.7503099600466
 21
18.129451593988051
 31
0.0
  0
LINE
  5
16E
  8
0
 62
     0
 10
33.337042137756612
 20
25.600067248181229
 30
0.0
 11
37.130099905705833
 21
29.393125016130451
 31
0.0
  0
LINE
  5
16F
  8
0
 62
     0
 10
28.03701342345062
 20
20.300038533875242
 30
0.0
 11
29.49465612922722
 21
21.757681239651841
 31
0.0
  0
LINE
  5
170
  8
0
 62
     0
 10
38.537179464200108
 20
30.800204574624789
 30
0.0
 11
45.500199577812509
 21
37.763224688237131
 31
0.0
  0
LINE
  5
171
  8
0
 62
     0
 10
25.250305205486601
 20
17.513330315911219
 30
0.0
 11
26.75031022280524
 21
19.013335333229861
 31
0.0
  0
LINE
  5
172
  8
0
 62
     0
 10
27.153125621853629
 20
20.30003420876147
 30
0.0
 11
28.853134165011738
 21
22.00004275191958
 31
0.0
  0
LINE
  5
173
  8
0
 62
     0
 10
32.453158661274301
 20
25.600067248182139
 30
0.0
 11
45.500199427118901
 21
38.647108014026799
 31
0.0
  0
LINE
  5
174
  8
0
 62
     0
 10
25.250304942726931
 20
18.397213529634769
 30
0.0
 11
26.75031048556383
 21
19.897219072471671
 31
0.0
  0
LINE
  5
175
  8
0
 62
     0
 10
31.569275184791991
 20
25.600067248182999
 30
0.0
 11
45.500199276425398
 21
39.53099133981636
 31
0.0
  0
LINE
  5
176
  8
0
 62
     0
 10
25.250304679967321
 20
19.281096743358258
 30
0.0
 11
27.969247723249278
 21
22.00003978664023
 31
0.0
  0
LINE
  5
177
  8
0
 62
     0
 10
30.685391708309631
 20
25.600067248183851
 30
0.0
 11
32.385373397751039
 21
27.30004893762526
 31
0.0
  0
LINE
  5
178
  8
0
 62
     0
 10
33.630264540199512
 20
28.544940080073729
 30
0.0
 11
45.50019912573179
 21
40.414874665606021
 31
0.0
  0
LINE
  5
179
  8
0
 62
     0
 10
25.2189286104221
 20
20.133604150296271
 30
0.0
 11
27.085361281486708
 21
22.000036821360929
 31
0.0
  0
LINE
  5
17A
  8
0
 62
     0
 10
33.630265470324161
 20
29.428824486681521
 30
0.0
 11
39.701691091908287
 21
35.500250108265647
 31
0.0
  0
LINE
  5
17B
  8
0
 62
     0
 10
29.801508231827309
 20
25.600067248184669
 30
0.0
 11
31.501489921267929
 21
27.300048937625292
 31
0.0
  0
LINE
  5
17C
  8
0
 62
     0
 10
40.500197854974139
 20
36.298756871331513
 30
0.0
 11
45.500198975038181
 21
41.29875799139554
 31
0.0
  0
LINE
  5
17D
  8
0
 62
     0
 10
24.501476885168358
 20
20.300035901525721
 30
0.0
 11
26.75031018886909
 21
22.548869205226449
 31
0.0
  0
LINE
  5
17E
  8
0
 62
     0
 10
33.537747347711822
 20
30.22018984055234
 30
0.0
 11
38.817807180359381
 21
35.500249673199903
 31
0.0
  0
LINE
  5
17F
  8
0
 62
     0
 10
28.917624755344971
 20
25.6000672481855
 30
0.0
 11
30.617606444784911
 21
27.300048937625441
 31
0.0
  0
LINE
  5
180
  8
0
 62
     0
 10
40.50019825757127
 20
37.182640750411792
 30
0.0
 11
45.500198824344658
 21
42.182641317185187
 31
0.0
  0
LINE
  5
181
  8
0
 62
     0
 10
23.617597733050019
 20
20.300040225890541
 30
0.0
 11
26.75030902640632
 21
23.432751519246839
 31
0.0
  0
LINE
  5
182
  8
0
 62
     0
 10
28.033741278862639
 20
25.600067248186349
 30
0.0
 11
29.73372296830183
 21
27.300048937625551
 31
0.0
  0
LINE
  5
183
  8
0
 62
     0
 10
33.110766288523678
 20
30.677092257847391
 30
0.0
 11
37.933923268810467
 21
35.500249238134188
 31
0.0
  0
LINE
  5
184
  8
0
 62
     0
 10
25.2503048135132
 20
22.81663078283691
 30
0.0
 11
26.75030786394348
 21
24.31663383326719
 31
0.0
  0
LINE
  5
185
  8
0
 62
     0
 10
40.500198660168387
 20
38.066524629492108
 30
0.0
 11
45.500198673651077
 21
43.066524642974798
 31
0.0
  0
LINE
  5
186
  8
0
 62
     0
 10
22.791633695047441
 20
20.357959664371151
 30
0.0
 11
24.43371246723575
 21
22.000038436559471
 31
0.0
  0
LINE
  5
187
  8
0
 62
     0
 10
25.250305407665511
 20
23.700514853472409
 30
0.0
 11
28.849839491818781
 21
27.300048937625689
 31
0.0
  0
LINE
  5
188
  8
0
 62
     0
 10
32.349888292008593
 20
30.800097737815491
 30
0.0
 11
37.050039357261539
 21
35.500248803068452
 31
0.0
  0
LINE
  5
189
  8
0
 62
     0
 10
22.33317285578903
 20
20.783382301595939
 30
0.0
 11
23.549831955522158
 21
22.000041401329071
 31
0.0
  0
LINE
  5
18A
  8
0
 62
     0
 10
40.500199062765539
 20
38.950408508572451
 30
0.0
 11
45.500198522957469
 21
43.950407968764381
 31
0.0
  0
LINE
  5
18B
  8
0
 62
     0
 10
1.5585530735710329
 20
0.0087625193779672
 30
0.0
 11
1.691239905533336
 21
0.1414493513402704
 31
0.0
  0
LINE
  5
18C
  8
0
 62
     0
 10
31.466004727462039
 20
30.800097649752111
 30
0.0
 11
36.166155445712633
 21
35.500248368002701
 31
0.0
  0
LINE
  5
18D
  8
0
 62
     0
 10
25.250306001817851
 20
24.584398924107969
 30
0.0
 11
27.96595601533571
 21
27.300048937625782
 31
0.0
  0
LINE
  5
18E
  8
0
 62
     0
 10
40.500199465362613
 20
39.834292387652738
 30
0.0
 11
45.500198372263952
 21
44.834291294554021
 31
0.0
  0
LINE
  5
18F
  8
0
 62
     0
 10
0.8259082577891376
 20
0.1600011800792345
 30
0.0
 11
1.7000023325495299
 21
1.0340952548395981
 31
0.0
  0
LINE
  5
190
  8
0
 62
     0
 10
30.582121162915541
 20
30.800097561688801
 30
0.0
 11
35.282271534163669
 21
35.500247932936929
 31
0.0
  0
LINE
  5
191
  8
0
 62
     0
 10
25.250306595970191
 20
25.468282994743511
 30
0.0
 11
27.082072538852689
 21
27.300048937625949
 31
0.0
  0
LINE
  5
192
  8
0
 62
     0
 10
40.50019986795985
 20
40.718176266733103
 30
0.0
 11
45.500198221570372
 21
45.718174620343632
 31
0.0
  0
LINE
  5
193
  8
0
 62
     0
 10
0.3359668060828653
 20
0.5539432048561537
 30
0.0
 11
1.700002331750823
 21
1.9179787305241121
 31
0.0
  0
LINE
  5
194
  8
0
 62
     0
 10
29.698237598368959
 20
30.800097473625421
 30
0.0
 11
34.398387622614727
 21
35.500247497871193
 31
0.0
  0
LINE
  5
195
  8
0
 62
     0
 10
25.250307190122498
 20
26.35216706537901
 30
0.0
 11
26.198189062369579
 21
27.30004893762603
 31
0.0
  0
LINE
  5
196
  8
0
 62
     0
 10
40.500200270556938
 20
41.602060145813397
 30
0.0
 11
45.500198070876763
 21
46.602057946133272
 31
0.0
  0
LINE
  5
197
  8
0
 62
     0
 10
0.0427170626712155
 20
1.144576937927666
 30
0.0
 11
1.7000023309520591
 21
2.801862206208539
 31
0.0
  0
LINE
  5
198
  8
0
 62
     0
 10
28.814354033822411
 20
30.800097385562029
 30
0.0
 11
33.514503711065828
 21
35.500247062805443
 31
0.0
  0
LINE
  5
199
  8
0
 62
     0
 10
7.3173267858469151
 20
9.3030701375865306
 30
0.0
 11
7.9970909787310509
 21
9.9828343304706664
 31
0.0
  0
LINE
  5
19A
  8
0
 62
     0
 10
40.500200673154069
 20
42.485944024893683
 30
0.0
 11
45.50019792018324
 21
47.485941271922847
 31
0.0
  0
LINE
  5
19B
  8
0
 62
     0
 10
-0.000000347499423
 20
1.9857430042402191
 30
0.0
 11
1.7000023301533811
 21
3.6857456818930241
 31
0.0
  0
LINE
  5
19C
  8
0
 62
     0
 10
27.930470469275861
 20
30.80009729749872
 30
0.0
 11
32.630619799516921
 21
35.500246627739777
 31
0.0
  0
LINE
  5
19D
  8
0
 62
     0
 10
6.686082784376822
 20
9.5557096125996281
 30
0.0
 11
8.0001094398703572
 21
10.86973626809322
 31
0.0
  0
LINE
  5
19E
  8
0
 62
     0
 10
40.500201075751193
 20
43.369827903973992
 30
0.0
 11
45.50019776948966
 21
48.369824597712459
 31
0.0
  0
LINE
  5
19F
  8
0
 62
     0
 10
-0.0000002751101249
 20
2.8696265531127092
 30
0.0
 11
1.700002329354674
 21
4.5696291575775367
 31
0.0
  0
LINE
  5
1A0
  8
0
 62
     0
 10
27.046586904729342
 20
30.800097209435389
 30
0.0
 11
31.74673588796799
 21
35.500246192673991
 31
0.0
  0
LINE
  5
1A1
  8
0
 62
     0
 10
6.5001089988152776
 20
10.253619303521271
 30
0.0
 11
8.0001097050087537
 21
11.75362000971481
 31
0.0
  0
LINE
  5
1A2
  8
0
 62
     0
 10
40.500201478348281
 20
44.253711783054278
 30
0.0
 11
45.49610692034247
 21
49.249617225048517
 31
0.0
  0
LINE
  5
1A3
  8
0
 62
     0
 10
-0.0000002027207984
 20
3.7535101019851989
 30
0.0
 11
1.7000023285559669
 21
5.4535126332619646
 31
0.0
  0
LINE
  5
1A4
  8
0
 62
     0
 10
26.162703340182791
 20
30.800097121371952
 30
0.0
 11
30.86285197641903
 21
35.500245757608241
 31
0.0
  0
LINE
  5
1A5
  8
0
 62
     0
 10
6.50010873367708
 20
11.13750251486624
 30
0.0
 11
8.0001099701471219
 21
12.637503751336279
 31
0.0
  0
LINE
  5
1A6
  8
0
 62
     0
 10
40.500201880945411
 20
45.137595662134572
 30
0.0
 11
44.862850468935932
 21
49.500244250125093
 31
0.0
  0
LINE
  5
1A7
  8
0
 62
     0
 10
-0.0000001303314718
 20
4.6373936508577174
 30
0.0
 11
1.7000023277572891
 21
6.3373961089464501
 31
0.0
  0
LINE
  5
1A8
  8
0
 62
     0
 10
25.27881977563629
 20
30.800097033308649
 30
0.0
 11
26.978973095968399
 21
32.500250353640808
 31
0.0
  0
LINE
  5
1A9
  8
0
 62
     0
 10
27.500228708172699
 20
33.021505965845051
 30
0.0
 11
29.97896806487018
 21
35.500245322542533
 31
0.0
  0
LINE
  5
1AA
  8
0
 62
     0
 10
6.5001084685389401
 20
12.021385726211291
 30
0.0
 11
8.00011023528549
 21
13.521387492957841
 31
0.0
  0
LINE
  5
1AB
  8
0
 62
     0
 10
40.500202283542592
 20
46.021479541214937
 30
0.0
 11
43.97896699245279
 21
49.500244250125142
 31
0.0
  0
LINE
  5
1AC
  8
0
 62
     0
 10
-0.0000000579421169
 20
5.5212771997302346
 30
0.0
 11
1.700002326958554
 21
7.2212795846309064
 31
0.0
  0
LINE
  5
1AD
  8
0
 62
     0
 10
24.394936211089661
 20
30.80009694524523
 30
0.0
 11
26.09508961948524
 21
32.500250353640872
 31
0.0
  0
LINE
  5
1AE
  8
0
 62
     0
 10
27.500230956016079
 20
33.905391690171662
 30
0.0
 11
29.095084153321238
 21
35.500244887476811
 31
0.0
  0
LINE
  5
1AF
  8
0
 62
     0
 10
6.5001082034006572
 20
12.90526893755623
 30
0.0
 11
8.0001105004238298
 21
14.4052712345794
 31
0.0
  0
LINE
  5
1B0
  8
0
 62
     0
 10
40.500202686139687
 20
46.905363420295309
 30
0.0
 11
43.09508351596957
 21
49.500244250125142
 31
0.0
  0
LINE
  5
1B1
  8
0
 62
     0
 10
0.0000000144471528
 20
6.4051607486027251
 30
0.0
 11
1.7000023261598469
 21
8.1051630603154194
 31
0.0
  0
LINE
  5
1B2
  8
0
 62
     0
 10
23.511052646543138
 20
30.800096857181899
 30
0.0
 11
25.21120614300202
 21
32.50025035364078
 31
0.0
  0
LINE
  5
1B3
  8
0
 62
     0
 10
27.500233203859299
 20
34.789277414498059
 30
0.0
 11
28.21120024177231
 21
35.500244452411067
 31
0.0
  0
LINE
  5
1B4
  8
0
 62
     0
 10
6.500107938262488
 20
13.78915214890125
 30
0.0
 11
8.0001107655621695
 21
15.28915497620093
 31
0.0
  0
LINE
  5
1B5
  8
0
 62
     0
 10
40.500203088736782
 20
47.789247299375603
 30
0.0
 11
42.211200039486357
 21
49.500244250125121
 31
0.0
  0
LINE
  5
1B6
  8
0
 62
     0
 10
0.0000000868364509
 20
7.2890442974752707
 30
0.0
 11
1.700002325361083
 21
8.9890465359998473
 31
0.0
  0
LINE
  5
1B7
  8
0
 62
     0
 10
22.627169081996609
 20
30.800096769118571
 30
0.0
 11
24.520063728945161
 21
32.692991416067059
 31
0.0
  0
LINE
  5
1B8
  8
0
 62
     0
 10
6.5001076731242611
 20
14.673035360246219
 30
0.0
 11
8.0001110307005661
 21
16.173038717822461
 31
0.0
  0
LINE
  5
1B9
  8
0
 62
     0
 10
40.500203491333991
 20
48.67313117845589
 30
0.0
 11
41.327316563003187
 21
49.500244250125142
 31
0.0
  0
LINE
  5
1BA
  8
0
 62
     0
 10
0.0000001592258627
 20
8.1729278463477613
 30
0.0
 11
1.7000023245623761
 21
9.8729300116843302
 31
0.0
  0
LINE
  5
1BB
  8
0
 62
     0
 10
6.5001074079860919
 20
15.556918571591209
 30
0.0
 11
8.0001112958389058
 21
17.056922459444021
 31
0.0
  0
LINE
  5
1BC
  8
0
 62
     0
 10
21.74328551745009
 20
30.800096681055209
 30
0.0
 11
24.500232324375649
 21
33.557043487980764
 31
0.0
  0
LINE
  5
1BD
  8
0
 62
     0
 10
0.0000002316151608
 20
9.0568113952202793
 30
0.0
 11
1.700002323763669
 21
10.75681348736884
 31
0.0
  0
LINE
  5
1BE
  8
0
 62
     0
 10
10.39559522942039
 20
20.336289869508761
 30
0.0
 11
10.963840729230689
 21
20.90453536931901
 31
0.0
  0
LINE
  5
1BF
  8
0
 62
     0
 10
6.5001071428478658
 20
16.44080178293623
 30
0.0
 11
8.0001115609772455
 21
17.940806201065609
 31
0.0
  0
LINE
  5
1C0
  8
0
 62
     0
 10
20.859401952903511
 20
30.800096592991881
 30
0.0
 11
24.500230076543691
 21
34.440924716631997
 31
0.0
  0
LINE
  5
1C1
  8
0
 62
     0
 10
0.0000003040044021
 20
9.9406949440927672
 30
0.0
 11
1.7000023229649619
 21
11.640696963053269
 31
0.0
  0
LINE
  5
1C2
  8
0
 62
     0
 10
9.4754821536977811
 20
20.300060270269281
 30
0.0
 11
10.832383775026241
 21
21.656961891597749
 31
0.0
  0
LINE
  5
1C3
  8
0
 62
     0
 10
6.5001068777096966
 20
17.324684994281199
 30
0.0
 11
8.0001118261155852
 21
18.82468994268714
 31
0.0
  0
LINE
  5
1C4
  8
0
 62
     0
 10
19.975518388356988
 20
30.80009650492849
 30
0.0
 11
24.481093141514691
 21
35.305671258086193
 31
0.0
  0
LINE
  5
1C5
  8
0
 62
     0
 10
0.0000003763937571
 20
10.82457849296526
 30
0.0
 11
1.7000023221661991
 21
12.524580438737701
 31
0.0
  0
LINE
  5
1C6
  8
0
 62
     0
 10
8.5916016296834528
 20
20.300063222738121
 30
0.0
 11
10.28139140149403
 21
21.989852994548698
 31
0.0
  0
LINE
  5
1C7
  8
0
 62
     0
 10
6.5001066125715283
 20
18.208568205626189
 30
0.0
 11
8.0001120912539818
 21
19.7085736843087
 31
0.0
  0
LINE
  5
1C8
  8
0
 62
     0
 10
19.091634823810459
 20
30.800096416865131
 30
0.0
 11
23.79178271079741
 21
35.500244303852071
 31
0.0
  0
LINE
  5
1C9
  8
0
 62
     0
 10
0.0000004487830552
 20
11.70846204183772
 30
0.0
 11
1.700002321367549
 21
13.40846391442221
 31
0.0
  0
LINE
  5
1CA
  8
0
 62
     0
 10
6.5001063474333023
 20
19.092451416971208
 30
0.0
 11
9.4077139263592926
 21
22.000058995897149
 31
0.0
  0
LINE
  5
1CB
  8
0
 62
     0
 10
18.20775125926388
 20
30.80009632880174
 30
0.0
 11
22.907899350580241
 21
35.500244420118086
 31
0.0
  0
LINE
  5
1CC
  8
0
 62
     0
 10
0.0000005211724101
 20
12.592345590710259
 30
0.0
 11
1.7000023205688419
 21
14.2923473901067
 31
0.0
  0
LINE
  5
1CD
  8
0
 62
     0
 10
6.5001060822950762
 20
19.976334628316181
 30
0.0
 11
8.5238314345393178
 21
22.000059980560358
 31
0.0
  0
LINE
  5
1CE
  8
0
 62
     0
 10
17.323867694717361
 20
30.800096240738409
 30
0.0
 11
22.024015990363068
 21
35.500244536384123
 31
0.0
  0
LINE
  5
1CF
  8
0
 62
     0
 10
0.0000005935617082
 20
13.476229139582751
 30
0.0
 11
1.700002319770078
 21
15.176230865791119
 31
0.0
  0
LINE
  5
1D0
  8
0
 62
     0
 10
5.9399521736767724
 20
20.30006419618104
 30
0.0
 11
7.6399489427193989
 21
22.000060965223671
 31
0.0
  0
LINE
  5
1D1
  8
0
 62
     0
 10
16.439984130170782
 20
30.800096152675049
 30
0.0
 11
21.140132630145899
 21
35.500244652650167
 31
0.0
  0
LINE
  5
1D2
  8
0
 62
     0
 10
0.0000006659510632
 20
14.360112688455271
 30
0.0
 11
1.7000023189713711
 21
16.060114341475639
 31
0.0
  0
LINE
  5
1D3
  8
0
 62
     0
 10
5.0560686972459052
 20
20.300064196233311
 30
0.0
 11
6.756066450899481
 21
22.000061949886881
 31
0.0
  0
LINE
  5
1D4
  8
0
 62
     0
 10
15.556100565624259
 20
30.800096064611719
 30
0.0
 11
20.25624926992873
 21
35.50024476891619
 31
0.0
  0
LINE
  5
1D5
  8
0
 62
     0
 10
0.0000007383403613
 20
15.243996237327821
 30
0.0
 11
1.700002318172664
 21
16.943997817160071
 31
0.0
  0
LINE
  5
1D6
  8
0
 62
     0
 10
4.1721852208150381
 20
20.300064196285629
 30
0.0
 11
5.8721839590795071
 21
22.000062934550101
 31
0.0
  0
LINE
  5
1D7
  8
0
 62
     0
 10
14.67221700107774
 20
30.800095976548342
 30
0.0
 11
19.372365909711501
 21
35.500244885182163
 31
0.0
  0
LINE
  5
1D8
  8
0
 62
     0
 10
0.0000008107297162
 20
16.12787978620031
 30
0.0
 11
1.7000023173739569
 21
17.827881292844548
 31
0.0
  0
LINE
  5
1D9
  8
0
 62
     0
 10
3.2883017443842841
 20
20.300064196338042
 30
0.0
 11
4.9883014672595891
 21
22.00006391921335
 31
0.0
  0
LINE
  5
1DA
  8
0
 62
     0
 10
13.78833343653122
 20
30.800095888484972
 30
0.0
 11
18.488482549494389
 21
35.500245001448206
 31
0.0
  0
LINE
  5
1DB
  8
0
 62
     0
 10
0.0000008831190712
 20
17.011763335072828
 30
0.0
 11
1.7000023165753071
 21
18.711764768529061
 31
0.0
  0
LINE
  5
1DC
  8
0
 62
     0
 10
2.4044182679533601
 20
20.300064196390309
 30
0.0
 11
4.1044189754396143
 21
22.000064903876559
 31
0.0
  0
LINE
  5
1DD
  8
0
 62
     0
 10
12.904449871984641
 20
30.800095800421591
 30
0.0
 11
17.60459918927722
 21
35.500245117714172
 31
0.0
  0
LINE
  5
1DE
  8
0
 62
     0
 10
0.0000009555083125
 20
17.895646883945322
 30
0.0
 11
1.700002315776544
 21
19.595648244213489
 31
0.0
  0
LINE
  5
1DF
  8
0
 62
     0
 10
12.02056630743806
 20
30.8000957123582
 30
0.0
 11
16.720715829060051
 21
35.500245233980202
 31
0.0
  0
LINE
  5
1E0
  8
0
 62
     0
 10
0.0000010278976674
 20
18.779530432817811
 30
0.0
 11
3.2205364836196391
 21
22.00006588853978
 31
0.0
  0
LINE
  5
1E1
  8
0
 62
     0
 10
11.13668274289153
 20
30.800095624294901
 30
0.0
 11
15.836832468842999
 21
35.500245350246303
 31
0.0
  0
LINE
  5
1E2
  8
0
 62
     0
 10
0.0000011002869655
 20
19.663413981690319
 30
0.0
 11
2.336653991799778
 21
22.000066873203082
 31
0.0
  0
LINE
  5
1E3
  8
0
 62
     0
 10
10.252799178345009
 20
30.800095536231542
 30
0.0
 11
14.95294910862577
 21
35.500245466512297
 31
0.0
  0
LINE
  5
1E4
  8
0
 62
     0
 10
0.0000011726763205
 20
20.54729753056284
 30
0.0
 11
1.7040465609565549
 21
22.25134291884314
 31
0.0
  0
LINE
  5
1E5
  8
0
 62
     0
 10
9.3689156137984355
 20
30.800095448168211
 30
0.0
 11
14.069065748408599
 21
35.500245582778319
 31
0.0
  0
LINE
  5
1E6
  8
0
 62
     0
 10
0.0000012450656186
 20
21.43118107943533
 30
0.0
 11
1.700063350567347
 21
23.131243184937059
 31
0.0
  0
LINE
  5
1E7
  8
0
 62
     0
 10
8.4850320492519682
 20
30.80009536010482
 30
0.0
 11
13.18518238819143
 21
35.500245699044342
 31
0.0
  0
LINE
  5
1E8
  8
0
 62
     0
 10
0.0000013174549736
 20
22.31506462830783
 30
0.0
 11
1.700063350567347
 21
24.015126661420251
 31
0.0
  0
LINE
  5
1E9
  8
0
 62
     0
 10
7.6011484847053898
 20
30.800095272041521
 30
0.0
 11
12.30129902797427
 21
35.500245815310393
 31
0.0
  0
LINE
  5
1EA
  8
0
 62
     0
 10
0.0000013898442717
 20
23.198948177180341
 30
0.0
 11
1.700063350567347
 21
24.899010137903421
 31
0.0
  0
LINE
  5
1EB
  8
0
 62
     0
 10
6.7172649201588683
 20
30.800095183978129
 30
0.0
 11
11.417415667757099
 21
35.500245931576359
 31
0.0
  0
LINE
  5
1EC
  8
0
 62
     0
 10
0.0000014622335698
 20
24.082831726052831
 30
0.0
 11
1.700063350567347
 21
25.782893614386609
 31
0.0
  0
LINE
  5
1ED
  8
0
 62
     0
 10
5.8333813556123451
 20
30.800095095914742
 30
0.0
 11
10.53353230753998
 21
35.500246047842381
 31
0.0
  0
LINE
  5
1EE
  8
0
 62
     0
 10
0.0000015346228679
 20
24.966715274925321
 30
0.0
 11
1.700063350567347
 21
26.6667770908698
 31
0.0
  0
LINE
  5
1EF
  8
0
 62
     0
 10
4.9494977910657658
 20
30.800095007851379
 30
0.0
 11
9.6496489473227598
 21
35.500246164108368
 31
0.0
  0
LINE
  5
1F0
  8
0
 62
     0
 10
0.0000016070122228
 20
25.850598823797899
 30
0.0
 11
1.700063350567347
 21
27.550660567352971
 31
0.0
  0
LINE
  5
1F1
  8
0
 62
     0
 10
4.0656142265191866
 20
30.800094919788052
 30
0.0
 11
8.7657655871056477
 21
35.500246280374462
 31
0.0
  0
LINE
  5
1F2
  8
0
 62
     0
 10
0.000001679401521
 20
26.734482372670328
 30
0.0
 11
1.700063350567347
 21
28.434544043836159
 31
0.0
  0
LINE
  5
1F3
  8
0
 62
     0
 10
3.181730661972721
 20
30.80009483172466
 30
0.0
 11
7.8818822268885347
 21
35.500246396640478
 31
0.0
  0
LINE
  5
1F4
  8
0
 62
     0
 10
0.0000017517909328
 20
27.618365921542878
 30
0.0
 11
1.700063350567347
 21
29.31842752031935
 31
0.0
  0
LINE
  5
1F5
  8
0
 62
     0
 10
2.2978470974261418
 20
30.800094743661361
 30
0.0
 11
6.9979988666713089
 21
35.500246512906472
 31
0.0
  0
LINE
  5
1F6
  8
0
 62
     0
 10
0.0000018241802309
 20
28.502249470415389
 30
0.0
 11
1.700063350567347
 21
30.20231099680251
 31
0.0
  0
LINE
  5
1F7
  8
0
 62
     0
 10
0.0000018965694721
 20
29.386133019287819
 30
0.0
 11
6.1141155064541399
 21
35.500246629172501
 31
0.0
  0
LINE
  5
1F8
  8
0
 62
     0
 10
0.0000019689588839
 20
30.270016568160369
 30
0.0
 11
5.230232146236971
 21
35.500246745438517
 31
0.0
  0
LINE
  5
1F9
  8
0
 62
     0
 10
0.000002041348182
 20
31.15390011703289
 30
0.0
 11
4.346348786019802
 21
35.500246861704511
 31
0.0
  0
LINE
  5
1FA
  8
0
 62
     0
 10
0.0000021137374802
 20
32.03778366590538
 30
0.0
 11
3.4624654258026331
 21
35.500246977970527
 31
0.0
  0
LINE
  5
1FB
  8
0
 62
     0
 10
0.0000021861268351
 20
32.92166721477787
 30
0.0
 11
2.5785820655855209
 21
35.500247094236563
 31
0.0
  0
LINE
  5
1FC
  8
0
 62
     0
 10
0.0000022585161332
 20
33.805550763650388
 30
0.0
 11
1.694698705368352
 21
35.500247210502607
 31
0.0
  0
LINE
  5
1FD
  8
0
 62
     0
 10
0.0227097550695135
 20
34.712141736687038
 30
0.0
 11
0.7881078806070719
 21
35.477539862224553
 31
0.0
  0
ENDBLK
  5
1FF
  8
0
  0
ENDSEC
  0
SECTION
  2
ENTITIES
  0
ARC
  5
91
  8
0
 10
1078.807172266188
 20
740.09401528536557
 30
0.0
 40
0.5000000447035263
 50
269.99999995013047
 51
0.0174852829833494
  0
LINE
  5
92
  8
0
 10
1079.307169235851
 20
757.99405495821713
 30
0.0
 11
1079.3071722876091
 21
740.0941678732562
 31
0.0
  0
LINE
  5
93
  8
0
 10
1078.807172265753
 20
739.59401524066209
 30
0.0
 11
1071.9370710890371
 21
739.59401528536546
 31
0.0
  0
ARC
  5
94
  8
0
 10
1079.0071692358511
 20
757.99405495821713
 30
0.0
 40
0.2999999999999974
 50
0.0
 51
90.000002504503414
  0
ARC
  5
95
  8
0
 10
1071.9370710890371
 20
738.59401528536546
 30
0.0
 40
1.000000000000014
 50
90.0
 51
180.00005976296319
  0
LINE
  5
96
  8
0
 10
1074.6071753262529
 20
758.2940549582172
 30
0.0
 11
1079.007169222737
 21
758.2940549582172
 31
0.0
  0
LINE
  5
97
  8
0
 10
1070.937071089038
 20
738.59401424230498
 30
0.0
 11
1070.9370726536961
 21
737.09395015539098
 31
0.0
  0
ARC
  5
98
  8
0
 10
1074.607175339366
 20
757.99405495821713
 30
0.0
 40
0.2999999999999974
 50
90.000002504503414
 51
179.99999499103649
  0
ARC
  5
99
  8
0
 10
1071.9370726536949
 20
737.09395119845158
 30
0.0
 40
1.0000000000000031
 50
180.0000597629697
 51
270.0
  0
LINE
  5
9A
  8
0
 10
1074.307169235851
 20
744.59406106173265
 30
0.0
 11
1074.3071753393669
 21
757.99405498444389
 31
0.0
  0
LINE
  5
9B
  8
0
 10
1071.9370726536949
 20
736.09395119845158
 30
0.0
 11
1078.807172265753
 21
736.09395124315495
 31
0.0
  0
ARC
  5
9C
  8
0
 10
1074.0071692358511
 20
744.59406106173265
 30
0.0
 40
0.3000000000000114
 50
270.00001798609878
 51
0.0
  0
ARC
  5
9D
  8
0
 10
1078.8071722876091
 20
735.59395119845158
 30
0.0
 40
0.5000000447035125
 50
0.0242283277877867
 51
90.000002504468469
  0
LINE
  5
9E
  8
0
 10
1061.6072057723061
 20
744.29405495821709
 30
0.0
 11
1074.007169330026
 21
744.2940610617328
 31
0.0
  0
LINE
  5
9F
  8
0
 10
1079.3071722876091
 20
735.59416263051025
 30
0.0
 11
1079.3071734567391
 21
719.55580714641758
 31
0.0
  0
ARC
  5
A0
  8
0
 10
1061.607205856945
 20
743.99405495821713
 30
0.0
 40
0.3000000000000057
 50
90.00001616484704
 51
179.9999776881894
  0
ARC
  5
A1
  8
0
 10
1077.8071722876091
 20
719.55580727755296
 30
0.0
 40
1.5000013416133979
 50
284.47761479991362
 51
359.99999499099698
  0
LINE
  5
A2
  8
0
 10
1061.3071997534289
 20
741.5940610879328
 30
0.0
 11
1061.3072058569451
 21
743.9940550750415
 31
0.0
  0
ARC
  5
A3
  8
0
 10
1078.107175339366
 20
718.39391152559995
 30
0.0
 40
0.3000000268186262
 50
180.00000865142269
 51
284.47749663988571
  0
ARC
  5
A4
  8
0
 10
1061.0071997534289
 20
741.59406106173265
 30
0.0
 40
0.2999999999999841
 50
270.00000432571181
 51
0.0000050038392629
  0
LINE
  5
A5
  8
0
 10
1077.807175312548
 20
718.3939114803012
 30
0.0
 11
1077.8071692626729
 21
728.7938444131546
 31
0.0
  0
LINE
  5
A6
  8
0
 10
1058.6072058795939
 20
741.2940610617328
 30
0.0
 11
1061.0071997760781
 21
741.2940610617328
 31
0.0
  0
ARC
  5
A7
  8
0
 10
1077.5071692358511
 20
728.79384438692796
 30
0.0
 40
0.3000000268220629
 50
0.0000050088978632
 51
90.000002504503229
  0
ARC
  5
A8
  8
0
 10
1058.607205856945
 20
741.59406106173265
 30
0.0
 40
0.2999999999999838
 50
179.99999499103649
 51
270.00000432571181
  0
LINE
  5
A9
  8
0
 10
1077.507169222737
 20
729.09384441375005
 30
0.0
 11
1075.6571936127591
 21
729.09385346620536
 31
0.0
  0
LINE
  5
AA
  8
0
 10
1058.3071997534289
 20
743.99405498441706
 30
0.0
 11
1058.3072058569451
 21
741.59406108795963
 31
0.0
  0
ARC
  5
AB
  8
0
 10
1075.6571936499131
 20
729.94385354220151
 30
0.0
 40
0.850000075996008
 50
90.000002504477663
 51
269.99999749552228
  0
ARC
  5
AC
  8
0
 10
1058.0071997534289
 20
743.99405495821713
 30
0.0
 40
0.2999999999999841
 50
0.00000500383928
 51
89.999995674288215
  0
LINE
  5
AD
  8
0
 10
1075.6571936127591
 20
730.79385361819755
 30
0.0
 11
1077.507169222737
 21
730.79384741186368
 31
0.0
  0
LINE
  5
AE
  8
0
 10
1034.8069739988489
 20
744.29405800997495
 30
0.0
 11
1058.0071997760781
 21
744.29405495821709
 31
0.0
  0
ARC
  5
AF
  8
0
 10
1077.5071692358511
 20
731.09384743868577
 30
0.0
 40
0.3000000268220762
 50
269.99999749549681
 51
359.99999499616109
  0
ARC
  5
B0
  8
0
 10
1034.8069739233511
 20
743.29405800997495
 30
0.0
 40
1.0000000000000031
 50
89.999995674279546
 51
179.999994991043
  0
LINE
  5
B1
  8
0
 10
1077.8071692626729
 20
731.09384741248584
 30
0.0
 11
1077.80715702882
 21
733.39387804368585
 31
0.0
  0
LINE
  5
B2
  8
0
 10
1033.8069712206591
 20
710.29381364285587
 30
0.0
 11
1033.8069739233511
 21
743.29405809739774
 31
0.0
  0
ARC
  5
B3
  8
0
 10
1076.80715702882
 20
733.39387795626396
 30
0.0
 40
1.00000000000001
 50
0.000005008904835
 51
89.999995674279546
  0
ARC
  5
B4
  8
0
 10
1035.3069739233511
 20
710.29381386934995
 30
0.0
 40
1.5000027026923091
 50
180.00000865142101
 51
269.99985941957482
  0
LINE
  5
B5
  8
0
 10
1076.8071571043181
 20
734.39387795626396
 30
0.0
 11
1061.5572791746299
 21
734.39387795627863
 31
0.0
  0
ARC
  5
B6
  8
0
 10
1035.3069739233511
 20
708.99381081759213
 30
0.0
 40
0.2000000178921107
 50
269.99894564474772
 51
0.0000086514010356
  0
ARC
  5
B7
  8
0
 10
1061.5572790991321
 20
733.39387795626396
 30
0.0
 40
1.000000000014569
 50
89.999995674292563
 51
179.999994991043
  0
LINE
  5
B8
  8
0
 10
1035.5069739233511
 20
728.79387493073295
 30
0.0
 11
1035.5069739412429
 21
708.99381084779122
 31
0.0
  0
LINE
  5
B9
  8
0
 10
1060.557279099118
 20
733.39387804368675
 30
0.0
 11
1060.557282124068
 21
731.09384739338714
 31
0.0
  0
ARC
  5
BA
  8
0
 10
1035.8069739233511
 20
728.7938749045062
 30
0.0
 40
0.3000000000000975
 50
89.999995674288215
 51
179.99999499103649
  0
ARC
  5
BB
  8
0
 10
1060.8572821508899
 20
731.09384743868577
 30
0.0
 40
0.3000000268219444
 50
180.0000086514228
 51
269.99999749549681
  0
LINE
  5
BC
  8
0
 10
1040.0070899008761
 20
729.09387490425752
 30
0.0
 11
1035.806973946
 21
729.09387490450627
 31
0.0
  0
LINE
  5
BD
  8
0
 10
1060.8572821377761
 20
730.79384741186391
 30
0.0
 11
1062.7072576996729
 21
730.79385361819766
 31
0.0
  0
ARC
  5
BE
  8
0
 10
1040.007077683116
 20
728.7938749045062
 30
0.0
 40
0.3000000000001535
 50
359.99999995249277
 51
89.997666579754565
  0
ARC
  5
BF
  8
0
 10
1062.7072577368269
 20
729.94385354220151
 30
0.0
 40
0.850000075996207
 50
269.99999749552228
 51
90.000002504477663
  0
LINE
  5
C0
  8
0
 10
1040.307080667819
 20
718.84386258422808
 30
0.0
 11
1040.3070776831171
 21
728.79387490425745
 31
0.0
  0
LINE
  5
C1
  8
0
 10
1062.7072576996729
 20
729.09385346620525
 30
0.0
 11
1060.8572821377761
 21
729.09384441375005
 31
0.0
  0
ARC
  5
C2
  8
0
 10
1041.057080734874
 20
718.84386269747495
 30
0.0
 40
0.7500000670552816
 50
180.00000865141399
 51
359.99999499100232
  0
ARC
  5
C3
  8
0
 10
1060.8572821508899
 20
728.79384438692796
 30
0.0
 40
0.3000000268219625
 50
90.000002504503229
 51
179.9999913485772
  0
LINE
  5
C4
  8
0
 10
1041.8070837866319
 20
728.79387493073295
 30
0.0
 11
1041.807080801929
 21
718.84386263190731
 31
0.0
  0
LINE
  5
C5
  8
0
 10
1060.557282124068
 20
728.79384443222682
 30
0.0
 11
1060.557279166173
 21
718.84389314948533
 31
0.0
  0
ARC
  5
C6
  8
0
 10
1042.1070837866321
 20
728.7938749045062
 30
0.0
 40
0.3000000000000978
 50
89.999995674288215
 51
179.99999499103649
  0
ARC
  5
C7
  8
0
 10
1059.8072790991321
 20
718.84389321505296
 30
0.0
 40
0.7500000670409662
 50
180.00000865141399
 51
359.99999499099363
  0
LINE
  5
C8
  8
0
 10
1043.9570440766261
 20
729.09386872499476
 30
0.0
 11
1042.107083809281
 21
729.09387490450627
 31
0.0
  0
LINE
  5
C9
  8
0
 10
1059.0572790320909
 20
718.84389310180632
 30
0.0
 11
1059.057276074182
 21
728.7938444131546
 31
0.0
  0
ARC
  5
CA
  8
0
 10
1043.9570441137801
 20
729.94386880099057
 30
0.0
 40
0.8500000759958943
 50
269.99999749552228
 51
90.000002504477663
  0
ARC
  5
CB
  8
0
 10
1058.757276047374
 20
728.79384438692796
 30
0.0
 40
0.3000000268079932
 50
0.0000050088978632
 51
90.000002504503229
  0
LINE
  5
CC
  8
0
 10
1035.8070349811569
 20
730.79387795626394
 30
0.0
 11
1043.9570440766261
 21
730.79386887698649
 31
0.0
  0
LINE
  5
CD
  8
0
 10
1058.7572760342609
 20
729.09384441373595
 30
0.0
 11
1056.9069952485011
 21
729.0938534662057
 31
0.0
  0
ARC
  5
CE
  8
0
 10
1035.8070349585071
 20
731.09387795626401
 30
0.0
 40
0.3000000000000833
 50
179.99999499103649
 51
270.00000432571181
  0
ARC
  5
CF
  8
0
 10
1056.906995285656
 20
729.94385354220151
 30
0.0
 40
0.8500000759958943
 50
90.000002504477663
 51
269.99999749552228
  0
LINE
  5
D0
  8
0
 10
1035.5070349585069
 20
739.29390544831119
 30
0.0
 11
1035.5070349585069
 21
731.09387798249077
 31
0.0
  0
LINE
  5
D1
  8
0
 10
1056.9069952485011
 20
730.79385361819743
 30
0.0
 11
1058.7572760342609
 21
730.79384741186504
 31
0.0
  0
ARC
  5
D2
  8
0
 10
1035.8070349585071
 20
739.29390542208432
 30
0.0
 40
0.3000000000000942
 50
89.999995674288215
 51
179.99999499103649
  0
ARC
  5
D3
  8
0
 10
1058.757276047374
 20
731.09384743868577
 30
0.0
 40
0.3000000268208541
 50
269.99999749549681
 51
359.99999499616109
  0
LINE
  5
D4
  8
0
 10
1066.4372374689599
 20
739.59390847384213
 30
0.0
 11
1035.8070349811569
 21
739.59390542208439
 31
0.0
  0
LINE
  5
D5
  8
0
 10
1059.057276074195
 20
731.09384741248584
 30
0.0
 11
1059.0572790991309
 21
735.59385968942854
 31
0.0
  0
ARC
  5
D6
  8
0
 10
1066.4372374689599
 20
738.59390847384213
 30
0.0
 40
1.0
 50
359.99993970680242
 51
90.0
  0
ARC
  5
D7
  8
0
 10
1059.5572790991321
 20
735.59385964571709
 30
0.0
 40
0.5000000000009469
 50
89.999995674279546
 51
179.9999949910495
  0
LINE
  5
D8
  8
0
 10
1067.4372358904361
 20
737.09385859340216
 30
0.0
 11
1067.437237468959
 21
738.59390742152732
 31
0.0
  0
LINE
  5
D9
  8
0
 10
1059.5572791368811
 20
736.09385964571811
 30
0.0
 11
1066.4372358904361
 21
736.0938596457172
 31
0.0
  0
ARC
  5
DA
  8
0
 10
1066.4372358904361
 20
737.0938596457172
 30
0.0
 40
1.0
 50
270.0
 51
359.99993970679589
  0
ENDSEC
  0
EOF
