  0
SECTION
  2
HEADER
  9
$ACADVER
  1
AC1009
  9
$INSBASE
 10
0.0
 20
0.0
 30
0.0
  9
$EXTMIN
 10
629.67315844920608
 20
643.01660300257674
 30
-0.0015258207003583
  9
$EXTMAX
 10
673.34838994469999
 20
678.16117972410404
 30
0.0000000349246037
  9
$LIMMIN
 10
0.0
 20
0.0
  9
$LIMMAX
 10
420.0
 20
297.0
  9
$ORTHOMODE
 70
     0
  9
$REGENMODE
 70
     1
  9
$FILLMODE
 70
     1
  9
$QTEXTMODE
 70
     0
  9
$MIRRTEXT
 70
     0
  9
$DRAGMODE
 70
     2
  9
$LTSCALE
 40
1.0
  9
$OSMODE
 70
  3071
  9
$ATTMODE
 70
     1
  9
$TEXTSIZE
 40
2.5
  9
$TRACEWID
 40
1.0
  9
$TEXTSTYLE
  7
STANDARD
  9
$CLAYER
  8
0
  9
$CELTYPE
  6
BYLAYER
  9
$CECOLOR
 62
   256
  9
$DIMSCALE
 40
1.0
  9
$DIMASZ
 40
2.5
  9
$DIMEXO
 40
0.625
  9
$DIMDLI
 40
3.75
  9
$DIMRND
 40
0.0
  9
$DIMDLE
 40
0.0
  9
$DIMEXE
 40
1.25
  9
$DIMTP
 40
0.0
  9
$DIMTM
 40
0.0
  9
$DIMTXT
 40
2.5
  9
$DIMCEN
 40
2.5
  9
$DIMTSZ
 40
0.0
  9
$DIMTOL
 70
     0
  9
$DIMLIM
 70
     0
  9
$DIMTIH
 70
     0
  9
$DIMTOH
 70
     0
  9
$DIMSE1
 70
     0
  9
$DIMSE2
 70
     0
  9
$DIMTAD
 70
     1
  9
$DIMZIN
 70
     8
  9
$DIMBLK
  1

  9
$DIMASO
 70
     1
  9
$DIMSHO
 70
     1
  9
$DIMPOST
  1

  9
$DIMAPOST
  1

  9
$DIMALT
 70
     0
  9
$DIMALTD
 70
     3
  9
$DIMALTF
 40
0.03937007874016
  9
$DIMLFAC
 40
1.0
  9
$DIMTOFL
 70
     1
  9
$DIMTVP
 40
0.0
  9
$DIMTIX
 70
     0
  9
$DIMSOXD
 70
     0
  9
$DIMSAH
 70
     0
  9
$DIMBLK1
  1

  9
$DIMBLK2
  1

  9
$DIMSTYLE
  2
ISO-25
  9
$DIMCLRD
 70
     0
  9
$DIMCLRE
 70
     0
  9
$DIMCLRT
 70
     0
  9
$DIMTFAC
 40
1.0
  9
$DIMGAP
 40
0.625
  9
$LUNITS
 70
     2
  9
$LUPREC
 70
     4
  9
$SKETCHINC
 40
1.0
  9
$FILLETRAD
 40
0.0
  9
$AUNITS
 70
     0
  9
$AUPREC
 70
     0
  9
$MENU
  1
.
  9
$ELEVATION
 40
0.0
  9
$PELEVATION
 40
0.0
  9
$THICKNESS
 40
0.0
  9
$LIMCHECK
 70
     0
  9
$BLIPMODE
 70
     0
  9
$CHAMFERA
 40
0.0
  9
$CHAMFERB
 40
0.0
  9
$SKPOLY
 70
     0
  9
$TDCREATE
 40
2456371.673189526
  9
$TDUPDATE
 40
2456371.6749124308
  9
$TDINDWG
 40
0.0017234491
  9
$TDUSRTIMER
 40
0.0017234491
  9
$USRTIMER
 70
     1
  9
$ANGBASE
 50
0.0
  9
$ANGDIR
 70
     0
  9
$PDMODE
 70
     0
  9
$PDSIZE
 40
0.0
  9
$PLINEWID
 40
0.0
  9
$COORDS
 70
     1
  9
$SPLFRAME
 70
     0
  9
$SPLINETYPE
 70
     6
  9
$SPLINESEGS
 70
     8
  9
$ATTDIA
 70
     0
  9
$ATTREQ
 70
     1
  9
$HANDLING
 70
     1
  9
$HANDSEED
  5
FD
  9
$SURFTAB1
 70
     6
  9
$SURFTAB2
 70
     6
  9
$SURFTYPE
 70
     6
  9
$SURFU
 70
     6
  9
$SURFV
 70
     6
  9
$UCSNAME
  2

  9
$UCSORG
 10
0.0
 20
0.0
 30
0.0
  9
$UCSXDIR
 10
1.0
 20
0.0
 30
0.0
  9
$UCSYDIR
 10
0.0
 20
1.0
 30
0.0
  9
$PUCSNAME
  2

  9
$PUCSORG
 10
0.0
 20
0.0
 30
0.0
  9
$PUCSXDIR
 10
1.0
 20
0.0
 30
0.0
  9
$PUCSYDIR
 10
0.0
 20
1.0
 30
0.0
  9
$USERI1
 70
     0
  9
$USERI2
 70
     0
  9
$USERI3
 70
     0
  9
$USERI4
 70
     0
  9
$USERI5
 70
     0
  9
$USERR1
 40
0.0
  9
$USERR2
 40
0.0
  9
$USERR3
 40
0.0
  9
$USERR4
 40
0.0
  9
$USERR5
 40
0.0
  9
$WORLDVIEW
 70
     1
  9
$SHADEDGE
 70
     3
  9
$SHADEDIF
 70
    70
  9
$TILEMODE
 70
     1
  9
$MAXACTVP
 70
    64
  9
$PLIMCHECK
 70
     0
  9
$PEXTMIN
 10
0.0
 20
0.0
 30
0.0
  9
$PEXTMAX
 10
0.0
 20
0.0
 30
0.0
  9
$PLIMMIN
 10
0.0
 20
0.0
  9
$PLIMMAX
 10
12.0
 20
9.0
  9
$UNITMODE
 70
     0
  9
$VISRETAIN
 70
     1
  9
$PLINEGEN
 70
     0
  9
$PSLTSCALE
 70
     1
  0
ENDSEC
  0
SECTION
  2
TABLES
  0
TABLE
  2
VPORT
 70
     2
  0
VPORT
  2
*ACTIVE
 70
     0
 10
0.0
 20
0.0
 11
1.0
 21
1.0
 12
651.51077419695298
 22
660.58889136334051
 13
0.0
 23
0.0
 14
10.0
 24
10.0
 15
10.0
 25
10.0
 16
0.0
 26
0.0
 36
1.0
 17
0.0
 27
0.0
 37
0.0
 40
35.470492425281691
 41
2.3219814241486061
 42
50.0
 43
0.0
 44
0.0
 50
0.0
 51
0.0
 71
     0
 72
  1000
 73
     1
 74
     3
 75
     0
 76
     0
 77
     0
 78
     0
  0
ENDTAB
  0
TABLE
  2
LTYPE
 70
     1
  0
LTYPE
  2
CONTINUOUS
 70
     0
  3
Solid line
 72
    65
 73
     0
 40
0.0
  0
ENDTAB
  0
TABLE
  2
LAYER
 70
     1
  0
LAYER
  2
0
 70
     0
 62
     7
  6
CONTINUOUS
  0
ENDTAB
  0
TABLE
  2
STYLE
 70
     2
  0
STYLE
  2
STANDARD
 70
     0
 40
0.0
 41
1.0
 50
0.0
 71
     0
 42
2.5
  3
txt
  4

  0
STYLE
  2
ROMANT
 70
     0
 40
2.2999999999999989
 41
1.0
 50
15.0
 71
     0
 42
2.5
  3
romant.shx
  4

  0
ENDTAB
  0
TABLE
  2
VIEW
 70
     0
  0
ENDTAB
  0
TABLE
  2
UCS
 70
     0
  0
ENDTAB
  0
TABLE
  2
APPID
 70
     2
  0
APPID
  2
ACAD
 70
     0
  0
APPID
  2
DCO15
 70
     0
  0
ENDTAB
  0
TABLE
  2
DIMSTYLE
 70
     3
  0
DIMSTYLE
  2
ISO-25
 70
     0
  3

  4

  5

  6

  7

 40
1.0
 41
2.5
 42
0.625
 43
3.75
 44
1.25
 45
0.0
 46
0.0
 47
0.0
 48
0.0
140
2.5
141
2.5
142
0.0
143
0.03937007874016
144
1.0
145
0.0
146
1.0
147
0.625
 71
     0
 72
     0
 73
     0
 74
     0
 75
     0
 76
     0
 77
     1
 78
     8
170
     0
171
     3
172
     1
173
     0
174
     0
175
     0
176
     0
177
     0
178
     0
  0
DIMSTYLE
  2
STANDARD
 70
     0
  3

  4

  5

  6

  7

 40
1.0
 41
0.18
 42
0.0625
 43
0.38
 44
0.18
 45
0.0
 46
0.0
 47
0.0
 48
0.0
140
0.18
141
0.09
142
0.0
143
25.399999999999999
144
1.0
145
0.0
146
1.0
147
0.09
 71
     0
 72
     0
 73
     1
 74
     1
 75
     0
 76
     0
 77
     0
 78
     0
170
     0
171
     2
172
     0
173
     0
174
     0
175
     0
176
     0
177
     0
178
     0
  0
DIMSTYLE
  2
ISO-25_1_E_1
 70
     0
  3

  4

  5

  6

  7

 40
1.0
 41
2.5
 42
0.0
 43
3.75
 44
0.5
 45
0.0
 46
0.0
 47
0.0
 48
0.0
140
1.0
141
0.2
142
0.0
143
0.03937007874016
144
1.0
145
0.0
146
1.0
147
0.4
 71
     0
 72
     0
 73
     0
 74
     0
 75
     0
 76
     0
 77
     1
 78
     8
170
     0
171
     3
172
     0
173
     0
174
     0
175
     0
176
   242
177
   242
178
   242
  0
ENDTAB
  0
ENDSEC
  0
SECTION
  2
BLOCKS
  0
BLOCK
  8
0
  2
$MODEL_SPACE
 70
     0
 10
0.0
 20
0.0
 30
0.0
  3
$MODEL_SPACE
  1

  0
ENDBLK
  5
21
  8
0
  0
BLOCK
 67
     1
  8
0
  2
$PAPER_SPACE
 70
     0
 10
0.0
 20
0.0
 30
0.0
  3
$PAPER_SPACE
  1

  0
ENDBLK
  5
53
 67
     1
  8
0
  0
BLOCK
  8
0
  2
*U2
 70
     1
 10
0.0
 20
0.0
 30
0.0
  3
*U2
  1

  0
ARC
  5
B4
  8
0
 10
1.70008297623508
 20
0.300000155100804
 30
0.0
 40
0.3
 50
270.0
 51
0.0
  0
LINE
  5
B5
  8
0
 10
2.0000829762350341
 20
0.300000155100804
 30
0.0
 11
1.999995669961663
 21
19.999999543771079
 31
0.0
  0
LINE
  5
B6
  8
0
 10
0.3000829762349895
 20
0.0000001551007927
 30
0.0
 11
1.70008297623508
 21
0.0000001551007927
 31
0.0
  0
ARC
  5
B7
  8
0
 10
4.0003271168600341
 20
19.999756014475789
 30
0.0
 40
2.000331461722618
 50
90.006743901188784
 51
179.9930245556252
  0
ARC
  5
B8
  8
0
 10
0.3000829762349895
 20
0.300000155100804
 30
0.0
 40
0.3
 50
180.0
 51
270.0
  0
LINE
  5
B9
  8
0
 10
4.000091671286099
 20
22.000087462342091
 30
0.0
 11
38.000058963019228
 21
21.999949434172951
 31
0.0
  0
LINE
  5
BA
  8
0
 10
-0.0000000794474317
 20
19.999994102837832
 30
0.0
 11
0.0000829762350349
 21
0.300000155100804
 31
0.0
  0
ARC
  5
BB
  8
0
 10
37.999960905922542
 20
26.000091707835171
 30
0.0
 40
4.0001422748640882
 50
270.0014045144913
 51
359.99843113912777
  0
ARC
  5
BC
  8
0
 10
4.0003271168600341
 20
19.999756014475789
 30
0.0
 40
4.0003272033926676
 50
90.003369787739715
 51
179.9965899143719
  0
LINE
  5
BD
  8
0
 10
42.000103179287073
 20
25.999982176788539
 30
0.0
 11
42.000082976235042
 21
34.700000155100781
 31
0.0
  0
LINE
  5
BE
  8
0
 10
4.00009184205146
 20
24.000083210949761
 30
0.0
 11
38.00007836846919
 21
23.99995858903555
 31
0.0
  0
ARC
  5
BF
  8
0
 10
41.70008297623508
 20
34.700000155100781
 30
0.0
 40
0.3
 50
0.0
 51
90.0
  0
ARC
  5
C0
  8
0
 10
37.999960905922542
 20
26.000122225413289
 30
0.0
 40
2.000163639826845
 50
270.00336477878312
 51
359.996562682079
  0
LINE
  5
C1
  8
0
 10
40.300082976234982
 20
35.000000155100793
 30
0.0
 11
41.70008297623508
 21
35.000000155100793
 31
0.0
  0
LINE
  5
C2
  8
0
 10
40.000124542149933
 20
26.00000223056588
 30
0.0
 11
40.000082976235028
 21
34.700000155100781
 31
0.0
  0
ARC
  5
C3
  8
0
 10
40.300082976234982
 20
34.700000155100781
 30
0.0
 40
0.3
 50
90.0
 51
180.0
  0
ENDBLK
  5
C5
  8
0
  0
BLOCK
  8
0
  2
*X3
 70
     1
 10
0.0
 20
0.0
 30
0.0
  3
*X3
  1

  0
LINE
  5
C7
  8
0
 62
     0
 10
39.829704243437277
 20
22.442961187601838
 30
0.0
 11
41.5570914261558
 21
24.170348370320369
 31
0.0
  0
LINE
  5
C8
  8
0
 62
     0
 10
38.039852990821707
 20
22.000148353146638
 30
0.0
 11
41.999904260611061
 21
25.960199622936099
 31
0.0
  0
LINE
  5
C9
  8
0
 62
     0
 10
39.779384206886391
 20
25.086717987371681
 30
0.0
 11
42.000100143142099
 21
27.3074339236274
 31
0.0
  0
LINE
  5
CA
  8
0
 62
     0
 10
36.692620961436148
 20
21.999954741921439
 30
0.0
 11
38.913365143964093
 21
24.22069892444938
 31
0.0
  0
LINE
  5
CB
  8
0
 62
     0
 10
40.000121415191472
 20
26.654493613837129
 30
0.0
 11
42.000097015076733
 21
28.654469213722511
 31
0.0
  0
LINE
  5
CC
  8
0
 62
     0
 10
35.345588011765983
 20
21.999960210411761
 30
0.0
 11
37.345588789324502
 21
23.999960987970159
 31
0.0
  0
LINE
  5
CD
  8
0
 62
     0
 10
40.000114979486739
 20
28.001525596292819
 30
0.0
 11
42.000093887011531
 21
30.001504503817621
 31
0.0
  0
LINE
  5
CE
  8
0
 62
     0
 10
33.998555062095882
 20
21.999965678901962
 30
0.0
 11
35.99855530851562
 21
23.99996592532182
 31
0.0
  0
LINE
  5
CF
  8
0
 62
     0
 10
40.000108543782169
 20
29.348557578748569
 30
0.0
 11
42.000090758946271
 21
31.348539793912781
 31
0.0
  0
LINE
  5
D0
  8
0
 62
     0
 10
32.651522112425937
 20
21.99997114739233
 30
0.0
 11
34.651521827707143
 21
23.999970862673649
 31
0.0
  0
LINE
  5
D1
  8
0
 62
     0
 10
40.000102108077442
 20
30.695589561204262
 30
0.0
 11
42.000087630880948
 21
32.695575084007892
 31
0.0
  0
LINE
  5
D2
  8
0
 62
     0
 10
31.304489162755829
 20
21.999976615882641
 30
0.0
 11
33.304488346898381
 21
23.999975800025201
 31
0.0
  0
LINE
  5
D3
  8
0
 62
     0
 10
40.000095672372822
 20
32.042621543660012
 30
0.0
 11
42.000084502815753
 21
34.042610374102928
 31
0.0
  0
LINE
  5
D4
  8
0
 62
     0
 10
29.95745621308572
 20
21.999982084373009
 30
0.0
 11
31.957454866089741
 21
23.999980737376919
 31
0.0
  0
LINE
  5
D5
  8
0
 62
     0
 10
40.000089236668252
 20
33.389653526115808
 30
0.0
 11
41.61043586565313
 21
35.000000155100793
 31
0.0
  0
LINE
  5
D6
  8
0
 62
     0
 10
28.610423263415779
 20
21.999987552863331
 30
0.0
 11
30.610421385281029
 21
23.999985674728691
 31
0.0
  0
LINE
  5
D7
  8
0
 62
     0
 10
40.002663824852497
 20
34.73926653246042
 30
0.0
 11
40.26081659887523
 21
34.997419306483152
 31
0.0
  0
LINE
  5
D8
  8
0
 62
     0
 10
27.263390313745681
 20
21.999993021353649
 30
0.0
 11
29.263387904472271
 21
23.999990612080179
 31
0.0
  0
LINE
  5
D9
  8
0
 62
     0
 10
25.916357364075509
 20
21.999998489843851
 30
0.0
 11
27.91635442366368
 21
23.999995549432072
 31
0.0
  0
LINE
  5
DA
  8
0
 62
     0
 10
24.569324414405461
 20
22.000003958334219
 30
0.0
 11
26.569320942855029
 21
24.00000048678374
 31
0.0
  0
LINE
  5
DB
  8
0
 62
     0
 10
23.222291464735459
 20
22.000009426824541
 30
0.0
 11
25.222287462046321
 21
24.000005424135399
 31
0.0
  0
LINE
  5
DC
  8
0
 62
     0
 10
1.222282193011778
 20
0.0000001551007927
 30
0.0
 11
2.0000808587313368
 21
0.7777988208204079
 31
0.0
  0
LINE
  5
DD
  8
0
 62
     0
 10
21.875258515065411
 20
22.000014895314909
 30
0.0
 11
23.87525398123762
 21
24.000010361487121
 31
0.0
  0
LINE
  5
DE
  8
0
 62
     0
 10
0.0349226705787373
 20
0.1596790508282311
 30
0.0
 11
2.0000748889654569
 21
2.1248312692149511
 31
0.0
  0
LINE
  5
DF
  8
0
 62
     0
 10
20.52822556539542
 20
22.000020363805159
 30
0.0
 11
22.528220500428969
 21
24.000015298838719
 31
0.0
  0
LINE
  5
E0
  8
0
 62
     0
 10
0.0000780355895245
 20
1.471872833999327
 30
0.0
 11
2.0000689191997481
 21
3.471863717609494
 31
0.0
  0
LINE
  5
E1
  8
0
 62
     0
 10
19.181192615725362
 20
22.000025832295531
 30
0.0
 11
21.181187019620271
 21
24.000020236190441
 31
0.0
  0
LINE
  5
E2
  8
0
 62
     0
 10
0.0000723564647842
 20
2.8189055730349528
 30
0.0
 11
2.0000629494338109
 21
4.8188961660040368
 31
0.0
  0
LINE
  5
E3
  8
0
 62
     0
 10
17.83415966605526
 20
22.000031300785789
 30
0.0
 11
19.83415353881162
 21
24.000025173542099
 31
0.0
  0
LINE
  5
E4
  8
0
 62
     0
 10
0.000066677340044
 20
4.1659383120705789
 30
0.0
 11
2.000056979668102
 21
6.1659286143985801
 31
0.0
  0
LINE
  5
E5
  8
0
 62
     0
 10
16.487126716385148
 20
22.000036769276051
 30
0.0
 11
18.487120058002859
 21
24.000030110893821
 31
0.0
  0
LINE
  5
E6
  8
0
 62
     0
 10
0.0000609982153037
 20
5.5129710511062617
 30
0.0
 11
2.000051009902279
 21
7.5129610627932371
 31
0.0
  0
LINE
  5
E7
  8
0
 62
     0
 10
15.14009376671504
 20
22.000042237766419
 30
0.0
 11
17.14008657719415
 21
24.00003504824554
 31
0.0
  0
LINE
  5
E8
  8
0
 62
     0
 10
0.0000553190904498
 20
6.8600037901418309
 30
0.0
 11
2.000045040136285
 21
8.8599935111876675
 31
0.0
  0
LINE
  5
E9
  8
0
 62
     0
 10
13.79306081704504
 20
22.000047706256741
 30
0.0
 11
15.793053096385499
 21
24.000039985597201
 31
0.0
  0
LINE
  5
EA
  8
0
 62
     0
 10
0.0000496399658232
 20
8.2070365291775147
 30
0.0
 11
2.0000390703705762
 21
10.207025959582211
 31
0.0
  0
LINE
  5
EB
  8
0
 62
     0
 10
12.44602786737499
 20
22.000053174747109
 30
0.0
 11
14.4460196155768
 21
24.000044922948859
 31
0.0
  0
LINE
  5
EC
  8
0
 62
     0
 10
0.0000439608409692
 20
9.5540692682130839
 30
0.0
 11
2.000033100604639
 21
11.554058407976751
 31
0.0
  0
LINE
  5
ED
  8
0
 62
     0
 10
11.098994917704999
 20
22.00005864323742
 30
0.0
 11
13.09898613476815
 21
24.000049860300521
 31
0.0
  0
LINE
  5
EE
  8
0
 62
     0
 10
0.000038281716229
 20
10.901102007248589
 30
0.0
 11
2.0000271308389301
 21
12.901090856371299
 31
0.0
  0
LINE
  5
EF
  8
0
 62
     0
 10
9.7519619680349479
 20
22.000064111727738
 30
0.0
 11
11.751952653959391
 21
24.00005479765224
 31
0.0
  0
LINE
  5
F0
  8
0
 62
     0
 10
0.0000326025915456
 20
12.248134746284331
 30
0.0
 11
2.000021161072993
 21
14.248123304765841
 31
0.0
  0
LINE
  5
F1
  8
0
 62
     0
 10
8.4049290183648395
 20
22.000069580218
 30
0.0
 11
10.40491917315074
 21
24.000059735003902
 31
0.0
  0
LINE
  5
F2
  8
0
 62
     0
 10
0.0000269234667485
 20
13.59516748531985
 30
0.0
 11
2.0000151913072841
 21
15.59515575316038
 31
0.0
  0
LINE
  5
F3
  8
0
 62
     0
 10
7.057896068694788
 20
22.000075048708371
 30
0.0
 11
9.0578856923420403
 21
24.00006467235562
 31
0.0
  0
LINE
  5
F4
  8
0
 62
     0
 10
0.0000212443419514
 20
14.942200224355529
 30
0.0
 11
2.0000092215414038
 21
16.942188201554931
 31
0.0
  0
LINE
  5
F5
  8
0
 62
     0
 10
5.7108631190247356
 20
22.000080517198679
 30
0.0
 11
7.7108522115333349
 21
24.000069609707278
 31
0.0
  0
LINE
  5
F6
  8
0
 62
     0
 10
0.0000155652172111
 20
16.289232963391161
 30
0.0
 11
2.0000032517755808
 21
18.28922064994947
 31
0.0
  0
LINE
  5
F7
  8
0
 62
     0
 10
4.3638301693546282
 20
22.000085985688941
 30
0.0
 11
6.3638187307246881
 21
24.000074547058951
 31
0.0
  0
LINE
  5
F8
  8
0
 62
     0
 10
0.0000098860925277
 20
17.63626570242678
 30
0.0
 11
1.999997282009758
 21
19.63625309834401
 31
0.0
  0
LINE
  5
F9
  8
0
 62
     0
 10
0.0000042069675601
 20
18.983298441462239
 30
0.0
 11
5.0167852499159826
 21
24.000079484410609
 31
0.0
  0
LINE
  5
FA
  8
0
 62
     0
 10
0.0149502317511861
 20
20.345282884406231
 30
0.0
 11
3.6548002469295962
 21
23.985132899584642
 31
0.0
  0
ENDBLK
  5
FC
  8
0
  0
ENDSEC
  0
SECTION
  2
ENTITIES
  0
ARC
  5
91
  8
0
 10
632.21274219989255
 20
643.39716503406601
 30
0.0
 40
0.3
 50
270.0
 51
0.0
  0
LINE
  5
92
  8
0
 10
632.51274219989239
 20
643.39716503406601
 30
0.0
 11
632.51265489361913
 21
663.09716442273634
 31
0.0
  0
LINE
  5
93
  8
0
 10
630.81274219989245
 20
643.09716503406605
 30
0.0
 11
632.21274219989255
 21
643.09716503406605
 31
0.0
  0
ARC
  5
94
  8
0
 10
634.51298634051739
 20
663.09692089344105
 30
0.0
 40
2.000331461722618
 50
90.006743901188784
 51
179.9930245556252
  0
ARC
  5
95
  8
0
 10
630.81274219989245
 20
643.39716503406601
 30
0.0
 40
0.3
 50
180.0
 51
270.0
  0
LINE
  5
96
  8
0
 10
634.51275089494357
 20
665.09725234130735
 30
0.0
 11
668.51271818667669
 21
665.09711431313815
 31
0.0
  0
LINE
  5
97
  8
0
 10
630.51265914421003
 20
663.09715898180309
 30
0.0
 11
630.5127421998925
 21
643.39716503406601
 31
0.0
  0
ARC
  5
98
  8
0
 10
668.51262012957989
 20
669.09725658680043
 30
0.0
 40
4.0001422748640882
 50
270.0014045144913
 51
359.99843113912777
  0
ARC
  5
99
  8
0
 10
634.51298634051739
 20
663.09692089344105
 30
0.0
 40
4.0003272033926676
 50
90.003369787739715
 51
179.9965899143719
  0
LINE
  5
9A
  8
0
 10
672.51276240294453
 20
669.09714705575379
 30
0.0
 11
672.5127421998925
 21
677.79716503406598
 31
0.0
  0
LINE
  5
9B
  8
0
 10
634.51275106570893
 20
667.09724808991496
 30
0.0
 11
668.51273759212665
 21
667.09712346800075
 31
0.0
  0
ARC
  5
9C
  8
0
 10
672.21274219989255
 20
677.79716503406598
 30
0.0
 40
0.3
 50
0.0
 51
90.0
  0
ARC
  5
9D
  8
0
 10
668.51262012957989
 20
669.09728710437855
 30
0.0
 40
2.000163639826845
 50
270.00336477878312
 51
359.996562682079
  0
LINE
  5
9E
  8
0
 10
670.81274219989245
 20
678.09716503406605
 30
0.0
 11
672.21274219989255
 21
678.09716503406605
 31
0.0
  0
LINE
  5
9F
  8
0
 10
670.5127837658074
 20
669.09716710953114
 30
0.0
 11
670.51274219989239
 21
677.79716503406598
 31
0.0
  0
ARC
  5
A0
  8
0
 10
670.81274219989245
 20
677.79716503406598
 30
0.0
 40
0.3
 50
90.0
 51
180.0
  0
ENDSEC
  0
EOF
