  0
SECTION
  2
HEADER
  9
$ACADVER
  1
AC1009
  9
$INSBASE
 10
0.0
 20
0.0
 30
0.0
  9
$EXTMIN
 10
688.37677179879586
 20
555.00787487277739
 30
-0.0015258207003583
  9
$EXTMAX
 10
733.23761120582662
 20
587.18408306057586
 30
0.0000000349246037
  9
$LIMMIN
 10
0.0
 20
0.0
  9
$LIMMAX
 10
420.0
 20
297.0
  9
$ORTHOMODE
 70
     0
  9
$REGENMODE
 70
     1
  9
$FILLMODE
 70
     1
  9
$QTEXTMODE
 70
     0
  9
$MIRRTEXT
 70
     0
  9
$DRAGMODE
 70
     2
  9
$LTSCALE
 40
1.0
  9
$OSMODE
 70
  3071
  9
$ATTMODE
 70
     1
  9
$TEXTSIZE
 40
2.5
  9
$TRACEWID
 40
1.0
  9
$TEXTSTYLE
  7
STANDARD
  9
$CLAYER
  8
0
  9
$CELTYPE
  6
BYLAYER
  9
$CECOLOR
 62
   256
  9
$DIMSCALE
 40
1.0
  9
$DIMASZ
 40
2.5
  9
$DIMEXO
 40
0.625
  9
$DIMDLI
 40
3.75
  9
$DIMRND
 40
0.0
  9
$DIMDLE
 40
0.0
  9
$DIMEXE
 40
1.25
  9
$DIMTP
 40
0.0
  9
$DIMTM
 40
0.0
  9
$DIMTXT
 40
2.5
  9
$DIMCEN
 40
2.5
  9
$DIMTSZ
 40
0.0
  9
$DIMTOL
 70
     0
  9
$DIMLIM
 70
     0
  9
$DIMTIH
 70
     0
  9
$DIMTOH
 70
     0
  9
$DIMSE1
 70
     0
  9
$DIMSE2
 70
     0
  9
$DIMTAD
 70
     1
  9
$DIMZIN
 70
     8
  9
$DIMBLK
  1

  9
$DIMASO
 70
     1
  9
$DIMSHO
 70
     1
  9
$DIMPOST
  1

  9
$DIMAPOST
  1

  9
$DIMALT
 70
     0
  9
$DIMALTD
 70
     3
  9
$DIMALTF
 40
0.03937007874016
  9
$DIMLFAC
 40
1.0
  9
$DIMTOFL
 70
     1
  9
$DIMTVP
 40
0.0
  9
$DIMTIX
 70
     0
  9
$DIMSOXD
 70
     0
  9
$DIMSAH
 70
     0
  9
$DIMBLK1
  1

  9
$DIMBLK2
  1

  9
$DIMSTYLE
  2
ISO-25
  9
$DIMCLRD
 70
     0
  9
$DIMCLRE
 70
     0
  9
$DIMCLRT
 70
     0
  9
$DIMTFAC
 40
1.0
  9
$DIMGAP
 40
0.625
  9
$LUNITS
 70
     2
  9
$LUPREC
 70
     4
  9
$SKETCHINC
 40
1.0
  9
$FILLETRAD
 40
0.0
  9
$AUNITS
 70
     0
  9
$AUPREC
 70
     0
  9
$MENU
  1
.
  9
$ELEVATION
 40
0.0
  9
$PELEVATION
 40
0.0
  9
$THICKNESS
 40
0.0
  9
$LIMCHECK
 70
     0
  9
$BLIPMODE
 70
     0
  9
$CHAMFERA
 40
0.0
  9
$CHAMFERB
 40
0.0
  9
$SKPOLY
 70
     0
  9
$TDCREATE
 40
2456546.4404718289
  9
$TDUPDATE
 40
2456546.4405966089
  9
$TDINDWG
 40
0.0001251389
  9
$TDUSRTIMER
 40
0.0001251273
  9
$USRTIMER
 70
     1
  9
$ANGBASE
 50
0.0
  9
$ANGDIR
 70
     0
  9
$PDMODE
 70
     0
  9
$PDSIZE
 40
0.0
  9
$PLINEWID
 40
0.0
  9
$COORDS
 70
     0
  9
$SPLFRAME
 70
     0
  9
$SPLINETYPE
 70
     6
  9
$SPLINESEGS
 70
     8
  9
$ATTDIA
 70
     0
  9
$ATTREQ
 70
     1
  9
$HANDLING
 70
     1
  9
$HANDSEED
  5
238
  9
$SURFTAB1
 70
     6
  9
$SURFTAB2
 70
     6
  9
$SURFTYPE
 70
     6
  9
$SURFU
 70
     6
  9
$SURFV
 70
     6
  9
$UCSNAME
  2

  9
$UCSORG
 10
0.0
 20
0.0
 30
0.0
  9
$UCSXDIR
 10
1.0
 20
0.0
 30
0.0
  9
$UCSYDIR
 10
0.0
 20
1.0
 30
0.0
  9
$PUCSNAME
  2

  9
$PUCSORG
 10
0.0
 20
0.0
 30
0.0
  9
$PUCSXDIR
 10
1.0
 20
0.0
 30
0.0
  9
$PUCSYDIR
 10
0.0
 20
1.0
 30
0.0
  9
$USERI1
 70
     0
  9
$USERI2
 70
     0
  9
$USERI3
 70
     0
  9
$USERI4
 70
     0
  9
$USERI5
 70
     0
  9
$USERR1
 40
0.0
  9
$USERR2
 40
0.0
  9
$USERR3
 40
0.0
  9
$USERR4
 40
0.0
  9
$USERR5
 40
0.0
  9
$WORLDVIEW
 70
     1
  9
$SHADEDGE
 70
     3
  9
$SHADEDIF
 70
    70
  9
$TILEMODE
 70
     1
  9
$MAXACTVP
 70
    64
  9
$PLIMCHECK
 70
     0
  9
$PEXTMIN
 10
0.0
 20
0.0
 30
0.0
  9
$PEXTMAX
 10
0.0
 20
0.0
 30
0.0
  9
$PLIMMIN
 10
0.0
 20
0.0
  9
$PLIMMAX
 10
12.0
 20
9.0
  9
$UNITMODE
 70
     0
  9
$VISRETAIN
 70
     1
  9
$PLINEGEN
 70
     0
  9
$PSLTSCALE
 70
     1
  0
ENDSEC
  0
SECTION
  2
TABLES
  0
TABLE
  2
VPORT
 70
     2
  0
VPORT
  2
*ACTIVE
 70
     0
 10
0.0
 20
0.0
 11
1.0
 21
1.0
 12
710.8071915023113
 22
571.09597896667663
 13
0.0
 23
0.0
 14
10.0
 24
10.0
 15
10.0
 25
10.0
 16
0.0
 26
0.0
 36
1.0
 17
0.0
 27
0.0
 37
0.0
 40
32.474596517206237
 41
2.0743034055727549
 42
50.0
 43
0.0
 44
0.0
 50
0.0
 51
0.0
 71
     0
 72
  1000
 73
     1
 74
     3
 75
     0
 76
     0
 77
     0
 78
     0
  0
ENDTAB
  0
TABLE
  2
LTYPE
 70
     1
  0
LTYPE
  2
CONTINUOUS
 70
     0
  3
Solid line
 72
    65
 73
     0
 40
0.0
  0
ENDTAB
  0
TABLE
  2
LAYER
 70
     1
  0
LAYER
  2
0
 70
     0
 62
     7
  6
CONTINUOUS
  0
ENDTAB
  0
TABLE
  2
STYLE
 70
     2
  0
STYLE
  2
STANDARD
 70
     0
 40
0.0
 41
1.0
 50
0.0
 71
     0
 42
2.5
  3
txt
  4

  0
STYLE
  2
ROMANT
 70
     0
 40
2.2999999999999989
 41
1.0
 50
15.0
 71
     0
 42
2.5
  3
romant.shx
  4

  0
ENDTAB
  0
TABLE
  2
VIEW
 70
     0
  0
ENDTAB
  0
TABLE
  2
UCS
 70
     0
  0
ENDTAB
  0
TABLE
  2
APPID
 70
     1
  0
APPID
  2
ACAD
 70
     0
  0
ENDTAB
  0
TABLE
  2
DIMSTYLE
 70
     3
  0
DIMSTYLE
  2
ISO-25
 70
     0
  3

  4

  5

  6

  7

 40
1.0
 41
2.5
 42
0.625
 43
3.75
 44
1.25
 45
0.0
 46
0.0
 47
0.0
 48
0.0
140
2.5
141
2.5
142
0.0
143
0.03937007874016
144
1.0
145
0.0
146
1.0
147
0.625
 71
     0
 72
     0
 73
     0
 74
     0
 75
     0
 76
     0
 77
     1
 78
     8
170
     0
171
     3
172
     1
173
     0
174
     0
175
     0
176
     0
177
     0
178
     0
  0
DIMSTYLE
  2
STANDARD
 70
     0
  3

  4

  5

  6

  7

 40
1.0
 41
2.5
 42
0.625
 43
3.75
 44
1.25
 45
0.0
 46
0.0
 47
0.0
 48
0.0
140
2.5
141
2.5
142
0.0
143
0.03937007874016
144
1.0
145
0.0
146
1.0
147
0.625
 71
     0
 72
     0
 73
     0
 74
     0
 75
     0
 76
     0
 77
     1
 78
     8
170
     0
171
     3
172
     1
173
     0
174
     0
175
     0
176
     0
177
     0
178
     0
  0
DIMSTYLE
  2
ISO-25_1_E_1
 70
     0
  3

  4

  5

  6

  7

 40
1.0
 41
2.5
 42
0.0
 43
3.75
 44
0.5
 45
0.0
 46
0.0
 47
0.0
 48
0.0
140
1.0
141
0.2
142
0.0
143
0.03937007874016
144
1.0
145
0.0
146
1.0
147
0.4
 71
     0
 72
     0
 73
     0
 74
     0
 75
     0
 76
     0
 77
     1
 78
     8
170
     0
171
     3
172
     0
173
     0
174
     0
175
     0
176
   242
177
   242
178
   242
  0
ENDTAB
  0
ENDSEC
  0
SECTION
  2
BLOCKS
  0
BLOCK
  8
0
  2
$MODEL_SPACE
 70
     0
 10
0.0
 20
0.0
 30
0.0
  3
$MODEL_SPACE
  1

  0
ENDBLK
  5
21
  8
0
  0
BLOCK
 67
     1
  8
0
  2
$PAPER_SPACE
 70
     0
 10
0.0
 20
0.0
 30
0.0
  3
$PAPER_SPACE
  1

  0
ENDBLK
  5
53
 67
     1
  8
0
  0
BLOCK
  8
0
  2
*X2
 70
     1
 10
0.0
 20
0.0
 30
0.0
  3
*X2
  1

  0
LINE
  5
126
  8
0
 62
     0
 10
31.60853994606174
 20
0.0085676492395237
 30
0.0
 11
34.821350704449742
 21
3.2213784076274692
 31
0.0
  0
LINE
  5
127
  8
0
 62
     0
 10
33.002212107036833
 20
2.7492782283749762
 30
0.0
 11
35.773850704434828
 21
5.5209168257729848
 31
0.0
  0
LINE
  5
128
  8
0
 62
     0
 10
30.572473803885089
 20
0.3195399252232391
 30
0.0
 11
31.754745158595199
 21
1.501811279933349
 31
0.0
  0
LINE
  5
129
  8
0
 62
     0
 10
33.574764871764273
 20
4.6688694112627331
 30
0.0
 11
36.726350704419978
 21
7.8204552439184454
 31
0.0
  0
LINE
  5
12A
  8
0
 62
     0
 10
29.62434264944665
 20
0.7184471889451061
 30
0.0
 11
30.774395844766278
 21
1.8685003842647341
 31
0.0
  0
LINE
  5
12B
  8
0
 62
     0
 10
32.622264871779407
 20
5.0634078294382334
 30
0.0
 11
33.770315168892303
 21
6.2114581265511211
 31
0.0
  0
LINE
  5
12C
  8
0
 62
     0
 10
34.667540859382477
 20
7.1086838170413102
 30
0.0
 11
36.449099195405331
 21
8.8902421530641504
 31
0.0
  0
LINE
  5
12D
  8
0
 62
     0
 10
28.636681080563619
 20
1.0778240382224451
 30
0.0
 11
29.811605856745821
 21
2.2527488144046401
 31
0.0
  0
LINE
  5
12E
  8
0
 62
     0
 10
31.669764871794492
 20
5.4579462476137897
 30
0.0
 11
32.817815168887591
 21
6.6059965447068967
 31
0.0
  0
LINE
  5
12F
  8
0
 62
     0
 10
34.169200901549921
 20
7.9573822773692191
 30
0.0
 11
35.955819314274208
 21
9.7440006900935145
 31
0.0
  0
LINE
  5
130
  8
0
 62
     0
 10
27.606625179003519
 20
1.394806554822821
 30
0.0
 11
28.811057525118599
 21
2.5992389009379049
 31
0.0
  0
LINE
  5
131
  8
0
 62
     0
 10
30.717264871809672
 20
5.8524846657892899
 30
0.0
 11
31.865315168882891
 21
7.0005349628625018
 31
0.0
  0
LINE
  5
132
  8
0
 62
     0
 10
26.530577838103909
 20
1.6657976320835239
 30
0.0
 11
27.77007523208465
 21
2.905295026064266
 31
0.0
  0
LINE
  5
133
  8
0
 62
     0
 10
29.860071261033511
 20
6.3423294731734918
 30
0.0
 11
30.921830686471711
 21
7.4040888986116888
 31
0.0
  0
LINE
  5
134
  8
0
 62
     0
 10
25.403969291055891
 20
1.886227503195868
 30
0.0
 11
26.685341035604889
 21
3.167599247744874
 31
0.0
  0
LINE
  5
135
  8
0
 62
     0
 10
39.420652055786661
 20
17.249948686087059
 30
0.0
 11
39.641091639503031
 21
17.470388269803429
 31
0.0
  0
LINE
  5
136
  8
0
 62
     0
 10
29.350664823205591
 20
7.179961453505995
 30
0.0
 11
30.498715120337131
 21
8.3280117506374722
 31
0.0
  0
LINE
  5
137
  8
0
 62
     0
 10
39.83354772404806
 20
17.662844354348401
 30
0.0
 11
41.488850704506547
 21
19.318147334806952
 31
0.0
  0
LINE
  5
138
  8
0
 62
     0
 10
24.220897548910671
 20
2.0501941792110752
 30
0.0
 11
25.552695230512882
 21
3.3819918608132862
 31
0.0
  0
LINE
  5
139
  8
0
 62
     0
 10
28.956126405042479
 20
8.1324614535032538
 30
0.0
 11
30.104176702172769
 21
9.2805117506335364
 31
0.0
  0
LINE
  5
13A
  8
0
 62
     0
 10
38.421827605176588
 20
17.59816265363736
 30
0.0
 11
42.441350704500508
 21
21.617685752961279
 31
0.0
  0
LINE
  5
13B
  8
0
 62
     0
 10
22.97356681615025
 20
2.1499018646110239
 30
0.0
 11
24.36684306318034
 21
3.5431781116411112
 31
0.0
  0
LINE
  5
13C
  8
0
 62
     0
 10
38.774453041939807
 20
19.297826508560892
 30
0.0
 11
39.407064364943267
 21
19.930437831564351
 31
0.0
  0
LINE
  5
13D
  8
0
 62
     0
 10
28.561587986879321
 20
9.0849614535003962
 30
0.0
 11
29.709638284008641
 21
10.233011750629711
 31
0.0
  0
LINE
  5
13E
  8
0
 62
     0
 10
40.607331750525873
 20
21.13070521714695
 30
0.0
 11
43.393850704494469
 21
23.917224171115549
 31
0.0
  0
LINE
  5
13F
  8
0
 62
     0
 10
21.65136572675436
 20
2.1747391933754439
 30
0.0
 11
23.120907871566541
 21
3.644281338187624
 31
0.0
  0
LINE
  5
140
  8
0
 62
     0
 10
39.654831750541007
 20
21.52524363532245
 30
0.0
 11
40.802882048028209
 21
22.67329393280966
 31
0.0
  0
LINE
  5
141
  8
0
 62
     0
 10
28.167049568716148
 20
10.037461453497601
 30
0.0
 11
29.315099865844392
 21
11.18551175062583
 31
0.0
  0
LINE
  5
142
  8
0
 62
     0
 10
41.574712106048359
 20
23.44512399082981
 30
0.0
 11
43.823755917105302
 21
25.694167801886749
 31
0.0
  0
LINE
  5
143
  8
0
 62
     0
 10
20.23925505171411
 20
2.1096669364955569
 30
0.0
 11
21.805719632439551
 21
3.6761315172209938
 31
0.0
  0
LINE
  5
144
  8
0
 62
     0
 10
38.702331750556198
 20
21.919782053498071
 30
0.0
 11
39.850382048034987
 21
23.067832350976861
 31
0.0
  0
LINE
  5
145
  8
0
 62
     0
 10
27.77251115055299
 20
10.98996145349485
 30
0.0
 11
28.92056144768015
 21
12.13801175062201
 31
0.0
  0
LINE
  5
146
  8
0
 62
     0
 10
42.330694994270573
 20
25.54814529721239
 30
0.0
 11
43.501930351289673
 21
26.719380654231539
 31
0.0
  0
LINE
  5
147
  8
0
 62
     0
 10
18.714700663360361
 20
1.9321509663022309
 30
0.0
 11
20.408617795986459
 21
3.6260680989283278
 31
0.0
  0
LINE
  5
148
  8
0
 62
     0
 10
37.749831750571332
 20
22.314320471673572
 30
0.0
 11
38.897882048041822
 21
23.462370769144059
 31
0.0
  0
LINE
  5
149
  8
0
 62
     0
 10
27.377972732389772
 20
11.942461453491999
 30
0.0
 11
29.62151911850998
 21
14.186007839612209
 31
0.0
  0
LINE
  5
14A
  8
0
 62
     0
 10
41.79702542781996
 20
26.3615141489222
 30
0.0
 11
42.877292601557372
 21
27.441781322659612
 31
0.0
  0
LINE
  5
14B
  8
0
 62
     0
 10
17.04112127942966
 20
1.6056100005318961
 30
0.0
 11
18.91128762471623
 21
3.4757763458184741
 31
0.0
  0
LINE
  5
14C
  8
0
 62
     0
 10
36.290904820112019
 20
22.202431959374561
 30
0.0
 11
37.945382048048657
 21
23.85690918731126
 31
0.0
  0
LINE
  5
14D
  8
0
 62
     0
 10
26.983434314226539
 20
12.89496145348914
 30
0.0
 11
30.57401911750992
 21
16.485546256772519
 31
0.0
  0
LINE
  5
14E
  8
0
 62
     0
 10
40.82972584464499
 20
26.7412529839076
 30
0.0
 11
41.991367415644788
 21
27.902894554907341
 31
0.0
  0
LINE
  5
14F
  8
0
 62
     0
 10
15.151250542531891
 20
1.0627776817945001
 30
0.0
 11
17.285456667399561
 21
3.1969838066621028
 31
0.0
  0
LINE
  5
150
  8
0
 62
     0
 10
28.754880521677482
 20
16.0134460791005
 30
0.0
 11
31.52651911650992
 21
18.785084673932939
 31
0.0
  0
LINE
  5
151
  8
0
 62
     0
 10
33.991366404221417
 20
21.24993196164445
 30
0.0
 11
36.725033612874768
 21
23.98359917029774
 31
0.0
  0
LINE
  5
152
  8
0
 62
     0
 10
24.17532893457485
 20
11.43389449199787
 30
0.0
 11
28.256219843608498
 21
15.51478540103153
 31
0.0
  0
LINE
  5
153
  8
0
 62
     0
 10
39.842417486151589
 20
27.100983043574619
 30
0.0
 11
41.014327802258833
 21
28.272893359681859
 31
0.0
  0
LINE
  5
154
  8
0
 62
     0
 10
12.904559275649319
 20
0.1631248330723451
 30
0.0
 11
15.48308837141462
 21
2.7416539288375921
 31
0.0
  0
LINE
  5
155
  8
0
 62
     0
 10
29.707380521684279
 20
18.312984497267681
 30
0.0
 11
34.463466581869909
 21
23.069070557453301
 31
0.0
  0
LINE
  5
156
  8
0
 62
     0
 10
22.394053730372551
 20
10.99965770595594
 30
0.0
 11
27.74673665856108
 21
16.352340634144468
 31
0.0
  0
LINE
  5
157
  8
0
 62
     0
 10
38.838875147115523
 20
27.444479122698912
 30
0.0
 11
40.021779859670573
 21
28.627383835253958
 31
0.0
  0
LINE
  5
158
  8
0
 62
     0
 10
11.4574901253647
 20
0.0630941009480921
 30
0.0
 11
13.4087609964796
 21
2.0143649720629351
 31
0.0
  0
LINE
  5
159
  8
0
 62
     0
 10
25.99561558491331
 20
15.94825797865701
 30
0.0
 11
27.707146463971359
 21
17.65978885771505
 31
0.0
  0
LINE
  5
15A
  8
0
 62
     0
 10
24.004517657332539
 20
13.95716005107624
 30
0.0
 11
24.932514042692219
 21
14.885156436435921
 31
0.0
  0
LINE
  5
15B
  8
0
 62
     0
 10
30.65988052169098
 20
20.612522915434681
 30
0.0
 11
32.163928163655328
 21
22.116570557399029
 31
0.0
  0
LINE
  5
15C
  8
0
 62
     0
 10
21.086605506801959
 20
11.039247900545661
 30
0.0
 11
23.09073274524053
 21
13.04337513898423
 31
0.0
  0
LINE
  5
15D
  8
0
 62
     0
 10
37.818621235946637
 20
27.771263629690338
 30
0.0
 11
39.013297663290189
 21
28.96594005703383
 31
0.0
  0
LINE
  5
15E
  8
0
 62
     0
 10
10.533947978527181
 20
0.4865903722708822
 30
0.0
 11
11.6263220438891
 21
1.5789644376328049
 31
0.0
  0
LINE
  5
15F
  8
0
 62
     0
 10
25.255341284424901
 20
16.555022096328909
 30
0.0
 11
27.444340705369939
 21
18.74402151727401
 31
0.0
  0
LINE
  5
160
  8
0
 62
     0
 10
20.002372847242949
 20
11.30205365914702
 30
0.0
 11
22.19178196574228
 21
13.491462777646291
 31
0.0
  0
LINE
  5
161
  8
0
 62
     0
 10
36.78113356798395
 20
28.080814379888011
 30
0.0
 11
37.988417053625817
 21
29.288097865529888
 31
0.0
  0
LINE
  5
162
  8
0
 62
     0
 10
9.888065709128341
 20
1.1877465210324081
 30
0.0
 11
11.011721048041521
 21
2.3114018599455899
 31
0.0
  0
LINE
  5
163
  8
0
 62
     0
 10
19.071609832504631
 20
11.71832906256912
 30
0.0
 11
20.383469732731271
 21
13.03018896279576
 31
0.0
  0
LINE
  5
164
  8
0
 62
     0
 10
25.708859393175029
 20
18.35557862323952
 30
0.0
 11
27.02806530194783
 21
19.674784532012321
 31
0.0
  0
LINE
  5
165
  8
0
 62
     0
 10
13.269738434802379
 20
5.9164576648668108
 30
0.0
 11
14.44558532524508
 21
7.0923045553095667
 31
0.0
  0
LINE
  5
166
  8
0
 62
     0
 10
35.725840319432621
 20
28.372559549497112
 30
0.0
 11
36.946631558685851
 21
29.593350788750339
 31
0.0
  0
LINE
  5
167
  8
0
 62
     0
 10
9.4691323327608643
 20
2.1158515628253549
 30
0.0
 11
10.617182629861251
 21
3.2639018599257379
 31
0.0
  0
LINE
  5
168
  8
0
 62
     0
 10
18.265404327389941
 20
12.2591619756148
 30
0.0
 11
19.98812585736135
 21
13.981883505586209
 31
0.0
  0
LINE
  5
169
  8
0
 62
     0
 10
24.947885928244951
 20
18.941643576469801
 30
0.0
 11
26.487232388902161
 21
20.480990037127011
 31
0.0
  0
LINE
  5
16A
  8
0
 62
     0
 10
10.970200016606039
 20
4.9639576648309003
 30
0.0
 11
15.398085325288941
 21
9.3918429735138034
 31
0.0
  0
LINE
  5
16B
  8
0
 62
     0
 10
34.652114162306702
 20
28.64587181053156
 30
0.0
 11
35.887387688453373
 21
29.88114533667823
 31
0.0
  0
LINE
  5
16C
  8
0
 62
     0
 10
9.0745939145972443
 20
3.0683515628221012
 30
0.0
 11
10.222644211681139
 21
4.216401859906
 31
0.0
  0
LINE
  5
16D
  8
0
 62
     0
 10
17.57173679451023
 20
12.9125328608954
 30
0.0
 11
19.341447514089911
 21
14.68224358047507
 31
0.0
  0
LINE
  5
16E
  8
0
 62
     0
 10
24.061967684214611
 20
19.402763750599771
 30
0.0
 11
25.833861503621559
 21
21.17465757000673
 31
0.0
  0
LINE
  5
16F
  8
0
 62
     0
 10
13.578946727747789
 20
8.9197427941329561
 30
0.0
 11
16.350585325332929
 21
11.691381391718091
 31
0.0
  0
LINE
  5
170
  8
0
 62
     0
 10
33.559265414840581
 20
28.900061481225752
 30
0.0
 11
34.81007948169264
 21
30.15087554807781
 31
0.0
  0
LINE
  5
171
  8
0
 62
     0
 10
8.6800554964335674
 20
4.0208515628187342
 30
0.0
 11
11.44230019596352
 21
6.7830962623486917
 31
0.0
  0
LINE
  5
172
  8
0
 62
     0
 10
23.71827967140894
 20
20.40611415595453
 30
0.0
 11
25.06963659951299
 21
21.757471084058519
 31
0.0
  0
LINE
  5
173
  8
0
 62
     0
 10
14.531446727805131
 20
11.219281212350721
 30
0.0
 11
17.974428957362989
 21
14.66226344190858
 31
0.0
  0
LINE
  5
174
  8
0
 62
     0
 10
32.446534000372822
 20
29.134368484918411
 30
0.0
 11
33.714042157076392
 21
30.401876641621978
 31
0.0
  0
LINE
  5
175
  8
0
 62
     0
 10
8.2855170782699474
 20
4.9733515628155374
 30
0.0
 11
9.4335673753950005
 21
6.1214018599405904
 31
0.0
  0
LINE
  5
176
  8
0
 62
     0
 10
22.137903106009109
 20
20.172776008715122
 30
0.0
 11
24.186691615840122
 21
22.221564518546131
 31
0.0
  0
LINE
  5
177
  8
0
 62
     0
 10
14.77928044281026
 20
12.814153345516271
 30
0.0
 11
18.573618355808829
 21
16.608491258514839
 31
0.0
  0
LINE
  5
178
  8
0
 62
     0
 10
31.313079953789732
 20
29.347952856495741
 30
0.0
 11
32.598544684361798
 21
30.633417587067811
 31
0.0
  0
LINE
  5
179
  8
0
 62
     0
 10
7.8909786601062128
 20
5.9258515628122259
 30
0.0
 11
9.2974166391514927
 21
7.3322895418575049
 31
0.0
  0
LINE
  5
17A
  8
0
 62
     0
 10
21.0613364250014
 20
20.443247745867719
 30
0.0
 11
23.163667193027429
 21
22.545578513893759
 31
0.0
  0
LINE
  5
17B
  8
0
 62
     0
 10
14.384742024813301
 20
13.766653345679631
 30
0.0
 11
18.19339240454201
 21
17.575303725408329
 31
0.0
  0
LINE
  5
17C
  8
0
 62
     0
 10
30.157972143820761
 20
29.53988346468708
 30
0.0
 11
31.462781044434571
 21
30.84469236530089
 31
0.0
  0
LINE
  5
17D
  8
0
 62
     0
 10
7.4964402419427074
 20
6.878351562809029
 30
0.0
 11
9.4098574037967069
 21
8.7917687246630294
 31
0.0
  0
LINE
  5
17E
  8
0
 62
     0
 10
16.06638281617694
 20
16.795332555203629
 30
0.0
 11
21.95106180931327
 21
22.680011548339959
 31
0.0
  0
LINE
  5
17F
  8
0
 62
     0
 10
13.99020360681612
 20
14.719153345842811
 30
0.0
 11
15.1382539034679
 21
15.86720364249453
 31
0.0
  0
LINE
  5
180
  8
0
 62
     0
 10
28.980174785528561
 20
29.70912452455525
 30
0.0
 11
30.30585988578872
 21
31.03480962481536
 31
0.0
  0
LINE
  5
181
  8
0
 62
     0
 10
7.1019018237789728
 20
7.8308515628056616
 30
0.0
 11
9.0153189856002314
 21
9.7442687246269202
 31
0.0
  0
LINE
  5
182
  8
0
 62
     0
 10
16.264661514605681
 20
18.340649671792789
 30
0.0
 11
20.40574469272411
 21
22.481732849911229
 31
0.0
  0
LINE
  5
183
  8
0
 62
     0
 10
27.778531191264172
 20
29.85451934845128
 30
0.0
 11
29.126792204222621
 21
31.20278036140974
 31
0.0
  0
LINE
  5
184
  8
0
 62
     0
 10
13.59566518881917
 20
15.67165334600622
 30
0.0
 11
14.74371548530479
 21
16.819703642491898
 31
0.0
  0
LINE
  5
185
  8
0
 62
     0
 10
26.55174403708077
 20
29.974770612428241
 30
0.0
 11
27.9244765648221
 21
31.347503140169579
 31
0.0
  0
LINE
  5
186
  8
0
 62
     0
 10
13.20112677082221
 20
16.624153346169692
 30
0.0
 11
14.349177067141911
 21
17.772203642489391
 31
0.0
  0
LINE
  5
187
  8
0
 62
     0
 10
25.298351185815651
 20
30.068416179323439
 30
0.0
 11
26.697681240016269
 21
31.467746233524
 31
0.0
  0
LINE
  5
188
  8
0
 62
     0
 10
12.80658835282526
 20
17.576653346333039
 30
0.0
 11
13.954638648978911
 21
18.724703642486642
 31
0.0
  0
LINE
  5
189
  8
0
 62
     0
 10
24.016695778710869
 20
30.133799190379019
 30
0.0
 11
25.445022439026619
 21
31.56212585069477
 31
0.0
  0
LINE
  5
18A
  8
0
 62
     0
 10
12.412049934828239
 20
18.5291533464964
 30
0.0
 11
13.560100230815859
 21
19.67720364248402
 31
0.0
  0
LINE
  5
18B
  8
0
 62
     0
 10
22.7048888400858
 20
30.169030669914441
 30
0.0
 11
24.164937529152439
 21
31.62907935898108
 31
0.0
  0
LINE
  5
18C
  8
0
 62
     0
 10
12.017511516831179
 20
19.481653346659812
 30
0.0
 11
13.165561812652809
 21
20.629703642481442
 31
0.0
  0
LINE
  5
18D
  8
0
 62
     0
 10
21.36076196464149
 20
30.17194221263043
 30
0.0
 11
22.855651762862859
 21
31.66683201085181
 31
0.0
  0
LINE
  5
18E
  8
0
 62
     0
 10
11.622973098834221
 20
20.434153346823159
 30
0.0
 11
12.70904114056526
 21
21.520221388554148
 31
0.0
  0
LINE
  5
18F
  8
0
 62
     0
 10
19.981806663280619
 20
30.140025329429928
 30
0.0
 11
21.515136472231799
 21
31.673355138381059
 31
0.0
  0
LINE
  5
190
  8
0
 62
     0
 10
10.72544421153191
 20
20.883662877681221
 30
0.0
 11
11.873494507502469
 21
22.031713173651781
 31
0.0
  0
LINE
  5
191
  8
0
 62
     0
 10
18.565095448475461
 20
30.070352532785201
 30
0.0
 11
20.141055888056769
 21
31.646312972366498
 31
0.0
  0
LINE
  5
192
  8
0
 62
     0
 10
9.7729442111484541
 20
21.278201295458189
 30
0.0
 11
10.920994507495831
 21
22.42625159180557
 31
0.0
  0
LINE
  5
193
  8
0
 62
     0
 10
8.8204442107650607
 20
21.67273971323516
 30
0.0
 11
9.9684945074891402
 21
22.820790009959239
 31
0.0
  0
LINE
  5
194
  8
0
 62
     0
 10
17.107177436666291
 20
29.95947293913639
 30
0.0
 11
18.730698546415219
 21
31.582994048885269
 31
0.0
  0
LINE
  5
195
  8
0
 62
     0
 10
4.4007709993050517
 20
17.253066501775152
 30
0.0
 11
5.4644732221570393
 21
18.316768724627138
 31
0.0
  0
LINE
  5
196
  8
0
 62
     0
 10
7.8679442103816646
 20
22.067278131012081
 30
0.0
 11
9.01599450748256
 21
23.215328428112969
 31
0.0
  0
LINE
  5
197
  8
0
 62
     0
 10
15.60393759767731
 20
29.803271518307731
 30
0.0
 11
17.280887430438838
 21
31.48022135106925
 31
0.0
  0
LINE
  5
198
  8
0
 62
     0
 10
3.2308446579148149
 20
17.43017857854522
 30
0.0
 11
5.069934804017179
 21
19.269268724647588
 31
0.0
  0
LINE
  5
199
  8
0
 62
     0
 10
6.9154442099981557
 20
22.461816548788931
 30
0.0
 11
8.0634945074758662
 21
23.609866846266641
 31
0.0
  0
LINE
  5
19A
  8
0
 62
     0
 10
14.05040282445259
 20
29.596775163243372
 30
0.0
 11
15.78786016682653
 21
31.334232505617312
 31
0.0
  0
LINE
  5
19B
  8
0
 62
     0
 10
2.7619792240377019
 20
18.308351562828481
 30
0.0
 11
4.3925147708119994
 21
19.938887109602771
 31
0.0
  0
LINE
  5
19C
  8
0
 62
     0
 10
4.9529341720602806
 20
21.84634492901148
 30
0.0
 11
7.0935667167850047
 21
23.986977473736211
 31
0.0
  0
LINE
  5
19D
  8
0
 62
     0
 10
12.440467917556759
 20
29.333878674507961
 30
0.0
 11
14.24710606122653
 21
31.140516818177669
 31
0.0
  0
LINE
  5
19E
  8
0
 62
     0
 10
2.3674408058823242
 20
19.260851562833519
 30
0.0
 11
3.5154911032661849
 21
20.40890186021738
 31
0.0
  0
LINE
  5
19F
  8
0
 62
     0
 10
10.766496808849521
 20
29.006945983961089
 30
0.0
 11
12.653139241861879
 21
30.89358841697344
 31
0.0
  0
LINE
  5
1A0
  8
0
 62
     0
 10
1.972902387727117
 20
20.213351562838682
 30
0.0
 11
5.4250343524240057
 21
23.665483527535571
 31
0.0
  0
LINE
  5
1A1
  8
0
 62
     0
 10
9.0187214648698273
 20
28.606209058141701
 30
0.0
 11
10.99917425088279
 21
30.586661844154669
 31
0.0
  0
LINE
  5
1A2
  8
0
 62
     0
 10
1.5783639695717391
 20
21.165851562843621
 30
0.0
 11
3.125495934341302
 21
22.712983527613179
 31
0.0
  0
LINE
  5
1A3
  8
0
 62
     0
 10
7.1842964350210528
 20
28.118822446453301
 30
0.0
 11
9.2766471747873993
 21
30.211173186219639
 31
0.0
  0
LINE
  5
1A4
  8
0
 62
     0
 10
1.183825551416362
 20
22.118351562848659
 30
0.0
 11
2.3318758487399691
 21
23.26640186017227
 31
0.0
  0
LINE
  5
1A5
  8
0
 62
     0
 10
5.2457313584362728
 20
27.52729578802894
 30
0.0
 11
7.4744813695959351
 21
29.756045799188652
 31
0.0
  0
LINE
  5
1A6
  8
0
 62
     0
 10
0.7892871332609844
 20
23.070851562853711
 30
0.0
 11
1.9373374304363431
 21
24.218901860029071
 31
0.0
  0
LINE
  5
1A7
  8
0
 62
     0
 10
3.1781120411820321
 20
26.806714888935058
 30
0.0
 11
5.5779080246492176
 21
29.206510872402252
 31
0.0
  0
LINE
  5
1A8
  8
0
 62
     0
 10
0.3947487151057771
 20
24.02335156285875
 30
0.0
 11
1.5456742692434771
 21
25.17427711699651
 31
0.0
  0
LINE
  5
1A9
  8
0
 62
     0
 10
0.0415873439501979
 20
25.01722860986359
 30
0.0
 11
3.5664583051926111
 21
28.542099571106011
 31
0.0
  0
LINE
  5
1AA
  8
0
 62
     0
 10
0.2555695372086006
 20
26.57824922128242
 30
0.0
 11
1.396490001434415
 21
27.719169685508241
 31
0.0
  0
ENDBLK
  5
1AC
  8
0
  0
BLOCK
  8
0
  2
*U3
 70
     1
 10
0.0
 20
0.0
 30
0.0
  3
*U3
  1

  0
ARC
  5
1AE
  8
0
 10
21.916279412259311
 20
-18.92846188954249
 30
0.0
 40
21.104863780816871
 50
65.20231063379984
 51
114.7976893661999
  0
ARC
  5
1AF
  8
0
 10
31.816524522459311
 20
2.4999011106575031
 30
0.0
 40
2.5000000000000409
 50
245.20231063262111
 51
337.49999999958408
  0
ARC
  5
1B0
  8
0
 10
12.016034302159371
 20
2.4999011106575031
 30
0.0
 40
2.5000000000000511
 50
202.49999999999949
 51
294.79768936529979
  0
LINE
  5
1B1
  8
0
 10
34.126223353659377
 20
1.543192529757504
 30
0.0
 11
36.94916992021286
 21
8.3583884166479265
 31
0.0
  0
LINE
  5
1B2
  8
0
 10
6.8833889042593901
 20
8.3583884166574762
 30
0.0
 11
9.7063354708810721
 21
1.5431925297447711
 31
0.0
  0
ARC
  5
1B3
  8
0
 10
36.672006060459353
 20
8.4731934463575271
 30
0.0
 40
0.3000000000001409
 50
337.49999999999528
 51
67.499999980134206
  0
ARC
  5
1B4
  8
0
 10
7.1605527640593891
 20
8.4731934463575271
 30
0.0
 40
0.2999999999999439
 50
112.5000000000213
 51
202.49999999492121
  0
LINE
  5
1B5
  8
0
 10
36.786811090259341
 20
8.7503573060574809
 30
0.0
 11
36.140095417559337
 21
9.0182357086574712
 31
0.0
  0
LINE
  5
1B6
  8
0
 10
7.69246340715938
 20
9.0182357086574712
 30
0.0
 11
7.0457477343497876
 21
8.7503573061107982
 31
0.0
  0
LINE
  5
1B7
  8
0
 10
36.140095417559337
 20
9.0182357086574712
 30
0.0
 11
36.254900447112618
 21
9.295399568547964
 31
0.0
  0
LINE
  5
1B8
  8
0
 10
7.5776583773592838
 20
9.2953995685575137
 30
0.0
 11
7.69246340715938
 21
9.0182357086574712
 31
0.0
  0
ARC
  5
1B9
  8
0
 10
35.977736587359352
 20
9.4102045982575078
 30
0.0
 40
0.2999999999999353
 50
337.4999999999888
 51
67.499999980138369
  0
ARC
  5
1BA
  8
0
 10
7.8548222371593956
 20
9.4102045982575078
 30
0.0
 40
0.2999999999999353
 50
112.5000000000171
 51
202.49999999490291
  0
LINE
  5
1BB
  8
0
 10
36.092541617159327
 20
9.6873684579575183
 30
0.0
 11
35.261050037868813
 21
10.031783547110869
 31
0.0
  0
LINE
  5
1BC
  8
0
 10
8.5715087866593649
 20
10.031783547057501
 30
0.0
 11
7.740017207449795
 21
9.6873684580108375
 31
0.0
  0
ARC
  5
1BD
  8
0
 10
35.146245008159333
 20
9.7546196873574882
 30
0.0
 40
0.2999999999999878
 50
67.500000000007105
 51
157.50000000507879
  0
ARC
  5
1BE
  8
0
 10
8.6863138163593021
 20
9.7546196873574882
 30
0.0
 40
0.2999999999999788
 50
22.500000000002942
 51
112.50000000220901
  0
LINE
  5
1BF
  8
0
 10
34.869081148359328
 20
9.8694247170575409
 30
0.0
 11
34.170683884306072
 21
8.1833445702669678
 31
0.0
  0
LINE
  5
1C0
  8
0
 10
9.6618749402593949
 20
8.1833445702575318
 30
0.0
 11
8.9634776761126886
 21
9.8694247170670337
 31
0.0
  0
ARC
  5
1C1
  8
0
 10
34.447847744059352
 20
8.0685395405574791
 30
0.0
 40
0.2999999999999222
 50
157.49999999999881
 51
210.63010235985021
  0
ARC
  5
1C2
  8
0
 10
9.384711080459283
 20
8.0685395405574791
 30
0.0
 40
0.2999999999999882
 50
329.36989764580778
 51
22.499999994912951
  0
LINE
  5
1C3
  8
0
 10
34.189705404459353
 20
7.9156914705574764
 30
0.0
 11
34.673724292678919
 21
7.0982407284346891
 31
0.0
  0
LINE
  5
1C4
  8
0
 10
9.1588345318593838
 20
7.0982407284575402
 30
0.0
 11
9.6428534200788363
 21
7.9156914705803274
 31
0.0
  0
ARC
  5
1C5
  8
0
 10
34.415581953059359
 20
6.9453926584575347
 30
0.0
 40
0.3000000000000005
 50
337.50000000507879
 51
30.630102354192111
  0
ARC
  5
1C6
  8
0
 10
9.4169768714593811
 20
6.9453926584575347
 30
0.0
 40
0.2999999999999222
 50
149.36989764014979
 51
202.49999999999289
  0
LINE
  5
1C7
  8
0
 10
34.692745812859357
 20
6.8305876287574838
 30
0.0
 11
34.338763637959353
 21
5.975999061157494
 31
0.0
  0
LINE
  5
1C8
  8
0
 10
9.4937951866593266
 20
5.975999061157494
 30
0.0
 11
9.1398130117059964
 21
6.8305876287480478
 31
0.0
  0
LINE
  5
1C9
  8
0
 10
34.338763637959353
 20
5.975999061157494
 30
0.0
 11
30.99422640664978
 21
7.3613517422040777
 31
0.0
  0
LINE
  5
1CA
  8
0
 10
12.8383324178593
 20
7.361351742157467
 30
0.0
 11
9.4937951866593266
 21
5.975999061157494
 31
0.0
  0
ARC
  5
1CB
  8
0
 10
31.10903143635937
 20
7.6385156019574652
 30
0.0
 40
0.3000000000000635
 50
202.50000000220481
 51
247.49999999998701
  0
ARC
  5
1CC
  8
0
 10
12.72352738815937
 20
7.6385156019574652
 30
0.0
 40
0.2999999999999716
 50
292.4999999949012
 51
337.50000000000711
  0
LINE
  5
1CD
  8
0
 10
30.83186757665931
 20
7.523710572257527
 30
0.0
 11
28.846886405459369
 21
12.31587903675751
 31
0.0
  0
LINE
  5
1CE
  8
0
 10
14.9856724191593
 20
12.31587903675751
 30
0.0
 11
13.00069124791275
 21
7.5237105722479782
 31
0.0
  0
LINE
  5
1CF
  8
0
 10
28.846886405459369
 20
12.31587903675751
 30
0.0
 11
32.248456172459328
 21
20.527994906657511
 31
0.0
  0
LINE
  5
1D0
  8
0
 10
11.5841026520593
 20
20.527994906657511
 30
0.0
 11
14.9856724191593
 21
12.31587903675751
 31
0.0
  0
LINE
  5
1D1
  8
0
 10
32.248456172459328
 20
20.527994906657511
 30
0.0
 11
37.040624638049849
 21
22.512976075510888
 31
0.0
  0
LINE
  5
1D2
  8
0
 10
6.7919341864593434
 20
22.5129760755575
 30
0.0
 11
11.5841026520593
 21
20.527994906657511
 31
0.0
  0
ARC
  5
1D3
  8
0
 10
37.155429667759343
 20
22.235812215757502
 30
0.0
 40
0.2999999999999615
 50
67.500000005078775
 51
112.49999999999289
  0
ARC
  5
1D4
  8
0
 10
6.6771291567592916
 20
22.235812215757502
 30
0.0
 40
0.2999999999999636
 50
67.500000005078775
 51
112.49999999999289
  0
LINE
  5
1D5
  8
0
 10
37.270234697459387
 20
22.5129760755575
 30
0.0
 11
40.614771928659358
 21
21.12762339445749
 31
0.0
  0
LINE
  5
1D6
  8
0
 10
3.217786895759331
 20
21.12762339445749
 30
0.0
 11
6.5623241270498047
 21
22.512976075510888
 31
0.0
  0
LINE
  5
1D7
  8
0
 10
40.614771928659358
 20
21.12762339445749
 30
0.0
 11
40.260789753512768
 21
20.273034827548031
 31
0.0
  0
LINE
  5
1D8
  8
0
 10
3.5717690709593621
 20
20.273034827557531
 30
0.0
 11
3.217786895759331
 21
21.12762339445749
 31
0.0
  0
ARC
  5
1D9
  8
0
 10
39.983625893759381
 20
20.387839857257521
 30
0.0
 40
0.2999999999999836
 50
284.36989765006979
 51
337.50000000000711
  0
ARC
  5
1DA
  8
0
 10
3.8489329307593598
 20
20.387839857257521
 30
0.0
 40
0.2999999999999836
 50
202.49999999491121
 51
255.63010235409311
  0
LINE
  5
1DB
  8
0
 10
40.058080185859353
 20
20.097225751657511
 30
0.0
 11
39.137802184974703
 21
19.861453826085778
 31
0.0
  0
LINE
  5
1DC
  8
0
 10
4.6947566395593858
 20
19.861453826057531
 30
0.0
 11
3.7744786386746219
 21
20.097225751629139
 31
0.0
  0
ARC
  5
1DD
  8
0
 10
39.212256477059327
 20
19.57083972045751
 30
0.0
 40
0.2999999999999113
 50
104.3698976458912
 51
157.4999999977768
  0
ARC
  5
1DE
  8
0
 10
4.620302347459301
 20
19.57083972045751
 30
0.0
 40
0.2999999999999113
 50
22.499999999992909
 51
75.630102349909151
  0
LINE
  5
1DF
  8
0
 10
38.935092617359381
 20
19.685644750157511
 30
0.0
 11
38.23669535320596
 21
17.999564603267
 31
0.0
  0
LINE
  5
1E0
  8
0
 10
5.5958634712593494
 20
17.999564603257511
 30
0.0
 11
4.8974662072126867
 21
19.685644750167
 31
0.0
  0
ARC
  5
1E1
  8
0
 10
38.513859212959353
 20
17.88475957355752
 30
0.0
 40
0.2999999999999439
 50
157.50000000000711
 51
247.49999999777091
  0
ARC
  5
1E2
  8
0
 10
5.3186996115593947
 20
17.88475957355752
 30
0.0
 40
0.2999999999999439
 50
292.4999999999971
 51
22.500000002223182
  0
LINE
  5
1E3
  8
0
 10
38.399054183259302
 20
17.607595713857499
 30
0.0
 11
39.230545762549809
 21
17.263180624704091
 31
0.0
  0
LINE
  5
1E4
  8
0
 10
4.602013061959382
 20
17.26318062465748
 30
0.0
 11
5.4335046412688817
 21
17.60759571380418
 31
0.0
  0
ARC
  5
1E5
  8
0
 10
39.345350792259303
 20
17.540344484457481
 30
0.0
 40
0.2999999999999878
 50
247.50000000000711
 51
337.50000000510721
  0
ARC
  5
1E6
  8
0
 10
4.4872080322593311
 20
17.540344484457481
 30
0.0
 40
0.2999999999999878
 50
202.49999999999289
 51
292.49999999492121
  0
LINE
  5
1E7
  8
0
 10
39.622514652059408
 20
17.425539454757541
 30
0.0
 11
39.737319681759352
 21
17.702703314557539
 31
0.0
  0
LINE
  5
1E8
  8
0
 10
4.0952391426593522
 20
17.702703314457491
 30
0.0
 11
4.2100441725059454
 21
17.425539454747991
 31
0.0
  0
LINE
  5
1E9
  8
0
 10
39.737319681759352
 20
17.702703314557539
 30
0.0
 11
40.384035354549837
 21
17.434824911804181
 31
0.0
  0
LINE
  5
1EA
  8
0
 10
3.4485234700593992
 20
17.4348249118575
 30
0.0
 11
4.0952391426593522
 21
17.702703314457491
 31
0.0
  0
ARC
  5
1EB
  8
0
 10
40.498840384259317
 20
17.711988771557511
 30
0.0
 40
0.2999999999999353
 50
247.5000000000029
 51
337.4999999977768
  0
ARC
  5
1EC
  8
0
 10
3.3337184403593478
 20
17.711988771557511
 30
0.0
 40
0.3000000000000272
 50
202.49999999990609
 51
292.500000002229
  0
LINE
  5
1ED
  8
0
 10
40.776004243959271
 20
17.597183741857521
 30
0.0
 11
43.643034794337602
 21
24.51880778034479
 31
0.0
  0
LINE
  5
1EE
  8
0
 10
0.1895240302593493
 20
24.51880778035752
 30
0.0
 11
3.0565545806057339
 21
17.597183741848418
 31
0.0
  0
ARC
  5
1EF
  8
0
 10
41.333335963059312
 20
25.475516361257519
 30
0.0
 40
2.4999999999999711
 50
337.50000000000051
 51
68.426811018215147
  0
ARC
  5
1F0
  8
0
 10
2.499222861459315
 20
25.475516361257519
 30
0.0
 40
2.500000000000004
 50
111.57318897650011
 51
202.50000000041689
  0
ARC
  5
1F1
  8
0
 10
21.916279412259311
 20
-23.6334974945425
 30
0.0
 40
55.308307367142113
 50
68.426811023600024
 51
111.57318897616111
  0
LINE
  5
1F2
  8
0
 10
41.188797077059348
 20
22.513442693857542
 30
0.0
 11
37.844259845759318
 21
23.898795374957501
 31
0.0
  0
ARC
  5
1F3
  8
0
 10
37.155429667759343
 20
22.235812215757502
 30
0.0
 40
1.8000000007003449
 50
67.500000015842232
 51
112.4999999988616
  0
LINE
  5
1F4
  8
0
 10
42.257215495059313
 20
25.092832929057518
 30
0.0
 11
41.188797077059348
 21
22.513442693857542
 31
0.0
  0
LINE
  5
1F5
  8
0
 10
36.466599489259352
 20
23.898795374957501
 30
0.0
 11
31.67443102463892
 21
21.913814203668839
 31
0.0
  0
ARC
  5
1F6
  8
0
 10
41.333335963059312
 20
25.475516361257519
 30
0.0
 40
0.9999999997383237
 50
337.4999999975285
 51
68.426811054399238
  0
ARC
  5
1F7
  8
0
 10
32.248456172459328
 20
20.527994906657511
 30
0.0
 40
1.4999999980997241
 50
112.49999999999891
 51
157.49999999702729
  0
ARC
  5
1F8
  8
0
 10
21.916279412259311
 20
-23.6334974945425
 30
0.0
 40
53.808307367142021
 50
68.426811024422591
 51
111.5731889760999
  0
LINE
  5
1F9
  8
0
 10
30.862636875459319
 20
21.102020054557499
 30
0.0
 11
28.67542096701504
 21
15.821613744574959
 31
0.0
  0
ARC
  5
1FA
  8
0
 10
2.499222861459315
 20
25.475516361257519
 30
0.0
 40
0.9999999999999339
 50
111.57318897371761
 51
202.50000000050181
  0
ARC
  5
1FB
  8
0
 10
28.213481200759361
 20
16.012955460757549
 30
0.0
 40
0.5000000000000276
 50
172.60630125030599
 51
337.4999999999967
  0
LINE
  5
1FC
  8
0
 10
2.6437617474593931
 20
22.513442693957469
 30
0.0
 11
1.5753433289514751
 21
25.092832928884381
 31
0.0
  0
ARC
  5
1FD
  8
0
 10
21.916279412259311
 20
16.830114952257532
 30
0.0
 40
5.8500000000000538
 50
352.60630125809951
 51
187.39369874159621
  0
LINE
  5
1FE
  8
0
 10
5.9882989787593033
 20
23.898795374957501
 30
0.0
 11
2.6437617474593931
 21
22.513442693957469
 31
0.0
  0
ARC
  5
1FF
  8
0
 10
15.619077623759379
 20
16.01295546085748
 30
0.0
 40
0.4999999999999563
 50
202.49999999990041
 51
7.3936987418997706
  0
ARC
  5
200
  8
0
 10
6.6771291567592916
 20
22.235812215757502
 30
0.0
 40
1.8000000005976591
 50
67.499999999897696
 51
112.4999999841577
  0
LINE
  5
201
  8
0
 10
15.157137857459359
 20
15.821613744657499
 30
0.0
 11
12.969921949070679
 21
21.102020054477968
 31
0.0
  0
LINE
  5
202
  8
0
 10
12.15812779985936
 20
21.91381420365747
 30
0.0
 11
7.3659593352481352
 21
23.898795374828751
 31
0.0
  0
ARC
  5
203
  8
0
 10
11.5841026520593
 20
20.527994906657511
 30
0.0
 40
1.4999999980997241
 50
22.500000000000071
 51
67.500000000553072
  0
LINE
  5
204
  8
0
 10
26.9304797537593
 20
13.02280507155751
 30
0.0
 11
29.44604827785929
 21
6.9496854236575132
 31
0.0
  0
ARC
  5
205
  8
0
 10
31.10903143635937
 20
7.6385156019574652
 30
0.0
 40
1.8000000000005489
 50
202.50000000150479
 51
247.50000000143089
  0
ARC
  5
206
  8
0
 10
26.65331589405935
 20
12.90800004185752
 30
0.0
 40
0.3000000000000386
 50
22.50000000222316
 51
140.37632906929841
  0
LINE
  5
207
  8
0
 10
30.420201258159299
 20
5.975532443457495
 30
0.0
 11
33.764738489359388
 21
4.5901797623575069
 31
0.0
  0
ARC
  5
208
  8
0
 10
21.916279412259311
 20
16.830114952257532
 30
0.0
 40
5.8499999999999908
 50
219.62364125690021
 51
320.3763290693808
  0
LINE
  5
209
  8
0
 10
33.764738489359388
 20
4.5901797623575069
 30
0.0
 11
32.740404054968053
 21
2.1172176782934851
 31
0.0
  0
ARC
  5
20A
  8
0
 10
17.179242930559319
 20
12.90800004185752
 30
0.0
 40
0.3000000000000789
 50
39.624249580407991
 51
157.4999999999971
  0
ARC
  5
20B
  8
0
 10
31.816524522459311
 20
2.4999011106575031
 30
0.0
 40
0.9999999999971755
 50
245.20231062859
 51
337.50000000000108
  0
LINE
  5
20C
  8
0
 10
14.386510546659339
 20
6.9496854236575132
 30
0.0
 11
16.902079070805939
 21
13.02280507156706
 31
0.0
  0
ARC
  5
20D
  8
0
 10
21.916279412259311
 20
-18.92846188954249
 30
0.0
 40
22.604863780832911
 50
65.202310633899955
 51
114.7976893660429
  0
ARC
  5
20E
  8
0
 10
12.72352738815937
 20
7.6385156019574652
 30
0.0
 40
1.8000000000005489
 50
292.50000000029843
 51
337.49999999849382
  0
ARC
  5
20F
  8
0
 10
12.016034302159371
 20
2.4999011106575031
 30
0.0
 40
0.9999999999839232
 50
202.49999999680119
 51
294.79768936749792
  0
LINE
  5
210
  8
0
 10
10.06782033515935
 20
4.5901797623575069
 30
0.0
 11
13.41235756642538
 21
5.9755324434402723
 31
0.0
  0
LINE
  5
211
  8
0
 10
11.09215476965937
 20
2.1172176783575192
 30
0.0
 11
10.06782033515935
 21
4.5901797623575069
 31
0.0
  0
ARC
  5
212
  8
0
 10
24.288499670659348
 20
14.056115845257519
 30
0.0
 40
0.300000000000044
 50
130.535823679196
 51
195.83953533690331
  0
ARC
  5
213
  8
0
 10
23.278368291259309
 20
13.76952450505752
 30
0.0
 40
0.7499999999855747
 50
212.14253446860121
 51
15.83953533471216
  0
ARC
  5
214
  8
0
 10
21.916279412259311
 20
16.830114952257532
 30
0.0
 40
3.350000000009318
 50
310.53582367983148
 51
322.4462461264514
  0
ARC
  5
215
  8
0
 10
22.389304735959289
 20
13.21089583165752
 30
0.0
 40
0.2999999999994847
 50
32.142534465693117
 51
97.446246126187731
  0
ARC
  5
216
  8
0
 10
24.80993320915934
 20
14.60541998355751
 30
0.0
 40
0.2999999999999599
 50
77.142534477026487
 51
142.44624612579631
  0
ARC
  5
217
  8
0
 10
21.916279412259311
 20
16.830114952257532
 30
0.0
 40
3.350000000001788
 50
265.53582367950008
 51
277.44624612556049
  0
LINE
  5
218
  8
0
 10
25.438953152879659
 20
14.769562013692161
 30
0.0
 11
24.876691136459389
 21
14.897897981257531
 31
0.0
  0
ARC
  5
219
  8
0
 10
21.632178863859281
 20
13.191188341557501
 30
0.0
 40
0.3000000000001458
 50
85.535823678820023
 51
150.8395353365004
  0
ARC
  5
21A
  8
0
 10
25.58746535355931
 20
15.42021958825751
 30
0.0
 40
0.6673913043259673
 50
257.14253446879928
 51
60.83953532909954
  0
ARC
  5
21B
  8
0
 10
20.715257435459311
 20
13.7028084096575
 30
0.0
 40
0.7499999999853604
 50
167.1425344688019
 51
330.8395353420384
  0
LINE
  5
21C
  8
0
 10
25.409028860723652
 20
16.28403685288901
 30
0.0
 11
25.912656577059352
 21
16.0030247196575
 31
0.0
  0
ARC
  5
21D
  8
0
 10
19.69158444355935
 20
13.936461155357501
 30
0.0
 40
0.299999999999967
 50
347.14253446755879
 51
52.446246125996161
  0
ARC
  5
21E
  8
0
 10
25.555206023059331
 20
16.546014403857502
 30
0.0
 40
0.2999999999999216
 50
175.53582368254641
 51
240.83953533661531
  0
ARC
  5
21F
  8
0
 10
21.916279412259311
 20
16.830114952257532
 30
0.0
 40
3.3499999999958381
 50
220.5358236795004
 51
232.4462461264342
  0
ARC
  5
220
  8
0
 10
21.916279412259311
 20
16.830114952257532
 30
0.0
 40
3.3500000000122139
 50
355.53582367929948
 51
7.4462461256045556
  0
ARC
  5
221
  8
0
 10
19.142280305259298
 20
14.457894693857501
 30
0.0
 40
0.2999999999998108
 50
40.535823682892037
 51
105.839535336599
  0
ARC
  5
222
  8
0
 10
25.535498532859378
 20
17.303140275957499
 30
0.0
 40
0.2999999999999606
 50
122.142534449777
 51
187.44624612569291
  0
LINE
  5
223
  8
0
 10
19.060397065193111
 20
14.746503659408059
 30
0.0
 11
18.505572906759308
 21
14.58909067105753
 31
0.0
  0
ARC
  5
224
  8
0
 10
24.976869859559319
 20
18.19220383125753
 30
0.0
 40
0.7499999999854554
 50
302.1425344685037
 51
105.8395353421005
  0
ARC
  5
225
  8
0
 10
18.323412365459369
 20
15.2311410508575
 30
0.0
 40
0.6673913043259643
 50
122.1425344688051
 51
285.8395353380173
  0
ARC
  5
226
  8
0
 10
24.690278519259319
 20
19.202335210657509
 30
0.0
 40
0.3000000000034954
 50
220.53582368624771
 51
285.83953533680608
  0
LINE
  5
227
  8
0
 10
17.96834196644329
 20
15.796239418252521
 30
0.0
 11
18.456668484059382
 21
16.103071469857468
 31
0.0
  0
ARC
  5
228
  8
0
 10
21.916279412259311
 20
16.830114952257532
 30
0.0
 40
3.3500000000026371
 50
40.535823679199218
 51
52.446246126487011
  0
ARC
  5
229
  8
0
 10
18.29706029165936
 20
16.3570896285575
 30
0.0
 40
0.2999999999999687
 50
302.14253446341547
 51
7.4462461260000001
  0
ARC
  5
22A
  8
0
 10
24.140974380959278
 20
19.7237687491575
 30
0.0
 40
0.3000000000024927
 50
167.14253446831799
 51
232.44624612540031
  0
ARC
  5
22B
  8
0
 10
21.916279412259311
 20
16.830114952257532
 30
0.0
 40
3.349999999990918
 50
175.53582367930031
 51
187.44624612557831
  0
ARC
  5
22C
  8
0
 10
23.117301389059321
 20
19.957421494857499
 30
0.0
 40
0.7499999999855059
 50
347.14253446849818
 51
150.83953533520531
  0
ARC
  5
22D
  8
0
 10
18.277352801559339
 20
17.114215500657501
 30
0.0
 40
0.2999999999999389
 50
355.53582368106129
 51
60.839535336494031
  0
ARC
  5
22E
  8
0
 10
22.200379960659351
 20
20.469041563057552
 30
0.0
 40
0.3000000000000404
 50
265.53582368478089
 51
330.83953533689788
  0
ARC
  5
22F
  8
0
 10
18.78897286965935
 20
18.031136929057539
 30
0.0
 40
0.7499999999855879
 50
77.142534468597162
 51
240.83953534204321
  0
ARC
  5
230
  8
0
 10
21.916279412259311
 20
16.830114952257532
 30
0.0
 40
3.3499999999983028
 50
85.535823679099423
 51
97.446246125443722
  0
ARC
  5
231
  8
0
 10
19.022625615359399
 20
19.054809920957489
 30
0.0
 40
0.2999999999999881
 50
257.14253446806009
 51
322.4462461259962
  0
ARC
  5
232
  8
0
 10
21.443254088559339
 20
20.449334072857479
 30
0.0
 40
0.2999999999999021
 50
212.14253444978121
 51
277.4462461274922
  0
ARC
  5
233
  8
0
 10
21.916279412259311
 20
16.830114952257532
 30
0.0
 40
3.34999999998869
 50
130.53582367919981
 51
142.44624612643301
  0
ARC
  5
234
  8
0
 10
20.55419053325932
 20
19.890705399557529
 30
0.0
 40
0.7499999999846573
 50
32.142534468494723
 51
195.83953534206469
  0
ARC
  5
235
  8
0
 10
19.54405915385928
 20
19.60411405925754
 30
0.0
 40
0.3000000000008043
 50
310.53582368624961
 51
15.839535336893141
  0
ENDBLK
  5
237
  8
0
  0
ENDSEC
  0
SECTION
  2
ENTITIES
  0
ARC
  5
8F
  8
0
 10
710.82258831038985
 20
536.5731759503376
 30
0.0
 40
21.104863780816871
 50
65.202310633799911
 51
114.7976893661998
  0
ARC
  5
90
  8
0
 10
720.72283342058995
 20
558.00153895053757
 30
0.0
 40
2.5000000000000409
 50
245.20231063262031
 51
337.49999999958658
  0
ARC
  5
91
  8
0
 10
700.92234320029002
 20
558.00153895053757
 30
0.0
 40
2.5000000000000511
 50
202.4999999999971
 51
294.7976893653007
  0
LINE
  5
92
  8
0
 10
723.03253225179003
 20
557.04483036963779
 30
0.0
 11
725.8554788183435
 21
563.86002625652804
 31
0.0
  0
LINE
  5
93
  8
0
 10
695.78969780239004
 20
563.86002625653759
 30
0.0
 11
698.61264436901172
 21
557.04483036962506
 31
0.0
  0
ARC
  5
94
  8
0
 10
725.57831495859
 20
563.97483128623765
 30
0.0
 40
0.3000000000001409
 50
337.49999999999528
 51
67.499999980134206
  0
ARC
  5
95
  8
0
 10
696.06686166219004
 20
563.97483128623765
 30
0.0
 40
0.2999999999999439
 50
112.5000000000213
 51
202.49999999492121
  0
LINE
  5
96
  8
0
 10
725.69311998838998
 20
564.25199514593771
 30
0.0
 11
725.04640431568998
 21
564.5198735485377
 31
0.0
  0
LINE
  5
97
  8
0
 10
696.59877230529003
 20
564.5198735485377
 30
0.0
 11
695.95205663248043
 21
564.25199514599103
 31
0.0
  0
LINE
  5
98
  8
0
 10
725.04640431568998
 20
564.5198735485377
 30
0.0
 11
725.16120934524326
 21
564.79703740842808
 31
0.0
  0
LINE
  5
99
  8
0
 10
696.48396727548993
 20
564.79703740843775
 30
0.0
 11
696.59877230529003
 21
564.5198735485377
 31
0.0
  0
ARC
  5
9A
  8
0
 10
724.88404548548988
 20
564.91184243813757
 30
0.0
 40
0.2999999999999353
 50
337.49999999999881
 51
67.499999980142604
  0
ARC
  5
9B
  8
0
 10
696.76113113529004
 20
564.91184243813757
 30
0.0
 40
0.2999999999999353
 50
112.5000000000129
 51
202.49999999489279
  0
LINE
  5
9C
  8
0
 10
724.99885051528997
 20
565.18900629783775
 30
0.0
 11
724.16735893599946
 21
565.53342138699099
 31
0.0
  0
LINE
  5
9D
  8
0
 10
697.47781768479001
 20
565.53342138693779
 30
0.0
 11
696.64632610558044
 21
565.18900629789096
 31
0.0
  0
ARC
  5
9E
  8
0
 10
724.05255390628986
 20
565.25625752723761
 30
0.0
 40
0.2999999999999878
 50
67.500000000007105
 51
157.50000000507879
  0
ARC
  5
9F
  8
0
 10
697.59262271448995
 20
565.25625752723761
 30
0.0
 40
0.2999999999999788
 50
22.499999999992909
 51
112.5000000022048
  0
LINE
  5
A0
  8
0
 10
723.77539004648986
 20
565.37106255693766
 30
0.0
 11
723.07699278243672
 21
563.6849824101472
 31
0.0
  0
LINE
  5
A1
  8
0
 10
698.56818383839004
 20
563.68498241013776
 30
0.0
 11
697.86978657424334
 21
565.37106255694721
 31
0.0
  0
ARC
  5
A2
  8
0
 10
723.35415664218999
 20
563.57017738043771
 30
0.0
 40
0.2999999999999222
 50
157.49999999999881
 51
210.63010235985021
  0
ARC
  5
A3
  8
0
 10
698.29101997858993
 20
563.57017738043771
 30
0.0
 40
0.2999999999999882
 50
329.36989764580778
 51
22.499999994912951
  0
LINE
  5
A4
  8
0
 10
723.09601430258999
 20
563.41732931043759
 30
0.0
 11
723.58003319080944
 21
562.59987856831492
 31
0.0
  0
LINE
  5
A5
  8
0
 10
698.06514342999003
 20
562.59987856833766
 30
0.0
 11
698.54916231820937
 21
563.41732931046056
 31
0.0
  0
ARC
  5
A6
  8
0
 10
723.32189085119001
 20
562.44703049833765
 30
0.0
 40
0.3000000000000005
 50
337.50000000507879
 51
30.630102354192111
  0
ARC
  5
A7
  8
0
 10
698.32328576959003
 20
562.44703049833765
 30
0.0
 40
0.2999999999999222
 50
149.36989764014979
 51
202.49999999999289
  0
LINE
  5
A8
  8
0
 10
723.59905471098989
 20
562.33222546863772
 30
0.0
 11
723.24507253608999
 21
561.47763690103773
 31
0.0
  0
LINE
  5
A9
  8
0
 10
698.40010408478997
 20
561.47763690103773
 30
0.0
 11
698.04612190983664
 21
562.33222546862817
 31
0.0
  0
LINE
  5
AA
  8
0
 10
723.24507253608999
 20
561.47763690103773
 30
0.0
 11
719.90053530478031
 21
562.86298958208431
 31
0.0
  0
LINE
  5
AB
  8
0
 10
701.74464131598995
 20
562.8629895820377
 30
0.0
 11
698.40010408478997
 21
561.47763690103773
 31
0.0
  0
ARC
  5
AC
  8
0
 10
720.01534033448991
 20
563.1401534418377
 30
0.0
 40
0.3000000000000635
 50
202.50000000220481
 51
247.49999999998701
  0
ARC
  5
AD
  8
0
 10
701.62983628629001
 20
563.1401534418377
 30
0.0
 40
0.2999999999999716
 50
292.4999999949012
 51
337.50000000000711
  0
LINE
  5
AE
  8
0
 10
719.73817647478995
 20
563.02534841213765
 30
0.0
 11
717.75319530359002
 21
567.81751687663768
 31
0.0
  0
LINE
  5
AF
  8
0
 10
703.89198131728995
 20
567.81751687663768
 30
0.0
 11
701.9070001460434
 21
563.02534841212821
 31
0.0
  0
LINE
  5
B0
  8
0
 10
717.75319530359002
 20
567.81751687663768
 30
0.0
 11
721.15476507058997
 21
576.02963274653769
 31
0.0
  0
LINE
  5
B1
  8
0
 10
700.49041155018995
 20
576.02963274653769
 30
0.0
 11
703.89198131728995
 21
567.81751687663768
 31
0.0
  0
LINE
  5
B2
  8
0
 10
721.15476507058997
 20
576.02963274653769
 30
0.0
 11
725.9469335361805
 21
578.01461391539112
 31
0.0
  0
LINE
  5
B3
  8
0
 10
695.69824308458999
 20
578.01461391543774
 30
0.0
 11
700.49041155018995
 21
576.02963274653769
 31
0.0
  0
ARC
  5
B4
  8
0
 10
726.06173856588998
 20
577.73745005563774
 30
0.0
 40
0.2999999999999615
 50
67.500000005078775
 51
112.49999999999289
  0
ARC
  5
B5
  8
0
 10
695.58343805488994
 20
577.73745005563774
 30
0.0
 40
0.2999999999999636
 50
67.500000005078775
 51
112.49999999999289
  0
LINE
  5
B6
  8
0
 10
726.17654359559003
 20
578.01461391543774
 30
0.0
 11
729.52108082679001
 21
576.6292612343376
 31
0.0
  0
LINE
  5
B7
  8
0
 10
692.12409579388986
 20
576.6292612343376
 30
0.0
 11
695.46863302518045
 21
578.01461391539112
 31
0.0
  0
LINE
  5
B8
  8
0
 10
729.52108082679001
 20
576.6292612343376
 30
0.0
 11
729.16709865164341
 21
575.77467266742815
 31
0.0
  0
LINE
  5
B9
  8
0
 10
692.47807796909001
 20
575.77467266743759
 30
0.0
 11
692.12409579388986
 21
576.6292612343376
 31
0.0
  0
ARC
  5
BA
  8
0
 10
728.88993479189003
 20
575.88947769713775
 30
0.0
 40
0.2999999999999836
 50
284.36989765007252
 51
337.50000000000711
  0
ARC
  5
BB
  8
0
 10
692.75524182888989
 20
575.88947769713775
 30
0.0
 40
0.2999999999999836
 50
202.49999999492121
 51
255.63010235409311
  0
LINE
  5
BC
  8
0
 10
728.96438908399
 20
575.59886359153779
 30
0.0
 11
728.04411108310535
 21
575.36309166596595
 31
0.0
  0
LINE
  5
BD
  8
0
 10
693.60106553769003
 20
575.36309166593765
 30
0.0
 11
692.68078753680516
 21
575.59886359150937
 31
0.0
  0
ARC
  5
BE
  8
0
 10
728.11856537518986
 20
575.07247756033769
 30
0.0
 40
0.2999999999999113
 50
104.3698976458912
 51
157.4999999977868
  0
ARC
  5
BF
  8
0
 10
693.52661124558995
 20
575.07247756033769
 30
0.0
 40
0.2999999999999113
 50
22.499999999992909
 51
75.630102349906466
  0
LINE
  5
C0
  8
0
 10
727.84140151549002
 20
575.18728259003774
 30
0.0
 11
727.14300425133649
 21
573.50120244314724
 31
0.0
  0
LINE
  5
C1
  8
0
 10
694.50217236939
 20
573.5012024431378
 30
0.0
 11
693.80377510534333
 21
575.18728259004718
 31
0.0
  0
ARC
  5
C2
  8
0
 10
727.42016811108988
 20
573.38639741343775
 30
0.0
 40
0.2999999999999439
 50
157.50000000000711
 51
247.49999999776679
  0
ARC
  5
C3
  8
0
 10
694.22500850969004
 20
573.38639741343775
 30
0.0
 40
0.2999999999999439
 50
292.49999999999289
 51
22.500000002233168
  0
LINE
  5
C4
  8
0
 10
727.30536308138994
 20
573.10923355373768
 30
0.0
 11
728.13685466068046
 21
572.76481846458421
 31
0.0
  0
LINE
  5
C5
  8
0
 10
693.50832196009003
 20
572.76481846453771
 30
0.0
 11
694.33981353939953
 21
573.10923355368425
 31
0.0
  0
ARC
  5
C6
  8
0
 10
728.25165969038994
 20
573.0419823243376
 30
0.0
 40
0.2999999999999878
 50
247.50000000000711
 51
337.50000000510721
  0
ARC
  5
C7
  8
0
 10
693.39351693038986
 20
573.0419823243376
 30
0.0
 40
0.2999999999999878
 50
202.49999999999289
 51
292.49999999492121
  0
LINE
  5
C8
  8
0
 10
728.52882355019005
 20
572.92717729463766
 30
0.0
 11
728.64362857988999
 21
573.20434115443777
 31
0.0
  0
LINE
  5
C9
  8
0
 10
693.00154804079
 20
573.20434115433773
 30
0.0
 11
693.11635307063648
 21
572.92717729462822
 31
0.0
  0
LINE
  5
CA
  8
0
 10
728.64362857988999
 20
573.20434115443777
 30
0.0
 11
729.29034425268048
 21
572.93646275168442
 31
0.0
  0
LINE
  5
CB
  8
0
 10
692.35483236819005
 20
572.93646275173774
 30
0.0
 11
693.00154804079
 21
573.20434115433773
 31
0.0
  0
ARC
  5
CC
  8
0
 10
729.40514928238986
 20
573.2136266114378
 30
0.0
 40
0.2999999999999353
 50
247.50000000000711
 51
337.49999999776679
  0
ARC
  5
CD
  8
0
 10
692.24002733848999
 20
573.2136266114378
 30
0.0
 40
0.3000000000000272
 50
202.4999999999161
 51
292.50000000222491
  0
LINE
  5
CE
  8
0
 10
729.68231314208992
 20
573.09882158173775
 30
0.0
 11
732.54934369246826
 21
580.02044562022502
 31
0.0
  0
LINE
  5
CF
  8
0
 10
689.09583292839
 20
580.02044562023775
 30
0.0
 11
691.96286347873638
 21
573.09882158172854
 31
0.0
  0
ARC
  5
D0
  8
0
 10
730.23964486118984
 20
580.97715420113775
 30
0.0
 40
2.4999999999999711
 50
337.50000000000051
 51
68.426811018215147
  0
ARC
  5
D1
  8
0
 10
691.40553175958996
 20
580.97715420113775
 30
0.0
 40
2.500000000000004
 50
111.57318897650011
 51
202.50000000041689
  0
ARC
  5
D2
  8
0
 10
710.82258831038985
 20
531.86814034533768
 30
0.0
 40
55.308307367142113
 50
68.426811023600052
 51
111.57318897616111
  0
LINE
  5
D3
  8
0
 10
730.09510597518988
 20
578.01508053373777
 30
0.0
 11
726.75056874388986
 21
579.40043321483756
 31
0.0
  0
ARC
  5
D4
  8
0
 10
726.06173856588998
 20
577.73745005563774
 30
0.0
 40
1.8000000007003449
 50
67.500000015841536
 51
112.49999999886229
  0
LINE
  5
D5
  8
0
 10
731.16352439318985
 20
580.59447076893775
 30
0.0
 11
730.09510597518988
 21
578.01508053373777
 31
0.0
  0
LINE
  5
D6
  8
0
 10
725.37290838738988
 20
579.40043321483756
 30
0.0
 11
720.58073992276945
 21
577.41545204354895
 31
0.0
  0
ARC
  5
D7
  8
0
 10
730.23964486118984
 20
580.97715420113775
 30
0.0
 40
0.9999999997383237
 50
337.4999999975285
 51
68.42681105439803
  0
ARC
  5
D8
  8
0
 10
721.15476507058997
 20
576.02963274653769
 30
0.0
 40
1.4999999980997241
 50
112.4999999999997
 51
157.49999999703141
  0
ARC
  5
D9
  8
0
 10
710.82258831038985
 20
531.86814034533768
 30
0.0
 40
53.808307367142021
 50
68.426811024422591
 51
111.5731889760999
  0
LINE
  5
DA
  8
0
 10
719.76894577358985
 20
576.60365789443756
 30
0.0
 11
717.58172986514558
 21
571.32325158445508
 31
0.0
  0
ARC
  5
DB
  8
0
 10
691.40553175958996
 20
580.97715420113775
 30
0.0
 40
0.9999999999999339
 50
111.57318897371761
 51
202.50000000050181
  0
ARC
  5
DC
  8
0
 10
717.11979009889001
 20
571.51459330063767
 30
0.0
 40
0.5000000000000276
 50
172.60630125030599
 51
337.4999999999967
  0
LINE
  5
DD
  8
0
 10
691.55007064559004
 20
578.0150805338377
 30
0.0
 11
690.48165222708212
 21
580.59447076876461
 31
0.0
  0
ARC
  5
DE
  8
0
 10
710.82258831038985
 20
572.33175279213765
 30
0.0
 40
5.8500000000000538
 50
352.60630125809951
 51
187.39369874159621
  0
LINE
  5
DF
  8
0
 10
694.89460787688995
 20
579.40043321483756
 30
0.0
 11
691.55007064559004
 21
578.0150805338377
 31
0.0
  0
ARC
  5
E0
  8
0
 10
704.52538652189003
 20
571.5145933007376
 30
0.0
 40
0.4999999999999563
 50
202.49999999990041
 51
7.3936987418997706
  0
ARC
  5
E1
  8
0
 10
695.58343805488994
 20
577.73745005563774
 30
0.0
 40
1.8000000005976591
 50
67.499999999897696
 51
112.49999998415841
  0
LINE
  5
E2
  8
0
 10
704.06344675559001
 20
571.32325158453773
 30
0.0
 11
701.87623084720121
 21
576.60365789435821
 31
0.0
  0
LINE
  5
E3
  8
0
 10
701.06443669798989
 20
577.41545204353758
 30
0.0
 11
696.27226823337867
 21
579.40043321470887
 31
0.0
  0
ARC
  5
E4
  8
0
 10
700.49041155018995
 20
576.02963274653769
 30
0.0
 40
1.4999999980997241
 50
22.49999999999806
 51
67.500000000552234
  0
LINE
  5
E5
  8
0
 10
715.83678865188995
 20
568.52444291143775
 30
0.0
 11
718.35235717598994
 21
562.45132326353769
 31
0.0
  0
ARC
  5
E6
  8
0
 10
720.01534033448991
 20
563.1401534418377
 30
0.0
 40
1.8000000000005489
 50
202.50000000150649
 51
247.50000000143089
  0
ARC
  5
E7
  8
0
 10
715.55962479218988
 20
568.40963788173781
 30
0.0
 40
0.3000000000000386
 50
22.500000002213131
 51
140.37632906929841
  0
LINE
  5
E8
  8
0
 10
719.32651015628994
 20
561.47717028333773
 30
0.0
 11
722.67104738749003
 21
560.09181760223771
 31
0.0
  0
ARC
  5
E9
  8
0
 10
710.82258831038985
 20
572.33175279213765
 30
0.0
 40
5.8499999999999908
 50
219.62364125690021
 51
320.3763290693812
  0
LINE
  5
EA
  8
0
 10
722.67104738749003
 20
560.09181760223771
 30
0.0
 11
721.6467129530987
 21
557.61885551817375
 31
0.0
  0
ARC
  5
EB
  8
0
 10
706.08555182868986
 20
568.40963788173781
 30
0.0
 40
0.3000000000000789
 50
39.624249580399642
 51
157.50000000000711
  0
ARC
  5
EC
  8
0
 10
720.72283342058995
 20
558.00153895053757
 30
0.0
 40
0.9999999999971755
 50
245.20231062858929
 51
337.50000000000563
  0
LINE
  5
ED
  8
0
 10
703.29281944478987
 20
562.45132326353769
 30
0.0
 11
705.80838796893647
 21
568.52444291144718
 31
0.0
  0
ARC
  5
EE
  8
0
 10
710.82258831038985
 20
536.5731759503376
 30
0.0
 40
22.604863780832911
 50
65.202310633899955
 51
114.7976893660429
  0
ARC
  5
EF
  8
0
 10
701.62983628629001
 20
563.1401534418377
 30
0.0
 40
1.8000000000005489
 50
292.50000000029769
 51
337.499999998492
  0
ARC
  5
F0
  8
0
 10
700.92234320029002
 20
558.00153895053757
 30
0.0
 40
0.9999999999839232
 50
202.49999999679821
 51
294.79768936749929
  0
LINE
  5
F1
  8
0
 10
698.97412923329
 20
560.09181760223771
 30
0.0
 11
702.31866646455603
 21
561.47717028332045
 31
0.0
  0
LINE
  5
F2
  8
0
 10
699.99846366779002
 20
557.61885551823775
 30
0.0
 11
698.97412923329
 21
560.09181760223771
 31
0.0
  0
ARC
  5
F3
  8
0
 10
713.19480856878988
 20
569.55775368513775
 30
0.0
 40
0.300000000000044
 50
130.535823679196
 51
195.83953533690331
  0
ARC
  5
F4
  8
0
 10
712.18467718938984
 20
569.27116234493758
 30
0.0
 40
0.7499999999855747
 50
212.1425344685976
 51
15.83953533471632
  0
ARC
  5
F5
  8
0
 10
710.82258831038985
 20
572.33175279213765
 30
0.0
 40
3.350000000009318
 50
310.53582367983148
 51
322.44624612645219
  0
ARC
  5
F6
  8
0
 10
711.29561363408993
 20
568.71253367153781
 30
0.0
 40
0.2999999999994847
 50
32.142534465683923
 51
97.446246126189124
  0
ARC
  5
F7
  8
0
 10
713.71624210728999
 20
570.1070578234378
 30
0.0
 40
0.2999999999999599
 50
77.142534477024071
 51
142.44624612579631
  0
ARC
  5
F8
  8
0
 10
710.82258831038985
 20
572.33175279213765
 30
0.0
 40
3.350000000001788
 50
265.5358236795002
 51
277.44624612556049
  0
LINE
  5
F9
  8
0
 10
714.34526205101031
 20
570.2711998535724
 30
0.0
 11
713.78300003459003
 21
570.39953582113765
 31
0.0
  0
ARC
  5
FA
  8
0
 10
710.53848776198993
 20
568.69282618143779
 30
0.0
 40
0.3000000000001458
 50
85.535823678818332
 51
150.8395353365099
  0
ARC
  5
FB
  8
0
 10
714.49377425168996
 20
570.92185742813774
 30
0.0
 40
0.6673913043259673
 50
257.14253446879928
 51
60.839535329101928
  0
ARC
  5
FC
  8
0
 10
709.62156633358995
 20
569.2044462495378
 30
0.0
 40
0.7499999999853604
 50
167.1425344688061
 51
330.83953534203471
  0
LINE
  5
FD
  8
0
 10
714.3153377588543
 20
571.78567469276925
 30
0.0
 11
714.81896547519
 21
571.50466255953779
 31
0.0
  0
ARC
  5
FE
  8
0
 10
708.59789334169
 20
569.43809899523774
 30
0.0
 40
0.299999999999967
 50
347.14253446755879
 51
52.446246125996161
  0
ARC
  5
FF
  8
0
 10
714.46151492118986
 20
572.04765224373773
 30
0.0
 40
0.2999999999999216
 50
175.53582368254641
 51
240.83953533661531
  0
ARC
  5
100
  8
0
 10
710.82258831038985
 20
572.33175279213765
 30
0.0
 40
3.3499999999958381
 50
220.5358236795004
 51
232.4462461264342
  0
ARC
  5
101
  8
0
 10
710.82258831038985
 20
572.33175279213765
 30
0.0
 40
3.3500000000122139
 50
355.53582367929948
 51
7.4462461256045556
  0
ARC
  5
102
  8
0
 10
708.04858920338995
 20
569.95953253373773
 30
0.0
 40
0.2999999999998108
 50
40.535823682892037
 51
105.839535336599
  0
ARC
  5
103
  8
0
 10
714.44180743099002
 20
572.80477811583773
 30
0.0
 40
0.2999999999999606
 50
122.142534449777
 51
187.44624612569291
  0
LINE
  5
104
  8
0
 10
707.96670596332365
 20
570.24814149928829
 30
0.0
 11
707.41188180488996
 21
570.09072851093765
 31
0.0
  0
ARC
  5
105
  8
0
 10
713.88317875768985
 20
573.69384167113765
 30
0.0
 40
0.7499999999854554
 50
302.1425344685037
 51
105.8395353421005
  0
ARC
  5
106
  8
0
 10
707.22972126359002
 20
570.73277889073768
 30
0.0
 40
0.6673913043259643
 50
122.1425344688077
 51
285.83953533801599
  0
ARC
  5
107
  8
0
 10
713.59658741738997
 20
574.70397305053768
 30
0.0
 40
0.3000000000034954
 50
220.5358236862559
 51
285.83953533680312
  0
LINE
  5
108
  8
0
 10
706.87465086457394
 20
571.29787725813264
 30
0.0
 11
707.36297738219002
 21
571.6047093097377
 31
0.0
  0
ARC
  5
109
  8
0
 10
710.82258831038985
 20
572.33175279213765
 30
0.0
 40
3.3500000000026371
 50
40.535823679199218
 51
52.446246126487011
  0
ARC
  5
10A
  8
0
 10
707.20336918979001
 20
571.85872746843768
 30
0.0
 40
0.2999999999999687
 50
302.14253446340979
 51
7.4462461260000792
  0
ARC
  5
10B
  8
0
 10
713.04728327908992
 20
575.22540658903756
 30
0.0
 40
0.3000000000024927
 50
167.14253446830739
 51
232.44624612539371
  0
ARC
  5
10C
  8
0
 10
710.82258831038985
 20
572.33175279213765
 30
0.0
 40
3.349999999990918
 50
175.53582367930031
 51
187.44624612557729
  0
ARC
  5
10D
  8
0
 10
712.02361028718985
 20
575.45905933473773
 30
0.0
 40
0.7499999999855059
 50
347.14253446849818
 51
150.83953533520531
  0
ARC
  5
10E
  8
0
 10
707.18366169968999
 20
572.6158533405378
 30
0.0
 40
0.2999999999999389
 50
355.53582368105049
 51
60.839535336488737
  0
ARC
  5
10F
  8
0
 10
711.10668885878999
 20
575.97067940293766
 30
0.0
 40
0.3000000000000404
 50
265.53582368478089
 51
330.83953533689788
  0
ARC
  5
110
  8
0
 10
707.69528176778988
 20
573.53277476893766
 30
0.0
 40
0.7499999999855879
 50
77.142534468597162
 51
240.83953534204321
  0
ARC
  5
111
  8
0
 10
710.82258831038985
 20
572.33175279213765
 30
0.0
 40
3.3499999999983028
 50
85.535823679099423
 51
97.446246125443722
  0
ARC
  5
112
  8
0
 10
707.92893451349005
 20
574.55644776083773
 30
0.0
 40
0.2999999999999881
 50
257.14253446806009
 51
322.4462461259962
  0
ARC
  5
113
  8
0
 10
710.34956298668988
 20
575.95097191273771
 30
0.0
 40
0.2999999999999021
 50
212.14253444978121
 51
277.4462461274922
  0
ARC
  5
114
  8
0
 10
710.82258831038985
 20
572.33175279213765
 30
0.0
 40
3.34999999998869
 50
130.53582367919981
 51
142.44624612643301
  0
ARC
  5
115
  8
0
 10
709.46049943138996
 20
575.39234323943765
 30
0.0
 40
0.7499999999846573
 50
32.142534468494723
 51
195.83953534206881
  0
ARC
  5
116
  8
0
 10
708.45036805198993
 20
575.10575189913777
 30
0.0
 40
0.3000000000008043
 50
310.53582368624961
 51
15.839535336882671
  0
ENDSEC
  0
EOF
