  0
SECTION
  2
HEADER
  9
$ACADVER
  1
AC1009
  9
$INSBASE
 10
0.0
 20
0.0
 30
0.0
  9
$EXTMIN
 10
384.92523335959442
 20
492.67213566446691
 30
-0.0015258207003583
  9
$EXTMAX
 10
511.56097520557341
 20
522.78634738990365
 30
0.0000000349246037
  9
$LIMMIN
 10
0.0
 20
0.0
  9
$LIMMAX
 10
420.0
 20
297.0
  9
$ORTHOMODE
 70
     0
  9
$REGENMODE
 70
     1
  9
$FILLMODE
 70
     1
  9
$QTEXTMODE
 70
     0
  9
$MIRRTEXT
 70
     0
  9
$DRAGMODE
 70
     2
  9
$LTSCALE
 40
1.0
  9
$OSMODE
 70
  3071
  9
$ATTMODE
 70
     1
  9
$TEXTSIZE
 40
2.5
  9
$TRACEWID
 40
1.0
  9
$TEXTSTYLE
  7
STANDARD
  9
$CLAYER
  8
0
  9
$CELTYPE
  6
BYLAYER
  9
$CECOLOR
 62
   256
  9
$DIMSCALE
 40
1.0
  9
$DIMASZ
 40
2.5
  9
$DIMEXO
 40
0.625
  9
$DIMDLI
 40
3.75
  9
$DIMRND
 40
0.0
  9
$DIMDLE
 40
0.0
  9
$DIMEXE
 40
1.25
  9
$DIMTP
 40
0.0
  9
$DIMTM
 40
0.0
  9
$DIMTXT
 40
2.5
  9
$DIMCEN
 40
2.5
  9
$DIMTSZ
 40
0.0
  9
$DIMTOL
 70
     0
  9
$DIMLIM
 70
     0
  9
$DIMTIH
 70
     0
  9
$DIMTOH
 70
     0
  9
$DIMSE1
 70
     0
  9
$DIMSE2
 70
     0
  9
$DIMTAD
 70
     1
  9
$DIMZIN
 70
     8
  9
$DIMBLK
  1

  9
$DIMASO
 70
     1
  9
$DIMSHO
 70
     1
  9
$DIMPOST
  1

  9
$DIMAPOST
  1

  9
$DIMALT
 70
     0
  9
$DIMALTD
 70
     3
  9
$DIMALTF
 40
0.03937007874016
  9
$DIMLFAC
 40
1.0
  9
$DIMTOFL
 70
     1
  9
$DIMTVP
 40
0.0
  9
$DIMTIX
 70
     0
  9
$DIMSOXD
 70
     0
  9
$DIMSAH
 70
     0
  9
$DIMBLK1
  1

  9
$DIMBLK2
  1

  9
$DIMSTYLE
  2
ISO-25
  9
$DIMCLRD
 70
     0
  9
$DIMCLRE
 70
     0
  9
$DIMCLRT
 70
     0
  9
$DIMTFAC
 40
1.0
  9
$DIMGAP
 40
0.625
  9
$LUNITS
 70
     2
  9
$LUPREC
 70
     4
  9
$SKETCHINC
 40
1.0
  9
$FILLETRAD
 40
0.0
  9
$AUNITS
 70
     0
  9
$AUPREC
 70
     0
  9
$MENU
  1
.
  9
$ELEVATION
 40
0.0
  9
$PELEVATION
 40
0.0
  9
$THICKNESS
 40
0.0
  9
$LIMCHECK
 70
     0
  9
$BLIPMODE
 70
     0
  9
$CHAMFERA
 40
0.0
  9
$CHAMFERB
 40
0.0
  9
$SKPOLY
 70
     0
  9
$TDCREATE
 40
2456589.3939416902
  9
$TDUPDATE
 40
2456589.3940388309
  9
$TDINDWG
 40
0.0000973264
  9
$TDUSRTIMER
 40
0.0000973264
  9
$USRTIMER
 70
     1
  9
$ANGBASE
 50
0.0
  9
$ANGDIR
 70
     0
  9
$PDMODE
 70
     0
  9
$PDSIZE
 40
0.0
  9
$PLINEWID
 40
0.0
  9
$COORDS
 70
     0
  9
$SPLFRAME
 70
     0
  9
$SPLINETYPE
 70
     6
  9
$SPLINESEGS
 70
     8
  9
$ATTDIA
 70
     0
  9
$ATTREQ
 70
     1
  9
$HANDLING
 70
     1
  9
$HANDSEED
  5
139
  9
$SURFTAB1
 70
     6
  9
$SURFTAB2
 70
     6
  9
$SURFTYPE
 70
     6
  9
$SURFU
 70
     6
  9
$SURFV
 70
     6
  9
$UCSNAME
  2

  9
$UCSORG
 10
0.0
 20
0.0
 30
0.0
  9
$UCSXDIR
 10
1.0
 20
0.0
 30
0.0
  9
$UCSYDIR
 10
0.0
 20
1.0
 30
0.0
  9
$PUCSNAME
  2

  9
$PUCSORG
 10
0.0
 20
0.0
 30
0.0
  9
$PUCSXDIR
 10
1.0
 20
0.0
 30
0.0
  9
$PUCSYDIR
 10
0.0
 20
1.0
 30
0.0
  9
$USERI1
 70
     0
  9
$USERI2
 70
     0
  9
$USERI3
 70
     0
  9
$USERI4
 70
     0
  9
$USERI5
 70
     0
  9
$USERR1
 40
0.0
  9
$USERR2
 40
0.0
  9
$USERR3
 40
0.0
  9
$USERR4
 40
0.0
  9
$USERR5
 40
0.0
  9
$WORLDVIEW
 70
     1
  9
$SHADEDGE
 70
     3
  9
$SHADEDIF
 70
    70
  9
$TILEMODE
 70
     1
  9
$MAXACTVP
 70
    64
  9
$PLIMCHECK
 70
     0
  9
$PEXTMIN
 10
0.0
 20
0.0
 30
0.0
  9
$PEXTMAX
 10
0.0
 20
0.0
 30
0.0
  9
$PLIMMIN
 10
0.0
 20
0.0
  9
$PLIMMAX
 10
12.0
 20
9.0
  9
$UNITMODE
 70
     0
  9
$VISRETAIN
 70
     1
  9
$PLINEGEN
 70
     0
  9
$PSLTSCALE
 70
     1
  0
ENDSEC
  0
SECTION
  2
TABLES
  0
TABLE
  2
VPORT
 70
     2
  0
VPORT
  2
*ACTIVE
 70
     0
 10
0.0
 20
0.0
 11
1.0
 21
1.0
 12
448.24310428258377
 22
507.72924152718531
 13
0.0
 23
0.0
 14
10.0
 24
10.0
 15
10.0
 25
10.0
 16
0.0
 26
0.0
 36
1.0
 17
0.0
 27
0.0
 37
0.0
 40
61.322702754991482
 41
2.0743034055727549
 42
50.0
 43
0.0
 44
0.0
 50
0.0
 51
0.0
 71
     0
 72
  1000
 73
     1
 74
     3
 75
     0
 76
     0
 77
     0
 78
     0
  0
ENDTAB
  0
TABLE
  2
LTYPE
 70
     1
  0
LTYPE
  2
CONTINUOUS
 70
     0
  3
Solid line
 72
    65
 73
     0
 40
0.0
  0
ENDTAB
  0
TABLE
  2
LAYER
 70
     1
  0
LAYER
  2
0
 70
     0
 62
     7
  6
CONTINUOUS
  0
ENDTAB
  0
TABLE
  2
STYLE
 70
     2
  0
STYLE
  2
STANDARD
 70
     0
 40
0.0
 41
1.0
 50
0.0
 71
     0
 42
2.5
  3
txt
  4

  0
STYLE
  2
ROMANT
 70
     0
 40
2.2999999999999989
 41
1.0
 50
15.0
 71
     0
 42
2.5
  3
romant.shx
  4

  0
ENDTAB
  0
TABLE
  2
VIEW
 70
     0
  0
ENDTAB
  0
TABLE
  2
UCS
 70
     0
  0
ENDTAB
  0
TABLE
  2
APPID
 70
     2
  0
APPID
  2
ACAD
 70
     0
  0
APPID
  2
DCO15
 70
     0
  0
ENDTAB
  0
TABLE
  2
DIMSTYLE
 70
     3
  0
DIMSTYLE
  2
ISO-25
 70
     0
  3

  4

  5

  6

  7

 40
1.0
 41
2.5
 42
0.625
 43
3.75
 44
1.25
 45
0.0
 46
0.0
 47
0.0
 48
0.0
140
2.5
141
2.5
142
0.0
143
0.03937007874016
144
1.0
145
0.0
146
1.0
147
0.625
 71
     0
 72
     0
 73
     0
 74
     0
 75
     0
 76
     0
 77
     1
 78
     8
170
     0
171
     3
172
     1
173
     0
174
     0
175
     0
176
     0
177
     0
178
     0
  0
DIMSTYLE
  2
STANDARD
 70
     0
  3

  4

  5

  6

  7

 40
1.0
 41
0.18
 42
0.0625
 43
0.38
 44
0.18
 45
0.0
 46
0.0
 47
0.0
 48
0.0
140
0.18
141
0.09
142
0.0
143
25.399999999999999
144
1.0
145
0.0
146
1.0
147
0.09
 71
     0
 72
     0
 73
     1
 74
     1
 75
     0
 76
     0
 77
     0
 78
     0
170
     0
171
     2
172
     0
173
     0
174
     0
175
     0
176
     0
177
     0
178
     0
  0
DIMSTYLE
  2
ISO-25_1_E_1
 70
     0
  3

  4

  5

  6

  7

 40
1.0
 41
2.5
 42
0.0
 43
3.75
 44
0.5
 45
0.0
 46
0.0
 47
0.0
 48
0.0
140
1.0
141
0.2
142
0.0
143
0.03937007874016
144
1.0
145
0.0
146
1.0
147
0.4
 71
     0
 72
     0
 73
     0
 74
     0
 75
     0
 76
     0
 77
     1
 78
     8
170
     0
171
     3
172
     0
173
     0
174
     0
175
     0
176
   242
177
   242
178
   242
  0
ENDTAB
  0
ENDSEC
  0
SECTION
  2
BLOCKS
  0
BLOCK
  8
0
  2
$MODEL_SPACE
 70
     0
 10
0.0
 20
0.0
 30
0.0
  3
$MODEL_SPACE
  1

  0
ENDBLK
  5
21
  8
0
  0
BLOCK
 67
     1
  8
0
  2
$PAPER_SPACE
 70
     0
 10
0.0
 20
0.0
 30
0.0
  3
$PAPER_SPACE
  1

  0
ENDBLK
  5
53
 67
     1
  8
0
  0
BLOCK
  8
0
  2
*X2
 70
     1
 10
0.0
 20
0.0
 30
0.0
  3
*X2
  1

  0
LINE
  5
B1
  8
0
 62
     0
 10
125.95225455684989
 20
24.999999997769979
 30
0.0
 11
126.4951632930366
 21
25.542908733956718
 31
0.0
  0
LINE
  5
B2
  8
0
 62
     0
 10
124.6052161386895
 20
24.999999997769919
 30
0.0
 11
126.4951632930365
 21
26.889947152117031
 31
0.0
  0
LINE
  5
B3
  8
0
 62
     0
 10
123.2581777205291
 20
24.999999997769979
 30
0.0
 11
126.4951632930366
 21
28.236985570277401
 31
0.0
  0
LINE
  5
B4
  8
0
 62
     0
 10
121.9111393023688
 20
24.999999997770029
 30
0.0
 11
126.4951632930365
 21
29.584023988437821
 31
0.0
  0
LINE
  5
B5
  8
0
 62
     0
 10
120.5641008842083
 20
24.999999997769919
 30
0.0
 11
125.5641008842083
 21
29.999999997769859
 31
0.0
  0
LINE
  5
B6
  8
0
 62
     0
 10
119.21706246604801
 20
24.999999997769919
 30
0.0
 11
124.21706246604791
 21
29.999999997769919
 31
0.0
  0
LINE
  5
B7
  8
0
 62
     0
 10
117.8700240478876
 20
24.999999997769919
 30
0.0
 11
122.8700240478875
 21
29.999999997769859
 31
0.0
  0
LINE
  5
B8
  8
0
 62
     0
 10
116.5229856297272
 20
24.999999997769979
 30
0.0
 11
121.5229856297272
 21
29.999999997769919
 31
0.0
  0
LINE
  5
B9
  8
0
 62
     0
 10
115.17594721156691
 20
24.999999997769919
 30
0.0
 11
120.17594721156679
 21
29.999999997769919
 31
0.0
  0
LINE
  5
BA
  8
0
 62
     0
 10
113.8289087934065
 20
24.999999997769919
 30
0.0
 11
118.8289087934064
 21
29.999999997769859
 31
0.0
  0
LINE
  5
BB
  8
0
 62
     0
 10
112.4818703752461
 20
24.999999997770029
 30
0.0
 11
117.4818703752461
 21
29.999999997769979
 31
0.0
  0
LINE
  5
BC
  8
0
 62
     0
 10
111.13483195708569
 20
24.999999997769919
 30
0.0
 11
116.13483195708569
 21
29.999999997769859
 31
0.0
  0
LINE
  5
BD
  8
0
 62
     0
 10
109.7877935389254
 20
24.999999997769859
 30
0.0
 11
114.7877935389253
 21
29.999999997769859
 31
0.0
  0
LINE
  5
BE
  8
0
 62
     0
 10
108.4407551207649
 20
24.999999997769919
 30
0.0
 11
113.4407551207649
 21
29.999999997769859
 31
0.0
  0
LINE
  5
BF
  8
0
 62
     0
 10
107.0937167026046
 20
24.999999997769979
 30
0.0
 11
112.0937167026045
 21
29.999999997769919
 31
0.0
  0
LINE
  5
C0
  8
0
 62
     0
 10
105.7466782844443
 20
24.999999997769919
 30
0.0
 11
110.7466782844442
 21
29.999999997769859
 31
0.0
  0
LINE
  5
C1
  8
0
 62
     0
 10
104.39963986628381
 20
24.999999997769859
 30
0.0
 11
109.39963986628381
 21
29.999999997769919
 31
0.0
  0
LINE
  5
C2
  8
0
 62
     0
 10
103.0526014481234
 20
24.999999997769919
 30
0.0
 11
108.0526014481234
 21
29.999999997769979
 31
0.0
  0
LINE
  5
C3
  8
0
 62
     0
 10
101.7055630299631
 20
24.999999997769919
 30
0.0
 11
106.7055630299631
 21
29.999999997769919
 31
0.0
  0
LINE
  5
C4
  8
0
 62
     0
 10
100.35852461180269
 20
24.999999997769859
 30
0.0
 11
105.35852461180269
 21
29.999999997769919
 31
0.0
  0
LINE
  5
C5
  8
0
 62
     0
 10
99.011486193642327
 20
24.999999997769919
 30
0.0
 11
104.0114861936422
 21
29.999999997769859
 31
0.0
  0
LINE
  5
C6
  8
0
 62
     0
 10
97.664447775482003
 20
24.999999997769919
 30
0.0
 11
102.6644477754819
 21
29.999999997769919
 31
0.0
  0
LINE
  5
C7
  8
0
 62
     0
 10
96.317409357321665
 20
24.999999997769919
 30
0.0
 11
101.31740935732159
 21
29.999999997769859
 31
0.0
  0
LINE
  5
C8
  8
0
 62
     0
 10
94.970370939161285
 20
24.999999997769979
 30
0.0
 11
99.970370939161228
 21
29.999999997769919
 31
0.0
  0
LINE
  5
C9
  8
0
 62
     0
 10
93.623332521000805
 20
24.999999997769859
 30
0.0
 11
98.623332521000862
 21
29.999999997769919
 31
0.0
  0
LINE
  5
CA
  8
0
 62
     0
 10
92.276294102840495
 20
24.999999997769859
 30
0.0
 11
97.276294102840495
 21
29.999999997769919
 31
0.0
  0
LINE
  5
CB
  8
0
 62
     0
 10
90.929255684680072
 20
24.999999997769859
 30
0.0
 11
95.929255684680129
 21
29.999999997769919
 31
0.0
  0
LINE
  5
CC
  8
0
 62
     0
 10
89.582217266519748
 20
24.999999997769919
 30
0.0
 11
94.582217266519706
 21
29.999999997769859
 31
0.0
  0
LINE
  5
CD
  8
0
 62
     0
 10
88.235178848359396
 20
24.999999997769919
 30
0.0
 11
93.235178848359396
 21
29.999999997769979
 31
0.0
  0
LINE
  5
CE
  8
0
 62
     0
 10
86.888140430198973
 20
24.999999997769859
 30
0.0
 11
91.888140430199087
 21
29.999999997769979
 31
0.0
  0
LINE
  5
CF
  8
0
 62
     0
 10
85.541102012038664
 20
24.999999997769979
 30
0.0
 11
90.541102012038607
 21
29.999999997769919
 31
0.0
  0
LINE
  5
D0
  8
0
 62
     0
 10
84.194063593878184
 20
24.999999997769859
 30
0.0
 11
89.194063593878241
 21
29.999999997769859
 31
0.0
  0
LINE
  5
D1
  8
0
 62
     0
 10
82.847025175717874
 20
24.999999997769859
 30
0.0
 11
87.847025175717874
 21
29.999999997769919
 31
0.0
  0
LINE
  5
D2
  8
0
 62
     0
 10
81.499986757557437
 20
24.999999997769859
 30
0.0
 11
86.499986757557508
 21
29.999999997769919
 31
0.0
  0
LINE
  5
D3
  8
0
 62
     0
 10
80.152948339397142
 20
24.999999997769919
 30
0.0
 11
85.152948339397142
 21
29.999999997769919
 31
0.0
  0
LINE
  5
D4
  8
0
 62
     0
 10
78.805909921236704
 20
24.999999997769919
 30
0.0
 11
83.805909921236776
 21
29.999999997769979
 31
0.0
  0
LINE
  5
D5
  8
0
 62
     0
 10
77.458871503076352
 20
24.999999997769809
 30
0.0
 11
82.458871503076466
 21
29.999999997769919
 31
0.0
  0
LINE
  5
D6
  8
0
 62
     0
 10
76.111833084915929
 20
24.999999997769809
 30
0.0
 11
81.111833084915986
 21
29.999999997769859
 31
0.0
  0
LINE
  5
D7
  8
0
 62
     0
 10
74.764794666755563
 20
24.999999997769859
 30
0.0
 11
79.76479466675562
 21
29.999999997769859
 31
0.0
  0
LINE
  5
D8
  8
0
 62
     0
 10
73.417756248595197
 20
24.999999997769859
 30
0.0
 11
78.417756248595254
 21
29.999999997769919
 31
0.0
  0
LINE
  5
D9
  8
0
 62
     0
 10
72.07071783043483
 20
24.999999997769748
 30
0.0
 11
77.070717830434944
 21
29.999999997769919
 31
0.0
  0
LINE
  5
DA
  8
0
 62
     0
 10
70.723679412274521
 20
24.999999997769859
 30
0.0
 11
75.723679412274521
 21
29.999999997769919
 31
0.0
  0
LINE
  5
DB
  8
0
 62
     0
 10
69.376640994114098
 20
24.999999997769919
 30
0.0
 11
74.376640994114155
 21
29.999999997769979
 31
0.0
  0
LINE
  5
DC
  8
0
 62
     0
 10
68.029602575953788
 20
24.999999997769919
 30
0.0
 11
73.029602575953845
 21
29.999999997769919
 31
0.0
  0
LINE
  5
DD
  8
0
 62
     0
 10
66.682564157793308
 20
24.999999997769809
 30
0.0
 11
71.682564157793422
 21
29.999999997769919
 31
0.0
  0
LINE
  5
DE
  8
0
 62
     0
 10
65.335525739632999
 20
24.999999997769809
 30
0.0
 11
70.335525739633113
 21
29.999999997769979
 31
0.0
  0
LINE
  5
DF
  8
0
 62
     0
 10
63.988487321472569
 20
24.999999997769859
 30
0.0
 11
68.988487321472633
 21
29.999999997769919
 31
0.0
  0
LINE
  5
E0
  8
0
 62
     0
 10
62.641448903312273
 20
24.999999997769859
 30
0.0
 11
67.64144890331238
 21
29.999999997769979
 31
0.0
  0
LINE
  5
E1
  8
0
 62
     0
 10
61.294410485151843
 20
24.999999997769859
 30
0.0
 11
66.2944104851519
 21
29.999999997769919
 31
0.0
  0
LINE
  5
E2
  8
0
 62
     0
 10
59.947372066991477
 20
24.999999997769859
 30
0.0
 11
64.947372066991534
 21
29.999999997769919
 31
0.0
  0
LINE
  5
E3
  8
0
 62
     0
 10
58.600333648831167
 20
24.999999997769919
 30
0.0
 11
63.600333648831167
 21
29.999999997769919
 31
0.0
  0
LINE
  5
E4
  8
0
 62
     0
 10
57.253295230670737
 20
24.999999997769859
 30
0.0
 11
62.253295230670801
 21
29.999999997769919
 31
0.0
  0
LINE
  5
E5
  8
0
 62
     0
 10
55.906256812510321
 20
24.999999997769809
 30
0.0
 11
60.906256812510492
 21
29.999999997769919
 31
0.0
  0
LINE
  5
E6
  8
0
 62
     0
 10
54.559218394349962
 20
24.999999997769859
 30
0.0
 11
59.559218394350061
 21
29.999999997769979
 31
0.0
  0
LINE
  5
E7
  8
0
 62
     0
 10
53.212179976189653
 20
24.999999997769859
 30
0.0
 11
58.212179976189653
 21
29.999999997769859
 31
0.0
  0
LINE
  5
E8
  8
0
 62
     0
 10
51.865141558029222
 20
24.999999997769859
 30
0.0
 11
56.865141558029279
 21
29.999999997769919
 31
0.0
  0
LINE
  5
E9
  8
0
 62
     0
 10
50.518103139868849
 20
24.999999997769859
 30
0.0
 11
55.518103139868799
 21
29.999999997769809
 31
0.0
  0
LINE
  5
EA
  8
0
 62
     0
 10
49.171064721708539
 20
24.999999997769859
 30
0.0
 11
54.171064721708539
 21
29.999999997769919
 31
0.0
  0
LINE
  5
EB
  8
0
 62
     0
 10
47.82402630354818
 20
24.999999997769859
 30
0.0
 11
52.824026303548131
 21
29.999999997769809
 31
0.0
  0
LINE
  5
EC
  8
0
 62
     0
 10
46.476987885387807
 20
24.999999997769919
 30
0.0
 11
51.476987885387807
 21
29.999999997769919
 31
0.0
  0
LINE
  5
ED
  8
0
 62
     0
 10
45.129949467227327
 20
24.999999997769859
 30
0.0
 11
50.129949467227391
 21
29.999999997769919
 31
0.0
  0
LINE
  5
EE
  8
0
 62
     0
 10
43.782911049067017
 20
24.999999997769809
 30
0.0
 11
48.782911049067017
 21
29.999999997769859
 31
0.0
  0
LINE
  5
EF
  8
0
 62
     0
 10
42.435872630906601
 20
24.999999997769809
 30
0.0
 11
47.435872630906658
 21
29.999999997769859
 31
0.0
  0
LINE
  5
F0
  8
0
 62
     0
 10
41.088834212746292
 20
24.999999997769859
 30
0.0
 11
46.088834212746349
 21
29.999999997769859
 31
0.0
  0
LINE
  5
F1
  8
0
 62
     0
 10
39.741795794585869
 20
24.999999997769859
 30
0.0
 11
44.741795794585919
 21
29.999999997769919
 31
0.0
  0
LINE
  5
F2
  8
0
 62
     0
 10
38.394757376425559
 20
24.999999997769859
 30
0.0
 11
43.394757376425503
 21
29.999999997769809
 31
0.0
  0
LINE
  5
F3
  8
0
 62
     0
 10
13.394757376425501
 20
-0.0000000022301947
 30
0.0
 11
14.792007293036701
 21
1.397249914381006
 31
0.0
  0
LINE
  5
F4
  8
0
 62
     0
 10
37.0477189582652
 20
24.999999997769859
 30
0.0
 11
42.047718958265129
 21
29.999999997769859
 31
0.0
  0
LINE
  5
F5
  8
0
 62
     0
 10
12.292071097833739
 20
0.2443521373384669
 30
0.0
 11
14.792007293036701
 21
2.74428833254143
 31
0.0
  0
LINE
  5
F6
  8
0
 62
     0
 10
35.70068054010477
 20
24.999999997769859
 30
0.0
 11
40.700680540104763
 21
29.999999997769809
 31
0.0
  0
LINE
  5
F7
  8
0
 62
     0
 10
12.292007293036651
 20
1.591326750701739
 30
0.0
 11
14.79200729303659
 21
4.0913267507016817
 31
0.0
  0
LINE
  5
F8
  8
0
 62
     0
 10
34.353642121944461
 20
24.999999997769919
 30
0.0
 11
39.353642121944411
 21
29.999999997769859
 31
0.0
  0
LINE
  5
F9
  8
0
 62
     0
 10
12.292007293036701
 20
2.9383651688621621
 30
0.0
 11
14.792007293036701
 21
5.4383651688621617
 31
0.0
  0
LINE
  5
FA
  8
0
 62
     0
 10
33.006603703783981
 20
24.999999997769809
 30
0.0
 11
38.006603703784037
 21
29.999999997769859
 31
0.0
  0
LINE
  5
FB
  8
0
 62
     0
 10
12.292007293036651
 20
4.285403587022472
 30
0.0
 11
14.792007293036701
 21
6.785403587022472
 31
0.0
  0
LINE
  5
FC
  8
0
 62
     0
 10
31.659565285623671
 20
24.999999997769859
 30
0.0
 11
36.659565285623671
 21
29.999999997769859
 31
0.0
  0
LINE
  5
FD
  8
0
 62
     0
 10
12.292007293036701
 20
5.6324420051828952
 30
0.0
 11
14.792007293036701
 21
8.1324420051828952
 31
0.0
  0
LINE
  5
FE
  8
0
 62
     0
 10
30.312526867463252
 20
24.999999997769859
 30
0.0
 11
35.312526867463312
 21
29.999999997769919
 31
0.0
  0
LINE
  5
FF
  8
0
 62
     0
 10
12.292007293036651
 20
6.9794804233432606
 30
0.0
 11
14.792007293036651
 21
9.4794804233432615
 31
0.0
  0
LINE
  5
100
  8
0
 62
     0
 10
28.965488449302939
 20
24.999999997769859
 30
0.0
 11
33.965488449302882
 21
29.999999997769809
 31
0.0
  0
LINE
  5
101
  8
0
 62
     0
 10
12.292007293036651
 20
8.3265188415035691
 30
0.0
 11
14.792007293036701
 21
10.826518841503621
 31
0.0
  0
LINE
  5
102
  8
0
 62
     0
 10
27.618450031142519
 20
24.999999997769859
 30
0.0
 11
32.618450031142572
 21
29.999999997769919
 31
0.0
  0
LINE
  5
103
  8
0
 62
     0
 10
12.292007293036651
 20
9.673557259663994
 30
0.0
 11
14.792007293036651
 21
12.17355725966399
 31
0.0
  0
LINE
  5
104
  8
0
 62
     0
 10
26.271411612982149
 20
24.999999997769859
 30
0.0
 11
31.271411612982089
 21
29.999999997769809
 31
0.0
  0
LINE
  5
105
  8
0
 62
     0
 10
12.29200729303659
 20
11.0205956778243
 30
0.0
 11
14.792007293036651
 21
13.5205956778243
 31
0.0
  0
LINE
  5
106
  8
0
 62
     0
 10
24.92437319482184
 20
24.999999997769919
 30
0.0
 11
29.924373194821779
 21
29.999999997769859
 31
0.0
  0
LINE
  5
107
  8
0
 62
     0
 10
12.292007293036651
 20
12.36763409598467
 30
0.0
 11
14.792007293036651
 21
14.86763409598473
 31
0.0
  0
LINE
  5
108
  8
0
 62
     0
 10
23.57733477666148
 20
24.999999997769859
 30
0.0
 11
28.57733477666148
 21
29.999999997769809
 31
0.0
  0
LINE
  5
109
  8
0
 62
     0
 10
12.292007293036651
 20
13.714672514145031
 30
0.0
 11
14.792007293036651
 21
16.214672514145029
 31
0.0
  0
LINE
  5
10A
  8
0
 62
     0
 10
22.230296358501
 20
24.999999997769809
 30
0.0
 11
27.230296358501
 21
29.999999997769809
 31
0.0
  0
LINE
  5
10B
  8
0
 62
     0
 10
12.29200729303659
 20
15.061710932305401
 30
0.0
 11
14.792007293036651
 21
17.561710932305459
 31
0.0
  0
LINE
  5
10C
  8
0
 62
     0
 10
20.883257940340631
 20
24.999999997769859
 30
0.0
 11
25.88325794034068
 21
29.999999997769919
 31
0.0
  0
LINE
  5
10D
  8
0
 62
     0
 10
12.29200729303659
 20
16.408749350465818
 30
0.0
 11
14.79200729303659
 21
18.908749350465818
 31
0.0
  0
LINE
  5
10E
  8
0
 62
     0
 10
19.536219522180321
 20
24.999999997769859
 30
0.0
 11
24.536219522180261
 21
29.999999997769809
 31
0.0
  0
LINE
  5
10F
  8
0
 62
     0
 10
12.29200729303659
 20
17.755787768626131
 30
0.0
 11
14.79200729303659
 21
20.255787768626139
 31
0.0
  0
LINE
  5
110
  8
0
 62
     0
 10
18.189181104019891
 20
24.999999997769859
 30
0.0
 11
23.189181104019891
 21
29.999999997769809
 31
0.0
  0
LINE
  5
111
  8
0
 62
     0
 10
12.292007293036651
 20
19.102826186786611
 30
0.0
 11
14.79200729303659
 21
21.602826186786562
 31
0.0
  0
LINE
  5
112
  8
0
 62
     0
 10
16.842142685859582
 20
24.999999997769859
 30
0.0
 11
21.842142685859528
 21
29.999999997769809
 31
0.0
  0
LINE
  5
113
  8
0
 62
     0
 10
12.29200729303659
 20
20.449864604946871
 30
0.0
 11
14.792007293036701
 21
22.949864604946981
 31
0.0
  0
LINE
  5
114
  8
0
 62
     0
 10
15.495104267699221
 20
24.999999997769859
 30
0.0
 11
20.495104267699158
 21
29.999999997769859
 31
0.0
  0
LINE
  5
115
  8
0
 62
     0
 10
12.292007293036651
 20
21.796903023107351
 30
0.0
 11
14.79200729303659
 21
24.296903023107291
 31
0.0
  0
LINE
  5
116
  8
0
 62
     0
 10
12.127590412915479
 20
22.979524561146491
 30
0.0
 11
19.148065849538789
 21
29.999999997769809
 31
0.0
  0
LINE
  5
117
  8
0
 62
     0
 10
11.652514661514999
 20
23.851487227906429
 30
0.0
 11
17.801027431378369
 21
29.999999997769809
 31
0.0
  0
LINE
  5
118
  8
0
 62
     0
 10
10.95252486386522
 20
24.498535848417021
 30
0.0
 11
16.45398901321806
 21
29.999999997769859
 31
0.0
  0
LINE
  5
119
  8
0
 62
     0
 10
10.01782484256438
 20
24.910874245276549
 30
0.0
 11
15.10695059505764
 21
29.999999997769809
 31
0.0
  0
LINE
  5
11A
  8
0
 62
     0
 10
8.7599121768972736
 20
24.999999997769809
 30
0.0
 11
13.75991217689721
 21
29.999999997769748
 31
0.0
  0
LINE
  5
11B
  8
0
 62
     0
 10
7.4128737587369642
 20
24.999999997769859
 30
0.0
 11
12.412873758736909
 21
29.999999997769809
 31
0.0
  0
LINE
  5
11C
  8
0
 62
     0
 10
6.0658353405765411
 20
24.999999997769859
 30
0.0
 11
11.065835340576429
 21
29.999999997769748
 31
0.0
  0
LINE
  5
11D
  8
0
 62
     0
 10
4.7187969224161739
 20
24.999999997769748
 30
0.0
 11
9.7187969224161748
 21
29.999999997769809
 31
0.0
  0
LINE
  5
11E
  8
0
 62
     0
 10
3.3717585042557512
 20
24.999999997769809
 30
0.0
 11
8.3717585042557516
 21
29.999999997769748
 31
0.0
  0
LINE
  5
11F
  8
0
 62
     0
 10
2.0247200860953849
 20
24.999999997769809
 30
0.0
 11
7.0247200860953276
 21
29.999999997769748
 31
0.0
  0
LINE
  5
120
  8
0
 62
     0
 10
0.6776816679350191
 20
24.999999997769809
 30
0.0
 11
5.677681667935019
 21
29.999999997769809
 31
0.0
  0
LINE
  5
121
  8
0
 62
     0
 10
0.000000293036635
 20
25.669357041031791
 30
0.0
 11
4.330643249774595
 21
29.999999997769748
 31
0.0
  0
LINE
  5
122
  8
0
 62
     0
 10
0.0000002930366918
 20
27.016395459192211
 30
0.0
 11
2.983604831614286
 21
29.999999997769809
 31
0.0
  0
LINE
  5
123
  8
0
 62
     0
 10
0.0000002930366918
 20
28.363433877352641
 30
0.0
 11
1.636566413453806
 21
29.999999997769748
 31
0.0
  0
LINE
  5
124
  8
0
 62
     0
 10
0.0000002930366918
 20
29.71047229551294
 30
0.0
 11
0.2895279952935539
 21
29.999999997769809
 31
0.0
  0
ENDBLK
  5
126
  8
0
  0
BLOCK
  8
0
  2
*U3
 70
     1
 10
0.0
 20
0.0
 30
0.0
  3
*U3
  1

  0
ARC
  5
128
  8
0
 10
126.2451632930366
 20
29.749999997769919
 30
0.0
 40
0.25
 50
0.0
 51
90.0
  0
LINE
  5
129
  8
0
 10
0.2500002930367486
 20
29.999999997769859
 30
0.0
 11
126.2451632930366
 21
29.999999997769919
 31
0.0
  0
LINE
  5
12A
  8
0
 10
126.4951632930366
 20
25.249999997769859
 30
0.0
 11
126.4951632930366
 21
29.749999997769919
 31
0.0
  0
ARC
  5
12B
  8
0
 10
0.2500002930367486
 20
29.749999997769859
 30
0.0
 40
0.25
 50
90.0
 51
180.0
  0
ARC
  5
12C
  8
0
 10
126.2451632930366
 20
25.249999997769859
 30
0.0
 40
0.25
 50
270.0
 51
0.0
  0
LINE
  5
12D
  8
0
 10
0.000000293036635
 20
25.249999997769802
 30
0.0
 11
0.0000002930367486
 21
29.749999997769859
 31
0.0
  0
LINE
  5
12E
  8
0
 10
14.792007293036651
 20
24.999999997769859
 30
0.0
 11
126.2451632930366
 21
24.999999997769859
 31
0.0
  0
ARC
  5
12F
  8
0
 10
0.250000293036635
 20
25.249999997769802
 30
0.0
 40
0.25
 50
180.0
 51
270.0
  0
LINE
  5
130
  8
0
 10
14.792007293036701
 20
0.2499999977698053
 30
0.0
 11
14.792007293036651
 21
24.999999997769859
 31
0.0
  0
LINE
  5
131
  8
0
 10
0.250000293036635
 20
24.999999997769809
 30
0.0
 11
9.2920072930365905
 21
24.999999997769859
 31
0.0
  0
ARC
  5
132
  8
0
 10
14.542007293036701
 20
0.2499999977698053
 30
0.0
 40
0.25
 50
270.0
 51
0.0
  0
ARC
  5
133
  8
0
 10
9.2920072930365905
 20
21.999999997769859
 30
0.0
 40
3.0
 50
359.99999700000012
 51
90.0
  0
LINE
  5
134
  8
0
 10
14.542007293036701
 20
-0.0000000022301947
 30
0.0
 11
12.542007293036701
 21
-0.0000000022301379
 31
0.0
  0
LINE
  5
135
  8
0
 10
12.292007293036701
 20
0.2499999977698621
 30
0.0
 11
12.29200729303659
 21
21.99999984069024
 31
0.0
  0
ARC
  5
136
  8
0
 10
12.542007293036701
 20
0.2499999977698621
 30
0.0
 40
0.25
 50
180.0
 51
270.0
  0
ENDBLK
  5
138
  8
0
  0
ENDSEC
  0
SECTION
  2
ENTITIES
  0
ARC
  5
8F
  8
0
 10
511.24370362007818
 20
522.47484283651795
 30
0.0
 40
0.25
 50
0.0
 51
90.0
  0
LINE
  5
90
  8
0
 10
385.24854062007842
 20
522.72484283651795
 30
0.0
 11
511.24370362007818
 21
522.72484283651795
 31
0.0
  0
LINE
  5
91
  8
0
 10
511.49370362007818
 20
517.97484283651795
 30
0.0
 11
511.49370362007818
 21
522.47484283651795
 31
0.0
  0
ARC
  5
92
  8
0
 10
385.24854062007842
 20
522.47484283651795
 30
0.0
 40
0.25
 50
90.0
 51
180.0
  0
ARC
  5
93
  8
0
 10
511.24370362007818
 20
517.97484283651795
 30
0.0
 40
0.25
 50
270.0
 51
0.0
  0
LINE
  5
94
  8
0
 10
384.9985406200783
 20
517.97484283651795
 30
0.0
 11
384.99854062007842
 21
522.47484283651795
 31
0.0
  0
LINE
  5
95
  8
0
 10
399.79054762007831
 20
517.72484283651806
 30
0.0
 11
511.24370362007818
 21
517.72484283651806
 31
0.0
  0
ARC
  5
96
  8
0
 10
385.24854062007819
 20
517.97484283651795
 30
0.0
 40
0.25
 50
180.0
 51
270.0
  0
LINE
  5
97
  8
0
 10
399.79054762007831
 20
492.97484283651789
 30
0.0
 11
399.79054762007831
 21
517.72484283651806
 31
0.0
  0
LINE
  5
98
  8
0
 10
385.24854062007819
 20
517.72484283651795
 30
0.0
 11
394.2905476200782
 21
517.72484283651806
 31
0.0
  0
ARC
  5
99
  8
0
 10
399.54054762007831
 20
492.97484283651789
 30
0.0
 40
0.25
 50
270.0
 51
0.0
  0
ARC
  5
9A
  8
0
 10
394.2905476200782
 20
514.72484283651795
 30
0.0
 40
3.0
 50
359.99999699999802
 51
90.0
  0
LINE
  5
9B
  8
0
 10
399.54054762007831
 20
492.72484283651789
 30
0.0
 11
397.54054762007831
 21
492.72484283651801
 31
0.0
  0
LINE
  5
9C
  8
0
 10
397.29054762007831
 20
492.97484283651789
 30
0.0
 11
397.2905476200782
 21
514.72484267943832
 31
0.0
  0
ARC
  5
9D
  8
0
 10
397.54054762007831
 20
492.97484283651789
 30
0.0
 40
0.25
 50
180.0
 51
270.0
  0
ENDSEC
  0
EOF
