  0
SECTION
  2
HEADER
  9
$ACADVER
  1
AC1009
  9
$INSBASE
 10
0.0
 20
0.0
 30
0.0
  9
$EXTMIN
 10
3148.6938721660758
 20
1372.35712801811
 30
0.0
  9
$EXTMAX
 10
3268.694862802528
 20
1387.357128983419
 30
0.0
  9
$LIMMIN
 10
0.0
 20
0.0
  9
$LIMMAX
 10
420.0
 20
297.0
  9
$ORTHOMODE
 70
     0
  9
$REGENMODE
 70
     1
  9
$FILLMODE
 70
     1
  9
$QTEXTMODE
 70
     0
  9
$MIRRTEXT
 70
     0
  9
$DRAGMODE
 70
     2
  9
$LTSCALE
 40
1.0
  9
$OSMODE
 70
  3071
  9
$ATTMODE
 70
     1
  9
$TEXTSIZE
 40
2.5
  9
$TRACEWID
 40
1.0
  9
$TEXTSTYLE
  7
STANDARD
  9
$CLAYER
  8
0
  9
$CELTYPE
  6
BYLAYER
  9
$CECOLOR
 62
   256
  9
$DIMSCALE
 40
1.0
  9
$DIMASZ
 40
2.5
  9
$DIMEXO
 40
0.625
  9
$DIMDLI
 40
3.75
  9
$DIMRND
 40
0.0
  9
$DIMDLE
 40
0.0
  9
$DIMEXE
 40
1.25
  9
$DIMTP
 40
0.0
  9
$DIMTM
 40
0.0
  9
$DIMTXT
 40
2.5
  9
$DIMCEN
 40
2.5
  9
$DIMTSZ
 40
0.0
  9
$DIMTOL
 70
     0
  9
$DIMLIM
 70
     0
  9
$DIMTIH
 70
     0
  9
$DIMTOH
 70
     0
  9
$DIMSE1
 70
     0
  9
$DIMSE2
 70
     0
  9
$DIMTAD
 70
     1
  9
$DIMZIN
 70
     8
  9
$DIMBLK
  1

  9
$DIMASO
 70
     1
  9
$DIMSHO
 70
     1
  9
$DIMPOST
  1

  9
$DIMAPOST
  1

  9
$DIMALT
 70
     0
  9
$DIMALTD
 70
     3
  9
$DIMALTF
 40
0.03937007874016
  9
$DIMLFAC
 40
1.0
  9
$DIMTOFL
 70
     1
  9
$DIMTVP
 40
0.0
  9
$DIMTIX
 70
     0
  9
$DIMSOXD
 70
     0
  9
$DIMSAH
 70
     0
  9
$DIMBLK1
  1

  9
$DIMBLK2
  1

  9
$DIMSTYLE
  2
ISO-25
  9
$DIMCLRD
 70
     0
  9
$DIMCLRE
 70
     0
  9
$DIMCLRT
 70
     0
  9
$DIMTFAC
 40
1.0
  9
$DIMGAP
 40
0.625
  9
$LUNITS
 70
     2
  9
$LUPREC
 70
     4
  9
$SKETCHINC
 40
1.0
  9
$FILLETRAD
 40
0.0
  9
$AUNITS
 70
     0
  9
$AUPREC
 70
     0
  9
$MENU
  1
.
  9
$ELEVATION
 40
0.0
  9
$PELEVATION
 40
0.0
  9
$THICKNESS
 40
0.0
  9
$LIMCHECK
 70
     0
  9
$BLIPMODE
 70
     0
  9
$CHAMFERA
 40
0.0
  9
$CHAMFERB
 40
0.0
  9
$SKPOLY
 70
     0
  9
$TDCREATE
 40
2456812.6986778239
  9
$TDUPDATE
 40
2456812.6987728011
  9
$TDINDWG
 40
0.0000966667
  9
$TDUSRTIMER
 40
0.0000966319
  9
$USRTIMER
 70
     1
  9
$ANGBASE
 50
0.0
  9
$ANGDIR
 70
     0
  9
$PDMODE
 70
     0
  9
$PDSIZE
 40
0.0
  9
$PLINEWID
 40
0.0
  9
$COORDS
 70
     1
  9
$SPLFRAME
 70
     0
  9
$SPLINETYPE
 70
     6
  9
$SPLINESEGS
 70
     8
  9
$ATTDIA
 70
     1
  9
$ATTREQ
 70
     1
  9
$HANDLING
 70
     1
  9
$HANDSEED
  5
644
  9
$SURFTAB1
 70
     6
  9
$SURFTAB2
 70
     6
  9
$SURFTYPE
 70
     6
  9
$SURFU
 70
     6
  9
$SURFV
 70
     6
  9
$UCSNAME
  2

  9
$UCSORG
 10
0.0
 20
0.0
 30
0.0
  9
$UCSXDIR
 10
1.0
 20
0.0
 30
0.0
  9
$UCSYDIR
 10
0.0
 20
1.0
 30
0.0
  9
$PUCSNAME
  2

  9
$PUCSORG
 10
0.0
 20
0.0
 30
0.0
  9
$PUCSXDIR
 10
1.0
 20
0.0
 30
0.0
  9
$PUCSYDIR
 10
0.0
 20
1.0
 30
0.0
  9
$USERI1
 70
     0
  9
$USERI2
 70
     0
  9
$USERI3
 70
     0
  9
$USERI4
 70
     0
  9
$USERI5
 70
     0
  9
$USERR1
 40
0.0
  9
$USERR2
 40
0.0
  9
$USERR3
 40
0.0
  9
$USERR4
 40
0.0
  9
$USERR5
 40
0.0
  9
$WORLDVIEW
 70
     1
  9
$SHADEDGE
 70
     3
  9
$SHADEDIF
 70
    70
  9
$TILEMODE
 70
     1
  9
$MAXACTVP
 70
    64
  9
$PLIMCHECK
 70
     0
  9
$PEXTMIN
 10
0.0
 20
0.0
 30
0.0
  9
$PEXTMAX
 10
0.0
 20
0.0
 30
0.0
  9
$PLIMMIN
 10
0.0
 20
0.0
  9
$PLIMMAX
 10
12.0
 20
9.0
  9
$UNITMODE
 70
     0
  9
$VISRETAIN
 70
     1
  9
$PLINEGEN
 70
     0
  9
$PSLTSCALE
 70
     1
  0
ENDSEC
  0
SECTION
  2
TABLES
  0
TABLE
  2
VPORT
 70
     1
  0
VPORT
  2
*ACTIVE
 70
     0
 10
0.0
 20
0.0
 11
1.0
 21
1.0
 12
3208.6943674851709
 22
1379.8571285007879
 13
0.0
 23
0.0
 14
10.0
 24
10.0
 15
10.0
 25
10.0
 16
0.0
 26
0.0
 36
1.0
 17
0.0
 27
0.0
 37
0.0
 40
57.510679595039932
 41
2.0965058236272869
 42
50.0
 43
0.0
 44
0.0
 50
0.0
 51
0.0
 71
     0
 72
  1000
 73
     1
 74
     3
 75
     0
 76
     1
 77
     0
 78
     0
  0
ENDTAB
  0
TABLE
  2
LTYPE
 70
     1
  0
LTYPE
  2
CONTINUOUS
 70
     0
  3
Solid line
 72
    65
 73
     0
 40
0.0
  0
ENDTAB
  0
TABLE
  2
LAYER
 70
     1
  0
LAYER
  2
0
 70
     0
 62
     7
  6
CONTINUOUS
  0
ENDTAB
  0
TABLE
  2
STYLE
 70
     3
  0
STYLE
  2
STANDARD
 70
     0
 40
0.0
 41
1.0
 50
0.0
 71
     0
 42
2.5
  3
txt
  4

  0
STYLE
  2
ANNOTATIVE
 70
     0
 40
0.0
 41
1.0
 50
0.0
 71
     0
 42
2.5
  3
txt
  4

  0
STYLE
  2
ROMANT
 70
     0
 40
2.6000000000000001
 41
1.0
 50
0.0
 71
     0
 42
2.5
  3
romant.shx
  4

  0
ENDTAB
  0
TABLE
  2
VIEW
 70
     1
  0
ENDTAB
  0
TABLE
  2
UCS
 70
     0
  0
ENDTAB
  0
TABLE
  2
APPID
 70
    10
  0
APPID
  2
ACAD
 70
     0
  0
APPID
  2
ACAD_PSEXT
 70
     0
  0
APPID
  2
ACADANNOPO
 70
     0
  0
APPID
  2
ACADANNOTATIVE
 70
     0
  0
APPID
  2
ACAD_DSTYLE_DIMJAG
 70
     0
  0
APPID
  2
ACAD_DSTYLE_DIMTALN
 70
     0
  0
APPID
  2
ACAD_MLEADERVER
 70
     0
  0
APPID
  2
ACAD_NAV_VCDISPLAY
 70
     0
  0
APPID
  2
GRADIENTCOLOR1ACI
 70
     0
  0
APPID
  2
GRADIENTCOLOR2ACI
 70
     0
  0
ENDTAB
  0
TABLE
  2
DIMSTYLE
 70
     4
  0
DIMSTYLE
  2
STANDARD
 70
     0
  3

  4

  5

  6

  7

 40
1.0
 41
0.18
 42
0.0625
 43
0.38
 44
0.18
 45
0.0
 46
0.0
 47
0.0
 48
0.0
140
0.18
141
0.09
142
0.0
143
25.399999999999999
144
1.0
145
0.0
146
1.0
147
0.09
 71
     0
 72
     0
 73
     1
 74
     1
 75
     0
 76
     0
 77
     0
 78
     0
170
     0
171
     2
172
     0
173
     0
174
     0
175
     0
176
     0
177
     0
178
     0
  0
DIMSTYLE
  2
ANNOTATIVE
 70
     0
  3

  4

  5

  6

  7

 40
0.0
 41
2.5
 42
0.625
 43
3.75
 44
1.25
 45
0.0
 46
0.0
 47
0.0
 48
0.0
140
2.5
141
2.5
142
0.0
143
0.03937007874016
144
1.0
145
0.0
146
1.0
147
0.625
 71
     0
 72
     0
 73
     0
 74
     0
 75
     0
 76
     0
 77
     1
 78
     8
170
     0
171
     3
172
     1
173
     0
174
     0
175
     0
176
     0
177
     0
178
     0
  0
DIMSTYLE
  2
ISO-25
 70
     0
  3

  4

  5

  6

  7

 40
1.0
 41
2.5
 42
0.625
 43
3.75
 44
1.25
 45
0.0
 46
0.0
 47
0.0
 48
0.0
140
2.5
141
2.5
142
0.0
143
0.03937007874016
144
1.0
145
0.0
146
1.0
147
0.625
 71
     0
 72
     0
 73
     0
 74
     0
 75
     0
 76
     0
 77
     1
 78
     8
170
     0
171
     3
172
     1
173
     0
174
     0
175
     0
176
     0
177
     0
178
     0
  0
DIMSTYLE
  2
MELÝH_A3
 70
     0
  3

  4

  5

  6

  7

 40
1.0
 41
1.3
 42
0.0
 43
3.75
 44
0.2
 45
0.0
 46
0.0
 47
0.0
 48
0.0
140
1.0
141
0.2
142
0.0
143
0.03937007874016
144
1.0
145
0.0
146
1.0
147
0.7
 71
     0
 72
     0
 73
     0
 74
     0
 75
     0
 76
     0
 77
     1
 78
     8
170
     0
171
     3
172
     0
173
     0
174
     0
175
     0
176
   242
177
   242
178
   242
  0
ENDTAB
  0
ENDSEC
  0
SECTION
  2
BLOCKS
  0
BLOCK
  8
0
  2
$MODEL_SPACE
 70
     0
 10
0.0
 20
0.0
 30
0.0
  3
$MODEL_SPACE
  1

  0
ENDBLK
  5
21
  8
0
  0
BLOCK
 67
     1
  8
0
  2
$PAPER_SPACE
 70
     0
 10
0.0
 20
0.0
 30
0.0
  3
$PAPER_SPACE
  1

  0
ENDBLK
  5
D5
 67
     1
  8
0
  0
BLOCK
  8
0
  2
*X2
 70
     1
 10
0.0
 20
0.0
 30
0.0
  3
*X2
  1

  0
LINE
  5
3EC
  8
0
 62
     0
 10
118.8166610322896
 20
0.0000007682747878
 30
0.0
 11
120.0005458996969
 21
1.183885635682145
 31
0.0
  0
LINE
  5
3ED
  8
0
 62
     0
 10
117.9327775558079
 20
0.0000007682762657
 30
0.0
 11
120.0005458997244
 21
2.0677691121927628
 31
0.0
  0
LINE
  5
3EE
  8
0
 62
     0
 10
117.0488940793261
 20
0.0000007682777436
 30
0.0
 11
120.0005458997519
 21
2.951652588703495
 31
0.0
  0
LINE
  5
3EF
  8
0
 62
     0
 10
118.5006079951872
 20
2.3355981606220548
 30
0.0
 11
119.96630633650121
 21
3.8012965019360641
 31
0.0
  0
LINE
  5
3F0
  8
0
 62
     0
 10
116.1650106028444
 20
0.0000007682792216
 30
0.0
 11
118.01501060311401
 21
1.8500007685487949
 31
0.0
  0
LINE
  5
3F1
  8
0
 62
     0
 10
118.5008410123497
 20
3.2197146542676469
 30
0.0
 11
119.4874744566246
 21
4.2063480985425477
 31
0.0
  0
LINE
  5
3F2
  8
0
 62
     0
 10
115.28112712636261
 20
0.0000007682806427
 30
0.0
 11
117.13112712616579
 21
1.8500007680837021
 31
0.0
  0
LINE
  5
3F3
  8
0
 62
     0
 10
118.5010740295122
 20
4.103831147913354
 30
0.0
 11
118.77223055718829
 21
4.3749876755894661
 31
0.0
  0
LINE
  5
3F4
  8
0
 62
     0
 10
114.39724364988091
 20
0.0000007682820637
 30
0.0
 11
116.3483251167965
 21
1.9510822351976449
 31
0.0
  0
LINE
  5
3F5
  8
0
 62
     0
 10
113.51336017339921
 20
0.0000007682835417
 30
0.0
 11
115.8158365140246
 21
2.302477108909045
 31
0.0
  0
LINE
  5
3F6
  8
0
 62
     0
 10
112.62947669691749
 20
0.0000007682849628
 30
0.0
 11
115.3739015481721
 21
2.7444256195395829
 31
0.0
  0
LINE
  5
3F7
  8
0
 62
     0
 10
111.74559322043569
 20
0.0000007682864407
 30
0.0
 11
114.9796467166132
 21
3.234054264463964
 31
0.0
  0
LINE
  5
3F8
  8
0
 62
     0
 10
110.8617097439539
 20
0.0000007682878618
 30
0.0
 11
114.6853842981951
 21
3.823675322529084
 31
0.0
  0
LINE
  5
3F9
  8
0
 62
     0
 10
113.2005458995079
 20
3.2227204003249308
 30
0.0
 11
114.51772045255289
 21
4.5398949533699797
 31
0.0
  0
LINE
  5
3FA
  8
0
 62
     0
 10
109.9778262674723
 20
0.0000007682892829
 30
0.0
 11
112.4778262674722
 21
2.500000768289282
 31
0.0
  0
LINE
  5
3FB
  8
0
 62
     0
 10
113.2005458993019
 20
4.1066038766021498
 30
0.0
 11
114.50054590151321
 21
5.4066038788134838
 31
0.0
  0
LINE
  5
3FC
  8
0
 62
     0
 10
109.7255458956764
 20
0.6316038729766547
 30
0.0
 11
111.5939427909891
 21
2.5000007682893388
 31
0.0
  0
LINE
  5
3FD
  8
0
 62
     0
 10
113.2005458990958
 20
4.9904873528792564
 30
0.0
 11
114.5005459014194
 21
6.290487355202969
 31
0.0
  0
LINE
  5
3FE
  8
0
 62
     0
 10
118.8350594057802
 20
10.62500085956367
 30
0.0
 11
120.0009135064622
 21
11.790854960245721
 31
0.0
  0
LINE
  5
3FF
  8
0
 62
     0
 10
109.24616360673799
 20
1.0361050605214921
 30
0.0
 11
110.7100593145059
 21
2.5000007682893388
 31
0.0
  0
LINE
  5
400
  8
0
 62
     0
 10
112.8855434095444
 20
5.5593683398109874
 30
0.0
 11
114.45691105875289
 21
7.130735989019569
 31
0.0
  0
LINE
  5
401
  8
0
 62
     0
 10
118.50054589408749
 20
11.174370824354121
 30
0.0
 11
120.00076645078219
 21
12.674591381048851
 31
0.0
  0
LINE
  5
402
  8
0
 62
     0
 10
109.1255458956764
 20
1.799370825943015
 30
0.0
 11
109.82617583802271
 21
2.500000768289282
 31
0.0
  0
LINE
  5
403
  8
0
 62
     0
 10
118.50054589808261
 20
12.05825430483242
 30
0.0
 11
120.00061939510231
 21
13.5583278018521
 31
0.0
  0
LINE
  5
404
  8
0
 62
     0
 10
112.4436016719913
 20
6.0013100787411977
 30
0.0
 11
114.5005459011311
 21
8.0582543078809294
 31
0.0
  0
LINE
  5
405
  8
0
 62
     0
 10
118.4974617285237
 20
12.939053611756719
 30
0.0
 11
119.9291490171904
 21
14.370740900423529
 31
0.0
  0
LINE
  5
406
  8
0
 62
     0
 10
112.00165993443829
 20
6.4432518176712961
 30
0.0
 11
114.50054590079991
 21
8.9421377840329228
 31
0.0
  0
LINE
  5
407
  8
0
 62
     0
 10
117.8245254088376
 20
13.150000768553859
 30
0.0
 11
119.5254832873122
 21
14.85095864702833
 31
0.0
  0
LINE
  5
408
  8
0
 62
     0
 10
111.5597181968853
 20
6.8851935566015072
 30
0.0
 11
114.50054590046869
 21
9.8260212601848593
 31
0.0
  0
LINE
  5
409
  8
0
 62
     0
 10
116.94064193246621
 20
13.15000076866562
 30
0.0
 11
118.79063642295461
 21
14.99999525915405
 31
0.0
  0
LINE
  5
40A
  8
0
 62
     0
 10
111.11777645933221
 20
7.3271352955316038
 30
0.0
 11
114.5694412001821
 21
10.778800036381419
 31
0.0
  0
LINE
  5
40B
  8
0
 62
     0
 10
110.6758347217792
 20
7.769077034461815
 30
0.0
 11
117.90672974808339
 21
14.99997206076597
 31
0.0
  0
LINE
  5
40C
  8
0
 62
     0
 10
110.2338929842263
 20
8.2110187733919702
 30
0.0
 11
117.02282307321209
 21
14.999948862377829
 31
0.0
  0
LINE
  5
40D
  8
0
 62
     0
 10
109.79195124667319
 20
8.6529605123221245
 30
0.0
 11
116.1389163983409
 21
14.99992566398981
 31
0.0
  0
LINE
  5
40E
  8
0
 62
     0
 10
109.3472841552209
 20
9.0921768973529993
 30
0.0
 11
115.2550097234697
 21
14.999902465601849
 31
0.0
  0
LINE
  5
40F
  8
0
 62
     0
 10
100.3712452331267
 20
1.0000214517419861
 30
0.0
 11
100.8755459036765
 21
1.504322122291796
 31
0.0
  0
LINE
  5
410
  8
0
 62
     0
 10
108.8051383220927
 20
9.4339145407079172
 30
0.0
 11
114.3711030485985
 21
14.999879267213769
 31
0.0
  0
LINE
  5
411
  8
0
 62
     0
 10
99.371236212291905
 20
0.0000124309071339
 30
0.0
 11
100.2755459036766
 21
0.9043221222918874
 31
0.0
  0
LINE
  5
412
  8
0
 62
     0
 10
108.07958183980359
 20
9.5922415349020298
 30
0.0
 11
113.4871963737273
 21
14.99985606882575
 31
0.0
  0
LINE
  5
413
  8
0
 62
     0
 10
98.487369793606035
 20
0.0000294887044561
 30
0.0
 11
100.84914995825009
 21
2.3618096533486428
 31
0.0
  0
LINE
  5
414
  8
0
 62
     0
 10
107.1964903568461
 20
9.5930335284277248
 30
0.0
 11
112.6032896988561
 21
14.99983287043773
 31
0.0
  0
LINE
  5
415
  8
0
 62
     0
 10
97.603503374920194
 20
0.0000465465018351
 30
0.0
 11
100.1034575967077
 21
2.5000007682893388
 31
0.0
  0
LINE
  5
416
  8
0
 62
     0
 10
106.3126068804533
 20
9.5930335285181059
 30
0.0
 11
111.2193710362245
 21
14.499797684289261
 31
0.0
  0
LINE
  5
417
  8
0
 62
     0
 10
111.2505458136764
 20
14.530972461741159
 30
0.0
 11
111.7193830239848
 21
14.99980967204959
 31
0.0
  0
LINE
  5
418
  8
0
 62
     0
 10
96.719636956234396
 20
0.0000636042991573
 30
0.0
 11
99.219574120224493
 21
2.500000768289282
 31
0.0
  0
LINE
  5
419
  8
0
 62
     0
 10
105.4643159113528
 20
9.6286260359008793
 30
0.0
 11
110.3354875597412
 21
14.499797684289261
 31
0.0
  0
LINE
  5
41A
  8
0
 62
     0
 10
96.250545813847594
 20
0.4148559383955899
 30
0.0
 11
98.335690643741287
 21
2.5000007682893388
 31
0.0
  0
LINE
  5
41B
  8
0
 62
     0
 10
104.98248197117979
 20
10.03067557221101
 30
0.0
 11
109.451604083258
 21
14.499797684289261
 31
0.0
  0
LINE
  5
41C
  8
0
 62
     0
 10
95.451881176322047
 20
0.500074777353234
 30
0.0
 11
97.451807167258153
 21
2.5000007682893388
 31
0.0
  0
LINE
  5
41D
  8
0
 62
     0
 10
103.6609564511013
 20
9.593033528615706
 30
0.0
 11
108.5677206067749
 21
14.499797684289261
 31
0.0
  0
LINE
  5
41E
  8
0
 62
     0
 10
94.56799769990954
 20
0.5000747774238903
 30
0.0
 11
96.800545899477129
 21
2.732622976991478
 31
0.0
  0
LINE
  5
41F
  8
0
 62
     0
 10
102.7770729745958
 20
9.5930335285933666
 30
0.0
 11
107.68383713029171
 21
14.499797684289261
 31
0.0
  0
LINE
  5
420
  8
0
 62
     0
 10
93.684114223497076
 20
0.5000747774946605
 30
0.0
 11
96.800545899479829
 21
3.6165064534773701
 31
0.0
  0
LINE
  5
421
  8
0
 62
     0
 10
101.8913194933708
 20
9.5911635238515487
 30
0.0
 11
106.7999536538085
 21
14.499797684289261
 31
0.0
  0
LINE
  5
422
  8
0
 62
     0
 10
92.800230747084655
 20
0.5000747775653736
 30
0.0
 11
96.800545899482586
 21
4.5003899299633181
 31
0.0
  0
LINE
  5
423
  8
0
 62
     0
 10
91.916347270672134
 20
0.5000747776360868
 30
0.0
 11
105.9160701773253
 21
14.499797684289319
 31
0.0
  0
LINE
  5
424
  8
0
 62
     0
 10
91.032463794259655
 20
0.5000747777068
 30
0.0
 11
105.0321867008422
 21
14.499797684289261
 31
0.0
  0
LINE
  5
425
  8
0
 62
     0
 10
90.148580317847234
 20
0.5000747777775132
 30
0.0
 11
104.148303224359
 21
14.499797684289261
 31
0.0
  0
LINE
  5
426
  8
0
 62
     0
 10
89.264696841434727
 20
0.5000747778482264
 30
0.0
 11
103.26441974787571
 21
14.499797684289319
 31
0.0
  0
LINE
  5
427
  8
0
 62
     0
 10
98.200545899669834
 20
10.31980731256647
 30
0.0
 11
102.3805362713926
 21
14.499797684289261
 31
0.0
  0
LINE
  5
428
  8
0
 62
     0
 10
88.380813365022306
 20
0.5000747779189397
 30
0.0
 11
93.308037282307524
 21
5.4272986952041711
 31
0.0
  0
LINE
  5
429
  8
0
 62
     0
 10
98.200545899672491
 20
11.203690789052359
 30
0.0
 11
101.49665279490939
 21
14.499797684289261
 31
0.0
  0
LINE
  5
42A
  8
0
 62
     0
 10
87.496929888609827
 20
0.5000747779896529
 30
0.0
 11
92.403790357832406
 21
5.406935247212231
 31
0.0
  0
LINE
  5
42B
  8
0
 62
     0
 10
98.200545899675149
 20
12.087574265538191
 30
0.0
 11
100.6127693184262
 21
14.499797684289319
 31
0.0
  0
LINE
  5
42C
  8
0
 62
     0
 10
86.61304641219732
 20
0.5000747780603662
 30
0.0
 11
91.519906881239194
 21
5.4069352471022389
 31
0.0
  0
LINE
  5
42D
  8
0
 62
     0
 10
97.729088925943103
 20
12.50000076828934
 30
0.0
 11
99.728885841943082
 21
14.499797684289319
 31
0.0
  0
LINE
  5
42E
  8
0
 62
     0
 10
85.729162935784856
 20
0.5000747781310793
 30
0.0
 11
90.636023404646068
 21
5.4069352469923038
 31
0.0
  0
LINE
  5
42F
  8
0
 62
     0
 10
96.845205449459911
 20
12.50000076828934
 30
0.0
 11
98.845002365459891
 21
14.499797684289261
 31
0.0
  0
LINE
  5
430
  8
0
 62
     0
 10
84.845279459372364
 20
0.5000747782017357
 30
0.0
 11
89.635988605978525
 21
5.2907839248078972
 31
0.0
  0
LINE
  5
431
  8
0
 62
     0
 10
83.961395982959914
 20
0.5000747782725057
 30
0.0
 11
88.868256452031972
 21
5.4069352473445633
 31
0.0
  0
LINE
  5
432
  8
0
 62
     0
 10
95.961321972976748
 20
12.50000076828934
 30
0.0
 11
98.461137968049854
 21
14.999816763362441
 31
0.0
  0
LINE
  5
433
  8
0
 62
     0
 10
83.461596702278896
 20
0.000275497591474
 30
0.0
 11
83.750337351374398
 21
0.289016146687004
 31
0.0
  0
LINE
  5
434
  8
0
 62
     0
 10
95.077438496493556
 20
12.50000076828934
 30
0.0
 11
97.577301828549352
 21
14.999864100345119
 31
0.0
  0
LINE
  5
435
  8
0
 62
     0
 10
82.577487746583216
 20
0.0000500183789995
 30
0.0
 11
87.984372975641435
 21
5.4069352474372181
 31
0.0
  0
LINE
  5
436
  8
0
 62
     0
 10
94.250196829004395
 20
12.55664257728335
 30
0.0
 11
96.693465689048836
 21
14.999911437327791
 31
0.0
  0
LINE
  5
437
  8
0
 62
     0
 10
81.693587211648378
 20
0.0000329599272959
 30
0.0
 11
87.100489499250898
 21
5.406935247529816
 31
0.0
  0
LINE
  5
438
  8
0
 62
     0
 10
94.125545870571557
 20
13.31587509533369
 30
0.0
 11
95.809629549548276
 21
14.999958774310411
 31
0.0
  0
LINE
  5
439
  8
0
 62
     0
 10
80.809686676713397
 20
0.0000159014755923
 30
0.0
 11
86.325840746950917
 21
5.5161699717131114
 31
0.0
  0
LINE
  5
43A
  8
0
 62
     0
 10
83.200545899373566
 20
3.2747586006188949
 30
0.0
 11
85.752182708582239
 21
5.8263954098275681
 31
0.0
  0
LINE
  5
43B
  8
0
 62
     0
 10
94.754701996376028
 20
14.82891469762137
 30
0.0
 11
94.896631941750925
 21
14.970844642996321
 31
0.0
  0
LINE
  5
43C
  8
0
 62
     0
 10
79.929975508065837
 20
0.0041882093111667
 30
0.0
 11
82.42578806704401
 21
2.5000007682893388
 31
0.0
  0
LINE
  5
43D
  8
0
 62
     0
 10
83.200545899370155
 20
4.158642077098647
 30
0.0
 11
85.299042709434019
 21
6.2571388871625109
 31
0.0
  0
LINE
  5
43E
  8
0
 62
     0
 10
79.725545895576445
 20
0.6836420733050092
 30
0.0
 11
81.541904590560804
 21
2.500000768289282
 31
0.0
  0
LINE
  5
43F
  8
0
 62
     0
 10
83.20054589936683
 20
5.0425255535785141
 30
0.0
 11
84.857100970549595
 21
6.6990806247613364
 31
0.0
  0
LINE
  5
440
  8
0
 62
     0
 10
79.215765432244098
 20
1.0577450864557809
 30
0.0
 11
80.658021114077656
 21
2.5000007682893388
 31
0.0
  0
LINE
  5
441
  8
0
 62
     0
 10
82.859524309523749
 20
5.5853874402186534
 30
0.0
 11
84.415159231665257
 21
7.1410223623601601
 31
0.0
  0
LINE
  5
442
  8
0
 62
     0
 10
79.125545895576352
 20
1.851409026271255
 30
0.0
 11
79.774137637594436
 21
2.5000007682893388
 31
0.0
  0
LINE
  5
443
  8
0
 62
     0
 10
82.417582571973213
 20
6.0273291791512511
 30
0.0
 11
83.973217492780904
 21
7.5829640999589278
 31
0.0
  0
LINE
  5
444
  8
0
 62
     0
 10
81.975640834422734
 20
6.4692709180839643
 30
0.0
 11
83.531275753896523
 21
8.0249058375577533
 31
0.0
  0
LINE
  5
445
  8
0
 62
     0
 10
81.533699096872226
 20
6.9112126570166756
 30
0.0
 11
83.089334015012113
 21
8.4668475751565762
 31
0.0
  0
LINE
  5
446
  8
0
 62
     0
 10
81.091757359321633
 20
7.3531543959492183
 30
0.0
 11
82.647392276127775
 21
8.9087893127553457
 31
0.0
  0
LINE
  5
447
  8
0
 62
     0
 10
85.354720254787523
 20
12.50000076789831
 30
0.0
 11
85.875670205153924
 21
13.020950718264711
 31
0.0
  0
LINE
  5
448
  8
0
 62
     0
 10
80.649815621771097
 20
7.7950961348819297
 30
0.0
 11
82.205450537243394
 21
9.3507310503541703
 31
0.0
  0
LINE
  5
449
  8
0
 62
     0
 10
84.470836778401576
 20
12.500000767995569
 30
0.0
 11
85.829945890912754
 21
13.859109880506759
 31
0.0
  0
LINE
  5
44A
  8
0
 62
     0
 10
80.207873884220589
 20
8.2370378738145842
 30
0.0
 11
81.804453295058295
 21
9.8336172846522913
 31
0.0
  0
LINE
  5
44B
  8
0
 62
     0
 10
83.586953302015587
 20
12.50000076809277
 30
0.0
 11
85.275670196578886
 21
14.188717662656019
 31
0.0
  0
LINE
  5
44C
  8
0
 62
     0
 10
79.765932146670053
 20
8.6789796127471845
 30
0.0
 11
81.800545899676436
 21
10.71359336575358
 31
0.0
  0
LINE
  5
44D
  8
0
 62
     0
 10
82.703069825629711
 20
12.500000768190089
 30
0.0
 11
85.14833804715181
 21
14.94526898971213
 31
0.0
  0
LINE
  5
44E
  8
0
 62
     0
 10
79.319406539801662
 20
9.1163374823620416
 30
0.0
 11
81.800545899676365
 21
11.59747684223669
 31
0.0
  0
LINE
  5
44F
  8
0
 62
     0
 10
78.768308015240905
 20
9.4491224342844475
 30
0.0
 11
81.800545899676365
 21
12.48136031871991
 31
0.0
  0
LINE
  5
450
  8
0
 62
     0
 10
70.319207039387209
 20
1.000021458430808
 30
0.0
 11
70.875545903976445
 21
1.5563603230199869
 31
0.0
  0
LINE
  5
451
  8
0
 62
     0
 10
81.819186349243751
 20
12.50000076828735
 30
0.0
 11
84.319151188256171
 21
14.999965607299769
 31
0.0
  0
LINE
  5
452
  8
0
 62
     0
 10
69.319192682815526
 20
0.0000071018590688
 30
0.0
 11
70.275545903978113
 21
0.9563603230217267
 31
0.0
  0
LINE
  5
453
  8
0
 62
     0
 10
78.028329305117865
 20
9.5930272006445421
 30
0.0
 11
83.435220371358156
 21
14.99991826688483
 31
0.0
  0
LINE
  5
454
  8
0
 62
     0
 10
68.435317735403913
 20
0.0000156309305908
 30
0.0
 11
70.829657784050113
 21
2.39435567957679
 31
0.0
  0
LINE
  5
455
  8
0
 62
     0
 10
77.144452156989757
 20
9.5930335289996265
 30
0.0
 11
82.551289554460141
 21
14.99987092647001
 31
0.0
  0
LINE
  5
456
  8
0
 62
     0
 10
67.551442787992301
 20
0.0000241600022264
 30
0.0
 11
70.051419396279414
 21
2.5000007682893388
 31
0.0
  0
LINE
  5
457
  8
0
 62
     0
 10
76.260568680271717
 20
9.5930335287648631
 30
0.0
 11
81.167332835796174
 21
14.499797684289261
 31
0.0
  0
LINE
  5
458
  8
0
 62
     0
 10
81.250545813976487
 20
14.583010662469629
 30
0.0
 11
81.667358737562097
 21
14.999823586055181
 31
0.0
  0
LINE
  5
459
  8
0
 62
     0
 10
66.667567840580716
 20
0.0000326890738052
 30
0.0
 11
69.167535919796251
 21
2.5000007682893388
 31
0.0
  0
LINE
  5
45A
  8
0
 62
     0
 10
75.432110167753905
 20
9.6484584927301853
 30
0.0
 11
80.283449359313039
 21
14.499797684289261
 31
0.0
  0
LINE
  5
45B
  8
0
 62
     0
 10
66.250545813876471
 20
0.4668941388526946
 30
0.0
 11
68.283652443313059
 21
2.500000768289282
 31
0.0
  0
LINE
  5
45C
  8
0
 62
     0
 10
74.520203720385126
 20
9.6204355218445698
 30
0.0
 11
79.399565882829876
 21
14.499797684289319
 31
0.0
  0
LINE
  5
45D
  8
0
 62
     0
 10
65.39980597182992
 20
0.5000377732893641
 30
0.0
 11
67.399768966829839
 21
2.500000768289282
 31
0.0
  0
LINE
  5
45E
  8
0
 62
     0
 10
73.608918250594385
 20
9.5930335285370347
 30
0.0
 11
78.515682406346613
 21
14.499797684289261
 31
0.0
  0
LINE
  5
45F
  8
0
 62
     0
 10
64.515922495346786
 20
0.5000377732894208
 30
0.0
 11
66.800545899377198
 21
2.7846611773198329
 31
0.0
  0
LINE
  5
460
  8
0
 62
     0
 10
72.725034774044047
 20
9.5930335284699026
 30
0.0
 11
77.631798929863393
 21
14.499797684289319
 31
0.0
  0
LINE
  5
461
  8
0
 62
     0
 10
63.632039018863573
 20
0.5000377732894208
 30
0.0
 11
66.800545899379514
 21
3.668544653805383
 31
0.0
  0
LINE
  5
462
  8
0
 62
     0
 10
71.836128624386248
 20
9.5880108552952361
 30
0.0
 11
76.747915453380273
 21
14.499797684289261
 31
0.0
  0
LINE
  5
463
  8
0
 62
     0
 10
62.748155542380367
 20
0.5000377732893641
 30
0.0
 11
66.800545899381831
 21
4.5524281302908767
 31
0.0
  0
LINE
  5
464
  8
0
 62
     0
 10
61.864272065897239
 20
0.5000377732894208
 30
0.0
 11
75.864031976897081
 21
14.499797684289261
 31
0.0
  0
LINE
  5
465
  8
0
 62
     0
 10
60.980388589414019
 20
0.5000377732894208
 30
0.0
 11
74.980148500413861
 21
14.499797684289319
 31
0.0
  0
LINE
  5
466
  8
0
 62
     0
 10
60.096505112930828
 20
0.5000377732894208
 30
0.0
 11
74.096265023930727
 21
14.499797684289261
 31
0.0
  0
LINE
  5
467
  8
0
 62
     0
 10
59.212621636447693
 20
0.5000377732894208
 30
0.0
 11
73.212381547447535
 21
14.499797684289261
 31
0.0
  0
LINE
  5
468
  8
0
 62
     0
 10
68.200545899670658
 20
10.371845512995661
 30
0.0
 11
72.328498070964315
 21
14.499797684289319
 31
0.0
  0
LINE
  5
469
  8
0
 62
     0
 10
58.328738159964473
 20
0.5000377732894208
 30
0.0
 11
63.248370895826547
 21
5.4196705091515582
 31
0.0
  0
LINE
  5
46A
  8
0
 62
     0
 10
68.200545899673074
 20
11.255728989481179
 30
0.0
 11
71.44461459448118
 21
14.499797684289289
 31
0.0
  0
LINE
  5
46B
  8
0
 62
     0
 10
57.444854683481282
 20
0.5000377732894492
 30
0.0
 11
62.351784917676099
 21
5.4069680074842088
 31
0.0
  0
LINE
  5
46C
  8
0
 62
     0
 10
68.20054589967549
 20
12.13961246596676
 30
0.0
 11
70.560731117997989
 21
14.499797684289261
 31
0.0
  0
LINE
  5
46D
  8
0
 62
     0
 10
56.560971206998111
 20
0.5000377732894208
 30
0.0
 11
61.467901441449378
 21
5.4069680077406579
 31
0.0
  0
LINE
  5
46E
  8
0
 62
     0
 10
67.677050725514846
 20
12.500000768289389
 30
0.0
 11
69.676847641514769
 21
14.499797684289319
 31
0.0
  0
LINE
  5
46F
  8
0
 62
     0
 10
55.677087730514899
 20
0.5000377732893924
 30
0.0
 11
60.583089593405639
 21
5.4060396361801386
 31
0.0
  0
LINE
  5
470
  8
0
 62
     0
 10
66.793167249031654
 20
12.50000076828931
 30
0.0
 11
68.792964165031634
 21
14.499797684289289
 31
0.0
  0
LINE
  5
471
  8
0
 62
     0
 10
54.793204254031771
 20
0.5000377732894208
 30
0.0
 11
59.6099694918029
 21
5.3168030110605571
 31
0.0
  0
LINE
  5
472
  8
0
 62
     0
 10
53.909320777548572
 20
0.5000377732894208
 30
0.0
 11
58.816251011566749
 21
5.4069680073075679
 31
0.0
  0
LINE
  5
473
  8
0
 62
     0
 10
65.909283772548463
 20
12.50000076828934
 30
0.0
 11
68.409102555085155
 21
14.99981955082597
 31
0.0
  0
LINE
  5
474
  8
0
 62
     0
 10
53.409316424698289
 20
0.0000334204391095
 30
0.0
 11
53.750545985454238
 21
0.341262981195058
 31
0.0
  0
LINE
  5
475
  8
0
 62
     0
 10
65.0254002960653
 20
12.50000076828934
 30
0.0
 11
67.525266415189321
 21
14.99986688741336
 31
0.0
  0
LINE
  5
476
  8
0
 62
     0
 10
52.525424418980002
 20
0.0000248912040774
 30
0.0
 11
57.932367535111382
 21
5.406968007335422
 31
0.0
  0
LINE
  5
477
  8
0
 62
     0
 10
64.221585984235418
 20
12.580069932942621
 30
0.0
 11
66.641430275293516
 21
14.999914224000721
 31
0.0
  0
LINE
  5
478
  8
0
 62
     0
 10
51.641532413261807
 20
0.0000163619690454
 30
0.0
 11
57.048484058656101
 21
5.4069680073633029
 31
0.0
  0
LINE
  5
479
  8
0
 62
     0
 10
64.125545869569891
 20
13.36791329476028
 30
0.0
 11
65.757594135397682
 21
14.999961560588069
 31
0.0
  0
LINE
  5
47A
  8
0
 62
     0
 10
50.757640407543619
 20
0.0000078327340134
 30
0.0
 11
56.287484755102042
 21
5.5298521802924361
 31
0.0
  0
LINE
  5
47B
  8
0
 62
     0
 10
53.200545899673237
 20
3.3267968013468581
 30
0.0
 11
55.723117903638069
 21
5.8493688053116548
 31
0.0
  0
LINE
  5
47C
  8
0
 62
     0
 10
49.889151747408988
 20
0.0154026490826027
 30
0.0
 11
52.373749866615753
 21
2.5000007682893681
 31
0.0
  0
LINE
  5
47D
  8
0
 62
     0
 10
53.200545899669862
 20
4.210680277826639
 30
0.0
 11
55.273023599005342
 21
6.2831579771621193
 31
0.0
  0
LINE
  5
47E
  8
0
 62
     0
 10
49.725545895576452
 20
0.7356802737332658
 30
0.0
 11
51.489866390132534
 21
2.5000007682893108
 31
0.0
  0
LINE
  5
47F
  8
0
 62
     0
 10
53.20054589966648
 20
5.0945637543064768
 30
0.0
 11
54.831081861449803
 21
6.7250997160897441
 31
0.0
  0
LINE
  5
480
  8
0
 62
     0
 10
49.189268309025408
 20
1.083286163665377
 30
0.0
 11
50.605982913649342
 21
2.5000007682893108
 31
0.0
  0
LINE
  5
481
  8
0
 62
     0
 10
52.833505209553493
 20
5.6114065406766249
 30
0.0
 11
54.389140123894258
 21
7.1670414550173973
 31
0.0
  0
LINE
  5
482
  8
0
 62
     0
 10
49.125545895576352
 20
1.9034472266994831
 30
0.0
 11
49.7220994371662
 21
2.5000007682893681
 31
0.0
  0
LINE
  5
483
  8
0
 62
     0
 10
52.391563471996051
 20
6.0533482796024032
 30
0.0
 11
53.947198386338698
 21
7.6089831939450496
 31
0.0
  0
LINE
  5
484
  8
0
 62
     0
 10
51.94962173443858
 20
6.4952900185281521
 30
0.0
 11
53.505256648783039
 21
8.0509249328725616
 31
0.0
  0
LINE
  5
485
  8
0
 62
     0
 10
51.507679996881222
 20
6.9372317574539011
 30
0.0
 11
53.063314911227508
 21
8.4928666718001864
 31
0.0
  0
LINE
  5
486
  8
0
 62
     0
 10
51.065738259323723
 20
7.3791734963796207
 30
0.0
 11
52.621373173671941
 21
8.9348084107278396
 31
0.0
  0
LINE
  5
487
  8
0
 62
     0
 10
55.302682054357398
 20
12.50000076789652
 30
0.0
 11
55.87567020408008
 21
13.07298891761914
 31
0.0
  0
LINE
  5
488
  8
0
 62
     0
 10
50.623796521766302
 20
7.8211152353053697
 30
0.0
 11
52.179431436116403
 21
9.3767501496554644
 31
0.0
  0
LINE
  5
489
  8
0
 62
     0
 10
54.418798577973398
 20
12.50000076799563
 30
0.0
 11
55.80823162897218
 21
13.8894338189944
 31
0.0
  0
LINE
  5
48A
  8
0
 62
     0
 10
50.181854784208838
 20
8.2630569742310627
 30
0.0
 11
51.800545899676479
 21
9.8817480896987036
 31
0.0
  0
LINE
  5
48B
  8
0
 62
     0
 10
53.534915101589426
 20
12.50000076809488
 30
0.0
 11
55.275670195580908
 21
14.24075586208642
 31
0.0
  0
LINE
  5
48C
  8
0
 62
     0
 10
49.739913046651402
 20
8.7049987131568969
 30
0.0
 11
51.800545899676358
 21
10.76563156618181
 31
0.0
  0
LINE
  5
48D
  8
0
 62
     0
 10
52.651031625205377
 20
12.50000076819398
 30
0.0
 11
55.116090147872427
 21
14.96505929086103
 31
0.0
  0
LINE
  5
48E
  8
0
 62
     0
 10
49.291045580288682
 20
9.1400147232773463
 30
0.0
 11
51.800545899676337
 21
11.649515042665
 31
0.0
  0
LINE
  5
48F
  8
0
 62
     0
 10
48.730862116914068
 20
9.4637147363858372
 30
0.0
 11
54.267110200684662
 21
14.999962820156441
 31
0.0
  0
LINE
  5
490
  8
0
 62
     0
 10
39.267148148735153
 20
0.0000007682069452
 30
0.0
 11
40.875545903976473
 21
1.6083985234482441
 31
0.0
  0
LINE
  5
491
  8
0
 62
     0
 10
47.976297432340282
 20
9.5930335282953081
 30
0.0
 11
53.383179383786569
 21
14.99991547974161
 31
0.0
  0
LINE
  5
492
  8
0
 62
     0
 10
38.383264672149103
 20
0.000000768104087
 30
0.0
 11
40.806139849443632
 21
2.4228759453986579
 31
0.0
  0
LINE
  5
493
  8
0
 62
     0
 10
47.092413955967309
 20
9.5930335284054991
 30
0.0
 11
52.499248566888546
 21
14.999868139326709
 31
0.0
  0
LINE
  5
494
  8
0
 62
     0
 10
37.499381195563103
 20
0.0000007680012573
 30
0.0
 11
39.999381195851157
 21
2.5000007682893108
 31
0.0
  0
LINE
  5
495
  8
0
 62
     0
 10
46.20853047959428
 20
9.5930335285156616
 30
0.0
 11
51.115294635367967
 21
14.499797684289319
 31
0.0
  0
LINE
  5
496
  8
0
 62
     0
 10
51.250545814076503
 20
14.63504886299785
 30
0.0
 11
51.61531774999051
 21
14.99982079891185
 31
0.0
  0
LINE
  5
497
  8
0
 62
     0
 10
36.615497718977082
 20
0.0000007678984275
 30
0.0
 11
39.115497719367937
 21
2.5000007682893108
 31
0.0
  0
LINE
  5
498
  8
0
 62
     0
 10
45.4032202054536
 20
9.6716067308581728
 30
0.0
 11
50.231411158884718
 21
14.499797684289261
 31
0.0
  0
LINE
  5
499
  8
0
 62
     0
 10
36.231614242884831
 20
0.5000007682893966
 30
0.0
 11
38.231614242884802
 21
2.5000007682893681
 31
0.0
  0
LINE
  5
49A
  8
0
 62
     0
 10
44.445045320470619
 20
9.5973153223583552
 30
0.0
 11
49.347527682401527
 21
14.499797684289289
 31
0.0
  0
LINE
  5
49B
  8
0
 62
     0
 10
35.347730766401668
 20
0.5000007682893966
 30
0.0
 11
37.347730766401611
 21
2.5000007682893108
 31
0.0
  0
LINE
  5
49C
  8
0
 62
     0
 10
43.556880049895419
 20
9.5930335282663748
 30
0.0
 11
48.463644205918371
 21
14.499797684289289
 31
0.0
  0
LINE
  5
49D
  8
0
 62
     0
 10
34.463847289918483
 20
0.5000007682893966
 30
0.0
 11
36.800545899676308
 21
2.836699378047256
 31
0.0
  0
LINE
  5
49E
  8
0
 62
     0
 10
42.672996573388019
 20
9.5930335282421026
 30
0.0
 11
47.579760729435179
 21
14.499797684289261
 31
0.0
  0
LINE
  5
49F
  8
0
 62
     0
 10
33.579963813435292
 20
0.5000007682893966
 30
0.0
 11
36.800545899676337
 21
3.72058285453042
 31
0.0
  0
LINE
  5
4A0
  8
0
 62
     0
 10
41.779233969373472
 20
9.5831544007107823
 30
0.0
 11
46.695877252951959
 21
14.499797684289289
 31
0.0
  0
LINE
  5
4A1
  8
0
 62
     0
 10
32.6960803369521
 20
0.5000007682893682
 30
0.0
 11
36.800545899676308
 21
4.6044663310136107
 31
0.0
  0
LINE
  5
4A2
  8
0
 62
     0
 10
31.812196860468902
 20
0.5000007682893966
 30
0.0
 11
45.811993776468817
 21
14.499797684289289
 31
0.0
  0
LINE
  5
4A3
  8
0
 62
     0
 10
30.928313383985738
 20
0.5000007682893966
 30
0.0
 11
44.928110299985633
 21
14.499797684289261
 31
0.0
  0
LINE
  5
4A4
  8
0
 62
     0
 10
30.04442990750255
 20
0.5000007682893966
 30
0.0
 11
44.044226823502413
 21
14.499797684289319
 31
0.0
  0
LINE
  5
4A5
  8
0
 62
     0
 10
29.160546431019359
 20
0.5000007682893966
 30
0.0
 11
43.160343347019243
 21
14.499797684289289
 31
0.0
  0
LINE
  5
4A6
  8
0
 62
     0
 10
38.200545899676428
 20
10.42388371342963
 30
0.0
 11
42.27645987053608
 21
14.499797684289261
 31
0.0
  0
LINE
  5
4A7
  8
0
 62
     0
 10
28.276662954536189
 20
0.5000007682893966
 30
0.0
 11
33.190681826174767
 21
5.4140196399279708
 31
0.0
  0
LINE
  5
4A8
  8
0
 62
     0
 10
38.200545899676428
 20
11.30776718991282
 30
0.0
 11
41.39257639405286
 21
14.499797684289289
 31
0.0
  0
LINE
  5
4A9
  8
0
 62
     0
 10
27.392779478053001
 20
0.5000007682893966
 30
0.0
 11
32.29977947775803
 21
5.4070007679944458
 31
0.0
  0
LINE
  5
4AA
  8
0
 62
     0
 10
38.200545899676428
 20
12.19165066639601
 30
0.0
 11
40.508692917569697
 21
14.499797684289289
 31
0.0
  0
LINE
  5
4AB
  8
0
 62
     0
 10
26.508896001569809
 20
0.5000007682893966
 30
0.0
 11
31.415896001428681
 21
5.407000768148265
 31
0.0
  0
LINE
  5
4AC
  8
0
 62
     0
 10
37.625012525038422
 20
12.50000076824116
 30
0.0
 11
39.624809441086541
 21
14.499797684289261
 31
0.0
  0
LINE
  5
4AD
  8
0
 62
     0
 10
25.62501252508665
 20
0.5000007682893682
 30
0.0
 11
30.51902970113699
 21
5.394017944339736
 31
0.0
  0
LINE
  5
4AE
  8
0
 62
     0
 10
36.741129048481191
 20
12.500000768167149
 30
0.0
 11
38.750545985476521
 21
14.509417705162489
 31
0.0
  0
LINE
  5
4AF
  8
0
 62
     0
 10
24.74112904860343
 20
0.5000007682893966
 30
0.0
 11
29.58253668253937
 21
5.3414084022253396
 31
0.0
  0
LINE
  5
4B0
  8
0
 62
     0
 10
23.857245572120259
 20
0.5000007682893966
 30
0.0
 11
28.764245571899298
 21
5.4070007680684284
 31
0.0
  0
LINE
  5
4B1
  8
0
 62
     0
 10
35.857245571924039
 20
12.50000076809317
 30
0.0
 11
38.357067141515451
 21
14.999822337684551
 31
0.0
  0
LINE
  5
4B2
  8
0
 62
     0
 10
23.35724557210813
 20
0.0000007682772321
 30
0.0
 11
23.75054598548428
 21
0.3933011816534133
 31
0.0
  0
LINE
  5
4B3
  8
0
 62
     0
 10
34.973362095366809
 20
12.500000768019129
 30
0.0
 11
37.473231001790431
 21
14.999869674442751
 31
0.0
  0
LINE
  5
4B4
  8
0
 62
     0
 10
22.473362095509689
 20
0.0000007681620104
 30
0.0
 11
27.880362095525442
 21
5.4070007681777383
 31
0.0
  0
LINE
  5
4B5
  8
0
 62
     0
 10
34.125545869575923
 20
12.536068018711431
 30
0.0
 11
36.58939486206549
 21
14.999917011200999
 31
0.0
  0
LINE
  5
4B6
  8
0
 62
     0
 10
21.589478618911269
 20
0.0000007680467888
 30
0.0
 11
26.9964786191515
 21
5.4070007682870189
 31
0.0
  0
LINE
  5
4B7
  8
0
 62
     0
 10
34.12554586956324
 20
13.41995149518192
 30
0.0
 11
34.705470917670709
 21
13.999876543289391
 31
0.0
  0
LINE
  5
4B8
  8
0
 62
     0
 10
34.725545869675841
 20
14.019951495294521
 30
0.0
 11
35.705558722340562
 21
14.9999643479592
 31
0.0
  0
LINE
  5
4B9
  8
0
 62
     0
 10
20.705595142312891
 20
0.0000007679315672
 30
0.0
 11
26.24976730909248
 21
5.5441729347111561
 31
0.0
  0
LINE
  5
4BA
  8
0
 62
     0
 10
23.20054589967307
 20
3.3788350017749731
 30
0.0
 11
25.694538965331532
 21
5.8728280674334314
 31
0.0
  0
LINE
  5
4BB
  8
0
 62
     0
 10
19.86705198122592
 20
0.0453410833278269
 30
0.0
 11
22.32171166618744
 21
2.5000007682893388
 31
0.0
  0
LINE
  5
4BC
  8
0
 62
     0
 10
23.200545899669802
 20
4.2627184782548388
 30
0.0
 11
25.24700450910046
 21
6.3091770876855264
 31
0.0
  0
LINE
  5
4BD
  8
0
 62
     0
 10
19.725545895576492
 20
0.7877184741615509
 30
0.0
 11
21.43782818970428
 21
2.5000007682893388
 31
0.0
  0
LINE
  5
4BE
  8
0
 62
     0
 10
23.19929286477393
 20
5.1453489198421494
 30
0.0
 11
24.805062770186481
 21
6.7511188252547347
 31
0.0
  0
LINE
  5
4BF
  8
0
 62
     0
 10
19.180699729497292
 20
1.126755784565546
 30
0.0
 11
20.55394471322106
 21
2.5000007682893108
 31
0.0
  0
LINE
  5
4C0
  8
0
 62
     0
 10
22.807486108879289
 20
5.6374256404307337
 30
0.0
 11
24.363121031272438
 21
7.1930605628238871
 31
0.0
  0
LINE
  5
4C1
  8
0
 62
     0
 10
19.125545895574561
 20
1.955485427126006
 30
0.0
 11
19.67006123673789
 21
2.5000007682893388
 31
0.0
  0
LINE
  5
4C2
  8
0
 62
     0
 10
22.36554437066971
 20
6.0793673787042897
 30
0.0
 11
23.92117929235846
 21
7.6350023003930678
 31
0.0
  0
LINE
  5
4C3
  8
0
 62
     0
 10
21.923602632460049
 20
6.5213091169778741
 30
0.0
 11
23.479237553444449
 21
8.0769440379622495
 31
0.0
  0
LINE
  5
4C4
  8
0
 62
     0
 10
21.481660894250471
 20
6.9632508552514301
 30
0.0
 11
23.037295814530491
 21
8.5188857755314586
 31
0.0
  0
LINE
  5
4C5
  8
0
 62
     0
 10
21.03971915604086
 20
7.4051925935250154
 30
0.0
 11
22.595354075616459
 21
8.9608275131006092
 31
0.0
  0
LINE
  5
4C6
  8
0
 62
     0
 10
25.250643854269718
 20
12.50000076823707
 30
0.0
 11
25.87567020417649
 21
13.12502711814383
 31
0.0
  0
LINE
  5
4C7
  8
0
 62
     0
 10
20.59777741783126
 20
7.8471343317986282
 30
0.0
 11
22.15341233670248
 21
9.4027692506698486
 31
0.0
  0
LINE
  5
4C8
  8
0
 62
     0
 10
24.366760377712492
 20
12.50000076816303
 30
0.0
 11
25.783264205797479
 21
13.91650459624802
 31
0.0
  0
LINE
  5
4C9
  8
0
 62
     0
 10
20.155835679621671
 20
8.2890760700721842
 30
0.0
 11
21.800545899683328
 21
9.9337862901338383
 31
0.0
  0
LINE
  5
4CA
  8
0
 62
     0
 10
23.482876901155301
 20
12.50000076808899
 30
0.0
 11
25.27567019557646
 21
14.29279406251012
 31
0.0
  0
LINE
  5
4CB
  8
0
 62
     0
 10
19.713893941412071
 20
8.7310178083457686
 30
0.0
 11
21.800545899681371
 21
10.81766976661504
 31
0.0
  0
LINE
  5
4CC
  8
0
 62
     0
 10
19.262198854211189
 20
9.1632061976281136
 30
0.0
 11
21.800545899679321
 21
11.701553243096241
 31
0.0
  0
LINE
  5
4CD
  8
0
 62
     0
 10
22.598993424598071
 20
12.50000076801496
 30
0.0
 11
25.08016770599923
 21
14.98117504941612
 31
0.0
  0
LINE
  5
4CE
  8
0
 62
     0
 10
10.17471148345331
 20
0.0757188268702294
 30
0.0
 11
10.199827845359209
 21
0.1008351887761307
 31
0.0
  0
LINE
  5
4CF
  8
0
 62
     0
 10
18.692784102929721
 20
9.4776749228298058
 30
0.0
 11
24.21506921270117
 21
14.999960032601219
 31
0.0
  0
LINE
  5
4D0
  8
0
 62
     0
 10
9.2151099483803876
 20
0.0000007682804721
 30
0.0
 11
10.87554590394566
 21
1.660436723845748
 31
0.0
  0
LINE
  5
4D1
  8
0
 62
     0
 10
17.924259232877152
 20
9.5930335292604241
 30
0.0
 11
23.331138395996899
 21
14.99991269238015
 31
0.0
  0
LINE
  5
4D2
  8
0
 62
     0
 10
8.3312264718868771
 20
0.000000768270155
 30
0.0
 11
10.764321726965219
 21
2.4330960233484968
 31
0.0
  0
LINE
  5
4D3
  8
0
 62
     0
 10
17.040375756136079
 20
9.5930335290025521
 30
0.0
 11
22.447207579292659
 21
14.9998653521591
 31
0.0
  0
LINE
  5
4D4
  8
0
 62
     0
 10
7.4473429953933978
 20
0.000000768259838
 30
0.0
 11
9.9473429957559176
 21
2.5000007686223849
 31
0.0
  0
LINE
  5
4D5
  8
0
 62
     0
 10
16.156492279394971
 20
9.59303352874457
 30
0.0
 11
21.06325643493966
 21
14.499797684289289
 31
0.0
  0
LINE
  5
4D6
  8
0
 62
     0
 10
21.250545814057709
 20
14.68708706340732
 30
0.0
 11
21.563276762588369
 21
14.999818011938
 31
0.0
  0
LINE
  5
4D7
  8
0
 62
     0
 10
6.5634595188998901
 20
0.0000007682495209
 30
0.0
 11
9.0634595191791902
 21
2.5000007685287922
 31
0.0
  0
LINE
  5
4D8
  8
0
 62
     0
 10
15.376948046787129
 20
9.6973727726199854
 30
0.0
 11
20.17937295845644
 21
14.499797684289289
 31
0.0
  0
LINE
  5
4D9
  8
0
 62
     0
 10
5.6795760424063806
 20
0.0000007682392322
 30
0.0
 11
8.1795760426024344
 21
2.5000007684352852
 31
0.0
  0
LINE
  5
4DA
  8
0
 62
     0
 10
14.388725326973431
 20
9.5930335292894142
 30
0.0
 11
19.295489481973281
 21
14.499797684289289
 31
0.0
  0
LINE
  5
4DB
  8
0
 62
     0
 10
4.7956925659128444
 20
0.0000007682288583
 30
0.0
 11
7.2956925660257346
 21
2.5000007683417489
 31
0.0
  0
LINE
  5
4DC
  8
0
 62
     0
 10
13.504841850498959
 20
9.5930335292981397
 30
0.0
 11
18.411606005490111
 21
14.499797684289261
 31
0.0
  0
LINE
  5
4DD
  8
0
 62
     0
 10
3.9118090894193922
 20
0.0000007682185412
 30
0.0
 11
6.8005458996580037
 21
2.8887375784571812
 31
0.0
  0
LINE
  5
4DE
  8
0
 62
     0
 10
12.62095837402444
 20
9.5930335293068367
 30
0.0
 11
17.527722529006891
 21
14.499797684289289
 31
0.0
  0
LINE
  5
4DF
  8
0
 62
     0
 10
3.027925612925884
 20
0.000000768208281
 30
0.0
 11
6.8005458996613584
 21
3.7726210549437549
 31
0.0
  0
LINE
  5
4E0
  8
0
 62
     0
 10
11.72045272450776
 20
9.5764113562732973
 30
0.0
 11
16.643839052523731
 21
14.499797684289289
 31
0.0
  0
LINE
  5
4E1
  8
0
 62
     0
 10
2.1440421364324318
 20
0.0000007681979923
 30
0.0
 11
6.8005458996646553
 21
4.6565045314302154
 31
0.0
  0
LINE
  5
4E2
  8
0
 62
     0
 10
5.4168300188204617
 20
4.1566721270692417
 30
0.0
 11
15.759955576040539
 21
14.499797684289289
 31
0.0
  0
LINE
  5
4E3
  8
0
 62
     0
 10
1.2601586599388661
 20
0.0000007681876184
 30
0.0
 11
3.1101586597081901
 21
1.8500007679569419
 31
0.0
  0
LINE
  5
4E4
  8
0
 62
     0
 10
5.5005458996573111
 20
5.124271484389225
 30
0.0
 11
14.87607209955735
 21
14.499797684289289
 31
0.0
  0
LINE
  5
4E5
  8
0
 62
     0
 10
0.5068267720470204
 20
0.1305523567789635
 30
0.0
 11
2.2262751834411461
 21
1.8500007681730599
 31
0.0
  0
LINE
  5
4E6
  8
0
 62
     0
 10
5.5005458996596133
 20
6.0081549608746911
 30
0.0
 11
13.992188623074179
 21
14.499797684289289
 31
0.0
  0
LINE
  5
4E7
  8
0
 62
     0
 10
0.0866866800156459
 20
0.5942957412307522
 30
0.0
 11
1.5133866704781831
 21
2.0209957316932901
 31
0.0
  0
LINE
  5
4E8
  8
0
 62
     0
 10
5.500545899661887
 20
6.892038437360184
 30
0.0
 11
13.108305146590959
 21
14.499797684289289
 31
0.0
  0
LINE
  5
4E9
  8
0
 62
     0
 10
0.000465967159812
 20
1.391958504858138
 30
0.0
 11
1.500545899673738
 21
2.8920384373720651
 31
0.0
  0
LINE
  5
4EA
  8
0
 62
     0
 10
5.5643476187583181
 20
7.839723632939779
 30
0.0
 11
12.2244216701078
 21
14.499797684289289
 31
0.0
  0
LINE
  5
4EB
  8
0
 62
     0
 10
0.000285752281826
 20
2.275661766463315
 30
0.0
 11
1.500545899694969
 21
3.7759219138764588
 31
0.0
  0
LINE
  5
4EC
  8
0
 62
     0
 10
5.5005458996651271
 20
8.6598053903297512
 30
0.0
 11
11.34053819362464
 21
14.499797684289261
 31
0.0
  0
LINE
  5
4ED
  8
0
 62
     0
 10
0.0001055374038685
 20
3.1593650280684922
 30
0.0
 11
1.2157285316056909
 21
4.374988022270343
 31
0.0
  0
LINE
  5
4EE
  8
0
 62
     0
 10
5.5005458996631651
 20
9.5436888668110385
 30
0.0
 11
10.45665471714142
 21
14.499797684289289
 31
0.0
  0
LINE
  5
4EF
  8
0
 62
     0
 10
5.4878826007150963
 20
10.4149090443461
 30
0.0
 11
9.5727712406582555
 21
14.499797684289289
 31
0.0
  0
LINE
  5
4F0
  8
0
 62
     0
 10
5.3288908832968778
 20
11.13980080341107
 30
0.0
 11
8.7505459855065055
 21
14.561455905620701
 31
0.0
  0
LINE
  5
4F1
  8
0
 62
     0
 10
5.0407820344580321
 20
11.73557543105545
 30
0.0
 11
8.3050156633144638
 21
14.999809059911881
 31
0.0
  0
LINE
  5
4F2
  8
0
 62
     0
 10
4.6518362356021044
 20
12.23051310868269
 30
0.0
 11
7.4211553840551678
 21
14.99983225713572
 31
0.0
  0
LINE
  5
4F3
  8
0
 62
     0
 10
4.2101096829002813
 20
12.672670032464049
 30
0.0
 11
6.5372951047957306
 21
14.99985545435953
 31
0.0
  0
LINE
  5
4F4
  8
0
 62
     0
 10
3.6882306971490371
 20
13.034674523195971
 30
0.0
 11
5.6534348255364364
 21
14.999878651583369
 31
0.0
  0
LINE
  5
4F5
  8
0
 62
     0
 10
1.2804134296120531
 20
10.62685725565902
 30
0.0
 11
1.498244371785602
 21
10.844688197832539
 31
0.0
  0
LINE
  5
4F6
  8
0
 62
     0
 10
2.9196734657768668
 20
13.15000076830699
 30
0.0
 11
4.7695745462770267
 21
14.99990184880715
 31
0.0
  0
LINE
  5
4F7
  8
0
 62
     0
 10
0.5286796555396336
 20
10.75900695806976
 30
0.0
 11
1.500288847249635
 21
11.73061614977976
 31
0.0
  0
LINE
  5
4F8
  8
0
 62
     0
 10
2.035789989375246
 20
13.15000076838859
 30
0.0
 11
3.8857142670176472
 21
14.99992504603099
 31
0.0
  0
LINE
  5
4F9
  8
0
 62
     0
 10
0.0550124504630389
 20
11.16922322947639
 30
0.0
 11
1.5004831839341639
 21
12.614693962947509
 31
0.0
  0
LINE
  5
4FA
  8
0
 62
     0
 10
0.0005458996313052
 20
11.99864015512779
 30
0.0
 11
3.0018539877582948
 21
14.999948243254799
 31
0.0
  0
LINE
  5
4FB
  8
0
 62
     0
 10
0.0005458996491257
 20
12.88252363162885
 30
0.0
 11
2.1179937084989708
 21
14.999971440478671
 31
0.0
  0
LINE
  5
4FC
  8
0
 62
     0
 10
0.0005458996669176
 20
13.76640710812978
 30
0.0
 11
1.234133429239562
 21
14.999994637702461
 31
0.0
  0
ENDBLK
  5
4FE
  8
0
  0
BLOCK
  8
0
  2
*U3
 70
     1
 10
0.0
 20
0.0
 30
0.0
  3
*U3
  1

  0
ARC
  5
500
  8
0
 10
70.625545903976445
 20
1.250021458785852
 30
0.0
 40
0.25
 50
270.0000000663884
 51
0.0
  0
LINE
  5
501
  8
0
 10
70.875545903976445
 20
1.250021458785852
 30
0.0
 11
70.875545903976445
 21
2.2500007682893681
 31
0.0
  0
LINE
  5
502
  8
0
 10
70.275545903976763
 20
1.0000214583801601
 30
0.0
 11
70.625545904266119
 21
1.000021458785852
 31
0.0
  0
ARC
  5
503
  8
0
 10
70.625545903976445
 20
2.2500007682893681
 30
0.0
 40
0.25
 50
0.0
 51
90.0
  0
LINE
  5
504
  8
0
 10
70.275545903998989
 20
0.3000007682893795
 30
0.0
 11
70.275545903976763
 21
1.0000214583801601
 31
0.0
  0
LINE
  5
505
  8
0
 10
70.625545903976445
 20
2.5000007682893681
 30
0.0
 11
66.800545899376402
 21
2.5000007682893681
 31
0.0
  0
ARC
  5
506
  8
0
 10
69.975421629787661
 20
0.3001250425006958
 30
0.0
 40
0.3001242999407879
 50
270.02372479242558
 51
359.9762752032554
  0
LINE
  5
507
  8
0
 10
66.800545899376402
 20
2.5000007682893681
 30
0.0
 11
66.800545899383323
 21
5.1201017812893213
 31
0.0
  0
LINE
  5
508
  8
0
 10
66.550545813876397
 20
0.0000338182937867
 30
0.0
 11
69.975545903976354
 21
0.0000007682893681
 31
0.0
  0
ARC
  5
509
  8
0
 10
67.106675004776434
 20
5.1175630222893744
 30
0.0
 40
0.3061396323019999
 50
135.47514860250561
 51
179.5248513167337
  0
ARC
  5
50A
  8
0
 10
66.550677497804827
 20
0.3001655002608743
 30
0.0
 40
0.3001317108555124
 50
180.02427033615649
 51
269.97486125824793
  0
LINE
  5
50B
  8
0
 10
66.888413865032362
 20
5.3322338152343596
 30
0.0
 11
70.563480821147763
 21
9.0073007599179391
 31
0.0
  0
LINE
  5
50C
  8
0
 10
66.250545813876442
 20
0.5000377732894208
 30
0.0
 11
66.250545813876329
 21
0.3000383652893674
 31
0.0
  0
ARC
  5
50D
  8
0
 10
71.977794406176372
 20
7.5926624392893984
 30
0.0
 40
2.0003710893200002
 50
90.000802570688847
 51
134.99342301323119
  0
LINE
  5
50E
  8
0
 10
53.750545985476492
 20
0.5000377732894208
 30
0.0
 11
66.250545813876442
 21
0.5000377732894208
 31
0.0
  0
LINE
  5
50F
  8
0
 10
71.977766385976338
 20
9.5930335284131445
 30
0.0
 11
74.395540454675015
 21
9.593033528596834
 31
0.0
  0
LINE
  5
510
  8
0
 10
53.750545985448412
 20
0.3000383652893674
 30
0.0
 11
53.750545985476492
 21
0.5000377732894208
 31
0.0
  0
ARC
  5
511
  8
0
 10
74.394263754576514
 20
9.8961157552893422
 30
0.0
 40
0.3030849156589999
 50
270.24135065751409
 51
314.75864982267541
  0
ARC
  5
512
  8
0
 10
53.450414301481707
 20
0.3001655002946393
 30
0.0
 40
0.3001317108937217
 50
270.02513875438012
 51
359.97572965740068
  0
LINE
  5
513
  8
0
 10
74.607672490834375
 20
9.6809014960293212
 30
0.0
 11
74.929805937218589
 21
10.003034947547491
 31
0.0
  0
LINE
  5
514
  8
0
 10
49.97554830798515
 20
0.0000002858309074
 30
0.0
 11
53.45054598547631
 21
0.0000338182893529
 31
0.0
  0
ARC
  5
515
  8
0
 10
75.000545913776463
 20
9.9322363642893947
 30
0.0
 40
0.100082884025
 50
45.023724959423909
 51
134.97627560725829
  0
ARC
  5
516
  8
0
 10
49.975545895576481
 20
0.2500002858192545
 30
0.0
 40
0.25
 50
180.0
 51
270.0005528833392
  0
LINE
  5
517
  8
0
 10
75.071285889634112
 20
10.003034948247119
 30
0.0
 11
75.39341933671426
 21
9.6809014960251147
 31
0.0
  0
LINE
  5
518
  8
0
 10
49.725545895576488
 20
1.0000214548803681
 30
0.0
 11
49.725545895576488
 21
0.2500002858192545
 31
0.0
  0
ARC
  5
519
  8
0
 10
75.606828072976441
 20
9.8961157552893422
 30
0.0
 40
0.303084915665
 50
225.24135017730461
 51
269.75864934244771
  0
LINE
  5
51A
  8
0
 10
49.375545888267538
 20
1.000021465112837
 30
0.0
 11
49.725545895576488
 21
1.0000214548803681
 31
0.0
  0
LINE
  5
51B
  8
0
 10
75.605551372877699
 20
9.593033528590837
 30
0.0
 11
78.023325441576389
 21
9.5930335292331961
 31
0.0
  0
ARC
  5
51C
  8
0
 10
49.375545895576352
 20
1.250021465112837
 30
0.0
 40
0.2500000000000071
 50
180.0
 51
269.99999832494342
  0
ARC
  5
51D
  8
0
 10
78.023297427176431
 20
7.5926624702893539
 30
0.0
 40
2.000371059139999
 50
45.006576610156777
 51
89.999197595428114
  0
LINE
  5
51E
  8
0
 10
49.125545895576352
 20
2.2500007682893681
 30
0.0
 11
49.125545895576352
 21
1.250021465112837
 31
0.0
  0
LINE
  5
51F
  8
0
 10
79.437611000165575
 20
9.0073007602785253
 30
0.0
 11
83.112677933718373
 21
5.3322338152323141
 31
0.0
  0
ARC
  5
520
  8
0
 10
49.375545895576352
 20
2.2500007682893681
 30
0.0
 40
0.25
 50
90.0
 51
180.0
  0
ARC
  5
521
  8
0
 10
82.894416793976447
 20
5.1175630222893744
 30
0.0
 40
0.306139632299
 50
0.475148683265705
 51
44.524851397504833
  0
LINE
  5
522
  8
0
 10
53.200545899676392
 20
2.5000007682893681
 30
0.0
 11
49.375545895576352
 21
2.5000007682893681
 31
0.0
  0
LINE
  5
523
  8
0
 10
83.200545899366489
 20
5.1201017812892919
 30
0.0
 11
83.200545899376493
 21
2.5000007682893681
 31
0.0
  0
LINE
  5
524
  8
0
 10
53.200545899666388
 20
5.1201017812892919
 30
0.0
 11
53.200545899676392
 21
2.5000007682893681
 31
0.0
  0
LINE
  5
525
  8
0
 10
83.200545899376493
 20
2.5000007682893681
 30
0.0
 11
79.375545895576352
 21
2.5000007682893681
 31
0.0
  0
ARC
  5
526
  8
0
 10
52.894416794234751
 20
5.117563022389759
 30
0.0
 40
0.3061396323397383
 50
0.4751486644140562
 51
44.524851378640498
  0
ARC
  5
527
  8
0
 10
79.375545895576352
 20
2.2500007682893681
 30
0.0
 40
0.25
 50
90.0
 51
180.0
  0
LINE
  5
528
  8
0
 10
49.437611000465658
 20
9.0073007602785822
 30
0.0
 11
53.112677934076373
 21
5.332233815289384
 31
0.0
  0
LINE
  5
529
  8
0
 10
79.125545895576352
 20
2.2500007682893681
 30
0.0
 11
79.125545895576352
 21
1.2500214592562879
 31
0.0
  0
ARC
  5
52A
  8
0
 10
48.023297428615933
 20
7.5926624698174967
 30
0.0
 40
2.000371058668112
 50
45.006576642793398
 51
89.999197628062404
  0
ARC
  5
52B
  8
0
 10
79.375545895576352
 20
1.2500214592562879
 30
0.0
 40
0.25
 50
180.0
 51
269.99999713925382
  0
LINE
  5
52C
  8
0
 10
45.605551373177718
 20
9.5930335285908939
 30
0.0
 11
48.023325441876523
 21
9.5930335282894532
 31
0.0
  0
LINE
  5
52D
  8
0
 10
79.375545883093992
 20
1.0000214592562879
 30
0.0
 11
79.725545895576488
 21
1.0000214417810289
 31
0.0
  0
ARC
  5
52E
  8
0
 10
45.606828073730412
 20
9.8961157551013343
 30
0.0
 40
0.3030849154788722
 50
225.24135009134679
 51
269.75864925648273
  0
LINE
  5
52F
  8
0
 10
79.725545895576488
 20
1.0000214417810289
 30
0.0
 11
79.725545895576488
 21
0.2499998033870554
 31
0.0
  0
LINE
  5
530
  8
0
 10
45.071285889934117
 20
10.003034948246979
 30
0.0
 11
45.393419337276427
 21
9.6809014962894651
 31
0.0
  0
ARC
  5
531
  8
0
 10
79.975545895576474
 20
0.2499998033870554
 30
0.0
 40
0.25
 50
180.0
 51
270.00110574995108
  0
ARC
  5
532
  8
0
 10
45.000545914334452
 20
9.9322363642893947
 30
0.0
 40
0.1000828838425602
 50
45.023725063831769
 51
134.97627571179819
  0
LINE
  5
533
  8
0
 10
79.975550720320825
 20
-0.0000001965663898
 30
0.0
 11
83.450545985476325
 21
0.000066867584593
 31
0.0
  0
LINE
  5
534
  8
0
 10
44.607672490824527
 20
9.6809014963417326
 30
0.0
 11
44.929805937776329
 21
10.003034947289359
 31
0.0
  0
ARC
  5
535
  8
0
 10
83.450406891676494
 20
0.3002059572893927
 30
0.0
 40
0.3001391219349999
 50
270.02655264638548
 51
359.97518429106088
  0
ARC
  5
536
  8
0
 10
44.394263753134283
 20
9.8961157569405884
 30
0.0
 40
0.3030849176182549
 50
270.24135068311961
 51
314.75864983674268
  0
LINE
  5
537
  8
0
 10
83.750545985460064
 20
0.3000759622893838
 30
0.0
 11
83.750545985476492
 21
0.5000747782893882
 31
0.0
  0
LINE
  5
538
  8
0
 10
41.977766379076449
 20
9.5930335282230885
 30
0.0
 11
44.395540453376498
 21
9.5930335282894248
 31
0.0
  0
LINE
  5
539
  8
0
 10
83.750545985476492
 20
0.5000747782893882
 30
0.0
 11
96.250545813876442
 21
0.5000747772893704
 31
0.0
  0
ARC
  5
53A
  8
0
 10
41.977794402511101
 20
7.5926624461795313
 30
0.0
 40
2.0003710822398402
 50
90.000802663339471
 51
134.99342307447111
  0
LINE
  5
53B
  8
0
 10
96.250545813876442
 20
0.5000747772893704
 30
0.0
 11
96.250545813808785
 21
0.300075962289327
 31
0.0
  0
LINE
  5
53C
  8
0
 10
36.888413865333071
 20
5.3322338152337059
 30
0.0
 11
40.563480820976338
 21
9.0073007602894108
 31
0.0
  0
ARC
  5
53D
  8
0
 10
96.550684907576397
 20
0.3002059572893643
 30
0.0
 40
0.300139121919
 50
180.02481570894591
 51
269.97344737271129
  0
ARC
  5
53E
  8
0
 10
37.106675005072248
 20
5.1175630222795396
 30
0.0
 40
0.3061396323049795
 50
135.4751486006391
 51
179.52485131488709
  0
LINE
  5
53F
  8
0
 10
96.550545813876624
 20
0.0000668676005091
 30
0.0
 11
100.02554107893199
 21
-0.0000001965663898
 31
0.0
  0
LINE
  5
540
  8
0
 10
36.800545899676308
 20
2.5000007682893681
 30
0.0
 11
36.800545899676308
 21
5.1201017812893781
 31
0.0
  0
ARC
  5
541
  8
0
 10
100.0255459036764
 20
0.2499998033870554
 30
0.0
 40
0.25
 50
269.99889425004892
 51
359.9999999999805
  0
LINE
  5
542
  8
0
 10
40.625545903976438
 20
2.5000007682893681
 30
0.0
 11
36.800545899676308
 21
2.5000007682893681
 31
0.0
  0
LINE
  5
543
  8
0
 10
100.2755459036764
 20
0.2499998033869701
 30
0.0
 11
100.2755459036766
 21
1.000021451594449
 31
0.0
  0
ARC
  5
544
  8
0
 10
40.625545903976438
 20
2.2500007682893681
 30
0.0
 40
0.25
 50
0.0
 51
90.0
  0
LINE
  5
545
  8
0
 10
100.2755459036766
 20
1.000021451594449
 30
0.0
 11
100.62554590406189
 21
1.0000214521342909
 31
0.0
  0
LINE
  5
546
  8
0
 10
40.875545903976438
 20
1.2500214656406281
 30
0.0
 11
40.875545903976438
 21
2.2500007682893681
 31
0.0
  0
ARC
  5
547
  8
0
 10
100.6255459036765
 20
1.2500214521342909
 30
0.0
 40
0.25
 50
270.00000008832677
 51
0.0
  0
ARC
  5
548
  8
0
 10
40.625545903976438
 20
1.2500214656406281
 30
0.0
 40
0.25
 50
270.00000008045822
 51
0.0
  0
LINE
  5
549
  8
0
 10
100.8755459036765
 20
1.2500214521342909
 30
0.0
 11
100.8755459036765
 21
2.2500007682893388
 31
0.0
  0
LINE
  5
54A
  8
0
 10
40.275545903976763
 20
1.000021465149131
 30
0.0
 11
40.62554590432751
 21
1.0000214656406281
 31
0.0
  0
ARC
  5
54B
  8
0
 10
100.6255459036765
 20
2.2500007682893388
 30
0.0
 40
0.25
 50
0.0
 51
90.0
  0
LINE
  5
54C
  8
0
 10
40.275545903912978
 20
0.3000007682894079
 30
0.0
 11
40.275545903976763
 21
1.000021465149131
 31
0.0
  0
LINE
  5
54D
  8
0
 10
100.6255459036765
 20
2.5000007682893388
 30
0.0
 11
96.800545899476447
 21
2.5000007682893388
 31
0.0
  0
ARC
  5
54E
  8
0
 10
39.975421629694658
 20
0.3001250425076876
 30
0.0
 40
0.3001242999478111
 50
270.02372481017858
 51
359.97627520192663
  0
LINE
  5
54F
  8
0
 10
96.800545899476447
 20
2.5000007682893388
 30
0.0
 11
96.800545899484405
 21
5.1201017812892919
 31
0.0
  0
LINE
  5
550
  8
0
 10
36.55054581387617
 20
0.0000007678909526
 30
0.0
 11
39.975545903976361
 21
0.0000007682893681
 31
0.0
  0
ARC
  5
551
  8
0
 10
97.106675004876479
 20
5.1175630222893744
 30
0.0
 40
0.306139632301
 50
135.47514858939101
 51
179.52485131673751
  0
ARC
  5
552
  8
0
 10
36.550670088275638
 20
0.300125042290091
 30
0.0
 40
0.3001243001286948
 50
180.02372475652379
 51
269.97627516735082
  0
LINE
  5
553
  8
0
 10
96.888413865182272
 20
5.3322338152836153
 30
0.0
 11
100.56348082123461
 21
9.0073007597311516
 31
0.0
  0
LINE
  5
554
  8
0
 10
36.250545813876442
 20
0.500000768289425
 30
0.0
 11
36.250545813876329
 21
0.3000007682893795
 31
0.0
  0
ARC
  5
555
  8
0
 10
101.9777944066763
 20
7.5926624392893984
 30
0.0
 40
2.0003710894800002
 50
90.0008025936
 51
134.9934230253823
  0
LINE
  5
556
  8
0
 10
23.750545985476489
 20
0.500000768289425
 30
0.0
 11
36.250545813876442
 21
0.500000768289425
 31
0.0
  0
LINE
  5
557
  8
0
 10
101.9777663856764
 20
9.5930335285731303
 30
0.0
 11
104.395540454675
 21
9.5930335286344341
 31
0.0
  0
LINE
  5
558
  8
0
 10
23.750545985491101
 20
0.3000007682893795
 30
0.0
 11
23.750545985476489
 21
0.500000768289425
 31
0.0
  0
ARC
  5
559
  8
0
 10
104.3942637546763
 20
9.8961157552893422
 30
0.0
 40
0.3030849156209999
 50
270.24135063867459
 51
314.75864982268308
  0
ARC
  5
55A
  8
0
 10
23.450421711283749
 20
0.3001250424967168
 30
0.0
 40
0.3001242999367928
 50
270.02372479318552
 51
359.97627520401471
  0
LINE
  5
55B
  8
0
 10
104.6076724909074
 20
9.6809014960563218
 30
0.0
 11
104.9298059372686
 21
10.00303494769744
 31
0.0
  0
LINE
  5
55C
  8
0
 10
20.025545895576219
 20
0.0000007678429483
 30
0.0
 11
23.45054598547642
 21
0.0000007682893965
 31
0.0
  0
ARC
  5
55D
  8
0
 10
105.0005459136764
 20
9.9322363642893947
 30
0.0
 40
0.100082884025
 50
45.023724918856217
 51
134.97627548580829
  0
ARC
  5
55E
  8
0
 10
20.025670169999788
 20
0.3001250422660746
 30
0.0
 40
0.3001243001526941
 50
180.0237247519371
 51
269.97627516275151
  0
LINE
  5
55F
  8
0
 10
105.0712858895842
 20
10.00303494819704
 30
0.0
 11
105.3934193364143
 21
9.6809014960251147
 31
0.0
  0
LINE
  5
560
  8
0
 10
19.725545895576492
 20
1.0000214688334661
 30
0.0
 11
19.725545895576492
 21
0.3000007682893795
 31
0.0
  0
ARC
  5
561
  8
0
 10
105.60682807267651
 20
9.8961157552893422
 30
0.0
 40
0.303084915665
 50
225.24135017730461
 51
269.75864936133888
  0
LINE
  5
562
  8
0
 10
19.425545895577208
 20
1.0000214718589
 30
0.0
 11
19.725545895576492
 21
1.0000214688334661
 31
0.0
  0
LINE
  5
563
  8
0
 10
105.6055513726777
 20
9.5930335285904391
 30
0.0
 11
108.02332544167641
 21
9.5930335283431702
 31
0.0
  0
ARC
  5
564
  8
0
 10
19.4256701699918
 20
1.30014574627404
 30
0.0
 40
0.3001243001446905
 50
180.02372475345689
 51
269.97627516446551
  0
ARC
  5
565
  8
0
 10
108.0232974276764
 20
7.5926624692893361
 30
0.0
 40
2.000371059249999
 50
45.006576630410159
 51
89.999197606883783
  0
LINE
  5
566
  8
0
 10
19.12554589557385
 20
2.2000007682893852
 30
0.0
 11
19.125545895576462
 21
1.300021472289387
 31
0.0
  0
LINE
  5
567
  8
0
 10
109.43761100024329
 20
9.0073007598562356
 30
0.0
 11
113.112677933516
 21
5.3322338151316151
 31
0.0
  0
ARC
  5
568
  8
0
 10
19.42567016977512
 20
2.1998764940880728
 30
0.0
 40
0.3001242999307521
 50
90.023724794336303
 51
179.97627520516451
  0
ARC
  5
569
  8
0
 10
112.8944167936765
 20
5.1175630222893744
 30
0.0
 40
0.306139632298
 50
0.4751486823310428
 51
44.524851371267189
  0
LINE
  5
56A
  8
0
 10
23.200545899676399
 20
2.5000007682893681
 30
0.0
 11
19.42554589557642
 21
2.5000007682893681
 31
0.0
  0
LINE
  5
56B
  8
0
 10
113.2005458990656
 20
5.1201017812842897
 30
0.0
 11
113.2005458996764
 21
2.5000007682893388
 31
0.0
  0
LINE
  5
56C
  8
0
 10
23.200545899666508
 20
5.1201017812892919
 30
0.0
 11
23.200545899676399
 21
2.5000007682893681
 31
0.0
  0
LINE
  5
56D
  8
0
 10
113.2005458996764
 20
2.5000007682893388
 30
0.0
 11
109.3755458956764
 21
2.5000007682893388
 31
0.0
  0
ARC
  5
56E
  8
0
 10
22.894416794271251
 20
5.1175630223018791
 30
0.0
 40
0.3061396323040924
 50
0.4751486809171834
 51
44.524851408270401
  0
ARC
  5
56F
  8
0
 10
109.3755458956764
 20
2.2500007682893388
 30
0.0
 40
0.25
 50
90.0
 51
180.0
  0
LINE
  5
570
  8
0
 10
19.437610989442419
 20
9.0073007603553776
 30
0.0
 11
23.112677933976439
 21
5.332233815289384
 31
0.0
  0
LINE
  5
571
  8
0
 10
109.1255458956764
 20
2.2500007682893388
 30
0.0
 11
109.1255458956764
 21
1.2500214537901111
 31
0.0
  0
ARC
  5
572
  8
0
 10
18.023297410229361
 20
7.5926624552674582
 30
0.0
 40
2.0003710742181182
 50
45.00657678985273
 51
89.999197513883814
  0
ARC
  5
573
  8
0
 10
109.3755458956764
 20
1.2500214537901111
 30
0.0
 40
0.25
 50
180.0
 51
269.99999576109508
  0
LINE
  5
574
  8
0
 10
15.60555135887353
 20
9.5930335285838737
 30
0.0
 11
18.02332542747649
 21
9.5930335292893574
 31
0.0
  0
LINE
  5
575
  8
0
 10
109.3755458771807
 20
1.0000214537901111
 30
0.0
 11
109.72554589567631
 21
1.0000214278960009
 31
0.0
  0
ARC
  5
576
  8
0
 10
15.60682805935312
 20
9.8961157551333656
 30
0.0
 40
0.303084915517595
 50
225.2413500925849
 51
269.75864927033291
  0
LINE
  5
577
  8
0
 10
109.72554589567631
 20
1.0000214278960009
 30
0.0
 11
109.7255458956765
 21
0.2500007682893397
 31
0.0
  0
LINE
  5
578
  8
0
 10
15.07128587563488
 20
10.003034948247739
 30
0.0
 11
15.39341932287652
 21
9.6809014962893798
 31
0.0
  0
ARC
  5
579
  8
0
 10
109.9755458956765
 20
0.2500007682893397
 30
0.0
 40
0.25
 50
180.0
 51
270.0
  0
ARC
  5
57A
  8
0
 10
15.000545899985241
 20
9.9322363642893947
 30
0.0
 40
0.1000828838784059
 50
45.023725043907561
 51
134.9762757323322
  0
LINE
  5
57B
  8
0
 10
109.9755458956765
 20
0.0000007682893397
 30
0.0
 11
119.0005458996763
 21
0.0000007682745604
 31
0.0
  0
LINE
  5
57C
  8
0
 10
14.60767247683077
 20
9.6809014960328739
 30
0.0
 11
14.929805923376421
 21
10.003034947289359
 31
0.0
  0
ARC
  5
57D
  8
0
 10
119.0001316516763
 20
1.0004150162893941
 30
0.0
 40
1.0004143337799991
 50
270.0237248327486
 51
359.97627516724651
  0
ARC
  5
57E
  8
0
 10
14.39426374141487
 20
9.8961157556366572
 30
0.0
 40
0.3030849153102459
 50
270.24135049956942
 51
314.7586496638969
  0
LINE
  5
57F
  8
0
 10
120.0005458996912
 20
1.000000768289339
 30
0.0
 11
120.00054589977429
 21
3.6750133520477268
 31
0.0
  0
LINE
  5
580
  8
0
 10
11.97776637187644
 20
9.5930335293132032
 30
0.0
 11
14.395540440676429
 21
9.5930335292893858
 31
0.0
  0
ARC
  5
581
  8
0
 10
119.75054589977429
 20
3.6750133520568511
 30
0.0
 40
0.25
 50
359.99999999790907
 51
90.001503899610114
  0
ARC
  5
582
  8
0
 10
11.977794389265
 20
7.5926624553260629
 30
0.0
 40
2.000371074183338
 50
90.000802490167047
 51
134.99342321419959
  0
LINE
  5
583
  8
0
 10
119.7505393377744
 20
3.9250133519707329
 30
0.0
 11
119.5010848526765
 21
3.9250068042894379
 31
0.0
  0
LINE
  5
584
  8
0
 10
6.8884138653376956
 20
5.332233815258661
 30
0.0
 11
10.563480809976451
 21
9.0073007602893824
 31
0.0
  0
LINE
  5
585
  8
0
 10
119.5010848526765
 20
3.9250068042894379
 30
0.0
 11
119.5010796036764
 21
4.125006804625456
 31
0.0
  0
ARC
  5
586
  8
0
 10
7.1066750050574683
 20
5.1175630222918747
 30
0.0
 40
0.3061396322999728
 50
135.47514859640771
 51
179.52485131718799
  0
ARC
  5
587
  8
0
 10
119.25107960376251
 20
4.1250002433754673
 30
0.0
 40
0.25
 50
0.0015037277310972
 51
90.001503785019764
  0
LINE
  5
588
  8
0
 10
6.8005458996565258
 20
2.5000007682893681
 30
0.0
 11
6.8005458996664174
 21
5.1201017812893781
 31
0.0
  0
LINE
  5
589
  8
0
 10
119.2510730422625
 20
4.3750002432893487
 30
0.0
 11
118.7510730525493
 21
4.3749871202896031
 31
0.0
  0
LINE
  5
58A
  8
0
 10
10.5755459039766
 20
2.5000007686888628
 30
0.0
 11
6.8005458996565258
 21
2.5000007682893681
 31
0.0
  0
ARC
  5
58B
  8
0
 10
118.7510796140493
 20
4.12498712037572
 30
0.0
 40
0.25
 50
90.001503785019764
 51
179.9848991731663
  0
ARC
  5
58C
  8
0
 10
10.575421629576679
 20
2.1998764942892128
 30
0.0
 40
0.3001243001291942
 50
0.0237247564153065
 51
89.976275167264006
  0
LINE
  5
58D
  8
0
 10
118.50107962273231
 20
4.1250530101619631
 30
0.0
 11
118.50054590129319
 21
2.1000007682895321
 31
0.0
  0
LINE
  5
58E
  8
0
 10
10.87554590392511
 20
1.300021472289415
 30
0.0
 11
10.875545903976439
 21
2.2000007682893559
 31
0.0
  0
ARC
  5
58F
  8
0
 10
118.2504423396765
 20
2.1001043302893829
 30
0.0
 40
0.2501035830579999
 50
270.02372483274632
 51
359.97627516724719
  0
ARC
  5
590
  8
0
 10
10.57542162970082
 20
1.300145746513663
 30
0.0
 40
0.3001242999537701
 50
270.02372480902778
 51
359.9762752007876
  0
LINE
  5
591
  8
0
 10
118.2505459016763
 20
1.850000768672686
 30
0.0
 11
116.8896331966764
 21
1.8500007679566861
 31
0.0
  0
LINE
  5
592
  8
0
 10
10.27554590397642
 20
1.0000214722894041
 30
0.0
 11
10.57554590397649
 21
1.0000214722894041
 31
0.0
  0
ARC
  5
593
  8
0
 10
116.88965422167639
 20
3.3500515222893341
 30
0.0
 40
1.5000507544799999
 50
225.0008029379446
 51
269.9991969313291
  0
LINE
  5
594
  8
0
 10
10.275545903940129
 20
0.3000007682894079
 30
0.0
 11
10.27554590397642
 21
1.0000214722894041
 31
0.0
  0
LINE
  5
595
  8
0
 10
115.8289730256638
 20
2.2893405972766909
 30
0.0
 11
115.3792255575471
 21
2.739088065160217
 31
0.0
  0
ARC
  5
596
  8
0
 10
9.9754216297133098
 20
0.3001250425161857
 30
0.0
 40
0.3001242999562992
 50
270.0237247990006
 51
359.97627520030488
  0
ARC
  5
597
  8
0
 10
117.5006474096765
 20
4.8604504542893494
 30
0.0
 40
3.0001015083999989
 50
180.0008029922773
 51
224.99919699453031
  0
LINE
  5
598
  8
0
 10
1.0005458996744201
 20
0.0000007681846341
 30
0.0
 11
9.9755459039364496
 21
0.0000007682893681
 31
0.0
  0
LINE
  5
599
  8
0
 10
114.5005459015711
 20
4.860408408289401
 30
0.0
 11
114.5005459013468
 21
6.9757366992865846
 31
0.0
  0
ARC
  5
59A
  8
0
 10
1.000960147768182
 20
1.000415016287632
 30
0.0
 40
1.000414333868215
 50
180.02372483264719
 51
269.9762751618818
  0
ARC
  5
59B
  8
0
 10
114.1944167956765
 20
6.9731979412893841
 30
0.0
 40
0.306139632571
 50
0.4751484951726592
 51
44.524851371243358
  0
LINE
  5
59C
  8
0
 10
0.0000003908926942
 20
3.6749623855165789
 30
0.0
 11
0.0005458996650987
 21
1.0000007682893961
 31
0.0
  0
LINE
  5
59D
  8
0
 10
114.4126779357107
 20
7.187868734322989
 30
0.0
 11
114.17125657974501
 21
7.4292900903576822
 31
0.0
  0
ARC
  5
59E
  8
0
 10
0.250000385694193
 20
3.6750133683753168
 30
0.0
 40
0.2500000000000054
 50
89.998496100389914
 51
180.01168441061381
  0
ARC
  5
59F
  8
0
 10
114.2420843256764
 20
7.5000007682893388
 30
0.0
 40
0.100082813546
 50
135.04738996371171
 51
224.95261003627681
  0
LINE
  5
5A0
  8
0
 10
0.5000069402165082
 20
3.9250068062894168
 30
0.0
 11
0.2500069476941462
 21
3.925013368289199
 31
0.0
  0
LINE
  5
5A1
  8
0
 10
114.17125657974501
 20
7.5707114462210248
 30
0.0
 11
114.4126779350743
 21
7.8121328008982109
 31
0.0
  0
LINE
  5
5A2
  8
0
 10
0.5000121892805112
 20
4.1250068067055281
 30
0.0
 11
0.5000069402165082
 21
3.9250068062894168
 31
0.0
  0
ARC
  5
5A3
  8
0
 10
114.1944167956765
 20
8.0268035942893619
 30
0.0
 40
0.306139632368
 50
315.47514849752702
 51
359.52485150377288
  0
ARC
  5
5A4
  8
0
 10
0.7500121891944218
 20
4.1250002453755306
 30
0.0
 40
0.2499999999999995
 50
89.99849621498025
 51
179.99849625393259
  0
LINE
  5
5A5
  8
0
 10
114.50054590114379
 20
8.0242648362882107
 30
0.0
 11
114.5005459003512
 21
10.139593128289359
 31
0.0
  0
LINE
  5
5A6
  8
0
 10
1.2505524612033689
 20
4.3749871082815437
 30
0.0
 11
0.7500187506943803
 21
4.3750002452894128
 31
0.0
  0
ARC
  5
5A7
  8
0
 10
117.5006474086765
 20
10.13955108228938
 30
0.0
 40
3.0001015086199998
 50
135.00080300546961
 51
179.99919700772219
  0
ARC
  5
5A8
  8
0
 10
1.250545899703297
 20
4.1249871083676624
 30
0.0
 40
0.25
 50
359.99999999863212
 51
89.99849621495423
  0
LINE
  5
5A9
  8
0
 10
115.3792255563915
 20
12.260913471574099
 30
0.0
 11
115.8289730246283
 21
12.710660939337309
 31
0.0
  0
LINE
  5
5AA
  8
0
 10
1.5005458996547529
 20
2.100000768289362
 30
0.0
 11
1.500545899703297
 21
4.1249871083616929
 31
0.0
  0
ARC
  5
5AB
  8
0
 10
116.88965422067641
 20
11.6499500142894
 30
0.0
 40
1.5000507545299999
 50
90.000803030466685
 51
134.9991970620608
  0
ARC
  5
5AC
  8
0
 10
1.7506494616656021
 20
2.10010433030024
 30
0.0
 40
0.2501035834521461
 50
180.02372483524169
 51
269.97627516515541
  0
LINE
  5
5AD
  8
0
 10
116.8896331966766
 20
13.15000076867207
 30
0.0
 11
118.2505459016709
 21
13.15000076850003
 31
0.0
  0
LINE
  5
5AE
  8
0
 10
3.111458603126493
 20
1.8500007679566861
 30
0.0
 11
1.750545899656458
 21
1.85000076828939
 31
0.0
  0
ARC
  5
5AF
  8
0
 10
118.2504423396765
 20
12.899897206289319
 30
0.0
 40
0.250103583652
 50
0.0237248335624219
 51
89.976275168560178
  0
ARC
  5
5B0
  8
0
 10
3.1114375798979381
 20
3.3500515222486049
 30
0.0
 40
1.5000507544392461
 50
270.00080300100808
 51
314.9991970093684
  0
LINE
  5
5B1
  8
0
 10
118.50054590188719
 20
12.90000076829295
 30
0.0
 11
118.50054589273439
 21
10.87500086006281
 31
0.0
  0
LINE
  5
5B2
  8
0
 10
4.621866243633832
 20
2.739088064871992
 30
0.0
 11
4.1721187749063802
 21
2.289340596289406
 31
0.0
  0
ARC
  5
5B3
  8
0
 10
118.75054589273439
 20
10.87500085962361
 30
0.0
 40
0.25
 50
179.99999989934261
 51
269.999999959354
  0
ARC
  5
5B4
  8
0
 10
2.5004443909838301
 20
4.8604504542828693
 30
0.0
 40
3.0001015089673211
 50
315.00080300869507
 51
359.99919700784648
  0
LINE
  5
5B5
  8
0
 10
118.750545892557
 20
10.62500085962361
 30
0.0
 11
119.2509910254991
 21
10.625000859268621
 31
0.0
  0
LINE
  5
5B6
  8
0
 10
5.5005458996621144
 20
6.9757366992893699
 30
0.0
 11
5.5005458996565721
 21
4.860408408289401
 31
0.0
  0
ARC
  5
5B7
  8
0
 10
119.2509910256765
 20
10.875000859268621
 30
0.0
 40
0.25
 50
269.999999959354
 51
0.0
  0
ARC
  5
5B8
  8
0
 10
5.8066750050903693
 20
6.9731979413471938
 30
0.0
 40
0.306139632328454
 50
135.47514860812171
 51
179.52485151474929
  0
LINE
  5
5B9
  8
0
 10
119.5009910256765
 20
10.875000859268621
 30
0.0
 11
119.5009910256765
 21
11.075000859622801
 31
0.0
  0
LINE
  5
5BA
  8
0
 10
5.8298352216061167
 20
7.4292900902298413
 30
0.0
 11
5.5884138653063919
 21
7.1878687342893377
 31
0.0
  0
LINE
  5
5BB
  8
0
 10
119.5009910256765
 20
11.075000859622801
 30
0.0
 11
119.75099102179951
 21
11.07500085927663
 31
0.0
  0
ARC
  5
5BC
  8
0
 10
5.759007475556472
 20
7.5000007682297669
 30
0.0
 40
0.1000828136778811
 50
315.04738998388711
 51
44.95261006446966
  0
ARC
  5
5BD
  8
0
 10
119.7509910221458
 20
11.32500085927663
 30
0.0
 40
0.25
 50
269.99999992063613
 51
0.0095341433738305
  0
LINE
  5
5BE
  8
0
 10
5.5884138653442497
 20
7.81213280231671
 30
0.0
 11
5.8298352215464311
 21
7.5707114462894651
 31
0.0
  0
LINE
  5
5BF
  8
0
 10
120.0009910186846
 20
11.32504245982474
 30
0.0
 11
120.0005458997512
 21
14.0000007682894
 31
0.0
  0
ARC
  5
5C0
  8
0
 10
5.8066750050776363
 20
8.0268035952865642
 30
0.0
 40
0.3061396323118399
 50
180.47514849556961
 51
224.52485140221521
  0
ARC
  5
5C1
  8
0
 10
119.0001316517139
 20
13.99958652025191
 30
0.0
 40
1.0004143338026019
 50
0.0237248348967613
 51
89.976275169394043
  0
LINE
  5
5C2
  8
0
 10
5.5005458996618577
 20
10.139593128289389
 30
0.0
 11
5.500545899666462
 21
8.0242648372893939
 31
0.0
  0
LINE
  5
5C3
  8
0
 10
119.0005458996765
 20
15.00000076828937
 30
0.0
 11
111.5005458136761
 21
14.9998039286034
 31
0.0
  0
ARC
  5
5C4
  8
0
 10
2.5004443909294869
 20
10.13955108245116
 30
0.0
 40
3.000101509026996
 50
0.0008029891886602
 51
44.999197001708971
  0
ARC
  5
5C5
  8
0
 10
111.5007695693389
 20
14.74958018195173
 30
0.0
 40
0.2502238466953058
 50
90.051235152032731
 51
179.95112660337091
  0
LINE
  5
5C6
  8
0
 10
4.1721187749931508
 20
12.710660940356229
 30
0.0
 11
4.6218662432364681
 21
12.26091347228944
 31
0.0
  0
LINE
  5
5C7
  8
0
 10
111.2505458136765
 20
14.749793623289399
 30
0.0
 11
111.2505458136763
 21
14.499797684289319
 31
0.0
  0
ARC
  5
5C8
  8
0
 10
3.1114375804322658
 20
11.64995001411296
 30
0.0
 40
1.5000507543236621
 50
45.000803010392033
 51
89.999197018254605
  0
LINE
  5
5C9
  8
0
 10
111.2505458136763
 20
14.499797684289319
 30
0.0
 11
98.750545985476492
 21
14.499797684289319
 31
0.0
  0
LINE
  5
5CA
  8
0
 10
1.750545899666462
 20
13.150000768414969
 30
0.0
 11
3.1114586031565059
 21
13.150000768289321
 31
0.0
  0
LINE
  5
5CB
  8
0
 10
98.750545985476492
 20
14.499797684289319
 30
0.0
 11
98.750545985491385
 21
14.749793623289399
 31
0.0
  0
ARC
  5
5CC
  8
0
 10
1.7506494617842909
 20
12.899897206287161
 30
0.0
 40
0.250103583569143
 50
90.023724859731786
 51
179.97627516675519
  0
ARC
  5
5CD
  8
0
 10
98.500303058856844
 20
14.74957173620896
 30
0.0
 40
0.2502430250066295
 50
0.05080339363459
 51
89.94678669507941
  0
LINE
  5
5CE
  8
0
 10
1.5001007671552029
 20
10.87500086028944
 30
0.0
 11
1.500545899656458
 21
12.90000076828937
 31
0.0
  0
LINE
  5
5CF
  8
0
 10
98.500535471376466
 20
14.99981465328932
 30
0.0
 11
95.025545870676297
 21
15.00000076869585
 31
0.0
  0
ARC
  5
5D0
  8
0
 10
1.2499972051558641
 20
10.875104422288731
 30
0.0
 40
0.2501035834406389
 50
270.0237248328923
 51
359.97627516741369
  0
ARC
  5
5D1
  8
0
 10
95.02567014507963
 20
14.69987649429271
 30
0.0
 40
0.3001243001326844
 50
90.023724833386822
 51
179.97627524425781
  0
LINE
  5
5D2
  8
0
 10
0.7501007671558
 20
10.62500086126869
 30
0.0
 11
1.2501007671564821
 21
10.62500086028939
 31
0.0
  0
LINE
  5
5D3
  8
0
 10
94.725545870676342
 20
14.70000076828933
 30
0.0
 11
94.725545870676342
 21
13.999876543289419
 31
0.0
  0
ARC
  5
5D4
  8
0
 10
0.7502043291771088
 20
10.87510442328974
 30
0.0
 40
0.2501035834623461
 50
180.0237250619239
 51
269.97627516236969
  0
LINE
  5
5D5
  8
0
 10
94.725545870676342
 20
13.999876543289419
 30
0.0
 11
94.42554587057657
 21
13.99987654269782
 31
0.0
  0
LINE
  5
5D6
  8
0
 10
0.5001007671564821
 20
11.075000860289411
 30
0.0
 11
0.5001007671564821
 21
10.87500086028936
 31
0.0
  0
ARC
  5
5D7
  8
0
 10
94.425670144980586
 20
13.69975226829348
 30
0.0
 40
0.3001243001338852
 50
90.023724833516965
 51
179.97627505348319
  0
LINE
  5
5D8
  8
0
 10
0.2505458996176912
 20
11.075000860289411
 30
0.0
 11
0.5001007671564821
 21
11.075000860289411
 31
0.0
  0
LINE
  5
5D9
  8
0
 10
94.125545870576502
 20
13.699876543289401
 30
0.0
 11
94.125545870564906
 21
12.800000768289349
 31
0.0
  0
ARC
  5
5DA
  8
0
 10
0.2505458996176912
 20
11.3250008602894
 30
0.0
 40
0.25
 50
179.9999999988471
 51
270.0
  0
ARC
  5
5DB
  8
0
 10
94.42567014477072
 20
12.80012504249515
 30
0.0
 40
0.3001242999352848
 50
180.0237247956924
 51
269.97627520651048
  0
LINE
  5
5DC
  8
0
 10
0.0005458996716357
 20
14.0000007682894
 30
0.0
 11
0.0005458996176912
 21
11.325000860294439
 31
0.0
  0
LINE
  5
5DD
  8
0
 10
94.425545870576457
 20
12.50000076828934
 30
0.0
 11
98.200545899676385
 21
12.50000076828934
 31
0.0
  0
ARC
  5
5DE
  8
0
 10
1.0009601477140671
 20
13.999586520246909
 30
0.0
 40
1.000414333807625
 50
90.023724834903149
 51
179.97627516481691
  0
LINE
  5
5DF
  8
0
 10
98.200545899676385
 20
12.50000076828934
 30
0.0
 11
98.200545899668441
 21
9.8798997552894132
 31
0.0
  0
LINE
  5
5E0
  8
0
 10
8.500540833296327
 20
14.99980392828507
 30
0.0
 11
1.0005458996764669
 21
15.00000076828934
 31
0.0
  0
ARC
  5
5E1
  8
0
 10
97.894416794235894
 20
9.8824385141915343
 30
0.0
 40
0.3061396323407207
 50
315.4751486208728
 51
359.52485133510328
  0
ARC
  5
5E2
  8
0
 10
8.5003214070434296
 20
14.749579354292329
 30
0.0
 40
0.2502246702020635
 50
0.0490625221239063
 51
89.949756353733861
  0
LINE
  5
5E3
  8
0
 10
98.112677934076373
 20
9.6677677212893798
 30
0.0
 11
94.437636157411816
 21
5.9926756194538759
 31
0.0
  0
LINE
  5
5E4
  8
0
 10
8.7505459855065055
 20
14.499797684289319
 30
0.0
 11
8.7505459855063918
 21
14.74979362228942
 31
0.0
  0
ARC
  5
5E5
  8
0
 10
93.023341632486776
 20
7.4072419513350383
 30
0.0
 40
2.0003067041143359
 50
270.00047462245459
 51
314.99449481887967
  0
LINE
  5
5E6
  8
0
 10
21.250545814076531
 20
14.499797684289319
 30
0.0
 11
8.7505459855065055
 21
14.499797684289319
 31
0.0
  0
LINE
  5
5E7
  8
0
 10
93.023358202476516
 20
5.4069352472893391
 30
0.0
 11
90.605584133677667
 21
5.4069352469884961
 31
0.0
  0
LINE
  5
5E8
  8
0
 10
21.25054581405141
 20
14.74979362228942
 30
0.0
 11
21.250545814076531
 21
14.499797684289319
 31
0.0
  0
ARC
  5
5E9
  8
0
 10
90.606860833379642
 20
5.103853020083676
 30
0.0
 40
0.3030849158696379
 50
90.241350582383063
 51
134.75864960892659
  0
ARC
  5
5EA
  8
0
 10
21.50078706036766
 20
14.749573425380561
 30
0.0
 40
0.250241343196125
 50
90.055236262198775
 51
179.94958325028841
  0
LINE
  5
5EB
  8
0
 10
90.393452097776347
 20
5.3190672802894312
 30
0.0
 11
90.071318650984267
 21
4.9969338278813211
 31
0.0
  0
LINE
  5
5EC
  8
0
 10
24.975670195576189
 20
15.000000767710841
 30
0.0
 11
21.500545814076531
 21
14.999814652289389
 31
0.0
  0
ARC
  5
5ED
  8
0
 10
90.000578674834514
 20
5.0677324112893407
 30
0.0
 40
0.1000828838425606
 50
225.02372428819029
 51
314.97627538130843
  0
ARC
  5
5EE
  8
0
 10
24.975545921165921
 20
14.699876493299991
 30
0.0
 40
0.3001243001403947
 50
0.0237249452574087
 51
89.976275165289863
  0
LINE
  5
5EF
  8
0
 10
89.929838698276384
 20
4.9969338282894
 30
0.0
 11
89.607705251191064
 21
5.3190672800016321
 31
0.0
  0
LINE
  5
5F0
  8
0
 10
25.275670195576371
 20
14.00000081728933
 30
0.0
 11
25.275670195576481
 21
14.70000076828933
 31
0.0
  0
ARC
  5
5F1
  8
0
 10
89.394296515012456
 20
5.1038530204401686
 30
0.0
 40
0.3030849158172081
 50
45.241350228085707
 51
89.758649273537273
  0
LINE
  5
5F2
  8
0
 10
25.575670204176621
 20
14.00000081770883
 30
0.0
 11
25.275670195576371
 21
14.00000081728933
 31
0.0
  0
LINE
  5
5F3
  8
0
 10
89.395573215476375
 20
5.4069352472893391
 30
0.0
 11
86.977799146776533
 21
5.4069352475427186
 31
0.0
  0
ARC
  5
5F4
  8
0
 10
25.575545929716672
 20
13.69987654324922
 30
0.0
 40
0.300124300189189
 50
0.0237247640502258
 51
89.976275155809248
  0
ARC
  5
5F5
  8
0
 10
86.977829036685989
 20
7.4073108485339674
 30
0.0
 40
2.000375601214547
 50
225.00632248975739
 51
269.99914387794928
  0
LINE
  5
5F6
  8
0
 10
25.875670204176458
 20
12.500000768289389
 30
0.0
 11
25.875670204176458
 21
13.70000081728938
 31
0.0
  0
LINE
  5
5F7
  8
0
 10
85.563505978076407
 20
5.9926756192894279
 30
0.0
 11
81.888413865331586
 21
9.6677677213437505
 31
0.0
  0
LINE
  5
5F8
  8
0
 10
21.800545899677559
 20
12.50000076794816
 30
0.0
 11
25.875670204176458
 21
12.500000768289389
 31
0.0
  0
ARC
  5
5F9
  8
0
 10
82.106675005073384
 20
9.8824385142966946
 30
0.0
 40
0.3061396323059395
 50
180.4751486846433
 51
224.52485139885459
  0
LINE
  5
5FA
  8
0
 10
21.80054589968341
 20
9.8798997552894434
 30
0.0
 11
21.800545899677559
 21
12.50000076794816
 31
0.0
  0
LINE
  5
5FB
  8
0
 10
81.800545899676479
 20
9.8798997552893582
 30
0.0
 11
81.800545899676294
 21
12.500000768289389
 31
0.0
  0
ARC
  5
5FC
  8
0
 10
22.106675005116472
 20
9.8824385141927564
 30
0.0
 40
0.3061396323412211
 50
180.47514866511929
 51
224.52485137934619
  0
LINE
  5
5FD
  8
0
 10
81.800545899676294
 20
12.500000768289389
 30
0.0
 11
85.575670205176493
 21
12.50000076787401
 31
0.0
  0
LINE
  5
5FE
  8
0
 10
25.563455664168028
 20
5.9927259335809699
 30
0.0
 11
21.888413865276451
 21
9.6677677212894082
 31
0.0
  0
ARC
  5
5FF
  8
0
 10
85.57554593071859
 20
12.80012504233161
 30
0.0
 40
0.3001243001871842
 50
270.02372484380032
 51
359.9762752355482
  0
ARC
  5
600
  8
0
 10
26.97775977588288
 20
7.4073673462038983
 30
0.0
 40
2.0003665780854472
 50
225.0068314918762
 51
269.99925098619002
  0
LINE
  5
601
  8
0
 10
85.875670205176391
 20
12.800000768289349
 30
0.0
 11
85.875670205085044
 21
13.70000081728932
 31
0.0
  0
LINE
  5
602
  8
0
 10
29.395507694375169
 20
5.4070007679904393
 30
0.0
 11
26.977733625576441
 21
5.4070007682893779
 31
0.0
  0
ARC
  5
603
  8
0
 10
85.575545930880693
 20
13.699876543085111
 30
0.0
 40
0.3001242999337777
 50
0.0237247953887031
 51
89.976275187129048
  0
ARC
  5
604
  8
0
 10
29.394230994670689
 20
5.1039185410846519
 30
0.0
 40
0.3030849158706357
 50
45.241350390609107
 51
89.758649417144895
  0
LINE
  5
605
  8
0
 10
85.575670205176493
 20
14.00000081728939
 30
0.0
 11
85.275670196576357
 21
14.00000081728933
 31
0.0
  0
LINE
  5
606
  8
0
 10
29.929773177368592
 20
4.99699934958167
 30
0.0
 11
29.60763973027645
 21
5.3191328012893839
 31
0.0
  0
LINE
  5
607
  8
0
 10
85.275670196576357
 20
14.00000081728933
 30
0.0
 11
85.275670196585665
 21
14.70000076828933
 31
0.0
  0
ARC
  5
608
  8
0
 10
30.000513153518799
 20
5.067797933289369
 30
0.0
 40
0.10008288405491
 50
225.02372473976911
 51
314.97627502350929
  0
ARC
  5
609
  8
0
 10
84.975545921881121
 20
14.699876493584719
 30
0.0
 40
0.3001243004342639
 50
0.0237248908775217
 51
89.976275110880465
  0
LINE
  5
60A
  8
0
 10
30.393386576863239
 20
5.3191328010001371
 30
0.0
 11
30.07125312937649
 21
4.9969993492894096
 31
0.0
  0
LINE
  5
60B
  8
0
 10
84.975670196576516
 20
15.00000076828931
 30
0.0
 11
81.500545813976714
 21
14.999814652106039
 31
0.0
  0
ARC
  5
60C
  8
0
 10
30.606795313043001
 20
5.1039185414411463
 30
0.0
 40
0.3030849158162709
 50
90.241350726979306
 51
134.75864977239601
  0
ARC
  5
60D
  8
0
 10
81.500787060238054
 20
14.749573425250899
 30
0.0
 40
0.2502413431424291
 50
90.055236255390739
 51
179.94958299163071
  0
LINE
  5
60E
  8
0
 10
33.023292681276423
 20
5.4070007678685377
 30
0.0
 11
30.605518612576361
 21
5.4070007682893504
 31
0.0
  0
LINE
  5
60F
  8
0
 10
81.250545813976487
 20
14.749793623289399
 30
0.0
 11
81.250545813976487
 21
14.499797684289319
 31
0.0
  0
ARC
  5
610
  8
0
 10
33.023253221963841
 20
7.4074361852841832
 30
0.0
 40
2.0004354178048191
 50
270.00113017998638
 51
314.99235195606713
  0
LINE
  5
611
  8
0
 10
81.250545813976487
 20
14.499797684289319
 30
0.0
 11
68.750545985476492
 21
14.499797684289319
 31
0.0
  0
LINE
  5
612
  8
0
 10
38.112677934020503
 20
9.6677677213443474
 30
0.0
 11
34.437585843276338
 21
5.9927259332893641
 31
0.0
  0
LINE
  5
613
  8
0
 10
68.750545985476492
 20
14.499797684289319
 30
0.0
 11
68.750545985496728
 21
14.749793623289399
 31
0.0
  0
ARC
  5
614
  8
0
 10
37.894416794280012
 20
9.8824385142979452
 30
0.0
 40
0.3061396323054773
 50
315.4751486008866
 51
359.52485131512191
  0
ARC
  5
615
  8
0
 10
68.500304738132854
 20
14.749573425332979
 30
0.0
 40
0.2502413442446394
 50
0.0504169893535882
 51
89.944763497047035
  0
LINE
  5
616
  8
0
 10
38.200545899676399
 20
12.500000768289389
 30
0.0
 11
38.200545899676399
 21
9.8798997552893582
 31
0.0
  0
LINE
  5
617
  8
0
 10
68.500545985476492
 20
14.99981465328929
 30
0.0
 11
65.025545869676762
 21
15.000000767704821
 31
0.0
  0
LINE
  5
618
  8
0
 10
34.125545869576399
 20
12.50000076794816
 30
0.0
 11
38.200545899676399
 21
12.500000768289389
 31
0.0
  0
ARC
  5
619
  8
0
 10
65.025670144083961
 20
14.69987649329698
 30
0.0
 40
0.3001243001373968
 50
90.02372483412438
 51
179.97627505415639
  0
LINE
  5
61A
  8
0
 10
34.125545869559183
 20
13.699876543289401
 30
0.0
 11
34.125545869576399
 21
12.50000076794816
 31
0.0
  0
LINE
  5
61B
  8
0
 10
64.725545869676353
 20
14.70000076828938
 30
0.0
 11
64.725545869676353
 21
13.999876543289419
 31
0.0
  0
ARC
  5
61C
  8
0
 10
34.42567014426777
 20
13.69975226858082
 30
0.0
 40
0.3001243004382943
 50
90.023724888359567
 51
179.97627510836321
  0
LINE
  5
61D
  8
0
 10
64.725545869676353
 20
13.999876543289419
 30
0.0
 11
64.425545869576581
 21
13.999876542705859
 31
0.0
  0
LINE
  5
61E
  8
0
 10
34.725545869676353
 20
13.999876543289419
 30
0.0
 11
34.425545869576361
 21
13.999876543289441
 31
0.0
  0
ARC
  5
61F
  8
0
 10
64.425670143984462
 20
13.699752268297511
 30
0.0
 40
0.3001243001379015
 50
90.023724834254594
 51
179.9762750542541
  0
LINE
  5
620
  8
0
 10
34.72554586965822
 20
14.70000076828933
 30
0.0
 11
34.725545869676353
 21
13.999876543289419
 31
0.0
  0
LINE
  5
621
  8
0
 10
64.125545869576342
 20
13.699876543289401
 30
0.0
 11
64.125545869558763
 21
12.800000768289349
 31
0.0
  0
ARC
  5
622
  8
0
 10
35.025670144367268
 20
14.699876493580289
 30
0.0
 40
0.3001243004387559
 50
90.023724888229324
 51
179.97627510827641
  0
ARC
  5
623
  8
0
 10
64.425670143767547
 20
12.800125042498159
 30
0.0
 40
0.3001242999382845
 50
180.02372479626729
 51
269.97627520709671
  0
LINE
  5
624
  8
0
 10
38.500545985477288
 20
14.99981465320206
 30
0.0
 11
35.025545869676527
 21
15.00000076828937
 31
0.0
  0
LINE
  5
625
  8
0
 10
64.425545869576354
 20
12.50000076828934
 30
0.0
 11
68.200545899676385
 21
12.500000768289389
 31
0.0
  0
ARC
  5
626
  8
0
 10
38.500304738166278
 20
14.74957342529944
 30
0.0
 40
0.2502413441909129
 50
0.050416997043262
 51
89.944763504505815
  0
LINE
  5
627
  8
0
 10
68.200545899676385
 20
12.500000768289389
 30
0.0
 11
68.200545899669351
 21
9.8798997552894132
 31
0.0
  0
LINE
  5
628
  8
0
 10
38.750545985476492
 20
14.499797684289319
 30
0.0
 11
38.750545985476379
 21
14.749793623289399
 31
0.0
  0
ARC
  5
629
  8
0
 10
67.894416794236349
 20
9.882438514192728
 30
0.0
 40
0.3061396323412068
 50
315.47514862065759
 51
359.52485133488068
  0
LINE
  5
62A
  8
0
 10
51.250545814076531
 20
14.499797684289319
 30
0.0
 11
38.750545985476492
 21
14.499797684289319
 31
0.0
  0
LINE
  5
62B
  8
0
 10
68.112677934076373
 20
9.6677677212894082
 30
0.0
 11
64.437610977947998
 21
5.9927007767178964
 31
0.0
  0
LINE
  5
62C
  8
0
 10
51.250545814076531
 20
14.74979362228942
 30
0.0
 11
51.250545814076531
 21
14.499797684289319
 31
0.0
  0
ARC
  5
62D
  8
0
 10
63.023297391806409
 20
7.4073390968462434
 30
0.0
 40
2.0003710897531541
 50
270.00080260133677
 51
314.99342304590522
  0
ARC
  5
62E
  8
0
 10
51.50078706028853
 20
14.74957342530138
 30
0.0
 40
0.2502413430919469
 50
90.055236244104876
 51
179.9495832321376
  0
LINE
  5
62F
  8
0
 10
63.023325413076464
 20
5.4069680072893496
 30
0.0
 11
60.605551344373453
 21
5.406968007990911
 31
0.0
  0
LINE
  5
630
  8
0
 10
54.975670195576413
 20
15.00000076828937
 30
0.0
 11
51.500545814076531
 21
14.999814652106091
 31
0.0
  0
ARC
  5
631
  8
0
 10
60.606828044933991
 20
5.1038857814789651
 30
0.0
 40
0.303084915480388
 50
90.241350744998954
 51
134.7586499093307
  0
ARC
  5
632
  8
0
 10
54.975545920882951
 20
14.69987649358279
 30
0.0
 40
0.3001243004362613
 50
0.023724891246321
 51
89.976275111249578
  0
LINE
  5
633
  8
0
 10
60.393419308476382
 20
5.3191000402894133
 30
0.0
 11
60.071285861184151
 21
4.9969665883817518
 31
0.0
  0
LINE
  5
634
  8
0
 10
55.27567019557636
 20
14.00000081728933
 30
0.0
 11
55.275670195589548
 21
14.70000076828933
 31
0.0
  0
ARC
  5
635
  8
0
 10
60.000545885534393
 20
5.0677651722893984
 30
0.0
 40
0.100082883842587
 50
225.02372428829381
 51
314.97627497665542
  0
LINE
  5
636
  8
0
 10
55.575670204176497
 20
14.00000081728939
 30
0.0
 11
55.27567019557636
 21
14.00000081728933
 31
0.0
  0
LINE
  5
637
  8
0
 10
59.929805908976391
 20
4.9969665892893138
 30
0.0
 11
59.607672462340588
 21
5.3191000405558384
 31
0.0
  0
ARC
  5
638
  8
0
 10
55.57554592988231
 20
13.699876543083629
 30
0.0
 40
0.3001242999352777
 50
0.0237247956815847
 51
89.976275187433018
  0
ARC
  5
639
  8
0
 10
59.394263726931968
 20
5.1038857809350304
 30
0.0
 40
0.3030849153172105
 50
45.241350339345878
 51
89.758649503659925
  0
LINE
  5
63A
  8
0
 10
55.875670204076528
 20
12.80000076828941
 30
0.0
 11
55.875670204088117
 21
13.70000081728938
 31
0.0
  0
LINE
  5
63B
  8
0
 10
59.395540426176467
 20
5.406968007289322
 30
0.0
 11
56.977766357476412
 21
5.4069680073655491
 31
0.0
  0
ARC
  5
63C
  8
0
 10
55.57554592966472
 20
12.80012504227755
 30
0.0
 40
0.300124300141186
 50
270.02372483503558
 51
359.9762752458754
  0
ARC
  5
63D
  8
0
 10
56.97779437191911
 20
7.4073390662717031
 30
0.0
 40
2.0003710591023229
 50
225.0065766109588
 51
269.99919759420368
  0
LINE
  5
63E
  8
0
 10
51.800545899676308
 20
12.500000768289389
 30
0.0
 11
55.575670204076687
 21
12.50000076786591
 31
0.0
  0
LINE
  5
63F
  8
0
 10
55.5634807989764
 20
5.9927007762893822
 30
0.0
 11
51.888413865331593
 21
9.6677677213437221
 31
0.0
  0
LINE
  5
640
  8
0
 10
51.800545899676422
 20
9.8798997552893582
 30
0.0
 11
51.800545899676308
 21
12.500000768289389
 31
0.0
  0
ARC
  5
641
  8
0
 10
52.106675005073377
 20
9.8824385142966946
 30
0.0
 40
0.3061396323059799
 50
180.47514868464319
 51
224.52485139885849
  0
ENDBLK
  5
643
  8
0
  0
ENDSEC
  0
SECTION
  2
ENTITIES
  0
ARC
  5
251
  8
0
 10
3219.319417684359
 20
1373.607149673509
 30
0.0
 40
0.25
 50
270.0000000662842
 51
0.0
  0
LINE
  5
252
  8
0
 10
3219.569417684359
 20
1373.607149673509
 30
0.0
 11
3219.569417684359
 21
1374.607128983012
 31
0.0
  0
LINE
  5
253
  8
0
 10
3218.9694176843591
 20
1373.3571496731031
 30
0.0
 11
3219.3194176846482
 21
1373.357149673509
 31
0.0
  0
ARC
  5
254
  8
0
 10
3219.319417684359
 20
1374.607128983012
 30
0.0
 40
0.25
 50
0.0
 51
90.0
  0
LINE
  5
255
  8
0
 10
3218.9694176843818
 20
1372.6571289830119
 30
0.0
 11
3218.9694176843591
 21
1373.3571496731031
 31
0.0
  0
LINE
  5
256
  8
0
 10
3219.319417684359
 20
1374.857128983012
 30
0.0
 11
3215.494417679759
 21
1374.857128983012
 31
0.0
  0
ARC
  5
257
  8
0
 10
3218.6692934101702
 20
1372.6572532572241
 30
0.0
 40
0.3001242999407879
 50
270.02372479233878
 51
359.976275203277
  0
LINE
  5
258
  8
0
 10
3215.494417679759
 20
1374.857128983012
 30
0.0
 11
3215.4944176797658
 21
1377.4772299960121
 31
0.0
  0
LINE
  5
259
  8
0
 10
3215.2444175942592
 20
1372.3571620330169
 30
0.0
 11
3218.6694176843589
 21
1372.357128983012
 31
0.0
  0
ARC
  5
25A
  8
0
 10
3215.800546785159
 20
1377.4746912370131
 30
0.0
 40
0.3061396323019999
 50
135.47514860255441
 51
179.5248513167445
  0
ARC
  5
25B
  8
0
 10
3215.2445492781881
 20
1372.657293714984
 30
0.0
 40
0.3001317108555124
 50
180.02427033616189
 51
269.97486125824793
  0
LINE
  5
25C
  8
0
 10
3215.5822856454151
 20
1377.689362029957
 30
0.0
 11
3219.2573526015299
 21
1381.364428974641
 31
0.0
  0
LINE
  5
25D
  8
0
 10
3214.944417594259
 20
1372.857165988012
 30
0.0
 11
3214.944417594259
 21
1372.657166580012
 31
0.0
  0
ARC
  5
25E
  8
0
 10
3220.6716661865589
 20
1379.9497906540121
 30
0.0
 40
2.0003710893200002
 50
90.000802570682325
 51
134.9934230132192
  0
LINE
  5
25F
  8
0
 10
3202.4444177658588
 20
1372.857165988012
 30
0.0
 11
3214.944417594259
 21
1372.857165988012
 31
0.0
  0
LINE
  5
260
  8
0
 10
3220.6716381663591
 20
1381.9501617431361
 30
0.0
 11
3223.0894122350578
 21
1381.95016174332
 31
0.0
  0
LINE
  5
261
  8
0
 10
3202.4444177658311
 20
1372.657166580012
 30
0.0
 11
3202.4444177658588
 21
1372.857165988012
 31
0.0
  0
ARC
  5
262
  8
0
 10
3223.0881355349588
 20
1382.2532439700119
 30
0.0
 40
0.3030849156589999
 50
270.24135065751409
 51
314.75864982265648
  0
ARC
  5
263
  8
0
 10
3202.1442860818638
 20
1372.6572937150181
 30
0.0
 40
0.3001317108937217
 50
270.02513875433669
 51
359.97572965737362
  0
LINE
  5
264
  8
0
 10
3223.3015442712172
 20
1382.038029710752
 30
0.0
 11
3223.6236777176009
 21
1382.360163162271
 31
0.0
  0
LINE
  5
265
  8
0
 10
3198.669420088368
 20
1372.3571285005539
 30
0.0
 11
3202.1444177658591
 21
1372.3571620330131
 31
0.0
  0
ARC
  5
266
  8
0
 10
3223.6944176941588
 20
1382.289364579012
 30
0.0
 40
0.100082884025
 50
45.023724959504442
 51
134.97627560720079
  0
ARC
  5
267
  8
0
 10
3198.6694176759588
 20
1372.6071285005421
 30
0.0
 40
0.25
 50
180.0
 51
270.00055288336529
  0
LINE
  5
268
  8
0
 10
3223.7651576700168
 20
1382.3601631629699
 30
0.0
 11
3224.0872911170968
 21
1382.0380297107481
 31
0.0
  0
LINE
  5
269
  8
0
 10
3198.4194176759588
 20
1373.3571496696029
 30
0.0
 11
3198.4194176759588
 21
1372.6071285005421
 31
0.0
  0
ARC
  5
26A
  8
0
 10
3224.3006998533592
 20
1382.2532439700119
 30
0.0
 40
0.303084915665
 50
225.24135017727789
 51
269.75864934249063
  0
LINE
  5
26B
  8
0
 10
3198.0694176686502
 20
1373.3571496798361
 30
0.0
 11
3198.4194176759588
 21
1373.3571496696029
 31
0.0
  0
LINE
  5
26C
  8
0
 10
3224.2994231532612
 20
1381.9501617433141
 30
0.0
 11
3226.7171972219589
 21
1381.950161743956
 31
0.0
  0
ARC
  5
26D
  8
0
 10
3198.0694176759589
 20
1373.6071496798361
 30
0.0
 40
0.2500000000000071
 50
180.0
 51
269.99999832486532
  0
ARC
  5
26E
  8
0
 10
3226.717169207559
 20
1379.949790685012
 30
0.0
 40
2.000371059139999
 50
45.006576610156777
 51
89.99919759544116
  0
LINE
  5
26F
  8
0
 10
3197.8194176759589
 20
1374.607128983012
 30
0.0
 11
3197.8194176759589
 21
1373.6071496798361
 31
0.0
  0
LINE
  5
270
  8
0
 10
3228.1314827805481
 20
1381.3644289750009
 30
0.0
 11
3231.806549714101
 21
1377.689362029955
 31
0.0
  0
ARC
  5
271
  8
0
 10
3198.0694176759589
 20
1374.607128983012
 30
0.0
 40
0.25
 50
90.0
 51
180.0
  0
ARC
  5
272
  8
0
 10
3231.5882885743581
 20
1377.4746912370131
 30
0.0
 40
0.306139632299
 50
0.4751486832603859
 51
44.524851397470961
  0
LINE
  5
273
  8
0
 10
3201.8944176800592
 20
1374.857128983012
 30
0.0
 11
3198.0694176759589
 21
1374.857128983012
 31
0.0
  0
LINE
  5
274
  8
0
 10
3231.894417679749
 20
1377.4772299960121
 30
0.0
 11
3231.894417679759
 21
1374.857128983012
 31
0.0
  0
LINE
  5
275
  8
0
 10
3201.8944176800492
 20
1377.4772299960121
 30
0.0
 11
3201.8944176800592
 21
1374.857128983012
 31
0.0
  0
LINE
  5
276
  8
0
 10
3231.894417679759
 20
1374.857128983012
 30
0.0
 11
3228.0694176759589
 21
1374.857128983012
 31
0.0
  0
ARC
  5
277
  8
0
 10
3201.5882885746169
 20
1377.4746912371129
 30
0.0
 40
0.3061396323397383
 50
0.4751486644296606
 51
44.524851378577019
  0
ARC
  5
278
  8
0
 10
3228.0694176759589
 20
1374.607128983012
 30
0.0
 40
0.25
 50
90.0
 51
180.0
  0
LINE
  5
279
  8
0
 10
3198.1314827808478
 20
1381.3644289750009
 30
0.0
 11
3201.8065497144589
 21
1377.689362030012
 31
0.0
  0
LINE
  5
27A
  8
0
 10
3227.8194176759589
 20
1374.607128983012
 30
0.0
 11
3227.8194176759589
 21
1373.6071496739789
 31
0.0
  0
ARC
  5
27B
  8
0
 10
3196.7171692089978
 20
1379.9497906845411
 30
0.0
 40
2.000371058668112
 50
45.006576642799153
 51
89.999197628068956
  0
ARC
  5
27C
  8
0
 10
3228.0694176759589
 20
1373.6071496739789
 30
0.0
 40
0.25
 50
180.0
 51
269.99999713914963
  0
LINE
  5
27D
  8
0
 10
3194.2994231535599
 20
1381.9501617433141
 30
0.0
 11
3196.7171972222591
 21
1381.9501617430119
 31
0.0
  0
LINE
  5
27E
  8
0
 10
3228.0694176634761
 20
1373.3571496739789
 30
0.0
 11
3228.4194176759588
 21
1373.3571496565039
 31
0.0
  0
ARC
  5
27F
  8
0
 10
3194.3006998541132
 20
1382.2532439698241
 30
0.0
 40
0.3030849154788722
 50
225.24135009138101
 51
269.7586492564613
  0
LINE
  5
280
  8
0
 10
3228.4194176759588
 20
1373.3571496565039
 30
0.0
 11
3228.4194176759588
 21
1372.60712801811
 31
0.0
  0
LINE
  5
281
  8
0
 10
3193.765157670317
 20
1382.3601631629699
 30
0.0
 11
3194.0872911176589
 21
1382.0380297110121
 31
0.0
  0
ARC
  5
282
  8
0
 10
3228.6694176759588
 20
1372.60712801811
 30
0.0
 40
0.25
 50
180.0
 51
270.00110574995108
  0
ARC
  5
283
  8
0
 10
3193.6944176947168
 20
1382.289364579012
 30
0.0
 40
0.1000828838425602
 50
45.023725063831733
 51
134.97627571190179
  0
LINE
  5
284
  8
0
 10
3228.6694225007031
 20
1372.357128018157
 30
0.0
 11
3232.1444177658591
 21
1372.357195082307
 31
0.0
  0
LINE
  5
285
  8
0
 10
3193.3015442712071
 20
1382.0380297110651
 30
0.0
 11
3193.6236777181589
 21
1382.360163162012
 31
0.0
  0
ARC
  5
286
  8
0
 10
3232.144278672059
 20
1372.657334172012
 30
0.0
 40
0.3001391219349999
 50
270.02655264634211
 51
359.9751842910718
  0
ARC
  5
287
  8
0
 10
3193.0881355335168
 20
1382.253243971664
 30
0.0
 40
0.3030849176182549
 50
270.24135068303349
 51
314.75864983667788
  0
LINE
  5
288
  8
0
 10
3232.4444177658429
 20
1372.6572041770121
 30
0.0
 11
3232.4444177658588
 21
1372.8572029930119
 31
0.0
  0
LINE
  5
289
  8
0
 10
3190.6716381594588
 20
1381.950161742946
 30
0.0
 11
3193.089412233759
 21
1381.9501617430119
 31
0.0
  0
LINE
  5
28A
  8
0
 10
3232.4444177658588
 20
1372.8572029930119
 30
0.0
 11
3244.944417594259
 21
1372.8572029920119
 31
0.0
  0
ARC
  5
28B
  8
0
 10
3190.6716661828941
 20
1379.9497906609031
 30
0.0
 40
2.0003710822398402
 50
90.000802663332976
 51
134.99342307447111
  0
LINE
  5
28C
  8
0
 10
3244.944417594259
 20
1372.8572029920119
 30
0.0
 11
3244.9444175941908
 21
1372.6572041770121
 31
0.0
  0
LINE
  5
28D
  8
0
 10
3185.5822856457148
 20
1377.689362029957
 30
0.0
 11
3189.2573526013589
 21
1381.3644289750121
 31
0.0
  0
ARC
  5
28E
  8
0
 10
3245.2445566879592
 20
1372.657334172012
 30
0.0
 40
0.300139121919
 50
180.02481570892959
 51
269.97344737275472
  0
ARC
  5
28F
  8
0
 10
3185.800546785455
 20
1377.4746912370031
 30
0.0
 40
0.3061396323049795
 50
135.47514860065399
 51
179.5248513148764
  0
LINE
  5
290
  8
0
 10
3245.2444175942601
 20
1372.357195082323
 30
0.0
 11
3248.7194128593151
 21
1372.357128018157
 31
0.0
  0
LINE
  5
291
  8
0
 10
3185.4944176800591
 20
1374.857128983012
 30
0.0
 11
3185.4944176800591
 21
1377.4772299960121
 31
0.0
  0
ARC
  5
292
  8
0
 10
3248.719417684059
 20
1372.60712801811
 30
0.0
 40
0.25
 50
269.998894250153
 51
0.0
  0
LINE
  5
293
  8
0
 10
3189.319417684359
 20
1374.857128983012
 30
0.0
 11
3185.4944176800591
 21
1374.857128983012
 31
0.0
  0
LINE
  5
294
  8
0
 10
3248.969417684059
 20
1372.60712801811
 30
0.0
 11
3248.969417684059
 21
1373.3571496663169
 31
0.0
  0
ARC
  5
295
  8
0
 10
3189.319417684359
 20
1374.607128983012
 30
0.0
 40
0.25
 50
0.0
 51
90.0
  0
LINE
  5
296
  8
0
 10
3248.969417684059
 20
1373.3571496663169
 30
0.0
 11
3249.3194176844449
 21
1373.3571496668569
 31
0.0
  0
LINE
  5
297
  8
0
 10
3189.569417684359
 20
1373.607149680364
 30
0.0
 11
3189.569417684359
 21
1374.607128983012
 31
0.0
  0
ARC
  5
298
  8
0
 10
3249.3194176840589
 20
1373.6071496668569
 30
0.0
 40
0.25
 50
270.0000000883789
 51
0.0
  0
ARC
  5
299
  8
0
 10
3189.319417684359
 20
1373.607149680364
 30
0.0
 40
0.25
 50
270.00000008045822
 51
0.0
  0
LINE
  5
29A
  8
0
 10
3249.5694176840589
 20
1373.6071496668569
 30
0.0
 11
3249.5694176840589
 21
1374.607128983012
 31
0.0
  0
LINE
  5
29B
  8
0
 10
3188.9694176843591
 20
1373.357149679872
 30
0.0
 11
3189.3194176847101
 21
1373.357149680364
 31
0.0
  0
ARC
  5
29C
  8
0
 10
3249.3194176840589
 20
1374.607128983012
 30
0.0
 40
0.25
 50
0.0
 51
90.0
  0
LINE
  5
29D
  8
0
 10
3188.9694176842959
 20
1372.6571289830119
 30
0.0
 11
3188.9694176843591
 21
1373.357149679872
 31
0.0
  0
LINE
  5
29E
  8
0
 10
3249.3194176840589
 20
1374.857128983012
 30
0.0
 11
3245.494417679859
 21
1374.857128983012
 31
0.0
  0
ARC
  5
29F
  8
0
 10
3188.669293410077
 20
1372.6572532572311
 30
0.0
 40
0.3001242999478111
 50
270.02372481013521
 51
359.97627520193203
  0
LINE
  5
2A0
  8
0
 10
3245.494417679859
 20
1374.857128983012
 30
0.0
 11
3245.4944176798672
 21
1377.4772299960121
 31
0.0
  0
LINE
  5
2A1
  8
0
 10
3185.2444175942592
 20
1372.3571289826141
 30
0.0
 11
3188.6694176843589
 21
1372.357128983012
 31
0.0
  0
ARC
  5
2A2
  8
0
 10
3245.8005467852599
 20
1377.4746912370131
 30
0.0
 40
0.306139632301
 50
135.4751485894061
 51
179.52485131674311
  0
ARC
  5
2A3
  8
0
 10
3185.244541868658
 20
1372.6572532570131
 30
0.0
 40
0.3001243001286948
 50
180.02372475651299
 51
269.97627516730728
  0
LINE
  5
2A4
  8
0
 10
3245.5822856455652
 20
1377.689362030007
 30
0.0
 11
3249.2573526016172
 21
1381.3644289744541
 31
0.0
  0
LINE
  5
2A5
  8
0
 10
3184.944417594259
 20
1372.857128983012
 30
0.0
 11
3184.944417594259
 21
1372.6571289830119
 31
0.0
  0
ARC
  5
2A6
  8
0
 10
3250.6716661870578
 20
1379.9497906540121
 30
0.0
 40
2.0003710894800002
 50
90.000802593593477
 51
134.99342302538631
  0
LINE
  5
2A7
  8
0
 10
3172.4444177658588
 20
1372.857128983012
 30
0.0
 11
3184.944417594259
 21
1372.857128983012
 31
0.0
  0
LINE
  5
2A8
  8
0
 10
3250.671638166059
 20
1381.9501617432959
 30
0.0
 11
3253.0894122350578
 21
1381.9501617433571
 31
0.0
  0
LINE
  5
2A9
  8
0
 10
3172.4444177658738
 20
1372.6571289830119
 30
0.0
 11
3172.4444177658588
 21
1372.857128983012
 31
0.0
  0
ARC
  5
2AA
  8
0
 10
3253.0881355350589
 20
1382.2532439700119
 30
0.0
 40
0.3030849156209999
 50
270.24135063871739
 51
314.75864982271747
  0
ARC
  5
2AB
  8
0
 10
3172.1442934916658
 20
1372.65725325722
 30
0.0
 40
0.3001242999367928
 50
270.02372479320718
 51
359.97627520401471
  0
LINE
  5
2AC
  8
0
 10
3253.3015442712899
 20
1382.038029710779
 30
0.0
 11
3253.6236777176509
 21
1382.3601631624199
 31
0.0
  0
LINE
  5
2AD
  8
0
 10
3168.719417675959
 20
1372.3571289825661
 30
0.0
 11
3172.1444177658591
 21
1372.357128983012
 31
0.0
  0
ARC
  5
2AE
  8
0
 10
3253.6944176940592
 20
1382.289364579012
 30
0.0
 40
0.100082884025
 50
45.023724918913771
 51
134.9762754857968
  0
ARC
  5
2AF
  8
0
 10
3168.7195419503828
 20
1372.657253256989
 30
0.0
 40
0.3001243001526941
 50
180.0237247519099
 51
269.97627516270808
  0
LINE
  5
2B0
  8
0
 10
3253.7651576699668
 20
1382.3601631629199
 30
0.0
 11
3254.0872911167971
 21
1382.0380297107481
 31
0.0
  0
LINE
  5
2B1
  8
0
 10
3168.4194176759588
 20
1373.3571496835559
 30
0.0
 11
3168.4194176759588
 21
1372.6571289830119
 31
0.0
  0
ARC
  5
2B2
  8
0
 10
3254.30069985306
 20
1382.2532439700119
 30
0.0
 40
0.303084915665
 50
225.24135017727789
 51
269.75864936131751
  0
LINE
  5
2B3
  8
0
 10
3168.11941767596
 20
1373.357149686582
 30
0.0
 11
3168.4194176759588
 21
1373.3571496835559
 31
0.0
  0
LINE
  5
2B4
  8
0
 10
3254.2994231530602
 20
1381.9501617433129
 30
0.0
 11
3256.717197222059
 21
1381.950161743066
 31
0.0
  0
ARC
  5
2B5
  8
0
 10
3168.1195419503752
 20
1373.6572739609969
 30
0.0
 40
0.3001243001446905
 50
180.0237247534298
 51
269.97627516444379
  0
ARC
  5
2B6
  8
0
 10
3256.7171692080592
 20
1379.949790684012
 30
0.0
 40
2.000371059249999
 50
45.00657663041418
 51
89.999197606890306
  0
LINE
  5
2B7
  8
0
 10
3167.8194176759562
 20
1374.557128983012
 30
0.0
 11
3167.8194176759589
 21
1373.657149687012
 31
0.0
  0
LINE
  5
2B8
  8
0
 10
3258.131482780625
 20
1381.3644289745789
 30
0.0
 11
3261.8065497138991
 21
1377.6893620298549
 31
0.0
  0
ARC
  5
2B9
  8
0
 10
3168.1195419501569
 20
1374.5570047088111
 30
0.0
 40
0.3001242999307521
 50
90.023724794336331
 51
179.9762752051862
  0
ARC
  5
2BA
  8
0
 10
3261.5882885740589
 20
1377.4746912370131
 30
0.0
 40
0.306139632298
 50
0.4751486823256355
 51
44.524851371259359
  0
LINE
  5
2BB
  8
0
 10
3171.8944176800592
 20
1374.857128983012
 30
0.0
 11
3168.1194176759591
 21
1374.857128983012
 31
0.0
  0
LINE
  5
2BC
  8
0
 10
3261.894417679448
 20
1377.4772299960071
 30
0.0
 11
3261.8944176800592
 21
1374.857128983012
 31
0.0
  0
LINE
  5
2BD
  8
0
 10
3171.8944176800492
 20
1377.4772299960121
 30
0.0
 11
3171.8944176800592
 21
1374.857128983012
 31
0.0
  0
LINE
  5
2BE
  8
0
 10
3261.8944176800592
 20
1374.857128983012
 30
0.0
 11
3258.0694176760589
 21
1374.857128983012
 31
0.0
  0
ARC
  5
2BF
  8
0
 10
3171.5882885746541
 20
1377.4746912370249
 30
0.0
 40
0.3061396323040924
 50
0.4751486809122172
 51
44.524851408251443
  0
ARC
  5
2C0
  8
0
 10
3258.0694176760589
 20
1374.607128983012
 30
0.0
 40
0.25
 50
90.0
 51
180.0
  0
LINE
  5
2C1
  8
0
 10
3168.1314827698252
 20
1381.364428975078
 30
0.0
 11
3171.8065497143589
 21
1377.689362030012
 31
0.0
  0
LINE
  5
2C2
  8
0
 10
3257.8194176760589
 20
1374.607128983012
 30
0.0
 11
3257.8194176760589
 21
1373.6071496685131
 31
0.0
  0
ARC
  5
2C3
  8
0
 10
3166.7171691906119
 20
1379.9497906699901
 30
0.0
 40
2.0003710742181182
 50
45.006576789848133
 51
89.999197513883814
  0
ARC
  5
2C4
  8
0
 10
3258.0694176760589
 20
1373.6071496685131
 30
0.0
 40
0.25
 50
180.0
 51
269.99999576104301
  0
LINE
  5
2C5
  8
0
 10
3164.2994231392559
 20
1381.950161743307
 30
0.0
 11
3166.717197207859
 21
1381.9501617440119
 31
0.0
  0
LINE
  5
2C6
  8
0
 10
3258.069417657563
 20
1373.3571496685131
 30
0.0
 11
3258.4194176760589
 21
1373.3571496426191
 31
0.0
  0
ARC
  5
2C7
  8
0
 10
3164.300699839735
 20
1382.2532439698559
 30
0.0
 40
0.303084915517595
 50
225.24135009259621
 51
269.75864927033291
  0
LINE
  5
2C8
  8
0
 10
3258.4194176760589
 20
1373.3571496426191
 30
0.0
 11
3258.4194176760589
 21
1372.607128983012
 31
0.0
  0
LINE
  5
2C9
  8
0
 10
3163.7651576560179
 20
1382.360163162971
 30
0.0
 11
3164.0872911032588
 21
1382.0380297110121
 31
0.0
  0
ARC
  5
2CA
  8
0
 10
3258.6694176760589
 20
1372.607128983012
 30
0.0
 40
0.25
 50
180.0
 51
270.0
  0
ARC
  5
2CB
  8
0
 10
3163.6944176803681
 20
1382.289364579012
 30
0.0
 40
0.1000828838784059
 50
45.023725043850042
 51
134.97627573234371
  0
LINE
  5
2CC
  8
0
 10
3258.6694176760589
 20
1372.357128983012
 30
0.0
 11
3267.6944176800589
 21
1372.357128982997
 31
0.0
  0
LINE
  5
2CD
  8
0
 10
3163.3015442572141
 20
1382.0380297107561
 30
0.0
 11
3163.6236777037589
 21
1382.360163162012
 31
0.0
  0
ARC
  5
2CE
  8
0
 10
3267.6940034320592
 20
1373.3575432310131
 30
0.0
 40
1.0004143337799991
 50
270.02372483276167
 51
359.97627516723833
  0
ARC
  5
2CF
  8
0
 10
3163.0881355217971
 20
1382.25324397036
 30
0.0
 40
0.3030849153102459
 50
270.24135049961239
 51
314.75864966393499
  0
LINE
  5
2D0
  8
0
 10
3268.6944176800739
 20
1373.357128983012
 30
0.0
 11
3268.6944176801571
 21
1376.0321415667711
 31
0.0
  0
LINE
  5
2D1
  8
0
 10
3160.6716381522592
 20
1381.950161744036
 30
0.0
 11
3163.0894122210589
 21
1381.9501617440119
 31
0.0
  0
ARC
  5
2D2
  8
0
 10
3268.4444176801571
 20
1376.03214156678
 30
0.0
 40
0.25
 50
359.99999999791561
 51
90.001503899662239
  0
ARC
  5
2D3
  8
0
 10
3160.6716661696478
 20
1379.949790670049
 30
0.0
 40
2.000371074183338
 50
90.000802490167047
 51
134.99342321419499
  0
LINE
  5
2D4
  8
0
 10
3268.444411118156
 20
1376.282141566694
 30
0.0
 11
3268.1949566330591
 21
1376.282135019012
 31
0.0
  0
LINE
  5
2D5
  8
0
 10
3155.5822856457198
 20
1377.689362029982
 30
0.0
 11
3159.257352590359
 21
1381.3644289750121
 31
0.0
  0
LINE
  5
2D6
  8
0
 10
3268.1949566330591
 20
1376.282135019012
 30
0.0
 11
3268.1949513840591
 21
1376.482135019349
 31
0.0
  0
ARC
  5
2D7
  8
0
 10
3155.80054678544
 20
1377.4746912370149
 30
0.0
 40
0.3061396322999728
 50
135.47514859647879
 51
179.52485131720979
  0
ARC
  5
2D8
  8
0
 10
3267.944951384145
 20
1376.4821284580989
 30
0.0
 40
0.25
 50
0.0015037276985276
 51
90.001503784915556
  0
LINE
  5
2D9
  8
0
 10
3155.4944176800391
 20
1374.857128983012
 30
0.0
 11
3155.4944176800491
 21
1377.4772299960121
 31
0.0
  0
LINE
  5
2DA
  8
0
 10
3267.9449448226451
 20
1376.7321284580121
 30
0.0
 11
3267.444944832931
 21
1376.7321153350131
 31
0.0
  0
LINE
  5
2DB
  8
0
 10
3159.2694176843588
 20
1374.8571289834119
 30
0.0
 11
3155.4944176800391
 21
1374.857128983012
 31
0.0
  0
ARC
  5
2DC
  8
0
 10
3267.4449513944319
 20
1376.482115335099
 30
0.0
 40
0.25
 50
90.001503785123987
 51
179.98489917314029
  0
ARC
  5
2DD
  8
0
 10
3159.2692934099591
 20
1374.5570047090121
 30
0.0
 40
0.3001243001291942
 50
0.0237247564261493
 51
89.976275167307406
  0
LINE
  5
2DE
  8
0
 10
3267.1949514031148
 20
1376.4821812248849
 30
0.0
 11
3267.194417681676
 21
1374.457128983013
 31
0.0
  0
LINE
  5
2DF
  8
0
 10
3159.5694176843081
 20
1373.657149687012
 30
0.0
 11
3159.569417684359
 21
1374.557128983012
 31
0.0
  0
ARC
  5
2E0
  8
0
 10
3266.9443141200591
 20
1374.4572325450131
 30
0.0
 40
0.2501035830579999
 50
270.02372483274632
 51
359.97627516725368
  0
ARC
  5
2E1
  8
0
 10
3159.2692934100828
 20
1373.657273961237
 30
0.0
 40
0.3001242999537701
 50
270.02372480900618
 51
359.97627520080391
  0
LINE
  5
2E2
  8
0
 10
3266.9444176820589
 20
1374.2071289833959
 30
0.0
 11
3265.583504977059
 21
1374.2071289826799
 31
0.0
  0
LINE
  5
2E3
  8
0
 10
3158.9694176843591
 20
1373.357149687012
 30
0.0
 11
3159.2694176843588
 21
1373.357149687012
 31
0.0
  0
ARC
  5
2E4
  8
0
 10
3265.583526002059
 20
1375.707179737012
 30
0.0
 40
1.5000507544799999
 50
225.0008029379461
 51
269.9991969313291
  0
LINE
  5
2E5
  8
0
 10
3158.9694176843232
 20
1372.6571289830119
 30
0.0
 11
3158.9694176843591
 21
1373.357149687012
 31
0.0
  0
LINE
  5
2E6
  8
0
 10
3264.522844806047
 20
1374.646468812
 30
0.0
 11
3264.07309733793
 21
1375.096216279883
 31
0.0
  0
ARC
  5
2E7
  8
0
 10
3158.6692934100961
 20
1372.6572532572391
 30
0.0
 40
0.3001242999562992
 50
270.02372479902232
 51
359.9762752003266
  0
ARC
  5
2E8
  8
0
 10
3266.1945191900581
 20
1377.217578669012
 30
0.0
 40
3.0001015083999989
 50
180.00080299227571
 51
224.99919699453611
  0
LINE
  5
2E9
  8
0
 10
3149.6944176800571
 20
1372.3571289829081
 30
0.0
 11
3158.6694176843189
 21
1372.357128983012
 31
0.0
  0
LINE
  5
2EA
  8
0
 10
3263.1944176819538
 20
1377.2175366230119
 30
0.0
 11
3263.1944176817301
 21
1379.3328649140101
 31
0.0
  0
ARC
  5
2EB
  8
0
 10
3149.694831928151
 20
1373.3575432310111
 30
0.0
 40
1.000414333868215
 50
180.0237248326554
 51
269.97627516187532
  0
ARC
  5
2EC
  8
0
 10
3262.888288576059
 20
1379.330326156012
 30
0.0
 40
0.306139632571
 50
0.4751484952095401
 51
44.524851371232486
  0
LINE
  5
2ED
  8
0
 10
3148.693872171275
 20
1376.0320906002401
 30
0.0
 11
3148.694417680048
 21
1373.357128983012
 31
0.0
  0
LINE
  5
2EE
  8
0
 10
3263.1065497160939
 20
1379.544996949046
 30
0.0
 11
3262.865128360128
 21
1379.786418305081
 31
0.0
  0
ARC
  5
2EF
  8
0
 10
3148.9438721660772
 20
1376.0321415830981
 30
0.0
 40
0.2500000000000054
 50
89.998496100337789
 51
180.01168441061381
  0
ARC
  5
2F0
  8
0
 10
3262.9359561060592
 20
1379.857128983012
 30
0.0
 40
0.100082813546
 50
135.0473899635507
 51
224.95261003635721
  0
LINE
  5
2F1
  8
0
 10
3149.1938787205991
 20
1376.2821350210129
 30
0.0
 11
3148.9438787280769
 21
1376.2821415830119
 31
0.0
  0
LINE
  5
2F2
  8
0
 10
3262.865128360128
 20
1379.9278396609441
 30
0.0
 11
3263.1065497154568
 21
1380.169261015621
 31
0.0
  0
LINE
  5
2F3
  8
0
 10
3149.1938839696631
 20
1376.482135021429
 30
0.0
 11
3149.1938787205991
 21
1376.2821350210129
 31
0.0
  0
ARC
  5
2F4
  8
0
 10
3262.888288576059
 20
1380.383931809012
 30
0.0
 40
0.306139632368
 50
315.47514849761319
 51
359.52485150379408
  0
ARC
  5
2F5
  8
0
 10
3149.4438839695772
 20
1376.482128460098
 30
0.0
 40
0.2499999999999995
 50
89.99849621498025
 51
179.99849625390661
  0
LINE
  5
2F6
  8
0
 10
3263.1944176815259
 20
1380.3813930510109
 30
0.0
 11
3263.1944176807342
 21
1382.496721343012
 31
0.0
  0
LINE
  5
2F7
  8
0
 10
3149.9444242415861
 20
1376.732115323005
 30
0.0
 11
3149.4438905310772
 21
1376.7321284600121
 31
0.0
  0
ARC
  5
2F8
  8
0
 10
3266.1945191890591
 20
1382.4966792970131
 30
0.0
 40
3.0001015086199998
 50
135.0008030054731
 51
179.99919700772429
  0
ARC
  5
2F9
  8
0
 10
3149.9444176800862
 20
1376.482115323091
 30
0.0
 40
0.25
 50
359.99999999864508
 51
89.998496214980293
  0
LINE
  5
2FA
  8
0
 10
3264.073097336774
 20
1384.6180416862969
 30
0.0
 11
3264.5228448050111
 21
1385.0677891540599
 31
0.0
  0
LINE
  5
2FB
  8
0
 10
3150.1944176800371
 20
1374.4571289830119
 30
0.0
 11
3150.1944176800862
 21
1376.4821153230851
 31
0.0
  0
ARC
  5
2FC
  8
0
 10
3265.583526001059
 20
1384.0070782290129
 30
0.0
 40
1.5000507545299999
 50
90.000803030475367
 51
134.99919706207231
  0
ARC
  5
2FD
  8
0
 10
3150.4445212420478
 20
1374.4572325450231
 30
0.0
 40
0.2501035834521461
 50
180.02372483520921
 51
269.97627516520748
  0
LINE
  5
2FE
  8
0
 10
3265.583504977059
 20
1385.507128983395
 30
0.0
 11
3266.944417682053
 21
1385.5071289832231
 31
0.0
  0
LINE
  5
2FF
  8
0
 10
3151.8053303835081
 20
1374.2071289826799
 30
0.0
 11
3150.4444176800389
 21
1374.2071289830119
 31
0.0
  0
ARC
  5
300
  8
0
 10
3266.9443141200591
 20
1385.257025421012
 30
0.0
 40
0.250103583652
 50
0.0237248335754764
 51
89.976275168560178
  0
ARC
  5
301
  8
0
 10
3151.8053093602798
 20
1375.707179736972
 30
0.0
 40
1.5000507544392461
 50
270.00080300099938
 51
314.99919700936368
  0
LINE
  5
302
  8
0
 10
3267.194417682269
 20
1385.2571289830159
 30
0.0
 11
3267.1944176731172
 21
1383.2321290747859
 31
0.0
  0
LINE
  5
303
  8
0
 10
3153.3157380240168
 20
1375.096216279595
 30
0.0
 11
3152.865990555289
 21
1374.646468811012
 31
0.0
  0
ARC
  5
304
  8
0
 10
3267.4444176731172
 20
1383.2321290743471
 30
0.0
 40
0.25
 50
179.99999989937521
 51
269.999999959354
  0
ARC
  5
305
  8
0
 10
3151.1943161713671
 20
1377.2175786690059
 30
0.0
 40
3.0001015089673211
 50
315.00080300869701
 51
359.99919700784602
  0
LINE
  5
306
  8
0
 10
3267.4444176729398
 20
1382.9821290743471
 30
0.0
 11
3267.9448628058822
 21
1382.982129073991
 31
0.0
  0
LINE
  5
307
  8
0
 10
3154.1944176800448
 20
1379.3328649140119
 30
0.0
 11
3154.1944176800389
 21
1377.2175366230119
 31
0.0
  0
ARC
  5
308
  8
0
 10
3267.9448628060591
 20
1383.2321290739919
 30
0.0
 40
0.25
 50
269.999999959354
 51
0.0
  0
ARC
  5
309
  8
0
 10
3154.5005467854721
 20
1379.33032615607
 30
0.0
 40
0.306139632328454
 50
135.4751486081106
 51
179.5248515147546
  0
LINE
  5
30A
  8
0
 10
3268.1948628060591
 20
1383.2321290739919
 30
0.0
 11
3268.1948628060591
 21
1383.432129074346
 31
0.0
  0
LINE
  5
30B
  8
0
 10
3154.5237070019889
 20
1379.786418304953
 30
0.0
 11
3154.2822856456892
 21
1379.5449969490121
 31
0.0
  0
LINE
  5
30C
  8
0
 10
3268.1948628060591
 20
1383.432129074346
 30
0.0
 11
3268.4448628021819
 21
1383.432129073999
 31
0.0
  0
ARC
  5
30D
  8
0
 10
3154.452879255939
 20
1379.8571289829531
 30
0.0
 40
0.1000828136778811
 50
315.04738998401359
 51
44.95261006430875
  0
ARC
  5
30E
  8
0
 10
3268.4448628025289
 20
1383.6821290739999
 30
0.0
 40
0.25
 50
269.99999992058412
 51
0.0095341433998897
  0
LINE
  5
30F
  8
0
 10
3154.2822856457269
 20
1380.1692610170401
 30
0.0
 11
3154.5237070019289
 21
1379.9278396610121
 31
0.0
  0
LINE
  5
310
  8
0
 10
3268.6948627990669
 20
1383.6821706745479
 30
0.0
 11
3268.6944176801339
 21
1386.357128983012
 31
0.0
  0
ARC
  5
311
  8
0
 10
3154.5005467854598
 20
1380.383931810009
 30
0.0
 40
0.3061396323118399
 50
180.47514849557001
 51
224.52485140221521
  0
ARC
  5
312
  8
0
 10
3267.694003432096
 20
1386.356714734975
 30
0.0
 40
1.0004143338026019
 50
0.0237248348967586
 51
89.976275169374517
  0
LINE
  5
313
  8
0
 10
3154.1944176800448
 20
1382.496721343012
 30
0.0
 11
3154.1944176800489
 21
1380.3813930520121
 31
0.0
  0
LINE
  5
314
  8
0
 10
3267.6944176800589
 20
1387.357128983012
 30
0.0
 11
3260.1944175940589
 21
1387.356932143326
 31
0.0
  0
ARC
  5
315
  8
0
 10
3151.194316171312
 20
1382.4966792971741
 30
0.0
 40
3.000101509026996
 50
0.0008029891881173
 51
44.999197001705909
  0
ARC
  5
316
  8
0
 10
3260.1946413497212
 20
1387.106708396675
 30
0.0
 40
0.2502238466953058
 50
90.05123515203276
 51
179.95112660339689
  0
LINE
  5
317
  8
0
 10
3152.8659905553759
 20
1385.067789155079
 30
0.0
 11
3153.3157380236189
 21
1384.618041687012
 31
0.0
  0
LINE
  5
318
  8
0
 10
3259.9444175940589
 20
1387.1069218380121
 30
0.0
 11
3259.9444175940589
 21
1386.8569258990119
 31
0.0
  0
ARC
  5
319
  8
0
 10
3151.805309360815
 20
1384.007078228836
 30
0.0
 40
1.5000507543236621
 50
45.000803010392033
 51
89.999197018263303
  0
LINE
  5
31A
  8
0
 10
3259.9444175940589
 20
1386.8569258990119
 30
0.0
 11
3247.4444177658588
 21
1386.8569258990119
 31
0.0
  0
LINE
  5
31B
  8
0
 10
3150.4444176800489
 20
1385.507128983138
 30
0.0
 11
3151.8053303835391
 21
1385.5071289830121
 31
0.0
  0
LINE
  5
31C
  8
0
 10
3247.4444177658588
 20
1386.8569258990119
 30
0.0
 11
3247.4444177658738
 21
1387.1069218380121
 31
0.0
  0
ARC
  5
31D
  8
0
 10
3150.444521242167
 20
1385.25702542101
 30
0.0
 40
0.250103583569143
 50
90.023724859679717
 51
179.97627516678131
  0
ARC
  5
31E
  8
0
 10
3247.1941748392392
 20
1387.1066999509319
 30
0.0
 40
0.2502430250066295
 50
0.050803393634567
 51
89.946786695027384
  0
LINE
  5
31F
  8
0
 10
3150.1939725475381
 20
1383.2321290750119
 30
0.0
 11
3150.1944176800389
 21
1385.2571289830121
 31
0.0
  0
LINE
  5
320
  8
0
 10
3247.194407251759
 20
1387.3569428680121
 30
0.0
 11
3243.7194176510588
 21
1387.357128983419
 31
0.0
  0
ARC
  5
321
  8
0
 10
3149.9438689855392
 20
1383.232232637012
 30
0.0
 40
0.2501035834406389
 50
270.0237248328142
 51
359.97627516739419
  0
ARC
  5
322
  8
0
 10
3243.7195419254622
 20
1387.0570047090159
 30
0.0
 40
0.3001243001326844
 50
90.023724833473651
 51
179.97627524426861
  0
LINE
  5
323
  8
0
 10
3149.4439725475381
 20
1382.9821290759919
 30
0.0
 11
3149.943972547539
 21
1382.9821290750131
 31
0.0
  0
LINE
  5
324
  8
0
 10
3243.4194176510591
 20
1387.057128983012
 30
0.0
 11
3243.4194176510591
 21
1386.357004758012
 31
0.0
  0
ARC
  5
325
  8
0
 10
3149.4440761095589
 20
1383.2322326380131
 30
0.0
 40
0.2501035834623461
 50
180.02372506189781
 51
269.97627516239572
  0
LINE
  5
326
  8
0
 10
3243.4194176510591
 20
1386.357004758012
 30
0.0
 11
3243.1194176509589
 21
1386.357004757421
 31
0.0
  0
LINE
  5
327
  8
0
 10
3149.193972547539
 20
1383.4321290750131
 30
0.0
 11
3149.193972547539
 21
1383.2321290750119
 31
0.0
  0
ARC
  5
328
  8
0
 10
3243.1195419253631
 20
1386.0568804830159
 30
0.0
 40
0.3001243001338852
 50
90.023724833473565
 51
179.97627505345071
  0
LINE
  5
329
  8
0
 10
3148.9444176799998
 20
1383.4321290750131
 30
0.0
 11
3149.193972547539
 21
1383.4321290750131
 31
0.0
  0
LINE
  5
32A
  8
0
 10
3242.8194176509592
 20
1386.057004758012
 30
0.0
 11
3242.8194176509469
 21
1385.1571289830119
 31
0.0
  0
ARC
  5
32B
  8
0
 10
3148.9444176799998
 20
1383.682129075012
 30
0.0
 40
0.25
 50
179.99999999885361
 51
270.0
  0
ARC
  5
32C
  8
0
 10
3243.119541925153
 20
1385.1572532572179
 30
0.0
 40
0.3001242999352848
 50
180.0237247956816
 51
269.97627520653219
  0
LINE
  5
32D
  8
0
 10
3148.6944176800539
 20
1386.357128983012
 30
0.0
 11
3148.6944176799998
 21
1383.682129075017
 31
0.0
  0
LINE
  5
32E
  8
0
 10
3243.1194176509589
 20
1384.857128983012
 30
0.0
 11
3246.8944176800592
 21
1384.857128983012
 31
0.0
  0
ARC
  5
32F
  8
0
 10
3149.6948319280959
 20
1386.35671473497
 30
0.0
 40
1.000414333807625
 50
90.023724834896626
 51
179.97627516481691
  0
LINE
  5
330
  8
0
 10
3246.8944176800592
 20
1384.857128983012
 30
0.0
 11
3246.894417680051
 21
1382.2370279700119
 31
0.0
  0
LINE
  5
331
  8
0
 10
3157.1944126136791
 20
1387.356932143008
 30
0.0
 11
3149.6944176800589
 21
1387.357128983012
 31
0.0
  0
ARC
  5
332
  8
0
 10
3246.5882885746182
 20
1382.239566728914
 30
0.0
 40
0.3061396323407207
 50
315.4751486209102
 51
359.52485133510288
  0
ARC
  5
333
  8
0
 10
3157.1941931874262
 20
1387.106707569015
 30
0.0
 40
0.2502246702020635
 50
0.049062522123884
 51
89.949756353733861
  0
LINE
  5
334
  8
0
 10
3246.8065497144598
 20
1382.0248959360131
 30
0.0
 11
3243.1315079377941
 21
1378.349803834177
 31
0.0
  0
LINE
  5
335
  8
0
 10
3157.4444177658888
 20
1386.8569258990119
 30
0.0
 11
3157.4444177658888
 21
1387.1069218370119
 31
0.0
  0
ARC
  5
336
  8
0
 10
3241.7172134128691
 20
1379.7643701660579
 30
0.0
 40
2.0003067041143359
 50
270.00047462245777
 51
314.9944948188803
  0
LINE
  5
337
  8
0
 10
3169.9444175944591
 20
1386.8569258990119
 30
0.0
 11
3157.4444177658888
 21
1386.8569258990119
 31
0.0
  0
LINE
  5
338
  8
0
 10
3241.717229982859
 20
1377.764063462012
 30
0.0
 11
3239.2994559140602
 21
1377.764063461711
 31
0.0
  0
LINE
  5
339
  8
0
 10
3169.9444175944341
 20
1387.1069218370119
 30
0.0
 11
3169.9444175944591
 21
1386.8569258990119
 31
0.0
  0
ARC
  5
33A
  8
0
 10
3239.3007326137622
 20
1377.4609812348069
 30
0.0
 40
0.3030849158696379
 50
90.241350582469124
 51
134.75864960897221
  0
ARC
  5
33B
  8
0
 10
3170.19465884075
 20
1387.106701640103
 30
0.0
 40
0.250241343196125
 50
90.055236262146693
 51
179.9495832502754
  0
LINE
  5
33C
  8
0
 10
3239.0873238781592
 20
1377.6761954950121
 30
0.0
 11
3238.765190431367
 21
1377.354062042604
 31
0.0
  0
LINE
  5
33D
  8
0
 10
3173.669541975959
 20
1387.357128982434
 30
0.0
 11
3170.1944175944591
 21
1387.3569428670121
 31
0.0
  0
ARC
  5
33E
  8
0
 10
3238.6944504552171
 20
1377.4248606260121
 30
0.0
 40
0.1000828838425606
 50
225.0237242882823
 51
314.97627538137749
  0
ARC
  5
33F
  8
0
 10
3173.6694177015479
 20
1387.057004708023
 30
0.0
 40
0.3001243001403947
 50
0.0237249452465749
 51
89.976275165311563
  0
LINE
  5
340
  8
0
 10
3238.6237104786592
 20
1377.3540620430119
 30
0.0
 11
3238.3015770315742
 21
1377.6761954947251
 31
0.0
  0
LINE
  5
341
  8
0
 10
3173.9695419759591
 20
1386.3571290320119
 30
0.0
 11
3173.9695419759591
 21
1387.057128983012
 31
0.0
  0
ARC
  5
342
  8
0
 10
3238.088168295395
 20
1377.460981235163
 30
0.0
 40
0.3030849158172081
 50
45.24135022815797
 51
89.758649273580332
  0
LINE
  5
343
  8
0
 10
3174.2695419845591
 20
1386.3571290324321
 30
0.0
 11
3173.9695419759591
 21
1386.3571290320119
 31
0.0
  0
LINE
  5
344
  8
0
 10
3238.0894449958591
 20
1377.764063462012
 30
0.0
 11
3235.6716709271591
 21
1377.764063462266
 31
0.0
  0
ARC
  5
345
  8
0
 10
3174.2694177100989
 20
1386.057004757972
 30
0.0
 40
0.300124300189189
 50
0.0237247640610686
 51
89.976275155765848
  0
ARC
  5
346
  8
0
 10
3235.6717008170681
 20
1379.764439063257
 30
0.0
 40
2.000375601214547
 50
225.0063224897666
 51
269.99914387794928
  0
LINE
  5
347
  8
0
 10
3174.5695419845588
 20
1384.857128983012
 30
0.0
 11
3174.5695419845588
 21
1386.057129032012
 31
0.0
  0
LINE
  5
348
  8
0
 10
3234.2573777584589
 20
1378.3498038340119
 30
0.0
 11
3230.5822856457139
 21
1382.024895936067
 31
0.0
  0
LINE
  5
349
  8
0
 10
3170.49441768006
 20
1384.8571289826709
 30
0.0
 11
3174.5695419845588
 21
1384.857128983012
 31
0.0
  0
ARC
  5
34A
  8
0
 10
3230.8005467854559
 20
1382.23956672902
 30
0.0
 40
0.3061396323059395
 50
180.4751486846115
 51
224.52485139886559
  0
LINE
  5
34B
  8
0
 10
3170.4944176800659
 20
1382.2370279700119
 30
0.0
 11
3170.49441768006
 21
1384.8571289826709
 31
0.0
  0
LINE
  5
34C
  8
0
 10
3230.4944176800591
 20
1382.2370279700119
 30
0.0
 11
3230.4944176800591
 21
1384.857128983012
 31
0.0
  0
ARC
  5
34D
  8
0
 10
3170.8005467854991
 20
1382.2395667289161
 30
0.0
 40
0.3061396323412211
 50
180.47514866510909
 51
224.5248513793608
  0
LINE
  5
34E
  8
0
 10
3230.4944176800591
 20
1384.857128983012
 30
0.0
 11
3234.269541985559
 21
1384.857128982597
 31
0.0
  0
LINE
  5
34F
  8
0
 10
3174.2573274445499
 20
1378.3498541483041
 30
0.0
 11
3170.5822856456589
 21
1382.0248959360131
 31
0.0
  0
ARC
  5
350
  8
0
 10
3234.2694177111011
 20
1385.1572532570549
 30
0.0
 40
0.3001243001871842
 50
270.02372484388712
 51
359.9762752355482
  0
ARC
  5
351
  8
0
 10
3175.6716315562649
 20
1379.7644955609269
 30
0.0
 40
2.0003665780854472
 50
225.0068314918762
 51
269.99925098619002
  0
LINE
  5
352
  8
0
 10
3234.5695419855592
 20
1385.1571289830119
 30
0.0
 11
3234.5695419854669
 21
1386.057129032012
 31
0.0
  0
LINE
  5
353
  8
0
 10
3178.0893794747581
 20
1377.7641289827129
 30
0.0
 11
3175.6716054059589
 21
1377.7641289830119
 31
0.0
  0
ARC
  5
354
  8
0
 10
3234.2694177112639
 20
1386.057004757808
 30
0.0
 40
0.3001242999337777
 50
0.0237247953778513
 51
89.976275187085648
  0
ARC
  5
355
  8
0
 10
3178.0881027750529
 20
1377.461046755807
 30
0.0
 40
0.3030849158706357
 50
45.241350390631801
 51
89.758649417101964
  0
LINE
  5
356
  8
0
 10
3234.269541985559
 20
1386.3571290320119
 30
0.0
 11
3233.9695419769591
 21
1386.3571290320119
 31
0.0
  0
LINE
  5
357
  8
0
 10
3178.6236449577509
 20
1377.3541275643049
 30
0.0
 11
3178.3015115106591
 21
1377.6762610160119
 31
0.0
  0
LINE
  5
358
  8
0
 10
3233.9695419769591
 20
1386.3571290320119
 30
0.0
 11
3233.9695419769678
 21
1387.057128983012
 31
0.0
  0
ARC
  5
359
  8
0
 10
3178.6943849339018
 20
1377.424926148012
 30
0.0
 40
0.10008288405491
 50
225.02372473960801
 51
314.97627502347478
  0
ARC
  5
35A
  8
0
 10
3233.6694177022641
 20
1387.0570047083081
 30
0.0
 40
0.3001243004342639
 50
0.0237248908775576
 51
89.976275110902179
  0
LINE
  5
35B
  8
0
 10
3179.0872583572459
 20
1377.676261015723
 30
0.0
 11
3178.7651249097589
 21
1377.3541275640121
 31
0.0
  0
LINE
  5
35C
  8
0
 10
3233.669541976959
 20
1387.357128983012
 30
0.0
 11
3230.194417594359
 21
1387.3569428668291
 31
0.0
  0
ARC
  5
35D
  8
0
 10
3179.300667093426
 20
1377.461046756164
 30
0.0
 40
0.3030849158162709
 50
90.241350727022166
 51
134.75864977241909
  0
ARC
  5
35E
  8
0
 10
3230.1946588406199
 20
1387.1067016399741
 30
0.0
 40
0.2502413431424291
 50
90.055236255390739
 51
179.94958299163059
  0
LINE
  5
35F
  8
0
 10
3181.7171644616592
 20
1377.764128982591
 30
0.0
 11
3179.2993903929591
 21
1377.7641289830119
 31
0.0
  0
LINE
  5
360
  8
0
 10
3229.944417594359
 20
1387.1069218380121
 30
0.0
 11
3229.944417594359
 21
1386.8569258990119
 31
0.0
  0
ARC
  5
361
  8
0
 10
3181.7171250023471
 20
1379.764564400007
 30
0.0
 40
2.0004354178048191
 50
270.00113017998638
 51
314.9923519560665
  0
LINE
  5
362
  8
0
 10
3229.944417594359
 20
1386.8569258990119
 30
0.0
 11
3217.4444177658588
 21
1386.8569258990119
 31
0.0
  0
LINE
  5
363
  8
0
 10
3186.806549714403
 20
1382.024895936067
 30
0.0
 11
3183.1314576236591
 21
1378.349854148013
 31
0.0
  0
LINE
  5
364
  8
0
 10
3217.4444177658588
 20
1386.8569258990119
 30
0.0
 11
3217.4444177658788
 21
1387.1069218380121
 31
0.0
  0
ARC
  5
365
  8
0
 10
3186.5882885746628
 20
1382.2395667290209
 30
0.0
 40
0.3061396323054773
 50
315.4751486008937
 51
359.52485131513248
  0
ARC
  5
366
  8
0
 10
3217.1941765185152
 20
1387.1067016400559
 30
0.0
 40
0.2502413442446394
 50
0.050416989353634
 51
89.944763497047077
  0
LINE
  5
367
  8
0
 10
3186.8944176800592
 20
1384.857128983012
 30
0.0
 11
3186.8944176800592
 21
1382.2370279700119
 31
0.0
  0
LINE
  5
368
  8
0
 10
3217.1944177658588
 20
1387.3569428680121
 30
0.0
 11
3213.7194176500589
 21
1387.3571289824281
 31
0.0
  0
LINE
  5
369
  8
0
 10
3182.8194176499592
 20
1384.8571289826709
 30
0.0
 11
3186.8944176800592
 21
1384.857128983012
 31
0.0
  0
ARC
  5
36A
  8
0
 10
3213.7195419244658
 20
1387.05700470802
 30
0.0
 40
0.3001243001373968
 50
90.023724834167766
 51
179.9762750541455
  0
LINE
  5
36B
  8
0
 10
3182.8194176499419
 20
1386.057004758012
 30
0.0
 11
3182.8194176499592
 21
1384.8571289826709
 31
0.0
  0
LINE
  5
36C
  8
0
 10
3213.4194176500591
 20
1387.057128983012
 30
0.0
 11
3213.4194176500591
 21
1386.357004758012
 31
0.0
  0
ARC
  5
36D
  8
0
 10
3183.1195419246501
 20
1386.056880483304
 30
0.0
 40
0.3001243004382943
 50
90.023724888402995
 51
179.97627510834141
  0
LINE
  5
36E
  8
0
 10
3213.4194176500591
 20
1386.357004758012
 30
0.0
 11
3213.1194176499589
 21
1386.357004757429
 31
0.0
  0
LINE
  5
36F
  8
0
 10
3183.4194176500591
 20
1386.357004758012
 30
0.0
 11
3183.1194176499589
 21
1386.357004758012
 31
0.0
  0
ARC
  5
370
  8
0
 10
3213.1195419243668
 20
1386.05688048302
 30
0.0
 40
0.3001243001379015
 50
90.023724834254594
 51
179.9762750542323
  0
LINE
  5
371
  8
0
 10
3183.4194176500409
 20
1387.057128983012
 30
0.0
 11
3183.4194176500591
 21
1386.357004758012
 31
0.0
  0
LINE
  5
372
  8
0
 10
3212.8194176499592
 20
1386.057004758012
 30
0.0
 11
3212.819417649941
 21
1385.1571289830119
 31
0.0
  0
ARC
  5
373
  8
0
 10
3183.71954192475
 20
1387.0570047083031
 30
0.0
 40
0.3001243004387559
 50
90.023724888229324
 51
179.9762751082547
  0
ARC
  5
374
  8
0
 10
3213.1195419241499
 20
1385.1572532572211
 30
0.0
 40
0.3001242999382845
 50
180.0237247962456
 51
269.97627520705328
  0
LINE
  5
375
  8
0
 10
3187.1944177658602
 20
1387.356942867925
 30
0.0
 11
3183.7194176500589
 21
1387.357128983012
 31
0.0
  0
LINE
  5
376
  8
0
 10
3213.119417649958
 20
1384.857128983012
 30
0.0
 11
3216.8944176800592
 21
1384.857128983012
 31
0.0
  0
ARC
  5
377
  8
0
 10
3187.1941765185488
 20
1387.106701640022
 30
0.0
 40
0.2502413441909129
 50
0.0504169970692232
 51
89.944763504427755
  0
LINE
  5
378
  8
0
 10
3216.8944176800592
 20
1384.857128983012
 30
0.0
 11
3216.8944176800519
 21
1382.2370279700119
 31
0.0
  0
LINE
  5
379
  8
0
 10
3187.4444177658588
 20
1386.8569258990119
 30
0.0
 11
3187.4444177658588
 21
1387.1069218380121
 31
0.0
  0
ARC
  5
37A
  8
0
 10
3216.5882885746191
 20
1382.2395667289161
 30
0.0
 40
0.3061396323412068
 50
315.4751486206988
 51
359.5248513348908
  0
LINE
  5
37B
  8
0
 10
3199.9444175944591
 20
1386.8569258990119
 30
0.0
 11
3187.4444177658588
 21
1386.8569258990119
 31
0.0
  0
LINE
  5
37C
  8
0
 10
3216.8065497144589
 20
1382.0248959360131
 30
0.0
 11
3213.1314827583301
 21
1378.349828991441
 31
0.0
  0
LINE
  5
37D
  8
0
 10
3199.9444175944591
 20
1387.1069218370119
 30
0.0
 11
3199.9444175944591
 21
1386.8569258990119
 31
0.0
  0
ARC
  5
37E
  8
0
 10
3211.7171691721892
 20
1379.764467311569
 30
0.0
 40
2.0003710897531541
 50
270.00080260133029
 51
314.99342304589828
  0
ARC
  5
37F
  8
0
 10
3200.1946588406709
 20
1387.1067016400241
 30
0.0
 40
0.2502413430919469
 50
90.055236244052836
 51
179.94958323213751
  0
LINE
  5
380
  8
0
 10
3211.717197193459
 20
1377.7640962220121
 30
0.0
 11
3209.2994231247558
 21
1377.764096222714
 31
0.0
  0
LINE
  5
381
  8
0
 10
3203.669541975959
 20
1387.357128983012
 30
0.0
 11
3200.19441759446
 21
1387.3569428668291
 31
0.0
  0
ARC
  5
382
  8
0
 10
3209.3006998253172
 20
1377.4610139962019
 30
0.0
 40
0.303084915480388
 50
90.241350744999053
 51
134.75864990931919
  0
ARC
  5
383
  8
0
 10
3203.669417701265
 20
1387.0570047083061
 30
0.0
 40
0.3001243004362613
 50
0.0237248912245994
 51
89.976275111162764
  0
LINE
  5
384
  8
0
 10
3209.0872910888588
 20
1377.6762282550119
 30
0.0
 11
3208.7651576415669
 21
1377.354094803105
 31
0.0
  0
LINE
  5
385
  8
0
 10
3203.9695419759591
 20
1386.3571290320119
 30
0.0
 11
3203.9695419759719
 21
1387.057128983012
 31
0.0
  0
ARC
  5
386
  8
0
 10
3208.6944176659172
 20
1377.4248933870131
 30
0.0
 40
0.100082883842587
 50
225.02372428837441
 51
314.97627497666701
  0
LINE
  5
387
  8
0
 10
3204.2695419845591
 20
1386.3571290320119
 30
0.0
 11
3203.9695419759591
 21
1386.3571290320119
 31
0.0
  0
LINE
  5
388
  8
0
 10
3208.6236776893588
 20
1377.354094804012
 30
0.0
 11
3208.3015442427231
 21
1377.6762282552791
 31
0.0
  0
ARC
  5
389
  8
0
 10
3204.2694177102649
 20
1386.057004757806
 30
0.0
 40
0.3001242999352777
 50
0.0237247957250009
 51
89.976275187519846
  0
ARC
  5
38A
  8
0
 10
3208.0881355073152
 20
1377.461013995658
 30
0.0
 40
0.3030849153172105
 50
45.24135033931158
 51
89.758649503659896
  0
LINE
  5
38B
  8
0
 10
3204.5695419844592
 20
1385.1571289830119
 30
0.0
 11
3204.569541984471
 21
1386.057129032012
 31
0.0
  0
LINE
  5
38C
  8
0
 10
3208.0894122065588
 20
1377.7640962220121
 30
0.0
 11
3205.6716381378592
 21
1377.7640962220889
 31
0.0
  0
ARC
  5
38D
  8
0
 10
3204.269417710047
 20
1385.157253257001
 30
0.0
 40
0.300124300141186
 50
270.02372483503558
 51
359.9762752458754
  0
ARC
  5
38E
  8
0
 10
3205.671666152301
 20
1379.7644672809949
 30
0.0
 40
2.0003710591023229
 50
225.00657661095821
 51
269.99919759420368
  0
LINE
  5
38F
  8
0
 10
3200.4944176800582
 20
1384.857128983012
 30
0.0
 11
3204.269541984459
 21
1384.8571289825891
 31
0.0
  0
LINE
  5
390
  8
0
 10
3204.2573525793591
 20
1378.3498289910119
 30
0.0
 11
3200.5822856457139
 21
1382.024895936067
 31
0.0
  0
LINE
  5
391
  8
0
 10
3200.4944176800582
 20
1382.2370279700119
 30
0.0
 11
3200.4944176800582
 21
1384.857128983012
 31
0.0
  0
ARC
  5
392
  8
0
 10
3200.800546785455
 20
1382.23956672902
 30
0.0
 40
0.3061396323059799
 50
180.4751486846115
 51
224.52485139886559
  0
ENDSEC
  0
EOF
