  0
SECTION
  2
HEADER
  9
$ACADVER
  1
AC1009
  9
$INSBASE
 10
0.0
 20
0.0
 30
0.0
  9
$EXTMIN
 10
968.90836146107597
 20
2452.1467616011009
 30
0.0
  9
$EXTMAX
 10
1044.9083614610761
 20
2469.1467616011009
 30
0.0
  9
$LIMMIN
 10
0.0
 20
0.0
  9
$LIMMAX
 10
420.0
 20
297.0
  9
$ORTHOMODE
 70
     0
  9
$REGENMODE
 70
     1
  9
$FILLMODE
 70
     1
  9
$QTEXTMODE
 70
     0
  9
$MIRRTEXT
 70
     0
  9
$DRAGMODE
 70
     2
  9
$LTSCALE
 40
1.0
  9
$OSMODE
 70
  3071
  9
$ATTMODE
 70
     1
  9
$TEXTSIZE
 40
2.5
  9
$TRACEWID
 40
1.0
  9
$TEXTSTYLE
  7
STANDARD
  9
$CLAYER
  8
0
  9
$CELTYPE
  6
BYLAYER
  9
$CECOLOR
 62
   256
  9
$DIMSCALE
 40
1.0
  9
$DIMASZ
 40
2.5
  9
$DIMEXO
 40
0.625
  9
$DIMDLI
 40
3.75
  9
$DIMRND
 40
0.0
  9
$DIMDLE
 40
0.0
  9
$DIMEXE
 40
1.25
  9
$DIMTP
 40
0.0
  9
$DIMTM
 40
0.0
  9
$DIMTXT
 40
2.5
  9
$DIMCEN
 40
2.5
  9
$DIMTSZ
 40
0.0
  9
$DIMTOL
 70
     0
  9
$DIMLIM
 70
     0
  9
$DIMTIH
 70
     0
  9
$DIMTOH
 70
     0
  9
$DIMSE1
 70
     0
  9
$DIMSE2
 70
     0
  9
$DIMTAD
 70
     1
  9
$DIMZIN
 70
     8
  9
$DIMBLK
  1

  9
$DIMASO
 70
     1
  9
$DIMSHO
 70
     1
  9
$DIMPOST
  1

  9
$DIMAPOST
  1

  9
$DIMALT
 70
     0
  9
$DIMALTD
 70
     3
  9
$DIMALTF
 40
0.03937007874016
  9
$DIMLFAC
 40
1.0
  9
$DIMTOFL
 70
     1
  9
$DIMTVP
 40
0.0
  9
$DIMTIX
 70
     0
  9
$DIMSOXD
 70
     0
  9
$DIMSAH
 70
     0
  9
$DIMBLK1
  1

  9
$DIMBLK2
  1

  9
$DIMSTYLE
  2
ISO-25
  9
$DIMCLRD
 70
     0
  9
$DIMCLRE
 70
     0
  9
$DIMCLRT
 70
     0
  9
$DIMTFAC
 40
1.0
  9
$DIMGAP
 40
0.625
  9
$LUNITS
 70
     2
  9
$LUPREC
 70
     4
  9
$SKETCHINC
 40
1.0
  9
$FILLETRAD
 40
0.0
  9
$AUNITS
 70
     0
  9
$AUPREC
 70
     0
  9
$MENU
  1
.
  9
$ELEVATION
 40
0.0
  9
$PELEVATION
 40
0.0
  9
$THICKNESS
 40
0.0
  9
$LIMCHECK
 70
     0
  9
$BLIPMODE
 70
     0
  9
$CHAMFERA
 40
0.0
  9
$CHAMFERB
 40
0.0
  9
$SKPOLY
 70
     0
  9
$TDCREATE
 40
2456757.5992731601
  9
$TDUPDATE
 40
2456757.5993835302
  9
$TDINDWG
 40
0.0001118403
  9
$TDUSRTIMER
 40
0.0001118056
  9
$USRTIMER
 70
     1
  9
$ANGBASE
 50
0.0
  9
$ANGDIR
 70
     0
  9
$PDMODE
 70
     0
  9
$PDSIZE
 40
0.0
  9
$PLINEWID
 40
0.0
  9
$COORDS
 70
     1
  9
$SPLFRAME
 70
     0
  9
$SPLINETYPE
 70
     6
  9
$SPLINESEGS
 70
     8
  9
$ATTDIA
 70
     1
  9
$ATTREQ
 70
     1
  9
$HANDLING
 70
     1
  9
$HANDSEED
  5
30B
  9
$SURFTAB1
 70
     6
  9
$SURFTAB2
 70
     6
  9
$SURFTYPE
 70
     6
  9
$SURFU
 70
     6
  9
$SURFV
 70
     6
  9
$UCSNAME
  2

  9
$UCSORG
 10
0.0
 20
0.0
 30
0.0
  9
$UCSXDIR
 10
1.0
 20
0.0
 30
0.0
  9
$UCSYDIR
 10
0.0
 20
1.0
 30
0.0
  9
$PUCSNAME
  2

  9
$PUCSORG
 10
0.0
 20
0.0
 30
0.0
  9
$PUCSXDIR
 10
1.0
 20
0.0
 30
0.0
  9
$PUCSYDIR
 10
0.0
 20
1.0
 30
0.0
  9
$USERI1
 70
     0
  9
$USERI2
 70
     0
  9
$USERI3
 70
     0
  9
$USERI4
 70
     0
  9
$USERI5
 70
     0
  9
$USERR1
 40
0.0
  9
$USERR2
 40
0.0
  9
$USERR3
 40
0.0
  9
$USERR4
 40
0.0
  9
$USERR5
 40
0.0
  9
$WORLDVIEW
 70
     1
  9
$SHADEDGE
 70
     3
  9
$SHADEDIF
 70
    70
  9
$TILEMODE
 70
     1
  9
$MAXACTVP
 70
    64
  9
$PLIMCHECK
 70
     0
  9
$PEXTMIN
 10
0.0
 20
0.0
 30
0.0
  9
$PEXTMAX
 10
0.0
 20
0.0
 30
0.0
  9
$PLIMMIN
 10
0.0
 20
0.0
  9
$PLIMMAX
 10
12.0
 20
9.0
  9
$UNITMODE
 70
     0
  9
$VISRETAIN
 70
     1
  9
$PLINEGEN
 70
     0
  9
$PSLTSCALE
 70
     1
  0
ENDSEC
  0
SECTION
  2
TABLES
  0
TABLE
  2
VPORT
 70
     1
  0
VPORT
  2
*ACTIVE
 70
     0
 10
0.0
 20
0.0
 11
1.0
 21
1.0
 12
1006.908361461076
 22
2460.6467616011009
 13
0.0
 23
0.0
 14
10.0
 24
10.0
 15
10.0
 25
10.0
 16
0.0
 26
0.0
 36
1.0
 17
0.0
 27
0.0
 37
0.0
 40
36.907967213114958
 41
2.068965517241379
 42
50.0
 43
0.0
 44
0.0
 50
0.0
 51
0.0
 71
     0
 72
  1000
 73
     1
 74
     3
 75
     0
 76
     1
 77
     0
 78
     0
  0
ENDTAB
  0
TABLE
  2
LTYPE
 70
     1
  0
LTYPE
  2
CONTINUOUS
 70
     0
  3
Solid line
 72
    65
 73
     0
 40
0.0
  0
ENDTAB
  0
TABLE
  2
LAYER
 70
     1
  0
LAYER
  2
0
 70
     0
 62
     7
  6
CONTINUOUS
  0
ENDTAB
  0
TABLE
  2
STYLE
 70
     3
  0
STYLE
  2
STANDARD
 70
     0
 40
0.0
 41
1.0
 50
0.0
 71
     0
 42
2.5
  3
txt
  4

  0
STYLE
  2
ANNOTATIVE
 70
     0
 40
0.0
 41
1.0
 50
0.0
 71
     0
 42
2.5
  3
txt
  4

  0
STYLE
  2
ROMANT
 70
     0
 40
2.2999999999999989
 41
1.0
 50
15.0
 71
     0
 42
2.5
  3
romant.shx
  4

  0
ENDTAB
  0
TABLE
  2
VIEW
 70
     1
  0
ENDTAB
  0
TABLE
  2
UCS
 70
     0
  0
ENDTAB
  0
TABLE
  2
APPID
 70
    10
  0
APPID
  2
ACAD
 70
     0
  0
APPID
  2
ACAD_PSEXT
 70
     0
  0
APPID
  2
ACADANNOPO
 70
     0
  0
APPID
  2
ACADANNOTATIVE
 70
     0
  0
APPID
  2
ACAD_DSTYLE_DIMJAG
 70
     0
  0
APPID
  2
ACAD_DSTYLE_DIMTALN
 70
     0
  0
APPID
  2
ACAD_MLEADERVER
 70
     0
  0
APPID
  2
ACAD_NAV_VCDISPLAY
 70
     0
  0
APPID
  2
GRADIENTCOLOR1ACI
 70
     0
  0
APPID
  2
GRADIENTCOLOR2ACI
 70
     0
  0
ENDTAB
  0
TABLE
  2
DIMSTYLE
 70
     4
  0
DIMSTYLE
  2
STANDARD
 70
     0
  3

  4

  5

  6

  7

 40
1.0
 41
0.18
 42
0.0625
 43
0.38
 44
0.18
 45
0.0
 46
0.0
 47
0.0
 48
0.0
140
0.18
141
0.09
142
0.0
143
25.399999999999999
144
1.0
145
0.0
146
1.0
147
0.09
 71
     0
 72
     0
 73
     1
 74
     1
 75
     0
 76
     0
 77
     0
 78
     0
170
     0
171
     2
172
     0
173
     0
174
     0
175
     0
176
     0
177
     0
178
     0
  0
DIMSTYLE
  2
ANNOTATIVE
 70
     0
  3

  4

  5

  6

  7

 40
0.0
 41
2.5
 42
0.625
 43
3.75
 44
1.25
 45
0.0
 46
0.0
 47
0.0
 48
0.0
140
2.5
141
2.5
142
0.0
143
0.03937007874016
144
1.0
145
0.0
146
1.0
147
0.625
 71
     0
 72
     0
 73
     0
 74
     0
 75
     0
 76
     0
 77
     1
 78
     8
170
     0
171
     3
172
     1
173
     0
174
     0
175
     0
176
     0
177
     0
178
     0
  0
DIMSTYLE
  2
ISO-25
 70
     0
  3

  4

  5

  6

  7

 40
1.0
 41
2.5
 42
0.625
 43
3.75
 44
1.25
 45
0.0
 46
0.0
 47
0.0
 48
0.0
140
2.5
141
2.5
142
0.0
143
0.03937007874016
144
1.0
145
0.0
146
1.0
147
0.625
 71
     0
 72
     0
 73
     0
 74
     0
 75
     0
 76
     0
 77
     1
 78
     8
170
     0
171
     3
172
     1
173
     0
174
     0
175
     0
176
     0
177
     0
178
     0
  0
DIMSTYLE
  2
MELÝH_A4
 70
     0
  3

  4

  5

  6

  7

 40
1.0
 41
1.5
 42
0.0
 43
3.75
 44
0.5
 45
0.0
 46
0.0
 47
0.0
 48
0.0
140
2.2999999999999989
141
0.2
142
0.0
143
0.03937007874016
144
1.0
145
0.0
146
1.0
147
0.4
 71
     0
 72
     0
 73
     0
 74
     0
 75
     0
 76
     0
 77
     1
 78
     8
170
     0
171
     3
172
     0
173
     0
174
     0
175
     0
176
   242
177
   242
178
   242
  0
ENDTAB
  0
ENDSEC
  0
SECTION
  2
BLOCKS
  0
BLOCK
  8
0
  2
$MODEL_SPACE
 70
     0
 10
0.0
 20
0.0
 30
0.0
  3
$MODEL_SPACE
  1

  0
ENDBLK
  5
21
  8
0
  0
BLOCK
 67
     1
  8
0
  2
$PAPER_SPACE
 70
     0
 10
0.0
 20
0.0
 30
0.0
  3
$PAPER_SPACE
  1

  0
ENDBLK
  5
D5
 67
     1
  8
0
  0
BLOCK
  8
0
  2
*X2
 70
     1
 10
0.0
 20
0.0
 30
0.0
  3
*X2
  1

  0
LINE
  5
2B2
  8
0
 62
     0
 10
75.857018207647315
 20
0.0240640219701049
 30
0.0
 11
75.975935935360937
 21
0.1429817496837131
 31
0.0
  0
LINE
  5
2B3
  8
0
 62
     0
 10
74.485915809460977
 20
0.0000000419441335
 30
0.0
 11
75.999999915386951
 21
1.514084147870107
 31
0.0
  0
LINE
  5
2B4
  8
0
 62
     0
 10
73.13887739130061
 20
0.0000000419441335
 30
0.0
 11
75.982006367453806
 21
2.8431290180973572
 31
0.0
  0
LINE
  5
2B5
  8
0
 62
     0
 10
71.791838973140244
 20
0.0000000419441335
 30
0.0
 11
74.791838973140187
 21
3.0000000419440762
 31
0.0
  0
LINE
  5
2B6
  8
0
 62
     0
 10
70.444800554979878
 20
0.0000000419441335
 30
0.0
 11
73.444800554979821
 21
3.0000000419440762
 31
0.0
  0
LINE
  5
2B7
  8
0
 62
     0
 10
69.097762136819483
 20
0.0000000419441051
 30
0.0
 11
72.097762136819455
 21
3.0000000419440762
 31
0.0
  0
LINE
  5
2B8
  8
0
 62
     0
 10
67.750723718659117
 20
0.0000000419441051
 30
0.0
 11
70.75072371865906
 21
3.0000000419440478
 31
0.0
  0
LINE
  5
2B9
  8
0
 62
     0
 10
66.403685300498736
 20
0.0000000419441051
 30
0.0
 11
69.40368530049868
 21
3.0000000419440478
 31
0.0
  0
LINE
  5
2BA
  8
0
 62
     0
 10
65.05664688233837
 20
0.0000000419441335
 30
0.0
 11
68.056646882338313
 21
3.0000000419441051
 31
0.0
  0
LINE
  5
2BB
  8
0
 62
     0
 10
63.709608464177983
 20
0.0000000419441335
 30
0.0
 11
66.709608464177975
 21
3.0000000419441051
 31
0.0
  0
LINE
  5
2BC
  8
0
 62
     0
 10
62.362570046017602
 20
0.0000000419441335
 30
0.0
 11
65.362570046017566
 21
3.0000000419440762
 31
0.0
  0
LINE
  5
2BD
  8
0
 62
     0
 10
61.015531627857257
 20
0.0000000419441335
 30
0.0
 11
64.0155316278572
 21
3.0000000419440762
 31
0.0
  0
LINE
  5
2BE
  8
0
 62
     0
 10
59.668493209696848
 20
0.0000000419441051
 30
0.0
 11
62.999999915386972
 21
3.3315067476342222
 31
0.0
  0
LINE
  5
2BF
  8
0
 62
     0
 10
58.321454791536482
 20
0.0000000419441051
 30
0.0
 11
62.999999915386972
 21
4.6785451657945876
 31
0.0
  0
LINE
  5
2C0
  8
0
 62
     0
 10
56.97441637337613
 20
0.0000000419441051
 30
0.0
 11
62.999999915386972
 21
6.0255835839549539
 31
0.0
  0
LINE
  5
2C1
  8
0
 62
     0
 10
55.627377955215721
 20
0.0000000419440909
 30
0.0
 11
62.999999915386972
 21
7.3726220021153352
 31
0.0
  0
LINE
  5
2C2
  8
0
 62
     0
 10
54.280339537055347
 20
0.0000000419440909
 30
0.0
 11
62.999999915386987
 21
8.7196604202757282
 31
0.0
  0
LINE
  5
2C3
  8
0
 62
     0
 10
52.933301118894988
 20
0.0000000419441051
 30
0.0
 11
62.999999915386972
 21
10.066698838436089
 31
0.0
  0
LINE
  5
2C4
  8
0
 62
     0
 10
51.586262700734608
 20
0.0000000419441051
 30
0.0
 11
62.999999915386972
 21
11.41373725659645
 31
0.0
  0
LINE
  5
2C5
  8
0
 62
     0
 10
50.239224282574213
 20
0.0000000419440909
 30
0.0
 11
62.999999915386972
 21
12.760775674756839
 31
0.0
  0
LINE
  5
2C6
  8
0
 62
     0
 10
48.892185864413861
 20
0.0000000419440909
 30
0.0
 11
62.999999915386972
 21
14.107814092917209
 31
0.0
  0
LINE
  5
2C7
  8
0
 62
     0
 10
47.545147446253488
 20
0.0000000419441051
 30
0.0
 11
62.999999915386972
 21
15.45485251107757
 31
0.0
  0
LINE
  5
2C8
  8
0
 62
     0
 10
46.198109028093107
 20
0.0000000419440909
 30
0.0
 11
62.995472349288178
 21
16.797363363139141
 31
0.0
  0
LINE
  5
2C9
  8
0
 62
     0
 10
44.851070609932727
 20
0.0000000419440909
 30
0.0
 11
61.851070609932741
 21
17.000000041944091
 31
0.0
  0
LINE
  5
2CA
  8
0
 62
     0
 10
43.504032191772382
 20
0.0000000419440909
 30
0.0
 11
60.504032191772353
 21
17.000000041944059
 31
0.0
  0
LINE
  5
2CB
  8
0
 62
     0
 10
42.156993773611987
 20
0.0000000419440767
 30
0.0
 11
59.156993773611973
 21
17.000000041944091
 31
0.0
  0
LINE
  5
2CC
  8
0
 62
     0
 10
40.809955355451599
 20
0.0000000419440767
 30
0.0
 11
57.809955355451628
 21
17.000000041944102
 31
0.0
  0
LINE
  5
2CD
  8
0
 62
     0
 10
39.46291693729124
 20
0.0000000419440909
 30
0.0
 11
56.46291693729124
 21
17.00000004194407
 31
0.0
  0
LINE
  5
2CE
  8
0
 62
     0
 10
38.115878519130867
 20
0.0000000419440909
 30
0.0
 11
55.11587851913086
 21
17.00000004194407
 31
0.0
  0
LINE
  5
2CF
  8
0
 62
     0
 10
36.7688401009705
 20
0.0000000419440767
 30
0.0
 11
53.768840100970493
 21
17.00000004194407
 31
0.0
  0
LINE
  5
2D0
  8
0
 62
     0
 10
35.421801682810113
 20
0.0000000419440624
 30
0.0
 11
52.421801682810127
 21
17.00000004194407
 31
0.0
  0
LINE
  5
2D1
  8
0
 62
     0
 10
34.074763264649746
 20
0.0000000419440767
 30
0.0
 11
51.074763264649732
 21
17.00000004194407
 31
0.0
  0
LINE
  5
2D2
  8
0
 62
     0
 10
32.727724846489373
 20
0.0000000419440767
 30
0.0
 11
49.727724846489359
 21
17.000000041944059
 31
0.0
  0
LINE
  5
2D3
  8
0
 62
     0
 10
31.380686428329
 20
0.0000000419440767
 30
0.0
 11
48.380686428328978
 21
17.000000041944059
 31
0.0
  0
LINE
  5
2D4
  8
0
 62
     0
 10
30.033648010168619
 20
0.0000000419440624
 30
0.0
 11
47.033648010168619
 21
17.000000041944091
 31
0.0
  0
LINE
  5
2D5
  8
0
 62
     0
 10
28.686609592008249
 20
0.0000000419440909
 30
0.0
 11
45.686609592008253
 21
17.00000004194407
 31
0.0
  0
LINE
  5
2D6
  8
0
 62
     0
 10
27.339571173847869
 20
0.0000000419440909
 30
0.0
 11
44.339571173847872
 21
17.00000004194407
 31
0.0
  0
LINE
  5
2D7
  8
0
 62
     0
 10
25.99253275568751
 20
0.0000000419440767
 30
0.0
 11
42.992532755687492
 21
17.00000004194407
 31
0.0
  0
LINE
  5
2D8
  8
0
 62
     0
 10
24.645494337527129
 20
0.0000000419440624
 30
0.0
 11
41.645494337527133
 21
17.00000004194407
 31
0.0
  0
LINE
  5
2D9
  8
0
 62
     0
 10
23.298455919366759
 20
0.0000000419440767
 30
0.0
 11
40.298455919366774
 21
17.000000041944091
 31
0.0
  0
LINE
  5
2DA
  8
0
 62
     0
 10
21.951417501206389
 20
0.0000000419440767
 30
0.0
 11
38.9514175012064
 21
17.00000004194407
 31
0.0
  0
LINE
  5
2DB
  8
0
 62
     0
 10
20.604379083046009
 20
0.0000000419440767
 30
0.0
 11
37.604379083046013
 21
17.00000004194407
 31
0.0
  0
LINE
  5
2DC
  8
0
 62
     0
 10
19.257340664885628
 20
0.0000000419440624
 30
0.0
 11
36.25734066488566
 21
17.00000004194407
 31
0.0
  0
LINE
  5
2DD
  8
0
 62
     0
 10
17.910302246725259
 20
0.0000000419440909
 30
0.0
 11
34.910302246725273
 21
17.00000004194407
 31
0.0
  0
LINE
  5
2DE
  8
0
 62
     0
 10
16.563263828564899
 20
0.0000000419440909
 30
0.0
 11
33.563263828564899
 21
17.000000041944091
 31
0.0
  0
LINE
  5
2DF
  8
0
 62
     0
 10
15.216225410404499
 20
0.0000000419440767
 30
0.0
 11
32.216225410404533
 21
17.000000041944091
 31
0.0
  0
LINE
  5
2E0
  8
0
 62
     0
 10
13.869186992244121
 20
0.0000000419440624
 30
0.0
 11
30.869186992244149
 21
17.00000004194407
 31
0.0
  0
LINE
  5
2E1
  8
0
 62
     0
 10
12.52214857408377
 20
0.0000000419440767
 30
0.0
 11
29.522148574083779
 21
17.000000041944091
 31
0.0
  0
LINE
  5
2E2
  8
0
 62
     0
 10
11.175110155923401
 20
0.0000000419440767
 30
0.0
 11
28.175110155923409
 21
17.00000004194407
 31
0.0
  0
LINE
  5
2E3
  8
0
 62
     0
 10
12.99999991538699
 20
3.171928219568044
 30
0.0
 11
26.828071737763061
 21
17.000000041944091
 31
0.0
  0
LINE
  5
2E4
  8
0
 62
     0
 10
9.8280717377630253
 20
0.0000000419440767
 30
0.0
 11
12.82807173776304
 21
3.0000000419440762
 31
0.0
  0
LINE
  5
2E5
  8
0
 62
     0
 10
12.999999915386979
 20
4.518966637728397
 30
0.0
 11
25.48103331960267
 21
17.00000004194407
 31
0.0
  0
LINE
  5
2E6
  8
0
 62
     0
 10
8.4810333196026448
 20
0.0000000419440624
 30
0.0
 11
11.48103331960267
 21
3.00000004194409
 31
0.0
  0
LINE
  5
2E7
  8
0
 62
     0
 10
12.999999915386979
 20
5.8660050558887633
 30
0.0
 11
24.133994901442311
 21
17.000000041944091
 31
0.0
  0
LINE
  5
2E8
  8
0
 62
     0
 10
7.1339949014422919
 20
0.0000000419440767
 30
0.0
 11
10.133994901442289
 21
3.0000000419440762
 31
0.0
  0
LINE
  5
2E9
  8
0
 62
     0
 10
12.999999915386979
 20
7.213043474049158
 30
0.0
 11
22.78695648328193
 21
17.000000041944102
 31
0.0
  0
LINE
  5
2EA
  8
0
 62
     0
 10
5.7869564832819123
 20
0.0000000419440909
 30
0.0
 11
8.786956483281898
 21
3.0000000419440762
 31
0.0
  0
LINE
  5
2EB
  8
0
 62
     0
 10
12.99999991538699
 20
8.5600818922095385
 30
0.0
 11
21.43991806512155
 21
17.000000041944091
 31
0.0
  0
LINE
  5
2EC
  8
0
 62
     0
 10
4.4399180651215309
 20
0.0000000419440767
 30
0.0
 11
7.4399180651215451
 21
3.0000000419440762
 31
0.0
  0
LINE
  5
2ED
  8
0
 62
     0
 10
12.99999991538696
 20
9.9071203103698906
 30
0.0
 11
20.092879646961151
 21
17.00000004194407
 31
0.0
  0
LINE
  5
2EE
  8
0
 62
     0
 10
3.092879646961165
 20
0.0000000419440909
 30
0.0
 11
6.0928796469611646
 21
3.00000004194409
 31
0.0
  0
LINE
  5
2EF
  8
0
 62
     0
 10
12.99999991538696
 20
11.25415872853025
 30
0.0
 11
18.745841228800799
 21
17.000000041944091
 31
0.0
  0
LINE
  5
2F0
  8
0
 62
     0
 10
1.7458412288007841
 20
0.0000000419440767
 30
0.0
 11
4.7458412288007841
 21
3.0000000419440762
 31
0.0
  0
LINE
  5
2F1
  8
0
 62
     0
 10
12.99999991538696
 20
12.601197146690611
 30
0.0
 11
17.398802810640429
 21
17.000000041944091
 31
0.0
  0
LINE
  5
2F2
  8
0
 62
     0
 10
0.3988028106404187
 20
0.0000000419440767
 30
0.0
 11
3.398802810640404
 21
3.000000041944062
 31
0.0
  0
LINE
  5
2F3
  8
0
 62
     0
 10
12.999999915386979
 20
13.948235564850989
 30
0.0
 11
16.051764392480049
 21
17.00000004194407
 31
0.0
  0
LINE
  5
2F4
  8
0
 62
     0
 10
-0.0000000846130064
 20
0.9482355648510178
 30
0.0
 11
2.0517643924800382
 21
3.000000041944062
 31
0.0
  0
LINE
  5
2F5
  8
0
 62
     0
 10
12.99999991538699
 20
15.295273983011381
 30
0.0
 11
14.70472597431967
 21
17.00000004194407
 31
0.0
  0
LINE
  5
2F6
  8
0
 62
     0
 10
-0.0000000846130206
 20
2.2952739830113842
 30
0.0
 11
0.7047259743196577
 21
3.000000041944062
 31
0.0
  0
LINE
  5
2F7
  8
0
 62
     0
 10
12.999999915386979
 20
16.64231240117175
 30
0.0
 11
13.35768755615932
 21
17.000000041944091
 31
0.0
  0
ENDBLK
  5
2F9
  8
0
  0
BLOCK
  8
0
  2
*U3
 70
     1
 10
0.0
 20
0.0
 30
0.0
  3
*U3
  1

  0
ARC
  5
2FB
  8
0
 10
62.749999915386979
 20
16.75000004194408
 30
0.0
 40
0.25
 50
0.0
 51
90.0
  0
LINE
  5
2FC
  8
0
 10
13.249999915386979
 20
17.00000004194407
 30
0.0
 11
62.749999915386979
 21
17.00000004194407
 31
0.0
  0
LINE
  5
2FD
  8
0
 10
62.999999915386972
 20
3.0000000419440762
 30
0.0
 11
62.999999915386972
 21
16.75000004194408
 31
0.0
  0
ARC
  5
2FE
  8
0
 10
13.249999915386979
 20
16.75000004194408
 30
0.0
 40
0.25
 50
90.0
 51
180.0
  0
LINE
  5
2FF
  8
0
 10
75.749999915386979
 20
3.0000000419440762
 30
0.0
 11
62.999999915386972
 21
3.0000000419440762
 31
0.0
  0
LINE
  5
300
  8
0
 10
12.999999915386979
 20
3.0000000419440762
 30
0.0
 11
12.999999915386979
 21
16.75000004194408
 31
0.0
  0
ARC
  5
301
  8
0
 10
75.749999915386979
 20
2.7500000419440762
 30
0.0
 40
0.25
 50
0.0
 51
90.0
  0
LINE
  5
302
  8
0
 10
0.2499999153869794
 20
3.0000000419440762
 30
0.0
 11
12.999999915386979
 21
3.0000000419440762
 31
0.0
  0
LINE
  5
303
  8
0
 10
75.999999915386979
 20
0.2500000419440767
 30
0.0
 11
75.999999915386979
 21
2.7500000419440762
 31
0.0
  0
ARC
  5
304
  8
0
 10
0.2499999153869794
 20
2.7500000419440762
 30
0.0
 40
0.25
 50
90.0
 51
180.0
  0
ARC
  5
305
  8
0
 10
75.749999915386979
 20
0.2500000419440767
 30
0.0
 40
0.25
 50
270.0
 51
0.0
  0
LINE
  5
306
  8
0
 10
-0.0000000846130206
 20
0.2500000419440767
 30
0.0
 11
-0.0000000846130206
 21
2.7500000419440762
 31
0.0
  0
LINE
  5
307
  8
0
 10
0.2499999153869794
 20
0.0000000419440767
 30
0.0
 11
75.749999915386979
 21
0.0000000419440767
 31
0.0
  0
ARC
  5
308
  8
0
 10
0.2499999153869794
 20
0.2500000419440767
 30
0.0
 40
0.25
 50
180.0
 51
270.0
  0
ENDBLK
  5
30A
  8
0
  0
ENDSEC
  0
SECTION
  2
ENTITIES
  0
ARC
  5
24F
  8
0
 10
1031.6583614610761
 20
2468.8967616011009
 30
0.0
 40
0.25
 50
0.0
 51
90.0
  0
LINE
  5
250
  8
0
 10
982.1583614610762
 20
2469.1467616011009
 30
0.0
 11
1031.6583614610761
 21
2469.1467616011009
 31
0.0
  0
LINE
  5
251
  8
0
 10
1031.9083614610761
 20
2455.1467616011009
 30
0.0
 11
1031.9083614610761
 21
2468.8967616011009
 31
0.0
  0
ARC
  5
252
  8
0
 10
982.1583614610762
 20
2468.8967616011009
 30
0.0
 40
0.25
 50
90.0
 51
180.0
  0
LINE
  5
253
  8
0
 10
1044.6583614610761
 20
2455.1467616011009
 30
0.0
 11
1031.9083614610761
 21
2455.1467616011009
 31
0.0
  0
LINE
  5
254
  8
0
 10
981.90836146107631
 20
2455.1467616011009
 30
0.0
 11
981.90836146107631
 21
2468.8967616011009
 31
0.0
  0
ARC
  5
255
  8
0
 10
1044.6583614610761
 20
2454.8967616011009
 30
0.0
 40
0.25
 50
0.0
 51
90.0
  0
LINE
  5
256
  8
0
 10
969.15836146107631
 20
2455.1467616011009
 30
0.0
 11
981.90836146107631
 21
2455.1467616011009
 31
0.0
  0
LINE
  5
257
  8
0
 10
1044.9083614610761
 20
2452.3967616011009
 30
0.0
 11
1044.9083614610761
 21
2454.8967616011009
 31
0.0
  0
ARC
  5
258
  8
0
 10
969.15836146107631
 20
2454.8967616011009
 30
0.0
 40
0.25
 50
90.0
 51
180.0
  0
ARC
  5
259
  8
0
 10
1044.6583614610761
 20
2452.3967616011009
 30
0.0
 40
0.25
 50
270.0
 51
0.0
  0
LINE
  5
25A
  8
0
 10
968.90836146107642
 20
2452.3967616011009
 30
0.0
 11
968.90836146107642
 21
2454.8967616011009
 31
0.0
  0
LINE
  5
25B
  8
0
 10
969.15836146107631
 20
2452.1467616011009
 30
0.0
 11
1044.6583614610761
 21
2452.1467616011009
 31
0.0
  0
ARC
  5
25C
  8
0
 10
969.15836146107631
 20
2452.3967616011009
 30
0.0
 40
0.25
 50
180.0
 51
270.0
  0
ENDSEC
  0
EOF
