  0
SECTION
  2
HEADER
  9
$ACADVER
  1
AC1009
  9
$INSBASE
 10
0.0
 20
0.0
 30
0.0
  9
$EXTMIN
 10
1391.225862506592
 20
1399.2658678489929
 30
-0.0015258207003583
  9
$EXTMAX
 10
1531.2994046225649
 20
1479.4006312206261
 30
0.0000000349246037
  9
$LIMMIN
 10
0.0
 20
0.0
  9
$LIMMAX
 10
420.0
 20
297.0
  9
$ORTHOMODE
 70
     0
  9
$REGENMODE
 70
     1
  9
$FILLMODE
 70
     1
  9
$QTEXTMODE
 70
     0
  9
$MIRRTEXT
 70
     0
  9
$DRAGMODE
 70
     2
  9
$LTSCALE
 40
1.0
  9
$OSMODE
 70
  3071
  9
$ATTMODE
 70
     1
  9
$TEXTSIZE
 40
2.5
  9
$TRACEWID
 40
1.0
  9
$TEXTSTYLE
  7
STANDARD
  9
$CLAYER
  8
0
  9
$CELTYPE
  6
BYLAYER
  9
$CECOLOR
 62
   256
  9
$DIMSCALE
 40
1.0
  9
$DIMASZ
 40
2.5
  9
$DIMEXO
 40
0.625
  9
$DIMDLI
 40
3.75
  9
$DIMRND
 40
0.0
  9
$DIMDLE
 40
0.0
  9
$DIMEXE
 40
1.25
  9
$DIMTP
 40
0.0
  9
$DIMTM
 40
0.0
  9
$DIMTXT
 40
2.5
  9
$DIMCEN
 40
2.5
  9
$DIMTSZ
 40
0.0
  9
$DIMTOL
 70
     0
  9
$DIMLIM
 70
     0
  9
$DIMTIH
 70
     0
  9
$DIMTOH
 70
     0
  9
$DIMSE1
 70
     0
  9
$DIMSE2
 70
     0
  9
$DIMTAD
 70
     1
  9
$DIMZIN
 70
     8
  9
$DIMBLK
  1

  9
$DIMASO
 70
     1
  9
$DIMSHO
 70
     1
  9
$DIMPOST
  1

  9
$DIMAPOST
  1

  9
$DIMALT
 70
     0
  9
$DIMALTD
 70
     3
  9
$DIMALTF
 40
0.03937007874016
  9
$DIMLFAC
 40
1.0
  9
$DIMTOFL
 70
     1
  9
$DIMTVP
 40
0.0
  9
$DIMTIX
 70
     0
  9
$DIMSOXD
 70
     0
  9
$DIMSAH
 70
     0
  9
$DIMBLK1
  1

  9
$DIMBLK2
  1

  9
$DIMSTYLE
  2
ISO-25
  9
$DIMCLRD
 70
     0
  9
$DIMCLRE
 70
     0
  9
$DIMCLRT
 70
     0
  9
$DIMTFAC
 40
1.0
  9
$DIMGAP
 40
0.625
  9
$LUNITS
 70
     2
  9
$LUPREC
 70
     4
  9
$SKETCHINC
 40
1.0
  9
$FILLETRAD
 40
0.0
  9
$AUNITS
 70
     0
  9
$AUPREC
 70
     0
  9
$MENU
  1
.
  9
$ELEVATION
 40
0.0
  9
$PELEVATION
 40
0.0
  9
$THICKNESS
 40
0.0
  9
$LIMCHECK
 70
     0
  9
$BLIPMODE
 70
     0
  9
$CHAMFERA
 40
0.0
  9
$CHAMFERB
 40
0.0
  9
$SKPOLY
 70
     0
  9
$TDCREATE
 40
2456765.5680212388
  9
$TDUPDATE
 40
2456765.5681458339
  9
$TDINDWG
 40
0.0001260185
  9
$TDUSRTIMER
 40
0.0001259838
  9
$USRTIMER
 70
     1
  9
$ANGBASE
 50
0.0
  9
$ANGDIR
 70
     0
  9
$PDMODE
 70
     0
  9
$PDSIZE
 40
0.0
  9
$PLINEWID
 40
0.0
  9
$COORDS
 70
     1
  9
$SPLFRAME
 70
     0
  9
$SPLINETYPE
 70
     6
  9
$SPLINESEGS
 70
     8
  9
$ATTDIA
 70
     1
  9
$ATTREQ
 70
     1
  9
$HANDLING
 70
     1
  9
$HANDSEED
  5
43D
  9
$SURFTAB1
 70
     6
  9
$SURFTAB2
 70
     6
  9
$SURFTYPE
 70
     6
  9
$SURFU
 70
     6
  9
$SURFV
 70
     6
  9
$UCSNAME
  2

  9
$UCSORG
 10
0.0
 20
0.0
 30
0.0
  9
$UCSXDIR
 10
1.0
 20
0.0
 30
0.0
  9
$UCSYDIR
 10
0.0
 20
1.0
 30
0.0
  9
$PUCSNAME
  2

  9
$PUCSORG
 10
0.0
 20
0.0
 30
0.0
  9
$PUCSXDIR
 10
1.0
 20
0.0
 30
0.0
  9
$PUCSYDIR
 10
0.0
 20
1.0
 30
0.0
  9
$USERI1
 70
     0
  9
$USERI2
 70
     0
  9
$USERI3
 70
     0
  9
$USERI4
 70
     0
  9
$USERI5
 70
     0
  9
$USERR1
 40
0.0
  9
$USERR2
 40
0.0
  9
$USERR3
 40
0.0
  9
$USERR4
 40
0.0
  9
$USERR5
 40
0.0
  9
$WORLDVIEW
 70
     1
  9
$SHADEDGE
 70
     3
  9
$SHADEDIF
 70
    70
  9
$TILEMODE
 70
     1
  9
$MAXACTVP
 70
    64
  9
$PLIMCHECK
 70
     0
  9
$PEXTMIN
 10
0.0
 20
0.0
 30
0.0
  9
$PEXTMAX
 10
0.0
 20
0.0
 30
0.0
  9
$PLIMMIN
 10
0.0
 20
0.0
  9
$PLIMMAX
 10
12.0
 20
9.0
  9
$UNITMODE
 70
     0
  9
$VISRETAIN
 70
     1
  9
$PLINEGEN
 70
     0
  9
$PSLTSCALE
 70
     1
  0
ENDSEC
  0
SECTION
  2
TABLES
  0
TABLE
  2
VPORT
 70
     1
  0
VPORT
  2
*ACTIVE
 70
     0
 10
0.0
 20
0.0
 11
1.0
 21
1.0
 12
1461.2626335645789
 22
1439.33324953481
 13
0.0
 23
0.0
 14
10.0
 24
10.0
 15
10.0
 25
10.0
 16
0.0
 26
0.0
 36
1.0
 17
0.0
 27
0.0
 37
0.0
 40
80.922974158895158
 41
2.068965517241379
 42
50.0
 43
0.0
 44
0.0
 50
0.0
 51
0.0
 71
     0
 72
  1000
 73
     1
 74
     3
 75
     0
 76
     1
 77
     0
 78
     0
  0
ENDTAB
  0
TABLE
  2
LTYPE
 70
     1
  0
LTYPE
  2
CONTINUOUS
 70
     0
  3
Solid line
 72
    65
 73
     0
 40
0.0
  0
ENDTAB
  0
TABLE
  2
LAYER
 70
     1
  0
LAYER
  2
0
 70
     0
 62
     7
  6
CONTINUOUS
  0
ENDTAB
  0
TABLE
  2
STYLE
 70
     3
  0
STYLE
  2
STANDARD
 70
     0
 40
0.0
 41
1.0
 50
0.0
 71
     0
 42
2.5
  3
txt
  4

  0
STYLE
  2
ANNOTATIVE
 70
     0
 40
0.0
 41
1.0
 50
0.0
 71
     0
 42
2.5
  3
txt
  4

  0
STYLE
  2
ROMANT
 70
     0
 40
2.2999999999999989
 41
1.0
 50
15.0
 71
     0
 42
2.5
  3
romant.shx
  4

  0
ENDTAB
  0
TABLE
  2
VIEW
 70
     2
  0
ENDTAB
  0
TABLE
  2
UCS
 70
     0
  0
ENDTAB
  0
TABLE
  2
APPID
 70
    10
  0
APPID
  2
ACAD
 70
     0
  0
APPID
  2
ACAD_PSEXT
 70
     0
  0
APPID
  2
ACADANNOPO
 70
     0
  0
APPID
  2
ACADANNOTATIVE
 70
     0
  0
APPID
  2
ACAD_DSTYLE_DIMJAG
 70
     0
  0
APPID
  2
ACAD_DSTYLE_DIMTALN
 70
     0
  0
APPID
  2
ACAD_MLEADERVER
 70
     0
  0
APPID
  2
ACAD_NAV_VCDISPLAY
 70
     0
  0
APPID
  2
GRADIENTCOLOR1ACI
 70
     0
  0
APPID
  2
GRADIENTCOLOR2ACI
 70
     0
  0
ENDTAB
  0
TABLE
  2
DIMSTYLE
 70
     4
  0
DIMSTYLE
  2
STANDARD
 70
     0
  3

  4

  5

  6

  7

 40
1.0
 41
0.18
 42
0.0625
 43
0.38
 44
0.18
 45
0.0
 46
0.0
 47
0.0
 48
0.0
140
0.18
141
0.09
142
0.0
143
25.399999999999999
144
1.0
145
0.0
146
1.0
147
0.09
 71
     0
 72
     0
 73
     1
 74
     1
 75
     0
 76
     0
 77
     0
 78
     0
170
     0
171
     2
172
     0
173
     0
174
     0
175
     0
176
     0
177
     0
178
     0
  0
DIMSTYLE
  2
ANNOTATIVE
 70
     0
  3

  4

  5

  6

  7

 40
0.0
 41
2.5
 42
0.625
 43
3.75
 44
1.25
 45
0.0
 46
0.0
 47
0.0
 48
0.0
140
2.5
141
2.5
142
0.0
143
0.03937007874016
144
1.0
145
0.0
146
1.0
147
0.625
 71
     0
 72
     0
 73
     0
 74
     0
 75
     0
 76
     0
 77
     1
 78
     8
170
     0
171
     3
172
     1
173
     0
174
     0
175
     0
176
     0
177
     0
178
     0
  0
DIMSTYLE
  2
ISO-25
 70
     0
  3

  4

  5

  6

  7

 40
1.0
 41
2.5
 42
0.625
 43
3.75
 44
1.25
 45
0.0
 46
0.0
 47
0.0
 48
0.0
140
2.5
141
2.5
142
0.0
143
0.03937007874016
144
1.0
145
0.0
146
1.0
147
0.625
 71
     0
 72
     0
 73
     0
 74
     0
 75
     0
 76
     0
 77
     1
 78
     8
170
     0
171
     3
172
     1
173
     0
174
     0
175
     0
176
     0
177
     0
178
     0
  0
DIMSTYLE
  2
MELÝH_A4
 70
     0
  3

  4

  5

  6

  7

 40
1.0
 41
1.5
 42
0.0
 43
3.75
 44
0.5
 45
0.0
 46
0.0
 47
0.0
 48
0.0
140
2.2999999999999989
141
0.2
142
0.0
143
0.03937007874016
144
1.0
145
0.0
146
1.0
147
0.4
 71
     0
 72
     0
 73
     0
 74
     0
 75
     0
 76
     0
 77
     1
 78
     8
170
     0
171
     3
172
     0
173
     0
174
     0
175
     0
176
   242
177
   242
178
   242
  0
ENDTAB
  0
ENDSEC
  0
SECTION
  2
BLOCKS
  0
BLOCK
  8
0
  2
$MODEL_SPACE
 70
     0
 10
0.0
 20
0.0
 30
0.0
  3
$MODEL_SPACE
  1

  0
ENDBLK
  5
21
  8
0
  0
BLOCK
 67
     1
  8
0
  2
$PAPER_SPACE
 70
     0
 10
0.0
 20
0.0
 30
0.0
  3
$PAPER_SPACE
  1

  0
ENDBLK
  5
D5
 67
     1
  8
0
  0
BLOCK
  8
0
  2
*X2
 70
     1
 10
0.0
 20
0.0
 30
0.0
  3
*X2
  1

  0
LINE
  5
2D1
  8
0
 62
     0
 10
139.26934498690511
 20
24.999999808648109
 30
0.0
 11
140.0000003711005
 21
25.730655192843528
 31
0.0
  0
LINE
  5
2D2
  8
0
 62
     0
 10
137.9223065687448
 20
24.99999980864817
 30
0.0
 11
139.88360902439649
 21
26.961302264299832
 31
0.0
  0
LINE
  5
2D3
  8
0
 62
     0
 10
136.57526815058441
 20
24.99999980864817
 30
0.0
 11
138.57526815058441
 21
26.99999980864823
 31
0.0
  0
LINE
  5
2D4
  8
0
 62
     0
 10
135.2282297324241
 20
24.99999980864817
 30
0.0
 11
137.2282297324241
 21
26.99999980864817
 31
0.0
  0
LINE
  5
2D5
  8
0
 62
     0
 10
133.8811913142637
 20
24.99999980864823
 30
0.0
 11
135.8811913142637
 21
26.99999980864817
 31
0.0
  0
LINE
  5
2D6
  8
0
 62
     0
 10
132.53415289610331
 20
24.99999980864817
 30
0.0
 11
134.53415289610331
 21
26.99999980864817
 31
0.0
  0
LINE
  5
2D7
  8
0
 62
     0
 10
107.59343210372749
 20
0.0592790162723986
 30
0.0
 11
109.9407211634763
 21
2.4065680760211872
 31
0.0
  0
LINE
  5
2D8
  8
0
 62
     0
 10
131.187114477943
 20
24.99999980864823
 30
0.0
 11
133.18711447794291
 21
26.99999980864817
 31
0.0
  0
LINE
  5
2D9
  8
0
 62
     0
 10
106.1871144779429
 20
-0.0000001913518304
 30
0.0
 11
110.0000003711005
 21
3.812885701805782
 31
0.0
  0
LINE
  5
2DA
  8
0
 62
     0
 10
108.0000003711005
 20
3.1599241199660919
 30
0.0
 11
110.0000003711006
 21
5.1599241199661492
 31
0.0
  0
LINE
  5
2DB
  8
0
 62
     0
 10
129.8400760597826
 20
24.99999980864817
 30
0.0
 11
131.8400760597826
 21
26.99999980864817
 31
0.0
  0
LINE
  5
2DC
  8
0
 62
     0
 10
104.8400760597826
 20
-0.0000001913518304
 30
0.0
 11
106.8400760597826
 21
1.999999808648169
 31
0.0
  0
LINE
  5
2DD
  8
0
 62
     0
 10
108.0000003711005
 20
4.5069625381265146
 30
0.0
 11
110.0000003711005
 21
6.5069625381265146
 31
0.0
  0
LINE
  5
2DE
  8
0
 62
     0
 10
128.4930376416221
 20
24.99999980864817
 30
0.0
 11
130.49303764162221
 21
26.99999980864817
 31
0.0
  0
LINE
  5
2DF
  8
0
 62
     0
 10
103.4930376416221
 20
-0.0000001913518304
 30
0.0
 11
105.49303764162219
 21
1.999999808648169
 31
0.0
  0
LINE
  5
2E0
  8
0
 62
     0
 10
108.0000003711005
 20
5.8540009562869377
 30
0.0
 11
110.0000003711005
 21
7.8540009562869377
 31
0.0
  0
LINE
  5
2E1
  8
0
 62
     0
 10
127.1459992234618
 20
24.99999980864817
 30
0.0
 11
129.14599922346181
 21
26.99999980864823
 31
0.0
  0
LINE
  5
2E2
  8
0
 62
     0
 10
102.1459992234618
 20
-0.0000001913518304
 30
0.0
 11
104.1459992234618
 21
1.999999808648226
 31
0.0
  0
LINE
  5
2E3
  8
0
 62
     0
 10
108.0000003711005
 20
7.2010393744472481
 30
0.0
 11
110.0000003711005
 21
9.2010393744472481
 31
0.0
  0
LINE
  5
2E4
  8
0
 62
     0
 10
125.7989608053015
 20
24.99999980864817
 30
0.0
 11
127.7989608053015
 21
26.99999980864817
 31
0.0
  0
LINE
  5
2E5
  8
0
 62
     0
 10
100.7989608053015
 20
-0.0000001913518304
 30
0.0
 11
102.7989608053015
 21
1.999999808648169
 31
0.0
  0
LINE
  5
2E6
  8
0
 62
     0
 10
108.0000003711005
 20
8.5480777926076144
 30
0.0
 11
110.0000003711005
 21
10.54807779260755
 31
0.0
  0
LINE
  5
2E7
  8
0
 62
     0
 10
124.451922387141
 20
24.999999808648109
 30
0.0
 11
126.4519223871411
 21
26.99999980864817
 31
0.0
  0
LINE
  5
2E8
  8
0
 62
     0
 10
99.451922387141053
 20
-0.0000001913518872
 30
0.0
 11
101.451922387141
 21
1.9999998086481121
 31
0.0
  0
LINE
  5
2E9
  8
0
 62
     0
 10
108.0000003711006
 20
9.8951162107680375
 30
0.0
 11
110.0000003711005
 21
11.895116210767981
 31
0.0
  0
LINE
  5
2EA
  8
0
 62
     0
 10
123.1048839689807
 20
24.99999980864817
 30
0.0
 11
125.1048839689807
 21
26.99999980864817
 31
0.0
  0
LINE
  5
2EB
  8
0
 62
     0
 10
98.104883968980687
 20
-0.0000001913518872
 30
0.0
 11
100.1048839689807
 21
1.999999808648169
 31
0.0
  0
LINE
  5
2EC
  8
0
 62
     0
 10
108.0000003711005
 20
11.2421546289284
 30
0.0
 11
110.0000003711005
 21
13.2421546289284
 31
0.0
  0
LINE
  5
2ED
  8
0
 62
     0
 10
121.75784555082041
 20
24.99999980864823
 30
0.0
 11
123.75784555082031
 21
26.99999980864817
 31
0.0
  0
LINE
  5
2EE
  8
0
 62
     0
 10
96.757845550820321
 20
-0.0000001913518304
 30
0.0
 11
98.757845550820335
 21
1.999999808648169
 31
0.0
  0
LINE
  5
2EF
  8
0
 62
     0
 10
108.0000003711005
 20
12.58919304708877
 30
0.0
 11
110.0000003711005
 21
14.58919304708871
 31
0.0
  0
LINE
  5
2F0
  8
0
 62
     0
 10
120.41080713266
 20
24.99999980864817
 30
0.0
 11
122.41080713266
 21
26.99999980864817
 31
0.0
  0
LINE
  5
2F1
  8
0
 62
     0
 10
95.410807132659926
 20
-0.0000001913518304
 30
0.0
 11
97.410807132659997
 21
1.999999808648169
 31
0.0
  0
LINE
  5
2F2
  8
0
 62
     0
 10
108.0000003711005
 20
13.93623146524914
 30
0.0
 11
110.0000003711005
 21
15.936231465249129
 31
0.0
  0
LINE
  5
2F3
  8
0
 62
     0
 10
119.0637687144996
 20
24.99999980864823
 30
0.0
 11
121.0637687144996
 21
26.99999980864817
 31
0.0
  0
LINE
  5
2F4
  8
0
 62
     0
 10
94.063768714499588
 20
-0.0000001913518304
 30
0.0
 11
96.063768714499602
 21
1.999999808648169
 31
0.0
  0
LINE
  5
2F5
  8
0
 62
     0
 10
108.0000003711005
 20
15.28326988340944
 30
0.0
 11
110.0000003711005
 21
17.283269883409499
 31
0.0
  0
LINE
  5
2F6
  8
0
 62
     0
 10
117.71673029633919
 20
24.999999808648109
 30
0.0
 11
119.71673029633919
 21
26.99999980864817
 31
0.0
  0
LINE
  5
2F7
  8
0
 62
     0
 10
92.716730296339193
 20
-0.0000001913518872
 30
0.0
 11
94.716730296339236
 21
1.999999808648169
 31
0.0
  0
LINE
  5
2F8
  8
0
 62
     0
 10
108.0000003711005
 20
16.630308301569869
 30
0.0
 11
110.0000003711005
 21
18.630308301569869
 31
0.0
  0
LINE
  5
2F9
  8
0
 62
     0
 10
116.3696918781788
 20
24.99999980864817
 30
0.0
 11
118.3696918781788
 21
26.99999980864817
 31
0.0
  0
LINE
  5
2FA
  8
0
 62
     0
 10
91.369691878178855
 20
-0.0000001913518304
 30
0.0
 11
93.369691878178855
 21
1.999999808648169
 31
0.0
  0
LINE
  5
2FB
  8
0
 62
     0
 10
108.0000003711005
 20
17.977346719730232
 30
0.0
 11
110.0000003711005
 21
19.977346719730178
 31
0.0
  0
LINE
  5
2FC
  8
0
 62
     0
 10
115.0226534600184
 20
24.999999808648109
 30
0.0
 11
117.0226534600184
 21
26.99999980864817
 31
0.0
  0
LINE
  5
2FD
  8
0
 62
     0
 10
90.022653460018432
 20
-0.0000001913518872
 30
0.0
 11
92.022653460018418
 21
1.999999808648169
 31
0.0
  0
LINE
  5
2FE
  8
0
 62
     0
 10
108.0000003711005
 20
19.324385137890602
 30
0.0
 11
110.0000003711005
 21
21.324385137890602
 31
0.0
  0
LINE
  5
2FF
  8
0
 62
     0
 10
113.67561504185809
 20
24.99999980864817
 30
0.0
 11
115.67561504185809
 21
26.99999980864817
 31
0.0
  0
LINE
  5
300
  8
0
 62
     0
 10
88.675615041858066
 20
-0.0000001913518872
 30
0.0
 11
90.675615041858066
 21
1.999999808648169
 31
0.0
  0
LINE
  5
301
  8
0
 62
     0
 10
108.0000003711005
 20
20.671423556051032
 30
0.0
 11
110.0000003711005
 21
22.671423556050971
 31
0.0
  0
LINE
  5
302
  8
0
 62
     0
 10
112.3285766236977
 20
24.99999980864823
 30
0.0
 11
114.3285766236977
 21
26.99999980864823
 31
0.0
  0
LINE
  5
303
  8
0
 62
     0
 10
87.3285766236977
 20
-0.0000001913518304
 30
0.0
 11
89.328576623697685
 21
1.999999808648169
 31
0.0
  0
LINE
  5
304
  8
0
 62
     0
 10
110.9815382055374
 20
24.99999980864817
 30
0.0
 11
112.9815382055374
 21
26.99999980864817
 31
0.0
  0
LINE
  5
305
  8
0
 62
     0
 10
108.0000003711006
 20
22.018461974211391
 30
0.0
 11
110.0000003711005
 21
24.018461974211341
 31
0.0
  0
LINE
  5
306
  8
0
 62
     0
 10
138.98153820553739
 20
52.99999980864817
 30
0.0
 11
140.0000003711005
 21
54.018461974211327
 31
0.0
  0
LINE
  5
307
  8
0
 62
     0
 10
85.981538205537333
 20
-0.0000001913518872
 30
0.0
 11
87.98153820553739
 21
1.999999808648169
 31
0.0
  0
LINE
  5
308
  8
0
 62
     0
 10
108.0000003711005
 20
23.365500392371761
 30
0.0
 11
111.6344997873769
 21
26.99999980864817
 31
0.0
  0
LINE
  5
309
  8
0
 62
     0
 10
137.63449978737691
 20
52.99999980864817
 30
0.0
 11
139.63449978737691
 21
54.99999980864817
 31
0.0
  0
LINE
  5
30A
  8
0
 62
     0
 10
84.634499787376967
 20
-0.0000001913518304
 30
0.0
 11
86.634499787376967
 21
1.999999808648169
 31
0.0
  0
LINE
  5
30B
  8
0
 62
     0
 10
108.0000003711005
 20
24.71253881053207
 30
0.0
 11
110.2874613692166
 21
26.99999980864817
 31
0.0
  0
LINE
  5
30C
  8
0
 62
     0
 10
136.2874613692166
 20
52.99999980864817
 30
0.0
 11
138.2874613692166
 21
54.99999980864817
 31
0.0
  0
LINE
  5
30D
  8
0
 62
     0
 10
83.287461369216558
 20
-0.0000001913518304
 30
0.0
 11
85.287461369216629
 21
1.999999808648169
 31
0.0
  0
LINE
  5
30E
  8
0
 62
     0
 10
108.0000003711005
 20
26.05957722869249
 30
0.0
 11
110.0000003711005
 21
28.05957722869249
 31
0.0
  0
LINE
  5
30F
  8
0
 62
     0
 10
134.94042295105629
 20
52.999999808648219
 30
0.0
 11
136.94042295105609
 21
54.99999980864817
 31
0.0
  0
LINE
  5
310
  8
0
 62
     0
 10
81.940422951056235
 20
-0.0000001913518304
 30
0.0
 11
83.940422951056235
 21
1.999999808648169
 31
0.0
  0
LINE
  5
311
  8
0
 62
     0
 10
108.0000003711005
 20
27.406615646852799
 30
0.0
 11
110.0000003711005
 21
29.406615646852849
 31
0.0
  0
LINE
  5
312
  8
0
 62
     0
 10
133.5933845328959
 20
52.99999980864817
 30
0.0
 11
135.59338453289581
 21
54.999999808648113
 31
0.0
  0
LINE
  5
313
  8
0
 62
     0
 10
80.593384532895897
 20
-0.0000001913518304
 30
0.0
 11
82.593384532895897
 21
1.999999808648169
 31
0.0
  0
LINE
  5
314
  8
0
 62
     0
 10
108.0000003711005
 20
28.753654065013219
 30
0.0
 11
110.0000003711005
 21
30.753654065013219
 31
0.0
  0
LINE
  5
315
  8
0
 62
     0
 10
132.24634611473539
 20
52.999999808648113
 30
0.0
 11
134.2463461147355
 21
54.99999980864817
 31
0.0
  0
LINE
  5
316
  8
0
 62
     0
 10
79.246346114735502
 20
-0.0000001913517735
 30
0.0
 11
81.246346114735516
 21
1.999999808648169
 31
0.0
  0
LINE
  5
317
  8
0
 62
     0
 10
108.0000003711006
 20
30.100692483173638
 30
0.0
 11
110.0000003711005
 21
32.100692483173589
 31
0.0
  0
LINE
  5
318
  8
0
 62
     0
 10
130.89930769657511
 20
52.99999980864817
 30
0.0
 11
132.89930769657511
 21
54.99999980864817
 31
0.0
  0
LINE
  5
319
  8
0
 62
     0
 10
77.899307696575107
 20
-0.0000001913518304
 30
0.0
 11
79.899307696575107
 21
1.999999808648226
 31
0.0
  0
LINE
  5
31A
  8
0
 62
     0
 10
108.0000003711005
 20
31.447730901333959
 30
0.0
 11
110.0000003711005
 21
33.447730901333962
 31
0.0
  0
LINE
  5
31B
  8
0
 62
     0
 10
129.55226927841471
 20
52.99999980864817
 30
0.0
 11
131.55226927841471
 21
54.99999980864817
 31
0.0
  0
LINE
  5
31C
  8
0
 62
     0
 10
76.552269278414769
 20
-0.0000001913517735
 30
0.0
 11
78.552269278414713
 21
1.999999808648169
 31
0.0
  0
LINE
  5
31D
  8
0
 62
     0
 10
108.0000003711005
 20
32.794769319494378
 30
0.0
 11
110.0000003711005
 21
34.794769319494321
 31
0.0
  0
LINE
  5
31E
  8
0
 62
     0
 10
128.20523086025429
 20
52.99999980864817
 30
0.0
 11
130.20523086025429
 21
54.999999808648226
 31
0.0
  0
LINE
  5
31F
  8
0
 62
     0
 10
75.205230860254346
 20
-0.0000001913518304
 30
0.0
 11
77.205230860254346
 21
1.999999808648169
 31
0.0
  0
LINE
  5
320
  8
0
 62
     0
 10
108.0000003711005
 20
34.141807737654752
 30
0.0
 11
110.0000003711005
 21
36.141807737654688
 31
0.0
  0
LINE
  5
321
  8
0
 62
     0
 10
126.85819244209399
 20
52.99999980864817
 30
0.0
 11
128.85819244209401
 21
54.99999980864817
 31
0.0
  0
LINE
  5
322
  8
0
 62
     0
 10
73.858192442093952
 20
-0.0000001913518304
 30
0.0
 11
75.858192442094008
 21
1.999999808648169
 31
0.0
  0
LINE
  5
323
  8
0
 62
     0
 10
108.0000003711005
 20
35.488846155815111
 30
0.0
 11
110.0000003711005
 21
37.488846155815111
 31
0.0
  0
LINE
  5
324
  8
0
 62
     0
 10
125.5111540239336
 20
52.999999808648219
 30
0.0
 11
127.5111540239336
 21
54.99999980864817
 31
0.0
  0
LINE
  5
325
  8
0
 62
     0
 10
72.511154023933614
 20
-0.0000001913518304
 30
0.0
 11
74.511154023933614
 21
1.999999808648169
 31
0.0
  0
LINE
  5
326
  8
0
 62
     0
 10
108.0000003711005
 20
36.83588457397542
 30
0.0
 11
110.0000003711006
 21
38.835884573975477
 31
0.0
  0
LINE
  5
327
  8
0
 62
     0
 10
124.1641156057732
 20
52.99999980864817
 30
0.0
 11
126.1641156057732
 21
54.99999980864817
 31
0.0
  0
LINE
  5
328
  8
0
 62
     0
 10
71.164115605773276
 20
-0.0000001913518304
 30
0.0
 11
73.164115605773276
 21
1.999999808648169
 31
0.0
  0
LINE
  5
329
  8
0
 62
     0
 10
108.0000003711005
 20
38.18292299213585
 30
0.0
 11
110.0000003711005
 21
40.182922992135843
 31
0.0
  0
LINE
  5
32A
  8
0
 62
     0
 10
122.8170771876129
 20
52.999999808648219
 30
0.0
 11
124.8170771876129
 21
54.99999980864817
 31
0.0
  0
LINE
  5
32B
  8
0
 62
     0
 10
69.817077187612881
 20
-0.0000001913518304
 30
0.0
 11
71.817077187612881
 21
1.999999808648226
 31
0.0
  0
LINE
  5
32C
  8
0
 62
     0
 10
108.0000003711005
 20
39.529961410296153
 30
0.0
 11
110.0000003711005
 21
41.529961410296153
 31
0.0
  0
LINE
  5
32D
  8
0
 62
     0
 10
121.4700387694525
 20
52.999999808648113
 30
0.0
 11
123.4700387694525
 21
54.999999808648113
 31
0.0
  0
LINE
  5
32E
  8
0
 62
     0
 10
68.470038769452543
 20
-0.0000001913518304
 30
0.0
 11
70.470038769452543
 21
1.999999808648169
 31
0.0
  0
LINE
  5
32F
  8
0
 62
     0
 10
108.0000003711005
 20
40.876999828456569
 30
0.0
 11
110.0000003711005
 21
42.876999828456583
 31
0.0
  0
LINE
  5
330
  8
0
 62
     0
 10
120.12300035129211
 20
52.99999980864817
 30
0.0
 11
122.12300035129211
 21
54.99999980864817
 31
0.0
  0
LINE
  5
331
  8
0
 62
     0
 10
67.123000351292148
 20
-0.0000001913517735
 30
0.0
 11
69.123000351292148
 21
1.999999808648169
 31
0.0
  0
LINE
  5
332
  8
0
 62
     0
 10
108.0000003711005
 20
42.224038246616892
 30
0.0
 11
110.0000003711005
 21
44.224038246616878
 31
0.0
  0
LINE
  5
333
  8
0
 62
     0
 10
118.7759619331317
 20
52.999999808648113
 30
0.0
 11
120.7759619331317
 21
54.999999808648113
 31
0.0
  0
LINE
  5
334
  8
0
 62
     0
 10
65.775961933131811
 20
-0.0000001913518304
 30
0.0
 11
67.775961933131811
 21
1.999999808648226
 31
0.0
  0
LINE
  5
335
  8
0
 62
     0
 10
108.0000003711005
 20
43.571076664777301
 30
0.0
 11
110.0000003711005
 21
45.571076664777308
 31
0.0
  0
LINE
  5
336
  8
0
 62
     0
 10
117.4289235149714
 20
52.99999980864817
 30
0.0
 11
119.4289235149714
 21
54.99999980864817
 31
0.0
  0
LINE
  5
337
  8
0
 62
     0
 10
64.428923514971416
 20
-0.0000001913518304
 30
0.0
 11
66.428923514971359
 21
1.999999808648169
 31
0.0
  0
LINE
  5
338
  8
0
 62
     0
 10
108.0000003711005
 20
44.918115082937732
 30
0.0
 11
110.0000003711005
 21
46.918115082937668
 31
0.0
  0
LINE
  5
339
  8
0
 62
     0
 10
116.08188509681101
 20
52.99999980864817
 30
0.0
 11
118.08188509681101
 21
54.999999808648226
 31
0.0
  0
LINE
  5
33A
  8
0
 62
     0
 10
63.081885096810993
 20
-0.0000001913518304
 30
0.0
 11
65.081885096810993
 21
1.999999808648169
 31
0.0
  0
LINE
  5
33B
  8
0
 62
     0
 10
108.0000003711005
 20
46.265153501098091
 30
0.0
 11
110.0000003711005
 21
48.265153501098041
 31
0.0
  0
LINE
  5
33C
  8
0
 62
     0
 10
114.7348466786506
 20
52.99999980864817
 30
0.0
 11
116.7348466786506
 21
54.99999980864817
 31
0.0
  0
LINE
  5
33D
  8
0
 62
     0
 10
61.734846678650648
 20
-0.0000001913518304
 30
0.0
 11
63.734846678650648
 21
1.999999808648169
 31
0.0
  0
LINE
  5
33E
  8
0
 62
     0
 10
108.0000003711005
 20
47.612191919258457
 30
0.0
 11
110.0000003711005
 21
49.612191919258457
 31
0.0
  0
LINE
  5
33F
  8
0
 62
     0
 10
113.3878082604902
 20
52.999999808648219
 30
0.0
 11
115.3878082604902
 21
54.99999980864817
 31
0.0
  0
LINE
  5
340
  8
0
 62
     0
 10
60.38780826049026
 20
-0.0000001913518304
 30
0.0
 11
62.38780826049026
 21
1.999999808648226
 31
0.0
  0
LINE
  5
341
  8
0
 62
     0
 10
108.0000003711005
 20
48.959230337418767
 30
0.0
 11
110.0000003711005
 21
50.95923033741883
 31
0.0
  0
LINE
  5
342
  8
0
 62
     0
 10
112.04076984232989
 20
52.99999980864817
 30
0.0
 11
114.04076984232989
 21
54.99999980864817
 31
0.0
  0
LINE
  5
343
  8
0
 62
     0
 10
59.040769842329922
 20
-0.0000001913518304
 30
0.0
 11
61.040769842329922
 21
1.999999808648169
 31
0.0
  0
LINE
  5
344
  8
0
 62
     0
 10
108.0000003711005
 20
50.306268755579197
 30
0.0
 11
110.0000003711005
 21
52.306268755579197
 31
0.0
  0
LINE
  5
345
  8
0
 62
     0
 10
110.6937314241694
 20
52.999999808648113
 30
0.0
 11
112.6937314241695
 21
54.99999980864817
 31
0.0
  0
LINE
  5
346
  8
0
 62
     0
 10
57.69373142416952
 20
-0.0000001913518304
 30
0.0
 11
59.69373142416952
 21
1.999999808648226
 31
0.0
  0
LINE
  5
347
  8
0
 62
     0
 10
108.0000003711005
 20
51.653307173739513
 30
0.0
 11
111.3466930060092
 21
54.99999980864817
 31
0.0
  0
LINE
  5
348
  8
0
 62
     0
 10
56.346693006009183
 20
-0.0000001913518304
 30
0.0
 11
58.34669300600919
 21
1.999999808648169
 31
0.0
  0
LINE
  5
349
  8
0
 62
     0
 10
108.0000003711005
 20
53.000345591899872
 30
0.0
 11
110.0000003711005
 21
55.000345591899929
 31
0.0
  0
LINE
  5
34A
  8
0
 62
     0
 10
54.999654587848788
 20
-0.0000001913517735
 30
0.0
 11
56.999654587848852
 21
1.999999808648226
 31
0.0
  0
LINE
  5
34B
  8
0
 62
     0
 10
108.0000003711005
 20
54.347384010060289
 30
0.0
 11
110.0000003711005
 21
56.347384010060289
 31
0.0
  0
LINE
  5
34C
  8
0
 62
     0
 10
53.652616169688372
 20
-0.0000001913517735
 30
0.0
 11
55.652616169688429
 21
1.999999808648226
 31
0.0
  0
LINE
  5
34D
  8
0
 62
     0
 10
108.0000003711005
 20
55.694422428220662
 30
0.0
 11
110.0000003711005
 21
57.694422428220662
 31
0.0
  0
LINE
  5
34E
  8
0
 62
     0
 10
52.305577751528062
 20
-0.0000001913518304
 30
0.0
 11
54.305577751528062
 21
1.999999808648169
 31
0.0
  0
LINE
  5
34F
  8
0
 62
     0
 10
108.0000003711005
 20
57.041460846381028
 30
0.0
 11
110.0000003711005
 21
59.041460846381078
 31
0.0
  0
LINE
  5
350
  8
0
 62
     0
 10
50.958539333367689
 20
-0.0000001913517735
 30
0.0
 11
52.958539333367639
 21
1.999999808648169
 31
0.0
  0
LINE
  5
351
  8
0
 62
     0
 10
108.0000003711005
 20
58.388499264541387
 30
0.0
 11
110.0000003711005
 21
60.388499264541387
 31
0.0
  0
LINE
  5
352
  8
0
 62
     0
 10
49.611500915207301
 20
-0.000000191351802
 30
0.0
 11
51.611500915207301
 21
1.999999808648169
 31
0.0
  0
LINE
  5
353
  8
0
 62
     0
 10
108.0000003711005
 20
59.735537682701818
 30
0.0
 11
110.0000003711005
 21
61.735537682701761
 31
0.0
  0
LINE
  5
354
  8
0
 62
     0
 10
48.264462497046907
 20
-0.000000191351802
 30
0.0
 11
50.2644624970469
 21
1.999999808648226
 31
0.0
  0
LINE
  5
355
  8
0
 62
     0
 10
108.0000003711005
 20
61.082576100862163
 30
0.0
 11
110.0000003711005
 21
63.082576100862212
 31
0.0
  0
LINE
  5
356
  8
0
 62
     0
 10
46.91742407888654
 20
-0.000000191351802
 30
0.0
 11
48.917424078886562
 21
1.999999808648198
 31
0.0
  0
LINE
  5
357
  8
0
 62
     0
 10
108.0000003711005
 20
62.42961451902255
 30
0.0
 11
110.0000003711005
 21
64.42961451902255
 31
0.0
  0
LINE
  5
358
  8
0
 62
     0
 10
45.570385660726203
 20
-0.000000191351802
 30
0.0
 11
47.570385660726203
 21
1.999999808648226
 31
0.0
  0
LINE
  5
359
  8
0
 62
     0
 10
108.0000003711005
 20
63.776652937182888
 30
0.0
 11
110.0000003711005
 21
65.776652937182888
 31
0.0
  0
LINE
  5
35A
  8
0
 62
     0
 10
44.223347242565829
 20
-0.000000191351802
 30
0.0
 11
46.223347242565829
 21
1.999999808648226
 31
0.0
  0
LINE
  5
35B
  8
0
 62
     0
 10
108.0000003711005
 20
65.123691355343226
 30
0.0
 11
110.0000003711005
 21
67.123691355343283
 31
0.0
  0
LINE
  5
35C
  8
0
 62
     0
 10
42.87630882440547
 20
-0.0000001913517735
 30
0.0
 11
44.876308824405498
 21
1.999999808648226
 31
0.0
  0
LINE
  5
35D
  8
0
 62
     0
 10
108.0000003711005
 20
66.470729773503621
 30
0.0
 11
110.0000003711005
 21
68.470729773503621
 31
0.0
  0
LINE
  5
35E
  8
0
 62
     0
 10
41.52927040624504
 20
-0.0000001913518304
 30
0.0
 11
43.52927040624504
 21
1.999999808648198
 31
0.0
  0
LINE
  5
35F
  8
0
 62
     0
 10
108.0000003711005
 20
67.817768191664015
 30
0.0
 11
110.0000003711005
 21
69.817768191663959
 31
0.0
  0
LINE
  5
360
  8
0
 62
     0
 10
40.182231988084702
 20
-0.000000191351802
 30
0.0
 11
42.182231988084681
 21
1.999999808648169
 31
0.0
  0
LINE
  5
361
  8
0
 62
     0
 10
108.0000003711005
 20
69.164806609824382
 30
0.0
 11
110.0000003711005
 21
71.164806609824439
 31
0.0
  0
LINE
  5
362
  8
0
 62
     0
 10
38.835193569924293
 20
-0.0000001913518304
 30
0.0
 11
40.835193569924343
 21
1.999999808648226
 31
0.0
  0
LINE
  5
363
  8
0
 62
     0
 10
108.0000003711005
 20
70.511845027984734
 30
0.0
 11
110.0000003711006
 21
72.511845027984805
 31
0.0
  0
LINE
  5
364
  8
0
 62
     0
 10
37.48815515176392
 20
-0.0000001913518304
 30
0.0
 11
39.488155151763948
 21
1.999999808648169
 31
0.0
  0
LINE
  5
365
  8
0
 62
     0
 10
108.0000003711005
 20
71.858883446145171
 30
0.0
 11
110.0000003711005
 21
73.858883446145114
 31
0.0
  0
LINE
  5
366
  8
0
 62
     0
 10
36.141116733603553
 20
-0.000000191351802
 30
0.0
 11
38.141116733603582
 21
1.999999808648198
 31
0.0
  0
LINE
  5
367
  8
0
 62
     0
 10
108.0000003711005
 20
73.205921864305509
 30
0.0
 11
110.0000003711005
 21
75.205921864305509
 31
0.0
  0
LINE
  5
368
  8
0
 62
     0
 10
34.794078315443187
 20
-0.000000191351802
 30
0.0
 11
36.794078315443222
 21
1.999999808648226
 31
0.0
  0
LINE
  5
369
  8
0
 62
     0
 10
108.0000003711005
 20
74.552960282465904
 30
0.0
 11
110.0000003711005
 21
76.552960282465904
 31
0.0
  0
LINE
  5
36A
  8
0
 62
     0
 10
33.447039897282849
 20
-0.000000191351802
 30
0.0
 11
35.447039897282849
 21
1.999999808648226
 31
0.0
  0
LINE
  5
36B
  8
0
 62
     0
 10
108.0000003711005
 20
75.899998700626242
 30
0.0
 11
109.8932314686347
 21
77.793229798160411
 31
0.0
  0
LINE
  5
36C
  8
0
 62
     0
 10
32.206770381588314
 20
0.1067687111140572
 30
0.0
 11
34.100001479122483
 21
1.999999808648226
 31
0.0
  0
LINE
  5
36D
  8
0
 62
     0
 10
107.9750314607636
 20
77.222068208449741
 30
0.0
 11
109.4641267521711
 21
78.711163499857207
 31
0.0
  0
LINE
  5
36E
  8
0
 62
     0
 10
31.288836679891521
 20
0.5358734275776272
 30
0.0
 11
32.77793197129899
 21
2.0249687189850931
 31
0.0
  0
LINE
  5
36F
  8
0
 62
     0
 10
107.3446544168748
 20
77.938729582721322
 30
0.0
 11
108.80338353790211
 21
79.397458703748697
 31
0.0
  0
LINE
  5
370
  8
0
 62
     0
 10
30.602541476000031
 20
1.196616641846532
 30
0.0
 11
32.061270597027367
 21
2.6553457628738779
 31
0.0
  0
LINE
  5
371
  8
0
 62
     0
 10
106.0588862246413
 20
77.99999980864817
 30
0.0
 11
107.9157144786941
 21
79.85682806270097
 31
0.0
  0
LINE
  5
372
  8
0
 62
     0
 10
30.143172117047779
 20
2.0842857010545961
 30
0.0
 11
32.000000371100562
 21
3.9411139551073968
 31
0.0
  0
LINE
  5
373
  8
0
 62
     0
 10
104.7118478064809
 20
77.99999980864817
 30
0.0
 11
106.7118478064809
 21
79.99999980864817
 31
0.0
  0
LINE
  5
374
  8
0
 62
     0
 10
30.000000371100551
 20
3.2881523732677911
 30
0.0
 11
32.000000371100562
 21
5.2881523732678204
 31
0.0
  0
LINE
  5
375
  8
0
 62
     0
 10
103.3648093883205
 20
77.99999980864817
 30
0.0
 11
105.36480938832059
 21
79.99999980864817
 31
0.0
  0
LINE
  5
376
  8
0
 62
     0
 10
30.000000371100551
 20
4.635190791428129
 30
0.0
 11
32.000000371100562
 21
6.6351907914281583
 31
0.0
  0
LINE
  5
377
  8
0
 62
     0
 10
102.0177709701602
 20
77.99999980864817
 30
0.0
 11
104.0177709701602
 21
79.99999980864817
 31
0.0
  0
LINE
  5
378
  8
0
 62
     0
 10
30.00000037110053
 20
5.9822292095885237
 30
0.0
 11
32.000000371100562
 21
7.9822292095885521
 31
0.0
  0
LINE
  5
379
  8
0
 62
     0
 10
100.67073255199981
 20
77.999999808648198
 30
0.0
 11
102.67073255199981
 21
79.999999808648198
 31
0.0
  0
LINE
  5
37A
  8
0
 62
     0
 10
30.00000037110053
 20
7.32926762774889
 30
0.0
 11
32.000000371100562
 21
9.3292676277488908
 31
0.0
  0
LINE
  5
37B
  8
0
 62
     0
 10
99.323694133839467
 20
77.99999980864817
 30
0.0
 11
101.3236941338394
 21
79.99999980864817
 31
0.0
  0
LINE
  5
37C
  8
0
 62
     0
 10
30.00000037110053
 20
8.6763060459092571
 30
0.0
 11
32.000000371100562
 21
10.676306045909261
 31
0.0
  0
LINE
  5
37D
  8
0
 62
     0
 10
97.976655715679129
 20
77.999999808648198
 30
0.0
 11
99.976655715679073
 21
79.999999808648141
 31
0.0
  0
LINE
  5
37E
  8
0
 62
     0
 10
30.00000037110053
 20
10.02334446406959
 30
0.0
 11
32.000000371100533
 21
12.02334446406962
 31
0.0
  0
LINE
  5
37F
  8
0
 62
     0
 10
96.629617297518735
 20
77.99999980864817
 30
0.0
 11
98.629617297518678
 21
79.999999808648113
 31
0.0
  0
LINE
  5
380
  8
0
 62
     0
 10
30.000000371100551
 20
11.37038288223002
 30
0.0
 11
32.000000371100533
 21
13.37038288222999
 31
0.0
  0
LINE
  5
381
  8
0
 62
     0
 10
95.282578879358311
 20
77.999999808648198
 30
0.0
 11
97.282578879358326
 21
79.999999808648141
 31
0.0
  0
LINE
  5
382
  8
0
 62
     0
 10
30.000000371100551
 20
12.717421300390409
 30
0.0
 11
32.000000371100533
 21
14.717421300390381
 31
0.0
  0
LINE
  5
383
  8
0
 62
     0
 10
93.935540461198016
 20
77.99999980864817
 30
0.0
 11
95.935540461198002
 21
79.99999980864817
 31
0.0
  0
LINE
  5
384
  8
0
 62
     0
 10
30.00000037110059
 20
14.064459718550779
 30
0.0
 11
32.000000371100562
 21
16.064459718550751
 31
0.0
  0
LINE
  5
385
  8
0
 62
     0
 10
92.588502043037579
 20
77.99999980864817
 30
0.0
 11
94.588502043037565
 21
79.99999980864817
 31
0.0
  0
LINE
  5
386
  8
0
 62
     0
 10
30.000000371100551
 20
15.41149813671114
 30
0.0
 11
32.000000371100562
 21
17.41149813671117
 31
0.0
  0
LINE
  5
387
  8
0
 62
     0
 10
91.241463624877241
 20
77.999999808648198
 30
0.0
 11
93.241463624877241
 21
79.999999808648198
 31
0.0
  0
LINE
  5
388
  8
0
 62
     0
 10
30.00000037110053
 20
16.758536554871512
 30
0.0
 11
32.000000371100562
 21
18.75853655487154
 31
0.0
  0
LINE
  5
389
  8
0
 62
     0
 10
89.894425206716846
 20
77.99999980864817
 30
0.0
 11
91.894425206716846
 21
79.999999808648226
 31
0.0
  0
LINE
  5
38A
  8
0
 62
     0
 10
30.00000037110053
 20
18.105574973031882
 30
0.0
 11
32.000000371100562
 21
20.105574973031882
 31
0.0
  0
LINE
  5
38B
  8
0
 62
     0
 10
88.547386788556508
 20
77.999999808648198
 30
0.0
 11
90.547386788556508
 21
79.999999808648198
 31
0.0
  0
LINE
  5
38C
  8
0
 62
     0
 10
30.00000037110053
 20
19.452613391192241
 30
0.0
 11
32.000000371100533
 21
21.452613391192269
 31
0.0
  0
LINE
  5
38D
  8
0
 62
     0
 10
87.200348370396114
 20
77.99999980864817
 30
0.0
 11
89.200348370396057
 21
79.999999808648113
 31
0.0
  0
LINE
  5
38E
  8
0
 62
     0
 10
30.00000037110053
 20
20.799651809352579
 30
0.0
 11
32.000000371100562
 21
22.799651809352611
 31
0.0
  0
LINE
  5
38F
  8
0
 62
     0
 10
85.853309952235776
 20
77.999999808648198
 30
0.0
 11
87.853309952235776
 21
79.999999808648198
 31
0.0
  0
LINE
  5
390
  8
0
 62
     0
 10
30.00000037110053
 20
22.146690227512948
 30
0.0
 11
32.000000371100533
 21
24.146690227512948
 31
0.0
  0
LINE
  5
391
  8
0
 62
     0
 10
84.506271534075381
 20
77.99999980864817
 30
0.0
 11
86.506271534075324
 21
79.99999980864817
 31
0.0
  0
LINE
  5
392
  8
0
 62
     0
 10
30.000000371100551
 20
23.49372864567334
 30
0.0
 11
32.000000371100562
 21
25.49372864567335
 31
0.0
  0
LINE
  5
393
  8
0
 62
     0
 10
83.159233115914944
 20
77.999999808648198
 30
0.0
 11
85.159233115914958
 21
79.999999808648141
 31
0.0
  0
LINE
  5
394
  8
0
 62
     0
 10
30.000000371100551
 20
24.840767063833741
 30
0.0
 11
32.000000371100562
 21
26.840767063833741
 31
0.0
  0
LINE
  5
395
  8
0
 62
     0
 10
81.812194697754606
 20
77.99999980864817
 30
0.0
 11
83.81219469775462
 21
79.99999980864817
 31
0.0
  0
LINE
  5
396
  8
0
 62
     0
 10
28.81219469775462
 20
24.99999980864823
 30
0.0
 11
32.000000371100583
 21
28.187805481994129
 31
0.0
  0
LINE
  5
397
  8
0
 62
     0
 10
30.000000371100551
 20
27.534843900154499
 30
0.0
 11
32.000000371100562
 21
29.534843900154499
 31
0.0
  0
LINE
  5
398
  8
0
 62
     0
 10
80.465156279594225
 20
77.99999980864817
 30
0.0
 11
82.465156279594225
 21
79.99999980864817
 31
0.0
  0
LINE
  5
399
  8
0
 62
     0
 10
27.465156279594279
 20
24.99999980864823
 30
0.0
 11
29.465156279594229
 21
26.99999980864823
 31
0.0
  0
LINE
  5
39A
  8
0
 62
     0
 10
30.00000037110053
 20
28.88188231831484
 30
0.0
 11
32.000000371100533
 21
30.881882318314901
 31
0.0
  0
LINE
  5
39B
  8
0
 62
     0
 10
79.118117861433873
 20
77.999999808648198
 30
0.0
 11
81.118117861433888
 21
79.999999808648198
 31
0.0
  0
LINE
  5
39C
  8
0
 62
     0
 10
26.118117861433891
 20
24.999999808648258
 30
0.0
 11
28.118117861433891
 21
26.999999808648202
 31
0.0
  0
LINE
  5
39D
  8
0
 62
     0
 10
30.000000371100551
 20
30.228920736475231
 30
0.0
 11
32.000000371100562
 21
32.228920736475231
 31
0.0
  0
LINE
  5
39E
  8
0
 62
     0
 10
77.771079443273493
 20
77.99999980864817
 30
0.0
 11
79.771079443273493
 21
79.999999808648226
 31
0.0
  0
LINE
  5
39F
  8
0
 62
     0
 10
24.771079443273521
 20
24.999999808648202
 30
0.0
 11
26.77107944327355
 21
26.99999980864823
 31
0.0
  0
LINE
  5
3A0
  8
0
 62
     0
 10
30.00000037110053
 20
31.575959154635569
 30
0.0
 11
32.000000371100533
 21
33.575959154635633
 31
0.0
  0
LINE
  5
3A1
  8
0
 62
     0
 10
76.424041025113155
 20
77.999999808648198
 30
0.0
 11
78.424041025113155
 21
79.999999808648198
 31
0.0
  0
LINE
  5
3A2
  8
0
 62
     0
 10
23.42404102511313
 20
24.99999980864817
 30
0.0
 11
25.424041025113159
 21
26.999999808648258
 31
0.0
  0
LINE
  5
3A3
  8
0
 62
     0
 10
30.000000371100501
 20
32.922997572795971
 30
0.0
 11
32.000000371100562
 21
34.922997572795957
 31
0.0
  0
LINE
  5
3A4
  8
0
 62
     0
 10
75.07700260695276
 20
77.999999808648226
 30
0.0
 11
77.077002606952817
 21
79.999999808648226
 31
0.0
  0
LINE
  5
3A5
  8
0
 62
     0
 10
22.07700260695276
 20
24.99999980864817
 30
0.0
 11
24.07700260695276
 21
26.99999980864817
 31
0.0
  0
LINE
  5
3A6
  8
0
 62
     0
 10
30.00000037110053
 20
34.270035990956359
 30
0.0
 11
32.000000371100533
 21
36.270035990956302
 31
0.0
  0
LINE
  5
3A7
  8
0
 62
     0
 10
73.729964188792422
 20
77.999999808648198
 30
0.0
 11
75.729964188792422
 21
79.999999808648198
 31
0.0
  0
LINE
  5
3A8
  8
0
 62
     0
 10
20.729964188792401
 20
24.999999808648202
 30
0.0
 11
22.729964188792419
 21
26.999999808648202
 31
0.0
  0
LINE
  5
3A9
  8
0
 62
     0
 10
30.000000371100612
 20
35.617074409116753
 30
0.0
 11
32.000000371100562
 21
37.617074409116697
 31
0.0
  0
LINE
  5
3AA
  8
0
 62
     0
 10
72.382925770632085
 20
77.999999808648226
 30
0.0
 11
74.382925770632085
 21
79.999999808648226
 31
0.0
  0
LINE
  5
3AB
  8
0
 62
     0
 10
19.382925770632031
 20
24.999999808648202
 30
0.0
 11
21.382925770632049
 21
26.999999808648202
 31
0.0
  0
LINE
  5
3AC
  8
0
 62
     0
 10
30.000000371100551
 20
36.964112827277091
 30
0.0
 11
32.000000371100562
 21
38.964112827277091
 31
0.0
  0
LINE
  5
3AD
  8
0
 62
     0
 10
71.035887352471661
 20
77.999999808648198
 30
0.0
 11
73.035887352471718
 21
79.999999808648255
 31
0.0
  0
LINE
  5
3AE
  8
0
 62
     0
 10
18.035887352471629
 20
24.999999808648202
 30
0.0
 11
20.035887352471661
 21
26.99999980864823
 31
0.0
  0
LINE
  5
3AF
  8
0
 62
     0
 10
30.00000037110053
 20
38.311151245437493
 30
0.0
 11
32.000000371100583
 21
40.311151245437479
 31
0.0
  0
LINE
  5
3B0
  8
0
 62
     0
 10
69.688848934311267
 20
77.99999980864817
 30
0.0
 11
71.688848934311267
 21
79.999999808648226
 31
0.0
  0
LINE
  5
3B1
  8
0
 62
     0
 10
16.688848934311292
 20
24.999999808648202
 30
0.0
 11
18.688848934311292
 21
26.99999980864823
 31
0.0
  0
LINE
  5
3B2
  8
0
 62
     0
 10
30.000000371100551
 20
39.658189663597852
 30
0.0
 11
32.000000371100562
 21
41.658189663597852
 31
0.0
  0
LINE
  5
3B3
  8
0
 62
     0
 10
68.341810516150929
 20
77.999999808648226
 30
0.0
 11
70.341810516150915
 21
79.999999808648226
 31
0.0
  0
LINE
  5
3B4
  8
0
 62
     0
 10
15.341810516150931
 20
24.99999980864823
 30
0.0
 11
17.3418105161509
 21
26.99999980864823
 31
0.0
  0
LINE
  5
3B5
  8
0
 62
     0
 10
30.00000037110053
 20
41.00522808175819
 30
0.0
 11
32.000000371100533
 21
43.00522808175824
 31
0.0
  0
LINE
  5
3B6
  8
0
 62
     0
 10
66.994772097990534
 20
77.999999808648255
 30
0.0
 11
68.994772097990534
 21
79.999999808648198
 31
0.0
  0
LINE
  5
3B7
  8
0
 62
     0
 10
13.994772097990531
 20
24.999999808648202
 30
0.0
 11
15.994772097990531
 21
26.99999980864823
 31
0.0
  0
LINE
  5
3B8
  8
0
 62
     0
 10
30.000000371100501
 20
42.352266499918578
 30
0.0
 11
32.000000371100562
 21
44.352266499918578
 31
0.0
  0
LINE
  5
3B9
  8
0
 62
     0
 10
65.647733679830139
 20
77.99999980864817
 30
0.0
 11
67.647733679830196
 21
79.999999808648226
 31
0.0
  0
LINE
  5
3BA
  8
0
 62
     0
 10
12.64773367983017
 20
24.99999980864823
 30
0.0
 11
14.64773367983017
 21
26.99999980864823
 31
0.0
  0
LINE
  5
3BB
  8
0
 62
     0
 10
30.00000037110053
 20
43.699304918078923
 30
0.0
 11
32.000000371100533
 21
45.699304918078923
 31
0.0
  0
LINE
  5
3BC
  8
0
 62
     0
 10
64.300695261669802
 20
77.999999808648198
 30
0.0
 11
66.300695261669802
 21
79.999999808648198
 31
0.0
  0
LINE
  5
3BD
  8
0
 62
     0
 10
11.30069526166977
 20
24.99999980864817
 30
0.0
 11
13.30069526166977
 21
26.999999808648202
 31
0.0
  0
LINE
  5
3BE
  8
0
 62
     0
 10
30.000000371100501
 20
45.046343336239318
 30
0.0
 11
32.000000371100562
 21
47.04634333623931
 31
0.0
  0
LINE
  5
3BF
  8
0
 62
     0
 10
62.9536568435094
 20
77.999999808648226
 30
0.0
 11
64.953656843509464
 21
79.999999808648226
 31
0.0
  0
LINE
  5
3C0
  8
0
 62
     0
 10
9.9536568435094068
 20
24.999999808648202
 30
0.0
 11
11.95365684350943
 21
26.999999808648202
 31
0.0
  0
LINE
  5
3C1
  8
0
 62
     0
 10
30.00000037110053
 20
46.393381754399712
 30
0.0
 11
32.000000371100533
 21
48.393381754399662
 31
0.0
  0
LINE
  5
3C2
  8
0
 62
     0
 10
61.606618425349062
 20
77.999999808648198
 30
0.0
 11
63.606618425349069
 21
79.999999808648255
 31
0.0
  0
LINE
  5
3C3
  8
0
 62
     0
 10
8.6066184253490405
 20
24.999999808648202
 30
0.0
 11
10.606618425349071
 21
26.999999808648202
 31
0.0
  0
LINE
  5
3C4
  8
0
 62
     0
 10
30.000000371100551
 20
47.7404201725601
 30
0.0
 11
32.000000371100562
 21
49.74042017256005
 31
0.0
  0
LINE
  5
3C5
  8
0
 62
     0
 10
60.259580007188731
 20
77.999999808648226
 30
0.0
 11
62.259580007188667
 21
79.99999980864817
 31
0.0
  0
LINE
  5
3C6
  8
0
 62
     0
 10
7.2595800071886742
 20
24.999999808648202
 30
0.0
 11
9.2595800071887027
 21
26.99999980864823
 31
0.0
  0
LINE
  5
3C7
  8
0
 62
     0
 10
30.000000371100551
 20
49.087458590720452
 30
0.0
 11
32.000000371100498
 21
51.087458590720438
 31
0.0
  0
LINE
  5
3C8
  8
0
 62
     0
 10
58.912541589028308
 20
77.999999808648198
 30
0.0
 11
60.912541589028358
 21
79.999999808648255
 31
0.0
  0
LINE
  5
3C9
  8
0
 62
     0
 10
5.9125415890283071
 20
24.999999808648202
 30
0.0
 11
7.9125415890283071
 21
26.99999980864823
 31
0.0
  0
LINE
  5
3CA
  8
0
 62
     0
 10
30.00000037110053
 20
50.434497008880861
 30
0.0
 11
32.000000371100583
 21
52.434497008880868
 31
0.0
  0
LINE
  5
3CB
  8
0
 62
     0
 10
57.565503170867913
 20
77.999999808648198
 30
0.0
 11
59.56550317086797
 21
79.999999808648255
 31
0.0
  0
LINE
  5
3CC
  8
0
 62
     0
 10
4.5655031708679408
 20
24.99999980864823
 30
0.0
 11
6.5655031708679132
 21
26.99999980864823
 31
0.0
  0
LINE
  5
3CD
  8
0
 62
     0
 10
30.000000371100551
 20
51.781535427041199
 30
0.0
 11
32.000000371100562
 21
53.781535427041199
 31
0.0
  0
LINE
  5
3CE
  8
0
 62
     0
 10
56.218464752707568
 20
77.999999808648226
 30
0.0
 11
58.218464752707519
 21
79.999999808648226
 31
0.0
  0
LINE
  5
3CF
  8
0
 62
     0
 10
3.2184647527075461
 20
24.999999808648202
 30
0.0
 11
5.2184647527075461
 21
26.99999980864823
 31
0.0
  0
LINE
  5
3D0
  8
0
 62
     0
 10
29.871426334547181
 20
52.999999808648248
 30
0.0
 11
32.000000371100533
 21
55.128573845201601
 31
0.0
  0
LINE
  5
3D1
  8
0
 62
     0
 10
54.871426334547181
 20
77.999999808648198
 30
0.0
 11
56.871426334547181
 21
79.999999808648198
 31
0.0
  0
LINE
  5
3D2
  8
0
 62
     0
 10
1.87142633454718
 20
24.999999808648202
 30
0.0
 11
3.8714263345471802
 21
26.99999980864823
 31
0.0
  0
LINE
  5
3D3
  8
0
 62
     0
 10
28.524387916386839
 20
52.999999808648219
 30
0.0
 11
32.000000371100562
 21
56.475612263361931
 31
0.0
  0
LINE
  5
3D4
  8
0
 62
     0
 10
53.524387916386793
 20
77.999999808648226
 30
0.0
 11
55.524387916386843
 21
79.999999808648226
 31
0.0
  0
LINE
  5
3D5
  8
0
 62
     0
 10
0.524387916386786
 20
24.99999980864817
 30
0.0
 11
2.5243879163867851
 21
26.999999808648202
 31
0.0
  0
LINE
  5
3D6
  8
0
 62
     0
 10
30.00000037110053
 20
55.822650681522283
 30
0.0
 11
32.000000371100533
 21
57.822650681522269
 31
0.0
  0
LINE
  5
3D7
  8
0
 62
     0
 10
27.177349498226508
 20
52.999999808648248
 30
0.0
 11
29.177349498226452
 21
54.999999808648198
 31
0.0
  0
LINE
  5
3D8
  8
0
 62
     0
 10
52.177349498226448
 20
77.999999808648198
 30
0.0
 11
54.177349498226441
 21
79.999999808648198
 31
0.0
  0
LINE
  5
3D9
  8
0
 62
     0
 10
0.0000003711005263
 20
25.82265068152228
 30
0.0
 11
1.177349498226419
 21
26.999999808648202
 31
0.0
  0
LINE
  5
3DA
  8
0
 62
     0
 10
30.000000371100551
 20
57.169689099682671
 30
0.0
 11
32.000000371100498
 21
59.169689099682671
 31
0.0
  0
LINE
  5
3DB
  8
0
 62
     0
 10
50.83031108006611
 20
77.999999808648226
 30
0.0
 11
52.83031108006611
 21
79.999999808648226
 31
0.0
  0
LINE
  5
3DC
  8
0
 62
     0
 10
25.83031108006611
 20
52.999999808648219
 30
0.0
 11
27.83031108006611
 21
54.999999808648226
 31
0.0
  0
LINE
  5
3DD
  8
0
 62
     0
 10
30.00000037110053
 20
58.516727517843059
 30
0.0
 11
32.000000371100583
 21
60.516727517843059
 31
0.0
  0
LINE
  5
3DE
  8
0
 62
     0
 10
49.483272661905708
 20
77.999999808648198
 30
0.0
 11
51.483272661905708
 21
79.999999808648255
 31
0.0
  0
LINE
  5
3DF
  8
0
 62
     0
 10
24.483272661905719
 20
52.999999808648198
 30
0.0
 11
26.483272661905719
 21
54.999999808648248
 31
0.0
  0
LINE
  5
3E0
  8
0
 62
     0
 10
30.000000371100551
 20
59.863765936003396
 30
0.0
 11
32.000000371100562
 21
61.863765936003396
 31
0.0
  0
LINE
  5
3E1
  8
0
 62
     0
 10
48.136234243745371
 20
77.999999808648226
 30
0.0
 11
50.136234243745378
 21
79.999999808648226
 31
0.0
  0
LINE
  5
3E2
  8
0
 62
     0
 10
23.136234243745321
 20
52.99999980864817
 30
0.0
 11
25.136234243745321
 21
54.999999808648226
 31
0.0
  0
LINE
  5
3E3
  8
0
 62
     0
 10
30.000000371100551
 20
61.210804354163827
 30
0.0
 11
32.000000371100498
 21
63.210804354163827
 31
0.0
  0
LINE
  5
3E4
  8
0
 62
     0
 10
46.789195825584947
 20
77.999999808648226
 30
0.0
 11
48.789195825585011
 21
79.999999808648283
 31
0.0
  0
LINE
  5
3E5
  8
0
 62
     0
 10
21.789195825584962
 20
52.999999808648219
 30
0.0
 11
23.789195825584951
 21
54.999999808648226
 31
0.0
  0
LINE
  5
3E6
  8
0
 62
     0
 10
30.00000037110053
 20
62.557842772324157
 30
0.0
 11
32.000000371100533
 21
64.557842772324221
 31
0.0
  0
LINE
  5
3E7
  8
0
 62
     0
 10
45.44215740742456
 20
77.999999808648198
 30
0.0
 11
47.44215740742456
 21
79.999999808648198
 31
0.0
  0
LINE
  5
3E8
  8
0
 62
     0
 10
20.44215740742456
 20
52.999999808648248
 30
0.0
 11
22.44215740742462
 21
54.999999808648248
 31
0.0
  0
LINE
  5
3E9
  8
0
 62
     0
 10
30.000000371100551
 20
63.904881190484552
 30
0.0
 11
32.000000371100562
 21
65.904881190484559
 31
0.0
  0
LINE
  5
3EA
  8
0
 62
     0
 10
44.095118989264222
 20
77.999999808648226
 30
0.0
 11
46.095118989264158
 21
79.999999808648226
 31
0.0
  0
LINE
  5
3EB
  8
0
 62
     0
 10
19.095118989264218
 20
52.999999808648219
 30
0.0
 11
21.095118989264218
 21
54.999999808648226
 31
0.0
  0
LINE
  5
3EC
  8
0
 62
     0
 10
30.00000037110053
 20
65.251919608644883
 30
0.0
 11
32.000000371100533
 21
67.251919608644883
 31
0.0
  0
LINE
  5
3ED
  8
0
 62
     0
 10
42.748080571103827
 20
77.999999808648198
 30
0.0
 11
44.74808057110382
 21
79.999999808648198
 31
0.0
  0
LINE
  5
3EE
  8
0
 62
     0
 10
17.748080571103831
 20
52.999999808648248
 30
0.0
 11
19.74808057110388
 21
54.999999808648248
 31
0.0
  0
LINE
  5
3EF
  8
0
 62
     0
 10
30.000000371100501
 20
66.598958026805292
 30
0.0
 11
32.000000371100562
 21
68.598958026805292
 31
0.0
  0
LINE
  5
3F0
  8
0
 62
     0
 10
41.401042152943432
 20
77.999999808648226
 30
0.0
 11
43.401042152943482
 21
79.999999808648226
 31
0.0
  0
LINE
  5
3F1
  8
0
 62
     0
 10
16.401042152943489
 20
52.999999808648219
 30
0.0
 11
18.401042152943489
 21
54.999999808648283
 31
0.0
  0
LINE
  5
3F2
  8
0
 62
     0
 10
30.00000037110053
 20
67.945996444965687
 30
0.0
 11
32.000000371100533
 21
69.94599644496563
 31
0.0
  0
LINE
  5
3F3
  8
0
 62
     0
 10
40.054003734783088
 20
77.999999808648198
 30
0.0
 11
42.054003734783088
 21
79.999999808648255
 31
0.0
  0
LINE
  5
3F4
  8
0
 62
     0
 10
15.05400373478315
 20
52.999999808648248
 30
0.0
 11
17.054003734783091
 21
54.999999808648248
 31
0.0
  0
LINE
  5
3F5
  8
0
 62
     0
 10
30.000000371100551
 20
69.293034863126024
 30
0.0
 11
32.000000371100498
 21
71.293034863126024
 31
0.0
  0
LINE
  5
3F6
  8
0
 62
     0
 10
38.706965316622757
 20
77.999999808648226
 30
0.0
 11
40.70696531662275
 21
79.999999808648226
 31
0.0
  0
LINE
  5
3F7
  8
0
 62
     0
 10
13.70696531662275
 20
52.999999808648219
 30
0.0
 11
15.70696531662276
 21
54.999999808648226
 31
0.0
  0
LINE
  5
3F8
  8
0
 62
     0
 10
30.00000037110053
 20
70.640073281286362
 30
0.0
 11
32.000000371100583
 21
72.640073281286405
 31
0.0
  0
LINE
  5
3F9
  8
0
 62
     0
 10
37.359926898462369
 20
77.999999808648198
 30
0.0
 11
39.359926898462419
 21
79.999999808648255
 31
0.0
  0
LINE
  5
3FA
  8
0
 62
     0
 10
12.35992689846236
 20
52.999999808648198
 30
0.0
 11
14.35992689846236
 21
54.999999808648248
 31
0.0
  0
LINE
  5
3FB
  8
0
 62
     0
 10
30.000000371100551
 20
71.987111699446814
 30
0.0
 11
32.000000371100562
 21
73.987111699446757
 31
0.0
  0
LINE
  5
3FC
  8
0
 62
     0
 10
36.012888480301967
 20
77.99999980864817
 30
0.0
 11
38.012888480302017
 21
79.999999808648226
 31
0.0
  0
LINE
  5
3FD
  8
0
 62
     0
 10
11.01288848030196
 20
52.99999980864817
 30
0.0
 11
13.01288848030196
 21
54.999999808648226
 31
0.0
  0
LINE
  5
3FE
  8
0
 62
     0
 10
30.000000371100551
 20
73.33415011760718
 30
0.0
 11
32.000000371100498
 21
75.33415011760718
 31
0.0
  0
LINE
  5
3FF
  8
0
 62
     0
 10
34.665850062141601
 20
77.999999808648226
 30
0.0
 11
36.665850062141658
 21
79.999999808648283
 31
0.0
  0
LINE
  5
400
  8
0
 62
     0
 10
9.665850062141601
 20
52.999999808648219
 30
0.0
 11
11.665850062141599
 21
54.999999808648226
 31
0.0
  0
LINE
  5
401
  8
0
 62
     0
 10
30.00000037110053
 20
74.681188535767504
 30
0.0
 11
32.000000371100533
 21
76.681188535767575
 31
0.0
  0
LINE
  5
402
  8
0
 62
     0
 10
33.318811643981213
 20
77.999999808648255
 30
0.0
 11
35.318811643981263
 21
79.999999808648312
 31
0.0
  0
LINE
  5
403
  8
0
 62
     0
 10
8.3188116439812063
 20
52.999999808648248
 30
0.0
 11
10.31881164398126
 21
54.999999808648248
 31
0.0
  0
LINE
  5
404
  8
0
 62
     0
 10
30.000000371100501
 20
76.028226953927913
 30
0.0
 11
33.971773225820868
 21
79.999999808648226
 31
0.0
  0
LINE
  5
405
  8
0
 62
     0
 10
6.9717732258208676
 20
52.999999808648219
 30
0.0
 11
8.9717732258208684
 21
54.999999808648226
 31
0.0
  0
LINE
  5
406
  8
0
 62
     0
 10
30.027106684325052
 20
77.402371685312772
 30
0.0
 11
32.597628494435952
 21
79.972893495423676
 31
0.0
  0
LINE
  5
407
  8
0
 62
     0
 10
5.6247348076605297
 20
52.999999808648248
 30
0.0
 11
7.6247348076605297
 21
54.999999808648248
 31
0.0
  0
LINE
  5
408
  8
0
 62
     0
 10
4.277696389500135
 20
52.999999808648219
 30
0.0
 11
6.277696389500135
 21
54.999999808648226
 31
0.0
  0
LINE
  5
409
  8
0
 62
     0
 10
2.9306579713397412
 20
52.999999808648198
 30
0.0
 11
4.9306579713397412
 21
54.999999808648248
 31
0.0
  0
LINE
  5
40A
  8
0
 62
     0
 10
1.5836195531794031
 20
52.999999808648219
 30
0.0
 11
3.5836195531794028
 21
54.999999808648226
 31
0.0
  0
LINE
  5
40B
  8
0
 62
     0
 10
0.2369233844481187
 20
53.000342058077329
 30
0.0
 11
2.2365811350189801
 21
54.999999808648198
 31
0.0
  0
LINE
  5
40C
  8
0
 62
     0
 10
0.0000003711005547
 20
54.11045746289011
 30
0.0
 11
0.8895427168586138
 21
54.999999808648226
 31
0.0
  0
ENDBLK
  5
40E
  8
0
  0
BLOCK
  8
0
  2
*U3
 70
     1
 10
0.0
 20
0.0
 30
0.0
  3
*U3
  1

  0
ARC
  5
410
  8
0
 10
139.7500003711005
 20
53.249999808648163
 30
0.0
 40
0.25
 50
270.0
 51
0.0
  0
LINE
  5
411
  8
0
 10
140.0000003711005
 20
54.74999980864817
 30
0.0
 11
140.0000003711005
 21
53.249999808648163
 31
0.0
  0
LINE
  5
412
  8
0
 10
110.0000003711005
 20
52.99999980864817
 30
0.0
 11
139.7500003711005
 21
52.99999980864817
 31
0.0
  0
ARC
  5
413
  8
0
 10
139.7500003711005
 20
54.74999980864817
 30
0.0
 40
0.25
 50
0.0
 51
90.0
  0
LINE
  5
414
  8
0
 10
110.0000003711005
 20
52.99999980864817
 30
0.0
 11
110.0000003711005
 21
26.99999980864817
 31
0.0
  0
LINE
  5
415
  8
0
 10
110.0000003711005
 20
54.99999980864817
 30
0.0
 11
139.7500003711005
 21
54.99999980864817
 31
0.0
  0
LINE
  5
416
  8
0
 10
110.0000003711005
 20
26.99999980864817
 30
0.0
 11
139.7500003711005
 21
26.99999980864817
 31
0.0
  0
LINE
  5
417
  8
0
 10
110.0000003711005
 20
76.999999808648155
 30
0.0
 11
110.0000003711005
 21
54.99999980864817
 31
0.0
  0
ARC
  5
418
  8
0
 10
139.7500003711005
 20
26.74999980864817
 30
0.0
 40
0.25
 50
0.0
 51
90.0
  0
ARC
  5
419
  8
0
 10
107.0000003711005
 20
76.999999808648155
 30
0.0
 40
3.0
 50
0.0
 51
90.0
  0
LINE
  5
41A
  8
0
 10
140.0000003711005
 20
26.74999980864817
 30
0.0
 11
140.0000003711005
 21
25.24999980864817
 31
0.0
  0
LINE
  5
41B
  8
0
 10
33.000000371100562
 20
79.999999808648226
 30
0.0
 11
107.0000003711005
 21
79.99999980864817
 31
0.0
  0
ARC
  5
41C
  8
0
 10
139.7500003711005
 20
25.24999980864817
 30
0.0
 40
0.25
 50
270.0
 51
0.0
  0
ARC
  5
41D
  8
0
 10
33.000000371100562
 20
76.999999808648226
 30
0.0
 40
3.0
 50
90.0
 51
180.0
  0
LINE
  5
41E
  8
0
 10
110.0000003711005
 20
24.99999980864817
 30
0.0
 11
139.7500003711005
 21
24.99999980864817
 31
0.0
  0
LINE
  5
41F
  8
0
 10
30.000000371100551
 20
54.999999808648226
 30
0.0
 11
30.000000371100551
 21
76.999999808648226
 31
0.0
  0
LINE
  5
420
  8
0
 10
110.0000003711005
 20
24.99999980864817
 30
0.0
 11
110.0000003711005
 21
2.9999998086481692
 31
0.0
  0
LINE
  5
421
  8
0
 10
30.000000371100551
 20
54.999999808648226
 30
0.0
 11
0.2500003711005547
 21
54.999999808648226
 31
0.0
  0
ARC
  5
422
  8
0
 10
107.0000003711005
 20
2.9999998086481692
 30
0.0
 40
3.0
 50
270.0
 51
0.0
  0
ARC
  5
423
  8
0
 10
0.2500003711005547
 20
54.749999808648219
 30
0.0
 40
0.25
 50
90.0
 51
180.0
  0
LINE
  5
424
  8
0
 10
107.0000003711005
 20
-0.0000001913518304
 30
0.0
 11
33.000000371100562
 21
-0.0000001913518304
 31
0.0
  0
LINE
  5
425
  8
0
 10
0.0000003711005547
 20
54.749999808648219
 30
0.0
 11
0.0000003711005547
 21
53.249999808648226
 31
0.0
  0
ARC
  5
426
  8
0
 10
33.000000371100562
 20
2.9999998086481692
 30
0.0
 40
3.0
 50
180.0
 51
270.0
  0
ARC
  5
427
  8
0
 10
0.2500003711005547
 20
53.249999808648226
 30
0.0
 40
0.25
 50
180.0
 51
270.0
  0
LINE
  5
428
  8
0
 10
30.000000371100551
 20
2.9999998086481692
 30
0.0
 11
30.000000371100551
 21
24.999999808648202
 31
0.0
  0
LINE
  5
429
  8
0
 10
30.000000371100551
 20
52.999999808648219
 30
0.0
 11
0.2500003711005547
 21
52.999999808648219
 31
0.0
  0
LINE
  5
42A
  8
0
 10
30.000000371100551
 20
24.999999808648202
 30
0.0
 11
0.2500003711005263
 21
24.999999808648202
 31
0.0
  0
LINE
  5
42B
  8
0
 10
30.000000371100551
 20
26.999999808648202
 30
0.0
 11
30.000000371100551
 21
52.999999808648219
 31
0.0
  0
ARC
  5
42C
  8
0
 10
0.2500003711005263
 20
25.249999808648202
 30
0.0
 40
0.25
 50
180.0
 51
270.0
  0
LINE
  5
42D
  8
0
 10
30.000000371100551
 20
26.999999808648202
 30
0.0
 11
0.2500003711005263
 21
26.999999808648202
 31
0.0
  0
LINE
  5
42E
  8
0
 10
0.0000003711005263
 20
26.749999808648202
 30
0.0
 11
0.0000003711005263
 21
25.249999808648202
 31
0.0
  0
ARC
  5
42F
  8
0
 10
0.2500003711005263
 20
26.749999808648202
 30
0.0
 40
0.25
 50
90.0
 51
180.0
  0
ENDBLK
  5
431
  8
0
  0
BLOCK
  8
0
  2
*U4
 70
     1
 10
0.0
 20
0.0
 30
0.0
  3
*U4
  1

  0
LINE
  5
433
  8
0
 10
108.0000003711005
 20
76.999999808648155
 30
0.0
 11
108.0000003711005
 21
2.9999998086481692
 31
0.0
  0
ARC
  5
434
  8
0
 10
107.0000003711005
 20
76.999999808648155
 30
0.0
 40
1.0
 50
0.0
 51
90.0
  0
ARC
  5
435
  8
0
 10
107.0000003711005
 20
2.9999998086481692
 30
0.0
 40
1.0
 50
270.0
 51
0.0
  0
LINE
  5
436
  8
0
 10
33.000000371100562
 20
77.999999808648226
 30
0.0
 11
107.0000003711005
 21
77.99999980864817
 31
0.0
  0
LINE
  5
437
  8
0
 10
107.0000003711005
 20
1.999999808648169
 30
0.0
 11
33.000000371100562
 21
1.999999808648169
 31
0.0
  0
ARC
  5
438
  8
0
 10
33.000000371100562
 20
76.999999808648226
 30
0.0
 40
1.0
 50
90.0
 51
180.0
  0
ARC
  5
439
  8
0
 10
33.000000371100562
 20
2.9999998086481692
 30
0.0
 40
1.0
 50
180.0
 51
270.0
  0
LINE
  5
43A
  8
0
 10
32.000000371100562
 20
2.9999998086481692
 30
0.0
 11
32.000000371100562
 21
76.999999808648226
 31
0.0
  0
ENDBLK
  5
43C
  8
0
  0
ENDSEC
  0
SECTION
  2
ENTITIES
  0
LINE
  5
251
  8
0
 10
1499.2526709342701
 20
1476.3554814297031
 30
0.0
 11
1499.2526709342701
 21
1402.3554814297031
 31
0.0
  0
ARC
  5
252
  8
0
 10
1498.2526709342701
 20
1476.3554814297031
 30
0.0
 40
1.0
 50
0.0
 51
90.0
  0
ARC
  5
253
  8
0
 10
1498.2526709342701
 20
1402.3554814297031
 30
0.0
 40
1.0
 50
270.0
 51
0.0
  0
LINE
  5
254
  8
0
 10
1424.2526709342701
 20
1477.355481429702
 30
0.0
 11
1498.2526709342701
 21
1477.355481429702
 31
0.0
  0
LINE
  5
255
  8
0
 10
1498.2526709342701
 20
1401.3554814297031
 30
0.0
 11
1424.2526709342701
 21
1401.3554814297031
 31
0.0
  0
ARC
  5
256
  8
0
 10
1424.2526709342701
 20
1476.3554814297031
 30
0.0
 40
1.0
 50
90.0
 51
180.0
  0
ARC
  5
257
  8
0
 10
1424.2526709342701
 20
1402.3554814297031
 30
0.0
 40
1.0
 50
180.0
 51
270.0
  0
LINE
  5
258
  8
0
 10
1423.2526709342701
 20
1402.3554814297031
 30
0.0
 11
1423.2526709342701
 21
1476.3554814297031
 31
0.0
  0
ARC
  5
25A
  8
0
 10
1531.0026709342701
 20
1452.605481429702
 30
0.0
 40
0.25
 50
270.0
 51
0.0
  0
LINE
  5
25B
  8
0
 10
1531.2526709342701
 20
1454.105481429702
 30
0.0
 11
1531.2526709342701
 21
1452.605481429702
 31
0.0
  0
LINE
  5
25C
  8
0
 10
1501.252670934271
 20
1452.3554814297031
 30
0.0
 11
1531.0026709342701
 21
1452.3554814297031
 31
0.0
  0
ARC
  5
25D
  8
0
 10
1531.0026709342701
 20
1454.105481429702
 30
0.0
 40
0.25
 50
0.0
 51
90.0
  0
LINE
  5
25E
  8
0
 10
1501.252670934271
 20
1452.3554814297031
 30
0.0
 11
1501.252670934271
 21
1426.3554814297031
 31
0.0
  0
LINE
  5
25F
  8
0
 10
1501.252670934271
 20
1454.3554814297031
 30
0.0
 11
1531.0026709342701
 21
1454.3554814297031
 31
0.0
  0
LINE
  5
260
  8
0
 10
1501.252670934271
 20
1426.3554814297031
 30
0.0
 11
1531.0026709342701
 21
1426.3554814297031
 31
0.0
  0
LINE
  5
261
  8
0
 10
1501.252670934271
 20
1476.3554814297031
 30
0.0
 11
1501.252670934271
 21
1454.3554814297031
 31
0.0
  0
ARC
  5
262
  8
0
 10
1531.0026709342701
 20
1426.105481429702
 30
0.0
 40
0.25
 50
0.0
 51
90.0
  0
ARC
  5
263
  8
0
 10
1498.2526709342701
 20
1476.3554814297031
 30
0.0
 40
3.0
 50
0.0
 51
90.0
  0
LINE
  5
264
  8
0
 10
1531.2526709342701
 20
1426.105481429702
 30
0.0
 11
1531.2526709342701
 21
1424.6054814297031
 31
0.0
  0
LINE
  5
265
  8
0
 10
1424.2526709342701
 20
1479.3554814297031
 30
0.0
 11
1498.2526709342701
 21
1479.3554814297031
 31
0.0
  0
ARC
  5
266
  8
0
 10
1531.0026709342701
 20
1424.6054814297031
 30
0.0
 40
0.25
 50
270.0
 51
0.0
  0
ARC
  5
267
  8
0
 10
1424.2526709342701
 20
1476.3554814297031
 30
0.0
 40
3.0
 50
90.0
 51
180.0
  0
LINE
  5
268
  8
0
 10
1501.252670934271
 20
1424.3554814297031
 30
0.0
 11
1531.0026709342701
 21
1424.3554814297031
 31
0.0
  0
LINE
  5
269
  8
0
 10
1421.2526709342701
 20
1454.3554814297031
 30
0.0
 11
1421.2526709342701
 21
1476.3554814297031
 31
0.0
  0
LINE
  5
26A
  8
0
 10
1501.252670934271
 20
1424.3554814297031
 30
0.0
 11
1501.252670934271
 21
1402.3554814297031
 31
0.0
  0
LINE
  5
26B
  8
0
 10
1421.2526709342701
 20
1454.3554814297031
 30
0.0
 11
1391.502670934271
 21
1454.3554814297031
 31
0.0
  0
ARC
  5
26C
  8
0
 10
1498.2526709342701
 20
1402.3554814297031
 30
0.0
 40
3.0
 50
270.0
 51
0.0
  0
ARC
  5
26D
  8
0
 10
1391.502670934271
 20
1454.105481429702
 30
0.0
 40
0.25
 50
90.0
 51
180.0
  0
LINE
  5
26E
  8
0
 10
1498.2526709342701
 20
1399.3554814297031
 30
0.0
 11
1424.2526709342701
 21
1399.3554814297031
 31
0.0
  0
LINE
  5
26F
  8
0
 10
1391.2526709342701
 20
1454.105481429702
 30
0.0
 11
1391.2526709342701
 21
1452.605481429702
 31
0.0
  0
ARC
  5
270
  8
0
 10
1424.2526709342701
 20
1402.3554814297031
 30
0.0
 40
3.0
 50
180.0
 51
270.0
  0
ARC
  5
271
  8
0
 10
1391.502670934271
 20
1452.605481429702
 30
0.0
 40
0.25
 50
180.0
 51
270.0
  0
LINE
  5
272
  8
0
 10
1421.2526709342701
 20
1402.3554814297031
 30
0.0
 11
1421.2526709342701
 21
1424.3554814297031
 31
0.0
  0
LINE
  5
273
  8
0
 10
1421.2526709342701
 20
1452.3554814297031
 30
0.0
 11
1391.502670934271
 21
1452.3554814297031
 31
0.0
  0
LINE
  5
274
  8
0
 10
1421.2526709342701
 20
1424.3554814297031
 30
0.0
 11
1391.5026709342701
 21
1424.3554814297031
 31
0.0
  0
LINE
  5
275
  8
0
 10
1421.2526709342701
 20
1426.3554814297031
 30
0.0
 11
1421.2526709342701
 21
1452.3554814297031
 31
0.0
  0
ARC
  5
276
  8
0
 10
1391.5026709342701
 20
1424.6054814297031
 30
0.0
 40
0.25
 50
180.0
 51
270.0
  0
LINE
  5
277
  8
0
 10
1421.2526709342701
 20
1426.3554814297031
 30
0.0
 11
1391.5026709342701
 21
1426.3554814297031
 31
0.0
  0
LINE
  5
278
  8
0
 10
1391.2526709342701
 20
1426.105481429702
 30
0.0
 11
1391.2526709342701
 21
1424.6054814297031
 31
0.0
  0
ARC
  5
279
  8
0
 10
1391.5026709342701
 20
1426.105481429702
 30
0.0
 40
0.25
 50
90.0
 51
180.0
  0
ENDSEC
  0
EOF
