  0
SECTION
  2
HEADER
  9
$ACADVER
  1
AC1009
  9
$INSBASE
 10
0.0
 20
0.0
 30
0.0
  9
$EXTMIN
 10
2099.0547605102911
 20
1798.4613973268049
 30
0.0
  9
$EXTMAX
 10
2134.5547605102929
 20
1821.461397326806
 30
0.0
  9
$LIMMIN
 10
0.0
 20
0.0
  9
$LIMMAX
 10
420.0
 20
297.0
  9
$ORTHOMODE
 70
     0
  9
$REGENMODE
 70
     1
  9
$FILLMODE
 70
     1
  9
$QTEXTMODE
 70
     0
  9
$MIRRTEXT
 70
     0
  9
$DRAGMODE
 70
     2
  9
$LTSCALE
 40
1.0
  9
$OSMODE
 70
  3071
  9
$ATTMODE
 70
     1
  9
$TEXTSIZE
 40
2.5
  9
$TRACEWID
 40
1.0
  9
$TEXTSTYLE
  7
STANDARD
  9
$CLAYER
  8
0
  9
$CELTYPE
  6
BYLAYER
  9
$CECOLOR
 62
   256
  9
$DIMSCALE
 40
1.0
  9
$DIMASZ
 40
2.5
  9
$DIMEXO
 40
0.625
  9
$DIMDLI
 40
3.75
  9
$DIMRND
 40
0.0
  9
$DIMDLE
 40
0.0
  9
$DIMEXE
 40
1.25
  9
$DIMTP
 40
0.0
  9
$DIMTM
 40
0.0
  9
$DIMTXT
 40
2.5
  9
$DIMCEN
 40
2.5
  9
$DIMTSZ
 40
0.0
  9
$DIMTOL
 70
     0
  9
$DIMLIM
 70
     0
  9
$DIMTIH
 70
     0
  9
$DIMTOH
 70
     0
  9
$DIMSE1
 70
     0
  9
$DIMSE2
 70
     0
  9
$DIMTAD
 70
     1
  9
$DIMZIN
 70
     8
  9
$DIMBLK
  1

  9
$DIMASO
 70
     1
  9
$DIMSHO
 70
     1
  9
$DIMPOST
  1

  9
$DIMAPOST
  1

  9
$DIMALT
 70
     0
  9
$DIMALTD
 70
     3
  9
$DIMALTF
 40
0.03937007874016
  9
$DIMLFAC
 40
1.0
  9
$DIMTOFL
 70
     1
  9
$DIMTVP
 40
0.0
  9
$DIMTIX
 70
     0
  9
$DIMSOXD
 70
     0
  9
$DIMSAH
 70
     0
  9
$DIMBLK1
  1

  9
$DIMBLK2
  1

  9
$DIMSTYLE
  2
ISO-25
  9
$DIMCLRD
 70
     0
  9
$DIMCLRE
 70
     0
  9
$DIMCLRT
 70
     0
  9
$DIMTFAC
 40
1.0
  9
$DIMGAP
 40
0.625
  9
$LUNITS
 70
     2
  9
$LUPREC
 70
     4
  9
$SKETCHINC
 40
1.0
  9
$FILLETRAD
 40
0.0
  9
$AUNITS
 70
     0
  9
$AUPREC
 70
     0
  9
$MENU
  1
.
  9
$ELEVATION
 40
0.0
  9
$PELEVATION
 40
0.0
  9
$THICKNESS
 40
0.0
  9
$LIMCHECK
 70
     0
  9
$BLIPMODE
 70
     0
  9
$CHAMFERA
 40
0.0
  9
$CHAMFERB
 40
0.0
  9
$SKPOLY
 70
     0
  9
$TDCREATE
 40
2456785.5741955331
  9
$TDUPDATE
 40
2456785.5743309841
  9
$TDINDWG
 40
0.0001378009
  9
$TDUSRTIMER
 40
0.0001378009
  9
$USRTIMER
 70
     1
  9
$ANGBASE
 50
0.0
  9
$ANGDIR
 70
     0
  9
$PDMODE
 70
     0
  9
$PDSIZE
 40
0.0
  9
$PLINEWID
 40
0.0
  9
$COORDS
 70
     1
  9
$SPLFRAME
 70
     0
  9
$SPLINETYPE
 70
     6
  9
$SPLINESEGS
 70
     8
  9
$ATTDIA
 70
     1
  9
$ATTREQ
 70
     1
  9
$HANDLING
 70
     1
  9
$HANDSEED
  5
31B
  9
$SURFTAB1
 70
     6
  9
$SURFTAB2
 70
     6
  9
$SURFTYPE
 70
     6
  9
$SURFU
 70
     6
  9
$SURFV
 70
     6
  9
$UCSNAME
  2

  9
$UCSORG
 10
0.0
 20
0.0
 30
0.0
  9
$UCSXDIR
 10
1.0
 20
0.0
 30
0.0
  9
$UCSYDIR
 10
0.0
 20
1.0
 30
0.0
  9
$PUCSNAME
  2

  9
$PUCSORG
 10
0.0
 20
0.0
 30
0.0
  9
$PUCSXDIR
 10
1.0
 20
0.0
 30
0.0
  9
$PUCSYDIR
 10
0.0
 20
1.0
 30
0.0
  9
$USERI1
 70
     0
  9
$USERI2
 70
     0
  9
$USERI3
 70
     0
  9
$USERI4
 70
     0
  9
$USERI5
 70
     0
  9
$USERR1
 40
0.0
  9
$USERR2
 40
0.0
  9
$USERR3
 40
0.0
  9
$USERR4
 40
0.0
  9
$USERR5
 40
0.0
  9
$WORLDVIEW
 70
     1
  9
$SHADEDGE
 70
     3
  9
$SHADEDIF
 70
    70
  9
$TILEMODE
 70
     1
  9
$MAXACTVP
 70
    64
  9
$PLIMCHECK
 70
     0
  9
$PEXTMIN
 10
0.0
 20
0.0
 30
0.0
  9
$PEXTMAX
 10
0.0
 20
0.0
 30
0.0
  9
$PLIMMIN
 10
0.0
 20
0.0
  9
$PLIMMAX
 10
12.0
 20
9.0
  9
$UNITMODE
 70
     0
  9
$VISRETAIN
 70
     1
  9
$PLINEGEN
 70
     0
  9
$PSLTSCALE
 70
     1
  0
ENDSEC
  0
SECTION
  2
TABLES
  0
TABLE
  2
VPORT
 70
     1
  0
VPORT
  2
*ACTIVE
 70
     0
 10
0.0
 20
0.0
 11
1.0
 21
1.0
 12
2116.804760510292
 22
1809.961397326806
 13
0.0
 23
0.0
 14
10.0
 24
10.0
 15
10.0
 25
10.0
 16
0.0
 26
0.0
 36
1.0
 17
0.0
 27
0.0
 37
0.0
 40
23.226229508197321
 41
2.068965517241379
 42
50.0
 43
0.0
 44
0.0
 50
0.0
 51
0.0
 71
     0
 72
  1000
 73
     1
 74
     3
 75
     0
 76
     1
 77
     0
 78
     0
  0
ENDTAB
  0
TABLE
  2
LTYPE
 70
     1
  0
LTYPE
  2
CONTINUOUS
 70
     0
  3
Solid line
 72
    65
 73
     0
 40
0.0
  0
ENDTAB
  0
TABLE
  2
LAYER
 70
     1
  0
LAYER
  2
0
 70
     0
 62
     7
  6
CONTINUOUS
  0
ENDTAB
  0
TABLE
  2
STYLE
 70
     3
  0
STYLE
  2
STANDARD
 70
     0
 40
0.0
 41
1.0
 50
0.0
 71
     0
 42
2.5
  3
txt
  4

  0
STYLE
  2
ANNOTATIVE
 70
     0
 40
0.0
 41
1.0
 50
0.0
 71
     0
 42
2.5
  3
txt
  4

  0
STYLE
  2
ROMANT
 70
     0
 40
2.2999999999999989
 41
1.0
 50
15.0
 71
     0
 42
2.5
  3
romant.shx
  4

  0
ENDTAB
  0
TABLE
  2
VIEW
 70
     1
  0
ENDTAB
  0
TABLE
  2
UCS
 70
     0
  0
ENDTAB
  0
TABLE
  2
APPID
 70
    10
  0
APPID
  2
ACAD
 70
     0
  0
APPID
  2
ACAD_PSEXT
 70
     0
  0
APPID
  2
ACADANNOPO
 70
     0
  0
APPID
  2
ACADANNOTATIVE
 70
     0
  0
APPID
  2
ACAD_DSTYLE_DIMJAG
 70
     0
  0
APPID
  2
ACAD_DSTYLE_DIMTALN
 70
     0
  0
APPID
  2
ACAD_MLEADERVER
 70
     0
  0
APPID
  2
ACAD_NAV_VCDISPLAY
 70
     0
  0
APPID
  2
GRADIENTCOLOR1ACI
 70
     0
  0
APPID
  2
GRADIENTCOLOR2ACI
 70
     0
  0
ENDTAB
  0
TABLE
  2
DIMSTYLE
 70
     4
  0
DIMSTYLE
  2
STANDARD
 70
     0
  3

  4

  5

  6

  7

 40
1.0
 41
0.18
 42
0.0625
 43
0.38
 44
0.18
 45
0.0
 46
0.0
 47
0.0
 48
0.0
140
0.18
141
0.09
142
0.0
143
25.399999999999999
144
1.0
145
0.0
146
1.0
147
0.09
 71
     0
 72
     0
 73
     1
 74
     1
 75
     0
 76
     0
 77
     0
 78
     0
170
     0
171
     2
172
     0
173
     0
174
     0
175
     0
176
     0
177
     0
178
     0
  0
DIMSTYLE
  2
ANNOTATIVE
 70
     0
  3

  4

  5

  6

  7

 40
0.0
 41
2.5
 42
0.625
 43
3.75
 44
1.25
 45
0.0
 46
0.0
 47
0.0
 48
0.0
140
2.5
141
2.5
142
0.0
143
0.03937007874016
144
1.0
145
0.0
146
1.0
147
0.625
 71
     0
 72
     0
 73
     0
 74
     0
 75
     0
 76
     0
 77
     1
 78
     8
170
     0
171
     3
172
     1
173
     0
174
     0
175
     0
176
     0
177
     0
178
     0
  0
DIMSTYLE
  2
ISO-25
 70
     0
  3

  4

  5

  6

  7

 40
1.0
 41
2.5
 42
0.625
 43
3.75
 44
1.25
 45
0.0
 46
0.0
 47
0.0
 48
0.0
140
2.5
141
2.5
142
0.0
143
0.03937007874016
144
1.0
145
0.0
146
1.0
147
0.625
 71
     0
 72
     0
 73
     0
 74
     0
 75
     0
 76
     0
 77
     1
 78
     8
170
     0
171
     3
172
     1
173
     0
174
     0
175
     0
176
     0
177
     0
178
     0
  0
DIMSTYLE
  2
MELÝH_A4
 70
     0
  3

  4

  5

  6

  7

 40
1.0
 41
1.5
 42
0.0
 43
3.75
 44
0.5
 45
0.0
 46
0.0
 47
0.0
 48
0.0
140
2.2999999999999989
141
0.2
142
0.0
143
0.03937007874016
144
1.0
145
0.0
146
1.0
147
0.4
 71
     0
 72
     0
 73
     0
 74
     0
 75
     0
 76
     0
 77
     1
 78
     8
170
     0
171
     3
172
     0
173
     0
174
     0
175
     0
176
   242
177
   242
178
   242
  0
ENDTAB
  0
ENDSEC
  0
SECTION
  2
BLOCKS
  0
BLOCK
  8
0
  2
$MODEL_SPACE
 70
     0
 10
0.0
 20
0.0
 30
0.0
  3
$MODEL_SPACE
  1

  0
ENDBLK
  5
21
  8
0
  0
BLOCK
 67
     1
  8
0
  2
$PAPER_SPACE
 70
     0
 10
0.0
 20
0.0
 30
0.0
  3
$PAPER_SPACE
  1

  0
ENDBLK
  5
D5
 67
     1
  8
0
  0
BLOCK
  8
0
  2
*X2
 70
     1
 10
0.0
 20
0.0
 30
0.0
  3
*X2
  1

  0
LINE
  5
2BC
  8
0
 62
     0
 10
38.93235962257063
 20
3.49638266896386
 30
0.0
 11
42.022820876705737
 21
6.586843923098967
 31
0.0
  0
LINE
  5
2BD
  8
0
 62
     0
 10
37.310546913390453
 20
3.2216083779437659
 30
0.0
 11
42.297595167726051
 21
8.2086566322795989
 31
0.0
  0
LINE
  5
2BE
  8
0
 62
     0
 10
35.963491763742468
 20
3.2215916464560901
 30
0.0
 11
42.297611899213052
 21
9.5557117819269024
 31
0.0
  0
LINE
  5
2BF
  8
0
 62
     0
 10
39.266812584270163
 20
7.8719508851443152
 30
0.0
 11
42.297611899213052
 21
10.90275020008721
 31
0.0
  0
LINE
  5
2C0
  8
0
 62
     0
 10
34.616453345582158
 20
3.221591646456317
 30
0.0
 11
37.647252660525282
 21
6.2523909613996693
 31
0.0
  0
LINE
  5
2C1
  8
0
 62
     0
 10
39.297611899213507
 20
9.249788618247976
 30
0.0
 11
42.29761189921328
 21
12.24978861824775
 31
0.0
  0
LINE
  5
2C2
  8
0
 62
     0
 10
33.269414927421849
 20
3.221591646456317
 30
0.0
 11
36.269414927421849
 21
6.2215916464560896
 31
0.0
  0
LINE
  5
2C3
  8
0
 62
     0
 10
39.29761189921328
 20
10.59682703640828
 30
0.0
 11
42.29761189921328
 21
13.59682703640806
 31
0.0
  0
LINE
  5
2C4
  8
0
 62
     0
 10
31.922376509261309
 20
3.2215916464560901
 30
0.0
 11
34.922376509261312
 21
6.221591646456317
 31
0.0
  0
LINE
  5
2C5
  8
0
 62
     0
 10
39.29761189921328
 20
11.94386545456859
 30
0.0
 11
42.29761189921328
 21
14.943865454568369
 31
0.0
  0
LINE
  5
2C6
  8
0
 62
     0
 10
30.575338091100999
 20
3.221591646456317
 30
0.0
 11
33.57533809110123
 21
6.2215916464565453
 31
0.0
  0
LINE
  5
2C7
  8
0
 62
     0
 10
39.297611899213507
 20
13.29090387272913
 30
0.0
 11
42.2976118992135
 21
16.290903872728901
 31
0.0
  0
LINE
  5
2C8
  8
0
 62
     0
 10
29.22829967294069
 20
3.221591646456317
 30
0.0
 11
32.2282996729407
 21
6.2215916464560896
 31
0.0
  0
LINE
  5
2C9
  8
0
 62
     0
 10
39.297611899213052
 20
14.63794229088921
 30
0.0
 11
42.29761189921328
 21
17.63794229088921
 31
0.0
  0
LINE
  5
2CA
  8
0
 62
     0
 10
27.881261254780391
 20
3.2215916464565448
 30
0.0
 11
30.88126125478016
 21
6.221591646456317
 31
0.0
  0
LINE
  5
2CB
  8
0
 62
     0
 10
39.297611899213507
 20
15.984980709049751
 30
0.0
 11
42.29761189921328
 21
18.984980709049751
 31
0.0
  0
LINE
  5
2CC
  8
0
 62
     0
 10
26.534222836620302
 20
3.2215916464565448
 30
0.0
 11
29.534222836620071
 21
6.2215916464565453
 31
0.0
  0
LINE
  5
2CD
  8
0
 62
     0
 10
39.297611899213507
 20
17.33201912721028
 30
0.0
 11
42.2976118992135
 21
20.33201912721006
 31
0.0
  0
LINE
  5
2CE
  8
0
 62
     0
 10
25.187184418459541
 20
3.221591646456317
 30
0.0
 11
28.18718441845931
 21
6.2215916464560896
 31
0.0
  0
LINE
  5
2CF
  8
0
 62
     0
 10
39.297611899213052
 20
18.67905754537037
 30
0.0
 11
42.278370781284593
 21
21.65981642744191
 31
0.0
  0
LINE
  5
2D0
  8
0
 62
     0
 10
23.840146000299232
 20
3.221591646456317
 30
0.0
 11
26.840146000299001
 21
6.221591646456317
 31
0.0
  0
LINE
  5
2D1
  8
0
 62
     0
 10
39.297611899213507
 20
20.026095963530899
 30
0.0
 11
42.049278229651911
 21
22.777762293969321
 31
0.0
  0
LINE
  5
2D2
  8
0
 62
     0
 10
22.49310758213915
 20
3.2215916464565448
 30
0.0
 11
25.493107582138919
 21
6.2215916464565453
 31
0.0
  0
LINE
  5
2D3
  8
0
 62
     0
 10
39.070925431617518
 20
21.146447914095461
 30
0.0
 11
41.634435062899911
 21
23.70995754537762
 31
0.0
  0
LINE
  5
2D4
  8
0
 62
     0
 10
21.146069163978382
 20
3.2215916464560901
 30
0.0
 11
24.146069163978151
 21
6.2215916464560896
 31
0.0
  0
LINE
  5
2D5
  8
0
 62
     0
 10
38.440389642810942
 20
21.862950543449191
 30
0.0
 11
41.074954956034837
 21
24.49751585667309
 31
0.0
  0
LINE
  5
2D6
  8
0
 62
     0
 10
19.799030745818069
 20
3.221591646456317
 30
0.0
 11
22.799030745817848
 21
6.221591646456317
 31
0.0
  0
LINE
  5
2D7
  8
0
 62
     0
 10
37.446446690370067
 20
22.216046009168618
 30
0.0
 11
40.384963346919221
 21
25.154562665718
 31
0.0
  0
LINE
  5
2D8
  8
0
 62
     0
 10
18.451992327657759
 20
3.2215916464565448
 30
0.0
 11
21.451992327657759
 21
6.221591646456317
 31
0.0
  0
LINE
  5
2D9
  8
0
 62
     0
 10
36.104953909497233
 20
22.221591646456091
 30
0.0
 11
39.562542004013267
 21
25.679179740972359
 31
0.0
  0
LINE
  5
2DA
  8
0
 62
     0
 10
17.104953909497219
 20
3.2215916464560901
 30
0.0
 11
20.104953909497461
 21
6.221591646456317
 31
0.0
  0
LINE
  5
2DB
  8
0
 62
     0
 10
34.757915491337151
 20
22.221591646456542
 30
0.0
 11
38.588423319444018
 21
26.052099474563651
 31
0.0
  0
LINE
  5
2DC
  8
0
 62
     0
 10
15.757915491336689
 20
3.221591646456317
 30
0.0
 11
18.75791549133692
 21
6.2215916464565453
 31
0.0
  0
LINE
  5
2DD
  8
0
 62
     0
 10
33.410877073176607
 20
22.221591646456542
 30
0.0
 11
37.40962228311696
 21
26.220336856396671
 31
0.0
  0
LINE
  5
2DE
  8
0
 62
     0
 10
14.410877073176611
 20
3.2215916464565448
 30
0.0
 11
17.4108770731766
 21
6.221591646456317
 31
0.0
  0
LINE
  5
2DF
  8
0
 62
     0
 10
32.06383865501607
 20
22.221591646456091
 30
0.0
 11
36.06383865501607
 21
26.221591646456091
 31
0.0
  0
LINE
  5
2E0
  8
0
 62
     0
 10
13.06383865501607
 20
3.2215916464560901
 30
0.0
 11
16.06383865501607
 21
6.221591646456317
 31
0.0
  0
LINE
  5
2E1
  8
0
 62
     0
 10
30.716800236855988
 20
22.221591646456542
 30
0.0
 11
34.716800236855988
 21
26.221591646456549
 31
0.0
  0
LINE
  5
2E2
  8
0
 62
     0
 10
11.717442983670249
 20
3.2222343932710369
 30
0.0
 11
14.716800236855761
 21
6.2215916464565453
 31
0.0
  0
LINE
  5
2E3
  8
0
 62
     0
 10
29.797611899211908
 20
22.649441726973009
 30
0.0
 11
33.369761818695451
 21
26.221591646456549
 31
0.0
  0
LINE
  5
2E4
  8
0
 62
     0
 10
10.53246804703894
 20
3.3842978747998131
 30
0.0
 11
13.369761818695221
 21
6.221591646456317
 31
0.0
  0
LINE
  5
2E5
  8
0
 62
     0
 10
29.797611899212139
 20
23.996480145133319
 30
0.0
 11
32.022723400535142
 21
26.221591646456549
 31
0.0
  0
LINE
  5
2E6
  8
0
 62
     0
 10
9.5542445724372556
 20
3.753112818358431
 30
0.0
 11
12.022723400534909
 21
6.221591646456317
 31
0.0
  0
LINE
  5
2E7
  8
0
 62
     0
 10
29.797611899211908
 20
25.343518563293859
 30
0.0
 11
30.675684982374829
 21
26.221591646456549
 31
0.0
  0
LINE
  5
2E8
  8
0
 62
     0
 10
8.7284798423427201
 20
4.2743865064244337
 30
0.0
 11
10.89230960137979
 21
6.4382162654615049
 31
0.0
  0
LINE
  5
2E9
  8
0
 62
     0
 10
8.0353795412386262
 20
4.9283246234808749
 30
0.0
 11
10.16849025382589
 21
7.0614353360681434
 31
0.0
  0
LINE
  5
2EA
  8
0
 62
     0
 10
7.472662175192454
 20
5.7126456755947848
 30
0.0
 11
9.8053902146009477
 21
8.0453737150035067
 31
0.0
  0
LINE
  5
2EB
  8
0
 62
     0
 10
7.0540043100531866
 20
6.6410262286158277
 30
0.0
 11
9.7976118992123702
 21
9.3846338177752386
 31
0.0
  0
LINE
  5
2EC
  8
0
 62
     0
 10
6.819559803341007
 20
7.7536201400641849
 30
0.0
 11
9.7976118992121428
 21
10.731672235935321
 31
0.0
  0
LINE
  5
2ED
  8
0
 62
     0
 10
6.7976118992123702
 20
9.0787106540958575
 30
0.0
 11
9.7976118992125976
 21
12.078710654095859
 31
0.0
  0
LINE
  5
2EE
  8
0
 62
     0
 10
18.593454473412521
 20
22.221591646456321
 30
0.0
 11
19.297611899212139
 21
22.925749072255709
 31
0.0
  0
LINE
  5
2EF
  8
0
 62
     0
 10
6.7976118992121419
 20
10.42574907225594
 30
0.0
 11
9.7976118992125976
 21
13.425749072256391
 31
0.0
  0
LINE
  5
2F0
  8
0
 62
     0
 10
17.246416055251981
 20
22.221591646456091
 30
0.0
 11
19.297611899211908
 21
24.272787490416022
 31
0.0
  0
LINE
  5
2F1
  8
0
 62
     0
 10
6.7976118992119154
 20
11.772787490416251
 30
0.0
 11
9.7976118992125976
 21
14.7727874904167
 31
0.0
  0
LINE
  5
2F2
  8
0
 62
     0
 10
15.89937763709167
 20
22.221591646456321
 30
0.0
 11
19.297611899211908
 21
25.619825908576559
 31
0.0
  0
LINE
  5
2F3
  8
0
 62
     0
 10
6.7976118992121419
 20
13.11982590857656
 30
0.0
 11
9.7976118992128232
 21
16.119825908577472
 31
0.0
  0
LINE
  5
2F4
  8
0
 62
     0
 10
14.55233921893136
 20
22.221591646456321
 30
0.0
 11
18.552339218931358
 21
26.221591646456321
 31
0.0
  0
LINE
  5
2F5
  8
0
 62
     0
 10
6.7976118992119154
 20
14.466864326736861
 30
0.0
 11
9.7976118992130523
 21
17.466864326738001
 31
0.0
  0
LINE
  5
2F6
  8
0
 62
     0
 10
13.205300800771051
 20
22.221591646456542
 30
0.0
 11
17.205300800770829
 21
26.221591646456091
 31
0.0
  0
LINE
  5
2F7
  8
0
 62
     0
 10
6.7976118992121419
 20
15.813902744897399
 30
0.0
 11
9.7976118992132797
 21
18.813902744898542
 31
0.0
  0
LINE
  5
2F8
  8
0
 62
     0
 10
11.85826238261097
 20
22.221591646456542
 30
0.0
 11
15.858262382610519
 21
26.221591646456321
 31
0.0
  0
LINE
  5
2F9
  8
0
 62
     0
 10
6.7976118992121419
 20
17.160941163057711
 30
0.0
 11
9.7976118992135071
 21
20.160941163059299
 31
0.0
  0
LINE
  5
2FA
  8
0
 62
     0
 10
6.7976118992119154
 20
18.50797958121802
 30
0.0
 11
14.51122396445021
 21
26.221591646456321
 31
0.0
  0
LINE
  5
2FB
  8
0
 62
     0
 10
6.7976118992121419
 20
19.85501799937856
 30
0.0
 11
13.1641855462899
 21
26.221591646456549
 31
0.0
  0
LINE
  5
2FC
  8
0
 62
     0
 10
6.7976118992121419
 20
21.202056417539101
 30
0.0
 11
11.81714712812982
 21
26.221591646456549
 31
0.0
  0
LINE
  5
2FD
  8
0
 62
     0
 10
7.0556727848288574
 20
22.80715572131589
 30
0.0
 11
10.21204782435211
 21
25.963530760839379
 31
0.0
  0
ENDBLK
  5
2FF
  8
0
  0
BLOCK
  8
0
  2
*U3
 70
     1
 10
0.0
 20
0.0
 30
0.0
  3
*U3
  1

  0
LINE
  5
301
  8
0
 10
11.79761189921191
 20
6.2215916464564307
 30
0.0
 11
37.29761189921328
 21
6.2215916464564307
 31
0.0
  0
ARC
  5
302
  8
0
 10
11.79761189921191
 20
8.2215916464564316
 30
0.0
 40
2.0
 50
180.0
 51
270.0
  0
ARC
  5
303
  8
0
 10
37.29761189921328
 20
8.2215916464564316
 30
0.0
 40
2.0
 50
270.0
 51
0.0
  0
LINE
  5
304
  8
0
 10
9.7976118992132797
 20
20.221591646456432
 30
0.0
 11
9.7976118992119154
 21
8.2215916464564316
 31
0.0
  0
LINE
  5
305
  8
0
 10
39.29761189921328
 20
20.221591646456432
 30
0.0
 11
39.29761189921328
 21
8.2215916464564316
 31
0.0
  0
ARC
  5
306
  8
0
 10
11.79761189921328
 20
20.221591646456432
 30
0.0
 40
2.0
 50
90.0
 51
180.0
  0
ARC
  5
307
  8
0
 10
37.29761189921328
 20
20.221591646456432
 30
0.0
 40
2.0
 50
0.0
 51
90.0
  0
LINE
  5
308
  8
0
 10
11.79761189921328
 20
22.221591646456432
 30
0.0
 11
19.047611899211908
 21
22.221591646456432
 31
0.0
  0
LINE
  5
309
  8
0
 10
37.29761189921328
 20
22.221591646456432
 30
0.0
 11
30.047611899211919
 21
22.221591646456432
 31
0.0
  0
ARC
  5
30A
  8
0
 10
19.047611899211908
 20
22.471591646456432
 30
0.0
 40
0.25
 50
270.0
 51
0.0
  0
ARC
  5
30B
  8
0
 10
30.047611899211919
 20
22.471591646456432
 30
0.0
 40
0.25
 50
180.0
 51
270.0
  0
LINE
  5
30C
  8
0
 10
19.297611899211908
 20
25.971591646456432
 30
0.0
 11
19.297611899211908
 21
22.471591646456432
 31
0.0
  0
LINE
  5
30D
  8
0
 10
29.797611899211908
 20
25.971591646456432
 30
0.0
 11
29.797611899211908
 21
22.471591646456432
 31
0.0
  0
ARC
  5
30E
  8
0
 10
19.047611899211908
 20
25.971591646456432
 30
0.0
 40
0.25
 50
0.0
 51
90.0
  0
ARC
  5
30F
  8
0
 10
30.047611899211919
 20
25.971591646456432
 30
0.0
 40
0.25
 50
90.0
 51
180.0
  0
LINE
  5
310
  8
0
 10
11.79761189921191
 20
26.221591646456432
 30
0.0
 11
19.047611899211908
 21
26.221591646456432
 31
0.0
  0
LINE
  5
311
  8
0
 10
37.29761189921328
 20
26.221591646456432
 30
0.0
 11
30.047611899211919
 21
26.221591646456432
 31
0.0
  0
ARC
  5
312
  8
0
 10
11.79761189921191
 20
21.221591646456432
 30
0.0
 40
5.0
 50
90.0
 51
180.0
  0
ARC
  5
313
  8
0
 10
37.29761189921328
 20
21.221591646456432
 30
0.0
 40
5.0
 50
0.0
 51
90.0
  0
LINE
  5
314
  8
0
 10
6.7976118992119154
 20
21.221591646456432
 30
0.0
 11
6.7976118992119154
 21
8.2215916464564316
 31
0.0
  0
LINE
  5
315
  8
0
 10
42.29761189921328
 20
21.221591646456432
 30
0.0
 11
42.29761189921328
 21
8.2215916464564316
 31
0.0
  0
ARC
  5
316
  8
0
 10
11.79761189921191
 20
8.2215916464564316
 30
0.0
 40
5.0
 50
180.0
 51
270.0
  0
ARC
  5
317
  8
0
 10
37.29761189921328
 20
8.2215916464564316
 30
0.0
 40
5.0
 50
270.0
 51
0.0
  0
LINE
  5
318
  8
0
 10
11.79761189921191
 20
3.2215916464564311
 30
0.0
 11
37.29761189921328
 21
3.2215916464564311
 31
0.0
  0
ENDBLK
  5
31A
  8
0
  0
ENDSEC
  0
SECTION
  2
ENTITIES
  0
LINE
  5
24F
  8
0
 10
2104.0547605102911
 20
1801.461397326806
 30
0.0
 11
2129.5547605102929
 21
1801.461397326806
 31
0.0
  0
ARC
  5
250
  8
0
 10
2104.0547605102911
 20
1803.461397326806
 30
0.0
 40
2.0
 50
180.0
 51
270.0
  0
ARC
  5
251
  8
0
 10
2129.5547605102929
 20
1803.461397326806
 30
0.0
 40
2.0
 50
270.0
 51
0.0
  0
LINE
  5
252
  8
0
 10
2102.0547605102929
 20
1815.461397326806
 30
0.0
 11
2102.0547605102911
 21
1803.461397326806
 31
0.0
  0
LINE
  5
253
  8
0
 10
2131.554760510292
 20
1815.461397326806
 30
0.0
 11
2131.554760510292
 21
1803.461397326806
 31
0.0
  0
ARC
  5
254
  8
0
 10
2104.0547605102929
 20
1815.461397326806
 30
0.0
 40
2.0
 50
90.0
 51
180.0
  0
ARC
  5
255
  8
0
 10
2129.5547605102929
 20
1815.461397326806
 30
0.0
 40
2.0
 50
0.0
 51
90.0
  0
LINE
  5
256
  8
0
 10
2104.0547605102929
 20
1817.461397326806
 30
0.0
 11
2111.3047605102911
 21
1817.461397326806
 31
0.0
  0
LINE
  5
257
  8
0
 10
2129.5547605102929
 20
1817.461397326806
 30
0.0
 11
2122.3047605102911
 21
1817.461397326806
 31
0.0
  0
ARC
  5
258
  8
0
 10
2111.3047605102911
 20
1817.711397326806
 30
0.0
 40
0.25
 50
270.0
 51
0.0
  0
ARC
  5
259
  8
0
 10
2122.3047605102911
 20
1817.711397326806
 30
0.0
 40
0.25
 50
180.0
 51
270.0
  0
LINE
  5
25A
  8
0
 10
2111.5547605102911
 20
1821.211397326806
 30
0.0
 11
2111.5547605102911
 21
1817.711397326806
 31
0.0
  0
LINE
  5
25B
  8
0
 10
2122.0547605102911
 20
1821.211397326806
 30
0.0
 11
2122.0547605102911
 21
1817.711397326806
 31
0.0
  0
ARC
  5
25C
  8
0
 10
2111.3047605102911
 20
1821.211397326806
 30
0.0
 40
0.25
 50
0.0
 51
90.0
  0
ARC
  5
25D
  8
0
 10
2122.3047605102911
 20
1821.211397326806
 30
0.0
 40
0.25
 50
90.0
 51
180.0
  0
LINE
  5
25E
  8
0
 10
2104.0547605102911
 20
1821.461397326806
 30
0.0
 11
2111.3047605102911
 21
1821.461397326806
 31
0.0
  0
LINE
  5
25F
  8
0
 10
2129.5547605102929
 20
1821.461397326806
 30
0.0
 11
2122.3047605102911
 21
1821.461397326806
 31
0.0
  0
ARC
  5
260
  8
0
 10
2104.0547605102911
 20
1816.461397326806
 30
0.0
 40
5.0
 50
90.0
 51
180.0
  0
ARC
  5
261
  8
0
 10
2129.5547605102929
 20
1816.461397326806
 30
0.0
 40
5.0
 50
0.0
 51
90.0
  0
LINE
  5
262
  8
0
 10
2099.0547605102911
 20
1816.461397326806
 30
0.0
 11
2099.0547605102911
 21
1803.461397326806
 31
0.0
  0
LINE
  5
263
  8
0
 10
2134.5547605102929
 20
1816.461397326806
 30
0.0
 11
2134.5547605102929
 21
1803.461397326806
 31
0.0
  0
ARC
  5
264
  8
0
 10
2104.0547605102911
 20
1803.461397326806
 30
0.0
 40
5.0
 50
180.0
 51
270.0
  0
ARC
  5
265
  8
0
 10
2129.5547605102929
 20
1803.461397326806
 30
0.0
 40
5.0
 50
270.0
 51
0.0
  0
LINE
  5
266
  8
0
 10
2104.0547605102911
 20
1798.461397326806
 30
0.0
 11
2129.5547605102929
 21
1798.461397326806
 31
0.0
  0
ENDSEC
  0
EOF
