  0
SECTION
  2
HEADER
  9
$ACADVER
  1
AC1009
  9
$INSBASE
 10
0.0
 20
0.0
 30
0.0
  9
$EXTMIN
 10
2240.2953572344568
 20
1569.020191076062
 30
0.0
  9
$EXTMAX
 10
2260.2953572344568
 20
1589.0201910760629
 30
0.0
  9
$LIMMIN
 10
0.0
 20
0.0
  9
$LIMMAX
 10
420.0
 20
297.0
  9
$ORTHOMODE
 70
     0
  9
$REGENMODE
 70
     1
  9
$FILLMODE
 70
     1
  9
$QTEXTMODE
 70
     0
  9
$MIRRTEXT
 70
     0
  9
$DRAGMODE
 70
     2
  9
$LTSCALE
 40
1.0
  9
$OSMODE
 70
  3071
  9
$ATTMODE
 70
     1
  9
$TEXTSIZE
 40
2.5
  9
$TRACEWID
 40
1.0
  9
$TEXTSTYLE
  7
STANDARD
  9
$CLAYER
  8
0
  9
$CELTYPE
  6
BYLAYER
  9
$CECOLOR
 62
   256
  9
$DIMSCALE
 40
1.0
  9
$DIMASZ
 40
2.5
  9
$DIMEXO
 40
0.625
  9
$DIMDLI
 40
3.75
  9
$DIMRND
 40
0.0
  9
$DIMDLE
 40
0.0
  9
$DIMEXE
 40
1.25
  9
$DIMTP
 40
0.0
  9
$DIMTM
 40
0.0
  9
$DIMTXT
 40
2.5
  9
$DIMCEN
 40
2.5
  9
$DIMTSZ
 40
0.0
  9
$DIMTOL
 70
     0
  9
$DIMLIM
 70
     0
  9
$DIMTIH
 70
     0
  9
$DIMTOH
 70
     0
  9
$DIMSE1
 70
     0
  9
$DIMSE2
 70
     0
  9
$DIMTAD
 70
     1
  9
$DIMZIN
 70
     8
  9
$DIMBLK
  1

  9
$DIMASO
 70
     1
  9
$DIMSHO
 70
     1
  9
$DIMPOST
  1

  9
$DIMAPOST
  1

  9
$DIMALT
 70
     0
  9
$DIMALTD
 70
     3
  9
$DIMALTF
 40
0.03937007874016
  9
$DIMLFAC
 40
1.0
  9
$DIMTOFL
 70
     1
  9
$DIMTVP
 40
0.0
  9
$DIMTIX
 70
     0
  9
$DIMSOXD
 70
     0
  9
$DIMSAH
 70
     0
  9
$DIMBLK1
  1

  9
$DIMBLK2
  1

  9
$DIMSTYLE
  2
ISO-25
  9
$DIMCLRD
 70
     0
  9
$DIMCLRE
 70
     0
  9
$DIMCLRT
 70
     0
  9
$DIMTFAC
 40
1.0
  9
$DIMGAP
 40
0.625
  9
$LUNITS
 70
     2
  9
$LUPREC
 70
     4
  9
$SKETCHINC
 40
1.0
  9
$FILLETRAD
 40
0.0
  9
$AUNITS
 70
     0
  9
$AUPREC
 70
     0
  9
$MENU
  1
.
  9
$ELEVATION
 40
0.0
  9
$PELEVATION
 40
0.0
  9
$THICKNESS
 40
0.0
  9
$LIMCHECK
 70
     0
  9
$BLIPMODE
 70
     0
  9
$CHAMFERA
 40
0.0
  9
$CHAMFERB
 40
0.0
  9
$SKPOLY
 70
     0
  9
$TDCREATE
 40
2456836.7320445948
  9
$TDUPDATE
 40
2456836.732196806
  9
$TDINDWG
 40
0.0001535532
  9
$TDUSRTIMER
 40
0.0001535185
  9
$USRTIMER
 70
     1
  9
$ANGBASE
 50
0.0
  9
$ANGDIR
 70
     0
  9
$PDMODE
 70
     0
  9
$PDSIZE
 40
0.0
  9
$PLINEWID
 40
0.0
  9
$COORDS
 70
     1
  9
$SPLFRAME
 70
     0
  9
$SPLINETYPE
 70
     6
  9
$SPLINESEGS
 70
     8
  9
$ATTDIA
 70
     1
  9
$ATTREQ
 70
     1
  9
$HANDLING
 70
     1
  9
$HANDSEED
  5
337
  9
$SURFTAB1
 70
     6
  9
$SURFTAB2
 70
     6
  9
$SURFTYPE
 70
     6
  9
$SURFU
 70
     6
  9
$SURFV
 70
     6
  9
$UCSNAME
  2

  9
$UCSORG
 10
0.0
 20
0.0
 30
0.0
  9
$UCSXDIR
 10
1.0
 20
0.0
 30
0.0
  9
$UCSYDIR
 10
0.0
 20
1.0
 30
0.0
  9
$PUCSNAME
  2

  9
$PUCSORG
 10
0.0
 20
0.0
 30
0.0
  9
$PUCSXDIR
 10
1.0
 20
0.0
 30
0.0
  9
$PUCSYDIR
 10
0.0
 20
1.0
 30
0.0
  9
$USERI1
 70
     0
  9
$USERI2
 70
     0
  9
$USERI3
 70
     0
  9
$USERI4
 70
     0
  9
$USERI5
 70
     0
  9
$USERR1
 40
0.0
  9
$USERR2
 40
0.0
  9
$USERR3
 40
0.0
  9
$USERR4
 40
0.0
  9
$USERR5
 40
0.0
  9
$WORLDVIEW
 70
     1
  9
$SHADEDGE
 70
     3
  9
$SHADEDIF
 70
    70
  9
$TILEMODE
 70
     1
  9
$MAXACTVP
 70
    64
  9
$PLIMCHECK
 70
     0
  9
$PEXTMIN
 10
0.0
 20
0.0
 30
0.0
  9
$PEXTMAX
 10
0.0
 20
0.0
 30
0.0
  9
$PLIMMIN
 10
0.0
 20
0.0
  9
$PLIMMAX
 10
12.0
 20
9.0
  9
$UNITMODE
 70
     0
  9
$VISRETAIN
 70
     1
  9
$PLINEGEN
 70
     0
  9
$PSLTSCALE
 70
     1
  0
ENDSEC
  0
SECTION
  2
TABLES
  0
TABLE
  2
VPORT
 70
     1
  0
VPORT
  2
*ACTIVE
 70
     0
 10
0.0
 20
0.0
 11
1.0
 21
1.0
 12
2250.2953572344568
 22
1579.020191076062
 13
0.0
 23
0.0
 14
10.0
 24
10.0
 15
10.0
 25
10.0
 16
0.0
 26
0.0
 36
1.0
 17
0.0
 27
0.0
 37
0.0
 40
20.196721311475809
 41
2.068965517241379
 42
50.0
 43
0.0
 44
0.0
 50
0.0
 51
0.0
 71
     0
 72
  1000
 73
     1
 74
     3
 75
     0
 76
     1
 77
     0
 78
     0
  0
ENDTAB
  0
TABLE
  2
LTYPE
 70
     1
  0
LTYPE
  2
CONTINUOUS
 70
     0
  3
Solid line
 72
    65
 73
     0
 40
0.0
  0
ENDTAB
  0
TABLE
  2
LAYER
 70
     1
  0
LAYER
  2
0
 70
     0
 62
     7
  6
CONTINUOUS
  0
ENDTAB
  0
TABLE
  2
STYLE
 70
     3
  0
STYLE
  2
STANDARD
 70
     0
 40
0.0
 41
1.0
 50
0.0
 71
     0
 42
2.5
  3
txt
  4

  0
STYLE
  2
ANNOTATIVE
 70
     0
 40
0.0
 41
1.0
 50
0.0
 71
     0
 42
2.5
  3
txt
  4

  0
STYLE
  2
ROMANT
 70
     0
 40
2.2000000000000002
 41
1.0
 50
15.0
 71
     0
 42
2.5
  3
romant.shx
  4

  0
ENDTAB
  0
TABLE
  2
VIEW
 70
     1
  0
ENDTAB
  0
TABLE
  2
UCS
 70
     0
  0
ENDTAB
  0
TABLE
  2
APPID
 70
    12
  0
APPID
  2
ACAD
 70
     0
  0
APPID
  2
ACAD_PSEXT
 70
     0
  0
APPID
  2
ACADANNOPO
 70
     0
  0
APPID
  2
ACADANNOTATIVE
 70
     0
  0
APPID
  2
ACAD_DSTYLE_DIMJAG
 70
     0
  0
APPID
  2
ACAD_DSTYLE_DIMTALN
 70
     0
  0
APPID
  2
ACAD_MLEADERVER
 70
     0
  0
APPID
  2
ACAD_NAV_VCDISPLAY
 70
     0
  0
APPID
  2
ACAD_DSTYLE_DIMJOGGED_JOGA
 70
     0
  0
APPID
  2
ACAD_DSTYLE_DIMBREAK
 70
     0
  0
APPID
  2
GRADIENTCOLOR1ACI
 70
     0
  0
APPID
  2
GRADIENTCOLOR2ACI
 70
     0
  0
ENDTAB
  0
TABLE
  2
DIMSTYLE
 70
     4
  0
DIMSTYLE
  2
STANDARD
 70
     0
  3

  4

  5

  6

  7

 40
1.0
 41
0.18
 42
0.0625
 43
0.38
 44
0.18
 45
0.0
 46
0.0
 47
0.0
 48
0.0
140
0.18
141
0.09
142
0.0
143
25.399999999999999
144
1.0
145
0.0
146
1.0
147
0.09
 71
     0
 72
     0
 73
     1
 74
     1
 75
     0
 76
     0
 77
     0
 78
     0
170
     0
171
     2
172
     0
173
     0
174
     0
175
     0
176
     0
177
     0
178
     0
  0
DIMSTYLE
  2
ANNOTATIVE
 70
     0
  3

  4

  5

  6

  7

 40
0.0
 41
2.5
 42
0.625
 43
3.75
 44
1.25
 45
0.0
 46
0.0
 47
0.0
 48
0.0
140
2.5
141
2.5
142
0.0
143
0.03937007874016
144
1.0
145
0.0
146
1.0
147
0.625
 71
     0
 72
     0
 73
     0
 74
     0
 75
     0
 76
     0
 77
     1
 78
     8
170
     0
171
     3
172
     1
173
     0
174
     0
175
     0
176
     0
177
     0
178
     0
  0
DIMSTYLE
  2
ISO-25
 70
     0
  3

  4

  5

  6

  7

 40
1.0
 41
2.5
 42
0.625
 43
3.75
 44
1.25
 45
0.0
 46
0.0
 47
0.0
 48
0.0
140
2.5
141
2.5
142
0.0
143
0.03937007874016
144
1.0
145
0.0
146
1.0
147
0.625
 71
     0
 72
     0
 73
     0
 74
     0
 75
     0
 76
     0
 77
     1
 78
     8
170
     0
171
     3
172
     1
173
     0
174
     0
175
     0
176
     0
177
     0
178
     0
  0
DIMSTYLE
  2
MELÝH_A4
 70
     0
  3

  4

  5

  6

  7

 40
1.0
 41
1.5
 42
0.0
 43
3.75
 44
0.5
 45
0.0
 46
0.0
 47
0.0
 48
0.0
140
2.2999999999999989
141
0.2
142
0.0
143
0.03937007874016
144
1.0
145
0.0
146
1.0
147
0.4
 71
     0
 72
     0
 73
     0
 74
     0
 75
     0
 76
     0
 77
     1
 78
     8
170
     0
171
     3
172
     0
173
     0
174
     0
175
     0
176
   242
177
   242
178
   242
  0
ENDTAB
  0
ENDSEC
  0
SECTION
  2
BLOCKS
  0
BLOCK
  8
0
  2
$MODEL_SPACE
 70
     0
 10
0.0
 20
0.0
 30
0.0
  3
$MODEL_SPACE
  1

  0
ENDBLK
  5
21
  8
0
  0
BLOCK
 67
     1
  8
0
  2
$PAPER_SPACE
 70
     0
 10
0.0
 20
0.0
 30
0.0
  3
$PAPER_SPACE
  1

  0
ENDBLK
  5
D5
 67
     1
  8
0
  0
BLOCK
  8
0
  2
*X2
 70
     1
 10
0.0
 20
0.0
 30
0.0
  3
*X2
  1

  0
LINE
  5
2D9
  8
0
 62
     0
 10
18.562048383854169
 20
0.0000000727712575
 30
0.0
 11
19.775634929311511
 21
1.213586618228589
 31
0.0
  0
LINE
  5
2DA
  8
0
 62
     0
 10
17.215009965693781
 20
0.0000000727712859
 30
0.0
 11
18.61500996569373
 21
1.4000000727712341
 31
0.0
  0
LINE
  5
2DB
  8
0
 62
     0
 10
15.86797154753347
 20
0.0000000727713143
 30
0.0
 11
17.267971547533421
 21
1.4000000727712629
 31
0.0
  0
LINE
  5
2DC
  8
0
 62
     0
 10
14.52093312937307
 20
0.0000000727713143
 30
0.0
 11
15.920933129373051
 21
1.4000000727712909
 31
0.0
  0
LINE
  5
2DD
  8
0
 62
     0
 10
13.173894711212711
 20
0.0000000727713143
 30
0.0
 11
14.57389471121266
 21
1.4000000727712629
 31
0.0
  0
LINE
  5
2DE
  8
0
 62
     0
 10
11.826856293052341
 20
0.0000000727713143
 30
0.0
 11
13.22685629305229
 21
1.4000000727712629
 31
0.0
  0
LINE
  5
2DF
  8
0
 62
     0
 10
10.47981787489201
 20
0.0000000727713427
 30
0.0
 11
11.87981787489195
 21
1.4000000727712629
 31
0.0
  0
LINE
  5
2E0
  8
0
 62
     0
 10
12.3327794567316
 20
3.2000000727713021
 30
0.0
 11
13.599999711602409
 21
4.4672203276421101
 31
0.0
  0
LINE
  5
2E1
  8
0
 62
     0
 10
9.1327794567316403
 20
0.0000000727713427
 30
0.0
 11
10.532779456731591
 21
1.4000000727712909
 31
0.0
  0
LINE
  5
2E2
  8
0
 62
     0
 10
10.98574103857117
 20
3.2000000727712741
 30
0.0
 11
13.55486252328072
 21
5.769121557480787
 31
0.0
  0
LINE
  5
2E3
  8
0
 62
     0
 10
7.7857410385712731
 20
0.0000000727713712
 30
0.0
 11
9.2999997116023678
 21
1.514258745802465
 31
0.0
  0
LINE
  5
2E4
  8
0
 62
     0
 10
9.6387026204108395
 20
3.2000000727712741
 30
0.0
 11
13.599999711602379
 21
7.1612971639628142
 31
0.0
  0
LINE
  5
2E5
  8
0
 62
     0
 10
6.4387026204108793
 20
0.0000000727713143
 30
0.0
 11
9.2999997116023678
 21
2.861297163962802
 31
0.0
  0
LINE
  5
2E6
  8
0
 62
     0
 10
5.0916642022504837
 20
0.0000000727713427
 30
0.0
 11
13.599999711602459
 21
8.5083355821233226
 31
0.0
  0
LINE
  5
2E7
  8
0
 62
     0
 10
11.24962412123088
 20
7.5049984099120763
 30
0.0
 11
13.599999711602459
 21
9.8553740002836605
 31
0.0
  0
LINE
  5
2E8
  8
0
 62
     0
 10
3.7446257840901458
 20
0.0000000727713427
 30
0.0
 11
10.344625784090111
 21
6.6000000727713077
 31
0.0
  0
LINE
  5
2E9
  8
0
 62
     0
 10
12.45679849464412
 20
10.059211201485709
 30
0.0
 11
13.14551171513761
 21
10.747924421979199
 31
0.0
  0
LINE
  5
2EA
  8
0
 62
     0
 10
2.5306825552814578
 20
0.1330952621230494
 30
0.0
 11
9.2999997116023962
 21
6.902412418443987
 31
0.0
  0
LINE
  5
2EB
  8
0
 62
     0
 10
6.8069052744749001
 20
5.7563563994768572
 30
0.0
 11
8.875274329685908
 21
7.8247254546878651
 31
0.0
  0
LINE
  5
2EC
  8
0
 62
     0
 10
6.1333860653947161
 20
6.4298756085570403
 30
0.0
 11
8.2017551206057249
 21
8.4982446637680482
 31
0.0
  0
LINE
  5
2ED
  8
0
 62
     0
 10
5.4598668563145623
 20
7.103394817637251
 30
0.0
 11
7.5282359115255701
 21
9.1717638728482598
 31
0.0
  0
LINE
  5
2EE
  8
0
 62
     0
 10
8.9348235162418348
 20
11.925389895724891
 30
0.0
 11
10.526213886595309
 21
13.51678026607834
 31
0.0
  0
LINE
  5
2EF
  8
0
 62
     0
 10
-0.0000002883975867
 20
2.9905660910854688
 30
0.0
 11
6.5999997116024067
 21
9.5905660910854635
 31
0.0
  0
LINE
  5
2F0
  8
0
 62
     0
 10
6.8623952751279091
 20
11.20000007277136
 30
0.0
 11
9.2623952751278864
 21
13.600000072771341
 31
0.0
  0
LINE
  5
2F1
  8
0
 62
     0
 10
-0.0000002883975867
 20
4.337604509245863
 30
0.0
 11
6.5999997116024067
 21
10.93760450924586
 31
0.0
  0
LINE
  5
2F2
  8
0
 62
     0
 10
-0.0000002883975867
 20
5.6846429274062009
 30
0.0
 11
7.8212640957324586
 21
13.50590731153625
 31
0.0
  0
LINE
  5
2F3
  8
0
 62
     0
 10
3.1999997116024579
 20
10.23168134556667
 30
0.0
 11
6.5683184388070961
 21
13.60000007277131
 31
0.0
  0
LINE
  5
2F4
  8
0
 62
     0
 10
-0.0000002883975867
 20
7.0316813455666241
 30
0.0
 11
2.2683184388070852
 21
9.3000000727712973
 31
0.0
  0
LINE
  5
2F5
  8
0
 62
     0
 10
3.1999997116024579
 20
11.57871976372701
 30
0.0
 11
5.2212800206467866
 21
13.600000072771341
 31
0.0
  0
LINE
  5
2F6
  8
0
 62
     0
 10
-0.0000002883975583
 20
8.3787197637269912
 30
0.0
 11
1.3999997116024749
 21
9.7787197637270253
 31
0.0
  0
LINE
  5
2F7
  8
0
 62
     0
 10
3.1999997116024872
 20
12.92575818188743
 30
0.0
 11
3.874241602486364
 21
13.60000007277128
 31
0.0
  0
LINE
  5
2F8
  8
0
 62
     0
 10
-0.0000002883975867
 20
9.7257581818873575
 30
0.0
 11
1.3999997116024181
 21
11.12575818188736
 31
0.0
  0
LINE
  5
2F9
  8
0
 62
     0
 10
-0.0000002883975583
 20
11.07279660004775
 30
0.0
 11
1.3999997116024181
 21
12.472796600047729
 31
0.0
  0
LINE
  5
2FA
  8
0
 62
     0
 10
-0.0000002883975583
 20
12.41983501820812
 30
0.0
 11
1.3999997116024181
 21
13.81983501820809
 31
0.0
  0
LINE
  5
2FB
  8
0
 62
     0
 10
-0.0000002883975299
 20
13.76687343636851
 30
0.0
 11
1.399999711602447
 21
15.166873436368491
 31
0.0
  0
LINE
  5
2FC
  8
0
 62
     0
 10
-0.0000002883975299
 20
15.11391185452888
 30
0.0
 11
1.399999711602447
 21
16.51391185452886
 31
0.0
  0
LINE
  5
2FD
  8
0
 62
     0
 10
-0.0000002883975583
 20
16.460950272689239
 30
0.0
 11
1.399999711602447
 21
17.860950272689252
 31
0.0
  0
LINE
  5
2FE
  8
0
 62
     0
 10
-0.0000002883975014
 20
17.807988690849669
 30
0.0
 11
1.399999711602447
 21
19.207988690849589
 31
0.0
  0
LINE
  5
2FF
  8
0
 62
     0
 10
-0.0000002883975583
 20
19.15502710901001
 30
0.0
 11
0.8323474471543761
 21
19.987374844561941
 31
0.0
  0
ENDBLK
  5
301
  8
0
  0
BLOCK
  8
0
  2
*U3
 70
     1
 10
0.0
 20
0.0
 30
0.0
  3
*U3
  1

  0
ARC
  5
303
  8
0
 10
0.4479997116023924
 20
2.8493347016808168
 30
0.0
 40
0.448
 50
180.0
 51
315.0
  0
LINE
  5
304
  8
0
 10
5.397747179908265
 20
7.1655144940435198
 30
0.0
 11
0.7647835495739628
 21
2.532550863709246
 31
0.0
  0
LINE
  5
305
  8
0
 10
-0.0000002883975867
 20
2.8493347016808168
 30
0.0
 11
-0.0000002883975299
 21
19.300000072771319
 31
0.0
  0
LINE
  5
306
  8
0
 10
7.1655141328745913
 20
5.3977475410771367
 30
0.0
 11
5.397747179908265
 21
7.1655144940435198
 31
0.0
  0
ARC
  5
307
  8
0
 10
0.6999997116024588
 20
19.30000007277129
 30
0.0
 40
0.6999999999999887
 50
0.0
 51
179.9999999999977
  0
LINE
  5
308
  8
0
 10
2.532550502540345
 20
0.7647839107428922
 30
0.0
 11
7.1655141328745913
 21
5.3977475410771367
 31
0.0
  0
LINE
  5
309
  8
0
 10
1.399999711602447
 20
19.30000007277129
 30
0.0
 11
1.399999711602447
 21
9.3000000727712973
 31
0.0
  0
ARC
  5
30A
  8
0
 10
2.849334340511859
 20
0.4480000727713218
 30
0.0
 40
0.4479999999999791
 50
134.9999999999948
 51
270.0
  0
LINE
  5
30B
  8
0
 10
1.399999711602447
 20
9.3000000727712973
 30
0.0
 11
3.1999997116024579
 21
9.3000000727712973
 31
0.0
  0
LINE
  5
30C
  8
0
 10
19.299999711602421
 20
0.0000000727713143
 30
0.0
 11
2.849334340511859
 21
0.0000000727713427
 31
0.0
  0
LINE
  5
30D
  8
0
 10
3.1999997116024579
 20
9.3000000727712973
 30
0.0
 11
3.1999997116024579
 21
13.35000007277131
 31
0.0
  0
ARC
  5
30E
  8
0
 10
19.299999711602371
 20
0.7000000727712746
 30
0.0
 40
0.6999999999999887
 50
270.0000000000046
 51
90.0
  0
ARC
  5
30F
  8
0
 10
3.4499997116024579
 20
13.35000007277131
 30
0.0
 40
0.25
 50
90.0
 51
180.0
  0
LINE
  5
310
  8
0
 10
9.2999997116023678
 20
1.4000000727713191
 30
0.0
 11
19.299999711602371
 21
1.4000000727712629
 31
0.0
  0
LINE
  5
311
  8
0
 10
3.4499997116024579
 20
13.60000007277131
 30
0.0
 11
5.6258339729063769
 21
13.60000007277131
 31
0.0
  0
LINE
  5
312
  8
0
 10
9.2999997116023678
 20
3.2000000727712741
 30
0.0
 11
9.2999997116023678
 21
1.4000000727713191
 31
0.0
  0
ARC
  5
313
  8
0
 10
5.625833972920872
 20
13.350000072763549
 30
0.0
 40
0.2500000000077591
 50
33.748988597893721
 51
90.000000003322029
  0
LINE
  5
314
  8
0
 10
13.349999711602431
 20
3.2000000727713021
 30
0.0
 11
9.2999997116023678
 21
3.2000000727712741
 31
0.0
  0
ARC
  5
315
  8
0
 10
5.9999997116117916
 20
13.60000007277131
 30
0.0
 40
0.2000000000077839
 50
213.7489885930778
 51
326.25101140394128
  0
ARC
  5
316
  8
0
 10
13.349999711602431
 20
3.4500000727713021
 30
0.0
 40
0.25
 50
270.0
 51
0.0
  0
ARC
  5
317
  8
0
 10
6.3741654502985616
 20
13.35000007277133
 30
0.0
 40
0.250000000000017
 50
90.000000000013031
 51
146.25101140544669
  0
LINE
  5
318
  8
0
 10
13.599999711602379
 20
5.6258343340752504
 30
0.0
 11
13.599999711602431
 21
3.4500000727713021
 31
0.0
  0
LINE
  5
319
  8
0
 10
6.3741654502985048
 20
13.60000007277131
 30
0.0
 11
7.62583397290632
 21
13.60000007277131
 31
0.0
  0
ARC
  5
31A
  8
0
 10
13.349999711602379
 20
5.6258343340752779
 30
0.0
 40
0.2499999999999935
 50
359.99999999999352
 51
56.251011405419568
  0
ARC
  5
31B
  8
0
 10
7.625833972920872
 20
13.350000072763519
 30
0.0
 40
0.2500000000077875
 50
33.748988597899142
 51
90.000000003335046
  0
ARC
  5
31C
  8
0
 10
13.599999711602431
 20
6.0000000727619627
 30
0.0
 40
0.2000000000077602
 50
123.7489885930823
 51
236.25101140394131
  0
ARC
  5
31D
  8
0
 10
7.9999997116117916
 20
13.60000007277131
 30
0.0
 40
0.2000000000077839
 50
213.7489885930778
 51
326.25101140393912
  0
ARC
  5
31E
  8
0
 10
13.34999971159459
 20
6.374165811452797
 30
0.0
 40
0.2500000000077875
 50
303.74898859791722
 51
0.0000000033350922
  0
ARC
  5
31F
  8
0
 10
8.3741654502983902
 20
13.35000007277133
 30
0.0
 40
0.2499999999999383
 50
89.999999999986969
 51
146.25101140542679
  0
LINE
  5
320
  8
0
 10
13.599999711602431
 20
7.6258343340752504
 30
0.0
 11
13.599999711602379
 21
6.374165811467349
 31
0.0
  0
LINE
  5
321
  8
0
 10
8.3741654502984488
 20
13.60000007277131
 30
0.0
 11
10.24999971160241
 21
13.600000072771341
 31
0.0
  0
ARC
  5
322
  8
0
 10
13.349999711602431
 20
7.625834334075221
 30
0.0
 40
0.2500000000000091
 50
0.0000000000065138
 51
56.25101140543763
  0
ARC
  5
323
  8
0
 10
10.24999971160241
 20
13.100000072771341
 30
0.0
 40
0.5
 50
295.2963973908237
 51
90.0
  0
ARC
  5
324
  8
0
 10
13.599999711602431
 20
8.0000000727619636
 30
0.0
 40
0.2000000000077839
 50
123.7489885930778
 51
236.25101140394139
  0
LINE
  5
325
  8
0
 10
10.46365021969728
 20
12.647945363260639
 30
0.0
 11
7.4507224890903103
 21
11.22397271801597
 31
0.0
  0
ARC
  5
326
  8
0
 10
13.34999971159476
 20
8.3741658114528832
 30
0.0
 40
0.2500000000077307
 50
303.74898859787749
 51
0.0000000033285374
  0
ARC
  5
327
  8
0
 10
7.3438972350429017
 20
11.450000072771269
 30
0.0
 40
0.2499999999999453
 50
270.0
 51
295.29639739082199
  0
LINE
  5
328
  8
0
 10
13.599999711602431
 20
10.250000072771281
 30
0.0
 11
13.599999711602489
 21
8.3741658114674067
 31
0.0
  0
LINE
  5
329
  8
0
 10
7.3438972350429017
 20
11.20000007277133
 30
0.0
 11
6.599999711602436
 21
11.20000007277133
 31
0.0
  0
ARC
  5
32A
  8
0
 10
13.099999711602379
 20
10.250000072771281
 30
0.0
 40
0.4999999999999663
 50
0.0
 51
154.70360260917491
  0
LINE
  5
32B
  8
0
 10
6.599999711602436
 20
11.20000007277133
 30
0.0
 11
6.599999711602436
 21
9.3000000727713541
 31
0.0
  0
LINE
  5
32C
  8
0
 10
11.223972356847071
 20
7.4507228502592682
 30
0.0
 11
12.647945002091721
 21
10.46365058086616
 31
0.0
  0
LINE
  5
32D
  8
0
 10
6.599999711602436
 20
9.3000000727713541
 30
0.0
 11
7.2964463210091699
 21
9.3000000727713257
 31
0.0
  0
ARC
  5
32E
  8
0
 10
11.449999711602461
 20
7.3438975962117752
 30
0.0
 40
0.2500000000000568
 50
154.70360260916871
 51
179.99999999998701
  0
ARC
  5
32F
  8
0
 10
7.2964463210091699
 20
9.0500000727712688
 30
0.0
 40
0.2500000000000568
 50
45.000000000004597
 51
90.0
  0
LINE
  5
330
  8
0
 10
11.1999997116024
 20
6.6000000727713077
 30
0.0
 11
11.1999997116024
 21
7.343897596211832
 31
0.0
  0
LINE
  5
331
  8
0
 10
7.4732230163058366
 20
9.2267767680679622
 30
0.0
 11
9.2267764068990914
 21
7.4732233774746533
 31
0.0
  0
LINE
  5
332
  8
0
 10
9.2999997116023678
 20
6.6000000727713077
 30
0.0
 11
11.1999997116024
 21
6.6000000727713077
 31
0.0
  0
ARC
  5
333
  8
0
 10
9.0499997116024247
 20
7.2964466821780434
 30
0.0
 40
0.250000000000002
 50
359.99999999999352
 51
44.999999999990798
  0
LINE
  5
334
  8
0
 10
9.2999997116024247
 20
7.2964466821780141
 30
0.0
 11
9.2999997116023678
 21
6.6000000727713077
 31
0.0
  0
ENDBLK
  5
336
  8
0
  0
ENDSEC
  0
SECTION
  2
ENTITIES
  0
ARC
  5
252
  8
0
 10
2240.7433572344571
 20
1571.8695257049719
 30
0.0
 40
0.448
 50
180.0
 51
315.00000000002058
  0
LINE
  5
253
  8
0
 10
2245.6931047027629
 20
1576.1857054973341
 30
0.0
 11
2241.0601410724289
 21
1571.5527418669999
 31
0.0
  0
LINE
  5
254
  8
0
 10
2240.2953572344568
 20
1571.8695257049719
 30
0.0
 11
2240.2953572344568
 21
1588.320191076062
 31
0.0
  0
LINE
  5
255
  8
0
 10
2247.46087165573
 20
1574.4179385443681
 30
0.0
 11
2245.6931047027629
 21
1576.1857054973341
 31
0.0
  0
ARC
  5
256
  8
0
 10
2240.995357234458
 20
1588.320191076062
 30
0.0
 40
0.6999999999999887
 50
0.0
 51
180.0
  0
LINE
  5
257
  8
0
 10
2242.8279080253951
 20
1569.7849749140339
 30
0.0
 11
2247.46087165573
 21
1574.4179385443681
 31
0.0
  0
LINE
  5
258
  8
0
 10
2241.6953572344578
 20
1588.320191076062
 30
0.0
 11
2241.6953572344578
 21
1578.320191076062
 31
0.0
  0
ARC
  5
259
  8
0
 10
2243.1446918633669
 20
1569.4681910760621
 30
0.0
 40
0.4479999999999791
 50
134.99999999997939
 51
270.0
  0
LINE
  5
25A
  8
0
 10
2241.6953572344578
 20
1578.320191076062
 30
0.0
 11
2243.495357234458
 21
1578.320191076062
 31
0.0
  0
LINE
  5
25B
  8
0
 10
2259.5953572344579
 20
1569.020191076062
 30
0.0
 11
2243.1446918633669
 21
1569.020191076062
 31
0.0
  0
LINE
  5
25C
  8
0
 10
2243.495357234458
 20
1578.320191076062
 30
0.0
 11
2243.495357234458
 21
1582.3701910760619
 31
0.0
  0
ARC
  5
25D
  8
0
 10
2259.595357234457
 20
1569.7201910760621
 30
0.0
 40
0.6999999999999887
 50
270.00000000003718
 51
90.0
  0
ARC
  5
25E
  8
0
 10
2243.745357234458
 20
1582.3701910760619
 30
0.0
 40
0.25
 50
90.0
 51
180.0
  0
LINE
  5
25F
  8
0
 10
2249.595357234457
 20
1570.4201910760621
 30
0.0
 11
2259.595357234457
 21
1570.4201910760621
 31
0.0
  0
LINE
  5
260
  8
0
 10
2243.745357234458
 20
1582.6201910760619
 30
0.0
 11
2245.9211914957609
 21
1582.6201910760619
 31
0.0
  0
LINE
  5
261
  8
0
 10
2249.595357234457
 20
1572.2201910760621
 30
0.0
 11
2249.595357234457
 21
1570.4201910760621
 31
0.0
  0
ARC
  5
262
  8
0
 10
2245.9211914957759
 20
1582.3701910760551
 30
0.0
 40
0.2500000000077591
 50
33.748988597935323
 51
90.000000003335046
  0
LINE
  5
263
  8
0
 10
2253.6453572344572
 20
1572.2201910760621
 30
0.0
 11
2249.595357234457
 21
1572.2201910760621
 31
0.0
  0
ARC
  5
264
  8
0
 10
2246.2953572344668
 20
1582.6201910760619
 30
0.0
 40
0.2000000000077839
 50
213.748988593028
 51
326.25101140390058
  0
ARC
  5
265
  8
0
 10
2253.6453572344572
 20
1572.4701910760621
 30
0.0
 40
0.25
 50
270.0
 51
0.0
  0
ARC
  5
266
  8
0
 10
2246.6695229731531
 20
1582.3701910760619
 30
0.0
 40
0.250000000000017
 50
90.000000000104208
 51
146.2510114054738
  0
LINE
  5
267
  8
0
 10
2253.8953572344572
 20
1574.6460253373659
 30
0.0
 11
2253.8953572344572
 21
1572.4701910760621
 31
0.0
  0
LINE
  5
268
  8
0
 10
2246.6695229731531
 20
1582.6201910760619
 30
0.0
 11
2247.9211914957609
 21
1582.6201910760619
 31
0.0
  0
ARC
  5
269
  8
0
 10
2253.6453572344572
 20
1574.6460253373659
 30
0.0
 40
0.2499999999999935
 50
0.0
 51
56.251011405415937
  0
ARC
  5
26A
  8
0
 10
2247.9211914957759
 20
1582.3701910760551
 30
0.0
 40
0.2500000000077875
 50
33.748988597935323
 51
90.000000003335046
  0
ARC
  5
26B
  8
0
 10
2253.8953572344572
 20
1575.0201910760529
 30
0.0
 40
0.2000000000077602
 50
123.7489885930642
 51
236.25101140393679
  0
ARC
  5
26C
  8
0
 10
2248.2953572344668
 20
1582.6201910760619
 30
0.0
 40
0.2000000000077839
 50
213.748988593028
 51
326.25101140390058
  0
ARC
  5
26D
  8
0
 10
2253.6453572344499
 20
1575.394356814744
 30
0.0
 40
0.2500000000077875
 50
303.74898859790642
 51
0.0000000033350922
  0
ARC
  5
26E
  8
0
 10
2248.6695229731531
 20
1582.3701910760619
 30
0.0
 40
0.2499999999999383
 50
90.0
 51
146.25101140541591
  0
LINE
  5
26F
  8
0
 10
2253.8953572344572
 20
1576.6460253373659
 30
0.0
 11
2253.8953572344572
 21
1575.3943568147581
 31
0.0
  0
LINE
  5
270
  8
0
 10
2248.6695229731531
 20
1582.6201910760619
 30
0.0
 11
2250.5453572344568
 21
1582.6201910760619
 31
0.0
  0
ARC
  5
271
  8
0
 10
2253.6453572344572
 20
1576.6460253373659
 30
0.0
 40
0.2500000000000091
 50
0.0
 51
56.251011405415952
  0
ARC
  5
272
  8
0
 10
2250.5453572344568
 20
1582.1201910760619
 30
0.0
 40
0.5
 50
295.29639739081358
 51
90.0
  0
ARC
  5
273
  8
0
 10
2253.8953572344572
 20
1577.0201910760529
 30
0.0
 40
0.2000000000077839
 50
123.748988593028
 51
236.25101140393679
  0
LINE
  5
274
  8
0
 10
2250.7590077425521
 20
1581.6681363665509
 30
0.0
 11
2247.7460800119452
 21
1580.2441637213069
 31
0.0
  0
ARC
  5
275
  8
0
 10
2253.6453572344499
 20
1577.394356814744
 30
0.0
 40
0.2500000000077307
 50
303.74898859790642
 51
0.0000000033350922
  0
ARC
  5
276
  8
0
 10
2247.6392547578971
 20
1580.4701910760621
 30
0.0
 40
0.2499999999999453
 50
270.0
 51
295.2963973908831
  0
LINE
  5
277
  8
0
 10
2253.8953572344572
 20
1579.270191076062
 30
0.0
 11
2253.8953572344572
 21
1577.394356814759
 31
0.0
  0
LINE
  5
278
  8
0
 10
2247.6392547578971
 20
1580.2201910760621
 30
0.0
 11
2246.8953572344572
 21
1580.2201910760621
 31
0.0
  0
ARC
  5
279
  8
0
 10
2253.3953572344572
 20
1579.270191076062
 30
0.0
 40
0.4999999999999663
 50
0.0
 51
154.70360260918631
  0
LINE
  5
27A
  8
0
 10
2246.8953572344572
 20
1580.2201910760621
 30
0.0
 11
2246.8953572344572
 21
1578.320191076062
 31
0.0
  0
LINE
  5
27B
  8
0
 10
2251.5193298797021
 20
1576.47091385355
 30
0.0
 11
2252.9433025249468
 21
1579.4838415841571
 31
0.0
  0
LINE
  5
27C
  8
0
 10
2246.8953572344572
 20
1578.320191076062
 30
0.0
 11
2247.591803843864
 21
1578.320191076062
 31
0.0
  0
ARC
  5
27D
  8
0
 10
2251.745357234458
 20
1576.364088599503
 30
0.0
 40
0.2500000000000568
 50
154.70360260913921
 51
180.0
  0
ARC
  5
27E
  8
0
 10
2247.591803843864
 20
1578.070191076062
 30
0.0
 40
0.2500000000000568
 50
45.0
 51
90.0
  0
LINE
  5
27F
  8
0
 10
2251.4953572344571
 20
1575.6201910760619
 30
0.0
 11
2251.4953572344571
 21
1576.364088599503
 31
0.0
  0
LINE
  5
280
  8
0
 10
2247.7685805391611
 20
1578.2469677713591
 30
0.0
 11
2249.5221339297541
 21
1576.4934143807659
 31
0.0
  0
LINE
  5
281
  8
0
 10
2249.595357234457
 20
1575.6201910760619
 30
0.0
 11
2251.4953572344571
 21
1575.6201910760619
 31
0.0
  0
ARC
  5
282
  8
0
 10
2249.345357234457
 20
1576.316637685469
 30
0.0
 40
0.250000000000002
 50
359.99999999994787
 51
44.999999999963137
  0
LINE
  5
283
  8
0
 10
2249.5953572344579
 20
1576.316637685469
 30
0.0
 11
2249.595357234457
 21
1575.6201910760619
 31
0.0
  0
ENDSEC
  0
EOF
