  0
SECTION
  2
HEADER
  9
$ACADVER
  1
AC1009
  9
$INSBASE
 10
0.0
 20
0.0
 30
0.0
  9
$EXTMIN
 10
1496.0379740777801
 20
2116.2104056797202
 30
0.0
  9
$EXTMAX
 10
1517.9379740977799
 20
2138.1104056997201
 30
0.0
  9
$LIMMIN
 10
0.0
 20
0.0
  9
$LIMMAX
 10
420.0
 20
297.0
  9
$ORTHOMODE
 70
     0
  9
$REGENMODE
 70
     1
  9
$FILLMODE
 70
     1
  9
$QTEXTMODE
 70
     0
  9
$MIRRTEXT
 70
     0
  9
$DRAGMODE
 70
     2
  9
$LTSCALE
 40
1.0
  9
$OSMODE
 70
  4095
  9
$ATTMODE
 70
     1
  9
$TEXTSIZE
 40
2.5
  9
$TRACEWID
 40
1.0
  9
$TEXTSTYLE
  7
STANDARD
  9
$CLAYER
  8
0
  9
$CELTYPE
  6
BYLAYER
  9
$CECOLOR
 62
   256
  9
$DIMSCALE
 40
1.0
  9
$DIMASZ
 40
2.5
  9
$DIMEXO
 40
0.625
  9
$DIMDLI
 40
3.75
  9
$DIMRND
 40
0.0
  9
$DIMDLE
 40
0.0
  9
$DIMEXE
 40
1.25
  9
$DIMTP
 40
0.0
  9
$DIMTM
 40
0.0
  9
$DIMTXT
 40
2.5
  9
$DIMCEN
 40
2.5
  9
$DIMTSZ
 40
0.0
  9
$DIMTOL
 70
     0
  9
$DIMLIM
 70
     0
  9
$DIMTIH
 70
     0
  9
$DIMTOH
 70
     0
  9
$DIMSE1
 70
     0
  9
$DIMSE2
 70
     0
  9
$DIMTAD
 70
     1
  9
$DIMZIN
 70
     8
  9
$DIMBLK
  1

  9
$DIMASO
 70
     1
  9
$DIMSHO
 70
     1
  9
$DIMPOST
  1

  9
$DIMAPOST
  1

  9
$DIMALT
 70
     0
  9
$DIMALTD
 70
     3
  9
$DIMALTF
 40
0.03937007874016
  9
$DIMLFAC
 40
1.0
  9
$DIMTOFL
 70
     1
  9
$DIMTVP
 40
0.0
  9
$DIMTIX
 70
     0
  9
$DIMSOXD
 70
     0
  9
$DIMSAH
 70
     0
  9
$DIMBLK1
  1

  9
$DIMBLK2
  1

  9
$DIMSTYLE
  2
ISO-25
  9
$DIMCLRD
 70
     0
  9
$DIMCLRE
 70
     0
  9
$DIMCLRT
 70
     0
  9
$DIMTFAC
 40
1.0
  9
$DIMGAP
 40
0.625
  9
$LUNITS
 70
     2
  9
$LUPREC
 70
     4
  9
$SKETCHINC
 40
1.0
  9
$FILLETRAD
 40
0.0
  9
$AUNITS
 70
     0
  9
$AUPREC
 70
     0
  9
$MENU
  1
.
  9
$ELEVATION
 40
0.0
  9
$PELEVATION
 40
0.0
  9
$THICKNESS
 40
0.0
  9
$LIMCHECK
 70
     0
  9
$BLIPMODE
 70
     0
  9
$CHAMFERA
 40
0.0
  9
$CHAMFERB
 40
0.0
  9
$SKPOLY
 70
     0
  9
$TDCREATE
 40
2457379.609253773
  9
$TDUPDATE
 40
2457379.6093729278
  9
$TDINDWG
 40
0.0001199421
  9
$TDUSRTIMER
 40
0.0001199306
  9
$USRTIMER
 70
     1
  9
$ANGBASE
 50
0.0
  9
$ANGDIR
 70
     0
  9
$PDMODE
 70
     0
  9
$PDSIZE
 40
0.0
  9
$PLINEWID
 40
0.0
  9
$COORDS
 70
     1
  9
$SPLFRAME
 70
     0
  9
$SPLINETYPE
 70
     6
  9
$SPLINESEGS
 70
     8
  9
$ATTDIA
 70
     1
  9
$ATTREQ
 70
     1
  9
$HANDLING
 70
     1
  9
$HANDSEED
  5
30A
  9
$SURFTAB1
 70
     6
  9
$SURFTAB2
 70
     6
  9
$SURFTYPE
 70
     6
  9
$SURFU
 70
     6
  9
$SURFV
 70
     6
  9
$UCSNAME
  2

  9
$UCSORG
 10
0.0
 20
0.0
 30
0.0
  9
$UCSXDIR
 10
1.0
 20
0.0
 30
0.0
  9
$UCSYDIR
 10
0.0
 20
1.0
 30
0.0
  9
$PUCSNAME
  2

  9
$PUCSORG
 10
0.0
 20
0.0
 30
0.0
  9
$PUCSXDIR
 10
1.0
 20
0.0
 30
0.0
  9
$PUCSYDIR
 10
0.0
 20
1.0
 30
0.0
  9
$USERI1
 70
     0
  9
$USERI2
 70
     0
  9
$USERI3
 70
     0
  9
$USERI4
 70
     0
  9
$USERI5
 70
     0
  9
$USERR1
 40
0.0
  9
$USERR2
 40
0.0
  9
$USERR3
 40
0.0
  9
$USERR4
 40
0.0
  9
$USERR5
 40
0.0
  9
$WORLDVIEW
 70
     1
  9
$SHADEDGE
 70
     3
  9
$SHADEDIF
 70
    70
  9
$TILEMODE
 70
     1
  9
$MAXACTVP
 70
    64
  9
$PLIMCHECK
 70
     0
  9
$PEXTMIN
 10
0.0
 20
0.0
 30
0.0
  9
$PEXTMAX
 10
0.0
 20
0.0
 30
0.0
  9
$PLIMMIN
 10
0.0
 20
0.0
  9
$PLIMMAX
 10
12.0
 20
9.0
  9
$UNITMODE
 70
     0
  9
$VISRETAIN
 70
     1
  9
$PLINEGEN
 70
     0
  9
$PSLTSCALE
 70
     1
  0
ENDSEC
  0
SECTION
  2
TABLES
  0
TABLE
  2
VPORT
 70
     1
  0
VPORT
  2
*ACTIVE
 70
     0
 10
0.0
 20
0.0
 11
1.0
 21
1.0
 12
1506.98797408778
 22
2127.160405689719
 13
0.0
 23
0.0
 14
10.0
 24
10.0
 15
10.0
 25
10.0
 16
0.0
 26
0.0
 36
1.0
 17
0.0
 27
0.0
 37
0.0
 40
22.071093770156491
 41
2.289439374185136
 42
50.0
 43
0.0
 44
0.0
 50
0.0
 51
0.0
 71
     0
 72
  1000
 73
     1
 74
     3
 75
     0
 76
     1
 77
     0
 78
     0
  0
ENDTAB
  0
TABLE
  2
LTYPE
 70
     1
  0
LTYPE
  2
CONTINUOUS
 70
     0
  3
Solid line
 72
    65
 73
     0
 40
0.0
  0
ENDTAB
  0
TABLE
  2
LAYER
 70
     1
  0
LAYER
  2
0
 70
     0
 62
     7
  6
CONTINUOUS
  0
ENDTAB
  0
TABLE
  2
STYLE
 70
     3
  0
STYLE
  2
STANDARD
 70
     0
 40
0.0
 41
1.0
 50
0.0
 71
     0
 42
2.5
  3
txt
  4

  0
STYLE
  2
ANNOTATIVE
 70
     0
 40
0.0
 41
1.0
 50
0.0
 71
     0
 42
2.5
  3
txt
  4

  0
STYLE
  2
ROMANT
 70
     0
 40
2.5
 41
1.0
 50
15.0
 71
     0
 42
2.5
  3
C:\ACADR13\COMMON\FONTS\romant.shx
  4

  0
ENDTAB
  0
TABLE
  2
VIEW
 70
     1
  0
ENDTAB
  0
TABLE
  2
UCS
 70
     0
  0
ENDTAB
  0
TABLE
  2
APPID
 70
    11
  0
APPID
  2
ACAD
 70
     0
  0
APPID
  2
ACAD_PSEXT
 70
     0
  0
APPID
  2
ACADANNOPO
 70
     0
  0
APPID
  2
ACADANNOTATIVE
 70
     0
  0
APPID
  2
ACAD_DSTYLE_DIMJAG
 70
     0
  0
APPID
  2
ACAD_DSTYLE_DIMTALN
 70
     0
  0
APPID
  2
ACAD_MLEADERVER
 70
     0
  0
APPID
  2
ACAD_NAV_VCDISPLAY
 70
     0
  0
APPID
  2
GRADIENTCOLOR1ACI
 70
     0
  0
APPID
  2
GRADIENTCOLOR2ACI
 70
     0
  0
APPID
  2
DCO15
 70
     0
  0
ENDTAB
  0
TABLE
  2
DIMSTYLE
 70
     5
  0
DIMSTYLE
  2
STANDARD
 70
     0
  3

  4

  5

  6

  7

 40
1.0
 41
0.18
 42
0.0625
 43
0.38
 44
0.18
 45
0.0
 46
0.0
 47
0.0
 48
0.0
140
0.18
141
0.09
142
0.0
143
25.399999999999999
144
1.0
145
0.0
146
1.0
147
0.09
 71
     0
 72
     0
 73
     1
 74
     1
 75
     0
 76
     0
 77
     0
 78
     0
170
     0
171
     2
172
     0
173
     0
174
     0
175
     0
176
     0
177
     0
178
     0
  0
DIMSTYLE
  2
ANNOTATIVE
 70
     0
  3

  4

  5

  6

  7

 40
0.0
 41
2.5
 42
0.625
 43
3.75
 44
1.25
 45
0.0
 46
0.0
 47
0.0
 48
0.0
140
2.5
141
2.5
142
0.0
143
0.03937007874016
144
1.0
145
0.0
146
1.0
147
0.625
 71
     0
 72
     0
 73
     0
 74
     0
 75
     0
 76
     0
 77
     1
 78
     8
170
     0
171
     3
172
     1
173
     0
174
     0
175
     0
176
     0
177
     0
178
     0
  0
DIMSTYLE
  2
ISO-25
 70
     0
  3

  4

  5

  6

  7

 40
1.0
 41
2.5
 42
0.625
 43
3.75
 44
1.25
 45
0.0
 46
0.0
 47
0.0
 48
0.0
140
2.5
141
2.5
142
0.0
143
0.03937007874016
144
1.0
145
0.0
146
1.0
147
0.625
 71
     0
 72
     0
 73
     0
 74
     0
 75
     0
 76
     0
 77
     1
 78
     8
170
     0
171
     3
172
     1
173
     0
174
     0
175
     0
176
     0
177
     0
178
     0
  0
DIMSTYLE
  2
ÝSMAIL_1_5___1
 70
     0
  3

  4

  5

  6

  7

 40
0.0
 41
2.0
 42
0.625
 43
0.38
 44
0.18
 45
0.0
 46
0.0
 47
0.0135
 48
0.0135
140
0.18
141
0.137
142
0.0
143
25.399999999999999
144
0.333333333333333
145
0.0
146
1.0
147
0.5
 71
     0
 72
     0
 73
     0
 74
     0
 75
     0
 76
     0
 77
     1
 78
     8
170
     0
171
     2
172
     0
173
     0
174
     0
175
     0
176
     5
177
     5
178
     5
  0
DIMSTYLE
  2
MELÝH_A4
 70
     0
  3

  4

  5

  6

  7

 40
1.0
 41
1.5
 42
0.0
 43
3.75
 44
0.5
 45
0.0
 46
0.0
 47
0.0
 48
0.0
140
2.2999999999999989
141
0.2
142
0.0
143
0.03937007874016
144
1.0
145
0.0
146
1.0
147
0.4
 71
     0
 72
     0
 73
     0
 74
     0
 75
     0
 76
     0
 77
     1
 78
     8
170
     0
171
     3
172
     0
173
     0
174
     0
175
     0
176
   242
177
   242
178
   242
  0
ENDTAB
  0
ENDSEC
  0
SECTION
  2
BLOCKS
  0
BLOCK
  8
0
  2
$MODEL_SPACE
 70
     0
 10
0.0
 20
0.0
 30
0.0
  3
$MODEL_SPACE
  1

  0
ENDBLK
  5
21
  8
0
  0
BLOCK
 67
     1
  8
0
  2
$PAPER_SPACE
 70
     0
 10
0.0
 20
0.0
 30
0.0
  3
$PAPER_SPACE
  1

  0
ENDBLK
  5
D5
 67
     1
  8
0
  0
BLOCK
  8
0
  2
*X2
 70
     1
 10
0.0
 20
0.0
 30
0.0
  3
*X2
  1

  0
LINE
  5
2C7
  8
0
 62
     0
 10
17.965908829299511
 20
2.5428879039246222
 30
0.0
 11
19.357112817022511
 21
3.9340918916476251
 31
0.0
  0
LINE
  5
2C8
  8
0
 62
     0
 10
15.52784101805039
 20
1.00284570478243
 30
0.0
 11
20.897155016164671
 21
6.3721597028967087
 31
0.0
  0
LINE
  5
2C9
  8
0
 62
     0
 10
14.085485853888709
 20
0.4585161527276398
 30
0.0
 11
21.44148456821944
 21
7.8145148670583628
 31
0.0
  0
LINE
  5
2CA
  8
0
 62
     0
 10
12.90485220139675
 20
0.1759081123426256
 30
0.0
 11
21.724092608604451
 21
8.9951485195502983
 31
0.0
  0
LINE
  5
2CB
  8
0
 62
     0
 10
11.869601673750161
 20
0.0386831968029355
 30
0.0
 11
21.861317524144141
 21
10.03039904719691
 31
0.0
  0
LINE
  5
2CC
  8
0
 62
     0
 10
17.87177063227648
 20
6.9388777674361961
 30
0.0
 11
21.899987389759531
 21
10.96709452491924
 31
0.0
  0
LINE
  5
2CD
  8
0
 62
     0
 10
10.93290619602783
 20
0.0000133311875459
 30
0.0
 11
14.961122953510881
 21
4.028230088670596
 31
0.0
  0
LINE
  5
2CE
  8
0
 62
     0
 10
18.579973660452531
 20
8.5451064077191461
 30
0.0
 11
21.8646039476094
 21
11.829736694876001
 31
0.0
  0
LINE
  5
2CF
  8
0
 62
     0
 10
10.070264026071071
 20
0.0353967733376806
 30
0.0
 11
13.354894313227931
 21
3.3200270604945379
 31
0.0
  0
LINE
  5
2D0
  8
0
 62
     0
 10
18.854516895079261
 20
9.7176752544527574
 30
0.0
 11
21.769883778844981
 21
12.63304213821848
 31
0.0
  0
LINE
  5
2D1
  8
0
 62
     0
 10
9.2669585827285914
 20
0.1301169421020916
 30
0.0
 11
12.182325466494319
 21
3.045483825867819
 31
0.0
  0
LINE
  5
2D2
  8
0
 62
     0
 10
18.946324763262108
 20
10.707508734742561
 30
0.0
 11
21.625453728728619
 21
13.386637700209061
 31
0.0
  0
LINE
  5
2D3
  8
0
 62
     0
 10
8.5133630207380691
 20
0.274546992218518
 30
0.0
 11
11.192491986204541
 21
2.9536759576849931
 31
0.0
  0
LINE
  5
2D4
  8
0
 62
     0
 10
18.924835340864568
 20
11.584044924451909
 30
0.0
 11
21.43797958007022
 21
14.097189163657561
 31
0.0
  0
LINE
  5
2D5
  8
0
 62
     0
 10
7.8028115572895436
 20
0.4620211408768853
 30
0.0
 11
10.31595579649519
 21
2.9751653800825291
 31
0.0
  0
LINE
  5
2D6
  8
0
 62
     0
 10
18.821404033662439
 20
12.378639229356731
 30
0.0
 11
21.212259683940061
 21
14.769494879634349
 31
0.0
  0
LINE
  5
2D7
  8
0
 62
     0
 10
7.1305058413127247
 20
0.6877410370070152
 30
0.0
 11
9.5213614915903406
 21
3.0785966872846302
 31
0.0
  0
LINE
  5
2D8
  8
0
 62
     0
 10
18.65328963649171
 20
13.10855044429289
 30
0.0
 11
20.9518387399491
 21
15.407099547750279
 31
0.0
  0
LINE
  5
2D9
  8
0
 62
     0
 10
6.4929011731968274
 20
0.9481619809980088
 30
0.0
 11
8.7914502766541887
 21
3.2467110844553702
 31
0.0
  0
LINE
  5
2DA
  8
0
 62
     0
 10
18.431071271962509
 20
13.784357691870611
 30
0.0
 11
20.65937535781714
 21
16.012661777725238
 31
0.0
  0
LINE
  5
2DB
  8
0
 62
     0
 10
5.887338943221863
 20
1.240625363129964
 30
0.0
 11
8.1156430290765211
 21
3.4689294489846239
 31
0.0
  0
LINE
  5
2DC
  8
0
 62
     0
 10
18.161650409069662
 20
14.412962441084691
 30
0.0
 11
20.336872948555001
 21
16.58818498057002
 31
0.0
  0
LINE
  5
2DD
  8
0
 62
     0
 10
5.3118157403770851
 20
1.5631277723921071
 30
0.0
 11
7.4870382798623893
 21
3.7383503118774111
 31
0.0
  0
LINE
  5
2DE
  8
0
 62
     0
 10
17.849674612789379
 20
14.9990122569113
 30
0.0
 11
19.985829688729488
 21
17.13516733285141
 31
0.0
  0
LINE
  5
2DF
  8
0
 62
     0
 10
4.764833388095667
 20
1.9141710322175809
 30
0.0
 11
6.9009884640358052
 21
4.0503261081577193
 31
0.0
  0
LINE
  5
2E0
  8
0
 62
     0
 10
17.498284558232399
 20
15.54564781446126
 30
0.0
 11
19.60733775099845
 21
17.65470100722732
 31
0.0
  0
LINE
  5
2E1
  8
0
 62
     0
 10
4.245299713719759
 20
2.2926629699486218
 30
0.0
 11
6.3543529064858433
 21
4.4017161627147061
 31
0.0
  0
LINE
  5
2E2
  8
0
 62
     0
 10
17.10953010804965
 20
16.054918976385409
 30
0.0
 11
19.202148917164578
 21
18.147537785500329
 31
0.0
  0
LINE
  5
2E3
  8
0
 62
     0
 10
3.752462935446772
 20
2.6978518037825259
 30
0.0
 11
5.845081744561667
 21
4.7904706128974217
 31
0.0
  0
LINE
  5
2E4
  8
0
 62
     0
 10
16.68460554993149
 20
16.528020030374162
 30
0.0
 11
18.770716532992189
 21
18.614131013434871
 31
0.0
  0
LINE
  5
2E5
  8
0
 62
     0
 10
3.2858697075122332
 20
3.1292841879549371
 30
0.0
 11
5.3719806905729683
 21
5.2153951710156434
 31
0.0
  0
LINE
  5
2E6
  8
0
 62
     0
 10
16.223973961409961
 20
16.965414053959559
 30
0.0
 11
18.31321956731335
 21
19.054659659862921
 31
0.0
  0
LINE
  5
2E7
  8
0
 62
     0
 10
2.845341061084155
 20
3.5867811536337508
 30
0.0
 11
4.934586666987542
 21
5.6760267595371374
 31
0.0
  0
LINE
  5
2E8
  8
0
 62
     0
 10
15.72741298057934
 20
17.366878685235829
 30
0.0
 11
17.829571855915219
 21
19.469037560571731
 31
0.0
  0
LINE
  5
2E9
  8
0
 62
     0
 10
2.4309631603753701
 20
4.0704288650318849
 30
0.0
 11
4.5331220357112443
 21
6.17258774036776
 31
0.0
  0
LINE
  5
2EA
  8
0
 62
     0
 10
15.193992997014901
 20
17.731484313778338
 30
0.0
 11
17.319417668951811
 21
19.856908985715251
 31
0.0
  0
LINE
  5
2EB
  8
0
 62
     0
 10
2.0430917352318541
 20
4.5805830519952897
 30
0.0
 11
4.1685164071687657
 21
6.7060077239322018
 31
0.0
  0
LINE
  5
2EC
  8
0
 62
     0
 10
14.62198257412612
 20
18.05749950299645
 30
0.0
 11
16.782113058981079
 21
20.217629987851382
 31
0.0
  0
LINE
  5
2ED
  8
0
 62
     0
 10
1.6823707330956941
 20
5.1178876619660221
 30
0.0
 11
3.8425012179506548
 21
7.2780181468209832
 31
0.0
  0
LINE
  5
2EE
  8
0
 62
     0
 10
14.00865736389281
 20
18.342199904870078
 30
0.0
 11
16.216690642031551
 21
20.550233183008832
 31
0.0
  0
LINE
  5
2EF
  8
0
 62
     0
 10
1.3497675379382481
 20
5.6833100789155253
 30
0.0
 11
3.5578008160770191
 21
7.8913433570542963
 31
0.0
  0
LINE
  5
2F0
  8
0
 62
     0
 10
13.34995867309763
 20
18.581526826181801
 30
0.0
 11
15.621803107735239
 21
20.853371260819419
 31
0.0
  0
LINE
  5
2F1
  8
0
 62
     0
 10
1.0466294601276891
 20
6.2781976132118578
 30
0.0
 11
3.3184738947652761
 21
8.5500420478494448
 31
0.0
  0
LINE
  5
2F2
  8
0
 62
     0
 10
12.63988725108532
 20
18.769481016276391
 30
0.0
 11
14.99563720467699
 21
21.12523096986806
 31
0.0
  0
LINE
  5
2F3
  8
0
 62
     0
 10
0.7747697510790204
 20
6.90436351627008
 30
0.0
 11
3.1305197046707169
 21
9.2601134698617784
 31
0.0
  0
LINE
  5
2F4
  8
0
 62
     0
 10
11.86937675543567
 20
18.896996132733669
 30
0.0
 11
14.33578405491045
 21
21.363403432208461
 31
0.0
  0
LINE
  5
2F5
  8
0
 62
     0
 10
0.5365972887386193
 20
7.5642166660366277
 30
0.0
 11
3.0030045882134568
 21
10.03062396551146
 31
0.0
  0
LINE
  5
2F6
  8
0
 62
     0
 10
11.02401263086187
 20
18.94965762026678
 30
0.0
 11
13.639041132604349
 21
21.564686122009249
 31
0.0
  0
LINE
  5
2F7
  8
0
 62
     0
 10
0.3353145989378561
 20
8.2609595883427573
 30
0.0
 11
2.9503431006803278
 21
10.875988090085229
 31
0.0
  0
LINE
  5
2F8
  8
0
 62
     0
 10
10.07874495422192
 20
18.902415555733739
 30
0.0
 11
12.90110117360155
 21
21.724771775113371
 31
0.0
  0
LINE
  5
2F9
  8
0
 62
     0
 10
0.1752289458337657
 20
8.9988995473455873
 30
0.0
 11
2.9975851652133652
 21
11.82125576672518
 31
0.0
  0
LINE
  5
2FA
  8
0
 62
     0
 10
8.9826193881051761
 20
18.704315601723891
 30
0.0
 11
12.11604216954038
 21
21.83773838315912
 31
0.0
  0
LINE
  5
2FB
  8
0
 62
     0
 10
0.0622623377879563
 20
9.7839585514066982
 30
0.0
 11
3.1956851192231559
 21
12.9173813328419
 31
0.0
  0
LINE
  5
2FC
  8
0
 62
     0
 10
7.5908760076855231
 20
18.21059783341121
 30
0.0
 11
11.2754409592259
 21
21.895162784951602
 31
0.0
  0
LINE
  5
2FD
  8
0
 62
     0
 10
0.0048379359955106
 20
10.6245597617212
 30
0.0
 11
3.6894028875358909
 21
14.30912471326158
 31
0.0
  0
LINE
  5
2FE
  8
0
 62
     0
 10
0.015547524633746
 20
11.53329496246633
 30
0.0
 11
10.366705758480769
 21
21.884453196313359
 31
0.0
  0
LINE
  5
2FF
  8
0
 62
     0
 10
0.1146533803235457
 20
12.53042643026302
 30
0.0
 11
9.3695742906841133
 21
21.785347340623591
 31
0.0
  0
LINE
  5
300
  8
0
 62
     0
 10
0.3387444025159709
 20
13.652543064562391
 30
0.0
 11
8.2474576563846824
 21
21.561256318431109
 31
0.0
  0
LINE
  5
301
  8
0
 62
     0
 10
0.7688228036807346
 20
14.98064707783405
 30
0.0
 11
6.9193536431130553
 21
21.131177917266371
 31
0.0
  0
LINE
  5
302
  8
0
 62
     0
 10
1.6996835834524111
 20
16.80953346971264
 30
0.0
 11
5.0904672512344851
 21
20.200317137494721
 31
0.0
  0
ENDBLK
  5
304
  8
0
  0
BLOCK
  8
0
  2
*U3
 70
     1
 10
0.0
 20
0.0
 30
0.0
  3
*U3
  1

  0
CIRCLE
  5
306
  8
0
  6
BYBLOCK
 62
     0
 10
10.95000073329299
 20
10.94999998765411
 30
0.0
 40
8.0
  0
CIRCLE
  5
307
  8
0
  6
BYBLOCK
 62
     0
 10
10.95000073329299
 20
10.94999998765411
 30
0.0
 40
10.949999999999999
  0
ENDBLK
  5
309
  8
0
  0
ENDSEC
  0
SECTION
  2
ENTITIES
  0
CIRCLE
  5
26D
  8
0
  6
BYBLOCK
 62
     0
 10
1506.98797408778
 20
2127.160405689719
 30
0.0
 40
8.0
  0
CIRCLE
  5
26E
  8
0
  6
BYBLOCK
 62
     0
 10
1506.98797408778
 20
2127.160405689719
 30
0.0
 40
10.949999999999999
  0
ENDSEC
  0
EOF
