  0
SECTION
  2
HEADER
  9
$ACADVER
  1
AC1012
  9
$DWGCODEPAGE
  3
ANSI_1252
  9
$INSBASE
 10
0.0
 20
0.0
 30
0.0
  9
$EXTMIN
 10
243.2774484605158
 20
-2.605009847381348
 30
0.0
  9
$EXTMAX
 10
453.2774484605158
 20
264.7974846675503
 30
0.0
  9
$LIMMIN
 10
0.0
 20
0.0
  9
$LIMMAX
 10
210.0
 20
300.0
  9
$ORTHOMODE
 70
     0
  9
$REGENMODE
 70
     1
  9
$FILLMODE
 70
     1
  9
$QTEXTMODE
 70
     0
  9
$MIRRTEXT
 70
     1
  9
$DRAGMODE
 70
     2
  9
$LTSCALE
 40
1.0
  9
$OSMODE
 70
  3071
  9
$ATTMODE
 70
     1
  9
$TEXTSIZE
 40
2.5
  9
$TRACEWID
 40
0.05
  9
$TEXTSTYLE
  7
ROMANT
  9
$CLAYER
  8
OLÇÜ
  9
$CELTYPE
  6
BYLAYER
  9
$CECOLOR
 62
   256
  9
$CELTSCALE
 40
1.0
  9
$DELOBJ
 70
     1
  9
$DISPSILH
 70
     0
  9
$DIMSCALE
 40
1.0
  9
$DIMASZ
 40
1.5
  9
$DIMEXO
 40
0.2
  9
$DIMDLI
 40
0.38
  9
$DIMRND
 40
0.0
  9
$DIMDLE
 40
0.0
  9
$DIMEXE
 40
1.5
  9
$DIMTP
 40
0.0
  9
$DIMTM
 40
0.0
  9
$DIMTXT
 40
1.5
  9
$DIMCEN
 40
1.0
  9
$DIMTSZ
 40
0.0
  9
$DIMTOL
 70
     0
  9
$DIMLIM
 70
     0
  9
$DIMTIH
 70
     0
  9
$DIMTOH
 70
     0
  9
$DIMSE1
 70
     0
  9
$DIMSE2
 70
     0
  9
$DIMTAD
 70
     1
  9
$DIMZIN
 70
     0
  9
$DIMBLK
  1

  9
$DIMASO
 70
     1
  9
$DIMSHO
 70
     1
  9
$DIMPOST
  1

  9
$DIMAPOST
  1

  9
$DIMALT
 70
     0
  9
$DIMALTD
 70
     2
  9
$DIMALTF
 40
25.4
  9
$DIMLFAC
 40
0.2
  9
$DIMTOFL
 70
     1
  9
$DIMTVP
 40
0.0
  9
$DIMTIX
 70
     0
  9
$DIMSOXD
 70
     0
  9
$DIMSAH
 70
     0
  9
$DIMBLK1
  1

  9
$DIMBLK2
  1

  9
$DIMSTYLE
  2
STANDARD
  9
$DIMCLRD
 70
   180
  9
$DIMCLRE
 70
   180
  9
$DIMCLRT
 70
   180
  9
$DIMTFAC
 40
0.5333333333333333
  9
$DIMGAP
 40
0.09
  9
$DIMJUST
 70
     0
  9
$DIMSD1
 70
     0
  9
$DIMSD2
 70
     0
  9
$DIMTOLJ
 70
     1
  9
$DIMTZIN
 70
     0
  9
$DIMALTZ
 70
     0
  9
$DIMALTTZ
 70
     0
  9
$DIMFIT
 70
     3
  9
$DIMUPT
 70
     0
  9
$DIMUNIT
 70
     2
  9
$DIMDEC
 70
     1
  9
$DIMTDEC
 70
     1
  9
$DIMALTU
 70
     2
  9
$DIMALTTD
 70
     2
  9
$DIMTXSTY
  7
ROMANT
  9
$DIMAUNIT
 70
     0
  9
$LUNITS
 70
     2
  9
$LUPREC
 70
     2
  9
$SKETCHINC
 40
0.1
  9
$FILLETRAD
 40
1.0
  9
$AUNITS
 70
     0
  9
$AUPREC
 70
     1
  9
$MENU
  1
acad
  9
$ELEVATION
 40
0.0
  9
$PELEVATION
 40
0.0
  9
$THICKNESS
 40
0.0
  9
$LIMCHECK
 70
     0
  9
$BLIPMODE
 70
     0
  9
$CHAMFERA
 40
0.0
  9
$CHAMFERB
 40
0.0
  9
$CHAMFERC
 40
0.0
  9
$CHAMFERD
 40
0.0
  9
$SKPOLY
 70
     0
  9
$TDCREATE
 40
2451633.358062037
  9
$TDUPDATE
 40
2453543.406013159
  9
$TDINDWG
 40
0.0863731250
  9
$TDUSRTIMER
 40
0.0863731250
  9
$USRTIMER
 70
     1
  9
$ANGBASE
 50
0.0
  9
$ANGDIR
 70
     0
  9
$PDMODE
 70
     0
  9
$PDSIZE
 40
0.0
  9
$PLINEWID
 40
0.0
  9
$COORDS
 70
     0
  9
$SPLFRAME
 70
     0
  9
$SPLINETYPE
 70
     6
  9
$SPLINESEGS
 70
     8
  9
$ATTDIA
 70
     0
  9
$ATTREQ
 70
     1
  9
$HANDLING
 70
-16383
  9
$HANDSEED
  5
C1A
  9
$SURFTAB1
 70
     6
  9
$SURFTAB2
 70
     6
  9
$SURFTYPE
 70
     6
  9
$SURFU
 70
     6
  9
$SURFV
 70
     6
  9
$UCSNAME
  2

  9
$UCSORG
 10
0.0
 20
0.0
 30
0.0
  9
$UCSXDIR
 10
1.0
 20
0.0
 30
0.0
  9
$UCSYDIR
 10
0.0
 20
1.0
 30
0.0
  9
$PUCSNAME
  2

  9
$PUCSORG
 10
0.0
 20
0.0
 30
0.0
  9
$PUCSXDIR
 10
1.0
 20
0.0
 30
0.0
  9
$PUCSYDIR
 10
0.0
 20
1.0
 30
0.0
  9
$USERI1
 70
     0
  9
$USERI2
 70
     0
  9
$USERI3
 70
     0
  9
$USERI4
 70
     0
  9
$USERI5
 70
     0
  9
$USERR1
 40
0.0
  9
$USERR2
 40
0.0
  9
$USERR3
 40
0.0
  9
$USERR4
 40
0.0
  9
$USERR5
 40
0.0
  9
$WORLDVIEW
 70
     1
  9
$SHADEDGE
 70
     1
  9
$SHADEDIF
 70
    70
  9
$TILEMODE
 70
     1
  9
$MAXACTVP
 70
    16
  9
$PINSBASE
 10
0.0
 20
0.0
 30
0.0
  9
$PLIMCHECK
 70
     0
  9
$PEXTMIN
 10
1.000000000000000E+20
 20
1.000000000000000E+20
 30
1.000000000000000E+20
  9
$PEXTMAX
 10
-1.000000000000000E+20
 20
-1.000000000000000E+20
 30
-1.000000000000000E+20
  9
$PLIMMIN
 10
0.0
 20
0.0
  9
$PLIMMAX
 10
12.0
 20
9.0
  9
$UNITMODE
 70
     0
  9
$VISRETAIN
 70
     0
  9
$PLINEGEN
 70
     0
  9
$PSLTSCALE
 70
     1
  9
$TREEDEPTH
 70
  3020
  9
$PICKSTYLE
 70
     1
  9
$CMLSTYLE
  2
STANDARD
  9
$CMLJUST
 70
     0
  9
$CMLSCALE
 40
1.0
  9
$SAVEIMAGES
 70
     1
  0
ENDSEC
  0
SECTION
  2
CLASSES
  0
CLASS
  1
LWPOLYLINE
  2
AcDbPolyline
  3
AutoCAD 2000
 90
    32768
280
     0
281
     1
  0
CLASS
  1
DICTIONARYVAR
  2
AcDbDictionaryVar
  3
AutoCAD 2000
 90
    32768
280
     0
281
     0
  0
CLASS
  1
HATCH
  2
AcDbHatch
  3
AutoCAD 2000
 90
    32768
280
     0
281
     1
  0
CLASS
  1
ACDBDICTIONARYWDFLT
  2
AcDbDictionaryWithDefault
  3
AutoCAD 2000
 90
    32768
280
     0
281
     0
  0
CLASS
  1
ACDBPLACEHOLDER
  2
AcDbPlaceHolder
  3
AutoCAD 2000
 90
    32768
280
     0
281
     0
  0
CLASS
  1
LAYOUT
  2
AcDbLayout
  3
AutoCAD 2000
 90
    32768
280
     0
281
     0
  0
CLASS
  1
LONG_TRANSACTION
  2
AcDbLongTransaction
  3
AutoCAD 2000
 90
    32768
280
     0
281
     0
  0
CLASS
  1
LWPOLYLINE
  2
AcDbPolyline
  3
AutoCAD 2000
 90
    32768
280
     0
281
     1
  0
CLASS
  1
HATCH
  2
AcDbHatch
  3
AutoCAD 2000
 90
    32768
280
     0
281
     1
  0
CLASS
  1
XRECORD
  2
AcDbXrecord
  3
AutoCAD 2000
 90
    32768
280
     0
281
     0
  0
ENDSEC
  0
SECTION
  2
TABLES
  0
TABLE
  2
VPORT
  5
446
330
0
100
AcDbSymbolTable
 70
     2
  0
VPORT
  5
BF4
330
446
100
AcDbSymbolTableRecord
100
AcDbViewportTableRecord
  2
*ACTIVE
 70
     0
 10
0.0
 20
0.0
 11
1.0
 21
1.0
 12
361.5780470823526
 22
190.1431906294929
 13
0.0
 23
0.0
 14
1.0
 24
1.0
 15
0.0
 25
0.0
 16
0.0
 26
0.0
 36
1.0
 17
0.0
 27
0.0
 37
0.0
 40
312.5395242117523
 41
1.591760299625468
 42
50.0
 43
0.0
 44
0.0
 50
0.0
 51
0.0
 71
     0
 72
   100
 73
     1
 74
     1
 75
     0
 76
     0
 77
     0
 78
     0
  0
ENDTAB
  0
TABLE
  2
LTYPE
  5
443
330
0
100
AcDbSymbolTable
 70
     2
  0
LTYPE
  5
41D
330
443
100
AcDbSymbolTableRecord
100
AcDbLinetypeTableRecord
  2
BYBLOCK
 70
     0
  3

 72
    65
 73
     0
 40
0.0
  0
LTYPE
  5
E7
330
443
100
AcDbSymbolTableRecord
100
AcDbLinetypeTableRecord
  2
BYLAYER
 70
     0
  3

 72
    65
 73
     0
 40
0.0
  0
LTYPE
  5
416
330
443
100
AcDbSymbolTableRecord
100
AcDbLinetypeTableRecord
  2
CONTINUOUS
 70
     0
  3
Solid line
 72
    65
 73
     0
 40
0.0
  0
LTYPE
  5
505
330
443
100
AcDbSymbolTableRecord
100
AcDbLinetypeTableRecord
  2
DASHED
 70
     0
  3
Dashed __ __ __ __ __ __ __ __ __ __ __ __ __ _
 72
    65
 73
     2
 40
0.75
 49
0.5
 74
     0
 49
-0.25
 74
     0
  0
ENDTAB
  0
TABLE
  2
LAYER
  5
441
330
0
100
AcDbSymbolTable
 70
     5
  0
LAYER
  5
419
330
441
100
AcDbSymbolTableRecord
100
AcDbLayerTableRecord
  2
0
 70
     0
 62
     7
  6
CONTINUOUS
  0
LAYER
  5
E6
330
441
100
AcDbSymbolTableRecord
100
AcDbLayerTableRecord
  2
ANA
 70
     0
 62
   220
  6
CONTINUOUS
  0
LAYER
  5
41E
330
441
100
AcDbSymbolTableRecord
100
AcDbLayerTableRecord
  2
DEFPOINTS
 70
     0
 62
     7
  6
CONTINUOUS
  0
LAYER
  5
508
330
441
100
AcDbSymbolTableRecord
100
AcDbLayerTableRecord
  2
OLÇÜ
 70
     0
 62
     5
  6
CONTINUOUS
  0
LAYER
  5
510
330
441
100
AcDbSymbolTableRecord
100
AcDbLayerTableRecord
  2
ANTET
 70
     0
 62
   220
  6
CONTINUOUS
  0
ENDTAB
  0
TABLE
  2
STYLE
  5
442
330
0
100
AcDbSymbolTable
 70
     2
  0
STYLE
  5
41A
330
442
100
AcDbSymbolTableRecord
100
AcDbTextStyleTableRecord
  2
STANDARD
 70
     0
 40
0.0
 41
1.0
 50
0.0
 71
     0
 42
0.2
  3
txt
  4

  0
STYLE
  5
E8
330
442
100
AcDbSymbolTableRecord
100
AcDbTextStyleTableRecord
  2
ROMANT
 70
     0
 40
2.5
 41
1.0
 50
15.0
 71
     0
 42
2.5
  3
C:\ACADR13\COMMON\FONTS\romant.shx
  4

  0
ENDTAB
  0
TABLE
  2
VIEW
  5
444
330
0
100
AcDbSymbolTable
 70
     0
  0
ENDTAB
  0
TABLE
  2
UCS
  5
445
330
0
100
AcDbSymbolTable
 70
     0
  0
ENDTAB
  0
TABLE
  2
APPID
  5
448
330
0
100
AcDbSymbolTable
 70
     1
  0
APPID
  5
261
330
448
100
AcDbSymbolTableRecord
100
AcDbRegAppTableRecord
  2
ACAD
 70
     0
  0
ENDTAB
  0
TABLE
  2
DIMSTYLE
  5
449
330
0
100
AcDbSymbolTable
 70
     1
  0
DIMSTYLE
105
264
330
449
100
AcDbSymbolTableRecord
100
AcDbDimStyleTableRecord
  2
STANDARD
 70
     0
  3

  4

  5

  6

  7

 40
1.0
 41
0.18
 42
0.0625
 43
0.38
 44
0.18
 45
0.0
 46
0.0
 47
0.0
 48
0.0
140
0.18
141
0.09
142
0.0
143
25.4
144
1.0
145
0.0
146
1.0
147
0.09
 71
     0
 72
     0
 73
     1
 74
     1
 75
     0
 76
     0
 77
     0
 78
     0
170
     0
171
     2
172
     0
173
     0
174
     0
175
     0
176
     0
177
     0
178
     0
270
     2
271
     4
272
     4
273
     2
274
     2
340
41A
275
     0
280
     0
281
     0
282
     0
283
     1
284
     0
285
     0
286
     0
287
     3
288
     0
  0
ENDTAB
  0
TABLE
  2
BLOCK_RECORD
  5
1
330
0
100
AcDbSymbolTable
 70
    19
  0
BLOCK_RECORD
  5
2
102
{ACAD_XDICTIONARY
360
BF5
102
}
330
1
100
AcDbSymbolTableRecord
100
AcDbBlockTableRecord
  2
*MODEL_SPACE
  0
BLOCK_RECORD
  5
E3
102
{ACAD_XDICTIONARY
360
BF7
102
}
330
1
100
AcDbSymbolTableRecord
100
AcDbBlockTableRecord
  2
*PAPER_SPACE
  0
BLOCK_RECORD
  5
715
330
1
100
AcDbSymbolTableRecord
100
AcDbBlockTableRecord
  2
*D0
  0
BLOCK_RECORD
  5
722
330
1
100
AcDbSymbolTableRecord
100
AcDbBlockTableRecord
  2
*D1
  0
BLOCK_RECORD
  5
72F
330
1
100
AcDbSymbolTableRecord
100
AcDbBlockTableRecord
  2
*D2
  0
BLOCK_RECORD
  5
73C
330
1
100
AcDbSymbolTableRecord
100
AcDbBlockTableRecord
  2
*D3
  0
BLOCK_RECORD
  5
74A
330
1
100
AcDbSymbolTableRecord
100
AcDbBlockTableRecord
  2
*D4
  0
BLOCK_RECORD
  5
759
330
1
100
AcDbSymbolTableRecord
100
AcDbBlockTableRecord
  2
*D5
  0
BLOCK_RECORD
  5
766
330
1
100
AcDbSymbolTableRecord
100
AcDbBlockTableRecord
  2
*D6
  0
BLOCK_RECORD
  5
78D
330
1
100
AcDbSymbolTableRecord
100
AcDbBlockTableRecord
  2
*D7
  0
BLOCK_RECORD
  5
79A
330
1
100
AcDbSymbolTableRecord
100
AcDbBlockTableRecord
  2
*D8
  0
BLOCK_RECORD
  5
7A7
330
1
100
AcDbSymbolTableRecord
100
AcDbBlockTableRecord
  2
*D9
  0
BLOCK_RECORD
  5
7B4
330
1
100
AcDbSymbolTableRecord
100
AcDbBlockTableRecord
  2
*D10
  0
BLOCK_RECORD
  5
7D0
330
1
100
AcDbSymbolTableRecord
100
AcDbBlockTableRecord
  2
*D11
  0
BLOCK_RECORD
  5
7D9
330
1
100
AcDbSymbolTableRecord
100
AcDbBlockTableRecord
  2
*D12
  0
BLOCK_RECORD
  5
7E3
330
1
100
AcDbSymbolTableRecord
100
AcDbBlockTableRecord
  2
*D13
  0
BLOCK_RECORD
  5
7ED
330
1
100
AcDbSymbolTableRecord
100
AcDbBlockTableRecord
  2
*D14
  0
BLOCK_RECORD
  5
7F6
330
1
100
AcDbSymbolTableRecord
100
AcDbBlockTableRecord
  2
*D15
  0
BLOCK_RECORD
  5
817
330
1
100
AcDbSymbolTableRecord
100
AcDbBlockTableRecord
  2
*D16
  0
BLOCK_RECORD
  5
847
330
1
100
AcDbSymbolTableRecord
100
AcDbBlockTableRecord
  2
*D17
  0
BLOCK_RECORD
  5
869
330
1
100
AcDbSymbolTableRecord
100
AcDbBlockTableRecord
  2
*X18
  0
ENDTAB
  0
ENDSEC
  0
SECTION
  2
BLOCKS
  0
BLOCK
  5
E4
330
2
100
AcDbEntity
  8
0
100
AcDbBlockBegin
  2
*MODEL_SPACE
 70
     0
 10
0.0
 20
0.0
 30
0.0
  3
*MODEL_SPACE
  1

  0
ENDBLK
  5
E5
330
2
100
AcDbEntity
  8
0
100
AcDbBlockEnd
  0
BLOCK
  5
414
330
E3
100
AcDbEntity
 67
     1
  8
0
100
AcDbBlockBegin
  2
*PAPER_SPACE
 70
     0
 10
0.0
 20
0.0
 30
0.0
  3
*PAPER_SPACE
  1

  0
ENDBLK
  5
415
330
E3
100
AcDbEntity
 67
     1
  8
0
100
AcDbBlockEnd
  0
BLOCK
  5
833
330
715
100
AcDbEntity
  8
0
100
AcDbBlockBegin
  2
*D0
 70
     1
 10
0.0
 20
0.0
 30
0.0
  3
*D0
  1

  0
LINE
  5
BDA
330
715
100
AcDbEntity
  8
OLÇÜ
 62
   180
100
AcDbLine
 10
287.2691819999874
 20
150.8676750057094
 30
0.0
 11
287.2691819999874
 21
78.056873779983
 31
0.0
  0
LINE
  5
BDB
330
715
100
AcDbEntity
  8
OLÇÜ
 62
   180
100
AcDbLine
 10
427.2691819999877
 20
150.8676750057094
 30
0.0
 11
427.2691819999877
 21
78.056873779983
 31
0.0
  0
LINE
  5
BDC
330
715
100
AcDbEntity
  8
OLÇÜ
 62
   180
100
AcDbLine
 10
288.7691819999874
 20
79.55687377998299
 30
0.0
 11
425.7691819999878
 21
79.55687377998299
 31
0.0
  0
SOLID
  5
BDD
330
715
100
AcDbEntity
  8
OLÇÜ
 62
   180
100
AcDbTrace
 10
288.7691819999874
 20
79.80687377998299
 30
0.0
 11
288.7691819999874
 21
79.306873779983
 31
0.0
 12
287.2691819999874
 22
79.55687377998299
 32
0.0
 13
287.2691819999874
 23
79.55687377998299
 33
0.0
  0
SOLID
  5
BDE
330
715
100
AcDbEntity
  8
OLÇÜ
 62
   180
100
AcDbTrace
 10
425.7691819999878
 20
79.80687377998299
 30
0.0
 11
425.7691819999878
 21
79.306873779983
 31
0.0
 12
427.2691819999877
 22
79.55687377998299
 32
0.0
 13
427.2691819999877
 23
79.55687377998299
 33
0.0
  0
MTEXT
  5
BDF
330
715
100
AcDbEntity
  8
OLÇÜ
 62
   180
100
AcDbMText
 10
356.7937505676222
 20
80.896873779983
 30
0.0
 40
2.5
 41
0.0
 71
     5
 72
     1
  1
\A1;28.0±0.3
  7
ROMANT
1001
ACAD
1000
MTEXTBEGIN
1070
    73
1070
     1
1070
    44
1040
1.0
1070
    74
1070
     0
1000
MTEXTEND
  0
POINT
  5
BE0
330
715
100
AcDbEntity
  8
DEFPOINTS
 62
     0
100
AcDbPoint
 10
287.2691819999874
 20
151.0676750057094
 30
0.0
  0
POINT
  5
BE1
330
715
100
AcDbEntity
  8
DEFPOINTS
 62
     0
100
AcDbPoint
 10
427.2691819999877
 20
151.0676750057094
 30
0.0
  0
POINT
  5
BE2
330
715
100
AcDbEntity
  8
DEFPOINTS
 62
     0
100
AcDbPoint
 10
427.2691819999877
 20
79.55687377998299
 30
0.0
  0
ENDBLK
  5
83D
330
715
100
AcDbEntity
  8
0
100
AcDbBlockEnd
  0
BLOCK
  5
828
330
722
100
AcDbEntity
  8
0
100
AcDbBlockBegin
  2
*D1
 70
     1
 10
0.0
 20
0.0
 30
0.0
  3
*D1
  1

  0
LINE
  5
B3C
330
722
100
AcDbEntity
  8
OLÇÜ
 62
   180
100
AcDbLine
 10
314.7691819999873
 20
105.8676750057094
 30
0.0
 11
314.7691819999873
 21
92.10634348978828
 31
0.0
  0
LINE
  5
B3D
330
722
100
AcDbEntity
  8
OLÇÜ
 62
   180
100
AcDbLine
 10
399.7691819999876
 20
105.8676750057094
 30
0.0
 11
399.7691819999876
 21
92.10634348978828
 31
0.0
  0
LINE
  5
B3E
330
722
100
AcDbEntity
  8
OLÇÜ
 62
   180
100
AcDbLine
 10
316.2691819999873
 20
93.60634348978829
 30
0.0
 11
398.2691819999875
 21
93.60634348978829
 31
0.0
  0
SOLID
  5
B3F
330
722
100
AcDbEntity
  8
OLÇÜ
 62
   180
100
AcDbTrace
 10
316.2691819999873
 20
93.85634348978829
 30
0.0
 11
316.2691819999873
 21
93.35634348978828
 31
0.0
 12
314.7691819999873
 22
93.60634348978829
 32
0.0
 13
314.7691819999873
 23
93.60634348978829
 33
0.0
  0
SOLID
  5
B40
330
722
100
AcDbEntity
  8
OLÇÜ
 62
   180
100
AcDbTrace
 10
398.2691819999875
 20
93.85634348978829
 30
0.0
 11
398.2691819999875
 21
93.35634348978828
 31
0.0
 12
399.7691819999876
 22
93.60634348978829
 32
0.0
 13
399.7691819999876
 23
93.60634348978829
 33
0.0
  0
MTEXT
  5
B41
330
722
100
AcDbEntity
  8
OLÇÜ
 62
   180
100
AcDbMText
 10
357.3919373640238
 20
94.94634348978829
 30
0.0
 40
2.5
 41
0.0
 71
     5
 72
     1
  1
\A1;17.0
  7
ROMANT
1001
ACAD
1000
MTEXTBEGIN
1070
    73
1070
     1
1070
    44
1040
1.0
1070
    74
1070
     0
1000
MTEXTEND
  0
POINT
  5
B42
330
722
100
AcDbEntity
  8
DEFPOINTS
 62
     0
100
AcDbPoint
 10
314.7691819999873
 20
106.0676750057094
 30
0.0
  0
POINT
  5
B43
330
722
100
AcDbEntity
  8
DEFPOINTS
 62
     0
100
AcDbPoint
 10
399.7691819999876
 20
106.0676750057094
 30
0.0
  0
POINT
  5
B44
330
722
100
AcDbEntity
  8
DEFPOINTS
 62
     0
100
AcDbPoint
 10
399.7691819999876
 20
93.60634348978829
 30
0.0
  0
ENDBLK
  5
832
330
722
100
AcDbEntity
  8
0
100
AcDbBlockEnd
  0
BLOCK
  5
730
330
72F
100
AcDbEntity
  8
0
100
AcDbBlockBegin
  2
*D2
 70
     1
 10
0.0
 20
0.0
 30
0.0
  3
*D2
  1

  0
LINE
  5
BB6
330
72F
100
AcDbEntity
  8
OLÇÜ
 62
   180
100
AcDbLine
 10
318.5191819999873
 20
166.2676750057094
 30
0.0
 11
318.5191819999873
 21
189.2676810511859
 31
0.0
  0
LINE
  5
BB7
330
72F
100
AcDbEntity
  8
OLÇÜ
 62
   180
100
AcDbLine
 10
396.0191819999876
 20
166.2676750057094
 30
0.0
 11
396.0191819999876
 21
189.2676810511859
 31
0.0
  0
LINE
  5
BB8
330
72F
100
AcDbEntity
  8
OLÇÜ
 62
   180
100
AcDbLine
 10
320.0191819999874
 20
187.7676810511859
 30
0.0
 11
394.5191819999876
 21
187.7676810511859
 31
0.0
  0
SOLID
  5
BB9
330
72F
100
AcDbEntity
  8
OLÇÜ
 62
   180
100
AcDbTrace
 10
320.0191819999874
 20
188.0176810511859
 30
0.0
 11
320.0191819999874
 21
187.5176810511859
 31
0.0
 12
318.5191819999873
 22
187.7676810511859
 32
0.0
 13
318.5191819999873
 23
187.7676810511859
 33
0.0
  0
SOLID
  5
BBA
330
72F
100
AcDbEntity
  8
OLÇÜ
 62
   180
100
AcDbTrace
 10
394.5191819999876
 20
188.0176810511859
 30
0.0
 11
394.5191819999876
 21
187.5176810511859
 31
0.0
 12
396.0191819999876
 22
187.7676810511859
 32
0.0
 13
396.0191819999876
 23
187.7676810511859
 33
0.0
  0
MTEXT
  5
BBB
330
72F
100
AcDbEntity
  8
OLÇÜ
 62
   180
100
AcDbMText
 10
357.2691819999874
 20
190.7743477178525
 30
0.0
 40
2.5
 41
0.0
 71
     5
 72
     1
  1
\A1;15.5\S+0.0^ -0.3;
  7
ROMANT
1001
ACAD
1000
MTEXTBEGIN
1070
    73
1070
     1
1070
    44
1040
1.0
1070
    74
1070
     0
1000
MTEXTEND
  0
POINT
  5
BBC
330
72F
100
AcDbEntity
  8
DEFPOINTS
 62
     0
100
AcDbPoint
 10
318.5191819999873
 20
166.0676750057094
 30
0.0
  0
POINT
  5
BBD
330
72F
100
AcDbEntity
  8
DEFPOINTS
 62
     0
100
AcDbPoint
 10
396.0191819999876
 20
166.0676750057094
 30
0.0
  0
POINT
  5
BBE
330
72F
100
AcDbEntity
  8
DEFPOINTS
 62
     0
100
AcDbPoint
 10
396.0191819999876
 20
187.7676810511859
 30
0.0
  0
ENDBLK
  5
73A
330
72F
100
AcDbEntity
  8
0
100
AcDbBlockEnd
  0
BLOCK
  5
73D
330
73C
100
AcDbEntity
  8
0
100
AcDbBlockBegin
  2
*D3
 70
     1
 10
0.0
 20
0.0
 30
0.0
  3
*D3
  1

  0
LINE
  5
B84
330
73C
100
AcDbEntity
  8
OLÇÜ
 62
   180
100
AcDbLine
 10
354.7691819999876
 20
166.2676750057094
 30
0.0
 11
354.7691819999876
 21
174.0225122014386
 31
0.0
  0
LINE
  5
B85
330
73C
100
AcDbEntity
  8
OLÇÜ
 62
   180
100
AcDbLine
 10
359.7691819999873
 20
166.2676750057094
 30
0.0
 11
359.7691819999873
 21
174.0225122014386
 31
0.0
  0
LINE
  5
B86
330
73C
100
AcDbEntity
  8
OLÇÜ
 62
   180
100
AcDbLine
 10
356.2691819999876
 20
172.5225122014386
 30
0.0
 11
358.2691819999873
 21
172.5225122014386
 31
0.0
  0
LINE
  5
B87
330
73C
100
AcDbEntity
  8
OLÇÜ
 62
   180
100
AcDbLine
 10
359.7691819999873
 20
172.5225122014386
 30
0.0
 11
366.9914601275265
 21
172.5225122014386
 31
0.0
  0
SOLID
  5
B88
330
73C
100
AcDbEntity
  8
OLÇÜ
 62
   180
100
AcDbTrace
 10
356.2691819999876
 20
172.7725122014386
 30
0.0
 11
356.2691819999876
 21
172.2725122014386
 31
0.0
 12
354.7691819999876
 22
172.5225122014386
 32
0.0
 13
354.7691819999876
 23
172.5225122014386
 33
0.0
  0
SOLID
  5
B89
330
73C
100
AcDbEntity
  8
OLÇÜ
 62
   180
100
AcDbTrace
 10
358.2691819999873
 20
172.7725122014386
 30
0.0
 11
358.2691819999873
 21
172.2725122014386
 31
0.0
 12
359.7691819999873
 22
172.5225122014386
 32
0.0
 13
359.7691819999873
 23
172.5225122014386
 33
0.0
  0
MTEXT
  5
B8A
330
73C
100
AcDbEntity
  8
OLÇÜ
 62
   180
100
AcDbMText
 10
364.1303210637569
 20
173.8625122014386
 30
0.0
 40
2.5
 41
0.0
 71
     5
 72
     1
  1
\A1;1.0
  7
ROMANT
1001
ACAD
1000
MTEXTBEGIN
1070
    73
1070
     1
1070
    44
1040
1.0
1070
    74
1070
     0
1000
MTEXTEND
  0
POINT
  5
B8B
330
73C
100
AcDbEntity
  8
DEFPOINTS
 62
     0
100
AcDbPoint
 10
354.7691819999876
 20
166.0676750057094
 30
0.0
  0
POINT
  5
B8C
330
73C
100
AcDbEntity
  8
DEFPOINTS
 62
     0
100
AcDbPoint
 10
359.7691819999873
 20
166.0676750057094
 30
0.0
  0
POINT
  5
B8D
330
73C
100
AcDbEntity
  8
DEFPOINTS
 62
     0
100
AcDbPoint
 10
359.7691819999873
 20
172.5225122014386
 30
0.0
  0
ENDBLK
  5
748
330
73C
100
AcDbEntity
  8
0
100
AcDbBlockEnd
  0
BLOCK
  5
74B
330
74A
100
AcDbEntity
  8
0
100
AcDbBlockBegin
  2
*D4
 70
     1
 10
0.0
 20
0.0
 30
0.0
  3
*D4
  1

  0
LINE
  5
B79
330
74A
100
AcDbEntity
  8
OLÇÜ
 62
   180
100
AcDbLine
 10
357.4691819894508
 20
163.9818885680826
 30
0.0
 11
374.4448079951494
 21
163.9818885680826
 31
0.0
  0
LINE
  5
B7A
330
74A
100
AcDbEntity
  8
OLÇÜ
 62
   180
100
AcDbLine
 10
359.9691819999873
 20
166.0676750057094
 30
0.0
 11
374.4448079951494
 21
166.0676750057094
 31
0.0
  0
LINE
  5
B7B
330
74A
100
AcDbEntity
  8
OLÇÜ
 62
   180
100
AcDbLine
 10
372.9448079951493
 20
162.4818885680826
 30
0.0
 11
372.9448079951493
 21
160.9818885680826
 31
0.0
  0
LINE
  5
B7C
330
74A
100
AcDbEntity
  8
OLÇÜ
 62
   180
100
AcDbLine
 10
372.9448079951493
 20
167.5676750057094
 30
0.0
 11
372.9448079951493
 21
174.6686152896216
 31
0.0
  0
LINE
  5
B7D
330
74A
100
AcDbEntity
  8
OLÇÜ
 62
   180
100
AcDbLine
 10
372.9448079951493
 20
163.9818885680826
 30
0.0
 11
372.9448079951493
 21
166.0676750057094
 31
0.0
  0
SOLID
  5
B7E
330
74A
100
AcDbEntity
  8
OLÇÜ
 62
   180
100
AcDbTrace
 10
372.6948079951494
 20
162.4818885680826
 30
0.0
 11
373.1948079951493
 21
162.4818885680826
 31
0.0
 12
372.9448079951493
 22
163.9818885680826
 32
0.0
 13
372.9448079951493
 23
163.9818885680826
 33
0.0
  0
SOLID
  5
B7F
330
74A
100
AcDbEntity
  8
OLÇÜ
 62
   180
100
AcDbTrace
 10
372.6948079951494
 20
167.5676750057094
 30
0.0
 11
373.1948079951493
 21
167.5676750057094
 31
0.0
 12
372.9448079951493
 22
166.0676750057094
 32
0.0
 13
372.9448079951493
 23
166.0676750057094
 33
0.0
  0
MTEXT
  5
B80
330
74A
100
AcDbEntity
  8
OLÇÜ
 62
   180
100
AcDbMText
 10
371.6048079951493
 20
171.8681451476656
 30
0.0
 40
2.5
 41
0.0
 71
     5
 72
     1
  1
\A1;0.4
  7
ROMANT
 11
0.0000000000000001
 21
1.0
 31
0.0
1001
ACAD
1000
MTEXTBEGIN
1070
    73
1070
     1
1070
    44
1040
1.0
1070
    74
1070
     0
1000
MTEXTEND
  0
POINT
  5
B81
330
74A
100
AcDbEntity
  8
DEFPOINTS
 62
     0
100
AcDbPoint
 10
357.2691819894509
 20
163.9818885680826
 30
0.0
  0
POINT
  5
B82
330
74A
100
AcDbEntity
  8
DEFPOINTS
 62
     0
100
AcDbPoint
 10
359.7691819999873
 20
166.0676750057094
 30
0.0
  0
POINT
  5
B83
330
74A
100
AcDbEntity
  8
DEFPOINTS
 62
     0
100
AcDbPoint
 10
372.9448079951493
 20
166.0676750057094
 30
0.0
  0
ENDBLK
  5
757
330
74A
100
AcDbEntity
  8
0
100
AcDbBlockEnd
  0
BLOCK
  5
75A
330
759
100
AcDbEntity
  8
0
100
AcDbBlockBegin
  2
*D5
 70
     1
 10
0.0
 20
0.0
 30
0.0
  3
*D5
  1

  0
LINE
  5
B33
330
759
100
AcDbEntity
  8
OLÇÜ
 62
   180
100
AcDbLine
 10
318.3191819999874
 20
166.0676750057094
 30
0.0
 11
267.6593101656506
 21
166.0676750057094
 31
0.0
  0
LINE
  5
B34
330
759
100
AcDbEntity
  8
OLÇÜ
 62
   180
100
AcDbLine
 10
306.2515108425748
 20
106.0676750057094
 30
0.0
 11
267.6593101656505
 21
106.0676750057094
 31
0.0
  0
LINE
  5
B35
330
759
100
AcDbEntity
  8
OLÇÜ
 62
   180
100
AcDbLine
 10
269.1593101656506
 20
164.5676750057094
 30
0.0
 11
269.1593101656506
 21
107.5676750057094
 31
0.0
  0
SOLID
  5
B36
330
759
100
AcDbEntity
  8
OLÇÜ
 62
   180
100
AcDbTrace
 10
268.9093101656506
 20
164.5676750057094
 30
0.0
 11
269.4093101656506
 21
164.5676750057094
 31
0.0
 12
269.1593101656506
 22
166.0676750057094
 32
0.0
 13
269.1593101656506
 23
166.0676750057094
 33
0.0
  0
SOLID
  5
B37
330
759
100
AcDbEntity
  8
OLÇÜ
 62
   180
100
AcDbTrace
 10
268.9093101656506
 20
107.5676750057094
 30
0.0
 11
269.4093101656505
 21
107.5676750057094
 31
0.0
 12
269.1593101656506
 22
106.0676750057094
 32
0.0
 13
269.1593101656506
 23
106.0676750057094
 33
0.0
  0
MTEXT
  5
B38
330
759
100
AcDbEntity
  8
OLÇÜ
 62
   180
100
AcDbMText
 10
267.8193101656506
 20
136.0676750057095
 30
0.0
 40
2.5
 41
0.0
 71
     5
 72
     1
  1
\A1;12.0
  7
ROMANT
 11
0.0000000000000001
 21
1.0
 31
0.0
1001
ACAD
1000
MTEXTBEGIN
1070
    73
1070
     1
1070
    44
1040
1.0
1070
    74
1070
     0
1000
MTEXTEND
  0
POINT
  5
B39
330
759
100
AcDbEntity
  8
DEFPOINTS
 62
     0
100
AcDbPoint
 10
318.5191819999873
 20
166.0676750057094
 30
0.0
  0
POINT
  5
B3A
330
759
100
AcDbEntity
  8
DEFPOINTS
 62
     0
100
AcDbPoint
 10
306.4515108425748
 20
106.0676750057094
 30
0.0
  0
POINT
  5
B3B
330
759
100
AcDbEntity
  8
DEFPOINTS
 62
     0
100
AcDbPoint
 10
269.1593101656506
 20
106.0676750057094
 30
0.0
  0
ENDBLK
  5
764
330
759
100
AcDbEntity
  8
0
100
AcDbBlockEnd
  0
BLOCK
  5
767
330
766
100
AcDbEntity
  8
0
100
AcDbBlockBegin
  2
*D6
 70
     1
 10
0.0
 20
0.0
 30
0.0
  3
*D6
  1

  0
LINE
  5
B2A
330
766
100
AcDbEntity
  8
OLÇÜ
 62
   180
100
AcDbLine
 10
297.0691819999874
 20
161.0676750057095
 30
0.0
 11
273.6411836995402
 21
161.0676750057095
 31
0.0
  0
LINE
  5
B2B
330
766
100
AcDbEntity
  8
OLÇÜ
 62
   180
100
AcDbLine
 10
286.7554105041127
 20
106.0676750057094
 30
0.0
 11
273.6411836995401
 21
106.0676750057094
 31
0.0
  0
LINE
  5
B2C
330
766
100
AcDbEntity
  8
OLÇÜ
 62
   180
100
AcDbLine
 10
275.1411836995402
 20
159.5676750057094
 30
0.0
 11
275.1411836995401
 21
107.5676750057094
 31
0.0
  0
SOLID
  5
B2D
330
766
100
AcDbEntity
  8
OLÇÜ
 62
   180
100
AcDbTrace
 10
274.8911836995402
 20
159.5676750057094
 30
0.0
 11
275.3911836995402
 21
159.5676750057094
 31
0.0
 12
275.1411836995402
 22
161.0676750057095
 32
0.0
 13
275.1411836995402
 23
161.0676750057095
 33
0.0
  0
SOLID
  5
B2E
330
766
100
AcDbEntity
  8
OLÇÜ
 62
   180
100
AcDbTrace
 10
274.8911836995401
 20
107.5676750057094
 30
0.0
 11
275.3911836995401
 21
107.5676750057094
 31
0.0
 12
275.1411836995401
 22
106.0676750057094
 32
0.0
 13
275.1411836995401
 23
106.0676750057094
 33
0.0
  0
MTEXT
  5
B2F
330
766
100
AcDbEntity
  8
OLÇÜ
 62
   180
100
AcDbMText
 10
273.8011836995402
 20
133.5676750057094
 30
0.0
 40
2.5
 41
0.0
 71
     5
 72
     1
  1
\A1;11.0
  7
ROMANT
 11
0.0000000000000001
 21
1.0
 31
0.0
1001
ACAD
1000
MTEXTBEGIN
1070
    73
1070
     1
1070
    44
1040
1.0
1070
    74
1070
     0
1000
MTEXTEND
  0
POINT
  5
B30
330
766
100
AcDbEntity
  8
DEFPOINTS
 62
     0
100
AcDbPoint
 10
297.2691819999874
 20
161.0676750057095
 30
0.0
  0
POINT
  5
B31
330
766
100
AcDbEntity
  8
DEFPOINTS
 62
     0
100
AcDbPoint
 10
286.9554105041127
 20
106.0676750057094
 30
0.0
  0
POINT
  5
B32
330
766
100
AcDbEntity
  8
DEFPOINTS
 62
     0
100
AcDbPoint
 10
275.1411836995401
 20
106.0676750057094
 30
0.0
  0
ENDBLK
  5
771
330
766
100
AcDbEntity
  8
0
100
AcDbBlockEnd
  0
BLOCK
  5
80B
330
78D
100
AcDbEntity
  8
0
100
AcDbBlockBegin
  2
*D7
 70
     1
 10
0.0
 20
0.0
 30
0.0
  3
*D7
  1

  0
LINE
  5
B8E
330
78D
100
AcDbEntity
  8
OLÇÜ
 62
   180
100
AcDbLine
 10
395.8191819999876
 20
166.0676750057094
 30
0.0
 11
390.6083362496203
 21
166.0676750057094
 31
0.0
  0
LINE
  5
B8F
330
78D
100
AcDbEntity
  8
OLÇÜ
 62
   180
100
AcDbLine
 10
398.3191819999875
 20
156.0676750057094
 30
0.0
 11
390.6083362496203
 21
156.0676750057094
 31
0.0
  0
LINE
  5
B90
330
78D
100
AcDbEntity
  8
OLÇÜ
 62
   180
100
AcDbLine
 10
392.1083362496203
 20
157.5676750057094
 30
0.0
 11
392.1083362496203
 21
164.5676750057094
 31
0.0
  0
LINE
  5
B91
330
78D
100
AcDbEntity
  8
OLÇÜ
 62
   180
100
AcDbLine
 10
392.1083362496203
 20
166.0676750057094
 30
0.0
 11
392.1083362496203
 21
174.3261312089191
 31
0.0
  0
SOLID
  5
B92
330
78D
100
AcDbEntity
  8
OLÇÜ
 62
   180
100
AcDbTrace
 10
391.8583362496203
 20
157.5676750057094
 30
0.0
 11
392.3583362496203
 21
157.5676750057094
 31
0.0
 12
392.1083362496203
 22
156.0676750057094
 32
0.0
 13
392.1083362496203
 23
156.0676750057094
 33
0.0
  0
SOLID
  5
B93
330
78D
100
AcDbEntity
  8
OLÇÜ
 62
   180
100
AcDbTrace
 10
391.8583362496203
 20
164.5676750057094
 30
0.0
 11
392.3583362496203
 21
164.5676750057094
 31
0.0
 12
392.1083362496203
 22
166.0676750057094
 32
0.0
 13
392.1083362496203
 23
166.0676750057094
 33
0.0
  0
MTEXT
  5
B94
330
78D
100
AcDbEntity
  8
OLÇÜ
 62
   180
100
AcDbMText
 10
390.7683362496202
 20
171.345944526102
 30
0.0
 40
2.5
 41
0.0
 71
     5
 72
     1
  1
\A1;2.0
  7
ROMANT
 11
0.0000000000000001
 21
1.0
 31
0.0
1001
ACAD
1000
MTEXTBEGIN
1070
    73
1070
     1
1070
    44
1040
1.0
1070
    74
1070
     0
1000
MTEXTEND
  0
POINT
  5
B95
330
78D
100
AcDbEntity
  8
DEFPOINTS
 62
     0
100
AcDbPoint
 10
396.0191819999876
 20
166.0676750057094
 30
0.0
  0
POINT
  5
B96
330
78D
100
AcDbEntity
  8
DEFPOINTS
 62
     0
100
AcDbPoint
 10
398.5191819999875
 20
156.0676750057094
 30
0.0
  0
POINT
  5
B97
330
78D
100
AcDbEntity
  8
DEFPOINTS
 62
     0
100
AcDbPoint
 10
392.1083362496203
 20
156.0676750057094
 30
0.0
  0
ENDBLK
  5
816
330
78D
100
AcDbEntity
  8
0
100
AcDbBlockEnd
  0
BLOCK
  5
79B
330
79A
100
AcDbEntity
  8
0
100
AcDbBlockBegin
  2
*D8
 70
     1
 10
0.0
 20
0.0
 30
0.0
  3
*D8
  1

  0
LINE
  5
B67
330
79A
100
AcDbEntity
  8
OLÇÜ
 62
   180
100
AcDbLine
 10
357.2691820105242
 20
142.9534614433364
 30
0.0
 11
357.2691820105242
 21
117.1395088904462
 31
0.0
  0
LINE
  5
B68
330
79A
100
AcDbEntity
  8
OLÇÜ
 62
   180
100
AcDbLine
 10
377.2691820105246
 20
139.3676750057094
 30
0.0
 11
377.2691820105246
 21
117.1395088904462
 31
0.0
  0
LINE
  5
B69
330
79A
100
AcDbEntity
  8
OLÇÜ
 62
   180
100
AcDbLine
 10
358.7691820105242
 20
118.6395088904462
 30
0.0
 11
375.7691820105246
 21
118.6395088904462
 31
0.0
  0
SOLID
  5
B6A
330
79A
100
AcDbEntity
  8
OLÇÜ
 62
   180
100
AcDbTrace
 10
358.7691820105242
 20
118.8895088904462
 30
0.0
 11
358.7691820105242
 21
118.3895088904462
 31
0.0
 12
357.2691820105242
 22
118.6395088904462
 32
0.0
 13
357.2691820105242
 23
118.6395088904462
 33
0.0
  0
SOLID
  5
B6B
330
79A
100
AcDbEntity
  8
OLÇÜ
 62
   180
100
AcDbTrace
 10
375.7691820105246
 20
118.8895088904462
 30
0.0
 11
375.7691820105246
 21
118.3895088904462
 31
0.0
 12
377.2691820105246
 22
118.6395088904462
 32
0.0
 13
377.2691820105246
 23
118.6395088904462
 33
0.0
  0
MTEXT
  5
B6C
330
79A
100
AcDbEntity
  8
OLÇÜ
 62
   180
100
AcDbMText
 10
367.2691820105244
 20
119.9795088904462
 30
0.0
 40
2.5
 41
0.0
 71
     5
 72
     1
  1
\A1;4.0
  7
ROMANT
1001
ACAD
1000
MTEXTBEGIN
1070
    73
1070
     1
1070
    44
1040
1.0
1070
    74
1070
     0
1000
MTEXTEND
  0
POINT
  5
B6D
330
79A
100
AcDbEntity
  8
DEFPOINTS
 62
     0
100
AcDbPoint
 10
357.2691820105242
 20
143.1534614433364
 30
0.0
  0
POINT
  5
B6E
330
79A
100
AcDbEntity
  8
DEFPOINTS
 62
     0
100
AcDbPoint
 10
377.2691820105246
 20
139.5676750057094
 30
0.0
  0
POINT
  5
B6F
330
79A
100
AcDbEntity
  8
DEFPOINTS
 62
     0
100
AcDbPoint
 10
377.2691820105246
 20
118.6395088904462
 30
0.0
  0
ENDBLK
  5
7A5
330
79A
100
AcDbEntity
  8
0
100
AcDbBlockEnd
  0
BLOCK
  5
7A8
330
7A7
100
AcDbEntity
  8
0
100
AcDbBlockBegin
  2
*D9
 70
     1
 10
0.0
 20
0.0
 30
0.0
  3
*D9
  1

  0
LINE
  5
B5E
330
7A7
100
AcDbEntity
  8
OLÇÜ
 62
   180
100
AcDbLine
 10
372.2691820105241
 20
140.8676750057094
 30
0.0
 11
372.2691820105241
 21
129.3165127541799
 31
0.0
  0
LINE
  5
B5F
330
7A7
100
AcDbEntity
  8
OLÇÜ
 62
   180
100
AcDbLine
 10
382.2691820105244
 20
140.8676750057094
 30
0.0
 11
382.2691820105244
 21
129.3165127541799
 31
0.0
  0
LINE
  5
B60
330
7A7
100
AcDbEntity
  8
OLÇÜ
 62
   180
100
AcDbLine
 10
373.769182010524
 20
130.8165127541799
 30
0.0
 11
380.7691820105244
 21
130.8165127541799
 31
0.0
  0
SOLID
  5
B61
330
7A7
100
AcDbEntity
  8
OLÇÜ
 62
   180
100
AcDbTrace
 10
373.769182010524
 20
131.0665127541799
 30
0.0
 11
373.769182010524
 21
130.5665127541799
 31
0.0
 12
372.2691820105241
 22
130.8165127541799
 32
0.0
 13
372.2691820105241
 23
130.8165127541799
 33
0.0
  0
SOLID
  5
B62
330
7A7
100
AcDbEntity
  8
OLÇÜ
 62
   180
100
AcDbTrace
 10
380.7691820105244
 20
131.0665127541799
 30
0.0
 11
380.7691820105244
 21
130.5665127541799
 31
0.0
 12
382.2691820105244
 22
130.8165127541799
 32
0.0
 13
382.2691820105244
 23
130.8165127541799
 33
0.0
  0
MTEXT
  5
B63
330
7A7
100
AcDbEntity
  8
OLÇÜ
 62
   180
100
AcDbMText
 10
377.2691820105242
 20
132.1565127541799
 30
0.0
 40
2.5
 41
0.0
 71
     5
 72
     1
  1
\A1;2.0
  7
ROMANT
1001
ACAD
1000
MTEXTBEGIN
1070
    73
1070
     1
1070
    44
1040
1.0
1070
    74
1070
     0
1000
MTEXTEND
  0
POINT
  5
B64
330
7A7
100
AcDbEntity
  8
DEFPOINTS
 62
     0
100
AcDbPoint
 10
372.2691820105241
 20
141.0676750057094
 30
0.0
  0
POINT
  5
B65
330
7A7
100
AcDbEntity
  8
DEFPOINTS
 62
     0
100
AcDbPoint
 10
382.2691820105244
 20
141.0676750057094
 30
0.0
  0
POINT
  5
B66
330
7A7
100
AcDbEntity
  8
DEFPOINTS
 62
     0
100
AcDbPoint
 10
382.2691820105244
 20
130.8165127541799
 30
0.0
  0
ENDBLK
  5
7B2
330
7A7
100
AcDbEntity
  8
0
100
AcDbBlockEnd
  0
BLOCK
  5
7C3
330
7B4
100
AcDbEntity
  8
0
100
AcDbBlockBegin
  2
*D10
 70
     1
 10
0.0
 20
0.0
 30
0.0
  3
*D10
  1

  0
LINE
  5
B53
330
7B4
100
AcDbEntity
  8
OLÇÜ
 62
   180
100
AcDbLine
 10
377.0691820105246
 20
139.3676750057094
 30
0.0
 11
364.42208845151
 21
139.3676750057094
 31
0.0
  0
LINE
  5
B54
330
7B4
100
AcDbEntity
  8
OLÇÜ
 62
   180
100
AcDbLine
 10
365.8191820052557
 20
141.0676750057094
 30
0.0
 11
364.42208845151
 21
141.0676750057094
 31
0.0
  0
LINE
  5
B55
330
7B4
100
AcDbEntity
  8
OLÇÜ
 62
   180
100
AcDbLine
 10
365.9220884515101
 20
142.5676750057094
 30
0.0
 11
365.9220884515101
 21
144.0676750057094
 31
0.0
  0
LINE
  5
B56
330
7B4
100
AcDbEntity
  8
OLÇÜ
 62
   180
100
AcDbLine
 10
365.9220884515101
 20
137.8676750057094
 30
0.0
 11
365.9220884515101
 21
129.761160991633
 31
0.0
  0
LINE
  5
B57
330
7B4
100
AcDbEntity
  8
OLÇÜ
 62
   180
100
AcDbLine
 10
365.9220884515101
 20
141.0676750057094
 30
0.0
 11
365.9220884515101
 21
139.3676750057094
 31
0.0
  0
SOLID
  5
B58
330
7B4
100
AcDbEntity
  8
OLÇÜ
 62
   180
100
AcDbTrace
 10
365.6720884515101
 20
142.5676750057094
 30
0.0
 11
366.1720884515101
 21
142.5676750057094
 31
0.0
 12
365.9220884515101
 22
141.0676750057094
 32
0.0
 13
365.9220884515101
 23
141.0676750057094
 33
0.0
  0
SOLID
  5
B59
330
7B4
100
AcDbEntity
  8
OLÇÜ
 62
   180
100
AcDbTrace
 10
365.6720884515101
 20
137.8676750057094
 30
0.0
 11
366.1720884515101
 21
137.8676750057094
 31
0.0
 12
365.9220884515101
 22
139.3676750057094
 32
0.0
 13
365.9220884515101
 23
139.3676750057094
 33
0.0
  0
MTEXT
  5
B5A
330
7B4
100
AcDbEntity
  8
OLÇÜ
 62
   180
100
AcDbMText
 10
364.58208845151
 20
132.6339757948495
 30
0.0
 40
2.5
 41
0.0
 71
     5
 72
     1
  1
\A1;0.3
  7
ROMANT
 11
0.0000000000000001
 21
1.0
 31
0.0
1001
ACAD
1000
MTEXTBEGIN
1070
    73
1070
     1
1070
    44
1040
1.0
1070
    74
1070
     0
1000
MTEXTEND
  0
POINT
  5
B5B
330
7B4
100
AcDbEntity
  8
DEFPOINTS
 62
     0
100
AcDbPoint
 10
377.2691820105246
 20
139.3676750057094
 30
0.0
  0
POINT
  5
B5C
330
7B4
100
AcDbEntity
  8
DEFPOINTS
 62
     0
100
AcDbPoint
 10
366.0191820052557
 20
141.0676750057094
 30
0.0
  0
POINT
  5
B5D
330
7B4
100
AcDbEntity
  8
DEFPOINTS
 62
     0
100
AcDbPoint
 10
365.9220884515101
 20
141.0676750057094
 30
0.0
  0
ENDBLK
  5
7CF
330
7B4
100
AcDbEntity
  8
0
100
AcDbBlockEnd
  0
BLOCK
  5
7D1
330
7D0
100
AcDbEntity
  8
0
100
AcDbBlockBegin
  2
*D11
 70
     1
 10
0.0
 20
0.0
 30
0.0
  3
*D11
  1

  0
LINE
  5
B4E
330
7D0
100
AcDbEntity
  8
OLÇÜ
 62
   180
100
AcDbLine
 10
321.6252164352492
 20
130.4563184826573
 30
0.0
 11
316.7960607941805
 21
139.4486723522523
 31
0.0
  0
MTEXT
  5
B4F
330
7D0
100
AcDbEntity
  8
OLÇÜ
 62
   180
100
AcDbMText
 10
320.7460159634376
 20
134.9257298233287
 30
0.0
 40
2.5
 41
0.0
 71
     5
 72
     1
  1
\A1;R0.5
  7
ROMANT
 11
0.4731212058068655
 21
-0.8809973465430289
 31
0.0
1001
ACAD
1000
MTEXTBEGIN
1070
    73
1070
     1
1070
    44
1040
1.0
1070
    74
1070
     0
1000
MTEXTEND
  0
SOLID
  5
B50
330
7D0
100
AcDbEntity
  8
OLÇÜ
 62
   180
100
AcDbTrace
 10
317.0163101308162
 20
139.566952653704
 30
0.0
 11
316.5758114575447
 21
139.3303920508006
 31
0.0
 12
316.0863789854702
 22
140.7701683720669
 32
0.0
 13
316.0863789854702
 23
140.7701683720669
 33
0.0
  0
POINT
  5
B51
330
7D0
100
AcDbEntity
  8
DEFPOINTS
 62
     0
100
AcDbPoint
 10
316.0863789854702
 20
140.7701683720669
 30
0.0
  0
POINT
  5
B52
330
7D0
100
AcDbEntity
  8
DEFPOINTS
 62
     0
100
AcDbPoint
 10
317.2691819999873
 20
138.5676750057093
 30
0.0
  0
ENDBLK
  5
7D7
330
7D0
100
AcDbEntity
  8
0
100
AcDbBlockEnd
  0
BLOCK
  5
7DA
330
7D9
100
AcDbEntity
  8
0
100
AcDbBlockBegin
  2
*D12
 70
     1
 10
0.0
 20
0.0
 30
0.0
  3
*D12
  1

  0
LINE
  5
B98
330
7D9
100
AcDbEntity
  8
OLÇÜ
 62
   180
100
AcDbLine
 10
414.9984916891777
 20
96.1552396349408
 30
0.0
 11
410.0328321329948
 21
105.0729409920045
 31
0.0
  0
MTEXT
  5
B99
330
7D9
100
AcDbEntity
  8
OLÇÜ
 62
   180
100
AcDbMText
 10
414.0512688636013
 20
100.6107306427269
 30
0.0
 40
2.5
 41
0.0
 71
     5
 72
     1
  1
\A1;R0.5
  7
ROMANT
 11
0.4864947438984838
 21
-0.8736835034262401
 31
0.0
1001
ACAD
1000
MTEXTBEGIN
1070
    73
1070
     1
1070
    44
1040
1.0
1070
    74
1070
     0
1000
MTEXTEND
  0
LINE
  5
B9A
330
7D9
100
AcDbEntity
  8
OLÇÜ
 62
   180
100
AcDbLine
 10
408.0868531574007
 20
108.5676750057096
 30
0.0
 11
409.303090017147
 21
106.3834662471439
 31
0.0
  0
SOLID
  5
B9B
330
7D9
100
AcDbEntity
  8
OLÇÜ
 62
   180
100
AcDbTrace
 10
410.2512530088513
 20
105.1945646779791
 30
0.0
 11
409.8144112571382
 21
104.9513173060299
 31
0.0
 12
409.303090017147
 22
106.3834662471439
 32
0.0
 13
409.303090017147
 23
106.3834662471439
 33
0.0
  0
POINT
  5
B9C
330
7D9
100
AcDbEntity
  8
DEFPOINTS
 62
     0
100
AcDbPoint
 10
409.303090017147
 20
106.3834662471439
 30
0.0
  0
POINT
  5
B9D
330
7D9
100
AcDbEntity
  8
DEFPOINTS
 62
     0
100
AcDbPoint
 10
408.0868531574007
 20
108.5676750057096
 30
0.0
  0
ENDBLK
  5
7E1
330
7D9
100
AcDbEntity
  8
0
100
AcDbBlockEnd
  0
BLOCK
  5
7E4
330
7E3
100
AcDbEntity
  8
0
100
AcDbBlockBegin
  2
*D13
 70
     1
 10
0.0
 20
0.0
 30
0.0
  3
*D13
  1

  0
LINE
  5
B9E
330
7E3
100
AcDbEntity
  8
OLÇÜ
 62
   180
100
AcDbLine
 10
427.380744462407
 20
170.6674633086978
 30
0.0
 11
422.5417401864048
 21
161.2877596516822
 31
0.0
  0
MTEXT
  5
B9F
330
7E3
100
AcDbEntity
  8
OLÇÜ
 62
   180
100
AcDbMText
 10
424.1958310407942
 20
167.4166533312693
 30
0.0
 40
2.5
 41
0.0
 71
     5
 72
     1
  1
\A1;R2.0
  7
ROMANT
 11
0.4584833205580151
 21
0.8887030126932714
 31
0.0
1001
ACAD
1000
MTEXTBEGIN
1070
    73
1070
     1
1070
    44
1040
1.0
1070
    74
1070
     0
1000
MTEXTEND
  0
LINE
  5
BA0
330
7E3
100
AcDbEntity
  8
OLÇÜ
 62
   180
100
AcDbLine
 10
417.2691819999876
 20
151.0676750057094
 30
0.0
 11
421.8540152055679
 21
159.9547051326422
 31
0.0
  0
SOLID
  5
BA1
330
7E3
100
AcDbEntity
  8
OLÇÜ
 62
   180
100
AcDbTrace
 10
422.3195644332315
 20
161.4023804818216
 30
0.0
 11
422.7639159395782
 21
161.1731388215426
 31
0.0
 12
421.8540152055679
 22
159.9547051326422
 32
0.0
 13
421.8540152055679
 23
159.9547051326422
 33
0.0
  0
POINT
  5
BA2
330
7E3
100
AcDbEntity
  8
DEFPOINTS
 62
     0
100
AcDbPoint
 10
421.8540152055679
 20
159.9547051326422
 30
0.0
  0
POINT
  5
BA3
330
7E3
100
AcDbEntity
  8
DEFPOINTS
 62
     0
100
AcDbPoint
 10
417.2691819999876
 20
151.0676750057094
 30
0.0
  0
ENDBLK
  5
7EB
330
7E3
100
AcDbEntity
  8
0
100
AcDbBlockEnd
  0
BLOCK
  5
7EE
330
7ED
100
AcDbEntity
  8
0
100
AcDbBlockBegin
  2
*D14
 70
     1
 10
0.0
 20
0.0
 30
0.0
  3
*D14
  1

  0
LINE
  5
B17
330
7ED
100
AcDbEntity
  8
OLÇÜ
 62
   180
100
AcDbLine
 10
403.704447288308
 20
166.1757079009449
 30
0.0
 11
397.9559956886537
 21
157.7413450602723
 31
0.0
  0
MTEXT
  5
B18
330
7ED
100
AcDbEntity
  8
OLÇÜ
 62
   180
100
AcDbMText
 10
400.1453290950955
 20
163.3329435968739
 30
0.0
 40
2.5
 41
0.0
 71
     5
 72
     1
  1
\A1;R0.5
  7
ROMANT
 11
0.5631863113339161
 21
0.8263299454371104
 31
0.0
1001
ACAD
1000
MTEXTBEGIN
1070
    73
1070
     1
1070
    44
1040
1.0
1070
    74
1070
     0
1000
MTEXTEND
  0
SOLID
  5
B19
330
7ED
100
AcDbEntity
  8
OLÇÜ
 62
   180
100
AcDbTrace
 10
397.7494132022944
 20
157.8821416381058
 30
0.0
 11
398.1625781750129
 21
157.6005484824388
 31
0.0
 12
397.1112162216528
 22
156.5018501421167
 32
0.0
 13
397.1112162216528
 23
156.5018501421167
 33
0.0
  0
POINT
  5
B1A
330
7ED
100
AcDbEntity
  8
DEFPOINTS
 62
     0
100
AcDbPoint
 10
397.1112162216528
 20
156.5018501421167
 30
0.0
  0
POINT
  5
B1B
330
7ED
100
AcDbEntity
  8
DEFPOINTS
 62
     0
100
AcDbPoint
 10
398.5191819999876
 20
158.5676750057094
 30
0.0
  0
ENDBLK
  5
7F4
330
7ED
100
AcDbEntity
  8
0
100
AcDbBlockEnd
  0
BLOCK
  5
7F7
330
7F6
100
AcDbEntity
  8
0
100
AcDbBlockBegin
  2
*D15
 70
     1
 10
0.0
 20
0.0
 30
0.0
  3
*D15
  1

  0
LINE
  5
B25
330
7F6
100
AcDbEntity
  8
OLÇÜ
 62
   180
100
AcDbLine
 10
372.9560593441656
 20
155.4988757340789
 30
0.0
 11
377.5749310314456
 21
141.1155628609461
 31
0.0
  0
MTEXT
  5
B26
330
7F6
100
AcDbEntity
  8
OLÇÜ
 62
   180
100
AcDbMText
 10
375.5629704019887
 20
151.763551660005
 30
0.0
 40
2.5
 41
0.0
 71
     5
 72
     1
  1
\A1;R0.5
  7
ROMANT
 11
0.3057490209211295
 21
-0.9521121447632999
 31
0.0
1001
ACAD
1000
MTEXTBEGIN
1070
    73
1070
     1
1070
    44
1040
1.0
1070
    74
1070
     0
1000
MTEXTEND
  0
SOLID
  5
B27
330
7F6
100
AcDbEntity
  8
OLÇÜ
 62
   180
100
AcDbTrace
 10
377.8129590676365
 20
141.1920001161763
 30
0.0
 11
377.3369029952548
 21
141.0391256057158
 31
0.0
 12
378.0335545628273
 22
139.6873946438011
 32
0.0
 13
378.0335545628273
 23
139.6873946438011
 33
0.0
  0
POINT
  5
B28
330
7F6
100
AcDbEntity
  8
DEFPOINTS
 62
     0
100
AcDbPoint
 10
378.0335545628273
 20
139.6873946438011
 30
0.0
  0
POINT
  5
B29
330
7F6
100
AcDbEntity
  8
DEFPOINTS
 62
     0
100
AcDbPoint
 10
377.2691820105246
 20
142.0676750057091
 30
0.0
  0
ENDBLK
  5
7FD
330
7F6
100
AcDbEntity
  8
0
100
AcDbBlockEnd
  0
BLOCK
  5
818
330
817
100
AcDbEntity
  8
0
100
AcDbBlockBegin
  2
*D16
 70
     1
 10
0.0
 20
0.0
 30
0.0
  3
*D16
  1

  0
LINE
  5
B0C
330
817
100
AcDbEntity
  8
OLÇÜ
 62
   180
100
AcDbLine
 10
426.6081957625899
 20
147.4867781987729
 30
0.0
 11
437.0766243640502
 21
173.2360845789402
 31
0.0
  0
LINE
  5
B0D
330
817
100
AcDbEntity
  8
OLÇÜ
 62
   180
100
AcDbLine
 10
396.0191819999876
 20
166.2676750057094
 30
0.0
 11
396.0191819999875
 21
181.26306851105
 31
0.0
  0
ARC
  5
B0E
330
817
100
AcDbEntity
  8
OLÇÜ
 62
   180
100
AcDbCircle
 10
396.0191819999875
 20
72.24665217541328
 30
0.0
 40
107.5164163356367
100
AcDbArc
 50
68.675067989175
 51
89.20063959329581
  0
SOLID
  5
B0F
330
817
100
AcDbEntity
  8
OLÇÜ
 62
   180
100
AcDbTrace
 10
435.2107747494804
 20
172.6339932081748
 30
0.0
 11
435.0257018268738
 21
172.1695063802476
 31
0.0
 12
436.5116987719587
 22
171.8465310263917
 32
0.0
 13
436.5116987719587
 23
171.8465310263917
 33
0.0
  0
SOLID
  5
B10
330
817
100
AcDbEntity
  8
OLÇÜ
 62
   180
100
AcDbTrace
 10
397.5174015847388
 20
179.5026110752419
 30
0.0
 11
397.5208894242035
 21
180.0025989100697
 31
0.0
 12
396.0191819999876
 22
179.7630685110499
 32
0.0
 13
396.0191819999876
 23
179.7630685110499
 33
0.0
  0
MTEXT
  5
B11
330
817
100
AcDbEntity
  8
OLÇÜ
 62
   180
100
AcDbMText
 10
416.9058556503891
 20
179.0804775363872
 30
0.0
 40
2.5
 41
0.0
 71
     5
 72
     1
  1
\A1;22.1°
  7
ROMANT
 11
0.9814196439424716
 21
-0.191873610702026
 31
0.0
1001
ACAD
1000
MTEXTBEGIN
1070
    73
1070
     1
1070
    44
1040
1.0
1070
    74
1070
     0
1000
MTEXTEND
  0
POINT
  5
B12
330
817
100
AcDbEntity
  8
DEFPOINTS
 62
     0
100
AcDbPoint
 10
423.3922150399263
 20
176.2201913277014
 30
0.0
  0
POINT
  5
B13
330
817
100
AcDbEntity
  8
DEFPOINTS
 62
     0
100
AcDbPoint
 10
410.4027757449817
 20
107.6261323522238
 30
0.0
  0
POINT
  5
B14
330
817
100
AcDbEntity
  8
DEFPOINTS
 62
     0
100
AcDbPoint
 10
396.0191819999876
 20
158.5676750057094
 30
0.0
  0
POINT
  5
B15
330
817
100
AcDbEntity
  8
DEFPOINTS
 62
     0
100
AcDbPoint
 10
396.0191819999876
 20
166.0676750057094
 30
0.0
  0
POINT
  5
B16
330
817
100
AcDbEntity
  8
DEFPOINTS
 62
     0
100
AcDbPoint
 10
426.532872350311
 20
147.3015043917665
 30
0.0
  0
ENDBLK
  5
824
330
817
100
AcDbEntity
  8
0
100
AcDbBlockEnd
  0
BLOCK
  5
848
330
847
100
AcDbEntity
  8
0
100
AcDbBlockBegin
  2
*D17
 70
     1
 10
0.0
 20
0.0
 30
0.0
  3
*D17
  1

  0
LINE
  5
B45
330
847
100
AcDbEntity
  8
OLÇÜ
 62
   180
100
AcDbLine
 10
336.2191819999874
 20
141.0676750057094
 30
0.0
 11
340.2072350520076
 21
141.0676750057094
 31
0.0
  0
LINE
  5
B46
330
847
100
AcDbEntity
  8
OLÇÜ
 62
   180
100
AcDbLine
 10
314.9691819999873
 20
105.8676750057094
 30
0.0
 11
340.2072350520076
 21
105.8676750057094
 31
0.0
  0
LINE
  5
B47
330
847
100
AcDbEntity
  8
OLÇÜ
 62
   180
100
AcDbLine
 10
338.7072350520076
 20
139.5676750057094
 30
0.0
 11
338.7072350520075
 21
107.3676750057094
 31
0.0
  0
SOLID
  5
B48
330
847
100
AcDbEntity
  8
OLÇÜ
 62
   180
100
AcDbTrace
 10
338.4572350520076
 20
139.5676750057094
 30
0.0
 11
338.9572350520076
 21
139.5676750057094
 31
0.0
 12
338.7072350520076
 22
141.0676750057094
 32
0.0
 13
338.7072350520076
 23
141.0676750057094
 33
0.0
  0
SOLID
  5
B49
330
847
100
AcDbEntity
  8
OLÇÜ
 62
   180
100
AcDbTrace
 10
338.4572350520075
 20
107.3676750057094
 30
0.0
 11
338.9572350520076
 21
107.3676750057094
 31
0.0
 12
338.7072350520075
 22
105.8676750057094
 32
0.0
 13
338.7072350520075
 23
105.8676750057094
 33
0.0
  0
MTEXT
  5
B4A
330
847
100
AcDbEntity
  8
OLÇÜ
 62
   180
100
AcDbMText
 10
337.3672350520076
 20
123.4676750057095
 30
0.0
 40
2.5
 41
0.0
 71
     5
 72
     1
  1
\A1;7.0
  7
ROMANT
 11
0.0000000000000001
 21
1.0
 31
0.0
1001
ACAD
1000
MTEXTBEGIN
1070
    73
1070
     1
1070
    44
1040
1.0
1070
    74
1070
     0
1000
MTEXTEND
  0
POINT
  5
B4B
330
847
100
AcDbEntity
  8
DEFPOINTS
 62
     0
100
AcDbPoint
 10
336.0191819999875
 20
141.0676750057094
 30
0.0
  0
POINT
  5
B4C
330
847
100
AcDbEntity
  8
DEFPOINTS
 62
     0
100
AcDbPoint
 10
314.7691819999873
 20
105.8676750057094
 30
0.0
  0
POINT
  5
B4D
330
847
100
AcDbEntity
  8
DEFPOINTS
 62
     0
100
AcDbPoint
 10
338.7072350520075
 20
105.8676750057094
 30
0.0
  0
ENDBLK
  5
852
330
847
100
AcDbEntity
  8
0
100
AcDbBlockEnd
  0
BLOCK
  5
9DE
330
869
100
AcDbEntity
  8
0
100
AcDbBlockBegin
  2
*X18
 70
     1
 10
0.0
 20
0.0
 30
0.0
  3
*X18
  1

  0
LINE
  5
86A
330
869
100
AcDbEntity
  8
0
 62
     0
100
AcDbLine
 10
119.6249999999999
 20
30.73434161302726
 30
0.0
 11
119.6249999999999
 21
31.73434161302726
 31
0.0
  0
LINE
  5
86B
330
869
100
AcDbEntity
  8
0
 62
     0
100
AcDbLine
 10
119.6249999999999
 20
50.73434161302725
 30
0.0
 11
119.6249999999999
 21
51.73434161302726
 31
0.0
  0
LINE
  5
86C
330
869
100
AcDbEntity
  8
0
 62
     0
100
AcDbLine
 10
119.6249999999999
 20
34.23389329927631
 30
0.0
 11
119.6249999999999
 21
39.78358833883456
 31
0.0
  0
LINE
  5
86D
330
869
100
AcDbEntity
  8
0
 62
     0
100
AcDbLine
 10
119.6249999999999
 20
42.36292722007112
 30
0.0
 11
119.6249999999999
 21
48.39196114086594
 31
0.0
  0
LINE
  5
86E
330
869
100
AcDbEntity
  8
0
 62
     0
100
AcDbLine
 10
119.4374999999999
 20
30.73434161302726
 30
0.0
 11
119.4374999999999
 21
31.73434161302726
 31
0.0
  0
LINE
  5
86F
330
869
100
AcDbEntity
  8
0
 62
     0
100
AcDbLine
 10
119.4374999999999
 20
50.73434161302725
 30
0.0
 11
119.4374999999999
 21
51.73434161302726
 31
0.0
  0
LINE
  5
870
330
869
100
AcDbEntity
  8
0
 62
     0
100
AcDbLine
 10
119.4374999999999
 20
34.23389329927631
 30
0.0
 11
119.4374999999999
 21
39.4588288124154
 31
0.0
  0
LINE
  5
871
330
869
100
AcDbEntity
  8
0
 62
     0
100
AcDbLine
 10
119.4374999999999
 20
42.36292722007112
 30
0.0
 11
119.4374999999999
 21
48.39196114086594
 31
0.0
  0
LINE
  5
872
330
869
100
AcDbEntity
  8
0
 62
     0
100
AcDbLine
 10
119.2499999999999
 20
30.73434161302726
 30
0.0
 11
119.2499999999999
 21
31.73434161302726
 31
0.0
  0
LINE
  5
873
330
869
100
AcDbEntity
  8
0
 62
     0
100
AcDbLine
 10
119.2499999999999
 20
50.73434161302725
 30
0.0
 11
119.2499999999999
 21
51.73434161302726
 31
0.0
  0
LINE
  5
874
330
869
100
AcDbEntity
  8
0
 62
     0
100
AcDbLine
 10
119.2499999999999
 20
34.23389329927631
 30
0.0
 11
119.2499999999999
 21
39.13406928599623
 31
0.0
  0
LINE
  5
875
330
869
100
AcDbEntity
  8
0
 62
     0
100
AcDbLine
 10
119.2499999999999
 20
42.36292722007112
 30
0.0
 11
119.2499999999999
 21
48.39196114086594
 31
0.0
  0
LINE
  5
876
330
869
100
AcDbEntity
  8
0
 62
     0
100
AcDbLine
 10
119.0624999999999
 20
30.73434161302726
 30
0.0
 11
119.0624999999999
 21
31.73434161302726
 31
0.0
  0
LINE
  5
877
330
869
100
AcDbEntity
  8
0
 62
     0
100
AcDbLine
 10
119.0624999999999
 20
50.73434161302725
 30
0.0
 11
119.0624999999999
 21
51.73434161302726
 31
0.0
  0
LINE
  5
878
330
869
100
AcDbEntity
  8
0
 62
     0
100
AcDbLine
 10
119.0624999999999
 20
34.23389329927631
 30
0.0
 11
119.0624999999999
 21
38.80930975957706
 31
0.0
  0
LINE
  5
879
330
869
100
AcDbEntity
  8
0
 62
     0
100
AcDbLine
 10
119.0624999999999
 20
42.36292722007112
 30
0.0
 11
119.0624999999999
 21
48.39196114086594
 31
0.0
  0
LINE
  5
87A
330
869
100
AcDbEntity
  8
0
 62
     0
100
AcDbLine
 10
118.8749999999999
 20
30.73434161302726
 30
0.0
 11
118.8749999999999
 21
31.73434161302726
 31
0.0
  0
LINE
  5
87B
330
869
100
AcDbEntity
  8
0
 62
     0
100
AcDbLine
 10
118.8749999999999
 20
50.73434161302725
 30
0.0
 11
118.8749999999999
 21
51.73434161302726
 31
0.0
  0
LINE
  5
87C
330
869
100
AcDbEntity
  8
0
 62
     0
100
AcDbLine
 10
118.8749999999999
 20
34.23389329927631
 30
0.0
 11
118.8749999999999
 21
38.48455023315789
 31
0.0
  0
LINE
  5
87D
330
869
100
AcDbEntity
  8
0
 62
     0
100
AcDbLine
 10
118.8749999999999
 20
42.36292722007112
 30
0.0
 11
118.8749999999999
 21
48.39196114086594
 31
0.0
  0
LINE
  5
87E
330
869
100
AcDbEntity
  8
0
 62
     0
100
AcDbLine
 10
118.8749999999999
 20
40.08455023785443
 30
0.0
 11
118.8749999999999
 21
40.44130420998858
 31
0.0
  0
LINE
  5
87F
330
869
100
AcDbEntity
  8
0
 62
     0
100
AcDbLine
 10
118.6874999999999
 20
30.73434161302726
 30
0.0
 11
118.6874999999999
 21
31.73434161302726
 31
0.0
  0
LINE
  5
880
330
869
100
AcDbEntity
  8
0
 62
     0
100
AcDbLine
 10
118.6874999999999
 20
50.73434161302725
 30
0.0
 11
118.6874999999999
 21
51.73434161302726
 31
0.0
  0
LINE
  5
881
330
869
100
AcDbEntity
  8
0
 62
     0
100
AcDbLine
 10
118.6874999999999
 20
34.23389329927631
 30
0.0
 11
118.6874999999999
 21
38.15979070673873
 31
0.0
  0
LINE
  5
882
330
869
100
AcDbEntity
  8
0
 62
     0
100
AcDbLine
 10
118.6874999999999
 20
42.41926881554642
 30
0.0
 11
118.6874999999999
 21
48.39196114086594
 31
0.0
  0
LINE
  5
883
330
869
100
AcDbEntity
  8
0
 62
     0
100
AcDbLine
 10
118.6874999999999
 20
39.75979071181569
 30
0.0
 11
118.6874999999999
 21
40.76606373625941
 31
0.0
  0
LINE
  5
884
330
869
100
AcDbEntity
  8
0
 62
     0
100
AcDbLine
 10
118.4999999999999
 20
30.73434161302726
 30
0.0
 11
118.4999999999999
 21
31.73434161302726
 31
0.0
  0
LINE
  5
885
330
869
100
AcDbEntity
  8
0
 62
     0
100
AcDbLine
 10
118.4999999999999
 20
50.73434161302725
 30
0.0
 11
118.4999999999999
 21
51.73434161302726
 31
0.0
  0
LINE
  5
886
330
869
100
AcDbEntity
  8
0
 62
     0
100
AcDbLine
 10
118.4999999999999
 20
34.23389329927631
 30
0.0
 11
118.4999999999999
 21
37.83503118031956
 31
0.0
  0
LINE
  5
887
330
869
100
AcDbEntity
  8
0
 62
     0
100
AcDbLine
 10
118.4999999999999
 20
42.69082325982261
 30
0.0
 11
118.4999999999999
 21
48.39196114086594
 31
0.0
  0
LINE
  5
888
330
869
100
AcDbEntity
  8
0
 62
     0
100
AcDbLine
 10
118.4999999999999
 20
39.43503118577694
 30
0.0
 11
118.4999999999999
 21
41.09082326253024
 31
0.0
  0
LINE
  5
889
330
869
100
AcDbEntity
  8
0
 62
     0
100
AcDbLine
 10
118.3124999999999
 20
30.73434161302726
 30
0.0
 11
118.3124999999999
 21
31.73434161302726
 31
0.0
  0
LINE
  5
88A
330
869
100
AcDbEntity
  8
0
 62
     0
100
AcDbLine
 10
118.3124999999999
 20
50.73434161302725
 30
0.0
 11
118.3124999999999
 21
51.73434161302726
 31
0.0
  0
LINE
  5
88B
330
869
100
AcDbEntity
  8
0
 62
     0
100
AcDbLine
 10
118.3124999999999
 20
34.23389329927631
 30
0.0
 11
118.3124999999999
 21
37.51027165390039
 31
0.0
  0
LINE
  5
88C
330
869
100
AcDbEntity
  8
0
 62
     0
100
AcDbLine
 10
118.3124999999999
 20
43.01558278624178
 30
0.0
 11
118.3124999999999
 21
48.39196114086594
 31
0.0
  0
LINE
  5
88D
330
869
100
AcDbEntity
  8
0
 62
     0
100
AcDbLine
 10
118.3124999999999
 20
39.1102716597382
 30
0.0
 11
118.3124999999999
 21
41.41558278880107
 31
0.0
  0
LINE
  5
88E
330
869
100
AcDbEntity
  8
0
 62
     0
100
AcDbLine
 10
118.1249999999999
 20
30.73434161302726
 30
0.0
 11
118.1249999999999
 21
31.73434161302726
 31
0.0
  0
LINE
  5
88F
330
869
100
AcDbEntity
  8
0
 62
     0
100
AcDbLine
 10
118.1249999999999
 20
50.73434161302725
 30
0.0
 11
118.1249999999999
 21
51.73434161302726
 31
0.0
  0
LINE
  5
890
330
869
100
AcDbEntity
  8
0
 62
     0
100
AcDbLine
 10
118.1249999999999
 20
34.23389329927631
 30
0.0
 11
118.1249999999999
 21
37.18551212748122
 31
0.0
  0
LINE
  5
891
330
869
100
AcDbEntity
  8
0
 62
     0
100
AcDbLine
 10
118.1249999999999
 20
43.34034231266095
 30
0.0
 11
118.1249999999999
 21
48.39196114086594
 31
0.0
  0
LINE
  5
892
330
869
100
AcDbEntity
  8
0
 62
     0
100
AcDbLine
 10
118.1249999999999
 20
38.78551213369945
 30
0.0
 11
118.1249999999999
 21
41.7403423150719
 31
0.0
  0
LINE
  5
893
330
869
100
AcDbEntity
  8
0
 62
     0
100
AcDbLine
 10
117.9374999999999
 20
30.73434161302726
 30
0.0
 11
117.9374999999999
 21
31.73434161302726
 31
0.0
  0
LINE
  5
894
330
869
100
AcDbEntity
  8
0
 62
     0
100
AcDbLine
 10
117.9374999999999
 20
50.73434161302725
 30
0.0
 11
117.9374999999999
 21
51.73434161302726
 31
0.0
  0
LINE
  5
895
330
869
100
AcDbEntity
  8
0
 62
     0
100
AcDbLine
 10
117.9374999999999
 20
34.23389329927631
 30
0.0
 11
117.9374999999999
 21
36.86075260106206
 31
0.0
  0
LINE
  5
896
330
869
100
AcDbEntity
  8
0
 62
     0
100
AcDbLine
 10
117.9374999999999
 20
43.66510183908012
 30
0.0
 11
117.9374999999999
 21
48.39196114086594
 31
0.0
  0
LINE
  5
897
330
869
100
AcDbEntity
  8
0
 62
     0
100
AcDbLine
 10
117.9374999999999
 20
38.46075260766071
 30
0.0
 11
117.9374999999999
 21
42.06510184134273
 31
0.0
  0
LINE
  5
898
330
869
100
AcDbEntity
  8
0
 62
     0
100
AcDbLine
 10
117.7499999999999
 20
30.73434161302726
 30
0.0
 11
117.7499999999999
 21
31.73434161302726
 31
0.0
  0
LINE
  5
899
330
869
100
AcDbEntity
  8
0
 62
     0
100
AcDbLine
 10
117.7499999999999
 20
50.73434161302725
 30
0.0
 11
117.7499999999999
 21
51.73434161302726
 31
0.0
  0
LINE
  5
89A
330
869
100
AcDbEntity
  8
0
 62
     0
100
AcDbLine
 10
117.7499999999999
 20
34.23389329927631
 30
0.0
 11
117.7499999999999
 21
36.53599307464288
 31
0.0
  0
LINE
  5
89B
330
869
100
AcDbEntity
  8
0
 62
     0
100
AcDbLine
 10
117.7499999999999
 20
43.98986136549929
 30
0.0
 11
117.7499999999999
 21
48.39196114086594
 31
0.0
  0
LINE
  5
89C
330
869
100
AcDbEntity
  8
0
 62
     0
100
AcDbLine
 10
117.7499999999999
 20
38.13599308162197
 30
0.0
 11
117.7499999999999
 21
42.38986136761356
 31
0.0
  0
LINE
  5
89D
330
869
100
AcDbEntity
  8
0
 62
     0
100
AcDbLine
 10
117.5624999999999
 20
30.73434161302726
 30
0.0
 11
117.5624999999999
 21
31.73434161302726
 31
0.0
  0
LINE
  5
89E
330
869
100
AcDbEntity
  8
0
 62
     0
100
AcDbLine
 10
117.5624999999999
 20
50.73434161302725
 30
0.0
 11
117.5624999999999
 21
51.73434161302726
 31
0.0
  0
LINE
  5
89F
330
869
100
AcDbEntity
  8
0
 62
     0
100
AcDbLine
 10
117.5624999999999
 20
34.23389329927631
 30
0.0
 11
117.5624999999999
 21
36.21123354822372
 31
0.0
  0
LINE
  5
8A0
330
869
100
AcDbEntity
  8
0
 62
     0
100
AcDbLine
 10
117.5624999999999
 20
44.31462089191845
 30
0.0
 11
117.5624999999999
 21
48.39196114086594
 31
0.0
  0
LINE
  5
8A1
330
869
100
AcDbEntity
  8
0
 62
     0
100
AcDbLine
 10
117.5624999999999
 20
37.81123355558323
 30
0.0
 11
117.5624999999999
 21
42.71462089388439
 31
0.0
  0
LINE
  5
8A2
330
869
100
AcDbEntity
  8
0
 62
     0
100
AcDbLine
 10
117.3749999999999
 20
30.73434161302726
 30
0.0
 11
117.3749999999999
 21
31.73434161302726
 31
0.0
  0
LINE
  5
8A3
330
869
100
AcDbEntity
  8
0
 62
     0
100
AcDbLine
 10
117.3749999999999
 20
50.73434161302725
 30
0.0
 11
117.3749999999999
 21
51.73434161302726
 31
0.0
  0
LINE
  5
8A4
330
869
100
AcDbEntity
  8
0
 62
     0
100
AcDbLine
 10
117.3749999999999
 20
34.23389329927631
 30
0.0
 11
117.3749999999999
 21
35.88647402180455
 31
0.0
  0
LINE
  5
8A5
330
869
100
AcDbEntity
  8
0
 62
     0
100
AcDbLine
 10
117.3749999999999
 20
44.63938041833762
 30
0.0
 11
117.3749999999999
 21
48.39196114086594
 31
0.0
  0
LINE
  5
8A6
330
869
100
AcDbEntity
  8
0
 62
     0
100
AcDbLine
 10
117.3749999999999
 20
37.48647402954448
 30
0.0
 11
117.3749999999999
 21
43.03938042015523
 31
0.0
  0
LINE
  5
8A7
330
869
100
AcDbEntity
  8
0
 62
     0
100
AcDbLine
 10
117.1874999999999
 20
30.73434161302726
 30
0.0
 11
117.1874999999999
 21
31.73434161302726
 31
0.0
  0
LINE
  5
8A8
330
869
100
AcDbEntity
  8
0
 62
     0
100
AcDbLine
 10
117.1874999999999
 20
50.73434161302725
 30
0.0
 11
117.1874999999999
 21
51.73434161302726
 31
0.0
  0
LINE
  5
8A9
330
869
100
AcDbEntity
  8
0
 62
     0
100
AcDbLine
 10
117.1874999999999
 20
34.23389329927631
 30
0.0
 11
117.1874999999999
 21
35.56171449538538
 31
0.0
  0
LINE
  5
8AA
330
869
100
AcDbEntity
  8
0
 62
     0
100
AcDbLine
 10
117.1874999999999
 20
44.9641399447568
 30
0.0
 11
117.1874999999999
 21
48.39196114086594
 31
0.0
  0
LINE
  5
8AB
330
869
100
AcDbEntity
  8
0
 62
     0
100
AcDbLine
 10
117.1874999999999
 20
37.16171450350574
 30
0.0
 11
117.1874999999999
 21
43.36413994642605
 31
0.0
  0
LINE
  5
8AC
330
869
100
AcDbEntity
  8
0
 62
     0
100
AcDbLine
 10
116.9999999999999
 20
30.73434161302726
 30
0.0
 11
116.9999999999999
 21
31.73434161302726
 31
0.0
  0
LINE
  5
8AD
330
869
100
AcDbEntity
  8
0
 62
     0
100
AcDbLine
 10
116.9999999999999
 20
50.73434161302725
 30
0.0
 11
116.9999999999999
 21
51.73434161302726
 31
0.0
  0
LINE
  5
8AE
330
869
100
AcDbEntity
  8
0
 62
     0
100
AcDbLine
 10
116.9999999999999
 20
34.23389329927631
 30
0.0
 11
116.9999999999999
 21
35.23695496896622
 31
0.0
  0
LINE
  5
8AF
330
869
100
AcDbEntity
  8
0
 62
     0
100
AcDbLine
 10
116.9999999999999
 20
45.28889947117597
 30
0.0
 11
116.9999999999999
 21
48.39196114086594
 31
0.0
  0
LINE
  5
8B0
330
869
100
AcDbEntity
  8
0
 62
     0
100
AcDbLine
 10
116.9999999999999
 20
36.83695497746699
 30
0.0
 11
116.9999999999999
 21
43.68889947269688
 31
0.0
  0
LINE
  5
8B1
330
869
100
AcDbEntity
  8
0
 62
     0
100
AcDbLine
 10
116.8124999999999
 20
30.73434161302726
 30
0.0
 11
116.8124999999999
 21
31.73434161302726
 31
0.0
  0
LINE
  5
8B2
330
869
100
AcDbEntity
  8
0
 62
     0
100
AcDbLine
 10
116.8124999999999
 20
50.73434161302725
 30
0.0
 11
116.8124999999999
 21
51.73434161302726
 31
0.0
  0
LINE
  5
8B3
330
869
100
AcDbEntity
  8
0
 62
     0
100
AcDbLine
 10
116.8124999999999
 20
34.23389329927631
 30
0.0
 11
116.8124999999999
 21
34.91219544254705
 31
0.0
  0
LINE
  5
8B4
330
869
100
AcDbEntity
  8
0
 62
     0
100
AcDbLine
 10
116.8124999999999
 20
45.61365899759514
 30
0.0
 11
116.8124999999999
 21
48.38373565494333
 31
0.0
  0
LINE
  5
8B5
330
869
100
AcDbEntity
  8
0
 62
     0
100
AcDbLine
 10
116.8124999999999
 20
36.51219545142825
 30
0.0
 11
116.8124999999999
 21
44.01365899896771
 31
0.0
  0
LINE
  5
8B6
330
869
100
AcDbEntity
  8
0
 62
     0
100
AcDbLine
 10
116.6249999999999
 20
30.73434161302726
 30
0.0
 11
116.6249999999999
 21
31.73434161302726
 31
0.0
  0
LINE
  5
8B7
330
869
100
AcDbEntity
  8
0
 62
     0
100
AcDbLine
 10
116.6249999999999
 20
50.73434161302725
 30
0.0
 11
116.6249999999999
 21
51.73434161302726
 31
0.0
  0
LINE
  5
8B8
330
869
100
AcDbEntity
  8
0
 62
     0
100
AcDbLine
 10
116.6249999999999
 20
34.23389329927631
 30
0.0
 11
116.6249999999999
 21
34.59269753062041
 31
0.0
  0
LINE
  5
8B9
330
869
100
AcDbEntity
  8
0
 62
     0
100
AcDbLine
 10
116.6249999999999
 20
45.9384185240143
 30
0.0
 11
116.6249999999999
 21
48.34088760946108
 31
0.0
  0
LINE
  5
8BA
330
869
100
AcDbEntity
  8
0
 62
     0
100
AcDbLine
 10
116.6249999999999
 20
36.18743592538951
 30
0.0
 11
116.6249999999999
 21
44.33841852523854
 31
0.0
  0
LINE
  5
8BB
330
869
100
AcDbEntity
  8
0
 62
     0
100
AcDbLine
 10
116.4374999999999
 20
30.73434161302726
 30
0.0
 11
116.4374999999999
 21
31.73434161302726
 31
0.0
  0
LINE
  5
8BC
330
869
100
AcDbEntity
  8
0
 62
     0
100
AcDbLine
 10
116.4374999999999
 20
50.73434161302725
 30
0.0
 11
116.4374999999999
 21
51.73434161302726
 31
0.0
  0
LINE
  5
8BD
330
869
100
AcDbEntity
  8
0
 62
     0
100
AcDbLine
 10
116.4374999999999
 20
34.23389329927631
 30
0.0
 11
116.4374999999999
 21
34.44874299145622
 31
0.0
  0
LINE
  5
8BE
330
869
100
AcDbEntity
  8
0
 62
     0
100
AcDbLine
 10
116.4374999999999
 20
46.26317805043347
 30
0.0
 11
116.4374999999999
 21
48.25624911302998
 31
0.0
  0
LINE
  5
8BF
330
869
100
AcDbEntity
  8
0
 62
     0
100
AcDbLine
 10
116.4374999999999
 20
35.86267639935076
 30
0.0
 11
116.4374999999999
 21
44.66317805150937
 31
0.0
  0
LINE
  5
8C0
330
869
100
AcDbEntity
  8
0
 62
     0
100
AcDbLine
 10
116.2499999999999
 20
30.73434161302726
 30
0.0
 11
116.2499999999999
 21
31.73434161302726
 31
0.0
  0
LINE
  5
8C1
330
869
100
AcDbEntity
  8
0
 62
     0
100
AcDbLine
 10
116.2499999999999
 20
50.73434161302725
 30
0.0
 11
116.2499999999999
 21
51.73434161302726
 31
0.0
  0
LINE
  5
8C2
330
869
100
AcDbEntity
  8
0
 62
     0
100
AcDbLine
 10
116.2499999999999
 20
34.23389329927631
 30
0.0
 11
116.2499999999999
 21
34.33758771320932
 31
0.0
  0
LINE
  5
8C3
330
869
100
AcDbEntity
  8
0
 62
     0
100
AcDbLine
 10
116.2499999999999
 20
46.58793757685264
 30
0.0
 11
116.2499999999999
 21
48.11529609429651
 31
0.0
  0
LINE
  5
8C4
330
869
100
AcDbEntity
  8
0
 62
     0
100
AcDbLine
 10
116.2499999999999
 20
35.53791687331202
 30
0.0
 11
116.2499999999999
 21
44.98793757778019
 31
0.0
  0
LINE
  5
8C5
330
869
100
AcDbEntity
  8
0
 62
     0
100
AcDbLine
 10
116.0624999999999
 20
30.73434161302726
 30
0.0
 11
116.0624999999999
 21
31.73434161302726
 31
0.0
  0
LINE
  5
8C6
330
869
100
AcDbEntity
  8
0
 62
     0
100
AcDbLine
 10
116.0624999999999
 20
50.73434161302725
 30
0.0
 11
116.0624999999999
 21
51.73434161302726
 31
0.0
  0
LINE
  5
8C7
330
869
100
AcDbEntity
  8
0
 62
     0
100
AcDbLine
 10
116.0624999999999
 20
34.23389329927631
 30
0.0
 11
116.0624999999999
 21
34.25304788190206
 31
0.0
  0
LINE
  5
8C8
330
869
100
AcDbEntity
  8
0
 62
     0
100
AcDbLine
 10
116.0624999999999
 20
46.91329558864667
 30
0.0
 11
116.0624999999999
 21
47.87062669308522
 31
0.0
  0
LINE
  5
8C9
330
869
100
AcDbEntity
  8
0
 62
     0
100
AcDbLine
 10
116.0624999999999
 20
35.29731832849843
 30
0.0
 11
116.0624999999999
 21
45.31269710405103
 31
0.0
  0
LINE
  5
8CA
330
869
100
AcDbEntity
  8
0
 62
     0
100
AcDbLine
 10
115.8749999999999
 20
30.73434161302726
 30
0.0
 11
115.8749999999999
 21
31.73434161302726
 31
0.0
  0
LINE
  5
8CB
330
869
100
AcDbEntity
  8
0
 62
     0
100
AcDbLine
 10
115.8749999999999
 20
50.73434161302725
 30
0.0
 11
115.8749999999999
 21
51.73434161302726
 31
0.0
  0
LINE
  5
8CC
330
869
100
AcDbEntity
  8
0
 62
     0
100
AcDbLine
 10
115.8749999999999
 20
35.15800657298843
 30
0.0
 11
115.8749999999999
 21
45.63745663032186
 31
0.0
  0
LINE
  5
8CD
330
869
100
AcDbEntity
  8
0
 62
     0
100
AcDbLine
 10
115.6874999999999
 20
30.73434161302726
 30
0.0
 11
115.6874999999999
 21
31.73434161302726
 31
0.0
  0
LINE
  5
8CE
330
869
100
AcDbEntity
  8
0
 62
     0
100
AcDbLine
 10
115.6874999999999
 20
50.73434161302725
 30
0.0
 11
115.6874999999999
 21
51.73434161302726
 31
0.0
  0
LINE
  5
8CF
330
869
100
AcDbEntity
  8
0
 62
     0
100
AcDbLine
 10
115.6874999999999
 20
35.07447046157856
 30
0.0
 11
115.6874999999999
 21
45.96221615659269
 31
0.0
  0
LINE
  5
8D0
330
869
100
AcDbEntity
  8
0
 62
     0
100
AcDbLine
 10
115.4999999999999
 20
30.73434161302726
 30
0.0
 11
115.4999999999999
 21
31.73434161302726
 31
0.0
  0
LINE
  5
8D1
330
869
100
AcDbEntity
  8
0
 62
     0
100
AcDbLine
 10
115.4999999999999
 20
50.73434161302725
 30
0.0
 11
115.4999999999999
 21
51.73434161302726
 31
0.0
  0
LINE
  5
8D2
330
869
100
AcDbEntity
  8
0
 62
     0
100
AcDbLine
 10
115.4999999999999
 20
35.03252279226054
 30
0.0
 11
115.4999999999999
 21
46.28697568286352
 31
0.0
  0
LINE
  5
8D3
330
869
100
AcDbEntity
  8
0
 62
     0
100
AcDbLine
 10
115.3124999999999
 20
30.73434161302726
 30
0.0
 11
115.3124999999999
 21
31.73434161302726
 31
0.0
  0
LINE
  5
8D4
330
869
100
AcDbEntity
  8
0
 62
     0
100
AcDbLine
 10
115.3124999999999
 20
50.73434161302725
 30
0.0
 11
115.3124999999999
 21
51.73434161302726
 31
0.0
  0
LINE
  5
8D5
330
869
100
AcDbEntity
  8
0
 62
     0
100
AcDbLine
 10
115.3124999999999
 20
35.02690536785105
 30
0.0
 11
115.3124999999999
 21
46.61173520913435
 31
0.0
  0
LINE
  5
8D6
330
869
100
AcDbEntity
  8
0
 62
     0
100
AcDbLine
 10
115.1249999999999
 20
30.73434161302726
 30
0.0
 11
115.1249999999999
 21
31.73434161302726
 31
0.0
  0
LINE
  5
8D7
330
869
100
AcDbEntity
  8
0
 62
     0
100
AcDbLine
 10
115.1249999999999
 20
50.73434161302725
 30
0.0
 11
115.1249999999999
 21
51.73434161302726
 31
0.0
  0
LINE
  5
8D8
330
869
100
AcDbEntity
  8
0
 62
     0
100
AcDbLine
 10
115.1249999999999
 20
35.05698541235051
 30
0.0
 11
115.1249999999999
 21
46.93649473540518
 31
0.0
  0
LINE
  5
8D9
330
869
100
AcDbEntity
  8
0
 62
     0
100
AcDbLine
 10
114.9374999999999
 20
30.73434161302726
 30
0.0
 11
114.9374999999999
 21
31.73434161302726
 31
0.0
  0
LINE
  5
8DA
330
869
100
AcDbEntity
  8
0
 62
     0
100
AcDbLine
 10
114.9374999999999
 20
50.73434161302725
 30
0.0
 11
114.9374999999999
 21
51.73434161302726
 31
0.0
  0
LINE
  5
8DB
330
869
100
AcDbEntity
  8
0
 62
     0
100
AcDbLine
 10
114.9374999999999
 20
35.1263409750557
 30
0.0
 11
114.9374999999999
 21
47.54073586155272
 31
0.0
  0
LINE
  5
8DC
330
869
100
AcDbEntity
  8
0
 62
     0
100
AcDbLine
 10
114.7499999999999
 20
30.73434161302726
 30
0.0
 11
114.7499999999999
 21
31.73434161302726
 31
0.0
  0
LINE
  5
8DD
330
869
100
AcDbEntity
  8
0
 62
     0
100
AcDbLine
 10
114.7499999999999
 20
50.73434161302725
 30
0.0
 11
114.7499999999999
 21
51.73434161302726
 31
0.0
  0
LINE
  5
8DE
330
869
100
AcDbEntity
  8
0
 62
     0
100
AcDbLine
 10
114.7499999999999
 20
35.24538639737466
 30
0.0
 11
114.7499999999999
 21
47.21597633515672
 31
0.0
  0
LINE
  5
8DF
330
869
100
AcDbEntity
  8
0
 62
     0
100
AcDbLine
 10
114.5624999999999
 20
30.73434161302726
 30
0.0
 11
114.5624999999999
 21
31.73434161302726
 31
0.0
  0
LINE
  5
8E0
330
869
100
AcDbEntity
  8
0
 62
     0
100
AcDbLine
 10
114.5624999999999
 20
50.73434161302725
 30
0.0
 11
114.5624999999999
 21
51.73434161302726
 31
0.0
  0
LINE
  5
8E1
330
869
100
AcDbEntity
  8
0
 62
     0
100
AcDbLine
 10
114.5624999999999
 20
35.44390461668304
 30
0.0
 11
114.5624999999999
 21
46.89121680876072
 31
0.0
  0
LINE
  5
8E2
330
869
100
AcDbEntity
  8
0
 62
     0
100
AcDbLine
 10
114.3749999999999
 20
30.73434161302726
 30
0.0
 11
114.3749999999999
 21
31.73434161302726
 31
0.0
  0
LINE
  5
8E3
330
869
100
AcDbEntity
  8
0
 62
     0
100
AcDbLine
 10
114.3749999999999
 20
50.73434161302725
 30
0.0
 11
114.3749999999999
 21
51.73434161302726
 31
0.0
  0
LINE
  5
8E4
330
869
100
AcDbEntity
  8
0
 62
     0
100
AcDbLine
 10
114.3749999999999
 20
35.75939714825758
 30
0.0
 11
114.3749999999999
 21
46.56645728236473
 31
0.0
  0
LINE
  5
8E5
330
869
100
AcDbEntity
  8
0
 62
     0
100
AcDbLine
 10
114.1874999999999
 20
30.73434161302726
 30
0.0
 11
114.1874999999999
 21
31.73434161302726
 31
0.0
  0
LINE
  5
8E6
330
869
100
AcDbEntity
  8
0
 62
     0
100
AcDbLine
 10
114.1874999999999
 20
50.73434161302725
 30
0.0
 11
114.1874999999999
 21
51.73434161302726
 31
0.0
  0
LINE
  5
8E7
330
869
100
AcDbEntity
  8
0
 62
     0
100
AcDbLine
 10
114.1874999999999
 20
36.08415667527249
 30
0.0
 11
114.1874999999999
 21
46.24169775596873
 31
0.0
  0
LINE
  5
8E8
330
869
100
AcDbEntity
  8
0
 62
     0
100
AcDbLine
 10
113.9999999999999
 20
30.73434161302726
 30
0.0
 11
113.9999999999999
 21
31.73434161302726
 31
0.0
  0
LINE
  5
8E9
330
869
100
AcDbEntity
  8
0
 62
     0
100
AcDbLine
 10
113.9999999999999
 20
50.73434161302725
 30
0.0
 11
113.9999999999999
 21
51.73434161302726
 31
0.0
  0
LINE
  5
8EA
330
869
100
AcDbEntity
  8
0
 62
     0
100
AcDbLine
 10
113.9999999999999
 20
36.40891620228741
 30
0.0
 11
113.9999999999999
 21
45.91693822957273
 31
0.0
  0
LINE
  5
8EB
330
869
100
AcDbEntity
  8
0
 62
     0
100
AcDbLine
 10
113.8124999999999
 20
30.73434161302726
 30
0.0
 11
113.8124999999999
 21
31.73434161302726
 31
0.0
  0
LINE
  5
8EC
330
869
100
AcDbEntity
  8
0
 62
     0
100
AcDbLine
 10
113.8124999999999
 20
50.73434161302725
 30
0.0
 11
113.8124999999999
 21
51.73434161302726
 31
0.0
  0
LINE
  5
8ED
330
869
100
AcDbEntity
  8
0
 62
     0
100
AcDbLine
 10
113.8124999999999
 20
36.73367572930232
 30
0.0
 11
113.8124999999999
 21
45.59217870317673
 31
0.0
  0
LINE
  5
8EE
330
869
100
AcDbEntity
  8
0
 62
     0
100
AcDbLine
 10
113.6249999999999
 20
30.73434161302726
 30
0.0
 11
113.6249999999999
 21
31.73434161302726
 31
0.0
  0
LINE
  5
8EF
330
869
100
AcDbEntity
  8
0
 62
     0
100
AcDbLine
 10
113.6249999999999
 20
50.73434161302725
 30
0.0
 11
113.6249999999999
 21
51.73434161302726
 31
0.0
  0
LINE
  5
8F0
330
869
100
AcDbEntity
  8
0
 62
     0
100
AcDbLine
 10
113.6249999999999
 20
37.05843525631724
 30
0.0
 11
113.6249999999999
 21
45.26741917678073
 31
0.0
  0
LINE
  5
8F1
330
869
100
AcDbEntity
  8
0
 62
     0
100
AcDbLine
 10
113.4374999999999
 20
30.73434161302726
 30
0.0
 11
113.4374999999999
 21
31.73434161302726
 31
0.0
  0
LINE
  5
8F2
330
869
100
AcDbEntity
  8
0
 62
     0
100
AcDbLine
 10
113.4374999999999
 20
50.73434161302725
 30
0.0
 11
113.4374999999999
 21
51.73434161302726
 31
0.0
  0
LINE
  5
8F3
330
869
100
AcDbEntity
  8
0
 62
     0
100
AcDbLine
 10
113.4374999999999
 20
37.38319478333215
 30
0.0
 11
113.4374999999999
 21
44.94265965038473
 31
0.0
  0
LINE
  5
8F4
330
869
100
AcDbEntity
  8
0
 62
     0
100
AcDbLine
 10
113.2499999999999
 20
30.73434161302726
 30
0.0
 11
113.2499999999999
 21
31.73434161302726
 31
0.0
  0
LINE
  5
8F5
330
869
100
AcDbEntity
  8
0
 62
     0
100
AcDbLine
 10
113.2499999999999
 20
50.73434161302725
 30
0.0
 11
113.2499999999999
 21
51.73434161302726
 31
0.0
  0
LINE
  5
8F6
330
869
100
AcDbEntity
  8
0
 62
     0
100
AcDbLine
 10
113.2499999999999
 20
37.70795431034707
 30
0.0
 11
113.2499999999999
 21
44.61790012398874
 31
0.0
  0
LINE
  5
8F7
330
869
100
AcDbEntity
  8
0
 62
     0
100
AcDbLine
 10
113.0624999999999
 20
30.73434161302726
 30
0.0
 11
113.0624999999999
 21
31.73434161302726
 31
0.0
  0
LINE
  5
8F8
330
869
100
AcDbEntity
  8
0
 62
     0
100
AcDbLine
 10
113.0624999999999
 20
50.73434161302725
 30
0.0
 11
113.0624999999999
 21
51.73434161302726
 31
0.0
  0
LINE
  5
8F9
330
869
100
AcDbEntity
  8
0
 62
     0
100
AcDbLine
 10
113.0624999999999
 20
38.03271383736198
 30
0.0
 11
113.0624999999999
 21
44.29314059759273
 31
0.0
  0
LINE
  5
8FA
330
869
100
AcDbEntity
  8
0
 62
     0
100
AcDbLine
 10
112.8749999999999
 20
30.73434161302726
 30
0.0
 11
112.8749999999999
 21
31.73434161302726
 31
0.0
  0
LINE
  5
8FB
330
869
100
AcDbEntity
  8
0
 62
     0
100
AcDbLine
 10
112.8749999999999
 20
50.73434161302725
 30
0.0
 11
112.8749999999999
 21
51.73434161302726
 31
0.0
  0
LINE
  5
8FC
330
869
100
AcDbEntity
  8
0
 62
     0
100
AcDbLine
 10
112.8749999999999
 20
38.35747336437689
 30
0.0
 11
112.8749999999999
 21
43.96838107119673
 31
0.0
  0
LINE
  5
8FD
330
869
100
AcDbEntity
  8
0
 62
     0
100
AcDbLine
 10
112.6874999999999
 20
30.73434161302726
 30
0.0
 11
112.6874999999999
 21
31.73434161302726
 31
0.0
  0
LINE
  5
8FE
330
869
100
AcDbEntity
  8
0
 62
     0
100
AcDbLine
 10
112.6874999999999
 20
50.73434161302725
 30
0.0
 11
112.6874999999999
 21
51.73434161302726
 31
0.0
  0
LINE
  5
8FF
330
869
100
AcDbEntity
  8
0
 62
     0
100
AcDbLine
 10
112.6874999999999
 20
38.68223289139181
 30
0.0
 11
112.6874999999999
 21
43.64362154480074
 31
0.0
  0
LINE
  5
900
330
869
100
AcDbEntity
  8
0
 62
     0
100
AcDbLine
 10
112.4999999999999
 20
30.73434161302726
 30
0.0
 11
112.4999999999999
 21
31.73434161302726
 31
0.0
  0
LINE
  5
901
330
869
100
AcDbEntity
  8
0
 62
     0
100
AcDbLine
 10
112.4999999999999
 20
50.73434161302725
 30
0.0
 11
112.4999999999999
 21
51.73434161302726
 31
0.0
  0
LINE
  5
902
330
869
100
AcDbEntity
  8
0
 62
     0
100
AcDbLine
 10
112.4999999999999
 20
39.00699241840672
 30
0.0
 11
112.4999999999999
 21
43.31886201840474
 31
0.0
  0
LINE
  5
903
330
869
100
AcDbEntity
  8
0
 62
     0
100
AcDbLine
 10
112.3124999999999
 20
30.73434161302726
 30
0.0
 11
112.3124999999999
 21
31.73434161302726
 31
0.0
  0
LINE
  5
904
330
869
100
AcDbEntity
  8
0
 62
     0
100
AcDbLine
 10
112.3124999999999
 20
50.73434161302725
 30
0.0
 11
112.3124999999999
 21
51.73434161302726
 31
0.0
  0
LINE
  5
905
330
869
100
AcDbEntity
  8
0
 62
     0
100
AcDbLine
 10
112.3124999999999
 20
39.33175194542164
 30
0.0
 11
112.3124999999999
 21
42.99410249200874
 31
0.0
  0
LINE
  5
906
330
869
100
AcDbEntity
  8
0
 62
     0
100
AcDbLine
 10
112.1249999999999
 20
30.73434161302726
 30
0.0
 11
112.1249999999999
 21
31.73434161302726
 31
0.0
  0
LINE
  5
907
330
869
100
AcDbEntity
  8
0
 62
     0
100
AcDbLine
 10
112.1249999999999
 20
50.73434161302725
 30
0.0
 11
112.1249999999999
 21
51.73434161302726
 31
0.0
  0
LINE
  5
908
330
869
100
AcDbEntity
  8
0
 62
     0
100
AcDbLine
 10
112.1249999999999
 20
39.65651147243655
 30
0.0
 11
112.1249999999999
 21
42.66934296561275
 31
0.0
  0
LINE
  5
909
330
869
100
AcDbEntity
  8
0
 62
     0
100
AcDbLine
 10
111.9374999999999
 20
30.73434161302726
 30
0.0
 11
111.9374999999999
 21
31.73434161302726
 31
0.0
  0
LINE
  5
90A
330
869
100
AcDbEntity
  8
0
 62
     0
100
AcDbLine
 10
111.9374999999999
 20
50.73434161302725
 30
0.0
 11
111.9374999999999
 21
51.73434161302726
 31
0.0
  0
LINE
  5
90B
330
869
100
AcDbEntity
  8
0
 62
     0
100
AcDbLine
 10
111.9374999999999
 20
39.98127099945147
 30
0.0
 11
111.9374999999999
 21
42.34458343921675
 31
0.0
  0
LINE
  5
90C
330
869
100
AcDbEntity
  8
0
 62
     0
100
AcDbLine
 10
111.7499999999999
 20
30.73434161302726
 30
0.0
 11
111.7499999999999
 21
31.73434161302726
 31
0.0
  0
LINE
  5
90D
330
869
100
AcDbEntity
  8
0
 62
     0
100
AcDbLine
 10
111.7499999999999
 20
50.73434161302725
 30
0.0
 11
111.7499999999999
 21
51.73434161302726
 31
0.0
  0
LINE
  5
90E
330
869
100
AcDbEntity
  8
0
 62
     0
100
AcDbLine
 10
111.7499999999999
 20
40.30603052646639
 30
0.0
 11
111.7499999999999
 21
42.01982391282075
 31
0.0
  0
LINE
  5
90F
330
869
100
AcDbEntity
  8
0
 62
     0
100
AcDbLine
 10
111.5624999999999
 20
30.740674914095
 30
0.0
 11
111.5624999999999
 21
31.74492105275434
 31
0.0
  0
LINE
  5
910
330
869
100
AcDbEntity
  8
0
 62
     0
100
AcDbLine
 10
111.5624999999999
 20
50.72376217330047
 30
0.0
 11
111.5624999999999
 21
51.72800831195969
 31
0.0
  0
LINE
  5
911
330
869
100
AcDbEntity
  8
0
 62
     0
100
AcDbLine
 10
111.5624999999999
 20
40.6307900534813
 30
0.0
 11
111.5624999999999
 21
41.69506438642475
 31
0.0
  0
LINE
  5
912
330
869
100
AcDbEntity
  8
0
 62
     0
100
AcDbLine
 10
111.3749999999999
 20
30.76118006092885
 30
0.0
 11
111.3749999999999
 21
31.77951239185461
 31
0.0
  0
LINE
  5
913
330
869
100
AcDbEntity
  8
0
 62
     0
100
AcDbLine
 10
111.3749999999999
 20
50.6891708342002
 30
0.0
 11
111.3749999999999
 21
51.70750316512584
 31
0.0
  0
LINE
  5
914
330
869
100
AcDbEntity
  8
0
 62
     0
100
AcDbLine
 10
111.1874999999999
 20
30.79623373596523
 30
0.0
 11
111.1874999999999
 21
31.83993492192459
 31
0.0
  0
LINE
  5
915
330
869
100
AcDbEntity
  8
0
 62
     0
100
AcDbLine
 10
111.1874999999999
 20
50.62874830413023
 30
0.0
 11
111.1874999999999
 21
51.67244949008946
 31
0.0
  0
LINE
  5
916
330
869
100
AcDbEntity
  8
0
 62
     0
100
AcDbLine
 10
110.9999999999999
 20
30.84647656709062
 30
0.0
 11
110.9999999999999
 21
31.92977291893484
 31
0.0
  0
LINE
  5
917
330
869
100
AcDbEntity
  8
0
 62
     0
100
AcDbLine
 10
110.9999999999999
 20
50.53891030712001
 30
0.0
 11
110.9999999999999
 21
51.62220665896407
 31
0.0
  0
LINE
  5
918
330
869
100
AcDbEntity
  8
0
 62
     0
100
AcDbLine
 10
110.8124999999999
 20
30.91289455676685
 30
0.0
 11
110.8124999999999
 21
32.05573377535601
 31
0.0
  0
LINE
  5
919
330
869
100
AcDbEntity
  8
0
 62
     0
100
AcDbLine
 10
110.8124999999999
 20
50.41294945069886
 30
0.0
 11
110.8124999999999
 21
51.55578866928784
 31
0.0
  0
LINE
  5
91A
330
869
100
AcDbEntity
  8
0
 62
     0
100
AcDbLine
 10
110.6249999999999
 20
30.99692772810695
 30
0.0
 11
110.6249999999999
 21
32.23133568461298
 31
0.0
  0
LINE
  5
91B
330
869
100
AcDbEntity
  8
0
 62
     0
100
AcDbLine
 10
110.6249999999999
 20
50.23734754144197
 30
0.0
 11
110.6249999999999
 21
51.47175549794775
 31
0.0
  0
LINE
  5
91C
330
869
100
AcDbEntity
  8
0
 62
     0
100
AcDbLine
 10
110.4374999999999
 20
31.10065633870766
 30
0.0
 11
110.4374999999999
 21
32.49096226851445
 31
0.0
  0
LINE
  5
91D
330
869
100
AcDbEntity
  8
0
 62
     0
100
AcDbLine
 10
110.4374999999999
 20
49.97772095754063
 30
0.0
 11
110.4374999999999
 21
51.36802688734705
 31
0.0
  0
LINE
  5
91E
330
869
100
AcDbEntity
  8
0
 62
     0
100
AcDbLine
 10
110.2499999999999
 20
31.22713153252687
 30
0.0
 11
110.2499999999999
 21
33.06436424023194
 31
0.0
  0
LINE
  5
91F
330
869
100
AcDbEntity
  8
0
 62
     0
100
AcDbLine
 10
110.2499999999999
 20
49.40431898582504
 30
0.0
 11
110.2499999999999
 21
51.24155169352786
 31
0.0
  0
LINE
  5
920
330
869
100
AcDbEntity
  8
0
 62
     0
100
AcDbLine
 10
110.0624999999999
 20
31.38100428143419
 30
0.0
 11
110.0624999999999
 21
51.08767894462054
 31
0.0
  0
LINE
  5
921
330
869
100
AcDbEntity
  8
0
 62
     0
100
AcDbLine
 10
109.8749999999999
 20
31.56985558962826
 30
0.0
 11
109.8749999999999
 21
50.89882763642649
 31
0.0
  0
LINE
  5
922
330
869
100
AcDbEntity
  8
0
 62
     0
100
AcDbLine
 10
109.6874999999999
 20
31.80750746726795
 30
0.0
 11
109.6874999999999
 21
50.66117575878685
 31
0.0
  0
LINE
  5
923
330
869
100
AcDbEntity
  8
0
 62
     0
100
AcDbLine
 10
109.4999999999999
 20
32.12488898361093
 30
0.0
 11
109.4999999999999
 21
50.34379424244395
 31
0.0
  0
LINE
  5
924
330
869
100
AcDbEntity
  8
0
 62
     0
100
AcDbLine
 10
109.3124999999999
 20
32.63801779635305
 30
0.0
 11
109.3124999999999
 21
49.83066542970214
 31
0.0
  0
LINE
  5
925
330
869
100
AcDbEntity
  8
0
 62
     0
100
AcDbLine
 10
119.8124999999999
 20
30.73434161302726
 30
0.0
 11
119.8124999999999
 21
31.73434161302726
 31
0.0
  0
LINE
  5
926
330
869
100
AcDbEntity
  8
0
 62
     0
100
AcDbLine
 10
119.8124999999999
 20
50.73434161302725
 30
0.0
 11
119.8124999999999
 21
51.73434161302726
 31
0.0
  0
LINE
  5
927
330
869
100
AcDbEntity
  8
0
 62
     0
100
AcDbLine
 10
119.8124999999999
 20
34.23389329927631
 30
0.0
 11
119.8124999999999
 21
40.08222418853857
 31
0.0
  0
LINE
  5
928
330
869
100
AcDbEntity
  8
0
 62
     0
100
AcDbLine
 10
119.8124999999999
 20
42.36292722007112
 30
0.0
 11
119.8124999999999
 21
48.39196114086594
 31
0.0
  0
LINE
  5
929
330
869
100
AcDbEntity
  8
0
 62
     0
100
AcDbLine
 10
119.9999999999999
 20
30.73434161302726
 30
0.0
 11
119.9999999999999
 21
31.73434161302726
 31
0.0
  0
LINE
  5
92A
330
869
100
AcDbEntity
  8
0
 62
     0
100
AcDbLine
 10
119.9999999999999
 20
50.73434161302725
 30
0.0
 11
119.9999999999999
 21
51.73434161302726
 31
0.0
  0
LINE
  5
92B
330
869
100
AcDbEntity
  8
0
 62
     0
100
AcDbLine
 10
119.9999999999999
 20
34.23389329927631
 30
0.0
 11
119.9999999999999
 21
40.1624328003386
 31
0.0
  0
LINE
  5
92C
330
869
100
AcDbEntity
  8
0
 62
     0
100
AcDbLine
 10
119.9999999999999
 20
42.36292722007112
 30
0.0
 11
119.9999999999999
 21
48.39196114086594
 31
0.0
  0
LINE
  5
92D
330
869
100
AcDbEntity
  8
0
 62
     0
100
AcDbLine
 10
120.1874999999999
 20
30.73434161302726
 30
0.0
 11
120.1874999999999
 21
31.73434161302726
 31
0.0
  0
LINE
  5
92E
330
869
100
AcDbEntity
  8
0
 62
     0
100
AcDbLine
 10
120.1874999999999
 20
50.73434161302725
 30
0.0
 11
120.1874999999999
 21
51.73434161302726
 31
0.0
  0
LINE
  5
92F
330
869
100
AcDbEntity
  8
0
 62
     0
100
AcDbLine
 10
120.1874999999999
 20
34.23389329927631
 30
0.0
 11
120.1874999999999
 21
40.16292722007113
 31
0.0
  0
LINE
  5
930
330
869
100
AcDbEntity
  8
0
 62
     0
100
AcDbLine
 10
120.1874999999999
 20
42.36292722007112
 30
0.0
 11
120.1874999999999
 21
48.39196114086594
 31
0.0
  0
LINE
  5
931
330
869
100
AcDbEntity
  8
0
 62
     0
100
AcDbLine
 10
120.3749999999999
 20
30.73434161302726
 30
0.0
 11
120.3749999999999
 21
31.73434161302726
 31
0.0
  0
LINE
  5
932
330
869
100
AcDbEntity
  8
0
 62
     0
100
AcDbLine
 10
120.3749999999999
 20
50.73434161302725
 30
0.0
 11
120.3749999999999
 21
51.73434161302726
 31
0.0
  0
LINE
  5
933
330
869
100
AcDbEntity
  8
0
 62
     0
100
AcDbLine
 10
120.3749999999999
 20
34.23389329927631
 30
0.0
 11
120.3749999999999
 21
40.16292722007113
 31
0.0
  0
LINE
  5
934
330
869
100
AcDbEntity
  8
0
 62
     0
100
AcDbLine
 10
120.3749999999999
 20
42.36292722007112
 30
0.0
 11
120.3749999999999
 21
48.39196114086594
 31
0.0
  0
LINE
  5
935
330
869
100
AcDbEntity
  8
0
 62
     0
100
AcDbLine
 10
120.5624999999999
 20
30.73434161302726
 30
0.0
 11
120.5624999999999
 21
31.73434161302726
 31
0.0
  0
LINE
  5
936
330
869
100
AcDbEntity
  8
0
 62
     0
100
AcDbLine
 10
120.5624999999999
 20
50.73434161302725
 30
0.0
 11
120.5624999999999
 21
51.73434161302726
 31
0.0
  0
LINE
  5
937
330
869
100
AcDbEntity
  8
0
 62
     0
100
AcDbLine
 10
120.5624999999999
 20
34.23389329927631
 30
0.0
 11
120.5624999999999
 21
40.16292722007113
 31
0.0
  0
LINE
  5
938
330
869
100
AcDbEntity
  8
0
 62
     0
100
AcDbLine
 10
120.5624999999999
 20
42.36292722007112
 30
0.0
 11
120.5624999999999
 21
48.39196114086594
 31
0.0
  0
LINE
  5
939
330
869
100
AcDbEntity
  8
0
 62
     0
100
AcDbLine
 10
120.7499999999999
 20
30.73434161302726
 30
0.0
 11
120.7499999999999
 21
31.73434161302726
 31
0.0
  0
LINE
  5
93A
330
869
100
AcDbEntity
  8
0
 62
     0
100
AcDbLine
 10
120.7499999999999
 20
50.73434161302725
 30
0.0
 11
120.7499999999999
 21
51.73434161302726
 31
0.0
  0
LINE
  5
93B
330
869
100
AcDbEntity
  8
0
 62
     0
100
AcDbLine
 10
120.7499999999999
 20
34.23389329927631
 30
0.0
 11
120.7499999999999
 21
40.16292722007113
 31
0.0
  0
LINE
  5
93C
330
869
100
AcDbEntity
  8
0
 62
     0
100
AcDbLine
 10
120.7499999999999
 20
42.36292722007112
 30
0.0
 11
120.7499999999999
 21
48.39196114086594
 31
0.0
  0
LINE
  5
93D
330
869
100
AcDbEntity
  8
0
 62
     0
100
AcDbLine
 10
120.9374999999999
 20
30.73434161302726
 30
0.0
 11
120.9374999999999
 21
31.73434161302726
 31
0.0
  0
LINE
  5
93E
330
869
100
AcDbEntity
  8
0
 62
     0
100
AcDbLine
 10
120.9374999999999
 20
50.73434161302725
 30
0.0
 11
120.9374999999999
 21
51.73434161302726
 31
0.0
  0
LINE
  5
93F
330
869
100
AcDbEntity
  8
0
 62
     0
100
AcDbLine
 10
120.9374999999999
 20
34.23389329927631
 30
0.0
 11
120.9374999999999
 21
40.16292722007113
 31
0.0
  0
LINE
  5
940
330
869
100
AcDbEntity
  8
0
 62
     0
100
AcDbLine
 10
120.9374999999999
 20
42.36292722007112
 30
0.0
 11
120.9374999999999
 21
48.39196114086594
 31
0.0
  0
LINE
  5
941
330
869
100
AcDbEntity
  8
0
 62
     0
100
AcDbLine
 10
121.1249999999999
 20
30.73434161302726
 30
0.0
 11
121.1249999999999
 21
31.73434161302726
 31
0.0
  0
LINE
  5
942
330
869
100
AcDbEntity
  8
0
 62
     0
100
AcDbLine
 10
121.1249999999999
 20
50.73434161302725
 30
0.0
 11
121.1249999999999
 21
51.73434161302726
 31
0.0
  0
LINE
  5
943
330
869
100
AcDbEntity
  8
0
 62
     0
100
AcDbLine
 10
121.1249999999999
 20
34.23389329927631
 30
0.0
 11
121.1249999999999
 21
40.16292722007113
 31
0.0
  0
LINE
  5
944
330
869
100
AcDbEntity
  8
0
 62
     0
100
AcDbLine
 10
121.1249999999999
 20
42.36292722007112
 30
0.0
 11
121.1249999999999
 21
48.39196114086594
 31
0.0
  0
LINE
  5
945
330
869
100
AcDbEntity
  8
0
 62
     0
100
AcDbLine
 10
121.3124999999999
 20
30.73434161302726
 30
0.0
 11
121.3124999999999
 21
31.73434161302726
 31
0.0
  0
LINE
  5
946
330
869
100
AcDbEntity
  8
0
 62
     0
100
AcDbLine
 10
121.3124999999999
 20
50.73434161302725
 30
0.0
 11
121.3124999999999
 21
51.73434161302726
 31
0.0
  0
LINE
  5
947
330
869
100
AcDbEntity
  8
0
 62
     0
100
AcDbLine
 10
121.3124999999999
 20
34.23389329927631
 30
0.0
 11
121.3124999999999
 21
40.16292722007113
 31
0.0
  0
LINE
  5
948
330
869
100
AcDbEntity
  8
0
 62
     0
100
AcDbLine
 10
121.3124999999999
 20
42.36292722007112
 30
0.0
 11
121.3124999999999
 21
48.39196114086594
 31
0.0
  0
LINE
  5
949
330
869
100
AcDbEntity
  8
0
 62
     0
100
AcDbLine
 10
121.4999999999999
 20
30.73434161302726
 30
0.0
 11
121.4999999999999
 21
31.73434161302726
 31
0.0
  0
LINE
  5
94A
330
869
100
AcDbEntity
  8
0
 62
     0
100
AcDbLine
 10
121.4999999999999
 20
50.73434161302725
 30
0.0
 11
121.4999999999999
 21
51.73434161302726
 31
0.0
  0
LINE
  5
94B
330
869
100
AcDbEntity
  8
0
 62
     0
100
AcDbLine
 10
121.4999999999999
 20
34.23389329927631
 30
0.0
 11
121.4999999999999
 21
40.16292722007113
 31
0.0
  0
LINE
  5
94C
330
869
100
AcDbEntity
  8
0
 62
     0
100
AcDbLine
 10
121.4999999999999
 20
42.36292722007112
 30
0.0
 11
121.4999999999999
 21
48.39196114086594
 31
0.0
  0
LINE
  5
94D
330
869
100
AcDbEntity
  8
0
 62
     0
100
AcDbLine
 10
121.6874999999999
 20
30.73434161302726
 30
0.0
 11
121.6874999999999
 21
31.73434161302726
 31
0.0
  0
LINE
  5
94E
330
869
100
AcDbEntity
  8
0
 62
     0
100
AcDbLine
 10
121.6874999999999
 20
50.73434161302725
 30
0.0
 11
121.6874999999999
 21
51.73434161302726
 31
0.0
  0
LINE
  5
94F
330
869
100
AcDbEntity
  8
0
 62
     0
100
AcDbLine
 10
121.6874999999999
 20
34.23389329927631
 30
0.0
 11
121.6874999999999
 21
40.16292722007113
 31
0.0
  0
LINE
  5
950
330
869
100
AcDbEntity
  8
0
 62
     0
100
AcDbLine
 10
121.6874999999999
 20
42.36292722007112
 30
0.0
 11
121.6874999999999
 21
48.39196114086594
 31
0.0
  0
LINE
  5
951
330
869
100
AcDbEntity
  8
0
 62
     0
100
AcDbLine
 10
121.8749999999999
 20
30.73434161302726
 30
0.0
 11
121.8749999999999
 21
31.73434161302726
 31
0.0
  0
LINE
  5
952
330
869
100
AcDbEntity
  8
0
 62
     0
100
AcDbLine
 10
121.8749999999999
 20
50.73434161302725
 30
0.0
 11
121.8749999999999
 21
51.73434161302726
 31
0.0
  0
LINE
  5
953
330
869
100
AcDbEntity
  8
0
 62
     0
100
AcDbLine
 10
121.8749999999999
 20
34.23389329927631
 30
0.0
 11
121.8749999999999
 21
40.16292722007113
 31
0.0
  0
LINE
  5
954
330
869
100
AcDbEntity
  8
0
 62
     0
100
AcDbLine
 10
121.8749999999999
 20
42.36292722007112
 30
0.0
 11
121.8749999999999
 21
48.39196114086594
 31
0.0
  0
LINE
  5
955
330
869
100
AcDbEntity
  8
0
 62
     0
100
AcDbLine
 10
122.0624999999999
 20
30.73434161302726
 30
0.0
 11
122.0624999999999
 21
31.73434161302726
 31
0.0
  0
LINE
  5
956
330
869
100
AcDbEntity
  8
0
 62
     0
100
AcDbLine
 10
122.0624999999999
 20
50.73434161302725
 30
0.0
 11
122.0624999999999
 21
51.73434161302726
 31
0.0
  0
LINE
  5
957
330
869
100
AcDbEntity
  8
0
 62
     0
100
AcDbLine
 10
122.0624999999999
 20
34.23389329927631
 30
0.0
 11
122.0624999999999
 21
40.16292722007113
 31
0.0
  0
LINE
  5
958
330
869
100
AcDbEntity
  8
0
 62
     0
100
AcDbLine
 10
122.0624999999999
 20
42.36292722007112
 30
0.0
 11
122.0624999999999
 21
48.39196114086594
 31
0.0
  0
LINE
  5
959
330
869
100
AcDbEntity
  8
0
 62
     0
100
AcDbLine
 10
122.2499999999999
 20
30.73434161302726
 30
0.0
 11
122.2499999999999
 21
31.73434161302726
 31
0.0
  0
LINE
  5
95A
330
869
100
AcDbEntity
  8
0
 62
     0
100
AcDbLine
 10
122.2499999999999
 20
50.73434161302725
 30
0.0
 11
122.2499999999999
 21
51.73434161302726
 31
0.0
  0
LINE
  5
95B
330
869
100
AcDbEntity
  8
0
 62
     0
100
AcDbLine
 10
122.2499999999999
 20
34.23389329927631
 30
0.0
 11
122.2499999999999
 21
40.16292722007113
 31
0.0
  0
LINE
  5
95C
330
869
100
AcDbEntity
  8
0
 62
     0
100
AcDbLine
 10
122.2499999999999
 20
42.36292722007112
 30
0.0
 11
122.2499999999999
 21
48.39196114086594
 31
0.0
  0
LINE
  5
95D
330
869
100
AcDbEntity
  8
0
 62
     0
100
AcDbLine
 10
122.4374999999999
 20
30.73434161302726
 30
0.0
 11
122.4374999999999
 21
31.73434161302726
 31
0.0
  0
LINE
  5
95E
330
869
100
AcDbEntity
  8
0
 62
     0
100
AcDbLine
 10
122.4374999999999
 20
50.73434161302725
 30
0.0
 11
122.4374999999999
 21
51.73434161302726
 31
0.0
  0
LINE
  5
95F
330
869
100
AcDbEntity
  8
0
 62
     0
100
AcDbLine
 10
122.4374999999999
 20
34.23389329927631
 30
0.0
 11
122.4374999999999
 21
40.16292722007113
 31
0.0
  0
LINE
  5
960
330
869
100
AcDbEntity
  8
0
 62
     0
100
AcDbLine
 10
122.4374999999999
 20
42.36292722007112
 30
0.0
 11
122.4374999999999
 21
48.39196114086594
 31
0.0
  0
LINE
  5
961
330
869
100
AcDbEntity
  8
0
 62
     0
100
AcDbLine
 10
122.6249999999999
 20
30.73434161302726
 30
0.0
 11
122.6249999999999
 21
31.73434161302726
 31
0.0
  0
LINE
  5
962
330
869
100
AcDbEntity
  8
0
 62
     0
100
AcDbLine
 10
122.6249999999999
 20
50.73434161302725
 30
0.0
 11
122.6249999999999
 21
51.73434161302726
 31
0.0
  0
LINE
  5
963
330
869
100
AcDbEntity
  8
0
 62
     0
100
AcDbLine
 10
122.6249999999999
 20
34.23389329927631
 30
0.0
 11
122.6249999999999
 21
40.16292722007113
 31
0.0
  0
LINE
  5
964
330
869
100
AcDbEntity
  8
0
 62
     0
100
AcDbLine
 10
122.6249999999999
 20
42.36292722007112
 30
0.0
 11
122.6249999999999
 21
48.39196114086594
 31
0.0
  0
LINE
  5
965
330
869
100
AcDbEntity
  8
0
 62
     0
100
AcDbLine
 10
122.8124999999999
 20
30.73434161302726
 30
0.0
 11
122.8124999999999
 21
31.73434161302726
 31
0.0
  0
LINE
  5
966
330
869
100
AcDbEntity
  8
0
 62
     0
100
AcDbLine
 10
122.8124999999999
 20
50.73434161302725
 30
0.0
 11
122.8124999999999
 21
51.73434161302726
 31
0.0
  0
LINE
  5
967
330
869
100
AcDbEntity
  8
0
 62
     0
100
AcDbLine
 10
122.8124999999999
 20
34.23389329927631
 30
0.0
 11
122.8124999999999
 21
40.16292722007113
 31
0.0
  0
LINE
  5
968
330
869
100
AcDbEntity
  8
0
 62
     0
100
AcDbLine
 10
122.8124999999999
 20
42.36292722007112
 30
0.0
 11
122.8124999999999
 21
48.39196114086594
 31
0.0
  0
LINE
  5
969
330
869
100
AcDbEntity
  8
0
 62
     0
100
AcDbLine
 10
122.9999999999999
 20
30.73434161302726
 30
0.0
 11
122.9999999999999
 21
31.73434161302726
 31
0.0
  0
LINE
  5
96A
330
869
100
AcDbEntity
  8
0
 62
     0
100
AcDbLine
 10
122.9999999999999
 20
50.73434161302725
 30
0.0
 11
122.9999999999999
 21
51.73434161302726
 31
0.0
  0
LINE
  5
96B
330
869
100
AcDbEntity
  8
0
 62
     0
100
AcDbLine
 10
122.9999999999999
 20
34.23389329927631
 30
0.0
 11
122.9999999999999
 21
40.16292722007113
 31
0.0
  0
LINE
  5
96C
330
869
100
AcDbEntity
  8
0
 62
     0
100
AcDbLine
 10
122.9999999999999
 20
42.36292722007112
 30
0.0
 11
122.9999999999999
 21
48.39145010178652
 31
0.0
  0
LINE
  5
96D
330
869
100
AcDbEntity
  8
0
 62
     0
100
AcDbLine
 10
123.1874999999999
 20
30.73434161302726
 30
0.0
 11
123.1874999999999
 21
31.73434161302726
 31
0.0
  0
LINE
  5
96E
330
869
100
AcDbEntity
  8
0
 62
     0
100
AcDbLine
 10
123.1874999999999
 20
50.73434161302725
 30
0.0
 11
123.1874999999999
 21
51.73434161302726
 31
0.0
  0
LINE
  5
96F
330
869
100
AcDbEntity
  8
0
 62
     0
100
AcDbLine
 10
123.1874999999999
 20
34.24705839230357
 30
0.0
 11
123.1874999999999
 21
40.16292722007113
 31
0.0
  0
LINE
  5
970
330
869
100
AcDbEntity
  8
0
 62
     0
100
AcDbLine
 10
123.1874999999999
 20
42.36292722007112
 30
0.0
 11
123.1874999999999
 21
48.36758131842096
 31
0.0
  0
LINE
  5
971
330
869
100
AcDbEntity
  8
0
 62
     0
100
AcDbLine
 10
123.3749999999999
 20
30.73434161302726
 30
0.0
 11
123.3749999999999
 21
31.73434161302726
 31
0.0
  0
LINE
  5
972
330
869
100
AcDbEntity
  8
0
 62
     0
100
AcDbLine
 10
123.3749999999999
 20
50.73434161302725
 30
0.0
 11
123.3749999999999
 21
51.73434161302726
 31
0.0
  0
LINE
  5
973
330
869
100
AcDbEntity
  8
0
 62
     0
100
AcDbLine
 10
123.3749999999999
 20
34.29685657824298
 30
0.0
 11
123.3749999999999
 21
40.16292722007113
 31
0.0
  0
LINE
  5
974
330
869
100
AcDbEntity
  8
0
 62
     0
100
AcDbLine
 10
123.3749999999999
 20
42.36292722007112
 30
0.0
 11
123.3749999999999
 21
48.30540450457434
 31
0.0
  0
LINE
  5
975
330
869
100
AcDbEntity
  8
0
 62
     0
100
AcDbLine
 10
123.5624999999999
 20
30.73434161302726
 30
0.0
 11
123.5624999999999
 21
31.73434161302726
 31
0.0
  0
LINE
  5
976
330
869
100
AcDbEntity
  8
0
 62
     0
100
AcDbLine
 10
123.5624999999999
 20
50.73434161302725
 30
0.0
 11
123.5624999999999
 21
51.73434161302726
 31
0.0
  0
LINE
  5
977
330
869
100
AcDbEntity
  8
0
 62
     0
100
AcDbLine
 10
123.5624999999999
 20
34.39013978105555
 30
0.0
 11
123.5624999999999
 21
40.16292722007112
 31
0.0
  0
LINE
  5
978
330
869
100
AcDbEntity
  8
0
 62
     0
100
AcDbLine
 10
123.5624999999999
 20
42.36292722007112
 30
0.0
 11
123.5624999999999
 21
48.19608198163137
 31
0.0
  0
LINE
  5
979
330
869
100
AcDbEntity
  8
0
 62
     0
100
AcDbLine
 10
123.7499999999999
 20
30.73434161302726
 30
0.0
 11
123.7499999999999
 21
31.73434161302726
 31
0.0
  0
LINE
  5
97A
330
869
100
AcDbEntity
  8
0
 62
     0
100
AcDbLine
 10
123.7499999999999
 20
50.73434161302725
 30
0.0
 11
123.7499999999999
 21
51.73434161302726
 31
0.0
  0
LINE
  5
97B
330
869
100
AcDbEntity
  8
0
 62
     0
100
AcDbLine
 10
123.7499999999999
 20
34.54433570019199
 30
0.0
 11
123.7499999999999
 21
40.16292722007112
 31
0.0
  0
LINE
  5
97C
330
869
100
AcDbEntity
  8
0
 62
     0
100
AcDbLine
 10
123.7499999999999
 20
42.36292722007112
 30
0.0
 11
123.7499999999999
 21
48.01528238581408
 31
0.0
  0
LINE
  5
97D
330
869
100
AcDbEntity
  8
0
 62
     0
100
AcDbLine
 10
123.9374999999999
 20
30.73434161302726
 30
0.0
 11
123.9374999999999
 21
31.73434161302726
 31
0.0
  0
LINE
  5
97E
330
869
100
AcDbEntity
  8
0
 62
     0
100
AcDbLine
 10
123.9374999999999
 20
50.73434161302725
 30
0.0
 11
123.9374999999999
 21
51.73434161302726
 31
0.0
  0
LINE
  5
97F
330
869
100
AcDbEntity
  8
0
 62
     0
100
AcDbLine
 10
123.9374999999999
 20
34.81305744647532
 30
0.0
 11
123.9374999999999
 21
40.16292722007112
 31
0.0
  0
LINE
  5
980
330
869
100
AcDbEntity
  8
0
 62
     0
100
AcDbLine
 10
123.9374999999999
 20
42.36292722007112
 30
0.0
 11
123.9374999999999
 21
47.71279699366689
 31
0.0
  0
LINE
  5
981
330
869
100
AcDbEntity
  8
0
 62
     0
100
AcDbLine
 10
124.1249999999999
 20
30.73434161302725
 30
0.0
 11
124.1249999999999
 21
31.73434161302725
 31
0.0
  0
LINE
  5
982
330
869
100
AcDbEntity
  8
0
 62
     0
100
AcDbLine
 10
124.1249999999999
 20
50.73434161302725
 30
0.0
 11
124.1249999999999
 21
51.73434161302726
 31
0.0
  0
LINE
  5
983
330
869
100
AcDbEntity
  8
0
 62
     0
100
AcDbLine
 10
124.1249999999999
 20
35.13781697289449
 30
0.0
 11
124.1249999999999
 21
40.16292722007112
 31
0.0
  0
LINE
  5
984
330
869
100
AcDbEntity
  8
0
 62
     0
100
AcDbLine
 10
124.1249999999999
 20
42.36292722007112
 30
0.0
 11
124.1249999999999
 21
47.38803746724773
 31
0.0
  0
LINE
  5
985
330
869
100
AcDbEntity
  8
0
 62
     0
100
AcDbLine
 10
124.3124999999999
 20
30.73434161302725
 30
0.0
 11
124.3124999999999
 21
31.73434161302725
 31
0.0
  0
LINE
  5
986
330
869
100
AcDbEntity
  8
0
 62
     0
100
AcDbLine
 10
124.3124999999999
 20
50.73434161302725
 30
0.0
 11
124.3124999999999
 21
51.73434161302726
 31
0.0
  0
LINE
  5
987
330
869
100
AcDbEntity
  8
0
 62
     0
100
AcDbLine
 10
124.3124999999999
 20
35.46257649931365
 30
0.0
 11
124.3124999999999
 21
40.16292722007112
 31
0.0
  0
LINE
  5
988
330
869
100
AcDbEntity
  8
0
 62
     0
100
AcDbLine
 10
124.3124999999999
 20
42.36292722007112
 30
0.0
 11
124.3124999999999
 21
47.06327794082857
 31
0.0
  0
LINE
  5
989
330
869
100
AcDbEntity
  8
0
 62
     0
100
AcDbLine
 10
124.4999999999999
 20
30.73434161302725
 30
0.0
 11
124.4999999999999
 21
31.73434161302725
 31
0.0
  0
LINE
  5
98A
330
869
100
AcDbEntity
  8
0
 62
     0
100
AcDbLine
 10
124.4999999999999
 20
50.73434161302725
 30
0.0
 11
124.4999999999999
 21
51.73434161302726
 31
0.0
  0
LINE
  5
98B
330
869
100
AcDbEntity
  8
0
 62
     0
100
AcDbLine
 10
124.4999999999999
 20
35.78733602573282
 30
0.0
 11
124.4999999999999
 21
40.16292722007112
 31
0.0
  0
LINE
  5
98C
330
869
100
AcDbEntity
  8
0
 62
     0
100
AcDbLine
 10
124.4999999999999
 20
42.36292722007112
 30
0.0
 11
124.4999999999999
 21
46.7385184144094
 31
0.0
  0
LINE
  5
98D
330
869
100
AcDbEntity
  8
0
 62
     0
100
AcDbLine
 10
124.6874999999999
 20
30.73434161302725
 30
0.0
 11
124.6874999999999
 21
31.73434161302725
 31
0.0
  0
LINE
  5
98E
330
869
100
AcDbEntity
  8
0
 62
     0
100
AcDbLine
 10
124.6874999999999
 20
50.73434161302725
 30
0.0
 11
124.6874999999999
 21
51.73434161302726
 31
0.0
  0
LINE
  5
98F
330
869
100
AcDbEntity
  8
0
 62
     0
100
AcDbLine
 10
124.6874999999999
 20
36.11209555215198
 30
0.0
 11
124.6874999999999
 21
40.16292722007112
 31
0.0
  0
LINE
  5
990
330
869
100
AcDbEntity
  8
0
 62
     0
100
AcDbLine
 10
124.6874999999999
 20
42.36292722007112
 30
0.0
 11
124.6874999999999
 21
46.41375888799024
 31
0.0
  0
LINE
  5
991
330
869
100
AcDbEntity
  8
0
 62
     0
100
AcDbLine
 10
124.8749999999999
 20
30.73434161302725
 30
0.0
 11
124.8749999999999
 21
31.73434161302725
 31
0.0
  0
LINE
  5
992
330
869
100
AcDbEntity
  8
0
 62
     0
100
AcDbLine
 10
124.8749999999999
 20
50.73434161302725
 30
0.0
 11
124.8749999999999
 21
51.73434161302726
 31
0.0
  0
LINE
  5
993
330
869
100
AcDbEntity
  8
0
 62
     0
100
AcDbLine
 10
124.8749999999999
 20
36.43685507857115
 30
0.0
 11
124.8749999999999
 21
40.16292722007112
 31
0.0
  0
LINE
  5
994
330
869
100
AcDbEntity
  8
0
 62
     0
100
AcDbLine
 10
124.8749999999999
 20
42.36292722007112
 30
0.0
 11
124.8749999999999
 21
46.08899936157107
 31
0.0
  0
LINE
  5
995
330
869
100
AcDbEntity
  8
0
 62
     0
100
AcDbLine
 10
125.0624999999999
 20
30.73434161302725
 30
0.0
 11
125.0624999999999
 21
31.73434161302725
 31
0.0
  0
LINE
  5
996
330
869
100
AcDbEntity
  8
0
 62
     0
100
AcDbLine
 10
125.0624999999999
 20
50.73434161302725
 30
0.0
 11
125.0624999999999
 21
51.73434161302726
 31
0.0
  0
LINE
  5
997
330
869
100
AcDbEntity
  8
0
 62
     0
100
AcDbLine
 10
125.0624999999999
 20
36.7616146049903
 30
0.0
 11
125.0624999999999
 21
40.16292722007112
 31
0.0
  0
LINE
  5
998
330
869
100
AcDbEntity
  8
0
 62
     0
100
AcDbLine
 10
125.0624999999999
 20
42.36292722007112
 30
0.0
 11
125.0624999999999
 21
45.76423983515191
 31
0.0
  0
LINE
  5
999
330
869
100
AcDbEntity
  8
0
 62
     0
100
AcDbLine
 10
125.2499999999999
 20
30.73434161302725
 30
0.0
 11
125.2499999999999
 21
31.73434161302725
 31
0.0
  0
LINE
  5
99A
330
869
100
AcDbEntity
  8
0
 62
     0
100
AcDbLine
 10
125.2499999999999
 20
50.73434161302725
 30
0.0
 11
125.2499999999999
 21
51.73434161302726
 31
0.0
  0
LINE
  5
99B
330
869
100
AcDbEntity
  8
0
 62
     0
100
AcDbLine
 10
125.2499999999999
 20
37.08637413140947
 30
0.0
 11
125.2499999999999
 21
40.16292722007112
 31
0.0
  0
LINE
  5
99C
330
869
100
AcDbEntity
  8
0
 62
     0
100
AcDbLine
 10
125.2499999999999
 20
42.36292722007112
 30
0.0
 11
125.2499999999999
 21
45.43948030873274
 31
0.0
  0
LINE
  5
99D
330
869
100
AcDbEntity
  8
0
 62
     0
100
AcDbLine
 10
125.4374999999999
 20
30.73434161302725
 30
0.0
 11
125.4374999999999
 21
31.73434161302725
 31
0.0
  0
LINE
  5
99E
330
869
100
AcDbEntity
  8
0
 62
     0
100
AcDbLine
 10
125.4374999999999
 20
50.73434161302725
 30
0.0
 11
125.4374999999999
 21
51.73434161302726
 31
0.0
  0
LINE
  5
99F
330
869
100
AcDbEntity
  8
0
 62
     0
100
AcDbLine
 10
125.4374999999999
 20
37.41113365782863
 30
0.0
 11
125.4374999999999
 21
40.16292722007112
 31
0.0
  0
LINE
  5
9A0
330
869
100
AcDbEntity
  8
0
 62
     0
100
AcDbLine
 10
125.4374999999999
 20
42.36292722007112
 30
0.0
 11
125.4374999999999
 21
45.11472078231358
 31
0.0
  0
LINE
  5
9A1
330
869
100
AcDbEntity
  8
0
 62
     0
100
AcDbLine
 10
125.6249999999999
 20
30.73434161302725
 30
0.0
 11
125.6249999999999
 21
31.73434161302725
 31
0.0
  0
LINE
  5
9A2
330
869
100
AcDbEntity
  8
0
 62
     0
100
AcDbLine
 10
125.6249999999999
 20
50.73434161302725
 30
0.0
 11
125.6249999999999
 21
51.73434161302726
 31
0.0
  0
LINE
  5
9A3
330
869
100
AcDbEntity
  8
0
 62
     0
100
AcDbLine
 10
125.6249999999999
 20
37.7358931842478
 30
0.0
 11
125.6249999999999
 21
40.16292722007112
 31
0.0
  0
LINE
  5
9A4
330
869
100
AcDbEntity
  8
0
 62
     0
100
AcDbLine
 10
125.6249999999999
 20
42.36292722007112
 30
0.0
 11
125.6249999999999
 21
44.78996125589442
 31
0.0
  0
LINE
  5
9A5
330
869
100
AcDbEntity
  8
0
 62
     0
100
AcDbLine
 10
125.8124999999999
 20
30.73434161302725
 30
0.0
 11
125.8124999999999
 21
31.73434161302725
 31
0.0
  0
LINE
  5
9A6
330
869
100
AcDbEntity
  8
0
 62
     0
100
AcDbLine
 10
125.8124999999999
 20
50.73434161302725
 30
0.0
 11
125.8124999999999
 21
51.73434161302726
 31
0.0
  0
LINE
  5
9A7
330
869
100
AcDbEntity
  8
0
 62
     0
100
AcDbLine
 10
125.8124999999999
 20
38.06065271066696
 30
0.0
 11
125.8124999999999
 21
40.16292722007112
 31
0.0
  0
LINE
  5
9A8
330
869
100
AcDbEntity
  8
0
 62
     0
100
AcDbLine
 10
125.8124999999999
 20
42.36292722007112
 30
0.0
 11
125.8124999999999
 21
44.46520172947525
 31
0.0
  0
LINE
  5
9A9
330
869
100
AcDbEntity
  8
0
 62
     0
100
AcDbLine
 10
125.9999999999999
 20
30.73434161302725
 30
0.0
 11
125.9999999999999
 21
31.73434161302725
 31
0.0
  0
LINE
  5
9AA
330
869
100
AcDbEntity
  8
0
 62
     0
100
AcDbLine
 10
125.9999999999999
 20
50.73434161302725
 30
0.0
 11
125.9999999999999
 21
51.73434161302726
 31
0.0
  0
LINE
  5
9AB
330
869
100
AcDbEntity
  8
0
 62
     0
100
AcDbLine
 10
125.9999999999999
 20
38.38541223708613
 30
0.0
 11
125.9999999999999
 21
40.16292722007112
 31
0.0
  0
LINE
  5
9AC
330
869
100
AcDbEntity
  8
0
 62
     0
100
AcDbLine
 10
125.9999999999999
 20
42.36292722007112
 30
0.0
 11
125.9999999999999
 21
44.14044220305608
 31
0.0
  0
LINE
  5
9AD
330
869
100
AcDbEntity
  8
0
 62
     0
100
AcDbLine
 10
126.1874999999999
 20
30.73434161302725
 30
0.0
 11
126.1874999999999
 21
31.73434161302725
 31
0.0
  0
LINE
  5
9AE
330
869
100
AcDbEntity
  8
0
 62
     0
100
AcDbLine
 10
126.1874999999999
 20
50.73434161302725
 30
0.0
 11
126.1874999999999
 21
51.73434161302726
 31
0.0
  0
LINE
  5
9AF
330
869
100
AcDbEntity
  8
0
 62
     0
100
AcDbLine
 10
126.1874999999999
 20
38.71017176350529
 30
0.0
 11
126.1874999999999
 21
40.16292722007112
 31
0.0
  0
LINE
  5
9B0
330
869
100
AcDbEntity
  8
0
 62
     0
100
AcDbLine
 10
126.1874999999999
 20
42.36292722007112
 30
0.0
 11
126.1874999999999
 21
43.81568267663692
 31
0.0
  0
LINE
  5
9B1
330
869
100
AcDbEntity
  8
0
 62
     0
100
AcDbLine
 10
126.3749999999999
 20
30.73434161302725
 30
0.0
 11
126.3749999999999
 21
31.73434161302725
 31
0.0
  0
LINE
  5
9B2
330
869
100
AcDbEntity
  8
0
 62
     0
100
AcDbLine
 10
126.3749999999999
 20
50.73434161302725
 30
0.0
 11
126.3749999999999
 21
51.73434161302726
 31
0.0
  0
LINE
  5
9B3
330
869
100
AcDbEntity
  8
0
 62
     0
100
AcDbLine
 10
126.3749999999999
 20
39.03493128992446
 30
0.0
 11
126.3749999999999
 21
40.16292722007112
 31
0.0
  0
LINE
  5
9B4
330
869
100
AcDbEntity
  8
0
 62
     0
100
AcDbLine
 10
126.3749999999999
 20
42.36292722007112
 30
0.0
 11
126.3749999999999
 21
43.49092315021776
 31
0.0
  0
LINE
  5
9B5
330
869
100
AcDbEntity
  8
0
 62
     0
100
AcDbLine
 10
126.5624999999999
 20
30.73434161302725
 30
0.0
 11
126.5624999999999
 21
31.73434161302725
 31
0.0
  0
LINE
  5
9B6
330
869
100
AcDbEntity
  8
0
 62
     0
100
AcDbLine
 10
126.5624999999999
 20
50.73434161302725
 30
0.0
 11
126.5624999999999
 21
51.73434161302726
 31
0.0
  0
LINE
  5
9B7
330
869
100
AcDbEntity
  8
0
 62
     0
100
AcDbLine
 10
126.5624999999999
 20
39.35969081634362
 30
0.0
 11
126.5624999999999
 21
40.16292722007112
 31
0.0
  0
LINE
  5
9B8
330
869
100
AcDbEntity
  8
0
 62
     0
100
AcDbLine
 10
126.5624999999999
 20
42.36292722007112
 30
0.0
 11
126.5624999999999
 21
43.1661636237986
 31
0.0
  0
LINE
  5
9B9
330
869
100
AcDbEntity
  8
0
 62
     0
100
AcDbLine
 10
126.7499999999999
 20
30.73434161302725
 30
0.0
 11
126.7499999999999
 21
31.73434161302725
 31
0.0
  0
LINE
  5
9BA
330
869
100
AcDbEntity
  8
0
 62
     0
100
AcDbLine
 10
126.7499999999999
 20
50.73434161302725
 30
0.0
 11
126.7499999999999
 21
51.73434161302726
 31
0.0
  0
LINE
  5
9BB
330
869
100
AcDbEntity
  8
0
 62
     0
100
AcDbLine
 10
126.7499999999999
 20
39.68445034276278
 30
0.0
 11
126.7499999999999
 21
40.16292722007112
 31
0.0
  0
LINE
  5
9BC
330
869
100
AcDbEntity
  8
0
 62
     0
100
AcDbLine
 10
126.7499999999999
 20
42.36292722007112
 30
0.0
 11
126.7499999999999
 21
42.84140409737942
 31
0.0
  0
LINE
  5
9BD
330
869
100
AcDbEntity
  8
0
 62
     0
100
AcDbLine
 10
126.9374999999999
 20
30.73434161302725
 30
0.0
 11
126.9374999999999
 21
31.73434161302725
 31
0.0
  0
LINE
  5
9BE
330
869
100
AcDbEntity
  8
0
 62
     0
100
AcDbLine
 10
126.9374999999999
 20
50.73434161302725
 30
0.0
 11
126.9374999999999
 21
51.73434161302726
 31
0.0
  0
LINE
  5
9BF
330
869
100
AcDbEntity
  8
0
 62
     0
100
AcDbLine
 10
126.9374999999999
 20
40.00920986918194
 30
0.0
 11
126.9374999999999
 21
40.16292722007112
 31
0.0
  0
LINE
  5
9C0
330
869
100
AcDbEntity
  8
0
 62
     0
100
AcDbLine
 10
126.9374999999999
 20
42.36292722007112
 30
0.0
 11
126.9374999999999
 21
42.51664457096026
 31
0.0
  0
LINE
  5
9C1
330
869
100
AcDbEntity
  8
0
 62
     0
100
AcDbLine
 10
127.1249999999999
 20
30.73434161302725
 30
0.0
 11
127.1249999999999
 21
31.73434161302725
 31
0.0
  0
LINE
  5
9C2
330
869
100
AcDbEntity
  8
0
 62
     0
100
AcDbLine
 10
127.1249999999999
 20
50.73434161302725
 30
0.0
 11
127.1249999999999
 21
51.73434161302726
 31
0.0
  0
LINE
  5
9C3
330
869
100
AcDbEntity
  8
0
 62
     0
100
AcDbLine
 10
127.3124999999999
 20
30.73434161302725
 30
0.0
 11
127.3124999999999
 21
31.73434161302725
 31
0.0
  0
LINE
  5
9C4
330
869
100
AcDbEntity
  8
0
 62
     0
100
AcDbLine
 10
127.3124999999999
 20
50.73434161302725
 30
0.0
 11
127.3124999999999
 21
51.73434161302726
 31
0.0
  0
LINE
  5
9C5
330
869
100
AcDbEntity
  8
0
 62
     0
100
AcDbLine
 10
127.4999999999999
 20
30.73434161302725
 30
0.0
 11
127.4999999999999
 21
31.73434161302725
 31
0.0
  0
LINE
  5
9C6
330
869
100
AcDbEntity
  8
0
 62
     0
100
AcDbLine
 10
127.4999999999999
 20
50.73434161302725
 30
0.0
 11
127.4999999999999
 21
51.73434161302726
 31
0.0
  0
LINE
  5
9C7
330
869
100
AcDbEntity
  8
0
 62
     0
100
AcDbLine
 10
127.6874999999999
 20
30.73434161302725
 30
0.0
 11
127.6874999999999
 21
31.73434161302725
 31
0.0
  0
LINE
  5
9C8
330
869
100
AcDbEntity
  8
0
 62
     0
100
AcDbLine
 10
127.6874999999999
 20
50.73434161302725
 30
0.0
 11
127.6874999999999
 21
51.73434161302726
 31
0.0
  0
LINE
  5
9C9
330
869
100
AcDbEntity
  8
0
 62
     0
100
AcDbLine
 10
127.8749999999999
 20
30.73797101226689
 30
0.0
 11
127.8749999999999
 21
31.74039844933573
 31
0.0
  0
LINE
  5
9CA
330
869
100
AcDbEntity
  8
0
 62
     0
100
AcDbLine
 10
127.8749999999999
 20
50.72828477671877
 30
0.0
 11
127.8749999999999
 21
51.73071221378761
 31
0.0
  0
LINE
  5
9CB
330
869
100
AcDbEntity
  8
0
 62
     0
100
AcDbLine
 10
128.0624999999999
 20
30.75518616833917
 30
0.0
 11
128.0624999999999
 21
31.76934614582384
 31
0.0
  0
LINE
  5
9CC
330
869
100
AcDbEntity
  8
0
 62
     0
100
AcDbLine
 10
128.0624999999999
 20
50.69933708023067
 30
0.0
 11
128.0624999999999
 21
51.71349705771533
 31
0.0
  0
LINE
  5
9CD
330
869
100
AcDbEntity
  8
0
 62
     0
100
AcDbLine
 10
128.2499999999999
 20
30.78684396001255
 30
0.0
 11
128.2499999999999
 21
31.82358126431013
 31
0.0
  0
LINE
  5
9CE
330
869
100
AcDbEntity
  8
0
 62
     0
100
AcDbLine
 10
128.2499999999999
 20
50.64510196174438
 30
0.0
 11
128.2499999999999
 21
51.68183926604196
 31
0.0
  0
LINE
  5
9CF
330
869
100
AcDbEntity
  8
0
 62
     0
100
AcDbLine
 10
128.4374999999999
 20
30.83351565013482
 30
0.0
 11
128.4374999999999
 21
31.90619805749631
 31
0.0
  0
LINE
  5
9D0
330
869
100
AcDbEntity
  8
0
 62
     0
100
AcDbLine
 10
128.4374999999999
 20
50.5624851685582
 30
0.0
 11
128.4374999999999
 21
51.63516757591969
 31
0.0
  0
LINE
  5
9D1
330
869
100
AcDbEntity
  8
0
 62
     0
100
AcDbLine
 10
128.6249999999999
 20
30.89610010567942
 30
0.0
 11
128.6249999999999
 21
32.02298974561454
 31
0.0
  0
LINE
  5
9D2
330
869
100
AcDbEntity
  8
0
 62
     0
100
AcDbLine
 10
128.6249999999999
 20
50.44569348043999
 30
0.0
 11
128.6249999999999
 21
51.57258312037509
 31
0.0
  0
LINE
  5
9D3
330
869
100
AcDbEntity
  8
0
 62
     0
100
AcDbLine
 10
128.8124999999999
 20
30.9759198434567
 30
0.0
 11
128.8124999999999
 21
32.18530925448431
 31
0.0
  0
LINE
  5
9D4
330
869
100
AcDbEntity
  8
0
 62
     0
100
AcDbLine
 10
128.8124999999999
 20
50.28337397157022
 30
0.0
 11
128.8124999999999
 21
51.49276338259781
 31
0.0
  0
LINE
  5
9D5
330
869
100
AcDbEntity
  8
0
 62
     0
100
AcDbLine
 10
128.9999999999999
 20
31.07488521572351
 30
0.0
 11
128.9999999999999
 21
32.41993880614599
 31
0.0
  0
LINE
  5
9D6
330
869
100
AcDbEntity
  8
0
 62
     0
100
AcDbLine
 10
128.9999999999999
 20
50.04874441990855
 30
0.0
 11
128.9999999999999
 21
51.39379801033101
 31
0.0
  0
LINE
  5
9D7
330
869
100
AcDbEntity
  8
0
 62
     0
100
AcDbLine
 10
129.1874999999999
 20
31.19578269201418
 30
0.0
 11
129.1874999999999
 21
32.83972474257949
 31
0.0
  0
LINE
  5
9D8
330
869
100
AcDbEntity
  8
0
 62
     0
100
AcDbLine
 10
129.1874999999999
 20
49.6289584834751
 30
0.0
 11
129.1874999999999
 21
51.27290053404035
 31
0.0
  0
LINE
  5
9D9
330
869
100
AcDbEntity
  8
0
 62
     0
100
AcDbLine
 10
129.3749999999999
 20
31.34281299388666
 30
0.0
 11
129.3749999999999
 21
51.12587023216786
 31
0.0
  0
LINE
  5
9DA
330
869
100
AcDbEntity
  8
0
 62
     0
100
AcDbLine
 10
129.5624999999999
 20
31.52269735687652
 30
0.0
 11
129.5624999999999
 21
50.94598586917801
 31
0.0
  0
LINE
  5
9DB
330
869
100
AcDbEntity
  8
0
 62
     0
100
AcDbLine
 10
129.7499999999999
 20
31.74731131669846
 30
0.0
 11
129.7499999999999
 21
50.72137190935608
 31
0.0
  0
LINE
  5
9DC
330
869
100
AcDbEntity
  8
0
 62
     0
100
AcDbLine
 10
129.9374999999999
 20
32.0416641022199
 30
0.0
 11
129.9374999999999
 21
50.42701912383464
 31
0.0
  0
LINE
  5
9DD
330
869
100
AcDbEntity
  8
0
 62
     0
100
AcDbLine
 10
130.1249999999999
 20
32.48375005474038
 30
0.0
 11
130.1249999999999
 21
49.9849331713142
 31
0.0
  0
ENDBLK
  5
9DF
330
869
100
AcDbEntity
  8
0
100
AcDbBlockEnd
  0
ENDSEC
  0
SECTION
  2
ENTITIES
  0
POLYLINE
  5
712
330
2
100
AcDbEntity
  8
0
 62
     0
100
AcDb2dPolyline
 66
     1
 10
0.0
 20
0.0
 30
0.0
 70
     1
  0
VERTEX
  5
BF9
330
712
100
AcDbEntity
  8
0
 62
     0
100
AcDbVertex
100
AcDb2dVertex
 10
400.1804749783087
 20
225.41575697518
 30
0.0
  0
VERTEX
  5
BFA
330
712
100
AcDbEntity
  8
0
 62
     0
100
AcDbVertex
100
AcDb2dVertex
 10
400.5390536199639
 20
225.0571783314173
 30
0.0
  0
VERTEX
  5
BFB
330
712
100
AcDbEntity
  8
0
 62
     0
100
AcDbVertex
100
AcDb2dVertex
 10
403.0390536220713
 20
225.0571783314173
 30
0.0
  0
VERTEX
  5
BFC
330
712
100
AcDbEntity
  8
0
 62
     0
100
AcDbVertex
100
AcDb2dVertex
 10
403.8841324145455
 20
224.7817843690464
 30
0.0
 42
0.1588293689549131
  0
VERTEX
  5
BFD
330
712
100
AcDbEntity
  8
0
 62
     0
100
AcDbVertex
100
AcDb2dVertex
 10
404.1939748295972
 20
224.7817843690463
 30
0.0
  0
VERTEX
  5
BFE
330
712
100
AcDbEntity
  8
0
 62
     0
100
AcDbVertex
100
AcDb2dVertex
 10
405.0390536220714
 20
225.0571783314173
 30
0.0
  0
VERTEX
  5
BFF
330
712
100
AcDbEntity
  8
0
 62
     0
100
AcDbVertex
100
AcDb2dVertex
 10
408.039053619964
 20
225.0571783314172
 30
0.0
 42
-0.4142135623730951
  0
VERTEX
  5
C00
330
712
100
AcDbEntity
  8
0
 62
     0
100
AcDbVertex
100
AcDb2dVertex
 10
408.539053619964
 20
224.5571783314173
 30
0.0
  0
VERTEX
  5
C01
330
712
100
AcDbEntity
  8
0
 62
     0
100
AcDbVertex
100
AcDb2dVertex
 10
408.539053619964
 20
218.0571783314173
 30
0.0
  0
VERTEX
  5
C02
330
712
100
AcDbEntity
  8
0
 62
     0
100
AcDbVertex
100
AcDb2dVertex
 10
410.2025878514466
 20
218.0571783314173
 30
0.0
 42
0.3051377596564129
  0
VERTEX
  5
C03
330
712
100
AcDbEntity
  8
0
 62
     0
100
AcDbVertex
100
AcDb2dVertex
 10
410.6657723689628
 20
218.3688698007201
 30
0.0
  0
VERTEX
  5
C04
330
712
100
AcDbEntity
  8
0
 62
     0
100
AcDbVertex
100
AcDb2dVertex
 10
413.8917916900287
 20
226.3039442086287
 30
0.0
 42
0.6283018838735303
  0
VERTEX
  5
C05
330
712
100
AcDbEntity
  8
0
 62
     0
100
AcDbVertex
100
AcDb2dVertex
 10
411.4730112080307
 20
228.9754056349172
 30
0.0
  0
VERTEX
  5
C06
330
712
100
AcDbEntity
  8
0
 62
     0
100
AcDbVertex
100
AcDb2dVertex
 10
408.4305642229473
 20
228.0776215055423
 30
0.0
 42
-0.5009843064819125
  0
VERTEX
  5
C07
330
712
100
AcDbEntity
  8
0
 62
     0
100
AcDbVertex
100
AcDb2dVertex
 10
407.7890536199641
 20
228.5571783314173
 30
0.0
  0
VERTEX
  5
C08
330
712
100
AcDbEntity
  8
0
 62
     0
100
AcDbVertex
100
AcDb2dVertex
 10
407.7890536199641
 20
230.0571783314173
 30
0.0
  0
VERTEX
  5
C09
330
712
100
AcDbEntity
  8
0
 62
     0
100
AcDbVertex
100
AcDb2dVertex
 10
400.5390536199639
 20
230.0571783314173
 30
0.0
  0
VERTEX
  5
C0A
330
712
100
AcDbEntity
  8
0
 62
     0
100
AcDbVertex
100
AcDb2dVertex
 10
400.1804749740939
 20
229.6985996876546
 30
0.0
 42
-0.4142135623731117
  0
VERTEX
  5
C0B
330
712
100
AcDbEntity
  8
0
 62
     0
100
AcDbVertex
100
AcDb2dVertex
 10
399.8976322616194
 20
229.6985996876546
 30
0.0
  0
VERTEX
  5
C0C
330
712
100
AcDbEntity
  8
0
 62
     0
100
AcDbVertex
100
AcDb2dVertex
 10
399.539053619964
 20
230.0571783314173
 30
0.0
  0
VERTEX
  5
C0D
330
712
100
AcDbEntity
  8
0
 62
     0
100
AcDbVertex
100
AcDb2dVertex
 10
392.2890536199639
 20
230.0571783314173
 30
0.0
  0
VERTEX
  5
C0E
330
712
100
AcDbEntity
  8
0
 62
     0
100
AcDbVertex
100
AcDb2dVertex
 10
392.2890536199639
 20
228.5571783314173
 30
0.0
 42
-0.5009843064819125
  0
VERTEX
  5
C0F
330
712
100
AcDbEntity
  8
0
 62
     0
100
AcDbVertex
100
AcDb2dVertex
 10
391.6475430169806
 20
228.0776215055423
 30
0.0
  0
VERTEX
  5
C10
330
712
100
AcDbEntity
  8
0
 62
     0
100
AcDbVertex
100
AcDb2dVertex
 10
388.6050960318973
 20
228.9754056349172
 30
0.0
 42
0.6283018838735303
  0
VERTEX
  5
C11
330
712
100
AcDbEntity
  8
0
 62
     0
100
AcDbVertex
100
AcDb2dVertex
 10
386.1863155498993
 20
226.3039442086287
 30
0.0
  0
VERTEX
  5
C12
330
712
100
AcDbEntity
  8
0
 62
     0
100
AcDbVertex
100
AcDb2dVertex
 10
389.4123348709652
 20
218.3688698007201
 30
0.0
 42
0.3051377596564129
  0
VERTEX
  5
C13
330
712
100
AcDbEntity
  8
0
 62
     0
100
AcDbVertex
100
AcDb2dVertex
 10
389.8755193884813
 20
218.0571783314173
 30
0.0
  0
VERTEX
  5
C14
330
712
100
AcDbEntity
  8
0
 62
     0
100
AcDbVertex
100
AcDb2dVertex
 10
391.5390536199639
 20
218.0571783314173
 30
0.0
  0
VERTEX
  5
C15
330
712
100
AcDbEntity
  8
0
 62
     0
100
AcDbVertex
100
AcDb2dVertex
 10
391.5390536199639
 20
224.5571783314173
 30
0.0
 42
-0.4142135623730951
  0
VERTEX
  5
C16
330
712
100
AcDbEntity
  8
0
 62
     0
100
AcDbVertex
100
AcDb2dVertex
 10
392.0390536199639
 20
225.0571783314172
 30
0.0
  0
VERTEX
  5
C17
330
712
100
AcDbEntity
  8
0
 62
     0
100
AcDbVertex
100
AcDb2dVertex
 10
399.539053619964
 20
225.0571783314173
 30
0.0
  0
VERTEX
  5
C18
330
712
100
AcDbEntity
  8
0
 62
     0
100
AcDbVertex
100
AcDb2dVertex
 10
399.897632265834
 20
225.41575697518
 30
0.0
 42
-0.4142135623731117
  0
SEQEND
  5
C19
330
712
100
AcDbEntity
  8
0
 62
     0
  0
ENDSEC
  0
SECTION
  2
OBJECTS
  0
DICTIONARY
  5
44D
330
0
100
AcDbDictionary
  3
ACAD_GROUP
350
44B
  3
ACAD_LAYOUT
350
860
  3
ACAD_MLINESTYLE
350
44C
  3
ACAD_PLOTSETTINGS
350
861
1001
ACAD
1000
TREAT_AS_HARD
1070
     0
  0
DICTIONARY
  5
BF5
330
2
100
AcDbDictionary
  3
ACAD_LAYOUTSELFREF
350
BF6
  0
DICTIONARY
  5
BF7
330
E3
100
AcDbDictionary
  3
ACAD_LAYOUTSELFREF
350
BF8
  0
DICTIONARY
  5
44B
102
{ACAD_REACTORS
330
44D
102
}
330
44D
100
AcDbDictionary
1001
ACAD
1000
TREAT_AS_HARD
1070
     0
  0
DICTIONARY
  5
860
102
{ACAD_REACTORS
330
44D
102
}
330
44D
100
AcDbDictionary
1001
ACAD
1000
TREAT_AS_HARD
1070
     0
  0
DICTIONARY
  5
44C
102
{ACAD_REACTORS
330
44D
102
}
330
44D
100
AcDbDictionary
  3
STANDARD
350
44E
1001
ACAD
1000
TREAT_AS_HARD
1070
     0
  0
DICTIONARY
  5
861
102
{ACAD_REACTORS
330
44D
102
}
330
44D
100
AcDbDictionary
1001
ACAD
1000
TREAT_AS_HARD
1070
     0
  0
XRECORD
  5
BF6
102
{ACAD_REACTORS
330
BF5
102
}
330
BF5
100
AcDbXrecord
340
2
  0
XRECORD
  5
BF8
102
{ACAD_REACTORS
330
BF7
102
}
330
BF7
100
AcDbXrecord
340
E3
  0
MLINESTYLE
  5
44E
102
{ACAD_REACTORS
330
44C
102
}
330
44C
100
AcDbMlineStyle
  2
STANDARD
 70
     0
  3

 62
     0
 51
90.0
 52
90.0
 71
     2
 49
0.5
 62
   256
  6
BYLAYER
 49
-0.5
 62
   256
  6
BYLAYER
  0
ENDSEC
  0
EOF
