  0
SECTION
  2
HEADER
  9
$ACADVER
  1
AC1009
  9
$INSBASE
 10
0.0
 20
0.0
 30
0.0
  9
$EXTMIN
 10
4.0443207488473663
 20
4.1508945723835771
 30
0.0
  9
$EXTMAX
 10
124.2514275583181
 20
93.358001381854436
 30
0.0
  9
$LIMMIN
 10
0.0
 20
0.0
  9
$LIMMAX
 10
12.0
 20
9.0
  9
$ORTHOMODE
 70
     0
  9
$REGENMODE
 70
     1
  9
$FILLMODE
 70
     1
  9
$QTEXTMODE
 70
     0
  9
$MIRRTEXT
 70
     0
  9
$DRAGMODE
 70
     2
  9
$LTSCALE
 40
1.0
  9
$OSMODE
 70
  3071
  9
$ATTMODE
 70
     1
  9
$TEXTSIZE
 40
0.2
  9
$TRACEWID
 40
0.05
  9
$TEXTSTYLE
  7
STANDARD
  9
$CLAYER
  8
0
  9
$CELTYPE
  6
BYLAYER
  9
$CECOLOR
 62
   256
  9
$DIMSCALE
 40
1.0
  9
$DIMASZ
 40
0.18
  9
$DIMEXO
 40
0.0625
  9
$DIMDLI
 40
0.38
  9
$DIMRND
 40
0.0
  9
$DIMDLE
 40
0.0
  9
$DIMEXE
 40
0.18
  9
$DIMTP
 40
0.0
  9
$DIMTM
 40
0.0
  9
$DIMTXT
 40
0.18
  9
$DIMCEN
 40
0.09
  9
$DIMTSZ
 40
0.0
  9
$DIMTOL
 70
     0
  9
$DIMLIM
 70
     0
  9
$DIMTIH
 70
     1
  9
$DIMTOH
 70
     1
  9
$DIMSE1
 70
     0
  9
$DIMSE2
 70
     0
  9
$DIMTAD
 70
     0
  9
$DIMZIN
 70
     0
  9
$DIMBLK
  1

  9
$DIMASO
 70
     1
  9
$DIMSHO
 70
     1
  9
$DIMPOST
  1

  9
$DIMAPOST
  1

  9
$DIMALT
 70
     0
  9
$DIMALTD
 70
     2
  9
$DIMALTF
 40
25.399999999999999
  9
$DIMLFAC
 40
1.0
  9
$DIMTOFL
 70
     0
  9
$DIMTVP
 40
0.0
  9
$DIMTIX
 70
     0
  9
$DIMSOXD
 70
     0
  9
$DIMSAH
 70
     0
  9
$DIMBLK1
  1

  9
$DIMBLK2
  1

  9
$DIMSTYLE
  2
STANDARD
  9
$DIMCLRD
 70
     0
  9
$DIMCLRE
 70
     0
  9
$DIMCLRT
 70
     0
  9
$DIMTFAC
 40
1.0
  9
$DIMGAP
 40
0.09
  9
$LUNITS
 70
     2
  9
$LUPREC
 70
     4
  9
$SKETCHINC
 40
0.1
  9
$FILLETRAD
 40
0.0
  9
$AUNITS
 70
     0
  9
$AUPREC
 70
     0
  9
$MENU
  1
.
  9
$ELEVATION
 40
0.0
  9
$PELEVATION
 40
0.0
  9
$THICKNESS
 40
0.0
  9
$LIMCHECK
 70
     0
  9
$BLIPMODE
 70
     0
  9
$CHAMFERA
 40
0.0
  9
$CHAMFERB
 40
0.0
  9
$SKPOLY
 70
     0
  9
$TDCREATE
 40
2456962.4761846992
  9
$TDUPDATE
 40
2456962.4763529282
  9
$TDINDWG
 40
0.0001696644
  9
$TDUSRTIMER
 40
0.0001696412
  9
$USRTIMER
 70
     1
  9
$ANGBASE
 50
0.0
  9
$ANGDIR
 70
     0
  9
$PDMODE
 70
     0
  9
$PDSIZE
 40
0.0
  9
$PLINEWID
 40
0.0
  9
$COORDS
 70
     1
  9
$SPLFRAME
 70
     0
  9
$SPLINETYPE
 70
     6
  9
$SPLINESEGS
 70
     8
  9
$ATTDIA
 70
     1
  9
$ATTREQ
 70
     1
  9
$HANDLING
 70
     1
  9
$HANDSEED
  5
31B
  9
$SURFTAB1
 70
     6
  9
$SURFTAB2
 70
     6
  9
$SURFTYPE
 70
     6
  9
$SURFU
 70
     6
  9
$SURFV
 70
     6
  9
$UCSNAME
  2

  9
$UCSORG
 10
0.0
 20
0.0
 30
0.0
  9
$UCSXDIR
 10
1.0
 20
0.0
 30
0.0
  9
$UCSYDIR
 10
0.0
 20
1.0
 30
0.0
  9
$PUCSNAME
  2

  9
$PUCSORG
 10
0.0
 20
0.0
 30
0.0
  9
$PUCSXDIR
 10
1.0
 20
0.0
 30
0.0
  9
$PUCSYDIR
 10
0.0
 20
1.0
 30
0.0
  9
$USERI1
 70
     0
  9
$USERI2
 70
     0
  9
$USERI3
 70
     0
  9
$USERI4
 70
     0
  9
$USERI5
 70
     0
  9
$USERR1
 40
0.0
  9
$USERR2
 40
0.0
  9
$USERR3
 40
0.0
  9
$USERR4
 40
0.0
  9
$USERR5
 40
0.0
  9
$WORLDVIEW
 70
     1
  9
$SHADEDGE
 70
     3
  9
$SHADEDIF
 70
    70
  9
$TILEMODE
 70
     1
  9
$MAXACTVP
 70
    64
  9
$PLIMCHECK
 70
     0
  9
$PEXTMIN
 10
0.0
 20
0.0
 30
0.0
  9
$PEXTMAX
 10
0.0
 20
0.0
 30
0.0
  9
$PLIMMIN
 10
0.0
 20
0.0
  9
$PLIMMAX
 10
12.0
 20
9.0
  9
$UNITMODE
 70
     0
  9
$VISRETAIN
 70
     1
  9
$PLINEGEN
 70
     0
  9
$PSLTSCALE
 70
     1
  0
ENDSEC
  0
SECTION
  2
TABLES
  0
TABLE
  2
VPORT
 70
     1
  0
VPORT
  2
*ACTIVE
 70
     0
 10
0.0
 20
0.0
 11
1.0
 21
1.0
 12
64.147874153582777
 22
48.754447977119
 13
0.0
 23
0.0
 14
0.5
 24
0.5
 15
0.5
 25
0.5
 16
0.0
 26
0.0
 36
1.0
 17
0.0
 27
0.0
 37
0.0
 40
90.060763333963408
 41
2.0463258785942489
 42
50.0
 43
0.0
 44
0.0
 50
0.0
 51
0.0
 71
     0
 72
  1000
 73
     1
 74
     3
 75
     0
 76
     1
 77
     0
 78
     0
  0
ENDTAB
  0
TABLE
  2
LTYPE
 70
     1
  0
LTYPE
  2
CONTINUOUS
 70
     0
  3
Solid line
 72
    65
 73
     0
 40
0.0
  0
ENDTAB
  0
TABLE
  2
LAYER
 70
     1
  0
LAYER
  2
0
 70
     0
 62
     7
  6
CONTINUOUS
  0
ENDTAB
  0
TABLE
  2
STYLE
 70
     3
  0
STYLE
  2
STANDARD
 70
     0
 40
0.0
 41
1.0
 50
0.0
 71
     0
 42
0.2
  3
txt
  4

  0
STYLE
  2
ANNOTATIVE
 70
     0
 40
0.0
 41
1.0
 50
0.0
 71
     0
 42
0.2
  3
txt
  4

  0
STYLE
  2
ROMANT
 70
     0
 40
2.2999999999999989
 41
1.0
 50
15.0
 71
     0
 42
2.5
  3
romant.shx
  4

  0
ENDTAB
  0
TABLE
  2
VIEW
 70
     0
  0
ENDTAB
  0
TABLE
  2
UCS
 70
     0
  0
ENDTAB
  0
TABLE
  2
APPID
 70
    10
  0
APPID
  2
ACAD
 70
     0
  0
APPID
  2
ACADANNOPO
 70
     0
  0
APPID
  2
ACADANNOTATIVE
 70
     0
  0
APPID
  2
ACAD_DSTYLE_DIMJAG
 70
     0
  0
APPID
  2
ACAD_DSTYLE_DIMTALN
 70
     0
  0
APPID
  2
ACAD_MLEADERVER
 70
     0
  0
APPID
  2
ACAD_NAV_VCDISPLAY
 70
     0
  0
APPID
  2
ACAD_PSEXT
 70
     0
  0
APPID
  2
GRADIENTCOLOR1ACI
 70
     0
  0
APPID
  2
GRADIENTCOLOR2ACI
 70
     0
  0
ENDTAB
  0
TABLE
  2
DIMSTYLE
 70
     4
  0
DIMSTYLE
  2
STANDARD
 70
     0
  3

  4

  5

  6

  7

 40
1.0
 41
0.18
 42
0.0625
 43
0.38
 44
0.18
 45
0.0
 46
0.0
 47
0.0
 48
0.0
140
0.18
141
0.09
142
0.0
143
25.399999999999999
144
1.0
145
0.0
146
1.0
147
0.09
 71
     0
 72
     0
 73
     1
 74
     1
 75
     0
 76
     0
 77
     0
 78
     0
170
     0
171
     2
172
     0
173
     0
174
     0
175
     0
176
     0
177
     0
178
     0
  0
DIMSTYLE
  2
ANNOTATIVE
 70
     0
  3

  4

  5

  6

  7

 40
0.0
 41
0.18
 42
0.0625
 43
0.38
 44
0.18
 45
0.0
 46
0.0
 47
0.0
 48
0.0
140
0.18
141
0.09
142
0.0
143
25.399999999999999
144
1.0
145
0.0
146
1.0
147
0.09
 71
     0
 72
     0
 73
     1
 74
     1
 75
     0
 76
     0
 77
     0
 78
     0
170
     0
171
     2
172
     0
173
     0
174
     0
175
     0
176
     0
177
     0
178
     0
  0
DIMSTYLE
  2
ISO-25
 70
     0
  3

  4

  5

  6

  7

 40
1.0
 41
2.5
 42
0.625
 43
3.75
 44
1.25
 45
0.0
 46
0.0
 47
0.0
 48
0.0
140
2.5
141
2.5
142
0.0
143
0.03937007874016
144
1.0
145
0.0
146
1.0
147
0.625
 71
     0
 72
     0
 73
     0
 74
     0
 75
     0
 76
     0
 77
     1
 78
     8
170
     0
171
     3
172
     1
173
     0
174
     0
175
     0
176
     0
177
     0
178
     0
  0
DIMSTYLE
  2
MELÝH_A4
 70
     0
  3

  4

  5

  6

  7

 40
1.0
 41
1.5
 42
0.0
 43
3.75
 44
0.5
 45
0.0
 46
0.0
 47
0.0
 48
0.0
140
2.2999999999999989
141
0.2
142
0.0
143
0.03937007874016
144
1.0
145
0.0
146
1.0
147
0.4
 71
     0
 72
     0
 73
     0
 74
     0
 75
     0
 76
     0
 77
     1
 78
     8
170
     0
171
     3
172
     0
173
     0
174
     0
175
     0
176
   242
177
   242
178
   242
  0
ENDTAB
  0
ENDSEC
  0
SECTION
  2
BLOCKS
  0
BLOCK
  8
0
  2
$MODEL_SPACE
 70
     0
 10
0.0
 20
0.0
 30
0.0
  3
$MODEL_SPACE
  1

  0
ENDBLK
  5
21
  8
0
  0
BLOCK
 67
     1
  8
0
  2
$PAPER_SPACE
 70
     0
 10
0.0
 20
0.0
 30
0.0
  3
$PAPER_SPACE
  1

  0
ENDBLK
  5
5B
 67
     1
  8
0
  0
BLOCK
  8
0
  2
*X2
 70
     1
 10
0.0
 20
0.0
 30
0.0
  3
*X2
  1

  0
LINE
  5
277
  8
0
 62
     0
 10
102.9106616247664
 20
0.0000001688561611
 30
0.0
 11
105.0000005589412
 21
2.089339103030937
 31
0.0
  0
LINE
  5
278
  8
0
 62
     0
 10
100.2165847884457
 20
0.0000001688561326
 30
0.0
 11
105.0000005589412
 21
4.7834159393516691
 31
0.0
  0
LINE
  5
279
  8
0
 62
     0
 10
97.522507952125025
 20
0.0000001688561611
 30
0.0
 11
105.0000005589412
 21
7.4774927756724017
 31
0.0
  0
LINE
  5
27A
  8
0
 62
     0
 10
97.000000558941295
 20
2.1715696119931911
 30
0.0
 11
105.0000005589412
 21
10.17156961199316
 31
0.0
  0
LINE
  5
27B
  8
0
 62
     0
 10
97.000000558941295
 20
4.8656464483138961
 30
0.0
 11
105.0000005589412
 21
12.865646448313891
 31
0.0
  0
LINE
  5
27C
  8
0
 62
     0
 10
97.000000558941252
 20
7.5597232846346278
 30
0.0
 11
105.0000005589412
 21
15.559723284634631
 31
0.0
  0
LINE
  5
27D
  8
0
 62
     0
 10
97.000000558941252
 20
10.25380012095539
 30
0.0
 11
105.0000005589412
 21
18.253800120955361
 31
0.0
  0
LINE
  5
27E
  8
0
 62
     0
 10
97.000000558941295
 20
12.947876957276151
 30
0.0
 11
105.0000005589412
 21
20.947876957276151
 31
0.0
  0
LINE
  5
27F
  8
0
 62
     0
 10
97.000000558941252
 20
15.64195379359688
 30
0.0
 11
105.0000005589412
 21
23.641953793596851
 31
0.0
  0
LINE
  5
280
  8
0
 62
     0
 10
97.000000558941224
 20
18.336030629917609
 30
0.0
 11
105.0000005589412
 21
26.336030629917591
 31
0.0
  0
LINE
  5
281
  8
0
 62
     0
 10
97.000000558941224
 20
21.030107466238348
 30
0.0
 11
105.0000005589412
 21
29.030107466238409
 31
0.0
  0
LINE
  5
282
  8
0
 62
     0
 10
97.000000558941295
 20
23.724184302559141
 30
0.0
 11
105.0000005589412
 21
31.724184302559081
 31
0.0
  0
LINE
  5
283
  8
0
 62
     0
 10
97.000000558941295
 20
26.41826113887987
 30
0.0
 11
105.0000005589412
 21
34.41826113887987
 31
0.0
  0
LINE
  5
284
  8
0
 62
     0
 10
97.000000558941295
 20
29.1123379752006
 30
0.0
 11
105.0000005589412
 21
37.11233797520061
 31
0.0
  0
LINE
  5
285
  8
0
 62
     0
 10
97.000000558941224
 20
31.806414811521339
 30
0.0
 11
105.0000005589412
 21
39.806414811521279
 31
0.0
  0
LINE
  5
286
  8
0
 62
     0
 10
97.000000558941196
 20
34.500491647842068
 30
0.0
 11
105.0000005589412
 21
42.500491647842011
 31
0.0
  0
LINE
  5
287
  8
0
 62
     0
 10
97.000000558941196
 20
37.194568484162772
 30
0.0
 11
105.0000005589412
 21
45.194568484162822
 31
0.0
  0
LINE
  5
288
  8
0
 62
     0
 10
97.000000558941252
 20
39.888645320483562
 30
0.0
 11
105.0000005589412
 21
47.888645320483562
 31
0.0
  0
LINE
  5
289
  8
0
 62
     0
 10
97.000000558941224
 20
42.582722156804287
 30
0.0
 11
105.0000005589412
 21
50.582722156804287
 31
0.0
  0
LINE
  5
28A
  8
0
 62
     0
 10
97.000000558941224
 20
45.276798993125048
 30
0.0
 11
105.0000005589411
 21
53.276798993125063
 31
0.0
  0
LINE
  5
28B
  8
0
 62
     0
 10
97.000000558941224
 20
47.970875829445788
 30
0.0
 11
105.0000005589412
 21
55.970875829445781
 31
0.0
  0
LINE
  5
28C
  8
0
 62
     0
 10
97.000000558941224
 20
50.664952665766521
 30
0.0
 11
105.0000005589412
 21
58.664952665766577
 31
0.0
  0
LINE
  5
28D
  8
0
 62
     0
 10
97.000000558941295
 20
53.35902950208731
 30
0.0
 11
105.0000005589412
 21
61.359029502087253
 31
0.0
  0
LINE
  5
28E
  8
0
 62
     0
 10
97.000000558941196
 20
56.053106338408043
 30
0.0
 11
105.0000005589412
 21
64.053106338407986
 31
0.0
  0
LINE
  5
28F
  8
0
 62
     0
 10
119.2528175530686
 20
81.000000168856161
 30
0.0
 11
120.0000005589412
 21
81.747183174728775
 31
0.0
  0
LINE
  5
290
  8
0
 62
     0
 10
97.000000558941196
 20
58.747183174728718
 30
0.0
 11
105.0000005589412
 21
66.747183174728775
 31
0.0
  0
LINE
  5
291
  8
0
 62
     0
 10
116.55874071674781
 20
81.000000168856189
 30
0.0
 11
120.0000005589412
 21
84.441260011049536
 31
0.0
  0
LINE
  5
292
  8
0
 62
     0
 10
97.000000558941252
 20
61.441260011049543
 30
0.0
 11
105.0000005589412
 21
69.441260011049536
 31
0.0
  0
LINE
  5
293
  8
0
 62
     0
 10
113.8646638804271
 20
81.000000168856147
 30
0.0
 11
120.0000005589411
 21
87.135336847370198
 31
0.0
  0
LINE
  5
294
  8
0
 62
     0
 10
97.000000558941167
 20
64.135336847370269
 30
0.0
 11
105.0000005589412
 21
72.135336847370269
 31
0.0
  0
LINE
  5
295
  8
0
 62
     0
 10
111.1705870441063
 20
81.000000168856147
 30
0.0
 11
119.1705870441063
 21
89.000000168856133
 31
0.0
  0
LINE
  5
296
  8
0
 62
     0
 10
97.000000558941224
 20
66.829413683691001
 30
0.0
 11
105.0000005589412
 21
74.829413683691001
 31
0.0
  0
LINE
  5
297
  8
0
 62
     0
 10
108.47651020778559
 20
81.000000168856161
 30
0.0
 11
113.27651020778551
 21
85.800000168856116
 31
0.0
  0
LINE
  5
298
  8
0
 62
     0
 10
114.5000005589412
 20
87.023490520011762
 30
0.0
 11
116.47651020778559
 21
89.000000168856161
 31
0.0
  0
LINE
  5
299
  8
0
 62
     0
 10
97.000000558941224
 20
69.523490520011762
 30
0.0
 11
105.0000005589412
 21
77.523490520011762
 31
0.0
  0
LINE
  5
29A
  8
0
 62
     0
 10
105.7824333714649
 20
81.000000168856161
 30
0.0
 11
110.5824333714649
 21
85.800000168856187
 31
0.0
  0
LINE
  5
29B
  8
0
 62
     0
 10
97.000000558941167
 20
72.217567356332495
 30
0.0
 11
105.0000005589412
 21
80.217567356332552
 31
0.0
  0
LINE
  5
29C
  8
0
 62
     0
 10
97.000000558941224
 20
74.911644192653227
 30
0.0
 11
107.8883565351441
 21
85.800000168856229
 31
0.0
  0
LINE
  5
29D
  8
0
 62
     0
 10
22.088356535144129
 20
0.0000001688561611
 30
0.0
 11
23.00000055894137
 21
0.911644192653398
 31
0.0
  0
LINE
  5
29E
  8
0
 62
     0
 10
97.000000558941224
 20
77.605721028974017
 30
0.0
 11
105.5000005589412
 21
86.10572102897396
 31
0.0
  0
LINE
  5
29F
  8
0
 62
     0
 10
19.394279698823372
 20
0.0000001688561326
 30
0.0
 11
23.00000055894137
 21
3.6057210289741302
 31
0.0
  0
LINE
  5
2A0
  8
0
 62
     0
 10
97.000000558941196
 20
80.299797865294693
 30
0.0
 11
105.70020286250261
 21
89.000000168856161
 31
0.0
  0
LINE
  5
2A1
  8
0
 62
     0
 10
16.700202862502628
 20
0.0000001688561611
 30
0.0
 11
23.00000055894137
 21
6.2997978652948907
 31
0.0
  0
LINE
  5
2A2
  8
0
 62
     0
 10
95.006126026181931
 20
81.000000168856189
 30
0.0
 11
103.0061260261819
 21
89.000000168856175
 31
0.0
  0
LINE
  5
2A3
  8
0
 62
     0
 10
15.000000558941331
 20
0.9938747016156241
 30
0.0
 11
23.00000055894137
 21
8.9938747016156242
 31
0.0
  0
LINE
  5
2A4
  8
0
 62
     0
 10
92.312049189861128
 20
81.000000168856147
 30
0.0
 11
100.3120491898612
 21
89.000000168856175
 31
0.0
  0
LINE
  5
2A5
  8
0
 62
     0
 10
15.000000558941309
 20
3.6879515379363279
 30
0.0
 11
23.000000558941391
 21
11.68795153793638
 31
0.0
  0
LINE
  5
2A6
  8
0
 62
     0
 10
89.617972353540395
 20
81.000000168856147
 30
0.0
 11
97.617972353540381
 21
89.000000168856175
 31
0.0
  0
LINE
  5
2A7
  8
0
 62
     0
 10
15.000000558941309
 20
6.3820283742570894
 30
0.0
 11
23.000000558941341
 21
14.38202837425712
 31
0.0
  0
LINE
  5
2A8
  8
0
 62
     0
 10
86.923895517219634
 20
81.000000168856161
 30
0.0
 11
94.923895517219648
 21
89.000000168856161
 31
0.0
  0
LINE
  5
2A9
  8
0
 62
     0
 10
15.000000558941309
 20
9.0761052105778504
 30
0.0
 11
23.000000558941341
 21
17.07610521057785
 31
0.0
  0
LINE
  5
2AA
  8
0
 62
     0
 10
84.229818680898916
 20
81.000000168856161
 30
0.0
 11
92.229818680898916
 21
89.000000168856161
 31
0.0
  0
LINE
  5
2AB
  8
0
 62
     0
 10
15.000000558941331
 20
11.77018204689861
 30
0.0
 11
23.00000055894137
 21
19.770182046898611
 31
0.0
  0
LINE
  5
2AC
  8
0
 62
     0
 10
81.535741844578126
 20
81.000000168856104
 30
0.0
 11
89.535741844578183
 21
89.000000168856218
 31
0.0
  0
LINE
  5
2AD
  8
0
 62
     0
 10
15.000000558941309
 20
14.46425888321931
 30
0.0
 11
23.000000558941391
 21
22.464258883219369
 31
0.0
  0
LINE
  5
2AE
  8
0
 62
     0
 10
78.841665008257394
 20
81.000000168856161
 30
0.0
 11
86.841665008257436
 21
89.000000168856161
 31
0.0
  0
LINE
  5
2AF
  8
0
 62
     0
 10
15.000000558941331
 20
17.158335719540069
 30
0.0
 11
23.00000055894137
 21
25.158335719540108
 31
0.0
  0
LINE
  5
2B0
  8
0
 62
     0
 10
76.147588171936704
 20
81.000000168856161
 30
0.0
 11
84.147588171936704
 21
89.000000168856161
 31
0.0
  0
LINE
  5
2B1
  8
0
 62
     0
 10
15.000000558941361
 20
19.852412555860841
 30
0.0
 11
23.00000055894137
 21
27.852412555860809
 31
0.0
  0
LINE
  5
2B2
  8
0
 62
     0
 10
73.4535113356159
 20
81.000000168856147
 30
0.0
 11
81.453511335615957
 21
89.000000168856175
 31
0.0
  0
LINE
  5
2B3
  8
0
 62
     0
 10
15.000000558941331
 20
22.546489392181599
 30
0.0
 11
23.00000055894137
 21
30.546489392181599
 31
0.0
  0
LINE
  5
2B4
  8
0
 62
     0
 10
70.759434499295168
 20
81.000000168856189
 30
0.0
 11
78.759434499295224
 21
89.000000168856175
 31
0.0
  0
LINE
  5
2B5
  8
0
 62
     0
 10
15.000000558941309
 20
25.240566228502299
 30
0.0
 11
23.000000558941391
 21
33.24056622850236
 31
0.0
  0
LINE
  5
2B6
  8
0
 62
     0
 10
68.065357662974435
 20
81.000000168856147
 30
0.0
 11
76.065357662974435
 21
89.000000168856175
 31
0.0
  0
LINE
  5
2B7
  8
0
 62
     0
 10
15.000000558941309
 20
27.934643064823039
 30
0.0
 11
23.00000055894137
 21
35.934643064823092
 31
0.0
  0
LINE
  5
2B8
  8
0
 62
     0
 10
65.371280826653674
 20
81.000000168856147
 30
0.0
 11
73.371280826653674
 21
89.000000168856133
 31
0.0
  0
LINE
  5
2B9
  8
0
 62
     0
 10
15.000000558941331
 20
30.628719901143828
 30
0.0
 11
23.000000558941341
 21
38.628719901143832
 31
0.0
  0
LINE
  5
2BA
  8
0
 62
     0
 10
62.677203990332941
 20
81.000000168856161
 30
0.0
 11
70.677203990332941
 21
89.000000168856161
 31
0.0
  0
LINE
  5
2BB
  8
0
 62
     0
 10
15.000000558941331
 20
33.322796737464593
 30
0.0
 11
23.000000558941309
 21
41.32279673746455
 31
0.0
  0
LINE
  5
2BC
  8
0
 62
     0
 10
59.983127154012209
 20
81.000000168856161
 30
0.0
 11
67.983127154012209
 21
89.000000168856218
 31
0.0
  0
LINE
  5
2BD
  8
0
 62
     0
 10
15.000000558941309
 20
36.01687357378529
 30
0.0
 11
23.000000558941341
 21
44.016873573785318
 31
0.0
  0
LINE
  5
2BE
  8
0
 62
     0
 10
57.289050317691419
 20
81.000000168856161
 30
0.0
 11
65.289050317691476
 21
89.000000168856161
 31
0.0
  0
LINE
  5
2BF
  8
0
 62
     0
 10
15.000000558941309
 20
38.710950410106022
 30
0.0
 11
23.00000055894137
 21
46.710950410106079
 31
0.0
  0
LINE
  5
2C0
  8
0
 62
     0
 10
54.594973481370737
 20
81.000000168856161
 30
0.0
 11
62.594973481370737
 21
89.000000168856161
 31
0.0
  0
LINE
  5
2C1
  8
0
 62
     0
 10
15.000000558941331
 20
41.405027246426783
 30
0.0
 11
23.00000055894137
 21
49.405027246426812
 31
0.0
  0
LINE
  5
2C2
  8
0
 62
     0
 10
51.900896645049919
 20
81.000000168856104
 30
0.0
 11
59.900896645049983
 21
89.000000168856161
 31
0.0
  0
LINE
  5
2C3
  8
0
 62
     0
 10
15.000000558941331
 20
44.099104082747537
 30
0.0
 11
23.000000558941309
 21
52.099104082747509
 31
0.0
  0
LINE
  5
2C4
  8
0
 62
     0
 10
49.206819808729193
 20
81.000000168856189
 30
0.0
 11
57.20681980872925
 21
89.000000168856175
 31
0.0
  0
LINE
  5
2C5
  8
0
 62
     0
 10
15.000000558941331
 20
46.793180919068277
 30
0.0
 11
23.000000558941309
 21
54.793180919068277
 31
0.0
  0
LINE
  5
2C6
  8
0
 62
     0
 10
46.512742972408461
 20
81.000000168856147
 30
0.0
 11
54.512742972408461
 21
89.000000168856175
 31
0.0
  0
LINE
  5
2C7
  8
0
 62
     0
 10
15.000000558941309
 20
49.48725775538901
 30
0.0
 11
23.00000055894137
 21
57.487257755389066
 31
0.0
  0
LINE
  5
2C8
  8
0
 62
     0
 10
43.818666136087728
 20
81.000000168856147
 30
0.0
 11
51.818666136087721
 21
89.000000168856175
 31
0.0
  0
LINE
  5
2C9
  8
0
 62
     0
 10
15.000000558941331
 20
52.181334591709771
 30
0.0
 11
23.00000055894137
 21
60.181334591709799
 31
0.0
  0
LINE
  5
2CA
  8
0
 62
     0
 10
41.12458929976696
 20
81.000000168856147
 30
0.0
 11
49.124589299766967
 21
89.000000168856133
 31
0.0
  0
LINE
  5
2CB
  8
0
 62
     0
 10
15.000000558941331
 20
54.875411428030532
 30
0.0
 11
23.000000558941341
 21
62.875411428030503
 31
0.0
  0
LINE
  5
2CC
  8
0
 62
     0
 10
38.430512463446242
 20
81.000000168856161
 30
0.0
 11
46.430512463446227
 21
89.000000168856161
 31
0.0
  0
LINE
  5
2CD
  8
0
 62
     0
 10
15.000000558941331
 20
57.569488264351257
 30
0.0
 11
23.000000558941341
 21
65.569488264351293
 31
0.0
  0
LINE
  5
2CE
  8
0
 62
     0
 10
35.736435627125474
 20
81.000000168856147
 30
0.0
 11
43.736435627125502
 21
89.000000168856218
 31
0.0
  0
LINE
  5
2CF
  8
0
 62
     0
 10
15.000000558941309
 20
60.26356510067199
 30
0.0
 11
23.00000055894137
 21
68.263565100672054
 31
0.0
  0
LINE
  5
2D0
  8
0
 62
     0
 10
33.042358790804741
 20
81.000000168856161
 30
0.0
 11
41.042358790804762
 21
89.000000168856161
 31
0.0
  0
LINE
  5
2D1
  8
0
 62
     0
 10
15.000000558941331
 20
62.957641936992758
 30
0.0
 11
23.00000055894137
 21
70.957641936992786
 31
0.0
  0
LINE
  5
2D2
  8
0
 62
     0
 10
30.34828195448398
 20
81.000000168856147
 30
0.0
 11
38.34828195448398
 21
89.000000168856161
 31
0.0
  0
LINE
  5
2D3
  8
0
 62
     0
 10
15.000000558941361
 20
65.651718773313505
 30
0.0
 11
23.00000055894137
 21
73.65171877331349
 31
0.0
  0
LINE
  5
2D4
  8
0
 62
     0
 10
27.654205118163219
 20
81.000000168856161
 30
0.0
 11
35.654205118163283
 21
89.000000168856175
 31
0.0
  0
LINE
  5
2D5
  8
0
 62
     0
 10
15.000000558941331
 20
68.345795609634251
 30
0.0
 11
23.00000055894137
 21
76.34579560963428
 31
0.0
  0
LINE
  5
2D6
  8
0
 62
     0
 10
24.96012828184249
 20
81.000000168856147
 30
0.0
 11
32.960128281842429
 21
89.000000168856133
 31
0.0
  0
LINE
  5
2D7
  8
0
 62
     0
 10
15.000000558941309
 20
71.039872445954984
 30
0.0
 11
23.000000558941391
 21
79.039872445955041
 31
0.0
  0
LINE
  5
2D8
  8
0
 62
     0
 10
15.000000558941331
 20
73.733949282275745
 30
0.0
 11
30.266051445521729
 21
89.000000168856133
 31
0.0
  0
LINE
  5
2D9
  8
0
 62
     0
 10
15.000000558941361
 20
76.428026118596506
 30
0.0
 11
27.571974609201021
 21
89.000000168856133
 31
0.0
  0
LINE
  5
2DA
  8
0
 62
     0
 10
15.000000558941331
 20
79.122102954917239
 30
0.0
 11
24.87789777288026
 21
89.000000168856175
 31
0.0
  0
LINE
  5
2DB
  8
0
 62
     0
 10
14.183820936559471
 20
81.000000168856147
 30
0.0
 11
22.183820936559499
 21
89.000000168856161
 31
0.0
  0
LINE
  5
2DC
  8
0
 62
     0
 10
11.48974410023877
 20
81.000000168856161
 30
0.0
 11
19.489744100238742
 21
89.000000168856133
 31
0.0
  0
LINE
  5
2DD
  8
0
 62
     0
 10
14.500000558941361
 20
86.704333463879493
 30
0.0
 11
16.79566726391803
 21
89.000000168856133
 31
0.0
  0
LINE
  5
2DE
  8
0
 62
     0
 10
8.7956672639180322
 20
81.000000168856161
 30
0.0
 11
13.59566726391796
 21
85.800000168856045
 31
0.0
  0
LINE
  5
2DF
  8
0
 62
     0
 10
13.50195469600598
 20
88.400364437264841
 30
0.0
 11
14.099636290532681
 21
88.998046031791517
 31
0.0
  0
LINE
  5
2E0
  8
0
 62
     0
 10
6.1015904275972721
 20
81.000000168856147
 30
0.0
 11
10.90159042759722
 21
85.800000168856087
 31
0.0
  0
LINE
  5
2E1
  8
0
 62
     0
 10
3.4075135912764831
 20
81.000000168856147
 30
0.0
 11
8.2075135912764932
 21
85.800000168856116
 31
0.0
  0
LINE
  5
2E2
  8
0
 62
     0
 10
0.7134367549557794
 20
81.000000168856147
 30
0.0
 11
5.5946930284053451
 21
85.881256442305698
 31
0.0
  0
LINE
  5
2E3
  8
0
 62
     0
 10
0.0000005589412808
 20
82.980640809162395
 30
0.0
 11
6.0014660778909947
 21
88.982106328112124
 31
0.0
  0
LINE
  5
2E4
  8
0
 62
     0
 10
0.0000005589413092
 20
85.674717645483156
 30
0.0
 11
3.3252830823143138
 21
89.000000168856161
 31
0.0
  0
LINE
  5
2E5
  8
0
 62
     0
 10
0.0000005589413092
 20
88.368794481803945
 30
0.0
 11
0.6312062459935817
 21
89.000000168856175
 31
0.0
  0
ENDBLK
  5
2E7
  8
0
  0
BLOCK
  8
0
  2
*U3
 70
     1
 10
0.0
 20
0.0
 30
0.0
  3
*U3
  1

  0
LINE
  5
2E9
  8
0
 10
105.8500005589412
 20
89.000000168856104
 30
0.0
 11
14.150000558941329
 21
89.000000168856104
 31
0.0
  0
ARC
  5
2EA
  8
0
 10
14.150000558941301
 20
88.350000168856127
 30
0.0
 40
0.6499999999999773
 50
89.999999999997485
 51
270.0000000000025
  0
LINE
  5
2EB
  8
0
 10
14.150000558941329
 20
87.700000168856164
 30
0.0
 11
14.20000055894131
 21
87.700000168856164
 31
0.0
  0
ARC
  5
2EC
  8
0
 10
14.200000558941319
 20
87.400000168856067
 30
0.0
 40
0.2999999999999971
 50
0.0
 51
90.000000000002728
  0
LINE
  5
2ED
  8
0
 10
14.50000055894132
 20
87.400000168856067
 30
0.0
 11
14.50000055894132
 21
86.100000168856127
 31
0.0
  0
ARC
  5
2EE
  8
0
 10
14.20000055894115
 20
86.100000168856241
 30
0.0
 40
0.3000000000001819
 50
270.00000000003263
 51
359.99999999997829
  0
LINE
  5
2EF
  8
0
 10
14.200000558941319
 20
85.800000168856045
 30
0.0
 11
5.8000005589413339
 21
85.800000168856045
 31
0.0
  0
ARC
  5
2F0
  8
0
 10
5.8000005589413197
 20
86.100000168856127
 30
0.0
 40
0.2999999999999829
 50
180.0
 51
270.00000000000267
  0
LINE
  5
2F1
  8
0
 10
5.5000005589413368
 20
86.100000168856127
 30
0.0
 11
5.5000005589413368
 21
87.400000168856067
 31
0.0
  0
ARC
  5
2F2
  8
0
 10
5.8000005589413064
 20
87.400000168856067
 30
0.0
 40
0.2999999999999545
 50
89.999999999994586
 51
180.0
  0
LINE
  5
2F3
  8
0
 10
5.8000005589413339
 20
87.700000168856036
 30
0.0
 11
5.8500005589413169
 21
87.700000168856164
 31
0.0
  0
ARC
  5
2F4
  8
0
 10
5.8500005589413604
 20
88.350000168856127
 30
0.0
 40
0.6499999999999773
 50
269.9999999999975
 51
90.000000000002544
  0
LINE
  5
2F5
  8
0
 10
5.8500005589413311
 20
89.000000168856104
 30
0.0
 11
0.5000005589413235
 21
89.000000168856104
 31
0.0
  0
ARC
  5
2F6
  8
0
 10
0.5000005589412098
 20
88.500000168856204
 30
0.0
 40
0.4999999999998864
 50
89.999999999986969
 51
180.00000000001299
  0
LINE
  5
2F7
  8
0
 10
0.0000005589413234
 20
88.500000168856104
 30
0.0
 11
0.000000558941295
 21
81.500000168856104
 31
0.0
  0
ARC
  5
2F8
  8
0
 10
0.5000005589411956
 20
81.500000168855991
 30
0.0
 40
0.4999999999999148
 50
180.0
 51
270.00000000002279
  0
LINE
  5
2F9
  8
0
 10
0.5000005589412809
 20
81.000000168856104
 30
0.0
 11
14.50000055894132
 21
81.000000168856104
 31
0.0
  0
ARC
  5
2FA
  8
0
 10
14.50000055894124
 20
80.500000168855991
 30
0.0
 40
0.5000000000000853
 50
0.0
 51
89.999999999977206
  0
LINE
  5
2FB
  8
0
 10
15.00000055894132
 20
80.500000168856104
 30
0.0
 11
15.00000055894132
 21
0.5000001688561042
 31
0.0
  0
ARC
  5
2FC
  8
0
 10
15.50000055894141
 20
0.5000001688562179
 30
0.0
 40
0.5000000000000853
 50
180.0
 51
269.99999999997721
  0
LINE
  5
2FD
  8
0
 10
15.50000055894132
 20
0.0000001688561042
 30
0.0
 11
22.50000055894132
 21
0.0000001688561042
 31
0.0
  0
ARC
  5
2FE
  8
0
 10
22.500000558941249
 20
0.5000001688562179
 30
0.0
 40
0.5000000000001137
 50
270.00000000000978
 51
359.99999999998698
  0
LINE
  5
2FF
  8
0
 10
23.00000055894137
 20
0.5000001688561042
 30
0.0
 11
23.00000055894132
 21
80.500000168856104
 31
0.0
  0
ARC
  5
300
  8
0
 10
23.500000558941409
 20
80.500000168855991
 30
0.0
 40
0.5000000000001137
 50
90.000000000009777
 51
179.99999999998701
  0
LINE
  5
301
  8
0
 10
23.50000055894132
 20
81.000000168856104
 30
0.0
 11
96.500000558941252
 21
81.000000168856104
 31
0.0
  0
ARC
  5
302
  8
0
 10
96.500000558941338
 20
80.500000168856218
 30
0.0
 40
0.4999999999999006
 50
0.0
 51
90.000000000025238
  0
LINE
  5
303
  8
0
 10
97.000000558941252
 20
80.500000168856104
 30
0.0
 11
97.000000558941252
 21
0.5000001688561042
 31
0.0
  0
ARC
  5
304
  8
0
 10
97.500000558941352
 20
0.5000001688562179
 30
0.0
 40
0.5000000000000924
 50
180.0
 51
269.99999999997641
  0
LINE
  5
305
  8
0
 10
97.500000558941267
 20
0.0000001688561042
 30
0.0
 11
104.5000005589412
 21
0.0000001688561042
 31
0.0
  0
ARC
  5
306
  8
0
 10
104.5000005589411
 20
0.5000001688562179
 30
0.0
 40
0.5000000000001137
 50
270.0000000000108
 51
359.99999999998698
  0
LINE
  5
307
  8
0
 10
105.0000005589412
 20
0.5000001688561042
 30
0.0
 11
105.0000005589412
 21
80.500000168856104
 31
0.0
  0
ARC
  5
308
  8
0
 10
105.5000005589413
 20
80.500000168855991
 30
0.0
 40
0.5000000000001137
 50
90.000000000010374
 51
179.99999999998701
  0
LINE
  5
309
  8
0
 10
105.5000005589412
 20
81.000000168856104
 30
0.0
 11
119.5000005589412
 21
81.000000168856104
 31
0.0
  0
ARC
  5
30A
  8
0
 10
119.5000005589412
 20
81.500000168856218
 30
0.0
 40
0.5000000000001137
 50
270.00000000001108
 51
359.99999999998698
  0
LINE
  5
30B
  8
0
 10
120.0000005589413
 20
81.500000168856104
 30
0.0
 11
120.0000005589412
 21
88.500000168856104
 31
0.0
  0
ARC
  5
30C
  8
0
 10
119.5000005589413
 20
88.500000168856204
 30
0.0
 40
0.4999999999999006
 50
0.0
 51
90.000000000025238
  0
LINE
  5
30D
  8
0
 10
119.5000005589412
 20
89.000000168856104
 30
0.0
 11
114.1500005589412
 21
89.000000168856104
 31
0.0
  0
ARC
  5
30E
  8
0
 10
114.1500005589412
 20
88.350000168856127
 30
0.0
 40
0.6499999999999773
 50
89.999999999998309
 51
270.00000000000171
  0
LINE
  5
30F
  8
0
 10
114.1500005589412
 20
87.700000168856164
 30
0.0
 11
114.2000005589412
 21
87.700000168856164
 31
0.0
  0
ARC
  5
310
  8
0
 10
114.2000005589412
 20
87.400000168856195
 30
0.0
 40
0.2999999999999732
 50
0.0
 51
90.000000000003396
  0
LINE
  5
311
  8
0
 10
114.5000005589412
 20
87.400000168856195
 30
0.0
 11
114.5000005589412
 21
86.100000168856127
 31
0.0
  0
ARC
  5
312
  8
0
 10
114.2000005589411
 20
86.100000168856241
 30
0.0
 40
0.3000000000001819
 50
270.00000000003411
 51
359.99999999997829
  0
LINE
  5
313
  8
0
 10
114.2000005589412
 20
85.800000168856045
 30
0.0
 11
105.80000055894121
 21
85.800000168856187
 31
0.0
  0
ARC
  5
314
  8
0
 10
105.80000055894121
 20
86.100000168856127
 30
0.0
 40
0.2999999999999936
 50
180.0
 51
270.00000000000239
  0
LINE
  5
315
  8
0
 10
105.5000005589412
 20
86.100000168856127
 30
0.0
 11
105.5000005589412
 21
87.400000168856195
 31
0.0
  0
ARC
  5
316
  8
0
 10
105.80000055894121
 20
87.400000168856067
 30
0.0
 40
0.2999999999999545
 50
89.999999999995765
 51
179.99999999997829
  0
LINE
  5
317
  8
0
 10
105.80000055894121
 20
87.700000168856036
 30
0.0
 11
105.8500005589412
 21
87.700000168856164
 31
0.0
  0
ARC
  5
318
  8
0
 10
105.8500005589412
 20
88.350000168856127
 30
0.0
 40
0.6499999999999773
 50
269.99999999999812
 51
90.000000000001833
  0
ENDBLK
  5
31A
  8
0
  0
ENDSEC
  0
SECTION
  2
ENTITIES
  0
LINE
  5
1F0
  8
0
 10
109.9978741535827
 20
93.254447977118943
 30
0.0
 11
18.297874153582839
 21
93.254447977118943
 31
0.0
  0
ARC
  5
1F1
  8
0
 10
18.297874153582811
 20
92.604447977118966
 30
0.0
 40
0.6499999999999773
 50
89.999999999997485
 51
270.0000000000025
  0
LINE
  5
1F2
  8
0
 10
18.297874153582839
 20
91.954447977119003
 30
0.0
 11
18.347874153582818
 21
91.954447977119003
 31
0.0
  0
ARC
  5
1F3
  8
0
 10
18.347874153582829
 20
91.654447977118934
 30
0.0
 40
0.2999999999999971
 50
0.0
 51
90.000000000002728
  0
LINE
  5
1F4
  8
0
 10
18.64787415358283
 20
91.654447977118934
 30
0.0
 11
18.64787415358283
 21
90.35444797711898
 31
0.0
  0
ARC
  5
1F5
  8
0
 10
18.347874153582659
 20
90.354447977119094
 30
0.0
 40
0.3000000000001819
 50
270.00000000003263
 51
359.99999999997829
  0
LINE
  5
1F6
  8
0
 10
18.347874153582829
 20
90.054447977118912
 30
0.0
 11
9.9478741535828448
 21
90.054447977118912
 31
0.0
  0
ARC
  5
1F7
  8
0
 10
9.9478741535828306
 20
90.35444797711898
 30
0.0
 40
0.2999999999999829
 50
180.0
 51
270.00000000000267
  0
LINE
  5
1F8
  8
0
 10
9.6478741535828476
 20
90.35444797711898
 30
0.0
 11
9.6478741535828476
 21
91.654447977118934
 31
0.0
  0
ARC
  5
1F9
  8
0
 10
9.9478741535828163
 20
91.654447977118934
 30
0.0
 40
0.2999999999999545
 50
89.999999999994586
 51
180.0
  0
LINE
  5
1FA
  8
0
 10
9.9478741535828448
 20
91.954447977118889
 30
0.0
 11
9.9978741535828277
 21
91.954447977119003
 31
0.0
  0
ARC
  5
1FB
  8
0
 10
9.9978741535828703
 20
92.604447977118966
 30
0.0
 40
0.6499999999999773
 50
269.9999999999975
 51
90.000000000002544
  0
LINE
  5
1FC
  8
0
 10
9.9978741535828402
 20
93.254447977118943
 30
0.0
 11
4.6478741535828334
 21
93.254447977118943
 31
0.0
  0
ARC
  5
1FD
  8
0
 10
4.6478741535827188
 20
92.754447977119071
 30
0.0
 40
0.4999999999998864
 50
89.999999999986969
 51
180.00000000001299
  0
LINE
  5
1FE
  8
0
 10
4.1478741535828334
 20
92.754447977118957
 30
0.0
 11
4.1478741535828041
 21
85.754447977118943
 31
0.0
  0
ARC
  5
1FF
  8
0
 10
4.6478741535827046
 20
85.754447977118843
 30
0.0
 40
0.4999999999999148
 50
180.0
 51
270.00000000002279
  0
LINE
  5
200
  8
0
 10
4.6478741535827899
 20
85.254447977118957
 30
0.0
 11
18.64787415358283
 21
85.254447977118957
 31
0.0
  0
ARC
  5
201
  8
0
 10
18.647874153582752
 20
84.754447977118843
 30
0.0
 40
0.5000000000000853
 50
0.0
 51
89.999999999977206
  0
LINE
  5
202
  8
0
 10
19.14787415358283
 20
84.754447977118957
 30
0.0
 11
19.14787415358283
 21
4.7544479771189572
 31
0.0
  0
ARC
  5
203
  8
0
 10
19.647874153582919
 20
4.75444797711907
 30
0.0
 40
0.5000000000000853
 50
180.0
 51
269.99999999997721
  0
LINE
  5
204
  8
0
 10
19.64787415358283
 20
4.2544479771189572
 30
0.0
 11
26.64787415358283
 21
4.2544479771189572
 31
0.0
  0
ARC
  5
205
  8
0
 10
26.647874153582759
 20
4.75444797711907
 30
0.0
 40
0.5000000000001137
 50
270.00000000000978
 51
359.99999999998698
  0
LINE
  5
206
  8
0
 10
27.14787415358288
 20
4.7544479771189572
 30
0.0
 11
27.147874153582841
 21
84.754447977118957
 31
0.0
  0
ARC
  5
207
  8
0
 10
27.647874153582919
 20
84.754447977118843
 30
0.0
 40
0.5000000000001137
 50
90.000000000009777
 51
179.99999999998701
  0
LINE
  5
208
  8
0
 10
27.64787415358283
 20
85.254447977118957
 30
0.0
 11
100.64787415358271
 21
85.254447977118957
 31
0.0
  0
ARC
  5
209
  8
0
 10
100.6478741535828
 20
84.754447977119057
 30
0.0
 40
0.4999999999999006
 50
0.0
 51
90.000000000025238
  0
LINE
  5
20A
  8
0
 10
101.14787415358271
 20
84.754447977118957
 30
0.0
 11
101.14787415358271
 21
4.7544479771189572
 31
0.0
  0
ARC
  5
20B
  8
0
 10
101.6478741535828
 20
4.75444797711907
 30
0.0
 40
0.5000000000000924
 50
180.0
 51
269.99999999997641
  0
LINE
  5
20C
  8
0
 10
101.64787415358271
 20
4.2544479771189572
 30
0.0
 11
108.64787415358271
 21
4.2544479771189572
 31
0.0
  0
ARC
  5
20D
  8
0
 10
108.64787415358271
 20
4.75444797711907
 30
0.0
 40
0.5000000000001137
 50
270.0000000000108
 51
359.99999999998698
  0
LINE
  5
20E
  8
0
 10
109.1478741535828
 20
4.7544479771189572
 30
0.0
 11
109.14787415358271
 21
84.754447977118957
 31
0.0
  0
ARC
  5
20F
  8
0
 10
109.6478741535828
 20
84.754447977118843
 30
0.0
 40
0.5000000000001137
 50
90.000000000010374
 51
179.99999999998701
  0
LINE
  5
210
  8
0
 10
109.64787415358271
 20
85.254447977118957
 30
0.0
 11
123.6478741535828
 21
85.254447977118957
 31
0.0
  0
ARC
  5
211
  8
0
 10
123.64787415358271
 20
85.754447977119085
 30
0.0
 40
0.5000000000001137
 50
270.00000000001108
 51
359.99999999998698
  0
LINE
  5
212
  8
0
 10
124.1478741535828
 20
85.754447977118943
 30
0.0
 11
124.14787415358271
 21
92.754447977118957
 31
0.0
  0
ARC
  5
213
  8
0
 10
123.6478741535828
 20
92.754447977119071
 30
0.0
 40
0.4999999999999006
 50
0.0
 51
90.000000000025238
  0
LINE
  5
214
  8
0
 10
123.64787415358271
 20
93.254447977118943
 30
0.0
 11
118.2978741535827
 21
93.254447977118943
 31
0.0
  0
ARC
  5
215
  8
0
 10
118.2978741535827
 20
92.604447977118966
 30
0.0
 40
0.6499999999999773
 50
89.999999999998309
 51
270.00000000000171
  0
LINE
  5
216
  8
0
 10
118.2978741535827
 20
91.954447977119003
 30
0.0
 11
118.34787415358269
 21
91.954447977119003
 31
0.0
  0
ARC
  5
217
  8
0
 10
118.34787415358269
 20
91.654447977119034
 30
0.0
 40
0.2999999999999732
 50
0.0
 51
90.000000000003396
  0
LINE
  5
218
  8
0
 10
118.64787415358271
 20
91.654447977119034
 30
0.0
 11
118.64787415358271
 21
90.35444797711898
 31
0.0
  0
ARC
  5
219
  8
0
 10
118.34787415358259
 20
90.354447977119094
 30
0.0
 40
0.3000000000001819
 50
270.00000000003411
 51
359.99999999997829
  0
LINE
  5
21A
  8
0
 10
118.34787415358269
 20
90.054447977118912
 30
0.0
 11
109.9478741535827
 21
90.054447977119025
 31
0.0
  0
ARC
  5
21B
  8
0
 10
109.9478741535827
 20
90.35444797711898
 30
0.0
 40
0.2999999999999936
 50
180.0
 51
270.00000000000239
  0
LINE
  5
21C
  8
0
 10
109.64787415358271
 20
90.35444797711898
 30
0.0
 11
109.64787415358271
 21
91.654447977119034
 31
0.0
  0
ARC
  5
21D
  8
0
 10
109.9478741535827
 20
91.654447977118934
 30
0.0
 40
0.2999999999999545
 50
89.999999999995765
 51
179.99999999997829
  0
LINE
  5
21E
  8
0
 10
109.9478741535827
 20
91.954447977118889
 30
0.0
 11
109.9978741535827
 21
91.954447977119003
 31
0.0
  0
ARC
  5
21F
  8
0
 10
109.9978741535827
 20
92.604447977118966
 30
0.0
 40
0.6499999999999773
 50
269.99999999999812
 51
90.000000000001833
  0
ENDSEC
  0
EOF
