  0
SECTION
  2
HEADER
  9
$ACADVER
  1
AC1009
  9
$INSBASE
 10
0.0
 20
0.0
 30
0.0
  9
$EXTMIN
 10
2064.3135337257959
 20
2003.5040731834879
 30
-0.0015258207003583
  9
$EXTMAX
 10
2130.523309818574
 20
2069.7207209773969
 30
0.0000000349246037
  9
$LIMMIN
 10
0.0
 20
0.0
  9
$LIMMAX
 10
420.0
 20
297.0
  9
$ORTHOMODE
 70
     0
  9
$REGENMODE
 70
     1
  9
$FILLMODE
 70
     1
  9
$QTEXTMODE
 70
     0
  9
$MIRRTEXT
 70
     0
  9
$DRAGMODE
 70
     2
  9
$LTSCALE
 40
1.0
  9
$OSMODE
 70
  3071
  9
$ATTMODE
 70
     1
  9
$TEXTSIZE
 40
2.5
  9
$TRACEWID
 40
1.0
  9
$TEXTSTYLE
  7
STANDARD
  9
$CLAYER
  8
0
  9
$CELTYPE
  6
BYLAYER
  9
$CECOLOR
 62
   256
  9
$DIMSCALE
 40
1.0
  9
$DIMASZ
 40
2.5
  9
$DIMEXO
 40
0.625
  9
$DIMDLI
 40
3.75
  9
$DIMRND
 40
0.0
  9
$DIMDLE
 40
0.0
  9
$DIMEXE
 40
1.25
  9
$DIMTP
 40
0.0
  9
$DIMTM
 40
0.0
  9
$DIMTXT
 40
2.5
  9
$DIMCEN
 40
2.5
  9
$DIMTSZ
 40
0.0
  9
$DIMTOL
 70
     0
  9
$DIMLIM
 70
     0
  9
$DIMTIH
 70
     0
  9
$DIMTOH
 70
     0
  9
$DIMSE1
 70
     0
  9
$DIMSE2
 70
     0
  9
$DIMTAD
 70
     1
  9
$DIMZIN
 70
     8
  9
$DIMBLK
  1

  9
$DIMASO
 70
     1
  9
$DIMSHO
 70
     1
  9
$DIMPOST
  1

  9
$DIMAPOST
  1

  9
$DIMALT
 70
     0
  9
$DIMALTD
 70
     3
  9
$DIMALTF
 40
0.03937007874016
  9
$DIMLFAC
 40
1.0
  9
$DIMTOFL
 70
     1
  9
$DIMTVP
 40
0.0
  9
$DIMTIX
 70
     0
  9
$DIMSOXD
 70
     0
  9
$DIMSAH
 70
     0
  9
$DIMBLK1
  1

  9
$DIMBLK2
  1

  9
$DIMSTYLE
  2
ISO-25
  9
$DIMCLRD
 70
     0
  9
$DIMCLRE
 70
     0
  9
$DIMCLRT
 70
     0
  9
$DIMTFAC
 40
1.0
  9
$DIMGAP
 40
0.625
  9
$LUNITS
 70
     2
  9
$LUPREC
 70
     4
  9
$SKETCHINC
 40
1.0
  9
$FILLETRAD
 40
0.0
  9
$AUNITS
 70
     0
  9
$AUPREC
 70
     0
  9
$MENU
  1
.
  9
$ELEVATION
 40
0.0
  9
$PELEVATION
 40
0.0
  9
$THICKNESS
 40
0.0
  9
$LIMCHECK
 70
     0
  9
$BLIPMODE
 70
     0
  9
$CHAMFERA
 40
0.0
  9
$CHAMFERB
 40
0.0
  9
$SKPOLY
 70
     0
  9
$TDCREATE
 40
2457032.618450393
  9
$TDUPDATE
 40
2457032.6185818058
  9
$TDINDWG
 40
0.0001331019
  9
$TDUSRTIMER
 40
0.0001330787
  9
$USRTIMER
 70
     1
  9
$ANGBASE
 50
0.0
  9
$ANGDIR
 70
     0
  9
$PDMODE
 70
     0
  9
$PDSIZE
 40
0.0
  9
$PLINEWID
 40
0.0
  9
$COORDS
 70
     1
  9
$SPLFRAME
 70
     0
  9
$SPLINETYPE
 70
     6
  9
$SPLINESEGS
 70
     8
  9
$ATTDIA
 70
     1
  9
$ATTREQ
 70
     1
  9
$HANDLING
 70
     1
  9
$HANDSEED
  5
589
  9
$SURFTAB1
 70
     6
  9
$SURFTAB2
 70
     6
  9
$SURFTYPE
 70
     6
  9
$SURFU
 70
     6
  9
$SURFV
 70
     6
  9
$UCSNAME
  2

  9
$UCSORG
 10
0.0
 20
0.0
 30
0.0
  9
$UCSXDIR
 10
1.0
 20
0.0
 30
0.0
  9
$UCSYDIR
 10
0.0
 20
1.0
 30
0.0
  9
$PUCSNAME
  2

  9
$PUCSORG
 10
0.0
 20
0.0
 30
0.0
  9
$PUCSXDIR
 10
1.0
 20
0.0
 30
0.0
  9
$PUCSYDIR
 10
0.0
 20
1.0
 30
0.0
  9
$USERI1
 70
     0
  9
$USERI2
 70
     0
  9
$USERI3
 70
     0
  9
$USERI4
 70
     0
  9
$USERI5
 70
     0
  9
$USERR1
 40
0.0
  9
$USERR2
 40
0.0
  9
$USERR3
 40
0.0
  9
$USERR4
 40
0.0
  9
$USERR5
 40
0.0
  9
$WORLDVIEW
 70
     1
  9
$SHADEDGE
 70
     3
  9
$SHADEDIF
 70
    70
  9
$TILEMODE
 70
     1
  9
$MAXACTVP
 70
    64
  9
$PLIMCHECK
 70
     0
  9
$PEXTMIN
 10
0.0
 20
0.0
 30
0.0
  9
$PEXTMAX
 10
0.0
 20
0.0
 30
0.0
  9
$PLIMMIN
 10
0.0
 20
0.0
  9
$PLIMMAX
 10
12.0
 20
9.0
  9
$UNITMODE
 70
     0
  9
$VISRETAIN
 70
     1
  9
$PLINEGEN
 70
     0
  9
$PSLTSCALE
 70
     1
  0
ENDSEC
  0
SECTION
  2
TABLES
  0
TABLE
  2
VPORT
 70
     1
  0
VPORT
  2
*ACTIVE
 70
     0
 10
0.0
 20
0.0
 11
1.0
 21
1.0
 12
2097.4184217721859
 22
2036.6123970804431
 13
0.0
 23
0.0
 14
10.0
 24
10.0
 15
10.0
 25
10.0
 16
0.0
 26
0.0
 36
1.0
 17
0.0
 27
0.0
 37
0.0
 40
66.850299925908075
 41
2.0463258785942489
 42
50.0
 43
0.0
 44
0.0
 50
0.0
 51
0.0
 71
     0
 72
  1000
 73
     1
 74
     3
 75
     0
 76
     1
 77
     0
 78
     0
  0
ENDTAB
  0
TABLE
  2
LTYPE
 70
     1
  0
LTYPE
  2
CONTINUOUS
 70
     0
  3
Solid line
 72
    65
 73
     0
 40
0.0
  0
ENDTAB
  0
TABLE
  2
LAYER
 70
     1
  0
LAYER
  2
0
 70
     0
 62
     7
  6
CONTINUOUS
  0
ENDTAB
  0
TABLE
  2
STYLE
 70
     3
  0
STYLE
  2
STANDARD
 70
     0
 40
0.0
 41
1.0
 50
0.0
 71
     0
 42
2.5
  3
txt
  4

  0
STYLE
  2
ANNOTATIVE
 70
     0
 40
0.0
 41
1.0
 50
0.0
 71
     0
 42
2.5
  3
txt
  4

  0
STYLE
  2
ROMANT
 70
     0
 40
2.2999999999999989
 41
1.0
 50
0.0
 71
     0
 42
2.5
  3
romant.shx
  4

  0
ENDTAB
  0
TABLE
  2
VIEW
 70
     0
  0
ENDTAB
  0
TABLE
  2
UCS
 70
     0
  0
ENDTAB
  0
TABLE
  2
APPID
 70
    10
  0
APPID
  2
ACAD
 70
     0
  0
APPID
  2
ACAD_PSEXT
 70
     0
  0
APPID
  2
ACADANNOPO
 70
     0
  0
APPID
  2
ACADANNOTATIVE
 70
     0
  0
APPID
  2
ACAD_DSTYLE_DIMJAG
 70
     0
  0
APPID
  2
ACAD_DSTYLE_DIMTALN
 70
     0
  0
APPID
  2
ACAD_MLEADERVER
 70
     0
  0
APPID
  2
ACAD_NAV_VCDISPLAY
 70
     0
  0
APPID
  2
GRADIENTCOLOR1ACI
 70
     0
  0
APPID
  2
GRADIENTCOLOR2ACI
 70
     0
  0
ENDTAB
  0
TABLE
  2
DIMSTYLE
 70
     4
  0
DIMSTYLE
  2
STANDARD
 70
     0
  3

  4

  5

  6

  7

 40
1.0
 41
0.18
 42
0.0625
 43
0.38
 44
0.18
 45
0.0
 46
0.0
 47
0.0
 48
0.0
140
0.18
141
0.09
142
0.0
143
25.399999999999999
144
1.0
145
0.0
146
1.0
147
0.09
 71
     0
 72
     0
 73
     1
 74
     1
 75
     0
 76
     0
 77
     0
 78
     0
170
     0
171
     2
172
     0
173
     0
174
     0
175
     0
176
     0
177
     0
178
     0
  0
DIMSTYLE
  2
ANNOTATIVE
 70
     0
  3

  4

  5

  6

  7

 40
0.0
 41
2.5
 42
0.625
 43
3.75
 44
1.25
 45
0.0
 46
0.0
 47
0.0
 48
0.0
140
2.5
141
2.5
142
0.0
143
0.03937007874016
144
1.0
145
0.0
146
1.0
147
0.625
 71
     0
 72
     0
 73
     0
 74
     0
 75
     0
 76
     0
 77
     1
 78
     8
170
     0
171
     3
172
     1
173
     0
174
     0
175
     0
176
     0
177
     0
178
     0
  0
DIMSTYLE
  2
ISO-25
 70
     0
  3

  4

  5

  6

  7

 40
1.0
 41
2.5
 42
0.625
 43
3.75
 44
1.25
 45
0.0
 46
0.0
 47
0.0
 48
0.0
140
2.5
141
2.5
142
0.0
143
0.03937007874016
144
1.0
145
0.0
146
1.0
147
0.625
 71
     0
 72
     0
 73
     0
 74
     0
 75
     0
 76
     0
 77
     1
 78
     8
170
     0
171
     3
172
     1
173
     0
174
     0
175
     0
176
     0
177
     0
178
     0
  0
DIMSTYLE
  2
MELÝH_A3
 70
     0
  3

  4

  5

  6

  7

 40
1.0
 41
1.3
 42
0.0
 43
3.75
 44
0.2
 45
0.0
 46
0.0
 47
0.0
 48
0.0
140
1.0
141
0.2
142
0.0
143
0.03937007874016
144
1.0
145
0.0
146
1.0
147
0.7
 71
     0
 72
     0
 73
     0
 74
     0
 75
     0
 76
     0
 77
     1
 78
     8
170
     0
171
     3
172
     0
173
     0
174
     0
175
     0
176
   242
177
   242
178
   242
  0
ENDTAB
  0
ENDSEC
  0
SECTION
  2
BLOCKS
  0
BLOCK
  8
0
  2
$MODEL_SPACE
 70
     0
 10
0.0
 20
0.0
 30
0.0
  3
$MODEL_SPACE
  1

  0
ENDBLK
  5
21
  8
0
  0
BLOCK
 67
     1
  8
0
  2
$PAPER_SPACE
 70
     0
 10
0.0
 20
0.0
 30
0.0
  3
$PAPER_SPACE
  1

  0
ENDBLK
  5
D5
 67
     1
  8
0
  0
BLOCK
  8
0
  2
*X2
 70
     1
 10
0.0
 20
0.0
 30
0.0
  3
*X2
  1

  0
LINE
  5
39D
  8
0
 62
     0
 10
53.020371122457959
 20
4.2913820062584023
 30
0.0
 11
61.708618178432452
 21
12.97962906223302
 31
0.0
  0
LINE
  5
39E
  8
0
 62
     0
 10
49.532924645832964
 20
2.1509739477937719
 30
0.0
 11
63.849026236897153
 21
16.467075538858069
 31
0.0
  0
LINE
  5
39F
  8
0
 62
     0
 10
57.228099856252932
 20
11.19318757637415
 30
0.0
 11
65.111229756318949
 21
19.076317476440121
 31
0.0
  0
LINE
  5
3A0
  8
0
 62
     0
 10
46.923682708250787
 20
0.8887704283720267
 30
0.0
 11
54.823936415459002
 21
8.7890241355802345
 31
0.0
  0
LINE
  5
3A1
  8
0
 62
     0
 10
56.607514724755497
 20
11.919640863037159
 30
0.0
 11
58.975267046624431
 21
14.287393184906129
 31
0.0
  0
LINE
  5
3A2
  8
0
 62
     0
 10
51.976577050754031
 20
7.2887031890356289
 30
0.0
 11
54.09545729705399
 21
9.4075834353355958
 31
0.0
  0
LINE
  5
3A3
  8
0
 62
     0
 10
62.070636538675267
 20
17.382762676956869
 30
0.0
 11
65.894145059154695
 21
21.206271197436308
 31
0.0
  0
LINE
  5
3A4
  8
0
 62
     0
 10
44.793728987228121
 20
0.10585512550972
 30
0.0
 11
48.61723750773411
 21
3.9293636460157582
 31
0.0
  0
LINE
  5
3A5
  8
0
 62
     0
 10
56.649101814028938
 20
13.308266370470839
 30
0.0
 11
58.408631959838033
 21
15.067796516279939
 31
0.0
  0
LINE
  5
3A6
  8
0
 62
     0
 10
51.116313641234861
 20
7.7754781976768177
 30
0.0
 11
52.706831789620203
 21
9.3659963460621043
 31
0.0
  0
LINE
  5
3A7
  8
0
 62
     0
 10
63.32449197526028
 20
19.983656531702191
 30
0.0
 11
66.000000176984315
 21
22.65916473342622
 31
0.0
  0
LINE
  5
3A8
  8
0
 62
     0
 10
43.340835611881012
 20
0.0000001683229698
 30
0.0
 11
46.340680284212112
 21
2.9998448406540201
 31
0.0
  0
LINE
  5
3A9
  8
0
 62
     0
 10
56.303552221215618
 20
14.30975519581801
 30
0.0
 11
57.915581622967132
 21
15.921784597569451
 31
0.0
  0
LINE
  5
3AA
  8
0
 62
     0
 10
50.251331275247757
 20
8.2575342498501527
 30
0.0
 11
51.705342964272972
 21
9.7115459388753607
 31
0.0
  0
LINE
  5
3AB
  8
0
 62
     0
 10
63.999605313422528
 20
22.00580828802487
 30
0.0
 11
66.000000165803044
 21
24.006203140405489
 31
0.0
  0
LINE
  5
3AC
  8
0
 62
     0
 10
41.993797147557807
 20
0.0000001221601451
 30
0.0
 11
45.582691666766607
 21
3.5888946413689951
 31
0.0
  0
LINE
  5
3AD
  8
0
 62
     0
 10
49.512665074386071
 20
8.8659064671487613
 30
0.0
 11
50.92694529325388
 21
10.28018668601657
 31
0.0
  0
LINE
  5
3AE
  8
0
 62
     0
 10
55.734911474074408
 20
15.088152866837049
 30
0.0
 11
57.422531286096159
 21
16.7757726788588
 31
0.0
  0
LINE
  5
3AF
  8
0
 62
     0
 10
43.500000062035603
 20
2.853241454798308
 30
0.0
 11
45.500000323388399
 21
4.8532417161511026
 31
0.0
  0
LINE
  5
3B0
  8
0
 62
     0
 10
64.000000150311493
 20
23.353241543074262
 30
0.0
 11
66.000000154621944
 21
25.353241547384592
 31
0.0
  0
LINE
  5
3B1
  8
0
 62
     0
 10
40.646758683234623
 20
0.0000000759973204
 30
0.0
 11
42.646758676413413
 21
2.0000000691761102
 31
0.0
  0
LINE
  5
3B2
  8
0
 62
     0
 10
48.893749910609699
 20
9.5940297215327632
 30
0.0
 11
50.341133919935032
 21
11.041413730858149
 31
0.0
  0
LINE
  5
3B3
  8
0
 62
     0
 10
54.973684429232833
 20
15.6739642401559
 30
0.0
 11
56.929480949225251
 21
17.629760760148312
 31
0.0
  0
LINE
  5
3B4
  8
0
 62
     0
 10
43.500000113587177
 20
4.2002799245103111
 30
0.0
 11
45.5000002557993
 21
6.2002800667224269
 31
0.0
  0
LINE
  5
3B5
  8
0
 62
     0
 10
64.000000119163985
 20
24.700279930087049
 30
0.0
 11
66.000000143440673
 21
26.70027995436385
 31
0.0
  0
LINE
  5
3B6
  8
0
 62
     0
 10
39.299720218911318
 20
0.0000000298344389
 30
0.0
 11
41.299720403475312
 21
2.0000002143983688
 31
0.0
  0
LINE
  5
3B7
  8
0
 62
     0
 10
48.400055264848667
 20
10.447373493932099
 30
0.0
 11
49.972952084409663
 21
12.02027031349308
 31
0.0
  0
LINE
  5
3B8
  8
0
 62
     0
 10
53.994827846597779
 20
16.04214607568122
 30
0.0
 11
56.436430612354293
 21
18.483748841437659
 31
0.0
  0
LINE
  5
3B9
  8
0
 62
     0
 10
43.500000165138772
 20
5.5473183942221453
 30
0.0
 11
45.500000188210443
 21
7.547318417293809
 31
0.0
  0
LINE
  5
3BA
  8
0
 62
     0
 10
64.000000088016407
 20
26.04731831709978
 30
0.0
 11
66.000000132259458
 21
28.047318361342828
 31
0.0
  0
LINE
  5
3BB
  8
0
 62
     0
 10
38.30000003495087
 20
0.3473182640342998
 30
0.0
 11
39.952682130537141
 21
2.0000003596205138
 31
0.0
  0
LINE
  5
3BC
  8
0
 62
     0
 10
48.052249362439063
 20
11.44660600968291
 30
0.0
 11
49.915656504060912
 21
13.31001315130476
 31
0.0
  0
LINE
  5
3BD
  8
0
 62
     0
 10
52.70422914360676
 20
16.09858579085056
 30
0.0
 11
55.943380275483257
 21
19.337736922727171
 31
0.0
  0
LINE
  5
3BE
  8
0
 62
     0
 10
42.805644098269447
 20
6.2000007455132504
 30
0.0
 11
44.805642677267542
 21
8.1999993245113956
 31
0.0
  0
LINE
  5
3BF
  8
0
 62
     0
 10
64.000000056868771
 20
27.394356704112571
 30
0.0
 11
66.000000121078301
 21
29.394356768322101
 31
0.0
  0
LINE
  5
3C0
  8
0
 62
     0
 10
38.300000174773629
 20
1.694356822017425
 30
0.0
 11
38.60564385759892
 21
2.0000005048427161
 31
0.0
  0
LINE
  5
3C1
  8
0
 62
     0
 10
52.207783754518282
 20
16.949178819922562
 30
0.0
 11
55.450329938612349
 21
20.191725004016579
 31
0.0
  0
LINE
  5
3C2
  8
0
 62
     0
 10
47.901968986014651
 20
12.64336405141893
 30
0.0
 11
49.06326134742659
 21
13.804656412830809
 31
0.0
  0
LINE
  5
3C3
  8
0
 62
     0
 10
64.000000025721135
 20
28.741395091125359
 30
0.0
 11
66.00000010989703
 21
30.74139517530125
 31
0.0
  0
LINE
  5
3C4
  8
0
 62
     0
 10
41.458605433870389
 20
6.2000004992746653
 30
0.0
 11
43.458604484839043
 21
8.1999995502433194
 31
0.0
  0
LINE
  5
3C5
  8
0
 62
     0
 10
53.493177893565701
 20
19.58161137713023
 30
0.0
 11
54.957279601741497
 21
21.04571308530603
 31
0.0
  0
LINE
  5
3C6
  8
0
 62
     0
 10
63.999999994573557
 20
30.088433478138199
 30
0.0
 11
66.000000098715816
 21
32.088433582280459
 31
0.0
  0
LINE
  5
3C7
  8
0
 62
     0
 10
40.111566769471438
 20
6.2000002530359657
 30
0.0
 11
42.1115662924106
 21
8.1999997759751864
 31
0.0
  0
LINE
  5
3C8
  8
0
 62
     0
 10
53.000127750470483
 20
20.435599652195432
 30
0.0
 11
54.464229264870369
 21
21.899701166595431
 31
0.0
  0
LINE
  5
3C9
  8
0
 62
     0
 10
63.999999963425921
 20
31.435471865150991
 30
0.0
 11
66.000000087534659
 21
33.435471989259611
 31
0.0
  0
LINE
  5
3CA
  8
0
 62
     0
 10
38.764528105072372
 20
6.2000000067973806
 30
0.0
 11
40.764528099982101
 21
8.2000000017070533
 31
0.0
  0
LINE
  5
3CB
  8
0
 62
     0
 10
51.817489487901007
 20
20.599999807786329
 30
0.0
 11
53.817489656924977
 21
22.599999976810238
 31
0.0
  0
LINE
  5
3CC
  8
0
 62
     0
 10
63.999999932278449
 20
32.782510252163718
 30
0.0
 11
66.000000076353544
 21
34.78251039623882
 31
0.0
  0
LINE
  5
3CD
  8
0
 62
     0
 10
38.500000154954201
 20
7.2825104748395111
 30
0.0
 11
40.500000034415223
 21
9.2825103543005412
 31
0.0
  0
LINE
  5
3CE
  8
0
 62
     0
 10
50.800000157474813
 20
20.929548895520501
 30
0.0
 11
52.470451252067789
 21
22.599999990113471
 31
0.0
  0
LINE
  5
3CF
  8
0
 62
     0
 10
63.99999990113082
 20
34.129548639176512
 30
0.0
 11
66.000000065172287
 21
36.129548803217972
 31
0.0
  0
LINE
  5
3D0
  8
0
 62
     0
 10
38.500000161757953
 20
8.6295488998036376
 30
0.0
 11
40.5000000691482
 21
10.62954880719394
 31
0.0
  0
LINE
  5
3D1
  8
0
 62
     0
 10
50.799999766744072
 20
22.27658692295017
 30
0.0
 11
51.123412847210538
 21
22.60000000341654
 31
0.0
  0
LINE
  5
3D2
  8
0
 62
     0
 10
63.999999869983128
 20
35.476587026189243
 30
0.0
 11
66.000000053991073
 21
37.476587210197067
 31
0.0
  0
LINE
  5
3D3
  8
0
 62
     0
 10
38.500000168561598
 20
9.9765873247675927
 30
0.0
 11
40.500000103881057
 21
11.976587260087109
 31
0.0
  0
LINE
  5
3D4
  8
0
 62
     0
 10
38.500000175365358
 20
11.32362574973177
 30
0.0
 11
40.50000013861392
 21
13.3236257129804
 31
0.0
  0
LINE
  5
3D5
  8
0
 62
     0
 10
63.999999838835599
 20
36.823625413202024
 30
0.0
 11
66.000000042809802
 21
38.823625617176333
 31
0.0
  0
LINE
  5
3D6
  8
0
 62
     0
 10
27.176374599298072
 20
0.0000001736645459
 30
0.0
 11
27.700000208951678
 21
0.5236257833181526
 31
0.0
  0
LINE
  5
3D7
  8
0
 62
     0
 10
38.387877922036751
 20
12.558541914563531
 30
0.0
 11
40.500000173346898
 21
14.67066416587369
 31
0.0
  0
LINE
  5
3D8
  8
0
 62
     0
 10
63.999999807688027
 20
38.170663800214811
 30
0.0
 11
66.000000031628574
 21
40.170664024155371
 31
0.0
  0
LINE
  5
3D9
  8
0
 62
     0
 10
25.829336134974941
 20
0.0000001275017212
 30
0.0
 11
27.67919183510071
 21
1.849855827627493
 31
0.0
  0
LINE
  5
3DA
  8
0
 62
     0
 10
37.082296857354443
 20
12.599999268041641
 30
0.0
 11
39.682297863945109
 21
15.200000274632311
 31
0.0
  0
LINE
  5
3DB
  8
0
 62
     0
 10
63.999999776540392
 20
39.517702187227542
 30
0.0
 11
66.000000020447317
 21
41.51770243113458
 31
0.0
  0
LINE
  5
3DC
  8
0
 62
     0
 10
24.482297670651629
 20
0.0000000813387828
 30
0.0
 11
26.482297697781071
 21
2.0000001084682699
 31
0.0
  0
LINE
  5
3DD
  8
0
 62
     0
 10
35.73525843919407
 20
12.599999268041699
 30
0.0
 11
37.735258787105288
 21
14.599999615952861
 31
0.0
  0
LINE
  5
3DE
  8
0
 62
     0
 10
63.999999745392763
 20
40.864740574240329
 30
0.0
 11
66.000000009266159
 21
42.864740838113732
 31
0.0
  0
LINE
  5
3DF
  8
0
 62
     0
 10
23.135259206328389
 20
0.000000035176015
 30
0.0
 11
25.135259424842729
 21
2.0000002536903589
 31
0.0
  0
LINE
  5
3E0
  8
0
 62
     0
 10
34.388220021033653
 20
12.59999926804158
 30
0.0
 11
36.38822042131256
 21
14.599999668320489
 31
0.0
  0
LINE
  5
3E1
  8
0
 62
     0
 10
63.99999971424517
 20
42.21177896125306
 30
0.0
 11
65.98203405903098
 21
44.193813306038969
 31
0.0
  0
LINE
  5
3E2
  8
0
 62
     0
 10
21.806186878651889
 20
0.0179661256598252
 30
0.0
 11
23.788221151904569
 21
2.0000003989125039
 31
0.0
  0
LINE
  5
3E3
  8
0
 62
     0
 10
33.17059118758749
 20
12.729408852755791
 30
0.0
 11
35.04118205551999
 21
14.59999972068834
 31
0.0
  0
LINE
  5
3E4
  8
0
 62
     0
 10
26.641183050281541
 20
6.2000007154498462
 30
0.0
 11
27.500000183624419
 21
7.058817848792728
 31
0.0
  0
LINE
  5
3E5
  8
0
 62
     0
 10
63.999999683097542
 20
43.558817348265841
 30
0.0
 11
65.755604957479534
 21
45.314422622647839
 31
0.0
  0
LINE
  5
3E6
  8
0
 62
     0
 10
20.685577562043019
 20
0.2443952272113847
 30
0.0
 11
22.546277991826688
 21
2.1050956569949899
 31
0.0
  0
LINE
  5
3E7
  8
0
 62
     0
 10
31.694143334291031
 20
12.599999417619699
 30
0.0
 11
33.694143689727298
 21
14.599999773055909
 31
0.0
  0
LINE
  5
3E8
  8
0
 62
     0
 10
25.294144385882468
 20
6.2000004692110897
 30
0.0
 11
27.500000190428128
 21
8.4058562737567968
 31
0.0
  0
LINE
  5
3E9
  8
0
 62
     0
 10
63.839169615424282
 20
44.745025698752897
 30
0.0
 11
65.38023693657766
 21
46.286093019906282
 31
0.0
  0
LINE
  5
3EA
  8
0
 62
     0
 10
19.71390716478464
 20
0.6197632481133156
 30
0.0
 11
22.500000224784291
 21
3.4058563081129591
 31
0.0
  0
LINE
  5
3EB
  8
0
 62
     0
 10
30.347105116444649
 20
12.599999617933751
 30
0.0
 11
32.34710532393467
 21
14.59999982542376
 31
0.0
  0
LINE
  5
3EC
  8
0
 62
     0
 10
23.94710572148341
 20
6.2000002229725046
 30
0.0
 11
27.50000019723177
 21
9.7528946987208656
 31
0.0
  0
LINE
  5
3ED
  8
0
 62
     0
 10
63.455027841506421
 20
45.707922342995452
 30
0.0
 11
64.976800733868117
 21
47.229695235357163
 31
0.0
  0
LINE
  5
3EE
  8
0
 62
     0
 10
18.77030494933382
 20
1.0231994508229141
 30
0.0
 11
22.500000276335811
 21
4.7528947778248494
 31
0.0
  0
LINE
  5
3EF
  8
0
 62
     0
 10
25.5000001973076
 20
9.0999331169570041
 30
0.0
 11
27.50000020403542
 21
11.099933123684821
 31
0.0
  0
LINE
  5
3F0
  8
0
 62
     0
 10
29.000066898598451
 20
12.59999981824779
 30
0.0
 11
31.000066958141989
 21
14.59999987779139
 31
0.0
  0
LINE
  5
3F1
  8
0
 62
     0
 10
20.500000174886399
 20
4.0999330945357988
 30
0.0
 11
24.600066481205829
 21
8.1999994008552335
 31
0.0
  0
LINE
  5
3F2
  8
0
 62
     0
 10
63.04630222435469
 20
46.646235144004031
 30
0.0
 11
64.550824869362259
 21
48.1507577890116
 31
0.0
  0
LINE
  5
3F3
  8
0
 62
     0
 10
17.849242395679418
 20
1.449175315328773
 30
0.0
 11
19.39289160209028
 21
2.992824521739692
 31
0.0
  0
LINE
  5
3F4
  8
0
 62
     0
 10
25.50000023204041
 20
10.446971569850231
 30
0.0
 11
27.5425631041673
 21
12.489534441977071
 31
0.0
  0
LINE
  5
3F5
  8
0
 62
     0
 10
27.610465742713931
 20
12.5574370805237
 30
0.0
 11
29.653028592349301
 21
14.599999930159131
 31
0.0
  0
LINE
  5
3F6
  8
0
 62
     0
 10
20.5000001072973
 20
5.4469714451071241
 30
0.0
 11
23.25302828877733
 21
8.1999996265871573
 31
0.0
  0
LINE
  5
3F7
  8
0
 62
     0
 10
62.613876949363828
 20
47.560848287173599
 30
0.0
 11
64.103019324539844
 21
49.049990662349728
 31
0.0
  0
LINE
  5
3F8
  8
0
 62
     0
 10
16.950009522341421
 20
1.8969808601511879
 30
0.0
 11
18.43915189751738
 21
3.3861232353272039
 31
0.0
  0
LINE
  5
3F9
  8
0
 62
     0
 10
25.500000266773331
 20
11.794010022743519
 30
0.0
 11
28.305990226556791
 21
14.599999982526921
 31
0.0
  0
LINE
  5
3FA
  8
0
 62
     0
 10
20.500000039708311
 20
6.7940097956785053
 30
0.0
 11
21.905990096348891
 21
8.1999998523190811
 31
0.0
  0
LINE
  5
3FB
  8
0
 62
     0
 10
62.158520517893578
 20
48.452530273863829
 30
0.0
 11
63.63400568630135
 21
49.92801544227148
 31
0.0
  0
LINE
  5
3FC
  8
0
 62
     0
 10
16.071984742419541
 20
2.3659944983897381
 30
0.0
 11
17.547469910827139
 21
3.8414796667973401
 31
0.0
  0
LINE
  5
3FD
  8
0
 62
     0
 10
25.500000301506251
 20
13.141048475636749
 30
0.0
 11
27.453777972441909
 21
15.094826146572411
 31
0.0
  0
LINE
  5
3FE
  8
0
 62
     0
 10
61.680899927591547
 20
49.32194810172205
 30
0.0
 11
63.14432690261674
 21
50.785375076747243
 31
0.0
  0
LINE
  5
3FF
  8
0
 62
     0
 10
15.21462510794384
 20
2.8556732820743491
 30
0.0
 11
16.678052082968801
 21
4.3191002570993637
 31
0.0
  0
LINE
  5
400
  8
0
 62
     0
 10
25.500000336239061
 20
14.488086928529979
 30
0.0
 11
26.211913545867219
 21
15.20000013815814
 31
0.0
  0
LINE
  5
401
  8
0
 62
     0
 10
61.181592217210152
 20
50.169678809501079
 30
0.0
 11
62.634455335201039
 21
51.622541927491959
 31
0.0
  0
LINE
  5
402
  8
0
 62
     0
 10
14.377458257199059
 20
3.365544849489992
 30
0.0
 11
15.830321375189779
 21
4.8184079674807663
 31
0.0
  0
LINE
  5
403
  8
0
 62
     0
 10
53.064875002121369
 20
43.400000012572598
 30
0.0
 11
55.419155987629608
 21
45.754280998080951
 31
0.0
  0
LINE
  5
404
  8
0
 62
     0
 10
60.661093892552742
 20
50.996218903003971
 30
0.0
 11
62.104799415165807
 21
52.43992442561705
 31
0.0
  0
LINE
  5
405
  8
0
 62
     0
 10
13.56007575907398
 20
3.8952007695252742
 30
0.0
 11
15.003781281687001
 21
5.3389062921382902
 31
0.0
  0
LINE
  5
406
  8
0
 62
     0
 10
51.717836597311127
 20
43.400000025922793
 30
0.0
 11
57.259245036371453
 21
48.941408464983233
 31
0.0
  0
LINE
  5
407
  8
0
 62
     0
 10
60.05618892511449
 20
51.73835235372627
 30
0.0
 11
61.555709138846389
 21
53.237872567458062
 31
0.0
  0
LINE
  5
408
  8
0
 62
     0
 10
12.762127617232981
 20
4.4442910458446363
 30
0.0
 11
14.199013473423181
 21
5.8811769020348938
 31
0.0
  0
LINE
  5
409
  8
0
 62
     0
 10
50.800000128568847
 20
43.829201975340823
 30
0.0
 11
52.370798432356871
 21
45.40000027912884
 31
0.0
  0
LINE
  5
40A
  8
0
 62
     0
 10
14.648933299416001
 20
7.6781351461880263
 30
0.0
 11
17.733938606503099
 21
10.763140453275071
 31
0.0
  0
LINE
  5
40B
  8
0
 62
     0
 10
53.578530308592462
 20
46.607732155364431
 30
0.0
 11
60.987480588536762
 21
54.016682435308716
 31
0.0
  0
LINE
  5
40C
  8
0
 62
     0
 10
11.98331774938231
 20
5.0125195961542772
 30
0.0
 11
13.828054739939491
 21
6.8572565867114568
 31
0.0
  0
LINE
  5
40D
  8
0
 62
     0
 10
50.801549525990538
 20
45.177789790923043
 30
0.0
 11
51.022210393767921
 21
45.398450658700419
 31
0.0
  0
LINE
  5
40E
  8
0
 62
     0
 10
53.29323731895721
 20
47.669477583889602
 30
0.0
 11
60.400359622245503
 21
54.776599887177888
 31
0.0
  0
LINE
  5
40F
  8
0
 62
     0
 10
11.22340029751313
 20
5.5996405624455292
 30
0.0
 11
18.092954884887028
 21
12.46919514981942
 31
0.0
  0
LINE
  5
410
  8
0
 62
     0
 10
52.26378455578601
 20
47.987063238878811
 30
0.0
 11
54.318931852875203
 21
50.042210535967911
 31
0.0
  0
LINE
  5
411
  8
0
 62
     0
 10
15.92840499284557
 20
11.65168367593833
 30
0.0
 11
18.002731299476409
 21
13.72600998256916
 31
0.0
  0
LINE
  5
412
  8
0
 62
     0
 10
56.545716080822842
 20
52.268994763915551
 30
0.0
 11
59.794544844685277
 21
55.517823527777978
 31
0.0
  0
LINE
  5
413
  8
0
 62
     0
 10
10.48217665691311
 20
6.2054553400058117
 30
0.0
 11
13.76039007675274
 21
9.4836687598455001
 31
0.0
  0
LINE
  5
414
  8
0
 62
     0
 10
52.29114292910139
 20
49.361460030354522
 30
0.0
 11
52.845044193676252
 21
49.915361294929369
 31
0.0
  0
LINE
  5
415
  8
0
 62
     0
 10
16.0716276883939
 20
13.141944789647081
 30
0.0
 11
16.660407112730471
 21
13.73072421398359
 31
0.0
  0
LINE
  5
416
  8
0
 62
     0
 10
56.67094987205337
 20
53.741266973306487
 30
0.0
 11
59.170189946196281
 21
56.240507047449398
 31
0.0
  0
LINE
  5
417
  8
0
 62
     0
 10
9.7594931372416909
 20
6.8298102384948152
 30
0.0
 11
12.27033454549286
 21
9.3406516467460392
 31
0.0
  0
LINE
  5
418
  8
0
 62
     0
 10
57.125553378504719
 20
55.542908897918331
 30
0.0
 11
58.527405475521732
 21
56.944760994935223
 31
0.0
  0
LINE
  5
419
  8
0
 62
     0
 10
9.0552391897559801
 20
7.4725947091695266
 30
0.0
 11
10.45650250754403
 21
8.8738580269575777
 31
0.0
  0
LINE
  5
41A
  8
0
 62
     0
 10
56.452284733700431
 20
56.216678671274281
 30
0.0
 11
57.866260094986437
 21
57.630654032560408
 31
0.0
  0
LINE
  5
41B
  8
0
 62
     0
 10
8.3693461521306745
 20
8.1337400897045882
 30
0.0
 11
9.7832338627561626
 21
9.5476278003300763
 31
0.0
  0
LINE
  5
41C
  8
0
 62
     0
 10
55.779016088896242
 20
56.890448444630522
 30
0.0
 11
57.186781351714217
 21
58.29821370744861
 31
0.0
  0
LINE
  5
41D
  8
0
 62
     0
 10
7.7017864772424778
 20
8.8132188329768155
 30
0.0
 11
9.1099652179682948
 21
10.22139757370263
 31
0.0
  0
LINE
  5
41E
  8
0
 62
     0
 10
54.126369062038179
 20
56.584839835932769
 30
0.0
 11
56.488955985235627
 21
58.947426759130217
 31
0.0
  0
LINE
  5
41F
  8
0
 62
     0
 10
7.0525734255608077
 20
9.5110441994554549
 30
0.0
 11
9.4061778813082242
 21
11.86464865520287
 31
0.0
  0
LINE
  5
420
  8
0
 62
     0
 10
48.192527456524829
 20
51.998036648579841
 30
0.0
 11
49.931503303322359
 21
53.737012495377371
 31
0.0
  0
LINE
  5
421
  8
0
 62
     0
 10
12.282537284647839
 20
16.08804647670285
 30
0.0
 11
13.99543119827643
 21
17.800940390331441
 31
0.0
  0
LINE
  5
422
  8
0
 62
     0
 10
52.850914121413382
 20
56.656423313468387
 30
0.0
 11
55.772729779542082
 21
59.578238971597102
 31
0.0
  0
LINE
  5
423
  8
0
 62
     0
 10
6.4217612130939861
 20
10.227270405149049
 30
0.0
 11
9.324027275988044
 21
13.12953646804311
 31
0.0
  0
LINE
  5
424
  8
0
 62
     0
 10
47.906309180418077
 20
53.058856790633399
 30
0.0
 11
55.038006955716519
 21
60.190554565931848
 31
0.0
  0
LINE
  5
425
  8
0
 62
     0
 10
5.8094456187591836
 20
10.96199322897456
 30
0.0
 11
12.99780994497632
 21
18.1503575551917
 31
0.0
  0
LINE
  5
426
  8
0
 62
     0
 10
14.10041379893357
 20
20.599999827309318
 30
0.0
 11
15.20000036921266
 21
21.699586397588462
 31
0.0
  0
LINE
  5
427
  8
0
 62
     0
 10
48.051754045417617
 20
54.551340073793369
 30
0.0
 11
54.284649089168397
 21
60.784235117544142
 31
0.0
  0
LINE
  5
428
  8
0
 62
     0
 10
5.21576506714689
 20
11.71535109552269
 30
0.0
 11
12.388996198793389
 21
18.888582227169191
 31
0.0
  0
LINE
  5
429
  8
0
 62
     0
 10
8.0970679511097501
 20
15.94369239764586
 30
0.0
 11
14.753375531247279
 21
22.599999977783401
 31
0.0
  0
LINE
  5
42A
  8
0
 62
     0
 10
52.027065151470651
 20
59.87368959800682
 30
0.0
 11
53.512473522636022
 21
61.359097969172069
 31
0.0
  0
LINE
  5
42B
  8
0
 62
     0
 10
4.640902215519076
 20
12.48752666205513
 30
0.0
 11
6.2851038778492798
 21
14.13172832438539
 31
0.0
  0
LINE
  5
42C
  8
0
 62
     0
 10
9.937156999851652
 20
19.13081986454819
 30
0.0
 11
13.406337126390101
 21
22.59999999108663
 31
0.0
  0
LINE
  5
42D
  8
0
 62
     0
 10
51.280431170438817
 20
60.474094035135401
 30
0.0
 11
52.72125123185441
 21
61.914914096550888
 31
0.0
  0
LINE
  5
42E
  8
0
 62
     0
 10
4.0850860881402014
 20
13.278748952836731
 30
0.0
 11
5.525906149555623
 21
14.7195690142521
 31
0.0
  0
LINE
  5
42F
  8
0
 62
     0
 10
40.259478461517972
 20
50.80017974437493
 30
0.0
 11
40.499820440316107
 21
51.040521723172951
 31
0.0
  0
LINE
  5
430
  8
0
 62
     0
 10
11.777246048593669
 20
22.317947331450512
 30
0.0
 11
12.057885931594569
 21
22.59858721445147
 31
0.0
  0
LINE
  5
431
  8
0
 62
     0
 10
50.461200282012271
 20
61.001901564869108
 30
0.0
 11
51.910704084383099
 21
62.451405367240049
 31
0.0
  0
LINE
  5
432
  8
0
 62
     0
 10
3.5485948174512032
 20
14.089296100308101
 30
0.0
 11
4.9980986198219171
 21
15.53879990267882
 31
0.0
  0
LINE
  5
433
  8
0
 62
     0
 10
38.912259915090551
 20
50.799999616107748
 30
0.0
 11
40.500000047442427
 21
52.387739748459637
 31
0.0
  0
LINE
  5
434
  8
0
 62
     0
 10
49.620934919734403
 20
61.508674620751719
 30
0.0
 11
51.080501412622432
 21
62.968241113639742
 31
0.0
  0
LINE
  5
435
  8
0
 62
     0
 10
3.03175907105134
 20
14.919498772068611
 30
0.0
 11
4.4913255639393119
 21
16.37906526495652
 31
0.0
  0
LINE
  5
436
  8
0
 62
     0
 10
44.565221957832868
 20
57.800000077010623
 30
0.0
 11
45.500000345033918
 21
58.734778464211672
 31
0.0
  0
LINE
  5
437
  8
0
 62
     0
 10
38.165221888260653
 20
51.40000000743828
 30
0.0
 11
40.500000082175291
 21
53.734778201352917
 31
0.0
  0
LINE
  5
438
  8
0
 62
     0
 10
48.759164852920151
 20
61.993942972097777
 30
0.0
 11
50.230255798365697
 21
63.465033917543337
 31
0.0
  0
LINE
  5
439
  8
0
 62
     0
 10
2.534966267147694
 20
15.76974438632538
 30
0.0
 11
4.0060572125931913
 21
17.240835331770821
 31
0.0
  0
LINE
  5
43A
  8
0
 62
     0
 10
43.218183765436102
 20
57.800000302774151
 30
0.0
 11
45.500000277444819
 21
60.081816814782762
 31
0.0
  0
LINE
  5
43B
  8
0
 62
     0
 10
36.818183522480858
 20
51.400000059818922
 30
0.0
 11
40.500000116908211
 21
55.081816654246147
 31
0.0
  0
LINE
  5
43C
  8
0
 62
     0
 10
47.87534219065747
 20
62.45715872799542
 30
0.0
 11
49.359517936786737
 21
63.94133447412468
 31
0.0
  0
LINE
  5
43D
  8
0
 62
     0
 10
2.0586657105664008
 20
16.640482247904401
 30
0.0
 11
3.5428414566955548
 21
18.124657994033551
 31
0.0
  0
LINE
  5
43E
  8
0
 62
     0
 10
38.500000154683221
 20
54.42885511018158
 30
0.0
 11
40.500000151641082
 21
56.428855107139562
 31
0.0
  0
LINE
  5
43F
  8
0
 62
     0
 10
41.87114557303925
 20
57.800000528537737
 30
0.0
 11
45.500000209855777
 21
61.42885516535415
 31
0.0
  0
LINE
  5
440
  8
0
 62
     0
 10
35.471145156701027
 20
51.4000001121995
 30
0.0
 11
37.47114516448017
 21
53.400000119978529
 31
0.0
  0
LINE
  5
441
  8
0
 62
     0
 10
46.968832599073941
 20
62.897687554572308
 30
0.0
 11
48.467770410507228
 21
64.396625366005594
 31
0.0
  0
LINE
  5
442
  8
0
 62
     0
 10
1.603374818685551
 20
17.532229774183971
 30
0.0
 11
3.1023126301186599
 21
19.03116758561708
 31
0.0
  0
LINE
  5
443
  8
0
 62
     0
 10
38.50000016148693
 20
55.775893535145599
 30
0.0
 11
42.524106497805633
 21
59.799999871464308
 31
0.0
  0
LINE
  5
444
  8
0
 62
     0
 10
34.12410679092114
 20
51.400000164579922
 30
0.0
 11
36.124106946661193
 21
53.400000320319862
 31
0.0
  0
LINE
  5
445
  8
0
 62
     0
 10
43.500000066729399
 20
60.775893440388188
 30
0.0
 11
47.554420156490437
 21
64.830313530149112
 31
0.0
  0
LINE
  5
446
  8
0
 62
     0
 10
1.169686654542033
 20
18.445580028200709
 30
0.0
 11
2.6852022616878339
 21
19.96109563534651
 31
0.0
  0
LINE
  5
447
  8
0
 62
     0
 10
38.500000168290683
 20
57.122931960109781
 30
0.0
 11
41.177067833436411
 21
59.799999625255623
 31
0.0
  0
LINE
  5
448
  8
0
 62
     0
 10
32.777068425141408
 20
51.4000002169605
 30
0.0
 11
34.777068728842153
 21
53.400000520661251
 31
0.0
  0
LINE
  5
449
  8
0
 62
     0
 10
43.500000118281093
 20
62.122931910100192
 30
0.0
 11
46.618789346056531
 21
65.241721137875629
 31
0.0
  0
LINE
  5
44A
  8
0
 62
     0
 10
0.7582790468154032
 20
19.381210838634502
 30
0.0
 11
2.2923522653834421
 21
20.915284057202602
 31
0.0
  0
LINE
  5
44B
  8
0
 62
     0
 10
38.500000175094392
 20
58.46997038507385
 30
0.0
 11
39.830029169067473
 21
59.79999937904693
 31
0.0
  0
LINE
  5
44C
  8
0
 62
     0
 10
31.430030059361631
 20
51.400000269341092
 30
0.0
 11
33.430030511023062
 21
53.40000072100252
 31
0.0
  0
LINE
  5
44D
  8
0
 62
     0
 10
43.50000016983261
 20
63.469970379812082
 30
0.0
 11
45.66010431576666
 21
65.630074525746124
 31
0.0
  0
LINE
  5
44E
  8
0
 62
     0
 10
0.3699256589449646
 20
20.33989586892449
 30
0.0
 11
2.0013771210452092
 21
21.971347331024671
 31
0.0
  0
LINE
  5
44F
  8
0
 62
     0
 10
30.082991693581668
 20
51.40000032172162
 30
0.0
 11
32.082992112201737
 21
53.400000740341682
 31
0.0
  0
LINE
  5
450
  8
0
 62
     0
 10
42.682990930518137
 20
63.999999558657983
 30
0.0
 11
44.611693715643007
 21
65.928702343782945
 31
0.0
  0
LINE
  5
451
  8
0
 62
     0
 10
0.0712978409226253
 20
21.38830646906246
 30
0.0
 11
2.0000006577492959
 21
23.317009285889132
 31
0.0
  0
LINE
  5
452
  8
0
 62
     0
 10
28.735953327801891
 20
51.400000374102092
 30
0.0
 11
30.735953694041431
 21
53.400000740341618
 31
0.0
  0
LINE
  5
453
  8
0
 62
     0
 10
41.335952657551267
 20
63.999999703851593
 30
0.0
 11
43.335952942963672
 21
65.99999998926387
 31
0.0
  0
LINE
  5
454
  8
0
 62
     0
 10
0.0000003557437367
 20
22.664047402043991
 30
0.0
 11
2.0000006266017181
 21
24.664047672901969
 31
0.0
  0
LINE
  5
455
  8
0
 62
     0
 10
26.788914405935369
 20
50.79999987039605
 30
0.0
 11
29.388915275880951
 21
53.400000740341618
 31
0.0
  0
LINE
  5
456
  8
0
 62
     0
 10
39.988914384584348
 20
63.999999849045032
 30
0.0
 11
41.988914478666231
 21
65.999999943126795
 31
0.0
  0
LINE
  5
457
  8
0
 62
     0
 10
0.0000003445626362
 20
24.0110858090232
 30
0.0
 11
2.000000595454082
 21
26.0110860599147
 31
0.0
  0
LINE
  5
458
  8
0
 62
     0
 10
25.546566712890701
 20
50.904690595511681
 30
0.0
 11
28.041876857720581
 21
53.400000740341568
 31
0.0
  0
LINE
  5
459
  8
0
 62
     0
 10
38.641876111617528
 20
63.999999994238522
 30
0.0
 11
40.64187601436879
 21
65.999999896989891
 31
0.0
  0
LINE
  5
45A
  8
0
 62
     0
 10
0.0000003333813083
 20
25.358124216002359
 30
0.0
 11
2.0000005643065029
 21
27.358124446927491
 31
0.0
  0
LINE
  5
45B
  8
0
 62
     0
 10
25.500000210334751
 20
52.205162511116043
 30
0.0
 11
27.50000018335345
 21
54.205162484134739
 31
0.0
  0
LINE
  5
45C
  8
0
 62
     0
 10
38.30000010323522
 20
65.005162404016517
 30
0.0
 11
39.29483755007152
 21
65.999999850852817
 31
0.0
  0
LINE
  5
45D
  8
0
 62
     0
 10
0.000000322200151
 20
26.705162622981501
 30
0.0
 11
2.000000533158925
 21
28.705162833940278
 31
0.0
  0
LINE
  5
45E
  8
0
 62
     0
 10
25.500000245067611
 20
53.55220096400933
 30
0.0
 11
27.500000190157099
 21
55.552200909098808
 31
0.0
  0
LINE
  5
45F
  8
0
 62
     0
 10
0.0000003110189368
 20
28.05220102996066
 30
0.0
 11
2.000000502011289
 21
30.052201220953069
 31
0.0
  0
LINE
  5
460
  8
0
 62
     0
 10
14.00076087644714
 20
43.400000013549231
 30
0.0
 11
15.20000034030658
 21
44.599239477408609
 31
0.0
  0
LINE
  5
461
  8
0
 62
     0
 10
25.500000279800531
 20
54.89923941690256
 30
0.0
 11
27.500000196960691
 21
56.899239334062827
 31
0.0
  0
LINE
  5
462
  8
0
 62
     0
 10
0.0000002998377795
 20
29.399239436939808
 30
0.0
 11
2.0000004708637671
 21
31.3992396079658
 31
0.0
  0
LINE
  5
463
  8
0
 62
     0
 10
12.653722471637019
 20
43.400000026899527
 30
0.0
 11
14.653722743394839
 21
45.400000298657339
 31
0.0
  0
LINE
  5
464
  8
0
 62
     0
 10
25.500000314533398
 20
56.24627786979584
 30
0.0
 11
27.50000020376433
 21
58.246277759026782
 31
0.0
  0
LINE
  5
465
  8
0
 62
     0
 10
0.0000002886564516
 20
30.746277843918961
 30
0.0
 11
2.0000004397161311
 21
32.746277994978641
 31
0.0
  0
LINE
  5
466
  8
0
 62
     0
 10
11.70824659492831
 20
43.80156256835113
 30
0.0
 11
13.30668404478393
 21
45.400000018206811
 31
0.0
  0
LINE
  5
467
  8
0
 62
     0
 10
25.496766115199311
 20
57.590082088622239
 30
0.0
 11
27.496766115199311
 21
59.590082088622239
 31
0.0
  0
LINE
  5
468
  8
0
 62
     0
 10
0.0000002774753511
 20
32.093316250898233
 30
0.0
 11
2.0000004085686101
 21
34.093316381991428
 31
0.0
  0
LINE
  5
469
  8
0
 62
     0
 10
11.21519625805723
 20
44.655550649640467
 30
0.0
 11
12.67929789845993
 21
46.119652290043177
 31
0.0
  0
LINE
  5
46A
  8
0
 62
     0
 10
24.359645761781788
 20
57.80000015336509
 30
0.0
 11
26.359645449821251
 21
59.799999841404542
 31
0.0
  0
LINE
  5
46B
  8
0
 62
     0
 10
0.0000002662942507
 20
33.440354657877442
 30
0.0
 11
2.0000003774210309
 21
35.44035476900428
 31
0.0
  0
LINE
  5
46C
  8
0
 62
     0
 10
13.09589176255662
 20
47.883284572300219
 30
0.0
 11
13.89191205497082
 21
48.679304864714418
 31
0.0
  0
LINE
  5
46D
  8
0
 62
     0
 10
17.30848867744152
 20
52.095881487185061
 30
0.0
 11
18.082391737638879
 21
52.869784547382501
 31
0.0
  0
LINE
  5
46E
  8
0
 62
     0
 10
10.72214592118644
 20
45.509538730930039
 30
0.0
 11
12.40940698579066
 21
47.196799795534268
 31
0.0
  0
LINE
  5
46F
  8
0
 62
     0
 10
23.012607569385011
 20
57.800000379128669
 30
0.0
 11
25.012606785452309
 21
59.79999959519585
 31
0.0
  0
LINE
  5
470
  8
0
 62
     0
 10
0.0000002551129796
 20
34.787393064856587
 30
0.0
 11
2.0000003462733948
 21
36.787393156017004
 31
0.0
  0
LINE
  5
471
  8
0
 62
     0
 10
16.273644550062041
 20
52.408075777966012
 30
0.0
 11
18.027105170366671
 21
54.161536398270641
 31
0.0
  0
LINE
  5
472
  8
0
 62
     0
 10
10.22909558431536
 20
46.363526812219277
 30
0.0
 11
13.57863517034485
 21
49.71306639824877
 31
0.0
  0
LINE
  5
473
  8
0
 62
     0
 10
21.665569376988181
 20
57.800000604892197
 30
0.0
 11
23.665568121083201
 21
59.799999348987228
 31
0.0
  0
LINE
  5
474
  8
0
 62
     0
 10
0.0000002439316518
 20
36.134431471835633
 30
0.0
 11
2.0000003151258161
 21
38.134431543029727
 31
0.0
  0
LINE
  5
475
  8
0
 62
     0
 10
16.086786262106781
 20
53.568255908171132
 30
0.0
 11
17.739908052928801
 21
55.22137769899313
 31
0.0
  0
LINE
  5
476
  8
0
 62
     0
 10
20.56755314502885
 20
58.049022791093307
 30
0.0
 11
22.50755114379109
 21
59.989020789855552
 31
0.0
  0
LINE
  5
477
  8
0
 62
     0
 10
9.7360452474444514
 20
47.217514893508849
 30
0.0
 11
12.416646301219769
 21
49.898115947284168
 31
0.0
  0
LINE
  5
478
  8
0
 62
     0
 10
26.518529951877952
 20
63.999999597942292
 30
0.0
 11
27.700000277235919
 21
65.181469923300256
 31
0.0
  0
LINE
  5
479
  8
0
 62
     0
 10
0.0000002327505513
 20
37.481469878814892
 30
0.0
 11
2.000000283978181
 21
39.481469930042579
 31
0.0
  0
LINE
  5
47A
  8
0
 62
     0
 10
15.81563129661822
 20
54.644139360842871
 30
0.0
 11
17.293854740733249
 21
56.122362804958009
 31
0.0
  0
LINE
  5
47B
  8
0
 62
     0
 10
20.500000128942869
 20
59.328508193167629
 30
0.0
 11
22.500000229478189
 21
61.328508293702832
 31
0.0
  0
LINE
  5
47C
  8
0
 62
     0
 10
9.2429949105734863
 20
48.071502974798193
 30
0.0
 11
11.340762848548019
 21
50.169270912772731
 31
0.0
  0
LINE
  5
47D
  8
0
 62
     0
 10
25.171491678911082
 20
63.999999743135731
 30
0.0
 11
27.17149193037773
 21
65.999999994602376
 31
0.0
  0
LINE
  5
47E
  8
0
 62
     0
 10
0.0000002215693371
 20
38.828508285794051
 30
0.0
 11
2.0000002528306018
 21
40.828508317055302
 31
0.0
  0
LINE
  5
47F
  8
0
 62
     0
 10
15.299982798295559
 20
55.475529280680632
 30
0.0
 11
16.717483356921321
 21
56.893029839306386
 31
0.0
  0
LINE
  5
480
  8
0
 62
     0
 10
20.50000006135383
 20
60.675546543738903
 30
0.0
 11
22.50000028102966
 21
62.675546763414843
 31
0.0
  0
LINE
  5
481
  8
0
 62
     0
 10
8.7499445737024644
 20
48.925491056087537
 30
0.0
 11
10.50937292871026
 21
50.684919411095393
 31
0.0
  0
LINE
  5
482
  8
0
 62
     0
 10
23.824453405944269
 20
63.999999888329342
 30
0.0
 11
25.824453466080289
 21
65.999999948465472
 31
0.0
  0
LINE
  5
483
  8
0
 62
     0
 10
0.0000002103880661
 20
40.175546692773189
 30
0.0
 11
2.000000221683023
 21
42.17554670406809
 31
0.0
  0
LINE
  5
484
  8
0
 62
     0
 10
14.589463830688199
 20
56.112048731233642
 30
0.0
 11
16.020829260741952
 21
57.54341416128733
 31
0.0
  0
LINE
  5
485
  8
0
 62
     0
 10
8.2568942368315561
 20
49.779479137377002
 30
0.0
 11
9.8728534781573103
 21
51.395438378702693
 31
0.0
  0
LINE
  5
486
  8
0
 62
     0
 10
20.499953996322919
 20
62.022538896868291
 30
0.0
 11
24.477415001783019
 21
65.999999902328398
 31
0.0
  0
LINE
  5
487
  8
0
 62
     0
 10
0.0000001992069656
 20
41.522585099752398
 30
0.0
 11
2.0000001905354452
 21
43.522585091080877
 31
0.0
  0
LINE
  5
488
  8
0
 62
     0
 10
13.673877765607751
 20
56.543501084313561
 30
0.0
 11
15.20160220971848
 21
58.071225528424399
 31
0.0
  0
LINE
  5
489
  8
0
 62
     0
 10
7.7638438999605901
 20
50.633467218666453
 30
0.0
 11
9.4414011250773342
 21
52.311024443783189
 31
0.0
  0
LINE
  5
48A
  8
0
 62
     0
 10
20.005898158468369
 20
62.875521477174168
 30
0.0
 11
23.130376537485571
 21
65.99999985619138
 31
0.0
  0
LINE
  5
48B
  8
0
 62
     0
 10
0.0000001880256946
 20
42.8696235067315
 30
0.0
 11
2.3429953452937862
 21
45.212618663999592
 31
0.0
  0
LINE
  5
48C
  8
0
 62
     0
 10
12.461481863130871
 20
56.678143599997092
 30
0.0
 11
14.269979122886349
 21
58.486640859752583
 31
0.0
  0
LINE
  5
48D
  8
0
 62
     0
 10
7.265757642552785
 20
51.482419379419007
 30
0.0
 11
9.3067586093937962
 21
53.523420346260018
 31
0.0
  0
LINE
  5
48E
  8
0
 62
     0
 10
18.356366291563798
 20
62.573028028430087
 30
0.0
 11
21.761358319410711
 21
65.978020056276875
 31
0.0
  0
LINE
  5
48F
  8
0
 62
     0
 10
0.0219801284140999
 20
44.238641865280272
 30
0.0
 11
3.4269721562609439
 21
47.643633893127117
 31
0.0
  0
LINE
  5
490
  8
0
 62
     0
 10
11.411757368645169
 20
56.975457523671757
 30
0.0
 11
13.811929850647971
 21
59.375630005674502
 31
0.0
  0
LINE
  5
491
  8
0
 62
     0
 10
6.3085538098719089
 20
51.872253964898498
 30
0.0
 11
9.0075941415548186
 21
54.57129429658135
 31
0.0
  0
LINE
  5
492
  8
0
 62
     0
 10
15.266645139798699
 20
60.830345294825243
 30
0.0
 11
19.887033250595088
 21
65.450733405621634
 31
0.0
  0
LINE
  5
493
  8
0
 62
     0
 10
0.5492667790694555
 20
46.112966934095986
 30
0.0
 11
5.1696548898657388
 21
50.733355044892328
 31
0.0
  0
LINE
  5
494
  8
0
 62
     0
 10
1.648704799777817
 20
48.559443372964772
 30
0.0
 11
17.44055681172631
 21
64.351295384913328
 31
0.0
  0
LINE
  5
495
  8
0
 62
     0
 10
3.3668645358263798
 20
51.624641527173651
 30
0.0
 11
14.37535865751744
 21
62.633135648864709
 31
0.0
  0
ENDBLK
  5
497
  8
0
  0
BLOCK
  8
0
  2
*U3
 70
     1
 10
0.0
 20
0.0
 30
0.0
  3
*U3
  1

  0
LINE
  5
499
  8
0
 10
38.500000180549478
 20
51.150000004141589
 30
0.0
 11
38.500000180549421
 21
51.050000004141623
 31
0.0
  0
ARC
  5
49A
  8
0
 10
38.750000180549527
 20
51.050000004141737
 30
0.0
 40
0.2500000000001137
 50
180.0
 51
269.99999999994787
  0
LINE
  5
49B
  8
0
 10
38.750000191749393
 20
50.799999569041567
 30
0.0
 11
40.249999971949407
 21
50.799999569041567
 31
0.0
  0
ARC
  5
49C
  8
0
 10
40.250000180549357
 20
51.05000000414168
 30
0.0
 40
0.2500000000001137
 50
270.00000000001302
 51
359.99999999998698
  0
LINE
  5
49D
  8
0
 10
40.500000012949393
 20
51.050000075741593
 30
0.0
 11
40.50000018054947
 21
57.550000004141623
 31
0.0
  0
ARC
  5
49E
  8
0
 10
40.750000180549357
 20
57.55000000414168
 30
0.0
 40
0.2499999999998863
 50
90.000029037405668
 51
180.00000000001299
  0
LINE
  5
49F
  8
0
 10
40.750000053849419
 20
57.800000716441609
 30
0.0
 11
45.000000180549421
 21
57.800000716441609
 31
0.0
  0
ARC
  5
4A0
  8
0
 10
45.000000180549421
 20
58.300000004141623
 30
0.0
 40
0.5
 50
270.0
 51
359.999984300959
  0
LINE
  5
4A1
  8
0
 10
45.500000366849413
 20
58.299999867141601
 30
0.0
 11
45.500000366849413
 21
62.012927789741582
 31
0.0
  0
ARC
  5
4A2
  8
0
 10
46.500000180549407
 20
62.012928157041578
 30
0.0
 40
1.000000000000012
 50
65.046979212301579
 51
180.0
  0
ARC
  5
4A3
  8
0
 10
33.000000180548682
 20
33.000000004140531
 30
0.0
 40
33.000000000001307
 50
55.360367920100032
 51
65.046979212299576
  0
ARC
  5
4A4
  8
0
 10
51.189215574249367
 20
59.327788429341581
 30
0.0
 40
0.9999999999999992
 50
289.27159038438992
 51
55.360367920101353
  0
ARC
  5
4A5
  8
0
 10
53.301512384249349
 20
53.286414232541581
 30
0.0
 40
5.3999999999999648
 50
109.27159038319969
 51
191.7348102591242
  0
ARC
  5
4A6
  8
0
 10
48.259150341649438
 20
52.238995962941601
 30
0.0
 40
0.2499999999999955
 50
191.7348102595021
 51
284.9785855416747
  0
LINE
  5
4A7
  8
0
 10
48.323764825149397
 20
51.997490410241589
 30
0.0
 11
49.559802176349422
 21
52.32819374324162
 31
0.0
  0
ARC
  5
4A8
  8
0
 10
49.430572559949333
 20
52.811203882141569
 30
0.0
 40
0.5000000000000018
 50
284.97868700620711
 51
6.9988145612970154
  0
ARC
  5
4A9
  8
0
 10
53.301512384249293
 20
53.286414232541631
 30
0.0
 40
3.3999999999999888
 50
74.978697517475254
 51
186.9988145613014
  0
LINE
  5
4AA
  8
0
 10
54.182717935949427
 20
56.570233960141593
 30
0.0
 11
54.964725287309967
 21
57.3516601662024
 31
0.0
  0
ARC
  5
4AB
  8
0
 10
55.141436558249382
 20
57.174817379541651
 30
0.0
 40
0.2500000000000006
 50
44.978687006186611
 51
134.97868700620501
  0
LINE
  5
4AC
  8
0
 10
55.318279551249418
 20
57.351527918541592
 30
0.0
 11
57.368125732847879
 21
55.300155991675688
 31
0.0
  0
ARC
  5
4AD
  8
0
 10
57.191283292049427
 20
55.12344506634156
 30
0.0
 40
0.2500000000000005
 50
314.97876335737658
 51
44.978687006205057
  0
LINE
  5
4AE
  8
0
 10
57.36799387804939
 20
54.946603436441592
 30
0.0
 11
56.585986941577268
 21
54.165177644961076
 31
0.0
  0
ARC
  5
4AF
  8
0
 10
53.301512384249293
 20
53.286414232541631
 30
0.0
 40
3.4000000000001309
 50
262.95855945100118
 51
14.97868700619861
  0
ARC
  5
4B0
  8
0
 10
52.823422326349487
 20
49.415829018841571
 30
0.0
 40
0.5000000000000506
 50
82.958559451006664
 51
164.9786268074796
  0
LINE
  5
4B1
  8
0
 10
52.340507866649432
 20
49.545418654141599
 30
0.0
 11
52.008886272268981
 21
48.309627256333762
 31
0.0
  0
ARC
  5
4B2
  8
0
 10
52.250343069849407
 20
48.244832826641577
 30
0.0
 40
0.2499999999999533
 50
164.97868700620259
 51
258.22256375088148
  0
ARC
  5
4B3
  8
0
 10
53.301512384244973
 20
53.286414232511902
 30
0.0
 40
5.399999999970114
 50
258.22256375278101
 51
263.96948231781312
  0
ARC
  5
4B4
  8
0
 10
52.629140130649368
 20
46.921831327641591
 30
0.0
 40
0.9999999999999836
 50
330.0000101852861
 51
83.969482317800797
  0
LINE
  5
4B5
  8
0
 10
53.495165319949358
 20
46.421831656741567
 30
0.0
 11
52.977379728395533
 21
45.525000004141582
 31
0.0
  0
ARC
  5
4B6
  8
0
 10
52.760873377449393
 20
45.650000004141532
 30
0.0
 40
0.2499999999999432
 50
269.99999999998698
 51
330.00000000000739
  0
LINE
  5
4B7
  8
0
 10
52.760873349249373
 20
45.4000003603416
 30
0.0
 11
51.050000252049408
 21
45.4000003603416
 31
0.0
  0
ARC
  5
4B8
  8
0
 10
51.050000180549489
 20
45.150000004141532
 30
0.0
 40
0.2500000000001137
 50
90.000000000013031
 51
179.99999999998701
  0
LINE
  5
4B9
  8
0
 10
50.799999745449377
 20
45.149999853641582
 30
0.0
 11
50.799999745449377
 21
43.650000004141582
 31
0.0
  0
ARC
  5
4BA
  8
0
 10
51.050000180549489
 20
43.650000004141638
 30
0.0
 40
0.2500000000001137
 50
180.0
 51
269.99999999997391
  0
LINE
  5
4BB
  8
0
 10
51.050000252049408
 20
43.400000032541577
 30
0.0
 11
53.915573643349369
 21
43.400000032541577
 31
0.0
  0
ARC
  5
4BC
  8
0
 10
53.915573915749462
 20
43.650000004141532
 30
0.0
 40
0.2499999999999432
 50
269.99999999998698
 51
330.00000000000739
  0
LINE
  5
4BD
  8
0
 10
54.132080064949371
 20
43.525000285841593
 30
0.0
 11
58.6697349971923
 21
51.384447137761569
 31
0.0
  0
ARC
  5
4BE
  8
0
 10
59.535759791849387
 20
50.884447489441591
 30
0.0
 40
1.0000000000000171
 50
33.978998351199223
 51
150.00000000000111
  0
ARC
  5
4BF
  8
0
 10
33.000000180545499
 20
33.000000004139508
 30
0.0
 40
33.000000000004427
 50
20.693541231200971
 51
33.978998351199238
  0
ARC
  5
4C0
  8
0
 10
62.000000180550607
 20
43.954451154241717
 30
0.0
 40
1.9999999999988629
 50
0.0
 51
20.693541231212681
  0
LINE
  5
4C1
  8
0
 10
63.999999673949389
 20
43.954450820141567
 30
0.0
 11
63.999999673949389
 21
22.045549188241608
 31
0.0
  0
ARC
  5
4C2
  8
0
 10
62.00000018054925
 20
22.045548854041581
 30
0.0
 40
2.0000000000001701
 50
339.30645876880141
 51
0.0
  0
ARC
  5
4C3
  8
0
 10
33.000000180551069
 20
33.000000004140759
 30
0.0
 40
32.999999999998153
 50
326.02100164888969
 51
339.30645876880033
  0
ARC
  5
4C4
  8
0
 10
59.535759791849387
 20
15.1155525189416
 30
0.0
 40
0.9999999999999836
 50
210.00001242177311
 51
326.02100164879892
  0
LINE
  5
4C5
  8
0
 10
58.669735105549421
 20
14.61555268284158
 30
0.0
 11
54.132080064949371
 21
22.474999722541611
 31
0.0
  0
ARC
  5
4C6
  8
0
 10
53.915573915749412
 20
22.350000004141581
 30
0.0
 40
0.2500000000000347
 50
30.00000000000292
 51
90.0
  0
LINE
  5
4C7
  8
0
 10
53.915573643349369
 20
22.59999997584157
 30
0.0
 11
51.050000180549432
 21
22.600000004141659
 31
0.0
  0
ARC
  5
4C8
  8
0
 10
51.050000180549489
 20
22.350000004141581
 30
0.0
 40
0.2500000000000853
 50
90.000000000013031
 51
179.9999091519642
  0
LINE
  5
4C9
  8
0
 10
50.799999745449377
 20
22.3500004005416
 30
0.0
 11
50.799999745449377
 21
20.850000154641609
 31
0.0
  0
ARC
  5
4CA
  8
0
 10
51.050000180549489
 20
20.850000004141631
 30
0.0
 40
0.2500000000001137
 50
180.0
 51
269.99999999998039
  0
LINE
  5
4CB
  8
0
 10
51.050000252049408
 20
20.599999648041599
 30
0.0
 11
52.760873349249373
 21
20.599999648041599
 31
0.0
  0
ARC
  5
4CC
  8
0
 10
52.760873377449293
 20
20.350000004141489
 30
0.0
 40
0.2500000000001266
 50
30.000059025303042
 51
89.999999999986954
  0
LINE
  5
4CD
  8
0
 10
52.977379770849382
 20
20.475000326041599
 30
0.0
 11
53.495165231109297
 21
19.578168505517301
 31
0.0
  0
ARC
  5
4CE
  8
0
 10
52.629140130649432
 20
19.078168680641539
 30
0.0
 40
0.9999999999999482
 50
276.03051768251612
 51
30.00000000000357
  0
ARC
  5
4CF
  8
0
 10
53.301512384248383
 20
12.71358577584917
 30
0.0
 40
5.3999999999924011
 50
96.030517682198308
 51
101.77743624711739
  0
ARC
  5
4D0
  8
0
 10
52.250343069849457
 20
17.755167181741541
 30
0.0
 40
0.2500000000001152
 50
101.7774362472047
 51
195.02129299197239
  0
LINE
  5
4D1
  8
0
 10
52.008886249649379
 20
17.69037283634157
 30
0.0
 11
52.340507584619729
 21
16.454581822478271
 31
0.0
  0
ARC
  5
4D2
  8
0
 10
52.823422326349373
 20
16.584170989541519
 30
0.0
 40
0.4999999999999542
 50
195.02131299379249
 51
277.0414405490078
  0
ARC
  5
4D3
  8
0
 10
53.301512384249399
 20
12.71358577584161
 30
0.0
 40
3.3999999999999821
 50
345.02131299379931
 51
97.041440549000981
  0
LINE
  5
4D4
  8
0
 10
56.585986526549391
 20
11.83482277814158
 30
0.0
 11
57.367993642343471
 21
11.053396807372369
 31
0.0
  0
ARC
  5
4D5
  8
0
 10
57.191283292049377
 20
10.87655494204162
 30
0.0
 40
0.2500000000000006
 50
315.02140164646022
 51
45.021312993794943
  0
LINE
  5
4D6
  8
0
 10
57.368126125849408
 20
10.699844170841571
 30
0.0
 11
55.318279551249418
 21
8.6484720897415741
 31
0.0
  0
ARC
  5
4D7
  8
0
 10
55.141436558249382
 20
8.8251826288415884
 30
0.0
 40
0.2500000000000206
 50
225.0213130713316
 51
315.02131299379499
  0
LINE
  5
4D8
  8
0
 10
54.964725287549349
 20
8.6483398419415778
 30
0.0
 11
54.182718720279922
 21
9.4297655320798413
 31
0.0
  0
ARC
  5
4D9
  8
0
 10
53.301512384249349
 20
12.71358577584161
 30
0.0
 40
3.3999999999999861
 50
173.0011854387005
 51
285.0213129938
  0
ARC
  5
4DA
  8
0
 10
49.430572559949383
 20
13.188796126241609
 30
0.0
 40
0.4999999999999847
 50
353.00118543869581
 51
75.021312993799313
  0
LINE
  5
4DB
  8
0
 10
49.559802176349422
 20
13.67180626514158
 30
0.0
 11
48.323765271715793
 21
14.00250955430735
 31
0.0
  0
ARC
  5
4DC
  8
0
 10
48.259150341649438
 20
13.761004045441521
 30
0.0
 40
0.2500000000000411
 50
75.021312993808934
 51
168.26518973237339
  0
ARC
  5
4DD
  8
0
 10
53.301512384249293
 20
12.713585775841549
 30
0.0
 40
5.3999999999999266
 50
168.26518974049949
 51
250.7284096168008
  0
ARC
  5
4DE
  8
0
 10
51.189215574249367
 20
6.6722115789415852
 30
0.0
 40
1.0000000000000011
 50
304.63963207989872
 51
70.728409616799325
  0
ARC
  5
4DF
  8
0
 10
33.000000180550437
 20
33.000000004139821
 30
0.0
 40
32.999999999997947
 50
294.95302078773233
 51
304.63963207990031
  0
ARC
  5
4E0
  8
0
 10
46.500000180549478
 20
3.9870718513415961
 30
0.0
 40
1.000000000000056
 50
180.0
 51
294.95302078769538
  0
LINE
  5
4E1
  8
0
 10
45.500000366849413
 20
3.9870722186415999
 30
0.0
 11
45.500000180549421
 21
7.7000000041416001
 31
0.0
  0
ARC
  5
4E2
  8
0
 10
45.000000180549421
 20
7.7000000041416001
 30
0.0
 40
0.5
 50
0.0
 51
89.999988048083395
  0
LINE
  5
4E3
  8
0
 10
45.00000028484942
 20
8.1999992919415945
 30
0.0
 11
40.750000180549421
 21
8.1999992919415945
 31
0.0
  0
ARC
  5
4E4
  8
0
 10
40.75000018054947
 20
8.4500000041416552
 30
0.0
 40
0.2500000000000568
 50
180.00004712001811
 51
269.99999999997391
  0
LINE
  5
4E5
  8
0
 10
40.500000012949393
 20
8.4499997985415973
 30
0.0
 11
40.50000018054947
 21
14.9500000041416
 31
0.0
  0
ARC
  5
4E6
  8
0
 10
40.250000180549357
 20
14.95000000414157
 30
0.0
 40
0.2500000000001137
 50
0.0
 51
89.99999999998046
  0
LINE
  5
4E7
  8
0
 10
40.249999971949407
 20
15.200000439341601
 30
0.0
 11
38.750000191749393
 21
15.200000439341601
 31
0.0
  0
ARC
  5
4E8
  8
0
 10
38.750000180549478
 20
14.95000000414154
 30
0.0
 40
0.2500000000000568
 50
90.000000000013031
 51
179.99999999998701
  0
LINE
  5
4E9
  8
0
 10
38.500000150749372
 20
14.949999932641591
 30
0.0
 11
38.500000180549478
 21
14.8500000041416
 31
0.0
  0
ARC
  5
4EA
  8
0
 10
38.250000180549357
 20
14.850000004141631
 30
0.0
 40
0.2500000000000853
 50
270.00000000001302
 51
359.99999999999352
  0
LINE
  5
4EB
  8
0
 10
38.250000109749408
 20
14.59999959594159
 30
0.0
 11
27.75000025134943
 21
14.59999959594159
 31
0.0
  0
ARC
  5
4EC
  8
0
 10
27.750000180549481
 20
14.850000004141661
 30
0.0
 40
0.2500000000000568
 50
180.0
 51
269.99999999997391
  0
LINE
  5
4ED
  8
0
 10
27.500000210349359
 20
14.8500001025416
 30
0.0
 11
27.500000180549421
 21
14.9500000041416
 31
0.0
  0
ARC
  5
4EE
  8
0
 10
27.250000180549371
 20
14.95000000414154
 30
0.0
 40
0.2500000000000568
 50
0.0
 51
89.999999999973952
  0
LINE
  5
4EF
  8
0
 10
27.250000169349391
 20
15.200000439341601
 30
0.0
 11
25.75000038914942
 21
15.200000439341601
 31
0.0
  0
ARC
  5
4F0
  8
0
 10
25.750000180549481
 20
14.95000000414154
 30
0.0
 40
0.2500000000000568
 50
90.000000000013031
 51
179.99999999998701
  0
LINE
  5
4F1
  8
0
 10
25.500000348149339
 20
14.949999932641591
 30
0.0
 11
25.500000180549421
 21
8.4500000041416001
 31
0.0
  0
ARC
  5
4F2
  8
0
 10
25.250000180549371
 20
8.4500000041416552
 30
0.0
 40
0.2500000000000568
 50
270.00002903743172
 51
359.99999999998698
  0
LINE
  5
4F3
  8
0
 10
25.250000307249419
 20
8.1999992919415945
 30
0.0
 11
21.000000180549421
 21
8.1999992919415945
 31
0.0
  0
ARC
  5
4F4
  8
0
 10
21.000000180549421
 20
7.7000000041416001
 30
0.0
 40
0.5
 50
90.0
 51
179.9999842895044
  0
LINE
  5
4F5
  8
0
 10
20.499999994249379
 20
7.7000001412415884
 30
0.0
 11
20.499999994249379
 21
3.9870722186415999
 31
0.0
  0
ARC
  5
4F6
  8
0
 10
19.50000018054936
 20
3.9870718513415961
 30
0.0
 40
1.0000000000000371
 50
245.04697921337541
 51
359.99999999999841
  0
ARC
  5
4F7
  8
0
 10
33.00000018055232
 20
33.000000004146671
 30
0.0
 40
33.000000000005841
 50
235.3603679201008
 51
245.04697921229911
  0
ARC
  5
4F8
  8
0
 10
14.81078478684941
 20
6.6722115789415852
 30
0.0
 40
1.0000000000000251
 50
109.27159038320001
 51
235.36036792009861
  0
ARC
  5
4F9
  8
0
 10
12.69848797684943
 20
12.71358577584158
 30
0.0
 40
5.3999999999999932
 50
289.27159038319962
 51
11.73481025912441
  0
ARC
  5
4FA
  8
0
 10
17.74085001944939
 20
13.761004045441609
 30
0.0
 40
0.2499999999999897
 50
11.73481025949579
 51
104.9785855416764
  0
LINE
  5
4FB
  8
0
 10
17.676235535949441
 20
14.002509598141581
 30
0.0
 11
16.440198184749359
 21
13.67180626514158
 31
0.0
  0
ARC
  5
4FC
  8
0
 10
16.569427801149459
 20
13.188796126241529
 30
0.0
 40
0.5000000000000842
 50
104.9786870062045
 51
186.99881456129299
  0
ARC
  5
4FD
  8
0
 10
12.69848797684943
 20
12.713585775841519
 30
0.0
 40
3.3999999999999622
 50
254.978697517477
 51
6.9988145613008523
  0
LINE
  5
4FE
  8
0
 10
11.81728242514941
 20
9.4297660482415893
 30
0.0
 11
11.03527507378878
 21
8.6483398421808104
 31
0.0
  0
ARC
  5
4FF
  8
0
 10
10.858563802849339
 20
8.8251826288415884
 30
0.0
 40
0.2499999999999805
 50
224.9786870062004
 51
314.9786870062004
  0
LINE
  5
500
  8
0
 10
10.68172080984942
 20
8.6484720897415741
 30
0.0
 11
8.6318746282508982
 21
10.69984401670748
 31
0.0
  0
ARC
  5
501
  8
0
 10
8.8087170690493508
 20
10.87655494204162
 30
0.0
 40
0.2500000000000006
 50
134.97876337357431
 51
224.97868700620509
  0
LINE
  5
502
  8
0
 10
8.6320064830493948
 20
11.053396571841599
 30
0.0
 11
9.4140134195215133
 21
11.83482236342207
 31
0.0
  0
ARC
  5
503
  8
0
 10
12.69848797684938
 20
12.713585775841549
 30
0.0
 40
3.4000000000000248
 50
82.958559451000056
 51
194.97868700619949
  0
ARC
  5
504
  8
0
 10
13.17657803474947
 20
16.584170989541551
 30
0.0
 40
0.4999999999999516
 50
262.95855945099208
 51
344.9786268074825
  0
LINE
  5
505
  8
0
 10
13.65949249444941
 20
16.454581354241579
 30
0.0
 11
13.991114088829811
 21
17.690372752049409
 31
0.0
  0
ARC
  5
506
  8
0
 10
13.749657291249431
 20
17.755167181741591
 30
0.0
 40
0.2500000000000156
 50
344.97868700619972
 51
78.222563750904314
  0
ARC
  5
507
  8
0
 10
12.69848797684886
 20
12.713585775838171
 30
0.0
 40
5.4000000000034696
 50
78.222563752801804
 51
83.969482317738454
  0
ARC
  5
508
  8
0
 10
13.370860230449461
 20
19.078168680641589
 30
0.0
 40
1.000000000000081
 50
150.00001018032799
 51
263.96948231779788
  0
LINE
  5
509
  8
0
 10
12.504835041149359
 20
19.578168351641612
 30
0.0
 11
13.02262063270325
 21
20.475000004141609
 31
0.0
  0
ARC
  5
50A
  8
0
 10
13.239126983649379
 20
20.350000004141581
 30
0.0
 40
0.2500000000000568
 50
90.0
 51
149.99999999999699
  0
LINE
  5
50B
  8
0
 10
13.2391270118494
 20
20.599999648041599
 30
0.0
 11
14.95000010904943
 21
20.599999648041599
 31
0.0
  0
ARC
  5
50C
  8
0
 10
14.950000180549351
 20
20.850000004141659
 30
0.0
 40
0.2500000000000568
 50
270.00000000001302
 51
359.99999999998698
  0
LINE
  5
50D
  8
0
 10
15.200000615649341
 20
20.850000154641609
 30
0.0
 11
15.200000615649341
 21
22.350000004141609
 31
0.0
  0
ARC
  5
50E
  8
0
 10
14.950000180549351
 20
22.350000004141549
 30
0.0
 40
0.2500000000000568
 50
0.0
 51
89.999999999973952
  0
LINE
  5
50F
  8
0
 10
14.95000010904943
 20
22.59999997584157
 30
0.0
 11
12.084426717749411
 21
22.59999997584157
 31
0.0
  0
ARC
  5
510
  8
0
 10
12.084426445349431
 20
22.350000004141489
 30
0.0
 40
0.2500000000001137
 50
90.000000000013031
 51
149.99999999998661
  0
LINE
  5
511
  8
0
 10
11.867920296149411
 20
22.474999722541611
 30
0.0
 11
7.330265363949791
 21
14.615552870596479
 31
0.0
  0
ARC
  5
512
  8
0
 10
6.4642405692493412
 20
15.1155525189416
 30
0.0
 40
1.0000000000000331
 50
213.97899835417459
 51
329.99999999999949
  0
ARC
  5
513
  8
0
 10
33.000000180552263
 20
33.000000004143203
 30
0.0
 40
33.00000000000324
 50
200.69354123120081
 51
213.97899835119949
  0
ARC
  5
514
  8
0
 10
4.0000001805493071
 20
22.045548854041559
 30
0.0
 40
1.9999999999998861
 50
180.0
 51
200.69354123120081
  0
LINE
  5
515
  8
0
 10
2.0000006871493952
 20
22.045549188241608
 30
0.0
 11
2.0000006871493952
 21
43.954450820141567
 31
0.0
  0
ARC
  5
516
  8
0
 10
4.0000001805499323
 20
43.954451154241553
 30
0.0
 40
2.0000000000005098
 50
159.30645876880331
 51
179.99999999999841
  0
ARC
  5
517
  8
0
 10
33.000000180549932
 20
33.00000000414127
 30
0.0
 40
33.000000000000618
 50
146.02100164879991
 51
159.30645876879981
  0
ARC
  5
518
  8
0
 10
6.4642405692493412
 20
50.884447489441591
 30
0.0
 40
1.000000000000032
 50
30.000012416805681
 51
146.0210016487998
  0
LINE
  5
519
  8
0
 10
7.3302652555494197
 20
51.384447325441549
 30
0.0
 11
11.867920296149411
 21
43.525000285841593
 31
0.0
  0
ARC
  5
51A
  8
0
 10
12.084426445349321
 20
43.650000004141532
 30
0.0
 40
0.2499999999999428
 50
209.9999999999925
 51
270.00000000001302
  0
LINE
  5
51B
  8
0
 10
12.084426717749411
 20
43.400000032541577
 30
0.0
 11
14.950000180549409
 21
43.400000004141589
 31
0.0
  0
ARC
  5
51C
  8
0
 10
14.95000018054929
 20
43.650000004141702
 30
0.0
 40
0.2500000000001137
 50
270.00000000002598
 51
359.99990917486662
  0
LINE
  5
51D
  8
0
 10
15.200000615649341
 20
43.6499996078416
 30
0.0
 11
15.200000615649341
 21
45.149999853641582
 31
0.0
  0
ARC
  5
51E
  8
0
 10
14.95000018054929
 20
45.150000004141468
 30
0.0
 40
0.2500000000001137
 50
0.0
 51
89.999999999947889
  0
LINE
  5
51F
  8
0
 10
14.95000010904943
 20
45.4000003603416
 30
0.0
 11
13.2391270118494
 21
45.4000003603416
 31
0.0
  0
ARC
  5
520
  8
0
 10
13.23912698364933
 20
45.650000004141532
 30
0.0
 40
0.2499999999999428
 50
210.00005900543769
 51
270.00000000001302
  0
LINE
  5
521
  8
0
 10
13.022620590249399
 20
45.524999682341608
 30
0.0
 11
12.504835130032751
 21
46.421831502790837
 31
0.0
  0
ARC
  5
522
  8
0
 10
13.370860230449409
 20
46.921831327641591
 30
0.0
 40
1.00000000000001
 50
96.030517682199203
 51
209.99999999999889
  0
ARC
  5
523
  8
0
 10
12.69848797685375
 20
53.286414232511902
 30
0.0
 40
5.3999999999701087
 50
276.03051768218688
 51
281.7774362471269
  0
ARC
  5
524
  8
0
 10
13.74965729124937
 20
48.244832826641577
 30
0.0
 40
0.2500000000000062
 50
281.77743624711673
 51
15.02129299198212
  0
LINE
  5
525
  8
0
 10
13.9911141114494
 20
48.30962717204158
 30
0.0
 11
13.65949277647905
 21
49.545418185904907
 31
0.0
  0
ARC
  5
526
  8
0
 10
13.1765780347493
 20
49.415829018841457
 30
0.0
 40
0.5000000000001156
 50
15.0213129938112
 51
97.041440548986046
  0
ARC
  5
527
  8
0
 10
12.69848797684943
 20
53.286414232541631
 30
0.0
 40
3.4000000000001251
 50
165.02131299380139
 51
277.04144054899882
  0
LINE
  5
528
  8
0
 10
9.4140138345494506
 20
54.165177230241632
 30
0.0
 11
8.6320067187053588
 21
54.946603200960752
 31
0.0
  0
ARC
  5
529
  8
0
 10
8.8087170690493508
 20
55.12344506634156
 30
0.0
 40
0.2500000000000005
 50
135.02140164644641
 51
225.02131299381341
  0
LINE
  5
52A
  8
0
 10
8.6318742352494269
 20
55.300155837541581
 30
0.0
 11
10.68172080984942
 21
57.351527918541592
 31
0.0
  0
ARC
  5
52B
  8
0
 10
10.858563802849339
 20
57.174817379541587
 30
0.0
 40
0.2500000000000005
 50
45.021313071331598
 51
135.02131299379491
  0
LINE
  5
52C
  8
0
 10
11.03527507354937
 20
57.351660166441611
 30
0.0
 11
11.8172816408188
 21
56.570234476303312
 31
0.0
  0
ARC
  5
52D
  8
0
 10
12.69848797684943
 20
53.286414232541631
 30
0.0
 40
3.3999999999999431
 50
353.0011854386986
 51
105.0213129938011
  0
ARC
  5
52E
  8
0
 10
16.569427801149342
 20
52.811203882141513
 30
0.0
 40
0.4999999999999283
 50
173.0011854386949
 51
255.02131299380389
  0
LINE
  5
52F
  8
0
 10
16.440198184749359
 20
52.32819374324162
 30
0.0
 11
17.676235089382999
 21
51.99749045407583
 31
0.0
  0
ARC
  5
530
  8
0
 10
17.74085001944939
 20
52.238995962941601
 30
0.0
 40
0.2500000000000009
 50
255.021312993793
 51
348.26518973237722
  0
ARC
  5
531
  8
0
 10
12.698487976849259
 20
53.28641423254151
 30
0.0
 40
5.4000000000001318
 50
348.26518974050089
 51
70.728409616578631
  0
ARC
  5
532
  8
0
 10
14.81078478684941
 20
59.327788429341581
 30
0.0
 40
1.0000000000000011
 50
124.6396320798986
 51
250.7284096167993
  0
ARC
  5
533
  8
0
 10
33.000000180545392
 20
33.000000004148518
 30
0.0
 40
32.999999999992063
 50
114.9530207876987
 51
124.63963207990101
  0
ARC
  5
534
  8
0
 10
19.50000018054936
 20
62.012928157041578
 30
0.0
 40
1.000000000000056
 50
0.0
 51
114.953020787697
  0
LINE
  5
535
  8
0
 10
20.499999994249379
 20
62.012927789741582
 30
0.0
 11
20.500000180549421
 21
58.300000004141623
 31
0.0
  0
ARC
  5
536
  8
0
 10
21.000000180549421
 20
58.300000004141623
 30
0.0
 40
0.5
 50
180.0
 51
269.99998804808342
  0
LINE
  5
537
  8
0
 10
21.000000076249421
 20
57.800000716441609
 30
0.0
 11
25.250000180549421
 21
57.800000716441609
 31
0.0
  0
ARC
  5
538
  8
0
 10
25.250000180549311
 20
57.550000004141509
 30
0.0
 40
0.2500000000001137
 50
0.0000471429270616
 51
89.999999999947889
  0
LINE
  5
539
  8
0
 10
25.500000348149339
 20
57.550000209841592
 30
0.0
 11
25.500000180549421
 21
51.050000004141623
 31
0.0
  0
ARC
  5
53A
  8
0
 10
25.750000180549542
 20
51.050000004141737
 30
0.0
 40
0.2500000000001137
 50
180.0
 51
269.99999999994787
  0
LINE
  5
53B
  8
0
 10
25.75000038914942
 20
50.799999569041567
 30
0.0
 11
27.250000169349391
 21
50.799999569041567
 31
0.0
  0
ARC
  5
53C
  8
0
 10
27.250000180549311
 20
51.050000004141737
 30
0.0
 40
0.2500000000001137
 50
270.00000000002598
 51
359.99999999997402
  0
LINE
  5
53D
  8
0
 10
27.500000210349359
 20
51.050000075741593
 30
0.0
 11
27.500000180549421
 21
51.150000004141589
 31
0.0
  0
ARC
  5
53E
  8
0
 10
27.750000180549531
 20
51.150000004141482
 30
0.0
 40
0.2500000000001137
 50
90.000000000026048
 51
179.99999999997391
  0
LINE
  5
53F
  8
0
 10
27.75000025134943
 20
51.400000412441557
 30
0.0
 11
38.250000109749408
 21
51.400000412441557
 31
0.0
  0
ARC
  5
540
  8
0
 10
38.250000180549357
 20
51.150000004141532
 30
0.0
 40
0.2500000000001137
 50
0.0
 51
89.999999999973952
  0
LINE
  5
541
  8
0
 10
27.75000025134943
 20
12.59999926804158
 30
0.0
 11
32.700000166349412
 21
12.59999926804158
 31
0.0
  0
LINE
  5
542
  8
0
 10
32.700000166349412
 20
12.59999926804158
 30
0.0
 11
33.000000180549421
 21
12.900000621141601
 31
0.0
  0
LINE
  5
543
  8
0
 10
33.000000180549421
 20
12.900000621141601
 30
0.0
 11
33.300000194749373
 21
12.59999926804158
 31
0.0
  0
LINE
  5
544
  8
0
 10
33.300000194749373
 20
12.59999926804158
 30
0.0
 11
38.250000109749408
 21
12.59999926804158
 31
0.0
  0
ARC
  5
545
  8
0
 10
38.250000180549357
 20
12.350000004141579
 30
0.0
 40
0.2500000000001137
 50
0.0
 51
89.99999999998046
  0
LINE
  5
546
  8
0
 10
38.500000180549478
 20
12.3500000041416
 30
0.0
 11
38.500000150749372
 21
6.4499994707416022
 31
0.0
  0
ARC
  5
547
  8
0
 10
38.750000180549478
 20
6.4500000041416561
 30
0.0
 40
0.2500000000000568
 50
180.0001222462601
 51
269.99999999997391
  0
LINE
  5
548
  8
0
 10
38.750000191749393
 20
6.2000008267415856
 30
0.0
 11
43.250000463649357
 21
6.2000008267415856
 31
0.0
  0
ARC
  5
549
  8
0
 10
43.250000180549357
 20
5.9500000041415708
 30
0.0
 40
0.2500000000001137
 50
0.0
 51
89.999935118464535
  0
LINE
  5
54A
  8
0
 10
43.500000180549478
 20
5.9500000041416001
 30
0.0
 11
43.500000038949402
 21
2.2499991548415892
 31
0.0
  0
ARC
  5
54B
  8
0
 10
43.250000180549357
 20
2.250000004141639
 30
0.0
 40
0.2500000000000853
 50
270.00000000001302
 51
359.99980535465602
  0
LINE
  5
54C
  8
0
 10
43.250000180549421
 20
2.000000510841573
 30
0.0
 11
38.550000065849417
 21
2.000000510841573
 31
0.0
  0
ARC
  5
54D
  8
0
 10
38.550000180549489
 20
1.750000004141554
 30
0.0
 40
0.2500000000000568
 50
90.000026287266778
 51
179.99999999998701
  0
LINE
  5
54E
  8
0
 10
38.300000180549432
 20
1.7500000041416111
 30
0.0
 11
38.300000024849403
 21
0.2500006896415812
 31
0.0
  0
ARC
  5
54F
  8
0
 10
38.550000180549489
 20
0.2500000041416683
 30
0.0
 40
0.2500000000000568
 50
180.0
 51
269.99999999997391
  0
LINE
  5
550
  8
0
 10
38.550000180549432
 20
0.0000000041416115
 30
0.0
 11
43.770329454749387
 21
0.0000001830416068
 31
0.0
  0
ARC
  5
551
  8
0
 10
43.770329794849602
 20
5.0000000041405883
 30
0.0
 40
4.9999999999989759
 50
269.99999999999812
 51
291.03946978130227
  0
ARC
  5
552
  8
0
 10
33.000000180549762
 20
33.000000004141249
 30
0.0
 40
34.999999999999538
 50
291.03946978136179
 51
338.9605302187004
  0
ARC
  5
553
  8
0
 10
61.000000180550451
 20
22.229670389941418
 30
0.0
 40
4.9999999999989804
 50
338.96053021869739
 51
0.0000000000019984
  0
LINE
  5
554
  8
0
 10
66.000000001749356
 20
22.229670729941571
 30
0.0
 11
66.000000001749356
 21
43.770329278441572
 31
0.0
  0
ARC
  5
555
  8
0
 10
61.000000180550451
 20
43.770329618441792
 30
0.0
 40
4.9999999999989759
 50
0.0
 51
21.039469781304231
  0
ARC
  5
556
  8
0
 10
33.000000180549542
 20
33.00000000414181
 30
0.0
 40
34.999999999999822
 50
21.039469781361891
 51
68.960530218700058
  0
ARC
  5
557
  8
0
 10
43.770329794849431
 20
61.000000004140979
 30
0.0
 40
5.0000000000005702
 50
68.960530219137539
 51
89.999999999999986
  0
LINE
  5
558
  8
0
 10
43.770329454749387
 20
65.999999825341604
 30
0.0
 11
38.550000065849417
 21
65.999999825341604
 31
0.0
  0
ARC
  5
559
  8
0
 10
38.550000180549489
 20
65.750000004141555
 30
0.0
 40
0.2500000000001137
 50
90.000026287338855
 51
179.99999999998701
  0
LINE
  5
55A
  8
0
 10
38.300000024849403
 20
65.749999318741573
 30
0.0
 11
38.300000024849403
 21
64.250000004141611
 31
0.0
  0
ARC
  5
55B
  8
0
 10
38.550000180549553
 20
64.250000004141725
 30
0.0
 40
0.2500000000001137
 50
180.0
 51
269.99999999994787
  0
LINE
  5
55C
  8
0
 10
38.550000180549432
 20
63.99999949754158
 30
0.0
 11
43.250000463649357
 21
63.99999949754158
 31
0.0
  0
ARC
  5
55D
  8
0
 10
43.250000180549357
 20
63.750000004141548
 30
0.0
 40
0.2500000000001137
 50
0.0
 51
89.999935118113072
  0
LINE
  5
55E
  8
0
 10
43.500000180549478
 20
63.750000004141611
 30
0.0
 11
43.500000038949402
 21
60.049999688241599
 31
0.0
  0
ARC
  5
55F
  8
0
 10
43.250000180549357
 20
60.05000000414168
 30
0.0
 40
0.2500000000001137
 50
270.00000000001302
 51
359.99992760099337
  0
LINE
  5
560
  8
0
 10
43.250000180549421
 20
59.799999181641617
 30
0.0
 11
38.750000191749393
 21
59.799999181641617
 31
0.0
  0
ARC
  5
561
  8
0
 10
38.750000180549371
 20
59.55000000414168
 30
0.0
 40
0.2499999999998863
 50
89.999999999986969
 51
180.00000000001299
  0
LINE
  5
562
  8
0
 10
38.500000180549478
 20
59.550000004141623
 30
0.0
 11
38.500000150749372
 21
53.649999384341577
 31
0.0
  0
ARC
  5
563
  8
0
 10
38.250000180549357
 20
53.650000004141638
 30
0.0
 40
0.2500000000001137
 50
270.00000000001302
 51
359.99985795227229
  0
LINE
  5
564
  8
0
 10
38.250000109749408
 20
53.400000740341568
 30
0.0
 11
33.300000194749373
 21
53.400000740341568
 31
0.0
  0
LINE
  5
565
  8
0
 10
33.300000194749373
 20
53.400000740341568
 30
0.0
 11
33.000000180549421
 21
53.099999387241553
 31
0.0
  0
LINE
  5
566
  8
0
 10
33.000000180549421
 20
53.099999387241553
 30
0.0
 11
32.700000166349412
 21
53.400000740341568
 31
0.0
  0
LINE
  5
567
  8
0
 10
32.700000166349412
 20
53.400000740341568
 30
0.0
 11
27.75000025134943
 21
53.400000740341568
 31
0.0
  0
ARC
  5
568
  8
0
 10
27.750000180549531
 20
53.650000004141702
 30
0.0
 40
0.2500000000001137
 50
180.0
 51
269.99999999994787
  0
LINE
  5
569
  8
0
 10
27.500000180549421
 20
53.650000004141589
 30
0.0
 11
27.500000210349359
 21
59.550000537641608
 31
0.0
  0
ARC
  5
56A
  8
0
 10
27.250000180549311
 20
59.550000004141509
 30
0.0
 40
0.2500000000001137
 50
0.0001222691755882
 51
89.999999999947889
  0
LINE
  5
56B
  8
0
 10
27.250000169349391
 20
59.799999181641617
 30
0.0
 11
22.74999989744936
 21
59.799999181641617
 31
0.0
  0
ARC
  5
56C
  8
0
 10
22.750000180549481
 20
60.05000000414168
 30
0.0
 40
0.2500000000001137
 50
180.0
 51
269.99993511843189
  0
LINE
  5
56D
  8
0
 10
22.500000180549371
 20
60.050000004141623
 30
0.0
 11
22.50000032214939
 21
63.750000853541557
 31
0.0
  0
ARC
  5
56E
  8
0
 10
22.750000180549531
 20
63.750000004141498
 30
0.0
 40
0.2500000000001137
 50
90.000000000026048
 51
179.999805331734
  0
LINE
  5
56F
  8
0
 10
22.750000180549421
 20
63.99999949754158
 30
0.0
 11
27.450000295249431
 21
63.99999949754158
 31
0.0
  0
ARC
  5
570
  8
0
 10
27.450000180549299
 20
64.250000004141725
 30
0.0
 40
0.2500000000001137
 50
270.00002628727981
 51
359.99999999997402
  0
LINE
  5
571
  8
0
 10
27.700000180549409
 20
64.250000004141611
 30
0.0
 11
27.700000336249389
 21
65.749999318741573
 31
0.0
  0
ARC
  5
572
  8
0
 10
27.45000018054947
 20
65.750000004141668
 30
0.0
 40
0.2499999999998863
 50
0.0
 51
90.000000000026048
  0
LINE
  5
573
  8
0
 10
27.450000180549409
 20
66.000000004141555
 30
0.0
 11
22.22967090634944
 21
65.999999825341604
 31
0.0
  0
ARC
  5
574
  8
0
 10
22.229670566249411
 20
61.000000004140979
 30
0.0
 40
5.0000000000005684
 50
90.0
 51
111.0394697812973
  0
ARC
  5
575
  8
0
 10
33.000000180549307
 20
33.00000000414181
 30
0.0
 40
34.999999999999822
 50
111.039469781362
 51
158.9605302187002
  0
ARC
  5
576
  8
0
 10
5.0000001805483967
 20
43.770329618441792
 30
0.0
 40
4.9999999999989697
 50
158.96053021913241
 51
180.00000000000199
  0
LINE
  5
577
  8
0
 10
0.0000003593493716
 20
43.770329278441572
 30
0.0
 11
0.0000003593493716
 21
22.229670729941571
 31
0.0
  0
ARC
  5
578
  8
0
 10
5.0000001805481133
 20
22.22967038994139
 30
0.0
 40
4.9999999999986917
 50
180.0
 51
201.03946978130551
  0
ARC
  5
579
  8
0
 10
33.000000180549478
 20
33.000000004141697
 30
0.0
 40
35.000000000000142
 50
201.03946978130011
 51
248.96053021869989
  0
ARC
  5
57A
  8
0
 10
22.229670566249581
 20
5.000000004142179
 30
0.0
 40
5.000000000000604
 50
248.96053021913539
 51
269.99999999999812
  0
LINE
  5
57B
  8
0
 10
22.22967090634944
 20
0.0000001830416068
 30
0.0
 11
27.450000295249431
 21
0.0000001830416068
 31
0.0
  0
ARC
  5
57C
  8
0
 10
27.450000180549349
 20
0.2500000041416683
 30
0.0
 40
0.2500000000000568
 50
270.00002628733893
 51
359.99999999998698
  0
LINE
  5
57D
  8
0
 10
27.700000336249389
 20
0.2500006896415812
 30
0.0
 11
27.700000336249389
 21
1.7500000041416111
 31
0.0
  0
ARC
  5
57E
  8
0
 10
27.450000180549349
 20
1.750000004141554
 30
0.0
 40
0.2500000000000568
 50
0.0
 51
89.999999999973952
  0
LINE
  5
57F
  8
0
 10
27.450000180549409
 20
2.000000510841573
 30
0.0
 11
22.74999989744936
 21
2.000000510841573
 31
0.0
  0
ARC
  5
580
  8
0
 10
22.750000180549481
 20
2.2500000041416679
 30
0.0
 40
0.2500000000000568
 50
180.0
 51
269.99993511808702
  0
LINE
  5
581
  8
0
 10
22.500000180549421
 20
2.2500000041416111
 30
0.0
 11
22.50000032214939
 21
5.9500003200415961
 31
0.0
  0
ARC
  5
582
  8
0
 10
22.750000180549481
 20
5.9500000041415433
 30
0.0
 40
0.2500000000000568
 50
90.000000000013031
 51
179.9999276009998
  0
LINE
  5
583
  8
0
 10
22.750000180549421
 20
6.2000008267415856
 30
0.0
 11
27.250000169349391
 21
6.2000008267415856
 31
0.0
  0
ARC
  5
584
  8
0
 10
27.250000180549371
 20
6.4500000041416561
 30
0.0
 40
0.2500000000000568
 50
270.00000000001302
 51
359.99999999998698
  0
LINE
  5
585
  8
0
 10
27.500000180549421
 20
6.4500000041416001
 30
0.0
 11
27.500000210349359
 21
12.35000062404157
 31
0.0
  0
ARC
  5
586
  8
0
 10
27.750000180549481
 20
12.350000004141551
 30
0.0
 40
0.2500000000000568
 50
90.000000000013031
 51
179.99985792936329
  0
ENDBLK
  5
588
  8
0
  0
ENDSEC
  0
SECTION
  2
ENTITIES
  0
LINE
  5
25A
  8
0
 10
2102.9483088795728
 20
2054.746508366251
 30
0.0
 11
2102.9483088795728
 21
2054.6465083662511
 31
0.0
  0
ARC
  5
25B
  8
0
 10
2103.1983088795741
 20
2054.6465083662511
 30
0.0
 40
0.2500000000001137
 50
180.0
 51
269.99999999994787
  0
LINE
  5
25C
  8
0
 10
2103.1983088907732
 20
2054.3965079311511
 30
0.0
 11
2104.6983086709738
 21
2054.3965079311511
 31
0.0
  0
ARC
  5
25D
  8
0
 10
2104.6983088795728
 20
2054.6465083662511
 30
0.0
 40
0.2500000000001137
 50
270.00000000001302
 51
359.99999999998698
  0
LINE
  5
25E
  8
0
 10
2104.9483087119738
 20
2054.646508437851
 30
0.0
 11
2104.9483088795728
 21
2061.1465083662511
 31
0.0
  0
ARC
  5
25F
  8
0
 10
2105.1983088795741
 20
2061.1465083662511
 30
0.0
 40
0.2499999999998863
 50
90.000029037405668
 51
180.00000000001299
  0
LINE
  5
260
  8
0
 10
2105.1983087528729
 20
2061.3965090785509
 30
0.0
 11
2109.4483088795728
 21
2061.3965090785509
 31
0.0
  0
ARC
  5
261
  8
0
 10
2109.4483088795728
 20
2061.8965083662511
 30
0.0
 40
0.5
 50
270.0
 51
359.999984300959
  0
LINE
  5
262
  8
0
 10
2109.9483090658732
 20
2061.8965082292511
 30
0.0
 11
2109.9483090658732
 21
2065.6094361518508
 31
0.0
  0
ARC
  5
263
  8
0
 10
2110.9483088795728
 20
2065.6094365191511
 30
0.0
 40
1.000000000000012
 50
65.046979212301579
 51
180.0
  0
ARC
  5
264
  8
0
 10
2097.4483088795728
 20
2036.59650836625
 30
0.0
 40
33.000000000001307
 50
55.360367920100032
 51
65.046979212299576
  0
ARC
  5
265
  8
0
 10
2115.6375242732729
 20
2062.9242967914511
 30
0.0
 40
0.9999999999999992
 50
289.27159038438992
 51
55.360367920101353
  0
ARC
  5
266
  8
0
 10
2117.7498210832741
 20
2056.8829225946511
 30
0.0
 40
5.3999999999999648
 50
109.27159038319969
 51
191.7348102591242
  0
ARC
  5
267
  8
0
 10
2112.7074590406728
 20
2055.8355043250508
 30
0.0
 40
0.2499999999999955
 50
191.7348102595021
 51
284.9785855416747
  0
LINE
  5
268
  8
0
 10
2112.7720735241728
 20
2055.5939987723509
 30
0.0
 11
2114.0081108753729
 21
2055.9247021053511
 31
0.0
  0
ARC
  5
269
  8
0
 10
2113.8788812589728
 20
2056.4077122442509
 30
0.0
 40
0.5000000000000018
 50
284.97868700620711
 51
6.9988145612970154
  0
ARC
  5
26A
  8
0
 10
2117.7498210832741
 20
2056.8829225946511
 30
0.0
 40
3.3999999999999888
 50
74.978697517475254
 51
186.9988145613014
  0
LINE
  5
26B
  8
0
 10
2118.6310266349728
 20
2060.1667423222511
 30
0.0
 11
2119.4130339863341
 21
2060.9481685283122
 31
0.0
  0
ARC
  5
26C
  8
0
 10
2119.589745257274
 20
2060.7713257416508
 30
0.0
 40
0.2500000000000006
 50
44.978687006186611
 51
134.97868700620501
  0
LINE
  5
26D
  8
0
 10
2119.7665882502729
 20
2060.9480362806512
 30
0.0
 11
2121.816434431872
 21
2058.8966643537851
 31
0.0
  0
ARC
  5
26E
  8
0
 10
2121.6395919910728
 20
2058.7199534284509
 30
0.0
 40
0.2500000000000005
 50
314.97876335737658
 51
44.978687006205057
  0
LINE
  5
26F
  8
0
 10
2121.8163025770732
 20
2058.5431117985509
 30
0.0
 11
2121.0342956406012
 21
2057.7616860070711
 31
0.0
  0
ARC
  5
270
  8
0
 10
2117.7498210832741
 20
2056.8829225946511
 30
0.0
 40
3.4000000000001309
 50
262.95855945100118
 51
14.97868700619861
  0
ARC
  5
271
  8
0
 10
2117.2717310253738
 20
2053.0123373809511
 30
0.0
 40
0.5000000000000506
 50
82.958559451006664
 51
164.9786268074796
  0
LINE
  5
272
  8
0
 10
2116.7888165656732
 20
2053.141927016251
 30
0.0
 11
2116.4571949712931
 21
2051.9061356184429
 31
0.0
  0
ARC
  5
273
  8
0
 10
2116.6986517688729
 20
2051.8413411887509
 30
0.0
 40
0.2499999999999533
 50
164.97868700620259
 51
258.22256375088148
  0
ARC
  5
274
  8
0
 10
2117.7498210832691
 20
2056.882922594621
 30
0.0
 40
5.399999999970114
 50
258.22256375278101
 51
263.96948231781312
  0
ARC
  5
275
  8
0
 10
2117.0774488296729
 20
2050.518339689751
 30
0.0
 40
0.9999999999999836
 50
330.0000101852861
 51
83.969482317800797
  0
LINE
  5
276
  8
0
 10
2117.943474018974
 20
2050.0183400188512
 30
0.0
 11
2117.42568842742
 21
2049.121508366251
 31
0.0
  0
ARC
  5
277
  8
0
 10
2117.2091820764731
 20
2049.246508366251
 30
0.0
 40
0.2499999999999432
 50
269.99999999998698
 51
330.00000000000739
  0
LINE
  5
278
  8
0
 10
2117.2091820482742
 20
2048.9965087224509
 30
0.0
 11
2115.4983089510729
 21
2048.9965087224509
 31
0.0
  0
ARC
  5
279
  8
0
 10
2115.4983088795739
 20
2048.746508366251
 30
0.0
 40
0.2500000000001137
 50
90.000000000013031
 51
179.99999999998701
  0
LINE
  5
27A
  8
0
 10
2115.2483084444739
 20
2048.746508215751
 30
0.0
 11
2115.2483084444739
 21
2047.246508366251
 31
0.0
  0
ARC
  5
27B
  8
0
 10
2115.4983088795739
 20
2047.246508366251
 30
0.0
 40
0.2500000000001137
 50
180.0
 51
269.99999999997391
  0
LINE
  5
27C
  8
0
 10
2115.4983089510729
 20
2046.9965083946511
 30
0.0
 11
2118.363882342373
 21
2046.9965083946511
 31
0.0
  0
ARC
  5
27D
  8
0
 10
2118.363882614774
 20
2047.246508366251
 30
0.0
 40
0.2499999999999432
 50
269.99999999998698
 51
330.00000000000739
  0
LINE
  5
27E
  8
0
 10
2118.5803887639731
 20
2047.121508647951
 30
0.0
 11
2123.1180436962159
 21
2054.980955499871
 31
0.0
  0
ARC
  5
27F
  8
0
 10
2123.9840684908731
 20
2054.4809558515508
 30
0.0
 40
1.0000000000000171
 50
33.978998351199223
 51
150.00000000000111
  0
ARC
  5
280
  8
0
 10
2097.44830887957
 20
2036.5965083662491
 30
0.0
 40
33.000000000004427
 50
20.693541231200971
 51
33.978998351199238
  0
ARC
  5
281
  8
0
 10
2126.4483088795751
 20
2047.550959516351
 30
0.0
 40
1.9999999999988629
 50
0.0
 51
20.693541231212681
  0
LINE
  5
282
  8
0
 10
2128.4483083729729
 20
2047.5509591822511
 30
0.0
 11
2128.4483083729729
 21
2025.642057550351
 31
0.0
  0
ARC
  5
283
  8
0
 10
2126.4483088795728
 20
2025.642057216151
 30
0.0
 40
2.0000000000001701
 50
339.30645876880141
 51
0.0
  0
ARC
  5
284
  8
0
 10
2097.4483088795751
 20
2036.59650836625
 30
0.0
 40
32.999999999998153
 50
326.02100164888969
 51
339.30645876880033
  0
ARC
  5
285
  8
0
 10
2123.9840684908731
 20
2018.712060881051
 30
0.0
 40
0.9999999999999836
 50
210.00001242177311
 51
326.02100164879892
  0
LINE
  5
286
  8
0
 10
2123.118043804574
 20
2018.212061044951
 30
0.0
 11
2118.5803887639731
 21
2026.071508084651
 31
0.0
  0
ARC
  5
287
  8
0
 10
2118.363882614774
 20
2025.946508366251
 30
0.0
 40
0.2500000000000347
 50
30.00000000000292
 51
90.0
  0
LINE
  5
288
  8
0
 10
2118.363882342373
 20
2026.1965083379509
 30
0.0
 11
2115.4983088795739
 21
2026.196508366251
 31
0.0
  0
ARC
  5
289
  8
0
 10
2115.4983088795739
 20
2025.946508366251
 30
0.0
 40
0.2500000000000853
 50
90.000000000013031
 51
179.9999091519642
  0
LINE
  5
28A
  8
0
 10
2115.2483084444739
 20
2025.9465087626511
 30
0.0
 11
2115.2483084444739
 21
2024.446508516751
 31
0.0
  0
ARC
  5
28B
  8
0
 10
2115.4983088795739
 20
2024.446508366251
 30
0.0
 40
0.2500000000001137
 50
180.0
 51
269.99999999998039
  0
LINE
  5
28C
  8
0
 10
2115.4983089510729
 20
2024.1965080101511
 30
0.0
 11
2117.2091820482742
 21
2024.1965080101511
 31
0.0
  0
ARC
  5
28D
  8
0
 10
2117.2091820764731
 20
2023.946508366251
 30
0.0
 40
0.2500000000001266
 50
30.000059025303042
 51
89.999999999986954
  0
LINE
  5
28E
  8
0
 10
2117.425688469873
 20
2024.071508688151
 30
0.0
 11
2117.9434739301341
 21
2023.1746768676271
 31
0.0
  0
ARC
  5
28F
  8
0
 10
2117.0774488296729
 20
2022.674677042751
 30
0.0
 40
0.9999999999999482
 50
276.03051768251612
 51
30.00000000000357
  0
ARC
  5
290
  8
0
 10
2117.7498210832719
 20
2016.3100941379589
 30
0.0
 40
5.3999999999924011
 50
96.030517682198308
 51
101.77743624711739
  0
ARC
  5
291
  8
0
 10
2116.6986517688729
 20
2021.3516755438509
 30
0.0
 40
0.2500000000001152
 50
101.7774362472047
 51
195.02129299197239
  0
LINE
  5
292
  8
0
 10
2116.457194948674
 20
2021.2868811984511
 30
0.0
 11
2116.7888162836439
 21
2020.051090184588
 31
0.0
  0
ARC
  5
293
  8
0
 10
2117.2717310253738
 20
2020.180679351651
 30
0.0
 40
0.4999999999999542
 50
195.02131299379249
 51
277.0414405490078
  0
ARC
  5
294
  8
0
 10
2117.7498210832741
 20
2016.310094137951
 30
0.0
 40
3.3999999999999821
 50
345.02131299379931
 51
97.041440549000981
  0
LINE
  5
295
  8
0
 10
2121.0342952255728
 20
2015.4313311402509
 30
0.0
 11
2121.8163023413672
 21
2014.6499051694821
 31
0.0
  0
ARC
  5
296
  8
0
 10
2121.6395919910728
 20
2014.4730633041511
 30
0.0
 40
0.2500000000000006
 50
315.02140164646022
 51
45.021312993794943
  0
LINE
  5
297
  8
0
 10
2121.8164348248729
 20
2014.296352532951
 30
0.0
 11
2119.7665882502729
 21
2012.244980451851
 31
0.0
  0
ARC
  5
298
  8
0
 10
2119.589745257274
 20
2012.421690990951
 30
0.0
 40
0.2500000000000206
 50
225.0213130713316
 51
315.02131299379499
  0
LINE
  5
299
  8
0
 10
2119.4130339865728
 20
2012.2448482040511
 30
0.0
 11
2118.6310274193038
 21
2013.026273894189
 31
0.0
  0
ARC
  5
29A
  8
0
 10
2117.7498210832741
 20
2016.310094137951
 30
0.0
 40
3.3999999999999861
 50
173.0011854387005
 51
285.0213129938
  0
ARC
  5
29B
  8
0
 10
2113.8788812589728
 20
2016.7853044883509
 30
0.0
 40
0.4999999999999847
 50
353.00118543869581
 51
75.021312993799313
  0
LINE
  5
29C
  8
0
 10
2114.0081108753729
 20
2017.2683146272509
 30
0.0
 11
2112.7720739707402
 21
2017.5990179164171
 31
0.0
  0
ARC
  5
29D
  8
0
 10
2112.7074590406728
 20
2017.357512407551
 30
0.0
 40
0.2500000000000411
 50
75.021312993808934
 51
168.26518973237339
  0
ARC
  5
29E
  8
0
 10
2117.7498210832741
 20
2016.310094137951
 30
0.0
 40
5.3999999999999266
 50
168.26518974049949
 51
250.7284096168008
  0
ARC
  5
29F
  8
0
 10
2115.6375242732729
 20
2010.2687199410509
 30
0.0
 40
1.0000000000000011
 50
304.63963207989872
 51
70.728409616799325
  0
ARC
  5
2A0
  8
0
 10
2097.4483088795751
 20
2036.5965083662491
 30
0.0
 40
32.999999999997947
 50
294.95302078773233
 51
304.63963207990031
  0
ARC
  5
2A1
  8
0
 10
2110.9483088795728
 20
2007.5835802134509
 30
0.0
 40
1.000000000000056
 50
180.0
 51
294.95302078769538
  0
LINE
  5
2A2
  8
0
 10
2109.9483090658732
 20
2007.583580580751
 30
0.0
 11
2109.9483088795728
 21
2011.2965083662509
 31
0.0
  0
ARC
  5
2A3
  8
0
 10
2109.4483088795728
 20
2011.2965083662509
 30
0.0
 40
0.5
 50
0.0
 51
89.999988048083395
  0
LINE
  5
2A4
  8
0
 10
2109.4483089838732
 20
2011.7965076540511
 30
0.0
 11
2105.1983088795741
 21
2011.7965076540511
 31
0.0
  0
ARC
  5
2A5
  8
0
 10
2105.1983088795741
 20
2012.0465083662509
 30
0.0
 40
0.2500000000000568
 50
180.00004712001811
 51
269.99999999997391
  0
LINE
  5
2A6
  8
0
 10
2104.9483087119738
 20
2012.046508160651
 30
0.0
 11
2104.9483088795728
 21
2018.5465083662509
 31
0.0
  0
ARC
  5
2A7
  8
0
 10
2104.6983088795728
 20
2018.5465083662509
 30
0.0
 40
0.2500000000001137
 50
0.0
 51
89.99999999998046
  0
LINE
  5
2A8
  8
0
 10
2104.6983086709738
 20
2018.796508801451
 30
0.0
 11
2103.1983088907732
 21
2018.796508801451
 31
0.0
  0
ARC
  5
2A9
  8
0
 10
2103.1983088795728
 20
2018.5465083662509
 30
0.0
 40
0.2500000000000568
 50
90.000000000013031
 51
179.99999999998701
  0
LINE
  5
2AA
  8
0
 10
2102.9483088497732
 20
2018.546508294751
 30
0.0
 11
2102.9483088795728
 21
2018.446508366251
 31
0.0
  0
ARC
  5
2AB
  8
0
 10
2102.6983088795728
 20
2018.446508366251
 30
0.0
 40
0.2500000000000853
 50
270.00000000001302
 51
359.99999999999352
  0
LINE
  5
2AC
  8
0
 10
2102.6983088087741
 20
2018.1965079580509
 30
0.0
 11
2092.1983089503728
 21
2018.1965079580509
 31
0.0
  0
ARC
  5
2AD
  8
0
 10
2092.1983088795741
 20
2018.446508366251
 30
0.0
 40
0.2500000000000568
 50
180.0
 51
269.99999999997391
  0
LINE
  5
2AE
  8
0
 10
2091.9483089093728
 20
2018.4465084646511
 30
0.0
 11
2091.9483088795728
 21
2018.5465083662509
 31
0.0
  0
ARC
  5
2AF
  8
0
 10
2091.6983088795728
 20
2018.5465083662509
 30
0.0
 40
0.2500000000000568
 50
0.0
 51
89.999999999973952
  0
LINE
  5
2B0
  8
0
 10
2091.6983088683728
 20
2018.796508801451
 30
0.0
 11
2090.198309088174
 21
2018.796508801451
 31
0.0
  0
ARC
  5
2B1
  8
0
 10
2090.1983088795728
 20
2018.5465083662509
 30
0.0
 40
0.2500000000000568
 50
90.000000000013031
 51
179.99999999998701
  0
LINE
  5
2B2
  8
0
 10
2089.9483090471731
 20
2018.546508294751
 30
0.0
 11
2089.9483088795741
 21
2012.0465083662509
 31
0.0
  0
ARC
  5
2B3
  8
0
 10
2089.6983088795728
 20
2012.0465083662509
 30
0.0
 40
0.2500000000000568
 50
270.00002903743172
 51
359.99999999998698
  0
LINE
  5
2B4
  8
0
 10
2089.698309006274
 20
2011.7965076540511
 30
0.0
 11
2085.4483088795728
 21
2011.7965076540511
 31
0.0
  0
ARC
  5
2B5
  8
0
 10
2085.4483088795728
 20
2011.2965083662509
 30
0.0
 40
0.5
 50
90.0
 51
179.9999842895044
  0
LINE
  5
2B6
  8
0
 10
2084.9483086932728
 20
2011.2965085033511
 30
0.0
 11
2084.9483086932728
 21
2007.583580580751
 31
0.0
  0
ARC
  5
2B7
  8
0
 10
2083.9483088795728
 20
2007.5835802134509
 30
0.0
 40
1.0000000000000371
 50
245.04697921337541
 51
359.99999999999841
  0
ARC
  5
2B8
  8
0
 10
2097.4483088795769
 20
2036.5965083662561
 30
0.0
 40
33.000000000005841
 50
235.3603679201008
 51
245.04697921229911
  0
ARC
  5
2B9
  8
0
 10
2079.259093485874
 20
2010.2687199410509
 30
0.0
 40
1.0000000000000251
 50
109.27159038320001
 51
235.36036792009861
  0
ARC
  5
2BA
  8
0
 10
2077.1467966758728
 20
2016.310094137951
 30
0.0
 40
5.3999999999999932
 50
289.27159038319962
 51
11.73481025912441
  0
ARC
  5
2BB
  8
0
 10
2082.1891587184732
 20
2017.357512407551
 30
0.0
 40
0.2499999999999897
 50
11.73481025949579
 51
104.9785855416764
  0
LINE
  5
2BC
  8
0
 10
2082.1245442349741
 20
2017.5990179602511
 30
0.0
 11
2080.8885068837731
 21
2017.2683146272509
 31
0.0
  0
ARC
  5
2BD
  8
0
 10
2081.0177365001741
 20
2016.7853044883509
 30
0.0
 40
0.5000000000000842
 50
104.9786870062045
 51
186.99881456129299
  0
ARC
  5
2BE
  8
0
 10
2077.1467966758728
 20
2016.310094137951
 30
0.0
 40
3.3999999999999622
 50
254.978697517477
 51
6.9988145613008523
  0
LINE
  5
2BF
  8
0
 10
2076.2655911241741
 20
2013.0262744103511
 30
0.0
 11
2075.4835837728119
 21
2012.2448482042901
 31
0.0
  0
ARC
  5
2C0
  8
0
 10
2075.3068725018738
 20
2012.421690990951
 30
0.0
 40
0.2499999999999805
 50
224.9786870062004
 51
314.9786870062004
  0
LINE
  5
2C1
  8
0
 10
2075.130029508874
 20
2012.244980451851
 30
0.0
 11
2073.0801833272749
 21
2014.2963523788169
 31
0.0
  0
ARC
  5
2C2
  8
0
 10
2073.2570257680732
 20
2014.4730633041511
 30
0.0
 40
0.2500000000000006
 50
134.97876337357431
 51
224.97868700620509
  0
LINE
  5
2C3
  8
0
 10
2073.0803151820728
 20
2014.6499049339509
 30
0.0
 11
2073.8623221185449
 21
2015.4313307255311
 31
0.0
  0
ARC
  5
2C4
  8
0
 10
2077.1467966758728
 20
2016.310094137951
 30
0.0
 40
3.4000000000000248
 50
82.958559451000056
 51
194.97868700619949
  0
ARC
  5
2C5
  8
0
 10
2077.624886733774
 20
2020.180679351651
 30
0.0
 40
0.4999999999999516
 50
262.95855945099208
 51
344.9786268074825
  0
LINE
  5
2C6
  8
0
 10
2078.1078011934728
 20
2020.051089716351
 30
0.0
 11
2078.4394227878538
 21
2021.2868811141591
 31
0.0
  0
ARC
  5
2C7
  8
0
 10
2078.1979659902731
 20
2021.3516755438509
 30
0.0
 40
0.2500000000000156
 50
344.97868700619972
 51
78.222563750904314
  0
ARC
  5
2C8
  8
0
 10
2077.1467966758728
 20
2016.3100941379471
 30
0.0
 40
5.4000000000034696
 50
78.222563752801804
 51
83.969482317738454
  0
ARC
  5
2C9
  8
0
 10
2077.819168929474
 20
2022.674677042751
 30
0.0
 40
1.000000000000081
 50
150.00001018032799
 51
263.96948231779788
  0
LINE
  5
2CA
  8
0
 10
2076.9531437401738
 20
2023.1746767137511
 30
0.0
 11
2077.4709293317269
 21
2024.071508366251
 31
0.0
  0
ARC
  5
2CB
  8
0
 10
2077.6874356826729
 20
2023.946508366251
 30
0.0
 40
0.2500000000000568
 50
90.0
 51
149.99999999999699
  0
LINE
  5
2CC
  8
0
 10
2077.6874357108741
 20
2024.1965080101511
 30
0.0
 11
2079.398308808074
 21
2024.1965080101511
 31
0.0
  0
ARC
  5
2CD
  8
0
 10
2079.3983088795731
 20
2024.446508366251
 30
0.0
 40
0.2500000000000568
 50
270.00000000001302
 51
359.99999999998698
  0
LINE
  5
2CE
  8
0
 10
2079.648309314674
 20
2024.446508516751
 30
0.0
 11
2079.648309314674
 21
2025.946508366251
 31
0.0
  0
ARC
  5
2CF
  8
0
 10
2079.3983088795731
 20
2025.946508366251
 30
0.0
 40
0.2500000000000568
 50
0.0
 51
89.999999999973952
  0
LINE
  5
2D0
  8
0
 10
2079.398308808074
 20
2026.1965083379509
 30
0.0
 11
2076.532735416773
 21
2026.1965083379509
 31
0.0
  0
ARC
  5
2D1
  8
0
 10
2076.5327351443739
 20
2025.946508366251
 30
0.0
 40
0.2500000000001137
 50
90.000000000013031
 51
149.99999999998661
  0
LINE
  5
2D2
  8
0
 10
2076.3162289951729
 20
2026.071508084651
 30
0.0
 11
2071.7785740629738
 21
2018.212061232706
 31
0.0
  0
ARC
  5
2D3
  8
0
 10
2070.9125492682729
 20
2018.712060881051
 30
0.0
 40
1.0000000000000331
 50
213.97899835417459
 51
329.99999999999949
  0
ARC
  5
2D4
  8
0
 10
2097.4483088795769
 20
2036.5965083662529
 30
0.0
 40
33.00000000000324
 50
200.69354123120081
 51
213.97899835119949
  0
ARC
  5
2D5
  8
0
 10
2068.4483088795728
 20
2025.642057216151
 30
0.0
 40
1.9999999999998861
 50
180.0
 51
200.69354123120081
  0
LINE
  5
2D6
  8
0
 10
2066.4483093861741
 20
2025.642057550351
 30
0.0
 11
2066.4483093861741
 21
2047.5509591822511
 31
0.0
  0
ARC
  5
2D7
  8
0
 10
2068.4483088795741
 20
2047.550959516351
 30
0.0
 40
2.0000000000005098
 50
159.30645876880331
 51
179.99999999999841
  0
ARC
  5
2D8
  8
0
 10
2097.4483088795741
 20
2036.5965083662511
 30
0.0
 40
33.000000000000618
 50
146.02100164879991
 51
159.30645876879981
  0
ARC
  5
2D9
  8
0
 10
2070.9125492682729
 20
2054.4809558515508
 30
0.0
 40
1.000000000000032
 50
30.000012416805681
 51
146.0210016487998
  0
LINE
  5
2DA
  8
0
 10
2071.7785739545739
 20
2054.9809556875512
 30
0.0
 11
2076.3162289951729
 21
2047.121508647951
 31
0.0
  0
ARC
  5
2DB
  8
0
 10
2076.5327351443739
 20
2047.246508366251
 30
0.0
 40
0.2499999999999428
 50
209.9999999999925
 51
270.00000000001302
  0
LINE
  5
2DC
  8
0
 10
2076.532735416773
 20
2046.9965083946511
 30
0.0
 11
2079.3983088795731
 21
2046.996508366251
 31
0.0
  0
ARC
  5
2DD
  8
0
 10
2079.3983088795731
 20
2047.246508366251
 30
0.0
 40
0.2500000000001137
 50
270.00000000002598
 51
359.99990917486662
  0
LINE
  5
2DE
  8
0
 10
2079.648309314674
 20
2047.2465079699509
 30
0.0
 11
2079.648309314674
 21
2048.746508215751
 31
0.0
  0
ARC
  5
2DF
  8
0
 10
2079.3983088795731
 20
2048.746508366251
 30
0.0
 40
0.2500000000001137
 50
0.0
 51
89.999999999947889
  0
LINE
  5
2E0
  8
0
 10
2079.398308808074
 20
2048.9965087224509
 30
0.0
 11
2077.6874357108741
 21
2048.9965087224509
 31
0.0
  0
ARC
  5
2E1
  8
0
 10
2077.6874356826729
 20
2049.246508366251
 30
0.0
 40
0.2499999999999428
 50
210.00005900543769
 51
270.00000000001302
  0
LINE
  5
2E2
  8
0
 10
2077.470929289273
 20
2049.1215080444508
 30
0.0
 11
2076.9531438290569
 21
2050.018339864901
 31
0.0
  0
ARC
  5
2E3
  8
0
 10
2077.819168929474
 20
2050.518339689751
 30
0.0
 40
1.00000000000001
 50
96.030517682199203
 51
209.99999999999889
  0
ARC
  5
2E4
  8
0
 10
2077.1467966758778
 20
2056.882922594621
 30
0.0
 40
5.3999999999701087
 50
276.03051768218688
 51
281.7774362471269
  0
ARC
  5
2E5
  8
0
 10
2078.1979659902731
 20
2051.8413411887509
 30
0.0
 40
0.2500000000000062
 50
281.77743624711673
 51
15.02129299198212
  0
LINE
  5
2E6
  8
0
 10
2078.4394228104738
 20
2051.906135534151
 30
0.0
 11
2078.107801475503
 21
2053.1419265480149
 31
0.0
  0
ARC
  5
2E7
  8
0
 10
2077.6248867337731
 20
2053.0123373809511
 30
0.0
 40
0.5000000000001156
 50
15.0213129938112
 51
97.041440548986046
  0
ARC
  5
2E8
  8
0
 10
2077.1467966758728
 20
2056.8829225946511
 30
0.0
 40
3.4000000000001251
 50
165.02131299380139
 51
277.04144054899882
  0
LINE
  5
2E9
  8
0
 10
2073.8623225335732
 20
2057.7616855923511
 30
0.0
 11
2073.0803154177288
 21
2058.5431115630699
 31
0.0
  0
ARC
  5
2EA
  8
0
 10
2073.2570257680732
 20
2058.7199534284509
 30
0.0
 40
0.2500000000000005
 50
135.02140164644641
 51
225.02131299381341
  0
LINE
  5
2EB
  8
0
 10
2073.0801829342731
 20
2058.8966641996522
 30
0.0
 11
2075.130029508874
 21
2060.9480362806512
 31
0.0
  0
ARC
  5
2EC
  8
0
 10
2075.3068725018738
 20
2060.7713257416508
 30
0.0
 40
0.2500000000000005
 50
45.021313071331598
 51
135.02131299379491
  0
LINE
  5
2ED
  8
0
 10
2075.4835837725732
 20
2060.9481685285509
 30
0.0
 11
2076.2655903398431
 21
2060.166742838413
 31
0.0
  0
ARC
  5
2EE
  8
0
 10
2077.1467966758728
 20
2056.8829225946511
 30
0.0
 40
3.3999999999999431
 50
353.0011854386986
 51
105.0213129938011
  0
ARC
  5
2EF
  8
0
 10
2081.0177365001732
 20
2056.4077122442509
 30
0.0
 40
0.4999999999999283
 50
173.0011854386949
 51
255.02131299380389
  0
LINE
  5
2F0
  8
0
 10
2080.8885068837731
 20
2055.9247021053511
 30
0.0
 11
2082.1245437884072
 21
2055.5939988161849
 31
0.0
  0
ARC
  5
2F1
  8
0
 10
2082.1891587184732
 20
2055.8355043250508
 30
0.0
 40
0.2500000000000009
 50
255.021312993793
 51
348.26518973237722
  0
ARC
  5
2F2
  8
0
 10
2077.1467966758728
 20
2056.8829225946511
 30
0.0
 40
5.4000000000001318
 50
348.26518974050089
 51
70.728409616578631
  0
ARC
  5
2F3
  8
0
 10
2079.259093485874
 20
2062.9242967914511
 30
0.0
 40
1.0000000000000011
 50
124.6396320798986
 51
250.7284096167993
  0
ARC
  5
2F4
  8
0
 10
2097.44830887957
 20
2036.5965083662579
 30
0.0
 40
32.999999999992063
 50
114.9530207876987
 51
124.63963207990101
  0
ARC
  5
2F5
  8
0
 10
2083.9483088795728
 20
2065.6094365191511
 30
0.0
 40
1.000000000000056
 50
0.0
 51
114.953020787697
  0
LINE
  5
2F6
  8
0
 10
2084.9483086932728
 20
2065.6094361518508
 30
0.0
 11
2084.9483088795728
 21
2061.8965083662511
 31
0.0
  0
ARC
  5
2F7
  8
0
 10
2085.4483088795728
 20
2061.8965083662511
 30
0.0
 40
0.5
 50
180.0
 51
269.99998804808342
  0
LINE
  5
2F8
  8
0
 10
2085.4483087752728
 20
2061.3965090785509
 30
0.0
 11
2089.6983088795741
 21
2061.3965090785509
 31
0.0
  0
ARC
  5
2F9
  8
0
 10
2089.6983088795728
 20
2061.1465083662511
 30
0.0
 40
0.2500000000001137
 50
0.0000471429270616
 51
89.999999999947889
  0
LINE
  5
2FA
  8
0
 10
2089.9483090471731
 20
2061.146508571951
 30
0.0
 11
2089.9483088795741
 21
2054.6465083662511
 31
0.0
  0
ARC
  5
2FB
  8
0
 10
2090.1983088795741
 20
2054.6465083662511
 30
0.0
 40
0.2500000000001137
 50
180.0
 51
269.99999999994787
  0
LINE
  5
2FC
  8
0
 10
2090.198309088174
 20
2054.3965079311511
 30
0.0
 11
2091.6983088683728
 21
2054.3965079311511
 31
0.0
  0
ARC
  5
2FD
  8
0
 10
2091.6983088795728
 20
2054.6465083662511
 30
0.0
 40
0.2500000000001137
 50
270.00000000002598
 51
359.99999999997402
  0
LINE
  5
2FE
  8
0
 10
2091.9483089093728
 20
2054.646508437851
 30
0.0
 11
2091.9483088795728
 21
2054.746508366251
 31
0.0
  0
ARC
  5
2FF
  8
0
 10
2092.1983088795741
 20
2054.746508366251
 30
0.0
 40
0.2500000000001137
 50
90.000000000026048
 51
179.99999999997391
  0
LINE
  5
300
  8
0
 10
2092.1983089503728
 20
2054.9965087745509
 30
0.0
 11
2102.6983088087741
 21
2054.9965087745509
 31
0.0
  0
ARC
  5
301
  8
0
 10
2102.6983088795728
 20
2054.746508366251
 30
0.0
 40
0.2500000000001137
 50
0.0
 51
89.999999999973952
  0
LINE
  5
302
  8
0
 10
2092.1983089503728
 20
2016.196507630151
 30
0.0
 11
2097.148308865374
 21
2016.196507630151
 31
0.0
  0
LINE
  5
303
  8
0
 10
2097.148308865374
 20
2016.196507630151
 30
0.0
 11
2097.4483088795728
 21
2016.496508983251
 31
0.0
  0
LINE
  5
304
  8
0
 10
2097.4483088795728
 20
2016.496508983251
 30
0.0
 11
2097.7483088937729
 21
2016.196507630151
 31
0.0
  0
LINE
  5
305
  8
0
 10
2097.7483088937729
 20
2016.196507630151
 30
0.0
 11
2102.6983088087741
 21
2016.196507630151
 31
0.0
  0
ARC
  5
306
  8
0
 10
2102.6983088795728
 20
2015.946508366251
 30
0.0
 40
0.2500000000001137
 50
0.0
 51
89.99999999998046
  0
LINE
  5
307
  8
0
 10
2102.9483088795728
 20
2015.946508366251
 30
0.0
 11
2102.9483088497732
 21
2010.0465078328509
 31
0.0
  0
ARC
  5
308
  8
0
 10
2103.1983088795728
 20
2010.0465083662509
 30
0.0
 40
0.2500000000000568
 50
180.0001222462601
 51
269.99999999997391
  0
LINE
  5
309
  8
0
 10
2103.1983088907732
 20
2009.7965091888509
 30
0.0
 11
2107.6983091626739
 21
2009.7965091888509
 31
0.0
  0
ARC
  5
30A
  8
0
 10
2107.6983088795728
 20
2009.5465083662509
 30
0.0
 40
0.2500000000001137
 50
0.0
 51
89.999935118464535
  0
LINE
  5
30B
  8
0
 10
2107.9483088795728
 20
2009.5465083662509
 30
0.0
 11
2107.948308737974
 21
2005.8465075169511
 31
0.0
  0
ARC
  5
30C
  8
0
 10
2107.6983088795728
 20
2005.8465083662511
 30
0.0
 40
0.2500000000000853
 50
270.00000000001302
 51
359.99980535465602
  0
LINE
  5
30D
  8
0
 10
2107.6983088795741
 20
2005.5965088729511
 30
0.0
 11
2102.9983087648739
 21
2005.5965088729511
 31
0.0
  0
ARC
  5
30E
  8
0
 10
2102.998308879573
 20
2005.3465083662511
 30
0.0
 40
0.2500000000000568
 50
90.000026287266778
 51
179.99999999998701
  0
LINE
  5
30F
  8
0
 10
2102.748308879573
 20
2005.3465083662511
 30
0.0
 11
2102.7483087238738
 21
2003.8465090517509
 31
0.0
  0
ARC
  5
310
  8
0
 10
2102.998308879573
 20
2003.8465083662511
 30
0.0
 40
0.2500000000000568
 50
180.0
 51
269.99999999997391
  0
LINE
  5
311
  8
0
 10
2102.998308879573
 20
2003.5965083662511
 30
0.0
 11
2108.218638153774
 21
2003.596508545151
 31
0.0
  0
ARC
  5
312
  8
0
 10
2108.2186384938741
 20
2008.59650836625
 30
0.0
 40
4.9999999999989759
 50
269.99999999999812
 51
291.03946978130227
  0
ARC
  5
313
  8
0
 10
2097.4483088795741
 20
2036.5965083662511
 30
0.0
 40
34.999999999999538
 50
291.03946978136179
 51
338.9605302187004
  0
ARC
  5
314
  8
0
 10
2125.4483088795751
 20
2025.826178752051
 30
0.0
 40
4.9999999999989804
 50
338.96053021869739
 51
0.0000000000019984
  0
LINE
  5
315
  8
0
 10
2130.4483087007739
 20
2025.826179092051
 30
0.0
 11
2130.4483087007739
 21
2047.366837640551
 31
0.0
  0
ARC
  5
316
  8
0
 10
2125.4483088795751
 20
2047.3668379805511
 30
0.0
 40
4.9999999999989759
 50
0.0
 51
21.039469781304231
  0
ARC
  5
317
  8
0
 10
2097.4483088795741
 20
2036.5965083662511
 30
0.0
 40
34.999999999999822
 50
21.039469781361891
 51
68.960530218700058
  0
ARC
  5
318
  8
0
 10
2108.2186384938732
 20
2064.59650836625
 30
0.0
 40
5.0000000000005702
 50
68.960530219137539
 51
89.999999999999986
  0
LINE
  5
319
  8
0
 10
2108.218638153774
 20
2069.596508187451
 30
0.0
 11
2102.9983087648739
 21
2069.596508187451
 31
0.0
  0
ARC
  5
31A
  8
0
 10
2102.998308879573
 20
2069.3465083662509
 30
0.0
 40
0.2500000000001137
 50
90.000026287338855
 51
179.99999999998701
  0
LINE
  5
31B
  8
0
 10
2102.7483087238738
 20
2069.3465076808511
 30
0.0
 11
2102.7483087238738
 21
2067.8465083662509
 31
0.0
  0
ARC
  5
31C
  8
0
 10
2102.998308879573
 20
2067.8465083662509
 30
0.0
 40
0.2500000000001137
 50
180.0
 51
269.99999999994787
  0
LINE
  5
31D
  8
0
 10
2102.998308879573
 20
2067.596507859651
 30
0.0
 11
2107.6983091626739
 21
2067.596507859651
 31
0.0
  0
ARC
  5
31E
  8
0
 10
2107.6983088795728
 20
2067.3465083662509
 30
0.0
 40
0.2500000000001137
 50
0.0
 51
89.999935118113072
  0
LINE
  5
31F
  8
0
 10
2107.9483088795728
 20
2067.3465083662509
 30
0.0
 11
2107.948308737974
 21
2063.6465080503508
 31
0.0
  0
ARC
  5
320
  8
0
 10
2107.6983088795728
 20
2063.6465083662511
 30
0.0
 40
0.2500000000001137
 50
270.00000000001302
 51
359.99992760099337
  0
LINE
  5
321
  8
0
 10
2107.6983088795741
 20
2063.3965075437509
 30
0.0
 11
2103.1983088907732
 21
2063.3965075437509
 31
0.0
  0
ARC
  5
322
  8
0
 10
2103.1983088795728
 20
2063.1465083662511
 30
0.0
 40
0.2499999999998863
 50
89.999999999986969
 51
180.00000000001299
  0
LINE
  5
323
  8
0
 10
2102.9483088795728
 20
2063.1465083662511
 30
0.0
 11
2102.9483088497732
 21
2057.2465077464522
 31
0.0
  0
ARC
  5
324
  8
0
 10
2102.6983088795728
 20
2057.246508366251
 30
0.0
 40
0.2500000000001137
 50
270.00000000001302
 51
359.99985795227229
  0
LINE
  5
325
  8
0
 10
2102.6983088087741
 20
2056.996509102451
 30
0.0
 11
2097.7483088937729
 21
2056.996509102451
 31
0.0
  0
LINE
  5
326
  8
0
 10
2097.7483088937729
 20
2056.996509102451
 30
0.0
 11
2097.4483088795728
 21
2056.696507749351
 31
0.0
  0
LINE
  5
327
  8
0
 10
2097.4483088795728
 20
2056.696507749351
 30
0.0
 11
2097.148308865374
 21
2056.996509102451
 31
0.0
  0
LINE
  5
328
  8
0
 10
2097.148308865374
 20
2056.996509102451
 30
0.0
 11
2092.1983089503728
 21
2056.996509102451
 31
0.0
  0
ARC
  5
329
  8
0
 10
2092.1983088795741
 20
2057.246508366251
 30
0.0
 40
0.2500000000001137
 50
180.0
 51
269.99999999994787
  0
LINE
  5
32A
  8
0
 10
2091.9483088795728
 20
2057.246508366251
 30
0.0
 11
2091.9483089093728
 21
2063.1465088997511
 31
0.0
  0
ARC
  5
32B
  8
0
 10
2091.6983088795728
 20
2063.1465083662511
 30
0.0
 40
0.2500000000001137
 50
0.0001222691755882
 51
89.999999999947889
  0
LINE
  5
32C
  8
0
 10
2091.6983088683728
 20
2063.3965075437509
 30
0.0
 11
2087.1983085964739
 21
2063.3965075437509
 31
0.0
  0
ARC
  5
32D
  8
0
 10
2087.1983088795728
 20
2063.6465083662511
 30
0.0
 40
0.2500000000001137
 50
180.0
 51
269.99993511843189
  0
LINE
  5
32E
  8
0
 10
2086.9483088795728
 20
2063.6465083662511
 30
0.0
 11
2086.9483090211738
 21
2067.3465092156512
 31
0.0
  0
ARC
  5
32F
  8
0
 10
2087.1983088795741
 20
2067.3465083662509
 30
0.0
 40
0.2500000000001137
 50
90.000000000026048
 51
179.999805331734
  0
LINE
  5
330
  8
0
 10
2087.1983088795741
 20
2067.596507859651
 30
0.0
 11
2091.898308994274
 21
2067.596507859651
 31
0.0
  0
ARC
  5
331
  8
0
 10
2091.8983088795731
 20
2067.8465083662509
 30
0.0
 40
0.2500000000001137
 50
270.00002628727981
 51
359.99999999997402
  0
LINE
  5
332
  8
0
 10
2092.148308879574
 20
2067.8465083662509
 30
0.0
 11
2092.148309035274
 21
2069.3465076808511
 31
0.0
  0
ARC
  5
333
  8
0
 10
2091.8983088795731
 20
2069.3465083662509
 30
0.0
 40
0.2499999999998863
 50
0.0
 51
90.000000000026048
  0
LINE
  5
334
  8
0
 10
2091.8983088795731
 20
2069.5965083662509
 30
0.0
 11
2086.6779796053738
 21
2069.596508187451
 31
0.0
  0
ARC
  5
335
  8
0
 10
2086.6779792652728
 20
2064.59650836625
 30
0.0
 40
5.0000000000005684
 50
90.0
 51
111.0394697812973
  0
ARC
  5
336
  8
0
 10
2097.4483088795728
 20
2036.5965083662511
 30
0.0
 40
34.999999999999822
 50
111.039469781362
 51
158.9605302187002
  0
ARC
  5
337
  8
0
 10
2069.4483088795719
 20
2047.3668379805511
 30
0.0
 40
4.9999999999989697
 50
158.96053021913241
 51
180.00000000000199
  0
LINE
  5
338
  8
0
 10
2064.448309058374
 20
2047.366837640551
 30
0.0
 11
2064.448309058374
 21
2025.826179092051
 31
0.0
  0
ARC
  5
339
  8
0
 10
2069.4483088795719
 20
2025.826178752051
 30
0.0
 40
4.9999999999986917
 50
180.0
 51
201.03946978130551
  0
ARC
  5
33A
  8
0
 10
2097.4483088795728
 20
2036.5965083662511
 30
0.0
 40
35.000000000000142
 50
201.03946978130011
 51
248.96053021869989
  0
ARC
  5
33B
  8
0
 10
2086.6779792652742
 20
2008.596508366252
 30
0.0
 40
5.000000000000604
 50
248.96053021913539
 51
269.99999999999812
  0
LINE
  5
33C
  8
0
 10
2086.6779796053738
 20
2003.596508545151
 30
0.0
 11
2091.898308994274
 21
2003.596508545151
 31
0.0
  0
ARC
  5
33D
  8
0
 10
2091.8983088795731
 20
2003.8465083662511
 30
0.0
 40
0.2500000000000568
 50
270.00002628733893
 51
359.99999999998698
  0
LINE
  5
33E
  8
0
 10
2092.148309035274
 20
2003.8465090517509
 30
0.0
 11
2092.148309035274
 21
2005.3465083662511
 31
0.0
  0
ARC
  5
33F
  8
0
 10
2091.8983088795731
 20
2005.3465083662511
 30
0.0
 40
0.2500000000000568
 50
0.0
 51
89.999999999973952
  0
LINE
  5
340
  8
0
 10
2091.8983088795731
 20
2005.5965088729511
 30
0.0
 11
2087.1983085964739
 21
2005.5965088729511
 31
0.0
  0
ARC
  5
341
  8
0
 10
2087.1983088795728
 20
2005.8465083662511
 30
0.0
 40
0.2500000000000568
 50
180.0
 51
269.99993511808702
  0
LINE
  5
342
  8
0
 10
2086.9483088795728
 20
2005.8465083662511
 30
0.0
 11
2086.9483090211738
 21
2009.5465086821509
 31
0.0
  0
ARC
  5
343
  8
0
 10
2087.1983088795728
 20
2009.5465083662509
 30
0.0
 40
0.2500000000000568
 50
90.000000000013031
 51
179.9999276009998
  0
LINE
  5
344
  8
0
 10
2087.1983088795741
 20
2009.7965091888509
 30
0.0
 11
2091.6983088683728
 21
2009.7965091888509
 31
0.0
  0
ARC
  5
345
  8
0
 10
2091.6983088795728
 20
2010.0465083662509
 30
0.0
 40
0.2500000000000568
 50
270.00000000001302
 51
359.99999999998698
  0
LINE
  5
346
  8
0
 10
2091.9483088795728
 20
2010.0465083662509
 30
0.0
 11
2091.9483089093728
 21
2015.946508986151
 31
0.0
  0
ARC
  5
347
  8
0
 10
2092.1983088795741
 20
2015.946508366251
 30
0.0
 40
0.2500000000000568
 50
90.000000000013031
 51
179.99985792936329
  0
ENDSEC
  0
EOF
