  0
SECTION
  2
HEADER
  9
$ACADVER
  1
AC1009
  9
$INSBASE
 10
0.0
 20
0.0
 30
0.0
  9
$EXTMIN
 10
1594.081524830583
 20
1569.1352081120581
 30
-0.0015258207003583
  9
$EXTMAX
 10
1752.904743809338
 20
1761.8170219092081
 30
0.0000000349246037
  9
$LIMMIN
 10
0.0
 20
0.0
  9
$LIMMAX
 10
420.0
 20
297.0
  9
$ORTHOMODE
 70
     0
  9
$REGENMODE
 70
     1
  9
$FILLMODE
 70
     1
  9
$QTEXTMODE
 70
     0
  9
$MIRRTEXT
 70
     0
  9
$DRAGMODE
 70
     2
  9
$LTSCALE
 40
1.0
  9
$OSMODE
 70
  4095
  9
$ATTMODE
 70
     1
  9
$TEXTSIZE
 40
2.5
  9
$TRACEWID
 40
1.0
  9
$TEXTSTYLE
  7
STANDARD
  9
$CLAYER
  8
0
  9
$CELTYPE
  6
BYLAYER
  9
$CECOLOR
 62
   256
  9
$DIMSCALE
 40
1.0
  9
$DIMASZ
 40
2.5
  9
$DIMEXO
 40
0.625
  9
$DIMDLI
 40
3.75
  9
$DIMRND
 40
0.0
  9
$DIMDLE
 40
0.0
  9
$DIMEXE
 40
1.25
  9
$DIMTP
 40
0.0
  9
$DIMTM
 40
0.0
  9
$DIMTXT
 40
2.5
  9
$DIMCEN
 40
2.5
  9
$DIMTSZ
 40
0.0
  9
$DIMTOL
 70
     0
  9
$DIMLIM
 70
     0
  9
$DIMTIH
 70
     0
  9
$DIMTOH
 70
     0
  9
$DIMSE1
 70
     0
  9
$DIMSE2
 70
     0
  9
$DIMTAD
 70
     1
  9
$DIMZIN
 70
     8
  9
$DIMBLK
  1

  9
$DIMASO
 70
     1
  9
$DIMSHO
 70
     1
  9
$DIMPOST
  1

  9
$DIMAPOST
  1

  9
$DIMALT
 70
     0
  9
$DIMALTD
 70
     3
  9
$DIMALTF
 40
0.03937007874016
  9
$DIMLFAC
 40
1.0
  9
$DIMTOFL
 70
     1
  9
$DIMTVP
 40
0.0
  9
$DIMTIX
 70
     0
  9
$DIMSOXD
 70
     0
  9
$DIMSAH
 70
     0
  9
$DIMBLK1
  1

  9
$DIMBLK2
  1

  9
$DIMSTYLE
  2
ISO-25
  9
$DIMCLRD
 70
     0
  9
$DIMCLRE
 70
     0
  9
$DIMCLRT
 70
     0
  9
$DIMTFAC
 40
1.0
  9
$DIMGAP
 40
0.625
  9
$LUNITS
 70
     2
  9
$LUPREC
 70
     4
  9
$SKETCHINC
 40
1.0
  9
$FILLETRAD
 40
0.0
  9
$AUNITS
 70
     0
  9
$AUPREC
 70
     0
  9
$MENU
  1
.
  9
$ELEVATION
 40
0.0
  9
$PELEVATION
 40
0.0
  9
$THICKNESS
 40
0.0
  9
$LIMCHECK
 70
     0
  9
$BLIPMODE
 70
     0
  9
$CHAMFERA
 40
0.0
  9
$CHAMFERB
 40
0.0
  9
$SKPOLY
 70
     0
  9
$TDCREATE
 40
2457368.6689140052
  9
$TDUPDATE
 40
2457368.6697862041
  9
$TDINDWG
 40
0.0008730324
  9
$TDUSRTIMER
 40
0.0008730208
  9
$USRTIMER
 70
     1
  9
$ANGBASE
 50
0.0
  9
$ANGDIR
 70
     0
  9
$PDMODE
 70
     0
  9
$PDSIZE
 40
0.0
  9
$PLINEWID
 40
0.0
  9
$COORDS
 70
     0
  9
$SPLFRAME
 70
     0
  9
$SPLINETYPE
 70
     6
  9
$SPLINESEGS
 70
     8
  9
$ATTDIA
 70
     1
  9
$ATTREQ
 70
     1
  9
$HANDLING
 70
     1
  9
$HANDSEED
  5
5C3
  9
$SURFTAB1
 70
     6
  9
$SURFTAB2
 70
     6
  9
$SURFTYPE
 70
     6
  9
$SURFU
 70
     6
  9
$SURFV
 70
     6
  9
$UCSNAME
  2

  9
$UCSORG
 10
0.0
 20
0.0
 30
0.0
  9
$UCSXDIR
 10
1.0
 20
0.0
 30
0.0
  9
$UCSYDIR
 10
0.0
 20
1.0
 30
0.0
  9
$PUCSNAME
  2

  9
$PUCSORG
 10
0.0
 20
0.0
 30
0.0
  9
$PUCSXDIR
 10
1.0
 20
0.0
 30
0.0
  9
$PUCSYDIR
 10
0.0
 20
1.0
 30
0.0
  9
$USERI1
 70
     0
  9
$USERI2
 70
     0
  9
$USERI3
 70
     0
  9
$USERI4
 70
     0
  9
$USERI5
 70
     0
  9
$USERR1
 40
0.0
  9
$USERR2
 40
0.0
  9
$USERR3
 40
0.0
  9
$USERR4
 40
0.0
  9
$USERR5
 40
0.0
  9
$WORLDVIEW
 70
     1
  9
$SHADEDGE
 70
     3
  9
$SHADEDIF
 70
    70
  9
$TILEMODE
 70
     1
  9
$MAXACTVP
 70
    64
  9
$PLIMCHECK
 70
     0
  9
$PEXTMIN
 10
0.0
 20
0.0
 30
0.0
  9
$PEXTMAX
 10
0.0
 20
0.0
 30
0.0
  9
$PLIMMIN
 10
0.0
 20
0.0
  9
$PLIMMAX
 10
12.0
 20
9.0
  9
$UNITMODE
 70
     0
  9
$VISRETAIN
 70
     1
  9
$PLINEGEN
 70
     0
  9
$PSLTSCALE
 70
     1
  0
ENDSEC
  0
SECTION
  2
TABLES
  0
TABLE
  2
VPORT
 70
     1
  0
VPORT
  2
*ACTIVE
 70
     0
 10
0.0
 20
0.0
 11
1.0
 21
1.0
 12
1673.493134319961
 22
1665.4761150106331
 13
0.0
 23
0.0
 14
10.0
 24
10.0
 15
10.0
 25
10.0
 16
0.0
 26
0.0
 36
1.0
 17
0.0
 27
0.0
 37
0.0
 40
194.21305999951119
 41
2.3289124668435011
 42
50.0
 43
0.0
 44
0.0
 50
0.0
 51
0.0
 71
     0
 72
  1000
 73
     1
 74
     3
 75
     0
 76
     1
 77
     0
 78
     0
  0
ENDTAB
  0
TABLE
  2
LTYPE
 70
     1
  0
LTYPE
  2
CONTINUOUS
 70
     0
  3
Solid line
 72
    65
 73
     0
 40
0.0
  0
ENDTAB
  0
TABLE
  2
LAYER
 70
     1
  0
LAYER
  2
0
 70
     0
 62
     7
  6
CONTINUOUS
  0
ENDTAB
  0
TABLE
  2
STYLE
 70
     5
  0
STYLE
  2
STANDARD
 70
     0
 40
0.0
 41
1.0
 50
0.0
 71
     0
 42
2.5
  3
txt
  4

  0
STYLE
  2
ANNOTATIVE
 70
     0
 40
0.0
 41
1.0
 50
0.0
 71
     0
 42
2.5
  3
txt
  4

  0
STYLE
  2
BSMOL
 70
     0
 40
0.0
 41
0.8
 50
0.0
 71
     0
 42
2.5
  3
dim.shx
  4

  0
STYLE
  2
TROMANS
 70
     0
 40
0.0
 41
0.65
 50
0.0
 71
     0
 42
60.0
  3
romans.shx
  4

  0
STYLE
  2
ROMANT
 70
     0
 40
1.8999999999999999
 41
1.0
 50
0.0
 71
     0
 42
2.5
  3
romant.shx
  4

  0
ENDTAB
  0
TABLE
  2
VIEW
 70
     2
  0
ENDTAB
  0
TABLE
  2
UCS
 70
     0
  0
ENDTAB
  0
TABLE
  2
APPID
 70
    11
  0
APPID
  2
ACAD
 70
     0
  0
APPID
  2
ACAD_PSEXT
 70
     0
  0
APPID
  2
ACADANNOPO
 70
     0
  0
APPID
  2
ACADANNOTATIVE
 70
     0
  0
APPID
  2
ACAD_DSTYLE_DIMJAG
 70
     0
  0
APPID
  2
ACAD_DSTYLE_DIMTALN
 70
     0
  0
APPID
  2
ACAD_MLEADERVER
 70
     0
  0
APPID
  2
ACAD_NAV_VCDISPLAY
 70
     0
  0
APPID
  2
GRADIENTCOLOR1ACI
 70
     0
  0
APPID
  2
GRADIENTCOLOR2ACI
 70
     0
  0
APPID
  2
ACAD_DSTYLE_DIMBREAK
 70
     0
  0
ENDTAB
  0
TABLE
  2
DIMSTYLE
 70
     7
  0
DIMSTYLE
  2
STANDARD
 70
     0
  3

  4

  5

  6

  7

 40
1.0
 41
0.18
 42
0.0625
 43
0.38
 44
0.18
 45
0.0
 46
0.0
 47
0.0
 48
0.0
140
0.18
141
0.09
142
0.0
143
25.399999999999999
144
1.0
145
0.0
146
1.0
147
0.09
 71
     0
 72
     0
 73
     1
 74
     1
 75
     0
 76
     0
 77
     0
 78
     0
170
     0
171
     2
172
     0
173
     0
174
     0
175
     0
176
     0
177
     0
178
     0
  0
DIMSTYLE
  2
ANNOTATIVE
 70
     0
  3

  4

  5

  6

  7

 40
0.0
 41
2.5
 42
0.625
 43
3.75
 44
1.25
 45
0.0
 46
0.0
 47
0.0
 48
0.0
140
2.5
141
2.5
142
0.0
143
0.03937007874016
144
1.0
145
0.0
146
1.0
147
0.625
 71
     0
 72
     0
 73
     0
 74
     0
 75
     0
 76
     0
 77
     1
 78
     8
170
     0
171
     3
172
     1
173
     0
174
     0
175
     0
176
     0
177
     0
178
     0
  0
DIMSTYLE
  2
ISO-25
 70
     0
  3

  4

  5

  6

  7

 40
1.0
 41
2.5
 42
0.625
 43
3.75
 44
1.25
 45
0.0
 46
0.0
 47
0.0
 48
0.0
140
2.5
141
2.5
142
0.0
143
0.03937007874016
144
1.0
145
0.0
146
1.0
147
0.625
 71
     0
 72
     0
 73
     0
 74
     0
 75
     0
 76
     0
 77
     1
 78
     8
170
     0
171
     3
172
     1
173
     0
174
     0
175
     0
176
     0
177
     0
178
     0
  0
DIMSTYLE
  2
1-2
 70
     0
  3

  4

  5
OBLIQUE
  6

  7

 40
2.0
 41
1.0
 42
1.0
 43
0.0
 44
1.0
 45
0.5
 46
0.5
 47
0.0
 48
0.0
140
2.0
141
1.0
142
0.0
143
0.0394
144
1.0
145
1.0
146
1.0
147
1.0
 71
     0
 72
     0
 73
     0
 74
     1
 75
     0
 76
     0
 77
     1
 78
    12
170
     0
171
     4
172
     0
173
     0
174
     0
175
     0
176
   256
177
   256
178
     3
  0
DIMSTYLE
  2
1-5
 70
     0
  3

  4

  5
OBLIQUE
  6

  7

 40
5.0
 41
1.0
 42
1.0
 43
0.0
 44
1.0
 45
0.0
 46
0.5
 47
0.0
 48
0.0
140
2.0
141
1.0
142
0.0
143
0.0394
144
1.0
145
1.0
146
1.0
147
1.0
 71
     0
 72
     0
 73
     0
 74
     1
 75
     0
 76
     0
 77
     1
 78
    12
170
     0
171
     4
172
     0
173
     0
174
     0
175
     0
176
   256
177
   256
178
     3
  0
DIMSTYLE
  2
2-1
 70
     0
  3

  4

  5

  6

  7

 40
0.5
 41
1.0
 42
0.5
 43
0.5
 44
0.5
 45
0.0
 46
0.5
 47
0.0
 48
0.0
140
2.7000000000000002
141
0.0
142
0.0
143
25.399999999999999
144
1.0
145
0.0
146
1.0
147
0.4
 71
     0
 72
     0
 73
     0
 74
     0
 75
     0
 76
     0
 77
     1
 78
     8
170
     0
171
     2
172
     0
173
     0
174
     0
175
     0
176
   256
177
   256
178
     3
  0
DIMSTYLE
  2
MELÝH_A3
 70
     0
  3

  4

  5

  6

  7

 40
1.0
 41
1.3
 42
0.0
 43
3.75
 44
0.2
 45
0.0
 46
0.0
 47
0.0
 48
0.0
140
1.0
141
0.2
142
0.0
143
0.03937007874016
144
1.0
145
0.0
146
1.0
147
0.7
 71
     0
 72
     0
 73
     0
 74
     0
 75
     0
 76
     0
 77
     1
 78
     8
170
     0
171
     3
172
     0
173
     0
174
     0
175
     0
176
   242
177
   242
178
   242
  0
ENDTAB
  0
ENDSEC
  0
SECTION
  2
BLOCKS
  0
BLOCK
  8
0
  2
$MODEL_SPACE
 70
     0
 10
0.0
 20
0.0
 30
0.0
  3
$MODEL_SPACE
  1

  0
ENDBLK
  5
21
  8
0
  0
BLOCK
 67
     1
  8
0
  2
$PAPER_SPACE
 70
     0
 10
0.0
 20
0.0
 30
0.0
  3
$PAPER_SPACE
  1

  0
ENDBLK
  5
D5
 67
     1
  8
0
  0
BLOCK
  8
0
  2
_OBLIQUE
 70
     0
 10
0.0
 20
0.0
 30
0.0
  3
_OBLIQUE
  1

  0
LINE
  5
25B
  8
0
  6
BYBLOCK
 62
     0
 10
-0.5
 20
-0.5
 30
0.0
 11
0.5
 21
0.5
 31
0.0
  0
ENDBLK
  5
25C
  8
0
  0
BLOCK
  8
0
  2
*X3
 70
     1
 10
0.0
 20
0.0
 30
0.0
  3
*X3
  1

  0
LINE
  5
33B
  8
0
 62
     0
 10
114.02130197052369
 20
3.700202000613217
 30
0.0
 11
114.1746344930732
 21
3.853534523162693
 31
0.0
  0
LINE
  5
33C
  8
0
 62
     0
 10
113.1232763584169
 20
3.700202000613217
 30
0.0
 11
114.1746344930733
 21
4.7515601352696422
 31
0.0
  0
LINE
  5
33D
  8
0
 62
     0
 10
112.2252507463099
 20
3.700202000613217
 30
0.0
 11
114.1746344930733
 21
5.64958574737659
 31
0.0
  0
LINE
  5
33E
  8
0
 62
     0
 10
111.327225134203
 20
3.7002020006131029
 30
0.0
 11
114.1746344930733
 21
6.5476113594834251
 31
0.0
  0
LINE
  5
33F
  8
0
 62
     0
 10
110.4291995220961
 20
3.7002020006131029
 30
0.0
 11
114.1746344930732
 21
7.4456369715902611
 31
0.0
  0
LINE
  5
340
  8
0
 62
     0
 10
112.174634493073
 20
6.3436625836970961
 30
0.0
 11
114.1746344930732
 21
8.3436625836972098
 31
0.0
  0
LINE
  5
341
  8
0
 62
     0
 10
109.53117390998921
 20
3.700202000613217
 30
0.0
 11
111.6645072433231
 21
5.8335353339471112
 31
0.0
  0
LINE
  5
342
  8
0
 62
     0
 10
112.1746344930729
 20
7.2416881958039312
 30
0.0
 11
114.1746344930732
 21
9.2416881958041586
 31
0.0
  0
LINE
  5
343
  8
0
 62
     0
 10
108.6331482978821
 20
3.7002020006129892
 30
0.0
 11
110.766481631216
 21
5.8335353339469966
 31
0.0
  0
LINE
  5
344
  8
0
 62
     0
 10
112.1746344930729
 20
8.1397138079108782
 30
0.0
 11
114.1746344930732
 21
10.139713807911111
 31
0.0
  0
LINE
  5
345
  8
0
 62
     0
 10
107.73512268577529
 20
3.700202000613217
 30
0.0
 11
109.8684560191091
 21
5.8335353339469966
 31
0.0
  0
LINE
  5
346
  8
0
 62
     0
 10
112.174634493073
 20
9.0377394200178287
 30
0.0
 11
114.1746344930733
 21
11.037739420017941
 31
0.0
  0
LINE
  5
347
  8
0
 62
     0
 10
106.8370970736685
 20
3.700202000613217
 30
0.0
 11
108.9704304070025
 21
5.833535333947224
 31
0.0
  0
LINE
  5
348
  8
0
 62
     0
 10
112.174634493073
 20
9.9357650321247775
 30
0.0
 11
114.1746344930732
 21
11.935765032124889
 31
0.0
  0
LINE
  5
349
  8
0
 62
     0
 10
105.9390714615616
 20
3.700202000613217
 30
0.0
 11
108.0724047948955
 21
5.833535333947224
 31
0.0
  0
LINE
  5
34A
  8
0
 62
     0
 10
112.174634493073
 20
10.833790644231611
 30
0.0
 11
114.1746344930732
 21
12.833790644231719
 31
0.0
  0
LINE
  5
34B
  8
0
 62
     0
 10
105.0410458494547
 20
3.700202000613217
 30
0.0
 11
107.1743791827884
 21
5.8335353339469966
 31
0.0
  0
LINE
  5
34C
  8
0
 62
     0
 10
112.1746344930729
 20
11.73181625633844
 30
0.0
 11
114.1746344930732
 21
13.73181625633867
 31
0.0
  0
LINE
  5
34D
  8
0
 62
     0
 10
104.1430202373476
 20
3.7002020006129892
 30
0.0
 11
106.27635357068149
 21
5.8335353339469966
 31
0.0
  0
LINE
  5
34E
  8
0
 62
     0
 10
112.1746344930729
 20
12.629841868445389
 30
0.0
 11
114.1746344930732
 21
14.62984186844562
 31
0.0
  0
LINE
  5
34F
  8
0
 62
     0
 10
103.24499462524069
 20
3.7002020006131029
 30
0.0
 11
105.3783279585746
 21
5.8335353339469966
 31
0.0
  0
LINE
  5
350
  8
0
 62
     0
 10
112.174634493073
 20
13.527867480552461
 30
0.0
 11
114.1746344930732
 21
15.527867480552461
 31
0.0
  0
LINE
  5
351
  8
0
 62
     0
 10
102.3469690131337
 20
3.7002020006131029
 30
0.0
 11
104.4803023464676
 21
5.8335353339469966
 31
0.0
  0
LINE
  5
352
  8
0
 62
     0
 10
112.174634493073
 20
14.4258930926594
 30
0.0
 11
114.1746344930731
 21
16.425893092659411
 31
0.0
  0
LINE
  5
353
  8
0
 62
     0
 10
101.44894340102699
 20
3.7002020006133298
 30
0.0
 11
103.5822767343606
 21
5.8335353339469966
 31
0.0
  0
LINE
  5
354
  8
0
 62
     0
 10
112.1746344930732
 20
15.323918704766349
 30
0.0
 11
114.1746344930732
 21
17.323918704766349
 31
0.0
  0
LINE
  5
355
  8
0
 62
     0
 10
100.5509177889202
 20
3.7002020006133298
 30
0.0
 11
102.6842511222539
 21
5.8335353339471112
 31
0.0
  0
LINE
  5
356
  8
0
 62
     0
 10
112.1746344930732
 20
16.221944316873302
 30
0.0
 11
114.1746344930732
 21
18.221944316873302
 31
0.0
  0
LINE
  5
357
  8
0
 62
     0
 10
99.652892176813111
 20
3.700202000613217
 30
0.0
 11
101.78622551014701
 21
5.8335353339471112
 31
0.0
  0
LINE
  5
358
  8
0
 62
     0
 10
112.1746344930732
 20
17.11996992898014
 30
0.0
 11
114.1746344930732
 21
19.11996992898014
 31
0.0
  0
LINE
  5
359
  8
0
 62
     0
 10
98.754866564706163
 20
3.7002020006131029
 30
0.0
 11
100.88819989804
 21
5.8335353339469966
 31
0.0
  0
LINE
  5
35A
  8
0
 62
     0
 10
112.174634493073
 20
18.017995541086972
 30
0.0
 11
114.1746344930732
 21
20.017995541086979
 31
0.0
  0
LINE
  5
35B
  8
0
 62
     0
 10
97.856840952599214
 20
3.7002020006131029
 30
0.0
 11
99.990174285933122
 21
5.8335353339469966
 31
0.0
  0
LINE
  5
35C
  8
0
 62
     0
 10
112.174634493073
 20
18.91602115319392
 30
0.0
 11
114.1746344930731
 21
20.916021153193931
 31
0.0
  0
LINE
  5
35D
  8
0
 62
     0
 10
96.958815340492265
 20
3.7002020006131029
 30
0.0
 11
99.092148673826145
 21
5.8335353339469966
 31
0.0
  0
LINE
  5
35E
  8
0
 62
     0
 10
112.174634493073
 20
19.814046765300869
 30
0.0
 11
114.1746344930733
 21
21.81404676530099
 31
0.0
  0
LINE
  5
35F
  8
0
 62
     0
 10
96.060789728385316
 20
3.7002020006131029
 30
0.0
 11
98.194123061719324
 21
5.8335353339471112
 31
0.0
  0
LINE
  5
360
  8
0
 62
     0
 10
112.1746344930732
 20
20.712072377407821
 30
0.0
 11
114.1746344930733
 21
22.712072377407939
 31
0.0
  0
LINE
  5
361
  8
0
 62
     0
 10
95.162764116278595
 20
3.700202000613217
 30
0.0
 11
97.296097449612489
 21
5.8335353339471112
 31
0.0
  0
LINE
  5
362
  8
0
 62
     0
 10
112.1746344930732
 20
21.61009798951477
 30
0.0
 11
114.1746344930733
 21
23.610097989514891
 31
0.0
  0
LINE
  5
363
  8
0
 62
     0
 10
94.264738504171646
 20
3.700202000613217
 30
0.0
 11
96.398071837505555
 21
5.8335353339471112
 31
0.0
  0
LINE
  5
364
  8
0
 62
     0
 10
112.174634493073
 20
22.508123601621609
 30
0.0
 11
114.1746344930733
 21
24.50812360162184
 31
0.0
  0
LINE
  5
365
  8
0
 62
     0
 10
93.366712892064683
 20
3.700202000613217
 30
0.0
 11
95.500046225398592
 21
5.8335353339471112
 31
0.0
  0
LINE
  5
366
  8
0
 62
     0
 10
112.174634493073
 20
23.40614921372844
 30
0.0
 11
114.1746344930733
 21
25.406149213728671
 31
0.0
  0
LINE
  5
367
  8
0
 62
     0
 10
92.468687279957734
 20
3.7002020006131029
 30
0.0
 11
94.602020613291643
 21
5.8335353339469966
 31
0.0
  0
LINE
  5
368
  8
0
 62
     0
 10
112.174634493073
 20
24.304174825835389
 30
0.0
 11
114.1746344930733
 21
26.304174825835499
 31
0.0
  0
LINE
  5
369
  8
0
 62
     0
 10
91.5706616678508
 20
3.7002020006131029
 30
0.0
 11
93.703995001184794
 21
5.8335353339471112
 31
0.0
  0
LINE
  5
36A
  8
0
 62
     0
 10
112.174634493073
 20
25.202200437942341
 30
0.0
 11
114.1746344930732
 21
27.202200437942452
 31
0.0
  0
LINE
  5
36B
  8
0
 62
     0
 10
90.672636055743965
 20
3.700202000613217
 30
0.0
 11
92.805969389077859
 21
5.8335353339471112
 31
0.0
  0
LINE
  5
36C
  8
0
 62
     0
 10
112.174634493073
 20
26.10022605004918
 30
0.0
 11
114.1746344930732
 21
28.1002260500494
 31
0.0
  0
LINE
  5
36D
  8
0
 62
     0
 10
89.774610443637016
 20
3.700202000613217
 30
0.0
 11
91.907943776970797
 21
5.8335353339469966
 31
0.0
  0
LINE
  5
36E
  8
0
 62
     0
 10
112.174634493073
 20
26.998251662156122
 30
0.0
 11
114.1746344930733
 21
28.998251662156349
 31
0.0
  0
LINE
  5
36F
  8
0
 62
     0
 10
88.876584831530181
 20
3.700202000613217
 30
0.0
 11
91.009918164863976
 21
5.8335353339469966
 31
0.0
  0
LINE
  5
370
  8
0
 62
     0
 10
112.174634493073
 20
27.89627727426307
 30
0.0
 11
114.1746344930733
 21
29.896277274263301
 31
0.0
  0
LINE
  5
371
  8
0
 62
     0
 10
87.978559219423232
 20
3.700202000613217
 30
0.0
 11
90.111892552757126
 21
5.8335353339471112
 31
0.0
  0
LINE
  5
372
  8
0
 62
     0
 10
112.1746344930732
 20
28.79430288637014
 30
0.0
 11
114.1746344930733
 21
30.794302886370129
 31
0.0
  0
LINE
  5
373
  8
0
 62
     0
 10
87.080533607316283
 20
3.700202000613217
 30
0.0
 11
89.213866940650291
 21
5.833535333947224
 31
0.0
  0
LINE
  5
374
  8
0
 62
     0
 10
112.174634493073
 20
29.692328498476851
 30
0.0
 11
114.1746344930732
 21
31.692328498476972
 31
0.0
  0
LINE
  5
375
  8
0
 62
     0
 10
86.182507995209448
 20
3.700202000613217
 30
0.0
 11
88.315841328543343
 21
5.8335353339471112
 31
0.0
  0
LINE
  5
376
  8
0
 62
     0
 10
112.1746344930732
 20
30.59035411058392
 30
0.0
 11
114.1746344930732
 21
32.590354110583917
 31
0.0
  0
LINE
  5
377
  8
0
 62
     0
 10
85.2844823831025
 20
3.700202000613217
 30
0.0
 11
87.41781571643628
 21
5.8335353339469966
 31
0.0
  0
LINE
  5
378
  8
0
 62
     0
 10
112.1746344930732
 20
31.488379722690869
 30
0.0
 11
114.1746344930732
 21
33.488379722690873
 31
0.0
  0
LINE
  5
379
  8
0
 62
     0
 10
84.386456770995423
 20
3.7002020006131029
 30
0.0
 11
86.519790104329331
 21
5.8335353339469966
 31
0.0
  0
LINE
  5
37A
  8
0
 62
     0
 10
112.1746344930732
 20
32.386405334797701
 30
0.0
 11
114.1746344930732
 21
34.386405334797821
 31
0.0
  0
LINE
  5
37B
  8
0
 62
     0
 10
83.488431158888488
 20
3.7002020006131029
 30
0.0
 11
85.621764492222383
 21
5.8335353339469966
 31
0.0
  0
LINE
  5
37C
  8
0
 62
     0
 10
112.1746344930732
 20
33.284430946904649
 30
0.0
 11
114.1746344930733
 21
35.284430946904649
 31
0.0
  0
LINE
  5
37D
  8
0
 62
     0
 10
82.590405546781767
 20
3.700202000613217
 30
0.0
 11
84.723738880115548
 21
5.8335353339469966
 31
0.0
  0
LINE
  5
37E
  8
0
 62
     0
 10
112.1746344930732
 20
34.182456559011598
 30
0.0
 11
114.1746344930732
 21
36.182456559011598
 31
0.0
  0
LINE
  5
37F
  8
0
 62
     0
 10
81.692379934674932
 20
3.7002020006133298
 30
0.0
 11
83.825713268008826
 21
5.833535333947224
 31
0.0
  0
LINE
  5
380
  8
0
 62
     0
 10
112.1746344930732
 20
35.080482171118547
 30
0.0
 11
114.1746344930732
 21
37.080482171118547
 31
0.0
  0
LINE
  5
381
  8
0
 62
     0
 10
80.794354322567983
 20
3.7002020006133298
 30
0.0
 11
82.927687655901764
 21
5.8335353339471112
 31
0.0
  0
LINE
  5
382
  8
0
 62
     0
 10
112.1746344930732
 20
35.978507783225382
 30
0.0
 11
114.1746344930732
 21
37.978507783225382
 31
0.0
  0
LINE
  5
383
  8
0
 62
     0
 10
79.896328710460921
 20
3.7002020006131029
 30
0.0
 11
82.029662043794815
 21
5.8335353339469966
 31
0.0
  0
LINE
  5
384
  8
0
 62
     0
 10
112.1746344930732
 20
36.876533395332217
 30
0.0
 11
114.1746344930732
 21
38.876533395332331
 31
0.0
  0
LINE
  5
385
  8
0
 62
     0
 10
78.998303098353972
 20
3.7002020006131029
 30
0.0
 11
81.131636431687866
 21
5.8335353339469966
 31
0.0
  0
LINE
  5
386
  8
0
 62
     0
 10
112.174634493073
 20
37.774559007439173
 30
0.0
 11
114.1746344930732
 21
39.774559007439173
 31
0.0
  0
LINE
  5
387
  8
0
 62
     0
 10
78.100277486247023
 20
3.7002020006131029
 30
0.0
 11
80.233610819580903
 21
5.8335353339469966
 31
0.0
  0
LINE
  5
388
  8
0
 62
     0
 10
112.174634493073
 20
38.672584619546107
 30
0.0
 11
114.1746344930731
 21
40.672584619546107
 31
0.0
  0
LINE
  5
389
  8
0
 62
     0
 10
77.202251874140075
 20
3.7002020006131029
 30
0.0
 11
79.335585207473954
 21
5.8335353339469966
 31
0.0
  0
LINE
  5
38A
  8
0
 62
     0
 10
112.1746344930732
 20
39.57061023165307
 30
0.0
 11
114.1746344930732
 21
41.570610231653063
 31
0.0
  0
LINE
  5
38B
  8
0
 62
     0
 10
76.304226262033239
 20
3.7002020006131029
 30
0.0
 11
78.437559595367247
 21
5.8335353339471112
 31
0.0
  0
LINE
  5
38C
  8
0
 62
     0
 10
112.1746344930732
 20
40.468635843760012
 30
0.0
 11
114.1746344930732
 21
42.468635843760012
 31
0.0
  0
LINE
  5
38D
  8
0
 62
     0
 10
75.406200649926404
 20
3.700202000613217
 30
0.0
 11
77.539533983260299
 21
5.8335353339471112
 31
0.0
  0
LINE
  5
38E
  8
0
 62
     0
 10
112.1746344930732
 20
41.366661455866733
 30
0.0
 11
114.1746344930732
 21
43.366661455866847
 31
0.0
  0
LINE
  5
38F
  8
0
 62
     0
 10
74.508175037819456
 20
3.7002020006131029
 30
0.0
 11
76.64150837115335
 21
5.8335353339469966
 31
0.0
  0
LINE
  5
390
  8
0
 62
     0
 10
112.174634493073
 20
42.264687067973682
 30
0.0
 11
114.1746344930733
 21
44.26468706797391
 31
0.0
  0
LINE
  5
391
  8
0
 62
     0
 10
73.610149425712507
 20
3.7002020006131029
 30
0.0
 11
75.743482759046401
 21
5.8335353339469966
 31
0.0
  0
LINE
  5
392
  8
0
 62
     0
 10
112.174634493073
 20
43.162712680080631
 30
0.0
 11
114.1746344930733
 21
45.162712680080851
 31
0.0
  0
LINE
  5
393
  8
0
 62
     0
 10
72.712123813605544
 20
3.7002020006131029
 30
0.0
 11
74.845457146939566
 21
5.8335353339469966
 31
0.0
  0
LINE
  5
394
  8
0
 62
     0
 10
112.174634493073
 20
44.060738292187573
 30
0.0
 11
114.1746344930733
 21
46.060738292187693
 31
0.0
  0
LINE
  5
395
  8
0
 62
     0
 10
71.814098201498609
 20
3.7002020006131029
 30
0.0
 11
73.947431534832603
 21
5.8335353339471112
 31
0.0
  0
LINE
  5
396
  8
0
 62
     0
 10
112.174634493073
 20
44.958763904294528
 30
0.0
 11
114.1746344930732
 21
46.958763904294642
 31
0.0
  0
LINE
  5
397
  8
0
 62
     0
 10
70.916072589391774
 20
3.700202000613217
 30
0.0
 11
73.049405922725668
 21
5.8335353339471112
 31
0.0
  0
LINE
  5
398
  8
0
 62
     0
 10
112.1746344930733
 20
45.856789516401591
 30
0.0
 11
114.1746344930733
 21
47.856789516401591
 31
0.0
  0
LINE
  5
399
  8
0
 62
     0
 10
70.018046977284939
 20
3.700202000613217
 30
0.0
 11
72.15138031061872
 21
5.8335353339469966
 31
0.0
  0
LINE
  5
39A
  8
0
 62
     0
 10
112.1746344930733
 20
46.754815128508532
 30
0.0
 11
114.1746344930733
 21
48.754815128508532
 31
0.0
  0
LINE
  5
39B
  8
0
 62
     0
 10
69.12002136517799
 20
3.700202000613217
 30
0.0
 11
71.253354698511885
 21
5.8335353339471112
 31
0.0
  0
LINE
  5
39C
  8
0
 62
     0
 10
112.1746344930733
 20
47.652840740615261
 30
0.0
 11
114.1746344930733
 21
49.652840740615368
 31
0.0
  0
LINE
  5
39D
  8
0
 62
     0
 10
68.221995753071042
 20
3.7002020006131029
 30
0.0
 11
70.355329086405035
 21
5.8335353339469966
 31
0.0
  0
LINE
  5
39E
  8
0
 62
     0
 10
112.1746344930732
 20
48.55086635272221
 30
0.0
 11
114.1746344930732
 21
50.55086635272221
 31
0.0
  0
LINE
  5
39F
  8
0
 62
     0
 10
67.323970140964207
 20
3.7002020006131029
 30
0.0
 11
69.457303474298101
 21
5.8335353339471112
 31
0.0
  0
LINE
  5
3A0
  8
0
 62
     0
 10
112.1746344930732
 20
49.448891964829158
 30
0.0
 11
114.1746344930732
 21
51.448891964829158
 31
0.0
  0
LINE
  5
3A1
  8
0
 62
     0
 10
66.425944528857258
 20
3.700202000613217
 30
0.0
 11
68.559277862191152
 21
5.8335353339471112
 31
0.0
  0
LINE
  5
3A2
  8
0
 62
     0
 10
112.1746344930732
 20
50.346917576936107
 30
0.0
 11
114.1746344930732
 21
52.3469175769361
 31
0.0
  0
LINE
  5
3A3
  8
0
 62
     0
 10
65.527918916750195
 20
3.7002020006129892
 30
0.0
 11
67.661252250084075
 21
5.8335353339469966
 31
0.0
  0
LINE
  5
3A4
  8
0
 62
     0
 10
112.1746344930733
 20
51.244943189043049
 30
0.0
 11
114.1746344930733
 21
53.244943189043063
 31
0.0
  0
LINE
  5
3A5
  8
0
 62
     0
 10
64.62989330464336
 20
3.7002020006131029
 30
0.0
 11
66.763226637977255
 21
5.8335353339469966
 31
0.0
  0
LINE
  5
3A6
  8
0
 62
     0
 10
112.1746344930733
 20
52.142968801149891
 30
0.0
 11
114.1746344930733
 21
54.142968801149998
 31
0.0
  0
LINE
  5
3A7
  8
0
 62
     0
 10
63.731867692536532
 20
3.700202000613217
 30
0.0
 11
65.865201025870306
 21
5.8335353339469966
 31
0.0
  0
LINE
  5
3A8
  8
0
 62
     0
 10
112.1746344930732
 20
53.04099441325684
 30
0.0
 11
114.1746344930732
 21
55.04099441325684
 31
0.0
  0
LINE
  5
3A9
  8
0
 62
     0
 10
62.83384208042969
 20
3.700202000613217
 30
0.0
 11
64.967175413763584
 21
5.833535333947224
 31
0.0
  0
LINE
  5
3AA
  8
0
 62
     0
 10
112.1746344930732
 20
53.939020025363682
 30
0.0
 11
114.1746344930732
 21
55.939020025363668
 31
0.0
  0
LINE
  5
3AB
  8
0
 62
     0
 10
61.935816468322741
 20
3.700202000613217
 30
0.0
 11
64.069149801656636
 21
5.8335353339471112
 31
0.0
  0
LINE
  5
3AC
  8
0
 62
     0
 10
112.1746344930732
 20
54.837045637470617
 30
0.0
 11
114.1746344930732
 21
56.837045637470617
 31
0.0
  0
LINE
  5
3AD
  8
0
 62
     0
 10
61.037790856215672
 20
3.7002020006129892
 30
0.0
 11
63.171124189549573
 21
5.8335353339469966
 31
0.0
  0
LINE
  5
3AE
  8
0
 62
     0
 10
112.1746344930732
 20
55.735071249577572
 30
0.0
 11
114.1746344930732
 21
57.735071249577572
 31
0.0
  0
LINE
  5
3AF
  8
0
 62
     0
 10
60.13976524410873
 20
3.7002020006131029
 30
0.0
 11
62.273098577442632
 21
5.8335353339469966
 31
0.0
  0
LINE
  5
3B0
  8
0
 62
     0
 10
112.1746344930732
 20
56.633096861684407
 30
0.0
 11
114.1746344930732
 21
58.633096861684521
 31
0.0
  0
LINE
  5
3B1
  8
0
 62
     0
 10
59.241739632001782
 20
3.7002020006131029
 30
0.0
 11
61.375072965335669
 21
5.8335353339469966
 31
0.0
  0
LINE
  5
3B2
  8
0
 62
     0
 10
112.1746344930732
 20
57.531122473791349
 30
0.0
 11
114.1746344930732
 21
59.531122473791349
 31
0.0
  0
LINE
  5
3B3
  8
0
 62
     0
 10
58.343714019895181
 20
3.700202000613217
 30
0.0
 11
60.477047353228841
 21
5.8335353339469966
 31
0.0
  0
LINE
  5
3B4
  8
0
 62
     0
 10
112.1746344930732
 20
58.429148085898312
 30
0.0
 11
114.1746344930732
 21
60.429148085898312
 31
0.0
  0
LINE
  5
3B5
  8
0
 62
     0
 10
57.445688407788218
 20
3.7002020006133298
 30
0.0
 11
59.579021741122119
 21
5.833535333947224
 31
0.0
  0
LINE
  5
3B6
  8
0
 62
     0
 10
112.1746344930732
 20
59.327173698005247
 30
0.0
 11
114.1746344930733
 21
61.327173698005367
 31
0.0
  0
LINE
  5
3B7
  8
0
 62
     0
 10
56.547662795681163
 20
3.7002020006131029
 30
0.0
 11
58.680996129015057
 21
5.8335353339471112
 31
0.0
  0
LINE
  5
3B8
  8
0
 62
     0
 10
112.1746344930732
 20
60.225199310112089
 30
0.0
 11
114.1746344930732
 21
62.225199310112089
 31
0.0
  0
LINE
  5
3B9
  8
0
 62
     0
 10
55.649637183574221
 20
3.7002020006131029
 30
0.0
 11
57.782970516908101
 21
5.8335353339469966
 31
0.0
  0
LINE
  5
3BA
  8
0
 62
     0
 10
112.1746344930733
 20
61.123224922219151
 30
0.0
 11
114.1746344930733
 21
63.123224922219151
 31
0.0
  0
LINE
  5
3BB
  8
0
 62
     0
 10
54.751611571467258
 20
3.7002020006131029
 30
0.0
 11
56.884944904801159
 21
5.8335353339469966
 31
0.0
  0
LINE
  5
3BC
  8
0
 62
     0
 10
112.1746344930733
 20
62.0212505343261
 30
0.0
 11
114.1746344930733
 21
64.0212505343261
 31
0.0
  0
LINE
  5
3BD
  8
0
 62
     0
 10
53.853585959360323
 20
3.7002020006131029
 30
0.0
 11
55.986919292694211
 21
5.8335353339469966
 31
0.0
  0
LINE
  5
3BE
  8
0
 62
     0
 10
112.1746344930733
 20
62.919276146432928
 30
0.0
 11
114.1746344930733
 21
64.919276146433049
 31
0.0
  0
LINE
  5
3BF
  8
0
 62
     0
 10
52.95556034725336
 20
3.7002020006131029
 30
0.0
 11
55.088893680587383
 21
5.8335353339469966
 31
0.0
  0
LINE
  5
3C0
  8
0
 62
     0
 10
112.1746344930733
 20
63.817301758539877
 30
0.0
 11
114.1746344930733
 21
65.817301758539884
 31
0.0
  0
LINE
  5
3C1
  8
0
 62
     0
 10
52.057534735146653
 20
3.7002020006131029
 30
0.0
 11
54.19086806848054
 21
5.8335353339471112
 31
0.0
  0
LINE
  5
3C2
  8
0
 62
     0
 10
112.1746344930733
 20
64.715327370646833
 30
0.0
 11
114.1746344930733
 21
66.715327370646833
 31
0.0
  0
LINE
  5
3C3
  8
0
 62
     0
 10
51.15950912303969
 20
3.700202000613217
 30
0.0
 11
53.292842456373592
 21
5.8335353339471112
 31
0.0
  0
LINE
  5
3C4
  8
0
 62
     0
 10
112.1746344930733
 20
65.613352982753781
 30
0.0
 11
114.1746344930733
 21
67.613352982753781
 31
0.0
  0
LINE
  5
3C5
  8
0
 62
     0
 10
50.261483510932749
 20
3.700202000613217
 30
0.0
 11
52.394816844266643
 21
5.8335353339471112
 31
0.0
  0
LINE
  5
3C6
  8
0
 62
     0
 10
112.1746344930733
 20
66.511378594860616
 30
0.0
 11
114.1746344930733
 21
68.511378594860616
 31
0.0
  0
LINE
  5
3C7
  8
0
 62
     0
 10
49.363457898825793
 20
3.7002020006131029
 30
0.0
 11
51.496791232159687
 21
5.8335353339469966
 31
0.0
  0
LINE
  5
3C8
  8
0
 62
     0
 10
112.1746344930732
 20
67.409404206967452
 30
0.0
 11
114.1746344930733
 21
69.409404206967452
 31
0.0
  0
LINE
  5
3C9
  8
0
 62
     0
 10
48.465432286718851
 20
3.7002020006131029
 30
0.0
 11
50.598765620052852
 21
5.8335353339471112
 31
0.0
  0
LINE
  5
3CA
  8
0
 62
     0
 10
112.1746344930732
 20
68.3074298190744
 30
0.0
 11
114.1746344930732
 21
70.3074298190744
 31
0.0
  0
LINE
  5
3CB
  8
0
 62
     0
 10
47.567406674612009
 20
3.700202000613217
 30
0.0
 11
49.70074000794591
 21
5.8335353339471112
 31
0.0
  0
LINE
  5
3CC
  8
0
 62
     0
 10
112.1746344930732
 20
69.205455431181349
 30
0.0
 11
114.1746344930732
 21
71.205455431181349
 31
0.0
  0
LINE
  5
3CD
  8
0
 62
     0
 10
46.669381062505067
 20
3.700202000613217
 30
0.0
 11
48.802714395838962
 21
5.8335353339471112
 31
0.0
  0
LINE
  5
3CE
  8
0
 62
     0
 10
112.1746344930733
 20
70.103481043288298
 30
0.0
 11
114.1746344930733
 21
72.103481043288284
 31
0.0
  0
LINE
  5
3CF
  8
0
 62
     0
 10
45.771355450398232
 20
3.700202000613217
 30
0.0
 11
47.904688783732126
 21
5.8335353339471112
 31
0.0
  0
LINE
  5
3D0
  8
0
 62
     0
 10
112.1746344930733
 20
71.001506655395247
 30
0.0
 11
114.1746344930733
 21
73.001506655395247
 31
0.0
  0
LINE
  5
3D1
  8
0
 62
     0
 10
44.873329838291284
 20
3.700202000613217
 30
0.0
 11
47.006663171625171
 21
5.8335353339471112
 31
0.0
  0
LINE
  5
3D2
  8
0
 62
     0
 10
112.1746344930732
 20
71.899532267501968
 30
0.0
 11
114.1746344930733
 21
73.899532267501968
 31
0.0
  0
LINE
  5
3D3
  8
0
 62
     0
 10
43.975304226184328
 20
3.7002020006131029
 30
0.0
 11
46.108637559518343
 21
5.8335353339471112
 31
0.0
  0
LINE
  5
3D4
  8
0
 62
     0
 10
112.1746344930732
 20
72.797557879608917
 30
0.0
 11
114.1746344930732
 21
74.797557879608917
 31
0.0
  0
LINE
  5
3D5
  8
0
 62
     0
 10
43.0772786140775
 20
3.700202000613217
 30
0.0
 11
45.210611947411387
 21
5.8335353339471112
 31
0.0
  0
LINE
  5
3D6
  8
0
 62
     0
 10
112.1746344930732
 20
73.695583491715865
 30
0.0
 11
114.1746344930732
 21
75.695583491715865
 31
0.0
  0
LINE
  5
3D7
  8
0
 62
     0
 10
42.179253001970537
 20
3.700202000613217
 30
0.0
 11
44.312586335304331
 21
5.8335353339469966
 31
0.0
  0
LINE
  5
3D8
  8
0
 62
     0
 10
112.1746344930732
 20
74.593609103822814
 30
0.0
 11
114.1746344930732
 21
76.593609103822814
 31
0.0
  0
LINE
  5
3D9
  8
0
 62
     0
 10
41.281227389863481
 20
3.7002020006131029
 30
0.0
 11
43.414560723197503
 21
5.8335353339471112
 31
0.0
  0
LINE
  5
3DA
  8
0
 62
     0
 10
112.1746344930732
 20
75.491634715929763
 30
0.0
 11
114.1746344930732
 21
77.491634715929763
 31
0.0
  0
LINE
  5
3DB
  8
0
 62
     0
 10
40.38320177775654
 20
3.7002020006131029
 30
0.0
 11
42.516535111090541
 21
5.8335353339471112
 31
0.0
  0
LINE
  5
3DC
  8
0
 62
     0
 10
112.1746344930732
 20
76.389660328036598
 30
0.0
 11
114.1746344930734
 21
78.389660328036825
 31
0.0
  0
LINE
  5
3DD
  8
0
 62
     0
 10
39.485176165649818
 20
3.700202000613217
 30
0.0
 11
41.618509498983819
 21
5.833535333947224
 31
0.0
  0
LINE
  5
3DE
  8
0
 62
     0
 10
112.1746344930732
 20
77.287685940143547
 30
0.0
 11
114.1746344930732
 21
79.287685940143547
 31
0.0
  0
LINE
  5
3DF
  8
0
 62
     0
 10
38.58715055354299
 20
3.7002020006133298
 30
0.0
 11
40.72048388687687
 21
5.833535333947224
 31
0.0
  0
LINE
  5
3E0
  8
0
 62
     0
 10
112.1746344930732
 20
78.185711552250382
 30
0.0
 11
114.1746344930732
 21
80.185711552250368
 31
0.0
  0
LINE
  5
3E1
  8
0
 62
     0
 10
37.689124941436042
 20
3.700202000613217
 30
0.0
 11
39.822458274769822
 21
5.8335353339469966
 31
0.0
  0
LINE
  5
3E2
  8
0
 62
     0
 10
112.1746344930732
 20
79.083737164357331
 30
0.0
 11
114.1746344930732
 21
81.083737164357345
 31
0.0
  0
LINE
  5
3E3
  8
0
 62
     0
 10
36.791099329328979
 20
3.7002020006131029
 30
0.0
 11
38.924432662662873
 21
5.8335353339469966
 31
0.0
  0
LINE
  5
3E4
  8
0
 62
     0
 10
112.1746344930732
 20
79.981762776464166
 30
0.0
 11
114.1746344930733
 21
81.981762776464393
 31
0.0
  0
LINE
  5
3E5
  8
0
 62
     0
 10
35.89307371722203
 20
3.7002020006131029
 30
0.0
 11
38.026407050556031
 21
5.8335353339471112
 31
0.0
  0
LINE
  5
3E6
  8
0
 62
     0
 10
112.174634493073
 20
80.879788388571114
 30
0.0
 11
114.1746344930733
 21
82.879788388571328
 31
0.0
  0
LINE
  5
3E7
  8
0
 62
     0
 10
34.995048105115082
 20
3.7002020006131029
 30
0.0
 11
37.128381438449203
 21
5.833535333947224
 31
0.0
  0
LINE
  5
3E8
  8
0
 62
     0
 10
112.1746344930732
 20
81.777814000678049
 30
0.0
 11
114.1746344930734
 21
83.777814000678305
 31
0.0
  0
LINE
  5
3E9
  8
0
 62
     0
 10
34.09702249300824
 20
3.7002020006131029
 30
0.0
 11
36.230355826342361
 21
5.833535333947224
 31
0.0
  0
LINE
  5
3EA
  8
0
 62
     0
 10
112.1746344930732
 20
82.675839612785026
 30
0.0
 11
114.1746344930734
 21
84.675839612785126
 31
0.0
  0
LINE
  5
3EB
  8
0
 62
     0
 10
33.198996880901518
 20
3.7002020006133298
 30
0.0
 11
35.332330214235299
 21
5.8335353339471112
 31
0.0
  0
LINE
  5
3EC
  8
0
 62
     0
 10
112.1746344930733
 20
83.573865224892074
 30
0.0
 11
114.1746344930733
 21
85.573865224892074
 31
0.0
  0
LINE
  5
3ED
  8
0
 62
     0
 10
32.300971268794463
 20
3.700202000613217
 30
0.0
 11
34.43430460212835
 21
5.8335353339471112
 31
0.0
  0
LINE
  5
3EE
  8
0
 62
     0
 10
112.1746344930733
 20
84.471890836998909
 30
0.0
 11
114.1746344930733
 21
86.471890836998895
 31
0.0
  0
LINE
  5
3EF
  8
0
 62
     0
 10
31.40294565668751
 20
3.7002020006131029
 30
0.0
 11
33.536278990021401
 21
5.8335353339469966
 31
0.0
  0
LINE
  5
3F0
  8
0
 62
     0
 10
112.1746344930733
 20
85.369916449105844
 30
0.0
 11
114.1746344930733
 21
87.369916449105858
 31
0.0
  0
LINE
  5
3F1
  8
0
 62
     0
 10
30.504920044580562
 20
3.7002020006131029
 30
0.0
 11
32.63825337791468
 21
5.833535333947224
 31
0.0
  0
LINE
  5
3F2
  8
0
 62
     0
 10
112.1746344930733
 20
86.267942061212693
 30
0.0
 11
114.1746344930733
 21
88.267942061212807
 31
0.0
  0
LINE
  5
3F3
  8
0
 62
     0
 10
29.606894432473609
 20
3.7002020006131029
 30
0.0
 11
31.740227765807731
 21
5.833535333947224
 31
0.0
  0
LINE
  5
3F4
  8
0
 62
     0
 10
112.1746344930732
 20
87.165967673319642
 30
0.0
 11
114.1746344930733
 21
89.165967673319656
 31
0.0
  0
LINE
  5
3F5
  8
0
 62
     0
 10
28.708868820366661
 20
3.7002020006131029
 30
0.0
 11
30.842202153700669
 21
5.8335353339471112
 31
0.0
  0
LINE
  5
3F6
  8
0
 62
     0
 10
112.1746344930733
 20
88.063993285426577
 30
0.0
 11
114.1746344930733
 21
90.063993285426591
 31
0.0
  0
LINE
  5
3F7
  8
0
 62
     0
 10
27.810843208259939
 20
3.700202000613217
 30
0.0
 11
29.94417654159383
 21
5.8335353339471112
 31
0.0
  0
LINE
  5
3F8
  8
0
 62
     0
 10
112.1746344930733
 20
88.962018897533554
 30
0.0
 11
114.1746344930733
 21
90.96201889753354
 31
0.0
  0
LINE
  5
3F9
  8
0
 62
     0
 10
26.912817596152991
 20
3.700202000613217
 30
0.0
 11
29.046150929486881
 21
5.8335353339471112
 31
0.0
  0
LINE
  5
3FA
  8
0
 62
     0
 10
112.1746344930733
 20
89.860044509640488
 30
0.0
 11
114.1746344930733
 21
91.860044509640474
 31
0.0
  0
LINE
  5
3FB
  8
0
 62
     0
 10
26.014791984046042
 20
3.700202000613217
 30
0.0
 11
28.14812531737994
 21
5.8335353339471112
 31
0.0
  0
LINE
  5
3FC
  8
0
 62
     0
 10
112.1746344930733
 20
90.758070121747195
 30
0.0
 11
114.1746344930733
 21
92.758070121747323
 31
0.0
  0
LINE
  5
3FD
  8
0
 62
     0
 10
25.1167663719391
 20
3.7002020006131029
 30
0.0
 11
27.250099705273222
 21
5.833535333947224
 31
0.0
  0
LINE
  5
3FE
  8
0
 62
     0
 10
112.1746344930732
 20
91.656095733854144
 30
0.0
 11
114.1746344930733
 21
93.656095733854158
 31
0.0
  0
LINE
  5
3FF
  8
0
 62
     0
 10
24.218740759832151
 20
3.7002020006131029
 30
0.0
 11
26.352074093166159
 21
5.8335353339471112
 31
0.0
  0
LINE
  5
400
  8
0
 62
     0
 10
112.1746344930732
 20
92.554121345961107
 30
0.0
 11
114.1746344930732
 21
94.554121345961107
 31
0.0
  0
LINE
  5
401
  8
0
 62
     0
 10
23.320715147725309
 20
3.700202000613217
 30
0.0
 11
25.45404848105921
 21
5.8335353339471112
 31
0.0
  0
LINE
  5
402
  8
0
 62
     0
 10
112.1746344930732
 20
93.452146958068056
 30
0.0
 11
114.1746344930732
 21
95.452146958068056
 31
0.0
  0
LINE
  5
403
  8
0
 62
     0
 10
22.42268953561836
 20
3.700202000613217
 30
0.0
 11
24.556022868952262
 21
5.8335353339471112
 31
0.0
  0
LINE
  5
404
  8
0
 62
     0
 10
112.1746344930733
 20
94.350172570175005
 30
0.0
 11
114.1746344930733
 21
96.350172570175005
 31
0.0
  0
LINE
  5
405
  8
0
 62
     0
 10
21.524663923511412
 20
3.7002020006131029
 30
0.0
 11
23.65799725684542
 21
5.8335353339471112
 31
0.0
  0
LINE
  5
406
  8
0
 62
     0
 10
112.1746344930733
 20
95.24819818228184
 30
0.0
 11
114.1746344930733
 21
97.248198182281953
 31
0.0
  0
LINE
  5
407
  8
0
 62
     0
 10
20.62663831140458
 20
3.700202000613217
 30
0.0
 11
22.759971644738471
 21
5.8335353339471112
 31
0.0
  0
LINE
  5
408
  8
0
 62
     0
 10
112.1746344930732
 20
96.146223794388789
 30
0.0
 11
114.1746344930733
 21
98.146223794388803
 31
0.0
  0
LINE
  5
409
  8
0
 62
     0
 10
19.728612699297631
 20
3.700202000613217
 30
0.0
 11
21.861946032631639
 21
5.833535333947224
 31
0.0
  0
LINE
  5
40A
  8
0
 62
     0
 10
112.1746344930732
 20
97.044249406495624
 30
0.0
 11
114.1746344930734
 21
99.044249406495851
 31
0.0
  0
LINE
  5
40B
  8
0
 62
     0
 10
18.830587087190789
 20
3.700202000613217
 30
0.0
 11
20.963920420524691
 21
5.8335353339471112
 31
0.0
  0
LINE
  5
40C
  8
0
 62
     0
 10
112.1746344930732
 20
97.942275018602572
 30
0.0
 11
114.1746344930734
 21
99.942275018602686
 31
0.0
  0
LINE
  5
40D
  8
0
 62
     0
 10
17.93256147508361
 20
3.7002020006129892
 30
0.0
 11
20.065894808417742
 21
5.8335353339471112
 31
0.0
  0
LINE
  5
40E
  8
0
 62
     0
 10
112.1746344930732
 20
98.840300630709521
 30
0.0
 11
114.1746344930733
 21
100.84030063070961
 31
0.0
  0
LINE
  5
40F
  8
0
 62
     0
 10
17.034535862976782
 20
3.7002020006131029
 30
0.0
 11
19.167869196310789
 21
5.8335353339471112
 31
0.0
  0
LINE
  5
410
  8
0
 62
     0
 10
112.1746344930732
 20
99.738326242816356
 30
0.0
 11
114.1746344930733
 21
101.7383262428166
 31
0.0
  0
LINE
  5
411
  8
0
 62
     0
 10
16.136510250869829
 20
3.7002020006131029
 30
0.0
 11
18.269843584203841
 21
5.8335353339471112
 31
0.0
  0
LINE
  5
412
  8
0
 62
     0
 10
112.1746344930732
 20
100.6363518549233
 30
0.0
 11
114.1746344930734
 21
102.6363518549235
 31
0.0
  0
LINE
  5
413
  8
0
 62
     0
 10
15.238484638763
 20
3.7002020006131029
 30
0.0
 11
17.371817972097119
 21
5.833535333947224
 31
0.0
  0
LINE
  5
414
  8
0
 62
     0
 10
112.1746344930732
 20
101.5343774670302
 30
0.0
 11
114.1746344930734
 21
103.5343774670305
 31
0.0
  0
LINE
  5
415
  8
0
 62
     0
 10
14.340459026656269
 20
3.7002020006133298
 30
0.0
 11
16.473792359990171
 21
5.833535333947224
 31
0.0
  0
LINE
  5
416
  8
0
 62
     0
 10
112.1746344930732
 20
102.4324030791372
 30
0.0
 11
114.1746344930734
 21
104.4324030791373
 31
0.0
  0
LINE
  5
417
  8
0
 62
     0
 10
13.4424334145491
 20
3.7002020006131029
 30
0.0
 11
15.57576674788322
 21
5.833535333947224
 31
0.0
  0
LINE
  5
418
  8
0
 62
     0
 10
112.1746344930732
 20
103.33042869124399
 30
0.0
 11
114.1746344930733
 21
105.33042869124409
 31
0.0
  0
LINE
  5
419
  8
0
 62
     0
 10
12.54440780244226
 20
3.7002020006131029
 30
0.0
 11
14.677741135776269
 21
5.8335353339471112
 31
0.0
  0
LINE
  5
41A
  8
0
 62
     0
 10
112.1746344930732
 20
104.2284543033509
 30
0.0
 11
114.1746344930733
 21
106.2284543033511
 31
0.0
  0
LINE
  5
41B
  8
0
 62
     0
 10
11.646382190335309
 20
3.7002020006131029
 30
0.0
 11
13.779715523669321
 21
5.8335353339471112
 31
0.0
  0
LINE
  5
41C
  8
0
 62
     0
 10
112.1746344930733
 20
105.12647991545801
 30
0.0
 11
114.1746344930733
 21
107.12647991545801
 31
0.0
  0
LINE
  5
41D
  8
0
 62
     0
 10
10.748356578228369
 20
3.7002020006131029
 30
0.0
 11
12.881689911562489
 21
5.833535333947224
 31
0.0
  0
LINE
  5
41E
  8
0
 62
     0
 10
112.1746344930733
 20
106.0245055275649
 30
0.0
 11
114.1746344930733
 21
108.024505527565
 31
0.0
  0
LINE
  5
41F
  8
0
 62
     0
 10
9.8503309661214171
 20
3.7002020006131029
 30
0.0
 11
11.98366429945554
 21
5.833535333947224
 31
0.0
  0
LINE
  5
420
  8
0
 62
     0
 10
112.1746344930732
 20
106.9225311396717
 30
0.0
 11
114.1746344930734
 21
108.9225311396718
 31
0.0
  0
LINE
  5
421
  8
0
 62
     0
 10
8.9523053540145838
 20
3.7002020006131029
 30
0.0
 11
11.0856386873487
 21
5.833535333947224
 31
0.0
  0
LINE
  5
422
  8
0
 62
     0
 10
112.1746344930733
 20
107.8205567517787
 30
0.0
 11
114.1746344930733
 21
109.8205567517787
 31
0.0
  0
LINE
  5
423
  8
0
 62
     0
 10
8.3746344930756322
 20
4.0205567517810996
 30
0.0
 11
10.37463449307563
 21
6.0205567517810996
 31
0.0
  0
LINE
  5
424
  8
0
 62
     0
 10
112.1746344930733
 20
108.7185823638856
 30
0.0
 11
114.1746344930733
 21
110.7185823638856
 31
0.0
  0
LINE
  5
425
  8
0
 62
     0
 10
8.3746344930756322
 20
4.9185823638879347
 30
0.0
 11
10.37463449307586
 21
6.9185823638881621
 31
0.0
  0
LINE
  5
426
  8
0
 62
     0
 10
112.1746344930733
 20
109.61660797599249
 30
0.0
 11
114.1746344930733
 21
111.61660797599249
 31
0.0
  0
LINE
  5
427
  8
0
 62
     0
 10
8.3746344930756322
 20
5.8166079759948843
 30
0.0
 11
10.374634493075741
 21
7.816607975994998
 31
0.0
  0
LINE
  5
428
  8
0
 62
     0
 10
112.1746344930733
 20
110.5146335880994
 30
0.0
 11
114.1746344930733
 21
112.5146335880995
 31
0.0
  0
LINE
  5
429
  8
0
 62
     0
 10
8.3746344930756322
 20
6.7146335881018331
 30
0.0
 11
10.374634493075741
 21
8.7146335881019468
 31
0.0
  0
LINE
  5
42A
  8
0
 62
     0
 10
112.1746344930732
 20
111.41265920020631
 30
0.0
 11
114.1746344930733
 21
113.41265920020631
 31
0.0
  0
LINE
  5
42B
  8
0
 62
     0
 10
8.3746344930756322
 20
7.6126592002086682
 30
0.0
 11
10.374634493075741
 21
9.6126592002088955
 31
0.0
  0
LINE
  5
42C
  8
0
 62
     0
 10
112.1746344930733
 20
112.3106848123133
 30
0.0
 11
114.1746344930733
 21
114.3106848123133
 31
0.0
  0
LINE
  5
42D
  8
0
 62
     0
 10
8.3746344930756322
 20
8.5106848123156151
 30
0.0
 11
10.37463449307586
 21
10.510684812315841
 31
0.0
  0
LINE
  5
42E
  8
0
 62
     0
 10
112.1746344930733
 20
113.2087104244202
 30
0.0
 11
114.1746344930733
 21
115.2087104244202
 31
0.0
  0
LINE
  5
42F
  8
0
 62
     0
 10
8.3746344930756322
 20
9.4087104244225657
 30
0.0
 11
10.37463449307586
 21
11.408710424422789
 31
0.0
  0
LINE
  5
430
  8
0
 62
     0
 10
112.1746344930733
 20
114.1067360365272
 30
0.0
 11
114.1746344930733
 21
116.1067360365272
 31
0.0
  0
LINE
  5
431
  8
0
 62
     0
 10
8.3746344930756322
 20
10.306736036529511
 30
0.0
 11
10.374634493075741
 21
12.30673603652963
 31
0.0
  0
LINE
  5
432
  8
0
 62
     0
 10
112.1746344930733
 20
115.0047616486339
 30
0.0
 11
114.1746344930733
 21
117.004761648634
 31
0.0
  0
LINE
  5
433
  8
0
 62
     0
 10
8.3746344930756322
 20
11.204761648636349
 30
0.0
 11
10.374634493075741
 21
13.20476164863646
 31
0.0
  0
LINE
  5
434
  8
0
 62
     0
 10
112.1746344930732
 20
115.90278726074079
 30
0.0
 11
114.1746344930734
 21
117.90278726074111
 31
0.0
  0
LINE
  5
435
  8
0
 62
     0
 10
8.3746344930756322
 20
12.102787260743179
 30
0.0
 11
10.374634493075741
 21
14.10278726074341
 31
0.0
  0
LINE
  5
436
  8
0
 62
     0
 10
112.1746344930732
 20
116.8008128728478
 30
0.0
 11
114.1746344930734
 21
118.800812872848
 31
0.0
  0
LINE
  5
437
  8
0
 62
     0
 10
8.3746344930755185
 20
13.00081287285013
 30
0.0
 11
10.374634493075741
 21
15.000812872850361
 31
0.0
  0
LINE
  5
438
  8
0
 62
     0
 10
112.1746344930732
 20
117.69883848495471
 30
0.0
 11
114.1746344930734
 21
119.6988384849549
 31
0.0
  0
LINE
  5
439
  8
0
 62
     0
 10
8.3746344930755185
 20
13.89883848495708
 30
0.0
 11
10.374634493075741
 21
15.898838484957309
 31
0.0
  0
LINE
  5
43A
  8
0
 62
     0
 10
112.1746344930733
 20
118.5968640970617
 30
0.0
 11
114.1746344930734
 21
120.5968640970618
 31
0.0
  0
LINE
  5
43B
  8
0
 62
     0
 10
8.3746344930756322
 20
14.796864097064031
 30
0.0
 11
10.374634493075741
 21
16.796864097064141
 31
0.0
  0
LINE
  5
43C
  8
0
 62
     0
 10
112.1746344930733
 20
119.4948897091685
 30
0.0
 11
114.1746344930734
 21
121.4948897091687
 31
0.0
  0
LINE
  5
43D
  8
0
 62
     0
 10
8.3746344930756322
 20
15.69488970917098
 30
0.0
 11
10.374634493075741
 21
17.69488970917109
 31
0.0
  0
LINE
  5
43E
  8
0
 62
     0
 10
112.1746344930732
 20
120.3929153212755
 30
0.0
 11
114.1746344930734
 21
122.39291532127569
 31
0.0
  0
LINE
  5
43F
  8
0
 62
     0
 10
8.3746344930756322
 20
16.592915321277811
 30
0.0
 11
10.374634493075741
 21
18.592915321278038
 31
0.0
  0
LINE
  5
440
  8
0
 62
     0
 10
112.1746344930732
 20
121.2909409333823
 30
0.0
 11
114.1746344930734
 21
123.2909409333825
 31
0.0
  0
LINE
  5
441
  8
0
 62
     0
 10
8.3746344930755185
 20
17.49094093338465
 30
0.0
 11
10.374634493075741
 21
19.49094093338487
 31
0.0
  0
LINE
  5
442
  8
0
 62
     0
 10
112.1746344930732
 20
122.18896654548919
 30
0.0
 11
114.1746344930733
 21
124.18896654548939
 31
0.0
  0
LINE
  5
443
  8
0
 62
     0
 10
8.3746344930755185
 20
18.388966545491598
 30
0.0
 11
10.374634493075741
 21
20.388966545491829
 31
0.0
  0
LINE
  5
444
  8
0
 62
     0
 10
112.1746344930732
 20
123.0869921575962
 30
0.0
 11
114.1746344930733
 21
125.0869921575963
 31
0.0
  0
LINE
  5
445
  8
0
 62
     0
 10
8.3746344930756322
 20
19.286992157598661
 30
0.0
 11
10.37463449307563
 21
21.286992157598661
 31
0.0
  0
LINE
  5
446
  8
0
 62
     0
 10
112.1746344930732
 20
123.98501776970301
 30
0.0
 11
114.1746344930733
 21
125.9850177697033
 31
0.0
  0
LINE
  5
447
  8
0
 62
     0
 10
8.3746344930756322
 20
20.18501776970561
 30
0.0
 11
10.37463449307563
 21
22.18501776970561
 31
0.0
  0
LINE
  5
448
  8
0
 62
     0
 10
112.1746344930732
 20
124.88304338181
 30
0.0
 11
114.1746344930734
 21
126.8830433818102
 31
0.0
  0
LINE
  5
449
  8
0
 62
     0
 10
8.3746344930757441
 20
21.083043381812558
 30
0.0
 11
10.374634493075741
 21
23.083043381812558
 31
0.0
  0
LINE
  5
44A
  8
0
 62
     0
 10
111.49376749974169
 20
125.1002020005854
 30
0.0
 11
114.1746344930734
 21
127.7810689939171
 31
0.0
  0
LINE
  5
44B
  8
0
 62
     0
 10
8.3746344930757441
 20
21.981068993919511
 30
0.0
 11
10.374634493075741
 21
23.981068993919511
 31
0.0
  0
LINE
  5
44C
  8
0
 62
     0
 10
110.5957418876346
 20
125.1002020005853
 30
0.0
 11
112.59574188763609
 21
127.10020200058671
 31
0.0
  0
LINE
  5
44D
  8
0
 62
     0
 10
112.7079678264073
 20
127.21242793935799
 30
0.0
 11
114.1746344930733
 21
128.67909460602399
 31
0.0
  0
LINE
  5
44E
  8
0
 62
     0
 10
8.3746344930756322
 20
22.879094606026339
 30
0.0
 11
10.374634493075741
 21
24.87909460602646
 31
0.0
  0
LINE
  5
44F
  8
0
 62
     0
 10
109.6977162755278
 20
125.1002020005853
 30
0.0
 11
111.6977162755291
 21
127.10020200058671
 31
0.0
  0
LINE
  5
450
  8
0
 62
     0
 10
112.7079678264075
 20
128.1104535514649
 30
0.0
 11
114.1746344930733
 21
129.5771202181308
 31
0.0
  0
LINE
  5
451
  8
0
 62
     0
 10
8.3746344930756322
 20
23.777120218133181
 30
0.0
 11
10.37463449307586
 21
25.777120218133401
 31
0.0
  0
LINE
  5
452
  8
0
 62
     0
 10
108.7996906634209
 20
125.1002020005853
 30
0.0
 11
110.7996906634222
 21
127.10020200058671
 31
0.0
  0
LINE
  5
453
  8
0
 62
     0
 10
112.5996906635162
 20
128.90020200068071
 30
0.0
 11
114.0643500311306
 21
130.3648613682951
 31
0.0
  0
LINE
  5
454
  8
0
 62
     0
 10
8.3746344930756322
 20
24.67514583024013
 30
0.0
 11
10.37463449307563
 21
26.67514583024013
 31
0.0
  0
LINE
  5
455
  8
0
 62
     0
 10
107.901665051314
 20
125.1002020005854
 30
0.0
 11
109.90166505131521
 21
127.10020200058671
 31
0.0
  0
LINE
  5
456
  8
0
 62
     0
 10
111.70166505140919
 20
128.90020200068071
 30
0.0
 11
113.1683317179952
 21
130.36686866726649
 31
0.0
  0
LINE
  5
457
  8
0
 62
     0
 10
8.3746344930756322
 20
25.573171442347078
 30
0.0
 11
10.374634493075741
 21
27.573171442347189
 31
0.0
  0
LINE
  5
458
  8
0
 62
     0
 10
107.00363943920691
 20
125.1002020005852
 30
0.0
 11
109.0036394392083
 21
127.10020200058671
 31
0.0
  0
LINE
  5
459
  8
0
 62
     0
 10
110.8036394393022
 20
128.90020200068051
 30
0.0
 11
112.2703061059046
 21
130.366868667283
 31
0.0
  0
LINE
  5
45A
  8
0
 62
     0
 10
8.3746344930756322
 20
26.47119705445402
 30
0.0
 11
10.374634493075741
 21
28.471197054454141
 31
0.0
  0
LINE
  5
45B
  8
0
 62
     0
 10
106.1056138271002
 20
125.1002020005854
 30
0.0
 11
108.10561382710161
 21
127.10020200058671
 31
0.0
  0
LINE
  5
45C
  8
0
 62
     0
 10
110.37463449307469
 20
129.36922266655989
 30
0.0
 11
111.372280493814
 21
130.36686866729929
 31
0.0
  0
LINE
  5
45D
  8
0
 62
     0
 10
8.3746344930756322
 20
27.369222666560859
 30
0.0
 11
10.37463449307586
 21
29.36922266656109
 31
0.0
  0
LINE
  5
45E
  8
0
 62
     0
 10
105.20758821499309
 20
125.1002020005853
 30
0.0
 11
107.2075882149946
 21
127.1002020005868
 31
0.0
  0
LINE
  5
45F
  8
0
 62
     0
 10
8.3746344930756322
 20
28.267248278667811
 30
0.0
 11
10.37463449307586
 21
30.267248278668038
 31
0.0
  0
LINE
  5
460
  8
0
 62
     0
 10
104.3095626028864
 20
125.1002020005854
 30
0.0
 11
106.30956260288769
 21
127.1002020005868
 31
0.0
  0
LINE
  5
461
  8
0
 62
     0
 10
8.3746344930756322
 20
29.16527389077476
 30
0.0
 11
10.37463449307586
 21
31.165273890774991
 31
0.0
  0
LINE
  5
462
  8
0
 62
     0
 10
103.4115369907792
 20
125.1002020005852
 30
0.0
 11
105.4115369907807
 21
127.10020200058671
 31
0.0
  0
LINE
  5
463
  8
0
 62
     0
 10
8.3746344930756322
 20
30.063299502881591
 30
0.0
 11
10.374634493075741
 21
32.063299502881712
 31
0.0
  0
LINE
  5
464
  8
0
 62
     0
 10
102.5135113786725
 20
125.1002020005854
 30
0.0
 11
104.5135113786738
 21
127.10020200058671
 31
0.0
  0
LINE
  5
465
  8
0
 62
     0
 10
8.3746344930756322
 20
30.96132511498854
 30
0.0
 11
10.374634493075741
 21
32.961325114988647
 31
0.0
  0
LINE
  5
466
  8
0
 62
     0
 10
101.6154857665655
 20
125.1002020005853
 30
0.0
 11
103.61548576656691
 21
127.10020200058671
 31
0.0
  0
LINE
  5
467
  8
0
 62
     0
 10
8.3746344930755185
 20
31.859350727095379
 30
0.0
 11
10.374634493075741
 21
33.859350727095602
 31
0.0
  0
LINE
  5
468
  8
0
 62
     0
 10
100.71746015445861
 20
125.1002020005854
 30
0.0
 11
102.71746015446
 21
127.1002020005868
 31
0.0
  0
LINE
  5
469
  8
0
 62
     0
 10
8.3746344930755185
 20
32.757376339202331
 30
0.0
 11
10.374634493075741
 21
34.757376339202551
 31
0.0
  0
LINE
  5
46A
  8
0
 62
     0
 10
99.819434542351715
 20
125.1002020005853
 30
0.0
 11
101.81943454235321
 21
127.1002020005868
 31
0.0
  0
LINE
  5
46B
  8
0
 62
     0
 10
8.3746344930756322
 20
33.65540195130928
 30
0.0
 11
10.37463449307586
 21
35.6554019513095
 31
0.0
  0
LINE
  5
46C
  8
0
 62
     0
 10
98.921408930244979
 20
125.1002020005856
 30
0.0
 11
100.9214089302462
 21
127.1002020005868
 31
0.0
  0
LINE
  5
46D
  8
0
 62
     0
 10
8.3746344930756322
 20
34.553427563416221
 30
0.0
 11
10.374634493075741
 21
36.553427563416342
 31
0.0
  0
LINE
  5
46E
  8
0
 62
     0
 10
98.023383318137931
 20
125.1002020005853
 30
0.0
 11
100.0233833181391
 21
127.10020200058671
 31
0.0
  0
LINE
  5
46F
  8
0
 62
     0
 10
8.3746344930756322
 20
35.45145317552317
 30
0.0
 11
10.374634493075741
 21
37.451453175523277
 31
0.0
  0
LINE
  5
470
  8
0
 62
     0
 10
97.125357706031096
 20
125.1002020005854
 30
0.0
 11
99.125357706032219
 21
127.10020200058661
 31
0.0
  0
LINE
  5
471
  8
0
 62
     0
 10
8.3746344930755185
 20
36.349478787629891
 30
0.0
 11
10.374634493075741
 21
38.349478787630119
 31
0.0
  0
LINE
  5
472
  8
0
 62
     0
 10
96.227332093924019
 20
125.1002020005853
 30
0.0
 11
98.227332093925497
 21
127.1002020005868
 31
0.0
  0
LINE
  5
473
  8
0
 62
     0
 10
8.3746344930755185
 20
37.24750439973684
 30
0.0
 11
10.374634493075741
 21
39.247504399737068
 31
0.0
  0
LINE
  5
474
  8
0
 62
     0
 10
95.329306481817071
 20
125.1002020005853
 30
0.0
 11
97.329306481818563
 21
127.1002020005868
 31
0.0
  0
LINE
  5
475
  8
0
 62
     0
 10
8.3746344930756322
 20
38.145530011843903
 30
0.0
 11
10.374634493075741
 21
40.145530011844023
 31
0.0
  0
LINE
  5
476
  8
0
 62
     0
 10
94.431280869710235
 20
125.1002020005853
 30
0.0
 11
96.431280869711713
 21
127.1002020005868
 31
0.0
  0
LINE
  5
477
  8
0
 62
     0
 10
8.3746344930757441
 20
39.043555623950851
 30
0.0
 11
10.374634493075741
 21
41.043555623950851
 31
0.0
  0
LINE
  5
478
  8
0
 62
     0
 10
93.533255257603514
 20
125.1002020005856
 30
0.0
 11
95.533255257604651
 21
127.10020200058671
 31
0.0
  0
LINE
  5
479
  8
0
 62
     0
 10
8.3746344930757441
 20
39.9415812360578
 30
0.0
 11
10.374634493075741
 21
41.9415812360578
 31
0.0
  0
LINE
  5
47A
  8
0
 62
     0
 10
92.635229645496452
 20
125.1002020005854
 30
0.0
 11
94.635229645497702
 21
127.10020200058671
 31
0.0
  0
LINE
  5
47B
  8
0
 62
     0
 10
8.3746344930757441
 20
40.839606848164742
 30
0.0
 11
10.374634493075741
 21
42.839606848164749
 31
0.0
  0
LINE
  5
47C
  8
0
 62
     0
 10
91.737204033389503
 20
125.1002020005853
 30
0.0
 11
93.737204033390753
 21
127.10020200058661
 31
0.0
  0
LINE
  5
47D
  8
0
 62
     0
 10
8.3746344930757441
 20
41.737632460271577
 30
0.0
 11
10.374634493075741
 21
43.737632460271577
 31
0.0
  0
LINE
  5
47E
  8
0
 62
     0
 10
90.839178421282554
 20
125.1002020005853
 30
0.0
 11
92.839178421284032
 21
127.1002020005868
 31
0.0
  0
LINE
  5
47F
  8
0
 62
     0
 10
8.3746344930756322
 20
42.635658072378412
 30
0.0
 11
10.374634493075741
 21
44.635658072378533
 31
0.0
  0
LINE
  5
480
  8
0
 62
     0
 10
89.941152809175605
 20
125.1002020005853
 30
0.0
 11
91.941152809177083
 21
127.1002020005868
 31
0.0
  0
LINE
  5
481
  8
0
 62
     0
 10
8.3746344930756322
 20
43.533683684485368
 30
0.0
 11
10.37463449307563
 21
45.533683684485368
 31
0.0
  0
LINE
  5
482
  8
0
 62
     0
 10
89.043127197068785
 20
125.1002020005853
 30
0.0
 11
91.043127197070007
 21
127.10020200058671
 31
0.0
  0
LINE
  5
483
  8
0
 62
     0
 10
8.3746344930756322
 20
44.431709296592309
 30
0.0
 11
10.37463449307563
 21
46.431709296592309
 31
0.0
  0
LINE
  5
484
  8
0
 62
     0
 10
88.145101584962035
 20
125.1002020005856
 30
0.0
 11
90.145101584963186
 21
127.10020200058671
 31
0.0
  0
LINE
  5
485
  8
0
 62
     0
 10
8.3746344930757441
 20
45.329734908699272
 30
0.0
 11
10.374634493075741
 21
47.329734908699258
 31
0.0
  0
LINE
  5
486
  8
0
 62
     0
 10
87.247075972854987
 20
125.1002020005854
 30
0.0
 11
89.247075972856237
 21
127.10020200058671
 31
0.0
  0
LINE
  5
487
  8
0
 62
     0
 10
8.3746344930757441
 20
46.227760520806207
 30
0.0
 11
10.37463449307586
 21
48.227760520806328
 31
0.0
  0
LINE
  5
488
  8
0
 62
     0
 10
86.349050360748024
 20
125.1002020005854
 30
0.0
 11
88.349050360749416
 21
127.10020200058671
 31
0.0
  0
LINE
  5
489
  8
0
 62
     0
 10
8.3746344930756322
 20
47.125786132913049
 30
0.0
 11
10.374634493075741
 21
49.125786132913163
 31
0.0
  0
LINE
  5
48A
  8
0
 62
     0
 10
85.451024748641075
 20
125.1002020005853
 30
0.0
 11
87.451024748642439
 21
127.10020200058671
 31
0.0
  0
LINE
  5
48B
  8
0
 62
     0
 10
8.3746344930756322
 20
48.023811745019877
 30
0.0
 11
10.37463449307586
 21
50.023811745020112
 31
0.0
  0
LINE
  5
48C
  8
0
 62
     0
 10
84.552999136534254
 20
125.1002020005853
 30
0.0
 11
86.552999136535504
 21
127.10020200058671
 31
0.0
  0
LINE
  5
48D
  8
0
 62
     0
 10
8.3746344930756322
 20
48.921837357126833
 30
0.0
 11
10.37463449307586
 21
50.92183735712706
 31
0.0
  0
LINE
  5
48E
  8
0
 62
     0
 10
83.654973524427305
 20
125.1002020005854
 30
0.0
 11
85.654973524428556
 21
127.10020200058671
 31
0.0
  0
LINE
  5
48F
  8
0
 62
     0
 10
8.3746344930756322
 20
49.819862969233782
 30
0.0
 11
10.374634493075741
 21
51.819862969233903
 31
0.0
  0
LINE
  5
490
  8
0
 62
     0
 10
82.756947912320356
 20
125.1002020005854
 30
0.0
 11
84.756947912321607
 21
127.10020200058671
 31
0.0
  0
LINE
  5
491
  8
0
 62
     0
 10
8.3746344930756322
 20
50.717888581340731
 30
0.0
 11
10.374634493075741
 21
52.717888581340837
 31
0.0
  0
LINE
  5
492
  8
0
 62
     0
 10
81.858922300213521
 20
125.1002020005854
 30
0.0
 11
83.858922300214886
 21
127.1002020005868
 31
0.0
  0
LINE
  5
493
  8
0
 62
     0
 10
8.3746344930756322
 20
51.615914193447558
 30
0.0
 11
10.37463449307586
 21
53.6159141934478
 31
0.0
  0
LINE
  5
494
  8
0
 62
     0
 10
80.960896688106573
 20
125.1002020005854
 30
0.0
 11
82.960896688107937
 21
127.1002020005868
 31
0.0
  0
LINE
  5
495
  8
0
 62
     0
 10
8.3746344930756322
 20
52.513939805554521
 30
0.0
 11
10.37463449307586
 21
54.513939805554742
 31
0.0
  0
LINE
  5
496
  8
0
 62
     0
 10
80.062871075999723
 20
125.1002020005854
 30
0.0
 11
82.062871076000988
 21
127.1002020005868
 31
0.0
  0
LINE
  5
497
  8
0
 62
     0
 10
8.3746344930756322
 20
53.411965417661463
 30
0.0
 11
10.37463449307586
 21
55.411965417661577
 31
0.0
  0
LINE
  5
498
  8
0
 62
     0
 10
79.164845463892561
 20
125.1002020005852
 30
0.0
 11
81.164845463894039
 21
127.10020200058671
 31
0.0
  0
LINE
  5
499
  8
0
 62
     0
 10
8.3746344930756322
 20
54.309991029768298
 30
0.0
 11
10.374634493075741
 21
56.309991029768412
 31
0.0
  0
LINE
  5
49A
  8
0
 62
     0
 10
78.26681985178584
 20
125.1002020005854
 30
0.0
 11
80.266819851787105
 21
127.10020200058671
 31
0.0
  0
LINE
  5
49B
  8
0
 62
     0
 10
8.3746344930757441
 20
55.208016641875361
 30
0.0
 11
10.374634493075741
 21
57.208016641875361
 31
0.0
  0
LINE
  5
49C
  8
0
 62
     0
 10
77.368794239678891
 20
125.1002020005854
 30
0.0
 11
79.368794239680255
 21
127.1002020005868
 31
0.0
  0
LINE
  5
49D
  8
0
 62
     0
 10
8.3746344930755185
 20
56.106042253982082
 30
0.0
 11
10.374634493075741
 21
58.106042253982309
 31
0.0
  0
LINE
  5
49E
  8
0
 62
     0
 10
76.470768627571942
 20
125.1002020005854
 30
0.0
 11
78.470768627573307
 21
127.1002020005868
 31
0.0
  0
LINE
  5
49F
  8
0
 62
     0
 10
8.3746344930757441
 20
57.004067866089258
 30
0.0
 11
10.374634493075741
 21
59.004067866089251
 31
0.0
  0
LINE
  5
4A0
  8
0
 62
     0
 10
75.572743015465221
 20
125.1002020005854
 30
0.0
 11
77.572743015466472
 21
127.1002020005868
 31
0.0
  0
LINE
  5
4A1
  8
0
 62
     0
 10
8.3746344930757441
 20
57.902093478196093
 30
0.0
 11
10.37463449307586
 21
59.902093478196093
 31
0.0
  0
LINE
  5
4A2
  8
0
 62
     0
 10
74.674717403358159
 20
125.1002020005856
 30
0.0
 11
76.674717403359395
 21
127.1002020005868
 31
0.0
  0
LINE
  5
4A3
  8
0
 62
     0
 10
8.3746344930756322
 20
58.800119090303042
 30
0.0
 11
10.37463449307563
 21
60.800119090303042
 31
0.0
  0
LINE
  5
4A4
  8
0
 62
     0
 10
73.776691791251196
 20
125.1002020005852
 30
0.0
 11
75.77669179125246
 21
127.10020200058661
 31
0.0
  0
LINE
  5
4A5
  8
0
 62
     0
 10
8.3746344930757441
 20
59.69814470240987
 30
0.0
 11
10.374634493075741
 21
61.698144702409877
 31
0.0
  0
LINE
  5
4A6
  8
0
 62
     0
 10
72.878666179144375
 20
125.1002020005856
 30
0.0
 11
74.878666179145512
 21
127.10020200058671
 31
0.0
  0
LINE
  5
4A7
  8
0
 62
     0
 10
8.3746344930757441
 20
60.596170314516932
 30
0.0
 11
10.374634493075741
 21
62.596170314516939
 31
0.0
  0
LINE
  5
4A8
  8
0
 62
     0
 10
71.980640567037426
 20
125.1002020005854
 30
0.0
 11
74.041301159740783
 21
127.1608625932888
 31
0.0
  0
LINE
  5
4A9
  8
0
 62
     0
 10
8.3746344930757441
 20
61.494195926623767
 30
0.0
 11
10.374634493075741
 21
63.494195926623767
 31
0.0
  0
LINE
  5
4AA
  8
0
 62
     0
 10
71.082614954930705
 20
125.1002020005854
 30
0.0
 11
74.041301159740897
 21
128.05888820539559
 31
0.0
  0
LINE
  5
4AB
  8
0
 62
     0
 10
8.3746344930757441
 20
62.39222153873061
 30
0.0
 11
10.37463449307586
 21
64.392221538730595
 31
0.0
  0
LINE
  5
4AC
  8
0
 62
     0
 10
70.184589342823415
 20
125.1002020005853
 30
0.0
 11
72.184212498622628
 21
127.0998251563845
 31
0.0
  0
LINE
  5
4AD
  8
0
 62
     0
 10
72.574634493074655
 20
127.49024715083659
 30
0.0
 11
74.041301159740669
 21
128.9569138175026
 31
0.0
  0
LINE
  5
4AE
  8
0
 62
     0
 10
8.3746344930756322
 20
63.290247150837558
 30
0.0
 11
10.37463449307563
 21
65.290247150837558
 31
0.0
  0
LINE
  5
4AF
  8
0
 62
     0
 10
69.286563730716807
 20
125.1002020005856
 30
0.0
 11
71.286236973048631
 21
127.09987524291741
 31
0.0
  0
LINE
  5
4B0
  8
0
 62
     0
 10
72.574634493074754
 20
128.3882727629435
 30
0.0
 11
74.026458097033355
 21
129.84009636690209
 31
0.0
  0
LINE
  5
4B1
  8
0
 62
     0
 10
8.3746344930757441
 20
64.188272762944493
 30
0.0
 11
10.374634493075741
 21
66.188272762944493
 31
0.0
  0
LINE
  5
4B2
  8
0
 62
     0
 10
68.388538118609745
 20
125.1002020005854
 30
0.0
 11
70.38826144747452
 21
127.0999253294502
 31
0.0
  0
LINE
  5
4B3
  8
0
 62
     0
 10
72.188538118705083
 20
128.90020200068079
 30
0.0
 11
73.611649812247265
 21
130.3233136942228
 31
0.0
  0
LINE
  5
4B4
  8
0
 62
     0
 10
8.3746344930757441
 20
65.086298375051456
 30
0.0
 11
10.374634493075741
 21
67.086298375051456
 31
0.0
  0
LINE
  5
4B5
  8
0
 62
     0
 10
67.490512506502796
 20
125.1002020005853
 30
0.0
 11
69.490285921900409
 21
127.0999754159829
 31
0.0
  0
LINE
  5
4B6
  8
0
 62
     0
 10
71.290512506598702
 20
128.90020200068119
 30
0.0
 11
72.757179173030181
 21
130.36686866711261
 31
0.0
  0
LINE
  5
4B7
  8
0
 62
     0
 10
8.3746344930757441
 20
65.984323987158177
 30
0.0
 11
10.374634493075741
 21
67.984323987158291
 31
0.0
  0
LINE
  5
4B8
  8
0
 62
     0
 10
66.592486894396075
 20
125.1002020005857
 30
0.0
 11
68.592310396326283
 21
127.1000255025159
 31
0.0
  0
LINE
  5
4B9
  8
0
 62
     0
 10
70.395630439354818
 20
128.9033455455444
 30
0.0
 11
71.859153560923687
 21
130.36686866711329
 31
0.0
  0
LINE
  5
4BA
  8
0
 62
     0
 10
8.3746344930756322
 20
66.88234959926524
 30
0.0
 11
10.374634493075741
 21
68.88234959926524
 31
0.0
  0
LINE
  5
4BB
  8
0
 62
     0
 10
65.694461282289126
 20
125.1002020005856
 30
0.0
 11
67.694334870752186
 21
127.1000755890486
 31
0.0
  0
LINE
  5
4BC
  8
0
 62
     0
 10
70.107967826408867
 20
129.51370854470531
 30
0.0
 11
70.961127948816966
 21
130.36686866711329
 31
0.0
  0
LINE
  5
4BD
  8
0
 62
     0
 10
8.3746344930756322
 20
67.780375211372075
 30
0.0
 11
10.37463449307563
 21
69.780375211372075
 31
0.0
  0
LINE
  5
4BE
  8
0
 62
     0
 10
64.796435670182177
 20
125.1002020005854
 30
0.0
 11
66.796359345178175
 21
127.1001256755814
 31
0.0
  0
LINE
  5
4BF
  8
0
 62
     0
 10
8.3746344930757441
 20
68.678400823479024
 30
0.0
 11
10.37463449307597
 21
70.678400823479123
 31
0.0
  0
LINE
  5
4C0
  8
0
 62
     0
 10
63.898410058075228
 20
125.1002020005856
 30
0.0
 11
65.898383819603964
 21
127.1001757621143
 31
0.0
  0
LINE
  5
4C1
  8
0
 62
     0
 10
8.3746344930756322
 20
69.576426435585972
 30
0.0
 11
10.37463449307563
 21
71.576426435585972
 31
0.0
  0
LINE
  5
4C2
  8
0
 62
     0
 10
63.00038444596828
 20
125.1002020005854
 30
0.0
 11
65.427967826395729
 21
127.5277853810129
 31
0.0
  0
LINE
  5
4C3
  8
0
 62
     0
 10
8.3746344930757441
 20
70.474452047692807
 30
0.0
 11
10.37463449307586
 21
72.474452047693035
 31
0.0
  0
LINE
  5
4C4
  8
0
 62
     0
 10
62.102358833861331
 20
125.1002020005854
 30
0.0
 11
65.754569891692199
 21
128.75241305841629
 31
0.0
  0
LINE
  5
4C5
  8
0
 62
     0
 10
8.3746344930756322
 20
71.372477659799756
 30
0.0
 11
10.37463449307586
 21
73.372477659799983
 31
0.0
  0
LINE
  5
4C6
  8
0
 62
     0
 10
61.204333221754382
 20
125.1002020005853
 30
0.0
 11
63.204333232224592
 21
127.1002020110555
 31
0.0
  0
LINE
  5
4C7
  8
0
 62
     0
 10
63.561301159730533
 20
127.45716993856151
 30
0.0
 11
65.530108949576174
 21
129.42597772840699
 31
0.0
  0
LINE
  5
4C8
  8
0
 62
     0
 10
8.3746344930756322
 20
72.270503271906591
 30
0.0
 11
10.37463449307586
 21
74.270503271906819
 31
0.0
  0
LINE
  5
4C9
  8
0
 62
     0
 10
60.306307609647661
 20
125.1002020005857
 30
0.0
 11
62.306307620117877
 21
127.1002020110558
 31
0.0
  0
LINE
  5
4CA
  8
0
 62
     0
 10
63.561301159730533
 20
128.3551955506685
 30
0.0
 11
65.645486107865736
 21
130.4393804988037
 31
0.0
  0
LINE
  5
4CB
  8
0
 62
     0
 10
8.3746344930756322
 20
73.168528884013654
 30
0.0
 11
10.37463449307586
 21
75.168528884013767
 31
0.0
  0
LINE
  5
4CC
  8
0
 62
     0
 10
59.408281997540598
 20
125.1002020005854
 30
0.0
 11
61.238555705422748
 21
126.9304757084676
 31
0.0
  0
LINE
  5
4CD
  8
0
 62
     0
 10
63.561301159730647
 20
129.2532211627755
 30
0.0
 11
65.744072260131588
 21
131.43599226317639
 31
0.0
  0
LINE
  5
4CE
  8
0
 62
     0
 10
8.3746344930757441
 20
74.066554496120602
 30
0.0
 11
10.374634493075741
 21
76.066554496120602
 31
0.0
  0
LINE
  5
4CF
  8
0
 62
     0
 10
58.510256385433763
 20
125.1002020005854
 30
0.0
 11
60.51025639590398
 21
127.1002020110555
 31
0.0
  0
LINE
  5
4D0
  8
0
 62
     0
 10
63.56130115973076
 20
130.1512467748824
 30
0.0
 11
65.339858947398966
 21
131.9298045625506
 31
0.0
  0
LINE
  5
4D1
  8
0
 62
     0
 10
8.3746344930757441
 20
74.964580108227324
 30
0.0
 11
10.37463449307586
 21
76.964580108227551
 31
0.0
  0
LINE
  5
4D2
  8
0
 62
     0
 10
57.612230773326701
 20
125.1002020005854
 30
0.0
 11
59.612230783796917
 21
127.1002020110556
 31
0.0
  0
LINE
  5
4D3
  8
0
 62
     0
 10
63.31357237578743
 20
130.80154360304621
 30
0.0
 11
64.585159972615202
 21
132.0731311998739
 31
0.0
  0
LINE
  5
4D4
  8
0
 62
     0
 10
8.3746344930757441
 20
75.8626057203345
 30
0.0
 11
10.374634493075741
 21
77.8626057203345
 31
0.0
  0
LINE
  5
4D5
  8
0
 62
     0
 10
56.714205161219873
 20
125.1002020005854
 30
0.0
 11
58.99253690512807
 21
127.37853374449359
 31
0.0
  0
LINE
  5
4D6
  8
0
 62
     0
 10
62.984872188506991
 20
131.3708690278726
 30
0.0
 11
63.687134350507328
 21
132.0731311898729
 31
0.0
  0
LINE
  5
4D7
  8
0
 62
     0
 10
8.3746344930758596
 20
76.760631332441335
 30
0.0
 11
10.37463449307586
 21
78.760631332441434
 31
0.0
  0
LINE
  5
4D8
  8
0
 62
     0
 10
55.816179549113031
 20
125.1002020005856
 30
0.0
 11
58.987967826420793
 21
128.27199027789331
 31
0.0
  0
LINE
  5
4D9
  8
0
 62
     0
 10
8.3746344930757441
 20
77.658656944548284
 30
0.0
 11
10.374634493075741
 21
79.658656944548284
 31
0.0
  0
LINE
  5
4DA
  8
0
 62
     0
 10
54.918153937006188
 20
125.1002020005856
 30
0.0
 11
56.918142605398089
 21
127.1001906689774
 31
0.0
  0
LINE
  5
4DB
  8
0
 62
     0
 10
57.121301159752761
 20
127.30334922333211
 30
0.0
 11
58.987967826420572
 21
129.17001588999989
 31
0.0
  0
LINE
  5
4DC
  8
0
 62
     0
 10
8.3746344930757441
 20
78.556682556655119
 30
0.0
 11
10.374634493075741
 21
80.556682556655119
 31
0.0
  0
LINE
  5
4DD
  8
0
 62
     0
 10
54.020128324899133
 20
125.1002020005856
 30
0.0
 11
56.020066901170708
 21
127.1001405768571
 31
0.0
  0
LINE
  5
4DE
  8
0
 62
     0
 10
56.896730592514359
 20
127.97680426820069
 30
0.0
 11
58.987967826420459
 21
130.06804150210689
 31
0.0
  0
LINE
  5
4DF
  8
0
 62
     0
 10
8.3746344930757441
 20
79.454708168762181
 30
0.0
 11
10.374634493075741
 21
81.454708168762167
 31
0.0
  0
LINE
  5
4E0
  8
0
 62
     0
 10
53.122102712792177
 20
125.1002020005854
 30
0.0
 11
55.121991196943327
 21
127.1000904847366
 31
0.0
  0
LINE
  5
4E1
  8
0
 62
     0
 10
57.012107750779251
 20
128.99020703857249
 30
0.0
 11
59.76762471845074
 21
131.7457240062439
 31
0.0
  0
LINE
  5
4E2
  8
0
 62
     0
 10
8.3746344930757441
 20
80.352733780869016
 30
0.0
 11
10.374634493075741
 21
82.352733780869016
 31
0.0
  0
LINE
  5
4E3
  8
0
 62
     0
 10
52.224077100685463
 20
125.1002020005854
 30
0.0
 11
54.22391549271606
 21
127.10004039261599
 31
0.0
  0
LINE
  5
4E4
  8
0
 62
     0
 10
56.791211035225963
 20
129.667335935126
 30
0.0
 11
59.197006286243322
 21
132.0731311861434
 31
0.0
  0
LINE
  5
4E5
  8
0
 62
     0
 10
8.3746344930758596
 20
81.250759392975866
 30
0.0
 11
10.37463449307586
 21
83.250759392975965
 31
0.0
  0
LINE
  5
4E6
  8
0
 62
     0
 10
51.326051488578173
 20
125.1002020005853
 30
0.0
 11
53.325839788488452
 21
127.09999030049561
 31
0.0
  0
LINE
  5
4E7
  8
0
 62
     0
 10
56.877977700492693
 20
130.6521282124998
 30
0.0
 11
58.298980684137398
 21
132.07313119614449
 31
0.0
  0
LINE
  5
4E8
  8
0
 62
     0
 10
8.3746344930756322
 20
82.1487850050828
 30
0.0
 11
10.37463449307563
 21
84.1487850050828
 31
0.0
  0
LINE
  5
4E9
  8
0
 62
     0
 10
50.428025876471558
 20
125.1002020005854
 30
0.0
 11
52.427764084261177
 21
127.099940208375
 31
0.0
  0
LINE
  5
4EA
  8
0
 62
     0
 10
57.164273586538108
 20
131.836449710652
 30
0.0
 11
57.386635122385201
 21
132.058811246499
 31
0.0
  0
LINE
  5
4EB
  8
0
 62
     0
 10
8.3746344930757441
 20
83.046810617189635
 30
0.0
 11
10.374634493075741
 21
85.046810617189635
 31
0.0
  0
LINE
  5
4EC
  8
0
 62
     0
 10
49.530000264364503
 20
125.1002020005854
 30
0.0
 11
51.529688380033797
 21
127.0998901162547
 31
0.0
  0
LINE
  5
4ED
  8
0
 62
     0
 10
8.3746344930757441
 20
83.944836229296683
 30
0.0
 11
10.374634493075741
 21
85.944836229296698
 31
0.0
  0
LINE
  5
4EE
  8
0
 62
     0
 10
48.631974652257661
 20
125.1002020005854
 30
0.0
 11
50.631612675806309
 21
127.099840024134
 31
0.0
  0
LINE
  5
4EF
  8
0
 62
     0
 10
8.3746344930757441
 20
84.842861841403533
 30
0.0
 11
10.374634493075741
 21
86.842861841403518
 31
0.0
  0
LINE
  5
4F0
  8
0
 62
     0
 10
47.733949040150833
 20
125.1002020005856
 30
0.0
 11
49.974634493074973
 21
127.34088745350979
 31
0.0
  0
LINE
  5
4F1
  8
0
 62
     0
 10
51.533949040246618
 20
128.9002020006815
 30
0.0
 11
52.441301159740981
 21
129.80755412017581
 31
0.0
  0
LINE
  5
4F2
  8
0
 62
     0
 10
8.3746344930757441
 20
85.740887453510481
 30
0.0
 11
10.37463449307586
 21
87.740887453510695
 31
0.0
  0
LINE
  5
4F3
  8
0
 62
     0
 10
46.835923428043877
 20
125.1002020005856
 30
0.0
 11
49.974634493074973
 21
128.2389130656166
 31
0.0
  0
LINE
  5
4F4
  8
0
 62
     0
 10
50.635923428139222
 20
128.90020200068091
 30
0.0
 11
52.102590094571951
 21
130.36686866711361
 31
0.0
  0
LINE
  5
4F5
  8
0
 62
     0
 10
8.3746344930756322
 20
86.638913065617317
 30
0.0
 11
10.37463449307586
 21
88.638913065617544
 31
0.0
  0
LINE
  5
4F6
  8
0
 62
     0
 10
45.937897815936928
 20
125.1002020005853
 30
0.0
 11
47.937897815938179
 21
127.10020200058671
 31
0.0
  0
LINE
  5
4F7
  8
0
 62
     0
 10
48.507967826409072
 20
127.67027201105741
 30
0.0
 11
51.204564482464889
 21
130.36686866711341
 31
0.0
  0
LINE
  5
4F8
  8
0
 62
     0
 10
8.3746344930757441
 20
87.536938677724265
 30
0.0
 11
10.37463449307597
 21
89.536938677724478
 31
0.0
  0
LINE
  5
4F9
  8
0
 62
     0
 10
45.039872203829979
 20
125.1002020005856
 30
0.0
 11
47.039872203831123
 21
127.10020200058671
 31
0.0
  0
LINE
  5
4FA
  8
0
 62
     0
 10
48.507967826408837
 20
128.5682976231644
 30
0.0
 11
50.306538870357478
 21
130.36686866711301
 31
0.0
  0
LINE
  5
4FB
  8
0
 62
     0
 10
8.3746344930756322
 20
88.434964289831214
 30
0.0
 11
10.374634493075741
 21
90.434964289831314
 31
0.0
  0
LINE
  5
4FC
  8
0
 62
     0
 10
44.141846591723031
 20
125.1002020005853
 30
0.0
 11
46.141846591724288
 21
127.10020200058661
 31
0.0
  0
LINE
  5
4FD
  8
0
 62
     0
 10
48.507967826408951
 20
129.4663232352712
 30
0.0
 11
49.408513258250188
 21
130.3668686671125
 31
0.0
  0
LINE
  5
4FE
  8
0
 62
     0
 10
8.3746344930757441
 20
89.332989901938035
 30
0.0
 11
10.37463449307586
 21
91.332989901938163
 31
0.0
  0
LINE
  5
4FF
  8
0
 62
     0
 10
43.243820979616089
 20
125.1002020005854
 30
0.0
 11
45.243820979617453
 21
127.10020200058671
 31
0.0
  0
LINE
  5
500
  8
0
 62
     0
 10
8.3746344930756322
 20
90.231015514044984
 30
0.0
 11
10.37463449307586
 21
92.231015514045225
 31
0.0
  0
LINE
  5
501
  8
0
 62
     0
 10
42.34579536750914
 20
125.1002020005853
 30
0.0
 11
44.345795367510497
 21
127.10020200058671
 31
0.0
  0
LINE
  5
502
  8
0
 62
     0
 10
8.3746344930758596
 20
91.12904112615206
 30
0.0
 11
10.37463449307586
 21
93.129041126152046
 31
0.0
  0
LINE
  5
503
  8
0
 62
     0
 10
41.447769755402412
 20
125.1002020005857
 30
0.0
 11
43.447769755403549
 21
127.1002020005868
 31
0.0
  0
LINE
  5
504
  8
0
 62
     0
 10
8.3746344930756322
 20
92.027066738258895
 30
0.0
 11
10.37463449307586
 21
94.027066738259123
 31
0.0
  0
LINE
  5
505
  8
0
 62
     0
 10
40.549744143295349
 20
125.1002020005854
 30
0.0
 11
42.549744143296607
 21
127.10020200058671
 31
0.0
  0
LINE
  5
506
  8
0
 62
     0
 10
8.3746344930756322
 20
92.925092350365745
 30
0.0
 11
10.374634493075741
 21
94.925092350365844
 31
0.0
  0
LINE
  5
507
  8
0
 62
     0
 10
39.651718531188642
 20
125.1002020005856
 30
0.0
 11
41.651718531189651
 21
127.10020200058661
 31
0.0
  0
LINE
  5
508
  8
0
 62
     0
 10
8.3746344930757441
 20
93.823117962472679
 30
0.0
 11
10.37463449307586
 21
95.823117962472793
 31
0.0
  0
LINE
  5
509
  8
0
 62
     0
 10
38.753692919081459
 20
125.1002020005854
 30
0.0
 11
40.753692919082823
 21
127.10020200058671
 31
0.0
  0
LINE
  5
50A
  8
0
 62
     0
 10
8.3746344930757441
 20
94.721143574579727
 30
0.0
 11
10.374634493075741
 21
96.721143574579742
 31
0.0
  0
LINE
  5
50B
  8
0
 62
     0
 10
37.855667306974631
 20
125.1002020005853
 30
0.0
 11
39.855667306975988
 21
127.10020200058671
 31
0.0
  0
LINE
  5
50C
  8
0
 62
     0
 10
8.3746344930758596
 20
95.619169186686577
 30
0.0
 11
10.37463449307586
 21
97.619169186686577
 31
0.0
  0
LINE
  5
50D
  8
0
 62
     0
 10
36.957641694867789
 20
125.1002020005854
 30
0.0
 11
38.957641694869039
 21
127.1002020005868
 31
0.0
  0
LINE
  5
50E
  8
0
 62
     0
 10
8.3746344930757441
 20
96.517194798793525
 30
0.0
 11
10.37463449307586
 21
98.517194798793625
 31
0.0
  0
LINE
  5
50F
  8
0
 62
     0
 10
36.059616082760947
 20
125.1002020005856
 30
0.0
 11
38.059616082762091
 21
127.10020200058671
 31
0.0
  0
LINE
  5
510
  8
0
 62
     0
 10
8.3746344930757441
 20
97.415220410900361
 30
0.0
 11
10.374634493075741
 21
99.415220410900375
 31
0.0
  0
LINE
  5
511
  8
0
 62
     0
 10
35.161590470653891
 20
125.1002020005856
 30
0.0
 11
37.161590470655028
 21
127.10020200058671
 31
0.0
  0
LINE
  5
512
  8
0
 62
     0
 10
8.3746344930757441
 20
98.313246023007423
 30
0.0
 11
10.374634493075741
 21
100.31324602300739
 31
0.0
  0
LINE
  5
513
  8
0
 62
     0
 10
34.263564858546943
 20
125.1002020005854
 30
0.0
 11
36.263564858548079
 21
127.10020200058661
 31
0.0
  0
LINE
  5
514
  8
0
 62
     0
 10
8.3746344930757441
 20
99.211271635114258
 30
0.0
 11
10.374634493075741
 21
101.2112716351142
 31
0.0
  0
LINE
  5
515
  8
0
 62
     0
 10
33.365539246440107
 20
125.1002020005854
 30
0.0
 11
35.365539246441237
 21
127.10020200058661
 31
0.0
  0
LINE
  5
516
  8
0
 62
     0
 10
8.3746344930758596
 20
100.10929724722121
 30
0.0
 11
10.37463449307586
 21
102.10929724722121
 31
0.0
  0
LINE
  5
517
  8
0
 62
     0
 10
32.467513634333159
 20
125.1002020005854
 30
0.0
 11
34.467513634334409
 21
127.1002020005868
 31
0.0
  0
LINE
  5
518
  8
0
 62
     0
 10
8.3746344930756322
 20
101.007322859328
 30
0.0
 11
10.37463449307586
 21
103.0073228593282
 31
0.0
  0
LINE
  5
519
  8
0
 62
     0
 10
31.569488022226331
 20
125.1002020005854
 30
0.0
 11
33.569488022227581
 21
127.10020200058671
 31
0.0
  0
LINE
  5
51A
  8
0
 62
     0
 10
8.3746344930757441
 20
101.90534847143491
 30
0.0
 11
10.374634493075741
 21
103.90534847143491
 31
0.0
  0
LINE
  5
51B
  8
0
 62
     0
 10
30.671462410119261
 20
125.1002020005853
 30
0.0
 11
32.671462410120512
 21
127.10020200058671
 31
0.0
  0
LINE
  5
51C
  8
0
 62
     0
 10
8.3746344930757441
 20
102.8033740835419
 30
0.0
 11
10.37463449307597
 21
104.8033740835421
 31
0.0
  0
LINE
  5
51D
  8
0
 62
     0
 10
29.77343679801243
 20
125.1002020005854
 30
0.0
 11
31.77343679801357
 21
127.10020200058661
 31
0.0
  0
LINE
  5
51E
  8
0
 62
     0
 10
8.3746344930757441
 20
103.7013996956487
 30
0.0
 11
10.37463449307586
 21
105.7013996956489
 31
0.0
  0
LINE
  5
51F
  8
0
 62
     0
 10
28.875411185905481
 20
125.1002020005854
 30
0.0
 11
30.875411185906621
 21
127.10020200058661
 31
0.0
  0
LINE
  5
520
  8
0
 62
     0
 10
8.3746344930757441
 20
104.59942530775569
 30
0.0
 11
10.37463449307586
 21
106.59942530775579
 31
0.0
  0
LINE
  5
521
  8
0
 62
     0
 10
27.977385573798639
 20
125.1002020005854
 30
0.0
 11
29.977385573799779
 21
127.10020200058661
 31
0.0
  0
LINE
  5
522
  8
0
 62
     0
 10
8.3746344930756322
 20
105.4974509198625
 30
0.0
 11
10.37463449307586
 21
107.4974509198628
 31
0.0
  0
LINE
  5
523
  8
0
 62
     0
 10
27.07935996169158
 20
125.1002020005853
 30
0.0
 11
29.079359961693061
 21
127.1002020005868
 31
0.0
  0
LINE
  5
524
  8
0
 62
     0
 10
8.3746344930757441
 20
106.39547653196951
 30
0.0
 11
10.37463449307597
 21
108.39547653196971
 31
0.0
  0
LINE
  5
525
  8
0
 62
     0
 10
26.181334349584748
 20
125.1002020005856
 30
0.0
 11
28.181334349585882
 21
127.10020200058671
 31
0.0
  0
LINE
  5
526
  8
0
 62
     0
 10
8.3746344930756322
 20
107.2935021440764
 30
0.0
 11
10.37463449307586
 21
109.2935021440767
 31
0.0
  0
LINE
  5
527
  8
0
 62
     0
 10
25.2833087374778
 20
125.1002020005853
 30
0.0
 11
27.28330873747905
 21
127.10020200058661
 31
0.0
  0
LINE
  5
528
  8
0
 62
     0
 10
8.3746344930757441
 20
108.19152775618331
 30
0.0
 11
10.37463449307586
 21
110.1915277561834
 31
0.0
  0
LINE
  5
529
  8
0
 62
     0
 10
24.385283125370851
 20
125.1002020005854
 30
0.0
 11
26.385283125372101
 21
127.10020200058671
 31
0.0
  0
LINE
  5
52A
  8
0
 62
     0
 10
8.3746344930757441
 20
109.0895533682903
 30
0.0
 11
10.37463449307586
 21
111.0895533682904
 31
0.0
  0
LINE
  5
52B
  8
0
 62
     0
 10
23.487257513264129
 20
125.1002020005854
 30
0.0
 11
25.487257513265259
 21
127.10020200058671
 31
0.0
  0
LINE
  5
52C
  8
0
 62
     0
 10
8.3746344930756322
 20
109.9875789803971
 30
0.0
 11
10.37463449307586
 21
111.9875789803973
 31
0.0
  0
LINE
  5
52D
  8
0
 62
     0
 10
22.589231901157291
 20
125.1002020005856
 30
0.0
 11
24.589231901158431
 21
127.10020200058671
 31
0.0
  0
LINE
  5
52E
  8
0
 62
     0
 10
8.3746344930757441
 20
110.885604592504
 30
0.0
 11
10.37463449307597
 21
112.88560459250419
 31
0.0
  0
LINE
  5
52F
  8
0
 62
     0
 10
21.691206289050118
 20
125.1002020005853
 30
0.0
 11
23.691206289051362
 21
127.10020200058671
 31
0.0
  0
LINE
  5
530
  8
0
 62
     0
 10
8.3746344930756322
 20
111.7836302046109
 30
0.0
 11
10.37463449307586
 21
113.7836302046111
 31
0.0
  0
LINE
  5
531
  8
0
 62
     0
 10
20.79318067694339
 20
125.1002020005856
 30
0.0
 11
22.79318067694453
 21
127.10020200058671
 31
0.0
  0
LINE
  5
532
  8
0
 62
     0
 10
8.3746344930757441
 20
112.68165581671791
 30
0.0
 11
10.37463449307586
 21
114.68165581671801
 31
0.0
  0
LINE
  5
533
  8
0
 62
     0
 10
19.895155064836221
 20
125.1002020005854
 30
0.0
 11
21.895155064837471
 21
127.10020200058671
 31
0.0
  0
LINE
  5
534
  8
0
 62
     0
 10
8.3746344930756322
 20
113.5796814288248
 30
0.0
 11
10.374634493075741
 21
115.5796814288249
 31
0.0
  0
LINE
  5
535
  8
0
 62
     0
 10
18.997129452729379
 20
125.1002020005853
 30
0.0
 11
20.99712945273075
 21
127.10020200058671
 31
0.0
  0
LINE
  5
536
  8
0
 62
     0
 10
8.3746344930756322
 20
114.47770704093161
 30
0.0
 11
10.37463449307586
 21
116.4777070409318
 31
0.0
  0
LINE
  5
537
  8
0
 62
     0
 10
18.09910384062243
 20
125.1002020005854
 30
0.0
 11
20.099103840623801
 21
127.1002020005868
 31
0.0
  0
LINE
  5
538
  8
0
 62
     0
 10
8.3746344930758596
 20
115.3757326530389
 30
0.0
 11
10.37463449307586
 21
117.3757326530389
 31
0.0
  0
LINE
  5
539
  8
0
 62
     0
 10
17.201078228515708
 20
125.1002020005856
 30
0.0
 11
19.201078228516849
 21
127.10020200058671
 31
0.0
  0
LINE
  5
53A
  8
0
 62
     0
 10
8.3746344930757441
 20
116.2737582651456
 30
0.0
 11
10.37463449307586
 21
118.2737582651456
 31
0.0
  0
LINE
  5
53B
  8
0
 62
     0
 10
16.30305261640876
 20
125.1002020005854
 30
0.0
 11
18.30305261641001
 21
127.10020200058671
 31
0.0
  0
LINE
  5
53C
  8
0
 62
     0
 10
8.3746344930758596
 20
117.17178387725249
 30
0.0
 11
10.37463449307586
 21
119.17178387725249
 31
0.0
  0
LINE
  5
53D
  8
0
 62
     0
 10
15.405027004301701
 20
125.1002020005854
 30
0.0
 11
17.405027004302831
 21
127.10020200058661
 31
0.0
  0
LINE
  5
53E
  8
0
 62
     0
 10
8.3746344930757441
 20
118.0698094893595
 30
0.0
 11
10.37463449307597
 21
120.0698094893596
 31
0.0
  0
LINE
  5
53F
  8
0
 62
     0
 10
14.50700139219486
 20
125.1002020005854
 30
0.0
 11
16.50700139219623
 21
127.1002020005868
 31
0.0
  0
LINE
  5
540
  8
0
 62
     0
 10
8.3746344930758596
 20
118.96783510146641
 30
0.0
 11
10.37463449307597
 21
120.96783510146651
 31
0.0
  0
LINE
  5
541
  8
0
 62
     0
 10
13.6089757800878
 20
125.1002020005854
 30
0.0
 11
15.608975780089169
 21
127.1002020005868
 31
0.0
  0
LINE
  5
542
  8
0
 62
     0
 10
8.3746344930757441
 20
119.8658607135734
 30
0.0
 11
10.37463449307586
 21
121.8658607135735
 31
0.0
  0
LINE
  5
543
  8
0
 62
     0
 10
12.71095016798108
 20
125.1002020005854
 30
0.0
 11
14.710950167982331
 21
127.10020200058671
 31
0.0
  0
LINE
  5
544
  8
0
 62
     0
 10
8.3746344930757441
 20
120.7638863256801
 30
0.0
 11
10.37463449307597
 21
122.7638863256803
 31
0.0
  0
LINE
  5
545
  8
0
 62
     0
 10
11.81292455587424
 20
125.1002020005857
 30
0.0
 11
13.81292455587538
 21
127.1002020005868
 31
0.0
  0
LINE
  5
546
  8
0
 62
     0
 10
8.3746344930757441
 20
121.6619119377872
 30
0.0
 11
10.37463449307597
 21
123.66191193778739
 31
0.0
  0
LINE
  5
547
  8
0
 62
     0
 10
10.914898943767181
 20
125.1002020005854
 30
0.0
 11
12.914898943768319
 21
127.10020200058661
 31
0.0
  0
LINE
  5
548
  8
0
 62
     0
 10
8.3746344930757441
 20
122.559937549894
 30
0.0
 11
10.37463449307597
 21
124.5599375498941
 31
0.0
  0
LINE
  5
549
  8
0
 62
     0
 10
8.3746344930758596
 20
123.45796316200089
 30
0.0
 11
12.016873331661481
 21
127.10020200058661
 31
0.0
  0
LINE
  5
54A
  8
0
 62
     0
 10
8.3746344930757441
 20
124.3559887741078
 30
0.0
 11
11.11884771955442
 21
127.10020200058661
 31
0.0
  0
LINE
  5
54B
  8
0
 62
     0
 10
8.3746344930757441
 20
125.25401438621471
 30
0.0
 11
10.220822107447811
 21
127.1002020005868
 31
0.0
  0
LINE
  5
54C
  8
0
 62
     0
 10
11.122796495434731
 20
128.90020200068051
 30
0.0
 11
12.17463449307456
 21
129.95203999832049
 31
0.0
  0
LINE
  5
54D
  8
0
 62
     0
 10
8.3746344930757441
 20
126.1520399983217
 30
0.0
 11
9.8413011597417608
 21
127.6187066649877
 31
0.0
  0
LINE
  5
54E
  8
0
 62
     0
 10
10.22477088332778
 20
128.90020200068051
 30
0.0
 11
11.69143754995593
 21
130.36686866730869
 31
0.0
  0
LINE
  5
54F
  8
0
 62
     0
 10
8.3746344930757441
 20
127.0500656104285
 30
0.0
 11
9.8413011597417608
 21
128.51673227709449
 31
0.0
  0
LINE
  5
550
  8
0
 62
     0
 10
8.3746344930757441
 20
127.9480912225356
 30
0.0
 11
10.793411937832611
 21
130.36686866729241
 31
0.0
  0
LINE
  5
551
  8
0
 62
     0
 10
8.3746344930757441
 20
128.84611683464229
 30
0.0
 11
9.8953863257092962
 21
130.36686866727601
 31
0.0
  0
LINE
  5
552
  8
0
 62
     0
 10
8.3746344930757441
 20
129.74414244674929
 30
0.0
 11
8.9973607135860902
 21
130.36686866725961
 31
0.0
  0
ENDBLK
  5
554
  8
0
  0
BLOCK
  8
0
  2
*U4
 70
     1
 10
0.0
 20
0.0
 30
0.0
  3
*U4
  1

  0
LINE
  5
556
  8
0
 62
     0
 10
112.1746344930732
 20
125.1002020005855
 30
0.0
 11
112.1746344930732
 21
5.8335353339470402
 31
0.0
  0
LINE
  5
557
  8
0
 62
     0
 10
112.1746344930732
 20
5.8335353339470402
 30
0.0
 11
10.374634493075741
 21
5.8335353339470402
 31
0.0
  0
LINE
  5
558
  8
0
 62
     0
 10
10.374634493075741
 20
5.8335353339470402
 30
0.0
 11
10.374634493075741
 21
125.1002020005855
 31
0.0
  0
LINE
  5
559
  8
0
 62
     0
 10
10.374634493075741
 20
125.1002020005855
 30
0.0
 11
112.1746344930732
 21
125.1002020005855
 31
0.0
  0
LINE
  5
55A
  8
0
 62
     0
 10
57.121301159752647
 20
128.40646453870281
 30
0.0
 11
56.871444182870391
 21
128.29111799819
 31
0.0
  0
ARC
  5
55B
  8
0
 62
     0
 10
56.941301159740988
 20
128.1397978720986
 30
0.0
 40
0.1666666666666981
 50
114.7804214530062
 51
245.2195785479382
  0
LINE
  5
55C
  8
0
 62
     0
 10
56.871444182872892
 20
127.9884777460061
 30
0.0
 11
57.121301159752647
 21
127.87313120549361
 31
0.0
  0
LINE
  5
55D
  8
0
 62
     0
 10
57.121301159752647
 20
127.87313120549361
 30
0.0
 11
57.121301159752647
 21
127.1002020005868
 31
0.0
  0
LINE
  5
55E
  8
0
 62
     0
 10
57.121301159752647
 20
127.1002020005868
 30
0.0
 11
49.974634493074973
 21
127.09980337975099
 31
0.0
  0
LINE
  5
55F
  8
0
 62
     0
 10
49.974634493074973
 20
127.09980337975099
 30
0.0
 11
49.974634493074973
 21
128.90020200068059
 31
0.0
  0
LINE
  5
560
  8
0
 62
     0
 10
49.974634493074973
 20
128.90020200068059
 30
0.0
 11
52.107967826407503
 21
128.9002020006819
 31
0.0
  0
ARC
  5
561
  8
0
 62
     0
 10
52.107967826407503
 20
129.2335353340151
 30
0.0
 40
0.3333333333332575
 50
270.0
 51
0.0000000000097522
  0
LINE
  5
562
  8
0
 62
     0
 10
52.441301159740981
 20
129.23353533401519
 30
0.0
 11
52.441301159740981
 21
130.03353533378041
 31
0.0
  0
ARC
  5
563
  8
0
 62
     0
 10
52.107967826407503
 20
130.03353533378049
 30
0.0
 40
0.3333333333333333
 50
0.0000000000032569
 51
90.000000000013031
  0
LINE
  5
564
  8
0
 62
     0
 10
52.107967826407503
 20
130.36686866711381
 30
0.0
 11
49.1746344930757
 21
130.3668686671125
 31
0.0
  0
ARC
  5
565
  8
0
 62
     0
 10
49.174634493075928
 20
129.7002020004457
 30
0.0
 40
0.6666666666667803
 50
90.000000000019526
 51
179.99999999999019
  0
LINE
  5
566
  8
0
 62
     0
 10
48.507967826408951
 20
129.70020200044581
 30
0.0
 11
48.507967826408951
 21
127.1002020005868
 31
0.0
  0
LINE
  5
567
  8
0
 62
     0
 10
48.507967826408951
 20
127.1002020005868
 30
0.0
 11
9.8413011597417608
 21
127.1002020005868
 31
0.0
  0
LINE
  5
568
  8
0
 62
     0
 10
9.8413011597417608
 20
127.1002020005868
 30
0.0
 11
9.8413011597417608
 21
128.90020200068059
 31
0.0
  0
LINE
  5
569
  8
0
 62
     0
 10
9.8413011597417608
 20
128.90020200068059
 30
0.0
 11
11.84130115974108
 21
128.90020200068059
 31
0.0
  0
ARC
  5
56A
  8
0
 62
     0
 10
11.84130115974108
 20
129.23353533401379
 30
0.0
 40
0.3333333333332575
 50
270.0
 51
0.0000000000130296
  0
LINE
  5
56B
  8
0
 62
     0
 10
12.17463449307456
 20
129.23353533401399
 30
0.0
 11
12.17463449307456
 21
130.03353533397811
 31
0.0
  0
ARC
  5
56C
  8
0
 62
     0
 10
11.84130115974108
 20
130.03353533397811
 30
0.0
 40
0.3333333333333333
 50
0.0
 51
90.000000001263686
  0
LINE
  5
56D
  8
0
 62
     0
 10
11.841301159733799
 20
130.36686866731151
 30
0.0
 11
8.507967826407139
 21
130.3668686672508
 31
0.0
  0
ARC
  5
56E
  8
0
 62
     0
 10
8.5079678264096401
 20
130.2335353339169
 30
0.0
 40
0.1333333333338184
 50
90.000000001074781
 51
179.99999984210601
  0
LINE
  5
56F
  8
0
 62
     0
 10
8.3746344930757441
 20
130.2335353342844
 30
0.0
 11
8.3746344930757441
 21
3.8335353339470402
 31
0.0
  0
ARC
  5
570
  8
0
 62
     0
 10
8.5079678264096401
 20
3.833535333946954
 30
0.0
 40
0.1333333333338184
 50
180.0
 51
269.99999999973937
  0
LINE
  5
571
  8
0
 62
     0
 10
8.5079678264089562
 20
3.7002020006131451
 30
0.0
 11
114.04130115974
 21
3.700202000613217
 31
0.0
  0
ARC
  5
572
  8
0
 62
     0
 10
114.0413011597395
 20
3.8335353339468261
 30
0.0
 40
0.13333333333361
 50
270.00000000019543
 51
0.0000000000895284
  0
LINE
  5
573
  8
0
 62
     0
 10
114.1746344930732
 20
3.8335353339470402
 30
0.0
 11
114.1746344930732
 21
130.2335353342844
 31
0.0
  0
ARC
  5
574
  8
0
 62
     0
 10
114.0413011597395
 20
130.2335353339169
 30
0.0
 40
0.1333333333338184
 50
0.0
 51
89.999999841063854
  0
LINE
  5
575
  8
0
 62
     0
 10
114.04130115974181
 20
130.3668686672508
 30
0.0
 11
110.7079678264151
 21
130.36686866731139
 31
0.0
  0
ARC
  5
576
  8
0
 62
     0
 10
110.7079678264078
 20
130.03353533397811
 30
0.0
 40
0.3333333333332575
 50
89.999999998749345
 51
180.00000000001299
  0
LINE
  5
577
  8
0
 62
     0
 10
110.37463449307459
 20
130.03353533397811
 30
0.0
 11
110.37463449307459
 21
129.23353533401399
 31
0.0
  0
ARC
  5
578
  8
0
 62
     0
 10
110.7079678264078
 20
129.23353533401379
 30
0.0
 40
0.3333333333333333
 50
180.0
 51
270.00000000001302
  0
LINE
  5
579
  8
0
 62
     0
 10
110.7079678264078
 20
128.90020200068051
 30
0.0
 11
112.7079678264074
 21
128.90020200068059
 31
0.0
  0
LINE
  5
57A
  8
0
 62
     0
 10
112.7079678264074
 20
128.90020200068059
 30
0.0
 11
112.7079678264074
 21
127.1002020005868
 31
0.0
  0
LINE
  5
57B
  8
0
 62
     0
 10
112.7079678264074
 20
127.1002020005868
 30
0.0
 11
74.041301159740669
 21
127.1002020005868
 31
0.0
  0
LINE
  5
57C
  8
0
 62
     0
 10
74.041301159740669
 20
127.1002020005868
 30
0.0
 11
74.041301159740669
 21
129.70020200044581
 31
0.0
  0
ARC
  5
57D
  8
0
 62
     0
 10
73.374634493073927
 20
129.7002020004457
 30
0.0
 40
0.6666666666668182
 50
0.0
 51
89.999999999977206
  0
LINE
  5
57E
  8
0
 62
     0
 10
73.374634493073927
 20
130.3668686671125
 30
0.0
 11
70.441301159742125
 21
130.36686866711369
 31
0.0
  0
ARC
  5
57F
  8
0
 62
     0
 10
70.441301159742125
 20
130.03353533378049
 30
0.0
 40
0.3333333333332575
 50
90.0
 51
180.00000000000969
  0
LINE
  5
580
  8
0
 62
     0
 10
70.107967826408867
 20
130.03353533378041
 30
0.0
 11
70.107967826408867
 21
129.23353533401519
 31
0.0
  0
ARC
  5
581
  8
0
 62
     0
 10
70.441301159742125
 20
129.2335353340151
 30
0.0
 40
0.3333333333333333
 50
180.00000000000321
 51
270.00000000001302
  0
LINE
  5
582
  8
0
 62
     0
 10
70.441301159742125
 20
128.9002020006817
 30
0.0
 11
72.574634493074655
 21
128.90020200068059
 31
0.0
  0
LINE
  5
583
  8
0
 62
     0
 10
72.574634493074655
 20
128.90020200068059
 30
0.0
 11
72.574634493074655
 21
127.09980337975099
 31
0.0
  0
LINE
  5
584
  8
0
 62
     0
 10
72.574634493074655
 20
127.09980337975099
 30
0.0
 11
65.427967826396966
 21
127.1002020005868
 31
0.0
  0
LINE
  5
585
  8
0
 62
     0
 10
65.427967826396966
 20
127.1002020005868
 30
0.0
 11
65.427967826394479
 21
127.87313120549361
 31
0.0
  0
LINE
  5
586
  8
0
 62
     0
 10
65.427967826394479
 20
127.87313120549361
 30
0.0
 11
65.677824803276494
 21
127.9884777460064
 31
0.0
  0
ARC
  5
587
  8
0
 62
     0
 10
65.607967826408412
 20
128.13979787209871
 30
0.0
 40
0.1666666666667085
 50
294.78042145209639
 51
65.219578546981452
  0
LINE
  5
588
  8
0
 62
     0
 10
65.677824803279009
 20
128.29111799819
 30
0.0
 11
65.427967826394479
 21
128.40646453870281
 31
0.0
  0
LINE
  5
589
  8
0
 62
     0
 10
65.427967826394479
 20
128.40646453870281
 30
0.0
 11
65.677824803276494
 21
128.5218110792155
 31
0.0
  0
ARC
  5
58A
  8
0
 62
     0
 10
65.607967826408412
 20
128.6731312053079
 30
0.0
 40
0.1666666666667085
 50
294.78042145209639
 51
65.219578546981452
  0
LINE
  5
58B
  8
0
 62
     0
 10
65.677824803279009
 20
128.82445133139919
 30
0.0
 11
65.427967826394479
 21
128.93979787206709
 31
0.0
  0
LINE
  5
58C
  8
0
 62
     0
 10
65.427967826394479
 20
128.93979787206709
 30
0.0
 11
65.677824803276494
 21
129.05514441257981
 31
0.0
  0
ARC
  5
58D
  8
0
 62
     0
 10
65.607967826408412
 20
129.20646453867241
 30
0.0
 40
0.1666666666667085
 50
294.78042145209639
 51
65.219578546982817
  0
LINE
  5
58E
  8
0
 62
     0
 10
65.677824803279009
 20
129.3577846647637
 30
0.0
 11
65.427967826394479
 21
129.4731312054314
 31
0.0
  0
LINE
  5
58F
  8
0
 62
     0
 10
65.427967826394479
 20
129.4731312054314
 30
0.0
 11
65.677824803276494
 21
129.58847774594429
 31
0.0
  0
ARC
  5
590
  8
0
 62
     0
 10
65.607967826408185
 20
129.73979787203669
 30
0.0
 40
0.166666666666772
 50
294.78042145215318
 51
65.21957854688273
  0
LINE
  5
591
  8
0
 62
     0
 10
65.677824803279009
 20
129.89111799812801
 30
0.0
 11
65.427967826394479
 21
130.00646453864061
 31
0.0
  0
LINE
  5
592
  8
0
 62
     0
 10
65.427967826394479
 20
130.00646453864061
 30
0.0
 11
65.677824803276494
 21
130.1218110791535
 31
0.0
  0
ARC
  5
593
  8
0
 62
     0
 10
65.607967826408185
 20
130.2731312052459
 30
0.0
 40
0.166666666666772
 50
294.78042145215318
 51
65.21957854688273
  0
LINE
  5
594
  8
0
 62
     0
 10
65.677824803279009
 20
130.42445133133711
 30
0.0
 11
65.427967826394479
 21
130.53979787216019
 31
0.0
  0
LINE
  5
595
  8
0
 62
     0
 10
65.427967826394479
 20
130.53979787216019
 30
0.0
 11
65.677824803276494
 21
130.655144412673
 31
0.0
  0
ARC
  5
596
  8
0
 62
     0
 10
65.607967826408412
 20
130.80646453876551
 30
0.0
 40
0.1666666666667085
 50
294.78042145209639
 51
65.219578546982817
  0
LINE
  5
597
  8
0
 62
     0
 10
65.677824803279009
 20
130.95778466485689
 30
0.0
 11
65.427967826394479
 21
131.07313120536941
 31
0.0
  0
LINE
  5
598
  8
0
 62
     0
 10
65.427967826394479
 20
131.07313120536941
 30
0.0
 11
65.677824803276494
 21
131.1884777458821
 31
0.0
  0
ARC
  5
599
  8
0
 62
     0
 10
65.607967826408412
 20
131.3397978719747
 30
0.0
 40
0.1666666666667085
 50
294.78042145209639
 51
65.219578546982817
  0
LINE
  5
59A
  8
0
 62
     0
 10
65.677824803279009
 20
131.49111799806599
 30
0.0
 11
65.427967826399026
 21
131.60646453857851
 31
0.0
  0
LINE
  5
59B
  8
0
 62
     0
 10
65.427967826399026
 20
131.60646453857851
 30
0.0
 11
65.394251276013847
 21
131.7976805977859
 31
0.0
  0
ARC
  5
59C
  8
0
 62
     0
 10
65.065982025010044
 20
131.7397978718958
 30
0.0
 40
0.3333333333329818
 50
10.00000000022083
 51
90.000001250254144
  0
LINE
  5
59D
  8
0
 62
     0
 10
65.06598201773636
 20
132.0731312052288
 30
0.0
 11
63.041301156770487
 21
132.07313118268061
 31
0.0
  0
ARC
  5
59E
  8
0
 62
     0
 10
63.041301159739987
 20
131.80646451601291
 30
0.0
 40
0.2666666666675989
 50
90.000000638024375
 51
209.99999999972621
  0
LINE
  5
59F
  8
0
 62
     0
 10
62.810361052062717
 20
131.67313118268009
 30
0.0
 11
63.516642960990339
 21
130.4498150319526
 31
0.0
  0
ARC
  5
5A0
  8
0
 62
     0
 10
63.227967826395108
 20
130.2831483652821
 30
0.0
 40
0.333333333335607
 50
0.0
 51
29.99999999978186
  0
LINE
  5
5A1
  8
0
 62
     0
 10
63.561301159730647
 20
130.28314836528239
 30
0.0
 11
63.561301159730419
 21
127.433535344389
 31
0.0
  0
ARC
  5
5A2
  8
0
 62
     0
 10
63.227967826397389
 20
127.433535344389
 30
0.0
 40
0.3333333333332575
 50
270.0
 51
0.0
  0
LINE
  5
5A3
  8
0
 62
     0
 10
63.227967826397389
 20
127.1002020110557
 30
0.0
 11
61.512985211593097
 21
127.1002020110557
 31
0.0
  0
LINE
  5
5A4
  8
0
 62
     0
 10
61.512985211593097
 20
127.1002020110557
 30
0.0
 11
61.274634493073563
 21
126.90020201105609
 31
0.0
  0
LINE
  5
5A5
  8
0
 62
     0
 10
61.274634493073563
 20
126.90020201105609
 30
0.0
 11
61.036283774558569
 21
127.1002020110557
 31
0.0
  0
LINE
  5
5A6
  8
0
 62
     0
 10
61.036283774558569
 20
127.1002020110557
 30
0.0
 11
59.321301159754292
 21
127.1002020110557
 31
0.0
  0
ARC
  5
5A7
  8
0
 62
     0
 10
59.321301159754292
 20
127.4335353443888
 30
0.0
 40
0.3333333333331817
 50
180.00000000000159
 51
270.00000000002598
  0
LINE
  5
5A8
  8
0
 62
     0
 10
58.987967826421027
 20
127.433535344389
 30
0.0
 11
58.987967826420338
 21
130.28314836528739
 31
0.0
  0
ARC
  5
5A9
  8
0
 62
     0
 10
59.321301159753368
 20
130.28314836528551
 30
0.0
 40
0.3333333333330156
 50
149.99999999953221
 51
179.99999999966781
  0
LINE
  5
5AA
  8
0
 62
     0
 10
59.032626025160191
 20
130.44981503195439
 30
0.0
 11
59.738907934086228
 21
131.67313118268009
 31
0.0
  0
ARC
  5
5AB
  8
0
 62
     0
 10
59.50796782640964
 20
131.80646451601319
 30
0.0
 40
0.2666666666673281
 50
330.0000000001686
 51
89.999999361926797
  0
LINE
  5
5AC
  8
0
 62
     0
 10
59.507967829379368
 20
132.07313118268041
 30
0.0
 11
57.483286968415541
 21
132.07313120522869
 31
0.0
  0
ARC
  5
5AD
  8
0
 62
     0
 10
57.483286961142078
 20
131.73979787189501
 30
0.0
 40
0.3333333333337503
 50
89.999998749850064
 51
169.9999999996603
  0
LINE
  5
5AE
  8
0
 62
     0
 10
57.155017710138047
 20
131.79768059778601
 30
0.0
 11
57.121301159752647
 21
131.60646453857851
 31
0.0
  0
LINE
  5
5AF
  8
0
 62
     0
 10
57.121301159752647
 20
131.60646453857851
 30
0.0
 11
56.871444182870391
 21
131.4911179980659
 31
0.0
  0
ARC
  5
5B0
  8
0
 62
     0
 10
56.941301159740988
 20
131.3397978719745
 30
0.0
 40
0.1666666666666981
 50
114.7804214530062
 51
245.2195785479382
  0
LINE
  5
5B1
  8
0
 62
     0
 10
56.871444182872892
 20
131.18847774588201
 30
0.0
 11
57.121301159752647
 21
131.07313120536941
 31
0.0
  0
LINE
  5
5B2
  8
0
 62
     0
 10
57.121301159752647
 20
131.07313120536941
 30
0.0
 11
56.871444182870391
 21
130.95778466485669
 31
0.0
  0
ARC
  5
5B3
  8
0
 62
     0
 10
56.941301159740988
 20
130.8064645387654
 30
0.0
 40
0.1666666666666981
 50
114.7804214530062
 51
245.2195785479382
  0
LINE
  5
5B4
  8
0
 62
     0
 10
56.871444182872892
 20
130.6551444126728
 30
0.0
 11
57.121301159752647
 21
130.53979787184969
 31
0.0
  0
LINE
  5
5B5
  8
0
 62
     0
 10
57.121301159752647
 20
130.53979787184969
 30
0.0
 11
56.871444182870391
 21
130.4244513313372
 31
0.0
  0
ARC
  5
5B6
  8
0
 62
     0
 10
56.941301159740988
 20
130.27313120524579
 30
0.0
 40
0.1666666666666981
 50
114.7804214530062
 51
245.2195785479382
  0
LINE
  5
5B7
  8
0
 62
     0
 10
56.871444182872892
 20
130.1218110791533
 30
0.0
 11
57.121301159752647
 21
130.00646453864061
 31
0.0
  0
LINE
  5
5B8
  8
0
 62
     0
 10
57.121301159752647
 20
130.00646453864061
 30
0.0
 11
56.871444182870391
 21
129.89111799812801
 31
0.0
  0
ARC
  5
5B9
  8
0
 62
     0
 10
56.941301159740988
 20
129.7397978720366
 30
0.0
 40
0.1666666666666981
 50
114.7804214530062
 51
245.2195785479382
  0
LINE
  5
5BA
  8
0
 62
     0
 10
56.871444182872892
 20
129.58847774594409
 30
0.0
 11
57.121301159752647
 21
129.4731312052763
 31
0.0
  0
LINE
  5
5BB
  8
0
 62
     0
 10
57.121301159752647
 20
129.4731312052763
 30
0.0
 11
56.871444182870391
 21
129.35778466476361
 31
0.0
  0
ARC
  5
5BC
  8
0
 62
     0
 10
56.941301159740988
 20
129.20646453867221
 30
0.0
 40
0.1666666666666981
 50
114.7804214530062
 51
245.2195785479382
  0
LINE
  5
5BD
  8
0
 62
     0
 10
56.871444182872892
 20
129.05514441257969
 30
0.0
 11
57.121301159752647
 21
128.93979787191191
 31
0.0
  0
LINE
  5
5BE
  8
0
 62
     0
 10
57.121301159752647
 20
128.93979787191191
 30
0.0
 11
56.871444182870391
 21
128.82445133139919
 31
0.0
  0
ARC
  5
5BF
  8
0
 62
     0
 10
56.941301159740988
 20
128.67313120530781
 30
0.0
 40
0.1666666666666981
 50
114.7804214530062
 51
245.2195785479382
  0
LINE
  5
5C0
  8
0
 62
     0
 10
56.871444182872892
 20
128.5218110792153
 30
0.0
 11
57.121301159752647
 21
128.40646453870281
 31
0.0
  0
ENDBLK
  5
5C2
  8
0
  0
ENDSEC
  0
SECTION
  2
ENTITIES
  0
LINE
  5
278
  8
0
 62
     0
 10
1749.850267755804
 20
1751.3381637922059
 30
0.0
 11
1749.850267755804
 21
1572.4381637922479
 31
0.0
  0
LINE
  5
279
  8
0
 62
     0
 10
1749.850267755804
 20
1572.4381637922479
 30
0.0
 11
1597.150267755808
 21
1572.4381637922479
 31
0.0
  0
LINE
  5
27A
  8
0
 62
     0
 10
1597.150267755808
 20
1572.4381637922479
 30
0.0
 11
1597.150267755808
 21
1751.3381637922059
 31
0.0
  0
LINE
  5
27B
  8
0
 62
     0
 10
1597.150267755808
 20
1751.3381637922059
 30
0.0
 11
1749.850267755804
 21
1751.3381637922059
 31
0.0
  0
LINE
  5
27C
  8
0
 62
     0
 10
1667.2702677558241
 20
1756.2975575993819
 30
0.0
 11
1666.8954822905
 21
1756.124537788613
 31
0.0
  0
ARC
  5
27D
  8
0
 62
     0
 10
1667.0002677558059
 20
1755.8975575994759
 30
0.0
 40
0.2500000000000471
 50
114.7804214530062
 51
245.2195785479382
  0
LINE
  5
27E
  8
0
 62
     0
 10
1666.895482290503
 20
1755.670577410337
 30
0.0
 11
1667.2702677558241
 21
1755.4975575995679
 31
0.0
  0
LINE
  5
27F
  8
0
 62
     0
 10
1667.2702677558241
 20
1755.4975575995679
 30
0.0
 11
1667.2702677558241
 21
1754.338163792208
 31
0.0
  0
LINE
  5
280
  8
0
 62
     0
 10
1667.2702677558241
 20
1754.338163792208
 30
0.0
 11
1656.550267755807
 21
1754.3375658609541
 31
0.0
  0
LINE
  5
281
  8
0
 62
     0
 10
1656.550267755807
 20
1754.3375658609541
 30
0.0
 11
1656.550267755807
 21
1757.038163792349
 31
0.0
  0
LINE
  5
282
  8
0
 62
     0
 10
1656.550267755807
 20
1757.038163792349
 30
0.0
 11
1659.7502677558059
 21
1757.038163792351
 31
0.0
  0
ARC
  5
283
  8
0
 62
     0
 10
1659.7502677558059
 20
1757.5381637923499
 30
0.0
 40
0.4999999999998864
 50
270.0
 51
0.0000000000097522
  0
LINE
  5
284
  8
0
 62
     0
 10
1660.2502677558059
 20
1757.5381637923499
 30
0.0
 11
1660.2502677558059
 21
1758.738163791998
 31
0.0
  0
ARC
  5
285
  8
0
 62
     0
 10
1659.7502677558059
 20
1758.738163791998
 30
0.0
 40
0.5
 50
0.0000000000032569
 51
90.000000000013031
  0
LINE
  5
286
  8
0
 62
     0
 10
1659.7502677558059
 20
1759.2381637919991
 30
0.0
 11
1655.3502677558081
 21
1759.2381637919959
 31
0.0
  0
ARC
  5
287
  8
0
 62
     0
 10
1655.3502677558081
 20
1758.2381637919959
 30
0.0
 40
1.0000000000001701
 50
90.000000000019526
 51
179.99999999999019
  0
LINE
  5
288
  8
0
 62
     0
 10
1654.3502677558081
 20
1758.2381637919959
 30
0.0
 11
1654.3502677558081
 21
1754.338163792208
 31
0.0
  0
LINE
  5
289
  8
0
 62
     0
 10
1654.3502677558081
 20
1754.338163792208
 30
0.0
 11
1596.350267755807
 21
1754.338163792208
 31
0.0
  0
LINE
  5
28A
  8
0
 62
     0
 10
1596.350267755807
 20
1754.338163792208
 30
0.0
 11
1596.350267755807
 21
1757.038163792349
 31
0.0
  0
LINE
  5
28B
  8
0
 62
     0
 10
1596.350267755807
 20
1757.038163792349
 30
0.0
 11
1599.350267755806
 21
1757.038163792349
 31
0.0
  0
ARC
  5
28C
  8
0
 62
     0
 10
1599.350267755806
 20
1757.538163792349
 30
0.0
 40
0.4999999999998864
 50
270.0
 51
0.0000000000130296
  0
LINE
  5
28D
  8
0
 62
     0
 10
1599.850267755806
 20
1757.538163792349
 30
0.0
 11
1599.850267755806
 21
1758.7381637922949
 31
0.0
  0
ARC
  5
28E
  8
0
 62
     0
 10
1599.350267755806
 20
1758.7381637922949
 30
0.0
 40
0.5
 50
0.0
 51
90.000000001263686
  0
LINE
  5
28F
  8
0
 62
     0
 10
1599.3502677557949
 20
1759.2381637922949
 30
0.0
 11
1594.3502677558049
 21
1759.238163792204
 31
0.0
  0
ARC
  5
290
  8
0
 62
     0
 10
1594.350267755809
 20
1759.038163792203
 30
0.0
 40
0.2000000000007276
 50
90.000000001074781
 51
179.99999984210601
  0
LINE
  5
291
  8
0
 62
     0
 10
1594.150267755808
 20
1759.0381637927539
 30
0.0
 11
1594.150267755808
 21
1569.4381637922479
 31
0.0
  0
ARC
  5
292
  8
0
 62
     0
 10
1594.350267755809
 20
1569.4381637922479
 30
0.0
 40
0.2000000000007276
 50
180.0
 51
269.99999999973937
  0
LINE
  5
293
  8
0
 62
     0
 10
1594.3502677558081
 20
1569.238163792247
 30
0.0
 11
1752.6502677558051
 21
1569.238163792247
 31
0.0
  0
ARC
  5
294
  8
0
 62
     0
 10
1752.650267755804
 20
1569.4381637922479
 30
0.0
 40
0.200000000000415
 50
270.00000000019543
 51
0.0000000000895284
  0
LINE
  5
295
  8
0
 62
     0
 10
1752.8502677558049
 20
1569.4381637922479
 30
0.0
 11
1752.8502677558049
 21
1759.0381637927539
 31
0.0
  0
ARC
  5
296
  8
0
 62
     0
 10
1752.650267755804
 20
1759.038163792203
 30
0.0
 40
0.2000000000007276
 50
0.0
 51
89.999999841063854
  0
LINE
  5
297
  8
0
 62
     0
 10
1752.6502677558069
 20
1759.238163792204
 30
0.0
 11
1747.6502677558169
 21
1759.2381637922949
 31
0.0
  0
ARC
  5
298
  8
0
 62
     0
 10
1747.6502677558069
 20
1758.7381637922949
 30
0.0
 40
0.4999999999998864
 50
89.999999998749345
 51
180.00000000001299
  0
LINE
  5
299
  8
0
 62
     0
 10
1747.1502677558069
 20
1758.7381637922949
 30
0.0
 11
1747.1502677558069
 21
1757.538163792349
 31
0.0
  0
ARC
  5
29A
  8
0
 62
     0
 10
1747.6502677558069
 20
1757.538163792349
 30
0.0
 40
0.5
 50
180.0
 51
270.00000000001302
  0
LINE
  5
29B
  8
0
 62
     0
 10
1747.6502677558069
 20
1757.038163792349
 30
0.0
 11
1750.650267755806
 21
1757.038163792349
 31
0.0
  0
LINE
  5
29C
  8
0
 62
     0
 10
1750.650267755806
 20
1757.038163792349
 30
0.0
 11
1750.650267755806
 21
1754.338163792208
 31
0.0
  0
LINE
  5
29D
  8
0
 62
     0
 10
1750.650267755806
 20
1754.338163792208
 30
0.0
 11
1692.650267755806
 21
1754.338163792208
 31
0.0
  0
LINE
  5
29E
  8
0
 62
     0
 10
1692.650267755806
 20
1754.338163792208
 30
0.0
 11
1692.650267755806
 21
1758.2381637919959
 31
0.0
  0
ARC
  5
29F
  8
0
 62
     0
 10
1691.650267755806
 20
1758.2381637919959
 30
0.0
 40
1.0000000000002269
 50
0.0
 51
89.999999999977206
  0
LINE
  5
2A0
  8
0
 62
     0
 10
1691.650267755806
 20
1759.2381637919959
 30
0.0
 11
1687.250267755808
 21
1759.238163791998
 31
0.0
  0
ARC
  5
2A1
  8
0
 62
     0
 10
1687.250267755808
 20
1758.738163791998
 30
0.0
 40
0.4999999999998864
 50
90.0
 51
180.00000000000969
  0
LINE
  5
2A2
  8
0
 62
     0
 10
1686.750267755808
 20
1758.738163791998
 30
0.0
 11
1686.750267755808
 21
1757.5381637923499
 31
0.0
  0
ARC
  5
2A3
  8
0
 62
     0
 10
1687.250267755808
 20
1757.5381637923499
 30
0.0
 40
0.5
 50
180.00000000000321
 51
270.00000000001302
  0
LINE
  5
2A4
  8
0
 62
     0
 10
1687.250267755808
 20
1757.038163792351
 30
0.0
 11
1690.4502677558071
 21
1757.038163792349
 31
0.0
  0
LINE
  5
2A5
  8
0
 62
     0
 10
1690.4502677558071
 20
1757.038163792349
 30
0.0
 11
1690.4502677558071
 21
1754.3375658609541
 31
0.0
  0
LINE
  5
2A6
  8
0
 62
     0
 10
1690.4502677558071
 20
1754.3375658609541
 30
0.0
 11
1679.73026775579
 21
1754.338163792208
 31
0.0
  0
LINE
  5
2A7
  8
0
 62
     0
 10
1679.73026775579
 20
1754.338163792208
 30
0.0
 11
1679.7302677557859
 21
1755.4975575995679
 31
0.0
  0
LINE
  5
2A8
  8
0
 62
     0
 10
1679.7302677557859
 20
1755.4975575995679
 30
0.0
 11
1680.1050532211091
 21
1755.670577410337
 31
0.0
  0
ARC
  5
2A9
  8
0
 62
     0
 10
1680.000267755807
 20
1755.8975575994759
 30
0.0
 40
0.2500000000000627
 50
294.78042145209639
 51
65.219578546981452
  0
LINE
  5
2AA
  8
0
 62
     0
 10
1680.1050532211129
 20
1756.124537788613
 30
0.0
 11
1679.7302677557859
 21
1756.2975575993819
 31
0.0
  0
LINE
  5
2AB
  8
0
 62
     0
 10
1679.7302677557859
 20
1756.2975575993819
 30
0.0
 11
1680.1050532211091
 21
1756.470577410151
 31
0.0
  0
ARC
  5
2AC
  8
0
 62
     0
 10
1680.000267755807
 20
1756.697557599289
 30
0.0
 40
0.2500000000000627
 50
294.78042145209639
 51
65.219578546981452
  0
LINE
  5
2AD
  8
0
 62
     0
 10
1680.1050532211129
 20
1756.924537788427
 30
0.0
 11
1679.7302677557859
 21
1757.097557599428
 31
0.0
  0
LINE
  5
2AE
  8
0
 62
     0
 10
1679.7302677557859
 20
1757.097557599428
 30
0.0
 11
1680.1050532211091
 21
1757.270577410198
 31
0.0
  0
ARC
  5
2AF
  8
0
 62
     0
 10
1680.000267755807
 20
1757.4975575993369
 30
0.0
 40
0.2500000000000627
 50
294.78042145209639
 51
65.219578546982817
  0
LINE
  5
2B0
  8
0
 62
     0
 10
1680.1050532211129
 20
1757.7245377884731
 30
0.0
 11
1679.7302677557859
 21
1757.897557599475
 31
0.0
  0
LINE
  5
2B1
  8
0
 62
     0
 10
1679.7302677557859
 20
1757.897557599475
 30
0.0
 11
1680.1050532211091
 21
1758.0705774102439
 31
0.0
  0
ARC
  5
2B2
  8
0
 62
     0
 10
1680.000267755807
 20
1758.297557599383
 30
0.0
 40
0.250000000000158
 50
294.78042145215318
 51
65.21957854688273
  0
LINE
  5
2B3
  8
0
 62
     0
 10
1680.1050532211129
 20
1758.5245377885201
 30
0.0
 11
1679.7302677557859
 21
1758.697557599289
 31
0.0
  0
LINE
  5
2B4
  8
0
 62
     0
 10
1679.7302677557859
 20
1758.697557599289
 30
0.0
 11
1680.1050532211091
 21
1758.8705774100581
 31
0.0
  0
ARC
  5
2B5
  8
0
 62
     0
 10
1680.000267755807
 20
1759.097557599197
 30
0.0
 40
0.250000000000158
 50
294.78042145215318
 51
65.21957854688273
  0
LINE
  5
2B6
  8
0
 62
     0
 10
1680.1050532211129
 20
1759.3245377883329
 30
0.0
 11
1679.7302677557859
 21
1759.4975575995679
 31
0.0
  0
LINE
  5
2B7
  8
0
 62
     0
 10
1679.7302677557859
 20
1759.4975575995679
 30
0.0
 11
1680.1050532211091
 21
1759.670577410338
 31
0.0
  0
ARC
  5
2B8
  8
0
 62
     0
 10
1680.000267755807
 20
1759.8975575994759
 30
0.0
 40
0.2500000000000627
 50
294.78042145209639
 51
65.219578546982817
  0
LINE
  5
2B9
  8
0
 62
     0
 10
1680.1050532211129
 20
1760.124537788613
 30
0.0
 11
1679.7302677557859
 21
1760.2975575993819
 31
0.0
  0
LINE
  5
2BA
  8
0
 62
     0
 10
1679.7302677557859
 20
1760.2975575993819
 30
0.0
 11
1680.1050532211091
 21
1760.470577410151
 31
0.0
  0
ARC
  5
2BB
  8
0
 62
     0
 10
1680.000267755807
 20
1760.6975575992899
 30
0.0
 40
0.2500000000000627
 50
294.78042145209639
 51
65.219578546982817
  0
LINE
  5
2BC
  8
0
 62
     0
 10
1680.1050532211129
 20
1760.924537788427
 30
0.0
 11
1679.730267755793
 21
1761.0975575991961
 31
0.0
  0
LINE
  5
2BD
  8
0
 62
     0
 10
1679.730267755793
 20
1761.0975575991961
 30
0.0
 11
1679.6796929302161
 21
1761.3843816880069
 31
0.0
  0
ARC
  5
2BE
  8
0
 62
     0
 10
1679.1872890537099
 20
1761.297557599172
 30
0.0
 40
0.4999999999994726
 50
10.00000000022083
 51
90.000001250254144
  0
LINE
  5
2BF
  8
0
 62
     0
 10
1679.187289042799
 20
1761.7975575991709
 30
0.0
 11
1676.1502677513499
 21
1761.7975575653491
 31
0.0
  0
ARC
  5
2C0
  8
0
 62
     0
 10
1676.1502677558051
 20
1761.3975575653469
 30
0.0
 40
0.4000000000013984
 50
90.000000638024375
 51
209.99999999972621
  0
LINE
  5
2C1
  8
0
 62
     0
 10
1675.803857594288
 20
1761.197557565348
 30
0.0
 11
1676.86328045768
 21
1759.3625833392571
 31
0.0
  0
ARC
  5
2C2
  8
0
 62
     0
 10
1676.4302677557871
 20
1759.1125833392509
 30
0.0
 40
0.5000000000034106
 50
0.0
 51
29.99999999978186
  0
LINE
  5
2C3
  8
0
 62
     0
 10
1676.930267755791
 20
1759.1125833392521
 30
0.0
 11
1676.9302677557901
 21
1754.8381638079111
 31
0.0
  0
ARC
  5
2C4
  8
0
 62
     0
 10
1676.430267755791
 20
1754.8381638079111
 30
0.0
 40
0.4999999999998864
 50
270.0
 51
0.0
  0
LINE
  5
2C5
  8
0
 62
     0
 10
1676.430267755791
 20
1754.3381638079111
 30
0.0
 11
1673.8577938335841
 21
1754.3381638079111
 31
0.0
  0
LINE
  5
2C6
  8
0
 62
     0
 10
1673.8577938335841
 20
1754.3381638079111
 30
0.0
 11
1673.500267755805
 21
1754.038163807912
 31
0.0
  0
LINE
  5
2C7
  8
0
 62
     0
 10
1673.500267755805
 20
1754.038163807912
 30
0.0
 11
1673.142741678033
 21
1754.3381638079111
 31
0.0
  0
LINE
  5
2C8
  8
0
 62
     0
 10
1673.142741678033
 20
1754.3381638079111
 30
0.0
 11
1670.5702677558261
 21
1754.3381638079111
 31
0.0
  0
ARC
  5
2C9
  8
0
 62
     0
 10
1670.5702677558261
 20
1754.8381638079111
 30
0.0
 40
0.4999999999997726
 50
180.00000000000159
 51
270.00000000002598
  0
LINE
  5
2CA
  8
0
 62
     0
 10
1670.0702677558261
 20
1754.8381638079111
 30
0.0
 11
1670.0702677558249
 21
1759.1125833392589
 31
0.0
  0
ARC
  5
2CB
  8
0
 62
     0
 10
1670.5702677558249
 20
1759.1125833392559
 30
0.0
 40
0.4999999999995234
 50
149.99999999953221
 51
179.99999999966781
  0
LINE
  5
2CC
  8
0
 62
     0
 10
1670.137255053935
 20
1759.36258333926
 30
0.0
 11
1671.196677917324
 21
1761.197557565348
 31
0.0
  0
ARC
  5
2CD
  8
0
 62
     0
 10
1670.850267755809
 20
1761.3975575653481
 30
0.0
 40
0.4000000000009922
 50
330.0000000001686
 51
89.999999361926797
  0
LINE
  5
2CE
  8
0
 62
     0
 10
1670.8502677602639
 20
1761.7975575653479
 30
0.0
 11
1667.8132464688181
 21
1761.7975575991709
 31
0.0
  0
ARC
  5
2CF
  8
0
 62
     0
 10
1667.813246457908
 20
1761.29755759917
 30
0.0
 40
0.5000000000006254
 50
89.999998749850064
 51
169.9999999996603
  0
LINE
  5
2D0
  8
0
 62
     0
 10
1667.3208425814021
 20
1761.3843816880069
 30
0.0
 11
1667.2702677558241
 21
1761.0975575991961
 31
0.0
  0
LINE
  5
2D1
  8
0
 62
     0
 10
1667.2702677558241
 20
1761.0975575991961
 30
0.0
 11
1666.8954822905
 21
1760.924537788427
 31
0.0
  0
ARC
  5
2D2
  8
0
 62
     0
 10
1667.0002677558059
 20
1760.697557599289
 30
0.0
 40
0.2500000000000471
 50
114.7804214530062
 51
245.2195785479382
  0
LINE
  5
2D3
  8
0
 62
     0
 10
1666.895482290503
 20
1760.470577410151
 30
0.0
 11
1667.2702677558241
 21
1760.2975575993819
 31
0.0
  0
LINE
  5
2D4
  8
0
 62
     0
 10
1667.2702677558241
 20
1760.2975575993819
 30
0.0
 11
1666.8954822905
 21
1760.124537788613
 31
0.0
  0
ARC
  5
2D5
  8
0
 62
     0
 10
1667.0002677558059
 20
1759.8975575994759
 30
0.0
 40
0.2500000000000471
 50
114.7804214530062
 51
245.2195785479382
  0
LINE
  5
2D6
  8
0
 62
     0
 10
1666.895482290503
 20
1759.670577410337
 30
0.0
 11
1667.2702677558241
 21
1759.497557599102
 31
0.0
  0
LINE
  5
2D7
  8
0
 62
     0
 10
1667.2702677558241
 20
1759.497557599102
 30
0.0
 11
1666.8954822905
 21
1759.3245377883329
 31
0.0
  0
ARC
  5
2D8
  8
0
 62
     0
 10
1667.0002677558059
 20
1759.0975575991961
 30
0.0
 40
0.2500000000000471
 50
114.7804214530062
 51
245.2195785479382
  0
LINE
  5
2D9
  8
0
 62
     0
 10
1666.895482290503
 20
1758.8705774100581
 30
0.0
 11
1667.2702677558241
 21
1758.697557599289
 31
0.0
  0
LINE
  5
2DA
  8
0
 62
     0
 10
1667.2702677558241
 20
1758.697557599289
 30
0.0
 11
1666.8954822905
 21
1758.5245377885201
 31
0.0
  0
ARC
  5
2DB
  8
0
 62
     0
 10
1667.0002677558059
 20
1758.297557599383
 30
0.0
 40
0.2500000000000471
 50
114.7804214530062
 51
245.2195785479382
  0
LINE
  5
2DC
  8
0
 62
     0
 10
1666.895482290503
 20
1758.0705774102439
 30
0.0
 11
1667.2702677558241
 21
1757.897557599242
 31
0.0
  0
LINE
  5
2DD
  8
0
 62
     0
 10
1667.2702677558241
 20
1757.897557599242
 30
0.0
 11
1666.8954822905
 21
1757.7245377884731
 31
0.0
  0
ARC
  5
2DE
  8
0
 62
     0
 10
1667.0002677558059
 20
1757.497557599336
 30
0.0
 40
0.2500000000000471
 50
114.7804214530062
 51
245.2195785479382
  0
LINE
  5
2DF
  8
0
 62
     0
 10
1666.895482290503
 20
1757.2705774101969
 30
0.0
 11
1667.2702677558241
 21
1757.0975575991961
 31
0.0
  0
LINE
  5
2E0
  8
0
 62
     0
 10
1667.2702677558241
 20
1757.0975575991961
 30
0.0
 11
1666.8954822905
 21
1756.924537788427
 31
0.0
  0
ARC
  5
2E1
  8
0
 62
     0
 10
1667.0002677558059
 20
1756.697557599289
 30
0.0
 40
0.2500000000000471
 50
114.7804214530062
 51
245.2195785479382
  0
LINE
  5
2E2
  8
0
 62
     0
 10
1666.895482290503
 20
1756.470577410151
 30
0.0
 11
1667.2702677558241
 21
1756.2975575993819
 31
0.0
  0
ENDSEC
  0
EOF
