  0
SECTION
  2
HEADER
  9
$ACADVER
  1
AC1009
  9
$INSBASE
 10
0.0
 20
0.0
 30
0.0
  9
$EXTMIN
 10
1318.347292929679
 20
2021.238429702408
 30
0.0
  9
$EXTMAX
 10
1390.1166944961799
 20
2061.9643148530072
 30
0.0
  9
$LIMMIN
 10
0.0
 20
0.0
  9
$LIMMAX
 10
420.0
 20
297.0
  9
$ORTHOMODE
 70
     0
  9
$REGENMODE
 70
     1
  9
$FILLMODE
 70
     1
  9
$QTEXTMODE
 70
     0
  9
$MIRRTEXT
 70
     0
  9
$DRAGMODE
 70
     2
  9
$LTSCALE
 40
1.0
  9
$OSMODE
 70
  4095
  9
$ATTMODE
 70
     1
  9
$TEXTSIZE
 40
2.5
  9
$TRACEWID
 40
1.0
  9
$TEXTSTYLE
  7
STANDARD
  9
$CLAYER
  8
0
  9
$CELTYPE
  6
BYLAYER
  9
$CECOLOR
 62
   256
  9
$DIMSCALE
 40
1.0
  9
$DIMASZ
 40
2.5
  9
$DIMEXO
 40
0.625
  9
$DIMDLI
 40
3.75
  9
$DIMRND
 40
0.0
  9
$DIMDLE
 40
0.0
  9
$DIMEXE
 40
1.25
  9
$DIMTP
 40
0.0
  9
$DIMTM
 40
0.0
  9
$DIMTXT
 40
2.5
  9
$DIMCEN
 40
2.5
  9
$DIMTSZ
 40
0.0
  9
$DIMTOL
 70
     0
  9
$DIMLIM
 70
     0
  9
$DIMTIH
 70
     0
  9
$DIMTOH
 70
     0
  9
$DIMSE1
 70
     0
  9
$DIMSE2
 70
     0
  9
$DIMTAD
 70
     1
  9
$DIMZIN
 70
     8
  9
$DIMBLK
  1

  9
$DIMASO
 70
     1
  9
$DIMSHO
 70
     1
  9
$DIMPOST
  1

  9
$DIMAPOST
  1

  9
$DIMALT
 70
     0
  9
$DIMALTD
 70
     3
  9
$DIMALTF
 40
0.03937007874016
  9
$DIMLFAC
 40
1.0
  9
$DIMTOFL
 70
     1
  9
$DIMTVP
 40
0.0
  9
$DIMTIX
 70
     0
  9
$DIMSOXD
 70
     0
  9
$DIMSAH
 70
     0
  9
$DIMBLK1
  1

  9
$DIMBLK2
  1

  9
$DIMSTYLE
  2
ISO-25
  9
$DIMCLRD
 70
     0
  9
$DIMCLRE
 70
     0
  9
$DIMCLRT
 70
     0
  9
$DIMTFAC
 40
1.0
  9
$DIMGAP
 40
0.625
  9
$LUNITS
 70
     2
  9
$LUPREC
 70
     4
  9
$SKETCHINC
 40
1.0
  9
$FILLETRAD
 40
0.0
  9
$AUNITS
 70
     0
  9
$AUPREC
 70
     0
  9
$MENU
  1
.
  9
$ELEVATION
 40
0.0
  9
$PELEVATION
 40
0.0
  9
$THICKNESS
 40
0.0
  9
$LIMCHECK
 70
     0
  9
$BLIPMODE
 70
     0
  9
$CHAMFERA
 40
0.0
  9
$CHAMFERB
 40
0.0
  9
$SKPOLY
 70
     0
  9
$TDCREATE
 40
2457406.6927661109
  9
$TDUPDATE
 40
2457406.692914085
  9
$TDINDWG
 40
0.0001489005
  9
$TDUSRTIMER
 40
0.0001488889
  9
$USRTIMER
 70
     1
  9
$ANGBASE
 50
0.0
  9
$ANGDIR
 70
     0
  9
$PDMODE
 70
     0
  9
$PDSIZE
 40
0.0
  9
$PLINEWID
 40
0.0
  9
$COORDS
 70
     1
  9
$SPLFRAME
 70
     0
  9
$SPLINETYPE
 70
     6
  9
$SPLINESEGS
 70
     8
  9
$ATTDIA
 70
     1
  9
$ATTREQ
 70
     1
  9
$HANDLING
 70
     1
  9
$HANDSEED
  5
5A8
  9
$SURFTAB1
 70
     6
  9
$SURFTAB2
 70
     6
  9
$SURFTYPE
 70
     6
  9
$SURFU
 70
     6
  9
$SURFV
 70
     6
  9
$UCSNAME
  2

  9
$UCSORG
 10
0.0
 20
0.0
 30
0.0
  9
$UCSXDIR
 10
1.0
 20
0.0
 30
0.0
  9
$UCSYDIR
 10
0.0
 20
1.0
 30
0.0
  9
$PUCSNAME
  2

  9
$PUCSORG
 10
0.0
 20
0.0
 30
0.0
  9
$PUCSXDIR
 10
1.0
 20
0.0
 30
0.0
  9
$PUCSYDIR
 10
0.0
 20
1.0
 30
0.0
  9
$USERI1
 70
     0
  9
$USERI2
 70
     0
  9
$USERI3
 70
     0
  9
$USERI4
 70
     0
  9
$USERI5
 70
     0
  9
$USERR1
 40
0.0
  9
$USERR2
 40
0.0
  9
$USERR3
 40
0.0
  9
$USERR4
 40
0.0
  9
$USERR5
 40
0.0
  9
$WORLDVIEW
 70
     1
  9
$SHADEDGE
 70
     3
  9
$SHADEDIF
 70
    70
  9
$TILEMODE
 70
     1
  9
$MAXACTVP
 70
    64
  9
$PLIMCHECK
 70
     0
  9
$PEXTMIN
 10
0.0
 20
0.0
 30
0.0
  9
$PEXTMAX
 10
0.0
 20
0.0
 30
0.0
  9
$PLIMMIN
 10
0.0
 20
0.0
  9
$PLIMMAX
 10
12.0
 20
9.0
  9
$UNITMODE
 70
     0
  9
$VISRETAIN
 70
     1
  9
$PLINEGEN
 70
     0
  9
$PSLTSCALE
 70
     1
  0
ENDSEC
  0
SECTION
  2
TABLES
  0
TABLE
  2
VPORT
 70
     1
  0
VPORT
  2
*ACTIVE
 70
     0
 10
0.0
 20
0.0
 11
1.0
 21
1.0
 12
1354.2319937129289
 22
2041.601372277707
 13
0.0
 23
0.0
 14
10.0
 24
10.0
 15
10.0
 25
10.0
 16
0.0
 26
0.0
 36
1.0
 17
0.0
 27
0.0
 37
0.0
 40
41.029432120665433
 41
2.1878109452736312
 42
50.0
 43
0.0
 44
0.0
 50
0.0
 51
0.0
 71
     0
 72
  1000
 73
     1
 74
     3
 75
     0
 76
     1
 77
     0
 78
     0
  0
ENDTAB
  0
TABLE
  2
LTYPE
 70
     1
  0
LTYPE
  2
CONTINUOUS
 70
     0
  3
Solid line
 72
    65
 73
     0
 40
0.0
  0
ENDTAB
  0
TABLE
  2
LAYER
 70
     1
  0
LAYER
  2
0
 70
     0
 62
     7
  6
CONTINUOUS
  0
ENDTAB
  0
TABLE
  2
STYLE
 70
     3
  0
STYLE
  2
STANDARD
 70
     0
 40
0.0
 41
1.0
 50
0.0
 71
     0
 42
2.5
  3
txt
  4

  0
STYLE
  2
ANNOTATIVE
 70
     0
 40
0.0
 41
1.0
 50
0.0
 71
     0
 42
2.5
  3
txt
  4

  0
STYLE
  2
ROMANT
 70
     0
 40
2.6000000000000001
 41
1.0
 50
0.0
 71
     0
 42
2.5
  3
romant.shx
  4

  0
ENDTAB
  0
TABLE
  2
VIEW
 70
     1
  0
ENDTAB
  0
TABLE
  2
UCS
 70
     0
  0
ENDTAB
  0
TABLE
  2
APPID
 70
    10
  0
APPID
  2
ACAD
 70
     0
  0
APPID
  2
ACAD_PSEXT
 70
     0
  0
APPID
  2
ACADANNOPO
 70
     0
  0
APPID
  2
ACADANNOTATIVE
 70
     0
  0
APPID
  2
ACAD_DSTYLE_DIMJAG
 70
     0
  0
APPID
  2
ACAD_DSTYLE_DIMTALN
 70
     0
  0
APPID
  2
ACAD_MLEADERVER
 70
     0
  0
APPID
  2
ACAD_NAV_VCDISPLAY
 70
     0
  0
APPID
  2
GRADIENTCOLOR1ACI
 70
     0
  0
APPID
  2
GRADIENTCOLOR2ACI
 70
     0
  0
ENDTAB
  0
TABLE
  2
DIMSTYLE
 70
     4
  0
DIMSTYLE
  2
STANDARD
 70
     0
  3

  4

  5

  6

  7

 40
1.0
 41
0.18
 42
0.0625
 43
0.38
 44
0.18
 45
0.0
 46
0.0
 47
0.0
 48
0.0
140
0.18
141
0.09
142
0.0
143
25.399999999999999
144
1.0
145
0.0
146
1.0
147
0.09
 71
     0
 72
     0
 73
     1
 74
     1
 75
     0
 76
     0
 77
     0
 78
     0
170
     0
171
     2
172
     0
173
     0
174
     0
175
     0
176
     0
177
     0
178
     0
  0
DIMSTYLE
  2
ANNOTATIVE
 70
     0
  3

  4

  5

  6

  7

 40
0.0
 41
2.5
 42
0.625
 43
3.75
 44
1.25
 45
0.0
 46
0.0
 47
0.0
 48
0.0
140
2.5
141
2.5
142
0.0
143
0.03937007874016
144
1.0
145
0.0
146
1.0
147
0.625
 71
     0
 72
     0
 73
     0
 74
     0
 75
     0
 76
     0
 77
     1
 78
     8
170
     0
171
     3
172
     1
173
     0
174
     0
175
     0
176
     0
177
     0
178
     0
  0
DIMSTYLE
  2
ISO-25
 70
     0
  3

  4

  5

  6

  7

 40
1.0
 41
2.5
 42
0.625
 43
3.75
 44
1.25
 45
0.0
 46
0.0
 47
0.0
 48
0.0
140
2.5
141
2.5
142
0.0
143
0.03937007874016
144
1.0
145
0.0
146
1.0
147
0.625
 71
     0
 72
     0
 73
     0
 74
     0
 75
     0
 76
     0
 77
     1
 78
     8
170
     0
171
     3
172
     1
173
     0
174
     0
175
     0
176
     0
177
     0
178
     0
  0
DIMSTYLE
  2
MELÝH_A3
 70
     0
  3

  4

  5

  6

  7

 40
1.0
 41
1.3
 42
0.0
 43
3.75
 44
0.2
 45
0.0
 46
0.0
 47
0.0
 48
0.0
140
1.0
141
0.2
142
0.0
143
0.03937007874016
144
1.0
145
0.0
146
1.0
147
0.7
 71
     0
 72
     0
 73
     0
 74
     0
 75
     0
 76
     0
 77
     1
 78
     8
170
     0
171
     3
172
     0
173
     0
174
     0
175
     0
176
   242
177
   242
178
   242
  0
ENDTAB
  0
ENDSEC
  0
SECTION
  2
BLOCKS
  0
BLOCK
  8
0
  2
$MODEL_SPACE
 70
     0
 10
0.0
 20
0.0
 30
0.0
  3
$MODEL_SPACE
  1

  0
ENDBLK
  5
21
  8
0
  0
BLOCK
 67
     1
  8
0
  2
$PAPER_SPACE
 70
     0
 10
0.0
 20
0.0
 30
0.0
  3
$PAPER_SPACE
  1

  0
ENDBLK
  5
D5
 67
     1
  8
0
  0
BLOCK
  8
0
  2
*X2
 70
     1
 10
0.0
 20
0.0
 30
0.0
  3
*X2
  1

  0
LINE
  5
39A
  8
0
 62
     0
 10
77.447704274664545
 20
61.658653670281858
 30
0.0
 11
78.096612946753964
 21
62.307562342371277
 31
0.0
  0
LINE
  5
39B
  8
0
 62
     0
 10
77.112507824118921
 20
62.207340696219397
 30
0.0
 11
78.076915309340762
 21
63.171748181441302
 31
0.0
  0
LINE
  5
39C
  8
0
 62
     0
 10
76.777311373573298
 20
62.756027722156951
 30
0.0
 11
77.93748283425623
 21
63.916199182839932
 31
0.0
  0
LINE
  5
39D
  8
0
 62
     0
 10
76.442114923027702
 20
63.304714748094561
 30
0.0
 11
77.711649439729626
 21
64.574249264796549
 31
0.0
  0
LINE
  5
39E
  8
0
 62
     0
 10
70.332685702150172
 20
57.195285527217067
 30
0.0
 11
71.553736675073225
 21
58.416336500140119
 31
0.0
  0
LINE
  5
39F
  8
0
 62
     0
 10
76.106918472481993
 20
63.853401774032051
 30
0.0
 11
77.415820896880689
 21
65.162304198430746
 31
0.0
  0
LINE
  5
3A0
  8
0
 62
     0
 10
69.851220408309217
 20
57.597703709859303
 30
0.0
 11
71.488690179745191
 21
59.235173481295277
 31
0.0
  0
LINE
  5
3A1
  8
0
 62
     0
 10
75.771722021936398
 20
64.402088799969647
 30
0.0
 11
77.081115396358257
 21
65.711482174391435
 31
0.0
  0
LINE
  5
3A2
  8
0
 62
     0
 10
69.753162446827957
 20
58.383529224861178
 30
0.0
 11
71.314241312162437
 21
59.944608090195658
 31
0.0
  0
LINE
  5
3A3
  8
0
 62
     0
 10
75.436525571390803
 20
64.950775825907215
 30
0.0
 11
76.745918945812534
 21
66.260169200328946
 31
0.0
  0
LINE
  5
3A4
  8
0
 62
     0
 10
69.66348897843946
 20
59.177739232955901
 30
0.0
 11
71.057818639906856
 21
60.572068894423303
 31
0.0
  0
LINE
  5
3A5
  8
0
 62
     0
 10
75.101329120845094
 20
65.499462851844754
 30
0.0
 11
76.410722495266896
 21
66.808856226266556
 31
0.0
  0
LINE
  5
3A6
  8
0
 62
     0
 10
69.421446135990934
 20
59.819579866990551
 30
0.0
 11
70.736684539438926
 21
61.134818270438551
 31
0.0
  0
LINE
  5
3A7
  8
0
 62
     0
 10
74.766132670299456
 20
66.048149877782237
 30
0.0
 11
76.075526044721315
 21
67.357543252204096
 31
0.0
  0
LINE
  5
3A8
  8
0
 62
     0
 10
69.092094714471443
 20
60.374111921954238
 30
0.0
 11
70.401488088893331
 21
61.683505296376097
 31
0.0
  0
LINE
  5
3A9
  8
0
 62
     0
 10
74.430936219753903
 20
66.596836903719861
 30
0.0
 11
75.740329594175634
 21
67.906230278141663
 31
0.0
  0
LINE
  5
3AA
  8
0
 62
     0
 10
68.756898263925819
 20
60.922798947891778
 30
0.0
 11
70.066291638347678
 21
62.232192322313658
 31
0.0
  0
LINE
  5
3AB
  8
0
 62
     0
 10
74.095739769208194
 20
67.145523929657401
 30
0.0
 11
75.405133143629996
 21
68.454917304079146
 31
0.0
  0
LINE
  5
3AC
  8
0
 62
     0
 10
68.421701813380196
 20
61.471485973829338
 30
0.0
 11
69.731095187802026
 21
62.780879348251169
 31
0.0
  0
LINE
  5
3AD
  8
0
 62
     0
 10
73.760543318662627
 20
67.694210955594997
 30
0.0
 11
75.069936693084372
 21
69.003604330016742
 31
0.0
  0
LINE
  5
3AE
  8
0
 62
     0
 10
68.0865053628346
 20
62.02017299976692
 30
0.0
 11
69.395898737256431
 21
63.329566374188737
 31
0.0
  0
LINE
  5
3AF
  8
0
 62
     0
 10
73.425346868116947
 20
68.242897981532508
 30
0.0
 11
74.734740242538805
 21
69.552291355954296
 31
0.0
  0
LINE
  5
3B0
  8
0
 62
     0
 10
67.75130891228892
 20
62.568860025704431
 30
0.0
 11
69.06070228671075
 21
63.878253400126312
 31
0.0
  0
LINE
  5
3B1
  8
0
 62
     0
 10
73.090150417571294
 20
68.791585007470019
 30
0.0
 11
74.399543791993153
 21
70.100978381891878
 31
0.0
  0
LINE
  5
3B2
  8
0
 62
     0
 10
67.416112461743253
 20
63.117547051642021
 30
0.0
 11
68.725505836165098
 21
64.426940426063823
 31
0.0
  0
LINE
  5
3B3
  8
0
 62
     0
 10
72.754953967025727
 20
69.340272033407672
 30
0.0
 11
74.064347341447473
 21
70.649665407829417
 31
0.0
  0
LINE
  5
3B4
  8
0
 62
     0
 10
67.080916011197672
 20
63.666234077579588
 30
0.0
 11
68.390309385619531
 21
64.975627452001405
 31
0.0
  0
LINE
  5
3B5
  8
0
 62
     0
 10
72.419757516480104
 20
69.888959059345154
 30
0.0
 11
73.729150890901906
 21
71.198352433766956
 31
0.0
  0
LINE
  5
3B6
  8
0
 62
     0
 10
66.745719560651992
 20
64.214921103517071
 30
0.0
 11
68.055112935073893
 21
65.524314477938958
 31
0.0
  0
LINE
  5
3B7
  8
0
 62
     0
 10
72.084561065934452
 20
70.437646085282722
 30
0.0
 11
73.393954440356197
 21
71.747039459704524
 31
0.0
  0
LINE
  5
3B8
  8
0
 62
     0
 10
66.410523110106354
 20
64.763608129454667
 30
0.0
 11
67.719916484528198
 21
66.073001503876469
 31
0.0
  0
LINE
  5
3B9
  8
0
 62
     0
 10
71.749364615388828
 20
70.986333111220262
 30
0.0
 11
73.058757989810573
 21
72.295726485642007
 31
0.0
  0
LINE
  5
3BA
  8
0
 62
     0
 10
66.075326659560773
 20
65.312295155392206
 30
0.0
 11
67.384720033982575
 21
66.621688529814065
 31
0.0
  0
LINE
  5
3BB
  8
0
 62
     0
 10
71.414168164843204
 20
71.535020137157801
 30
0.0
 11
72.723561539265006
 21
72.844413511579603
 31
0.0
  0
LINE
  5
3BC
  8
0
 62
     0
 10
65.74013020901512
 20
65.860982181329746
 30
0.0
 11
67.049523583436994
 21
67.170375555751605
 31
0.0
  0
LINE
  5
3BD
  8
0
 62
     0
 10
71.078971714297552
 20
72.083707163095369
 30
0.0
 11
72.388365088719297
 21
73.393100537517171
 31
0.0
  0
LINE
  5
3BE
  8
0
 62
     0
 10
65.404933758469468
 20
66.409669207267285
 30
0.0
 11
66.714327132891299
 21
67.719062581689116
 31
0.0
  0
LINE
  5
3BF
  8
0
 62
     0
 10
70.7437752637519
 20
72.632394189032908
 30
0.0
 11
72.053168638173702
 21
73.94178756345471
 31
0.0
  0
LINE
  5
3C0
  8
0
 62
     0
 10
65.069737307923845
 20
66.958356233204853
 30
0.0
 11
66.379130682345647
 21
68.267749607626712
 31
0.0
  0
LINE
  5
3C1
  8
0
 62
     0
 10
70.408578813206304
 20
73.181081214970433
 30
0.0
 11
71.717972187628035
 21
74.49047458939225
 31
0.0
  0
LINE
  5
3C2
  8
0
 62
     0
 10
64.680570861578218
 20
67.45307326334239
 30
0.0
 11
66.043934231800094
 21
68.816436633564251
 31
0.0
  0
LINE
  5
3C3
  8
0
 62
     0
 10
70.073382362660595
 20
73.729768240908015
 30
0.0
 11
71.382775737082454
 21
75.039161615329803
 31
0.0
  0
LINE
  5
3C4
  8
0
 62
     0
 10
63.691469772682687
 20
67.347855650930043
 30
0.0
 11
65.708737781254399
 21
69.365123659501819
 31
0.0
  0
LINE
  5
3C5
  8
0
 62
     0
 10
69.738185912115
 20
74.278455266845555
 30
0.0
 11
71.047579286536745
 21
75.5878486412673
 31
0.0
  0
LINE
  5
3C6
  8
0
 62
     0
 10
62.549729084261962
 20
67.089998438992552
 30
0.0
 11
65.373541330708747
 21
69.913810685439302
 31
0.0
  0
LINE
  5
3C7
  8
0
 62
     0
 10
69.342050184242822
 20
74.76620301545654
 30
0.0
 11
70.712382835991122
 21
76.136535667204896
 31
0.0
  0
LINE
  5
3C8
  8
0
 62
     0
 10
61.407988395841272
 20
66.832141227055018
 30
0.0
 11
65.03834488016318
 21
70.462497711376898
 31
0.0
  0
LINE
  5
3C9
  8
0
 62
     0
 10
68.186547386141797
 20
74.494583693838706
 30
0.0
 11
70.345306100525136
 21
76.653342408222102
 31
0.0
  0
LINE
  5
3CA
  8
0
 62
     0
 10
60.266247707420597
 20
66.574284015117513
 30
0.0
 11
64.703148429617556
 21
71.011184737314466
 31
0.0
  0
LINE
  5
3CB
  8
0
 62
     0
 10
66.778384453814965
 20
73.970304237995066
 30
0.0
 11
69.712616865925099
 21
76.9045366501052
 31
0.0
  0
LINE
  5
3CC
  8
0
 62
     0
 10
59.124507018999878
 20
66.316426803180008
 30
0.0
 11
64.367951979071904
 21
71.559871763252005
 31
0.0
  0
LINE
  5
3CD
  8
0
 62
     0
 10
61.878653248170217
 20
69.954456508833488
 30
0.0
 11
64.032755528526224
 21
72.108558789189544
 31
0.0
  0
LINE
  5
3CE
  8
0
 62
     0
 10
65.370221521488205
 20
73.44602478215154
 30
0.0
 11
68.430207488603884
 21
76.506010749267148
 31
0.0
  0
LINE
  5
3CF
  8
0
 62
     0
 10
57.982766330579182
 20
66.058569591242474
 30
0.0
 11
60.465422622905642
 21
68.541225883568927
 31
0.0
  0
LINE
  5
3D0
  8
0
 62
     0
 10
62.169510375667471
 20
71.129197112813927
 30
0.0
 11
67.022044556277194
 21
75.98173129342365
 31
0.0
  0
LINE
  5
3D1
  8
0
 62
     0
 10
56.84102564215852
 20
65.800712379304954
 30
0.0
 11
59.290682018925231
 21
68.250368756071666
 31
0.0
  0
LINE
  5
3D2
  8
0
 62
     0
 10
62.092010371744372
 20
71.935580585374055
 30
0.0
 11
65.613881623950533
 21
75.457451837580209
 31
0.0
  0
LINE
  5
3D3
  8
0
 62
     0
 10
55.699284953737788
 20
65.542855167367492
 30
0.0
 11
58.484298546365117
 21
68.3278687599948
 31
0.0
  0
LINE
  5
3D4
  8
0
 62
     0
 10
61.857494434197662
 20
72.5849481243105
 30
0.0
 11
64.205718691623844
 21
74.933172381736682
 31
0.0
  0
LINE
  5
3D5
  8
0
 62
     0
 10
54.557544265317091
 20
65.284997955429944
 30
0.0
 11
57.834931007428679
 21
68.562384697541518
 31
0.0
  0
LINE
  5
3D6
  8
0
 62
     0
 10
61.512821932262909
 20
73.124159098858911
 30
0.0
 11
63.113934586254921
 21
74.725271752850915
 31
0.0
  0
LINE
  5
3D7
  8
0
 62
     0
 10
53.415803576896423
 20
65.027140743492424
 30
0.0
 11
57.295720032880261
 21
68.90705719947627
 31
0.0
  0
LINE
  5
3D8
  8
0
 62
     0
 10
55.78725521617045
 20
68.282475859249672
 30
0.0
 11
56.851382754175923
 21
69.346603397255166
 31
0.0
  0
LINE
  5
3D9
  8
0
 62
     0
 10
61.073275734484007
 20
73.568496377563235
 30
0.0
 11
62.790526743840651
 21
75.285747386919866
 31
0.0
  0
LINE
  5
3DA
  8
0
 62
     0
 10
52.274062888475697
 20
64.769283531554947
 30
0.0
 11
54.657741078286868
 21
67.152961721366097
 31
0.0
  0
LINE
  5
3DB
  8
0
 62
     0
 10
60.539193604044073
 20
73.918297723606514
 30
0.0
 11
62.558767521105302
 21
75.937871640667737
 31
0.0
  0
LINE
  5
3DC
  8
0
 62
     0
 10
55.405812404867874
 20
68.784916524430287
 30
0.0
 11
56.501581408132672
 21
69.880685527695078
 31
0.0
  0
LINE
  5
3DD
  8
0
 62
     0
 10
66.811660410792086
 20
80.190764530354514
 30
0.0
 11
67.898817286829086
 21
81.277921406391471
 31
0.0
  0
LINE
  5
3DE
  8
0
 62
     0
 10
51.132322200055
 20
64.511426319617414
 30
0.0
 11
53.516000389866001
 21
66.895104509428421
 31
0.0
  0
LINE
  5
3DF
  8
0
 62
     0
 10
59.896256549526932
 20
74.159244145572515
 30
0.0
 11
62.33053633841326
 21
76.593523934458801
 31
0.0
  0
LINE
  5
3E0
  8
0
 62
     0
 10
55.090229571184977
 20
69.353217167230554
 30
0.0
 11
56.26063498616665
 21
70.523622582212226
 31
0.0
  0
LINE
  5
3E1
  8
0
 62
     0
 10
66.287195365856292
 20
80.550182961901825
 30
0.0
 11
67.712582246023089
 21
81.975569842068637
 31
0.0
  0
LINE
  5
3E2
  8
0
 62
     0
 10
50.350591453190447
 20
64.613579049236023
 30
0.0
 11
52.374259701445197
 21
66.637247297490774
 31
0.0
  0
LINE
  5
3E3
  8
0
 62
     0
 10
59.100289879667287
 20
74.247160952196054
 30
0.0
 11
62.10586662541499
 21
77.252737697943758
 31
0.0
  0
LINE
  5
3E4
  8
0
 62
     0
 10
54.849450206149051
 20
69.996321278677812
 30
0.0
 11
55.956248649792649
 21
71.103119722321424
 31
0.0
  0
LINE
  5
3E5
  8
0
 62
     0
 10
66.073696195940499
 20
81.220567268469253
 30
0.0
 11
67.428632633570146
 21
82.575503706098914
 31
0.0
  0
LINE
  5
3E6
  8
0
 62
     0
 10
49.624639485148371
 20
64.771510557677146
 30
0.0
 11
51.23251901302438
 21
66.379390085553155
 31
0.0
  0
LINE
  5
3E7
  8
0
 62
     0
 10
57.964475227243611
 20
73.995229776255542
 30
0.0
 11
59.687608017316542
 21
75.718362566328466
 31
0.0
  0
LINE
  5
3E8
  8
0
 62
     0
 10
60.462548975355134
 20
76.493303524367121
 30
0.0
 11
61.884792803261199
 21
77.915547352273194
 31
0.0
  0
LINE
  5
3E9
  8
0
 62
     0
 10
54.729426083751243
 20
70.760180632763195
 30
0.0
 11
55.105930482123462
 21
71.136685031135414
 31
0.0
  0
LINE
  5
3EA
  8
0
 62
     0
 10
65.786929443425407
 20
81.817683992437338
 30
0.0
 11
67.082240243783104
 21
83.112994792795035
 31
0.0
  0
LINE
  5
3EB
  8
0
 62
     0
 10
48.898687517106282
 20
64.929442066118241
 30
0.0
 11
50.41164532289622
 21
66.442399871908179
 31
0.0
  0
LINE
  5
3EC
  8
0
 62
     0
 10
60.240454914485007
 20
77.155092939980136
 30
0.0
 11
61.667350318955947
 21
78.581988344451133
 31
0.0
  0
LINE
  5
3ED
  8
0
 62
     0
 10
57.336578615042903
 20
74.251216640538019
 30
0.0
 11
58.819565150478553
 21
75.734203175973676
 31
0.0
  0
LINE
  5
3EE
  8
0
 62
     0
 10
65.40513620718346
 20
82.319774232678583
 30
0.0
 11
66.678472724766635
 21
83.593110750261744
 31
0.0
  0
LINE
  5
3EF
  8
0
 62
     0
 10
48.172735549064178
 20
65.087373574559336
 30
0.0
 11
49.685693354854124
 21
66.600331380349274
 31
0.0
  0
LINE
  5
3F0
  8
0
 62
     0
 10
60.021921750113108
 20
77.820443252091479
 30
0.0
 11
61.453575681392287
 21
79.252097183370665
 31
0.0
  0
LINE
  5
3F1
  8
0
 62
     0
 10
57.033112562635289
 20
74.83163406461361
 30
0.0
 11
57.703021425515708
 21
75.501542927494029
 31
0.0
  0
LINE
  5
3F2
  8
0
 62
     0
 10
64.936005092844539
 20
82.734526594822853
 30
0.0
 11
66.219198731621702
 21
84.017720233600016
 31
0.0
  0
LINE
  5
3F3
  8
0
 62
     0
 10
47.446783581022117
 20
65.245305083000432
 30
0.0
 11
48.959741386811999
 21
66.758262888790341
 31
0.0
  0
LINE
  5
3F4
  8
0
 62
     0
 10
59.806984479646701
 20
78.489389458108207
 30
0.0
 11
61.243506499169371
 21
79.925911477630876
 31
0.0
  0
LINE
  5
3F5
  8
0
 62
     0
 10
64.376172288644511
 20
83.058577267106017
 30
0.0
 11
65.703580233993634
 21
84.385985212455225
 31
0.0
  0
LINE
  5
3F6
  8
0
 62
     0
 10
46.720831612979993
 20
65.403236591441484
 30
0.0
 11
48.233789418769931
 21
66.916194397231436
 31
0.0
  0
LINE
  5
3F7
  8
0
 62
     0
 10
59.59567913515982
 20
79.161967590104496
 30
0.0
 11
61.037181520298617
 21
80.603469975243343
 31
0.0
  0
LINE
  5
3F8
  8
0
 62
     0
 10
63.758486953332259
 20
83.324775408276935
 30
0.0
 11
65.127856623658744
 21
84.694145078603469
 31
0.0
  0
LINE
  5
3F9
  8
0
 62
     0
 10
45.994879644937917
 20
65.561168099882622
 30
0.0
 11
47.50783745072777
 21
67.074125905672474
 31
0.0
  0
LINE
  5
3FA
  8
0
 62
     0
 10
59.388042819961591
 20
79.838214751389444
 30
0.0
 11
60.834640673911558
 21
81.284812605339482
 31
0.0
  0
LINE
  5
3FB
  8
0
 62
     0
 10
63.140438467677818
 20
83.590610399105685
 30
0.0
 11
64.510562218196071
 21
84.960734149623988
 31
0.0
  0
LINE
  5
3FC
  8
0
 62
     0
 10
45.268927676895878
 20
65.719099608323745
 30
0.0
 11
46.781885482685738
 21
67.232057414113626
 31
0.0
  0
LINE
  5
3FD
  8
0
 62
     0
 10
59.184113746971377
 20
80.518169154882429
 30
0.0
 11
60.635925114093197
 21
81.969980522004249
 31
0.0
  0
LINE
  5
3FE
  8
0
 62
     0
 10
62.522389982023363
 20
83.856445389934407
 30
0.0
 11
63.892513732541602
 21
85.22656914045271
 31
0.0
  0
LINE
  5
3FF
  8
0
 62
     0
 10
44.542975708853753
 20
65.87703111676484
 30
0.0
 11
46.055933514643577
 21
67.389988922554636
 31
0.0
  0
LINE
  5
400
  8
0
 62
     0
 10
58.983931279009511
 20
81.201870163403797
 30
0.0
 11
60.441077265971408
 21
82.659016150365673
 31
0.0
  0
LINE
  5
401
  8
0
 62
     0
 10
61.904341496368907
 20
84.122280380763115
 30
0.0
 11
63.27446524688721
 21
85.492404131281447
 31
0.0
  0
LINE
  5
402
  8
0
 62
     0
 10
43.976825786790187
 20
66.194764671184402
 30
0.0
 11
45.333507169335348
 21
67.551446053729592
 31
0.0
  0
LINE
  5
403
  8
0
 62
     0
 10
58.787535971118871
 20
81.889358331996263
 30
0.0
 11
60.250140874204533
 21
83.351963235081939
 31
0.0
  0
LINE
  5
404
  8
0
 62
     0
 10
61.286293010714409
 20
84.388115371591823
 30
0.0
 11
62.656416761232769
 21
85.758239122110183
 31
0.0
  0
LINE
  5
405
  8
0
 62
     0
 10
43.611010198611233
 20
66.712832559488675
 30
0.0
 11
44.902547124113482
 21
68.004369484990889
 31
0.0
  0
LINE
  5
406
  8
0
 62
     0
 10
58.594969615042089
 20
82.580675452402787
 30
0.0
 11
60.06316105401833
 21
84.048866891378964
 31
0.0
  0
LINE
  5
407
  8
0
 62
     0
 10
60.66824452505994
 20
84.653950362420574
 30
0.0
 11
62.038368275578357
 21
86.02407411293899
 31
0.0
  0
LINE
  5
408
  8
0
 62
     0
 10
43.245194610432229
 20
67.230900447792891
 30
0.0
 11
44.536731535934528
 21
68.52243737329519
 31
0.0
  0
LINE
  5
409
  8
0
 62
     0
 10
58.406275285989331
 20
83.275864599833113
 30
0.0
 11
59.880184344957136
 21
84.749773658800933
 31
0.0
  0
LINE
  5
40A
  8
0
 62
     0
 10
60.050196039405499
 20
84.919785353249296
 30
0.0
 11
61.420319789923923
 21
86.289909103767712
 31
0.0
  0
LINE
  5
40B
  8
0
 62
     0
 10
42.590983402557377
 20
67.460572716401202
 30
0.0
 11
44.17091594775556
 21
69.040505261599378
 31
0.0
  0
LINE
  5
40C
  8
0
 62
     0
 10
58.221497391837772
 20
83.974970182164725
 30
0.0
 11
60.802271304269418
 21
86.555744094596434
 31
0.0
  0
LINE
  5
40D
  8
0
 62
     0
 10
41.449242714136737
 20
67.202715504463725
 30
0.0
 11
43.736114914642592
 21
69.489587704969566
 31
0.0
  0
LINE
  5
40E
  8
0
 62
     0
 10
58.040681724920368
 20
84.678037991730534
 30
0.0
 11
60.184222818615012
 21
86.821579085425185
 31
0.0
  0
LINE
  5
40F
  8
0
 62
     0
 10
40.307502025716069
 20
66.944858292526249
 30
0.0
 11
42.691180215526991
 21
69.328536482337199
 31
0.0
  0
LINE
  5
410
  8
0
 62
     0
 10
57.863875516567958
 20
85.385115259861294
 30
0.0
 11
59.566174332960628
 21
87.087414076253964
 31
0.0
  0
LINE
  5
411
  8
0
 62
     0
 10
39.168275742396048
 20
66.689515485689384
 30
0.0
 11
41.880871979552971
 21
69.402111722846342
 31
0.0
  0
LINE
  5
412
  8
0
 62
     0
 10
57.578002096787714
 20
85.983125316564212
 30
0.0
 11
58.94812584730613
 21
87.353249067082615
 31
0.0
  0
LINE
  5
413
  8
0
 62
     0
 10
38.625445641774292
 20
67.03056886155079
 30
0.0
 11
41.718028259320697
 21
70.123151479097203
 31
0.0
  0
LINE
  5
414
  8
0
 62
     0
 10
40.049828061568803
 20
69.33883475782855
 30
0.0
 11
41.555184539088458
 21
70.844191235348205
 31
0.0
  0
LINE
  5
415
  8
0
 62
     0
 10
56.95995361113318
 20
86.248960307392906
 30
0.0
 11
58.330077361651711
 21
87.619084057911437
 31
0.0
  0
LINE
  5
416
  8
0
 62
     0
 10
38.460840668631278
 20
67.749847364891025
 30
0.0
 11
39.265958150264822
 21
68.55496484652457
 31
0.0
  0
LINE
  5
417
  8
0
 62
     0
 10
56.341905125478739
 20
86.514795298221628
 30
0.0
 11
57.712028875997269
 21
87.884919048740215
 31
0.0
  0
LINE
  5
418
  8
0
 62
     0
 10
39.886984341336529
 20
70.059874514079439
 30
0.0
 11
41.392340818856177
 21
71.565230991599094
 31
0.0
  0
LINE
  5
419
  8
0
 62
     0
 10
55.723856639824298
 20
86.780630289050336
 30
0.0
 11
57.093980390342892
 21
88.150754039568938
 31
0.0
  0
LINE
  5
41A
  8
0
 62
     0
 10
39.724140621104262
 20
70.780914270330285
 30
0.0
 11
41.229497098623987
 21
72.28627074785004
 31
0.0
  0
LINE
  5
41B
  8
0
 62
     0
 10
55.105808154169829
 20
87.046465279879087
 30
0.0
 11
56.475931904688359
 21
88.416589030397688
 31
0.0
  0
LINE
  5
41C
  8
0
 62
     0
 10
39.561296900871952
 20
71.501954026581217
 30
0.0
 11
41.066653378391692
 21
73.007310504100957
 31
0.0
  0
LINE
  5
41D
  8
0
 62
     0
 10
39.398453180639649
 20
72.222993782832106
 30
0.0
 11
40.903809658159453
 21
73.728350260351874
 31
0.0
  0
LINE
  5
41E
  8
0
 62
     0
 10
54.487759668515388
 20
87.312300270707823
 30
0.0
 11
55.857883419033982
 21
88.68242402122641
 31
0.0
  0
LINE
  5
41F
  8
0
 62
     0
 10
32.364787449304153
 20
65.189328051496602
 30
0.0
 11
32.487394229874241
 21
65.311934832066697
 31
0.0
  0
LINE
  5
420
  8
0
 62
     0
 10
39.235609460407353
 20
72.944033539082994
 30
0.0
 11
40.659312563883873
 21
74.367736642559521
 31
0.0
  0
LINE
  5
421
  8
0
 62
     0
 10
53.869711182860868
 20
87.578135261536545
 30
0.0
 11
55.239834933379512
 21
88.948259012055118
 31
0.0
  0
LINE
  5
422
  8
0
 62
     0
 10
31.17357651835027
 20
64.882000597025922
 30
0.0
 11
32.461505311568772
 21
66.169929390244405
 31
0.0
  0
LINE
  5
423
  8
0
 62
     0
 10
39.003808710158872
 20
73.596116265317676
 30
0.0
 11
40.276652008539763
 21
74.868959563698581
 31
0.0
  0
LINE
  5
424
  8
0
 62
     0
 10
30.031835829929641
 20
64.624143385088473
 30
0.0
 11
32.251060671321369
 21
66.843368226480194
 31
0.0
  0
LINE
  5
425
  8
0
 62
     0
 10
53.251662697206477
 20
87.843970252365295
 30
0.0
 11
54.621786447725071
 21
89.214094002883868
 31
0.0
  0
LINE
  5
426
  8
0
 62
     0
 10
26.668221304624019
 20
61.260528859782852
 30
0.0
 11
28.11836140492824
 21
62.710668960087041
 31
0.0
  0
LINE
  5
427
  8
0
 62
     0
 10
38.15995476855133
 20
73.636145800193361
 30
0.0
 11
39.771592311837111
 21
75.247783343479114
 31
0.0
  0
LINE
  5
428
  8
0
 62
     0
 10
28.890095141508969
 20
64.366286173150968
 30
0.0
 11
31.27377333131972
 21
66.749964362961748
 31
0.0
  0
LINE
  5
429
  8
0
 62
     0
 10
52.633614211551951
 20
88.109805243193946
 30
0.0
 11
54.003737962070659
 21
89.479928993712662
 31
0.0
  0
LINE
  5
42A
  8
0
 62
     0
 10
22.763681109018989
 20
58.239872140661021
 30
0.0
 11
28.302297377978451
 21
63.778488409620479
 31
0.0
  0
LINE
  5
42B
  8
0
 62
     0
 10
37.507169903126602
 20
73.867244411251789
 30
0.0
 11
39.141221450411336
 21
75.501295958536502
 31
0.0
  0
LINE
  5
42C
  8
0
 62
     0
 10
52.01556572589746
 20
88.375640234022683
 30
0.0
 11
53.385689476416218
 21
89.745763984541455
 31
0.0
  0
LINE
  5
42D
  8
0
 62
     0
 10
21.447064301116288
 20
57.807138809241479
 30
0.0
 11
30.44633224559206
 21
66.806406753717255
 31
0.0
  0
LINE
  5
42E
  8
0
 62
     0
 10
37.329770848211901
 20
74.573728832820251
 30
0.0
 11
38.835127325731719
 21
76.079085310340076
 31
0.0
  0
LINE
  5
42F
  8
0
 62
     0
 10
26.463564125931899
 20
63.707522110540253
 30
0.0
 11
30.221143037702259
 21
67.465101022310648
 31
0.0
  0
LINE
  5
430
  8
0
 62
     0
 10
51.397517240243019
 20
88.641475224851433
 30
0.0
 11
52.767640990761826
 21
90.011598975370205
 31
0.0
  0
LINE
  5
431
  8
0
 62
     0
 10
20.305323612695592
 20
57.549281597303967
 30
0.0
 11
25.00778127648525
 21
62.251739261093633
 31
0.0
  0
LINE
  5
432
  8
0
 62
     0
 10
28.55294283995034
 20
66.680784301041939
 30
0.0
 11
30.058299317469992
 21
68.186140778561594
 31
0.0
  0
LINE
  5
433
  8
0
 62
     0
 10
37.166927127979648
 20
75.294768589071253
 30
0.0
 11
38.672283605499388
 21
76.800125066590994
 31
0.0
  0
LINE
  5
434
  8
0
 62
     0
 10
26.647500098982281
 20
64.775341560073883
 30
0.0
 11
27.8485512660578
 21
65.976392727149403
 31
0.0
  0
LINE
  5
435
  8
0
 62
     0
 10
50.779468754588549
 20
88.907310215680184
 30
0.0
 11
52.1495925051073
 21
90.277433966198885
 31
0.0
  0
LINE
  5
436
  8
0
 62
     0
 10
19.163582924274859
 20
57.291424385366469
 30
0.0
 11
21.547261114085732
 21
59.675102575177341
 31
0.0
  0
LINE
  5
437
  8
0
 62
     0
 10
37.00408340774738
 20
76.015808345322142
 30
0.0
 11
38.50943988526712
 21
77.521164822841882
 31
0.0
  0
LINE
  5
438
  8
0
 62
     0
 10
28.390099119718091
 20
67.401824057292856
 30
0.0
 11
29.895455597237689
 21
68.907180534812426
 31
0.0
  0
LINE
  5
439
  8
0
 62
     0
 10
50.161420268934158
 20
89.173145206508906
 30
0.0
 11
51.531544019452923
 21
90.543268957027664
 31
0.0
  0
LINE
  5
43A
  8
0
 62
     0
 10
18.135247972577531
 20
57.146972910152272
 30
0.0
 11
20.405520425664999
 21
59.417245363239772
 31
0.0
  0
LINE
  5
43B
  8
0
 62
     0
 10
36.841239687515127
 20
76.736848101573059
 30
0.0
 11
38.346596165034839
 21
78.242204579092771
 31
0.0
  0
LINE
  5
43C
  8
0
 62
     0
 10
28.227255399485809
 20
68.122863813543745
 30
0.0
 11
29.732611877005439
 21
69.628220291063343
 31
0.0
  0
LINE
  5
43D
  8
0
 62
     0
 10
49.543371783279667
 20
89.438980197337628
 30
0.0
 11
50.913495533798539
 21
90.809103947856457
 31
0.0
  0
LINE
  5
43E
  8
0
 62
     0
 10
17.291698450403199
 20
57.187306864461107
 30
0.0
 11
19.263779737244359
 21
59.159388151302267
 31
0.0
  0
LINE
  5
43F
  8
0
 62
     0
 10
36.49373324100447
 20
77.273225131545615
 30
0.0
 11
38.1837524448026
 21
78.963244335343745
 31
0.0
  0
LINE
  5
440
  8
0
 62
     0
 10
28.06441167925351
 20
68.843903569794662
 30
0.0
 11
29.569768156773168
 21
70.349260047314317
 31
0.0
  0
LINE
  5
441
  8
0
 62
     0
 10
48.925323297625198
 20
89.704815188166378
 30
0.0
 11
50.295447048144013
 21
91.074938938685193
 31
0.0
  0
LINE
  5
442
  8
0
 62
     0
 10
16.561245719099301
 20
57.340737609640449
 30
0.0
 11
18.17169072564619
 21
58.95118261618731
 31
0.0
  0
LINE
  5
443
  8
0
 62
     0
 10
30.16776994960648
 20
71.831145316630753
 30
0.0
 11
30.64469727235613
 21
72.308072639380441
 31
0.0
  0
LINE
  5
444
  8
0
 62
     0
 10
35.464832593630412
 20
77.128207960654706
 30
0.0
 11
37.783477184027277
 21
79.446852551051563
 31
0.0
  0
LINE
  5
445
  8
0
 62
     0
 10
27.901567959021239
 20
69.564943326045523
 30
0.0
 11
29.406924436540891
 21
71.070299803565177
 31
0.0
  0
LINE
  5
446
  8
0
 62
     0
 10
48.307274811970757
 20
89.970650178995101
 30
0.0
 11
49.677398562489572
 21
91.340773929513915
 31
0.0
  0
LINE
  5
447
  8
0
 62
     0
 10
15.91410749595468
 20
57.577482862978997
 30
0.0
 11
17.339306860309701
 21
59.00268222733402
 31
0.0
  0
LINE
  5
448
  8
0
 62
     0
 10
34.323091905209822
 20
76.870350748717271
 30
0.0
 11
36.706770095020893
 21
79.254028938528364
 31
0.0
  0
LINE
  5
449
  8
0
 62
     0
 10
27.738724238789018
 20
70.285983082296497
 30
0.0
 11
30.498544447575
 21
73.045803291082464
 31
0.0
  0
LINE
  5
44A
  8
0
 62
     0
 10
47.689226326316259
 20
90.236485169823766
 30
0.0
 11
49.059350076835187
 21
91.606608920342623
 31
0.0
  0
LINE
  5
44B
  8
0
 62
     0
 10
15.335335798003371
 20
57.882594641510821
 30
0.0
 11
16.66590040660861
 21
59.213159250116092
 31
0.0
  0
LINE
  5
44C
  8
0
 62
     0
 10
33.181351216789103
 20
76.612493536779766
 30
0.0
 11
35.565029406600189
 21
78.996171726590859
 31
0.0
  0
LINE
  5
44D
  8
0
 62
     0
 10
27.589956405004362
 20
71.021098724995056
 30
0.0
 11
30.335700727342701
 21
73.766843047333367
 31
0.0
  0
LINE
  5
44E
  8
0
 62
     0
 10
47.071169327370342
 20
90.502311647361026
 30
0.0
 11
48.441301591180768
 21
91.872443911171445
 31
0.0
  0
LINE
  5
44F
  8
0
 62
     0
 10
14.81693752982042
 20
58.24807984981112
 30
0.0
 11
16.101417656880841
 21
59.532559976871539
 31
0.0
  0
LINE
  5
450
  8
0
 62
     0
 10
27.712494852693339
 20
72.027520649167201
 30
0.0
 11
30.17285700711037
 21
74.487882803584228
 31
0.0
  0
LINE
  5
451
  8
0
 62
     0
 10
32.039610528368492
 20
76.354636324842346
 30
0.0
 11
34.423288718179521
 21
78.738314514653382
 31
0.0
  0
LINE
  5
452
  8
0
 62
     0
 10
17.574129056721631
 20
61.889154853195492
 30
0.0
 11
19.064641521784662
 21
63.379667318258527
 31
0.0
  0
LINE
  5
453
  8
0
 62
     0
 10
46.446489107529793
 20
90.761514904003633
 30
0.0
 11
47.823253105526327
 21
92.138278902000224
 31
0.0
  0
LINE
  5
454
  8
0
 62
     0
 10
14.35499316971641
 20
58.67001896619027
 30
0.0
 11
15.62808564875689
 21
59.943111445230748
 31
0.0
  0
LINE
  5
455
  8
0
 62
     0
 10
28.504656809358639
 20
73.70356608231566
 30
0.0
 11
30.010013286878092
 21
75.208922559835116
 31
0.0
  0
LINE
  5
456
  8
0
 62
     0
 10
30.897869839947791
 20
76.096779112904812
 30
0.0
 11
33.420189812193257
 21
78.619099085150282
 31
0.0
  0
LINE
  5
457
  8
0
 62
     0
 10
16.44883254113671
 20
61.647741814093742
 30
0.0
 11
19.07014849636397
 21
64.269057769320966
 31
0.0
  0
LINE
  5
458
  8
0
 62
     0
 10
45.809204898871307
 20
91.008114171828296
 30
0.0
 11
47.199739763687028
 21
92.398649036644088
 31
0.0
  0
LINE
  5
459
  8
0
 62
     0
 10
13.94853454206125
 20
59.147443815018278
 30
0.0
 11
15.24200993077625
 21
60.440919203733273
 31
0.0
  0
LINE
  5
45A
  8
0
 62
     0
 10
17.589961111908899
 20
63.67275386134915
 30
0.0
 11
18.914225033121369
 21
64.997017782561613
 31
0.0
  0
LINE
  5
45B
  8
0
 62
     0
 10
28.34181308912633
 20
74.424605838566549
 30
0.0
 11
33.097281548562279
 21
79.180074298002523
 31
0.0
  0
LINE
  5
45C
  8
0
 62
     0
 10
15.30459604953867
 20
61.387388798978918
 30
0.0
 11
17.28104251363342
 21
63.363835263073668
 31
0.0
  0
LINE
  5
45D
  8
0
 62
     0
 10
45.15890477464864
 20
91.241697524088863
 30
0.0
 11
46.564429103691502
 21
92.647221853131725
 31
0.0
  0
LINE
  5
45E
  8
0
 62
     0
 10
13.59760632021468
 20
59.680399069654932
 30
0.0
 11
15.075848463227659
 21
61.158641212667902
 31
0.0
  0
LINE
  5
45F
  8
0
 62
     0
 10
28.17896936889403
 20
75.145645594817438
 30
0.0
 11
32.941358085319713
 21
79.908034311243085
 31
0.0
  0
LINE
  5
460
  8
0
 62
     0
 10
17.49489143341216
 20
64.461567659335572
 30
0.0
 11
18.758301569878821
 21
65.724977795802204
 31
0.0
  0
LINE
  5
461
  8
0
 62
     0
 10
44.495129318129699
 20
91.461805544053135
 30
0.0
 11
45.916958496713697
 21
92.883634722637083
 31
0.0
  0
LINE
  5
462
  8
0
 62
     0
 10
13.267668951136921
 20
60.234345177060298
 30
0.0
 11
16.151375480321551
 21
63.118051706244948
 31
0.0
  0
LINE
  5
463
  8
0
 62
     0
 10
29.950462981227869
 20
77.801022683634471
 30
0.0
 11
30.643854668659571
 21
78.494414371066171
 31
0.0
  0
LINE
  5
464
  8
0
 62
     0
 10
28.016125648661699
 20
75.866685351068298
 30
0.0
 11
29.888715021992109
 21
77.739274724398712
 31
0.0
  0
LINE
  5
465
  8
0
 62
     0
 10
31.269342458316231
 20
79.119902160722802
 30
0.0
 11
32.785434622077076
 21
80.635994324483647
 31
0.0
  0
LINE
  5
466
  8
0
 62
     0
 10
17.338967970169531
 20
65.189527672576133
 30
0.0
 11
18.602378106636142
 21
66.452937809042737
 31
0.0
  0
LINE
  5
467
  8
0
 62
     0
 10
43.817365302267291
 20
91.667925004673847
 30
0.0
 11
45.25693151301877
 21
93.107491215425327
 31
0.0
  0
LINE
  5
468
  8
0
 62
     0
 10
12.945105625819391
 20
60.795665328226001
 30
0.0
 11
15.30777163362839
 21
63.158331336034962
 31
0.0
  0
LINE
  5
469
  8
0
 62
     0
 10
26.916160894806321
 20
75.650604073696115
 30
0.0
 11
29.464970951104419
 21
78.19941412999421
 31
0.0
  0
LINE
  5
46A
  8
0
 62
     0
 10
25.700461658353191
 20
74.434904837242982
 30
0.0
 11
26.44805217435357
 21
75.182495353243354
 31
0.0
  0
LINE
  5
46B
  8
0
 62
     0
 10
31.113418995073658
 20
79.847862173963449
 30
0.0
 11
32.629511158834482
 21
81.363954337724238
 31
0.0
  0
LINE
  5
46C
  8
0
 62
     0
 10
17.18304450692693
 20
65.917487685816724
 30
0.0
 11
18.44645464339359
 21
67.180897822283356
 31
0.0
  0
LINE
  5
46D
  8
0
 62
     0
 10
43.12503812421977
 20
91.859481303109519
 30
0.0
 11
44.583908417859959
 21
93.318351596749707
 31
0.0
  0
LINE
  5
46E
  8
0
 62
     0
 10
12.931504585801861
 20
61.665947764691651
 30
0.0
 11
15.077360946148019
 21
63.811804125037781
 31
0.0
  0
LINE
  5
46F
  8
0
 62
     0
 10
25.449855286799899
 20
75.068181942172885
 30
0.0
 11
28.191338757220681
 21
77.80966541259366
 31
0.0
  0
LINE
  5
470
  8
0
 62
     0
 10
30.957495531831
 20
80.575822187203954
 30
0.0
 11
32.473587695591881
 21
82.091914350964856
 31
0.0
  0
LINE
  5
471
  8
0
 62
     0
 10
17.0271210436843
 20
66.645447699057286
 30
0.0
 11
18.136983497441289
 21
67.755310152814275
 31
0.0
  0
LINE
  5
472
  8
0
 62
     0
 10
42.417502689781877
 20
92.035829345154895
 30
0.0
 11
43.897400557927142
 21
93.515727213300096
 31
0.0
  0
LINE
  5
473
  8
0
 62
     0
 10
12.978847244463539
 20
62.597173899836491
 30
0.0
 11
14.921437482905439
 21
64.539764138278429
 31
0.0
  0
LINE
  5
474
  8
0
 62
     0
 10
25.293931823557301
 20
75.796141955413447
 30
0.0
 11
26.913436304606389
 21
77.415646436462524
 31
0.0
  0
LINE
  5
475
  8
0
 62
     0
 10
30.801303707800059
 20
81.303513839656176
 30
0.0
 11
32.317664232349273
 21
82.819874364205404
 31
0.0
  0
LINE
  5
476
  8
0
 62
     0
 10
16.871197580441759
 20
67.373407712297876
 30
0.0
 11
17.6110520589875
 21
68.113262190843614
 31
0.0
  0
LINE
  5
477
  8
0
 62
     0
 10
41.69403234912275
 20
92.196242480978853
 30
0.0
 11
43.19686368642661
 21
93.699073818282727
 31
0.0
  0
LINE
  5
478
  8
0
 62
     0
 10
13.026189903125241
 20
63.52840003498136
 30
0.0
 11
14.53221984968468
 21
65.034429981540825
 31
0.0
  0
LINE
  5
479
  8
0
 62
     0
 10
30.141091879905421
 20
81.527185488244754
 30
0.0
 11
32.161740769106672
 21
83.547834377445994
 31
0.0
  0
LINE
  5
47A
  8
0
 62
     0
 10
25.99085366967941
 20
77.376947278018747
 30
0.0
 11
26.14461889607739
 21
77.530712504416726
 31
0.0
  0
LINE
  5
47B
  8
0
 62
     0
 10
40.953805356764569
 20
92.339898965103941
 30
0.0
 11
42.481689976385553
 21
93.867783584724862
 31
0.0
  0
LINE
  5
47C
  8
0
 62
     0
 10
25.1380083603147
 20
76.524101968654037
 30
0.0
 11
25.635533851992189
 21
77.021627460331501
 31
0.0
  0
LINE
  5
47D
  8
0
 62
     0
 10
29.72156171671887
 20
81.991538801541424
 30
0.0
 11
32.005817305864099
 21
84.275794390686627
 31
0.0
  0
LINE
  5
47E
  8
0
 62
     0
 10
40.195888150032367
 20
92.465865234854903
 30
0.0
 11
41.751198397975479
 21
94.021175482798014
 31
0.0
  0
LINE
  5
47F
  8
0
 62
     0
 10
28.92412854848002
 20
81.194105633302527
 30
0.0
 11
29.710274864887481
 21
81.980251949710038
 31
0.0
  0
LINE
  5
480
  8
0
 62
     0
 10
28.443659264107399
 20
81.597519825413073
 30
0.0
 11
31.849893842621441
 21
85.003754403927161
 31
0.0
  0
LINE
  5
481
  8
0
 62
     0
 10
39.419214487688073
 20
92.573075048993786
 30
0.0
 11
41.004623035574383
 21
94.158483596880075
 31
0.0
  0
LINE
  5
482
  8
0
 62
     0
 10
27.799319605334581
 20
80.953180166640294
 30
0.0
 11
28.249713987604231
 21
81.403574548909916
 31
0.0
  0
LINE
  5
483
  8
0
 62
     0
 10
30.177878215617941
 20
84.215622253406792
 30
0.0
 11
31.69397037937884
 21
85.731714417167709
 31
0.0
  0
LINE
  5
484
  8
0
 62
     0
 10
27.165756811494731
 20
81.203500849283614
 30
0.0
 11
29.277395492899672
 21
83.315139530688555
 31
0.0
  0
LINE
  5
485
  8
0
 62
     0
 10
38.62255912752682
 20
92.660303165315668
 30
0.0
 11
40.241098782794381
 21
94.278842820583236
 31
0.0
  0
LINE
  5
486
  8
0
 62
     0
 10
26.67451867996979
 20
80.712262717758676
 30
0.0
 11
26.78915311031853
 21
80.826897148107406
 31
0.0
  0
LINE
  5
487
  8
0
 62
     0
 10
30.02195475237534
 20
84.943582266647425
 30
0.0
 11
31.53804691613627
 21
86.459674430408342
 31
0.0
  0
LINE
  5
488
  8
0
 62
     0
 10
37.805532770036741
 20
92.727160284308809
 30
0.0
 11
39.459643662052429
 21
94.381271176324503
 31
0.0
  0
LINE
  5
489
  8
0
 62
     0
 10
25.887854356207299
 20
80.809481870479402
 30
0.0
 11
28.152586549754211
 21
83.074214064026279
 31
0.0
  0
LINE
  5
48A
  8
0
 62
     0
 10
29.866031289132788
 20
85.67154227988803
 30
0.0
 11
31.382123452893669
 21
87.187634443648903
 31
0.0
  0
LINE
  5
48B
  8
0
 62
     0
 10
36.983105469294998
 20
92.788616460050264
 30
0.0
 11
38.659136743909222
 21
94.464647734664453
 31
0.0
  0
LINE
  5
48C
  8
0
 62
     0
 10
24.609951906266051
 20
80.415462897021314
 30
0.0
 11
27.02777760660868
 21
82.833288597363946
 31
0.0
  0
LINE
  5
48D
  8
0
 62
     0
 10
29.710107825890191
 20
86.399502293128592
 30
0.0
 11
31.226199989651061
 21
87.915594456889465
 31
0.0
  0
LINE
  5
48E
  8
0
 62
     0
 10
36.160678168553183
 20
92.850072635791605
 30
0.0
 11
37.840194223039113
 21
94.529588690277507
 31
0.0
  0
LINE
  5
48F
  8
0
 62
     0
 10
24.202576969805371
 20
80.891971437043793
 30
0.0
 11
25.90296866346327
 21
82.592363130701699
 31
0.0
  0
LINE
  5
490
  8
0
 62
     0
 10
29.554184362647561
 20
87.127462306369182
 30
0.0
 11
31.070276526408438
 21
88.643554470130056
 31
0.0
  0
LINE
  5
491
  8
0
 62
     0
 10
35.338250867811347
 20
92.911528811532975
 30
0.0
 11
37.017766922297263
 21
94.591044866018905
 31
0.0
  0
LINE
  5
492
  8
0
 62
     0
 10
24.04654411761652
 20
81.619822061338169
 30
0.0
 11
24.937725533420121
 21
82.511003477141756
 31
0.0
  0
LINE
  5
493
  8
0
 62
     0
 10
29.398260899404988
 20
87.855422319609787
 30
0.0
 11
30.914353063165859
 21
89.371514483370674
 31
0.0
  0
LINE
  5
494
  8
0
 62
     0
 10
34.515823567069532
 20
92.972984987274316
 30
0.0
 11
36.19533962155549
 21
94.652501041760274
 31
0.0
  0
LINE
  5
495
  8
0
 62
     0
 10
23.890620654373979
 20
82.347782074578774
 30
0.0
 11
24.713683322832399
 21
83.170844743037208
 31
0.0
  0
LINE
  5
496
  8
0
 62
     0
 10
33.69339626632771
 20
93.034441163015686
 30
0.0
 11
35.37291232081364
 21
94.713957217501587
 31
0.0
  0
LINE
  5
497
  8
0
 62
     0
 10
29.242337436162391
 20
88.583382332850377
 30
0.0
 11
30.75842959992324
 21
90.099474496611208
 31
0.0
  0
LINE
  5
498
  8
0
 62
     0
 10
32.870968965585938
 20
93.09589733875714
 30
0.0
 11
34.550485020071818
 21
94.775413393243014
 31
0.0
  0
LINE
  5
499
  8
0
 62
     0
 10
29.086413972919821
 20
89.311342346090981
 30
0.0
 11
30.602506136680631
 21
90.827434509851827
 31
0.0
  0
LINE
  5
49A
  8
0
 62
     0
 10
32.04854166484413
 20
93.157353514498482
 30
0.0
 11
33.728057719330018
 21
94.836869568984355
 31
0.0
  0
LINE
  5
49B
  8
0
 62
     0
 10
28.930490509677242
 20
90.039302359331586
 30
0.0
 11
30.446582673438002
 21
91.55539452309236
 31
0.0
  0
LINE
  5
49C
  8
0
 62
     0
 10
31.226114364102301
 20
93.218809690239823
 30
0.0
 11
32.905630418588167
 21
94.898325744725696
 31
0.0
  0
LINE
  5
49D
  8
0
 62
     0
 10
28.774567046434608
 20
90.767262372572176
 30
0.0
 11
30.2906592101954
 21
92.283354536332951
 31
0.0
  0
LINE
  5
49E
  8
0
 62
     0
 10
30.403687063360479
 20
93.280265865981221
 30
0.0
 11
32.083203117846352
 21
94.959781920467094
 31
0.0
  0
LINE
  5
49F
  8
0
 62
     0
 10
28.618643583192071
 20
91.495222385812781
 30
0.0
 11
30.134735746952831
 21
93.011314549573555
 31
0.0
  0
LINE
  5
4A0
  8
0
 62
     0
 10
28.46272011994947
 20
92.223182399053385
 30
0.0
 11
31.260775817104498
 21
95.021238096208435
 31
0.0
  0
LINE
  5
4A1
  8
0
 62
     0
 10
28.306796656706901
 20
92.951142412293976
 30
0.0
 11
30.438348516362709
 21
95.082694271949777
 31
0.0
  0
LINE
  5
4A2
  8
0
 62
     0
 10
27.936405161135099
 20
93.464634393205344
 30
0.0
 11
29.61592121562089
 21
95.144150447691146
 31
0.0
  0
LINE
  5
4A3
  8
0
 62
     0
 10
27.113977860393248
 20
93.526090568946728
 30
0.0
 11
28.79349391487904
 21
95.205606623432544
 31
0.0
  0
LINE
  5
4A4
  8
0
 62
     0
 10
26.29155055965143
 20
93.587546744688098
 30
0.0
 11
27.971066614137211
 21
95.267062799173885
 31
0.0
  0
LINE
  5
4A5
  8
0
 62
     0
 10
25.469123258909612
 20
93.649002920429439
 30
0.0
 11
27.148639313395421
 21
95.328518974915227
 31
0.0
  0
LINE
  5
4A6
  8
0
 62
     0
 10
24.646695958167779
 20
93.710459096170794
 30
0.0
 11
26.326212012653599
 21
95.389975150656639
 31
0.0
  0
LINE
  5
4A7
  8
0
 62
     0
 10
23.824268657425961
 20
93.771915271912178
 30
0.0
 11
25.503784711911798
 21
95.451431326397994
 31
0.0
  0
LINE
  5
4A8
  8
0
 62
     0
 10
23.001841356684139
 20
93.833371447653519
 30
0.0
 11
24.681357411170008
 21
95.512887502139407
 31
0.0
  0
LINE
  5
4A9
  8
0
 62
     0
 10
22.179414055942321
 20
93.894827623394875
 30
0.0
 11
23.85893011042814
 21
95.574343677880734
 31
0.0
  0
LINE
  5
4AA
  8
0
 62
     0
 10
13.623799596774891
 20
85.339213164227473
 30
0.0
 11
13.92792083639884
 21
85.643334403851441
 31
0.0
  0
LINE
  5
4AB
  8
0
 62
     0
 10
21.356986755200499
 20
93.956283799136216
 30
0.0
 11
23.036502809686372
 21
95.635799853622103
 31
0.0
  0
LINE
  5
4AC
  8
0
 62
     0
 10
12.985158274587629
 20
85.584455318523396
 30
0.0
 11
14.23652113584347
 21
86.835818179779224
 31
0.0
  0
LINE
  5
4AD
  8
0
 62
     0
 10
20.53455945445867
 20
94.0177399748776
 30
0.0
 11
22.21407550894455
 21
95.697256029363473
 31
0.0
  0
LINE
  5
4AE
  8
0
 62
     0
 10
12.8171875361343
 20
86.300368056553197
 30
0.0
 11
14.0805976726009
 21
87.563778193019829
 31
0.0
  0
LINE
  5
4AF
  8
0
 62
     0
 10
19.712132153716819
 20
94.079196150618969
 30
0.0
 11
21.3916482082027
 21
95.758712205104828
 31
0.0
  0
LINE
  5
4B0
  8
0
 62
     0
 10
12.661264072891671
 20
87.028328069793815
 30
0.0
 11
13.924674209358241
 21
88.291738206260376
 31
0.0
  0
LINE
  5
4B1
  8
0
 62
     0
 10
18.889704852975051
 20
94.140652326360367
 30
0.0
 11
20.569220907460899
 21
95.820168380846184
 31
0.0
  0
LINE
  5
4B2
  8
0
 62
     0
 10
12.505340609649091
 20
87.756288083034406
 30
0.0
 11
13.76875074611567
 21
89.019698219500981
 31
0.0
  0
LINE
  5
4B3
  8
0
 62
     0
 10
18.067277552233179
 20
94.202108502101666
 30
0.0
 11
19.746793606719049
 21
95.881624556587553
 31
0.0
  0
LINE
  5
4B4
  8
0
 62
     0
 10
12.349417146406459
 20
88.484248096274968
 30
0.0
 11
13.611798738057701
 21
89.746629687926188
 31
0.0
  0
LINE
  5
4B5
  8
0
 62
     0
 10
17.24485025149141
 20
94.263564677843064
 30
0.0
 11
18.92436630597723
 21
95.943080732328923
 31
0.0
  0
LINE
  5
4B6
  8
0
 62
     0
 10
12.19349368316386
 20
89.212208109515558
 30
0.0
 11
13.341776309980441
 21
90.360490736332125
 31
0.0
  0
LINE
  5
4B7
  8
0
 62
     0
 10
11.831086255456251
 20
89.733684158291126
 30
0.0
 11
12.91995115221215
 21
90.822549055047006
 31
0.0
  0
LINE
  5
4B8
  8
0
 62
     0
 10
16.42242295074962
 20
94.325020853584476
 30
0.0
 11
18.101939005235408
 21
96.004536908070264
 31
0.0
  0
LINE
  5
4B9
  8
0
 62
     0
 10
9.1341550251335093
 20
87.036752927968365
 30
0.0
 11
9.9318866591425206
 21
87.834484561977348
 31
0.0
  0
LINE
  5
4BA
  8
0
 62
     0
 10
10.79714838559857
 20
89.583629764916651
 30
0.0
 11
12.35349550811762
 21
91.139976887435665
 31
0.0
  0
LINE
  5
4BB
  8
0
 62
     0
 10
15.59999565000771
 20
94.386477029325746
 30
0.0
 11
17.279511704493579
 21
96.065993083811634
 31
0.0
  0
LINE
  5
4BC
  8
0
 62
     0
 10
8.2859388322241045
 20
87.07242021154218
 30
0.0
 11
9.7759631958998892
 21
88.562444575217938
 31
0.0
  0
LINE
  5
4BD
  8
0
 62
     0
 10
9.6723394424529943
 20
89.342704298254219
 30
0.0
 11
11.587523210783329
 21
91.25788806658457
 31
0.0
  0
LINE
  5
4BE
  8
0
 62
     0
 10
14.77756834926597
 20
94.447933205067173
 30
0.0
 11
16.457084403751761
 21
96.127449259553003
 31
0.0
  0
LINE
  5
4BF
  8
0
 62
     0
 10
7.9424267392998331
 20
87.612791595101086
 30
0.0
 11
9.6200397326572045
 21
89.290404588458443
 31
0.0
  0
LINE
  5
4C0
  8
0
 62
     0
 10
13.955141048524119
 20
94.509389380808557
 30
0.0
 11
15.634657103009911
 21
96.188905435294345
 31
0.0
  0
LINE
  5
4C1
  8
0
 62
     0
 10
7.6433165258255542
 20
88.197564858109985
 30
0.0
 11
10.499691324783351
 21
91.053939657067787
 31
0.0
  0
LINE
  5
4C2
  8
0
 62
     0
 10
13.132713747782301
 20
94.570845556549926
 30
0.0
 11
14.812229802268121
 21
96.250361611035714
 31
0.0
  0
LINE
  5
4C3
  8
0
 62
     0
 10
7.3442063123513028
 20
88.782338121118926
 30
0.0
 11
9.3748823816378604
 21
90.813014190405468
 31
0.0
  0
LINE
  5
4C4
  8
0
 62
     0
 10
12.310286447040509
 20
94.632301732291253
 30
0.0
 11
13.98980250152632
 21
96.311817786777127
 31
0.0
  0
LINE
  5
4C5
  8
0
 62
     0
 10
7.0450960988770532
 20
89.367111384127838
 30
0.0
 11
8.6307195270669013
 21
90.952734812317686
 31
0.0
  0
LINE
  5
4C6
  8
0
 62
     0
 10
11.487859146298661
 20
94.693757908032666
 30
0.0
 11
13.1673752007845
 21
96.373273962518482
 31
0.0
  0
LINE
  5
4C7
  8
0
 62
     0
 10
6.7459858854028587
 20
89.951884647136865
 30
0.0
 11
8.597633346607779
 21
91.803532108341784
 31
0.0
  0
LINE
  5
4C8
  8
0
 62
     0
 10
10.66543184555684
 20
94.755214083774007
 30
0.0
 11
12.34494790004271
 21
96.434730138259894
 31
0.0
  0
LINE
  5
4C9
  8
0
 62
     0
 10
6.6613035587473064
 20
90.751085796964475
 30
0.0
 11
8.7439085905598972
 21
92.833690828777037
 31
0.0
  0
LINE
  5
4CA
  8
0
 62
     0
 10
9.8430045448150167
 20
94.816670259515348
 30
0.0
 11
11.52252059930089
 21
96.496186314001235
 31
0.0
  0
LINE
  5
4CB
  8
0
 62
     0
 10
6.7760531313076617
 20
91.749718846007994
 30
0.0
 11
8.9178366673278031
 21
93.891502382028136
 31
0.0
  0
LINE
  5
4CC
  8
0
 62
     0
 10
6.914707488872522
 20
92.772256680056074
 30
0.0
 11
10.70009329855907
 21
96.557642489742591
 31
0.0
  0
LINE
  5
4CD
  8
0
 62
     0
 10
7.0792960137398211
 20
93.820728681406536
 30
0.0
 11
9.8776659978172461
 21
96.619098665483975
 31
0.0
  0
LINE
  5
4CE
  8
0
 62
     0
 10
7.3033290747811463
 20
94.928645218931024
 30
0.0
 11
8.870386829535704
 21
96.495702973685582
 31
0.0
  0
ENDBLK
  5
4D0
  8
0
  0
BLOCK
  8
0
  2
*U3
 70
     1
 10
0.0
 20
0.0
 30
0.0
  3
*U3
  1

  0
ARC
  5
4D2
  8
0
 10
33.631741239969926
 20
79.072139914883721
 30
0.0
 40
0.4999999999998979
 50
192.0896422473414
 51
282.72649471226759
  0
LINE
  5
4D3
  8
0
 10
33.142830682483783
 20
78.967419015448812
 30
0.0
 11
30.071816648309209
 21
93.305065002065788
 31
0.0
  0
LINE
  5
4D4
  8
0
 10
30.071816648309209
 20
93.305065002065788
 30
0.0
 11
38.053236844437492
 21
92.70865050829039
 31
0.0
  0
ARC
  5
4D5
  8
0
 10
35.951840509959368
 20
64.587055008648605
 30
0.0
 40
28.200000000000571
 50
66.726494712264142
 51
85.726494712263843
  0
LINE
  5
4D6
  8
0
 10
47.094245726113677
 20
90.492398202651046
 30
0.0
 11
57.734476600513347
 21
85.915822509052603
 31
0.0
  0
ARC
  5
4D7
  8
0
 10
163.30786744484189
 20
111.3759706945996
 30
0.0
 40
108.5999999999971
 50
193.55859556260131
 51
198.8251883709188
  0
ARC
  5
4D8
  8
0
 10
60.04389982805759
 20
76.171383038456327
 30
0.0
 40
0.4999999999999376
 50
259.95584216381258
 51
18.825188370930999
  0
ARC
  5
4D9
  8
0
 10
59.171864243091903
 20
71.248014888647731
 30
0.0
 40
4.4999999999996732
 50
79.955842163807148
 51
114.24874966675409
  0
ARC
  5
4DA
  8
0
 10
57.529068420489807
 20
74.895098913624054
 30
0.0
 40
0.5000000000001164
 50
114.2487496667641
 51
211.42950544820209
  0
LINE
  5
4DB
  8
0
 10
57.102427229875097
 20
74.634374356915274
 30
0.0
 11
57.365511527090291
 21
74.203871763631668
 31
0.0
  0
ARC
  5
4DC
  8
0
 10
57.792152717704766
 20
74.464596320340405
 30
0.0
 40
0.4999999999999255
 50
211.42950544821429
 51
293.21629474646761
  0
ARC
  5
4DD
  8
0
 10
59.171864243091868
 20
71.248014888647305
 30
0.0
 40
2.9999999999999361
 50
189.64271614995491
 51
113.2162947464722
  0
ARC
  5
4DE
  8
0
 10
55.721314235596651
 20
70.661751598159356
 30
0.0
 40
0.4999999999999295
 50
9.6427161499354952
 51
91.429505448182823
  0
LINE
  5
4DF
  8
0
 10
55.708840741403982
 20
71.161595985886748
 30
0.0
 11
55.204472410617541
 21
71.149009597803584
 31
0.0
  0
ARC
  5
4E0
  8
0
 10
55.216945904810501
 20
70.649165210076148
 30
0.0
 40
0.5000000000000027
 50
91.429505448214613
 51
188.61026122967041
  0
ARC
  5
4E1
  8
0
 10
59.171864243091683
 20
71.248014888647347
 30
0.0
 40
4.499999999999714
 50
188.61026122967229
 51
222.7264947122672
  0
ARC
  5
4E2
  8
0
 10
55.498859633005956
 20
67.855517705997755
 30
0.0
 40
0.4999999999998977
 50
282.72649471225071
 51
42.726494712257917
  0
LINE
  5
4E3
  8
0
 10
55.609008276745719
 20
67.367801316810144
 30
0.0
 11
51.079991540384469
 21
66.344942413469951
 31
0.0
  0
ARC
  5
4E4
  8
0
 10
50.96984289664482
 20
66.83265880265742
 30
0.0
 40
0.4999999999997501
 50
257.72649471222229
 51
282.72649471224349
  0
LINE
  5
4E5
  8
0
 10
50.863553617576542
 20
66.34408681292112
 30
0.0
 11
45.395767429117541
 21
67.533608652645057
 31
0.0
  0
ARC
  5
4E6
  8
0
 10
45.502056708185478
 20
68.022180642381741
 30
0.0
 40
0.5000000000000562
 50
215.2264947122822
 51
257.72649471226907
  0
LINE
  5
4E7
  8
0
 10
45.093617579601471
 20
67.733775583061401
 30
0.0
 11
43.984690259278523
 21
69.30423800644391
 31
0.0
  0
ARC
  5
4E8
  8
0
 10
43.576251130694679
 20
69.015832947123414
 30
0.0
 40
0.5000000000000056
 50
35.22649471230627
 51
102.72649471227049
  0
LINE
  5
4E9
  8
0
 10
43.466102486954753
 20
69.503549336311096
 30
0.0
 11
41.936007193284347
 21
69.157983911144157
 31
0.0
  0
LINE
  5
4EA
  8
0
 10
41.936007193284347
 20
69.157983911144157
 30
0.0
 11
40.900609942129762
 21
73.74251796950756
 31
0.0
  0
ARC
  5
4EB
  8
0
 10
38.657114551865618
 20
73.235834208303658
 30
0.0
 40
2.3000000000009142
 50
12.726494712271609
 51
75.062490216062855
  0
ARC
  5
4EC
  8
0
 10
39.378857657003671
 20
75.941215307186141
 30
0.0
 40
0.4999999999999217
 50
192.72649471223119
 51
255.06249021606871
  0
LINE
  5
4ED
  8
0
 10
38.89114126781601
 20
75.831066663446563
 30
0.0
 11
38.159736507183943
 21
79.069582152865692
 31
0.0
  0
ARC
  5
4EE
  8
0
 10
37.672020117996233
 20
78.959433509125859
 30
0.0
 40
0.5000000000000437
 50
12.7264947122578
 51
102.7264947122641
  0
LINE
  5
4EF
  8
0
 10
37.56187147425635
 20
79.447149898313569
 30
0.0
 11
33.741889883709803
 21
78.584423525696138
 31
0.0
  0
ARC
  5
4F0
  8
0
 10
9.6714975005467636
 20
94.127534547920263
 30
0.0
 40
0.6999999999999589
 50
85.726494712256937
 51
169.5877865049859
  0
LINE
  5
4F1
  8
0
 10
9.7236598209062208
 20
94.825588336918386
 30
0.0
 11
28.201046345476531
 21
93.444858985557033
 31
0.0
  0
LINE
  5
4F2
  8
0
 10
28.201046345476531
 20
93.444858985557033
 30
0.0
 11
30.218072672671301
 21
84.027966355569063
 31
0.0
  0
ARC
  5
4F3
  8
0
 10
29.72916211518509
 20
83.923245456134197
 30
0.0
 40
0.4999999999999311
 50
282.08964224732563
 51
12.08964224733513
  0
LINE
  5
4F4
  8
0
 10
29.833883014619889
 20
83.434334898647947
 30
0.0
 11
25.19997212222103
 21
82.441786652098074
 31
0.0
  0
ARC
  5
4F5
  8
0
 10
25.137139582560231
 20
82.735132986589377
 30
0.0
 40
0.2999999999994951
 50
192.0896422473177
 51
282.08964224732432
  0
LINE
  5
4F6
  8
0
 10
24.843793248068948
 20
82.672300446928645
 30
0.0
 11
24.76001652849931
 21
83.063428893019619
 31
0.0
  0
ARC
  5
4F7
  8
0
 10
24.466670194007978
 20
83.000596353358816
 30
0.0
 40
0.2999999999995436
 50
12.08964224732555
 51
102.0896422473202
  0
LINE
  5
4F8
  8
0
 10
24.403837654347232
 20
83.293942687850191
 30
0.0
 11
24.012709208357819
 21
83.210165968301894
 31
0.0
  0
ARC
  5
4F9
  8
0
 10
24.07554174801848
 20
82.916819633810704
 30
0.0
 40
0.2999999999993635
 50
102.0896422473061
 51
192.0896422473179
  0
LINE
  5
4FA
  8
0
 10
23.78219541352729
 20
82.853987094150014
 30
0.0
 11
24.201142933045158
 21
80.898046432539502
 31
0.0
  0
ARC
  5
4FB
  8
0
 10
24.347816100292729
 20
80.929462702370344
 30
0.0
 40
0.150000000001723
 50
192.089642247337
 51
222.0896422472284
  0
LINE
  5
4FC
  8
0
 10
24.236501546318038
 20
80.828918830981124
 30
0.0
 11
24.66196043890324
 21
80.357882991519602
 31
0.0
  0
ARC
  5
4FD
  8
0
 10
24.773274992878051
 20
80.458426862908979
 30
0.0
 40
0.1500000000018888
 50
222.08964224724431
 51
282.08964224726259
  0
LINE
  5
4FE
  8
0
 10
24.804691262708729
 20
80.311753695661196
 30
0.0
 11
25.304241082124658
 21
80.418753443571688
 31
0.0
  0
ARC
  5
4FF
  8
0
 10
25.272824812293671
 20
80.565426610819358
 30
0.0
 40
0.1500000000018623
 50
282.08964224739441
 51
342.08964224734711
  0
LINE
  5
500
  8
0
 10
25.415555636099128
 20
80.519297314961207
 30
0.0
 11
25.609087035466871
 21
81.118111919651881
 31
0.0
  0
LINE
  5
501
  8
0
 10
25.609087035466871
 20
81.118111919651881
 30
0.0
 11
26.030909995601998
 21
80.651101509024187
 31
0.0
  0
ARC
  5
502
  8
0
 10
26.142224549576699
 20
80.751645380413578
 30
0.0
 40
0.1500000000018586
 50
222.0896422472816
 51
282.08964224732603
  0
LINE
  5
503
  8
0
 10
26.173640819407531
 20
80.604972213165894
 30
0.0
 11
26.673190647348829
 21
80.711971962902325
 31
0.0
  0
ARC
  5
504
  8
0
 10
26.64177437751821
 20
80.858645130149867
 30
0.0
 40
0.1500000000016522
 50
282.0896422472635
 51
342.0896422473877
  0
LINE
  5
505
  8
0
 10
26.784505201323501
 20
80.812515834291872
 30
0.0
 11
26.978036600691269
 21
81.411330438982404
 31
0.0
  0
LINE
  5
506
  8
0
 10
26.978036600691269
 20
81.411330438982404
 30
0.0
 11
27.399859560826481
 21
80.944320028354795
 31
0.0
  0
ARC
  5
507
  8
0
 10
27.511174114801239
 20
81.044863899743945
 30
0.0
 40
0.1500000000017314
 50
222.08964224719421
 51
282.0896422472922
  0
LINE
  5
508
  8
0
 10
27.542590384631978
 20
80.89819073249636
 30
0.0
 11
28.042140208308009
 21
81.005190481319204
 31
0.0
  0
ARC
  5
509
  8
0
 10
28.010723938476989
 20
81.151863648566973
 30
0.0
 40
0.1500000000019795
 50
282.08964224739401
 51
342.08964224733057
  0
LINE
  5
50A
  8
0
 10
28.153454762282539
 20
81.105734352708765
 30
0.0
 11
28.346986161650371
 21
81.704548957399169
 31
0.0
  0
LINE
  5
50B
  8
0
 10
28.346986161650371
 20
81.704548957399169
 30
0.0
 11
28.76880912178569
 21
81.237538546771589
 31
0.0
  0
ARC
  5
50C
  8
0
 10
28.880123675760391
 20
81.338082418161008
 30
0.0
 40
0.1500000000018586
 50
222.0896422472816
 51
282.08964224728129
  0
LINE
  5
50D
  8
0
 10
28.911539945591102
 20
81.191409250913267
 30
0.0
 11
29.411089769265232
 21
81.298408999735784
 31
0.0
  0
ARC
  5
50E
  8
0
 10
29.379673499434489
 20
81.445082166983454
 30
0.0
 40
0.1500000000018324
 50
282.08964224730232
 51
342.08964224725497
  0
LINE
  5
50F
  8
0
 10
29.522404323239869
 20
81.398952871125104
 30
0.0
 11
29.715935722607611
 21
81.997767475815664
 31
0.0
  0
LINE
  5
510
  8
0
 10
29.715935722607611
 20
81.997767475815664
 30
0.0
 11
30.137758682742909
 21
81.530757065188098
 31
0.0
  0
ARC
  5
511
  8
0
 10
30.249073236717521
 20
81.631300936577674
 30
0.0
 40
0.150000000001907
 50
222.0896422473441
 51
282.08964224729942
  0
LINE
  5
512
  8
0
 10
30.280489506548349
 20
81.484627769329919
 30
0.0
 11
30.448331435638689
 21
81.520578225927935
 31
0.0
  0
ARC
  5
513
  8
0
 10
30.5111639752995
 20
81.227231891436674
 30
0.0
 40
0.2999999999994662
 50
12.089642247294091
 51
102.0896422473283
  0
LINE
  5
514
  8
0
 10
30.8045103097908
 20
81.290064431097278
 30
0.0
 11
31.307170135370651
 21
78.943296050797272
 31
0.0
  0
ARC
  5
515
  8
0
 10
31.013823800879351
 20
78.880463511136625
 30
0.0
 40
0.2999999999995171
 50
282.08964224734672
 51
12.08964224730188
  0
LINE
  5
516
  8
0
 10
31.076656340540239
 20
78.587117176645322
 30
0.0
 11
30.224339589267942
 21
78.404557451906555
 31
0.0
  0
ARC
  5
517
  8
0
 10
30.255755859098969
 20
78.257884284658758
 30
0.0
 40
0.1500000000019795
 50
102.089642247394
 51
162.0896422473306
  0
LINE
  5
518
  8
0
 10
30.11302503529339
 20
78.30401358051698
 30
0.0
 11
29.919493635925559
 21
77.705198975826335
 31
0.0
  0
LINE
  5
519
  8
0
 10
29.919493635925559
 20
77.705198975826335
 30
0.0
 11
29.497670675790229
 21
78.172209386454014
 31
0.0
  0
ARC
  5
51A
  8
0
 10
29.386356121815481
 20
78.071665515064765
 30
0.0
 40
0.1500000000017637
 50
42.089642247235759
 51
102.08964224729731
  0
LINE
  5
51B
  8
0
 10
29.354939851984771
 20
78.218338682312393
 30
0.0
 11
28.855390067882809
 21
78.111338941966025
 31
0.0
  0
ARC
  5
51C
  8
0
 10
28.88680633771364
 20
77.96466577471837
 30
0.0
 40
0.1500000000018192
 50
102.0896422473235
 51
162.0896422473628
  0
LINE
  5
51D
  8
0
 10
28.7440755139082
 20
78.010795070576464
 30
0.0
 11
28.550544114540461
 21
77.411980465885762
 31
0.0
  0
LINE
  5
51E
  8
0
 10
28.550544114540461
 20
77.411980465885762
 30
0.0
 11
28.128721154405021
 21
77.878990876513669
 31
0.0
  0
ARC
  5
51F
  8
0
 10
28.017406600430458
 20
77.778447005124349
 30
0.0
 40
0.150000000001687
 50
42.089642247289753
 51
102.0896422472897
  0
LINE
  5
520
  8
0
 10
27.985990330599751
 20
77.925120172371919
 30
0.0
 11
27.486440506921159
 21
77.81812042354855
 31
0.0
  0
ARC
  5
521
  8
0
 10
27.517856776752129
 20
77.671447256300851
 30
0.0
 40
0.1500000000018479
 50
102.0896422473707
 51
162.08964224736241
  0
LINE
  5
522
  8
0
 10
27.375125952946629
 20
77.717576552158974
 30
0.0
 11
27.181594553578751
 21
77.118761947468371
 31
0.0
  0
LINE
  5
523
  8
0
 10
27.181594553578751
 20
77.118761947468371
 30
0.0
 11
26.759771593443421
 21
77.585772358096065
 31
0.0
  0
ARC
  5
524
  8
0
 10
26.648457039468671
 20
77.485228486706703
 30
0.0
 40
0.1500000000018697
 50
42.089642247257743
 51
102.089642247239
  0
LINE
  5
525
  8
0
 10
26.61704076963807
 20
77.631901653954458
 30
0.0
 11
26.11749094595968
 21
77.524901905130932
 31
0.0
  0
ARC
  5
526
  8
0
 10
26.148907215790111
 20
77.378228737883234
 30
0.0
 40
0.1500000000017606
 50
102.0896422471841
 51
162.0896422472712
  0
LINE
  5
527
  8
0
 10
26.006176391984781
 20
77.424358033741555
 30
0.0
 11
25.812644992617209
 21
76.825543429050938
 31
0.0
  0
LINE
  5
528
  8
0
 10
25.812644992617209
 20
76.825543429050938
 30
0.0
 11
25.631867450764961
 21
77.02568662188618
 31
0.0
  0
ARC
  5
529
  8
0
 10
25.446343194142891
 20
76.858113502905724
 30
0.0
 40
0.2500000000000079
 50
42.089642247337451
 51
162.089642247298
  0
LINE
  5
52A
  8
0
 10
25.20845848780343
 20
76.93499566266857
 30
0.0
 11
25.125518169339621
 21
76.67836612257328
 31
0.0
  0
ARC
  5
52B
  8
0
 10
25.268248993145111
 20
76.632236826715186
 30
0.0
 40
0.1500000000018771
 50
162.08964224736991
 51
192.08964224746279
  0
LINE
  5
52C
  8
0
 10
25.121575825897452
 20
76.600820556883974
 30
0.0
 11
25.541507232937139
 21
74.640286418714794
 31
0.0
  0
ARC
  5
52D
  8
0
 10
25.834853567428532
 20
74.703118958375342
 30
0.0
 40
0.2999999999995415
 50
192.08964224728069
 51
282.08964224728612
  0
LINE
  5
52E
  8
0
 10
25.897686107089129
 20
74.409772623883995
 30
0.0
 11
26.28881455307862
 21
74.493549343432022
 31
0.0
  0
ARC
  5
52F
  8
0
 10
26.225982013417848
 20
74.78689567792334
 30
0.0
 40
0.2999999999995094
 50
282.08964224732961
 51
12.08964224731243
  0
LINE
  5
530
  8
0
 10
26.519328347909148
 20
74.849728217584044
 30
0.0
 11
26.435551628339141
 21
75.24085666367715
 31
0.0
  0
ARC
  5
531
  8
0
 10
26.72889796283042
 20
75.303689203338081
 30
0.0
 40
0.2999999999995038
 50
102.0896422473572
 51
192.089642247352
  0
LINE
  5
532
  8
0
 10
26.666065423169471
 20
75.597035537829328
 30
0.0
 11
28.011919966258858
 21
75.885307280180939
 31
0.0
  0
LINE
  5
533
  8
0
 10
28.011919966258858
 20
75.885307280180939
 30
0.0
 11
28.551553817037021
 21
73.495915416160983
 31
0.0
  0
ARC
  5
534
  8
0
 10
28.063837427849361
 20
73.385766772421107
 30
0.0
 40
0.4999999999999741
 50
310.39049920845389
 51
12.72649471226587
  0
ARC
  5
535
  8
0
 10
29.87821954648879
 20
71.253158620986341
 30
0.0
 40
2.3000000000008392
 50
130.39049920846409
 51
192.72649471226609
  0
LINE
  5
536
  8
0
 10
27.634724156224681
 20
70.746474859782637
 30
0.0
 11
28.670121407379359
 21
66.161940801419334
 31
0.0
  0
LINE
  5
537
  8
0
 10
28.670121407379359
 20
66.161940801419334
 30
0.0
 11
27.14002611370876
 21
65.816375376252594
 31
0.0
  0
ARC
  5
538
  8
0
 10
27.25017475744886
 20
65.328658987065012
 30
0.0
 40
0.4999999999999742
 50
102.72649471229271
 51
170.22649471229099
  0
LINE
  5
539
  8
0
 10
26.75743150675132
 20
65.413535891414668
 30
0.0
 11
26.43107690562212
 21
63.518921234199141
 31
0.0
  0
ARC
  5
53A
  8
0
 10
25.938333654924719
 20
63.603798138548832
 30
0.0
 40
0.4999999999998059
 50
307.72649471227362
 51
350.2264947122851
  0
LINE
  5
53B
  8
0
 10
26.244280081098591
 20
63.208327805513271
 30
0.0
 11
21.818428271452799
 21
59.784370479707619
 31
0.0
  0
ARC
  5
53C
  8
0
 10
21.512481845278671
 20
60.179840812743741
 30
0.0
 40
0.5000000000004166
 50
282.72649471226089
 51
307.72649471225537
  0
LINE
  5
53D
  8
0
 10
21.622630489018611
 20
59.69212442355564
 30
0.0
 11
18.656371453359469
 21
59.022207609189053
 31
0.0
  0
ARC
  5
53E
  8
0
 10
17.951420133424222
 20
62.143592499990028
 30
0.0
 40
3.1999999999998572
 50
211.331243570163
 51
282.72649471226578
  0
ARC
  5
53F
  8
0
 10
56.389313474088219
 20
85.542916314326348
 30
0.0
 40
48.199999993737983
 50
211.0520419688018
 51
211.3312435701998
  0
ARC
  5
540
  8
0
 10
15.52476468334754
 20
60.938472578859042
 30
0.0
 40
0.4999999999999853
 50
102.08964224731371
 51
211.0520419687976
  0
LINE
  5
541
  8
0
 10
15.420043783912829
 20
61.427383136345348
 30
0.0
 11
17.536356599064732
 21
61.880681143710191
 31
0.0
  0
ARC
  5
542
  8
0
 10
17.11747300132555
 20
63.836323373654608
 30
0.0
 40
1.9999999999992291
 50
282.08964224732892
 51
12.08964224732482
  0
LINE
  5
543
  8
0
 10
19.073115231270041
 20
64.255206971393662
 30
0.0
 11
18.4358062017522
 21
67.230612211362654
 31
0.0
  0
ARC
  5
544
  8
0
 10
17.457985086779392
 20
67.021170412493049
 30
0.0
 40
1.0000000000001921
 50
12.08964224732345
 51
57.089642247541718
  0
LINE
  5
545
  8
0
 10
18.001311311716218
 20
67.860692069924397
 30
0.0
 11
17.581550483004889
 21
68.132355182389986
 31
0.0
  0
ARC
  5
546
  8
0
 10
17.309887370536501
 20
67.712594353674376
 30
0.0
 40
0.5000000000000173
 50
57.089642247541789
 51
192.08964224733811
  0
LINE
  5
547
  8
0
 10
16.820976813050208
 20
67.607873454239481
 30
0.0
 11
17.606383558811331
 21
63.94104427309226
 31
0.0
  0
ARC
  5
548
  8
0
 10
17.117473001324981
 20
63.836323373657621
 30
0.0
 40
0.5000000000000284
 50
282.08964224733489
 51
12.089642247304919
  0
LINE
  5
549
  8
0
 10
17.222193900759859
 20
63.3474128161713
 30
0.0
 11
15.75546222830107
 21
63.03325011786665
 31
0.0
  0
ARC
  5
54A
  8
0
 10
15.650741328866159
 20
63.522160675353057
 30
0.0
 40
0.5000000000001103
 50
192.08964224732381
 51
282.0896422473341
  0
LINE
  5
54B
  8
0
 10
15.16183077137975
 20
63.41743977591824
 30
0.0
 11
14.865705536382681
 21
64.799959927192745
 31
0.0
  0
ARC
  5
54C
  8
0
 10
14.57235920189086
 20
64.737127387531814
 30
0.0
 40
0.3000000000000334
 50
12.089642247331261
 51
108.58964224732161
  0
LINE
  5
54D
  8
0
 10
14.47672281105161
 20
65.021475204029969
 30
0.0
 11
13.400858693264411
 21
64.659623432049457
 31
0.0
  0
ARC
  5
54E
  8
0
 10
13.560252677996569
 20
64.185710404552637
 30
0.0
 40
0.4999999999999851
 50
108.58964224733479
 51
177.089642247304
  0
LINE
  5
54F
  8
0
 10
13.06089758058121
 20
64.211097146865669
 30
0.0
 11
12.89925530426518
 21
61.03160709486999
 31
0.0
  0
ARC
  5
550
  8
0
 10
13.39861040168023
 20
61.006220352557222
 30
0.0
 40
0.4999999999996733
 50
177.0896422473335
 51
209.71531461050131
  0
ARC
  5
551
  8
0
 10
56.389313479566482
 20
85.542916317618534
 30
0.0
 40
50.00000000012929
 50
209.7153146104998
 51
211.33124357015649
  0
ARC
  5
552
  8
0
 10
17.951420133424222
 20
62.143592499990199
 30
0.0
 40
5.0000000000000142
 50
211.3312435701622
 51
282.72649471226401
  0
LINE
  5
553
  8
0
 10
19.052906570822952
 20
57.266428608113429
 30
0.0
 11
22.408412439801449
 21
58.024255141572283
 31
0.0
  0
ARC
  5
554
  8
0
 10
22.29826379606186
 20
58.511971530759723
 30
0.0
 40
0.4999999999997025
 50
282.72649471223889
 51
307.72649471223622
  0
LINE
  5
555
  8
0
 10
22.604210222235391
 20
58.116501197724048
 30
0.0
 11
27.899331221071979
 21
62.212948416196177
 31
0.0
  0
ARC
  5
556
  8
0
 10
27.59338479489784
 20
62.608418749231873
 30
0.0
 40
0.5000000000000977
 50
307.72649471228982
 51
350.22649471228868
  0
LINE
  5
557
  8
0
 10
28.086128045595501
 20
62.52354184488216
 30
0.0
 11
28.327140645640721
 21
63.922713185012952
 31
0.0
  0
ARC
  5
558
  8
0
 10
28.819883896338158
 20
63.83783628066324
 30
0.0
 40
0.4999999999998435
 50
102.7264947122559
 51
170.22649471228419
  0
LINE
  5
559
  8
0
 10
28.709735252598389
 20
64.325552669850779
 30
0.0
 11
32.188041415643909
 21
65.111113120278901
 31
0.0
  0
ARC
  5
55A
  8
0
 10
32.077892771904153
 20
65.598829509466668
 30
0.0
 40
0.5000000000000627
 50
282.72649471224832
 51
12.726494712257789
  0
LINE
  5
55B
  8
0
 10
32.565609161091913
 20
65.708978153206516
 30
0.0
 11
32.345311873612047
 21
66.684410931581894
 31
0.0
  0
ARC
  5
55C
  8
0
 10
32.052682040099462
 20
66.618321745337894
 30
0.0
 40
0.3000000000000269
 50
12.72649471227678
 51
102.72649471225969
  0
LINE
  5
55D
  8
0
 10
31.986592853855541
 20
66.910951578850529
 30
0.0
 11
30.91361679764271
 21
66.66862456262281
 31
0.0
  0
ARC
  5
55E
  8
0
 10
30.80346815390277
 20
67.156340951810492
 30
0.0
 40
0.5000000000000185
 50
192.72649471227049
 51
282.72649471227049
  0
LINE
  5
55F
  8
0
 10
30.31575176471512
 20
67.046192308070559
 30
0.0
 11
29.39050315730023
 21
71.143009977246436
 31
0.0
  0
ARC
  5
560
  8
0
 10
29.878219546488712
 20
71.253158620986397
 30
0.0
 40
0.500000000000826
 50
102.7264947122749
 51
192.72649471225441
  0
LINE
  5
561
  8
0
 10
29.76807090274858
 20
71.740875010174861
 30
0.0
 11
30.255787291935441
 21
71.851023653914666
 31
0.0
  0
ARC
  5
562
  8
0
 10
30.1456386481957
 20
72.338740043102334
 30
0.0
 40
0.4999999999999732
 50
282.72649471224929
 51
12.72649471223909
  0
LINE
  5
563
  8
0
 10
30.63335503738341
 20
72.448888686841983
 30
0.0
 11
29.972463174943901
 21
75.375187021968415
 31
0.0
  0
ARC
  5
564
  8
0
 10
30.460179564131661
 20
75.485335665708064
 30
0.0
 40
0.500000000000016
 50
102.72649471225709
 51
192.7264947122373
  0
LINE
  5
565
  8
0
 10
30.350030920391848
 20
75.973052054895774
 30
0.0
 11
36.202627590644397
 21
77.294835779774218
 31
0.0
  0
ARC
  5
566
  8
0
 10
36.312776234384273
 20
76.807119390586649
 30
0.0
 40
0.499999999999861
 50
12.72649471227643
 51
102.7264947122701
  0
LINE
  5
567
  8
0
 10
36.80049262357182
 20
76.917268034326597
 30
0.0
 11
37.461384486011013
 21
73.990969699200505
 31
0.0
  0
ARC
  5
568
  8
0
 10
37.949100875198759
 20
74.101118342940396
 30
0.0
 40
0.5000000000000929
 50
192.72649471226239
 51
282.72649471225219
  0
LINE
  5
569
  8
0
 10
38.059249518938572
 20
73.6134019537526
 30
0.0
 11
38.546965908125401
 21
73.723550597492547
 31
0.0
  0
ARC
  5
56A
  8
0
 10
38.657114551865362
 20
73.235834208303913
 30
0.0
 40
0.5000000000009406
 50
12.726494712261241
 51
102.7264947122478
  0
LINE
  5
56B
  8
0
 10
39.144830941053961
 20
73.345982852043974
 30
0.0
 11
40.180228192208851
 21
68.761448793680472
 31
0.0
  0
LINE
  5
56C
  8
0
 10
40.180228192208851
 20
68.761448793680472
 30
0.0
 11
38.619535746808083
 21
68.408973133713005
 31
0.0
  0
ARC
  5
56D
  8
0
 10
38.685624933051969
 20
68.116343300200413
 30
0.0
 40
0.2999999999999904
 50
102.7264947122585
 51
192.7264947122691
  0
LINE
  5
56E
  8
0
 10
38.392995099539412
 20
68.050254113956456
 30
0.0
 11
38.613292387019222
 21
67.074821335580964
 31
0.0
  0
ARC
  5
56F
  8
0
 10
39.101008776206903
 20
67.18496997932094
 30
0.0
 40
0.5000000000000058
 50
192.7264947122768
 51
282.7264947122768
  0
LINE
  5
570
  8
0
 10
39.211157419946893
 20
66.697253590133286
 30
0.0
 11
42.689463582992289
 21
67.482814040561394
 31
0.0
  0
ARC
  5
571
  8
0
 10
42.799612226732222
 20
66.995097651373811
 30
0.0
 40
0.4999999999999351
 50
35.22649471229775
 51
102.7264947122715
  0
LINE
  5
572
  8
0
 10
43.208051355316059
 20
67.283502710694222
 30
0.0
 11
44.026993254121237
 21
66.12371752420222
 31
0.0
  0
ARC
  5
573
  8
0
 10
44.435432382705272
 20
66.412122583522617
 30
0.0
 40
0.5000000000000889
 50
215.2264947122849
 51
257.72649471227322
  0
LINE
  5
574
  8
0
 10
44.329143103637357
 20
65.923550593785876
 30
0.0
 11
50.870841901721171
 21
64.500398092753215
 31
0.0
  0
ARC
  5
575
  8
0
 10
50.977131180788938
 20
64.988970082490241
 30
0.0
 40
0.5000000000003472
 50
257.72649471229607
 51
282.72649471226902
  0
LINE
  5
576
  8
0
 10
51.087279824528963
 20
64.501253693302232
 30
0.0
 11
64.34368413238289
 21
67.495155452087715
 31
0.0
  0
ARC
  5
577
  8
0
 10
64.453832776122653
 20
67.007439062900033
 30
0.0
 40
0.499999999999975
 50
31.42102765705031
 51
102.72649471224931
  0
LINE
  5
578
  8
0
 10
64.880512540271923
 20
67.268100488633664
 30
0.0
 11
69.31391349514567
 21
60.011014141929692
 31
0.0
  0
ARC
  5
579
  8
0
 10
66.753834910250305
 20
58.447045587527249
 30
0.0
 40
2.999999999999889
 50
354.06417568415759
 51
31.421027657063131
  0
ARC
  5
57A
  8
0
 10
70.632924480789313
 20
58.043729205843491
 30
0.0
 40
0.899999999999953
 50
174.0641756841552
 51
354.0641756841552
  0
ARC
  5
57B
  8
0
 10
66.753834910250191
 20
58.447045587527441
 30
0.0
 40
4.7999999999999394
 50
354.06417568415452
 51
31.421027657059529
  0
LINE
  5
57C
  8
0
 10
70.849960646082991
 20
60.949395274571138
 30
0.0
 11
63.931136600922962
 21
72.274900011105331
 31
0.0
  0
ARC
  5
57D
  8
0
 10
64.357816365072296
 20
72.535561436839004
 30
0.0
 40
0.5000000000000286
 50
110.4210276570556
 51
211.4210276570513
  0
LINE
  5
57E
  8
0
 10
64.183358361040689
 20
73.00413843673266
 30
0.0
 11
68.956830487677223
 21
74.781371249488444
 31
0.0
  0
ARC
  5
57F
  8
0
 10
69.131288491708915
 20
74.312794249594901
 30
0.0
 40
0.4999999999999666
 50
31.421027657056939
 51
110.4210276570696
  0
LINE
  5
580
  8
0
 10
69.557968255858157
 20
74.573455675328574
 30
0.0
 11
77.53962438987719
 21
61.508188548835143
 31
0.0
  0
ARC
  5
581
  8
0
 10
77.752964271951782
 20
61.638519261702051
 30
0.0
 40
0.2500000000000103
 50
211.4210276570694
 51
347.99944399627191
  0
ARC
  5
582
  8
0
 10
73.106772752260781
 20
62.626144880219698
 30
0.0
 40
5.000000000000111
 50
347.99944399627702
 51
31.421027657059049
  0
LINE
  5
583
  8
0
 10
77.373570393753425
 20
65.23275913755694
 30
0.0
 11
70.535346393005995
 21
76.426328710138321
 31
0.0
  0
ARC
  5
584
  8
0
 10
69.681986864707511
 20
75.905005858670862
 30
0.0
 40
0.9999999999999969
 50
31.42102765706068
 51
110.4210276570569
  0
LINE
  5
585
  8
0
 10
69.333070856644298
 20
76.842159858458103
 30
0.0
 11
63.54360301217941
 21
74.686657124052033
 31
0.0
  0
ARC
  5
586
  8
0
 10
63.369145008147648
 20
75.155234123945732
 30
0.0
 40
0.5000000000001106
 50
199.92200802477009
 51
290.42102765707278
  0
ARC
  5
587
  8
0
 10
163.30786744485451
 20
111.3759706946044
 30
0.0
 40
106.8000000000104
 50
194.28531635603389
 51
199.9220080247544
  0
LINE
  5
588
  8
0
 10
59.810230246871718
 20
85.022999430685147
 30
0.0
 11
64.325601729971822
 21
83.080848022406613
 31
0.0
  0
ARC
  5
589
  8
0
 10
63.061215322464932
 20
80.141234610321035
 30
0.0
 40
3.2000000000002351
 50
17.30592931894936
 51
66.726494712265264
  0
ARC
  5
58A
  8
0
 10
163.30786744188521
 20
111.37597069364089
 30
0.0
 40
101.7999999968888
 50
197.3059293189267
 51
197.63386503488621
  0
ARC
  5
58B
  8
0
 10
66.767773760204591
 20
80.688834768273068
 30
0.0
 40
0.5000000000000761
 50
197.63386503489991
 51
290.42102765706898
  0
LINE
  5
58C
  8
0
 10
66.942231764236311
 20
80.22025776837944
 30
0.0
 11
67.247756133747998
 21
80.334008916429894
 31
0.0
  0
ARC
  5
58D
  8
0
 10
66.898840125684472
 20
81.271162916217136
 30
0.0
 40
1.000000000000085
 50
290.42102765707369
 51
17.34156382818016
  0
ARC
  5
58E
  8
0
 10
163.30786755552171
 20
111.37597072930279
 30
0.0
 40
100.00000011598959
 50
197.3059293190658
 51
197.3415638282562
  0
ARC
  5
58F
  8
0
 10
63.06121532246582
 20
80.141234610320893
 30
0.0
 40
4.9999999999993197
 50
17.305929318954419
 51
66.726494712272697
  0
LINE
  5
590
  8
0
 10
65.03681908419432
 20
84.734380566703891
 30
0.0
 11
47.80546308033621
 21
92.145930746949261
 31
0.0
  0
ARC
  5
591
  8
0
 10
35.951840509959823
 20
64.587055008648605
 30
0.0
 40
30.000000000000529
 50
66.726494712265222
 51
85.726494712264568
  0
LINE
  5
592
  8
0
 10
38.187368525361713
 20
94.503645965714298
 30
0.0
 11
9.8577915018302065
 21
96.620583794342195
 31
0.0
  0
ARC
  5
593
  8
0
 10
9.6714975005465931
 20
94.127534547920149
 30
0.0
 40
2.4999999999999769
 50
85.726494712262124
 51
169.58778650498689
  0
ARC
  5
594
  8
0
 10
56.38931347944839
 20
85.542916317558621
 30
0.0
 40
49.99999999999558
 50
169.5877865049919
 51
174.46396988415071
  0
ARC
  5
595
  8
0
 10
7.1201948683097953
 20
90.318264606546464
 30
0.0
 40
0.4999999999998236
 50
174.46396988414801
 51
207.08964224735291
  0
LINE
  5
596
  8
0
 10
6.6750472972826742
 20
90.090572621600884
 30
0.0
 11
8.1248060056651639
 21
87.256232327335198
 31
0.0
  0
ARC
  5
597
  8
0
 10
8.5699535766926829
 20
87.483924312280465
 30
0.0
 40
0.4999999999999754
 50
207.08964224730349
 51
275.58964224732011
  0
LINE
  5
598
  8
0
 10
8.6186550687196473
 20
86.986301800054235
 30
0.0
 11
9.7483437964913264
 21
87.096862566934774
 31
0.0
  0
ARC
  5
599
  8
0
 10
9.7191229012750284
 20
87.395436074270563
 30
0.0
 40
0.3000000000000204
 50
275.58964224733973
 51
12.08964224732466
  0
LINE
  5
59A
  8
0
 10
10.01246923576684
 20
87.458268613931466
 30
0.0
 11
9.6116231013348283
 21
89.329699322691908
 31
0.0
  0
LINE
  5
59B
  8
0
 10
9.6116231013348283
 20
89.329699322691908
 30
0.0
 11
11.56726533128011
 21
89.748582920431303
 31
0.0
  0
ARC
  5
59C
  8
0
 10
11.67198623071479
 20
89.259672362944983
 30
0.0
 40
0.5000000000000284
 50
12.08964224733497
 51
102.0896422473144
  0
LINE
  5
59D
  8
0
 10
12.160896788201111
 20
89.364393262379849
 30
0.0
 11
12.94630353396218
 21
85.697564081232585
 31
0.0
  0
ARC
  5
59E
  8
0
 10
13.435214091448531
 20
85.802284980667267
 30
0.0
 40
0.5000000000000262
 50
192.08964224730809
 51
327.08964224712793
  0
LINE
  5
59F
  8
0
 10
13.85497492016219
 20
85.530621868195837
 30
0.0
 11
14.12663803263081
 21
85.950382696904995
 31
0.0
  0
ARC
  5
5A0
  8
0
 10
13.287116375203739
 20
86.493708921848167
 30
0.0
 40
1.00000000000005
 50
327.08964224710388
 51
12.089642247321541
  0
LINE
  5
5A1
  8
0
 10
14.264937490176409
 20
86.703150720717744
 30
0.0
 11
13.62762846065846
 21
89.678555960687035
 31
0.0
  0
ARC
  5
5A2
  8
0
 10
11.67198623071419
 20
89.259672362947796
 30
0.0
 40
1.9999999999991189
 50
12.089642247331501
 51
102.0896422473248
  0
LINE
  5
5A3
  8
0
 10
11.25310263297516
 20
91.215314592892128
 30
0.0
 11
9.1367898178231712
 21
90.762016585527405
 31
0.0
  0
ARC
  5
5A4
  8
0
 10
9.0320689183883474
 20
91.250927143013655
 30
0.0
 40
0.4999999999999631
 50
173.1272425258276
 51
282.08964224732961
  0
ARC
  5
5A5
  8
0
 10
56.389313479466381
 20
85.542916317557214
 30
0.0
 40
48.200000000013411
 50
169.5877865049942
 51
173.1272425258523
  0
ENDBLK
  5
5A7
  8
0
  0
ENDSEC
  0
SECTION
  2
ENTITIES
  0
ARC
  5
26D
  8
0
 10
1345.4013310707539
 20
2043.909104697017
 30
0.0
 40
0.4999999999998979
 50
192.0896422473414
 51
282.72649471226759
  0
LINE
  5
26E
  8
0
 10
1344.912420513268
 20
2043.8043837975811
 30
0.0
 11
1341.8414064790941
 21
2058.1420297841992
 31
0.0
  0
LINE
  5
26F
  8
0
 10
1341.8414064790941
 20
2058.1420297841992
 30
0.0
 11
1349.8228266752219
 21
2057.545615290423
 31
0.0
  0
ARC
  5
270
  8
0
 10
1347.7214303407441
 20
2029.424019790782
 30
0.0
 40
28.200000000000571
 50
66.726494712264142
 51
85.726494712263843
  0
LINE
  5
271
  8
0
 10
1358.863835556898
 20
2055.329362984784
 30
0.0
 11
1369.504066431298
 21
2050.752787291186
 31
0.0
  0
ARC
  5
272
  8
0
 10
1475.077457275627
 20
2076.2129354767321
 30
0.0
 40
108.5999999999971
 50
193.55859556260131
 51
198.8251883709188
  0
ARC
  5
273
  8
0
 10
1371.8134896588419
 20
2041.0083478205891
 30
0.0
 40
0.4999999999999376
 50
259.95584216381258
 51
18.825188370930999
  0
ARC
  5
274
  8
0
 10
1370.941454073876
 20
2036.084979670781
 30
0.0
 40
4.4999999999996732
 50
79.955842163807148
 51
114.24874966675409
  0
ARC
  5
275
  8
0
 10
1369.298658251274
 20
2039.732063695757
 30
0.0
 40
0.5000000000001164
 50
114.2487496667641
 51
211.42950544820209
  0
LINE
  5
276
  8
0
 10
1368.87201706066
 20
2039.471339139048
 30
0.0
 11
1369.1351013578751
 21
2039.0408365457649
 31
0.0
  0
ARC
  5
277
  8
0
 10
1369.5617425484891
 20
2039.301561102473
 30
0.0
 40
0.4999999999999255
 50
211.42950544821429
 51
293.21629474646761
  0
ARC
  5
278
  8
0
 10
1370.941454073876
 20
2036.0849796707801
 30
0.0
 40
2.9999999999999361
 50
189.64271614995491
 51
113.2162947464722
  0
ARC
  5
279
  8
0
 10
1367.4909040663811
 20
2035.4987163802921
 30
0.0
 40
0.4999999999999295
 50
9.6427161499354952
 51
91.429505448182823
  0
LINE
  5
27A
  8
0
 10
1367.478430572188
 20
2035.9985607680201
 30
0.0
 11
1366.974062241402
 21
2035.9859743799359
 31
0.0
  0
ARC
  5
27B
  8
0
 10
1366.986535735595
 20
2035.486129992209
 30
0.0
 40
0.5000000000000027
 50
91.429505448214613
 51
188.61026122967041
  0
ARC
  5
27C
  8
0
 10
1370.941454073876
 20
2036.0849796707801
 30
0.0
 40
4.499999999999714
 50
188.61026122967229
 51
222.7264947122672
  0
ARC
  5
27D
  8
0
 10
1367.2684494637911
 20
2032.692482488131
 30
0.0
 40
0.4999999999998977
 50
282.72649471225071
 51
42.726494712257917
  0
LINE
  5
27E
  8
0
 10
1367.37859810753
 20
2032.2047660989431
 30
0.0
 11
1362.8495813711691
 21
2031.1819071956029
 31
0.0
  0
ARC
  5
27F
  8
0
 10
1362.7394327274301
 20
2031.6696235847901
 30
0.0
 40
0.4999999999997501
 50
257.72649471222229
 51
282.72649471224349
  0
LINE
  5
280
  8
0
 10
1362.6331434483609
 20
2031.181051595054
 30
0.0
 11
1357.1653572599021
 21
2032.370573434778
 31
0.0
  0
ARC
  5
281
  8
0
 10
1357.2716465389699
 20
2032.859145424515
 30
0.0
 40
0.5000000000000562
 50
215.2264947122822
 51
257.72649471226907
  0
LINE
  5
282
  8
0
 10
1356.8632074103859
 20
2032.5707403651941
 30
0.0
 11
1355.754280090063
 21
2034.1412027885769
 31
0.0
  0
ARC
  5
283
  8
0
 10
1355.34584096148
 20
2033.8527977292561
 30
0.0
 40
0.5000000000000056
 50
35.22649471230627
 51
102.72649471227049
  0
LINE
  5
284
  8
0
 10
1355.235692317739
 20
2034.3405141184439
 30
0.0
 11
1353.705597024069
 21
2033.9949486932769
 31
0.0
  0
LINE
  5
285
  8
0
 10
1353.705597024069
 20
2033.9949486932769
 30
0.0
 11
1352.670199772914
 21
2038.5794827516399
 31
0.0
  0
ARC
  5
286
  8
0
 10
1350.4267043826501
 20
2038.0727989904369
 30
0.0
 40
2.3000000000009142
 50
12.726494712271609
 51
75.062490216062855
  0
ARC
  5
287
  8
0
 10
1351.148447487788
 20
2040.778180089319
 30
0.0
 40
0.4999999999999217
 50
192.72649471223119
 51
255.06249021606871
  0
LINE
  5
288
  8
0
 10
1350.6607310986001
 20
2040.66803144558
 30
0.0
 11
1349.929326337968
 21
2043.906546934998
 31
0.0
  0
ARC
  5
289
  8
0
 10
1349.441609948781
 20
2043.796398291259
 30
0.0
 40
0.5000000000000437
 50
12.7264947122578
 51
102.7264947122641
  0
LINE
  5
28A
  8
0
 10
1349.3314613050411
 20
2044.284114680446
 30
0.0
 11
1345.511479714494
 21
2043.4213883078289
 31
0.0
  0
ARC
  5
28B
  8
0
 10
1321.4410873313309
 20
2058.9644993300531
 30
0.0
 40
0.6999999999999589
 50
85.726494712256937
 51
169.5877865049859
  0
LINE
  5
28C
  8
0
 10
1321.493249651691
 20
2059.6625531190512
 30
0.0
 11
1339.970636176261
 21
2058.2818237676902
 31
0.0
  0
LINE
  5
28D
  8
0
 10
1339.970636176261
 20
2058.2818237676902
 30
0.0
 11
1341.987662503456
 21
2048.8649311377021
 31
0.0
  0
ARC
  5
28E
  8
0
 10
1341.4987519459701
 20
2048.7602102382671
 30
0.0
 40
0.4999999999999311
 50
282.08964224732563
 51
12.08964224733513
  0
LINE
  5
28F
  8
0
 10
1341.603472845404
 20
2048.2712996807809
 30
0.0
 11
1336.969561953005
 21
2047.278751434231
 31
0.0
  0
ARC
  5
290
  8
0
 10
1336.9067294133449
 20
2047.572097768722
 30
0.0
 40
0.2999999999994951
 50
192.0896422473177
 51
282.08964224732432
  0
LINE
  5
291
  8
0
 10
1336.613383078854
 20
2047.5092652290609
 30
0.0
 11
1336.5296063592839
 21
2047.9003936751531
 31
0.0
  0
ARC
  5
292
  8
0
 10
1336.236260024793
 20
2047.837561135492
 30
0.0
 40
0.2999999999995436
 50
12.08964224732555
 51
102.0896422473202
  0
LINE
  5
293
  8
0
 10
1336.1734274851319
 20
2048.130907469983
 30
0.0
 11
1335.782299039143
 21
2048.0471307504349
 31
0.0
  0
ARC
  5
294
  8
0
 10
1335.8451315788029
 20
2047.7537844159431
 30
0.0
 40
0.2999999999993635
 50
102.0896422473061
 51
192.0896422473179
  0
LINE
  5
295
  8
0
 10
1335.551785244312
 20
2047.690951876283
 30
0.0
 11
1335.97073276383
 21
2045.7350112146721
 31
0.0
  0
ARC
  5
296
  8
0
 10
1336.117405931077
 20
2045.7664274845031
 30
0.0
 40
0.150000000001723
 50
192.089642247337
 51
222.0896422472284
  0
LINE
  5
297
  8
0
 10
1336.0060913771031
 20
2045.6658836131139
 30
0.0
 11
1336.4315502696879
 21
2045.1948477736521
 31
0.0
  0
ARC
  5
298
  8
0
 10
1336.542864823663
 20
2045.2953916450419
 30
0.0
 40
0.1500000000018888
 50
222.08964224724431
 51
282.08964224726259
  0
LINE
  5
299
  8
0
 10
1336.574281093493
 20
2045.1487184777941
 30
0.0
 11
1337.073830912909
 21
2045.2557182257051
 31
0.0
  0
ARC
  5
29A
  8
0
 10
1337.042414643078
 20
2045.402391392952
 30
0.0
 40
0.1500000000018623
 50
282.08964224739441
 51
342.08964224734711
  0
LINE
  5
29B
  8
0
 10
1337.185145466884
 20
2045.356262097094
 30
0.0
 11
1337.3786768662519
 21
2045.9550767017849
 31
0.0
  0
LINE
  5
29C
  8
0
 10
1337.3786768662519
 20
2045.9550767017849
 30
0.0
 11
1337.8004998263871
 21
2045.4880662911571
 31
0.0
  0
ARC
  5
29D
  8
0
 10
1337.911814380361
 20
2045.588610162546
 30
0.0
 40
0.1500000000018586
 50
222.0896422472816
 51
282.08964224732603
  0
LINE
  5
29E
  8
0
 10
1337.9432306501919
 20
2045.4419369952991
 30
0.0
 11
1338.442780478133
 21
2045.548936745035
 31
0.0
  0
ARC
  5
29F
  8
0
 10
1338.411364208303
 20
2045.6956099122831
 30
0.0
 40
0.1500000000016522
 50
282.0896422472635
 51
342.0896422473877
  0
LINE
  5
2A0
  8
0
 10
1338.5540950321081
 20
2045.6494806164251
 30
0.0
 11
1338.747626431476
 21
2046.2482952211151
 31
0.0
  0
LINE
  5
2A1
  8
0
 10
1338.747626431476
 20
2046.2482952211151
 30
0.0
 11
1339.1694493916109
 21
2045.781284810487
 31
0.0
  0
ARC
  5
2A2
  8
0
 10
1339.2807639455859
 20
2045.881828681876
 30
0.0
 40
0.1500000000017314
 50
222.08964224719421
 51
282.0896422472922
  0
LINE
  5
2A3
  8
0
 10
1339.3121802154169
 20
2045.735155514629
 30
0.0
 11
1339.8117300390929
 21
2045.842155263452
 31
0.0
  0
ARC
  5
2A4
  8
0
 10
1339.780313769262
 20
2045.9888284307001
 30
0.0
 40
0.1500000000019795
 50
282.08964224739401
 51
342.08964224733057
  0
LINE
  5
2A5
  8
0
 10
1339.9230445930671
 20
2045.9426991348421
 30
0.0
 11
1340.1165759924349
 21
2046.5415137395321
 31
0.0
  0
LINE
  5
2A6
  8
0
 10
1340.1165759924349
 20
2046.5415137395321
 30
0.0
 11
1340.5383989525701
 21
2046.074503328904
 31
0.0
  0
ARC
  5
2A7
  8
0
 10
1340.6497135065449
 20
2046.1750472002941
 30
0.0
 40
0.1500000000018586
 50
222.0896422472816
 51
282.08964224728129
  0
LINE
  5
2A8
  8
0
 10
1340.6811297763761
 20
2046.028374033046
 30
0.0
 11
1341.1806796000501
 21
2046.135373781869
 31
0.0
  0
ARC
  5
2A9
  8
0
 10
1341.1492633302189
 20
2046.282046949116
 30
0.0
 40
0.1500000000018324
 50
282.08964224730232
 51
342.08964224725497
  0
LINE
  5
2AA
  8
0
 10
1341.2919941540249
 20
2046.235917653258
 30
0.0
 11
1341.4855255533921
 21
2046.834732257948
 31
0.0
  0
LINE
  5
2AB
  8
0
 10
1341.4855255533921
 20
2046.834732257948
 30
0.0
 11
1341.907348513527
 21
2046.367721847321
 31
0.0
  0
ARC
  5
2AC
  8
0
 10
1342.0186630675021
 20
2046.46826571871
 30
0.0
 40
0.150000000001907
 50
222.0896422473441
 51
282.08964224729942
  0
LINE
  5
2AD
  8
0
 10
1342.050079337333
 20
2046.321592551463
 30
0.0
 11
1342.217921266423
 21
2046.3575430080609
 31
0.0
  0
ARC
  5
2AE
  8
0
 10
1342.280753806084
 20
2046.06419667357
 30
0.0
 40
0.2999999999994662
 50
12.089642247294091
 51
102.0896422473283
  0
LINE
  5
2AF
  8
0
 10
1342.574100140575
 20
2046.1270292132299
 30
0.0
 11
1343.0767599661549
 21
2043.78026083293
 31
0.0
  0
ARC
  5
2B0
  8
0
 10
1342.783413631664
 20
2043.7174282932699
 30
0.0
 40
0.2999999999995171
 50
282.08964224734672
 51
12.08964224730188
  0
LINE
  5
2B1
  8
0
 10
1342.846246171325
 20
2043.4240819587781
 30
0.0
 11
1341.9939294200519
 21
2043.2415222340401
 31
0.0
  0
ARC
  5
2B2
  8
0
 10
1342.025345689884
 20
2043.0948490667911
 30
0.0
 40
0.1500000000019795
 50
102.089642247394
 51
162.0896422473306
  0
LINE
  5
2B3
  8
0
 10
1341.882614866078
 20
2043.14097836265
 30
0.0
 11
1341.6890834667099
 21
2042.5421637579591
 31
0.0
  0
LINE
  5
2B4
  8
0
 10
1341.6890834667099
 20
2042.5421637579591
 30
0.0
 11
1341.267260506575
 21
2043.0091741685869
 31
0.0
  0
ARC
  5
2B5
  8
0
 10
1341.1559459526
 20
2042.908630297198
 30
0.0
 40
0.1500000000017637
 50
42.089642247235759
 51
102.08964224729731
  0
LINE
  5
2B6
  8
0
 10
1341.124529682769
 20
2043.0553034644449
 30
0.0
 11
1340.624979898668
 21
2042.9483037240991
 31
0.0
  0
ARC
  5
2B7
  8
0
 10
1340.6563961684981
 20
2042.801630556851
 30
0.0
 40
0.1500000000018192
 50
102.0896422473235
 51
162.0896422473628
  0
LINE
  5
2B8
  8
0
 10
1340.513665344693
 20
2042.847759852709
 30
0.0
 11
1340.3201339453251
 21
2042.248945248019
 31
0.0
  0
LINE
  5
2B9
  8
0
 10
1340.3201339453251
 20
2042.248945248019
 30
0.0
 11
1339.8983109851899
 21
2042.715955658646
 31
0.0
  0
ARC
  5
2BA
  8
0
 10
1339.7869964312149
 20
2042.615411787257
 30
0.0
 40
0.150000000001687
 50
42.089642247289753
 51
102.0896422472897
  0
LINE
  5
2BB
  8
0
 10
1339.7555801613839
 20
2042.7620849545051
 30
0.0
 11
1339.2560303377061
 21
2042.655085205681
 31
0.0
  0
ARC
  5
2BC
  8
0
 10
1339.287446607537
 20
2042.508412038434
 30
0.0
 40
0.1500000000018479
 50
102.0896422473707
 51
162.08964224736241
  0
LINE
  5
2BD
  8
0
 10
1339.144715783731
 20
2042.554541334292
 30
0.0
 11
1338.9511843843629
 21
2041.9557267296011
 31
0.0
  0
LINE
  5
2BE
  8
0
 10
1338.9511843843629
 20
2041.9557267296011
 30
0.0
 11
1338.529361424228
 21
2042.4227371402289
 31
0.0
  0
ARC
  5
2BF
  8
0
 10
1338.418046870253
 20
2042.32219326884
 30
0.0
 40
0.1500000000018697
 50
42.089642247257743
 51
102.089642247239
  0
LINE
  5
2C0
  8
0
 10
1338.3866306004229
 20
2042.468866436087
 30
0.0
 11
1337.8870807767439
 21
2042.361866687264
 31
0.0
  0
ARC
  5
2C1
  8
0
 10
1337.9184970465751
 20
2042.2151935200161
 30
0.0
 40
0.1500000000017606
 50
102.0896422471841
 51
162.0896422472712
  0
LINE
  5
2C2
  8
0
 10
1337.7757662227691
 20
2042.261322815875
 30
0.0
 11
1337.5822348234019
 21
2041.662508211183
 31
0.0
  0
LINE
  5
2C3
  8
0
 10
1337.5822348234019
 20
2041.662508211183
 30
0.0
 11
1337.4014572815499
 21
2041.8626514040191
 31
0.0
  0
ARC
  5
2C4
  8
0
 10
1337.2159330249281
 20
2041.695078285039
 30
0.0
 40
0.2500000000000079
 50
42.089642247337451
 51
162.089642247298
  0
LINE
  5
2C5
  8
0
 10
1336.978048318588
 20
2041.7719604448009
 30
0.0
 11
1336.8951080001241
 21
2041.5153309047059
 31
0.0
  0
ARC
  5
2C6
  8
0
 10
1337.0378388239301
 20
2041.4692016088479
 30
0.0
 40
0.1500000000018771
 50
162.08964224736991
 51
192.08964224746279
  0
LINE
  5
2C7
  8
0
 10
1336.891165656682
 20
2041.437785339017
 30
0.0
 11
1337.3110970637219
 21
2039.4772512008481
 31
0.0
  0
ARC
  5
2C8
  8
0
 10
1337.6044433982131
 20
2039.540083740508
 30
0.0
 40
0.2999999999995415
 50
192.08964224728069
 51
282.08964224728612
  0
LINE
  5
2C9
  8
0
 10
1337.6672759378739
 20
2039.246737406017
 30
0.0
 11
1338.058404383863
 21
2039.3305141255651
 31
0.0
  0
ARC
  5
2CA
  8
0
 10
1337.995571844202
 20
2039.623860460056
 30
0.0
 40
0.2999999999995094
 50
282.08964224732961
 51
12.08964224731243
  0
LINE
  5
2CB
  8
0
 10
1338.2889181786941
 20
2039.686692999717
 30
0.0
 11
1338.205141459124
 21
2040.0778214458101
 31
0.0
  0
ARC
  5
2CC
  8
0
 10
1338.4984877936149
 20
2040.1406539854711
 30
0.0
 40
0.2999999999995038
 50
102.0896422473572
 51
192.089642247352
  0
LINE
  5
2CD
  8
0
 10
1338.4356552539541
 20
2040.434000319962
 30
0.0
 11
1339.781509797044
 21
2040.722272062314
 31
0.0
  0
LINE
  5
2CE
  8
0
 10
1339.781509797044
 20
2040.722272062314
 30
0.0
 11
1340.3211436478221
 21
2038.3328801982941
 31
0.0
  0
ARC
  5
2CF
  8
0
 10
1339.8334272586339
 20
2038.222731554554
 30
0.0
 40
0.4999999999999741
 50
310.39049920845389
 51
12.72649471226587
  0
ARC
  5
2D0
  8
0
 10
1341.647809377273
 20
2036.0901234031189
 30
0.0
 40
2.3000000000008392
 50
130.39049920846409
 51
192.72649471226609
  0
LINE
  5
2D1
  8
0
 10
1339.4043139870089
 20
2035.5834396419159
 30
0.0
 11
1340.4397112381639
 21
2030.998905583552
 31
0.0
  0
LINE
  5
2D2
  8
0
 10
1340.4397112381639
 20
2030.998905583552
 30
0.0
 11
1338.909615944493
 21
2030.6533401583849
 31
0.0
  0
ARC
  5
2D3
  8
0
 10
1339.019764588234
 20
2030.165623769198
 30
0.0
 40
0.4999999999999742
 50
102.72649471229271
 51
170.22649471229099
  0
LINE
  5
2D4
  8
0
 10
1338.5270213375361
 20
2030.250500673548
 30
0.0
 11
1338.2006667364069
 21
2028.3558860163321
 31
0.0
  0
ARC
  5
2D5
  8
0
 10
1337.707923485709
 20
2028.4407629206819
 30
0.0
 40
0.4999999999998059
 50
307.72649471227362
 51
350.2264947122851
  0
LINE
  5
2D6
  8
0
 10
1338.0138699118829
 20
2028.0452925876459
 30
0.0
 11
1333.5880181022369
 21
2024.6213352618411
 31
0.0
  0
ARC
  5
2D7
  8
0
 10
1333.282071676063
 20
2025.0168055948759
 30
0.0
 40
0.5000000000004166
 50
282.72649471226089
 51
307.72649471225537
  0
LINE
  5
2D8
  8
0
 10
1333.3922203198031
 20
2024.5290892056889
 30
0.0
 11
1330.425961284144
 21
2023.8591723913221
 31
0.0
  0
ARC
  5
2D9
  8
0
 10
1329.7210099642091
 20
2026.9805572821231
 30
0.0
 40
3.1999999999998572
 50
211.331243570163
 51
282.72649471226578
  0
ARC
  5
2DA
  8
0
 10
1368.1589033048731
 20
2050.379881096459
 30
0.0
 40
48.199999993737983
 50
211.0520419688018
 51
211.3312435701998
  0
ARC
  5
2DB
  8
0
 10
1327.294354514132
 20
2025.7754373609921
 30
0.0
 40
0.4999999999999853
 50
102.08964224731371
 51
211.0520419687976
  0
LINE
  5
2DC
  8
0
 10
1327.189633614697
 20
2026.2643479184781
 30
0.0
 11
1329.305946429849
 21
2026.717645925843
 31
0.0
  0
ARC
  5
2DD
  8
0
 10
1328.8870628321099
 20
2028.673288155788
 30
0.0
 40
1.9999999999992291
 50
282.08964224732892
 51
12.08964224732482
  0
LINE
  5
2DE
  8
0
 10
1330.8427050620551
 20
2029.0921717535271
 30
0.0
 11
1330.205396032537
 21
2032.067576993496
 31
0.0
  0
ARC
  5
2DF
  8
0
 10
1329.227574917564
 20
2031.8581351946259
 30
0.0
 40
1.0000000000001921
 50
12.08964224732345
 51
57.089642247541718
  0
LINE
  5
2E0
  8
0
 10
1329.7709011425011
 20
2032.697656852057
 30
0.0
 11
1329.3511403137891
 21
2032.969319964523
 31
0.0
  0
ARC
  5
2E1
  8
0
 10
1329.079477201321
 20
2032.5495591358069
 30
0.0
 40
0.5000000000000173
 50
57.089642247541789
 51
192.08964224733811
  0
LINE
  5
2E2
  8
0
 10
1328.590566643835
 20
2032.4448382363721
 30
0.0
 11
1329.3759733895961
 21
2028.7780090552251
 31
0.0
  0
ARC
  5
2E3
  8
0
 10
1328.8870628321099
 20
2028.6732881557909
 30
0.0
 40
0.5000000000000284
 50
282.08964224733489
 51
12.089642247304919
  0
LINE
  5
2E4
  8
0
 10
1328.991783731545
 20
2028.1843775983041
 30
0.0
 11
1327.5250520590851
 21
2027.8702149000001
 31
0.0
  0
ARC
  5
2E5
  8
0
 10
1327.4203311596509
 20
2028.359125457486
 30
0.0
 40
0.5000000000001103
 50
192.08964224732381
 51
282.0896422473341
  0
LINE
  5
2E6
  8
0
 10
1326.9314206021641
 20
2028.254404558051
 30
0.0
 11
1326.6352953671669
 21
2029.6369247093251
 31
0.0
  0
ARC
  5
2E7
  8
0
 10
1326.3419490326751
 20
2029.5740921696649
 30
0.0
 40
0.3000000000000334
 50
12.089642247331261
 51
108.58964224732161
  0
LINE
  5
2E8
  8
0
 10
1326.2463126418361
 20
2029.8584399861629
 30
0.0
 11
1325.1704485240491
 21
2029.496588214183
 31
0.0
  0
ARC
  5
2E9
  8
0
 10
1325.329842508781
 20
2029.0226751866851
 30
0.0
 40
0.4999999999999851
 50
108.58964224733479
 51
177.089642247304
  0
LINE
  5
2EA
  8
0
 10
1324.830487411366
 20
2029.048061928999
 30
0.0
 11
1324.6688451350501
 21
2025.868571877003
 31
0.0
  0
ARC
  5
2EB
  8
0
 10
1325.1682002324651
 20
2025.84318513469
 30
0.0
 40
0.4999999999996733
 50
177.0896422473335
 51
209.71531461050131
  0
ARC
  5
2EC
  8
0
 10
1368.158903310351
 20
2050.3798810997519
 30
0.0
 40
50.00000000012929
 50
209.7153146104998
 51
211.33124357015649
  0
ARC
  5
2ED
  8
0
 10
1329.7210099642091
 20
2026.9805572821231
 30
0.0
 40
5.0000000000000142
 50
211.3312435701622
 51
282.72649471226401
  0
LINE
  5
2EE
  8
0
 10
1330.8224964016069
 20
2022.103393390247
 30
0.0
 11
1334.1780022705859
 21
2022.861219923705
 31
0.0
  0
ARC
  5
2EF
  8
0
 10
1334.067853626846
 20
2023.348936312892
 30
0.0
 40
0.4999999999997025
 50
282.72649471223889
 51
307.72649471223622
  0
LINE
  5
2F0
  8
0
 10
1334.37380005302
 20
2022.9534659798569
 30
0.0
 11
1339.6689210518559
 21
2027.049913198329
 31
0.0
  0
ARC
  5
2F1
  8
0
 10
1339.362974625682
 20
2027.445383531365
 30
0.0
 40
0.5000000000000977
 50
307.72649471228982
 51
350.22649471228868
  0
LINE
  5
2F2
  8
0
 10
1339.8557178763799
 20
2027.360506627015
 30
0.0
 11
1340.0967304764249
 21
2028.759677967146
 31
0.0
  0
ARC
  5
2F3
  8
0
 10
1340.589473727123
 20
2028.674801062796
 30
0.0
 40
0.4999999999998435
 50
102.7264947122559
 51
170.22649471228419
  0
LINE
  5
2F4
  8
0
 10
1340.4793250833829
 20
2029.1625174519841
 30
0.0
 11
1343.9576312464289
 21
2029.948077902412
 31
0.0
  0
ARC
  5
2F5
  8
0
 10
1343.8474826026891
 20
2030.4357942915999
 30
0.0
 40
0.5000000000000627
 50
282.72649471224832
 51
12.726494712257789
  0
LINE
  5
2F6
  8
0
 10
1344.335198991877
 20
2030.54594293534
 30
0.0
 11
1344.1149017043961
 21
2031.5213757137151
 31
0.0
  0
ARC
  5
2F7
  8
0
 10
1343.8222718708839
 20
2031.4552865274709
 30
0.0
 40
0.3000000000000269
 50
12.72649471227678
 51
102.72649471225969
  0
LINE
  5
2F8
  8
0
 10
1343.75618268464
 20
2031.747916360983
 30
0.0
 11
1342.6832066284269
 21
2031.5055893447559
 31
0.0
  0
ARC
  5
2F9
  8
0
 10
1342.573057984687
 20
2031.9933057339431
 30
0.0
 40
0.5000000000000185
 50
192.72649471227049
 51
282.72649471227049
  0
LINE
  5
2FA
  8
0
 10
1342.0853415955
 20
2031.8831570902039
 30
0.0
 11
1341.1600929880849
 21
2035.97997475938
 31
0.0
  0
ARC
  5
2FB
  8
0
 10
1341.647809377273
 20
2036.0901234031189
 30
0.0
 40
0.500000000000826
 50
102.7264947122749
 51
192.72649471225441
  0
LINE
  5
2FC
  8
0
 10
1341.5376607335329
 20
2036.577839792307
 30
0.0
 11
1342.0253771227201
 21
2036.687988436048
 31
0.0
  0
ARC
  5
2FD
  8
0
 10
1341.91522847898
 20
2037.175704825235
 30
0.0
 40
0.4999999999999732
 50
282.72649471224929
 51
12.72649471223909
  0
LINE
  5
2FE
  8
0
 10
1342.4029448681681
 20
2037.2858534689749
 30
0.0
 11
1341.7420530057279
 21
2040.2121518041019
 31
0.0
  0
ARC
  5
2FF
  8
0
 10
1342.229769394916
 20
2040.3223004478409
 30
0.0
 40
0.500000000000016
 50
102.72649471225709
 51
192.7264947122373
  0
LINE
  5
300
  8
0
 10
1342.1196207511759
 20
2040.810016837029
 30
0.0
 11
1347.9722174214289
 21
2042.1318005619071
 31
0.0
  0
ARC
  5
301
  8
0
 10
1348.082366065169
 20
2041.6440841727201
 30
0.0
 40
0.499999999999861
 50
12.72649471227643
 51
102.7264947122701
  0
LINE
  5
302
  8
0
 10
1348.570082454356
 20
2041.7542328164591
 30
0.0
 11
1349.2309743167959
 21
2038.8279344813341
 31
0.0
  0
ARC
  5
303
  8
0
 10
1349.7186907059829
 20
2038.938083125073
 30
0.0
 40
0.5000000000000929
 50
192.72649471226239
 51
282.72649471225219
  0
LINE
  5
304
  8
0
 10
1349.828839349723
 20
2038.4503667358849
 30
0.0
 11
1350.31655573891
 21
2038.560515379625
 31
0.0
  0
ARC
  5
305
  8
0
 10
1350.4267043826501
 20
2038.0727989904369
 30
0.0
 40
0.5000000000009406
 50
12.726494712261241
 51
102.7264947122478
  0
LINE
  5
306
  8
0
 10
1350.9144207718391
 20
2038.182947634177
 30
0.0
 11
1351.949818022993
 21
2033.598413575814
 31
0.0
  0
LINE
  5
307
  8
0
 10
1351.949818022993
 20
2033.598413575814
 30
0.0
 11
1350.3891255775929
 21
2033.2459379158461
 31
0.0
  0
ARC
  5
308
  8
0
 10
1350.4552147638369
 20
2032.953308082333
 30
0.0
 40
0.2999999999999904
 50
102.7264947122585
 51
192.7264947122691
  0
LINE
  5
309
  8
0
 10
1350.1625849303241
 20
2032.8872188960891
 30
0.0
 11
1350.3828822178041
 21
2031.911786117714
 31
0.0
  0
ARC
  5
30A
  8
0
 10
1350.870598606992
 20
2032.0219347614541
 30
0.0
 40
0.5000000000000058
 50
192.7264947122768
 51
282.7264947122768
  0
LINE
  5
30B
  8
0
 10
1350.9807472507321
 20
2031.534218372266
 30
0.0
 11
1354.4590534137769
 21
2032.3197788226939
 31
0.0
  0
ARC
  5
30C
  8
0
 10
1354.569202057517
 20
2031.8320624335061
 30
0.0
 40
0.4999999999999351
 50
35.22649471229775
 51
102.7264947122715
  0
LINE
  5
30D
  8
0
 10
1354.9776411861001
 20
2032.1204674928269
 30
0.0
 11
1355.7965830849059
 21
2030.960682306335
 31
0.0
  0
ARC
  5
30E
  8
0
 10
1356.2050222134901
 20
2031.249087365655
 30
0.0
 40
0.5000000000000889
 50
215.2264947122849
 51
257.72649471227322
  0
LINE
  5
30F
  8
0
 10
1356.0987329344221
 20
2030.7605153759191
 30
0.0
 11
1362.6404317325059
 21
2029.3373628748859
 31
0.0
  0
ARC
  5
310
  8
0
 10
1362.746721011574
 20
2029.8259348646229
 30
0.0
 40
0.5000000000003472
 50
257.72649471229607
 51
282.72649471226902
  0
LINE
  5
311
  8
0
 10
1362.8568696553141
 20
2029.338218475435
 30
0.0
 11
1376.113273963168
 21
2032.3321202342211
 31
0.0
  0
ARC
  5
312
  8
0
 10
1376.223422606907
 20
2031.844403845033
 30
0.0
 40
0.499999999999975
 50
31.42102765705031
 51
102.72649471224931
  0
LINE
  5
313
  8
0
 10
1376.6501023710559
 20
2032.105065270767
 30
0.0
 11
1381.08350332593
 21
2024.8479789240621
 31
0.0
  0
ARC
  5
314
  8
0
 10
1378.5234247410349
 20
2023.2840103696601
 30
0.0
 40
2.999999999999889
 50
354.06417568415759
 51
31.421027657063131
  0
ARC
  5
315
  8
0
 10
1382.4025143115739
 20
2022.8806939879771
 30
0.0
 40
0.899999999999953
 50
174.0641756841552
 51
354.0641756841552
  0
ARC
  5
316
  8
0
 10
1378.5234247410349
 20
2023.2840103696601
 30
0.0
 40
4.7999999999999394
 50
354.06417568415452
 51
31.421027657059529
  0
LINE
  5
317
  8
0
 10
1382.6195504768671
 20
2025.7863600567041
 30
0.0
 11
1375.7007264317081
 21
2037.1118647932381
 31
0.0
  0
ARC
  5
318
  8
0
 10
1376.127406195857
 20
2037.3725262189721
 30
0.0
 40
0.5000000000000286
 50
110.4210276570556
 51
211.4210276570513
  0
LINE
  5
319
  8
0
 10
1375.952948191825
 20
2037.841103218866
 30
0.0
 11
1380.726420318462
 21
2039.618336031622
 31
0.0
  0
ARC
  5
31A
  8
0
 10
1380.9008783224931
 20
2039.1497590317281
 30
0.0
 40
0.4999999999999666
 50
31.421027657056939
 51
110.4210276570696
  0
LINE
  5
31B
  8
0
 10
1381.327558086643
 20
2039.410420457461
 30
0.0
 11
1389.3092142206619
 21
2026.3451533309681
 31
0.0
  0
ARC
  5
31C
  8
0
 10
1389.522554102736
 20
2026.475484043835
 30
0.0
 40
0.2500000000000103
 50
211.4210276570694
 51
347.99944399627191
  0
ARC
  5
31D
  8
0
 10
1384.8763625830461
 20
2027.4631096623521
 30
0.0
 40
5.000000000000111
 50
347.99944399627702
 51
31.421027657059049
  0
LINE
  5
31E
  8
0
 10
1389.143160224538
 20
2030.06972391969
 30
0.0
 11
1382.3049362237909
 21
2041.263293492271
 31
0.0
  0
ARC
  5
31F
  8
0
 10
1381.4515766954919
 20
2040.7419706408029
 30
0.0
 40
0.9999999999999969
 50
31.42102765706068
 51
110.4210276570569
  0
LINE
  5
320
  8
0
 10
1381.1026606874291
 20
2041.679124640591
 30
0.0
 11
1375.3131928429641
 21
2039.5236219061851
 31
0.0
  0
ARC
  5
321
  8
0
 10
1375.1387348389319
 20
2039.9921989060781
 30
0.0
 40
0.5000000000001106
 50
199.92200802477009
 51
290.42102765707278
  0
ARC
  5
322
  8
0
 10
1475.0774572756391
 20
2076.2129354767371
 30
0.0
 40
106.8000000000104
 50
194.28531635603389
 51
199.9220080247544
  0
LINE
  5
323
  8
0
 10
1371.579820077656
 20
2049.8599642128179
 30
0.0
 11
1376.0951915607559
 21
2047.9178128045401
 31
0.0
  0
ARC
  5
324
  8
0
 10
1374.8308051532499
 20
2044.9781993924539
 30
0.0
 40
3.2000000000002351
 50
17.30592931894936
 51
66.726494712265264
  0
ARC
  5
325
  8
0
 10
1475.07745727267
 20
2076.212935475774
 30
0.0
 40
101.7999999968888
 50
197.3059293189267
 51
197.63386503488621
  0
ARC
  5
326
  8
0
 10
1378.5373635909889
 20
2045.525799550406
 30
0.0
 40
0.5000000000000761
 50
197.63386503489991
 51
290.42102765706898
  0
LINE
  5
327
  8
0
 10
1378.7118215950211
 20
2045.057222550513
 30
0.0
 11
1379.0173459645321
 21
2045.1709736985631
 31
0.0
  0
ARC
  5
328
  8
0
 10
1378.668429956469
 20
2046.10812769835
 30
0.0
 40
1.000000000000085
 50
290.42102765707369
 51
17.34156382818016
  0
ARC
  5
329
  8
0
 10
1475.0774573863059
 20
2076.2129355114362
 30
0.0
 40
100.00000011598959
 50
197.3059293190658
 51
197.3415638282562
  0
ARC
  5
32A
  8
0
 10
1374.8308051532499
 20
2044.9781993924539
 30
0.0
 40
4.9999999999993197
 50
17.305929318954419
 51
66.726494712272697
  0
LINE
  5
32B
  8
0
 10
1376.8064089149791
 20
2049.571345348837
 30
0.0
 11
1359.575052911121
 21
2056.9828955290818
 31
0.0
  0
ARC
  5
32C
  8
0
 10
1347.7214303407441
 20
2029.424019790782
 30
0.0
 40
30.000000000000529
 50
66.726494712265222
 51
85.726494712264568
  0
LINE
  5
32D
  8
0
 10
1349.9569583561461
 20
2059.3406107478472
 30
0.0
 11
1321.627381332615
 21
2061.4575485764749
 31
0.0
  0
ARC
  5
32E
  8
0
 10
1321.4410873313309
 20
2058.9644993300531
 30
0.0
 40
2.4999999999999769
 50
85.726494712262124
 51
169.58778650498689
  0
ARC
  5
32F
  8
0
 10
1368.158903310233
 20
2050.3798810996918
 30
0.0
 40
49.99999999999558
 50
169.5877865049919
 51
174.46396988415071
  0
ARC
  5
330
  8
0
 10
1318.889784699094
 20
2055.1552293886789
 30
0.0
 40
0.4999999999998236
 50
174.46396988414801
 51
207.08964224735291
  0
LINE
  5
331
  8
0
 10
1318.4446371280669
 20
2054.9275374037338
 30
0.0
 11
1319.89439583645
 21
2052.0931971094678
 31
0.0
  0
ARC
  5
332
  8
0
 10
1320.3395434074771
 20
2052.3208890944138
 30
0.0
 40
0.4999999999999754
 50
207.08964224730349
 51
275.58964224732011
  0
LINE
  5
333
  8
0
 10
1320.3882448995039
 20
2051.823266582187
 30
0.0
 11
1321.5179336272761
 21
2051.9338273490671
 31
0.0
  0
ARC
  5
334
  8
0
 10
1321.4887127320601
 20
2052.2324008564042
 30
0.0
 40
0.3000000000000204
 50
275.58964224733973
 51
12.08964224732466
  0
LINE
  5
335
  8
0
 10
1321.782059066551
 20
2052.2952333960638
 30
0.0
 11
1321.3812129321191
 21
2054.1666641048241
 31
0.0
  0
LINE
  5
336
  8
0
 10
1321.3812129321191
 20
2054.1666641048241
 30
0.0
 11
1323.3368551620649
 21
2054.5855477025639
 31
0.0
  0
ARC
  5
337
  8
0
 10
1323.4415760614991
 20
2054.0966371450781
 30
0.0
 40
0.5000000000000284
 50
12.08964224733497
 51
102.0896422473144
  0
LINE
  5
338
  8
0
 10
1323.9304866189859
 20
2054.2013580445132
 30
0.0
 11
1324.715893364747
 21
2050.5345288633648
 31
0.0
  0
ARC
  5
339
  8
0
 10
1325.2048039222329
 20
2050.6392497627999
 30
0.0
 40
0.5000000000000262
 50
192.08964224730809
 51
327.08964224712793
  0
LINE
  5
33A
  8
0
 10
1325.624564750947
 20
2050.367586650329
 30
0.0
 11
1325.8962278634151
 21
2050.7873474790381
 31
0.0
  0
ARC
  5
33B
  8
0
 10
1325.056706205989
 20
2051.3306737039811
 30
0.0
 40
1.00000000000005
 50
327.08964224710388
 51
12.089642247321541
  0
LINE
  5
33C
  8
0
 10
1326.0345273209609
 20
2051.5401155028499
 30
0.0
 11
1325.3972182914431
 21
2054.5155207428202
 31
0.0
  0
ARC
  5
33D
  8
0
 10
1323.4415760614991
 20
2054.0966371450809
 30
0.0
 40
1.9999999999991189
 50
12.089642247331501
 51
102.0896422473248
  0
LINE
  5
33E
  8
0
 10
1323.02269246376
 20
2056.0522793750251
 30
0.0
 11
1320.906379648608
 21
2055.5989813676601
 31
0.0
  0
ARC
  5
33F
  8
0
 10
1320.8016587491729
 20
2056.0878919251459
 30
0.0
 40
0.4999999999999631
 50
173.1272425258276
 51
282.08964224732961
  0
ARC
  5
340
  8
0
 10
1368.1589033102509
 20
2050.37988109969
 30
0.0
 40
48.200000000013411
 50
169.5877865049942
 51
173.1272425258523
  0
ENDSEC
  0
EOF
