  0
SECTION
  2
HEADER
  9
$ACADVER
  1
AC1009
  9
$INSBASE
 10
0.0
 20
0.0
 30
0.0
  9
$EXTMIN
 10
2324.9154040090061
 20
1449.2370265565021
 30
0.0
  9
$EXTMAX
 10
2370.1700710497012
 20
1479.3751589737481
 30
0.0
  9
$LIMMIN
 10
0.0
 20
0.0
  9
$LIMMAX
 10
420.0
 20
297.0
  9
$ORTHOMODE
 70
     0
  9
$REGENMODE
 70
     1
  9
$FILLMODE
 70
     1
  9
$QTEXTMODE
 70
     0
  9
$MIRRTEXT
 70
     0
  9
$DRAGMODE
 70
     2
  9
$LTSCALE
 40
1.0
  9
$OSMODE
 70
  4095
  9
$ATTMODE
 70
     1
  9
$TEXTSIZE
 40
2.5
  9
$TRACEWID
 40
1.0
  9
$TEXTSTYLE
  7
STANDARD
  9
$CLAYER
  8
0
  9
$CELTYPE
  6
BYLAYER
  9
$CECOLOR
 62
   256
  9
$DIMSCALE
 40
1.0
  9
$DIMASZ
 40
2.5
  9
$DIMEXO
 40
0.625
  9
$DIMDLI
 40
3.75
  9
$DIMRND
 40
0.0
  9
$DIMDLE
 40
0.0
  9
$DIMEXE
 40
1.25
  9
$DIMTP
 40
0.0
  9
$DIMTM
 40
0.0
  9
$DIMTXT
 40
2.5
  9
$DIMCEN
 40
2.5
  9
$DIMTSZ
 40
0.0
  9
$DIMTOL
 70
     0
  9
$DIMLIM
 70
     0
  9
$DIMTIH
 70
     0
  9
$DIMTOH
 70
     0
  9
$DIMSE1
 70
     0
  9
$DIMSE2
 70
     0
  9
$DIMTAD
 70
     1
  9
$DIMZIN
 70
     8
  9
$DIMBLK
  1

  9
$DIMASO
 70
     1
  9
$DIMSHO
 70
     1
  9
$DIMPOST
  1

  9
$DIMAPOST
  1

  9
$DIMALT
 70
     0
  9
$DIMALTD
 70
     3
  9
$DIMALTF
 40
0.03937007874016
  9
$DIMLFAC
 40
1.0
  9
$DIMTOFL
 70
     1
  9
$DIMTVP
 40
0.0
  9
$DIMTIX
 70
     0
  9
$DIMSOXD
 70
     0
  9
$DIMSAH
 70
     0
  9
$DIMBLK1
  1

  9
$DIMBLK2
  1

  9
$DIMSTYLE
  2
ISO-25
  9
$DIMCLRD
 70
     0
  9
$DIMCLRE
 70
     0
  9
$DIMCLRT
 70
     0
  9
$DIMTFAC
 40
1.0
  9
$DIMGAP
 40
0.625
  9
$LUNITS
 70
     2
  9
$LUPREC
 70
     4
  9
$SKETCHINC
 40
1.0
  9
$FILLETRAD
 40
0.0
  9
$AUNITS
 70
     0
  9
$AUPREC
 70
     0
  9
$MENU
  1
.
  9
$ELEVATION
 40
0.0
  9
$PELEVATION
 40
0.0
  9
$THICKNESS
 40
0.0
  9
$LIMCHECK
 70
     0
  9
$BLIPMODE
 70
     0
  9
$CHAMFERA
 40
0.0
  9
$CHAMFERB
 40
0.0
  9
$SKPOLY
 70
     0
  9
$TDCREATE
 40
2457409.5881565618
  9
$TDUPDATE
 40
2457409.5882840971
  9
$TDINDWG
 40
0.0001283912
  9
$TDUSRTIMER
 40
0.0001283796
  9
$USRTIMER
 70
     1
  9
$ANGBASE
 50
0.0
  9
$ANGDIR
 70
     0
  9
$PDMODE
 70
     0
  9
$PDSIZE
 40
0.0
  9
$PLINEWID
 40
0.0
  9
$COORDS
 70
     1
  9
$SPLFRAME
 70
     0
  9
$SPLINETYPE
 70
     6
  9
$SPLINESEGS
 70
     8
  9
$ATTDIA
 70
     1
  9
$ATTREQ
 70
     1
  9
$HANDLING
 70
     1
  9
$HANDSEED
  5
3C7
  9
$SURFTAB1
 70
     6
  9
$SURFTAB2
 70
     6
  9
$SURFTYPE
 70
     6
  9
$SURFU
 70
     6
  9
$SURFV
 70
     6
  9
$UCSNAME
  2

  9
$UCSORG
 10
0.0
 20
0.0
 30
0.0
  9
$UCSXDIR
 10
1.0
 20
0.0
 30
0.0
  9
$UCSYDIR
 10
0.0
 20
1.0
 30
0.0
  9
$PUCSNAME
  2

  9
$PUCSORG
 10
0.0
 20
0.0
 30
0.0
  9
$PUCSXDIR
 10
1.0
 20
0.0
 30
0.0
  9
$PUCSYDIR
 10
0.0
 20
1.0
 30
0.0
  9
$USERI1
 70
     0
  9
$USERI2
 70
     0
  9
$USERI3
 70
     0
  9
$USERI4
 70
     0
  9
$USERI5
 70
     0
  9
$USERR1
 40
0.0
  9
$USERR2
 40
0.0
  9
$USERR3
 40
0.0
  9
$USERR4
 40
0.0
  9
$USERR5
 40
0.0
  9
$WORLDVIEW
 70
     1
  9
$SHADEDGE
 70
     3
  9
$SHADEDIF
 70
    70
  9
$TILEMODE
 70
     1
  9
$MAXACTVP
 70
    64
  9
$PLIMCHECK
 70
     0
  9
$PEXTMIN
 10
0.0
 20
0.0
 30
0.0
  9
$PEXTMAX
 10
0.0
 20
0.0
 30
0.0
  9
$PLIMMIN
 10
0.0
 20
0.0
  9
$PLIMMAX
 10
12.0
 20
9.0
  9
$UNITMODE
 70
     0
  9
$VISRETAIN
 70
     1
  9
$PLINEGEN
 70
     0
  9
$PSLTSCALE
 70
     1
  0
ENDSEC
  0
SECTION
  2
TABLES
  0
TABLE
  2
VPORT
 70
     1
  0
VPORT
  2
*ACTIVE
 70
     0
 10
0.0
 20
0.0
 11
1.0
 21
1.0
 12
2347.5427375293539
 22
1464.306092765125
 13
0.0
 23
0.0
 14
10.0
 24
10.0
 15
10.0
 25
10.0
 16
0.0
 26
0.0
 36
1.0
 17
0.0
 27
0.0
 37
0.0
 40
30.369371284897628
 41
2.2522407170294492
 42
50.0
 43
0.0
 44
0.0
 50
0.0
 51
0.0
 71
     0
 72
  1000
 73
     1
 74
     3
 75
     0
 76
     1
 77
     0
 78
     0
  0
ENDTAB
  0
TABLE
  2
LTYPE
 70
     1
  0
LTYPE
  2
CONTINUOUS
 70
     0
  3
Solid line
 72
    65
 73
     0
 40
0.0
  0
ENDTAB
  0
TABLE
  2
LAYER
 70
     1
  0
LAYER
  2
0
 70
     0
 62
     7
  6
CONTINUOUS
  0
ENDTAB
  0
TABLE
  2
STYLE
 70
     3
  0
STYLE
  2
STANDARD
 70
     0
 40
0.0
 41
1.0
 50
0.0
 71
     0
 42
2.5
  3
txt
  4

  0
STYLE
  2
ANNOTATIVE
 70
     0
 40
0.0
 41
1.0
 50
0.0
 71
     0
 42
2.5
  3
txt
  4

  0
STYLE
  2
ROMANT
 70
     0
 40
2.6000000000000001
 41
1.0
 50
0.0
 71
     0
 42
2.5
  3
romant.shx
  4

  0
ENDTAB
  0
TABLE
  2
VIEW
 70
     1
  0
ENDTAB
  0
TABLE
  2
UCS
 70
     0
  0
ENDTAB
  0
TABLE
  2
APPID
 70
    12
  0
APPID
  2
ACAD
 70
     0
  0
APPID
  2
ACAD_PSEXT
 70
     0
  0
APPID
  2
ACADANNOPO
 70
     0
  0
APPID
  2
ACADANNOTATIVE
 70
     0
  0
APPID
  2
ACAD_DSTYLE_DIMJAG
 70
     0
  0
APPID
  2
ACAD_DSTYLE_DIMTALN
 70
     0
  0
APPID
  2
ACAD_MLEADERVER
 70
     0
  0
APPID
  2
ACAD_NAV_VCDISPLAY
 70
     0
  0
APPID
  2
ACAD_DSTYLE_DIMBREAK
 70
     0
  0
APPID
  2
GRADIENTCOLOR1ACI
 70
     0
  0
APPID
  2
GRADIENTCOLOR2ACI
 70
     0
  0
APPID
  2
ACAD_DSTYLE_DIMJOGGED_JOGA
 70
     0
  0
ENDTAB
  0
TABLE
  2
DIMSTYLE
 70
     5
  0
DIMSTYLE
  2
STANDARD
 70
     0
  3

  4

  5

  6

  7

 40
1.0
 41
0.18
 42
0.0625
 43
0.38
 44
0.18
 45
0.0
 46
0.0
 47
0.0
 48
0.0
140
0.18
141
0.09
142
0.0
143
25.399999999999999
144
1.0
145
0.0
146
1.0
147
0.09
 71
     0
 72
     0
 73
     1
 74
     1
 75
     0
 76
     0
 77
     0
 78
     0
170
     0
171
     2
172
     0
173
     0
174
     0
175
     0
176
     0
177
     0
178
     0
  0
DIMSTYLE
  2
ANNOTATIVE
 70
     0
  3

  4

  5

  6

  7

 40
0.0
 41
2.5
 42
0.625
 43
3.75
 44
1.25
 45
0.0
 46
0.0
 47
0.0
 48
0.0
140
2.5
141
2.5
142
0.0
143
0.03937007874016
144
1.0
145
0.0
146
1.0
147
0.625
 71
     0
 72
     0
 73
     0
 74
     0
 75
     0
 76
     0
 77
     1
 78
     8
170
     0
171
     3
172
     1
173
     0
174
     0
175
     0
176
     0
177
     0
178
     0
  0
DIMSTYLE
  2
ISO-25
 70
     0
  3

  4

  5

  6

  7

 40
1.0
 41
2.5
 42
0.625
 43
3.75
 44
1.25
 45
0.0
 46
0.0
 47
0.0
 48
0.0
140
2.5
141
2.5
142
0.0
143
0.03937007874016
144
1.0
145
0.0
146
1.0
147
0.625
 71
     0
 72
     0
 73
     0
 74
     0
 75
     0
 76
     0
 77
     1
 78
     8
170
     0
171
     3
172
     1
173
     0
174
     0
175
     0
176
     0
177
     0
178
     0
  0
DIMSTYLE
  2
AM_DIN
 70
     0
  3

  4
"
  5

  6

  7

 40
1.0
 41
3.5
 42
1.0
 43
10.0
 44
1.0
 45
0.0
 46
0.0
 47
0.1
 48
0.1
140
3.5
141
0.0
142
0.0
143
0.0393701
144
1.0
145
0.0
146
0.71
147
1.5
 71
     0
 72
     0
 73
     0
 74
     0
 75
     0
 76
     0
 77
     1
 78
     8
170
     0
171
     2
172
     1
173
     0
174
     0
175
     0
176
   256
177
   256
178
     2
  0
DIMSTYLE
  2
MELÝH_A3
 70
     0
  3

  4

  5

  6

  7

 40
1.0
 41
1.3
 42
0.0
 43
3.75
 44
0.2
 45
0.0
 46
0.0
 47
0.0
 48
0.0
140
1.0
141
0.2
142
0.0
143
0.03937007874016
144
1.0
145
0.0
146
1.0
147
0.7
 71
     0
 72
     0
 73
     0
 74
     0
 75
     0
 76
     0
 77
     1
 78
     8
170
     0
171
     3
172
     0
173
     0
174
     0
175
     0
176
   242
177
   242
178
   242
  0
ENDTAB
  0
ENDSEC
  0
SECTION
  2
BLOCKS
  0
BLOCK
  8
0
  2
$MODEL_SPACE
 70
     0
 10
0.0
 20
0.0
 30
0.0
  3
$MODEL_SPACE
  1

  0
ENDBLK
  5
21
  8
0
  0
BLOCK
 67
     1
  8
0
  2
$PAPER_SPACE
 70
     0
 10
0.0
 20
0.0
 30
0.0
  3
$PAPER_SPACE
  1

  0
ENDBLK
  5
D5
 67
     1
  8
0
  0
BLOCK
  8
0
  2
*X2
 70
     1
 10
0.0
 20
0.0
 30
0.0
  3
*X2
  1

  0
LINE
  5
316
  8
0
 62
     0
 10
123.1115905395519
 20
44.685265351260448
 30
0.0
 11
126.4491498522641
 21
48.022824663972642
 31
0.0
  0
LINE
  5
317
  8
0
 62
     0
 10
123.1115905395519
 20
45.58329096336729
 30
0.0
 11
126.7501055008763
 21
49.221805924691687
 31
0.0
  0
LINE
  5
318
  8
0
 62
     0
 10
123.1115905395519
 20
46.481316575474231
 30
0.0
 11
127.0198138332217
 21
50.389539869144073
 31
0.0
  0
LINE
  5
319
  8
0
 62
     0
 10
123.1115905395519
 20
47.37934218758113
 30
0.0
 11
127.26095637407531
 21
51.528708022104581
 31
0.0
  0
LINE
  5
31A
  8
0
 62
     0
 10
123.1115905395519
 20
48.277367799688079
 30
0.0
 11
127.47582648342249
 21
52.641603743558669
 31
0.0
  0
LINE
  5
31B
  8
0
 62
     0
 10
122.8561748295251
 20
48.919977701768282
 30
0.0
 11
127.6664039962065
 21
53.730206868449613
 31
0.0
  0
LINE
  5
31C
  8
0
 62
     0
 10
123.1115905395522
 20
50.073419023902197
 30
0.0
 11
127.8344123216301
 21
54.796240805980062
 31
0.0
  0
LINE
  5
31D
  8
0
 62
     0
 10
123.1115905395521
 20
50.971444636009039
 30
0.0
 11
127.98136279616
 21
55.841216892616963
 31
0.0
  0
LINE
  5
31E
  8
0
 62
     0
 10
123.1115905395521
 20
51.869470248115867
 30
0.0
 11
128.10858960790989
 21
56.866469316473683
 31
0.0
  0
LINE
  5
31F
  8
0
 62
     0
 10
123.111590539552
 20
52.767495860222709
 30
0.0
 11
127.6122100616642
 21
57.26811538233494
 31
0.0
  0
LINE
  5
320
  8
0
 62
     0
 10
123.1115905395519
 20
53.665521472329552
 30
0.0
 11
126.71418444955729
 21
57.268115382334997
 31
0.0
  0
LINE
  5
321
  8
0
 62
     0
 10
122.8161588374501
 20
54.268115382334713
 30
0.0
 11
125.8161588374504
 21
57.268115382335047
 31
0.0
  0
LINE
  5
322
  8
0
 62
     0
 10
121.9181332253432
 20
54.26811538233477
 30
0.0
 11
124.9181332253435
 21
57.268115382335047
 31
0.0
  0
LINE
  5
323
  8
0
 62
     0
 10
121.02010761323641
 20
54.268115382334827
 30
0.0
 11
124.0201076132366
 21
57.268115382334997
 31
0.0
  0
LINE
  5
324
  8
0
 62
     0
 10
120.1220820011295
 20
54.268115382334827
 30
0.0
 11
123.1220820011297
 21
57.268115382334997
 31
0.0
  0
LINE
  5
325
  8
0
 62
     0
 10
119.22405638902249
 20
54.268115382334827
 30
0.0
 11
122.5196001595839
 21
57.56365915289615
 31
0.0
  0
LINE
  5
326
  8
0
 62
     0
 10
118.3260307769157
 20
54.268115382334877
 30
0.0
 11
121.326030776916
 21
57.268115382335111
 31
0.0
  0
LINE
  5
327
  8
0
 62
     0
 10
117.42800516480879
 20
54.26811538233494
 30
0.0
 11
120.42800516480899
 21
57.268115382335111
 31
0.0
  0
LINE
  5
328
  8
0
 62
     0
 10
116.5299795527019
 20
54.26811538233494
 30
0.0
 11
119.5299795527021
 21
57.268115382335111
 31
0.0
  0
LINE
  5
329
  8
0
 62
     0
 10
115.631953940595
 20
54.268115382334997
 30
0.0
 11
118.6319539405952
 21
57.268115382335111
 31
0.0
  0
LINE
  5
32A
  8
0
 62
     0
 10
114.7339283284882
 20
54.268115382334997
 30
0.0
 11
117.7339283284882
 21
57.268115382335111
 31
0.0
  0
LINE
  5
32B
  8
0
 62
     0
 10
114.1115905395522
 20
54.543803205505917
 30
0.0
 11
117.47374662796661
 21
57.905959293920368
 31
0.0
  0
LINE
  5
32C
  8
0
 62
     0
 10
114.1115905395521
 20
55.441828817612759
 30
0.0
 11
117.5723463649411
 21
58.902584643001781
 31
0.0
  0
LINE
  5
32D
  8
0
 62
     0
 10
114.1115905395521
 20
56.339854429719708
 30
0.0
 11
117.60338325150779
 21
59.831647141675319
 31
0.0
  0
LINE
  5
32E
  8
0
 62
     0
 10
114.3767082098063
 20
57.502997712080798
 30
0.0
 11
117.60949057609341
 21
60.735780078367952
 31
0.0
  0
LINE
  5
32F
  8
0
 62
     0
 10
127.2438002679536
 20
71.268115382335054
 30
0.0
 11
128.05925281845211
 21
72.083567932833546
 31
0.0
  0
LINE
  5
330
  8
0
 62
     0
 10
114.1115905395521
 20
58.135905653933541
 30
0.0
 11
117.2294720990493
 21
61.253787213430712
 31
0.0
  0
LINE
  5
331
  8
0
 62
     0
 10
126.3457746558467
 20
71.268115382335054
 30
0.0
 11
127.9567461161416
 21
72.879086842629974
 31
0.0
  0
LINE
  5
332
  8
0
 62
     0
 10
114.1115905395521
 20
59.03393126604044
 30
0.0
 11
117.2804592929958
 21
62.20280001948413
 31
0.0
  0
LINE
  5
333
  8
0
 62
     0
 10
125.4477490437398
 20
71.268115382335054
 30
0.0
 11
127.8454243349502
 21
73.665790673545416
 31
0.0
  0
LINE
  5
334
  8
0
 62
     0
 10
114.1115905395521
 20
59.931956878147332
 30
0.0
 11
117.3314464869423
 21
63.151812825537547
 31
0.0
  0
LINE
  5
335
  8
0
 62
     0
 10
124.5497234316329
 20
71.268115382335054
 30
0.0
 11
127.5456681695556
 21
74.264060120257739
 31
0.0
  0
LINE
  5
336
  8
0
 62
     0
 10
114.1115905395521
 20
60.829982490254217
 30
0.0
 11
117.38243368088879
 21
64.100825631591022
 31
0.0
  0
LINE
  5
337
  8
0
 62
     0
 10
123.65169781952601
 20
71.268115382335054
 30
0.0
 11
126.65169781952579
 21
74.268115382334884
 31
0.0
  0
LINE
  5
338
  8
0
 62
     0
 10
114.1115905395521
 20
61.728008102361109
 30
0.0
 11
117.4334208748356
 21
65.049838437644667
 31
0.0
  0
LINE
  5
339
  8
0
 62
     0
 10
122.2580217613793
 20
70.77246493629525
 30
0.0
 11
125.753672207419
 21
74.26811538233494
 31
0.0
  0
LINE
  5
33A
  8
0
 62
     0
 10
114.111590539552
 20
62.626033714468001
 30
0.0
 11
117.4844080687822
 21
65.998851243698141
 31
0.0
  0
LINE
  5
33B
  8
0
 62
     0
 10
121.73184187213521
 20
71.144310659158123
 30
0.0
 11
124.855646595312
 21
74.26811538233494
 31
0.0
  0
LINE
  5
33C
  8
0
 62
     0
 10
114.1115905395521
 20
63.524059326574957
 30
0.0
 11
117.5353952627287
 21
66.947864049751615
 31
0.0
  0
LINE
  5
33D
  8
0
 62
     0
 10
120.9576209832053
 20
71.268115382335111
 30
0.0
 11
123.9576209832051
 21
74.26811538233494
 31
0.0
  0
LINE
  5
33E
  8
0
 62
     0
 10
114.1115905395521
 20
64.422084938681905
 30
0.0
 11
117.5797367064561
 21
67.89023110558594
 31
0.0
  0
LINE
  5
33F
  8
0
 62
     0
 10
120.0595953710983
 20
71.268115382335111
 30
0.0
 11
123.0595953710982
 21
74.26811538233494
 31
0.0
  0
LINE
  5
340
  8
0
 62
     0
 10
114.111590539552
 20
65.320110550788783
 30
0.0
 11
117.6070460934652
 21
68.815566104701986
 31
0.0
  0
LINE
  5
341
  8
0
 62
     0
 10
119.1615697589915
 20
71.268115382335111
 30
0.0
 11
122.16156975899121
 21
74.268115382334884
 31
0.0
  0
LINE
  5
342
  8
0
 62
     0
 10
114.111590539552
 20
66.218136162895689
 30
0.0
 11
117.6051382433956
 21
69.711683866739236
 31
0.0
  0
LINE
  5
343
  8
0
 62
     0
 10
118.2635441468845
 20
71.268115382335054
 30
0.0
 11
121.2635441468844
 21
74.268115382334884
 31
0.0
  0
LINE
  5
344
  8
0
 62
     0
 10
114.111590539552
 20
67.116161775002524
 30
0.0
 11
117.2393440385148
 21
70.243915273965342
 31
0.0
  0
LINE
  5
345
  8
0
 62
     0
 10
114.111590539552
 20
68.014187387109473
 30
0.0
 11
120.36551853477739
 21
74.268115382334884
 31
0.0
  0
LINE
  5
346
  8
0
 62
     0
 10
114.111590539552
 20
68.912212999216422
 30
0.0
 11
119.4674929226705
 21
74.268115382334884
 31
0.0
  0
LINE
  5
347
  8
0
 62
     0
 10
114.3405289250579
 20
70.039176996829212
 30
0.0
 11
118.5694673105636
 21
74.268115382334884
 31
0.0
  0
LINE
  5
348
  8
0
 62
     0
 10
114.111590539552
 20
70.708264223430263
 30
0.0
 11
117.6714416984567
 21
74.26811538233494
 31
0.0
  0
LINE
  5
349
  8
0
 62
     0
 10
114.111590539552
 20
71.606289835537154
 30
0.0
 11
116.7734160863497
 21
74.268115382334884
 31
0.0
  0
LINE
  5
34A
  8
0
 62
     0
 10
114.111590539552
 20
72.504315447644046
 30
0.0
 11
115.87539047424281
 21
74.268115382334827
 31
0.0
  0
LINE
  5
34B
  8
0
 62
     0
 10
113.4773648621361
 20
72.768115382335054
 30
0.0
 11
114.9773648621359
 21
74.268115382334827
 31
0.0
  0
LINE
  5
34C
  8
0
 62
     0
 10
112.57933925002909
 20
72.768115382334983
 30
0.0
 11
114.07933925002899
 21
74.268115382334827
 31
0.0
  0
LINE
  5
34D
  8
0
 62
     0
 10
111.6813136379222
 20
72.768115382334983
 30
0.0
 11
113.181313637922
 21
74.268115382334827
 31
0.0
  0
LINE
  5
34E
  8
0
 62
     0
 10
110.7832880258153
 20
72.768115382335054
 30
0.0
 11
112.2832880258151
 21
74.268115382334827
 31
0.0
  0
LINE
  5
34F
  8
0
 62
     0
 10
109.8852624137083
 20
72.768115382334983
 30
0.0
 11
111.3852624137082
 21
74.268115382334827
 31
0.0
  0
LINE
  5
350
  8
0
 62
     0
 10
108.9872368016015
 20
72.768115382334983
 30
0.0
 11
110.4872368016012
 21
74.26811538233477
 31
0.0
  0
LINE
  5
351
  8
0
 62
     0
 10
108.08921118949451
 20
72.768115382334983
 30
0.0
 11
109.58921118949441
 21
74.268115382334827
 31
0.0
  0
LINE
  5
352
  8
0
 62
     0
 10
107.1911855773876
 20
72.76811538233494
 30
0.0
 11
108.6911855773874
 21
74.26811538233477
 31
0.0
  0
LINE
  5
353
  8
0
 62
     0
 10
106.29315996528069
 20
72.76811538233494
 30
0.0
 11
107.7931599652804
 21
74.268115382334713
 31
0.0
  0
LINE
  5
354
  8
0
 62
     0
 10
105.3951343531738
 20
72.768115382334983
 30
0.0
 11
106.8951343531735
 21
74.26811538233477
 31
0.0
  0
LINE
  5
355
  8
0
 62
     0
 10
104.4971087410667
 20
72.76811538233494
 30
0.0
 11
105.9971087410666
 21
74.26811538233477
 31
0.0
  0
LINE
  5
356
  8
0
 62
     0
 10
103.5990831289598
 20
72.76811538233494
 30
0.0
 11
105.09908312895971
 21
74.26811538233477
 31
0.0
  0
LINE
  5
357
  8
0
 62
     0
 10
102.7010575168529
 20
72.768115382334884
 30
0.0
 11
104.2010575168528
 21
74.268115382334713
 31
0.0
  0
LINE
  5
358
  8
0
 62
     0
 10
101.80303190474611
 20
72.76811538233494
 30
0.0
 11
103.30303190474579
 21
74.268115382334713
 31
0.0
  0
LINE
  5
359
  8
0
 62
     0
 10
100.9050062926391
 20
72.768115382334827
 30
0.0
 11
102.405006292639
 21
74.268115382334713
 31
0.0
  0
LINE
  5
35A
  8
0
 62
     0
 10
100.00698068053219
 20
72.768115382334884
 30
0.0
 11
101.506980680532
 21
74.268115382334713
 31
0.0
  0
LINE
  5
35B
  8
0
 62
     0
 10
99.108955068425274
 20
72.768115382334884
 30
0.0
 11
100.6089550684251
 21
74.268115382334713
 31
0.0
  0
LINE
  5
35C
  8
0
 62
     0
 10
98.210929456318354
 20
72.768115382334884
 30
0.0
 11
99.710929456318183
 21
74.268115382334713
 31
0.0
  0
LINE
  5
35D
  8
0
 62
     0
 10
97.312903844211434
 20
72.768115382334884
 30
0.0
 11
98.812903844211334
 21
74.26811538233477
 31
0.0
  0
LINE
  5
35E
  8
0
 62
     0
 10
96.414878232104542
 20
72.768115382334884
 30
0.0
 11
97.914878232104314
 21
74.268115382334656
 31
0.0
  0
LINE
  5
35F
  8
0
 62
     0
 10
95.516852619997564
 20
72.768115382334827
 30
0.0
 11
97.016852619997394
 21
74.268115382334656
 31
0.0
  0
LINE
  5
360
  8
0
 62
     0
 10
94.618827007890616
 20
72.76811538233477
 30
0.0
 11
96.118827007890516
 21
74.268115382334656
 31
0.0
  0
LINE
  5
361
  8
0
 62
     0
 10
93.720801395783752
 20
72.768115382334827
 30
0.0
 11
95.220801395783525
 21
74.268115382334599
 31
0.0
  0
LINE
  5
362
  8
0
 62
     0
 10
92.822775783676832
 20
72.768115382334827
 30
0.0
 11
94.322775783676647
 21
74.268115382334656
 31
0.0
  0
LINE
  5
363
  8
0
 62
     0
 10
91.924750171569883
 20
72.768115382334827
 30
0.0
 11
93.424750171569755
 21
74.268115382334713
 31
0.0
  0
LINE
  5
364
  8
0
 62
     0
 10
91.026724559462906
 20
72.76811538233477
 30
0.0
 11
92.526724559462806
 21
74.268115382334713
 31
0.0
  0
LINE
  5
365
  8
0
 62
     0
 10
90.128698947356014
 20
72.76811538233477
 30
0.0
 11
91.628698947355829
 21
74.268115382334599
 31
0.0
  0
LINE
  5
366
  8
0
 62
     0
 10
89.230673335249094
 20
72.76811538233477
 30
0.0
 11
90.73067333524898
 21
74.268115382334656
 31
0.0
  0
LINE
  5
367
  8
0
 62
     0
 10
88.332647723142216
 20
72.76811538233477
 30
0.0
 11
89.832647723142031
 21
74.268115382334599
 31
0.0
  0
LINE
  5
368
  8
0
 62
     0
 10
87.434622111035281
 20
72.76811538233477
 30
0.0
 11
88.934622111035111
 21
74.268115382334599
 31
0.0
  0
LINE
  5
369
  8
0
 62
     0
 10
86.536596498928347
 20
72.76811538233477
 30
0.0
 11
88.036596498928247
 21
74.268115382334656
 31
0.0
  0
LINE
  5
36A
  8
0
 62
     0
 10
85.638570886821356
 20
72.768115382334713
 30
0.0
 11
87.138570886821228
 21
74.268115382334599
 31
0.0
  0
LINE
  5
36B
  8
0
 62
     0
 10
84.740545274714506
 20
72.76811538233477
 30
0.0
 11
86.240545274714322
 21
74.268115382334599
 31
0.0
  0
LINE
  5
36C
  8
0
 62
     0
 10
83.842519662607529
 20
72.768115382334713
 30
0.0
 11
85.34251966260743
 21
74.268115382334599
 31
0.0
  0
LINE
  5
36D
  8
0
 62
     0
 10
83.12225496936486
 20
72.945876301198894
 30
0.0
 11
84.444494050500495
 21
74.268115382334543
 31
0.0
  0
LINE
  5
36E
  8
0
 62
     0
 10
83.111590539551699
 20
73.833237483492667
 30
0.0
 11
83.546468438393518
 21
74.268115382334486
 31
0.0
  0
ENDBLK
  5
370
  8
0
  0
BLOCK
  8
0
  2
*U3
 70
     1
 10
0.0
 20
0.0
 30
0.0
  3
*U3
  1

  0
ARC
  5
372
  8
0
 10
122.21159053955159
 20
57.518115382335139
 30
0.0
 40
0.250000000000002
 50
44.999999999999993
 51
135.0
  0
LINE
  5
373
  8
0
 10
121.6080371489583
 20
57.268115382335111
 30
0.0
 11
122.034813844255
 21
57.694892077631778
 31
0.0
  0
LINE
  5
374
  8
0
 10
121.6080371489583
 20
57.268115382335111
 30
0.0
 11
117.6115905395518
 21
57.268115382335118
 31
0.0
  0
LINE
  5
375
  8
0
 10
117.6115905395518
 20
57.268115382335118
 30
0.0
 11
117.6115905395518
 21
57.664561991741898
 31
0.0
  0
ARC
  5
376
  8
0
 10
117.3615905395518
 20
57.664561991741891
 30
0.0
 40
0.25
 50
0.0
 51
45.000000000005947
  0
LINE
  5
377
  8
0
 10
117.53836723484839
 20
57.841338687038558
 30
0.0
 11
117.16336723484839
 21
58.216338687038473
 31
0.0
  0
LINE
  5
378
  8
0
 10
117.16336723484839
 20
58.216338687038473
 30
0.0
 11
117.5383672348482
 21
58.591338687038068
 31
0.0
  0
ARC
  5
379
  8
0
 10
117.3615905395517
 20
58.768115382334749
 30
0.0
 40
0.2499999999999819
 50
314.99999999998158
 51
45.000000000011589
  0
LINE
  5
37A
  8
0
 10
117.53836723484829
 20
58.944892077631422
 30
0.0
 11
117.215143930145
 21
59.26811538233467
 31
0.0
  0
LINE
  5
37B
  8
0
 10
117.215143930145
 20
59.26811538233467
 30
0.0
 11
117.53836723484829
 21
59.591338687038132
 31
0.0
  0
ARC
  5
37C
  8
0
 10
117.3615905395517
 20
59.768115382334742
 30
0.0
 40
0.2499999999999819
 50
315.0000000000046
 51
45.000000000004547
  0
LINE
  5
37D
  8
0
 10
117.53836723484829
 20
59.944892077631387
 30
0.0
 11
117.215143930145
 21
60.268115382334727
 31
0.0
  0
LINE
  5
37E
  8
0
 10
117.215143930145
 20
60.268115382334727
 30
0.0
 11
117.53836723484839
 21
60.591338687038089
 31
0.0
  0
ARC
  5
37F
  8
0
 10
117.3615905395517
 20
60.768115382334742
 30
0.0
 40
0.250000000000002
 50
314.9999999999954
 51
44.99999999997921
  0
LINE
  5
380
  8
0
 10
117.53836723484839
 20
60.944892077631309
 30
0.0
 11
117.2151439301452
 21
61.26811538233472
 31
0.0
  0
LINE
  5
381
  8
0
 10
117.2151439301452
 20
61.26811538233472
 30
0.0
 11
117.53836723484839
 21
61.591338687038089
 31
0.0
  0
ARC
  5
382
  8
0
 10
117.3615905395518
 20
61.76811538233467
 30
0.0
 40
0.2499999999999819
 50
315.00000000001381
 51
44.999999999988397
  0
LINE
  5
383
  8
0
 10
117.53836723484839
 20
61.944892077631259
 30
0.0
 11
117.2151439301452
 21
62.26811538233467
 31
0.0
  0
LINE
  5
384
  8
0
 10
117.2151439301452
 20
62.26811538233467
 30
0.0
 11
117.53836723484849
 21
62.591338687038167
 31
0.0
  0
ARC
  5
385
  8
0
 10
117.3615905395518
 20
62.768115382334742
 30
0.0
 40
0.250000000000002
 50
315.00000000002302
 51
44.999999999990798
  0
LINE
  5
386
  8
0
 10
117.53836723484839
 20
62.944892077631351
 30
0.0
 11
117.2151439301452
 21
63.26811538233467
 31
0.0
  0
LINE
  5
387
  8
0
 10
117.2151439301452
 20
63.26811538233467
 30
0.0
 11
117.53836723484849
 21
63.591338687038203
 31
0.0
  0
ARC
  5
388
  8
0
 10
117.3615905395518
 20
63.76811538233477
 30
0.0
 40
0.250000000000002
 50
315.00000000002302
 51
44.999999999981533
  0
LINE
  5
389
  8
0
 10
117.53836723484849
 20
63.944892077631351
 30
0.0
 11
117.215143930145
 21
64.268115382335125
 31
0.0
  0
LINE
  5
38A
  8
0
 10
117.215143930145
 20
64.268115382335125
 30
0.0
 11
117.53836723484849
 21
64.59133868703853
 31
0.0
  0
ARC
  5
38B
  8
0
 10
117.3615905395519
 20
64.768115382335196
 30
0.0
 40
0.2499999999999819
 50
314.99999999998607
 51
45.000000000011511
  0
LINE
  5
38C
  8
0
 10
117.53836723484849
 20
64.944892077631863
 30
0.0
 11
117.2151439301452
 21
65.268115382335125
 31
0.0
  0
LINE
  5
38D
  8
0
 10
117.2151439301452
 20
65.268115382335125
 30
0.0
 11
117.53836723484859
 21
65.591338687038473
 31
0.0
  0
ARC
  5
38E
  8
0
 10
117.3615905395519
 20
65.768115382335125
 30
0.0
 40
0.250000000000002
 50
314.9999999999954
 51
45.000000000002309
  0
LINE
  5
38F
  8
0
 10
117.53836723484859
 20
65.944892077631764
 30
0.0
 11
117.2151439301452
 21
66.268115382335125
 31
0.0
  0
LINE
  5
390
  8
0
 10
117.2151439301452
 20
66.268115382335125
 30
0.0
 11
117.53836723484859
 21
66.591338687038473
 31
0.0
  0
ARC
  5
391
  8
0
 10
117.3615905395519
 20
66.768115382335125
 30
0.0
 40
0.250000000000002
 50
314.9999999999954
 51
45.000000000002309
  0
LINE
  5
392
  8
0
 10
117.53836723484859
 20
66.944892077631764
 30
0.0
 11
117.2151439301452
 21
67.268115382335125
 31
0.0
  0
LINE
  5
393
  8
0
 10
117.2151439301452
 20
67.268115382335125
 30
0.0
 11
117.53836723484859
 21
67.591338687038473
 31
0.0
  0
ARC
  5
394
  8
0
 10
117.3615905395519
 20
67.768115382335125
 30
0.0
 40
0.250000000000002
 50
314.9999999999954
 51
45.000000000002309
  0
LINE
  5
395
  8
0
 10
117.53836723484859
 20
67.944892077631764
 30
0.0
 11
117.2151439301452
 21
68.268115382335125
 31
0.0
  0
LINE
  5
396
  8
0
 10
117.2151439301452
 20
68.268115382335125
 30
0.0
 11
117.53836723484859
 21
68.591338687038473
 31
0.0
  0
ARC
  5
397
  8
0
 10
117.3615905395519
 20
68.768115382335125
 30
0.0
 40
0.250000000000002
 50
314.9999999999954
 51
45.000000000002309
  0
LINE
  5
398
  8
0
 10
117.53836723484859
 20
68.944892077631764
 30
0.0
 11
117.2151439301452
 21
69.268115382335125
 31
0.0
  0
LINE
  5
399
  8
0
 10
117.2151439301452
 20
69.268115382335125
 30
0.0
 11
117.53836723484849
 21
69.591338687038473
 31
0.0
  0
ARC
  5
39A
  8
0
 10
117.3615905395519
 20
69.768115382335111
 30
0.0
 40
0.250000000000002
 50
315.0
 51
45.000000000002309
  0
LINE
  5
39B
  8
0
 10
117.53836723484849
 20
69.944892077631764
 30
0.0
 11
117.16336723484849
 21
70.319892077631735
 31
0.0
  0
LINE
  5
39C
  8
0
 10
117.16336723484849
 20
70.319892077631735
 30
0.0
 11
117.53836723484849
 21
70.694892077631721
 31
0.0
  0
ARC
  5
39D
  8
0
 10
117.361590539552
 20
70.871668772928345
 30
0.0
 40
0.2499999999999518
 50
314.99999999999312
 51
0.0000000000260592
  0
LINE
  5
39E
  8
0
 10
117.6115905395519
 20
70.871668772928459
 30
0.0
 11
117.6115905395518
 21
71.268115382335125
 31
0.0
  0
LINE
  5
39F
  8
0
 10
117.6115905395518
 20
71.268115382335125
 30
0.0
 11
121.6080371489583
 21
71.268115382335125
 31
0.0
  0
LINE
  5
3A0
  8
0
 10
121.6080371489583
 20
71.268115382335125
 30
0.0
 11
122.034813844255
 21
70.841338687038473
 31
0.0
  0
ARC
  5
3A1
  8
0
 10
122.21159053955159
 20
71.018115382335111
 30
0.0
 40
0.250000000000002
 50
225.0
 51
314.99999999999989
  0
LINE
  5
3A2
  8
0
 10
122.3883672348482
 20
70.841338687038473
 30
0.0
 11
122.8151439301449
 21
71.268115382335182
 31
0.0
  0
LINE
  5
3A3
  8
0
 10
122.8151439301449
 20
71.268115382335182
 30
0.0
 11
127.8183289558426
 21
71.268115382335026
 31
0.0
  0
ARC
  5
3A4
  8
0
 10
127.8183289558427
 20
71.56811538233498
 30
0.0
 40
0.2999999999999404
 50
269.9999999999838
 51
6.5528333261451257
  0
ARC
  5
3A5
  8
0
 10
64.268114043308174
 20
64.268115382332468
 30
0.0
 40
64.268115615745344
 50
6.5528333265024372
 51
8.7218656111843291
  0
ARC
  5
3A6
  8
0
 10
127.4965081034873
 20
73.96811538233483
 30
0.0
 40
0.3000000000001874
 50
8.7218656111579627
 51
89.999999999999986
  0
LINE
  5
3A7
  8
0
 10
127.4965081034873
 20
74.268115382335012
 30
0.0
 11
83.361590539551656
 21
74.268115382334614
 31
0.0
  0
ARC
  5
3A8
  8
0
 10
83.361590539551656
 20
74.018115382334614
 30
0.0
 40
0.25
 50
89.999999999999986
 51
180.0
  0
LINE
  5
3A9
  8
0
 10
83.111590539551656
 20
74.018115382334614
 30
0.0
 11
83.111590539551656
 21
73.018115382334784
 31
0.0
  0
ARC
  5
3AA
  8
0
 10
83.361590539551656
 20
73.018115382334784
 30
0.0
 40
0.25
 50
180.0
 51
270.0
  0
LINE
  5
3AB
  8
0
 10
83.361590539551656
 20
72.768115382334784
 30
0.0
 11
114.1115905395519
 21
72.768115382335068
 31
0.0
  0
LINE
  5
3AC
  8
0
 10
114.111590539552
 20
70.371668772928331
 30
0.0
 11
114.1115905395519
 21
72.768115382335068
 31
0.0
  0
ARC
  5
3AD
  8
0
 10
114.361590539552
 20
70.371668772928317
 30
0.0
 40
0.2499999999999716
 50
180.0
 51
225.00000000000551
  0
LINE
  5
3AE
  8
0
 10
114.611590539552
 20
69.768115382335068
 30
0.0
 11
114.1848138442554
 21
70.194892077631692
 31
0.0
  0
LINE
  5
3AF
  8
0
 10
114.611590539552
 20
69.768115382335068
 30
0.0
 11
114.1848138442554
 21
69.341338687038444
 31
0.0
  0
ARC
  5
3B0
  8
0
 10
114.361590539552
 20
69.164561991741834
 30
0.0
 40
0.2499999999999719
 50
134.9999999999977
 51
180.00000000000321
  0
LINE
  5
3B1
  8
0
 10
114.1115905395521
 20
57.871668772928253
 30
0.0
 11
114.111590539552
 21
69.16456199174182
 31
0.0
  0
ARC
  5
3B2
  8
0
 10
114.361590539552
 20
57.871668772928231
 30
0.0
 40
0.2499999999999716
 50
180.0
 51
225.00000000000551
  0
LINE
  5
3B3
  8
0
 10
114.611590539552
 20
57.268115382335068
 30
0.0
 11
114.1848138442554
 21
57.694892077631607
 31
0.0
  0
LINE
  5
3B4
  8
0
 10
114.611590539552
 20
57.268115382335068
 30
0.0
 11
114.1848138442555
 21
56.841338687038558
 31
0.0
  0
ARC
  5
3B5
  8
0
 10
114.3615905395521
 20
56.664561991741927
 30
0.0
 40
0.2499999999999719
 50
134.9999999999977
 51
180.00000000000321
  0
LINE
  5
3B6
  8
0
 10
114.1115905395521
 20
54.518115382335047
 30
0.0
 11
114.1115905395521
 21
56.664561991741913
 31
0.0
  0
ARC
  5
3B7
  8
0
 10
114.3615905395521
 20
54.518115382335047
 30
0.0
 40
0.25
 50
180.0
 51
269.99999999999682
  0
LINE
  5
3B8
  8
0
 10
114.3615905395521
 20
54.268115382335047
 30
0.0
 11
123.1115905395518
 21
54.268115382334777
 31
0.0
  0
LINE
  5
3B9
  8
0
 10
123.1115905395518
 20
54.268115382334777
 30
0.0
 11
123.1115905395522
 21
49.871668772928437
 31
0.0
  0
LINE
  5
3BA
  8
0
 10
123.1115905395522
 20
49.871668772928437
 30
0.0
 11
122.6848138442552
 21
49.444892077631302
 31
0.0
  0
ARC
  5
3BB
  8
0
 10
122.8615905395519
 20
49.268115382334699
 30
0.0
 40
0.250000000000002
 50
135.00000000001381
 51
225.0000000000023
  0
LINE
  5
3BC
  8
0
 10
122.6848138442552
 20
49.091338687038039
 30
0.0
 11
123.1115905395518
 21
48.664561991741522
 31
0.0
  0
LINE
  5
3BD
  8
0
 10
123.1115905395518
 20
48.664561991741522
 30
0.0
 11
123.1115905395519
 21
44.568115382334881
 31
0.0
  0
ARC
  5
3BE
  8
0
 10
123.4115905395516
 20
44.56811538233476
 30
0.0
 40
0.2999999999997556
 50
180.0
 51
315.00000000005048
  0
LINE
  5
3BF
  8
0
 10
123.6237225739075
 20
44.355983347979127
 30
0.0
 11
126.0804978289772
 21
46.812758603048572
 31
0.0
  0
ARC
  5
3C0
  8
0
 10
125.8683657946209
 20
47.02489063740471
 30
0.0
 40
0.3000000000003059
 50
315.00000000001342
 51
344.36193309449271
  0
ARC
  5
3C1
  8
0
 10
64.2681140433194
 20
64.268115382333434
 30
0.0
 40
64.268115615733834
 50
344.36193309477352
 51
353.44716667349809
  0
ARC
  5
3C2
  8
0
 10
127.818328955843
 20
56.968115382335291
 30
0.0
 40
0.2999999999997945
 50
353.44716667349769
 51
89.999999999989114
  0
LINE
  5
3C3
  8
0
 10
127.8183289558431
 20
57.268115382335068
 30
0.0
 11
122.8151439301449
 21
57.268115382335068
 31
0.0
  0
LINE
  5
3C4
  8
0
 10
122.3883672348482
 20
57.694892077631778
 30
0.0
 11
122.8151439301449
 21
57.268115382335068
 31
0.0
  0
ENDBLK
  5
3C6
  8
0
  0
ENDSEC
  0
SECTION
  2
ENTITIES
  0
ARC
  5
26E
  8
0
 10
2364.0671807184449
 20
1462.5702564464989
 30
0.0
 40
0.250000000000002
 50
44.999999999999993
 51
135.0
  0
LINE
  5
26F
  8
0
 10
2363.463627327852
 20
1462.3202564464989
 30
0.0
 11
2363.8904040231482
 21
1462.747033141796
 31
0.0
  0
LINE
  5
270
  8
0
 10
2363.463627327852
 20
1462.3202564464989
 30
0.0
 11
2359.467180718445
 21
1462.3202564464989
 31
0.0
  0
LINE
  5
271
  8
0
 10
2359.467180718445
 20
1462.3202564464989
 30
0.0
 11
2359.467180718445
 21
1462.716703055906
 31
0.0
  0
ARC
  5
272
  8
0
 10
2359.217180718445
 20
1462.716703055906
 30
0.0
 40
0.25
 50
0.0
 51
45.000000000005947
  0
LINE
  5
273
  8
0
 10
2359.3939574137412
 20
1462.893479751202
 30
0.0
 11
2359.0189574137412
 21
1463.268479751202
 31
0.0
  0
LINE
  5
274
  8
0
 10
2359.0189574137412
 20
1463.268479751202
 30
0.0
 11
2359.3939574137412
 21
1463.643479751202
 31
0.0
  0
ARC
  5
275
  8
0
 10
2359.217180718445
 20
1463.8202564464989
 30
0.0
 40
0.2499999999999819
 50
314.99999999998158
 51
45.000000000011589
  0
LINE
  5
276
  8
0
 10
2359.3939574137412
 20
1463.9970331417951
 30
0.0
 11
2359.0707341090379
 21
1464.320256446498
 31
0.0
  0
LINE
  5
277
  8
0
 10
2359.0707341090379
 20
1464.320256446498
 30
0.0
 11
2359.3939574137412
 21
1464.643479751202
 31
0.0
  0
ARC
  5
278
  8
0
 10
2359.217180718445
 20
1464.820256446498
 30
0.0
 40
0.2499999999999819
 50
315.0000000000046
 51
45.000000000004547
  0
LINE
  5
279
  8
0
 10
2359.3939574137412
 20
1464.9970331417951
 30
0.0
 11
2359.0707341090379
 21
1465.3202564464989
 31
0.0
  0
LINE
  5
27A
  8
0
 10
2359.0707341090379
 20
1465.3202564464989
 30
0.0
 11
2359.3939574137412
 21
1465.643479751202
 31
0.0
  0
ARC
  5
27B
  8
0
 10
2359.217180718445
 20
1465.820256446498
 30
0.0
 40
0.250000000000002
 50
314.9999999999954
 51
44.99999999997921
  0
LINE
  5
27C
  8
0
 10
2359.3939574137412
 20
1465.9970331417951
 30
0.0
 11
2359.0707341090379
 21
1466.3202564464989
 31
0.0
  0
LINE
  5
27D
  8
0
 10
2359.0707341090379
 20
1466.3202564464989
 30
0.0
 11
2359.3939574137412
 21
1466.643479751202
 31
0.0
  0
ARC
  5
27E
  8
0
 10
2359.217180718445
 20
1466.8202564464989
 30
0.0
 40
0.2499999999999819
 50
315.00000000001381
 51
44.999999999988397
  0
LINE
  5
27F
  8
0
 10
2359.3939574137412
 20
1466.9970331417951
 30
0.0
 11
2359.0707341090379
 21
1467.320256446498
 31
0.0
  0
LINE
  5
280
  8
0
 10
2359.0707341090379
 20
1467.320256446498
 30
0.0
 11
2359.3939574137412
 21
1467.643479751202
 31
0.0
  0
ARC
  5
281
  8
0
 10
2359.217180718445
 20
1467.8202564464989
 30
0.0
 40
0.250000000000002
 50
315.00000000002302
 51
44.999999999990798
  0
LINE
  5
282
  8
0
 10
2359.3939574137412
 20
1467.9970331417951
 30
0.0
 11
2359.0707341090379
 21
1468.320256446498
 31
0.0
  0
LINE
  5
283
  8
0
 10
2359.0707341090379
 20
1468.320256446498
 30
0.0
 11
2359.3939574137412
 21
1468.643479751202
 31
0.0
  0
ARC
  5
284
  8
0
 10
2359.217180718445
 20
1468.820256446498
 30
0.0
 40
0.250000000000002
 50
315.00000000002302
 51
44.999999999981533
  0
LINE
  5
285
  8
0
 10
2359.3939574137412
 20
1468.9970331417951
 30
0.0
 11
2359.0707341090379
 21
1469.3202564464989
 31
0.0
  0
LINE
  5
286
  8
0
 10
2359.0707341090379
 20
1469.3202564464989
 30
0.0
 11
2359.3939574137412
 21
1469.643479751202
 31
0.0
  0
ARC
  5
287
  8
0
 10
2359.217180718445
 20
1469.8202564464989
 30
0.0
 40
0.2499999999999819
 50
314.99999999998607
 51
45.000000000011511
  0
LINE
  5
288
  8
0
 10
2359.3939574137412
 20
1469.997033141796
 30
0.0
 11
2359.0707341090379
 21
1470.3202564464989
 31
0.0
  0
LINE
  5
289
  8
0
 10
2359.0707341090379
 20
1470.3202564464989
 30
0.0
 11
2359.3939574137412
 21
1470.643479751202
 31
0.0
  0
ARC
  5
28A
  8
0
 10
2359.217180718445
 20
1470.8202564464989
 30
0.0
 40
0.250000000000002
 50
314.9999999999954
 51
45.000000000002309
  0
LINE
  5
28B
  8
0
 10
2359.3939574137412
 20
1470.997033141796
 30
0.0
 11
2359.0707341090379
 21
1471.3202564464989
 31
0.0
  0
LINE
  5
28C
  8
0
 10
2359.0707341090379
 20
1471.3202564464989
 30
0.0
 11
2359.3939574137412
 21
1471.643479751202
 31
0.0
  0
ARC
  5
28D
  8
0
 10
2359.217180718445
 20
1471.8202564464989
 30
0.0
 40
0.250000000000002
 50
314.9999999999954
 51
45.000000000002309
  0
LINE
  5
28E
  8
0
 10
2359.3939574137412
 20
1471.997033141796
 30
0.0
 11
2359.0707341090379
 21
1472.3202564464989
 31
0.0
  0
LINE
  5
28F
  8
0
 10
2359.0707341090379
 20
1472.3202564464989
 30
0.0
 11
2359.3939574137412
 21
1472.643479751202
 31
0.0
  0
ARC
  5
290
  8
0
 10
2359.217180718445
 20
1472.8202564464989
 30
0.0
 40
0.250000000000002
 50
314.9999999999954
 51
45.000000000002309
  0
LINE
  5
291
  8
0
 10
2359.3939574137412
 20
1472.997033141796
 30
0.0
 11
2359.0707341090379
 21
1473.3202564464989
 31
0.0
  0
LINE
  5
292
  8
0
 10
2359.0707341090379
 20
1473.3202564464989
 30
0.0
 11
2359.3939574137412
 21
1473.643479751202
 31
0.0
  0
ARC
  5
293
  8
0
 10
2359.217180718445
 20
1473.8202564464989
 30
0.0
 40
0.250000000000002
 50
314.9999999999954
 51
45.000000000002309
  0
LINE
  5
294
  8
0
 10
2359.3939574137412
 20
1473.9970331417951
 30
0.0
 11
2359.0707341090379
 21
1474.3202564464989
 31
0.0
  0
LINE
  5
295
  8
0
 10
2359.0707341090379
 20
1474.3202564464989
 30
0.0
 11
2359.3939574137412
 21
1474.643479751202
 31
0.0
  0
ARC
  5
296
  8
0
 10
2359.217180718445
 20
1474.8202564464989
 30
0.0
 40
0.250000000000002
 50
315.0
 51
45.000000000002309
  0
LINE
  5
297
  8
0
 10
2359.3939574137412
 20
1474.997033141796
 30
0.0
 11
2359.0189574137412
 21
1475.372033141796
 31
0.0
  0
LINE
  5
298
  8
0
 10
2359.0189574137412
 20
1475.372033141796
 30
0.0
 11
2359.3939574137412
 21
1475.747033141796
 31
0.0
  0
ARC
  5
299
  8
0
 10
2359.217180718445
 20
1475.923809837092
 30
0.0
 40
0.2499999999999518
 50
314.99999999999312
 51
0.0000000000260592
  0
LINE
  5
29A
  8
0
 10
2359.467180718445
 20
1475.923809837092
 30
0.0
 11
2359.467180718445
 21
1476.3202564464989
 31
0.0
  0
LINE
  5
29B
  8
0
 10
2359.467180718445
 20
1476.3202564464989
 30
0.0
 11
2363.463627327852
 21
1476.3202564464989
 31
0.0
  0
LINE
  5
29C
  8
0
 10
2363.463627327852
 20
1476.3202564464989
 30
0.0
 11
2363.8904040231482
 21
1475.893479751202
 31
0.0
  0
ARC
  5
29D
  8
0
 10
2364.0671807184449
 20
1476.0702564464989
 30
0.0
 40
0.250000000000002
 50
225.0
 51
314.99999999999989
  0
LINE
  5
29E
  8
0
 10
2364.243957413742
 20
1475.893479751202
 30
0.0
 11
2364.6707341090382
 21
1476.3202564464989
 31
0.0
  0
LINE
  5
29F
  8
0
 10
2364.6707341090382
 20
1476.3202564464989
 30
0.0
 11
2369.673919134736
 21
1476.3202564464989
 31
0.0
  0
ARC
  5
2A0
  8
0
 10
2369.673919134736
 20
1476.6202564464991
 30
0.0
 40
0.2999999999999404
 50
269.9999999999838
 51
6.5528333261451257
  0
ARC
  5
2A1
  8
0
 10
2306.123704222201
 20
1469.3202564464959
 30
0.0
 40
64.268115615745344
 50
6.5528333265024372
 51
8.7218656111843291
  0
ARC
  5
2A2
  8
0
 10
2369.3520982823811
 20
1479.0202564464989
 30
0.0
 40
0.3000000000001874
 50
8.7218656111579627
 51
89.999999999999986
  0
LINE
  5
2A3
  8
0
 10
2369.3520982823811
 20
1479.3202564464989
 30
0.0
 11
2325.217180718445
 21
1479.3202564464989
 31
0.0
  0
ARC
  5
2A4
  8
0
 10
2325.217180718445
 20
1479.070256446498
 30
0.0
 40
0.25
 50
89.999999999999986
 51
180.0
  0
LINE
  5
2A5
  8
0
 10
2324.967180718445
 20
1479.070256446498
 30
0.0
 11
2324.967180718445
 21
1478.0702564464989
 31
0.0
  0
ARC
  5
2A6
  8
0
 10
2325.217180718445
 20
1478.0702564464989
 30
0.0
 40
0.25
 50
180.0
 51
270.0
  0
LINE
  5
2A7
  8
0
 10
2325.217180718445
 20
1477.8202564464989
 30
0.0
 11
2355.967180718445
 21
1477.8202564464989
 31
0.0
  0
LINE
  5
2A8
  8
0
 10
2355.9671807184459
 20
1475.423809837092
 30
0.0
 11
2355.967180718445
 21
1477.8202564464989
 31
0.0
  0
ARC
  5
2A9
  8
0
 10
2356.217180718445
 20
1475.423809837092
 30
0.0
 40
0.2499999999999716
 50
180.0
 51
225.00000000000551
  0
LINE
  5
2AA
  8
0
 10
2356.467180718445
 20
1474.8202564464989
 30
0.0
 11
2356.0404040231492
 21
1475.247033141796
 31
0.0
  0
LINE
  5
2AB
  8
0
 10
2356.467180718445
 20
1474.8202564464989
 30
0.0
 11
2356.0404040231492
 21
1474.393479751202
 31
0.0
  0
ARC
  5
2AC
  8
0
 10
2356.217180718445
 20
1474.216703055906
 30
0.0
 40
0.2499999999999719
 50
134.9999999999977
 51
180.00000000000321
  0
LINE
  5
2AD
  8
0
 10
2355.9671807184459
 20
1462.923809837092
 30
0.0
 11
2355.9671807184459
 21
1474.216703055906
 31
0.0
  0
ARC
  5
2AE
  8
0
 10
2356.217180718445
 20
1462.923809837092
 30
0.0
 40
0.2499999999999716
 50
180.0
 51
225.00000000000551
  0
LINE
  5
2AF
  8
0
 10
2356.467180718445
 20
1462.3202564464989
 30
0.0
 11
2356.0404040231492
 21
1462.7470331417951
 31
0.0
  0
LINE
  5
2B0
  8
0
 10
2356.467180718445
 20
1462.3202564464989
 30
0.0
 11
2356.0404040231492
 21
1461.893479751202
 31
0.0
  0
ARC
  5
2B1
  8
0
 10
2356.217180718445
 20
1461.716703055906
 30
0.0
 40
0.2499999999999719
 50
134.9999999999977
 51
180.00000000000321
  0
LINE
  5
2B2
  8
0
 10
2355.9671807184459
 20
1459.5702564464989
 30
0.0
 11
2355.9671807184459
 21
1461.716703055906
 31
0.0
  0
ARC
  5
2B3
  8
0
 10
2356.217180718445
 20
1459.5702564464989
 30
0.0
 40
0.25
 50
180.0
 51
269.99999999999682
  0
LINE
  5
2B4
  8
0
 10
2356.217180718445
 20
1459.3202564464989
 30
0.0
 11
2364.967180718445
 21
1459.3202564464989
 31
0.0
  0
LINE
  5
2B5
  8
0
 10
2364.967180718445
 20
1459.3202564464989
 30
0.0
 11
2364.9671807184459
 21
1454.923809837092
 31
0.0
  0
LINE
  5
2B6
  8
0
 10
2364.9671807184459
 20
1454.923809837092
 30
0.0
 11
2364.5404040231492
 21
1454.4970331417951
 31
0.0
  0
ARC
  5
2B7
  8
0
 10
2364.717180718445
 20
1454.320256446498
 30
0.0
 40
0.250000000000002
 50
135.00000000001381
 51
225.0000000000023
  0
LINE
  5
2B8
  8
0
 10
2364.5404040231492
 20
1454.143479751202
 30
0.0
 11
2364.967180718445
 21
1453.7167030559051
 31
0.0
  0
LINE
  5
2B9
  8
0
 10
2364.967180718445
 20
1453.7167030559051
 30
0.0
 11
2364.967180718445
 21
1449.6202564464991
 31
0.0
  0
ARC
  5
2BA
  8
0
 10
2365.2671807184452
 20
1449.6202564464991
 30
0.0
 40
0.2999999999997556
 50
180.0
 51
315.00000000005048
  0
LINE
  5
2BB
  8
0
 10
2365.479312752801
 20
1449.408124412143
 30
0.0
 11
2367.9360880078711
 21
1451.8648996672121
 31
0.0
  0
ARC
  5
2BC
  8
0
 10
2367.7239559735149
 20
1452.077031701569
 30
0.0
 40
0.3000000000003059
 50
315.00000000001342
 51
344.36193309449271
  0
ARC
  5
2BD
  8
0
 10
2306.1237042222128
 20
1469.3202564464971
 30
0.0
 40
64.268115615733834
 50
344.36193309477352
 51
353.44716667349809
  0
ARC
  5
2BE
  8
0
 10
2369.673919134736
 20
1462.0202564464989
 30
0.0
 40
0.2999999999997945
 50
353.44716667349769
 51
89.999999999989114
  0
LINE
  5
2BF
  8
0
 10
2369.673919134736
 20
1462.3202564464989
 30
0.0
 11
2364.6707341090382
 21
1462.3202564464989
 31
0.0
  0
LINE
  5
2C0
  8
0
 10
2364.243957413742
 20
1462.747033141796
 30
0.0
 11
2364.6707341090382
 21
1462.3202564464989
 31
0.0
  0
ENDSEC
  0
EOF
