  0
SECTION
  2
HEADER
  9
$ACADVER
  1
AC1009
  9
$INSBASE
 10
0.0
 20
0.0
 30
0.0
  9
$EXTMIN
 10
2602.780181017255
 20
1307.9441491690941
 30
-0.0015258207003583
  9
$EXTMAX
 10
2705.144585767277
 20
1394.5545094527499
 30
0.0000000349246037
  9
$LIMMIN
 10
0.0
 20
0.0
  9
$LIMMAX
 10
420.0
 20
297.0
  9
$ORTHOMODE
 70
     0
  9
$REGENMODE
 70
     1
  9
$FILLMODE
 70
     1
  9
$QTEXTMODE
 70
     0
  9
$MIRRTEXT
 70
     0
  9
$DRAGMODE
 70
     2
  9
$LTSCALE
 40
1.0
  9
$OSMODE
 70
  4095
  9
$ATTMODE
 70
     1
  9
$TEXTSIZE
 40
2.5
  9
$TRACEWID
 40
1.0
  9
$TEXTSTYLE
  7
STANDARD
  9
$CLAYER
  8
0
  9
$CELTYPE
  6
BYLAYER
  9
$CECOLOR
 62
   256
  9
$DIMSCALE
 40
1.0
  9
$DIMASZ
 40
2.5
  9
$DIMEXO
 40
0.625
  9
$DIMDLI
 40
3.75
  9
$DIMRND
 40
0.0
  9
$DIMDLE
 40
0.0
  9
$DIMEXE
 40
1.25
  9
$DIMTP
 40
0.0
  9
$DIMTM
 40
0.0
  9
$DIMTXT
 40
2.5
  9
$DIMCEN
 40
2.5
  9
$DIMTSZ
 40
0.0
  9
$DIMTOL
 70
     0
  9
$DIMLIM
 70
     0
  9
$DIMTIH
 70
     0
  9
$DIMTOH
 70
     0
  9
$DIMSE1
 70
     0
  9
$DIMSE2
 70
     0
  9
$DIMTAD
 70
     1
  9
$DIMZIN
 70
     8
  9
$DIMBLK
  1

  9
$DIMASO
 70
     1
  9
$DIMSHO
 70
     1
  9
$DIMPOST
  1

  9
$DIMAPOST
  1

  9
$DIMALT
 70
     0
  9
$DIMALTD
 70
     3
  9
$DIMALTF
 40
0.03937007874016
  9
$DIMLFAC
 40
1.0
  9
$DIMTOFL
 70
     1
  9
$DIMTVP
 40
0.0
  9
$DIMTIX
 70
     0
  9
$DIMSOXD
 70
     0
  9
$DIMSAH
 70
     0
  9
$DIMBLK1
  1

  9
$DIMBLK2
  1

  9
$DIMSTYLE
  2
ISO-25
  9
$DIMCLRD
 70
     0
  9
$DIMCLRE
 70
     0
  9
$DIMCLRT
 70
     0
  9
$DIMTFAC
 40
1.0
  9
$DIMGAP
 40
0.625
  9
$LUNITS
 70
     2
  9
$LUPREC
 70
     4
  9
$SKETCHINC
 40
1.0
  9
$FILLETRAD
 40
0.0
  9
$AUNITS
 70
     0
  9
$AUPREC
 70
     0
  9
$MENU
  1
.
  9
$ELEVATION
 40
0.0
  9
$PELEVATION
 40
0.0
  9
$THICKNESS
 40
0.0
  9
$LIMCHECK
 70
     0
  9
$BLIPMODE
 70
     0
  9
$CHAMFERA
 40
0.0
  9
$CHAMFERB
 40
0.0
  9
$SKPOLY
 70
     0
  9
$TDCREATE
 40
2457592.63635993
  9
$TDUPDATE
 40
2457592.6365148728
  9
$TDINDWG
 40
0.0001558912
  9
$TDUSRTIMER
 40
0.0001558796
  9
$USRTIMER
 70
     1
  9
$ANGBASE
 50
0.0
  9
$ANGDIR
 70
     0
  9
$PDMODE
 70
     0
  9
$PDSIZE
 40
0.0
  9
$PLINEWID
 40
0.0
  9
$COORDS
 70
     1
  9
$SPLFRAME
 70
     0
  9
$SPLINETYPE
 70
     6
  9
$SPLINESEGS
 70
     8
  9
$ATTDIA
 70
     1
  9
$ATTREQ
 70
     1
  9
$HANDLING
 70
     1
  9
$HANDSEED
  5
6EF
  9
$SURFTAB1
 70
     6
  9
$SURFTAB2
 70
     6
  9
$SURFTYPE
 70
     6
  9
$SURFU
 70
     6
  9
$SURFV
 70
     6
  9
$UCSNAME
  2

  9
$UCSORG
 10
0.0
 20
0.0
 30
0.0
  9
$UCSXDIR
 10
1.0
 20
0.0
 30
0.0
  9
$UCSYDIR
 10
0.0
 20
1.0
 30
0.0
  9
$PUCSNAME
  2

  9
$PUCSORG
 10
0.0
 20
0.0
 30
0.0
  9
$PUCSXDIR
 10
1.0
 20
0.0
 30
0.0
  9
$PUCSYDIR
 10
0.0
 20
1.0
 30
0.0
  9
$USERI1
 70
     0
  9
$USERI2
 70
     0
  9
$USERI3
 70
     0
  9
$USERI4
 70
     0
  9
$USERI5
 70
     0
  9
$USERR1
 40
0.0
  9
$USERR2
 40
0.0
  9
$USERR3
 40
0.0
  9
$USERR4
 40
0.0
  9
$USERR5
 40
0.0
  9
$WORLDVIEW
 70
     1
  9
$SHADEDGE
 70
     3
  9
$SHADEDIF
 70
    70
  9
$TILEMODE
 70
     1
  9
$MAXACTVP
 70
    64
  9
$PLIMCHECK
 70
     0
  9
$PEXTMIN
 10
0.0
 20
0.0
 30
0.0
  9
$PEXTMAX
 10
0.0
 20
0.0
 30
0.0
  9
$PLIMMIN
 10
0.0
 20
0.0
  9
$PLIMMAX
 10
12.0
 20
9.0
  9
$UNITMODE
 70
     0
  9
$VISRETAIN
 70
     1
  9
$PLINEGEN
 70
     0
  9
$PSLTSCALE
 70
     1
  0
ENDSEC
  0
SECTION
  2
TABLES
  0
TABLE
  2
VPORT
 70
     1
  0
VPORT
  2
*ACTIVE
 70
     0
 10
0.0
 20
0.0
 11
1.0
 21
1.0
 12
2653.962383392266
 22
1351.2493293109219
 13
0.0
 23
0.0
 14
10.0
 24
10.0
 15
10.0
 25
10.0
 16
0.0
 26
0.0
 36
1.0
 17
0.0
 27
0.0
 37
0.0
 40
87.267328882520346
 41
2.2291139240506319
 42
50.0
 43
0.0
 44
0.0
 50
0.0
 51
0.0
 71
     0
 72
  1000
 73
     1
 74
     3
 75
     0
 76
     1
 77
     0
 78
     0
  0
ENDTAB
  0
TABLE
  2
LTYPE
 70
     1
  0
LTYPE
  2
CONTINUOUS
 70
     0
  3
Solid line
 72
    65
 73
     0
 40
0.0
  0
ENDTAB
  0
TABLE
  2
LAYER
 70
     1
  0
LAYER
  2
0
 70
     0
 62
     7
  6
CONTINUOUS
  0
ENDTAB
  0
TABLE
  2
STYLE
 70
     3
  0
STYLE
  2
STANDARD
 70
     0
 40
0.0
 41
1.0
 50
0.0
 71
     0
 42
2.5
  3
txt
  4

  0
STYLE
  2
ANNOTATIVE
 70
     0
 40
0.0
 41
1.0
 50
0.0
 71
     0
 42
2.5
  3
txt
  4

  0
STYLE
  2
ROMANT
 70
     0
 40
2.2999999999999989
 41
1.0
 50
0.0
 71
     0
 42
2.5
  3
romant.shx
  4

  0
ENDTAB
  0
TABLE
  2
VIEW
 70
     2
  0
ENDTAB
  0
TABLE
  2
UCS
 70
     0
  0
ENDTAB
  0
TABLE
  2
APPID
 70
    10
  0
APPID
  2
ACAD
 70
     0
  0
APPID
  2
ACAD_PSEXT
 70
     0
  0
APPID
  2
ACADANNOPO
 70
     0
  0
APPID
  2
ACADANNOTATIVE
 70
     0
  0
APPID
  2
ACAD_DSTYLE_DIMJAG
 70
     0
  0
APPID
  2
ACAD_DSTYLE_DIMTALN
 70
     0
  0
APPID
  2
ACAD_MLEADERVER
 70
     0
  0
APPID
  2
ACAD_NAV_VCDISPLAY
 70
     0
  0
APPID
  2
GRADIENTCOLOR1ACI
 70
     0
  0
APPID
  2
GRADIENTCOLOR2ACI
 70
     0
  0
ENDTAB
  0
TABLE
  2
DIMSTYLE
 70
     4
  0
DIMSTYLE
  2
STANDARD
 70
     0
  3

  4

  5

  6

  7

 40
1.0
 41
0.18
 42
0.0625
 43
0.38
 44
0.18
 45
0.0
 46
0.0
 47
0.0
 48
0.0
140
0.18
141
0.09
142
0.0
143
25.399999999999999
144
1.0
145
0.0
146
1.0
147
0.09
 71
     0
 72
     0
 73
     1
 74
     1
 75
     0
 76
     0
 77
     0
 78
     0
170
     0
171
     2
172
     0
173
     0
174
     0
175
     0
176
     0
177
     0
178
     0
  0
DIMSTYLE
  2
ANNOTATIVE
 70
     0
  3

  4

  5

  6

  7

 40
0.0
 41
2.5
 42
0.625
 43
3.75
 44
1.25
 45
0.0
 46
0.0
 47
0.0
 48
0.0
140
2.5
141
2.5
142
0.0
143
0.03937007874016
144
1.0
145
0.0
146
1.0
147
0.625
 71
     0
 72
     0
 73
     0
 74
     0
 75
     0
 76
     0
 77
     1
 78
     8
170
     0
171
     3
172
     1
173
     0
174
     0
175
     0
176
     0
177
     0
178
     0
  0
DIMSTYLE
  2
ISO-25
 70
     0
  3

  4

  5

  6

  7

 40
1.0
 41
2.5
 42
0.625
 43
3.75
 44
1.25
 45
0.0
 46
0.0
 47
0.0
 48
0.0
140
2.5
141
2.5
142
0.0
143
0.03937007874016
144
1.0
145
0.0
146
1.0
147
0.625
 71
     0
 72
     0
 73
     0
 74
     0
 75
     0
 76
     0
 77
     1
 78
     8
170
     0
171
     3
172
     1
173
     0
174
     0
175
     0
176
     0
177
     0
178
     0
  0
DIMSTYLE
  2
MELÝH_A3
 70
     0
  3

  4

  5

  6

  7

 40
1.0
 41
1.3
 42
0.0
 43
3.75
 44
0.2
 45
0.0
 46
0.0
 47
0.0
 48
0.0
140
1.0
141
0.2
142
0.0
143
0.03937007874016
144
1.0
145
0.0
146
1.0
147
0.7
 71
     0
 72
     0
 73
     0
 74
     0
 75
     0
 76
     0
 77
     1
 78
     8
170
     0
171
     3
172
     0
173
     0
174
     0
175
     0
176
   242
177
   242
178
   242
  0
ENDTAB
  0
ENDSEC
  0
SECTION
  2
BLOCKS
  0
BLOCK
  8
0
  2
$MODEL_SPACE
 70
     0
 10
0.0
 20
0.0
 30
0.0
  3
$MODEL_SPACE
  1

  0
ENDBLK
  5
21
  8
0
  0
BLOCK
 67
     1
  8
0
  2
$PAPER_SPACE
 70
     0
 10
0.0
 20
0.0
 30
0.0
  3
$PAPER_SPACE
  1

  0
ENDBLK
  5
D5
 67
     1
  8
0
  0
BLOCK
  8
0
  2
*X2
 70
     1
 10
0.0
 20
0.0
 30
0.0
  3
*X2
  1

  0
LINE
  5
362
  8
0
 62
     0
 10
102.01169747416139
 20
86.153198780203425
 30
0.0
 11
101.6665076011807
 21
86.498388653184179
 31
0.0
  0
LINE
  5
363
  8
0
 62
     0
 10
102.0305397597832
 20
85.535672753177067
 30
0.0
 11
101.0489815741543
 21
86.517230938805966
 31
0.0
  0
LINE
  5
364
  8
0
 62
     0
 10
102.0305397597832
 20
84.936989011772482
 30
0.0
 11
100.4502978327497
 21
86.517230938805966
 31
0.0
  0
LINE
  5
365
  8
0
 62
     0
 10
102.0305397597832
 20
84.338305270367854
 30
0.0
 11
99.851614091345127
 21
86.517230938805966
 31
0.0
  0
LINE
  5
366
  8
0
 62
     0
 10
102.0305397597832
 20
83.739621528963227
 30
0.0
 11
99.252930349940485
 21
86.517230938805966
 31
0.0
  0
LINE
  5
367
  8
0
 62
     0
 10
102.0305397597832
 20
83.140937787558627
 30
0.0
 11
98.654246608535871
 21
86.51723093880598
 31
0.0
  0
LINE
  5
368
  8
0
 62
     0
 10
102.0305397597832
 20
82.542254046154014
 30
0.0
 11
98.055562867131243
 21
86.517230938805994
 31
0.0
  0
LINE
  5
369
  8
0
 62
     0
 10
99.156879125726576
 20
84.817230938806048
 30
0.0
 11
97.456879125726616
 21
86.517230938806009
 31
0.0
  0
LINE
  5
36A
  8
0
 62
     0
 10
102.0305397597832
 20
81.943570304749414
 30
0.0
 11
100.0305397597833
 21
83.943570304749301
 31
0.0
  0
LINE
  5
36B
  8
0
 62
     0
 10
98.558195384321962
 20
84.817230938806034
 30
0.0
 11
96.858195384322002
 21
86.517230938806009
 31
0.0
  0
LINE
  5
36C
  8
0
 62
     0
 10
102.0305397597832
 20
81.344886563344815
 30
0.0
 11
100.0305397597833
 21
83.344886563344673
 31
0.0
  0
LINE
  5
36D
  8
0
 62
     0
 10
97.959511642917363
 20
84.817230938806063
 30
0.0
 11
96.259511642917388
 21
86.517230938806037
 31
0.0
  0
LINE
  5
36E
  8
0
 62
     0
 10
102.0305397597832
 20
80.746202821940173
 30
0.0
 11
100.0305397597833
 21
82.746202821940074
 31
0.0
  0
LINE
  5
36F
  8
0
 62
     0
 10
97.360827901512721
 20
84.817230938806063
 30
0.0
 11
95.660827901512747
 21
86.517230938806051
 31
0.0
  0
LINE
  5
370
  8
0
 62
     0
 10
102.0305397597832
 20
80.147519080535574
 30
0.0
 11
100.0305397597833
 21
82.147519080535474
 31
0.0
  0
LINE
  5
371
  8
0
 62
     0
 10
96.762144160108136
 20
84.817230938806063
 30
0.0
 11
95.062144160108147
 21
86.517230938806037
 31
0.0
  0
LINE
  5
372
  8
0
 62
     0
 10
102.0305397597832
 20
79.548835339130989
 30
0.0
 11
100.0305397597833
 21
81.548835339130861
 31
0.0
  0
LINE
  5
373
  8
0
 62
     0
 10
96.163460418703494
 20
84.817230938806063
 30
0.0
 11
94.463460418703519
 21
86.517230938806051
 31
0.0
  0
LINE
  5
374
  8
0
 62
     0
 10
102.0305397597832
 20
78.950151597726375
 30
0.0
 11
100.0305397597833
 21
80.950151597726247
 31
0.0
  0
LINE
  5
375
  8
0
 62
     0
 10
95.56477667729888
 20
84.817230938806077
 30
0.0
 11
93.864776677298906
 21
86.517230938806065
 31
0.0
  0
LINE
  5
376
  8
0
 62
     0
 10
102.0305397597832
 20
78.351467856321747
 30
0.0
 11
100.0305397597833
 21
80.351467856321634
 31
0.0
  0
LINE
  5
377
  8
0
 62
     0
 10
94.966092935894267
 20
84.817230938806077
 30
0.0
 11
93.266092935894264
 21
86.517230938806065
 31
0.0
  0
LINE
  5
378
  8
0
 62
     0
 10
102.0305397597832
 20
77.752784114917134
 30
0.0
 11
100.0305397597833
 21
79.75278411491702
 31
0.0
  0
LINE
  5
379
  8
0
 62
     0
 10
94.367409194489653
 20
84.817230938806077
 30
0.0
 11
92.667409194489665
 21
86.517230938806065
 31
0.0
  0
LINE
  5
37A
  8
0
 62
     0
 10
102.0305397597832
 20
77.154100373512534
 30
0.0
 11
100.0305397597833
 21
79.154100373512421
 31
0.0
  0
LINE
  5
37B
  8
0
 62
     0
 10
93.76872545308504
 20
84.817230938806077
 30
0.0
 11
92.068725453085023
 21
86.517230938806094
 31
0.0
  0
LINE
  5
37C
  8
0
 62
     0
 10
102.0305397597832
 20
76.555416632107921
 30
0.0
 11
100.0305397597833
 21
78.555416632107807
 31
0.0
  0
LINE
  5
37D
  8
0
 62
     0
 10
93.170041711680426
 20
84.817230938806077
 30
0.0
 11
91.470041711680423
 21
86.51723093880608
 31
0.0
  0
LINE
  5
37E
  8
0
 62
     0
 10
102.0305397597832
 20
75.956732890703293
 30
0.0
 11
100.0305397597833
 21
77.956732890703222
 31
0.0
  0
LINE
  5
37F
  8
0
 62
     0
 10
92.571357970275812
 20
84.817230938806077
 30
0.0
 11
90.871357970275781
 21
86.517230938806094
 31
0.0
  0
LINE
  5
380
  8
0
 62
     0
 10
102.0305397597832
 20
75.358049149298694
 30
0.0
 11
100.0305397597833
 21
77.35804914929858
 31
0.0
  0
LINE
  5
381
  8
0
 62
     0
 10
91.972674228871199
 20
84.817230938806077
 30
0.0
 11
90.272674228871196
 21
86.517230938806094
 31
0.0
  0
LINE
  5
382
  8
0
 62
     0
 10
102.0305397597832
 20
74.759365407894094
 30
0.0
 11
100.0305397597833
 21
76.759365407893995
 31
0.0
  0
LINE
  5
383
  8
0
 62
     0
 10
91.3739904874666
 20
84.817230938806077
 30
0.0
 11
89.673990487466554
 21
86.517230938806136
 31
0.0
  0
LINE
  5
384
  8
0
 62
     0
 10
102.0305397597832
 20
74.160681666489481
 30
0.0
 11
100.0305397597833
 21
76.160681666489367
 31
0.0
  0
LINE
  5
385
  8
0
 62
     0
 10
90.775306746061986
 20
84.817230938806077
 30
0.0
 11
89.075306746061955
 21
86.517230938806136
 31
0.0
  0
LINE
  5
386
  8
0
 62
     0
 10
102.0305397597832
 20
73.561997925084881
 30
0.0
 11
100.0305397597833
 21
75.561997925084754
 31
0.0
  0
LINE
  5
387
  8
0
 62
     0
 10
90.176623004657372
 20
84.817230938806105
 30
0.0
 11
88.476623004657327
 21
86.517230938806151
 31
0.0
  0
LINE
  5
388
  8
0
 62
     0
 10
102.0305397597832
 20
72.963314183680254
 30
0.0
 11
100.0305397597833
 21
74.963314183680154
 31
0.0
  0
LINE
  5
389
  8
0
 62
     0
 10
89.577939263252759
 20
84.817230938806105
 30
0.0
 11
87.877939263252713
 21
86.517230938806151
 31
0.0
  0
LINE
  5
38A
  8
0
 62
     0
 10
102.0305397597832
 20
72.36463044227564
 30
0.0
 11
100.0305397597833
 21
74.364630442275526
 31
0.0
  0
LINE
  5
38B
  8
0
 62
     0
 10
89.023936740670194
 20
84.77254971998407
 30
0.0
 11
87.323936740670206
 21
86.472549719984045
 31
0.0
  0
LINE
  5
38C
  8
0
 62
     0
 10
102.0305397597832
 20
71.765946700871027
 30
0.0
 11
100.0305397597833
 21
73.765946700870927
 31
0.0
  0
LINE
  5
38D
  8
0
 62
     0
 10
88.748341507164483
 20
84.449461212085154
 30
0.0
 11
87.048341507164565
 21
86.149461212085086
 31
0.0
  0
LINE
  5
38E
  8
0
 62
     0
 10
102.0305397597832
 20
71.167262959466427
 30
0.0
 11
100.0305397597833
 21
73.167262959466314
 31
0.0
  0
LINE
  5
38F
  8
0
 62
     0
 10
88.730539759783184
 20
83.868579218061825
 30
0.0
 11
87.030539759783323
 21
85.568579218061686
 31
0.0
  0
LINE
  5
390
  8
0
 62
     0
 10
102.0305397597832
 20
70.568579218061814
 30
0.0
 11
100.0305397597833
 21
72.5685792180617
 31
0.0
  0
LINE
  5
391
  8
0
 62
     0
 10
88.730539759783198
 20
83.269895476657226
 30
0.0
 11
87.030539759783323
 21
84.969895476657086
 31
0.0
  0
LINE
  5
392
  8
0
 62
     0
 10
102.0305397597832
 20
69.969895476657214
 30
0.0
 11
99.783204297634256
 21
72.217230938806154
 31
0.0
  0
LINE
  5
393
  8
0
 62
     0
 10
88.730539759783184
 20
82.671211735252626
 30
0.0
 11
87.030539759783323
 21
84.371211735252487
 31
0.0
  0
LINE
  5
394
  8
0
 62
     0
 10
102.0305397597832
 20
69.371211735252601
 30
0.0
 11
99.184520556229643
 21
72.217230938806154
 31
0.0
  0
LINE
  5
395
  8
0
 62
     0
 10
88.687893994597346
 20
82.115173759033837
 30
0.0
 11
86.987893994597457
 21
83.815173759033726
 31
0.0
  0
LINE
  5
396
  8
0
 62
     0
 10
102.0305397597832
 20
68.772527993847973
 30
0.0
 11
98.585836814825029
 21
72.217230938806154
 31
0.0
  0
LINE
  5
397
  8
0
 62
     0
 10
88.367911775235214
 20
81.836472236991369
 30
0.0
 11
86.667911775235311
 21
83.536472236991273
 31
0.0
  0
LINE
  5
398
  8
0
 62
     0
 10
102.0305397597832
 20
68.173844252443374
 30
0.0
 11
97.987153073420416
 21
72.217230938806154
 31
0.0
  0
LINE
  5
399
  8
0
 62
     0
 10
87.788469332015794
 20
81.817230938806176
 30
0.0
 11
86.088469332015876
 21
83.517230938806094
 31
0.0
  0
LINE
  5
39A
  8
0
 62
     0
 10
102.0305397597832
 20
67.57516051103876
 30
0.0
 11
97.388469332015802
 21
72.217230938806154
 31
0.0
  0
LINE
  5
39B
  8
0
 62
     0
 10
87.189785590611194
 20
81.817230938806162
 30
0.0
 11
85.489785590611262
 21
83.517230938806094
 31
0.0
  0
LINE
  5
39C
  8
0
 62
     0
 10
101.86312835968189
 20
67.143888169735391
 30
0.0
 11
96.789785590611174
 21
72.217230938806182
 31
0.0
  0
LINE
  5
39D
  8
0
 62
     0
 10
86.591101849206581
 20
81.817230938806162
 30
0.0
 11
84.891101849206649
 21
83.517230938806094
 31
0.0
  0
LINE
  5
39E
  8
0
 62
     0
 10
101.39110184920661
 20
67.017230938806151
 30
0.0
 11
96.191101849206575
 21
72.217230938806182
 31
0.0
  0
LINE
  5
39F
  8
0
 62
     0
 10
97.292418107802035
 20
70.517230938806094
 30
0.0
 11
95.592418107801947
 21
72.217230938806182
 31
0.0
  0
LINE
  5
3A0
  8
0
 62
     0
 10
85.992418107801953
 20
81.817230938806176
 30
0.0
 11
84.292418107802035
 21
83.517230938806108
 31
0.0
  0
LINE
  5
3A1
  8
0
 62
     0
 10
100.79241810780201
 20
67.017230938806136
 30
0.0
 11
98.030539759783309
 21
69.77910928682482
 31
0.0
  0
LINE
  5
3A2
  8
0
 62
     0
 10
96.693734366397436
 20
70.51723093880608
 30
0.0
 11
94.993734366397319
 21
72.217230938806182
 31
0.0
  0
LINE
  5
3A3
  8
0
 62
     0
 10
85.393734366397354
 20
81.817230938806176
 30
0.0
 11
83.693734366397393
 21
83.517230938806108
 31
0.0
  0
LINE
  5
3A4
  8
0
 62
     0
 10
100.19373436639739
 20
67.017230938806108
 30
0.0
 11
98.030539759783309
 21
69.180425545420206
 31
0.0
  0
LINE
  5
3A5
  8
0
 62
     0
 10
96.095050624992822
 20
70.517230938806094
 30
0.0
 11
94.395050624992706
 21
72.21723093880621
 31
0.0
  0
LINE
  5
3A6
  8
0
 62
     0
 10
84.79505062499274
 20
81.817230938806176
 30
0.0
 11
83.095050624992808
 21
83.517230938806108
 31
0.0
  0
LINE
  5
3A7
  8
0
 62
     0
 10
99.595050624992822
 20
67.017230938806094
 30
0.0
 11
98.030539759783295
 21
68.581741804015621
 31
0.0
  0
LINE
  5
3A8
  8
0
 62
     0
 10
95.496366883588209
 20
70.517230938806094
 30
0.0
 11
93.796366883588135
 21
72.21723093880621
 31
0.0
  0
LINE
  5
3A9
  8
0
 62
     0
 10
84.196366883588155
 20
81.817230938806162
 30
0.0
 11
82.496366883588223
 21
83.517230938806108
 31
0.0
  0
LINE
  5
3AA
  8
0
 62
     0
 10
98.996366883588266
 20
67.017230938806051
 30
0.0
 11
98.030539759783323
 21
67.983058062611008
 31
0.0
  0
LINE
  5
3AB
  8
0
 62
     0
 10
94.897683142183624
 20
70.517230938806094
 30
0.0
 11
93.197683142183493
 21
72.21723093880621
 31
0.0
  0
LINE
  5
3AC
  8
0
 62
     0
 10
83.597683142183556
 20
81.817230938806176
 30
0.0
 11
81.897683142183595
 21
83.517230938806136
 31
0.0
  0
LINE
  5
3AD
  8
0
 62
     0
 10
98.37182361091439
 20
67.043090470075327
 30
0.0
 11
98.056399291052557
 21
67.358514789937161
 31
0.0
  0
LINE
  5
3AE
  8
0
 62
     0
 10
82.998999400778914
 20
81.817230938806176
 30
0.0
 11
81.298999400778996
 21
83.517230938806108
 31
0.0
  0
LINE
  5
3AF
  8
0
 62
     0
 10
94.298999400778996
 20
70.517230938806094
 30
0.0
 11
92.598999400778879
 21
72.217230938806225
 31
0.0
  0
LINE
  5
3B0
  8
0
 62
     0
 10
82.400315659374314
 20
81.817230938806176
 30
0.0
 11
80.700315659374368
 21
83.517230938806136
 31
0.0
  0
LINE
  5
3B1
  8
0
 62
     0
 10
93.700315659374397
 20
70.51723093880608
 30
0.0
 11
92.000315659374252
 21
72.217230938806225
 31
0.0
  0
LINE
  5
3B2
  8
0
 62
     0
 10
81.801631917969686
 20
81.817230938806162
 30
0.0
 11
80.101631917969755
 21
83.517230938806136
 31
0.0
  0
LINE
  5
3B3
  8
0
 62
     0
 10
93.101631917969783
 20
70.517230938806094
 30
0.0
 11
91.401631917969624
 21
72.217230938806239
 31
0.0
  0
LINE
  5
3B4
  8
0
 62
     0
 10
81.202948176565101
 20
81.817230938806176
 30
0.0
 11
79.502948176565155
 21
83.517230938806108
 31
0.0
  0
LINE
  5
3B5
  8
0
 62
     0
 10
92.502948176565184
 20
70.51723093880608
 30
0.0
 11
90.80294817656501
 21
72.217230938806239
 31
0.0
  0
LINE
  5
3B6
  8
0
 62
     0
 10
80.604264435160474
 20
81.817230938806176
 30
0.0
 11
78.904264435160513
 21
83.517230938806136
 31
0.0
  0
LINE
  5
3B7
  8
0
 62
     0
 10
91.904264435160556
 20
70.517230938806094
 30
0.0
 11
90.204264435160425
 21
72.217230938806239
 31
0.0
  0
LINE
  5
3B8
  8
0
 62
     0
 10
80.005580693755874
 20
81.817230938806176
 30
0.0
 11
78.305580693755928
 21
83.517230938806136
 31
0.0
  0
LINE
  5
3B9
  8
0
 62
     0
 10
91.305580693755928
 20
70.517230938806094
 30
0.0
 11
89.605580693755783
 21
72.217230938806253
 31
0.0
  0
LINE
  5
3BA
  8
0
 62
     0
 10
79.406896952351261
 20
81.817230938806176
 30
0.0
 11
77.706896952351315
 21
83.517230938806136
 31
0.0
  0
LINE
  5
3BB
  8
0
 62
     0
 10
90.706896952351343
 20
70.517230938806094
 30
0.0
 11
89.00689695235117
 21
72.217230938806253
 31
0.0
  0
LINE
  5
3BC
  8
0
 62
     0
 10
78.808213210946633
 20
81.817230938806176
 30
0.0
 11
77.108213210946687
 21
83.517230938806136
 31
0.0
  0
LINE
  5
3BD
  8
0
 62
     0
 10
90.217962614343762
 20
70.407481535409048
 30
0.0
 11
88.51796261434373
 21
72.107481535409093
 31
0.0
  0
LINE
  5
3BE
  8
0
 62
     0
 10
78.209529469542034
 20
81.817230938806162
 30
0.0
 11
76.509529469542073
 21
83.517230938806136
 31
0.0
  0
LINE
  5
3BF
  8
0
 62
     0
 10
90.030539759783323
 20
69.996220648564886
 30
0.0
 11
88.330539759783278
 21
71.696220648564932
 31
0.0
  0
LINE
  5
3C0
  8
0
 62
     0
 10
77.610845728137434
 20
81.817230938806162
 30
0.0
 11
75.91084572813746
 21
83.517230938806136
 31
0.0
  0
LINE
  5
3C1
  8
0
 62
     0
 10
90.030539759783323
 20
69.397536907160273
 30
0.0
 11
88.330539759783278
 21
71.097536907160304
 31
0.0
  0
LINE
  5
3C2
  8
0
 62
     0
 10
77.012161986732806
 20
81.817230938806176
 30
0.0
 11
75.312161986732846
 21
83.517230938806136
 31
0.0
  0
LINE
  5
3C3
  8
0
 62
     0
 10
90.030539759783295
 20
68.798853165755673
 30
0.0
 11
88.330539759783278
 21
70.498853165755705
 31
0.0
  0
LINE
  5
3C4
  8
0
 62
     0
 10
76.413478245328207
 20
81.817230938806162
 30
0.0
 11
74.713478245328233
 21
83.517230938806136
 31
0.0
  0
LINE
  5
3C5
  8
0
 62
     0
 10
90.030539759783323
 20
68.200169424351046
 30
0.0
 11
88.330539759783278
 21
69.900169424351091
 31
0.0
  0
LINE
  5
3C6
  8
0
 62
     0
 10
90.030539759783323
 20
67.601485682946446
 30
0.0
 11
88.330539759783278
 21
69.301485682946463
 31
0.0
  0
LINE
  5
3C7
  8
0
 62
     0
 10
75.814794503923594
 20
81.817230938806176
 30
0.0
 11
74.114794503923619
 21
83.517230938806136
 31
0.0
  0
LINE
  5
3C8
  8
0
 62
     0
 10
102.02181933115691
 20
55.610206111572893
 30
0.0
 11
101.62351493254999
 21
56.008510510179761
 31
0.0
  0
LINE
  5
3C9
  8
0
 62
     0
 10
75.216110762518994
 20
81.817230938806162
 30
0.0
 11
73.516110762519006
 21
83.517230938806151
 31
0.0
  0
LINE
  5
3CA
  8
0
 62
     0
 10
90.030539759783295
 20
67.002801941541833
 30
0.0
 11
88.330539759783278
 21
68.702801941541864
 31
0.0
  0
LINE
  5
3CB
  8
0
 62
     0
 10
71.03053975978365
 20
86.002801941541506
 30
0.0
 11
70.516110762519048
 21
86.517230938806094
 31
0.0
  0
LINE
  5
3CC
  8
0
 62
     0
 10
102.0305397597833
 20
55.002801941541847
 30
0.0
 11
101.01611076251901
 21
56.017230938806151
 31
0.0
  0
LINE
  5
3CD
  8
0
 62
     0
 10
74.617427021114366
 20
81.817230938806176
 30
0.0
 11
72.917427021114392
 21
83.517230938806151
 31
0.0
  0
LINE
  5
3CE
  8
0
 62
     0
 10
90.030539759783323
 20
66.404118200137219
 30
0.0
 11
88.330539759783278
 21
68.104118200137265
 31
0.0
  0
LINE
  5
3CF
  8
0
 62
     0
 10
71.03053975978365
 20
85.404118200136892
 30
0.0
 11
69.917427021114435
 21
86.517230938806094
 31
0.0
  0
LINE
  5
3D0
  8
0
 62
     0
 10
102.0305397597833
 20
54.404118200137233
 30
0.0
 11
100.41742702111441
 21
56.017230938806158
 31
0.0
  0
LINE
  5
3D1
  8
0
 62
     0
 10
74.018743279709796
 20
81.817230938806162
 30
0.0
 11
72.318743279709793
 21
83.517230938806165
 31
0.0
  0
LINE
  5
3D2
  8
0
 62
     0
 10
90.030539759783338
 20
65.80543445873262
 30
0.0
 11
88.330539759783321
 21
67.505434458732637
 31
0.0
  0
LINE
  5
3D3
  8
0
 62
     0
 10
71.030539759783679
 20
84.805434458732279
 30
0.0
 11
69.31874327970985
 21
86.517230938806094
 31
0.0
  0
LINE
  5
3D4
  8
0
 62
     0
 10
102.0305397597833
 20
53.80543445873262
 30
0.0
 11
99.818743279709793
 21
56.017230938806158
 31
0.0
  0
LINE
  5
3D5
  8
0
 62
     0
 10
73.420059538305168
 20
81.817230938806176
 30
0.0
 11
71.720059538305179
 21
83.517230938806165
 31
0.0
  0
LINE
  5
3D6
  8
0
 62
     0
 10
90.030539759783338
 20
65.206750717328006
 30
0.0
 11
88.330539759783306
 21
66.906750717328038
 31
0.0
  0
LINE
  5
3D7
  8
0
 62
     0
 10
71.030539759783679
 20
84.206750717327665
 30
0.0
 11
68.720059538305222
 21
86.517230938806122
 31
0.0
  0
LINE
  5
3D8
  8
0
 62
     0
 10
102.0305397597833
 20
53.206750717328021
 30
0.0
 11
99.220059538305179
 21
56.017230938806172
 31
0.0
  0
LINE
  5
3D9
  8
0
 62
     0
 10
90.030539759783338
 20
64.608066975923393
 30
0.0
 11
88.330539759783306
 21
66.308066975923424
 31
0.0
  0
LINE
  5
3DA
  8
0
 62
     0
 10
72.821375796900568
 20
81.817230938806162
 30
0.0
 11
68.121375796900622
 21
86.517230938806094
 31
0.0
  0
LINE
  5
3DB
  8
0
 62
     0
 10
102.0305397597833
 20
52.608066975923393
 30
0.0
 11
98.621375796900566
 21
56.017230938806151
 31
0.0
  0
LINE
  5
3DC
  8
0
 62
     0
 10
90.030539759783338
 20
64.009383234518779
 30
0.0
 11
88.330539759783321
 21
65.709383234518796
 31
0.0
  0
LINE
  5
3DD
  8
0
 62
     0
 10
72.222692055495955
 20
81.817230938806162
 30
0.0
 11
67.522692055496009
 21
86.517230938806094
 31
0.0
  0
LINE
  5
3DE
  8
0
 62
     0
 10
102.0305397597833
 20
52.009383234518793
 30
0.0
 11
98.173084291819521
 21
55.866838702482589
 31
0.0
  0
LINE
  5
3DF
  8
0
 62
     0
 10
71.624008314091355
 20
81.817230938806148
 30
0.0
 11
69.330539759783733
 21
84.110699493113771
 31
0.0
  0
LINE
  5
3E0
  8
0
 62
     0
 10
90.030539759783323
 20
63.41069949311418
 30
0.0
 11
88.330539759783321
 21
65.110699493114168
 31
0.0
  0
LINE
  5
3E1
  8
0
 62
     0
 10
68.624008314091341
 20
84.817230938806148
 30
0.0
 11
66.924008314091409
 21
86.517230938806094
 31
0.0
  0
LINE
  5
3E2
  8
0
 62
     0
 10
102.0305397597833
 20
51.41069949311418
 30
0.0
 11
98.030539759783323
 21
55.410699493114173
 31
0.0
  0
LINE
  5
3E3
  8
0
 62
     0
 10
71.025324572686714
 20
81.817230938806176
 30
0.0
 11
69.330539759783719
 21
83.512015751709185
 31
0.0
  0
LINE
  5
3E4
  8
0
 62
     0
 10
90.030539759783338
 20
62.812015751709559
 30
0.0
 11
88.330539759783321
 21
64.512015751709583
 31
0.0
  0
LINE
  5
3E5
  8
0
 62
     0
 10
68.025324572686714
 20
84.817230938806176
 30
0.0
 11
66.325324572686782
 21
86.517230938806094
 31
0.0
  0
LINE
  5
3E6
  8
0
 62
     0
 10
102.0305397597833
 20
50.812015751709581
 30
0.0
 11
98.030539759783323
 21
54.812015751709559
 31
0.0
  0
LINE
  5
3E7
  8
0
 62
     0
 10
70.426640831282114
 20
81.817230938806176
 30
0.0
 11
69.330539759783733
 21
82.913332010304558
 31
0.0
  0
LINE
  5
3E8
  8
0
 62
     0
 10
90.030539759783338
 20
62.213332010304939
 30
0.0
 11
88.330539759783321
 21
63.913332010304963
 31
0.0
  0
LINE
  5
3E9
  8
0
 62
     0
 10
67.4266408312821
 20
84.81723093880619
 30
0.0
 11
65.726640831282182
 21
86.517230938806094
 31
0.0
  0
LINE
  5
3EA
  8
0
 62
     0
 10
102.0305397597833
 20
50.21333201030496
 30
0.0
 11
98.030539759783323
 21
54.213332010304953
 31
0.0
  0
LINE
  5
3EB
  8
0
 62
     0
 10
69.827957089877501
 20
81.817230938806176
 30
0.0
 11
69.33049502239983
 21
82.314693006283846
 31
0.0
  0
LINE
  5
3EC
  8
0
 62
     0
 10
90.030539759783323
 20
61.614648268900339
 30
0.0
 11
88.330539759783321
 21
63.314648268900342
 31
0.0
  0
LINE
  5
3ED
  8
0
 62
     0
 10
66.827957089877501
 20
84.817230938806176
 30
0.0
 11
65.127957089877569
 21
86.517230938806094
 31
0.0
  0
LINE
  5
3EE
  8
0
 62
     0
 10
102.0305397597833
 20
49.614648268900353
 30
0.0
 11
98.030539759783309
 21
53.614648268900353
 31
0.0
  0
LINE
  5
3EF
  8
0
 62
     0
 10
90.030539759783338
 20
61.015964527495719
 30
0.0
 11
88.330539759783321
 21
62.715964527495728
 31
0.0
  0
LINE
  5
3F0
  8
0
 62
     0
 10
66.229273348472887
 20
84.817230938806176
 30
0.0
 11
64.529273348472955
 21
86.517230938806094
 31
0.0
  0
LINE
  5
3F1
  8
0
 62
     0
 10
102.0305397597833
 20
49.015964527495747
 30
0.0
 11
98.030538160032492
 21
53.015966127246578
 31
0.0
  0
LINE
  5
3F2
  8
0
 62
     0
 10
90.030539759783323
 20
60.417280786091119
 30
0.0
 11
88.330539759783321
 21
62.117280786091122
 31
0.0
  0
LINE
  5
3F3
  8
0
 62
     0
 10
99.63058960706833
 20
50.817230938806112
 30
0.0
 11
97.830568243040616
 21
52.617252302833847
 31
0.0
  0
LINE
  5
3F4
  8
0
 62
     0
 10
65.630589607068288
 20
84.817230938806148
 30
0.0
 11
63.930589607068342
 21
86.517230938806094
 31
0.0
  0
LINE
  5
3F5
  8
0
 62
     0
 10
102.0305397597833
 20
48.417280786091119
 30
0.0
 11
100.0305397597833
 21
50.417280786091133
 31
0.0
  0
LINE
  5
3F6
  8
0
 62
     0
 10
90.030539759783323
 20
59.818597044686513
 30
0.0
 11
88.330539759783335
 21
61.518597044686501
 31
0.0
  0
LINE
  5
3F7
  8
0
 62
     0
 10
99.031905865663703
 20
50.817230938806112
 30
0.0
 11
97.331905865663671
 21
52.517230938806172
 31
0.0
  0
LINE
  5
3F8
  8
0
 62
     0
 10
65.03190586566366
 20
84.817230938806176
 30
0.0
 11
63.331905865663707
 21
86.517230938806122
 31
0.0
  0
LINE
  5
3F9
  8
0
 62
     0
 10
102.0305397597833
 20
47.818597044686527
 30
0.0
 11
100.0305397597833
 21
49.81859704468652
 31
0.0
  0
LINE
  5
3FA
  8
0
 62
     0
 10
90.030539759783323
 20
59.219913303281892
 30
0.0
 11
88.330539759783321
 21
60.919913303281881
 31
0.0
  0
LINE
  5
3FB
  8
0
 62
     0
 10
98.433222124259103
 20
50.817230938806148
 30
0.0
 11
96.733222124259086
 21
52.517230938806151
 31
0.0
  0
LINE
  5
3FC
  8
0
 62
     0
 10
64.433222124259061
 20
84.817230938806148
 30
0.0
 11
62.733222124259107
 21
86.517230938806094
 31
0.0
  0
LINE
  5
3FD
  8
0
 62
     0
 10
102.0305397597833
 20
47.219913303281913
 30
0.0
 11
100.0305397597833
 21
49.219913303281928
 31
0.0
  0
LINE
  5
3FE
  8
0
 62
     0
 10
90.030539759783295
 20
58.621229561877293
 30
0.0
 11
88.330539759783321
 21
60.321229561877303
 31
0.0
  0
LINE
  5
3FF
  8
0
 62
     0
 10
97.834538382854475
 20
50.817230938806141
 30
0.0
 11
96.134538382854458
 21
52.517230938806151
 31
0.0
  0
LINE
  5
400
  8
0
 62
     0
 10
63.834538382854433
 20
84.817230938806176
 30
0.0
 11
62.134538382854501
 21
86.517230938806094
 31
0.0
  0
LINE
  5
401
  8
0
 62
     0
 10
102.0305397597833
 20
46.6212295618773
 30
0.0
 11
100.0305397597833
 21
48.621229561877321
 31
0.0
  0
LINE
  5
402
  8
0
 62
     0
 10
90.030539759783295
 20
58.022545820472679
 30
0.0
 11
88.330539759783335
 21
59.722545820472661
 31
0.0
  0
LINE
  5
403
  8
0
 62
     0
 10
97.235854641449833
 20
50.817230938806162
 30
0.0
 11
95.535854641449845
 21
52.517230938806151
 31
0.0
  0
LINE
  5
404
  8
0
 62
     0
 10
63.235854641449833
 20
84.817230938806176
 30
0.0
 11
61.535854641449902
 21
86.517230938806094
 31
0.0
  0
LINE
  5
405
  8
0
 62
     0
 10
102.0305397597833
 20
46.022545820472679
 30
0.0
 11
100.0305397597833
 21
48.022545820472708
 31
0.0
  0
LINE
  5
406
  8
0
 62
     0
 10
90.030539759783323
 20
57.423862079068073
 30
0.0
 11
88.330539759783335
 21
59.12386207906804
 31
0.0
  0
LINE
  5
407
  8
0
 62
     0
 10
96.637170900045234
 20
50.817230938806169
 30
0.0
 11
94.937170900045231
 21
52.517230938806158
 31
0.0
  0
LINE
  5
408
  8
0
 62
     0
 10
62.63717090004522
 20
84.817230938806176
 30
0.0
 11
60.937170900045281
 21
86.517230938806122
 31
0.0
  0
LINE
  5
409
  8
0
 62
     0
 10
102.0305397597833
 20
45.423862079068073
 30
0.0
 11
100.0305397597833
 21
47.423862079068101
 31
0.0
  0
LINE
  5
40A
  8
0
 62
     0
 10
90.030539759783295
 20
56.825178337663473
 30
0.0
 11
88.330539759783335
 21
58.525178337663448
 31
0.0
  0
LINE
  5
40B
  8
0
 62
     0
 10
96.038487158640606
 20
50.817230938806183
 30
0.0
 11
94.338487158640618
 21
52.517230938806151
 31
0.0
  0
LINE
  5
40C
  8
0
 62
     0
 10
62.038487158640592
 20
84.81723093880619
 30
0.0
 11
60.338487158640667
 21
86.517230938806094
 31
0.0
  0
LINE
  5
40D
  8
0
 62
     0
 10
102.0305397597833
 20
44.825178337663473
 30
0.0
 11
100.0305397597832
 21
46.825178337663502
 31
0.0
  0
LINE
  5
40E
  8
0
 62
     0
 10
90.030539759783295
 20
56.226494596258838
 30
0.0
 11
88.330539759783335
 21
57.926494596258827
 31
0.0
  0
LINE
  5
40F
  8
0
 62
     0
 10
95.439803417235993
 20
50.817230938806183
 30
0.0
 11
93.739803417236004
 21
52.517230938806158
 31
0.0
  0
LINE
  5
410
  8
0
 62
     0
 10
61.439803417235993
 20
84.817230938806176
 30
0.0
 11
59.739803417236068
 21
86.517230938806094
 31
0.0
  0
LINE
  5
411
  8
0
 62
     0
 10
102.0305397597833
 20
44.22649459625886
 30
0.0
 11
100.0305397597832
 21
46.226494596258902
 31
0.0
  0
LINE
  5
412
  8
0
 62
     0
 10
90.030539759783352
 20
55.627810854854232
 30
0.0
 11
88.330539759783349
 21
57.327810854854199
 31
0.0
  0
LINE
  5
413
  8
0
 62
     0
 10
94.841119675831365
 20
50.81723093880619
 30
0.0
 11
93.141119675831419
 21
52.517230938806158
 31
0.0
  0
LINE
  5
414
  8
0
 62
     0
 10
60.841119675831422
 20
84.817230938806148
 30
0.0
 11
59.141119675831469
 21
86.517230938806094
 31
0.0
  0
LINE
  5
415
  8
0
 62
     0
 10
102.0305397597833
 20
43.627810854854253
 30
0.0
 11
100.0305397597833
 21
45.627810854854282
 31
0.0
  0
LINE
  5
416
  8
0
 62
     0
 10
90.030539759783338
 20
55.029127113449633
 30
0.0
 11
88.330539759783349
 21
56.7291271134496
 31
0.0
  0
LINE
  5
417
  8
0
 62
     0
 10
94.242435934426766
 20
50.817230938806198
 30
0.0
 11
92.542435934426805
 21
52.517230938806158
 31
0.0
  0
LINE
  5
418
  8
0
 62
     0
 10
60.242435934426808
 20
84.817230938806176
 30
0.0
 11
58.542435934426862
 21
86.517230938806094
 31
0.0
  0
LINE
  5
419
  8
0
 62
     0
 10
102.0305397597833
 20
43.029127113449633
 30
0.0
 11
100.0305397597833
 21
45.029127113449682
 31
0.0
  0
LINE
  5
41A
  8
0
 62
     0
 10
90.030539759783338
 20
54.430443372045019
 30
0.0
 11
88.330539759783349
 21
56.130443372044986
 31
0.0
  0
LINE
  5
41B
  8
0
 62
     0
 10
93.643752193022166
 20
50.817230938806198
 30
0.0
 11
91.943752193022206
 21
52.517230938806151
 31
0.0
  0
LINE
  5
41C
  8
0
 62
     0
 10
59.643752193022181
 20
84.817230938806176
 30
0.0
 11
57.943752193022227
 21
86.517230938806122
 31
0.0
  0
LINE
  5
41D
  8
0
 62
     0
 10
102.0305397597833
 20
42.430443372045033
 30
0.0
 11
100.0305397597832
 21
44.43044337204509
 31
0.0
  0
LINE
  5
41E
  8
0
 62
     0
 10
90.030539759783338
 20
53.831759630640398
 30
0.0
 11
88.330539759783363
 21
55.531759630640359
 31
0.0
  0
LINE
  5
41F
  8
0
 62
     0
 10
93.045068451617524
 20
50.817230938806233
 30
0.0
 11
91.345068451617564
 21
52.517230938806151
 31
0.0
  0
LINE
  5
420
  8
0
 62
     0
 10
59.045068451617581
 20
84.817230938806148
 30
0.0
 11
57.345068451617642
 21
86.517230938806094
 31
0.0
  0
LINE
  5
421
  8
0
 62
     0
 10
102.0305397597833
 20
41.831759630640398
 30
0.0
 11
100.0305397597832
 21
43.83175963064047
 31
0.0
  0
LINE
  5
422
  8
0
 62
     0
 10
90.030539759783338
 20
53.233075889235792
 30
0.0
 11
88.330539759783363
 21
54.933075889235759
 31
0.0
  0
LINE
  5
423
  8
0
 62
     0
 10
92.446384710212897
 20
50.817230938806233
 30
0.0
 11
90.746384710212979
 21
52.517230938806158
 31
0.0
  0
LINE
  5
424
  8
0
 62
     0
 10
58.446384710212953
 20
84.817230938806176
 30
0.0
 11
56.746384710213029
 21
86.517230938806094
 31
0.0
  0
LINE
  5
425
  8
0
 62
     0
 10
102.0305397597833
 20
41.233075889235813
 30
0.0
 11
100.0305397597832
 21
43.23307588923587
 31
0.0
  0
LINE
  5
426
  8
0
 62
     0
 10
91.847700968808283
 20
50.817230938806233
 30
0.0
 11
88.330539759783392
 21
54.334392147831132
 31
0.0
  0
LINE
  5
427
  8
0
 62
     0
 10
57.847700968808347
 20
84.817230938806176
 30
0.0
 11
56.147700968808422
 21
86.517230938806094
 31
0.0
  0
LINE
  5
428
  8
0
 62
     0
 10
102.0305397597833
 20
40.634392147831193
 30
0.0
 11
100.0305397597832
 21
42.634392147831257
 31
0.0
  0
LINE
  5
429
  8
0
 62
     0
 10
91.249017227403641
 20
50.817230938806262
 30
0.0
 11
88.330539759783363
 21
53.735708406426532
 31
0.0
  0
LINE
  5
42A
  8
0
 62
     0
 10
57.249017227403741
 20
84.817230938806176
 30
0.0
 11
55.549017227403787
 21
86.517230938806122
 31
0.0
  0
LINE
  5
42B
  8
0
 62
     0
 10
102.0305397597833
 20
40.035708406426593
 30
0.0
 11
100.0305397597832
 21
42.035708406426679
 31
0.0
  0
LINE
  5
42C
  8
0
 62
     0
 10
90.650333485999013
 20
50.817230938806262
 30
0.0
 11
88.330539759783363
 21
53.137024665021912
 31
0.0
  0
LINE
  5
42D
  8
0
 62
     0
 10
56.83916502083445
 20
84.628399403970846
 30
0.0
 11
55.139165020834511
 21
86.328399403970792
 31
0.0
  0
LINE
  5
42E
  8
0
 62
     0
 10
102.0305397597833
 20
39.43702466502198
 30
0.0
 11
100.0305397597832
 21
41.437024665022058
 31
0.0
  0
LINE
  5
42F
  8
0
 62
     0
 10
90.051649744594428
 20
50.817230938806262
 30
0.0
 11
88.330539759783392
 21
52.538340923617298
 31
0.0
  0
LINE
  5
430
  8
0
 62
     0
 10
56.730539759783021
 20
84.138340923617676
 30
0.0
 11
55.030539759783103
 21
85.838340923617594
 31
0.0
  0
LINE
  5
431
  8
0
 62
     0
 10
102.0305397597833
 20
38.838340923617359
 30
0.0
 11
100.0305397597832
 21
40.838340923617451
 31
0.0
  0
LINE
  5
432
  8
0
 62
     0
 10
89.452966003189815
 20
50.817230938806269
 30
0.0
 11
88.330539759783392
 21
51.93965718221267
 31
0.0
  0
LINE
  5
433
  8
0
 62
     0
 10
56.730539759783049
 20
83.539657182213006
 30
0.0
 11
55.030539759783082
 21
85.239657182212994
 31
0.0
  0
LINE
  5
434
  8
0
 62
     0
 10
102.0305397597833
 20
38.23965718221276
 30
0.0
 11
100.0305397597832
 21
40.239657182212852
 31
0.0
  0
LINE
  5
435
  8
0
 62
     0
 10
88.854282261785187
 20
50.817230938806269
 30
0.0
 11
88.330539759783363
 21
51.340973440808071
 31
0.0
  0
LINE
  5
436
  8
0
 62
     0
 10
56.730539759783092
 20
82.940973440808364
 30
0.0
 11
55.030539759783082
 21
84.640973440808395
 31
0.0
  0
LINE
  5
437
  8
0
 62
     0
 10
102.0305397597833
 20
37.640973440808139
 30
0.0
 11
100.0305397597832
 21
39.640973440808253
 31
0.0
  0
LINE
  5
438
  8
0
 62
     0
 10
56.730539759783142
 20
82.342289699403736
 30
0.0
 11
55.030539759783103
 21
84.042289699403739
 31
0.0
  0
LINE
  5
439
  8
0
 62
     0
 10
102.0305397597833
 20
37.042289699403533
 30
0.0
 11
100.0305397597832
 21
39.042289699403639
 31
0.0
  0
LINE
  5
43A
  8
0
 62
     0
 10
56.553811357721003
 20
81.920334360061247
 30
0.0
 11
54.84535895246615
 21
83.628786765316065
 31
0.0
  0
LINE
  5
43B
  8
0
 62
     0
 10
102.0126014743083
 20
36.461544243473917
 30
0.0
 11
99.985437210816428
 21
38.488708506965807
 31
0.0
  0
LINE
  5
43C
  8
0
 62
     0
 10
56.058231037565562
 20
81.81723093881206
 30
0.0
 11
54.358231037571528
 21
83.517230938806108
 31
0.0
  0
LINE
  5
43D
  8
0
 62
     0
 10
101.8230999983345
 20
36.05236197804313
 30
0.0
 11
99.64691382141271
 21
38.228548154964933
 31
0.0
  0
LINE
  5
43E
  8
0
 62
     0
 10
55.459547296160949
 20
81.817230938812074
 30
0.0
 11
53.759547296166929
 21
83.517230938806094
 31
0.0
  0
LINE
  5
43F
  8
0
 62
     0
 10
101.63270965843741
 20
35.644068576535624
 30
0.0
 11
99.059547296166883
 21
38.217230938806154
 31
0.0
  0
LINE
  5
440
  8
0
 62
     0
 10
100.160950029593
 20
36.517144463975342
 30
0.0
 11
98.460863554762241
 21
38.217230938806161
 31
0.0
  0
LINE
  5
441
  8
0
 62
     0
 10
54.860863554756342
 20
81.81723093881206
 30
0.0
 11
53.160863554762308
 21
83.517230938806094
 31
0.0
  0
LINE
  5
442
  8
0
 62
     0
 10
101.4423193185403
 20
35.235775175028131
 30
0.0
 11
100.65156477242471
 21
36.026529721143717
 31
0.0
  0
LINE
  5
443
  8
0
 62
     0
 10
99.562179813357631
 20
36.517230938806172
 30
0.0
 11
97.862179813357656
 21
38.217230938806154
 31
0.0
  0
LINE
  5
444
  8
0
 62
     0
 10
54.262179813351722
 20
81.817230938812074
 30
0.0
 11
52.562179813357687
 21
83.517230938806108
 31
0.0
  0
LINE
  5
445
  8
0
 62
     0
 10
101.25192897864321
 20
34.82748177352061
 30
0.0
 11
100.49944165933741
 21
35.579969092826317
 31
0.0
  0
LINE
  5
446
  8
0
 62
     0
 10
98.963496071953045
 20
36.517230938806172
 30
0.0
 11
97.263496071953057
 21
38.217230938806161
 31
0.0
  0
LINE
  5
447
  8
0
 62
     0
 10
53.663496071947129
 20
81.817230938812074
 30
0.0
 11
51.963496071953102
 21
83.517230938806108
 31
0.0
  0
LINE
  5
448
  8
0
 62
     0
 10
101.0615386387461
 20
34.41918837201311
 30
0.0
 11
100.3090513194404
 21
35.171675691318818
 31
0.0
  0
LINE
  5
449
  8
0
 62
     0
 10
98.364812330548432
 20
36.517230938806158
 30
0.0
 11
96.664812330548429
 21
38.217230938806161
 31
0.0
  0
LINE
  5
44A
  8
0
 62
     0
 10
53.06481233054253
 20
81.817230938812074
 30
0.0
 11
51.364812330548482
 21
83.517230938806136
 31
0.0
  0
LINE
  5
44B
  8
0
 62
     0
 10
100.87114829884899
 20
34.010894970505603
 30
0.0
 11
100.11866097954319
 21
34.763382289811332
 31
0.0
  0
LINE
  5
44C
  8
0
 62
     0
 10
97.766128589143833
 20
36.517230938806172
 30
0.0
 11
96.066128589143815
 21
38.217230938806168
 31
0.0
  0
LINE
  5
44D
  8
0
 62
     0
 10
52.466128589137917
 20
81.81723093881206
 30
0.0
 11
50.766128589143861
 21
83.517230938806136
 31
0.0
  0
LINE
  5
44E
  8
0
 62
     0
 10
100.6807579589519
 20
33.602601568998097
 30
0.0
 11
99.928270639646186
 21
34.355088888303811
 31
0.0
  0
LINE
  5
44F
  8
0
 62
     0
 10
97.167444847739205
 20
36.517230938806172
 30
0.0
 11
95.467444847739216
 21
38.217230938806168
 31
0.0
  0
LINE
  5
450
  8
0
 62
     0
 10
51.86744484773331
 20
81.81723093881206
 30
0.0
 11
50.167444847739233
 21
83.517230938806136
 31
0.0
  0
LINE
  5
451
  8
0
 62
     0
 10
100.49036761905479
 20
33.19430816749059
 30
0.0
 11
99.737880299749065
 21
33.946795486796312
 31
0.0
  0
LINE
  5
452
  8
0
 62
     0
 10
96.568761106334605
 20
36.517230938806172
 30
0.0
 11
94.868761106334574
 21
38.217230938806168
 31
0.0
  0
LINE
  5
453
  8
0
 62
     0
 10
51.268761106328682
 20
81.817230938812074
 30
0.0
 11
49.56876110633462
 21
83.517230938806165
 31
0.0
  0
LINE
  5
454
  8
0
 62
     0
 10
100.2999772791576
 20
32.78601476598309
 30
0.0
 11
99.547489959851958
 21
33.538502085288798
 31
0.0
  0
LINE
  5
455
  8
0
 62
     0
 10
95.970077364929949
 20
36.517230938806179
 30
0.0
 11
94.270077364929975
 21
38.217230938806168
 31
0.0
  0
LINE
  5
456
  8
0
 62
     0
 10
50.670077364924083
 20
81.817230938812074
 30
0.0
 11
48.970077364929992
 21
83.517230938806165
 31
0.0
  0
LINE
  5
457
  8
0
 62
     0
 10
100.1095869392605
 20
32.37772136447559
 30
0.0
 11
99.357099619954852
 21
33.130208683781291
 31
0.0
  0
LINE
  5
458
  8
0
 62
     0
 10
95.371393623525364
 20
36.517230938806179
 30
0.0
 11
93.671393623525347
 21
38.217230938806182
 31
0.0
  0
LINE
  5
459
  8
0
 62
     0
 10
50.071393623519469
 20
81.817230938812074
 30
0.0
 11
48.371393623525393
 21
83.517230938806151
 31
0.0
  0
LINE
  5
45A
  8
0
 62
     0
 10
99.91919659936346
 20
31.96942796296808
 30
0.0
 11
99.166709280057745
 21
32.721915282273798
 31
0.0
  0
LINE
  5
45B
  8
0
 62
     0
 10
94.772709882120736
 20
36.517230938806179
 30
0.0
 11
93.072709882120719
 21
38.217230938806189
 31
0.0
  0
LINE
  5
45C
  8
0
 62
     0
 10
49.47270988211487
 20
81.817230938812074
 30
0.0
 11
47.772709882120758
 21
83.517230938806165
 31
0.0
  0
LINE
  5
45D
  8
0
 62
     0
 10
99.728806259466353
 20
31.56113456146057
 30
0.0
 11
98.976318940160652
 21
32.313621880766291
 31
0.0
  0
LINE
  5
45E
  8
0
 62
     0
 10
94.174026140716123
 20
36.517230938806193
 30
0.0
 11
92.47402614071612
 21
38.217230938806189
 31
0.0
  0
LINE
  5
45F
  8
0
 62
     0
 10
48.874026140710242
 20
81.817230938812074
 30
0.0
 11
46.940718985758053
 21
83.750538093764263
 31
0.0
  0
LINE
  5
460
  8
0
 62
     0
 10
99.538415919569246
 20
31.152841159953059
 30
0.0
 11
98.785928600263532
 21
31.905328479258781
 31
0.0
  0
LINE
  5
461
  8
0
 62
     0
 10
93.575342399311523
 20
36.517230938806172
 30
0.0
 11
91.875342399311506
 21
38.217230938806203
 31
0.0
  0
LINE
  5
462
  8
0
 62
     0
 10
48.275342399305629
 20
81.817230938812074
 30
0.0
 11
46.575342399306848
 21
83.517230938810854
 31
0.0
  0
LINE
  5
463
  8
0
 62
     0
 10
99.348025579672154
 20
30.74454775844556
 30
0.0
 11
98.595538260366425
 21
31.49703507775126
 31
0.0
  0
LINE
  5
464
  8
0
 62
     0
 10
88.730539759783198
 20
40.763349836929891
 30
0.0
 11
88.276658657906879
 21
41.217230938806203
 31
0.0
  0
LINE
  5
465
  8
0
 62
     0
 10
92.976658657906896
 20
36.517230938806179
 30
0.0
 11
91.276658657906893
 21
38.217230938806182
 31
0.0
  0
LINE
  5
466
  8
0
 62
     0
 10
47.676658657901008
 20
81.817230938812074
 30
0.0
 11
45.82682251355331
 21
83.667067083159779
 31
0.0
  0
LINE
  5
467
  8
0
 62
     0
 10
99.157635239775033
 20
30.33625435693806
 30
0.0
 11
98.405147920469304
 21
31.08874167624376
 31
0.0
  0
LINE
  5
468
  8
0
 62
     0
 10
88.730539759783198
 20
40.16466609552527
 30
0.0
 11
87.677974916502265
 21
41.217230938806189
 31
0.0
  0
LINE
  5
469
  8
0
 62
     0
 10
92.377974916502282
 20
36.517230938806193
 30
0.0
 11
90.677974916502279
 21
38.217230938806203
 31
0.0
  0
LINE
  5
46A
  8
0
 62
     0
 10
47.077974916496423
 20
81.81723093881206
 30
0.0
 11
45.377974916494942
 21
83.517230938813526
 31
0.0
  0
LINE
  5
46B
  8
0
 62
     0
 10
98.967244899877926
 20
29.927960955430539
 30
0.0
 11
98.214757580572211
 21
30.680448274736261
 31
0.0
  0
LINE
  5
46C
  8
0
 62
     0
 10
88.730539759783198
 20
39.565982354120663
 30
0.0
 11
87.079291175097651
 21
41.217230938806203
 31
0.0
  0
LINE
  5
46D
  8
0
 62
     0
 10
91.779291175097669
 20
36.517230938806193
 30
0.0
 11
90.079291175097666
 21
38.21723093880621
 31
0.0
  0
LINE
  5
46E
  8
0
 62
     0
 10
46.479291175091802
 20
81.81723093881206
 30
0.0
 11
44.779291175090492
 21
83.517230938813384
 31
0.0
  0
LINE
  5
46F
  8
0
 62
     0
 10
98.776854559980833
 20
29.519667553923039
 30
0.0
 11
98.024367240675105
 21
30.27215487322875
 31
0.0
  0
LINE
  5
470
  8
0
 62
     0
 10
88.730539759783198
 20
38.96729861271605
 30
0.0
 11
86.480607433693038
 21
41.217230938806203
 31
0.0
  0
LINE
  5
471
  8
0
 62
     0
 10
91.180607433693069
 20
36.517230938806193
 30
0.0
 11
89.480607433693024
 21
38.21723093880621
 31
0.0
  0
LINE
  5
472
  8
0
 62
     0
 10
45.880607433687167
 20
81.817230938812074
 30
0.0
 11
44.180607433686028
 21
83.517230938813213
 31
0.0
  0
LINE
  5
473
  8
0
 62
     0
 10
98.586464220083712
 20
29.111374152415539
 30
0.0
 11
97.833976900778012
 21
29.86386147172125
 31
0.0
  0
LINE
  5
474
  8
0
 62
     0
 10
90.581923692288427
 20
36.517230938806208
 30
0.0
 11
85.881923692288439
 21
41.217230938806203
 31
0.0
  0
LINE
  5
475
  8
0
 62
     0
 10
45.281923692282568
 20
81.817230938812074
 30
0.0
 11
43.581923692281578
 21
83.517230938813086
 31
0.0
  0
LINE
  5
476
  8
0
 62
     0
 10
98.396073880186606
 20
28.70308075090804
 30
0.0
 11
97.643586560880905
 21
29.45556807021374
 31
0.0
  0
LINE
  5
477
  8
0
 62
     0
 10
89.983239950883814
 20
36.517230938806193
 30
0.0
 11
85.283239950883811
 21
41.217230938806203
 31
0.0
  0
LINE
  5
478
  8
0
 62
     0
 10
44.683239950877947
 20
81.817230938812074
 30
0.0
 11
42.983239950877099
 21
83.517230938812929
 31
0.0
  0
LINE
  5
479
  8
0
 62
     0
 10
98.205683540289485
 20
28.294787349400529
 30
0.0
 11
97.453196220983799
 21
29.04727466870623
 31
0.0
  0
LINE
  5
47A
  8
0
 62
     0
 10
86.384556209479214
 20
39.517230938806222
 30
0.0
 11
84.684556209479211
 21
41.217230938806203
 31
0.0
  0
LINE
  5
47B
  8
0
 62
     0
 10
89.384556209479214
 20
36.5172309388062
 30
0.0
 11
87.030539759783295
 21
38.87124738850212
 31
0.0
  0
LINE
  5
47C
  8
0
 62
     0
 10
44.084556209473362
 20
81.817230938812074
 30
0.0
 11
42.384556209472649
 21
83.517230938812773
 31
0.0
  0
LINE
  5
47D
  8
0
 62
     0
 10
98.015293200392392
 20
27.886493947893019
 30
0.0
 11
97.262805881086678
 21
28.63898126719873
 31
0.0
  0
LINE
  5
47E
  8
0
 62
     0
 10
85.785872468074601
 20
39.517230938806229
 30
0.0
 11
84.085872468074626
 21
41.21723093880621
 31
0.0
  0
LINE
  5
47F
  8
0
 62
     0
 10
88.785872468074615
 20
36.517230938806208
 30
0.0
 11
87.030539759783323
 21
38.272563647097499
 31
0.0
  0
LINE
  5
480
  8
0
 62
     0
 10
43.485872468068763
 20
81.817230938812074
 30
0.0
 11
41.78587246806822
 21
83.517230938812617
 31
0.0
  0
LINE
  5
481
  8
0
 62
     0
 10
97.824902860495314
 20
27.478200546385519
 30
0.0
 11
97.072415541189613
 21
28.23068786569122
 31
0.0
  0
LINE
  5
482
  8
0
 62
     0
 10
85.187188726669987
 20
39.517230938806222
 30
0.0
 11
83.487188726670013
 21
41.217230938806203
 31
0.0
  0
LINE
  5
483
  8
0
 62
     0
 10
42.887188726664142
 20
81.817230938812074
 30
0.0
 11
41.187188726663763
 21
83.517230938812446
 31
0.0
  0
LINE
  5
484
  8
0
 62
     0
 10
88.187188726670044
 20
36.517230938806193
 30
0.0
 11
87.030539759783323
 21
37.6738799056929
 31
0.0
  0
LINE
  5
485
  8
0
 62
     0
 10
39.030539759784247
 20
85.673879905691976
 30
0.0
 11
38.187188726670087
 21
86.517230938806136
 31
0.0
  0
LINE
  5
486
  8
0
 62
     0
 10
97.634512520598207
 20
27.06990714487802
 30
0.0
 11
96.882025201292521
 21
27.822394464183709
 31
0.0
  0
LINE
  5
487
  8
0
 62
     0
 10
84.588504985265388
 20
39.517230938806222
 30
0.0
 11
82.888504985265399
 21
41.217230938806203
 31
0.0
  0
LINE
  5
488
  8
0
 62
     0
 10
42.288504985259529
 20
81.817230938812074
 30
0.0
 11
40.58850498525927
 21
83.517230938812332
 31
0.0
  0
LINE
  5
489
  8
0
 62
     0
 10
87.588504985265388
 20
36.517230938806208
 30
0.0
 11
87.030539759783323
 21
37.075196164288272
 31
0.0
  0
LINE
  5
48A
  8
0
 62
     0
 10
39.030539759784233
 20
85.075196164287377
 30
0.0
 11
37.588504985265459
 21
86.517230938806151
 31
0.0
  0
LINE
  5
48B
  8
0
 62
     0
 10
97.4441221807011
 20
26.661613743370509
 30
0.0
 11
96.6916348613954
 21
27.41410106267621
 31
0.0
  0
LINE
  5
48C
  8
0
 62
     0
 10
41.689821243854929
 20
81.81723093881206
 30
0.0
 11
39.989821243854827
 21
83.517230938812176
 31
0.0
  0
LINE
  5
48D
  8
0
 62
     0
 10
83.989821243860774
 20
39.517230938806222
 30
0.0
 11
82.289821243860786
 21
41.217230938806217
 31
0.0
  0
LINE
  5
48E
  8
0
 62
     0
 10
39.030539759784219
 20
84.476512422882777
 30
0.0
 11
36.989821243860838
 21
86.517230938806165
 31
0.0
  0
LINE
  5
48F
  8
0
 62
     0
 10
97.253731840803994
 20
26.253320341862999
 30
0.0
 11
96.501244521498279
 21
27.00580766116871
 31
0.0
  0
LINE
  5
490
  8
0
 62
     0
 10
41.091137502450323
 20
81.81723093881206
 30
0.0
 11
39.361806138644774
 21
83.546562302617616
 31
0.0
  0
LINE
  5
491
  8
0
 62
     0
 10
83.391137502456161
 20
39.517230938806222
 30
0.0
 11
81.691137502456144
 21
41.217230938806232
 31
0.0
  0
LINE
  5
492
  8
0
 62
     0
 10
39.059871123589758
 20
83.848497317672638
 30
0.0
 11
36.391137502456253
 21
86.517230938806136
 31
0.0
  0
LINE
  5
493
  8
0
 62
     0
 10
97.063341500906901
 20
25.845026940355488
 30
0.0
 11
96.310854181601186
 21
26.5975142596612
 31
0.0
  0
LINE
  5
494
  8
0
 62
     0
 10
82.792453761051547
 20
39.517230938806222
 30
0.0
 11
81.092453761051544
 21
41.217230938806239
 31
0.0
  0
LINE
  5
495
  8
0
 62
     0
 10
40.492453761045688
 20
81.817230938812074
 30
0.0
 11
35.792453761051618
 21
86.517230938806165
 31
0.0
  0
LINE
  5
496
  8
0
 62
     0
 10
96.87295116100978
 20
25.436733538847989
 30
0.0
 11
96.120463841704094
 21
26.189220858153689
 31
0.0
  0
LINE
  5
497
  8
0
 62
     0
 10
39.893770019641103
 20
81.817230938812074
 30
0.0
 11
37.325913909627829
 21
84.385087048825355
 31
0.0
  0
LINE
  5
498
  8
0
 62
     0
 10
82.193770019646934
 20
39.517230938806222
 30
0.0
 11
80.493770019646931
 21
41.217230938806217
 31
0.0
  0
LINE
  5
499
  8
0
 62
     0
 10
36.89839586980348
 20
84.812605088649676
 30
0.0
 11
35.193770019647019
 21
86.517230938806151
 31
0.0
  0
LINE
  5
49A
  8
0
 62
     0
 10
96.682560821112673
 20
25.028440137340489
 30
0.0
 11
95.930073501806959
 21
25.780927456646189
 31
0.0
  0
LINE
  5
49B
  8
0
 62
     0
 10
39.295086278236496
 20
81.81723093881206
 30
0.0
 11
37.330539759784394
 21
83.781777457264155
 31
0.0
  0
LINE
  5
49C
  8
0
 62
     0
 10
81.595086278242334
 20
39.517230938806222
 30
0.0
 11
79.895086278242331
 21
41.21723093880621
 31
0.0
  0
LINE
  5
49D
  8
0
 62
     0
 10
36.295086278242273
 20
84.817230938806304
 30
0.0
 11
34.595086278242412
 21
86.517230938806165
 31
0.0
  0
LINE
  5
49E
  8
0
 62
     0
 10
96.492170481215567
 20
24.620146735832972
 30
0.0
 11
95.739683161909852
 21
25.37263405513869
 31
0.0
  0
LINE
  5
49F
  8
0
 62
     0
 10
38.696402536831869
 20
81.817230938812074
 30
0.0
 11
37.330539759784358
 21
83.183093715859584
 31
0.0
  0
LINE
  5
4A0
  8
0
 62
     0
 10
80.996402536837707
 20
39.517230938806229
 30
0.0
 11
79.296402536837704
 21
41.217230938806217
 31
0.0
  0
LINE
  5
4A1
  8
0
 62
     0
 10
35.696402536837653
 20
84.817230938806304
 30
0.0
 11
33.996402536837778
 21
86.517230938806165
 31
0.0
  0
LINE
  5
4A2
  8
0
 62
     0
 10
96.301780141318474
 20
24.211853334325461
 30
0.0
 11
95.549292822012774
 21
24.964340653631179
 31
0.0
  0
LINE
  5
4A3
  8
0
 62
     0
 10
38.097718795427262
 20
81.817230938812074
 30
0.0
 11
37.33053975978433
 21
82.584409974455014
 31
0.0
  0
LINE
  5
4A4
  8
0
 62
     0
 10
80.397718795433121
 20
39.517230938806222
 30
0.0
 11
78.697718795433104
 21
41.217230938806217
 31
0.0
  0
LINE
  5
4A5
  8
0
 62
     0
 10
35.097718795433053
 20
84.817230938806276
 30
0.0
 11
33.397718795433178
 21
86.517230938806151
 31
0.0
  0
LINE
  5
4A6
  8
0
 62
     0
 10
96.111389801421353
 20
23.803559932817969
 30
0.0
 11
95.358902482115667
 21
24.556047252123669
 31
0.0
  0
LINE
  5
4A7
  8
0
 62
     0
 10
79.799035054028508
 20
39.517230938806208
 30
0.0
 11
78.099035054028491
 21
41.217230938806217
 31
0.0
  0
LINE
  5
4A8
  8
0
 62
     0
 10
34.49903505402844
 20
84.817230938806276
 30
0.0
 11
32.799035054028579
 21
86.517230938806136
 31
0.0
  0
LINE
  5
4A9
  8
0
 62
     0
 10
95.920999461524246
 20
23.395266531310469
 30
0.0
 11
95.168512142218574
 21
24.147753850616159
 31
0.0
  0
LINE
  5
4AA
  8
0
 62
     0
 10
79.200351312623894
 20
39.517230938806222
 30
0.0
 11
77.500351312623863
 21
41.217230938806232
 31
0.0
  0
LINE
  5
4AB
  8
0
 62
     0
 10
33.900351312623812
 20
84.817230938806304
 30
0.0
 11
32.200351312623951
 21
86.517230938806165
 31
0.0
  0
LINE
  5
4AC
  8
0
 62
     0
 10
95.730609121627154
 20
22.986973129802958
 30
0.0
 11
94.978121802321454
 21
23.739460449108659
 31
0.0
  0
LINE
  5
4AD
  8
0
 62
     0
 10
78.601667571219267
 20
39.517230938806222
 30
0.0
 11
76.901667571219249
 21
41.217230938806239
 31
0.0
  0
LINE
  5
4AE
  8
0
 62
     0
 10
33.301667571219198
 20
84.817230938806304
 30
0.0
 11
31.601667571219341
 21
86.517230938806165
 31
0.0
  0
LINE
  5
4AF
  8
0
 62
     0
 10
95.540218781730047
 20
22.578679728295441
 30
0.0
 11
94.787731462424333
 21
23.331167047601159
 31
0.0
  0
LINE
  5
4B0
  8
0
 62
     0
 10
78.002983829814653
 20
39.517230938806222
 30
0.0
 11
76.30298382981465
 21
41.217230938806239
 31
0.0
  0
LINE
  5
4B1
  8
0
 62
     0
 10
32.702983829814599
 20
84.817230938806304
 30
0.0
 11
31.002983829814742
 21
86.517230938806165
 31
0.0
  0
LINE
  5
4B2
  8
0
 62
     0
 10
95.349828441832926
 20
22.170386326787948
 30
0.0
 11
94.597341122527226
 21
22.922873646093642
 31
0.0
  0
LINE
  5
4B3
  8
0
 62
     0
 10
77.404300088410039
 20
39.517230938806222
 30
0.0
 11
75.704300088410037
 21
41.217230938806239
 31
0.0
  0
LINE
  5
4B4
  8
0
 62
     0
 10
32.10430008841
 20
84.817230938806304
 30
0.0
 11
30.404300088410139
 21
86.517230938806151
 31
0.0
  0
LINE
  5
4B5
  8
0
 62
     0
 10
95.159438101935805
 20
21.762092925280442
 30
0.0
 11
94.406950782630105
 21
22.514580244586149
 31
0.0
  0
LINE
  5
4B6
  8
0
 62
     0
 10
76.80561634700544
 20
39.517230938806208
 30
0.0
 11
75.105616347005409
 21
41.217230938806239
 31
0.0
  0
LINE
  5
4B7
  8
0
 62
     0
 10
31.505616347005368
 20
84.817230938806304
 30
0.0
 11
29.805616347005511
 21
86.517230938806151
 31
0.0
  0
LINE
  5
4B8
  8
0
 62
     0
 10
94.969047762038713
 20
21.353799523772931
 30
0.0
 11
94.216560442732998
 21
22.106286843078649
 31
0.0
  0
LINE
  5
4B9
  8
0
 62
     0
 10
76.206932605600826
 20
39.517230938806222
 30
0.0
 11
74.506932605600809
 21
41.217230938806239
 31
0.0
  0
LINE
  5
4BA
  8
0
 62
     0
 10
30.906932605600758
 20
84.817230938806304
 30
0.0
 11
29.206932605600901
 21
86.517230938806165
 31
0.0
  0
LINE
  5
4BB
  8
0
 62
     0
 10
94.778657422141606
 20
20.945506122265421
 30
0.0
 11
94.026170102835906
 21
21.697993441571139
 31
0.0
  0
LINE
  5
4BC
  8
0
 62
     0
 10
75.608248864196256
 20
39.517230938806208
 30
0.0
 11
73.90824886419621
 21
41.217230938806253
 31
0.0
  0
LINE
  5
4BD
  8
0
 62
     0
 10
30.30824886419618
 20
84.817230938806304
 30
0.0
 11
28.608248864196302
 21
86.517230938806165
 31
0.0
  0
LINE
  5
4BE
  8
0
 62
     0
 10
94.588267082244528
 20
20.537212720757921
 30
0.0
 11
93.835779762938827
 21
21.289700040063622
 31
0.0
  0
LINE
  5
4BF
  8
0
 62
     0
 10
75.009565122791628
 20
39.517230938806222
 30
0.0
 11
73.309565122791611
 21
41.217230938806239
 31
0.0
  0
LINE
  5
4C0
  8
0
 62
     0
 10
29.70956512279157
 20
84.817230938806276
 30
0.0
 11
28.009565122791699
 21
86.517230938806151
 31
0.0
  0
LINE
  5
4C1
  8
0
 62
     0
 10
94.397876742347407
 20
20.128919319250421
 30
0.0
 11
93.645389423041721
 21
20.881406638556129
 31
0.0
  0
LINE
  5
4C2
  8
0
 62
     0
 10
74.410881381387014
 20
39.517230938806222
 30
0.0
 11
72.710881381386983
 21
41.217230938806239
 31
0.0
  0
LINE
  5
4C3
  8
0
 62
     0
 10
29.11088138138696
 20
84.817230938806304
 30
0.0
 11
27.4108813813871
 21
86.517230938806136
 31
0.0
  0
LINE
  5
4C4
  8
0
 62
     0
 10
94.207486402450314
 20
19.720625917742911
 30
0.0
 11
93.454999083144628
 21
20.473113237048619
 31
0.0
  0
LINE
  5
4C5
  8
0
 62
     0
 10
73.812197639982415
 20
39.517230938806222
 30
0.0
 11
72.112197639982384
 21
41.217230938806232
 31
0.0
  0
LINE
  5
4C6
  8
0
 62
     0
 10
28.512197639982329
 20
84.817230938806304
 30
0.0
 11
26.812197639982472
 21
86.517230938806165
 31
0.0
  0
LINE
  5
4C7
  8
0
 62
     0
 10
94.017096062553208
 20
19.312332516235411
 30
0.0
 11
93.264608743247507
 21
20.064819835541108
 31
0.0
  0
LINE
  5
4C8
  8
0
 62
     0
 10
73.213513898577801
 20
39.517230938806222
 30
0.0
 11
71.51351389857777
 21
41.217230938806239
 31
0.0
  0
LINE
  5
4C9
  8
0
 62
     0
 10
27.913513898577719
 20
84.817230938806304
 30
0.0
 11
26.213513898577862
 21
86.517230938806165
 31
0.0
  0
LINE
  5
4CA
  8
0
 62
     0
 10
93.826705722656115
 20
18.90403911472789
 30
0.0
 11
93.074218403350415
 21
19.656526434033601
 31
0.0
  0
LINE
  5
4CB
  8
0
 62
     0
 10
72.614830157173188
 20
39.517230938806222
 30
0.0
 11
70.914830157173157
 21
41.217230938806253
 31
0.0
  0
LINE
  5
4CC
  8
0
 62
     0
 10
27.314830157173141
 20
84.817230938806276
 30
0.0
 11
25.614830157173259
 21
86.517230938806165
 31
0.0
  0
LINE
  5
4CD
  8
0
 62
     0
 10
93.636315382759008
 20
18.495745713220391
 30
0.0
 11
92.883828063453294
 21
19.248233032526091
 31
0.0
  0
LINE
  5
4CE
  8
0
 62
     0
 10
72.01614641576856
 20
39.517230938806222
 30
0.0
 11
70.316146415768543
 21
41.217230938806253
 31
0.0
  0
LINE
  5
4CF
  8
0
 62
     0
 10
26.71614641576852
 20
84.817230938806304
 30
0.0
 11
25.016146415768659
 21
86.517230938806151
 31
0.0
  0
LINE
  5
4D0
  8
0
 62
     0
 10
93.445925042861901
 20
18.087452311712891
 30
0.0
 11
92.693437723556201
 21
18.839939631018591
 31
0.0
  0
LINE
  5
4D1
  8
0
 62
     0
 10
71.428074427912705
 20
39.506619185257478
 30
0.0
 11
69.719780254750134
 21
41.21491335842002
 31
0.0
  0
LINE
  5
4D2
  8
0
 62
     0
 10
26.1174626743639
 20
84.817230938806304
 30
0.0
 11
24.417462674364032
 21
86.517230938806151
 31
0.0
  0
LINE
  5
4D3
  8
0
 62
     0
 10
93.255534702964781
 20
17.679158910205391
 30
0.0
 11
92.50304738365908
 21
18.431646229511092
 31
0.0
  0
LINE
  5
4D4
  8
0
 62
     0
 10
71.087332593718116
 20
39.248677278047452
 30
0.0
 11
69.383848061867369
 21
40.9521618098982
 31
0.0
  0
LINE
  5
4D5
  8
0
 62
     0
 10
25.51877893295929
 20
84.817230938806276
 30
0.0
 11
23.818778932959422
 21
86.517230938806165
 31
0.0
  0
LINE
  5
4D6
  8
0
 62
     0
 10
93.065144363067674
 20
17.27086550869787
 30
0.0
 11
92.312657043761973
 21
18.023352828003581
 31
0.0
  0
LINE
  5
4D7
  8
0
 62
     0
 10
71.030539759783665
 20
38.706786370577291
 30
0.0
 11
69.330539759783733
 21
40.406786370577223
 31
0.0
  0
LINE
  5
4D8
  8
0
 62
     0
 10
24.920095191554658
 20
84.817230938806304
 30
0.0
 11
23.24374623025918
 21
86.493579900101778
 31
0.0
  0
LINE
  5
4D9
  8
0
 62
     0
 10
92.874754023170567
 20
16.862572107190381
 30
0.0
 11
92.122266703864881
 21
17.615059426496071
 31
0.0
  0
LINE
  5
4DA
  8
0
 62
     0
 10
71.03053975978365
 20
38.108102629172677
 30
0.0
 11
69.330539759783733
 21
39.808102629172623
 31
0.0
  0
LINE
  5
4DB
  8
0
 62
     0
 10
24.462069749897768
 20
84.676572639058577
 30
0.0
 11
22.932232356605379
 21
86.206410032350959
 31
0.0
  0
LINE
  5
4DC
  8
0
 62
     0
 10
92.684363683273475
 20
16.45427870568286
 30
0.0
 11
91.931876363967774
 21
17.206766024988571
 31
0.0
  0
LINE
  5
4DD
  8
0
 62
     0
 10
71.03053975978365
 20
37.509418887768071
 30
0.0
 11
69.330539759783719
 21
39.209418887768003
 31
0.0
  0
LINE
  5
4DE
  8
0
 62
     0
 10
24.246816655319741
 20
84.293141992231995
 30
0.0
 11
22.741842016708318
 21
85.798116630843424
 31
0.0
  0
LINE
  5
4DF
  8
0
 62
     0
 10
92.493973343376354
 20
16.04598530417536
 30
0.0
 11
91.741486024070667
 21
16.798472623481061
 31
0.0
  0
LINE
  5
4E0
  8
0
 62
     0
 10
71.021041092767504
 20
36.920233813379618
 30
0.0
 11
69.321041092767629
 21
38.620233813379478
 31
0.0
  0
LINE
  5
4E1
  8
0
 62
     0
 10
24.056426315422669
 20
83.884848590724474
 30
0.0
 11
22.551451676811261
 21
85.38982322933586
 31
0.0
  0
LINE
  5
4E2
  8
0
 62
     0
 10
92.303583003479261
 20
15.63769190266785
 30
0.0
 11
91.551095684173575
 21
16.39017922197355
 31
0.0
  0
LINE
  5
4E3
  8
0
 62
     0
 10
70.766292038314674
 20
36.576299126427841
 30
0.0
 11
69.066292038314856
 21
38.276299126427659
 31
0.0
  0
LINE
  5
4E4
  8
0
 62
     0
 10
23.866035975525609
 20
83.476555189216896
 30
0.0
 11
22.36106133691418
 21
84.981529827828325
 31
0.0
  0
LINE
  5
4E5
  8
0
 62
     0
 10
92.113192663582154
 20
15.229398501160359
 30
0.0
 11
91.360705344276454
 21
15.981885820466051
 31
0.0
  0
LINE
  5
4E6
  8
0
 62
     0
 10
70.22667648453168
 20
36.517230938806222
 30
0.0
 11
68.526676484531635
 21
38.217230938806267
 31
0.0
  0
LINE
  5
4E7
  8
0
 62
     0
 10
23.675645635628531
 20
83.068261787709375
 30
0.0
 11
22.170670997017108
 21
84.57323642632079
 31
0.0
  0
LINE
  5
4E8
  8
0
 62
     0
 10
91.922802323685033
 20
14.821105099652851
 30
0.0
 11
91.170315004379347
 21
15.57359241895854
 31
0.0
  0
LINE
  5
4E9
  8
0
 62
     0
 10
69.627992743127066
 20
36.517230938806222
 30
0.0
 11
67.927992743127021
 21
38.217230938806267
 31
0.0
  0
LINE
  5
4EA
  8
0
 62
     0
 10
23.485255295731459
 20
82.659968386201825
 30
0.0
 11
21.98028065712003
 21
84.164943024813255
 31
0.0
  0
LINE
  5
4EB
  8
0
 62
     0
 10
91.732411983787955
 20
14.41281169814533
 30
0.0
 11
90.979924664482226
 21
15.165299017451041
 31
0.0
  0
LINE
  5
4EC
  8
0
 62
     0
 10
69.029309001722424
 20
36.517230938806243
 30
0.0
 11
67.329309001722422
 21
38.21723093880626
 31
0.0
  0
LINE
  5
4ED
  8
0
 62
     0
 10
23.294864955834399
 20
82.251674984694276
 30
0.0
 11
21.789890317222969
 21
83.756649623305705
 31
0.0
  0
LINE
  5
4EE
  8
0
 62
     0
 10
91.542021643890834
 20
14.00451829663783
 30
0.0
 11
90.789534324585134
 21
14.75700561594353
 31
0.0
  0
LINE
  5
4EF
  8
0
 62
     0
 10
68.430625260317854
 20
36.517230938806222
 30
0.0
 11
66.730625260317822
 21
38.21723093880626
 31
0.0
  0
LINE
  5
4F0
  8
0
 62
     0
 10
23.104474615937331
 20
81.843381583186755
 30
0.0
 11
21.599499977325952
 21
83.348356221798156
 31
0.0
  0
LINE
  5
4F1
  8
0
 62
     0
 10
91.351631303993756
 20
13.59622489513033
 30
0.0
 11
90.599143984688055
 21
14.348712214436031
 31
0.0
  0
LINE
  5
4F2
  8
0
 62
     0
 10
67.831941518913254
 20
36.517230938806229
 30
0.0
 11
66.131941518913223
 21
38.21723093880626
 31
0.0
  0
LINE
  5
4F3
  8
0
 62
     0
 10
22.914084276040288
 20
81.435088181679191
 30
0.0
 11
21.409109637428859
 21
82.94006282029062
 31
0.0
  0
LINE
  5
4F4
  8
0
 62
     0
 10
91.161240964096649
 20
13.18793149362283
 30
0.0
 11
90.408753644790949
 21
13.940418812928529
 31
0.0
  0
LINE
  5
4F5
  8
0
 62
     0
 10
67.233257777508626
 20
36.51723093880625
 30
0.0
 11
65.533257777508624
 21
38.217230938806239
 31
0.0
  0
LINE
  5
4F6
  8
0
 62
     0
 10
22.723693936143199
 20
81.026794780171656
 30
0.0
 11
21.218719297531809
 21
82.531769418783085
 31
0.0
  0
LINE
  5
4F7
  8
0
 62
     0
 10
90.970850624199556
 20
12.77963809211532
 30
0.0
 11
90.218363304893856
 21
13.532125411420999
 31
0.0
  0
LINE
  5
4F8
  8
0
 62
     0
 10
66.634574036103999
 20
36.51723093880625
 30
0.0
 11
64.93457403610401
 21
38.217230938806239
 31
0.0
  0
LINE
  5
4F9
  8
0
 62
     0
 10
22.533303596246139
 20
80.618501378664135
 30
0.0
 11
21.028328957634741
 21
82.123476017275522
 31
0.0
  0
LINE
  5
4FA
  8
0
 62
     0
 10
90.780460284302407
 20
12.37134469060782
 30
0.0
 11
90.027972964996735
 21
13.1238320099135
 31
0.0
  0
LINE
  5
4FB
  8
0
 62
     0
 10
66.035890294699385
 20
36.517230938806257
 30
0.0
 11
64.335890294699396
 21
38.217230938806239
 31
0.0
  0
LINE
  5
4FC
  8
0
 62
     0
 10
22.342913256349089
 20
80.210207977156571
 30
0.0
 11
20.83793861773767
 21
81.715182615768001
 31
0.0
  0
LINE
  5
4FD
  8
0
 62
     0
 10
90.590069944405315
 20
11.963051289100321
 30
0.0
 11
89.837582625099628
 21
12.715538608406
 31
0.0
  0
LINE
  5
4FE
  8
0
 62
     0
 10
65.437206553294772
 20
36.517230938806257
 30
0.0
 11
63.737206553294797
 21
38.217230938806239
 31
0.0
  0
LINE
  5
4FF
  8
0
 62
     0
 10
22.152522916452
 20
79.801914575649036
 30
0.0
 11
20.647548277840599
 21
81.306889214260437
 31
0.0
  0
LINE
  5
500
  8
0
 62
     0
 10
90.399679604508208
 20
11.55475788759281
 30
0.0
 11
89.647192285202522
 21
12.3072452068985
 31
0.0
  0
LINE
  5
501
  8
0
 62
     0
 10
64.838522811890144
 20
36.51723093880625
 30
0.0
 11
63.138522811890176
 21
38.217230938806239
 31
0.0
  0
LINE
  5
502
  8
0
 62
     0
 10
21.962132576554922
 20
79.393621174141501
 30
0.0
 11
20.457157937943538
 21
80.898595812752887
 31
0.0
  0
LINE
  5
503
  8
0
 62
     0
 10
90.209289264611101
 20
11.146464486085311
 30
0.0
 11
89.456801945305429
 21
11.898951805390981
 31
0.0
  0
LINE
  5
504
  8
0
 62
     0
 10
64.239839070485544
 20
36.517230938806257
 30
0.0
 11
62.53983907048557
 21
38.217230938806239
 31
0.0
  0
LINE
  5
505
  8
0
 62
     0
 10
21.771742236657861
 20
78.985327772633951
 30
0.0
 11
20.266767598046432
 21
80.490302411245395
 31
0.0
  0
LINE
  5
506
  8
0
 62
     0
 10
90.018898924714009
 20
10.73817108457779
 30
0.0
 11
89.266411605408322
 21
11.490658403883479
 31
0.0
  0
LINE
  5
507
  8
0
 62
     0
 10
63.641155329080931
 20
36.517230938806257
 30
0.0
 11
61.941155329080971
 21
38.217230938806232
 31
0.0
  0
LINE
  5
508
  8
0
 62
     0
 10
21.581351896760811
 20
78.577034371126402
 30
0.0
 11
20.076377258149389
 21
80.082009009737817
 31
0.0
  0
LINE
  5
509
  8
0
 62
     0
 10
89.828508584816902
 20
10.329877683070279
 30
0.0
 11
89.076021265511216
 21
11.082365002375971
 31
0.0
  0
LINE
  5
50A
  8
0
 62
     0
 10
63.042471587676303
 20
36.517230938806257
 30
0.0
 11
61.34247158767635
 21
38.217230938806232
 31
0.0
  0
LINE
  5
50B
  8
0
 62
     0
 10
21.39096155686374
 20
78.168740969618852
 30
0.0
 11
19.885986918252311
 21
79.673715608230282
 31
0.0
  0
LINE
  5
50C
  8
0
 62
     0
 10
89.638118244919795
 20
9.9215842815627795
 30
0.0
 11
88.885630925614095
 21
10.674071600868469
 31
0.0
  0
LINE
  5
50D
  8
0
 62
     0
 10
62.443787846271697
 20
36.517230938806271
 30
0.0
 11
60.743787846271751
 21
38.217230938806232
 31
0.0
  0
LINE
  5
50E
  8
0
 62
     0
 10
21.200571216966669
 20
77.760447568111303
 30
0.0
 11
19.69559657835525
 21
79.265422206722704
 31
0.0
  0
LINE
  5
50F
  8
0
 62
     0
 10
89.447727905022674
 20
9.5132908800552798
 30
0.0
 11
88.695240585716974
 21
10.26577819936097
 31
0.0
  0
LINE
  5
510
  8
0
 62
     0
 10
61.845104104867083
 20
36.517230938806293
 30
0.0
 11
60.14510410486713
 21
38.217230938806217
 31
0.0
  0
LINE
  5
511
  8
0
 62
     0
 10
21.010180877069601
 20
77.352154166603782
 30
0.0
 11
19.505206238458179
 21
78.857128805215183
 31
0.0
  0
LINE
  5
512
  8
0
 62
     0
 10
89.257337565125553
 20
9.1049974785477801
 30
0.0
 11
88.504850245819895
 21
9.8574847978534521
 31
0.0
  0
LINE
  5
513
  8
0
 62
     0
 10
61.246420363462462
 20
36.517230938806279
 30
0.0
 11
59.546420363462531
 21
38.21723093880621
 31
0.0
  0
LINE
  5
514
  8
0
 62
     0
 10
20.819790537172508
 20
76.943860765096247
 30
0.0
 11
19.314815898561111
 21
78.448835403707648
 31
0.0
  0
LINE
  5
515
  8
0
 62
     0
 10
89.066947225228461
 20
8.6967040770402804
 30
0.0
 11
88.314459905922774
 21
9.4491913963459595
 31
0.0
  0
LINE
  5
516
  8
0
 62
     0
 10
56.730539759783099
 20
40.434427801081029
 30
0.0
 11
55.947736622063779
 21
41.217230938800348
 31
0.0
  0
LINE
  5
517
  8
0
 62
     0
 10
60.647736622057849
 20
36.517230938806293
 30
0.0
 11
58.947736622057917
 21
38.217230938806232
 31
0.0
  0
LINE
  5
518
  8
0
 62
     0
 10
20.629400197275459
 20
76.535567363588683
 30
0.0
 11
19.12442555866404
 21
78.040542002200098
 31
0.0
  0
LINE
  5
519
  8
0
 62
     0
 10
88.876556885331354
 20
8.2884106755327664
 30
0.0
 11
88.124069566025696
 21
9.0408979948384456
 31
0.0
  0
LINE
  5
51A
  8
0
 62
     0
 10
56.730539759783071
 20
39.835744059676458
 30
0.0
 11
55.349052880659173
 21
41.217230938800341
 31
0.0
  0
LINE
  5
51B
  8
0
 62
     0
 10
60.049052880653221
 20
36.517230938806307
 30
0.0
 11
58.349052880653318
 21
38.21723093880621
 31
0.0
  0
LINE
  5
51C
  8
0
 62
     0
 10
20.439009857378402
 20
76.127273962081134
 30
0.0
 11
18.934035218766962
 21
77.632248600692563
 31
0.0
  0
LINE
  5
51D
  8
0
 62
     0
 10
88.686166545434261
 20
7.8801172740252587
 30
0.0
 11
87.933679226128575
 21
8.6326045933309388
 31
0.0
  0
LINE
  5
51E
  8
0
 62
     0
 10
56.730539759783042
 20
39.237060318271872
 30
0.0
 11
54.750369139254573
 21
41.217230938800341
 31
0.0
  0
LINE
  5
51F
  8
0
 62
     0
 10
59.450369139248608
 20
36.517230938806293
 30
0.0
 11
57.75036913924869
 21
38.217230938806232
 31
0.0
  0
LINE
  5
520
  8
0
 62
     0
 10
20.24861951748133
 20
75.718980560573584
 30
0.0
 11
18.743644878869901
 21
77.223955199185013
 31
0.0
  0
LINE
  5
521
  8
0
 62
     0
 10
88.495776205537155
 20
7.4718238725177519
 30
0.0
 11
87.743288886231483
 21
8.2243111918234302
 31
0.0
  0
LINE
  5
522
  8
0
 62
     0
 10
56.725946923189802
 20
38.642969413460492
 30
0.0
 11
54.15168539784996
 21
41.217230938800341
 31
0.0
  0
LINE
  5
523
  8
0
 62
     0
 10
58.851685397843987
 20
36.517230938806307
 30
0.0
 11
57.146257737382413
 21
38.222658599267888
 31
0.0
  0
LINE
  5
524
  8
0
 62
     0
 10
20.05822917758422
 20
75.310687159066077
 30
0.0
 11
18.55325453897284
 21
76.815661797677464
 31
0.0
  0
LINE
  5
525
  8
0
 62
     0
 10
88.305385865640048
 20
7.063530471010246
 30
0.0
 11
87.552898546334376
 21
7.8160177903159322
 31
0.0
  0
LINE
  5
526
  8
0
 62
     0
 10
58.253001656439409
 20
36.517230938806307
 30
0.0
 11
53.55300165644536
 21
41.217230938800348
 31
0.0
  0
LINE
  5
527
  8
0
 62
     0
 10
19.867838837687209
 20
74.902393757558499
 30
0.0
 11
18.362864199075791
 21
76.407368396169929
 31
0.0
  0
LINE
  5
528
  8
0
 62
     0
 10
88.114995525742955
 20
6.6552370695027463
 30
0.0
 11
87.362508206437298
 21
7.4077243888084183
 31
0.0
  0
LINE
  5
529
  8
0
 62
     0
 10
54.675919969003452
 20
39.495628884837672
 30
0.0
 11
52.954317915040747
 21
41.217230938800341
 31
0.0
  0
LINE
  5
52A
  8
0
 62
     0
 10
57.654317915034802
 20
36.517230938806321
 30
0.0
 11
55.00893770581439
 21
39.16261114802672
 31
0.0
  0
LINE
  5
52B
  8
0
 62
     0
 10
19.677448497790142
 20
74.494100356050964
 30
0.0
 11
18.172473859178719
 21
75.999074994662379
 31
0.0
  0
LINE
  5
52C
  8
0
 62
     0
 10
87.924605185845863
 20
6.2469436679952386
 30
0.0
 11
87.172117866540191
 21
6.9994309873009106
 31
0.0
  0
LINE
  5
52D
  8
0
 62
     0
 10
54.055634173630281
 20
39.517230938806222
 30
0.0
 11
52.35563417363614
 21
41.217230938800341
 31
0.0
  0
LINE
  5
52E
  8
0
 62
     0
 10
57.05563417363016
 20
36.517230938806328
 30
0.0
 11
55.03053975978311
 21
38.542325352653393
 31
0.0
  0
LINE
  5
52F
  8
0
 62
     0
 10
19.48705815789307
 20
74.085806954543415
 30
0.0
 11
17.982083519281641
 21
75.590781593154844
 31
0.0
  0
LINE
  5
530
  8
0
 62
     0
 10
87.734214845948756
 20
5.8386502664877389
 30
0.0
 11
86.981727526643084
 21
6.5911375857934038
 31
0.0
  0
LINE
  5
531
  8
0
 62
     0
 10
53.456950432225661
 20
39.517230938806222
 30
0.0
 11
51.756950432231541
 21
41.217230938800348
 31
0.0
  0
LINE
  5
532
  8
0
 62
     0
 10
56.456950432225561
 20
36.517230938806328
 30
0.0
 11
55.03053975978311
 21
37.943641611248779
 31
0.0
  0
LINE
  5
533
  8
0
 62
     0
 10
19.29666781799601
 20
73.67751355303588
 30
0.0
 11
17.791693179384581
 21
75.182488191647309
 31
0.0
  0
LINE
  5
534
  8
0
 62
     0
 10
87.543824506051649
 20
5.4303568649802321
 30
0.0
 11
86.791337186745963
 21
6.1828441842859041
 31
0.0
  0
LINE
  5
535
  8
0
 62
     0
 10
52.858266690821047
 20
39.517230938806222
 30
0.0
 11
51.15826669082692
 21
41.217230938800348
 31
0.0
  0
LINE
  5
536
  8
0
 62
     0
 10
29.413103391134129
 20
62.96239423849314
 30
0.0
 11
21.596202542028209
 21
70.779295087599081
 31
0.0
  0
LINE
  5
537
  8
0
 62
     0
 10
55.85826669082094
 20
36.517230938806328
 30
0.0
 11
55.030539759783103
 21
37.34495786984418
 31
0.0
  0
LINE
  5
538
  8
0
 62
     0
 10
19.106277478098932
 20
73.269220151528344
 30
0.0
 11
17.601302839487509
 21
74.774194790139759
 31
0.0
  0
LINE
  5
539
  8
0
 62
     0
 10
87.353434166154528
 20
5.0220634634727332
 30
0.0
 11
86.600946846848871
 21
5.7745507827783982
 31
0.0
  0
LINE
  5
53A
  8
0
 62
     0
 10
29.2249634126883
 20
62.551850475534359
 30
0.0
 11
20.4744256408745
 21
71.302388247348162
 31
0.0
  0
LINE
  5
53B
  8
0
 62
     0
 10
52.259582949416448
 20
39.517230938806208
 30
0.0
 11
50.559582949422321
 21
41.217230938800341
 31
0.0
  0
LINE
  5
53C
  8
0
 62
     0
 10
18.915887138201871
 20
72.860926750020795
 30
0.0
 11
17.410912499590442
 21
74.365901388632224
 31
0.0
  0
LINE
  5
53D
  8
0
 62
     0
 10
87.163043826257407
 20
4.6137700619652264
 30
0.0
 11
86.410556506951764
 21
5.3662573812708914
 31
0.0
  0
LINE
  5
53E
  8
0
 62
     0
 10
29.034573072791179
 20
62.14355707402688
 30
0.0
 11
19.35264873972082
 21
71.825481407097243
 31
0.0
  0
LINE
  5
53F
  8
0
 62
     0
 10
51.660899208011827
 20
39.517230938806222
 30
0.0
 11
49.960899208017693
 21
41.217230938800348
 31
0.0
  0
LINE
  5
540
  8
0
 62
     0
 10
18.761770106922139
 20
72.416360039895906
 30
0.0
 11
17.22052215969337
 21
73.957607987124675
 31
0.0
  0
LINE
  5
541
  8
0
 62
     0
 10
86.972653486360329
 20
4.2054766604577116
 30
0.0
 11
86.220166167054657
 21
4.9579639797633837
 31
0.0
  0
LINE
  5
542
  8
0
 62
     0
 10
51.062215466607213
 20
39.517230938806208
 30
0.0
 11
49.362215466613087
 21
41.217230938800341
 31
0.0
  0
LINE
  5
543
  8
0
 62
     0
 10
28.844182732894069
 20
61.735263672519373
 30
0.0
 11
17.030131819796289
 21
73.54931458561714
 31
0.0
  0
LINE
  5
544
  8
0
 62
     0
 10
86.782263146463208
 20
3.7971832589502048
 30
0.0
 11
86.02977582715755
 21
4.5496705782558768
 31
0.0
  0
LINE
  5
545
  8
0
 62
     0
 10
28.653792392996959
 20
61.326970271011859
 30
0.0
 11
27.371658727322231
 21
62.609103936686587
 31
0.0
  0
LINE
  5
546
  8
0
 62
     0
 10
50.463531725202607
 20
39.517230938806208
 30
0.0
 11
48.76353172520848
 21
41.217230938800341
 31
0.0
  0
LINE
  5
547
  8
0
 62
     0
 10
20.623746198382651
 20
69.357016465626174
 30
0.0
 11
16.839741479899232
 21
73.14102118410959
 31
0.0
  0
LINE
  5
548
  8
0
 62
     0
 10
86.591872806566101
 20
3.3888898574427051
 30
0.0
 11
85.839385487260444
 21
4.14137717674837
 31
0.0
  0
LINE
  5
549
  8
0
 62
     0
 10
28.46340205309987
 20
60.918676869504338
 30
0.0
 11
27.184173610280261
 21
62.197905312323947
 31
0.0
  0
LINE
  5
54A
  8
0
 62
     0
 10
49.864847983798001
 20
39.517230938806208
 30
0.0
 11
48.16484798380386
 21
41.217230938800341
 31
0.0
  0
LINE
  5
54B
  8
0
 62
     0
 10
19.77915102823761
 20
69.602927894366601
 30
0.0
 11
16.649351140002182
 21
72.732727782602041
 31
0.0
  0
LINE
  5
54C
  8
0
 62
     0
 10
86.401482466668995
 20
2.9805964559351992
 30
0.0
 11
85.648995147363337
 21
3.7330837752408641
 31
0.0
  0
LINE
  5
54D
  8
0
 62
     0
 10
28.273011713202749
 20
60.510383467996853
 30
0.0
 11
26.99378327038314
 21
61.789611910816483
 31
0.0
  0
LINE
  5
54E
  8
0
 62
     0
 10
49.266164242393373
 20
39.517230938806229
 30
0.0
 11
47.566164242399253
 21
41.217230938800341
 31
0.0
  0
LINE
  5
54F
  8
0
 62
     0
 10
19.468910077327731
 20
69.314485103871874
 30
0.0
 11
16.458960800105089
 21
72.324434381094505
 31
0.0
  0
LINE
  5
550
  8
0
 62
     0
 10
86.211092126771874
 20
2.572303054427699
 30
0.0
 11
85.458604807466244
 21
3.3247903737333639
 31
0.0
  0
LINE
  5
551
  8
0
 62
     0
 10
28.082621373305649
 20
60.102090066489332
 30
0.0
 11
26.803392930486009
 21
61.38131850930899
 31
0.0
  0
LINE
  5
552
  8
0
 62
     0
 10
48.667480500988773
 20
39.517230938806222
 30
0.0
 11
46.96748050099464
 21
41.217230938800341
 31
0.0
  0
LINE
  5
553
  8
0
 62
     0
 10
19.27851973743061
 20
68.906191702364367
 30
0.0
 11
16.268570460208039
 21
71.91614097958697
 31
0.0
  0
LINE
  5
554
  8
0
 62
     0
 10
86.020701786874781
 20
2.1640096529201851
 30
0.0
 11
85.268214467569123
 21
2.91649697222585
 31
0.0
  0
LINE
  5
555
  8
0
 62
     0
 10
27.892231033408539
 20
59.693796664981839
 30
0.0
 11
26.613002590588909
 21
60.973025107801469
 31
0.0
  0
LINE
  5
556
  8
0
 62
     0
 10
48.06879675958416
 20
39.517230938806222
 30
0.0
 11
46.368796759590019
 21
41.217230938800341
 31
0.0
  0
LINE
  5
557
  8
0
 62
     0
 10
19.088129397533489
 20
68.497898300856889
 30
0.0
 11
16.07818012031095
 21
71.507847578079435
 31
0.0
  0
LINE
  5
558
  8
0
 62
     0
 10
85.830311446977674
 20
1.7557162514126849
 30
0.0
 11
85.077824127672017
 21
2.5082035707183499
 31
0.0
  0
LINE
  5
559
  8
0
 62
     0
 10
27.701840693511439
 20
59.285503263474332
 30
0.0
 11
26.422612250691799
 21
60.564731706293969
 31
0.0
  0
LINE
  5
55A
  8
0
 62
     0
 10
47.470113018179553
 20
39.517230938806222
 30
0.0
 11
45.770113018185427
 21
41.217230938800341
 31
0.0
  0
LINE
  5
55B
  8
0
 62
     0
 10
18.897739057636372
 20
68.089604899349411
 30
0.0
 11
15.88778978041389
 21
71.099554176571885
 31
0.0
  0
LINE
  5
55C
  8
0
 62
     0
 10
85.639921107080553
 20
1.3474228499051859
 30
0.0
 11
84.887433787774896
 21
2.0999101692108431
 31
0.0
  0
LINE
  5
55D
  8
0
 62
     0
 10
27.51145035361434
 20
58.877209861966833
 30
0.0
 11
26.232221910794721
 21
60.156438304786441
 31
0.0
  0
LINE
  5
55E
  8
0
 62
     0
 10
47.108848268232727
 20
39.279811947348442
 30
0.0
 11
45.17142927678082
 21
41.217230938800341
 31
0.0
  0
LINE
  5
55F
  8
0
 62
     0
 10
18.707348717739261
 20
67.681311497841918
 30
0.0
 11
15.69739944051685
 21
70.691260775064322
 31
0.0
  0
LINE
  5
560
  8
0
 62
     0
 10
85.449530767183475
 20
0.9391294483976722
 30
0.0
 11
84.697043447877846
 21
1.6916167677033369
 31
0.0
  0
LINE
  5
561
  8
0
 62
     0
 10
27.321060013717229
 20
58.468916460459319
 30
0.0
 11
26.0418315708976
 21
59.74814490327897
 31
0.0
  0
LINE
  5
562
  8
0
 62
     0
 10
46.328419342930609
 20
39.461557131245939
 30
0.0
 11
44.5727455353762
 21
41.217230938800348
 31
0.0
  0
LINE
  5
563
  8
0
 62
     0
 10
18.516958377842158
 20
67.273018096334397
 30
0.0
 11
15.50700910061977
 21
70.282967373556801
 31
0.0
  0
LINE
  5
564
  8
0
 62
     0
 10
85.259140427286383
 20
0.5308360468901654
 30
0.0
 11
84.506626829949255
 21
1.2833496442272929
 31
0.0
  0
LINE
  5
565
  8
0
 62
     0
 10
27.130669673820119
 20
58.060623058951812
 30
0.0
 11
25.851441231000479
 21
59.33985150177147
 31
0.0
  0
LINE
  5
566
  8
0
 62
     0
 10
45.674061793973117
 20
39.517230938798818
 30
0.0
 11
43.974061793971579
 21
41.217230938800341
 31
0.0
  0
LINE
  5
567
  8
0
 62
     0
 10
18.326568037945041
 20
66.864724694826904
 30
0.0
 11
15.316618760722699
 21
69.874673972049223
 31
0.0
  0
LINE
  5
568
  8
0
 62
     0
 10
85.045734909143718
 20
0.145557823628188
 30
0.0
 11
84.176544924571203
 21
1.0147478082007231
 31
0.0
  0
LINE
  5
569
  8
0
 62
     0
 10
26.940279333923002
 20
57.652329657444326
 30
0.0
 11
25.661050891103368
 21
58.931558100263963
 31
0.0
  0
LINE
  5
56A
  8
0
 62
     0
 10
45.075378052568368
 20
39.51723093879896
 30
0.0
 11
43.37537805256698
 21
41.217230938800341
 31
0.0
  0
LINE
  5
56B
  8
0
 62
     0
 10
18.136177698047909
 20
66.456431293319412
 30
0.0
 11
15.126228420825621
 21
69.466380570541716
 31
0.0
  0
LINE
  5
56C
  8
0
 62
     0
 10
84.592609290700295
 20
-0.0000002993329815
 30
0.0
 11
83.592609290700409
 21
0.999999700666919
 31
0.0
  0
LINE
  5
56D
  8
0
 62
     0
 10
26.749888994025909
 20
57.244036255936813
 30
0.0
 11
25.470660551206269
 21
58.523264698756449
 31
0.0
  0
LINE
  5
56E
  8
0
 62
     0
 10
44.476694311163612
 20
39.517230938799109
 30
0.0
 11
42.776694311162373
 21
41.217230938800341
 31
0.0
  0
LINE
  5
56F
  8
0
 62
     0
 10
17.94578735815081
 20
66.048137891811905
 30
0.0
 11
14.93583808092856
 21
69.058087169034167
 31
0.0
  0
LINE
  5
570
  8
0
 62
     0
 10
83.993925549295668
 20
-0.0000002993329744
 30
0.0
 11
82.993925549295795
 21
0.9999997006669261
 31
0.0
  0
LINE
  5
571
  8
0
 62
     0
 10
26.559498654128809
 20
56.835742854429299
 30
0.0
 11
25.280270211309151
 21
58.114971297248957
 31
0.0
  0
LINE
  5
572
  8
0
 62
     0
 10
43.878010569758843
 20
39.517230938799273
 30
0.0
 11
42.178010569757738
 21
41.217230938800363
 31
0.0
  0
LINE
  5
573
  8
0
 62
     0
 10
17.71931348928992
 20
65.675928019268213
 30
0.0
 11
14.74544774103148
 21
68.649793767526631
 31
0.0
  0
LINE
  5
574
  8
0
 62
     0
 10
83.395241807891068
 20
-0.0000002993329744
 30
0.0
 11
82.395241807891182
 21
0.9999997006669261
 31
0.0
  0
LINE
  5
575
  8
0
 62
     0
 10
26.36910831423171
 20
56.427449452921799
 30
0.0
 11
25.089879871412069
 21
57.70667789574145
 31
0.0
  0
LINE
  5
576
  8
0
 62
     0
 10
43.279326828354108
 20
39.517230938799401
 30
0.0
 11
41.57932682835316
 21
41.217230938800348
 31
0.0
  0
LINE
  5
577
  8
0
 62
     0
 10
17.189514625282129
 20
65.607043141871387
 30
0.0
 11
14.55505740113443
 21
68.241500366019082
 31
0.0
  0
LINE
  5
578
  8
0
 62
     0
 10
82.796558066486483
 20
-0.0000002993329673
 30
0.0
 11
81.796558066486568
 21
0.9999997006669403
 31
0.0
  0
LINE
  5
579
  8
0
 62
     0
 10
26.178717974334589
 20
56.019156051414321
 30
0.0
 11
24.899489531514948
 21
57.298384494233972
 31
0.0
  0
LINE
  5
57A
  8
0
 62
     0
 10
42.680643086949338
 20
39.517230938799557
 30
0.0
 11
40.98064308694854
 21
41.217230938800348
 31
0.0
  0
LINE
  5
57B
  8
0
 62
     0
 10
16.06773978673575
 20
66.130134239013145
 30
0.0
 11
14.36466706123737
 21
67.833206964511533
 31
0.0
  0
LINE
  5
57C
  8
0
 62
     0
 10
82.19787432508187
 20
-0.0000002993329673
 30
0.0
 11
81.197874325081955
 21
0.9999997006669403
 31
0.0
  0
LINE
  5
57D
  8
0
 62
     0
 10
25.9883276344375
 20
55.610862649906792
 30
0.0
 11
24.709099191617842
 21
56.89009109272645
 31
0.0
  0
LINE
  5
57E
  8
0
 62
     0
 10
42.08195934554459
 20
39.517230938799692
 30
0.0
 11
40.381959345543933
 21
41.217230938800348
 31
0.0
  0
LINE
  5
57F
  8
0
 62
     0
 10
14.945962885582199
 20
66.653227398762084
 30
0.0
 11
14.187900959491071
 21
67.411289324853215
 31
0.0
  0
LINE
  5
580
  8
0
 62
     0
 10
81.599190583677256
 20
-0.0000002993329673
 30
0.0
 11
80.599190583677341
 21
0.9999997006669403
 31
0.0
  0
LINE
  5
581
  8
0
 62
     0
 10
41.483275604139827
 20
39.517230938799841
 30
0.0
 11
39.783275604139341
 21
41.217230938800341
 31
0.0
  0
LINE
  5
582
  8
0
 62
     0
 10
25.79793729454039
 20
55.202569248399278
 30
0.0
 11
24.518708851720721
 21
56.481797691218951
 31
0.0
  0
LINE
  5
583
  8
0
 62
     0
 10
81.000506842272642
 20
-0.0000002993329673
 30
0.0
 11
80.000506842272728
 21
0.9999997006669474
 31
0.0
  0
LINE
  5
584
  8
0
 62
     0
 10
40.884591862735078
 20
39.517230938799983
 30
0.0
 11
39.18459186273472
 21
41.217230938800341
 31
0.0
  0
LINE
  5
585
  8
0
 62
     0
 10
25.607546954643301
 20
54.794275846891779
 30
0.0
 11
24.32831851182361
 21
56.073504289711451
 31
0.0
  0
LINE
  5
586
  8
0
 62
     0
 10
80.401823100868029
 20
-0.0000002993329673
 30
0.0
 11
79.401823100868114
 21
0.9999997006669403
 31
0.0
  0
LINE
  5
587
  8
0
 62
     0
 10
40.285908121330337
 20
39.517230938800111
 30
0.0
 11
38.585908121330093
 21
41.217230938800341
 31
0.0
  0
LINE
  5
588
  8
0
 62
     0
 10
25.41715661474618
 20
54.385982445384293
 30
0.0
 11
24.13792817192649
 21
55.665210888203958
 31
0.0
  0
LINE
  5
589
  8
0
 62
     0
 10
79.803139359463415
 20
-0.0000002993329744
 30
0.0
 11
78.803139359463501
 21
0.9999997006669474
 31
0.0
  0
LINE
  5
58A
  8
0
 62
     0
 10
39.687224379925567
 20
39.517230938800282
 30
0.0
 11
37.987224379925493
 21
41.217230938800341
 31
0.0
  0
LINE
  5
58B
  8
0
 62
     0
 10
25.226766274849069
 20
53.977689043876772
 30
0.0
 11
23.947537832029401
 21
55.256917486696437
 31
0.0
  0
LINE
  5
58C
  8
0
 62
     0
 10
79.204455618058802
 20
-0.0000002993329673
 30
0.0
 11
78.204455618058887
 21
0.9999997006669545
 31
0.0
  0
LINE
  5
58D
  8
0
 62
     0
 10
39.207178205577122
 20
39.398593371744113
 30
0.0
 11
37.49872580031942
 21
41.107045777001787
 31
0.0
  0
LINE
  5
58E
  8
0
 62
     0
 10
25.036375934951959
 20
53.569395642369273
 30
0.0
 11
23.75714749213229
 21
54.848624085188931
 31
0.0
  0
LINE
  5
58F
  8
0
 62
     0
 10
78.605771876654188
 20
-0.0000002993329673
 30
0.0
 11
77.605771876654273
 21
0.9999997006669545
 31
0.0
  0
LINE
  5
590
  8
0
 62
     0
 10
39.030539759784219
 20
38.976548076132403
 30
0.0
 11
37.330539759784301
 21
40.67654807613232
 31
0.0
  0
LINE
  5
591
  8
0
 62
     0
 10
24.845985595054842
 20
53.16110224086178
 30
0.0
 11
23.566757152235169
 21
54.440330683681452
 31
0.0
  0
LINE
  5
592
  8
0
 62
     0
 10
78.007088135249575
 20
-0.0000002993329602
 30
0.0
 11
77.00708813524966
 21
0.9999997006669545
 31
0.0
  0
LINE
  5
593
  8
0
 62
     0
 10
39.030539759784219
 20
38.377864334727789
 30
0.0
 11
37.330539759784337
 21
40.077864334727657
 31
0.0
  0
LINE
  5
594
  8
0
 62
     0
 10
24.655595255157749
 20
52.752808839354273
 30
0.0
 11
23.376366812338059
 21
54.032037282173953
 31
0.0
  0
LINE
  5
595
  8
0
 62
     0
 10
77.408404393844961
 20
-0.0000002993329602
 30
0.0
 11
76.408404393845046
 21
0.9999997006669616
 31
0.0
  0
LINE
  5
596
  8
0
 62
     0
 10
39.030539759784219
 20
37.779180593323183
 30
0.0
 11
37.330539759784379
 21
39.479180593323022
 31
0.0
  0
LINE
  5
597
  8
0
 62
     0
 10
24.465204915260639
 20
52.344515437846752
 30
0.0
 11
23.185976472440942
 21
53.623743880666453
 31
0.0
  0
LINE
  5
598
  8
0
 62
     0
 10
76.809720652440333
 20
-0.0000002993329673
 30
0.0
 11
75.809720652440433
 21
0.9999997006669616
 31
0.0
  0
LINE
  5
599
  8
0
 62
     0
 10
39.030539759784233
 20
37.180496851918562
 30
0.0
 11
37.330539759784422
 21
38.88049685191838
 31
0.0
  0
LINE
  5
59A
  8
0
 62
     0
 10
24.27481457536355
 20
51.936222036339252
 30
0.0
 11
22.99558613254387
 21
53.215450479158932
 31
0.0
  0
LINE
  5
59B
  8
0
 62
     0
 10
76.211036911035762
 20
-0.0000002993329673
 30
0.0
 11
75.211036911035819
 21
0.9999997006669616
 31
0.0
  0
LINE
  5
59C
  8
0
 62
     0
 10
38.91490652752222
 20
36.697446342775962
 30
0.0
 11
37.227823658183567
 21
38.384529212114607
 31
0.0
  0
LINE
  5
59D
  8
0
 62
     0
 10
24.084424235466461
 20
51.527928634831717
 30
0.0
 11
22.805195792646739
 21
52.807157077651453
 31
0.0
  0
LINE
  5
59E
  8
0
 62
     0
 10
75.612353169631135
 20
-0.0000002993329602
 30
0.0
 11
74.61235316963122
 21
0.9999997006669545
 31
0.0
  0
LINE
  5
59F
  8
0
 62
     0
 10
38.496438190086742
 20
36.517230938806833
 30
0.0
 11
36.808103922402182
 21
38.205565206491393
 31
0.0
  0
LINE
  5
5A0
  8
0
 62
     0
 10
23.894033895569329
 20
51.119635233324232
 30
0.0
 11
22.614805452749639
 21
52.398863676143932
 31
0.0
  0
LINE
  5
5A1
  8
0
 62
     0
 10
75.013669428226535
 20
-0.0000002993329744
 30
0.0
 11
74.013669428226606
 21
0.9999997006669545
 31
0.0
  0
LINE
  5
5A2
  8
0
 62
     0
 10
37.89775444868215
 20
36.517230938806811
 30
0.0
 11
36.197754448683838
 21
38.21723093880513
 31
0.0
  0
LINE
  5
5A3
  8
0
 62
     0
 10
23.70364355567223
 20
50.711341831816732
 30
0.0
 11
22.424415112852511
 21
51.990570274636447
 31
0.0
  0
LINE
  5
5A4
  8
0
 62
     0
 10
74.414985686821922
 20
-0.0000002993329602
 30
0.0
 11
73.414985686821964
 21
0.9999997006669688
 31
0.0
  0
LINE
  5
5A5
  8
0
 62
     0
 10
37.299070707277593
 20
36.517230938806762
 30
0.0
 11
35.599070707279211
 21
38.217230938805137
 31
0.0
  0
LINE
  5
5A6
  8
0
 62
     0
 10
23.513253215775119
 20
50.303048430309218
 30
0.0
 11
22.23402477295544
 21
51.582276873128912
 31
0.0
  0
LINE
  5
5A7
  8
0
 62
     0
 10
73.816301945417308
 20
-0.0000002993329602
 30
0.0
 11
72.816301945417365
 21
0.9999997006669759
 31
0.0
  0
LINE
  5
5A8
  8
0
 62
     0
 10
36.700386965873008
 20
36.517230938806733
 30
0.0
 11
35.000386965874611
 21
38.21723093880513
 31
0.0
  0
LINE
  5
5A9
  8
0
 62
     0
 10
23.322862875877998
 20
49.894755028801733
 30
0.0
 11
22.043634433058308
 21
51.173983471621419
 31
0.0
  0
LINE
  5
5AA
  8
0
 62
     0
 10
73.217618204012695
 20
-0.0000002993329673
 30
0.0
 11
72.217618204012751
 21
0.9999997006669759
 31
0.0
  0
LINE
  5
5AB
  8
0
 62
     0
 10
36.101703224468437
 20
36.517230938806691
 30
0.0
 11
34.401703224470012
 21
38.217230938805123
 31
0.0
  0
LINE
  5
5AC
  8
0
 62
     0
 10
23.132472535980909
 20
49.486461627294219
 30
0.0
 11
21.853244093161202
 21
50.765690070113934
 31
0.0
  0
LINE
  5
5AD
  8
0
 62
     0
 10
72.618934462608081
 20
-0.0000002993329531
 30
0.0
 11
71.618934462608138
 21
0.9999997006669759
 31
0.0
  0
LINE
  5
5AE
  8
0
 62
     0
 10
35.503019483063873
 20
36.517230938806662
 30
0.0
 11
33.803019483065412
 21
38.217230938805123
 31
0.0
  0
LINE
  5
5AF
  8
0
 62
     0
 10
22.94208219608382
 20
49.078168225786712
 30
0.0
 11
21.662853753264091
 21
50.357396668606462
 31
0.0
  0
LINE
  5
5B0
  8
0
 62
     0
 10
72.020250721203482
 20
-0.0000002993329602
 30
0.0
 11
71.020250721203539
 21
0.9999997006669829
 31
0.0
  0
LINE
  5
5B1
  8
0
 62
     0
 10
34.904335741659303
 20
36.51723093880662
 30
0.0
 11
33.204335741660799
 21
38.217230938805123
 31
0.0
  0
LINE
  5
5B2
  8
0
 62
     0
 10
22.75169185618671
 20
48.669874824279198
 30
0.0
 11
21.387883193876679
 21
50.033683486589233
 31
0.0
  0
LINE
  5
5B3
  8
0
 62
     0
 10
71.421566979798854
 20
-0.0000002993329531
 30
0.0
 11
70.421566979798925
 21
0.9999997006669829
 31
0.0
  0
LINE
  5
5B4
  8
0
 62
     0
 10
34.305652000254732
 20
36.517230938806577
 30
0.0
 11
32.605652000256192
 21
38.217230938805123
 31
0.0
  0
LINE
  5
5B5
  8
0
 62
     0
 10
22.523824297439159
 20
48.299058641622132
 30
0.0
 11
20.809489224581782
 21
50.01339371447952
 31
0.0
  0
LINE
  5
5B6
  8
0
 62
     0
 10
70.822883238394255
 20
-0.0000002993329602
 30
0.0
 11
69.822883238394311
 21
0.9999997006669829
 31
0.0
  0
LINE
  5
5B7
  8
0
 62
     0
 10
33.706968258850139
 20
36.517230938806549
 30
0.0
 11
32.006968258851558
 21
38.21723093880513
 31
0.0
  0
LINE
  5
5B8
  8
0
 62
     0
 10
22.023512479021051
 20
48.20068671863563
 30
0.0
 11
20.153405604056228
 21
50.070793593600449
 31
0.0
  0
LINE
  5
5B9
  8
0
 62
     0
 10
70.224199496989641
 20
-0.0000002993329602
 30
0.0
 11
69.224199496989684
 21
0.99999970066699
 31
0.0
  0
LINE
  5
5BA
  8
0
 62
     0
 10
33.108284517445583
 20
36.517230938806492
 30
0.0
 11
31.408284517446958
 21
38.217230938805123
 31
0.0
  0
LINE
  5
5BB
  8
0
 62
     0
 10
21.36742885849549
 20
48.258086597756588
 30
0.0
 11
19.497321983530689
 21
50.128193472721378
 31
0.0
  0
LINE
  5
5BC
  8
0
 62
     0
 10
69.625515755585013
 20
-0.0000002993329531
 30
0.0
 11
68.625515755585084
 21
0.9999997006669829
 31
0.0
  0
LINE
  5
5BD
  8
0
 62
     0
 10
32.509600776040998
 20
36.51723093880647
 30
0.0
 11
30.809600776042348
 21
38.21723093880513
 31
0.0
  0
LINE
  5
5BE
  8
0
 62
     0
 10
20.711345237969919
 20
48.315486476877538
 30
0.0
 11
18.8412383630051
 21
50.185593351842357
 31
0.0
  0
LINE
  5
5BF
  8
0
 62
     0
 10
69.026832014180414
 20
-0.0000002993329602
 30
0.0
 11
68.026832014180457
 21
0.9999997006669971
 31
0.0
  0
LINE
  5
5C0
  8
0
 62
     0
 10
20.055261617444359
 20
48.372886355998503
 30
0.0
 11
18.185154742479568
 21
50.242993230963293
 31
0.0
  0
LINE
  5
5C1
  8
0
 62
     0
 10
31.910917034636409
 20
36.517230938806442
 30
0.0
 11
30.210917034637738
 21
38.217230938805109
 31
0.0
  0
LINE
  5
5C2
  8
0
 62
     0
 10
12.995608197275461
 20
55.432539776167388
 30
0.0
 11
11.975011201484261
 21
56.45313677195859
 31
0.0
  0
LINE
  5
5C3
  8
0
 62
     0
 10
68.428148272775815
 20
-0.0000002993329602
 30
0.0
 11
67.428148272775871
 21
0.99999970066699
 31
0.0
  0
LINE
  5
5C4
  8
0
 62
     0
 10
19.399177996918791
 20
48.430286235119453
 30
0.0
 11
17.529071121954001
 21
50.300393110084237
 31
0.0
  0
LINE
  5
5C5
  8
0
 62
     0
 10
31.312233293231841
 20
36.517230938806406
 30
0.0
 11
29.612233293233121
 21
38.21723093880513
 31
0.0
  0
LINE
  5
5C6
  8
0
 62
     0
 10
12.805248180930059
 20
55.024216051108183
 30
0.0
 11
10.85323430033001
 21
56.976229931708232
 31
0.0
  0
LINE
  5
5C7
  8
0
 62
     0
 10
67.829464531371201
 20
-0.0000002993329531
 30
0.0
 11
66.829464531371258
 21
0.99999970066699
 31
0.0
  0
LINE
  5
5C8
  8
0
 62
     0
 10
18.743094376393231
 20
48.487686114240397
 30
0.0
 11
16.87298750142844
 21
50.357792989205201
 31
0.0
  0
LINE
  5
5C9
  8
0
 62
     0
 10
30.713549551827271
 20
36.517230938806371
 30
0.0
 11
29.013549551828518
 21
38.217230938805123
 31
0.0
  0
LINE
  5
5CA
  8
0
 62
     0
 10
12.614857841032959
 20
54.61592264960067
 30
0.0
 11
9.8076133171487498
 21
57.423167173484877
 31
0.0
  0
LINE
  5
5CB
  8
0
 62
     0
 10
67.230780789966573
 20
-0.000000299332946
 30
0.0
 11
66.23078078996663
 21
0.9999997006669971
 31
0.0
  0
LINE
  5
5CC
  8
0
 62
     0
 10
18.087010755867649
 20
48.545085993361369
 30
0.0
 11
16.21690388090289
 21
50.41519286832613
 31
0.0
  0
LINE
  5
5CD
  8
0
 62
     0
 10
30.1148658104227
 20
36.517230938806321
 30
0.0
 11
28.41486581042389
 21
38.217230938805123
 31
0.0
  0
LINE
  5
5CE
  8
0
 62
     0
 10
12.424467501135849
 20
54.207629248093163
 30
0.0
 11
9.3938453179437982
 21
57.238251431285221
 31
0.0
  0
LINE
  5
5CF
  8
0
 62
     0
 10
66.632097048561974
 20
-0.0000002993329531
 30
0.0
 11
65.632097048562017
 21
0.9999997006669971
 31
0.0
  0
LINE
  5
5D0
  8
0
 62
     0
 10
17.430927135342088
 20
48.602485872482319
 30
0.0
 11
15.56082026037733
 21
50.472592747447081
 31
0.0
  0
LINE
  5
5D1
  8
0
 62
     0
 10
29.516182069018111
 20
36.517230938806293
 30
0.0
 11
27.816182069019291
 21
38.217230938805123
 31
0.0
  0
LINE
  5
5D2
  8
0
 62
     0
 10
12.23407716123873
 20
53.799335846585677
 30
0.0
 11
9.1923263957292107
 21
56.841086612095197
 31
0.0
  0
LINE
  5
5D3
  8
0
 62
     0
 10
66.03341330715736
 20
-0.0000002993329531
 30
0.0
 11
65.033413307157389
 21
0.9999997006670042
 31
0.0
  0
LINE
  5
5D4
  8
0
 62
     0
 10
16.774843514816538
 20
48.659885751603269
 30
0.0
 11
14.90473663985177
 21
50.529992626568031
 31
0.0
  0
LINE
  5
5D5
  8
0
 62
     0
 10
28.917498327613561
 20
36.51723093880625
 30
0.0
 11
27.217498327614688
 21
38.217230938805123
 31
0.0
  0
LINE
  5
5D6
  8
0
 62
     0
 10
12.04368682134165
 20
53.391042445078149
 30
0.0
 11
9.0019360558321182
 21
56.43279321058769
 31
0.0
  0
LINE
  5
5D7
  8
0
 62
     0
 10
65.434729565752775
 20
-0.0000002993329673
 30
0.0
 11
64.434729565752804
 21
0.9999997006670042
 31
0.0
  0
LINE
  5
5D8
  8
0
 62
     0
 10
16.118759894290971
 20
48.717285630724227
 30
0.0
 11
14.248653019326239
 21
50.58739250568896
 31
0.0
  0
LINE
  5
5D9
  8
0
 62
     0
 10
28.31881458620899
 20
36.517230938806208
 30
0.0
 11
26.618814586210071
 21
38.217230938805137
 31
0.0
  0
LINE
  5
5DA
  8
0
 62
     0
 10
11.85329648144454
 20
52.982749043570649
 30
0.0
 11
8.8115457159349972
 21
56.024499809080197
 31
0.0
  0
LINE
  5
5DB
  8
0
 62
     0
 10
64.836045824348133
 20
-0.0000002993329531
 30
0.0
 11
63.836045824348169
 21
0.9999997006670184
 31
0.0
  0
LINE
  5
5DC
  8
0
 62
     0
 10
15.462676273765389
 20
48.774685509845192
 30
0.0
 11
13.592569398800681
 21
50.644792384809911
 31
0.0
  0
LINE
  5
5DD
  8
0
 62
     0
 10
27.720130844804402
 20
36.517230938806193
 30
0.0
 11
26.020130844805461
 21
38.21723093880513
 31
0.0
  0
LINE
  5
5DE
  8
0
 62
     0
 10
11.662906141547429
 20
52.57445564206315
 30
0.0
 11
8.6211553760378905
 21
55.61620640757269
 31
0.0
  0
LINE
  5
5DF
  8
0
 62
     0
 10
64.237362082943534
 20
-0.0000002993329673
 30
0.0
 11
63.237362082943569
 21
0.9999997006670113
 31
0.0
  0
LINE
  5
5E0
  8
0
 62
     0
 10
14.806592653239839
 20
48.832085388966128
 30
0.0
 11
12.936485778275109
 21
50.702192263930861
 31
0.0
  0
LINE
  5
5E1
  8
0
 62
     0
 10
27.121447103399841
 20
36.517230938806129
 30
0.0
 11
25.421447103400851
 21
38.21723093880513
 31
0.0
  0
LINE
  5
5E2
  8
0
 62
     0
 10
11.472515801650321
 20
52.166162240555657
 30
0.0
 11
8.4307650361407553
 21
55.207913006065212
 31
0.0
  0
LINE
  5
5E3
  8
0
 62
     0
 10
63.638678341538927
 20
-0.0000002993329602
 30
0.0
 11
62.638678341538949
 21
0.9999997006670113
 31
0.0
  0
LINE
  5
5E4
  8
0
 62
     0
 10
14.15050903271427
 20
48.889485268087093
 30
0.0
 11
11.906112394456009
 21
51.133881906345337
 31
0.0
  0
LINE
  5
5E5
  8
0
 62
     0
 10
26.52276336199526
 20
36.517230938806101
 30
0.0
 11
24.822763361996252
 21
38.217230938805109
 31
0.0
  0
LINE
  5
5E6
  8
0
 62
     0
 10
11.31906305943876
 20
51.720931241362599
 30
0.0
 11
8.2403746962436486
 21
54.799619604557712
 31
0.0
  0
LINE
  5
5E7
  8
0
 62
     0
 10
63.039994600134307
 20
-0.0000002993329602
 30
0.0
 11
62.039994600134342
 21
0.9999997006670113
 31
0.0
  0
LINE
  5
5E8
  8
0
 62
     0
 10
25.9240796205907
 20
36.517230938806073
 30
0.0
 11
24.224079620591642
 21
38.21723093880513
 31
0.0
  0
LINE
  5
5E9
  8
0
 62
     0
 10
13.49442541218872
 20
48.94688514720805
 30
0.0
 11
8.0499843563465703
 21
54.391326203050198
 31
0.0
  0
LINE
  5
5EA
  8
0
 62
     0
 10
62.441310858729722
 20
-0.0000002993329531
 30
0.0
 11
61.44131085872975
 21
0.9999997006670113
 31
0.0
  0
LINE
  5
5EB
  8
0
 62
     0
 10
25.325395879186129
 20
36.517230938806023
 30
0.0
 11
23.625395879187039
 21
38.217230938805123
 31
0.0
  0
LINE
  5
5EC
  8
0
 62
     0
 10
12.838341791663151
 20
49.004285026329001
 30
0.0
 11
7.8595940164494493
 21
53.983032801542699
 31
0.0
  0
LINE
  5
5ED
  8
0
 62
     0
 10
61.842627117325087
 20
-0.000000299332946
 30
0.0
 11
60.842627117325129
 21
0.9999997006670184
 31
0.0
  0
LINE
  5
5EE
  8
0
 62
     0
 10
24.726712137781551
 20
36.517230938806001
 30
0.0
 11
23.026712137782411
 21
38.21723093880513
 31
0.0
  0
LINE
  5
5EF
  8
0
 62
     0
 10
56.011607373815536
 20
5.2323357027720041
 30
0.0
 11
55.250278908617332
 21
5.9936641679702092
 31
0.0
  0
LINE
  5
5F0
  8
0
 62
     0
 10
12.055432951964161
 20
49.18851012462337
 30
0.0
 11
7.6692036765523417
 21
53.574739400035199
 31
0.0
  0
LINE
  5
5F1
  8
0
 62
     0
 10
61.243943375920487
 20
-0.0000002993329602
 30
0.0
 11
60.243943375920523
 21
0.9999997006670184
 31
0.0
  0
LINE
  5
5F2
  8
0
 62
     0
 10
24.12802839637698
 20
36.517230938805952
 30
0.0
 11
22.428028396377812
 21
38.217230938805123
 31
0.0
  0
LINE
  5
5F3
  8
0
 62
     0
 10
56.011607373815529
 20
4.6336519613673914
 30
0.0
 11
55.011607373815423
 21
5.633651961367498
 31
0.0
  0
LINE
  5
5F4
  8
0
 62
     0
 10
10.93365605080996
 20
49.71160328437297
 30
0.0
 11
7.4788133366552207
 21
53.166445998527713
 31
0.0
  0
LINE
  5
5F5
  8
0
 62
     0
 10
60.645259634515867
 20
-0.0000002993329531
 30
0.0
 11
59.645259634515909
 21
0.9999997006670184
 31
0.0
  0
LINE
  5
5F6
  8
0
 62
     0
 10
23.529344654972391
 20
36.51723093880593
 30
0.0
 11
21.829344654973202
 21
38.21723093880513
 31
0.0
  0
LINE
  5
5F7
  8
0
 62
     0
 10
56.011607373815536
 20
4.034968219962777
 30
0.0
 11
55.01160737381543
 21
5.0349682199628774
 31
0.0
  0
LINE
  5
5F8
  8
0
 62
     0
 10
9.8118791496557378
 20
50.234696444122591
 30
0.0
 11
7.288422996758114
 21
52.758152597020207
 31
0.0
  0
LINE
  5
5F9
  8
0
 62
     0
 10
60.046575893111267
 20
-0.0000002993329602
 30
0.0
 11
59.046575893111289
 21
0.9999997006670326
 31
0.0
  0
LINE
  5
5FA
  8
0
 62
     0
 10
22.930660913567831
 20
36.517230938805866
 30
0.0
 11
21.23066091356857
 21
38.217230938805137
 31
0.0
  0
LINE
  5
5FB
  8
0
 62
     0
 10
56.011607373815536
 20
3.4362844785581639
 30
0.0
 11
55.011607373815451
 21
4.4362844785582558
 31
0.0
  0
LINE
  5
5FC
  8
0
 62
     0
 10
8.8251311289687209
 20
50.62276072340498
 30
0.0
 11
7.0980326568609931
 21
52.349859195512707
 31
0.0
  0
LINE
  5
5FD
  8
0
 62
     0
 10
59.447892151706661
 20
-0.0000002993329602
 30
0.0
 11
58.447892151706668
 21
0.9999997006670255
 31
0.0
  0
LINE
  5
5FE
  8
0
 62
     0
 10
22.331977172163249
 20
36.517230938805852
 30
0.0
 11
20.631977172163971
 21
38.21723093880513
 31
0.0
  0
LINE
  5
5FF
  8
0
 62
     0
 10
56.011607373815536
 20
2.837600737153557
 30
0.0
 11
55.011607373815458
 21
3.837600737153636
 31
0.0
  0
LINE
  5
600
  8
0
 62
     0
 10
8.4485874201928368
 20
50.400620690776258
 30
0.0
 11
6.9076423169638721
 21
51.941565794005221
 31
0.0
  0
LINE
  5
601
  8
0
 62
     0
 10
58.849208410302047
 20
-0.0000002993329602
 30
0.0
 11
57.849208410302062
 21
0.9999997006670255
 31
0.0
  0
LINE
  5
602
  8
0
 62
     0
 10
21.733293430758671
 20
36.517230938805817
 30
0.0
 11
20.033293430759361
 21
38.21723093880513
 31
0.0
  0
LINE
  5
603
  8
0
 62
     0
 10
56.011607373815529
 20
2.2389169957489439
 30
0.0
 11
55.011607373815472
 21
3.2389169957490012
 31
0.0
  0
LINE
  5
604
  8
0
 62
     0
 10
8.2540281039650694
 20
49.996496265599411
 30
0.0
 11
6.7172519770667796
 21
51.5332723924977
 31
0.0
  0
LINE
  5
605
  8
0
 62
     0
 10
58.250524668897441
 20
-0.0000002993329531
 30
0.0
 11
57.250524668897462
 21
0.9999997006670184
 31
0.0
  0
LINE
  5
606
  8
0
 62
     0
 10
21.134609689354111
 20
36.517230938805767
 30
0.0
 11
19.434609689354751
 21
38.217230938805123
 31
0.0
  0
LINE
  5
607
  8
0
 62
     0
 10
56.011607373815529
 20
1.640233254344337
 30
0.0
 11
55.01160737381548
 21
2.6402332543443872
 31
0.0
  0
LINE
  5
608
  8
0
 62
     0
 10
8.0636377640679484
 20
49.588202864091919
 30
0.0
 11
6.5268616371696728
 21
51.124978990990201
 31
0.0
  0
LINE
  5
609
  8
0
 62
     0
 10
57.651840927492827
 20
-0.0000002993329602
 30
0.0
 11
56.651840927492827
 21
0.9999997006670398
 31
0.0
  0
LINE
  5
60A
  8
0
 62
     0
 10
20.535925947949512
 20
36.517230938805753
 30
0.0
 11
18.835925947950141
 21
38.217230938805123
 31
0.0
  0
LINE
  5
60B
  8
0
 62
     0
 10
56.011607373815522
 20
1.041549512939731
 30
0.0
 11
55.011607373815487
 21
2.0415495129397661
 31
0.0
  0
LINE
  5
60C
  8
0
 62
     0
 10
7.873247424170855
 20
49.179909462584412
 30
0.0
 11
6.3364712972725519
 21
50.716685589482708
 31
0.0
  0
LINE
  5
60D
  8
0
 62
     0
 10
57.053157186088207
 20
-0.0000002993329531
 30
0.0
 11
56.053157186088221
 21
0.9999997006670326
 31
0.0
  0
LINE
  5
60E
  8
0
 62
     0
 10
19.937242206544951
 20
36.517230938805703
 30
0.0
 11
18.237242206545531
 21
38.217230938805123
 31
0.0
  0
LINE
  5
60F
  8
0
 62
     0
 10
7.6828570842737491
 20
48.771616061076898
 30
0.0
 11
6.1460809573754309
 21
50.308392187975208
 31
0.0
  0
LINE
  5
610
  8
0
 62
     0
 10
56.454473444683607
 20
-0.0000002993329673
 30
0.0
 11
55.011607373815501
 21
1.4428657715351461
 31
0.0
  0
LINE
  5
611
  8
0
 62
     0
 10
19.338558465140359
 20
36.517230938805668
 30
0.0
 11
17.6385584651409
 21
38.21723093880513
 31
0.0
  0
LINE
  5
612
  8
0
 62
     0
 10
7.4924667443766557
 20
48.363322659569391
 30
0.0
 11
5.9556906174783526
 21
49.90009878646768
 31
0.0
  0
LINE
  5
613
  8
0
 62
     0
 10
55.85578970327898
 20
-0.0000002993329602
 30
0.0
 11
55.011607373815508
 21
0.8441820301305185
 31
0.0
  0
LINE
  5
614
  8
0
 62
     0
 10
18.739874723735792
 20
36.517230938805653
 30
0.0
 11
17.039874723736322
 21
38.21723093880513
 31
0.0
  0
LINE
  5
615
  8
0
 62
     0
 10
7.3020764044795214
 20
47.95502925806192
 30
0.0
 11
5.7653002775812459
 21
49.491805384960188
 31
0.0
  0
LINE
  5
616
  8
0
 62
     0
 10
55.250899309109613
 20
0.0062063534318355
 30
0.0
 11
55.017814026580282
 21
0.2392916359611519
 31
0.0
  0
LINE
  5
617
  8
0
 62
     0
 10
7.1116860645824138
 20
47.546735856554413
 30
0.0
 11
5.5749099376841249
 21
49.083511983452702
 31
0.0
  0
LINE
  5
618
  8
0
 62
     0
 10
18.141190982331239
 20
36.517230938805589
 30
0.0
 11
16.441190982331701
 21
38.21723093880513
 31
0.0
  0
LINE
  5
619
  8
0
 62
     0
 10
6.9212957246853222
 20
47.138442455046892
 30
0.0
 11
5.384519597787004
 21
48.675218581945217
 31
0.0
  0
LINE
  5
61A
  8
0
 62
     0
 10
17.54250724092665
 20
36.517230938805561
 30
0.0
 11
15.8425072409271
 21
38.217230938805109
 31
0.0
  0
LINE
  5
61B
  8
0
 62
     0
 10
6.7309053847882012
 20
46.7301490535394
 30
0.0
 11
5.1941292578898981
 21
48.266925180437703
 31
0.0
  0
LINE
  5
61C
  8
0
 62
     0
 10
16.943823499522079
 20
36.517230938805518
 30
0.0
 11
15.24382349952247
 21
38.21723093880513
 31
0.0
  0
LINE
  5
61D
  8
0
 62
     0
 10
6.5405150448910936
 20
46.321855652031893
 30
0.0
 11
5.0037389179927914
 21
47.858631778930189
 31
0.0
  0
LINE
  5
61E
  8
0
 62
     0
 10
16.34513975811749
 20
36.51723093880549
 30
0.0
 11
14.64513975811786
 21
38.21723093880513
 31
0.0
  0
LINE
  5
61F
  8
0
 62
     0
 10
6.3501247049939868
 20
45.9135622505244
 30
0.0
 11
4.8133485780956837
 21
47.45033837742271
 31
0.0
  0
LINE
  5
620
  8
0
 62
     0
 10
15.746456016712949
 20
36.51723093880544
 30
0.0
 11
14.046456016713281
 21
38.21723093880513
 31
0.0
  0
LINE
  5
621
  8
0
 62
     0
 10
6.1597343650968801
 20
45.5052688490169
 30
0.0
 11
4.6229582381985628
 21
47.042044975915211
 31
0.0
  0
LINE
  5
622
  8
0
 62
     0
 10
15.14777227530837
 20
36.517230938805412
 30
0.0
 11
13.447772275308649
 21
38.21723093880513
 31
0.0
  0
LINE
  5
623
  8
0
 62
     0
 10
5.96934402519976
 20
45.096975447509408
 30
0.0
 11
4.4325678983014711
 21
46.633751574407697
 31
0.0
  0
LINE
  5
624
  8
0
 62
     0
 10
14.549088533903779
 20
36.517230938805383
 30
0.0
 11
12.84908853390402
 21
38.217230938805137
 31
0.0
  0
LINE
  5
625
  8
0
 62
     0
 10
5.7789536853026666
 20
44.68868204600188
 30
0.0
 11
4.2421775584043644
 21
46.22545817290019
 31
0.0
  0
LINE
  5
626
  8
0
 62
     0
 10
13.95040479249923
 20
36.517230938805334
 30
0.0
 11
12.25040479249942
 21
38.21723093880513
 31
0.0
  0
LINE
  5
627
  8
0
 62
     0
 10
5.5885633454055457
 20
44.280388644494387
 30
0.0
 11
4.0517872185072434
 21
45.817164771392697
 31
0.0
  0
LINE
  5
628
  8
0
 62
     0
 10
13.351721051094639
 20
36.517230938805298
 30
0.0
 11
11.651721051094819
 21
38.21723093880513
 31
0.0
  0
LINE
  5
629
  8
0
 62
     0
 10
5.3981730055084389
 20
43.872095242986887
 30
0.0
 11
3.861396878610122
 21
45.408871369885212
 31
0.0
  0
LINE
  5
62A
  8
0
 62
     0
 10
12.753037309690081
 20
36.517230938805248
 30
0.0
 11
11.053037309690209
 21
38.21723093880513
 31
0.0
  0
LINE
  5
62B
  8
0
 62
     0
 10
5.2077826656113331
 20
43.463801841479381
 30
0.0
 11
3.6710065387130149
 21
45.000577968377698
 31
0.0
  0
LINE
  5
62C
  8
0
 62
     0
 10
12.154353568285501
 20
36.51723093880522
 30
0.0
 11
10.45435356828561
 21
38.217230938805109
 31
0.0
  0
LINE
  5
62D
  8
0
 62
     0
 10
5.0173923257142121
 20
43.055508439971888
 30
0.0
 11
3.4806161988158939
 21
44.592284566870212
 31
0.0
  0
LINE
  5
62E
  8
0
 62
     0
 10
11.55566982688093
 20
36.517230938805177
 30
0.0
 11
9.8556698268809821
 21
38.21723093880513
 31
0.0
  0
LINE
  5
62F
  8
0
 62
     0
 10
4.8270019858170912
 20
42.647215038464402
 30
0.0
 11
3.2902258589188018
 21
44.183991165362713
 31
0.0
  0
LINE
  5
630
  8
0
 62
     0
 10
10.956986085476339
 20
36.517230938805163
 30
0.0
 11
9.2569860854763704
 21
38.217230938805137
 31
0.0
  0
LINE
  5
631
  8
0
 62
     0
 10
4.6366116459199977
 20
42.238921636956889
 30
0.0
 11
3.0998355190216809
 21
43.77569776385522
 31
0.0
  0
LINE
  5
632
  8
0
 62
     0
 10
10.35830234407176
 20
36.517230938805127
 30
0.0
 11
8.6583023440717568
 21
38.21723093880513
 31
0.0
  0
LINE
  5
633
  8
0
 62
     0
 10
4.446221306022891
 20
41.830628235449382
 30
0.0
 11
2.9094451791245741
 21
43.367404362347692
 31
0.0
  0
LINE
  5
634
  8
0
 62
     0
 10
9.7596186026672012
 20
36.517230938805071
 30
0.0
 11
8.0596186026671433
 21
38.21723093880513
 31
0.0
  0
LINE
  5
635
  8
0
 62
     0
 10
4.2558309661257852
 20
41.422334833941868
 30
0.0
 11
2.7190548392274669
 21
42.959110960840192
 31
0.0
  0
LINE
  5
636
  8
0
 62
     0
 10
9.1609348612626036
 20
36.517230938805064
 30
0.0
 11
7.460934861262543
 21
38.217230938805123
 31
0.0
  0
LINE
  5
637
  8
0
 62
     0
 10
4.0654406262286784
 20
41.014041432434382
 30
0.0
 11
2.5286644993303611
 21
42.550817559332707
 31
0.0
  0
LINE
  5
638
  8
0
 62
     0
 10
8.5622511198580611
 20
36.517230938805007
 30
0.0
 11
6.8622511198579579
 21
38.217230938805109
 31
0.0
  0
LINE
  5
639
  8
0
 62
     0
 10
3.875050286331557
 20
40.605748030926897
 30
0.0
 11
2.3382741594332401
 21
42.142524157825207
 31
0.0
  0
LINE
  5
63A
  8
0
 62
     0
 10
7.9635673784534902
 20
36.517230938804971
 30
0.0
 11
6.263567378453331
 21
38.21723093880513
 31
0.0
  0
LINE
  5
63B
  8
0
 62
     0
 10
3.684659946434464
 20
40.197454629419369
 30
0.0
 11
2.1478838195361192
 21
41.734230756317722
 31
0.0
  0
LINE
  5
63C
  8
0
 62
     0
 10
7.3648836370489192
 20
36.517230938804921
 30
0.0
 11
5.6648836370487166
 21
38.21723093880513
 31
0.0
  0
LINE
  5
63D
  8
0
 62
     0
 10
3.4942696065373582
 20
39.789161227911869
 30
0.0
 11
1.957493479639026
 21
41.325937354810208
 31
0.0
  0
LINE
  5
63E
  8
0
 62
     0
 10
6.7661998956443341
 20
36.5172309388049
 30
0.0
 11
5.0661998956441181
 21
38.21723093880513
 31
0.0
  0
LINE
  5
63F
  8
0
 62
     0
 10
3.3038792666402368
 20
39.380867826404383
 30
0.0
 11
1.767103139741919
 21
40.917643953302701
 31
0.0
  0
LINE
  5
640
  8
0
 62
     0
 10
6.1675161542397481
 20
36.517230938804872
 30
0.0
 11
4.4675161542394903
 21
38.21723093880513
 31
0.0
  0
LINE
  5
641
  8
0
 62
     0
 10
3.1134889267431438
 20
38.972574424896877
 30
0.0
 11
1.5767127998448129
 21
40.509350551795208
 31
0.0
  0
LINE
  5
642
  8
0
 62
     0
 10
5.5688324128352056
 20
36.517230938804822
 30
0.0
 11
3.8688324128348901
 21
38.217230938805137
 31
0.0
  0
LINE
  5
643
  8
0
 62
     0
 10
4.9701486714306213
 20
36.517230938804794
 30
0.0
 11
1.386322459947706
 21
40.101057150287701
 31
0.0
  0
LINE
  5
644
  8
0
 62
     0
 10
4.3714649300260504
 20
36.517230938804751
 30
0.0
 11
1.195932120050585
 21
39.692763748780209
 31
0.0
  0
LINE
  5
645
  8
0
 62
     0
 10
3.772781188621479
 20
36.517230938804708
 30
0.0
 11
1.005541780153492
 21
39.284470347272709
 31
0.0
  0
LINE
  5
646
  8
0
 62
     0
 10
3.1740974472169081
 20
36.517230938804673
 30
0.0
 11
0.8151514402563719
 21
38.876176945765224
 31
0.0
  0
LINE
  5
647
  8
0
 62
     0
 10
2.575413705812323
 20
36.517230938804637
 30
0.0
 11
0.6247611003592654
 21
38.467883544257703
 31
0.0
  0
LINE
  5
648
  8
0
 62
     0
 10
1.9767299644077381
 20
36.517230938804602
 30
0.0
 11
0.4343707604621443
 21
38.059590142750203
 31
0.0
  0
LINE
  5
649
  8
0
 62
     0
 10
1.3780462230031669
 20
36.517230938804587
 30
0.0
 11
0.2439804205650233
 21
37.651296741242717
 31
0.0
  0
LINE
  5
64A
  8
0
 62
     0
 10
0.7793624815985965
 20
36.517230938804531
 30
0.0
 11
0.0535900806679166
 21
37.24300333973521
 31
0.0
  0
ENDBLK
  5
64C
  8
0
  0
BLOCK
  8
0
  2
*U3
 70
     1
 10
0.0
 20
0.0
 30
0.0
  3
*U3
  1

  0
ARC
  5
64E
  8
0
 10
89.230539759783184
 20
84.317230938806105
 30
0.0
 40
0.5
 50
89.999999999999986
 51
180.0
  0
LINE
  5
64F
  8
0
 10
89.230539759783184
 20
84.817230938806119
 30
0.0
 11
99.530539759783323
 21
84.817230938806063
 31
0.0
  0
ARC
  5
650
  8
0
 10
99.530539759783323
 20
84.317230938806063
 30
0.0
 40
0.5
 50
0.0
 51
90.0
  0
LINE
  5
651
  8
0
 10
100.0305397597833
 20
84.317230938806063
 30
0.0
 11
100.0305397597833
 21
72.217230938806154
 31
0.0
  0
LINE
  5
652
  8
0
 10
100.0305397597833
 20
72.217230938806154
 30
0.0
 11
88.830539759783264
 21
72.217230938806253
 31
0.0
  0
ARC
  5
653
  8
0
 10
88.830539759783264
 20
71.717230938806253
 30
0.0
 40
0.5
 50
90.0
 51
180.00000000000651
  0
LINE
  5
654
  8
0
 10
88.330539759783278
 20
71.71723093880621
 30
0.0
 11
88.330539759783392
 21
51.31723093880629
 31
0.0
  0
ARC
  5
655
  8
0
 10
88.830539759783505
 20
51.317230938806411
 30
0.0
 40
0.5000000000001137
 50
180.0
 51
269.99999999996089
  0
LINE
  5
656
  8
0
 10
88.830539759783264
 20
50.81723093880629
 30
0.0
 11
100.0305397597833
 21
50.817230938806112
 31
0.0
  0
LINE
  5
657
  8
0
 10
100.0305397597833
 20
50.817230938806112
 30
0.0
 11
100.0305397597832
 21
38.817230938806119
 31
0.0
  0
ARC
  5
658
  8
0
 10
99.540662742112431
 20
38.7171284535317
 30
0.0
 40
0.5000000000000713
 50
268.8399124105668
 51
11.548945404923259
  0
LINE
  5
659
  8
0
 10
99.530539759783323
 20
38.217230938806161
 30
0.0
 11
89.330539759783278
 21
38.21723093880621
 31
0.0
  0
ARC
  5
65A
  8
0
 10
89.21762262912199
 20
38.704313808145002
 30
0.0
 40
0.5000000000000762
 50
166.94805943134691
 51
283.05194056865952
  0
LINE
  5
65B
  8
0
 10
88.730539759783198
 20
38.817230938806183
 30
0.0
 11
88.730539759783198
 21
40.817230938806183
 31
0.0
  0
ARC
  5
65C
  8
0
 10
88.238992165041054
 20
40.725683344064059
 30
0.0
 40
0.4999999999999191
 50
10.55009801203679
 51
79.449901987955613
  0
LINE
  5
65D
  8
0
 10
88.330539759783278
 20
41.217230938806203
 30
0.0
 11
69.730539759783653
 21
41.217230938806267
 31
0.0
  0
ARC
  5
65E
  8
0
 10
69.83043811654818
 20
40.727312253394693
 30
0.0
 40
0.4999999999996393
 50
101.5250716486216
 51
181.15531184319281
  0
LINE
  5
65F
  8
0
 10
69.330539759783733
 20
40.717230938806367
 30
0.0
 11
69.330539759783733
 21
38.717230938806502
 31
0.0
  0
ARC
  5
660
  8
0
 10
68.830539759784017
 20
38.71723093880599
 30
0.0
 40
0.4999999999997158
 50
270.0
 51
0.0000000000585931
  0
LINE
  5
661
  8
0
 10
68.830539759783733
 20
38.217230938806267
 30
0.0
 11
57.230539759783021
 21
38.21723093880621
 31
0.0
  0
ARC
  5
662
  8
0
 10
57.220416777453693
 20
38.717128453531757
 30
0.0
 40
0.5000000000000203
 50
168.45105459507411
 51
271.16008758945929
  0
LINE
  5
663
  8
0
 10
56.730539759783021
 20
38.817230938806183
 30
0.0
 11
56.730539759783142
 21
40.817230938806183
 31
0.0
  0
ARC
  5
664
  8
0
 10
56.238992165041793
 20
40.725683344057749
 30
0.0
 40
0.5000000000001803
 50
10.55009801276665
 51
79.44990198806758
  0
LINE
  5
665
  8
0
 10
56.3305397597831
 20
41.217230938800348
 30
0.0
 11
37.730539759784278
 21
41.217230938800348
 31
0.0
  0
ARC
  5
666
  8
0
 10
37.822087354526623
 20
40.725683344057977
 30
0.0
 40
0.5000000000001285
 50
100.5500980120588
 51
169.44990198794761
  0
LINE
  5
667
  8
0
 10
37.330539759784301
 20
40.817230938800257
 30
0.0
 11
37.330539759784422
 21
38.817230938800378
 31
0.0
  0
ARC
  5
668
  8
0
 10
36.843456890444372
 20
38.70431380814432
 30
0.0
 40
0.5000000000001389
 50
256.94805943149049
 51
13.05194056804957
  0
LINE
  5
669
  8
0
 10
36.730539759784392
 20
38.21723093880513
 30
0.0
 11
3.5461092631995821
 21
38.21723093880513
 31
0.0
  0
ARC
  5
66A
  8
0
 10
3.5461092632000368
 20
38.717230938805358
 30
0.0
 40
0.5000000000001439
 50
154.99999999994199
 51
269.99999999994787
  0
LINE
  5
66B
  8
0
 10
3.0929553696818171
 20
38.928540069676217
 30
0.0
 11
8.4121967825401498
 21
50.3356900914115
 31
0.0
  0
ARC
  5
66C
  8
0
 10
8.8653506760585952
 20
50.124380960541487
 30
0.0
 40
0.5000000000000103
 50
65.000000000015191
 51
155.00000000003561
  0
LINE
  5
66D
  8
0
 10
9.0766598069288875
 20
50.57753485405982
 30
0.0
 11
12.36093360501309
 21
49.046052830535302
 31
0.0
  0
LINE
  5
66E
  8
0
 10
12.36093360501309
 20
49.046052830535302
 30
0.0
 11
22.16416738041676
 21
48.188381009294183
 31
0.0
  0
ARC
  5
66F
  8
0
 10
22.20774525179047
 20
48.686478358339961
 30
0.0
 40
0.4999999999999102
 50
265.00000000001239
 51
335.00000000001239
  0
LINE
  5
670
  8
0
 10
22.6608991453088
 20
48.475169227469728
 30
0.0
 11
29.392737023390971
 21
62.911642144765153
 31
0.0
  0
ARC
  5
671
  8
0
 10
28.939583129874912
 20
63.122951275645221
 30
0.0
 40
0.500000000002054
 50
334.99999999888098
 51
44.999999995914543
  0
LINE
  5
672
  8
0
 10
29.29313652049473
 20
63.47650466621468
 30
0.0
 11
22.33472458212248
 21
70.434916604587045
 31
0.0
  0
LINE
  5
673
  8
0
 10
22.33472458212248
 20
70.434916604587045
 30
0.0
 11
19.05045078400769
 21
71.966398628124978
 31
0.0
  0
ARC
  5
674
  8
0
 10
19.26175991487889
 20
72.419552521643311
 30
0.0
 40
0.500000000000346
 50
154.99999999971959
 51
244.99999999991209
  0
LINE
  5
675
  8
0
 10
18.808606021361239
 20
72.630861652516046
 30
0.0
 11
24.35658458154705
 21
84.528540069676524
 31
0.0
  0
ARC
  5
676
  8
0
 10
24.809738475065501
 20
84.317230938806176
 30
0.0
 40
0.500000000000057
 50
90.000000000013017
 51
155.00000000000341
  0
LINE
  5
677
  8
0
 10
24.809738475065391
 20
84.817230938806304
 30
0.0
 11
36.830539759784422
 21
84.817230938806304
 31
0.0
  0
ARC
  5
678
  8
0
 10
36.830539759784422
 20
84.31723093880629
 30
0.0
 40
0.5
 50
0.0
 51
90.000000000006509
  0
LINE
  5
679
  8
0
 10
37.330539759784422
 20
84.317230938806176
 30
0.0
 11
37.330539759784301
 21
82.217230938812122
 31
0.0
  0
ARC
  5
67A
  8
0
 10
37.822087354526623
 20
82.308778533554403
 30
0.0
 40
0.500000000000118
 50
190.5500980120523
 51
259.44990198794108
  0
LINE
  5
67B
  8
0
 10
37.730539759784278
 20
81.817230938812074
 30
0.0
 11
56.3305397597831
 21
81.817230938812074
 31
0.0
  0
ARC
  5
67C
  8
0
 10
56.238992165041793
 20
82.308778533554644
 30
0.0
 40
0.5000000000001541
 50
280.55009801193353
 51
349.4499019872332
  0
LINE
  5
67D
  8
0
 10
56.730539759783142
 20
82.21723093880621
 30
0.0
 11
56.730539759783021
 21
84.317230938806176
 31
0.0
  0
ARC
  5
67E
  8
0
 10
57.230539759783021
 20
84.317230938806176
 30
0.0
 40
0.5
 50
89.999999999999986
 51
180.0
  0
LINE
  5
67F
  8
0
 10
57.230539759783021
 20
84.817230938806176
 30
0.0
 11
68.830539759784017
 21
84.817230938806176
 31
0.0
  0
ARC
  5
680
  8
0
 10
68.830539759784017
 20
84.317230938806404
 30
0.0
 40
0.4999999999997158
 50
0.0
 51
90.000000000058634
  0
LINE
  5
681
  8
0
 10
69.330539759783733
 20
84.317230938805906
 30
0.0
 11
69.330539759783733
 21
82.317230938806063
 31
0.0
  0
ARC
  5
682
  8
0
 10
69.83043811654818
 20
82.307149624217686
 30
0.0
 40
0.4999999999996233
 50
178.84468815680731
 51
258.47492835137729
  0
LINE
  5
683
  8
0
 10
69.730539759783653
 20
81.817230938806176
 30
0.0
 11
88.230539759783198
 21
81.817230938806176
 31
0.0
  0
ARC
  5
684
  8
0
 10
88.230539759783198
 20
82.317230938806176
 30
0.0
 40
0.5
 50
270.0
 51
0.0
  0
LINE
  5
685
  8
0
 10
88.730539759783198
 20
82.317230938806176
 30
0.0
 11
88.730539759783198
 21
84.317230938806105
 31
0.0
  0
LINE
  5
686
  8
0
 10
101.5305397597832
 20
86.517230938805938
 30
0.0
 11
87.53053975978321
 21
86.517230938806165
 31
0.0
  0
ARC
  5
687
  8
0
 10
87.530539759783437
 20
86.017230938805994
 30
0.0
 40
0.5000000000001706
 50
90.000000000032571
 51
179.99999999998039
  0
LINE
  5
688
  8
0
 10
87.030539759783323
 20
84.017230938806222
 30
0.0
 11
87.030539759783323
 21
86.017230938806165
 31
0.0
  0
ARC
  5
689
  8
0
 10
86.530539759783224
 20
84.017230938806165
 30
0.0
 40
0.5000000000001137
 50
270.00000000002598
 51
0.0000000000064748
  0
LINE
  5
68A
  8
0
 10
71.530539759783608
 20
83.517230938806165
 30
0.0
 11
86.53053975978338
 21
83.517230938806108
 31
0.0
  0
ARC
  5
68B
  8
0
 10
71.530539759783608
 20
84.017230938805994
 30
0.0
 40
0.4999999999998864
 50
180.0
 51
270.00000000001961
  0
LINE
  5
68C
  8
0
 10
71.030539759783665
 20
86.017230938806222
 30
0.0
 11
71.030539759783665
 21
84.017230938806165
 31
0.0
  0
ARC
  5
68D
  8
0
 10
70.530539759783551
 20
86.017230938805994
 30
0.0
 40
0.5000000000001137
 50
0.0
 51
89.999999999967429
  0
LINE
  5
68E
  8
0
 10
55.530539759783089
 20
86.517230938806094
 30
0.0
 11
70.530539759783551
 21
86.517230938806094
 31
0.0
  0
ARC
  5
68F
  8
0
 10
55.530539759783089
 20
86.017230938806108
 30
0.0
 40
0.5
 50
90.0
 51
180.0
  0
LINE
  5
690
  8
0
 10
55.030539759783103
 20
84.017230938806222
 30
0.0
 11
55.030539759783103
 21
86.017230938806108
 31
0.0
  0
ARC
  5
691
  8
0
 10
54.530539759782918
 20
84.017230938806165
 30
0.0
 40
0.5000000000001137
 50
270.00000000003263
 51
0.0000000000064748
  0
LINE
  5
692
  8
0
 10
47.384093150375968
 20
83.517230938806165
 30
0.0
 11
54.530539759783203
 21
83.517230938806108
 31
0.0
  0
LINE
  5
693
  8
0
 10
47.207316455077709
 20
83.694007634104366
 30
0.0
 11
47.384093150375968
 21
83.517230938806165
 31
0.0
  0
ARC
  5
694
  8
0
 10
47.03053975978105
 20
83.517230938807757
 30
0.0
 40
0.250000000000002
 50
44.999999999990777
 51
134.99999999932751
  0
LINE
  5
695
  8
0
 10
46.676986369187311
 20
83.517230938811466
 30
0.0
 11
46.853763064486479
 21
83.69400763410647
 31
0.0
  0
LINE
  5
696
  8
0
 10
46.384093150487388
 20
83.517230938809746
 30
0.0
 11
46.676986369187311
 21
83.517230938811466
 31
0.0
  0
LINE
  5
697
  8
0
 10
46.207316455141893
 20
83.694007634155113
 30
0.0
 11
46.384093150487388
 21
83.517230938809746
 31
0.0
  0
ARC
  5
698
  8
0
 10
46.030539759845389
 20
83.517230938858646
 30
0.0
 40
0.2499999999998814
 50
45.0
 51
134.99999999985261
  0
LINE
  5
699
  8
0
 10
45.676986369206134
 20
83.517230938813611
 30
0.0
 11
45.853763064549291
 21
83.694007634155582
 31
0.0
  0
LINE
  5
69A
  8
0
 10
39.530539759784119
 20
83.517230938812077
 30
0.0
 11
45.676986369206134
 21
83.517230938813611
 31
0.0
  0
ARC
  5
69B
  8
0
 10
39.530539759784119
 20
84.017230938812006
 30
0.0
 40
0.4999999999998864
 50
180.0
 51
270.00000000003263
  0
LINE
  5
69C
  8
0
 10
39.030539759784233
 20
86.017230938806165
 30
0.0
 11
39.030539759784233
 21
84.017230938812304
 31
0.0
  0
ARC
  5
69D
  8
0
 10
38.53053975978424
 20
86.017230938806165
 30
0.0
 40
0.5
 50
0.0
 51
90.0
  0
LINE
  5
69E
  8
0
 10
38.53053975978424
 20
86.517230938806165
 30
0.0
 11
23.39570565600377
 21
86.517230938806165
 31
0.0
  0
ARC
  5
69F
  8
0
 10
23.39570565600388
 20
86.017230938806165
 30
0.0
 40
0.500000000000057
 50
90.000000000013031
 51
155.0000000000006
  0
LINE
  5
6A0
  8
0
 10
22.94255176248555
 20
86.228540069676512
 30
0.0
 11
14.227840832886271
 21
67.539782170905312
 31
0.0
  0
ARC
  5
6A1
  8
0
 10
14.68099472640449
 20
67.328473040034964
 30
0.0
 40
0.4999999999999553
 50
154.9999999999979
 51
245.00000000001839
  0
LINE
  5
6A2
  8
0
 10
14.46968559553431
 20
66.875319146516574
 30
0.0
 11
17.18860895664363
 21
65.607464361295627
 31
0.0
  0
ARC
  5
6A3
  8
0
 10
17.399918087513811
 20
66.060618254814131
 30
0.0
 40
0.5000000000001134
 50
245.0000000000266
 51
334.99999999998261
  0
LINE
  5
6A4
  8
0
 10
17.853071981032251
 20
65.849309123943556
 30
0.0
 11
19.480152288733851
 21
69.338594104034144
 31
0.0
  0
ARC
  5
6A5
  8
0
 10
19.93330618225184
 20
69.127284973163214
 30
0.0
 40
0.5000000000000446
 50
65.000000000055721
 51
154.99999999992511
  0
LINE
  5
6A6
  8
0
 10
20.14461531312179
 20
69.580438866681845
 30
0.0
 11
21.344602460516739
 21
69.020875670164173
 31
0.0
  0
LINE
  5
6A7
  8
0
 10
21.344602460516739
 20
69.020875670164173
 30
0.0
 11
27.24934844502889
 21
63.116129685652197
 31
0.0
  0
ARC
  5
6A8
  8
0
 10
26.895795054401109
 20
62.762576295092401
 30
0.0
 40
0.5000000000006306
 50
334.99999999824428
 51
44.999999994491283
  0
LINE
  5
6A9
  8
0
 10
27.348948947913531
 20
62.551267164207843
 30
0.0
 11
21.623240744861501
 21
50.272446297944889
 31
0.0
  0
ARC
  5
6AA
  8
0
 10
21.170086851343399
 20
50.483755428814789
 30
0.0
 40
0.4999999999995584
 50
264.99999999995657
 51
335.00000000003422
  0
LINE
  5
6AB
  8
0
 10
21.12650897996923
 20
49.985658079769387
 30
0.0
 11
12.8077135733148
 21
50.713458372042112
 31
0.0
  0
LINE
  5
6AC
  8
0
 10
12.8077135733148
 20
50.713458372042112
 30
0.0
 11
11.60772642596123
 21
51.2730215685404
 31
0.0
  0
ARC
  5
6AD
  8
0
 10
11.81903555683186
 20
51.726175462058841
 30
0.0
 40
0.5000000000002025
 50
154.9999999999707
 51
244.99999999997669
  0
LINE
  5
6AE
  8
0
 10
11.365881663313409
 20
51.937484592929543
 30
0.0
 11
12.992961971014999
 21
55.426769573020408
 31
0.0
  0
ARC
  5
6AF
  8
0
 10
12.539808077496559
 20
55.638078703890692
 30
0.0
 40
0.5000000000000857
 50
335.00000000001211
 51
64.999999999982975
  0
LINE
  5
6B0
  8
0
 10
12.75111720836707
 20
56.091232597409032
 30
0.0
 11
9.9938916251011278
 21
57.376948002146889
 31
0.0
  0
ARC
  5
6B1
  8
0
 10
9.7825824942308373
 20
56.923794108628442
 30
0.0
 40
0.5000000000000857
 50
65.000000000012065
 51
154.99999999998289
  0
LINE
  5
6B2
  8
0
 10
9.3294286007125038
 20
57.13510323949896
 30
0.0
 11
0.0468457470773274
 21
37.228540069675937
 31
0.0
  0
ARC
  5
6B3
  8
0
 10
0.4999996405960019
 20
37.017230938805092
 30
0.0
 40
0.500000000000556
 50
154.99999999996399
 51
269.99999999994787
  0
LINE
  5
6B4
  8
0
 10
0.4999996405955472
 20
36.517230938804524
 30
0.0
 11
38.53053975978424
 21
36.517230938806847
 31
0.0
  0
ARC
  5
6B5
  8
0
 10
38.530539759784119
 20
37.017230938807018
 30
0.0
 40
0.5000000000001706
 50
270.00000000001302
 51
359.9999999992184
  0
LINE
  5
6B6
  8
0
 10
39.030539759784233
 20
37.017230938800203
 30
0.0
 11
39.030539759784233
 21
39.01723093880031
 31
0.0
  0
ARC
  5
6B7
  8
0
 10
39.530539759784119
 20
39.017230938800417
 30
0.0
 40
0.4999999999998864
 50
90.0
 51
180.00000000001299
  0
LINE
  5
6B8
  8
0
 10
39.530539759784119
 20
39.51723093880031
 30
0.0
 11
45.676986369206134
 21
39.517230938798832
 31
0.0
  0
LINE
  5
6B9
  8
0
 10
45.676986369206134
 20
39.517230938798832
 30
0.0
 11
45.853763064549177
 21
39.340454243456811
 31
0.0
  0
ARC
  5
6BA
  8
0
 10
46.030539759845389
 20
39.517230938753812
 30
0.0
 40
0.2499999999998814
 50
225.00000000014739
 51
314.99999999999079
  0
LINE
  5
6BB
  8
0
 10
46.207316455141893
 20
39.340454243457259
 30
0.0
 11
46.384093150487388
 21
39.517230938802697
 31
0.0
  0
LINE
  5
6BC
  8
0
 10
46.384093150487388
 20
39.517230938802697
 30
0.0
 11
46.676986369187311
 21
39.517230938800992
 31
0.0
  0
LINE
  5
6BD
  8
0
 10
46.676986369187311
 20
39.517230938800992
 30
0.0
 11
46.853763064486543
 21
39.340454243506031
 31
0.0
  0
ARC
  5
6BE
  8
0
 10
47.03053975978105
 20
39.51723093880463
 30
0.0
 40
0.250000000000002
 50
225.00000000067249
 51
315.00000000000921
  0
LINE
  5
6BF
  8
0
 10
47.207316455077709
 20
39.340454243508077
 30
0.0
 11
47.384093150375968
 21
39.517230938806222
 31
0.0
  0
LINE
  5
6C0
  8
0
 10
47.384093150375968
 20
39.517230938806222
 30
0.0
 11
54.530539759783103
 21
39.517230938806222
 31
0.0
  0
ARC
  5
6C1
  8
0
 10
54.530539759782918
 20
39.017230938806222
 30
0.0
 40
0.5000000000001137
 50
0.0
 51
89.99999999998046
  0
LINE
  5
6C2
  8
0
 10
55.030539759783103
 20
39.017230938806172
 30
0.0
 11
55.030539759783103
 21
37.017230938806343
 31
0.0
  0
ARC
  5
6C3
  8
0
 10
55.530539759782933
 20
37.017230938806222
 30
0.0
 40
0.4999999999998864
 50
180.0
 51
270.00000000002598
  0
LINE
  5
6C4
  8
0
 10
55.53053975978321
 20
36.517230938806328
 30
0.0
 11
70.530539759783665
 21
36.517230938806222
 31
0.0
  0
ARC
  5
6C5
  8
0
 10
70.530539759783551
 20
37.017230938806449
 30
0.0
 40
0.5000000000001137
 50
270.00000000001302
 51
359.99999999996749
  0
LINE
  5
6C6
  8
0
 10
71.030539759783665
 20
37.017230938806158
 30
0.0
 11
71.030539759783665
 21
39.017230938806222
 31
0.0
  0
ARC
  5
6C7
  8
0
 10
71.530539759783608
 20
39.017230938806392
 30
0.0
 40
0.4999999999998864
 50
90.0
 51
180.0000000000195
  0
LINE
  5
6C8
  8
0
 10
71.530539759783608
 20
39.517230938806222
 30
0.0
 11
86.530539759783323
 21
39.517230938806222
 31
0.0
  0
ARC
  5
6C9
  8
0
 10
86.530539759783224
 20
39.017230938806222
 30
0.0
 40
0.5000000000001137
 50
0.0
 51
89.99999999998046
  0
LINE
  5
6CA
  8
0
 10
87.030539759783323
 20
39.017230938806172
 30
0.0
 11
87.030539759783323
 21
37.017230938806222
 31
0.0
  0
ARC
  5
6CB
  8
0
 10
87.530539759783437
 20
37.017230938806399
 30
0.0
 40
0.5000000000001706
 50
180.00000000000651
 51
269.99999999995441
  0
LINE
  5
6CC
  8
0
 10
87.53053975978321
 20
36.517230938806222
 30
0.0
 11
100.1516512472556
 21
36.517230938806172
 31
0.0
  0
ARC
  5
6CD
  8
0
 10
100.1516512472554
 20
36.017230938806108
 30
0.0
 40
0.5000000000000857
 50
335.00000000001211
 51
89.999999999986969
  0
LINE
  5
6CE
  8
0
 10
100.60480514077391
 20
35.805921807935761
 30
0.0
 11
84.509155876122634
 21
1.288690569796642
 31
0.0
  0
ARC
  5
6CF
  8
0
 10
84.056001982604414
 20
1.4999997006665919
 30
0.0
 40
0.4999999999997158
 50
269.99999999998698
 51
335.00000000003638
  0
LINE
  5
6D0
  8
0
 10
84.056001982604243
 20
0.9999997006669332
 30
0.0
 11
56.011607373815536
 21
0.9999997006670469
 31
0.0
  0
LINE
  5
6D1
  8
0
 10
56.011607373815536
 20
0.9999997006670469
 30
0.0
 11
56.011607373815536
 21
5.6999997006670924
 31
0.0
  0
ARC
  5
6D2
  8
0
 10
55.711607373815689
 20
5.6999997006670924
 30
0.0
 40
0.2999999999999545
 50
0.0000000000108563
 51
90.000000000010871
  0
LINE
  5
6D3
  8
0
 10
55.711607373815689
 20
5.999999700667046
 30
0.0
 11
55.311607373815598
 21
5.999999700667046
 31
0.0
  0
ARC
  5
6D4
  8
0
 10
55.31160737381537
 20
5.6999997006670924
 30
0.0
 40
0.2999999999999545
 50
90.0
 51
180.00000000005431
  0
LINE
  5
6D5
  8
0
 10
55.011607373815423
 20
5.6999997006668082
 30
0.0
 11
55.011607373815529
 21
0.2999997006671151
 31
0.0
  0
ARC
  5
6D6
  8
0
 10
55.311607373815441
 20
0.2999997006670014
 30
0.0
 40
0.2999999999999545
 50
180.0
 51
270.00000000003263
  0
LINE
  5
6D7
  8
0
 10
55.311607373815598
 20
-0.0000002993329531
 30
0.0
 11
84.693072243411834
 21
-0.0000002993329531
 31
0.0
  0
ARC
  5
6D8
  8
0
 10
84.693072243411734
 20
0.4999997006671606
 30
0.0
 40
0.5000000000001137
 50
270.00000000001302
 51
334.999999999983
  0
LINE
  5
6D9
  8
0
 10
85.146226136930053
 20
0.2886905697966426
 30
0.0
 11
102.00243209589441
 21
36.436940902329752
 31
0.0
  0
ARC
  5
6DA
  8
0
 10
101.7305397597805
 20
36.563726380852643
 30
0.0
 40
0.3000000000027343
 50
335.0000000001138
 51
359.99999999985891
  0
LINE
  5
6DB
  8
0
 10
102.0305397597833
 20
36.563726380851911
 30
0.0
 11
102.0305397597833
 21
55.517230938806172
 31
0.0
  0
ARC
  5
6DC
  8
0
 10
101.5305397597831
 20
55.517230938806051
 30
0.0
 40
0.5000000000001706
 50
0.0
 51
89.999999999954397
  0
LINE
  5
6DD
  8
0
 10
101.53053975978339
 20
56.017230938806158
 30
0.0
 11
98.530539759783323
 21
56.017230938806158
 31
0.0
  0
ARC
  5
6DE
  8
0
 10
98.53053975978321
 20
55.517230938806328
 30
0.0
 40
0.4999999999998864
 50
90.0
 51
180.00000000003249
  0
LINE
  5
6DF
  8
0
 10
98.030539759783323
 20
55.517230938806051
 30
0.0
 11
98.030539759783323
 21
53.017230938806172
 31
0.0
  0
ARC
  5
6E0
  8
0
 10
97.530539759783153
 20
53.017230938806328
 30
0.0
 40
0.5000000000001706
 50
270.0
 51
359.99999999996089
  0
LINE
  5
6E1
  8
0
 10
97.530539759783153
 20
52.517230938806172
 30
0.0
 11
90.530539759783323
 21
52.517230938806172
 31
0.0
  0
ARC
  5
6E2
  8
0
 10
90.530539759783196
 20
53.01723093880593
 30
0.0
 40
0.4999999999998864
 50
180.0
 51
270.00000000001961
  0
LINE
  5
6E3
  8
0
 10
90.030539759783323
 20
53.017230938806101
 30
0.0
 11
90.030539759783323
 21
70.017230938806222
 31
0.0
  0
ARC
  5
6E4
  8
0
 10
90.530539759783196
 20
70.017230938806264
 30
0.0
 40
0.4999999999998864
 50
90.0
 51
180.00000000001299
  0
LINE
  5
6E5
  8
0
 10
90.530539759783196
 20
70.517230938806094
 30
0.0
 11
97.530539759783323
 21
70.517230938806094
 31
0.0
  0
ARC
  5
6E6
  8
0
 10
97.530539759783395
 20
70.017230938806165
 30
0.0
 40
0.4999999999998864
 50
0.0
 51
90.0
  0
LINE
  5
6E7
  8
0
 10
98.030539759783323
 20
70.017230938806165
 30
0.0
 11
98.030539759783323
 21
67.517230938806165
 31
0.0
  0
ARC
  5
6E8
  8
0
 10
98.530539759783395
 20
67.517230938806165
 30
0.0
 40
0.5000000000001137
 50
180.00000000000651
 51
269.99999999998039
  0
LINE
  5
6E9
  8
0
 10
98.53053975978321
 20
67.017230938806051
 30
0.0
 11
101.5305397597832
 21
67.017230938806165
 31
0.0
  0
ARC
  5
6EA
  8
0
 10
101.5305397597833
 20
67.517230938806051
 30
0.0
 40
0.4999999999998864
 50
270.0
 51
0.0000000000260592
  0
LINE
  5
6EB
  8
0
 10
102.0305397597832
 20
67.517230938806264
 30
0.0
 11
102.0305397597832
 21
86.017230938805923
 31
0.0
  0
ARC
  5
6EC
  8
0
 10
101.5305397597832
 20
86.017230938805923
 30
0.0
 40
0.5
 50
0.0
 51
90.0
  0
ENDBLK
  5
6EE
  8
0
  0
ENDSEC
  0
SECTION
  2
ENTITIES
  0
ARC
  5
26B
  8
0
 10
2692.1584741224751
 20
1392.3147933625171
 30
0.0
 40
0.5
 50
89.999999999999986
 51
180.0
  0
LINE
  5
26C
  8
0
 10
2692.1584741224751
 20
1392.8147933625171
 30
0.0
 11
2702.4584741224749
 21
1392.8147933625171
 31
0.0
  0
ARC
  5
26D
  8
0
 10
2702.4584741224749
 20
1392.3147933625171
 30
0.0
 40
0.5
 50
0.0
 51
90.0
  0
LINE
  5
26E
  8
0
 10
2702.9584741224749
 20
1392.3147933625171
 30
0.0
 11
2702.9584741224749
 21
1380.214793362517
 31
0.0
  0
LINE
  5
26F
  8
0
 10
2702.9584741224749
 20
1380.214793362517
 30
0.0
 11
2691.758474122475
 21
1380.214793362517
 31
0.0
  0
ARC
  5
270
  8
0
 10
2691.758474122475
 20
1379.7147933625181
 30
0.0
 40
0.5
 50
90.0
 51
180.00000000000651
  0
LINE
  5
271
  8
0
 10
2691.258474122475
 20
1379.714793362517
 30
0.0
 11
2691.258474122475
 21
1359.3147933625171
 31
0.0
  0
ARC
  5
272
  8
0
 10
2691.758474122475
 20
1359.314793362518
 30
0.0
 40
0.5000000000001137
 50
180.0
 51
269.99999999996089
  0
LINE
  5
273
  8
0
 10
2691.758474122475
 20
1358.8147933625171
 30
0.0
 11
2702.9584741224749
 21
1358.8147933625171
 31
0.0
  0
LINE
  5
274
  8
0
 10
2702.9584741224749
 20
1358.8147933625171
 30
0.0
 11
2702.9584741224749
 21
1346.8147933625171
 31
0.0
  0
ARC
  5
275
  8
0
 10
2702.4685971048038
 20
1346.7146908772429
 30
0.0
 40
0.5000000000000713
 50
268.8399124105668
 51
11.548945404923259
  0
LINE
  5
276
  8
0
 10
2702.4584741224749
 20
1346.214793362517
 30
0.0
 11
2692.258474122475
 21
1346.214793362517
 31
0.0
  0
ARC
  5
277
  8
0
 10
2692.1455569918139
 20
1346.701876231856
 30
0.0
 40
0.5000000000000762
 50
166.94805943134691
 51
283.05194056865952
  0
LINE
  5
278
  8
0
 10
2691.6584741224751
 20
1346.8147933625171
 30
0.0
 11
2691.6584741224751
 21
1348.8147933625171
 31
0.0
  0
ARC
  5
279
  8
0
 10
2691.1669265277328
 20
1348.7232457677751
 30
0.0
 40
0.4999999999999191
 50
10.55009801203679
 51
79.449901987955613
  0
LINE
  5
27A
  8
0
 10
2691.258474122475
 20
1349.214793362517
 30
0.0
 11
2672.6584741224751
 21
1349.2147933625181
 31
0.0
  0
ARC
  5
27B
  8
0
 10
2672.7583724792398
 20
1348.7248746771061
 30
0.0
 40
0.4999999999996393
 50
101.5250716486216
 51
181.15531184319281
  0
LINE
  5
27C
  8
0
 10
2672.2584741224759
 20
1348.7147933625181
 30
0.0
 11
2672.2584741224759
 21
1346.7147933625181
 31
0.0
  0
ARC
  5
27D
  8
0
 10
2671.7584741224759
 20
1346.714793362517
 30
0.0
 40
0.4999999999997158
 50
270.0
 51
0.0000000000585931
  0
LINE
  5
27E
  8
0
 10
2671.7584741224759
 20
1346.214793362517
 30
0.0
 11
2660.1584741224751
 21
1346.214793362517
 31
0.0
  0
ARC
  5
27F
  8
0
 10
2660.1483511401461
 20
1346.7146908772429
 30
0.0
 40
0.5000000000000203
 50
168.45105459507411
 51
271.16008758945929
  0
LINE
  5
280
  8
0
 10
2659.6584741224751
 20
1346.8147933625171
 30
0.0
 11
2659.6584741224751
 21
1348.8147933625171
 31
0.0
  0
ARC
  5
281
  8
0
 10
2659.1669265277342
 20
1348.723245767769
 30
0.0
 40
0.5000000000001803
 50
10.55009801276665
 51
79.44990198806758
  0
LINE
  5
282
  8
0
 10
2659.258474122475
 20
1349.214793362512
 30
0.0
 11
2640.6584741224769
 21
1349.214793362512
 31
0.0
  0
ARC
  5
283
  8
0
 10
2640.7500217172192
 20
1348.723245767769
 30
0.0
 40
0.5000000000001285
 50
100.5500980120588
 51
169.44990198794761
  0
LINE
  5
284
  8
0
 10
2640.2584741224759
 20
1348.814793362511
 30
0.0
 11
2640.2584741224759
 21
1346.8147933625121
 31
0.0
  0
ARC
  5
285
  8
0
 10
2639.7713912531358
 20
1346.701876231856
 30
0.0
 40
0.5000000000001389
 50
256.94805943149049
 51
13.05194056804957
  0
LINE
  5
286
  8
0
 10
2639.658474122476
 20
1346.214793362516
 30
0.0
 11
2606.4740436258912
 21
1346.214793362516
 31
0.0
  0
ARC
  5
287
  8
0
 10
2606.4740436258921
 20
1346.714793362516
 30
0.0
 40
0.5000000000001439
 50
154.99999999994199
 51
269.99999999994787
  0
LINE
  5
288
  8
0
 10
2606.0208897323741
 20
1346.926102493388
 30
0.0
 11
2611.3401311452321
 21
1358.3332525151229
 31
0.0
  0
ARC
  5
289
  8
0
 10
2611.7932850387501
 20
1358.121943384253
 30
0.0
 40
0.5000000000000103
 50
65.000000000015191
 51
155.00000000003561
  0
LINE
  5
28A
  8
0
 10
2612.0045941696212
 20
1358.575097277771
 30
0.0
 11
2615.2888679677039
 21
1357.0436152542461
 31
0.0
  0
LINE
  5
28B
  8
0
 10
2615.2888679677039
 20
1357.0436152542461
 30
0.0
 11
2625.0921017431092
 21
1356.1859434330049
 31
0.0
  0
ARC
  5
28C
  8
0
 10
2625.1356796144819
 20
1356.6840407820509
 30
0.0
 40
0.4999999999999102
 50
265.00000000001239
 51
335.00000000001239
  0
LINE
  5
28D
  8
0
 10
2625.5888335080008
 20
1356.472731651181
 30
0.0
 11
2632.3206713860832
 21
1370.9092045684761
 31
0.0
  0
ARC
  5
28E
  8
0
 10
2631.867517492567
 20
1371.120513699356
 30
0.0
 40
0.500000000002054
 50
334.99999999888098
 51
44.999999995914543
  0
LINE
  5
28F
  8
0
 10
2632.2210708831872
 20
1371.4740670899259
 30
0.0
 11
2625.2626589448141
 21
1378.4324790282981
 31
0.0
  0
LINE
  5
290
  8
0
 10
2625.2626589448141
 20
1378.4324790282981
 30
0.0
 11
2621.9783851466991
 21
1379.9639610518359
 31
0.0
  0
ARC
  5
291
  8
0
 10
2622.1896942775711
 20
1380.417114945355
 30
0.0
 40
0.500000000000346
 50
154.99999999971959
 51
244.99999999991209
  0
LINE
  5
292
  8
0
 10
2621.7365403840531
 20
1380.628424076227
 30
0.0
 11
2627.2845189442392
 21
1392.526102493388
 31
0.0
  0
ARC
  5
293
  8
0
 10
2627.7376728377571
 20
1392.3147933625171
 30
0.0
 40
0.500000000000057
 50
90.000000000013017
 51
155.00000000000341
  0
LINE
  5
294
  8
0
 10
2627.7376728377571
 20
1392.8147933625171
 30
0.0
 11
2639.7584741224759
 21
1392.8147933625171
 31
0.0
  0
ARC
  5
295
  8
0
 10
2639.7584741224759
 20
1392.3147933625171
 30
0.0
 40
0.5
 50
0.0
 51
90.000000000006509
  0
LINE
  5
296
  8
0
 10
2640.2584741224759
 20
1392.3147933625171
 30
0.0
 11
2640.2584741224759
 21
1390.2147933625231
 31
0.0
  0
ARC
  5
297
  8
0
 10
2640.7500217172192
 20
1390.306340957266
 30
0.0
 40
0.500000000000118
 50
190.5500980120523
 51
259.44990198794108
  0
LINE
  5
298
  8
0
 10
2640.6584741224769
 20
1389.814793362523
 30
0.0
 11
2659.258474122475
 21
1389.814793362523
 31
0.0
  0
ARC
  5
299
  8
0
 10
2659.1669265277342
 20
1390.306340957266
 30
0.0
 40
0.5000000000001541
 50
280.55009801193353
 51
349.4499019872332
  0
LINE
  5
29A
  8
0
 10
2659.6584741224751
 20
1390.214793362517
 30
0.0
 11
2659.6584741224751
 21
1392.3147933625171
 31
0.0
  0
ARC
  5
29B
  8
0
 10
2660.1584741224751
 20
1392.3147933625171
 30
0.0
 40
0.5
 50
89.999999999999986
 51
180.0
  0
LINE
  5
29C
  8
0
 10
2660.1584741224751
 20
1392.8147933625171
 30
0.0
 11
2671.7584741224759
 21
1392.8147933625171
 31
0.0
  0
ARC
  5
29D
  8
0
 10
2671.7584741224759
 20
1392.3147933625171
 30
0.0
 40
0.4999999999997158
 50
0.0
 51
90.000000000058634
  0
LINE
  5
29E
  8
0
 10
2672.2584741224759
 20
1392.3147933625171
 30
0.0
 11
2672.2584741224759
 21
1390.3147933625171
 31
0.0
  0
ARC
  5
29F
  8
0
 10
2672.7583724792398
 20
1390.3047120479289
 30
0.0
 40
0.4999999999996233
 50
178.84468815680731
 51
258.47492835137729
  0
LINE
  5
2A0
  8
0
 10
2672.6584741224751
 20
1389.8147933625171
 30
0.0
 11
2691.1584741224751
 21
1389.8147933625171
 31
0.0
  0
ARC
  5
2A1
  8
0
 10
2691.1584741224751
 20
1390.3147933625171
 30
0.0
 40
0.5
 50
270.0
 51
0.0
  0
LINE
  5
2A2
  8
0
 10
2691.6584741224751
 20
1390.3147933625171
 30
0.0
 11
2691.6584741224751
 21
1392.3147933625171
 31
0.0
  0
LINE
  5
2A3
  8
0
 10
2704.4584741224749
 20
1394.5147933625169
 30
0.0
 11
2690.4584741224749
 21
1394.5147933625169
 31
0.0
  0
ARC
  5
2A4
  8
0
 10
2690.4584741224749
 20
1394.0147933625169
 30
0.0
 40
0.5000000000001706
 50
90.000000000032571
 51
179.99999999998039
  0
LINE
  5
2A5
  8
0
 10
2689.9584741224749
 20
1392.0147933625169
 30
0.0
 11
2689.9584741224749
 21
1394.0147933625169
 31
0.0
  0
ARC
  5
2A6
  8
0
 10
2689.4584741224749
 20
1392.0147933625169
 30
0.0
 40
0.5000000000001137
 50
270.00000000002598
 51
0.0000000000064748
  0
LINE
  5
2A7
  8
0
 10
2674.4584741224749
 20
1391.514793362518
 30
0.0
 11
2689.4584741224749
 21
1391.5147933625169
 31
0.0
  0
ARC
  5
2A8
  8
0
 10
2674.4584741224749
 20
1392.0147933625169
 30
0.0
 40
0.4999999999998864
 50
180.0
 51
270.00000000001961
  0
LINE
  5
2A9
  8
0
 10
2673.9584741224749
 20
1394.0147933625169
 30
0.0
 11
2673.9584741224749
 21
1392.0147933625169
 31
0.0
  0
ARC
  5
2AA
  8
0
 10
2673.4584741224762
 20
1394.0147933625169
 30
0.0
 40
0.5000000000001137
 50
0.0
 51
89.999999999967429
  0
LINE
  5
2AB
  8
0
 10
2658.4584741224749
 20
1394.5147933625169
 30
0.0
 11
2673.4584741224762
 21
1394.5147933625169
 31
0.0
  0
ARC
  5
2AC
  8
0
 10
2658.4584741224749
 20
1394.0147933625169
 30
0.0
 40
0.5
 50
90.0
 51
180.0
  0
LINE
  5
2AD
  8
0
 10
2657.9584741224749
 20
1392.0147933625169
 30
0.0
 11
2657.9584741224749
 21
1394.0147933625169
 31
0.0
  0
ARC
  5
2AE
  8
0
 10
2657.4584741224749
 20
1392.0147933625169
 30
0.0
 40
0.5000000000001137
 50
270.00000000003263
 51
0.0000000000064748
  0
LINE
  5
2AF
  8
0
 10
2650.3120275130682
 20
1391.514793362518
 30
0.0
 11
2657.4584741224749
 21
1391.5147933625169
 31
0.0
  0
LINE
  5
2B0
  8
0
 10
2650.1352508177688
 20
1391.6915700578161
 30
0.0
 11
2650.3120275130682
 21
1391.514793362518
 31
0.0
  0
ARC
  5
2B1
  8
0
 10
2649.958474122473
 20
1391.514793362519
 30
0.0
 40
0.250000000000002
 50
44.999999999990777
 51
134.99999999932751
  0
LINE
  5
2B2
  8
0
 10
2649.6049207318788
 20
1391.5147933625231
 30
0.0
 11
2649.7816974271782
 21
1391.6915700578179
 31
0.0
  0
LINE
  5
2B3
  8
0
 10
2649.3120275131791
 20
1391.514793362521
 30
0.0
 11
2649.6049207318788
 21
1391.5147933625231
 31
0.0
  0
LINE
  5
2B4
  8
0
 10
2649.1352508178329
 20
1391.6915700578661
 30
0.0
 11
2649.3120275131791
 21
1391.514793362521
 31
0.0
  0
ARC
  5
2B5
  8
0
 10
2648.9584741225372
 20
1391.5147933625699
 30
0.0
 40
0.2499999999998814
 50
45.0
 51
134.99999999985261
  0
LINE
  5
2B6
  8
0
 10
2648.6049207318979
 20
1391.5147933625251
 30
0.0
 11
2648.7816974272409
 21
1391.691570057867
 31
0.0
  0
LINE
  5
2B7
  8
0
 10
2642.4584741224762
 20
1391.5147933625231
 30
0.0
 11
2648.6049207318979
 21
1391.5147933625251
 31
0.0
  0
ARC
  5
2B8
  8
0
 10
2642.4584741224762
 20
1392.0147933625231
 30
0.0
 40
0.4999999999998864
 50
180.0
 51
270.00000000003263
  0
LINE
  5
2B9
  8
0
 10
2641.9584741224762
 20
1394.0147933625169
 30
0.0
 11
2641.9584741224762
 21
1392.0147933625231
 31
0.0
  0
ARC
  5
2BA
  8
0
 10
2641.4584741224762
 20
1394.0147933625169
 30
0.0
 40
0.5
 50
0.0
 51
90.0
  0
LINE
  5
2BB
  8
0
 10
2641.4584741224762
 20
1394.5147933625169
 30
0.0
 11
2626.3236400186952
 21
1394.5147933625169
 31
0.0
  0
ARC
  5
2BC
  8
0
 10
2626.3236400186952
 20
1394.0147933625169
 30
0.0
 40
0.500000000000057
 50
90.000000000013031
 51
155.0000000000006
  0
LINE
  5
2BD
  8
0
 10
2625.8704861251772
 20
1394.2261024933871
 30
0.0
 11
2617.1557751955779
 21
1375.5373445946159
 31
0.0
  0
ARC
  5
2BE
  8
0
 10
2617.6089290890959
 20
1375.3260354637459
 30
0.0
 40
0.4999999999999553
 50
154.9999999999979
 51
245.00000000001839
  0
LINE
  5
2BF
  8
0
 10
2617.3976199582262
 20
1374.8728815702279
 30
0.0
 11
2620.116543319336
 21
1373.6050267850071
 31
0.0
  0
ARC
  5
2C0
  8
0
 10
2620.3278524502061
 20
1374.0581806785251
 30
0.0
 40
0.5000000000001134
 50
245.0000000000266
 51
334.99999999998261
  0
LINE
  5
2C1
  8
0
 10
2620.7810063437241
 20
1373.8468715476549
 30
0.0
 11
2622.4080866514259
 21
1377.3361565277451
 31
0.0
  0
ARC
  5
2C2
  8
0
 10
2622.8612405449439
 20
1377.124847396874
 30
0.0
 40
0.5000000000000446
 50
65.000000000055721
 51
154.99999999992511
  0
LINE
  5
2C3
  8
0
 10
2623.0725496758132
 20
1377.5780012903931
 30
0.0
 11
2624.2725368232082
 21
1377.0184380938749
 31
0.0
  0
LINE
  5
2C4
  8
0
 10
2624.2725368232082
 20
1377.0184380938749
 30
0.0
 11
2630.177282807721
 21
1371.113692109363
 31
0.0
  0
ARC
  5
2C5
  8
0
 10
2629.8237294170931
 20
1370.760138718804
 30
0.0
 40
0.5000000000006306
 50
334.99999999824428
 51
44.999999994491283
  0
LINE
  5
2C6
  8
0
 10
2630.2768833106052
 20
1370.548829587919
 30
0.0
 11
2624.5511751075528
 21
1358.270008721656
 31
0.0
  0
ARC
  5
2C7
  8
0
 10
2624.0980212140348
 20
1358.481317852526
 30
0.0
 40
0.4999999999995584
 50
264.99999999995657
 51
335.00000000003422
  0
LINE
  5
2C8
  8
0
 10
2624.0544433426612
 20
1357.98322050348
 30
0.0
 11
2615.735647936006
 21
1358.711020795753
 31
0.0
  0
LINE
  5
2C9
  8
0
 10
2615.735647936006
 20
1358.711020795753
 30
0.0
 11
2614.5356607886529
 21
1359.270583992251
 31
0.0
  0
ARC
  5
2CA
  8
0
 10
2614.746969919524
 20
1359.7237378857701
 30
0.0
 40
0.5000000000002025
 50
154.9999999999707
 51
244.99999999997669
  0
LINE
  5
2CB
  8
0
 10
2614.2938160260051
 20
1359.935047016641
 30
0.0
 11
2615.9208963337069
 21
1363.424331996732
 31
0.0
  0
ARC
  5
2CC
  8
0
 10
2615.467742440188
 20
1363.635641127602
 30
0.0
 40
0.5000000000000857
 50
335.00000000001211
 51
64.999999999982975
  0
LINE
  5
2CD
  8
0
 10
2615.6790515710591
 20
1364.0887950211199
 30
0.0
 11
2612.921825987793
 21
1365.374510425858
 31
0.0
  0
ARC
  5
2CE
  8
0
 10
2612.7105168569219
 20
1364.92135653234
 30
0.0
 40
0.5000000000000857
 50
65.000000000012065
 51
154.99999999998289
  0
LINE
  5
2CF
  8
0
 10
2612.2573629634039
 20
1365.13266566321
 30
0.0
 11
2602.9747801097692
 21
1345.2261024933871
 31
0.0
  0
ARC
  5
2D0
  8
0
 10
2603.4279340032881
 20
1345.014793362516
 30
0.0
 40
0.500000000000556
 50
154.99999999996399
 51
269.99999999994787
  0
LINE
  5
2D1
  8
0
 10
2603.4279340032872
 20
1344.514793362516
 30
0.0
 11
2641.4584741224762
 21
1344.514793362518
 31
0.0
  0
ARC
  5
2D2
  8
0
 10
2641.4584741224762
 20
1345.014793362518
 30
0.0
 40
0.5000000000001706
 50
270.00000000001302
 51
359.9999999992184
  0
LINE
  5
2D3
  8
0
 10
2641.9584741224762
 20
1345.014793362511
 30
0.0
 11
2641.9584741224762
 21
1347.0147933625119
 31
0.0
  0
ARC
  5
2D4
  8
0
 10
2642.4584741224762
 20
1347.0147933625119
 30
0.0
 40
0.4999999999998864
 50
90.0
 51
180.00000000001299
  0
LINE
  5
2D5
  8
0
 10
2642.4584741224762
 20
1347.5147933625119
 30
0.0
 11
2648.6049207318979
 21
1347.5147933625101
 31
0.0
  0
LINE
  5
2D6
  8
0
 10
2648.6049207318979
 20
1347.5147933625101
 30
0.0
 11
2648.7816974272409
 21
1347.3380166671679
 31
0.0
  0
ARC
  5
2D7
  8
0
 10
2648.9584741225372
 20
1347.5147933624651
 30
0.0
 40
0.2499999999998814
 50
225.00000000014739
 51
314.99999999999079
  0
LINE
  5
2D8
  8
0
 10
2649.1352508178329
 20
1347.3380166671679
 30
0.0
 11
2649.3120275131791
 21
1347.514793362514
 31
0.0
  0
LINE
  5
2D9
  8
0
 10
2649.3120275131791
 20
1347.514793362514
 30
0.0
 11
2649.6049207318788
 21
1347.5147933625119
 31
0.0
  0
LINE
  5
2DA
  8
0
 10
2649.6049207318788
 20
1347.5147933625119
 30
0.0
 11
2649.7816974271782
 21
1347.3380166672171
 31
0.0
  0
ARC
  5
2DB
  8
0
 10
2649.958474122473
 20
1347.514793362516
 30
0.0
 40
0.250000000000002
 50
225.00000000067249
 51
315.00000000000921
  0
LINE
  5
2DC
  8
0
 10
2650.1352508177688
 20
1347.3380166672191
 30
0.0
 11
2650.3120275130682
 21
1347.514793362518
 31
0.0
  0
LINE
  5
2DD
  8
0
 10
2650.3120275130682
 20
1347.514793362518
 30
0.0
 11
2657.4584741224749
 21
1347.514793362518
 31
0.0
  0
ARC
  5
2DE
  8
0
 10
2657.4584741224749
 20
1347.0147933625169
 30
0.0
 40
0.5000000000001137
 50
0.0
 51
89.99999999998046
  0
LINE
  5
2DF
  8
0
 10
2657.9584741224749
 20
1347.0147933625169
 30
0.0
 11
2657.9584741224749
 21
1345.014793362518
 31
0.0
  0
ARC
  5
2E0
  8
0
 10
2658.4584741224749
 20
1345.014793362518
 30
0.0
 40
0.4999999999998864
 50
180.0
 51
270.00000000002598
  0
LINE
  5
2E1
  8
0
 10
2658.4584741224749
 20
1344.5147933625169
 30
0.0
 11
2673.4584741224762
 21
1344.5147933625169
 31
0.0
  0
ARC
  5
2E2
  8
0
 10
2673.4584741224762
 20
1345.014793362518
 30
0.0
 40
0.5000000000001137
 50
270.00000000001302
 51
359.99999999996749
  0
LINE
  5
2E3
  8
0
 10
2673.9584741224749
 20
1345.014793362518
 30
0.0
 11
2673.9584741224749
 21
1347.0147933625169
 31
0.0
  0
ARC
  5
2E4
  8
0
 10
2674.4584741224749
 20
1347.0147933625169
 30
0.0
 40
0.4999999999998864
 50
90.0
 51
180.0000000000195
  0
LINE
  5
2E5
  8
0
 10
2674.4584741224749
 20
1347.514793362518
 30
0.0
 11
2689.4584741224749
 21
1347.514793362518
 31
0.0
  0
ARC
  5
2E6
  8
0
 10
2689.4584741224749
 20
1347.0147933625169
 30
0.0
 40
0.5000000000001137
 50
0.0
 51
89.99999999998046
  0
LINE
  5
2E7
  8
0
 10
2689.9584741224749
 20
1347.0147933625169
 30
0.0
 11
2689.9584741224749
 21
1345.014793362518
 31
0.0
  0
ARC
  5
2E8
  8
0
 10
2690.4584741224749
 20
1345.014793362518
 30
0.0
 40
0.5000000000001706
 50
180.00000000000651
 51
269.99999999995441
  0
LINE
  5
2E9
  8
0
 10
2690.4584741224749
 20
1344.5147933625169
 30
0.0
 11
2703.0795856099471
 21
1344.5147933625169
 31
0.0
  0
ARC
  5
2EA
  8
0
 10
2703.0795856099471
 20
1344.0147933625169
 30
0.0
 40
0.5000000000000857
 50
335.00000000001211
 51
89.999999999986969
  0
LINE
  5
2EB
  8
0
 10
2703.532739503466
 20
1343.803484231647
 30
0.0
 11
2687.4370902388141
 21
1309.286252993508
 31
0.0
  0
ARC
  5
2EC
  8
0
 10
2686.9839363452961
 20
1309.497562124378
 30
0.0
 40
0.4999999999997158
 50
269.99999999998698
 51
335.00000000003638
  0
LINE
  5
2ED
  8
0
 10
2686.9839363452961
 20
1308.997562124378
 30
0.0
 11
2658.9395417365072
 21
1308.997562124378
 31
0.0
  0
LINE
  5
2EE
  8
0
 10
2658.9395417365072
 20
1308.997562124378
 30
0.0
 11
2658.9395417365072
 21
1313.697562124378
 31
0.0
  0
ARC
  5
2EF
  8
0
 10
2658.6395417365079
 20
1313.697562124378
 30
0.0
 40
0.2999999999999545
 50
0.0000000000108563
 51
90.000000000010871
  0
LINE
  5
2F0
  8
0
 10
2658.6395417365079
 20
1313.997562124378
 30
0.0
 11
2658.2395417365069
 21
1313.997562124378
 31
0.0
  0
ARC
  5
2F1
  8
0
 10
2658.2395417365069
 20
1313.697562124378
 30
0.0
 40
0.2999999999999545
 50
90.0
 51
180.00000000005431
  0
LINE
  5
2F2
  8
0
 10
2657.9395417365072
 20
1313.697562124378
 30
0.0
 11
2657.9395417365072
 21
1308.2975621243779
 31
0.0
  0
ARC
  5
2F3
  8
0
 10
2658.2395417365069
 20
1308.2975621243779
 30
0.0
 40
0.2999999999999545
 50
180.0
 51
270.00000000003263
  0
LINE
  5
2F4
  8
0
 10
2658.2395417365069
 20
1307.997562124378
 30
0.0
 11
2687.6210066061039
 21
1307.997562124378
 31
0.0
  0
ARC
  5
2F5
  8
0
 10
2687.621006606103
 20
1308.497562124378
 30
0.0
 40
0.5000000000001137
 50
270.00000000001302
 51
334.999999999983
  0
LINE
  5
2F6
  8
0
 10
2688.0741604996219
 20
1308.286252993508
 30
0.0
 11
2704.9303664585859
 21
1344.4345033260411
 31
0.0
  0
ARC
  5
2F7
  8
0
 10
2704.6584741224719
 20
1344.5612888045639
 30
0.0
 40
0.3000000000027343
 50
335.0000000001138
 51
359.99999999985891
  0
LINE
  5
2F8
  8
0
 10
2704.9584741224749
 20
1344.561288804563
 30
0.0
 11
2704.9584741224749
 21
1363.514793362518
 31
0.0
  0
ARC
  5
2F9
  8
0
 10
2704.4584741224749
 20
1363.5147933625169
 30
0.0
 40
0.5000000000001706
 50
0.0
 51
89.999999999954397
  0
LINE
  5
2FA
  8
0
 10
2704.4584741224749
 20
1364.0147933625169
 30
0.0
 11
2701.4584741224749
 21
1364.0147933625169
 31
0.0
  0
ARC
  5
2FB
  8
0
 10
2701.4584741224749
 20
1363.514793362518
 30
0.0
 40
0.4999999999998864
 50
90.0
 51
180.00000000003249
  0
LINE
  5
2FC
  8
0
 10
2700.9584741224749
 20
1363.5147933625169
 30
0.0
 11
2700.9584741224749
 21
1361.014793362518
 31
0.0
  0
ARC
  5
2FD
  8
0
 10
2700.4584741224749
 20
1361.014793362518
 30
0.0
 40
0.5000000000001706
 50
270.0
 51
359.99999999996089
  0
LINE
  5
2FE
  8
0
 10
2700.4584741224749
 20
1360.5147933625169
 30
0.0
 11
2693.4584741224749
 21
1360.5147933625169
 31
0.0
  0
ARC
  5
2FF
  8
0
 10
2693.4584741224749
 20
1361.0147933625169
 30
0.0
 40
0.4999999999998864
 50
180.0
 51
270.00000000001961
  0
LINE
  5
300
  8
0
 10
2692.9584741224749
 20
1361.0147933625169
 30
0.0
 11
2692.9584741224749
 21
1378.0147933625169
 31
0.0
  0
ARC
  5
301
  8
0
 10
2693.4584741224749
 20
1378.0147933625169
 30
0.0
 40
0.4999999999998864
 50
90.0
 51
180.00000000001299
  0
LINE
  5
302
  8
0
 10
2693.4584741224749
 20
1378.5147933625169
 30
0.0
 11
2700.4584741224749
 21
1378.5147933625169
 31
0.0
  0
ARC
  5
303
  8
0
 10
2700.4584741224749
 20
1378.0147933625169
 30
0.0
 40
0.4999999999998864
 50
0.0
 51
90.0
  0
LINE
  5
304
  8
0
 10
2700.9584741224749
 20
1378.0147933625169
 30
0.0
 11
2700.9584741224749
 21
1375.514793362518
 31
0.0
  0
ARC
  5
305
  8
0
 10
2701.4584741224749
 20
1375.514793362518
 30
0.0
 40
0.5000000000001137
 50
180.00000000000651
 51
269.99999999998039
  0
LINE
  5
306
  8
0
 10
2701.4584741224749
 20
1375.0147933625169
 30
0.0
 11
2704.4584741224749
 21
1375.0147933625169
 31
0.0
  0
ARC
  5
307
  8
0
 10
2704.4584741224749
 20
1375.5147933625169
 30
0.0
 40
0.4999999999998864
 50
270.0
 51
0.0000000000260592
  0
LINE
  5
308
  8
0
 10
2704.9584741224749
 20
1375.514793362518
 30
0.0
 11
2704.9584741224749
 21
1394.0147933625169
 31
0.0
  0
ARC
  5
309
  8
0
 10
2704.4584741224749
 20
1394.0147933625169
 30
0.0
 40
0.5
 50
0.0
 51
90.0
  0
ENDSEC
  0
EOF
