  0
SECTION
  2
HEADER
  9
$ACADVER
  1
AC1009
  9
$INSBASE
 10
0.0
 20
0.0
 30
0.0
  9
$EXTMIN
 10
1662.114520823239
 20
1889.0462741564111
 30
0.0
  9
$EXTMAX
 10
1752.218074242116
 20
1905.159333786065
 30
0.0
  9
$LIMMIN
 10
0.0
 20
0.0
  9
$LIMMAX
 10
420.0
 20
297.0
  9
$ORTHOMODE
 70
     0
  9
$REGENMODE
 70
     1
  9
$FILLMODE
 70
     1
  9
$QTEXTMODE
 70
     0
  9
$MIRRTEXT
 70
     0
  9
$DRAGMODE
 70
     2
  9
$LTSCALE
 40
1.0
  9
$OSMODE
 70
  4095
  9
$ATTMODE
 70
     1
  9
$TEXTSIZE
 40
2.5
  9
$TRACEWID
 40
1.0
  9
$TEXTSTYLE
  7
STANDARD
  9
$CLAYER
  8
0
  9
$CELTYPE
  6
BYLAYER
  9
$CECOLOR
 62
   256
  9
$DIMSCALE
 40
1.0
  9
$DIMASZ
 40
2.5
  9
$DIMEXO
 40
0.625
  9
$DIMDLI
 40
3.75
  9
$DIMRND
 40
0.0
  9
$DIMDLE
 40
0.0
  9
$DIMEXE
 40
1.25
  9
$DIMTP
 40
0.0
  9
$DIMTM
 40
0.0
  9
$DIMTXT
 40
2.5
  9
$DIMCEN
 40
2.5
  9
$DIMTSZ
 40
0.0
  9
$DIMTOL
 70
     0
  9
$DIMLIM
 70
     0
  9
$DIMTIH
 70
     0
  9
$DIMTOH
 70
     0
  9
$DIMSE1
 70
     0
  9
$DIMSE2
 70
     0
  9
$DIMTAD
 70
     1
  9
$DIMZIN
 70
     8
  9
$DIMBLK
  1

  9
$DIMASO
 70
     1
  9
$DIMSHO
 70
     1
  9
$DIMPOST
  1

  9
$DIMAPOST
  1

  9
$DIMALT
 70
     0
  9
$DIMALTD
 70
     3
  9
$DIMALTF
 40
0.03937007874016
  9
$DIMLFAC
 40
1.0
  9
$DIMTOFL
 70
     1
  9
$DIMTVP
 40
0.0
  9
$DIMTIX
 70
     0
  9
$DIMSOXD
 70
     0
  9
$DIMSAH
 70
     0
  9
$DIMBLK1
  1

  9
$DIMBLK2
  1

  9
$DIMSTYLE
  2
ISO-25
  9
$DIMCLRD
 70
     0
  9
$DIMCLRE
 70
     0
  9
$DIMCLRT
 70
     0
  9
$DIMTFAC
 40
1.0
  9
$DIMGAP
 40
0.625
  9
$LUNITS
 70
     2
  9
$LUPREC
 70
     4
  9
$SKETCHINC
 40
1.0
  9
$FILLETRAD
 40
0.0
  9
$AUNITS
 70
     0
  9
$AUPREC
 70
     0
  9
$MENU
  1
.
  9
$ELEVATION
 40
0.0
  9
$PELEVATION
 40
0.0
  9
$THICKNESS
 40
0.0
  9
$LIMCHECK
 70
     0
  9
$BLIPMODE
 70
     0
  9
$CHAMFERA
 40
0.0
  9
$CHAMFERB
 40
0.0
  9
$SKPOLY
 70
     0
  9
$TDCREATE
 40
2457709.6969464119
  9
$TDUPDATE
 40
2457709.6970498608
  9
$TDINDWG
 40
0.0001043171
  9
$TDUSRTIMER
 40
0.0001043056
  9
$USRTIMER
 70
     1
  9
$ANGBASE
 50
0.0
  9
$ANGDIR
 70
     0
  9
$PDMODE
 70
     0
  9
$PDSIZE
 40
0.0
  9
$PLINEWID
 40
0.0
  9
$COORDS
 70
     1
  9
$SPLFRAME
 70
     0
  9
$SPLINETYPE
 70
     6
  9
$SPLINESEGS
 70
     8
  9
$ATTDIA
 70
     1
  9
$ATTREQ
 70
     1
  9
$HANDLING
 70
     1
  9
$HANDSEED
  5
456
  9
$SURFTAB1
 70
     6
  9
$SURFTAB2
 70
     6
  9
$SURFTYPE
 70
     6
  9
$SURFU
 70
     6
  9
$SURFV
 70
     6
  9
$UCSNAME
  2

  9
$UCSORG
 10
0.0
 20
0.0
 30
0.0
  9
$UCSXDIR
 10
1.0
 20
0.0
 30
0.0
  9
$UCSYDIR
 10
0.0
 20
1.0
 30
0.0
  9
$PUCSNAME
  2

  9
$PUCSORG
 10
0.0
 20
0.0
 30
0.0
  9
$PUCSXDIR
 10
1.0
 20
0.0
 30
0.0
  9
$PUCSYDIR
 10
0.0
 20
1.0
 30
0.0
  9
$USERI1
 70
     0
  9
$USERI2
 70
     0
  9
$USERI3
 70
     0
  9
$USERI4
 70
     0
  9
$USERI5
 70
     0
  9
$USERR1
 40
0.0
  9
$USERR2
 40
0.0
  9
$USERR3
 40
0.0
  9
$USERR4
 40
0.0
  9
$USERR5
 40
0.0
  9
$WORLDVIEW
 70
     1
  9
$SHADEDGE
 70
     3
  9
$SHADEDIF
 70
    70
  9
$TILEMODE
 70
     1
  9
$MAXACTVP
 70
    64
  9
$PLIMCHECK
 70
     0
  9
$PEXTMIN
 10
0.0
 20
0.0
 30
0.0
  9
$PEXTMAX
 10
0.0
 20
0.0
 30
0.0
  9
$PLIMMIN
 10
0.0
 20
0.0
  9
$PLIMMAX
 10
12.0
 20
9.0
  9
$UNITMODE
 70
     0
  9
$VISRETAIN
 70
     1
  9
$PLINEGEN
 70
     0
  9
$PSLTSCALE
 70
     1
  0
ENDSEC
  0
SECTION
  2
TABLES
  0
TABLE
  2
VPORT
 70
     1
  0
VPORT
  2
*ACTIVE
 70
     0
 10
0.0
 20
0.0
 11
1.0
 21
1.0
 12
1707.1662975326781
 22
1897.102803971238
 13
0.0
 23
0.0
 14
10.0
 24
10.0
 15
10.0
 25
10.0
 16
0.0
 26
0.0
 36
1.0
 17
0.0
 27
0.0
 37
0.0
 40
40.661470269047108
 41
2.2234848484848482
 42
50.0
 43
0.0
 44
0.0
 50
0.0
 51
0.0
 71
     0
 72
  1000
 73
     1
 74
     3
 75
     0
 76
     1
 77
     0
 78
     0
  0
ENDTAB
  0
TABLE
  2
LTYPE
 70
     1
  0
LTYPE
  2
CONTINUOUS
 70
     0
  3
Solid line
 72
    65
 73
     0
 40
0.0
  0
ENDTAB
  0
TABLE
  2
LAYER
 70
     1
  0
LAYER
  2
0
 70
     0
 62
     7
  6
CONTINUOUS
  0
ENDTAB
  0
TABLE
  2
STYLE
 70
     3
  0
STYLE
  2
STANDARD
 70
     0
 40
0.0
 41
1.0
 50
0.0
 71
     0
 42
2.5
  3
txt
  4

  0
STYLE
  2
ANNOTATIVE
 70
     0
 40
0.0
 41
1.0
 50
0.0
 71
     0
 42
2.5
  3
txt
  4

  0
STYLE
  2
ROMANT
 70
     0
 40
2.2999999999999989
 41
1.0
 50
0.0
 71
     0
 42
2.5
  3
romant.shx
  4

  0
ENDTAB
  0
TABLE
  2
VIEW
 70
     1
  0
ENDTAB
  0
TABLE
  2
UCS
 70
     0
  0
ENDTAB
  0
TABLE
  2
APPID
 70
    10
  0
APPID
  2
ACAD
 70
     0
  0
APPID
  2
ACAD_PSEXT
 70
     0
  0
APPID
  2
ACADANNOPO
 70
     0
  0
APPID
  2
ACADANNOTATIVE
 70
     0
  0
APPID
  2
ACAD_DSTYLE_DIMJAG
 70
     0
  0
APPID
  2
ACAD_DSTYLE_DIMTALN
 70
     0
  0
APPID
  2
ACAD_MLEADERVER
 70
     0
  0
APPID
  2
ACAD_NAV_VCDISPLAY
 70
     0
  0
APPID
  2
GRADIENTCOLOR1ACI
 70
     0
  0
APPID
  2
GRADIENTCOLOR2ACI
 70
     0
  0
ENDTAB
  0
TABLE
  2
DIMSTYLE
 70
     4
  0
DIMSTYLE
  2
STANDARD
 70
     0
  3

  4

  5

  6

  7

 40
1.0
 41
0.18
 42
0.0625
 43
0.38
 44
0.18
 45
0.0
 46
0.0
 47
0.0
 48
0.0
140
0.18
141
0.09
142
0.0
143
25.399999999999999
144
1.0
145
0.0
146
1.0
147
0.09
 71
     0
 72
     0
 73
     1
 74
     1
 75
     0
 76
     0
 77
     0
 78
     0
170
     0
171
     2
172
     0
173
     0
174
     0
175
     0
176
     0
177
     0
178
     0
  0
DIMSTYLE
  2
ANNOTATIVE
 70
     0
  3

  4

  5

  6

  7

 40
0.0
 41
2.5
 42
0.625
 43
3.75
 44
1.25
 45
0.0
 46
0.0
 47
0.0
 48
0.0
140
2.5
141
2.5
142
0.0
143
0.03937007874016
144
1.0
145
0.0
146
1.0
147
0.625
 71
     0
 72
     0
 73
     0
 74
     0
 75
     0
 76
     0
 77
     1
 78
     8
170
     0
171
     3
172
     1
173
     0
174
     0
175
     0
176
     0
177
     0
178
     0
  0
DIMSTYLE
  2
ISO-25
 70
     0
  3

  4

  5

  6

  7

 40
1.0
 41
2.5
 42
0.625
 43
3.75
 44
1.25
 45
0.0
 46
0.0
 47
0.0
 48
0.0
140
2.5
141
2.5
142
0.0
143
0.03937007874016
144
1.0
145
0.0
146
1.0
147
0.625
 71
     0
 72
     0
 73
     0
 74
     0
 75
     0
 76
     0
 77
     1
 78
     8
170
     0
171
     3
172
     1
173
     0
174
     0
175
     0
176
     0
177
     0
178
     0
  0
DIMSTYLE
  2
MELÝH_A3
 70
     0
  3

  4

  5

  6

  7

 40
1.0
 41
1.3
 42
0.0
 43
3.75
 44
0.2
 45
0.0
 46
0.0
 47
0.0
 48
0.0
140
1.0
141
0.2
142
0.0
143
0.03937007874016
144
1.0
145
0.0
146
1.0
147
0.7
 71
     0
 72
     0
 73
     0
 74
     0
 75
     0
 76
     0
 77
     1
 78
     8
170
     0
171
     3
172
     0
173
     0
174
     0
175
     0
176
   242
177
   242
178
   242
  0
ENDTAB
  0
ENDSEC
  0
SECTION
  2
BLOCKS
  0
BLOCK
  8
0
  2
$MODEL_SPACE
 70
     0
 10
0.0
 20
0.0
 30
0.0
  3
$MODEL_SPACE
  1

  0
ENDBLK
  5
21
  8
0
  0
BLOCK
 67
     1
  8
0
  2
$PAPER_SPACE
 70
     0
 10
0.0
 20
0.0
 30
0.0
  3
$PAPER_SPACE
  1

  0
ENDBLK
  5
D5
 67
     1
  8
0
  0
BLOCK
  8
0
  2
*X2
 70
     1
 10
0.0
 20
0.0
 30
0.0
  3
*X2
  1

  0
LINE
  5
318
  8
0
 62
     0
 10
89.325322174502901
 20
7.0000006496700564
 30
0.0
 11
89.999999987706985
 21
7.67467846287414
 31
0.0
  0
LINE
  5
319
  8
0
 62
     0
 10
88.427296562396236
 20
7.0000006496703122
 30
0.0
 11
89.999999987706929
 21
8.5727040749810328
 31
0.0
  0
LINE
  5
31A
  8
0
 62
     0
 10
87.5292709502896
 20
7.0000006496705964
 30
0.0
 11
89.529270950289018
 21
9.0000006496699996
 31
0.0
  0
LINE
  5
31B
  8
0
 62
     0
 10
86.631245338182964
 20
7.0000006496708229
 30
0.0
 11
88.631245338182111
 21
9.0000006496699996
 31
0.0
  0
LINE
  5
31C
  8
0
 62
     0
 10
85.733219726076285
 20
7.0000006496711364
 30
0.0
 11
87.733219726075191
 21
9.0000006496700262
 31
0.0
  0
LINE
  5
31D
  8
0
 62
     0
 10
84.835194113969607
 20
7.0000006496713354
 30
0.0
 11
86.835194113968285
 21
9.0000006496700262
 31
0.0
  0
LINE
  5
31E
  8
0
 62
     0
 10
83.937168501862971
 20
7.0000006496716187
 30
0.0
 11
85.937168501861379
 21
9.0000006496700262
 31
0.0
  0
LINE
  5
31F
  8
0
 62
     0
 10
83.039142889756306
 20
7.0000006496718754
 30
0.0
 11
85.039142889754487
 21
9.0000006496700262
 31
0.0
  0
LINE
  5
320
  8
0
 62
     0
 10
89.141117277647481
 20
14.000000649669939
 30
0.0
 11
89.999999987706886
 21
14.85888335972936
 31
0.0
  0
LINE
  5
321
  8
0
 62
     0
 10
82.141117277649613
 20
7.0000006496721019
 30
0.0
 11
84.141117277647567
 21
9.0000006496700262
 31
0.0
  0
LINE
  5
322
  8
0
 62
     0
 10
88.243091665540533
 20
14.000000649669939
 30
0.0
 11
89.999907070938406
 21
15.75681605506781
 31
0.0
  0
LINE
  5
323
  8
0
 62
     0
 10
81.243091665542977
 20
7.0000006496723577
 30
0.0
 11
83.243091665540618
 21
9.0000006496700262
 31
0.0
  0
LINE
  5
324
  8
0
 62
     0
 10
87.345066053433641
 20
14.000000649669939
 30
0.0
 11
89.345066053433726
 21
16.000000649670032
 31
0.0
  0
LINE
  5
325
  8
0
 62
     0
 10
80.345066053436312
 20
7.0000006496726144
 30
0.0
 11
82.345066053433726
 21
9.0000006496699996
 31
0.0
  0
LINE
  5
326
  8
0
 62
     0
 10
86.447040441326706
 20
14.000000649669939
 30
0.0
 11
88.447040441326777
 21
16.00000064967
 31
0.0
  0
LINE
  5
327
  8
0
 62
     0
 10
79.447040441329605
 20
7.0000006496728702
 30
0.0
 11
81.447040441326749
 21
9.0000006496699996
 31
0.0
  0
LINE
  5
328
  8
0
 62
     0
 10
85.549014829219814
 20
14.000000649669939
 30
0.0
 11
87.549014829219828
 21
16.000000649669971
 31
0.0
  0
LINE
  5
329
  8
0
 62
     0
 10
78.549014829222983
 20
7.0000006496730967
 30
0.0
 11
80.549014829219857
 21
9.0000006496699996
 31
0.0
  0
LINE
  5
32A
  8
0
 62
     0
 10
84.650989217112866
 20
14.000000649669939
 30
0.0
 11
86.650989217112894
 21
16.000000649669971
 31
0.0
  0
LINE
  5
32B
  8
0
 62
     0
 10
77.650989217116376
 20
7.0000006496734102
 30
0.0
 11
79.650989217112937
 21
9.0000006496699712
 31
0.0
  0
LINE
  5
32C
  8
0
 62
     0
 10
83.752963605005974
 20
14.000000649669969
 30
0.0
 11
85.752963605006016
 21
16.000000649669971
 31
0.0
  0
LINE
  5
32D
  8
0
 62
     0
 10
76.752963605009683
 20
7.0000006496736367
 30
0.0
 11
78.752963605006045
 21
9.0000006496699996
 31
0.0
  0
LINE
  5
32E
  8
0
 62
     0
 10
82.854937992899096
 20
14.000000649669969
 30
0.0
 11
84.854937992899124
 21
16.000000649669971
 31
0.0
  0
LINE
  5
32F
  8
0
 62
     0
 10
75.854937992903047
 20
7.0000006496739209
 30
0.0
 11
77.854937992899096
 21
9.0000006496699712
 31
0.0
  0
LINE
  5
330
  8
0
 62
     0
 10
81.956912380792176
 20
14.000000649669969
 30
0.0
 11
83.956912380792176
 21
16.00000064967
 31
0.0
  0
LINE
  5
331
  8
0
 62
     0
 10
74.956912380796382
 20
7.0000006496741767
 30
0.0
 11
76.956912380792176
 21
9.0000006496699712
 31
0.0
  0
LINE
  5
332
  8
0
 62
     0
 10
81.058886768685284
 20
14.000000649669969
 30
0.0
 11
83.058886768685284
 21
16.00000064967
 31
0.0
  0
LINE
  5
333
  8
0
 62
     0
 10
74.058886768689717
 20
7.0000006496744334
 30
0.0
 11
76.058886768685312
 21
9.0000006496700262
 31
0.0
  0
LINE
  5
334
  8
0
 62
     0
 10
80.160861156578335
 20
14.00000064967
 30
0.0
 11
82.160861156578349
 21
16.000000649670032
 31
0.0
  0
LINE
  5
335
  8
0
 62
     0
 10
73.160861156583024
 20
7.0000006496746892
 30
0.0
 11
75.160861156578335
 21
9.0000006496699996
 31
0.0
  0
LINE
  5
336
  8
0
 62
     0
 10
79.262835544471443
 20
14.00000064967
 30
0.0
 11
81.262835544471457
 21
16.00000064967
 31
0.0
  0
LINE
  5
337
  8
0
 62
     0
 10
72.262835544476388
 20
7.0000006496749156
 30
0.0
 11
74.7499999877069
 21
9.4871650929054567
 31
0.0
  0
LINE
  5
338
  8
0
 62
     0
 10
78.364809932364551
 20
14.00000064967
 30
0.0
 11
80.364809932364523
 21
16.000000649669971
 31
0.0
  0
LINE
  5
339
  8
0
 62
     0
 10
71.364809932369724
 20
7.0000006496751723
 30
0.0
 11
74.7499999877069
 21
10.38519070501235
 31
0.0
  0
LINE
  5
33A
  8
0
 62
     0
 10
72.749715654649293
 20
9.2829319840616602
 30
0.0
 11
74.749999987706929
 21
11.28321631711932
 31
0.0
  0
LINE
  5
33B
  8
0
 62
     0
 10
77.466784320257631
 20
14.000000649670019
 30
0.0
 11
79.466784320257631
 21
16.000000649670032
 31
0.0
  0
LINE
  5
33C
  8
0
 62
     0
 10
70.466784320263031
 20
7.0000006496754281
 30
0.0
 11
72.467068653315266
 21
9.0002849827276332
 31
0.0
  0
LINE
  5
33D
  8
0
 62
     0
 10
72.749999987700846
 20
10.18124192922013
 30
0.0
 11
74.749999987706929
 21
12.18124192922622
 31
0.0
  0
LINE
  5
33E
  8
0
 62
     0
 10
76.568758708150682
 20
14.000000649669969
 30
0.0
 11
78.568758708150654
 21
16.000000649669939
 31
0.0
  0
LINE
  5
33F
  8
0
 62
     0
 10
69.568758708156423
 20
7.0000006496757123
 30
0.0
 11
71.568758708154178
 21
9.000000649673467
 31
0.0
  0
LINE
  5
340
  8
0
 62
     0
 10
72.749999987700875
 20
11.079267541327081
 30
0.0
 11
74.749999987706957
 21
13.07926754133317
 31
0.0
  0
LINE
  5
341
  8
0
 62
     0
 10
75.670733096043762
 20
14.00000064967
 30
0.0
 11
77.67073309604379
 21
16.00000064967
 31
0.0
  0
LINE
  5
342
  8
0
 62
     0
 10
68.67073309604973
 20
7.0000006496759681
 30
0.0
 11
70.670733096044643
 21
9.0000006496708806
 31
0.0
  0
LINE
  5
343
  8
0
 62
     0
 10
72.749999987700875
 20
11.977293153433999
 30
0.0
 11
76.77270748393687
 21
16.00000064967
 31
0.0
  0
LINE
  5
344
  8
0
 62
     0
 10
68.006575245733671
 20
7.2338684114668013
 30
0.0
 11
69.772707483935108
 21
9.000000649668209
 31
0.0
  0
LINE
  5
345
  8
0
 62
     0
 10
72.749999987700846
 20
12.875318765540889
 30
0.0
 11
75.874681871829921
 21
16.000000649669971
 31
0.0
  0
LINE
  5
346
  8
0
 62
     0
 10
67.999999987712954
 20
8.1253187655529757
 30
0.0
 11
68.874681871825601
 21
9.0000006496656511
 31
0.0
  0
LINE
  5
347
  8
0
 62
     0
 10
72.743311994542353
 20
13.76665638448932
 30
0.0
 11
74.976656259723015
 21
16.000000649669971
 31
0.0
  0
LINE
  5
348
  8
0
 62
     0
 10
72.078630647610083
 20
14.00000064966391
 30
0.0
 11
74.078630647616109
 21
16.000000649669971
 31
0.0
  0
LINE
  5
349
  8
0
 62
     0
 10
71.180605035503163
 20
14.00000064966394
 30
0.0
 11
73.180605035509188
 21
16.00000064967
 31
0.0
  0
LINE
  5
34A
  8
0
 62
     0
 10
70.282579423396214
 20
14.00000064966391
 30
0.0
 11
72.282579423402296
 21
16.00000064967
 31
0.0
  0
LINE
  5
34B
  8
0
 62
     0
 10
69.384553811289322
 20
14.00000064966394
 30
0.0
 11
71.384553811295376
 21
16.00000064967
 31
0.0
  0
LINE
  5
34C
  8
0
 62
     0
 10
68.48652819918243
 20
14.000000649663971
 30
0.0
 11
70.486528199188484
 21
16.00000064967
 31
0.0
  0
LINE
  5
34D
  8
0
 62
     0
 10
54.486528199194538
 20
0.0000006496760818
 30
0.0
 11
55.249999987701763
 21
0.7634724381832996
 31
0.0
  0
LINE
  5
34E
  8
0
 62
     0
 10
67.588502587075482
 20
14.00000064966391
 30
0.0
 11
69.588502587081535
 21
16.000000649669971
 31
0.0
  0
LINE
  5
34F
  8
0
 62
     0
 10
53.588502587087639
 20
0.0000006496760818
 30
0.0
 11
55.249999987703461
 21
1.6614980502918959
 31
0.0
  0
LINE
  5
350
  8
0
 62
     0
 10
59.690476974980641
 20
7.0000006496760241
 30
0.0
 11
59.999999987700868
 21
7.3095236623962299
 31
0.0
  0
LINE
  5
351
  8
0
 62
     0
 10
66.690476974968533
 20
14.00000064966391
 30
0.0
 11
68.690476974974644
 21
16.000000649670032
 31
0.0
  0
LINE
  5
352
  8
0
 62
     0
 10
52.690476974980733
 20
0.0000006496760818
 30
0.0
 11
55.249999987705102
 21
2.559523662400494
 31
0.0
  0
LINE
  5
353
  8
0
 62
     0
 10
58.792451362871141
 20
7.0000006496734102
 30
0.0
 11
59.999999987700868
 21
8.2075492745031227
 31
0.0
  0
LINE
  5
354
  8
0
 62
     0
 10
65.792451362861641
 20
14.000000649663891
 30
0.0
 11
67.792451362867752
 21
16.000000649670032
 31
0.0
  0
LINE
  5
355
  8
0
 62
     0
 10
51.792451362873749
 20
0.0000006496759966
 30
0.0
 11
55.24999998770685
 21
3.4575492745091192
 31
0.0
  0
LINE
  5
356
  8
0
 62
     0
 10
57.894425750761599
 20
7.0000006496708229
 30
0.0
 11
59.853777483688297
 21
8.9593523825975296
 31
0.0
  0
LINE
  5
357
  8
0
 62
     0
 10
53.249999987700953
 20
2.3555748866101558
 30
0.0
 11
55.24999998770852
 21
4.3555748866177453
 31
0.0
  0
LINE
  5
358
  8
0
 62
     0
 10
64.894425750754692
 20
14.00000064966391
 30
0.0
 11
66.894425750760803
 21
16.00000064967
 31
0.0
  0
LINE
  5
359
  8
0
 62
     0
 10
50.8944257507668
 20
0.000000649676025
 30
0.0
 11
52.894425750766622
 21
2.000000649675854
 31
0.0
  0
LINE
  5
35A
  8
0
 62
     0
 10
56.996400138652092
 20
7.000000649668209
 30
0.0
 11
58.996400138649932
 21
9.0000006496660472
 31
0.0
  0
LINE
  5
35B
  8
0
 62
     0
 10
53.249999987702147
 20
3.2536004987182698
 30
0.0
 11
55.249999987710261
 21
5.25360049872637
 31
0.0
  0
LINE
  5
35C
  8
0
 62
     0
 10
63.9964001386478
 20
14.00000064966391
 30
0.0
 11
65.996400138653883
 21
16.00000064967
 31
0.0
  0
LINE
  5
35D
  8
0
 62
     0
 10
49.996400138659908
 20
0.000000649676025
 30
0.0
 11
51.996400138656298
 21
2.000000649672415
 31
0.0
  0
LINE
  5
35E
  8
0
 62
     0
 10
56.098374526542528
 20
7.0000006496655374
 30
0.0
 11
58.098374526545619
 21
9.0000006496686051
 31
0.0
  0
LINE
  5
35F
  8
0
 62
     0
 10
53.249999987703411
 20
4.1516261108264132
 30
0.0
 11
55.249999987711959
 21
6.1516261108349388
 31
0.0
  0
LINE
  5
360
  8
0
 62
     0
 10
63.098374526540908
 20
14.00000064966391
 30
0.0
 11
65.098374526546962
 21
16.000000649669939
 31
0.0
  0
LINE
  5
361
  8
0
 62
     0
 10
49.499999987712982
 20
0.4016261108359914
 30
0.0
 11
51.098374526545967
 21
2.0000006496689471
 31
0.0
  0
LINE
  5
362
  8
0
 62
     0
 10
53.249999987704619
 20
5.0496517229345841
 30
0.0
 11
57.200348914441349
 21
9.0000006496712786
 31
0.0
  0
LINE
  5
363
  8
0
 62
     0
 10
62.200348914433988
 20
14.00000064966394
 30
0.0
 11
64.200348914440042
 21
16.000000649669971
 31
0.0
  0
LINE
  5
364
  8
0
 62
     0
 10
49.499999987712947
 20
1.299651722942911
 30
0.0
 11
50.200348914435573
 21
2.0000006496655369
 31
0.0
  0
LINE
  5
365
  8
0
 62
     0
 10
61.302323302327089
 20
14.00000064966391
 30
0.0
 11
63.302323302333122
 21
16.000000649669971
 31
0.0
  0
LINE
  5
366
  8
0
 62
     0
 10
53.249999987705877
 20
5.9476773350427257
 30
0.0
 11
56.302323302337022
 21
9.0000006496738632
 31
0.0
  0
LINE
  5
367
  8
0
 62
     0
 10
60.404297690220183
 20
14.00000064966394
 30
0.0
 11
62.404297690226201
 21
16.00000064967
 31
0.0
  0
LINE
  5
368
  8
0
 62
     0
 10
53.236202461211832
 20
6.8319054206556009
 30
0.0
 11
55.42855859379776
 21
9.0242615532415584
 31
0.0
  0
LINE
  5
369
  8
0
 62
     0
 10
59.506272078113263
 20
14.00000064966394
 30
0.0
 11
61.506272078119309
 21
16.00000064967
 31
0.0
  0
LINE
  5
36A
  8
0
 62
     0
 10
52.506272078119302
 20
7.0000006496699987
 30
0.0
 11
55.249999987713011
 21
9.7437285592636727
 31
0.0
  0
LINE
  5
36B
  8
0
 62
     0
 10
58.608246466006328
 20
14.000000649663971
 30
0.0
 11
60.608246466012389
 21
16.000000649670032
 31
0.0
  0
LINE
  5
36C
  8
0
 62
     0
 10
51.608246466012361
 20
7.0000006496699712
 30
0.0
 11
55.249999987712982
 21
10.64175417137062
 31
0.0
  0
LINE
  5
36D
  8
0
 62
     0
 10
53.249999987706587
 20
9.53977978347109
 30
0.0
 11
55.249999987712961
 21
11.539779783477449
 31
0.0
  0
LINE
  5
36E
  8
0
 62
     0
 10
57.710220853899443
 20
14.000000649663971
 30
0.0
 11
59.710220853905497
 21
16.00000064967
 31
0.0
  0
LINE
  5
36F
  8
0
 62
     0
 10
50.71022085390544
 20
7.0000006496699712
 30
0.0
 11
52.710220853905469
 21
9.0000006496699996
 31
0.0
  0
LINE
  5
370
  8
0
 62
     0
 10
53.24999998770528
 20
10.437805395576699
 30
0.0
 11
55.249999987712982
 21
12.4378053955844
 31
0.0
  0
LINE
  5
371
  8
0
 62
     0
 10
56.812195241792551
 20
14.00000064966394
 30
0.0
 11
58.812195241798577
 21
16.00000064967
 31
0.0
  0
LINE
  5
372
  8
0
 62
     0
 10
49.81219524179852
 20
7.0000006496699418
 30
0.0
 11
51.812195241798513
 21
9.0000006496699427
 31
0.0
  0
LINE
  5
373
  8
0
 62
     0
 10
53.249999987704051
 20
11.33583100768243
 30
0.0
 11
55.249999987712918
 21
13.335831007691301
 31
0.0
  0
LINE
  5
374
  8
0
 62
     0
 10
55.914169629685631
 20
14.000000649663971
 30
0.0
 11
57.914169629691649
 21
16.000000649670032
 31
0.0
  0
LINE
  5
375
  8
0
 62
     0
 10
48.914169629691592
 20
7.0000006496699418
 30
0.0
 11
50.9141696296916
 21
9.0000006496699712
 31
0.0
  0
LINE
  5
376
  8
0
 62
     0
 10
53.249999987702857
 20
12.23385661978813
 30
0.0
 11
57.016144017584729
 21
16.000000649669971
 31
0.0
  0
LINE
  5
377
  8
0
 62
     0
 10
48.016144017584701
 20
7.0000006496699418
 30
0.0
 11
50.016144017584701
 21
9.0000006496699712
 31
0.0
  0
LINE
  5
378
  8
0
 62
     0
 10
47.118118405477759
 20
7.0000006496699418
 30
0.0
 11
49.118118405477787
 21
9.0000006496699712
 31
0.0
  0
LINE
  5
379
  8
0
 62
     0
 10
53.249999987701642
 20
13.131882231893799
 30
0.0
 11
56.118118405477787
 21
16.000000649669971
 31
0.0
  0
LINE
  5
37A
  8
0
 62
     0
 10
40.11811840548387
 20
0.0000006496760534
 30
0.0
 11
40.499999987700868
 21
0.3818822318930586
 31
0.0
  0
LINE
  5
37B
  8
0
 62
     0
 10
46.220092793370867
 20
7.0000006496699712
 30
0.0
 11
48.220092793370888
 21
9.0000006496699712
 31
0.0
  0
LINE
  5
37C
  8
0
 62
     0
 10
53.147844232744227
 20
13.92775208904331
 30
0.0
 11
55.220092793370902
 21
16.00000064967
 31
0.0
  0
LINE
  5
37D
  8
0
 62
     0
 10
39.220092793376978
 20
0.0000006496760534
 30
0.0
 11
40.499999987700903
 21
1.279907843999978
 31
0.0
  0
LINE
  5
37E
  8
0
 62
     0
 10
45.322067181263968
 20
7.0000006496699712
 30
0.0
 11
47.322067181264003
 21
9.0000006496699712
 31
0.0
  0
LINE
  5
37F
  8
0
 62
     0
 10
52.322067181264032
 20
14.000000649670019
 30
0.0
 11
54.322067181264003
 21
16.00000064967
 31
0.0
  0
LINE
  5
380
  8
0
 62
     0
 10
38.322067181270029
 20
0.000000649676025
 30
0.0
 11
40.304509877312313
 21
1.982443345718309
 31
0.0
  0
LINE
  5
381
  8
0
 62
     0
 10
44.424041569157062
 20
7.0000006496699987
 30
0.0
 11
46.424041569157048
 21
9.0000006496699996
 31
0.0
  0
LINE
  5
382
  8
0
 62
     0
 10
51.424041569157112
 20
14.000000649670049
 30
0.0
 11
53.424041569157048
 21
16.000000649669971
 31
0.0
  0
LINE
  5
383
  8
0
 62
     0
 10
37.424041569163109
 20
0.0000006496760534
 30
0.0
 11
39.424041569154042
 21
2.000000649666958
 31
0.0
  0
LINE
  5
384
  8
0
 62
     0
 10
43.526015957050163
 20
7.0000006496699712
 30
0.0
 11
45.526015957050163
 21
9.0000006496699996
 31
0.0
  0
LINE
  5
385
  8
0
 62
     0
 10
50.52601595705022
 20
14.000000649670019
 30
0.0
 11
52.526015957050127
 21
16.000000649669971
 31
0.0
  0
LINE
  5
386
  8
0
 62
     0
 10
36.526015957056217
 20
0.000000649676025
 30
0.0
 11
38.526015957050511
 21
2.0000006496703402
 31
0.0
  0
LINE
  5
387
  8
0
 62
     0
 10
42.627990344943207
 20
7.0000006496699987
 30
0.0
 11
44.627990344943242
 21
9.0000006496700262
 31
0.0
  0
LINE
  5
388
  8
0
 62
     0
 10
49.627990344943242
 20
14.000000649670019
 30
0.0
 11
51.627990344943207
 21
16.00000064967
 31
0.0
  0
LINE
  5
389
  8
0
 62
     0
 10
35.627990344949268
 20
0.0000006496760534
 30
0.0
 11
37.627990344947051
 21
2.0000006496738361
 31
0.0
  0
LINE
  5
38A
  8
0
 62
     0
 10
41.729964732836287
 20
7.0000006496699712
 30
0.0
 11
43.729964732836287
 21
9.0000006496699712
 31
0.0
  0
LINE
  5
38B
  8
0
 62
     0
 10
48.729964732836351
 20
14.000000649670019
 30
0.0
 11
50.729964732836322
 21
16.00000064967
 31
0.0
  0
LINE
  5
38C
  8
0
 62
     0
 10
34.826889426125888
 20
0.0969253429595654
 30
0.0
 11
36.826889426125952
 21
2.0969253429596222
 31
0.0
  0
LINE
  5
38D
  8
0
 62
     0
 10
40.831939120729402
 20
7.0000006496699418
 30
0.0
 11
42.831939120729402
 21
9.0000006496699712
 31
0.0
  0
LINE
  5
38E
  8
0
 62
     0
 10
47.831939120729452
 20
14.00000064967
 30
0.0
 11
49.83193912072943
 21
16.00000064967
 31
0.0
  0
LINE
  5
38F
  8
0
 62
     0
 10
34.749999987711853
 20
0.9180615166523864
 30
0.0
 11
36.749999987712187
 21
2.9180615166527271
 31
0.0
  0
LINE
  5
390
  8
0
 62
     0
 10
39.933913508622453
 20
7.0000006496699712
 30
0.0
 11
41.933913508622481
 21
9.0000006496699996
 31
0.0
  0
LINE
  5
391
  8
0
 62
     0
 10
46.93391350862251
 20
14.000000649670019
 30
0.0
 11
48.93391350862251
 21
16.00000064967
 31
0.0
  0
LINE
  5
392
  8
0
 62
     0
 10
34.749999987710112
 20
1.816087128757629
 30
0.0
 11
36.749999987710943
 21
3.8160871287584541
 31
0.0
  0
LINE
  5
393
  8
0
 62
     0
 10
39.035887896515533
 20
7.0000006496699418
 30
0.0
 11
41.03588789651559
 21
9.0000006496699996
 31
0.0
  0
LINE
  5
394
  8
0
 62
     0
 10
46.03588789651559
 20
14.00000064967
 30
0.0
 11
48.03588789651559
 21
16.00000064967
 31
0.0
  0
LINE
  5
395
  8
0
 62
     0
 10
34.749999987708442
 20
2.714112740862844
 30
0.0
 11
36.749999987709742
 21
4.7141127408641523
 31
0.0
  0
LINE
  5
396
  8
0
 62
     0
 10
38.137862284408612
 20
7.0000006496699418
 30
0.0
 11
40.137862284408612
 21
9.0000006496699712
 31
0.0
  0
LINE
  5
397
  8
0
 62
     0
 10
45.137862284408662
 20
14.00000064967
 30
0.0
 11
47.137862284408662
 21
16.000000649670032
 31
0.0
  0
LINE
  5
398
  8
0
 62
     0
 10
34.749999987706701
 20
3.6121383529680311
 30
0.0
 11
36.749999987708428
 21
5.6121383529697928
 31
0.0
  0
LINE
  5
399
  8
0
 62
     0
 10
37.239836672301692
 20
7.0000006496699418
 30
0.0
 11
39.23983667230172
 21
9.0000006496699712
 31
0.0
  0
LINE
  5
39A
  8
0
 62
     0
 10
44.239836672301742
 20
14.00000064967
 30
0.0
 11
46.239836672301749
 21
16.000000649669971
 31
0.0
  0
LINE
  5
39B
  8
0
 62
     0
 10
34.749999987704967
 20
4.5101639650732182
 30
0.0
 11
36.74999998770727
 21
6.5101639650755203
 31
0.0
  0
LINE
  5
39C
  8
0
 62
     0
 10
43.341811060194829
 20
14.000000649670019
 30
0.0
 11
45.3418110601948
 21
16.00000064967
 31
0.0
  0
LINE
  5
39D
  8
0
 62
     0
 10
34.749999987703262
 20
5.4081895771784607
 30
0.0
 11
38.3418110601948
 21
9.0000006496699996
 31
0.0
  0
LINE
  5
39E
  8
0
 62
     0
 10
42.44378544808793
 20
14.000000649670019
 30
0.0
 11
44.443785448087908
 21
16.00000064967
 31
0.0
  0
LINE
  5
39F
  8
0
 62
     0
 10
34.749999987701578
 20
6.3062151892836482
 30
0.0
 11
37.443785448087908
 21
9.0000006496699712
 31
0.0
  0
LINE
  5
3A0
  8
0
 62
     0
 10
41.545759835981038
 20
14.000000649670019
 30
0.0
 11
43.545759835981023
 21
16.00000064967
 31
0.0
  0
LINE
  5
3A1
  8
0
 62
     0
 10
34.534599439590458
 20
6.9888402532794203
 30
0.0
 11
36.753583376522641
 21
9.2078241902116247
 31
0.0
  0
LINE
  5
3A2
  8
0
 62
     0
 10
40.647734223874117
 20
14.000000649670019
 30
0.0
 11
42.647734223874039
 21
16.000000649669971
 31
0.0
  0
LINE
  5
3A3
  8
0
 62
     0
 10
33.647734223870373
 20
7.0000006496662763
 30
0.0
 11
36.749999987708101
 21
10.10226641350399
 31
0.0
  0
LINE
  5
3A4
  8
0
 62
     0
 10
39.749708611767232
 20
14.000000649670019
 30
0.0
 11
41.74970861176714
 21
16.000000649669971
 31
0.0
  0
LINE
  5
3A5
  8
0
 62
     0
 10
32.749708611766117
 20
7.0000006496689471
 30
0.0
 11
36.749999987709288
 21
11.00029202561211
 31
0.0
  0
LINE
  5
3A6
  8
0
 62
     0
 10
34.74999998770091
 20
9.8983176377106474
 30
0.0
 11
36.749999987710481
 21
11.89831763772025
 31
0.0
  0
LINE
  5
3A7
  8
0
 62
     0
 10
38.851682999660248
 20
14.000000649670019
 30
0.0
 11
40.851682999660227
 21
16.00000064967
 31
0.0
  0
LINE
  5
3A8
  8
0
 62
     0
 10
31.851682999661762
 20
7.0000006496715343
 30
0.0
 11
33.851682999664519
 21
9.0000006496742913
 31
0.0
  0
LINE
  5
3A9
  8
0
 62
     0
 10
34.74999998770091
 20
10.79634324981757
 30
0.0
 11
36.74999998771176
 21
12.79634324982842
 31
0.0
  0
LINE
  5
3AA
  8
0
 62
     0
 10
37.953657387553363
 20
14.00000064967
 30
0.0
 11
39.953657387553342
 21
16.00000064967
 31
0.0
  0
LINE
  5
3AB
  8
0
 62
     0
 10
30.953657387557492
 20
7.0000006496741491
 30
0.0
 11
32.95365738755504
 21
9.0000006496717049
 31
0.0
  0
LINE
  5
3AC
  8
0
 62
     0
 10
34.74999998770091
 20
11.69436886192446
 30
0.0
 11
36.749999987712982
 21
13.694368861936541
 31
0.0
  0
LINE
  5
3AD
  8
0
 62
     0
 10
37.055631775446471
 20
14.00000064967
 30
0.0
 11
39.05563177544645
 21
16.000000649669971
 31
0.0
  0
LINE
  5
3AE
  8
0
 62
     0
 10
30.116340194527169
 20
7.0607090687507252
 30
0.0
 11
32.055631775445512
 21
9.0000006496690332
 31
0.0
  0
LINE
  5
3AF
  8
0
 62
     0
 10
34.749999987700868
 20
12.59239447403138
 30
0.0
 11
38.157606163339523
 21
16.00000064967
 31
0.0
  0
LINE
  5
3B0
  8
0
 62
     0
 10
29.999999987712961
 20
7.8423944740434299
 30
0.0
 11
31.157606163335942
 21
9.0000006496664469
 31
0.0
  0
LINE
  5
3B1
  8
0
 62
     0
 10
34.749999987700868
 20
13.49042008613827
 30
0.0
 11
37.259580551232602
 21
16.00000064967
 31
0.0
  0
LINE
  5
3B2
  8
0
 62
     0
 10
30.00256619613975
 20
8.7429862945771504
 30
0.0
 11
30.25701434279981
 21
8.9974344412371732
 31
0.0
  0
LINE
  5
3B3
  8
0
 62
     0
 10
34.3615549391196
 20
14.00000064966394
 30
0.0
 11
36.361554939125682
 21
16.000000649670032
 31
0.0
  0
LINE
  5
3B4
  8
0
 62
     0
 10
33.463529327012651
 20
14.000000649663891
 30
0.0
 11
35.46352932701879
 21
16.000000649670032
 31
0.0
  0
LINE
  5
3B5
  8
0
 62
     0
 10
32.565503714905759
 20
14.000000649663891
 30
0.0
 11
34.565503714911898
 21
16.000000649670032
 31
0.0
  0
LINE
  5
3B6
  8
0
 62
     0
 10
31.667478102798839
 20
14.00000064966391
 30
0.0
 11
33.667478102804921
 21
16.00000064967
 31
0.0
  0
LINE
  5
3B7
  8
0
 62
     0
 10
30.76945249069195
 20
14.00000064966391
 30
0.0
 11
32.769452490698029
 21
16.00000064967
 31
0.0
  0
LINE
  5
3B8
  8
0
 62
     0
 10
29.87142687858503
 20
14.00000064966391
 30
0.0
 11
31.871426878591048
 21
16.000000649669971
 31
0.0
  0
LINE
  5
3B9
  8
0
 62
     0
 10
28.97340126647811
 20
14.00000064966391
 30
0.0
 11
30.97340126648422
 21
16.00000064967
 31
0.0
  0
LINE
  5
3BA
  8
0
 62
     0
 10
28.075375654371189
 20
14.00000064966394
 30
0.0
 11
30.07537565437724
 21
16.00000064967
 31
0.0
  0
LINE
  5
3BB
  8
0
 62
     0
 10
21.075375654383119
 20
7.000000649675882
 30
0.0
 11
21.999999987700821
 21
7.9246249829935769
 31
0.0
  0
LINE
  5
3BC
  8
0
 62
     0
 10
27.177350042264301
 20
14.00000064966394
 30
0.0
 11
29.177350042270351
 21
16.00000064967
 31
0.0
  0
LINE
  5
3BD
  8
0
 62
     0
 10
20.177350042275972
 20
7.0000006496756271
 30
0.0
 11
21.98228791879998
 21
8.8049385261996065
 31
0.0
  0
LINE
  5
3BE
  8
0
 62
     0
 10
26.279324430157398
 20
14.00000064966394
 30
0.0
 11
28.279324430163459
 21
16.000000649669971
 31
0.0
  0
LINE
  5
3BF
  8
0
 62
     0
 10
19.279324430168799
 20
7.000000649675342
 30
0.0
 11
21.279324430158589
 21
9.0000006496651395
 31
0.0
  0
LINE
  5
3C0
  8
0
 62
     0
 10
25.381298818050482
 20
14.000000649663971
 30
0.0
 11
27.381298818056511
 21
16.00000064967
 31
0.0
  0
LINE
  5
3C1
  8
0
 62
     0
 10
18.381298818061619
 20
7.0000006496751146
 30
0.0
 11
20.38129881805429
 21
9.0000006496677827
 31
0.0
  0
LINE
  5
3C2
  8
0
 62
     0
 10
24.48327320594354
 20
14.00000064966391
 30
0.0
 11
26.483273205949619
 21
16.00000064967
 31
0.0
  0
LINE
  5
3C3
  8
0
 62
     0
 10
17.48327320595445
 20
7.0000006496748313
 30
0.0
 11
19.483273205950042
 21
9.0000006496704241
 31
0.0
  0
LINE
  5
3C4
  8
0
 62
     0
 10
23.585247593836609
 20
14.00000064966394
 30
0.0
 11
25.585247593842691
 21
16.000000649670032
 31
0.0
  0
LINE
  5
3C5
  8
0
 62
     0
 10
16.585247593847299
 20
7.000000649674603
 30
0.0
 11
18.585247593845711
 21
9.0000006496730123
 31
0.0
  0
LINE
  5
3C6
  8
0
 62
     0
 10
22.68722198172966
 20
14.000000649663891
 30
0.0
 11
24.687221981735799
 21
16.000000649670032
 31
0.0
  0
LINE
  5
3C7
  8
0
 62
     0
 10
15.687221981740089
 20
7.0000006496743188
 30
0.0
 11
17.687221981741459
 21
9.0000006496756821
 31
0.0
  0
LINE
  5
3C8
  8
0
 62
     0
 10
21.789196369622768
 20
14.000000649663891
 30
0.0
 11
23.789196369628911
 21
16.00000064967
 31
0.0
  0
LINE
  5
3C9
  8
0
 62
     0
 10
14.78919636963292
 20
7.0000006496740346
 30
0.0
 11
17.24999998771295
 21
9.4608042677540691
 31
0.0
  0
LINE
  5
3CA
  8
0
 62
     0
 10
20.891170757515852
 20
14.00000064966391
 30
0.0
 11
22.89117075752193
 21
16.00000064967
 31
0.0
  0
LINE
  5
3CB
  8
0
 62
     0
 10
13.891170757525771
 20
7.0000006496738356
 30
0.0
 11
17.249999987712918
 21
10.358829879860989
 31
0.0
  0
LINE
  5
3CC
  8
0
 62
     0
 10
15.2499999877069
 20
9.2568554919618293
 30
0.0
 11
17.249999987712979
 21
11.25685549196794
 31
0.0
  0
LINE
  5
3CD
  8
0
 62
     0
 10
19.99314514540896
 20
14.00000064966391
 30
0.0
 11
21.993145145415038
 21
16.00000064967
 31
0.0
  0
LINE
  5
3CE
  8
0
 62
     0
 10
12.99314514541862
 20
7.0000006496735798
 30
0.0
 11
14.99314514541507
 21
9.0000006496700262
 31
0.0
  0
LINE
  5
3CF
  8
0
 62
     0
 10
15.2499999877069
 20
10.154881104068799
 30
0.0
 11
17.24999998771295
 21
12.15488110407486
 31
0.0
  0
LINE
  5
3D0
  8
0
 62
     0
 10
19.095119533302039
 20
14.00000064966391
 30
0.0
 11
21.095119533308068
 21
16.000000649669971
 31
0.0
  0
LINE
  5
3D1
  8
0
 62
     0
 10
12.09511953331142
 20
7.000000649673324
 30
0.0
 11
14.09511953330809
 21
9.0000006496699996
 31
0.0
  0
LINE
  5
3D2
  8
0
 62
     0
 10
15.2499999877069
 20
11.0529067161757
 30
0.0
 11
17.249999987713011
 21
13.052906716181781
 31
0.0
  0
LINE
  5
3D3
  8
0
 62
     0
 10
18.197093921195119
 20
14.00000064966391
 30
0.0
 11
20.19709392120123
 21
16.00000064967
 31
0.0
  0
LINE
  5
3D4
  8
0
 62
     0
 10
11.197093921204241
 20
7.0000006496730398
 30
0.0
 11
13.1970939212012
 21
9.0000006496699996
 31
0.0
  0
LINE
  5
3D5
  8
0
 62
     0
 10
15.24999998770695
 20
11.950932328282651
 30
0.0
 11
19.299068309094281
 21
16.000000649669971
 31
0.0
  0
LINE
  5
3D6
  8
0
 62
     0
 10
10.299068309097089
 20
7.000000649672784
 30
0.0
 11
12.299068309094309
 21
9.0000006496699996
 31
0.0
  0
LINE
  5
3D7
  8
0
 62
     0
 10
15.24999998770693
 20
12.848957940389569
 30
0.0
 11
18.401042696987361
 21
16.00000064967
 31
0.0
  0
LINE
  5
3D8
  8
0
 62
     0
 10
9.4010426969899186
 20
7.0000006496725566
 30
0.0
 11
11.401042696987391
 21
9.0000006496699996
 31
0.0
  0
LINE
  5
3D9
  8
0
 62
     0
 10
15.24999998770693
 20
13.746983552496459
 30
0.0
 11
17.503017084880469
 21
16.000000649669971
 31
0.0
  0
LINE
  5
3DA
  8
0
 62
     0
 10
8.5030170848827424
 20
7.0000006496722733
 30
0.0
 11
10.50301708488047
 21
9.0000006496699996
 31
0.0
  0
LINE
  5
3DB
  8
0
 62
     0
 10
14.60499147277355
 20
14.000000649670019
 30
0.0
 11
16.60499147277352
 21
16.00000064967
 31
0.0
  0
LINE
  5
3DC
  8
0
 62
     0
 10
7.604991472775537
 20
7.0000006496720166
 30
0.0
 11
9.6049914727735484
 21
9.0000006496700262
 31
0.0
  0
LINE
  5
3DD
  8
0
 62
     0
 10
13.70696586066663
 20
14.000000649669969
 30
0.0
 11
15.70696586066663
 21
16.00000064967
 31
0.0
  0
LINE
  5
3DE
  8
0
 62
     0
 10
6.7069658606684177
 20
7.0000006496717901
 30
0.0
 11
8.7069658606666565
 21
9.0000006496700262
 31
0.0
  0
LINE
  5
3DF
  8
0
 62
     0
 10
12.808940248559679
 20
14.00000064967
 30
0.0
 11
14.808940248559701
 21
16.000000649670032
 31
0.0
  0
LINE
  5
3E0
  8
0
 62
     0
 10
5.8089402485612416
 20
7.0000006496715619
 30
0.0
 11
7.8089402485597361
 21
9.0000006496700564
 31
0.0
  0
LINE
  5
3E1
  8
0
 62
     0
 10
11.91091463645278
 20
14.00000064967
 30
0.0
 11
13.91091463645281
 21
16.000000649670032
 31
0.0
  0
LINE
  5
3E2
  8
0
 62
     0
 10
4.9109146364540663
 20
7.0000006496712777
 30
0.0
 11
6.9109146364528442
 21
9.0000006496700262
 31
0.0
  0
LINE
  5
3E3
  8
0
 62
     0
 10
11.01288902434589
 20
14.00000064967
 30
0.0
 11
13.01288902434592
 21
16.00000064967
 31
0.0
  0
LINE
  5
3E4
  8
0
 62
     0
 10
4.0128890243469177
 20
7.0000006496710219
 30
0.0
 11
6.012889024345923
 21
9.0000006496700262
 31
0.0
  0
LINE
  5
3E5
  8
0
 62
     0
 10
10.11486341223897
 20
14.000000649670019
 30
0.0
 11
12.11486341223894
 21
16.00000064967
 31
0.0
  0
LINE
  5
3E6
  8
0
 62
     0
 10
3.1148634122397141
 20
7.0000006496707661
 30
0.0
 11
5.1148634122389751
 21
9.0000006496700262
 31
0.0
  0
LINE
  5
3E7
  8
0
 62
     0
 10
9.2168378001320832
 20
14.000000649670019
 30
0.0
 11
11.21683780013208
 21
16.000000649670032
 31
0.0
  0
LINE
  5
3E8
  8
0
 62
     0
 10
2.2168378001325659
 20
7.0000006496705112
 30
0.0
 11
4.2168378001320832
 21
9.0000006496700262
 31
0.0
  0
LINE
  5
3E9
  8
0
 62
     0
 10
8.3188121880251344
 20
14.000000649670019
 30
0.0
 11
10.31881218802507
 21
16.000000649669971
 31
0.0
  0
LINE
  5
3EA
  8
0
 62
     0
 10
1.3188121880253609
 20
7.0000006496702554
 30
0.0
 11
3.318812188025134
 21
9.0000006496700262
 31
0.0
  0
LINE
  5
3EB
  8
0
 62
     0
 10
7.4207865759182416
 20
14.000000649670019
 30
0.0
 11
9.4207865759182141
 21
16.00000064967
 31
0.0
  0
LINE
  5
3EC
  8
0
 62
     0
 10
0.4207865759181857
 20
7.0000006496699712
 30
0.0
 11
2.4207865759182141
 21
9.0000006496699996
 31
0.0
  0
LINE
  5
3ED
  8
0
 62
     0
 10
6.5227609638113222
 20
14.00000064967
 30
0.0
 11
8.5227609638112938
 21
16.000000649669971
 31
0.0
  0
LINE
  5
3EE
  8
0
 62
     0
 10
-0.0000000122931283
 20
7.4772396735655491
 30
0.0
 11
1.522760963811322
 21
9.0000006496699996
 31
0.0
  0
LINE
  5
3EF
  8
0
 62
     0
 10
5.624735351704345
 20
14.000000649669969
 30
0.0
 11
7.6247353517043734
 21
16.00000064967
 31
0.0
  0
LINE
  5
3F0
  8
0
 62
     0
 10
-0.0000000122930714
 20
8.3752652856725547
 30
0.0
 11
0.6247353517043736
 21
9.0000006496699996
 31
0.0
  0
LINE
  5
3F1
  8
0
 62
     0
 10
4.7267097395974531
 20
14.000000649669969
 30
0.0
 11
6.7267097395974531
 21
16.000000649669971
 31
0.0
  0
LINE
  5
3F2
  8
0
 62
     0
 10
3.8286841274905319
 20
14.00000064967
 30
0.0
 11
5.8286841274905319
 21
16.00000064967
 31
0.0
  0
LINE
  5
3F3
  8
0
 62
     0
 10
2.93065851538364
 20
14.000000649669969
 30
0.0
 11
4.93065851538364
 21
16.00000064967
 31
0.0
  0
LINE
  5
3F4
  8
0
 62
     0
 10
2.0326329032767201
 20
14.000000649669969
 30
0.0
 11
4.0326329032767481
 21
16.00000064967
 31
0.0
  0
LINE
  5
3F5
  8
0
 62
     0
 10
1.1346072911698
 20
14.00000064967
 30
0.0
 11
3.1346072911698282
 21
16.000000649670032
 31
0.0
  0
LINE
  5
3F6
  8
0
 62
     0
 10
0.2369238823325475
 20
14.000342852939641
 30
0.0
 11
2.2365816790629358
 21
16.00000064967
 31
0.0
  0
LINE
  5
3F7
  8
0
 62
     0
 10
-0.0000000122931283
 20
14.66144457042091
 30
0.0
 11
1.3385560669559591
 21
16.00000064967
 31
0.0
  0
LINE
  5
3F8
  8
0
 62
     0
 10
-0.0000000122930714
 20
15.559470182527861
 30
0.0
 11
0.4405304548490961
 21
16.000000649670032
 31
0.0
  0
ENDBLK
  5
3FA
  8
0
  0
BLOCK
  8
0
  2
*U3
 70
     1
 10
0.0
 20
0.0
 30
0.0
  3
*U3
  1

  0
ARC
  5
3FC
  8
0
 10
37.045900033706921
 20
13.70410060366998
 30
0.0
 40
0.2959000459939602
 50
90.0
 51
179.99999999999449
  0
LINE
  5
3FD
  8
0
 10
37.045900033706921
 20
14.000000649670019
 30
0.0
 11
52.954099941706907
 21
14.000000649670019
 31
0.0
  0
ARC
  5
3FE
  8
0
 10
52.954099941706907
 20
13.70410060366998
 30
0.0
 40
0.2959000459939602
 50
0.0
 51
89.999999999994515
  0
LINE
  5
3FF
  8
0
 10
53.249999987700882
 20
13.70410060366998
 30
0.0
 11
53.249999987706921
 21
9.2500006496699996
 31
0.0
  0
ARC
  5
400
  8
0
 10
52.999999987706929
 20
9.2500006496699996
 30
0.0
 40
0.25
 50
270.0
 51
0.0
  0
LINE
  5
401
  8
0
 10
52.999999987706929
 20
9.0000006496699996
 30
0.0
 11
36.999999987706929
 21
9.0000006496699996
 31
0.0
  0
ARC
  5
402
  8
0
 10
36.999999987706929
 20
9.2500006496699996
 30
0.0
 40
0.25
 50
180.0
 51
270.0
  0
LINE
  5
403
  8
0
 10
36.749999987706929
 20
9.2500006496699996
 30
0.0
 11
36.749999987712961
 21
13.70410060366998
 31
0.0
  0
ARC
  5
404
  8
0
 10
0.2499999877068433
 20
14.250000649669939
 30
0.0
 40
0.2499999999999432
 50
180.0
 51
270.00000000003263
  0
LINE
  5
405
  8
0
 10
0.2499999877069285
 20
14.00000064967
 30
0.0
 11
14.99999998770693
 21
14.000000649670019
 31
0.0
  0
ARC
  5
406
  8
0
 10
14.99999998770698
 20
13.75000064967008
 30
0.0
 40
0.2499999999999432
 50
359.99999999998698
 51
90.000000000013031
  0
LINE
  5
407
  8
0
 10
15.24999998770693
 20
13.75000064967003
 30
0.0
 11
15.2499999877069
 21
9.2500006496699996
 31
0.0
  0
ARC
  5
408
  8
0
 10
14.9999999877069
 20
9.2500006496700262
 30
0.0
 40
0.25
 50
270.00000000001302
 51
0.0
  0
LINE
  5
409
  8
0
 10
14.99999998770693
 20
9.0000006496700262
 30
0.0
 11
0.2499999877069001
 21
9.0000006496700262
 31
0.0
  0
ARC
  5
40A
  8
0
 10
0.2499999877069854
 20
8.7500006496699712
 30
0.0
 40
0.2500000000000568
 50
90.000000000019526
 51
179.99999999999349
  0
LINE
  5
40B
  8
0
 10
-0.0000000122930714
 20
8.7500006496699996
 30
0.0
 11
-0.0000000122931283
 21
7.2500006496700271
 31
0.0
  0
ARC
  5
40C
  8
0
 10
0.249999987706957
 20
7.2500006496700564
 30
0.0
 40
0.2500000000000853
 50
180.0
 51
269.99999999998698
  0
LINE
  5
40D
  8
0
 10
0.2499999877069285
 20
7.0000006496699712
 30
0.0
 11
21.704099941706911
 21
7.0000006496760534
 31
0.0
  0
ARC
  5
40E
  8
0
 10
21.704099941706911
 20
7.2959006956700128
 30
0.0
 40
0.2959000459939602
 50
270.0
 51
0.0
  0
LINE
  5
40F
  8
0
 10
21.999999987700878
 20
7.2959006956700128
 30
0.0
 11
21.99999998770085
 21
8.7041006036700423
 31
0.0
  0
ARC
  5
410
  8
0
 10
21.704099941706939
 20
8.7041006036700423
 30
0.0
 40
0.2959000459939034
 50
0.0
 51
90.000000000005514
  0
LINE
  5
411
  8
0
 10
21.704099941706911
 20
9.0000006496639458
 30
0.0
 11
17.545900033706911
 21
9.0000006496760534
 31
0.0
  0
ARC
  5
412
  8
0
 10
17.545900033706971
 20
9.2959006956700705
 30
0.0
 40
0.2959000459940171
 50
180.000000000011
 51
269.99999999998897
  0
LINE
  5
413
  8
0
 10
17.24999998771295
 20
9.2959006956700136
 30
0.0
 11
17.24999998771295
 21
13.70410060367001
 31
0.0
  0
ARC
  5
414
  8
0
 10
17.545900033706911
 20
13.70410060366998
 30
0.0
 40
0.2959000459939602
 50
90.0000000000055
 51
180.0
  0
LINE
  5
415
  8
0
 10
17.545900033706911
 20
14.00000064966394
 30
0.0
 11
34.454099941706943
 21
14.00000064966394
 31
0.0
  0
ARC
  5
416
  8
0
 10
34.454099941706922
 20
13.70410060366998
 30
0.0
 40
0.2959000459939602
 50
0.0
 51
89.999999999994486
  0
LINE
  5
417
  8
0
 10
34.749999987700868
 20
13.70410060366998
 30
0.0
 11
34.749999987700868
 21
9.2959006956700136
 31
0.0
  0
ARC
  5
418
  8
0
 10
34.454099941706922
 20
9.2959006956700136
 30
0.0
 40
0.2959000459939602
 50
270.0
 51
0.0
  0
LINE
  5
419
  8
0
 10
34.454099941706922
 20
9.0000006496760534
 30
0.0
 11
30.295900033706911
 21
9.0000006496639458
 31
0.0
  0
ARC
  5
41A
  8
0
 10
30.295900033706889
 20
8.7041006036700423
 30
0.0
 40
0.2959000459939034
 50
89.999999999994515
 51
180.00000000000551
  0
LINE
  5
41B
  8
0
 10
29.999999987712979
 20
8.7041006036700121
 30
0.0
 11
29.999999987712961
 21
7.2959006956700128
 31
0.0
  0
ARC
  5
41C
  8
0
 10
30.295900033706971
 20
7.2959006956700696
 30
0.0
 40
0.2959000459940171
 50
180.0
 51
269.999999999978
  0
LINE
  5
41D
  8
0
 10
30.295900033706911
 20
7.0000006496760534
 30
0.0
 11
34.454099941706893
 21
7.0000006496639449
 31
0.0
  0
ARC
  5
41E
  8
0
 10
34.454099941706922
 20
6.7041006036700423
 30
0.0
 40
0.2959000459939034
 50
359.99999999999449
 51
90.000000000005514
  0
LINE
  5
41F
  8
0
 10
34.749999987700818
 20
6.704100603670013
 30
0.0
 11
34.749999987712982
 21
0.2959006956699852
 31
0.0
  0
ARC
  5
420
  8
0
 10
35.045900033706857
 20
0.2959006956699284
 30
0.0
 40
0.295900045993875
 50
180.0
 51
270.000000000022
  0
LINE
  5
421
  8
0
 10
35.045900033706921
 20
0.0000006496760534
 30
0.0
 11
40.204099941706907
 21
0.0000006496760818
 31
0.0
  0
ARC
  5
422
  8
0
 10
40.204099941707
 20
0.2959006956699568
 30
0.0
 40
0.295900045993875
 50
269.99999999998352
 51
0.0000000000110312
  0
LINE
  5
423
  8
0
 10
40.499999987700868
 20
0.2959006956700136
 30
0.0
 11
40.499999987700868
 21
1.704100603670013
 31
0.0
  0
ARC
  5
424
  8
0
 10
40.204099941706971
 20
1.7041006036700701
 30
0.0
 40
0.2959000459939034
 50
0.0
 51
90.000000000022027
  0
LINE
  5
425
  8
0
 10
40.204099941706907
 20
2.0000006496639742
 30
0.0
 11
37.045900033706943
 21
2.0000006496760809
 31
0.0
  0
ARC
  5
426
  8
0
 10
37.045900033706857
 20
2.2959006956699559
 30
0.0
 40
0.295900045993875
 50
179.99999999998889
 51
270.00000000001648
  0
LINE
  5
427
  8
0
 10
36.749999987712982
 20
2.2959006956700132
 30
0.0
 11
36.749999987706929
 21
6.7500006496699987
 31
0.0
  0
ARC
  5
428
  8
0
 10
36.999999987706872
 20
6.7500006496700271
 30
0.0
 40
0.2499999999999432
 50
89.99999999998046
 51
180.0
  0
LINE
  5
429
  8
0
 10
36.999999987706929
 20
7.0000006496699712
 30
0.0
 11
52.999999987706929
 21
7.0000006496699987
 31
0.0
  0
ARC
  5
42A
  8
0
 10
52.999999987706957
 20
6.7500006496699987
 30
0.0
 40
0.25
 50
0.0
 51
90.000000000006509
  0
LINE
  5
42B
  8
0
 10
53.249999987706957
 20
6.7500006496699987
 30
0.0
 11
53.249999987700853
 21
2.2959006956700132
 31
0.0
  0
ARC
  5
42C
  8
0
 10
52.954099941706893
 20
2.2959006956700421
 30
0.0
 40
0.2959000459939602
 50
270.00000000001103
 51
0.0
  0
LINE
  5
42D
  8
0
 10
52.954099941706907
 20
2.0000006496760809
 30
0.0
 11
49.795900033706921
 21
2.0000006496639742
 31
0.0
  0
ARC
  5
42E
  8
0
 10
49.795900033706921
 20
1.704100603670013
 30
0.0
 40
0.2959000459939602
 50
90.0
 51
180.0
  0
LINE
  5
42F
  8
0
 10
49.499999987712947
 20
1.704100603670013
 30
0.0
 11
49.499999987712982
 21
0.2959006956699852
 31
0.0
  0
ARC
  5
430
  8
0
 10
49.79590003370685
 20
0.2959006956699284
 30
0.0
 40
0.295900045993875
 50
180.0
 51
270.000000000022
  0
LINE
  5
431
  8
0
 10
49.795900033706921
 20
0.0000006496760534
 30
0.0
 11
54.954099941706907
 21
0.0000006496760818
 31
0.0
  0
ARC
  5
432
  8
0
 10
54.954099941706993
 20
0.2959006956699568
 30
0.0
 40
0.295900045993875
 50
269.99999999998352
 51
0.0000000000110312
  0
LINE
  5
433
  8
0
 10
55.249999987700882
 20
0.2959006956700136
 30
0.0
 11
55.249999987712961
 21
6.704100603670013
 31
0.0
  0
ARC
  5
434
  8
0
 10
55.545900033706907
 20
6.704100603670013
 30
0.0
 40
0.2959000459939602
 50
90.0
 51
180.0
  0
LINE
  5
435
  8
0
 10
55.545900033706907
 20
7.0000006496639742
 30
0.0
 11
59.704099941706907
 21
7.0000006496760809
 31
0.0
  0
ARC
  5
436
  8
0
 10
59.704099941707
 20
7.2959006956699559
 30
0.0
 40
0.295900045993875
 50
269.99999999998352
 51
0.0000000000110312
  0
LINE
  5
437
  8
0
 10
59.999999987700868
 20
7.2959006956700128
 30
0.0
 11
59.999999987700868
 21
8.7041006036700121
 31
0.0
  0
ARC
  5
438
  8
0
 10
59.704099941706971
 20
8.7041006036700708
 30
0.0
 40
0.2959000459939034
 50
0.0
 51
90.000000000022027
  0
LINE
  5
439
  8
0
 10
59.704099941706907
 20
9.0000006496639742
 30
0.0
 11
55.545900033706943
 21
9.0000006496760818
 31
0.0
  0
ARC
  5
43A
  8
0
 10
55.545900033706857
 20
9.2959006956699568
 30
0.0
 40
0.295900045993875
 50
179.99999999998889
 51
270.00000000001648
  0
LINE
  5
43B
  8
0
 10
55.249999987712982
 20
9.2959006956700136
 30
0.0
 11
55.249999987712961
 21
13.70410060367001
 31
0.0
  0
ARC
  5
43C
  8
0
 10
55.545900033706857
 20
13.704100603670071
 30
0.0
 40
0.2959000459939034
 50
89.999999999977973
 51
180.0
  0
LINE
  5
43D
  8
0
 10
55.545900033706907
 20
14.000000649663971
 30
0.0
 11
72.454099941706886
 21
14.00000064966394
 31
0.0
  0
ARC
  5
43E
  8
0
 10
72.454099941706772
 20
13.70410060366987
 30
0.0
 40
0.2959000459940739
 50
0.000000000021984
 51
89.999999999977973
  0
LINE
  5
43F
  8
0
 10
72.749999987700846
 20
13.70410060366998
 30
0.0
 11
72.749999987700846
 21
9.2959006956700136
 31
0.0
  0
ARC
  5
440
  8
0
 10
72.454099941706943
 20
9.2959006956699852
 30
0.0
 40
0.2959000459939034
 50
269.99999999998352
 51
0.0
  0
LINE
  5
441
  8
0
 10
72.454099941706886
 20
9.0000006496760818
 30
0.0
 11
68.295900033706914
 21
9.0000006496639742
 31
0.0
  0
ARC
  5
442
  8
0
 10
68.295900033706914
 20
8.7041006036700708
 30
0.0
 40
0.2959000459939034
 50
90.0
 51
180.000000000011
  0
LINE
  5
443
  8
0
 10
67.999999987713011
 20
8.7041006036700121
 30
0.0
 11
67.999999987712954
 21
7.2959006956699852
 31
0.0
  0
ARC
  5
444
  8
0
 10
68.295900033706971
 20
7.295900695670098
 30
0.0
 40
0.2959000459940171
 50
180.0
 51
269.99999999996697
  0
LINE
  5
445
  8
0
 10
68.295900033706914
 20
7.0000006496760809
 30
0.0
 11
89.749999987706929
 21
7.0000006496699712
 31
0.0
  0
ARC
  5
446
  8
0
 10
89.749999987706929
 20
7.2500006496700271
 30
0.0
 40
0.2500000000000568
 50
270.0
 51
359.99999999999352
  0
LINE
  5
447
  8
0
 10
89.999999987706985
 20
7.2500006496699987
 30
0.0
 11
89.999999987706929
 21
8.7500006496700262
 31
0.0
  0
ARC
  5
448
  8
0
 10
89.749999987707028
 20
8.7500006496701417
 30
0.0
 40
0.2499999999998863
 50
0.0
 51
90.000000000052125
  0
LINE
  5
449
  8
0
 10
89.749999987706929
 20
9.0000006496700262
 30
0.0
 11
74.999999987706929
 21
9.0000006496699996
 31
0.0
  0
ARC
  5
44A
  8
0
 10
74.999999987706929
 20
9.2500006496700564
 30
0.0
 40
0.2500000000000568
 50
180.00000000001299
 51
270.0
  0
LINE
  5
44B
  8
0
 10
74.749999987706872
 20
9.2500006496699996
 30
0.0
 11
74.749999987706929
 21
13.75000064967003
 31
0.0
  0
ARC
  5
44C
  8
0
 10
74.999999987706815
 20
13.75000064967011
 30
0.0
 40
0.2499999999998863
 50
89.99999999998046
 51
180.0
  0
LINE
  5
44D
  8
0
 10
74.999999987706815
 20
14.00000064967
 30
0.0
 11
89.749999987706929
 21
14.000000649669969
 31
0.0
  0
ARC
  5
44E
  8
0
 10
89.749999987706985
 20
14.250000649669911
 30
0.0
 40
0.2499999999999432
 50
269.99999999998698
 51
0.0000000000195044
  0
LINE
  5
44F
  8
0
 10
89.999999987706929
 20
14.25000064967
 30
0.0
 11
89.999999987706929
 21
15.75000064967003
 31
0.0
  0
ARC
  5
450
  8
0
 10
89.749999987707028
 20
15.75000064967011
 30
0.0
 40
0.2499999999998863
 50
0.0
 51
90.000000000019526
  0
LINE
  5
451
  8
0
 10
89.749999987707028
 20
16.00000064967
 30
0.0
 11
0.2499999877069285
 21
16.000000649670032
 31
0.0
  0
ARC
  5
452
  8
0
 10
0.2499999877068717
 20
15.75000064967008
 30
0.0
 40
0.2499999999999432
 50
89.999999999986969
 51
180.00000000001299
  0
LINE
  5
453
  8
0
 10
-0.0000000122930714
 20
15.75000064967003
 30
0.0
 11
-0.0000000122930999
 21
14.25000064967
 31
0.0
  0
ENDBLK
  5
455
  8
0
  0
ENDSEC
  0
SECTION
  2
ENTITIES
  0
ARC
  5
26B
  8
0
 10
1699.2121975786779
 20
1902.8116570306261
 30
0.0
 40
0.2959000459939602
 50
90.0
 51
179.99999999999449
  0
LINE
  5
26C
  8
0
 10
1699.2121975786779
 20
1903.1075570766261
 30
0.0
 11
1715.120397486678
 21
1903.1075570766261
 31
0.0
  0
ARC
  5
26D
  8
0
 10
1715.120397486678
 20
1902.8116570306261
 30
0.0
 40
0.2959000459939602
 50
0.0
 51
89.999999999994515
  0
LINE
  5
26E
  8
0
 10
1715.416297532671
 20
1902.8116570306261
 30
0.0
 11
1715.4162975326781
 21
1898.3575570766261
 31
0.0
  0
ARC
  5
26F
  8
0
 10
1715.1662975326769
 20
1898.3575570766261
 30
0.0
 40
0.25
 50
270.0
 51
0.0
  0
LINE
  5
270
  8
0
 10
1715.1662975326769
 20
1898.1075570766261
 30
0.0
 11
1699.1662975326769
 21
1898.1075570766261
 31
0.0
  0
ARC
  5
271
  8
0
 10
1699.1662975326769
 20
1898.3575570766261
 30
0.0
 40
0.25
 50
180.0
 51
270.0
  0
LINE
  5
272
  8
0
 10
1698.9162975326781
 20
1898.3575570766261
 30
0.0
 11
1698.916297532684
 21
1902.8116570306261
 31
0.0
  0
ARC
  5
273
  8
0
 10
1662.4162975326769
 20
1903.3575570766261
 30
0.0
 40
0.2499999999999432
 50
180.0
 51
270.00000000003263
  0
LINE
  5
274
  8
0
 10
1662.4162975326769
 20
1903.1075570766261
 30
0.0
 11
1677.1662975326781
 21
1903.1075570766261
 31
0.0
  0
ARC
  5
275
  8
0
 10
1677.1662975326781
 20
1902.8575570766261
 30
0.0
 40
0.2499999999999432
 50
359.99999999998698
 51
90.000000000013031
  0
LINE
  5
276
  8
0
 10
1677.4162975326781
 20
1902.8575570766261
 30
0.0
 11
1677.4162975326781
 21
1898.3575570766261
 31
0.0
  0
ARC
  5
277
  8
0
 10
1677.1662975326781
 20
1898.3575570766261
 30
0.0
 40
0.25
 50
270.00000000001302
 51
0.0
  0
LINE
  5
278
  8
0
 10
1677.1662975326781
 20
1898.1075570766261
 30
0.0
 11
1662.4162975326769
 21
1898.1075570766261
 31
0.0
  0
ARC
  5
279
  8
0
 10
1662.4162975326781
 20
1897.8575570766261
 30
0.0
 40
0.2500000000000568
 50
90.000000000019526
 51
179.99999999999349
  0
LINE
  5
27A
  8
0
 10
1662.1662975326781
 20
1897.8575570766261
 30
0.0
 11
1662.1662975326781
 21
1896.3575570766261
 31
0.0
  0
ARC
  5
27B
  8
0
 10
1662.4162975326781
 20
1896.3575570766261
 30
0.0
 40
0.2500000000000853
 50
180.0
 51
269.99999999998698
  0
LINE
  5
27C
  8
0
 10
1662.4162975326769
 20
1896.1075570766261
 30
0.0
 11
1683.870397486678
 21
1896.107557076632
 31
0.0
  0
ARC
  5
27D
  8
0
 10
1683.870397486678
 20
1896.4034571226259
 30
0.0
 40
0.2959000459939602
 50
270.0
 51
0.0
  0
LINE
  5
27E
  8
0
 10
1684.166297532671
 20
1896.4034571226259
 30
0.0
 11
1684.166297532671
 21
1897.8116570306261
 31
0.0
  0
ARC
  5
27F
  8
0
 10
1683.870397486678
 20
1897.8116570306261
 30
0.0
 40
0.2959000459939034
 50
0.0
 51
90.000000000005514
  0
LINE
  5
280
  8
0
 10
1683.870397486678
 20
1898.10755707662
 30
0.0
 11
1679.7121975786779
 21
1898.107557076632
 31
0.0
  0
ARC
  5
281
  8
0
 10
1679.7121975786779
 20
1898.4034571226259
 30
0.0
 40
0.2959000459940171
 50
180.000000000011
 51
269.99999999998897
  0
LINE
  5
282
  8
0
 10
1679.416297532684
 20
1898.4034571226259
 30
0.0
 11
1679.416297532684
 21
1902.8116570306261
 31
0.0
  0
ARC
  5
283
  8
0
 10
1679.7121975786779
 20
1902.8116570306261
 30
0.0
 40
0.2959000459939602
 50
90.0000000000055
 51
180.0
  0
LINE
  5
284
  8
0
 10
1679.7121975786779
 20
1903.10755707662
 30
0.0
 11
1696.620397486678
 21
1903.10755707662
 31
0.0
  0
ARC
  5
285
  8
0
 10
1696.620397486678
 20
1902.8116570306261
 30
0.0
 40
0.2959000459939602
 50
0.0
 51
89.999999999994486
  0
LINE
  5
286
  8
0
 10
1696.9162975326719
 20
1902.8116570306261
 30
0.0
 11
1696.9162975326719
 21
1898.4034571226259
 31
0.0
  0
ARC
  5
287
  8
0
 10
1696.620397486678
 20
1898.4034571226259
 30
0.0
 40
0.2959000459939602
 50
270.0
 51
0.0
  0
LINE
  5
288
  8
0
 10
1696.620397486678
 20
1898.107557076632
 30
0.0
 11
1692.462197578677
 21
1898.10755707662
 31
0.0
  0
ARC
  5
289
  8
0
 10
1692.462197578677
 20
1897.8116570306261
 30
0.0
 40
0.2959000459939034
 50
89.999999999994515
 51
180.00000000000551
  0
LINE
  5
28A
  8
0
 10
1692.166297532684
 20
1897.8116570306261
 30
0.0
 11
1692.166297532684
 21
1896.4034571226259
 31
0.0
  0
ARC
  5
28B
  8
0
 10
1692.462197578677
 20
1896.4034571226259
 30
0.0
 40
0.2959000459940171
 50
180.0
 51
269.999999999978
  0
LINE
  5
28C
  8
0
 10
1692.462197578677
 20
1896.107557076632
 30
0.0
 11
1696.6203974866769
 21
1896.10755707662
 31
0.0
  0
ARC
  5
28D
  8
0
 10
1696.620397486678
 20
1895.8116570306261
 30
0.0
 40
0.2959000459939034
 50
359.99999999999449
 51
90.000000000005514
  0
LINE
  5
28E
  8
0
 10
1696.9162975326719
 20
1895.8116570306261
 30
0.0
 11
1696.916297532684
 21
1889.4034571226259
 31
0.0
  0
ARC
  5
28F
  8
0
 10
1697.2121975786779
 20
1889.403457122625
 30
0.0
 40
0.295900045993875
 50
180.0
 51
270.000000000022
  0
LINE
  5
290
  8
0
 10
1697.2121975786779
 20
1889.107557076632
 30
0.0
 11
1702.3703974866769
 21
1889.107557076632
 31
0.0
  0
ARC
  5
291
  8
0
 10
1702.3703974866769
 20
1889.403457122625
 30
0.0
 40
0.295900045993875
 50
269.99999999998352
 51
0.0000000000110312
  0
LINE
  5
292
  8
0
 10
1702.6662975326719
 20
1889.4034571226259
 30
0.0
 11
1702.6662975326719
 21
1890.8116570306261
 31
0.0
  0
ARC
  5
293
  8
0
 10
1702.3703974866769
 20
1890.8116570306261
 30
0.0
 40
0.2959000459939034
 50
0.0
 51
90.000000000022027
  0
LINE
  5
294
  8
0
 10
1702.3703974866769
 20
1891.10755707662
 30
0.0
 11
1699.2121975786779
 21
1891.107557076632
 31
0.0
  0
ARC
  5
295
  8
0
 10
1699.2121975786779
 20
1891.4034571226259
 30
0.0
 40
0.295900045993875
 50
179.99999999998889
 51
270.00000000001648
  0
LINE
  5
296
  8
0
 10
1698.916297532684
 20
1891.4034571226259
 30
0.0
 11
1698.9162975326781
 21
1895.8575570766261
 31
0.0
  0
ARC
  5
297
  8
0
 10
1699.1662975326769
 20
1895.8575570766261
 30
0.0
 40
0.2499999999999432
 50
89.99999999998046
 51
180.0
  0
LINE
  5
298
  8
0
 10
1699.1662975326769
 20
1896.1075570766261
 30
0.0
 11
1715.1662975326769
 21
1896.1075570766261
 31
0.0
  0
ARC
  5
299
  8
0
 10
1715.1662975326781
 20
1895.8575570766261
 30
0.0
 40
0.25
 50
0.0
 51
90.000000000006509
  0
LINE
  5
29A
  8
0
 10
1715.4162975326781
 20
1895.8575570766261
 30
0.0
 11
1715.416297532671
 21
1891.4034571226259
 31
0.0
  0
ARC
  5
29B
  8
0
 10
1715.1203974866769
 20
1891.4034571226259
 30
0.0
 40
0.2959000459939602
 50
270.00000000001103
 51
0.0
  0
LINE
  5
29C
  8
0
 10
1715.120397486678
 20
1891.107557076632
 30
0.0
 11
1711.9621975786779
 21
1891.10755707662
 31
0.0
  0
ARC
  5
29D
  8
0
 10
1711.9621975786779
 20
1890.8116570306261
 30
0.0
 40
0.2959000459939602
 50
90.0
 51
180.0
  0
LINE
  5
29E
  8
0
 10
1711.666297532684
 20
1890.8116570306261
 30
0.0
 11
1711.666297532684
 21
1889.4034571226259
 31
0.0
  0
ARC
  5
29F
  8
0
 10
1711.9621975786779
 20
1889.403457122625
 30
0.0
 40
0.295900045993875
 50
180.0
 51
270.000000000022
  0
LINE
  5
2A0
  8
0
 10
1711.9621975786779
 20
1889.107557076632
 30
0.0
 11
1717.1203974866769
 21
1889.107557076632
 31
0.0
  0
ARC
  5
2A1
  8
0
 10
1717.1203974866769
 20
1889.403457122625
 30
0.0
 40
0.295900045993875
 50
269.99999999998352
 51
0.0000000000110312
  0
LINE
  5
2A2
  8
0
 10
1717.416297532671
 20
1889.4034571226259
 30
0.0
 11
1717.416297532684
 21
1895.8116570306261
 31
0.0
  0
ARC
  5
2A3
  8
0
 10
1717.712197578677
 20
1895.8116570306261
 30
0.0
 40
0.2959000459939602
 50
90.0
 51
180.0
  0
LINE
  5
2A4
  8
0
 10
1717.712197578677
 20
1896.10755707662
 30
0.0
 11
1721.870397486678
 21
1896.107557076632
 31
0.0
  0
ARC
  5
2A5
  8
0
 10
1721.870397486678
 20
1896.4034571226259
 30
0.0
 40
0.295900045993875
 50
269.99999999998352
 51
0.0000000000110312
  0
LINE
  5
2A6
  8
0
 10
1722.1662975326719
 20
1896.4034571226259
 30
0.0
 11
1722.1662975326719
 21
1897.8116570306261
 31
0.0
  0
ARC
  5
2A7
  8
0
 10
1721.870397486678
 20
1897.8116570306261
 30
0.0
 40
0.2959000459939034
 50
0.0
 51
90.000000000022027
  0
LINE
  5
2A8
  8
0
 10
1721.870397486678
 20
1898.10755707662
 30
0.0
 11
1717.712197578677
 21
1898.107557076632
 31
0.0
  0
ARC
  5
2A9
  8
0
 10
1717.712197578677
 20
1898.4034571226259
 30
0.0
 40
0.295900045993875
 50
179.99999999998889
 51
270.00000000001648
  0
LINE
  5
2AA
  8
0
 10
1717.416297532684
 20
1898.4034571226259
 30
0.0
 11
1717.416297532684
 21
1902.8116570306261
 31
0.0
  0
ARC
  5
2AB
  8
0
 10
1717.712197578677
 20
1902.8116570306261
 30
0.0
 40
0.2959000459939034
 50
89.999999999977973
 51
180.0
  0
LINE
  5
2AC
  8
0
 10
1717.712197578677
 20
1903.10755707662
 30
0.0
 11
1734.6203974866769
 21
1903.10755707662
 31
0.0
  0
ARC
  5
2AD
  8
0
 10
1734.6203974866769
 20
1902.8116570306249
 30
0.0
 40
0.2959000459940739
 50
0.000000000021984
 51
89.999999999977973
  0
LINE
  5
2AE
  8
0
 10
1734.916297532671
 20
1902.8116570306261
 30
0.0
 11
1734.916297532671
 21
1898.4034571226259
 31
0.0
  0
ARC
  5
2AF
  8
0
 10
1734.620397486678
 20
1898.4034571226259
 30
0.0
 40
0.2959000459939034
 50
269.99999999998352
 51
0.0
  0
LINE
  5
2B0
  8
0
 10
1734.6203974866769
 20
1898.107557076632
 30
0.0
 11
1730.4621975786779
 21
1898.10755707662
 31
0.0
  0
ARC
  5
2B1
  8
0
 10
1730.4621975786779
 20
1897.8116570306261
 30
0.0
 40
0.2959000459939034
 50
90.0
 51
180.000000000011
  0
LINE
  5
2B2
  8
0
 10
1730.166297532684
 20
1897.8116570306261
 30
0.0
 11
1730.166297532684
 21
1896.4034571226259
 31
0.0
  0
ARC
  5
2B3
  8
0
 10
1730.4621975786779
 20
1896.4034571226259
 30
0.0
 40
0.2959000459940171
 50
180.0
 51
269.99999999996697
  0
LINE
  5
2B4
  8
0
 10
1730.4621975786779
 20
1896.107557076632
 30
0.0
 11
1751.9162975326769
 21
1896.1075570766261
 31
0.0
  0
ARC
  5
2B5
  8
0
 10
1751.9162975326769
 20
1896.3575570766261
 30
0.0
 40
0.2500000000000568
 50
270.0
 51
359.99999999999352
  0
LINE
  5
2B6
  8
0
 10
1752.1662975326781
 20
1896.3575570766261
 30
0.0
 11
1752.1662975326769
 21
1897.8575570766261
 31
0.0
  0
ARC
  5
2B7
  8
0
 10
1751.9162975326781
 20
1897.8575570766261
 30
0.0
 40
0.2499999999998863
 50
0.0
 51
90.000000000052125
  0
LINE
  5
2B8
  8
0
 10
1751.9162975326769
 20
1898.1075570766261
 30
0.0
 11
1737.1662975326769
 21
1898.1075570766261
 31
0.0
  0
ARC
  5
2B9
  8
0
 10
1737.1662975326769
 20
1898.3575570766261
 30
0.0
 40
0.2500000000000568
 50
180.00000000001299
 51
270.0
  0
LINE
  5
2BA
  8
0
 10
1736.9162975326769
 20
1898.3575570766261
 30
0.0
 11
1736.9162975326769
 21
1902.8575570766261
 31
0.0
  0
ARC
  5
2BB
  8
0
 10
1737.1662975326769
 20
1902.8575570766261
 30
0.0
 40
0.2499999999998863
 50
89.99999999998046
 51
180.0
  0
LINE
  5
2BC
  8
0
 10
1737.1662975326769
 20
1903.1075570766261
 30
0.0
 11
1751.9162975326769
 21
1903.1075570766261
 31
0.0
  0
ARC
  5
2BD
  8
0
 10
1751.9162975326781
 20
1903.357557076625
 30
0.0
 40
0.2499999999999432
 50
269.99999999998698
 51
0.0000000000195044
  0
LINE
  5
2BE
  8
0
 10
1752.1662975326769
 20
1903.3575570766261
 30
0.0
 11
1752.1662975326769
 21
1904.8575570766261
 31
0.0
  0
ARC
  5
2BF
  8
0
 10
1751.9162975326781
 20
1904.8575570766261
 30
0.0
 40
0.2499999999998863
 50
0.0
 51
90.000000000019526
  0
LINE
  5
2C0
  8
0
 10
1751.9162975326781
 20
1905.1075570766261
 30
0.0
 11
1662.4162975326769
 21
1905.1075570766261
 31
0.0
  0
ARC
  5
2C1
  8
0
 10
1662.4162975326769
 20
1904.8575570766261
 30
0.0
 40
0.2499999999999432
 50
89.999999999986969
 51
180.00000000001299
  0
LINE
  5
2C2
  8
0
 10
1662.1662975326781
 20
1904.8575570766261
 30
0.0
 11
1662.1662975326781
 21
1903.3575570766261
 31
0.0
  0
ENDSEC
  0
EOF
