  0
SECTION
  2
HEADER
  9
$ACADVER
  1
AC1009
  9
$INSBASE
 10
0.0
 20
0.0
 30
0.0
  9
$EXTMIN
 10
1039.476930898936
 20
501.57724126565398
 30
-0.0015258207003583
  9
$EXTMAX
 10
1086.1001604447381
 20
535.11300756050389
 30
0.0000000349246037
  9
$LIMMIN
 10
0.0
 20
0.0
  9
$LIMMAX
 10
420.0
 20
297.0
  9
$ORTHOMODE
 70
     0
  9
$REGENMODE
 70
     1
  9
$FILLMODE
 70
     1
  9
$QTEXTMODE
 70
     0
  9
$MIRRTEXT
 70
     0
  9
$DRAGMODE
 70
     2
  9
$LTSCALE
 40
1.0
  9
$OSMODE
 70
  3071
  9
$ATTMODE
 70
     1
  9
$TEXTSIZE
 40
2.5
  9
$TRACEWID
 40
1.0
  9
$TEXTSTYLE
  7
STANDARD
  9
$CLAYER
  8
0
  9
$CELTYPE
  6
BYLAYER
  9
$CECOLOR
 62
   256
  9
$DIMSCALE
 40
1.0
  9
$DIMASZ
 40
2.5
  9
$DIMEXO
 40
0.625
  9
$DIMDLI
 40
3.75
  9
$DIMRND
 40
0.0
  9
$DIMDLE
 40
0.0
  9
$DIMEXE
 40
1.25
  9
$DIMTP
 40
0.0
  9
$DIMTM
 40
0.0
  9
$DIMTXT
 40
2.5
  9
$DIMCEN
 40
2.5
  9
$DIMTSZ
 40
0.0
  9
$DIMTOL
 70
     0
  9
$DIMLIM
 70
     0
  9
$DIMTIH
 70
     0
  9
$DIMTOH
 70
     0
  9
$DIMSE1
 70
     0
  9
$DIMSE2
 70
     0
  9
$DIMTAD
 70
     1
  9
$DIMZIN
 70
     8
  9
$DIMBLK
  1

  9
$DIMASO
 70
     1
  9
$DIMSHO
 70
     1
  9
$DIMPOST
  1

  9
$DIMAPOST
  1

  9
$DIMALT
 70
     0
  9
$DIMALTD
 70
     3
  9
$DIMALTF
 40
0.03937007874016
  9
$DIMLFAC
 40
1.0
  9
$DIMTOFL
 70
     1
  9
$DIMTVP
 40
0.0
  9
$DIMTIX
 70
     0
  9
$DIMSOXD
 70
     0
  9
$DIMSAH
 70
     0
  9
$DIMBLK1
  1

  9
$DIMBLK2
  1

  9
$DIMSTYLE
  2
ISO-25
  9
$DIMCLRD
 70
     0
  9
$DIMCLRE
 70
     0
  9
$DIMCLRT
 70
     0
  9
$DIMTFAC
 40
1.0
  9
$DIMGAP
 40
0.625
  9
$LUNITS
 70
     2
  9
$LUPREC
 70
     4
  9
$SKETCHINC
 40
1.0
  9
$FILLETRAD
 40
0.0
  9
$AUNITS
 70
     0
  9
$AUPREC
 70
     0
  9
$MENU
  1
.
  9
$ELEVATION
 40
0.0
  9
$PELEVATION
 40
0.0
  9
$THICKNESS
 40
0.0
  9
$LIMCHECK
 70
     0
  9
$BLIPMODE
 70
     0
  9
$CHAMFERA
 40
0.0
  9
$CHAMFERB
 40
0.0
  9
$SKPOLY
 70
     0
  9
$TDCREATE
 40
2454776.6085481951
  9
$TDUPDATE
 40
2454776.6086752429
  9
$TDINDWG
 40
0.0001277662
  9
$TDUSRTIMER
 40
0.0001277662
  9
$USRTIMER
 70
     1
  9
$ANGBASE
 50
0.0
  9
$ANGDIR
 70
     0
  9
$PDMODE
 70
     0
  9
$PDSIZE
 40
0.0
  9
$PLINEWID
 40
0.0
  9
$COORDS
 70
     1
  9
$SPLFRAME
 70
     0
  9
$SPLINETYPE
 70
     6
  9
$SPLINESEGS
 70
     8
  9
$ATTDIA
 70
     0
  9
$ATTREQ
 70
     1
  9
$HANDLING
 70
     1
  9
$HANDSEED
  5
145
  9
$SURFTAB1
 70
     6
  9
$SURFTAB2
 70
     6
  9
$SURFTYPE
 70
     6
  9
$SURFU
 70
     6
  9
$SURFV
 70
     6
  9
$UCSNAME
  2

  9
$UCSORG
 10
0.0
 20
0.0
 30
0.0
  9
$UCSXDIR
 10
1.0
 20
0.0
 30
0.0
  9
$UCSYDIR
 10
0.0
 20
1.0
 30
0.0
  9
$PUCSNAME
  2

  9
$PUCSORG
 10
0.0
 20
0.0
 30
0.0
  9
$PUCSXDIR
 10
1.0
 20
0.0
 30
0.0
  9
$PUCSYDIR
 10
0.0
 20
1.0
 30
0.0
  9
$USERI1
 70
     0
  9
$USERI2
 70
     0
  9
$USERI3
 70
     0
  9
$USERI4
 70
     0
  9
$USERI5
 70
     0
  9
$USERR1
 40
0.0
  9
$USERR2
 40
0.0
  9
$USERR3
 40
0.0
  9
$USERR4
 40
0.0
  9
$USERR5
 40
0.0
  9
$WORLDVIEW
 70
     1
  9
$SHADEDGE
 70
     3
  9
$SHADEDIF
 70
    70
  9
$TILEMODE
 70
     1
  9
$MAXACTVP
 70
    64
  9
$PLIMCHECK
 70
     0
  9
$PEXTMIN
 10
0.0
 20
0.0
 30
0.0
  9
$PEXTMAX
 10
0.0
 20
0.0
 30
0.0
  9
$PLIMMIN
 10
0.0
 20
0.0
  9
$PLIMMAX
 10
12.0
 20
9.0
  9
$UNITMODE
 70
     0
  9
$VISRETAIN
 70
     1
  9
$PLINEGEN
 70
     0
  9
$PSLTSCALE
 70
     1
  0
ENDSEC
  0
SECTION
  2
TABLES
  0
TABLE
  2
VPORT
 70
     2
  0
VPORT
  2
*ACTIVE
 70
     0
 10
0.0
 20
0.0
 11
1.0
 21
1.0
 12
1062.788545671837
 22
518.34512441307902
 13
0.0
 23
0.0
 14
10.0
 24
10.0
 15
10.0
 25
10.0
 16
0.0
 26
0.0
 36
1.0
 17
0.0
 27
0.0
 37
0.0
 40
33.955838524012961
 41
2.3598326359832629
 42
50.0
 43
0.0
 44
0.0
 50
0.0
 51
0.0
 71
     0
 72
  1000
 73
     1
 74
     3
 75
     0
 76
     0
 77
     0
 78
     0
  0
ENDTAB
  0
TABLE
  2
LTYPE
 70
     1
  0
LTYPE
  2
CONTINUOUS
 70
     0
  3
Solid line
 72
    65
 73
     0
 40
0.0
  0
ENDTAB
  0
TABLE
  2
LAYER
 70
     1
  0
LAYER
  2
0
 70
     0
 62
     7
  6
CONTINUOUS
  0
ENDTAB
  0
TABLE
  2
STYLE
 70
     2
  0
STYLE
  2
STANDARD
 70
     0
 40
0.0
 41
1.0
 50
0.0
 71
     0
 42
2.5
  3
txt
  4

  0
STYLE
  2
ROMANT
 70
     0
 40
2.5
 41
1.0
 50
15.0
 71
     0
 42
2.5
  3
romant
  4

  0
ENDTAB
  0
TABLE
  2
VIEW
 70
     0
  0
ENDTAB
  0
TABLE
  2
UCS
 70
     0
  0
ENDTAB
  0
TABLE
  2
APPID
 70
     1
  0
APPID
  2
ACAD
 70
     0
  0
ENDTAB
  0
TABLE
  2
DIMSTYLE
 70
     4
  0
DIMSTYLE
  2
ISO-25
 70
     0
  3

  4

  5

  6

  7

 40
1.0
 41
2.5
 42
0.625
 43
3.75
 44
1.25
 45
0.0
 46
0.0
 47
0.0
 48
0.0
140
2.5
141
2.5
142
0.0
143
0.03937007874016
144
1.0
145
0.0
146
1.0
147
0.625
 71
     0
 72
     0
 73
     0
 74
     0
 75
     0
 76
     0
 77
     1
 78
     8
170
     0
171
     3
172
     1
173
     0
174
     0
175
     0
176
     0
177
     0
178
     0
  0
DIMSTYLE
  2
ISO25
 70
     0
  3

  4

  5

  6

  7

 40
1.0
 41
1.8
 42
1.0
 43
3.75
 44
1.0
 45
0.0
 46
0.0
 47
0.0
 48
0.0
140
2.5
141
0.5
142
0.0
143
0.03937007874016
144
1.0
145
0.0
146
1.0
147
1.0
 71
     0
 72
     0
 73
     0
 74
     0
 75
     0
 76
     0
 77
     1
 78
     8
170
     0
171
     3
172
     1
173
     0
174
     0
175
     0
176
     0
177
     0
178
     0
  0
DIMSTYLE
  2
KESIT-RESIM
 70
     0
  3

  4

  5

  6

  7

 40
1.0
 41
2.5
 42
1.0
 43
3.75
 44
1.0
 45
0.0
 46
0.0
 47
0.0
 48
0.0
140
3.5
141
0.5
142
0.0
143
0.03937007874016
144
0.5
145
0.0
146
1.0
147
1.0
 71
     0
 72
     0
 73
     0
 74
     0
 75
     0
 76
     0
 77
     1
 78
     8
170
     0
171
     3
172
     1
173
     0
174
     0
175
     0
176
     0
177
     0
178
     0
  0
DIMSTYLE
  2
ISO-25-2
 70
     0
  3

  4

  5

  6

  7

 40
0.8
 41
2.5
 42
0.625
 43
3.75
 44
0.5
 45
0.0
 46
0.0
 47
0.0
 48
0.0
140
2.5
141
0.2
142
0.0
143
0.03937007874016
144
0.5
145
0.0
146
1.0
147
0.2
 71
     0
 72
     0
 73
     0
 74
     0
 75
     0
 76
     0
 77
     1
 78
     8
170
     0
171
     3
172
     0
173
     0
174
     0
175
     0
176
   242
177
   242
178
   242
  0
ENDTAB
  0
ENDSEC
  0
SECTION
  2
BLOCKS
  0
BLOCK
  8
0
  2
$MODEL_SPACE
 70
     0
 10
0.0
 20
0.0
 30
0.0
  3
$MODEL_SPACE
  1

  0
ENDBLK
  5
21
  8
0
  0
BLOCK
 67
     1
  8
0
  2
$PAPER_SPACE
 70
     0
 10
0.0
 20
0.0
 30
0.0
  3
$PAPER_SPACE
  1

  0
ENDBLK
  5
53
 67
     1
  8
0
  0
BLOCK
  8
0
  2
*X2
 70
     1
 10
0.0
 20
0.0
 30
0.0
  3
*X2
  1

  0
LINE
  5
D7
  8
0
 62
     0
 10
44.36338829076567
 20
0.0222954224516343
 30
0.0
 11
46.499126565874803
 21
2.1580336975605401
 31
0.0
  0
LINE
  5
D8
  8
0
 62
     0
 10
42.994054189660339
 20
-0.0000002604931524
 30
0.0
 11
46.037379802642128
 21
3.0433253524886359
 31
0.0
  0
LINE
  5
D9
  8
0
 62
     0
 10
41.647015771500037
 20
-0.0000002604933798
 30
0.0
 11
44.847015771500082
 21
3.1999997395066648
 31
0.0
  0
LINE
  5
DA
  8
0
 62
     0
 10
40.299977353339727
 20
-0.0000002604933798
 30
0.0
 11
43.499977353339538
 21
3.1999997395064379
 31
0.0
  0
LINE
  5
DB
  8
0
 62
     0
 10
38.952938935179418
 20
-0.0000002604931524
 30
0.0
 11
42.152938935179229
 21
3.1999997395066648
 31
0.0
  0
LINE
  5
DC
  8
0
 62
     0
 10
37.605900517018881
 20
-0.0000002604933798
 30
0.0
 11
40.80590051701892
 21
3.1999997395066648
 31
0.0
  0
LINE
  5
DD
  8
0
 62
     0
 10
36.258862098858572
 20
-0.0000002604933798
 30
0.0
 11
39.45886209885839
 21
3.1999997395064379
 31
0.0
  0
LINE
  5
DE
  8
0
 62
     0
 10
34.911823680698262
 20
-0.0000002604931524
 30
0.0
 11
38.11182368069808
 21
3.1999997395066648
 31
0.0
  0
LINE
  5
DF
  8
0
 62
     0
 10
33.564785262537953
 20
-0.0000002604931524
 30
0.0
 11
36.764785262537771
 21
3.1999997395066648
 31
0.0
  0
LINE
  5
E0
  8
0
 62
     0
 10
32.217746844377423
 20
-0.0000002604933798
 30
0.0
 11
35.417746844377241
 21
3.1999997395064379
 31
0.0
  0
LINE
  5
E1
  8
0
 62
     0
 10
30.87070842621711
 20
-0.0000002604931524
 30
0.0
 11
34.070708426216918
 21
3.1999997395066648
 31
0.0
  0
LINE
  5
E2
  8
0
 62
     0
 10
29.523670008056801
 20
-0.0000002604931524
 30
0.0
 11
32.723670008056622
 21
3.1999997395066648
 31
0.0
  0
LINE
  5
E3
  8
0
 62
     0
 10
28.17663158989626
 20
-0.0000002604933798
 30
0.0
 11
31.376631589896078
 21
3.1999997395064379
 31
0.0
  0
LINE
  5
E4
  8
0
 62
     0
 10
26.829593171735951
 20
-0.0000002604936071
 30
0.0
 11
30.029593171736
 21
3.1999997395064379
 31
0.0
  0
LINE
  5
E5
  8
0
 62
     0
 10
25.482554753575641
 20
-0.0000002604931524
 30
0.0
 11
28.682554753575459
 21
3.1999997395066648
 31
0.0
  0
LINE
  5
E6
  8
0
 62
     0
 10
24.135516335415112
 20
-0.0000002604933798
 30
0.0
 11
27.335516335414919
 21
3.1999997395064379
 31
0.0
  0
LINE
  5
E7
  8
0
 62
     0
 10
22.788477917255019
 20
-0.0000002604933798
 30
0.0
 11
25.988477917254841
 21
3.1999997395064379
 31
0.0
  0
LINE
  5
E8
  8
0
 62
     0
 10
21.441439499094489
 20
-0.0000002604931524
 30
0.0
 11
24.641439499094311
 21
3.1999997395066648
 31
0.0
  0
LINE
  5
E9
  8
0
 62
     0
 10
20.09440108093418
 20
-0.0000002604933798
 30
0.0
 11
23.294401080933991
 21
3.1999997395064379
 31
0.0
  0
LINE
  5
EA
  8
0
 62
     0
 10
18.74736266277387
 20
-0.0000002604933798
 30
0.0
 11
21.947362662773681
 21
3.1999997395064379
 31
0.0
  0
LINE
  5
EB
  8
0
 62
     0
 10
17.40032424461333
 20
-0.0000002604931524
 30
0.0
 11
20.600324244613152
 21
3.1999997395066648
 31
0.0
  0
LINE
  5
EC
  8
0
 62
     0
 10
16.05328582645302
 20
-0.0000002604933798
 30
0.0
 11
19.253285826453059
 21
3.1999997395066648
 31
0.0
  0
LINE
  5
ED
  8
0
 62
     0
 10
14.706247408292709
 20
-0.0000002604933798
 30
0.0
 11
17.906247408292529
 21
3.1999997395064379
 31
0.0
  0
LINE
  5
EE
  8
0
 62
     0
 10
13.359208990132171
 20
-0.0000002604931524
 30
0.0
 11
16.559208990131989
 21
3.1999997395066648
 31
0.0
  0
LINE
  5
EF
  8
0
 62
     0
 10
12.012170571971639
 20
-0.0000002604933798
 30
0.0
 11
15.21217057197191
 21
3.1999997395066648
 31
0.0
  0
LINE
  5
F0
  8
0
 62
     0
 10
10.66513215381155
 20
-0.0000002604933798
 30
0.0
 11
13.86513215381137
 21
3.1999997395064379
 31
0.0
  0
LINE
  5
F1
  8
0
 62
     0
 10
9.3180937356510185
 20
-0.0000002604931524
 30
0.0
 11
12.51809373565083
 21
3.1999997395066648
 31
0.0
  0
LINE
  5
F2
  8
0
 62
     0
 10
7.9710553174909364
 20
-0.0000002604931524
 30
0.0
 11
11.171055317490749
 21
3.1999997395066648
 31
0.0
  0
LINE
  5
F3
  8
0
 62
     0
 10
6.6240168993303987
 20
-0.0000002604933798
 30
0.0
 11
9.8240168993302177
 21
3.1999997395064379
 31
0.0
  0
LINE
  5
F4
  8
0
 62
     0
 10
5.2769784811700902
 20
-0.0000002604931524
 30
0.0
 11
8.4769784811699083
 21
3.1999997395066648
 31
0.0
  0
LINE
  5
F5
  8
0
 62
     0
 10
3.9657750966880481
 20
0.0358347731851154
 30
0.0
 11
7.1299400630095979
 21
3.1999997395066648
 31
0.0
  0
LINE
  5
F6
  8
0
 62
     0
 10
2.9117397191953378
 20
0.3288378138529424
 30
0.0
 11
5.7829016448490611
 21
3.1999997395064379
 31
0.0
  0
LINE
  5
F7
  8
0
 62
     0
 10
2.063537390954024
 20
0.827673903771938
 30
0.0
 11
4.435863226688979
 21
3.1999997395068931
 31
0.0
  0
LINE
  5
F8
  8
0
 62
     0
 10
1.3825416356678479
 20
1.493716566646071
 30
0.0
 11
3.3387016041822331
 21
3.449876535160683
 31
0.0
  0
LINE
  5
F9
  8
0
 62
     0
 10
0.8673387674537025
 20
2.3255521165924611
 30
0.0
 11
2.9999997051181699
 21
4.458213054256702
 31
0.0
  0
LINE
  5
FA
  8
0
 62
     0
 10
0.5519810936496015
 20
3.3572328609482152
 30
0.0
 11
2.9999997051183982
 21
5.8052514724170123
 31
0.0
  0
LINE
  5
FB
  8
0
 62
     0
 10
0.4999997051181709
 20
4.6522898905775492
 30
0.0
 11
2.9999997051181699
 21
7.1522898905775492
 31
0.0
  0
LINE
  5
FC
  8
0
 62
     0
 10
0.4999997051181709
 20
5.9993283087378577
 30
0.0
 11
2.9999997051181699
 21
8.4993283087378586
 31
0.0
  0
LINE
  5
FD
  8
0
 62
     0
 10
0.3581688017852684
 20
7.2045358235650383
 30
0.0
 11
2.9999997051183982
 21
9.8463667268981681
 31
0.0
  0
LINE
  5
FE
  8
0
 62
     0
 10
-0.0000002948818292
 20
8.1934051450587049
 30
0.0
 11
2.9999997051181699
 21
11.1934051450587
 31
0.0
  0
LINE
  5
FF
  8
0
 62
     0
 10
0.4999997051183982
 20
10.040443563219011
 30
0.0
 11
2.9999997051183982
 21
12.540443563219011
 31
0.0
  0
LINE
  5
100
  8
0
 62
     0
 10
-0.0000002948818292
 20
10.887481981379089
 30
0.0
 11
2.9999997051181699
 21
13.887481981379089
 31
0.0
  0
LINE
  5
101
  8
0
 62
     0
 10
0.4999997051181709
 20
12.734520399539861
 30
0.0
 11
2.9999997051181699
 21
15.234520399539861
 31
0.0
  0
LINE
  5
102
  8
0
 62
     0
 10
-0.0000002948818292
 20
13.58155881770017
 30
0.0
 11
2.9999997051181699
 21
16.58155881770017
 31
0.0
  0
LINE
  5
103
  8
0
 62
     0
 10
0.4999997051181709
 20
15.42859723586025
 30
0.0
 11
2.9999997051181699
 21
17.928597235860479
 31
0.0
  0
LINE
  5
104
  8
0
 62
     0
 10
0.0860239251201165
 20
16.361659874022958
 30
0.0
 11
2.9999997051181699
 21
19.27563565402124
 31
0.0
  0
LINE
  5
105
  8
0
 62
     0
 10
-0.0000002948818292
 20
17.622674072181098
 30
0.0
 11
2.9999997051183982
 21
20.622674072181329
 31
0.0
  0
LINE
  5
106
  8
0
 62
     0
 10
0.2799709275423083
 20
19.249683712765769
 30
0.0
 11
2.9999997051183982
 21
21.969712490341632
 31
0.0
  0
LINE
  5
107
  8
0
 62
     0
 10
-0.0000002948818292
 20
20.316750908502168
 30
0.0
 11
2.9999997051181699
 21
23.316750908502168
 31
0.0
  0
LINE
  5
108
  8
0
 62
     0
 10
0.4739179299647276
 20
22.137707551508811
 30
0.0
 11
2.9999997051183982
 21
24.663789326662481
 31
0.0
  0
LINE
  5
109
  8
0
 62
     0
 10
-0.0000002948818292
 20
23.010827744822571
 30
0.0
 11
2.9999997051183982
 21
26.010827744822791
 31
0.0
  0
LINE
  5
10A
  8
0
 62
     0
 10
0.4999997051179435
 20
24.857866162983331
 30
0.0
 11
2.9999997051181699
 21
27.357866162983331
 31
0.0
  0
LINE
  5
10B
  8
0
 62
     0
 10
-0.0000002948818292
 20
25.70490458114341
 30
0.0
 11
2.9999997051183982
 21
28.704904581143641
 31
0.0
  0
LINE
  5
10C
  8
0
 62
     0
 10
0.4999997051181709
 20
27.551942999303719
 30
0.0
 11
2.9999997051181699
 21
30.051942999303719
 31
0.0
  0
LINE
  5
10D
  8
0
 62
     0
 10
0.0078260508776111
 20
28.4068077632237
 30
0.0
 11
2.9999997051183982
 21
31.39898141746448
 31
0.0
  0
LINE
  5
10E
  8
0
 62
     0
 10
0.4999997051183982
 20
30.2460198356248
 30
0.0
 11
2.9980534165656532
 21
32.744073547072048
 31
0.0
  0
LINE
  5
10F
  8
0
 62
     0
 10
-0.0000002948818292
 20
29.746019835624569
 30
0.0
 11
0.3911158819043976
 21
30.137136012410789
 31
0.0
  0
LINE
  5
110
  8
0
 62
     0
 10
0.4999997051181709
 20
31.593058253784879
 30
0.0
 11
2.1069411908395059
 21
33.199999739506438
 31
0.0
  0
ENDBLK
  5
112
  8
0
  0
ENDSEC
  0
SECTION
  2
ENTITIES
  0
POLYLINE
  5
94
  8
0
 62
     7
 66
     1
 10
0.0
 20
0.0
 30
0.0
 70
     1
  0
VERTEX
  5
113
  8
0
 62
     7
 10
1042.490680154765
 20
506.06537812484589
 30
0.0
  0
VERTEX
  5
114
  8
0
 62
     7
 10
1042.490680154765
 20
534.56537817720573
 30
0.0
 42
0.1989123673796251
  0
VERTEX
  5
115
  8
0
 62
     7
 10
1042.3442335453581
 20
534.91893156779895
 30
0.0
 42
0.1989123673798623
  0
VERTEX
  5
116
  8
0
 62
     7
 10
1041.990680154765
 20
535.06537817720573
 30
0.0
  0
VERTEX
  5
117
  8
0
 62
     7
 10
1040.4906800762251
 20
535.06537817720573
 30
0.0
 42
0.1989124490268357
  0
VERTEX
  5
118
  8
0
 62
     7
 10
1040.1371267086349
 20
534.91893151226304
 30
0.0
 42
0.1989122857327301
  0
VERTEX
  5
119
  8
0
 62
     7
 10
1039.990680154765
 20
534.56537809866586
 30
0.0
  0
VERTEX
  5
11A
  8
0
 62
     7
 10
1039.990680154765
 20
532.06537817720573
 30
0.0
  0
VERTEX
  5
11B
  8
0
 62
     7
 10
1039.490680154765
 20
531.77670477632671
 30
0.0
  0
VERTEX
  5
11C
  8
0
 62
     7
 10
1039.490680154765
 20
530.27670477632682
 30
0.0
  0
VERTEX
  5
11D
  8
0
 62
     7
 10
1039.990680154765
 20
529.98802756075065
 30
0.0
  0
VERTEX
  5
11E
  8
0
 62
     7
 10
1039.990680154765
 20
529.06537817720573
 30
0.0
  0
VERTEX
  5
11F
  8
0
 62
     7
 10
1039.490680154765
 20
528.77670477632682
 30
0.0
  0
VERTEX
  5
120
  8
0
 62
     7
 10
1039.490680154765
 20
527.27670477632671
 30
0.0
  0
VERTEX
  5
121
  8
0
 62
     7
 10
1039.990680154765
 20
526.98802756075065
 30
0.0
  0
VERTEX
  5
122
  8
0
 62
     7
 10
1039.990680154765
 20
526.06537817720573
 30
0.0
  0
VERTEX
  5
123
  8
0
 62
     7
 10
1039.490680154765
 20
525.77670477632682
 30
0.0
  0
VERTEX
  5
124
  8
0
 62
     7
 10
1039.490680154765
 20
524.27670477632682
 30
0.0
  0
VERTEX
  5
125
  8
0
 62
     7
 10
1039.990680154765
 20
523.98802756075065
 30
0.0
  0
VERTEX
  5
126
  8
0
 62
     7
 10
1039.990680154765
 20
523.06537817720573
 30
0.0
  0
VERTEX
  5
127
  8
0
 62
     7
 10
1039.490680154765
 20
522.77670477632682
 30
0.0
  0
VERTEX
  5
128
  8
0
 62
     7
 10
1039.490680154765
 20
521.27670477632682
 30
0.0
  0
VERTEX
  5
129
  8
0
 62
     7
 10
1039.990680154765
 20
520.98802756075065
 30
0.0
  0
VERTEX
  5
12A
  8
0
 62
     7
 10
1039.990680154765
 20
520.06537817720573
 30
0.0
  0
VERTEX
  5
12B
  8
0
 62
     7
 10
1039.490680154765
 20
519.77670477632682
 30
0.0
  0
VERTEX
  5
12C
  8
0
 62
     7
 10
1039.490680154765
 20
518.27670477632682
 30
0.0
  0
VERTEX
  5
12D
  8
0
 62
     7
 10
1039.990680154765
 20
517.98802756075065
 30
0.0
  0
VERTEX
  5
12E
  8
0
 62
     7
 10
1039.990680154765
 20
517.06537817720573
 30
0.0
  0
VERTEX
  5
12F
  8
0
 62
     7
 10
1039.490680154765
 20
516.77670477632682
 30
0.0
  0
VERTEX
  5
130
  8
0
 62
     7
 10
1039.490680154765
 20
515.27670477632682
 30
0.0
  0
VERTEX
  5
131
  8
0
 62
     7
 10
1039.990680154765
 20
514.98802756075065
 30
0.0
  0
VERTEX
  5
132
  8
0
 62
     7
 10
1039.990680154765
 20
514.06537817720573
 30
0.0
  0
VERTEX
  5
133
  8
0
 62
     7
 10
1039.490680154765
 20
513.77670477632682
 30
0.0
  0
VERTEX
  5
134
  8
0
 62
     7
 10
1039.490680154765
 20
512.27670477632682
 30
0.0
  0
VERTEX
  5
135
  8
0
 62
     7
 10
1039.990680154765
 20
511.9880275607506
 30
0.0
  0
VERTEX
  5
136
  8
0
 62
     7
 10
1039.990680154765
 20
511.06537817720562
 30
0.0
  0
VERTEX
  5
137
  8
0
 62
     7
 10
1039.490680154765
 20
510.77670477632671
 30
0.0
  0
VERTEX
  5
138
  8
0
 62
     7
 10
1039.490680154765
 20
509.27670477632682
 30
0.0
  0
VERTEX
  5
139
  8
0
 62
     7
 10
1039.990680154765
 20
508.98802756075082
 30
0.0
  0
VERTEX
  5
13A
  8
0
 62
     7
 10
1039.990680154765
 20
505.86537796776639
 30
0.0
 42
0.1989123877914918
  0
VERTEX
  5
13B
  8
0
 62
     7
 10
1041.1622531040671
 20
503.03695097841148
 30
0.0
 42
0.1989123333599203
  0
VERTEX
  5
13C
  8
0
 62
     7
 10
1043.990680154765
 20
501.8653781772058
 30
0.0
  0
VERTEX
  5
13D
  8
0
 62
     7
 10
1083.520930154765
 20
501.86537817720568
 30
0.0
 42
0.1728716561364364
  0
VERTEX
  5
13E
  8
0
 62
     7
 10
1085.102069154394
 20
502.42888664253519
 30
0.0
 42
0.172857204933722
  0
VERTEX
  5
13F
  8
0
 62
     7
 10
1085.9704767047399
 20
503.86538137559211
 30
0.0
 42
0.2252459253664694
  0
VERTEX
  5
140
  8
0
 62
     7
 10
1085.76527573102
 20
504.69783504786722
 30
0.0
 42
0.2251836545246187
  0
VERTEX
  5
141
  8
0
 62
     7
 10
1084.990680154765
 20
505.06537817720567
 30
0.0
  0
VERTEX
  5
142
  8
0
 62
     7
 10
1043.490680154765
 20
505.06537817720567
 30
0.0
 42
-0.1989123605757217
  0
VERTEX
  5
143
  8
0
 62
     7
 10
1042.7835733920899
 20
505.35827137750698
 30
0.0
 42
-0.1989123605758502
  0
SEQEND
  5
144
  8
0
 62
     7
  0
ENDSEC
  0
EOF
