  0
SECTION
  2
HEADER
  9
$ACADVER
  1
AC1012
  9
$DWGCODEPAGE
  3
ANSI_1252
  9
$INSBASE
 10
0.0
 20
0.0
 30
0.0
  9
$EXTMIN
 10
177.2005222231443
 20
163.5149387299309
 30
-0.0000000000000053
  9
$EXTMAX
 10
189.2339415342106
 20
236.5374859399129
 30
0.0000000000000099
  9
$LIMMIN
 10
0.0
 20
0.0
  9
$LIMMAX
 10
12.0
 20
9.0
  9
$ORTHOMODE
 70
     0
  9
$REGENMODE
 70
     1
  9
$FILLMODE
 70
     1
  9
$QTEXTMODE
 70
     0
  9
$MIRRTEXT
 70
     1
  9
$DRAGMODE
 70
     2
  9
$LTSCALE
 40
15.0
  9
$OSMODE
 70
    37
  9
$ATTMODE
 70
     1
  9
$TEXTSIZE
 40
0.2
  9
$TRACEWID
 40
0.05
  9
$TEXTSTYLE
  7
STANDARD
  9
$CLAYER
  8
0
  9
$CELTYPE
  6
CONTINUOUS
  9
$CECOLOR
 62
     0
  9
$CELTSCALE
 40
0.05
  9
$DELOBJ
 70
     1
  9
$DISPSILH
 70
     0
  9
$DIMSCALE
 40
0.0
  9
$DIMASZ
 40
2.0
  9
$DIMEXO
 40
0.625
  9
$DIMDLI
 40
0.38
  9
$DIMRND
 40
0.0
  9
$DIMDLE
 40
0.0
  9
$DIMEXE
 40
0.18
  9
$DIMTP
 40
0.0135
  9
$DIMTM
 40
0.0135
  9
$DIMTXT
 40
2.5
  9
$DIMCEN
 40
0.137
  9
$DIMTSZ
 40
0.0
  9
$DIMTOL
 70
     0
  9
$DIMLIM
 70
     0
  9
$DIMTIH
 70
     0
  9
$DIMTOH
 70
     0
  9
$DIMSE1
 70
     0
  9
$DIMSE2
 70
     0
  9
$DIMTAD
 70
     1
  9
$DIMZIN
 70
     8
  9
$DIMBLK
  1

  9
$DIMASO
 70
     1
  9
$DIMSHO
 70
     1
  9
$DIMPOST
  1

  9
$DIMAPOST
  1

  9
$DIMALT
 70
     0
  9
$DIMALTD
 70
     2
  9
$DIMALTF
 40
25.4
  9
$DIMLFAC
 40
2.0
  9
$DIMTOFL
 70
     0
  9
$DIMTVP
 40
0.0
  9
$DIMTIX
 70
     0
  9
$DIMSOXD
 70
     0
  9
$DIMSAH
 70
     0
  9
$DIMBLK1
  1

  9
$DIMBLK2
  1

  9
$DIMSTYLE
  2
\U+0130SMAIL_1_5___1
  9
$DIMCLRD
 70
     5
  9
$DIMCLRE
 70
     5
  9
$DIMCLRT
 70
     5
  9
$DIMTFAC
 40
1.0
  9
$DIMGAP
 40
0.5
  9
$DIMJUST
 70
     0
  9
$DIMSD1
 70
     0
  9
$DIMSD2
 70
     0
  9
$DIMTOLJ
 70
     1
  9
$DIMTZIN
 70
     0
  9
$DIMALTZ
 70
     0
  9
$DIMALTTZ
 70
     0
  9
$DIMFIT
 70
     3
  9
$DIMUPT
 70
     0
  9
$DIMUNIT
 70
     2
  9
$DIMDEC
 70
     1
  9
$DIMTDEC
 70
     1
  9
$DIMALTU
 70
     2
  9
$DIMALTTD
 70
     2
  9
$DIMTXSTY
  7
ROMANT
  9
$DIMAUNIT
 70
     0
  9
$LUNITS
 70
     2
  9
$LUPREC
 70
     4
  9
$SKETCHINC
 40
0.1
  9
$FILLETRAD
 40
5.0
  9
$AUNITS
 70
     0
  9
$AUPREC
 70
     0
  9
$MENU
  1
.
  9
$ELEVATION
 40
0.0
  9
$PELEVATION
 40
0.0
  9
$THICKNESS
 40
0.0
  9
$LIMCHECK
 70
     0
  9
$BLIPMODE
 70
     0
  9
$CHAMFERA
 40
0.0
  9
$CHAMFERB
 40
0.0
  9
$CHAMFERC
 40
0.0
  9
$CHAMFERD
 40
0.0
  9
$SKPOLY
 70
     0
  9
$TDCREATE
 40
2452396.589542465
  9
$TDUPDATE
 40
2453550.580058252
  9
$TDINDWG
 40
3.0397629514
  9
$TDUSRTIMER
 40
3.0397628356
  9
$USRTIMER
 70
     1
  9
$ANGBASE
 50
0.0
  9
$ANGDIR
 70
     0
  9
$PDMODE
 70
     0
  9
$PDSIZE
 40
0.0
  9
$PLINEWID
 40
0.0
  9
$COORDS
 70
     0
  9
$SPLFRAME
 70
     0
  9
$SPLINETYPE
 70
     6
  9
$SPLINESEGS
 70
     8
  9
$ATTDIA
 70
     0
  9
$ATTREQ
 70
     1
  9
$HANDLING
 70
-16383
  9
$HANDSEED
  5
1C014
  9
$SURFTAB1
 70
     6
  9
$SURFTAB2
 70
     6
  9
$SURFTYPE
 70
     6
  9
$SURFU
 70
     6
  9
$SURFV
 70
     6
  9
$UCSNAME
  2

  9
$UCSORG
 10
0.0
 20
0.0
 30
0.0
  9
$UCSXDIR
 10
1.0
 20
0.0
 30
0.0
  9
$UCSYDIR
 10
0.0
 20
1.0
 30
0.0
  9
$PUCSNAME
  2

  9
$PUCSORG
 10
0.0
 20
0.0
 30
0.0
  9
$PUCSXDIR
 10
1.0
 20
0.0
 30
0.0
  9
$PUCSYDIR
 10
0.0
 20
1.0
 30
0.0
  9
$USERI1
 70
     0
  9
$USERI2
 70
     0
  9
$USERI3
 70
     0
  9
$USERI4
 70
     0
  9
$USERI5
 70
     0
  9
$USERR1
 40
0.0
  9
$USERR2
 40
0.0
  9
$USERR3
 40
0.0
  9
$USERR4
 40
0.0
  9
$USERR5
 40
0.0
  9
$WORLDVIEW
 70
     1
  9
$SHADEDGE
 70
     3
  9
$SHADEDIF
 70
    70
  9
$TILEMODE
 70
     1
  9
$MAXACTVP
 70
    64
  9
$PINSBASE
 10
0.0
 20
0.0
 30
0.0
  9
$PLIMCHECK
 70
     0
  9
$PEXTMIN
 10
26.66999878883362
 20
20.31999878883362
 30
0.0
  9
$PEXTMAX
 10
240.0299890995025
 20
182.8799890995025
 30
0.0
  9
$PLIMMIN
 10
-6.350006103515625
 20
-6.349999904632568
  9
$PLIMMAX
 10
273.0499877929687
 20
209.5499939918517
  9
$UNITMODE
 70
     0
  9
$VISRETAIN
 70
     1
  9
$PLINEGEN
 70
     0
  9
$PSLTSCALE
 70
     1
  9
$TREEDEPTH
 70
  3020
  9
$PICKSTYLE
 70
     0
  9
$CMLSTYLE
  2
STANDARD
  9
$CMLJUST
 70
     0
  9
$CMLSCALE
 40
1.0
  9
$SAVEIMAGES
 70
     1
  0
ENDSEC
  0
SECTION
  2
CLASSES
  0
CLASS
  1
ACDBDICTIONARYWDFLT
  2
AcDbDictionaryWithDefault
  3
AutoCAD 2000
 90
    32768
280
     0
281
     0
  0
CLASS
  1
ACDBPLACEHOLDER
  2
AcDbPlaceHolder
  3
AutoCAD 2000
 90
    32768
280
     0
281
     0
  0
CLASS
  1
LAYOUT
  2
AcDbLayout
  3
AutoCAD 2000
 90
    32768
280
     0
281
     0
  0
CLASS
  1
DICTIONARYVAR
  2
AcDbDictionaryVar
  3
AutoCAD 2000
 90
    32768
280
     0
281
     0
  0
CLASS
  1
LONG_TRANSACTION
  2
AcDbLongTransaction
  3
AutoCAD 2000
 90
    32768
280
     0
281
     0
  0
CLASS
  1
LWPOLYLINE
  2
AcDbPolyline
  3
AutoCAD 2000
 90
    32768
280
     0
281
     1
  0
CLASS
  1
HATCH
  2
AcDbHatch
  3
AutoCAD 2000
 90
    32768
280
     0
281
     1
  0
CLASS
  1
XRECORD
  2
AcDbXrecord
  3
AutoCAD 2000
 90
    32768
280
     0
281
     0
  0
ENDSEC
  0
SECTION
  2
TABLES
  0
TABLE
  2
VPORT
  5
1A
330
0
100
AcDbSymbolTable
 70
     2
  0
VPORT
  5
1BFE6
330
1A
100
AcDbSymbolTableRecord
100
AcDbViewportTableRecord
  2
*ACTIVE
 70
     0
 10
0.0
 20
0.0
 11
1.0
 21
1.0
 12
183.2172318786775
 22
200.0262123349219
 13
0.0
 23
0.0
 14
1.0
 24
1.0
 15
0.0
 25
0.0
 16
0.0
 26
0.0
 36
1.0
 17
0.0
 27
0.0
 37
0.0
 40
73.75890903058689
 41
1.595959595959596
 42
50.0
 43
0.0
 44
0.0
 50
0.0
 51
0.0
 71
     0
 72
   100
 73
     1
 74
     1
 75
     0
 76
     1
 77
     0
 78
     0
  0
ENDTAB
  0
TABLE
  2
LTYPE
  5
15
330
0
100
AcDbSymbolTable
 70
     2
  0
LTYPE
  5
16
330
15
100
AcDbSymbolTableRecord
100
AcDbLinetypeTableRecord
  2
BYBLOCK
 70
     0
  3

 72
    65
 73
     0
 40
0.0
  0
LTYPE
  5
17
330
15
100
AcDbSymbolTableRecord
100
AcDbLinetypeTableRecord
  2
BYLAYER
 70
     0
  3

 72
    65
 73
     0
 40
0.0
  0
LTYPE
  5
8
330
15
100
AcDbSymbolTableRecord
100
AcDbLinetypeTableRecord
  2
CONTINUOUS
 70
     0
  3
CONTINUOUS
 72
    65
 73
     0
 40
0.0
  0
LTYPE
  5
18F10
330
15
100
AcDbSymbolTableRecord
100
AcDbLinetypeTableRecord
  2
HIDDEN
 70
     0
  3
Hidden __ __ __ __ __ __ __ __ __ __ __ __ __ _
 72
    65
 73
     2
 40
9.524999999999998
 49
6.349999999999999
 74
     0
 49
-3.174999999999999
 74
     0
  0
ENDTAB
  0
TABLE
  2
LAYER
  5
10
102
{ACAD_XDICTIONARY
360
192E9
102
}
330
0
100
AcDbSymbolTable
 70
     4
  0
LAYER
  5
4
330
10
100
AcDbSymbolTableRecord
100
AcDbLayerTableRecord
  2
0
 70
     0
 62
     7
  6
CONTINUOUS
  0
LAYER
  5
2D
330
10
100
AcDbSymbolTableRecord
100
AcDbLayerTableRecord
  2
DEFPOINTS
 70
     0
 62
     7
  6
CONTINUOUS
  0
LAYER
  5
42F
330
10
100
AcDbSymbolTableRecord
100
AcDbLayerTableRecord
  2
ANA
 70
     0
 62
   220
  6
CONTINUOUS
  0
LAYER
  5
432
330
10
100
AcDbSymbolTableRecord
100
AcDbLayerTableRecord
  2
ANTET
 70
     0
 62
   220
  6
CONTINUOUS
  0
ENDTAB
  0
TABLE
  2
STYLE
  5
11
330
0
100
AcDbSymbolTable
 70
     2
  0
STYLE
  5
12
330
11
100
AcDbSymbolTableRecord
100
AcDbTextStyleTableRecord
  2
STANDARD
 70
     0
 40
0.0
 41
1.0
 50
0.0
 71
     0
 42
0.2
  3
TIMES.TTF
  4

1001
ACAD
1000
Times New Roman Tur
1071
    41490
  0
STYLE
  5
436
330
11
100
AcDbSymbolTableRecord
100
AcDbTextStyleTableRecord
  2
ROMANT
 70
     0
 40
2.5
 41
1.0
 50
15.0
 71
     0
 42
2.5
  3
C:\ACADR13\COMMON\FONTS\romant.shx
  4

  0
ENDTAB
  0
TABLE
  2
VIEW
  5
18
330
0
100
AcDbSymbolTable
 70
     0
  0
ENDTAB
  0
TABLE
  2
UCS
  5
19
330
0
100
AcDbSymbolTable
 70
     0
  0
ENDTAB
  0
TABLE
  2
APPID
  5
1C
330
0
100
AcDbSymbolTable
 70
     1
  0
APPID
  5
13
330
1C
100
AcDbSymbolTableRecord
100
AcDbRegAppTableRecord
  2
ACAD
 70
     0
  0
ENDTAB
  0
TABLE
  2
DIMSTYLE
  5
1D
330
0
100
AcDbSymbolTable
 70
     6
  0
DIMSTYLE
105
439
330
1D
100
AcDbSymbolTableRecord
100
AcDbDimStyleTableRecord
  2
STANDARD
 70
     0
  3

  4

  5

  6

  7

 40
1.0
 41
0.18
 42
0.0625
 43
0.38
 44
0.18
 45
0.0
 46
0.0
 47
0.0
 48
0.0
140
0.18
141
0.09
142
0.0
143
25.4
144
1.0
145
0.0
146
1.0
147
0.09
 71
     0
 72
     0
 73
     1
 74
     1
 75
     0
 76
     0
 77
     0
 78
     0
170
     0
171
     2
172
     0
173
     0
174
     0
175
     0
176
     0
177
     0
178
     0
270
     2
271
     4
272
     4
273
     2
274
     2
340
12
275
     0
280
     0
281
     0
282
     0
283
     1
284
     0
285
     0
286
     0
287
     3
288
     0
  0
DIMSTYLE
105
1105
330
1D
100
AcDbSymbolTableRecord
100
AcDbDimStyleTableRecord
  2
\U+0130SMAIL_1_5___1
 70
     0
  3

  4

  5

  6

  7

 40
0.0
 41
2.0
 42
0.625
 43
0.38
 44
0.18
 45
0.0
 46
0.0
 47
0.0135
 48
0.0135
140
2.5
141
0.137
142
0.0
143
25.4
144
2.0
145
0.0
146
1.0
147
0.5
 71
     0
 72
     0
 73
     0
 74
     0
 75
     0
 76
     0
 77
     1
 78
     8
170
     0
171
     2
172
     0
173
     0
174
     0
175
     0
176
     5
177
     5
178
     5
270
     2
271
     1
272
     1
273
     2
274
     2
340
436
275
     0
280
     0
281
     0
282
     0
283
     1
284
     0
285
     0
286
     0
287
     3
288
     0
  0
DIMSTYLE
105
192EF
330
1D
100
AcDbSymbolTableRecord
100
AcDbDimStyleTableRecord
  2
ISO25
 70
     0
  3

  4

  5

  6

  7

 40
1.0
 41
1.8
 42
1.0
 43
3.75
 44
1.0
 45
0.0
 46
0.0
 47
0.0
 48
0.0
140
2.5
141
0.5
142
0.0
143
0.03937007874016
144
1.0
145
0.0
146
1.0
147
1.0
 71
     0
 72
     0
 73
     0
 74
     0
 75
     0
 76
     0
 77
     1
 78
     8
170
     0
171
     3
172
     1
173
     0
174
     0
175
     0
176
     0
177
     0
178
     0
270
     2
271
     2
272
     2
273
     2
274
     3
340
12
275
     0
280
     0
281
     0
282
     0
283
     0
284
     8
285
     0
286
     0
287
     3
288
     0
  0
DIMSTYLE
105
192F0
330
1D
100
AcDbSymbolTableRecord
100
AcDbDimStyleTableRecord
  2
KESIT-RESIM
 70
     0
  3

  4

  5

  6

  7

 40
1.0
 41
2.5
 42
1.0
 43
3.75
 44
1.0
 45
0.0
 46
0.0
 47
0.0
 48
0.0
140
3.5
141
0.5
142
0.0
143
0.03937007874016
144
0.333333333333333
145
0.0
146
1.0
147
1.0
 71
     0
 72
     0
 73
     0
 74
     0
 75
     0
 76
     0
 77
     1
 78
     8
170
     0
171
     3
172
     1
173
     0
174
     0
175
     0
176
     0
177
     0
178
     0
270
     2
271
     1
272
     1
273
     2
274
     3
340
12
275
     0
280
     0
281
     0
282
     0
283
     0
284
     8
285
     0
286
     0
287
     3
288
     0
  0
DIMSTYLE
105
192F1
330
1D
100
AcDbSymbolTableRecord
100
AcDbDimStyleTableRecord
  2
ISO-25
 70
     0
  3

  4

  5

  6

  7

 40
1.0
 41
2.5
 42
0.625
 43
3.75
 44
1.25
 45
0.0
 46
0.0
 47
0.0
 48
0.0
140
2.5
141
2.5
142
0.0
143
0.03937007874016
144
1.0
145
0.0
146
1.0
147
0.625
 71
     0
 72
     0
 73
     0
 74
     0
 75
     0
 76
     0
 77
     1
 78
     8
170
     0
171
     3
172
     1
173
     0
174
     0
175
     0
176
     1
177
     1
178
     1
270
     2
271
     1
272
     1
273
     2
274
     3
340
12
275
     0
280
     0
281
     0
282
     0
283
     0
284
     8
285
     0
286
     0
287
     3
288
     0
  0
DIMSTYLE
105
192F2
330
1D
100
AcDbSymbolTableRecord
100
AcDbDimStyleTableRecord
  2
RESIMISO-25
 70
     0
  3

  4

  5

  6

  7

 40
1.0
 41
2.5
 42
1.0
 43
3.75
 44
1.0
 45
0.0
 46
0.0
 47
0.0
 48
0.0
140
2.5
141
2.5
142
0.0
143
0.03937007874016
144
0.25
145
0.0
146
1.0
147
1.0
 71
     0
 72
     0
 73
     0
 74
     0
 75
     0
 76
     0
 77
     1
 78
     8
170
     0
171
     3
172
     1
173
     0
174
     0
175
     0
176
     0
177
     0
178
     0
270
     2
271
     1
272
     1
273
     2
274
     3
340
12
275
     0
280
     0
281
     0
282
     0
283
     0
284
     8
285
     0
286
     0
287
     3
288
     0
  0
ENDTAB
  0
TABLE
  2
BLOCK_RECORD
  5
1
330
0
100
AcDbSymbolTable
 70
    24
  0
BLOCK_RECORD
  5
2
102
{ACAD_XDICTIONARY
360
1BFE7
102
}
330
1
100
AcDbSymbolTableRecord
100
AcDbBlockTableRecord
  2
*MODEL_SPACE
  0
BLOCK_RECORD
  5
C
102
{ACAD_XDICTIONARY
360
1BFE9
102
}
330
1
100
AcDbSymbolTableRecord
100
AcDbBlockTableRecord
  2
*PAPER_SPACE
  0
BLOCK_RECORD
  5
181
330
1
100
AcDbSymbolTableRecord
100
AcDbBlockTableRecord
  2
*X0
  0
BLOCK_RECORD
  5
1A56A
330
1
100
AcDbSymbolTableRecord
100
AcDbBlockTableRecord
  2
A$C22BC2DE1
  0
BLOCK_RECORD
  5
1BB93
330
1
100
AcDbSymbolTableRecord
100
AcDbBlockTableRecord
  2
*D2
  0
BLOCK_RECORD
  5
1BBA1
330
1
100
AcDbSymbolTableRecord
100
AcDbBlockTableRecord
  2
*D3
  0
BLOCK_RECORD
  5
1BBAD
330
1
100
AcDbSymbolTableRecord
100
AcDbBlockTableRecord
  2
*D4
  0
BLOCK_RECORD
  5
1BBB9
330
1
100
AcDbSymbolTableRecord
100
AcDbBlockTableRecord
  2
*D5
  0
BLOCK_RECORD
  5
1BBC5
330
1
100
AcDbSymbolTableRecord
100
AcDbBlockTableRecord
  2
*D6
  0
BLOCK_RECORD
  5
1BBD3
330
1
100
AcDbSymbolTableRecord
100
AcDbBlockTableRecord
  2
*D7
  0
BLOCK_RECORD
  5
1BBDC
330
1
100
AcDbSymbolTableRecord
100
AcDbBlockTableRecord
  2
*D8
  0
BLOCK_RECORD
  5
1BBE8
330
1
100
AcDbSymbolTableRecord
100
AcDbBlockTableRecord
  2
*D9
  0
BLOCK_RECORD
  5
1BC02
330
1
100
AcDbSymbolTableRecord
100
AcDbBlockTableRecord
  2
*D10
  0
BLOCK_RECORD
  5
1BC10
330
1
100
AcDbSymbolTableRecord
100
AcDbBlockTableRecord
  2
*D11
  0
BLOCK_RECORD
  5
1BC19
330
1
100
AcDbSymbolTableRecord
100
AcDbBlockTableRecord
  2
*D12
  0
BLOCK_RECORD
  5
1BC21
330
1
100
AcDbSymbolTableRecord
100
AcDbBlockTableRecord
  2
*D13
  0
BLOCK_RECORD
  5
1BC2F
330
1
100
AcDbSymbolTableRecord
100
AcDbBlockTableRecord
  2
*D14
  0
BLOCK_RECORD
  5
1BC3D
330
1
100
AcDbSymbolTableRecord
100
AcDbBlockTableRecord
  2
*D15
  0
BLOCK_RECORD
  5
1BC4B
330
1
100
AcDbSymbolTableRecord
100
AcDbBlockTableRecord
  2
*D16
  0
BLOCK_RECORD
  5
1BC59
330
1
100
AcDbSymbolTableRecord
100
AcDbBlockTableRecord
  2
*D17
  0
BLOCK_RECORD
  5
1BC67
330
1
100
AcDbSymbolTableRecord
100
AcDbBlockTableRecord
  2
*D18
  0
BLOCK_RECORD
  5
1BC75
330
1
100
AcDbSymbolTableRecord
100
AcDbBlockTableRecord
  2
*D19
  0
BLOCK_RECORD
  5
1BC82
330
1
100
AcDbSymbolTableRecord
100
AcDbBlockTableRecord
  2
*D20
  0
BLOCK_RECORD
  5
1BC90
330
1
100
AcDbSymbolTableRecord
100
AcDbBlockTableRecord
  2
*D21
  0
BLOCK_RECORD
  5
1BC9E
330
1
100
AcDbSymbolTableRecord
100
AcDbBlockTableRecord
  2
*D22
  0
BLOCK_RECORD
  5
1BCA7
330
1
100
AcDbSymbolTableRecord
100
AcDbBlockTableRecord
  2
*D23
  0
ENDTAB
  0
ENDSEC
  0
SECTION
  2
BLOCKS
  0
BLOCK
  5
3
330
2
100
AcDbEntity
  8
0
100
AcDbBlockBegin
  2
*MODEL_SPACE
 70
     0
 10
0.0
 20
0.0
 30
0.0
  3
*MODEL_SPACE
  1

  0
ENDBLK
  5
9
330
2
100
AcDbEntity
  8
0
100
AcDbBlockEnd
  0
BLOCK
  5
D
330
C
100
AcDbEntity
 67
     1
  8
0
100
AcDbBlockBegin
  2
*PAPER_SPACE
 70
     0
 10
0.0
 20
0.0
 30
0.0
  3
*PAPER_SPACE
  1

  0
ENDBLK
  5
E
330
C
100
AcDbEntity
 67
     1
  8
0
100
AcDbBlockEnd
  0
BLOCK
  5
2F6
330
181
100
AcDbEntity
  8
0
100
AcDbBlockBegin
  2
*X0
 70
     1
 10
0.0
 20
0.0
 30
0.0
  3
*X0
  1

  0
LINE
  5
182
330
181
100
AcDbEntity
  8
0
 62
     0
100
AcDbLine
 10
119.6249999999999
 20
30.73434161302726
 30
0.0
 11
119.6249999999999
 21
31.73434161302726
 31
0.0
  0
LINE
  5
183
330
181
100
AcDbEntity
  8
0
 62
     0
100
AcDbLine
 10
119.6249999999999
 20
50.73434161302725
 30
0.0
 11
119.6249999999999
 21
51.73434161302726
 31
0.0
  0
LINE
  5
184
330
181
100
AcDbEntity
  8
0
 62
     0
100
AcDbLine
 10
119.6249999999999
 20
34.23389329927631
 30
0.0
 11
119.6249999999999
 21
39.78358833883456
 31
0.0
  0
LINE
  5
185
330
181
100
AcDbEntity
  8
0
 62
     0
100
AcDbLine
 10
119.6249999999999
 20
42.36292722007112
 30
0.0
 11
119.6249999999999
 21
48.39196114086594
 31
0.0
  0
LINE
  5
186
330
181
100
AcDbEntity
  8
0
 62
     0
100
AcDbLine
 10
119.4374999999999
 20
30.73434161302726
 30
0.0
 11
119.4374999999999
 21
31.73434161302726
 31
0.0
  0
LINE
  5
187
330
181
100
AcDbEntity
  8
0
 62
     0
100
AcDbLine
 10
119.4374999999999
 20
50.73434161302725
 30
0.0
 11
119.4374999999999
 21
51.73434161302726
 31
0.0
  0
LINE
  5
188
330
181
100
AcDbEntity
  8
0
 62
     0
100
AcDbLine
 10
119.4374999999999
 20
34.23389329927631
 30
0.0
 11
119.4374999999999
 21
39.4588288124154
 31
0.0
  0
LINE
  5
189
330
181
100
AcDbEntity
  8
0
 62
     0
100
AcDbLine
 10
119.4374999999999
 20
42.36292722007112
 30
0.0
 11
119.4374999999999
 21
48.39196114086594
 31
0.0
  0
LINE
  5
18A
330
181
100
AcDbEntity
  8
0
 62
     0
100
AcDbLine
 10
119.2499999999999
 20
30.73434161302726
 30
0.0
 11
119.2499999999999
 21
31.73434161302726
 31
0.0
  0
LINE
  5
18B
330
181
100
AcDbEntity
  8
0
 62
     0
100
AcDbLine
 10
119.2499999999999
 20
50.73434161302725
 30
0.0
 11
119.2499999999999
 21
51.73434161302726
 31
0.0
  0
LINE
  5
18C
330
181
100
AcDbEntity
  8
0
 62
     0
100
AcDbLine
 10
119.2499999999999
 20
34.23389329927631
 30
0.0
 11
119.2499999999999
 21
39.13406928599623
 31
0.0
  0
LINE
  5
18D
330
181
100
AcDbEntity
  8
0
 62
     0
100
AcDbLine
 10
119.2499999999999
 20
42.36292722007112
 30
0.0
 11
119.2499999999999
 21
48.39196114086594
 31
0.0
  0
LINE
  5
18E
330
181
100
AcDbEntity
  8
0
 62
     0
100
AcDbLine
 10
119.0624999999999
 20
30.73434161302726
 30
0.0
 11
119.0624999999999
 21
31.73434161302726
 31
0.0
  0
LINE
  5
18F
330
181
100
AcDbEntity
  8
0
 62
     0
100
AcDbLine
 10
119.0624999999999
 20
50.73434161302725
 30
0.0
 11
119.0624999999999
 21
51.73434161302726
 31
0.0
  0
LINE
  5
190
330
181
100
AcDbEntity
  8
0
 62
     0
100
AcDbLine
 10
119.0624999999999
 20
34.23389329927631
 30
0.0
 11
119.0624999999999
 21
38.80930975957706
 31
0.0
  0
LINE
  5
191
330
181
100
AcDbEntity
  8
0
 62
     0
100
AcDbLine
 10
119.0624999999999
 20
42.36292722007112
 30
0.0
 11
119.0624999999999
 21
48.39196114086594
 31
0.0
  0
LINE
  5
192
330
181
100
AcDbEntity
  8
0
 62
     0
100
AcDbLine
 10
118.8749999999999
 20
30.73434161302726
 30
0.0
 11
118.8749999999999
 21
31.73434161302726
 31
0.0
  0
LINE
  5
193
330
181
100
AcDbEntity
  8
0
 62
     0
100
AcDbLine
 10
118.8749999999999
 20
50.73434161302725
 30
0.0
 11
118.8749999999999
 21
51.73434161302726
 31
0.0
  0
LINE
  5
194
330
181
100
AcDbEntity
  8
0
 62
     0
100
AcDbLine
 10
118.8749999999999
 20
34.23389329927631
 30
0.0
 11
118.8749999999999
 21
38.48455023315789
 31
0.0
  0
LINE
  5
195
330
181
100
AcDbEntity
  8
0
 62
     0
100
AcDbLine
 10
118.8749999999999
 20
42.36292722007112
 30
0.0
 11
118.8749999999999
 21
48.39196114086594
 31
0.0
  0
LINE
  5
196
330
181
100
AcDbEntity
  8
0
 62
     0
100
AcDbLine
 10
118.8749999999999
 20
40.08455023785443
 30
0.0
 11
118.8749999999999
 21
40.44130420998858
 31
0.0
  0
LINE
  5
197
330
181
100
AcDbEntity
  8
0
 62
     0
100
AcDbLine
 10
118.6874999999999
 20
30.73434161302726
 30
0.0
 11
118.6874999999999
 21
31.73434161302726
 31
0.0
  0
LINE
  5
198
330
181
100
AcDbEntity
  8
0
 62
     0
100
AcDbLine
 10
118.6874999999999
 20
50.73434161302725
 30
0.0
 11
118.6874999999999
 21
51.73434161302726
 31
0.0
  0
LINE
  5
199
330
181
100
AcDbEntity
  8
0
 62
     0
100
AcDbLine
 10
118.6874999999999
 20
34.23389329927631
 30
0.0
 11
118.6874999999999
 21
38.15979070673873
 31
0.0
  0
LINE
  5
19A
330
181
100
AcDbEntity
  8
0
 62
     0
100
AcDbLine
 10
118.6874999999999
 20
42.41926881554642
 30
0.0
 11
118.6874999999999
 21
48.39196114086594
 31
0.0
  0
LINE
  5
19B
330
181
100
AcDbEntity
  8
0
 62
     0
100
AcDbLine
 10
118.6874999999999
 20
39.75979071181569
 30
0.0
 11
118.6874999999999
 21
40.76606373625941
 31
0.0
  0
LINE
  5
19C
330
181
100
AcDbEntity
  8
0
 62
     0
100
AcDbLine
 10
118.4999999999999
 20
30.73434161302726
 30
0.0
 11
118.4999999999999
 21
31.73434161302726
 31
0.0
  0
LINE
  5
19D
330
181
100
AcDbEntity
  8
0
 62
     0
100
AcDbLine
 10
118.4999999999999
 20
50.73434161302725
 30
0.0
 11
118.4999999999999
 21
51.73434161302726
 31
0.0
  0
LINE
  5
19E
330
181
100
AcDbEntity
  8
0
 62
     0
100
AcDbLine
 10
118.4999999999999
 20
34.23389329927631
 30
0.0
 11
118.4999999999999
 21
37.83503118031956
 31
0.0
  0
LINE
  5
19F
330
181
100
AcDbEntity
  8
0
 62
     0
100
AcDbLine
 10
118.4999999999999
 20
42.69082325982261
 30
0.0
 11
118.4999999999999
 21
48.39196114086594
 31
0.0
  0
LINE
  5
1A0
330
181
100
AcDbEntity
  8
0
 62
     0
100
AcDbLine
 10
118.4999999999999
 20
39.43503118577694
 30
0.0
 11
118.4999999999999
 21
41.09082326253024
 31
0.0
  0
LINE
  5
1A1
330
181
100
AcDbEntity
  8
0
 62
     0
100
AcDbLine
 10
118.3124999999999
 20
30.73434161302726
 30
0.0
 11
118.3124999999999
 21
31.73434161302726
 31
0.0
  0
LINE
  5
1A2
330
181
100
AcDbEntity
  8
0
 62
     0
100
AcDbLine
 10
118.3124999999999
 20
50.73434161302725
 30
0.0
 11
118.3124999999999
 21
51.73434161302726
 31
0.0
  0
LINE
  5
1A3
330
181
100
AcDbEntity
  8
0
 62
     0
100
AcDbLine
 10
118.3124999999999
 20
34.23389329927631
 30
0.0
 11
118.3124999999999
 21
37.51027165390039
 31
0.0
  0
LINE
  5
1A4
330
181
100
AcDbEntity
  8
0
 62
     0
100
AcDbLine
 10
118.3124999999999
 20
43.01558278624178
 30
0.0
 11
118.3124999999999
 21
48.39196114086594
 31
0.0
  0
LINE
  5
1A5
330
181
100
AcDbEntity
  8
0
 62
     0
100
AcDbLine
 10
118.3124999999999
 20
39.1102716597382
 30
0.0
 11
118.3124999999999
 21
41.41558278880107
 31
0.0
  0
LINE
  5
1A6
330
181
100
AcDbEntity
  8
0
 62
     0
100
AcDbLine
 10
118.1249999999999
 20
30.73434161302726
 30
0.0
 11
118.1249999999999
 21
31.73434161302726
 31
0.0
  0
LINE
  5
1A7
330
181
100
AcDbEntity
  8
0
 62
     0
100
AcDbLine
 10
118.1249999999999
 20
50.73434161302725
 30
0.0
 11
118.1249999999999
 21
51.73434161302726
 31
0.0
  0
LINE
  5
1A8
330
181
100
AcDbEntity
  8
0
 62
     0
100
AcDbLine
 10
118.1249999999999
 20
34.23389329927631
 30
0.0
 11
118.1249999999999
 21
37.18551212748122
 31
0.0
  0
LINE
  5
1A9
330
181
100
AcDbEntity
  8
0
 62
     0
100
AcDbLine
 10
118.1249999999999
 20
43.34034231266095
 30
0.0
 11
118.1249999999999
 21
48.39196114086594
 31
0.0
  0
LINE
  5
1AA
330
181
100
AcDbEntity
  8
0
 62
     0
100
AcDbLine
 10
118.1249999999999
 20
38.78551213369945
 30
0.0
 11
118.1249999999999
 21
41.7403423150719
 31
0.0
  0
LINE
  5
1AB
330
181
100
AcDbEntity
  8
0
 62
     0
100
AcDbLine
 10
117.9374999999999
 20
30.73434161302726
 30
0.0
 11
117.9374999999999
 21
31.73434161302726
 31
0.0
  0
LINE
  5
1AC
330
181
100
AcDbEntity
  8
0
 62
     0
100
AcDbLine
 10
117.9374999999999
 20
50.73434161302725
 30
0.0
 11
117.9374999999999
 21
51.73434161302726
 31
0.0
  0
LINE
  5
1AD
330
181
100
AcDbEntity
  8
0
 62
     0
100
AcDbLine
 10
117.9374999999999
 20
34.23389329927631
 30
0.0
 11
117.9374999999999
 21
36.86075260106206
 31
0.0
  0
LINE
  5
1AE
330
181
100
AcDbEntity
  8
0
 62
     0
100
AcDbLine
 10
117.9374999999999
 20
43.66510183908012
 30
0.0
 11
117.9374999999999
 21
48.39196114086594
 31
0.0
  0
LINE
  5
1AF
330
181
100
AcDbEntity
  8
0
 62
     0
100
AcDbLine
 10
117.9374999999999
 20
38.46075260766071
 30
0.0
 11
117.9374999999999
 21
42.06510184134273
 31
0.0
  0
LINE
  5
1B0
330
181
100
AcDbEntity
  8
0
 62
     0
100
AcDbLine
 10
117.7499999999999
 20
30.73434161302726
 30
0.0
 11
117.7499999999999
 21
31.73434161302726
 31
0.0
  0
LINE
  5
1B1
330
181
100
AcDbEntity
  8
0
 62
     0
100
AcDbLine
 10
117.7499999999999
 20
50.73434161302725
 30
0.0
 11
117.7499999999999
 21
51.73434161302726
 31
0.0
  0
LINE
  5
1B2
330
181
100
AcDbEntity
  8
0
 62
     0
100
AcDbLine
 10
117.7499999999999
 20
34.23389329927631
 30
0.0
 11
117.7499999999999
 21
36.53599307464288
 31
0.0
  0
LINE
  5
1B3
330
181
100
AcDbEntity
  8
0
 62
     0
100
AcDbLine
 10
117.7499999999999
 20
43.98986136549929
 30
0.0
 11
117.7499999999999
 21
48.39196114086594
 31
0.0
  0
LINE
  5
1B4
330
181
100
AcDbEntity
  8
0
 62
     0
100
AcDbLine
 10
117.7499999999999
 20
38.13599308162197
 30
0.0
 11
117.7499999999999
 21
42.38986136761356
 31
0.0
  0
LINE
  5
1B5
330
181
100
AcDbEntity
  8
0
 62
     0
100
AcDbLine
 10
117.5624999999999
 20
30.73434161302726
 30
0.0
 11
117.5624999999999
 21
31.73434161302726
 31
0.0
  0
LINE
  5
1B6
330
181
100
AcDbEntity
  8
0
 62
     0
100
AcDbLine
 10
117.5624999999999
 20
50.73434161302725
 30
0.0
 11
117.5624999999999
 21
51.73434161302726
 31
0.0
  0
LINE
  5
1B7
330
181
100
AcDbEntity
  8
0
 62
     0
100
AcDbLine
 10
117.5624999999999
 20
34.23389329927631
 30
0.0
 11
117.5624999999999
 21
36.21123354822372
 31
0.0
  0
LINE
  5
1B8
330
181
100
AcDbEntity
  8
0
 62
     0
100
AcDbLine
 10
117.5624999999999
 20
44.31462089191845
 30
0.0
 11
117.5624999999999
 21
48.39196114086594
 31
0.0
  0
LINE
  5
1B9
330
181
100
AcDbEntity
  8
0
 62
     0
100
AcDbLine
 10
117.5624999999999
 20
37.81123355558323
 30
0.0
 11
117.5624999999999
 21
42.71462089388439
 31
0.0
  0
LINE
  5
1BA
330
181
100
AcDbEntity
  8
0
 62
     0
100
AcDbLine
 10
117.3749999999999
 20
30.73434161302726
 30
0.0
 11
117.3749999999999
 21
31.73434161302726
 31
0.0
  0
LINE
  5
1BB
330
181
100
AcDbEntity
  8
0
 62
     0
100
AcDbLine
 10
117.3749999999999
 20
50.73434161302725
 30
0.0
 11
117.3749999999999
 21
51.73434161302726
 31
0.0
  0
LINE
  5
1BC
330
181
100
AcDbEntity
  8
0
 62
     0
100
AcDbLine
 10
117.3749999999999
 20
34.23389329927631
 30
0.0
 11
117.3749999999999
 21
35.88647402180455
 31
0.0
  0
LINE
  5
1BD
330
181
100
AcDbEntity
  8
0
 62
     0
100
AcDbLine
 10
117.3749999999999
 20
44.63938041833762
 30
0.0
 11
117.3749999999999
 21
48.39196114086594
 31
0.0
  0
LINE
  5
1BE
330
181
100
AcDbEntity
  8
0
 62
     0
100
AcDbLine
 10
117.3749999999999
 20
37.48647402954448
 30
0.0
 11
117.3749999999999
 21
43.03938042015523
 31
0.0
  0
LINE
  5
1BF
330
181
100
AcDbEntity
  8
0
 62
     0
100
AcDbLine
 10
117.1874999999999
 20
30.73434161302726
 30
0.0
 11
117.1874999999999
 21
31.73434161302726
 31
0.0
  0
LINE
  5
1C0
330
181
100
AcDbEntity
  8
0
 62
     0
100
AcDbLine
 10
117.1874999999999
 20
50.73434161302725
 30
0.0
 11
117.1874999999999
 21
51.73434161302726
 31
0.0
  0
LINE
  5
1C1
330
181
100
AcDbEntity
  8
0
 62
     0
100
AcDbLine
 10
117.1874999999999
 20
34.23389329927631
 30
0.0
 11
117.1874999999999
 21
35.56171449538538
 31
0.0
  0
LINE
  5
1C2
330
181
100
AcDbEntity
  8
0
 62
     0
100
AcDbLine
 10
117.1874999999999
 20
44.9641399447568
 30
0.0
 11
117.1874999999999
 21
48.39196114086594
 31
0.0
  0
LINE
  5
1C3
330
181
100
AcDbEntity
  8
0
 62
     0
100
AcDbLine
 10
117.1874999999999
 20
37.16171450350574
 30
0.0
 11
117.1874999999999
 21
43.36413994642605
 31
0.0
  0
LINE
  5
1C4
330
181
100
AcDbEntity
  8
0
 62
     0
100
AcDbLine
 10
116.9999999999999
 20
30.73434161302726
 30
0.0
 11
116.9999999999999
 21
31.73434161302726
 31
0.0
  0
LINE
  5
1C5
330
181
100
AcDbEntity
  8
0
 62
     0
100
AcDbLine
 10
116.9999999999999
 20
50.73434161302725
 30
0.0
 11
116.9999999999999
 21
51.73434161302726
 31
0.0
  0
LINE
  5
1C6
330
181
100
AcDbEntity
  8
0
 62
     0
100
AcDbLine
 10
116.9999999999999
 20
34.23389329927631
 30
0.0
 11
116.9999999999999
 21
35.23695496896622
 31
0.0
  0
LINE
  5
1C7
330
181
100
AcDbEntity
  8
0
 62
     0
100
AcDbLine
 10
116.9999999999999
 20
45.28889947117597
 30
0.0
 11
116.9999999999999
 21
48.39196114086594
 31
0.0
  0
LINE
  5
1C8
330
181
100
AcDbEntity
  8
0
 62
     0
100
AcDbLine
 10
116.9999999999999
 20
36.83695497746699
 30
0.0
 11
116.9999999999999
 21
43.68889947269688
 31
0.0
  0
LINE
  5
1C9
330
181
100
AcDbEntity
  8
0
 62
     0
100
AcDbLine
 10
116.8124999999999
 20
30.73434161302726
 30
0.0
 11
116.8124999999999
 21
31.73434161302726
 31
0.0
  0
LINE
  5
1CA
330
181
100
AcDbEntity
  8
0
 62
     0
100
AcDbLine
 10
116.8124999999999
 20
50.73434161302725
 30
0.0
 11
116.8124999999999
 21
51.73434161302726
 31
0.0
  0
LINE
  5
1CB
330
181
100
AcDbEntity
  8
0
 62
     0
100
AcDbLine
 10
116.8124999999999
 20
34.23389329927631
 30
0.0
 11
116.8124999999999
 21
34.91219544254705
 31
0.0
  0
LINE
  5
1CC
330
181
100
AcDbEntity
  8
0
 62
     0
100
AcDbLine
 10
116.8124999999999
 20
45.61365899759514
 30
0.0
 11
116.8124999999999
 21
48.38373565494333
 31
0.0
  0
LINE
  5
1CD
330
181
100
AcDbEntity
  8
0
 62
     0
100
AcDbLine
 10
116.8124999999999
 20
36.51219545142825
 30
0.0
 11
116.8124999999999
 21
44.01365899896771
 31
0.0
  0
LINE
  5
1CE
330
181
100
AcDbEntity
  8
0
 62
     0
100
AcDbLine
 10
116.6249999999999
 20
30.73434161302726
 30
0.0
 11
116.6249999999999
 21
31.73434161302726
 31
0.0
  0
LINE
  5
1CF
330
181
100
AcDbEntity
  8
0
 62
     0
100
AcDbLine
 10
116.6249999999999
 20
50.73434161302725
 30
0.0
 11
116.6249999999999
 21
51.73434161302726
 31
0.0
  0
LINE
  5
1D0
330
181
100
AcDbEntity
  8
0
 62
     0
100
AcDbLine
 10
116.6249999999999
 20
34.23389329927631
 30
0.0
 11
116.6249999999999
 21
34.59269753062041
 31
0.0
  0
LINE
  5
1D1
330
181
100
AcDbEntity
  8
0
 62
     0
100
AcDbLine
 10
116.6249999999999
 20
45.9384185240143
 30
0.0
 11
116.6249999999999
 21
48.34088760946108
 31
0.0
  0
LINE
  5
1D2
330
181
100
AcDbEntity
  8
0
 62
     0
100
AcDbLine
 10
116.6249999999999
 20
36.18743592538951
 30
0.0
 11
116.6249999999999
 21
44.33841852523854
 31
0.0
  0
LINE
  5
1D3
330
181
100
AcDbEntity
  8
0
 62
     0
100
AcDbLine
 10
116.4374999999999
 20
30.73434161302726
 30
0.0
 11
116.4374999999999
 21
31.73434161302726
 31
0.0
  0
LINE
  5
1D4
330
181
100
AcDbEntity
  8
0
 62
     0
100
AcDbLine
 10
116.4374999999999
 20
50.73434161302725
 30
0.0
 11
116.4374999999999
 21
51.73434161302726
 31
0.0
  0
LINE
  5
1D5
330
181
100
AcDbEntity
  8
0
 62
     0
100
AcDbLine
 10
116.4374999999999
 20
34.23389329927631
 30
0.0
 11
116.4374999999999
 21
34.44874299145622
 31
0.0
  0
LINE
  5
1D6
330
181
100
AcDbEntity
  8
0
 62
     0
100
AcDbLine
 10
116.4374999999999
 20
46.26317805043347
 30
0.0
 11
116.4374999999999
 21
48.25624911302998
 31
0.0
  0
LINE
  5
1D7
330
181
100
AcDbEntity
  8
0
 62
     0
100
AcDbLine
 10
116.4374999999999
 20
35.86267639935076
 30
0.0
 11
116.4374999999999
 21
44.66317805150937
 31
0.0
  0
LINE
  5
1D8
330
181
100
AcDbEntity
  8
0
 62
     0
100
AcDbLine
 10
116.2499999999999
 20
30.73434161302726
 30
0.0
 11
116.2499999999999
 21
31.73434161302726
 31
0.0
  0
LINE
  5
1D9
330
181
100
AcDbEntity
  8
0
 62
     0
100
AcDbLine
 10
116.2499999999999
 20
50.73434161302725
 30
0.0
 11
116.2499999999999
 21
51.73434161302726
 31
0.0
  0
LINE
  5
1DA
330
181
100
AcDbEntity
  8
0
 62
     0
100
AcDbLine
 10
116.2499999999999
 20
34.23389329927631
 30
0.0
 11
116.2499999999999
 21
34.33758771320932
 31
0.0
  0
LINE
  5
1DB
330
181
100
AcDbEntity
  8
0
 62
     0
100
AcDbLine
 10
116.2499999999999
 20
46.58793757685264
 30
0.0
 11
116.2499999999999
 21
48.11529609429651
 31
0.0
  0
LINE
  5
1DC
330
181
100
AcDbEntity
  8
0
 62
     0
100
AcDbLine
 10
116.2499999999999
 20
35.53791687331202
 30
0.0
 11
116.2499999999999
 21
44.98793757778019
 31
0.0
  0
LINE
  5
1DD
330
181
100
AcDbEntity
  8
0
 62
     0
100
AcDbLine
 10
116.0624999999999
 20
30.73434161302726
 30
0.0
 11
116.0624999999999
 21
31.73434161302726
 31
0.0
  0
LINE
  5
1DE
330
181
100
AcDbEntity
  8
0
 62
     0
100
AcDbLine
 10
116.0624999999999
 20
50.73434161302725
 30
0.0
 11
116.0624999999999
 21
51.73434161302726
 31
0.0
  0
LINE
  5
1DF
330
181
100
AcDbEntity
  8
0
 62
     0
100
AcDbLine
 10
116.0624999999999
 20
34.23389329927631
 30
0.0
 11
116.0624999999999
 21
34.25304788190206
 31
0.0
  0
LINE
  5
1E0
330
181
100
AcDbEntity
  8
0
 62
     0
100
AcDbLine
 10
116.0624999999999
 20
46.91329558864667
 30
0.0
 11
116.0624999999999
 21
47.87062669308522
 31
0.0
  0
LINE
  5
1E1
330
181
100
AcDbEntity
  8
0
 62
     0
100
AcDbLine
 10
116.0624999999999
 20
35.29731832849843
 30
0.0
 11
116.0624999999999
 21
45.31269710405103
 31
0.0
  0
LINE
  5
1E2
330
181
100
AcDbEntity
  8
0
 62
     0
100
AcDbLine
 10
115.8749999999999
 20
30.73434161302726
 30
0.0
 11
115.8749999999999
 21
31.73434161302726
 31
0.0
  0
LINE
  5
1E3
330
181
100
AcDbEntity
  8
0
 62
     0
100
AcDbLine
 10
115.8749999999999
 20
50.73434161302725
 30
0.0
 11
115.8749999999999
 21
51.73434161302726
 31
0.0
  0
LINE
  5
1E4
330
181
100
AcDbEntity
  8
0
 62
     0
100
AcDbLine
 10
115.8749999999999
 20
35.15800657298843
 30
0.0
 11
115.8749999999999
 21
45.63745663032186
 31
0.0
  0
LINE
  5
1E5
330
181
100
AcDbEntity
  8
0
 62
     0
100
AcDbLine
 10
115.6874999999999
 20
30.73434161302726
 30
0.0
 11
115.6874999999999
 21
31.73434161302726
 31
0.0
  0
LINE
  5
1E6
330
181
100
AcDbEntity
  8
0
 62
     0
100
AcDbLine
 10
115.6874999999999
 20
50.73434161302725
 30
0.0
 11
115.6874999999999
 21
51.73434161302726
 31
0.0
  0
LINE
  5
1E7
330
181
100
AcDbEntity
  8
0
 62
     0
100
AcDbLine
 10
115.6874999999999
 20
35.07447046157856
 30
0.0
 11
115.6874999999999
 21
45.96221615659269
 31
0.0
  0
LINE
  5
1E8
330
181
100
AcDbEntity
  8
0
 62
     0
100
AcDbLine
 10
115.4999999999999
 20
30.73434161302726
 30
0.0
 11
115.4999999999999
 21
31.73434161302726
 31
0.0
  0
LINE
  5
1E9
330
181
100
AcDbEntity
  8
0
 62
     0
100
AcDbLine
 10
115.4999999999999
 20
50.73434161302725
 30
0.0
 11
115.4999999999999
 21
51.73434161302726
 31
0.0
  0
LINE
  5
1EA
330
181
100
AcDbEntity
  8
0
 62
     0
100
AcDbLine
 10
115.4999999999999
 20
35.03252279226054
 30
0.0
 11
115.4999999999999
 21
46.28697568286352
 31
0.0
  0
LINE
  5
1EB
330
181
100
AcDbEntity
  8
0
 62
     0
100
AcDbLine
 10
115.3124999999999
 20
30.73434161302726
 30
0.0
 11
115.3124999999999
 21
31.73434161302726
 31
0.0
  0
LINE
  5
1EC
330
181
100
AcDbEntity
  8
0
 62
     0
100
AcDbLine
 10
115.3124999999999
 20
50.73434161302725
 30
0.0
 11
115.3124999999999
 21
51.73434161302726
 31
0.0
  0
LINE
  5
1ED
330
181
100
AcDbEntity
  8
0
 62
     0
100
AcDbLine
 10
115.3124999999999
 20
35.02690536785105
 30
0.0
 11
115.3124999999999
 21
46.61173520913435
 31
0.0
  0
LINE
  5
1EE
330
181
100
AcDbEntity
  8
0
 62
     0
100
AcDbLine
 10
115.1249999999999
 20
30.73434161302726
 30
0.0
 11
115.1249999999999
 21
31.73434161302726
 31
0.0
  0
LINE
  5
1EF
330
181
100
AcDbEntity
  8
0
 62
     0
100
AcDbLine
 10
115.1249999999999
 20
50.73434161302725
 30
0.0
 11
115.1249999999999
 21
51.73434161302726
 31
0.0
  0
LINE
  5
1F0
330
181
100
AcDbEntity
  8
0
 62
     0
100
AcDbLine
 10
115.1249999999999
 20
35.05698541235051
 30
0.0
 11
115.1249999999999
 21
46.93649473540518
 31
0.0
  0
LINE
  5
1F1
330
181
100
AcDbEntity
  8
0
 62
     0
100
AcDbLine
 10
114.9374999999999
 20
30.73434161302726
 30
0.0
 11
114.9374999999999
 21
31.73434161302726
 31
0.0
  0
LINE
  5
1F2
330
181
100
AcDbEntity
  8
0
 62
     0
100
AcDbLine
 10
114.9374999999999
 20
50.73434161302725
 30
0.0
 11
114.9374999999999
 21
51.73434161302726
 31
0.0
  0
LINE
  5
1F3
330
181
100
AcDbEntity
  8
0
 62
     0
100
AcDbLine
 10
114.9374999999999
 20
35.1263409750557
 30
0.0
 11
114.9374999999999
 21
47.54073586155272
 31
0.0
  0
LINE
  5
1F4
330
181
100
AcDbEntity
  8
0
 62
     0
100
AcDbLine
 10
114.7499999999999
 20
30.73434161302726
 30
0.0
 11
114.7499999999999
 21
31.73434161302726
 31
0.0
  0
LINE
  5
1F5
330
181
100
AcDbEntity
  8
0
 62
     0
100
AcDbLine
 10
114.7499999999999
 20
50.73434161302725
 30
0.0
 11
114.7499999999999
 21
51.73434161302726
 31
0.0
  0
LINE
  5
1F6
330
181
100
AcDbEntity
  8
0
 62
     0
100
AcDbLine
 10
114.7499999999999
 20
35.24538639737466
 30
0.0
 11
114.7499999999999
 21
47.21597633515672
 31
0.0
  0
LINE
  5
1F7
330
181
100
AcDbEntity
  8
0
 62
     0
100
AcDbLine
 10
114.5624999999999
 20
30.73434161302726
 30
0.0
 11
114.5624999999999
 21
31.73434161302726
 31
0.0
  0
LINE
  5
1F8
330
181
100
AcDbEntity
  8
0
 62
     0
100
AcDbLine
 10
114.5624999999999
 20
50.73434161302725
 30
0.0
 11
114.5624999999999
 21
51.73434161302726
 31
0.0
  0
LINE
  5
1F9
330
181
100
AcDbEntity
  8
0
 62
     0
100
AcDbLine
 10
114.5624999999999
 20
35.44390461668304
 30
0.0
 11
114.5624999999999
 21
46.89121680876072
 31
0.0
  0
LINE
  5
1FA
330
181
100
AcDbEntity
  8
0
 62
     0
100
AcDbLine
 10
114.3749999999999
 20
30.73434161302726
 30
0.0
 11
114.3749999999999
 21
31.73434161302726
 31
0.0
  0
LINE
  5
1FB
330
181
100
AcDbEntity
  8
0
 62
     0
100
AcDbLine
 10
114.3749999999999
 20
50.73434161302725
 30
0.0
 11
114.3749999999999
 21
51.73434161302726
 31
0.0
  0
LINE
  5
1FC
330
181
100
AcDbEntity
  8
0
 62
     0
100
AcDbLine
 10
114.3749999999999
 20
35.75939714825758
 30
0.0
 11
114.3749999999999
 21
46.56645728236473
 31
0.0
  0
LINE
  5
1FD
330
181
100
AcDbEntity
  8
0
 62
     0
100
AcDbLine
 10
114.1874999999999
 20
30.73434161302726
 30
0.0
 11
114.1874999999999
 21
31.73434161302726
 31
0.0
  0
LINE
  5
1FE
330
181
100
AcDbEntity
  8
0
 62
     0
100
AcDbLine
 10
114.1874999999999
 20
50.73434161302725
 30
0.0
 11
114.1874999999999
 21
51.73434161302726
 31
0.0
  0
LINE
  5
1FF
330
181
100
AcDbEntity
  8
0
 62
     0
100
AcDbLine
 10
114.1874999999999
 20
36.08415667527249
 30
0.0
 11
114.1874999999999
 21
46.24169775596873
 31
0.0
  0
LINE
  5
200
330
181
100
AcDbEntity
  8
0
 62
     0
100
AcDbLine
 10
113.9999999999999
 20
30.73434161302726
 30
0.0
 11
113.9999999999999
 21
31.73434161302726
 31
0.0
  0
LINE
  5
201
330
181
100
AcDbEntity
  8
0
 62
     0
100
AcDbLine
 10
113.9999999999999
 20
50.73434161302725
 30
0.0
 11
113.9999999999999
 21
51.73434161302726
 31
0.0
  0
LINE
  5
202
330
181
100
AcDbEntity
  8
0
 62
     0
100
AcDbLine
 10
113.9999999999999
 20
36.40891620228741
 30
0.0
 11
113.9999999999999
 21
45.91693822957273
 31
0.0
  0
LINE
  5
203
330
181
100
AcDbEntity
  8
0
 62
     0
100
AcDbLine
 10
113.8124999999999
 20
30.73434161302726
 30
0.0
 11
113.8124999999999
 21
31.73434161302726
 31
0.0
  0
LINE
  5
204
330
181
100
AcDbEntity
  8
0
 62
     0
100
AcDbLine
 10
113.8124999999999
 20
50.73434161302725
 30
0.0
 11
113.8124999999999
 21
51.73434161302726
 31
0.0
  0
LINE
  5
205
330
181
100
AcDbEntity
  8
0
 62
     0
100
AcDbLine
 10
113.8124999999999
 20
36.73367572930232
 30
0.0
 11
113.8124999999999
 21
45.59217870317673
 31
0.0
  0
LINE
  5
206
330
181
100
AcDbEntity
  8
0
 62
     0
100
AcDbLine
 10
113.6249999999999
 20
30.73434161302726
 30
0.0
 11
113.6249999999999
 21
31.73434161302726
 31
0.0
  0
LINE
  5
207
330
181
100
AcDbEntity
  8
0
 62
     0
100
AcDbLine
 10
113.6249999999999
 20
50.73434161302725
 30
0.0
 11
113.6249999999999
 21
51.73434161302726
 31
0.0
  0
LINE
  5
208
330
181
100
AcDbEntity
  8
0
 62
     0
100
AcDbLine
 10
113.6249999999999
 20
37.05843525631724
 30
0.0
 11
113.6249999999999
 21
45.26741917678073
 31
0.0
  0
LINE
  5
209
330
181
100
AcDbEntity
  8
0
 62
     0
100
AcDbLine
 10
113.4374999999999
 20
30.73434161302726
 30
0.0
 11
113.4374999999999
 21
31.73434161302726
 31
0.0
  0
LINE
  5
20A
330
181
100
AcDbEntity
  8
0
 62
     0
100
AcDbLine
 10
113.4374999999999
 20
50.73434161302725
 30
0.0
 11
113.4374999999999
 21
51.73434161302726
 31
0.0
  0
LINE
  5
20B
330
181
100
AcDbEntity
  8
0
 62
     0
100
AcDbLine
 10
113.4374999999999
 20
37.38319478333215
 30
0.0
 11
113.4374999999999
 21
44.94265965038473
 31
0.0
  0
LINE
  5
20C
330
181
100
AcDbEntity
  8
0
 62
     0
100
AcDbLine
 10
113.2499999999999
 20
30.73434161302726
 30
0.0
 11
113.2499999999999
 21
31.73434161302726
 31
0.0
  0
LINE
  5
20D
330
181
100
AcDbEntity
  8
0
 62
     0
100
AcDbLine
 10
113.2499999999999
 20
50.73434161302725
 30
0.0
 11
113.2499999999999
 21
51.73434161302726
 31
0.0
  0
LINE
  5
20E
330
181
100
AcDbEntity
  8
0
 62
     0
100
AcDbLine
 10
113.2499999999999
 20
37.70795431034707
 30
0.0
 11
113.2499999999999
 21
44.61790012398874
 31
0.0
  0
LINE
  5
20F
330
181
100
AcDbEntity
  8
0
 62
     0
100
AcDbLine
 10
113.0624999999999
 20
30.73434161302726
 30
0.0
 11
113.0624999999999
 21
31.73434161302726
 31
0.0
  0
LINE
  5
210
330
181
100
AcDbEntity
  8
0
 62
     0
100
AcDbLine
 10
113.0624999999999
 20
50.73434161302725
 30
0.0
 11
113.0624999999999
 21
51.73434161302726
 31
0.0
  0
LINE
  5
211
330
181
100
AcDbEntity
  8
0
 62
     0
100
AcDbLine
 10
113.0624999999999
 20
38.03271383736198
 30
0.0
 11
113.0624999999999
 21
44.29314059759273
 31
0.0
  0
LINE
  5
212
330
181
100
AcDbEntity
  8
0
 62
     0
100
AcDbLine
 10
112.8749999999999
 20
30.73434161302726
 30
0.0
 11
112.8749999999999
 21
31.73434161302726
 31
0.0
  0
LINE
  5
213
330
181
100
AcDbEntity
  8
0
 62
     0
100
AcDbLine
 10
112.8749999999999
 20
50.73434161302725
 30
0.0
 11
112.8749999999999
 21
51.73434161302726
 31
0.0
  0
LINE
  5
214
330
181
100
AcDbEntity
  8
0
 62
     0
100
AcDbLine
 10
112.8749999999999
 20
38.35747336437689
 30
0.0
 11
112.8749999999999
 21
43.96838107119673
 31
0.0
  0
LINE
  5
215
330
181
100
AcDbEntity
  8
0
 62
     0
100
AcDbLine
 10
112.6874999999999
 20
30.73434161302726
 30
0.0
 11
112.6874999999999
 21
31.73434161302726
 31
0.0
  0
LINE
  5
216
330
181
100
AcDbEntity
  8
0
 62
     0
100
AcDbLine
 10
112.6874999999999
 20
50.73434161302725
 30
0.0
 11
112.6874999999999
 21
51.73434161302726
 31
0.0
  0
LINE
  5
217
330
181
100
AcDbEntity
  8
0
 62
     0
100
AcDbLine
 10
112.6874999999999
 20
38.68223289139181
 30
0.0
 11
112.6874999999999
 21
43.64362154480074
 31
0.0
  0
LINE
  5
218
330
181
100
AcDbEntity
  8
0
 62
     0
100
AcDbLine
 10
112.4999999999999
 20
30.73434161302726
 30
0.0
 11
112.4999999999999
 21
31.73434161302726
 31
0.0
  0
LINE
  5
219
330
181
100
AcDbEntity
  8
0
 62
     0
100
AcDbLine
 10
112.4999999999999
 20
50.73434161302725
 30
0.0
 11
112.4999999999999
 21
51.73434161302726
 31
0.0
  0
LINE
  5
21A
330
181
100
AcDbEntity
  8
0
 62
     0
100
AcDbLine
 10
112.4999999999999
 20
39.00699241840672
 30
0.0
 11
112.4999999999999
 21
43.31886201840474
 31
0.0
  0
LINE
  5
21B
330
181
100
AcDbEntity
  8
0
 62
     0
100
AcDbLine
 10
112.3124999999999
 20
30.73434161302726
 30
0.0
 11
112.3124999999999
 21
31.73434161302726
 31
0.0
  0
LINE
  5
21C
330
181
100
AcDbEntity
  8
0
 62
     0
100
AcDbLine
 10
112.3124999999999
 20
50.73434161302725
 30
0.0
 11
112.3124999999999
 21
51.73434161302726
 31
0.0
  0
LINE
  5
21D
330
181
100
AcDbEntity
  8
0
 62
     0
100
AcDbLine
 10
112.3124999999999
 20
39.33175194542164
 30
0.0
 11
112.3124999999999
 21
42.99410249200874
 31
0.0
  0
LINE
  5
21E
330
181
100
AcDbEntity
  8
0
 62
     0
100
AcDbLine
 10
112.1249999999999
 20
30.73434161302726
 30
0.0
 11
112.1249999999999
 21
31.73434161302726
 31
0.0
  0
LINE
  5
21F
330
181
100
AcDbEntity
  8
0
 62
     0
100
AcDbLine
 10
112.1249999999999
 20
50.73434161302725
 30
0.0
 11
112.1249999999999
 21
51.73434161302726
 31
0.0
  0
LINE
  5
220
330
181
100
AcDbEntity
  8
0
 62
     0
100
AcDbLine
 10
112.1249999999999
 20
39.65651147243655
 30
0.0
 11
112.1249999999999
 21
42.66934296561275
 31
0.0
  0
LINE
  5
221
330
181
100
AcDbEntity
  8
0
 62
     0
100
AcDbLine
 10
111.9374999999999
 20
30.73434161302726
 30
0.0
 11
111.9374999999999
 21
31.73434161302726
 31
0.0
  0
LINE
  5
222
330
181
100
AcDbEntity
  8
0
 62
     0
100
AcDbLine
 10
111.9374999999999
 20
50.73434161302725
 30
0.0
 11
111.9374999999999
 21
51.73434161302726
 31
0.0
  0
LINE
  5
223
330
181
100
AcDbEntity
  8
0
 62
     0
100
AcDbLine
 10
111.9374999999999
 20
39.98127099945147
 30
0.0
 11
111.9374999999999
 21
42.34458343921675
 31
0.0
  0
LINE
  5
224
330
181
100
AcDbEntity
  8
0
 62
     0
100
AcDbLine
 10
111.7499999999999
 20
30.73434161302726
 30
0.0
 11
111.7499999999999
 21
31.73434161302726
 31
0.0
  0
LINE
  5
225
330
181
100
AcDbEntity
  8
0
 62
     0
100
AcDbLine
 10
111.7499999999999
 20
50.73434161302725
 30
0.0
 11
111.7499999999999
 21
51.73434161302726
 31
0.0
  0
LINE
  5
226
330
181
100
AcDbEntity
  8
0
 62
     0
100
AcDbLine
 10
111.7499999999999
 20
40.30603052646639
 30
0.0
 11
111.7499999999999
 21
42.01982391282075
 31
0.0
  0
LINE
  5
227
330
181
100
AcDbEntity
  8
0
 62
     0
100
AcDbLine
 10
111.5624999999999
 20
30.740674914095
 30
0.0
 11
111.5624999999999
 21
31.74492105275434
 31
0.0
  0
LINE
  5
228
330
181
100
AcDbEntity
  8
0
 62
     0
100
AcDbLine
 10
111.5624999999999
 20
50.72376217330047
 30
0.0
 11
111.5624999999999
 21
51.72800831195969
 31
0.0
  0
LINE
  5
229
330
181
100
AcDbEntity
  8
0
 62
     0
100
AcDbLine
 10
111.5624999999999
 20
40.6307900534813
 30
0.0
 11
111.5624999999999
 21
41.69506438642475
 31
0.0
  0
LINE
  5
22A
330
181
100
AcDbEntity
  8
0
 62
     0
100
AcDbLine
 10
111.3749999999999
 20
30.76118006092885
 30
0.0
 11
111.3749999999999
 21
31.77951239185461
 31
0.0
  0
LINE
  5
22B
330
181
100
AcDbEntity
  8
0
 62
     0
100
AcDbLine
 10
111.3749999999999
 20
50.6891708342002
 30
0.0
 11
111.3749999999999
 21
51.70750316512584
 31
0.0
  0
LINE
  5
22C
330
181
100
AcDbEntity
  8
0
 62
     0
100
AcDbLine
 10
111.1874999999999
 20
30.79623373596523
 30
0.0
 11
111.1874999999999
 21
31.83993492192459
 31
0.0
  0
LINE
  5
22D
330
181
100
AcDbEntity
  8
0
 62
     0
100
AcDbLine
 10
111.1874999999999
 20
50.62874830413023
 30
0.0
 11
111.1874999999999
 21
51.67244949008946
 31
0.0
  0
LINE
  5
22E
330
181
100
AcDbEntity
  8
0
 62
     0
100
AcDbLine
 10
110.9999999999999
 20
30.84647656709062
 30
0.0
 11
110.9999999999999
 21
31.92977291893484
 31
0.0
  0
LINE
  5
22F
330
181
100
AcDbEntity
  8
0
 62
     0
100
AcDbLine
 10
110.9999999999999
 20
50.53891030712001
 30
0.0
 11
110.9999999999999
 21
51.62220665896407
 31
0.0
  0
LINE
  5
230
330
181
100
AcDbEntity
  8
0
 62
     0
100
AcDbLine
 10
110.8124999999999
 20
30.91289455676685
 30
0.0
 11
110.8124999999999
 21
32.05573377535601
 31
0.0
  0
LINE
  5
231
330
181
100
AcDbEntity
  8
0
 62
     0
100
AcDbLine
 10
110.8124999999999
 20
50.41294945069886
 30
0.0
 11
110.8124999999999
 21
51.55578866928784
 31
0.0
  0
LINE
  5
232
330
181
100
AcDbEntity
  8
0
 62
     0
100
AcDbLine
 10
110.6249999999999
 20
30.99692772810695
 30
0.0
 11
110.6249999999999
 21
32.23133568461298
 31
0.0
  0
LINE
  5
233
330
181
100
AcDbEntity
  8
0
 62
     0
100
AcDbLine
 10
110.6249999999999
 20
50.23734754144197
 30
0.0
 11
110.6249999999999
 21
51.47175549794775
 31
0.0
  0
LINE
  5
234
330
181
100
AcDbEntity
  8
0
 62
     0
100
AcDbLine
 10
110.4374999999999
 20
31.10065633870766
 30
0.0
 11
110.4374999999999
 21
32.49096226851445
 31
0.0
  0
LINE
  5
235
330
181
100
AcDbEntity
  8
0
 62
     0
100
AcDbLine
 10
110.4374999999999
 20
49.97772095754063
 30
0.0
 11
110.4374999999999
 21
51.36802688734705
 31
0.0
  0
LINE
  5
236
330
181
100
AcDbEntity
  8
0
 62
     0
100
AcDbLine
 10
110.2499999999999
 20
31.22713153252687
 30
0.0
 11
110.2499999999999
 21
33.06436424023194
 31
0.0
  0
LINE
  5
237
330
181
100
AcDbEntity
  8
0
 62
     0
100
AcDbLine
 10
110.2499999999999
 20
49.40431898582504
 30
0.0
 11
110.2499999999999
 21
51.24155169352786
 31
0.0
  0
LINE
  5
238
330
181
100
AcDbEntity
  8
0
 62
     0
100
AcDbLine
 10
110.0624999999999
 20
31.38100428143419
 30
0.0
 11
110.0624999999999
 21
51.08767894462054
 31
0.0
  0
LINE
  5
239
330
181
100
AcDbEntity
  8
0
 62
     0
100
AcDbLine
 10
109.8749999999999
 20
31.56985558962826
 30
0.0
 11
109.8749999999999
 21
50.89882763642649
 31
0.0
  0
LINE
  5
23A
330
181
100
AcDbEntity
  8
0
 62
     0
100
AcDbLine
 10
109.6874999999999
 20
31.80750746726795
 30
0.0
 11
109.6874999999999
 21
50.66117575878685
 31
0.0
  0
LINE
  5
23B
330
181
100
AcDbEntity
  8
0
 62
     0
100
AcDbLine
 10
109.4999999999999
 20
32.12488898361093
 30
0.0
 11
109.4999999999999
 21
50.34379424244395
 31
0.0
  0
LINE
  5
23C
330
181
100
AcDbEntity
  8
0
 62
     0
100
AcDbLine
 10
109.3124999999999
 20
32.63801779635305
 30
0.0
 11
109.3124999999999
 21
49.83066542970214
 31
0.0
  0
LINE
  5
23D
330
181
100
AcDbEntity
  8
0
 62
     0
100
AcDbLine
 10
119.8124999999999
 20
30.73434161302726
 30
0.0
 11
119.8124999999999
 21
31.73434161302726
 31
0.0
  0
LINE
  5
23E
330
181
100
AcDbEntity
  8
0
 62
     0
100
AcDbLine
 10
119.8124999999999
 20
50.73434161302725
 30
0.0
 11
119.8124999999999
 21
51.73434161302726
 31
0.0
  0
LINE
  5
23F
330
181
100
AcDbEntity
  8
0
 62
     0
100
AcDbLine
 10
119.8124999999999
 20
34.23389329927631
 30
0.0
 11
119.8124999999999
 21
40.08222418853857
 31
0.0
  0
LINE
  5
240
330
181
100
AcDbEntity
  8
0
 62
     0
100
AcDbLine
 10
119.8124999999999
 20
42.36292722007112
 30
0.0
 11
119.8124999999999
 21
48.39196114086594
 31
0.0
  0
LINE
  5
241
330
181
100
AcDbEntity
  8
0
 62
     0
100
AcDbLine
 10
119.9999999999999
 20
30.73434161302726
 30
0.0
 11
119.9999999999999
 21
31.73434161302726
 31
0.0
  0
LINE
  5
242
330
181
100
AcDbEntity
  8
0
 62
     0
100
AcDbLine
 10
119.9999999999999
 20
50.73434161302725
 30
0.0
 11
119.9999999999999
 21
51.73434161302726
 31
0.0
  0
LINE
  5
243
330
181
100
AcDbEntity
  8
0
 62
     0
100
AcDbLine
 10
119.9999999999999
 20
34.23389329927631
 30
0.0
 11
119.9999999999999
 21
40.1624328003386
 31
0.0
  0
LINE
  5
244
330
181
100
AcDbEntity
  8
0
 62
     0
100
AcDbLine
 10
119.9999999999999
 20
42.36292722007112
 30
0.0
 11
119.9999999999999
 21
48.39196114086594
 31
0.0
  0
LINE
  5
245
330
181
100
AcDbEntity
  8
0
 62
     0
100
AcDbLine
 10
120.1874999999999
 20
30.73434161302726
 30
0.0
 11
120.1874999999999
 21
31.73434161302726
 31
0.0
  0
LINE
  5
246
330
181
100
AcDbEntity
  8
0
 62
     0
100
AcDbLine
 10
120.1874999999999
 20
50.73434161302725
 30
0.0
 11
120.1874999999999
 21
51.73434161302726
 31
0.0
  0
LINE
  5
247
330
181
100
AcDbEntity
  8
0
 62
     0
100
AcDbLine
 10
120.1874999999999
 20
34.23389329927631
 30
0.0
 11
120.1874999999999
 21
40.16292722007113
 31
0.0
  0
LINE
  5
248
330
181
100
AcDbEntity
  8
0
 62
     0
100
AcDbLine
 10
120.1874999999999
 20
42.36292722007112
 30
0.0
 11
120.1874999999999
 21
48.39196114086594
 31
0.0
  0
LINE
  5
249
330
181
100
AcDbEntity
  8
0
 62
     0
100
AcDbLine
 10
120.3749999999999
 20
30.73434161302726
 30
0.0
 11
120.3749999999999
 21
31.73434161302726
 31
0.0
  0
LINE
  5
24A
330
181
100
AcDbEntity
  8
0
 62
     0
100
AcDbLine
 10
120.3749999999999
 20
50.73434161302725
 30
0.0
 11
120.3749999999999
 21
51.73434161302726
 31
0.0
  0
LINE
  5
24B
330
181
100
AcDbEntity
  8
0
 62
     0
100
AcDbLine
 10
120.3749999999999
 20
34.23389329927631
 30
0.0
 11
120.3749999999999
 21
40.16292722007113
 31
0.0
  0
LINE
  5
24C
330
181
100
AcDbEntity
  8
0
 62
     0
100
AcDbLine
 10
120.3749999999999
 20
42.36292722007112
 30
0.0
 11
120.3749999999999
 21
48.39196114086594
 31
0.0
  0
LINE
  5
24D
330
181
100
AcDbEntity
  8
0
 62
     0
100
AcDbLine
 10
120.5624999999999
 20
30.73434161302726
 30
0.0
 11
120.5624999999999
 21
31.73434161302726
 31
0.0
  0
LINE
  5
24E
330
181
100
AcDbEntity
  8
0
 62
     0
100
AcDbLine
 10
120.5624999999999
 20
50.73434161302725
 30
0.0
 11
120.5624999999999
 21
51.73434161302726
 31
0.0
  0
LINE
  5
24F
330
181
100
AcDbEntity
  8
0
 62
     0
100
AcDbLine
 10
120.5624999999999
 20
34.23389329927631
 30
0.0
 11
120.5624999999999
 21
40.16292722007113
 31
0.0
  0
LINE
  5
250
330
181
100
AcDbEntity
  8
0
 62
     0
100
AcDbLine
 10
120.5624999999999
 20
42.36292722007112
 30
0.0
 11
120.5624999999999
 21
48.39196114086594
 31
0.0
  0
LINE
  5
251
330
181
100
AcDbEntity
  8
0
 62
     0
100
AcDbLine
 10
120.7499999999999
 20
30.73434161302726
 30
0.0
 11
120.7499999999999
 21
31.73434161302726
 31
0.0
  0
LINE
  5
252
330
181
100
AcDbEntity
  8
0
 62
     0
100
AcDbLine
 10
120.7499999999999
 20
50.73434161302725
 30
0.0
 11
120.7499999999999
 21
51.73434161302726
 31
0.0
  0
LINE
  5
253
330
181
100
AcDbEntity
  8
0
 62
     0
100
AcDbLine
 10
120.7499999999999
 20
34.23389329927631
 30
0.0
 11
120.7499999999999
 21
40.16292722007113
 31
0.0
  0
LINE
  5
254
330
181
100
AcDbEntity
  8
0
 62
     0
100
AcDbLine
 10
120.7499999999999
 20
42.36292722007112
 30
0.0
 11
120.7499999999999
 21
48.39196114086594
 31
0.0
  0
LINE
  5
255
330
181
100
AcDbEntity
  8
0
 62
     0
100
AcDbLine
 10
120.9374999999999
 20
30.73434161302726
 30
0.0
 11
120.9374999999999
 21
31.73434161302726
 31
0.0
  0
LINE
  5
256
330
181
100
AcDbEntity
  8
0
 62
     0
100
AcDbLine
 10
120.9374999999999
 20
50.73434161302725
 30
0.0
 11
120.9374999999999
 21
51.73434161302726
 31
0.0
  0
LINE
  5
257
330
181
100
AcDbEntity
  8
0
 62
     0
100
AcDbLine
 10
120.9374999999999
 20
34.23389329927631
 30
0.0
 11
120.9374999999999
 21
40.16292722007113
 31
0.0
  0
LINE
  5
258
330
181
100
AcDbEntity
  8
0
 62
     0
100
AcDbLine
 10
120.9374999999999
 20
42.36292722007112
 30
0.0
 11
120.9374999999999
 21
48.39196114086594
 31
0.0
  0
LINE
  5
259
330
181
100
AcDbEntity
  8
0
 62
     0
100
AcDbLine
 10
121.1249999999999
 20
30.73434161302726
 30
0.0
 11
121.1249999999999
 21
31.73434161302726
 31
0.0
  0
LINE
  5
25A
330
181
100
AcDbEntity
  8
0
 62
     0
100
AcDbLine
 10
121.1249999999999
 20
50.73434161302725
 30
0.0
 11
121.1249999999999
 21
51.73434161302726
 31
0.0
  0
LINE
  5
25B
330
181
100
AcDbEntity
  8
0
 62
     0
100
AcDbLine
 10
121.1249999999999
 20
34.23389329927631
 30
0.0
 11
121.1249999999999
 21
40.16292722007113
 31
0.0
  0
LINE
  5
25C
330
181
100
AcDbEntity
  8
0
 62
     0
100
AcDbLine
 10
121.1249999999999
 20
42.36292722007112
 30
0.0
 11
121.1249999999999
 21
48.39196114086594
 31
0.0
  0
LINE
  5
25D
330
181
100
AcDbEntity
  8
0
 62
     0
100
AcDbLine
 10
121.3124999999999
 20
30.73434161302726
 30
0.0
 11
121.3124999999999
 21
31.73434161302726
 31
0.0
  0
LINE
  5
25E
330
181
100
AcDbEntity
  8
0
 62
     0
100
AcDbLine
 10
121.3124999999999
 20
50.73434161302725
 30
0.0
 11
121.3124999999999
 21
51.73434161302726
 31
0.0
  0
LINE
  5
25F
330
181
100
AcDbEntity
  8
0
 62
     0
100
AcDbLine
 10
121.3124999999999
 20
34.23389329927631
 30
0.0
 11
121.3124999999999
 21
40.16292722007113
 31
0.0
  0
LINE
  5
260
330
181
100
AcDbEntity
  8
0
 62
     0
100
AcDbLine
 10
121.3124999999999
 20
42.36292722007112
 30
0.0
 11
121.3124999999999
 21
48.39196114086594
 31
0.0
  0
LINE
  5
261
330
181
100
AcDbEntity
  8
0
 62
     0
100
AcDbLine
 10
121.4999999999999
 20
30.73434161302726
 30
0.0
 11
121.4999999999999
 21
31.73434161302726
 31
0.0
  0
LINE
  5
262
330
181
100
AcDbEntity
  8
0
 62
     0
100
AcDbLine
 10
121.4999999999999
 20
50.73434161302725
 30
0.0
 11
121.4999999999999
 21
51.73434161302726
 31
0.0
  0
LINE
  5
263
330
181
100
AcDbEntity
  8
0
 62
     0
100
AcDbLine
 10
121.4999999999999
 20
34.23389329927631
 30
0.0
 11
121.4999999999999
 21
40.16292722007113
 31
0.0
  0
LINE
  5
264
330
181
100
AcDbEntity
  8
0
 62
     0
100
AcDbLine
 10
121.4999999999999
 20
42.36292722007112
 30
0.0
 11
121.4999999999999
 21
48.39196114086594
 31
0.0
  0
LINE
  5
265
330
181
100
AcDbEntity
  8
0
 62
     0
100
AcDbLine
 10
121.6874999999999
 20
30.73434161302726
 30
0.0
 11
121.6874999999999
 21
31.73434161302726
 31
0.0
  0
LINE
  5
266
330
181
100
AcDbEntity
  8
0
 62
     0
100
AcDbLine
 10
121.6874999999999
 20
50.73434161302725
 30
0.0
 11
121.6874999999999
 21
51.73434161302726
 31
0.0
  0
LINE
  5
267
330
181
100
AcDbEntity
  8
0
 62
     0
100
AcDbLine
 10
121.6874999999999
 20
34.23389329927631
 30
0.0
 11
121.6874999999999
 21
40.16292722007113
 31
0.0
  0
LINE
  5
268
330
181
100
AcDbEntity
  8
0
 62
     0
100
AcDbLine
 10
121.6874999999999
 20
42.36292722007112
 30
0.0
 11
121.6874999999999
 21
48.39196114086594
 31
0.0
  0
LINE
  5
269
330
181
100
AcDbEntity
  8
0
 62
     0
100
AcDbLine
 10
121.8749999999999
 20
30.73434161302726
 30
0.0
 11
121.8749999999999
 21
31.73434161302726
 31
0.0
  0
LINE
  5
26A
330
181
100
AcDbEntity
  8
0
 62
     0
100
AcDbLine
 10
121.8749999999999
 20
50.73434161302725
 30
0.0
 11
121.8749999999999
 21
51.73434161302726
 31
0.0
  0
LINE
  5
26B
330
181
100
AcDbEntity
  8
0
 62
     0
100
AcDbLine
 10
121.8749999999999
 20
34.23389329927631
 30
0.0
 11
121.8749999999999
 21
40.16292722007113
 31
0.0
  0
LINE
  5
26C
330
181
100
AcDbEntity
  8
0
 62
     0
100
AcDbLine
 10
121.8749999999999
 20
42.36292722007112
 30
0.0
 11
121.8749999999999
 21
48.39196114086594
 31
0.0
  0
LINE
  5
26D
330
181
100
AcDbEntity
  8
0
 62
     0
100
AcDbLine
 10
122.0624999999999
 20
30.73434161302726
 30
0.0
 11
122.0624999999999
 21
31.73434161302726
 31
0.0
  0
LINE
  5
26E
330
181
100
AcDbEntity
  8
0
 62
     0
100
AcDbLine
 10
122.0624999999999
 20
50.73434161302725
 30
0.0
 11
122.0624999999999
 21
51.73434161302726
 31
0.0
  0
LINE
  5
26F
330
181
100
AcDbEntity
  8
0
 62
     0
100
AcDbLine
 10
122.0624999999999
 20
34.23389329927631
 30
0.0
 11
122.0624999999999
 21
40.16292722007113
 31
0.0
  0
LINE
  5
270
330
181
100
AcDbEntity
  8
0
 62
     0
100
AcDbLine
 10
122.0624999999999
 20
42.36292722007112
 30
0.0
 11
122.0624999999999
 21
48.39196114086594
 31
0.0
  0
LINE
  5
271
330
181
100
AcDbEntity
  8
0
 62
     0
100
AcDbLine
 10
122.2499999999999
 20
30.73434161302726
 30
0.0
 11
122.2499999999999
 21
31.73434161302726
 31
0.0
  0
LINE
  5
272
330
181
100
AcDbEntity
  8
0
 62
     0
100
AcDbLine
 10
122.2499999999999
 20
50.73434161302725
 30
0.0
 11
122.2499999999999
 21
51.73434161302726
 31
0.0
  0
LINE
  5
273
330
181
100
AcDbEntity
  8
0
 62
     0
100
AcDbLine
 10
122.2499999999999
 20
34.23389329927631
 30
0.0
 11
122.2499999999999
 21
40.16292722007113
 31
0.0
  0
LINE
  5
274
330
181
100
AcDbEntity
  8
0
 62
     0
100
AcDbLine
 10
122.2499999999999
 20
42.36292722007112
 30
0.0
 11
122.2499999999999
 21
48.39196114086594
 31
0.0
  0
LINE
  5
275
330
181
100
AcDbEntity
  8
0
 62
     0
100
AcDbLine
 10
122.4374999999999
 20
30.73434161302726
 30
0.0
 11
122.4374999999999
 21
31.73434161302726
 31
0.0
  0
LINE
  5
276
330
181
100
AcDbEntity
  8
0
 62
     0
100
AcDbLine
 10
122.4374999999999
 20
50.73434161302725
 30
0.0
 11
122.4374999999999
 21
51.73434161302726
 31
0.0
  0
LINE
  5
277
330
181
100
AcDbEntity
  8
0
 62
     0
100
AcDbLine
 10
122.4374999999999
 20
34.23389329927631
 30
0.0
 11
122.4374999999999
 21
40.16292722007113
 31
0.0
  0
LINE
  5
278
330
181
100
AcDbEntity
  8
0
 62
     0
100
AcDbLine
 10
122.4374999999999
 20
42.36292722007112
 30
0.0
 11
122.4374999999999
 21
48.39196114086594
 31
0.0
  0
LINE
  5
279
330
181
100
AcDbEntity
  8
0
 62
     0
100
AcDbLine
 10
122.6249999999999
 20
30.73434161302726
 30
0.0
 11
122.6249999999999
 21
31.73434161302726
 31
0.0
  0
LINE
  5
27A
330
181
100
AcDbEntity
  8
0
 62
     0
100
AcDbLine
 10
122.6249999999999
 20
50.73434161302725
 30
0.0
 11
122.6249999999999
 21
51.73434161302726
 31
0.0
  0
LINE
  5
27B
330
181
100
AcDbEntity
  8
0
 62
     0
100
AcDbLine
 10
122.6249999999999
 20
34.23389329927631
 30
0.0
 11
122.6249999999999
 21
40.16292722007113
 31
0.0
  0
LINE
  5
27C
330
181
100
AcDbEntity
  8
0
 62
     0
100
AcDbLine
 10
122.6249999999999
 20
42.36292722007112
 30
0.0
 11
122.6249999999999
 21
48.39196114086594
 31
0.0
  0
LINE
  5
27D
330
181
100
AcDbEntity
  8
0
 62
     0
100
AcDbLine
 10
122.8124999999999
 20
30.73434161302726
 30
0.0
 11
122.8124999999999
 21
31.73434161302726
 31
0.0
  0
LINE
  5
27E
330
181
100
AcDbEntity
  8
0
 62
     0
100
AcDbLine
 10
122.8124999999999
 20
50.73434161302725
 30
0.0
 11
122.8124999999999
 21
51.73434161302726
 31
0.0
  0
LINE
  5
27F
330
181
100
AcDbEntity
  8
0
 62
     0
100
AcDbLine
 10
122.8124999999999
 20
34.23389329927631
 30
0.0
 11
122.8124999999999
 21
40.16292722007113
 31
0.0
  0
LINE
  5
280
330
181
100
AcDbEntity
  8
0
 62
     0
100
AcDbLine
 10
122.8124999999999
 20
42.36292722007112
 30
0.0
 11
122.8124999999999
 21
48.39196114086594
 31
0.0
  0
LINE
  5
281
330
181
100
AcDbEntity
  8
0
 62
     0
100
AcDbLine
 10
122.9999999999999
 20
30.73434161302726
 30
0.0
 11
122.9999999999999
 21
31.73434161302726
 31
0.0
  0
LINE
  5
282
330
181
100
AcDbEntity
  8
0
 62
     0
100
AcDbLine
 10
122.9999999999999
 20
50.73434161302725
 30
0.0
 11
122.9999999999999
 21
51.73434161302726
 31
0.0
  0
LINE
  5
283
330
181
100
AcDbEntity
  8
0
 62
     0
100
AcDbLine
 10
122.9999999999999
 20
34.23389329927631
 30
0.0
 11
122.9999999999999
 21
40.16292722007113
 31
0.0
  0
LINE
  5
284
330
181
100
AcDbEntity
  8
0
 62
     0
100
AcDbLine
 10
122.9999999999999
 20
42.36292722007112
 30
0.0
 11
122.9999999999999
 21
48.39145010178652
 31
0.0
  0
LINE
  5
285
330
181
100
AcDbEntity
  8
0
 62
     0
100
AcDbLine
 10
123.1874999999999
 20
30.73434161302726
 30
0.0
 11
123.1874999999999
 21
31.73434161302726
 31
0.0
  0
LINE
  5
286
330
181
100
AcDbEntity
  8
0
 62
     0
100
AcDbLine
 10
123.1874999999999
 20
50.73434161302725
 30
0.0
 11
123.1874999999999
 21
51.73434161302726
 31
0.0
  0
LINE
  5
287
330
181
100
AcDbEntity
  8
0
 62
     0
100
AcDbLine
 10
123.1874999999999
 20
34.24705839230357
 30
0.0
 11
123.1874999999999
 21
40.16292722007113
 31
0.0
  0
LINE
  5
288
330
181
100
AcDbEntity
  8
0
 62
     0
100
AcDbLine
 10
123.1874999999999
 20
42.36292722007112
 30
0.0
 11
123.1874999999999
 21
48.36758131842096
 31
0.0
  0
LINE
  5
289
330
181
100
AcDbEntity
  8
0
 62
     0
100
AcDbLine
 10
123.3749999999999
 20
30.73434161302726
 30
0.0
 11
123.3749999999999
 21
31.73434161302726
 31
0.0
  0
LINE
  5
28A
330
181
100
AcDbEntity
  8
0
 62
     0
100
AcDbLine
 10
123.3749999999999
 20
50.73434161302725
 30
0.0
 11
123.3749999999999
 21
51.73434161302726
 31
0.0
  0
LINE
  5
28B
330
181
100
AcDbEntity
  8
0
 62
     0
100
AcDbLine
 10
123.3749999999999
 20
34.29685657824298
 30
0.0
 11
123.3749999999999
 21
40.16292722007113
 31
0.0
  0
LINE
  5
28C
330
181
100
AcDbEntity
  8
0
 62
     0
100
AcDbLine
 10
123.3749999999999
 20
42.36292722007112
 30
0.0
 11
123.3749999999999
 21
48.30540450457434
 31
0.0
  0
LINE
  5
28D
330
181
100
AcDbEntity
  8
0
 62
     0
100
AcDbLine
 10
123.5624999999999
 20
30.73434161302726
 30
0.0
 11
123.5624999999999
 21
31.73434161302726
 31
0.0
  0
LINE
  5
28E
330
181
100
AcDbEntity
  8
0
 62
     0
100
AcDbLine
 10
123.5624999999999
 20
50.73434161302725
 30
0.0
 11
123.5624999999999
 21
51.73434161302726
 31
0.0
  0
LINE
  5
28F
330
181
100
AcDbEntity
  8
0
 62
     0
100
AcDbLine
 10
123.5624999999999
 20
34.39013978105555
 30
0.0
 11
123.5624999999999
 21
40.16292722007112
 31
0.0
  0
LINE
  5
290
330
181
100
AcDbEntity
  8
0
 62
     0
100
AcDbLine
 10
123.5624999999999
 20
42.36292722007112
 30
0.0
 11
123.5624999999999
 21
48.19608198163137
 31
0.0
  0
LINE
  5
291
330
181
100
AcDbEntity
  8
0
 62
     0
100
AcDbLine
 10
123.7499999999999
 20
30.73434161302726
 30
0.0
 11
123.7499999999999
 21
31.73434161302726
 31
0.0
  0
LINE
  5
292
330
181
100
AcDbEntity
  8
0
 62
     0
100
AcDbLine
 10
123.7499999999999
 20
50.73434161302725
 30
0.0
 11
123.7499999999999
 21
51.73434161302726
 31
0.0
  0
LINE
  5
293
330
181
100
AcDbEntity
  8
0
 62
     0
100
AcDbLine
 10
123.7499999999999
 20
34.54433570019199
 30
0.0
 11
123.7499999999999
 21
40.16292722007112
 31
0.0
  0
LINE
  5
294
330
181
100
AcDbEntity
  8
0
 62
     0
100
AcDbLine
 10
123.7499999999999
 20
42.36292722007112
 30
0.0
 11
123.7499999999999
 21
48.01528238581408
 31
0.0
  0
LINE
  5
295
330
181
100
AcDbEntity
  8
0
 62
     0
100
AcDbLine
 10
123.9374999999999
 20
30.73434161302726
 30
0.0
 11
123.9374999999999
 21
31.73434161302726
 31
0.0
  0
LINE
  5
296
330
181
100
AcDbEntity
  8
0
 62
     0
100
AcDbLine
 10
123.9374999999999
 20
50.73434161302725
 30
0.0
 11
123.9374999999999
 21
51.73434161302726
 31
0.0
  0
LINE
  5
297
330
181
100
AcDbEntity
  8
0
 62
     0
100
AcDbLine
 10
123.9374999999999
 20
34.81305744647532
 30
0.0
 11
123.9374999999999
 21
40.16292722007112
 31
0.0
  0
LINE
  5
298
330
181
100
AcDbEntity
  8
0
 62
     0
100
AcDbLine
 10
123.9374999999999
 20
42.36292722007112
 30
0.0
 11
123.9374999999999
 21
47.71279699366689
 31
0.0
  0
LINE
  5
299
330
181
100
AcDbEntity
  8
0
 62
     0
100
AcDbLine
 10
124.1249999999999
 20
30.73434161302725
 30
0.0
 11
124.1249999999999
 21
31.73434161302725
 31
0.0
  0
LINE
  5
29A
330
181
100
AcDbEntity
  8
0
 62
     0
100
AcDbLine
 10
124.1249999999999
 20
50.73434161302725
 30
0.0
 11
124.1249999999999
 21
51.73434161302726
 31
0.0
  0
LINE
  5
29B
330
181
100
AcDbEntity
  8
0
 62
     0
100
AcDbLine
 10
124.1249999999999
 20
35.13781697289449
 30
0.0
 11
124.1249999999999
 21
40.16292722007112
 31
0.0
  0
LINE
  5
29C
330
181
100
AcDbEntity
  8
0
 62
     0
100
AcDbLine
 10
124.1249999999999
 20
42.36292722007112
 30
0.0
 11
124.1249999999999
 21
47.38803746724773
 31
0.0
  0
LINE
  5
29D
330
181
100
AcDbEntity
  8
0
 62
     0
100
AcDbLine
 10
124.3124999999999
 20
30.73434161302725
 30
0.0
 11
124.3124999999999
 21
31.73434161302725
 31
0.0
  0
LINE
  5
29E
330
181
100
AcDbEntity
  8
0
 62
     0
100
AcDbLine
 10
124.3124999999999
 20
50.73434161302725
 30
0.0
 11
124.3124999999999
 21
51.73434161302726
 31
0.0
  0
LINE
  5
29F
330
181
100
AcDbEntity
  8
0
 62
     0
100
AcDbLine
 10
124.3124999999999
 20
35.46257649931365
 30
0.0
 11
124.3124999999999
 21
40.16292722007112
 31
0.0
  0
LINE
  5
2A0
330
181
100
AcDbEntity
  8
0
 62
     0
100
AcDbLine
 10
124.3124999999999
 20
42.36292722007112
 30
0.0
 11
124.3124999999999
 21
47.06327794082857
 31
0.0
  0
LINE
  5
2A1
330
181
100
AcDbEntity
  8
0
 62
     0
100
AcDbLine
 10
124.4999999999999
 20
30.73434161302725
 30
0.0
 11
124.4999999999999
 21
31.73434161302725
 31
0.0
  0
LINE
  5
2A2
330
181
100
AcDbEntity
  8
0
 62
     0
100
AcDbLine
 10
124.4999999999999
 20
50.73434161302725
 30
0.0
 11
124.4999999999999
 21
51.73434161302726
 31
0.0
  0
LINE
  5
2A3
330
181
100
AcDbEntity
  8
0
 62
     0
100
AcDbLine
 10
124.4999999999999
 20
35.78733602573282
 30
0.0
 11
124.4999999999999
 21
40.16292722007112
 31
0.0
  0
LINE
  5
2A4
330
181
100
AcDbEntity
  8
0
 62
     0
100
AcDbLine
 10
124.4999999999999
 20
42.36292722007112
 30
0.0
 11
124.4999999999999
 21
46.7385184144094
 31
0.0
  0
LINE
  5
2A5
330
181
100
AcDbEntity
  8
0
 62
     0
100
AcDbLine
 10
124.6874999999999
 20
30.73434161302725
 30
0.0
 11
124.6874999999999
 21
31.73434161302725
 31
0.0
  0
LINE
  5
2A6
330
181
100
AcDbEntity
  8
0
 62
     0
100
AcDbLine
 10
124.6874999999999
 20
50.73434161302725
 30
0.0
 11
124.6874999999999
 21
51.73434161302726
 31
0.0
  0
LINE
  5
2A7
330
181
100
AcDbEntity
  8
0
 62
     0
100
AcDbLine
 10
124.6874999999999
 20
36.11209555215198
 30
0.0
 11
124.6874999999999
 21
40.16292722007112
 31
0.0
  0
LINE
  5
2A8
330
181
100
AcDbEntity
  8
0
 62
     0
100
AcDbLine
 10
124.6874999999999
 20
42.36292722007112
 30
0.0
 11
124.6874999999999
 21
46.41375888799024
 31
0.0
  0
LINE
  5
2A9
330
181
100
AcDbEntity
  8
0
 62
     0
100
AcDbLine
 10
124.8749999999999
 20
30.73434161302725
 30
0.0
 11
124.8749999999999
 21
31.73434161302725
 31
0.0
  0
LINE
  5
2AA
330
181
100
AcDbEntity
  8
0
 62
     0
100
AcDbLine
 10
124.8749999999999
 20
50.73434161302725
 30
0.0
 11
124.8749999999999
 21
51.73434161302726
 31
0.0
  0
LINE
  5
2AB
330
181
100
AcDbEntity
  8
0
 62
     0
100
AcDbLine
 10
124.8749999999999
 20
36.43685507857115
 30
0.0
 11
124.8749999999999
 21
40.16292722007112
 31
0.0
  0
LINE
  5
2AC
330
181
100
AcDbEntity
  8
0
 62
     0
100
AcDbLine
 10
124.8749999999999
 20
42.36292722007112
 30
0.0
 11
124.8749999999999
 21
46.08899936157107
 31
0.0
  0
LINE
  5
2AD
330
181
100
AcDbEntity
  8
0
 62
     0
100
AcDbLine
 10
125.0624999999999
 20
30.73434161302725
 30
0.0
 11
125.0624999999999
 21
31.73434161302725
 31
0.0
  0
LINE
  5
2AE
330
181
100
AcDbEntity
  8
0
 62
     0
100
AcDbLine
 10
125.0624999999999
 20
50.73434161302725
 30
0.0
 11
125.0624999999999
 21
51.73434161302726
 31
0.0
  0
LINE
  5
2AF
330
181
100
AcDbEntity
  8
0
 62
     0
100
AcDbLine
 10
125.0624999999999
 20
36.7616146049903
 30
0.0
 11
125.0624999999999
 21
40.16292722007112
 31
0.0
  0
LINE
  5
2B0
330
181
100
AcDbEntity
  8
0
 62
     0
100
AcDbLine
 10
125.0624999999999
 20
42.36292722007112
 30
0.0
 11
125.0624999999999
 21
45.76423983515191
 31
0.0
  0
LINE
  5
2B1
330
181
100
AcDbEntity
  8
0
 62
     0
100
AcDbLine
 10
125.2499999999999
 20
30.73434161302725
 30
0.0
 11
125.2499999999999
 21
31.73434161302725
 31
0.0
  0
LINE
  5
2B2
330
181
100
AcDbEntity
  8
0
 62
     0
100
AcDbLine
 10
125.2499999999999
 20
50.73434161302725
 30
0.0
 11
125.2499999999999
 21
51.73434161302726
 31
0.0
  0
LINE
  5
2B3
330
181
100
AcDbEntity
  8
0
 62
     0
100
AcDbLine
 10
125.2499999999999
 20
37.08637413140947
 30
0.0
 11
125.2499999999999
 21
40.16292722007112
 31
0.0
  0
LINE
  5
2B4
330
181
100
AcDbEntity
  8
0
 62
     0
100
AcDbLine
 10
125.2499999999999
 20
42.36292722007112
 30
0.0
 11
125.2499999999999
 21
45.43948030873274
 31
0.0
  0
LINE
  5
2B5
330
181
100
AcDbEntity
  8
0
 62
     0
100
AcDbLine
 10
125.4374999999999
 20
30.73434161302725
 30
0.0
 11
125.4374999999999
 21
31.73434161302725
 31
0.0
  0
LINE
  5
2B6
330
181
100
AcDbEntity
  8
0
 62
     0
100
AcDbLine
 10
125.4374999999999
 20
50.73434161302725
 30
0.0
 11
125.4374999999999
 21
51.73434161302726
 31
0.0
  0
LINE
  5
2B7
330
181
100
AcDbEntity
  8
0
 62
     0
100
AcDbLine
 10
125.4374999999999
 20
37.41113365782863
 30
0.0
 11
125.4374999999999
 21
40.16292722007112
 31
0.0
  0
LINE
  5
2B8
330
181
100
AcDbEntity
  8
0
 62
     0
100
AcDbLine
 10
125.4374999999999
 20
42.36292722007112
 30
0.0
 11
125.4374999999999
 21
45.11472078231358
 31
0.0
  0
LINE
  5
2B9
330
181
100
AcDbEntity
  8
0
 62
     0
100
AcDbLine
 10
125.6249999999999
 20
30.73434161302725
 30
0.0
 11
125.6249999999999
 21
31.73434161302725
 31
0.0
  0
LINE
  5
2BA
330
181
100
AcDbEntity
  8
0
 62
     0
100
AcDbLine
 10
125.6249999999999
 20
50.73434161302725
 30
0.0
 11
125.6249999999999
 21
51.73434161302726
 31
0.0
  0
LINE
  5
2BB
330
181
100
AcDbEntity
  8
0
 62
     0
100
AcDbLine
 10
125.6249999999999
 20
37.7358931842478
 30
0.0
 11
125.6249999999999
 21
40.16292722007112
 31
0.0
  0
LINE
  5
2BC
330
181
100
AcDbEntity
  8
0
 62
     0
100
AcDbLine
 10
125.6249999999999
 20
42.36292722007112
 30
0.0
 11
125.6249999999999
 21
44.78996125589442
 31
0.0
  0
LINE
  5
2BD
330
181
100
AcDbEntity
  8
0
 62
     0
100
AcDbLine
 10
125.8124999999999
 20
30.73434161302725
 30
0.0
 11
125.8124999999999
 21
31.73434161302725
 31
0.0
  0
LINE
  5
2BE
330
181
100
AcDbEntity
  8
0
 62
     0
100
AcDbLine
 10
125.8124999999999
 20
50.73434161302725
 30
0.0
 11
125.8124999999999
 21
51.73434161302726
 31
0.0
  0
LINE
  5
2BF
330
181
100
AcDbEntity
  8
0
 62
     0
100
AcDbLine
 10
125.8124999999999
 20
38.06065271066696
 30
0.0
 11
125.8124999999999
 21
40.16292722007112
 31
0.0
  0
LINE
  5
2C0
330
181
100
AcDbEntity
  8
0
 62
     0
100
AcDbLine
 10
125.8124999999999
 20
42.36292722007112
 30
0.0
 11
125.8124999999999
 21
44.46520172947525
 31
0.0
  0
LINE
  5
2C1
330
181
100
AcDbEntity
  8
0
 62
     0
100
AcDbLine
 10
125.9999999999999
 20
30.73434161302725
 30
0.0
 11
125.9999999999999
 21
31.73434161302725
 31
0.0
  0
LINE
  5
2C2
330
181
100
AcDbEntity
  8
0
 62
     0
100
AcDbLine
 10
125.9999999999999
 20
50.73434161302725
 30
0.0
 11
125.9999999999999
 21
51.73434161302726
 31
0.0
  0
LINE
  5
2C3
330
181
100
AcDbEntity
  8
0
 62
     0
100
AcDbLine
 10
125.9999999999999
 20
38.38541223708613
 30
0.0
 11
125.9999999999999
 21
40.16292722007112
 31
0.0
  0
LINE
  5
2C4
330
181
100
AcDbEntity
  8
0
 62
     0
100
AcDbLine
 10
125.9999999999999
 20
42.36292722007112
 30
0.0
 11
125.9999999999999
 21
44.14044220305608
 31
0.0
  0
LINE
  5
2C5
330
181
100
AcDbEntity
  8
0
 62
     0
100
AcDbLine
 10
126.1874999999999
 20
30.73434161302725
 30
0.0
 11
126.1874999999999
 21
31.73434161302725
 31
0.0
  0
LINE
  5
2C6
330
181
100
AcDbEntity
  8
0
 62
     0
100
AcDbLine
 10
126.1874999999999
 20
50.73434161302725
 30
0.0
 11
126.1874999999999
 21
51.73434161302726
 31
0.0
  0
LINE
  5
2C7
330
181
100
AcDbEntity
  8
0
 62
     0
100
AcDbLine
 10
126.1874999999999
 20
38.71017176350529
 30
0.0
 11
126.1874999999999
 21
40.16292722007112
 31
0.0
  0
LINE
  5
2C8
330
181
100
AcDbEntity
  8
0
 62
     0
100
AcDbLine
 10
126.1874999999999
 20
42.36292722007112
 30
0.0
 11
126.1874999999999
 21
43.81568267663692
 31
0.0
  0
LINE
  5
2C9
330
181
100
AcDbEntity
  8
0
 62
     0
100
AcDbLine
 10
126.3749999999999
 20
30.73434161302725
 30
0.0
 11
126.3749999999999
 21
31.73434161302725
 31
0.0
  0
LINE
  5
2CA
330
181
100
AcDbEntity
  8
0
 62
     0
100
AcDbLine
 10
126.3749999999999
 20
50.73434161302725
 30
0.0
 11
126.3749999999999
 21
51.73434161302726
 31
0.0
  0
LINE
  5
2CB
330
181
100
AcDbEntity
  8
0
 62
     0
100
AcDbLine
 10
126.3749999999999
 20
39.03493128992446
 30
0.0
 11
126.3749999999999
 21
40.16292722007112
 31
0.0
  0
LINE
  5
2CC
330
181
100
AcDbEntity
  8
0
 62
     0
100
AcDbLine
 10
126.3749999999999
 20
42.36292722007112
 30
0.0
 11
126.3749999999999
 21
43.49092315021776
 31
0.0
  0
LINE
  5
2CD
330
181
100
AcDbEntity
  8
0
 62
     0
100
AcDbLine
 10
126.5624999999999
 20
30.73434161302725
 30
0.0
 11
126.5624999999999
 21
31.73434161302725
 31
0.0
  0
LINE
  5
2CE
330
181
100
AcDbEntity
  8
0
 62
     0
100
AcDbLine
 10
126.5624999999999
 20
50.73434161302725
 30
0.0
 11
126.5624999999999
 21
51.73434161302726
 31
0.0
  0
LINE
  5
2CF
330
181
100
AcDbEntity
  8
0
 62
     0
100
AcDbLine
 10
126.5624999999999
 20
39.35969081634362
 30
0.0
 11
126.5624999999999
 21
40.16292722007112
 31
0.0
  0
LINE
  5
2D0
330
181
100
AcDbEntity
  8
0
 62
     0
100
AcDbLine
 10
126.5624999999999
 20
42.36292722007112
 30
0.0
 11
126.5624999999999
 21
43.1661636237986
 31
0.0
  0
LINE
  5
2D1
330
181
100
AcDbEntity
  8
0
 62
     0
100
AcDbLine
 10
126.7499999999999
 20
30.73434161302725
 30
0.0
 11
126.7499999999999
 21
31.73434161302725
 31
0.0
  0
LINE
  5
2D2
330
181
100
AcDbEntity
  8
0
 62
     0
100
AcDbLine
 10
126.7499999999999
 20
50.73434161302725
 30
0.0
 11
126.7499999999999
 21
51.73434161302726
 31
0.0
  0
LINE
  5
2D3
330
181
100
AcDbEntity
  8
0
 62
     0
100
AcDbLine
 10
126.7499999999999
 20
39.68445034276278
 30
0.0
 11
126.7499999999999
 21
40.16292722007112
 31
0.0
  0
LINE
  5
2D4
330
181
100
AcDbEntity
  8
0
 62
     0
100
AcDbLine
 10
126.7499999999999
 20
42.36292722007112
 30
0.0
 11
126.7499999999999
 21
42.84140409737942
 31
0.0
  0
LINE
  5
2D5
330
181
100
AcDbEntity
  8
0
 62
     0
100
AcDbLine
 10
126.9374999999999
 20
30.73434161302725
 30
0.0
 11
126.9374999999999
 21
31.73434161302725
 31
0.0
  0
LINE
  5
2D6
330
181
100
AcDbEntity
  8
0
 62
     0
100
AcDbLine
 10
126.9374999999999
 20
50.73434161302725
 30
0.0
 11
126.9374999999999
 21
51.73434161302726
 31
0.0
  0
LINE
  5
2D7
330
181
100
AcDbEntity
  8
0
 62
     0
100
AcDbLine
 10
126.9374999999999
 20
40.00920986918194
 30
0.0
 11
126.9374999999999
 21
40.16292722007112
 31
0.0
  0
LINE
  5
2D8
330
181
100
AcDbEntity
  8
0
 62
     0
100
AcDbLine
 10
126.9374999999999
 20
42.36292722007112
 30
0.0
 11
126.9374999999999
 21
42.51664457096026
 31
0.0
  0
LINE
  5
2D9
330
181
100
AcDbEntity
  8
0
 62
     0
100
AcDbLine
 10
127.1249999999999
 20
30.73434161302725
 30
0.0
 11
127.1249999999999
 21
31.73434161302725
 31
0.0
  0
LINE
  5
2DA
330
181
100
AcDbEntity
  8
0
 62
     0
100
AcDbLine
 10
127.1249999999999
 20
50.73434161302725
 30
0.0
 11
127.1249999999999
 21
51.73434161302726
 31
0.0
  0
LINE
  5
2DB
330
181
100
AcDbEntity
  8
0
 62
     0
100
AcDbLine
 10
127.3124999999999
 20
30.73434161302725
 30
0.0
 11
127.3124999999999
 21
31.73434161302725
 31
0.0
  0
LINE
  5
2DC
330
181
100
AcDbEntity
  8
0
 62
     0
100
AcDbLine
 10
127.3124999999999
 20
50.73434161302725
 30
0.0
 11
127.3124999999999
 21
51.73434161302726
 31
0.0
  0
LINE
  5
2DD
330
181
100
AcDbEntity
  8
0
 62
     0
100
AcDbLine
 10
127.4999999999999
 20
30.73434161302725
 30
0.0
 11
127.4999999999999
 21
31.73434161302725
 31
0.0
  0
LINE
  5
2DE
330
181
100
AcDbEntity
  8
0
 62
     0
100
AcDbLine
 10
127.4999999999999
 20
50.73434161302725
 30
0.0
 11
127.4999999999999
 21
51.73434161302726
 31
0.0
  0
LINE
  5
2DF
330
181
100
AcDbEntity
  8
0
 62
     0
100
AcDbLine
 10
127.6874999999999
 20
30.73434161302725
 30
0.0
 11
127.6874999999999
 21
31.73434161302725
 31
0.0
  0
LINE
  5
2E0
330
181
100
AcDbEntity
  8
0
 62
     0
100
AcDbLine
 10
127.6874999999999
 20
50.73434161302725
 30
0.0
 11
127.6874999999999
 21
51.73434161302726
 31
0.0
  0
LINE
  5
2E1
330
181
100
AcDbEntity
  8
0
 62
     0
100
AcDbLine
 10
127.8749999999999
 20
30.73797101226689
 30
0.0
 11
127.8749999999999
 21
31.74039844933573
 31
0.0
  0
LINE
  5
2E2
330
181
100
AcDbEntity
  8
0
 62
     0
100
AcDbLine
 10
127.8749999999999
 20
50.72828477671877
 30
0.0
 11
127.8749999999999
 21
51.73071221378761
 31
0.0
  0
LINE
  5
2E3
330
181
100
AcDbEntity
  8
0
 62
     0
100
AcDbLine
 10
128.0624999999999
 20
30.75518616833917
 30
0.0
 11
128.0624999999999
 21
31.76934614582384
 31
0.0
  0
LINE
  5
2E4
330
181
100
AcDbEntity
  8
0
 62
     0
100
AcDbLine
 10
128.0624999999999
 20
50.69933708023067
 30
0.0
 11
128.0624999999999
 21
51.71349705771533
 31
0.0
  0
LINE
  5
2E5
330
181
100
AcDbEntity
  8
0
 62
     0
100
AcDbLine
 10
128.2499999999999
 20
30.78684396001255
 30
0.0
 11
128.2499999999999
 21
31.82358126431013
 31
0.0
  0
LINE
  5
2E6
330
181
100
AcDbEntity
  8
0
 62
     0
100
AcDbLine
 10
128.2499999999999
 20
50.64510196174438
 30
0.0
 11
128.2499999999999
 21
51.68183926604196
 31
0.0
  0
LINE
  5
2E7
330
181
100
AcDbEntity
  8
0
 62
     0
100
AcDbLine
 10
128.4374999999999
 20
30.83351565013482
 30
0.0
 11
128.4374999999999
 21
31.90619805749631
 31
0.0
  0
LINE
  5
2E8
330
181
100
AcDbEntity
  8
0
 62
     0
100
AcDbLine
 10
128.4374999999999
 20
50.5624851685582
 30
0.0
 11
128.4374999999999
 21
51.63516757591969
 31
0.0
  0
LINE
  5
2E9
330
181
100
AcDbEntity
  8
0
 62
     0
100
AcDbLine
 10
128.6249999999999
 20
30.89610010567942
 30
0.0
 11
128.6249999999999
 21
32.02298974561454
 31
0.0
  0
LINE
  5
2EA
330
181
100
AcDbEntity
  8
0
 62
     0
100
AcDbLine
 10
128.6249999999999
 20
50.44569348043999
 30
0.0
 11
128.6249999999999
 21
51.57258312037509
 31
0.0
  0
LINE
  5
2EB
330
181
100
AcDbEntity
  8
0
 62
     0
100
AcDbLine
 10
128.8124999999999
 20
30.9759198434567
 30
0.0
 11
128.8124999999999
 21
32.18530925448431
 31
0.0
  0
LINE
  5
2EC
330
181
100
AcDbEntity
  8
0
 62
     0
100
AcDbLine
 10
128.8124999999999
 20
50.28337397157022
 30
0.0
 11
128.8124999999999
 21
51.49276338259781
 31
0.0
  0
LINE
  5
2ED
330
181
100
AcDbEntity
  8
0
 62
     0
100
AcDbLine
 10
128.9999999999999
 20
31.07488521572351
 30
0.0
 11
128.9999999999999
 21
32.41993880614599
 31
0.0
  0
LINE
  5
2EE
330
181
100
AcDbEntity
  8
0
 62
     0
100
AcDbLine
 10
128.9999999999999
 20
50.04874441990855
 30
0.0
 11
128.9999999999999
 21
51.39379801033101
 31
0.0
  0
LINE
  5
2EF
330
181
100
AcDbEntity
  8
0
 62
     0
100
AcDbLine
 10
129.1874999999999
 20
31.19578269201418
 30
0.0
 11
129.1874999999999
 21
32.83972474257949
 31
0.0
  0
LINE
  5
2F0
330
181
100
AcDbEntity
  8
0
 62
     0
100
AcDbLine
 10
129.1874999999999
 20
49.6289584834751
 30
0.0
 11
129.1874999999999
 21
51.27290053404035
 31
0.0
  0
LINE
  5
2F1
330
181
100
AcDbEntity
  8
0
 62
     0
100
AcDbLine
 10
129.3749999999999
 20
31.34281299388666
 30
0.0
 11
129.3749999999999
 21
51.12587023216786
 31
0.0
  0
LINE
  5
2F2
330
181
100
AcDbEntity
  8
0
 62
     0
100
AcDbLine
 10
129.5624999999999
 20
31.52269735687652
 30
0.0
 11
129.5624999999999
 21
50.94598586917801
 31
0.0
  0
LINE
  5
2F3
330
181
100
AcDbEntity
  8
0
 62
     0
100
AcDbLine
 10
129.7499999999999
 20
31.74731131669846
 30
0.0
 11
129.7499999999999
 21
50.72137190935608
 31
0.0
  0
LINE
  5
2F4
330
181
100
AcDbEntity
  8
0
 62
     0
100
AcDbLine
 10
129.9374999999999
 20
32.0416641022199
 30
0.0
 11
129.9374999999999
 21
50.42701912383464
 31
0.0
  0
LINE
  5
2F5
330
181
100
AcDbEntity
  8
0
 62
     0
100
AcDbLine
 10
130.1249999999999
 20
32.48375005474038
 30
0.0
 11
130.1249999999999
 21
49.9849331713142
 31
0.0
  0
ENDBLK
  5
2F7
330
181
100
AcDbEntity
  8
0
100
AcDbBlockEnd
  0
BLOCK
  5
1A56E
330
1A56A
100
AcDbEntity
  8
0
 62
     0
 48
0.05
100
AcDbBlockBegin
  2
A$C22BC2DE1
 70
     0
 10
0.0
 20
0.0
 30
0.0
  3
A$C22BC2DE1
  1

  0
MTEXT
  5
1A56B
330
1A56A
100
AcDbEntity
  8
0
  6
CONTINUOUS
 62
     0
 48
0.05
100
AcDbMText
 10
2.828154531408813
 20
11.33492390679953
 30
0.0
 40
3.0
 41
2.2717
 71
     1
 72
     1
  1
{\Fromant.shx;1}
1001
ACAD
1000
MTEXTBEGIN
1070
    73
1070
     1
1070
    44
1040
1.0
1070
    74
1070
     0
1000
MTEXTEND
  0
LINE
  5
1A56C
330
1A56A
100
AcDbEntity
  8
0
  6
CONTINUOUS
 62
     0
 48
0.05
100
AcDbLine
 10
2.487234011132954
 20
6.951334560519342
 30
0.0
 11
0.4840394155070272
 21
-0.0000001327982204
 31
0.0
  0
CIRCLE
  5
1A56D
330
1A56A
100
AcDbEntity
  8
0
  6
CONTINUOUS
 62
     0
 48
0.05
100
AcDbCircle
 10
3.770720497646038
 20
9.96074349461935
 30
0.0
 40
3.77072027846998
  0
ENDBLK
  5
1A56F
330
1A56A
100
AcDbEntity
  8
0
 62
     0
 48
0.05
100
AcDbBlockEnd
  0
BLOCK
  5
1BB9F
330
1BB93
100
AcDbEntity
  8
0
 62
     0
 48
0.05
100
AcDbBlockBegin
  2
*D2
 70
     1
 10
0.0
 20
0.0
 30
0.0
  3
*D2
  1

  0
LINE
  5
1BEE3
330
1BB93
100
AcDbEntity
  8
0
 62
     0
 48
0.05
100
AcDbLine
 10
99.79023643570872
 20
87.79078084960929
 30
0.0
 11
99.79023643570872
 21
76.68603614127994
 31
0.0
  0
LINE
  5
1BEE4
330
1BB93
100
AcDbEntity
  8
0
 62
     0
 48
0.05
100
AcDbLine
 10
104.4902364357085
 20
87.79078084960906
 30
0.0
 11
104.4902364357085
 21
76.68603614127994
 31
0.0
  0
LINE
  5
1BEE5
330
1BB93
100
AcDbEntity
  8
0
 62
     0
 48
0.05
100
AcDbLine
 10
97.29023643570872
 20
77.68603614127994
 30
0.0
 11
94.79023643570872
 21
77.68603614127994
 31
0.0
  0
LINE
  5
1BEE6
330
1BB93
100
AcDbEntity
  8
0
 62
     0
 48
0.05
100
AcDbLine
 10
106.9902364357085
 20
77.68603614127994
 30
0.0
 11
117.639839896415
 21
77.68603614127994
 31
0.0
  0
LINE
  5
1BEE7
330
1BB93
100
AcDbEntity
  8
0
 62
     0
 48
0.05
100
AcDbLine
 10
99.79023643570872
 20
77.68603614127994
 30
0.0
 11
104.4902364357085
 21
77.68603614127994
 31
0.0
  0
SOLID
  5
1BEE8
330
1BB93
100
AcDbEntity
  8
0
 62
     0
 48
0.05
100
AcDbTrace
 10
97.29023643570872
 20
78.10270280794661
 30
0.0
 11
97.29023643570872
 21
77.26936947461327
 31
0.0
 12
99.79023643570872
 22
77.68603614127994
 32
0.0
 13
99.79023643570872
 23
77.68603614127994
 33
0.0
  0
SOLID
  5
1BEE9
330
1BB93
100
AcDbEntity
  8
0
 62
     0
 48
0.05
100
AcDbTrace
 10
106.9902364357085
 20
78.10270280794661
 30
0.0
 11
106.9902364357085
 21
77.26936947461327
 31
0.0
 12
104.4902364357085
 22
77.68603614127994
 32
0.0
 13
104.4902364357085
 23
77.68603614127994
 33
0.0
  0
MTEXT
  5
1BEEA
330
1BB93
100
AcDbEntity
  8
0
 62
     0
 48
0.05
100
AcDbMText
 10
113.5650381660618
 20
80.86628127466134
 30
0.0
 40
3.5
 41
0.0
 71
     5
 72
     1
  1
4,7
1001
ACAD
1000
MTEXTBEGIN
1070
    73
1070
     1
1070
    44
1040
1.0
1070
    74
1070
     0
1000
MTEXTEND
  0
POINT
  5
1BEEB
330
1BB93
100
AcDbEntity
  8
DEFPOINTS
 62
     0
 48
0.05
100
AcDbPoint
 10
99.79023643570872
 20
88.79078084960928
 30
0.0
  0
POINT
  5
1BEEC
330
1BB93
100
AcDbEntity
  8
DEFPOINTS
 62
     0
 48
0.05
100
AcDbPoint
 10
104.4902364357085
 20
88.79078084960907
 30
0.0
  0
POINT
  5
1BEED
330
1BB93
100
AcDbEntity
  8
DEFPOINTS
 62
     0
 48
0.05
100
AcDbPoint
 10
104.4902364357085
 20
77.68603614127994
 30
0.0
  0
ENDBLK
  5
1BBA0
330
1BB93
100
AcDbEntity
  8
0
 62
     0
 48
0.05
100
AcDbBlockEnd
  0
BLOCK
  5
1BBAB
330
1BBA1
100
AcDbEntity
  8
0
 62
     0
 48
0.05
100
AcDbBlockBegin
  2
*D3
 70
     1
 10
0.0
 20
0.0
 30
0.0
  3
*D3
  1

  0
LINE
  5
1BF55
330
1BBA1
100
AcDbEntity
  8
0
 62
     0
 48
0.05
100
AcDbLine
 10
103.1402364357086
 20
86.44078084960927
 30
0.0
 11
166.5526442556574
 21
86.44078084960925
 31
0.0
  0
LINE
  5
1BF56
330
1BBA1
100
AcDbEntity
  8
0
 62
     0
 48
0.05
100
AcDbLine
 10
104.1402364357118
 20
115.4408825238376
 30
0.0
 11
166.5526442556574
 21
115.4408825238376
 31
0.0
  0
LINE
  5
1BF57
330
1BBA1
100
AcDbEntity
  8
0
 62
     0
 48
0.05
100
AcDbLine
 10
165.5526442556574
 20
88.94078084960925
 30
0.0
 11
165.5526442556574
 21
112.9408825238376
 31
0.0
  0
SOLID
  5
1BF58
330
1BBA1
100
AcDbEntity
  8
0
 62
     0
 48
0.05
100
AcDbTrace
 10
165.1359775889908
 20
88.94078084960925
 30
0.0
 11
165.9693109223241
 21
88.94078084960925
 31
0.0
 12
165.5526442556574
 22
86.44078084960925
 32
0.0
 13
165.5526442556574
 23
86.44078084960925
 33
0.0
  0
SOLID
  5
1BF59
330
1BBA1
100
AcDbEntity
  8
0
 62
     0
 48
0.05
100
AcDbTrace
 10
165.1359775889908
 20
112.9408825238376
 30
0.0
 11
165.9693109223241
 21
112.9408825238376
 31
0.0
 12
165.5526442556574
 22
115.4408825238376
 32
0.0
 13
165.5526442556574
 23
115.4408825238376
 33
0.0
  0
MTEXT
  5
1BF5A
330
1BBA1
100
AcDbEntity
  8
0
 62
     0
 48
0.05
100
AcDbMText
 10
162.7673162095146
 20
100.9408316867234
 30
0.0
 40
3.5
 41
0.0
 71
     5
 72
     1
  1
29
 11
0.0000000000000001
 21
1.0
 31
0.0
1001
ACAD
1000
MTEXTBEGIN
1070
    73
1070
     1
1070
    44
1040
1.0
1070
    74
1070
     0
1000
MTEXTEND
  0
POINT
  5
1BF5B
330
1BBA1
100
AcDbEntity
  8
DEFPOINTS
 62
     0
 48
0.05
100
AcDbPoint
 10
102.1402364357086
 20
86.44078084960927
 30
0.0
  0
POINT
  5
1BF5C
330
1BBA1
100
AcDbEntity
  8
DEFPOINTS
 62
     0
 48
0.05
100
AcDbPoint
 10
103.1402364357118
 20
115.4408825238376
 30
0.0
  0
POINT
  5
1BF5D
330
1BBA1
100
AcDbEntity
  8
DEFPOINTS
 62
     0
 48
0.05
100
AcDbPoint
 10
165.5526442556574
 20
115.4408825238376
 30
0.0
  0
ENDBLK
  5
1BBAC
330
1BBA1
100
AcDbEntity
  8
0
 62
     0
 48
0.05
100
AcDbBlockEnd
  0
BLOCK
  5
1BBB7
330
1BBAD
100
AcDbEntity
  8
0
 62
     0
 48
0.05
100
AcDbBlockBegin
  2
*D4
 70
     1
 10
0.0
 20
0.0
 30
0.0
  3
*D4
  1

  0
LINE
  5
1BF5E
330
1BBAD
100
AcDbEntity
  8
0
 62
     0
 48
0.05
100
AcDbLine
 10
107.9902364357121
 20
136.9107808496092
 30
0.0
 11
166.5526442556574
 21
136.9107808496092
 31
0.0
  0
LINE
  5
1BF5F
330
1BBAD
100
AcDbEntity
  8
0
 62
     0
 48
0.05
100
AcDbLine
 10
103.2902364357114
 20
115.4408825238376
 30
0.0
 11
166.5526442556574
 21
115.4408825238376
 31
0.0
  0
LINE
  5
1BF60
330
1BBAD
100
AcDbEntity
  8
0
 62
     0
 48
0.05
100
AcDbLine
 10
165.5526442556574
 20
134.4107808496092
 30
0.0
 11
165.5526442556574
 21
117.9408825238376
 31
0.0
  0
SOLID
  5
1BF61
330
1BBAD
100
AcDbEntity
  8
0
 62
     0
 48
0.05
100
AcDbTrace
 10
165.1359775889908
 20
134.4107808496092
 30
0.0
 11
165.9693109223241
 21
134.4107808496092
 31
0.0
 12
165.5526442556574
 22
136.9107808496092
 32
0.0
 13
165.5526442556574
 23
136.9107808496092
 33
0.0
  0
SOLID
  5
1BF62
330
1BBAD
100
AcDbEntity
  8
0
 62
     0
 48
0.05
100
AcDbTrace
 10
165.1359775889908
 20
117.9408825238376
 30
0.0
 11
165.9693109223241
 21
117.9408825238376
 31
0.0
 12
165.5526442556574
 22
115.4408825238376
 32
0.0
 13
165.5526442556574
 23
115.4408825238376
 33
0.0
  0
MTEXT
  5
1BF63
330
1BBAD
100
AcDbEntity
  8
0
 62
     0
 48
0.05
100
AcDbMText
 10
162.372399122276
 20
126.1758316867234
 30
0.0
 40
3.5
 41
0.0
 71
     5
 72
     1
  1
21,5
 11
0.0000000000000001
 21
1.0
 31
0.0
1001
ACAD
1000
MTEXTBEGIN
1070
    73
1070
     1
1070
    44
1040
1.0
1070
    74
1070
     0
1000
MTEXTEND
  0
POINT
  5
1BF64
330
1BBAD
100
AcDbEntity
  8
DEFPOINTS
 62
     0
 48
0.05
100
AcDbPoint
 10
106.9902364357121
 20
136.9107808496092
 30
0.0
  0
POINT
  5
1BF65
330
1BBAD
100
AcDbEntity
  8
DEFPOINTS
 62
     0
 48
0.05
100
AcDbPoint
 10
102.2902364357114
 20
115.4408825238376
 30
0.0
  0
POINT
  5
1BF66
330
1BBAD
100
AcDbEntity
  8
DEFPOINTS
 62
     0
 48
0.05
100
AcDbPoint
 10
165.5526442556574
 20
115.4408825238376
 30
0.0
  0
ENDBLK
  5
1BBB8
330
1BBAD
100
AcDbEntity
  8
0
 62
     0
 48
0.05
100
AcDbBlockEnd
  0
BLOCK
  5
1BBC3
330
1BBB9
100
AcDbEntity
  8
0
 62
     0
 48
0.05
100
AcDbBlockBegin
  2
*D5
 70
     1
 10
0.0
 20
0.0
 30
0.0
  3
*D5
  1

  0
LINE
  5
1BF4C
330
1BBB9
100
AcDbEntity
  8
0
 62
     0
 48
0.05
100
AcDbLine
 10
97.29256503609395
 20
153.7969146916011
 30
0.0
 11
97.29256503609395
 21
192.9627361005361
 31
0.0
  0
LINE
  5
1BF4D
330
1BBB9
100
AcDbEntity
  8
0
 62
     0
 48
0.05
100
AcDbLine
 10
108.990236435713
 20
140.1257808496091
 30
0.0
 11
108.990236435713
 21
192.9627361005361
 31
0.0
  0
LINE
  5
1BF4E
330
1BBB9
100
AcDbEntity
  8
0
 62
     0
 48
0.05
100
AcDbLine
 10
99.79256503609395
 20
191.9627361005361
 30
0.0
 11
106.490236435713
 21
191.9627361005361
 31
0.0
  0
SOLID
  5
1BF4F
330
1BBB9
100
AcDbEntity
  8
0
 62
     0
 48
0.05
100
AcDbTrace
 10
99.79256503609395
 20
192.3794027672028
 30
0.0
 11
99.79256503609395
 21
191.5460694338695
 31
0.0
 12
97.29256503609395
 22
191.9627361005361
 32
0.0
 13
97.29256503609395
 23
191.9627361005361
 33
0.0
  0
SOLID
  5
1BF50
330
1BBB9
100
AcDbEntity
  8
0
 62
     0
 48
0.05
100
AcDbTrace
 10
106.490236435713
 20
192.3794027672028
 30
0.0
 11
106.490236435713
 21
191.5460694338695
 31
0.0
 12
108.990236435713
 22
191.9627361005361
 32
0.0
 13
108.990236435713
 23
191.9627361005361
 33
0.0
  0
MTEXT
  5
1BF51
330
1BBB9
100
AcDbEntity
  8
0
 62
     0
 48
0.05
100
AcDbMText
 10
103.1414007359035
 20
195.1429812339175
 30
0.0
 40
3.5
 41
0.0
 71
     5
 72
     1
  1
11,7
1001
ACAD
1000
MTEXTBEGIN
1070
    73
1070
     1
1070
    44
1040
1.0
1070
    74
1070
     0
1000
MTEXTEND
  0
POINT
  5
1BF52
330
1BBB9
100
AcDbEntity
  8
DEFPOINTS
 62
     0
 48
0.05
100
AcDbPoint
 10
97.29256503609395
 20
152.7969146916011
 30
0.0
  0
POINT
  5
1BF53
330
1BBB9
100
AcDbEntity
  8
DEFPOINTS
 62
     0
 48
0.05
100
AcDbPoint
 10
108.990236435713
 20
139.1257808496091
 30
0.0
  0
POINT
  5
1BF54
330
1BBB9
100
AcDbEntity
  8
DEFPOINTS
 62
     0
 48
0.05
100
AcDbPoint
 10
108.990236435713
 20
191.9627361005361
 30
0.0
  0
ENDBLK
  5
1BBC4
330
1BBB9
100
AcDbEntity
  8
0
 62
     0
 48
0.05
100
AcDbBlockEnd
  0
BLOCK
  5
1BBD1
330
1BBC5
100
AcDbEntity
  8
0
 62
     0
 48
0.05
100
AcDbBlockBegin
  2
*D6
 70
     1
 10
0.0
 20
0.0
 30
0.0
  3
*D6
  1

  0
LINE
  5
1BF8C
330
1BBC5
100
AcDbEntity
  8
0
 62
     0
 48
0.05
100
AcDbLine
 10
97.84232830103839
 20
158.3019806095697
 30
0.0
 11
97.84232830103839
 21
180.0300838440229
 31
0.0
  0
LINE
  5
1BF8D
330
1BBC5
100
AcDbEntity
  8
0
 62
     0
 48
0.05
100
AcDbLine
 10
98.84214395046365
 20
155.5884329444134
 30
0.0
 11
98.84214395046365
 21
180.0300838440229
 31
0.0
  0
LINE
  5
1BF8E
330
1BBC5
100
AcDbEntity
  8
0
 62
     0
 48
0.05
100
AcDbLine
 10
95.34232830103837
 20
179.0300838440229
 30
0.0
 11
92.84232830103837
 21
179.0300838440229
 31
0.0
  0
LINE
  5
1BF8F
330
1BBC5
100
AcDbEntity
  8
0
 62
     0
 48
0.05
100
AcDbLine
 10
101.3421439504636
 20
179.0300838440229
 30
0.0
 11
107.1896565676229
 21
179.0300838440229
 31
0.0
  0
LINE
  5
1BF90
330
1BBC5
100
AcDbEntity
  8
0
 62
     0
 48
0.05
100
AcDbLine
 10
97.84232830103839
 20
179.0300838440229
 30
0.0
 11
98.84214395046365
 21
179.0300838440229
 31
0.0
  0
SOLID
  5
1BF91
330
1BBC5
100
AcDbEntity
  8
0
 62
     0
 48
0.05
100
AcDbTrace
 10
95.34232830103837
 20
179.4467505106895
 30
0.0
 11
95.34232830103837
 21
178.6134171773562
 31
0.0
 12
97.84232830103839
 22
179.0300838440229
 32
0.0
 13
97.84232830103839
 23
179.0300838440229
 33
0.0
  0
SOLID
  5
1BF92
330
1BBC5
100
AcDbEntity
  8
0
 62
     0
 48
0.05
100
AcDbTrace
 10
101.3421439504636
 20
179.4467505106895
 30
0.0
 11
101.3421439504636
 21
178.6134171773562
 31
0.0
 12
98.84214395046365
 22
179.0300838440229
 32
0.0
 13
98.84214395046365
 23
179.0300838440229
 33
0.0
  0
MTEXT
  5
1BF93
330
1BBC5
100
AcDbEntity
  8
0
 62
     0
 48
0.05
100
AcDbMText
 10
105.5159002590433
 20
181.7800838440229
 30
0.0
 40
3.5
 41
0.0
 71
     5
 72
     1
  1
1
1001
ACAD
1000
MTEXTBEGIN
1070
    73
1070
     1
1070
    44
1040
1.0
1070
    74
1070
     0
1000
MTEXTEND
  0
POINT
  5
1BF94
330
1BBC5
100
AcDbEntity
  8
DEFPOINTS
 62
     0
 48
0.05
100
AcDbPoint
 10
97.84232830103839
 20
157.3019806095697
 30
0.0
  0
POINT
  5
1BF95
330
1BBC5
100
AcDbEntity
  8
DEFPOINTS
 62
     0
 48
0.05
100
AcDbPoint
 10
98.84214395046365
 20
154.5884329444134
 30
0.0
  0
POINT
  5
1BF96
330
1BBC5
100
AcDbEntity
  8
DEFPOINTS
 62
     0
 48
0.05
100
AcDbPoint
 10
98.84214395046365
 20
179.0300838440229
 30
0.0
  0
ENDBLK
  5
1BBD2
330
1BBC5
100
AcDbEntity
  8
0
 62
     0
 48
0.05
100
AcDbBlockEnd
  0
BLOCK
  5
1BBDA
330
1BBD3
100
AcDbEntity
  8
0
 62
     0
 48
0.05
100
AcDbBlockBegin
  2
*D7
 70
     1
 10
0.0
 20
0.0
 30
0.0
  3
*D7
  1

  0
LINE
  5
1BF1A
330
1BBD3
100
AcDbEntity
  8
0
 62
     0
 48
0.05
100
AcDbLine
 10
120.8634273396415
 20
125.7850777053845
 30
0.0
 11
110.6765687860195
 21
135.3565289531758
 31
0.0
  0
MTEXT
  5
1BF1B
330
1BBD3
100
AcDbEntity
  8
0
 62
     0
 48
0.05
100
AcDbMText
 10
118.8586447409142
 20
132.0325559781089
 30
0.0
 40
3.5
 41
0.0
 71
     5
 72
     1
  1
R0,5
 11
0.7287774501030918
 21
-0.6847506321437283
 31
0.0
1001
ACAD
1000
MTEXTBEGIN
1070
    73
1070
     1
1070
    44
1040
1.0
1070
    74
1070
     0
1000
MTEXTEND
  0
LINE
  5
1BF1C
330
1BBD3
100
AcDbEntity
  8
0
 62
     0
 48
0.05
100
AcDbLine
 10
108.4902364357103
 20
137.4107808496069
 30
0.0
 11
108.8546251607617
 21
137.0684055335351
 31
0.0
  0
SOLID
  5
1BF1D
330
1BBD3
100
AcDbEntity
  8
0
 62
     0
 48
0.05
100
AcDbTrace
 10
110.9618815494127
 20
135.660186224052
 30
0.0
 11
110.3912560226263
 21
135.0528716822995
 31
0.0
 12
108.8546251607617
 22
137.0684055335351
 32
0.0
 13
108.8546251607617
 23
137.0684055335351
 33
0.0
  0
POINT
  5
1BF1E
330
1BBD3
100
AcDbEntity
  8
DEFPOINTS
 62
     0
 48
0.05
100
AcDbPoint
 10
108.8546251607617
 20
137.0684055335351
 30
0.0
  0
POINT
  5
1BF1F
330
1BBD3
100
AcDbEntity
  8
DEFPOINTS
 62
     0
 48
0.05
100
AcDbPoint
 10
108.4902364357103
 20
137.4107808496069
 30
0.0
  0
ENDBLK
  5
1BBDB
330
1BBD3
100
AcDbEntity
  8
0
 62
     0
 48
0.05
100
AcDbBlockEnd
  0
BLOCK
  5
1BBE6
330
1BBDC
100
AcDbEntity
  8
0
 62
     0
 48
0.05
100
AcDbBlockBegin
  2
*D8
 70
     1
 10
0.0
 20
0.0
 30
0.0
  3
*D8
  1

  0
LINE
  5
1BE59
330
1BBDC
100
AcDbEntity
  8
0
 62
     0
 48
0.05
100
AcDbLine
 10
101.1402364357086
 20
86.44078084960927
 30
0.0
 11
64.2867193439083
 21
86.44078084960929
 31
0.0
  0
LINE
  5
1BE5A
330
1BBDC
100
AcDbEntity
  8
0
 62
     0
 48
0.05
100
AcDbLine
 10
97.34539298268828
 20
159.4314148790278
 30
0.0
 11
64.28671934390831
 21
159.4314148790278
 31
0.0
  0
LINE
  5
1BE5B
330
1BBDC
100
AcDbEntity
  8
0
 62
     0
 48
0.05
100
AcDbLine
 10
65.2867193439083
 20
88.94078084960929
 30
0.0
 11
65.28671934390832
 21
156.9314148790279
 31
0.0
  0
SOLID
  5
1BE5C
330
1BBDC
100
AcDbEntity
  8
0
 62
     0
 48
0.05
100
AcDbTrace
 10
64.87005267724163
 20
88.94078084960929
 30
0.0
 11
65.70338601057497
 21
88.94078084960929
 31
0.0
 12
65.2867193439083
 22
86.44078084960929
 32
0.0
 13
65.2867193439083
 23
86.44078084960929
 33
0.0
  0
SOLID
  5
1BE5D
330
1BBDC
100
AcDbEntity
  8
0
 62
     0
 48
0.05
100
AcDbTrace
 10
64.87005267724164
 20
156.9314148790279
 30
0.0
 11
65.70338601057499
 21
156.9314148790279
 31
0.0
 12
65.28671934390832
 22
159.4314148790278
 32
0.0
 13
65.28671934390832
 23
159.4314148790278
 33
0.0
  0
MTEXT
  5
1BE5E
330
1BBDC
100
AcDbEntity
  8
0
 62
     0
 48
0.05
100
AcDbMText
 10
62.50139129776554
 20
122.9360978643186
 30
0.0
 40
3.5
 41
0.0
 71
     5
 72
     1
  1
73
 11
0.0000000000000001
 21
1.0
 31
0.0
1001
ACAD
1000
MTEXTBEGIN
1070
    73
1070
     1
1070
    44
1040
1.0
1070
    74
1070
     0
1000
MTEXTEND
  0
POINT
  5
1BE5F
330
1BBDC
100
AcDbEntity
  8
DEFPOINTS
 62
     0
 48
0.05
100
AcDbPoint
 10
102.1402364357086
 20
86.44078084960927
 30
0.0
  0
POINT
  5
1BE60
330
1BBDC
100
AcDbEntity
  8
DEFPOINTS
 62
     0
 48
0.05
100
AcDbPoint
 10
98.34539298268829
 20
159.4314148790278
 30
0.0
  0
POINT
  5
1BE61
330
1BBDC
100
AcDbEntity
  8
DEFPOINTS
 62
     0
 48
0.05
100
AcDbPoint
 10
65.28671934390832
 20
159.4314148790278
 30
0.0
  0
ENDBLK
  5
1BBE7
330
1BBDC
100
AcDbEntity
  8
0
 62
     0
 48
0.05
100
AcDbBlockEnd
  0
BLOCK
  5
1BBF2
330
1BBE8
100
AcDbEntity
  8
0
 62
     0
 48
0.05
100
AcDbBlockBegin
  2
*D9
 70
     1
 10
0.0
 20
0.0
 30
0.0
  3
*D9
  1

  0
LINE
  5
1BF67
330
1BBE8
100
AcDbEntity
  8
0
 62
     0
 48
0.05
100
AcDbLine
 10
102.2902364357132
 20
125.4407808496098
 30
0.0
 11
154.1668777545412
 21
125.4407808496098
 31
0.0
  0
LINE
  5
1BF68
330
1BBE8
100
AcDbEntity
  8
0
 62
     0
 48
0.05
100
AcDbLine
 10
109.4902364357121
 20
136.9107808496093
 30
0.0
 11
154.1668777545412
 21
136.9107808496093
 31
0.0
  0
LINE
  5
1BF69
330
1BBE8
100
AcDbEntity
  8
0
 62
     0
 48
0.05
100
AcDbLine
 10
153.1668777545412
 20
127.9407808496098
 30
0.0
 11
153.1668777545412
 21
134.4107808496092
 31
0.0
  0
SOLID
  5
1BF6A
330
1BBE8
100
AcDbEntity
  8
0
 62
     0
 48
0.05
100
AcDbTrace
 10
152.7502110878745
 20
127.9407808496098
 30
0.0
 11
153.5835444212079
 21
127.9407808496098
 31
0.0
 12
153.1668777545412
 22
125.4407808496098
 32
0.0
 13
153.1668777545412
 23
125.4407808496098
 33
0.0
  0
SOLID
  5
1BF6B
330
1BBE8
100
AcDbEntity
  8
0
 62
     0
 48
0.05
100
AcDbTrace
 10
152.7502110878745
 20
134.4107808496092
 30
0.0
 11
153.5835444212079
 21
134.4107808496092
 31
0.0
 12
153.1668777545412
 22
136.9107808496093
 32
0.0
 13
153.1668777545412
 23
136.9107808496093
 33
0.0
  0
MTEXT
  5
1BF6C
330
1BBE8
100
AcDbEntity
  8
0
 62
     0
 48
0.05
100
AcDbMText
 10
149.9866326211598
 20
131.1757808496095
 30
0.0
 40
3.5
 41
0.0
 71
     5
 72
     1
  1
11,5
 11
0.0000000000000001
 21
1.0
 31
0.0
1001
ACAD
1000
MTEXTBEGIN
1070
    73
1070
     1
1070
    44
1040
1.0
1070
    74
1070
     0
1000
MTEXTEND
  0
POINT
  5
1BF6D
330
1BBE8
100
AcDbEntity
  8
DEFPOINTS
 62
     0
 48
0.05
100
AcDbPoint
 10
101.2902364357132
 20
125.4407808496098
 30
0.0
  0
POINT
  5
1BF6E
330
1BBE8
100
AcDbEntity
  8
DEFPOINTS
 62
     0
 48
0.05
100
AcDbPoint
 10
108.4902364357121
 20
136.9107808496093
 30
0.0
  0
POINT
  5
1BF6F
330
1BBE8
100
AcDbEntity
  8
DEFPOINTS
 62
     0
 48
0.05
100
AcDbPoint
 10
153.1668777545412
 20
136.9107808496093
 30
0.0
  0
ENDBLK
  5
1BBF3
330
1BBE8
100
AcDbEntity
  8
0
 62
     0
 48
0.05
100
AcDbBlockEnd
  0
BLOCK
  5
1BC0E
330
1BC02
100
AcDbEntity
  8
0
 62
     0
 48
0.05
100
AcDbBlockBegin
  2
*D10
 70
     1
 10
0.0
 20
0.0
 30
0.0
  3
*D10
  1

  0
LINE
  5
1BD09
330
1BC02
100
AcDbEntity
  8
0
 62
     0
 48
0.05
100
AcDbLine
 10
97.57232114916565
 20
148.7113848708798
 30
0.0
 11
86.09147705334263
 21
163.2364739792504
 31
0.0
  0
LINE
  5
1BD0A
330
1BC02
100
AcDbEntity
  8
0
 62
     0
 48
0.05
100
AcDbLine
 10
99.79023643571419
 20
140.440780849609
 30
0.0
 11
99.79023643571416
 21
123.8141237835819
 31
0.0
  0
ARC
  5
1BD0B
330
1BC02
100
AcDbEntity
  8
0
 62
     0
 48
0.05
100
AcDbCircle
 10
99.79023643571421
 20
145.9053701821466
 30
0.0
 40
21.09124639856472
100
AcDbArc
 50
135.1187620283903
 51
263.2046009277422
  0
SOLID
  5
1BD0C
330
1BC02
100
AcDbEntity
  8
0
 62
     0
 48
0.05
100
AcDbTrace
 10
84.56829840901873
 20
161.0991857700192
 30
0.0
 11
85.12288572671979
 21
160.4771911145039
 31
0.0
 12
86.71157603441514
 22
162.4519503953647
 32
0.0
 13
86.71157603441514
 23
162.4519503953647
 33
0.0
  0
SOLID
  5
1BD0D
330
1BC02
100
AcDbEntity
  8
0
 62
     0
 48
0.05
100
AcDbTrace
 10
97.31932520391129
 20
125.3782237708727
 30
0.0
 11
97.26993662596846
 21
124.5463552639479
 31
0.0
 12
99.79023643571416
 22
124.8141237835819
 32
0.0
 13
99.79023643571416
 23
124.8141237835819
 33
0.0
  0
MTEXT
  5
1BD0E
330
1BC02
100
AcDbEntity
  8
0
 62
     0
 48
0.05
100
AcDbMText
 10
82.46516662035848
 20
139.8851313707776
 30
0.0
 40
3.5
 41
0.0
 71
     5
 72
     1
  1
142
 11
0.3282349890812284
 21
-0.9445960998981767
 31
0.0
1001
ACAD
1000
MTEXTBEGIN
1070
    73
1070
     1
1070
    44
1040
1.0
1070
    74
1070
     0
1000
MTEXTEND
  0
POINT
  5
1BD0F
330
1BC02
100
AcDbEntity
  8
DEFPOINTS
 62
     0
 48
0.05
100
AcDbPoint
 10
78.76260240651231
 20
147.5422213601467
 30
0.0
  0
POINT
  5
1BD10
330
1BC02
100
AcDbEntity
  8
DEFPOINTS
 62
     0
 48
0.05
100
AcDbPoint
 10
98.19242013023814
 20
147.9268612869941
 30
0.0
  0
POINT
  5
1BD11
330
1BC02
100
AcDbEntity
  8
DEFPOINTS
 62
     0
 48
0.05
100
AcDbPoint
 10
99.79023643571418
 20
145.1999298283199
 30
0.0
  0
POINT
  5
1BD12
330
1BC02
100
AcDbEntity
  8
DEFPOINTS
 62
     0
 48
0.05
100
AcDbPoint
 10
99.79023643571418
 20
141.440780849609
 30
0.0
  0
POINT
  5
1BD13
330
1BC02
100
AcDbEntity
  8
DEFPOINTS
 62
     0
 48
0.05
100
AcDbPoint
 10
99.36115928727668
 20
146.4482208439449
 30
0.0
  0
ENDBLK
  5
1BC0F
330
1BC02
100
AcDbEntity
  8
0
 62
     0
 48
0.05
100
AcDbBlockEnd
  0
BLOCK
  5
1BC17
330
1BC10
100
AcDbEntity
  8
0
 62
     0
 48
0.05
100
AcDbBlockBegin
  2
*D11
 70
     1
 10
0.0
 20
0.0
 30
0.0
  3
*D11
  1

  0
LINE
  5
1BEF3
330
1BC10
100
AcDbEntity
  8
0
 62
     0
 48
0.05
100
AcDbLine
 10
89.17006160953764
 20
104.5868530029622
 30
0.0
 11
100.0217331325208
 21
113.9777491194525
 31
0.0
  0
MTEXT
  5
1BEF4
330
1BC10
100
AcDbEntity
  8
0
 62
     0
 48
0.05
100
AcDbMText
 10
91.42863042632635
 20
110.7471293714503
 30
0.0
 40
3.5
 41
0.0
 71
     5
 72
     1
  1
R0,5
 11
0.7561677677303065
 21
0.6543778014616369
 31
0.0
1001
ACAD
1000
MTEXTBEGIN
1070
    73
1070
     1
1070
    44
1040
1.0
1070
    74
1070
     0
1000
MTEXTEND
  0
LINE
  5
1BEF5
330
1BC10
100
AcDbEntity
  8
0
 62
     0
 48
0.05
100
AcDbLine
 10
102.290236435712
 20
115.9408825238376
 30
0.0
 11
101.9121525518466
 21
115.6136936231066
 31
0.0
  0
SOLID
  5
1BEF6
330
1BC10
100
AcDbEntity
  8
0
 62
     0
 48
0.05
100
AcDbTrace
 10
99.7490757152452
 20
114.2928190226734
 30
0.0
 11
100.2943905497965
 21
113.6626792162315
 31
0.0
 12
101.9121525518466
 22
115.6136936231066
 32
0.0
 13
101.9121525518466
 23
115.6136936231066
 33
0.0
  0
POINT
  5
1BEF7
330
1BC10
100
AcDbEntity
  8
DEFPOINTS
 62
     0
 48
0.05
100
AcDbPoint
 10
101.9121525518466
 20
115.6136936231066
 30
0.0
  0
POINT
  5
1BEF8
330
1BC10
100
AcDbEntity
  8
DEFPOINTS
 62
     0
 48
0.05
100
AcDbPoint
 10
102.290236435712
 20
115.9408825238376
 30
0.0
  0
ENDBLK
  5
1BC18
330
1BC10
100
AcDbEntity
  8
0
 62
     0
 48
0.05
100
AcDbBlockEnd
  0
BLOCK
  5
1BC1F
330
1BC19
100
AcDbEntity
  8
0
 62
     0
 48
0.05
100
AcDbBlockBegin
  2
*D12
 70
     1
 10
0.0
 20
0.0
 30
0.0
  3
*D12
  1

  0
LINE
  5
1BEEE
330
1BC19
100
AcDbEntity
  8
0
 62
     0
 48
0.05
100
AcDbLine
 10
94.51649867012571
 20
97.77462457258126
 30
0.0
 11
103.0238707018932
 21
113.1898436126481
 31
0.0
  0
MTEXT
  5
1BEEF
330
1BC19
100
AcDbEntity
  8
0
 62
     0
 48
0.05
100
AcDbMText
 10
94.50512109403318
 20
104.3358751078897
 30
0.0
 40
3.5
 41
0.0
 71
     5
 72
     1
  1
R0,5
 11
0.4831828669084383
 21
0.8755194555954439
 31
0.0
1001
ACAD
1000
MTEXTBEGIN
1070
    73
1070
     1
1070
    44
1040
1.0
1070
    74
1070
     0
1000
MTEXTEND
  0
SOLID
  5
1BEF0
330
1BC19
100
AcDbEntity
  8
0
 62
     0
 48
0.05
100
AcDbTrace
 10
102.6590709287285
 20
113.3911698071933
 30
0.0
 11
103.388670475058
 21
112.9885174181029
 31
0.0
 12
104.2318278691643
 22
115.3786422516367
 32
0.0
 13
104.2318278691643
 23
115.3786422516367
 33
0.0
  0
POINT
  5
1BEF1
330
1BC19
100
AcDbEntity
  8
DEFPOINTS
 62
     0
 48
0.05
100
AcDbPoint
 10
104.2318278691643
 20
115.3786422516367
 30
0.0
  0
POINT
  5
1BEF2
330
1BC19
100
AcDbEntity
  8
DEFPOINTS
 62
     0
 48
0.05
100
AcDbPoint
 10
103.9902364357099
 20
114.9408825238385
 30
0.0
  0
ENDBLK
  5
1BC20
330
1BC19
100
AcDbEntity
  8
0
 62
     0
 48
0.05
100
AcDbBlockEnd
  0
BLOCK
  5
1BC2D
330
1BC21
100
AcDbEntity
  8
0
 62
     0
 48
0.05
100
AcDbBlockBegin
  2
*D13
 70
     1
 10
0.0
 20
0.0
 30
0.0
  3
*D13
  1

  0
LINE
  5
1BD1F
330
1BC21
100
AcDbEntity
  8
0
 62
     0
 48
0.05
100
AcDbLine
 10
101.2902364357132
 20
124.4407808496098
 30
0.0
 11
101.2902364357132
 21
118.7748345918936
 31
0.0
  0
LINE
  5
1BD20
330
1BC21
100
AcDbEntity
  8
0
 62
     0
 48
0.05
100
AcDbLine
 10
101.8263933458918
 20
122.0964599034168
 30
0.0
 11
101.8263933458918
 21
118.7748345918936
 31
0.0
  0
LINE
  5
1BD21
330
1BC21
100
AcDbEntity
  8
0
 62
     0
 48
0.05
100
AcDbLine
 10
98.79023643571327
 20
119.7748345918936
 30
0.0
 11
96.29023643571327
 21
119.7748345918936
 31
0.0
  0
LINE
  5
1BD22
330
1BC21
100
AcDbEntity
  8
0
 62
     0
 48
0.05
100
AcDbLine
 10
104.3263933458917
 20
119.7748345918936
 30
0.0
 11
127.4641645427921
 21
119.7748345918936
 31
0.0
  0
LINE
  5
1BD23
330
1BC21
100
AcDbEntity
  8
0
 62
     0
 48
0.05
100
AcDbLine
 10
101.2902364357132
 20
119.7748345918936
 30
0.0
 11
101.8263933458918
 21
119.7748345918936
 31
0.0
  0
SOLID
  5
1BD24
330
1BC21
100
AcDbEntity
  8
0
 62
     0
 48
0.05
100
AcDbTrace
 10
98.79023643571327
 20
120.1915012585603
 30
0.0
 11
98.79023643571327
 21
119.3581679252269
 31
0.0
 12
101.2902364357132
 22
119.7748345918936
 32
0.0
 13
101.2902364357132
 23
119.7748345918936
 33
0.0
  0
SOLID
  5
1BD25
330
1BC21
100
AcDbEntity
  8
0
 62
     0
 48
0.05
100
AcDbTrace
 10
104.3263933458917
 20
120.1915012585603
 30
0.0
 11
104.3263933458917
 21
119.3581679252269
 31
0.0
 12
101.8263933458918
 22
119.7748345918936
 32
0.0
 13
101.8263933458918
 23
119.7748345918936
 33
0.0
  0
MTEXT
  5
1BD26
330
1BC21
100
AcDbEntity
  8
0
 62
     0
 48
0.05
100
AcDbMText
 10
117.1452789443419
 20
122.955079725275
 30
0.0
 40
3.5
 41
0.0
 71
     5
 72
     1
  1
0,5 x 45{\FTAHOMA.TTF;}
1001
ACAD
1000
MTEXTBEGIN
1070
    73
1070
     1
1070
    44
1040
1.0
1070
    74
1070
     0
1000
MTEXTEND
  0
POINT
  5
1BD27
330
1BC21
100
AcDbEntity
  8
DEFPOINTS
 62
     0
 48
0.05
100
AcDbPoint
 10
101.2902364357132
 20
125.4407808496098
 30
0.0
  0
POINT
  5
1BD28
330
1BC21
100
AcDbEntity
  8
DEFPOINTS
 62
     0
 48
0.05
100
AcDbPoint
 10
101.8263933458918
 20
123.0964599034168
 30
0.0
  0
POINT
  5
1BD29
330
1BC21
100
AcDbEntity
  8
DEFPOINTS
 62
     0
 48
0.05
100
AcDbPoint
 10
101.8263933458918
 20
119.7748345918936
 30
0.0
  0
ENDBLK
  5
1BC2E
330
1BC21
100
AcDbEntity
  8
0
 62
     0
 48
0.05
100
AcDbBlockEnd
  0
BLOCK
  5
1BC3B
330
1BC2F
100
AcDbEntity
  8
0
 62
     0
 48
0.05
100
AcDbBlockBegin
  2
*D14
 70
     1
 10
0.0
 20
0.0
 30
0.0
  3
*D14
  1

  0
LINE
  5
1BEF9
330
1BC2F
100
AcDbEntity
  8
0
 62
     0
 48
0.05
100
AcDbLine
 10
101.7902364357119
 20
119.4408316867239
 30
0.0
 11
101.7902364357119
 21
116.1457650186389
 31
0.0
  0
LINE
  5
1BEFA
330
1BC2F
100
AcDbEntity
  8
0
 62
     0
 48
0.05
100
AcDbLine
 10
99.79023643571146
 20
116.1157808496091
 30
0.0
 11
99.79023643571146
 21
118.1457650186389
 31
0.0
  0
LINE
  5
1BEFB
330
1BC2F
100
AcDbEntity
  8
0
 62
     0
 48
0.05
100
AcDbLine
 10
104.2902364357119
 20
117.1457650186389
 30
0.0
 11
106.7902364357119
 21
117.1457650186389
 31
0.0
  0
LINE
  5
1BEFC
330
1BC2F
100
AcDbEntity
  8
0
 62
     0
 48
0.05
100
AcDbLine
 10
97.29023643571146
 20
117.1457650186389
 30
0.0
 11
90.53176491444252
 21
117.1457650186389
 31
0.0
  0
LINE
  5
1BEFD
330
1BC2F
100
AcDbEntity
  8
0
 62
     0
 48
0.05
100
AcDbLine
 10
101.7902364357119
 20
117.1457650186389
 30
0.0
 11
99.79023643571146
 21
117.1457650186389
 31
0.0
  0
SOLID
  5
1BEFE
330
1BC2F
100
AcDbEntity
  8
0
 62
     0
 48
0.05
100
AcDbTrace
 10
104.2902364357119
 20
117.5624316853056
 30
0.0
 11
104.2902364357119
 21
116.7290983519722
 31
0.0
 12
101.7902364357119
 22
117.1457650186389
 32
0.0
 13
101.7902364357119
 23
117.1457650186389
 33
0.0
  0
SOLID
  5
1BEFF
330
1BC2F
100
AcDbEntity
  8
0
 62
     0
 48
0.05
100
AcDbTrace
 10
97.29023643571146
 20
117.5624316853056
 30
0.0
 11
97.29023643571146
 21
116.7290983519722
 31
0.0
 12
99.79023643571146
 22
117.1457650186389
 32
0.0
 13
99.79023643571146
 23
117.1457650186389
 33
0.0
  0
MTEXT
  5
1BF00
330
1BC2F
100
AcDbEntity
  8
0
 62
     0
 48
0.05
100
AcDbMText
 10
92.66100067507698
 20
119.8957650186389
 30
0.0
 40
3.5
 41
0.0
 71
     5
 72
     1
  1
2
1001
ACAD
1000
MTEXTBEGIN
1070
    73
1070
     1
1070
    44
1040
1.0
1070
    74
1070
     0
1000
MTEXTEND
  0
POINT
  5
1BF01
330
1BC2F
100
AcDbEntity
  8
DEFPOINTS
 62
     0
 48
0.05
100
AcDbPoint
 10
101.7902364357119
 20
120.4408316867239
 30
0.0
  0
POINT
  5
1BF02
330
1BC2F
100
AcDbEntity
  8
DEFPOINTS
 62
     0
 48
0.05
100
AcDbPoint
 10
99.79023643571146
 20
115.1157808496091
 30
0.0
  0
POINT
  5
1BF03
330
1BC2F
100
AcDbEntity
  8
DEFPOINTS
 62
     0
 48
0.05
100
AcDbPoint
 10
99.79023643571146
 20
117.1457650186389
 30
0.0
  0
ENDBLK
  5
1BC3C
330
1BC2F
100
AcDbEntity
  8
0
 62
     0
 48
0.05
100
AcDbBlockEnd
  0
BLOCK
  5
1BC49
330
1BC3D
100
AcDbEntity
  8
0
 62
     0
 48
0.05
100
AcDbBlockBegin
  2
*D15
 70
     1
 10
0.0
 20
0.0
 30
0.0
  3
*D15
  1

  0
LINE
  5
1BF04
330
1BC3D
100
AcDbEntity
  8
0
 62
     0
 48
0.05
100
AcDbLine
 10
102.1366245847366
 20
141.4407808496089
 30
0.0
 11
91.61270602013088
 21
141.4407808496089
 31
0.0
  0
LINE
  5
1BF05
330
1BC3D
100
AcDbEntity
  8
0
 62
     0
 48
0.05
100
AcDbLine
 10
100.7902364357141
 20
139.440780849609
 30
0.0
 11
91.61270602013088
 21
139.440780849609
 31
0.0
  0
LINE
  5
1BF06
330
1BC3D
100
AcDbEntity
  8
0
 62
     0
 48
0.05
100
AcDbLine
 10
92.61270602013087
 20
143.9407808496089
 30
0.0
 11
92.61270602013087
 21
146.4407808496089
 31
0.0
  0
LINE
  5
1BF07
330
1BC3D
100
AcDbEntity
  8
0
 62
     0
 48
0.05
100
AcDbLine
 10
92.61270602013087
 20
136.940780849609
 30
0.0
 11
92.61270602013087
 21
130.1823093283401
 31
0.0
  0
LINE
  5
1BF08
330
1BC3D
100
AcDbEntity
  8
0
 62
     0
 48
0.05
100
AcDbLine
 10
92.61270602013087
 20
141.4407808496089
 30
0.0
 11
92.61270602013087
 21
139.440780849609
 31
0.0
  0
SOLID
  5
1BF09
330
1BC3D
100
AcDbEntity
  8
0
 62
     0
 48
0.05
100
AcDbTrace
 10
92.1960393534642
 20
143.9407808496089
 30
0.0
 11
93.02937268679754
 21
143.9407808496089
 31
0.0
 12
92.61270602013087
 22
141.4407808496089
 32
0.0
 13
92.61270602013087
 23
141.4407808496089
 33
0.0
  0
SOLID
  5
1BF0A
330
1BC3D
100
AcDbEntity
  8
0
 62
     0
 48
0.05
100
AcDbTrace
 10
92.1960393534642
 20
136.940780849609
 30
0.0
 11
93.02937268679754
 21
136.940780849609
 31
0.0
 12
92.61270602013087
 22
139.440780849609
 32
0.0
 13
92.61270602013087
 23
139.440780849609
 33
0.0
  0
MTEXT
  5
1BF0B
330
1BC3D
100
AcDbEntity
  8
0
 62
     0
 48
0.05
100
AcDbMText
 10
89.86270602013085
 20
132.3115450889746
 30
0.0
 40
3.5
 41
0.0
 71
     5
 72
     1
  1
2
 11
0.0000000000000001
 21
1.0
 31
0.0
1001
ACAD
1000
MTEXTBEGIN
1070
    73
1070
     1
1070
    44
1040
1.0
1070
    74
1070
     0
1000
MTEXTEND
  0
POINT
  5
1BF0C
330
1BC3D
100
AcDbEntity
  8
DEFPOINTS
 62
     0
 48
0.05
100
AcDbPoint
 10
103.1366245847366
 20
141.4407808496089
 30
0.0
  0
POINT
  5
1BF0D
330
1BC3D
100
AcDbEntity
  8
DEFPOINTS
 62
     0
 48
0.05
100
AcDbPoint
 10
101.7902364357141
 20
139.440780849609
 30
0.0
  0
POINT
  5
1BF0E
330
1BC3D
100
AcDbEntity
  8
DEFPOINTS
 62
     0
 48
0.05
100
AcDbPoint
 10
92.61270602013087
 20
139.440780849609
 30
0.0
  0
ENDBLK
  5
1BC4A
330
1BC3D
100
AcDbEntity
  8
0
 62
     0
 48
0.05
100
AcDbBlockEnd
  0
BLOCK
  5
1BC57
330
1BC4B
100
AcDbEntity
  8
0
 62
     0
 48
0.05
100
AcDbBlockBegin
  2
*D16
 70
     1
 10
0.0
 20
0.0
 30
0.0
  3
*D16
  1

  0
LINE
  5
1BE6D
330
1BC4B
100
AcDbEntity
  8
0
 62
     0
 48
0.05
100
AcDbLine
 10
98.84214395046365
 20
149.251642894968
 30
0.0
 11
98.84214395046365
 21
148.101693544395
 31
0.0
  0
LINE
  5
1BE6E
330
1BC4B
100
AcDbEntity
  8
0
 62
     0
 48
0.05
100
AcDbLine
 10
97.29256503609395
 20
149.4230743595699
 30
0.0
 11
97.29256503609395
 21
148.101693544395
 31
0.0
  0
LINE
  5
1BE6F
330
1BC4B
100
AcDbEntity
  8
0
 62
     0
 48
0.05
100
AcDbLine
 10
101.3421439504636
 20
149.101693544395
 30
0.0
 11
103.8421439504636
 21
149.101693544395
 31
0.0
  0
LINE
  5
1BE70
330
1BC4B
100
AcDbEntity
  8
0
 62
     0
 48
0.05
100
AcDbLine
 10
94.79256503609395
 20
149.101693544395
 30
0.0
 11
84.77886640595697
 21
149.101693544395
 31
0.0
  0
LINE
  5
1BE71
330
1BC4B
100
AcDbEntity
  8
0
 62
     0
 48
0.05
100
AcDbLine
 10
98.84214395046365
 20
149.101693544395
 30
0.0
 11
97.29256503609395
 21
149.101693544395
 31
0.0
  0
SOLID
  5
1BE72
330
1BC4B
100
AcDbEntity
  8
0
 62
     0
 48
0.05
100
AcDbTrace
 10
101.3421439504636
 20
149.5183602110617
 30
0.0
 11
101.3421439504636
 21
148.6850268777283
 31
0.0
 12
98.84214395046365
 22
149.101693544395
 32
0.0
 13
98.84214395046365
 23
149.101693544395
 33
0.0
  0
SOLID
  5
1BE73
330
1BC4B
100
AcDbEntity
  8
0
 62
     0
 48
0.05
100
AcDbTrace
 10
94.79256503609395
 20
149.5183602110617
 30
0.0
 11
94.79256503609395
 21
148.6850268777283
 31
0.0
 12
97.29256503609395
 22
149.101693544395
 32
0.0
 13
97.29256503609395
 23
149.101693544395
 33
0.0
  0
MTEXT
  5
1BE74
330
1BC4B
100
AcDbEntity
  8
0
 62
     0
 48
0.05
100
AcDbMText
 10
88.53571572102545
 20
152.2819386777764
 30
0.0
 40
3.5
 41
0.0
 71
     5
 72
     1
  1
1,5
1001
ACAD
1000
MTEXTBEGIN
1070
    73
1070
     1
1070
    44
1040
1.0
1070
    74
1070
     0
1000
MTEXTEND
  0
POINT
  5
1BE75
330
1BC4B
100
AcDbEntity
  8
DEFPOINTS
 62
     0
 48
0.05
100
AcDbPoint
 10
98.84214395046365
 20
150.251642894968
 30
0.0
  0
POINT
  5
1BE76
330
1BC4B
100
AcDbEntity
  8
DEFPOINTS
 62
     0
 48
0.05
100
AcDbPoint
 10
97.29256503609395
 20
150.4230743595699
 30
0.0
  0
POINT
  5
1BE77
330
1BC4B
100
AcDbEntity
  8
DEFPOINTS
 62
     0
 48
0.05
100
AcDbPoint
 10
97.29256503609395
 20
149.101693544395
 30
0.0
  0
ENDBLK
  5
1BC58
330
1BC4B
100
AcDbEntity
  8
0
 62
     0
 48
0.05
100
AcDbBlockEnd
  0
BLOCK
  5
1BC65
330
1BC59
100
AcDbEntity
  8
0
 62
     0
 48
0.05
100
AcDbBlockBegin
  2
*D17
 70
     1
 10
0.0
 20
0.0
 30
0.0
  3
*D17
  1

  0
LINE
  5
1BE62
330
1BC59
100
AcDbEntity
  8
0
 62
     0
 48
0.05
100
AcDbLine
 10
96.46416537788788
 20
155.3985382267565
 30
0.0
 11
74.01616097466649
 21
155.3985382267565
 31
0.0
  0
LINE
  5
1BE63
330
1BC59
100
AcDbEntity
  8
0
 62
     0
 48
0.05
100
AcDbLine
 10
97.34539298268828
 20
159.4314148790278
 30
0.0
 11
74.01616097466649
 21
159.4314148790278
 31
0.0
  0
LINE
  5
1BE64
330
1BC59
100
AcDbEntity
  8
0
 62
     0
 48
0.05
100
AcDbLine
 10
75.01616097466649
 20
152.8985382267564
 30
0.0
 11
75.01616097466649
 21
150.3985382267565
 31
0.0
  0
LINE
  5
1BE65
330
1BC59
100
AcDbEntity
  8
0
 62
     0
 48
0.05
100
AcDbLine
 10
75.01616097466651
 20
161.9314148790278
 30
0.0
 11
75.01616097466651
 21
168.7554956288476
 31
0.0
  0
LINE
  5
1BE66
330
1BC59
100
AcDbEntity
  8
0
 62
     0
 48
0.05
100
AcDbLine
 10
75.01616097466649
 20
155.3985382267565
 30
0.0
 11
75.01616097466649
 21
159.4314148790278
 31
0.0
  0
SOLID
  5
1BE67
330
1BC59
100
AcDbEntity
  8
0
 62
     0
 48
0.05
100
AcDbTrace
 10
74.59949430799982
 20
152.8985382267564
 30
0.0
 11
75.43282764133316
 21
152.8985382267564
 31
0.0
 12
75.01616097466649
 22
155.3985382267565
 32
0.0
 13
75.01616097466649
 23
155.3985382267565
 33
0.0
  0
SOLID
  5
1BE68
330
1BC59
100
AcDbEntity
  8
0
 62
     0
 48
0.05
100
AcDbTrace
 10
74.59949430799984
 20
161.9314148790278
 30
0.0
 11
75.43282764133317
 21
161.9314148790278
 31
0.0
 12
75.01616097466649
 22
159.4314148790278
 32
0.0
 13
75.01616097466649
 23
159.4314148790278
 33
0.0
  0
MTEXT
  5
1BE69
330
1BC59
100
AcDbEntity
  8
0
 62
     0
 48
0.05
100
AcDbMText
 10
72.26616097466648
 20
166.5934552539378
 30
0.0
 40
3.5
 41
0.0
 71
     5
 72
     1
  1
4
 11
0.0000000000000001
 21
1.0
 31
0.0
1001
ACAD
1000
MTEXTBEGIN
1070
    73
1070
     1
1070
    44
1040
1.0
1070
    74
1070
     0
1000
MTEXTEND
  0
POINT
  5
1BE6A
330
1BC59
100
AcDbEntity
  8
DEFPOINTS
 62
     0
 48
0.05
100
AcDbPoint
 10
97.46416537788787
 20
155.3985382267565
 30
0.0
  0
POINT
  5
1BE6B
330
1BC59
100
AcDbEntity
  8
DEFPOINTS
 62
     0
 48
0.05
100
AcDbPoint
 10
98.34539298268829
 20
159.4314148790278
 30
0.0
  0
POINT
  5
1BE6C
330
1BC59
100
AcDbEntity
  8
DEFPOINTS
 62
     0
 48
0.05
100
AcDbPoint
 10
75.01616097466649
 20
159.4314148790278
 30
0.0
  0
ENDBLK
  5
1BC66
330
1BC59
100
AcDbEntity
  8
0
 62
     0
 48
0.05
100
AcDbBlockEnd
  0
BLOCK
  5
1BC73
330
1BC67
100
AcDbEntity
  8
0
 62
     0
 48
0.05
100
AcDbBlockBegin
  2
*D18
 70
     1
 10
0.0
 20
0.0
 30
0.0
  3
*D18
  1

  0
LINE
  5
1BF70
330
1BC67
100
AcDbEntity
  8
0
 62
     0
 48
0.05
100
AcDbLine
 10
107.9902364357121
 20
136.9107808496092
 30
0.0
 11
145.0839813027537
 21
136.9107808496092
 31
0.0
  0
LINE
  5
1BF71
330
1BC67
100
AcDbEntity
  8
0
 62
     0
 48
0.05
100
AcDbLine
 10
109.2402364357139
 20
141.4407808496092
 30
0.0
 11
145.0839813027537
 21
141.4407808496092
 31
0.0
  0
LINE
  5
1BF72
330
1BC67
100
AcDbEntity
  8
0
 62
     0
 48
0.05
100
AcDbLine
 10
144.0839813027537
 20
134.4107808496092
 30
0.0
 11
144.0839813027537
 21
131.9107808496092
 31
0.0
  0
LINE
  5
1BF73
330
1BC67
100
AcDbEntity
  8
0
 62
     0
 48
0.05
100
AcDbLine
 10
144.0839813027537
 20
143.9407808496092
 30
0.0
 11
144.0839813027537
 21
154.4793533081528
 31
0.0
  0
LINE
  5
1BF74
330
1BC67
100
AcDbEntity
  8
0
 62
     0
 48
0.05
100
AcDbLine
 10
144.0839813027537
 20
136.9107808496092
 30
0.0
 11
144.0839813027537
 21
141.4407808496092
 31
0.0
  0
SOLID
  5
1BF75
330
1BC67
100
AcDbEntity
  8
0
 62
     0
 48
0.05
100
AcDbTrace
 10
143.667314636087
 20
134.4107808496092
 30
0.0
 11
144.5006479694203
 21
134.4107808496092
 31
0.0
 12
144.0839813027537
 22
136.9107808496092
 32
0.0
 13
144.0839813027537
 23
136.9107808496092
 33
0.0
  0
SOLID
  5
1BF76
330
1BC67
100
AcDbEntity
  8
0
 62
     0
 48
0.05
100
AcDbTrace
 10
143.667314636087
 20
143.9407808496092
 30
0.0
 11
144.5006479694203
 21
143.9407808496092
 31
0.0
 12
144.0839813027537
 22
141.4407808496092
 32
0.0
 13
144.0839813027537
 23
141.4407808496092
 33
0.0
  0
MTEXT
  5
1BF77
330
1BC67
100
AcDbEntity
  8
0
 62
     0
 48
0.05
100
AcDbMText
 10
140.9037361693723
 20
150.460067078881
 30
0.0
 40
3.5
 41
0.0
 71
     5
 72
     1
  1
4,5
 11
0.0000000000000001
 21
1.0
 31
0.0
1001
ACAD
1000
MTEXTBEGIN
1070
    73
1070
     1
1070
    44
1040
1.0
1070
    74
1070
     0
1000
MTEXTEND
  0
POINT
  5
1BF78
330
1BC67
100
AcDbEntity
  8
DEFPOINTS
 62
     0
 48
0.05
100
AcDbPoint
 10
106.9902364357121
 20
136.9107808496092
 30
0.0
  0
POINT
  5
1BF79
330
1BC67
100
AcDbEntity
  8
DEFPOINTS
 62
     0
 48
0.05
100
AcDbPoint
 10
108.2402364357139
 20
141.4407808496092
 30
0.0
  0
POINT
  5
1BF7A
330
1BC67
100
AcDbEntity
  8
DEFPOINTS
 62
     0
 48
0.05
100
AcDbPoint
 10
144.0839813027537
 20
141.4407808496092
 30
0.0
  0
ENDBLK
  5
1BC74
330
1BC67
100
AcDbEntity
  8
0
 62
     0
 48
0.05
100
AcDbBlockEnd
  0
BLOCK
  5
1BC80
330
1BC75
100
AcDbEntity
  8
0
 62
     0
 48
0.05
100
AcDbBlockBegin
  2
*D19
 70
     1
 10
0.0
 20
0.0
 30
0.0
  3
*D19
  1

  0
LINE
  5
1BF97
330
1BC75
100
AcDbEntity
  8
0
 62
     0
 48
0.05
100
AcDbLine
 10
101.2924794777059
 20
145.0058990666011
 30
0.0
 11
101.2924794777059
 21
172.6006880963002
 31
0.0
  0
LINE
  5
1BF98
330
1BC75
100
AcDbEntity
  8
0
 62
     0
 48
0.05
100
AcDbLine
 10
108.990236435713
 20
140.1257808496091
 30
0.0
 11
108.990236435713
 21
172.6006880963002
 31
0.0
  0
LINE
  5
1BF99
330
1BC75
100
AcDbEntity
  8
0
 62
     0
 48
0.05
100
AcDbLine
 10
103.7924794777059
 20
171.6006880963002
 30
0.0
 11
106.490236435713
 21
171.6006880963002
 31
0.0
  0
LINE
  5
1BF9A
330
1BC75
100
AcDbEntity
  8
0
 62
     0
 48
0.05
100
AcDbLine
 10
108.990236435713
 20
171.6006880963002
 30
0.0
 11
119.5288088942567
 21
171.6006880963002
 31
0.0
  0
SOLID
  5
1BF9B
330
1BC75
100
AcDbEntity
  8
0
 62
     0
 48
0.05
100
AcDbTrace
 10
103.7924794777059
 20
172.0173547629669
 30
0.0
 11
103.7924794777059
 21
171.1840214296335
 31
0.0
 12
101.2924794777059
 22
171.6006880963002
 32
0.0
 13
101.2924794777059
 23
171.6006880963002
 33
0.0
  0
SOLID
  5
1BF9C
330
1BC75
100
AcDbEntity
  8
0
 62
     0
 48
0.05
100
AcDbTrace
 10
106.490236435713
 20
172.0173547629669
 30
0.0
 11
106.490236435713
 21
171.1840214296335
 31
0.0
 12
108.990236435713
 22
171.6006880963002
 32
0.0
 13
108.990236435713
 23
171.6006880963002
 33
0.0
  0
MTEXT
  5
1BF9D
330
1BC75
100
AcDbEntity
  8
0
 62
     0
 48
0.05
100
AcDbMText
 10
115.5095226649849
 20
174.7809332296816
 30
0.0
 40
3.5
 41
0.0
 71
     5
 72
     1
  1
7,7
1001
ACAD
1000
MTEXTBEGIN
1070
    73
1070
     1
1070
    44
1040
1.0
1070
    74
1070
     0
1000
MTEXTEND
  0
POINT
  5
1BF9E
330
1BC75
100
AcDbEntity
  8
DEFPOINTS
 62
     0
 48
0.05
100
AcDbPoint
 10
101.2924794777059
 20
144.0058990666011
 30
0.0
  0
POINT
  5
1BF9F
330
1BC75
100
AcDbEntity
  8
DEFPOINTS
 62
     0
 48
0.05
100
AcDbPoint
 10
108.990236435713
 20
139.1257808496091
 30
0.0
  0
POINT
  5
1BFA0
330
1BC75
100
AcDbEntity
  8
DEFPOINTS
 62
     0
 48
0.05
100
AcDbPoint
 10
108.990236435713
 20
171.6006880963002
 30
0.0
  0
ENDBLK
  5
1BC81
330
1BC75
100
AcDbEntity
  8
0
 62
     0
 48
0.05
100
AcDbBlockEnd
  0
BLOCK
  5
1BC8E
330
1BC82
100
AcDbEntity
  8
0
 62
     0
 48
0.05
100
AcDbBlockBegin
  2
*D20
 70
     1
 10
0.0
 20
0.0
 30
0.0
  3
*D20
  1

  0
LINE
  5
1BFA1
330
1BC82
100
AcDbEntity
  8
0
 62
     0
 48
0.05
100
AcDbLine
 10
104.4902364357121
 20
140.925780849609
 30
0.0
 11
104.4902364357121
 21
162.6948266500495
 31
0.0
  0
LINE
  5
1BFA2
330
1BC82
100
AcDbEntity
  8
0
 62
     0
 48
0.05
100
AcDbLine
 10
107.490236435713
 20
140.6257808496093
 30
0.0
 11
107.490236435713
 21
162.6948266500495
 31
0.0
  0
LINE
  5
1BFA3
330
1BC82
100
AcDbEntity
  8
0
 62
     0
 48
0.05
100
AcDbLine
 10
101.9902364357121
 20
161.6948266500495
 30
0.0
 11
99.49023643571218
 21
161.6948266500495
 31
0.0
  0
LINE
  5
1BFA4
330
1BC82
100
AcDbEntity
  8
0
 62
     0
 48
0.05
100
AcDbLine
 10
109.990236435713
 20
161.6948266500495
 30
0.0
 11
128.4044397522235
 21
161.6948266500495
 31
0.0
  0
LINE
  5
1BFA5
330
1BC82
100
AcDbEntity
  8
0
 62
     0
 48
0.05
100
AcDbLine
 10
104.4902364357121
 20
161.6948266500495
 30
0.0
 11
107.490236435713
 21
161.6948266500495
 31
0.0
  0
SOLID
  5
1BFA6
330
1BC82
100
AcDbEntity
  8
0
 62
     0
 48
0.05
100
AcDbTrace
 10
101.9902364357121
 20
162.1114933167162
 30
0.0
 11
101.9902364357121
 21
161.2781599833828
 31
0.0
 12
104.4902364357121
 22
161.6948266500495
 32
0.0
 13
104.4902364357121
 23
161.6948266500495
 33
0.0
  0
SOLID
  5
1BFA7
330
1BC82
100
AcDbEntity
  8
0
 62
     0
 48
0.05
100
AcDbTrace
 10
109.990236435713
 20
162.1114933167162
 30
0.0
 11
109.990236435713
 21
161.2781599833828
 31
0.0
 12
107.490236435713
 22
161.6948266500495
 32
0.0
 13
107.490236435713
 23
161.6948266500495
 33
0.0
  0
MTEXT
  5
1BFA8
330
1BC82
100
AcDbEntity
  8
0
 62
     0
 48
0.05
100
AcDbMText
 10
120.4473380939683
 20
164.8750717834309
 30
0.0
 40
3.5
 41
0.0
 71
     5
 72
     1
  1
30,25
1001
ACAD
1000
MTEXTBEGIN
1070
    73
1070
     1
1070
    44
1040
1.0
1070
    74
1070
     0
1000
MTEXTEND
  0
POINT
  5
1BFA9
330
1BC82
100
AcDbEntity
  8
DEFPOINTS
 62
     0
 48
0.05
100
AcDbPoint
 10
104.4902364357121
 20
139.925780849609
 30
0.0
  0
POINT
  5
1BFAA
330
1BC82
100
AcDbEntity
  8
DEFPOINTS
 62
     0
 48
0.05
100
AcDbPoint
 10
107.490236435713
 20
139.6257808496093
 30
0.0
  0
POINT
  5
1BFAB
330
1BC82
100
AcDbEntity
  8
DEFPOINTS
 62
     0
 48
0.05
100
AcDbPoint
 10
107.490236435713
 20
161.6948266500495
 30
0.0
  0
ENDBLK
  5
1BC8F
330
1BC82
100
AcDbEntity
  8
0
 62
     0
 48
0.05
100
AcDbBlockEnd
  0
BLOCK
  5
1BC9C
330
1BC90
100
AcDbEntity
  8
0
 62
     0
 48
0.05
100
AcDbBlockBegin
  2
*D21
 70
     1
 10
0.0
 20
0.0
 30
0.0
  3
*D21
  1

  0
LINE
  5
1BFAC
330
1BC90
100
AcDbEntity
  8
0
 62
     0
 48
0.05
100
AcDbLine
 10
107.490236435713
 20
140.6257808496093
 30
0.0
 11
107.490236435713
 21
152.5138026479315
 31
0.0
  0
LINE
  5
1BFAD
330
1BC90
100
AcDbEntity
  8
0
 62
     0
 48
0.05
100
AcDbLine
 10
108.9902364357139
 20
141.8407808496091
 30
0.0
 11
108.9902364357139
 21
152.5138026479315
 31
0.0
  0
LINE
  5
1BFAE
330
1BC90
100
AcDbEntity
  8
0
 62
     0
 48
0.05
100
AcDbLine
 10
104.990236435713
 20
151.5138026479315
 30
0.0
 11
102.490236435713
 21
151.5138026479315
 31
0.0
  0
LINE
  5
1BFAF
330
1BC90
100
AcDbEntity
  8
0
 62
     0
 48
0.05
100
AcDbLine
 10
111.490236435714
 20
151.5138026479315
 30
0.0
 11
121.5039350658509
 21
151.5138026479315
 31
0.0
  0
LINE
  5
1BFB0
330
1BC90
100
AcDbEntity
  8
0
 62
     0
 48
0.05
100
AcDbLine
 10
107.490236435713
 20
151.5138026479315
 30
0.0
 11
108.9902364357139
 21
151.5138026479315
 31
0.0
  0
SOLID
  5
1BFB1
330
1BC90
100
AcDbEntity
  8
0
 62
     0
 48
0.05
100
AcDbTrace
 10
104.990236435713
 20
151.9304693145982
 30
0.0
 11
104.990236435713
 21
151.0971359812649
 31
0.0
 12
107.490236435713
 22
151.5138026479315
 32
0.0
 13
107.490236435713
 23
151.5138026479315
 33
0.0
  0
SOLID
  5
1BFB2
330
1BC90
100
AcDbEntity
  8
0
 62
     0
 48
0.05
100
AcDbTrace
 10
111.490236435714
 20
151.9304693145982
 30
0.0
 11
111.490236435714
 21
151.0971359812649
 31
0.0
 12
108.9902364357139
 22
151.5138026479315
 32
0.0
 13
108.9902364357139
 23
151.5138026479315
 33
0.0
  0
MTEXT
  5
1BFB3
330
1BC90
100
AcDbEntity
  8
0
 62
     0
 48
0.05
100
AcDbMText
 10
117.7470857507824
 20
154.6940477813129
 30
0.0
 40
3.5
 41
0.0
 71
     5
 72
     1
  1
1,5
1001
ACAD
1000
MTEXTBEGIN
1070
    73
1070
     1
1070
    44
1040
1.0
1070
    74
1070
     0
1000
MTEXTEND
  0
POINT
  5
1BFB4
330
1BC90
100
AcDbEntity
  8
DEFPOINTS
 62
     0
 48
0.05
100
AcDbPoint
 10
107.490236435713
 20
139.6257808496093
 30
0.0
  0
POINT
  5
1BFB5
330
1BC90
100
AcDbEntity
  8
DEFPOINTS
 62
     0
 48
0.05
100
AcDbPoint
 10
108.9902364357139
 20
140.8407808496091
 30
0.0
  0
POINT
  5
1BFB6
330
1BC90
100
AcDbEntity
  8
DEFPOINTS
 62
     0
 48
0.05
100
AcDbPoint
 10
108.9902364357139
 20
151.5138026479315
 30
0.0
  0
ENDBLK
  5
1BC9D
330
1BC90
100
AcDbEntity
  8
0
 62
     0
 48
0.05
100
AcDbBlockEnd
  0
BLOCK
  5
1BCA5
330
1BC9E
100
AcDbEntity
  8
0
 62
     0
 48
0.05
100
AcDbBlockBegin
  2
*D22
 70
     1
 10
0.0
 20
0.0
 30
0.0
  3
*D22
  1

  0
LINE
  5
1BF7B
330
1BC9E
100
AcDbEntity
  8
0
 62
     0
 48
0.05
100
AcDbLine
 10
136.1187661735273
 20
146.8605605693094
 30
0.0
 11
111.4196681388628
 21
141.4984612856532
 31
0.0
  0
MTEXT
  5
1BF7C
330
1BC9E
100
AcDbEntity
  8
0
 62
     0
 48
0.05
100
AcDbMText
 10
129.7666511265783
 20
148.7358621691757
 30
0.0
 40
3.5
 41
0.0
 71
     5
 72
     1
  1
R0,6
 11
0.9772360332738834
 21
0.2121549793691523
 31
0.0
1001
ACAD
1000
MTEXTBEGIN
1070
    73
1070
     1
1070
    44
1040
1.0
1070
    74
1070
     0
1000
MTEXTEND
  0
LINE
  5
1BF7D
330
1BC9E
100
AcDbEntity
  8
0
 62
     0
 48
0.05
100
AcDbLine
 10
108.3902364357127
 20
140.8407808496086
 30
0.0
 11
108.9765780556781
 21
140.9680738372304
 31
0.0
  0
SOLID
  5
1BF7E
330
1BC9E
100
AcDbEntity
  8
0
 62
     0
 48
0.05
100
AcDbTrace
 10
111.3312702307923
 20
141.905642966184
 30
0.0
 11
111.5080660469333
 21
141.0912796051225
 31
0.0
 12
108.9765780556781
 22
140.9680738372304
 32
0.0
 13
108.9765780556781
 23
140.9680738372304
 33
0.0
  0
POINT
  5
1BF7F
330
1BC9E
100
AcDbEntity
  8
DEFPOINTS
 62
     0
 48
0.05
100
AcDbPoint
 10
108.9765780556781
 20
140.9680738372304
 30
0.0
  0
POINT
  5
1BF80
330
1BC9E
100
AcDbEntity
  8
DEFPOINTS
 62
     0
 48
0.05
100
AcDbPoint
 10
108.3902364357127
 20
140.8407808496086
 30
0.0
  0
ENDBLK
  5
1BCA6
330
1BC9E
100
AcDbEntity
  8
0
 62
     0
 48
0.05
100
AcDbBlockEnd
  0
BLOCK
  5
1BCB3
330
1BCA7
100
AcDbEntity
  8
0
 62
     0
 48
0.05
100
AcDbBlockBegin
  2
*D23
 70
     1
 10
0.0
 20
0.0
 30
0.0
  3
*D23
  1

  0
LINE
  5
1BF0F
330
1BCA7
100
AcDbEntity
  8
0
 62
     0
 48
0.05
100
AcDbLine
 10
102.9902364357117
 20
137.4257808496091
 30
0.0
 11
102.9902364357117
 21
130.5364614007338
 31
0.0
  0
LINE
  5
1BF10
330
1BCA7
100
AcDbEntity
  8
0
 62
     0
 48
0.05
100
AcDbLine
 10
108.9902364357121
 20
136.4107808496091
 30
0.0
 11
108.9902364357121
 21
130.5364614007338
 31
0.0
  0
LINE
  5
1BF11
330
1BCA7
100
AcDbEntity
  8
0
 62
     0
 48
0.05
100
AcDbLine
 10
100.4902364357117
 20
131.5364614007338
 30
0.0
 11
97.99023643571173
 21
131.5364614007338
 31
0.0
  0
LINE
  5
1BF12
330
1BCA7
100
AcDbEntity
  8
0
 62
     0
 48
0.05
100
AcDbLine
 10
111.4902364357121
 20
131.5364614007338
 30
0.0
 11
113.9902364357121
 21
131.5364614007338
 31
0.0
  0
LINE
  5
1BF13
330
1BCA7
100
AcDbEntity
  8
0
 62
     0
 48
0.05
100
AcDbLine
 10
102.9902364357117
 20
131.5364614007338
 30
0.0
 11
108.9902364357121
 21
131.5364614007338
 31
0.0
  0
SOLID
  5
1BF14
330
1BCA7
100
AcDbEntity
  8
0
 62
     0
 48
0.05
100
AcDbTrace
 10
100.4902364357117
 20
131.9531280674005
 30
0.0
 11
100.4902364357117
 21
131.1197947340672
 31
0.0
 12
102.9902364357117
 22
131.5364614007338
 32
0.0
 13
102.9902364357117
 23
131.5364614007338
 33
0.0
  0
SOLID
  5
1BF15
330
1BCA7
100
AcDbEntity
  8
0
 62
     0
 48
0.05
100
AcDbTrace
 10
111.4902364357121
 20
131.9531280674005
 30
0.0
 11
111.4902364357121
 21
131.1197947340672
 31
0.0
 12
108.9902364357121
 22
131.5364614007338
 32
0.0
 13
108.9902364357121
 23
131.5364614007338
 33
0.0
  0
MTEXT
  5
1BF16
330
1BCA7
100
AcDbEntity
  8
0
 62
     0
 48
0.05
100
AcDbMText
 10
105.9902364357119
 20
134.3167425831419
 30
0.0
 40
3.5
 41
0.0
 71
     5
 72
     1
  1
6
1001
ACAD
1000
MTEXTBEGIN
1070
    73
1070
     1
1070
    44
1040
1.0
1070
    74
1070
     0
1000
MTEXTEND
  0
POINT
  5
1BF17
330
1BCA7
100
AcDbEntity
  8
DEFPOINTS
 62
     0
 48
0.05
100
AcDbPoint
 10
102.9902364357117
 20
138.4257808496091
 30
0.0
  0
POINT
  5
1BF18
330
1BCA7
100
AcDbEntity
  8
DEFPOINTS
 62
     0
 48
0.05
100
AcDbPoint
 10
108.9902364357121
 20
137.4107808496091
 30
0.0
  0
POINT
  5
1BF19
330
1BCA7
100
AcDbEntity
  8
DEFPOINTS
 62
     0
 48
0.05
100
AcDbPoint
 10
108.9902364357121
 20
131.5364614007338
 30
0.0
  0
ENDBLK
  5
1BCB4
330
1BCA7
100
AcDbEntity
  8
0
 62
     0
 48
0.05
100
AcDbBlockEnd
  0
ENDSEC
  0
SECTION
  2
ENTITIES
  0
POLYLINE
  5
1BA3D
330
2
100
AcDbEntity
  8
0
100
AcDb2dPolyline
 66
     1
 10
0.0
 20
0.0
 30
0.0
 70
     1
  0
VERTEX
  5
1BFEB
330
1BA3D
100
AcDbEntity
  8
0
 48
0.05
100
AcDbVertex
100
AcDb2dVertex
 10
179.9047244461035
 20
218.5280899206578
 30
0.0
  0
VERTEX
  5
1BFEC
330
1BA3D
100
AcDbEntity
  8
0
 48
0.05
100
AcDbVertex
100
AcDb2dVertex
 10
179.904724446098
 20
165.8780899206581
 30
0.0
 42
1.0
  0
VERTEX
  5
1BFED
330
1BA3D
100
AcDbEntity
  8
0
 48
0.05
100
AcDbVertex
100
AcDb2dVertex
 10
184.6047244460978
 20
165.8780899206578
 30
0.0
  0
VERTEX
  5
1BFEE
330
1BA3D
100
AcDbEntity
  8
0
 48
0.05
100
AcDbVertex
100
AcDb2dVertex
 10
184.6047244461015
 20
192.0281915948864
 30
0.0
 42
0.4142135623731244
  0
VERTEX
  5
1BFEF
330
1BA3D
100
AcDbEntity
  8
0
 48
0.05
100
AcDbVertex
100
AcDb2dVertex
 10
184.1047244461014
 20
192.5281915948865
 30
0.0
  0
VERTEX
  5
1BFF0
330
1BA3D
100
AcDbEntity
  8
0
 48
0.05
100
AcDbVertex
100
AcDb2dVertex
 10
182.4047244461007
 20
192.5281915948865
 30
0.0
 42
-0.4142135623731111
  0
VERTEX
  5
1BFF1
330
1BA3D
100
AcDbEntity
  8
0
 48
0.05
100
AcDbVertex
100
AcDb2dVertex
 10
181.9047244461007
 20
193.0281915948864
 30
0.0
  0
VERTEX
  5
1BFF2
330
1BA3D
100
AcDbEntity
  8
0
 48
0.05
100
AcDbVertex
100
AcDb2dVertex
 10
181.9047244461016
 20
202.028089920659
 30
0.0
  0
VERTEX
  5
1BFF3
330
1BA3D
100
AcDbEntity
  8
0
 48
0.05
100
AcDbVertex
100
AcDb2dVertex
 10
181.4047244461026
 20
202.5280899206586
 30
0.0
  0
VERTEX
  5
1BFF4
330
1BA3D
100
AcDbEntity
  8
0
 48
0.05
100
AcDbVertex
100
AcDb2dVertex
 10
181.9047244461025
 20
203.0280899206573
 30
0.0
  0
VERTEX
  5
1BFF5
330
1BA3D
100
AcDbEntity
  8
0
 48
0.05
100
AcDbVertex
100
AcDb2dVertex
 10
181.9047244461035
 20
216.5280899206578
 30
0.0
  0
VERTEX
  5
1BFF6
330
1BA3D
100
AcDbEntity
  8
0
 48
0.05
100
AcDbVertex
100
AcDb2dVertex
 10
183.1047244461005
 20
216.5280899206578
 30
0.0
  0
VERTEX
  5
1BFF7
330
1BA3D
100
AcDbEntity
  8
0
 48
0.05
100
AcDbVertex
100
AcDb2dVertex
 10
183.1047244461015
 20
214.498089920658
 30
0.0
 42
0.414213562373107
  0
VERTEX
  5
1BFF8
330
1BA3D
100
AcDbEntity
  8
0
 48
0.05
100
AcDbVertex
100
AcDb2dVertex
 10
183.6047244461014
 20
213.998089920658
 30
0.0
  0
VERTEX
  5
1BFF9
330
1BA3D
100
AcDbEntity
  8
0
 48
0.05
100
AcDbVertex
100
AcDb2dVertex
 10
188.6047244461014
 20
213.9980899206581
 30
0.0
 42
0.4142135623730217
  0
VERTEX
  5
1BFFA
330
1BA3D
100
AcDbEntity
  8
0
 48
0.05
100
AcDbVertex
100
AcDb2dVertex
 10
189.1047244461015
 20
214.498089920658
 30
0.0
  0
VERTEX
  5
1BFFB
330
1BA3D
100
AcDbEntity
  8
0
 48
0.05
100
AcDbVertex
100
AcDb2dVertex
 10
189.1047244461033
 20
217.9280899206579
 30
0.0
 42
0.414213562373158
  0
VERTEX
  5
1BFFC
330
1BA3D
100
AcDbEntity
  8
0
 48
0.05
100
AcDbVertex
100
AcDb2dVertex
 10
188.5047244461029
 20
218.528089920658
 30
0.0
  0
VERTEX
  5
1BFFD
330
1BA3D
100
AcDbEntity
  8
0
 48
0.05
100
AcDbVertex
100
AcDb2dVertex
 10
188.2047244461036
 20
218.5280899206579
 30
0.0
 42
0.4142135623729975
  0
VERTEX
  5
1BFFE
330
1BA3D
100
AcDbEntity
  8
0
 48
0.05
100
AcDbVertex
100
AcDb2dVertex
 10
187.6047244461024
 20
217.9280899206581
 30
0.0
  0
VERTEX
  5
1BFFF
330
1BA3D
100
AcDbEntity
  8
0
 48
0.05
100
AcDbVertex
100
AcDb2dVertex
 10
187.6047244461024
 20
215.4980899206581
 30
0.0
  0
VERTEX
  5
1C000
330
1BA3D
100
AcDbEntity
  8
0
 48
0.05
100
AcDbVertex
100
AcDb2dVertex
 10
184.6047244461015
 20
215.4980899206579
 30
0.0
  0
VERTEX
  5
1C001
330
1BA3D
100
AcDbEntity
  8
0
 48
0.05
100
AcDbVertex
100
AcDb2dVertex
 10
184.6047244461015
 20
218.5280899206577
 30
0.0
  0
VERTEX
  5
1C002
330
1BA3D
100
AcDbEntity
  8
0
 48
0.05
100
AcDbVertex
100
AcDb2dVertex
 10
181.8975007441504
 20
218.5280899206578
 30
0.0
 42
-0.4142135623731629
  0
VERTEX
  5
1C003
330
1BA3D
100
AcDbEntity
  8
0
 48
0.05
100
AcDbVertex
100
AcDb2dVertex
 10
181.4069674880956
 20
219.0186231767124
 30
0.0
  0
VERTEX
  5
1C004
330
1BA3D
100
AcDbEntity
  8
0
 48
0.05
100
AcDbVertex
100
AcDb2dVertex
 10
181.4069674880947
 20
223.1677930985874
 30
0.0
 42
0.1742897407425472
  0
VERTEX
  5
1C005
330
1BA3D
100
AcDbEntity
  8
0
 48
0.05
100
AcDbVertex
100
AcDb2dVertex
 10
181.1972659500097
 20
223.7926710282749
 30
0.0
  0
VERTEX
  5
1C006
330
1BA3D
100
AcDbEntity
  8
0
 48
0.05
100
AcDbVertex
100
AcDb2dVertex
 10
179.3806016231328
 20
226.0909338681701
 30
0.0
 42
-0.1652204503772487
  0
VERTEX
  5
1C007
330
1BA3D
100
AcDbEntity
  8
0
 48
0.05
100
AcDbVertex
100
AcDb2dVertex
 10
178.9566319608529
 20
227.3389519660169
 30
0.0
  0
VERTEX
  5
1C008
330
1BA3D
100
AcDbEntity
  8
0
 48
0.05
100
AcDbVertex
100
AcDb2dVertex
 10
178.9566319608529
 20
236.0125320649075
 30
0.0
 42
1.006295064139255
  0
VERTEX
  5
1C009
330
1BA3D
100
AcDbEntity
  8
0
 48
0.05
100
AcDbVertex
100
AcDb2dVertex
 10
177.956816311429
 20
236.0188062821811
 30
0.0
  0
VERTEX
  5
1C00A
330
1BA3D
100
AcDbEntity
  8
0
 48
0.05
100
AcDbVertex
100
AcDb2dVertex
 10
177.9568163114263
 20
232.7597730790561
 30
0.0
 42
-0.3184217761108796
  0
VERTEX
  5
1C00B
330
1BA3D
100
AcDbEntity
  8
0
 48
0.05
100
AcDbVertex
100
AcDb2dVertex
 10
177.8562994166886
 20
232.5817088764421
 30
0.0
 42
-0.0419104737448247
  0
VERTEX
  5
1C00C
330
1BA3D
100
AcDbEntity
  8
0
 48
0.05
100
AcDbVertex
100
AcDb2dVertex
 10
177.660206610627
 20
232.5086643022906
 30
0.0
  0
VERTEX
  5
1C00D
330
1BA3D
100
AcDbEntity
  8
0
 48
0.05
100
AcDbVertex
100
AcDb2dVertex
 10
177.5786533882801
 20
232.4858472978061
 30
0.0
 42
0.3345227461846327
  0
VERTEX
  5
1C00E
330
1BA3D
100
AcDbEntity
  8
0
 48
0.05
100
AcDbVertex
100
AcDb2dVertex
 10
177.4070530464832
 20
232.2580640946811
 30
0.0
  0
VERTEX
  5
1C00F
330
1BA3D
100
AcDbEntity
  8
0
 48
0.05
100
AcDbVertex
100
AcDb2dVertex
 10
177.4070530464832
 20
227.5103834306187
 30
0.0
 42
0.1628579520499153
  0
VERTEX
  5
1C010
330
1BA3D
100
AcDbEntity
  8
0
 48
0.05
100
AcDbVertex
100
AcDb2dVertex
 10
178.3069081406274
 20
225.0141703580429
 30
0.0
  0
VERTEX
  5
1C011
330
1BA3D
100
AcDbEntity
  8
0
 48
0.05
100
AcDbVertex
100
AcDb2dVertex
 10
179.475647297666
 20
223.5355299149937
 30
0.0
 42
-0.1670687204158553
  0
VERTEX
  5
1C012
330
1BA3D
100
AcDbEntity
  8
0
 48
0.05
100
AcDbVertex
100
AcDb2dVertex
 10
179.9047244461035
 20
222.2872388993687
 30
0.0
  0
SEQEND
  5
1C013
330
1BA3D
100
AcDbEntity
  8
0
  0
VIEWPORT
  5
D68D
330
C
100
AcDbEntity
 67
     1
  8
0
  6
BYBLOCK
 62
     0
 48
0.05
100
AcDbViewport
 10
133.3499908447265
 20
101.5999970436096
 30
0.0
 40
412.1153263722698
 41
228.4221935424804
 68
     1
 69
     1
1001
ACAD
1000
MVIEW
1002
{
1070
    16
1010
0.0
1020
0.0
1030
0.0
1010
0.0
1020
0.0
1030
1.0
1040
0.0
1040
228.4221935424804
1040
133.3499908447265
1040
101.5999970436096
1040
50.0
1040
0.0
1040
0.0
1070
     0
1070
   100
1070
     1
1070
     1
1070
     0
1070
     0
1070
     0
1070
     0
1040
0.0
1040
0.0
1040
0.0
1040
10.0
1040
10.0
1040
10.0
1040
10.0
1070
     0
1002
{
1002
}
1002
}
  0
VIEWPORT
  5
D68F
330
C
100
AcDbEntity
 67
     1
  8
0
  6
BYBLOCK
 62
     0
 48
0.05
100
AcDbViewport
 10
133.349993944168
 20
101.599993944168
 30
0.0
 40
213.3599903106689
 41
162.5599903106689
 68
     2
 69
     2
1001
ACAD
1000
MVIEW
1002
{
1070
    16
1010
0.0
1020
0.0
1030
0.0
1010
0.0
1020
0.0
1030
1.0
1040
0.0
1040
293.8955062794127
1040
190.5105367298877
1040
130.3007286656822
1040
50.0
1040
0.0
1040
0.0
1070
     0
1070
   100
1070
     1
1070
     1
1070
     0
1070
     1
1070
     0
1070
     0
1040
0.0
1040
0.0
1040
0.0
1040
1.0
1040
1.0
1040
0.0
1040
0.0
1070
     0
1002
{
1002
}
1002
}
  0
ENDSEC
  0
SECTION
  2
OBJECTS
  0
DICTIONARY
  5
7
330
0
100
AcDbDictionary
  3
ACAD_GROUP
350
20
  3
ACAD_LAYOUT
350
B
  3
ACAD_MLINESTYLE
350
21
  3
ACAD_PLOTSETTINGS
350
22
1001
ACAD
1000
TREAT_AS_HARD
1070
     0
  0
DICTIONARY
  5
192E9
330
10
100
AcDbDictionary
  3
ACAD_LAYERFILTERS
350
192EA
  3
ACAD_LAYERSTATES
350
192F4
1001
ACAD
1000
TREAT_AS_HARD
1070
     1
  0
DICTIONARY
  5
1BFE7
330
2
100
AcDbDictionary
  3
ACAD_LAYOUTSELFREF
350
1BFE8
  0
DICTIONARY
  5
1BFE9
330
C
100
AcDbDictionary
  3
ACAD_LAYOUTSELFREF
350
1BFEA
  0
DICTIONARY
  5
20
102
{ACAD_REACTORS
330
7
102
}
330
7
100
AcDbDictionary
1001
ACAD
1000
TREAT_AS_HARD
1070
     0
  0
DICTIONARY
  5
B
102
{ACAD_REACTORS
330
7
102
}
330
7
100
AcDbDictionary
1001
ACAD
1000
TREAT_AS_HARD
1070
     0
  0
DICTIONARY
  5
21
102
{ACAD_REACTORS
330
7
102
}
330
7
100
AcDbDictionary
  3
STANDARD
350
23
1001
ACAD
1000
TREAT_AS_HARD
1070
     0
  0
DICTIONARY
  5
22
102
{ACAD_REACTORS
330
7
102
}
330
7
100
AcDbDictionary
1001
ACAD
1000
TREAT_AS_HARD
1070
     0
  0
DICTIONARY
  5
192EA
102
{ACAD_REACTORS
330
192E9
102
}
330
192E9
100
AcDbDictionary
  3
1
350
192EB
  3
12
350
192EC
  3
AA
350
192ED
  3
SS
350
192EE
1001
ACAD
1000
TREAT_AS_HARD
1070
     1
  0
DICTIONARY
  5
192F4
102
{ACAD_REACTORS
330
192E9
102
}
330
192E9
100
AcDbDictionary
1001
ACAD
1000
TREAT_AS_HARD
1070
     0
  0
XRECORD
  5
1BFE8
102
{ACAD_REACTORS
330
1BFE7
102
}
330
1BFE7
100
AcDbXrecord
340
2
  0
XRECORD
  5
1BFEA
102
{ACAD_REACTORS
330
1BFE9
102
}
330
1BFE9
100
AcDbXrecord
340
C
  0
MLINESTYLE
  5
23
102
{ACAD_REACTORS
330
21
102
}
330
21
100
AcDbMlineStyle
  2
STANDARD
 70
     0
  3

 62
   256
 51
90.0
 52
90.0
 71
     2
 49
0.5
 62
   256
  6
BYLAYER
 49
-0.5
 62
   256
  6
BYLAYER
  0
XRECORD
  5
192EB
102
{ACAD_REACTORS
330
192EA
102
}
330
192EA
100
AcDbXrecord
  1
1
  1
*
  1
*
  1
*
 70
  1367
  1
*
  1
*
  0
XRECORD
  5
192EC
102
{ACAD_REACTORS
330
192EA
102
}
330
192EA
100
AcDbXrecord
  1
12
  1
*
  1
ALL
  1
L
 70
  1493
  1
L
  1
L
  0
XRECORD
  5
192ED
102
{ACAD_REACTORS
330
192EA
102
}
330
192EA
100
AcDbXrecord
  1
aa
  1
*
  1
*
  1
*
 70
     0
  1
*
  1
*
  0
XRECORD
  5
192EE
102
{ACAD_REACTORS
330
192EA
102
}
330
192EA
100
AcDbXrecord
  1
ss
  1
*
  1
*
  1
*
 70
     0
  1
*
  1
*
  0
ENDSEC
  0
EOF
