  0
SECTION
  2
HEADER
  9
$ACADVER
  1
AC1009
  9
$INSBASE
 10
0.0
 20
0.0
 30
0.0
  9
$EXTMIN
 10
651.91131765478212
 20
531.62347543149178
 30
-0.0015258207003583
  9
$EXTMAX
 10
742.97882215466689
 20
622.66854965461948
 30
0.0000000349246037
  9
$LIMMIN
 10
0.0
 20
0.0
  9
$LIMMAX
 10
420.0
 20
297.0
  9
$ORTHOMODE
 70
     0
  9
$REGENMODE
 70
     1
  9
$FILLMODE
 70
     1
  9
$QTEXTMODE
 70
     0
  9
$MIRRTEXT
 70
     0
  9
$DRAGMODE
 70
     2
  9
$LTSCALE
 40
1.0
  9
$OSMODE
 70
  3071
  9
$ATTMODE
 70
     1
  9
$TEXTSIZE
 40
2.5
  9
$TRACEWID
 40
1.0
  9
$TEXTSTYLE
  7
STANDARD
  9
$CLAYER
  8
0
  9
$CELTYPE
  6
BYLAYER
  9
$CECOLOR
 62
   256
  9
$DIMSCALE
 40
1.0
  9
$DIMASZ
 40
2.5
  9
$DIMEXO
 40
0.625
  9
$DIMDLI
 40
3.75
  9
$DIMRND
 40
0.0
  9
$DIMDLE
 40
0.0
  9
$DIMEXE
 40
1.25
  9
$DIMTP
 40
0.0
  9
$DIMTM
 40
0.0
  9
$DIMTXT
 40
2.5
  9
$DIMCEN
 40
2.5
  9
$DIMTSZ
 40
0.0
  9
$DIMTOL
 70
     0
  9
$DIMLIM
 70
     0
  9
$DIMTIH
 70
     0
  9
$DIMTOH
 70
     0
  9
$DIMSE1
 70
     0
  9
$DIMSE2
 70
     0
  9
$DIMTAD
 70
     1
  9
$DIMZIN
 70
     8
  9
$DIMBLK
  1

  9
$DIMASO
 70
     1
  9
$DIMSHO
 70
     1
  9
$DIMPOST
  1

  9
$DIMAPOST
  1

  9
$DIMALT
 70
     0
  9
$DIMALTD
 70
     3
  9
$DIMALTF
 40
0.03937007874016
  9
$DIMLFAC
 40
1.0
  9
$DIMTOFL
 70
     1
  9
$DIMTVP
 40
0.0
  9
$DIMTIX
 70
     0
  9
$DIMSOXD
 70
     0
  9
$DIMSAH
 70
     0
  9
$DIMBLK1
  1

  9
$DIMBLK2
  1

  9
$DIMSTYLE
  2
ISO-25
  9
$DIMCLRD
 70
     0
  9
$DIMCLRE
 70
     0
  9
$DIMCLRT
 70
     0
  9
$DIMTFAC
 40
1.0
  9
$DIMGAP
 40
0.625
  9
$LUNITS
 70
     2
  9
$LUPREC
 70
     4
  9
$SKETCHINC
 40
1.0
  9
$FILLETRAD
 40
0.0
  9
$AUNITS
 70
     0
  9
$AUPREC
 70
     0
  9
$MENU
  1
.
  9
$ELEVATION
 40
0.0
  9
$PELEVATION
 40
0.0
  9
$THICKNESS
 40
0.0
  9
$LIMCHECK
 70
     0
  9
$BLIPMODE
 70
     0
  9
$CHAMFERA
 40
0.0
  9
$CHAMFERB
 40
0.0
  9
$SKPOLY
 70
     0
  9
$TDCREATE
 40
2456279.6061099768
  9
$TDUPDATE
 40
2456279.6062531602
  9
$TDINDWG
 40
0.0001435532
  9
$TDUSRTIMER
 40
0.0001435532
  9
$USRTIMER
 70
     1
  9
$ANGBASE
 50
0.0
  9
$ANGDIR
 70
     0
  9
$PDMODE
 70
     0
  9
$PDSIZE
 40
0.0
  9
$PLINEWID
 40
0.0
  9
$COORDS
 70
     0
  9
$SPLFRAME
 70
     0
  9
$SPLINETYPE
 70
     6
  9
$SPLINESEGS
 70
     8
  9
$ATTDIA
 70
     0
  9
$ATTREQ
 70
     1
  9
$HANDLING
 70
     1
  9
$HANDSEED
  5
642
  9
$SURFTAB1
 70
     6
  9
$SURFTAB2
 70
     6
  9
$SURFTYPE
 70
     6
  9
$SURFU
 70
     6
  9
$SURFV
 70
     6
  9
$UCSNAME
  2

  9
$UCSORG
 10
0.0
 20
0.0
 30
0.0
  9
$UCSXDIR
 10
1.0
 20
0.0
 30
0.0
  9
$UCSYDIR
 10
0.0
 20
1.0
 30
0.0
  9
$PUCSNAME
  2

  9
$PUCSORG
 10
0.0
 20
0.0
 30
0.0
  9
$PUCSXDIR
 10
1.0
 20
0.0
 30
0.0
  9
$PUCSYDIR
 10
0.0
 20
1.0
 30
0.0
  9
$USERI1
 70
     0
  9
$USERI2
 70
     0
  9
$USERI3
 70
     0
  9
$USERI4
 70
     0
  9
$USERI5
 70
     0
  9
$USERR1
 40
0.0
  9
$USERR2
 40
0.0
  9
$USERR3
 40
0.0
  9
$USERR4
 40
0.0
  9
$USERR5
 40
0.0
  9
$WORLDVIEW
 70
     1
  9
$SHADEDGE
 70
     3
  9
$SHADEDIF
 70
    70
  9
$TILEMODE
 70
     1
  9
$MAXACTVP
 70
    64
  9
$PLIMCHECK
 70
     0
  9
$PEXTMIN
 10
0.0
 20
0.0
 30
0.0
  9
$PEXTMAX
 10
0.0
 20
0.0
 30
0.0
  9
$PLIMMIN
 10
0.0
 20
0.0
  9
$PLIMMAX
 10
12.0
 20
9.0
  9
$UNITMODE
 70
     0
  9
$VISRETAIN
 70
     1
  9
$PLINEGEN
 70
     0
  9
$PSLTSCALE
 70
     1
  0
ENDSEC
  0
SECTION
  2
TABLES
  0
TABLE
  2
VPORT
 70
     2
  0
VPORT
  2
*ACTIVE
 70
     0
 10
0.0
 20
0.0
 11
1.0
 21
1.0
 12
697.44506990472451
 22
577.14601254305558
 13
0.0
 23
0.0
 14
10.0
 24
10.0
 15
10.0
 25
10.0
 16
0.0
 26
0.0
 36
1.0
 17
0.0
 27
0.0
 37
0.0
 40
91.889387121641903
 41
2.3219814241486061
 42
50.0
 43
0.0
 44
0.0
 50
0.0
 51
0.0
 71
     0
 72
  1000
 73
     1
 74
     3
 75
     0
 76
     0
 77
     0
 78
     0
  0
ENDTAB
  0
TABLE
  2
LTYPE
 70
     1
  0
LTYPE
  2
CONTINUOUS
 70
     0
  3
Solid line
 72
    65
 73
     0
 40
0.0
  0
ENDTAB
  0
TABLE
  2
LAYER
 70
     1
  0
LAYER
  2
0
 70
     0
 62
     7
  6
CONTINUOUS
  0
ENDTAB
  0
TABLE
  2
STYLE
 70
     2
  0
STYLE
  2
STANDARD
 70
     0
 40
0.0
 41
1.0
 50
0.0
 71
     0
 42
2.5
  3
txt
  4

  0
STYLE
  2
ROMANT
 70
     0
 40
2.5
 41
1.0
 50
15.0
 71
     0
 42
2.5
  3
C:\ACADR13\COMMON\FONTS\romant.shx
  4

  0
ENDTAB
  0
TABLE
  2
VIEW
 70
     0
  0
ENDTAB
  0
TABLE
  2
UCS
 70
     0
  0
ENDTAB
  0
TABLE
  2
APPID
 70
     2
  0
APPID
  2
ACAD
 70
     0
  0
APPID
  2
DCO15
 70
     0
  0
ENDTAB
  0
TABLE
  2
DIMSTYLE
 70
     3
  0
DIMSTYLE
  2
ISO-25
 70
     0
  3

  4

  5

  6

  7

 40
1.0
 41
2.5
 42
0.625
 43
3.75
 44
1.25
 45
0.0
 46
0.0
 47
0.0
 48
0.0
140
2.5
141
2.5
142
0.0
143
0.03937007874016
144
1.0
145
0.0
146
1.0
147
0.625
 71
     0
 72
     0
 73
     0
 74
     0
 75
     0
 76
     0
 77
     1
 78
     8
170
     0
171
     3
172
     1
173
     0
174
     0
175
     0
176
     0
177
     0
178
     0
  0
DIMSTYLE
  2
STANDARD
 70
     0
  3

  4

  5

  6

  7

 40
1.0
 41
0.18
 42
0.0625
 43
0.38
 44
0.18
 45
0.0
 46
0.0
 47
0.0
 48
0.0
140
0.18
141
0.09
142
0.0
143
25.399999999999999
144
1.0
145
0.0
146
1.0
147
0.09
 71
     0
 72
     0
 73
     1
 74
     1
 75
     0
 76
     0
 77
     0
 78
     0
170
     0
171
     2
172
     0
173
     0
174
     0
175
     0
176
     0
177
     0
178
     0
  0
DIMSTYLE
  2
ÝSMAIL_1_5___1
 70
     0
  3

  4

  5

  6

  7

 40
0.0
 41
2.0
 42
0.625
 43
0.38
 44
0.18
 45
0.0
 46
0.0
 47
0.0135
 48
0.0135
140
2.5
141
0.137
142
0.0
143
25.399999999999999
144
1.0
145
0.0
146
1.0
147
0.5
 71
     0
 72
     0
 73
     0
 74
     0
 75
     0
 76
     0
 77
     1
 78
     8
170
     0
171
     2
172
     0
173
     0
174
     0
175
     0
176
     5
177
     5
178
     5
  0
ENDTAB
  0
ENDSEC
  0
SECTION
  2
BLOCKS
  0
BLOCK
  8
0
  2
$MODEL_SPACE
 70
     0
 10
0.0
 20
0.0
 30
0.0
  3
$MODEL_SPACE
  1

  0
ENDBLK
  5
21
  8
0
  0
BLOCK
 67
     1
  8
0
  2
$PAPER_SPACE
 70
     0
 10
0.0
 20
0.0
 30
0.0
  3
$PAPER_SPACE
  1

  0
ENDBLK
  5
53
 67
     1
  8
0
  0
BLOCK
  8
0
  2
*X2
 70
     1
 10
0.0
 20
0.0
 30
0.0
  3
*X2
  1

  0
LINE
  5
280
  8
0
 62
     0
 10
87.63691921936956
 20
0.0037523698092485
 30
0.0
 11
89.996247537940604
 21
2.3630806883802928
 31
0.0
  0
LINE
  5
281
  8
0
 62
     0
 10
86.286128596765806
 20
0.0000001653658472
 30
0.0
 11
89.999999742383864
 21
3.7138713109839179
 31
0.0
  0
LINE
  5
282
  8
0
 62
     0
 10
84.939090178605255
 20
0.0000001653656767
 30
0.0
 11
89.999999742383864
 21
5.06090972914427
 31
0.0
  0
LINE
  5
283
  8
0
 62
     0
 10
86.999999742383864
 20
3.4079481473046789
 30
0.0
 11
89.999999742383835
 21
6.4079481473046513
 31
0.0
  0
LINE
  5
284
  8
0
 62
     0
 10
83.592051760444718
 20
0.0000001653655346
 30
0.0
 11
86.592051760445244
 21
3.00000016536606
 31
0.0
  0
LINE
  5
285
  8
0
 62
     0
 10
86.999999742383892
 20
4.7549865654650603
 30
0.0
 11
89.999999742383835
 21
7.754986565465031
 31
0.0
  0
LINE
  5
286
  8
0
 62
     0
 10
82.245013342284196
 20
0.0000001653653641
 30
0.0
 11
85.245013342284892
 21
3.0000001653660742
 31
0.0
  0
LINE
  5
287
  8
0
 62
     0
 10
86.999999742383864
 20
6.1020249836254257
 30
0.0
 11
89.999999742383864
 21
9.1020249836254123
 31
0.0
  0
LINE
  5
288
  8
0
 62
     0
 10
80.897974924123645
 20
0.0000001653651935
 30
0.0
 11
83.897974924124512
 21
3.00000016536606
 31
0.0
  0
LINE
  5
289
  8
0
 62
     0
 10
86.999999742383864
 20
7.4490634017857777
 30
0.0
 11
89.999999742383864
 21
10.449063401785761
 31
0.0
  0
LINE
  5
28A
  8
0
 62
     0
 10
79.55093650596308
 20
0.0000001653650088
 30
0.0
 11
82.550936505964117
 21
3.00000016536606
 31
0.0
  0
LINE
  5
28B
  8
0
 62
     0
 10
86.999999742383864
 20
8.7961018199461432
 30
0.0
 11
89.999999742383835
 21
11.796101819946131
 31
0.0
  0
LINE
  5
28C
  8
0
 62
     0
 10
78.203898087802571
 20
0.0000001653648525
 30
0.0
 11
81.203898087803751
 21
3.0000001653660462
 31
0.0
  0
LINE
  5
28D
  8
0
 62
     0
 10
86.999999742383864
 20
10.14314023810652
 30
0.0
 11
89.999999742383835
 21
13.143140238106509
 31
0.0
  0
LINE
  5
28E
  8
0
 62
     0
 10
76.85685966964202
 20
0.0000001653646819
 30
0.0
 11
79.85685966964337
 21
3.0000001653660311
 31
0.0
  0
LINE
  5
28F
  8
0
 62
     0
 10
86.999999742383864
 20
11.49017865626692
 30
0.0
 11
89.999999742383864
 21
14.490178656266901
 31
0.0
  0
LINE
  5
290
  8
0
 62
     0
 10
75.509821251481483
 20
0.0000001653645256
 30
0.0
 11
78.509821251483018
 21
3.00000016536606
 31
0.0
  0
LINE
  5
291
  8
0
 62
     0
 10
85.909155641674687
 20
11.74637297371809
 30
0.0
 11
89.999999742383864
 21
15.83721707442726
 31
0.0
  0
LINE
  5
292
  8
0
 62
     0
 10
74.162782833320961
 20
0.0000001653643693
 30
0.0
 11
77.221594789138322
 21
3.0588121211817452
 31
0.0
  0
LINE
  5
293
  8
0
 62
     0
 10
83.791269827625968
 20
10.975525577829741
 30
0.0
 11
89.999999742383835
 21
17.184255492587621
 31
0.0
  0
LINE
  5
294
  8
0
 62
     0
 10
72.815744415160395
 20
0.0000001653641704
 30
0.0
 11
77.099999742383886
 21
4.2842554925876613
 31
0.0
  0
LINE
  5
295
  8
0
 62
     0
 10
81.673384013577234
 20
10.20467818194142
 30
0.0
 11
88.999999742383736
 21
17.531293910747898
 31
0.0
  0
LINE
  5
296
  8
0
 62
     0
 10
72.468705997001834
 20
1.0000001653660171
 30
0.0
 11
77.099999742383872
 21
5.6312939107480409
 31
0.0
  0
LINE
  5
297
  8
0
 62
     0
 10
79.555498199528529
 20
9.4338307860530648
 30
0.0
 11
84.574969754832864
 21
14.45330234135737
 31
0.0
  0
LINE
  5
298
  8
0
 62
     0
 10
84.999999742382101
 20
14.87833232890662
 30
0.0
 11
88.521667578841885
 21
18.400000165366428
 31
0.0
  0
LINE
  5
299
  8
0
 62
     0
 10
71.599999742383943
 20
1.4783323289084791
 30
0.0
 11
77.099999742383872
 21
6.9783323289083929
 31
0.0
  0
LINE
  5
29A
  8
0
 62
     0
 10
78.023068716651608
 20
9.2484397213365082
 30
0.0
 11
82.457083940784145
 21
13.682454945469029
 31
0.0
  0
LINE
  5
29B
  8
0
 62
     0
 10
74.099999742383929
 20
5.3253707470688312
 30
0.0
 11
77.099999742383886
 21
8.3253707470687743
 31
0.0
  0
LINE
  5
29C
  8
0
 62
     0
 10
84.999999742382741
 20
16.225370747067629
 30
0.0
 11
87.174629160681548
 21
18.400000165366428
 31
0.0
  0
LINE
  5
29D
  8
0
 62
     0
 10
71.599999742383929
 20
2.8253707470688312
 30
0.0
 11
73.774629160681172
 21
5.0000001653660737
 31
0.0
  0
LINE
  5
29E
  8
0
 62
     0
 10
74.099999742383943
 20
6.6724091652292108
 30
0.0
 11
80.339198126735425
 21
12.91160754958069
 31
0.0
  0
LINE
  5
29F
  8
0
 62
     0
 10
84.999999742383352
 20
17.572409165228621
 30
0.0
 11
85.827590742521181
 21
18.40000016536645
 31
0.0
  0
LINE
  5
2A0
  8
0
 62
     0
 10
71.599999742383915
 20
4.1724091652291966
 30
0.0
 11
72.427590742520806
 21
5.0000001653660879
 31
0.0
  0
LINE
  5
2A1
  8
0
 62
     0
 10
74.099999742383929
 20
8.0194475833895762
 30
0.0
 11
78.642540226576358
 21
12.561988067582011
 31
0.0
  0
LINE
  5
2A2
  8
0
 62
     0
 10
74.099999742383929
 20
9.3664860015499443
 30
0.0
 11
77.967797588301124
 21
13.23428384746714
 31
0.0
  0
LINE
  5
2A3
  8
0
 62
     0
 10
74.099999742383943
 20
10.713524419710319
 30
0.0
 11
77.294278379220899
 21
13.90780305654728
 31
0.0
  0
LINE
  5
2A4
  8
0
 62
     0
 10
74.099999742383943
 20
12.0605628378707
 30
0.0
 11
76.620759170140673
 21
14.58132226562743
 31
0.0
  0
LINE
  5
2A5
  8
0
 62
     0
 10
88.639437069879577
 20
26.60000016536635
 30
0.0
 11
88.999999742381931
 21
26.9605628378687
 31
0.0
  0
LINE
  5
2A6
  8
0
 62
     0
 10
63.039437069877287
 20
1.000000165364056
 30
0.0
 11
63.399999742383891
 21
1.3605628378706589
 31
0.0
  0
LINE
  5
2A7
  8
0
 62
     0
 10
89.539437069879327
 20
27.500000165366099
 30
0.0
 11
89.999999742383537
 21
27.960562837870341
 31
0.0
  0
LINE
  5
2A8
  8
0
 62
     0
 10
62.039437069877302
 20
0.0000001653640709
 30
0.0
 11
62.499999742383871
 21
0.4605628378706257
 31
0.0
  0
LINE
  5
2A9
  8
0
 62
     0
 10
74.089170164080144
 20
13.39677167772729
 30
0.0
 11
75.953739503085956
 21
15.2613410167331
 31
0.0
  0
LINE
  5
2AA
  8
0
 62
     0
 10
87.292398651719139
 20
26.600000165366279
 30
0.0
 11
89.999999742383579
 21
29.30760125603075
 31
0.0
  0
LINE
  5
2AB
  8
0
 62
     0
 10
60.692398651716921
 20
0.0000001653640709
 30
0.0
 11
63.399999742383912
 21
2.7076012560310678
 31
0.0
  0
LINE
  5
2AC
  8
0
 62
     0
 10
73.508236375822719
 20
14.16287630763024
 30
0.0
 11
75.749999742383849
 21
16.404639674191369
 31
0.0
  0
LINE
  5
2AD
  8
0
 62
     0
 10
85.94536023355866
 20
26.6000001653662
 30
0.0
 11
89.999999742383608
 21
30.65463967419112
 31
0.0
  0
LINE
  5
2AE
  8
0
 62
     0
 10
59.345360233556526
 20
0.0000001653640567
 30
0.0
 11
63.399999742383919
 21
4.0546396741914492
 31
0.0
  0
LINE
  5
2AF
  8
0
 62
     0
 10
72.248321815396295
 20
14.250000165364179
 30
0.0
 11
75.749999742383864
 21
17.751678092351749
 31
0.0
  0
LINE
  5
2B0
  8
0
 62
     0
 10
84.999999742381959
 20
27.00167809234987
 30
0.0
 11
89.999999742383608
 21
32.001678092351511
 31
0.0
  0
LINE
  5
2B1
  8
0
 62
     0
 10
57.998321815396181
 20
0.0000001653640709
 30
0.0
 11
62.998321815396338
 21
5.0000001653642272
 31
0.0
  0
LINE
  5
2B2
  8
0
 62
     0
 10
70.901283397235915
 20
14.25000016536417
 30
0.0
 11
75.749999742383864
 21
19.098716510512102
 31
0.0
  0
LINE
  5
2B3
  8
0
 62
     0
 10
84.999999742381974
 20
28.348716510510229
 30
0.0
 11
89.999999742383636
 21
33.348716510511878
 31
0.0
  0
LINE
  5
2B4
  8
0
 62
     0
 10
56.651283397235808
 20
0.0000001653640709
 30
0.0
 11
61.651283397236689
 21
5.0000001653649511
 31
0.0
  0
LINE
  5
2B5
  8
0
 62
     0
 10
73.089093135163694
 20
17.784848321452301
 30
0.0
 11
75.749999742383835
 21
20.445754928672471
 31
0.0
  0
LINE
  5
2B6
  8
0
 62
     0
 10
69.55424497907552
 20
14.250000165364151
 30
0.0
 11
72.215151586295974
 21
16.910906772584589
 31
0.0
  0
LINE
  5
2B7
  8
0
 62
     0
 10
84.404244979077546
 20
29.10000016536614
 30
0.0
 11
89.999999742383636
 21
34.695754928672272
 31
0.0
  0
LINE
  5
2B8
  8
0
 62
     0
 10
55.30424497907542
 20
0.0000001653640567
 30
0.0
 11
60.304244979077069
 21
5.0000001653657051
 31
0.0
  0
LINE
  5
2B9
  8
0
 62
     0
 10
72.685709932836161
 20
18.728503537285182
 30
0.0
 11
75.749999742383849
 21
21.79279334683287
 31
0.0
  0
LINE
  5
2BA
  8
0
 62
     0
 10
83.057206560917123
 20
29.100000165366161
 30
0.0
 11
86.057206560915219
 21
32.100000165364222
 31
0.0
  0
LINE
  5
2BB
  8
0
 62
     0
 10
68.207206560915139
 20
14.250000165364151
 30
0.0
 11
71.271496370463069
 21
17.314289974912079
 31
0.0
  0
LINE
  5
2BC
  8
0
 62
     0
 10
87.509787256214381
 20
33.55258086066339
 30
0.0
 11
89.999999742383679
 21
36.042793346832681
 31
0.0
  0
LINE
  5
2BD
  8
0
 62
     0
 10
53.957206560915068
 20
0.0000001653640851
 30
0.0
 11
59.434338396529853
 21
5.4771320009788553
 31
0.0
  0
LINE
  5
2BE
  8
0
 62
     0
 10
72.012190723755921
 20
19.402022746365301
 30
0.0
 11
75.749999742383864
 21
23.13983176499325
 31
0.0
  0
LINE
  5
2BF
  8
0
 62
     0
 10
66.860168142754745
 20
14.25000016536414
 30
0.0
 11
70.597977161382786
 21
17.987809183992169
 31
0.0
  0
LINE
  5
2C0
  8
0
 62
     0
 10
81.710168142756757
 20
29.100000165366129
 30
0.0
 11
84.710168142754839
 21
32.100000165364222
 31
0.0
  0
LINE
  5
2C1
  8
0
 62
     0
 10
56.734268326428619
 20
4.1241003490379882
 30
0.0
 11
59.074886352558231
 21
6.46471837516762
 31
0.0
  0
LINE
  5
2C2
  8
0
 62
     0
 10
87.326420769972756
 20
34.716252792582118
 30
0.0
 11
89.999999742383679
 21
37.389831764993048
 31
0.0
  0
LINE
  5
2C3
  8
0
 62
     0
 10
52.610168142754681
 20
0.0000001653640709
 30
0.0
 11
55.610168142754752
 21
3.0000001653641268
 31
0.0
  0
LINE
  5
2C4
  8
0
 62
     0
 10
72.272692609824119
 20
21.009563050593851
 30
0.0
 11
72.763129724590371
 21
21.50000016536012
 31
0.0
  0
LINE
  5
2C5
  8
0
 62
     0
 10
68.4999997423823
 20
17.236870183152028
 30
0.0
 11
68.990436857153099
 21
17.727307297922849
 31
0.0
  0
LINE
  5
2C6
  8
0
 62
     0
 10
73.976886627562607
 20
22.713757068332342
 30
0.0
 11
75.749999742383864
 21
24.486870183153609
 31
0.0
  0
LINE
  5
2C7
  8
0
 62
     0
 10
65.513129724594364
 20
14.250000165364099
 30
0.0
 11
67.286242839415863
 21
16.023113280185608
 31
0.0
  0
LINE
  5
2C8
  8
0
 62
     0
 10
80.363129724596376
 20
29.10000016536614
 30
0.0
 11
83.363129724594444
 21
32.100000165364222
 31
0.0
  0
LINE
  5
2C9
  8
0
 62
     0
 10
56.374816282456997
 20
5.1116867232267529
 30
0.0
 11
58.715434308586623
 21
7.4523047493563723
 31
0.0
  0
LINE
  5
2CA
  8
0
 62
     0
 10
87.143054283731075
 20
35.879924724500839
 30
0.0
 11
89.999999742383693
 21
38.736870183153442
 31
0.0
  0
LINE
  5
2CB
  8
0
 62
     0
 10
51.263129724594322
 20
0.0000001653640709
 30
0.0
 11
54.263129724594393
 21
3.0000001653641268
 31
0.0
  0
LINE
  5
2CC
  8
0
 62
     0
 10
73.352066280757981
 20
23.4359751396881
 30
0.0
 11
75.749999742383835
 21
25.833908601313968
 31
0.0
  0
LINE
  5
2CD
  8
0
 62
     0
 10
64.166091306433998
 20
14.25000016536411
 30
0.0
 11
66.564024768061174
 21
16.6479336269913
 31
0.0
  0
LINE
  5
2CE
  8
0
 62
     0
 10
79.016091306436039
 20
29.10000016536614
 30
0.0
 11
82.016091306434078
 21
32.100000165364193
 31
0.0
  0
LINE
  5
2CF
  8
0
 62
     0
 10
56.01536423848539
 20
6.0992730974155194
 30
0.0
 11
58.355982264615022
 21
8.4398911235451521
 31
0.0
  0
LINE
  5
2D0
  8
0
 62
     0
 10
86.999999742382613
 20
37.083908601312729
 30
0.0
 11
89.999999742383665
 21
40.083908601313802
 31
0.0
  0
LINE
  5
2D1
  8
0
 62
     0
 10
49.916091306433927
 20
0.0000001653640567
 30
0.0
 11
52.916091306434019
 21
3.000000165364141
 31
0.0
  0
LINE
  5
2D2
  8
0
 62
     0
 10
72.336650970458905
 20
23.767598247549412
 30
0.0
 11
75.749999742383835
 21
27.180947019474349
 31
0.0
  0
LINE
  5
2D3
  8
0
 62
     0
 10
62.819052888273589
 20
14.25000016536408
 30
0.0
 11
66.232401660198576
 21
17.663348937289079
 31
0.0
  0
LINE
  5
2D4
  8
0
 62
     0
 10
77.669052888275644
 20
29.10000016536614
 30
0.0
 11
80.669052888273711
 21
32.100000165364207
 31
0.0
  0
LINE
  5
2D5
  8
0
 62
     0
 10
55.655912194513789
 20
7.0868594716042992
 30
0.0
 11
57.996530220643379
 21
9.4274774977338893
 31
0.0
  0
LINE
  5
2D6
  8
0
 62
     0
 10
86.999999742382656
 20
38.430947019473138
 30
0.0
 11
89.999999742383721
 21
41.43094701947421
 31
0.0
  0
LINE
  5
2D7
  8
0
 62
     0
 10
48.569052888273568
 20
0.0000001653640709
 30
0.0
 11
51.569052888273639
 21
3.0000001653641561
 31
0.0
  0
LINE
  5
2D8
  8
0
 62
     0
 10
61.47201447011318
 20
14.25000016536406
 30
0.0
 11
65.254571103963045
 21
18.032556799213921
 31
0.0
  0
LINE
  5
2D9
  8
0
 62
     0
 10
71.967443108533729
 20
24.745428803784591
 30
0.0
 11
79.322014470113345
 21
32.100000165364243
 31
0.0
  0
LINE
  5
2DA
  8
0
 62
     0
 10
55.296460150542181
 20
8.0744458457930506
 30
0.0
 11
57.637078176671778
 21
10.415063871922641
 31
0.0
  0
LINE
  5
2DB
  8
0
 62
     0
 10
86.999999742382727
 20
39.777985437633589
 30
0.0
 11
89.999999742383679
 21
42.777985437634577
 31
0.0
  0
LINE
  5
2DC
  8
0
 62
     0
 10
47.222014470113187
 20
0.0000001653640567
 30
0.0
 11
50.22201447011328
 21
3.000000165364141
 31
0.0
  0
LINE
  5
2DD
  8
0
 62
     0
 10
73.089203454595022
 20
27.214227568006269
 30
0.0
 11
77.974976051952979
 21
32.100000165364207
 31
0.0
  0
LINE
  5
2DE
  8
0
 62
     0
 10
54.937008106570573
 20
9.0620322199818162
 30
0.0
 11
62.785772339742103
 21
16.910796453153338
 31
0.0
  0
LINE
  5
2DF
  8
0
 62
     0
 10
86.999999742382755
 20
41.125023855793977
 30
0.0
 11
89.999999742383764
 21
44.125023855794979
 31
0.0
  0
LINE
  5
2E0
  8
0
 62
     0
 10
45.874976051952828
 20
0.0000001653640709
 30
0.0
 11
48.87497605195292
 21
3.0000001653641699
 31
0.0
  0
LINE
  5
2E1
  8
0
 62
     0
 10
72.526713095040776
 20
27.998775626612399
 30
0.0
 11
76.627937633792612
 21
32.100000165364222
 31
0.0
  0
LINE
  5
2E2
  8
0
 62
     0
 10
54.577556062598973
 20
10.04961859417058
 30
0.0
 11
62.001224281135798
 21
17.473286812707411
 31
0.0
  0
LINE
  5
2E3
  8
0
 62
     0
 10
86.999999742382812
 20
42.4720622739544
 30
0.0
 11
89.999999742383764
 21
45.472062273955338
 31
0.0
  0
LINE
  5
2E4
  8
0
 62
     0
 10
44.527937633792448
 20
0.0000001653640709
 30
0.0
 11
47.527937633792519
 21
3.000000165364141
 31
0.0
  0
LINE
  5
2E5
  8
0
 62
     0
 10
70.006985490585208
 20
26.826086440317191
 30
0.0
 11
75.280899215632203
 21
32.100000165364207
 31
0.0
  0
LINE
  5
2E6
  8
0
 62
     0
 10
54.224658476421531
 20
11.04375942615351
 30
0.0
 11
63.173913467432328
 21
19.993014417164321
 31
0.0
  0
LINE
  5
2E7
  8
0
 62
     0
 10
86.999999742382855
 20
43.81910069211483
 30
0.0
 11
89.999999742383764
 21
46.819100692115697
 31
0.0
  0
LINE
  5
2E8
  8
0
 62
     0
 10
43.180899215632067
 20
0.0000001653640567
 30
0.0
 11
46.180899215632159
 21
3.000000165364141
 31
0.0
  0
LINE
  5
2E9
  8
0
 62
     0
 10
69.078241871997847
 20
27.24438123989022
 30
0.0
 11
73.933860797471851
 21
32.100000165364222
 31
0.0
  0
LINE
  5
2EA
  8
0
 62
     0
 10
58.749999742383743
 20
16.916139110276092
 30
0.0
 11
62.755618667858514
 21
20.92175803575088
 31
0.0
  0
LINE
  5
2EB
  8
0
 62
     0
 10
86.999999742382883
 20
45.16613911027526
 30
0.0
 11
89.999999742383693
 21
48.166139110276063
 31
0.0
  0
LINE
  5
2EC
  8
0
 62
     0
 10
41.833860797471679
 20
0.0000001653640567
 30
0.0
 11
44.833860797471793
 21
3.0000001653641699
 31
0.0
  0
LINE
  5
2ED
  8
0
 62
     0
 10
68.4999140428841
 20
28.013091828936819
 30
0.0
 11
72.586822379311457
 21
32.100000165364193
 31
0.0
  0
LINE
  5
2EE
  8
0
 62
     0
 10
58.749999742383757
 20
18.263177528436501
 30
0.0
 11
61.986908078811062
 21
21.500085864863799
 31
0.0
  0
LINE
  5
2EF
  8
0
 62
     0
 10
86.999999742382826
 20
46.513177528435548
 30
0.0
 11
89.999999742383693
 21
49.513177528436422
 31
0.0
  0
LINE
  5
2F0
  8
0
 62
     0
 10
40.486822379311327
 20
0.0000001653640709
 30
0.0
 11
43.486822379311427
 21
3.0000001653641699
 31
0.0
  0
LINE
  5
2F1
  8
0
 62
     0
 10
68.003676282518327
 20
28.863892486731419
 30
0.0
 11
71.239783961151105
 21
32.100000165364193
 31
0.0
  0
LINE
  5
2F2
  8
0
 62
     0
 10
58.749999742383771
 20
19.610215946596881
 30
0.0
 11
61.136107421015083
 21
21.996323625228172
 31
0.0
  0
LINE
  5
2F3
  8
0
 62
     0
 10
86.999999742382784
 20
47.860215946595879
 30
0.0
 11
89.999999742383679
 21
50.860215946596803
 31
0.0
  0
LINE
  5
2F4
  8
0
 62
     0
 10
39.139783961150968
 20
0.0000001653640709
 30
0.0
 11
42.139783961151082
 21
3.0000001653641841
 31
0.0
  0
LINE
  5
2F5
  8
0
 62
     0
 10
64.605548132145145
 20
26.812802754518611
 30
0.0
 11
69.892745542990724
 21
32.100000165364207
 31
0.0
  0
LINE
  5
2F6
  8
0
 62
     0
 10
58.749999742383778
 20
20.957254364757262
 30
0.0
 11
63.187197153234941
 21
25.394451775608399
 31
0.0
  0
LINE
  5
2F7
  8
0
 62
     0
 10
86.999999742382727
 20
49.207254364756203
 30
0.0
 11
89.999999742383665
 21
52.207254364757141
 31
0.0
  0
LINE
  5
2F8
  8
0
 62
     0
 10
37.792745542990581
 20
0.0000001653640567
 30
0.0
 11
40.792745542990687
 21
3.0000001653641699
 31
0.0
  0
LINE
  5
2F9
  8
0
 62
     0
 10
63.92996021479582
 20
27.484253255329691
 30
0.0
 11
68.545707124830344
 21
32.100000165364222
 31
0.0
  0
LINE
  5
2FA
  8
0
 62
     0
 10
58.749999742383793
 20
22.30429278291766
 30
0.0
 11
62.515746652420361
 21
26.070039692954229
 31
0.0
  0
LINE
  5
2FB
  8
0
 62
     0
 10
86.999999742382698
 20
50.554292782916541
 30
0.0
 11
89.999999742383665
 21
53.554292782917507
 31
0.0
  0
LINE
  5
2FC
  8
0
 62
     0
 10
36.4457071248302
 20
0.0000001653640567
 30
0.0
 11
39.445707124830321
 21
3.0000001653641841
 31
0.0
  0
LINE
  5
2FD
  8
0
 62
     0
 10
63.161175705732042
 20
28.062507164426279
 30
0.0
 11
67.198668706669963
 21
32.100000165364193
 31
0.0
  0
LINE
  5
2FE
  8
0
 62
     0
 10
58.749999742383807
 20
23.65133120107804
 30
0.0
 11
61.937492743321918
 21
26.838824202016159
 31
0.0
  0
LINE
  5
2FF
  8
0
 62
     0
 10
86.999999742382656
 20
51.901331201076879
 30
0.0
 11
89.999999742383665
 21
54.90133120107788
 31
0.0
  0
LINE
  5
300
  8
0
 62
     0
 10
35.098668706669862
 20
0.0000001653640851
 30
0.0
 11
38.098668706669969
 21
3.0000001653641979
 31
0.0
  0
LINE
  5
301
  8
0
 62
     0
 10
58.749999742383821
 20
24.998369619238421
 30
0.0
 11
65.851630288509597
 21
32.100000165364193
 31
0.0
  0
LINE
  5
302
  8
0
 62
     0
 10
87.008818679455715
 20
53.257188556310297
 30
0.0
 11
89.999999742383665
 21
56.248369619238247
 31
0.0
  0
LINE
  5
303
  8
0
 62
     0
 10
33.751630288509467
 20
0.0000001653640709
 30
0.0
 11
36.751630288509602
 21
3.0000001653641979
 31
0.0
  0
LINE
  5
304
  8
0
 62
     0
 10
58.749999742383828
 20
26.345408037398801
 30
0.0
 11
64.50459187034923
 21
32.100000165364207
 31
0.0
  0
LINE
  5
305
  8
0
 62
     0
 10
87.258723789381804
 20
54.854132084396753
 30
0.0
 11
89.999999742383636
 21
57.595408037398578
 31
0.0
  0
LINE
  5
306
  8
0
 62
     0
 10
32.404591870349087
 20
0.0000001653640567
 30
0.0
 11
35.404591870349222
 21
3.0000001653641841
 31
0.0
  0
LINE
  5
307
  8
0
 62
     0
 10
58.749999742383828
 20
27.692446455559171
 30
0.0
 11
63.15755345218885
 21
32.100000165364207
 31
0.0
  0
LINE
  5
308
  8
0
 62
     0
 10
87.510687810044743
 20
56.453134523220072
 30
0.0
 11
89.999999742383608
 21
58.942446455558972
 31
0.0
  0
LINE
  5
309
  8
0
 62
     0
 10
31.057553452188721
 20
0.0000001653640709
 30
0.0
 11
34.057553452188863
 21
3.0000001653642121
 31
0.0
  0
LINE
  5
30A
  8
0
 62
     0
 10
58.749999742383842
 20
29.03948487371958
 30
0.0
 11
61.810515034028469
 21
32.100000165364193
 31
0.0
  0
LINE
  5
30B
  8
0
 62
     0
 10
87.48501098674619
 20
57.774496118081899
 30
0.0
 11
89.999999742383594
 21
60.28948487371931
 31
0.0
  0
LINE
  5
30C
  8
0
 62
     0
 10
29.710515034028351
 20
0.0000001653640851
 30
0.0
 11
32.98603685616709
 21
3.2755219875028132
 31
0.0
  0
LINE
  5
30D
  8
0
 62
     0
 10
58.774300194662771
 20
30.410823744158861
 30
0.0
 11
60.439176163589181
 21
32.075699713085257
 31
0.0
  0
LINE
  5
30E
  8
0
 62
     0
 10
86.263476615869152
 20
57.900000165365228
 30
0.0
 11
89.999999742383565
 21
61.636523291879641
 31
0.0
  0
LINE
  5
30F
  8
0
 62
     0
 10
28.363476615867981
 20
0.0000001653640709
 30
0.0
 11
33.711032682773151
 21
5.3475562322692411
 31
0.0
  0
LINE
  5
310
  8
0
 62
     0
 10
84.916438197708757
 20
57.900000165365228
 30
0.0
 11
89.516438197706847
 21
62.500000165363339
 31
0.0
  0
LINE
  5
311
  8
0
 62
     0
 10
27.49999974238386
 20
0.4835617100403198
 30
0.0
 11
34.481880078661639
 21
7.4654420463181017
 31
0.0
  0
LINE
  5
312
  8
0
 62
     0
 10
83.569399779548405
 20
57.900000165365242
 30
0.0
 11
88.943974481631443
 21
63.27457486744828
 31
0.0
  0
LINE
  5
313
  8
0
 62
     0
 10
26.725425040298099
 20
1.056025426114956
 30
0.0
 11
35.252727474550142
 21
9.5833278603669783
 31
0.0
  0
LINE
  5
314
  8
0
 62
     0
 10
31.004103315133928
 20
6.6817421191111492
 30
0.0
 11
35.779875166027082
 21
11.4575139700043
 31
0.0
  0
LINE
  5
315
  8
0
 62
     0
 10
82.222361361388025
 20
57.900000165365242
 30
0.0
 11
87.722361361385936
 21
63.400000165363139
 31
0.0
  0
LINE
  5
316
  8
0
 62
     0
 10
26.599999742383812
 20
2.277638546361032
 30
0.0
 11
29.322361361388278
 21
5.0000001653654911
 31
0.0
  0
LINE
  5
317
  8
0
 62
     0
 10
80.875322943227687
 20
57.900000165365242
 30
0.0
 11
83.875322943225726
 21
60.900000165363309
 31
0.0
  0
LINE
  5
318
  8
0
 62
     0
 10
31.774950711022409
 20
8.7996279331599965
 30
0.0
 11
35.225098209880343
 21
12.24977543201793
 31
0.0
  0
LINE
  5
319
  8
0
 62
     0
 10
84.999999742381959
 20
62.024676964519529
 30
0.0
 11
86.375322943225655
 21
63.400000165363217
 31
0.0
  0
LINE
  5
31A
  8
0
 62
     0
 10
26.599999742383801
 20
3.6246769645213841
 30
0.0
 11
27.97532294322717
 21
5.000000165364753
 31
0.0
  0
LINE
  5
31B
  8
0
 62
     0
 10
79.528284525067306
 20
57.900000165365242
 30
0.0
 11
82.528284525065374
 21
60.900000165363309
 31
0.0
  0
LINE
  5
31C
  8
0
 62
     0
 10
32.385954783293002
 20
10.75767042359095
 30
0.0
 11
34.55157900080026
 21
12.923294641098209
 31
0.0
  0
LINE
  5
31D
  8
0
 62
     0
 10
78.18124610690694
 20
57.900000165365242
 30
0.0
 11
81.181246106904993
 21
60.900000165363309
 31
0.0
  0
LINE
  5
31E
  8
0
 62
     0
 10
31.756739448160481
 20
11.4754935066188
 30
0.0
 11
33.878059791720162
 21
13.59681385017848
 31
0.0
  0
LINE
  5
31F
  8
0
 62
     0
 10
76.834207688746545
 20
57.900000165365228
 30
0.0
 11
79.834207688744641
 21
60.90000016536333
 31
0.0
  0
LINE
  5
320
  8
0
 62
     0
 10
31.083220239080379
 20
12.14901271569909
 30
0.0
 11
33.204540582640071
 21
14.270333059258769
 31
0.0
  0
LINE
  5
321
  8
0
 62
     0
 10
75.487169270586165
 20
57.900000165365228
 30
0.0
 11
78.487169270584261
 21
60.90000016536333
 31
0.0
  0
LINE
  5
322
  8
0
 62
     0
 10
30.409701030000281
 20
12.82253192477935
 30
0.0
 11
32.53102137355998
 21
14.94385226833905
 31
0.0
  0
LINE
  5
323
  8
0
 62
     0
 10
74.140130852425784
 20
57.900000165365228
 30
0.0
 11
77.140130852423894
 21
60.90000016536333
 31
0.0
  0
LINE
  5
324
  8
0
 62
     0
 10
29.736181820920169
 20
13.496051133859609
 30
0.0
 11
31.857502164479872
 21
15.61737147741931
 31
0.0
  0
LINE
  5
325
  8
0
 62
     0
 10
87.84013085242357
 20
71.600000165362999
 30
0.0
 11
89.999999742383835
 21
73.759869055323279
 31
0.0
  0
LINE
  5
326
  8
0
 62
     0
 10
16.240130852424901
 20
0.0000001653643409
 30
0.0
 11
18.39999974238378
 21
2.1598690553232269
 31
0.0
  0
LINE
  5
327
  8
0
 62
     0
 10
72.793092434265432
 20
57.900000165365228
 30
0.0
 11
76.064767654175725
 21
61.17167538527552
 31
0.0
  0
LINE
  5
328
  8
0
 62
     0
 10
29.029988410823488
 20
14.1368961419233
 30
0.0
 11
31.24999974238396
 21
16.356907473483769
 31
0.0
  0
LINE
  5
329
  8
0
 62
     0
 10
86.493092434263204
 20
71.600000165362999
 30
0.0
 11
89.999999742383835
 21
75.106907473483645
 31
0.0
  0
LINE
  5
32A
  8
0
 62
     0
 10
14.89309243426468
 20
0.0000001653644972
 30
0.0
 11
18.39999974238378
 21
3.5069074734835932
 31
0.0
  0
LINE
  5
32B
  8
0
 62
     0
 10
71.446054016105023
 20
57.900000165365242
 30
0.0
 11
75.749999742383835
 21
62.203945891644032
 31
0.0
  0
LINE
  5
32C
  8
0
 62
     0
 10
27.796054016103881
 20
14.25000016536408
 30
0.0
 11
31.249999742383949
 21
17.70394589164415
 31
0.0
  0
LINE
  5
32D
  8
0
 62
     0
 10
85.173861025538116
 20
71.627807174798306
 30
0.0
 11
89.999999742383835
 21
76.453945891644025
 31
0.0
  0
LINE
  5
32E
  8
0
 62
     0
 10
13.54605401610446
 20
0.0000001653646677
 30
0.0
 11
18.372192732949411
 21
4.8261388822096194
 31
0.0
  0
LINE
  5
32F
  8
0
 62
     0
 10
70.099015597944657
 20
57.900000165365242
 30
0.0
 11
75.749999742383864
 21
63.55098430980442
 31
0.0
  0
LINE
  5
330
  8
0
 62
     0
 10
26.449015597943529
 20
14.250000165364099
 30
0.0
 11
31.249999742383949
 21
19.050984309804502
 31
0.0
  0
LINE
  5
331
  8
0
 62
     0
 10
84.999999742383153
 20
72.800984309803709
 30
0.0
 11
89.999999742383835
 21
77.800984309804392
 31
0.0
  0
LINE
  5
332
  8
0
 62
     0
 10
12.199015597944269
 20
0.0000001653648383
 30
0.0
 11
17.199015597945522
 21
5.0000001653660879
 31
0.0
  0
LINE
  5
333
  8
0
 62
     0
 10
68.751977179784319
 20
57.900000165365242
 30
0.0
 11
75.749999742383864
 21
64.898022727964786
 31
0.0
  0
LINE
  5
334
  8
0
 62
     0
 10
25.10197717978318
 20
14.25000016536411
 30
0.0
 11
31.249999742383942
 21
20.398022727964872
 31
0.0
  0
LINE
  5
335
  8
0
 62
     0
 10
84.999999742382556
 20
74.148022727963479
 30
0.0
 11
89.999999742383864
 21
79.148022727964786
 31
0.0
  0
LINE
  5
336
  8
0
 62
     0
 10
10.85197717978404
 20
0.0000001653649804
 30
0.0
 11
15.89999974238378
 21
5.0480227279647201
 31
0.0
  0
LINE
  5
337
  8
0
 62
     0
 10
27.942090879697801
 20
18.437152283439101
 30
0.0
 11
31.249999742383942
 21
21.745061146125241
 31
0.0
  0
LINE
  5
338
  8
0
 62
     0
 10
67.404938761623953
 20
57.900000165365242
 30
0.0
 11
71.562847624309597
 21
62.057909028050879
 31
0.0
  0
LINE
  5
339
  8
0
 62
     0
 10
23.75493876162281
 20
14.25000016536411
 30
0.0
 11
26.562847624310951
 21
17.057909028052251
 31
0.0
  0
LINE
  5
33A
  8
0
 62
     0
 10
72.942090879696451
 20
63.437152283437769
 30
0.0
 11
75.749999742383864
 21
66.245061146125153
 31
0.0
  0
LINE
  5
33B
  8
0
 62
     0
 10
12.89999974238385
 20
3.3950611461251579
 30
0.0
 11
15.89999974238378
 21
6.3950611461250872
 31
0.0
  0
LINE
  5
33C
  8
0
 62
     0
 10
84.924439867026564
 20
75.419501270767881
 30
0.0
 11
89.999999742383835
 21
80.495061146125153
 31
0.0
  0
LINE
  5
33D
  8
0
 62
     0
 10
9.5049387616238477
 20
0.0000001653651509
 30
0.0
 11
12.504938761624731
 21
3.0000001653660311
 31
0.0
  0
LINE
  5
33E
  8
0
 62
     0
 10
66.057900343463544
 20
57.900000165365228
 30
0.0
 11
70.871843261736217
 21
62.713943083637879
 31
0.0
  0
LINE
  5
33F
  8
0
 62
     0
 10
27.286056824110641
 20
19.128156646012329
 30
0.0
 11
31.24999974238392
 21
23.092099564285601
 31
0.0
  0
LINE
  5
340
  8
0
 62
     0
 10
72.286056824109323
 20
64.128156646010993
 30
0.0
 11
75.749999742383892
 21
67.592099564285562
 31
0.0
  0
LINE
  5
341
  8
0
 62
     0
 10
22.407900343462462
 20
14.25000016536414
 30
0.0
 11
25.871843261734021
 21
17.71394308363568
 31
0.0
  0
LINE
  5
342
  8
0
 62
     0
 10
83.936853492837798
 20
75.778953314739496
 30
0.0
 11
86.277471518967445
 21
78.119571340869115
 31
0.0
  0
LINE
  5
343
  8
0
 62
     0
 10
12.89999974238385
 20
4.742099564285553
 30
0.0
 11
15.89999974238378
 21
7.7420995642854669
 31
0.0
  0
LINE
  5
344
  8
0
 62
     0
 10
86.999999742383892
 20
78.842099564285562
 30
0.0
 11
89.999999742383835
 21
81.842099564285505
 31
0.0
  0
LINE
  5
345
  8
0
 62
     0
 10
8.1579003434636501
 20
0.0000001653653356
 30
0.0
 11
11.157900343464361
 21
3.0000001653660462
 31
0.0
  0
LINE
  5
346
  8
0
 62
     0
 10
64.710861925303178
 20
57.900000165365228
 30
0.0
 11
67.890081847888254
 21
61.079220087950297
 31
0.0
  0
LINE
  5
347
  8
0
 62
     0
 10
28.920779819803869
 20
22.10991805986593
 30
0.0
 11
31.24999974238391
 21
24.43913798244597
 31
0.0
  0
LINE
  5
348
  8
0
 62
     0
 10
68.420779819799336
 20
61.609918059861407
 30
0.0
 11
69.955147149183873
 21
63.144285389245923
 31
0.0
  0
LINE
  5
349
  8
0
 62
     0
 10
26.855714518499259
 20
20.044852758561319
 30
0.0
 11
28.390081847883891
 21
21.579220087945959
 31
0.0
  0
LINE
  5
34A
  8
0
 62
     0
 10
71.855714518496669
 20
65.044852758558719
 30
0.0
 11
73.390081847884218
 21
66.579220087946268
 31
0.0
  0
LINE
  5
34B
  8
0
 62
     0
 10
23.42077981980065
 20
16.6099180598627
 30
0.0
 11
24.955147149186729
 21
18.14428538924879
 31
0.0
  0
LINE
  5
34C
  8
0
 62
     0
 10
73.920779819801069
 20
67.109918059863119
 30
0.0
 11
75.749999742383864
 21
68.939137982445928
 31
0.0
  0
LINE
  5
34D
  8
0
 62
     0
 10
21.060861925302081
 20
14.25000016536414
 30
0.0
 11
22.89008184788517
 21
16.079220087947231
 31
0.0
  0
LINE
  5
34E
  8
0
 62
     0
 10
82.94926711864899
 20
76.13840535871104
 30
0.0
 11
85.289885144778665
 21
78.479023384840715
 31
0.0
  0
LINE
  5
34F
  8
0
 62
     0
 10
12.89999974238385
 20
6.0891379824459193
 30
0.0
 11
15.89999974238377
 21
9.089137982445834
 31
0.0
  0
LINE
  5
350
  8
0
 62
     0
 10
86.999999742383864
 20
80.189137982445928
 30
0.0
 11
89.999999742383835
 21
83.189137982445899
 31
0.0
  0
LINE
  5
351
  8
0
 62
     0
 10
6.8108619253034126
 20
0.0000001653654778
 30
0.0
 11
9.8108619253039802
 21
3.0000001653660462
 31
0.0
  0
LINE
  5
352
  8
0
 62
     0
 10
63.363823507142811
 20
57.900000165365228
 30
0.0
 11
66.775036232632189
 21
61.311212890854598
 31
0.0
  0
LINE
  5
353
  8
0
 62
     0
 10
28.68878701689508
 20
23.224963675117511
 30
0.0
 11
31.249999742383888
 21
25.786176400606319
 31
0.0
  0
LINE
  5
354
  8
0
 62
     0
 10
73.688787016893841
 20
68.224963675116257
 30
0.0
 11
75.749999742383849
 21
70.286176400606266
 31
0.0
  0
LINE
  5
355
  8
0
 62
     0
 10
19.71382350714174
 20
14.25000016536417
 30
0.0
 11
21.775036232631319
 21
16.311212890853749
 31
0.0
  0
LINE
  5
356
  8
0
 62
     0
 10
81.961680744460224
 20
76.497857402682641
 30
0.0
 11
84.302298770589871
 21
78.838475428812316
 31
0.0
  0
LINE
  5
357
  8
0
 62
     0
 10
12.89999974238385
 20
7.4361764006062847
 30
0.0
 11
15.89999974238377
 21
10.4361764006062
 31
0.0
  0
LINE
  5
358
  8
0
 62
     0
 10
86.999999742383864
 20
81.536176400606294
 30
0.0
 11
89.999999742383835
 21
84.536176400606266
 31
0.0
  0
LINE
  5
359
  8
0
 62
     0
 10
5.4638235071432169
 20
0.0000001653656483
 30
0.0
 11
8.4638235071436156
 21
3.0000001653660462
 31
0.0
  0
LINE
  5
35A
  8
0
 62
     0
 10
62.016785088982438
 20
57.900000165365249
 30
0.0
 11
66.499291666919831
 21
62.382506743302613
 31
0.0
  0
LINE
  5
35B
  8
0
 62
     0
 10
27.61749316444552
 20
23.50070824082832
 30
0.0
 11
31.249999742383888
 21
27.133214818766689
 31
0.0
  0
LINE
  5
35C
  8
0
 62
     0
 10
72.617493164453094
 20
68.500708240835891
 30
0.0
 11
75.749999742383849
 21
71.633214818766632
 31
0.0
  0
LINE
  5
35D
  8
0
 62
     0
 10
18.366785088981359
 20
14.250000165364151
 30
0.0
 11
21.49929166692192
 21
17.38250674330472
 31
0.0
  0
LINE
  5
35E
  8
0
 62
     0
 10
80.974094370271445
 20
76.857309446654213
 30
0.0
 11
83.314712396401063
 21
79.19792747278386
 31
0.0
  0
LINE
  5
35F
  8
0
 62
     0
 10
12.89999974238385
 20
8.7832148187666519
 30
0.0
 11
15.89999974238378
 21
11.783214818766581
 31
0.0
  0
LINE
  5
360
  8
0
 62
     0
 10
86.999999742383864
 20
82.88321481876666
 30
0.0
 11
89.999999742383835
 21
85.883214818766632
 31
0.0
  0
LINE
  5
361
  8
0
 62
     0
 10
4.1167850889830069
 20
0.0000001653658046
 30
0.0
 11
7.1167850889832351
 21
3.0000001653660311
 31
0.0
  0
LINE
  5
362
  8
0
 62
     0
 10
60.671295846610931
 20
57.901549341154123
 30
0.0
 11
65.631855301933726
 21
62.862108796476917
 31
0.0
  0
LINE
  5
363
  8
0
 62
     0
 10
27.137891111273319
 20
24.3681446058165
 30
0.0
 11
31.249999742383881
 21
28.480253236927059
 31
0.0
  0
LINE
  5
364
  8
0
 62
     0
 10
72.13789111127268
 20
69.368144605815843
 30
0.0
 11
75.749999742383849
 21
72.980253236927012
 31
0.0
  0
LINE
  5
365
  8
0
 62
     0
 10
17.019746670821
 20
14.250000165364179
 30
0.0
 11
20.631855301931839
 21
17.86210879647501
 31
0.0
  0
LINE
  5
366
  8
0
 62
     0
 10
79.986507996082636
 20
77.2167614906258
 30
0.0
 11
82.32712602221234
 21
79.557379516755503
 31
0.0
  0
LINE
  5
367
  8
0
 62
     0
 10
12.036900531196791
 20
9.2671540257399698
 30
0.0
 11
15.89999974238377
 21
13.13025323692694
 31
0.0
  0
LINE
  5
368
  8
0
 62
     0
 10
86.999999742383864
 20
84.230253236927027
 30
0.0
 11
89.999999742383835
 21
87.230253236926998
 31
0.0
  0
LINE
  5
369
  8
0
 62
     0
 10
2.7697466708227969
 20
0.0000001653659893
 30
0.0
 11
5.769746670822868
 21
3.0000001653660462
 31
0.0
  0
LINE
  5
36A
  8
0
 62
     0
 10
59.651434779458441
 20
58.228726692162013
 30
0.0
 11
64.620411109740729
 21
63.197703022444273
 31
0.0
  0
LINE
  5
36B
  8
0
 62
     0
 10
71.802296885274387
 20
70.379588797977931
 30
0.0
 11
75.773946951532622
 21
74.351238864236166
 31
0.0
  0
LINE
  5
36C
  8
0
 62
     0
 10
26.802296885280441
 20
25.379588797983999
 30
0.0
 11
31.249999742383871
 21
29.827291655087421
 31
0.0
  0
LINE
  5
36D
  8
0
 62
     0
 10
78.978825301130541
 20
77.556117213834113
 30
0.0
 11
81.339539648023532
 21
79.916831560727076
 31
0.0
  0
LINE
  5
36E
  8
0
 62
     0
 10
10.746588220686149
 20
9.3238801333897072
 30
0.0
 11
19.62041110976779
 21
18.197703022471341
 31
0.0
  0
LINE
  5
36F
  8
0
 62
     0
 10
86.999999742383864
 20
85.577291655087436
 30
0.0
 11
89.829678786832403
 21
88.406970699535975
 31
0.0
  0
LINE
  5
370
  8
0
 62
     0
 10
1.593029208213167
 20
0.170321120916725
 30
0.0
 11
4.4227082526624883
 21
3.0000001653660462
 31
0.0
  0
LINE
  5
371
  8
0
 62
     0
 10
59.002649764837429
 20
58.926980095701339
 30
0.0
 11
62.235546871858503
 21
62.159877202722441
 31
0.0
  0
LINE
  5
372
  8
0
 62
     0
 10
27.840122705026179
 20
27.764453035890099
 30
0.0
 11
31.049166977734959
 21
30.97349730859888
 31
0.0
  0
LINE
  5
373
  8
0
 62
     0
 10
72.840122705024839
 20
72.764453035888749
 30
0.0
 11
80.35195327383471
 21
80.276283604698648
 31
0.0
  0
LINE
  5
374
  8
0
 62
     0
 10
9.7590018464973696
 20
9.6833321773612937
 30
0.0
 11
17.23554687185981
 21
17.159877202723731
 31
0.0
  0
LINE
  5
375
  8
0
 62
     0
 10
86.946565498424178
 20
86.870895829288088
 30
0.0
 11
89.305196808314747
 21
89.229527139178657
 31
0.0
  0
LINE
  5
376
  8
0
 62
     0
 10
0.7704727685699311
 20
0.6948030994338552
 30
0.0
 11
3.1291040784606992
 21
3.0534344093246228
 31
0.0
  0
LINE
  5
377
  8
0
 62
     0
 10
26.770196022425271
 20
28.041564771449561
 30
0.0
 11
30.437747623993229
 21
31.709116373017508
 31
0.0
  0
LINE
  5
378
  8
0
 62
     0
 10
58.749999742383807
 20
60.021368491408083
 30
0.0
 11
61.958435136298192
 21
63.229803885322468
 31
0.0
  0
LINE
  5
379
  8
0
 62
     0
 10
14.141079225599441
 20
15.41244797462373
 30
0.0
 11
16.95843513630016
 21
18.229803885324461
 31
0.0
  0
LINE
  5
37A
  8
0
 62
     0
 10
71.770196022424784
 20
73.041564771449089
 30
0.0
 11
79.364366899645944
 21
80.635735648670249
 31
0.0
  0
LINE
  5
37B
  8
0
 62
     0
 10
8.7714154723085613
 20
10.04278422133285
 30
0.0
 11
11.20079469230687
 21
12.47216344133116
 31
0.0
  0
LINE
  5
37C
  8
0
 62
     0
 10
85.728631416339084
 20
87.00000016536336
 30
0.0
 11
88.513832370692398
 21
89.785201119716675
 31
0.0
  0
LINE
  5
37D
  8
0
 62
     0
 10
0.2147987880314019
 20
1.4861675370556919
 30
0.0
 11
2.9999997423838201
 21
4.2713684914081114
 31
0.0
  0
LINE
  5
37E
  8
0
 62
     0
 10
58.749999742383771
 20
61.368406909568442
 30
0.0
 11
62.906593798807187
 21
65.525000965991836
 31
0.0
  0
LINE
  5
37F
  8
0
 62
     0
 10
24.474998941755221
 20
27.09340610893987
 30
0.0
 11
29.469510281022721
 21
32.087917448207378
 31
0.0
  0
LINE
  5
380
  8
0
 62
     0
 10
69.474998941757065
 20
72.093406108941707
 30
0.0
 11
73.132108621162331
 21
75.750515788346974
 31
0.0
  0
LINE
  5
381
  8
0
 62
     0
 10
14.24999974238386
 20
16.86840690956852
 30
0.0
 11
17.906593798807702
 21
20.525000965992358
 31
0.0
  0
LINE
  5
382
  8
0
 62
     0
 10
74.099484119402206
 20
76.717891286586848
 30
0.0
 11
78.169464057127115
 21
80.787871224311786
 31
0.0
  0
LINE
  5
383
  8
0
 62
     0
 10
7.7838290981197948
 20
10.402236265304451
 30
0.0
 11
10.12444712424946
 21
12.74285429143411
 31
0.0
  0
LINE
  5
384
  8
0
 62
     0
 10
84.381592998178718
 20
87.00000016536336
 30
0.0
 11
87.381592998178803
 21
90.000000165363474
 31
0.0
  0
LINE
  5
385
  8
0
 62
     0
 10
-0.0000002576161506
 20
2.6184069095685061
 30
0.0
 11
2.9999997423838352
 21
5.618406909568491
 31
0.0
  0
LINE
  5
386
  8
0
 62
     0
 10
58.749999742383771
 20
62.715445327728801
 30
0.0
 11
62.500580240696593
 21
66.466025826041616
 31
0.0
  0
LINE
  5
387
  8
0
 62
     0
 10
23.533974081706418
 20
27.499419667051459
 30
0.0
 11
28.134554580019199
 21
32.100000165364243
 31
0.0
  0
LINE
  5
388
  8
0
 62
     0
 10
68.533974081705821
 20
72.499419667050844
 30
0.0
 11
71.784554580020256
 21
75.750000165365265
 31
0.0
  0
LINE
  5
389
  8
0
 62
     0
 10
14.24999974238386
 20
18.215445327728901
 30
0.0
 11
17.50058024069228
 21
21.46602582603732
 31
0.0
  0
LINE
  5
38A
  8
0
 62
     0
 10
74.099999742383943
 20
78.065445327728966
 30
0.0
 11
77.099999742383886
 21
81.065445327728909
 31
0.0
  0
LINE
  5
38B
  8
0
 62
     0
 10
6.7962427239310008
 20
10.761688309276041
 30
0.0
 11
9.1368607500606611
 21
13.102306335405711
 31
0.0
  0
LINE
  5
38C
  8
0
 62
     0
 10
83.034554580018323
 20
87.000000165363346
 30
0.0
 11
86.034554580018593
 21
90.00000016536363
 31
0.0
  0
LINE
  5
38D
  8
0
 62
     0
 10
-0.0000002576161364
 20
3.9654453277288999
 30
0.0
 11
2.9999997423838352
 21
6.9654453277288724
 31
0.0
  0
LINE
  5
38E
  8
0
 62
     0
 10
58.749999742383757
 20
64.062483745889153
 30
0.0
 11
61.392894628707253
 21
66.705378632212657
 31
0.0
  0
LINE
  5
38F
  8
0
 62
     0
 10
23.294621275535022
 20
28.607105279040439
 30
0.0
 11
26.787516161858811
 21
32.100000165364222
 31
0.0
  0
LINE
  5
390
  8
0
 62
     0
 10
68.294621275535761
 20
73.607105279041193
 30
0.0
 11
70.437516161859875
 21
75.750000165365265
 31
0.0
  0
LINE
  5
391
  8
0
 62
     0
 10
14.24999974238386
 20
19.562483745889281
 30
0.0
 11
16.392894628708401
 21
21.705378632213819
 31
0.0
  0
LINE
  5
392
  8
0
 62
     0
 10
74.099999742383929
 20
79.412483745889332
 30
0.0
 11
77.099999742383872
 21
82.412483745889276
 31
0.0
  0
LINE
  5
393
  8
0
 62
     0
 10
5.808656349742221
 20
11.12114035324764
 30
0.0
 11
8.1492743758718689
 21
13.461758379377279
 31
0.0
  0
LINE
  5
394
  8
0
 62
     0
 10
81.687516161857971
 20
87.000000165363375
 30
0.0
 11
84.687516161858383
 21
90.000000165363815
 31
0.0
  0
LINE
  5
395
  8
0
 62
     0
 10
-0.0000002576161506
 20
5.3124837458892671
 30
0.0
 11
2.9999997423838352
 21
8.3124837458892529
 31
0.0
  0
LINE
  5
396
  8
0
 62
     0
 10
58.749999742383757
 20
65.409522164049562
 30
0.0
 11
61.015421273503101
 21
67.674943695168864
 31
0.0
  0
LINE
  5
397
  8
0
 62
     0
 10
22.325056212575991
 20
28.984578634241771
 30
0.0
 11
25.44047774369842
 21
32.100000165364207
 31
0.0
  0
LINE
  5
398
  8
0
 62
     0
 10
61.825056212578467
 20
68.484578634244272
 30
0.0
 11
62.981671669940582
 21
69.641194091606366
 31
0.0
  0
LINE
  5
399
  8
0
 62
     0
 10
20.358805816144422
 20
27.018328237810209
 30
0.0
 11
21.515421273505751
 21
28.174943695171539
 31
0.0
  0
LINE
  5
39A
  8
0
 62
     0
 10
65.358805816142691
 20
72.01832823780849
 30
0.0
 11
66.515421273505339
 21
73.174943695171109
 31
0.0
  0
LINE
  5
39B
  8
0
 62
     0
 10
16.825056212578811
 20
23.484578634244599
 30
0.0
 11
17.98167166994288
 21
24.641194091608671
 31
0.0
  0
LINE
  5
39C
  8
0
 62
     0
 10
67.325056212578133
 20
73.984578634243931
 30
0.0
 11
69.090477743699509
 21
75.750000165365265
 31
0.0
  0
LINE
  5
39D
  8
0
 62
     0
 10
14.249999742383849
 20
20.90952216404963
 30
0.0
 11
16.01542127350524
 21
22.67494369517102
 31
0.0
  0
LINE
  5
39E
  8
0
 62
     0
 10
74.099999742383943
 20
80.759522164049727
 30
0.0
 11
77.099999742383901
 21
83.759522164049656
 31
0.0
  0
LINE
  5
39F
  8
0
 62
     0
 10
4.8210699755534128
 20
11.48059239721921
 30
0.0
 11
7.161688001683074
 21
13.821210423348861
 31
0.0
  0
LINE
  5
3A0
  8
0
 62
     0
 10
80.340477743697576
 20
87.000000165363346
 30
0.0
 11
83.340477743698173
 21
90.000000165363971
 31
0.0
  0
LINE
  5
3A1
  8
0
 62
     0
 10
-0.0000002576161364
 20
6.6595221640496467
 30
0.0
 11
2.9999997423838489
 21
9.6595221640496334
 31
0.0
  0
LINE
  5
3A2
  8
0
 62
     0
 10
58.749999742383793
 20
66.756560582209929
 30
0.0
 11
62.789612752774062
 21
70.796173592600184
 31
0.0
  0
LINE
  5
3A3
  8
0
 62
     0
 10
19.203826315148429
 20
27.21038715497459
 30
0.0
 11
24.093439325538061
 21
32.100000165364207
 31
0.0
  0
LINE
  5
3A4
  8
0
 62
     0
 10
64.203826315151204
 20
72.210387154977369
 30
0.0
 11
67.743439325539143
 21
75.750000165365307
 31
0.0
  0
LINE
  5
3A5
  8
0
 62
     0
 10
14.24999974238386
 20
22.256560582210021
 30
0.0
 11
17.789612752775341
 21
25.796173592601491
 31
0.0
  0
LINE
  5
3A6
  8
0
 62
     0
 10
74.099999742383929
 20
82.106560582210093
 30
0.0
 11
77.099999742383872
 21
85.106560582210037
 31
0.0
  0
LINE
  5
3A7
  8
0
 62
     0
 10
3.833483601364633
 20
11.840044441190781
 30
0.0
 11
6.1741016274943092
 21
14.18066246732046
 31
0.0
  0
LINE
  5
3A8
  8
0
 62
     0
 10
78.993439325537238
 20
87.000000165363375
 30
0.0
 11
81.993439325537977
 21
90.000000165364114
 31
0.0
  0
LINE
  5
3A9
  8
0
 62
     0
 10
-0.0000002576161506
 20
8.0065605822099997
 30
0.0
 11
2.9999997423838352
 21
11.00656058220998
 31
0.0
  0
LINE
  5
3AA
  8
0
 62
     0
 10
58.749999742383771
 20
68.103599000370309
 30
0.0
 11
62.120702795206768
 21
71.474302053193298
 31
0.0
  0
LINE
  5
3AB
  8
0
 62
     0
 10
63.52569785455384
 20
72.879297112540371
 30
0.0
 11
66.396400907378791
 21
75.750000165365336
 31
0.0
  0
LINE
  5
3AC
  8
0
 62
     0
 10
18.525697854555229
 20
27.879297112541781
 30
0.0
 11
22.746400907377691
 21
32.100000165364243
 31
0.0
  0
LINE
  5
3AD
  8
0
 62
     0
 10
74.099999742383915
 20
83.453599000370446
 30
0.0
 11
77.099999742383844
 21
86.453599000370389
 31
0.0
  0
LINE
  5
3AE
  8
0
 62
     0
 10
14.249999742383849
 20
23.603599000370391
 30
0.0
 11
17.120702795208029
 21
26.474302053194581
 31
0.0
  0
LINE
  5
3AF
  8
0
 62
     0
 10
77.646400907376844
 20
87.000000165363389
 30
0.0
 11
80.646400907377767
 21
90.000000165364298
 31
0.0
  0
LINE
  5
3B0
  8
0
 62
     0
 10
-0.0000002576161506
 20
9.3535990003703944
 30
0.0
 11
5.186515253305501
 21
14.540114511292041
 31
0.0
  0
LINE
  5
3B1
  8
0
 62
     0
 10
58.74999974238375
 20
69.450637418530675
 30
0.0
 11
65.049362489218453
 21
75.750000165365336
 31
0.0
  0
LINE
  5
3B2
  8
0
 62
     0
 10
14.24999974238386
 20
24.950637418530778
 30
0.0
 11
21.39936248921731
 21
32.100000165364222
 31
0.0
  0
LINE
  5
3B3
  8
0
 62
     0
 10
74.099999742383915
 20
84.800637418530812
 30
0.0
 11
79.299362489217543
 21
90.000000165364455
 31
0.0
  0
LINE
  5
3B4
  8
0
 62
     0
 10
-0.0000002576161506
 20
10.700637418530761
 30
0.0
 11
4.9999997423852269
 21
15.70063741853215
 31
0.0
  0
LINE
  5
3B5
  8
0
 62
     0
 10
58.74999974238375
 20
70.797675836691013
 30
0.0
 11
63.702324071058086
 21
75.750000165365336
 31
0.0
  0
LINE
  5
3B6
  8
0
 62
     0
 10
14.249999742383849
 20
26.297675836691131
 30
0.0
 11
20.05232407105693
 21
32.100000165364207
 31
0.0
  0
LINE
  5
3B7
  8
0
 62
     0
 10
72.952324071056097
 20
85.000000165363375
 30
0.0
 11
77.952324071057348
 21
90.000000165364611
 31
0.0
  0
LINE
  5
3B8
  8
0
 62
     0
 10
-0.0000002576161364
 20
12.047675836691139
 30
0.0
 11
4.9999997423846301
 21
17.047675836691909
 31
0.0
  0
LINE
  5
3B9
  8
0
 62
     0
 10
58.74999974238375
 20
72.14471425485138
 30
0.0
 11
62.355285652897692
 21
75.750000165365336
 31
0.0
  0
LINE
  5
3BA
  8
0
 62
     0
 10
14.249999742383849
 20
27.6447142548515
 30
0.0
 11
18.70528565289656
 21
32.100000165364207
 31
0.0
  0
LINE
  5
3BB
  8
0
 62
     0
 10
71.690527128226563
 20
85.085241640694178
 30
0.0
 11
76.60528565289718
 21
90.000000165364796
 31
0.0
  0
LINE
  5
3BC
  8
0
 62
     0
 10
-0.0000002576161506
 20
13.39471425485149
 30
0.0
 11
4.9147582670547081
 21
18.309472779522348
 31
0.0
  0
LINE
  5
3BD
  8
0
 62
     0
 10
58.74999974238375
 20
73.491752673011746
 30
0.0
 11
61.07437456296811
 21
75.816127493596099
 31
0.0
  0
LINE
  5
3BE
  8
0
 62
     0
 10
14.009155842499281
 20
28.750908773127289
 30
0.0
 11
17.358247234736211
 21
32.100000165364222
 31
0.0
  0
LINE
  5
3BF
  8
0
 62
     0
 10
71.599999742383943
 20
86.341752673011925
 30
0.0
 11
75.258247234736928
 21
90.000000165364924
 31
0.0
  0
LINE
  5
3C0
  8
0
 62
     0
 10
-0.0000002576161364
 20
14.74175267301187
 30
0.0
 11
3.6582472347384112
 21
18.400000165366428
 31
0.0
  0
LINE
  5
3C1
  8
0
 62
     0
 10
58.218167412404767
 20
74.306958761193144
 30
0.0
 11
60.339487755964477
 21
76.42827910475286
 31
0.0
  0
LINE
  5
3C2
  8
0
 62
     0
 10
13.011208816577749
 20
29.10000016536614
 30
0.0
 11
16.011208816575831
 21
32.100000165364222
 31
0.0
  0
LINE
  5
3C3
  8
0
 62
     0
 10
71.599999742383943
 20
87.68879109117232
 30
0.0
 11
73.911208816576732
 21
90.000000165365094
 31
0.0
  0
LINE
  5
3C4
  8
0
 62
     0
 10
-0.0000002576161364
 20
16.088791091172251
 30
0.0
 11
2.3112088165780591
 21
18.40000016536645
 31
0.0
  0
LINE
  5
3C5
  8
0
 62
     0
 10
57.544648203324691
 20
74.980477970273441
 30
0.0
 11
59.665968546884372
 21
77.101798313833129
 31
0.0
  0
LINE
  5
3C6
  8
0
 62
     0
 10
11.664170398417379
 20
29.100000165366161
 30
0.0
 11
14.664170398415431
 21
32.100000165364207
 31
0.0
  0
LINE
  5
3C7
  8
0
 62
     0
 10
56.871128994244593
 20
75.653997179353695
 30
0.0
 11
58.992449337804267
 21
77.775317522913397
 31
0.0
  0
LINE
  5
3C8
  8
0
 62
     0
 10
10.317131980257001
 20
29.10000016536614
 30
0.0
 11
13.31713198025507
 21
32.100000165364207
 31
0.0
  0
LINE
  5
3C9
  8
0
 62
     0
 10
56.197609785164524
 20
76.327516388434049
 30
0.0
 11
58.318930128724169
 21
78.44883673199368
 31
0.0
  0
LINE
  5
3CA
  8
0
 62
     0
 10
8.9700935620966362
 20
29.100000165366151
 30
0.0
 11
11.97009356209472
 21
32.100000165364207
 31
0.0
  0
LINE
  5
3CB
  8
0
 62
     0
 10
55.524090576084433
 20
77.001035597514317
 30
0.0
 11
57.658606895653939
 21
79.135551917083831
 31
0.0
  0
LINE
  5
3CC
  8
0
 62
     0
 10
7.6230551439362406
 20
29.10000016536614
 30
0.0
 11
10.623055143934319
 21
32.100000165364222
 31
0.0
  0
LINE
  5
3CD
  8
0
 62
     0
 10
54.850571367004328
 20
77.674554806594585
 30
0.0
 11
58.138443829641858
 21
80.962427269232109
 31
0.0
  0
LINE
  5
3CE
  8
0
 62
     0
 10
6.2760167257758752
 20
29.10000016536614
 30
0.0
 11
9.2760167257739568
 21
32.100000165364222
 31
0.0
  0
LINE
  5
3CF
  8
0
 62
     0
 10
62.176016725774531
 20
85.000000165364796
 30
0.0
 11
63.399999742383919
 21
86.223983181974177
 31
0.0
  0
LINE
  5
3D0
  8
0
 62
     0
 10
3.7760167257759458
 20
26.600000165366211
 30
0.0
 11
4.9999997423857394
 21
27.823983181976001
 31
0.0
  0
LINE
  5
3D1
  8
0
 62
     0
 10
54.251858615610438
 20
78.42288047336109
 30
0.0
 11
58.909291225530289
 21
83.080313083280956
 31
0.0
  0
LINE
  5
3D2
  8
0
 62
     0
 10
60.828978307613433
 20
85.000000165364042
 30
0.0
 11
63.399999742383919
 21
87.571021600134543
 31
0.0
  0
LINE
  5
3D3
  8
0
 62
     0
 10
2.4289783076156648
 20
26.6000001653663
 30
0.0
 11
7.9289783076135762
 21
32.100000165364207
 31
0.0
  0
LINE
  5
3D4
  8
0
 62
     0
 10
54.6606670661142
 20
80.178727342025184
 30
0.0
 11
63.34910787845098
 21
88.867168154361963
 31
0.0
  0
LINE
  5
3D5
  8
0
 62
     0
 10
1.132831753388629
 20
26.65089202929963
 30
0.0
 11
6.5819398894532091
 21
32.100000165364207
 31
0.0
  0
LINE
  5
3D6
  8
0
 62
     0
 10
55.431514462002689
 20
82.296613156074059
 30
0.0
 11
62.499999742383856
 21
89.365098436455213
 31
0.0
  0
LINE
  5
3D7
  8
0
 62
     0
 10
0.634901471294711
 20
27.500000165366089
 30
0.0
 11
5.2349014712928286
 21
32.100000165364207
 31
0.0
  0
LINE
  5
3D8
  8
0
 62
     0
 10
29.751850077736218
 20
57.963987189967973
 30
0.0
 11
31.186012717781178
 21
59.398149830012919
 31
0.0
  0
LINE
  5
3D9
  8
0
 62
     0
 10
56.202361857891162
 20
84.414498970122878
 30
0.0
 11
61.787863053133627
 21
90.000000165365392
 31
0.0
  0
LINE
  5
3DA
  8
0
 62
     0
 10
-0.0000002576158522
 20
28.212136854615888
 30
0.0
 11
3.8878630531324769
 21
32.100000165364222
 31
0.0
  0
LINE
  5
3DB
  8
0
 62
     0
 10
28.340824634973149
 20
57.90000016536527
 30
0.0
 11
31.249999742383849
 21
60.809175272775967
 31
0.0
  0
LINE
  5
3DC
  8
0
 62
     0
 10
56.973209253779643
 20
86.532384784171754
 30
0.0
 11
60.440824634973247
 21
90.000000165365364
 31
0.0
  0
LINE
  5
3DD
  8
0
 62
     0
 10
-0.0000002576158806
 20
29.559175272776251
 30
0.0
 11
2.6036426762421878
 21
32.162818206634313
 31
0.0
  0
LINE
  5
3DE
  8
0
 62
     0
 10
26.993786216812762
 20
57.900000165365263
 30
0.0
 11
31.249999742383871
 21
62.156213690936362
 31
0.0
  0
LINE
  5
3DF
  8
0
 62
     0
 10
56.093786216812802
 20
87.000000165365293
 30
0.0
 11
59.09378621681288
 21
90.000000165365364
 31
0.0
  0
LINE
  5
3E0
  8
0
 62
     0
 10
-0.0000002576158806
 20
30.906213690936621
 30
0.0
 11
2.4610034388231261
 21
33.367217387375618
 31
0.0
  0
LINE
  5
3E1
  8
0
 62
     0
 10
25.64674779865241
 20
57.900000165365263
 30
0.0
 11
31.249999742383881
 21
63.503252109096742
 31
0.0
  0
LINE
  5
3E2
  8
0
 62
     0
 10
54.746747798652429
 20
87.000000165365336
 30
0.0
 11
57.746747798652521
 21
90.000000165365407
 31
0.0
  0
LINE
  5
3E3
  8
0
 62
     0
 10
-0.0000002576158948
 20
32.253252109096969
 30
0.0
 11
2.7129674594860802
 21
34.966219826198937
 31
0.0
  0
LINE
  5
3E4
  8
0
 62
     0
 10
24.299709380492018
 20
57.900000165365249
 30
0.0
 11
31.249999742383881
 21
64.85029052725713
 31
0.0
  0
LINE
  5
3E5
  8
0
 62
     0
 10
53.399709380492048
 20
87.000000165365293
 30
0.0
 11
56.399709380492162
 21
90.000000165365407
 31
0.0
  0
LINE
  5
3E6
  8
0
 62
     0
 10
-0.000000257615909
 20
33.600290527257343
 30
0.0
 11
2.964931480149033
 21
36.565222265022292
 31
0.0
  0
LINE
  5
3E7
  8
0
 62
     0
 10
28.087564594490889
 20
63.034893797524482
 30
0.0
 11
31.249999742383888
 21
66.19732894541751
 31
0.0
  0
LINE
  5
3E8
  8
0
 62
     0
 10
22.952670962331648
 20
57.90000016536527
 30
0.0
 11
26.965106110224468
 21
61.912435313258086
 31
0.0
  0
LINE
  5
3E9
  8
0
 62
     0
 10
52.052670962331689
 20
87.000000165365293
 30
0.0
 11
55.052670962331753
 21
90.000000165365364
 31
0.0
  0
LINE
  5
3EA
  8
0
 62
     0
 10
-0.0000002576159233
 20
34.947328945417688
 30
0.0
 11
2.9999997423850711
 21
37.94732894541869
 31
0.0
  0
LINE
  5
3EB
  8
0
 62
     0
 10
27.559922924464221
 20
63.854290545658202
 30
0.0
 11
31.24999974238392
 21
67.544367363577905
 31
0.0
  0
LINE
  5
3EC
  8
0
 62
     0
 10
21.605632544171272
 20
57.900000165365249
 30
0.0
 11
26.145709362089331
 21
62.440076983283312
 31
0.0
  0
LINE
  5
3ED
  8
0
 62
     0
 10
50.705632544171323
 20
87.000000165365336
 30
0.0
 11
53.705632544171408
 21
90.000000165365364
 31
0.0
  0
LINE
  5
3EE
  8
0
 62
     0
 10
-0.0000002576159233
 20
36.294367363578061
 30
0.0
 11
2.999999742385028
 21
39.29436736357902
 31
0.0
  0
LINE
  5
3EF
  8
0
 62
     0
 10
26.886403715384709
 20
64.527809754739053
 30
0.0
 11
31.24999974238392
 21
68.891405781738285
 31
0.0
  0
LINE
  5
3F0
  8
0
 62
     0
 10
20.258594126010919
 20
57.900000165365263
 30
0.0
 11
25.472190153004519
 21
63.113596192358862
 31
0.0
  0
LINE
  5
3F1
  8
0
 62
     0
 10
49.358594126010964
 20
87.000000165365293
 30
0.0
 11
52.358594126011042
 21
90.000000165365364
 31
0.0
  0
LINE
  5
3F2
  8
0
 62
     0
 10
-0.0000002576159517
 20
37.641405781738413
 30
0.0
 11
2.999999742384972
 21
40.641405781739323
 31
0.0
  0
LINE
  5
3F3
  8
0
 62
     0
 10
28.915002742505521
 20
67.903447200020253
 30
0.0
 11
31.24999974238392
 21
70.238444199898623
 31
0.0
  0
LINE
  5
3F4
  8
0
 62
     0
 10
18.911555707850539
 20
57.900000165365249
 30
0.0
 11
22.096552707730581
 21
61.084997165245312
 31
0.0
  0
LINE
  5
3F5
  8
0
 62
     0
 10
48.011555707850562
 20
87.000000165365307
 30
0.0
 11
51.011555707850668
 21
90.000000165365392
 31
0.0
  0
LINE
  5
3F6
  8
0
 62
     0
 10
-0.0000002576159659
 20
38.988444199898773
 30
0.0
 11
2.9999997423849289
 21
41.988444199899661
 31
0.0
  0
LINE
  5
3F7
  8
0
 62
     0
 10
28.152777812652491
 20
68.4882606883276
 30
0.0
 11
31.249999742383942
 21
71.585482618059046
 31
0.0
  0
LINE
  5
3F8
  8
0
 62
     0
 10
17.564517289690141
 20
57.900000165365242
 30
0.0
 11
21.511739219421951
 21
61.847222095097052
 31
0.0
  0
LINE
  5
3F9
  8
0
 62
     0
 10
46.66451728969021
 20
87.000000165365307
 30
0.0
 11
49.664517289690259
 21
90.000000165365364
 31
0.0
  0
LINE
  5
3FA
  8
0
 62
     0
 10
-0.0000002576159801
 20
40.335482618059132
 30
0.0
 11
2.9999997423848721
 21
43.335482618059977
 31
0.0
  0
LINE
  5
3FB
  8
0
 62
     0
 10
27.281011405432618
 20
68.9635326992681
 30
0.0
 11
31.24999974238396
 21
72.932521036219441
 31
0.0
  0
LINE
  5
3FC
  8
0
 62
     0
 10
16.217478871529771
 20
57.900000165365249
 30
0.0
 11
21.03646720848052
 21
62.71898850231598
 31
0.0
  0
LINE
  5
3FD
  8
0
 62
     0
 10
45.317478871529843
 20
87.000000165365307
 30
0.0
 11
48.3174788715299
 21
90.000000165365364
 31
0.0
  0
LINE
  5
3FE
  8
0
 62
     0
 10
-0.0000002576159801
 20
41.682521036219491
 30
0.0
 11
2.9999997423848441
 21
44.682521036220322
 31
0.0
  0
LINE
  5
3FF
  8
0
 62
     0
 10
26.88070840607665
 20
69.910268118072509
 30
0.0
 11
35.795556695094788
 21
78.825116407090661
 31
0.0
  0
LINE
  5
400
  8
0
 62
     0
 10
14.87044045336941
 20
57.900000165365263
 30
0.0
 11
20.089731789675131
 21
63.119291501670979
 31
0.0
  0
LINE
  5
401
  8
0
 62
     0
 10
43.970440453369449
 20
87.000000165365336
 30
0.0
 11
46.970440453369527
 21
90.000000165365407
 31
0.0
  0
LINE
  5
402
  8
0
 62
     0
 10
-0.0000002576160085
 20
43.029559454379843
 30
0.0
 11
2.9999997423848721
 21
46.029559454380717
 31
0.0
  0
LINE
  5
403
  8
0
 62
     0
 10
28.042593631488572
 20
72.419191761644811
 30
0.0
 11
35.462827970838312
 21
79.83942610099453
 31
0.0
  0
LINE
  5
404
  8
0
 62
     0
 10
13.523402035209029
 20
57.900000165365249
 30
0.0
 11
17.580808146104172
 21
61.9574062762604
 31
0.0
  0
LINE
  5
405
  8
0
 62
     0
 10
42.623402035209061
 20
87.000000165365293
 30
0.0
 11
45.623402035209182
 21
90.000000165365407
 31
0.0
  0
LINE
  5
406
  8
0
 62
     0
 10
-0.0000002576160369
 20
44.376597872540188
 30
0.0
 11
2.9999997423849001
 21
47.376597872541133
 31
0.0
  0
LINE
  5
407
  8
0
 62
     0
 10
27.341901633032371
 20
73.06553818134897
 30
0.0
 11
35.103375926866683
 21
80.827012475183267
 31
0.0
  0
LINE
  5
408
  8
0
 62
     0
 10
12.176363617048651
 20
57.900000165365242
 30
0.0
 11
16.93446172639992
 21
62.658098274716522
 31
0.0
  0
LINE
  5
409
  8
0
 62
     0
 10
41.276363617048702
 20
87.000000165365293
 30
0.0
 11
44.276363617048759
 21
90.000000165365364
 31
0.0
  0
LINE
  5
40A
  8
0
 62
     0
 10
-0.0000002576160227
 20
45.723636290700583
 30
0.0
 11
2.9999997423849432
 21
48.723636290701549
 31
0.0
  0
LINE
  5
40B
  8
0
 62
     0
 10
24.84520632240465
 20
71.915881288881593
 30
0.0
 11
28.686351096124579
 21
75.75702606260154
 31
0.0
  0
LINE
  5
40C
  8
0
 62
     0
 10
32.39753955233698
 20
79.468214518813937
 30
0.0
 11
34.743923882895082
 21
81.814598849372018
 31
0.0
  0
LINE
  5
40D
  8
0
 62
     0
 10
10.829325198888281
 20
57.900000165365249
 30
0.0
 11
18.084118618867901
 21
65.154793585344862
 31
0.0
  0
LINE
  5
40E
  8
0
 62
     0
 10
39.929325198888343
 20
87.000000165365336
 30
0.0
 11
42.929325198888421
 21
90.000000165365364
 31
0.0
  0
LINE
  5
40F
  8
0
 62
     0
 10
-0.0000002576160085
 20
47.070674708860963
 30
0.0
 11
2.999999742385
 21
50.070674708861972
 31
0.0
  0
LINE
  5
410
  8
0
 62
     0
 10
23.886270000145529
 20
72.303983384782867
 30
0.0
 11
27.332286780728008
 21
75.750000165365336
 31
0.0
  0
LINE
  5
411
  8
0
 62
     0
 10
14.249999742383849
 20
62.66771312702118
 30
0.0
 11
17.69601652296647
 21
66.113729907603812
 31
0.0
  0
LINE
  5
412
  8
0
 62
     0
 10
32.043853812793827
 20
80.461567197431137
 30
0.0
 11
34.384471838923481
 21
82.802185223560784
 31
0.0
  0
LINE
  5
413
  8
0
 62
     0
 10
9.4822867807279039
 20
57.900000165365249
 30
0.0
 11
12.48228678072598
 21
60.900000165363323
 31
0.0
  0
LINE
  5
414
  8
0
 62
     0
 10
38.582286780727998
 20
87.000000165365336
 30
0.0
 11
41.582286780728047
 21
90.000000165365364
 31
0.0
  0
LINE
  5
415
  8
0
 62
     0
 10
-0.0000002576159943
 20
48.417713127021351
 30
0.0
 11
2.9999997423850568
 21
51.417713127022402
 31
0.0
  0
LINE
  5
416
  8
0
 62
     0
 10
23.471654156551281
 20
73.236405959348986
 30
0.0
 11
25.98524836256766
 21
75.750000165365336
 31
0.0
  0
LINE
  5
417
  8
0
 62
     0
 10
14.24999974238386
 20
64.014751545181554
 30
0.0
 11
16.763593948398722
 21
66.52834575119644
 31
0.0
  0
LINE
  5
418
  8
0
 62
     0
 10
31.68440176882223
 20
81.449153571619917
 30
0.0
 11
34.025019794951881
 21
83.789771597749564
 31
0.0
  0
LINE
  5
419
  8
0
 62
     0
 10
8.1352483625675376
 20
57.900000165365249
 30
0.0
 11
11.1352483625656
 21
60.900000165363302
 31
0.0
  0
LINE
  5
41A
  8
0
 62
     0
 10
37.23524836256761
 20
87.000000165365293
 30
0.0
 11
40.235248362567681
 21
90.000000165365364
 31
0.0
  0
LINE
  5
41B
  8
0
 62
     0
 10
-0.0000002576159517
 20
49.76475154518176
 30
0.0
 11
2.9999997423850848
 21
52.764751545182797
 31
0.0
  0
LINE
  5
41C
  8
0
 62
     0
 10
21.222167375012319
 20
72.333957595970389
 30
0.0
 11
21.498729933963521
 21
72.610520154921574
 31
0.0
  0
LINE
  5
41D
  8
0
 62
     0
 10
17.389479752837762
 20
68.501269973795843
 30
0.0
 11
17.666042311779432
 21
68.77783253273752
 31
0.0
  0
LINE
  5
41E
  8
0
 62
     0
 10
22.831622145727849
 20
73.943412366685934
 30
0.0
 11
24.638209944407279
 21
75.750000165365336
 31
0.0
  0
LINE
  5
41F
  8
0
 62
     0
 10
14.24999974238388
 20
65.361789963341948
 30
0.0
 11
16.056587541062861
 21
67.168377762020953
 31
0.0
  0
LINE
  5
420
  8
0
 62
     0
 10
31.324949724850629
 20
82.436739945808696
 30
0.0
 11
33.665567750980237
 21
84.777357971938343
 31
0.0
  0
LINE
  5
421
  8
0
 62
     0
 10
6.7882099444071571
 20
57.900000165365242
 30
0.0
 11
9.7882099444052386
 21
60.90000016536333
 31
0.0
  0
LINE
  5
422
  8
0
 62
     0
 10
35.888209944407237
 20
87.000000165365307
 30
0.0
 11
38.888209944407322
 21
90.000000165365392
 31
0.0
  0
LINE
  5
423
  8
0
 62
     0
 10
-0.0000002576159659
 20
51.111789963342119
 30
0.0
 11
2.8775464826600792
 21
53.989336703618171
 31
0.0
  0
LINE
  5
424
  8
0
 62
     0
 10
19.477692415501881
 20
71.936521054620329
 30
0.0
 11
23.29117152624687
 21
75.750000165365321
 31
0.0
  0
LINE
  5
425
  8
0
 62
     0
 10
14.24999974238386
 20
66.708828381502315
 30
0.0
 11
18.063478853128739
 21
70.522307492247194
 31
0.0
  0
LINE
  5
426
  8
0
 62
     0
 10
30.965497680879029
 20
83.424326319997476
 30
0.0
 11
33.306115707008637
 21
85.764944346127095
 31
0.0
  0
LINE
  5
427
  8
0
 62
     0
 10
5.441171526246805
 20
57.900000165365249
 30
0.0
 11
8.4411715262448581
 21
60.900000165363309
 31
0.0
  0
LINE
  5
428
  8
0
 62
     0
 10
34.54117152624687
 20
87.000000165365307
 30
0.0
 11
37.541171526246927
 21
90.000000165365364
 31
0.0
  0
LINE
  5
429
  8
0
 62
     0
 10
-0.0000002576159517
 20
52.458828381502499
 30
0.0
 11
2.6941799964184119
 21
55.153008635536871
 31
0.0
  0
LINE
  5
42A
  8
0
 62
     0
 10
18.804173206421591
 20
72.610040263700427
 30
0.0
 11
21.944133108086479
 21
75.750000165365321
 31
0.0
  0
LINE
  5
42B
  8
0
 62
     0
 10
14.249999742383849
 20
68.055866799662681
 30
0.0
 11
17.389959644048488
 21
71.19582670132732
 31
0.0
  0
LINE
  5
42C
  8
0
 62
     0
 10
30.606045636907378
 20
84.411912694186213
 30
0.0
 11
33.007131060822971
 21
86.812998118101817
 31
0.0
  0
LINE
  5
42D
  8
0
 62
     0
 10
4.0941331080864103
 20
57.900000165365249
 30
0.0
 11
7.0941331080844767
 21
60.900000165363323
 31
0.0
  0
LINE
  5
42E
  8
0
 62
     0
 10
33.172038600434789
 20
86.977905657713606
 30
0.0
 11
36.194133108086547
 21
90.000000165365407
 31
0.0
  0
LINE
  5
42F
  8
0
 62
     0
 10
-0.0000002576159233
 20
53.805866799662901
 30
0.0
 11
2.510813510176745
 21
56.316680567455577
 31
0.0
  0
LINE
  5
430
  8
0
 62
     0
 10
14.24999974238386
 20
69.402905217823047
 30
0.0
 11
16.904556057628351
 21
72.057461533067567
 31
0.0
  0
LINE
  5
431
  8
0
 62
     0
 10
17.94253837468133
 20
73.095443850120546
 30
0.0
 11
20.597094689926092
 21
75.750000165365293
 31
0.0
  0
LINE
  5
432
  8
0
 62
     0
 10
2.7344224156869208
 20
57.887327891126127
 30
0.0
 11
5.7470946899240971
 21
60.900000165363302
 31
0.0
  0
LINE
  5
433
  8
0
 62
     0
 10
29.847094689924479
 20
85.000000165363659
 30
0.0
 11
34.84709468992618
 21
90.000000165365407
 31
0.0
  0
LINE
  5
434
  8
0
 62
     0
 10
-0.0000002576159375
 20
55.15290521782326
 30
0.0
 11
2.3589503455931569
 21
57.511855821032363
 31
0.0
  0
LINE
  5
435
  8
0
 62
     0
 10
14.24999974238386
 20
70.749943635983442
 30
0.0
 11
19.2500562717657
 21
75.750000165365293
 31
0.0
  0
LINE
  5
436
  8
0
 62
     0
 10
28.500056271764841
 20
85.000000165364412
 30
0.0
 11
33.500056271765828
 21
90.000000165365407
 31
0.0
  0
LINE
  5
437
  8
0
 62
     0
 10
-0.000000257615909
 20
56.499943635983662
 30
0.0
 11
4.9999997423857394
 21
61.499943635985318
 31
0.0
  0
LINE
  5
438
  8
0
 62
     0
 10
14.249999742383849
 20
72.096982054143808
 30
0.0
 11
17.90301785360532
 21
75.750000165365265
 31
0.0
  0
LINE
  5
439
  8
0
 62
     0
 10
27.15301785360521
 20
85.000000165365165
 30
0.0
 11
32.153017853605427
 21
90.000000165365364
 31
0.0
  0
LINE
  5
43A
  8
0
 62
     0
 10
-0.0000002576158948
 20
57.84698205414405
 30
0.0
 11
4.9999997423857252
 21
62.846982054145677
 31
0.0
  0
LINE
  5
43B
  8
0
 62
     0
 10
14.24999974238386
 20
73.444020472304203
 30
0.0
 11
16.601553111230579
 21
75.795573841150912
 31
0.0
  0
LINE
  5
43C
  8
0
 62
     0
 10
26.599999742383741
 20
85.794020472304055
 30
0.0
 11
30.805979435445071
 21
90.000000165365364
 31
0.0
  0
LINE
  5
43D
  8
0
 62
     0
 10
-0.0000002576158948
 20
59.194020472304437
 30
0.0
 11
4.2059794354429547
 21
63.400000165363267
 31
0.0
  0
LINE
  5
43E
  8
0
 62
     0
 10
14.10736102458092
 20
74.648420172661616
 30
0.0
 11
15.93753484056279
 21
76.478593988643496
 31
0.0
  0
LINE
  5
43F
  8
0
 62
     0
 10
26.599999742383769
 20
87.141058890464478
 30
0.0
 11
29.458941017284701
 21
90.000000165365364
 31
0.0
  0
LINE
  5
440
  8
0
 62
     0
 10
-0.0000002576158806
 20
60.541058890464818
 30
0.0
 11
2.858941017282489
 21
63.400000165363181
 31
0.0
  0
LINE
  5
441
  8
0
 62
     0
 10
13.454910406744
 20
75.343007972985077
 30
0.0
 11
15.89999974238378
 21
77.788097308624856
 31
0.0
  0
LINE
  5
442
  8
0
 62
     0
 10
26.599999742383829
 20
88.488097308624916
 30
0.0
 11
27.11190259912431
 21
89.000000165365364
 31
0.0
  0
LINE
  5
443
  8
0
 62
     0
 10
0.9999997423857963
 20
62.888097308626868
 30
0.0
 11
1.511902599122052
 21
63.400000165363117
 31
0.0
  0
LINE
  5
444
  8
0
 62
     0
 10
27.499999742383871
 20
89.388097308624936
 30
0.0
 11
28.111902599124338
 21
90.000000165365392
 31
0.0
  0
LINE
  5
445
  8
0
 62
     0
 10
-0.000000257615838
 20
61.888097308625227
 30
0.0
 11
0.6119025991223026
 21
62.500000165363367
 31
0.0
  0
LINE
  5
446
  8
0
 62
     0
 10
12.78139119766378
 20
76.016527182065218
 30
0.0
 11
15.8999997423838
 21
79.135135726785236
 31
0.0
  0
LINE
  5
447
  8
0
 62
     0
 10
12.10787198858354
 20
76.690046391145344
 30
0.0
 11
15.89999974238378
 21
80.482174144945574
 31
0.0
  0
LINE
  5
448
  8
0
 62
     0
 10
11.4343527795033
 20
77.363565600225485
 30
0.0
 11
15.89999974238377
 21
81.829212563105955
 31
0.0
  0
LINE
  5
449
  8
0
 62
     0
 10
9.8987464863696317
 20
77.174997725252183
 30
0.0
 11
15.89999974238377
 21
83.176250981266307
 31
0.0
  0
LINE
  5
44A
  8
0
 62
     0
 10
17.723748926480791
 20
85.00000016536336
 30
0.0
 11
18.39999974238378
 21
85.67625098126635
 31
0.0
  0
LINE
  5
44B
  8
0
 62
     0
 10
4.3237489264804481
 20
71.600000165363014
 30
0.0
 11
4.9999997423843041
 21
72.276250981266855
 31
0.0
  0
LINE
  5
44C
  8
0
 62
     0
 10
12.899999742383841
 20
81.523289399426787
 30
0.0
 11
15.89999974238374
 21
84.523289399426687
 31
0.0
  0
LINE
  5
44D
  8
0
 62
     0
 10
7.7808606723209124
 20
76.404150329363858
 30
0.0
 11
12.090759756432121
 21
80.714049413475067
 31
0.0
  0
LINE
  5
44E
  8
0
 62
     0
 10
16.376710508320411
 20
85.00000016536336
 30
0.0
 11
18.39999974238377
 21
87.023289399426702
 31
0.0
  0
LINE
  5
44F
  8
0
 62
     0
 10
2.9767105083200671
 20
71.600000165363014
 30
0.0
 11
4.9999997423849001
 21
73.623289399427847
 31
0.0
  0
LINE
  5
450
  8
0
 62
     0
 10
5.662974858272193
 20
75.633302933475505
 30
0.0
 11
10.68244641357651
 21
80.652774488779812
 31
0.0
  0
LINE
  5
451
  8
0
 62
     0
 10
12.89999974238385
 20
82.870327817587153
 30
0.0
 11
18.399999742383748
 21
88.370327817587054
 31
0.0
  0
LINE
  5
452
  8
0
 62
     0
 10
1.6296720901596871
 20
71.600000165362999
 30
0.0
 11
4.9999997423855262
 21
74.970327817588824
 31
0.0
  0
LINE
  5
453
  8
0
 62
     0
 10
12.899999742383869
 20
84.217366235747576
 30
0.0
 11
17.682633671999771
 21
89.000000165363446
 31
0.0
  0
LINE
  5
454
  8
0
 62
     0
 10
0.9999997423839488
 20
72.317366235747642
 30
0.0
 11
8.5645605995277805
 21
79.881927092891459
 31
0.0
  0
LINE
  5
455
  8
0
 62
     0
 10
12.89999974238385
 20
85.564404653907914
 30
0.0
 11
17.313355139325441
 21
89.977760050849469
 31
0.0
  0
LINE
  5
456
  8
0
 62
     0
 10
0.0222398568990343
 20
72.686644768423093
 30
0.0
 11
6.4466747854790611
 21
79.111079697003106
 31
0.0
  0
LINE
  5
457
  8
0
 62
     0
 10
12.851737707489031
 20
86.863181037173447
 30
0.0
 11
15.98855683568067
 21
90.000000165365094
 31
0.0
  0
LINE
  5
458
  8
0
 62
     0
 10
-0.0000002576161506
 20
74.011443072068275
 30
0.0
 11
4.3287889714303267
 21
78.340232301114753
 31
0.0
  0
LINE
  5
459
  8
0
 62
     0
 10
11.64151841751864
 20
87.000000165363403
 30
0.0
 11
14.641518417520141
 21
90.000000165364938
 31
0.0
  0
LINE
  5
45A
  8
0
 62
     0
 10
-0.0000002576161364
 20
75.358481490228655
 30
0.0
 11
2.9999997423838489
 21
78.358481490228641
 31
0.0
  0
LINE
  5
45B
  8
0
 62
     0
 10
10.29447999935824
 20
87.000000165363403
 30
0.0
 11
13.294479999359609
 21
90.000000165364781
 31
0.0
  0
LINE
  5
45C
  8
0
 62
     0
 10
-0.0000002576161506
 20
76.705519908389022
 30
0.0
 11
2.9999997423838352
 21
79.705519908389022
 31
0.0
  0
LINE
  5
45D
  8
0
 62
     0
 10
8.9474415811978645
 20
87.000000165363389
 30
0.0
 11
11.947441581199071
 21
90.000000165364611
 31
0.0
  0
LINE
  5
45E
  8
0
 62
     0
 10
-0.0000002576161364
 20
78.052558326549416
 30
0.0
 11
2.9999997423838201
 21
81.052558326549359
 31
0.0
  0
LINE
  5
45F
  8
0
 62
     0
 10
7.6004031630374982
 20
87.000000165363403
 30
0.0
 11
10.60040316303853
 21
90.000000165364455
 31
0.0
  0
LINE
  5
460
  8
0
 62
     0
 10
-0.0000002576161506
 20
79.399596744709754
 30
0.0
 11
2.9999997423838352
 21
82.399596744709754
 31
0.0
  0
LINE
  5
461
  8
0
 62
     0
 10
6.2533647448771026
 20
87.000000165363403
 30
0.0
 11
9.2533647448779703
 21
90.00000016536427
 31
0.0
  0
LINE
  5
462
  8
0
 62
     0
 10
-0.0000002576161648
 20
80.746635162870135
 30
0.0
 11
2.9999997423838201
 21
83.746635162870135
 31
0.0
  0
LINE
  5
463
  8
0
 62
     0
 10
4.9063263267167221
 20
87.000000165363389
 30
0.0
 11
7.9063263267174326
 21
90.000000165364085
 31
0.0
  0
LINE
  5
464
  8
0
 62
     0
 10
-0.0000002576161506
 20
82.093673581030515
 30
0.0
 11
2.9999997423838058
 21
85.093673581030487
 31
0.0
  0
LINE
  5
465
  8
0
 62
     0
 10
3.559287908556342
 20
87.000000165363389
 30
0.0
 11
6.5592879085568958
 21
90.000000165363929
 31
0.0
  0
LINE
  5
466
  8
0
 62
     0
 10
-0.0000002576161364
 20
83.440711999190896
 30
0.0
 11
2.9999997423838201
 21
86.440711999190853
 31
0.0
  0
LINE
  5
467
  8
0
 62
     0
 10
-0.0000002576161506
 20
84.787750417351262
 30
0.0
 11
5.2122494903963448
 21
90.000000165363744
 31
0.0
  0
LINE
  5
468
  8
0
 62
     0
 10
-0.0000002576161506
 20
86.134788835511628
 30
0.0
 11
3.8652110722358368
 21
90.000000165363588
 31
0.0
  0
LINE
  5
469
  8
0
 62
     0
 10
-0.0000002576161364
 20
87.481827253671995
 30
0.0
 11
2.5181726540753142
 21
90.000000165363446
 31
0.0
  0
ENDBLK
  5
46B
  8
0
  0
ENDSEC
  0
SECTION
  2
ENTITIES
  0
ARC
  5
A1
  8
0
  6
CONTINUOUS
 10
739.93082850590861
 20
619.64282918203594
 30
0.0
 40
2.5
 50
0.0
 51
90.0
  0
LINE
  5
A2
  8
0
  6
CONTINUOUS
 10
739.93082850590861
 20
622.14282918203594
 30
0.0
 11
725.23082850590868
 21
622.14282918203776
 31
0.0
  0
ARC
  5
A3
  8
0
  6
CONTINUOUS
 10
725.23082850590868
 20
621.84282918203769
 30
0.0
 40
0.3000000000000682
 50
90.0
 51
179.99999999997829
  0
LINE
  5
A4
  8
0
  6
CONTINUOUS
 10
724.93082850590872
 20
621.84282918203769
 30
0.0
 11
724.93082850590838
 21
621.14282918203594
 31
0.0
  0
LINE
  5
A5
  8
0
  6
CONTINUOUS
 10
724.93082850590838
 20
621.14282918203594
 30
0.0
 11
724.33082850590881
 21
621.14282918203594
 31
0.0
  0
ARC
  5
A6
  8
0
  6
CONTINUOUS
 10
724.33082850590893
 20
620.84282918203598
 30
0.0
 40
0.2999999999999545
 50
90.0000000000217
 51
180.00000000002171
  0
LINE
  5
A7
  8
0
  6
CONTINUOUS
 10
724.03082850590874
 20
620.84282918203576
 30
0.0
 11
724.03082850590874
 21
617.44282918203578
 31
0.0
  0
ARC
  5
A8
  8
0
  6
CONTINUOUS
 10
724.33082850590881
 20
617.44282918203578
 30
0.0
 40
0.2999999999999545
 50
180.0
 51
270.0
  0
LINE
  5
A9
  8
0
  6
CONTINUOUS
 10
724.33082850590881
 20
617.14282918203594
 30
0.0
 11
726.53082850590874
 21
617.14282918203594
 31
0.0
  0
LINE
  5
AA
  8
0
  6
CONTINUOUS
 10
726.53082850590874
 20
617.14282918203594
 30
0.0
 11
726.53082850590874
 21
608.89282918203764
 31
0.0
  0
ARC
  5
AB
  8
0
  6
CONTINUOUS
 10
725.53082850590874
 20
608.89282918203764
 30
0.0
 40
1.0
 50
270.0
 51
0.0
  0
LINE
  5
AC
  8
0
  6
CONTINUOUS
 10
725.53082850590874
 20
607.89282918203764
 30
0.0
 11
713.86280902125009
 21
607.89282918203776
 31
0.0
  0
ARC
  5
AD
  8
0
  6
CONTINUOUS
 10
713.86280902124975
 20
608.89282918203776
 30
0.0
 40
1.0
 50
225.00000000000921
 51
270.00000000001302
  0
LINE
  5
AE
  8
0
  6
CONTINUOUS
 10
713.15570224006342
 20
608.1857224008512
 30
0.0
 11
710.17193101160615
 21
611.16949362930904
 31
0.0
  0
ARC
  5
AF
  8
0
  6
CONTINUOUS
 10
710.52548440219948
 20
611.52304701990238
 30
0.0
 40
0.500000000000004
 50
159.999999999994
 51
224.99999999999079
  0
LINE
  5
B0
  8
0
  6
CONTINUOUS
 10
710.0556380918066
 20
611.69405709156524
 30
0.0
 11
712.03882894603862
 21
617.14282918203594
 31
0.0
  0
LINE
  5
B1
  8
0
  6
CONTINUOUS
 10
712.03882894603862
 20
617.14282918203594
 30
0.0
 11
715.53082850590897
 21
617.14282918203764
 31
0.0
  0
ARC
  5
B2
  8
0
  6
CONTINUOUS
 10
715.53082850590886
 20
617.44282918203771
 30
0.0
 40
0.2999999999999545
 50
270.00000000004343
 51
0.0000000000217126
  0
LINE
  5
B3
  8
0
  6
CONTINUOUS
 10
715.83082850590881
 20
617.44282918203783
 30
0.0
 11
715.83082850590881
 21
620.8428291820378
 31
0.0
  0
ARC
  5
B4
  8
0
  6
CONTINUOUS
 10
715.53082850590886
 20
620.8428291820378
 30
0.0
 40
0.2999999999999545
 50
0.0
 51
90.0
  0
LINE
  5
B5
  8
0
  6
CONTINUOUS
 10
715.53082850590886
 20
621.14282918203787
 30
0.0
 11
714.93082850590861
 21
621.14282918203787
 31
0.0
  0
LINE
  5
B6
  8
0
  6
CONTINUOUS
 10
714.93082850590861
 20
621.14282918203787
 30
0.0
 11
714.93082850590861
 21
621.84282918203792
 31
0.0
  0
ARC
  5
B7
  8
0
  6
CONTINUOUS
 10
714.63082850590865
 20
621.84282918203792
 30
0.0
 40
0.2999999999999545
 50
0.0
 51
90.0
  0
LINE
  5
B8
  8
0
  6
CONTINUOUS
 10
714.63082850590865
 20
622.14282918203776
 30
0.0
 11
680.23082850590879
 21
622.14282918203776
 31
0.0
  0
ARC
  5
B9
  8
0
  6
CONTINUOUS
 10
680.23082850590879
 20
621.84282918203769
 30
0.0
 40
0.3000000000000682
 50
90.0
 51
179.99999999997829
  0
LINE
  5
BA
  8
0
  6
CONTINUOUS
 10
679.93082850590872
 20
621.84282918203792
 30
0.0
 11
679.93082850590872
 21
621.14282918203787
 31
0.0
  0
LINE
  5
BB
  8
0
  6
CONTINUOUS
 10
679.93082850590872
 20
621.14282918203787
 30
0.0
 11
679.3308285059087
 21
621.14282918203787
 31
0.0
  0
ARC
  5
BC
  8
0
  6
CONTINUOUS
 10
679.3308285059087
 20
620.8428291820378
 30
0.0
 40
0.3000000000000682
 50
90.0
 51
180.0
  0
LINE
  5
BD
  8
0
  6
CONTINUOUS
 10
679.03082850590874
 20
620.8428291820378
 30
0.0
 11
679.03082850590863
 21
617.44282918203783
 31
0.0
  0
ARC
  5
BE
  8
0
  6
CONTINUOUS
 10
679.3308285059087
 20
617.44282918203794
 30
0.0
 40
0.3000000000000682
 50
180.00000000002171
 51
269.99999999997829
  0
LINE
  5
BF
  8
0
  6
CONTINUOUS
 10
679.33082850590858
 20
617.14282918203764
 30
0.0
 11
682.82282806577894
 21
617.14282918203594
 31
0.0
  0
LINE
  5
C0
  8
0
  6
CONTINUOUS
 10
682.82282806577894
 20
617.14282918203594
 30
0.0
 11
684.80601892001073
 21
611.69405709156524
 31
0.0
  0
ARC
  5
C1
  8
0
  6
CONTINUOUS
 10
684.33617260961785
 20
611.52304701990226
 30
0.0
 40
0.4999999999999805
 50
315.00000000002763
 51
20.000000000018179
  0
LINE
  5
C2
  8
0
  6
CONTINUOUS
 10
684.68972600021129
 20
611.16949362930904
 30
0.0
 11
681.70595477175402
 21
608.1857224008512
 31
0.0
  0
ARC
  5
C3
  8
0
  6
CONTINUOUS
 10
680.99884799056747
 20
608.89282918203776
 30
0.0
 40
1.0000000000000071
 50
269.99999999998698
 51
314.99999999999079
  0
LINE
  5
C4
  8
0
  6
CONTINUOUS
 10
680.99884799056736
 20
607.89282918203776
 30
0.0
 11
669.3308285059087
 21
607.89282918203764
 31
0.0
  0
ARC
  5
C5
  8
0
  6
CONTINUOUS
 10
669.3308285059087
 20
608.89282918203764
 30
0.0
 40
1.0
 50
180.0
 51
270.0
  0
LINE
  5
C6
  8
0
  6
CONTINUOUS
 10
668.33082850590858
 20
608.89282918203764
 30
0.0
 11
668.33082850590858
 21
617.14282918203594
 31
0.0
  0
LINE
  5
C7
  8
0
  6
CONTINUOUS
 10
668.33082850590858
 20
617.14282918203594
 30
0.0
 11
670.53082850590863
 21
617.14282918203594
 31
0.0
  0
ARC
  5
C8
  8
0
  6
CONTINUOUS
 10
670.53082850590874
 20
617.44282918203578
 30
0.0
 40
0.2999999999999545
 50
269.99999999997829
 51
0.0
  0
LINE
  5
C9
  8
0
  6
CONTINUOUS
 10
670.8308285059087
 20
617.44282918203578
 30
0.0
 11
670.8308285059087
 21
620.84282918203576
 31
0.0
  0
ARC
  5
CA
  8
0
  6
CONTINUOUS
 10
670.53082850590863
 20
620.84282918203576
 30
0.0
 40
0.3000000000000682
 50
0.0
 51
90.0
  0
LINE
  5
CB
  8
0
  6
CONTINUOUS
 10
670.53082850590863
 20
621.14282918203594
 30
0.0
 11
669.93082850590895
 21
621.14282918203594
 31
0.0
  0
LINE
  5
CC
  8
0
  6
CONTINUOUS
 10
669.93082850590895
 20
621.14282918203594
 30
0.0
 11
669.93082850590883
 21
621.84282918203769
 31
0.0
  0
ARC
  5
CD
  8
0
  6
CONTINUOUS
 10
669.63082850590888
 20
621.84282918203769
 30
0.0
 40
0.2999999999999545
 50
0.0000000000217126
 51
90.0000000000217
  0
LINE
  5
CE
  8
0
  6
CONTINUOUS
 10
669.63082850590865
 20
622.14282918203776
 30
0.0
 11
654.93082850590872
 21
622.14282918203594
 31
0.0
  0
ARC
  5
CF
  8
0
  6
CONTINUOUS
 10
654.93082850590872
 20
619.64282918203594
 30
0.0
 40
2.5
 50
90.0
 51
180.0
  0
LINE
  5
D0
  8
0
  6
CONTINUOUS
 10
652.43082850590861
 20
619.64282918203594
 30
0.0
 11
652.43082850590861
 21
604.94282918203567
 31
0.0
  0
ARC
  5
D1
  8
0
  6
CONTINUOUS
 10
652.73082850590879
 20
604.94282918203567
 30
0.0
 40
0.3000000000001819
 50
180.0
 51
269.99999999997829
  0
LINE
  5
D2
  8
0
  6
CONTINUOUS
 10
652.73082850590868
 20
604.6428291820356
 30
0.0
 11
653.43082850590895
 21
604.6428291820356
 31
0.0
  0
LINE
  5
D3
  8
0
  6
CONTINUOUS
 10
653.43082850590895
 20
604.6428291820356
 30
0.0
 11
653.43082850590883
 21
604.04282918203546
 31
0.0
  0
ARC
  5
D4
  8
0
  6
CONTINUOUS
 10
653.7308285059089
 20
604.04282918203546
 30
0.0
 40
0.3000000000000682
 50
180.0
 51
270.0
  0
LINE
  5
D5
  8
0
  6
CONTINUOUS
 10
653.7308285059089
 20
603.74282918203539
 30
0.0
 11
657.13082850590899
 21
603.74282918203539
 31
0.0
  0
ARC
  5
D6
  8
0
  6
CONTINUOUS
 10
657.13082850590911
 20
604.04282918203546
 30
0.0
 40
0.3000000000000682
 50
269.99999999997829
 51
0.0
  0
LINE
  5
D7
  8
0
  6
CONTINUOUS
 10
657.43082850590895
 20
604.04282918203546
 30
0.0
 11
657.43082850591065
 21
607.53482874190615
 31
0.0
  0
LINE
  5
D8
  8
0
  6
CONTINUOUS
 10
657.43082850591065
 20
607.53482874190615
 30
0.0
 11
663.29433503173732
 21
609.6689705857325
 31
0.0
  0
ARC
  5
D9
  8
0
  6
CONTINUOUS
 10
663.46534510339995
 20
609.19912427533961
 30
0.0
 40
0.5000000000000096
 50
44.999999999990777
 51
109.9999999999892
  0
LINE
  5
DA
  8
0
  6
CONTINUOUS
 10
663.8188984939934
 20
609.55267766593283
 30
0.0
 11
666.38793528709516
 21
606.98364087283119
 31
0.0
  0
ARC
  5
DB
  8
0
  6
CONTINUOUS
 10
665.68082850590883
 20
606.27653409164475
 30
0.0
 40
0.9999999999998472
 50
359.99999999999352
 51
45.0
  0
LINE
  5
DC
  8
0
  6
CONTINUOUS
 10
666.68082850590872
 20
606.27653409164475
 30
0.0
 11
666.68082850590872
 21
594.04282918203569
 31
0.0
  0
ARC
  5
DD
  8
0
  6
CONTINUOUS
 10
665.68082850590872
 20
594.04282918203569
 30
0.0
 40
1.0
 50
270.0
 51
0.0
  0
LINE
  5
DE
  8
0
  6
CONTINUOUS
 10
665.68082850590872
 20
593.0428291820358
 30
0.0
 11
657.43082850591065
 21
593.0428291820358
 31
0.0
  0
LINE
  5
DF
  8
0
  6
CONTINUOUS
 10
657.43082850591065
 20
593.0428291820358
 30
0.0
 11
657.43082850591065
 21
595.24282918203585
 31
0.0
  0
ARC
  5
E0
  8
0
  6
CONTINUOUS
 10
657.1308285059107
 20
595.24282918203585
 30
0.0
 40
0.2999999999999545
 50
0.0
 51
90.0000000000217
  0
LINE
  5
E1
  8
0
  6
CONTINUOUS
 10
657.13082850591059
 20
595.5428291820358
 30
0.0
 11
653.73082850591072
 21
595.54282918203546
 31
0.0
  0
ARC
  5
E2
  8
0
  6
CONTINUOUS
 10
653.73082850591072
 20
595.24282918203562
 30
0.0
 40
0.2999999999999545
 50
90.0
 51
180.00000000002171
  0
LINE
  5
E3
  8
0
  6
CONTINUOUS
 10
653.43082850591077
 20
595.24282918203539
 30
0.0
 11
653.43082850591077
 21
594.64282918203594
 31
0.0
  0
LINE
  5
E4
  8
0
  6
CONTINUOUS
 10
653.43082850591077
 20
594.64282918203594
 30
0.0
 11
652.73082850590902
 21
594.64282918203583
 31
0.0
  0
ARC
  5
E5
  8
0
  6
CONTINUOUS
 10
652.73082850590913
 20
594.34282918203576
 30
0.0
 40
0.3000000000000682
 50
90.0000000000217
 51
180.0
  0
LINE
  5
E6
  8
0
  6
CONTINUOUS
 10
652.43082850590895
 20
594.34282918203576
 30
0.0
 11
652.43082850590895
 21
577.1428291820373
 31
0.0
  0
LINE
  5
E7
  8
0
  6
CONTINUOUS
 10
652.43082850590895
 20
577.1428291820373
 30
0.0
 11
652.43082850590895
 21
559.94282918203862
 31
0.0
  0
ARC
  5
E8
  8
0
  6
CONTINUOUS
 10
652.73082850590902
 20
559.94282918203862
 30
0.0
 40
0.2999999999999545
 50
180.0
 51
270.0
  0
LINE
  5
E9
  8
0
  6
CONTINUOUS
 10
652.73082850590902
 20
559.64282918203855
 30
0.0
 11
653.43082850591077
 21
559.64282918203855
 31
0.0
  0
LINE
  5
EA
  8
0
  6
CONTINUOUS
 10
653.43082850591077
 20
559.64282918203855
 30
0.0
 11
653.43082850591077
 21
559.04282918203899
 31
0.0
  0
ARC
  5
EB
  8
0
  6
CONTINUOUS
 10
653.73082850591072
 20
559.04282918203899
 30
0.0
 40
0.2999999999999545
 50
180.0
 51
270.0
  0
LINE
  5
EC
  8
0
  6
CONTINUOUS
 10
653.73082850591072
 20
558.74282918203892
 30
0.0
 11
657.13082850591059
 21
558.74282918203858
 31
0.0
  0
ARC
  5
ED
  8
0
  6
CONTINUOUS
 10
657.1308285059107
 20
559.04282918203864
 30
0.0
 40
0.3000000000000682
 50
269.99999999997829
 51
359.99999999997829
  0
LINE
  5
EE
  8
0
  6
CONTINUOUS
 10
657.43082850591065
 20
559.04282918203864
 30
0.0
 11
657.43082850591065
 21
561.24282918203858
 31
0.0
  0
LINE
  5
EF
  8
0
  6
CONTINUOUS
 10
657.43082850591065
 20
561.24282918203858
 30
0.0
 11
665.68082850590872
 21
561.24282918203858
 31
0.0
  0
ARC
  5
F0
  8
0
  6
CONTINUOUS
 10
665.68082850590872
 20
560.24282918203869
 30
0.0
 40
1.0
 50
0.0
 51
90.0
  0
LINE
  5
F1
  8
0
  6
CONTINUOUS
 10
666.68082850590872
 20
560.24282918203869
 30
0.0
 11
666.68082850590872
 21
548.00912427242974
 31
0.0
  0
ARC
  5
F2
  8
0
  6
CONTINUOUS
 10
665.68082850590895
 20
548.00912427242974
 30
0.0
 40
0.9999999999997726
 50
314.99999999999079
 51
0.0
  0
LINE
  5
F3
  8
0
  6
CONTINUOUS
 10
666.38793528709516
 20
547.30201749124319
 30
0.0
 11
663.8188984939934
 21
544.73298069814155
 31
0.0
  0
ARC
  5
F4
  8
0
  6
CONTINUOUS
 10
663.46534510339995
 20
545.08653408873477
 30
0.0
 40
0.500000000000004
 50
250.0000000000108
 51
315.00000000000921
  0
LINE
  5
F5
  8
0
  6
CONTINUOUS
 10
663.29433503173732
 20
544.61668777834188
 30
0.0
 11
657.43082850591065
 21
546.75082962216834
 31
0.0
  0
LINE
  5
F6
  8
0
  6
CONTINUOUS
 10
657.43082850591065
 20
546.75082962216834
 30
0.0
 11
657.43082850590895
 21
550.24282918203892
 31
0.0
  0
ARC
  5
F7
  8
0
  6
CONTINUOUS
 10
657.13082850590911
 20
550.24282918203892
 30
0.0
 40
0.2999999999999545
 50
0.0
 51
90.0000000000217
  0
LINE
  5
F8
  8
0
  6
CONTINUOUS
 10
657.13082850590899
 20
550.54282918203899
 30
0.0
 11
653.7308285059089
 21
550.54282918203899
 31
0.0
  0
ARC
  5
F9
  8
0
  6
CONTINUOUS
 10
653.7308285059089
 20
550.24282918203892
 30
0.0
 40
0.3000000000000682
 50
90.0
 51
180.0
  0
LINE
  5
FA
  8
0
  6
CONTINUOUS
 10
653.43082850590883
 20
550.24282918203892
 30
0.0
 11
653.43082850590895
 21
549.64282918203878
 31
0.0
  0
LINE
  5
FB
  8
0
  6
CONTINUOUS
 10
653.43082850590895
 20
549.64282918203878
 30
0.0
 11
652.73082850590868
 21
549.64282918203878
 31
0.0
  0
ARC
  5
FC
  8
0
  6
CONTINUOUS
 10
652.73082850590879
 20
549.34282918203871
 30
0.0
 40
0.3000000000000682
 50
90.0000000000217
 51
180.0
  0
LINE
  5
FD
  8
0
  6
CONTINUOUS
 10
652.43082850590861
 20
549.34282918203871
 30
0.0
 11
652.43082850590861
 21
534.64282918203855
 31
0.0
  0
ARC
  5
FE
  8
0
  6
CONTINUOUS
 10
654.93082850590872
 20
534.64282918203855
 30
0.0
 40
2.5
 50
180.0
 51
270.0
  0
LINE
  5
FF
  8
0
  6
CONTINUOUS
 10
654.93082850590872
 20
532.14282918203855
 30
0.0
 11
669.63082850590865
 21
532.14282918203673
 31
0.0
  0
ARC
  5
100
  8
0
  6
CONTINUOUS
 10
669.63082850590888
 20
532.4428291820368
 30
0.0
 40
0.3000000000000682
 50
269.99999999997829
 51
359.99999999997829
  0
LINE
  5
101
  8
0
  6
CONTINUOUS
 10
669.93082850590883
 20
532.44282918203669
 30
0.0
 11
669.93082850590895
 21
533.14282918203855
 31
0.0
  0
LINE
  5
102
  8
0
  6
CONTINUOUS
 10
669.93082850590895
 20
533.14282918203855
 30
0.0
 11
670.53082850590863
 21
533.14282918203855
 31
0.0
  0
ARC
  5
103
  8
0
  6
CONTINUOUS
 10
670.53082850590863
 20
533.44282918203862
 30
0.0
 40
0.3000000000000682
 50
270.0
 51
0.0
  0
LINE
  5
104
  8
0
  6
CONTINUOUS
 10
670.8308285059087
 20
533.44282918203862
 30
0.0
 11
670.8308285059087
 21
536.8428291820386
 31
0.0
  0
ARC
  5
105
  8
0
  6
CONTINUOUS
 10
670.53082850590863
 20
536.8428291820386
 30
0.0
 40
0.3000000000000682
 50
0.0
 51
90.0
  0
LINE
  5
106
  8
0
  6
CONTINUOUS
 10
670.53082850590863
 20
537.14282918203855
 30
0.0
 11
668.33082850590858
 21
537.14282918203855
 31
0.0
  0
LINE
  5
107
  8
0
  6
CONTINUOUS
 10
668.33082850590858
 20
537.14282918203855
 30
0.0
 11
668.33082850590858
 21
545.39282918203673
 31
0.0
  0
ARC
  5
108
  8
0
  6
CONTINUOUS
 10
669.3308285059087
 20
545.39282918203673
 30
0.0
 40
1.0
 50
90.0
 51
180.0
  0
LINE
  5
109
  8
0
  6
CONTINUOUS
 10
669.3308285059087
 20
546.39282918203673
 30
0.0
 11
680.99884799056736
 21
546.39282918203662
 31
0.0
  0
ARC
  5
10A
  8
0
  6
CONTINUOUS
 10
680.99884799056747
 20
545.39282918203662
 30
0.0
 40
1.0
 50
45.000000000009209
 51
90.000000000013031
  0
LINE
  5
10B
  8
0
  6
CONTINUOUS
 10
681.70595477175402
 20
546.09993596322317
 30
0.0
 11
684.68972600021129
 21
543.11616473476533
 31
0.0
  0
ARC
  5
10C
  8
0
  6
CONTINUOUS
 10
684.33617260961785
 20
542.76261134417223
 30
0.0
 40
0.500000000000004
 50
339.99999999998181
 51
44.99999999997236
  0
LINE
  5
10D
  8
0
  6
CONTINUOUS
 10
684.80601892001073
 20
542.59160127250925
 30
0.0
 11
682.82282806577894
 21
537.14282918203855
 31
0.0
  0
LINE
  5
10E
  8
0
  6
CONTINUOUS
 10
682.82282806577894
 20
537.14282918203855
 30
0.0
 11
679.33082850590858
 21
537.14282918203651
 31
0.0
  0
ARC
  5
10F
  8
0
  6
CONTINUOUS
 10
679.33082850590881
 20
536.84282918203655
 30
0.0
 40
0.2999999999999545
 50
90.000000000043414
 51
180.0
  0
LINE
  5
110
  8
0
  6
CONTINUOUS
 10
679.03082850590874
 20
536.84282918203655
 30
0.0
 11
679.03082850590874
 21
533.44282918203658
 31
0.0
  0
ARC
  5
111
  8
0
  6
CONTINUOUS
 10
679.3308285059087
 20
533.44282918203658
 30
0.0
 40
0.2999999999999545
 50
179.99999999997829
 51
270.0
  0
LINE
  5
112
  8
0
  6
CONTINUOUS
 10
679.3308285059087
 20
533.14282918203651
 30
0.0
 11
679.93082850590872
 21
533.14282918203651
 31
0.0
  0
LINE
  5
113
  8
0
  6
CONTINUOUS
 10
679.93082850590872
 20
533.14282918203651
 30
0.0
 11
679.93082850590872
 21
532.44282918203658
 31
0.0
  0
ARC
  5
114
  8
0
  6
CONTINUOUS
 10
680.23082850590879
 20
532.44282918203658
 30
0.0
 40
0.3000000000000682
 50
180.0
 51
270.0
  0
LINE
  5
115
  8
0
  6
CONTINUOUS
 10
680.23082850590879
 20
532.14282918203662
 30
0.0
 11
714.63082850590865
 21
532.14282918203662
 31
0.0
  0
ARC
  5
116
  8
0
  6
CONTINUOUS
 10
714.63082850590865
 20
532.44282918203658
 30
0.0
 40
0.2999999999999545
 50
270.0
 51
0.0
  0
LINE
  5
117
  8
0
  6
CONTINUOUS
 10
714.93082850590861
 20
532.44282918203658
 30
0.0
 11
714.93082850590861
 21
533.14282918203651
 31
0.0
  0
LINE
  5
118
  8
0
  6
CONTINUOUS
 10
714.93082850590861
 20
533.14282918203651
 30
0.0
 11
715.53082850590886
 21
533.14282918203651
 31
0.0
  0
ARC
  5
119
  8
0
  6
CONTINUOUS
 10
715.53082850590886
 20
533.44282918203658
 30
0.0
 40
0.2999999999999545
 50
270.0
 51
0.0000000000217126
  0
LINE
  5
11A
  8
0
  6
CONTINUOUS
 10
715.83082850590881
 20
533.44282918203658
 30
0.0
 11
715.83082850590881
 21
536.84282918203655
 31
0.0
  0
ARC
  5
11B
  8
0
  6
CONTINUOUS
 10
715.53082850590886
 20
536.84282918203667
 30
0.0
 40
0.2999999999999545
 50
359.99999999997829
 51
89.999999999956557
  0
LINE
  5
11C
  8
0
  6
CONTINUOUS
 10
715.53082850590897
 20
537.14282918203673
 30
0.0
 11
712.03882894603862
 21
537.14282918203855
 31
0.0
  0
LINE
  5
11D
  8
0
  6
CONTINUOUS
 10
712.03882894603862
 20
537.14282918203855
 30
0.0
 11
710.0556380918066
 21
542.59160127250925
 31
0.0
  0
ARC
  5
11E
  8
0
  6
CONTINUOUS
 10
710.52548440219948
 20
542.76261134417223
 30
0.0
 40
0.4999999999999805
 50
135.00000000001839
 51
200.0000000000181
  0
LINE
  5
11F
  8
0
  6
CONTINUOUS
 10
710.17193101160615
 20
543.11616473476533
 30
0.0
 11
713.15570224006342
 21
546.09993596322317
 31
0.0
  0
ARC
  5
120
  8
0
  6
CONTINUOUS
 10
713.86280902124975
 20
545.39282918203662
 30
0.0
 40
1.0000000000000071
 50
89.999999999986969
 51
134.99999999999079
  0
LINE
  5
121
  8
0
  6
CONTINUOUS
 10
713.86280902125009
 20
546.39282918203662
 30
0.0
 11
725.53082850590874
 21
546.39282918203673
 31
0.0
  0
ARC
  5
122
  8
0
  6
CONTINUOUS
 10
725.53082850590874
 20
545.39282918203673
 30
0.0
 40
1.0
 50
0.0
 51
90.0
  0
LINE
  5
123
  8
0
  6
CONTINUOUS
 10
726.53082850590874
 20
545.39282918203673
 30
0.0
 11
726.53082850590874
 21
537.14282918203855
 31
0.0
  0
LINE
  5
124
  8
0
  6
CONTINUOUS
 10
726.53082850590874
 20
537.14282918203855
 30
0.0
 11
724.33082850590881
 21
537.14282918203855
 31
0.0
  0
ARC
  5
125
  8
0
  6
CONTINUOUS
 10
724.33082850590881
 20
536.84282918203871
 30
0.0
 40
0.2999999999999545
 50
90.0
 51
180.00000000002171
  0
LINE
  5
126
  8
0
  6
CONTINUOUS
 10
724.03082850590874
 20
536.8428291820386
 30
0.0
 11
724.03082850590874
 21
533.44282918203862
 31
0.0
  0
ARC
  5
127
  8
0
  6
CONTINUOUS
 10
724.33082850590893
 20
533.44282918203862
 30
0.0
 40
0.3000000000000682
 50
180.0
 51
269.99999999997829
  0
LINE
  5
128
  8
0
  6
CONTINUOUS
 10
724.33082850590881
 20
533.14282918203855
 30
0.0
 11
724.93082850590838
 21
533.14282918203855
 31
0.0
  0
LINE
  5
129
  8
0
  6
CONTINUOUS
 10
724.93082850590838
 20
533.14282918203855
 30
0.0
 11
724.93082850590872
 21
532.44282918203669
 31
0.0
  0
ARC
  5
12A
  8
0
  6
CONTINUOUS
 10
725.23082850590856
 20
532.4428291820368
 30
0.0
 40
0.2999999999999545
 50
180.00000000002171
 51
270.0
  0
LINE
  5
12B
  8
0
  6
CONTINUOUS
 10
725.23082850590856
 20
532.14282918203673
 30
0.0
 11
739.93082850590861
 21
532.14282918203855
 31
0.0
  0
ARC
  5
12C
  8
0
  6
CONTINUOUS
 10
739.93082850590861
 20
534.64282918203855
 30
0.0
 40
2.5
 50
270.0
 51
0.0
  0
LINE
  5
12D
  8
0
  6
CONTINUOUS
 10
742.43082850590872
 20
534.64282918203855
 30
0.0
 11
742.43082850590872
 21
549.34282918203871
 31
0.0
  0
ARC
  5
12E
  8
0
  6
CONTINUOUS
 10
742.13082850590877
 20
549.34282918203871
 30
0.0
 40
0.2999999999999545
 50
0.0
 51
90.0
  0
LINE
  5
12F
  8
0
  6
CONTINUOUS
 10
742.13082850590877
 20
549.64282918203878
 30
0.0
 11
741.43082850590872
 21
549.64282918203878
 31
0.0
  0
LINE
  5
130
  8
0
  6
CONTINUOUS
 10
741.43082850590872
 20
549.64282918203878
 30
0.0
 11
741.43082850590872
 21
550.24282918203892
 31
0.0
  0
ARC
  5
131
  8
0
  6
CONTINUOUS
 10
741.13082850590854
 20
550.24282918203892
 30
0.0
 40
0.3000000000001819
 50
0.0
 51
89.999999999978314
  0
LINE
  5
132
  8
0
  6
CONTINUOUS
 10
741.13082850590865
 20
550.54282918203899
 30
0.0
 11
737.73082850590845
 21
550.54282918203899
 31
0.0
  0
ARC
  5
133
  8
0
  6
CONTINUOUS
 10
737.73082850590845
 20
550.24282918203903
 30
0.0
 40
0.2999999999999545
 50
90.0
 51
180.00000000002171
  0
LINE
  5
134
  8
0
  6
CONTINUOUS
 10
737.43082850590838
 20
550.24282918203892
 30
0.0
 11
737.43082850590679
 21
546.75082962216834
 31
0.0
  0
LINE
  5
135
  8
0
  6
CONTINUOUS
 10
737.43082850590679
 20
546.75082962216834
 30
0.0
 11
731.56732198008001
 21
544.61668777834188
 31
0.0
  0
ARC
  5
136
  8
0
  6
CONTINUOUS
 10
731.39631190841726
 20
545.08653408873465
 30
0.0
 40
0.4999999999999027
 50
224.99999999999079
 51
289.99999999999369
  0
LINE
  5
137
  8
0
  6
CONTINUOUS
 10
731.04275851782415
 20
544.73298069814155
 30
0.0
 11
728.47372172472217
 21
547.30201749124319
 31
0.0
  0
ARC
  5
138
  8
0
  6
CONTINUOUS
 10
729.18082850590861
 20
548.00912427242974
 30
0.0
 40
0.9999999999998475
 50
180.0
 51
225.00000000000921
  0
LINE
  5
139
  8
0
  6
CONTINUOUS
 10
728.18082850590872
 20
548.00912427242974
 30
0.0
 11
728.18082850590872
 21
560.24282918203869
 31
0.0
  0
ARC
  5
13A
  8
0
  6
CONTINUOUS
 10
729.18082850590872
 20
560.24282918203869
 30
0.0
 40
1.0
 50
90.0
 51
180.0
  0
LINE
  5
13B
  8
0
  6
CONTINUOUS
 10
729.18082850590872
 20
561.24282918203858
 30
0.0
 11
737.43082850590679
 21
561.24282918203858
 31
0.0
  0
LINE
  5
13C
  8
0
  6
CONTINUOUS
 10
737.43082850590679
 20
561.24282918203858
 30
0.0
 11
737.43082850590679
 21
559.04282918203864
 31
0.0
  0
ARC
  5
13D
  8
0
  6
CONTINUOUS
 10
737.73082850590686
 20
559.04282918203864
 30
0.0
 40
0.3000000000000682
 50
180.00000000002171
 51
270.0
  0
LINE
  5
13E
  8
0
  6
CONTINUOUS
 10
737.73082850590686
 20
558.74282918203858
 30
0.0
 11
741.13082850590695
 21
558.74282918203892
 31
0.0
  0
ARC
  5
13F
  8
0
  6
CONTINUOUS
 10
741.13082850590695
 20
559.04282918203899
 30
0.0
 40
0.3000000000000682
 50
270.0
 51
0.0
  0
LINE
  5
140
  8
0
  6
CONTINUOUS
 10
741.43082850590679
 20
559.04282918203899
 30
0.0
 11
741.43082850590679
 21
559.64282918203855
 31
0.0
  0
LINE
  5
141
  8
0
  6
CONTINUOUS
 10
741.43082850590679
 20
559.64282918203855
 30
0.0
 11
742.13082850590854
 21
559.64282918203855
 31
0.0
  0
ARC
  5
142
  8
0
  6
CONTINUOUS
 10
742.13082850590854
 20
559.94282918203862
 30
0.0
 40
0.2999999999999545
 50
270.0
 51
0.0
  0
LINE
  5
143
  8
0
  6
CONTINUOUS
 10
742.43082850590838
 20
559.94282918203862
 30
0.0
 11
742.43082850590872
 21
577.1428291820373
 31
0.0
  0
LINE
  5
144
  8
0
  6
CONTINUOUS
 10
742.43082850590872
 20
577.1428291820373
 30
0.0
 11
742.43082850590838
 21
594.34282918203576
 31
0.0
  0
ARC
  5
145
  8
0
  6
CONTINUOUS
 10
742.13082850590843
 20
594.34282918203576
 30
0.0
 40
0.3000000000000682
 50
0.0
 51
89.999999999978314
  0
LINE
  5
146
  8
0
  6
CONTINUOUS
 10
742.13082850590854
 20
594.64282918203583
 30
0.0
 11
741.43082850590679
 21
594.64282918203594
 31
0.0
  0
LINE
  5
147
  8
0
  6
CONTINUOUS
 10
741.43082850590679
 20
594.64282918203594
 30
0.0
 11
741.43082850590679
 21
595.24282918203539
 31
0.0
  0
ARC
  5
148
  8
0
  6
CONTINUOUS
 10
741.13082850590695
 20
595.24282918203562
 30
0.0
 40
0.2999999999999545
 50
359.99999999997829
 51
90.0
  0
LINE
  5
149
  8
0
  6
CONTINUOUS
 10
741.13082850590695
 20
595.54282918203546
 30
0.0
 11
737.73082850590686
 21
595.5428291820358
 31
0.0
  0
ARC
  5
14A
  8
0
  6
CONTINUOUS
 10
737.73082850590686
 20
595.24282918203585
 30
0.0
 40
0.2999999999999545
 50
90.0
 51
180.0
  0
LINE
  5
14B
  8
0
  6
CONTINUOUS
 10
737.43082850590679
 20
595.24282918203585
 30
0.0
 11
737.43082850590679
 21
593.0428291820358
 31
0.0
  0
LINE
  5
14C
  8
0
  6
CONTINUOUS
 10
737.43082850590679
 20
593.0428291820358
 30
0.0
 11
729.18082850590872
 21
593.0428291820358
 31
0.0
  0
ARC
  5
14D
  8
0
  6
CONTINUOUS
 10
729.18082850590872
 20
594.04282918203569
 30
0.0
 40
1.0
 50
180.0
 51
270.0
  0
LINE
  5
14E
  8
0
  6
CONTINUOUS
 10
728.18082850590872
 20
594.04282918203569
 30
0.0
 11
728.18082850590872
 21
606.27653409164475
 31
0.0
  0
ARC
  5
14F
  8
0
  6
CONTINUOUS
 10
729.18082850590872
 20
606.27653409164463
 30
0.0
 40
1.0
 50
134.99999999999079
 51
179.99999999999349
  0
LINE
  5
150
  8
0
  6
CONTINUOUS
 10
728.47372172472217
 20
606.98364087283119
 30
0.0
 11
731.04275851782415
 21
609.55267766593283
 31
0.0
  0
ARC
  5
151
  8
0
  6
CONTINUOUS
 10
731.39631190841726
 20
609.19912427533973
 30
0.0
 40
0.4999999999998433
 50
70.00000000000631
 51
135.00000000000921
  0
LINE
  5
152
  8
0
  6
CONTINUOUS
 10
731.56732198008001
 20
609.6689705857325
 30
0.0
 11
737.43082850590679
 21
607.53482874190615
 31
0.0
  0
LINE
  5
153
  8
0
  6
CONTINUOUS
 10
737.43082850590679
 20
607.53482874190615
 30
0.0
 11
737.43082850590838
 21
604.04282918203546
 31
0.0
  0
ARC
  5
154
  8
0
  6
CONTINUOUS
 10
737.73082850590845
 20
604.04282918203546
 30
0.0
 40
0.2999999999999545
 50
180.0
 51
270.0
  0
LINE
  5
155
  8
0
  6
CONTINUOUS
 10
737.73082850590845
 20
603.74282918203539
 30
0.0
 11
741.13082850590865
 21
603.74282918203539
 31
0.0
  0
ARC
  5
156
  8
0
  6
CONTINUOUS
 10
741.13082850590854
 20
604.04282918203546
 30
0.0
 40
0.3000000000000682
 50
270.0000000000216
 51
0.0
  0
LINE
  5
157
  8
0
  6
CONTINUOUS
 10
741.43082850590872
 20
604.04282918203546
 30
0.0
 11
741.43082850590872
 21
604.6428291820356
 31
0.0
  0
LINE
  5
158
  8
0
  6
CONTINUOUS
 10
741.43082850590872
 20
604.6428291820356
 30
0.0
 11
742.13082850590877
 21
604.6428291820356
 31
0.0
  0
ARC
  5
159
  8
0
  6
CONTINUOUS
 10
742.13082850590877
 20
604.94282918203567
 30
0.0
 40
0.2999999999999545
 50
270.0
 51
0.0000000000217126
  0
LINE
  5
15A
  8
0
  6
CONTINUOUS
 10
742.43082850590872
 20
604.94282918203567
 30
0.0
 11
742.43082850590872
 21
619.64282918203594
 31
0.0
  0
LINE
  5
15B
  8
0
  6
CONTINUOUS
 10
706.69183307467438
 20
611.22349196403502
 30
0.0
 11
709.42769948135708
 21
618.74022313904015
 31
0.0
  0
ARC
  5
15C
  8
0
  6
CONTINUOUS
 10
709.14579169512126
 20
618.8428291820378
 30
0.0
 40
0.3000000000000271
 50
340.00000000001222
 51
90.0
  0
LINE
  5
15D
  8
0
  6
CONTINUOUS
 10
709.14579169512126
 20
619.14282918203764
 30
0.0
 11
685.71586531669618
 21
619.14282918203776
 31
0.0
  0
ARC
  5
15E
  8
0
  6
CONTINUOUS
 10
685.71586531669618
 20
618.8428291820378
 30
0.0
 40
0.3000000000000682
 50
90.0
 51
199.9999999999952
  0
LINE
  5
15F
  8
0
  6
CONTINUOUS
 10
685.43395753046048
 20
618.74022313904015
 30
0.0
 11
688.16982393714318
 21
611.22349196403502
 31
0.0
  0
ARC
  5
160
  8
0
  6
CONTINUOUS
 10
687.2301313163573
 20
610.88147182070918
 30
0.0
 40
1.0000000000000959
 50
315.00000000000921
 51
20.000000000001481
  0
LINE
  5
161
  8
0
  6
CONTINUOUS
 10
687.93723809754385
 20
610.17436503952285
 30
0.0
 11
683.68082850590883
 21
605.91795544788636
 31
0.0
  0
LINE
  5
162
  8
0
  6
CONTINUOUS
 10
683.68082850590883
 20
605.91795544788636
 30
0.0
 11
683.68082850590861
 21
592.04282918203774
 31
0.0
  0
ARC
  5
163
  8
0
  6
CONTINUOUS
 10
681.68082850590872
 20
592.04282918203785
 30
0.0
 40
2.0
 50
270.0
 51
359.99999999999682
  0
LINE
  5
164
  8
0
  6
CONTINUOUS
 10
681.68082850590872
 20
590.04282918203785
 30
0.0
 11
655.27710683487885
 21
590.04282918203774
 31
0.0
  0
ARC
  5
165
  8
0
  6
CONTINUOUS
 10
655.27710683487885
 20
589.54282918203785
 30
0.0
 40
0.4999999999998864
 50
90.0
 51
188.95479412885609
  0
LINE
  5
166
  8
0
  6
CONTINUOUS
 10
654.7832011055832
 20
589.46500161257302
 30
0.0
 11
655.41254569379726
 21
585.47108403351933
 31
0.0
  0
ARC
  5
167
  8
0
  6
CONTINUOUS
 10
653.93082850591077
 20
585.2376013251245
 30
0.0
 40
1.4999999999991911
 50
0.0000000000130276
 51
8.954794128869473
  0
LINE
  5
168
  8
0
  6
CONTINUOUS
 10
655.43082850590997
 20
585.23760132512496
 30
0.0
 11
655.43082850590974
 21
577.1428291820373
 31
0.0
  0
LINE
  5
169
  8
0
  6
CONTINUOUS
 10
655.43082850590974
 20
577.1428291820373
 30
0.0
 11
655.43082850590997
 21
569.04805703894954
 31
0.0
  0
ARC
  5
16A
  8
0
  6
CONTINUOUS
 10
653.93082850591088
 20
569.04805703894999
 30
0.0
 40
1.4999999999990901
 50
351.04520587112557
 51
359.99999999998272
  0
LINE
  5
16B
  8
0
  6
CONTINUOUS
 10
655.41254569379726
 20
568.81457433055505
 30
0.0
 11
654.7832011055832
 21
564.82065675150136
 31
0.0
  0
ARC
  5
16C
  8
0
  6
CONTINUOUS
 10
655.27710683487885
 20
564.74282918203664
 30
0.0
 40
0.4999999999999632
 50
171.0452058711567
 51
270.0
  0
LINE
  5
16D
  8
0
  6
CONTINUOUS
 10
655.27710683487885
 20
564.24282918203664
 30
0.0
 11
681.68082850590872
 21
564.24282918203664
 31
0.0
  0
ARC
  5
16E
  8
0
  6
CONTINUOUS
 10
681.68082850590872
 20
562.24282918203676
 30
0.0
 40
2.0
 50
0.0
 51
90.0
  0
LINE
  5
16F
  8
0
  6
CONTINUOUS
 10
683.68082850590861
 20
562.24282918203676
 30
0.0
 11
683.68082850590895
 21
548.36770291618791
 31
0.0
  0
LINE
  5
170
  8
0
  6
CONTINUOUS
 10
683.68082850590895
 20
548.36770291618791
 30
0.0
 11
687.93723809754385
 21
544.11129332455164
 31
0.0
  0
ARC
  5
171
  8
0
  6
CONTINUOUS
 10
687.2301313163573
 20
543.40418654336497
 30
0.0
 40
1.0000000000000879
 50
340.0000000000046
 51
44.999999999995389
  0
LINE
  5
172
  8
0
  6
CONTINUOUS
 10
688.16982393714318
 20
543.06216640003936
 30
0.0
 11
685.43395753046025
 21
535.54543522503445
 31
0.0
  0
ARC
  5
173
  8
0
  6
CONTINUOUS
 10
685.71586531669595
 20
535.4428291820368
 30
0.0
 40
0.2999999999999203
 50
160.0000000000048
 51
270.0000000000216
  0
LINE
  5
174
  8
0
  6
CONTINUOUS
 10
685.71586531669618
 20
535.14282918203673
 30
0.0
 11
709.14579169512126
 21
535.14282918203662
 31
0.0
  0
ARC
  5
175
  8
0
  6
CONTINUOUS
 10
709.14579169512126
 20
535.44282918203646
 30
0.0
 40
0.2999999999999545
 50
270.0
 51
20.000000000008161
  0
LINE
  5
176
  8
0
  6
CONTINUOUS
 10
709.42769948135708
 20
535.54543522503434
 30
0.0
 11
706.69183307467438
 21
543.06216640003959
 31
0.0
  0
ARC
  5
177
  8
0
  6
CONTINUOUS
 10
707.63152569546025
 20
543.40418654336531
 30
0.0
 40
0.99999999999999
 50
135.00000000001381
 51
200.00000000000369
  0
LINE
  5
178
  8
0
  6
CONTINUOUS
 10
706.92441891427359
 20
544.11129332455164
 30
0.0
 11
711.18082850590872
 21
548.36770291618802
 31
0.0
  0
LINE
  5
179
  8
0
  6
CONTINUOUS
 10
711.18082850590872
 20
548.36770291618802
 30
0.0
 11
711.18082850590872
 21
562.24282918203676
 31
0.0
  0
ARC
  5
17A
  8
0
  6
CONTINUOUS
 10
713.18082850590861
 20
562.24282918203676
 30
0.0
 40
2.0
 50
90.0
 51
180.0
  0
LINE
  5
17B
  8
0
  6
CONTINUOUS
 10
713.18082850590861
 20
564.24282918203664
 30
0.0
 11
739.58455017693859
 21
564.24282918203664
 31
0.0
  0
ARC
  5
17C
  8
0
  6
CONTINUOUS
 10
739.58455017693859
 20
564.74282918203664
 30
0.0
 40
0.5
 50
270.0
 51
8.9547941288432948
  0
LINE
  5
17D
  8
0
  6
CONTINUOUS
 10
740.07845590623435
 20
564.82065675150136
 30
0.0
 11
739.44911131802007
 21
568.81457433055516
 31
0.0
  0
ARC
  5
17E
  8
0
  6
CONTINUOUS
 10
740.93082850590849
 20
569.04805703894954
 30
0.0
 40
1.5000000000010301
 50
180.00000000000429
 51
188.95479412884069
  0
LINE
  5
17F
  8
0
  6
CONTINUOUS
 10
739.43082850590747
 20
569.04805703894942
 30
0.0
 11
739.43082850590781
 21
577.14282918203708
 31
0.0
  0
LINE
  5
180
  8
0
  6
CONTINUOUS
 10
739.43082850590781
 20
577.14282918203708
 30
0.0
 11
739.43082850590747
 21
585.23760132512507
 31
0.0
  0
ARC
  5
181
  8
0
  6
CONTINUOUS
 10
740.93082850590849
 20
585.23760132512507
 30
0.0
 40
1.500000000001023
 50
171.0452058711634
 51
180.0
  0
LINE
  5
182
  8
0
  6
CONTINUOUS
 10
739.44911131802007
 20
585.47108403351922
 30
0.0
 11
740.07845590623435
 21
589.46500161257302
 31
0.0
  0
ARC
  5
183
  8
0
  6
CONTINUOUS
 10
739.58455017693859
 20
589.54282918203774
 30
0.0
 40
0.4999999999999632
 50
351.04520587115672
 51
90.0
  0
LINE
  5
184
  8
0
  6
CONTINUOUS
 10
739.58455017693859
 20
590.04282918203774
 30
0.0
 11
713.18082850590861
 21
590.04282918203774
 31
0.0
  0
ARC
  5
185
  8
0
  6
CONTINUOUS
 10
713.18082850590861
 20
592.04282918203774
 30
0.0
 40
2.0
 50
180.0
 51
270.0
  0
LINE
  5
186
  8
0
  6
CONTINUOUS
 10
711.18082850590872
 20
592.04282918203774
 30
0.0
 11
711.18082850590872
 21
605.91795544788647
 31
0.0
  0
LINE
  5
187
  8
0
  6
CONTINUOUS
 10
711.18082850590872
 20
605.91795544788647
 30
0.0
 11
706.92441891427359
 21
610.17436503952285
 31
0.0
  0
ARC
  5
188
  8
0
  6
CONTINUOUS
 10
707.63152569546025
 20
610.88147182070918
 30
0.0
 40
1.0000000000000879
 50
159.99999999999849
 51
224.99999999998619
  0
ARC
  5
189
  8
0
  6
CONTINUOUS
 10
721.2308285059064
 20
594.50473615057115
 30
0.0
 40
0.2999999999999545
 50
104.1985598748885
 51
180.0000000003908
  0
ARC
  5
18A
  8
0
  6
CONTINUOUS
 10
719.93082850593112
 20
599.64282918200274
 30
0.0
 40
4.9999999999606226
 50
284.19855987487432
 51
300.80144012493469
  0
ARC
  5
18B
  8
0
  6
CONTINUOUS
 10
722.64477011528356
 20
595.09040994157579
 30
0.0
 40
0.3000000000001004
 50
45.000000000015348
 51
120.80144012493081
  0
LINE
  5
18C
  8
0
  6
CONTINUOUS
 10
722.85690214963961
 20
595.30254197593194
 30
0.0
 11
723.81991580243493
 21
594.33952832313662
 31
0.0
  0
ARC
  5
18D
  8
0
  6
CONTINUOUS
 10
724.52702258362149
 20
595.04663510432329
 30
0.0
 40
1.0000000000000879
 50
225.0000000000046
 51
45.000000000004597
  0
LINE
  5
18E
  8
0
  6
CONTINUOUS
 10
725.23412936480804
 20
595.75374188550995
 30
0.0
 11
724.27111571201135
 21
596.71675553830619
 31
0.0
  0
ARC
  5
18F
  8
0
  6
CONTINUOUS
 10
724.4832477463674
 20
596.92888757266223
 30
0.0
 40
0.3000000000001149
 50
149.1985598750878
 51
225.0
  0
ARC
  5
190
  8
0
  6
CONTINUOUS
 10
719.93082850587189
 20
599.64282918205379
 30
0.0
 40
5.0000000000396314
 50
329.19855987508328
 51
345.80144012486699
  0
ARC
  5
191
  8
0
  6
CONTINUOUS
 10
725.06892153737431
 20
598.34282918203587
 30
0.0
 40
0.2999999999999965
 50
90.0
 51
165.8014401248692
  0
LINE
  5
192
  8
0
  6
CONTINUOUS
 10
725.06892153737431
 20
598.64282918203594
 30
0.0
 11
725.43082850590872
 21
598.64282918203594
 31
0.0
  0
ARC
  5
193
  8
0
  6
CONTINUOUS
 10
725.43082850590872
 20
599.64282918203594
 30
0.0
 40
1.0
 50
270.0
 51
90.0
  0
LINE
  5
194
  8
0
  6
CONTINUOUS
 10
725.43082850590872
 20
600.64282918203594
 30
0.0
 11
725.06892153736555
 21
600.64282918204492
 31
0.0
  0
ARC
  5
195
  8
0
  6
CONTINUOUS
 10
725.06892153737294
 20
600.94282918204499
 30
0.0
 40
0.3000000000000682
 50
194.1985598751254
 51
269.99999999856698
  0
ARC
  5
196
  8
0
  6
CONTINUOUS
 10
719.93082850590918
 20
599.64282918203799
 30
0.0
 40
4.9999999999995071
 50
14.198559875121701
 51
30.8014401249572
  0
ARC
  5
197
  8
0
  6
CONTINUOUS
 10
724.48324774636808
 20
602.35677079141215
 30
0.0
 40
0.2999999999999051
 50
134.9999999999693
 51
210.8014401249531
  0
LINE
  5
198
  8
0
  6
CONTINUOUS
 10
724.27111571201226
 20
602.56890282576819
 30
0.0
 11
725.23412936480804
 21
603.53191647856374
 31
0.0
  0
ARC
  5
199
  8
0
  6
CONTINUOUS
 10
724.52702258362137
 20
604.23902325975018
 30
0.0
 40
1.0000000000000071
 50
315.00000000000921
 51
134.99999999982961
  0
LINE
  5
19A
  8
0
  6
CONTINUOUS
 10
723.81991580243698
 20
604.94613004093878
 30
0.0
 11
722.8569021496395
 21
603.98311638814164
 31
0.0
  0
ARC
  5
19B
  8
0
  6
CONTINUOUS
 10
722.64477011528345
 20
604.19524842249757
 30
0.0
 40
0.3000000000001149
 50
239.19855987499099
 51
315.0
  0
ARC
  5
19C
  8
0
  6
CONTINUOUS
 10
719.93082850592509
 20
599.64282918207834
 30
0.0
 40
4.9999999999570699
 50
59.198559874968211
 51
75.801440125048174
  0
ARC
  5
19D
  8
0
  6
CONTINUOUS
 10
721.2308285059064
 20
604.78092221350494
 30
0.0
 40
0.2999999999999938
 50
179.99999999963089
 51
255.80144012504829
  0
LINE
  5
19E
  8
0
  6
CONTINUOUS
 10
720.93082850590645
 20
604.78092221350676
 30
0.0
 11
720.93082850590872
 21
605.14282918203787
 31
0.0
  0
ARC
  5
19F
  8
0
  6
CONTINUOUS
 10
719.93082850590872
 20
605.14282918203787
 30
0.0
 40
1.0
 50
359.99999999999352
 51
180.0000000001302
  0
LINE
  5
1A0
  8
0
  6
CONTINUOUS
 10
718.93082850590872
 20
605.14282918203571
 30
0.0
 11
718.93082850590872
 21
604.78092221350403
 31
0.0
  0
ARC
  5
1A1
  8
0
  6
CONTINUOUS
 10
718.63082850590865
 20
604.7809222135038
 30
0.0
 40
0.2999999999999545
 50
284.19855987506759
 51
0.0000000000434252
  0
ARC
  5
1A2
  8
0
  6
CONTINUOUS
 10
719.93082850590974
 20
599.64282918203446
 30
0.0
 40
5.000000000003431
 50
104.1985598750444
 51
120.8014401248592
  0
ARC
  5
1A3
  8
0
  6
CONTINUOUS
 10
717.21688689654161
 20
604.19524842250155
 30
0.0
 40
0.299999999999907
 50
225.00000000038381
 51
300.80144012482651
  0
LINE
  5
1A4
  8
0
  6
CONTINUOUS
 10
717.00475486218704
 20
603.98311638814425
 30
0.0
 11
716.04174120937569
 21
604.94613004094185
 31
0.0
  0
ARC
  5
1A5
  8
0
  6
CONTINUOUS
 10
715.33463442819425
 20
604.2390232597503
 30
0.0
 40
0.9999999999999277
 50
45.000000000409919
 51
225.0000000000046
  0
LINE
  5
1A6
  8
0
  6
CONTINUOUS
 10
714.62752764700781
 20
603.53191647856374
 30
0.0
 11
715.5905412998045
 21
602.56890282576728
 31
0.0
  0
ARC
  5
1A7
  8
0
  6
CONTINUOUS
 10
715.37840926544845
 20
602.35677079141124
 30
0.0
 40
0.3000000000001149
 50
329.19855987506918
 51
45.0
  0
ARC
  5
1A8
  8
0
  6
CONTINUOUS
 10
719.93082850590883
 20
599.64282918203787
 30
0.0
 40
5.0000000000000844
 50
149.1985598750573
 51
165.8014401250116
  0
ARC
  5
1A9
  8
0
  6
CONTINUOUS
 10
714.79273547444143
 20
600.94282918203294
 30
0.0
 40
0.3000000000000218
 50
269.99999999924
 51
345.80144012502728
  0
LINE
  5
1AA
  8
0
  6
CONTINUOUS
 10
714.79273547443745
 20
600.64282918203298
 30
0.0
 11
714.4308285059069
 21
600.64282918203787
 31
0.0
  0
ARC
  5
1AB
  8
0
  6
CONTINUOUS
 10
714.4308285059069
 20
599.64282918203787
 30
0.0
 40
1.0
 50
90.0
 51
270.0
  0
LINE
  5
1AC
  8
0
  6
CONTINUOUS
 10
714.4308285059069
 20
598.64282918203776
 30
0.0
 11
714.79273547444097
 21
598.64282918203776
 31
0.0
  0
ARC
  5
1AD
  8
0
  6
CONTINUOUS
 10
714.79273547444086
 20
598.34282918203792
 30
0.0
 40
0.2999999999999545
 50
14.198559875041219
 51
89.999999999978314
  0
ARC
  5
1AE
  8
0
  6
CONTINUOUS
 10
719.9308285058878
 20
599.64282918203435
 30
0.0
 40
4.9999999999804929
 50
194.19855987505721
 51
210.80144012502939
  0
ARC
  5
1AF
  8
0
  6
CONTINUOUS
 10
715.37840926544845
 20
596.92888757266405
 30
0.0
 40
0.3000000000000403
 50
315.00000000006139
 51
30.801440125038791
  0
LINE
  5
1B0
  8
0
  6
CONTINUOUS
 10
715.59054129980461
 20
596.71675553830835
 30
0.0
 11
714.62752764700781
 21
595.7537418855095
 31
0.0
  0
ARC
  5
1B1
  8
0
  6
CONTINUOUS
 10
715.33463442819448
 20
595.04663510432329
 30
0.0
 40
0.9999999999999277
 50
135.00000000001381
 51
314.9999999999954
  0
LINE
  5
1B2
  8
0
  6
CONTINUOUS
 10
716.04174120938092
 20
594.33952832313673
 30
0.0
 11
717.00475486218852
 21
595.30254197593115
 31
0.0
  0
ARC
  5
1B3
  8
0
  6
CONTINUOUS
 10
717.21688689654286
 20
595.09040994157374
 30
0.0
 40
0.2999999999999542
 50
59.198559875154892
 51
134.99999999960079
  0
ARC
  5
1B4
  8
0
  6
CONTINUOUS
 10
719.93082850590963
 20
599.64282918204128
 30
0.0
 40
5.000000000003034
 50
239.1985598751609
 51
255.80144012495711
  0
ARC
  5
1B5
  8
0
  6
CONTINUOUS
 10
718.63082850590865
 20
594.50473615057228
 30
0.0
 40
0.3000000000000509
 50
359.99999999997829
 51
75.801440124916681
  0
LINE
  5
1B6
  8
0
  6
CONTINUOUS
 10
718.93082850590872
 20
594.50473615057217
 30
0.0
 11
718.93082850590872
 21
594.14282918204049
 31
0.0
  0
ARC
  5
1B7
  8
0
  6
CONTINUOUS
 10
719.93082850590872
 20
594.14282918203821
 30
0.0
 40
1.0
 50
179.99999999986969
 51
0.0000000000065138
  0
LINE
  5
1B8
  8
0
  6
CONTINUOUS
 10
720.93082850590872
 20
594.14282918203833
 30
0.0
 11
720.93082850590645
 21
594.50473615056899
 31
0.0
  0
ARC
  5
1B9
  8
0
  6
CONTINUOUS
 10
676.2308285059089
 20
594.50473615057217
 30
0.0
 40
0.3000000000001333
 50
104.1985598750569
 51
180.0
  0
LINE
  5
1BA
  8
0
  6
CONTINUOUS
 10
675.93082850590872
 20
594.50473615057217
 30
0.0
 11
675.93082850590872
 21
594.14282918204049
 31
0.0
  0
ARC
  5
1BB
  8
0
  6
CONTINUOUS
 10
674.93082850590872
 20
594.14282918203821
 30
0.0
 40
1.0
 50
179.99999999999349
 51
0.0000000001302755
  0
LINE
  5
1BC
  8
0
  6
CONTINUOUS
 10
673.93082850590872
 20
594.14282918203833
 30
0.0
 11
673.93082850591122
 21
594.50473615056899
 31
0.0
  0
ARC
  5
1BD
  8
0
  6
CONTINUOUS
 10
673.63082850591115
 20
594.50473615057103
 30
0.0
 40
0.3000000000000682
 50
359.99999999963092
 51
75.80144012513783
  0
ARC
  5
1BE
  8
0
  6
CONTINUOUS
 10
674.93082850588632
 20
599.64282918200274
 30
0.0
 40
4.9999999999606226
 50
239.19855987506531
 51
255.80144012512579
  0
ARC
  5
1BF
  8
0
  6
CONTINUOUS
 10
672.21688689653377
 20
595.09040994157613
 30
0.0
 40
0.2999999999998469
 50
59.198559875065577
 51
135.00000000001529
  0
LINE
  5
1C0
  8
0
  6
CONTINUOUS
 10
672.00475486217795
 20
595.30254197593194
 30
0.0
 11
671.04174120938262
 21
594.33952832313662
 31
0.0
  0
ARC
  5
1C1
  8
0
  6
CONTINUOUS
 10
670.33463442819595
 20
595.04663510432329
 30
0.0
 40
1.0000000000000879
 50
134.9999999999954
 51
314.9999999999954
  0
LINE
  5
1C2
  8
0
  6
CONTINUOUS
 10
669.62752764700952
 20
595.75374188550995
 30
0.0
 11
670.59054129980609
 21
596.71675553830619
 31
0.0
  0
ARC
  5
1C3
  8
0
  6
CONTINUOUS
 10
670.37840926545016
 20
596.92888757266223
 30
0.0
 40
0.3000000000000345
 50
314.99999999998471
 51
30.8014401249233
  0
ARC
  5
1C4
  8
0
  6
CONTINUOUS
 10
674.93082850594567
 20
599.64282918205413
 30
0.0
 40
5.0000000000398064
 50
194.19855987513651
 51
210.80144012492011
  0
ARC
  5
1C5
  8
0
  6
CONTINUOUS
 10
669.79273547444313
 20
598.34282918203587
 30
0.0
 40
0.2999999999999965
 50
14.198559875130741
 51
90.0
  0
LINE
  5
1C6
  8
0
  6
CONTINUOUS
 10
669.79273547444313
 20
598.64282918203594
 30
0.0
 11
669.43082850590861
 21
598.64282918203594
 31
0.0
  0
ARC
  5
1C7
  8
0
  6
CONTINUOUS
 10
669.43082850590861
 20
599.64282918203594
 30
0.0
 40
1.0
 50
90.0
 51
270.0
  0
LINE
  5
1C8
  8
0
  6
CONTINUOUS
 10
669.43082850590861
 20
600.64282918203594
 30
0.0
 11
669.79273547445189
 21
600.64282918204492
 31
0.0
  0
ARC
  5
1C9
  8
0
  6
CONTINUOUS
 10
669.7927354744445
 20
600.94282918204476
 30
0.0
 40
0.2999999999999545
 50
270.00000000143302
 51
345.80144012489029
  0
ARC
  5
1CA
  8
0
  6
CONTINUOUS
 10
674.93082850590827
 20
599.64282918203753
 30
0.0
 40
4.9999999999996181
 50
149.1985598750376
 51
165.80144012487321
  0
ARC
  5
1CB
  8
0
  6
CONTINUOUS
 10
670.37840926544925
 20
602.35677079141215
 30
0.0
 40
0.3000000000000027
 50
329.19855987505809
 51
45.000000000015348
  0
LINE
  5
1CC
  8
0
  6
CONTINUOUS
 10
670.59054129980518
 20
602.56890282576819
 30
0.0
 11
669.62752764700929
 21
603.53191647856374
 31
0.0
  0
ARC
  5
1CD
  8
0
  6
CONTINUOUS
 10
670.33463442819607
 20
604.23902325975018
 30
0.0
 40
1.0000000000000879
 50
45.000000000165812
 51
224.99999999998619
  0
LINE
  5
1CE
  8
0
  6
CONTINUOUS
 10
671.04174120938058
 20
604.94613004093878
 30
0.0
 11
672.00475486217795
 21
603.98311638814164
 31
0.0
  0
ARC
  5
1CF
  8
0
  6
CONTINUOUS
 10
672.21688689653411
 20
604.19524842249757
 30
0.0
 40
0.3000000000001149
 50
225.0
 51
300.80144012500898
  0
ARC
  5
1D0
  8
0
  6
CONTINUOUS
 10
674.93082850589235
 20
599.64282918207834
 30
0.0
 40
4.9999999999570699
 50
104.1985598749518
 51
120.8014401250318
  0
ARC
  5
1D1
  8
0
  6
CONTINUOUS
 10
673.63082850591115
 20
604.78092221350494
 30
0.0
 40
0.299999999999966
 50
284.19855987493071
 51
0.000000000369114
  0
LINE
  5
1D2
  8
0
  6
CONTINUOUS
 10
673.93082850591122
 20
604.78092221350676
 30
0.0
 11
673.93082850590872
 21
605.14282918203787
 31
0.0
  0
ARC
  5
1D3
  8
0
  6
CONTINUOUS
 10
674.93082850590872
 20
605.14282918203787
 30
0.0
 40
1.0
 50
359.99999999986971
 51
180.00000000000651
  0
LINE
  5
1D4
  8
0
  6
CONTINUOUS
 10
675.93082850590872
 20
605.14282918203571
 30
0.0
 11
675.93082850590872
 21
604.78092221350403
 31
0.0
  0
ARC
  5
1D5
  8
0
  6
CONTINUOUS
 10
676.23082850590879
 20
604.78092221350403
 30
0.0
 40
0.3000000000000682
 50
180.0
 51
255.8014401249641
  0
ARC
  5
1D6
  8
0
  6
CONTINUOUS
 10
674.93082850590758
 20
599.64282918203548
 30
0.0
 40
5.0000000000025766
 50
59.198559875136539
 51
75.801440124951696
  0
ARC
  5
1D7
  8
0
  6
CONTINUOUS
 10
677.64477011527595
 20
604.19524842250155
 30
0.0
 40
0.2999999999999652
 50
239.1985598751549
 51
314.99999999961619
  0
LINE
  5
1D8
  8
0
  6
CONTINUOUS
 10
677.85690214963051
 20
603.98311638814425
 30
0.0
 11
678.81991580244176
 21
604.94613004094185
 31
0.0
  0
ARC
  5
1D9
  8
0
  6
CONTINUOUS
 10
679.52702258362331
 20
604.2390232597503
 30
0.0
 40
0.9999999999999277
 50
314.9999999999954
 51
134.99999999958999
  0
LINE
  5
1DA
  8
0
  6
CONTINUOUS
 10
680.23412936480975
 20
603.53191647856374
 30
0.0
 11
679.27111571201306
 21
602.56890282576728
 31
0.0
  0
ARC
  5
1DB
  8
0
  6
CONTINUOUS
 10
679.48324774636899
 20
602.35677079141124
 30
0.0
 40
0.3000000000000345
 50
134.9999999999846
 51
210.80144012494191
  0
ARC
  5
1DC
  8
0
  6
CONTINUOUS
 10
674.93082850590872
 20
599.64282918203787
 30
0.0
 40
5.0000000000000844
 50
14.198559874988341
 51
30.801440124942701
  0
ARC
  5
1DD
  8
0
  6
CONTINUOUS
 10
680.06892153737613
 20
600.94282918203294
 30
0.0
 40
0.3000000000000218
 50
194.19855987497269
 51
270.00000000078171
  0
LINE
  5
1DE
  8
0
  6
CONTINUOUS
 10
680.06892153738022
 20
600.64282918203298
 30
0.0
 11
680.43082850591065
 21
600.64282918203787
 31
0.0
  0
ARC
  5
1DF
  8
0
  6
CONTINUOUS
 10
680.43082850591065
 20
599.64282918203787
 30
0.0
 40
1.0
 50
270.0
 51
90.0
  0
LINE
  5
1E0
  8
0
  6
CONTINUOUS
 10
680.43082850591065
 20
598.64282918203776
 30
0.0
 11
680.06892153737658
 21
598.64282918203776
 31
0.0
  0
ARC
  5
1E1
  8
0
  6
CONTINUOUS
 10
680.06892153737658
 20
598.3428291820378
 30
0.0
 40
0.3000000000000682
 50
90.0
 51
165.80144012494301
  0
ARC
  5
1E2
  8
0
  6
CONTINUOUS
 10
674.93082850592975
 20
599.64282918203355
 30
0.0
 40
4.9999999999801883
 50
329.19855987497908
 51
345.80144012495128
  0
ARC
  5
1E3
  8
0
  6
CONTINUOUS
 10
679.48324774636922
 20
596.92888757266405
 30
0.0
 40
0.3000000000000403
 50
149.19855987496121
 51
224.9999999999232
  0
LINE
  5
1E4
  8
0
  6
CONTINUOUS
 10
679.27111571201294
 20
596.71675553830835
 30
0.0
 11
680.23412936480975
 21
595.7537418855095
 31
0.0
  0
ARC
  5
1E5
  8
0
  6
CONTINUOUS
 10
679.52702258362297
 20
595.04663510432329
 30
0.0
 40
0.9999999999999277
 50
225.00000000000921
 51
44.999999999986173
  0
LINE
  5
1E6
  8
0
  6
CONTINUOUS
 10
678.81991580243675
 20
594.33952832313673
 30
0.0
 11
677.85690214962915
 21
595.30254197593115
 31
0.0
  0
ARC
  5
1E7
  8
0
  6
CONTINUOUS
 10
677.64477011527447
 20
595.09040994157363
 30
0.0
 40
0.3000000000001149
 50
45.000000000399169
 51
120.801440124834
  0
ARC
  5
1E8
  8
0
  6
CONTINUOUS
 10
674.93082850590793
 20
599.64282918204094
 30
0.0
 40
5.0000000000026441
 50
284.19855987504548
 51
300.8014401248418
  0
ARC
  5
1E9
  8
0
  6
CONTINUOUS
 10
674.93082850590872
 20
560.14282918203605
 30
0.0
 40
1.0
 50
359.9999999998762
 51
180.0
  0
LINE
  5
1EA
  8
0
  6
CONTINUOUS
 10
673.93082850590872
 20
560.14282918203605
 30
0.0
 11
673.93082850591122
 21
559.78092221350539
 31
0.0
  0
ARC
  5
1EB
  8
0
  6
CONTINUOUS
 10
673.63082850591115
 20
559.78092221350346
 30
0.0
 40
0.3000000000000682
 50
284.19855987485693
 51
0.0000000003474014
  0
ARC
  5
1EC
  8
0
  6
CONTINUOUS
 10
674.93082850588632
 20
554.64282918207175
 30
0.0
 40
4.9999999999605116
 50
104.1985598748746
 51
120.8014401249354
  0
ARC
  5
1ED
  8
0
  6
CONTINUOUS
 10
672.21688689653377
 20
559.19524842249837
 30
0.0
 40
0.2999999999999445
 50
225.0
 51
300.80144012492332
  0
LINE
  5
1EE
  8
0
  6
CONTINUOUS
 10
672.00475486217795
 20
558.98311638814255
 30
0.0
 11
671.04174120938262
 21
559.94613004093776
 31
0.0
  0
ARC
  5
1EF
  8
0
  6
CONTINUOUS
 10
670.33463442819595
 20
559.23902325975109
 30
0.0
 40
1.0000000000000879
 50
45.000000000004597
 51
225.0000000000046
  0
LINE
  5
1F0
  8
0
  6
CONTINUOUS
 10
669.62752764700952
 20
558.53191647856454
 30
0.0
 11
670.59054129980609
 21
557.56890282576819
 31
0.0
  0
ARC
  5
1F1
  8
0
  6
CONTINUOUS
 10
670.37840926545039
 20
557.35677079141215
 30
0.0
 40
0.2999999999998738
 50
329.1985598750656
 51
45.000000000015348
  0
ARC
  5
1F2
  8
0
  6
CONTINUOUS
 10
674.93082850594567
 20
554.64282918202025
 30
0.0
 40
5.0000000000398641
 50
149.19855987507879
 51
165.80144012486221
  0
ARC
  5
1F3
  8
0
  6
CONTINUOUS
 10
669.79273547444313
 20
555.94282918203862
 30
0.0
 40
0.3000000000000243
 50
270.0
 51
345.80144012484823
  0
LINE
  5
1F4
  8
0
  6
CONTINUOUS
 10
669.79273547444313
 20
555.64282918203855
 30
0.0
 11
669.43082850590861
 21
555.64282918203855
 31
0.0
  0
ARC
  5
1F5
  8
0
  6
CONTINUOUS
 10
669.43082850590861
 20
554.64282918203855
 30
0.0
 40
1.0
 50
90.0
 51
270.0
  0
LINE
  5
1F6
  8
0
  6
CONTINUOUS
 10
669.43082850590861
 20
553.64282918203855
 30
0.0
 11
669.79273547445189
 21
553.64282918202946
 31
0.0
  0
ARC
  5
1F7
  8
0
  6
CONTINUOUS
 10
669.7927354744445
 20
553.34282918202962
 30
0.0
 40
0.2999999999999545
 50
14.1985598751097
 51
89.999999998566949
  0
ARC
  5
1F8
  8
0
  6
CONTINUOUS
 10
674.93082850590827
 20
554.64282918203685
 30
0.0
 40
4.9999999999995914
 50
194.1985598751254
 51
210.8014401249612
  0
ARC
  5
1F9
  8
0
  6
CONTINUOUS
 10
670.37840926544925
 20
551.92888757266235
 30
0.0
 40
0.3000000000000027
 50
314.99999999998471
 51
30.801440124941951
  0
LINE
  5
1FA
  8
0
  6
CONTINUOUS
 10
670.59054129980518
 20
551.71675553830619
 30
0.0
 11
669.62752764700929
 21
550.75374188551075
 31
0.0
  0
ARC
  5
1FB
  8
0
  6
CONTINUOUS
 10
670.33463442819607
 20
550.0466351043242
 30
0.0
 40
1.0000000000000879
 50
135.00000000001381
 51
314.99999999983419
  0
LINE
  5
1FC
  8
0
  6
CONTINUOUS
 10
671.04174120938058
 20
549.33952832313571
 30
0.0
 11
672.00475486217795
 21
550.30254197593285
 31
0.0
  0
ARC
  5
1FD
  8
0
  6
CONTINUOUS
 10
672.21688689653411
 20
550.09040994157681
 30
0.0
 40
0.3000000000001149
 50
59.198559874990977
 51
135.0
  0
ARC
  5
1FE
  8
0
  6
CONTINUOUS
 10
674.93082850589201
 20
554.64282918199615
 30
0.0
 40
4.9999999999569349
 50
239.19855987497331
 51
255.8014401250532
  0
ARC
  5
1FF
  8
0
  6
CONTINUOUS
 10
673.63082850591115
 20
549.50473615056956
 30
0.0
 40
0.2999999999999938
 50
359.9999999996092
 51
75.801440125048302
  0
LINE
  5
200
  8
0
  6
CONTINUOUS
 10
673.93082850591122
 20
549.50473615056762
 30
0.0
 11
673.93082850590872
 21
549.14282918203662
 31
0.0
  0
ARC
  5
201
  8
0
  6
CONTINUOUS
 10
674.93082850590872
 20
549.14282918203662
 30
0.0
 40
1.0
 50
180.0
 51
0.0000000001237617
  0
LINE
  5
202
  8
0
  6
CONTINUOUS
 10
675.93082850590872
 20
549.14282918203878
 30
0.0
 11
675.93082850590872
 21
549.50473615057047
 31
0.0
  0
ARC
  5
203
  8
0
  6
CONTINUOUS
 10
676.23082850590879
 20
549.50473615057047
 30
0.0
 40
0.3000000000000682
 50
104.1985598750412
 51
180.0
  0
ARC
  5
204
  8
0
  6
CONTINUOUS
 10
674.93082850590758
 20
554.64282918203912
 30
0.0
 40
5.0000000000026867
 50
284.19855987504792
 51
300.80144012486278
  0
ARC
  5
205
  8
0
  6
CONTINUOUS
 10
677.64477011527595
 20
550.09040994157272
 30
0.0
 40
0.3000000000000628
 50
45.000000000399169
 51
120.801440124834
  0
LINE
  5
206
  8
0
  6
CONTINUOUS
 10
677.85690214963051
 20
550.30254197593024
 30
0.0
 11
678.81991580244176
 21
549.33952832313264
 31
0.0
  0
ARC
  5
207
  8
0
  6
CONTINUOUS
 10
679.52702258362331
 20
550.04663510432408
 30
0.0
 40
0.9999999999999277
 50
225.0000000004099
 51
45.000000000004597
  0
LINE
  5
208
  8
0
  6
CONTINUOUS
 10
680.23412936480975
 20
550.75374188551075
 30
0.0
 11
679.27111571201306
 21
551.71675553830721
 31
0.0
  0
ARC
  5
209
  8
0
  6
CONTINUOUS
 10
679.48324774636899
 20
551.92888757266326
 30
0.0
 40
0.3000000000000345
 50
149.19855987505809
 51
225.0000000000154
  0
ARC
  5
20A
  8
0
  6
CONTINUOUS
 10
674.93082850590827
 20
554.64282918203662
 30
0.0
 40
5.0000000000004752
 50
329.19855987506003
 51
345.8014401250141
  0
ARC
  5
20B
  8
0
  6
CONTINUOUS
 10
680.0689215373759
 20
553.34282918204144
 30
0.0
 40
0.2999999999999673
 50
89.999999999196646
 51
165.80144012497979
  0
LINE
  5
20C
  8
0
  6
CONTINUOUS
 10
680.06892153738022
 20
553.6428291820414
 30
0.0
 11
680.43082850591065
 21
553.64282918203651
 31
0.0
  0
ARC
  5
20D
  8
0
  6
CONTINUOUS
 10
680.43082850591065
 20
554.64282918203662
 30
0.0
 40
1.0
 50
270.0
 51
90.0
  0
LINE
  5
20E
  8
0
  6
CONTINUOUS
 10
680.43082850591065
 20
555.64282918203662
 30
0.0
 11
680.06892153737658
 21
555.64282918203662
 31
0.0
  0
ARC
  5
20F
  8
0
  6
CONTINUOUS
 10
680.06892153737658
 20
555.94282918203658
 30
0.0
 40
0.3000000000000682
 50
194.1985598750569
 51
270.0
  0
ARC
  5
210
  8
0
  6
CONTINUOUS
 10
674.93082850592975
 20
554.64282918204094
 30
0.0
 40
4.9999999999801883
 50
14.19855987504871
 51
30.801440125020921
  0
ARC
  5
211
  8
0
  6
CONTINUOUS
 10
679.48324774636922
 20
557.35677079141044
 30
0.0
 40
0.3000000000000403
 50
135.00000000007671
 51
210.80144012503879
  0
LINE
  5
212
  8
0
  6
CONTINUOUS
 10
679.27111571201294
 20
557.56890282576614
 30
0.0
 11
680.23412936480975
 21
558.53191647856488
 31
0.0
  0
ARC
  5
213
  8
0
  6
CONTINUOUS
 10
679.52702258362308
 20
559.23902325975132
 30
0.0
 40
0.9999999999999277
 50
315.0000000000046
 51
135.0
  0
LINE
  5
214
  8
0
  6
CONTINUOUS
 10
678.81991580243675
 20
559.94613004093776
 30
0.0
 11
677.85690214962915
 21
558.98311638814334
 31
0.0
  0
ARC
  5
215
  8
0
  6
CONTINUOUS
 10
677.64477011527447
 20
559.19524842250075
 30
0.0
 40
0.3000000000000345
 50
239.1985598751549
 51
314.99999999961619
  0
ARC
  5
216
  8
0
  6
CONTINUOUS
 10
674.93082850590793
 20
554.64282918203344
 30
0.0
 40
5.0000000000027409
 50
59.198559875158871
 51
75.801440124954865
  0
ARC
  5
217
  8
0
  6
CONTINUOUS
 10
676.23082850590879
 20
559.78092221350221
 30
0.0
 40
0.3000000000001053
 50
180.0
 51
255.8014401249641
  0
LINE
  5
218
  8
0
  6
CONTINUOUS
 10
675.93082850590872
 20
559.78092221350221
 30
0.0
 11
675.93082850590872
 21
560.14282918203389
 31
0.0
  0
ARC
  5
219
  8
0
  6
CONTINUOUS
 10
717.21688689654161
 20
550.09040994157294
 30
0.0
 40
0.2999999999999542
 50
59.198559875162417
 51
134.99999999963151
  0
ARC
  5
21A
  8
0
  6
CONTINUOUS
 10
719.93082850590974
 20
554.64282918203969
 30
0.0
 40
5.0000000000033209
 50
239.19855987514001
 51
255.80144012495521
  0
ARC
  5
21B
  8
0
  6
CONTINUOUS
 10
718.63082850590865
 20
549.50473615057058
 30
0.0
 40
0.2999999999999128
 50
359.99999999997829
 51
75.801440124932384
  0
LINE
  5
21C
  8
0
  6
CONTINUOUS
 10
718.93082850590872
 20
549.50473615057047
 30
0.0
 11
718.93082850590872
 21
549.14282918203878
 31
0.0
  0
ARC
  5
21D
  8
0
  6
CONTINUOUS
 10
719.93082850590872
 20
549.14282918203662
 30
0.0
 40
1.0
 50
179.9999999998762
 51
0.0
  0
LINE
  5
21E
  8
0
  6
CONTINUOUS
 10
720.93082850590872
 20
549.14282918203662
 30
0.0
 11
720.93082850590645
 21
549.50473615056762
 31
0.0
  0
ARC
  5
21F
  8
0
  6
CONTINUOUS
 10
721.23082850590652
 20
549.50473615056956
 30
0.0
 40
0.3000000000000682
 50
104.1985598749727
 51
180.0000000003908
  0
ARC
  5
220
  8
0
  6
CONTINUOUS
 10
719.93082850592555
 20
554.64282918199615
 30
0.0
 40
4.9999999999569464
 50
284.1985598749468
 51
300.8014401250266
  0
ARC
  5
221
  8
0
  6
CONTINUOUS
 10
722.64477011528345
 20
550.09040994157681
 30
0.0
 40
0.3000000000000798
 50
45.0
 51
120.80144012500899
  0
LINE
  5
222
  8
0
  6
CONTINUOUS
 10
722.8569021496395
 20
550.30254197593285
 30
0.0
 11
723.81991580243698
 21
549.33952832313571
 31
0.0
  0
ARC
  5
223
  8
0
  6
CONTINUOUS
 10
724.52702258362137
 20
550.0466351043242
 30
0.0
 40
0.9999999999999277
 50
225.00000000017039
 51
44.999999999990777
  0
LINE
  5
224
  8
0
  6
CONTINUOUS
 10
725.23412936480804
 20
550.75374188551075
 30
0.0
 11
724.27111571201226
 21
551.71675553830619
 31
0.0
  0
ARC
  5
225
  8
0
  6
CONTINUOUS
 10
724.48324774636808
 20
551.92888757266223
 30
0.0
 40
0.2999999999998738
 50
149.1985598750282
 51
225.0000000000154
  0
ARC
  5
226
  8
0
  6
CONTINUOUS
 10
719.93082850590918
 20
554.64282918203639
 30
0.0
 40
4.9999999999995151
 50
329.1985598750428
 51
345.8014401248783
  0
ARC
  5
227
  8
0
  6
CONTINUOUS
 10
725.06892153737294
 20
553.34282918202962
 30
0.0
 40
0.3000000000000788
 50
90.000000001433037
 51
165.80144012489561
  0
LINE
  5
228
  8
0
  6
CONTINUOUS
 10
725.06892153736555
 20
553.64282918202946
 30
0.0
 11
725.43082850590872
 21
553.64282918203855
 31
0.0
  0
ARC
  5
229
  8
0
  6
CONTINUOUS
 10
725.43082850590872
 20
554.64282918203855
 30
0.0
 40
1.0
 50
270.0
 51
90.0
  0
LINE
  5
22A
  8
0
  6
CONTINUOUS
 10
725.43082850590872
 20
555.64282918203855
 30
0.0
 11
725.06892153737431
 21
555.64282918203855
 31
0.0
  0
ARC
  5
22B
  8
0
  6
CONTINUOUS
 10
725.06892153737431
 20
555.94282918203862
 30
0.0
 40
0.3000000000000682
 50
194.1985598751518
 51
270.0
  0
ARC
  5
22C
  8
0
  6
CONTINUOUS
 10
719.93082850587189
 20
554.64282918202059
 30
0.0
 40
5.0000000000396279
 50
14.198559875133039
 51
30.801440124916731
  0
ARC
  5
22D
  8
0
  6
CONTINUOUS
 10
724.48324774636717
 20
557.35677079141215
 30
0.0
 40
0.2999999999999445
 50
135.0
 51
210.80144012492329
  0
LINE
  5
22E
  8
0
  6
CONTINUOUS
 10
724.27111571201135
 20
557.56890282576819
 30
0.0
 11
725.23412936480804
 21
558.53191647856454
 31
0.0
  0
ARC
  5
22F
  8
0
  6
CONTINUOUS
 10
724.52702258362149
 20
559.23902325975109
 30
0.0
 40
1.0000000000000879
 50
314.9999999999954
 51
134.9999999999954
  0
LINE
  5
230
  8
0
  6
CONTINUOUS
 10
723.81991580243493
 20
559.94613004093776
 30
0.0
 11
722.85690214963961
 21
558.98311638814255
 31
0.0
  0
ARC
  5
231
  8
0
  6
CONTINUOUS
 10
722.64477011528356
 20
559.19524842249837
 30
0.0
 40
0.2999999999999542
 50
239.19855987505801
 51
315.0
  0
ARC
  5
232
  8
0
  6
CONTINUOUS
 10
719.93082850593112
 20
554.64282918207175
 30
0.0
 40
4.9999999999606244
 50
59.198559875065293
 51
75.801440125125708
  0
ARC
  5
233
  8
0
  6
CONTINUOUS
 10
721.2308285059064
 20
559.78092221350335
 30
0.0
 40
0.2999999999999102
 50
179.9999999996092
 51
255.8014401251115
  0
LINE
  5
234
  8
0
  6
CONTINUOUS
 10
720.93082850590645
 20
559.78092221350539
 30
0.0
 11
720.93082850590872
 21
560.14282918203605
 31
0.0
  0
ARC
  5
235
  8
0
  6
CONTINUOUS
 10
719.93082850590872
 20
560.14282918203605
 30
0.0
 40
1.0
 50
0.0
 51
180.00000000012369
  0
LINE
  5
236
  8
0
  6
CONTINUOUS
 10
718.93082850590872
 20
560.14282918203389
 30
0.0
 11
718.93082850590872
 21
559.78092221350221
 31
0.0
  0
ARC
  5
237
  8
0
  6
CONTINUOUS
 10
718.63082850590865
 20
559.78092221350187
 30
0.0
 40
0.2999999999999545
 50
284.19855987506759
 51
0.0000000000434252
  0
ARC
  5
238
  8
0
  6
CONTINUOUS
 10
719.93082850590963
 20
554.6428291820331
 30
0.0
 40
5.0000000000030438
 50
104.1985598750429
 51
120.8014401248391
  0
ARC
  5
239
  8
0
  6
CONTINUOUS
 10
717.21688689654286
 20
559.19524842250075
 30
0.0
 40
0.2999999999999652
 50
225.00000000039921
 51
300.8014401248451
  0
LINE
  5
23A
  8
0
  6
CONTINUOUS
 10
717.00475486218852
 20
558.98311638814334
 30
0.0
 11
716.04174120938092
 21
559.94613004093776
 31
0.0
  0
ARC
  5
23B
  8
0
  6
CONTINUOUS
 10
715.33463442819448
 20
559.23902325975132
 30
0.0
 40
0.9999999999998472
 50
45.0
 51
224.99999999999079
  0
LINE
  5
23C
  8
0
  6
CONTINUOUS
 10
714.62752764700781
 20
558.53191647856488
 30
0.0
 11
715.59054129980461
 21
557.56890282576614
 31
0.0
  0
ARC
  5
23D
  8
0
  6
CONTINUOUS
 10
715.37840926544845
 20
557.35677079141033
 30
0.0
 40
0.3000000000000345
 50
329.19855987497988
 51
44.999999999953928
  0
ARC
  5
23E
  8
0
  6
CONTINUOUS
 10
719.9308285058878
 20
554.64282918204026
 30
0.0
 40
4.9999999999804494
 50
149.19855987497169
 51
165.80144012494401
  0
ARC
  5
23F
  8
0
  6
CONTINUOUS
 10
714.79273547444086
 20
555.94282918203646
 30
0.0
 40
0.2999999999999952
 50
270.0000000000216
 51
345.80144012495879
  0
LINE
  5
240
  8
0
  6
CONTINUOUS
 10
714.79273547444097
 20
555.64282918203662
 30
0.0
 11
714.4308285059069
 21
555.64282918203662
 31
0.0
  0
ARC
  5
241
  8
0
  6
CONTINUOUS
 10
714.4308285059069
 20
554.64282918203662
 30
0.0
 40
1.0
 50
90.0
 51
270.0
  0
LINE
  5
242
  8
0
  6
CONTINUOUS
 10
714.4308285059069
 20
553.64282918203651
 30
0.0
 11
714.79273547443745
 21
553.6428291820414
 31
0.0
  0
ARC
  5
243
  8
0
  6
CONTINUOUS
 10
714.79273547444154
 20
553.34282918204156
 30
0.0
 40
0.2999999999999545
 50
14.19855987499912
 51
90.000000000781654
  0
ARC
  5
244
  8
0
  6
CONTINUOUS
 10
719.93082850590929
 20
554.64282918203662
 30
0.0
 40
5.0000000000004929
 50
194.19855987498579
 51
210.80144012494
  0
ARC
  5
245
  8
0
  6
CONTINUOUS
 10
715.37840926544845
 20
551.92888757266326
 30
0.0
 40
0.3000000000001004
 50
315.0
 51
30.801440124930831
  0
LINE
  5
246
  8
0
  6
CONTINUOUS
 10
715.5905412998045
 20
551.71675553830721
 30
0.0
 11
714.62752764700781
 21
550.75374188551075
 31
0.0
  0
ARC
  5
247
  8
0
  6
CONTINUOUS
 10
715.33463442819425
 20
550.04663510432408
 30
0.0
 40
0.9999999999999277
 50
134.9999999999954
 51
314.9999999995901
  0
LINE
  5
248
  8
0
  6
CONTINUOUS
 10
716.04174120937569
 20
549.33952832313264
 30
0.0
 11
717.00475486218704
 21
550.30254197593024
 31
0.0
  0
ARC
  5
249
  8
0
  6
CONTINUOUS
 10
739.13082850590865
 20
535.44282918203862
 30
0.0
 40
0.3000000000000682
 50
270.0
 51
0.0
  0
LINE
  5
24A
  8
0
  6
CONTINUOUS
 10
739.13082850590865
 20
535.14282918203855
 30
0.0
 11
729.8308285059087
 21
535.14282918203855
 31
0.0
  0
ARC
  5
24B
  8
0
  6
CONTINUOUS
 10
729.8308285059087
 20
535.44282918203862
 30
0.0
 40
0.3000000000000682
 50
180.0
 51
270.0
  0
LINE
  5
24C
  8
0
  6
CONTINUOUS
 10
729.53082850590874
 20
535.44282918203862
 30
0.0
 11
729.53082850590874
 21
541.34808303162845
 31
0.0
  0
ARC
  5
24D
  8
0
  6
CONTINUOUS
 10
729.8308285059087
 20
541.34808303162845
 30
0.0
 40
0.2999999999999545
 50
57.471427523002092
 51
180.0
  0
ARC
  5
24E
  8
0
  6
CONTINUOUS
 10
730.96004077296629
 20
543.11864216815206
 30
0.0
 40
1.8000000000000349
 50
237.47142752301289
 51
290.00000000001648
  0
LINE
  5
24F
  8
0
  6
CONTINUOUS
 10
731.57567703095299
 20
541.4271954507376
 30
0.0
 11
739.028222462911
 21
544.1397001574868
 31
0.0
  0
ARC
  5
250
  8
0
  6
CONTINUOUS
 10
739.13082850590865
 20
543.85779237125087
 30
0.0
 40
0.3000000000000271
 50
0.0
 51
109.99999999998769
  0
LINE
  5
251
  8
0
  6
CONTINUOUS
 10
739.43082850590872
 20
543.85779237125087
 30
0.0
 11
739.43082850590883
 21
535.44282918203862
 31
0.0
  0
LINE
  5
252
  8
0
  6
CONTINUOUS
 10
655.73082850590879
 20
535.14282918203855
 30
0.0
 11
665.03082850590874
 21
535.14282918203855
 31
0.0
  0
ARC
  5
253
  8
0
  6
CONTINUOUS
 10
665.03082850590863
 20
535.44282918203862
 30
0.0
 40
0.3000000000000682
 50
270.0000000000216
 51
0.0
  0
LINE
  5
254
  8
0
  6
CONTINUOUS
 10
665.33082850590881
 20
535.44282918203862
 30
0.0
 11
665.33082850590881
 21
541.34808303162845
 31
0.0
  0
ARC
  5
255
  8
0
  6
CONTINUOUS
 10
665.03082850590874
 20
541.34808303162845
 30
0.0
 40
0.3000000000000682
 50
0.0000000000217126
 51
122.5285724769862
  0
ARC
  5
256
  8
0
  6
CONTINUOUS
 10
663.90161623885126
 20
543.11864216815195
 30
0.0
 40
1.799999999999939
 50
249.99999999998229
 51
302.52857247698898
  0
LINE
  5
257
  8
0
  6
CONTINUOUS
 10
663.28597998086445
 20
541.4271954507376
 30
0.0
 11
655.83343454890644
 21
544.1397001574868
 31
0.0
  0
ARC
  5
258
  8
0
  6
CONTINUOUS
 10
655.73082850590879
 20
543.85779237125087
 30
0.0
 40
0.3000000000000271
 50
70.00000000001225
 51
180.0
  0
LINE
  5
259
  8
0
  6
CONTINUOUS
 10
655.43082850590872
 20
543.85779237125087
 30
0.0
 11
655.43082850590872
 21
535.44282918203862
 31
0.0
  0
ARC
  5
25A
  8
0
  6
CONTINUOUS
 10
655.7308285059089
 20
535.44282918203862
 30
0.0
 40
0.3000000000001819
 50
180.0
 51
269.99999999997829
  0
LINE
  5
25B
  8
0
  6
CONTINUOUS
 10
655.43082850590872
 20
610.42786599282329
 30
0.0
 11
655.43082850590872
 21
618.84282918203587
 31
0.0
  0
ARC
  5
25C
  8
0
  6
CONTINUOUS
 10
655.73082850590879
 20
618.84282918203587
 30
0.0
 40
0.3000000000000682
 50
90.0
 51
180.0
  0
LINE
  5
25D
  8
0
  6
CONTINUOUS
 10
655.73082850590879
 20
619.14282918203594
 30
0.0
 11
665.03082850590874
 21
619.14282918203594
 31
0.0
  0
ARC
  5
25E
  8
0
  6
CONTINUOUS
 10
665.03082850590874
 20
618.84282918203587
 30
0.0
 40
0.2999999999999545
 50
0.0
 51
90.0
  0
LINE
  5
25F
  8
0
  6
CONTINUOUS
 10
665.33082850590881
 20
618.84282918203587
 30
0.0
 11
665.33082850590881
 21
612.93757533244593
 31
0.0
  0
ARC
  5
260
  8
0
  6
CONTINUOUS
 10
665.03082850590874
 20
612.93757533244593
 30
0.0
 40
0.3000000000000682
 50
237.4714275230138
 51
0.0
  0
ARC
  5
261
  8
0
  6
CONTINUOUS
 10
663.90161623885115
 20
611.16701619592243
 30
0.0
 40
1.8000000000000009
 50
57.471427523007918
 51
110.0000000000131
  0
LINE
  5
262
  8
0
  6
CONTINUOUS
 10
663.28597998086445
 20
612.85846291333689
 30
0.0
 11
655.83343454890644
 21
610.14595820658769
 31
0.0
  0
ARC
  5
263
  8
0
  6
CONTINUOUS
 10
655.73082850590879
 20
610.42786599282329
 30
0.0
 40
0.2999999999999203
 50
180.0
 51
289.99999999999523
  0
LINE
  5
264
  8
0
  6
CONTINUOUS
 10
729.53082850590874
 20
618.84282918203587
 30
0.0
 11
729.53082850590874
 21
612.93757533244695
 31
0.0
  0
ARC
  5
265
  8
0
  6
CONTINUOUS
 10
729.83082850590927
 20
612.93757533244684
 30
0.0
 40
0.3000000000004093
 50
179.99999999995649
 51
302.52857247690952
  0
ARC
  5
266
  8
0
  6
CONTINUOUS
 10
730.96004077296618
 20
611.16701619592243
 30
0.0
 40
1.7999999999999821
 50
69.999999999980091
 51
122.52857247697089
  0
LINE
  5
267
  8
0
  6
CONTINUOUS
 10
731.57567703095299
 20
612.85846291333689
 30
0.0
 11
739.028222462911
 21
610.14595820658769
 31
0.0
  0
ARC
  5
268
  8
0
  6
CONTINUOUS
 10
739.13082850590877
 20
610.42786599282329
 30
0.0
 40
0.2999999999999591
 50
249.99999999998451
 51
0.0
  0
LINE
  5
269
  8
0
  6
CONTINUOUS
 10
739.43082850590883
 20
610.42786599282329
 30
0.0
 11
739.43082850590872
 21
618.84282918203587
 31
0.0
  0
ARC
  5
26A
  8
0
  6
CONTINUOUS
 10
739.13082850590865
 20
618.84282918203587
 30
0.0
 40
0.2999999999999545
 50
359.99999999997829
 51
90.0
  0
LINE
  5
26B
  8
0
  6
CONTINUOUS
 10
739.13082850590865
 20
619.14282918203594
 30
0.0
 11
729.8308285059087
 21
619.14282918203594
 31
0.0
  0
ARC
  5
26C
  8
0
  6
CONTINUOUS
 10
729.8308285059087
 20
618.84282918203587
 30
0.0
 40
0.2999999999999545
 50
90.0
 51
180.00000000002171
  0
ENDSEC
  0
EOF
