  0
SECTION
  2
HEADER
  9
$ACADVER
  1
AC1012
  9
$DWGCODEPAGE
  3
ANSI_1252
  9
$INSBASE
 10
0.0
 20
0.0
 30
0.0
  9
$EXTMIN
 10
980.0656684390737
 20
-74.75171811174971
 30
-0.000000000000013
  9
$EXTMAX
 10
1023.966308010282
 20
25.08301891893381
 30
0.0000000000000023
  9
$LIMMIN
 10
0.0
 20
0.0
  9
$LIMMAX
 10
12.0
 20
9.0
  9
$ORTHOMODE
 70
     1
  9
$REGENMODE
 70
     1
  9
$FILLMODE
 70
     1
  9
$QTEXTMODE
 70
     0
  9
$MIRRTEXT
 70
     1
  9
$DRAGMODE
 70
     2
  9
$LTSCALE
 40
15.0
  9
$OSMODE
 70
    37
  9
$ATTMODE
 70
     1
  9
$TEXTSIZE
 40
0.2
  9
$TRACEWID
 40
0.05
  9
$TEXTSTYLE
  7
STANDARD
  9
$CLAYER
  8
0
  9
$CELTYPE
  6
BYLAYER
  9
$CECOLOR
 62
   256
  9
$CELTSCALE
 40
0.05
  9
$DELOBJ
 70
     1
  9
$DISPSILH
 70
     0
  9
$DIMSCALE
 40
0.0
  9
$DIMASZ
 40
2.0
  9
$DIMEXO
 40
0.625
  9
$DIMDLI
 40
0.38
  9
$DIMRND
 40
0.0
  9
$DIMDLE
 40
0.0
  9
$DIMEXE
 40
0.18
  9
$DIMTP
 40
0.0135
  9
$DIMTM
 40
0.0135
  9
$DIMTXT
 40
2.5
  9
$DIMCEN
 40
0.09
  9
$DIMTSZ
 40
0.0
  9
$DIMTOL
 70
     0
  9
$DIMLIM
 70
     0
  9
$DIMTIH
 70
     0
  9
$DIMTOH
 70
     0
  9
$DIMSE1
 70
     0
  9
$DIMSE2
 70
     0
  9
$DIMTAD
 70
     1
  9
$DIMZIN
 70
     8
  9
$DIMBLK
  1

  9
$DIMASO
 70
     1
  9
$DIMSHO
 70
     1
  9
$DIMPOST
  1

  9
$DIMAPOST
  1

  9
$DIMALT
 70
     0
  9
$DIMALTD
 70
     2
  9
$DIMALTF
 40
25.4
  9
$DIMLFAC
 40
1.0
  9
$DIMTOFL
 70
     0
  9
$DIMTVP
 40
0.0
  9
$DIMTIX
 70
     0
  9
$DIMSOXD
 70
     0
  9
$DIMSAH
 70
     0
  9
$DIMBLK1
  1

  9
$DIMBLK2
  1

  9
$DIMSTYLE
  2
\U+0130SMAIL_1_5___1
  9
$DIMCLRD
 70
   242
  9
$DIMCLRE
 70
   242
  9
$DIMCLRT
 70
   242
  9
$DIMTFAC
 40
1.0
  9
$DIMGAP
 40
0.5
  9
$DIMJUST
 70
     0
  9
$DIMSD1
 70
     0
  9
$DIMSD2
 70
     0
  9
$DIMTOLJ
 70
     1
  9
$DIMTZIN
 70
     0
  9
$DIMALTZ
 70
     0
  9
$DIMALTTZ
 70
     0
  9
$DIMFIT
 70
     3
  9
$DIMUPT
 70
     0
  9
$DIMUNIT
 70
     2
  9
$DIMDEC
 70
     2
  9
$DIMTDEC
 70
     2
  9
$DIMALTU
 70
     2
  9
$DIMALTTD
 70
     2
  9
$DIMTXSTY
  7
ROMANT
  9
$DIMAUNIT
 70
     0
  9
$LUNITS
 70
     2
  9
$LUPREC
 70
     4
  9
$SKETCHINC
 40
0.1
  9
$FILLETRAD
 40
5.0
  9
$AUNITS
 70
     0
  9
$AUPREC
 70
     0
  9
$MENU
  1
.
  9
$ELEVATION
 40
0.0
  9
$PELEVATION
 40
0.0
  9
$THICKNESS
 40
0.0
  9
$LIMCHECK
 70
     0
  9
$BLIPMODE
 70
     0
  9
$CHAMFERA
 40
0.0
  9
$CHAMFERB
 40
0.0
  9
$CHAMFERC
 40
0.0
  9
$CHAMFERD
 40
0.0
  9
$SKPOLY
 70
     0
  9
$TDCREATE
 40
2452396.589542465
  9
$TDUPDATE
 40
2453551.439104455
  9
$TDINDWG
 40
13.0351988079
  9
$TDUSRTIMER
 40
13.0351986921
  9
$USRTIMER
 70
     1
  9
$ANGBASE
 50
0.0
  9
$ANGDIR
 70
     0
  9
$PDMODE
 70
     0
  9
$PDSIZE
 40
0.0
  9
$PLINEWID
 40
0.0
  9
$COORDS
 70
     2
  9
$SPLFRAME
 70
     0
  9
$SPLINETYPE
 70
     6
  9
$SPLINESEGS
 70
     8
  9
$ATTDIA
 70
     0
  9
$ATTREQ
 70
     1
  9
$HANDLING
 70
-16383
  9
$HANDSEED
  5
466F6
  9
$SURFTAB1
 70
     6
  9
$SURFTAB2
 70
     6
  9
$SURFTYPE
 70
     6
  9
$SURFU
 70
     6
  9
$SURFV
 70
     6
  9
$UCSNAME
  2

  9
$UCSORG
 10
0.0
 20
0.0
 30
0.0
  9
$UCSXDIR
 10
1.0
 20
0.0
 30
0.0
  9
$UCSYDIR
 10
0.0
 20
1.0
 30
0.0
  9
$PUCSNAME
  2

  9
$PUCSORG
 10
0.0
 20
0.0
 30
0.0
  9
$PUCSXDIR
 10
1.0
 20
0.0
 30
0.0
  9
$PUCSYDIR
 10
0.0
 20
1.0
 30
0.0
  9
$USERI1
 70
     0
  9
$USERI2
 70
     0
  9
$USERI3
 70
     0
  9
$USERI4
 70
     0
  9
$USERI5
 70
     0
  9
$USERR1
 40
0.0
  9
$USERR2
 40
0.0
  9
$USERR3
 40
0.0
  9
$USERR4
 40
0.0
  9
$USERR5
 40
0.0
  9
$WORLDVIEW
 70
     1
  9
$SHADEDGE
 70
     3
  9
$SHADEDIF
 70
    70
  9
$TILEMODE
 70
     1
  9
$MAXACTVP
 70
    64
  9
$PINSBASE
 10
0.0
 20
0.0
 30
0.0
  9
$PLIMCHECK
 70
     0
  9
$PEXTMIN
 10
26.66999878883362
 20
20.31999878883362
 30
0.0
  9
$PEXTMAX
 10
240.0299890995025
 20
182.8799890995025
 30
0.0
  9
$PLIMMIN
 10
-6.350006103515625
 20
-6.349999904632568
  9
$PLIMMAX
 10
273.0499877929687
 20
209.5499939918517
  9
$UNITMODE
 70
     0
  9
$VISRETAIN
 70
     1
  9
$PLINEGEN
 70
     0
  9
$PSLTSCALE
 70
     1
  9
$TREEDEPTH
 70
  3020
  9
$PICKSTYLE
 70
     1
  9
$CMLSTYLE
  2
STANDARD
  9
$CMLJUST
 70
     0
  9
$CMLSCALE
 40
1.0
  9
$SAVEIMAGES
 70
     1
  0
ENDSEC
  0
SECTION
  2
CLASSES
  0
CLASS
  1
ACDBDICTIONARYWDFLT
  2
AcDbDictionaryWithDefault
  3
AutoCAD 2000
 90
    32768
280
     0
281
     0
  0
CLASS
  1
ACDBPLACEHOLDER
  2
AcDbPlaceHolder
  3
AutoCAD 2000
 90
    32768
280
     0
281
     0
  0
CLASS
  1
LAYOUT
  2
AcDbLayout
  3
AutoCAD 2000
 90
    32768
280
     0
281
     0
  0
CLASS
  1
DICTIONARYVAR
  2
AcDbDictionaryVar
  3
AutoCAD 2000
 90
    32768
280
     0
281
     0
  0
CLASS
  1
LONG_TRANSACTION
  2
AcDbLongTransaction
  3
AutoCAD 2000
 90
    32768
280
     0
281
     0
  0
CLASS
  1
LWPOLYLINE
  2
AcDbPolyline
  3
AutoCAD 2000
 90
    32768
280
     0
281
     1
  0
CLASS
  1
HATCH
  2
AcDbHatch
  3
AutoCAD 2000
 90
    32768
280
     0
281
     1
  0
CLASS
  1
XRECORD
  2
AcDbXrecord
  3
AutoCAD 2000
 90
    32768
280
     0
281
     0
  0
ENDSEC
  0
SECTION
  2
TABLES
  0
TABLE
  2
VPORT
  5
1A
330
0
100
AcDbSymbolTable
 70
     2
  0
VPORT
  5
4669D
330
1A
100
AcDbSymbolTableRecord
100
AcDbViewportTableRecord
  2
*ACTIVE
 70
     0
 10
0.0
 20
0.0
 11
1.0
 21
1.0
 12
1002.015988224677
 22
-24.83434959640794
 13
0.0
 23
0.0
 14
1.0
 24
1.0
 15
0.0
 25
0.0
 16
0.0
 26
0.0
 36
1.0
 17
0.0
 27
0.0
 37
0.0
 40
100.8414738746904
 41
1.595959595959596
 42
50.0
 43
0.0
 44
0.0
 50
0.0
 51
0.0
 71
     0
 72
   100
 73
     1
 74
     1
 75
     0
 76
     1
 77
     0
 78
     0
  0
ENDTAB
  0
TABLE
  2
LTYPE
  5
15
330
0
100
AcDbSymbolTable
 70
     4
  0
LTYPE
  5
16
330
15
100
AcDbSymbolTableRecord
100
AcDbLinetypeTableRecord
  2
BYBLOCK
 70
     0
  3

 72
    65
 73
     0
 40
0.0
  0
LTYPE
  5
17
330
15
100
AcDbSymbolTableRecord
100
AcDbLinetypeTableRecord
  2
BYLAYER
 70
     0
  3

 72
    65
 73
     0
 40
0.0
  0
LTYPE
  5
8
330
15
100
AcDbSymbolTableRecord
100
AcDbLinetypeTableRecord
  2
CONTINUOUS
 70
     0
  3
CONTINUOUS
 72
    65
 73
     0
 40
0.0
  0
LTYPE
  5
2B054
330
15
100
AcDbSymbolTableRecord
100
AcDbLinetypeTableRecord
  2
HIDDEN
 70
     0
  3
Hidden __ __ __ __ __ __ __ __ __ __ __ __ __ _
 72
    65
 73
     2
 40
9.524999999999998
 49
6.349999999999999
 74
     0
 49
-3.174999999999999
 74
     0
  0
LTYPE
  5
2E1A9
330
15
100
AcDbSymbolTableRecord
100
AcDbLinetypeTableRecord
  2
CENTER
 70
     0
  3
----- - ----- - -----
 72
    65
 73
     4
 40
1.25
 49
0.8
 74
     0
 49
-0.15
 74
     0
 49
0.15
 74
     0
 49
-0.15
 74
     0
  0
LTYPE
  5
3D403
330
15
100
AcDbSymbolTableRecord
100
AcDbLinetypeTableRecord
  2
DOT
 70
     0
  3
Dot . . . . . . . . . . . . . . . . . . . . . .
 72
    65
 73
     2
 40
6.349999999999999
 49
0.0
 74
     0
 49
-6.349999999999999
 74
     0
  0
ENDTAB
  0
TABLE
  2
LAYER
  5
10
102
{ACAD_XDICTIONARY
360
2A172
102
}
330
0
100
AcDbSymbolTable
 70
     4
  0
LAYER
  5
4
330
10
100
AcDbSymbolTableRecord
100
AcDbLayerTableRecord
  2
0
 70
     0
 62
     7
  6
CONTINUOUS
  0
LAYER
  5
2D
330
10
100
AcDbSymbolTableRecord
100
AcDbLayerTableRecord
  2
DEFPOINTS
 70
     0
 62
     7
  6
CONTINUOUS
  0
LAYER
  5
42F
330
10
100
AcDbSymbolTableRecord
100
AcDbLayerTableRecord
  2
ANA
 70
     0
 62
   220
  6
CONTINUOUS
  0
LAYER
  5
432
330
10
100
AcDbSymbolTableRecord
100
AcDbLayerTableRecord
  2
ANTET
 70
     0
 62
   220
  6
CONTINUOUS
  0
ENDTAB
  0
TABLE
  2
STYLE
  5
11
330
0
100
AcDbSymbolTable
 70
     2
  0
STYLE
  5
12
330
11
100
AcDbSymbolTableRecord
100
AcDbTextStyleTableRecord
  2
STANDARD
 70
     0
 40
0.0
 41
1.0
 50
0.0
 71
     0
 42
0.2
  3
TIMES.TTF
  4

1001
ACAD
1000
Times New Roman Tur
1071
    41490
  0
STYLE
  5
436
330
11
100
AcDbSymbolTableRecord
100
AcDbTextStyleTableRecord
  2
ROMANT
 70
     0
 40
2.5
 41
1.0
 50
15.0
 71
     0
 42
2.5
  3
C:\ACADR13\COMMON\FONTS\romant.shx
  4

  0
ENDTAB
  0
TABLE
  2
VIEW
  5
18
330
0
100
AcDbSymbolTable
 70
     0
  0
ENDTAB
  0
TABLE
  2
UCS
  5
19
330
0
100
AcDbSymbolTable
 70
     0
  0
ENDTAB
  0
TABLE
  2
APPID
  5
1C
330
0
100
AcDbSymbolTable
 70
     1
  0
APPID
  5
13
330
1C
100
AcDbSymbolTableRecord
100
AcDbRegAppTableRecord
  2
ACAD
 70
     0
  0
ENDTAB
  0
TABLE
  2
DIMSTYLE
  5
1D
330
0
100
AcDbSymbolTable
 70
     2
  0
DIMSTYLE
105
439
330
1D
100
AcDbSymbolTableRecord
100
AcDbDimStyleTableRecord
  2
STANDARD
 70
     0
  3

  4

  5

  6

  7

 40
1.0
 41
0.18
 42
0.0625
 43
0.38
 44
0.18
 45
0.0
 46
0.0
 47
0.0
 48
0.0
140
0.18
141
0.09
142
0.0
143
25.4
144
1.0
145
0.0
146
1.0
147
0.09
 71
     0
 72
     0
 73
     1
 74
     1
 75
     0
 76
     0
 77
     0
 78
     0
170
     0
171
     2
172
     0
173
     0
174
     0
175
     0
176
     0
177
     0
178
     0
270
     2
271
     4
272
     4
273
     2
274
     2
340
12
275
     0
280
     0
281
     0
282
     0
283
     1
284
     0
285
     0
286
     0
287
     3
288
     0
  0
DIMSTYLE
105
1105
330
1D
100
AcDbSymbolTableRecord
100
AcDbDimStyleTableRecord
  2
\U+0130SMAIL_1_5___1
 70
     0
  3

  4

  5

  6

  7

 40
0.0
 41
2.0
 42
0.625
 43
0.38
 44
0.18
 45
0.0
 46
0.0
 47
0.0135
 48
0.0135
140
2.5
141
0.137
142
0.0
143
25.4
144
1.0
145
0.0
146
1.0
147
0.5
 71
     0
 72
     0
 73
     0
 74
     0
 75
     0
 76
     0
 77
     1
 78
     8
170
     0
171
     2
172
     0
173
     0
174
     0
175
     0
176
     5
177
     5
178
     5
270
     2
271
     2
272
     2
273
     2
274
     2
340
436
275
     0
280
     0
281
     0
282
     0
283
     1
284
     0
285
     0
286
     0
287
     3
288
     0
  0
ENDTAB
  0
TABLE
  2
BLOCK_RECORD
  5
1
330
0
100
AcDbSymbolTable
 70
    52
  0
BLOCK_RECORD
  5
2
102
{ACAD_XDICTIONARY
360
4669E
102
}
330
1
100
AcDbSymbolTableRecord
100
AcDbBlockTableRecord
  2
*MODEL_SPACE
  0
BLOCK_RECORD
  5
C
102
{ACAD_XDICTIONARY
360
466A0
102
}
330
1
100
AcDbSymbolTableRecord
100
AcDbBlockTableRecord
  2
*PAPER_SPACE
  0
BLOCK_RECORD
  5
45868
330
1
100
AcDbSymbolTableRecord
100
AcDbBlockTableRecord
  2
*D0
  0
BLOCK_RECORD
  5
45875
330
1
100
AcDbSymbolTableRecord
100
AcDbBlockTableRecord
  2
*D1
  0
BLOCK_RECORD
  5
4588F
330
1
100
AcDbSymbolTableRecord
100
AcDbBlockTableRecord
  2
*D2
  0
BLOCK_RECORD
  5
4589C
330
1
100
AcDbSymbolTableRecord
100
AcDbBlockTableRecord
  2
*D3
  0
BLOCK_RECORD
  5
458A9
330
1
100
AcDbSymbolTableRecord
100
AcDbBlockTableRecord
  2
*D4
  0
BLOCK_RECORD
  5
458B7
330
1
100
AcDbSymbolTableRecord
100
AcDbBlockTableRecord
  2
*D5
  0
BLOCK_RECORD
  5
458F1
330
1
100
AcDbSymbolTableRecord
100
AcDbBlockTableRecord
  2
*D6
  0
BLOCK_RECORD
  5
458FE
330
1
100
AcDbSymbolTableRecord
100
AcDbBlockTableRecord
  2
*D7
  0
BLOCK_RECORD
  5
4590B
330
1
100
AcDbSymbolTableRecord
100
AcDbBlockTableRecord
  2
*D8
  0
BLOCK_RECORD
  5
4594F
330
1
100
AcDbSymbolTableRecord
100
AcDbBlockTableRecord
  2
*D9
  0
BLOCK_RECORD
  5
4595D
330
1
100
AcDbSymbolTableRecord
100
AcDbBlockTableRecord
  2
*D10
  0
BLOCK_RECORD
  5
4596B
330
1
100
AcDbSymbolTableRecord
100
AcDbBlockTableRecord
  2
*D11
  0
BLOCK_RECORD
  5
45983
330
1
100
AcDbSymbolTableRecord
100
AcDbBlockTableRecord
  2
*D12
  0
BLOCK_RECORD
  5
4599F
330
1
100
AcDbSymbolTableRecord
100
AcDbBlockTableRecord
  2
*D13
  0
BLOCK_RECORD
  5
459AD
330
1
100
AcDbSymbolTableRecord
100
AcDbBlockTableRecord
  2
*D14
  0
BLOCK_RECORD
  5
459BB
330
1
100
AcDbSymbolTableRecord
100
AcDbBlockTableRecord
  2
*D15
  0
BLOCK_RECORD
  5
45A1D
330
1
100
AcDbSymbolTableRecord
100
AcDbBlockTableRecord
  2
*D16
  0
BLOCK_RECORD
  5
45A33
330
1
100
AcDbSymbolTableRecord
100
AcDbBlockTableRecord
  2
*D17
  0
BLOCK_RECORD
  5
45A43
330
1
100
AcDbSymbolTableRecord
100
AcDbBlockTableRecord
  2
*D18
  0
BLOCK_RECORD
  5
45A52
330
1
100
AcDbSymbolTableRecord
100
AcDbBlockTableRecord
  2
*D19
  0
BLOCK_RECORD
  5
45A5F
330
1
100
AcDbSymbolTableRecord
100
AcDbBlockTableRecord
  2
*D20
  0
BLOCK_RECORD
  5
45A6C
330
1
100
AcDbSymbolTableRecord
100
AcDbBlockTableRecord
  2
*D21
  0
BLOCK_RECORD
  5
45A79
330
1
100
AcDbSymbolTableRecord
100
AcDbBlockTableRecord
  2
*D22
  0
BLOCK_RECORD
  5
45A82
330
1
100
AcDbSymbolTableRecord
100
AcDbBlockTableRecord
  2
*D23
  0
BLOCK_RECORD
  5
45A8B
330
1
100
AcDbSymbolTableRecord
100
AcDbBlockTableRecord
  2
*D24
  0
BLOCK_RECORD
  5
45ACA
330
1
100
AcDbSymbolTableRecord
100
AcDbBlockTableRecord
  2
*D25
  0
BLOCK_RECORD
  5
45ADE
330
1
100
AcDbSymbolTableRecord
100
AcDbBlockTableRecord
  2
*D26
  0
BLOCK_RECORD
  5
45AE7
330
1
100
AcDbSymbolTableRecord
100
AcDbBlockTableRecord
  2
*D27
  0
BLOCK_RECORD
  5
45AF0
330
1
100
AcDbSymbolTableRecord
100
AcDbBlockTableRecord
  2
*D28
  0
BLOCK_RECORD
  5
45B06
330
1
100
AcDbSymbolTableRecord
100
AcDbBlockTableRecord
  2
*D29
  0
BLOCK_RECORD
  5
45B13
330
1
100
AcDbSymbolTableRecord
100
AcDbBlockTableRecord
  2
*D30
  0
BLOCK_RECORD
  5
45B20
330
1
100
AcDbSymbolTableRecord
100
AcDbBlockTableRecord
  2
*D31
  0
BLOCK_RECORD
  5
45B2D
330
1
100
AcDbSymbolTableRecord
100
AcDbBlockTableRecord
  2
*D32
  0
BLOCK_RECORD
  5
45B3A
330
1
100
AcDbSymbolTableRecord
100
AcDbBlockTableRecord
  2
*D33
  0
BLOCK_RECORD
  5
45B48
330
1
100
AcDbSymbolTableRecord
100
AcDbBlockTableRecord
  2
*D34
  0
BLOCK_RECORD
  5
45B64
330
1
100
AcDbSymbolTableRecord
100
AcDbBlockTableRecord
  2
*D35
  0
BLOCK_RECORD
  5
45B71
330
1
100
AcDbSymbolTableRecord
100
AcDbBlockTableRecord
  2
*D36
  0
BLOCK_RECORD
  5
45B9C
330
1
100
AcDbSymbolTableRecord
100
AcDbBlockTableRecord
  2
*D37
  0
BLOCK_RECORD
  5
45BC0
330
1
100
AcDbSymbolTableRecord
100
AcDbBlockTableRecord
  2
*D38
  0
BLOCK_RECORD
  5
45BD6
330
1
100
AcDbSymbolTableRecord
100
AcDbBlockTableRecord
  2
*D39
  0
BLOCK_RECORD
  5
45BE3
330
1
100
AcDbSymbolTableRecord
100
AcDbBlockTableRecord
  2
*D40
  0
BLOCK_RECORD
  5
45F0B
330
1
100
AcDbSymbolTableRecord
100
AcDbBlockTableRecord
  2
*D41
  0
BLOCK_RECORD
  5
46319
330
1
100
AcDbSymbolTableRecord
100
AcDbBlockTableRecord
  2
*D42
  0
BLOCK_RECORD
  5
46331
330
1
100
AcDbSymbolTableRecord
100
AcDbBlockTableRecord
  2
*D43
  0
BLOCK_RECORD
  5
4654D
330
1
100
AcDbSymbolTableRecord
100
AcDbBlockTableRecord
  2
*D44
  0
BLOCK_RECORD
  5
46558
330
1
100
AcDbSymbolTableRecord
100
AcDbBlockTableRecord
  2
*D45
  0
BLOCK_RECORD
  5
46563
330
1
100
AcDbSymbolTableRecord
100
AcDbBlockTableRecord
  2
*D46
  0
BLOCK_RECORD
  5
4656E
330
1
100
AcDbSymbolTableRecord
100
AcDbBlockTableRecord
  2
*D47
  0
BLOCK_RECORD
  5
465C4
330
1
100
AcDbSymbolTableRecord
100
AcDbBlockTableRecord
  2
*D49
  0
BLOCK_RECORD
  5
465EB
330
1
100
AcDbSymbolTableRecord
100
AcDbBlockTableRecord
  2
*D50
  0
BLOCK_RECORD
  5
46631
330
1
100
AcDbSymbolTableRecord
100
AcDbBlockTableRecord
  2
*D51
  0
ENDTAB
  0
ENDSEC
  0
SECTION
  2
BLOCKS
  0
BLOCK
  5
3
330
2
100
AcDbEntity
  8
0
100
AcDbBlockBegin
  2
*MODEL_SPACE
 70
     0
 10
0.0
 20
0.0
 30
0.0
  3
*MODEL_SPACE
  1

  0
ENDBLK
  5
9
330
2
100
AcDbEntity
  8
0
100
AcDbBlockEnd
  0
BLOCK
  5
D
330
C
100
AcDbEntity
 67
     1
  8
0
100
AcDbBlockBegin
  2
*PAPER_SPACE
 70
     0
 10
0.0
 20
0.0
 30
0.0
  3
*PAPER_SPACE
  1

  0
ENDBLK
  5
E
330
C
100
AcDbEntity
 67
     1
  8
0
100
AcDbBlockEnd
  0
BLOCK
  5
45872
330
45868
100
AcDbEntity
  8
0
 48
0.05
100
AcDbBlockBegin
  2
*D0
 70
     1
 10
0.0
 20
0.0
 30
0.0
  3
*D0
  1

  0
LINE
  5
46529
330
45868
100
AcDbEntity
  8
0
 62
   242
 48
0.05
100
AcDbLine
 10
906.1120400855179
 20
-150.6320120230494
 30
0.0
 11
906.1120400855179
 21
-172.2312562338264
 31
0.0
  0
LINE
  5
4652A
330
45868
100
AcDbEntity
  8
0
 62
   242
 48
0.05
100
AcDbLine
 10
919.1120400855178
 20
-150.8320120230494
 30
0.0
 11
919.1120400855178
 21
-172.2312562338264
 31
0.0
  0
LINE
  5
4652B
330
45868
100
AcDbEntity
  8
0
 62
   242
 48
0.05
100
AcDbLine
 10
908.1120400855178
 20
-172.0512562338264
 30
0.0
 11
917.1120400855178
 21
-172.0512562338264
 31
0.0
  0
SOLID
  5
4652C
330
45868
100
AcDbEntity
  8
0
 62
   242
 48
0.05
100
AcDbTrace
 10
908.1120400855178
 20
-171.717922900493
 30
0.0
 11
908.1120400855178
 21
-172.3845895671597
 31
0.0
 12
906.1120400855179
 22
-172.0512562338264
 32
0.0
 13
906.1120400855179
 23
-172.0512562338264
 33
0.0
  0
SOLID
  5
4652D
330
45868
100
AcDbEntity
  8
0
 62
   242
 48
0.05
100
AcDbTrace
 10
917.1120400855178
 20
-171.717922900493
 30
0.0
 11
917.1120400855178
 21
-172.3845895671597
 31
0.0
 12
919.1120400855178
 22
-172.0512562338264
 32
0.0
 13
919.1120400855178
 23
-172.0512562338264
 33
0.0
  0
MTEXT
  5
4652E
330
45868
100
AcDbEntity
  8
0
 62
   242
 48
0.05
100
AcDbMText
 10
912.6120400855178
 20
-170.3012562338263
 30
0.0
 40
2.5
 41
0.0
 71
     5
 72
     1
  1
\A1;13
  7
ROMANT
1001
ACAD
1000
MTEXTBEGIN
1070
    73
1070
     1
1070
    44
1040
1.0
1070
    74
1070
     0
1000
MTEXTEND
  0
POINT
  5
4652F
330
45868
100
AcDbEntity
  8
DEFPOINTS
 62
     0
 48
0.05
100
AcDbPoint
 10
906.1120400855179
 20
-150.0070120230494
 30
0.0
  0
POINT
  5
46530
330
45868
100
AcDbEntity
  8
DEFPOINTS
 62
     0
 48
0.05
100
AcDbPoint
 10
919.1120400855178
 20
-150.2070120230494
 30
0.0
  0
POINT
  5
46531
330
45868
100
AcDbEntity
  8
DEFPOINTS
 62
     0
 48
0.05
100
AcDbPoint
 10
919.1120400855178
 20
-172.0512562338264
 30
0.0
  0
ENDBLK
  5
45873
330
45868
100
AcDbEntity
  8
0
 48
0.05
100
AcDbBlockEnd
  0
BLOCK
  5
4587F
330
45875
100
AcDbEntity
  8
0
 48
0.05
100
AcDbBlockBegin
  2
*D1
 70
     1
 10
0.0
 20
0.0
 30
0.0
  3
*D1
  1

  0
LINE
  5
46532
330
45875
100
AcDbEntity
  8
0
 62
   242
 48
0.05
100
AcDbLine
 10
906.1120400855179
 20
-150.6320120230494
 30
0.0
 11
906.1120400855179
 21
-172.2312562338264
 31
0.0
  0
LINE
  5
46533
330
45875
100
AcDbEntity
  8
0
 62
   242
 48
0.05
100
AcDbLine
 10
895.7120400855178
 20
-150.6320120230494
 30
0.0
 11
895.7120400855178
 21
-172.2312562338264
 31
0.0
  0
LINE
  5
46534
330
45875
100
AcDbEntity
  8
0
 62
   242
 48
0.05
100
AcDbLine
 10
904.1120400855177
 20
-172.0512562338264
 30
0.0
 11
897.7120400855179
 21
-172.0512562338264
 31
0.0
  0
SOLID
  5
46535
330
45875
100
AcDbEntity
  8
0
 62
   242
 48
0.05
100
AcDbTrace
 10
904.1120400855177
 20
-171.717922900493
 30
0.0
 11
904.1120400855177
 21
-172.3845895671597
 31
0.0
 12
906.1120400855179
 22
-172.0512562338264
 32
0.0
 13
906.1120400855179
 23
-172.0512562338264
 33
0.0
  0
SOLID
  5
46536
330
45875
100
AcDbEntity
  8
0
 62
   242
 48
0.05
100
AcDbTrace
 10
897.7120400855179
 20
-171.717922900493
 30
0.0
 11
897.7120400855179
 21
-172.3845895671597
 31
0.0
 12
895.7120400855178
 22
-172.0512562338264
 32
0.0
 13
895.7120400855178
 23
-172.0512562338264
 33
0.0
  0
MTEXT
  5
46537
330
45875
100
AcDbEntity
  8
0
 62
   242
 48
0.05
100
AcDbMText
 10
900.9120400855179
 20
-170.3012562338263
 30
0.0
 40
2.5
 41
0.0
 71
     5
 72
     1
  1
\A1;10.4
  7
ROMANT
1001
ACAD
1000
MTEXTBEGIN
1070
    73
1070
     1
1070
    44
1040
1.0
1070
    74
1070
     0
1000
MTEXTEND
  0
POINT
  5
46538
330
45875
100
AcDbEntity
  8
DEFPOINTS
 62
     0
 48
0.05
100
AcDbPoint
 10
906.1120400855179
 20
-150.0070120230494
 30
0.0
  0
POINT
  5
46539
330
45875
100
AcDbEntity
  8
DEFPOINTS
 62
     0
 48
0.05
100
AcDbPoint
 10
895.7120400855178
 20
-150.0070120230494
 30
0.0
  0
POINT
  5
4653A
330
45875
100
AcDbEntity
  8
DEFPOINTS
 62
     0
 48
0.05
100
AcDbPoint
 10
895.7120400855178
 20
-172.0512562338264
 30
0.0
  0
ENDBLK
  5
45880
330
45875
100
AcDbEntity
  8
0
 48
0.05
100
AcDbBlockEnd
  0
BLOCK
  5
45899
330
4588F
100
AcDbEntity
  8
0
 48
0.05
100
AcDbBlockBegin
  2
*D2
 70
     1
 10
0.0
 20
0.0
 30
0.0
  3
*D2
  1

  0
LINE
  5
46501
330
4588F
100
AcDbEntity
  8
0
 62
   242
 48
0.05
100
AcDbLine
 10
906.1120400855179
 20
-116.674905241863
 30
0.0
 11
906.1120400855179
 21
-117.0199070676675
 31
0.0
  0
LINE
  5
46502
330
4588F
100
AcDbEntity
  8
0
 62
   242
 48
0.05
100
AcDbLine
 10
915.112040085518
 20
-116.674905241863
 30
0.0
 11
915.112040085518
 21
-117.0199070676675
 31
0.0
  0
LINE
  5
46503
330
4588F
100
AcDbEntity
  8
0
 62
   242
 48
0.05
100
AcDbLine
 10
908.112040085518
 20
-117.1999070676676
 30
0.0
 11
913.1120400855181
 21
-117.1999070676676
 31
0.0
  0
SOLID
  5
46504
330
4588F
100
AcDbEntity
  8
0
 62
   242
 48
0.05
100
AcDbTrace
 10
908.112040085518
 20
-116.8665737343342
 30
0.0
 11
908.112040085518
 21
-117.5332404010009
 31
0.0
 12
906.1120400855179
 22
-117.1999070676676
 32
0.0
 13
906.1120400855179
 23
-117.1999070676676
 33
0.0
  0
SOLID
  5
46505
330
4588F
100
AcDbEntity
  8
0
 62
   242
 48
0.05
100
AcDbTrace
 10
913.1120400855181
 20
-116.8665737343342
 30
0.0
 11
913.1120400855181
 21
-117.5332404010009
 31
0.0
 12
915.112040085518
 22
-117.1999070676676
 32
0.0
 13
915.112040085518
 23
-117.1999070676676
 33
0.0
  0
MTEXT
  5
46506
330
4588F
100
AcDbEntity
  8
0
 62
   242
 48
0.05
100
AcDbMText
 10
910.6120400855179
 20
-115.4499070676676
 30
0.0
 40
2.5
 41
0.0
 71
     5
 72
     1
  1
\A1;9
  7
ROMANT
1001
ACAD
1000
MTEXTBEGIN
1070
    73
1070
     1
1070
    44
1040
1.0
1070
    74
1070
     0
1000
MTEXTEND
  0
POINT
  5
46507
330
4588F
100
AcDbEntity
  8
DEFPOINTS
 62
     0
 48
0.05
100
AcDbPoint
 10
906.1120400855179
 20
-117.299905241863
 30
0.0
  0
POINT
  5
46508
330
4588F
100
AcDbEntity
  8
DEFPOINTS
 62
     0
 48
0.05
100
AcDbPoint
 10
915.112040085518
 20
-117.299905241863
 30
0.0
  0
POINT
  5
46509
330
4588F
100
AcDbEntity
  8
DEFPOINTS
 62
     0
 48
0.05
100
AcDbPoint
 10
915.112040085518
 20
-117.1999070676676
 30
0.0
  0
ENDBLK
  5
4589A
330
4588F
100
AcDbEntity
  8
0
 48
0.05
100
AcDbBlockEnd
  0
BLOCK
  5
458A6
330
4589C
100
AcDbEntity
  8
0
 48
0.05
100
AcDbBlockBegin
  2
*D3
 70
     1
 10
0.0
 20
0.0
 30
0.0
  3
*D3
  1

  0
LINE
  5
46514
330
4589C
100
AcDbEntity
  8
0
 62
   242
 48
0.05
100
AcDbLine
 10
907.1120400855175
 20
-132.8520710996701
 30
0.0
 11
907.1120400855175
 21
-132.0461277108806
 31
0.0
  0
LINE
  5
46515
330
4589C
100
AcDbEntity
  8
0
 62
   242
 48
0.05
100
AcDbLine
 10
915.1120400855178
 20
-132.1520710996701
 30
0.0
 11
915.1120400855178
 21
-132.0461277108806
 31
0.0
  0
LINE
  5
46516
330
4589C
100
AcDbEntity
  8
0
 62
   242
 48
0.05
100
AcDbLine
 10
909.1120400855174
 20
-132.2261277108806
 30
0.0
 11
913.1120400855179
 21
-132.2261277108806
 31
0.0
  0
LINE
  5
46517
330
4589C
100
AcDbEntity
  8
0
 62
   242
 48
0.05
100
AcDbLine
 10
915.1120400855178
 20
-132.2261277108806
 30
0.0
 11
929.1305086892474
 21
-132.2261277108806
 31
0.0
  0
SOLID
  5
46518
330
4589C
100
AcDbEntity
  8
0
 62
   242
 48
0.05
100
AcDbTrace
 10
909.1120400855174
 20
-131.8927943775473
 30
0.0
 11
909.1120400855174
 21
-132.559461044214
 31
0.0
 12
907.1120400855175
 22
-132.2261277108806
 32
0.0
 13
907.1120400855175
 23
-132.2261277108806
 33
0.0
  0
SOLID
  5
46519
330
4589C
100
AcDbEntity
  8
0
 62
   242
 48
0.05
100
AcDbTrace
 10
913.1120400855179
 20
-131.8927943775473
 30
0.0
 11
913.1120400855179
 21
-132.559461044214
 31
0.0
 12
915.1120400855178
 22
-132.2261277108806
 32
0.0
 13
915.1120400855178
 23
-132.2261277108806
 33
0.0
  0
MTEXT
  5
4651A
330
4589C
100
AcDbEntity
  8
0
 62
   242
 48
0.05
100
AcDbMText
 10
923.1212743873825
 20
-130.4761277108806
 30
0.0
 40
2.5
 41
0.0
 71
     5
 72
     1
  1
\A1;8±0.5
  7
ROMANT
1001
ACAD
1000
MTEXTBEGIN
1070
    73
1070
     1
1070
    44
1040
1.0
1070
    74
1070
     0
1000
MTEXTEND
  0
POINT
  5
4651B
330
4589C
100
AcDbEntity
  8
DEFPOINTS
 62
     0
 48
0.05
100
AcDbPoint
 10
907.1120400855175
 20
-133.4770710996701
 30
0.0
  0
POINT
  5
4651C
330
4589C
100
AcDbEntity
  8
DEFPOINTS
 62
     0
 48
0.05
100
AcDbPoint
 10
915.1120400855178
 20
-132.7770710996702
 30
0.0
  0
POINT
  5
4651D
330
4589C
100
AcDbEntity
  8
DEFPOINTS
 62
     0
 48
0.05
100
AcDbPoint
 10
915.1120400855178
 20
-132.2261277108806
 30
0.0
  0
ENDBLK
  5
458A7
330
4589C
100
AcDbEntity
  8
0
 48
0.05
100
AcDbBlockEnd
  0
BLOCK
  5
458B4
330
458A9
100
AcDbEntity
  8
0
 48
0.05
100
AcDbBlockBegin
  2
*D4
 70
     1
 10
0.0
 20
0.0
 30
0.0
  3
*D4
  1

  0
LINE
  5
465CE
330
458A9
100
AcDbEntity
  8
0
 62
   242
 48
0.05
100
AcDbLine
 10
896.4870400855177
 20
-150.2070120230494
 30
0.0
 11
890.7859223119777
 21
-150.2070120230494
 31
0.0
  0
LINE
  5
465CF
330
458A9
100
AcDbEntity
  8
0
 62
   242
 48
0.05
100
AcDbLine
 10
895.7870400855176
 20
-147.2070120230494
 30
0.0
 11
890.7859223119777
 21
-147.2070120230494
 31
0.0
  0
LINE
  5
465D0
330
458A9
100
AcDbEntity
  8
0
 62
   242
 48
0.05
100
AcDbLine
 10
890.9659223119776
 20
-152.2070120230494
 30
0.0
 11
890.9659223119776
 21
-154.2070120230494
 31
0.0
  0
LINE
  5
465D1
330
458A9
100
AcDbEntity
  8
0
 62
   242
 48
0.05
100
AcDbLine
 10
890.9659223119776
 20
-145.2070120230494
 30
0.0
 11
890.9659223119776
 21
-143.2070120230494
 31
0.0
  0
SOLID
  5
465D2
330
458A9
100
AcDbEntity
  8
0
 62
   242
 48
0.05
100
AcDbTrace
 10
890.6325889786442
 20
-152.2070120230494
 30
0.0
 11
891.299255645311
 21
-152.2070120230494
 31
0.0
 12
890.9659223119776
 22
-150.2070120230494
 32
0.0
 13
890.9659223119776
 23
-150.2070120230494
 33
0.0
  0
SOLID
  5
465D3
330
458A9
100
AcDbEntity
  8
0
 62
   242
 48
0.05
100
AcDbTrace
 10
890.6325889786442
 20
-145.2070120230494
 30
0.0
 11
891.299255645311
 21
-145.2070120230494
 31
0.0
 12
890.9659223119776
 22
-147.2070120230494
 32
0.0
 13
890.9659223119776
 23
-147.2070120230494
 33
0.0
  0
MTEXT
  5
465D4
330
458A9
100
AcDbEntity
  8
0
 62
   242
 48
0.05
100
AcDbMText
 10
889.2159223119776
 20
-148.7070120230493
 30
0.0
 40
2.5
 41
0.0
 71
     5
 72
     1
  1
\A1;3
  7
ROMANT
 11
0.0000000000000001
 21
1.0
 31
0.0
1001
ACAD
1000
MTEXTBEGIN
1070
    73
1070
     1
1070
    44
1040
1.0
1070
    74
1070
     0
1000
MTEXTEND
  0
POINT
  5
465D5
330
458A9
100
AcDbEntity
  8
DEFPOINTS
 62
     0
 48
0.05
100
AcDbPoint
 10
897.1120400855177
 20
-150.2070120230494
 30
0.0
  0
POINT
  5
465D6
330
458A9
100
AcDbEntity
  8
DEFPOINTS
 62
     0
 48
0.05
100
AcDbPoint
 10
896.4120400855177
 20
-147.2070120230494
 30
0.0
  0
POINT
  5
465D7
330
458A9
100
AcDbEntity
  8
DEFPOINTS
 62
     0
 48
0.05
100
AcDbPoint
 10
890.9659223119776
 20
-147.2070120230494
 30
0.0
  0
ENDBLK
  5
458B5
330
458A9
100
AcDbEntity
  8
0
 48
0.05
100
AcDbBlockEnd
  0
BLOCK
  5
458C1
330
458B7
100
AcDbEntity
  8
0
 48
0.05
100
AcDbBlockBegin
  2
*D5
 70
     1
 10
0.0
 20
0.0
 30
0.0
  3
*D5
  1

  0
LINE
  5
465D8
330
458B7
100
AcDbEntity
  8
0
 62
   242
 48
0.05
100
AcDbLine
 10
896.4870400855177
 20
-150.2070120230494
 30
0.0
 11
884.6572702913709
 21
-150.2070120230494
 31
0.0
  0
LINE
  5
465D9
330
458B7
100
AcDbEntity
  8
0
 62
   242
 48
0.05
100
AcDbLine
 10
905.0870400855179
 20
-130.2070120230494
 30
0.0
 11
884.6572702913709
 21
-130.2070120230494
 31
0.0
  0
LINE
  5
465DA
330
458B7
100
AcDbEntity
  8
0
 62
   242
 48
0.05
100
AcDbLine
 10
884.8372702913708
 20
-148.2070120230494
 30
0.0
 11
884.8372702913708
 21
-132.2070120230494
 31
0.0
  0
SOLID
  5
465DB
330
458B7
100
AcDbEntity
  8
0
 62
   242
 48
0.05
100
AcDbTrace
 10
884.5039369580375
 20
-148.2070120230494
 30
0.0
 11
885.1706036247042
 21
-148.2070120230494
 31
0.0
 12
884.8372702913708
 22
-150.2070120230494
 32
0.0
 13
884.8372702913708
 23
-150.2070120230494
 33
0.0
  0
SOLID
  5
465DC
330
458B7
100
AcDbEntity
  8
0
 62
   242
 48
0.05
100
AcDbTrace
 10
884.5039369580375
 20
-132.2070120230494
 30
0.0
 11
885.1706036247042
 21
-132.2070120230494
 31
0.0
 12
884.8372702913708
 22
-130.2070120230494
 32
0.0
 13
884.8372702913708
 23
-130.2070120230494
 33
0.0
  0
MTEXT
  5
465DD
330
458B7
100
AcDbEntity
  8
0
 62
   242
 48
0.05
100
AcDbMText
 10
883.0872702913708
 20
-140.2070120230493
 30
0.0
 40
2.5
 41
0.0
 71
     5
 72
     1
  1
\A1;20
  7
ROMANT
 11
0.0000000000000001
 21
1.0
 31
0.0
1001
ACAD
1000
MTEXTBEGIN
1070
    73
1070
     1
1070
    44
1040
1.0
1070
    74
1070
     0
1000
MTEXTEND
  0
POINT
  5
465DE
330
458B7
100
AcDbEntity
  8
DEFPOINTS
 62
     0
 48
0.05
100
AcDbPoint
 10
897.1120400855177
 20
-150.2070120230494
 30
0.0
  0
POINT
  5
465DF
330
458B7
100
AcDbEntity
  8
DEFPOINTS
 62
     0
 48
0.05
100
AcDbPoint
 10
905.7120400855179
 20
-130.2070120230494
 30
0.0
  0
POINT
  5
465E0
330
458B7
100
AcDbEntity
  8
DEFPOINTS
 62
     0
 48
0.05
100
AcDbPoint
 10
884.8372702913708
 20
-130.2070120230494
 30
0.0
  0
ENDBLK
  5
458C2
330
458B7
100
AcDbEntity
  8
0
 48
0.05
100
AcDbBlockEnd
  0
BLOCK
  5
458FB
330
458F1
100
AcDbEntity
  8
0
 48
0.05
100
AcDbBlockBegin
  2
*D6
 70
     1
 10
0.0
 20
0.0
 30
0.0
  3
*D6
  1

  0
LINE
  5
462D5
330
458F1
100
AcDbEntity
  8
0
 62
   242
 48
0.05
100
AcDbLine
 10
905.0870400855179
 20
-135.2070120230494
 30
0.0
 11
900.4892148882541
 21
-135.2070120230494
 31
0.0
  0
LINE
  5
462D6
330
458F1
100
AcDbEntity
  8
0
 62
   242
 48
0.05
100
AcDbLine
 10
905.0870400855179
 20
-125.2070120230494
 30
0.0
 11
900.4892148882541
 21
-125.2070120230494
 31
0.0
  0
LINE
  5
462D7
330
458F1
100
AcDbEntity
  8
0
 62
   242
 48
0.05
100
AcDbLine
 10
900.6692148882541
 20
-133.2070120230494
 30
0.0
 11
900.6692148882541
 21
-127.2070120230494
 31
0.0
  0
SOLID
  5
462D8
330
458F1
100
AcDbEntity
  8
0
 62
   242
 48
0.05
100
AcDbTrace
 10
900.3358815549207
 20
-133.2070120230494
 30
0.0
 11
901.0025482215874
 21
-133.2070120230494
 31
0.0
 12
900.6692148882541
 22
-135.2070120230494
 32
0.0
 13
900.6692148882541
 23
-135.2070120230494
 33
0.0
  0
SOLID
  5
462D9
330
458F1
100
AcDbEntity
  8
0
 62
   242
 48
0.05
100
AcDbTrace
 10
900.3358815549207
 20
-127.2070120230494
 30
0.0
 11
901.0025482215874
 21
-127.2070120230494
 31
0.0
 12
900.6692148882541
 22
-125.2070120230494
 32
0.0
 13
900.6692148882541
 23
-125.2070120230494
 33
0.0
  0
MTEXT
  5
462DA
330
458F1
100
AcDbEntity
  8
0
 62
   242
 48
0.05
100
AcDbMText
 10
898.9192148882541
 20
-130.2070120230493
 30
0.0
 40
2.5
 41
0.0
 71
     5
 72
     1
  1
\A1;10
  7
ROMANT
 11
0.0000000000000001
 21
1.0
 31
0.0
1001
ACAD
1000
MTEXTBEGIN
1070
    73
1070
     1
1070
    44
1040
1.0
1070
    74
1070
     0
1000
MTEXTEND
  0
POINT
  5
462DB
330
458F1
100
AcDbEntity
  8
DEFPOINTS
 62
     0
 48
0.05
100
AcDbPoint
 10
905.7120400855179
 20
-135.2070120230494
 30
0.0
  0
POINT
  5
462DC
330
458F1
100
AcDbEntity
  8
DEFPOINTS
 62
     0
 48
0.05
100
AcDbPoint
 10
905.7120400855179
 20
-125.2070120230494
 30
0.0
  0
POINT
  5
462DD
330
458F1
100
AcDbEntity
  8
DEFPOINTS
 62
     0
 48
0.05
100
AcDbPoint
 10
900.6692148882541
 20
-125.2070120230494
 30
0.0
  0
ENDBLK
  5
458FC
330
458F1
100
AcDbEntity
  8
0
 48
0.05
100
AcDbBlockEnd
  0
BLOCK
  5
45908
330
458FE
100
AcDbEntity
  8
0
 48
0.05
100
AcDbBlockBegin
  2
*D7
 70
     1
 10
0.0
 20
0.0
 30
0.0
  3
*D7
  1

  0
LINE
  5
462CC
330
458FE
100
AcDbEntity
  8
0
 62
   242
 48
0.05
100
AcDbLine
 10
904.0870400855178
 20
-136.2070120230495
 30
0.0
 11
894.1803885387871
 21
-136.2070120230495
 31
0.0
  0
LINE
  5
462CD
330
458FE
100
AcDbEntity
  8
0
 62
   242
 48
0.05
100
AcDbLine
 10
904.087040085518
 20
-124.2070120230497
 30
0.0
 11
894.1803885387871
 21
-124.2070120230497
 31
0.0
  0
LINE
  5
462CE
330
458FE
100
AcDbEntity
  8
0
 62
   242
 48
0.05
100
AcDbLine
 10
894.360388538787
 20
-134.2070120230495
 30
0.0
 11
894.360388538787
 21
-126.2070120230497
 31
0.0
  0
SOLID
  5
462CF
330
458FE
100
AcDbEntity
  8
0
 62
   242
 48
0.05
100
AcDbTrace
 10
894.0270552054537
 20
-134.2070120230495
 30
0.0
 11
894.6937218721204
 21
-134.2070120230495
 31
0.0
 12
894.360388538787
 22
-136.2070120230495
 32
0.0
 13
894.360388538787
 23
-136.2070120230495
 33
0.0
  0
SOLID
  5
462D0
330
458FE
100
AcDbEntity
  8
0
 62
   242
 48
0.05
100
AcDbTrace
 10
894.0270552054537
 20
-126.2070120230497
 30
0.0
 11
894.6937218721204
 21
-126.2070120230497
 31
0.0
 12
894.360388538787
 22
-124.2070120230497
 32
0.0
 13
894.360388538787
 23
-124.2070120230497
 33
0.0
  0
MTEXT
  5
462D1
330
458FE
100
AcDbEntity
  8
0
 62
   242
 48
0.05
100
AcDbMText
 10
892.610388538787
 20
-130.2070120230494
 30
0.0
 40
2.5
 41
0.0
 71
     5
 72
     1
  1
\A1;12
  7
ROMANT
 11
0.0000000000000001
 21
1.0
 31
0.0
1001
ACAD
1000
MTEXTBEGIN
1070
    73
1070
     1
1070
    44
1040
1.0
1070
    74
1070
     0
1000
MTEXTEND
  0
POINT
  5
462D2
330
458FE
100
AcDbEntity
  8
DEFPOINTS
 62
     0
 48
0.05
100
AcDbPoint
 10
904.7120400855177
 20
-136.2070120230495
 30
0.0
  0
POINT
  5
462D3
330
458FE
100
AcDbEntity
  8
DEFPOINTS
 62
     0
 48
0.05
100
AcDbPoint
 10
904.7120400855179
 20
-124.2070120230497
 30
0.0
  0
POINT
  5
462D4
330
458FE
100
AcDbEntity
  8
DEFPOINTS
 62
     0
 48
0.05
100
AcDbPoint
 10
894.360388538787
 20
-124.2070120230497
 30
0.0
  0
ENDBLK
  5
45909
330
458FE
100
AcDbEntity
  8
0
 48
0.05
100
AcDbBlockEnd
  0
BLOCK
  5
45916
330
4590B
100
AcDbEntity
  8
0
 48
0.05
100
AcDbBlockBegin
  2
*D8
 70
     1
 10
0.0
 20
0.0
 30
0.0
  3
*D8
  1

  0
LINE
  5
465F6
330
4590B
100
AcDbEntity
  8
0
 62
   242
 48
0.05
100
AcDbLine
 10
897.1120400855177
 20
-148.9820120230494
 30
0.0
 11
897.1120400855177
 21
-164.7070543374258
 31
0.0
  0
LINE
  5
465F7
330
4590B
100
AcDbEntity
  8
0
 62
   242
 48
0.05
100
AcDbLine
 10
895.7120400855178
 20
-148.9820120230494
 30
0.0
 11
895.7120400855178
 21
-164.7070543374258
 31
0.0
  0
LINE
  5
465F8
330
4590B
100
AcDbEntity
  8
0
 62
   242
 48
0.05
100
AcDbLine
 10
899.1120400855177
 20
-164.5270543374258
 30
0.0
 11
901.1120400855176
 21
-164.5270543374258
 31
0.0
  0
LINE
  5
465F9
330
4590B
100
AcDbEntity
  8
0
 62
   242
 48
0.05
100
AcDbLine
 10
893.7120400855178
 20
-164.5270543374258
 30
0.0
 11
885.2825525671146
 21
-164.5270543374258
 31
0.0
  0
SOLID
  5
465FA
330
4590B
100
AcDbEntity
  8
0
 62
   242
 48
0.05
100
AcDbTrace
 10
899.1120400855177
 20
-164.1937210040925
 30
0.0
 11
899.1120400855177
 21
-164.8603876707591
 31
0.0
 12
897.1120400855177
 22
-164.5270543374258
 32
0.0
 13
897.1120400855177
 23
-164.5270543374258
 33
0.0
  0
SOLID
  5
465FB
330
4590B
100
AcDbEntity
  8
0
 62
   242
 48
0.05
100
AcDbTrace
 10
893.7120400855178
 20
-164.1937210040925
 30
0.0
 11
893.7120400855178
 21
-164.8603876707591
 31
0.0
 12
895.7120400855178
 22
-164.5270543374258
 32
0.0
 13
895.7120400855178
 23
-164.5270543374258
 33
0.0
  0
MTEXT
  5
465FC
330
4590B
100
AcDbEntity
  8
0
 62
   242
 48
0.05
100
AcDbMText
 10
888.4972963263162
 20
-162.7770543374258
 30
0.0
 40
2.5
 41
0.0
 71
     5
 72
     1
  1
\A1;1.4
  7
ROMANT
1001
ACAD
1000
MTEXTBEGIN
1070
    73
1070
     1
1070
    44
1040
1.0
1070
    74
1070
     0
1000
MTEXTEND
  0
POINT
  5
465FD
330
4590B
100
AcDbEntity
  8
DEFPOINTS
 62
     0
 48
0.05
100
AcDbPoint
 10
897.1120400855177
 20
-148.3570120230494
 30
0.0
  0
POINT
  5
465FE
330
4590B
100
AcDbEntity
  8
DEFPOINTS
 62
     0
 48
0.05
100
AcDbPoint
 10
895.7120400855178
 20
-148.3570120230494
 30
0.0
  0
POINT
  5
465FF
330
4590B
100
AcDbEntity
  8
DEFPOINTS
 62
     0
 48
0.05
100
AcDbPoint
 10
895.7120400855178
 20
-164.5270543374258
 30
0.0
  0
ENDBLK
  5
45917
330
4590B
100
AcDbEntity
  8
0
 48
0.05
100
AcDbBlockEnd
  0
BLOCK
  5
4595A
330
4594F
100
AcDbEntity
  8
0
 48
0.05
100
AcDbBlockBegin
  2
*D9
 70
     1
 10
0.0
 20
0.0
 30
0.0
  3
*D9
  1

  0
LINE
  5
4647E
330
4594F
100
AcDbEntity
  8
0
 62
   242
 48
0.05
100
AcDbLine
 10
939.1120400855179
 20
-150.6320120230494
 30
0.0
 11
939.1120400855179
 21
-159.2935461233435
 31
0.0
  0
LINE
  5
4647F
330
4594F
100
AcDbEntity
  8
0
 62
   242
 48
0.05
100
AcDbLine
 10
934.1120400855178
 20
-149.4320120230494
 30
0.0
 11
934.1120400855178
 21
-159.2935461233435
 31
0.0
  0
LINE
  5
46480
330
4594F
100
AcDbEntity
  8
0
 62
   242
 48
0.05
100
AcDbLine
 10
941.1120400855178
 20
-159.1135461233435
 30
0.0
 11
943.1120400855178
 21
-159.1135461233435
 31
0.0
  0
LINE
  5
46481
330
4594F
100
AcDbEntity
  8
0
 62
   242
 48
0.05
100
AcDbLine
 10
932.1120400855178
 20
-159.1135461233435
 30
0.0
 11
930.1120400855179
 21
-159.1135461233435
 31
0.0
  0
SOLID
  5
46482
330
4594F
100
AcDbEntity
  8
0
 62
   242
 48
0.05
100
AcDbTrace
 10
941.1120400855178
 20
-158.7802127900102
 30
0.0
 11
941.1120400855178
 21
-159.4468794566768
 31
0.0
 12
939.1120400855179
 22
-159.1135461233435
 32
0.0
 13
939.1120400855179
 23
-159.1135461233435
 33
0.0
  0
SOLID
  5
46483
330
4594F
100
AcDbEntity
  8
0
 62
   242
 48
0.05
100
AcDbTrace
 10
932.1120400855178
 20
-158.7802127900102
 30
0.0
 11
932.1120400855178
 21
-159.4468794566768
 31
0.0
 12
934.1120400855178
 22
-159.1135461233435
 32
0.0
 13
934.1120400855178
 23
-159.1135461233435
 33
0.0
  0
MTEXT
  5
46484
330
4594F
100
AcDbEntity
  8
0
 62
   242
 48
0.05
100
AcDbMText
 10
936.6120400855178
 20
-157.3635461233435
 30
0.0
 40
2.5
 41
0.0
 71
     5
 72
     1
  1
\A1;5
  7
ROMANT
1001
ACAD
1000
MTEXTBEGIN
1070
    73
1070
     1
1070
    44
1040
1.0
1070
    74
1070
     0
1000
MTEXTEND
  0
POINT
  5
46485
330
4594F
100
AcDbEntity
  8
DEFPOINTS
 62
     0
 48
0.05
100
AcDbPoint
 10
939.1120400855179
 20
-150.0070120230494
 30
0.0
  0
POINT
  5
46486
330
4594F
100
AcDbEntity
  8
DEFPOINTS
 62
     0
 48
0.05
100
AcDbPoint
 10
934.1120400855178
 20
-148.8070120230494
 30
0.0
  0
POINT
  5
46487
330
4594F
100
AcDbEntity
  8
DEFPOINTS
 62
     0
 48
0.05
100
AcDbPoint
 10
934.1120400855178
 20
-159.1135461233435
 30
0.0
  0
ENDBLK
  5
4595B
330
4594F
100
AcDbEntity
  8
0
 48
0.05
100
AcDbBlockEnd
  0
BLOCK
  5
45968
330
4595D
100
AcDbEntity
  8
0
 48
0.05
100
AcDbBlockBegin
  2
*D10
 70
     1
 10
0.0
 20
0.0
 30
0.0
  3
*D10
  1

  0
LINE
  5
46600
330
4595D
100
AcDbEntity
  8
0
 62
   242
 48
0.05
100
AcDbLine
 10
939.5370400855178
 20
-148.3070120230494
 30
0.0
 11
950.3488924279308
 21
-148.3070120230494
 31
0.0
  0
LINE
  5
46601
330
4595D
100
AcDbEntity
  8
0
 62
   242
 48
0.05
100
AcDbLine
 10
938.7370400855179
 20
-150.2070120230494
 30
0.0
 11
950.3488924279308
 21
-150.2070120230494
 31
0.0
  0
LINE
  5
46602
330
4595D
100
AcDbEntity
  8
0
 62
   242
 48
0.05
100
AcDbLine
 10
950.1688924279308
 20
-146.3070120230494
 30
0.0
 11
950.1688924279308
 21
-144.3070120230494
 31
0.0
  0
LINE
  5
46603
330
4595D
100
AcDbEntity
  8
0
 62
   242
 48
0.05
100
AcDbLine
 10
950.1688924279308
 20
-152.2070120230494
 30
0.0
 11
950.1688924279308
 21
-160.8045403428669
 31
0.0
  0
SOLID
  5
46604
330
4595D
100
AcDbEntity
  8
0
 62
   242
 48
0.05
100
AcDbTrace
 10
949.8355590945974
 20
-146.3070120230494
 30
0.0
 11
950.5022257612642
 21
-146.3070120230494
 31
0.0
 12
950.1688924279308
 22
-148.3070120230494
 32
0.0
 13
950.1688924279308
 23
-148.3070120230494
 33
0.0
  0
SOLID
  5
46605
330
4595D
100
AcDbEntity
  8
0
 62
   242
 48
0.05
100
AcDbTrace
 10
949.8355590945974
 20
-152.2070120230494
 30
0.0
 11
950.5022257612642
 21
-152.2070120230494
 31
0.0
 12
950.1688924279308
 22
-150.2070120230494
 32
0.0
 13
950.1688924279308
 23
-150.2070120230494
 33
0.0
  0
MTEXT
  5
46606
330
4595D
100
AcDbEntity
  8
0
 62
   242
 48
0.05
100
AcDbMText
 10
948.4188924279308
 20
-157.505776182958
 30
0.0
 40
2.5
 41
0.0
 71
     5
 72
     1
  1
\A1;1.9
  7
ROMANT
 11
0.0000000000000001
 21
1.0
 31
0.0
1001
ACAD
1000
MTEXTBEGIN
1070
    73
1070
     1
1070
    44
1040
1.0
1070
    74
1070
     0
1000
MTEXTEND
  0
POINT
  5
46607
330
4595D
100
AcDbEntity
  8
DEFPOINTS
 62
     0
 48
0.05
100
AcDbPoint
 10
938.9120400855178
 20
-148.3070120230494
 30
0.0
  0
POINT
  5
46608
330
4595D
100
AcDbEntity
  8
DEFPOINTS
 62
     0
 48
0.05
100
AcDbPoint
 10
938.1120400855179
 20
-150.2070120230494
 30
0.0
  0
POINT
  5
46609
330
4595D
100
AcDbEntity
  8
DEFPOINTS
 62
     0
 48
0.05
100
AcDbPoint
 10
950.1688924279308
 20
-150.2070120230494
 30
0.0
  0
ENDBLK
  5
45969
330
4595D
100
AcDbEntity
  8
0
 48
0.05
100
AcDbBlockEnd
  0
BLOCK
  5
45976
330
4596B
100
AcDbEntity
  8
0
 48
0.05
100
AcDbBlockBegin
  2
*D11
 70
     1
 10
0.0
 20
0.0
 30
0.0
  3
*D11
  1

  0
LINE
  5
4651F
330
4596B
100
AcDbEntity
  8
0
 62
   242
 48
0.05
100
AcDbLine
 10
904.7120400855177
 20
-148.4320120230494
 30
0.0
 11
904.7120400855177
 21
-152.8129864465314
 31
0.0
  0
LINE
  5
46520
330
4596B
100
AcDbEntity
  8
0
 62
   242
 48
0.05
100
AcDbLine
 10
906.1120400855179
 20
-150.6320120230494
 30
0.0
 11
906.1120400855179
 21
-152.8129864465314
 31
0.0
  0
LINE
  5
46521
330
4596B
100
AcDbEntity
  8
0
 62
   242
 48
0.05
100
AcDbLine
 10
902.7120400855178
 20
-152.6329864465314
 30
0.0
 11
900.7120400855177
 21
-152.6329864465314
 31
0.0
  0
LINE
  5
46522
330
4596B
100
AcDbEntity
  8
0
 62
   242
 48
0.05
100
AcDbLine
 10
908.1120400855178
 20
-152.6329864465314
 30
0.0
 11
916.541527603921
 21
-152.6329864465314
 31
0.0
  0
SOLID
  5
46523
330
4596B
100
AcDbEntity
  8
0
 62
   242
 48
0.05
100
AcDbTrace
 10
902.7120400855178
 20
-152.299653113198
 30
0.0
 11
902.7120400855178
 21
-152.9663197798647
 31
0.0
 12
904.7120400855177
 22
-152.6329864465314
 32
0.0
 13
904.7120400855177
 23
-152.6329864465314
 33
0.0
  0
SOLID
  5
46524
330
4596B
100
AcDbEntity
  8
0
 62
   242
 48
0.05
100
AcDbTrace
 10
908.1120400855178
 20
-152.299653113198
 30
0.0
 11
908.1120400855178
 21
-152.9663197798647
 31
0.0
 12
906.1120400855179
 22
-152.6329864465314
 32
0.0
 13
906.1120400855179
 23
-152.6329864465314
 33
0.0
  0
MTEXT
  5
46525
330
4596B
100
AcDbEntity
  8
0
 62
   242
 48
0.05
100
AcDbMText
 10
913.3267838447194
 20
-150.8829864465313
 30
0.0
 40
2.5
 41
0.0
 71
     5
 72
     1
  1
\A1;1.4
  7
ROMANT
1001
ACAD
1000
MTEXTBEGIN
1070
    73
1070
     1
1070
    44
1040
1.0
1070
    74
1070
     0
1000
MTEXTEND
  0
POINT
  5
46526
330
4596B
100
AcDbEntity
  8
DEFPOINTS
 62
     0
 48
0.05
100
AcDbPoint
 10
904.7120400855177
 20
-147.8070120230494
 30
0.0
  0
POINT
  5
46527
330
4596B
100
AcDbEntity
  8
DEFPOINTS
 62
     0
 48
0.05
100
AcDbPoint
 10
906.1120400855179
 20
-150.0070120230494
 30
0.0
  0
POINT
  5
46528
330
4596B
100
AcDbEntity
  8
DEFPOINTS
 62
     0
 48
0.05
100
AcDbPoint
 10
906.1120400855179
 20
-152.6329864465314
 30
0.0
  0
ENDBLK
  5
45977
330
4596B
100
AcDbEntity
  8
0
 48
0.05
100
AcDbBlockEnd
  0
BLOCK
  5
4598E
330
45983
100
AcDbEntity
  8
0
 48
0.05
100
AcDbBlockBegin
  2
*D12
 70
     1
 10
0.0
 20
0.0
 30
0.0
  3
*D12
  1

  0
LINE
  5
4653B
330
45983
100
AcDbEntity
  8
0
 62
   242
 48
0.05
100
AcDbLine
 10
915.1120400855178
 20
-123.8391188042362
 30
0.0
 11
915.1120400855178
 21
-123.3991795653415
 31
0.0
  0
LINE
  5
4653C
330
45983
100
AcDbEntity
  8
0
 62
   242
 48
0.05
100
AcDbLine
 10
916.5120400855178
 20
-122.5941795653415
 30
0.0
 11
916.5120400855178
 21
-123.0391795653415
 31
0.0
  0
LINE
  5
4653D
330
45983
100
AcDbEntity
  8
0
 62
   242
 48
0.05
100
AcDbLine
 10
913.1120400855179
 20
-123.2191795653415
 30
0.0
 11
911.1120400855179
 21
-123.2191795653415
 31
0.0
  0
LINE
  5
4653E
330
45983
100
AcDbEntity
  8
0
 62
   242
 48
0.05
100
AcDbLine
 10
918.5120400855177
 20
-123.2191795653415
 30
0.0
 11
926.9415276039209
 21
-123.2191795653415
 31
0.0
  0
SOLID
  5
4653F
330
45983
100
AcDbEntity
  8
0
 62
   242
 48
0.05
100
AcDbTrace
 10
913.1120400855179
 20
-122.8858462320082
 30
0.0
 11
913.1120400855179
 21
-123.5525128986748
 31
0.0
 12
915.1120400855178
 22
-123.2191795653415
 32
0.0
 13
915.1120400855178
 23
-123.2191795653415
 33
0.0
  0
SOLID
  5
46540
330
45983
100
AcDbEntity
  8
0
 62
   242
 48
0.05
100
AcDbTrace
 10
918.5120400855177
 20
-122.8858462320082
 30
0.0
 11
918.5120400855177
 21
-123.5525128986748
 31
0.0
 12
916.5120400855178
 22
-123.2191795653415
 32
0.0
 13
916.5120400855178
 23
-123.2191795653415
 33
0.0
  0
MTEXT
  5
46541
330
45983
100
AcDbEntity
  8
0
 62
   242
 48
0.05
100
AcDbMText
 10
923.7267838447193
 20
-121.4691795653415
 30
0.0
 40
2.5
 41
0.0
 71
     5
 72
     1
  1
\A1;1.4
  7
ROMANT
1001
ACAD
1000
MTEXTBEGIN
1070
    73
1070
     1
1070
    44
1040
1.0
1070
    74
1070
     0
1000
MTEXTEND
  0
POINT
  5
46542
330
45983
100
AcDbEntity
  8
DEFPOINTS
 62
     0
 48
0.05
100
AcDbPoint
 10
915.1120400855178
 20
-123.2141188042362
 30
0.0
  0
POINT
  5
46543
330
45983
100
AcDbEntity
  8
DEFPOINTS
 62
     0
 48
0.05
100
AcDbPoint
 10
916.5120400855178
 20
-123.2191795653415
 30
0.0
  0
POINT
  5
46544
330
45983
100
AcDbEntity
  8
DEFPOINTS
 62
     0
 48
0.05
100
AcDbPoint
 10
916.5120400855178
 20
-123.2191795653415
 30
0.0
  0
ENDBLK
  5
4598F
330
45983
100
AcDbEntity
  8
0
 48
0.05
100
AcDbBlockEnd
  0
BLOCK
  5
459AA
330
4599F
100
AcDbEntity
  8
0
 48
0.05
100
AcDbBlockBegin
  2
*D13
 70
     1
 10
0.0
 20
0.0
 30
0.0
  3
*D13
  1

  0
LINE
  5
46286
330
4599F
100
AcDbEntity
  8
0
 62
   242
 48
0.05
100
AcDbLine
 10
906.1120400855179
 20
-85.48201202304946
 30
0.0
 11
906.1120400855179
 21
-85.92701202304946
 31
0.0
  0
LINE
  5
46287
330
4599F
100
AcDbEntity
  8
0
 62
   242
 48
0.05
100
AcDbLine
 10
904.7120400855177
 20
-85.48201202304946
 30
0.0
 11
904.7120400855177
 21
-85.92701202304946
 31
0.0
  0
LINE
  5
46288
330
4599F
100
AcDbEntity
  8
0
 62
   242
 48
0.05
100
AcDbLine
 10
908.1120400855178
 20
-86.10701202304946
 30
0.0
 11
910.1120400855178
 21
-86.10701202304946
 31
0.0
  0
LINE
  5
46289
330
4599F
100
AcDbEntity
  8
0
 62
   242
 48
0.05
100
AcDbLine
 10
902.7120400855178
 20
-86.10701202304946
 30
0.0
 11
894.2825525671146
 21
-86.10701202304946
 31
0.0
  0
SOLID
  5
4628A
330
4599F
100
AcDbEntity
  8
0
 62
   242
 48
0.05
100
AcDbTrace
 10
908.1120400855178
 20
-85.77367868971613
 30
0.0
 11
908.1120400855178
 21
-86.44034535638279
 31
0.0
 12
906.1120400855179
 22
-86.10701202304946
 32
0.0
 13
906.1120400855179
 23
-86.10701202304946
 33
0.0
  0
SOLID
  5
4628B
330
4599F
100
AcDbEntity
  8
0
 62
   242
 48
0.05
100
AcDbTrace
 10
902.7120400855178
 20
-85.77367868971613
 30
0.0
 11
902.7120400855178
 21
-86.44034535638279
 31
0.0
 12
904.7120400855177
 22
-86.10701202304946
 32
0.0
 13
904.7120400855177
 23
-86.10701202304946
 33
0.0
  0
MTEXT
  5
4628C
330
4599F
100
AcDbEntity
  8
0
 62
   242
 48
0.05
100
AcDbMText
 10
897.4972963263162
 20
-84.35701202304946
 30
0.0
 40
2.5
 41
0.0
 71
     5
 72
     1
  1
\A1;1.4
  7
ROMANT
1001
ACAD
1000
MTEXTBEGIN
1070
    73
1070
     1
1070
    44
1040
1.0
1070
    74
1070
     0
1000
MTEXTEND
  0
POINT
  5
4628D
330
4599F
100
AcDbEntity
  8
DEFPOINTS
 62
     0
 48
0.05
100
AcDbPoint
 10
906.1120400855179
 20
-86.10701202304946
 30
0.0
  0
POINT
  5
4628E
330
4599F
100
AcDbEntity
  8
DEFPOINTS
 62
     0
 48
0.05
100
AcDbPoint
 10
904.7120400855177
 20
-86.10701202304946
 30
0.0
  0
POINT
  5
4628F
330
4599F
100
AcDbEntity
  8
DEFPOINTS
 62
     0
 48
0.05
100
AcDbPoint
 10
904.7120400855177
 20
-86.10701202304946
 30
0.0
  0
ENDBLK
  5
459AB
330
4599F
100
AcDbEntity
  8
0
 48
0.05
100
AcDbBlockEnd
  0
BLOCK
  5
459B8
330
459AD
100
AcDbEntity
  8
0
 48
0.05
100
AcDbBlockBegin
  2
*D14
 70
     1
 10
0.0
 20
0.0
 30
0.0
  3
*D14
  1

  0
LINE
  5
46456
330
459AD
100
AcDbEntity
  8
0
 62
   242
 48
0.05
100
AcDbLine
 10
930.212040085518
 20
-134.7820120230494
 30
0.0
 11
930.212040085518
 21
-124.9814989448481
 31
0.0
  0
LINE
  5
46457
330
459AD
100
AcDbEntity
  8
0
 62
   242
 48
0.05
100
AcDbLine
 10
931.6120400855178
 20
-134.7820120230494
 30
0.0
 11
931.6120400855178
 21
-124.9814989448481
 31
0.0
  0
LINE
  5
46458
330
459AD
100
AcDbEntity
  8
0
 62
   242
 48
0.05
100
AcDbLine
 10
928.2120400855179
 20
-125.1614989448481
 30
0.0
 11
926.2120400855179
 21
-125.1614989448481
 31
0.0
  0
LINE
  5
46459
330
459AD
100
AcDbEntity
  8
0
 62
   242
 48
0.05
100
AcDbLine
 10
933.6120400855177
 20
-125.1614989448481
 30
0.0
 11
942.0415276039209
 21
-125.1614989448481
 31
0.0
  0
SOLID
  5
4645A
330
459AD
100
AcDbEntity
  8
0
 62
   242
 48
0.05
100
AcDbTrace
 10
928.2120400855179
 20
-124.8281656115148
 30
0.0
 11
928.2120400855179
 21
-125.4948322781815
 31
0.0
 12
930.212040085518
 22
-125.1614989448481
 32
0.0
 13
930.212040085518
 23
-125.1614989448481
 33
0.0
  0
SOLID
  5
4645B
330
459AD
100
AcDbEntity
  8
0
 62
   242
 48
0.05
100
AcDbTrace
 10
933.6120400855177
 20
-124.8281656115148
 30
0.0
 11
933.6120400855177
 21
-125.4948322781815
 31
0.0
 12
931.6120400855178
 22
-125.1614989448481
 32
0.0
 13
931.6120400855178
 23
-125.1614989448481
 33
0.0
  0
MTEXT
  5
4645C
330
459AD
100
AcDbEntity
  8
0
 62
   242
 48
0.05
100
AcDbMText
 10
938.8267838447193
 20
-123.4114989448481
 30
0.0
 40
2.5
 41
0.0
 71
     5
 72
     1
  1
\A1;1.4
  7
ROMANT
1001
ACAD
1000
MTEXTBEGIN
1070
    73
1070
     1
1070
    44
1040
1.0
1070
    74
1070
     0
1000
MTEXTEND
  0
POINT
  5
4645D
330
459AD
100
AcDbEntity
  8
DEFPOINTS
 62
     0
 48
0.05
100
AcDbPoint
 10
930.212040085518
 20
-135.4070120230494
 30
0.0
  0
POINT
  5
4645E
330
459AD
100
AcDbEntity
  8
DEFPOINTS
 62
     0
 48
0.05
100
AcDbPoint
 10
931.6120400855178
 20
-135.4070120230494
 30
0.0
  0
POINT
  5
4645F
330
459AD
100
AcDbEntity
  8
DEFPOINTS
 62
     0
 48
0.05
100
AcDbPoint
 10
931.6120400855178
 20
-125.1614989448481
 30
0.0
  0
ENDBLK
  5
459B9
330
459AD
100
AcDbEntity
  8
0
 48
0.05
100
AcDbBlockEnd
  0
BLOCK
  5
459C5
330
459BB
100
AcDbEntity
  8
0
 48
0.05
100
AcDbBlockBegin
  2
*D15
 70
     1
 10
0.0
 20
0.0
 30
0.0
  3
*D15
  1

  0
LINE
  5
4660A
330
459BB
100
AcDbEntity
  8
0
 62
   242
 48
0.05
100
AcDbLine
 10
938.7370400855179
 20
-150.2070120230494
 30
0.0
 11
961.4945548552334
 21
-150.2070120230495
 31
0.0
  0
LINE
  5
4660B
330
459BB
100
AcDbEntity
  8
0
 62
   242
 48
0.05
100
AcDbLine
 10
931.5370400855178
 20
-135.2070120230494
 30
0.0
 11
961.4945548552334
 21
-135.2070120230495
 31
0.0
  0
LINE
  5
4660C
330
459BB
100
AcDbEntity
  8
0
 62
   242
 48
0.05
100
AcDbLine
 10
961.3145548552335
 20
-148.2070120230495
 30
0.0
 11
961.3145548552335
 21
-137.2070120230495
 31
0.0
  0
SOLID
  5
4660D
330
459BB
100
AcDbEntity
  8
0
 62
   242
 48
0.05
100
AcDbTrace
 10
960.9812215219001
 20
-148.2070120230495
 30
0.0
 11
961.6478881885669
 21
-148.2070120230495
 31
0.0
 12
961.3145548552335
 22
-150.2070120230495
 32
0.0
 13
961.3145548552335
 23
-150.2070120230495
 33
0.0
  0
SOLID
  5
4660E
330
459BB
100
AcDbEntity
  8
0
 62
   242
 48
0.05
100
AcDbTrace
 10
960.9812215219001
 20
-137.2070120230495
 30
0.0
 11
961.6478881885669
 21
-137.2070120230495
 31
0.0
 12
961.3145548552335
 22
-135.2070120230495
 32
0.0
 13
961.3145548552335
 23
-135.2070120230495
 33
0.0
  0
MTEXT
  5
4660F
330
459BB
100
AcDbEntity
  8
0
 62
   242
 48
0.05
100
AcDbMText
 10
959.5645548552335
 20
-142.7070120230493
 30
0.0
 40
2.5
 41
0.0
 71
     5
 72
     1
  1
\A1;15
  7
ROMANT
 11
0.0000000000000001
 21
1.0
 31
0.0
1001
ACAD
1000
MTEXTBEGIN
1070
    73
1070
     1
1070
    44
1040
1.0
1070
    74
1070
     0
1000
MTEXTEND
  0
POINT
  5
46610
330
459BB
100
AcDbEntity
  8
DEFPOINTS
 62
     0
 48
0.05
100
AcDbPoint
 10
938.1120400855179
 20
-150.2070120230494
 30
0.0
  0
POINT
  5
46611
330
459BB
100
AcDbEntity
  8
DEFPOINTS
 62
     0
 48
0.05
100
AcDbPoint
 10
930.9120400855178
 20
-135.2070120230494
 30
0.0
  0
POINT
  5
46612
330
459BB
100
AcDbEntity
  8
DEFPOINTS
 62
     0
 48
0.05
100
AcDbPoint
 10
961.3145548552335
 20
-135.2070120230495
 30
0.0
  0
ENDBLK
  5
459C6
330
459BB
100
AcDbEntity
  8
0
 48
0.05
100
AcDbBlockEnd
  0
BLOCK
  5
45A27
330
45A1D
100
AcDbEntity
  8
0
 48
0.05
100
AcDbBlockBegin
  2
*D16
 70
     1
 10
0.0
 20
0.0
 30
0.0
  3
*D16
  1

  0
LINE
  5
46613
330
45A1D
100
AcDbEntity
  8
0
 62
   242
 48
0.05
100
AcDbLine
 10
934.6649187894753
 20
-140.7070120230494
 30
0.0
 11
955.7308999500049
 21
-140.7070120230494
 31
0.0
  0
LINE
  5
46614
330
45A1D
100
AcDbEntity
  8
0
 62
   242
 48
0.05
100
AcDbLine
 10
938.7370400855179
 20
-150.2070120230494
 30
0.0
 11
955.7308999500049
 21
-150.2070120230494
 31
0.0
  0
LINE
  5
46615
330
45A1D
100
AcDbEntity
  8
0
 62
   242
 48
0.05
100
AcDbLine
 10
955.550899950005
 20
-142.7070120230494
 30
0.0
 11
955.550899950005
 21
-148.2070120230494
 31
0.0
  0
SOLID
  5
46616
330
45A1D
100
AcDbEntity
  8
0
 62
   242
 48
0.05
100
AcDbTrace
 10
955.2175666166716
 20
-142.7070120230494
 30
0.0
 11
955.8842332833384
 21
-142.7070120230494
 31
0.0
 12
955.550899950005
 22
-140.7070120230494
 32
0.0
 13
955.550899950005
 23
-140.7070120230494
 33
0.0
  0
SOLID
  5
46617
330
45A1D
100
AcDbEntity
  8
0
 62
   242
 48
0.05
100
AcDbTrace
 10
955.2175666166716
 20
-148.2070120230494
 30
0.0
 11
955.8842332833384
 21
-148.2070120230494
 31
0.0
 12
955.550899950005
 22
-150.2070120230494
 32
0.0
 13
955.550899950005
 23
-150.2070120230494
 33
0.0
  0
MTEXT
  5
46618
330
45A1D
100
AcDbEntity
  8
0
 62
   242
 48
0.05
100
AcDbMText
 10
953.800899950005
 20
-145.4570120230493
 30
0.0
 40
2.5
 41
0.0
 71
     5
 72
     1
  1
\A1;9.5
  7
ROMANT
 11
0.0000000000000001
 21
1.0
 31
0.0
1001
ACAD
1000
MTEXTBEGIN
1070
    73
1070
     1
1070
    44
1040
1.0
1070
    74
1070
     0
1000
MTEXTEND
  0
POINT
  5
46619
330
45A1D
100
AcDbEntity
  8
DEFPOINTS
 62
     0
 48
0.05
100
AcDbPoint
 10
934.0399187894751
 20
-140.7070120230494
 30
0.0
  0
POINT
  5
4661A
330
45A1D
100
AcDbEntity
  8
DEFPOINTS
 62
     0
 48
0.05
100
AcDbPoint
 10
938.1120400855179
 20
-150.2070120230494
 30
0.0
  0
POINT
  5
4661B
330
45A1D
100
AcDbEntity
  8
DEFPOINTS
 62
     0
 48
0.05
100
AcDbPoint
 10
955.550899950005
 20
-150.2070120230494
 30
0.0
  0
ENDBLK
  5
45A28
330
45A1D
100
AcDbEntity
  8
0
 48
0.05
100
AcDbBlockEnd
  0
BLOCK
  5
45A40
330
45A33
100
AcDbEntity
  8
0
 48
0.05
100
AcDbBlockBegin
  2
*D17
 70
     1
 10
0.0
 20
0.0
 30
0.0
  3
*D17
  1

  0
LINE
  5
4661C
330
45A33
100
AcDbEntity
  8
0
 62
   242
 48
0.05
100
AcDbLine
 10
938.7370400855182
 20
-150.2070120230495
 30
0.0
 11
967.914854798777
 21
-150.2070120230497
 31
0.0
  0
LINE
  5
4661D
330
45A33
100
AcDbEntity
  8
0
 62
   242
 48
0.05
100
AcDbLine
 10
934.2794832415549
 20
-143.5061202911791
 30
0.0
 11
965.9166280386898
 21
-135.0289728919604
 31
0.0
  0
ARC
  5
4661E
330
45A33
100
AcDbEntity
  8
0
 62
   242
 48
0.05
100
AcDbCircle
 10
909.2714148421967
 20
-150.2070120230494
 30
0.0
 40
58.46343995658031
100
AcDbArc
 50
1.960150609363044
 51
13.03984939063658
  0
SOLID
  5
4661F
330
45A33
100
AcDbEntity
  8
0
 62
   242
 48
0.05
100
AcDbTrace
 10
968.0339299530757
 20
-148.2016030465084
 30
0.0
 11
967.3673608172082
 21
-148.2130061843867
 31
0.0
 12
967.7348547987769
 22
-150.2070120230497
 32
0.0
 13
967.7348547987769
 23
-150.2070120230497
 33
0.0
  0
SOLID
  5
46620
330
45A33
100
AcDbEntity
  8
0
 62
   242
 48
0.05
100
AcDbTrace
 10
965.9038761492464
 20
-137.0967364988051
 30
0.0
 11
966.5506838418448
 21
-136.9352302969425
 31
0.0
 12
965.7427613899578
 22
-135.0755603200789
 32
0.0
 13
965.7427613899578
 23
-135.0755603200789
 33
0.0
  0
MTEXT
  5
46621
330
45A33
100
AcDbEntity
  8
0
 62
   242
 48
0.05
100
AcDbMText
 10
968.9697204727885
 20
-142.3475809850462
 30
0.0
 40
2.5
 41
0.0
 71
     5
 72
     1
  1
\A1;15°
  7
ROMANT
 11
0.1305261922200498
 21
-0.9914448613738107
 31
0.0
1001
ACAD
1000
MTEXTBEGIN
1070
    73
1070
     1
1070
    44
1040
1.0
1070
    74
1070
     0
1000
MTEXTEND
  0
POINT
  5
46622
330
45A33
100
AcDbEntity
  8
DEFPOINTS
 62
     0
 48
0.05
100
AcDbPoint
 10
967.512383759147
 20
-145.1115874900508
 30
0.0
  0
POINT
  5
46623
330
45A33
100
AcDbEntity
  8
DEFPOINTS
 62
     0
 48
0.05
100
AcDbPoint
 10
919.1120400855181
 20
-150.2070120230494
 30
0.0
  0
POINT
  5
46624
330
45A33
100
AcDbEntity
  8
DEFPOINTS
 62
     0
 48
0.05
100
AcDbPoint
 10
921.8332210404154
 20
-146.8410861967604
 30
0.0
  0
POINT
  5
46625
330
45A33
100
AcDbEntity
  8
DEFPOINTS
 62
     0
 48
0.05
100
AcDbPoint
 10
933.6757796001242
 20
-143.6678821943682
 30
0.0
  0
POINT
  5
46626
330
45A33
100
AcDbEntity
  8
DEFPOINTS
 62
     0
 48
0.05
100
AcDbPoint
 10
938.1120400855181
 20
-150.2070120230495
 30
0.0
  0
ENDBLK
  5
45A41
330
45A33
100
AcDbEntity
  8
0
 48
0.05
100
AcDbBlockEnd
  0
BLOCK
  5
45A4F
330
45A43
100
AcDbEntity
  8
0
 48
0.05
100
AcDbBlockBegin
  2
*D18
 70
     1
 10
0.0
 20
0.0
 30
0.0
  3
*D18
  1

  0
LINE
  5
4642E
330
45A43
100
AcDbEntity
  8
0
 62
   242
 48
0.05
100
AcDbLine
 10
934.2794832415545
 20
-143.506120291179
 30
0.0
 11
965.8977696595046
 21
-135.0340259794334
 31
0.0
  0
LINE
  5
4642F
330
45A43
100
AcDbEntity
  8
0
 62
   242
 48
0.05
100
AcDbLine
 10
935.4305016369291
 20
-141.1618794151182
 30
0.0
 11
952.8095202325735
 21
-116.342068648617
 31
0.0
  0
ARC
  5
46430
330
45A43
100
AcDbEntity
  8
0
 62
   242
 48
0.05
100
AcDbCircle
 10
933.6757796001238
 20
-143.667882194368
 30
0.0
 40
33.17865879388743
100
AcDbArc
 50
18.45429621506956
 51
51.5457037849281
  0
SOLID
  5
46431
330
45A43
100
AcDbEntity
  8
0
 62
   242
 48
0.05
100
AcDbTrace
 10
965.4675031003344
 20
-133.0693028405238
 30
0.0
 11
964.829045614295
 21
-133.2611790583432
 31
0.0
 12
965.7239030107726
 22
-135.0806134075517
 32
0.0
 13
965.7239030107726
 23
-135.0806134075517
 33
0.0
  0
SOLID
  5
46432
330
45A43
100
AcDbEntity
  8
0
 62
   242
 48
0.05
100
AcDbTrace
 10
954.1099262509865
 20
-117.9526901056029
 30
0.0
 11
954.5085962378582
 21
-117.4183618488054
 31
0.0
 12
952.7062764740302
 22
-116.489516016589
 32
0.0
 13
952.7062764740302
 23
-116.489516016589
 33
0.0
  0
MTEXT
  5
46433
330
45A43
100
AcDbEntity
  8
0
 62
   242
 48
0.05
100
AcDbMText
 10
962.2876618554098
 20
-123.633626556849
 30
0.0
 40
2.5
 41
0.0
 71
     5
 72
     1
  1
\A1;40°
  7
ROMANT
 11
0.5735764363510522
 21
-0.8191520442889876
 31
0.0
1001
ACAD
1000
MTEXTBEGIN
1070
    73
1070
     1
1070
    44
1040
1.0
1070
    74
1070
     0
1000
MTEXTEND
  0
POINT
  5
46434
330
45A43
100
AcDbEntity
  8
DEFPOINTS
 62
     0
 48
0.05
100
AcDbPoint
 10
962.879681227994
 20
-127.9212784630588
 30
0.0
  0
POINT
  5
46435
330
45A43
100
AcDbEntity
  8
DEFPOINTS
 62
     0
 48
0.05
100
AcDbPoint
 10
933.6757796001238
 20
-143.667882194368
 30
0.0
  0
POINT
  5
46436
330
45A43
100
AcDbEntity
  8
DEFPOINTS
 62
     0
 48
0.05
100
AcDbPoint
 10
921.8332210404152
 20
-146.8410861967602
 30
0.0
  0
POINT
  5
46437
330
45A43
100
AcDbEntity
  8
DEFPOINTS
 62
     0
 48
0.05
100
AcDbPoint
 10
933.6757796001238
 20
-143.667882194368
 30
0.0
  0
POINT
  5
46438
330
45A43
100
AcDbEntity
  8
DEFPOINTS
 62
     0
 48
0.05
100
AcDbPoint
 10
935.0720163642098
 20
-141.6738494427987
 30
0.0
  0
ENDBLK
  5
45A50
330
45A43
100
AcDbEntity
  8
0
 48
0.05
100
AcDbBlockEnd
  0
BLOCK
  5
45A5C
330
45A52
100
AcDbEntity
  8
0
 48
0.05
100
AcDbBlockBegin
  2
*D19
 70
     1
 10
0.0
 20
0.0
 30
0.0
  3
*D19
  1

  0
LINE
  5
46425
330
45A52
100
AcDbEntity
  8
0
 62
   242
 48
0.05
100
AcDbLine
 10
939.1120400855179
 20
-149.8820120230494
 30
0.0
 11
939.1120400855179
 21
-165.936754044579
 31
0.0
  0
LINE
  5
46426
330
45A52
100
AcDbEntity
  8
0
 62
   242
 48
0.05
100
AcDbLine
 10
921.0956494491981
 20
-148.3471256292384
 30
0.0
 11
921.0956494491981
 21
-165.936754044579
 31
0.0
  0
LINE
  5
46427
330
45A52
100
AcDbEntity
  8
0
 62
   242
 48
0.05
100
AcDbLine
 10
937.1120400855177
 20
-165.7567540445789
 30
0.0
 11
923.095649449198
 21
-165.7567540445789
 31
0.0
  0
SOLID
  5
46428
330
45A52
100
AcDbEntity
  8
0
 62
   242
 48
0.05
100
AcDbTrace
 10
937.1120400855177
 20
-165.4234207112456
 30
0.0
 11
937.1120400855177
 21
-166.0900873779123
 31
0.0
 12
939.1120400855179
 22
-165.7567540445789
 32
0.0
 13
939.1120400855179
 23
-165.7567540445789
 33
0.0
  0
SOLID
  5
46429
330
45A52
100
AcDbEntity
  8
0
 62
   242
 48
0.05
100
AcDbTrace
 10
923.095649449198
 20
-165.4234207112456
 30
0.0
 11
923.095649449198
 21
-166.0900873779123
 31
0.0
 12
921.0956494491981
 22
-165.7567540445789
 32
0.0
 13
921.0956494491981
 23
-165.7567540445789
 33
0.0
  0
MTEXT
  5
4642A
330
45A52
100
AcDbEntity
  8
0
 62
   242
 48
0.05
100
AcDbMText
 10
930.103844767358
 20
-164.006754044579
 30
0.0
 40
2.5
 41
0.0
 71
     5
 72
     1
  1
\A1;18.02
  7
ROMANT
1001
ACAD
1000
MTEXTBEGIN
1070
    73
1070
     1
1070
    44
1040
1.0
1070
    74
1070
     0
1000
MTEXTEND
  0
POINT
  5
4642B
330
45A52
100
AcDbEntity
  8
DEFPOINTS
 62
     0
 48
0.05
100
AcDbPoint
 10
939.1120400855179
 20
-149.2570120230494
 30
0.0
  0
POINT
  5
4642C
330
45A52
100
AcDbEntity
  8
DEFPOINTS
 62
     0
 48
0.05
100
AcDbPoint
 10
921.0956494491981
 20
-147.7221256292384
 30
0.0
  0
POINT
  5
4642D
330
45A52
100
AcDbEntity
  8
DEFPOINTS
 62
     0
 48
0.05
100
AcDbPoint
 10
921.0956494491981
 20
-165.7567540445789
 30
0.0
  0
ENDBLK
  5
45A5D
330
45A52
100
AcDbEntity
  8
0
 48
0.05
100
AcDbBlockEnd
  0
BLOCK
  5
45A69
330
45A5F
100
AcDbEntity
  8
0
 48
0.05
100
AcDbBlockBegin
  2
*D20
 70
     1
 10
0.0
 20
0.0
 30
0.0
  3
*D20
  1

  0
LINE
  5
4641C
330
45A5F
100
AcDbEntity
  8
0
 62
   242
 48
0.05
100
AcDbLine
 10
939.1120400855179
 20
-149.8820120230494
 30
0.0
 11
939.1120400855179
 21
-172.2312562338264
 31
0.0
  0
LINE
  5
4641D
330
45A5F
100
AcDbEntity
  8
0
 62
   242
 48
0.05
100
AcDbLine
 10
919.1120400855178
 20
-150.8320120230494
 30
0.0
 11
919.1120400855178
 21
-172.2312562338264
 31
0.0
  0
LINE
  5
4641E
330
45A5F
100
AcDbEntity
  8
0
 62
   242
 48
0.05
100
AcDbLine
 10
937.1120400855177
 20
-172.0512562338264
 30
0.0
 11
921.1120400855177
 21
-172.0512562338264
 31
0.0
  0
SOLID
  5
4641F
330
45A5F
100
AcDbEntity
  8
0
 62
   242
 48
0.05
100
AcDbTrace
 10
937.1120400855177
 20
-171.717922900493
 30
0.0
 11
937.1120400855177
 21
-172.3845895671597
 31
0.0
 12
939.1120400855179
 22
-172.0512562338264
 32
0.0
 13
939.1120400855179
 23
-172.0512562338264
 33
0.0
  0
SOLID
  5
46420
330
45A5F
100
AcDbEntity
  8
0
 62
   242
 48
0.05
100
AcDbTrace
 10
921.1120400855177
 20
-171.717922900493
 30
0.0
 11
921.1120400855177
 21
-172.3845895671597
 31
0.0
 12
919.1120400855178
 22
-172.0512562338264
 32
0.0
 13
919.1120400855178
 23
-172.0512562338264
 33
0.0
  0
MTEXT
  5
46421
330
45A5F
100
AcDbEntity
  8
0
 62
   242
 48
0.05
100
AcDbMText
 10
929.1120400855177
 20
-170.3012562338263
 30
0.0
 40
2.5
 41
0.0
 71
     5
 72
     1
  1
\A1;20
  7
ROMANT
1001
ACAD
1000
MTEXTBEGIN
1070
    73
1070
     1
1070
    44
1040
1.0
1070
    74
1070
     0
1000
MTEXTEND
  0
POINT
  5
46422
330
45A5F
100
AcDbEntity
  8
DEFPOINTS
 62
     0
 48
0.05
100
AcDbPoint
 10
939.1120400855179
 20
-149.2570120230494
 30
0.0
  0
POINT
  5
46423
330
45A5F
100
AcDbEntity
  8
DEFPOINTS
 62
     0
 48
0.05
100
AcDbPoint
 10
919.1120400855178
 20
-150.2070120230494
 30
0.0
  0
POINT
  5
46424
330
45A5F
100
AcDbEntity
  8
DEFPOINTS
 62
     0
 48
0.05
100
AcDbPoint
 10
919.1120400855178
 20
-172.0512562338264
 30
0.0
  0
ENDBLK
  5
45A6A
330
45A5F
100
AcDbEntity
  8
0
 48
0.05
100
AcDbBlockEnd
  0
BLOCK
  5
45A76
330
45A6C
100
AcDbEntity
  8
0
 48
0.05
100
AcDbBlockBegin
  2
*D21
 70
     1
 10
0.0
 20
0.0
 30
0.0
  3
*D21
  1

  0
LINE
  5
46413
330
45A6C
100
AcDbEntity
  8
0
 62
   242
 48
0.05
100
AcDbLine
 10
939.1120400855179
 20
-150.5070120230494
 30
0.0
 11
939.1120400855179
 21
-181.0376208629779
 31
0.0
  0
LINE
  5
46414
330
45A6C
100
AcDbEntity
  8
0
 62
   242
 48
0.05
100
AcDbLine
 10
895.7120400855178
 20
-149.6070120230494
 30
0.0
 11
895.7120400855178
 21
-181.0376208629779
 31
0.0
  0
LINE
  5
46415
330
45A6C
100
AcDbEntity
  8
0
 62
   242
 48
0.05
100
AcDbLine
 10
937.1120400855177
 20
-180.8576208629779
 30
0.0
 11
897.7120400855179
 21
-180.8576208629779
 31
0.0
  0
SOLID
  5
46416
330
45A6C
100
AcDbEntity
  8
0
 62
   242
 48
0.05
100
AcDbTrace
 10
937.1120400855177
 20
-180.5242875296445
 30
0.0
 11
937.1120400855177
 21
-181.1909541963112
 31
0.0
 12
939.1120400855179
 22
-180.8576208629779
 32
0.0
 13
939.1120400855179
 23
-180.8576208629779
 33
0.0
  0
SOLID
  5
46417
330
45A6C
100
AcDbEntity
  8
0
 62
   242
 48
0.05
100
AcDbTrace
 10
897.7120400855179
 20
-180.5242875296445
 30
0.0
 11
897.7120400855179
 21
-181.1909541963112
 31
0.0
 12
895.7120400855178
 22
-180.8576208629779
 32
0.0
 13
895.7120400855178
 23
-180.8576208629779
 33
0.0
  0
MTEXT
  5
46418
330
45A6C
100
AcDbEntity
  8
0
 62
   242
 48
0.05
100
AcDbMText
 10
917.4120400855178
 20
-179.1076208629779
 30
0.0
 40
2.5
 41
0.0
 71
     5
 72
     1
  1
\A1;43.4
  7
ROMANT
1001
ACAD
1000
MTEXTBEGIN
1070
    73
1070
     1
1070
    44
1040
1.0
1070
    74
1070
     0
1000
MTEXTEND
  0
POINT
  5
46419
330
45A6C
100
AcDbEntity
  8
DEFPOINTS
 62
     0
 48
0.05
100
AcDbPoint
 10
939.1120400855179
 20
-149.8820120230494
 30
0.0
  0
POINT
  5
4641A
330
45A6C
100
AcDbEntity
  8
DEFPOINTS
 62
     0
 48
0.05
100
AcDbPoint
 10
895.7120400855178
 20
-148.9820120230494
 30
0.0
  0
POINT
  5
4641B
330
45A6C
100
AcDbEntity
  8
DEFPOINTS
 62
     0
 48
0.05
100
AcDbPoint
 10
895.7120400855178
 20
-180.8576208629779
 30
0.0
  0
ENDBLK
  5
45A77
330
45A6C
100
AcDbEntity
  8
0
 48
0.05
100
AcDbBlockEnd
  0
BLOCK
  5
45A7F
330
45A79
100
AcDbEntity
  8
0
 48
0.05
100
AcDbBlockBegin
  2
*D22
 70
     1
 10
0.0
 20
0.0
 30
0.0
  3
*D22
  1

  0
LINE
  5
4640E
330
45A79
100
AcDbEntity
  8
0
 62
   242
 48
0.05
100
AcDbLine
 10
932.9837908119687
 20
-148.2696532191804
 30
0.0
 11
923.0911391866724
 21
-147.8494500492972
 31
0.0
  0
MTEXT
  5
4640F
330
45A79
100
AcDbEntity
  8
0
 62
   242
 48
0.05
100
AcDbMText
 10
930.3802973383143
 20
-146.4074884727402
 30
0.0
 40
2.5
 41
0.0
 71
     5
 72
     1
  1
\A1;R1
  7
ROMANT
 11
0.9990991011547391
 21
-0.0424380262476016
 31
0.0
1001
ACAD
1000
MTEXTBEGIN
1070
    73
1070
     1
1070
    44
1040
1.0
1070
    74
1070
     0
1000
MTEXTEND
  0
SOLID
  5
46410
330
45A79
100
AcDbEntity
  8
0
 62
   242
 48
0.05
100
AcDbTrace
 10
923.1052851954217
 20
-147.516417015579
 30
0.0
 11
923.0769931779233
 21
-148.1824830830154
 31
0.0
 12
921.0929409843631
 22
-147.764573996802
 32
0.0
 13
921.0929409843631
 23
-147.764573996802
 33
0.0
  0
POINT
  5
46411
330
45A79
100
AcDbEntity
  8
DEFPOINTS
 62
     0
 48
0.05
100
AcDbPoint
 10
921.0929409843631
 20
-147.764573996802
 30
0.0
  0
POINT
  5
46412
330
45A79
100
AcDbEntity
  8
DEFPOINTS
 62
     0
 48
0.05
100
AcDbPoint
 10
922.0920400855181
 20
-147.8070120230496
 30
0.0
  0
ENDBLK
  5
45A80
330
45A79
100
AcDbEntity
  8
0
 48
0.05
100
AcDbBlockEnd
  0
BLOCK
  5
45A88
330
45A82
100
AcDbEntity
  8
0
 48
0.05
100
AcDbBlockBegin
  2
*D23
 70
     1
 10
0.0
 20
0.0
 30
0.0
  3
*D23
  1

  0
LINE
  5
46409
330
45A82
100
AcDbEntity
  8
0
 62
   242
 48
0.05
100
AcDbLine
 10
940.9579630053942
 20
-127.0772541365382
 30
0.0
 11
932.9924353128893
 21
-140.7162872122441
 31
0.0
  0
MTEXT
  5
4640A
330
45A82
100
AcDbEntity
  8
0
 62
   242
 48
0.05
100
AcDbMText
 10
936.4441140951942
 20
-131.3360796545766
 30
0.0
 40
2.5
 41
0.0
 71
     5
 72
     1
  1
\A1;R0.75
  7
ROMANT
 11
0.5043161818961793
 21
0.8635190725616082
 31
0.0
1001
ACAD
1000
MTEXTBEGIN
1070
    73
1070
     1
1070
    44
1040
1.0
1070
    74
1070
     0
1000
MTEXTEND
  0
SOLID
  5
4640B
330
45A82
100
AcDbEntity
  8
0
 62
   242
 48
0.05
100
AcDbTrace
 10
932.7045956220354
 20
-140.5481818182787
 30
0.0
 11
933.2802750037432
 21
-140.8843926062095
 31
0.0
 12
931.9838029490968
 22
-142.4433253573673
 32
0.0
 13
931.9838029490968
 23
-142.4433253573673
 33
0.0
  0
POINT
  5
4640C
330
45A82
100
AcDbEntity
  8
DEFPOINTS
 62
     0
 48
0.05
100
AcDbPoint
 10
931.9838029490968
 20
-142.4433253573673
 30
0.0
  0
POINT
  5
4640D
330
45A82
100
AcDbEntity
  8
DEFPOINTS
 62
     0
 48
0.05
100
AcDbPoint
 10
932.3620400855192
 20
-141.7956860529456
 30
0.0
  0
ENDBLK
  5
45A89
330
45A82
100
AcDbEntity
  8
0
 48
0.05
100
AcDbBlockEnd
  0
BLOCK
  5
45A99
330
45A8B
100
AcDbEntity
  8
0
 48
0.05
100
AcDbBlockBegin
  2
*D24
 70
     1
 10
0.0
 20
0.0
 30
0.0
  3
*D24
  1

  0
LINE
  5
463FC
330
45A8B
100
AcDbEntity
  8
0
 62
   242
 48
0.05
100
AcDbLine
 10
934.7370400855178
 20
-148.8070120230495
 30
0.0
 11
944.7770072015956
 21
-148.8070120230495
 31
0.0
  0
LINE
  5
463FD
330
45A8B
100
AcDbEntity
  8
0
 62
   242
 48
0.05
100
AcDbLine
 10
935.9290734213301
 20
-148.0728829021644
 30
0.0
 11
944.0004254050306
 21
-144.8118450228025
 31
0.0
  0
ARC
  5
463FE
330
45A8B
100
AcDbEntity
  8
0
 62
   242
 48
0.05
100
AcDbCircle
 10
934.1120400855176
 20
-148.8070120230495
 30
0.0
 40
10.48496711607781
100
AcDbArc
 50
349.0542335784893
 51
359.9999999999998
  0
LINE
  5
463FF
330
45A8B
100
AcDbEntity
  8
0
 62
   242
 48
0.05
100
AcDbLine
 10
944.4062579147491
 20
-150.7978949200496
 30
0.0
 11
943.0388743052352
 21
-157.8681976252793
 31
0.0
  0
ARC
  5
46400
330
45A8B
100
AcDbEntity
  8
0
 62
   242
 48
0.05
100
AcDbCircle
 10
934.1120400855176
 20
-148.8070120230495
 30
0.0
 40
10.48496711607781
100
AcDbArc
 50
10.94576642151037
 51
11.05423357849089
  0
SOLID
  5
46401
330
45A8B
100
AcDbEntity
  8
0
 62
   242
 48
0.05
100
AcDbTrace
 10
944.7380717309156
 20
-146.7843375782416
 30
0.0
 11
944.0744440985824
 21
-146.8479206738571
 31
0.0
 12
944.5970072015954
 22
-148.8070120230495
 32
0.0
 13
944.5970072015954
 23
-148.8070120230495
 33
0.0
  0
SOLID
  5
46402
330
45A8B
100
AcDbEntity
  8
0
 62
   242
 48
0.05
100
AcDbTrace
 10
944.0829087756142
 20
-146.8914676620746
 30
0.0
 11
944.7220322486055
 21
-146.7018215951076
 31
0.0
 12
943.8335323112086
 22
-144.8792742096174
 32
0.0
 13
943.8335323112086
 23
-144.8792742096174
 33
0.0
  0
MTEXT
  5
46403
330
45A8B
100
AcDbEntity
  8
0
 62
   242
 48
0.05
100
AcDbMText
 10
945.4407289808639
 20
-154.6653358288624
 30
0.0
 40
2.5
 41
0.0
 71
     5
 72
     1
  1
\A1;22°
  7
ROMANT
 11
-0.1898797463987676
 21
-0.9818073547837885
 31
0.0
1001
ACAD
1000
MTEXTBEGIN
1070
    73
1070
     1
1070
    44
1040
1.0
1070
    74
1070
     0
1000
MTEXTEND
  0
POINT
  5
46404
330
45A8B
100
AcDbEntity
  8
DEFPOINTS
 62
     0
 48
0.05
100
AcDbPoint
 10
944.2553568491788
 20
-146.1522690115206
 30
0.0
  0
POINT
  5
46405
330
45A8B
100
AcDbEntity
  8
DEFPOINTS
 62
     0
 48
0.05
100
AcDbPoint
 10
934.1120400855176
 20
-148.8070120230495
 30
0.0
  0
POINT
  5
46406
330
45A8B
100
AcDbEntity
  8
DEFPOINTS
 62
     0
 48
0.05
100
AcDbPoint
 10
935.3495835122258
 20
-148.3070120230494
 30
0.0
  0
POINT
  5
46407
330
45A8B
100
AcDbEntity
  8
DEFPOINTS
 62
     0
 48
0.05
100
AcDbPoint
 10
934.1120400855176
 20
-148.8070120230495
 30
0.0
  0
POINT
  5
46408
330
45A8B
100
AcDbEntity
  8
DEFPOINTS
 62
     0
 48
0.05
100
AcDbPoint
 10
922.0920400855177
 20
-148.8070120230494
 30
0.0
  0
ENDBLK
  5
45A9A
330
45A8B
100
AcDbEntity
  8
0
 48
0.05
100
AcDbBlockEnd
  0
BLOCK
  5
45AD0
330
45ACA
100
AcDbEntity
  8
0
 48
0.05
100
AcDbBlockBegin
  2
*D25
 70
     1
 10
0.0
 20
0.0
 30
0.0
  3
*D25
  1

  0
LINE
  5
4621D
330
45ACA
100
AcDbEntity
  8
0
 62
   242
 48
0.05
100
AcDbLine
 10
912.1067177968177
 20
-102.502637866534
 30
0.0
 11
907.7094646199254
 21
-108.4050868858401
 31
0.0
  0
MTEXT
  5
4621E
330
45ACA
100
AcDbEntity
  8
0
 62
   242
 48
0.05
100
AcDbMText
 10
909.102146752663
 20
-103.6064443037648
 30
0.0
 40
2.5
 41
0.0
 71
     5
 72
     1
  1
\A1;R1
  7
ROMANT
 11
0.5974245344074945
 21
0.8019251372091964
 31
0.0
1001
ACAD
1000
MTEXTBEGIN
1070
    73
1070
     1
1070
    44
1040
1.0
1070
    74
1070
     0
1000
MTEXTEND
  0
SOLID
  5
4621F
330
45ACA
100
AcDbEntity
  8
0
 62
   242
 48
0.05
100
AcDbTrace
 10
907.4421562408558
 20
-108.2059453743709
 30
0.0
 11
907.9767729989953
 21
-108.6042283973093
 31
0.0
 12
906.5146155511104
 22
-110.0089371602585
 32
0.0
 13
906.5146155511104
 23
-110.0089371602585
 33
0.0
  0
POINT
  5
46220
330
45ACA
100
AcDbEntity
  8
DEFPOINTS
 62
     0
 48
0.05
100
AcDbPoint
 10
906.5146155511104
 20
-110.0089371602585
 30
0.0
  0
POINT
  5
46221
330
45ACA
100
AcDbEntity
  8
DEFPOINTS
 62
     0
 48
0.05
100
AcDbPoint
 10
907.112040085518
 20
-109.2070120230493
 30
0.0
  0
ENDBLK
  5
45AD1
330
45ACA
100
AcDbEntity
  8
0
 48
0.05
100
AcDbBlockEnd
  0
BLOCK
  5
45AE4
330
45ADE
100
AcDbEntity
  8
0
 48
0.05
100
AcDbBlockBegin
  2
*D26
 70
     1
 10
0.0
 20
0.0
 30
0.0
  3
*D26
  1

  0
LINE
  5
46211
330
45ADE
100
AcDbEntity
  8
0
 62
   242
 48
0.05
100
AcDbLine
 10
898.2539532717176
 20
-141.4741827498627
 30
0.0
 11
903.0591861554009
 21
-147.0495281975246
 31
0.0
  0
MTEXT
  5
46212
330
45ADE
100
AcDbEntity
  8
0
 62
   242
 48
0.05
100
AcDbMText
 10
901.3293124781094
 20
-142.3618772704645
 30
0.0
 40
2.5
 41
0.0
 71
     5
 72
     1
  1
\A1;R1
  7
ROMANT
 11
0.6528539301171131
 21
-0.7574838255241096
 31
0.0
1001
ACAD
1000
MTEXTBEGIN
1070
    73
1070
     1
1070
    44
1040
1.0
1070
    74
1070
     0
1000
MTEXTEND
  0
SOLID
  5
46213
330
45ADE
100
AcDbEntity
  8
0
 62
   242
 48
0.05
100
AcDbTrace
 10
903.3116807639089
 20
-146.8319102208189
 30
0.0
 11
902.8066915468928
 21
-147.2671461742304
 31
0.0
 12
904.3648940156352
 22
-148.5644958485728
 32
0.0
 13
904.3648940156352
 23
-148.5644958485728
 33
0.0
  0
POINT
  5
46214
330
45ADE
100
AcDbEntity
  8
DEFPOINTS
 62
     0
 48
0.05
100
AcDbPoint
 10
904.3648940156352
 20
-148.5644958485728
 30
0.0
  0
POINT
  5
46215
330
45ADE
100
AcDbEntity
  8
DEFPOINTS
 62
     0
 48
0.05
100
AcDbPoint
 10
903.7120400855185
 20
-147.8070120230494
 30
0.0
  0
ENDBLK
  5
45AE5
330
45ADE
100
AcDbEntity
  8
0
 48
0.05
100
AcDbBlockEnd
  0
BLOCK
  5
45AED
330
45AE7
100
AcDbEntity
  8
0
 48
0.05
100
AcDbBlockBegin
  2
*D27
 70
     1
 10
0.0
 20
0.0
 30
0.0
  3
*D27
  1

  0
LINE
  5
4620C
330
45AE7
100
AcDbEntity
  8
0
 62
   242
 48
0.05
100
AcDbLine
 10
911.8884588659923
 20
-71.11210525934296
 30
0.0
 11
907.6197484189743
 21
-63.86854104063286
 31
0.0
  0
MTEXT
  5
4620D
330
45AE7
100
AcDbEntity
  8
0
 62
   242
 48
0.05
100
AcDbMText
 10
912.0353876744458
 20
-67.91456749795663
 30
0.0
 40
2.5
 41
0.0
 71
     5
 72
     1
  1
\A1;R1
  7
ROMANT
 11
0.5077083334567619
 21
-0.8615290175835967
 31
0.0
1001
ACAD
1000
MTEXTBEGIN
1070
    73
1070
     1
1070
    44
1040
1.0
1070
    74
1070
     0
1000
MTEXTEND
  0
SOLID
  5
4620E
330
45AE7
100
AcDbEntity
  8
0
 62
   242
 48
0.05
100
AcDbTrace
 10
907.9069247581687
 20
-63.69930492948061
 30
0.0
 11
907.3325720797797
 21
-64.03777715178512
 31
0.0
 12
906.6043317520607
 22
-62.14548300546567
 32
0.0
 13
906.6043317520607
 23
-62.14548300546567
 33
0.0
  0
POINT
  5
4620F
330
45AE7
100
AcDbEntity
  8
DEFPOINTS
 62
     0
 48
0.05
100
AcDbPoint
 10
906.6043317520607
 20
-62.14548300546567
 30
0.0
  0
POINT
  5
46210
330
45AE7
100
AcDbEntity
  8
DEFPOINTS
 62
     0
 48
0.05
100
AcDbPoint
 10
907.1120400855177
 20
-63.0070120230493
 30
0.0
  0
ENDBLK
  5
45AEE
330
45AE7
100
AcDbEntity
  8
0
 48
0.05
100
AcDbBlockEnd
  0
BLOCK
  5
45AF8
330
45AF0
100
AcDbEntity
  8
0
 48
0.05
100
AcDbBlockBegin
  2
*D28
 70
     1
 10
0.0
 20
0.0
 30
0.0
  3
*D28
  1

  0
LINE
  5
46205
330
45AF0
100
AcDbEntity
  8
0
 62
   242
 48
0.05
100
AcDbLine
 10
898.7011129961929
 20
-45.03204647652791
 30
0.0
 11
904.2085395501752
 21
-50.63973238740925
 31
0.0
  0
MTEXT
  5
46206
330
45AF0
100
AcDbEntity
  8
0
 62
   242
 48
0.05
100
AcDbMText
 10
902.0026740385898
 20
-45.89620831747061
 30
0.0
 40
2.5
 41
0.0
 71
     5
 72
     1
  1
\A1;R3
  7
ROMANT
 11
0.7007001070685064
 21
-0.7134559271280768
 31
0.0
1001
ACAD
1000
MTEXTBEGIN
1070
    73
1070
     1
1070
    44
1040
1.0
1070
    74
1070
     0
1000
MTEXTEND
  0
SOLID
  5
46207
330
45AF0
100
AcDbEntity
  8
0
 62
   242
 48
0.05
100
AcDbTrace
 10
904.446358192551
 20
-50.40616568505305
 30
0.0
 11
903.970720907799
 21
-50.87329908976546
 31
0.0
 12
905.6099397643121
 22
-52.06664424166541
 32
0.0
 13
905.6099397643121
 23
-52.06664424166541
 33
0.0
  0
LINE
  5
46208
330
45AF0
100
AcDbEntity
  8
0
 62
   242
 48
0.05
100
AcDbLine
 10
907.6220400855172
 20
-54.20701202304901
 30
0.0
 11
907.8020400855173
 21
-54.20701202304906
 31
0.0
  0
LINE
  5
46209
330
45AF0
100
AcDbEntity
  8
0
 62
   242
 48
0.05
100
AcDbLine
 10
907.7120400855172
 20
-54.29701202304892
 30
0.0
 11
907.7120400855172
 21
-54.11701202304891
 31
0.0
  0
POINT
  5
4620A
330
45AF0
100
AcDbEntity
  8
DEFPOINTS
 62
     0
 48
0.05
100
AcDbPoint
 10
905.6099397643121
 20
-52.06664424166541
 30
0.0
  0
POINT
  5
4620B
330
45AF0
100
AcDbEntity
  8
DEFPOINTS
 62
     0
 48
0.05
100
AcDbPoint
 10
907.7120400855172
 20
-54.20701202304901
 30
0.0
  0
ENDBLK
  5
45AF9
330
45AF0
100
AcDbEntity
  8
0
 48
0.05
100
AcDbBlockEnd
  0
BLOCK
  5
45B10
330
45B06
100
AcDbEntity
  8
0
 48
0.05
100
AcDbBlockBegin
  2
*D29
 70
     1
 10
0.0
 20
0.0
 30
0.0
  3
*D29
  1

  0
LINE
  5
4658A
330
45B06
100
AcDbEntity
  8
0
 62
   242
 48
0.05
100
AcDbLine
 10
924.7370400855176
 20
-62.00701202304945
 30
0.0
 11
949.8384153909732
 21
-62.00701202304946
 31
0.0
  0
LINE
  5
4658B
330
45B06
100
AcDbEntity
  8
0
 62
   242
 48
0.05
100
AcDbLine
 10
924.3370400855178
 20
-51.20701202304946
 30
0.0
 11
949.8384153909732
 21
-51.20701202304946
 31
0.0
  0
LINE
  5
4658C
330
45B06
100
AcDbEntity
  8
0
 62
   242
 48
0.05
100
AcDbLine
 10
949.6584153909733
 20
-60.00701202304946
 30
0.0
 11
949.6584153909733
 21
-53.20701202304946
 31
0.0
  0
SOLID
  5
4658D
330
45B06
100
AcDbEntity
  8
0
 62
   242
 48
0.05
100
AcDbTrace
 10
949.3250820576399
 20
-60.00701202304946
 30
0.0
 11
949.9917487243065
 21
-60.00701202304946
 31
0.0
 12
949.6584153909733
 22
-62.00701202304946
 32
0.0
 13
949.6584153909733
 23
-62.00701202304946
 33
0.0
  0
SOLID
  5
4658E
330
45B06
100
AcDbEntity
  8
0
 62
   242
 48
0.05
100
AcDbTrace
 10
949.3250820576399
 20
-53.20701202304946
 30
0.0
 11
949.9917487243065
 21
-53.20701202304946
 31
0.0
 12
949.6584153909733
 22
-51.20701202304946
 32
0.0
 13
949.6584153909733
 23
-51.20701202304946
 33
0.0
  0
MTEXT
  5
4658F
330
45B06
100
AcDbEntity
  8
0
 62
   242
 48
0.05
100
AcDbMText
 10
947.9084153909733
 20
-56.60701202304931
 30
0.0
 40
2.5
 41
0.0
 71
     5
 72
     1
  1
\A1;10.8
  7
ROMANT
 11
0.0000000000000001
 21
1.0
 31
0.0
1001
ACAD
1000
MTEXTBEGIN
1070
    73
1070
     1
1070
    44
1040
1.0
1070
    74
1070
     0
1000
MTEXTEND
  0
POINT
  5
46590
330
45B06
100
AcDbEntity
  8
DEFPOINTS
 62
     0
 48
0.05
100
AcDbPoint
 10
924.1120400855177
 20
-62.00701202304945
 30
0.0
  0
POINT
  5
46591
330
45B06
100
AcDbEntity
  8
DEFPOINTS
 62
     0
 48
0.05
100
AcDbPoint
 10
923.7120400855179
 20
-51.20701202304946
 30
0.0
  0
POINT
  5
46592
330
45B06
100
AcDbEntity
  8
DEFPOINTS
 62
     0
 48
0.05
100
AcDbPoint
 10
949.6584153909733
 20
-51.20701202304946
 30
0.0
  0
ENDBLK
  5
45B11
330
45B06
100
AcDbEntity
  8
0
 48
0.05
100
AcDbBlockEnd
  0
BLOCK
  5
45B1D
330
45B13
100
AcDbEntity
  8
0
 48
0.05
100
AcDbBlockBegin
  2
*D30
 70
     1
 10
0.0
 20
0.0
 30
0.0
  3
*D30
  1

  0
LINE
  5
463A9
330
45B13
100
AcDbEntity
  8
0
 62
   242
 48
0.05
100
AcDbLine
 10
924.8370400855177
 20
-52.60701202304947
 30
0.0
 11
940.480232454103
 21
-52.60701202304947
 31
0.0
  0
LINE
  5
463AA
330
45B13
100
AcDbEntity
  8
0
 62
   242
 48
0.05
100
AcDbLine
 10
924.8370400855177
 20
-60.60701202304946
 30
0.0
 11
940.480232454103
 21
-60.60701202304946
 31
0.0
  0
LINE
  5
463AB
330
45B13
100
AcDbEntity
  8
0
 62
   242
 48
0.05
100
AcDbLine
 10
940.3002324541031
 20
-58.60701202304946
 30
0.0
 11
940.3002324541031
 21
-54.60701202304946
 31
0.0
  0
LINE
  5
463AC
330
45B13
100
AcDbEntity
  8
0
 62
   242
 48
0.05
100
AcDbLine
 10
940.3002324541031
 20
-52.60701202304947
 30
0.0
 11
940.3002324541031
 21
-38.44796830965475
 31
0.0
  0
SOLID
  5
463AD
330
45B13
100
AcDbEntity
  8
0
 62
   242
 48
0.05
100
AcDbTrace
 10
939.9668991207697
 20
-58.60701202304946
 30
0.0
 11
940.6335657874365
 21
-58.60701202304946
 31
0.0
 12
940.3002324541031
 22
-60.60701202304946
 32
0.0
 13
940.3002324541031
 23
-60.60701202304946
 33
0.0
  0
SOLID
  5
463AE
330
45B13
100
AcDbEntity
  8
0
 62
   242
 48
0.05
100
AcDbTrace
 10
939.9668991207697
 20
-54.60701202304946
 30
0.0
 11
940.6335657874365
 21
-54.60701202304946
 31
0.0
 12
940.3002324541031
 22
-52.60701202304947
 32
0.0
 13
940.3002324541031
 23
-52.60701202304947
 33
0.0
  0
MTEXT
  5
463AF
330
45B13
100
AcDbEntity
  8
0
 62
   242
 48
0.05
100
AcDbMText
 10
938.5502324541031
 20
-44.46887835096624
 30
0.0
 40
2.5
 41
0.0
 71
     5
 72
     1
  1
\A1;8±0.3
  7
ROMANT
 11
0.0000000000000001
 21
1.0
 31
0.0
1001
ACAD
1000
MTEXTBEGIN
1070
    73
1070
     1
1070
    44
1040
1.0
1070
    74
1070
     0
1000
MTEXTEND
  0
POINT
  5
463B0
330
45B13
100
AcDbEntity
  8
DEFPOINTS
 62
     0
 48
0.05
100
AcDbPoint
 10
924.2120400855178
 20
-52.60701202304947
 30
0.0
  0
POINT
  5
463B1
330
45B13
100
AcDbEntity
  8
DEFPOINTS
 62
     0
 48
0.05
100
AcDbPoint
 10
924.2120400855178
 20
-60.60701202304946
 30
0.0
  0
POINT
  5
463B2
330
45B13
100
AcDbEntity
  8
DEFPOINTS
 62
     0
 48
0.05
100
AcDbPoint
 10
940.3002324541031
 20
-60.60701202304946
 30
0.0
  0
ENDBLK
  5
45B1E
330
45B13
100
AcDbEntity
  8
0
 48
0.05
100
AcDbBlockEnd
  0
BLOCK
  5
45B2A
330
45B20
100
AcDbEntity
  8
0
 48
0.05
100
AcDbBlockBegin
  2
*D31
 70
     1
 10
0.0
 20
0.0
 30
0.0
  3
*D31
  1

  0
LINE
  5
4659C
330
45B20
100
AcDbEntity
  8
0
 62
   242
 48
0.05
100
AcDbLine
 10
924.3370400855178
 20
-51.20701202304946
 30
0.0
 11
961.2745548552334
 21
-51.20701202304946
 31
0.0
  0
LINE
  5
4659D
330
45B20
100
AcDbEntity
  8
0
 62
   242
 48
0.05
100
AcDbLine
 10
923.4370400855178
 20
-68.60701202304946
 30
0.0
 11
961.2745548552334
 21
-68.60701202304948
 31
0.0
  0
LINE
  5
4659E
330
45B20
100
AcDbEntity
  8
0
 62
   242
 48
0.05
100
AcDbLine
 10
961.0945548552335
 20
-53.20701202304946
 30
0.0
 11
961.0945548552335
 21
-66.60701202304948
 31
0.0
  0
SOLID
  5
4659F
330
45B20
100
AcDbEntity
  8
0
 62
   242
 48
0.05
100
AcDbTrace
 10
960.7612215219001
 20
-53.20701202304946
 30
0.0
 11
961.4278881885669
 21
-53.20701202304946
 31
0.0
 12
961.0945548552335
 22
-51.20701202304946
 32
0.0
 13
961.0945548552335
 23
-51.20701202304946
 33
0.0
  0
SOLID
  5
465A0
330
45B20
100
AcDbEntity
  8
0
 62
   242
 48
0.05
100
AcDbTrace
 10
960.7612215219001
 20
-66.60701202304948
 30
0.0
 11
961.4278881885669
 21
-66.60701202304948
 31
0.0
 12
961.0945548552335
 22
-68.60701202304948
 32
0.0
 13
961.0945548552335
 23
-68.60701202304948
 33
0.0
  0
MTEXT
  5
465A1
330
45B20
100
AcDbEntity
  8
0
 62
   242
 48
0.05
100
AcDbMText
 10
959.3445548552335
 20
-59.90701202304932
 30
0.0
 40
2.5
 41
0.0
 71
     5
 72
     1
  1
\A1;17.4
  7
ROMANT
 11
0.0000000000000001
 21
1.0
 31
0.0
1001
ACAD
1000
MTEXTBEGIN
1070
    73
1070
     1
1070
    44
1040
1.0
1070
    74
1070
     0
1000
MTEXTEND
  0
POINT
  5
465A2
330
45B20
100
AcDbEntity
  8
DEFPOINTS
 62
     0
 48
0.05
100
AcDbPoint
 10
923.7120400855179
 20
-51.20701202304946
 30
0.0
  0
POINT
  5
465A3
330
45B20
100
AcDbEntity
  8
DEFPOINTS
 62
     0
 48
0.05
100
AcDbPoint
 10
922.8120400855177
 20
-68.60701202304946
 30
0.0
  0
POINT
  5
465A4
330
45B20
100
AcDbEntity
  8
DEFPOINTS
 62
     0
 48
0.05
100
AcDbPoint
 10
961.0945548552335
 20
-68.60701202304948
 30
0.0
  0
ENDBLK
  5
45B2B
330
45B20
100
AcDbEntity
  8
0
 48
0.05
100
AcDbBlockEnd
  0
BLOCK
  5
45B37
330
45B2D
100
AcDbEntity
  8
0
 48
0.05
100
AcDbBlockBegin
  2
*D32
 70
     1
 10
0.0
 20
0.0
 30
0.0
  3
*D32
  1

  0
LINE
  5
46593
330
45B2D
100
AcDbEntity
  8
0
 62
   242
 48
0.05
100
AcDbLine
 10
904.7120400855177
 20
-53.58201202304946
 30
0.0
 11
904.7120400855177
 21
-38.47952393293207
 31
0.0
  0
LINE
  5
46594
330
45B2D
100
AcDbEntity
  8
0
 62
   242
 48
0.05
100
AcDbLine
 10
924.7120400855179
 20
-51.68201202304945
 30
0.0
 11
924.7120400855179
 21
-38.47952393293207
 31
0.0
  0
LINE
  5
46595
330
45B2D
100
AcDbEntity
  8
0
 62
   242
 48
0.05
100
AcDbLine
 10
906.7120400855179
 20
-38.65952393293207
 30
0.0
 11
922.7120400855179
 21
-38.65952393293207
 31
0.0
  0
SOLID
  5
46596
330
45B2D
100
AcDbEntity
  8
0
 62
   242
 48
0.05
100
AcDbTrace
 10
906.7120400855179
 20
-38.32619059959874
 30
0.0
 11
906.7120400855179
 21
-38.99285726626541
 31
0.0
 12
904.7120400855177
 22
-38.65952393293207
 32
0.0
 13
904.7120400855177
 23
-38.65952393293207
 33
0.0
  0
SOLID
  5
46597
330
45B2D
100
AcDbEntity
  8
0
 62
   242
 48
0.05
100
AcDbTrace
 10
922.7120400855179
 20
-38.32619059959874
 30
0.0
 11
922.7120400855179
 21
-38.99285726626541
 31
0.0
 12
924.7120400855179
 22
-38.65952393293207
 32
0.0
 13
924.7120400855179
 23
-38.65952393293207
 33
0.0
  0
MTEXT
  5
46598
330
45B2D
100
AcDbEntity
  8
0
 62
   242
 48
0.05
100
AcDbMText
 10
914.7120400855179
 20
-36.90952393293207
 30
0.0
 40
2.5
 41
0.0
 71
     5
 72
     1
  1
\A1;20
  7
ROMANT
1001
ACAD
1000
MTEXTBEGIN
1070
    73
1070
     1
1070
    44
1040
1.0
1070
    74
1070
     0
1000
MTEXTEND
  0
POINT
  5
46599
330
45B2D
100
AcDbEntity
  8
DEFPOINTS
 62
     0
 48
0.05
100
AcDbPoint
 10
904.7120400855177
 20
-54.20701202304946
 30
0.0
  0
POINT
  5
4659A
330
45B2D
100
AcDbEntity
  8
DEFPOINTS
 62
     0
 48
0.05
100
AcDbPoint
 10
924.7120400855179
 20
-52.30701202304945
 30
0.0
  0
POINT
  5
4659B
330
45B2D
100
AcDbEntity
  8
DEFPOINTS
 62
     0
 48
0.05
100
AcDbPoint
 10
924.7120400855179
 20
-38.65952393293207
 30
0.0
  0
ENDBLK
  5
45B38
330
45B2D
100
AcDbEntity
  8
0
 48
0.05
100
AcDbBlockEnd
  0
BLOCK
  5
45B45
330
45B3A
100
AcDbEntity
  8
0
 48
0.05
100
AcDbBlockBegin
  2
*D33
 70
     1
 10
0.0
 20
0.0
 30
0.0
  3
*D33
  1

  0
LINE
  5
461CF
330
45B3A
100
AcDbEntity
  8
0
 62
   242
 48
0.05
100
AcDbLine
 10
906.1120400855179
 20
-56.28201202304945
 30
0.0
 11
906.1120400855179
 21
-56.72701202304945
 31
0.0
  0
LINE
  5
461D0
330
45B3A
100
AcDbEntity
  8
0
 62
   242
 48
0.05
100
AcDbLine
 10
904.7120400855177
 20
-56.28201202304945
 30
0.0
 11
904.7120400855177
 21
-56.72701202304945
 31
0.0
  0
LINE
  5
461D1
330
45B3A
100
AcDbEntity
  8
0
 62
   242
 48
0.05
100
AcDbLine
 10
908.1120400855178
 20
-56.90701202304945
 30
0.0
 11
910.1120400855178
 21
-56.90701202304945
 31
0.0
  0
LINE
  5
461D2
330
45B3A
100
AcDbEntity
  8
0
 62
   242
 48
0.05
100
AcDbLine
 10
902.7120400855178
 20
-56.90701202304945
 30
0.0
 11
894.2825525671146
 21
-56.90701202304945
 31
0.0
  0
SOLID
  5
461D3
330
45B3A
100
AcDbEntity
  8
0
 62
   242
 48
0.05
100
AcDbTrace
 10
908.1120400855178
 20
-56.57367868971611
 30
0.0
 11
908.1120400855178
 21
-57.24034535638278
 31
0.0
 12
906.1120400855179
 22
-56.90701202304945
 32
0.0
 13
906.1120400855179
 23
-56.90701202304945
 33
0.0
  0
SOLID
  5
461D4
330
45B3A
100
AcDbEntity
  8
0
 62
   242
 48
0.05
100
AcDbTrace
 10
902.7120400855178
 20
-56.57367868971611
 30
0.0
 11
902.7120400855178
 21
-57.24034535638278
 31
0.0
 12
904.7120400855177
 22
-56.90701202304945
 32
0.0
 13
904.7120400855177
 23
-56.90701202304945
 33
0.0
  0
MTEXT
  5
461D5
330
45B3A
100
AcDbEntity
  8
0
 62
   242
 48
0.05
100
AcDbMText
 10
897.4972963263162
 20
-55.15701202304945
 30
0.0
 40
2.5
 41
0.0
 71
     5
 72
     1
  1
\A1;1.4
  7
ROMANT
1001
ACAD
1000
MTEXTBEGIN
1070
    73
1070
     1
1070
    44
1040
1.0
1070
    74
1070
     0
1000
MTEXTEND
  0
POINT
  5
461D6
330
45B3A
100
AcDbEntity
  8
DEFPOINTS
 62
     0
 48
0.05
100
AcDbPoint
 10
906.1120400855179
 20
-56.90701202304945
 30
0.0
  0
POINT
  5
461D7
330
45B3A
100
AcDbEntity
  8
DEFPOINTS
 62
     0
 48
0.05
100
AcDbPoint
 10
904.7120400855177
 20
-56.90701202304945
 30
0.0
  0
POINT
  5
461D8
330
45B3A
100
AcDbEntity
  8
DEFPOINTS
 62
     0
 48
0.05
100
AcDbPoint
 10
904.7120400855177
 20
-56.90701202304945
 30
0.0
  0
ENDBLK
  5
45B46
330
45B3A
100
AcDbEntity
  8
0
 48
0.05
100
AcDbBlockEnd
  0
BLOCK
  5
45B53
330
45B48
100
AcDbEntity
  8
0
 48
0.05
100
AcDbBlockBegin
  2
*D34
 70
     1
 10
0.0
 20
0.0
 30
0.0
  3
*D34
  1

  0
LINE
  5
461C5
330
45B48
100
AcDbEntity
  8
0
 62
   242
 48
0.05
100
AcDbLine
 10
914.3870400855178
 20
-52.60701202304947
 30
0.0
 11
914.8320400855178
 21
-52.60701202304947
 31
0.0
  0
LINE
  5
461C6
330
45B48
100
AcDbEntity
  8
0
 62
   242
 48
0.05
100
AcDbLine
 10
914.3870400855178
 20
-51.20701202304946
 30
0.0
 11
914.8320400855178
 21
-51.20701202304946
 31
0.0
  0
LINE
  5
461C7
330
45B48
100
AcDbEntity
  8
0
 62
   242
 48
0.05
100
AcDbLine
 10
915.0120400855177
 20
-54.60701202304946
 30
0.0
 11
915.0120400855177
 21
-56.60701202304946
 31
0.0
  0
LINE
  5
461C8
330
45B48
100
AcDbEntity
  8
0
 62
   242
 48
0.05
100
AcDbLine
 10
915.0120400855177
 20
-49.20701202304946
 30
0.0
 11
915.0120400855177
 21
-40.77752450464628
 31
0.0
  0
SOLID
  5
461C9
330
45B48
100
AcDbEntity
  8
0
 62
   242
 48
0.05
100
AcDbTrace
 10
914.6787067521843
 20
-54.60701202304946
 30
0.0
 11
915.3453734188511
 21
-54.60701202304946
 31
0.0
 12
915.0120400855177
 22
-52.60701202304947
 32
0.0
 13
915.0120400855177
 23
-52.60701202304947
 33
0.0
  0
SOLID
  5
461CA
330
45B48
100
AcDbEntity
  8
0
 62
   242
 48
0.05
100
AcDbTrace
 10
914.6787067521843
 20
-49.20701202304946
 30
0.0
 11
915.3453734188511
 21
-49.20701202304946
 31
0.0
 12
915.0120400855177
 22
-51.20701202304946
 32
0.0
 13
915.0120400855177
 23
-51.20701202304946
 33
0.0
  0
MTEXT
  5
461CB
330
45B48
100
AcDbEntity
  8
0
 62
   242
 48
0.05
100
AcDbMText
 10
913.2620400855177
 20
-43.99226826384771
 30
0.0
 40
2.5
 41
0.0
 71
     5
 72
     1
  1
\A1;1.4
  7
ROMANT
 11
0.0000000000000001
 21
1.0
 31
0.0
1001
ACAD
1000
MTEXTBEGIN
1070
    73
1070
     1
1070
    44
1040
1.0
1070
    74
1070
     0
1000
MTEXTEND
  0
POINT
  5
461CC
330
45B48
100
AcDbEntity
  8
DEFPOINTS
 62
     0
 48
0.05
100
AcDbPoint
 10
915.0120400855177
 20
-52.60701202304947
 30
0.0
  0
POINT
  5
461CD
330
45B48
100
AcDbEntity
  8
DEFPOINTS
 62
     0
 48
0.05
100
AcDbPoint
 10
915.0120400855177
 20
-51.20701202304946
 30
0.0
  0
POINT
  5
461CE
330
45B48
100
AcDbEntity
  8
DEFPOINTS
 62
     0
 48
0.05
100
AcDbPoint
 10
915.0120400855177
 20
-51.20701202304946
 30
0.0
  0
ENDBLK
  5
45B54
330
45B48
100
AcDbEntity
  8
0
 48
0.05
100
AcDbBlockEnd
  0
BLOCK
  5
45B6E
330
45B64
100
AcDbEntity
  8
0
 48
0.05
100
AcDbBlockBegin
  2
*D35
 70
     1
 10
0.0
 20
0.0
 30
0.0
  3
*D35
  1

  0
LINE
  5
461BC
330
45B64
100
AcDbEntity
  8
0
 62
   242
 48
0.05
100
AcDbLine
 10
922.1120400855177
 20
-69.03201202304946
 30
0.0
 11
922.1120400855177
 21
-77.86082586115918
 31
0.0
  0
LINE
  5
461BD
330
45B64
100
AcDbEntity
  8
0
 62
   242
 48
0.05
100
AcDbLine
 10
906.1120400855179
 20
-76.59112240163175
 30
0.0
 11
906.1120400855179
 21
-77.86082586115918
 31
0.0
  0
LINE
  5
461BE
330
45B64
100
AcDbEntity
  8
0
 62
   242
 48
0.05
100
AcDbLine
 10
920.1120400855177
 20
-77.68082586115918
 30
0.0
 11
908.1120400855178
 21
-77.68082586115918
 31
0.0
  0
SOLID
  5
461BF
330
45B64
100
AcDbEntity
  8
0
 62
   242
 48
0.05
100
AcDbTrace
 10
920.1120400855177
 20
-77.34749252782584
 30
0.0
 11
920.1120400855177
 21
-78.01415919449251
 31
0.0
 12
922.1120400855177
 22
-77.68082586115918
 32
0.0
 13
922.1120400855177
 23
-77.68082586115918
 33
0.0
  0
SOLID
  5
461C0
330
45B64
100
AcDbEntity
  8
0
 62
   242
 48
0.05
100
AcDbTrace
 10
908.1120400855178
 20
-77.34749252782584
 30
0.0
 11
908.1120400855178
 21
-78.01415919449251
 31
0.0
 12
906.1120400855179
 22
-77.68082586115918
 32
0.0
 13
906.1120400855179
 23
-77.68082586115918
 33
0.0
  0
MTEXT
  5
461C1
330
45B64
100
AcDbEntity
  8
0
 62
   242
 48
0.05
100
AcDbMText
 10
914.1120400855177
 20
-75.93082586115918
 30
0.0
 40
2.5
 41
0.0
 71
     5
 72
     1
  1
\A1;16
  7
ROMANT
1001
ACAD
1000
MTEXTBEGIN
1070
    73
1070
     1
1070
    44
1040
1.0
1070
    74
1070
     0
1000
MTEXTEND
  0
POINT
  5
461C2
330
45B64
100
AcDbEntity
  8
DEFPOINTS
 62
     0
 48
0.05
100
AcDbPoint
 10
922.1120400855177
 20
-68.40701202304946
 30
0.0
  0
POINT
  5
461C3
330
45B64
100
AcDbEntity
  8
DEFPOINTS
 62
     0
 48
0.05
100
AcDbPoint
 10
906.1120400855179
 20
-75.96612240163175
 30
0.0
  0
POINT
  5
461C4
330
45B64
100
AcDbEntity
  8
DEFPOINTS
 62
     0
 48
0.05
100
AcDbPoint
 10
906.1120400855179
 20
-77.68082586115918
 30
0.0
  0
ENDBLK
  5
45B6F
330
45B64
100
AcDbEntity
  8
0
 48
0.05
100
AcDbBlockEnd
  0
BLOCK
  5
45B7C
330
45B71
100
AcDbEntity
  8
0
 48
0.05
100
AcDbBlockBegin
  2
*D36
 70
     1
 10
0.0
 20
0.0
 30
0.0
  3
*D36
  1

  0
LINE
  5
461B2
330
45B71
100
AcDbEntity
  8
0
 62
   242
 48
0.05
100
AcDbLine
 10
922.1120400855177
 20
-69.03201202304946
 30
0.0
 11
922.1120400855177
 21
-77.86082586115918
 31
0.0
  0
LINE
  5
461B3
330
45B71
100
AcDbEntity
  8
0
 62
   242
 48
0.05
100
AcDbLine
 10
923.5120400855176
 20
-69.03201202304946
 30
0.0
 11
923.5120400855176
 21
-77.86082586115918
 31
0.0
  0
LINE
  5
461B4
330
45B71
100
AcDbEntity
  8
0
 62
   242
 48
0.05
100
AcDbLine
 10
920.1120400855177
 20
-77.68082586115918
 30
0.0
 11
918.1120400855176
 21
-77.68082586115918
 31
0.0
  0
LINE
  5
461B5
330
45B71
100
AcDbEntity
  8
0
 62
   242
 48
0.05
100
AcDbLine
 10
925.5120400855176
 20
-77.68082586115918
 30
0.0
 11
933.9415276039209
 21
-77.68082586115918
 31
0.0
  0
SOLID
  5
461B6
330
45B71
100
AcDbEntity
  8
0
 62
   242
 48
0.05
100
AcDbTrace
 10
920.1120400855177
 20
-77.34749252782584
 30
0.0
 11
920.1120400855177
 21
-78.01415919449251
 31
0.0
 12
922.1120400855177
 22
-77.68082586115918
 32
0.0
 13
922.1120400855177
 23
-77.68082586115918
 33
0.0
  0
SOLID
  5
461B7
330
45B71
100
AcDbEntity
  8
0
 62
   242
 48
0.05
100
AcDbTrace
 10
925.5120400855176
 20
-77.34749252782584
 30
0.0
 11
925.5120400855176
 21
-78.01415919449251
 31
0.0
 12
923.5120400855176
 22
-77.68082586115918
 32
0.0
 13
923.5120400855176
 23
-77.68082586115918
 33
0.0
  0
MTEXT
  5
461B8
330
45B71
100
AcDbEntity
  8
0
 62
   242
 48
0.05
100
AcDbMText
 10
930.7267838447193
 20
-75.93082586115918
 30
0.0
 40
2.5
 41
0.0
 71
     5
 72
     1
  1
\A1;1.4
  7
ROMANT
1001
ACAD
1000
MTEXTBEGIN
1070
    73
1070
     1
1070
    44
1040
1.0
1070
    74
1070
     0
1000
MTEXTEND
  0
POINT
  5
461B9
330
45B71
100
AcDbEntity
  8
DEFPOINTS
 62
     0
 48
0.05
100
AcDbPoint
 10
922.1120400855177
 20
-68.40701202304946
 30
0.0
  0
POINT
  5
461BA
330
45B71
100
AcDbEntity
  8
DEFPOINTS
 62
     0
 48
0.05
100
AcDbPoint
 10
923.5120400855176
 20
-68.40701202304946
 30
0.0
  0
POINT
  5
461BB
330
45B71
100
AcDbEntity
  8
DEFPOINTS
 62
     0
 48
0.05
100
AcDbPoint
 10
923.5120400855176
 20
-77.68082586115918
 30
0.0
  0
ENDBLK
  5
45B7D
330
45B71
100
AcDbEntity
  8
0
 48
0.05
100
AcDbBlockEnd
  0
BLOCK
  5
45BA7
330
45B9C
100
AcDbEntity
  8
0
 48
0.05
100
AcDbBlockBegin
  2
*D37
 70
     1
 10
0.0
 20
0.0
 30
0.0
  3
*D37
  1

  0
LINE
  5
465B9
330
45B9C
100
AcDbEntity
  8
0
 62
   242
 48
0.05
100
AcDbLine
 10
924.8370400855177
 20
-52.60701202304947
 30
0.0
 11
933.4454971991279
 21
-52.60701202304947
 31
0.0
  0
LINE
  5
465BA
330
45B9C
100
AcDbEntity
  8
0
 62
   242
 48
0.05
100
AcDbLine
 10
923.7370400855178
 20
-52.20701202304947
 30
0.0
 11
933.4454971991279
 21
-52.20701202304947
 31
0.0
  0
LINE
  5
465BB
330
45B9C
100
AcDbEntity
  8
0
 62
   242
 48
0.05
100
AcDbLine
 10
933.265497199128
 20
-54.60701202304946
 30
0.0
 11
933.265497199128
 21
-56.60701202304946
 31
0.0
  0
LINE
  5
465BC
330
45B9C
100
AcDbEntity
  8
0
 62
   242
 48
0.05
100
AcDbLine
 10
933.265497199128
 20
-50.20701202304947
 30
0.0
 11
933.265497199128
 21
-41.7860717391373
 31
0.0
  0
SOLID
  5
465BD
330
45B9C
100
AcDbEntity
  8
0
 62
   242
 48
0.05
100
AcDbTrace
 10
932.9321638657946
 20
-54.60701202304946
 30
0.0
 11
933.5988305324613
 21
-54.60701202304946
 31
0.0
 12
933.265497199128
 22
-52.60701202304947
 32
0.0
 13
933.265497199128
 23
-52.60701202304947
 33
0.0
  0
SOLID
  5
465BE
330
45B9C
100
AcDbEntity
  8
0
 62
   242
 48
0.05
100
AcDbTrace
 10
932.9321638657946
 20
-50.20701202304947
 30
0.0
 11
933.5988305324613
 21
-50.20701202304947
 31
0.0
 12
933.265497199128
 22
-52.20701202304947
 32
0.0
 13
933.265497199128
 23
-52.20701202304947
 33
0.0
  0
MTEXT
  5
465BF
330
45B9C
100
AcDbEntity
  8
0
 62
   242
 48
0.05
100
AcDbMText
 10
931.515497199128
 20
-44.99654188109324
 30
0.0
 40
2.5
 41
0.0
 71
     5
 72
     1
  1
\A1;0.4
  7
ROMANT
 11
0.0000000000000001
 21
1.0
 31
0.0
1001
ACAD
1000
MTEXTBEGIN
1070
    73
1070
     1
1070
    44
1040
1.0
1070
    74
1070
     0
1000
MTEXTEND
  0
POINT
  5
465C0
330
45B9C
100
AcDbEntity
  8
DEFPOINTS
 62
     0
 48
0.05
100
AcDbPoint
 10
924.2120400855178
 20
-52.60701202304947
 30
0.0
  0
POINT
  5
465C1
330
45B9C
100
AcDbEntity
  8
DEFPOINTS
 62
     0
 48
0.05
100
AcDbPoint
 10
923.1120400855179
 20
-52.20701202304947
 30
0.0
  0
POINT
  5
465C2
330
45B9C
100
AcDbEntity
  8
DEFPOINTS
 62
     0
 48
0.05
100
AcDbPoint
 10
933.265497199128
 20
-52.20701202304947
 30
0.0
  0
ENDBLK
  5
45BA8
330
45B9C
100
AcDbEntity
  8
0
 48
0.05
100
AcDbBlockEnd
  0
BLOCK
  5
45BCA
330
45BC0
100
AcDbEntity
  8
0
 48
0.05
100
AcDbBlockBegin
  2
*D38
 70
     1
 10
0.0
 20
0.0
 30
0.0
  3
*D38
  1

  0
LINE
  5
465E1
330
45BC0
100
AcDbEntity
  8
0
 62
   242
 48
0.05
100
AcDbLine
 10
896.4870400855177
 20
-150.2070120230494
 30
0.0
 11
878.4777582706578
 21
-150.2070120230494
 31
0.0
  0
LINE
  5
465E2
330
45BC0
100
AcDbEntity
  8
0
 62
   242
 48
0.05
100
AcDbLine
 10
906.4870400855179
 20
-110.2070120230494
 30
0.0
 11
878.4777582706578
 21
-110.2070120230494
 31
0.0
  0
LINE
  5
465E3
330
45BC0
100
AcDbEntity
  8
0
 62
   242
 48
0.05
100
AcDbLine
 10
878.6577582706577
 20
-148.2070120230494
 30
0.0
 11
878.6577582706577
 21
-112.2070120230494
 31
0.0
  0
SOLID
  5
465E4
330
45BC0
100
AcDbEntity
  8
0
 62
   242
 48
0.05
100
AcDbTrace
 10
878.3244249373243
 20
-148.2070120230494
 30
0.0
 11
878.9910916039911
 21
-148.2070120230494
 31
0.0
 12
878.6577582706577
 22
-150.2070120230494
 32
0.0
 13
878.6577582706577
 23
-150.2070120230494
 33
0.0
  0
SOLID
  5
465E5
330
45BC0
100
AcDbEntity
  8
0
 62
   242
 48
0.05
100
AcDbTrace
 10
878.3244249373243
 20
-112.2070120230494
 30
0.0
 11
878.9910916039911
 21
-112.2070120230494
 31
0.0
 12
878.6577582706577
 22
-110.2070120230494
 32
0.0
 13
878.6577582706577
 23
-110.2070120230494
 33
0.0
  0
MTEXT
  5
465E6
330
45BC0
100
AcDbEntity
  8
0
 62
   242
 48
0.05
100
AcDbMText
 10
876.9077582706577
 20
-130.2070120230493
 30
0.0
 40
2.5
 41
0.0
 71
     5
 72
     1
  1
\A1;40
  7
ROMANT
 11
0.0000000000000001
 21
1.0
 31
0.0
1001
ACAD
1000
MTEXTBEGIN
1070
    73
1070
     1
1070
    44
1040
1.0
1070
    74
1070
     0
1000
MTEXTEND
  0
POINT
  5
465E7
330
45BC0
100
AcDbEntity
  8
DEFPOINTS
 62
     0
 48
0.05
100
AcDbPoint
 10
897.1120400855177
 20
-150.2070120230494
 30
0.0
  0
POINT
  5
465E8
330
45BC0
100
AcDbEntity
  8
DEFPOINTS
 62
     0
 48
0.05
100
AcDbPoint
 10
907.1120400855178
 20
-110.2070120230494
 30
0.0
  0
POINT
  5
465E9
330
45BC0
100
AcDbEntity
  8
DEFPOINTS
 62
     0
 48
0.05
100
AcDbPoint
 10
878.6577582706577
 20
-110.2070120230494
 30
0.0
  0
ENDBLK
  5
45BCB
330
45BC0
100
AcDbEntity
  8
0
 48
0.05
100
AcDbBlockEnd
  0
BLOCK
  5
45BE0
330
45BD6
100
AcDbEntity
  8
0
 48
0.05
100
AcDbBlockBegin
  2
*D39
 70
     1
 10
0.0
 20
0.0
 30
0.0
  3
*D39
  1

  0
LINE
  5
463B3
330
45BD6
100
AcDbEntity
  8
0
 62
   242
 48
0.05
100
AcDbLine
 10
924.8370400855177
 20
-60.60701202304946
 30
0.0
 11
940.480232454103
 21
-60.60701202304946
 31
0.0
  0
LINE
  5
463B4
330
45BD6
100
AcDbEntity
  8
0
 62
   242
 48
0.05
100
AcDbLine
 10
923.4370400855178
 20
-68.60701202304946
 30
0.0
 11
940.480232454103
 21
-68.60701202304948
 31
0.0
  0
LINE
  5
463B5
330
45BD6
100
AcDbEntity
  8
0
 62
   242
 48
0.05
100
AcDbLine
 10
940.3002324541031
 20
-62.60701202304947
 30
0.0
 11
940.3002324541031
 21
-66.60701202304948
 31
0.0
  0
SOLID
  5
463B6
330
45BD6
100
AcDbEntity
  8
0
 62
   242
 48
0.05
100
AcDbTrace
 10
939.9668991207697
 20
-62.60701202304947
 30
0.0
 11
940.6335657874365
 21
-62.60701202304947
 31
0.0
 12
940.3002324541031
 22
-60.60701202304946
 32
0.0
 13
940.3002324541031
 23
-60.60701202304946
 33
0.0
  0
SOLID
  5
463B7
330
45BD6
100
AcDbEntity
  8
0
 62
   242
 48
0.05
100
AcDbTrace
 10
939.9668991207697
 20
-66.60701202304948
 30
0.0
 11
940.6335657874365
 21
-66.60701202304948
 31
0.0
 12
940.3002324541031
 22
-68.60701202304948
 32
0.0
 13
940.3002324541031
 23
-68.60701202304948
 33
0.0
  0
MTEXT
  5
463B8
330
45BD6
100
AcDbEntity
  8
0
 62
   242
 48
0.05
100
AcDbMText
 10
938.5502324541031
 20
-64.60701202304932
 30
0.0
 40
2.5
 41
0.0
 71
     5
 72
     1
  1
\A1;8
  7
ROMANT
 11
0.0000000000000001
 21
1.0
 31
0.0
1001
ACAD
1000
MTEXTBEGIN
1070
    73
1070
     1
1070
    44
1040
1.0
1070
    74
1070
     0
1000
MTEXTEND
  0
POINT
  5
463B9
330
45BD6
100
AcDbEntity
  8
DEFPOINTS
 62
     0
 48
0.05
100
AcDbPoint
 10
924.2120400855178
 20
-60.60701202304946
 30
0.0
  0
POINT
  5
463BA
330
45BD6
100
AcDbEntity
  8
DEFPOINTS
 62
     0
 48
0.05
100
AcDbPoint
 10
922.8120400855177
 20
-68.60701202304946
 30
0.0
  0
POINT
  5
463BB
330
45BD6
100
AcDbEntity
  8
DEFPOINTS
 62
     0
 48
0.05
100
AcDbPoint
 10
940.3002324541031
 20
-68.60701202304948
 30
0.0
  0
ENDBLK
  5
45BE1
330
45BD6
100
AcDbEntity
  8
0
 48
0.05
100
AcDbBlockEnd
  0
BLOCK
  5
45BEB
330
45BE3
100
AcDbEntity
  8
0
 48
0.05
100
AcDbBlockBegin
  2
*D40
 70
     1
 10
0.0
 20
0.0
 30
0.0
  3
*D40
  1

  0
LINE
  5
4618F
330
45BE3
100
AcDbEntity
  8
0
 62
   242
 48
0.05
100
AcDbLine
 10
930.1552173449318
 20
-72.63758609924924
 30
0.0
 11
924.3673279779409
 21
-62.66901394421797
 31
0.0
  0
MTEXT
  5
46190
330
45BE3
100
AcDbEntity
  8
0
 62
   242
 48
0.05
100
AcDbMText
 10
929.2767891632236
 20
-67.63939926550563
 30
0.0
 40
2.5
 41
0.0
 71
     5
 72
     1
  1
\A1;R0.5
  7
ROMANT
 11
0.5021151569688751
 21
-0.8648007684675828
 31
0.0
1001
ACAD
1000
MTEXTBEGIN
1070
    73
1070
     1
1070
    44
1040
1.0
1070
    74
1070
     0
1000
MTEXTEND
  0
SOLID
  5
46191
330
45BE3
100
AcDbEntity
  8
0
 62
   242
 48
0.05
100
AcDbTrace
 10
924.6555949007635
 20
-62.50164222522835
 30
0.0
 11
924.0790610551185
 21
-62.83638566320764
 31
0.0
 12
923.363097664003
 22
-60.93941240728281
 32
0.0
 13
923.363097664003
 23
-60.93941240728281
 33
0.0
  0
LINE
  5
46192
330
45BE3
100
AcDbEntity
  8
0
 62
   242
 48
0.05
100
AcDbLine
 10
923.0220400855191
 20
-60.50701202304924
 30
0.0
 11
923.2020400855192
 21
-60.50701202304924
 31
0.0
  0
LINE
  5
46193
330
45BE3
100
AcDbEntity
  8
0
 62
   242
 48
0.05
100
AcDbLine
 10
923.1120400855191
 20
-60.59701202304933
 30
0.0
 11
923.1120400855191
 21
-60.41701202304927
 31
0.0
  0
POINT
  5
46194
330
45BE3
100
AcDbEntity
  8
DEFPOINTS
 62
     0
 48
0.05
100
AcDbPoint
 10
923.363097664003
 20
-60.93941240728281
 30
0.0
  0
POINT
  5
46195
330
45BE3
100
AcDbEntity
  8
DEFPOINTS
 62
     0
 48
0.05
100
AcDbPoint
 10
923.1120400855191
 20
-60.5070120230493
 30
0.0
  0
ENDBLK
  5
45BEC
330
45BE3
100
AcDbEntity
  8
0
 48
0.05
100
AcDbBlockEnd
  0
BLOCK
  5
45F15
330
45F0B
100
AcDbEntity
  8
0
 48
0.05
100
AcDbBlockBegin
  2
*D41
 70
     1
 10
0.0
 20
0.0
 30
0.0
  3
*D41
  1

  0
LINE
  5
46627
330
45F0B
100
AcDbEntity
  8
0
 62
   242
 48
0.05
100
AcDbLine
 10
938.7370400855179
 20
-150.2070120230494
 30
0.0
 11
973.5852289861568
 21
-150.2070120230495
 31
0.0
  0
LINE
  5
46628
330
45F0B
100
AcDbEntity
  8
0
 62
   242
 48
0.05
100
AcDbLine
 10
924.3370400855178
 20
-51.20701202304946
 30
0.0
 11
973.5852289861568
 21
-51.20701202304946
 31
0.0
  0
LINE
  5
46629
330
45F0B
100
AcDbEntity
  8
0
 62
   242
 48
0.05
100
AcDbLine
 10
973.4052289861569
 20
-148.2070120230495
 30
0.0
 11
973.4052289861569
 21
-53.20701202304946
 31
0.0
  0
SOLID
  5
4662A
330
45F0B
100
AcDbEntity
  8
0
 62
   242
 48
0.05
100
AcDbTrace
 10
973.0718956528235
 20
-148.2070120230495
 30
0.0
 11
973.7385623194903
 21
-148.2070120230495
 31
0.0
 12
973.4052289861569
 22
-150.2070120230495
 32
0.0
 13
973.4052289861569
 23
-150.2070120230495
 33
0.0
  0
SOLID
  5
4662B
330
45F0B
100
AcDbEntity
  8
0
 62
   242
 48
0.05
100
AcDbTrace
 10
973.0718956528235
 20
-53.20701202304946
 30
0.0
 11
973.7385623194903
 21
-53.20701202304946
 31
0.0
 12
973.4052289861569
 22
-51.20701202304946
 32
0.0
 13
973.4052289861569
 23
-51.20701202304946
 33
0.0
  0
MTEXT
  5
4662C
330
45F0B
100
AcDbEntity
  8
0
 62
   242
 48
0.05
100
AcDbMText
 10
971.6552289861569
 20
-100.7070120230493
 30
0.0
 40
2.5
 41
0.0
 71
     5
 72
     1
  1
\A1;99±1
  7
ROMANT
 11
0.0000000000000001
 21
1.0
 31
0.0
1001
ACAD
1000
MTEXTBEGIN
1070
    73
1070
     1
1070
    44
1040
1.0
1070
    74
1070
     0
1000
MTEXTEND
  0
POINT
  5
4662D
330
45F0B
100
AcDbEntity
  8
DEFPOINTS
 62
     0
 48
0.05
100
AcDbPoint
 10
938.1120400855179
 20
-150.2070120230494
 30
0.0
  0
POINT
  5
4662E
330
45F0B
100
AcDbEntity
  8
DEFPOINTS
 62
     0
 48
0.05
100
AcDbPoint
 10
923.7120400855179
 20
-51.20701202304946
 30
0.0
  0
POINT
  5
4662F
330
45F0B
100
AcDbEntity
  8
DEFPOINTS
 62
     0
 48
0.05
100
AcDbPoint
 10
973.4052289861569
 20
-51.20701202304946
 30
0.0
  0
ENDBLK
  5
45F16
330
45F0B
100
AcDbEntity
  8
0
 48
0.05
100
AcDbBlockEnd
  0
BLOCK
  5
46321
330
46319
100
AcDbEntity
  8
0
 48
0.05
100
AcDbBlockBegin
  2
*D42
 70
     1
 10
0.0
 20
0.0
 30
0.0
  3
*D42
  1

  0
LINE
  5
4631A
330
46319
100
AcDbEntity
  8
0
 62
   242
 48
0.05
100
AcDbLine
 10
897.9474455512063
 20
-65.56396577780294
 30
0.0
 11
904.5967051365426
 21
-61.24197076701335
 31
0.0
  0
MTEXT
  5
4631B
330
46319
100
AcDbEntity
  8
0
 62
   242
 48
0.05
100
AcDbMText
 10
899.2408985522134
 20
-62.63602876611185
 30
0.0
 40
2.5
 41
0.0
 71
     5
 72
     1
  1
\A1;R1
  7
ROMANT
 11
0.8384449829916421
 21
0.5449862479880986
 31
0.0
1001
ACAD
1000
MTEXTBEGIN
1070
    73
1070
     1
1070
    44
1040
1.0
1070
    74
1070
     0
1000
MTEXTEND
  0
SOLID
  5
4631C
330
46319
100
AcDbEntity
  8
0
 62
   242
 48
0.05
100
AcDbTrace
 10
904.4150430538799
 20
-60.96248910601611
 30
0.0
 11
904.7783672192053
 21
-61.52145242801061
 31
0.0
 12
906.2735951025258
 22
-60.15199827103714
 32
0.0
 13
906.2735951025258
 23
-60.15199827103714
 33
0.0
  0
LINE
  5
4631D
330
46319
100
AcDbEntity
  8
0
 62
   242
 48
0.05
100
AcDbLine
 10
907.0220400855168
 20
-59.60701202304943
 30
0.0
 11
907.2020400855171
 21
-59.60701202304943
 31
0.0
  0
LINE
  5
4631E
330
46319
100
AcDbEntity
  8
0
 62
   242
 48
0.05
100
AcDbLine
 10
907.1120400855171
 20
-59.69701202304946
 30
0.0
 11
907.112040085517
 21
-59.51701202304935
 31
0.0
  0
POINT
  5
4631F
330
46319
100
AcDbEntity
  8
DEFPOINTS
 62
     0
 48
0.05
100
AcDbPoint
 10
906.2735951025258
 20
-60.15199827103714
 30
0.0
  0
POINT
  5
46320
330
46319
100
AcDbEntity
  8
DEFPOINTS
 62
     0
 48
0.05
100
AcDbPoint
 10
907.112040085517
 20
-59.60701202304943
 30
0.0
  0
ENDBLK
  5
46322
330
46319
100
AcDbEntity
  8
0
 48
0.05
100
AcDbBlockEnd
  0
BLOCK
  5
4633B
330
46331
100
AcDbEntity
  8
0
 48
0.05
100
AcDbBlockBegin
  2
*D43
 70
     1
 10
0.0
 20
0.0
 30
0.0
  3
*D43
  1

  0
LINE
  5
463DA
330
46331
100
AcDbEntity
  8
0
 62
   242
 48
0.05
100
AcDbLine
 10
931.6120400855178
 20
-134.7820120230494
 30
0.0
 11
931.6120400855178
 21
-93.76791795170504
 31
0.0
  0
LINE
  5
463DB
330
46331
100
AcDbEntity
  8
0
 62
   242
 48
0.05
100
AcDbLine
 10
904.7120400855177
 20
-93.50291795170505
 30
0.0
 11
904.7120400855177
 21
-93.76791795170504
 31
0.0
  0
LINE
  5
463DC
330
46331
100
AcDbEntity
  8
0
 62
   242
 48
0.05
100
AcDbLine
 10
929.6120400855176
 20
-93.94791795170505
 30
0.0
 11
906.7120400855179
 21
-93.94791795170505
 31
0.0
  0
SOLID
  5
463DD
330
46331
100
AcDbEntity
  8
0
 62
   242
 48
0.05
100
AcDbTrace
 10
929.6120400855176
 20
-93.61458461837171
 30
0.0
 11
929.6120400855176
 21
-94.28125128503838
 31
0.0
 12
931.6120400855178
 22
-93.94791795170505
 32
0.0
 13
931.6120400855178
 23
-93.94791795170505
 33
0.0
  0
SOLID
  5
463DE
330
46331
100
AcDbEntity
  8
0
 62
   242
 48
0.05
100
AcDbTrace
 10
906.7120400855179
 20
-93.61458461837171
 30
0.0
 11
906.7120400855179
 21
-94.28125128503838
 31
0.0
 12
904.7120400855177
 22
-93.94791795170505
 32
0.0
 13
904.7120400855177
 23
-93.94791795170505
 33
0.0
  0
MTEXT
  5
463DF
330
46331
100
AcDbEntity
  8
0
 62
   242
 48
0.05
100
AcDbMText
 10
918.1620400855178
 20
-92.19791795170506
 30
0.0
 40
2.5
 41
0.0
 71
     5
 72
     1
  1
\A1;26.9
  7
ROMANT
1001
ACAD
1000
MTEXTBEGIN
1070
    73
1070
     1
1070
    44
1040
1.0
1070
    74
1070
     0
1000
MTEXTEND
  0
POINT
  5
463E0
330
46331
100
AcDbEntity
  8
DEFPOINTS
 62
     0
 48
0.05
100
AcDbPoint
 10
931.6120400855178
 20
-135.4070120230494
 30
0.0
  0
POINT
  5
463E1
330
46331
100
AcDbEntity
  8
DEFPOINTS
 62
     0
 48
0.05
100
AcDbPoint
 10
904.7120400855177
 20
-94.12791795170505
 30
0.0
  0
POINT
  5
463E2
330
46331
100
AcDbEntity
  8
DEFPOINTS
 62
     0
 48
0.05
100
AcDbPoint
 10
904.7120400855177
 20
-93.94791795170505
 30
0.0
  0
ENDBLK
  5
4633C
330
46331
100
AcDbEntity
  8
0
 48
0.05
100
AcDbBlockEnd
  0
BLOCK
  5
46555
330
4654D
100
AcDbEntity
  8
0
 48
0.05
100
AcDbBlockBegin
  2
*D44
 70
     1
 10
0.0
 20
0.0
 30
0.0
  3
*D44
  1

  0
LINE
  5
4654E
330
4654D
100
AcDbEntity
  8
0
 62
   242
 48
0.05
100
AcDbLine
 10
922.6655882015524
 20
-103.4748061933111
 30
0.0
 11
917.2419373969821
 21
-109.2833737641568
 31
0.0
  0
MTEXT
  5
4654F
330
4654D
100
AcDbEntity
  8
0
 62
   242
 48
0.05
100
AcDbMText
 10
919.3571453888679
 20
-104.4538503402451
 30
0.0
 40
2.5
 41
0.0
 71
     5
 72
     1
  1
\A1;R2
  7
ROMANT
 11
0.6824743278661796
 21
0.7309095647230281
 31
0.0
1001
ACAD
1000
MTEXTBEGIN
1070
    73
1070
     1
1070
    44
1040
1.0
1070
    74
1070
     0
1000
MTEXTEND
  0
SOLID
  5
46550
330
4654D
100
AcDbEntity
  8
0
 62
   242
 48
0.05
100
AcDbTrace
 10
916.9983008754076
 20
-109.0558823215348
 30
0.0
 11
917.4855739185563
 21
-109.5108652067789
 31
0.0
 12
915.8769887412498
 22
-110.7451928936029
 32
0.0
 13
915.8769887412498
 23
-110.7451928936029
 33
0.0
  0
LINE
  5
46551
330
4654D
100
AcDbEntity
  8
0
 62
   242
 48
0.05
100
AcDbLine
 10
914.4220400855164
 20
-112.2070120230498
 30
0.0
 11
914.6020400855165
 21
-112.2070120230498
 31
0.0
  0
LINE
  5
46552
330
4654D
100
AcDbEntity
  8
0
 62
   242
 48
0.05
100
AcDbLine
 10
914.5120400855164
 20
-112.2970120230497
 30
0.0
 11
914.5120400855164
 21
-112.1170120230498
 31
0.0
  0
POINT
  5
46553
330
4654D
100
AcDbEntity
  8
DEFPOINTS
 62
     0
 48
0.05
100
AcDbPoint
 10
915.8769887412498
 20
-110.7451928936029
 30
0.0
  0
POINT
  5
46554
330
4654D
100
AcDbEntity
  8
DEFPOINTS
 62
     0
 48
0.05
100
AcDbPoint
 10
914.5120400855164
 20
-112.2070120230498
 30
0.0
  0
ENDBLK
  5
46556
330
4654D
100
AcDbEntity
  8
0
 48
0.05
100
AcDbBlockEnd
  0
BLOCK
  5
46560
330
46558
100
AcDbEntity
  8
0
 48
0.05
100
AcDbBlockBegin
  2
*D45
 70
     1
 10
0.0
 20
0.0
 30
0.0
  3
*D45
  1

  0
LINE
  5
46559
330
46558
100
AcDbEntity
  8
0
 62
   242
 48
0.05
100
AcDbLine
 10
896.1083342257948
 20
-105.8785480041827
 30
0.0
 11
904.5526062748335
 21
-111.041988518841
 31
0.0
  0
MTEXT
  5
4655A
330
46558
100
AcDbEntity
  8
0
 62
   242
 48
0.05
100
AcDbMText
 10
899.3078410877082
 20
-105.7837236886576
 30
0.0
 40
2.5
 41
0.0
 71
     5
 72
     1
  1
\A1;R1
  7
ROMANT
 11
0.8531446035615292
 21
-0.5216745014027821
 31
0.0
1001
ACAD
1000
MTEXTBEGIN
1070
    73
1070
     1
1070
    44
1040
1.0
1070
    74
1070
     0
1000
MTEXTEND
  0
SOLID
  5
4655B
330
46558
100
AcDbEntity
  8
0
 62
   242
 48
0.05
100
AcDbTrace
 10
904.7264977753011
 20
-110.7576069843205
 30
0.0
 11
904.3787147743657
 21
-111.3263700533615
 31
0.0
 12
906.2588954819565
 22
-112.0853375216465
 32
0.0
 13
906.2588954819565
 23
-112.0853375216465
 33
0.0
  0
LINE
  5
4655C
330
46558
100
AcDbEntity
  8
0
 62
   242
 48
0.05
100
AcDbLine
 10
907.0220400855179
 20
-112.6070120230493
 30
0.0
 11
907.2020400855178
 21
-112.6070120230493
 31
0.0
  0
LINE
  5
4655D
330
46558
100
AcDbEntity
  8
0
 62
   242
 48
0.05
100
AcDbLine
 10
907.1120400855178
 20
-112.6970120230493
 30
0.0
 11
907.1120400855178
 21
-112.5170120230493
 31
0.0
  0
POINT
  5
4655E
330
46558
100
AcDbEntity
  8
DEFPOINTS
 62
     0
 48
0.05
100
AcDbPoint
 10
906.2588954819565
 20
-112.0853375216465
 30
0.0
  0
POINT
  5
4655F
330
46558
100
AcDbEntity
  8
DEFPOINTS
 62
     0
 48
0.05
100
AcDbPoint
 10
907.1120400855177
 20
-112.6070120230493
 30
0.0
  0
ENDBLK
  5
46561
330
46558
100
AcDbEntity
  8
0
 48
0.05
100
AcDbBlockEnd
  0
BLOCK
  5
4656B
330
46563
100
AcDbEntity
  8
0
 48
0.05
100
AcDbBlockBegin
  2
*D46
 70
     1
 10
0.0
 20
0.0
 30
0.0
  3
*D46
  1

  0
LINE
  5
46564
330
46563
100
AcDbEntity
  8
0
 62
   242
 48
0.05
100
AcDbLine
 10
910.6561781020044
 20
-148.7467143462807
 30
0.0
 11
917.4574690092393
 21
-145.9329656150761
 31
0.0
  0
MTEXT
  5
46565
330
46563
100
AcDbEntity
  8
0
 62
   242
 48
0.05
100
AcDbMText
 10
912.4637807646413
 20
-146.1050466108771
 30
0.0
 40
2.5
 41
0.0
 71
     5
 72
     1
  1
\A1;R1
  7
ROMANT
 11
0.9240446001557319
 21
0.3822846804712863
 31
0.0
1001
ACAD
1000
MTEXTBEGIN
1070
    73
1070
     1
1070
    44
1040
1.0
1070
    74
1070
     0
1000
MTEXTEND
  0
SOLID
  5
46566
330
46563
100
AcDbEntity
  8
0
 62
   242
 48
0.05
100
AcDbTrace
 10
917.3300407824156
 20
-145.6249507483575
 30
0.0
 11
917.5848972360631
 21
-146.2409804817946
 31
0.0
 12
919.3055582095508
 22
-145.1683962541335
 32
0.0
 13
919.3055582095508
 23
-145.1683962541335
 33
0.0
  0
LINE
  5
46567
330
46563
100
AcDbEntity
  8
0
 62
   242
 48
0.05
100
AcDbLine
 10
920.1396028097063
 20
-144.7861115736623
 30
0.0
 11
920.3196028097064
 21
-144.7861115736623
 31
0.0
  0
LINE
  5
46568
330
46563
100
AcDbEntity
  8
0
 62
   242
 48
0.05
100
AcDbLine
 10
920.2296028097064
 20
-144.8761115736624
 30
0.0
 11
920.2296028097064
 21
-144.6961115736623
 31
0.0
  0
POINT
  5
46569
330
46563
100
AcDbEntity
  8
DEFPOINTS
 62
     0
 48
0.05
100
AcDbPoint
 10
919.3055582095508
 20
-145.1683962541335
 30
0.0
  0
POINT
  5
4656A
330
46563
100
AcDbEntity
  8
DEFPOINTS
 62
     0
 48
0.05
100
AcDbPoint
 10
920.2296028097064
 20
-144.7861115736623
 30
0.0
  0
ENDBLK
  5
4656C
330
46563
100
AcDbEntity
  8
0
 48
0.05
100
AcDbBlockEnd
  0
BLOCK
  5
46579
330
4656E
100
AcDbEntity
  8
0
 48
0.05
100
AcDbBlockBegin
  2
*D47
 70
     1
 10
0.0
 20
0.0
 30
0.0
  3
*D47
  1

  0
LINE
  5
4656F
330
4656E
100
AcDbEntity
  8
0
 62
   242
 48
0.05
100
AcDbLine
 10
914.737040085518
 20
-111.6070120230494
 30
0.0
 11
927.7778261310208
 21
-111.6070120230494
 31
0.0
  0
LINE
  5
46570
330
4656E
100
AcDbEntity
  8
0
 62
   242
 48
0.05
100
AcDbLine
 10
914.7370400855182
 20
-110.2070120230494
 30
0.0
 11
927.7778261310208
 21
-110.2070120230494
 31
0.0
  0
LINE
  5
46571
330
4656E
100
AcDbEntity
  8
0
 62
   242
 48
0.05
100
AcDbLine
 10
927.5978261310209
 20
-113.6070120230494
 30
0.0
 11
927.5978261310209
 21
-115.6070120230494
 31
0.0
  0
LINE
  5
46572
330
4656E
100
AcDbEntity
  8
0
 62
   242
 48
0.05
100
AcDbLine
 10
927.5978261310209
 20
-108.2070120230494
 30
0.0
 11
927.5978261310209
 21
-99.77752450464629
 31
0.0
  0
SOLID
  5
46573
330
4656E
100
AcDbEntity
  8
0
 62
   242
 48
0.05
100
AcDbTrace
 10
927.2644927976875
 20
-113.6070120230494
 30
0.0
 11
927.9311594643543
 21
-113.6070120230494
 31
0.0
 12
927.5978261310209
 22
-111.6070120230494
 32
0.0
 13
927.5978261310209
 23
-111.6070120230494
 33
0.0
  0
SOLID
  5
46574
330
4656E
100
AcDbEntity
  8
0
 62
   242
 48
0.05
100
AcDbTrace
 10
927.2644927976875
 20
-108.2070120230494
 30
0.0
 11
927.9311594643543
 21
-108.2070120230494
 31
0.0
 12
927.5978261310209
 22
-110.2070120230494
 32
0.0
 13
927.5978261310209
 23
-110.2070120230494
 33
0.0
  0
MTEXT
  5
46575
330
4656E
100
AcDbEntity
  8
0
 62
   242
 48
0.05
100
AcDbMText
 10
925.8478261310209
 20
-102.9922682638477
 30
0.0
 40
2.5
 41
0.0
 71
     5
 72
     1
  1
\A1;1.4
  7
ROMANT
 11
0.0000000000000001
 21
1.0
 31
0.0
1001
ACAD
1000
MTEXTBEGIN
1070
    73
1070
     1
1070
    44
1040
1.0
1070
    74
1070
     0
1000
MTEXTEND
  0
POINT
  5
46576
330
4656E
100
AcDbEntity
  8
DEFPOINTS
 62
     0
 48
0.05
100
AcDbPoint
 10
914.112040085518
 20
-111.6070120230494
 30
0.0
  0
POINT
  5
46577
330
4656E
100
AcDbEntity
  8
DEFPOINTS
 62
     0
 48
0.05
100
AcDbPoint
 10
914.1120400855182
 20
-110.2070120230494
 30
0.0
  0
POINT
  5
46578
330
4656E
100
AcDbEntity
  8
DEFPOINTS
 62
     0
 48
0.05
100
AcDbPoint
 10
927.5978261310209
 20
-110.2070120230494
 30
0.0
  0
ENDBLK
  5
4657A
330
4656E
100
AcDbEntity
  8
0
 48
0.05
100
AcDbBlockEnd
  0
BLOCK
  5
465CC
330
465C4
100
AcDbEntity
  8
0
 48
0.05
100
AcDbBlockBegin
  2
*D49
 70
     1
 10
0.0
 20
0.0
 30
0.0
  3
*D49
  1

  0
LINE
  5
465C5
330
465C4
100
AcDbEntity
  8
0
 62
   242
 48
0.05
100
AcDbLine
 10
929.6857794912105
 20
-41.19905018415795
 30
0.0
 11
925.1429435465837
 21
-49.570249749899
 31
0.0
  0
MTEXT
  5
465C6
330
465C4
100
AcDbEntity
  8
0
 62
   242
 48
0.05
100
AcDbMText
 10
926.8693111348557
 20
-42.72001757627964
 30
0.0
 40
2.5
 41
0.0
 71
     5
 72
     1
  1
\A1;R1
  7
ROMANT
 11
0.4769678203556452
 21
0.8789207577166356
 31
0.0
1001
ACAD
1000
MTEXTBEGIN
1070
    73
1070
     1
1070
    44
1040
1.0
1070
    74
1070
     0
1000
MTEXTEND
  0
SOLID
  5
465C7
330
465C4
100
AcDbEntity
  8
0
 62
   242
 48
0.05
100
AcDbTrace
 10
924.849969960678
 20
-49.41126047644712
 30
0.0
 11
925.4359171324892
 21
-49.72923902335089
 31
0.0
 12
924.1890079058725
 22
-51.32809126533231
 32
0.0
 13
924.1890079058725
 23
-51.32809126533231
 33
0.0
  0
LINE
  5
465C8
330
465C4
100
AcDbEntity
  8
0
 62
   242
 48
0.05
100
AcDbLine
 10
923.6220400855163
 20
-52.20701202304951
 30
0.0
 11
923.8020400855164
 21
-52.20701202304957
 31
0.0
  0
LINE
  5
465C9
330
465C4
100
AcDbEntity
  8
0
 62
   242
 48
0.05
100
AcDbLine
 10
923.7120400855165
 20
-52.29701202304955
 30
0.0
 11
923.7120400855165
 21
-52.11701202304954
 31
0.0
  0
POINT
  5
465CA
330
465C4
100
AcDbEntity
  8
DEFPOINTS
 62
     0
 48
0.05
100
AcDbPoint
 10
924.1890079058725
 20
-51.32809126533231
 30
0.0
  0
POINT
  5
465CB
330
465C4
100
AcDbEntity
  8
DEFPOINTS
 62
     0
 48
0.05
100
AcDbPoint
 10
923.7120400855165
 20
-52.20701202304951
 30
0.0
  0
ENDBLK
  5
465CD
330
465C4
100
AcDbEntity
  8
0
 48
0.05
100
AcDbBlockEnd
  0
BLOCK
  5
465F3
330
465EB
100
AcDbEntity
  8
0
 48
0.05
100
AcDbBlockBegin
  2
*D50
 70
     1
 10
0.0
 20
0.0
 30
0.0
  3
*D50
  1

  0
LINE
  5
465EC
330
465EB
100
AcDbEntity
  8
0
 62
   242
 48
0.05
100
AcDbLine
 10
892.3137984878261
 20
-159.7305166800506
 30
0.0
 11
895.5551806744768
 21
-151.974985343565
 31
0.0
  0
MTEXT
  5
465ED
330
465EB
100
AcDbEntity
  8
0
 62
   242
 48
0.05
100
AcDbMText
 10
891.7326757817892
 20
-156.5827981076916
 30
0.0
 40
2.5
 41
0.0
 71
     5
 72
     1
  1
\A1;R1
  7
ROMANT
 11
0.3856198036805625
 21
0.922657773505087
 31
0.0
1001
ACAD
1000
MTEXTBEGIN
1070
    73
1070
     1
1070
    44
1040
1.0
1070
    74
1070
     0
1000
MTEXTEND
  0
SOLID
  5
465EE
330
465EB
100
AcDbEntity
  8
0
 62
   242
 48
0.05
100
AcDbTrace
 10
895.2476280833083
 20
-151.8464454090047
 30
0.0
 11
895.8627332656451
 21
-152.1035252781252
 31
0.0
 12
896.3264202818377
 22
-150.1296697965548
 32
0.0
 13
896.3264202818377
 23
-150.1296697965548
 33
0.0
  0
LINE
  5
465EF
330
465EB
100
AcDbEntity
  8
0
 62
   242
 48
0.05
100
AcDbLine
 10
896.6220400855185
 20
-149.2070120230496
 30
0.0
 11
896.8020400855186
 21
-149.2070120230496
 31
0.0
  0
LINE
  5
465F0
330
465EB
100
AcDbEntity
  8
0
 62
   242
 48
0.05
100
AcDbLine
 10
896.7120400855186
 20
-149.2970120230497
 30
0.0
 11
896.7120400855186
 21
-149.1170120230497
 31
0.0
  0
POINT
  5
465F1
330
465EB
100
AcDbEntity
  8
DEFPOINTS
 62
     0
 48
0.05
100
AcDbPoint
 10
896.3264202818377
 20
-150.1296697965548
 30
0.0
  0
POINT
  5
465F2
330
465EB
100
AcDbEntity
  8
DEFPOINTS
 62
     0
 48
0.05
100
AcDbPoint
 10
896.7120400855185
 20
-149.2070120230496
 30
0.0
  0
ENDBLK
  5
465F4
330
465EB
100
AcDbEntity
  8
0
 48
0.05
100
AcDbBlockEnd
  0
BLOCK
  5
46639
330
46631
100
AcDbEntity
  8
0
 48
0.05
100
AcDbBlockBegin
  2
*D51
 70
     1
 10
0.0
 20
0.0
 30
0.0
  3
*D51
  1

  0
LINE
  5
46632
330
46631
100
AcDbEntity
  8
0
 62
   242
 48
0.05
100
AcDbLine
 10
946.1921788936635
 20
-165.1916402882814
 30
0.0
 11
939.465436239616
 21
-151.8843836539727
 31
0.0
  0
MTEXT
  5
46633
330
46631
100
AcDbEntity
  8
0
 62
   242
 48
0.05
100
AcDbMText
 10
946.5448663528015
 20
-162.0102180644307
 30
0.0
 40
2.5
 41
0.0
 71
     5
 72
     1
  1
\A1;R1
  7
ROMANT
 11
0.451132051366003
 21
-0.8924572103077558
 31
0.0
1001
ACAD
1000
MTEXTBEGIN
1070
    73
1070
     1
1070
    44
1040
1.0
1070
    74
1070
     0
1000
MTEXTEND
  0
SOLID
  5
46634
330
46631
100
AcDbEntity
  8
0
 62
   242
 48
0.05
100
AcDbTrace
 10
939.7629219763851
 20
-151.7340063035173
 30
0.0
 11
939.1679505028466
 21
-152.034761004428
 31
0.0
 12
938.563172136884
 22
-150.0994692333572
 32
0.0
 13
938.563172136884
 23
-150.0994692333572
 33
0.0
  0
LINE
  5
46635
330
46631
100
AcDbEntity
  8
0
 62
   242
 48
0.05
100
AcDbLine
 10
938.0220400855177
 20
-149.2070120230492
 30
0.0
 11
938.2020400855179
 21
-149.2070120230492
 31
0.0
  0
LINE
  5
46636
330
46631
100
AcDbEntity
  8
0
 62
   242
 48
0.05
100
AcDbLine
 10
938.1120400855179
 20
-149.2970120230492
 30
0.0
 11
938.1120400855179
 21
-149.1170120230492
 31
0.0
  0
POINT
  5
46637
330
46631
100
AcDbEntity
  8
DEFPOINTS
 62
     0
 48
0.05
100
AcDbPoint
 10
938.563172136884
 20
-150.0994692333572
 30
0.0
  0
POINT
  5
46638
330
46631
100
AcDbEntity
  8
DEFPOINTS
 62
     0
 48
0.05
100
AcDbPoint
 10
938.1120400855179
 20
-149.2070120230491
 30
0.0
  0
ENDBLK
  5
4663A
330
46631
100
AcDbEntity
  8
0
 48
0.05
100
AcDbBlockEnd
  0
ENDSEC
  0
SECTION
  2
ENTITIES
  0
POLYLINE
  5
4657C
330
2
100
AcDbEntity
  8
0
 48
0.05
100
AcDb2dPolyline
 66
     1
 10
0.0
 20
0.0
 30
0.0
 70
     1
  0
VERTEX
  5
466A2
330
4657C
100
AcDbEntity
  8
0
 48
0.05
100
AcDbVertex
100
AcDb2dVertex
 10
1009.292745890034
 20
13.86152701650461
 30
0.0
  0
VERTEX
  5
466A3
330
4657C
100
AcDbEntity
  8
0
 48
0.05
100
AcDbVertex
100
AcDb2dVertex
 10
1009.292745890034
 20
14.86152701650459
 30
0.0
 42
0.4142135623730326
  0
VERTEX
  5
466A4
330
4657C
100
AcDbEntity
  8
0
 48
0.05
100
AcDbVertex
100
AcDb2dVertex
 10
1009.092745890034
 20
15.06152701650458
 30
0.0
  0
VERTEX
  5
466A5
330
4657C
100
AcDbEntity
  8
0
 48
0.05
100
AcDbVertex
100
AcDb2dVertex
 10
1008.492745890034
 20
15.06152701650458
 30
0.0
 42
0.2360679774997477
  0
VERTEX
  5
466A6
330
4657C
100
AcDbEntity
  8
0
 48
0.05
100
AcDbVertex
100
AcDb2dVertex
 10
1008.092745890034
 20
14.86152701650459
 30
0.0
 42
-0.4999999999999715
  0
VERTEX
  5
466A7
330
4657C
100
AcDbEntity
  8
0
 48
0.05
100
AcDbVertex
100
AcDb2dVertex
 10
1007.292745890034
 20
14.86152701650456
 30
0.0
 42
0.2360679774997537
  0
VERTEX
  5
466A8
330
4657C
100
AcDbEntity
  8
0
 48
0.05
100
AcDbVertex
100
AcDb2dVertex
 10
1006.892745890034
 20
15.06152701650458
 30
0.0
  0
VERTEX
  5
466A9
330
4657C
100
AcDbEntity
  8
0
 48
0.05
100
AcDbVertex
100
AcDb2dVertex
 10
991.6927458900342
 20
15.06152701650459
 30
0.0
 42
-0.4142135623730951
  0
VERTEX
  5
466AA
330
4657C
100
AcDbEntity
  8
0
 48
0.05
100
AcDbVertex
100
AcDb2dVertex
 10
990.6927458900343
 20
16.0615270165046
 30
0.0
  0
VERTEX
  5
466AB
330
4657C
100
AcDbEntity
  8
0
 48
0.05
100
AcDbVertex
100
AcDb2dVertex
 10
990.6927458900343
 20
21.46152701650458
 30
0.0
 42
-0.4142135623730912
  0
VERTEX
  5
466AC
330
4657C
100
AcDbEntity
  8
0
 48
0.05
100
AcDbVertex
100
AcDb2dVertex
 10
992.2927458900343
 20
23.06152701650458
 30
0.0
  0
VERTEX
  5
466AD
330
4657C
100
AcDbEntity
  8
0
 48
0.05
100
AcDbVertex
100
AcDb2dVertex
 10
1006.892745890034
 20
23.06152701650458
 30
0.0
 42
0.2360679774997477
  0
VERTEX
  5
466AE
330
4657C
100
AcDbEntity
  8
0
 48
0.05
100
AcDbVertex
100
AcDb2dVertex
 10
1007.292745890034
 20
23.26152701650458
 30
0.0
 42
-0.4999999999999787
  0
VERTEX
  5
466AF
330
4657C
100
AcDbEntity
  8
0
 48
0.05
100
AcDbVertex
100
AcDb2dVertex
 10
1008.092745890034
 20
23.2615270165046
 30
0.0
 42
0.2360679774997477
  0
VERTEX
  5
466B0
330
4657C
100
AcDbEntity
  8
0
 48
0.05
100
AcDbVertex
100
AcDb2dVertex
 10
1008.492745890034
 20
23.06152701650459
 30
0.0
  0
VERTEX
  5
466B1
330
4657C
100
AcDbEntity
  8
0
 48
0.05
100
AcDbVertex
100
AcDb2dVertex
 10
1009.092745890034
 20
23.06152701650458
 30
0.0
 42
0.4142135623730534
  0
VERTEX
  5
466B2
330
4657C
100
AcDbEntity
  8
0
 48
0.05
100
AcDbVertex
100
AcDb2dVertex
 10
1009.292745890034
 20
23.26152701650458
 30
0.0
  0
VERTEX
  5
466B3
330
4657C
100
AcDbEntity
  8
0
 48
0.05
100
AcDbVertex
100
AcDb2dVertex
 10
1009.292745890034
 20
23.46152701650459
 30
0.0
 42
0.4142135623730951
  0
VERTEX
  5
466B4
330
4657C
100
AcDbEntity
  8
0
 48
0.05
100
AcDbVertex
100
AcDb2dVertex
 10
1008.292745890034
 20
24.46152701650459
 30
0.0
  0
VERTEX
  5
466B5
330
4657C
100
AcDbEntity
  8
0
 48
0.05
100
AcDbVertex
100
AcDb2dVertex
 10
992.2927458900343
 20
24.46152701650459
 30
0.0
 42
0.4142135623730951
  0
VERTEX
  5
466B6
330
4657C
100
AcDbEntity
  8
0
 48
0.05
100
AcDbVertex
100
AcDb2dVertex
 10
989.2927458900343
 20
21.46152701650458
 30
0.0
  0
VERTEX
  5
466B7
330
4657C
100
AcDbEntity
  8
0
 48
0.05
100
AcDbVertex
100
AcDb2dVertex
 10
989.2927458900343
 20
-48.53847298349567
 30
0.0
  0
VERTEX
  5
466B8
330
4657C
100
AcDbEntity
  8
0
 48
0.05
100
AcDbVertex
100
AcDb2dVertex
 10
990.2927458900345
 20
-49.53847298349541
 30
0.0
  0
VERTEX
  5
466B9
330
4657C
100
AcDbEntity
  8
0
 48
0.05
100
AcDbVertex
100
AcDb2dVertex
 10
990.2927458900345
 20
-59.53847298349541
 30
0.0
  0
VERTEX
  5
466BA
330
4657C
100
AcDbEntity
  8
0
 48
0.05
100
AcDbVertex
100
AcDb2dVertex
 10
989.2927458900343
 20
-60.53847298349549
 30
0.0
  0
VERTEX
  5
466BB
330
4657C
100
AcDbEntity
  8
0
 48
0.05
100
AcDbVertex
100
AcDb2dVertex
 10
989.2927458900341
 20
-72.1384729834954
 30
0.0
 42
-0.4142135623730951
  0
VERTEX
  5
466BC
330
4657C
100
AcDbEntity
  8
0
 48
0.05
100
AcDbVertex
100
AcDb2dVertex
 10
988.2927458900342
 20
-73.1384729834954
 30
0.0
  0
VERTEX
  5
466BD
330
4657C
100
AcDbEntity
  8
0
 48
0.05
100
AcDbVertex
100
AcDb2dVertex
 10
981.6927458900343
 20
-73.1384729834954
 30
0.0
  0
VERTEX
  5
466BE
330
4657C
100
AcDbEntity
  8
0
 48
0.05
100
AcDbVertex
100
AcDb2dVertex
 10
981.6927458900341
 20
-72.23847298349539
 30
0.0
 42
0.4142135623730712
  0
VERTEX
  5
466BF
330
4657C
100
AcDbEntity
  8
0
 48
0.05
100
AcDbVertex
100
AcDb2dVertex
 10
980.9927458900343
 20
-71.53847298349541
 30
0.0
  0
VERTEX
  5
466C0
330
4657C
100
AcDbEntity
  8
0
 48
0.05
100
AcDbVertex
100
AcDb2dVertex
 10
980.9927458900343
 20
-71.53847298349541
 30
0.0
 42
0.4142135623730712
  0
VERTEX
  5
466C1
330
4657C
100
AcDbEntity
  8
0
 48
0.05
100
AcDbVertex
100
AcDb2dVertex
 10
980.2927458900343
 20
-72.23847298349539
 30
0.0
  0
VERTEX
  5
466C2
330
4657C
100
AcDbEntity
  8
0
 48
0.05
100
AcDbVertex
100
AcDb2dVertex
 10
980.2927458900343
 20
-73.53847298349541
 30
0.0
 42
0.4142135623730951
  0
VERTEX
  5
466C3
330
4657C
100
AcDbEntity
  8
0
 48
0.05
100
AcDbVertex
100
AcDb2dVertex
 10
981.2927458900343
 20
-74.53847298349541
 30
0.0
  0
VERTEX
  5
466C4
330
4657C
100
AcDbEntity
  8
0
 48
0.05
100
AcDbVertex
100
AcDb2dVertex
 10
990.4927458900342
 20
-74.53847298349541
 30
0.0
 42
0.4142135623730951
  0
VERTEX
  5
466C5
330
4657C
100
AcDbEntity
  8
0
 48
0.05
100
AcDbVertex
100
AcDb2dVertex
 10
990.6927458900343
 20
-74.33847298349542
 30
0.0
  0
VERTEX
  5
466C6
330
4657C
100
AcDbEntity
  8
0
 48
0.05
100
AcDbVertex
100
AcDb2dVertex
 10
990.6927458900343
 20
-61.11837197081792
 30
0.0
  0
VERTEX
  5
466C7
330
4657C
100
AcDbEntity
  8
0
 48
0.05
100
AcDbVertex
100
AcDb2dVertex
 10
991.6927458900339
 20
-60.11837197081823
 30
0.0
  0
VERTEX
  5
466C8
330
4657C
100
AcDbEntity
  8
0
 48
0.05
100
AcDbVertex
100
AcDb2dVertex
 10
991.6927458900342
 20
-48.95857399617288
 30
0.0
  0
VERTEX
  5
466C9
330
4657C
100
AcDbEntity
  8
0
 48
0.05
100
AcDbVertex
100
AcDb2dVertex
 10
990.6927458900343
 20
-47.95857399617339
 30
0.0
  0
VERTEX
  5
466CA
330
4657C
100
AcDbEntity
  8
0
 48
0.05
100
AcDbVertex
100
AcDb2dVertex
 10
990.6927458900344
 20
-36.9384729834954
 30
0.0
 42
-0.4142135623730894
  0
VERTEX
  5
466CB
330
4657C
100
AcDbEntity
  8
0
 48
0.05
100
AcDbVertex
100
AcDb2dVertex
 10
991.6927458900344
 20
-35.93847298349541
 30
0.0
  0
VERTEX
  5
466CC
330
4657C
100
AcDbEntity
  8
0
 48
0.05
100
AcDbVertex
100
AcDb2dVertex
 10
998.6927458900344
 20
-35.93847298349541
 30
0.0
 42
-0.4142135623730951
  0
VERTEX
  5
466CD
330
4657C
100
AcDbEntity
  8
0
 48
0.05
100
AcDbVertex
100
AcDb2dVertex
 10
999.6927458900344
 20
-36.93847298349541
 30
0.0
  0
VERTEX
  5
466CE
330
4657C
100
AcDbEntity
  8
0
 48
0.05
100
AcDbVertex
100
AcDb2dVertex
 10
999.6927458900342
 20
-58.55268654586899
 30
0.0
  0
VERTEX
  5
466CF
330
4657C
100
AcDbEntity
  8
0
 48
0.05
100
AcDbVertex
100
AcDb2dVertex
 10
1003.692745890034
 20
-74.53847298349541
 30
0.0
  0
VERTEX
  5
466D0
330
4657C
100
AcDbEntity
  8
0
 48
0.05
100
AcDbVertex
100
AcDb2dVertex
 10
1022.692745890034
 20
-74.53847298349541
 30
0.0
 42
0.4142135623730951
  0
VERTEX
  5
466D1
330
4657C
100
AcDbEntity
  8
0
 48
0.05
100
AcDbVertex
100
AcDb2dVertex
 10
1023.692745890034
 20
-73.53847298349541
 30
0.0
  0
VERTEX
  5
466D2
330
4657C
100
AcDbEntity
  8
0
 48
0.05
100
AcDbVertex
100
AcDb2dVertex
 10
1023.692745890034
 20
-72.83847298349542
 30
0.0
 42
0.4142135623730951
  0
VERTEX
  5
466D3
330
4657C
100
AcDbEntity
  8
0
 48
0.05
100
AcDbVertex
100
AcDb2dVertex
 10
1023.492745890034
 20
-72.6384729834954
 30
0.0
  0
VERTEX
  5
466D4
330
4657C
100
AcDbEntity
  8
0
 48
0.05
100
AcDbVertex
100
AcDb2dVertex
 10
1019.930289316742
 20
-72.6384729834954
 30
0.0
  0
VERTEX
  5
466D5
330
4657C
100
AcDbEntity
  8
0
 48
0.05
100
AcDbVertex
100
AcDb2dVertex
 10
1018.692745890034
 20
-73.1384729834954
 30
0.0
  0
VERTEX
  5
466D6
330
4657C
100
AcDbEntity
  8
0
 48
0.05
100
AcDbVertex
100
AcDb2dVertex
 10
1006.672745890034
 20
-73.1384729834954
 30
0.0
 42
-0.8769764629928467
  0
VERTEX
  5
466D7
330
4657C
100
AcDbEntity
  8
0
 48
0.05
100
AcDbVertex
100
AcDb2dVertex
 10
1006.413926844931
 20
-71.17254715720633
 30
0.0
  0
VERTEX
  5
466D8
330
4657C
100
AcDbEntity
  8
0
 48
0.05
100
AcDbVertex
100
AcDb2dVertex
 10
1018.25648540464
 20
-67.99934315481414
 30
0.0
  0
VERTEX
  5
466D9
330
4657C
100
AcDbEntity
  8
0
 48
0.05
100
AcDbVertex
100
AcDb2dVertex
 10
1019.652722168726
 20
-66.00531040324478
 30
0.0
 42
0.4142135623730371
  0
VERTEX
  5
466DA
330
4657C
100
AcDbEntity
  8
0
 48
0.05
100
AcDbVertex
100
AcDb2dVertex
 10
1019.603607047138
 20
-65.72676470711678
 30
0.0
  0
VERTEX
  5
466DB
330
4657C
100
AcDbEntity
  8
0
 48
0.05
100
AcDbVertex
100
AcDb2dVertex
 10
1018.620624593991
 20
-65.03847298349538
 30
0.0
  0
VERTEX
  5
466DC
330
4657C
100
AcDbEntity
  8
0
 48
0.05
100
AcDbVertex
100
AcDb2dVertex
 10
1017.557109923251
 20
-66.55732934065477
 30
0.0
 42
-0.7332303362618735
  0
VERTEX
  5
466DD
330
4657C
100
AcDbEntity
  8
0
 48
0.05
100
AcDbVertex
100
AcDb2dVertex
 10
1016.192745890034
 20
-66.12714701339155
 30
0.0
  0
VERTEX
  5
466DE
330
4657C
100
AcDbEntity
  8
0
 48
0.05
100
AcDbVertex
100
AcDb2dVertex
 10
1016.192745890034
 20
-59.73847298349543
 30
0.0
 42
0.4142135623730534
  0
VERTEX
  5
466DF
330
4657C
100
AcDbEntity
  8
0
 48
0.05
100
AcDbVertex
100
AcDb2dVertex
 10
1015.992745890034
 20
-59.53847298349543
 30
0.0
  0
VERTEX
  5
466E0
330
4657C
100
AcDbEntity
  8
0
 48
0.05
100
AcDbVertex
100
AcDb2dVertex
 10
1014.992745890034
 20
-59.53847298349543
 30
0.0
 42
0.4142135623730534
  0
VERTEX
  5
466E1
330
4657C
100
AcDbEntity
  8
0
 48
0.05
100
AcDbVertex
100
AcDb2dVertex
 10
1014.792745890034
 20
-59.73847298349543
 30
0.0
  0
VERTEX
  5
466E2
330
4657C
100
AcDbEntity
  8
0
 48
0.05
100
AcDbVertex
100
AcDb2dVertex
 10
1014.792745890034
 20
-67.47806270797048
 30
0.0
  0
VERTEX
  5
466E3
330
4657C
100
AcDbEntity
  8
0
 48
0.05
100
AcDbVertex
100
AcDb2dVertex
 10
1005.069127659325
 20
-70.08349836039738
 30
0.0
 42
-0.4190873777822729
  0
VERTEX
  5
466E4
330
4657C
100
AcDbEntity
  8
0
 48
0.05
100
AcDbVertex
100
AcDb2dVertex
 10
1003.840216873244
 20
-69.36031110559202
 30
0.0
  0
VERTEX
  5
466E5
330
4657C
100
AcDbEntity
  8
0
 48
0.05
100
AcDbVertex
100
AcDb2dVertex
 10
1001.092745890034
 20
-58.38019001029699
 30
0.0
  0
VERTEX
  5
466E6
330
4657C
100
AcDbEntity
  8
0
 48
0.05
100
AcDbVertex
100
AcDb2dVertex
 10
1001.092745890034
 20
-36.53847298349542
 30
0.0
 42
0.4142135623730951
  0
VERTEX
  5
466E7
330
4657C
100
AcDbEntity
  8
0
 48
0.05
100
AcDbVertex
100
AcDb2dVertex
 10
999.0927458900342
 20
-34.53847298349542
 30
0.0
  0
VERTEX
  5
466E8
330
4657C
100
AcDbEntity
  8
0
 48
0.05
100
AcDbVertex
100
AcDb2dVertex
 10
991.6927458900342
 20
-34.53847298349541
 30
0.0
 42
-0.4142135623730951
  0
VERTEX
  5
466E9
330
4657C
100
AcDbEntity
  8
0
 48
0.05
100
AcDbVertex
100
AcDb2dVertex
 10
990.6927458900343
 20
-33.53847298349541
 30
0.0
  0
VERTEX
  5
466EA
330
4657C
100
AcDbEntity
  8
0
 48
0.05
100
AcDbVertex
100
AcDb2dVertex
 10
990.6927458900343
 20
12.66152701650459
 30
0.0
 42
-0.4142135623730951
  0
VERTEX
  5
466EB
330
4657C
100
AcDbEntity
  8
0
 48
0.05
100
AcDbVertex
100
AcDb2dVertex
 10
991.6927458900342
 20
13.66152701650459
 30
0.0
  0
VERTEX
  5
466EC
330
4657C
100
AcDbEntity
  8
0
 48
0.05
100
AcDbVertex
100
AcDb2dVertex
 10
1006.492745890034
 20
13.66152701650459
 30
0.0
 42
-0.4142135623730431
  0
VERTEX
  5
466ED
330
4657C
100
AcDbEntity
  8
0
 48
0.05
100
AcDbVertex
100
AcDb2dVertex
 10
1006.692745890034
 20
13.46152701650459
 30
0.0
  0
VERTEX
  5
466EE
330
4657C
100
AcDbEntity
  8
0
 48
0.05
100
AcDbVertex
100
AcDb2dVertex
 10
1006.692745890034
 20
7.261527016504587
 30
0.0
 42
0.4142135623730325
  0
VERTEX
  5
466EF
330
4657C
100
AcDbEntity
  8
0
 48
0.05
100
AcDbVertex
100
AcDb2dVertex
 10
1006.892745890034
 20
7.061527016504584
 30
0.0
  0
VERTEX
  5
466F0
330
4657C
100
AcDbEntity
  8
0
 48
0.05
100
AcDbVertex
100
AcDb2dVertex
 10
1007.892745890034
 20
7.061527016504584
 30
0.0
 42
0.4142135623730534
  0
VERTEX
  5
466F1
330
4657C
100
AcDbEntity
  8
0
 48
0.05
100
AcDbVertex
100
AcDb2dVertex
 10
1008.092745890034
 20
7.261527016504587
 30
0.0
  0
VERTEX
  5
466F2
330
4657C
100
AcDbEntity
  8
0
 48
0.05
100
AcDbVertex
100
AcDb2dVertex
 10
1008.092745890034
 20
13.46152701650459
 30
0.0
 42
-0.4142135623730431
  0
VERTEX
  5
466F3
330
4657C
100
AcDbEntity
  8
0
 48
0.05
100
AcDbVertex
100
AcDb2dVertex
 10
1008.292745890034
 20
13.66152701650459
 30
0.0
  0
VERTEX
  5
466F4
330
4657C
100
AcDbEntity
  8
0
 48
0.05
100
AcDbVertex
100
AcDb2dVertex
 10
1009.092745890033
 20
13.66152701650459
 30
0.0
 42
0.4142135623730639
  0
SEQEND
  5
466F5
330
4657C
100
AcDbEntity
  8
0
 48
0.05
  0
VIEWPORT
  5
D68D
330
C
100
AcDbEntity
 67
     1
  8
0
  6
BYBLOCK
 62
     0
 48
0.05
100
AcDbViewport
 10
133.3499908447265
 20
101.5999970436096
 30
0.0
 40
412.1153263722698
 41
228.4221935424804
 68
     1
 69
     1
1001
ACAD
1000
MVIEW
1002
{
1070
    16
1010
0.0
1020
0.0
1030
0.0
1010
0.0
1020
0.0
1030
1.0
1040
0.0
1040
228.4221935424804
1040
133.3499908447265
1040
101.5999970436096
1040
50.0
1040
0.0
1040
0.0
1070
     0
1070
   100
1070
     1
1070
     1
1070
     0
1070
     0
1070
     0
1070
     0
1040
0.0
1040
0.0
1040
0.0
1040
10.0
1040
10.0
1040
10.0
1040
10.0
1070
     0
1002
{
1002
}
1002
}
  0
VIEWPORT
  5
D68F
330
C
100
AcDbEntity
 67
     1
  8
0
  6
BYBLOCK
 62
     0
 48
0.05
100
AcDbViewport
 10
133.349993944168
 20
101.599993944168
 30
0.0
 40
213.3599903106689
 41
162.5599903106689
 68
     2
 69
     2
1001
ACAD
1000
MVIEW
1002
{
1070
    16
1010
0.0
1020
0.0
1030
0.0
1010
0.0
1020
0.0
1030
1.0
1040
0.0
1040
293.8955062794127
1040
190.5105367298877
1040
130.3007286656822
1040
50.0
1040
0.0
1040
0.0
1070
     0
1070
   100
1070
     1
1070
     1
1070
     0
1070
     1
1070
     0
1070
     0
1040
0.0
1040
0.0
1040
0.0
1040
1.0
1040
1.0
1040
0.0
1040
0.0
1070
     0
1002
{
1002
}
1002
}
  0
ENDSEC
  0
SECTION
  2
OBJECTS
  0
DICTIONARY
  5
7
330
0
100
AcDbDictionary
  3
ACAD_GROUP
350
20
  3
ACAD_LAYOUT
350
B
  3
ACAD_MLINESTYLE
350
21
  3
ACAD_PLOTSETTINGS
350
22
  3
ACADDIM
350
4540F
  3
DWGPROPS
350
431C4
1001
ACAD
1000
TREAT_AS_HARD
1070
     0
  0
DICTIONARY
  5
2A172
330
10
100
AcDbDictionary
  3
ACAD_LAYERFILTERS
350
2A173
  3
ACAD_LAYERSTATES
350
2A3E5
1001
ACAD
1000
TREAT_AS_HARD
1070
     1
  0
DICTIONARY
  5
4669E
330
2
100
AcDbDictionary
  3
ACAD_LAYOUTSELFREF
350
4669F
  0
DICTIONARY
  5
466A0
330
C
100
AcDbDictionary
  3
ACAD_LAYOUTSELFREF
350
466A1
  0
DICTIONARY
  5
20
102
{ACAD_REACTORS
330
7
102
}
330
7
100
AcDbDictionary
1001
ACAD
1000
TREAT_AS_HARD
1070
     0
  0
DICTIONARY
  5
B
102
{ACAD_REACTORS
330
7
102
}
330
7
100
AcDbDictionary
1001
ACAD
1000
TREAT_AS_HARD
1070
     0
  0
DICTIONARY
  5
21
102
{ACAD_REACTORS
330
7
102
}
330
7
100
AcDbDictionary
  3
STANDARD
350
23
1001
ACAD
1000
TREAT_AS_HARD
1070
     0
  0
DICTIONARY
  5
22
102
{ACAD_REACTORS
330
7
102
}
330
7
100
AcDbDictionary
1001
ACAD
1000
TREAT_AS_HARD
1070
     0
  0
XRECORD
  5
4540F
102
{ACAD_REACTORS
330
7
102
}
330
7
100
AcDbXrecord
 90
   990106
  3

 60
     0
 61
     0
 62
     1
 63
     3
 64
     0
 65
     0
 66
     0
 67
     3
 68
     1
 69
     0
 70
     0
 71
     0
 72
     0
 40
3.0
170
     0
340
0
  0
XRECORD
  5
431C4
102
{ACAD_REACTORS
330
7
102
}
330
7
100
AcDbXrecord
  1
DWGPROPS COOKIE
  2

  3

  4

  6

  7

  8

  9

300
=
301
=
302
=
303
=
304
=
305
=
306
=
307
=
308
=
309
=
 40
11.86592804398148
 41
2452396.547875799
 42
2453318.570943704
  1

 90
        0
  0
DICTIONARY
  5
2A173
102
{ACAD_REACTORS
330
2A172
102
}
330
2A172
100
AcDbDictionary
  3
032
350
3D3E5
  3
032G
350
3D3E6
  3
1
350
2A174
  3
12
350
2A175
  3
2
350
2FD23
  3
220G
350
3D3E7
  3
232
350
3D3E8
  3
245
350
2FD24
  3
3D
350
3D3E9
  3
600
350
3D3EA
  3
720
350
3D3EB
  3
720G
350
3D3EC
  3
A
350
3D3ED
  3
A000D
350
3D3EE
  3
A032G
350
3D3EF
  3
AA
350
2A176
  3
ADLER
350
3D3F0
  3
ALEV07
350
3D3F1
  3
BOUNARY
350
3D3F2
  3
DIMS
350
3D3F3
  3
DSD
350
3D3F4
  3
DUVAR
350
3D3F5
  3
FIRE_STRATEGY
350
3D3F6
  3
FIRST_FLOOR
350
3D3F7
  3
FROZEN
350
3D3F8
  3
GRID
350
3D3F9
  3
GROUND_FLOOR
350
3D3FA
  3
LIGHTING
350
3D3FB
  3
MECHANICAL
350
3D3FC
  3
OFF
350
2FD25
  3
ON
350
2FD26
  3
PANEL
350
3D3FD
  3
PLUMBING
350
3D3FE
  3
POWER
350
3D3FF
  3
PROF\U+0131L
350
3D400
  3
RSFL
350
3D401
  3
SS
350
2A177
  3
TAGS
350
3D402
1001
ACAD
1000
TREAT_AS_HARD
1070
     1
  0
DICTIONARY
  5
2A3E5
102
{ACAD_REACTORS
330
2A172
102
}
330
2A172
100
AcDbDictionary
1001
ACAD
1000
TREAT_AS_HARD
1070
     0
  0
XRECORD
  5
4669F
102
{ACAD_REACTORS
330
4669E
102
}
330
4669E
100
AcDbXrecord
340
2
  0
XRECORD
  5
466A1
102
{ACAD_REACTORS
330
466A0
102
}
330
466A0
100
AcDbXrecord
340
C
  0
MLINESTYLE
  5
23
102
{ACAD_REACTORS
330
21
102
}
330
21
100
AcDbMlineStyle
  2
STANDARD
 70
     0
  3

 62
   256
 51
90.0
 52
90.0
 71
     2
 49
0.5
 62
   256
  6
BYLAYER
 49
-0.5
 62
   256
  6
BYLAYER
  0
XRECORD
  5
3D3E5
102
{ACAD_REACTORS
330
2A173
102
}
330
2A173
100
AcDbXrecord
  1
032
  1
*032*
  1
*
  1
*
 70
     0
  1
*
  1
*
  0
XRECORD
  5
3D3E6
102
{ACAD_REACTORS
330
2A173
102
}
330
2A173
100
AcDbXrecord
  1
032G
  1
*032G*
  1
*
  1
*
 70
     0
  1
*
  1
*
  0
XRECORD
  5
2A174
102
{ACAD_REACTORS
330
2A173
102
}
330
2A173
100
AcDbXrecord
  1
1
  1
*
  1
*
  1
*
 70
  1367
  1
*
  1
*
  0
XRECORD
  5
2A175
102
{ACAD_REACTORS
330
2A173
102
}
330
2A173
100
AcDbXrecord
  1
12
  1
*
  1
ALL
  1
L
 70
  1493
  1
L
  1
L
  0
XRECORD
  5
2FD23
102
{ACAD_REACTORS
330
2A173
102
}
330
2A173
100
AcDbXrecord
  1
2
  1
*
  1
*
  1
*
 70
     4
  1
*
  1
*
  0
XRECORD
  5
3D3E7
102
{ACAD_REACTORS
330
2A173
102
}
330
2A173
100
AcDbXrecord
  1
220g
  1
*220*
  1
*
  1
*
 70
     0
  1
*
  1
*
  0
XRECORD
  5
3D3E8
102
{ACAD_REACTORS
330
2A173
102
}
330
2A173
100
AcDbXrecord
  1
232
  1
LAYER5
  1
*
  1
*
 70
     0
  1
*
  1
*
  0
XRECORD
  5
2FD24
102
{ACAD_REACTORS
330
2A173
102
}
330
2A173
100
AcDbXrecord
  1
245
  1
*
  1
245
  1
*
 70
     0
  1
*
  1
*
  0
XRECORD
  5
3D3E9
102
{ACAD_REACTORS
330
2A173
102
}
330
2A173
100
AcDbXrecord
  1
3D
  1
*
  1
*
  1
*
 70
     1
  1
*
  1
*
  0
XRECORD
  5
3D3EA
102
{ACAD_REACTORS
330
2A173
102
}
330
2A173
100
AcDbXrecord
  1
600
  1
*600*
  1
*
  1
*
 70
     0
  1
*
  1
*
  0
XRECORD
  5
3D3EB
102
{ACAD_REACTORS
330
2A173
102
}
330
2A173
100
AcDbXrecord
  1
720
  1
*720g*
  1
*
  1
*
 70
     0
  1
*
  1
*
  0
XRECORD
  5
3D3EC
102
{ACAD_REACTORS
330
2A173
102
}
330
2A173
100
AcDbXrecord
  1
720g
  1
*720*
  1
*
  1
*
 70
     0
  1
*
  1
*
  0
XRECORD
  5
3D3ED
102
{ACAD_REACTORS
330
2A173
102
}
330
2A173
100
AcDbXrecord
  1
A
  1
SOL1,SOL2,SOL3,SOL4,SOL5
  1
*
  1
*
 70
     0
  1
*
  1
*
  0
XRECORD
  5
3D3EE
102
{ACAD_REACTORS
330
2A173
102
}
330
2A173
100
AcDbXrecord
  1
A000D
  1
A000D*
  1
*
  1
*
 70
     0
  1
*
  1
*
  0
XRECORD
  5
3D3EF
102
{ACAD_REACTORS
330
2A173
102
}
330
2A173
100
AcDbXrecord
  1
A032G
  1
*a032G
  1
*
  1
*
 70
     0
  1
*
  1
*
  0
XRECORD
  5
2A176
102
{ACAD_REACTORS
330
2A173
102
}
330
2A173
100
AcDbXrecord
  1
aa
  1
*
  1
*
  1
*
 70
     0
  1
*
  1
*
  0
XRECORD
  5
3D3F0
102
{ACAD_REACTORS
330
2A173
102
}
330
2A173
100
AcDbXrecord
  1
adler
  1
aadler*,xre*
  1
*
  1
*
 70
     0
  1
*
  1
*
  0
XRECORD
  5
3D3F1
102
{ACAD_REACTORS
330
2A173
102
}
330
2A173
100
AcDbXrecord
  1
ALEV07
  1
ALEV07*
  1
*
  1
*
 70
     0
  1
*
  1
*
  0
XRECORD
  5
3D3F2
102
{ACAD_REACTORS
330
2A173
102
}
330
2A173
100
AcDbXrecord
  1
BOUNARY
  1
*BOUND*
  1
*
  1
*
 70
     0
  1
*
  1
*
  0
XRECORD
  5
3D3F3
102
{ACAD_REACTORS
330
2A173
102
}
330
2A173
100
AcDbXrecord
  1
dims
  1
*00d
  1
*
  1
*
 70
     0
  1
*
  1
*
  0
XRECORD
  5
3D3F4
102
{ACAD_REACTORS
330
2A173
102
}
330
2A173
100
AcDbXrecord
  1
DSD
  1
*720G*
  1
*
  1
*
 70
     0
  1
*
  1
*
  0
XRECORD
  5
3D3F5
102
{ACAD_REACTORS
330
2A173
102
}
330
2A173
100
AcDbXrecord
  1
DUVAR
  1
*DUVAR,DV
  1
*
  1
*
 70
     0
  1
*
  1
*
  0
XRECORD
  5
3D3F6
102
{ACAD_REACTORS
330
2A173
102
}
330
2A173
100
AcDbXrecord
  1
Fire strategy
  1
Fire*
  1
*
  1
*
 70
     0
  1
*
  1
*
  0
XRECORD
  5
3D3F7
102
{ACAD_REACTORS
330
2A173
102
}
330
2A173
100
AcDbXrecord
  1
First Floor
  1
*01
  1
*
  1
*
 70
     0
  1
*
  1
*
  0
XRECORD
  5
3D3F8
102
{ACAD_REACTORS
330
2A173
102
}
330
2A173
100
AcDbXrecord
  1
frozen
  1
*
  1
*
  1
*
 70
     4
  1
*
  1
*
  0
XRECORD
  5
3D3F9
102
{ACAD_REACTORS
330
2A173
102
}
330
2A173
100
AcDbXrecord
  1
GRID
  1
*A032*
  1
*
  1
*
 70
     0
  1
*
  1
*
  0
XRECORD
  5
3D3FA
102
{ACAD_REACTORS
330
2A173
102
}
330
2A173
100
AcDbXrecord
  1
Ground Floor
  1
*00
  1
*
  1
*
 70
     0
  1
*
  1
*
  0
XRECORD
  5
3D3FB
102
{ACAD_REACTORS
330
2A173
102
}
330
2A173
100
AcDbXrecord
  1
Lighting
  1
light*
  1
*
  1
*
 70
     0
  1
*
  1
*
  0
XRECORD
  5
3D3FC
102
{ACAD_REACTORS
330
2A173
102
}
330
2A173
100
AcDbXrecord
  1
Mechanical
  1
mech*
  1
*
  1
*
 70
     0
  1
*
  1
*
  0
XRECORD
  5
2FD25
102
{ACAD_REACTORS
330
2A173
102
}
330
2A173
100
AcDbXrecord
  1
off
  1
*
  1
*
  1
*
 70
     3
  1
*
  1
*
  0
XRECORD
  5
2FD26
102
{ACAD_REACTORS
330
2A173
102
}
330
2A173
100
AcDbXrecord
  1
on
  1
*
  1
*
  1
*
 70
     1
  1
*
  1
*
  0
XRECORD
  5
3D3FD
102
{ACAD_REACTORS
330
2A173
102
}
330
2A173
100
AcDbXrecord
  1
panel
  1
*
  1
21
  1
*
 70
     0
  1
*
  1
*
  0
XRECORD
  5
3D3FE
102
{ACAD_REACTORS
330
2A173
102
}
330
2A173
100
AcDbXrecord
  1
Plumbing
  1
P+D*
  1
*
  1
*
 70
     0
  1
*
  1
*
  0
XRECORD
  5
3D3FF
102
{ACAD_REACTORS
330
2A173
102
}
330
2A173
100
AcDbXrecord
  1
Power
  1
Power*
  1
*
  1
*
 70
     0
  1
*
  1
*
  0
XRECORD
  5
3D400
102
{ACAD_REACTORS
330
2A173
102
}
330
2A173
100
AcDbXrecord
  1
prof\U+0131l
  1
*
  1
*
  1
*
 70
     0
  1
*
  1
*
  0
XRECORD
  5
3D401
102
{ACAD_REACTORS
330
2A173
102
}
330
2A173
100
AcDbXrecord
  1
rsfl
  1
a33*
  1
*
  1
*
 70
     0
  1
*
  1
*
  0
XRECORD
  5
2A177
102
{ACAD_REACTORS
330
2A173
102
}
330
2A173
100
AcDbXrecord
  1
ss
  1
*
  1
*
  1
*
 70
     0
  1
*
  1
*
  0
XRECORD
  5
3D402
102
{ACAD_REACTORS
330
2A173
102
}
330
2A173
100
AcDbXrecord
  1
tags
  1
*220t
  1
*
  1
*
 70
     0
  1
*
  1
*
  0
ENDSEC
  0
EOF
