  0
SECTION
  2
HEADER
  9
$ACADVER
  1
AC1012
  9
$DWGCODEPAGE
  3
ANSI_1252
  9
$INSBASE
 10
0.0
 20
0.0
 30
0.0
  9
$EXTMIN
 10
940.1488384932477
 20
-8.873501588156614
 30
-0.000000000000013
  9
$EXTMAX
 10
961.7770380632428
 20
0.443343925259228
 30
0.0000000000000023
  9
$LIMMIN
 10
0.0
 20
0.0
  9
$LIMMAX
 10
12.0
 20
9.0
  9
$ORTHOMODE
 70
     0
  9
$REGENMODE
 70
     1
  9
$FILLMODE
 70
     1
  9
$QTEXTMODE
 70
     0
  9
$MIRRTEXT
 70
     1
  9
$DRAGMODE
 70
     2
  9
$LTSCALE
 40
15.0
  9
$OSMODE
 70
    37
  9
$ATTMODE
 70
     1
  9
$TEXTSIZE
 40
0.2
  9
$TRACEWID
 40
0.05
  9
$TEXTSTYLE
  7
STANDARD
  9
$CLAYER
  8
0
  9
$CELTYPE
  6
BYLAYER
  9
$CECOLOR
 62
   256
  9
$CELTSCALE
 40
0.05
  9
$DELOBJ
 70
     1
  9
$DISPSILH
 70
     0
  9
$DIMSCALE
 40
0.0
  9
$DIMASZ
 40
2.0
  9
$DIMEXO
 40
0.625
  9
$DIMDLI
 40
0.38
  9
$DIMRND
 40
0.0
  9
$DIMDLE
 40
0.0
  9
$DIMEXE
 40
0.18
  9
$DIMTP
 40
0.0135
  9
$DIMTM
 40
0.0135
  9
$DIMTXT
 40
2.5
  9
$DIMCEN
 40
0.09
  9
$DIMTSZ
 40
0.0
  9
$DIMTOL
 70
     0
  9
$DIMLIM
 70
     0
  9
$DIMTIH
 70
     0
  9
$DIMTOH
 70
     0
  9
$DIMSE1
 70
     0
  9
$DIMSE2
 70
     0
  9
$DIMTAD
 70
     1
  9
$DIMZIN
 70
     8
  9
$DIMBLK
  1

  9
$DIMASO
 70
     1
  9
$DIMSHO
 70
     1
  9
$DIMPOST
  1

  9
$DIMAPOST
  1

  9
$DIMALT
 70
     0
  9
$DIMALTD
 70
     2
  9
$DIMALTF
 40
25.4
  9
$DIMLFAC
 40
0.2
  9
$DIMTOFL
 70
     0
  9
$DIMTVP
 40
0.0
  9
$DIMTIX
 70
     0
  9
$DIMSOXD
 70
     0
  9
$DIMSAH
 70
     0
  9
$DIMBLK1
  1

  9
$DIMBLK2
  1

  9
$DIMSTYLE
  2
\U+0130SMAIL_1_5___1
  9
$DIMCLRD
 70
   242
  9
$DIMCLRE
 70
   242
  9
$DIMCLRT
 70
   242
  9
$DIMTFAC
 40
1.0
  9
$DIMGAP
 40
0.5
  9
$DIMJUST
 70
     0
  9
$DIMSD1
 70
     0
  9
$DIMSD2
 70
     0
  9
$DIMTOLJ
 70
     1
  9
$DIMTZIN
 70
     0
  9
$DIMALTZ
 70
     0
  9
$DIMALTTZ
 70
     0
  9
$DIMFIT
 70
     3
  9
$DIMUPT
 70
     0
  9
$DIMUNIT
 70
     2
  9
$DIMDEC
 70
     2
  9
$DIMTDEC
 70
     2
  9
$DIMALTU
 70
     2
  9
$DIMALTTD
 70
     2
  9
$DIMTXSTY
  7
ROMANT
  9
$DIMAUNIT
 70
     0
  9
$LUNITS
 70
     2
  9
$LUPREC
 70
     4
  9
$SKETCHINC
 40
0.1
  9
$FILLETRAD
 40
0.3
  9
$AUNITS
 70
     0
  9
$AUPREC
 70
     0
  9
$MENU
  1
.
  9
$ELEVATION
 40
0.0
  9
$PELEVATION
 40
0.0
  9
$THICKNESS
 40
0.0
  9
$LIMCHECK
 70
     0
  9
$BLIPMODE
 70
     0
  9
$CHAMFERA
 40
0.8
  9
$CHAMFERB
 40
0.8
  9
$CHAMFERC
 40
0.0
  9
$CHAMFERD
 40
0.0
  9
$SKPOLY
 70
     0
  9
$TDCREATE
 40
2452396.589542465
  9
$TDUPDATE
 40
2453551.664697407
  9
$TDINDWG
 40
14.3095940509
  9
$TDUSRTIMER
 40
14.3095939352
  9
$USRTIMER
 70
     1
  9
$ANGBASE
 50
0.0
  9
$ANGDIR
 70
     0
  9
$PDMODE
 70
     0
  9
$PDSIZE
 40
0.0
  9
$PLINEWID
 40
0.0
  9
$COORDS
 70
     2
  9
$SPLFRAME
 70
     0
  9
$SPLINETYPE
 70
     6
  9
$SPLINESEGS
 70
     8
  9
$ATTDIA
 70
     0
  9
$ATTREQ
 70
     1
  9
$HANDLING
 70
-16383
  9
$HANDSEED
  5
5318C
  9
$SURFTAB1
 70
     6
  9
$SURFTAB2
 70
     6
  9
$SURFTYPE
 70
     6
  9
$SURFU
 70
     6
  9
$SURFV
 70
     6
  9
$UCSNAME
  2

  9
$UCSORG
 10
0.0
 20
0.0
 30
0.0
  9
$UCSXDIR
 10
1.0
 20
0.0
 30
0.0
  9
$UCSYDIR
 10
0.0
 20
1.0
 30
0.0
  9
$PUCSNAME
  2

  9
$PUCSORG
 10
0.0
 20
0.0
 30
0.0
  9
$PUCSXDIR
 10
1.0
 20
0.0
 30
0.0
  9
$PUCSYDIR
 10
0.0
 20
1.0
 30
0.0
  9
$USERI1
 70
     0
  9
$USERI2
 70
     0
  9
$USERI3
 70
     0
  9
$USERI4
 70
     0
  9
$USERI5
 70
     0
  9
$USERR1
 40
0.0
  9
$USERR2
 40
0.0
  9
$USERR3
 40
0.0
  9
$USERR4
 40
0.0
  9
$USERR5
 40
0.0
  9
$WORLDVIEW
 70
     1
  9
$SHADEDGE
 70
     3
  9
$SHADEDIF
 70
    70
  9
$TILEMODE
 70
     1
  9
$MAXACTVP
 70
    64
  9
$PINSBASE
 10
0.0
 20
0.0
 30
0.0
  9
$PLIMCHECK
 70
     0
  9
$PEXTMIN
 10
26.66999878883362
 20
20.31999878883362
 30
0.0
  9
$PEXTMAX
 10
240.0299890995025
 20
182.8799890995025
 30
0.0
  9
$PLIMMIN
 10
-6.350006103515625
 20
-6.349999904632568
  9
$PLIMMAX
 10
273.0499877929687
 20
209.5499939918517
  9
$UNITMODE
 70
     0
  9
$VISRETAIN
 70
     1
  9
$PLINEGEN
 70
     0
  9
$PSLTSCALE
 70
     1
  9
$TREEDEPTH
 70
  3020
  9
$PICKSTYLE
 70
     1
  9
$CMLSTYLE
  2
STANDARD
  9
$CMLJUST
 70
     0
  9
$CMLSCALE
 40
1.0
  9
$SAVEIMAGES
 70
     1
  0
ENDSEC
  0
SECTION
  2
CLASSES
  0
CLASS
  1
ACDBDICTIONARYWDFLT
  2
AcDbDictionaryWithDefault
  3
AutoCAD 2000
 90
    32768
280
     0
281
     0
  0
CLASS
  1
ACDBPLACEHOLDER
  2
AcDbPlaceHolder
  3
AutoCAD 2000
 90
    32768
280
     0
281
     0
  0
CLASS
  1
LAYOUT
  2
AcDbLayout
  3
AutoCAD 2000
 90
    32768
280
     0
281
     0
  0
CLASS
  1
DICTIONARYVAR
  2
AcDbDictionaryVar
  3
AutoCAD 2000
 90
    32768
280
     0
281
     0
  0
CLASS
  1
LONG_TRANSACTION
  2
AcDbLongTransaction
  3
AutoCAD 2000
 90
    32768
280
     0
281
     0
  0
CLASS
  1
LWPOLYLINE
  2
AcDbPolyline
  3
AutoCAD 2000
 90
    32768
280
     0
281
     1
  0
CLASS
  1
HATCH
  2
AcDbHatch
  3
AutoCAD 2000
 90
    32768
280
     0
281
     1
  0
CLASS
  1
XRECORD
  2
AcDbXrecord
  3
AutoCAD 2000
 90
    32768
280
     0
281
     0
  0
ENDSEC
  0
SECTION
  2
TABLES
  0
TABLE
  2
VPORT
  5
1A
330
0
100
AcDbSymbolTable
 70
     2
  0
VPORT
  5
5316E
330
1A
100
AcDbSymbolTableRecord
100
AcDbViewportTableRecord
  2
*ACTIVE
 70
     0
 10
0.0
 20
0.0
 11
1.0
 21
1.0
 12
950.9629382782453
 22
-4.215078831448693
 13
0.0
 23
0.0
 14
1.0
 24
1.0
 15
0.0
 25
0.0
 16
0.0
 26
0.0
 36
1.0
 17
0.0
 27
0.0
 37
0.0
 40
14.24733626842224
 41
1.527777777777777
 42
50.0
 43
0.0
 44
0.0
 50
0.0
 51
0.0
 71
     0
 72
   100
 73
     1
 74
     1
 75
     0
 76
     1
 77
     0
 78
     0
  0
ENDTAB
  0
TABLE
  2
LTYPE
  5
15
330
0
100
AcDbSymbolTable
 70
     4
  0
LTYPE
  5
16
330
15
100
AcDbSymbolTableRecord
100
AcDbLinetypeTableRecord
  2
BYBLOCK
 70
     0
  3

 72
    65
 73
     0
 40
0.0
  0
LTYPE
  5
17
330
15
100
AcDbSymbolTableRecord
100
AcDbLinetypeTableRecord
  2
BYLAYER
 70
     0
  3

 72
    65
 73
     0
 40
0.0
  0
LTYPE
  5
8
330
15
100
AcDbSymbolTableRecord
100
AcDbLinetypeTableRecord
  2
CONTINUOUS
 70
     0
  3
CONTINUOUS
 72
    65
 73
     0
 40
0.0
  0
LTYPE
  5
2B054
330
15
100
AcDbSymbolTableRecord
100
AcDbLinetypeTableRecord
  2
HIDDEN
 70
     0
  3
Hidden __ __ __ __ __ __ __ __ __ __ __ __ __ _
 72
    65
 73
     2
 40
9.524999999999998
 49
6.349999999999999
 74
     0
 49
-3.174999999999999
 74
     0
  0
LTYPE
  5
2E1A9
330
15
100
AcDbSymbolTableRecord
100
AcDbLinetypeTableRecord
  2
CENTER
 70
     0
  3
----- - ----- - -----
 72
    65
 73
     4
 40
1.25
 49
0.8
 74
     0
 49
-0.15
 74
     0
 49
0.15
 74
     0
 49
-0.15
 74
     0
  0
LTYPE
  5
3D403
330
15
100
AcDbSymbolTableRecord
100
AcDbLinetypeTableRecord
  2
DOT
 70
     0
  3
Dot . . . . . . . . . . . . . . . . . . . . . .
 72
    65
 73
     2
 40
6.349999999999999
 49
0.0
 74
     0
 49
-6.349999999999999
 74
     0
  0
ENDTAB
  0
TABLE
  2
LAYER
  5
10
102
{ACAD_XDICTIONARY
360
2A172
102
}
330
0
100
AcDbSymbolTable
 70
     4
  0
LAYER
  5
4
330
10
100
AcDbSymbolTableRecord
100
AcDbLayerTableRecord
  2
0
 70
     0
 62
     7
  6
CONTINUOUS
  0
LAYER
  5
2D
330
10
100
AcDbSymbolTableRecord
100
AcDbLayerTableRecord
  2
DEFPOINTS
 70
     0
 62
     7
  6
CONTINUOUS
  0
LAYER
  5
42F
330
10
100
AcDbSymbolTableRecord
100
AcDbLayerTableRecord
  2
ANA
 70
     0
 62
   220
  6
CONTINUOUS
  0
LAYER
  5
432
330
10
100
AcDbSymbolTableRecord
100
AcDbLayerTableRecord
  2
ANTET
 70
     0
 62
   220
  6
CONTINUOUS
  0
ENDTAB
  0
TABLE
  2
STYLE
  5
11
330
0
100
AcDbSymbolTable
 70
     2
  0
STYLE
  5
12
330
11
100
AcDbSymbolTableRecord
100
AcDbTextStyleTableRecord
  2
STANDARD
 70
     0
 40
0.0
 41
1.0
 50
0.0
 71
     0
 42
0.2
  3
TIMES.TTF
  4

1001
ACAD
1000
Times New Roman Tur
1071
    41490
  0
STYLE
  5
436
330
11
100
AcDbSymbolTableRecord
100
AcDbTextStyleTableRecord
  2
ROMANT
 70
     0
 40
2.5
 41
1.0
 50
15.0
 71
     0
 42
2.5
  3
C:\ACADR13\COMMON\FONTS\romant.shx
  4

  0
ENDTAB
  0
TABLE
  2
VIEW
  5
18
330
0
100
AcDbSymbolTable
 70
     0
  0
ENDTAB
  0
TABLE
  2
UCS
  5
19
330
0
100
AcDbSymbolTable
 70
     0
  0
ENDTAB
  0
TABLE
  2
APPID
  5
1C
330
0
100
AcDbSymbolTable
 70
     1
  0
APPID
  5
13
330
1C
100
AcDbSymbolTableRecord
100
AcDbRegAppTableRecord
  2
ACAD
 70
     0
  0
ENDTAB
  0
TABLE
  2
DIMSTYLE
  5
1D
330
0
100
AcDbSymbolTable
 70
     2
  0
DIMSTYLE
105
439
330
1D
100
AcDbSymbolTableRecord
100
AcDbDimStyleTableRecord
  2
STANDARD
 70
     0
  3

  4

  5

  6

  7

 40
1.0
 41
0.18
 42
0.0625
 43
0.38
 44
0.18
 45
0.0
 46
0.0
 47
0.0
 48
0.0
140
0.18
141
0.09
142
0.0
143
25.4
144
1.0
145
0.0
146
1.0
147
0.09
 71
     0
 72
     0
 73
     1
 74
     1
 75
     0
 76
     0
 77
     0
 78
     0
170
     0
171
     2
172
     0
173
     0
174
     0
175
     0
176
     0
177
     0
178
     0
270
     2
271
     4
272
     4
273
     2
274
     2
340
12
275
     0
280
     0
281
     0
282
     0
283
     1
284
     0
285
     0
286
     0
287
     3
288
     0
  0
DIMSTYLE
105
1105
330
1D
100
AcDbSymbolTableRecord
100
AcDbDimStyleTableRecord
  2
\U+0130SMAIL_1_5___1
 70
     0
  3

  4

  5

  6

  7

 40
0.0
 41
2.0
 42
0.625
 43
0.38
 44
0.18
 45
0.0
 46
0.0
 47
0.0135
 48
0.0135
140
2.5
141
0.137
142
0.0
143
25.4
144
1.0
145
0.0
146
1.0
147
0.5
 71
     0
 72
     0
 73
     0
 74
     0
 75
     0
 76
     0
 77
     1
 78
     8
170
     0
171
     2
172
     0
173
     0
174
     0
175
     0
176
     5
177
     5
178
     5
270
     2
271
     2
272
     2
273
     2
274
     2
340
436
275
     0
280
     0
281
     0
282
     0
283
     1
284
     0
285
     0
286
     0
287
     3
288
     0
  0
ENDTAB
  0
TABLE
  2
BLOCK_RECORD
  5
1
330
0
100
AcDbSymbolTable
 70
    11
  0
BLOCK_RECORD
  5
2
102
{ACAD_XDICTIONARY
360
5316F
102
}
330
1
100
AcDbSymbolTableRecord
100
AcDbBlockTableRecord
  2
*MODEL_SPACE
  0
BLOCK_RECORD
  5
C
102
{ACAD_XDICTIONARY
360
53171
102
}
330
1
100
AcDbSymbolTableRecord
100
AcDbBlockTableRecord
  2
*PAPER_SPACE
  0
BLOCK_RECORD
  5
52EFF
330
1
100
AcDbSymbolTableRecord
100
AcDbBlockTableRecord
  2
*D0
  0
BLOCK_RECORD
  5
52F0C
330
1
100
AcDbSymbolTableRecord
100
AcDbBlockTableRecord
  2
*D1
  0
BLOCK_RECORD
  5
52F19
330
1
100
AcDbSymbolTableRecord
100
AcDbBlockTableRecord
  2
*D2
  0
BLOCK_RECORD
  5
52F26
330
1
100
AcDbSymbolTableRecord
100
AcDbBlockTableRecord
  2
*D3
  0
BLOCK_RECORD
  5
52F33
330
1
100
AcDbSymbolTableRecord
100
AcDbBlockTableRecord
  2
*D4
  0
BLOCK_RECORD
  5
52F40
330
1
100
AcDbSymbolTableRecord
100
AcDbBlockTableRecord
  2
*D5
  0
BLOCK_RECORD
  5
52F57
330
1
100
AcDbSymbolTableRecord
100
AcDbBlockTableRecord
  2
*D6
  0
BLOCK_RECORD
  5
52F64
330
1
100
AcDbSymbolTableRecord
100
AcDbBlockTableRecord
  2
*D7
  0
BLOCK_RECORD
  5
52F71
330
1
100
AcDbSymbolTableRecord
100
AcDbBlockTableRecord
  2
*D8
  0
BLOCK_RECORD
  5
52F7C
330
1
100
AcDbSymbolTableRecord
100
AcDbBlockTableRecord
  2
*D9
  0
BLOCK_RECORD
  5
53102
330
1
100
AcDbSymbolTableRecord
100
AcDbBlockTableRecord
  2
*D10
  0
ENDTAB
  0
ENDSEC
  0
SECTION
  2
BLOCKS
  0
BLOCK
  5
3
330
2
100
AcDbEntity
  8
0
100
AcDbBlockBegin
  2
*MODEL_SPACE
 70
     0
 10
0.0
 20
0.0
 30
0.0
  3
*MODEL_SPACE
  1

  0
ENDBLK
  5
9
330
2
100
AcDbEntity
  8
0
100
AcDbBlockEnd
  0
BLOCK
  5
D
330
C
100
AcDbEntity
 67
     1
  8
0
100
AcDbBlockBegin
  2
*PAPER_SPACE
 70
     0
 10
0.0
 20
0.0
 30
0.0
  3
*PAPER_SPACE
  1

  0
ENDBLK
  5
E
330
C
100
AcDbEntity
 67
     1
  8
0
100
AcDbBlockEnd
  0
BLOCK
  5
52F09
330
52EFF
100
AcDbEntity
  8
0
 48
0.05
100
AcDbBlockBegin
  2
*D0
 70
     1
 10
0.0
 20
0.0
 30
0.0
  3
*D0
  1

  0
LINE
  5
530EF
330
52EFF
100
AcDbEntity
  8
0
 62
   242
 48
0.05
100
AcDbLine
 10
932.6352589084276
 20
-112.1764145578287
 30
0.0
 11
932.6352589084276
 21
-127.7249201082673
 31
0.0
  0
LINE
  5
530F0
330
52EFF
100
AcDbEntity
  8
0
 62
   242
 48
0.05
100
AcDbLine
 10
982.6352589084281
 20
-112.1764145578288
 30
0.0
 11
982.6352589084281
 21
-127.7249201082673
 31
0.0
  0
LINE
  5
530F1
330
52EFF
100
AcDbEntity
  8
0
 62
   242
 48
0.05
100
AcDbLine
 10
934.6352589084276
 20
-127.5449201082673
 30
0.0
 11
980.6352589084282
 21
-127.5449201082673
 31
0.0
  0
SOLID
  5
530F2
330
52EFF
100
AcDbEntity
  8
0
 62
   242
 48
0.05
100
AcDbTrace
 10
934.6352589084276
 20
-127.211586774934
 30
0.0
 11
934.6352589084276
 21
-127.8782534416006
 31
0.0
 12
932.6352589084276
 22
-127.5449201082673
 32
0.0
 13
932.6352589084276
 23
-127.5449201082673
 33
0.0
  0
SOLID
  5
530F3
330
52EFF
100
AcDbEntity
  8
0
 62
   242
 48
0.05
100
AcDbTrace
 10
980.6352589084282
 20
-127.211586774934
 30
0.0
 11
980.6352589084282
 21
-127.8782534416006
 31
0.0
 12
982.6352589084281
 22
-127.5449201082673
 32
0.0
 13
982.6352589084281
 23
-127.5449201082673
 33
0.0
  0
MTEXT
  5
530F4
330
52EFF
100
AcDbEntity
  8
0
 62
   242
 48
0.05
100
AcDbMText
 10
957.6352589084278
 20
-125.7949201082673
 30
0.0
 40
2.5
 41
0.0
 71
     5
 72
     1
  1
\A1;10
  7
ROMANT
1001
ACAD
1000
MTEXTBEGIN
1070
    73
1070
     1
1070
    44
1040
1.0
1070
    74
1070
     0
1000
MTEXTEND
  0
POINT
  5
530F5
330
52EFF
100
AcDbEntity
  8
DEFPOINTS
 62
     0
 48
0.05
100
AcDbPoint
 10
932.6352589084276
 20
-111.5514145578287
 30
0.0
  0
POINT
  5
530F6
330
52EFF
100
AcDbEntity
  8
DEFPOINTS
 62
     0
 48
0.05
100
AcDbPoint
 10
982.6352589084281
 20
-111.5514145578288
 30
0.0
  0
POINT
  5
530F7
330
52EFF
100
AcDbEntity
  8
DEFPOINTS
 62
     0
 48
0.05
100
AcDbPoint
 10
982.6352589084281
 20
-127.5449201082673
 30
0.0
  0
ENDBLK
  5
52F0A
330
52EFF
100
AcDbEntity
  8
0
 48
0.05
100
AcDbBlockEnd
  0
BLOCK
  5
52F16
330
52F0C
100
AcDbEntity
  8
0
 48
0.05
100
AcDbBlockBegin
  2
*D1
 70
     1
 10
0.0
 20
0.0
 30
0.0
  3
*D1
  1

  0
LINE
  5
530F8
330
52F0C
100
AcDbEntity
  8
0
 62
   242
 48
0.05
100
AcDbLine
 10
916.8852589084281
 20
-108.4264145578288
 30
0.0
 11
916.8852589084281
 21
-141.5653711739292
 31
0.0
  0
LINE
  5
530F9
330
52F0C
100
AcDbEntity
  8
0
 62
   242
 48
0.05
100
AcDbLine
 10
998.38525890843
 20
-108.4264145578214
 30
0.0
 11
998.38525890843
 21
-141.5653711739292
 31
0.0
  0
LINE
  5
530FA
330
52F0C
100
AcDbEntity
  8
0
 62
   242
 48
0.05
100
AcDbLine
 10
918.885258908428
 20
-141.3853711739292
 30
0.0
 11
996.3852589084298
 21
-141.3853711739292
 31
0.0
  0
SOLID
  5
530FB
330
52F0C
100
AcDbEntity
  8
0
 62
   242
 48
0.05
100
AcDbTrace
 10
918.885258908428
 20
-141.0520378405959
 30
0.0
 11
918.885258908428
 21
-141.7187045072626
 31
0.0
 12
916.8852589084281
 22
-141.3853711739292
 32
0.0
 13
916.8852589084281
 23
-141.3853711739292
 33
0.0
  0
SOLID
  5
530FC
330
52F0C
100
AcDbEntity
  8
0
 62
   242
 48
0.05
100
AcDbTrace
 10
996.3852589084298
 20
-141.0520378405959
 30
0.0
 11
996.3852589084298
 21
-141.7187045072626
 31
0.0
 12
998.38525890843
 22
-141.3853711739292
 32
0.0
 13
998.38525890843
 23
-141.3853711739292
 33
0.0
  0
MTEXT
  5
530FD
330
52F0C
100
AcDbEntity
  8
0
 62
   242
 48
0.05
100
AcDbMText
 10
957.635258908429
 20
-139.6353711739292
 30
0.0
 40
2.5
 41
0.0
 71
     5
 72
     1
  1
\A1;16.3
  7
ROMANT
1001
ACAD
1000
MTEXTBEGIN
1070
    73
1070
     1
1070
    44
1040
1.0
1070
    74
1070
     0
1000
MTEXTEND
  0
POINT
  5
530FE
330
52F0C
100
AcDbEntity
  8
DEFPOINTS
 62
     0
 48
0.05
100
AcDbPoint
 10
916.8852589084281
 20
-107.8014145578288
 30
0.0
  0
POINT
  5
530FF
330
52F0C
100
AcDbEntity
  8
DEFPOINTS
 62
     0
 48
0.05
100
AcDbPoint
 10
998.38525890843
 20
-107.8014145578213
 30
0.0
  0
POINT
  5
53100
330
52F0C
100
AcDbEntity
  8
DEFPOINTS
 62
     0
 48
0.05
100
AcDbPoint
 10
998.38525890843
 20
-141.3853711739292
 30
0.0
  0
ENDBLK
  5
52F17
330
52F0C
100
AcDbEntity
  8
0
 48
0.05
100
AcDbBlockEnd
  0
BLOCK
  5
52F23
330
52F19
100
AcDbEntity
  8
0
 48
0.05
100
AcDbBlockBegin
  2
*D2
 70
     1
 10
0.0
 20
0.0
 30
0.0
  3
*D2
  1

  0
LINE
  5
53136
330
52F19
100
AcDbEntity
  8
0
 62
   242
 48
0.05
100
AcDbLine
 10
898.3834946162712
 20
-112.1764688064449
 30
0.0
 11
898.3834946162712
 21
-77.6208525604693
 31
0.0
  0
LINE
  5
53137
330
52F19
100
AcDbEntity
  8
0
 62
   242
 48
0.05
100
AcDbLine
 10
1005.885258908428
 20
-91.17641455782882
 30
0.0
 11
1005.885258908428
 21
-77.6208525604693
 31
0.0
  0
LINE
  5
53138
330
52F19
100
AcDbEntity
  8
0
 62
   242
 48
0.05
100
AcDbLine
 10
900.3834946162712
 20
-77.8008525604693
 30
0.0
 11
1003.885258908428
 21
-77.8008525604693
 31
0.0
  0
SOLID
  5
53139
330
52F19
100
AcDbEntity
  8
0
 62
   242
 48
0.05
100
AcDbTrace
 10
900.3834946162712
 20
-77.46751922713598
 30
0.0
 11
900.3834946162712
 21
-78.13418589380264
 31
0.0
 12
898.3834946162712
 22
-77.8008525604693
 32
0.0
 13
898.3834946162712
 23
-77.8008525604693
 33
0.0
  0
SOLID
  5
5313A
330
52F19
100
AcDbEntity
  8
0
 62
   242
 48
0.05
100
AcDbTrace
 10
1003.885258908428
 20
-77.46751922713598
 30
0.0
 11
1003.885258908428
 21
-78.13418589380264
 31
0.0
 12
1005.885258908428
 22
-77.8008525604693
 32
0.0
 13
1005.885258908428
 23
-77.8008525604693
 33
0.0
  0
MTEXT
  5
5313B
330
52F19
100
AcDbEntity
  8
0
 62
   242
 48
0.05
100
AcDbMText
 10
952.1343767623495
 20
-76.05085256046931
 30
0.0
 40
2.5
 41
0.0
 71
     5
 72
     1
  1
\A1;21.5±0.3
  7
ROMANT
1001
ACAD
1000
MTEXTBEGIN
1070
    73
1070
     1
1070
    44
1040
1.0
1070
    74
1070
     0
1000
MTEXTEND
  0
POINT
  5
5313C
330
52F19
100
AcDbEntity
  8
DEFPOINTS
 62
     0
 48
0.05
100
AcDbPoint
 10
898.3834946162712
 20
-112.8014688064449
 30
0.0
  0
POINT
  5
5313D
330
52F19
100
AcDbEntity
  8
DEFPOINTS
 62
     0
 48
0.05
100
AcDbPoint
 10
1005.885258908428
 20
-91.80141455782882
 30
0.0
  0
POINT
  5
5313E
330
52F19
100
AcDbEntity
  8
DEFPOINTS
 62
     0
 48
0.05
100
AcDbPoint
 10
1005.885258908428
 20
-77.8008525604693
 30
0.0
  0
ENDBLK
  5
52F24
330
52F19
100
AcDbEntity
  8
0
 48
0.05
100
AcDbBlockEnd
  0
BLOCK
  5
52F30
330
52F26
100
AcDbEntity
  8
0
 48
0.05
100
AcDbBlockBegin
  2
*D3
 70
     1
 10
0.0
 20
0.0
 30
0.0
  3
*D3
  1

  0
LINE
  5
52F27
330
52F26
100
AcDbEntity
  8
0
 62
   242
 48
0.05
100
AcDbLine
 10
1005.010258908429
 20
-115.3014145578288
 30
0.0
 11
1026.510377791999
 21
-115.3014145578288
 31
0.0
  0
LINE
  5
52F28
330
52F26
100
AcDbEntity
  8
0
 62
   242
 48
0.05
100
AcDbLine
 10
1005.010258908429
 20
-90.30141455782882
 30
0.0
 11
1026.510377791999
 21
-90.30141455782882
 31
0.0
  0
LINE
  5
52F29
330
52F26
100
AcDbEntity
  8
0
 62
   242
 48
0.05
100
AcDbLine
 10
1026.330377791999
 20
-113.3014145578288
 30
0.0
 11
1026.330377791999
 21
-92.30141455782883
 31
0.0
  0
SOLID
  5
52F2A
330
52F26
100
AcDbEntity
  8
0
 62
   242
 48
0.05
100
AcDbTrace
 10
1025.997044458665
 20
-113.3014145578288
 30
0.0
 11
1026.663711125332
 21
-113.3014145578288
 31
0.0
 12
1026.330377791999
 22
-115.3014145578288
 32
0.0
 13
1026.330377791999
 23
-115.3014145578288
 33
0.0
  0
SOLID
  5
52F2B
330
52F26
100
AcDbEntity
  8
0
 62
   242
 48
0.05
100
AcDbTrace
 10
1025.997044458665
 20
-92.30141455782883
 30
0.0
 11
1026.663711125332
 21
-92.30141455782883
 31
0.0
 12
1026.330377791999
 22
-90.30141455782882
 32
0.0
 13
1026.330377791999
 23
-90.30141455782882
 33
0.0
  0
MTEXT
  5
52F2C
330
52F26
100
AcDbEntity
  8
0
 62
   242
 48
0.05
100
AcDbMText
 10
1024.580377791999
 20
-102.8014145578286
 30
0.0
 40
2.5
 41
0.0
 71
     5
 72
     1
  1
\A1;5
  7
ROMANT
 11
0.0000000000000001
 21
1.0
 31
0.0
1001
ACAD
1000
MTEXTBEGIN
1070
    73
1070
     1
1070
    44
1040
1.0
1070
    74
1070
     0
1000
MTEXTEND
  0
POINT
  5
52F2D
330
52F26
100
AcDbEntity
  8
DEFPOINTS
 62
     0
 48
0.05
100
AcDbPoint
 10
1004.385258908429
 20
-115.3014145578288
 30
0.0
  0
POINT
  5
52F2E
330
52F26
100
AcDbEntity
  8
DEFPOINTS
 62
     0
 48
0.05
100
AcDbPoint
 10
1004.385258908429
 20
-90.30141455782882
 30
0.0
  0
POINT
  5
52F2F
330
52F26
100
AcDbEntity
  8
DEFPOINTS
 62
     0
 48
0.05
100
AcDbPoint
 10
1026.330377791999
 20
-90.30141455782882
 30
0.0
  0
ENDBLK
  5
52F31
330
52F26
100
AcDbEntity
  8
0
 48
0.05
100
AcDbBlockEnd
  0
BLOCK
  5
52F3D
330
52F33
100
AcDbEntity
  8
0
 48
0.05
100
AcDbBlockBegin
  2
*D4
 70
     1
 10
0.0
 20
0.0
 30
0.0
  3
*D4
  1

  0
LINE
  5
530E6
330
52F33
100
AcDbEntity
  8
0
 62
   242
 48
0.05
100
AcDbLine
 10
999.010258908429
 20
-97.80141455782882
 30
0.0
 11
1015.661609429035
 21
-97.80141455782882
 31
0.0
  0
LINE
  5
530E7
330
52F33
100
AcDbEntity
  8
0
 62
   242
 48
0.05
100
AcDbLine
 10
999.0102589084299
 20
-107.8014145578288
 30
0.0
 11
1015.661609429035
 21
-107.8014145578288
 31
0.0
  0
LINE
  5
530E8
330
52F33
100
AcDbEntity
  8
0
 62
   242
 48
0.05
100
AcDbLine
 10
1015.481609429035
 20
-99.80141455782883
 30
0.0
 11
1015.481609429035
 21
-105.8014145578288
 31
0.0
  0
SOLID
  5
530E9
330
52F33
100
AcDbEntity
  8
0
 62
   242
 48
0.05
100
AcDbTrace
 10
1015.148276095702
 20
-99.80141455782883
 30
0.0
 11
1015.814942762368
 21
-99.80141455782883
 31
0.0
 12
1015.481609429035
 22
-97.80141455782882
 32
0.0
 13
1015.481609429035
 23
-97.80141455782882
 33
0.0
  0
SOLID
  5
530EA
330
52F33
100
AcDbEntity
  8
0
 62
   242
 48
0.05
100
AcDbTrace
 10
1015.148276095702
 20
-105.8014145578288
 30
0.0
 11
1015.814942762368
 21
-105.8014145578288
 31
0.0
 12
1015.481609429035
 22
-107.8014145578288
 32
0.0
 13
1015.481609429035
 23
-107.8014145578288
 33
0.0
  0
MTEXT
  5
530EB
330
52F33
100
AcDbEntity
  8
0
 62
   242
 48
0.05
100
AcDbMText
 10
1013.731609429035
 20
-102.8014145578288
 30
0.0
 40
2.5
 41
0.0
 71
     5
 72
     1
  1
\A1;2
  7
ROMANT
 11
0.0000000000000001
 21
1.0
 31
0.0
1001
ACAD
1000
MTEXTBEGIN
1070
    73
1070
     1
1070
    44
1040
1.0
1070
    74
1070
     0
1000
MTEXTEND
  0
POINT
  5
530EC
330
52F33
100
AcDbEntity
  8
DEFPOINTS
 62
     0
 48
0.05
100
AcDbPoint
 10
998.3852589084291
 20
-97.80141455782882
 30
0.0
  0
POINT
  5
530ED
330
52F33
100
AcDbEntity
  8
DEFPOINTS
 62
     0
 48
0.05
100
AcDbPoint
 10
998.38525890843
 20
-107.8014145578288
 30
0.0
  0
POINT
  5
530EE
330
52F33
100
AcDbEntity
  8
DEFPOINTS
 62
     0
 48
0.05
100
AcDbPoint
 10
1015.481609429035
 20
-107.8014145578288
 30
0.0
  0
ENDBLK
  5
52F3E
330
52F33
100
AcDbEntity
  8
0
 48
0.05
100
AcDbBlockEnd
  0
BLOCK
  5
52F4A
330
52F40
100
AcDbEntity
  8
0
 48
0.05
100
AcDbBlockBegin
  2
*D5
 70
     1
 10
0.0
 20
0.0
 30
0.0
  3
*D5
  1

  0
LINE
  5
52F4C
330
52F40
100
AcDbEntity
  8
0
 62
   242
 48
0.05
100
AcDbLine
 10
955.1352589084286
 20
-90.30141455782882
 30
0.0
 11
954.9211516914951
 21
-90.30141455782882
 31
0.0
  0
LINE
  5
52F4D
330
52F40
100
AcDbEntity
  8
0
 62
   242
 48
0.05
100
AcDbLine
 10
955.1352589084286
 20
-97.80141455782882
 30
0.0
 11
954.9211516914951
 21
-97.80141455782882
 31
0.0
  0
LINE
  5
52F4E
330
52F40
100
AcDbEntity
  8
0
 62
   242
 48
0.05
100
AcDbLine
 10
954.7411516914952
 20
-92.30141455782883
 30
0.0
 11
954.7411516914952
 21
-95.80141455782882
 31
0.0
  0
LINE
  5
52F4F
330
52F40
100
AcDbEntity
  8
0
 62
   242
 48
0.05
100
AcDbLine
 10
954.7411516914952
 20
-97.80141455782882
 30
0.0
 11
954.7411516914952
 21
-106.352239919859
 31
0.0
  0
SOLID
  5
52F50
330
52F40
100
AcDbEntity
  8
0
 62
   242
 48
0.05
100
AcDbTrace
 10
954.4078183581618
 20
-92.30141455782883
 30
0.0
 11
955.0744850248285
 21
-92.30141455782883
 31
0.0
 12
954.7411516914952
 22
-90.30141455782882
 32
0.0
 13
954.7411516914952
 23
-90.30141455782882
 33
0.0
  0
SOLID
  5
52F51
330
52F40
100
AcDbEntity
  8
0
 62
   242
 48
0.05
100
AcDbTrace
 10
954.4078183581618
 20
-95.80141455782882
 30
0.0
 11
955.0744850248285
 21
-95.80141455782882
 31
0.0
 12
954.7411516914952
 22
-97.80141455782882
 32
0.0
 13
954.7411516914952
 23
-97.80141455782882
 33
0.0
  0
MTEXT
  5
52F52
330
52F40
100
AcDbEntity
  8
0
 62
   242
 48
0.05
100
AcDbMText
 10
952.9911516914951
 20
-103.0768272388437
 30
0.0
 40
2.5
 41
0.0
 71
     5
 72
     1
  1
\A1;1.5
  7
ROMANT
 11
0.0000000000000001
 21
1.0
 31
0.0
1001
ACAD
1000
MTEXTBEGIN
1070
    73
1070
     1
1070
    44
1040
1.0
1070
    74
1070
     0
1000
MTEXTEND
  0
POINT
  5
52F53
330
52F40
100
AcDbEntity
  8
DEFPOINTS
 62
     0
 48
0.05
100
AcDbPoint
 10
954.5102589084285
 20
-90.30141455782882
 30
0.0
  0
POINT
  5
52F54
330
52F40
100
AcDbEntity
  8
DEFPOINTS
 62
     0
 48
0.05
100
AcDbPoint
 10
954.5102589084285
 20
-97.80141455782882
 30
0.0
  0
POINT
  5
52F55
330
52F40
100
AcDbEntity
  8
DEFPOINTS
 62
     0
 48
0.05
100
AcDbPoint
 10
954.7411516914952
 20
-97.80141455782882
 30
0.0
  0
ENDBLK
  5
52F4B
330
52F40
100
AcDbEntity
  8
0
 48
0.05
100
AcDbBlockEnd
  0
BLOCK
  5
52F61
330
52F57
100
AcDbEntity
  8
0
 48
0.05
100
AcDbBlockBegin
  2
*D6
 70
     1
 10
0.0
 20
0.0
 30
0.0
  3
*D6
  1

  0
LINE
  5
52F58
330
52F57
100
AcDbEntity
  8
0
 62
   242
 48
0.05
100
AcDbLine
 10
983.510258908428
 20
-115.3014145578288
 30
0.0
 11
973.2525583146568
 21
-115.3014145578288
 31
0.0
  0
LINE
  5
52F59
330
52F57
100
AcDbEntity
  8
0
 62
   242
 48
0.05
100
AcDbLine
 10
983.510258908428
 20
-107.8014145578288
 30
0.0
 11
973.2525583146568
 21
-107.8014145578288
 31
0.0
  0
LINE
  5
52F5A
330
52F57
100
AcDbEntity
  8
0
 62
   242
 48
0.05
100
AcDbLine
 10
973.4325583146567
 20
-113.3014145578288
 30
0.0
 11
973.4325583146567
 21
-109.8014145578288
 31
0.0
  0
SOLID
  5
52F5B
330
52F57
100
AcDbEntity
  8
0
 62
   242
 48
0.05
100
AcDbTrace
 10
973.0992249813233
 20
-113.3014145578288
 30
0.0
 11
973.7658916479901
 21
-113.3014145578288
 31
0.0
 12
973.4325583146567
 22
-115.3014145578288
 32
0.0
 13
973.4325583146567
 23
-115.3014145578288
 33
0.0
  0
SOLID
  5
52F5C
330
52F57
100
AcDbEntity
  8
0
 62
   242
 48
0.05
100
AcDbTrace
 10
973.0992249813233
 20
-109.8014145578288
 30
0.0
 11
973.7658916479901
 21
-109.8014145578288
 31
0.0
 12
973.4325583146567
 22
-107.8014145578288
 32
0.0
 13
973.4325583146567
 23
-107.8014145578288
 33
0.0
  0
MTEXT
  5
52F5D
330
52F57
100
AcDbEntity
  8
0
 62
   242
 48
0.05
100
AcDbMText
 10
971.6825583146567
 20
-111.5514145578286
 30
0.0
 40
2.5
 41
0.0
 71
     5
 72
     1
  1
\A1;1.5
  7
ROMANT
 11
0.0000000000000001
 21
1.0
 31
0.0
1001
ACAD
1000
MTEXTBEGIN
1070
    73
1070
     1
1070
    44
1040
1.0
1070
    74
1070
     0
1000
MTEXTEND
  0
POINT
  5
52F5E
330
52F57
100
AcDbEntity
  8
DEFPOINTS
 62
     0
 48
0.05
100
AcDbPoint
 10
984.135258908428
 20
-115.3014145578288
 30
0.0
  0
POINT
  5
52F5F
330
52F57
100
AcDbEntity
  8
DEFPOINTS
 62
     0
 48
0.05
100
AcDbPoint
 10
984.135258908428
 20
-107.8014145578288
 30
0.0
  0
POINT
  5
52F60
330
52F57
100
AcDbEntity
  8
DEFPOINTS
 62
     0
 48
0.05
100
AcDbPoint
 10
973.4325583146567
 20
-107.8014145578288
 30
0.0
  0
ENDBLK
  5
52F62
330
52F57
100
AcDbEntity
  8
0
 48
0.05
100
AcDbBlockEnd
  0
BLOCK
  5
52F6E
330
52F64
100
AcDbEntity
  8
0
 48
0.05
100
AcDbBlockBegin
  2
*D7
 70
     1
 10
0.0
 20
0.0
 30
0.0
  3
*D7
  1

  0
LINE
  5
52F65
330
52F64
100
AcDbEntity
  8
0
 62
   242
 48
0.05
100
AcDbLine
 10
908.4184504077425
 20
-131.1711345041298
 30
0.0
 11
911.4511306103466
 21
-142.3308506334588
 31
0.0
  0
LINE
  5
52F66
330
52F64
100
AcDbEntity
  8
0
 62
   242
 48
0.05
100
AcDbLine
 10
901.1809337691977
 20
-133.137947384616
 30
0.0
 11
904.2136139718019
 21
-144.2976635139449
 31
0.0
  0
LINE
  5
52F67
330
52F64
100
AcDbEntity
  8
0
 62
   242
 48
0.05
100
AcDbLine
 10
909.4739226642706
 20
-142.6816336689298
 30
0.0
 11
906.0964148996145
 21
-143.5994796798239
 31
0.0
  0
SOLID
  5
52F68
330
52F64
100
AcDbEntity
  8
0
 62
   242
 48
0.05
100
AcDbTrace
 10
909.3865087584715
 20
-142.3599662627724
 30
0.0
 11
909.5613365700701
 21
-143.0033010750872
 31
0.0
 12
911.4039271012149
 22
-142.1571502341338
 32
0.0
 13
911.4039271012149
 23
-142.1571502341338
 33
0.0
  0
SOLID
  5
52F69
330
52F64
100
AcDbEntity
  8
0
 62
   242
 48
0.05
100
AcDbTrace
 10
906.0090009938152
 20
-143.2778122736665
 30
0.0
 11
906.1838288054138
 21
-143.9211470859812
 31
0.0
 12
904.1664104626702
 22
-144.1239631146199
 32
0.0
 13
904.1664104626702
 23
-144.1239631146199
 33
0.0
  0
MTEXT
  5
52F6A
330
52F64
100
AcDbEntity
  8
0
 62
   242
 48
0.05
100
AcDbMText
 10
907.3262457764961
 20
-141.4518027920506
 30
0.0
 40
2.5
 41
0.0
 71
     5
 72
     1
  1
\A1;1.5
  7
ROMANT
 11
0.9650022184721333
 21
0.2622417173980165
 31
0.0
1001
ACAD
1000
MTEXTBEGIN
1070
    73
1070
     1
1070
    44
1040
1.0
1070
    74
1070
     0
1000
MTEXTEND
  0
POINT
  5
52F6B
330
52F64
100
AcDbEntity
  8
DEFPOINTS
 62
     0
 48
0.05
100
AcDbPoint
 10
908.2545493343687
 20
-130.5680081175847
 30
0.0
  0
POINT
  5
52F6C
330
52F64
100
AcDbEntity
  8
DEFPOINTS
 62
     0
 48
0.05
100
AcDbPoint
 10
901.0170326958238
 20
-132.5348209980709
 30
0.0
  0
POINT
  5
52F6D
330
52F64
100
AcDbEntity
  8
DEFPOINTS
 62
     0
 48
0.05
100
AcDbPoint
 10
904.1664104626702
 20
-144.1239631146199
 30
0.0
  0
ENDBLK
  5
52F6F
330
52F64
100
AcDbEntity
  8
0
 48
0.05
100
AcDbBlockEnd
  0
BLOCK
  5
52F79
330
52F71
100
AcDbEntity
  8
0
 48
0.05
100
AcDbBlockBegin
  2
*D8
 70
     1
 10
0.0
 20
0.0
 30
0.0
  3
*D8
  1

  0
LINE
  5
52F72
330
52F71
100
AcDbEntity
  8
0
 62
   242
 48
0.05
100
AcDbLine
 10
880.1833065529265
 20
-116.8747708916747
 30
0.0
 11
896.4567750065373
 21
-116.1654340136517
 31
0.0
  0
MTEXT
  5
52F73
330
52F71
100
AcDbEntity
  8
0
 62
   242
 48
0.05
100
AcDbMText
 10
887.2447818095325
 20
-114.8153097535336
 30
0.0
 40
2.5
 41
0.0
 71
     5
 72
     1
  1
\A1;R15.05
  7
ROMANT
 11
0.9990513707510814
 21
0.0435471996847688
 31
0.0
1001
ACAD
1000
MTEXTBEGIN
1070
    73
1070
     1
1070
    44
1040
1.0
1070
    74
1070
     0
1000
MTEXTEND
  0
SOLID
  5
52F74
330
52F71
100
AcDbEntity
  8
0
 62
   242
 48
0.05
100
AcDbTrace
 10
896.4422592733091
 20
-115.832416890068
 30
0.0
 11
896.4712907397656
 21
-116.4984511372354
 31
0.0
 12
898.4548777480396
 22
-116.0783396142822
 32
0.0
 13
898.4548777480396
 23
-116.0783396142822
 33
0.0
  0
LINE
  5
52F75
330
52F71
100
AcDbEntity
  8
0
 62
   242
 48
0.05
100
AcDbLine
 10
973.5422093799709
 20
-112.8014688064451
 30
0.0
 11
973.722209379971
 21
-112.8014688064451
 31
0.0
  0
LINE
  5
52F76
330
52F71
100
AcDbEntity
  8
0
 62
   242
 48
0.05
100
AcDbLine
 10
973.632209379971
 20
-112.8914688064451
 30
0.0
 11
973.6322093799708
 21
-112.7114688064451
 31
0.0
  0
POINT
  5
52F77
330
52F71
100
AcDbEntity
  8
DEFPOINTS
 62
     0
 48
0.05
100
AcDbPoint
 10
898.4548777480396
 20
-116.0783396142822
 30
0.0
  0
POINT
  5
52F78
330
52F71
100
AcDbEntity
  8
DEFPOINTS
 62
     0
 48
0.05
100
AcDbPoint
 10
973.6322093799708
 20
-112.8014688064451
 30
0.0
  0
ENDBLK
  5
52F7A
330
52F71
100
AcDbEntity
  8
0
 48
0.05
100
AcDbBlockEnd
  0
BLOCK
  5
52F84
330
52F7C
100
AcDbEntity
  8
0
 48
0.05
100
AcDbBlockBegin
  2
*D9
 70
     1
 10
0.0
 20
0.0
 30
0.0
  3
*D9
  1

  0
LINE
  5
52F86
330
52F7C
100
AcDbEntity
  8
0
 62
   242
 48
0.05
100
AcDbLine
 10
884.5844835136922
 20
-82.53117837731043
 30
0.0
 11
899.6495852338274
 21
-91.18688003885546
 31
0.0
  0
MTEXT
  5
52F87
330
52F7C
100
AcDbEntity
  8
0
 62
   242
 48
0.05
100
AcDbMText
 10
890.6188412949726
 20
-83.97995473848874
 30
0.0
 40
2.5
 41
0.0
 71
     5
 72
     1
  1
\A1;R0.75
  7
ROMANT
 11
0.8670736825393465
 21
-0.4981799163431385
 31
0.0
1001
ACAD
1000
MTEXTBEGIN
1070
    73
1070
     1
1070
    44
1040
1.0
1070
    74
1070
     0
1000
MTEXTEND
  0
SOLID
  5
52F88
330
52F7C
100
AcDbEntity
  8
0
 62
   242
 48
0.05
100
AcDbTrace
 10
899.8156452059417
 20
-90.89785547800904
 30
0.0
 11
899.483525261713
 21
-91.47590459970189
 31
0.0
 12
901.3837325989062
 22
-92.18323987154178
 32
0.0
 13
901.3837325989062
 23
-92.18323987154178
 33
0.0
  0
LINE
  5
52F89
330
52F7C
100
AcDbEntity
  8
0
 62
   242
 48
0.05
100
AcDbLine
 10
904.5452589084282
 20
-94.05141455782842
 30
0.0
 11
904.7252589084282
 21
-94.05141455782842
 31
0.0
  0
LINE
  5
52F8A
330
52F7C
100
AcDbEntity
  8
0
 62
   242
 48
0.05
100
AcDbLine
 10
904.6352589084284
 20
-94.14141455782839
 30
0.0
 11
904.6352589084284
 21
-93.96141455782844
 31
0.0
  0
POINT
  5
52F8B
330
52F7C
100
AcDbEntity
  8
DEFPOINTS
 62
     0
 48
0.05
100
AcDbPoint
 10
901.3837325989062
 20
-92.18323987154178
 30
0.0
  0
POINT
  5
52F8C
330
52F7C
100
AcDbEntity
  8
DEFPOINTS
 62
     0
 48
0.05
100
AcDbPoint
 10
904.6352589084284
 20
-94.05141455782842
 30
0.0
  0
ENDBLK
  5
52F85
330
52F7C
100
AcDbEntity
  8
0
 48
0.05
100
AcDbBlockEnd
  0
BLOCK
  5
5310C
330
53102
100
AcDbEntity
  8
0
 48
0.05
100
AcDbBlockBegin
  2
*D10
 70
     1
 10
0.0
 20
0.0
 30
0.0
  3
*D10
  1

  0
LINE
  5
53103
330
53102
100
AcDbEntity
  8
0
 62
   242
 48
0.05
100
AcDbLine
 10
905.8820148808472
 20
-90.30141455782882
 30
0.0
 11
875.9499275209273
 21
-90.30141455782882
 31
0.0
  0
LINE
  5
53104
330
53102
100
AcDbEntity
  8
0
 62
   242
 48
0.05
100
AcDbLine
 10
904.0107910150961
 20
-135.3014145578288
 30
0.0
 11
875.9499275209273
 21
-135.3014145578288
 31
0.0
  0
LINE
  5
53105
330
53102
100
AcDbEntity
  8
0
 62
   242
 48
0.05
100
AcDbLine
 10
876.1299275209273
 20
-92.30141455782883
 30
0.0
 11
876.1299275209273
 21
-133.3014145578288
 31
0.0
  0
SOLID
  5
53106
330
53102
100
AcDbEntity
  8
0
 62
   242
 48
0.05
100
AcDbTrace
 10
875.7965941875939
 20
-92.30141455782883
 30
0.0
 11
876.4632608542607
 21
-92.30141455782883
 31
0.0
 12
876.1299275209273
 22
-90.30141455782882
 32
0.0
 13
876.1299275209273
 23
-90.30141455782882
 33
0.0
  0
SOLID
  5
53107
330
53102
100
AcDbEntity
  8
0
 62
   242
 48
0.05
100
AcDbTrace
 10
875.7965941875939
 20
-133.3014145578288
 30
0.0
 11
876.4632608542607
 21
-133.3014145578288
 31
0.0
 12
876.1299275209273
 22
-135.3014145578288
 32
0.0
 13
876.1299275209273
 23
-135.3014145578288
 33
0.0
  0
MTEXT
  5
53108
330
53102
100
AcDbEntity
  8
0
 62
   242
 48
0.05
100
AcDbMText
 10
874.3799275209273
 20
-112.8014145578286
 30
0.0
 40
2.5
 41
0.0
 71
     5
 72
     1
  1
\A1;9
  7
ROMANT
 11
0.0000000000000001
 21
1.0
 31
0.0
1001
ACAD
1000
MTEXTBEGIN
1070
    73
1070
     1
1070
    44
1040
1.0
1070
    74
1070
     0
1000
MTEXTEND
  0
POINT
  5
53109
330
53102
100
AcDbEntity
  8
DEFPOINTS
 62
     0
 48
0.05
100
AcDbPoint
 10
906.5070148808471
 20
-90.30141455782882
 30
0.0
  0
POINT
  5
5310A
330
53102
100
AcDbEntity
  8
DEFPOINTS
 62
     0
 48
0.05
100
AcDbPoint
 10
904.6357910150961
 20
-135.3014145578288
 30
0.0
  0
POINT
  5
5310B
330
53102
100
AcDbEntity
  8
DEFPOINTS
 62
     0
 48
0.05
100
AcDbPoint
 10
876.1299275209273
 20
-135.3014145578288
 30
0.0
  0
ENDBLK
  5
5310D
330
53102
100
AcDbEntity
  8
0
 48
0.05
100
AcDbBlockEnd
  0
ENDSEC
  0
SECTION
  2
ENTITIES
  0
POLYLINE
  5
52EFB
330
2
100
AcDbEntity
  8
0
 48
0.05
100
AcDb2dPolyline
 66
     1
 10
0.0
 20
0.0
 30
0.0
  0
VERTEX
  5
53173
330
52EFB
100
AcDbEntity
  8
0
 48
0.05
100
AcDbVertex
100
AcDb2dVertex
 10
940.7248902947397
 20
-0.2533417589327145
 30
0.0
 42
-0.343333344440149
  0
VERTEX
  5
53174
330
52EFB
100
AcDbEntity
  8
0
 48
0.05
100
AcDbVertex
100
AcDb2dVertex
 10
941.4519621709759
 20
0.3126297465711332
 30
0.0
  0
VERTEX
  5
53175
330
52EFB
100
AcDbEntity
  8
0
 48
0.05
100
AcDbVertex
100
AcDb2dVertex
 10
961.4019621709759
 20
0.3126297465711332
 30
0.0
 42
-0.4142135623730951
  0
VERTEX
  5
53176
330
52EFB
100
AcDbEntity
  8
0
 48
0.05
100
AcDbVertex
100
AcDb2dVertex
 10
961.7019621709758
 20
0.0126297465711332
 30
0.0
  0
VERTEX
  5
53177
330
52EFB
100
AcDbEntity
  8
0
 48
0.05
100
AcDbVertex
100
AcDb2dVertex
 10
961.7019621709758
 20
-4.387370253428866
 30
0.0
 42
-0.4142135623730951
  0
VERTEX
  5
53178
330
52EFB
100
AcDbEntity
  8
0
 48
0.05
100
AcDbVertex
100
AcDb2dVertex
 10
961.4019621709759
 20
-4.687370253428866
 30
0.0
  0
VERTEX
  5
53179
330
52EFB
100
AcDbEntity
  8
0
 48
0.05
100
AcDbVertex
100
AcDb2dVertex
 10
957.3519621709758
 20
-4.687370253428866
 30
0.0
 42
-0.4142135623730951
  0
VERTEX
  5
5317A
330
52EFB
100
AcDbEntity
  8
0
 48
0.05
100
AcDbVertex
100
AcDb2dVertex
 10
957.051962170976
 20
-4.387370253428866
 30
0.0
  0
VERTEX
  5
5317B
330
52EFB
100
AcDbEntity
  8
0
 48
0.05
100
AcDbVertex
100
AcDb2dVertex
 10
957.0519621709758
 20
-3.487370253428867
 30
0.0
 42
-0.4142135623730951
  0
VERTEX
  5
5317C
330
52EFB
100
AcDbEntity
  8
0
 48
0.05
100
AcDbVertex
100
AcDb2dVertex
 10
957.3519621709758
 20
-3.187370253428867
 30
0.0
  0
VERTEX
  5
5317D
330
52EFB
100
AcDbEntity
  8
0
 48
0.05
100
AcDbVertex
100
AcDb2dVertex
 10
960.2019621709761
 20
-3.187370253428866
 30
0.0
  0
VERTEX
  5
5317E
330
52EFB
100
AcDbEntity
  8
0
 48
0.05
100
AcDbVertex
100
AcDb2dVertex
 10
960.2019621709759
 20
-1.187370253428866
 30
0.0
  0
VERTEX
  5
5317F
330
52EFB
100
AcDbEntity
  8
0
 48
0.05
100
AcDbVertex
100
AcDb2dVertex
 10
943.9019621709761
 20
-1.187370253428866
 30
0.0
  0
VERTEX
  5
53180
330
52EFB
100
AcDbEntity
  8
0
 48
0.05
100
AcDbVertex
100
AcDb2dVertex
 10
943.9019621709759
 20
-3.187370253428866
 30
0.0
  0
VERTEX
  5
53181
330
52EFB
100
AcDbEntity
  8
0
 48
0.05
100
AcDbVertex
100
AcDb2dVertex
 10
946.7519621709758
 20
-3.187370253428867
 30
0.0
 42
-0.4142135623730951
  0
VERTEX
  5
53182
330
52EFB
100
AcDbEntity
  8
0
 48
0.05
100
AcDbVertex
100
AcDb2dVertex
 10
947.0519621709758
 20
-3.487370253428867
 30
0.0
  0
VERTEX
  5
53183
330
52EFB
100
AcDbEntity
  8
0
 48
0.05
100
AcDbVertex
100
AcDb2dVertex
 10
947.0519621709756
 20
-4.387370253428838
 30
0.0
 42
-0.4142135623731227
  0
VERTEX
  5
53184
330
52EFB
100
AcDbEntity
  8
0
 48
0.05
100
AcDbVertex
100
AcDb2dVertex
 10
946.7519621709756
 20
-4.687370253428866
 30
0.0
  0
VERTEX
  5
53185
330
52EFB
100
AcDbEntity
  8
0
 48
0.05
100
AcDbVertex
100
AcDb2dVertex
 10
942.0257821198005
 20
-4.687370253428866
 30
0.0
 42
0.4320213082308396
  0
VERTEX
  5
53186
330
52EFB
100
AcDbEntity
  8
0
 48
0.05
100
AcDbVertex
100
AcDb2dVertex
 10
941.7263294392618
 20
-5.005483566716487
 30
0.0
 42
0.0512773802894658
  0
VERTEX
  5
53187
330
52EFB
100
AcDbEntity
  8
0
 48
0.05
100
AcDbVertex
100
AcDb2dVertex
 10
942.1758202561639
 20
-7.74068896538005
 30
0.0
 42
-0.4942477191553309
  0
VERTEX
  5
53188
330
52EFB
100
AcDbEntity
  8
0
 48
0.05
100
AcDbVertex
100
AcDb2dVertex
 10
941.452068592309
 20
-8.687370253428866
 30
0.0
 42
-0.338466155485
  0
VERTEX
  5
53189
330
52EFB
100
AcDbEntity
  8
0
 48
0.05
100
AcDbVertex
100
AcDb2dVertex
 10
940.728316928455
 20
-8.134051541477459
 30
0.0
 42
-0.1336772310180614
  0
VERTEX
  5
5318A
330
52EFB
100
AcDbEntity
  8
0
 48
0.05
100
AcDbVertex
100
AcDb2dVertex
 10
940.7317506865922
 20
-0.2280967057407013
 30
0.0
  0
SEQEND
  5
5318B
330
52EFB
100
AcDbEntity
  8
0
 48
0.05
  0
VIEWPORT
  5
D68D
330
C
100
AcDbEntity
 67
     1
  8
0
  6
BYBLOCK
 62
     0
 48
0.05
100
AcDbViewport
 10
133.3499908447265
 20
101.5999970436096
 30
0.0
 40
412.1153263722698
 41
228.4221935424804
 68
     1
 69
     1
1001
ACAD
1000
MVIEW
1002
{
1070
    16
1010
0.0
1020
0.0
1030
0.0
1010
0.0
1020
0.0
1030
1.0
1040
0.0
1040
228.4221935424804
1040
133.3499908447265
1040
101.5999970436096
1040
50.0
1040
0.0
1040
0.0
1070
     0
1070
   100
1070
     1
1070
     1
1070
     0
1070
     0
1070
     0
1070
     0
1040
0.0
1040
0.0
1040
0.0
1040
10.0
1040
10.0
1040
10.0
1040
10.0
1070
     0
1002
{
1002
}
1002
}
  0
VIEWPORT
  5
D68F
330
C
100
AcDbEntity
 67
     1
  8
0
  6
BYBLOCK
 62
     0
 48
0.05
100
AcDbViewport
 10
133.349993944168
 20
101.599993944168
 30
0.0
 40
213.3599903106689
 41
162.5599903106689
 68
     2
 69
     2
1001
ACAD
1000
MVIEW
1002
{
1070
    16
1010
0.0
1020
0.0
1030
0.0
1010
0.0
1020
0.0
1030
1.0
1040
0.0
1040
293.8955062794127
1040
190.5105367298877
1040
130.3007286656822
1040
50.0
1040
0.0
1040
0.0
1070
     0
1070
   100
1070
     1
1070
     1
1070
     0
1070
     1
1070
     0
1070
     0
1040
0.0
1040
0.0
1040
0.0
1040
1.0
1040
1.0
1040
0.0
1040
0.0
1070
     0
1002
{
1002
}
1002
}
  0
ENDSEC
  0
SECTION
  2
OBJECTS
  0
DICTIONARY
  5
7
330
0
100
AcDbDictionary
  3
ACAD_GROUP
350
20
  3
ACAD_LAYOUT
350
B
  3
ACAD_MLINESTYLE
350
21
  3
ACAD_PLOTSETTINGS
350
22
  3
ACADDIM
350
3CA19
  3
DWGPROPS
350
41CC3
1001
ACAD
1000
TREAT_AS_HARD
1070
     0
  0
DICTIONARY
  5
2A172
330
10
100
AcDbDictionary
  3
ACAD_LAYERFILTERS
350
2A173
  3
ACAD_LAYERSTATES
350
2A3E5
1001
ACAD
1000
TREAT_AS_HARD
1070
     1
  0
DICTIONARY
  5
5316F
330
2
100
AcDbDictionary
  3
ACAD_LAYOUTSELFREF
350
53170
  0
DICTIONARY
  5
53171
330
C
100
AcDbDictionary
  3
ACAD_LAYOUTSELFREF
350
53172
  0
DICTIONARY
  5
20
102
{ACAD_REACTORS
330
7
102
}
330
7
100
AcDbDictionary
1001
ACAD
1000
TREAT_AS_HARD
1070
     0
  0
DICTIONARY
  5
B
102
{ACAD_REACTORS
330
7
102
}
330
7
100
AcDbDictionary
1001
ACAD
1000
TREAT_AS_HARD
1070
     0
  0
DICTIONARY
  5
21
102
{ACAD_REACTORS
330
7
102
}
330
7
100
AcDbDictionary
  3
STANDARD
350
23
1001
ACAD
1000
TREAT_AS_HARD
1070
     0
  0
DICTIONARY
  5
22
102
{ACAD_REACTORS
330
7
102
}
330
7
100
AcDbDictionary
1001
ACAD
1000
TREAT_AS_HARD
1070
     0
  0
XRECORD
  5
3CA19
102
{ACAD_REACTORS
330
7
102
}
330
7
100
AcDbXrecord
 90
   990106
  3

 60
     0
 61
     0
 62
     1
 63
     3
 64
     0
 65
     0
 66
     0
 67
     3
 68
     1
 69
     0
 70
     0
 71
     0
 72
     0
 40
3.0
170
     0
340
53070
  0
XRECORD
  5
41CC3
102
{ACAD_REACTORS
330
7
102
}
330
7
100
AcDbXrecord
  1
DWGPROPS COOKIE
  2

  3

  4

  6

  7

  8

  9

300
=
301
=
302
=
303
=
304
=
305
=
306
=
307
=
308
=
309
=
 40
11.5536686574074
 41
2452396.547875799
 42
2453318.410627465
  1

 90
        0
  0
DICTIONARY
  5
2A173
102
{ACAD_REACTORS
330
2A172
102
}
330
2A172
100
AcDbDictionary
  3
032
350
3D3E5
  3
032G
350
3D3E6
  3
1
350
2A174
  3
12
350
2A175
  3
2
350
2FD23
  3
220G
350
3D3E7
  3
232
350
3D3E8
  3
245
350
2FD24
  3
3D
350
3D3E9
  3
600
350
3D3EA
  3
720
350
3D3EB
  3
720G
350
3D3EC
  3
A
350
3D3ED
  3
A000D
350
3D3EE
  3
A032G
350
3D3EF
  3
AA
350
2A176
  3
ADLER
350
3D3F0
  3
ALEV07
350
3D3F1
  3
BOUNARY
350
3D3F2
  3
DIMS
350
3D3F3
  3
DSD
350
3D3F4
  3
DUVAR
350
3D3F5
  3
FIRE_STRATEGY
350
3D3F6
  3
FIRST_FLOOR
350
3D3F7
  3
FROZEN
350
3D3F8
  3
GRID
350
3D3F9
  3
GROUND_FLOOR
350
3D3FA
  3
LIGHTING
350
3D3FB
  3
MECHANICAL
350
3D3FC
  3
OFF
350
2FD25
  3
ON
350
2FD26
  3
PANEL
350
3D3FD
  3
PLUMBING
350
3D3FE
  3
POWER
350
3D3FF
  3
PROF\U+0131L
350
3D400
  3
RSFL
350
3D401
  3
SS
350
2A177
  3
TAGS
350
3D402
1001
ACAD
1000
TREAT_AS_HARD
1070
     1
  0
DICTIONARY
  5
2A3E5
102
{ACAD_REACTORS
330
2A172
102
}
330
2A172
100
AcDbDictionary
1001
ACAD
1000
TREAT_AS_HARD
1070
     0
  0
XRECORD
  5
53170
102
{ACAD_REACTORS
330
5316F
102
}
330
5316F
100
AcDbXrecord
340
2
  0
XRECORD
  5
53172
102
{ACAD_REACTORS
330
53171
102
}
330
53171
100
AcDbXrecord
340
C
  0
MLINESTYLE
  5
23
102
{ACAD_REACTORS
330
21
102
}
330
21
100
AcDbMlineStyle
  2
STANDARD
 70
     0
  3

 62
   256
 51
90.0
 52
90.0
 71
     2
 49
0.5
 62
   256
  6
BYLAYER
 49
-0.5
 62
   256
  6
BYLAYER
  0
XRECORD
  5
3D3E5
102
{ACAD_REACTORS
330
2A173
102
}
330
2A173
100
AcDbXrecord
  1
032
  1
*032*
  1
*
  1
*
 70
     0
  1
*
  1
*
  0
XRECORD
  5
3D3E6
102
{ACAD_REACTORS
330
2A173
102
}
330
2A173
100
AcDbXrecord
  1
032G
  1
*032G*
  1
*
  1
*
 70
     0
  1
*
  1
*
  0
XRECORD
  5
2A174
102
{ACAD_REACTORS
330
2A173
102
}
330
2A173
100
AcDbXrecord
  1
1
  1
*
  1
*
  1
*
 70
  1367
  1
*
  1
*
  0
XRECORD
  5
2A175
102
{ACAD_REACTORS
330
2A173
102
}
330
2A173
100
AcDbXrecord
  1
12
  1
*
  1
ALL
  1
L
 70
  1493
  1
L
  1
L
  0
XRECORD
  5
2FD23
102
{ACAD_REACTORS
330
2A173
102
}
330
2A173
100
AcDbXrecord
  1
2
  1
*
  1
*
  1
*
 70
     4
  1
*
  1
*
  0
XRECORD
  5
3D3E7
102
{ACAD_REACTORS
330
2A173
102
}
330
2A173
100
AcDbXrecord
  1
220g
  1
*220*
  1
*
  1
*
 70
     0
  1
*
  1
*
  0
XRECORD
  5
3D3E8
102
{ACAD_REACTORS
330
2A173
102
}
330
2A173
100
AcDbXrecord
  1
232
  1
LAYER5
  1
*
  1
*
 70
     0
  1
*
  1
*
  0
XRECORD
  5
2FD24
102
{ACAD_REACTORS
330
2A173
102
}
330
2A173
100
AcDbXrecord
  1
245
  1
*
  1
245
  1
*
 70
     0
  1
*
  1
*
  0
XRECORD
  5
3D3E9
102
{ACAD_REACTORS
330
2A173
102
}
330
2A173
100
AcDbXrecord
  1
3D
  1
*
  1
*
  1
*
 70
     1
  1
*
  1
*
  0
XRECORD
  5
3D3EA
102
{ACAD_REACTORS
330
2A173
102
}
330
2A173
100
AcDbXrecord
  1
600
  1
*600*
  1
*
  1
*
 70
     0
  1
*
  1
*
  0
XRECORD
  5
3D3EB
102
{ACAD_REACTORS
330
2A173
102
}
330
2A173
100
AcDbXrecord
  1
720
  1
*720g*
  1
*
  1
*
 70
     0
  1
*
  1
*
  0
XRECORD
  5
3D3EC
102
{ACAD_REACTORS
330
2A173
102
}
330
2A173
100
AcDbXrecord
  1
720g
  1
*720*
  1
*
  1
*
 70
     0
  1
*
  1
*
  0
XRECORD
  5
3D3ED
102
{ACAD_REACTORS
330
2A173
102
}
330
2A173
100
AcDbXrecord
  1
A
  1
SOL1,SOL2,SOL3,SOL4,SOL5
  1
*
  1
*
 70
     0
  1
*
  1
*
  0
XRECORD
  5
3D3EE
102
{ACAD_REACTORS
330
2A173
102
}
330
2A173
100
AcDbXrecord
  1
A000D
  1
A000D*
  1
*
  1
*
 70
     0
  1
*
  1
*
  0
XRECORD
  5
3D3EF
102
{ACAD_REACTORS
330
2A173
102
}
330
2A173
100
AcDbXrecord
  1
A032G
  1
*a032G
  1
*
  1
*
 70
     0
  1
*
  1
*
  0
XRECORD
  5
2A176
102
{ACAD_REACTORS
330
2A173
102
}
330
2A173
100
AcDbXrecord
  1
aa
  1
*
  1
*
  1
*
 70
     0
  1
*
  1
*
  0
XRECORD
  5
3D3F0
102
{ACAD_REACTORS
330
2A173
102
}
330
2A173
100
AcDbXrecord
  1
adler
  1
aadler*,xre*
  1
*
  1
*
 70
     0
  1
*
  1
*
  0
XRECORD
  5
3D3F1
102
{ACAD_REACTORS
330
2A173
102
}
330
2A173
100
AcDbXrecord
  1
ALEV07
  1
ALEV07*
  1
*
  1
*
 70
     0
  1
*
  1
*
  0
XRECORD
  5
3D3F2
102
{ACAD_REACTORS
330
2A173
102
}
330
2A173
100
AcDbXrecord
  1
BOUNARY
  1
*BOUND*
  1
*
  1
*
 70
     0
  1
*
  1
*
  0
XRECORD
  5
3D3F3
102
{ACAD_REACTORS
330
2A173
102
}
330
2A173
100
AcDbXrecord
  1
dims
  1
*00d
  1
*
  1
*
 70
     0
  1
*
  1
*
  0
XRECORD
  5
3D3F4
102
{ACAD_REACTORS
330
2A173
102
}
330
2A173
100
AcDbXrecord
  1
DSD
  1
*720G*
  1
*
  1
*
 70
     0
  1
*
  1
*
  0
XRECORD
  5
3D3F5
102
{ACAD_REACTORS
330
2A173
102
}
330
2A173
100
AcDbXrecord
  1
DUVAR
  1
*DUVAR,DV
  1
*
  1
*
 70
     0
  1
*
  1
*
  0
XRECORD
  5
3D3F6
102
{ACAD_REACTORS
330
2A173
102
}
330
2A173
100
AcDbXrecord
  1
Fire strategy
  1
Fire*
  1
*
  1
*
 70
     0
  1
*
  1
*
  0
XRECORD
  5
3D3F7
102
{ACAD_REACTORS
330
2A173
102
}
330
2A173
100
AcDbXrecord
  1
First Floor
  1
*01
  1
*
  1
*
 70
     0
  1
*
  1
*
  0
XRECORD
  5
3D3F8
102
{ACAD_REACTORS
330
2A173
102
}
330
2A173
100
AcDbXrecord
  1
frozen
  1
*
  1
*
  1
*
 70
     4
  1
*
  1
*
  0
XRECORD
  5
3D3F9
102
{ACAD_REACTORS
330
2A173
102
}
330
2A173
100
AcDbXrecord
  1
GRID
  1
*A032*
  1
*
  1
*
 70
     0
  1
*
  1
*
  0
XRECORD
  5
3D3FA
102
{ACAD_REACTORS
330
2A173
102
}
330
2A173
100
AcDbXrecord
  1
Ground Floor
  1
*00
  1
*
  1
*
 70
     0
  1
*
  1
*
  0
XRECORD
  5
3D3FB
102
{ACAD_REACTORS
330
2A173
102
}
330
2A173
100
AcDbXrecord
  1
Lighting
  1
light*
  1
*
  1
*
 70
     0
  1
*
  1
*
  0
XRECORD
  5
3D3FC
102
{ACAD_REACTORS
330
2A173
102
}
330
2A173
100
AcDbXrecord
  1
Mechanical
  1
mech*
  1
*
  1
*
 70
     0
  1
*
  1
*
  0
XRECORD
  5
2FD25
102
{ACAD_REACTORS
330
2A173
102
}
330
2A173
100
AcDbXrecord
  1
off
  1
*
  1
*
  1
*
 70
     3
  1
*
  1
*
  0
XRECORD
  5
2FD26
102
{ACAD_REACTORS
330
2A173
102
}
330
2A173
100
AcDbXrecord
  1
on
  1
*
  1
*
  1
*
 70
     1
  1
*
  1
*
  0
XRECORD
  5
3D3FD
102
{ACAD_REACTORS
330
2A173
102
}
330
2A173
100
AcDbXrecord
  1
panel
  1
*
  1
21
  1
*
 70
     0
  1
*
  1
*
  0
XRECORD
  5
3D3FE
102
{ACAD_REACTORS
330
2A173
102
}
330
2A173
100
AcDbXrecord
  1
Plumbing
  1
P+D*
  1
*
  1
*
 70
     0
  1
*
  1
*
  0
XRECORD
  5
3D3FF
102
{ACAD_REACTORS
330
2A173
102
}
330
2A173
100
AcDbXrecord
  1
Power
  1
Power*
  1
*
  1
*
 70
     0
  1
*
  1
*
  0
XRECORD
  5
3D400
102
{ACAD_REACTORS
330
2A173
102
}
330
2A173
100
AcDbXrecord
  1
prof\U+0131l
  1
*
  1
*
  1
*
 70
     0
  1
*
  1
*
  0
XRECORD
  5
3D401
102
{ACAD_REACTORS
330
2A173
102
}
330
2A173
100
AcDbXrecord
  1
rsfl
  1
a33*
  1
*
  1
*
 70
     0
  1
*
  1
*
  0
XRECORD
  5
2A177
102
{ACAD_REACTORS
330
2A173
102
}
330
2A173
100
AcDbXrecord
  1
ss
  1
*
  1
*
  1
*
 70
     0
  1
*
  1
*
  0
XRECORD
  5
3D402
102
{ACAD_REACTORS
330
2A173
102
}
330
2A173
100
AcDbXrecord
  1
tags
  1
*220t
  1
*
  1
*
 70
     0
  1
*
  1
*
  0
ENDSEC
  0
EOF
