  0
SECTION
  2
HEADER
  9
$ACADVER
  1
AC1009
  9
$INSBASE
 10
0.0
 20
0.0
 30
0.0
  9
$EXTMIN
 10
1134.0051292511689
 20
430.92553830254542
 30
-0.0015258207003583
  9
$EXTMAX
 10
1142.048036486432
 20
433.66731347267898
 30
0.0000000349246037
  9
$LIMMIN
 10
0.0
 20
0.0
  9
$LIMMAX
 10
420.0
 20
297.0
  9
$ORTHOMODE
 70
     0
  9
$REGENMODE
 70
     1
  9
$FILLMODE
 70
     1
  9
$QTEXTMODE
 70
     0
  9
$MIRRTEXT
 70
     0
  9
$DRAGMODE
 70
     2
  9
$LTSCALE
 40
1.0
  9
$OSMODE
 70
  3071
  9
$ATTMODE
 70
     1
  9
$TEXTSIZE
 40
2.5
  9
$TRACEWID
 40
1.0
  9
$TEXTSTYLE
  7
STANDARD
  9
$CLAYER
  8
0
  9
$CELTYPE
  6
BYLAYER
  9
$CECOLOR
 62
   256
  9
$DIMSCALE
 40
1.0
  9
$DIMASZ
 40
2.5
  9
$DIMEXO
 40
0.625
  9
$DIMDLI
 40
3.75
  9
$DIMRND
 40
0.0
  9
$DIMDLE
 40
0.0
  9
$DIMEXE
 40
1.25
  9
$DIMTP
 40
0.0
  9
$DIMTM
 40
0.0
  9
$DIMTXT
 40
2.5
  9
$DIMCEN
 40
2.5
  9
$DIMTSZ
 40
0.0
  9
$DIMTOL
 70
     0
  9
$DIMLIM
 70
     0
  9
$DIMTIH
 70
     0
  9
$DIMTOH
 70
     0
  9
$DIMSE1
 70
     0
  9
$DIMSE2
 70
     0
  9
$DIMTAD
 70
     1
  9
$DIMZIN
 70
     8
  9
$DIMBLK
  1

  9
$DIMASO
 70
     1
  9
$DIMSHO
 70
     1
  9
$DIMPOST
  1

  9
$DIMAPOST
  1

  9
$DIMALT
 70
     0
  9
$DIMALTD
 70
     3
  9
$DIMALTF
 40
0.03937007874016
  9
$DIMLFAC
 40
1.0
  9
$DIMTOFL
 70
     1
  9
$DIMTVP
 40
0.0
  9
$DIMTIX
 70
     0
  9
$DIMSOXD
 70
     0
  9
$DIMSAH
 70
     0
  9
$DIMBLK1
  1

  9
$DIMBLK2
  1

  9
$DIMSTYLE
  2
ISO-25
  9
$DIMCLRD
 70
     0
  9
$DIMCLRE
 70
     0
  9
$DIMCLRT
 70
     0
  9
$DIMTFAC
 40
1.0
  9
$DIMGAP
 40
0.625
  9
$LUNITS
 70
     2
  9
$LUPREC
 70
     4
  9
$SKETCHINC
 40
1.0
  9
$FILLETRAD
 40
0.0
  9
$AUNITS
 70
     0
  9
$AUPREC
 70
     0
  9
$MENU
  1
.
  9
$ELEVATION
 40
0.0
  9
$PELEVATION
 40
0.0
  9
$THICKNESS
 40
0.0
  9
$LIMCHECK
 70
     0
  9
$BLIPMODE
 70
     0
  9
$CHAMFERA
 40
0.0
  9
$CHAMFERB
 40
0.0
  9
$SKPOLY
 70
     0
  9
$TDCREATE
 40
2455558.6990590049
  9
$TDUPDATE
 40
2455558.6991935531
  9
$TDINDWG
 40
0.0001345486
  9
$TDUSRTIMER
 40
0.0001345486
  9
$USRTIMER
 70
     1
  9
$ANGBASE
 50
0.0
  9
$ANGDIR
 70
     0
  9
$PDMODE
 70
     0
  9
$PDSIZE
 40
0.0
  9
$PLINEWID
 40
0.0
  9
$COORDS
 70
     1
  9
$SPLFRAME
 70
     0
  9
$SPLINETYPE
 70
     6
  9
$SPLINESEGS
 70
     8
  9
$ATTDIA
 70
     0
  9
$ATTREQ
 70
     1
  9
$HANDLING
 70
     1
  9
$HANDSEED
  5
CF
  9
$SURFTAB1
 70
     6
  9
$SURFTAB2
 70
     6
  9
$SURFTYPE
 70
     6
  9
$SURFU
 70
     6
  9
$SURFV
 70
     6
  9
$UCSNAME
  2

  9
$UCSORG
 10
0.0
 20
0.0
 30
0.0
  9
$UCSXDIR
 10
1.0
 20
0.0
 30
0.0
  9
$UCSYDIR
 10
0.0
 20
1.0
 30
0.0
  9
$PUCSNAME
  2

  9
$PUCSORG
 10
0.0
 20
0.0
 30
0.0
  9
$PUCSXDIR
 10
1.0
 20
0.0
 30
0.0
  9
$PUCSYDIR
 10
0.0
 20
1.0
 30
0.0
  9
$USERI1
 70
     0
  9
$USERI2
 70
     0
  9
$USERI3
 70
     0
  9
$USERI4
 70
     0
  9
$USERI5
 70
     0
  9
$USERR1
 40
0.0
  9
$USERR2
 40
0.0
  9
$USERR3
 40
0.0
  9
$USERR4
 40
0.0
  9
$USERR5
 40
0.0
  9
$WORLDVIEW
 70
     1
  9
$SHADEDGE
 70
     3
  9
$SHADEDIF
 70
    70
  9
$TILEMODE
 70
     1
  9
$MAXACTVP
 70
    64
  9
$PLIMCHECK
 70
     0
  9
$PEXTMIN
 10
0.0
 20
0.0
 30
0.0
  9
$PEXTMAX
 10
0.0
 20
0.0
 30
0.0
  9
$PLIMMIN
 10
0.0
 20
0.0
  9
$PLIMMAX
 10
12.0
 20
9.0
  9
$UNITMODE
 70
     0
  9
$VISRETAIN
 70
     1
  9
$PLINEGEN
 70
     0
  9
$PSLTSCALE
 70
     1
  0
ENDSEC
  0
SECTION
  2
TABLES
  0
TABLE
  2
VPORT
 70
     2
  0
VPORT
  2
*ACTIVE
 70
     0
 10
0.0
 20
0.0
 11
1.0
 21
1.0
 12
1138.0265828688
 22
432.29642588761232
 13
0.0
 23
0.0
 14
10.0
 24
10.0
 15
10.0
 25
10.0
 16
0.0
 26
0.0
 36
1.0
 17
0.0
 27
0.0
 37
0.0
 40
3.9281158514102881
 41
2.0583941605839411
 42
50.0
 43
0.0
 44
0.0
 50
0.0
 51
0.0
 71
     0
 72
  1000
 73
     1
 74
     3
 75
     0
 76
     0
 77
     0
 78
     0
  0
ENDTAB
  0
TABLE
  2
LTYPE
 70
     1
  0
LTYPE
  2
CONTINUOUS
 70
     0
  3
Solid line
 72
    65
 73
     0
 40
0.0
  0
ENDTAB
  0
TABLE
  2
LAYER
 70
     1
  0
LAYER
  2
0
 70
     0
 62
     7
  6
CONTINUOUS
  0
ENDTAB
  0
TABLE
  2
STYLE
 70
     2
  0
STYLE
  2
STANDARD
 70
     0
 40
0.0
 41
1.0
 50
0.0
 71
     0
 42
2.5
  3
txt
  4

  0
STYLE
  2
ROMANT
 70
     0
 40
2.0
 41
1.0
 50
15.0
 71
     0
 42
2.5
  3
romant.shx
  4

  0
ENDTAB
  0
TABLE
  2
VIEW
 70
     0
  0
ENDTAB
  0
TABLE
  2
UCS
 70
     0
  0
ENDTAB
  0
TABLE
  2
APPID
 70
     1
  0
APPID
  2
ACAD
 70
     0
  0
ENDTAB
  0
TABLE
  2
DIMSTYLE
 70
     3
  0
DIMSTYLE
  2
ISO-25
 70
     0
  3

  4

  5

  6

  7

 40
1.0
 41
2.5
 42
0.625
 43
3.75
 44
1.25
 45
0.0
 46
0.0
 47
0.0
 48
0.0
140
2.5
141
2.5
142
0.0
143
0.03937007874016
144
1.0
145
0.0
146
1.0
147
0.625
 71
     0
 72
     0
 73
     0
 74
     0
 75
     0
 76
     0
 77
     1
 78
     8
170
     0
171
     3
172
     1
173
     0
174
     0
175
     0
176
     0
177
     0
178
     0
  0
DIMSTYLE
  2
STANDARD
 70
     0
  3

  4

  5

  6

  7

 40
1.0
 41
0.18
 42
0.0625
 43
0.38
 44
0.18
 45
0.0
 46
0.0
 47
0.0
 48
0.0
140
0.18
141
0.09
142
0.0
143
25.399999999999999
144
1.0
145
0.0
146
1.0
147
0.09
 71
     0
 72
     0
 73
     1
 74
     1
 75
     0
 76
     0
 77
     0
 78
     0
170
     0
171
     2
172
     0
173
     0
174
     0
175
     0
176
     0
177
     0
178
     0
  0
DIMSTYLE
  2
ISO-25_1_E_1
 70
     0
  3

  4

  5

  6

  7

 40
1.0
 41
1.3
 42
0.0
 43
3.75
 44
0.5
 45
0.0
 46
0.0
 47
0.0
 48
0.0
140
1.0
141
0.2
142
0.0
143
0.03937007874016
144
0.333333333333333
145
0.0
146
1.0
147
0.2
 71
     0
 72
     0
 73
     0
 74
     0
 75
     0
 76
     0
 77
     1
 78
     8
170
     0
171
     3
172
     0
173
     0
174
     0
175
     0
176
   242
177
   242
178
   242
  0
ENDTAB
  0
ENDSEC
  0
SECTION
  2
BLOCKS
  0
BLOCK
  8
0
  2
$MODEL_SPACE
 70
     0
 10
0.0
 20
0.0
 30
0.0
  3
$MODEL_SPACE
  1

  0
ENDBLK
  5
21
  8
0
  0
BLOCK
 67
     1
  8
0
  2
$PAPER_SPACE
 70
     0
 10
0.0
 20
0.0
 30
0.0
  3
$PAPER_SPACE
  1

  0
ENDBLK
  5
53
 67
     1
  8
0
  0
BLOCK
  8
0
  2
*X2
 70
     1
 10
0.0
 20
0.0
 30
0.0
  3
*X2
  1

  0
LINE
  5
B8
  8
0
 62
     0
 10
7.5329804148793222
 20
0.0000001578805566
 30
0.0
 11
7.9499997991712439
 21
0.4170195421724756
 31
0.0
  0
LINE
  5
B9
  8
0
 62
     0
 10
7.0910386766377371
 20
0.0000001578805637
 30
0.0
 11
7.9499997991713007
 21
0.8589612804141282
 31
0.0
  0
LINE
  5
BA
  8
0
 62
     0
 10
6.6490969383961618
 20
0.0000001578805815
 30
0.0
 11
7.949999799171362
 21
1.30090301865578
 31
0.0
  0
LINE
  5
BB
  8
0
 62
     0
 10
6.2071552001545767
 20
0.0000001578805922
 30
0.0
 11
7.9499997991714251
 21
1.7428447568974399
 31
0.0
  0
LINE
  5
BC
  8
0
 62
     0
 10
5.7652134619130031
 20
0.0000001578806064
 30
0.0
 11
7.9499997991714926
 21
2.1847864951390958
 31
0.0
  0
LINE
  5
BD
  8
0
 62
     0
 10
5.3232717236714251
 20
0.0000001578806206
 30
0.0
 11
7.848346406548699
 21
2.5250748407578949
 31
0.0
  0
LINE
  5
BE
  8
0
 62
     0
 10
4.8813299854298426
 20
0.0000001578806312
 30
0.0
 11
7.4813299621716851
 21
2.6000001346224719
 31
0.0
  0
LINE
  5
BF
  8
0
 62
     0
 10
4.4393882471882646
 20
0.000000157880649
 30
0.0
 11
7.0393882239301098
 21
2.6000001346224941
 31
0.0
  0
LINE
  5
C0
  8
0
 62
     0
 10
3.9974465089466831
 20
0.0000001578806561
 30
0.0
 11
6.5974464856885389
 21
2.600000134622511
 31
0.0
  0
LINE
  5
C1
  8
0
 62
     0
 10
3.5555047707051091
 20
0.0000001578806739
 30
0.0
 11
6.1555047474469724
 21
2.6000001346225359
 31
0.0
  0
LINE
  5
C2
  8
0
 62
     0
 10
3.1135630324635311
 20
0.0000001578806845
 30
0.0
 11
5.7135630092054006
 21
2.6000001346225581
 31
0.0
  0
LINE
  5
C3
  8
0
 62
     0
 10
2.6716212942219459
 20
0.0000001578806987
 30
0.0
 11
5.2716212709638341
 21
2.6000001346225821
 31
0.0
  0
LINE
  5
C4
  8
0
 62
     0
 10
2.229679555980371
 20
0.0000001578807129
 30
0.0
 11
4.8296795327222632
 21
2.6000001346225998
 31
0.0
  0
LINE
  5
C5
  8
0
 62
     0
 10
1.800574440148409
 20
0.0128367802903426
 30
0.0
 11
4.3877377944806879
 21
2.600000134622622
 31
0.0
  0
LINE
  5
C6
  8
0
 62
     0
 10
1.476053474406771
 20
0.1302575527902974
 30
0.0
 11
3.945796056239121
 21
2.600000134622646
 31
0.0
  0
LINE
  5
C7
  8
0
 62
     0
 10
1.195873630364332
 20
0.2920194469894532
 30
0.0
 11
3.5038543179975501
 21
2.6000001346226682
 31
0.0
  0
LINE
  5
C8
  8
0
 62
     0
 10
0.9156937863218956
 20
0.4537813411886056
 30
0.0
 11
3.0619125797559832
 21
2.6000001346226931
 31
0.0
  0
LINE
  5
C9
  8
0
 62
     0
 10
0.6355139422794595
 20
0.6155432353877579
 30
0.0
 11
2.6199708415144078
 21
2.60000013462271
 31
0.0
  0
LINE
  5
CA
  8
0
 62
     0
 10
0.355334098237023
 20
0.7773051295869174
 30
0.0
 11
2.1780291032728409
 21
2.6000001346227322
 31
0.0
  0
LINE
  5
CB
  8
0
 62
     0
 10
0.108328098772354
 20
0.9722408683638441
 30
0.0
 11
1.7012264114102349
 21
2.565139181001725
 31
0.0
  0
LINE
  5
CC
  8
0
 62
     0
 10
0.0000312457497706
 20
1.305885753582849
 30
0.0
 11
0.73746269106854
 21
2.0433171989016179
 31
0.0
  0
ENDBLK
  5
CE
  8
0
  0
ENDSEC
  0
SECTION
  2
ENTITIES
  0
ARC
  5
94
  8
0
 10
1141.68208363024
 20
431.29313060244561
 30
0.0
 40
0.2999999999999545
 50
270.00000000004343
 51
0.0000000000217126
  0
LINE
  5
95
  8
0
 10
1141.6820836302411
 20
430.99313060244572
 30
0.0
 11
1135.988301464783
 21
430.99313060244577
 31
0.0
  0
ARC
  5
96
  8
0
 10
1135.9883014647839
 20
431.94313060244741
 30
0.0
 40
0.9500000000014665
 50
240.00000000002211
 51
269.99999999998619
  0
LINE
  5
97
  8
0
 10
1135.5133014647829
 20
431.12040646885072
 30
0.0
 11
1134.3070835895039
 21
431.81681662279618
 31
0.0
  0
ARC
  5
98
  8
0
 10
1134.5820835881091
 20
432.29313059954751
 30
0.0
 40
0.5500000033467681
 50
119.99999999999081
 51
240.0000003690773
  0
LINE
  5
99
  8
0
 10
1134.307083586436
 20
432.76944457452743
 30
0.0
 11
1135.513301462059
 21
433.46585470761619
 31
0.0
  0
ARC
  5
9A
  8
0
 10
1135.9883014676691
 20
432.64313059165119
 30
0.0
 40
0.9499999875366869
 50
90.000000000027441
 51
120.0000008246643
  0
LINE
  5
9B
  8
0
 10
1135.9883014676691
 20
433.59313057918791
 30
0.0
 11
1141.6820836302411
 21
433.59313057918757
 31
0.0
  0
ARC
  5
9C
  8
0
 10
1141.6820836302411
 20
433.2931305791875
 30
0.0
 40
0.3000000000000682
 50
0.0000000000108563
 51
90.0
  0
LINE
  5
9D
  8
0
 10
1141.982083630241
 20
433.29313057918762
 30
0.0
 11
1141.982083630241
 21
431.29313060244567
 31
0.0
  0
ENDSEC
  0
EOF
