  0
SECTION
  2
HEADER
  9
$ACADVER
  1
AC1009
  9
$INSBASE
 10
0.0
 20
0.0
 30
0.0
  9
$EXTMIN
 10
859.42474563073461
 20
195.04220672911279
 30
-0.0015258207003583
  9
$EXTMAX
 10
896.05041657114668
 20
221.8481603940578
 30
0.0000000349246037
  9
$LIMMIN
 10
0.0
 20
0.0
  9
$LIMMAX
 10
420.0
 20
297.0
  9
$ORTHOMODE
 70
     0
  9
$REGENMODE
 70
     1
  9
$FILLMODE
 70
     1
  9
$QTEXTMODE
 70
     0
  9
$MIRRTEXT
 70
     0
  9
$DRAGMODE
 70
     2
  9
$LTSCALE
 40
1.0
  9
$OSMODE
 70
  3071
  9
$ATTMODE
 70
     1
  9
$TEXTSIZE
 40
2.5
  9
$TRACEWID
 40
1.0
  9
$TEXTSTYLE
  7
STANDARD
  9
$CLAYER
  8
0
  9
$CELTYPE
  6
BYLAYER
  9
$CECOLOR
 62
   256
  9
$DIMSCALE
 40
1.0
  9
$DIMASZ
 40
2.5
  9
$DIMEXO
 40
0.625
  9
$DIMDLI
 40
3.75
  9
$DIMRND
 40
0.0
  9
$DIMDLE
 40
0.0
  9
$DIMEXE
 40
1.25
  9
$DIMTP
 40
0.0
  9
$DIMTM
 40
0.0
  9
$DIMTXT
 40
2.5
  9
$DIMCEN
 40
2.5
  9
$DIMTSZ
 40
0.0
  9
$DIMTOL
 70
     0
  9
$DIMLIM
 70
     0
  9
$DIMTIH
 70
     0
  9
$DIMTOH
 70
     0
  9
$DIMSE1
 70
     0
  9
$DIMSE2
 70
     0
  9
$DIMTAD
 70
     1
  9
$DIMZIN
 70
     8
  9
$DIMBLK
  1

  9
$DIMASO
 70
     1
  9
$DIMSHO
 70
     1
  9
$DIMPOST
  1

  9
$DIMAPOST
  1

  9
$DIMALT
 70
     0
  9
$DIMALTD
 70
     3
  9
$DIMALTF
 40
0.03937007874016
  9
$DIMLFAC
 40
1.0
  9
$DIMTOFL
 70
     1
  9
$DIMTVP
 40
0.0
  9
$DIMTIX
 70
     0
  9
$DIMSOXD
 70
     0
  9
$DIMSAH
 70
     0
  9
$DIMBLK1
  1

  9
$DIMBLK2
  1

  9
$DIMSTYLE
  2
ISO-25
  9
$DIMCLRD
 70
     0
  9
$DIMCLRE
 70
     0
  9
$DIMCLRT
 70
     0
  9
$DIMTFAC
 40
1.0
  9
$DIMGAP
 40
0.625
  9
$LUNITS
 70
     2
  9
$LUPREC
 70
     4
  9
$SKETCHINC
 40
1.0
  9
$FILLETRAD
 40
0.0
  9
$AUNITS
 70
     0
  9
$AUPREC
 70
     0
  9
$MENU
  1
.
  9
$ELEVATION
 40
0.0
  9
$PELEVATION
 40
0.0
  9
$THICKNESS
 40
0.0
  9
$LIMCHECK
 70
     0
  9
$BLIPMODE
 70
     0
  9
$CHAMFERA
 40
0.0
  9
$CHAMFERB
 40
0.0
  9
$SKPOLY
 70
     0
  9
$TDCREATE
 40
2455595.4816532992
  9
$TDUPDATE
 40
2455595.4817666779
  9
$TDINDWG
 40
0.0001135648
  9
$TDUSRTIMER
 40
0.0001135648
  9
$USRTIMER
 70
     1
  9
$ANGBASE
 50
0.0
  9
$ANGDIR
 70
     0
  9
$PDMODE
 70
     0
  9
$PDSIZE
 40
0.0
  9
$PLINEWID
 40
0.0
  9
$COORDS
 70
     1
  9
$SPLFRAME
 70
     0
  9
$SPLINETYPE
 70
     6
  9
$SPLINESEGS
 70
     8
  9
$ATTDIA
 70
     0
  9
$ATTREQ
 70
     1
  9
$HANDLING
 70
     1
  9
$HANDSEED
  5
172
  9
$SURFTAB1
 70
     6
  9
$SURFTAB2
 70
     6
  9
$SURFTYPE
 70
     6
  9
$SURFU
 70
     6
  9
$SURFV
 70
     6
  9
$UCSNAME
  2

  9
$UCSORG
 10
0.0
 20
0.0
 30
0.0
  9
$UCSXDIR
 10
1.0
 20
0.0
 30
0.0
  9
$UCSYDIR
 10
0.0
 20
1.0
 30
0.0
  9
$PUCSNAME
  2

  9
$PUCSORG
 10
0.0
 20
0.0
 30
0.0
  9
$PUCSXDIR
 10
1.0
 20
0.0
 30
0.0
  9
$PUCSYDIR
 10
0.0
 20
1.0
 30
0.0
  9
$USERI1
 70
     0
  9
$USERI2
 70
     0
  9
$USERI3
 70
     0
  9
$USERI4
 70
     0
  9
$USERI5
 70
     0
  9
$USERR1
 40
0.0
  9
$USERR2
 40
0.0
  9
$USERR3
 40
0.0
  9
$USERR4
 40
0.0
  9
$USERR5
 40
0.0
  9
$WORLDVIEW
 70
     1
  9
$SHADEDGE
 70
     3
  9
$SHADEDIF
 70
    70
  9
$TILEMODE
 70
     1
  9
$MAXACTVP
 70
    64
  9
$PLIMCHECK
 70
     0
  9
$PEXTMIN
 10
0.0
 20
0.0
 30
0.0
  9
$PEXTMAX
 10
0.0
 20
0.0
 30
0.0
  9
$PLIMMIN
 10
0.0
 20
0.0
  9
$PLIMMAX
 10
12.0
 20
9.0
  9
$UNITMODE
 70
     0
  9
$VISRETAIN
 70
     1
  9
$PLINEGEN
 70
     0
  9
$PSLTSCALE
 70
     1
  0
ENDSEC
  0
SECTION
  2
TABLES
  0
TABLE
  2
VPORT
 70
     2
  0
VPORT
  2
*ACTIVE
 70
     0
 10
0.0
 20
0.0
 11
1.0
 21
1.0
 12
877.73758110094059
 22
208.44518356158531
 13
0.0
 23
0.0
 14
10.0
 24
10.0
 15
10.0
 25
10.0
 16
0.0
 26
0.0
 36
1.0
 17
0.0
 27
0.0
 37
0.0
 40
27.093674097842381
 41
2.021505376344086
 42
50.0
 43
0.0
 44
0.0
 50
0.0
 51
0.0
 71
     0
 72
  1000
 73
     1
 74
     3
 75
     0
 76
     0
 77
     0
 78
     0
  0
ENDTAB
  0
TABLE
  2
LTYPE
 70
     1
  0
LTYPE
  2
CONTINUOUS
 70
     0
  3
Solid line
 72
    65
 73
     0
 40
0.0
  0
ENDTAB
  0
TABLE
  2
LAYER
 70
     1
  0
LAYER
  2
0
 70
     0
 62
     7
  6
CONTINUOUS
  0
ENDTAB
  0
TABLE
  2
STYLE
 70
     2
  0
STYLE
  2
STANDARD
 70
     0
 40
0.0
 41
1.0
 50
0.0
 71
     0
 42
2.5
  3
txt
  4

  0
STYLE
  2
ROMANT
 70
     0
 40
2.2999999999999989
 41
1.0
 50
15.0
 71
     0
 42
2.5
  3
romant.shx
  4

  0
ENDTAB
  0
TABLE
  2
VIEW
 70
     0
  0
ENDTAB
  0
TABLE
  2
UCS
 70
     0
  0
ENDTAB
  0
TABLE
  2
APPID
 70
     1
  0
APPID
  2
ACAD
 70
     0
  0
ENDTAB
  0
TABLE
  2
DIMSTYLE
 70
     2
  0
DIMSTYLE
  2
ISO-25
 70
     0
  3

  4

  5

  6

  7

 40
1.0
 41
2.5
 42
0.625
 43
3.75
 44
1.25
 45
0.0
 46
0.0
 47
0.0
 48
0.0
140
2.5
141
2.5
142
0.0
143
0.03937007874016
144
1.0
145
0.0
146
1.0
147
0.625
 71
     0
 72
     0
 73
     0
 74
     0
 75
     0
 76
     0
 77
     1
 78
     8
170
     0
171
     3
172
     1
173
     0
174
     0
175
     0
176
     0
177
     0
178
     0
  0
DIMSTYLE
  2
ISO-25_1_E_1
 70
     0
  3

  4

  5

  6

  7

 40
1.0
 41
2.5
 42
0.0
 43
3.75
 44
0.5
 45
0.0
 46
0.0
 47
0.0
 48
0.0
140
1.0
141
0.2
142
0.0
143
0.03937007874016
144
1.0
145
0.0
146
1.0
147
0.4
 71
     0
 72
     0
 73
     0
 74
     0
 75
     0
 76
     0
 77
     1
 78
     8
170
     0
171
     3
172
     0
173
     0
174
     0
175
     0
176
   242
177
   242
178
   242
  0
ENDTAB
  0
ENDSEC
  0
SECTION
  2
BLOCKS
  0
BLOCK
  8
0
  2
$MODEL_SPACE
 70
     0
 10
0.0
 20
0.0
 30
0.0
  3
$MODEL_SPACE
  1

  0
ENDBLK
  5
21
  8
0
  0
BLOCK
 67
     1
  8
0
  2
$PAPER_SPACE
 70
     0
 10
0.0
 20
0.0
 30
0.0
  3
$PAPER_SPACE
  1

  0
ENDBLK
  5
53
 67
     1
  8
0
  0
BLOCK
  8
0
  2
*X2
 70
     1
 10
0.0
 20
0.0
 30
0.0
  3
*X2
  1

  0
LINE
  5
D3
  8
0
 62
     0
 10
34.35623403443504
 20
0.000000193368578
 30
0.0
 11
35.799782024539127
 21
1.4435481834726711
 31
0.0
  0
LINE
  5
D4
  8
0
 62
     0
 10
33.00919561627461
 20
0.0000001933684644
 30
0.0
 11
35.799782024539013
 21
2.7905866016328669
 31
0.0
  0
LINE
  5
D5
  8
0
 62
     0
 10
34.399782024539043
 20
2.7376250197931991
 30
0.0
 11
35.799782024539127
 21
4.1376250197932896
 31
0.0
  0
LINE
  5
D6
  8
0
 62
     0
 10
31.662157198114421
 20
0.0000001933684644
 30
0.0
 11
33.062157198114512
 21
1.4000001933685551
 31
0.0
  0
LINE
  5
D7
  8
0
 62
     0
 10
34.399782024539043
 20
4.0846634379537363
 30
0.0
 11
35.799782024539127
 21
5.4846634379538273
 31
0.0
  0
LINE
  5
D8
  8
0
 62
     0
 10
30.315118779953881
 20
0.0000001933684644
 30
0.0
 11
31.715118779953968
 21
1.4000001933685551
 31
0.0
  0
LINE
  5
D9
  8
0
 62
     0
 10
34.399782024539043
 20
5.4317018561139321
 30
0.0
 11
35.799782024539127
 21
6.831701856114023
 31
0.0
  0
LINE
  5
DA
  8
0
 62
     0
 10
28.968080361793572
 20
0.000000193368578
 30
0.0
 11
30.368080361793659
 21
1.4000001933686681
 31
0.0
  0
LINE
  5
DB
  8
0
 62
     0
 10
34.399782024539149
 20
6.7787402742743552
 30
0.0
 11
35.799782024539013
 21
8.1787402742743325
 31
0.0
  0
LINE
  5
DC
  8
0
 62
     0
 10
27.621041943633148
 20
0.0000001933684644
 30
0.0
 11
29.021041943633239
 21
1.4000001933685551
 31
0.0
  0
LINE
  5
DD
  8
0
 62
     0
 10
34.399782024539043
 20
8.1257786924347783
 30
0.0
 11
35.799782024539013
 21
9.5257786924347556
 31
0.0
  0
LINE
  5
DE
  8
0
 62
     0
 10
26.274003525472612
 20
0.0000001933683507
 30
0.0
 11
28.299782024539009
 21
2.0257786924347552
 31
0.0
  0
LINE
  5
DF
  8
0
 62
     0
 10
26.899782024539039
 20
1.9728171105950869
 30
0.0
 11
28.29978202453913
 21
3.3728171105951779
 31
0.0
  0
LINE
  5
E0
  8
0
 62
     0
 10
33.109850143030137
 20
8.1828852290860823
 30
0.0
 11
35.525831968043917
 21
10.598867054099969
 31
0.0
  0
LINE
  5
E1
  8
0
 62
     0
 10
24.926965107312409
 20
0.0000001933684644
 30
0.0
 11
26.326965107312169
 21
1.400000193368214
 31
0.0
  0
LINE
  5
E2
  8
0
 62
     0
 10
26.899782024539039
 20
3.3198555287553968
 30
0.0
 11
28.29978202453913
 21
4.7198555287554882
 31
0.0
  0
LINE
  5
E3
  8
0
 62
     0
 10
31.721891501864889
 20
8.1419650060813638
 30
0.0
 11
33.266213899455011
 21
9.6862874036714857
 31
0.0
  0
LINE
  5
E4
  8
0
 62
     0
 10
23.579926689151989
 20
0.0000001933684644
 30
0.0
 11
24.97992668915197
 21
1.400000193368327
 31
0.0
  0
LINE
  5
E5
  8
0
 62
     0
 10
26.899782024539039
 20
4.6668939469158204
 30
0.0
 11
28.29978202453924
 21
6.0668939469159113
 31
0.0
  0
LINE
  5
E6
  8
0
 62
     0
 10
30.676899649849481
 20
8.4440115722262572
 30
0.0
 11
31.784467089589722
 21
9.5515790119663961
 31
0.0
  0
LINE
  5
E7
  8
0
 62
     0
 10
22.23288827099179
 20
0.0000001933684644
 30
0.0
 11
23.63288827099154
 21
1.400000193368214
 31
0.0
  0
LINE
  5
E8
  8
0
 62
     0
 10
29.83526758936944
 20
8.9494179299065308
 30
0.0
 11
30.83662443894184
 21
9.9507747794788202
 31
0.0
  0
LINE
  5
E9
  8
0
 62
     0
 10
26.899782024539149
 20
6.0139323650762426
 30
0.0
 11
28.299782024539351
 21
7.4139323650763336
 31
0.0
  0
LINE
  5
EA
  8
0
 62
     0
 10
34.496035700822858
 20
13.610186041359841
 30
0.0
 11
35.429556171673198
 21
14.54370651221029
 31
0.0
  0
LINE
  5
EB
  8
0
 62
     0
 10
20.88584985283137
 20
0.0000001933683507
 30
0.0
 11
22.285849852831461
 21
1.4000001933684409
 31
0.0
  0
LINE
  5
EC
  8
0
 62
     0
 10
29.160243602689771
 20
9.6214323613874058
 30
0.0
 11
30.160767086543501
 21
10.62195584524113
 31
0.0
  0
LINE
  5
ED
  8
0
 62
     0
 10
26.899782024539039
 20
7.3609707832365521
 30
0.0
 11
28.29978202453913
 21
8.7609707832367576
 31
0.0
  0
LINE
  5
EE
  8
0
 62
     0
 10
33.777826372666482
 20
14.239015131364109
 30
0.0
 11
34.839089671686452
 21
15.300278430384081
 31
0.0
  0
LINE
  5
EF
  8
0
 62
     0
 10
19.538811434670951
 20
0.000000193368578
 30
0.0
 11
20.938811434670921
 21
1.4000001933685551
 31
0.0
  0
LINE
  5
F0
  8
0
 62
     0
 10
28.642762989578731
 20
10.450990166436551
 30
0.0
 11
29.755655786401459
 21
11.563882963259401
 31
0.0
  0
LINE
  5
F1
  8
0
 62
     0
 10
26.899782024538919
 20
8.7080092013968624
 30
0.0
 11
28.299782024539009
 21
10.10800920139695
 31
0.0
  0
LINE
  5
F2
  8
0
 62
     0
 10
32.835899254648211
 20
14.64412643150615
 30
0.0
 11
34.028572822094247
 21
15.83679999895207
 31
0.0
  0
LINE
  5
F3
  8
0
 62
     0
 10
18.19177301651052
 20
0.0000001933684644
 30
0.0
 11
19.591773016510501
 21
1.4000001933684409
 31
0.0
  0
LINE
  5
F4
  8
0
 62
     0
 10
26.899782024539039
 20
10.05504761955728
 30
0.0
 11
29.869985626837781
 21
13.025251221856021
 31
0.0
  0
LINE
  5
F5
  8
0
 62
     0
 10
31.37453099605159
 20
14.529796591069839
 30
0.0
 11
32.941390571183213
 21
16.096656166201448
 31
0.0
  0
LINE
  5
F6
  8
0
 62
     0
 10
16.844734598350101
 20
0.0000001933683507
 30
0.0
 11
18.244734598350188
 21
1.4000001933684409
 31
0.0
  0
LINE
  5
F7
  8
0
 62
     0
 10
26.899782024539039
 20
11.402086037717821
 30
0.0
 11
31.597696180189359
 21
16.100000193368139
 31
0.0
  0
LINE
  5
F8
  8
0
 62
     0
 10
15.49769618018979
 20
0.0000001933684644
 30
0.0
 11
16.897696180189769
 21
1.4000001933684409
 31
0.0
  0
LINE
  5
F9
  8
0
 62
     0
 10
26.899782024539039
 20
12.74912445587802
 30
0.0
 11
30.25065776202905
 21
16.100000193368029
 31
0.0
  0
LINE
  5
FA
  8
0
 62
     0
 10
14.15065776202948
 20
0.000000193368578
 30
0.0
 11
15.55065776202934
 21
1.400000193368327
 31
0.0
  0
LINE
  5
FB
  8
0
 62
     0
 10
26.899782024539149
 20
14.096162874038439
 30
0.0
 11
28.90361934386863
 21
16.100000193367919
 31
0.0
  0
LINE
  5
FC
  8
0
 62
     0
 10
12.803619343869061
 20
0.0000001933684644
 30
0.0
 11
14.203619343869031
 21
1.4000001933684409
 31
0.0
  0
LINE
  5
FD
  8
0
 62
     0
 10
26.15658092570845
 20
14.700000193368171
 30
0.0
 11
27.556580925708211
 21
16.100000193368029
 31
0.0
  0
LINE
  5
FE
  8
0
 62
     0
 10
11.45658092570863
 20
0.0000001933683507
 30
0.0
 11
12.85658092570872
 21
1.4000001933684409
 31
0.0
  0
LINE
  5
FF
  8
0
 62
     0
 10
24.809542507548151
 20
14.700000193368281
 30
0.0
 11
26.209542507547781
 21
16.100000193367919
 31
0.0
  0
LINE
  5
100
  8
0
 62
     0
 10
10.109542507548319
 20
0.0000001933684644
 30
0.0
 11
11.509542507548421
 21
1.4000001933685551
 31
0.0
  0
LINE
  5
101
  8
0
 62
     0
 10
23.462504089387611
 20
14.700000193368171
 30
0.0
 11
24.862504089387361
 21
16.100000193367919
 31
0.0
  0
LINE
  5
102
  8
0
 62
     0
 10
8.7625040893879032
 20
0.0000001933684644
 30
0.0
 11
10.162504089387991
 21
1.4000001933685551
 31
0.0
  0
LINE
  5
103
  8
0
 62
     0
 10
22.115465671227408
 20
14.700000193368171
 30
0.0
 11
23.515465671227162
 21
16.100000193367919
 31
0.0
  0
LINE
  5
104
  8
0
 62
     0
 10
7.4154656712277074
 20
0.0000001933684644
 30
0.0
 11
9.6997820245393314
 21
2.2843165466800879
 31
0.0
  0
LINE
  5
105
  8
0
 62
     0
 10
8.299782024539013
 20
2.2313549648403059
 30
0.0
 11
9.6997820245391022
 21
3.6313549648403969
 31
0.0
  0
LINE
  5
106
  8
0
 62
     0
 10
20.768427253066989
 20
14.700000193368281
 30
0.0
 11
22.158121915153519
 21
16.089694855454809
 31
0.0
  0
LINE
  5
107
  8
0
 62
     0
 10
6.0684272530671697
 20
0.0000001933683507
 30
0.0
 11
7.4684272530669196
 21
1.400000193368214
 31
0.0
  0
LINE
  5
108
  8
0
 62
     0
 10
8.2997820245392404
 20
3.5783933830009569
 30
0.0
 11
9.6997820245392177
 21
4.9783933830009337
 31
0.0
  0
LINE
  5
109
  8
0
 62
     0
 10
19.421388834906558
 20
14.700000193368281
 30
0.0
 11
20.821388834906539
 21
16.100000193368139
 31
0.0
  0
LINE
  5
10A
  8
0
 62
     0
 10
4.7213888349068611
 20
0.000000193368578
 30
0.0
 11
6.1213888349068384
 21
1.4000001933685551
 31
0.0
  0
LINE
  5
10B
  8
0
 62
     0
 10
8.2997820245392404
 20
4.9254318011611531
 30
0.0
 11
9.6997820245393314
 21
6.3254318011613568
 31
0.0
  0
LINE
  5
10C
  8
0
 62
     0
 10
18.074350416746139
 20
14.700000193368171
 30
0.0
 11
19.47435041674623
 21
16.10000019336826
 31
0.0
  0
LINE
  5
10D
  8
0
 62
     0
 10
3.3743504167464371
 20
0.0000001933684644
 30
0.0
 11
4.7743504167464152
 21
1.4000001933684409
 31
0.0
  0
LINE
  5
10E
  8
0
 62
     0
 10
8.2997820245394678
 20
6.2724702193218027
 30
0.0
 11
9.6997820245392177
 21
7.6724702193215526
 31
0.0
  0
LINE
  5
10F
  8
0
 62
     0
 10
16.72731199858595
 20
14.700000193368171
 30
0.0
 11
18.014557634708009
 21
15.987245829490231
 31
0.0
  0
LINE
  5
110
  8
0
 62
     0
 10
2.027311998586014
 20
0.0000001933683507
 30
0.0
 11
3.427311998586219
 21
1.4000001933684409
 31
0.0
  0
LINE
  5
111
  8
0
 62
     0
 10
8.2997820245393541
 20
7.619508637482113
 30
0.0
 11
9.6997820245391022
 21
9.0195086374819766
 31
0.0
  0
LINE
  5
112
  8
0
 62
     0
 10
15.38027358042552
 20
14.700000193368391
 30
0.0
 11
16.780273580425501
 21
16.10000019336837
 31
0.0
  0
LINE
  5
113
  8
0
 62
     0
 10
0.8915605401084576
 20
0.2112871530512166
 30
0.0
 11
2.1997820245391031
 21
1.519508637481976
 31
0.0
  0
LINE
  5
114
  8
0
 62
     0
 10
8.2997820245392404
 20
8.9665470556424225
 30
0.0
 11
9.6997820245393314
 21
10.36654705564251
 31
0.0
  0
LINE
  5
115
  8
0
 62
     0
 10
14.03323516226499
 20
14.700000193368171
 30
0.0
 11
15.433235162265071
 21
16.10000019336826
 31
0.0
  0
LINE
  5
116
  8
0
 62
     0
 10
0.7997820245392404
 20
1.466547055642422
 30
0.0
 11
2.1997820245392168
 21
2.8665470556423989
 31
0.0
  0
LINE
  5
117
  8
0
 62
     0
 10
8.2997820245394678
 20
10.313585473802959
 30
0.0
 11
9.6997820245393314
 21
11.713585473802709
 31
0.0
  0
LINE
  5
118
  8
0
 62
     0
 10
12.686196744104681
 20
14.700000193368171
 30
0.0
 11
13.835304228230941
 21
15.84910767749432
 31
0.0
  0
LINE
  5
119
  8
0
 62
     0
 10
0.7997820245392404
 20
2.8135854738026178
 30
0.0
 11
2.1997820245393309
 21
4.2135854738027092
 31
0.0
  0
LINE
  5
11A
  8
0
 62
     0
 10
8.2997820245394678
 20
11.660623891963381
 30
0.0
 11
9.6997820245391022
 21
13.06062389196302
 31
0.0
  0
LINE
  5
11B
  8
0
 62
     0
 10
11.339158325944361
 20
14.700000193368281
 30
0.0
 11
12.739158325944461
 21
16.10000019336837
 31
0.0
  0
LINE
  5
11C
  8
0
 62
     0
 10
0.7997820245390132
 20
4.1606238919629268
 30
0.0
 11
2.199782024539445
 21
5.5606238919633588
 31
0.0
  0
LINE
  5
11D
  8
0
 62
     0
 10
8.2997820245395815
 20
13.007662310123919
 30
0.0
 11
9.6997820245392177
 21
14.40766231012355
 31
0.0
  0
LINE
  5
11E
  8
0
 62
     0
 10
9.9921199077839447
 20
14.700000193368281
 30
0.0
 11
11.39211990778392
 21
16.100000193368139
 31
0.0
  0
LINE
  5
11F
  8
0
 62
     0
 10
0.7997820245391268
 20
5.5076623101234636
 30
0.0
 11
2.199782024539445
 21
6.9076623101236692
 31
0.0
  0
LINE
  5
120
  8
0
 62
     0
 10
8.2997820245395815
 20
14.35470072828411
 30
0.0
 11
10.045081489623611
 21
16.10000019336826
 31
0.0
  0
LINE
  5
121
  8
0
 62
     0
 10
0.7997820245392404
 20
6.8547007282838868
 30
0.0
 11
2.1997820245395578
 21
8.2547007282840923
 31
0.0
  0
LINE
  5
122
  8
0
 62
     0
 10
7.2980430714632121
 20
14.700000193368171
 30
0.0
 11
8.698043071463303
 21
16.10000019336826
 31
0.0
  0
LINE
  5
123
  8
0
 62
     0
 10
0.7997820245390132
 20
8.2017391464440834
 30
0.0
 11
2.199782024539445
 21
9.6017391464445154
 31
0.0
  0
LINE
  5
124
  8
0
 62
     0
 10
5.9510046533029017
 20
14.700000193368281
 30
0.0
 11
7.3510046533029927
 21
16.10000019336837
 31
0.0
  0
LINE
  5
125
  8
0
 62
     0
 10
0.7997820245390132
 20
9.5487775646043929
 30
0.0
 11
2.199782024539445
 21
10.94877756460482
 31
0.0
  0
LINE
  5
126
  8
0
 62
     0
 10
4.603966235142706
 20
14.700000193368391
 30
0.0
 11
6.0039662351424559
 21
16.10000019336826
 31
0.0
  0
LINE
  5
127
  8
0
 62
     0
 10
0.7997820245391268
 20
10.89581598276493
 30
0.0
 11
2.199782024539672
 21
12.29581598276547
 31
0.0
  0
LINE
  5
128
  8
0
 62
     0
 10
3.256927816982397
 20
14.70000019336851
 30
0.0
 11
4.6569278169822601
 21
16.10000019336826
 31
0.0
  0
LINE
  5
129
  8
0
 62
     0
 10
0.7997820245392404
 20
12.242854400925239
 30
0.0
 11
2.199782024539672
 21
13.642854400925669
 31
0.0
  0
LINE
  5
12A
  8
0
 62
     0
 10
0.7997820245391268
 20
13.58989281908555
 30
0.0
 11
3.3098893988219511
 21
16.10000019336837
 31
0.0
  0
LINE
  5
12B
  8
0
 62
     0
 10
0.7997820245391268
 20
14.93693123724608
 30
0.0
 11
2.1997820245395578
 21
16.336931237246521
 31
0.0
  0
LINE
  5
12C
  8
0
 62
     0
 10
0.7997820245392404
 20
16.283969655406509
 30
0.0
 11
2.199782024539672
 21
17.683969655406941
 31
0.0
  0
LINE
  5
12D
  8
0
 62
     0
 10
0.7997820245392404
 20
17.631008073566701
 30
0.0
 11
2.199782024539672
 21
19.031008073567129
 31
0.0
  0
LINE
  5
12E
  8
0
 62
     0
 10
0.7997820245390132
 20
18.97804649172712
 30
0.0
 11
2.1997820245395578
 21
20.37804649172767
 31
0.0
  0
LINE
  5
12F
  8
0
 62
     0
 10
0.7997820245391268
 20
20.325084909887551
 30
0.0
 11
2.199782024539672
 21
21.7250849098881
 31
0.0
  0
LINE
  5
130
  8
0
 62
     0
 10
0.7997820245392404
 20
21.67212332804786
 30
0.0
 11
2.199782024539672
 21
23.072123328048288
 31
0.0
  0
LINE
  5
131
  8
0
 62
     0
 10
0.7997820245390132
 20
23.019161746208169
 30
0.0
 11
2.9051006768169141
 21
25.124480398485961
 31
0.0
  0
LINE
  5
132
  8
0
 62
     0
 10
0.2319528973021079
 20
23.79837103713157
 30
0.0
 11
2.3014111807760851
 21
25.867829320605441
 31
0.0
  0
LINE
  5
133
  8
0
 62
     0
 10
0.0426706537941755
 20
24.956127211784072
 30
0.0
 11
1.1436550061235939
 21
26.057111564113491
 31
0.0
  0
ENDBLK
  5
135
  8
0
  0
BLOCK
  8
0
  2
*U3
 70
     1
 10
0.0
 20
0.0
 30
0.0
  3
*U3
  1

  0
ARC
  5
137
  8
0
 10
35.378541416184589
 20
13.900000193368779
 30
0.0
 40
0.3
 50
270.00000000004349
 51
17.235285257095502
  0
ARC
  5
138
  8
0
 10
32.799782024539127
 20
13.100000193368141
 30
0.0
 40
3.0
 50
17.235285257100621
 51
90.0
  0
LINE
  5
139
  8
0
 10
35.378541416184817
 20
13.60000019336883
 30
0.0
 11
34.573545424701251
 21
13.60000019336837
 31
0.0
  0
LINE
  5
13A
  8
0
 10
32.799782024539127
 20
16.100000193368139
 30
0.0
 11
23.119397266908891
 21
16.100000193367919
 31
0.0
  0
ARC
  5
13B
  8
0
 10
34.573545424701251
 20
13.90000019336833
 30
0.0
 40
0.3
 50
218.36651425616651
 51
270.0
  0
ARC
  5
13C
  8
0
 10
23.119397266908891
 20
15.80000019336819
 30
0.0
 40
0.3
 50
90.0
 51
150.00000000470391
  0
ARC
  5
13D
  8
0
 10
32.299782024539127
 20
12.10000019336837
 30
0.0
 40
2.6000000000000001
 50
38.366514256168713
 51
321.63348574384003
  0
ARC
  5
13E
  8
0
 10
22.59978202453954
 20
16.100000193368139
 30
0.0
 40
0.3
 50
209.99999999525849
 51
330.00000000472801
  0
ARC
  5
13F
  8
0
 10
34.573545424701479
 20
10.300000193368639
 30
0.0
 40
0.3
 50
90.000000000043414
 51
141.63348574381931
  0
ARC
  5
140
  8
0
 10
22.080166782170181
 20
15.80000019336819
 30
0.0
 40
0.3
 50
29.99999999530964
 51
89.999999999999986
  0
LINE
  5
141
  8
0
 10
35.499782024539172
 20
10.60000019336883
 30
0.0
 11
34.573545424701251
 21
10.60000019336837
 31
0.0
  0
LINE
  5
142
  8
0
 10
22.080166782170181
 20
16.100000193368139
 30
0.0
 11
18.819397266908709
 21
16.10000019336837
 31
0.0
  0
ARC
  5
143
  8
0
 10
35.499782024539172
 20
10.300000193368639
 30
0.0
 40
0.3
 50
0.0
 51
89.999999999999986
  0
ARC
  5
144
  8
0
 10
18.819397266908709
 20
15.80000019336819
 30
0.0
 40
0.3
 50
90.0
 51
150.00000000468219
  0
LINE
  5
145
  8
0
 10
35.799782024539127
 20
0.5000001933684644
 30
0.0
 11
35.799782024539127
 21
10.300000193368639
 31
0.0
  0
ARC
  5
146
  8
0
 10
18.299782024539581
 20
16.100000193368139
 30
0.0
 40
0.3
 50
209.99999999528021
 51
330.00000000472801
  0
ARC
  5
147
  8
0
 10
35.299782024539127
 20
0.5000001933684644
 30
0.0
 40
0.5
 50
270.0
 51
0.0
  0
ARC
  5
148
  8
0
 10
17.780166782170451
 20
15.80000019336819
 30
0.0
 40
0.3
 50
29.99999999530964
 51
89.999999999999986
  0
LINE
  5
149
  8
0
 10
35.299782024539127
 20
0.0000001933684644
 30
0.0
 11
1.2997820245391261
 21
0.0000001933684644
 31
0.0
  0
LINE
  5
14A
  8
0
 10
17.780166782170451
 20
16.100000193368139
 30
0.0
 11
14.51939726690898
 21
16.10000019336837
 31
0.0
  0
ARC
  5
14B
  8
0
 10
1.2997820245391261
 20
0.5000001933684644
 30
0.0
 40
0.5
 50
180.0
 51
270.0
  0
ARC
  5
14C
  8
0
 10
14.51939726690898
 20
15.80000019336819
 30
0.0
 40
0.3
 50
90.0
 51
150.00000000470391
  0
LINE
  5
14D
  8
0
 10
0.7997820245391268
 20
0.5000001933684644
 30
0.0
 11
0.7997820245391268
 21
23.10333723866199
 31
0.0
  0
ARC
  5
14E
  8
0
 10
13.99978202453963
 20
16.10000019336837
 30
0.0
 40
0.3
 50
209.99999999529609
 51
330.00000000469038
  0
ARC
  5
14F
  8
0
 10
0.4997820245391722
 20
23.10333723866199
 30
0.0
 40
0.3
 50
0.0
 51
56.251011404078561
  0
ARC
  5
150
  8
0
 10
13.48016678217027
 20
15.80000019336819
 30
0.0
 40
0.3
 50
29.99999999530964
 51
89.999999999999986
  0
ARC
  5
151
  8
0
 10
1.499782024539172
 20
24.60000019336837
 30
0.0
 40
1.5
 50
303.74898859596692
 51
236.25101140405019
  0
LINE
  5
152
  8
0
 10
13.48016678217027
 20
16.10000019336837
 30
0.0
 11
5.7193972669087989
 21
16.10000019336837
 31
0.0
  0
ARC
  5
153
  8
0
 10
2.4997820245396261
 20
23.10333723866222
 30
0.0
 40
0.3
 50
123.7489885959329
 51
180.0
  0
ARC
  5
154
  8
0
 10
5.7193972669087989
 20
15.800000193368421
 30
0.0
 40
0.3
 50
90.0
 51
150.00000000471979
  0
LINE
  5
155
  8
0
 10
2.199782024539672
 20
16.10000019336837
 30
0.0
 11
2.199782024539672
 21
23.10333723866222
 31
0.0
  0
ARC
  5
156
  8
0
 10
5.1997820245396724
 20
16.10000019336837
 30
0.0
 40
0.3
 50
209.99999999529609
 51
330.00000000469038
  0
LINE
  5
157
  8
0
 10
4.6801667821703168
 20
16.10000019336837
 30
0.0
 11
2.199782024539672
 21
16.10000019336837
 31
0.0
  0
ARC
  5
158
  8
0
 10
4.6801667821703168
 20
15.800000193368421
 30
0.0
 40
0.3
 50
29.999999995272081
 51
90.000000000000028
  0
ENDBLK
  5
15A
  8
0
  0
BLOCK
  8
0
  2
*U4
 70
     1
 10
0.0
 20
0.0
 30
0.0
  3
*U4
  1

  0
ARC
  5
15C
  8
0
 10
34.19978202453899
 20
8.3543360333163719
 30
0.0
 40
0.2
 50
0.0000000000651378
 51
116.896546303393
  0
ARC
  5
15D
  8
0
 10
32.299782024539127
 20
12.10000019336837
 30
0.0
 40
4.0
 50
205.2087652964039
 51
296.89654630340732
  0
LINE
  5
15E
  8
0
 10
34.399782024539043
 20
1.4000001933685551
 30
0.0
 11
34.399782024539043
 21
8.3543360333165992
 31
0.0
  0
ARC
  5
15F
  8
0
 10
28.4997820245394
 20
10.31114581139707
 30
0.0
 40
0.2
 50
25.208765296486199
 51
179.9999999999348
  0
LINE
  5
160
  8
0
 10
34.399782024539043
 20
1.4000001933685551
 30
0.0
 11
28.29978202453913
 21
1.4000001933685551
 31
0.0
  0
LINE
  5
161
  8
0
 10
28.29978202453913
 20
1.4000001933685551
 30
0.0
 11
28.29978202453913
 21
10.31114581139729
 31
0.0
  0
ENDBLK
  5
163
  8
0
  0
BLOCK
  8
0
  2
*U5
 70
     1
 10
0.0
 20
0.0
 30
0.0
  3
*U5
  1

  0
LINE
  5
165
  8
0
 10
8.2997820245395815
 20
14.700000193368281
 30
0.0
 11
2.199782024539672
 21
14.70000019336851
 31
0.0
  0
LINE
  5
166
  8
0
 10
2.1997820245392168
 20
1.4000001933685551
 30
0.0
 11
2.199782024539672
 21
14.70000019336851
 31
0.0
  0
LINE
  5
167
  8
0
 10
8.2997820245391267
 20
1.400000193368327
 30
0.0
 11
8.2997820245395815
 21
14.700000193368281
 31
0.0
  0
LINE
  5
168
  8
0
 10
8.2997820245391267
 20
1.400000193368327
 30
0.0
 11
2.1997820245392168
 21
1.4000001933685551
 31
0.0
  0
ENDBLK
  5
16A
  8
0
  0
BLOCK
  8
0
  2
*U6
 70
     1
 10
0.0
 20
0.0
 30
0.0
  3
*U6
  1

  0
LINE
  5
16C
  8
0
 10
26.899782024539039
 20
14.700000193368281
 30
0.0
 11
9.6997820245392177
 21
14.700000193368281
 31
0.0
  0
LINE
  5
16D
  8
0
 10
9.6997820245392177
 20
1.4000001933685551
 30
0.0
 11
9.6997820245392177
 21
14.700000193368281
 31
0.0
  0
LINE
  5
16E
  8
0
 10
26.899782024539039
 20
1.400000193368327
 30
0.0
 11
26.899782024539039
 21
14.700000193368281
 31
0.0
  0
LINE
  5
16F
  8
0
 10
26.899782024539039
 20
1.400000193368327
 30
0.0
 11
9.6997820245392177
 21
1.4000001933685551
 31
0.0
  0
ENDBLK
  5
171
  8
0
  0
ENDSEC
  0
SECTION
  2
ENTITIES
  0
LINE
  5
94
  8
0
 10
886.91647033579329
 20
209.86643864188329
 30
0.0
 11
869.71647033579336
 21
209.86643864188329
 31
0.0
  0
LINE
  5
95
  8
0
 10
869.71647033579336
 20
196.56643864188351
 30
0.0
 11
869.71647033579336
 21
209.86643864188329
 31
0.0
  0
LINE
  5
96
  8
0
 10
886.91647033579329
 20
196.56643864188331
 30
0.0
 11
886.91647033579329
 21
209.86643864188329
 31
0.0
  0
LINE
  5
97
  8
0
 10
886.91647033579329
 20
196.56643864188331
 30
0.0
 11
869.71647033579336
 21
196.56643864188351
 31
0.0
  0
LINE
  5
98
  8
0
 10
868.31647033579384
 20
209.86643864188329
 30
0.0
 11
862.21647033579382
 21
209.86643864188349
 31
0.0
  0
LINE
  5
99
  8
0
 10
862.21647033579347
 20
196.56643864188351
 30
0.0
 11
862.21647033579382
 21
209.86643864188349
 31
0.0
  0
LINE
  5
9A
  8
0
 10
868.31647033579327
 20
196.56643864188331
 30
0.0
 11
868.31647033579384
 21
209.86643864188329
 31
0.0
  0
LINE
  5
9B
  8
0
 10
868.31647033579327
 20
196.56643864188331
 30
0.0
 11
862.21647033579347
 21
196.56643864188351
 31
0.0
  0
ARC
  5
9C
  8
0
 10
894.21647033579313
 20
203.52077448183141
 30
0.0
 40
0.2
 50
0.0000000000651378
 51
116.896546303393
  0
ARC
  5
9D
  8
0
 10
892.31647033579327
 20
207.26643864188341
 30
0.0
 40
4.0
 50
205.2087652964039
 51
296.89654630340732
  0
LINE
  5
9E
  8
0
 10
894.41647033579318
 20
196.56643864188351
 30
0.0
 11
894.41647033579318
 21
203.52077448183161
 31
0.0
  0
ARC
  5
9F
  8
0
 10
888.51647033579366
 20
205.47758425991211
 30
0.0
 40
0.2
 50
25.208765296486199
 51
179.9999999999348
  0
LINE
  5
A0
  8
0
 10
894.41647033579318
 20
196.56643864188351
 30
0.0
 11
888.31647033579338
 21
196.56643864188351
 31
0.0
  0
LINE
  5
A1
  8
0
 10
888.31647033579338
 20
196.56643864188351
 30
0.0
 11
888.31647033579338
 21
205.47758425991231
 31
0.0
  0
ARC
  5
A2
  8
0
 10
895.39522972743885
 20
209.06643864188379
 30
0.0
 40
0.3
 50
270.00000000004349
 51
17.235285257095502
  0
ARC
  5
A3
  8
0
 10
892.81647033579338
 20
208.2664386418831
 30
0.0
 40
3.0
 50
17.235285257100621
 51
90.0
  0
LINE
  5
A4
  8
0
 10
895.39522972743907
 20
208.76643864188381
 30
0.0
 11
894.59023373595551
 21
208.76643864188341
 31
0.0
  0
LINE
  5
A5
  8
0
 10
892.81647033579338
 20
211.26643864188321
 30
0.0
 11
883.13608557816315
 21
211.2664386418829
 31
0.0
  0
ARC
  5
A6
  8
0
 10
894.59023373595551
 20
209.06643864188331
 30
0.0
 40
0.3
 50
218.36651425616651
 51
270.0
  0
ARC
  5
A7
  8
0
 10
883.13608557816315
 20
210.9664386418832
 30
0.0
 40
0.3
 50
90.0
 51
150.00000000470391
  0
ARC
  5
A8
  8
0
 10
892.31647033579327
 20
207.26643864188341
 30
0.0
 40
2.6000000000000001
 50
38.366514256168713
 51
321.63348574384003
  0
ARC
  5
A9
  8
0
 10
882.61647033579368
 20
211.26643864188321
 30
0.0
 40
0.3
 50
209.99999999525849
 51
330.00000000472801
  0
ARC
  5
AA
  8
0
 10
894.59023373595574
 20
205.46643864188371
 30
0.0
 40
0.3
 50
90.000000000043414
 51
141.63348574381931
  0
ARC
  5
AB
  8
0
 10
882.09685509342444
 20
210.9664386418832
 30
0.0
 40
0.3
 50
29.99999999530964
 51
89.999999999999986
  0
LINE
  5
AC
  8
0
 10
895.51647033579354
 20
205.76643864188381
 30
0.0
 11
894.59023373595551
 21
205.76643864188341
 31
0.0
  0
LINE
  5
AD
  8
0
 10
882.09685509342444
 20
211.26643864188321
 30
0.0
 11
878.83608557816285
 21
211.26643864188341
 31
0.0
  0
ARC
  5
AE
  8
0
 10
895.51647033579354
 20
205.46643864188371
 30
0.0
 40
0.3
 50
0.0
 51
89.999999999999986
  0
ARC
  5
AF
  8
0
 10
878.83608557816285
 20
210.9664386418832
 30
0.0
 40
0.3
 50
90.0
 51
150.00000000468219
  0
LINE
  5
B0
  8
0
 10
895.81647033579327
 20
195.6664386418835
 30
0.0
 11
895.81647033579327
 21
205.46643864188371
 31
0.0
  0
ARC
  5
B1
  8
0
 10
878.31647033579384
 20
211.26643864188321
 30
0.0
 40
0.3
 50
209.99999999528021
 51
330.00000000472801
  0
ARC
  5
B2
  8
0
 10
895.31647033579338
 20
195.6664386418835
 30
0.0
 40
0.5
 50
270.0
 51
0.0
  0
ARC
  5
B3
  8
0
 10
877.79685509342471
 20
210.9664386418832
 30
0.0
 40
0.3
 50
29.99999999530964
 51
89.999999999999986
  0
LINE
  5
B4
  8
0
 10
895.31647033579338
 20
195.16643864188339
 30
0.0
 11
861.31647033579338
 21
195.16643864188339
 31
0.0
  0
LINE
  5
B5
  8
0
 10
877.79685509342471
 20
211.26643864188321
 30
0.0
 11
874.53608557816324
 21
211.26643864188341
 31
0.0
  0
ARC
  5
B6
  8
0
 10
861.31647033579338
 20
195.6664386418835
 30
0.0
 40
0.5
 50
180.0
 51
270.0
  0
ARC
  5
B7
  8
0
 10
874.53608557816324
 20
210.9664386418832
 30
0.0
 40
0.3
 50
90.0
 51
150.00000000470391
  0
LINE
  5
B8
  8
0
 10
860.81647033579338
 20
195.6664386418835
 30
0.0
 11
860.81647033579338
 21
218.269775687177
 31
0.0
  0
ARC
  5
B9
  8
0
 10
874.01647033579388
 20
211.26643864188341
 30
0.0
 40
0.3
 50
209.99999999529609
 51
330.00000000469038
  0
ARC
  5
BA
  8
0
 10
860.51647033579331
 20
218.269775687177
 30
0.0
 40
0.3
 50
0.0
 51
56.251011404078561
  0
ARC
  5
BB
  8
0
 10
873.49685509342464
 20
210.9664386418832
 30
0.0
 40
0.3
 50
29.99999999530964
 51
89.999999999999986
  0
ARC
  5
BC
  8
0
 10
861.51647033579331
 20
219.76643864188341
 30
0.0
 40
1.5
 50
303.74898859596692
 51
236.25101140405019
  0
LINE
  5
BD
  8
0
 10
873.49685509342464
 20
211.26643864188341
 30
0.0
 11
865.73608557816306
 21
211.26643864188341
 31
0.0
  0
ARC
  5
BE
  8
0
 10
862.51647033579377
 20
218.2697756871772
 30
0.0
 40
0.3
 50
123.7489885959329
 51
180.0
  0
ARC
  5
BF
  8
0
 10
865.73608557816306
 20
210.9664386418834
 30
0.0
 40
0.3
 50
90.0
 51
150.00000000471979
  0
LINE
  5
C0
  8
0
 10
862.21647033579382
 20
211.26643864188341
 30
0.0
 11
862.21647033579382
 21
218.2697756871772
 31
0.0
  0
ARC
  5
C1
  8
0
 10
865.21647033579393
 20
211.26643864188341
 30
0.0
 40
0.3
 50
209.99999999529609
 51
330.00000000469038
  0
LINE
  5
C2
  8
0
 10
864.69685509342446
 20
211.26643864188341
 30
0.0
 11
862.21647033579382
 21
211.26643864188341
 31
0.0
  0
ARC
  5
C3
  8
0
 10
864.69685509342446
 20
210.9664386418834
 30
0.0
 40
0.3
 50
29.999999995272081
 51
90.000000000000028
  0
ENDSEC
  0
EOF
