  0
SECTION
  2
HEADER
  9
$ACADVER
  1
AC1009
  9
$INSBASE
 10
0.0
 20
0.0
 30
0.0
  9
$EXTMIN
 10
1790.6565171913551
 20
1688.5749306677601
 30
0.0
  9
$EXTMAX
 10
1881.2565171913559
 20
1703.6937187544299
 30
0.0
  9
$LIMMIN
 10
0.0
 20
0.0
  9
$LIMMAX
 10
420.0
 20
297.0
  9
$ORTHOMODE
 70
     0
  9
$REGENMODE
 70
     1
  9
$FILLMODE
 70
     1
  9
$QTEXTMODE
 70
     0
  9
$MIRRTEXT
 70
     0
  9
$DRAGMODE
 70
     2
  9
$LTSCALE
 40
1.0
  9
$OSMODE
 70
  3071
  9
$ATTMODE
 70
     1
  9
$TEXTSIZE
 40
2.5
  9
$TRACEWID
 40
1.0
  9
$TEXTSTYLE
  7
STANDARD
  9
$CLAYER
  8
0
  9
$CELTYPE
  6
BYLAYER
  9
$CECOLOR
 62
   256
  9
$DIMSCALE
 40
1.0
  9
$DIMASZ
 40
2.5
  9
$DIMEXO
 40
0.625
  9
$DIMDLI
 40
3.75
  9
$DIMRND
 40
0.0
  9
$DIMDLE
 40
0.0
  9
$DIMEXE
 40
1.25
  9
$DIMTP
 40
0.0
  9
$DIMTM
 40
0.0
  9
$DIMTXT
 40
2.5
  9
$DIMCEN
 40
2.5
  9
$DIMTSZ
 40
0.0
  9
$DIMTOL
 70
     0
  9
$DIMLIM
 70
     0
  9
$DIMTIH
 70
     0
  9
$DIMTOH
 70
     0
  9
$DIMSE1
 70
     0
  9
$DIMSE2
 70
     0
  9
$DIMTAD
 70
     1
  9
$DIMZIN
 70
     8
  9
$DIMBLK
  1

  9
$DIMASO
 70
     1
  9
$DIMSHO
 70
     1
  9
$DIMPOST
  1

  9
$DIMAPOST
  1

  9
$DIMALT
 70
     0
  9
$DIMALTD
 70
     3
  9
$DIMALTF
 40
0.03937007874016
  9
$DIMLFAC
 40
1.0
  9
$DIMTOFL
 70
     1
  9
$DIMTVP
 40
0.0
  9
$DIMTIX
 70
     0
  9
$DIMSOXD
 70
     0
  9
$DIMSAH
 70
     0
  9
$DIMBLK1
  1

  9
$DIMBLK2
  1

  9
$DIMSTYLE
  2
ISO-25
  9
$DIMCLRD
 70
     0
  9
$DIMCLRE
 70
     0
  9
$DIMCLRT
 70
     0
  9
$DIMTFAC
 40
1.0
  9
$DIMGAP
 40
0.625
  9
$LUNITS
 70
     2
  9
$LUPREC
 70
     4
  9
$SKETCHINC
 40
1.0
  9
$FILLETRAD
 40
0.0
  9
$AUNITS
 70
     0
  9
$AUPREC
 70
     0
  9
$MENU
  1
.
  9
$ELEVATION
 40
0.0
  9
$PELEVATION
 40
0.0
  9
$THICKNESS
 40
0.0
  9
$LIMCHECK
 70
     0
  9
$BLIPMODE
 70
     0
  9
$CHAMFERA
 40
0.0
  9
$CHAMFERB
 40
0.0
  9
$SKPOLY
 70
     0
  9
$TDCREATE
 40
2455630.4830367132
  9
$TDUPDATE
 40
2455630.4831378008
  9
$TDINDWG
 40
0.0001012847
  9
$TDUSRTIMER
 40
0.0001012616
  9
$USRTIMER
 70
     1
  9
$ANGBASE
 50
0.0
  9
$ANGDIR
 70
     0
  9
$PDMODE
 70
     0
  9
$PDSIZE
 40
0.0
  9
$PLINEWID
 40
0.0
  9
$COORDS
 70
     1
  9
$SPLFRAME
 70
     0
  9
$SPLINETYPE
 70
     6
  9
$SPLINESEGS
 70
     8
  9
$ATTDIA
 70
     0
  9
$ATTREQ
 70
     1
  9
$HANDLING
 70
     1
  9
$HANDSEED
  5
308
  9
$SURFTAB1
 70
     6
  9
$SURFTAB2
 70
     6
  9
$SURFTYPE
 70
     6
  9
$SURFU
 70
     6
  9
$SURFV
 70
     6
  9
$UCSNAME
  2

  9
$UCSORG
 10
0.0
 20
0.0
 30
0.0
  9
$UCSXDIR
 10
1.0
 20
0.0
 30
0.0
  9
$UCSYDIR
 10
0.0
 20
1.0
 30
0.0
  9
$PUCSNAME
  2

  9
$PUCSORG
 10
0.0
 20
0.0
 30
0.0
  9
$PUCSXDIR
 10
1.0
 20
0.0
 30
0.0
  9
$PUCSYDIR
 10
0.0
 20
1.0
 30
0.0
  9
$USERI1
 70
     0
  9
$USERI2
 70
     0
  9
$USERI3
 70
     0
  9
$USERI4
 70
     0
  9
$USERI5
 70
     0
  9
$USERR1
 40
0.0
  9
$USERR2
 40
0.0
  9
$USERR3
 40
0.0
  9
$USERR4
 40
0.0
  9
$USERR5
 40
0.0
  9
$WORLDVIEW
 70
     1
  9
$SHADEDGE
 70
     3
  9
$SHADEDIF
 70
    70
  9
$TILEMODE
 70
     1
  9
$MAXACTVP
 70
    64
  9
$PLIMCHECK
 70
     0
  9
$PEXTMIN
 10
0.0
 20
0.0
 30
0.0
  9
$PEXTMAX
 10
0.0
 20
0.0
 30
0.0
  9
$PLIMMIN
 10
0.0
 20
0.0
  9
$PLIMMAX
 10
12.0
 20
9.0
  9
$UNITMODE
 70
     0
  9
$VISRETAIN
 70
     1
  9
$PLINEGEN
 70
     0
  9
$PSLTSCALE
 70
     1
  0
ENDSEC
  0
SECTION
  2
TABLES
  0
TABLE
  2
VPORT
 70
     1
  0
VPORT
  2
*ACTIVE
 70
     0
 10
0.0
 20
0.0
 11
1.0
 21
1.0
 12
1835.9565171913559
 22
1696.134324711096
 13
0.0
 23
0.0
 14
10.0
 24
10.0
 15
10.0
 25
10.0
 16
0.0
 26
0.0
 36
1.0
 17
0.0
 27
0.0
 37
0.0
 40
41.68676737175349
 41
2.1807980049875311
 42
50.0
 43
0.0
 44
0.0
 50
0.0
 51
0.0
 71
     0
 72
  1000
 73
     1
 74
     3
 75
     0
 76
     0
 77
     0
 78
     0
  0
ENDTAB
  0
TABLE
  2
LTYPE
 70
     1
  0
LTYPE
  2
CONTINUOUS
 70
     0
  3
Solid line
 72
    65
 73
     0
 40
0.0
  0
ENDTAB
  0
TABLE
  2
LAYER
 70
     2
  0
LAYER
  2
0
 70
     0
 62
     7
  6
CONTINUOUS
  0
LAYER
  2
OLÇÜ
 70
     0
 62
     5
  6
CONTINUOUS
  0
ENDTAB
  0
TABLE
  2
STYLE
 70
     5
  0
STYLE
  2
STANDARD
 70
     0
 40
0.0
 41
1.0
 50
0.0
 71
     0
 42
2.5
  3
txt
  4

  0
STYLE
  2
ANNOTATIVE
 70
     0
 40
0.0
 41
1.0
 50
0.0
 71
     0
 42
2.5
  3
txt
  4

  0
STYLE
  2
EBRU
 70
     0
 40
0.0
 41
1.0
 50
0.0
 71
     0
 42
200.0
  3
txt
  4

  0
STYLE
  2
2_YUK_3
 70
     0
 40
3.0
 41
1.0
 50
0.0
 71
     0
 42
3.0
  3
txt
  4

  0
STYLE
  2
ROMANT
 70
     0
 40
2.5
 41
1.0
 50
15.0
 71
     0
 42
2.5
  3
romant.shx
  4

  0
ENDTAB
  0
TABLE
  2
VIEW
 70
     1
  0
ENDTAB
  0
TABLE
  2
UCS
 70
     0
  0
ENDTAB
  0
TABLE
  2
APPID
 70
     7
  0
APPID
  2
ACAD
 70
     0
  0
APPID
  2
ACAD_PSEXT
 70
     0
  0
APPID
  2
ACADANNOPO
 70
     0
  0
APPID
  2
ACADANNOTATIVE
 70
     0
  0
APPID
  2
ACAD_DSTYLE_DIMJAG
 70
     0
  0
APPID
  2
ACAD_DSTYLE_DIMTALN
 70
     0
  0
APPID
  2
ACAD_MLEADERVER
 70
     0
  0
ENDTAB
  0
TABLE
  2
DIMSTYLE
 70
     8
  0
DIMSTYLE
  2
STANDARD
 70
     0
  3

  4

  5

  6

  7

 40
1.0
 41
0.18
 42
0.0625
 43
0.38
 44
0.18
 45
0.0
 46
0.0
 47
0.0
 48
0.0
140
0.18
141
0.09
142
0.0
143
25.399999999999999
144
1.0
145
0.0
146
1.0
147
0.09
 71
     0
 72
     0
 73
     1
 74
     1
 75
     0
 76
     0
 77
     0
 78
     0
170
     0
171
     2
172
     0
173
     0
174
     0
175
     0
176
     0
177
     0
178
     0
  0
DIMSTYLE
  2
ANNOTATIVE
 70
     0
  3

  4

  5

  6

  7

 40
0.0
 41
2.5
 42
0.625
 43
3.75
 44
1.25
 45
0.0
 46
0.0
 47
0.0
 48
0.0
140
2.5
141
2.5
142
0.0
143
0.03937007874016
144
1.0
145
0.0
146
1.0
147
0.625
 71
     0
 72
     0
 73
     0
 74
     0
 75
     0
 76
     0
 77
     1
 78
     8
170
     0
171
     3
172
     1
173
     0
174
     0
175
     0
176
     0
177
     0
178
     0
  0
DIMSTYLE
  2
ISO-25
 70
     0
  3

  4

  5

  6

  7

 40
1.0
 41
2.5
 42
0.625
 43
3.75
 44
1.25
 45
0.0
 46
0.0
 47
0.0
 48
0.0
140
2.5
141
2.5
142
0.0
143
0.03937007874016
144
1.0
145
0.0
146
1.0
147
0.625
 71
     0
 72
     0
 73
     0
 74
     0
 75
     0
 76
     0
 77
     1
 78
     8
170
     0
171
     3
172
     1
173
     0
174
     0
175
     0
176
     0
177
     0
178
     0
  0
DIMSTYLE
  2
OLCEK_0_2_AYARLAR
 70
     0
  3

  4
"
  5

  6

  7

 40
1.0
 41
2.5
 42
2.0
 43
10.0
 44
1.0
 45
0.0
 46
0.0
 47
0.1
 48
0.1
140
3.0
141
0.0
142
0.0
143
0.0393701
144
0.2
145
0.0
146
0.71
147
1.5
 71
     0
 72
     0
 73
     0
 74
     1
 75
     0
 76
     0
 77
     1
 78
     8
170
     0
171
     2
172
     1
173
     0
174
     0
175
     0
176
     3
177
     3
178
     7
  0
DIMSTYLE
  2
ISO-25-2
 70
     0
  3

  4

  5

  6

  7

 40
0.8
 41
2.5
 42
0.625
 43
3.75
 44
0.5
 45
0.0
 46
0.0
 47
0.0
 48
0.0
140
2.5
141
0.2
142
0.0
143
0.03937007874016
144
1.0
145
0.0
146
1.0
147
0.2
 71
     0
 72
     0
 73
     0
 74
     0
 75
     0
 76
     0
 77
     1
 78
     8
170
     0
171
     3
172
     0
173
     0
174
     0
175
     0
176
   242
177
   242
178
   242
  0
DIMSTYLE
  2
ISO-25_1_E_4
 70
     0
  3

  4

  5

  6

  7

 40
1.0
 41
2.5
 42
0.0
 43
3.75
 44
0.3
 45
0.0
 46
0.0
 47
0.0
 48
0.0
140
1.0
141
0.2
142
0.0
143
0.03937007874016
144
0.25
145
0.0
146
1.0
147
0.3
 71
     0
 72
     0
 73
     0
 74
     0
 75
     0
 76
     0
 77
     1
 78
     8
170
     0
171
     3
172
     0
173
     0
174
     0
175
     0
176
   242
177
   242
178
   256
  0
DIMSTYLE
  2
ISO-25_1_E_2
 70
     0
  3

  4

  5

  6

  7

 40
1.0
 41
2.5
 42
0.0
 43
3.75
 44
0.3
 45
0.0
 46
0.0
 47
0.0
 48
0.0
140
1.0
141
0.2
142
0.0
143
0.03937007874016
144
0.5
145
0.0
146
1.0
147
0.3
 71
     0
 72
     0
 73
     0
 74
     0
 75
     0
 76
     0
 77
     1
 78
     8
170
     0
171
     3
172
     0
173
     0
174
     0
175
     0
176
   242
177
   242
178
   256
  0
DIMSTYLE
  2
ISO-25_1_E_3
 70
     0
  3

  4

  5

  6

  7

 40
1.0
 41
2.5
 42
0.0
 43
3.75
 44
0.3
 45
0.0
 46
0.0
 47
0.0
 48
0.0
140
1.0
141
0.2
142
0.0
143
0.03937007874016
144
0.333333333333333
145
0.0
146
1.0
147
0.5
 71
     0
 72
     0
 73
     0
 74
     0
 75
     0
 76
     0
 77
     1
 78
     8
170
     0
171
     3
172
     0
173
     0
174
     0
175
     0
176
   242
177
   242
178
   256
  0
ENDTAB
  0
ENDSEC
  0
SECTION
  2
BLOCKS
  0
BLOCK
  8
0
  2
$MODEL_SPACE
 70
     0
 10
0.0
 20
0.0
 30
0.0
  3
$MODEL_SPACE
  1

  0
ENDBLK
  5
21
  8
0
  0
BLOCK
 67
     1
  8
0
  2
$PAPER_SPACE
 70
     0
 10
0.0
 20
0.0
 30
0.0
  3
$PAPER_SPACE
  1

  0
ENDBLK
  5
D5
 67
     1
  8
0
  0
BLOCK
  8
0
  2
*X2
 70
     1
 10
0.0
 20
0.0
 30
0.0
  3
*X2
  1

  0
LINE
  5
26B
  8
0
 62
     0
 10
90.126664995394904
 20
-0.0000001797091045
 30
0.0
 11
90.600000679132677
 21
0.4733355040286824
 31
0.0
  0
LINE
  5
26C
  8
0
 62
     0
 10
89.244298924143095
 20
0.0015172255223206
 30
0.0
 11
90.600000679132791
 21
1.3572189805120161
 31
0.0
  0
LINE
  5
26D
  8
0
 62
     0
 10
88.760986969716896
 20
0.4020887475794553
 30
0.0
 11
90.600000679132549
 21
2.2411024569953488
 31
0.0
  0
LINE
  5
26E
  8
0
 62
     0
 10
88.434209064774564
 20
0.9591943191201153
 30
0.0
 11
90.600000679132677
 21
3.1249859334782282
 31
0.0
  0
LINE
  5
26F
  8
0
 62
     0
 10
88.107431159832458
 20
1.5162998906612299
 30
0.0
 11
90.600000679132791
 21
4.0088694099615623
 31
0.0
  0
LINE
  5
270
  8
0
 62
     0
 10
87.780653254889998
 20
2.0734054622021172
 30
0.0
 11
90.600000679132549
 21
4.892752886444895
 31
0.0
  0
LINE
  5
271
  8
0
 62
     0
 10
89.100000679132677
 20
4.2766363629280022
 30
0.0
 11
90.600000679132677
 21
5.7766363629277739
 31
0.0
  0
LINE
  5
272
  8
0
 62
     0
 10
87.453875349947893
 20
2.6305110337430051
 30
0.0
 11
88.223296723165404
 21
3.3999324069607151
 31
0.0
  0
LINE
  5
273
  8
0
 62
     0
 10
89.100000679132776
 20
5.1605198394111076
 30
0.0
 11
90.600000679132791
 21
6.6605198394111076
 31
0.0
  0
LINE
  5
274
  8
0
 62
     0
 10
89.100000679132776
 20
6.0444033158944421
 30
0.0
 11
90.600000679132549
 21
7.5444033158944421
 31
0.0
  0
LINE
  5
275
  8
0
 62
     0
 10
89.100000679132677
 20
6.9282867923775484
 30
0.0
 11
90.600000679132677
 21
8.428286792377321
 31
0.0
  0
LINE
  5
276
  8
0
 62
     0
 10
89.100000679132563
 20
7.8121702688604273
 30
0.0
 11
90.582036758738923
 21
9.2942063484670143
 31
0.0
  0
LINE
  5
277
  8
0
 62
     0
 10
89.100000679132776
 20
8.6960537453439883
 30
0.0
 11
90.474408574894824
 21
10.07046164110602
 31
0.0
  0
LINE
  5
278
  8
0
 62
     0
 10
89.047414527136766
 20
9.5273510698311838
 30
0.0
 11
90.290184297621067
 21
10.77012084031526
 31
0.0
  0
LINE
  5
279
  8
0
 62
     0
 10
88.882737264171055
 20
10.24655728334846
 30
0.0
 11
90.043603038136553
 21
11.40742305731419
 31
0.0
  0
LINE
  5
27A
  8
0
 62
     0
 10
88.634064808757785
 20
10.881768304418751
 30
0.0
 11
89.743157276174784
 21
11.990860771835511
 31
0.0
  0
LINE
  5
27B
  8
0
 62
     0
 10
88.316087656107015
 20
11.447674628250979
 30
0.0
 11
89.394046109743257
 21
12.52563308188701
 31
0.0
  0
LINE
  5
27C
  8
0
 62
     0
 10
87.936429083807298
 20
11.951899532434251
 30
0.0
 11
88.999317784838027
 21
13.01478823346519
 31
0.0
  0
LINE
  5
27D
  8
0
 62
     0
 10
87.498491776693314
 20
12.397845701803821
 30
0.0
 11
88.560424268409406
 21
13.4597781935197
 31
0.0
  0
LINE
  5
27E
  8
0
 62
     0
 10
87.002485690521894
 20
12.785723092115401
 30
0.0
 11
88.077457149859015
 21
13.860694551452299
 31
0.0
  0
LINE
  5
27F
  8
0
 62
     0
 10
86.445486883731064
 20
13.112607761807791
 30
0.0
 11
87.549161927588116
 21
14.21628280566483
 31
0.0
  0
LINE
  5
280
  8
0
 62
     0
 10
85.820570370717178
 20
13.371574725277011
 30
0.0
 11
86.972736207409284
 21
14.52374056196936
 31
0.0
  0
LINE
  5
281
  8
0
 62
     0
 10
85.114321026694483
 20
13.54920885773754
 30
0.0
 11
86.343330016646746
 21
14.77821784768957
 31
0.0
  0
LINE
  5
282
  8
0
 62
     0
 10
84.300016599408309
 20
13.61878790693458
 30
0.0
 11
85.653012530656724
 21
14.971783838183001
 31
0.0
  0
LINE
  5
283
  8
0
 62
     0
 10
83.416133122951365
 20
13.61878790696073
 30
0.0
 11
84.888578874632685
 21
15.09123365864207
 31
0.0
  0
LINE
  5
284
  8
0
 62
     0
 10
82.532249646468131
 20
13.61878790696051
 30
0.0
 11
84.032249646467903
 21
15.118787906960501
 31
0.0
  0
LINE
  5
285
  8
0
 62
     0
 10
81.648366169984897
 20
13.61878790696051
 30
0.0
 11
83.148366169984911
 21
15.11878790696073
 31
0.0
  0
LINE
  5
286
  8
0
 62
     0
 10
80.764482693501805
 20
13.61878790696073
 30
0.0
 11
82.264482693501563
 21
15.118787906960501
 31
0.0
  0
LINE
  5
287
  8
0
 62
     0
 10
79.880599217018585
 20
13.61878790696051
 30
0.0
 11
81.380599217018357
 21
15.118787906960501
 31
0.0
  0
LINE
  5
288
  8
0
 62
     0
 10
78.996715740535251
 20
13.61878790696051
 30
0.0
 11
80.496715740535237
 21
15.11878790696073
 31
0.0
  0
LINE
  5
289
  8
0
 62
     0
 10
78.112832264052258
 20
13.61878790696073
 30
0.0
 11
79.612832264052031
 21
15.118787906960501
 31
0.0
  0
LINE
  5
28A
  8
0
 62
     0
 10
77.228948787569024
 20
13.61878790696051
 30
0.0
 11
78.728948787568811
 21
15.118787906960501
 31
0.0
  0
LINE
  5
28B
  8
0
 62
     0
 10
76.345065311085705
 20
13.61878790696051
 30
0.0
 11
77.845065311085705
 21
15.11878790696073
 31
0.0
  0
LINE
  5
28C
  8
0
 62
     0
 10
75.461181834602485
 20
13.61878790696073
 30
0.0
 11
76.961181834602485
 21
15.118787906960501
 31
0.0
  0
LINE
  5
28D
  8
0
 62
     0
 10
74.577298358119492
 20
13.61878790696051
 30
0.0
 11
76.077298358119265
 21
15.118787906960501
 31
0.0
  0
LINE
  5
28E
  8
0
 62
     0
 10
73.693414881636158
 20
13.61878790696051
 30
0.0
 11
75.193414881636158
 21
15.11878790696073
 31
0.0
  0
LINE
  5
28F
  8
0
 62
     0
 10
72.809531405152924
 20
13.61878790696073
 30
0.0
 11
74.309531405152939
 21
15.118787906960501
 31
0.0
  0
LINE
  5
290
  8
0
 62
     0
 10
71.925647928669832
 20
13.61878790696051
 30
0.0
 11
73.425647928669605
 21
15.118787906960501
 31
0.0
  0
LINE
  5
291
  8
0
 62
     0
 10
71.041764452186612
 20
13.61878790696051
 30
0.0
 11
72.541764452186612
 21
15.11878790696073
 31
0.0
  0
LINE
  5
292
  8
0
 62
     0
 10
70.157880975703392
 20
13.61878790696073
 30
0.0
 11
71.657880975703392
 21
15.118787906960501
 31
0.0
  0
LINE
  5
293
  8
0
 62
     0
 10
69.273997499220286
 20
13.61878790696073
 30
0.0
 11
70.773997499220059
 21
15.11878790696073
 31
0.0
  0
LINE
  5
294
  8
0
 62
     0
 10
68.390114022737293
 20
13.61878790696073
 30
0.0
 11
69.890114022737066
 21
15.11878790696073
 31
0.0
  0
LINE
  5
295
  8
0
 62
     0
 10
67.506230546253846
 20
13.61878790696073
 30
0.0
 11
69.006230546253846
 21
15.118787906960501
 31
0.0
  0
LINE
  5
296
  8
0
 62
     0
 10
66.622347069770726
 20
13.61878790696073
 30
0.0
 11
68.122347069770512
 21
15.11878790696073
 31
0.0
  0
LINE
  5
297
  8
0
 62
     0
 10
65.738463593287747
 20
13.61878790696073
 30
0.0
 11
67.23846359328752
 21
15.11878790696073
 31
0.0
  0
LINE
  5
298
  8
0
 62
     0
 10
64.8545801168043
 20
13.61878790696073
 30
0.0
 11
66.3545801168043
 21
15.118787906960501
 31
0.0
  0
LINE
  5
299
  8
0
 62
     0
 10
63.970696640321201
 20
13.61878790696073
 30
0.0
 11
65.470696640321194
 21
15.11878790696073
 31
0.0
  0
LINE
  5
29A
  8
0
 62
     0
 10
63.086813163837967
 20
13.61878790696051
 30
0.0
 11
64.586813163837974
 21
15.118787906960501
 31
0.0
  0
LINE
  5
29B
  8
0
 62
     0
 10
62.202929687354747
 20
13.61878790696051
 30
0.0
 11
63.702929687354747
 21
15.118787906960501
 31
0.0
  0
LINE
  5
29C
  8
0
 62
     0
 10
61.319046210871647
 20
13.61878790696073
 30
0.0
 11
62.81904621087164
 21
15.11878790696073
 31
0.0
  0
LINE
  5
29D
  8
0
 62
     0
 10
60.435162734388427
 20
13.61878790696051
 30
0.0
 11
61.93516273438842
 21
15.118787906960501
 31
0.0
  0
LINE
  5
29E
  8
0
 62
     0
 10
59.5512792579052
 20
13.61878790696051
 30
0.0
 11
61.051279257905207
 21
15.118787906960501
 31
0.0
  0
LINE
  5
29F
  8
0
 62
     0
 10
58.667395781422101
 20
13.61878790696073
 30
0.0
 11
60.167395781422101
 21
15.11878790696073
 31
0.0
  0
LINE
  5
2A0
  8
0
 62
     0
 10
57.783512304938881
 20
13.61878790696051
 30
0.0
 11
59.283512304938881
 21
15.118787906960501
 31
0.0
  0
LINE
  5
2A1
  8
0
 62
     0
 10
56.899628828455661
 20
13.61878790696051
 30
0.0
 11
58.399628828455661
 21
15.118787906960501
 31
0.0
  0
LINE
  5
2A2
  8
0
 62
     0
 10
56.015745351972548
 20
13.61878790696073
 30
0.0
 11
57.515745351972562
 21
15.11878790696073
 31
0.0
  0
LINE
  5
2A3
  8
0
 62
     0
 10
55.131861875489328
 20
13.61878790696051
 30
0.0
 11
56.631861875489342
 21
15.118787906960501
 31
0.0
  0
LINE
  5
2A4
  8
0
 62
     0
 10
54.247978399006122
 20
13.61878790696051
 30
0.0
 11
55.747978399006108
 21
15.118787906960501
 31
0.0
  0
LINE
  5
2A5
  8
0
 62
     0
 10
53.364094922523002
 20
13.61878790696073
 30
0.0
 11
54.864094922523009
 21
15.11878790696073
 31
0.0
  0
LINE
  5
2A6
  8
0
 62
     0
 10
52.480211446039789
 20
13.61878790696051
 30
0.0
 11
53.980211446039789
 21
15.118787906960501
 31
0.0
  0
LINE
  5
2A7
  8
0
 62
     0
 10
51.596327969556569
 20
13.61878790696051
 30
0.0
 11
53.096327969556569
 21
15.118787906960501
 31
0.0
  0
LINE
  5
2A8
  8
0
 62
     0
 10
50.712444493073228
 20
13.61878790696073
 30
0.0
 11
52.212444493073463
 21
15.11878790696073
 31
0.0
  0
LINE
  5
2A9
  8
0
 62
     0
 10
49.828561016590243
 20
13.61878790696051
 30
0.0
 11
51.328561016590243
 21
15.118787906960501
 31
0.0
  0
LINE
  5
2AA
  8
0
 62
     0
 10
48.944677540107023
 20
13.61878790696051
 30
0.0
 11
50.444677540107023
 21
15.118787906960501
 31
0.0
  0
LINE
  5
2AB
  8
0
 62
     0
 10
48.060794063623689
 20
13.61878790696073
 30
0.0
 11
49.560794063623909
 21
15.11878790696073
 31
0.0
  0
LINE
  5
2AC
  8
0
 62
     0
 10
47.176910587140689
 20
13.61878790696051
 30
0.0
 11
48.676910587140689
 21
15.118787906960501
 31
0.0
  0
LINE
  5
2AD
  8
0
 62
     0
 10
46.293027110657469
 20
13.61878790696051
 30
0.0
 11
47.793027110657469
 21
15.118787906960501
 31
0.0
  0
LINE
  5
2AE
  8
0
 62
     0
 10
45.409143634174143
 20
13.61878790696073
 30
0.0
 11
46.909143634174363
 21
15.11878790696073
 31
0.0
  0
LINE
  5
2AF
  8
0
 62
     0
 10
44.52526015769115
 20
13.61878790696051
 30
0.0
 11
46.025260157690923
 21
15.118787906960501
 31
0.0
  0
LINE
  5
2B0
  8
0
 62
     0
 10
43.641376681207923
 20
13.61878790696051
 30
0.0
 11
45.14137668120793
 21
15.118787906960501
 31
0.0
  0
LINE
  5
2B1
  8
0
 62
     0
 10
42.757493204724589
 20
13.61878790696073
 30
0.0
 11
44.257493204724817
 21
15.11878790696073
 31
0.0
  0
LINE
  5
2B2
  8
0
 62
     0
 10
41.873609728241597
 20
13.61878790696051
 30
0.0
 11
43.373609728241377
 21
15.118787906960501
 31
0.0
  0
LINE
  5
2B3
  8
0
 62
     0
 10
40.989726251758377
 20
13.61878790696051
 30
0.0
 11
42.489726251758377
 21
15.118787906960501
 31
0.0
  0
LINE
  5
2B4
  8
0
 62
     0
 10
40.10584277527505
 20
13.61878790696073
 30
0.0
 11
41.605842775275278
 21
15.11878790696073
 31
0.0
  0
LINE
  5
2B5
  8
0
 62
     0
 10
39.221959298791937
 20
13.61878790696051
 30
0.0
 11
40.72195929879171
 21
15.118787906960501
 31
0.0
  0
LINE
  5
2B6
  8
0
 62
     0
 10
38.338075822308838
 20
13.61878790696051
 30
0.0
 11
39.838075822308838
 21
15.118787906960501
 31
0.0
  0
LINE
  5
2B7
  8
0
 62
     0
 10
37.454192345825511
 20
13.61878790696073
 30
0.0
 11
38.954192345825511
 21
15.118787906960501
 31
0.0
  0
LINE
  5
2B8
  8
0
 62
     0
 10
36.570308869342398
 20
13.61878790696073
 30
0.0
 11
38.070308869342171
 21
15.11878790696073
 31
0.0
  0
LINE
  5
2B9
  8
0
 62
     0
 10
35.686425392859292
 20
13.61878790696051
 30
0.0
 11
37.186425392859292
 21
15.11878790696073
 31
0.0
  0
LINE
  5
2BA
  8
0
 62
     0
 10
34.802541916375958
 20
13.61878790696073
 30
0.0
 11
36.302541916375958
 21
15.118787906960501
 31
0.0
  0
LINE
  5
2BB
  8
0
 62
     0
 10
33.918658439892852
 20
13.61878790696073
 30
0.0
 11
35.418658439892617
 21
15.11878790696073
 31
0.0
  0
LINE
  5
2BC
  8
0
 62
     0
 10
33.034774963409738
 20
13.61878790696051
 30
0.0
 11
34.534774963409753
 21
15.11878790696073
 31
0.0
  0
LINE
  5
2BD
  8
0
 62
     0
 10
32.150891486926412
 20
13.61878790696073
 30
0.0
 11
33.650891486926412
 21
15.118787906960501
 31
0.0
  0
LINE
  5
2BE
  8
0
 62
     0
 10
31.267008010443309
 20
13.61878790696073
 30
0.0
 11
32.767008010443078
 21
15.11878790696073
 31
0.0
  0
LINE
  5
2BF
  8
0
 62
     0
 10
30.383124533960199
 20
13.61878790696051
 30
0.0
 11
31.883124533960199
 21
15.11878790696073
 31
0.0
  0
LINE
  5
2C0
  8
0
 62
     0
 10
29.499241057476869
 20
13.61878790696073
 30
0.0
 11
30.999241057476869
 21
15.118787906960501
 31
0.0
  0
LINE
  5
2C1
  8
0
 62
     0
 10
28.615357580993528
 20
13.61878790696051
 30
0.0
 11
30.115357580993528
 21
15.11878790696073
 31
0.0
  0
LINE
  5
2C2
  8
0
 62
     0
 10
27.731474104510649
 20
13.61878790696051
 30
0.0
 11
29.231474104510649
 21
15.11878790696073
 31
0.0
  0
LINE
  5
2C3
  8
0
 62
     0
 10
26.847590628027319
 20
13.61878790696073
 30
0.0
 11
28.347590628027319
 21
15.118787906960501
 31
0.0
  0
LINE
  5
2C4
  8
0
 62
     0
 10
25.963707151543989
 20
13.61878790696051
 30
0.0
 11
27.463707151543989
 21
15.11878790696073
 31
0.0
  0
LINE
  5
2C5
  8
0
 62
     0
 10
25.07982367506111
 20
13.61878790696051
 30
0.0
 11
26.57982367506111
 21
15.118787906960501
 31
0.0
  0
LINE
  5
2C6
  8
0
 62
     0
 10
24.19594019857778
 20
13.61878790696073
 30
0.0
 11
25.69594019857778
 21
15.118787906960501
 31
0.0
  0
LINE
  5
2C7
  8
0
 62
     0
 10
23.312056722094439
 20
13.61878790696051
 30
0.0
 11
24.812056722094439
 21
15.11878790696073
 31
0.0
  0
LINE
  5
2C8
  8
0
 62
     0
 10
22.428173245611561
 20
13.61878790696051
 30
0.0
 11
23.928173245611561
 21
15.118787906960501
 31
0.0
  0
LINE
  5
2C9
  8
0
 62
     0
 10
21.54428976912823
 20
13.61878790696073
 30
0.0
 11
23.04428976912823
 21
15.118787906960501
 31
0.0
  0
LINE
  5
2CA
  8
0
 62
     0
 10
20.66040629264489
 20
13.61878790696051
 30
0.0
 11
22.16040629264489
 21
15.11878790696073
 31
0.0
  0
LINE
  5
2CB
  8
0
 62
     0
 10
19.776522816162011
 20
13.61878790696051
 30
0.0
 11
21.276522816162011
 21
15.118787906960501
 31
0.0
  0
LINE
  5
2CC
  8
0
 62
     0
 10
18.892639339678681
 20
13.61878790696073
 30
0.0
 11
20.392639339678681
 21
15.118787906960501
 31
0.0
  0
LINE
  5
2CD
  8
0
 62
     0
 10
18.00875586319534
 20
13.61878790696051
 30
0.0
 11
19.508755863195351
 21
15.11878790696073
 31
0.0
  0
LINE
  5
2CE
  8
0
 62
     0
 10
17.124872386712472
 20
13.61878790696051
 30
0.0
 11
18.624872386712472
 21
15.118787906960501
 31
0.0
  0
LINE
  5
2CF
  8
0
 62
     0
 10
16.240988910229131
 20
13.61878790696073
 30
0.0
 11
17.740988910229131
 21
15.118787906960501
 31
0.0
  0
LINE
  5
2D0
  8
0
 62
     0
 10
15.35710543374603
 20
13.61878790696073
 30
0.0
 11
16.857105433745801
 21
15.11878790696073
 31
0.0
  0
LINE
  5
2D1
  8
0
 62
     0
 10
14.47322195726292
 20
13.61878790696051
 30
0.0
 11
15.97322195726292
 21
15.118787906960501
 31
0.0
  0
LINE
  5
2D2
  8
0
 62
     0
 10
0.8544338705933114
 20
-0.0000001797088771
 30
0.0
 11
2.665425667990803
 21
1.8109916176883869
 31
0.0
  0
LINE
  5
2D3
  8
0
 62
     0
 10
13.58933848077959
 20
13.61878790696073
 30
0.0
 11
15.08933848077959
 21
15.118787906960501
 31
0.0
  0
LINE
  5
2D4
  8
0
 62
     0
 10
0.0736551921884257
 20
0.1031046183693434
 30
0.0
 11
3.2842031013180981
 21
3.3136525274990158
 31
0.0
  0
LINE
  5
2D5
  8
0
 62
     0
 10
12.70545500429648
 20
13.61878790696073
 30
0.0
 11
14.205455004296249
 21
15.11878790696073
 31
0.0
  0
LINE
  5
2D6
  8
0
 62
     0
 10
0.0000006791328815
 20
0.9133335817971328
 30
0.0
 11
2.4865995042964641
 21
3.399932406960942
 31
0.0
  0
LINE
  5
2D7
  8
0
 62
     0
 10
11.82157152781337
 20
13.61878790696051
 30
0.0
 11
13.32157152781337
 21
15.118787906960501
 31
0.0
  0
LINE
  5
2D8
  8
0
 62
     0
 10
0.0000006791331089
 20
1.7972170582802389
 30
0.0
 11
1.645537097801252
 21
3.4427534769483819
 31
0.0
  0
LINE
  5
2D9
  8
0
 62
     0
 10
10.93768805133004
 20
13.61878790696073
 30
0.0
 11
12.43768805133004
 21
15.118787906960501
 31
0.0
  0
LINE
  5
2DA
  8
0
 62
     0
 10
0.0000006791328815
 20
2.6811005347635719
 30
0.0
 11
1.500000679132881
 21
4.1811005347633454
 31
0.0
  0
LINE
  5
2DB
  8
0
 62
     0
 10
10.05380457484693
 20
13.61878790696073
 30
0.0
 11
11.55380457484671
 21
15.11878790696073
 31
0.0
  0
LINE
  5
2DC
  8
0
 62
     0
 10
0.0000006791328815
 20
3.5649840112466791
 30
0.0
 11
1.5000006791326539
 21
5.0649840112464508
 31
0.0
  0
LINE
  5
2DD
  8
0
 62
     0
 10
9.1699210983638295
 20
13.61878790696051
 30
0.0
 11
10.66992109836383
 21
15.118787906960501
 31
0.0
  0
LINE
  5
2DE
  8
0
 62
     0
 10
0.0000006791331089
 20
4.4488674877297854
 30
0.0
 11
1.500000679132881
 21
5.9488674877295571
 31
0.0
  0
LINE
  5
2DF
  8
0
 62
     0
 10
8.2860376218804959
 20
13.61878790696051
 30
0.0
 11
9.7860376218804959
 21
15.118787906960501
 31
0.0
  0
LINE
  5
2E0
  8
0
 62
     0
 10
0.0000006791331089
 20
5.332750964213119
 30
0.0
 11
1.5000006791326539
 21
6.8327509642126643
 31
0.0
  0
LINE
  5
2E1
  8
0
 62
     0
 10
7.4021541453973887
 20
13.61878790696073
 30
0.0
 11
8.9021541453971622
 21
15.11878790696073
 31
0.0
  0
LINE
  5
2E2
  8
0
 62
     0
 10
0.0000006791328815
 20
6.2166344406962253
 30
0.0
 11
1.5000006791324261
 21
7.716634440695997
 31
0.0
  0
LINE
  5
2E3
  8
0
 62
     0
 10
6.5182706689142833
 20
13.61878790696051
 30
0.0
 11
8.0182706689142833
 21
15.118787906960501
 31
0.0
  0
LINE
  5
2E4
  8
0
 62
     0
 10
0.0000006791331089
 20
7.1005179171793307
 30
0.0
 11
1.5000006791326539
 21
8.6005179171788768
 31
0.0
  0
LINE
  5
2E5
  8
0
 62
     0
 10
5.5800941577244876
 20
13.564494872254039
 30
0.0
 11
7.1343871924309488
 21
15.118787906960501
 31
0.0
  0
LINE
  5
2E6
  8
0
 62
     0
 10
0.0000006791331089
 20
7.9844013936626652
 30
0.0
 11
1.554293713838887
 21
9.5386944283684443
 31
0.0
  0
LINE
  5
2E7
  8
0
 62
     0
 10
4.3256571619699571
 20
13.19394135298284
 30
0.0
 11
6.2503077296271377
 21
15.11859192064003
 31
0.0
  0
LINE
  5
2E8
  8
0
 62
     0
 10
0.0001966654531316
 20
8.8684808564662472
 30
0.0
 11
1.924847233110085
 21
10.79313142412297
 31
0.0
  0
LINE
  5
2E9
  8
0
 62
     0
 10
0.0824352501128942
 20
9.8346029176086631
 30
0.0
 11
5.284185668484497
 21
15.03635333598049
 31
0.0
  0
LINE
  5
2EA
  8
0
 62
     0
 10
0.4049301490138078
 20
11.04098129299291
 30
0.0
 11
4.0778072931002489
 21
14.71385843707958
 31
0.0
  0
ENDBLK
  5
2EC
  8
0
  0
BLOCK
  8
0
  2
*U3
 70
     1
 10
0.0
 20
0.0
 30
0.0
  3
*U3
  1

  0
LINE
  5
2EE
  8
OLÇÜ
 62
     0
 10
84.300000679132594
 20
13.61878790696073
 30
0.0
 11
6.3000006791326078
 21
13.61878790696062
 31
0.0
  0
ARC
  5
2EF
  8
OLÇÜ
 62
     0
 10
84.300000679132594
 20
8.8187879069608925
 30
0.0
 40
4.7999999999999989
 50
0.0
 51
90.0
  0
ARC
  5
2F0
  8
OLÇÜ
 62
     0
 10
6.3000006791323813
 20
8.8187879069607789
 30
0.0
 40
4.7999999999999989
 50
89.999999999997286
 51
179.99999999999861
  0
LINE
  5
2F1
  8
OLÇÜ
 62
     0
 10
89.100000679132563
 20
8.8187879069608925
 30
0.0
 11
89.100000679132563
 21
3.6999324069607828
 31
0.0
  0
LINE
  5
2F2
  8
OLÇÜ
 62
     0
 10
1.5000006791324261
 20
8.8187879069608925
 30
0.0
 11
1.500000679132881
 21
3.6999324069607828
 31
0.0
  0
ARC
  5
2F3
  8
OLÇÜ
 62
     0
 10
88.800000679132609
 20
3.6999324069607828
 30
0.0
 40
0.3
 50
270.0
 51
0.0
  0
ARC
  5
2F4
  8
OLÇÜ
 62
     0
 10
1.800000679132836
 20
3.6999324069607828
 30
0.0
 40
0.3
 50
180.0
 51
270.0
  0
LINE
  5
2F5
  8
OLÇÜ
 62
     0
 10
88.800000679132609
 20
3.3999324069607151
 30
0.0
 11
87.526330226199434
 21
3.3999324069608292
 31
0.0
  0
LINE
  5
2F6
  8
OLÇÜ
 62
     0
 10
1.800000679132836
 20
3.3999324069608292
 30
0.0
 11
3.0736711320660102
 21
3.3999324069607151
 31
0.0
  0
ARC
  5
2F7
  8
OLÇÜ
 62
     0
 10
87.526330226199647
 20
3.0999324069609879
 30
0.0
 40
0.3
 50
90.000000000043414
 51
210.39433851738281
  0
ARC
  5
2F8
  8
OLÇÜ
 62
     0
 10
3.0736711320660102
 20
3.0999324069609879
 30
0.0
 40
0.3
 50
329.60566148259522
 51
90.0
  0
LINE
  5
2F9
  8
OLÇÜ
 62
     0
 10
88.851941410985319
 20
0.2470255526060328
 30
0.0
 11
87.267561126112255
 21
2.9481478463496842
 31
0.0
  0
LINE
  5
2FA
  8
OLÇÜ
 62
     0
 10
1.748059947280125
 20
0.2470255526060328
 30
0.0
 11
3.332440232153203
 21
2.9481478463496842
 31
0.0
  0
ARC
  5
2FB
  8
OLÇÜ
 62
     0
 10
89.283223244464352
 20
0.4999998202912366
 30
0.0
 40
0.5
 50
210.39433851735291
 51
270.0
  0
ARC
  5
2FC
  8
OLÇÜ
 62
     0
 10
1.3167781138008641
 20
0.4999998202913503
 30
0.0
 40
0.5
 50
270.00000000002598
 51
329.60566148264911
  0
LINE
  5
2FD
  8
OLÇÜ
 62
     0
 10
89.283223244464352
 20
-0.0000001797087634
 30
0.0
 11
90.300000679132609
 21
-0.0000001797087634
 31
0.0
  0
LINE
  5
2FE
  8
OLÇÜ
 62
     0
 10
1.3167781138010921
 20
-0.0000001797086497
 30
0.0
 11
0.300000679132836
 21
-0.0000001797088771
 31
0.0
  0
ARC
  5
2FF
  8
OLÇÜ
 62
     0
 10
90.300000679132609
 20
0.2999998202913048
 30
0.0
 40
0.3
 50
270.0
 51
359.99999999997829
  0
ARC
  5
300
  8
OLÇÜ
 62
     0
 10
0.3000006791326086
 20
0.2999998202911911
 30
0.0
 40
0.3
 50
180.0
 51
270.00000000004343
  0
LINE
  5
301
  8
OLÇÜ
 62
     0
 10
90.600000679132549
 20
8.8187879069608925
 30
0.0
 11
90.600000679132549
 21
0.2999998202911911
 31
0.0
  0
LINE
  5
302
  8
OLÇÜ
 62
     0
 10
0.0000006791328815
 20
8.8187879069607789
 30
0.0
 11
0.0000006791328815
 21
0.2999998202911911
 31
0.0
  0
ARC
  5
303
  8
OLÇÜ
 62
     0
 10
84.300000679132594
 20
8.8187879069608925
 30
0.0
 40
6.2999999999999989
 50
0.0000000000000001
 51
90.0
  0
ARC
  5
304
  8
OLÇÜ
 62
     0
 10
6.3000006791326078
 20
8.8187879069607789
 30
0.0
 40
6.2999999999999989
 50
90.0
 51
180.0
  0
LINE
  5
305
  8
OLÇÜ
 62
     0
 10
84.300000679132594
 20
15.11878790696073
 30
0.0
 11
6.3000006791326078
 21
15.11878790696073
 31
0.0
  0
ENDBLK
  5
307
  8
0
  0
ENDSEC
  0
SECTION
  2
ENTITIES
  0
LINE
  5
210
  8
OLÇÜ
 62
     0
 10
1874.956517191355
 20
1702.1937187544299
 30
0.0
 11
1796.956517191355
 21
1702.1937187544299
 31
0.0
  0
ARC
  5
211
  8
OLÇÜ
 62
     0
 10
1874.956517191355
 20
1697.3937187544309
 30
0.0
 40
4.7999999999999989
 50
0.0
 51
90.0
  0
ARC
  5
212
  8
OLÇÜ
 62
     0
 10
1796.956517191355
 20
1697.39371875443
 30
0.0
 40
4.7999999999999989
 50
89.999999999997286
 51
179.9999999999973
  0
LINE
  5
213
  8
OLÇÜ
 62
     0
 10
1879.756517191355
 20
1697.3937187544309
 30
0.0
 11
1879.756517191355
 21
1692.2748632544301
 31
0.0
  0
LINE
  5
214
  8
OLÇÜ
 62
     0
 10
1792.1565171913551
 20
1697.3937187544309
 30
0.0
 11
1792.156517191356
 21
1692.2748632544301
 31
0.0
  0
ARC
  5
215
  8
OLÇÜ
 62
     0
 10
1879.456517191355
 20
1692.2748632544301
 30
0.0
 40
0.3
 50
270.0
 51
0.0
  0
ARC
  5
216
  8
OLÇÜ
 62
     0
 10
1792.4565171913559
 20
1692.2748632544301
 30
0.0
 40
0.3
 50
180.0
 51
270.0
  0
LINE
  5
217
  8
OLÇÜ
 62
     0
 10
1879.456517191355
 20
1691.9748632544299
 30
0.0
 11
1878.1828467384221
 21
1691.9748632544299
 31
0.0
  0
LINE
  5
218
  8
OLÇÜ
 62
     0
 10
1792.4565171913559
 20
1691.9748632544299
 30
0.0
 11
1793.7301876442889
 21
1691.9748632544299
 31
0.0
  0
ARC
  5
219
  8
OLÇÜ
 62
     0
 10
1878.1828467384221
 20
1691.67486325443
 30
0.0
 40
0.3
 50
90.000000000043414
 51
210.39433851738281
  0
ARC
  5
21A
  8
OLÇÜ
 62
     0
 10
1793.7301876442889
 20
1691.67486325443
 30
0.0
 40
0.3
 50
329.60566148259522
 51
90.0
  0
LINE
  5
21B
  8
OLÇÜ
 62
     0
 10
1879.508457923208
 20
1688.8219564000749
 30
0.0
 11
1877.9240776383349
 21
1691.5230786938189
 31
0.0
  0
LINE
  5
21C
  8
OLÇÜ
 62
     0
 10
1792.404576459503
 20
1688.8219564000749
 30
0.0
 11
1793.9889567443761
 21
1691.5230786938189
 31
0.0
  0
ARC
  5
21D
  8
OLÇÜ
 62
     0
 10
1879.939739756687
 20
1689.074930667761
 30
0.0
 40
0.5
 50
210.39433851735291
 51
270.0
  0
ARC
  5
21E
  8
OLÇÜ
 62
     0
 10
1791.9732946260231
 20
1689.074930667761
 30
0.0
 40
0.5
 50
270.00000000002598
 51
329.60566148263791
  0
LINE
  5
21F
  8
OLÇÜ
 62
     0
 10
1879.939739756687
 20
1688.5749306677601
 30
0.0
 11
1880.956517191355
 21
1688.5749306677601
 31
0.0
  0
LINE
  5
220
  8
OLÇÜ
 62
     0
 10
1791.973294626024
 20
1688.574930667761
 30
0.0
 11
1790.956517191355
 21
1688.5749306677601
 31
0.0
  0
ARC
  5
221
  8
OLÇÜ
 62
     0
 10
1880.956517191355
 20
1688.874930667761
 30
0.0
 40
0.3
 50
270.0
 51
0.0
  0
ARC
  5
222
  8
OLÇÜ
 62
     0
 10
1790.956517191355
 20
1688.874930667761
 30
0.0
 40
0.3
 50
180.0
 51
270.00000000004343
  0
LINE
  5
223
  8
OLÇÜ
 62
     0
 10
1881.256517191355
 20
1697.3937187544309
 30
0.0
 11
1881.256517191355
 21
1688.874930667761
 31
0.0
  0
LINE
  5
224
  8
OLÇÜ
 62
     0
 10
1790.656517191356
 20
1697.39371875443
 30
0.0
 11
1790.656517191356
 21
1688.874930667761
 31
0.0
  0
ARC
  5
225
  8
OLÇÜ
 62
     0
 10
1874.956517191355
 20
1697.3937187544309
 30
0.0
 40
6.2999999999999989
 50
0.0000000000000001
 51
90.0
  0
ARC
  5
226
  8
OLÇÜ
 62
     0
 10
1796.956517191355
 20
1697.39371875443
 30
0.0
 40
6.2999999999999989
 50
90.0
 51
180.0
  0
LINE
  5
227
  8
OLÇÜ
 62
     0
 10
1874.956517191355
 20
1703.6937187544299
 30
0.0
 11
1796.956517191355
 21
1703.6937187544299
 31
0.0
  0
ENDSEC
  0
EOF
