  0
SECTION
  2
HEADER
  9
$ACADVER
  1
AC1009
  9
$INSBASE
 10
0.0
 20
0.0
 30
0.0
  9
$EXTMIN
 10
498.29498446813682
 20
296.80513104191652
 30
-0.0015258207003583
  9
$EXTMAX
 10
696.41967903405862
 20
386.4906471579925
 30
0.0000000349246037
  9
$LIMMIN
 10
0.0
 20
0.0
  9
$LIMMAX
 10
420.0
 20
297.0
  9
$ORTHOMODE
 70
     1
  9
$REGENMODE
 70
     1
  9
$FILLMODE
 70
     1
  9
$QTEXTMODE
 70
     0
  9
$MIRRTEXT
 70
     0
  9
$DRAGMODE
 70
     2
  9
$LTSCALE
 40
1.0
  9
$OSMODE
 70
  3071
  9
$ATTMODE
 70
     1
  9
$TEXTSIZE
 40
2.5
  9
$TRACEWID
 40
1.0
  9
$TEXTSTYLE
  7
STANDARD
  9
$CLAYER
  8
0
  9
$CELTYPE
  6
BYLAYER
  9
$CECOLOR
 62
   256
  9
$DIMSCALE
 40
1.0
  9
$DIMASZ
 40
2.5
  9
$DIMEXO
 40
0.625
  9
$DIMDLI
 40
3.75
  9
$DIMRND
 40
0.0
  9
$DIMDLE
 40
0.0
  9
$DIMEXE
 40
1.25
  9
$DIMTP
 40
0.0
  9
$DIMTM
 40
0.0
  9
$DIMTXT
 40
2.5
  9
$DIMCEN
 40
2.5
  9
$DIMTSZ
 40
0.0
  9
$DIMTOL
 70
     0
  9
$DIMLIM
 70
     0
  9
$DIMTIH
 70
     0
  9
$DIMTOH
 70
     0
  9
$DIMSE1
 70
     0
  9
$DIMSE2
 70
     0
  9
$DIMTAD
 70
     1
  9
$DIMZIN
 70
     8
  9
$DIMBLK
  1

  9
$DIMASO
 70
     1
  9
$DIMSHO
 70
     1
  9
$DIMPOST
  1

  9
$DIMAPOST
  1

  9
$DIMALT
 70
     0
  9
$DIMALTD
 70
     3
  9
$DIMALTF
 40
0.03937007874016
  9
$DIMLFAC
 40
1.0
  9
$DIMTOFL
 70
     1
  9
$DIMTVP
 40
0.0
  9
$DIMTIX
 70
     0
  9
$DIMSOXD
 70
     0
  9
$DIMSAH
 70
     0
  9
$DIMBLK1
  1

  9
$DIMBLK2
  1

  9
$DIMSTYLE
  2
ISO-25
  9
$DIMCLRD
 70
     0
  9
$DIMCLRE
 70
     0
  9
$DIMCLRT
 70
     0
  9
$DIMTFAC
 40
1.0
  9
$DIMGAP
 40
0.625
  9
$LUNITS
 70
     2
  9
$LUPREC
 70
     4
  9
$SKETCHINC
 40
1.0
  9
$FILLETRAD
 40
0.0
  9
$AUNITS
 70
     0
  9
$AUPREC
 70
     0
  9
$MENU
  1
.
  9
$ELEVATION
 40
0.0
  9
$PELEVATION
 40
0.0
  9
$THICKNESS
 40
0.0
  9
$LIMCHECK
 70
     0
  9
$BLIPMODE
 70
     0
  9
$CHAMFERA
 40
0.0
  9
$CHAMFERB
 40
0.0
  9
$SKPOLY
 70
     0
  9
$TDCREATE
 40
2455782.4531386341
  9
$TDUPDATE
 40
2455782.453302396
  9
$TDINDWG
 40
0.0001641319
  9
$TDUSRTIMER
 40
0.0001641319
  9
$USRTIMER
 70
     1
  9
$ANGBASE
 50
0.0
  9
$ANGDIR
 70
     0
  9
$PDMODE
 70
     0
  9
$PDSIZE
 40
0.0
  9
$PLINEWID
 40
0.0
  9
$COORDS
 70
     0
  9
$SPLFRAME
 70
     0
  9
$SPLINETYPE
 70
     6
  9
$SPLINESEGS
 70
     8
  9
$ATTDIA
 70
     0
  9
$ATTREQ
 70
     1
  9
$HANDLING
 70
     1
  9
$HANDSEED
  5
19D
  9
$SURFTAB1
 70
     6
  9
$SURFTAB2
 70
     6
  9
$SURFTYPE
 70
     6
  9
$SURFU
 70
     6
  9
$SURFV
 70
     6
  9
$UCSNAME
  2

  9
$UCSORG
 10
0.0
 20
0.0
 30
0.0
  9
$UCSXDIR
 10
1.0
 20
0.0
 30
0.0
  9
$UCSYDIR
 10
0.0
 20
1.0
 30
0.0
  9
$PUCSNAME
  2

  9
$PUCSORG
 10
0.0
 20
0.0
 30
0.0
  9
$PUCSXDIR
 10
1.0
 20
0.0
 30
0.0
  9
$PUCSYDIR
 10
0.0
 20
1.0
 30
0.0
  9
$USERI1
 70
     0
  9
$USERI2
 70
     0
  9
$USERI3
 70
     0
  9
$USERI4
 70
     0
  9
$USERI5
 70
     0
  9
$USERR1
 40
0.0
  9
$USERR2
 40
0.0
  9
$USERR3
 40
0.0
  9
$USERR4
 40
0.0
  9
$USERR5
 40
0.0
  9
$WORLDVIEW
 70
     1
  9
$SHADEDGE
 70
     3
  9
$SHADEDIF
 70
    70
  9
$TILEMODE
 70
     1
  9
$MAXACTVP
 70
    64
  9
$PLIMCHECK
 70
     0
  9
$PEXTMIN
 10
0.0
 20
0.0
 30
0.0
  9
$PEXTMAX
 10
0.0
 20
0.0
 30
0.0
  9
$PLIMMIN
 10
0.0
 20
0.0
  9
$PLIMMAX
 10
12.0
 20
9.0
  9
$UNITMODE
 70
     0
  9
$VISRETAIN
 70
     1
  9
$PLINEGEN
 70
     0
  9
$PSLTSCALE
 70
     1
  0
ENDSEC
  0
SECTION
  2
TABLES
  0
TABLE
  2
VPORT
 70
     2
  0
VPORT
  2
*ACTIVE
 70
     0
 10
0.0
 20
0.0
 11
1.0
 21
1.0
 12
597.35733175109772
 22
341.64788909995451
 13
0.0
 23
0.0
 14
10.0
 24
10.0
 15
10.0
 25
10.0
 16
0.0
 26
0.0
 36
1.0
 17
0.0
 27
0.0
 37
0.0
 40
90.517221056874163
 41
2.2817337461300311
 42
50.0
 43
0.0
 44
0.0
 50
0.0
 51
0.0
 71
     0
 72
  1000
 73
     1
 74
     3
 75
     0
 76
     0
 77
     0
 78
     0
  0
ENDTAB
  0
TABLE
  2
LTYPE
 70
     1
  0
LTYPE
  2
CONTINUOUS
 70
     0
  3
Solid line
 72
    65
 73
     0
 40
0.0
  0
ENDTAB
  0
TABLE
  2
LAYER
 70
     1
  0
LAYER
  2
0
 70
     0
 62
     7
  6
CONTINUOUS
  0
ENDTAB
  0
TABLE
  2
STYLE
 70
     2
  0
STYLE
  2
STANDARD
 70
     0
 40
0.0
 41
1.0
 50
0.0
 71
     0
 42
2.5
  3
txt
  4

  0
STYLE
  2
ROMANT
 70
     0
 40
2.5
 41
1.0
 50
0.0
 71
     0
 42
2.5
  3
romant.shx
  4

  0
ENDTAB
  0
TABLE
  2
VIEW
 70
     0
  0
ENDTAB
  0
TABLE
  2
UCS
 70
     0
  0
ENDTAB
  0
TABLE
  2
APPID
 70
     1
  0
APPID
  2
ACAD
 70
     0
  0
ENDTAB
  0
TABLE
  2
DIMSTYLE
 70
     2
  0
DIMSTYLE
  2
ISO-25
 70
     0
  3

  4

  5

  6

  7

 40
1.0
 41
2.5
 42
0.625
 43
3.75
 44
1.25
 45
0.0
 46
0.0
 47
0.0
 48
0.0
140
2.5
141
2.5
142
0.0
143
0.03937007874016
144
1.0
145
0.0
146
1.0
147
0.625
 71
     0
 72
     0
 73
     0
 74
     0
 75
     0
 76
     0
 77
     1
 78
     8
170
     0
171
     3
172
     1
173
     0
174
     0
175
     0
176
     0
177
     0
178
     0
  0
DIMSTYLE
  2
ISO-25_1_E_1
 70
     0
  3

  4

  5

  6

  7

 40
1.0
 41
1.3
 42
0.0
 43
3.75
 44
0.2
 45
0.0
 46
0.0
 47
0.0
 48
0.0
140
1.0
141
0.2
142
0.0
143
0.03937007874016
144
1.0
145
0.0
146
1.0
147
0.7
 71
     0
 72
     0
 73
     0
 74
     0
 75
     0
 76
     0
 77
     1
 78
     8
170
     0
171
     3
172
     0
173
     0
174
     0
175
     0
176
   242
177
   242
178
   242
  0
ENDTAB
  0
ENDSEC
  0
SECTION
  2
BLOCKS
  0
BLOCK
  8
0
  2
$MODEL_SPACE
 70
     0
 10
0.0
 20
0.0
 30
0.0
  3
$MODEL_SPACE
  1

  0
ENDBLK
  5
21
  8
0
  0
BLOCK
 67
     1
  8
0
  2
$PAPER_SPACE
 70
     0
 10
0.0
 20
0.0
 30
0.0
  3
$PAPER_SPACE
  1

  0
ENDBLK
  5
53
 67
     1
  8
0
  0
BLOCK
  8
0
  2
*X2
 70
     1
 10
0.0
 20
0.0
 30
0.0
  3
*X2
  1

  0
LINE
  5
DF
  8
0
 62
     0
 10
55.568567402785902
 20
0.0520975999165785
 30
0.0
 11
56.197913054836931
 21
0.6814432519674938
 31
0.0
  0
LINE
  5
E0
  8
0
 62
     0
 10
53.271406814166539
 20
0.0000010415645875
 30
0.0
 11
56.250009147659171
 21
2.9786033750572178
 31
0.0
  0
LINE
  5
E1
  8
0
 62
     0
 10
54.250009613189263
 20
3.2236678708546829
 30
0.0
 11
56.250008619435562
 21
5.2236668771008681
 31
0.0
  0
LINE
  5
E2
  8
0
 62
     0
 10
51.026342783899047
 20
0.0000010415644738
 30
0.0
 11
53.026342783899061
 21
2.0000010415644729
 31
0.0
  0
LINE
  5
E3
  8
0
 62
     0
 10
54.250009613189263
 20
5.4687319011218269
 30
0.0
 11
56.250008091211839
 21
7.4687303791445174
 31
0.0
  0
LINE
  5
E4
  8
0
 62
     0
 10
49.950006561431451
 20
1.168728849364129
 30
0.0
 11
51.950006561431451
 21
3.168728849364129
 31
0.0
  0
LINE
  5
E5
  8
0
 62
     0
 10
54.250009613189263
 20
7.7137959313891988
 30
0.0
 11
56.250007562988351
 21
9.7137938811881668
 31
0.0
  0
LINE
  5
E6
  8
0
 62
     0
 10
49.950006561431557
 20
3.4137928796313868
 30
0.0
 11
51.84402664118408
 21
5.3078129593840231
 31
0.0
  0
LINE
  5
E7
  8
0
 62
     0
 10
54.250009613189263
 20
9.9588599616563442
 30
0.0
 11
56.250007034764621
 21
11.958857383231811
 31
0.0
  0
LINE
  5
E8
  8
0
 62
     0
 10
54.250009613189263
 20
12.203923991923711
 30
0.0
 11
56.250006506541013
 21
14.20392088527535
 31
0.0
  0
LINE
  5
E9
  8
0
 62
     0
 10
54.088468105348049
 20
14.28744651434965
 30
0.0
 11
56.25000597831729
 21
16.448984387319001
 31
0.0
  0
LINE
  5
EA
  8
0
 62
     0
 10
52.934998361113117
 20
15.37904080038208
 30
0.0
 11
56.250005450093788
 21
18.69404788936265
 31
0.0
  0
LINE
  5
EB
  8
0
 62
     0
 10
50.810894572028133
 20
15.500001041564589
 30
0.0
 11
56.250004921869959
 21
20.93911139140641
 31
0.0
  0
LINE
  5
EC
  8
0
 62
     0
 10
48.565830541760761
 20
15.50000104156447
 30
0.0
 11
56.250004393646464
 21
23.18417489345018
 31
0.0
  0
LINE
  5
ED
  8
0
 62
     0
 10
46.320766511493609
 20
15.500001041564589
 30
0.0
 11
56.250003865422741
 21
25.429238395493709
 31
0.0
  0
LINE
  5
EE
  8
0
 62
     0
 10
44.075702481226237
 20
15.50000104156447
 30
0.0
 11
56.250003337199132
 21
27.674301897537251
 31
0.0
  0
LINE
  5
EF
  8
0
 62
     0
 10
50.492286768776808
 20
24.161649359382299
 30
0.0
 11
56.25000280897541
 21
29.919365399580901
 31
0.0
  0
LINE
  5
F0
  8
0
 62
     0
 10
41.830638450958979
 20
15.50000104156436
 30
0.0
 11
48.083753045375602
 21
21.753115635981089
 31
0.0
  0
LINE
  5
F1
  8
0
 62
     0
 10
53.049002825635618
 20
28.963429446508261
 30
0.0
 11
56.250002280751907
 21
32.164428901624547
 31
0.0
  0
LINE
  5
F2
  8
0
 62
     0
 10
39.585574420691728
 20
15.50000104156447
 30
0.0
 11
43.281972958249632
 21
19.196399579122271
 31
0.0
  0
LINE
  5
F3
  8
0
 62
     0
 10
53.655596899200297
 20
31.815087550340198
 30
0.0
 11
56.323477329860232
 21
34.482967981000122
 31
0.0
  0
LINE
  5
F4
  8
0
 62
     0
 10
37.34051039042447
 20
15.50000104156436
 30
0.0
 11
40.430314854417581
 21
18.589805505557589
 31
0.0
  0
LINE
  5
F5
  8
0
 62
     0
 10
53.788442032573471
 20
34.192996713980847
 30
0.0
 11
56.539383043897367
 21
36.94393772530475
 31
0.0
  0
LINE
  5
F6
  8
0
 62
     0
 10
35.095446360157212
 20
15.500001041564589
 30
0.0
 11
38.076802500542271
 21
18.481357181949651
 31
0.0
  0
LINE
  5
F7
  8
0
 62
     0
 10
54.004347333320418
 20
36.653966044995059
 30
0.0
 11
56.755288757934743
 21
39.404907469609377
 31
0.0
  0
LINE
  5
F8
  8
0
 62
     0
 10
32.85038232988984
 20
15.50000104156447
 30
0.0
 11
35.791854446174398
 21
18.441473157849028
 31
0.0
  0
LINE
  5
F9
  8
0
 62
     0
 10
54.220252634067371
 20
39.114935376009377
 30
0.0
 11
56.971194471972133
 21
41.865877213914018
 31
0.0
  0
LINE
  5
FA
  8
0
 62
     0
 10
30.605318299622581
 20
15.500001041564589
 30
0.0
 11
33.506906391806183
 21
18.401589133748189
 31
0.0
  0
LINE
  5
FB
  8
0
 62
     0
 10
54.436157934814453
 20
41.575904707023589
 30
0.0
 11
57.187100186009502
 21
44.326846958218759
 31
0.0
  0
LINE
  5
FC
  8
0
 62
     0
 10
28.36025426935533
 20
15.50000104156447
 30
0.0
 11
31.221958337438199
 21
18.36170510964746
 31
0.0
  0
LINE
  5
FD
  8
0
 62
     0
 10
54.6520632355614
 20
44.036874038037922
 30
0.0
 11
57.403005900046878
 21
46.787816702523401
 31
0.0
  0
LINE
  5
FE
  8
0
 62
     0
 10
26.115190239087951
 20
15.50000104156447
 30
0.0
 11
28.937010283070212
 21
18.321821085546731
 31
0.0
  0
LINE
  5
FF
  8
0
 62
     0
 10
54.867968536308581
 20
46.497843369052362
 30
0.0
 11
57.618911614084482
 21
49.248786446828149
 31
0.0
  0
LINE
  5
100
  8
0
 62
     0
 10
23.870126208820579
 20
15.50000104156436
 30
0.0
 11
26.652062228702221
 21
18.281937061446001
 31
0.0
  0
LINE
  5
101
  8
0
 62
     0
 10
55.083873837055648
 20
48.958812700066581
 30
0.0
 11
57.83481732812163
 21
51.709756191132669
 31
0.0
  0
LINE
  5
102
  8
0
 62
     0
 10
21.625062178553438
 20
15.50000104156447
 30
0.0
 11
24.36711417433424
 21
18.242053037345158
 31
0.0
  0
LINE
  5
103
  8
0
 62
     0
 10
55.299779137802602
 20
51.419782031080899
 30
0.0
 11
58.050723042159007
 21
54.170725935437297
 31
0.0
  0
LINE
  5
104
  8
0
 62
     0
 10
19.379998148286059
 20
15.50000104156436
 30
0.0
 11
22.082166119966249
 21
18.202169013244429
 31
0.0
  0
LINE
  5
105
  8
0
 62
     0
 10
55.51568443854967
 20
53.880751362095218
 30
0.0
 11
58.266628756196504
 21
56.631695679742052
 31
0.0
  0
LINE
  5
106
  8
0
 62
     0
 10
17.134934118018919
 20
15.500001041564589
 30
0.0
 11
19.797218065598031
 21
18.1622849891437
 31
0.0
  0
LINE
  5
107
  8
0
 62
     0
 10
55.731589739296737
 20
56.341720693109671
 30
0.0
 11
58.482534470233873
 21
59.092665424046913
 31
0.0
  0
LINE
  5
108
  8
0
 62
     0
 10
14.889870087751429
 20
15.50000104156447
 30
0.0
 11
17.51227001122993
 21
18.122400965042971
 31
0.0
  0
LINE
  5
109
  8
0
 62
     0
 10
55.947495040043577
 20
58.802690024123869
 30
0.0
 11
58.698440184271128
 21
61.553635168351427
 31
0.0
  0
LINE
  5
10A
  8
0
 62
     0
 10
12.64480605748429
 20
15.500001041564589
 30
0.0
 11
15.227321956862051
 21
18.082516940942352
 31
0.0
  0
LINE
  5
10B
  8
0
 62
     0
 10
56.163400340790872
 20
61.263659355138429
 30
0.0
 11
58.914345898308511
 21
64.014604912656068
 31
0.0
  0
LINE
  5
10C
  8
0
 62
     0
 10
10.399742027216909
 20
15.50000104156447
 30
0.0
 11
12.94237390249407
 21
18.042632916841619
 31
0.0
  0
LINE
  5
10D
  8
0
 62
     0
 10
56.37930564153794
 20
63.724628686152641
 30
0.0
 11
59.130251612345887
 21
66.475574656960703
 31
0.0
  0
LINE
  5
10E
  8
0
 62
     0
 10
8.1546779969496583
 20
15.50000104156436
 30
0.0
 11
10.65742584812596
 21
18.002748892740669
 31
0.0
  0
LINE
  5
10F
  8
0
 62
     0
 10
56.595210942284893
 20
66.185598017166953
 30
0.0
 11
59.346157326383263
 21
68.936544401265337
 31
0.0
  0
LINE
  5
110
  8
0
 62
     0
 10
5.9096139666822856
 20
15.50000104156436
 30
0.0
 11
8.4096139666824001
 21
18.00000104156447
 31
0.0
  0
LINE
  5
111
  8
0
 62
     0
 10
56.811116243031961
 20
68.646567348181179
 30
0.0
 11
59.562063040420639
 21
71.397514145569971
 31
0.0
  0
LINE
  5
112
  8
0
 62
     0
 10
3.664549936415141
 20
15.50000104156436
 30
0.0
 11
6.1645499364150282
 21
18.00000104156436
 31
0.0
  0
LINE
  5
113
  8
0
 62
     0
 10
57.027021543779142
 20
71.107536679195732
 30
0.0
 11
59.777968754457902
 21
73.858483889874606
 31
0.0
  0
LINE
  5
114
  8
0
 62
     0
 10
1.41948590614777
 20
15.50000104156447
 30
0.0
 11
3.9194859061478828
 21
18.000001041564591
 31
0.0
  0
LINE
  5
115
  8
0
 62
     0
 10
57.242926844525982
 20
73.568506010210044
 30
0.0
 11
59.993874468495392
 21
76.319453634179354
 31
0.0
  0
LINE
  5
116
  8
0
 62
     0
 10
0.0000019837946184
 20
16.32558114947858
 30
0.0
 11
1.6744218758806251
 21
18.000001041564591
 31
0.0
  0
LINE
  5
117
  8
0
 62
     0
 10
57.45883214527305
 20
76.02947534122427
 30
0.0
 11
60.20978018253254
 21
78.780423378483874
 31
0.0
  0
LINE
  5
118
  8
0
 62
     0
 10
57.674737446020004
 20
78.490444672238596
 30
0.0
 11
60.425685896570137
 21
81.241393122788736
 31
0.0
  0
LINE
  5
119
  8
0
 62
     0
 10
57.890642746767071
 20
80.951414003252793
 30
0.0
 11
60.641591610607399
 21
83.702362867093143
 31
0.0
  0
LINE
  5
11A
  8
0
 62
     0
 10
58.106548047514252
 20
83.412383334267247
 30
0.0
 11
60.857497324644889
 21
86.163332611398005
 31
0.0
  0
LINE
  5
11B
  8
0
 62
     0
 10
58.32245334826144
 20
85.873352665281686
 30
0.0
 11
61.073403038682159
 21
88.624302355702525
 31
0.0
  0
LINE
  5
11C
  8
0
 62
     0
 10
58.538358649008387
 20
88.334321996296126
 30
0.0
 11
61.289308752719542
 21
91.085272100007273
 31
0.0
  0
LINE
  5
11D
  8
0
 62
     0
 10
58.754263949755227
 20
90.795291327310224
 30
0.0
 11
61.505214466756911
 21
93.546241844311908
 31
0.0
  0
LINE
  5
11E
  8
0
 62
     0
 10
58.970169250502408
 20
93.256260658324663
 30
0.0
 11
61.721120180794507
 21
96.007211588616656
 31
0.0
  0
LINE
  5
11F
  8
0
 62
     0
 10
59.186074551249483
 20
95.717229989338875
 30
0.0
 11
61.93702589483177
 21
98.468181332921176
 31
0.0
  0
LINE
  5
120
  8
0
 62
     0
 10
59.401979851996543
 20
98.178199320353315
 30
0.0
 11
62.152931608869153
 21
100.929151077226
 31
0.0
  0
LINE
  5
121
  8
0
 62
     0
 10
59.61788515274349
 20
100.6391686513676
 30
0.0
 11
62.368837322906423
 21
103.3901208215304
 31
0.0
  0
LINE
  5
122
  8
0
 62
     0
 10
59.801467245965789
 20
103.0678147748571
 30
0.0
 11
62.584743036943792
 21
105.85109056583519
 31
0.0
  0
LINE
  5
123
  8
0
 62
     0
 10
58.997001115004082
 20
104.5084126741626
 30
0.0
 11
62.715666635426139
 21
108.22707819458481
 31
0.0
  0
LINE
  5
124
  8
0
 62
     0
 10
60.227384785647359
 20
107.98386037507341
 30
0.0
 11
62.535049398066349
 21
110.2915249874922
 31
0.0
  0
LINE
  5
125
  8
0
 62
     0
 10
57.087945088938113
 20
104.844420678364
 30
0.0
 11
59.288065270140237
 21
107.0445408595662
 31
0.0
  0
LINE
  5
126
  8
0
 62
     0
 10
60.046769235587128
 20
110.0483088552804
 30
0.0
 11
62.354432160706772
 21
112.3559717803999
 31
0.0
  0
LINE
  5
127
  8
0
 62
     0
 10
56.092903693910323
 20
106.09444331360361
 30
0.0
 11
58.05440394380809
 21
108.0559435635014
 31
0.0
  0
LINE
  5
128
  8
0
 62
     0
 10
59.866153685526683
 20
112.1127573354873
 30
0.0
 11
62.173814923346981
 21
114.4204185733076
 31
0.0
  0
LINE
  5
129
  8
0
 62
     0
 10
55.912288760670322
 20
108.158892410631
 30
0.0
 11
57.777763177014442
 21
110.024366826975
 31
0.0
  0
LINE
  5
12A
  8
0
 62
     0
 10
59.685538135466338
 20
114.17720581569419
 30
0.0
 11
61.993197685987298
 21
116.4848653662152
 31
0.0
  0
LINE
  5
12B
  8
0
 62
     0
 10
59.504922585406007
 20
116.2416542959012
 30
0.0
 11
61.81258044862772
 21
118.54931215912291
 31
0.0
  0
LINE
  5
12C
  8
0
 62
     0
 10
59.324307035345669
 20
118.3061027761081
 30
0.0
 11
61.631963211268037
 21
120.6137589520303
 31
0.0
  0
LINE
  5
12D
  8
0
 62
     0
 10
59.143691485285331
 20
120.3705512563151
 30
0.0
 11
62.164430945414779
 21
123.3912907164446
 31
0.0
  0
LINE
  5
12E
  8
0
 62
     0
 10
59.296441347593493
 20
122.7683651488904
 30
0.0
 11
72.876181969582035
 21
136.3481057708791
 31
0.0
  0
LINE
  5
12F
  8
0
 62
     0
 10
64.301335591150163
 20
130.0183234227145
 30
0.0
 11
80.983428335005556
 21
146.70041616656971
 31
0.0
  0
LINE
  5
130
  8
0
 62
     0
 10
73.178571326674501
 20
141.14062318850611
 30
0.0
 11
82.008992281607107
 21
149.9710441434386
 31
0.0
  0
LINE
  5
131
  8
0
 62
     0
 10
72.573138130635357
 20
142.7802540227342
 30
0.0
 11
82.200014190826323
 21
152.40713008292499
 31
0.0
  0
LINE
  5
132
  8
0
 62
     0
 10
79.37375270397672
 20
151.82593262634279
 30
0.0
 11
82.200014190826195
 21
154.65219411319231
 31
0.0
  0
LINE
  5
133
  8
0
 62
     0
 10
70.864423757879536
 20
143.31660368024569
 30
0.0
 11
74.180280726164824
 21
146.63246064853089
 31
0.0
  0
LINE
  5
134
  8
0
 62
     0
 10
80.154345971714179
 20
154.85158992434751
 30
0.0
 11
82.200014190826195
 21
156.89725814345951
 31
0.0
  0
LINE
  5
135
  8
0
 62
     0
 10
68.404107694770573
 20
143.10135164740399
 30
0.0
 11
71.154623428160221
 21
145.85186738079361
 31
0.0
  0
LINE
  5
136
  8
0
 62
     0
 10
80.200014190826209
 20
157.1423221737268
 30
0.0
 11
82.200014190826195
 21
159.1423221737268
 31
0.0
  0
LINE
  5
137
  8
0
 62
     0
 10
65.943791631661838
 20
142.88609961456251
 30
0.0
 11
68.693930816460011
 21
145.63623879936071
 31
0.0
  0
LINE
  5
138
  8
0
 62
     0
 10
80.200014190826209
 20
159.38738620399411
 30
0.0
 11
82.200014190826195
 21
161.38738620399411
 31
0.0
  0
LINE
  5
139
  8
0
 62
     0
 10
63.483475568553217
 20
142.67084758172109
 30
0.0
 11
66.233620907566092
 21
145.42099292073391
 31
0.0
  0
LINE
  5
13A
  8
0
 62
     0
 10
80.200014190826096
 20
161.63245023426131
 30
0.0
 11
82.200014190826096
 21
163.63245023426131
 31
0.0
  0
LINE
  5
13B
  8
0
 62
     0
 10
61.023159505444262
 20
142.45559554887959
 30
0.0
 11
63.773310998671718
 21
145.20574704210691
 31
0.0
  0
LINE
  5
13C
  8
0
 62
     0
 10
80.200014190826096
 20
163.8775142645286
 30
0.0
 11
82.200014190826323
 21
165.8775142645288
 31
0.0
  0
LINE
  5
13D
  8
0
 62
     0
 10
58.56284344233552
 20
142.240343516038
 30
0.0
 11
61.313001089777337
 21
144.99050116347991
 31
0.0
  0
LINE
  5
13E
  8
0
 62
     0
 10
80.200014190826096
 20
166.12257829479589
 30
0.0
 11
82.200014190826096
 21
168.122578294796
 31
0.0
  0
LINE
  5
13F
  8
0
 62
     0
 10
56.102527379226672
 20
142.0250914831966
 30
0.0
 11
58.852691180883312
 21
144.77525528485319
 31
0.0
  0
LINE
  5
140
  8
0
 62
     0
 10
80.200014190826096
 20
168.3676423250632
 30
0.0
 11
82.200014190826096
 21
170.3676423250632
 31
0.0
  0
LINE
  5
141
  8
0
 62
     0
 10
53.642211316117702
 20
141.8098394503549
 30
0.0
 11
56.392381271989159
 21
144.5600094062263
 31
0.0
  0
LINE
  5
142
  8
0
 62
     0
 10
80.200014190826096
 20
170.61270635533049
 30
0.0
 11
82.200014190825868
 21
172.6127063553304
 31
0.0
  0
LINE
  5
143
  8
0
 62
     0
 10
51.187379446974212
 20
141.60007161147871
 30
0.0
 11
53.932071363095133
 21
144.34476352759961
 31
0.0
  0
LINE
  5
144
  8
0
 62
     0
 10
53.827913817631952
 20
146.4856700124036
 30
0.0
 11
55.252600625330267
 21
147.9103568201019
 31
0.0
  0
LINE
  5
145
  8
0
 62
     0
 10
80.200014190826096
 20
172.857770385598
 30
0.0
 11
82.200014190825868
 21
174.85777038559749
 31
0.0
  0
LINE
  5
146
  8
0
 62
     0
 10
50.175756605749939
 20
142.8335128005217
 30
0.0
 11
52.944945779111549
 21
145.60270197388331
 31
0.0
  0
LINE
  5
147
  8
0
 62
     0
 10
80.200014190825868
 20
175.10283441586509
 30
0.0
 11
82.200014190825868
 21
177.10283441586509
 31
0.0
  0
LINE
  5
148
  8
0
 62
     0
 10
49.995142652617012
 20
144.89796287765611
 30
0.0
 11
54.15421702571404
 21
149.05703725075301
 31
0.0
  0
LINE
  5
149
  8
0
 62
     0
 10
80.200014190826096
 20
177.3478984461324
 30
0.0
 11
82.200014190826096
 21
179.34789844613229
 31
0.0
  0
LINE
  5
14A
  8
0
 62
     0
 10
49.814528699483837
 20
146.96241295479021
 30
0.0
 11
51.7691319332232
 21
148.91701618852949
 31
0.0
  0
LINE
  5
14B
  8
0
 62
     0
 10
80.200014190825868
 20
179.59296247639961
 30
0.0
 11
82.200014190826096
 21
181.59296247639961
 31
0.0
  0
LINE
  5
14C
  8
0
 62
     0
 10
80.200014190826096
 20
181.83802650666689
 30
0.0
 11
82.200014190826096
 21
183.83802650666689
 31
0.0
  0
LINE
  5
14D
  8
0
 62
     0
 10
87.480357703646177
 20
191.3634340497544
 30
0.0
 11
88.944452760985996
 21
192.82752910709399
 31
0.0
  0
LINE
  5
14E
  8
0
 62
     0
 10
80.200014190825868
 20
184.08309053693409
 30
0.0
 11
82.200014190825868
 21
186.08309053693409
 31
0.0
  0
LINE
  5
14F
  8
0
 62
     0
 10
86.658606481333777
 20
192.7867468577092
 30
0.0
 11
88.122705589785596
 21
194.25084596616099
 31
0.0
  0
LINE
  5
150
  8
0
 62
     0
 10
80.200014190825982
 20
186.32815456720141
 30
0.0
 11
82.200014190825968
 21
188.32815456720141
 31
0.0
  0
LINE
  5
151
  8
0
 62
     0
 10
85.830369461449763
 20
194.20357386809241
 30
0.0
 11
87.254547761130297
 21
195.627752167773
 31
0.0
  0
LINE
  5
152
  8
0
 62
     0
 10
80.200014190825982
 20
188.57321859746861
 30
0.0
 11
82.200014190825968
 21
190.57321859746861
 31
0.0
  0
LINE
  5
153
  8
0
 62
     0
 10
84.415266259008717
 20
195.0335346959186
 30
0.0
 11
85.999338156887575
 21
196.61760659379749
 31
0.0
  0
LINE
  5
154
  8
0
 62
     0
 10
80.200014190825982
 20
190.8182826277359
 30
0.0
 11
82.200014190825968
 21
192.8182826277359
 31
0.0
  0
LINE
  5
155
  8
0
 62
     0
 10
80.200055761967974
 20
193.06338822914509
 30
0.0
 11
84.181777760081204
 21
197.04511022725839
 31
0.0
  0
ENDBLK
  5
157
  8
0
  0
BLOCK
  8
0
  2
*U3
 70
     1
 10
0.0
 20
0.0
 30
0.0
  3
*U3
  1

  0
ARC
  5
159
  8
0
 10
0.3000019837945729
 20
15.80000104156443
 30
0.0
 40
0.3
 50
180.0
 51
270.0
  0
LINE
  5
15A
  8
0
 10
52.2500095257667
 20
15.50000104156441
 30
0.0
 11
0.3000019837945729
 21
15.50000104156441
 31
0.0
  0
LINE
  5
15B
  8
0
 10
0.0000019837946184
 20
15.80000104156443
 30
0.0
 11
0.0000019837948457
 21
17.000000954141619
 31
0.0
  0
ARC
  5
15C
  8
0
 10
52.25000961318937
 20
13.50000104156442
 30
0.0
 40
2.0
 50
0.0
 51
90.000002504475205
  0
ARC
  5
15D
  8
0
 10
1.0000019837948451
 20
17.00000104156442
 30
0.0
 40
1.0000000000000031
 50
90.000002504481714
 51
180.00000500895689
  0
LINE
  5
15E
  8
0
 10
54.250009613189377
 20
2.000001041564416
 30
0.0
 11
54.250009613189377
 21
13.50000104156442
 31
0.0
  0
LINE
  5
15F
  8
0
 10
1.000001940083393
 20
18.00000104156442
 30
0.0
 11
10.50000198379484
 21
18.00000104156442
 31
0.0
  0
LINE
  5
160
  8
0
 10
51.950006561431557
 20
2.000001041564416
 30
0.0
 11
54.250009613189377
 21
2.000001041564416
 31
0.0
  0
LINE
  5
161
  8
0
 10
10.50000198379484
 20
18.00000104156442
 30
0.0
 11
39.011787730044489
 21
18.497677453807
 31
0.0
  0
LINE
  5
162
  8
0
 10
51.950006561431557
 20
5.000001041564416
 30
0.0
 11
51.950006561431557
 21
2.000001041564416
 31
0.0
  0
ARC
  5
163
  8
0
 10
38.749996385495479
 20
33.495406019262361
 30
0.0
 40
15.00001322769938
 50
271.0000191669447
 51
359.99994983951888
  0
ARC
  5
164
  8
0
 10
51.450006561431572
 20
5.0000010415644729
 30
0.0
 40
0.4999999999999436
 50
359.99999999999352
 51
90.000002504468725
  0
LINE
  5
165
  8
0
 10
53.75000961318915
 20
33.495392887267542
 30
0.0
 11
53.750009613189377
 21
33.754929630431612
 31
0.0
  0
LINE
  5
166
  8
0
 10
50.450006539575952
 20
5.5000010415643601
 30
0.0
 11
51.450006539575952
 21
5.500001041564416
 31
0.0
  0
LINE
  5
167
  8
0
 10
53.750009613189377
 20
33.754929630431612
 30
0.0
 11
59.800881966443058
 21
102.7250347446481
 31
0.0
  0
ARC
  5
168
  8
0
 10
50.450006561431557
 20
5.0000010415643601
 30
0.0
 40
0.5000000000000019
 50
90.000002504468682
 51
180.00000500895041
  0
ARC
  5
169
  8
0
 10
57.808534698638603
 20
102.899827091369
 30
0.0
 40
2.0000000000000289
 50
354.98617157370762
 51
95.000001505250935
  0
LINE
  5
16A
  8
0
 10
49.950006561431557
 20
1.0000009541416259
 30
0.0
 11
49.950006561431557
 21
5.0000009978530207
 31
0.0
  0
LINE
  5
16B
  8
0
 10
57.634223160800047
 20
104.8922164829731
 30
0.0
 11
56.507853856313879
 21
104.79366644048029
 31
0.0
  0
ARC
  5
16C
  8
0
 10
50.950006561431557
 20
1.000001041564416
 30
0.0
 40
1.0
 50
180.00000500895689
 51
269.99999749551819
  0
ARC
  5
16D
  8
0
 10
56.481705685949009
 20
105.09252472326089
 30
0.0
 40
0.3
 50
184.99997358167951
 51
275.0002775159769
  0
LINE
  5
16E
  8
0
 10
55.250009569477918
 20
0.0000010415644169
 30
0.0
 11
50.950006517720112
 21
0.0000010415644169
 31
0.0
  0
LINE
  5
16F
  8
0
 10
56.182847264465643
 20
105.0663781382363
 30
0.0
 11
55.755785643342961
 21
109.9477407270596
 31
0.0
  0
ARC
  5
170
  8
0
 10
55.25000961318937
 20
1.000001041564416
 30
0.0
 40
1.0
 50
269.99999749551819
 51
0.0
  0
ARC
  5
171
  8
0
 10
56.054644064826327
 20
109.9738873120843
 30
0.0
 40
0.3
 50
95.000130201850965
 51
184.99997358167951
  0
LINE
  5
172
  8
0
 10
56.250001983794853
 20
33.426560052692651
 30
0.0
 11
56.250009613189377
 21
1.000001041564416
 31
0.0
  0
LINE
  5
173
  8
0
 10
56.028496662861009
 20
110.2727456620939
 30
0.0
 11
57.438425557447772
 21
110.3961016852667
 31
0.0
  0
ARC
  5
174
  8
0
 10
61.250001983795073
 20
33.426560489806718
 30
0.0
 40
5.0000000000001332
 50
174.98616804492849
 51
180.0000050089582
  0
ARC
  5
175
  8
0
 10
57.46457295941309
 20
110.0972433352571
 30
0.0
 40
0.3
 50
7.99991203691064
 51
95.000130201850965
  0
LINE
  5
176
  8
0
 10
62.716092016098848
 20
107.3482527187072
 30
0.0
 11
56.269133841196883
 21
33.86354166337486
 31
0.0
  0
LINE
  5
177
  8
0
 10
57.761653444134701
 20
110.13899480945361
 30
0.0
 11
58.209802704009689
 21
106.95021161285339
 31
0.0
  0
ARC
  5
178
  8
0
 10
57.73522384658758
 20
107.7852335855099
 30
0.0
 40
5.0000000000002132
 50
354.98617157370421
 51
4.999999854545214
  0
LINE
  5
179
  8
0
 10
58.209802704009689
 20
106.95021161285339
 30
0.0
 11
60.301805572662033
 21
107.1332255288691
 31
0.0
  0
LINE
  5
17A
  8
0
 10
61.627548955451623
 20
120.6642136948704
 30
0.0
 11
62.716197338152817
 21
108.2210122866032
 31
0.0
  0
LINE
  5
17B
  8
0
 10
60.301805572662033
 20
107.1332255288691
 30
0.0
 11
59.137062187374113
 21
120.44632459916011
 31
0.0
  0
ARC
  5
17C
  8
0
 10
66.608522491607104
 20
121.09999188629099
 30
0.0
 40
4.999999999999913
 50
139.9999993423931
 51
184.99999399181701
  0
ARC
  5
17D
  8
0
 10
66.608522491607346
 20
121.09999188629099
 30
0.0
 40
7.499999999999984
 50
139.99999934239489
 51
184.99999399181749
  0
LINE
  5
17E
  8
0
 10
79.158591623010352
 20
143.83518323310139
 30
0.0
 11
62.778300312900001
 21
124.3139299786846
 31
0.0
  0
LINE
  5
17F
  8
0
 10
60.863189223546442
 20
125.92089902488129
 30
0.0
 11
72.720353758968713
 21
140.05172129421371
 31
0.0
  0
ARC
  5
180
  8
0
 10
69.200014190826323
 20
152.19142255035351
 30
0.0
 40
12.999999999999879
 50
319.99999774853421
 51
0.0
  0
ARC
  5
181
  8
0
 10
71.188264923247743
 20
141.33729657379101
 30
0.0
 40
2.0000000000001861
 50
319.99999774853927
 51
95.000001505244228
  0
LINE
  5
182
  8
0
 10
82.200014190826096
 20
193.04515197324599
 30
0.0
 11
82.200014190826323
 21
152.19142255035351
 31
0.0
  0
LINE
  5
183
  8
0
 10
71.013953385409422
 20
143.32968596539521
 30
0.0
 11
51.287162362016488
 21
141.60379719325931
 31
0.0
  0
ARC
  5
184
  8
0
 10
84.200014190826096
 20
193.04515179840041
 30
0.0
 40
2.0000000000000751
 50
30.00000083482448
 51
179.999994991043
  0
ARC
  5
185
  8
0
 10
51.20000656143133
 20
142.59999188629089
 30
0.0
 40
0.9999999999999729
 50
184.99999399181061
 51
275.00000332650262
  0
LINE
  5
186
  8
0
 10
87.582064977085793
 20
191.18727213965551
 30
0.0
 11
85.932064983824603
 21
194.04515182363721
 31
0.0
  0
LINE
  5
187
  8
0
 10
50.203811854200239
 20
142.51283624800689
 30
0.0
 11
49.799118711502388
 21
147.1385518982396
 31
0.0
  0
ARC
  5
188
  8
0
 10
88.015077667388823
 20
191.43727215972851
 30
0.0
 40
0.4999999999999019
 50
210.00000265604041
 51
299.99999833033252
  0
ARC
  5
189
  8
0
 10
51.393030243072189
 20
147.2780009194941
 30
0.0
 40
1.6000000000000141
 50
95.000001505252612
 51
184.9999939918161
  0
LINE
  5
18A
  8
0
 10
89.131090228012454
 20
191.50425945055119
 30
0.0
 11
88.265077654770266
 21
191.0042594505511
 31
0.0
  0
LINE
  5
18B
  8
0
 10
51.253581012801313
 20
148.87191243277741
 30
0.0
 11
53.958319785699807
 21
149.10854061469581
 31
0.0
  0
ARC
  5
18C
  8
0
 10
88.881090240630783
 20
191.93727215972851
 30
0.0
 40
0.4999999999999062
 50
299.99999833036162
 51
30.000000834828182
  0
ARC
  5
18D
  8
0
 10
53.984465872688133
 20
148.80968214964039
 30
0.0
 40
0.3
 50
50.000364900724868
 51
94.999878100419082
  0
LINE
  5
18E
  8
0
 10
87.664115776822655
 20
195.0451518488737
 30
0.0
 11
89.314102938880296
 21
192.1872721660377
 31
0.0
  0
LINE
  5
18F
  8
0
 10
54.177300691973642
 20
149.03949671069159
 30
0.0
 11
55.135986836928403
 21
148.23507392447539
 31
0.0
  0
ARC
  5
190
  8
0
 10
84.200014190825854
 20
193.04515179840041
 30
0.0
 40
3.9999999999997868
 50
30.00000083482329
 51
179.999994991043
  0
ARC
  5
191
  8
0
 10
54.943152017642888
 20
148.00525936342419
 30
0.0
 40
0.3
 50
4.999887144056709
 51
50.000364900724868
  0
LINE
  5
192
  8
0
 10
80.200014190826323
 20
155.8061991616816
 30
0.0
 11
80.200014190826096
 21
193.04515214809149
 31
0.0
  0
LINE
  5
193
  8
0
 10
55.242010478571267
 20
148.0314054975847
 30
0.0
 11
55.313773161076362
 21
147.21113567436899
 31
0.0
  0
ARC
  5
194
  8
0
 10
70.200014190826323
 20
155.8061991616816
 30
0.0
 40
9.9999999999999503
 50
275.0000033264817
 51
0.0
  0
ARC
  5
195
  8
0
 10
54.815675811920073
 20
147.16755780425979
 30
0.0
 40
0.4999999999997914
 50
280.00000232722499
 51
4.999999854542895
  0
LINE
  5
196
  8
0
 10
53.559761829887968
 20
144.31219117063469
 30
0.0
 11
71.071572196674197
 21
145.8442522313652
 31
0.0
  0
LINE
  5
197
  8
0
 10
54.902499920753833
 20
146.67515393128051
 30
0.0
 11
53.333488864733681
 21
146.3984870706241
 31
0.0
  0
ARC
  5
198
  8
0
 10
53.5161839295954
 20
144.81028851715041
 30
0.0
 40
0.4999999999998828
 50
184.99999399182579
 51
275.00000332650382
  0
ARC
  5
199
  8
0
 10
53.420312957916167
 20
145.90608319488479
 30
0.0
 40
0.5000000000000665
 50
100.0000005060473
 51
184.9999939918213
  0
LINE
  5
19A
  8
0
 10
52.922215604300391
 20
145.8625053757427
 30
0.0
 11
53.018086575980078
 21
144.7667106980083
 31
0.0
  0
ENDBLK
  5
19C
  8
0
  0
ENDSEC
  0
SECTION
  2
ENTITIES
  0
ARC
  5
8E
  8
0
 10
680.40950537355718
 20
297.31618103723463
 30
0.0
 40
0.3
 50
270.0
 51
0.0
  0
LINE
  5
8F
  8
0
 10
680.70950537355725
 20
349.26618857920681
 30
0.0
 11
680.70950537355725
 21
297.31618103723463
 31
0.0
  0
LINE
  5
90
  8
0
 10
680.40950537355718
 20
297.01618103723467
 30
0.0
 11
679.20950546098015
 21
297.0161810372349
 31
0.0
  0
ARC
  5
91
  8
0
 10
682.70950537355736
 20
349.26618866662938
 30
0.0
 40
2.0
 50
90.0
 51
180.00000250447519
  0
ARC
  5
92
  8
0
 10
679.20950537355725
 20
298.0161810372349
 30
0.0
 40
1.0000000000000031
 50
180.0000025044817
 51
270.00000500895692
  0
LINE
  5
93
  8
0
 10
694.20950537355725
 20
351.26618866662938
 30
0.0
 11
682.70950537355736
 21
351.26618866662938
 31
0.0
  0
LINE
  5
94
  8
0
 10
678.20950537355736
 20
298.01618099352351
 30
0.0
 11
678.20950537355736
 21
307.5161810372349
 31
0.0
  0
LINE
  5
95
  8
0
 10
694.20950537355725
 20
348.96618561487162
 30
0.0
 11
694.20950537355725
 21
351.26618866662938
 31
0.0
  0
LINE
  5
96
  8
0
 10
678.20950537355736
 20
307.5161810372349
 30
0.0
 11
677.71182896131472
 21
336.02796678348449
 31
0.0
  0
LINE
  5
97
  8
0
 10
691.20950537355736
 20
348.96618561487162
 30
0.0
 11
694.20950537355725
 21
348.96618561487162
 31
0.0
  0
ARC
  5
98
  8
0
 10
662.71410039585942
 20
335.76617543893548
 30
0.0
 40
15.00001322769938
 50
1.000019166944796
 51
89.999949839518905
  0
ARC
  5
99
  8
0
 10
691.20950537355725
 20
348.46618561487162
 30
0.0
 40
0.4999999999999436
 50
89.999999999986969
 51
180.00000250446871
  0
LINE
  5
9A
  8
0
 10
662.71411352785424
 20
350.7661886666292
 30
0.0
 11
662.45457678469006
 21
350.76618866662938
 31
0.0
  0
LINE
  5
9B
  8
0
 10
690.70950537355748
 20
347.46618559301601
 30
0.0
 11
690.70950537355736
 21
348.46618559301601
 31
0.0
  0
LINE
  5
9C
  8
0
 10
662.45457678469006
 20
350.76618866662938
 30
0.0
 11
593.48447167047368
 21
356.81706101988311
 31
0.0
  0
ARC
  5
9D
  8
0
 10
691.20950537355736
 20
347.46618561487162
 30
0.0
 40
0.5000000000000019
 50
180.00000250446871
 51
270.00000500893742
  0
ARC
  5
9E
  8
0
 10
593.30967932375279
 20
354.82471375207871
 30
0.0
 40
2.0000000000000289
 50
84.986171573709214
 51
185.00000150525099
  0
LINE
  5
9F
  8
0
 10
695.20950546098015
 20
346.96618561487162
 30
0.0
 11
691.2095054172687
 21
346.96618561487162
 31
0.0
  0
LINE
  5
A0
  8
0
 10
591.31728993214858
 20
354.6504022142401
 30
0.0
 11
591.41583997464124
 21
353.52403290975388
 31
0.0
  0
ARC
  5
A1
  8
0
 10
695.20950537355736
 20
347.96618561487162
 30
0.0
 40
1.0
 50
270.00000500895692
 51
359.99999749551819
  0
ARC
  5
A2
  8
0
 10
591.11698169186081
 20
353.49788473938912
 30
0.0
 40
0.3
 50
274.99997358167963
 51
5.00027751597794
  0
LINE
  5
A3
  8
0
 10
696.20950537355725
 20
352.26618862291798
 30
0.0
 11
696.20950537355725
 21
347.96618557116022
 31
0.0
  0
LINE
  5
A4
  8
0
 10
591.14312827688536
 20
353.19902631790569
 30
0.0
 11
586.26176568806216
 21
352.77196469678302
 31
0.0
  0
ARC
  5
A5
  8
0
 10
695.20950537355736
 20
352.26618866662938
 30
0.0
 40
1.0
 50
359.99999749551819
 51
90.0
  0
ARC
  5
A6
  8
0
 10
586.23561910303738
 20
353.07082311826639
 30
0.0
 40
0.3
 50
185.00013020185091
 51
274.99997358167963
  0
LINE
  5
A7
  8
0
 10
662.78294636242913
 20
353.2661810372349
 30
0.0
 11
695.20950537355736
 21
353.26618866662938
 31
0.0
  0
LINE
  5
A8
  8
0
 10
585.9367607530279
 20
353.04467571630107
 30
0.0
 11
585.81340472985505
 21
354.45460461088783
 31
0.0
  0
ARC
  5
A9
  8
0
 10
662.78294592531495
 20
358.26618103723513
 30
0.0
 40
5.0000000000001332
 50
264.98616804492849
 51
270.00000500895823
  0
ARC
  5
AA
  8
0
 10
586.11226307986465
 20
354.48075201285309
 30
0.0
 40
0.3
 50
97.999912036921387
 51
185.00013020185091
  0
LINE
  5
AB
  8
0
 10
588.86125369641445
 20
359.73227106953891
 30
0.0
 11
662.34596475174692
 21
353.28531289463689
 31
0.0
  0
LINE
  5
AC
  8
0
 10
586.070511605668
 20
354.77783249757482
 30
0.0
 11
589.2592948022683
 21
355.2259817574498
 31
0.0
  0
ARC
  5
AD
  8
0
 10
588.42427282961194
 20
354.75140290002759
 30
0.0
 40
5.0000000000002132
 50
84.986171573704766
 51
94.999999854545834
  0
LINE
  5
AE
  8
0
 10
589.2592948022683
 20
355.2259817574498
 30
0.0
 11
589.07628088625256
 21
357.31798462610209
 31
0.0
  0
LINE
  5
AF
  8
0
 10
575.54529272025127
 20
358.64372800889169
 30
0.0
 11
587.9884941285186
 21
359.73237639159288
 31
0.0
  0
LINE
  5
B0
  8
0
 10
589.07628088625256
 20
357.31798462610209
 30
0.0
 11
575.76318181596162
 21
356.15324124081422
 31
0.0
  0
ARC
  5
B1
  8
0
 10
575.10951452883069
 20
363.62470154504717
 30
0.0
 40
4.999999999999913
 50
229.9999993423931
 51
274.99999399181712
  0
ARC
  5
B2
  8
0
 10
575.10951452883069
 20
363.6247015450474
 30
0.0
 40
7.499999999999984
 50
229.9999993423956
 51
274.99999399181752
  0
LINE
  5
B3
  8
0
 10
552.37432318202025
 20
376.17477067645041
 30
0.0
 11
571.89557643643718
 21
359.79447936634011
 31
0.0
  0
LINE
  5
B4
  8
0
 10
570.28860739024037
 20
357.8793682769865
 30
0.0
 11
556.15778512090799
 21
369.73653281240883
 31
0.0
  0
ARC
  5
B5
  8
0
 10
544.01808386476807
 20
366.21619324426638
 30
0.0
 40
12.999999999999879
 50
49.99999774853385
 51
90.0
  0
ARC
  5
B6
  8
0
 10
554.87220984133057
 20
368.2044439766878
 30
0.0
 40
2.0000000000001861
 50
49.999997748536842
 51
185.00000150524451
  0
LINE
  5
B7
  8
0
 10
503.16435444187567
 20
379.21619324426609
 30
0.0
 11
544.01808386476807
 21
379.21619324426638
 31
0.0
  0
LINE
  5
B8
  8
0
 10
552.87982044972659
 20
368.03013243884948
 30
0.0
 11
554.60570922186241
 21
348.3033414154566
 31
0.0
  0
ARC
  5
B9
  8
0
 10
503.16435461672131
 20
381.21619324426609
 30
0.0
 40
2.0000000000000751
 50
120.00000083482441
 51
269.99999499104308
  0
ARC
  5
BA
  8
0
 10
553.6095145288308
 20
348.21618561487139
 30
0.0
 40
0.9999999999999729
 50
274.99999399181058
 51
5.0000033265025747
  0
LINE
  5
BB
  8
0
 10
505.02223427546608
 20
384.5982440305259
 30
0.0
 11
502.16435459148448
 21
382.94824403726471
 31
0.0
  0
LINE
  5
BC
  8
0
 10
553.69667016711492
 20
347.21999090764029
 30
0.0
 11
549.07095451688224
 21
346.81529776494239
 31
0.0
  0
ARC
  5
BD
  8
0
 10
504.77223425539319
 20
385.03125672082888
 30
0.0
 40
0.4999999999999019
 50
300.00000265604041
 51
29.999998330332531
  0
ARC
  5
BE
  8
0
 10
548.93150549562745
 20
348.4092092965123
 30
0.0
 40
1.6000000000000141
 50
185.00000150525261
 51
274.99999399182019
  0
LINE
  5
BF
  8
0
 10
504.70524696457051
 20
386.14726928145251
 30
0.0
 11
505.20524696457062
 21
385.28125670821032
 31
0.0
  0
LINE
  5
C0
  8
0
 10
547.33759398234417
 20
348.2697600662413
 30
0.0
 11
547.10096580042591
 21
350.97449883913993
 31
0.0
  0
ARC
  5
C1
  8
0
 10
504.27223425539319
 20
385.89726929407078
 30
0.0
 40
0.4999999999999062
 50
29.999998330361581
 51
120.0000008348282
  0
ARC
  5
C2
  8
0
 10
547.39982426548136
 20
351.00064492612819
 30
0.0
 40
0.3
 50
140.0003649007248
 51
184.99987810041719
  0
LINE
  5
C3
  8
0
 10
501.16435456624788
 20
384.68029483026271
 30
0.0
 11
504.02223424908402
 21
386.33028199232041
 31
0.0
  0
LINE
  5
C4
  8
0
 10
547.17000970443007
 20
351.1934797454137
 30
0.0
 11
547.97443249064645
 21
352.15216589036839
 31
0.0
  0
ARC
  5
C5
  8
0
 10
503.16435461672131
 20
381.21619324426592
 30
0.0
 40
3.9999999999997868
 50
120.0000008348233
 51
269.99999499104308
  0
ARC
  5
C6
  8
0
 10
548.20424705169762
 20
351.95933107108289
 30
0.0
 40
0.3
 50
94.999887144078315
 51
140.0003649007248
  0
LINE
  5
C7
  8
0
 10
540.40330725343995
 20
377.21619324426638
 30
0.0
 11
503.16435426703009
 21
377.21619324426609
 31
0.0
  0
LINE
  5
C8
  8
0
 10
548.17810091753699
 20
352.25818953201127
 30
0.0
 11
548.99837074075265
 21
352.32995221451642
 31
0.0
  0
ARC
  5
C9
  8
0
 10
540.40330725343995
 20
367.21619324426638
 30
0.0
 40
9.9999999999999503
 50
5.0000033264816413
 51
90.0
  0
ARC
  5
CA
  8
0
 10
549.04194861086194
 20
351.83185486536013
 30
0.0
 40
0.4999999999997914
 50
10.000002327222751
 51
94.999999854529918
  0
LINE
  5
CB
  8
0
 10
551.897315244487
 20
350.57594088332797
 30
0.0
 11
550.36525418375663
 21
368.08775125011431
 31
0.0
  0
LINE
  5
CC
  8
0
 10
549.53435248384119
 20
351.91867897419388
 30
0.0
 11
549.81101934449759
 21
350.34966791817368
 31
0.0
  0
ARC
  5
CD
  8
0
 10
551.3992178979712
 20
350.53236298303551
 30
0.0
 40
0.4999999999998828
 50
274.99999399183889
 51
5.0000033265026547
  0
ARC
  5
CE
  8
0
 10
550.30342322023694
 20
350.43649201135622
 30
0.0
 40
0.5000000000000665
 50
190.00000050604959
 51
274.99999399183429
  0
LINE
  5
CF
  8
0
 10
550.34700103937905
 20
349.93839465774039
 30
0.0
 11
551.44279571711354
 21
350.03426562942008
 31
0.0
  0
ENDSEC
  0
EOF
