  0
SECTION
  2
HEADER
  9
$ACADVER
  1
AC1009
  9
$INSBASE
 10
0.0
 20
0.0
 30
0.0
  9
$EXTMIN
 10
295.8764661660843
 20
485.35318118817298
 30
-0.0015258207003583
  9
$EXTMAX
 10
359.0341195592589
 20
507.5592965909272
 30
0.0000000349246037
  9
$LIMMIN
 10
0.0
 20
0.0
  9
$LIMMAX
 10
420.0
 20
297.0
  9
$ORTHOMODE
 70
     0
  9
$REGENMODE
 70
     1
  9
$FILLMODE
 70
     1
  9
$QTEXTMODE
 70
     0
  9
$MIRRTEXT
 70
     0
  9
$DRAGMODE
 70
     2
  9
$LTSCALE
 40
1.0
  9
$OSMODE
 70
  3071
  9
$ATTMODE
 70
     1
  9
$TEXTSIZE
 40
2.5
  9
$TRACEWID
 40
1.0
  9
$TEXTSTYLE
  7
STANDARD
  9
$CLAYER
  8
0
  9
$CELTYPE
  6
BYLAYER
  9
$CECOLOR
 62
   256
  9
$DIMSCALE
 40
1.0
  9
$DIMASZ
 40
2.5
  9
$DIMEXO
 40
0.625
  9
$DIMDLI
 40
3.75
  9
$DIMRND
 40
0.0
  9
$DIMDLE
 40
0.0
  9
$DIMEXE
 40
1.25
  9
$DIMTP
 40
0.0
  9
$DIMTM
 40
0.0
  9
$DIMTXT
 40
2.5
  9
$DIMCEN
 40
2.5
  9
$DIMTSZ
 40
0.0
  9
$DIMTOL
 70
     0
  9
$DIMLIM
 70
     0
  9
$DIMTIH
 70
     0
  9
$DIMTOH
 70
     0
  9
$DIMSE1
 70
     0
  9
$DIMSE2
 70
     0
  9
$DIMTAD
 70
     1
  9
$DIMZIN
 70
     8
  9
$DIMBLK
  1

  9
$DIMASO
 70
     1
  9
$DIMSHO
 70
     1
  9
$DIMPOST
  1

  9
$DIMAPOST
  1

  9
$DIMALT
 70
     0
  9
$DIMALTD
 70
     3
  9
$DIMALTF
 40
0.03937007874016
  9
$DIMLFAC
 40
1.0
  9
$DIMTOFL
 70
     1
  9
$DIMTVP
 40
0.0
  9
$DIMTIX
 70
     0
  9
$DIMSOXD
 70
     0
  9
$DIMSAH
 70
     0
  9
$DIMBLK1
  1

  9
$DIMBLK2
  1

  9
$DIMSTYLE
  2
ISO-25
  9
$DIMCLRD
 70
     0
  9
$DIMCLRE
 70
     0
  9
$DIMCLRT
 70
     0
  9
$DIMTFAC
 40
1.0
  9
$DIMGAP
 40
0.625
  9
$LUNITS
 70
     2
  9
$LUPREC
 70
     4
  9
$SKETCHINC
 40
1.0
  9
$FILLETRAD
 40
0.0
  9
$AUNITS
 70
     0
  9
$AUPREC
 70
     0
  9
$MENU
  1
.
  9
$ELEVATION
 40
0.0
  9
$PELEVATION
 40
0.0
  9
$THICKNESS
 40
0.0
  9
$LIMCHECK
 70
     0
  9
$BLIPMODE
 70
     0
  9
$CHAMFERA
 40
0.0
  9
$CHAMFERB
 40
0.0
  9
$SKPOLY
 70
     0
  9
$TDCREATE
 40
2455840.6406130092
  9
$TDUPDATE
 40
2455840.6407486
  9
$TDINDWG
 40
0.0001358796
  9
$TDUSRTIMER
 40
0.0001358796
  9
$USRTIMER
 70
     1
  9
$ANGBASE
 50
0.0
  9
$ANGDIR
 70
     0
  9
$PDMODE
 70
     0
  9
$PDSIZE
 40
0.0
  9
$PLINEWID
 40
0.0
  9
$COORDS
 70
     0
  9
$SPLFRAME
 70
     0
  9
$SPLINETYPE
 70
     6
  9
$SPLINESEGS
 70
     8
  9
$ATTDIA
 70
     0
  9
$ATTREQ
 70
     1
  9
$HANDLING
 70
     1
  9
$HANDSEED
  5
1BA
  9
$SURFTAB1
 70
     6
  9
$SURFTAB2
 70
     6
  9
$SURFTYPE
 70
     6
  9
$SURFU
 70
     6
  9
$SURFV
 70
     6
  9
$UCSNAME
  2

  9
$UCSORG
 10
0.0
 20
0.0
 30
0.0
  9
$UCSXDIR
 10
1.0
 20
0.0
 30
0.0
  9
$UCSYDIR
 10
0.0
 20
1.0
 30
0.0
  9
$PUCSNAME
  2

  9
$PUCSORG
 10
0.0
 20
0.0
 30
0.0
  9
$PUCSXDIR
 10
1.0
 20
0.0
 30
0.0
  9
$PUCSYDIR
 10
0.0
 20
1.0
 30
0.0
  9
$USERI1
 70
     0
  9
$USERI2
 70
     0
  9
$USERI3
 70
     0
  9
$USERI4
 70
     0
  9
$USERI5
 70
     0
  9
$USERR1
 40
0.0
  9
$USERR2
 40
0.0
  9
$USERR3
 40
0.0
  9
$USERR4
 40
0.0
  9
$USERR5
 40
0.0
  9
$WORLDVIEW
 70
     1
  9
$SHADEDGE
 70
     3
  9
$SHADEDIF
 70
    70
  9
$TILEMODE
 70
     1
  9
$MAXACTVP
 70
    64
  9
$PLIMCHECK
 70
     0
  9
$PEXTMIN
 10
0.0
 20
0.0
 30
0.0
  9
$PEXTMAX
 10
0.0
 20
0.0
 30
0.0
  9
$PLIMMIN
 10
0.0
 20
0.0
  9
$PLIMMAX
 10
12.0
 20
9.0
  9
$UNITMODE
 70
     0
  9
$VISRETAIN
 70
     1
  9
$PLINEGEN
 70
     0
  9
$PSLTSCALE
 70
     1
  0
ENDSEC
  0
SECTION
  2
TABLES
  0
TABLE
  2
VPORT
 70
     2
  0
VPORT
  2
*ACTIVE
 70
     0
 10
0.0
 20
0.0
 11
1.0
 21
1.0
 12
327.45529286267163
 22
496.45623888955009
 13
0.0
 23
0.0
 14
10.0
 24
10.0
 15
10.0
 25
10.0
 16
0.0
 26
0.0
 36
1.0
 17
0.0
 27
0.0
 37
0.0
 40
27.792174671199419
 41
2.2817337461300311
 42
50.0
 43
0.0
 44
0.0
 50
0.0
 51
0.0
 71
     0
 72
  1000
 73
     1
 74
     3
 75
     0
 76
     0
 77
     0
 78
     0
  0
ENDTAB
  0
TABLE
  2
LTYPE
 70
     1
  0
LTYPE
  2
CONTINUOUS
 70
     0
  3
Solid line
 72
    65
 73
     0
 40
0.0
  0
ENDTAB
  0
TABLE
  2
LAYER
 70
     1
  0
LAYER
  2
0
 70
     0
 62
     7
  6
CONTINUOUS
  0
ENDTAB
  0
TABLE
  2
STYLE
 70
     2
  0
STYLE
  2
STANDARD
 70
     0
 40
0.0
 41
1.0
 50
0.0
 71
     0
 42
2.5
  3
txt
  4

  0
STYLE
  2
ROMANT
 70
     0
 40
2.2999999999999989
 41
1.0
 50
15.0
 71
     0
 42
2.5
  3
romant.shx
  4

  0
ENDTAB
  0
TABLE
  2
VIEW
 70
     0
  0
ENDTAB
  0
TABLE
  2
UCS
 70
     0
  0
ENDTAB
  0
TABLE
  2
APPID
 70
     2
  0
APPID
  2
ACAD
 70
     0
  0
APPID
  2
ACAD_PSEXT
 70
     0
  0
ENDTAB
  0
TABLE
  2
DIMSTYLE
 70
     2
  0
DIMSTYLE
  2
ISO-25
 70
     0
  3

  4

  5

  6

  7

 40
1.0
 41
2.5
 42
0.625
 43
3.75
 44
1.25
 45
0.0
 46
0.0
 47
0.0
 48
0.0
140
2.5
141
2.5
142
0.0
143
0.03937007874016
144
1.0
145
0.0
146
1.0
147
0.625
 71
     0
 72
     0
 73
     0
 74
     0
 75
     0
 76
     0
 77
     1
 78
     8
170
     0
171
     3
172
     1
173
     0
174
     0
175
     0
176
     0
177
     0
178
     0
  0
DIMSTYLE
  2
ISO-25_1_E_1
 70
     0
  3

  4

  5

  6

  7

 40
1.0
 41
2.5
 42
0.0
 43
3.75
 44
0.5
 45
0.0
 46
0.0
 47
0.0
 48
0.0
140
1.0
141
0.2
142
0.0
143
0.03937007874016
144
1.0
145
0.0
146
1.0
147
0.4
 71
     0
 72
     0
 73
     0
 74
     0
 75
     0
 76
     0
 77
     1
 78
     8
170
     0
171
     3
172
     0
173
     0
174
     0
175
     0
176
   242
177
   242
178
   242
  0
ENDTAB
  0
ENDSEC
  0
SECTION
  2
BLOCKS
  0
BLOCK
  8
0
  2
$MODEL_SPACE
 70
     0
 10
0.0
 20
0.0
 30
0.0
  3
$MODEL_SPACE
  1

  0
ENDBLK
  5
21
  8
0
  0
BLOCK
 67
     1
  8
0
  2
$PAPER_SPACE
 70
     0
 10
0.0
 20
0.0
 30
0.0
  3
$PAPER_SPACE
  1

  0
ENDBLK
  5
53
 67
     1
  8
0
  0
BLOCK
  8
0
  2
*U2
 70
     1
 10
0.0
 20
0.0
 30
0.0
  3
*U2
  1

  0
ARC
  5
115
  8
0
 10
5.3295132447289566
 20
2.2499997268104148
 30
0.0
 40
0.25
 50
225.80217750681729
 51
270.0
  0
ARC
  5
116
  8
0
 10
4.9809443165265739
 20
1.891531175481532
 30
0.0
 40
0.2500000000000006
 50
45.802177506808448
 51
134.42700400080921
  0
LINE
  5
117
  8
0
 10
8.4999996131432454
 20
1.999999726810415
 30
0.0
 11
5.3295132447289566
 21
1.999999726810415
 31
0.0
  0
ARC
  5
118
  8
0
 10
4.630944316526552
 20
2.248602596908654
 30
0.0
 40
0.2500000000000205
 50
225.57299599920921
 51
314.42700400080918
  0
LINE
  5
119
  8
0
 10
8.4999996131432454
 20
4.0799997268103416
 30
0.0
 11
8.4999996131432454
 21
1.999999726810415
 31
0.0
  0
ARC
  5
11A
  8
0
 10
4.2809443165265293
 20
1.891531175481532
 30
0.0
 40
0.2500000000000006
 50
45.572995999172377
 51
134.42700400079991
  0
ARC
  5
11B
  8
0
 10
8.3999996131432226
 20
4.0799997268103416
 30
0.0
 40
0.0999999999999943
 50
0.0
 51
90.0
  0
ARC
  5
11C
  8
0
 10
3.9309443165265061
 20
2.248602596908654
 30
0.0
 40
0.2500000000000205
 50
225.57299599920921
 51
314.4270040008185
  0
LINE
  5
11D
  8
0
 10
8.0243469431841277
 20
4.1799997268103652
 30
0.0
 11
8.3999996131432226
 21
4.1799997268103652
 31
0.0
  0
ARC
  5
11E
  8
0
 10
3.5809443165265971
 20
1.891531175481532
 30
0.0
 40
0.2499999999999807
 50
45.572995999190979
 51
134.1978224932009
  0
ARC
  5
11F
  8
0
 10
8.0243469431841845
 20
4.4299997268103652
 30
0.0
 40
0.2499999999999994
 50
160.8518625420534
 51
269.99999999998698
  0
ARC
  5
120
  8
0
 10
3.2323753883242139
 20
2.2499997268104148
 30
0.0
 40
0.249999999999993
 50
269.99999999998698
 51
314.19782249317342
  0
LINE
  5
121
  8
0
 10
8.3767882177020283
 20
6.2071985579133289
 30
0.0
 11
7.7881785271255231
 21
4.5120026490529881
 31
0.0
  0
LINE
  5
122
  8
0
 10
3.2323753883241571
 20
1.999999726810415
 30
0.0
 11
0.7499996131432454
 21
1.999999726810415
 31
0.0
  0
ARC
  5
123
  8
0
 10
8.2823208512785413
 20
6.2399997268104244
 30
0.0
 40
0.0999999999999943
 50
340.85186254203302
 51
90.0
  0
ARC
  5
124
  8
0
 10
0.7499996131432454
 20
1.749999726810415
 30
0.0
 40
0.25
 50
90.0
 51
180.0
  0
LINE
  5
125
  8
0
 10
8.0243469431842414
 20
6.3399997268103903
 30
0.0
 11
8.2823208512785413
 21
6.3399997268103903
 31
0.0
  0
LINE
  5
126
  8
0
 10
0.4999996131432454
 20
1.749999726810415
 30
0.0
 11
0.4999996131432454
 21
0.6249997268104153
 31
0.0
  0
ARC
  5
127
  8
0
 10
8.0243469431842414
 20
6.5899997268103903
 30
0.0
 40
0.24999999999999
 50
160.85186254206999
 51
270.0
  0
ARC
  5
128
  8
0
 10
0.3749996131432454
 20
0.6249997268104153
 30
0.0
 40
0.125
 50
270.0
 51
0.0
  0
LINE
  5
129
  8
0
 10
8.3767882177020283
 20
8.3671985579134116
 30
0.0
 11
7.7881785271255231
 21
6.6720026490529563
 31
0.0
  0
LINE
  5
12A
  8
0
 10
0.3749996131432454
 20
0.4999997268104153
 30
0.0
 11
0.2499996131432454
 21
0.4999997268104153
 31
0.0
  0
ARC
  5
12B
  8
0
 10
8.2823208512785413
 20
8.3999997268103925
 30
0.0
 40
0.0999999999999943
 50
340.85186254209458
 51
90.0
  0
ARC
  5
12C
  8
0
 10
0.2499996131432454
 20
0.2499997268103016
 30
0.0
 40
0.25
 50
90.0
 51
270.0
  0
LINE
  5
12D
  8
0
 10
8.0252547417517235
 20
8.4999997268103584
 30
0.0
 11
8.2823208512785413
 21
8.4999997268104153
 31
0.0
  0
LINE
  5
12E
  8
0
 10
0.2499996131432454
 20
-0.0000002731896984
 30
0.0
 11
62.749999613143132
 21
-0.0000002731896984
 31
0.0
  0
ARC
  5
12F
  8
0
 10
8.0252547417516666
 20
8.7499997268103584
 30
0.0
 40
0.2500000000000002
 50
168.4630409671818
 51
270.00000000001302
  0
ARC
  5
130
  8
0
 10
62.749999613143132
 20
0.2499997268103016
 30
0.0
 40
0.2499999999999432
 50
270.0
 51
0.0
  0
ARC
  5
131
  8
0
 10
9.2499996131432454
 20
8.4999997268103584
 30
0.0
 40
1.4999999999999949
 50
11.536959032816011
 51
168.46304096718401
  0
LINE
  5
132
  8
0
 10
62.999999613143132
 20
0.2499997268103016
 30
0.0
 11
62.999999613143238
 21
21.334098680507509
 31
0.0
  0
ARC
  5
133
  8
0
 10
10.474744484534821
 20
8.7499997268104153
 30
0.0
 40
0.25
 50
269.99999999998698
 51
11.53695903280536
  0
ARC
  5
134
  8
0
 10
62.49999952551871
 20
21.334747530474829
 30
0.0
 40
0.5000005086305573
 50
359.92564732543832
 51
108.2331604529067
  0
LINE
  5
135
  8
0
 10
10.21767837500783
 20
8.4999997268104153
 30
0.0
 11
10.474744484534771
 21
8.4999997268104153
 31
0.0
  0
ARC
  5
136
  8
0
 10
65.315285687280266
 20
12.788694865155209
 30
0.0
 40
9.4978253752869897
 50
108.2331902251892
 51
140.37242219347141
  0
ARC
  5
137
  8
0
 10
10.21767837500783
 20
8.3999997268103925
 30
0.0
 40
0.1000000000000067
 50
90.0
 51
199.14813745790539
  0
ARC
  5
138
  8
0
 10
-4.3313267939948332
 20
62.825950903196492
 30
0.0
 40
76.284984767547542
 50
312.53899819162092
 51
324.7940601563277
  0
LINE
  5
139
  8
0
 10
10.71182069916085
 20
6.6720026490529563
 30
0.0
 11
10.123211008584351
 21
8.3671985579134116
 31
0.0
  0
ARC
  5
13A
  8
0
 10
38.829481029297831
 20
14.59432541708213
 30
0.0
 40
11.59456060806054
 50
269.63527194714038
 51
316.53198104372927
  0
ARC
  5
13B
  8
0
 10
10.47565228310213
 20
6.5899997268103903
 30
0.0
 40
0.25
 50
270.0
 51
19.148137457930019
  0
LINE
  5
13C
  8
0
 10
38.755673970734847
 20
2.9999997268104148
 30
0.0
 11
33.249999613143252
 21
2.9999997268104148
 31
0.0
  0
LINE
  5
13D
  8
0
 10
10.21767837500783
 20
6.3399997268103903
 30
0.0
 11
10.47565228310213
 21
6.3399997268103903
 31
0.0
  0
ARC
  5
13E
  8
0
 10
33.249999613143252
 20
2.7499997268103011
 30
0.0
 40
0.2500000000001137
 50
90.0
 51
179.99999999997391
  0
ARC
  5
13F
  8
0
 10
10.21767837500783
 20
6.2399997268104244
 30
0.0
 40
0.1000000000000067
 50
90.0
 51
199.1481374579669
  0
LINE
  5
140
  8
0
 10
32.999999613143132
 20
2.7499997268104148
 30
0.0
 11
32.999999613143252
 21
2.2499997268104148
 31
0.0
  0
LINE
  5
141
  8
0
 10
10.71182069916091
 20
4.5120026490529881
 30
0.0
 11
10.123211008584351
 21
6.2071985579133289
 31
0.0
  0
ARC
  5
142
  8
0
 10
32.749999613143252
 20
2.2499997268104148
 30
0.0
 40
0.25
 50
270.0
 51
0.0
  0
ARC
  5
143
  8
0
 10
10.475652283102249
 20
4.4299997268103652
 30
0.0
 40
0.2499999999999716
 50
270.0
 51
19.14813745794665
  0
LINE
  5
144
  8
0
 10
32.749999613143252
 20
1.999999726810415
 30
0.0
 11
30.249999613143249
 21
1.999999726810415
 31
0.0
  0
LINE
  5
145
  8
0
 10
10.099999613143151
 20
4.1799997268103652
 30
0.0
 11
10.475652283102249
 21
4.1799997268103652
 31
0.0
  0
ARC
  5
146
  8
0
 10
30.249999613143249
 20
2.2499997268104148
 30
0.0
 40
0.25
 50
180.0
 51
270.0
  0
ARC
  5
147
  8
0
 10
10.099999613143151
 20
4.0799997268103416
 30
0.0
 40
0.0999999999999943
 50
90.0
 51
180.0
  0
LINE
  5
148
  8
0
 10
29.999999613143249
 20
2.2499997268104148
 30
0.0
 11
29.999999613143249
 21
2.7499997268104148
 31
0.0
  0
LINE
  5
149
  8
0
 10
9.9999996131431885
 20
2.2505600940155541
 30
0.0
 11
9.9999996131431317
 21
4.0799997268103416
 31
0.0
  0
ARC
  5
14A
  8
0
 10
29.749999613143238
 20
2.7499997268104148
 30
0.0
 40
0.25
 50
0.0
 51
90.0
  0
ARC
  5
14B
  8
0
 10
10.199999613142831
 20
2.2505600940157251
 30
0.0
 40
0.1999999999996649
 50
180.0000000000488
 51
307.12497852960013
  0
LINE
  5
14C
  8
0
 10
29.749999613143238
 20
2.9999997268104148
 30
0.0
 11
28.749999613143249
 21
2.9999997268104148
 31
0.0
  0
ARC
  5
14D
  8
0
 10
10.471599652570889
 20
1.891765698041638
 30
0.0
 40
0.2500000000000011
 50
45.572995999190788
 51
127.1249785295521
  0
ARC
  5
14E
  8
0
 10
28.749999613143249
 20
2.7499997268104148
 30
0.0
 40
0.25
 50
90.0
 51
180.0
  0
ARC
  5
14F
  8
0
 10
10.82159965257091
 20
2.248837119468817
 30
0.0
 40
0.2500000000000213
 50
225.57299599919989
 51
314.42700400080008
  0
LINE
  5
150
  8
0
 10
28.499999613143238
 20
2.7499997268104148
 30
0.0
 11
28.499999613143238
 21
2.1994237320587331
 31
0.0
  0
ARC
  5
151
  8
0
 10
11.171599652570871
 20
1.891765698041638
 30
0.0
 40
0.2499999999999812
 50
45.572995999200103
 51
134.42700400079991
  0
ARC
  5
152
  8
0
 10
28.29999961314326
 20
2.1994237320587331
 30
0.0
 40
0.1999999999999886
 50
223.13223972586781
 51
0.0
  0
ARC
  5
153
  8
0
 10
11.521599652570901
 20
2.248837119468817
 30
0.0
 40
0.2500000000000213
 50
225.5729959991906
 51
314.42700400079082
  0
ARC
  5
154
  8
0
 10
27.971599652570092
 20
1.891765698041638
 30
0.0
 40
0.249999999999691
 50
43.132239725786832
 51
134.42700400073471
  0
ARC
  5
155
  8
0
 10
11.87159965257092
 20
1.891765698041638
 30
0.0
 40
0.2499999999999812
 50
45.572995999200103
 51
134.4270040008185
  0
ARC
  5
156
  8
0
 10
27.62159965257058
 20
2.2488371194687602
 30
0.0
 40
0.2499999999999609
 50
225.57299599920009
 51
314.42700400079991
  0
ARC
  5
157
  8
0
 10
12.221599652570831
 20
2.248837119468817
 30
0.0
 40
0.2500000000000011
 50
225.57299599920921
 51
314.42700400080008
  0
ARC
  5
158
  8
0
 10
27.271599652570671
 20
1.891765698041638
 30
0.0
 40
0.2499999999999812
 50
45.572995999200103
 51
134.4270040008185
  0
ARC
  5
159
  8
0
 10
12.57159965257085
 20
1.891765698041638
 30
0.0
 40
0.2499999999999812
 50
45.572995999200103
 51
134.42700400080921
  0
ARC
  5
15A
  8
0
 10
26.921599652570649
 20
2.248837119468817
 30
0.0
 40
0.2500000000000011
 50
225.5729959991906
 51
314.42700400079082
  0
ARC
  5
15B
  8
0
 10
12.921599652570871
 20
2.248837119468817
 30
0.0
 40
0.2500000000000011
 50
225.5729959991906
 51
314.42700400079082
  0
ARC
  5
15C
  8
0
 10
26.57159965257063
 20
1.891765698041638
 30
0.0
 40
0.2499999999999812
 50
45.572995999200103
 51
134.42700400080921
  0
ARC
  5
15D
  8
0
 10
13.271599652570901
 20
1.891765698041638
 30
0.0
 40
0.2499999999999812
 50
45.572995999200103
 51
134.4270040008185
  0
ARC
  5
15E
  8
0
 10
26.2215996525706
 20
2.248837119468817
 30
0.0
 40
0.2500000000000011
 50
225.57299599920921
 51
314.42700400080008
  0
ARC
  5
15F
  8
0
 10
13.62159965257081
 20
2.248837119468817
 30
0.0
 40
0.2500000000000011
 50
225.57299599920921
 51
314.42700400080008
  0
ARC
  5
160
  8
0
 10
25.871599652570701
 20
1.891765698041638
 30
0.0
 40
0.2499999999999812
 50
45.572995999200103
 51
134.4270040008185
  0
ARC
  5
161
  8
0
 10
13.971599652570831
 20
1.891765698041638
 30
0.0
 40
0.2499999999999812
 50
45.572995999200103
 51
134.42700400080921
  0
ARC
  5
162
  8
0
 10
25.521599652570671
 20
2.248837119468817
 30
0.0
 40
0.2500000000000011
 50
225.5729959991906
 51
314.42700400079082
  0
ARC
  5
163
  8
0
 10
14.32159965257085
 20
2.248837119468817
 30
0.0
 40
0.2500000000000011
 50
225.5729959991906
 51
314.42700400079082
  0
ARC
  5
164
  8
0
 10
25.171599652570649
 20
1.891765698041638
 30
0.0
 40
0.2499999999999812
 50
45.572995999200103
 51
134.42700400080921
  0
ARC
  5
165
  8
0
 10
14.671599652570871
 20
1.891765698041638
 30
0.0
 40
0.2499999999999812
 50
45.572995999200103
 51
134.4270040008185
  0
ARC
  5
166
  8
0
 10
24.82159965257063
 20
2.248837119468817
 30
0.0
 40
0.2500000000000011
 50
225.57299599920921
 51
314.42700400080008
  0
ARC
  5
167
  8
0
 10
15.02159965257078
 20
2.248837119468817
 30
0.0
 40
0.2500000000000011
 50
225.57299599920921
 51
314.42700400080008
  0
ARC
  5
168
  8
0
 10
24.47159965257072
 20
1.891765698041638
 30
0.0
 40
0.2499999999999812
 50
45.572995999200103
 51
134.4270040008185
  0
ARC
  5
169
  8
0
 10
15.37159965257081
 20
1.891765698041638
 30
0.0
 40
0.2499999999999812
 50
45.572995999200103
 51
134.42700400080921
  0
ARC
  5
16A
  8
0
 10
24.121599652570701
 20
2.248837119468817
 30
0.0
 40
0.2500000000000011
 50
225.5729959991906
 51
314.42700400079082
  0
ARC
  5
16B
  8
0
 10
15.721599652570831
 20
2.248837119468817
 30
0.0
 40
0.2500000000000011
 50
225.5729959991906
 51
314.42700400079082
  0
ARC
  5
16C
  8
0
 10
23.771599652570671
 20
1.891765698041638
 30
0.0
 40
0.2499999999999812
 50
45.572995999200103
 51
134.42700400080921
  0
ARC
  5
16D
  8
0
 10
16.07159965257085
 20
1.891765698041638
 30
0.0
 40
0.2499999999999812
 50
45.572995999200103
 51
134.4270040008185
  0
ARC
  5
16E
  8
0
 10
23.421599652570649
 20
2.248837119468817
 30
0.0
 40
0.2500000000000011
 50
225.57299599920921
 51
314.42700400080008
  0
ARC
  5
16F
  8
0
 10
16.421599652570759
 20
2.248837119468817
 30
0.0
 40
0.2500000000000011
 50
225.57299599920921
 51
314.42700400080008
  0
ARC
  5
170
  8
0
 10
23.07159965257074
 20
1.891765698041638
 30
0.0
 40
0.2499999999999812
 50
45.572995999200103
 51
134.4270040008185
  0
ARC
  5
171
  8
0
 10
16.771599652570782
 20
1.891765698041638
 30
0.0
 40
0.2499999999999812
 50
45.572995999200103
 51
134.42700400080921
  0
ARC
  5
172
  8
0
 10
22.72159965257072
 20
2.248837119468817
 30
0.0
 40
0.2500000000000011
 50
225.5729959991906
 51
314.42700400079082
  0
ARC
  5
173
  8
0
 10
17.121599652570811
 20
2.248837119468817
 30
0.0
 40
0.2500000000000011
 50
225.5729959991906
 51
314.42700400079082
  0
ARC
  5
174
  8
0
 10
22.371599652570691
 20
1.891765698041638
 30
0.0
 40
0.2499999999999812
 50
45.572995999200103
 51
134.42700400080921
  0
ARC
  5
175
  8
0
 10
17.471599652570831
 20
1.891765698041638
 30
0.0
 40
0.2499999999999812
 50
45.572995999200103
 51
134.4270040008185
  0
ARC
  5
176
  8
0
 10
22.021599652570671
 20
2.248837119468817
 30
0.0
 40
0.2500000000000011
 50
225.57299599920921
 51
314.42700400080008
  0
ARC
  5
177
  8
0
 10
17.82159965257074
 20
2.248837119468817
 30
0.0
 40
0.2500000000000011
 50
225.57299599920921
 51
314.42700400080008
  0
ARC
  5
178
  8
0
 10
21.671599652570759
 20
1.891765698041638
 30
0.0
 40
0.2499999999999812
 50
45.572995999200103
 51
134.4270040008185
  0
ARC
  5
179
  8
0
 10
18.171599652570759
 20
1.891765698041638
 30
0.0
 40
0.2499999999999812
 50
45.572995999200103
 51
134.42700400080921
  0
ARC
  5
17A
  8
0
 10
21.32159965257074
 20
2.248837119468817
 30
0.0
 40
0.2500000000000011
 50
225.5729959991906
 51
314.42700400079082
  0
ARC
  5
17B
  8
0
 10
18.521599652570782
 20
2.248837119468817
 30
0.0
 40
0.2500000000000011
 50
225.5729959991906
 51
314.42700400079082
  0
ARC
  5
17C
  8
0
 10
20.97159965257072
 20
1.891765698041638
 30
0.0
 40
0.2499999999999812
 50
45.572995999200103
 51
134.42700400080921
  0
ARC
  5
17D
  8
0
 10
18.871599652570811
 20
1.891765698041638
 30
0.0
 40
0.2499999999999812
 50
45.572995999200103
 51
134.4270040008185
  0
ARC
  5
17E
  8
0
 10
20.621599652570701
 20
2.248837119468817
 30
0.0
 40
0.2500000000000011
 50
225.57299599920921
 51
314.42700400080008
  0
ARC
  5
17F
  8
0
 10
19.22159965257072
 20
2.248837119468817
 30
0.0
 40
0.2500000000000011
 50
225.57299599920921
 51
314.42700400080008
  0
ARC
  5
180
  8
0
 10
20.271599652570782
 20
1.891765698041638
 30
0.0
 40
0.2499999999999812
 50
45.572995999200103
 51
134.4270040008185
  0
ARC
  5
181
  8
0
 10
19.57159965257074
 20
1.891765698041638
 30
0.0
 40
0.2499999999999812
 50
45.572995999200103
 51
134.42700400080921
  0
ARC
  5
182
  8
0
 10
19.921599652570759
 20
2.248837119468817
 30
0.0
 40
0.2500000000000011
 50
225.5729959991906
 51
314.42700400079082
  0
ARC
  5
183
  8
0
 10
-4.3313215457319236
 20
62.825945764213991
 30
0.0
 40
78.284977432748249
 50
310.03036607007567
 51
324.73306494887771
  0
ARC
  5
184
  8
0
 10
65.331847675701965
 20
12.762436356430721
 30
0.0
 40
7.5273339612211441
 50
133.43877899782541
 51
139.7577180507329
  0
ARC
  5
185
  8
0
 10
46.342664914491763
 20
2.4999997268104721
 30
0.0
 40
0.5
 50
130.0303660700832
 51
270.0
  0
ARC
  5
186
  8
0
 10
60.499999613143238
 20
17.86505008890969
 30
0.0
 40
0.5
 50
0.0
 51
133.43877899781751
  0
LINE
  5
187
  8
0
 10
60.499999613143238
 20
1.999999726810415
 30
0.0
 11
46.342664914491763
 21
1.9999997268104719
 31
0.0
  0
LINE
  5
188
  8
0
 10
60.999999613143238
 20
17.86505008890969
 30
0.0
 11
60.999999613143238
 21
2.4999997268104148
 31
0.0
  0
ARC
  5
189
  8
0
 10
60.499999613143238
 20
2.4999997268104148
 30
0.0
 40
0.5000000000000285
 50
270.0
 51
0.0
  0
ENDBLK
  5
18B
  8
0
  0
BLOCK
  8
0
  2
*X3
 70
     1
 10
0.0
 20
0.0
 30
0.0
  3
*X3
  1

  0
LINE
  5
18D
  8
0
 62
     0
 10
61.813037886187139
 20
-0.0000002731897553
 30
0.0
 11
62.999999613143132
 21
1.1869614537662301
 31
0.0
  0
LINE
  5
18E
  8
0
 62
     0
 10
59.567973855919938
 20
-0.0000002731896416
 30
0.0
 11
62.999999613143068
 21
3.4320254840334878
 31
0.0
  0
LINE
  5
18F
  8
0
 62
     0
 10
60.999999613143238
 20
3.677089514300917
 30
0.0
 11
62.999999613143189
 21
5.6770895143008602
 31
0.0
  0
LINE
  5
190
  8
0
 62
     0
 10
57.322909825652573
 20
-0.0000002731897553
 30
0.0
 11
59.322909825652687
 21
1.999999726810358
 31
0.0
  0
LINE
  5
191
  8
0
 62
     0
 10
60.999999613143238
 20
5.9221535445681752
 30
0.0
 11
62.999999613143189
 21
7.9221535445681184
 31
0.0
  0
LINE
  5
192
  8
0
 62
     0
 10
55.077845795385308
 20
-0.0000002731897553
 30
0.0
 11
57.077845795385429
 21
1.999999726810358
 31
0.0
  0
LINE
  5
193
  8
0
 62
     0
 10
60.999999613143238
 20
8.1672175748354334
 30
0.0
 11
62.999999613143238
 21
10.16721757483543
 31
0.0
  0
LINE
  5
194
  8
0
 62
     0
 10
52.832781765118057
 20
-0.0000002731897553
 30
0.0
 11
54.83278176511817
 21
1.999999726810358
 31
0.0
  0
LINE
  5
195
  8
0
 62
     0
 10
60.999999613143302
 20
10.4122816051028
 30
0.0
 11
62.999999613143189
 21
12.41228160510269
 31
0.0
  0
LINE
  5
196
  8
0
 62
     0
 10
50.587717734850798
 20
-0.0000002731896984
 30
0.0
 11
52.587717734850912
 21
1.999999726810415
 31
0.0
  0
LINE
  5
197
  8
0
 62
     0
 10
60.999999613143189
 20
12.65734563537
 30
0.0
 11
62.999999613143189
 21
14.65734563537
 31
0.0
  0
LINE
  5
198
  8
0
 62
     0
 10
48.342653704583483
 20
-0.0000002731896984
 30
0.0
 11
50.342653704583711
 21
1.9999997268104719
 31
0.0
  0
LINE
  5
199
  8
0
 62
     0
 10
60.999999613143238
 20
14.90240966563738
 30
0.0
 11
62.999999613143302
 21
16.902409665637379
 31
0.0
  0
LINE
  5
19A
  8
0
 62
     0
 10
46.097589674316161
 20
-0.0000002731896984
 30
0.0
 11
48.097589674316332
 21
1.9999997268104719
 31
0.0
  0
LINE
  5
19B
  8
0
 62
     0
 10
60.999999613143238
 20
17.14747369590464
 30
0.0
 11
62.999999613143302
 21
19.14747369590464
 31
0.0
  0
LINE
  5
19C
  8
0
 62
     0
 10
43.85252564404891
 20
-0.0000002731896984
 30
0.0
 11
45.994076267754608
 21
2.1415503505160132
 31
0.0
  0
LINE
  5
19D
  8
0
 62
     0
 10
41.607461613781588
 20
-0.0000002731896984
 30
0.0
 11
62.996990058611907
 21
21.38952817164062
 31
0.0
  0
LINE
  5
19E
  8
0
 62
     0
 10
57.477729103090951
 20
18.115331246386909
 30
0.0
 11
60.067486518519161
 21
20.705088661815122
 31
0.0
  0
LINE
  5
19F
  8
0
 62
     0
 10
39.362397583514337
 20
-0.0000002731896984
 30
0.0
 11
43.229472374507957
 21
3.8670745178039279
 31
0.0
  0
LINE
  5
1A0
  8
0
 62
     0
 10
37.117333553247022
 20
-0.0000002731897553
 30
0.0
 11
40.198165483656737
 21
3.0808316572199601
 31
0.0
  0
LINE
  5
1A1
  8
0
 62
     0
 10
34.872269522979771
 20
-0.0000002731896984
 30
0.0
 11
37.872269522979941
 21
2.9999997268104721
 31
0.0
  0
LINE
  5
1A2
  8
0
 62
     0
 10
32.627205492712498
 20
-0.0000002731896984
 30
0.0
 11
35.627205492712619
 21
2.999999726810358
 31
0.0
  0
LINE
  5
1A3
  8
0
 62
     0
 10
32.999999613143132
 20
2.6178578775082419
 30
0.0
 11
33.382141462445297
 21
2.9999997268104148
 31
0.0
  0
LINE
  5
1A4
  8
0
 62
     0
 10
30.38214146244519
 20
-0.0000002731896984
 30
0.0
 11
32.382141462445247
 21
1.999999726810358
 31
0.0
  0
LINE
  5
1A5
  8
0
 62
     0
 10
28.137077432177819
 20
-0.0000002731897553
 30
0.0
 11
30.15558939599169
 21
2.0185116906241092
 31
0.0
  0
LINE
  5
1A6
  8
0
 62
     0
 10
28.499999613143238
 20
2.6079859380429289
 30
0.0
 11
28.892013401910621
 21
2.999999726810358
 31
0.0
  0
LINE
  5
1A7
  8
0
 62
     0
 10
25.8920134019105
 20
-0.0000002731897553
 30
0.0
 11
28.027458954528189
 21
2.1354452794279259
 31
0.0
  0
LINE
  5
1A8
  8
0
 62
     0
 10
23.646949371643242
 20
-0.0000002731897553
 30
0.0
 11
25.764714269709941
 21
2.1177646248769402
 31
0.0
  0
LINE
  5
1A9
  8
0
 62
     0
 10
21.401885341375991
 20
-0.0000002731897553
 30
0.0
 11
23.401529646534641
 21
1.999644031968898
 31
0.0
  0
LINE
  5
1AA
  8
0
 62
     0
 10
19.156821311108729
 20
-0.0000002731897553
 30
0.0
 11
21.191921522608769
 21
2.0350999383102808
 31
0.0
  0
LINE
  5
1AB
  8
0
 62
     0
 10
16.91175728084141
 20
-0.0000002731897553
 30
0.0
 11
19.011030184155061
 21
2.0992726301238909
 31
0.0
  0
LINE
  5
1AC
  8
0
 62
     0
 10
14.66669325057415
 20
-0.0000002731896984
 30
0.0
 11
16.80607123664231
 21
2.1393777128784559
 31
0.0
  0
LINE
  5
1AD
  8
0
 62
     0
 10
12.421629220306841
 20
-0.0000002731897553
 30
0.0
 11
14.46734583616705
 21
2.0457163426704592
 31
0.0
  0
LINE
  5
1AE
  8
0
 62
     0
 10
10.176565190039581
 20
-0.0000002731896984
 30
0.0
 11
12.17905011757597
 21
2.002484654346687
 31
0.0
  0
LINE
  5
1AF
  8
0
 62
     0
 10
7.9315011597722673
 20
-0.0000002731896984
 30
0.0
 11
10.049893911937261
 21
2.118392478975295
 31
0.0
  0
LINE
  5
1B0
  8
0
 62
     0
 10
8.4999996131432454
 20
2.8135622104485369
 30
0.0
 11
10.579506099312081
 21
4.8930686966173758
 31
0.0
  0
LINE
  5
1B1
  8
0
 62
     0
 10
5.6864371295049523
 20
-0.0000002731897553
 30
0.0
 11
7.6864371295051219
 21
1.999999726810415
 31
0.0
  0
LINE
  5
1B2
  8
0
 62
     0
 10
7.7884870286210912
 20
4.347113656193641
 30
0.0
 11
10.55758238017097
 21
7.1162090077435201
 31
0.0
  0
LINE
  5
1B3
  8
0
 62
     0
 10
3.4413730992376941
 20
-0.0000002731897553
 30
0.0
 11
5.44137309923775
 21
1.9999997268103009
 31
0.0
  0
LINE
  5
1B4
  8
0
 62
     0
 10
7.7746203452080058
 20
6.5783110030478724
 30
0.0
 11
10.51007380148269
 21
9.3137644593225541
 31
0.0
  0
LINE
  5
1B5
  8
0
 62
     0
 10
1.196309068970435
 20
-0.0000002731896984
 30
0.0
 11
3.196309068970606
 21
1.9999997268104719
 31
0.0
  0
LINE
  5
1B6
  8
0
 62
     0
 10
7.7883763875361183
 20
8.8371310756432422
 30
0.0
 11
8.9128682643104185
 21
9.9616229524174855
 31
0.0
  0
LINE
  5
1B7
  8
0
 62
     0
 10
0.4999996131432454
 20
1.5487543012503691
 30
0.0
 11
0.9512450387032345
 21
1.999999726810358
 31
0.0
  0
ENDBLK
  5
1B9
  8
0
  0
ENDSEC
  0
SECTION
  2
ENTITIES
  0
ARC
  5
91
  8
0
 10
301.22131665138079
 20
487.6752154955721
 30
0.0
 40
0.25
 50
225.80217750681729
 51
270.0
  0
ARC
  5
92
  8
0
 10
300.87274772317852
 20
487.31674694424322
 30
0.0
 40
0.2500000000000006
 50
45.802177506808448
 51
134.42700400080921
  0
LINE
  5
93
  8
0
 10
304.39180301979508
 20
487.4252154955721
 30
0.0
 11
301.22131665138079
 21
487.4252154955721
 31
0.0
  0
ARC
  5
94
  8
0
 10
300.52274772317838
 20
487.6738183656704
 30
0.0
 40
0.2500000000000205
 50
225.57299599920921
 51
314.42700400080918
  0
LINE
  5
95
  8
0
 10
304.39180301979508
 20
489.50521549557197
 30
0.0
 11
304.39180301979508
 21
487.4252154955721
 31
0.0
  0
ARC
  5
96
  8
0
 10
300.17274772317842
 20
487.31674694424322
 30
0.0
 40
0.2500000000000006
 50
45.572995999172377
 51
134.42700400079991
  0
ARC
  5
97
  8
0
 10
304.29180301979511
 20
489.50521549557197
 30
0.0
 40
0.0999999999999943
 50
0.0
 51
90.0
  0
ARC
  5
98
  8
0
 10
299.8227477231784
 20
487.6738183656704
 30
0.0
 40
0.2500000000000205
 50
225.57299599920921
 51
314.4270040008185
  0
LINE
  5
99
  8
0
 10
303.91615034983602
 20
489.60521549557211
 30
0.0
 11
304.29180301979511
 21
489.60521549557211
 31
0.0
  0
ARC
  5
9A
  8
0
 10
299.47274772317849
 20
487.31674694424322
 30
0.0
 40
0.2499999999999807
 50
45.572995999190979
 51
134.1978224932009
  0
ARC
  5
9B
  8
0
 10
303.91615034983607
 20
489.85521549557211
 30
0.0
 40
0.2499999999999994
 50
160.8518625420534
 51
269.99999999998698
  0
ARC
  5
9C
  8
0
 10
299.1241787949761
 20
487.6752154955721
 30
0.0
 40
0.249999999999993
 50
269.99999999998698
 51
314.19782249317342
  0
LINE
  5
9D
  8
0
 10
304.26859162435392
 20
491.63241432667502
 30
0.0
 11
303.67998193377741
 21
489.93721841781468
 31
0.0
  0
LINE
  5
9E
  8
0
 10
299.1241787949761
 20
487.4252154955721
 30
0.0
 11
296.64180301979508
 21
487.4252154955721
 31
0.0
  0
ARC
  5
9F
  8
0
 10
304.17412425793037
 20
491.66521549557223
 30
0.0
 40
0.0999999999999943
 50
340.85186254203302
 51
90.0
  0
ARC
  5
A0
  8
0
 10
296.64180301979508
 20
487.1752154955721
 30
0.0
 40
0.25
 50
90.0
 51
180.0
  0
LINE
  5
A1
  8
0
 10
303.91615034983607
 20
491.76521549557208
 30
0.0
 11
304.17412425793037
 21
491.76521549557208
 31
0.0
  0
LINE
  5
A2
  8
0
 10
296.39180301979508
 20
487.1752154955721
 30
0.0
 11
296.39180301979508
 21
486.0502154955721
 31
0.0
  0
ARC
  5
A3
  8
0
 10
303.91615034983607
 20
492.01521549557208
 30
0.0
 40
0.24999999999999
 50
160.85186254206999
 51
270.0
  0
ARC
  5
A4
  8
0
 10
296.26680301979508
 20
486.0502154955721
 30
0.0
 40
0.125
 50
270.0
 51
0.0
  0
LINE
  5
A5
  8
0
 10
304.26859162435392
 20
493.7924143266751
 30
0.0
 11
303.67998193377741
 21
492.0972184178147
 31
0.0
  0
LINE
  5
A6
  8
0
 10
296.26680301979508
 20
485.9252154955721
 30
0.0
 11
296.14180301979508
 21
485.9252154955721
 31
0.0
  0
ARC
  5
A7
  8
0
 10
304.17412425793037
 20
493.82521549557208
 30
0.0
 40
0.0999999999999943
 50
340.85186254209458
 51
90.0
  0
ARC
  5
A8
  8
0
 10
296.14180301979508
 20
485.67521549557199
 30
0.0
 40
0.25
 50
90.0
 51
270.0
  0
LINE
  5
A9
  8
0
 10
303.91705814840361
 20
493.92521549557199
 30
0.0
 11
304.17412425793037
 21
493.9252154955721
 31
0.0
  0
LINE
  5
AA
  8
0
 10
296.14180301979508
 20
485.42521549557199
 30
0.0
 11
358.64180301979502
 21
485.42521549557199
 31
0.0
  0
ARC
  5
AB
  8
0
 10
303.9170581484035
 20
494.1752154955721
 30
0.0
 40
0.2500000000000002
 50
168.4630409671818
 51
270.00000000001302
  0
ARC
  5
AC
  8
0
 10
358.64180301979502
 20
485.67521549557199
 30
0.0
 40
0.2499999999999432
 50
270.0
 51
0.0
  0
ARC
  5
AD
  8
0
 10
305.14180301979508
 20
493.92521549557199
 30
0.0
 40
1.4999999999999949
 50
11.536959032816011
 51
168.46304096718401
  0
LINE
  5
AE
  8
0
 10
358.89180301979502
 20
485.67521549557199
 30
0.0
 11
358.89180301979508
 21
506.7593144492692
 31
0.0
  0
ARC
  5
AF
  8
0
 10
306.36654789118671
 20
494.1752154955721
 30
0.0
 40
0.25
 50
269.99999999998698
 51
11.53695903280536
  0
ARC
  5
B0
  8
0
 10
358.39180293217061
 20
506.75996329923652
 30
0.0
 40
0.5000005086305573
 50
359.92564732543832
 51
108.2331604529067
  0
LINE
  5
B1
  8
0
 10
306.10948178165972
 20
493.9252154955721
 30
0.0
 11
306.3665478911866
 21
493.9252154955721
 31
0.0
  0
ARC
  5
B2
  8
0
 10
361.2070890939321
 20
498.2139106339169
 30
0.0
 40
9.4978253752869897
 50
108.2331902251892
 51
140.37242219347141
  0
ARC
  5
B3
  8
0
 10
306.10948178165972
 20
493.82521549557208
 30
0.0
 40
0.1000000000000067
 50
90.0
 51
199.14813745790539
  0
ARC
  5
B4
  8
0
 10
291.56047661265711
 20
548.25116667195823
 30
0.0
 40
76.284984767547542
 50
312.53899819162092
 51
324.7940601563277
  0
LINE
  5
B5
  8
0
 10
306.6036241058128
 20
492.0972184178147
 30
0.0
 11
306.01501441523629
 21
493.7924143266751
 31
0.0
  0
ARC
  5
B6
  8
0
 10
334.72128443594971
 20
500.01954118584382
 30
0.0
 40
11.59456060806054
 50
269.63527194714038
 51
316.53198104372927
  0
ARC
  5
B7
  8
0
 10
306.36745568975402
 20
492.01521549557208
 30
0.0
 40
0.25
 50
270.0
 51
19.148137457930019
  0
LINE
  5
B8
  8
0
 10
334.64747737738668
 20
488.42521549557222
 30
0.0
 11
329.14180301979508
 21
488.42521549557222
 31
0.0
  0
LINE
  5
B9
  8
0
 10
306.10948178165972
 20
491.76521549557208
 30
0.0
 11
306.36745568975402
 21
491.76521549557208
 31
0.0
  0
ARC
  5
BA
  8
0
 10
329.14180301979508
 20
488.17521549557199
 30
0.0
 40
0.2500000000001137
 50
90.0
 51
179.99999999997391
  0
ARC
  5
BB
  8
0
 10
306.10948178165972
 20
491.66521549557223
 30
0.0
 40
0.1000000000000067
 50
90.0
 51
199.1481374579669
  0
LINE
  5
BC
  8
0
 10
328.89180301979502
 20
488.1752154955721
 30
0.0
 11
328.89180301979508
 21
487.6752154955721
 31
0.0
  0
LINE
  5
BD
  8
0
 10
306.6036241058128
 20
489.93721841781468
 30
0.0
 11
306.01501441523629
 21
491.63241432667502
 31
0.0
  0
ARC
  5
BE
  8
0
 10
328.64180301979508
 20
487.6752154955721
 30
0.0
 40
0.25
 50
270.0
 51
0.0
  0
ARC
  5
BF
  8
0
 10
306.36745568975419
 20
489.85521549557211
 30
0.0
 40
0.2499999999999716
 50
270.0
 51
19.14813745794665
  0
LINE
  5
C0
  8
0
 10
328.64180301979508
 20
487.4252154955721
 30
0.0
 11
326.14180301979519
 21
487.4252154955721
 31
0.0
  0
LINE
  5
C1
  8
0
 10
305.99180301979499
 20
489.60521549557211
 30
0.0
 11
306.36745568975419
 21
489.60521549557211
 31
0.0
  0
ARC
  5
C2
  8
0
 10
326.14180301979519
 20
487.6752154955721
 30
0.0
 40
0.25
 50
180.0
 51
270.0
  0
ARC
  5
C3
  8
0
 10
305.99180301979499
 20
489.50521549557197
 30
0.0
 40
0.0999999999999943
 50
90.0
 51
180.0
  0
LINE
  5
C4
  8
0
 10
325.89180301979508
 20
487.6752154955721
 30
0.0
 11
325.89180301979508
 21
488.1752154955721
 31
0.0
  0
LINE
  5
C5
  8
0
 10
305.89180301979508
 20
487.6757758627773
 30
0.0
 11
305.89180301979502
 21
489.50521549557197
 31
0.0
  0
ARC
  5
C6
  8
0
 10
325.64180301979508
 20
488.1752154955721
 30
0.0
 40
0.25
 50
0.0
 51
90.0
  0
ARC
  5
C7
  8
0
 10
306.09180301979472
 20
487.67577586277741
 30
0.0
 40
0.1999999999996649
 50
180.0000000000488
 51
307.12497852960013
  0
LINE
  5
C8
  8
0
 10
325.64180301979508
 20
488.42521549557222
 30
0.0
 11
324.64180301979508
 21
488.42521549557222
 31
0.0
  0
ARC
  5
C9
  8
0
 10
306.36340305922278
 20
487.31698146680338
 30
0.0
 40
0.2500000000000011
 50
45.572995999190788
 51
127.1249785295521
  0
ARC
  5
CA
  8
0
 10
324.64180301979508
 20
488.1752154955721
 30
0.0
 40
0.25
 50
90.0
 51
180.0
  0
ARC
  5
CB
  8
0
 10
306.7134030592228
 20
487.67405288823051
 30
0.0
 40
0.2500000000000213
 50
225.57299599919989
 51
314.42700400080008
  0
LINE
  5
CC
  8
0
 10
324.39180301979508
 20
488.1752154955721
 30
0.0
 11
324.39180301979508
 21
487.62463950082042
 31
0.0
  0
ARC
  5
CD
  8
0
 10
307.06340305922271
 20
487.31698146680338
 30
0.0
 40
0.2499999999999812
 50
45.572995999200103
 51
134.42700400079991
  0
ARC
  5
CE
  8
0
 10
324.19180301979509
 20
487.62463950082042
 30
0.0
 40
0.1999999999999886
 50
223.13223972586781
 51
0.0
  0
ARC
  5
CF
  8
0
 10
307.41340305922279
 20
487.67405288823051
 30
0.0
 40
0.2500000000000213
 50
225.5729959991906
 51
314.42700400079082
  0
ARC
  5
D0
  8
0
 10
323.86340305922198
 20
487.31698146680338
 30
0.0
 40
0.249999999999691
 50
43.132239725786832
 51
134.42700400073471
  0
ARC
  5
D1
  8
0
 10
307.76340305922281
 20
487.31698146680338
 30
0.0
 40
0.2499999999999812
 50
45.572995999200103
 51
134.4270040008185
  0
ARC
  5
D2
  8
0
 10
323.51340305922253
 20
487.67405288823039
 30
0.0
 40
0.2499999999999609
 50
225.57299599920009
 51
314.42700400079991
  0
ARC
  5
D3
  8
0
 10
308.11340305922272
 20
487.67405288823051
 30
0.0
 40
0.2500000000000011
 50
225.57299599920921
 51
314.42700400080008
  0
ARC
  5
D4
  8
0
 10
323.16340305922262
 20
487.31698146680338
 30
0.0
 40
0.2499999999999812
 50
45.572995999200103
 51
134.4270040008185
  0
ARC
  5
D5
  8
0
 10
308.46340305922268
 20
487.31698146680338
 30
0.0
 40
0.2499999999999812
 50
45.572995999200103
 51
134.42700400080921
  0
ARC
  5
D6
  8
0
 10
322.81340305922248
 20
487.67405288823051
 30
0.0
 40
0.2500000000000011
 50
225.5729959991906
 51
314.42700400079082
  0
ARC
  5
D7
  8
0
 10
308.81340305922282
 20
487.67405288823051
 30
0.0
 40
0.2500000000000011
 50
225.5729959991906
 51
314.42700400079082
  0
ARC
  5
D8
  8
0
 10
322.46340305922251
 20
487.31698146680338
 30
0.0
 40
0.2499999999999812
 50
45.572995999200103
 51
134.42700400080921
  0
ARC
  5
D9
  8
0
 10
309.16340305922279
 20
487.31698146680338
 30
0.0
 40
0.2499999999999812
 50
45.572995999200103
 51
134.4270040008185
  0
ARC
  5
DA
  8
0
 10
322.11340305922249
 20
487.67405288823051
 30
0.0
 40
0.2500000000000011
 50
225.57299599920921
 51
314.42700400080008
  0
ARC
  5
DB
  8
0
 10
309.5134030592227
 20
487.67405288823051
 30
0.0
 40
0.2500000000000011
 50
225.57299599920921
 51
314.42700400080008
  0
ARC
  5
DC
  8
0
 10
321.76340305922258
 20
487.31698146680338
 30
0.0
 40
0.2499999999999812
 50
45.572995999200103
 51
134.4270040008185
  0
ARC
  5
DD
  8
0
 10
309.86340305922272
 20
487.31698146680338
 30
0.0
 40
0.2499999999999812
 50
45.572995999200103
 51
134.42700400080921
  0
ARC
  5
DE
  8
0
 10
321.41340305922262
 20
487.67405288823051
 30
0.0
 40
0.2500000000000011
 50
225.5729959991906
 51
314.42700400079082
  0
ARC
  5
DF
  8
0
 10
310.21340305922268
 20
487.67405288823051
 30
0.0
 40
0.2500000000000011
 50
225.5729959991906
 51
314.42700400079082
  0
ARC
  5
E0
  8
0
 10
321.06340305922248
 20
487.31698146680338
 30
0.0
 40
0.2499999999999812
 50
45.572995999200103
 51
134.42700400080921
  0
ARC
  5
E1
  8
0
 10
310.56340305922282
 20
487.31698146680338
 30
0.0
 40
0.2499999999999812
 50
45.572995999200103
 51
134.4270040008185
  0
ARC
  5
E2
  8
0
 10
320.71340305922251
 20
487.67405288823051
 30
0.0
 40
0.2500000000000011
 50
225.57299599920921
 51
314.42700400080008
  0
ARC
  5
E3
  8
0
 10
310.91340305922267
 20
487.67405288823051
 30
0.0
 40
0.2500000000000011
 50
225.57299599920921
 51
314.42700400080008
  0
ARC
  5
E4
  8
0
 10
320.36340305922261
 20
487.31698146680338
 30
0.0
 40
0.2499999999999812
 50
45.572995999200103
 51
134.4270040008185
  0
ARC
  5
E5
  8
0
 10
311.2634030592227
 20
487.31698146680338
 30
0.0
 40
0.2499999999999812
 50
45.572995999200103
 51
134.42700400080921
  0
ARC
  5
E6
  8
0
 10
320.01340305922258
 20
487.67405288823051
 30
0.0
 40
0.2500000000000011
 50
225.5729959991906
 51
314.42700400079082
  0
ARC
  5
E7
  8
0
 10
311.61340305922272
 20
487.67405288823051
 30
0.0
 40
0.2500000000000011
 50
225.5729959991906
 51
314.42700400079082
  0
ARC
  5
E8
  8
0
 10
319.66340305922262
 20
487.31698146680338
 30
0.0
 40
0.2499999999999812
 50
45.572995999200103
 51
134.42700400080921
  0
ARC
  5
E9
  8
0
 10
311.96340305922268
 20
487.31698146680338
 30
0.0
 40
0.2499999999999812
 50
45.572995999200103
 51
134.4270040008185
  0
ARC
  5
EA
  8
0
 10
319.31340305922248
 20
487.67405288823051
 30
0.0
 40
0.2500000000000011
 50
225.57299599920921
 51
314.42700400080008
  0
ARC
  5
EB
  8
0
 10
312.31340305922259
 20
487.67405288823051
 30
0.0
 40
0.2500000000000011
 50
225.57299599920921
 51
314.42700400080008
  0
ARC
  5
EC
  8
0
 10
318.96340305922263
 20
487.31698146680338
 30
0.0
 40
0.2499999999999812
 50
45.572995999200103
 51
134.4270040008185
  0
ARC
  5
ED
  8
0
 10
312.66340305922267
 20
487.31698146680338
 30
0.0
 40
0.2499999999999812
 50
45.572995999200103
 51
134.42700400080921
  0
ARC
  5
EE
  8
0
 10
318.61340305922261
 20
487.67405288823051
 30
0.0
 40
0.2500000000000011
 50
225.5729959991906
 51
314.42700400079082
  0
ARC
  5
EF
  8
0
 10
313.0134030592227
 20
487.67405288823051
 30
0.0
 40
0.2500000000000011
 50
225.5729959991906
 51
314.42700400079082
  0
ARC
  5
F0
  8
0
 10
318.26340305922258
 20
487.31698146680338
 30
0.0
 40
0.2499999999999812
 50
45.572995999200103
 51
134.42700400080921
  0
ARC
  5
F1
  8
0
 10
313.36340305922272
 20
487.31698146680338
 30
0.0
 40
0.2499999999999812
 50
45.572995999200103
 51
134.4270040008185
  0
ARC
  5
F2
  8
0
 10
317.9134030592225
 20
487.67405288823051
 30
0.0
 40
0.2500000000000011
 50
225.57299599920921
 51
314.42700400080008
  0
ARC
  5
F3
  8
0
 10
313.71340305922263
 20
487.67405288823051
 30
0.0
 40
0.2500000000000011
 50
225.57299599920921
 51
314.42700400080008
  0
ARC
  5
F4
  8
0
 10
317.56340305922271
 20
487.31698146680338
 30
0.0
 40
0.2499999999999812
 50
45.572995999200103
 51
134.4270040008185
  0
ARC
  5
F5
  8
0
 10
314.06340305922259
 20
487.31698146680338
 30
0.0
 40
0.2499999999999812
 50
45.572995999200103
 51
134.42700400080921
  0
ARC
  5
F6
  8
0
 10
317.21340305922263
 20
487.67405288823051
 30
0.0
 40
0.2500000000000011
 50
225.5729959991906
 51
314.42700400079082
  0
ARC
  5
F7
  8
0
 10
314.41340305922267
 20
487.67405288823051
 30
0.0
 40
0.2500000000000011
 50
225.5729959991906
 51
314.42700400079082
  0
ARC
  5
F8
  8
0
 10
316.86340305922261
 20
487.31698146680338
 30
0.0
 40
0.2499999999999812
 50
45.572995999200103
 51
134.42700400080921
  0
ARC
  5
F9
  8
0
 10
314.7634030592227
 20
487.31698146680338
 30
0.0
 40
0.2499999999999812
 50
45.572995999200103
 51
134.4270040008185
  0
ARC
  5
FA
  8
0
 10
316.51340305922258
 20
487.67405288823051
 30
0.0
 40
0.2500000000000011
 50
225.57299599920921
 51
314.42700400080008
  0
ARC
  5
FB
  8
0
 10
315.11340305922261
 20
487.67405288823051
 30
0.0
 40
0.2500000000000011
 50
225.57299599920921
 51
314.42700400080008
  0
ARC
  5
FC
  8
0
 10
316.16340305922267
 20
487.31698146680338
 30
0.0
 40
0.2499999999999812
 50
45.572995999200103
 51
134.4270040008185
  0
ARC
  5
FD
  8
0
 10
315.46340305922263
 20
487.31698146680338
 30
0.0
 40
0.2499999999999812
 50
45.572995999200103
 51
134.42700400080921
  0
ARC
  5
FE
  8
0
 10
315.81340305922259
 20
487.67405288823051
 30
0.0
 40
0.2500000000000011
 50
225.5729959991906
 51
314.42700400079082
  0
ARC
  5
FF
  8
0
 10
291.56048186091999
 20
548.25116153297574
 30
0.0
 40
78.284977432748249
 50
310.03036607007567
 51
324.73306494887771
  0
ARC
  5
100
  8
0
 10
361.22365108235391
 20
498.18765212519241
 30
0.0
 40
7.5273339612211441
 50
133.43877899782541
 51
139.7577180507329
  0
ARC
  5
101
  8
0
 10
342.23446832114371
 20
487.92521549557222
 30
0.0
 40
0.5
 50
130.0303660700832
 51
270.0
  0
ARC
  5
102
  8
0
 10
356.39180301979508
 20
503.29026585767139
 30
0.0
 40
0.5
 50
0.0
 51
133.43877899781751
  0
LINE
  5
103
  8
0
 10
356.39180301979508
 20
487.4252154955721
 30
0.0
 11
342.23446832114371
 21
487.42521549557222
 31
0.0
  0
LINE
  5
104
  8
0
 10
356.89180301979508
 20
503.29026585767139
 30
0.0
 11
356.89180301979508
 21
487.9252154955721
 31
0.0
  0
ARC
  5
105
  8
0
 10
356.39180301979508
 20
487.9252154955721
 30
0.0
 40
0.5000000000000285
 50
270.0
 51
0.0
  0
ENDSEC
  0
EOF
