  0
SECTION
  2
HEADER
  9
$ACADVER
  1
AC1009
  9
$INSBASE
 10
0.0
 20
0.0
 30
0.0
  9
$EXTMIN
 10
494.51385653404742
 20
781.78216712896506
 30
-0.0015258207003583
  9
$EXTMAX
 10
552.83294790987043
 20
797.57570012679298
 30
0.0000000349246037
  9
$LIMMIN
 10
0.0
 20
0.0
  9
$LIMMAX
 10
420.0
 20
297.0
  9
$ORTHOMODE
 70
     0
  9
$REGENMODE
 70
     1
  9
$FILLMODE
 70
     1
  9
$QTEXTMODE
 70
     0
  9
$MIRRTEXT
 70
     0
  9
$DRAGMODE
 70
     2
  9
$LTSCALE
 40
1.0
  9
$OSMODE
 70
  3071
  9
$ATTMODE
 70
     1
  9
$TEXTSIZE
 40
2.5
  9
$TRACEWID
 40
1.0
  9
$TEXTSTYLE
  7
STANDARD
  9
$CLAYER
  8
0
  9
$CELTYPE
  6
BYLAYER
  9
$CECOLOR
 62
   256
  9
$DIMSCALE
 40
1.0
  9
$DIMASZ
 40
2.5
  9
$DIMEXO
 40
0.625
  9
$DIMDLI
 40
3.75
  9
$DIMRND
 40
0.0
  9
$DIMDLE
 40
0.0
  9
$DIMEXE
 40
1.25
  9
$DIMTP
 40
0.0
  9
$DIMTM
 40
0.0
  9
$DIMTXT
 40
2.5
  9
$DIMCEN
 40
2.5
  9
$DIMTSZ
 40
0.0
  9
$DIMTOL
 70
     0
  9
$DIMLIM
 70
     0
  9
$DIMTIH
 70
     0
  9
$DIMTOH
 70
     0
  9
$DIMSE1
 70
     0
  9
$DIMSE2
 70
     0
  9
$DIMTAD
 70
     1
  9
$DIMZIN
 70
     8
  9
$DIMBLK
  1

  9
$DIMASO
 70
     1
  9
$DIMSHO
 70
     1
  9
$DIMPOST
  1

  9
$DIMAPOST
  1

  9
$DIMALT
 70
     0
  9
$DIMALTD
 70
     3
  9
$DIMALTF
 40
0.03937007874016
  9
$DIMLFAC
 40
1.0
  9
$DIMTOFL
 70
     1
  9
$DIMTVP
 40
0.0
  9
$DIMTIX
 70
     0
  9
$DIMSOXD
 70
     0
  9
$DIMSAH
 70
     0
  9
$DIMBLK1
  1

  9
$DIMBLK2
  1

  9
$DIMSTYLE
  2
ISO-25
  9
$DIMCLRD
 70
     0
  9
$DIMCLRE
 70
     0
  9
$DIMCLRT
 70
     0
  9
$DIMTFAC
 40
1.0
  9
$DIMGAP
 40
0.625
  9
$LUNITS
 70
     2
  9
$LUPREC
 70
     4
  9
$SKETCHINC
 40
1.0
  9
$FILLETRAD
 40
0.0
  9
$AUNITS
 70
     0
  9
$AUPREC
 70
     0
  9
$MENU
  1
.
  9
$ELEVATION
 40
0.0
  9
$PELEVATION
 40
0.0
  9
$THICKNESS
 40
0.0
  9
$LIMCHECK
 70
     0
  9
$BLIPMODE
 70
     0
  9
$CHAMFERA
 40
0.0
  9
$CHAMFERB
 40
0.0
  9
$SKPOLY
 70
     0
  9
$TDCREATE
 40
2455840.6477018981
  9
$TDUPDATE
 40
2455840.6478087958
  9
$TDINDWG
 40
0.0001071296
  9
$TDUSRTIMER
 40
0.0001071296
  9
$USRTIMER
 70
     1
  9
$ANGBASE
 50
0.0
  9
$ANGDIR
 70
     0
  9
$PDMODE
 70
     0
  9
$PDSIZE
 40
0.0
  9
$PLINEWID
 40
0.0
  9
$COORDS
 70
     0
  9
$SPLFRAME
 70
     0
  9
$SPLINETYPE
 70
     6
  9
$SPLINESEGS
 70
     8
  9
$ATTDIA
 70
     0
  9
$ATTREQ
 70
     1
  9
$HANDLING
 70
     1
  9
$HANDSEED
  5
D4
  9
$SURFTAB1
 70
     6
  9
$SURFTAB2
 70
     6
  9
$SURFTYPE
 70
     6
  9
$SURFU
 70
     6
  9
$SURFV
 70
     6
  9
$UCSNAME
  2

  9
$UCSORG
 10
0.0
 20
0.0
 30
0.0
  9
$UCSXDIR
 10
1.0
 20
0.0
 30
0.0
  9
$UCSYDIR
 10
0.0
 20
1.0
 30
0.0
  9
$PUCSNAME
  2

  9
$PUCSORG
 10
0.0
 20
0.0
 30
0.0
  9
$PUCSXDIR
 10
1.0
 20
0.0
 30
0.0
  9
$PUCSYDIR
 10
0.0
 20
1.0
 30
0.0
  9
$USERI1
 70
     0
  9
$USERI2
 70
     0
  9
$USERI3
 70
     0
  9
$USERI4
 70
     0
  9
$USERI5
 70
     0
  9
$USERR1
 40
0.0
  9
$USERR2
 40
0.0
  9
$USERR3
 40
0.0
  9
$USERR4
 40
0.0
  9
$USERR5
 40
0.0
  9
$WORLDVIEW
 70
     1
  9
$SHADEDGE
 70
     3
  9
$SHADEDIF
 70
    70
  9
$TILEMODE
 70
     1
  9
$MAXACTVP
 70
    64
  9
$PLIMCHECK
 70
     0
  9
$PEXTMIN
 10
0.0
 20
0.0
 30
0.0
  9
$PEXTMAX
 10
0.0
 20
0.0
 30
0.0
  9
$PLIMMIN
 10
0.0
 20
0.0
  9
$PLIMMAX
 10
12.0
 20
9.0
  9
$UNITMODE
 70
     0
  9
$VISRETAIN
 70
     1
  9
$PLINEGEN
 70
     0
  9
$PSLTSCALE
 70
     1
  0
ENDSEC
  0
SECTION
  2
TABLES
  0
TABLE
  2
VPORT
 70
     2
  0
VPORT
  2
*ACTIVE
 70
     0
 10
0.0
 20
0.0
 11
1.0
 21
1.0
 12
523.6734022219589
 22
789.67893362787902
 13
0.0
 23
0.0
 14
10.0
 24
10.0
 15
10.0
 25
10.0
 16
0.0
 26
0.0
 36
1.0
 17
0.0
 27
0.0
 37
0.0
 40
25.662992323234061
 41
2.2817337461300311
 42
50.0
 43
0.0
 44
0.0
 50
0.0
 51
0.0
 71
     0
 72
  1000
 73
     1
 74
     3
 75
     0
 76
     0
 77
     0
 78
     0
  0
ENDTAB
  0
TABLE
  2
LTYPE
 70
     1
  0
LTYPE
  2
CONTINUOUS
 70
     0
  3
Solid line
 72
    65
 73
     0
 40
0.0
  0
ENDTAB
  0
TABLE
  2
LAYER
 70
     1
  0
LAYER
  2
0
 70
     0
 62
     7
  6
CONTINUOUS
  0
ENDTAB
  0
TABLE
  2
STYLE
 70
     2
  0
STYLE
  2
STANDARD
 70
     0
 40
0.0
 41
1.0
 50
0.0
 71
     0
 42
2.5
  3
txt
  4

  0
STYLE
  2
ROMANT
 70
     0
 40
2.5
 41
1.0
 50
15.0
 71
     0
 42
2.5
  3
romant.shx
  4

  0
ENDTAB
  0
TABLE
  2
VIEW
 70
     0
  0
ENDTAB
  0
TABLE
  2
UCS
 70
     0
  0
ENDTAB
  0
TABLE
  2
APPID
 70
     1
  0
APPID
  2
ACAD
 70
     0
  0
ENDTAB
  0
TABLE
  2
DIMSTYLE
 70
     3
  0
DIMSTYLE
  2
ISO-25
 70
     0
  3

  4

  5

  6

  7

 40
1.0
 41
2.5
 42
0.625
 43
3.75
 44
1.25
 45
0.0
 46
0.0
 47
0.0
 48
0.0
140
2.5
141
2.5
142
0.0
143
0.03937007874016
144
1.0
145
0.0
146
1.0
147
0.625
 71
     0
 72
     0
 73
     0
 74
     0
 75
     0
 76
     0
 77
     1
 78
     8
170
     0
171
     3
172
     1
173
     0
174
     0
175
     0
176
     0
177
     0
178
     0
  0
DIMSTYLE
  2
STANDARD
 70
     0
  3

  4

  5

  6

  7

 40
1.0
 41
0.18
 42
0.0625
 43
0.38
 44
0.18
 45
0.0
 46
0.0
 47
0.0
 48
0.0
140
0.18
141
0.09
142
0.0
143
25.399999999999999
144
1.0
145
0.0
146
1.0
147
0.09
 71
     0
 72
     0
 73
     1
 74
     1
 75
     0
 76
     0
 77
     0
 78
     0
170
     0
171
     2
172
     0
173
     0
174
     0
175
     0
176
     0
177
     0
178
     0
  0
DIMSTYLE
  2
ISO-25_1_E_1
 70
     0
  3

  4

  5

  6

  7

 40
1.0
 41
2.5
 42
0.0
 43
3.75
 44
0.5
 45
0.0
 46
0.0
 47
0.0
 48
0.0
140
1.0
141
0.2
142
0.0
143
0.03937007874016
144
1.0
145
0.0
146
1.0
147
0.4
 71
     0
 72
     0
 73
     0
 74
     0
 75
     0
 76
     0
 77
     1
 78
     8
170
     0
171
     3
172
     0
173
     0
174
     0
175
     0
176
   242
177
   242
178
   242
  0
ENDTAB
  0
ENDSEC
  0
SECTION
  2
BLOCKS
  0
BLOCK
  8
0
  2
$MODEL_SPACE
 70
     0
 10
0.0
 20
0.0
 30
0.0
  3
$MODEL_SPACE
  1

  0
ENDBLK
  5
21
  8
0
  0
BLOCK
 67
     1
  8
0
  2
$PAPER_SPACE
 70
     0
 10
0.0
 20
0.0
 30
0.0
  3
$PAPER_SPACE
  1

  0
ENDBLK
  5
53
 67
     1
  8
0
  0
BLOCK
  8
0
  2
*X2
 70
     1
 10
0.0
 20
0.0
 30
0.0
  3
*X2
  1

  0
LINE
  5
A9
  8
0
 62
     0
 10
53.146960308891842
 20
0.2565545617796943
 30
0.0
 11
56.261714347935992
 21
3.3713086008238511
 31
0.0
  0
LINE
  5
AA
  8
0
 62
     0
 10
51.179454683297138
 20
0.5341129664523692
 30
0.0
 11
57.663963054388489
 21
7.0186213375436628
 31
0.0
  0
LINE
  5
AB
  8
0
 62
     0
 10
49.211949057702391
 20
0.8116713711248735
 30
0.0
 11
57.215141299557899
 21
8.814863612980389
 31
0.0
  0
LINE
  5
AC
  8
0
 62
     0
 10
47.24444343210763
 20
1.089229775797377
 30
0.0
 11
55.593525100904117
 21
9.4383114445938645
 31
0.0
  0
LINE
  5
AD
  8
0
 62
     0
 10
45.276937806512933
 20
1.3667881804699391
 30
0.0
 11
53.971908902250391
 21
10.0617592762074
 31
0.0
  0
LINE
  5
AE
  8
0
 62
     0
 10
43.309432180918122
 20
1.6443465851425001
 30
0.0
 11
53.044951964915242
 21
11.37986636913956
 31
0.0
  0
LINE
  5
AF
  8
0
 62
     0
 10
41.341926555323369
 20
1.921904989815004
 30
0.0
 11
51.077445034381689
 21
11.657423468873329
 31
0.0
  0
LINE
  5
B0
  8
0
 62
     0
 10
39.374420929728672
 20
2.199463394487565
 30
0.0
 11
49.109938103848201
 21
11.9349805686071
 31
0.0
  0
LINE
  5
B1
  8
0
 62
     0
 10
37.406915304134031
 20
2.4770217991601831
 30
0.0
 11
47.142431173314769
 21
12.21253766834093
 31
0.0
  0
LINE
  5
B2
  8
0
 62
     0
 10
35.439409678539221
 20
2.7545802038327452
 30
0.0
 11
45.174924242781337
 21
12.49009476807487
 31
0.0
  0
LINE
  5
B3
  8
0
 62
     0
 10
33.471904052944467
 20
3.0321386085052491
 30
0.0
 11
43.207417312247848
 21
12.76765186780858
 31
0.0
  0
LINE
  5
B4
  8
0
 62
     0
 10
31.50436230159977
 20
3.3096608874277531
 30
0.0
 11
41.239910381714417
 21
13.045208967542459
 31
0.0
  0
LINE
  5
B5
  8
0
 62
     0
 10
29.511487415900781
 20
3.561850031996129
 30
0.0
 11
39.272403451180928
 21
13.322766067276291
 31
0.0
  0
LINE
  5
B6
  8
0
 62
     0
 10
27.469501101685179
 20
3.7649277480478531
 30
0.0
 11
37.304896520647453
 21
13.60032316701011
 31
0.0
  0
LINE
  5
B7
  8
0
 62
     0
 10
25.375024010537292
 20
3.9155146871672168
 30
0.0
 11
35.337389590114007
 21
13.87788026674394
 31
0.0
  0
LINE
  5
B8
  8
0
 62
     0
 10
23.224137565078081
 20
4.0096922719752683
 30
0.0
 11
33.369882659580583
 21
14.15543736647777
 31
0.0
  0
LINE
  5
B9
  8
0
 62
     0
 10
21.012258463586189
 20
4.042877200750751
 30
0.0
 11
31.386839057494459
 21
14.417457794659009
 31
0.0
  0
LINE
  5
BA
  8
0
 62
     0
 10
18.73397233239314
 20
4.009655099824954
 30
0.0
 11
29.36198208057835
 21
14.637664848010161
 31
0.0
  0
LINE
  5
BB
  8
0
 62
     0
 10
16.38280895414346
 20
3.9035557518425321
 30
0.0
 11
27.292531573260931
 21
14.813278370960001
 31
0.0
  0
LINE
  5
BC
  8
0
 62
     0
 10
13.95093177888827
 20
3.7167426068545519
 30
0.0
 11
25.17570336300798
 21
14.941514190974321
 31
0.0
  0
LINE
  5
BD
  8
0
 62
     0
 10
11.428697905196371
 20
3.4395727634300779
 30
0.0
 11
23.008318461528582
 21
15.01919331976228
 31
0.0
  0
LINE
  5
BE
  8
0
 62
     0
 10
8.804015443777871
 20
3.0599543322788341
 30
0.0
 11
20.78672174097062
 21
15.04266062947158
 31
0.0
  0
LINE
  5
BF
  8
0
 62
     0
 10
6.061370672949578
 20
2.5623735917178001
 30
0.0
 11
18.506677403071819
 21
15.00768032184004
 31
0.0
  0
LINE
  5
C0
  8
0
 62
     0
 10
3.1802897416210949
 20
1.926356690656575
 30
0.0
 11
16.163232575808419
 21
14.909299524843901
 31
0.0
  0
LINE
  5
C1
  8
0
 62
     0
 10
2.2872621290047732
 20
3.278393108307625
 30
0.0
 11
13.750536258188051
 21
14.741667237490899
 31
0.0
  0
LINE
  5
C2
  8
0
 62
     0
 10
1.8400087973810739
 20
5.0762038069511837
 30
0.0
 11
11.261594284036899
 21
14.49778929360701
 31
0.0
  0
LINE
  5
C3
  8
0
 62
     0
 10
1.3927554657574881
 20
6.8740145055948574
 30
0.0
 11
8.6879302120344164
 21
14.16918925187178
 31
0.0
  0
LINE
  5
C4
  8
0
 62
     0
 10
0.9455021341339033
 20
8.6718252042385302
 30
0.0
 11
6.0191037046981251
 21
13.74542677480275
 31
0.0
  0
LINE
  5
C5
  8
0
 62
     0
 10
0.498248802510318
 20
10.46963590288231
 30
0.0
 11
3.2420053407291221
 21
13.213392441101121
 31
0.0
  0
LINE
  5
C6
  8
0
 62
     0
 10
0.0509954708866189
 20
12.267446601525871
 30
0.0
 11
0.3397858344994233
 21
12.55623696513868
 31
0.0
  0
ENDBLK
  5
C8
  8
0
  0
BLOCK
  8
0
  2
*U3
 70
     1
 10
0.0
 20
0.0
 30
0.0
  3
*U3
  1

  0
LINE
  5
CA
  8
0
 10
33.118857823905557
 20
14.190849554495911
 30
0.0
 11
53.935591011226961
 21
11.254223512808149
 31
0.0
  0
ARC
  5
CB
  8
0
 10
20.979675914107819
 20
-71.859290156916018
 30
0.0
 40
86.902165000606672
 50
81.970212576499776
 51
103.9701989591435
  0
LINE
  5
CC
  8
0
 10
53.935591011226961
 20
11.254223512808149
 30
0.0
 11
53.540850117459343
 21
10.22748447363648
 31
0.0
  0
LINE
  5
CD
  8
0
 10
2.655597377629078
 20
1.7978070425526189
 30
0.0
 11
-0.0000002688077529
 21
12.47243263500064
 31
0.0
  0
LINE
  5
CE
  8
0
 10
53.540850117459343
 20
10.22748447363648
 30
0.0
 11
58.20781985467363
 21
8.4332176395434431
 31
0.0
  0
ARC
  5
CF
  8
0
 10
20.9796830353385
 20
-71.859292894749956
 30
0.0
 40
75.902177085804638
 50
81.970215991594316
 51
103.9701955440494
  0
LINE
  5
D0
  8
0
 10
58.20781985467363
 20
8.4332176395434431
 30
0.0
 11
54.965578371307167
 21
-0.0000000937934033
 31
0.0
  0
LINE
  5
D1
  8
0
 10
54.965578371307167
 20
-0.0000000937934033
 30
0.0
 11
31.58229513005989
 21
3.2987080308581649
 31
0.0
  0
ENDBLK
  5
D3
  8
0
  0
ENDSEC
  0
SECTION
  2
ENTITIES
  0
LINE
  5
92
  8
0
 10
527.73305614040351
 20
795.98093316170105
 30
0.0
 11
548.54978932772497
 21
793.04430712001329
 31
0.0
  0
ARC
  5
93
  8
0
 10
515.59387423060582
 20
709.93079345028912
 30
0.0
 40
86.902165000606672
 50
81.970212576499804
 51
103.9701989591436
  0
LINE
  5
94
  8
0
 10
548.54978932772497
 20
793.04430712001329
 30
0.0
 11
548.15504843395729
 21
792.01756808084156
 31
0.0
  0
LINE
  5
95
  8
0
 10
497.26979569412708
 20
783.58789064975781
 30
0.0
 11
494.61419804769019
 21
794.26251624220572
 31
0.0
  0
LINE
  5
96
  8
0
 10
548.15504843395729
 20
792.01756808084156
 30
0.0
 11
552.82201817117164
 21
790.22330124674863
 31
0.0
  0
ARC
  5
97
  8
0
 10
515.59388135183644
 20
709.93079071245506
 30
0.0
 40
75.902177085804638
 50
81.970215991594245
 51
103.9701955440494
  0
LINE
  5
98
  8
0
 10
552.82201817117164
 20
790.22330124674863
 30
0.0
 11
549.57977668780518
 21
781.79008351341167
 31
0.0
  0
LINE
  5
99
  8
0
 10
549.57977668780518
 20
781.79008351341167
 30
0.0
 11
526.19649344655795
 21
785.08879163806319
 31
0.0
  0
ENDSEC
  0
EOF
