  0
SECTION
  2
HEADER
  9
$ACADVER
  1
AC1009
  9
$INSBASE
 10
0.0
 20
0.0
 30
0.0
  9
$EXTMIN
 10
2450.8988550245572
 20
973.55450505282477
 30
0.0
  9
$EXTMAX
 10
2532.0733933708561
 20
993.05450505282545
 30
0.0
  9
$LIMMIN
 10
0.0
 20
0.0
  9
$LIMMAX
 10
420.0
 20
297.0
  9
$ORTHOMODE
 70
     0
  9
$REGENMODE
 70
     1
  9
$FILLMODE
 70
     1
  9
$QTEXTMODE
 70
     0
  9
$MIRRTEXT
 70
     0
  9
$DRAGMODE
 70
     2
  9
$LTSCALE
 40
1.0
  9
$OSMODE
 70
  3071
  9
$ATTMODE
 70
     1
  9
$TEXTSIZE
 40
2.5
  9
$TRACEWID
 40
1.0
  9
$TEXTSTYLE
  7
STANDARD
  9
$CLAYER
  8
0
  9
$CELTYPE
  6
BYLAYER
  9
$CECOLOR
 62
   256
  9
$DIMSCALE
 40
1.0
  9
$DIMASZ
 40
2.5
  9
$DIMEXO
 40
0.625
  9
$DIMDLI
 40
3.75
  9
$DIMRND
 40
0.0
  9
$DIMDLE
 40
0.0
  9
$DIMEXE
 40
1.25
  9
$DIMTP
 40
0.0
  9
$DIMTM
 40
0.0
  9
$DIMTXT
 40
2.5
  9
$DIMCEN
 40
2.5
  9
$DIMTSZ
 40
0.0
  9
$DIMTOL
 70
     0
  9
$DIMLIM
 70
     0
  9
$DIMTIH
 70
     0
  9
$DIMTOH
 70
     0
  9
$DIMSE1
 70
     0
  9
$DIMSE2
 70
     0
  9
$DIMTAD
 70
     1
  9
$DIMZIN
 70
     8
  9
$DIMBLK
  1

  9
$DIMASO
 70
     1
  9
$DIMSHO
 70
     1
  9
$DIMPOST
  1

  9
$DIMAPOST
  1

  9
$DIMALT
 70
     0
  9
$DIMALTD
 70
     3
  9
$DIMALTF
 40
0.03937007874016
  9
$DIMLFAC
 40
1.0
  9
$DIMTOFL
 70
     1
  9
$DIMTVP
 40
0.0
  9
$DIMTIX
 70
     0
  9
$DIMSOXD
 70
     0
  9
$DIMSAH
 70
     0
  9
$DIMBLK1
  1

  9
$DIMBLK2
  1

  9
$DIMSTYLE
  2
ISO-25
  9
$DIMCLRD
 70
     0
  9
$DIMCLRE
 70
     0
  9
$DIMCLRT
 70
     0
  9
$DIMTFAC
 40
1.0
  9
$DIMGAP
 40
0.625
  9
$LUNITS
 70
     2
  9
$LUPREC
 70
     4
  9
$SKETCHINC
 40
1.0
  9
$FILLETRAD
 40
0.0
  9
$AUNITS
 70
     0
  9
$AUPREC
 70
     0
  9
$MENU
  1
.
  9
$ELEVATION
 40
0.0
  9
$PELEVATION
 40
0.0
  9
$THICKNESS
 40
0.0
  9
$LIMCHECK
 70
     0
  9
$BLIPMODE
 70
     0
  9
$CHAMFERA
 40
0.0
  9
$CHAMFERB
 40
0.0
  9
$SKPOLY
 70
     0
  9
$TDCREATE
 40
2455887.5061512268
  9
$TDUPDATE
 40
2455887.5063691782
  9
$TDINDWG
 40
0.0002184954
  9
$TDUSRTIMER
 40
0.0002184954
  9
$USRTIMER
 70
     1
  9
$ANGBASE
 50
0.0
  9
$ANGDIR
 70
     0
  9
$PDMODE
 70
     0
  9
$PDSIZE
 40
0.0
  9
$PLINEWID
 40
0.0
  9
$COORDS
 70
     1
  9
$SPLFRAME
 70
     0
  9
$SPLINETYPE
 70
     6
  9
$SPLINESEGS
 70
     8
  9
$ATTDIA
 70
     0
  9
$ATTREQ
 70
     1
  9
$HANDLING
 70
     1
  9
$HANDSEED
  5
46C
  9
$SURFTAB1
 70
     6
  9
$SURFTAB2
 70
     6
  9
$SURFTYPE
 70
     6
  9
$SURFU
 70
     6
  9
$SURFV
 70
     6
  9
$UCSNAME
  2

  9
$UCSORG
 10
0.0
 20
0.0
 30
0.0
  9
$UCSXDIR
 10
1.0
 20
0.0
 30
0.0
  9
$UCSYDIR
 10
0.0
 20
1.0
 30
0.0
  9
$PUCSNAME
  2

  9
$PUCSORG
 10
0.0
 20
0.0
 30
0.0
  9
$PUCSXDIR
 10
1.0
 20
0.0
 30
0.0
  9
$PUCSYDIR
 10
0.0
 20
1.0
 30
0.0
  9
$USERI1
 70
     0
  9
$USERI2
 70
     0
  9
$USERI3
 70
     0
  9
$USERI4
 70
     0
  9
$USERI5
 70
     0
  9
$USERR1
 40
0.0
  9
$USERR2
 40
0.0
  9
$USERR3
 40
0.0
  9
$USERR4
 40
0.0
  9
$USERR5
 40
0.0
  9
$WORLDVIEW
 70
     1
  9
$SHADEDGE
 70
     3
  9
$SHADEDIF
 70
    70
  9
$TILEMODE
 70
     1
  9
$MAXACTVP
 70
    64
  9
$PLIMCHECK
 70
     0
  9
$PEXTMIN
 10
0.0
 20
0.0
 30
0.0
  9
$PEXTMAX
 10
0.0
 20
0.0
 30
0.0
  9
$PLIMMIN
 10
0.0
 20
0.0
  9
$PLIMMAX
 10
12.0
 20
9.0
  9
$UNITMODE
 70
     0
  9
$VISRETAIN
 70
     1
  9
$PLINEGEN
 70
     0
  9
$PSLTSCALE
 70
     1
  0
ENDSEC
  0
SECTION
  2
TABLES
  0
TABLE
  2
VPORT
 70
     1
  0
VPORT
  2
*ACTIVE
 70
     0
 10
0.0
 20
0.0
 11
1.0
 21
1.0
 12
2477.3615973426708
 22
979.74484840677451
 13
0.0
 23
0.0
 14
10.0
 24
10.0
 15
10.0
 25
10.0
 16
0.0
 26
0.0
 36
1.0
 17
0.0
 27
0.0
 37
0.0
 40
87.425024038098854
 41
2.2151741293532332
 42
50.0
 43
0.0
 44
0.0
 50
0.0
 51
0.0
 71
     0
 72
  1000
 73
     1
 74
     3
 75
     0
 76
     0
 77
     0
 78
     0
  0
ENDTAB
  0
TABLE
  2
LTYPE
 70
     1
  0
LTYPE
  2
CONTINUOUS
 70
     0
  3
Solid line
 72
    65
 73
     0
 40
0.0
  0
ENDTAB
  0
TABLE
  2
LAYER
 70
     1
  0
LAYER
  2
0
 70
     0
 62
     7
  6
CONTINUOUS
  0
ENDTAB
  0
TABLE
  2
STYLE
 70
     3
  0
STYLE
  2
STANDARD
 70
     0
 40
0.0
 41
1.0
 50
0.0
 71
     0
 42
2.5
  3
txt
  4

  0
STYLE
  2
ANNOTATIVE
 70
     0
 40
0.0
 41
1.0
 50
0.0
 71
     0
 42
2.5
  3
txt
  4

  0
STYLE
  2
ROMANT
 70
     0
 40
3.0
 41
1.0
 50
0.0
 71
     0
 42
2.5
  3
romant.shx
  4

  0
ENDTAB
  0
TABLE
  2
VIEW
 70
     0
  0
ENDTAB
  0
TABLE
  2
UCS
 70
     0
  0
ENDTAB
  0
TABLE
  2
APPID
 70
     7
  0
APPID
  2
ACAD
 70
     0
  0
APPID
  2
ACAD_PSEXT
 70
     0
  0
APPID
  2
ACADANNOPO
 70
     0
  0
APPID
  2
ACADANNOTATIVE
 70
     0
  0
APPID
  2
ACAD_DSTYLE_DIMJAG
 70
     0
  0
APPID
  2
ACAD_DSTYLE_DIMTALN
 70
     0
  0
APPID
  2
ACAD_MLEADERVER
 70
     0
  0
ENDTAB
  0
TABLE
  2
DIMSTYLE
 70
     4
  0
DIMSTYLE
  2
STANDARD
 70
     0
  3

  4

  5

  6

  7

 40
1.0
 41
0.18
 42
0.0625
 43
0.38
 44
0.18
 45
0.0
 46
0.0
 47
0.0
 48
0.0
140
0.18
141
0.09
142
0.0
143
25.399999999999999
144
1.0
145
0.0
146
1.0
147
0.09
 71
     0
 72
     0
 73
     1
 74
     1
 75
     0
 76
     0
 77
     0
 78
     0
170
     0
171
     2
172
     0
173
     0
174
     0
175
     0
176
     0
177
     0
178
     0
  0
DIMSTYLE
  2
ANNOTATIVE
 70
     0
  3

  4

  5

  6

  7

 40
0.0
 41
2.5
 42
0.625
 43
3.75
 44
1.25
 45
0.0
 46
0.0
 47
0.0
 48
0.0
140
2.5
141
2.5
142
0.0
143
0.03937007874016
144
1.0
145
0.0
146
1.0
147
0.625
 71
     0
 72
     0
 73
     0
 74
     0
 75
     0
 76
     0
 77
     1
 78
     8
170
     0
171
     3
172
     1
173
     0
174
     0
175
     0
176
     0
177
     0
178
     0
  0
DIMSTYLE
  2
ISO-25
 70
     0
  3

  4

  5

  6

  7

 40
1.0
 41
2.5
 42
0.625
 43
3.75
 44
1.25
 45
0.0
 46
0.0
 47
0.0
 48
0.0
140
2.5
141
2.5
142
0.0
143
0.03937007874016
144
1.0
145
0.0
146
1.0
147
0.625
 71
     0
 72
     0
 73
     0
 74
     0
 75
     0
 76
     0
 77
     1
 78
     8
170
     0
171
     3
172
     1
173
     0
174
     0
175
     0
176
     0
177
     0
178
     0
  0
DIMSTYLE
  2
ISO-25_1_E_1
 70
     0
  3

  4

  5

  6

  7

 40
1.0
 41
1.3
 42
0.0
 43
3.75
 44
0.2
 45
0.0
 46
0.0
 47
0.0
 48
0.0
140
1.0
141
0.2
142
0.0
143
0.03937007874016
144
1.0
145
0.0
146
1.0
147
0.7
 71
     0
 72
     0
 73
     0
 74
     0
 75
     0
 76
     0
 77
     1
 78
     8
170
     0
171
     3
172
     0
173
     0
174
     0
175
     0
176
   242
177
   242
178
   242
  0
ENDTAB
  0
ENDSEC
  0
SECTION
  2
BLOCKS
  0
BLOCK
  8
0
  2
$MODEL_SPACE
 70
     0
 10
0.0
 20
0.0
 30
0.0
  3
$MODEL_SPACE
  1

  0
ENDBLK
  5
21
  8
0
  0
BLOCK
 67
     1
  8
0
  2
$PAPER_SPACE
 70
     0
 10
0.0
 20
0.0
 30
0.0
  3
$PAPER_SPACE
  1

  0
ENDBLK
  5
D5
 67
     1
  8
0
  0
BLOCK
  8
0
  2
*U2
 70
     1
 10
0.0
 20
0.0
 30
0.0
  3
*U2
  1

  0
ARC
  5
3F0
  8
0
 10
43.287269255444457
 20
18.600000018506311
 30
0.0
 40
0.3
 50
270.0
 51
0.0
  0
LINE
  5
3F1
  8
0
 10
43.587269255444419
 20
19.200000018505989
 30
0.0
 11
43.587269255444419
 21
18.600000018506311
 31
0.0
  0
LINE
  5
3F2
  8
0
 10
43.287269255444457
 20
18.300000018506349
 30
0.0
 11
41.587269255444419
 21
18.30000001850658
 31
0.0
  0
ARC
  5
3F3
  8
0
 10
43.287269255444457
 20
19.200000018505989
 30
0.0
 40
0.3
 50
0.0
 51
90.0
  0
LINE
  5
3F4
  8
0
 10
41.587269255444419
 20
18.30000001850658
 30
0.0
 11
41.587269255444198
 21
16.800000018506349
 31
0.0
  0
LINE
  5
3F5
  8
0
 10
37.887269255443243
 20
19.500000018506171
 30
0.0
 11
43.287269255444457
 21
19.50000001850594
 31
0.0
  0
LINE
  5
3F6
  8
0
 10
49.587269255444433
 20
16.800000018506349
 30
0.0
 11
41.587269255444198
 21
16.800000018506349
 31
0.0
  0
ARC
  5
3F7
  8
0
 10
37.887269255443243
 20
19.200000018506209
 30
0.0
 40
0.3
 50
90.0
 51
180.0
  0
LINE
  5
3F8
  8
0
 10
49.587269255444433
 20
18.300000018506349
 30
0.0
 11
49.587269255444433
 21
16.800000018506349
 31
0.0
  0
LINE
  5
3F9
  8
0
 10
37.587269255443289
 20
19.200000018506209
 30
0.0
 11
37.587269255443523
 21
18.600000018505849
 31
0.0
  0
LINE
  5
3FA
  8
0
 10
49.587269255444433
 20
18.300000018506349
 30
0.0
 11
47.887269255443691
 21
18.300000018506118
 31
0.0
  0
ARC
  5
3FB
  8
0
 10
37.887269255443471
 20
18.600000018505849
 30
0.0
 40
0.3
 50
180.0
 51
270.0
  0
ARC
  5
3FC
  8
0
 10
47.887269255443691
 20
18.60000001850608
 30
0.0
 40
0.3
 50
179.9999999999566
 51
270.0
  0
LINE
  5
3FD
  8
0
 10
37.887269255443471
 20
18.300000018505902
 30
0.0
 11
39.587269255443744
 21
18.30000001850658
 31
0.0
  0
LINE
  5
3FE
  8
0
 10
47.587269255444198
 20
19.200000018506671
 30
0.0
 11
47.587269255443744
 21
18.600000018506311
 31
0.0
  0
LINE
  5
3FF
  8
0
 10
39.587269255443744
 20
18.30000001850658
 30
0.0
 11
39.587269255443744
 21
16.800000018506349
 31
0.0
  0
ARC
  5
400
  8
0
 10
47.887269255444153
 20
19.20000001850644
 30
0.0
 40
0.3
 50
90.0
 51
179.9999999999566
  0
LINE
  5
401
  8
0
 10
31.58726925544352
 20
16.800000018506349
 30
0.0
 11
39.587269255443744
 21
16.800000018506349
 31
0.0
  0
LINE
  5
402
  8
0
 10
53.372414521344581
 20
19.500000018506618
 30
0.0
 11
47.887269255444153
 21
19.500000018506391
 31
0.0
  0
LINE
  5
403
  8
0
 10
31.58726925544352
 20
18.300000018506349
 30
0.0
 11
31.58726925544352
 21
16.800000018506349
 31
0.0
  0
ARC
  5
404
  8
0
 10
53.372414521344581
 20
19.200000018506671
 30
0.0
 40
0.3
 50
0.0
 51
90.0
  0
LINE
  5
405
  8
0
 10
31.58726925544352
 20
18.300000018506349
 30
0.0
 11
33.287269255443341
 21
18.30000001850658
 31
0.0
  0
LINE
  5
406
  8
0
 10
53.672414521344542
 20
19.200000018506671
 30
0.0
 11
53.672414521344542
 21
18.600000018506311
 31
0.0
  0
ARC
  5
407
  8
0
 10
33.287269255443341
 20
18.600000018506531
 30
0.0
 40
0.3
 50
270.0
 51
0.0
  0
ARC
  5
408
  8
0
 10
53.372414521344581
 20
18.600000018506311
 30
0.0
 40
0.3
 50
270.0
 51
0.0
  0
LINE
  5
409
  8
0
 10
33.587269255443523
 20
19.200000018506209
 30
0.0
 11
33.587269255443289
 21
18.600000018506531
 31
0.0
  0
LINE
  5
40A
  8
0
 10
53.372414521344581
 20
18.300000018506349
 30
0.0
 11
51.672414521344542
 21
18.300000018506349
 31
0.0
  0
ARC
  5
40B
  8
0
 10
33.287269255443562
 20
19.200000018506209
 30
0.0
 40
0.3
 50
0.0
 51
90.0
  0
LINE
  5
40C
  8
0
 10
51.672414521344542
 20
18.300000018506349
 30
0.0
 11
51.672414521344542
 21
16.800000018506349
 31
0.0
  0
LINE
  5
40D
  8
0
 10
27.802123989543361
 20
19.500000018506618
 30
0.0
 11
33.287269255443562
 21
19.500000018506171
 31
0.0
  0
LINE
  5
40E
  8
0
 10
59.672414521344081
 20
16.80000001850658
 30
0.0
 11
51.672414521344542
 21
16.800000018506349
 31
0.0
  0
ARC
  5
40F
  8
0
 10
27.802123989543361
 20
19.200000018506671
 30
0.0
 40
0.3
 50
90.0
 51
180.0
  0
LINE
  5
410
  8
0
 10
59.672414521344301
 20
18.30000001850658
 30
0.0
 11
59.672414521344081
 21
16.80000001850658
 31
0.0
  0
LINE
  5
411
  8
0
 10
27.50212398954341
 20
19.200000018506671
 30
0.0
 11
27.50212398954341
 21
18.600000018506311
 31
0.0
  0
LINE
  5
412
  8
0
 10
59.672414521344301
 20
18.30000001850658
 30
0.0
 11
57.97241452134449
 21
18.30000001850658
 31
0.0
  0
ARC
  5
413
  8
0
 10
27.802123989543361
 20
18.600000018506311
 30
0.0
 40
0.3
 50
180.0
 51
270.0
  0
ARC
  5
414
  8
0
 10
57.97241452134449
 20
18.600000018506531
 30
0.0
 40
0.3
 50
180.0
 51
270.0
  0
LINE
  5
415
  8
0
 10
27.802123989543361
 20
18.300000018506349
 30
0.0
 11
29.50212398954341
 21
18.300000018506349
 31
0.0
  0
LINE
  5
416
  8
0
 10
57.672414521344528
 20
19.20000001850644
 30
0.0
 11
57.672414521344528
 21
18.600000018506531
 31
0.0
  0
LINE
  5
417
  8
0
 10
29.50212398954341
 20
18.300000018506349
 30
0.0
 11
29.50212398954341
 21
16.800000018506349
 31
0.0
  0
ARC
  5
418
  8
0
 10
57.97241452134449
 20
19.20000001850644
 30
0.0
 40
0.3
 50
90.0
 51
180.0
  0
LINE
  5
419
  8
0
 10
21.502123989543641
 20
16.800000018506349
 30
0.0
 11
29.50212398954341
 21
16.800000018506349
 31
0.0
  0
LINE
  5
41A
  8
0
 10
63.372414521344581
 20
19.500000018506391
 30
0.0
 11
57.97241452134449
 21
19.500000018506391
 31
0.0
  0
LINE
  5
41B
  8
0
 10
21.50212398954341
 20
18.300000018506349
 30
0.0
 11
21.502123989543641
 21
16.800000018506349
 31
0.0
  0
ARC
  5
41C
  8
0
 10
63.372414521344581
 20
19.20000001850644
 30
0.0
 40
0.3
 50
0.0
 51
90.0
  0
LINE
  5
41D
  8
0
 10
21.50212398954341
 20
18.300000018506349
 30
0.0
 11
23.202123989543448
 21
18.30000001850658
 31
0.0
  0
LINE
  5
41E
  8
0
 10
63.672414521344542
 20
19.20000001850644
 30
0.0
 11
63.672414521344308
 21
18.600000018506311
 31
0.0
  0
ARC
  5
41F
  8
0
 10
23.202123989543448
 20
18.600000018506531
 30
0.0
 40
0.3
 50
270.0
 51
0.0
  0
ARC
  5
420
  8
0
 10
63.372414521344353
 20
18.600000018506311
 30
0.0
 40
0.3
 50
270.0
 51
0.0
  0
LINE
  5
421
  8
0
 10
23.50212398954341
 20
19.20000001850644
 30
0.0
 11
23.50212398954341
 21
18.600000018506531
 31
0.0
  0
LINE
  5
422
  8
0
 10
63.372414521344353
 20
18.300000018506349
 30
0.0
 11
61.672414521344542
 21
18.300000018506349
 31
0.0
  0
ARC
  5
423
  8
0
 10
23.202123989543448
 20
19.20000001850644
 30
0.0
 40
0.3
 50
0.0
 51
90.0
  0
LINE
  5
424
  8
0
 10
61.672414521344542
 20
18.300000018506349
 30
0.0
 11
61.672414521344301
 21
16.800000018506349
 31
0.0
  0
LINE
  5
425
  8
0
 10
17.802123989543361
 20
19.500000018506391
 30
0.0
 11
23.202123989543448
 21
19.500000018506391
 31
0.0
  0
LINE
  5
426
  8
0
 10
69.672414521344294
 20
16.800000018506349
 30
0.0
 11
61.672414521344301
 21
16.800000018506349
 31
0.0
  0
ARC
  5
427
  8
0
 10
17.802123989543361
 20
19.20000001850644
 30
0.0
 40
0.3
 50
90.0
 51
180.0
  0
LINE
  5
428
  8
0
 10
69.672414521344535
 20
18.300000018506349
 30
0.0
 11
69.672414521344294
 21
16.800000018506349
 31
0.0
  0
LINE
  5
429
  8
0
 10
17.502123989543399
 20
19.20000001850644
 30
0.0
 11
17.50212398954363
 21
18.600000018506531
 31
0.0
  0
LINE
  5
42A
  8
0
 10
69.672414521344535
 20
18.300000018506349
 30
0.0
 11
67.972414521344263
 21
18.30000001850658
 31
0.0
  0
ARC
  5
42B
  8
0
 10
17.802123989543588
 20
18.600000018506531
 30
0.0
 40
0.3
 50
180.0
 51
270.0
  0
ARC
  5
42C
  8
0
 10
67.972414521344263
 20
18.600000018506531
 30
0.0
 40
0.3
 50
180.0
 51
270.0
  0
LINE
  5
42D
  8
0
 10
17.802123989543588
 20
18.30000001850658
 30
0.0
 11
19.502123989543399
 21
18.300000018506349
 31
0.0
  0
LINE
  5
42E
  8
0
 10
67.672414521344535
 20
19.200000018506671
 30
0.0
 11
67.672414521344308
 21
18.600000018506531
 31
0.0
  0
LINE
  5
42F
  8
0
 10
19.502123989543399
 20
18.300000018506349
 30
0.0
 11
19.502123989543399
 21
16.800000018506349
 31
0.0
  0
ARC
  5
430
  8
0
 10
67.97241452134449
 20
19.200000018506671
 30
0.0
 40
0.3
 50
90.0
 51
180.0
  0
LINE
  5
431
  8
0
 10
11.50212398954363
 20
16.800000018506349
 30
0.0
 11
19.502123989543399
 21
16.800000018506349
 31
0.0
  0
LINE
  5
432
  8
0
 10
70.172414521344535
 20
19.500000018506391
 30
0.0
 11
67.97241452134449
 21
19.500000018506618
 31
0.0
  0
LINE
  5
433
  8
0
 10
11.50212398954363
 20
18.300000018506349
 30
0.0
 11
11.50212398954363
 21
16.800000018506349
 31
0.0
  0
ARC
  5
434
  8
0
 10
70.172414521344535
 20
18.500000018506402
 30
0.0
 40
1.0
 50
0.0
 51
90.0
  0
LINE
  5
435
  8
0
 10
11.50212398954363
 20
18.300000018506349
 30
0.0
 11
13.202123989543219
 21
18.300000018506811
 31
0.0
  0
LINE
  5
436
  8
0
 10
71.172414521344535
 20
18.500000018506402
 30
0.0
 11
71.172414521344535
 21
18.100000018506311
 31
0.0
  0
ARC
  5
437
  8
0
 10
13.202123989543219
 20
18.600000018506758
 30
0.0
 40
0.3
 50
270.0
 51
0.0
  0
ARC
  5
438
  8
0
 10
72.172414521344535
 20
18.10000001850608
 30
0.0
 40
1.0
 50
179.99999999998701
 51
270.0
  0
LINE
  5
439
  8
0
 10
13.50212398954363
 20
19.200000018506671
 30
0.0
 11
13.502123989543181
 21
18.600000018506758
 31
0.0
  0
LINE
  5
43A
  8
0
 10
74.902799278751203
 20
17.10000001850608
 30
0.0
 11
72.172414521344535
 21
17.10000001850608
 31
0.0
  0
ARC
  5
43B
  8
0
 10
13.202123989543679
 20
19.200000018506671
 30
0.0
 40
0.3
 50
0.0
 51
90.0
  0
ARC
  5
43C
  8
0
 10
74.902799278751203
 20
16.800000018506118
 30
0.0
 40
0.3
 50
29.999999984603761
 51
90.0
  0
LINE
  5
43D
  8
0
 10
11.002123989543399
 20
19.500000018506391
 30
0.0
 11
13.202123989543679
 21
19.500000018506618
 31
0.0
  0
ARC
  5
43E
  8
0
 10
75.422414521344535
 20
17.1000000185063
 30
0.0
 40
0.3
 50
209.9999999846151
 51
330.0000000154339
  0
ARC
  5
43F
  8
0
 10
11.002123989543399
 20
18.500000018506402
 30
0.0
 40
1.0
 50
90.0
 51
180.0
  0
ARC
  5
440
  8
0
 10
75.942029763937853
 20
16.800000018506349
 30
0.0
 40
0.3
 50
90.0
 51
150.0000000153849
  0
LINE
  5
441
  8
0
 10
10.002123989543399
 20
18.500000018506402
 30
0.0
 11
10.002123989543399
 21
18.100000018506311
 31
0.0
  0
LINE
  5
442
  8
0
 10
79.174538428592541
 20
17.10000001850608
 30
0.0
 11
75.942029763937853
 21
17.1000000185063
 31
0.0
  0
ARC
  5
443
  8
0
 10
9.0021239895434064
 20
18.10000001850608
 30
0.0
 40
1.0
 50
270.0
 51
0.0000000000130296
  0
ARC
  5
444
  8
0
 10
79.174538428592768
 20
15.10000001850608
 30
0.0
 40
2.0
 50
0.0
 51
90.000000000006509
  0
LINE
  5
445
  8
0
 10
6.2717392321367242
 20
17.1000000185063
 30
0.0
 11
9.0021239895434064
 21
17.10000001850608
 31
0.0
  0
LINE
  5
446
  8
0
 10
81.174538428592754
 20
15.10000001850608
 30
0.0
 11
81.174538428592754
 21
8.2416198669893674
 31
0.0
  0
ARC
  5
447
  8
0
 10
6.2717392321367242
 20
16.800000018506118
 30
0.0
 40
0.3
 50
90.0
 51
150.0000000153849
  0
ARC
  5
448
  8
0
 10
80.874538428592814
 20
8.2416198669893674
 30
0.0
 40
0.3
 50
292.02431284319692
 51
0.0
  0
ARC
  5
449
  8
0
 10
5.7521239895434064
 20
17.1000000185063
 30
0.0
 40
0.3
 50
209.9999999845775
 51
330.00000001539632
  0
ARC
  5
44A
  8
0
 10
81.174538428593664
 20
7.5000000185061699
 30
0.0
 40
0.5
 50
112.0243128431686
 51
247.97568715676221
  0
ARC
  5
44B
  8
0
 10
5.2325087469500877
 20
16.800000018506349
 30
0.0
 40
0.3
 50
29.999999984603761
 51
89.999999999956557
  0
ARC
  5
44C
  8
0
 10
80.874538428592132
 20
6.7583801700232007
 30
0.0
 40
0.3
 50
0.0
 51
67.975687156781362
  0
LINE
  5
44D
  8
0
 10
2.0000000822951729
 20
17.10000001850608
 30
0.0
 11
5.2325087469503151
 21
17.1000000185063
 31
0.0
  0
LINE
  5
44E
  8
0
 10
81.174538428592086
 20
6.7583801700232007
 30
0.0
 11
81.174538428592996
 21
0.300000018505898
 31
0.0
  0
ARC
  5
44F
  8
0
 10
2.0000000822951729
 20
15.10000001850608
 30
0.0
 40
2.0
 50
90.0
 51
180.0
  0
ARC
  5
450
  8
0
 10
80.874538428593041
 20
0.300000018505898
 30
0.0
 40
0.3
 50
270.0
 51
0.0
  0
LINE
  5
451
  8
0
 10
0.0000000822951733
 20
15.10000001850608
 30
0.0
 11
0.0000000822958555
 21
8.2416198669891401
 31
0.0
  0
LINE
  5
452
  8
0
 10
80.874538428593041
 20
0.0000000185059434
 30
0.0
 11
79.974538428592496
 21
0.0000000185061708
 31
0.0
  0
ARC
  5
453
  8
0
 10
0.30000008229581
 20
8.2416198669891401
 30
0.0
 40
0.3
 50
180.0
 51
247.97568715678131
  0
ARC
  5
454
  8
0
 10
79.974538428592496
 20
0.3000000185061253
 30
0.0
 40
0.3
 50
180.0
 51
270.0
  0
ARC
  5
455
  8
0
 10
0.0000000822942638
 20
7.5000000185061699
 30
0.0
 40
0.5
 50
292.02431284316862
 51
67.975687156762206
  0
LINE
  5
456
  8
0
 10
79.674538428592541
 20
0.3000000185061253
 30
0.0
 11
79.674538428592996
 21
14.500000018506171
 31
0.0
  0
ARC
  5
457
  8
0
 10
0.3000000822951279
 20
6.7583801700229742
 30
0.0
 40
0.3
 50
112.0243128431969
 51
180.0
  0
ARC
  5
458
  8
0
 10
78.674538428592996
 20
14.500000018506171
 30
0.0
 40
1.0
 50
0.0
 51
90.0
  0
LINE
  5
459
  8
0
 10
0.0000000822951733
 20
6.7583801700229742
 30
0.0
 11
0.0000000822954007
 21
0.3000000185063527
 31
0.0
  0
LINE
  5
45A
  8
0
 10
78.674538428592996
 20
15.500000018506171
 30
0.0
 11
41.337269255444198
 21
15.5000000185064
 31
0.0
  0
ARC
  5
45B
  8
0
 10
0.3000000822953552
 20
0.3000000185063527
 30
0.0
 40
0.3
 50
180.0
 51
270.0
  0
LINE
  5
45C
  8
0
 10
41.337269255444198
 20
15.5000000185064
 30
0.0
 11
41.337269255444198
 21
8.2416198669895948
 31
0.0
  0
LINE
  5
45D
  8
0
 10
0.3000000822953552
 20
0.0000000185063982
 30
0.0
 11
1.200000082294991
 21
0.0000000185059434
 31
0.0
  0
ARC
  5
45E
  8
0
 10
41.037269255444237
 20
8.2416198669895948
 30
0.0
 40
0.3
 50
292.02431284311632
 51
0.0
  0
ARC
  5
45F
  8
0
 10
1.2000000822952179
 20
0.300000018505898
 30
0.0
 40
0.3
 50
269.99999999995651
 51
0.0
  0
ARC
  5
460
  8
0
 10
41.337269255444198
 20
7.5000000185061699
 30
0.0
 40
0.5
 50
112.02431284311049
 51
247.97568715689269
  0
LINE
  5
461
  8
0
 10
1.5000000822951729
 20
0.300000018505898
 30
0.0
 11
1.5000000822949451
 21
14.500000018506171
 31
0.0
  0
ARC
  5
462
  8
0
 10
41.037269255444237
 20
6.7583801700227459
 30
0.0
 40
0.3
 50
0.0
 51
67.975687156878152
  0
ARC
  5
463
  8
0
 10
2.5000000822949451
 20
14.500000018506171
 30
0.0
 40
1.0
 50
90.0
 51
180.0
  0
LINE
  5
464
  8
0
 10
41.337269255443957
 20
6.7583801700227459
 30
0.0
 11
41.337269255444433
 21
0.3000000185061253
 31
0.0
  0
LINE
  5
465
  8
0
 10
2.5000000822949451
 20
15.500000018506171
 30
0.0
 11
39.837269255444653
 21
15.50000001850594
 31
0.0
  0
ARC
  5
466
  8
0
 10
41.037269255444471
 20
0.3000000185061253
 30
0.0
 40
0.3
 50
270.0
 51
0.0
  0
LINE
  5
467
  8
0
 10
39.837269255444653
 20
15.50000001850594
 30
0.0
 11
39.837269255443971
 21
0.3000000185061253
 31
0.0
  0
LINE
  5
468
  8
0
 10
40.137269255443918
 20
0.0000000185061708
 30
0.0
 11
41.037269255444471
 21
0.0000000185061708
 31
0.0
  0
ARC
  5
469
  8
0
 10
40.137269255443918
 20
0.3000000185061253
 30
0.0
 40
0.3
 50
180.0
 51
270.0
  0
ENDBLK
  5
46B
  8
0
  0
ENDSEC
  0
SECTION
  2
ENTITIES
  0
ARC
  5
33A
  8
0
 10
2494.1861241977081
 20
992.15450505282513
 30
0.0
 40
0.3
 50
270.0
 51
0.0
  0
LINE
  5
33B
  8
0
 10
2494.4861241977069
 20
992.75450505282504
 30
0.0
 11
2494.4861241977069
 21
992.15450505282513
 31
0.0
  0
LINE
  5
33C
  8
0
 10
2494.1861241977081
 20
991.85450505282529
 30
0.0
 11
2492.4861241977078
 21
991.85450505282552
 31
0.0
  0
ARC
  5
33D
  8
0
 10
2494.1861241977081
 20
992.75450505282504
 30
0.0
 40
0.3
 50
0.0
 51
90.0
  0
LINE
  5
33E
  8
0
 10
2492.4861241977078
 20
991.85450505282552
 30
0.0
 11
2492.4861241977069
 21
990.35450505282517
 31
0.0
  0
LINE
  5
33F
  8
0
 10
2488.7861241977062
 20
993.05450505282499
 30
0.0
 11
2494.1861241977081
 21
993.05450505282477
 31
0.0
  0
LINE
  5
340
  8
0
 10
2500.4861241977078
 20
990.35450505282517
 30
0.0
 11
2492.4861241977069
 21
990.35450505282517
 31
0.0
  0
ARC
  5
341
  8
0
 10
2488.7861241977062
 20
992.75450505282515
 30
0.0
 40
0.3
 50
90.0
 51
180.0
  0
LINE
  5
342
  8
0
 10
2500.4861241977078
 20
991.85450505282529
 30
0.0
 11
2500.4861241977078
 21
990.35450505282517
 31
0.0
  0
LINE
  5
343
  8
0
 10
2488.486124197706
 20
992.75450505282515
 30
0.0
 11
2488.486124197706
 21
992.15450505282479
 31
0.0
  0
LINE
  5
344
  8
0
 10
2500.4861241977078
 20
991.85450505282529
 30
0.0
 11
2498.7861241977071
 21
991.85450505282495
 31
0.0
  0
ARC
  5
345
  8
0
 10
2488.7861241977062
 20
992.15450505282479
 30
0.0
 40
0.3
 50
180.0
 51
270.0
  0
ARC
  5
346
  8
0
 10
2498.7861241977071
 20
992.15450505282502
 30
0.0
 40
0.3
 50
179.9999999999566
 51
270.0
  0
LINE
  5
347
  8
0
 10
2488.7861241977062
 20
991.85450505282483
 30
0.0
 11
2490.4861241977069
 21
991.85450505282552
 31
0.0
  0
LINE
  5
348
  8
0
 10
2498.4861241977069
 20
992.75450505282549
 30
0.0
 11
2498.4861241977069
 21
992.15450505282513
 31
0.0
  0
LINE
  5
349
  8
0
 10
2490.4861241977069
 20
991.85450505282552
 30
0.0
 11
2490.4861241977069
 21
990.35450505282517
 31
0.0
  0
ARC
  5
34A
  8
0
 10
2498.7861241977071
 20
992.75450505282527
 30
0.0
 40
0.3
 50
90.0
 51
179.9999999999566
  0
LINE
  5
34B
  8
0
 10
2482.486124197706
 20
990.35450505282517
 30
0.0
 11
2490.4861241977069
 21
990.35450505282517
 31
0.0
  0
LINE
  5
34C
  8
0
 10
2504.271269463608
 20
993.05450505282545
 30
0.0
 11
2498.7861241977071
 21
993.05450505282533
 31
0.0
  0
LINE
  5
34D
  8
0
 10
2482.486124197706
 20
991.85450505282529
 30
0.0
 11
2482.486124197706
 21
990.35450505282517
 31
0.0
  0
ARC
  5
34E
  8
0
 10
2504.271269463608
 20
992.75450505282549
 30
0.0
 40
0.3
 50
0.0
 51
90.0
  0
LINE
  5
34F
  8
0
 10
2482.486124197706
 20
991.85450505282529
 30
0.0
 11
2484.1861241977072
 21
991.85450505282552
 31
0.0
  0
LINE
  5
350
  8
0
 10
2504.5712694636081
 20
992.75450505282549
 30
0.0
 11
2504.5712694636081
 21
992.15450505282513
 31
0.0
  0
ARC
  5
351
  8
0
 10
2484.1861241977072
 20
992.15450505282547
 30
0.0
 40
0.3
 50
270.0
 51
0.0
  0
ARC
  5
352
  8
0
 10
2504.271269463608
 20
992.15450505282513
 30
0.0
 40
0.3
 50
270.0
 51
0.0
  0
LINE
  5
353
  8
0
 10
2484.4861241977069
 20
992.75450505282515
 30
0.0
 11
2484.486124197706
 21
992.15450505282547
 31
0.0
  0
LINE
  5
354
  8
0
 10
2504.271269463608
 20
991.85450505282529
 30
0.0
 11
2502.5712694636081
 21
991.85450505282529
 31
0.0
  0
ARC
  5
355
  8
0
 10
2484.1861241977072
 20
992.75450505282515
 30
0.0
 40
0.3
 50
0.0
 51
90.0
  0
LINE
  5
356
  8
0
 10
2502.5712694636081
 20
991.85450505282529
 30
0.0
 11
2502.5712694636081
 21
990.35450505282517
 31
0.0
  0
LINE
  5
357
  8
0
 10
2478.7009789318072
 20
993.05450505282545
 30
0.0
 11
2484.1861241977072
 21
993.05450505282499
 31
0.0
  0
LINE
  5
358
  8
0
 10
2510.5712694636072
 20
990.3545050528254
 30
0.0
 11
2502.5712694636081
 21
990.35450505282517
 31
0.0
  0
ARC
  5
359
  8
0
 10
2478.7009789318072
 20
992.75450505282549
 30
0.0
 40
0.3
 50
90.0
 51
180.0
  0
LINE
  5
35A
  8
0
 10
2510.5712694636072
 20
991.85450505282552
 30
0.0
 11
2510.5712694636072
 21
990.3545050528254
 31
0.0
  0
LINE
  5
35B
  8
0
 10
2478.4009789318061
 20
992.75450505282549
 30
0.0
 11
2478.4009789318061
 21
992.15450505282513
 31
0.0
  0
LINE
  5
35C
  8
0
 10
2510.5712694636072
 20
991.85450505282552
 30
0.0
 11
2508.8712694636079
 21
991.85450505282552
 31
0.0
  0
ARC
  5
35D
  8
0
 10
2478.7009789318072
 20
992.15450505282513
 30
0.0
 40
0.3
 50
180.0
 51
270.0
  0
ARC
  5
35E
  8
0
 10
2508.8712694636079
 20
992.15450505282547
 30
0.0
 40
0.3
 50
180.0
 51
270.0
  0
LINE
  5
35F
  8
0
 10
2478.7009789318072
 20
991.85450505282529
 30
0.0
 11
2480.4009789318061
 21
991.85450505282529
 31
0.0
  0
LINE
  5
360
  8
0
 10
2508.5712694636081
 20
992.75450505282527
 30
0.0
 11
2508.5712694636081
 21
992.15450505282547
 31
0.0
  0
LINE
  5
361
  8
0
 10
2480.4009789318061
 20
991.85450505282529
 30
0.0
 11
2480.4009789318061
 21
990.35450505282517
 31
0.0
  0
ARC
  5
362
  8
0
 10
2508.8712694636079
 20
992.75450505282527
 30
0.0
 40
0.3
 50
90.0
 51
180.0
  0
LINE
  5
363
  8
0
 10
2472.400978931807
 20
990.35450505282517
 30
0.0
 11
2480.4009789318061
 21
990.35450505282517
 31
0.0
  0
LINE
  5
364
  8
0
 10
2514.271269463608
 20
993.05450505282533
 30
0.0
 11
2508.8712694636079
 21
993.05450505282533
 31
0.0
  0
LINE
  5
365
  8
0
 10
2472.4009789318061
 20
991.85450505282529
 30
0.0
 11
2472.400978931807
 21
990.35450505282517
 31
0.0
  0
ARC
  5
366
  8
0
 10
2514.271269463608
 20
992.75450505282527
 30
0.0
 40
0.3
 50
0.0
 51
90.0
  0
LINE
  5
367
  8
0
 10
2472.4009789318061
 20
991.85450505282529
 30
0.0
 11
2474.1009789318068
 21
991.85450505282552
 31
0.0
  0
LINE
  5
368
  8
0
 10
2514.5712694636081
 20
992.75450505282527
 30
0.0
 11
2514.5712694636072
 21
992.15450505282513
 31
0.0
  0
ARC
  5
369
  8
0
 10
2474.1009789318068
 20
992.15450505282547
 30
0.0
 40
0.3
 50
270.0
 51
0.0
  0
ARC
  5
36A
  8
0
 10
2514.271269463608
 20
992.15450505282513
 30
0.0
 40
0.3
 50
270.0
 51
0.0
  0
LINE
  5
36B
  8
0
 10
2474.4009789318061
 20
992.75450505282527
 30
0.0
 11
2474.4009789318061
 21
992.15450505282547
 31
0.0
  0
LINE
  5
36C
  8
0
 10
2514.271269463608
 20
991.85450505282529
 30
0.0
 11
2512.5712694636081
 21
991.85450505282529
 31
0.0
  0
ARC
  5
36D
  8
0
 10
2474.1009789318068
 20
992.75450505282527
 30
0.0
 40
0.3
 50
0.0
 51
90.0
  0
LINE
  5
36E
  8
0
 10
2512.5712694636081
 20
991.85450505282529
 30
0.0
 11
2512.5712694636072
 21
990.35450505282517
 31
0.0
  0
LINE
  5
36F
  8
0
 10
2468.7009789318072
 20
993.05450505282533
 30
0.0
 11
2474.1009789318068
 21
993.05450505282533
 31
0.0
  0
LINE
  5
370
  8
0
 10
2520.5712694636072
 20
990.35450505282517
 30
0.0
 11
2512.5712694636072
 21
990.35450505282517
 31
0.0
  0
ARC
  5
371
  8
0
 10
2468.7009789318072
 20
992.75450505282527
 30
0.0
 40
0.3
 50
90.0
 51
180.0
  0
LINE
  5
372
  8
0
 10
2520.5712694636081
 20
991.85450505282529
 30
0.0
 11
2520.5712694636072
 21
990.35450505282517
 31
0.0
  0
LINE
  5
373
  8
0
 10
2468.4009789318061
 20
992.75450505282527
 30
0.0
 11
2468.400978931807
 21
992.15450505282547
 31
0.0
  0
LINE
  5
374
  8
0
 10
2520.5712694636081
 20
991.85450505282529
 30
0.0
 11
2518.871269463607
 21
991.85450505282552
 31
0.0
  0
ARC
  5
375
  8
0
 10
2468.7009789318072
 20
992.15450505282547
 30
0.0
 40
0.3
 50
180.0
 51
270.0
  0
ARC
  5
376
  8
0
 10
2518.871269463607
 20
992.15450505282547
 30
0.0
 40
0.3
 50
180.0
 51
270.0
  0
LINE
  5
377
  8
0
 10
2468.7009789318072
 20
991.85450505282552
 30
0.0
 11
2470.4009789318061
 21
991.85450505282529
 31
0.0
  0
LINE
  5
378
  8
0
 10
2518.5712694636081
 20
992.75450505282549
 30
0.0
 11
2518.5712694636072
 21
992.15450505282547
 31
0.0
  0
LINE
  5
379
  8
0
 10
2470.4009789318061
 20
991.85450505282529
 30
0.0
 11
2470.4009789318061
 21
990.35450505282517
 31
0.0
  0
ARC
  5
37A
  8
0
 10
2518.8712694636079
 20
992.75450505282549
 30
0.0
 40
0.3
 50
90.0
 51
180.0
  0
LINE
  5
37B
  8
0
 10
2462.400978931807
 20
990.35450505282517
 30
0.0
 11
2470.4009789318061
 21
990.35450505282517
 31
0.0
  0
LINE
  5
37C
  8
0
 10
2521.0712694636081
 20
993.05450505282533
 30
0.0
 11
2518.8712694636079
 21
993.05450505282545
 31
0.0
  0
LINE
  5
37D
  8
0
 10
2462.400978931807
 20
991.85450505282529
 30
0.0
 11
2462.400978931807
 21
990.35450505282517
 31
0.0
  0
ARC
  5
37E
  8
0
 10
2521.0712694636081
 20
992.05450505282545
 30
0.0
 40
1.0
 50
0.0
 51
90.0
  0
LINE
  5
37F
  8
0
 10
2462.400978931807
 20
991.85450505282529
 30
0.0
 11
2464.1009789318059
 21
991.85450505282574
 31
0.0
  0
LINE
  5
380
  8
0
 10
2522.0712694636081
 20
992.05450505282545
 30
0.0
 11
2522.0712694636081
 21
991.65450505282524
 31
0.0
  0
ARC
  5
381
  8
0
 10
2464.1009789318059
 20
992.1545050528257
 30
0.0
 40
0.3
 50
270.0
 51
0.0
  0
ARC
  5
382
  8
0
 10
2523.0712694636081
 20
991.65450505282513
 30
0.0
 40
1.0
 50
179.99999999998701
 51
270.0
  0
LINE
  5
383
  8
0
 10
2464.400978931807
 20
992.75450505282549
 30
0.0
 11
2464.4009789318061
 21
992.1545050528257
 31
0.0
  0
LINE
  5
384
  8
0
 10
2525.8016542210148
 20
990.6545050528249
 30
0.0
 11
2523.0712694636081
 21
990.6545050528249
 31
0.0
  0
ARC
  5
385
  8
0
 10
2464.1009789318068
 20
992.75450505282549
 30
0.0
 40
0.3
 50
0.0
 51
90.0
  0
ARC
  5
386
  8
0
 10
2525.8016542210148
 20
990.35450505282506
 30
0.0
 40
0.3
 50
29.9999999846472
 51
90.0
  0
LINE
  5
387
  8
0
 10
2461.9009789318061
 20
993.05450505282533
 30
0.0
 11
2464.1009789318068
 21
993.05450505282545
 31
0.0
  0
ARC
  5
388
  8
0
 10
2526.3212694636081
 20
990.65450505282524
 30
0.0
 40
0.3
 50
209.99999998457159
 51
330.00000001539041
  0
ARC
  5
389
  8
0
 10
2461.9009789318061
 20
992.05450505282545
 30
0.0
 40
1.0
 50
90.0
 51
180.0
  0
ARC
  5
38A
  8
0
 10
2526.840884706201
 20
990.35450505282517
 30
0.0
 40
0.3
 50
90.0
 51
150.00000001542841
  0
LINE
  5
38B
  8
0
 10
2460.9009789318061
 20
992.05450505282545
 30
0.0
 11
2460.9009789318061
 21
991.65450505282524
 31
0.0
  0
LINE
  5
38C
  8
0
 10
2530.0733933708561
 20
990.6545050528249
 30
0.0
 11
2526.840884706201
 21
990.65450505282524
 31
0.0
  0
ARC
  5
38D
  8
0
 10
2459.9009789318061
 20
991.65450505282513
 30
0.0
 40
1.0
 50
270.0
 51
0.0000000000130296
  0
ARC
  5
38E
  8
0
 10
2530.0733933708561
 20
988.6545050528249
 30
0.0
 40
2.0
 50
0.0
 51
90.000000000013031
  0
LINE
  5
38F
  8
0
 10
2457.1705941743999
 20
990.65450505282524
 30
0.0
 11
2459.9009789318061
 21
990.6545050528249
 31
0.0
  0
LINE
  5
390
  8
0
 10
2532.0733933708561
 20
988.6545050528249
 30
0.0
 11
2532.0733933708561
 21
981.79612490130819
 31
0.0
  0
ARC
  5
391
  8
0
 10
2457.1705941743999
 20
990.35450505282506
 30
0.0
 40
0.3
 50
90.0
 51
150.0000000153415
  0
ARC
  5
392
  8
0
 10
2531.773393370856
 20
981.79612490130819
 30
0.0
 40
0.3
 50
292.02431284315668
 51
0.0
  0
ARC
  5
393
  8
0
 10
2456.6509789318061
 20
990.65450505282524
 30
0.0
 40
0.3
 50
209.9999999846209
 51
330.00000001543958
  0
ARC
  5
394
  8
0
 10
2532.073393370857
 20
981.05450505282511
 30
0.0
 40
0.5
 50
112.0243128431686
 51
247.97568715678631
  0
ARC
  5
395
  8
0
 10
2456.1313636892128
 20
990.35450505282517
 30
0.0
 40
0.3
 50
29.99999998456034
 51
89.999999999913143
  0
ARC
  5
396
  8
0
 10
2531.773393370855
 20
980.31288520434214
 30
0.0
 40
0.3
 50
0.0
 51
67.975687156741103
  0
LINE
  5
397
  8
0
 10
2452.8988550245581
 20
990.6545050528249
 30
0.0
 11
2456.1313636892128
 21
990.65450505282524
 31
0.0
  0
LINE
  5
398
  8
0
 10
2532.0733933708548
 20
980.31288520434214
 30
0.0
 11
2532.0733933708561
 21
973.85450505282483
 31
0.0
  0
ARC
  5
399
  8
0
 10
2452.8988550245581
 20
988.6545050528249
 30
0.0
 40
2.0
 50
90.0
 51
180.0
  0
ARC
  5
39A
  8
0
 10
2531.773393370856
 20
973.85450505282483
 30
0.0
 40
0.3
 50
270.0
 51
0.0
  0
LINE
  5
39B
  8
0
 10
2450.8988550245581
 20
988.6545050528249
 30
0.0
 11
2450.898855024559
 21
981.79612490130796
 31
0.0
  0
LINE
  5
39C
  8
0
 10
2531.773393370856
 20
973.55450505282477
 30
0.0
 11
2530.8733933708559
 21
973.55450505282511
 31
0.0
  0
ARC
  5
39D
  8
0
 10
2451.1988550245592
 20
981.79612490130796
 30
0.0
 40
0.3
 50
180.0
 51
247.97568715674109
  0
ARC
  5
39E
  8
0
 10
2530.8733933708559
 20
973.85450505282495
 30
0.0
 40
0.3
 50
180.0
 51
270.0
  0
ARC
  5
39F
  8
0
 10
2450.8988550245572
 20
981.05450505282511
 30
0.0
 40
0.5
 50
292.02431284316862
 51
67.97568715678635
  0
LINE
  5
3A0
  8
0
 10
2530.5733933708548
 20
973.85450505282495
 30
0.0
 11
2530.5733933708561
 21
988.05450505282511
 31
0.0
  0
ARC
  5
3A1
  8
0
 10
2451.1988550245578
 20
980.31288520434191
 30
0.0
 40
0.3
 50
112.02431284315659
 51
180.0
  0
ARC
  5
3A2
  8
0
 10
2529.5733933708561
 20
988.05450505282511
 30
0.0
 40
1.0
 50
0.0
 51
90.0
  0
LINE
  5
3A3
  8
0
 10
2450.8988550245581
 20
980.31288520434191
 30
0.0
 11
2450.898855024559
 21
973.85450505282529
 31
0.0
  0
LINE
  5
3A4
  8
0
 10
2529.5733933708561
 20
989.05450505282511
 30
0.0
 11
2492.2361241977069
 21
989.05450505282533
 31
0.0
  0
ARC
  5
3A5
  8
0
 10
2451.1988550245578
 20
973.85450505282529
 30
0.0
 40
0.3
 50
180.0
 51
270.0
  0
LINE
  5
3A6
  8
0
 10
2492.2361241977069
 20
989.05450505282533
 30
0.0
 11
2492.2361241977069
 21
981.79612490130864
 31
0.0
  0
LINE
  5
3A7
  8
0
 10
2451.1988550245578
 20
973.55450505282533
 30
0.0
 11
2452.0988550245579
 21
973.55450505282477
 31
0.0
  0
ARC
  5
3A8
  8
0
 10
2491.9361241977072
 20
981.79612490130864
 30
0.0
 40
0.3
 50
292.02431284307607
 51
0.0
  0
ARC
  5
3A9
  8
0
 10
2452.0988550245588
 20
973.85450505282483
 30
0.0
 40
0.3
 50
269.99999999991309
 51
0.0
  0
ARC
  5
3AA
  8
0
 10
2492.2361241977069
 20
981.05450505282511
 30
0.0
 40
0.5
 50
112.02431284311049
 51
247.97568715694101
  0
LINE
  5
3AB
  8
0
 10
2452.3988550245581
 20
973.85450505282483
 30
0.0
 11
2452.3988550245581
 21
988.05450505282511
 31
0.0
  0
ARC
  5
3AC
  8
0
 10
2491.9361241977072
 20
980.31288520434157
 30
0.0
 40
0.3
 50
0.0
 51
67.975687156837893
  0
ARC
  5
3AD
  8
0
 10
2453.3988550245581
 20
988.05450505282511
 30
0.0
 40
1.0
 50
90.0
 51
180.0
  0
LINE
  5
3AE
  8
0
 10
2492.2361241977069
 20
980.31288520434157
 30
0.0
 11
2492.2361241977078
 21
973.85450505282495
 31
0.0
  0
LINE
  5
3AF
  8
0
 10
2453.3988550245581
 20
989.05450505282511
 30
0.0
 11
2490.7361241977078
 21
989.05450505282488
 31
0.0
  0
ARC
  5
3B0
  8
0
 10
2491.9361241977081
 20
973.85450505282495
 30
0.0
 40
0.3
 50
270.0
 51
0.0
  0
LINE
  5
3B1
  8
0
 10
2490.7361241977078
 20
989.05450505282488
 30
0.0
 11
2490.7361241977069
 21
973.85450505282495
 31
0.0
  0
LINE
  5
3B2
  8
0
 10
2491.0361241977071
 20
973.55450505282511
 30
0.0
 11
2491.9361241977081
 21
973.55450505282511
 31
0.0
  0
ARC
  5
3B3
  8
0
 10
2491.0361241977071
 20
973.85450505282495
 30
0.0
 40
0.3
 50
180.0
 51
270.0
  0
ENDSEC
  0
EOF
