  0
SECTION
  2
HEADER
  9
$ACADVER
  1
AC1009
  9
$INSBASE
 10
0.0
 20
0.0
 30
0.0
  9
$EXTMIN
 10
747.40081971907171
 20
530.67178475655589
 30
-0.0015258207003583
  9
$EXTMAX
 10
823.43994285380472
 20
606.69374189676455
 30
0.0000000349246037
  9
$LIMMIN
 10
0.0
 20
0.0
  9
$LIMMAX
 10
420.0
 20
297.0
  9
$ORTHOMODE
 70
     0
  9
$REGENMODE
 70
     1
  9
$FILLMODE
 70
     1
  9
$QTEXTMODE
 70
     0
  9
$MIRRTEXT
 70
     0
  9
$DRAGMODE
 70
     2
  9
$LTSCALE
 40
1.0
  9
$OSMODE
 70
  3071
  9
$ATTMODE
 70
     1
  9
$TEXTSIZE
 40
2.5
  9
$TRACEWID
 40
1.0
  9
$TEXTSTYLE
  7
STANDARD
  9
$CLAYER
  8
0
  9
$CELTYPE
  6
BYLAYER
  9
$CECOLOR
 62
   256
  9
$DIMSCALE
 40
1.0
  9
$DIMASZ
 40
2.5
  9
$DIMEXO
 40
0.625
  9
$DIMDLI
 40
3.75
  9
$DIMRND
 40
0.0
  9
$DIMDLE
 40
0.0
  9
$DIMEXE
 40
1.25
  9
$DIMTP
 40
0.0
  9
$DIMTM
 40
0.0
  9
$DIMTXT
 40
2.5
  9
$DIMCEN
 40
2.5
  9
$DIMTSZ
 40
0.0
  9
$DIMTOL
 70
     0
  9
$DIMLIM
 70
     0
  9
$DIMTIH
 70
     0
  9
$DIMTOH
 70
     0
  9
$DIMSE1
 70
     0
  9
$DIMSE2
 70
     0
  9
$DIMTAD
 70
     1
  9
$DIMZIN
 70
     8
  9
$DIMBLK
  1

  9
$DIMASO
 70
     1
  9
$DIMSHO
 70
     1
  9
$DIMPOST
  1

  9
$DIMAPOST
  1

  9
$DIMALT
 70
     0
  9
$DIMALTD
 70
     3
  9
$DIMALTF
 40
0.03937007874016
  9
$DIMLFAC
 40
1.0
  9
$DIMTOFL
 70
     1
  9
$DIMTVP
 40
0.0
  9
$DIMTIX
 70
     0
  9
$DIMSOXD
 70
     0
  9
$DIMSAH
 70
     0
  9
$DIMBLK1
  1

  9
$DIMBLK2
  1

  9
$DIMSTYLE
  2
ISO-25
  9
$DIMCLRD
 70
     0
  9
$DIMCLRE
 70
     0
  9
$DIMCLRT
 70
     0
  9
$DIMTFAC
 40
1.0
  9
$DIMGAP
 40
0.625
  9
$LUNITS
 70
     2
  9
$LUPREC
 70
     4
  9
$SKETCHINC
 40
1.0
  9
$FILLETRAD
 40
0.0
  9
$AUNITS
 70
     0
  9
$AUPREC
 70
     0
  9
$MENU
  1
.
  9
$ELEVATION
 40
0.0
  9
$PELEVATION
 40
0.0
  9
$THICKNESS
 40
0.0
  9
$LIMCHECK
 70
     0
  9
$BLIPMODE
 70
     0
  9
$CHAMFERA
 40
0.0
  9
$CHAMFERB
 40
0.0
  9
$SKPOLY
 70
     0
  9
$TDCREATE
 40
2455929.4634988429
  9
$TDUPDATE
 40
2455929.4636242478
  9
$TDINDWG
 40
0.0001255787
  9
$TDUSRTIMER
 40
0.0001255787
  9
$USRTIMER
 70
     1
  9
$ANGBASE
 50
0.0
  9
$ANGDIR
 70
     0
  9
$PDMODE
 70
     0
  9
$PDSIZE
 40
0.0
  9
$PLINEWID
 40
0.0
  9
$COORDS
 70
     2
  9
$SPLFRAME
 70
     0
  9
$SPLINETYPE
 70
     6
  9
$SPLINESEGS
 70
     8
  9
$ATTDIA
 70
     0
  9
$ATTREQ
 70
     1
  9
$HANDLING
 70
     1
  9
$HANDSEED
  5
102
  9
$SURFTAB1
 70
     6
  9
$SURFTAB2
 70
     6
  9
$SURFTYPE
 70
     6
  9
$SURFU
 70
     6
  9
$SURFV
 70
     6
  9
$UCSNAME
  2

  9
$UCSORG
 10
0.0
 20
0.0
 30
0.0
  9
$UCSXDIR
 10
1.0
 20
0.0
 30
0.0
  9
$UCSYDIR
 10
0.0
 20
1.0
 30
0.0
  9
$PUCSNAME
  2

  9
$PUCSORG
 10
0.0
 20
0.0
 30
0.0
  9
$PUCSXDIR
 10
1.0
 20
0.0
 30
0.0
  9
$PUCSYDIR
 10
0.0
 20
1.0
 30
0.0
  9
$USERI1
 70
     0
  9
$USERI2
 70
     0
  9
$USERI3
 70
     0
  9
$USERI4
 70
     0
  9
$USERI5
 70
     0
  9
$USERR1
 40
0.0
  9
$USERR2
 40
0.0
  9
$USERR3
 40
0.0
  9
$USERR4
 40
0.0
  9
$USERR5
 40
0.0
  9
$WORLDVIEW
 70
     1
  9
$SHADEDGE
 70
     3
  9
$SHADEDIF
 70
    70
  9
$TILEMODE
 70
     1
  9
$MAXACTVP
 70
    64
  9
$PLIMCHECK
 70
     0
  9
$PEXTMIN
 10
0.0
 20
0.0
 30
0.0
  9
$PEXTMAX
 10
0.0
 20
0.0
 30
0.0
  9
$PLIMMIN
 10
0.0
 20
0.0
  9
$PLIMMAX
 10
12.0
 20
9.0
  9
$UNITMODE
 70
     0
  9
$VISRETAIN
 70
     1
  9
$PLINEGEN
 70
     0
  9
$PSLTSCALE
 70
     1
  0
ENDSEC
  0
SECTION
  2
TABLES
  0
TABLE
  2
VPORT
 70
     2
  0
VPORT
  2
*ACTIVE
 70
     0
 10
0.0
 20
0.0
 11
1.0
 21
1.0
 12
785.42038128643821
 22
568.68276332666017
 13
0.0
 23
0.0
 14
10.0
 24
10.0
 15
10.0
 25
10.0
 16
0.0
 26
0.0
 36
1.0
 17
0.0
 27
0.0
 37
0.0
 40
76.726952105959981
 41
2.3219814241486061
 42
50.0
 43
0.0
 44
0.0
 50
0.0
 51
0.0
 71
     0
 72
  1000
 73
     1
 74
     3
 75
     0
 76
     0
 77
     0
 78
     0
  0
ENDTAB
  0
TABLE
  2
LTYPE
 70
     1
  0
LTYPE
  2
CONTINUOUS
 70
     0
  3
Solid line
 72
    65
 73
     0
 40
0.0
  0
ENDTAB
  0
TABLE
  2
LAYER
 70
     1
  0
LAYER
  2
0
 70
     0
 62
     7
  6
CONTINUOUS
  0
ENDTAB
  0
TABLE
  2
STYLE
 70
     2
  0
STYLE
  2
STANDARD
 70
     0
 40
0.0
 41
1.0
 50
0.0
 71
     0
 42
2.5
  3
txt
  4

  0
STYLE
  2
ROMANT
 70
     0
 40
2.2999999999999989
 41
1.0
 50
15.0
 71
     0
 42
2.5
  3
romant.shx
  4

  0
ENDTAB
  0
TABLE
  2
VIEW
 70
     0
  0
ENDTAB
  0
TABLE
  2
UCS
 70
     0
  0
ENDTAB
  0
TABLE
  2
APPID
 70
     1
  0
APPID
  2
ACAD
 70
     0
  0
ENDTAB
  0
TABLE
  2
DIMSTYLE
 70
     2
  0
DIMSTYLE
  2
ISO-25
 70
     0
  3

  4

  5

  6

  7

 40
1.0
 41
2.5
 42
0.625
 43
3.75
 44
1.25
 45
0.0
 46
0.0
 47
0.0
 48
0.0
140
2.5
141
2.5
142
0.0
143
0.03937007874016
144
1.0
145
0.0
146
1.0
147
0.625
 71
     0
 72
     0
 73
     0
 74
     0
 75
     0
 76
     0
 77
     1
 78
     8
170
     0
171
     3
172
     1
173
     0
174
     0
175
     0
176
     0
177
     0
178
     0
  0
DIMSTYLE
  2
ISO-25_1_E_1
 70
     0
  3

  4

  5

  6

  7

 40
1.0
 41
2.5
 42
0.0
 43
3.75
 44
0.5
 45
0.0
 46
0.0
 47
0.0
 48
0.0
140
1.0
141
0.2
142
0.0
143
0.03937007874016
144
1.0
145
0.0
146
1.0
147
0.4
 71
     0
 72
     0
 73
     0
 74
     0
 75
     0
 76
     0
 77
     1
 78
     8
170
     0
171
     3
172
     0
173
     0
174
     0
175
     0
176
   242
177
   242
178
   242
  0
ENDTAB
  0
ENDSEC
  0
SECTION
  2
BLOCKS
  0
BLOCK
  8
0
  2
$MODEL_SPACE
 70
     0
 10
0.0
 20
0.0
 30
0.0
  3
$MODEL_SPACE
  1

  0
ENDBLK
  5
21
  8
0
  0
BLOCK
 67
     1
  8
0
  2
$PAPER_SPACE
 70
     0
 10
0.0
 20
0.0
 30
0.0
  3
$PAPER_SPACE
  1

  0
ENDBLK
  5
53
 67
     1
  8
0
  0
BLOCK
  8
0
  2
*U2
 70
     1
 10
0.0
 20
0.0
 30
0.0
  3
*U2
  1

  0
CIRCLE
  5
9F
  8
0
 10
38.000000568849153
 20
37.999999715548597
 30
0.0
 40
38.0
  0
CIRCLE
  5
A0
  8
0
 10
38.000000568849153
 20
37.999999715548597
 30
0.0
 40
35.0
  0
ENDBLK
  5
A2
  8
0
  0
BLOCK
  8
0
  2
*X3
 70
     1
 10
0.0
 20
0.0
 30
0.0
  3
*X3
  1

  0
LINE
  5
A4
  8
0
 62
     0
 10
61.210151091620169
 20
7.9119802940195143
 30
0.0
 11
68.088019990378214
 21
14.789849192777551
 31
0.0
  0
LINE
  5
A5
  8
0
 62
     0
 10
55.136375093160069
 20
4.0832683258266789
 30
0.0
 11
71.916731958571063
 21
20.86362519123767
 31
0.0
  0
LINE
  5
A6
  8
0
 62
     0
 10
66.520301611520367
 20
17.712258874454282
 30
0.0
 11
73.648743022096582
 21
24.840700285030501
 31
0.0
  0
LINE
  5
A7
  8
0
 62
     0
 10
51.159299999367263
 20
2.351257262301174
 30
0.0
 11
58.28774140994345
 21
9.4796986728773618
 31
0.0
  0
LINE
  5
A8
  8
0
 62
     0
 10
69.676266047339084
 20
23.113287340540271
 30
0.0
 11
74.696864009701756
 21
28.133885302902939
 31
0.0
  0
LINE
  5
A9
  8
0
 62
     0
 10
47.866114981494754
 20
1.3031362746959581
 30
0.0
 11
52.886712943857447
 21
6.3237342370586296
 31
0.0
  0
LINE
  5
AA
  8
0
 62
     0
 10
71.180782582922404
 20
26.86286790639091
 30
0.0
 11
75.357004348044939
 21
31.039089671513409
 31
0.0
  0
LINE
  5
AB
  8
0
 62
     0
 10
44.96091061288427
 20
0.6429959363527759
 30
0.0
 11
49.137132378006839
 21
4.8192177014753383
 31
0.0
  0
LINE
  5
AC
  8
0
 62
     0
 10
72.073634812989667
 20
30.00078416672542
 30
0.0
 11
75.753746649500357
 21
33.680896003236121
 31
0.0
  0
LINE
  5
AD
  8
0
 62
     0
 10
42.3191042811616
 20
0.2462536348973572
 30
0.0
 11
45.99921611767229
 21
3.9263654714080469
 31
0.0
  0
LINE
  5
AE
  8
0
 62
     0
 10
72.60868403428492
 20
32.780897418287992
 30
0.0
 11
75.953762360757324
 21
36.12597574476041
 31
0.0
  0
LINE
  5
AF
  8
0
 62
     0
 10
39.874024539637297
 20
0.0462379236403763
 30
0.0
 11
43.219102866109722
 21
3.3913162501127938
 31
0.0
  0
LINE
  5
B0
  8
0
 62
     0
 10
72.896787750306032
 20
35.314065164576363
 30
0.0
 11
75.997734252326751
 21
38.41501166659706
 31
0.0
  0
LINE
  5
B1
  8
0
 62
     0
 10
37.584988617800661
 20
0.0022660320709917
 30
0.0
 11
40.685935119821352
 21
3.1032125340916821
 31
0.0
  0
LINE
  5
B2
  8
0
 62
     0
 10
72.998355871371515
 20
37.660697315909168
 30
0.0
 11
75.912655318984065
 21
40.57499676352171
 31
0.0
  0
LINE
  5
B3
  8
0
 62
     0
 10
35.425003520875997
 20
0.0873449654136494
 30
0.0
 11
38.339302968488539
 21
3.0016444130261841
 31
0.0
  0
LINE
  5
B4
  8
0
 62
     0
 10
72.950646374991493
 20
39.858051849796396
 30
0.0
 11
75.717505707978376
 21
42.624911182783279
 31
0.0
  0
LINE
  5
B5
  8
0
 62
     0
 10
33.375089101614442
 20
0.2824945764193387
 30
0.0
 11
36.141948434601318
 21
3.049353909406221
 31
0.0
  0
LINE
  5
B6
  8
0
 62
     0
 10
72.778544612176063
 20
41.931014117248267
 30
0.0
 11
75.42620795298356
 21
44.578677458055779
 31
0.0
  0
LINE
  5
B7
  8
0
 62
     0
 10
31.42132282634191
 20
0.5737923314141256
 30
0.0
 11
34.068986167149461
 21
3.2214556722216789
 31
0.0
  0
LINE
  5
B8
  8
0
 62
     0
 10
72.499617969286788
 20
43.897151504626287
 30
0.0
 11
75.04930450677557
 21
46.446838042115047
 31
0.0
  0
LINE
  5
B9
  8
0
 62
     0
 10
29.553162242282689
 20
0.9506957776222009
 30
0.0
 11
32.102848779771477
 21
3.5003823151109819
 31
0.0
  0
LINE
  5
BA
  8
0
 62
     0
 10
72.12677634191482
 20
45.769373907521583
 30
0.0
 11
74.594974450416004
 21
48.237572016022803
 31
0.0
  0
LINE
  5
BB
  8
0
 62
     0
 10
27.762428268374919
 20
1.4050258339817101
 30
0.0
 11
30.23062637687611
 21
3.8732239424828938
 31
0.0
  0
LINE
  5
BC
  8
0
 62
     0
 10
71.66979454825676
 20
47.557456144130839
 30
0.0
 11
74.069682091437414
 21
49.957343687311493
 31
0.0
  0
LINE
  5
BD
  8
0
 62
     0
 10
26.04265659708625
 20
1.9303181929603279
 30
0.0
 11
28.442544140266911
 21
4.3302057361409823
 31
0.0
  0
LINE
  5
BE
  8
0
 62
     0
 10
71.136240491691694
 20
49.268966117833052
 30
0.0
 11
73.478608039933135
 21
51.611333666074501
 31
0.0
  0
LINE
  5
BF
  8
0
 62
     0
 10
24.388666618323189
 20
2.52139224446455
 30
0.0
 11
26.73103416656469
 21
4.8637597927060483
 31
0.0
  0
LINE
  5
C0
  8
0
 62
     0
 10
70.532069723098829
 20
50.909859379507509
 30
0.0
 11
72.825945383037237
 21
53.20373503944591
 31
0.0
  0
LINE
  5
C1
  8
0
 62
     0
 10
22.796265244951801
 20
3.1740549013604769
 30
0.0
 11
25.09014090489018
 21
5.4679305612988571
 31
0.0
  0
LINE
  5
C2
  8
0
 62
     0
 10
69.862021551447214
 20
52.484875238123152
 30
0.0
 11
72.115108727725271
 21
54.73796241440121
 31
0.0
  0
LINE
  5
C3
  8
0
 62
     0
 10
21.262037869996512
 20
3.884891556672442
 30
0.0
 11
23.515125046274559
 21
6.1379787329504998
 31
0.0
  0
LINE
  5
C4
  8
0
 62
     0
 10
69.12989130660776
 20
53.997809023550978
 30
0.0
 11
71.34888495739537
 21
56.216802674338588
 31
0.0
  0
LINE
  5
C5
  8
0
 62
     0
 10
19.783197610059169
 20
4.651115327002401
 30
0.0
 11
22.002191260846729
 21
6.8701089777899531
 31
0.0
  0
LINE
  5
C6
  8
0
 62
     0
 10
68.338722086987133
 20
55.451703834197637
 30
0.0
 11
70.529543762865018
 21
57.642525510075529
 31
0.0
  0
LINE
  5
C7
  8
0
 62
     0
 10
18.357474774322181
 20
5.4704565215326957
 30
0.0
 11
20.548296450200102
 21
7.661278197410609
 31
0.0
  0
LINE
  5
C8
  8
0
 62
     0
 10
67.49094223319932
 20
56.848988010677139
 30
0.0
 11
69.658919601369888
 21
59.016965378847708
 31
0.0
  0
LINE
  5
C9
  8
0
 62
     0
 10
16.983034905549999
 20
6.3410806830278261
 30
0.0
 11
19.151012273720571
 21
8.5090580511983944
 31
0.0
  0
LINE
  5
CA
  8
0
 62
     0
 10
66.588464966841087
 20
58.191574774586172
 30
0.0
 11
68.738472788374906
 21
60.341582596119991
 31
0.0
  0
LINE
  5
CB
  8
0
 62
     0
 10
15.658417688277719
 20
7.2615274960228069
 30
0.0
 11
17.80842550981157
 21
9.4115353175566554
 31
0.0
  0
LINE
  5
CC
  8
0
 62
     0
 10
65.632760768080203
 20
59.480934606092568
 30
0.0
 11
67.769334909871361
 21
61.617508747883761
 31
0.0
  0
LINE
  5
CD
  8
0
 62
     0
 10
14.38249153651395
 20
8.2306653745263532
 30
0.0
 11
16.519065678305139
 21
10.367239516317539
 31
0.0
  0
LINE
  5
CE
  8
0
 62
     0
 10
64.62490941525283
 20
60.718147283532517
 30
0.0
 11
66.752342084898245
 21
62.845579953177939
 31
0.0
  0
LINE
  5
CF
  8
0
 62
     0
 10
13.1544203312198
 20
9.2476581994994831
 30
0.0
 11
15.28185300086519
 21
11.375090869144911
 31
0.0
  0
LINE
  5
D0
  8
0
 62
     0
 10
63.565636246059078
 20
61.903938144606052
 30
0.0
 11
65.688058477656938
 21
64.026360376203911
 31
0.0
  0
LINE
  5
D1
  8
0
 62
     0
 10
11.9736399081938
 20
10.311941806740769
 30
0.0
 11
14.09606213979168
 21
12.434364038338661
 31
0.0
  0
LINE
  5
D2
  8
0
 62
     0
 10
62.455335600207427
 20
63.038701529021672
 30
0.0
 11
64.576791656246655
 21
65.160157585060844
 31
0.0
  0
LINE
  5
D3
  8
0
 62
     0
 10
10.839842699336851
 20
11.42320862815108
 30
0.0
 11
12.961298755376051
 21
13.54466468419028
 31
0.0
  0
LINE
  5
D4
  8
0
 62
     0
 10
61.294083258336201
 20
64.122513217417733
 30
0.0
 11
63.418600795477772
 21
66.247030754559319
 31
0.0
  0
LINE
  5
D5
  8
0
 62
     0
 10
9.7529695298383956
 20
12.58139948891994
 30
0.0
 11
11.87748706697994
 21
14.70591702606148
 31
0.0
  0
LINE
  5
D6
  8
0
 62
     0
 10
60.081638807847582
 20
65.155132797196416
 30
0.0
 11
62.213298241325759
 21
67.286792230674592
 31
0.0
  0
LINE
  5
D7
  8
0
 62
     0
 10
8.7132080537231502
 20
13.78670204307198
 30
0.0
 11
10.844867487201331
 21
15.91836147655016
 31
0.0
  0
LINE
  5
D8
  8
0
 62
     0
 10
58.817438110080303
 20
66.135996129696423
 30
0.0
 11
60.96044453452091
 21
68.279002554137008
 31
0.0
  0
LINE
  5
D9
  8
0
 62
     0
 10
7.7209977302606774
 20
15.03955574987682
 30
0.0
 11
9.8640041547012913
 21
17.182562174317439
 31
0.0
  0
LINE
  5
DA
  8
0
 62
     0
 10
57.500575310574852
 20
67.064197360458223
 30
0.0
 11
59.659336581794797
 21
69.222958631678154
 31
0.0
  0
LINE
  5
DB
  8
0
 62
     0
 10
6.7770416527195598
 20
16.340663702602939
 30
0.0
 11
8.9358029239395194
 21
18.499424973822901
 31
0.0
  0
LINE
  5
DC
  8
0
 62
     0
 10
56.12977302567964
 20
67.938459105830333
 30
0.0
 11
58.308988218693457
 21
70.11767429884415
 31
0.0
  0
LINE
  5
DD
  8
0
 62
     0
 10
5.882325985553563
 20
17.69101206570425
 30
0.0
 11
8.0615411785673814
 21
19.870227258718071
 31
0.0
  0
LINE
  5
DE
  8
0
 62
     0
 10
54.703338338506313
 20
68.757088448924293
 30
0.0
 11
56.908101874379639
 21
70.961851984797619
 31
0.0
  0
LINE
  5
DF
  8
0
 62
     0
 10
5.038148299600123
 20
19.0918984100181
 30
0.0
 11
7.2429118354734783
 21
21.296661945891461
 31
0.0
  0
LINE
  5
E0
  8
0
 62
     0
 10
53.219100885748759
 20
69.517915026434025
 30
0.0
 11
55.455029356374503
 21
71.753843497059762
 31
0.0
  0
LINE
  5
E1
  8
0
 62
     0
 10
4.2461567873379522
 20
20.544970928023218
 30
0.0
 11
6.4820852579636892
 21
22.780899398648959
 31
0.0
  0
LINE
  5
E2
  8
0
 62
     0
 10
51.674327369207219
 20
70.218205540159772
 30
0.0
 11
53.947718819734916
 21
72.491596990687469
 31
0.0
  0
LINE
  5
E3
  8
0
 62
     0
 10
3.5084032937103009
 20
22.052281464662862
 30
0.0
 11
5.7817947442379696
 21
24.32567291519053
 31
0.0
  0
LINE
  5
E4
  8
0
 62
     0
 10
50.065603878262522
 20
70.854546079482361
 30
0.0
 11
52.383643612092008
 21
73.172585813311855
 31
0.0
  0
LINE
  5
E5
  8
0
 62
     0
 10
2.8274144710858589
 20
23.616356672305699
 30
0.0
 11
5.1454542049153806
 21
25.934396406135221
 31
0.0
  0
LINE
  5
E6
  8
0
 62
     0
 10
48.388672761398681
 20
71.422678992885835
 30
0.0
 11
50.759706634729781
 21
73.793712866216936
 31
0.0
  0
LINE
  5
E7
  8
0
 62
     0
 10
2.2062874181807781
 20
25.24029364966793
 30
0.0
 11
4.5773212915118791
 21
27.611327522999041
 31
0.0
  0
LINE
  5
E8
  8
0
 62
     0
 10
46.638203163907292
 20
71.917273425661705
 30
0.0
 11
49.072110692083641
 21
74.351180953838053
 31
0.0
  0
LINE
  5
E9
  8
0
 62
     0
 10
1.648819330559661
 20
26.927889592314099
 30
0.0
 11
4.0827268587360086
 21
29.361797120490451
 31
0.0
  0
LINE
  5
EA
  8
0
 62
     0
 10
44.807461336077353
 20
72.331595628099024
 30
0.0
 11
47.316180246044553
 21
74.840314538066224
 31
0.0
  0
LINE
  5
EB
  8
0
 62
     0
 10
1.159685746331518
 20
28.683820038353218
 30
0.0
 11
3.6684046562987191
 21
31.192538948320419
 31
0.0
  0
LINE
  5
EC
  8
0
 62
     0
 10
42.887823571900952
 20
72.657021894189967
 30
0.0
 11
45.486111633848111
 21
75.255309956137125
 31
0.0
  0
LINE
  5
ED
  8
0
 62
     0
 10
0.7446903282606172
 20
30.513888650549632
 30
0.0
 11
3.342978390207775
 21
33.11217671249679
 31
0.0
  0
LINE
  5
EE
  8
0
 62
     0
 10
40.868030894935508
 20
72.882293247491816
 30
0.0
 11
43.57461444321077
 21
75.58887679576705
 31
0.0
  0
LINE
  5
EF
  8
0
 62
     0
 10
0.4111234886306363
 20
32.425385841186937
 30
0.0
 11
3.1177070369058981
 21
35.131969389462199
 31
0.0
  0
LINE
  5
F0
  8
0
 62
     0
 10
38.732997008349663
 20
72.992323391173215
 30
0.0
 11
41.572380915865523
 21
75.831707298689054
 31
0.0
  0
LINE
  5
F1
  8
0
 62
     0
 10
0.1682929857086322
 20
34.427619368532191
 30
0.0
 11
3.0076768932244979
 21
37.267003276048086
 31
0.0
  0
LINE
  5
F2
  8
0
 62
     0
 10
36.461791730178312
 20
72.966182143269151
 30
0.0
 11
39.467271322134387
 21
75.971661735225226
 31
0.0
  0
LINE
  5
F3
  8
0
 62
     0
 10
0.0283385491725028
 20
36.532728962263349
 30
0.0
 11
3.0338181411285912
 21
39.538208554219437
 31
0.0
  0
LINE
  5
F4
  8
0
 62
     0
 10
34.023971844554332
 20
72.773426287912486
 30
0.0
 11
37.243004483550287
 21
75.992458926908455
 31
0.0
  0
LINE
  5
F5
  8
0
 62
     0
 10
0.0075413574892877
 20
38.756995800847449
 30
0.0
 11
3.2265739964852571
 21
41.976028439843411
 31
0.0
  0
LINE
  5
F6
  8
0
 62
     0
 10
31.372216248331629
 20
72.366734721957044
 30
0.0
 11
34.876927110459832
 21
75.871445584085279
 31
0.0
  0
LINE
  5
F7
  8
0
 62
     0
 10
0.128554700312435
 20
41.123073173937883
 30
0.0
 11
3.6332655624406409
 21
44.627784036066082
 31
0.0
  0
LINE
  5
F8
  8
0
 62
     0
 10
28.42531610331142
 20
71.664898607204137
 30
0.0
 11
32.335916576660033
 21
75.575499080552746
 31
0.0
  0
LINE
  5
F9
  8
0
 62
     0
 10
0.4245012038449829
 20
43.664083707737703
 30
0.0
 11
4.3351016771935909
 21
47.574684181086312
 31
0.0
  0
LINE
  5
FA
  8
0
 62
     0
 10
25.019168206344549
 20
70.503814740504566
 30
0.0
 11
29.56804769524766
 21
75.052694229407663
 31
0.0
  0
LINE
  5
FB
  8
0
 62
     0
 10
0.9473060549900083
 20
46.431952589150058
 30
0.0
 11
5.4961855438931764
 21
50.980832078053197
 31
0.0
  0
LINE
  5
FC
  8
0
 62
     0
 10
20.690193448295251
 20
68.41990401272254
 30
0.0
 11
26.482964991292022
 21
74.212675555719315
 31
0.0
  0
LINE
  5
FD
  8
0
 62
     0
 10
1.7873247286784411
 20
49.517035293105742
 30
0.0
 11
7.5800962716752158
 21
55.30980683610251
 31
0.0
  0
LINE
  5
FE
  8
0
 62
     0
 10
3.1318003918892141
 20
53.106574986583809
 30
0.0
 11
22.893425297813881
 21
72.868199892508471
 31
0.0
  0
LINE
  5
FF
  8
0
 62
     0
 10
5.5440512665874158
 20
57.763889891549297
 30
0.0
 11
18.23611039284841
 21
70.455949017810283
 31
0.0
  0
ENDBLK
  5
101
  8
0
  0
ENDSEC
  0
SECTION
  2
ENTITIES
  0
CIRCLE
  5
8E
  8
0
 10
785.40956400513119
 20
568.68290331822402
 30
0.0
 40
38.0
  0
CIRCLE
  5
8F
  8
0
 10
785.40956400513119
 20
568.68290331822402
 30
0.0
 40
35.0
  0
ENDSEC
  0
EOF
