  0
SECTION
  2
HEADER
  9
$ACADVER
  1
AC1009
  9
$INSBASE
 10
0.0
 20
0.0
 30
0.0
  9
$EXTMIN
 10
653.6096208794155
 20
690.94102627614166
 30
-0.0015258207003583
  9
$EXTMAX
 10
700.26489388228515
 20
724.61274838169652
 30
0.0000000349246037
  9
$LIMMIN
 10
0.0
 20
0.0
  9
$LIMMAX
 10
420.0
 20
297.0
  9
$ORTHOMODE
 70
     0
  9
$REGENMODE
 70
     1
  9
$FILLMODE
 70
     1
  9
$QTEXTMODE
 70
     0
  9
$MIRRTEXT
 70
     0
  9
$DRAGMODE
 70
     2
  9
$LTSCALE
 40
1.0
  9
$OSMODE
 70
  3071
  9
$ATTMODE
 70
     1
  9
$TEXTSIZE
 40
2.5
  9
$TRACEWID
 40
1.0
  9
$TEXTSTYLE
  7
STANDARD
  9
$CLAYER
  8
0
  9
$CELTYPE
  6
BYLAYER
  9
$CECOLOR
 62
   256
  9
$DIMSCALE
 40
1.0
  9
$DIMASZ
 40
2.5
  9
$DIMEXO
 40
0.625
  9
$DIMDLI
 40
3.75
  9
$DIMRND
 40
0.0
  9
$DIMDLE
 40
0.0
  9
$DIMEXE
 40
1.25
  9
$DIMTP
 40
0.0
  9
$DIMTM
 40
0.0
  9
$DIMTXT
 40
2.5
  9
$DIMCEN
 40
2.5
  9
$DIMTSZ
 40
0.0
  9
$DIMTOL
 70
     0
  9
$DIMLIM
 70
     0
  9
$DIMTIH
 70
     0
  9
$DIMTOH
 70
     0
  9
$DIMSE1
 70
     0
  9
$DIMSE2
 70
     0
  9
$DIMTAD
 70
     1
  9
$DIMZIN
 70
     8
  9
$DIMBLK
  1

  9
$DIMASO
 70
     1
  9
$DIMSHO
 70
     1
  9
$DIMPOST
  1

  9
$DIMAPOST
  1

  9
$DIMALT
 70
     0
  9
$DIMALTD
 70
     3
  9
$DIMALTF
 40
0.03937007874016
  9
$DIMLFAC
 40
1.0
  9
$DIMTOFL
 70
     1
  9
$DIMTVP
 40
0.0
  9
$DIMTIX
 70
     0
  9
$DIMSOXD
 70
     0
  9
$DIMSAH
 70
     0
  9
$DIMBLK1
  1

  9
$DIMBLK2
  1

  9
$DIMSTYLE
  2
ISO-25
  9
$DIMCLRD
 70
     0
  9
$DIMCLRE
 70
     0
  9
$DIMCLRT
 70
     0
  9
$DIMTFAC
 40
1.0
  9
$DIMGAP
 40
0.625
  9
$LUNITS
 70
     2
  9
$LUPREC
 70
     4
  9
$SKETCHINC
 40
1.0
  9
$FILLETRAD
 40
0.0
  9
$AUNITS
 70
     0
  9
$AUPREC
 70
     0
  9
$MENU
  1
.
  9
$ELEVATION
 40
0.0
  9
$PELEVATION
 40
0.0
  9
$THICKNESS
 40
0.0
  9
$LIMCHECK
 70
     0
  9
$BLIPMODE
 70
     0
  9
$CHAMFERA
 40
0.0
  9
$CHAMFERB
 40
0.0
  9
$SKPOLY
 70
     0
  9
$TDCREATE
 40
2455939.6447320599
  9
$TDUPDATE
 40
2455939.6448634262
  9
$TDINDWG
 40
0.0001316551
  9
$TDUSRTIMER
 40
0.0001316551
  9
$USRTIMER
 70
     1
  9
$ANGBASE
 50
0.0
  9
$ANGDIR
 70
     0
  9
$PDMODE
 70
     0
  9
$PDSIZE
 40
0.0
  9
$PLINEWID
 40
0.0
  9
$COORDS
 70
     0
  9
$SPLFRAME
 70
     0
  9
$SPLINETYPE
 70
     6
  9
$SPLINESEGS
 70
     8
  9
$ATTDIA
 70
     0
  9
$ATTREQ
 70
     1
  9
$HANDLING
 70
     1
  9
$HANDSEED
  5
123
  9
$SURFTAB1
 70
     6
  9
$SURFTAB2
 70
     6
  9
$SURFTYPE
 70
     6
  9
$SURFU
 70
     6
  9
$SURFV
 70
     6
  9
$UCSNAME
  2

  9
$UCSORG
 10
0.0
 20
0.0
 30
0.0
  9
$UCSXDIR
 10
1.0
 20
0.0
 30
0.0
  9
$UCSYDIR
 10
0.0
 20
1.0
 30
0.0
  9
$PUCSNAME
  2

  9
$PUCSORG
 10
0.0
 20
0.0
 30
0.0
  9
$PUCSXDIR
 10
1.0
 20
0.0
 30
0.0
  9
$PUCSYDIR
 10
0.0
 20
1.0
 30
0.0
  9
$USERI1
 70
     0
  9
$USERI2
 70
     0
  9
$USERI3
 70
     0
  9
$USERI4
 70
     0
  9
$USERI5
 70
     0
  9
$USERR1
 40
0.0
  9
$USERR2
 40
0.0
  9
$USERR3
 40
0.0
  9
$USERR4
 40
0.0
  9
$USERR5
 40
0.0
  9
$WORLDVIEW
 70
     1
  9
$SHADEDGE
 70
     3
  9
$SHADEDIF
 70
    70
  9
$TILEMODE
 70
     1
  9
$MAXACTVP
 70
    64
  9
$PLIMCHECK
 70
     0
  9
$PEXTMIN
 10
0.0
 20
0.0
 30
0.0
  9
$PEXTMAX
 10
0.0
 20
0.0
 30
0.0
  9
$PLIMMIN
 10
0.0
 20
0.0
  9
$PLIMMAX
 10
12.0
 20
9.0
  9
$UNITMODE
 70
     0
  9
$VISRETAIN
 70
     1
  9
$PLINEGEN
 70
     0
  9
$PSLTSCALE
 70
     1
  0
ENDSEC
  0
SECTION
  2
TABLES
  0
TABLE
  2
VPORT
 70
     2
  0
VPORT
  2
*ACTIVE
 70
     0
 10
0.0
 20
0.0
 11
1.0
 21
1.0
 12
676.93725738085027
 22
707.77688732891909
 13
0.0
 23
0.0
 14
10.0
 24
10.0
 15
10.0
 25
10.0
 16
0.0
 26
0.0
 36
1.0
 17
0.0
 27
0.0
 37
0.0
 40
33.983979188450348
 41
2.3219814241486061
 42
50.0
 43
0.0
 44
0.0
 50
0.0
 51
0.0
 71
     0
 72
  1000
 73
     1
 74
     3
 75
     0
 76
     0
 77
     0
 78
     0
  0
ENDTAB
  0
TABLE
  2
LTYPE
 70
     1
  0
LTYPE
  2
CONTINUOUS
 70
     0
  3
Solid line
 72
    65
 73
     0
 40
0.0
  0
ENDTAB
  0
TABLE
  2
LAYER
 70
     1
  0
LAYER
  2
0
 70
     0
 62
     7
  6
CONTINUOUS
  0
ENDTAB
  0
TABLE
  2
STYLE
 70
     2
  0
STYLE
  2
STANDARD
 70
     0
 40
0.0
 41
1.0
 50
0.0
 71
     0
 42
2.5
  3
txt
  4

  0
STYLE
  2
ROMANT
 70
     0
 40
2.2999999999999989
 41
1.0
 50
15.0
 71
     0
 42
2.5
  3
romant.shx
  4

  0
ENDTAB
  0
TABLE
  2
VIEW
 70
     0
  0
ENDTAB
  0
TABLE
  2
UCS
 70
     0
  0
ENDTAB
  0
TABLE
  2
APPID
 70
     1
  0
APPID
  2
ACAD
 70
     0
  0
ENDTAB
  0
TABLE
  2
DIMSTYLE
 70
     2
  0
DIMSTYLE
  2
ISO-25
 70
     0
  3

  4

  5

  6

  7

 40
1.0
 41
2.5
 42
0.625
 43
3.75
 44
1.25
 45
0.0
 46
0.0
 47
0.0
 48
0.0
140
2.5
141
2.5
142
0.0
143
0.03937007874016
144
1.0
145
0.0
146
1.0
147
0.625
 71
     0
 72
     0
 73
     0
 74
     0
 75
     0
 76
     0
 77
     1
 78
     8
170
     0
171
     3
172
     1
173
     0
174
     0
175
     0
176
     0
177
     0
178
     0
  0
DIMSTYLE
  2
ISO-25_1_E_1
 70
     0
  3

  4

  5

  6

  7

 40
1.0
 41
2.5
 42
0.0
 43
3.75
 44
0.5
 45
0.0
 46
0.0
 47
0.0
 48
0.0
140
1.0
141
0.2
142
0.0
143
0.03937007874016
144
1.0
145
0.0
146
1.0
147
0.4
 71
     0
 72
     0
 73
     0
 74
     0
 75
     0
 76
     0
 77
     1
 78
     8
170
     0
171
     3
172
     0
173
     0
174
     0
175
     0
176
   242
177
   242
178
   242
  0
ENDTAB
  0
ENDSEC
  0
SECTION
  2
BLOCKS
  0
BLOCK
  8
0
  2
$MODEL_SPACE
 70
     0
 10
0.0
 20
0.0
 30
0.0
  3
$MODEL_SPACE
  1

  0
ENDBLK
  5
21
  8
0
  0
BLOCK
 67
     1
  8
0
  2
$PAPER_SPACE
 70
     0
 10
0.0
 20
0.0
 30
0.0
  3
$PAPER_SPACE
  1

  0
ENDBLK
  5
53
 67
     1
  8
0
  0
BLOCK
  8
0
  2
*X2
 70
     1
 10
0.0
 20
0.0
 30
0.0
  3
*X2
  1

  0
LINE
  5
C6
  8
0
 62
     0
 10
44.864214431030433
 20
25.920585629293669
 30
0.0
 11
45.829414456541002
 21
26.885785654804241
 31
0.0
  0
LINE
  5
C7
  8
0
 62
     0
 10
18.943628944055011
 20
0.0000001423182425
 30
0.0
 11
20.829999943516381
 21
1.886371141779619
 31
0.0
  0
LINE
  5
C8
  8
0
 62
     0
 10
43.268431620351691
 20
26.09256977158125
 30
0.0
 11
45.829999943516412
 21
28.654138094745981
 31
0.0
  0
LINE
  5
C9
  8
0
 62
     0
 10
17.175861991088649
 20
0.0000001423182141
 30
0.0
 11
20.175861991088681
 21
3.0000001423182421
 31
0.0
  0
LINE
  5
CA
  8
0
 62
     0
 10
42.829996328597872
 20
27.42190143279382
 30
0.0
 11
45.566570486975607
 21
30.15847559117157
 31
0.0
  0
LINE
  5
CB
  8
0
 62
     0
 10
15.82372777080621
 20
0.4156328750021601
 30
0.0
 11
18.835323923414158
 21
3.4272290276101098
 31
0.0
  0
LINE
  5
CC
  8
0
 62
     0
 10
41.560328085155987
 20
27.920000142318312
 30
0.0
 11
44.743688267469253
 21
31.103360324631549
 31
0.0
  0
LINE
  5
CD
  8
0
 62
     0
 10
15.329999943516381
 20
1.689672000678712
 30
0.0
 11
18.829999943516409
 21
5.1896720006787396
 31
0.0
  0
LINE
  5
CE
  8
0
 62
     0
 10
39.792561132189611
 20
27.92000014231829
 30
0.0
 11
43.41264197505128
 21
31.540080985179969
 31
0.0
  0
LINE
  5
CF
  8
0
 62
     0
 10
15.329999943516381
 20
3.4574389536450658
 30
0.0
 11
18.829999943516349
 21
6.9574389536450383
 31
0.0
  0
LINE
  5
D0
  8
0
 62
     0
 10
38.024794179223278
 20
27.92000014231829
 30
0.0
 11
41.646241336523268
 21
31.54144729961828
 31
0.0
  0
LINE
  5
D1
  8
0
 62
     0
 10
15.329999943516411
 20
5.2252059066114489
 30
0.0
 11
18.829999943516441
 21
8.7252059066114498
 31
0.0
  0
LINE
  5
D2
  8
0
 62
     0
 10
36.257027226256838
 20
27.920000142318258
 30
0.0
 11
39.878474383556842
 21
31.541447299618259
 31
0.0
  0
LINE
  5
D3
  8
0
 62
     0
 10
15.329999943516381
 20
6.9929728595778036
 30
0.0
 11
18.829999943516381
 21
10.492972859577799
 31
0.0
  0
LINE
  5
D4
  8
0
 62
     0
 10
34.489260273290512
 20
27.920000142318312
 30
0.0
 11
38.110707430590509
 21
31.541447299618309
 31
0.0
  0
LINE
  5
D5
  8
0
 62
     0
 10
15.329999943516381
 20
8.7607398125441875
 30
0.0
 11
18.829999943516381
 21
12.260739812544189
 31
0.0
  0
LINE
  5
D6
  8
0
 62
     0
 10
32.7214933203241
 20
27.92000014231829
 30
0.0
 11
36.342940477624097
 21
31.54144729961828
 31
0.0
  0
LINE
  5
D7
  8
0
 62
     0
 10
15.329999943516381
 20
10.528506765510571
 30
0.0
 11
18.829999943516349
 21
14.02850676551054
 31
0.0
  0
LINE
  5
D8
  8
0
 62
     0
 10
20.033726367357762
 20
17.000000142318271
 30
0.0
 11
20.829999943516409
 21
17.796273718476922
 31
0.0
  0
LINE
  5
D9
  8
0
 62
     0
 10
30.953726367357799
 20
27.92000014231829
 30
0.0
 11
34.575173524657799
 21
31.54144729961828
 31
0.0
  0
LINE
  5
DA
  8
0
 62
     0
 10
15.329999943516411
 20
12.29627371847689
 30
0.0
 11
18.829999943516381
 21
15.7962737184769
 31
0.0
  0
LINE
  5
DB
  8
0
 62
     0
 10
29.185959414391359
 20
27.920000142318258
 30
0.0
 11
32.807406571691359
 21
31.541447299618259
 31
0.0
  0
LINE
  5
DC
  8
0
 62
     0
 10
15.329999943516381
 20
14.06404067144328
 30
0.0
 11
20.826340658508482
 21
19.560381386435381
 31
0.0
  0
LINE
  5
DD
  8
0
 62
     0
 10
27.41819246142504
 20
27.920000142318312
 30
0.0
 11
31.03963961872504
 21
31.541447299618309
 31
0.0
  0
LINE
  5
DE
  8
0
 62
     0
 10
15.329999943516381
 20
15.831807624409659
 30
0.0
 11
19.498192461425049
 21
20.000000142318331
 31
0.0
  0
LINE
  5
DF
  8
0
 62
     0
 10
25.650425508458628
 20
27.920000142318258
 30
0.0
 11
29.271872665758622
 21
31.541447299618259
 31
0.0
  0
LINE
  5
E0
  8
0
 62
     0
 10
15.329999943516381
 20
17.599574577376021
 30
0.0
 11
18.829999943516349
 21
21.099574577375989
 31
0.0
  0
LINE
  5
E1
  8
0
 62
     0
 10
23.882658555492331
 20
27.92000014231829
 30
0.0
 11
27.50410571279232
 21
31.54144729961828
 31
0.0
  0
LINE
  5
E2
  8
0
 62
     0
 10
15.329999943516411
 20
19.367341530342369
 30
0.0
 11
18.829999943516381
 21
22.867341530342369
 31
0.0
  0
LINE
  5
E3
  8
0
 62
     0
 10
22.114891602525891
 20
27.920000142318258
 30
0.0
 11
25.736338759825891
 21
31.541447299618259
 31
0.0
  0
LINE
  5
E4
  8
0
 62
     0
 10
15.2978748526796
 20
21.10298339247197
 30
0.0
 11
18.829999943516381
 21
24.635108483308759
 31
0.0
  0
LINE
  5
E5
  8
0
 62
     0
 10
20.265934106303181
 20
27.8388095990619
 30
0.0
 11
23.968571806859561
 21
31.541447299618309
 31
0.0
  0
LINE
  5
E6
  8
0
 62
     0
 10
15.209843633095341
 20
22.782719125854101
 30
0.0
 11
18.911190486772739
 21
26.484065979531501
 31
0.0
  0
LINE
  5
E7
  8
0
 62
     0
 10
15.12181241351106
 20
24.462454859236178
 30
0.0
 11
22.20080485389315
 21
31.54144729961828
 31
0.0
  0
LINE
  5
E8
  8
0
 62
     0
 10
15.03378119392687
 20
26.142190592618331
 30
0.0
 11
20.51480479817911
 21
31.623214196870581
 31
0.0
  0
LINE
  5
E9
  8
0
 62
     0
 10
14.72436001474969
 20
27.600536366407511
 30
0.0
 11
19.084588975151942
 21
31.960765326809788
 31
0.0
  0
LINE
  5
EA
  8
0
 62
     0
 10
13.27605683769408
 20
27.920000142318312
 30
0.0
 11
17.608699350354271
 21
32.252642654978501
 31
0.0
  0
LINE
  5
EB
  8
0
 62
     0
 10
11.50828988472767
 20
27.920000142318258
 30
0.0
 11
16.083605656481438
 21
32.495315914072023
 31
0.0
  0
LINE
  5
EC
  8
0
 62
     0
 10
9.7405229317613191
 20
27.920000142318258
 30
0.0
 11
14.505060320937099
 21
32.684537531494051
 31
0.0
  0
LINE
  5
ED
  8
0
 62
     0
 10
7.972755978794936
 20
27.920000142318258
 30
0.0
 11
12.867889662641121
 21
32.815133826164441
 31
0.0
  0
LINE
  5
EE
  8
0
 62
     0
 10
6.2049890258285814
 20
27.920000142318258
 30
0.0
 11
11.16569742101904
 21
32.880708537508717
 31
0.0
  0
LINE
  5
EF
  8
0
 62
     0
 10
1.0557097193285749
 20
22.770720835818281
 30
0.0
 11
3.329999943516412
 21
25.045011060006122
 31
0.0
  0
LINE
  5
F0
  8
0
 62
     0
 10
4.4372220728622258
 20
27.92000014231829
 30
0.0
 11
9.3904309068120995
 21
32.873208976268131
 31
0.0
  0
LINE
  5
F1
  8
0
 62
     0
 10
0.033034660906452
 20
23.515812730362509
 30
0.0
 11
3.32999994351644
 21
26.812778012972501
 31
0.0
  0
LINE
  5
F2
  8
0
 62
     0
 10
-0.0000000564836
 20
25.250544965938811
 30
0.0
 11
7.5317227355310763
 21
32.782267757953491
 31
0.0
  0
LINE
  5
F3
  8
0
 62
     0
 10
-0.0000000564836
 20
27.018311918905201
 30
0.0
 11
5.4856168066989142
 21
32.503928782087712
 31
0.0
  0
LINE
  5
F4
  8
0
 62
     0
 10
-0.0000000564836
 20
28.786078871871581
 30
0.0
 11
2.6677729545897928
 21
31.453851882944971
 31
0.0
  0
ENDBLK
  5
F6
  8
0
  0
BLOCK
  8
0
  2
*U3
 70
     1
 10
0.0
 20
0.0
 30
0.0
  3
*U3
  1

  0
LINE
  5
F8
  8
0
 10
20.829999943516409
 20
1.0000001423182421
 30
0.0
 11
20.829999943516409
 21
2.5000001423182421
 31
0.0
  0
ARC
  5
F9
  8
0
 10
20.329999943516409
 20
2.5000001423182421
 30
0.0
 40
0.5
 50
0.0
 51
90.0
  0
ARC
  5
FA
  8
0
 10
19.829999943516409
 20
1.0000001423182421
 30
0.0
 40
1.0
 50
270.0
 51
0.0
  0
LINE
  5
FB
  8
0
 10
20.329999943516409
 20
3.0000001423182421
 30
0.0
 11
19.329999943516409
 21
3.0000001423182421
 31
0.0
  0
LINE
  5
FC
  8
0
 10
16.87999994351642
 20
0.0000001423182425
 30
0.0
 11
19.829999943516409
 21
0.0000001423182425
 31
0.0
  0
ARC
  5
FD
  8
0
 10
19.329999943516409
 20
3.5000001423182421
 30
0.0
 40
0.5000000000000006
 50
180.0
 51
270.0
  0
ARC
  5
FE
  8
0
 10
16.87999994351642
 20
1.550000142318253
 30
0.0
 40
1.55
 50
180.0
 51
270.0
  0
LINE
  5
FF
  8
0
 10
18.829999943516409
 20
3.5000001423182421
 30
0.0
 11
18.829999943516409
 21
16.500000142318271
 31
0.0
  0
LINE
  5
100
  8
0
 10
15.329999943516411
 20
20.463814220718259
 30
0.0
 11
15.329999943516411
 21
1.550000142318253
 31
0.0
  0
ARC
  5
101
  8
0
 10
19.329999943516409
 20
16.500000142318271
 30
0.0
 40
0.5000000000000018
 50
90.0
 51
180.0
  0
ARC
  5
102
  8
0
 10
14.329999943516411
 20
20.463814220718259
 30
0.0
 40
1.0
 50
0.0
 51
3.0000000031283318
  0
LINE
  5
103
  8
0
 10
19.329999943516409
 20
17.000000142318271
 30
0.0
 11
20.329999943516409
 21
17.000000142318271
 31
0.0
  0
LINE
  5
104
  8
0
 10
14.99027511147102
 20
26.972336098561222
 30
0.0
 11
15.328629478316399
 21
20.516150177018261
 31
0.0
  0
ARC
  5
105
  8
0
 10
20.329999943516409
 20
17.500000142318271
 30
0.0
 40
0.5000000000000002
 50
270.0
 51
0.0
  0
ARC
  5
106
  8
0
 10
13.991645576716451
 20
26.920000142318258
 30
0.0
 40
1.0
 50
3.000000000000715
 51
90.0
  0
LINE
  5
107
  8
0
 10
20.829999943516409
 20
17.500000142318271
 30
0.0
 11
20.829999943516409
 21
19.500000142318271
 31
0.0
  0
LINE
  5
108
  8
0
 10
4.32999994351644
 20
27.920000142318258
 30
0.0
 11
13.991645576716451
 21
27.920000142318258
 31
0.0
  0
ARC
  5
109
  8
0
 10
20.329999943516409
 20
19.500000142318271
 30
0.0
 40
0.5
 50
0.0
 51
90.0
  0
ARC
  5
10A
  8
0
 10
4.32999994351644
 20
26.920000142318258
 30
0.0
 40
1.0000000000000011
 50
90.0
 51
180.0
  0
LINE
  5
10B
  8
0
 10
20.329999943516409
 20
20.000000142318271
 30
0.0
 11
19.329999943516409
 21
20.000000142318271
 31
0.0
  0
LINE
  5
10C
  8
0
 10
3.329999943516412
 20
23.770720835818249
 30
0.0
 11
3.32999994351644
 21
26.920000142318258
 31
0.0
  0
ARC
  5
10D
  8
0
 10
19.329999943516409
 20
20.500000142318271
 30
0.0
 40
0.5
 50
180.0
 51
270.0
  0
ARC
  5
10E
  8
0
 10
2.329999943516412
 20
23.770720835818249
 30
0.0
 40
1.0000000000000031
 50
270.0
 51
0.0
  0
LINE
  5
10F
  8
0
 10
18.829999943516409
 20
20.500000142318271
 30
0.0
 11
18.829999943516409
 21
25.920000142318258
 31
0.0
  0
LINE
  5
110
  8
0
 10
0.9999999435163999
 20
22.770720835818249
 30
0.0
 11
2.329999943516412
 21
22.770720835818249
 31
0.0
  0
ARC
  5
111
  8
0
 10
20.829999943516409
 20
25.920000142318258
 30
0.0
 40
2.0
 50
89.999999999999204
 51
180.0
  0
ARC
  5
112
  8
0
 10
0.9999999435163999
 20
23.770720835818249
 30
0.0
 40
1.0000000000000011
 50
180.0
 51
270.0
  0
LINE
  5
113
  8
0
 10
20.829999943516441
 20
27.920000142318258
 30
0.0
 11
42.329999943516441
 21
27.920000142318258
 31
0.0
  0
LINE
  5
114
  8
0
 10
-0.0000000564835716
 20
28.92126666651825
 30
0.0
 11
-0.0000000564836
 21
23.770720835818249
 31
0.0
  0
ARC
  5
115
  8
0
 10
42.329999943516441
 20
27.420000142318258
 30
0.0
 40
0.5000000000000036
 50
0.0
 51
90.0
  0
ARC
  5
116
  8
0
 10
1.999999943516428
 20
28.92126666651825
 30
0.0
 40
2.0000000000000031
 50
116.61040700162999
 51
180.0
  0
LINE
  5
117
  8
0
 10
42.829999943516427
 20
27.420000142318258
 30
0.0
 11
42.829999943516427
 21
26.920000142318258
 31
0.0
  0
ARC
  5
118
  8
0
 10
20.408506450616422
 20
-7.8229998576817357
 30
0.0
 40
43.09761835220376
 50
112.4297413017734
 51
116.61040700139991
  0
ARC
  5
119
  8
0
 10
43.829999943516441
 20
26.920000142318258
 30
0.0
 40
1.0000000000000011
 50
180.0
 51
269.99999999999841
  0
ARC
  5
11A
  8
0
 10
7.7801021683164029
 20
22.770720835818249
 30
0.0
 40
10.0
 50
94.987536269880735
 51
112.42974130179979
  0
LINE
  5
11B
  8
0
 10
43.829999943516412
 20
25.920000142318258
 30
0.0
 11
44.829999943516412
 21
25.920000142318258
 31
0.0
  0
ARC
  5
11C
  8
0
 10
10.44999994351641
 20
-7.8229998576817357
 30
0.0
 40
40.710000000000008
 50
75.227943151517408
 51
94.987536269799946
  0
ARC
  5
11D
  8
0
 10
44.829999943516441
 20
26.920000142318258
 30
0.0
 40
1.0
 50
269.99999999999841
 51
0.0
  0
LINE
  5
11E
  8
0
 10
43.329999943516441
 20
31.541447299618259
 30
0.0
 11
20.829999943516441
 21
31.541447299618259
 31
0.0
  0
LINE
  5
11F
  8
0
 10
45.829999943516441
 20
26.920000142318258
 30
0.0
 11
45.829999943516441
 21
29.041447299618259
 31
0.0
  0
ARC
  5
120
  8
0
 10
43.329999943516441
 20
29.041447299618259
 30
0.0
 40
2.5
 50
0.0
 51
90.0
  0
ENDBLK
  5
122
  8
0
  0
ENDSEC
  0
SECTION
  2
ENTITIES
  0
LINE
  5
8E
  8
0
 10
674.72203796704946
 20
692.27470588244364
 30
0.0
 11
674.72203796704946
 21
693.77470588244364
 31
0.0
  0
ARC
  5
8F
  8
0
 10
674.22203796704946
 20
693.77470588244364
 30
0.0
 40
0.5
 50
0.0
 51
90.0
  0
ARC
  5
90
  8
0
 10
673.72203796704946
 20
692.27470588244364
 30
0.0
 40
1.0
 50
270.0
 51
0.0
  0
LINE
  5
91
  8
0
 10
674.22203796704946
 20
694.27470588244364
 30
0.0
 11
673.22203796704946
 21
694.27470588244364
 31
0.0
  0
LINE
  5
92
  8
0
 10
670.77203796704953
 20
691.27470588244364
 30
0.0
 11
673.72203796704946
 21
691.27470588244364
 31
0.0
  0
ARC
  5
93
  8
0
 10
673.22203796704946
 20
694.77470588244364
 30
0.0
 40
0.5000000000000006
 50
180.0
 51
270.0
  0
ARC
  5
94
  8
0
 10
670.77203796704953
 20
692.82470588244371
 30
0.0
 40
1.55
 50
180.0
 51
270.0
  0
LINE
  5
95
  8
0
 10
672.72203796704946
 20
694.77470588244364
 30
0.0
 11
672.72203796704946
 21
707.77470588244375
 31
0.0
  0
LINE
  5
96
  8
0
 10
669.22203796704946
 20
711.73851996084375
 30
0.0
 11
669.22203796704946
 21
692.82470588244371
 31
0.0
  0
ARC
  5
97
  8
0
 10
673.22203796704946
 20
707.77470588244375
 30
0.0
 40
0.5000000000000018
 50
90.0
 51
180.0
  0
ARC
  5
98
  8
0
 10
668.22203796704946
 20
711.73851996084375
 30
0.0
 40
1.0
 50
0.0
 51
3.0000000031283318
  0
LINE
  5
99
  8
0
 10
673.22203796704946
 20
708.27470588244375
 30
0.0
 11
674.22203796704946
 21
708.27470588244375
 31
0.0
  0
LINE
  5
9A
  8
0
 10
668.8823131350041
 20
718.24704183868664
 30
0.0
 11
669.22066750184945
 21
711.79085591714374
 31
0.0
  0
ARC
  5
9B
  8
0
 10
674.22203796704946
 20
708.77470588244375
 30
0.0
 40
0.5000000000000002
 50
270.0
 51
0.0
  0
ARC
  5
9C
  8
0
 10
667.88368360024958
 20
718.1947058824436
 30
0.0
 40
1.0
 50
2.9999999999992601
 51
90.0
  0
LINE
  5
9D
  8
0
 10
674.72203796704946
 20
708.77470588244375
 30
0.0
 11
674.72203796704946
 21
710.77470588244375
 31
0.0
  0
LINE
  5
9E
  8
0
 10
658.22203796704946
 20
719.19470588244371
 30
0.0
 11
667.88368360024958
 21
719.19470588244371
 31
0.0
  0
ARC
  5
9F
  8
0
 10
674.22203796704946
 20
710.77470588244375
 30
0.0
 40
0.5
 50
0.0
 51
90.0
  0
ARC
  5
A0
  8
0
 10
658.22203796704946
 20
718.1947058824436
 30
0.0
 40
1.0000000000000011
 50
90.0
 51
180.0
  0
LINE
  5
A1
  8
0
 10
674.22203796704946
 20
711.27470588244375
 30
0.0
 11
673.22203796704946
 21
711.27470588244375
 31
0.0
  0
LINE
  5
A2
  8
0
 10
657.22203796704946
 20
715.04542657594357
 30
0.0
 11
657.22203796704946
 21
718.1947058824436
 31
0.0
  0
ARC
  5
A3
  8
0
 10
673.22203796704946
 20
711.77470588244375
 30
0.0
 40
0.5
 50
180.0
 51
270.0
  0
ARC
  5
A4
  8
0
 10
656.22203796704946
 20
715.04542657594357
 30
0.0
 40
1.0000000000000031
 50
270.0
 51
0.0
  0
LINE
  5
A5
  8
0
 10
672.72203796704946
 20
711.77470588244375
 30
0.0
 11
672.72203796704946
 21
717.19470588244371
 31
0.0
  0
LINE
  5
A6
  8
0
 10
654.89203796704953
 20
714.04542657594357
 30
0.0
 11
656.22203796704946
 21
714.04542657594357
 31
0.0
  0
ARC
  5
A7
  8
0
 10
674.72203796704946
 20
717.19470588244371
 30
0.0
 40
2.0
 50
90.0
 51
180.0
  0
ARC
  5
A8
  8
0
 10
654.89203796704953
 20
715.04542657594357
 30
0.0
 40
1.0000000000000011
 50
180.0
 51
270.0
  0
LINE
  5
A9
  8
0
 10
674.72203796704946
 20
719.19470588244371
 30
0.0
 11
696.22203796704957
 21
719.19470588244371
 31
0.0
  0
LINE
  5
AA
  8
0
 10
653.89203796704953
 20
720.1959724066437
 30
0.0
 11
653.89203796704953
 21
715.04542657594357
 31
0.0
  0
ARC
  5
AB
  8
0
 10
696.22203796704957
 20
718.6947058824436
 30
0.0
 40
0.5000000000000036
 50
0.0
 51
90.0
  0
ARC
  5
AC
  8
0
 10
655.89203796704953
 20
720.1959724066437
 30
0.0
 40
2.0000000000000031
 50
116.6104070016297
 51
180.0
  0
LINE
  5
AD
  8
0
 10
696.72203796704957
 20
718.6947058824436
 30
0.0
 11
696.72203796704957
 21
718.1947058824436
 31
0.0
  0
ARC
  5
AE
  8
0
 10
674.30054447414955
 20
683.45170588244366
 30
0.0
 40
43.09761835220376
 50
112.4297413017735
 51
116.61040700140001
  0
ARC
  5
AF
  8
0
 10
697.72203796704946
 20
718.1947058824436
 30
0.0
 40
1.0000000000000011
 50
180.0
 51
270.0
  0
ARC
  5
B0
  8
0
 10
661.67214019184951
 20
714.04542657594357
 30
0.0
 40
10.0
 50
94.987536269880593
 51
112.42974130179969
  0
LINE
  5
B1
  8
0
 10
697.72203796704946
 20
717.19470588244371
 30
0.0
 11
698.72203796704946
 21
717.19470588244371
 31
0.0
  0
ARC
  5
B2
  8
0
 10
664.34203796704946
 20
683.45170588244366
 30
0.0
 40
40.710000000000008
 50
75.227943151517451
 51
94.987536269800017
  0
ARC
  5
B3
  8
0
 10
698.72203796704946
 20
718.1947058824436
 30
0.0
 40
1.0
 50
270.0
 51
0.0
  0
LINE
  5
B4
  8
0
 10
697.22203796704957
 20
722.81615303974377
 30
0.0
 11
674.72203796704946
 21
722.81615303974377
 31
0.0
  0
LINE
  5
B5
  8
0
 10
699.72203796704946
 20
718.1947058824436
 30
0.0
 11
699.72203796704946
 21
720.31615303974365
 31
0.0
  0
ARC
  5
B6
  8
0
 10
697.22203796704957
 20
720.31615303974365
 30
0.0
 40
2.5
 50
0.0
 51
90.0
  0
ENDSEC
  0
EOF
