  0
SECTION
  2
HEADER
  9
$ACADVER
  1
AC1009
  9
$INSBASE
 10
0.0
 20
0.0
 30
0.0
  9
$EXTMIN
 10
65.064056128723109
 20
22.526500367176599
 30
0.0
  9
$EXTMAX
 10
95.064056128723223
 20
42.526500367176922
 30
0.0
  9
$LIMMIN
 10
0.0
 20
0.0
  9
$LIMMAX
 10
12.0
 20
9.0
  9
$ORTHOMODE
 70
     0
  9
$REGENMODE
 70
     1
  9
$FILLMODE
 70
     1
  9
$QTEXTMODE
 70
     0
  9
$MIRRTEXT
 70
     0
  9
$DRAGMODE
 70
     2
  9
$LTSCALE
 40
1.0
  9
$OSMODE
 70
  3071
  9
$ATTMODE
 70
     1
  9
$TEXTSIZE
 40
0.2
  9
$TRACEWID
 40
0.05
  9
$TEXTSTYLE
  7
NOTES
  9
$CLAYER
  8
0
  9
$CELTYPE
  6
BYLAYER
  9
$CECOLOR
 62
   256
  9
$DIMSCALE
 40
1.0
  9
$DIMASZ
 40
3.0
  9
$DIMEXO
 40
1.5
  9
$DIMDLI
 40
6.0
  9
$DIMRND
 40
0.0
  9
$DIMDLE
 40
3.0
  9
$DIMEXE
 40
3.0
  9
$DIMTP
 40
0.0
  9
$DIMTM
 40
0.0
  9
$DIMTXT
 40
3.0
  9
$DIMCEN
 40
3.0
  9
$DIMTSZ
 40
0.0
  9
$DIMTOL
 70
     0
  9
$DIMLIM
 70
     0
  9
$DIMTIH
 70
     0
  9
$DIMTOH
 70
     0
  9
$DIMSE1
 70
     0
  9
$DIMSE2
 70
     0
  9
$DIMTAD
 70
     1
  9
$DIMZIN
 70
     3
  9
$DIMBLK
  1
ARCHTICK
  9
$DIMASO
 70
     1
  9
$DIMSHO
 70
     1
  9
$DIMPOST
  1

  9
$DIMAPOST
  1

  9
$DIMALT
 70
     0
  9
$DIMALTD
 70
     2
  9
$DIMALTF
 40
25.399999999999999
  9
$DIMLFAC
 40
1.0
  9
$DIMTOFL
 70
     0
  9
$DIMTVP
 40
0.0
  9
$DIMTIX
 70
     0
  9
$DIMSOXD
 70
     0
  9
$DIMSAH
 70
     0
  9
$DIMBLK1
  1

  9
$DIMBLK2
  1

  9
$DIMSTYLE
  2
ARCHITECTURAL-METRIC
  9
$DIMCLRD
 70
     0
  9
$DIMCLRE
 70
     0
  9
$DIMCLRT
 70
     0
  9
$DIMTFAC
 40
1.0
  9
$DIMGAP
 40
2.0
  9
$LUNITS
 70
     2
  9
$LUPREC
 70
     4
  9
$SKETCHINC
 40
0.1
  9
$FILLETRAD
 40
0.0
  9
$AUNITS
 70
     0
  9
$AUPREC
 70
     2
  9
$MENU
  1
.
  9
$ELEVATION
 40
0.0
  9
$PELEVATION
 40
0.0
  9
$THICKNESS
 40
0.0
  9
$LIMCHECK
 70
     0
  9
$BLIPMODE
 70
     0
  9
$CHAMFERA
 40
0.0
  9
$CHAMFERB
 40
0.0
  9
$SKPOLY
 70
     0
  9
$TDCREATE
 40
2456056.6023426391
  9
$TDUPDATE
 40
2456056.6024829168
  9
$TDINDWG
 40
0.0001406366
  9
$TDUSRTIMER
 40
0.0001406366
  9
$USRTIMER
 70
     1
  9
$ANGBASE
 50
0.0
  9
$ANGDIR
 70
     0
  9
$PDMODE
 70
     0
  9
$PDSIZE
 40
0.0
  9
$PLINEWID
 40
0.0
  9
$COORDS
 70
     0
  9
$SPLFRAME
 70
     0
  9
$SPLINETYPE
 70
     6
  9
$SPLINESEGS
 70
     8
  9
$ATTDIA
 70
     0
  9
$ATTREQ
 70
     1
  9
$HANDLING
 70
     1
  9
$HANDSEED
  5
489
  9
$SURFTAB1
 70
     6
  9
$SURFTAB2
 70
     6
  9
$SURFTYPE
 70
     6
  9
$SURFU
 70
     6
  9
$SURFV
 70
     6
  9
$UCSNAME
  2

  9
$UCSORG
 10
0.0
 20
0.0
 30
0.0
  9
$UCSXDIR
 10
1.0
 20
0.0
 30
0.0
  9
$UCSYDIR
 10
0.0
 20
1.0
 30
0.0
  9
$PUCSNAME
  2

  9
$PUCSORG
 10
0.0
 20
0.0
 30
0.0
  9
$PUCSXDIR
 10
1.0
 20
0.0
 30
0.0
  9
$PUCSYDIR
 10
0.0
 20
1.0
 30
0.0
  9
$USERI1
 70
     0
  9
$USERI2
 70
     0
  9
$USERI3
 70
     0
  9
$USERI4
 70
     0
  9
$USERI5
 70
     0
  9
$USERR1
 40
0.0
  9
$USERR2
 40
0.0
  9
$USERR3
 40
0.0
  9
$USERR4
 40
0.0
  9
$USERR5
 40
0.0
  9
$WORLDVIEW
 70
     1
  9
$SHADEDGE
 70
     3
  9
$SHADEDIF
 70
    70
  9
$TILEMODE
 70
     1
  9
$MAXACTVP
 70
    64
  9
$PLIMCHECK
 70
     0
  9
$PEXTMIN
 10
0.62886676639706
 20
0.7999999523162842
 30
0.0
  9
$PEXTMAX
 10
9.0288663849273352
 20
7.1999995708465576
 30
0.0
  9
$PLIMMIN
 10
-0.7005418191744587
 20
-0.2281003861915408
  9
$PLIMMAX
 10
10.299457940529649
 20
8.2718993735125697
  9
$UNITMODE
 70
     0
  9
$VISRETAIN
 70
     1
  9
$PLINEGEN
 70
     0
  9
$PSLTSCALE
 70
     1
  0
ENDSEC
  0
SECTION
  2
TABLES
  0
TABLE
  2
VPORT
 70
     1
  0
VPORT
  2
*ACTIVE
 70
     0
 10
0.0
 20
0.0
 11
1.0
 21
1.0
 12
80.064056128723166
 22
32.526500367176759
 13
0.0
 23
0.0
 14
0.5
 24
0.5
 15
0.5
 25
0.5
 16
0.0
 26
0.0
 36
1.0
 17
0.0
 27
0.0
 37
0.0
 40
20.175182481752159
 41
2.1359649122807012
 42
50.0
 43
0.0
 44
0.0
 50
0.0
 51
0.0
 71
     0
 72
  1000
 73
     1
 74
     3
 75
     0
 76
     0
 77
     0
 78
     0
  0
ENDTAB
  0
TABLE
  2
LTYPE
 70
     5
  0
LTYPE
  2
CONTINUOUS
 70
     0
  3
Solid line
 72
    65
 73
     0
 40
0.0
  0
LTYPE
  2
CENTER
 70
     0
  3
Center ____ _ ____ _ ____ _ ____ _ ____ _ ____
 72
    65
 73
     4
 40
2.0
 49
1.25
 49
-0.25
 49
0.25
 49
-0.25
  0
LTYPE
  2
DASHED
 70
     0
  3
Dashed __ __ __ __ __ __ __ __ __ __ __ __ __ _
 72
    65
 73
     2
 40
0.75
 49
0.5
 49
-0.25
  0
LTYPE
  2
PHANTOM
 70
     0
  3
Phantom ______  __  __  ______  __  __  ______
 72
    65
 73
     6
 40
2.5
 49
1.25
 49
-0.25
 49
0.25
 49
-0.25
 49
0.25
 49
-0.25
  0
LTYPE
  2
HIDDEN
 70
     0
  3
Hidden __ __ __ __ __ __ __ __ __ __ __ __ __ __
 72
    65
 73
     2
 40
9.5249999999999986
 49
6.3499999999999988
 49
-3.1749999999999989
  0
ENDTAB
  0
TABLE
  2
LAYER
 70
     3
  0
LAYER
  2
0
 70
     0
 62
     7
  6
CONTINUOUS
  0
LAYER
  2
VIEW_PORT
 70
     0
 62
     7
  6
CONTINUOUS
  0
LAYER
  2
DEFPOINTS
 70
     0
 62
     7
  6
CONTINUOUS
  0
ENDTAB
  0
TABLE
  2
STYLE
 70
     6
  0
STYLE
  2
STANDARD
 70
     0
 40
0.0
 41
1.0
 50
0.0
 71
     0
 42
0.2
  3
txt
  4

  0
STYLE
  2
ANNOTATIVE
 70
     0
 40
0.0
 41
1.0
 50
0.0
 71
     0
 42
0.2
  3
txt
  4

  0
STYLE
  2
NOTES
 70
     0
 40
3.0
 41
1.0
 50
0.0
 71
     0
 42
0.2
  3
txt
  4

  0
STYLE
  2
TITLES
 70
     0
 40
6.0
 41
1.0
 50
0.0
 71
     0
 42
0.2
  3
txt
  4

  0
STYLE
  2

 70
     1
 40
0.0
 41
1.0
 50
0.0
 71
     0
 42
0.2
  3
ltypeshp.shx
  4

  0
STYLE
  2
ROMANT
 70
     0
 40
2.2000000000000002
 41
1.0
 50
15.0
 71
     0
 42
2.5
  3
romant.shx
  4

  0
ENDTAB
  0
TABLE
  2
VIEW
 70
     1
  0
ENDTAB
  0
TABLE
  2
UCS
 70
     0
  0
ENDTAB
  0
TABLE
  2
APPID
 70
    10
  0
APPID
  2
ACAD
 70
     0
  0
APPID
  2
ACADANNOPO
 70
     0
  0
APPID
  2
ACADANNOTATIVE
 70
     0
  0
APPID
  2
ACAD_DSTYLE_DIMJAG
 70
     0
  0
APPID
  2
ACAD_DSTYLE_DIMTALN
 70
     0
  0
APPID
  2
ACAD_MLEADERVER
 70
     0
  0
APPID
  2
ACAECLAYERSTANDARD
 70
     0
  0
APPID
  2
ACAD_EXEMPT_FROM_CAD_STANDARDS
 70
     0
  0
APPID
  2
ACAD_DSTYLE_DIMBREAK
 70
     0
  0
APPID
  2
ACAD_PSEXT
 70
     0
  0
ENDTAB
  0
TABLE
  2
DIMSTYLE
 70
     5
  0
DIMSTYLE
  2
STANDARD
 70
     0
  3

  4

  5

  6

  7

 40
1.0
 41
3.0
 42
2.0
 43
9.0
 44
5.0
 45
0.0
 46
0.0
 47
0.0
 48
0.0
140
3.0
141
2.0
142
0.0
143
25.399999999999999
144
1.0
145
0.0
146
1.0
147
2.0
 71
     0
 72
     0
 73
     1
 74
     1
 75
     0
 76
     0
 77
     0
 78
     0
170
     0
171
     2
172
     0
173
     0
174
     0
175
     0
176
     0
177
     0
178
     0
  0
DIMSTYLE
  2
ANNOTATIVE
 70
     0
  3

  4

  5

  6

  7

 40
0.0
 41
3.0
 42
2.5
 43
10.0
 44
5.0
 45
0.0
 46
0.0
 47
0.0
 48
0.0
140
3.0
141
2.0
142
0.0
143
25.399999999999999
144
1.0
145
0.0
146
1.0
147
2.0
 71
     0
 72
     0
 73
     1
 74
     1
 75
     0
 76
     0
 77
     0
 78
     0
170
     0
171
     2
172
     0
173
     0
174
     0
175
     0
176
     0
177
     0
178
     0
  0
DIMSTYLE
  2
ARCHITECTURAL-METRIC
 70
     0
  3

  4

  5
ARCHTICK
  6

  7

 40
1.0
 41
3.0
 42
1.5
 43
6.0
 44
3.0
 45
0.0
 46
3.0
 47
0.0
 48
0.0
140
3.0
141
3.0
142
0.0
143
25.399999999999999
144
1.0
145
0.0
146
1.0
147
2.0
 71
     0
 72
     0
 73
     0
 74
     0
 75
     0
 76
     0
 77
     1
 78
     3
170
     0
171
     2
172
     0
173
     0
174
     0
175
     0
176
     0
177
     0
178
     0
  0
DIMSTYLE
  2
ISO-25
 70
     0
  3

  4

  5

  6

  7

 40
1.0
 41
2.5
 42
0.625
 43
3.75
 44
1.25
 45
0.0
 46
0.0
 47
0.0
 48
0.0
140
2.5
141
2.5
142
0.0
143
0.0393700787
144
1.0
145
0.0
146
1.0
147
0.625
 71
     0
 72
     0
 73
     0
 74
     0
 75
     0
 76
     0
 77
     1
 78
     8
170
     0
171
     3
172
     1
173
     0
174
     0
175
     0
176
     0
177
     0
178
     0
  0
DIMSTYLE
  2
ISO-25_1_E_1
 70
     0
  3

  4

  5

  6

  7

 40
1.0
 41
2.5
 42
0.0
 43
3.75
 44
0.5
 45
0.0
 46
0.0
 47
0.0
 48
0.0
140
1.0
141
0.2
142
0.0
143
0.03937007874016
144
0.333333333333333
145
0.0
146
1.0
147
0.4
 71
     0
 72
     0
 73
     0
 74
     0
 75
     0
 76
     0
 77
     1
 78
     8
170
     0
171
     3
172
     0
173
     0
174
     0
175
     0
176
   242
177
   242
178
   242
  0
ENDTAB
  0
ENDSEC
  0
SECTION
  2
BLOCKS
  0
BLOCK
  8
0
  2
$MODEL_SPACE
 70
     0
 10
0.0
 20
0.0
 30
0.0
  3
$MODEL_SPACE
  1

  0
ENDBLK
  5
21
  8
0
  0
BLOCK
 67
     1
  8
0
  2
$PAPER_SPACE
 70
     0
 10
0.0
 20
0.0
 30
0.0
  3
$PAPER_SPACE
  1

  0
ENDBLK
  5
5B
 67
     1
  8
0
  0
BLOCK
  8
0
  2
_ARCHTICK
 70
     0
 10
0.0
 20
0.0
 30
0.0
  3
_ARCHTICK
  1

  0
POLYLINE
  5
239
  8
0
  6
BYBLOCK
 62
     0
 66
     1
 10
0.0
 20
0.0
 30
0.0
 40
0.15
 41
0.15
  0
VERTEX
  5
440
  8
0
  6
BYBLOCK
 62
     0
 10
-0.5
 20
-0.5
 30
0.0
  0
VERTEX
  5
441
  8
0
  6
BYBLOCK
 62
     0
 10
0.5
 20
0.5
 30
0.0
  0
SEQEND
  5
442
  8
0
  6
BYBLOCK
 62
     0
  0
ENDBLK
  5
23B
  8
0
  0
BLOCK
  8
0
  2
_OPEN30
 70
     0
 10
0.0
 20
0.0
 30
0.0
  3
_OPEN30
  1

  0
LINE
  5
23D
  8
0
  6
BYBLOCK
 62
     0
 10
-1.0
 20
0.26794919
 30
0.0
 11
0.0
 21
0.0
 31
0.0
  0
LINE
  5
23E
  8
0
  6
BYBLOCK
 62
     0
 10
0.0
 20
0.0
 30
0.0
 11
-1.0
 21
-0.26794919
 31
0.0
  0
LINE
  5
23F
  8
0
  6
BYBLOCK
 62
     0
 10
0.0
 20
0.0
 30
0.0
 11
-1.0
 21
0.0
 31
0.0
  0
ENDBLK
  5
241
  8
0
  0
BLOCK
  8
0
  2
*X3
 70
     1
 10
0.0
 20
0.0
 30
0.0
  3
*X3
  1

  0
LINE
  5
44C
  8
0
 62
     0
 10
24.649663436728019
 20
0.7732169402875116
 30
0.0
 11
29.226783290078512
 21
5.350336793637779
 31
0.0
  0
LINE
  5
44D
  8
0
 62
     0
 10
22.1547879417991
 20
0.0743926695722621
 30
0.0
 11
29.925607560793541
 21
7.845212288566926
 31
0.0
  0
LINE
  5
44E
  8
0
 62
     0
 10
26.060002318194851
 20
5.7756582701817933
 30
0.0
 11
30.000000273789968
 21
9.7156562257771384
 31
0.0
  0
LINE
  5
44F
  8
0
 62
     0
 10
20.284344004588998
 20
-0.0000000434240519
 30
0.0
 11
24.22434196018412
 21
3.9399979121710649
 31
0.0
  0
LINE
  5
450
  8
0
 62
     0
 10
26.97828534712221
 20
8.4899925233230533
 30
0.0
 11
29.98621596780799
 21
11.49792314400883
 31
0.0
  0
LINE
  5
451
  8
0
 62
     0
 10
18.488292780375101
 20
-0.0000000434240519
 30
0.0
 11
21.51000770704286
 21
3.0217148832437029
 31
0.0
  0
LINE
  5
452
  8
0
 62
     0
 10
27.000000273789968
 20
10.30775867420493
 30
0.0
 11
29.759389489010349
 21
13.06714788942509
 31
0.0
  0
LINE
  5
453
  8
0
 62
     0
 10
16.6922415561612
 20
-0.0000000434240519
 30
0.0
 11
19.692241556161211
 21
2.9999999565759481
 31
0.0
  0
LINE
  5
454
  8
0
 62
     0
 10
26.913182708490471
 20
12.01699233311933
 30
0.0
 11
29.32234680655824
 21
14.426156431186881
 31
0.0
  0
LINE
  5
455
  8
0
 62
     0
 10
14.896190331947309
 20
-0.0000000434238245
 30
0.0
 11
17.896190331947309
 21
2.999999956576175
 31
0.0
  0
LINE
  5
456
  8
0
 62
     0
 10
26.499409484014219
 20
13.399270332856981
 30
0.0
 11
28.722369489262061
 21
15.6222303381046
 31
0.0
  0
LINE
  5
457
  8
0
 62
     0
 10
13.10013910773341
 20
-0.0000000434238245
 30
0.0
 11
16.100139107733639
 21
2.999999956576175
 31
0.0
  0
LINE
  5
458
  8
0
 62
     0
 10
25.844279625059361
 20
14.54019169811545
 30
0.0
 11
27.982513166845479
 21
16.678425239901571
 31
0.0
  0
LINE
  5
459
  8
0
 62
     0
 10
11.30408788351985
 20
-0.0000000434240519
 30
0.0
 11
14.30408788351985
 21
2.9999999565759481
 31
0.0
  0
LINE
  5
45A
  8
0
 62
     0
 10
24.989522326835068
 20
15.48148562410506
 30
0.0
 11
27.113223837544069
 21
17.605187134814059
 31
0.0
  0
LINE
  5
45B
  8
0
 62
     0
 10
9.5080366593059562
 20
-0.0000000434240519
 30
0.0
 11
12.508036659305731
 21
2.9999999565759481
 31
0.0
  0
LINE
  5
45C
  8
0
 62
     0
 10
23.941485116638429
 20
16.22949963812243
 30
0.0
 11
26.116284143548459
 21
18.40429866503246
 31
0.0
  0
LINE
  5
45D
  8
0
 62
     0
 10
7.7932543447052458
 20
0.0812688661891343
 30
0.0
 11
10.711985435092171
 21
2.9999999565759481
 31
0.0
  0
LINE
  5
45E
  8
0
 62
     0
 10
22.676851631293179
 20
16.76091737699084
 30
0.0
 11
24.985412895215859
 21
19.06947864091353
 31
0.0
  0
LINE
  5
45F
  8
0
 62
     0
 10
6.3232151259584271
 20
0.4072808716562122
 30
0.0
 11
8.9165150541514322
 21
3.000580799849331
 31
0.0
  0
LINE
  5
460
  8
0
 62
     0
 10
21.118708566822988
 20
16.998825536734781
 30
0.0
 11
23.704058494043242
 21
19.5841754639548
 31
0.0
  0
LINE
  5
461
  8
0
 62
     0
 10
5.038592810565774
 20
0.9187097804773429
 30
0.0
 11
7.3509469405521477
 21
3.2310639104637171
 31
0.0
  0
LINE
  5
462
  8
0
 62
     0
 10
19.323831762450709
 20
16.999999956576168
 30
0.0
 11
22.238244341463769
 21
19.914412535589459
 31
0.0
  0
LINE
  5
463
  8
0
 62
     0
 10
3.9049237851797889
 20
1.581091979305369
 30
0.0
 11
6.0814807713511518
 21
3.7576489654766192
 31
0.0
  0
LINE
  5
464
  8
0
 62
     0
 10
17.527780538236811
 20
16.999999956576058
 30
0.0
 11
20.527780538236581
 21
19.999999956575831
 31
0.0
  0
LINE
  5
465
  8
0
 62
     0
 10
2.9054030074165662
 20
2.3776224257559302
 30
0.0
 11
5.029464589197687
 21
4.5016840075369373
 31
0.0
  0
LINE
  5
466
  8
0
 62
     0
 10
15.731729314023029
 20
16.999999956575952
 30
0.0
 11
18.7317293140228
 21
19.999999956575952
 31
0.0
  0
LINE
  5
467
  8
0
 62
     0
 10
2.033576724562749
 20
3.3018473671157831
 30
0.0
 11
4.1708830069195519
 21
5.4391536494724733
 31
0.0
  0
LINE
  5
468
  8
0
 62
     0
 10
13.93567808980924
 20
16.999999956575952
 30
0.0
 11
16.93567808980924
 21
19.999999956575952
 31
0.0
  0
LINE
  5
469
  8
0
 62
     0
 10
1.291069606350902
 20
4.3553914731176064
 30
0.0
 11
3.5115173561400752
 21
6.5758392229067786
 31
0.0
  0
LINE
  5
46A
  8
0
 62
     0
 10
12.139626865595339
 20
16.999999956576168
 30
0.0
 11
15.139626865595339
 21
19.999999956575952
 31
0.0
  0
LINE
  5
46B
  8
0
 62
     0
 10
0.6881307677024325
 20
5.5485038586830342
 30
0.0
 11
3.0921430011615021
 21
7.9525160921421039
 31
0.0
  0
LINE
  5
46C
  8
0
 62
     0
 10
10.343575641381671
 20
16.999999956576168
 30
0.0
 11
13.343575641381451
 21
19.999999956575952
 31
0.0
  0
LINE
  5
46D
  8
0
 62
     0
 10
0.2474905119928508
 20
6.9039148271873501
 30
0.0
 11
3.000000273789964
 21
9.6564245889846916
 31
0.0
  0
LINE
  5
46E
  8
0
 62
     0
 10
8.5290098534037497
 20
16.98148539281215
 30
0.0
 11
11.54752441716755
 21
19.999999956576168
 31
0.0
  0
LINE
  5
46F
  8
0
 62
     0
 10
0.0157256733519944
 20
8.4682012127603912
 30
0.0
 11
3.018514837553766
 21
11.47099037696216
 31
0.0
  0
LINE
  5
470
  8
0
 62
     0
 10
5.8709504034841302
 20
16.119477167106421
 30
0.0
 11
9.7514731929536538
 21
19.999999956576168
 31
0.0
  0
LINE
  5
471
  8
0
 62
     0
 10
0.0000002737899649
 20
10.248527037412259
 30
0.0
 11
3.8805230632592611
 21
14.129049826881779
 31
0.0
  0
LINE
  5
472
  8
0
 62
     0
 10
0.0691804934674565
 20
12.113758481303529
 30
0.0
 11
7.8862417490622638
 21
19.930819736898339
 31
0.0
  0
LINE
  5
473
  8
0
 62
     0
 10
0.7451891849625554
 20
14.585818397012419
 30
0.0
 11
5.4141818333534948
 21
19.254811045403361
 31
0.0
  0
ENDBLK
  5
475
  8
0
  0
BLOCK
  8
0
  2
*U4
 70
     1
 10
0.0
 20
0.0
 30
0.0
  3
*U4
  1

  0
LINE
  5
477
  8
0
 10
30.000000273789968
 20
8.9999999565760618
 30
0.0
 11
30.000000273789968
 21
10.99999995657606
 31
0.0
  0
ARC
  5
478
  8
0
 10
21.000000273789961
 20
10.99999995657606
 30
0.0
 40
9.0
 50
0.0
 51
90.0
  0
ARC
  5
479
  8
0
 10
21.000000273789961
 20
8.9999999565760618
 30
0.0
 40
9.0
 50
270.0
 51
0.0
  0
LINE
  5
47A
  8
0
 10
9.0000002737899631
 20
19.999999956576058
 30
0.0
 11
21.000000273789961
 21
19.999999956576058
 31
0.0
  0
LINE
  5
47B
  8
0
 10
21.000000273789961
 20
-0.0000000434239382
 30
0.0
 11
9.0000002737899631
 21
-0.0000000434239382
 31
0.0
  0
ARC
  5
47C
  8
0
 10
9.0000002737899631
 20
10.99999995657606
 30
0.0
 40
9.0
 50
90.0
 51
180.0
  0
ARC
  5
47D
  8
0
 10
9.0000002737899631
 20
8.9999999565760618
 30
0.0
 40
9.0
 50
180.0
 51
270.0
  0
LINE
  5
47E
  8
0
 10
0.0000002737899649
 20
10.99999995657606
 30
0.0
 11
0.0000002737899649
 21
8.9999999565760618
 31
0.0
  0
ARC
  5
47F
  8
0
 10
21.000000273789961
 20
8.9999999565760618
 30
0.0
 40
6.0
 50
270.0
 51
0.0
  0
LINE
  5
480
  8
0
 10
21.000000273789961
 20
2.9999999565760609
 30
0.0
 11
9.0000002737899631
 21
2.9999999565760609
 31
0.0
  0
LINE
  5
481
  8
0
 10
27.000000273789968
 20
10.99999995657606
 30
0.0
 11
27.000000273789968
 21
8.9999999565760618
 31
0.0
  0
ARC
  5
482
  8
0
 10
9.0000002737899631
 20
8.9999999565760618
 30
0.0
 40
6.0
 50
180.0
 51
270.0
  0
ARC
  5
483
  8
0
 10
21.000000273789961
 20
10.99999995657606
 30
0.0
 40
6.0
 50
0.0
 51
90.0
  0
LINE
  5
484
  8
0
 10
3.000000273789964
 20
8.9999999565760618
 30
0.0
 11
3.000000273789964
 21
10.99999995657606
 31
0.0
  0
LINE
  5
485
  8
0
 10
9.0000002737899631
 20
16.999999956576058
 30
0.0
 11
21.000000273789961
 21
16.999999956576058
 31
0.0
  0
ARC
  5
486
  8
0
 10
9.0000002737899631
 20
10.99999995657606
 30
0.0
 40
6.0
 50
90.0
 51
180.0
  0
ENDBLK
  5
488
  8
0
  0
ENDSEC
  0
SECTION
  2
ENTITIES
  0
LINE
  5
3FC
  8
0
 10
95.064056128723124
 20
31.526500367176912
 30
0.0
 11
95.064056128723124
 21
33.526500367176908
 31
0.0
  0
ARC
  5
3FD
  8
0
 10
86.064056128723109
 20
33.526500367176908
 30
0.0
 40
9.0
 50
0.0
 51
90.0
  0
ARC
  5
3FE
  8
0
 10
86.064056128723109
 20
31.526500367176912
 30
0.0
 40
9.0
 50
270.0
 51
0.0
  0
LINE
  5
3FF
  8
0
 10
74.064056128723109
 20
42.526500367176908
 30
0.0
 11
86.064056128723109
 21
42.526500367176908
 31
0.0
  0
LINE
  5
400
  8
0
 10
86.064056128723109
 20
22.526500367176912
 30
0.0
 11
74.064056128723109
 21
22.526500367176912
 31
0.0
  0
ARC
  5
401
  8
0
 10
74.064056128723109
 20
33.526500367176908
 30
0.0
 40
9.0
 50
90.0
 51
180.0
  0
ARC
  5
402
  8
0
 10
74.064056128723109
 20
31.526500367176912
 30
0.0
 40
9.0
 50
180.0
 51
270.0
  0
LINE
  5
403
  8
0
 10
65.064056128723109
 20
33.526500367176908
 30
0.0
 11
65.064056128723109
 21
31.526500367176912
 31
0.0
  0
ARC
  5
404
  8
0
 10
86.064056128723109
 20
31.526500367176912
 30
0.0
 40
6.0
 50
270.0
 51
0.0
  0
LINE
  5
405
  8
0
 10
86.064056128723109
 20
25.526500367176912
 30
0.0
 11
74.064056128723109
 21
25.526500367176912
 31
0.0
  0
LINE
  5
406
  8
0
 10
92.064056128723109
 20
33.526500367176908
 30
0.0
 11
92.064056128723109
 21
31.526500367176912
 31
0.0
  0
ARC
  5
407
  8
0
 10
74.064056128723109
 20
31.526500367176912
 30
0.0
 40
6.0
 50
180.0
 51
270.0
  0
ARC
  5
408
  8
0
 10
86.064056128723109
 20
33.526500367176908
 30
0.0
 40
6.0
 50
0.0
 51
90.0
  0
LINE
  5
409
  8
0
 10
68.064056128723095
 20
31.526500367176912
 30
0.0
 11
68.064056128723095
 21
33.526500367176908
 31
0.0
  0
LINE
  5
40A
  8
0
 10
74.064056128723109
 20
39.526500367176908
 30
0.0
 11
86.064056128723109
 21
39.526500367176908
 31
0.0
  0
ARC
  5
40B
  8
0
 10
74.064056128723109
 20
33.526500367176908
 30
0.0
 40
6.0
 50
90.0
 51
180.0
  0
VIEWPORT
  5
28B
 67
     1
  8
0
 10
4.799458060677595
 20
4.0218994936605137
 30
0.0
 40
17.88061277576319
 41
8.9929997457669497
 68
     1
 69
     1
1001
ACAD
1000
MVIEW
1002
{
1070
    16
1010
0.0
1020
0.0
1030
0.0
1010
0.0
1020
0.0
1030
1.0
1040
0.0
1040
8.9929997457669497
1040
4.799458060677595
1040
4.0218994936605137
1040
50.0
1040
0.0
1040
0.0
1070
     0
1070
  1000
1070
     1
1070
     1
1070
     0
1070
     0
1070
     0
1070
     0
1040
0.0
1040
0.0
1040
0.0
1040
0.5
1040
0.5
1040
0.5
1040
0.5
1070
     0
1002
{
1002
}
1002
}
  0
VIEWPORT
  5
290
 67
     1
  8
VIEW_PORT
 10
4.8288665756621967
 20
3.9999997615814209
 30
0.0
 40
8.3999996185302752
 41
6.3999996185302743
 68
     2
 69
     2
1001
ACAD
1000
MVIEW
1002
{
1070
    16
1010
0.0
1020
0.0
1030
0.0
1010
0.0
1020
0.0
1030
1.0
1040
0.0
1040
6.3999996185302743
1040
6.0
1040
4.5
1040
50.0
1040
0.0
1040
0.0
1070
     0
1070
  1000
1070
     1
1070
     3
1070
     0
1070
     0
1070
     0
1070
     0
1040
0.0
1040
0.0
1040
0.0
1040
0.5
1040
0.5
1040
0.5
1040
0.5
1070
     0
1002
{
1002
}
1002
}
  0
ENDSEC
  0
EOF
