  0
SECTION
  2
HEADER
  9
$ACADVER
  1
AC1009
  9
$INSBASE
 10
0.0
 20
0.0
 30
0.0
  9
$EXTMIN
 10
798.51013374341426
 20
618.24998615245556
 30
-0.0015258207003583
  9
$EXTMAX
 10
912.07214510542371
 20
650.40353503846973
 30
0.0000000349246037
  9
$LIMMIN
 10
0.0
 20
0.0
  9
$LIMMAX
 10
420.0
 20
297.0
  9
$ORTHOMODE
 70
     0
  9
$REGENMODE
 70
     1
  9
$FILLMODE
 70
     1
  9
$QTEXTMODE
 70
     0
  9
$MIRRTEXT
 70
     0
  9
$DRAGMODE
 70
     2
  9
$LTSCALE
 40
1.0
  9
$OSMODE
 70
  3071
  9
$ATTMODE
 70
     1
  9
$TEXTSIZE
 40
2.5
  9
$TRACEWID
 40
1.0
  9
$TEXTSTYLE
  7
STANDARD
  9
$CLAYER
  8
0
  9
$CELTYPE
  6
BYLAYER
  9
$CECOLOR
 62
   256
  9
$DIMSCALE
 40
1.0
  9
$DIMASZ
 40
2.5
  9
$DIMEXO
 40
0.625
  9
$DIMDLI
 40
3.75
  9
$DIMRND
 40
0.0
  9
$DIMDLE
 40
0.0
  9
$DIMEXE
 40
1.25
  9
$DIMTP
 40
0.0
  9
$DIMTM
 40
0.0
  9
$DIMTXT
 40
2.5
  9
$DIMCEN
 40
2.5
  9
$DIMTSZ
 40
0.0
  9
$DIMTOL
 70
     0
  9
$DIMLIM
 70
     0
  9
$DIMTIH
 70
     0
  9
$DIMTOH
 70
     0
  9
$DIMSE1
 70
     0
  9
$DIMSE2
 70
     0
  9
$DIMTAD
 70
     1
  9
$DIMZIN
 70
     8
  9
$DIMBLK
  1

  9
$DIMASO
 70
     1
  9
$DIMSHO
 70
     1
  9
$DIMPOST
  1

  9
$DIMAPOST
  1

  9
$DIMALT
 70
     0
  9
$DIMALTD
 70
     3
  9
$DIMALTF
 40
0.03937007874016
  9
$DIMLFAC
 40
1.0
  9
$DIMTOFL
 70
     1
  9
$DIMTVP
 40
0.0
  9
$DIMTIX
 70
     0
  9
$DIMSOXD
 70
     0
  9
$DIMSAH
 70
     0
  9
$DIMBLK1
  1

  9
$DIMBLK2
  1

  9
$DIMSTYLE
  2
ISO-25
  9
$DIMCLRD
 70
     0
  9
$DIMCLRE
 70
     0
  9
$DIMCLRT
 70
     0
  9
$DIMTFAC
 40
1.0
  9
$DIMGAP
 40
0.625
  9
$LUNITS
 70
     2
  9
$LUPREC
 70
     4
  9
$SKETCHINC
 40
1.0
  9
$FILLETRAD
 40
0.0
  9
$AUNITS
 70
     0
  9
$AUPREC
 70
     0
  9
$MENU
  1
.
  9
$ELEVATION
 40
0.0
  9
$PELEVATION
 40
0.0
  9
$THICKNESS
 40
0.0
  9
$LIMCHECK
 70
     0
  9
$BLIPMODE
 70
     0
  9
$CHAMFERA
 40
0.0
  9
$CHAMFERB
 40
0.0
  9
$SKPOLY
 70
     0
  9
$TDCREATE
 40
2456080.4414500929
  9
$TDUPDATE
 40
2456080.4416893292
  9
$TDINDWG
 40
0.0002394676
  9
$TDUSRTIMER
 40
0.0002394676
  9
$USRTIMER
 70
     1
  9
$ANGBASE
 50
0.0
  9
$ANGDIR
 70
     0
  9
$PDMODE
 70
     0
  9
$PDSIZE
 40
0.0
  9
$PLINEWID
 40
0.0
  9
$COORDS
 70
     2
  9
$SPLFRAME
 70
     0
  9
$SPLINETYPE
 70
     6
  9
$SPLINESEGS
 70
     8
  9
$ATTDIA
 70
     0
  9
$ATTREQ
 70
     1
  9
$HANDLING
 70
     1
  9
$HANDSEED
  5
10D
  9
$SURFTAB1
 70
     6
  9
$SURFTAB2
 70
     6
  9
$SURFTYPE
 70
     6
  9
$SURFU
 70
     6
  9
$SURFV
 70
     6
  9
$UCSNAME
  2

  9
$UCSORG
 10
0.0
 20
0.0
 30
0.0
  9
$UCSXDIR
 10
1.0
 20
0.0
 30
0.0
  9
$UCSYDIR
 10
0.0
 20
1.0
 30
0.0
  9
$PUCSNAME
  2

  9
$PUCSORG
 10
0.0
 20
0.0
 30
0.0
  9
$PUCSXDIR
 10
1.0
 20
0.0
 30
0.0
  9
$PUCSYDIR
 10
0.0
 20
1.0
 30
0.0
  9
$USERI1
 70
     0
  9
$USERI2
 70
     0
  9
$USERI3
 70
     0
  9
$USERI4
 70
     0
  9
$USERI5
 70
     0
  9
$USERR1
 40
0.0
  9
$USERR2
 40
0.0
  9
$USERR3
 40
0.0
  9
$USERR4
 40
0.0
  9
$USERR5
 40
0.0
  9
$WORLDVIEW
 70
     1
  9
$SHADEDGE
 70
     3
  9
$SHADEDIF
 70
    70
  9
$TILEMODE
 70
     1
  9
$MAXACTVP
 70
    64
  9
$PLIMCHECK
 70
     0
  9
$PEXTMIN
 10
0.0
 20
0.0
 30
0.0
  9
$PEXTMAX
 10
0.0
 20
0.0
 30
0.0
  9
$PLIMMIN
 10
0.0
 20
0.0
  9
$PLIMMAX
 10
12.0
 20
9.0
  9
$UNITMODE
 70
     0
  9
$VISRETAIN
 70
     1
  9
$PLINEGEN
 70
     0
  9
$PSLTSCALE
 70
     1
  0
ENDSEC
  0
SECTION
  2
TABLES
  0
TABLE
  2
VPORT
 70
     2
  0
VPORT
  2
*ACTIVE
 70
     0
 10
0.0
 20
0.0
 11
1.0
 21
1.0
 12
855.29113942441904
 22
634.32676059546259
 13
0.0
 23
0.0
 14
10.0
 24
10.0
 15
10.0
 25
10.0
 16
0.0
 26
0.0
 36
1.0
 17
0.0
 27
0.0
 37
0.0
 40
49.102700020836991
 41
2.3219814241486061
 42
50.0
 43
0.0
 44
0.0
 50
0.0
 51
0.0
 71
     0
 72
  1000
 73
     1
 74
     3
 75
     0
 76
     0
 77
     0
 78
     0
  0
ENDTAB
  0
TABLE
  2
LTYPE
 70
     1
  0
LTYPE
  2
CONTINUOUS
 70
     0
  3
Solid line
 72
    65
 73
     0
 40
0.0
  0
ENDTAB
  0
TABLE
  2
LAYER
 70
     1
  0
LAYER
  2
0
 70
     0
 62
     7
  6
CONTINUOUS
  0
ENDTAB
  0
TABLE
  2
STYLE
 70
     2
  0
STYLE
  2
STANDARD
 70
     0
 40
0.0
 41
1.0
 50
0.0
 71
     0
 42
2.5
  3
txt
  4

  0
STYLE
  2
ROMANT
 70
     0
 40
2.2999999999999989
 41
1.0
 50
15.0
 71
     0
 42
2.5
  3
romant.shx
  4

  0
ENDTAB
  0
TABLE
  2
VIEW
 70
     0
  0
ENDTAB
  0
TABLE
  2
UCS
 70
     0
  0
ENDTAB
  0
TABLE
  2
APPID
 70
     1
  0
APPID
  2
ACAD
 70
     0
  0
ENDTAB
  0
TABLE
  2
DIMSTYLE
 70
     2
  0
DIMSTYLE
  2
ISO-25
 70
     0
  3

  4

  5

  6

  7

 40
1.0
 41
2.5
 42
0.625
 43
3.75
 44
1.25
 45
0.0
 46
0.0
 47
0.0
 48
0.0
140
2.5
141
2.5
142
0.0
143
0.03937007874016
144
1.0
145
0.0
146
1.0
147
0.625
 71
     0
 72
     0
 73
     0
 74
     0
 75
     0
 76
     0
 77
     1
 78
     8
170
     0
171
     3
172
     1
173
     0
174
     0
175
     0
176
     0
177
     0
178
     0
  0
DIMSTYLE
  2
ISO-25_1_E_1
 70
     0
  3

  4

  5

  6

  7

 40
1.0
 41
2.5
 42
0.0
 43
3.75
 44
0.5
 45
0.0
 46
0.0
 47
0.0
 48
0.0
140
1.0
141
0.2
142
0.0
143
0.03937007874016
144
1.0
145
0.0
146
1.0
147
0.4
 71
     0
 72
     0
 73
     0
 74
     0
 75
     0
 76
     0
 77
     1
 78
     8
170
     0
171
     3
172
     0
173
     0
174
     0
175
     0
176
   242
177
   242
178
   242
  0
ENDTAB
  0
ENDSEC
  0
SECTION
  2
BLOCKS
  0
BLOCK
  8
0
  2
$MODEL_SPACE
 70
     0
 10
0.0
 20
0.0
 30
0.0
  3
$MODEL_SPACE
  1

  0
ENDBLK
  5
21
  8
0
  0
BLOCK
 67
     1
  8
0
  2
$PAPER_SPACE
 70
     0
 10
0.0
 20
0.0
 30
0.0
  3
$PAPER_SPACE
  1

  0
ENDBLK
  5
53
 67
     1
  8
0
  0
BLOCK
  8
0
  2
*U2
 70
     1
 10
0.0
 20
0.0
 30
0.0
  3
*U2
  1

  0
ARC
  5
B1
  8
0
 10
76.745462762208376
 20
31.799999905571951
 30
0.0
 40
0.3
 50
90.0
 51
127.600000000001
  0
LINE
  5
B2
  8
0
 10
36.518866635912786
 20
1.199999905571985
 30
0.0
 11
76.56241921303797
 21
32.037686798578541
 31
0.0
  0
LINE
  5
B3
  8
0
 10
76.745462762208376
 20
32.099999905571963
 30
0.0
 11
108.3075193523301
 21
32.099999905571963
 31
0.0
  0
LINE
  5
B4
  8
0
 10
5.5096912490317891
 20
1.1999999055718711
 30
0.0
 11
36.518866635912786
 21
1.199999905571985
 31
0.0
  0
ARC
  5
B5
  8
0
 10
108.3075193523301
 20
31.799999905571951
 30
0.0
 40
0.3
 50
49.000000000002409
 51
90.0
  0
LINE
  5
B6
  8
0
 10
0.8778330842769719
 20
5.2264127796389062
 30
0.0
 11
5.5096912490317891
 21
1.1999999055718711
 31
0.0
  0
LINE
  5
B7
  8
0
 10
108.5043370610273
 20
32.026412779638811
 30
0.0
 11
113.39015214033709
 21
27.779238527772812
 31
0.0
  0
ARC
  5
B8
  8
0
 10
0.681015375579932
 20
4.9999999055721673
 30
0.0
 40
0.2999999999999664
 50
49.000000000004547
 51
139.00000000003001
  0
ARC
  5
B9
  8
0
 10
113.19333443164
 20
27.552825653706069
 30
0.0
 40
0.2999999999999309
 50
318.99999999997277
 51
48.999999999988148
  0
LINE
  5
BA
  8
0
 10
0.080648854987885
 20
4.766633153541818
 30
0.0
 11
0.4546025015130227
 21
5.196817614269178
 31
0.0
  0
LINE
  5
BB
  8
0
 10
113.41974730570659
 20
27.356007945008859
 30
0.0
 11
113.0261118883123
 21
26.903182196874749
 31
0.0
  0
ARC
  5
BC
  8
0
 10
0.329703016461508
 20
4.5501336739750391
 30
0.0
 40
0.3300000000000016
 50
139.00000000002399
 51
229.0000000000208
  0
ARC
  5
BD
  8
0
 10
112.7996990142456
 20
27.099999905571959
 30
0.0
 40
0.2999999999999253
 50
228.9999999999483
 51
318.99999999997277
  0
LINE
  5
BE
  8
0
 10
4.976377328797752
 20
0.0735870315051841
 30
0.0
 11
0.1132035368947299
 21
4.3010795125014454
 31
0.0
  0
LINE
  5
BF
  8
0
 10
112.60288130554829
 20
26.873587031505281
 30
0.0
 11
107.9710231407936
 21
30.899999905572152
 31
0.0
  0
ARC
  5
C0
  8
0
 10
5.1731950374949056
 20
0.2999999055720366
 30
0.0
 40
0.3
 50
229.00000000000239
 51
270.0
  0
LINE
  5
C1
  8
0
 10
107.9710231407936
 20
30.899999905572152
 30
0.0
 11
77.051847753912725
 21
30.8999999055718
 31
0.0
  0
LINE
  5
C2
  8
0
 10
36.825251627616808
 20
-0.0000000944279748
 30
0.0
 11
5.1731950374949056
 21
-0.0000000944279748
 31
0.0
  0
LINE
  5
C3
  8
0
 10
77.051847753912725
 20
30.8999999055718
 30
0.0
 11
37.008295176787222
 21
0.0623130125654825
 31
0.0
  0
ARC
  5
C4
  8
0
 10
36.825251627616808
 20
0.2999999055720366
 30
0.0
 40
0.3
 50
270.0
 51
307.6000000000044
  0
ENDBLK
  5
C6
  8
0
  0
BLOCK
  8
0
  2
*X3
 70
     1
 10
0.0
 20
0.0
 30
0.0
  3
*X3
  1

  0
LINE
  5
C8
  8
0
 62
     0
 10
112.2810086255289
 20
27.153386683511261
 30
0.0
 11
113.13160878218341
 21
28.003986840165911
 31
0.0
  0
LINE
  5
C9
  8
0
 62
     0
 10
111.56039236537509
 20
27.77980884151793
 30
0.0
 11
112.4109925220297
 21
28.63040899817247
 31
0.0
  0
LINE
  5
CA
  8
0
 62
     0
 10
110.83977610522111
 20
28.406230999524379
 30
0.0
 11
111.6903762618757
 21
29.256831156178919
 31
0.0
  0
LINE
  5
CB
  8
0
 62
     0
 10
110.1191598450673
 20
29.032653157530721
 30
0.0
 11
110.9697600017218
 21
29.883253314185261
 31
0.0
  0
LINE
  5
CC
  8
0
 62
     0
 10
109.3985435849134
 20
29.65907531553739
 30
0.0
 11
110.24914374156791
 21
30.50967547219182
 31
0.0
  0
LINE
  5
CD
  8
0
 62
     0
 10
108.67792732475949
 20
30.285497473543838
 30
0.0
 11
109.528527481414
 21
31.136097630198378
 31
0.0
  0
LINE
  5
CE
  8
0
 62
     0
 10
107.9453913386275
 20
30.899999905572031
 30
0.0
 11
108.8079112212603
 21
31.76251978820483
 31
0.0
  0
LINE
  5
CF
  8
0
 62
     0
 10
106.59835292046699
 20
30.899999905572152
 30
0.0
 11
107.7983529204668
 21
32.099999905571963
 31
0.0
  0
LINE
  5
D0
  8
0
 62
     0
 10
105.2513145023067
 20
30.899999905572031
 30
0.0
 11
106.4513145023065
 21
32.099999905571849
 31
0.0
  0
LINE
  5
D1
  8
0
 62
     0
 10
103.9042760841463
 20
30.899999905572031
 30
0.0
 11
105.10427608414621
 21
32.099999905571963
 31
0.0
  0
LINE
  5
D2
  8
0
 62
     0
 10
102.55723766598589
 20
30.899999905572152
 30
0.0
 11
103.7572376659857
 21
32.099999905571963
 31
0.0
  0
LINE
  5
D3
  8
0
 62
     0
 10
101.2101992478256
 20
30.899999905572031
 30
0.0
 11
102.4101992478255
 21
32.099999905571963
 31
0.0
  0
LINE
  5
D4
  8
0
 62
     0
 10
99.863160829665176
 20
30.899999905572031
 30
0.0
 11
101.06316082966489
 21
32.099999905571963
 31
0.0
  0
LINE
  5
D5
  8
0
 62
     0
 10
98.516122411504739
 20
30.899999905572031
 30
0.0
 11
99.716122411504671
 21
32.099999905571963
 31
0.0
  0
LINE
  5
D6
  8
0
 62
     0
 10
97.169083993344415
 20
30.899999905572031
 30
0.0
 11
98.369083993344361
 21
32.099999905571963
 31
0.0
  0
LINE
  5
D7
  8
0
 62
     0
 10
95.822045575183893
 20
30.899999905572031
 30
0.0
 11
97.022045575183824
 21
32.099999905571849
 31
0.0
  0
LINE
  5
D8
  8
0
 62
     0
 10
94.475007157023455
 20
30.899999905571921
 30
0.0
 11
95.675007157023629
 21
32.099999905572083
 31
0.0
  0
LINE
  5
D9
  8
0
 62
     0
 10
93.12796873886316
 20
30.8999999055718
 30
0.0
 11
94.327968738863206
 21
32.099999905571849
 31
0.0
  0
LINE
  5
DA
  8
0
 62
     0
 10
91.780930320702836
 20
30.899999905572031
 30
0.0
 11
92.980930320702669
 21
32.099999905571849
 31
0.0
  0
LINE
  5
DB
  8
0
 62
     0
 10
90.433891902542427
 20
30.899999905571921
 30
0.0
 11
91.633891902542345
 21
32.099999905571849
 31
0.0
  0
LINE
  5
DC
  8
0
 62
     0
 10
89.086853484382004
 20
30.8999999055718
 30
0.0
 11
90.286853484381936
 21
32.099999905571849
 31
0.0
  0
LINE
  5
DD
  8
0
 62
     0
 10
87.739815066221581
 20
30.899999905571921
 30
0.0
 11
88.939815066221627
 21
32.099999905571963
 31
0.0
  0
LINE
  5
DE
  8
0
 62
     0
 10
86.392776648061286
 20
30.8999999055718
 30
0.0
 11
87.592776648061317
 21
32.099999905571849
 31
0.0
  0
LINE
  5
DF
  8
0
 62
     0
 10
85.045738229900849
 20
30.8999999055718
 30
0.0
 11
86.245738229900994
 21
32.099999905571963
 31
0.0
  0
LINE
  5
E0
  8
0
 62
     0
 10
83.698699811740525
 20
30.899999905571921
 30
0.0
 11
84.898699811740585
 21
32.099999905571963
 31
0.0
  0
LINE
  5
E1
  8
0
 62
     0
 10
82.351661393580116
 20
30.8999999055718
 30
0.0
 11
83.551661393580275
 21
32.099999905571963
 31
0.0
  0
LINE
  5
E2
  8
0
 62
     0
 10
81.004622975419693
 20
30.8999999055718
 30
0.0
 11
82.204622975419738
 21
32.099999905571849
 31
0.0
  0
LINE
  5
E3
  8
0
 62
     0
 10
79.65758455725927
 20
30.8999999055718
 30
0.0
 11
80.857584557259543
 21
32.099999905572083
 31
0.0
  0
LINE
  5
E4
  8
0
 62
     0
 10
78.310546139098847
 20
30.89999990557158
 30
0.0
 11
79.51054613909912
 21
32.099999905571849
 31
0.0
  0
LINE
  5
E5
  8
0
 62
     0
 10
76.667587448967083
 20
30.60407963360035
 30
0.0
 11
78.163507720938583
 21
32.099999905571849
 31
0.0
  0
LINE
  5
E6
  8
0
 62
     0
 10
70.808257585610022
 20
26.091788188403712
 30
0.0
 11
76.816469302778387
 21
32.099999905572083
 31
0.0
  0
LINE
  5
E7
  8
0
 62
     0
 10
64.948927722253075
 20
21.57949674320696
 30
0.0
 11
71.537104336761104
 21
28.167673357714989
 31
0.0
  0
LINE
  5
E8
  8
0
 62
     0
 10
59.0895978588959
 20
17.067205298010322
 30
0.0
 11
65.677774473403701
 21
23.65538191251812
 31
0.0
  0
LINE
  5
E9
  8
0
 62
     0
 10
53.230267995538952
 20
12.55491385281357
 30
0.0
 11
59.818444610046519
 21
19.143090467321141
 31
0.0
  0
LINE
  5
EA
  8
0
 62
     0
 10
47.370938132181891
 20
8.0426224076169301
 30
0.0
 11
53.959114746689117
 21
14.63079902212416
 31
0.0
  0
LINE
  5
EB
  8
0
 62
     0
 10
41.511608268824943
 20
3.5303309624204071
 30
0.0
 11
48.099784883331949
 21
10.11850757692741
 31
0.0
  0
LINE
  5
EC
  8
0
 62
     0
 10
36.63423879381628
 20
-0.0000000944279464
 30
0.0
 11
42.240455019974661
 21
5.6062161317304344
 31
0.0
  0
LINE
  5
ED
  8
0
 62
     0
 10
35.287200375655743
 20
-0.00000009442806
 30
0.0
 11
36.487200375655668
 21
1.1999999055718711
 31
0.0
  0
LINE
  5
EE
  8
0
 62
     0
 10
33.94016195749532
 20
-0.0000000944279464
 30
0.0
 11
35.140161957495373
 21
1.199999905571985
 31
0.0
  0
LINE
  5
EF
  8
0
 62
     0
 10
32.593123539335132
 20
-0.0000000944279464
 30
0.0
 11
33.793123539335063
 21
1.199999905571985
 31
0.0
  0
LINE
  5
F0
  8
0
 62
     0
 10
31.246085121174591
 20
-0.00000009442806
 30
0.0
 11
32.446085121174519
 21
1.1999999055718711
 31
0.0
  0
LINE
  5
F1
  8
0
 62
     0
 10
29.899046703014388
 20
-0.0000000944278327
 30
0.0
 11
31.09904670301421
 21
1.199999905571985
 31
0.0
  0
LINE
  5
F2
  8
0
 62
     0
 10
28.552008284853969
 20
-0.00000009442806
 30
0.0
 11
29.75200828485379
 21
1.1999999055717581
 31
0.0
  0
LINE
  5
F3
  8
0
 62
     0
 10
27.204969866693549
 20
-0.0000000944279464
 30
0.0
 11
28.40496986669336
 21
1.1999999055718711
 31
0.0
  0
LINE
  5
F4
  8
0
 62
     0
 10
25.85793144853324
 20
-0.00000009442806
 30
0.0
 11
27.057931448533171
 21
1.1999999055718711
 31
0.0
  0
LINE
  5
F5
  8
0
 62
     0
 10
24.510893030372699
 20
-0.0000000944281737
 30
0.0
 11
25.710893030372631
 21
1.1999999055717581
 31
0.0
  0
LINE
  5
F6
  8
0
 62
     0
 10
23.16385461221239
 20
-0.0000000944279464
 30
0.0
 11
24.363854612212322
 21
1.199999905571985
 31
0.0
  0
LINE
  5
F7
  8
0
 62
     0
 10
21.81681619405208
 20
-0.00000009442806
 30
0.0
 11
23.016816194052009
 21
1.1999999055718711
 31
0.0
  0
LINE
  5
F8
  8
0
 62
     0
 10
20.469777775891661
 20
-0.0000000944279464
 30
0.0
 11
21.669777775891589
 21
1.1999999055718711
 31
0.0
  0
LINE
  5
F9
  8
0
 62
     0
 10
19.122739357731351
 20
-0.0000000944279464
 30
0.0
 11
20.322739357731169
 21
1.1999999055718711
 31
0.0
  0
LINE
  5
FA
  8
0
 62
     0
 10
17.775700939571038
 20
-0.0000000944279464
 30
0.0
 11
18.975700939570849
 21
1.1999999055718711
 31
0.0
  0
LINE
  5
FB
  8
0
 62
     0
 10
16.428662521410502
 20
-0.00000009442806
 30
0.0
 11
17.62866252141043
 21
1.1999999055718711
 31
0.0
  0
LINE
  5
FC
  8
0
 62
     0
 10
15.0816241032503
 20
-0.0000000944278327
 30
0.0
 11
16.28162410325012
 21
1.199999905571985
 31
0.0
  0
LINE
  5
FD
  8
0
 62
     0
 10
13.734585685089881
 20
-0.00000009442806
 30
0.0
 11
14.934585685089701
 21
1.1999999055718711
 31
0.0
  0
LINE
  5
FE
  8
0
 62
     0
 10
12.38754726692934
 20
-0.00000009442806
 30
0.0
 11
13.587547266929279
 21
1.1999999055718711
 31
0.0
  0
LINE
  5
FF
  8
0
 62
     0
 10
11.040508848769029
 20
-0.0000000944278327
 30
0.0
 11
12.24050884876897
 21
1.199999905571985
 31
0.0
  0
LINE
  5
100
  8
0
 62
     0
 10
9.6934704306086132
 20
-0.00000009442806
 30
0.0
 11
10.89347043060854
 21
1.1999999055717581
 31
0.0
  0
LINE
  5
101
  8
0
 62
     0
 10
8.3464320124483038
 20
-0.0000000944279464
 30
0.0
 11
9.5464320124481201
 21
1.1999999055718711
 31
0.0
  0
LINE
  5
102
  8
0
 62
     0
 10
6.9993935942879943
 20
-0.00000009442806
 30
0.0
 11
8.1993935942878124
 21
1.1999999055717581
 31
0.0
  0
LINE
  5
103
  8
0
 62
     0
 10
5.652355176127684
 20
-0.0000000944279464
 30
0.0
 11
6.852355176127503
 21
1.1999999055718711
 31
0.0
  0
LINE
  5
104
  8
0
 62
     0
 10
4.6567508997378582
 20
0.35143404734265
 30
0.0
 11
5.5073510563923938
 21
1.2020342039971861
 31
0.0
  0
LINE
  5
105
  8
0
 62
     0
 10
3.9361346395838832
 20
0.9778562053489849
 30
0.0
 11
4.7867347962385329
 21
1.8284563620036349
 31
0.0
  0
LINE
  5
106
  8
0
 62
     0
 10
3.2155183794299091
 20
1.6042783633554329
 30
0.0
 11
4.0661185360846721
 21
2.454878520010197
 31
0.0
  0
LINE
  5
107
  8
0
 62
     0
 10
2.4949021192760479
 20
2.230700521361995
 30
0.0
 11
3.3455022759308122
 21
3.0813006780167589
 31
0.0
  0
LINE
  5
108
  8
0
 62
     0
 10
1.7742858591220729
 20
2.8571226793684441
 30
0.0
 11
2.6248860157769509
 21
3.7077228360233221
 31
0.0
  0
LINE
  5
109
  8
0
 62
     0
 10
1.0536695989680991
 20
3.483544837374779
 30
0.0
 11
1.904269755622976
 21
4.3341449940297698
 31
0.0
  0
LINE
  5
10A
  8
0
 62
     0
 10
0.3330533388142385
 20
4.1099669953813409
 30
0.0
 11
1.183653495469229
 21
4.960567152036333
 31
0.0
  0
ENDBLK
  5
10C
  8
0
  0
ENDSEC
  0
SECTION
  2
ENTITIES
  0
ARC
  5
8E
  8
0
 10
875.29741668488987
 20
650.07843274658455
 30
0.0
 40
0.3
 50
90.0
 51
127.5999999999944
  0
LINE
  5
8F
  8
0
 10
835.07082055859428
 20
619.47843274658464
 30
0.0
 11
875.11437313571957
 21
650.31611963959131
 31
0.0
  0
LINE
  5
90
  8
0
 10
875.29741668488987
 20
650.37843274658474
 30
0.0
 11
906.85947327501174
 21
650.37843274658474
 31
0.0
  0
LINE
  5
91
  8
0
 10
804.06164517171339
 20
619.47843274658464
 30
0.0
 11
835.07082055859428
 21
619.47843274658464
 31
0.0
  0
ARC
  5
92
  8
0
 10
906.85947327501174
 20
650.07843274658455
 30
0.0
 40
0.3
 50
49.000000000009543
 51
90.0
  0
LINE
  5
93
  8
0
 10
799.42978700695846
 20
623.50484562065162
 30
0.0
 11
804.06164517171339
 21
619.47843274658464
 31
0.0
  0
LINE
  5
94
  8
0
 10
907.05629098370889
 20
650.30484562065146
 30
0.0
 11
911.94210606301874
 21
646.05767136878558
 31
0.0
  0
ARC
  5
95
  8
0
 10
799.23296929826154
 20
623.27843274658494
 30
0.0
 40
0.2999999999999664
 50
48.999999999997421
 51
139.00000000002589
  0
ARC
  5
96
  8
0
 10
911.74528835432147
 20
645.83125849471878
 30
0.0
 40
0.2999999999999309
 50
318.99999999996459
 51
48.999999999981043
  0
LINE
  5
97
  8
0
 10
798.63260277766938
 20
623.04506599455453
 30
0.0
 11
799.00655642419463
 21
623.47525045528198
 31
0.0
  0
LINE
  5
98
  8
0
 10
911.97170122838827
 20
645.63444078602163
 30
0.0
 11
911.57806581099385
 21
645.18161503788735
 31
0.0
  0
ARC
  5
99
  8
0
 10
798.88165693914311
 20
622.82856651498776
 30
0.0
 40
0.3300000000000016
 50
139.00000000003891
 51
229.00000000002399
  0
ARC
  5
9A
  8
0
 10
911.35165293692717
 20
645.37843274658474
 30
0.0
 40
0.2999999999999253
 50
228.9999999999483
 51
318.99999999996459
  0
LINE
  5
9B
  8
0
 10
803.52833125147936
 20
618.35201987251787
 30
0.0
 11
798.66515745957633
 21
622.57951235351425
 31
0.0
  0
LINE
  5
9C
  8
0
 10
911.15483522822979
 20
645.15201987251805
 30
0.0
 11
906.5229770634752
 21
649.17843274658492
 31
0.0
  0
ARC
  5
9D
  8
0
 10
803.7251489601764
 20
618.57843274658478
 30
0.0
 40
0.3
 50
228.99999999999531
 51
270.0
  0
LINE
  5
9E
  8
0
 10
906.5229770634752
 20
649.17843274658492
 30
0.0
 11
875.60380167659434
 21
649.17843274658446
 31
0.0
  0
LINE
  5
9F
  8
0
 10
835.37720555029841
 20
618.27843274658483
 30
0.0
 11
803.7251489601764
 21
618.27843274658483
 31
0.0
  0
LINE
  5
A0
  8
0
 10
875.60380167659434
 20
649.17843274658446
 30
0.0
 11
835.56024909946871
 21
618.34074585357826
 31
0.0
  0
ARC
  5
A1
  8
0
 10
835.37720555029841
 20
618.57843274658478
 30
0.0
 40
0.3
 50
270.0
 51
307.60000000000758
  0
ENDSEC
  0
EOF
