  0
SECTION
  2
HEADER
  9
$ACADVER
  1
AC1009
  9
$INSBASE
 10
0.0
 20
0.0
 30
0.0
  9
$EXTMIN
 10
2877.4959222909401
 20
1730.417224093072
 30
-0.0015258207003583
  9
$EXTMAX
 10
2924.8011341597121
 20
1777.472593661917
 30
0.0000000349246037
  9
$LIMMIN
 10
0.0
 20
0.0
  9
$LIMMAX
 10
420.0
 20
297.0
  9
$ORTHOMODE
 70
     0
  9
$REGENMODE
 70
     1
  9
$FILLMODE
 70
     1
  9
$QTEXTMODE
 70
     0
  9
$MIRRTEXT
 70
     0
  9
$DRAGMODE
 70
     2
  9
$LTSCALE
 40
1.0
  9
$OSMODE
 70
  4095
  9
$ATTMODE
 70
     1
  9
$TEXTSIZE
 40
2.5
  9
$TRACEWID
 40
1.0
  9
$TEXTSTYLE
  7
STANDARD
  9
$CLAYER
  8
0
  9
$CELTYPE
  6
BYLAYER
  9
$CECOLOR
 62
   256
  9
$DIMSCALE
 40
1.0
  9
$DIMASZ
 40
2.5
  9
$DIMEXO
 40
0.625
  9
$DIMDLI
 40
3.75
  9
$DIMRND
 40
0.0
  9
$DIMDLE
 40
0.0
  9
$DIMEXE
 40
1.25
  9
$DIMTP
 40
0.0
  9
$DIMTM
 40
0.0
  9
$DIMTXT
 40
2.5
  9
$DIMCEN
 40
2.5
  9
$DIMTSZ
 40
0.0
  9
$DIMTOL
 70
     0
  9
$DIMLIM
 70
     0
  9
$DIMTIH
 70
     0
  9
$DIMTOH
 70
     0
  9
$DIMSE1
 70
     0
  9
$DIMSE2
 70
     0
  9
$DIMTAD
 70
     1
  9
$DIMZIN
 70
     8
  9
$DIMBLK
  1

  9
$DIMASO
 70
     1
  9
$DIMSHO
 70
     1
  9
$DIMPOST
  1

  9
$DIMAPOST
  1

  9
$DIMALT
 70
     0
  9
$DIMALTD
 70
     3
  9
$DIMALTF
 40
0.03937007874016
  9
$DIMLFAC
 40
1.0
  9
$DIMTOFL
 70
     1
  9
$DIMTVP
 40
0.0
  9
$DIMTIX
 70
     0
  9
$DIMSOXD
 70
     0
  9
$DIMSAH
 70
     0
  9
$DIMBLK1
  1

  9
$DIMBLK2
  1

  9
$DIMSTYLE
  2
ISO-25
  9
$DIMCLRD
 70
     0
  9
$DIMCLRE
 70
     0
  9
$DIMCLRT
 70
     0
  9
$DIMTFAC
 40
1.0
  9
$DIMGAP
 40
0.625
  9
$LUNITS
 70
     2
  9
$LUPREC
 70
     4
  9
$SKETCHINC
 40
1.0
  9
$FILLETRAD
 40
0.0
  9
$AUNITS
 70
     0
  9
$AUPREC
 70
     0
  9
$MENU
  1
.
  9
$ELEVATION
 40
0.0
  9
$PELEVATION
 40
0.0
  9
$THICKNESS
 40
0.0
  9
$LIMCHECK
 70
     0
  9
$BLIPMODE
 70
     0
  9
$CHAMFERA
 40
0.0
  9
$CHAMFERB
 40
0.0
  9
$SKPOLY
 70
     0
  9
$TDCREATE
 40
2457732.6283440511
  9
$TDUPDATE
 40
2457732.6284875348
  9
$TDINDWG
 40
0.0001442708
  9
$TDUSRTIMER
 40
0.0001442593
  9
$USRTIMER
 70
     1
  9
$ANGBASE
 50
0.0
  9
$ANGDIR
 70
     0
  9
$PDMODE
 70
     0
  9
$PDSIZE
 40
0.0
  9
$PLINEWID
 40
0.0
  9
$COORDS
 70
     1
  9
$SPLFRAME
 70
     0
  9
$SPLINETYPE
 70
     6
  9
$SPLINESEGS
 70
     8
  9
$ATTDIA
 70
     1
  9
$ATTREQ
 70
     1
  9
$HANDLING
 70
     1
  9
$HANDSEED
  5
3B0
  9
$SURFTAB1
 70
     6
  9
$SURFTAB2
 70
     6
  9
$SURFTYPE
 70
     6
  9
$SURFU
 70
     6
  9
$SURFV
 70
     6
  9
$UCSNAME
  2

  9
$UCSORG
 10
0.0
 20
0.0
 30
0.0
  9
$UCSXDIR
 10
1.0
 20
0.0
 30
0.0
  9
$UCSYDIR
 10
0.0
 20
1.0
 30
0.0
  9
$PUCSNAME
  2

  9
$PUCSORG
 10
0.0
 20
0.0
 30
0.0
  9
$PUCSXDIR
 10
1.0
 20
0.0
 30
0.0
  9
$PUCSYDIR
 10
0.0
 20
1.0
 30
0.0
  9
$USERI1
 70
     0
  9
$USERI2
 70
     0
  9
$USERI3
 70
     0
  9
$USERI4
 70
     0
  9
$USERI5
 70
     0
  9
$USERR1
 40
0.0
  9
$USERR2
 40
0.0
  9
$USERR3
 40
0.0
  9
$USERR4
 40
0.0
  9
$USERR5
 40
0.0
  9
$WORLDVIEW
 70
     1
  9
$SHADEDGE
 70
     3
  9
$SHADEDIF
 70
    70
  9
$TILEMODE
 70
     1
  9
$MAXACTVP
 70
    64
  9
$PLIMCHECK
 70
     0
  9
$PEXTMIN
 10
0.0
 20
0.0
 30
0.0
  9
$PEXTMAX
 10
0.0
 20
0.0
 30
0.0
  9
$PLIMMIN
 10
0.0
 20
0.0
  9
$PLIMMAX
 10
12.0
 20
9.0
  9
$UNITMODE
 70
     0
  9
$VISRETAIN
 70
     1
  9
$PLINEGEN
 70
     0
  9
$PSLTSCALE
 70
     1
  0
ENDSEC
  0
SECTION
  2
TABLES
  0
TABLE
  2
VPORT
 70
     1
  0
VPORT
  2
*ACTIVE
 70
     0
 10
0.0
 20
0.0
 11
1.0
 21
1.0
 12
2901.1485282253261
 22
1753.9449088774941
 13
0.0
 23
0.0
 14
10.0
 24
10.0
 15
10.0
 25
10.0
 16
0.0
 26
0.0
 36
1.0
 17
0.0
 27
0.0
 37
0.0
 40
47.408284840611479
 41
2.2040050062578218
 42
50.0
 43
0.0
 44
0.0
 50
0.0
 51
0.0
 71
     0
 72
  1000
 73
     1
 74
     3
 75
     0
 76
     1
 77
     0
 78
     0
  0
ENDTAB
  0
TABLE
  2
LTYPE
 70
     1
  0
LTYPE
  2
CONTINUOUS
 70
     0
  3
Solid line
 72
    65
 73
     0
 40
0.0
  0
ENDTAB
  0
TABLE
  2
LAYER
 70
     1
  0
LAYER
  2
0
 70
     0
 62
     7
  6
CONTINUOUS
  0
ENDTAB
  0
TABLE
  2
STYLE
 70
     3
  0
STYLE
  2
STANDARD
 70
     0
 40
0.0
 41
1.0
 50
0.0
 71
     0
 42
2.5
  3
txt
  4

  0
STYLE
  2
ANNOTATIVE
 70
     0
 40
0.0
 41
1.0
 50
0.0
 71
     0
 42
2.5
  3
txt
  4

  0
STYLE
  2
ROMANT
 70
     0
 40
2.2000000000000002
 41
1.0
 50
15.0
 71
     0
 42
2.5
  3
romant.shx
  4

  0
ENDTAB
  0
TABLE
  2
VIEW
 70
     2
  0
ENDTAB
  0
TABLE
  2
UCS
 70
     0
  0
ENDTAB
  0
TABLE
  2
APPID
 70
    11
  0
APPID
  2
ACAD
 70
     0
  0
APPID
  2
ACAD_PSEXT
 70
     0
  0
APPID
  2
ACADANNOPO
 70
     0
  0
APPID
  2
ACADANNOTATIVE
 70
     0
  0
APPID
  2
ACAD_DSTYLE_DIMJAG
 70
     0
  0
APPID
  2
ACAD_DSTYLE_DIMTALN
 70
     0
  0
APPID
  2
ACAD_MLEADERVER
 70
     0
  0
APPID
  2
ACAD_NAV_VCDISPLAY
 70
     0
  0
APPID
  2
GRADIENTCOLOR1ACI
 70
     0
  0
APPID
  2
GRADIENTCOLOR2ACI
 70
     0
  0
APPID
  2
DCO15
 70
     0
  0
ENDTAB
  0
TABLE
  2
DIMSTYLE
 70
     4
  0
DIMSTYLE
  2
STANDARD
 70
     0
  3

  4

  5

  6

  7

 40
1.0
 41
0.18
 42
0.0625
 43
0.38
 44
0.18
 45
0.0
 46
0.0
 47
0.0
 48
0.0
140
0.18
141
0.09
142
0.0
143
25.399999999999999
144
1.0
145
0.0
146
1.0
147
0.09
 71
     0
 72
     0
 73
     1
 74
     1
 75
     0
 76
     0
 77
     0
 78
     0
170
     0
171
     2
172
     0
173
     0
174
     0
175
     0
176
     0
177
     0
178
     0
  0
DIMSTYLE
  2
ANNOTATIVE
 70
     0
  3

  4

  5

  6

  7

 40
0.0
 41
2.5
 42
0.625
 43
3.75
 44
1.25
 45
0.0
 46
0.0
 47
0.0
 48
0.0
140
2.5
141
2.5
142
0.0
143
0.03937007874016
144
1.0
145
0.0
146
1.0
147
0.625
 71
     0
 72
     0
 73
     0
 74
     0
 75
     0
 76
     0
 77
     1
 78
     8
170
     0
171
     3
172
     1
173
     0
174
     0
175
     0
176
     0
177
     0
178
     0
  0
DIMSTYLE
  2
ISO-25
 70
     0
  3

  4

  5

  6

  7

 40
1.0
 41
2.5
 42
0.625
 43
3.75
 44
1.25
 45
0.0
 46
0.0
 47
0.0
 48
0.0
140
2.5
141
2.5
142
0.0
143
0.03937007874016
144
1.0
145
0.0
146
1.0
147
0.625
 71
     0
 72
     0
 73
     0
 74
     0
 75
     0
 76
     0
 77
     1
 78
     8
170
     0
171
     3
172
     1
173
     0
174
     0
175
     0
176
     0
177
     0
178
     0
  0
DIMSTYLE
  2
MELÝH_A4
 70
     0
  3

  4

  5

  6

  7

 40
1.0
 41
1.5
 42
0.0
 43
3.75
 44
0.5
 45
0.0
 46
0.0
 47
0.0
 48
0.0
140
2.2999999999999989
141
0.2
142
0.0
143
0.03937007874016
144
1.0
145
0.0
146
1.0
147
0.4
 71
     0
 72
     0
 73
     0
 74
     0
 75
     0
 76
     0
 77
     1
 78
     8
170
     0
171
     3
172
     0
173
     0
174
     0
175
     0
176
   242
177
   242
178
   242
  0
ENDTAB
  0
ENDSEC
  0
SECTION
  2
BLOCKS
  0
BLOCK
  8
0
  2
$MODEL_SPACE
 70
     0
 10
0.0
 20
0.0
 30
0.0
  3
$MODEL_SPACE
  1

  0
ENDBLK
  5
21
  8
0
  0
BLOCK
 67
     1
  8
0
  2
$PAPER_SPACE
 70
     0
 10
0.0
 20
0.0
 30
0.0
  3
$PAPER_SPACE
  1

  0
ENDBLK
  5
D5
 67
     1
  8
0
  0
BLOCK
  8
0
  2
*X2
 70
     1
 10
0.0
 20
0.0
 30
0.0
  3
*X2
  1

  0
LINE
  5
2D1
  8
0
 62
     0
 10
43.253480868267843
 20
7.2166582596638298
 30
0.0
 11
48.622063886408249
 21
12.58524127780424
 31
0.0
  0
LINE
  5
2D2
  8
0
 62
     0
 10
40.827180254620849
 20
5.6883832581237641
 30
0.0
 11
50.150338887948323
 21
15.01154189145123
 31
0.0
  0
LINE
  5
2D3
  8
0
 62
     0
 10
47.933187199286493
 20
13.69241581489632
 30
0.0
 11
51.027400524879234
 21
16.786629140489051
 31
0.0
  0
LINE
  5
2D4
  8
0
 62
     0
 10
39.052093005583032
 20
4.8113216211928602
 30
0.0
 11
42.146306331175879
 21
7.905534946785707
 31
0.0
  0
LINE
  5
2D5
  8
0
 62
     0
 10
49.290781657372627
 20
15.94803588508935
 30
0.0
 11
51.631362366167281
 21
18.288616593884001
 31
0.0
  0
LINE
  5
2D6
  8
0
 62
     0
 10
37.550105552188121
 20
4.2073597799048343
 30
0.0
 11
39.890686260982847
 21
6.5479404886995658
 31
0.0
  0
LINE
  5
2D7
  8
0
 62
     0
 10
50.091987885396662
 20
17.647267725220331
 30
0.0
 11
52.071769966668143
 21
19.627049806491812
 31
0.0
  0
LINE
  5
2D8
  8
0
 62
     0
 10
36.211672339580282
 20
3.766952179403944
 30
0.0
 11
38.191454420851841
 21
5.7467342606755381
 31
0.0
  0
LINE
  5
2D9
  8
0
 62
     0
 10
50.643799988321767
 20
19.097105440252331
 30
0.0
 11
52.398894366509488
 21
20.852199818440059
 31
0.0
  0
LINE
  5
2DA
  8
0
 62
     0
 10
34.986522327632059
 20
3.4398277795626191
 30
0.0
 11
36.741616705819872
 21
5.1949221577504261
 31
0.0
  0
LINE
  5
2DB
  8
0
 62
     0
 10
51.042826955793629
 20
20.394158019831082
 30
0.0
 11
52.640846748960627
 21
21.992177812998079
 31
0.0
  0
LINE
  5
2DC
  8
0
 62
     0
 10
33.846544333073979
 20
3.1978753971114311
 30
0.0
 11
35.444564126241147
 21
4.7958951902785989
 31
0.0
  0
LINE
  5
2DD
  8
0
 62
     0
 10
51.334706250436788
 20
21.584062926581201
 30
0.0
 11
52.815261642633367
 21
23.064618318777772
 31
0.0
  0
LINE
  5
2DE
  8
0
 62
     0
 10
32.774103827294311
 20
3.0234605034387121
 30
0.0
 11
34.254659219490968
 21
4.5040158956353764
 31
0.0
  0
LINE
  5
2DF
  8
0
 62
     0
 10
51.545361633783557
 20
22.69274392203485
 30
0.0
 11
52.934075260437538
 21
24.081457548688832
 31
0.0
  0
LINE
  5
2E0
  8
0
 62
     0
 10
31.757264597383259
 20
2.904646885634548
 30
0.0
 11
33.14597822403735
 21
4.2933605122886433
 31
0.0
  0
LINE
  5
2E1
  8
0
 62
     0
 10
51.691218281203589
 20
23.736626181561832
 30
0.0
 11
53.005816779851394
 21
25.051224680209629
 31
0.0
  0
LINE
  5
2E2
  8
0
 62
     0
 10
30.787497465862462
 20
2.8329053662207002
 30
0.0
 11
32.102095964510369
 21
4.14750386486861
 31
0.0
  0
LINE
  5
2E3
  8
0
 62
     0
 10
51.783470558786917
 20
24.726904071252051
 30
0.0
 11
53.036833421502479
 21
25.980266933967609
 31
0.0
  0
LINE
  5
2E4
  8
0
 62
     0
 10
29.858455212104481
 20
2.8018887245696069
 30
0.0
 11
31.111818074820121
 21
4.0552515872852553
 31
0.0
  0
LINE
  5
2E5
  8
0
 62
     0
 10
51.830157484700067
 20
25.671616609272149
 30
0.0
 11
53.031999905524373
 21
26.873459030096459
 31
0.0
  0
LINE
  5
2E6
  8
0
 62
     0
 10
28.965263115975631
 20
2.806722240547713
 30
0.0
 11
30.167105536800051
 21
4.0085646613721329
 31
0.0
  0
LINE
  5
2E7
  8
0
 62
     0
 10
50.960232641065708
 20
25.69971737774469
 30
0.0
 11
52.995155283897752
 21
27.734640020576741
 31
0.0
  0
LINE
  5
2E8
  8
0
 62
     0
 10
28.104082125495349
 20
2.8435668621743271
 30
0.0
 11
29.261953722769022
 21
4.0014384594479964
 31
0.0
  0
LINE
  5
2E9
  8
0
 62
     0
 10
50.062207028958817
 20
25.69971737774469
 30
0.0
 11
51.262207028958919
 21
26.8997173777448
 31
0.0
  0
LINE
  5
2EA
  8
0
 62
     0
 10
51.809473545179912
 20
27.446983893965779
 30
0.0
 11
52.929385324766059
 21
28.566895673551929
 31
0.0
  0
LINE
  5
2EB
  8
0
 62
     0
 10
27.271826472520129
 20
2.909336821305998
 30
0.0
 11
28.391738252106421
 21
4.029248600892287
 31
0.0
  0
LINE
  5
2EC
  8
0
 62
     0
 10
49.164181416851903
 20
25.699717377744719
 30
0.0
 11
50.364181416851999
 21
26.899717377744821
 31
0.0
  0
LINE
  5
2ED
  8
0
 62
     0
 10
51.750376394393037
 20
28.285912355285859
 30
0.0
 11
52.83721243276463
 21
29.372748393657449
 31
0.0
  0
LINE
  5
2EE
  8
0
 62
     0
 10
26.465973752414641
 20
3.0015097133074562
 30
0.0
 11
27.552809790786309
 21
4.0883457516791282
 31
0.0
  0
LINE
  5
2EF
  8
0
 62
     0
 10
48.266155804745011
 20
25.69971737774469
 30
0.0
 11
49.466155804745078
 21
26.8997173777448
 31
0.0
  0
LINE
  5
2F0
  8
0
 62
     0
 10
51.662929728019662
 20
29.09649130101937
 30
0.0
 11
52.720727652350661
 21
30.154289225350372
 31
0.0
  0
LINE
  5
2F1
  8
0
 62
     0
 10
25.68443292072169
 20
3.117994493721397
 30
0.0
 11
26.742230845052809
 21
4.1757924180525086
 31
0.0
  0
LINE
  5
2F2
  8
0
 62
     0
 10
47.368130192638063
 20
25.699717377744719
 30
0.0
 11
48.568130192638137
 21
26.8997173777448
 31
0.0
  0
LINE
  5
2F3
  8
0
 62
     0
 10
51.549536924950729
 20
29.88112411005736
 30
0.0
 11
52.58168499602899
 21
30.91327218113566
 31
0.0
  0
LINE
  5
2F4
  8
0
 62
     0
 10
24.92544996493644
 20
3.257037150043089
 30
0.0
 11
25.957598036014812
 21
4.2891852211214712
 31
0.0
  0
LINE
  5
2F5
  8
0
 62
     0
 10
46.470104580531171
 20
25.699717377744719
 30
0.0
 11
47.670104580531238
 21
26.8997173777448
 31
0.0
  0
LINE
  5
2F6
  8
0
 62
     0
 10
51.412191183107687
 20
30.641803980321239
 30
0.0
 11
52.421570465439743
 21
31.651183262653291
 31
0.0
  0
LINE
  5
2F7
  8
0
 62
     0
 10
24.187538883418771
 20
3.417151680632315
 30
0.0
 11
25.196918165750962
 21
4.4265309629645051
 31
0.0
  0
LINE
  5
2F8
  8
0
 62
     0
 10
45.572078968424272
 20
25.699717377744751
 30
0.0
 11
46.772078968424317
 21
26.8997173777448
 31
0.0
  0
LINE
  5
2F9
  8
0
 62
     0
 10
51.252564323515621
 20
31.3802027328361
 30
0.0
 11
52.241653596828371
 21
32.369292006148839
 31
0.0
  0
LINE
  5
2FA
  8
0
 62
     0
 10
23.469430139923279
 20
3.5970685492437431
 30
0.0
 11
24.4585194132361
 21
4.5861578225565722
 31
0.0
  0
LINE
  5
2FB
  8
0
 62
     0
 10
44.674053356317359
 20
25.699717377744751
 30
0.0
 11
45.874053356317397
 21
26.8997173777448
 31
0.0
  0
LINE
  5
2FC
  8
0
 62
     0
 10
51.072071915915899
 20
32.097735937343288
 30
0.0
 11
52.043026644852148
 21
33.068690666279537
 31
0.0
  0
LINE
  5
2FD
  8
0
 62
     0
 10
22.77003147979255
 20
3.7956955012199378
 30
0.0
 11
23.740986208728909
 21
4.7666502301563014
 31
0.0
  0
LINE
  5
2FE
  8
0
 62
     0
 10
43.77602774421046
 20
25.699717377744751
 30
0.0
 11
44.976027744210512
 21
26.8997173777448
 31
0.0
  0
LINE
  5
2FF
  8
0
 62
     0
 10
50.871922003669063
 20
32.795611637203343
 30
0.0
 11
51.826634834828972
 21
33.75032446836326
 31
0.0
  0
LINE
  5
300
  8
0
 62
     0
 10
22.088397677708802
 20
4.0120873112430777
 30
0.0
 11
23.04311050886886
 21
4.9668001424031436
 31
0.0
  0
LINE
  5
301
  8
0
 62
     0
 10
42.878002132103518
 20
25.699717377744751
 30
0.0
 11
44.078002132103528
 21
26.899717377744761
 31
0.0
  0
LINE
  5
302
  8
0
 62
     0
 10
50.653152195347381
 20
33.474867440988618
 30
0.0
 11
51.593300038938878
 21
34.415015284580107
 31
0.0
  0
LINE
  5
303
  8
0
 62
     0
 10
21.423706861492011
 20
4.2454221071332361
 30
0.0
 11
22.363854705083561
 21
5.185569950724811
 31
0.0
  0
LINE
  5
304
  8
0
 62
     0
 10
41.97997651999659
 20
25.699717377744719
 30
0.0
 11
43.179976519996643
 21
26.899717377744761
 31
0.0
  0
LINE
  5
305
  8
0
 62
     0
 10
50.416658329434853
 20
34.136399187182981
 30
0.0
 11
51.343739527997997
 21
35.063480385746118
 31
0.0
  0
LINE
  5
306
  8
0
 62
     0
 10
20.77524176032594
 20
4.4949826180740891
 30
0.0
 11
21.702322958889201
 21
5.4220638166373192
 31
0.0
  0
LINE
  5
307
  8
0
 62
     0
 10
41.081950907889698
 20
25.699717377744751
 30
0.0
 11
42.281950907889737
 21
26.8997173777448
 31
0.0
  0
LINE
  5
308
  8
0
 62
     0
 10
50.163216919220531
 20
34.780983389075573
 30
0.0
 11
51.078580978536714
 21
35.696347448391748
 31
0.0
  0
LINE
  5
309
  8
0
 62
     0
 10
20.142374697680371
 20
4.7601411675354077
 30
0.0
 11
21.05773875699666
 21
5.6755052268516968
 31
0.0
  0
LINE
  5
30A
  8
0
 62
     0
 10
40.18392529578275
 20
25.699717377744719
 30
0.0
 11
41.383925295782831
 21
26.8997173777448
 31
0.0
  0
LINE
  5
30B
  8
0
 62
     0
 10
49.893502928517499
 20
35.409295010479468
 30
0.0
 11
50.79837459190108
 21
36.314166673863042
 31
0.0
  0
LINE
  5
30C
  8
0
 62
     0
 10
19.524555472209009
 20
5.0403475541709781
 30
0.0
 11
20.429427135592729
 21
5.9452192175546941
 31
0.0
  0
LINE
  5
30D
  8
0
 62
     0
 10
39.285899683675872
 20
25.699717377744719
 30
0.0
 11
40.485899683675932
 21
26.8997173777448
 31
0.0
  0
LINE
  5
30E
  8
0
 62
     0
 10
49.608103987595882
 20
36.021921681664743
 30
0.0
 11
50.50360295679652
 21
36.917420650865381
 31
0.0
  0
LINE
  5
30F
  8
0
 62
     0
 10
18.92130149520667
 20
5.3351191892755594
 30
0.0
 11
19.816800464407461
 21
6.2306181584763181
 31
0.0
  0
LINE
  5
310
  8
0
 62
     0
 10
38.387874071568952
 20
25.699717377744751
 30
0.0
 11
39.587874071569018
 21
26.8997173777448
 31
0.0
  0
LINE
  5
311
  8
0
 62
     0
 10
49.307531855936674
 20
36.619375162112483
 30
0.0
 11
50.194689126815632
 21
37.506532432991442
 31
0.0
  0
LINE
  5
312
  8
0
 62
     0
 10
18.332189713080648
 20
5.6440330192564536
 30
0.0
 11
19.219346983959721
 21
6.5311902901355259
 31
0.0
  0
LINE
  5
313
  8
0
 62
     0
 10
37.48984845946206
 20
25.699717377744751
 30
0.0
 11
38.689848459462098
 21
26.8997173777448
 31
0.0
  0
LINE
  5
314
  8
0
 62
     0
 10
48.992231726704922
 20
37.20210064498761
 30
0.0
 11
49.872003269244829
 21
38.08187218752753
 31
0.0
  0
LINE
  5
315
  8
0
 62
     0
 10
17.7568499585445
 20
5.9667188768272288
 30
0.0
 11
18.636621501084591
 21
6.8464904193672851
 31
0.0
  0
LINE
  5
316
  8
0
 62
     0
 10
36.591822847355132
 20
25.699717377744779
 30
0.0
 11
37.791822847355149
 21
26.8997173777448
 31
0.0
  0
LINE
  5
317
  8
0
 62
     0
 10
48.662589817233567
 20
37.77048434762321
 30
0.0
 11
49.535868157126743
 21
38.643762687516393
 31
0.0
  0
LINE
  5
318
  8
0
 62
     0
 10
17.194959458555669
 20
6.3028539889453148
 30
0.0
 11
18.06823779844899
 21
7.1761323288386327
 31
0.0
  0
LINE
  5
319
  8
0
 62
     0
 10
35.693797235248212
 20
25.699717377744751
 30
0.0
 11
36.893797235248293
 21
26.899717377744821
 31
0.0
  0
LINE
  5
31A
  8
0
 62
     0
 10
31.375477680461358
 20
21.38139782295789
 30
0.0
 11
34.457324323114364
 21
24.463244465610899
 31
0.0
  0
LINE
  5
31B
  8
0
 62
     0
 10
48.318939580937979
 20
38.324859723434521
 30
0.0
 11
49.186563714010667
 21
39.192483856507209
 31
0.0
  0
LINE
  5
31C
  8
0
 62
     0
 10
16.646238289564881
 20
6.6521584320614124
 30
0.0
 11
17.513862422637679
 21
7.5197825651342214
 31
0.0
  0
LINE
  5
31D
  8
0
 62
     0
 10
34.79577162314132
 20
25.699717377744751
 30
0.0
 11
35.995771623141337
 21
26.899717377744761
 31
0.0
  0
LINE
  5
31E
  8
0
 62
     0
 10
30.185761472957719
 20
21.089707227561149
 30
0.0
 11
34.749014918511108
 21
25.652960673114539
 31
0.0
  0
LINE
  5
31F
  8
0
 62
     0
 10
47.961566796166487
 20
38.865512550769921
 30
0.0
 11
48.824330773798494
 21
39.728276528401921
 31
0.0
  0
LINE
  5
320
  8
0
 62
     0
 10
16.110445617670141
 20
7.0143913722735638
 30
0.0
 11
16.973209595302251
 21
7.877155349905677
 31
0.0
  0
LINE
  5
321
  8
0
 62
     0
 10
33.37952245079137
 20
25.18149381750175
 30
0.0
 11
35.097746011034417
 21
26.8997173777448
 31
0.0
  0
LINE
  5
322
  8
0
 62
     0
 10
29.25541116226691
 20
21.057382528977289
 30
0.0
 11
30.657228328570461
 21
22.45919969528083
 31
0.0
  0
LINE
  5
323
  8
0
 62
     0
 10
47.590713727964271
 20
39.392685094674647
 30
0.0
 11
48.449374182267057
 21
40.25134554897744
 31
0.0
  0
LINE
  5
324
  8
0
 62
     0
 10
15.587376597094639
 20
7.3893479638050223
 30
0.0
 11
16.44603705139755
 21
8.2480084181079292
 31
0.0
  0
LINE
  5
325
  8
0
 62
     0
 10
33.538536812041599
 20
26.23853379085887
 30
0.0
 11
34.677239212750663
 21
27.377236191567931
 31
0.0
  0
LINE
  5
326
  8
0
 62
     0
 10
28.461485954504269
 20
21.16148293332154
 30
0.0
 11
29.600188355213341
 21
22.300185334030601
 31
0.0
  0
LINE
  5
327
  8
0
 62
     0
 10
47.206582513712561
 20
39.906579492529829
 30
0.0
 11
48.061865339178183
 21
40.761862317995451
 31
0.0
  0
LINE
  5
328
  8
0
 62
     0
 10
15.0768598280766
 20
7.7768568068938739
 30
0.0
 11
15.932142653542369
 21
8.6321396323596389
 31
0.0
  0
LINE
  5
329
  8
0
 62
     0
 10
33.465418638339337
 20
27.06344122926356
 30
0.0
 11
34.479009921400859
 21
28.077032512325079
 31
0.0
  0
LINE
  5
32A
  8
0
 62
     0
 10
27.761689633747132
 20
21.359712224671341
 30
0.0
 11
28.775280916808669
 21
22.373303507732889
 31
0.0
  0
LINE
  5
32B
  8
0
 62
     0
 10
46.8093378890403
 20
40.407360479964517
 30
0.0
 11
47.661944258207633
 21
41.259966849131843
 31
0.0
  0
LINE
  5
32C
  8
0
 62
     0
 10
14.578755296940241
 20
8.1767778878644606
 30
0.0
 11
15.431361666107669
 21
9.0293842570318912
 31
0.0
  0
LINE
  5
32D
  8
0
 62
     0
 10
33.263213469660833
 20
27.759261672691942
 30
0.0
 11
34.206739887966108
 21
28.70278809099722
 31
0.0
  0
LINE
  5
32E
  8
0
 62
     0
 10
27.135934055074951
 20
21.631982258106071
 30
0.0
 11
28.079460473380241
 21
22.575508676411349
 31
0.0
  0
LINE
  5
32F
  8
0
 62
     0
 10
46.399109343398628
 20
40.895157546429743
 30
0.0
 11
47.249721204660119
 21
41.745769407691199
 31
0.0
  0
LINE
  5
330
  8
0
 62
     0
 10
14.092952738380889
 20
8.5890009414119959
 30
0.0
 11
14.94356459964246
 21
9.4396128026735653
 31
0.0
  0
LINE
  5
331
  8
0
 62
     0
 10
32.966968878629963
 20
28.361042693767988
 30
0.0
 11
33.871204076000311
 21
29.265277891138339
 31
0.0
  0
LINE
  5
332
  8
0
 62
     0
 10
26.573444254933921
 20
21.96751807007195
 30
0.0
 11
27.477679452304251
 21
22.871753267442269
 31
0.0
  0
LINE
  5
333
  8
0
 62
     0
 10
45.975992773175363
 20
41.370066588313357
 30
0.0
 11
46.825277956931131
 21
42.21935177206916
 31
0.0
  0
LINE
  5
334
  8
0
 62
     0
 10
13.61937037400293
 20
9.0134441891409551
 30
0.0
 11
14.46865555775884
 21
9.8627293728968652
 31
0.0
  0
LINE
  5
335
  8
0
 62
     0
 10
32.592016810746493
 20
28.884116237991432
 30
0.0
 11
33.478220322043292
 21
29.770319749288241
 31
0.0
  0
LINE
  5
336
  8
0
 62
     0
 10
26.06840239678397
 20
22.360501824028908
 30
0.0
 11
26.954605908080769
 21
23.246705335325721
 31
0.0
  0
LINE
  5
337
  8
0
 62
     0
 10
45.54005168268187
 20
41.832151109926833
 30
0.0
 11
46.38866872606004
 21
42.680768153304989
 31
0.0
  0
LINE
  5
338
  8
0
 62
     0
 10
13.157953992767091
 20
9.4500534200120399
 30
0.0
 11
14.00657103614534
 21
10.298670463390289
 31
0.0
  0
LINE
  5
339
  8
0
 62
     0
 10
32.144564718326592
 20
29.334689757678429
 30
0.0
 11
33.030395049844628
 21
30.220520089196469
 31
0.0
  0
LINE
  5
33A
  8
0
 62
     0
 10
25.618202056875731
 20
22.808327096227568
 30
0.0
 11
26.504032388393771
 21
23.694157427745608
 31
0.0
  0
LINE
  5
33B
  8
0
 62
     0
 10
45.09131796862237
 20
42.281443007974211
 30
0.0
 11
45.939920757817411
 21
43.130045797169259
 31
0.0
  0
LINE
  5
33C
  8
0
 62
     0
 10
12.70867634890282
 20
9.8988013882546682
 30
0.0
 11
13.55727913809798
 21
10.74740417744985
 31
0.0
  0
LINE
  5
33D
  8
0
 62
     0
 10
31.624736067122509
 20
29.712886718581299
 30
0.0
 11
32.527781751566692
 21
30.615932403025479
 31
0.0
  0
LINE
  5
33E
  8
0
 62
     0
 10
25.222789743046722
 20
23.310940394505511
 30
0.0
 11
26.125835427490902
 21
24.213986078949691
 31
0.0
  0
LINE
  5
33F
  8
0
 62
     0
 10
44.629792310862911
 20
42.7179429623217
 30
0.0
 11
45.479034633059371
 21
43.56718528451816
 31
0.0
  0
LINE
  5
340
  8
0
 62
     0
 10
12.271536861553921
 20
10.359687513012711
 30
0.0
 11
13.1207791837505
 21
11.20892983520929
 31
0.0
  0
LINE
  5
341
  8
0
 62
     0
 10
31.026624433074321
 20
30.012800696639999
 30
0.0
 11
31.967893739844762
 21
30.95407000341044
 31
0.0
  0
LINE
  5
342
  8
0
 62
     0
 10
24.884652142661761
 20
23.870828406227449
 30
0.0
 11
25.825921449432201
 21
24.812097712997879
 31
0.0
  0
LINE
  5
343
  8
0
 62
     0
 10
44.155444180737447
 20
43.141620444303129
 30
0.0
 11
45.005984274114667
 21
43.992160537680348
 31
0.0
  0
LINE
  5
344
  8
0
 62
     0
 10
11.84656160839171
 20
10.83273787195739
 30
0.0
 11
12.697101701769069
 21
11.683277965334749
 31
0.0
  0
LINE
  5
345
  8
0
 62
     0
 10
30.335427580674551
 20
30.21962945634715
 30
0.0
 11
31.345078969534089
 21
31.229280845206691
 31
0.0
  0
LINE
  5
346
  8
0
 62
     0
 10
24.609441300865509
 20
24.493643176538122
 30
0.0
 11
25.619092689725079
 21
25.503294565397681
 31
0.0
  0
LINE
  5
347
  8
0
 62
     0
 10
43.66821146712666
 20
43.552413342799241
 30
0.0
 11
44.520716657368752
 21
44.404918533041347
 31
0.0
  0
LINE
  5
348
  8
0
 62
     0
 10
11.43380361303076
 20
11.31800548870336
 30
0.0
 11
12.286308803272959
 21
12.170510678945559
 31
0.0
  0
LINE
  5
349
  8
0
 62
     0
 10
29.51743171496318
 20
30.299659202742699
 30
0.0
 11
30.648840945876572
 21
31.431068433656101
 31
0.0
  0
LINE
  5
34A
  8
0
 62
     0
 10
24.407653712416082
 20
25.1898812001956
 30
0.0
 11
25.539062943329469
 21
26.321290431108991
 31
0.0
  0
LINE
  5
34B
  8
0
 62
     0
 10
43.167999709563951
 20
43.95022719734348
 30
0.0
 11
44.023151224615873
 21
44.805378712395402
 31
0.0
  0
LINE
  5
34C
  8
0
 62
     0
 10
11.03334343367672
 20
11.81557092145624
 30
0.0
 11
11.88849494872875
 21
12.670722436508269
 31
0.0
  0
LINE
  5
34D
  8
0
 62
     0
 10
28.475490352322758
 20
30.155743452209212
 30
0.0
 11
29.859662608956342
 21
31.539915708842781
 31
0.0
  0
LINE
  5
34E
  8
0
 62
     0
 10
24.019464277858191
 20
25.69971737774463
 30
0.0
 11
25.682978693862989
 21
27.363231793749438
 31
0.0
  0
LINE
  5
34F
  8
0
 62
     0
 10
42.654680916074959
 20
44.334934015961402
 30
0.0
 11
43.513178977807819
 21
45.193432077694261
 31
0.0
  0
LINE
  5
350
  8
0
 62
     0
 10
10.64529006837782
 20
12.325543168264261
 30
0.0
 11
11.50378813011082
 21
13.184041229997259
 31
0.0
  0
LINE
  5
351
  8
0
 62
     0
 10
24.323659088247581
 20
26.90193780024094
 30
0.0
 11
28.93678434583126
 21
31.515063057824619
 31
0.0
  0
LINE
  5
352
  8
0
 62
     0
 10
23.12143866575121
 20
25.69971737774458
 30
0.0
 11
24.321438665751351
 21
26.899717377744711
 31
0.0
  0
LINE
  5
353
  8
0
 62
     0
 10
42.128091930734563
 20
44.706370642727933
 30
0.0
 11
42.99066123315685
 21
45.568939945150213
 31
0.0
  0
LINE
  5
354
  8
0
 62
     0
 10
10.26978220092186
 20
12.84806091291523
 30
0.0
 11
11.132351503344269
 21
13.71063021533763
 31
0.0
  0
LINE
  5
355
  8
0
 62
     0
 10
24.598029521144159
 20
28.074333845244411
 30
0.0
 11
27.76438830082779
 21
31.240692624928052
 31
0.0
  0
LINE
  5
356
  8
0
 62
     0
 10
22.223413053644268
 20
25.69971737774452
 30
0.0
 11
23.423413053644421
 21
26.899717377744679
 31
0.0
  0
LINE
  5
357
  8
0
 62
     0
 10
41.588032301303031
 20
45.064336625403278
 30
0.0
 11
42.455428000712431
 21
45.931732324812693
 31
0.0
  0
LINE
  5
358
  8
0
 62
     0
 10
9.9069898212593728
 20
13.383294145359621
 30
0.0
 11
10.77438552066894
 21
14.2506898447692
 31
0.0
  0
LINE
  5
359
  8
0
 62
     0
 10
21.32538744153732
 20
25.69971737774452
 30
0.0
 11
22.525387441537472
 21
26.899717377744679
 31
0.0
  0
LINE
  5
35A
  8
0
 62
     0
 10
41.03426157990355
 20
45.408591516110747
 30
0.0
 11
41.907275944002777
 21
46.28160588020998
 31
0.0
  0
LINE
  5
35B
  8
0
 62
     0
 10
9.5571162658620779
 20
13.93144620206928
 30
0.0
 11
10.43013062996144
 21
14.80446056616864
 31
0.0
  0
LINE
  5
35C
  8
0
 62
     0
 10
20.427361829430371
 20
25.69971737774447
 30
0.0
 11
21.62736182943058
 21
26.899717377744679
 31
0.0
  0
LINE
  5
35D
  8
0
 62
     0
 10
40.466495968391662
 20
45.738851516705751
 30
0.0
 11
41.345965860446
 21
46.618321408760089
 31
0.0
  0
LINE
  5
35E
  8
0
 62
     0
 10
9.2204007373119907
 20
14.492756285626079
 30
0.0
 11
10.09987062936645
 21
15.37222617768057
 31
0.0
  0
LINE
  5
35F
  8
0
 62
     0
 10
19.529336217323451
 20
25.699717377744431
 30
0.0
 11
20.72933621732372
 21
26.899717377744711
 31
0.0
  0
LINE
  5
360
  8
0
 62
     0
 10
39.884404193338781
 20
46.054785353759769
 30
0.0
 11
40.771219606135759
 21
46.941600766556739
 31
0.0
  0
LINE
  5
361
  8
0
 62
     0
 10
8.8971213795153101
 20
15.06750253993633
 30
0.0
 11
9.7839367923124314
 21
15.954317952733421
 31
0.0
  0
LINE
  5
362
  8
0
 62
     0
 10
18.63131060521647
 20
25.69971737774441
 30
0.0
 11
19.831310605216771
 21
26.899717377744711
 31
0.0
  0
LINE
  5
363
  8
0
 62
     0
 10
39.287602461370142
 20
46.356009233898078
 30
0.0
 11
40.182716367148657
 21
47.251123139676587
 31
0.0
  0
LINE
  5
364
  8
0
 62
     0
 10
8.5875990063954646
 20
15.656005778923401
 30
0.0
 11
9.4827129121741223
 21
16.55111968470208
 31
0.0
  0
LINE
  5
365
  8
0
 62
     0
 10
17.733284993109521
 20
25.699717377744349
 30
0.0
 11
18.933284993109879
 21
26.899717377744711
 31
0.0
  0
LINE
  5
366
  8
0
 62
     0
 10
38.675648301113313
 20
46.642080685748141
 30
0.0
 11
39.580088152151887
 21
47.546520536786709
 31
0.0
  0
LINE
  5
367
  8
0
 62
     0
 10
8.2922016092853141
 20
16.258633993920171
 30
0.0
 11
9.1966414603240878
 21
17.163073844958909
 31
0.0
  0
LINE
  5
368
  8
0
 62
     0
 10
16.835259381002601
 20
25.699717377744349
 30
0.0
 11
18.035259381002991
 21
26.899717377744739
 31
0.0
  0
LINE
  5
369
  8
0
 62
     0
 10
38.048033039224578
 20
46.912491035966319
 30
0.0
 11
38.962914345675067
 21
47.827372342416822
 31
0.0
  0
LINE
  5
36A
  8
0
 62
     0
 10
8.0113498036552926
 20
16.875807800397041
 30
0.0
 11
8.9262311101059026
 21
17.790689106847651
 31
0.0
  0
LINE
  5
36B
  8
0
 62
     0
 10
15.93723376889562
 20
25.699717377744289
 30
0.0
 11
17.137233768896039
 21
26.899717377744711
 31
0.0
  0
LINE
  5
36C
  8
0
 62
     0
 10
37.404172579092922
 20
47.166656187941577
 30
0.0
 11
38.330715114954643
 21
48.093198723803312
 31
0.0
  0
LINE
  5
36D
  8
0
 62
     0
 10
7.7455234222688034
 20
17.508007031117469
 30
0.0
 11
8.6720659581306432
 21
18.43454956697931
 31
0.0
  0
LINE
  5
36E
  8
0
 62
     0
 10
15.03920815678867
 20
25.699717377744289
 30
0.0
 11
16.239208156789122
 21
26.899717377744739
 31
0.0
  0
LINE
  5
36F
  8
0
 62
     0
 10
36.743396043440363
 20
47.403905264395974
 30
0.0
 11
37.682943401503387
 21
48.343452622459012
 31
0.0
  0
LINE
  5
370
  8
0
 62
     0
 10
7.4952695236130751
 20
18.155778744568689
 30
0.0
 11
8.4348168816762268
 21
19.095326102631841
 31
0.0
  0
LINE
  5
371
  8
0
 62
     0
 10
14.141182544681721
 20
25.699717377744239
 30
0.0
 11
15.341182544682219
 21
26.899717377744739
 31
0.0
  0
LINE
  5
372
  8
0
 62
     0
 10
36.064931693600563
 20
47.623466526663059
 30
0.0
 11
37.01897514535824
 21
48.577509978420721
 31
0.0
  0
LINE
  5
373
  8
0
 62
     0
 10
7.2612121676513084
 20
18.819747000713811
 30
0.0
 11
8.2152556194091346
 21
19.773790452471641
 31
0.0
  0
LINE
  5
374
  8
0
 62
     0
 10
13.24315693257477
 20
25.699717377744179
 30
0.0
 11
14.443156932575331
 21
26.899717377744739
 31
0.0
  0
LINE
  5
375
  8
0
 62
     0
 10
35.367889329743242
 20
47.82444977491263
 30
0.0
 11
36.338097276305007
 21
48.794657721474401
 31
0.0
  0
LINE
  5
376
  8
0
 62
     0
 10
7.0440644245976776
 20
19.50062486976708
 30
0.0
 11
8.014272371159592
 21
20.47083281632899
 31
0.0
  0
LINE
  5
377
  8
0
 62
     0
 10
12.34513132046783
 20
25.699717377744179
 30
0.0
 11
13.545131320468411
 21
26.899717377744761
 31
0.0
  0
LINE
  5
378
  8
0
 62
     0
 10
34.651238078337741
 20
48.005824135614091
 30
0.0
 11
35.639492848824091
 21
48.994078906100441
 31
0.0
  0
LINE
  5
379
  8
0
 62
     0
 10
6.8446432399716448
 20
20.199229297247999
 30
0.0
 11
7.8328980104581367
 21
21.187484067734491
 31
0.0
  0
LINE
  5
37A
  8
0
 62
     0
 10
11.44710570836088
 20
25.699717377744118
 30
0.0
 11
12.64710570836149
 21
26.899717377744739
 31
0.0
  0
LINE
  5
37B
  8
0
 62
     0
 10
33.913778039280039
 20
48.166389708663267
 30
0.0
 11
34.922222475623073
 21
49.174834145006308
 31
0.0
  0
LINE
  5
37C
  8
0
 62
     0
 10
6.6638880010657706
 20
20.91649967044901
 30
0.0
 11
7.672332437408925
 21
21.924944106792172
 31
0.0
  0
LINE
  5
37D
  8
0
 62
     0
 10
10.549080096253959
 20
25.699717377744118
 30
0.0
 11
11.7490800962546
 21
26.899717377744761
 31
0.0
  0
LINE
  5
37E
  8
0
 62
     0
 10
33.154103620235112
 20
48.30474090172526
 30
0.0
 11
34.185200896771789
 21
49.335838178261952
 31
0.0
  0
LINE
  5
37F
  8
0
 62
     0
 10
6.5028839678101633
 20
21.653521249300319
 30
0.0
 11
7.5339812443469611
 21
22.684618525837148
 31
0.0
  0
LINE
  5
380
  8
0
 62
     0
 10
9.6510544841470107
 20
25.69971737774409
 30
0.0
 11
10.85105448414768
 21
26.899717377744761
 31
0.0
  0
LINE
  5
381
  8
0
 62
     0
 10
32.370555405087572
 20
48.419218298684648
 30
0.0
 11
33.427167057506438
 21
49.47582995110352
 31
0.0
  0
LINE
  5
382
  8
0
 62
     0
 10
6.3628921949685662
 20
22.411555088565649
 30
0.0
 11
7.4195038473875448
 21
23.468166740984628
 31
0.0
  0
LINE
  5
383
  8
0
 62
     0
 10
8.7530288720400335
 20
25.69971737774404
 30
0.0
 11
9.9530288720407896
 21
26.8997173777448
 31
0.0
  0
LINE
  5
384
  8
0
 62
     0
 10
31.561155873394881
 20
48.507844379098863
 30
0.0
 11
32.64664537637907
 21
49.593333882083073
 31
0.0
  0
LINE
  5
385
  8
0
 62
     0
 10
6.2453882639890699
 20
23.19207676969307
 30
0.0
 11
7.330877766973372
 21
24.27756627267738
 31
0.0
  0
LINE
  5
386
  8
0
 62
     0
 10
7.8550032599330839
 20
25.699717377744012
 30
0.0
 11
9.0550032599338692
 21
26.8997173777448
 31
0.0
  0
LINE
  5
387
  8
0
 62
     0
 10
30.723521830537749
 20
48.568235948348672
 30
0.0
 11
31.841894831047309
 21
49.686608948858229
 31
0.0
  0
LINE
  5
388
  8
0
 62
     0
 10
6.1521131972138496
 20
23.996827315024781
 30
0.0
 11
7.2704861977235558
 21
25.11520031553448
 31
0.0
  0
LINE
  5
389
  8
0
 62
     0
 10
29.854742329349591
 20
48.597482059267378
 30
0.0
 11
31.010840838815369
 21
49.753580568733177
 31
0.0
  0
LINE
  5
38A
  8
0
 62
     0
 10
6.0851415773389022
 20
24.827881307256721
 30
0.0
 11
8.1569776478269471
 21
26.8997173777448
 31
0.0
  0
LINE
  5
38B
  8
0
 62
     0
 10
28.951203829938269
 20
48.591969171963029
 30
0.0
 11
30.15098224944558
 21
49.79174759147034
 31
0.0
  0
LINE
  5
38C
  8
0
 62
     0
 10
6.0469745546017171
 20
25.687739896626478
 30
0.0
 11
7.2589520357200277
 21
26.8997173777448
 31
0.0
  0
LINE
  5
38D
  8
0
 62
     0
 10
28.008331662013489
 20
48.547122616145153
 30
0.0
 11
29.25926133508176
 21
49.798052289213423
 31
0.0
  0
LINE
  5
38E
  8
0
 62
     0
 10
6.0406698568586421
 20
26.579460810990302
 30
0.0
 11
7.2915995299270833
 21
27.830390484058739
 31
0.0
  0
LINE
  5
38F
  8
0
 62
     0
 10
27.0201927492027
 20
48.45700931544124
 30
0.0
 11
28.33187698236523
 21
49.768693548603778
 31
0.0
  0
LINE
  5
390
  8
0
 62
     0
 10
6.0700285974683084
 20
27.50684516370686
 30
0.0
 11
7.3817128306309883
 21
28.81852939686954
 31
0.0
  0
LINE
  5
391
  8
0
 62
     0
 10
25.978855730629309
 20
48.313697908974802
 30
0.0
 11
27.364007369529219
 21
49.698849547874708
 31
0.0
  0
LINE
  5
392
  8
0
 62
     0
 10
6.1398725981973143
 20
28.474714776542811
 30
0.0
 11
7.5250242370974538
 21
29.859866415442951
 31
0.0
  0
LINE
  5
393
  8
0
 62
     0
 10
24.873297649253828
 20
48.106165439706238
 30
0.0
 11
26.34938177720937
 21
49.58224956766179
 31
0.0
  0
LINE
  5
394
  8
0
 62
     0
 10
6.2564725784103237
 20
29.489340368862742
 30
0.0
 11
7.7325567063660108
 21
30.965424496818429
 31
0.0
  0
LINE
  5
395
  8
0
 62
     0
 10
23.687387473623769
 20
47.818280876183081
 30
0.0
 11
25.279586806000911
 21
49.410480208560223
 31
0.0
  0
LINE
  5
396
  8
0
 62
     0
 10
6.4282419375118991
 20
30.559135340071212
 30
0.0
 11
8.0204412698891474
 21
32.151334672448463
 31
0.0
  0
LINE
  5
397
  8
0
 62
     0
 10
22.395761788705581
 20
47.424680803371807
 30
0.0
 11
24.142871962629069
 21
49.171790977295302
 31
0.0
  0
LINE
  5
398
  8
0
 62
     0
 10
6.6669311687767836
 20
31.695850183443021
 30
0.0
 11
8.4140413427004432
 21
33.442960357366672
 31
0.0
  0
LINE
  5
399
  8
0
 62
     0
 10
20.954032428939229
 20
46.8809770557124
 30
0.0
 11
22.921924629355171
 21
48.848869256128353
 31
0.0
  0
LINE
  5
39A
  8
0
 62
     0
 10
6.9898528899437329
 20
32.916797516716912
 30
0.0
 11
8.9577450903598201
 21
34.884689717133
 31
0.0
  0
LINE
  5
39B
  8
0
 62
     0
 10
19.269239158699321
 20
46.094209397579391
 30
0.0
 11
21.589255730007238
 21
48.414225968887308
 31
0.0
  0
LINE
  5
39C
  8
0
 62
     0
 10
7.4244961771847491
 20
34.24946641606482
 30
0.0
 11
9.7445127484928378
 21
36.569482987372908
 31
0.0
  0
LINE
  5
39D
  8
0
 62
     0
 10
17.054403505555818
 20
44.777399356542787
 30
0.0
 11
20.09601303945476
 21
47.819008890441722
 31
0.0
  0
LINE
  5
39E
  8
0
 62
     0
 10
8.0197132556303359
 20
35.742709106617298
 30
0.0
 11
11.06132278952941
 21
38.784318640516382
 31
0.0
  0
LINE
  5
39F
  8
0
 62
     0
 10
8.8807238692930923
 20
37.50174533238701
 30
0.0
 11
18.336976813685052
 21
46.957998276778959
 31
0.0
  0
LINE
  5
3A0
  8
0
 62
     0
 10
10.35843061087769
 20
39.877477686078493
 30
0.0
 11
15.96124445999356
 21
45.480291535194361
 31
0.0
  0
ENDBLK
  5
3A2
  8
0
  0
BLOCK
  8
0
  2
*U3
 70
     1
 10
0.0
 20
0.0
 30
0.0
  3
*U3
  1

  0
LINE
  5
3A4
  8
0
 10
7.2470779785679724
 20
25.699717377744012
 30
0.0
 11
24.323403173113409
 21
25.69971737774463
 31
0.0
  0
ARC
  5
3A5
  8
0
 10
29.539004768327519
 20
26.299717377744741
 30
0.0
 40
5.2500000000000089
 50
186.5624278686353
 51
353.43757213136621
  0
LINE
  5
3A6
  8
0
 10
34.754606363541662
 20
25.699717377744779
 30
0.0
 11
51.830931558087052
 21
25.699717377744719
 31
0.0
  0
ARC
  5
3A7
  8
0
 10
29.539004768327519
 20
26.29971737774472
 30
0.0
 40
22.300000000000001
 50
181.5417765397647
 51
358.45822346023709
  0
CIRCLE
  5
3A8
  8
0
 10
29.539004768327519
 20
26.29971737774472
 30
0.0
 40
4.0
  0
LINE
  5
3A9
  8
0
 10
51.830931558087052
 20
26.8997173777448
 30
0.0
 11
34.754606363541598
 21
26.8997173777448
 31
0.0
  0
ARC
  5
3AA
  8
0
 10
29.539004768327519
 20
26.29971737774472
 30
0.0
 40
5.2499999999999778
 50
6.5624278686350488
 51
173.43757213136499
  0
LINE
  5
3AB
  8
0
 10
24.323403173113409
 20
26.899717377744711
 30
0.0
 11
7.2470779785679724
 21
26.8997173777448
 31
0.0
  0
ARC
  5
3AC
  8
0
 10
29.539004768327519
 20
26.299717377744741
 30
0.0
 40
22.299999999999979
 50
1.541776539762806
 51
178.45822346023681
  0
CIRCLE
  5
3AD
  8
0
 10
29.539004768327519
 20
26.299717377744599
 30
0.0
 40
23.499999999999989
  0
ENDBLK
  5
3AF
  8
0
  0
ENDSEC
  0
SECTION
  2
ENTITIES
  0
LINE
  5
26C
  8
0
 10
2878.9199454271711
 20
1753.3183470102119
 30
0.0
 11
2895.9962706217161
 21
1753.3183470102131
 31
0.0
  0
ARC
  5
26D
  8
0
 10
2901.2118722169298
 20
1753.918347010213
 30
0.0
 40
5.2500000000000089
 50
186.5624278686353
 51
353.43757213136621
  0
LINE
  5
26E
  8
0
 10
2906.4274738121439
 20
1753.3183470102131
 30
0.0
 11
2923.5037990066899
 21
1753.3183470102131
 31
0.0
  0
ARC
  5
26F
  8
0
 10
2901.2118722169298
 20
1753.918347010213
 30
0.0
 40
22.300000000000001
 50
181.5417765397647
 51
358.45822346023709
  0
CIRCLE
  5
270
  8
0
 10
2901.2118722169298
 20
1753.918347010213
 30
0.0
 40
4.0
  0
LINE
  5
271
  8
0
 10
2923.5037990066899
 20
1754.5183470102129
 30
0.0
 11
2906.4274738121439
 21
1754.5183470102129
 31
0.0
  0
ARC
  5
272
  8
0
 10
2901.2118722169298
 20
1753.918347010213
 30
0.0
 40
5.2499999999999778
 50
6.5624278686350488
 51
173.43757213136499
  0
LINE
  5
273
  8
0
 10
2895.9962706217161
 20
1754.5183470102129
 30
0.0
 11
2878.9199454271711
 21
1754.5183470102129
 31
0.0
  0
ARC
  5
274
  8
0
 10
2901.2118722169298
 20
1753.918347010213
 30
0.0
 40
22.299999999999979
 50
1.541776539762806
 51
178.45822346023681
  0
CIRCLE
  5
275
  8
0
 10
2901.2118722169298
 20
1753.918347010213
 30
0.0
 40
23.499999999999989
  0
ENDSEC
  0
EOF
