  0
SECTION
  2
HEADER
  9
$ACADVER
  1
AC1009
  9
$INSBASE
 10
0.0
 20
0.0
 30
0.0
  9
$EXTMIN
 10
2074.5867312567862
 20
1987.068411699446
 30
0.0
  9
$EXTMAX
 10
2203.4644411370432
 20
2055.5529278085501
 30
0.0
  9
$LIMMIN
 10
0.0
 20
0.0
  9
$LIMMAX
 10
420.0
 20
297.0
  9
$ORTHOMODE
 70
     0
  9
$REGENMODE
 70
     1
  9
$FILLMODE
 70
     1
  9
$QTEXTMODE
 70
     0
  9
$MIRRTEXT
 70
     0
  9
$DRAGMODE
 70
     2
  9
$LTSCALE
 40
1.0
  9
$OSMODE
 70
  4095
  9
$ATTMODE
 70
     1
  9
$TEXTSIZE
 40
2.5
  9
$TRACEWID
 40
1.0
  9
$TEXTSTYLE
  7
STANDARD
  9
$CLAYER
  8
0
  9
$CELTYPE
  6
BYLAYER
  9
$CECOLOR
 62
   256
  9
$DIMSCALE
 40
1.0
  9
$DIMASZ
 40
2.5
  9
$DIMEXO
 40
0.625
  9
$DIMDLI
 40
3.75
  9
$DIMRND
 40
0.0
  9
$DIMDLE
 40
0.0
  9
$DIMEXE
 40
1.25
  9
$DIMTP
 40
0.0
  9
$DIMTM
 40
0.0
  9
$DIMTXT
 40
2.5
  9
$DIMCEN
 40
2.5
  9
$DIMTSZ
 40
0.0
  9
$DIMTOL
 70
     0
  9
$DIMLIM
 70
     0
  9
$DIMTIH
 70
     0
  9
$DIMTOH
 70
     0
  9
$DIMSE1
 70
     0
  9
$DIMSE2
 70
     0
  9
$DIMTAD
 70
     1
  9
$DIMZIN
 70
     8
  9
$DIMBLK
  1

  9
$DIMASO
 70
     1
  9
$DIMSHO
 70
     1
  9
$DIMPOST
  1

  9
$DIMAPOST
  1

  9
$DIMALT
 70
     0
  9
$DIMALTD
 70
     3
  9
$DIMALTF
 40
0.03937007874016
  9
$DIMLFAC
 40
1.0
  9
$DIMTOFL
 70
     1
  9
$DIMTVP
 40
0.0
  9
$DIMTIX
 70
     0
  9
$DIMSOXD
 70
     0
  9
$DIMSAH
 70
     0
  9
$DIMBLK1
  1

  9
$DIMBLK2
  1

  9
$DIMSTYLE
  2
ISO-25
  9
$DIMCLRD
 70
     0
  9
$DIMCLRE
 70
     0
  9
$DIMCLRT
 70
     0
  9
$DIMTFAC
 40
1.0
  9
$DIMGAP
 40
0.625
  9
$LUNITS
 70
     2
  9
$LUPREC
 70
     4
  9
$SKETCHINC
 40
1.0
  9
$FILLETRAD
 40
0.0
  9
$AUNITS
 70
     0
  9
$AUPREC
 70
     0
  9
$MENU
  1
.
  9
$ELEVATION
 40
0.0
  9
$PELEVATION
 40
0.0
  9
$THICKNESS
 40
0.0
  9
$LIMCHECK
 70
     0
  9
$BLIPMODE
 70
     0
  9
$CHAMFERA
 40
0.0
  9
$CHAMFERB
 40
0.0
  9
$SKPOLY
 70
     0
  9
$TDCREATE
 40
2457739.4181072111
  9
$TDUPDATE
 40
2457739.4182408801
  9
$TDINDWG
 40
0.0001345486
  9
$TDUSRTIMER
 40
0.000134537
  9
$USRTIMER
 70
     1
  9
$ANGBASE
 50
0.0
  9
$ANGDIR
 70
     0
  9
$PDMODE
 70
     0
  9
$PDSIZE
 40
0.0
  9
$PLINEWID
 40
0.0
  9
$COORDS
 70
     1
  9
$SPLFRAME
 70
     0
  9
$SPLINETYPE
 70
     6
  9
$SPLINESEGS
 70
     8
  9
$ATTDIA
 70
     1
  9
$ATTREQ
 70
     1
  9
$HANDLING
 70
     1
  9
$HANDSEED
  5
44F
  9
$SURFTAB1
 70
     6
  9
$SURFTAB2
 70
     6
  9
$SURFTYPE
 70
     6
  9
$SURFU
 70
     6
  9
$SURFV
 70
     6
  9
$UCSNAME
  2

  9
$UCSORG
 10
0.0
 20
0.0
 30
0.0
  9
$UCSXDIR
 10
1.0
 20
0.0
 30
0.0
  9
$UCSYDIR
 10
0.0
 20
1.0
 30
0.0
  9
$PUCSNAME
  2

  9
$PUCSORG
 10
0.0
 20
0.0
 30
0.0
  9
$PUCSXDIR
 10
1.0
 20
0.0
 30
0.0
  9
$PUCSYDIR
 10
0.0
 20
1.0
 30
0.0
  9
$USERI1
 70
     0
  9
$USERI2
 70
     0
  9
$USERI3
 70
     0
  9
$USERI4
 70
     0
  9
$USERI5
 70
     0
  9
$USERR1
 40
0.0
  9
$USERR2
 40
0.0
  9
$USERR3
 40
0.0
  9
$USERR4
 40
0.0
  9
$USERR5
 40
0.0
  9
$WORLDVIEW
 70
     1
  9
$SHADEDGE
 70
     3
  9
$SHADEDIF
 70
    70
  9
$TILEMODE
 70
     1
  9
$MAXACTVP
 70
    64
  9
$PLIMCHECK
 70
     0
  9
$PEXTMIN
 10
0.0
 20
0.0
 30
0.0
  9
$PEXTMAX
 10
0.0
 20
0.0
 30
0.0
  9
$PLIMMIN
 10
0.0
 20
0.0
  9
$PLIMMAX
 10
12.0
 20
9.0
  9
$UNITMODE
 70
     0
  9
$VISRETAIN
 70
     1
  9
$PLINEGEN
 70
     0
  9
$PSLTSCALE
 70
     1
  0
ENDSEC
  0
SECTION
  2
TABLES
  0
TABLE
  2
VPORT
 70
     1
  0
VPORT
  2
*ACTIVE
 70
     0
 10
0.0
 20
0.0
 11
1.0
 21
1.0
 12
2139.0255861969149
 22
2021.3106697539979
 13
0.0
 23
0.0
 14
10.0
 24
10.0
 15
10.0
 25
10.0
 16
0.0
 26
0.0
 36
1.0
 17
0.0
 27
0.0
 37
0.0
 40
68.993694667535692
 41
2.1848635235731999
 42
50.0
 43
0.0
 44
0.0
 50
0.0
 51
0.0
 71
     0
 72
  1000
 73
     1
 74
     3
 75
     0
 76
     1
 77
     0
 78
     0
  0
ENDTAB
  0
TABLE
  2
LTYPE
 70
     1
  0
LTYPE
  2
CONTINUOUS
 70
     0
  3
Solid line
 72
    65
 73
     0
 40
0.0
  0
ENDTAB
  0
TABLE
  2
LAYER
 70
     1
  0
LAYER
  2
0
 70
     0
 62
     7
  6
CONTINUOUS
  0
ENDTAB
  0
TABLE
  2
STYLE
 70
     3
  0
STYLE
  2
STANDARD
 70
     0
 40
0.0
 41
1.0
 50
0.0
 71
     0
 42
2.5
  3
txt
  4

  0
STYLE
  2
ANNOTATIVE
 70
     0
 40
0.0
 41
1.0
 50
0.0
 71
     0
 42
2.5
  3
txt
  4

  0
STYLE
  2
ROMANT
 70
     0
 40
2.2999999999999989
 41
1.0
 50
15.0
 71
     0
 42
2.5
  3
romant.shx
  4

  0
ENDTAB
  0
TABLE
  2
VIEW
 70
     1
  0
ENDTAB
  0
TABLE
  2
UCS
 70
     0
  0
ENDTAB
  0
TABLE
  2
APPID
 70
    10
  0
APPID
  2
ACAD
 70
     0
  0
APPID
  2
ACAD_PSEXT
 70
     0
  0
APPID
  2
ACADANNOPO
 70
     0
  0
APPID
  2
ACADANNOTATIVE
 70
     0
  0
APPID
  2
ACAD_DSTYLE_DIMJAG
 70
     0
  0
APPID
  2
ACAD_DSTYLE_DIMTALN
 70
     0
  0
APPID
  2
ACAD_MLEADERVER
 70
     0
  0
APPID
  2
ACAD_NAV_VCDISPLAY
 70
     0
  0
APPID
  2
GRADIENTCOLOR1ACI
 70
     0
  0
APPID
  2
GRADIENTCOLOR2ACI
 70
     0
  0
ENDTAB
  0
TABLE
  2
DIMSTYLE
 70
     5
  0
DIMSTYLE
  2
STANDARD
 70
     0
  3

  4

  5

  6

  7

 40
1.0
 41
0.18
 42
0.0625
 43
0.38
 44
0.18
 45
0.0
 46
0.0
 47
0.0
 48
0.0
140
0.18
141
0.09
142
0.0
143
25.399999999999999
144
1.0
145
0.0
146
1.0
147
0.09
 71
     0
 72
     0
 73
     1
 74
     1
 75
     0
 76
     0
 77
     0
 78
     0
170
     0
171
     2
172
     0
173
     0
174
     0
175
     0
176
     0
177
     0
178
     0
  0
DIMSTYLE
  2
ANNOTATIVE
 70
     0
  3

  4

  5

  6

  7

 40
0.0
 41
2.5
 42
0.625
 43
3.75
 44
1.25
 45
0.0
 46
0.0
 47
0.0
 48
0.0
140
2.5
141
2.5
142
0.0
143
0.03937007874016
144
1.0
145
0.0
146
1.0
147
0.625
 71
     0
 72
     0
 73
     0
 74
     0
 75
     0
 76
     0
 77
     1
 78
     8
170
     0
171
     3
172
     1
173
     0
174
     0
175
     0
176
     0
177
     0
178
     0
  0
DIMSTYLE
  2
ISO-25
 70
     0
  3

  4

  5

  6

  7

 40
1.0
 41
2.5
 42
0.625
 43
3.75
 44
1.25
 45
0.0
 46
0.0
 47
0.0
 48
0.0
140
2.5
141
2.5
142
0.0
143
0.03937007874016
144
1.0
145
0.0
146
1.0
147
0.625
 71
     0
 72
     0
 73
     0
 74
     0
 75
     0
 76
     0
 77
     1
 78
     8
170
     0
171
     3
172
     1
173
     0
174
     0
175
     0
176
     0
177
     0
178
     0
  0
DIMSTYLE
  2
MELÝH_A4
 70
     0
  3

  4

  5

  6

  7

 40
1.0
 41
1.5
 42
0.0
 43
3.75
 44
0.5
 45
0.0
 46
0.0
 47
0.0
 48
0.0
140
2.2999999999999989
141
0.2
142
0.0
143
0.03937007874016
144
1.0
145
0.0
146
1.0
147
0.4
 71
     0
 72
     0
 73
     0
 74
     0
 75
     0
 76
     0
 77
     1
 78
     8
170
     0
171
     3
172
     0
173
     0
174
     0
175
     0
176
   242
177
   242
178
   242
  0
DIMSTYLE
  2
MELÝH_A3
 70
     0
  3

  4

  5

  6

  7

 40
1.0
 41
1.3
 42
0.0
 43
3.75
 44
0.2
 45
0.0
 46
0.0
 47
0.0
 48
0.0
140
1.0
141
0.2
142
0.0
143
0.03937007874016
144
1.0
145
0.0
146
1.0
147
0.7
 71
     0
 72
     0
 73
     0
 74
     0
 75
     0
 76
     0
 77
     1
 78
     8
170
     0
171
     3
172
     0
173
     0
174
     0
175
     0
176
   242
177
   242
178
   242
  0
ENDTAB
  0
ENDSEC
  0
SECTION
  2
BLOCKS
  0
BLOCK
  8
0
  2
$MODEL_SPACE
 70
     0
 10
0.0
 20
0.0
 30
0.0
  3
$MODEL_SPACE
  1

  0
ENDBLK
  5
21
  8
0
  0
BLOCK
 67
     1
  8
0
  2
$PAPER_SPACE
 70
     0
 10
0.0
 20
0.0
 30
0.0
  3
$PAPER_SPACE
  1

  0
ENDBLK
  5
D5
 67
     1
  8
0
  0
BLOCK
  8
0
  2
*X2
 70
     1
 10
0.0
 20
0.0
 30
0.0
  3
*X2
  1

  0
LINE
  5
2EB
  8
0
 62
     0
 10
99.027885863909717
 20
16.94803562572724
 30
0.0
 11
101.2431590164496
 21
19.163308778267151
 31
0.0
  0
LINE
  5
2EC
  8
0
 62
     0
 10
97.950786833905738
 20
16.76896220783021
 30
0.0
 11
101.4222324343466
 21
20.240407808271129
 31
0.0
  0
LINE
  5
2ED
  8
0
 62
     0
 10
97.052645681503691
 20
16.768846667534941
 30
0.0
 11
101.4223479746417
 21
21.13854896067301
 31
0.0
  0
LINE
  5
2EE
  8
0
 62
     0
 10
96.154620069396742
 20
16.768846667535058
 30
0.0
 11
101.4223479746417
 21
22.036574572780069
 31
0.0
  0
LINE
  5
2EF
  8
0
 62
     0
 10
95.256594457289907
 20
16.768846667535058
 30
0.0
 11
101.4223479746417
 21
22.934600184886911
 31
0.0
  0
LINE
  5
2F0
  8
0
 62
     0
 10
98.422347974641809
 20
20.83262579699397
 30
0.0
 11
101.4223479746418
 21
23.83262579699397
 31
0.0
  0
LINE
  5
2F1
  8
0
 62
     0
 10
94.358568845182901
 20
16.768846667535058
 30
0.0
 11
97.358568845182916
 21
19.768846667535058
 31
0.0
  0
LINE
  5
2F2
  8
0
 62
     0
 10
98.422347974641809
 20
21.730651409100801
 30
0.0
 11
101.4223479746417
 21
24.730651409100801
 31
0.0
  0
LINE
  5
2F3
  8
0
 62
     0
 10
93.460543233075967
 20
16.768846667534941
 30
0.0
 11
96.460543233075953
 21
19.768846667534941
 31
0.0
  0
LINE
  5
2F4
  8
0
 62
     0
 10
98.422347974641809
 20
22.62867702120786
 30
0.0
 11
101.4223479746418
 21
25.62867702120775
 31
0.0
  0
LINE
  5
2F5
  8
0
 62
     0
 10
92.562517620969004
 20
16.768846667535058
 30
0.0
 11
95.562517620969004
 21
19.768846667534941
 31
0.0
  0
LINE
  5
2F6
  8
0
 62
     0
 10
98.422347974641809
 20
23.526702633314699
 30
0.0
 11
101.4223479746418
 21
26.526702633314699
 31
0.0
  0
LINE
  5
2F7
  8
0
 62
     0
 10
91.664492008862169
 20
16.768846667535058
 30
0.0
 11
94.664492008862055
 21
19.768846667534941
 31
0.0
  0
LINE
  5
2F8
  8
0
 62
     0
 10
98.422347974641866
 20
24.424728245421541
 30
0.0
 11
101.4223479746418
 21
27.42472824542153
 31
0.0
  0
LINE
  5
2F9
  8
0
 62
     0
 10
90.766466396755277
 20
16.768846667534941
 30
0.0
 11
93.766466396755163
 21
19.768846667534941
 31
0.0
  0
LINE
  5
2FA
  8
0
 62
     0
 10
89.868440784648314
 20
16.768846667535058
 30
0.0
 11
92.868440784648328
 21
19.768846667535058
 31
0.0
  0
LINE
  5
2FB
  8
0
 62
     0
 10
98.422347974641866
 20
25.3227538575286
 30
0.0
 11
101.4223479746417
 21
28.3227538575286
 31
0.0
  0
LINE
  5
2FC
  8
0
 62
     0
 10
86.868440784648328
 20
13.76884666753506
 30
0.0
 11
87.422347974641866
 21
14.322753857528591
 31
0.0
  0
LINE
  5
2FD
  8
0
 62
     0
 10
88.970415172541365
 20
16.768846667534941
 30
0.0
 11
91.970415172541379
 21
19.768846667534941
 31
0.0
  0
LINE
  5
2FE
  8
0
 62
     0
 10
98.422347974641866
 20
26.220779469635431
 30
0.0
 11
101.4223479746417
 21
29.220779469635321
 31
0.0
  0
LINE
  5
2FF
  8
0
 62
     0
 10
85.970415172541394
 20
13.768846667534939
 30
0.0
 11
87.422347974641866
 21
15.220779469635429
 31
0.0
  0
LINE
  5
300
  8
0
 62
     0
 10
88.072389560434473
 20
16.768846667535168
 30
0.0
 11
91.072389560434488
 21
19.768846667535058
 31
0.0
  0
LINE
  5
301
  8
0
 62
     0
 10
98.422347974641809
 20
27.118805081742501
 30
0.0
 11
101.4223479746418
 21
30.11880508174238
 31
0.0
  0
LINE
  5
302
  8
0
 62
     0
 10
85.072389560434488
 20
13.76884666753506
 30
0.0
 11
87.422347974641809
 21
16.11880508174249
 31
0.0
  0
LINE
  5
303
  8
0
 62
     0
 10
98.422347974641809
 20
28.016830693849212
 30
0.0
 11
101.4223479746418
 21
31.016830693849219
 31
0.0
  0
LINE
  5
304
  8
0
 62
     0
 10
84.174363948327525
 20
13.76884666753506
 30
0.0
 11
90.174363948327539
 21
19.768846667534941
 31
0.0
  0
LINE
  5
305
  8
0
 62
     0
 10
98.422347974641809
 20
28.91485630595616
 30
0.0
 11
101.4223479746418
 21
31.914856305956171
 31
0.0
  0
LINE
  5
306
  8
0
 62
     0
 10
123.11490301358199
 20
53.607411344896377
 30
0.0
 11
123.3837832972804
 21
53.876291628594799
 31
0.0
  0
LINE
  5
307
  8
0
 62
     0
 10
83.276338336220704
 20
13.76884666753506
 30
0.0
 11
89.276338336220576
 21
19.768846667535058
 31
0.0
  0
LINE
  5
308
  8
0
 62
     0
 10
98.422347974641809
 20
29.812881918063109
 30
0.0
 11
101.4223479746418
 21
32.812881918063113
 31
0.0
  0
LINE
  5
309
  8
0
 62
     0
 10
122.17831272411379
 20
53.568846667535119
 30
0.0
 11
123.4223479746417
 21
54.812881918063113
 31
0.0
  0
LINE
  5
30A
  8
0
 62
     0
 10
82.378312724113755
 20
13.76884666753506
 30
0.0
 11
88.378312724113755
 21
19.768846667535058
 31
0.0
  0
LINE
  5
30B
  8
0
 62
     0
 10
98.422347974641866
 20
30.710907530169951
 30
0.0
 11
101.4223479746418
 21
33.710907530169948
 31
0.0
  0
LINE
  5
30C
  8
0
 62
     0
 10
121.2802871120069
 20
53.568846667535013
 30
0.0
 11
123.4223479746418
 21
55.710907530169948
 31
0.0
  0
LINE
  5
30D
  8
0
 62
     0
 10
81.480287112006749
 20
13.768846667534939
 30
0.0
 11
87.480287112006863
 21
19.768846667534941
 31
0.0
  0
LINE
  5
30E
  8
0
 62
     0
 10
98.422347974641752
 20
31.60893314227701
 30
0.0
 11
101.4223479746418
 21
34.60893314227701
 31
0.0
  0
LINE
  5
30F
  8
0
 62
     0
 10
120.3822614998999
 20
53.568846667535013
 30
0.0
 11
123.2552895367109
 21
56.441874704346098
 31
0.0
  0
LINE
  5
310
  8
0
 62
     0
 10
80.582261499899914
 20
13.76884666753506
 30
0.0
 11
86.582261499899914
 21
19.768846667535058
 31
0.0
  0
LINE
  5
311
  8
0
 62
     0
 10
98.422347974641752
 20
32.506958754383732
 30
0.0
 11
101.4223479746417
 21
35.506958754383852
 31
0.0
  0
LINE
  5
312
  8
0
 62
     0
 10
119.48423588779291
 20
53.568846667535013
 30
0.0
 11
122.48423588779301
 21
56.568846667535013
 31
0.0
  0
LINE
  5
313
  8
0
 62
     0
 10
79.684235887792966
 20
13.76884666753506
 30
0.0
 11
85.684235887792966
 21
19.768846667534941
 31
0.0
  0
LINE
  5
314
  8
0
 62
     0
 10
98.422347974641752
 20
33.40498436649068
 30
0.0
 11
101.4223479746417
 21
36.40498436649068
 31
0.0
  0
LINE
  5
315
  8
0
 62
     0
 10
118.586210275686
 20
53.568846667535013
 30
0.0
 11
121.5862102756861
 21
56.568846667535013
 31
0.0
  0
LINE
  5
316
  8
0
 62
     0
 10
78.786210275686017
 20
13.768846667534939
 30
0.0
 11
84.786210275686017
 21
19.768846667535058
 31
0.0
  0
LINE
  5
317
  8
0
 62
     0
 10
98.422347974641866
 20
34.303009978597629
 30
0.0
 11
101.4223479746418
 21
37.303009978597629
 31
0.0
  0
LINE
  5
318
  8
0
 62
     0
 10
117.68818466357919
 20
53.568846667535013
 30
0.0
 11
120.68818466357909
 21
56.568846667534899
 31
0.0
  0
LINE
  5
319
  8
0
 62
     0
 10
77.88927939309724
 20
13.769941397053
 30
0.0
 11
83.888184663579295
 21
19.768846667535058
 31
0.0
  0
LINE
  5
31A
  8
0
 62
     0
 10
98.422347974641752
 20
35.201035590704578
 30
0.0
 11
101.4223479746417
 21
38.201035590704578
 31
0.0
  0
LINE
  5
31B
  8
0
 62
     0
 10
116.7901590514723
 20
53.568846667535119
 30
0.0
 11
119.7901590514721
 21
56.568846667534899
 31
0.0
  0
LINE
  5
31C
  8
0
 62
     0
 10
77.426426452763621
 20
14.20511406882645
 30
0.0
 11
82.990159051472006
 21
19.768846667534941
 31
0.0
  0
LINE
  5
31D
  8
0
 62
     0
 10
98.422347974641752
 20
36.099061202811527
 30
0.0
 11
101.4223479746418
 21
39.099061202811527
 31
0.0
  0
LINE
  5
31E
  8
0
 62
     0
 10
115.8921334393653
 20
53.568846667535013
 30
0.0
 11
118.8921334393653
 21
56.568846667535119
 31
0.0
  0
LINE
  5
31F
  8
0
 62
     0
 10
77.422347974641752
 20
15.099061202811409
 30
0.0
 11
82.092133439365284
 21
19.768846667534941
 31
0.0
  0
LINE
  5
320
  8
0
 62
     0
 10
98.422347974641752
 20
36.997086814918248
 30
0.0
 11
101.4223479746417
 21
39.997086814918362
 31
0.0
  0
LINE
  5
321
  8
0
 62
     0
 10
114.9941078272584
 20
53.568846667535013
 30
0.0
 11
117.9941078272585
 21
56.568846667535013
 31
0.0
  0
LINE
  5
322
  8
0
 62
     0
 10
77.422347974641752
 20
15.99708681491825
 30
0.0
 11
81.194107827258449
 21
19.768846667534941
 31
0.0
  0
LINE
  5
323
  8
0
 62
     0
 10
98.422347974641752
 20
37.89511242702531
 30
0.0
 11
101.4223479746417
 21
40.895112427025303
 31
0.0
  0
LINE
  5
324
  8
0
 62
     0
 10
114.0960822151515
 20
53.568846667535119
 30
0.0
 11
117.0960822151515
 21
56.568846667535119
 31
0.0
  0
LINE
  5
325
  8
0
 62
     0
 10
77.2070861047481
 20
16.679850557131662
 30
0.0
 11
80.296082215151387
 21
19.768846667534941
 31
0.0
  0
LINE
  5
326
  8
0
 62
     0
 10
98.422347974641752
 20
38.793138039132153
 30
0.0
 11
101.4223479746417
 21
41.793138039132138
 31
0.0
  0
LINE
  5
327
  8
0
 62
     0
 10
113.19805660304461
 20
53.568846667535013
 30
0.0
 11
116.19805660304451
 21
56.568846667534899
 31
0.0
  0
LINE
  5
328
  8
0
 62
     0
 10
76.398056603044552
 20
16.768846667535058
 30
0.0
 11
79.398056603044424
 21
19.768846667534831
 31
0.0
  0
LINE
  5
329
  8
0
 62
     0
 10
98.422347974641752
 20
39.691163651239087
 30
0.0
 11
101.4223479746417
 21
42.691163651239087
 31
0.0
  0
LINE
  5
32A
  8
0
 62
     0
 10
112.3000309909375
 20
53.568846667534899
 30
0.0
 11
115.3000309909375
 21
56.568846667534899
 31
0.0
  0
LINE
  5
32B
  8
0
 62
     0
 10
75.500030990937717
 20
16.768846667535058
 30
0.0
 11
78.500030990937489
 21
19.768846667534941
 31
0.0
  0
LINE
  5
32C
  8
0
 62
     0
 10
98.422347974641752
 20
40.589189263346043
 30
0.0
 11
101.4223479746418
 21
43.589189263346043
 31
0.0
  0
LINE
  5
32D
  8
0
 62
     0
 10
111.40200537883079
 20
53.568846667535013
 30
0.0
 11
114.40200537883069
 21
56.568846667534899
 31
0.0
  0
LINE
  5
32E
  8
0
 62
     0
 10
74.602005378830768
 20
16.768846667534941
 30
0.0
 11
77.602005378830754
 21
19.768846667534941
 31
0.0
  0
LINE
  5
32F
  8
0
 62
     0
 10
98.422347974641752
 20
41.487214875452992
 30
0.0
 11
101.4223479746417
 21
44.487214875452992
 31
0.0
  0
LINE
  5
330
  8
0
 62
     0
 10
110.5039797667237
 20
53.568846667535119
 30
0.0
 11
113.5039797667236
 21
56.568846667534899
 31
0.0
  0
LINE
  5
331
  8
0
 62
     0
 10
73.703979766723819
 20
16.768846667535058
 30
0.0
 11
76.703979766723705
 21
19.768846667534941
 31
0.0
  0
LINE
  5
332
  8
0
 62
     0
 10
98.422347974641752
 20
42.385240487559827
 30
0.0
 11
101.4223479746418
 21
45.38524048755994
 31
0.0
  0
LINE
  5
333
  8
0
 62
     0
 10
109.605954154617
 20
53.568846667535119
 30
0.0
 11
112.605954154617
 21
56.568846667535119
 31
0.0
  0
LINE
  5
334
  8
0
 62
     0
 10
72.80595415461687
 20
16.768846667535058
 30
0.0
 11
75.80595415461687
 21
19.768846667534941
 31
0.0
  0
LINE
  5
335
  8
0
 62
     0
 10
108.70792854251
 20
53.568846667534899
 30
0.0
 11
111.70792854251
 21
56.568846667534899
 31
0.0
  0
LINE
  5
336
  8
0
 62
     0
 10
98.422347974641752
 20
43.283266099666768
 30
0.0
 11
101.4223479746418
 21
46.283266099666768
 31
0.0
  0
LINE
  5
337
  8
0
 62
     0
 10
126.90792854251001
 20
71.768846667534945
 30
0.0
 11
127.4223479746417
 21
72.283266099666776
 31
0.0
  0
LINE
  5
338
  8
0
 62
     0
 10
71.907928542510035
 20
16.768846667534941
 30
0.0
 11
74.907928542509921
 21
19.768846667534831
 31
0.0
  0
LINE
  5
339
  8
0
 62
     0
 10
107.809902930403
 20
53.568846667535119
 30
0.0
 11
110.809902930403
 21
56.568846667535013
 31
0.0
  0
LINE
  5
33A
  8
0
 62
     0
 10
98.422347974641752
 20
44.181291711773717
 30
0.0
 11
101.4223479746417
 21
47.181291711773831
 31
0.0
  0
LINE
  5
33B
  8
0
 62
     0
 10
126.0099029304031
 20
71.768846667535058
 30
0.0
 11
127.4223479746417
 21
73.181291711773724
 31
0.0
  0
LINE
  5
33C
  8
0
 62
     0
 10
71.0099029304032
 20
16.768846667535168
 30
0.0
 11
74.009902930402973
 21
19.768846667535058
 31
0.0
  0
LINE
  5
33D
  8
0
 62
     0
 10
106.91187731829621
 20
53.568846667535013
 30
0.0
 11
109.91187731829611
 21
56.568846667534899
 31
0.0
  0
LINE
  5
33E
  8
0
 62
     0
 10
98.422347974641752
 20
45.079317323880559
 30
0.0
 11
101.4223479746417
 21
48.079317323880552
 31
0.0
  0
LINE
  5
33F
  8
0
 62
     0
 10
125.1118773182961
 20
71.768846667534945
 30
0.0
 11
127.4223479746417
 21
74.079317323880559
 31
0.0
  0
LINE
  5
340
  8
0
 62
     0
 10
70.111877318296138
 20
16.768846667534941
 30
0.0
 11
73.111877318296138
 21
19.768846667534941
 31
0.0
  0
LINE
  5
341
  8
0
 62
     0
 10
106.0138517061892
 20
53.568846667535013
 30
0.0
 11
109.0138517061891
 21
56.568846667534899
 31
0.0
  0
LINE
  5
342
  8
0
 62
     0
 10
98.422347974641752
 20
45.977342935987501
 30
0.0
 11
101.4223479746417
 21
48.977342935987508
 31
0.0
  0
LINE
  5
343
  8
0
 62
     0
 10
124.2138517061892
 20
71.768846667534945
 30
0.0
 11
127.1559346025558
 21
74.710929563901573
 31
0.0
  0
LINE
  5
344
  8
0
 62
     0
 10
69.213851706189175
 20
16.768846667534941
 30
0.0
 11
72.213851706189189
 21
19.768846667534941
 31
0.0
  0
LINE
  5
345
  8
0
 62
     0
 10
105.11582609408239
 20
53.568846667535013
 30
0.0
 11
108.11582609408229
 21
56.568846667535013
 31
0.0
  0
LINE
  5
346
  8
0
 62
     0
 10
98.422347974641866
 20
46.875368548094457
 30
0.0
 11
101.4223479746418
 21
49.87536854809445
 31
0.0
  0
LINE
  5
347
  8
0
 62
     0
 10
123.3158260940823
 20
71.768846667534945
 30
0.0
 11
126.3158260940823
 21
74.768846667535044
 31
0.0
  0
LINE
  5
348
  8
0
 62
     0
 10
68.315826094082354
 20
16.768846667535058
 30
0.0
 11
71.315826094082354
 21
19.768846667534941
 31
0.0
  0
LINE
  5
349
  8
0
 62
     0
 10
104.2178004819753
 20
53.568846667535013
 30
0.0
 11
107.2178004819753
 21
56.568846667535013
 31
0.0
  0
LINE
  5
34A
  8
0
 62
     0
 10
98.422347974641653
 20
47.773394160201399
 30
0.0
 11
101.4223479746417
 21
50.773394160201413
 31
0.0
  0
LINE
  5
34B
  8
0
 62
     0
 10
122.41780048197531
 20
71.768846667535058
 30
0.0
 11
125.41780048197531
 21
74.768846667534945
 31
0.0
  0
LINE
  5
34C
  8
0
 62
     0
 10
67.417800481975405
 20
16.768846667535058
 30
0.0
 11
70.417800481975291
 21
19.768846667534941
 31
0.0
  0
LINE
  5
34D
  8
0
 62
     0
 10
103.3197748698685
 20
53.568846667535119
 30
0.0
 11
106.3197748698685
 21
56.568846667535013
 31
0.0
  0
LINE
  5
34E
  8
0
 62
     0
 10
98.422347974641752
 20
48.671419772308241
 30
0.0
 11
101.4223479746418
 21
51.671419772308347
 31
0.0
  0
LINE
  5
34F
  8
0
 62
     0
 10
121.5197748698686
 20
71.768846667535058
 30
0.0
 11
124.5197748698684
 21
74.768846667534945
 31
0.0
  0
LINE
  5
350
  8
0
 62
     0
 10
66.540650414935499
 20
16.78972221260198
 30
0.0
 11
69.519774869868456
 21
19.768846667535058
 31
0.0
  0
LINE
  5
351
  8
0
 62
     0
 10
102.4217492577617
 20
53.568846667535013
 30
0.0
 11
105.4217492577615
 21
56.568846667534899
 31
0.0
  0
LINE
  5
352
  8
0
 62
     0
 10
98.422347974641752
 20
49.569445384415083
 30
0.0
 11
101.4223479746418
 21
52.569445384415189
 31
0.0
  0
LINE
  5
353
  8
0
 62
     0
 10
120.62174925776161
 20
71.768846667534945
 30
0.0
 11
123.62174925776149
 21
74.768846667534831
 31
0.0
  0
LINE
  5
354
  8
0
 62
     0
 10
65.804920180825775
 20
16.952017590599102
 30
0.0
 11
68.621749257761621
 21
19.768846667534941
 31
0.0
  0
LINE
  5
355
  8
0
 62
     0
 10
98.422347974641866
 20
50.467470996522252
 30
0.0
 11
104.5237236456546
 21
56.568846667535013
 31
0.0
  0
LINE
  5
356
  8
0
 62
     0
 10
119.7237236456546
 20
71.768846667535058
 30
0.0
 11
122.7237236456546
 21
74.768846667535044
 31
0.0
  0
LINE
  5
357
  8
0
 62
     0
 10
65.18523235493592
 20
17.230355376816298
 30
0.0
 11
67.723723645654673
 21
19.768846667535058
 31
0.0
  0
LINE
  5
358
  8
0
 62
     0
 10
98.422347974641866
 20
51.365496608628973
 30
0.0
 11
103.62569803354791
 21
56.568846667535013
 31
0.0
  0
LINE
  5
359
  8
0
 62
     0
 10
118.82569803354779
 20
71.768846667534945
 30
0.0
 11
121.82569803354779
 21
74.768846667535044
 31
0.0
  0
LINE
  5
35A
  8
0
 62
     0
 10
64.657380106856749
 20
17.600528740843849
 30
0.0
 11
66.833631574305514
 21
19.776780208292621
 31
0.0
  0
LINE
  5
35B
  8
0
 62
     0
 10
98.422347974641752
 20
52.263522220735922
 30
0.0
 11
102.7276724214408
 21
56.568846667535013
 31
0.0
  0
LINE
  5
35C
  8
0
 62
     0
 10
117.9276724214407
 20
71.768846667535058
 30
0.0
 11
120.9276724214408
 21
74.768846667534945
 31
0.0
  0
LINE
  5
35D
  8
0
 62
     0
 10
64.212526893678273
 20
18.053701139772439
 30
0.0
 11
66.422376027220366
 21
20.263550273314539
 31
0.0
  0
LINE
  5
35E
  8
0
 62
     0
 10
98.422347974641866
 20
53.161547832842871
 30
0.0
 11
101.83698715892589
 21
56.576187017126919
 31
0.0
  0
LINE
  5
35F
  8
0
 62
     0
 10
117.0296468093339
 20
71.768846667534945
 30
0.0
 11
120.0296468093339
 21
74.768846667534945
 31
0.0
  0
LINE
  5
360
  8
0
 62
     0
 10
63.851108791224071
 20
18.590308649425079
 30
0.0
 11
66.422347974641866
 21
21.161547832842871
 31
0.0
  0
LINE
  5
361
  8
0
 62
     0
 10
98.422347974641752
 20
54.05957344494982
 30
0.0
 11
101.42243241548179
 21
57.059657885789868
 31
0.0
  0
LINE
  5
362
  8
0
 62
     0
 10
116.13162119722691
 20
71.768846667534945
 30
0.0
 11
119.13162119722691
 21
74.768846667534945
 31
0.0
  0
LINE
  5
363
  8
0
 62
     0
 10
63.583097007271931
 20
19.220322477580002
 30
0.0
 11
66.422347974641752
 21
22.05957344494982
 31
0.0
  0
LINE
  5
364
  8
0
 62
     0
 10
98.422347974641866
 20
54.957599057056768
 30
0.0
 11
101.4223479746418
 21
57.957599057056768
 31
0.0
  0
LINE
  5
365
  8
0
 62
     0
 10
115.2335955851201
 20
71.768846667535058
 30
0.0
 11
118.2335955851201
 21
74.768846667535044
 31
0.0
  0
LINE
  5
366
  8
0
 62
     0
 10
63.435099742584157
 20
19.970350824999059
 30
0.0
 11
66.422347974641752
 21
22.957599057056768
 31
0.0
  0
LINE
  5
367
  8
0
 62
     0
 10
98.422347974641752
 20
55.85562466916349
 30
0.0
 11
101.4223479746418
 21
58.855624669163603
 31
0.0
  0
LINE
  5
368
  8
0
 62
     0
 10
114.33556997301319
 20
71.768846667534945
 30
0.0
 11
117.33556997301309
 21
74.768846667534831
 31
0.0
  0
LINE
  5
369
  8
0
 62
     0
 10
63.422347974641752
 20
20.85562466916349
 30
0.0
 11
66.422347974641752
 21
23.85562466916349
 31
0.0
  0
LINE
  5
36A
  8
0
 62
     0
 10
98.422347974641752
 20
56.753650281270552
 30
0.0
 11
101.4223479746417
 21
59.753650281270552
 31
0.0
  0
LINE
  5
36B
  8
0
 62
     0
 10
113.4375443609062
 20
71.768846667535172
 30
0.0
 11
116.4375443609062
 21
74.768846667535044
 31
0.0
  0
LINE
  5
36C
  8
0
 62
     0
 10
63.422347974641752
 20
21.753650281270549
 30
0.0
 11
66.422347974641752
 21
24.753650281270549
 31
0.0
  0
LINE
  5
36D
  8
0
 62
     0
 10
98.422347974641866
 20
57.651675893377387
 30
0.0
 11
101.4223479746418
 21
60.651675893377387
 31
0.0
  0
LINE
  5
36E
  8
0
 62
     0
 10
112.5395187487994
 20
71.768846667534945
 30
0.0
 11
115.5395187487994
 21
74.768846667534945
 31
0.0
  0
LINE
  5
36F
  8
0
 62
     0
 10
63.422347974641859
 20
22.651675893377391
 30
0.0
 11
66.422347974641866
 21
25.651675893377501
 31
0.0
  0
LINE
  5
370
  8
0
 62
     0
 10
98.422347974641752
 20
58.549701505484329
 30
0.0
 11
101.4223479746417
 21
61.549701505484329
 31
0.0
  0
LINE
  5
371
  8
0
 62
     0
 10
111.6414931366923
 20
71.768846667534945
 30
0.0
 11
114.6414931366923
 21
74.768846667534945
 31
0.0
  0
LINE
  5
372
  8
0
 62
     0
 10
63.422347974641752
 20
23.549701505484329
 30
0.0
 11
66.422347974641752
 21
26.549701505484339
 31
0.0
  0
LINE
  5
373
  8
0
 62
     0
 10
98.422347974641866
 20
59.447727117591278
 30
0.0
 11
101.4223479746418
 21
62.447727117591292
 31
0.0
  0
LINE
  5
374
  8
0
 62
     0
 10
110.7434675245855
 20
71.768846667534945
 30
0.0
 11
113.7434675245856
 21
74.768846667535044
 31
0.0
  0
LINE
  5
375
  8
0
 62
     0
 10
63.422347974641859
 20
24.447727117591281
 30
0.0
 11
66.422347974641866
 21
27.447727117591288
 31
0.0
  0
LINE
  5
376
  8
0
 62
     0
 10
98.422347974641653
 20
60.34575272969812
 30
0.0
 11
101.4223479746417
 21
63.345752729698233
 31
0.0
  0
LINE
  5
377
  8
0
 62
     0
 10
109.84544191247841
 20
71.768846667534945
 30
0.0
 11
112.84544191247841
 21
74.768846667534945
 31
0.0
  0
LINE
  5
378
  8
0
 62
     0
 10
63.422347974641752
 20
25.34575272969823
 30
0.0
 11
66.422347974641752
 21
28.345752729698241
 31
0.0
  0
LINE
  5
379
  8
0
 62
     0
 10
98.422347974641752
 20
61.243778341805061
 30
0.0
 11
101.4223479746417
 21
64.243778341805069
 31
0.0
  0
LINE
  5
37A
  8
0
 62
     0
 10
108.9474163003717
 20
71.768846667535172
 30
0.0
 11
111.9474163003716
 21
74.768846667534945
 31
0.0
  0
LINE
  5
37B
  8
0
 62
     0
 10
63.422347974641752
 20
26.243778341805179
 30
0.0
 11
66.422347974641866
 21
29.243778341805179
 31
0.0
  0
LINE
  5
37C
  8
0
 62
     0
 10
98.422347974641752
 20
62.141803953911896
 30
0.0
 11
101.4223479746417
 21
65.141803953911904
 31
0.0
  0
LINE
  5
37D
  8
0
 62
     0
 10
108.04939068826479
 20
71.768846667534945
 30
0.0
 11
111.04939068826469
 21
74.768846667534945
 31
0.0
  0
LINE
  5
37E
  8
0
 62
     0
 10
63.422347974641752
 20
27.141803953911911
 30
0.0
 11
66.422347974641752
 21
30.141803953912021
 31
0.0
  0
LINE
  5
37F
  8
0
 62
     0
 10
98.422347974641752
 20
63.039829566018959
 30
0.0
 11
101.4223479746417
 21
66.039829566018966
 31
0.0
  0
LINE
  5
380
  8
0
 62
     0
 10
107.1513650761578
 20
71.768846667535058
 30
0.0
 11
110.1513650761578
 21
74.768846667535044
 31
0.0
  0
LINE
  5
381
  8
0
 62
     0
 10
63.422347974641752
 20
28.03982956601897
 30
0.0
 11
66.422347974641752
 21
31.03982956601897
 31
0.0
  0
LINE
  5
382
  8
0
 62
     0
 10
98.422347974641866
 20
63.937855178125801
 30
0.0
 11
101.4223479746418
 21
66.937855178125801
 31
0.0
  0
LINE
  5
383
  8
0
 62
     0
 10
106.253339464051
 20
71.768846667534945
 30
0.0
 11
109.25333946405109
 21
74.768846667535044
 31
0.0
  0
LINE
  5
384
  8
0
 62
     0
 10
63.422347974641859
 20
28.937855178125801
 30
0.0
 11
66.422347974641866
 21
31.937855178125801
 31
0.0
  0
LINE
  5
385
  8
0
 62
     0
 10
98.422347974641653
 20
64.835880790232636
 30
0.0
 11
101.4223479746417
 21
67.835880790232736
 31
0.0
  0
LINE
  5
386
  8
0
 62
     0
 10
105.3553138519439
 20
71.768846667534945
 30
0.0
 11
108.3553138519439
 21
74.768846667534945
 31
0.0
  0
LINE
  5
387
  8
0
 62
     0
 10
63.422347974641752
 20
29.83588079023275
 30
0.0
 11
66.422347974641752
 21
32.83588079023275
 31
0.0
  0
LINE
  5
388
  8
0
 62
     0
 10
98.422347974641752
 20
65.733906402339585
 30
0.0
 11
101.4223479746417
 21
68.733906402339585
 31
0.0
  0
LINE
  5
389
  8
0
 62
     0
 10
104.4572882398371
 20
71.768846667534945
 30
0.0
 11
107.4572882398371
 21
74.768846667534945
 31
0.0
  0
LINE
  5
38A
  8
0
 62
     0
 10
63.422347974641752
 20
30.733906402339699
 30
0.0
 11
66.422347974641866
 21
33.733906402339699
 31
0.0
  0
LINE
  5
38B
  8
0
 62
     0
 10
98.422347974641866
 20
66.631932014446647
 30
0.0
 11
101.4223479746418
 21
69.631932014446633
 31
0.0
  0
LINE
  5
38C
  8
0
 62
     0
 10
103.55926262773021
 20
71.768846667535058
 30
0.0
 11
106.55926262773011
 21
74.768846667535044
 31
0.0
  0
LINE
  5
38D
  8
0
 62
     0
 10
63.422347974641752
 20
31.63193201444653
 30
0.0
 11
66.422347974641752
 21
34.631932014446647
 31
0.0
  0
LINE
  5
38E
  8
0
 62
     0
 10
98.422347974641752
 20
67.529957626553596
 30
0.0
 11
101.4223479746418
 21
70.529957626553596
 31
0.0
  0
LINE
  5
38F
  8
0
 62
     0
 10
102.6612370156232
 20
71.768846667535058
 30
0.0
 11
105.6612370156233
 21
74.768846667535044
 31
0.0
  0
LINE
  5
390
  8
0
 62
     0
 10
63.422347974641752
 20
32.529957626553482
 30
0.0
 11
66.422347974641752
 21
35.529957626553482
 31
0.0
  0
LINE
  5
391
  8
0
 62
     0
 10
98.422347974641752
 20
68.427983238660303
 30
0.0
 11
101.46477677836501
 21
71.4704120423836
 31
0.0
  0
LINE
  5
392
  8
0
 62
     0
 10
101.7207825997931
 20
71.726417863811662
 30
0.0
 11
104.76321140351639
 21
74.768846667534945
 31
0.0
  0
LINE
  5
393
  8
0
 62
     0
 10
63.422347974641859
 20
33.427983238660431
 30
0.0
 11
66.422347974641752
 21
36.427983238660318
 31
0.0
  0
LINE
  5
394
  8
0
 62
     0
 10
98.422347974641752
 20
69.326008850767366
 30
0.0
 11
103.8651857914094
 21
74.768846667535044
 31
0.0
  0
LINE
  5
395
  8
0
 62
     0
 10
63.422347974641752
 20
34.326008850767487
 30
0.0
 11
66.422347974641752
 21
37.32600885076738
 31
0.0
  0
LINE
  5
396
  8
0
 62
     0
 10
98.422347974641866
 20
70.224034462874215
 30
0.0
 11
102.9671601793026
 21
74.768846667534945
 31
0.0
  0
LINE
  5
397
  8
0
 62
     0
 10
63.422347974641859
 20
35.224034462874222
 30
0.0
 11
66.422347974641866
 21
38.224034462874222
 31
0.0
  0
LINE
  5
398
  8
0
 62
     0
 10
98.422347974641752
 20
71.122060074981164
 30
0.0
 11
102.0691345671955
 21
74.768846667535044
 31
0.0
  0
LINE
  5
399
  8
0
 62
     0
 10
63.422347974641752
 20
36.122060074981157
 30
0.0
 11
66.422347974641752
 21
39.122060074981171
 31
0.0
  0
LINE
  5
39A
  8
0
 62
     0
 10
98.127212562460727
 20
71.724950274906973
 30
0.0
 11
101.1711089550887
 21
74.768846667534945
 31
0.0
  0
LINE
  5
39B
  8
0
 62
     0
 10
63.422347974641859
 20
37.020085687088113
 30
0.0
 11
66.422347974641866
 21
40.020085687088113
 31
0.0
  0
LINE
  5
39C
  8
0
 62
     0
 10
97.273083342981863
 20
71.768846667535058
 30
0.0
 11
100.27308334298181
 21
74.768846667535044
 31
0.0
  0
LINE
  5
39D
  8
0
 62
     0
 10
63.422347974641859
 20
37.918111299195061
 30
0.0
 11
66.422347974641866
 21
40.918111299195061
 31
0.0
  0
LINE
  5
39E
  8
0
 62
     0
 10
96.375057730874914
 20
71.768846667535058
 30
0.0
 11
99.375057730874801
 21
74.768846667535044
 31
0.0
  0
LINE
  5
39F
  8
0
 62
     0
 10
63.422347974641752
 20
38.816136911301903
 30
0.0
 11
66.422347974641866
 21
41.81613691130201
 31
0.0
  0
LINE
  5
3A0
  8
0
 62
     0
 10
95.477032118767966
 20
71.768846667534945
 30
0.0
 11
98.477032118767966
 21
74.768846667534945
 31
0.0
  0
LINE
  5
3A1
  8
0
 62
     0
 10
63.422347974641752
 20
39.714162523408731
 30
0.0
 11
66.422347974641752
 21
42.714162523408717
 31
0.0
  0
LINE
  5
3A2
  8
0
 62
     0
 10
94.579006506661017
 20
71.768846667535058
 30
0.0
 11
97.579006506661017
 21
74.768846667535172
 31
0.0
  0
LINE
  5
3A3
  8
0
 62
     0
 10
63.422347974641859
 20
40.6121881355159
 30
0.0
 11
66.422347974641752
 21
43.612188135515787
 31
0.0
  0
LINE
  5
3A4
  8
0
 62
     0
 10
93.680980894554182
 20
71.768846667534945
 30
0.0
 11
96.680980894554196
 21
74.768846667534945
 31
0.0
  0
LINE
  5
3A5
  8
0
 62
     0
 10
63.422347974641859
 20
41.510213747622743
 30
0.0
 11
66.422347974641866
 21
44.510213747622622
 31
0.0
  0
LINE
  5
3A6
  8
0
 62
     0
 10
92.782955282447233
 20
71.768846667535058
 30
0.0
 11
95.782955282447119
 21
74.768846667534945
 31
0.0
  0
LINE
  5
3A7
  8
0
 62
     0
 10
63.422347974641752
 20
42.408239359729571
 30
0.0
 11
66.422347974641752
 21
45.408239359729578
 31
0.0
  0
LINE
  5
3A8
  8
0
 62
     0
 10
91.884929670340398
 20
71.768846667535058
 30
0.0
 11
94.884929670340284
 21
74.768846667535044
 31
0.0
  0
LINE
  5
3A9
  8
0
 62
     0
 10
63.422347974641859
 20
43.306264971836526
 30
0.0
 11
66.422347974641866
 21
46.306264971836519
 31
0.0
  0
LINE
  5
3AA
  8
0
 62
     0
 10
90.986904058233335
 20
71.768846667535058
 30
0.0
 11
93.986904058233435
 21
74.768846667535044
 31
0.0
  0
LINE
  5
3AB
  8
0
 62
     0
 10
63.422347974641859
 20
44.204290583943468
 30
0.0
 11
66.422347974641752
 21
47.204290583943362
 31
0.0
  0
LINE
  5
3AC
  8
0
 62
     0
 10
90.088878446126486
 20
71.768846667535058
 30
0.0
 11
93.0888784461265
 21
74.768846667535044
 31
0.0
  0
LINE
  5
3AD
  8
0
 62
     0
 10
63.422347974641859
 20
45.102316196050417
 30
0.0
 11
66.422347974641866
 21
48.102316196050417
 31
0.0
  0
LINE
  5
3AE
  8
0
 62
     0
 10
89.190852834019552
 20
71.768846667534945
 30
0.0
 11
92.190852834019552
 21
74.768846667534945
 31
0.0
  0
LINE
  5
3AF
  8
0
 62
     0
 10
63.422347974641752
 20
46.000341808157252
 30
0.0
 11
66.422347974641866
 21
49.000341808157259
 31
0.0
  0
LINE
  5
3B0
  8
0
 62
     0
 10
88.292827221912603
 20
71.768846667535058
 30
0.0
 11
91.292827221912603
 21
74.768846667535044
 31
0.0
  0
LINE
  5
3B1
  8
0
 62
     0
 10
63.422347974641752
 20
46.898367420264208
 30
0.0
 11
66.422347974641752
 21
49.898367420264321
 31
0.0
  0
LINE
  5
3B2
  8
0
 62
     0
 10
87.394801609805754
 20
71.768846667534945
 30
0.0
 11
90.394801609805768
 21
74.768846667535044
 31
0.0
  0
LINE
  5
3B3
  8
0
 62
     0
 10
63.422347974641859
 20
47.796393032371043
 30
0.0
 11
66.422347974641866
 21
50.796393032371043
 31
0.0
  0
LINE
  5
3B4
  8
0
 62
     0
 10
86.496775997698705
 20
71.768846667535058
 30
0.0
 11
89.496775997698705
 21
74.768846667534945
 31
0.0
  0
LINE
  5
3B5
  8
0
 62
     0
 10
63.422347974641752
 20
48.694418644477992
 30
0.0
 11
66.422347974641752
 21
51.694418644477992
 31
0.0
  0
LINE
  5
3B6
  8
0
 62
     0
 10
85.598750385591984
 20
71.768846667535058
 30
0.0
 11
88.598750385591984
 21
74.768846667535044
 31
0.0
  0
LINE
  5
3B7
  8
0
 62
     0
 10
63.422347974641859
 20
49.59244425658494
 30
0.0
 11
66.422347974641866
 21
52.59244425658494
 31
0.0
  0
LINE
  5
3B8
  8
0
 62
     0
 10
84.700724773485035
 20
71.768846667535058
 30
0.0
 11
87.700724773485035
 21
74.768846667535044
 31
0.0
  0
LINE
  5
3B9
  8
0
 62
     0
 10
63.422347974641752
 20
50.490469868691889
 30
0.0
 11
66.422347974641866
 21
53.490469868691889
 31
0.0
  0
LINE
  5
3BA
  8
0
 62
     0
 10
83.802699161378087
 20
71.768846667535058
 30
0.0
 11
86.802699161378087
 21
74.768846667535044
 31
0.0
  0
LINE
  5
3BB
  8
0
 62
     0
 10
63.422347974641752
 20
51.388495480798717
 30
0.0
 11
66.422347974641752
 21
54.388495480798831
 31
0.0
  0
LINE
  5
3BC
  8
0
 62
     0
 10
82.904673549271138
 20
71.768846667534945
 30
0.0
 11
85.904673549271124
 21
74.768846667535044
 31
0.0
  0
LINE
  5
3BD
  8
0
 62
     0
 10
63.422347974641752
 20
52.286521092905559
 30
0.0
 11
66.422347974641752
 21
55.286521092905559
 31
0.0
  0
LINE
  5
3BE
  8
0
 62
     0
 10
82.006647937164175
 20
71.768846667535172
 30
0.0
 11
85.006647937164189
 21
74.768846667535044
 31
0.0
  0
LINE
  5
3BF
  8
0
 62
     0
 10
63.422347974641752
 20
53.184546705012622
 30
0.0
 11
66.422347974641752
 21
56.184546705012622
 31
0.0
  0
LINE
  5
3C0
  8
0
 62
     0
 10
81.108622325057354
 20
71.768846667534945
 30
0.0
 11
84.108622325057354
 21
74.768846667534945
 31
0.0
  0
LINE
  5
3C1
  8
0
 62
     0
 10
63.422347974641859
 20
54.082572317119457
 30
0.0
 11
66.422347974641866
 21
57.082572317119457
 31
0.0
  0
LINE
  5
3C2
  8
0
 62
     0
 10
80.210596712950405
 20
71.768846667535058
 30
0.0
 11
83.210596712950306
 21
74.768846667534945
 31
0.0
  0
LINE
  5
3C3
  8
0
 62
     0
 10
63.422347974641752
 20
54.980597929226398
 30
0.0
 11
66.422347974641752
 21
57.980597929226398
 31
0.0
  0
LINE
  5
3C4
  8
0
 62
     0
 10
79.312571100843456
 20
71.768846667534945
 30
0.0
 11
82.31257110084357
 21
74.768846667535044
 31
0.0
  0
LINE
  5
3C5
  8
0
 62
     0
 10
63.422347974641859
 20
55.878623541333347
 30
0.0
 11
66.422347974641752
 21
58.878623541333361
 31
0.0
  0
LINE
  5
3C6
  8
0
 62
     0
 10
78.414545488736621
 20
71.768846667534945
 30
0.0
 11
81.414545488736621
 21
74.768846667534945
 31
0.0
  0
LINE
  5
3C7
  8
0
 62
     0
 10
63.422347974641859
 20
56.776649153440189
 30
0.0
 11
66.422347974641866
 21
59.776649153440189
 31
0.0
  0
LINE
  5
3C8
  8
0
 62
     0
 10
77.516519876629673
 20
71.768846667535172
 30
0.0
 11
80.516519876629673
 21
74.768846667535044
 31
0.0
  0
LINE
  5
3C9
  8
0
 62
     0
 10
63.422347974641752
 20
57.674674765547252
 30
0.0
 11
66.422347974641866
 21
60.674674765547252
 31
0.0
  0
LINE
  5
3CA
  8
0
 62
     0
 10
76.618494264522724
 20
71.768846667534945
 30
0.0
 11
79.618494264522724
 21
74.768846667534945
 31
0.0
  0
LINE
  5
3CB
  8
0
 62
     0
 10
63.422347974641752
 20
58.572700377653973
 30
0.0
 11
66.422347974641752
 21
61.572700377654087
 31
0.0
  0
LINE
  5
3CC
  8
0
 62
     0
 10
75.720468652415775
 20
71.768846667535058
 30
0.0
 11
78.720468652415775
 21
74.768846667535044
 31
0.0
  0
LINE
  5
3CD
  8
0
 62
     0
 10
63.422347974641752
 20
59.470725989761029
 30
0.0
 11
66.422347974641752
 21
62.470725989761029
 31
0.0
  0
LINE
  5
3CE
  8
0
 62
     0
 10
74.82244304030894
 20
71.768846667534945
 30
0.0
 11
77.822443040309054
 21
74.768846667535044
 31
0.0
  0
LINE
  5
3CF
  8
0
 62
     0
 10
63.422347974641859
 20
60.368751601867871
 30
0.0
 11
66.422347974641866
 21
63.368751601867871
 31
0.0
  0
LINE
  5
3D0
  8
0
 62
     0
 10
73.924417428201991
 20
71.768846667535058
 30
0.0
 11
76.924417428201878
 21
74.768846667534945
 31
0.0
  0
LINE
  5
3D1
  8
0
 62
     0
 10
63.422347974641752
 20
61.266777213974933
 30
0.0
 11
66.422347974641752
 21
64.266777213974805
 31
0.0
  0
LINE
  5
3D2
  8
0
 62
     0
 10
73.026391816095156
 20
71.768846667535058
 30
0.0
 11
76.026391816095156
 21
74.768846667535044
 31
0.0
  0
LINE
  5
3D3
  8
0
 62
     0
 10
63.422347974641859
 20
62.164802826081768
 30
0.0
 11
66.422347974641866
 21
65.164802826081768
 31
0.0
  0
LINE
  5
3D4
  8
0
 62
     0
 10
72.128366203988207
 20
71.768846667534945
 30
0.0
 11
75.128366203988094
 21
74.768846667534945
 31
0.0
  0
LINE
  5
3D5
  8
0
 62
     0
 10
63.422347974641859
 20
63.062828438188603
 30
0.0
 11
66.422347974641752
 21
66.062828438188603
 31
0.0
  0
LINE
  5
3D6
  8
0
 62
     0
 10
71.230340591881259
 20
71.768846667535058
 30
0.0
 11
74.230340591881244
 21
74.768846667535044
 31
0.0
  0
LINE
  5
3D7
  8
0
 62
     0
 10
63.422347974641859
 20
63.960854050295659
 30
0.0
 11
66.422347974641866
 21
66.960854050295666
 31
0.0
  0
LINE
  5
3D8
  8
0
 62
     0
 10
70.33231497977431
 20
71.768846667535058
 30
0.0
 11
73.33231497977431
 21
74.768846667534945
 31
0.0
  0
LINE
  5
3D9
  8
0
 62
     0
 10
63.422347974641859
 20
64.858879662402501
 30
0.0
 11
66.422347974641866
 21
67.858879662402501
 31
0.0
  0
LINE
  5
3DA
  8
0
 62
     0
 10
69.434289367667361
 20
71.768846667535058
 30
0.0
 11
72.434289367667361
 21
74.768846667535044
 31
0.0
  0
LINE
  5
3DB
  8
0
 62
     0
 10
63.422347974641752
 20
65.756905274509435
 30
0.0
 11
66.422347974641866
 21
68.756905274509563
 31
0.0
  0
LINE
  5
3DC
  8
0
 62
     0
 10
68.536263755560526
 20
71.768846667534945
 30
0.0
 11
71.536263755560526
 21
74.768846667534945
 31
0.0
  0
LINE
  5
3DD
  8
0
 62
     0
 10
63.422347974641859
 20
66.654930886616285
 30
0.0
 11
66.422347974641866
 21
69.654930886616398
 31
0.0
  0
LINE
  5
3DE
  8
0
 62
     0
 10
67.638238143453464
 20
71.768846667534945
 30
0.0
 11
70.638238143453464
 21
74.768846667535044
 31
0.0
  0
LINE
  5
3DF
  8
0
 62
     0
 10
63.422347974641752
 20
67.552956498723233
 30
0.0
 11
66.422347974641752
 21
70.552956498723233
 31
0.0
  0
LINE
  5
3E0
  8
0
 62
     0
 10
66.67440817174122
 20
71.703042307929536
 30
0.0
 11
69.740212531346629
 21
74.768846667534945
 31
0.0
  0
LINE
  5
3E1
  8
0
 62
     0
 10
63.422347974641859
 20
68.450982110830182
 30
0.0
 11
66.488152334247388
 21
71.516786470435704
 31
0.0
  0
LINE
  5
3E2
  8
0
 62
     0
 10
63.422347974641859
 20
69.349007722937003
 30
0.0
 11
68.842186919239793
 21
74.768846667534945
 31
0.0
  0
LINE
  5
3E3
  8
0
 62
     0
 10
63.422347974641752
 20
70.247033335043966
 30
0.0
 11
67.944161307132731
 21
74.768846667535044
 31
0.0
  0
LINE
  5
3E4
  8
0
 62
     0
 10
63.422347974641752
 20
71.145058947150801
 30
0.0
 11
67.046135695025896
 21
74.768846667534945
 31
0.0
  0
LINE
  5
3E5
  8
0
 62
     0
 10
63.111109980487981
 20
71.731846565103979
 30
0.0
 11
66.148110082918933
 21
74.768846667535044
 31
0.0
  0
LINE
  5
3E6
  8
0
 62
     0
 10
62.250084470812112
 20
71.768846667534945
 30
0.0
 11
65.250084470812112
 21
74.768846667534945
 31
0.0
  0
LINE
  5
3E7
  8
0
 62
     0
 10
61.352058858705043
 20
71.768846667534945
 30
0.0
 11
64.35205885870505
 21
74.768846667534945
 31
0.0
  0
LINE
  5
3E8
  8
0
 62
     0
 10
60.454033246598328
 20
71.768846667535058
 30
0.0
 11
63.454033246598208
 21
74.768846667535044
 31
0.0
  0
LINE
  5
3E9
  8
0
 62
     0
 10
59.556007634491259
 20
71.768846667534945
 30
0.0
 11
62.556007634491372
 21
74.768846667534945
 31
0.0
  0
LINE
  5
3EA
  8
0
 62
     0
 10
58.657982022384431
 20
71.768846667535058
 30
0.0
 11
61.657982022384431
 21
74.768846667535044
 31
0.0
  0
LINE
  5
3EB
  8
0
 62
     0
 10
57.759956410277482
 20
71.768846667534945
 30
0.0
 11
60.759956410277482
 21
74.768846667534945
 31
0.0
  0
LINE
  5
3EC
  8
0
 62
     0
 10
56.861930798170533
 20
71.768846667534945
 30
0.0
 11
59.861930798170533
 21
74.768846667534945
 31
0.0
  0
LINE
  5
3ED
  8
0
 62
     0
 10
55.963905186063691
 20
71.768846667534945
 30
0.0
 11
58.963905186063698
 21
74.768846667535044
 31
0.0
  0
LINE
  5
3EE
  8
0
 62
     0
 10
55.065879573956629
 20
71.768846667535058
 30
0.0
 11
58.065879573956629
 21
74.768846667534945
 31
0.0
  0
LINE
  5
3EF
  8
0
 62
     0
 10
54.167853961849907
 20
71.768846667535058
 30
0.0
 11
57.167853961849801
 21
74.768846667534945
 31
0.0
  0
LINE
  5
3F0
  8
0
 62
     0
 10
53.269828349742959
 20
71.768846667534945
 30
0.0
 11
56.269828349742959
 21
74.768846667534945
 31
0.0
  0
LINE
  5
3F1
  8
0
 62
     0
 10
52.371802737635903
 20
71.768846667534945
 30
0.0
 11
55.371802737636017
 21
74.768846667535044
 31
0.0
  0
LINE
  5
3F2
  8
0
 62
     0
 10
51.473777125529182
 20
71.768846667534945
 30
0.0
 11
54.473777125529182
 21
74.768846667534945
 31
0.0
  0
LINE
  5
3F3
  8
0
 62
     0
 10
50.575751513422119
 20
71.768846667535058
 30
0.0
 11
53.575751513422119
 21
74.768846667534945
 31
0.0
  0
LINE
  5
3F4
  8
0
 62
     0
 10
49.677725901315277
 20
71.768846667534945
 30
0.0
 11
52.677725901315277
 21
74.768846667534945
 31
0.0
  0
LINE
  5
3F5
  8
0
 62
     0
 10
48.779700289208343
 20
71.768846667535058
 30
0.0
 11
51.779700289208222
 21
74.768846667534945
 31
0.0
  0
LINE
  5
3F6
  8
0
 62
     0
 10
47.88167467710138
 20
71.768846667534945
 30
0.0
 11
50.8816746771015
 21
74.768846667535044
 31
0.0
  0
LINE
  5
3F7
  8
0
 62
     0
 10
46.983649064994552
 20
71.768846667534945
 30
0.0
 11
49.983649064994431
 21
74.768846667534831
 31
0.0
  0
LINE
  5
3F8
  8
0
 62
     0
 10
46.085623452887603
 20
71.768846667535172
 30
0.0
 11
49.08562345288761
 21
74.768846667535044
 31
0.0
  0
LINE
  5
3F9
  8
0
 62
     0
 10
45.187597840780768
 20
71.768846667534945
 30
0.0
 11
48.187597840780647
 21
74.768846667534945
 31
0.0
  0
LINE
  5
3FA
  8
0
 62
     0
 10
44.289572228673698
 20
71.768846667534945
 30
0.0
 11
47.289572228673713
 21
74.768846667534945
 31
0.0
  0
LINE
  5
3FB
  8
0
 62
     0
 10
43.39154661656687
 20
71.768846667534945
 30
0.0
 11
46.39154661656687
 21
74.768846667534945
 31
0.0
  0
LINE
  5
3FC
  8
0
 62
     0
 10
42.493521004459907
 20
71.768846667535058
 30
0.0
 11
45.493521004459808
 21
74.768846667534945
 31
0.0
  0
LINE
  5
3FD
  8
0
 62
     0
 10
41.593860441864301
 20
71.767211717046266
 30
0.0
 11
44.595495392352973
 21
74.768846667534945
 31
0.0
  0
LINE
  5
3FE
  8
0
 62
     0
 10
8.6468989197434212
 20
38.820250194925393
 30
0.0
 11
8.8746759983628181
 21
39.04802727354479
 31
0.0
  0
LINE
  5
3FF
  8
0
 62
     0
 10
40.673843702848899
 20
71.745220590137706
 30
0.0
 11
43.697469780246017
 21
74.768846667534945
 31
0.0
  0
LINE
  5
400
  8
0
 62
     0
 10
7.6974697802461369
 20
38.768846667535058
 30
0.0
 11
8.9459740520388777
 21
40.017350939327677
 31
0.0
  0
LINE
  5
401
  8
0
 62
     0
 10
39.726292488333122
 20
71.695694987728984
 30
0.0
 11
42.799444168139182
 21
74.768846667535044
 31
0.0
  0
LINE
  5
402
  8
0
 62
     0
 10
6.7994441681393019
 20
38.768846667535172
 30
0.0
 11
8.9954996544477126
 21
40.964902153843582
 31
0.0
  0
LINE
  5
403
  8
0
 62
     0
 10
38.748431413571893
 20
71.615859525074484
 30
0.0
 11
41.901412468595602
 21
74.768840580098185
 31
0.0
  0
LINE
  5
404
  8
0
 62
     0
 10
6.060301956213606
 20
38.927730067716197
 30
0.0
 11
9.0753351171020995
 21
41.94276322860469
 31
0.0
  0
LINE
  5
405
  8
0
 62
     0
 10
37.736891961999049
 20
71.502345685608702
 30
0.0
 11
40.991352705615888
 21
74.756806429225534
 31
0.0
  0
LINE
  5
406
  8
0
 62
     0
 10
5.934388212951375
 20
39.699841936561029
 30
0.0
 11
9.1888489565677673
 21
42.954302680177413
 31
0.0
  0
LINE
  5
407
  8
0
 62
     0
 10
36.687518237180711
 20
71.350997572897199
 30
0.0
 11
40.057008587405562
 21
74.72048792312205
 31
0.0
  0
LINE
  5
408
  8
0
 62
     0
 10
5.9707067190548742
 20
40.634186054771362
 30
0.0
 11
9.3401970692793839
 21
44.003676404995872
 31
0.0
  0
LINE
  5
409
  8
0
 62
     0
 10
35.595081708806561
 20
71.156586656629997
 30
0.0
 11
39.096241420672193
 21
74.657746368495623
 31
0.0
  0
LINE
  5
40A
  8
0
 62
     0
 10
6.0334482736813007
 20
41.594953221504738
 30
0.0
 11
9.5346079855465842
 21
45.096112933370023
 31
0.0
  0
LINE
  5
40B
  8
0
 62
     0
 10
34.452846533101251
 20
70.912377093031637
 30
0.0
 11
38.106514533602308
 21
74.566045093532693
 31
0.0
  0
LINE
  5
40C
  8
0
 62
     0
 10
6.1251495486443437
 20
42.584680108574723
 30
0.0
 11
9.7788175491449465
 21
46.238348109075453
 31
0.0
  0
LINE
  5
40D
  8
0
 62
     0
 10
33.251876657472621
 20
70.609432829509842
 30
0.0
 11
37.08478134036671
 21
74.442337512403924
 31
0.0
  0
LINE
  5
40E
  8
0
 62
     0
 10
6.2488571297728859
 20
43.6064133018101
 30
0.0
 11
10.08176181266662
 21
47.439317984703962
 31
0.0
  0
LINE
  5
40F
  8
0
 62
     0
 10
31.979867541343651
 20
70.235449325487934
 30
0.0
 11
36.027329020425782
 21
74.282910804570065
 31
0.0
  0
LINE
  5
410
  8
0
 62
     0
 10
6.4082838376068594
 20
44.663865621751142
 30
0.0
 11
10.455745316688651
 21
48.711327100833053
 31
0.0
  0
LINE
  5
411
  8
0
 62
     0
 10
30.619029066370562
 20
69.772636462621563
 30
0.0
 11
34.929554135398803
 21
74.083161531649921
 31
0.0
  0
LINE
  5
412
  8
0
 62
     0
 10
6.6080331105271171
 20
45.761640506778122
 30
0.0
 11
10.918558179555021
 21
50.072165575806018
 31
0.0
  0
LINE
  5
413
  8
0
 62
     0
 10
29.141860628136548
 20
69.193493636494622
 30
0.0
 11
33.785629924769637
 21
73.837262933127704
 31
0.0
  0
LINE
  5
414
  8
0
 62
     0
 10
6.8539317090491059
 20
46.905564717407287
 30
0.0
 11
11.497701005681961
 21
51.549334014040028
 31
0.0
  0
LINE
  5
415
  8
0
 62
     0
 10
27.501483645759318
 20
68.451142266224224
 30
0.0
 11
32.587993380438661
 21
73.537652000903677
 31
0.0
  0
LINE
  5
416
  8
0
 62
     0
 10
7.1535426412733614
 20
48.103201261738263
 30
0.0
 11
12.240052375952359
 21
53.189710996417261
 31
0.0
  0
LINE
  5
417
  8
0
 62
     0
 10
25.604256721652749
 20
67.45194095422471
 30
0.0
 11
31.326515807429359
 21
73.17420004000121
 31
0.0
  0
LINE
  5
418
  8
0
 62
     0
 10
7.5169946021757141
 20
49.364678834747679
 30
0.0
 11
13.23925368795199
 21
55.08693792052383
 31
0.0
  0
LINE
  5
419
  8
0
 62
     0
 10
23.193595856398701
 20
65.939305701077501
 30
0.0
 11
29.987078688828088
 21
72.732788533506891
 31
0.0
  0
LINE
  5
41A
  8
0
 62
     0
 10
7.9584061086700331
 20
50.704115953348953
 30
0.0
 11
14.751888941099081
 21
57.497598785777988
 31
0.0
  0
LINE
  5
41B
  8
0
 62
     0
 10
8.498528456755821
 20
52.142263913541449
 30
0.0
 11
28.548930728635359
 21
72.19266618542099
 31
0.0
  0
LINE
  5
41C
  8
0
 62
     0
 10
9.1701962088038727
 20
53.711957277696683
 30
0.0
 11
26.979237364480358
 21
71.520998433373052
 31
0.0
  0
LINE
  5
41D
  8
0
 62
     0
 10
10.03142385497847
 20
55.471210535977889
 30
0.0
 11
25.219984106199149
 21
70.659770787198568
 31
0.0
  0
LINE
  5
41E
  8
0
 62
     0
 10
11.20572228068408
 20
57.54353457379068
 30
0.0
 11
23.147660068386241
 21
69.485472361492725
 31
0.0
  0
LINE
  5
41F
  8
0
 62
     0
 10
13.09056090592526
 20
60.326398811138567
 30
0.0
 11
20.36479583103835
 21
67.600633736251666
 31
0.0
  0
ENDBLK
  5
421
  8
0
  0
BLOCK
  8
0
  2
*U3
 70
     1
 10
0.0
 20
0.0
 30
0.0
  3
*U3
  1

  0
LINE
  5
423
  8
0
 10
66.422347974641752
 20
20.268846667535058
 30
0.0
 11
66.422347974641752
 21
71.268846667535058
 31
0.0
  0
ARC
  5
424
  8
0
 10
66.922347974641866
 20
71.268846667534973
 30
0.0
 40
0.5000000000000853
 50
90.000000000013031
 51
179.99999999999019
  0
LINE
  5
425
  8
0
 10
66.922347974641752
 20
71.768846667535058
 30
0.0
 11
97.922347974641752
 21
71.768846667535087
 31
0.0
  0
ARC
  5
426
  8
0
 10
97.922347974641639
 20
71.268846667534973
 30
0.0
 40
0.5000000000001137
 50
0.0
 51
89.999999999977206
  0
LINE
  5
427
  8
0
 10
98.422347974641752
 20
71.268846667535058
 30
0.0
 11
98.422347974641752
 21
20.268846667535058
 31
0.0
  0
ARC
  5
428
  8
0
 10
97.922347974641639
 20
20.26884666753514
 30
0.0
 40
0.5000000000000853
 50
270.00000000001302
 51
359.99999999999022
  0
LINE
  5
429
  8
0
 10
97.922347974641752
 20
19.768846667535058
 30
0.0
 11
66.922347974641752
 21
19.76884666753503
 31
0.0
  0
ARC
  5
42A
  8
0
 10
66.922347974641866
 20
20.26884666753514
 30
0.0
 40
0.5000000000001137
 50
180.0
 51
269.99999999997721
  0
LINE
  5
42B
  8
0
 10
87.922347974641752
 20
16.768846667535058
 30
0.0
 11
97.922347974641752
 21
16.768846667535058
 31
0.0
  0
ARC
  5
42C
  8
0
 10
97.922347974641639
 20
20.26884666753514
 30
0.0
 40
3.5000000000000848
 50
270.00000000000182
 51
359.99999999999858
  0
LINE
  5
42D
  8
0
 10
101.4223479746417
 20
53.06884666753507
 30
0.0
 11
101.4223479746417
 21
20.268846667535058
 31
0.0
  0
ARC
  5
42E
  8
0
 10
101.9223479746418
 20
53.068846667534977
 30
0.0
 40
0.5000000000000853
 50
90.000000000013031
 51
179.99999999999019
  0
LINE
  5
42F
  8
0
 10
101.9223479746417
 20
53.56884666753507
 30
0.0
 11
122.9223479746417
 21
53.56884666753507
 31
0.0
  0
ARC
  5
430
  8
0
 10
122.9223479746417
 20
54.068846667534949
 30
0.0
 40
0.4999999999998864
 50
270.0
 51
0.0000000000130296
  0
LINE
  5
431
  8
0
 10
123.4223479746417
 20
56.06884666753507
 30
0.0
 11
123.4223479746417
 21
54.06884666753507
 31
0.0
  0
ARC
  5
432
  8
0
 10
122.9223479746417
 20
56.06884666753519
 30
0.0
 40
0.5
 50
0.0
 51
90.000000000013031
  0
LINE
  5
433
  8
0
 10
101.9223479746417
 20
56.568846667535041
 30
0.0
 11
122.9223479746417
 21
56.56884666753507
 31
0.0
  0
ARC
  5
434
  8
0
 10
101.9223479746418
 20
57.068846667535162
 30
0.0
 40
0.5000000000001137
 50
180.0
 51
269.99999999997721
  0
LINE
  5
435
  8
0
 10
101.4223479746417
 20
71.268846667535058
 30
0.0
 11
101.4223479746417
 21
57.06884666753507
 31
0.0
  0
ARC
  5
436
  8
0
 10
101.9223479746418
 20
71.268846667534973
 30
0.0
 40
0.5000000000000853
 50
90.000000000013031
 51
179.99999999999019
  0
LINE
  5
437
  8
0
 10
101.9223479746417
 20
71.768846667535058
 30
0.0
 11
126.9223479746417
 21
71.768846667535058
 31
0.0
  0
ARC
  5
438
  8
0
 10
126.9223479746417
 20
72.268846667534945
 30
0.0
 40
0.4999999999998864
 50
270.0
 51
0.0000000000130296
  0
LINE
  5
439
  8
0
 10
127.4223479746417
 20
74.268846667535058
 30
0.0
 11
127.4223479746417
 21
72.268846667535044
 31
0.0
  0
ARC
  5
43A
  8
0
 10
126.9223479746417
 20
74.268846667535172
 30
0.0
 40
0.5
 50
0.0
 51
90.000000000013031
  0
LINE
  5
43B
  8
0
 10
126.9223479746417
 20
74.768846667535044
 30
0.0
 11
41.922347974641752
 21
74.768846667535044
 31
0.0
  0
ARC
  5
43C
  8
0
 10
41.922347974641752
 20
38.768846667535108
 30
0.0
 40
35.999999999999943
 50
90.0
 51
179.19299050692899
  0
ARC
  5
43D
  8
0
 10
6.4258692760440681
 20
39.268846667535122
 30
0.0
 40
0.5000000000000038
 50
179.1929905069363
 51
269.99999999998721
  0
LINE
  5
43E
  8
0
 10
8.4260795257532664
 20
38.768846667535058
 30
0.0
 11
6.4258692760439544
 21
38.768846667535058
 31
0.0
  0
ARC
  5
43F
  8
0
 10
8.4260795257532664
 20
39.268846667534937
 30
0.0
 40
0.4999999999998864
 50
270.0
 51
359.1448073583357
  0
ARC
  5
440
  8
0
 10
41.922347974641873
 20
38.768846667534888
 30
0.0
 40
33.000000000000171
 50
90.000000000000185
 51
179.14480735832441
  0
LINE
  5
441
  8
0
 10
41.922347974641752
 20
71.768846667535058
 30
0.0
 11
62.922347974641752
 21
71.768846667535087
 31
0.0
  0
ARC
  5
442
  8
0
 10
62.922347974641639
 20
71.268846667534973
 30
0.0
 40
0.5000000000001137
 50
0.0
 51
89.999999999977206
  0
LINE
  5
443
  8
0
 10
63.422347974641752
 20
71.268846667535058
 30
0.0
 11
63.422347974641752
 21
20.26884666753503
 31
0.0
  0
ARC
  5
444
  8
0
 10
66.922347974641752
 20
20.26884666753509
 30
0.0
 40
3.5
 50
180.0
 51
269.99999999999909
  0
LINE
  5
445
  8
0
 10
76.922347974641752
 20
16.76884666753508
 30
0.0
 11
66.922347974641752
 21
16.768846667535058
 31
0.0
  0
ARC
  5
446
  8
0
 10
76.922347974641639
 20
16.268846667534969
 30
0.0
 40
0.5000000000001137
 50
0.0
 51
89.999999999977206
  0
LINE
  5
447
  8
0
 10
77.422347974641752
 20
16.268846667535058
 30
0.0
 11
77.422347974641752
 21
14.26884666753506
 31
0.0
  0
ARC
  5
448
  8
0
 10
77.922347974641866
 20
14.26884666753514
 30
0.0
 40
0.5000000000001137
 50
180.0
 51
269.99999999997721
  0
LINE
  5
449
  8
0
 10
86.922347974641752
 20
13.76884666753506
 30
0.0
 11
77.922347974641752
 21
13.76884666753506
 31
0.0
  0
ARC
  5
44A
  8
0
 10
86.922347974641639
 20
14.26884666753514
 30
0.0
 40
0.5000000000000853
 50
270.00000000001302
 51
359.99999999999022
  0
LINE
  5
44B
  8
0
 10
87.422347974641767
 20
16.268846667535058
 30
0.0
 11
87.422347974641767
 21
14.26884666753506
 31
0.0
  0
ARC
  5
44C
  8
0
 10
87.922347974641866
 20
16.268846667534969
 30
0.0
 40
0.5000000000000853
 50
90.000000000013031
 51
179.99999999999019
  0
ENDBLK
  5
44E
  8
0
  0
ENDSEC
  0
SECTION
  2
ENTITIES
  0
LINE
  5
26C
  8
0
 10
2142.3608877323081
 20
1993.671965104181
 30
0.0
 11
2142.3608877323081
 21
2044.6719651041819
 31
0.0
  0
ARC
  5
26D
  8
0
 10
2142.8608877323081
 20
2044.6719651041819
 30
0.0
 40
0.5000000000000853
 50
90.000000000013031
 51
179.99999999999019
  0
LINE
  5
26E
  8
0
 10
2142.8608877323081
 20
2045.1719651041819
 30
0.0
 11
2173.8608877323081
 21
2045.1719651041819
 31
0.0
  0
ARC
  5
26F
  8
0
 10
2173.8608877323081
 20
2044.6719651041819
 30
0.0
 40
0.5000000000001137
 50
0.0
 51
89.999999999977206
  0
LINE
  5
270
  8
0
 10
2174.3608877323081
 20
2044.6719651041819
 30
0.0
 11
2174.3608877323081
 21
1993.671965104181
 31
0.0
  0
ARC
  5
271
  8
0
 10
2173.8608877323081
 20
1993.6719651041819
 30
0.0
 40
0.5000000000000853
 50
270.00000000001302
 51
359.99999999999022
  0
LINE
  5
272
  8
0
 10
2173.8608877323081
 20
1993.171965104181
 30
0.0
 11
2142.8608877323081
 21
1993.171965104181
 31
0.0
  0
ARC
  5
273
  8
0
 10
2142.8608877323081
 20
1993.6719651041819
 30
0.0
 40
0.5000000000001137
 50
180.0
 51
269.99999999997721
  0
LINE
  5
274
  8
0
 10
2163.8608877323081
 20
1990.171965104181
 30
0.0
 11
2173.8608877323081
 21
1990.171965104181
 31
0.0
  0
ARC
  5
275
  8
0
 10
2173.8608877323081
 20
1993.6719651041819
 30
0.0
 40
3.5000000000000848
 50
270.00000000000182
 51
359.99999999999858
  0
LINE
  5
276
  8
0
 10
2177.3608877323081
 20
2026.4719651041819
 30
0.0
 11
2177.3608877323081
 21
1993.671965104181
 31
0.0
  0
ARC
  5
277
  8
0
 10
2177.8608877323081
 20
2026.4719651041819
 30
0.0
 40
0.5000000000000853
 50
90.000000000013031
 51
179.99999999999019
  0
LINE
  5
278
  8
0
 10
2177.8608877323081
 20
2026.9719651041819
 30
0.0
 11
2198.8608877323081
 21
2026.9719651041819
 31
0.0
  0
ARC
  5
279
  8
0
 10
2198.8608877323081
 20
2027.4719651041819
 30
0.0
 40
0.4999999999998864
 50
270.0
 51
0.0000000000130296
  0
LINE
  5
27A
  8
0
 10
2199.3608877323081
 20
2029.4719651041819
 30
0.0
 11
2199.3608877323081
 21
2027.4719651041819
 31
0.0
  0
ARC
  5
27B
  8
0
 10
2198.8608877323081
 20
2029.4719651041819
 30
0.0
 40
0.5
 50
0.0
 51
90.000000000013031
  0
LINE
  5
27C
  8
0
 10
2177.8608877323081
 20
2029.9719651041819
 30
0.0
 11
2198.8608877323081
 21
2029.9719651041819
 31
0.0
  0
ARC
  5
27D
  8
0
 10
2177.8608877323081
 20
2030.4719651041819
 30
0.0
 40
0.5000000000001137
 50
180.0
 51
269.99999999997721
  0
LINE
  5
27E
  8
0
 10
2177.3608877323081
 20
2044.6719651041819
 30
0.0
 11
2177.3608877323081
 21
2030.4719651041819
 31
0.0
  0
ARC
  5
27F
  8
0
 10
2177.8608877323081
 20
2044.6719651041819
 30
0.0
 40
0.5000000000000853
 50
90.000000000013031
 51
179.99999999999019
  0
LINE
  5
280
  8
0
 10
2177.8608877323081
 20
2045.1719651041819
 30
0.0
 11
2202.8608877323081
 21
2045.1719651041819
 31
0.0
  0
ARC
  5
281
  8
0
 10
2202.8608877323081
 20
2045.6719651041819
 30
0.0
 40
0.4999999999998864
 50
270.0
 51
0.0000000000130296
  0
LINE
  5
282
  8
0
 10
2203.3608877323081
 20
2047.6719651041819
 30
0.0
 11
2203.3608877323081
 21
2045.6719651041819
 31
0.0
  0
ARC
  5
283
  8
0
 10
2202.8608877323081
 20
2047.6719651041819
 30
0.0
 40
0.5
 50
0.0
 51
90.000000000013031
  0
LINE
  5
284
  8
0
 10
2202.8608877323081
 20
2048.1719651041822
 30
0.0
 11
2117.8608877323081
 21
2048.1719651041822
 31
0.0
  0
ARC
  5
285
  8
0
 10
2117.8608877323081
 20
2012.1719651041819
 30
0.0
 40
35.999999999999943
 50
90.0
 51
179.19299050692899
  0
ARC
  5
286
  8
0
 10
2082.3644090337102
 20
2012.6719651041819
 30
0.0
 40
0.5000000000000038
 50
179.1929905069363
 51
269.99999999998721
  0
LINE
  5
287
  8
0
 10
2084.364619283419
 20
2012.1719651041819
 30
0.0
 11
2082.3644090337102
 21
2012.1719651041819
 31
0.0
  0
ARC
  5
288
  8
0
 10
2084.364619283419
 20
2012.6719651041819
 30
0.0
 40
0.4999999999998864
 50
270.0
 51
359.1448073583357
  0
ARC
  5
289
  8
0
 10
2117.8608877323081
 20
2012.1719651041819
 30
0.0
 40
33.000000000000171
 50
90.000000000000185
 51
179.14480735832441
  0
LINE
  5
28A
  8
0
 10
2117.8608877323081
 20
2045.1719651041819
 30
0.0
 11
2138.8608877323081
 21
2045.1719651041819
 31
0.0
  0
ARC
  5
28B
  8
0
 10
2138.8608877323081
 20
2044.6719651041819
 30
0.0
 40
0.5000000000001137
 50
0.0
 51
89.999999999977206
  0
LINE
  5
28C
  8
0
 10
2139.3608877323081
 20
2044.6719651041819
 30
0.0
 11
2139.3608877323081
 21
1993.671965104181
 31
0.0
  0
ARC
  5
28D
  8
0
 10
2142.8608877323081
 20
1993.6719651041819
 30
0.0
 40
3.5
 50
180.0
 51
269.99999999999909
  0
LINE
  5
28E
  8
0
 10
2152.8608877323081
 20
1990.1719651041819
 30
0.0
 11
2142.8608877323081
 21
1990.171965104181
 31
0.0
  0
ARC
  5
28F
  8
0
 10
2152.8608877323081
 20
1989.6719651041819
 30
0.0
 40
0.5000000000001137
 50
0.0
 51
89.999999999977206
  0
LINE
  5
290
  8
0
 10
2153.3608877323081
 20
1989.6719651041819
 30
0.0
 11
2153.3608877323081
 21
1987.6719651041819
 31
0.0
  0
ARC
  5
291
  8
0
 10
2153.8608877323081
 20
1987.6719651041819
 30
0.0
 40
0.5000000000001137
 50
180.0
 51
269.99999999997721
  0
LINE
  5
292
  8
0
 10
2162.8608877323081
 20
1987.1719651041819
 30
0.0
 11
2153.8608877323081
 21
1987.1719651041819
 31
0.0
  0
ARC
  5
293
  8
0
 10
2162.8608877323081
 20
1987.6719651041819
 30
0.0
 40
0.5000000000000853
 50
270.00000000001302
 51
359.99999999999022
  0
LINE
  5
294
  8
0
 10
2163.3608877323081
 20
1989.6719651041819
 30
0.0
 11
2163.3608877323081
 21
1987.6719651041819
 31
0.0
  0
ARC
  5
295
  8
0
 10
2163.8608877323081
 20
1989.6719651041819
 30
0.0
 40
0.5000000000000853
 50
90.000000000013031
 51
179.99999999999019
  0
ENDSEC
  0
EOF
