  0
SECTION
  2
HEADER
  9
$ACADVER
  1
AC1009
  9
$INSBASE
 10
0.0
 20
0.0
 30
0.0
  9
$EXTMIN
 10
2796.8166054241151
 20
1129.9356053868501
 30
0.0
  9
$EXTMAX
 10
2885.6393667602401
 20
1164.974155774207
 30
0.0
  9
$LIMMIN
 10
0.0
 20
0.0
  9
$LIMMAX
 10
420.0
 20
297.0
  9
$ORTHOMODE
 70
     0
  9
$REGENMODE
 70
     1
  9
$FILLMODE
 70
     1
  9
$QTEXTMODE
 70
     0
  9
$MIRRTEXT
 70
     0
  9
$DRAGMODE
 70
     2
  9
$LTSCALE
 40
1.0
  9
$OSMODE
 70
  4095
  9
$ATTMODE
 70
     1
  9
$TEXTSIZE
 40
2.5
  9
$TRACEWID
 40
1.0
  9
$TEXTSTYLE
  7
STANDARD
  9
$CLAYER
  8
0
  9
$CELTYPE
  6
BYLAYER
  9
$CECOLOR
 62
   256
  9
$DIMSCALE
 40
1.0
  9
$DIMASZ
 40
2.5
  9
$DIMEXO
 40
0.625
  9
$DIMDLI
 40
3.75
  9
$DIMRND
 40
0.0
  9
$DIMDLE
 40
0.0
  9
$DIMEXE
 40
1.25
  9
$DIMTP
 40
0.0
  9
$DIMTM
 40
0.0
  9
$DIMTXT
 40
2.5
  9
$DIMCEN
 40
2.5
  9
$DIMTSZ
 40
0.0
  9
$DIMTOL
 70
     0
  9
$DIMLIM
 70
     0
  9
$DIMTIH
 70
     0
  9
$DIMTOH
 70
     0
  9
$DIMSE1
 70
     0
  9
$DIMSE2
 70
     0
  9
$DIMTAD
 70
     1
  9
$DIMZIN
 70
     8
  9
$DIMBLK
  1

  9
$DIMASO
 70
     1
  9
$DIMSHO
 70
     1
  9
$DIMPOST
  1

  9
$DIMAPOST
  1

  9
$DIMALT
 70
     0
  9
$DIMALTD
 70
     3
  9
$DIMALTF
 40
0.03937007874016
  9
$DIMLFAC
 40
1.0
  9
$DIMTOFL
 70
     1
  9
$DIMTVP
 40
0.0
  9
$DIMTIX
 70
     0
  9
$DIMSOXD
 70
     0
  9
$DIMSAH
 70
     0
  9
$DIMBLK1
  1

  9
$DIMBLK2
  1

  9
$DIMSTYLE
  2
ISO-25
  9
$DIMCLRD
 70
     0
  9
$DIMCLRE
 70
     0
  9
$DIMCLRT
 70
     0
  9
$DIMTFAC
 40
1.0
  9
$DIMGAP
 40
0.625
  9
$LUNITS
 70
     2
  9
$LUPREC
 70
     4
  9
$SKETCHINC
 40
1.0
  9
$FILLETRAD
 40
0.0
  9
$AUNITS
 70
     0
  9
$AUPREC
 70
     0
  9
$MENU
  1
.
  9
$ELEVATION
 40
0.0
  9
$PELEVATION
 40
0.0
  9
$THICKNESS
 40
0.0
  9
$LIMCHECK
 70
     0
  9
$BLIPMODE
 70
     0
  9
$CHAMFERA
 40
0.0
  9
$CHAMFERB
 40
0.0
  9
$SKPOLY
 70
     0
  9
$TDCREATE
 40
2458143.3682612269
  9
$TDUPDATE
 40
2458143.3684283332
  9
$TDINDWG
 40
0.0001684375
  9
$TDUSRTIMER
 40
0.0001684259
  9
$USRTIMER
 70
     1
  9
$ANGBASE
 50
0.0
  9
$ANGDIR
 70
     0
  9
$PDMODE
 70
     0
  9
$PDSIZE
 40
0.0
  9
$PLINEWID
 40
0.0
  9
$COORDS
 70
     1
  9
$SPLFRAME
 70
     0
  9
$SPLINETYPE
 70
     6
  9
$SPLINESEGS
 70
     8
  9
$ATTDIA
 70
     1
  9
$ATTREQ
 70
     1
  9
$HANDLING
 70
     1
  9
$HANDSEED
  5
37B
  9
$SURFTAB1
 70
     6
  9
$SURFTAB2
 70
     6
  9
$SURFTYPE
 70
     6
  9
$SURFU
 70
     6
  9
$SURFV
 70
     6
  9
$UCSNAME
  2

  9
$UCSORG
 10
0.0
 20
0.0
 30
0.0
  9
$UCSXDIR
 10
1.0
 20
0.0
 30
0.0
  9
$UCSYDIR
 10
0.0
 20
1.0
 30
0.0
  9
$PUCSNAME
  2

  9
$PUCSORG
 10
0.0
 20
0.0
 30
0.0
  9
$PUCSXDIR
 10
1.0
 20
0.0
 30
0.0
  9
$PUCSYDIR
 10
0.0
 20
1.0
 30
0.0
  9
$USERI1
 70
     0
  9
$USERI2
 70
     0
  9
$USERI3
 70
     0
  9
$USERI4
 70
     0
  9
$USERI5
 70
     0
  9
$USERR1
 40
0.0
  9
$USERR2
 40
0.0
  9
$USERR3
 40
0.0
  9
$USERR4
 40
0.0
  9
$USERR5
 40
0.0
  9
$WORLDVIEW
 70
     1
  9
$SHADEDGE
 70
     3
  9
$SHADEDIF
 70
    70
  9
$TILEMODE
 70
     1
  9
$MAXACTVP
 70
    64
  9
$PLIMCHECK
 70
     0
  9
$PEXTMIN
 10
0.0
 20
0.0
 30
0.0
  9
$PEXTMAX
 10
0.0
 20
0.0
 30
0.0
  9
$PLIMMIN
 10
0.0
 20
0.0
  9
$PLIMMAX
 10
12.0
 20
9.0
  9
$UNITMODE
 70
     0
  9
$VISRETAIN
 70
     1
  9
$PLINEGEN
 70
     0
  9
$PSLTSCALE
 70
     1
  0
ENDSEC
  0
SECTION
  2
TABLES
  0
TABLE
  2
VPORT
 70
     1
  0
VPORT
  2
*ACTIVE
 70
     0
 10
0.0
 20
0.0
 11
1.0
 21
1.0
 12
2841.2279860921772
 22
1147.454880580528
 13
0.0
 23
0.0
 14
10.0
 24
10.0
 15
10.0
 25
10.0
 16
0.0
 26
0.0
 36
1.0
 17
0.0
 27
0.0
 37
0.0
 40
40.322223854292552
 41
2.210392902408111
 42
50.0
 43
0.0
 44
0.0
 50
0.0
 51
0.0
 71
     0
 72
  1000
 73
     1
 74
     3
 75
     0
 76
     1
 77
     0
 78
     0
  0
ENDTAB
  0
TABLE
  2
LTYPE
 70
     1
  0
LTYPE
  2
CONTINUOUS
 70
     0
  3
Solid line
 72
    65
 73
     0
 40
0.0
  0
ENDTAB
  0
TABLE
  2
LAYER
 70
     1
  0
LAYER
  2
0
 70
     0
 62
     7
  6
CONTINUOUS
  0
ENDTAB
  0
TABLE
  2
STYLE
 70
     3
  0
STYLE
  2
STANDARD
 70
     0
 40
0.0
 41
1.0
 50
0.0
 71
     0
 42
2.5
  3
txt
  4

  0
STYLE
  2
ANNOTATIVE
 70
     0
 40
0.0
 41
1.0
 50
0.0
 71
     0
 42
2.5
  3
txt
  4

  0
STYLE
  2
ROMANT
 70
     0
 40
2.2000000000000002
 41
1.0
 50
0.0
 71
     0
 42
2.5
  3
romant.shx
  4

  0
ENDTAB
  0
TABLE
  2
VIEW
 70
     1
  0
ENDTAB
  0
TABLE
  2
UCS
 70
     0
  0
ENDTAB
  0
TABLE
  2
APPID
 70
    10
  0
APPID
  2
ACAD
 70
     0
  0
APPID
  2
ACAD_PSEXT
 70
     0
  0
APPID
  2
ACADANNOPO
 70
     0
  0
APPID
  2
ACADANNOTATIVE
 70
     0
  0
APPID
  2
ACAD_DSTYLE_DIMJAG
 70
     0
  0
APPID
  2
ACAD_DSTYLE_DIMTALN
 70
     0
  0
APPID
  2
ACAD_MLEADERVER
 70
     0
  0
APPID
  2
ACAD_NAV_VCDISPLAY
 70
     0
  0
APPID
  2
GRADIENTCOLOR1ACI
 70
     0
  0
APPID
  2
GRADIENTCOLOR2ACI
 70
     0
  0
ENDTAB
  0
TABLE
  2
DIMSTYLE
 70
     4
  0
DIMSTYLE
  2
STANDARD
 70
     0
  3

  4

  5

  6

  7

 40
1.0
 41
0.18
 42
0.0625
 43
0.38
 44
0.18
 45
0.0
 46
0.0
 47
0.0
 48
0.0
140
0.18
141
0.09
142
0.0
143
25.399999999999999
144
1.0
145
0.0
146
1.0
147
0.09
 71
     0
 72
     0
 73
     1
 74
     1
 75
     0
 76
     0
 77
     0
 78
     0
170
     0
171
     2
172
     0
173
     0
174
     0
175
     0
176
     0
177
     0
178
     0
  0
DIMSTYLE
  2
ANNOTATIVE
 70
     0
  3

  4

  5

  6

  7

 40
0.0
 41
2.5
 42
0.625
 43
3.75
 44
1.25
 45
0.0
 46
0.0
 47
0.0
 48
0.0
140
2.5
141
2.5
142
0.0
143
0.03937007874016
144
1.0
145
0.0
146
1.0
147
0.625
 71
     0
 72
     0
 73
     0
 74
     0
 75
     0
 76
     0
 77
     1
 78
     8
170
     0
171
     3
172
     1
173
     0
174
     0
175
     0
176
     0
177
     0
178
     0
  0
DIMSTYLE
  2
ISO-25
 70
     0
  3

  4

  5

  6

  7

 40
1.0
 41
2.5
 42
0.625
 43
3.75
 44
1.25
 45
0.0
 46
0.0
 47
0.0
 48
0.0
140
2.5
141
2.5
142
0.0
143
0.03937007874016
144
1.0
145
0.0
146
1.0
147
0.625
 71
     0
 72
     0
 73
     0
 74
     0
 75
     0
 76
     0
 77
     1
 78
     8
170
     0
171
     3
172
     1
173
     0
174
     0
175
     0
176
     0
177
     0
178
     0
  0
DIMSTYLE
  2
MELÝH_A3
 70
     0
  3

  4

  5

  6

  7

 40
1.0
 41
1.3
 42
0.0
 43
3.75
 44
0.2
 45
0.0
 46
0.0
 47
0.0
 48
0.0
140
1.0
141
0.2
142
0.0
143
0.03937007874016
144
1.0
145
0.0
146
1.0
147
0.7
 71
     0
 72
     0
 73
     0
 74
     0
 75
     0
 76
     0
 77
     1
 78
     8
170
     0
171
     3
172
     0
173
     0
174
     0
175
     0
176
   242
177
   242
178
   242
  0
ENDTAB
  0
ENDSEC
  0
SECTION
  2
BLOCKS
  0
BLOCK
  8
0
  2
$MODEL_SPACE
 70
     0
 10
0.0
 20
0.0
 30
0.0
  3
$MODEL_SPACE
  1

  0
ENDBLK
  5
21
  8
0
  0
BLOCK
 67
     1
  8
0
  2
$PAPER_SPACE
 70
     0
 10
0.0
 20
0.0
 30
0.0
  3
$PAPER_SPACE
  1

  0
ENDBLK
  5
D5
 67
     1
  8
0
  0
BLOCK
  8
0
  2
*X2
 70
     1
 10
0.0
 20
0.0
 30
0.0
  3
*X2
  1

  0
LINE
  5
2D8
  8
0
 62
     0
 10
86.321287361958383
 20
0.1267080909740628
 30
0.0
 11
88.552817036678874
 21
2.358237765694553
 31
0.0
  0
LINE
  5
2D9
  8
0
 62
     0
 10
85.669924652300338
 20
0.3733709934228955
 30
0.0
 11
88.18297730301623
 21
2.8864236441388011
 31
0.0
  0
LINE
  5
2DA
  8
0
 62
     0
 10
85.300084918637765
 20
0.9015568718672284
 30
0.0
 11
87.813137569353643
 21
3.4146095225831341
 31
0.0
  0
LINE
  5
2DB
  8
0
 62
     0
 10
86.294473766792805
 20
2.793971332129245
 30
0.0
 11
87.443297835690984
 21
3.9427954010274102
 31
0.0
  0
LINE
  5
2DC
  8
0
 62
     0
 10
85.924634033130218
 20
3.32215721057355
 30
0.0
 11
87.073458102028411
 21
4.4709812794717152
 31
0.0
  0
LINE
  5
2DD
  8
0
 62
     0
 10
85.554794299467616
 20
3.850343089017854
 30
0.0
 11
86.703618368365767
 21
4.9991671579159913
 31
0.0
  0
LINE
  5
2DE
  8
0
 62
     0
 10
85.184954565804944
 20
4.378528967462131
 30
0.0
 11
86.333778634703151
 21
5.5273530363603243
 31
0.0
  0
LINE
  5
2DF
  8
0
 62
     0
 10
84.815114832142342
 20
4.9067148459064347
 30
0.0
 11
85.963938901040535
 21
6.0555389148046004
 31
0.0
  0
LINE
  5
2E0
  8
0
 62
     0
 10
84.445275098479726
 20
5.4349007243506833
 30
0.0
 11
85.594099167377948
 21
6.583724793248904
 31
0.0
  0
LINE
  5
2E1
  8
0
 62
     0
 10
84.075435364817153
 20
5.9630866027950731
 30
0.0
 11
85.224259433715304
 21
7.1119106716932086
 31
0.0
  0
LINE
  5
2E2
  8
0
 62
     0
 10
83.705595631154537
 20
6.491272481239406
 30
0.0
 11
84.854419700052674
 21
7.6400965501375424
 31
0.0
  0
LINE
  5
2E3
  8
0
 62
     0
 10
83.335755897491907
 20
7.0194583596836528
 30
0.0
 11
84.484579966390072
 21
8.1682824285817901
 31
0.0
  0
LINE
  5
2E4
  8
0
 62
     0
 10
82.965916163829306
 20
7.5476442381279583
 30
0.0
 11
84.114740232727485
 21
8.6964683070260946
 31
0.0
  0
LINE
  5
2E5
  8
0
 62
     0
 10
82.596076430166676
 20
8.0758301165722344
 30
0.0
 11
83.74490049906484
 21
9.2246541854704276
 31
0.0
  0
LINE
  5
2E6
  8
0
 62
     0
 10
82.22623669650406
 20
8.6040159950165371
 30
0.0
 11
83.375060765402225
 21
9.7528400639147321
 31
0.0
  0
LINE
  5
2E7
  8
0
 62
     0
 10
81.856396962841416
 20
9.132201873460815
 30
0.0
 11
83.005221031739595
 21
10.28102594235898
 31
0.0
  0
LINE
  5
2E8
  8
0
 62
     0
 10
81.486557229178885
 20
9.6603877519051764
 30
0.0
 11
82.635381298077021
 21
10.809211820803309
 31
0.0
  0
LINE
  5
2E9
  8
0
 62
     0
 10
81.116717495516212
 20
10.188573630349479
 30
0.0
 11
82.265541564414349
 21
11.33739769924761
 31
0.0
  0
LINE
  5
2EA
  8
0
 62
     0
 10
80.746877761853625
 20
10.716759508793761
 30
0.0
 11
81.895701830751804
 21
11.86558357769192
 31
0.0
  0
LINE
  5
2EB
  8
0
 62
     0
 10
80.377038028191038
 20
11.24494538723806
 30
0.0
 11
81.525862097089174
 21
12.393769456136219
 31
0.0
  0
LINE
  5
2EC
  8
0
 62
     0
 10
80.007198294528337
 20
11.773131265682331
 30
0.0
 11
81.156022363426516
 21
12.921955334580501
 31
0.0
  0
LINE
  5
2ED
  8
0
 62
     0
 10
79.637358560865749
 20
12.30131714412661
 30
0.0
 11
80.786182629763914
 21
13.450141213024811
 31
0.0
  0
LINE
  5
2EE
  8
0
 62
     0
 10
79.267518827203105
 20
12.82950302257089
 30
0.0
 11
80.416342896101327
 21
13.97832709146911
 31
0.0
  0
LINE
  5
2EF
  8
0
 62
     0
 10
78.897679093540546
 20
13.35768890101525
 30
0.0
 11
80.046503162438682
 21
14.506512969913381
 31
0.0
  0
LINE
  5
2F0
  8
0
 62
     0
 10
78.527839359877873
 20
13.885874779459529
 30
0.0
 11
79.676663428776067
 21
15.03469884835769
 31
0.0
  0
LINE
  5
2F1
  8
0
 62
     0
 10
78.157999626215243
 20
14.41406065790377
 30
0.0
 11
79.306823695113479
 21
15.562884726802
 31
0.0
  0
LINE
  5
2F2
  8
0
 62
     0
 10
77.78815989255267
 20
14.94224653634811
 30
0.0
 11
78.936983961450835
 21
16.091070605246301
 31
0.0
  0
LINE
  5
2F3
  8
0
 62
     0
 10
77.418320158890026
 20
15.470432414792439
 30
0.0
 11
78.567144227788205
 21
16.619256483690631
 31
0.0
  0
LINE
  5
2F4
  8
0
 62
     0
 10
77.04848042522741
 20
15.99861829323671
 30
0.0
 11
78.197304494125632
 21
17.147442362134939
 31
0.0
  0
LINE
  5
2F5
  8
0
 62
     0
 10
76.678640691564823
 20
16.52680417168099
 30
0.0
 11
77.827464760462973
 21
17.675628240579179
 31
0.0
  0
LINE
  5
2F6
  8
0
 62
     0
 10
75.946186656499435
 20
16.692375748722551
 30
0.0
 11
77.457625026800372
 21
18.203814119023519
 31
0.0
  0
LINE
  5
2F7
  8
0
 62
     0
 10
75.048161044392458
 20
16.692375748722469
 30
0.0
 11
76.648161044392197
 21
18.292375748722229
 31
0.0
  0
LINE
  5
2F8
  8
0
 62
     0
 10
74.150135432285566
 20
16.692375748722501
 30
0.0
 11
75.750135432285276
 21
18.292375748722229
 31
0.0
  0
LINE
  5
2F9
  8
0
 62
     0
 10
73.252109820178603
 20
16.692375748722501
 30
0.0
 11
74.852109820178313
 21
18.292375748722211
 31
0.0
  0
LINE
  5
2FA
  8
0
 62
     0
 10
72.354084208071669
 20
16.692375748722441
 30
0.0
 11
73.954084208071393
 21
18.292375748722211
 31
0.0
  0
LINE
  5
2FB
  8
0
 62
     0
 10
71.456058595964805
 20
16.692375748722501
 30
0.0
 11
73.056058595964487
 21
18.292375748722179
 31
0.0
  0
LINE
  5
2FC
  8
0
 62
     0
 10
70.558032983857814
 20
16.692375748722409
 30
0.0
 11
72.158032983857566
 21
18.292375748722179
 31
0.0
  0
LINE
  5
2FD
  8
0
 62
     0
 10
69.660007371750893
 20
16.692375748722441
 30
0.0
 11
71.260007371750604
 21
18.292375748722151
 31
0.0
  0
LINE
  5
2FE
  8
0
 62
     0
 10
68.761981759643987
 20
16.692375748722441
 30
0.0
 11
70.361981759643669
 21
18.292375748722119
 31
0.0
  0
LINE
  5
2FF
  8
0
 62
     0
 10
67.863956147536982
 20
16.692375748722348
 30
0.0
 11
69.463956147536749
 21
18.292375748722119
 31
0.0
  0
LINE
  5
300
  8
0
 62
     0
 10
66.96593053543009
 20
16.69237574872238
 30
0.0
 11
68.565930535429857
 21
18.292375748722151
 31
0.0
  0
LINE
  5
301
  8
0
 62
     0
 10
66.067904923323169
 20
16.69237574872238
 30
0.0
 11
67.66790492332288
 21
18.29237574872209
 31
0.0
  0
LINE
  5
302
  8
0
 62
     0
 10
65.169879311216278
 20
16.692375748722409
 30
0.0
 11
66.769879311215959
 21
18.292375748722058
 31
0.0
  0
LINE
  5
303
  8
0
 62
     0
 10
64.271853699109386
 20
16.69237574872238
 30
0.0
 11
65.871853699109039
 21
18.292375748722058
 31
0.0
  0
LINE
  5
304
  8
0
 62
     0
 10
63.37382808700238
 20
16.692375748722331
 30
0.0
 11
64.973828087002119
 21
18.29237574872209
 31
0.0
  0
LINE
  5
305
  8
0
 62
     0
 10
62.475802474895509
 20
16.69237574872238
 30
0.0
 11
64.075802474895227
 21
18.29237574872209
 31
0.0
  0
LINE
  5
306
  8
0
 62
     0
 10
61.577776862788568
 20
16.692375748722331
 30
0.0
 11
63.177776862788299
 21
18.292375748722041
 31
0.0
  0
LINE
  5
307
  8
0
 62
     0
 10
60.679751250681619
 20
16.692375748722299
 30
0.0
 11
62.279751250681329
 21
18.292375748722041
 31
0.0
  0
LINE
  5
308
  8
0
 62
     0
 10
59.781725638574763
 20
16.692375748722348
 30
0.0
 11
61.381725638574437
 21
18.292375748722009
 31
0.0
  0
LINE
  5
309
  8
0
 62
     0
 10
58.883700026467778
 20
16.692375748722299
 30
0.0
 11
60.483700026467517
 21
18.292375748722009
 31
0.0
  0
LINE
  5
30A
  8
0
 62
     0
 10
57.985674414360858
 20
16.69237574872227
 30
0.0
 11
59.585674414360561
 21
18.292375748722009
 31
0.0
  0
LINE
  5
30B
  8
0
 62
     0
 10
57.087648802253938
 20
16.692375748722299
 30
0.0
 11
58.687648802253591
 21
18.29237574872198
 31
0.0
  0
LINE
  5
30C
  8
0
 62
     0
 10
56.18962319014696
 20
16.69237574872221
 30
0.0
 11
57.789623190146699
 21
18.29237574872198
 31
0.0
  0
LINE
  5
30D
  8
0
 62
     0
 10
55.29159757804009
 20
16.692375748722242
 30
0.0
 11
56.891597578039772
 21
18.29237574872192
 31
0.0
  0
LINE
  5
30E
  8
0
 62
     0
 10
54.39357196593312
 20
16.692375748722242
 30
0.0
 11
55.993571965932802
 21
18.29237574872192
 31
0.0
  0
LINE
  5
30F
  8
0
 62
     0
 10
53.495546353826199
 20
16.692375748722181
 30
0.0
 11
55.09554635382591
 21
18.292375748721891
 31
0.0
  0
LINE
  5
310
  8
0
 62
     0
 10
52.597520741719308
 20
16.69237574872221
 30
0.0
 11
54.197520741718989
 21
18.292375748721891
 31
0.0
  0
LINE
  5
311
  8
0
 62
     0
 10
51.699495129612359
 20
16.69237574872221
 30
0.0
 11
53.299495129612041
 21
18.292375748721891
 31
0.0
  0
LINE
  5
312
  8
0
 62
     0
 10
50.801469517505438
 20
16.69237574872221
 30
0.0
 11
52.40146951750512
 21
18.29237574872187
 31
0.0
  0
LINE
  5
313
  8
0
 62
     0
 10
49.90344390539849
 20
16.692375748722181
 30
0.0
 11
51.503443905398171
 21
18.29237574872187
 31
0.0
  0
LINE
  5
314
  8
0
 62
     0
 10
49.005418293291562
 20
16.692375748722121
 30
0.0
 11
50.605418293291279
 21
18.29237574872187
 31
0.0
  0
LINE
  5
315
  8
0
 62
     0
 10
48.107392681184649
 20
16.692375748722149
 30
0.0
 11
49.707392681184302
 21
18.292375748721842
 31
0.0
  0
LINE
  5
316
  8
0
 62
     0
 10
47.2093670690777
 20
16.692375748722121
 30
0.0
 11
48.809367069077382
 21
18.292375748721781
 31
0.0
  0
LINE
  5
317
  8
0
 62
     0
 10
46.311341456970808
 20
16.692375748722121
 30
0.0
 11
47.91134145697049
 21
18.292375748721781
 31
0.0
  0
LINE
  5
318
  8
0
 62
     0
 10
45.413315844863881
 20
16.692375748722121
 30
0.0
 11
47.013315844863541
 21
18.29237574872181
 31
0.0
  0
LINE
  5
319
  8
0
 62
     0
 10
44.515290232756911
 20
16.6923757487221
 30
0.0
 11
46.115290232756621
 21
18.29237574872181
 31
0.0
  0
LINE
  5
31A
  8
0
 62
     0
 10
43.617264620650019
 20
16.6923757487221
 30
0.0
 11
45.217264620649637
 21
18.292375748721721
 31
0.0
  0
LINE
  5
31B
  8
0
 62
     0
 10
42.719239008543063
 20
16.692375748722071
 30
0.0
 11
44.319239008542752
 21
18.292375748721749
 31
0.0
  0
LINE
  5
31C
  8
0
 62
     0
 10
41.821213396436143
 20
16.6923757487221
 30
0.0
 11
43.421213396435832
 21
18.292375748721781
 31
0.0
  0
LINE
  5
31D
  8
0
 62
     0
 10
40.923187784329201
 20
16.692375748722039
 30
0.0
 11
42.523187784328933
 21
18.292375748721749
 31
0.0
  0
LINE
  5
31E
  8
0
 62
     0
 10
40.025162172222281
 20
16.692375748722011
 30
0.0
 11
41.625162172221991
 21
18.292375748721721
 31
0.0
  0
LINE
  5
31F
  8
0
 62
     0
 10
39.12713656011536
 20
16.692375748722011
 30
0.0
 11
40.727136560115007
 21
18.292375748721689
 31
0.0
  0
LINE
  5
320
  8
0
 62
     0
 10
38.22911094800844
 20
16.692375748722011
 30
0.0
 11
39.829110948008122
 21
18.292375748721689
 31
0.0
  0
LINE
  5
321
  8
0
 62
     0
 10
37.331085335901491
 20
16.692375748721979
 30
0.0
 11
38.931085335901201
 21
18.292375748721689
 31
0.0
  0
LINE
  5
322
  8
0
 62
     0
 10
36.433059723794599
 20
16.692375748721979
 30
0.0
 11
38.033059723794231
 21
18.292375748721639
 31
0.0
  0
LINE
  5
323
  8
0
 62
     0
 10
35.535034111687622
 20
16.692375748721961
 30
0.0
 11
37.135034111687297
 21
18.292375748721639
 31
0.0
  0
LINE
  5
324
  8
0
 62
     0
 10
34.63700849958073
 20
16.692375748721979
 30
0.0
 11
36.237008499580412
 21
18.292375748721639
 31
0.0
  0
LINE
  5
325
  8
0
 62
     0
 10
33.738982887473753
 20
16.692375748721901
 30
0.0
 11
35.33898288747347
 21
18.292375748721611
 31
0.0
  0
LINE
  5
326
  8
0
 62
     0
 10
32.840957275366861
 20
16.692375748721961
 30
0.0
 11
34.440957275366543
 21
18.292375748721639
 31
0.0
  0
LINE
  5
327
  8
0
 62
     0
 10
31.942931663259941
 20
16.692375748721901
 30
0.0
 11
33.542931663259587
 21
18.292375748721579
 31
0.0
  0
LINE
  5
328
  8
0
 62
     0
 10
31.044906051152989
 20
16.692375748721869
 30
0.0
 11
32.644906051152702
 21
18.292375748721579
 31
0.0
  0
LINE
  5
329
  8
0
 62
     0
 10
30.1468804390461
 20
16.692375748721929
 30
0.0
 11
31.746880439045778
 21
18.292375748721611
 31
0.0
  0
LINE
  5
32A
  8
0
 62
     0
 10
29.248854826939091
 20
16.69237574872184
 30
0.0
 11
30.848854826938808
 21
18.29237574872155
 31
0.0
  0
LINE
  5
32B
  8
0
 62
     0
 10
28.350829214832199
 20
16.692375748721869
 30
0.0
 11
29.950829214831881
 21
18.292375748721518
 31
0.0
  0
LINE
  5
32C
  8
0
 62
     0
 10
27.452803602725311
 20
16.69237574872184
 30
0.0
 11
29.052803602724989
 21
18.292375748721518
 31
0.0
  0
LINE
  5
32D
  8
0
 62
     0
 10
26.554777990618309
 20
16.692375748721791
 30
0.0
 11
28.154777990618051
 21
18.29237574872155
 31
0.0
  0
LINE
  5
32E
  8
0
 62
     0
 10
25.656752378511442
 20
16.69237574872184
 30
0.0
 11
27.256752378511148
 21
18.29237574872155
 31
0.0
  0
LINE
  5
32F
  8
0
 62
     0
 10
24.758726766404489
 20
16.692375748721791
 30
0.0
 11
26.358726766404171
 21
18.292375748721469
 31
0.0
  0
LINE
  5
330
  8
0
 62
     0
 10
23.860701154297569
 20
16.692375748721808
 30
0.0
 11
25.460701154297261
 21
18.292375748721501
 31
0.0
  0
LINE
  5
331
  8
0
 62
     0
 10
22.962675542190681
 20
16.692375748721808
 30
0.0
 11
24.562675542190359
 21
18.292375748721501
 31
0.0
  0
LINE
  5
332
  8
0
 62
     0
 10
22.064649930083672
 20
16.69237574872173
 30
0.0
 11
23.664649930083439
 21
18.292375748721469
 31
0.0
  0
LINE
  5
333
  8
0
 62
     0
 10
21.16662431797678
 20
16.692375748721759
 30
0.0
 11
22.7666243179765
 21
18.292375748721469
 31
0.0
  0
LINE
  5
334
  8
0
 62
     0
 10
20.268598705869859
 20
16.69237574872173
 30
0.0
 11
21.868598705869509
 21
18.292375748721408
 31
0.0
  0
LINE
  5
335
  8
0
 62
     0
 10
19.370573093762911
 20
16.69237574872173
 30
0.0
 11
20.970573093762621
 21
18.29237574872144
 31
0.0
  0
LINE
  5
336
  8
0
 62
     0
 10
18.472547481656019
 20
16.69237574872173
 30
0.0
 11
20.072547481655729
 21
18.29237574872144
 31
0.0
  0
LINE
  5
337
  8
0
 62
     0
 10
17.574521869549041
 20
16.692375748721702
 30
0.0
 11
19.174521869548752
 21
18.292375748721408
 31
0.0
  0
LINE
  5
338
  8
0
 62
     0
 10
16.67649625744215
 20
16.692375748721702
 30
0.0
 11
18.276496257441831
 21
18.29237574872138
 31
0.0
  0
LINE
  5
339
  8
0
 62
     0
 10
15.778470645335171
 20
16.692375748721641
 30
0.0
 11
17.378470645334911
 21
18.292375748721351
 31
0.0
  0
LINE
  5
33A
  8
0
 62
     0
 10
14.88044503322825
 20
16.692375748721641
 30
0.0
 11
16.480445033227959
 21
18.292375748721351
 31
0.0
  0
LINE
  5
33B
  8
0
 62
     0
 10
13.98241942112136
 20
16.692375748721609
 30
0.0
 11
15.58241942112107
 21
18.292375748721351
 31
0.0
  0
LINE
  5
33C
  8
0
 62
     0
 10
13.08439380901441
 20
16.692375748721641
 30
0.0
 11
14.6843938090141
 21
18.29237574872133
 31
0.0
  0
LINE
  5
33D
  8
0
 62
     0
 10
12.186368196907489
 20
16.692375748721609
 30
0.0
 11
13.786368196907199
 21
18.29237574872133
 31
0.0
  0
LINE
  5
33E
  8
0
 62
     0
 10
11.338336834699049
 20
16.74236999862012
 30
0.0
 11
12.888342584800281
 21
18.292375748721351
 31
0.0
  0
LINE
  5
33F
  8
0
 62
     0
 10
10.9684971010364
 20
17.270555877064371
 30
0.0
 11
12.11732116993462
 21
18.419379945962589
 31
0.0
  0
LINE
  5
340
  8
0
 62
     0
 10
10.59865736737382
 20
17.798741755508669
 30
0.0
 11
11.747481436272009
 21
18.947565824406858
 31
0.0
  0
LINE
  5
341
  8
0
 62
     0
 10
10.2288176337112
 20
18.326927633953002
 30
0.0
 11
11.37764170260942
 21
19.47575170285123
 31
0.0
  0
LINE
  5
342
  8
0
 62
     0
 10
9.8589779000485862
 20
18.855113512397281
 30
0.0
 11
11.00780196894681
 21
20.003937581295471
 31
0.0
  0
LINE
  5
343
  8
0
 62
     0
 10
9.4891381663859704
 20
19.383299390841579
 30
0.0
 11
10.63796223528419
 21
20.532123459739811
 31
0.0
  0
LINE
  5
344
  8
0
 62
     0
 10
9.119298432723383
 20
19.91148526928589
 30
0.0
 11
10.26812250162155
 21
21.06030933818408
 31
0.0
  0
LINE
  5
345
  8
0
 62
     0
 10
8.7494586990607104
 20
20.43967114773017
 30
0.0
 11
9.898282767958932
 21
21.588495216628392
 31
0.0
  0
LINE
  5
346
  8
0
 62
     0
 10
8.379618965398123
 20
20.967857026174499
 30
0.0
 11
9.5284430342962878
 21
22.116681095072661
 31
0.0
  0
LINE
  5
347
  8
0
 62
     0
 10
8.0097792317355356
 20
21.4960429046188
 30
0.0
 11
9.1586033006337573
 21
22.644866973517029
 31
0.0
  0
LINE
  5
348
  8
0
 62
     0
 10
7.6399394980728621
 20
22.02422878306308
 30
0.0
 11
8.7887635669710846
 21
23.173052851961302
 31
0.0
  0
LINE
  5
349
  8
0
 62
     0
 10
7.2700997644102747
 20
22.552414661507392
 30
0.0
 11
8.4189238333084973
 21
23.70123873040561
 31
0.0
  0
LINE
  5
34A
  8
0
 62
     0
 10
6.9002600307476589
 20
23.080600539951689
 30
0.0
 11
8.049084099645853
 21
24.229424608849861
 31
0.0
  0
LINE
  5
34B
  8
0
 62
     0
 10
6.530420297085044
 20
23.608786418395969
 30
0.0
 11
7.6792443659832648
 21
24.75761048729419
 31
0.0
  0
LINE
  5
34C
  8
0
 62
     0
 10
6.1605805634224282
 20
24.13697229684027
 30
0.0
 11
7.1706589433347574
 21
25.147050676752599
 31
0.0
  0
LINE
  5
34D
  8
0
 62
     0
 10
5.7907408297598124
 20
24.665158175284599
 30
0.0
 11
6.9395648986580341
 21
25.813982244182831
 31
0.0
  0
LINE
  5
34E
  8
0
 62
     0
 10
5.4209010960971957
 20
25.193344053728879
 30
0.0
 11
6.5697251649954183
 21
26.342168122627101
 31
0.0
  0
LINE
  5
34F
  8
0
 62
     0
 10
5.0510613624345231
 20
25.721529932173151
 30
0.0
 11
6.1998854313327447
 21
26.87035400107138
 31
0.0
  0
LINE
  5
350
  8
0
 62
     0
 10
4.6812216287719934
 20
26.249715810617491
 30
0.0
 11
5.8300456976701582
 21
27.398539879515681
 31
0.0
  0
LINE
  5
351
  8
0
 62
     0
 10
4.3113818951093492
 20
26.77790168906176
 30
0.0
 11
5.46020596400757
 21
27.926725757959989
 31
0.0
  0
LINE
  5
352
  8
0
 62
     0
 10
3.941542161446733
 20
27.306087567506101
 30
0.0
 11
5.0903662303449257
 21
28.454911636404258
 31
0.0
  0
LINE
  5
353
  8
0
 62
     0
 10
3.571702427784146
 20
27.834273445950402
 30
0.0
 11
4.7205264966822824
 21
28.983097514848541
 31
0.0
  0
LINE
  5
354
  8
0
 62
     0
 10
3.201862694121473
 20
28.362459324394681
 30
0.0
 11
4.350686763019695
 21
29.511283393292899
 31
0.0
  0
LINE
  5
355
  8
0
 62
     0
 10
2.8320229604588572
 20
28.89064520283895
 30
0.0
 11
3.9808470293570788
 21
30.039469271737179
 31
0.0
  0
LINE
  5
356
  8
0
 62
     0
 10
2.4621832267962702
 20
29.418831081283319
 30
0.0
 11
3.611007295694463
 21
30.567655150181508
 31
0.0
  0
LINE
  5
357
  8
0
 62
     0
 10
2.092343493133654
 20
29.947016959727591
 30
0.0
 11
3.2411675620318761
 21
31.095841028625809
 31
0.0
  0
LINE
  5
358
  8
0
 62
     0
 10
1.722503759471067
 20
30.475202838171871
 30
0.0
 11
2.8713278283692878
 21
31.624026907070089
 31
0.0
  0
LINE
  5
359
  8
0
 62
     0
 10
1.352664025808451
 20
31.0033887166162
 30
0.0
 11
2.501488094706616
 21
32.152212785514394
 31
0.0
  0
LINE
  5
35A
  8
0
 62
     0
 10
2.317130099962724
 20
32.865880402877387
 30
0.0
 11
3.4958769428617411
 21
34.044627245776411
 31
0.0
  0
LINE
  5
35B
  8
0
 62
     0
 10
0.982824292145807
 20
31.53157459506048
 30
0.0
 11
2.1316483610440282
 21
32.680398663958698
 31
0.0
  0
LINE
  5
35C
  8
0
 62
     0
 10
0.6129845584831628
 20
32.059760473504731
 30
0.0
 11
3.1260372091990969
 21
34.572813124220659
 31
0.0
  0
LINE
  5
35D
  8
0
 62
     0
 10
0.2431448248206038
 20
32.587946351949121
 30
0.0
 11
2.6264710718079689
 21
34.97127259893648
 31
0.0
  0
ENDBLK
  5
35F
  8
0
  0
BLOCK
  8
0
  2
*U3
 70
     1
 10
0.0
 20
0.0
 30
0.0
  3
*U3
  1

  0
LINE
  5
361
  8
0
 10
81.41856282590561
 20
9.7574938234094191
 30
0.0
 11
86.63810839670009
 21
2.303210220379611
 31
0.0
  0
LINE
  5
362
  8
0
 10
86.63810839670009
 20
2.303210220379611
 30
0.0
 11
85.286507523622717
 21
1.3568091003999989
 31
0.0
  0
ARC
  5
363
  8
0
 10
85.429901632710596
 20
1.1520210893277181
 30
0.0
 40
0.2500000000000867
 50
125.00000000001501
 51
214.99999999997709
  0
LINE
  5
364
  8
0
 10
85.225113621638229
 20
1.008626980239995
 30
0.0
 11
85.856715969010835
 21
0.1066053467860399
 31
0.0
  0
ARC
  5
365
  8
0
 10
86.061503980083103
 20
0.2499994558737626
 30
0.0
 40
0.2499999999999819
 50
214.99999999999201
 51
305.00000000000108
  0
LINE
  5
366
  8
0
 10
88.662354222037834
 20
1.7659407538546641
 30
0.0
 11
86.204898089170896
 21
0.0452114448015379
 31
0.0
  0
ARC
  5
367
  8
0
 10
88.518960112950197
 20
1.970728764926889
 30
0.0
 40
0.2499999999999097
 50
304.99999999997982
 51
35.0000000000177
  0
LINE
  5
368
  8
0
 10
88.723748124022336
 20
2.1141228740146678
 30
0.0
 11
77.395613506089205
 21
18.292375748722261
 31
0.0
  0
LINE
  5
369
  8
0
 10
77.395613506089205
 20
18.292375748722261
 30
0.0
 11
12.20625046622726
 21
18.292375748721302
 31
0.0
  0
LINE
  5
36A
  8
0
 10
12.20625046622726
 20
18.292375748721302
 30
0.0
 11
7.4397829324271347
 21
25.09959685631895
 31
0.0
  0
LINE
  5
36B
  8
0
 10
7.4397829324271347
 20
25.09959685631895
 30
0.0
 11
7.1612372362999963
 21
25.148711977907229
 31
0.0
  0
LINE
  5
36C
  8
0
 10
7.1612372362999963
 20
25.148711977907229
 30
0.0
 11
7.2103523578867899
 21
25.42725767403445
 31
0.0
  0
LINE
  5
36D
  8
0
 10
7.2103523578867899
 20
25.42725767403445
 30
0.0
 11
2.1055220743625109
 21
32.717710868206467
 31
0.0
  0
LINE
  5
36E
  8
0
 10
2.1055220743625109
 20
32.717710868206467
 30
0.0
 11
3.457122947439899
 21
33.664111988186079
 31
0.0
  0
ARC
  5
36F
  8
0
 10
3.313728838352147
 20
33.868899999258332
 30
0.0
 40
0.2499999999999982
 50
304.99999999999739
 51
34.999999999997399
  0
LINE
  5
370
  8
0
 10
3.518516849424401
 20
34.012294108346083
 30
0.0
 11
2.9122407224234621
 21
34.878146150657869
 31
0.0
  0
ARC
  5
371
  8
0
 10
2.707452711351209
 20
34.734752041570147
 30
0.0
 40
0.2499999999999819
 50
34.999999999992028
 51
125.00000000000109
  0
LINE
  5
372
  8
0
 10
0.1066024693964493
 20
33.218810743589223
 30
0.0
 11
2.5640586022634571
 21
34.939540052642371
 31
0.0
  0
ARC
  5
373
  8
0
 10
0.249996578484172
 20
33.014022732516963
 30
0.0
 40
0.2499999999999819
 50
124.999999999992
 51
215.00000000000111
  0
LINE
  5
374
  8
0
 10
0.0452085674119474
 20
32.870628623429212
 30
0.0
 11
11.373343185345099
 21
16.692375748721609
 31
0.0
  0
LINE
  5
375
  8
0
 10
11.373343185345099
 20
16.692375748721609
 30
0.0
 11
76.562706225207023
 21
16.692375748722579
 31
0.0
  0
LINE
  5
376
  8
0
 10
76.562706225207023
 20
16.692375748722579
 30
0.0
 11
81.189132251365265
 21
10.085154641124911
 31
0.0
  0
LINE
  5
377
  8
0
 10
81.189132251365265
 20
10.085154641124911
 30
0.0
 11
81.467677947492277
 21
10.036039519536841
 31
0.0
  0
LINE
  5
378
  8
0
 10
81.467677947492277
 20
10.036039519536841
 30
0.0
 11
81.41856282590561
 21
9.7574938234094191
 31
0.0
  0
ENDBLK
  5
37A
  8
0
  0
ENDSEC
  0
SECTION
  2
ENTITIES
  0
LINE
  5
26B
  8
0
 10
2878.2620705723662
 20
1139.7199986552159
 30
0.0
 11
2883.48161614316
 21
1132.2657150521859
 31
0.0
  0
LINE
  5
26C
  8
0
 10
2883.48161614316
 20
1132.2657150521859
 30
0.0
 11
2882.1300152700828
 21
1131.3193139322059
 31
0.0
  0
ARC
  5
26D
  8
0
 10
2882.273409379171
 20
1131.1145259211339
 30
0.0
 40
0.2500000000000867
 50
125.00000000001501
 51
214.99999999997709
  0
LINE
  5
26E
  8
0
 10
2882.0686213680979
 20
1130.9711318120469
 30
0.0
 11
2882.7002237154711
 21
1130.0691101785919
 31
0.0
  0
ARC
  5
26F
  8
0
 10
2882.9050117265442
 20
1130.2125042876801
 30
0.0
 40
0.2499999999999819
 50
214.99999999999201
 51
305.00000000000108
  0
LINE
  5
270
  8
0
 10
2885.5058619684978
 20
1131.7284455856609
 30
0.0
 11
2883.048405835631
 21
1130.0077162766081
 31
0.0
  0
ARC
  5
271
  8
0
 10
2885.3624678594101
 20
1131.9332335967331
 30
0.0
 40
0.2499999999999097
 50
304.99999999997982
 51
35.0000000000177
  0
LINE
  5
272
  8
0
 10
2885.5672558704832
 20
1132.076627705821
 30
0.0
 11
2874.2391212525499
 21
1148.2548805805291
 31
0.0
  0
LINE
  5
273
  8
0
 10
2874.2391212525499
 20
1148.2548805805291
 30
0.0
 11
2809.0497582126868
 21
1148.2548805805279
 31
0.0
  0
LINE
  5
274
  8
0
 10
2809.0497582126868
 20
1148.2548805805279
 30
0.0
 11
2804.2832906788872
 21
1155.062101688125
 31
0.0
  0
LINE
  5
275
  8
0
 10
2804.2832906788872
 20
1155.062101688125
 30
0.0
 11
2804.0047449827612
 21
1155.1112168097129
 31
0.0
  0
LINE
  5
276
  8
0
 10
2804.0047449827612
 20
1155.1112168097129
 30
0.0
 11
2804.0538601043472
 21
1155.389762505841
 31
0.0
  0
LINE
  5
277
  8
0
 10
2804.0538601043472
 20
1155.389762505841
 30
0.0
 11
2798.9490298208229
 21
1162.6802157000129
 31
0.0
  0
LINE
  5
278
  8
0
 10
2798.9490298208229
 20
1162.6802157000129
 30
0.0
 11
2800.3006306939001
 21
1163.6266168199929
 31
0.0
  0
ARC
  5
279
  8
0
 10
2800.1572365848119
 20
1163.8314048310649
 30
0.0
 40
0.2499999999999982
 50
304.99999999999739
 51
34.999999999997399
  0
LINE
  5
27A
  8
0
 10
2800.362024595885
 20
1163.9747989401519
 30
0.0
 11
2799.7557484688841
 21
1164.840650982464
 31
0.0
  0
ARC
  5
27B
  8
0
 10
2799.550960457811
 20
1164.697256873377
 30
0.0
 40
0.2499999999999819
 50
34.999999999992028
 51
125.00000000000109
  0
LINE
  5
27C
  8
0
 10
2796.950110215857
 20
1163.181315575396
 30
0.0
 11
2799.4075663487238
 21
1164.902044884449
 31
0.0
  0
ARC
  5
27D
  8
0
 10
2797.0935043249451
 20
1162.9765275643231
 30
0.0
 40
0.2499999999999819
 50
124.999999999992
 51
215.00000000000111
  0
LINE
  5
27E
  8
0
 10
2796.888716313872
 20
1162.8331334552361
 30
0.0
 11
2808.2168509318049
 21
1146.654880580528
 31
0.0
  0
LINE
  5
27F
  8
0
 10
2808.2168509318049
 20
1146.654880580528
 30
0.0
 11
2873.4062139716671
 21
1146.6548805805289
 31
0.0
  0
LINE
  5
280
  8
0
 10
2873.4062139716671
 20
1146.6548805805289
 30
0.0
 11
2878.0326399978262
 21
1140.0476594729309
 31
0.0
  0
LINE
  5
281
  8
0
 10
2878.0326399978262
 20
1140.0476594729309
 30
0.0
 11
2878.3111856939531
 21
1139.9985443513431
 31
0.0
  0
LINE
  5
282
  8
0
 10
2878.3111856939531
 20
1139.9985443513431
 30
0.0
 11
2878.2620705723662
 21
1139.7199986552159
 31
0.0
  0
ENDSEC
  0
EOF
