  0
SECTION
  2
HEADER
  9
$ACADVER
  1
AC1012
  9
$DWGCODEPAGE
  3
ANSI_1252
  9
$INSBASE
 10
0.0
 20
0.0
 30
0.0
  9
$EXTMIN
 10
129.1141742667505
 20
221.0729446362325
 30
-0.0000000349181948
  9
$EXTMAX
 10
187.4688708147653
 20
240.4250733216057
 30
0.0000000814935746
  9
$LIMMIN
 10
0.0
 20
0.0
  9
$LIMMAX
 10
210.0
 20
300.0
  9
$ORTHOMODE
 70
     1
  9
$REGENMODE
 70
     1
  9
$FILLMODE
 70
     1
  9
$QTEXTMODE
 70
     0
  9
$MIRRTEXT
 70
     1
  9
$DRAGMODE
 70
     2
  9
$LTSCALE
 40
1.0
  9
$OSMODE
 70
    37
  9
$ATTMODE
 70
     1
  9
$TEXTSIZE
 40
2.5
  9
$TRACEWID
 40
0.05
  9
$TEXTSTYLE
  7
ROMANT
  9
$CLAYER
  8
0
  9
$CELTYPE
  6
BYLAYER
  9
$CECOLOR
 62
   256
  9
$CELTSCALE
 40
1.0
  9
$DELOBJ
 70
     1
  9
$DISPSILH
 70
     0
  9
$DIMSCALE
 40
1.0
  9
$DIMASZ
 40
1.5
  9
$DIMEXO
 40
0.2
  9
$DIMDLI
 40
0.38
  9
$DIMRND
 40
0.0
  9
$DIMDLE
 40
0.0
  9
$DIMEXE
 40
1.5
  9
$DIMTP
 40
0.0
  9
$DIMTM
 40
0.0
  9
$DIMTXT
 40
2.5
  9
$DIMCEN
 40
1.0
  9
$DIMTSZ
 40
0.0
  9
$DIMTOL
 70
     0
  9
$DIMLIM
 70
     0
  9
$DIMTIH
 70
     0
  9
$DIMTOH
 70
     0
  9
$DIMSE1
 70
     0
  9
$DIMSE2
 70
     0
  9
$DIMTAD
 70
     1
  9
$DIMZIN
 70
     0
  9
$DIMBLK
  1

  9
$DIMASO
 70
     1
  9
$DIMSHO
 70
     1
  9
$DIMPOST
  1

  9
$DIMAPOST
  1

  9
$DIMALT
 70
     0
  9
$DIMALTD
 70
     2
  9
$DIMALTF
 40
25.4
  9
$DIMLFAC
 40
1.0
  9
$DIMTOFL
 70
     1
  9
$DIMTVP
 40
0.0
  9
$DIMTIX
 70
     0
  9
$DIMSOXD
 70
     0
  9
$DIMSAH
 70
     0
  9
$DIMBLK1
  1

  9
$DIMBLK2
  1

  9
$DIMSTYLE
  2
STANDARD
  9
$DIMCLRD
 70
   180
  9
$DIMCLRE
 70
   180
  9
$DIMCLRT
 70
   180
  9
$DIMTFAC
 40
0.5333333333333333
  9
$DIMGAP
 40
0.5
  9
$DIMJUST
 70
     0
  9
$DIMSD1
 70
     0
  9
$DIMSD2
 70
     0
  9
$DIMTOLJ
 70
     1
  9
$DIMTZIN
 70
     0
  9
$DIMALTZ
 70
     0
  9
$DIMALTTZ
 70
     0
  9
$DIMFIT
 70
     3
  9
$DIMUPT
 70
     0
  9
$DIMUNIT
 70
     2
  9
$DIMDEC
 70
     1
  9
$DIMTDEC
 70
     1
  9
$DIMALTU
 70
     2
  9
$DIMALTTD
 70
     2
  9
$DIMTXSTY
  7
STANDARD
  9
$DIMAUNIT
 70
     0
  9
$LUNITS
 70
     2
  9
$LUPREC
 70
     2
  9
$SKETCHINC
 40
0.1
  9
$FILLETRAD
 40
1.5
  9
$AUNITS
 70
     0
  9
$AUPREC
 70
     1
  9
$MENU
  1
acad
  9
$ELEVATION
 40
0.0
  9
$PELEVATION
 40
0.0
  9
$THICKNESS
 40
0.0
  9
$LIMCHECK
 70
     0
  9
$BLIPMODE
 70
     0
  9
$CHAMFERA
 40
0.0
  9
$CHAMFERB
 40
0.0
  9
$CHAMFERC
 40
0.0
  9
$CHAMFERD
 40
0.0
  9
$SKPOLY
 70
     0
  9
$TDCREATE
 40
2452079.347267014
  9
$TDUPDATE
 40
2453546.644936886
  9
$TDINDWG
 40
0.1716238079
  9
$TDUSRTIMER
 40
0.1716238079
  9
$USRTIMER
 70
     1
  9
$ANGBASE
 50
0.0
  9
$ANGDIR
 70
     0
  9
$PDMODE
 70
     0
  9
$PDSIZE
 40
0.0
  9
$PLINEWID
 40
0.0
  9
$COORDS
 70
     1
  9
$SPLFRAME
 70
     0
  9
$SPLINETYPE
 70
     6
  9
$SPLINESEGS
 70
     8
  9
$ATTDIA
 70
     0
  9
$ATTREQ
 70
     1
  9
$HANDLING
 70
-16383
  9
$HANDSEED
  5
216A
  9
$SURFTAB1
 70
     6
  9
$SURFTAB2
 70
     6
  9
$SURFTYPE
 70
     6
  9
$SURFU
 70
     6
  9
$SURFV
 70
     6
  9
$UCSNAME
  2

  9
$UCSORG
 10
0.0
 20
0.0
 30
0.0
  9
$UCSXDIR
 10
1.0
 20
0.0
 30
0.0
  9
$UCSYDIR
 10
0.0
 20
1.0
 30
0.0
  9
$PUCSNAME
  2

  9
$PUCSORG
 10
0.0
 20
0.0
 30
0.0
  9
$PUCSXDIR
 10
1.0
 20
0.0
 30
0.0
  9
$PUCSYDIR
 10
0.0
 20
1.0
 30
0.0
  9
$USERI1
 70
     0
  9
$USERI2
 70
     0
  9
$USERI3
 70
     0
  9
$USERI4
 70
     0
  9
$USERI5
 70
     0
  9
$USERR1
 40
0.0
  9
$USERR2
 40
0.0
  9
$USERR3
 40
0.0
  9
$USERR4
 40
0.0
  9
$USERR5
 40
0.0
  9
$WORLDVIEW
 70
     1
  9
$SHADEDGE
 70
     1
  9
$SHADEDIF
 70
    70
  9
$TILEMODE
 70
     1
  9
$MAXACTVP
 70
    16
  9
$PINSBASE
 10
0.0
 20
0.0
 30
0.0
  9
$PLIMCHECK
 70
     0
  9
$PEXTMIN
 10
1.000000000000000E+20
 20
1.000000000000000E+20
 30
1.000000000000000E+20
  9
$PEXTMAX
 10
-1.000000000000000E+20
 20
-1.000000000000000E+20
 30
-1.000000000000000E+20
  9
$PLIMMIN
 10
0.0
 20
0.0
  9
$PLIMMAX
 10
12.0
 20
9.0
  9
$UNITMODE
 70
     0
  9
$VISRETAIN
 70
     0
  9
$PLINEGEN
 70
     0
  9
$PSLTSCALE
 70
     1
  9
$TREEDEPTH
 70
  3020
  9
$PICKSTYLE
 70
     0
  9
$CMLSTYLE
  2
STANDARD
  9
$CMLJUST
 70
     0
  9
$CMLSCALE
 40
1.0
  9
$SAVEIMAGES
 70
     1
  0
ENDSEC
  0
SECTION
  2
CLASSES
  0
CLASS
  1
LWPOLYLINE
  2
AcDbPolyline
  3
AutoCAD 2000
 90
    32768
280
     0
281
     1
  0
CLASS
  1
DICTIONARYVAR
  2
AcDbDictionaryVar
  3
AutoCAD 2000
 90
    32768
280
     0
281
     0
  0
CLASS
  1
HATCH
  2
AcDbHatch
  3
AutoCAD 2000
 90
    32768
280
     0
281
     1
  0
CLASS
  1
ACDBDICTIONARYWDFLT
  2
AcDbDictionaryWithDefault
  3
AutoCAD 2000
 90
    32768
280
     0
281
     0
  0
CLASS
  1
ACDBPLACEHOLDER
  2
AcDbPlaceHolder
  3
AutoCAD 2000
 90
    32768
280
     0
281
     0
  0
CLASS
  1
LAYOUT
  2
AcDbLayout
  3
AutoCAD 2000
 90
    32768
280
     0
281
     0
  0
CLASS
  1
LONG_TRANSACTION
  2
AcDbLongTransaction
  3
AutoCAD 2000
 90
    32768
280
     0
281
     0
  0
CLASS
  1
LWPOLYLINE
  2
AcDbPolyline
  3
AutoCAD 2000
 90
    32768
280
     0
281
     1
  0
CLASS
  1
HATCH
  2
AcDbHatch
  3
AutoCAD 2000
 90
    32768
280
     0
281
     1
  0
CLASS
  1
XRECORD
  2
AcDbXrecord
  3
AutoCAD 2000
 90
    32768
280
     0
281
     0
  0
ENDSEC
  0
SECTION
  2
TABLES
  0
TABLE
  2
VPORT
  5
446
330
0
100
AcDbSymbolTable
 70
     2
  0
VPORT
  5
210D
330
446
100
AcDbSymbolTableRecord
100
AcDbViewportTableRecord
  2
*ACTIVE
 70
     0
 10
0.0
 20
0.0
 11
1.0
 21
1.0
 12
158.2915225407579
 22
230.7490089789191
 13
0.0
 23
0.0
 14
1.0
 24
1.0
 15
0.0
 25
0.0
 16
0.0
 26
0.0
 36
1.0
 17
0.0
 27
0.0
 37
0.0
 40
36.79504762559668
 41
1.595959595959596
 42
50.0
 43
0.0
 44
0.0
 50
0.0
 51
0.0
 71
     0
 72
   100
 73
     1
 74
     1
 75
     0
 76
     0
 77
     0
 78
     0
  0
ENDTAB
  0
TABLE
  2
LTYPE
  5
443
330
0
100
AcDbSymbolTable
 70
     2
  0
LTYPE
  5
41D
330
443
100
AcDbSymbolTableRecord
100
AcDbLinetypeTableRecord
  2
BYBLOCK
 70
     0
  3

 72
    65
 73
     0
 40
0.0
  0
LTYPE
  5
E7
330
443
100
AcDbSymbolTableRecord
100
AcDbLinetypeTableRecord
  2
BYLAYER
 70
     0
  3

 72
    65
 73
     0
 40
0.0
  0
LTYPE
  5
416
330
443
100
AcDbSymbolTableRecord
100
AcDbLinetypeTableRecord
  2
CONTINUOUS
 70
     0
  3
Solid line
 72
    65
 73
     0
 40
0.0
  0
LTYPE
  5
505
330
443
100
AcDbSymbolTableRecord
100
AcDbLinetypeTableRecord
  2
DASHED
 70
     0
  3
Dashed __ __ __ __ __ __ __ __ __ __ __ __ __ _
 72
    65
 73
     2
 40
0.75
 49
0.5
 74
     0
 49
-0.25
 74
     0
  0
ENDTAB
  0
TABLE
  2
LAYER
  5
441
330
0
100
AcDbSymbolTable
 70
     4
  0
LAYER
  5
419
330
441
100
AcDbSymbolTableRecord
100
AcDbLayerTableRecord
  2
0
 70
     0
 62
     7
  6
CONTINUOUS
  0
LAYER
  5
E6
330
441
100
AcDbSymbolTableRecord
100
AcDbLayerTableRecord
  2
ANA
 70
     0
 62
   220
  6
CONTINUOUS
  0
LAYER
  5
41E
330
441
100
AcDbSymbolTableRecord
100
AcDbLayerTableRecord
  2
DEFPOINTS
 70
     0
 62
     7
  6
CONTINUOUS
  0
LAYER
  5
510
330
441
100
AcDbSymbolTableRecord
100
AcDbLayerTableRecord
  2
ANTET
 70
     0
 62
   220
  6
CONTINUOUS
  0
ENDTAB
  0
TABLE
  2
STYLE
  5
442
330
0
100
AcDbSymbolTable
 70
     3
  0
STYLE
  5
41A
330
442
100
AcDbSymbolTableRecord
100
AcDbTextStyleTableRecord
  2
STANDARD
 70
     0
 40
0.0
 41
1.0
 50
0.0
 71
     0
 42
0.2
  3
txt
  4

  0
STYLE
  5
E8
330
442
100
AcDbSymbolTableRecord
100
AcDbTextStyleTableRecord
  2
ROMANT
 70
     0
 40
2.5
 41
1.0
 50
15.0
 71
     0
 42
2.5
  3
C:\ACADR13\COMMON\FONTS\romant.shx
  4

  0
STYLE
  5
DC6
330
442
100
AcDbSymbolTableRecord
100
AcDbTextStyleTableRecord
  2
ITALICT
 70
     0
 40
2.5
 41
1.0
 50
0.0
 71
     0
 42
2.5
  3
ITALICT.shx
  4

  0
ENDTAB
  0
TABLE
  2
VIEW
  5
444
330
0
100
AcDbSymbolTable
 70
     0
  0
ENDTAB
  0
TABLE
  2
UCS
  5
445
330
0
100
AcDbSymbolTable
 70
     0
  0
ENDTAB
  0
TABLE
  2
APPID
  5
448
330
0
100
AcDbSymbolTable
 70
     1
  0
APPID
  5
261
330
448
100
AcDbSymbolTableRecord
100
AcDbRegAppTableRecord
  2
ACAD
 70
     0
  0
ENDTAB
  0
TABLE
  2
DIMSTYLE
  5
449
330
0
100
AcDbSymbolTable
 70
     1
  0
DIMSTYLE
105
264
330
449
100
AcDbSymbolTableRecord
100
AcDbDimStyleTableRecord
  2
STANDARD
 70
     0
  3

  4

  5

  6

  7

 40
1.0
 41
0.18
 42
0.0625
 43
0.38
 44
0.18
 45
0.0
 46
0.0
 47
0.0
 48
0.0
140
0.18
141
0.09
142
0.0
143
25.4
144
1.0
145
0.0
146
1.0
147
0.09
 71
     0
 72
     0
 73
     1
 74
     1
 75
     0
 76
     0
 77
     0
 78
     0
170
     0
171
     2
172
     0
173
     0
174
     0
175
     0
176
     0
177
     0
178
     0
270
     2
271
     4
272
     4
273
     2
274
     2
340
41A
275
     0
280
     0
281
     0
282
     0
283
     1
284
     0
285
     0
286
     0
287
     3
288
     0
  0
ENDTAB
  0
TABLE
  2
BLOCK_RECORD
  5
1
330
0
100
AcDbSymbolTable
 70
    35
  0
BLOCK_RECORD
  5
2
102
{ACAD_XDICTIONARY
360
210E
102
}
330
1
100
AcDbSymbolTableRecord
100
AcDbBlockTableRecord
  2
*MODEL_SPACE
  0
BLOCK_RECORD
  5
E3
102
{ACAD_XDICTIONARY
360
2110
102
}
330
1
100
AcDbSymbolTableRecord
100
AcDbBlockTableRecord
  2
*PAPER_SPACE
  0
BLOCK_RECORD
  5
EC
330
1
100
AcDbSymbolTableRecord
100
AcDbBlockTableRecord
  2
*X0
  0
BLOCK_RECORD
  5
1514
330
1
100
AcDbSymbolTableRecord
100
AcDbBlockTableRecord
  2
*D1
  0
BLOCK_RECORD
  5
152C
330
1
100
AcDbSymbolTableRecord
100
AcDbBlockTableRecord
  2
*D2
  0
BLOCK_RECORD
  5
1539
330
1
100
AcDbSymbolTableRecord
100
AcDbBlockTableRecord
  2
*D3
  0
BLOCK_RECORD
  5
1546
330
1
100
AcDbSymbolTableRecord
100
AcDbBlockTableRecord
  2
*D4
  0
BLOCK_RECORD
  5
1555
330
1
100
AcDbSymbolTableRecord
100
AcDbBlockTableRecord
  2
*D5
  0
BLOCK_RECORD
  5
1566
330
1
100
AcDbSymbolTableRecord
100
AcDbBlockTableRecord
  2
*D6
  0
BLOCK_RECORD
  5
157F
330
1
100
AcDbSymbolTableRecord
100
AcDbBlockTableRecord
  2
*D7
  0
BLOCK_RECORD
  5
158C
330
1
100
AcDbSymbolTableRecord
100
AcDbBlockTableRecord
  2
*D8
  0
BLOCK_RECORD
  5
159A
330
1
100
AcDbSymbolTableRecord
100
AcDbBlockTableRecord
  2
*D9
  0
BLOCK_RECORD
  5
15B2
330
1
100
AcDbSymbolTableRecord
100
AcDbBlockTableRecord
  2
*D10
  0
BLOCK_RECORD
  5
15BF
330
1
100
AcDbSymbolTableRecord
100
AcDbBlockTableRecord
  2
*D11
  0
BLOCK_RECORD
  5
15CC
330
1
100
AcDbSymbolTableRecord
100
AcDbBlockTableRecord
  2
*D12
  0
BLOCK_RECORD
  5
15D5
330
1
100
AcDbSymbolTableRecord
100
AcDbBlockTableRecord
  2
*D13
  0
BLOCK_RECORD
  5
15DF
330
1
100
AcDbSymbolTableRecord
100
AcDbBlockTableRecord
  2
*D14
  0
BLOCK_RECORD
  5
15EA
330
1
100
AcDbSymbolTableRecord
100
AcDbBlockTableRecord
  2
*D15
  0
BLOCK_RECORD
  5
15F3
330
1
100
AcDbSymbolTableRecord
100
AcDbBlockTableRecord
  2
*D16
  0
BLOCK_RECORD
  5
160C
330
1
100
AcDbSymbolTableRecord
100
AcDbBlockTableRecord
  2
*D17
  0
BLOCK_RECORD
  5
161B
330
1
100
AcDbSymbolTableRecord
100
AcDbBlockTableRecord
  2
*D18
  0
BLOCK_RECORD
  5
1629
330
1
100
AcDbSymbolTableRecord
100
AcDbBlockTableRecord
  2
*D19
  0
BLOCK_RECORD
  5
1636
330
1
100
AcDbSymbolTableRecord
100
AcDbBlockTableRecord
  2
*D20
  0
BLOCK_RECORD
  5
1643
330
1
100
AcDbSymbolTableRecord
100
AcDbBlockTableRecord
  2
*D21
  0
BLOCK_RECORD
  5
1650
330
1
100
AcDbSymbolTableRecord
100
AcDbBlockTableRecord
  2
*D22
  0
BLOCK_RECORD
  5
1686
330
1
100
AcDbSymbolTableRecord
100
AcDbBlockTableRecord
  2
*D23
  0
BLOCK_RECORD
  5
1693
330
1
100
AcDbSymbolTableRecord
100
AcDbBlockTableRecord
  2
*D24
  0
BLOCK_RECORD
  5
16A0
330
1
100
AcDbSymbolTableRecord
100
AcDbBlockTableRecord
  2
*D25
  0
BLOCK_RECORD
  5
16B8
330
1
100
AcDbSymbolTableRecord
100
AcDbBlockTableRecord
  2
*D26
  0
BLOCK_RECORD
  5
16C7
330
1
100
AcDbSymbolTableRecord
100
AcDbBlockTableRecord
  2
*D27
  0
BLOCK_RECORD
  5
16D6
330
1
100
AcDbSymbolTableRecord
100
AcDbBlockTableRecord
  2
*D28
  0
BLOCK_RECORD
  5
16E3
330
1
100
AcDbSymbolTableRecord
100
AcDbBlockTableRecord
  2
*D29
  0
BLOCK_RECORD
  5
16F0
330
1
100
AcDbSymbolTableRecord
100
AcDbBlockTableRecord
  2
*D30
  0
BLOCK_RECORD
  5
170C
330
1
100
AcDbSymbolTableRecord
100
AcDbBlockTableRecord
  2
*D31
  0
BLOCK_RECORD
  5
1719
330
1
100
AcDbSymbolTableRecord
100
AcDbBlockTableRecord
  2
*D32
  0
BLOCK_RECORD
  5
1727
330
1
100
AcDbSymbolTableRecord
100
AcDbBlockTableRecord
  2
*D33
  0
BLOCK_RECORD
  5
1736
330
1
100
AcDbSymbolTableRecord
100
AcDbBlockTableRecord
  2
*D34
  0
ENDTAB
  0
ENDSEC
  0
SECTION
  2
BLOCKS
  0
BLOCK
  5
E4
330
2
100
AcDbEntity
  8
0
100
AcDbBlockBegin
  2
*MODEL_SPACE
 70
     0
 10
0.0
 20
0.0
 30
0.0
  3
*MODEL_SPACE
  1

  0
ENDBLK
  5
E5
330
2
100
AcDbEntity
  8
0
100
AcDbBlockEnd
  0
BLOCK
  5
414
330
E3
100
AcDbEntity
 67
     1
  8
0
100
AcDbBlockBegin
  2
*PAPER_SPACE
 70
     0
 10
0.0
 20
0.0
 30
0.0
  3
*PAPER_SPACE
  1

  0
ENDBLK
  5
415
330
E3
100
AcDbEntity
 67
     1
  8
0
100
AcDbBlockEnd
  0
BLOCK
  5
417
330
EC
100
AcDbEntity
  8
0
100
AcDbBlockBegin
  2
*X0
 70
     1
 10
0.0
 20
0.0
 30
0.0
  3
*X0
  1

  0
LINE
  5
ED
330
EC
100
AcDbEntity
  8
0
 62
     0
100
AcDbLine
 10
119.6249999999999
 20
30.73434161302726
 30
0.0
 11
119.6249999999999
 21
31.73434161302726
 31
0.0
  0
LINE
  5
EE
330
EC
100
AcDbEntity
  8
0
 62
     0
100
AcDbLine
 10
119.6249999999999
 20
50.73434161302725
 30
0.0
 11
119.6249999999999
 21
51.73434161302726
 31
0.0
  0
LINE
  5
EF
330
EC
100
AcDbEntity
  8
0
 62
     0
100
AcDbLine
 10
119.6249999999999
 20
34.23389329927631
 30
0.0
 11
119.6249999999999
 21
39.78358833883456
 31
0.0
  0
LINE
  5
F0
330
EC
100
AcDbEntity
  8
0
 62
     0
100
AcDbLine
 10
119.6249999999999
 20
42.36292722007112
 30
0.0
 11
119.6249999999999
 21
48.39196114086594
 31
0.0
  0
LINE
  5
F1
330
EC
100
AcDbEntity
  8
0
 62
     0
100
AcDbLine
 10
119.4374999999999
 20
30.73434161302726
 30
0.0
 11
119.4374999999999
 21
31.73434161302726
 31
0.0
  0
LINE
  5
F2
330
EC
100
AcDbEntity
  8
0
 62
     0
100
AcDbLine
 10
119.4374999999999
 20
50.73434161302725
 30
0.0
 11
119.4374999999999
 21
51.73434161302726
 31
0.0
  0
LINE
  5
F3
330
EC
100
AcDbEntity
  8
0
 62
     0
100
AcDbLine
 10
119.4374999999999
 20
34.23389329927631
 30
0.0
 11
119.4374999999999
 21
39.4588288124154
 31
0.0
  0
LINE
  5
F4
330
EC
100
AcDbEntity
  8
0
 62
     0
100
AcDbLine
 10
119.4374999999999
 20
42.36292722007112
 30
0.0
 11
119.4374999999999
 21
48.39196114086594
 31
0.0
  0
LINE
  5
F5
330
EC
100
AcDbEntity
  8
0
 62
     0
100
AcDbLine
 10
119.2499999999999
 20
30.73434161302726
 30
0.0
 11
119.2499999999999
 21
31.73434161302726
 31
0.0
  0
LINE
  5
F6
330
EC
100
AcDbEntity
  8
0
 62
     0
100
AcDbLine
 10
119.2499999999999
 20
50.73434161302725
 30
0.0
 11
119.2499999999999
 21
51.73434161302726
 31
0.0
  0
LINE
  5
F7
330
EC
100
AcDbEntity
  8
0
 62
     0
100
AcDbLine
 10
119.2499999999999
 20
34.23389329927631
 30
0.0
 11
119.2499999999999
 21
39.13406928599623
 31
0.0
  0
LINE
  5
F8
330
EC
100
AcDbEntity
  8
0
 62
     0
100
AcDbLine
 10
119.2499999999999
 20
42.36292722007112
 30
0.0
 11
119.2499999999999
 21
48.39196114086594
 31
0.0
  0
LINE
  5
F9
330
EC
100
AcDbEntity
  8
0
 62
     0
100
AcDbLine
 10
119.0624999999999
 20
30.73434161302726
 30
0.0
 11
119.0624999999999
 21
31.73434161302726
 31
0.0
  0
LINE
  5
FA
330
EC
100
AcDbEntity
  8
0
 62
     0
100
AcDbLine
 10
119.0624999999999
 20
50.73434161302725
 30
0.0
 11
119.0624999999999
 21
51.73434161302726
 31
0.0
  0
LINE
  5
FB
330
EC
100
AcDbEntity
  8
0
 62
     0
100
AcDbLine
 10
119.0624999999999
 20
34.23389329927631
 30
0.0
 11
119.0624999999999
 21
38.80930975957706
 31
0.0
  0
LINE
  5
FC
330
EC
100
AcDbEntity
  8
0
 62
     0
100
AcDbLine
 10
119.0624999999999
 20
42.36292722007112
 30
0.0
 11
119.0624999999999
 21
48.39196114086594
 31
0.0
  0
LINE
  5
FD
330
EC
100
AcDbEntity
  8
0
 62
     0
100
AcDbLine
 10
118.8749999999999
 20
30.73434161302726
 30
0.0
 11
118.8749999999999
 21
31.73434161302726
 31
0.0
  0
LINE
  5
FE
330
EC
100
AcDbEntity
  8
0
 62
     0
100
AcDbLine
 10
118.8749999999999
 20
50.73434161302725
 30
0.0
 11
118.8749999999999
 21
51.73434161302726
 31
0.0
  0
LINE
  5
FF
330
EC
100
AcDbEntity
  8
0
 62
     0
100
AcDbLine
 10
118.8749999999999
 20
34.23389329927631
 30
0.0
 11
118.8749999999999
 21
38.48455023315789
 31
0.0
  0
LINE
  5
100
330
EC
100
AcDbEntity
  8
0
 62
     0
100
AcDbLine
 10
118.8749999999999
 20
42.36292722007112
 30
0.0
 11
118.8749999999999
 21
48.39196114086594
 31
0.0
  0
LINE
  5
101
330
EC
100
AcDbEntity
  8
0
 62
     0
100
AcDbLine
 10
118.8749999999999
 20
40.08455023785443
 30
0.0
 11
118.8749999999999
 21
40.44130420998858
 31
0.0
  0
LINE
  5
102
330
EC
100
AcDbEntity
  8
0
 62
     0
100
AcDbLine
 10
118.6874999999999
 20
30.73434161302726
 30
0.0
 11
118.6874999999999
 21
31.73434161302726
 31
0.0
  0
LINE
  5
103
330
EC
100
AcDbEntity
  8
0
 62
     0
100
AcDbLine
 10
118.6874999999999
 20
50.73434161302725
 30
0.0
 11
118.6874999999999
 21
51.73434161302726
 31
0.0
  0
LINE
  5
104
330
EC
100
AcDbEntity
  8
0
 62
     0
100
AcDbLine
 10
118.6874999999999
 20
34.23389329927631
 30
0.0
 11
118.6874999999999
 21
38.15979070673873
 31
0.0
  0
LINE
  5
105
330
EC
100
AcDbEntity
  8
0
 62
     0
100
AcDbLine
 10
118.6874999999999
 20
42.41926881554642
 30
0.0
 11
118.6874999999999
 21
48.39196114086594
 31
0.0
  0
LINE
  5
106
330
EC
100
AcDbEntity
  8
0
 62
     0
100
AcDbLine
 10
118.6874999999999
 20
39.75979071181569
 30
0.0
 11
118.6874999999999
 21
40.76606373625941
 31
0.0
  0
LINE
  5
107
330
EC
100
AcDbEntity
  8
0
 62
     0
100
AcDbLine
 10
118.4999999999999
 20
30.73434161302726
 30
0.0
 11
118.4999999999999
 21
31.73434161302726
 31
0.0
  0
LINE
  5
108
330
EC
100
AcDbEntity
  8
0
 62
     0
100
AcDbLine
 10
118.4999999999999
 20
50.73434161302725
 30
0.0
 11
118.4999999999999
 21
51.73434161302726
 31
0.0
  0
LINE
  5
109
330
EC
100
AcDbEntity
  8
0
 62
     0
100
AcDbLine
 10
118.4999999999999
 20
34.23389329927631
 30
0.0
 11
118.4999999999999
 21
37.83503118031956
 31
0.0
  0
LINE
  5
10A
330
EC
100
AcDbEntity
  8
0
 62
     0
100
AcDbLine
 10
118.4999999999999
 20
42.69082325982261
 30
0.0
 11
118.4999999999999
 21
48.39196114086594
 31
0.0
  0
LINE
  5
10B
330
EC
100
AcDbEntity
  8
0
 62
     0
100
AcDbLine
 10
118.4999999999999
 20
39.43503118577694
 30
0.0
 11
118.4999999999999
 21
41.09082326253024
 31
0.0
  0
LINE
  5
10C
330
EC
100
AcDbEntity
  8
0
 62
     0
100
AcDbLine
 10
118.3124999999999
 20
30.73434161302726
 30
0.0
 11
118.3124999999999
 21
31.73434161302726
 31
0.0
  0
LINE
  5
10D
330
EC
100
AcDbEntity
  8
0
 62
     0
100
AcDbLine
 10
118.3124999999999
 20
50.73434161302725
 30
0.0
 11
118.3124999999999
 21
51.73434161302726
 31
0.0
  0
LINE
  5
10E
330
EC
100
AcDbEntity
  8
0
 62
     0
100
AcDbLine
 10
118.3124999999999
 20
34.23389329927631
 30
0.0
 11
118.3124999999999
 21
37.51027165390039
 31
0.0
  0
LINE
  5
10F
330
EC
100
AcDbEntity
  8
0
 62
     0
100
AcDbLine
 10
118.3124999999999
 20
43.01558278624178
 30
0.0
 11
118.3124999999999
 21
48.39196114086594
 31
0.0
  0
LINE
  5
110
330
EC
100
AcDbEntity
  8
0
 62
     0
100
AcDbLine
 10
118.3124999999999
 20
39.1102716597382
 30
0.0
 11
118.3124999999999
 21
41.41558278880107
 31
0.0
  0
LINE
  5
111
330
EC
100
AcDbEntity
  8
0
 62
     0
100
AcDbLine
 10
118.1249999999999
 20
30.73434161302726
 30
0.0
 11
118.1249999999999
 21
31.73434161302726
 31
0.0
  0
LINE
  5
112
330
EC
100
AcDbEntity
  8
0
 62
     0
100
AcDbLine
 10
118.1249999999999
 20
50.73434161302725
 30
0.0
 11
118.1249999999999
 21
51.73434161302726
 31
0.0
  0
LINE
  5
113
330
EC
100
AcDbEntity
  8
0
 62
     0
100
AcDbLine
 10
118.1249999999999
 20
34.23389329927631
 30
0.0
 11
118.1249999999999
 21
37.18551212748122
 31
0.0
  0
LINE
  5
114
330
EC
100
AcDbEntity
  8
0
 62
     0
100
AcDbLine
 10
118.1249999999999
 20
43.34034231266095
 30
0.0
 11
118.1249999999999
 21
48.39196114086594
 31
0.0
  0
LINE
  5
115
330
EC
100
AcDbEntity
  8
0
 62
     0
100
AcDbLine
 10
118.1249999999999
 20
38.78551213369945
 30
0.0
 11
118.1249999999999
 21
41.7403423150719
 31
0.0
  0
LINE
  5
116
330
EC
100
AcDbEntity
  8
0
 62
     0
100
AcDbLine
 10
117.9374999999999
 20
30.73434161302726
 30
0.0
 11
117.9374999999999
 21
31.73434161302726
 31
0.0
  0
LINE
  5
117
330
EC
100
AcDbEntity
  8
0
 62
     0
100
AcDbLine
 10
117.9374999999999
 20
50.73434161302725
 30
0.0
 11
117.9374999999999
 21
51.73434161302726
 31
0.0
  0
LINE
  5
118
330
EC
100
AcDbEntity
  8
0
 62
     0
100
AcDbLine
 10
117.9374999999999
 20
34.23389329927631
 30
0.0
 11
117.9374999999999
 21
36.86075260106206
 31
0.0
  0
LINE
  5
119
330
EC
100
AcDbEntity
  8
0
 62
     0
100
AcDbLine
 10
117.9374999999999
 20
43.66510183908012
 30
0.0
 11
117.9374999999999
 21
48.39196114086594
 31
0.0
  0
LINE
  5
11A
330
EC
100
AcDbEntity
  8
0
 62
     0
100
AcDbLine
 10
117.9374999999999
 20
38.46075260766071
 30
0.0
 11
117.9374999999999
 21
42.06510184134273
 31
0.0
  0
LINE
  5
11B
330
EC
100
AcDbEntity
  8
0
 62
     0
100
AcDbLine
 10
117.7499999999999
 20
30.73434161302726
 30
0.0
 11
117.7499999999999
 21
31.73434161302726
 31
0.0
  0
LINE
  5
11C
330
EC
100
AcDbEntity
  8
0
 62
     0
100
AcDbLine
 10
117.7499999999999
 20
50.73434161302725
 30
0.0
 11
117.7499999999999
 21
51.73434161302726
 31
0.0
  0
LINE
  5
11D
330
EC
100
AcDbEntity
  8
0
 62
     0
100
AcDbLine
 10
117.7499999999999
 20
34.23389329927631
 30
0.0
 11
117.7499999999999
 21
36.53599307464288
 31
0.0
  0
LINE
  5
11E
330
EC
100
AcDbEntity
  8
0
 62
     0
100
AcDbLine
 10
117.7499999999999
 20
43.98986136549929
 30
0.0
 11
117.7499999999999
 21
48.39196114086594
 31
0.0
  0
LINE
  5
11F
330
EC
100
AcDbEntity
  8
0
 62
     0
100
AcDbLine
 10
117.7499999999999
 20
38.13599308162197
 30
0.0
 11
117.7499999999999
 21
42.38986136761356
 31
0.0
  0
LINE
  5
120
330
EC
100
AcDbEntity
  8
0
 62
     0
100
AcDbLine
 10
117.5624999999999
 20
30.73434161302726
 30
0.0
 11
117.5624999999999
 21
31.73434161302726
 31
0.0
  0
LINE
  5
121
330
EC
100
AcDbEntity
  8
0
 62
     0
100
AcDbLine
 10
117.5624999999999
 20
50.73434161302725
 30
0.0
 11
117.5624999999999
 21
51.73434161302726
 31
0.0
  0
LINE
  5
122
330
EC
100
AcDbEntity
  8
0
 62
     0
100
AcDbLine
 10
117.5624999999999
 20
34.23389329927631
 30
0.0
 11
117.5624999999999
 21
36.21123354822372
 31
0.0
  0
LINE
  5
123
330
EC
100
AcDbEntity
  8
0
 62
     0
100
AcDbLine
 10
117.5624999999999
 20
44.31462089191845
 30
0.0
 11
117.5624999999999
 21
48.39196114086594
 31
0.0
  0
LINE
  5
124
330
EC
100
AcDbEntity
  8
0
 62
     0
100
AcDbLine
 10
117.5624999999999
 20
37.81123355558323
 30
0.0
 11
117.5624999999999
 21
42.71462089388439
 31
0.0
  0
LINE
  5
125
330
EC
100
AcDbEntity
  8
0
 62
     0
100
AcDbLine
 10
117.3749999999999
 20
30.73434161302726
 30
0.0
 11
117.3749999999999
 21
31.73434161302726
 31
0.0
  0
LINE
  5
126
330
EC
100
AcDbEntity
  8
0
 62
     0
100
AcDbLine
 10
117.3749999999999
 20
50.73434161302725
 30
0.0
 11
117.3749999999999
 21
51.73434161302726
 31
0.0
  0
LINE
  5
127
330
EC
100
AcDbEntity
  8
0
 62
     0
100
AcDbLine
 10
117.3749999999999
 20
34.23389329927631
 30
0.0
 11
117.3749999999999
 21
35.88647402180455
 31
0.0
  0
LINE
  5
128
330
EC
100
AcDbEntity
  8
0
 62
     0
100
AcDbLine
 10
117.3749999999999
 20
44.63938041833762
 30
0.0
 11
117.3749999999999
 21
48.39196114086594
 31
0.0
  0
LINE
  5
129
330
EC
100
AcDbEntity
  8
0
 62
     0
100
AcDbLine
 10
117.3749999999999
 20
37.48647402954448
 30
0.0
 11
117.3749999999999
 21
43.03938042015523
 31
0.0
  0
LINE
  5
12A
330
EC
100
AcDbEntity
  8
0
 62
     0
100
AcDbLine
 10
117.1874999999999
 20
30.73434161302726
 30
0.0
 11
117.1874999999999
 21
31.73434161302726
 31
0.0
  0
LINE
  5
12B
330
EC
100
AcDbEntity
  8
0
 62
     0
100
AcDbLine
 10
117.1874999999999
 20
50.73434161302725
 30
0.0
 11
117.1874999999999
 21
51.73434161302726
 31
0.0
  0
LINE
  5
12C
330
EC
100
AcDbEntity
  8
0
 62
     0
100
AcDbLine
 10
117.1874999999999
 20
34.23389329927631
 30
0.0
 11
117.1874999999999
 21
35.56171449538538
 31
0.0
  0
LINE
  5
12D
330
EC
100
AcDbEntity
  8
0
 62
     0
100
AcDbLine
 10
117.1874999999999
 20
44.9641399447568
 30
0.0
 11
117.1874999999999
 21
48.39196114086594
 31
0.0
  0
LINE
  5
12E
330
EC
100
AcDbEntity
  8
0
 62
     0
100
AcDbLine
 10
117.1874999999999
 20
37.16171450350574
 30
0.0
 11
117.1874999999999
 21
43.36413994642605
 31
0.0
  0
LINE
  5
12F
330
EC
100
AcDbEntity
  8
0
 62
     0
100
AcDbLine
 10
116.9999999999999
 20
30.73434161302726
 30
0.0
 11
116.9999999999999
 21
31.73434161302726
 31
0.0
  0
LINE
  5
130
330
EC
100
AcDbEntity
  8
0
 62
     0
100
AcDbLine
 10
116.9999999999999
 20
50.73434161302725
 30
0.0
 11
116.9999999999999
 21
51.73434161302726
 31
0.0
  0
LINE
  5
131
330
EC
100
AcDbEntity
  8
0
 62
     0
100
AcDbLine
 10
116.9999999999999
 20
34.23389329927631
 30
0.0
 11
116.9999999999999
 21
35.23695496896622
 31
0.0
  0
LINE
  5
132
330
EC
100
AcDbEntity
  8
0
 62
     0
100
AcDbLine
 10
116.9999999999999
 20
45.28889947117597
 30
0.0
 11
116.9999999999999
 21
48.39196114086594
 31
0.0
  0
LINE
  5
133
330
EC
100
AcDbEntity
  8
0
 62
     0
100
AcDbLine
 10
116.9999999999999
 20
36.83695497746699
 30
0.0
 11
116.9999999999999
 21
43.68889947269688
 31
0.0
  0
LINE
  5
134
330
EC
100
AcDbEntity
  8
0
 62
     0
100
AcDbLine
 10
116.8124999999999
 20
30.73434161302726
 30
0.0
 11
116.8124999999999
 21
31.73434161302726
 31
0.0
  0
LINE
  5
135
330
EC
100
AcDbEntity
  8
0
 62
     0
100
AcDbLine
 10
116.8124999999999
 20
50.73434161302725
 30
0.0
 11
116.8124999999999
 21
51.73434161302726
 31
0.0
  0
LINE
  5
136
330
EC
100
AcDbEntity
  8
0
 62
     0
100
AcDbLine
 10
116.8124999999999
 20
34.23389329927631
 30
0.0
 11
116.8124999999999
 21
34.91219544254705
 31
0.0
  0
LINE
  5
137
330
EC
100
AcDbEntity
  8
0
 62
     0
100
AcDbLine
 10
116.8124999999999
 20
45.61365899759514
 30
0.0
 11
116.8124999999999
 21
48.38373565494333
 31
0.0
  0
LINE
  5
138
330
EC
100
AcDbEntity
  8
0
 62
     0
100
AcDbLine
 10
116.8124999999999
 20
36.51219545142825
 30
0.0
 11
116.8124999999999
 21
44.01365899896771
 31
0.0
  0
LINE
  5
139
330
EC
100
AcDbEntity
  8
0
 62
     0
100
AcDbLine
 10
116.6249999999999
 20
30.73434161302726
 30
0.0
 11
116.6249999999999
 21
31.73434161302726
 31
0.0
  0
LINE
  5
13A
330
EC
100
AcDbEntity
  8
0
 62
     0
100
AcDbLine
 10
116.6249999999999
 20
50.73434161302725
 30
0.0
 11
116.6249999999999
 21
51.73434161302726
 31
0.0
  0
LINE
  5
13B
330
EC
100
AcDbEntity
  8
0
 62
     0
100
AcDbLine
 10
116.6249999999999
 20
34.23389329927631
 30
0.0
 11
116.6249999999999
 21
34.59269753062041
 31
0.0
  0
LINE
  5
13C
330
EC
100
AcDbEntity
  8
0
 62
     0
100
AcDbLine
 10
116.6249999999999
 20
45.9384185240143
 30
0.0
 11
116.6249999999999
 21
48.34088760946108
 31
0.0
  0
LINE
  5
13D
330
EC
100
AcDbEntity
  8
0
 62
     0
100
AcDbLine
 10
116.6249999999999
 20
36.18743592538951
 30
0.0
 11
116.6249999999999
 21
44.33841852523854
 31
0.0
  0
LINE
  5
13E
330
EC
100
AcDbEntity
  8
0
 62
     0
100
AcDbLine
 10
116.4374999999999
 20
30.73434161302726
 30
0.0
 11
116.4374999999999
 21
31.73434161302726
 31
0.0
  0
LINE
  5
13F
330
EC
100
AcDbEntity
  8
0
 62
     0
100
AcDbLine
 10
116.4374999999999
 20
50.73434161302725
 30
0.0
 11
116.4374999999999
 21
51.73434161302726
 31
0.0
  0
LINE
  5
140
330
EC
100
AcDbEntity
  8
0
 62
     0
100
AcDbLine
 10
116.4374999999999
 20
34.23389329927631
 30
0.0
 11
116.4374999999999
 21
34.44874299145622
 31
0.0
  0
LINE
  5
141
330
EC
100
AcDbEntity
  8
0
 62
     0
100
AcDbLine
 10
116.4374999999999
 20
46.26317805043347
 30
0.0
 11
116.4374999999999
 21
48.25624911302998
 31
0.0
  0
LINE
  5
142
330
EC
100
AcDbEntity
  8
0
 62
     0
100
AcDbLine
 10
116.4374999999999
 20
35.86267639935076
 30
0.0
 11
116.4374999999999
 21
44.66317805150937
 31
0.0
  0
LINE
  5
143
330
EC
100
AcDbEntity
  8
0
 62
     0
100
AcDbLine
 10
116.2499999999999
 20
30.73434161302726
 30
0.0
 11
116.2499999999999
 21
31.73434161302726
 31
0.0
  0
LINE
  5
144
330
EC
100
AcDbEntity
  8
0
 62
     0
100
AcDbLine
 10
116.2499999999999
 20
50.73434161302725
 30
0.0
 11
116.2499999999999
 21
51.73434161302726
 31
0.0
  0
LINE
  5
145
330
EC
100
AcDbEntity
  8
0
 62
     0
100
AcDbLine
 10
116.2499999999999
 20
34.23389329927631
 30
0.0
 11
116.2499999999999
 21
34.33758771320932
 31
0.0
  0
LINE
  5
146
330
EC
100
AcDbEntity
  8
0
 62
     0
100
AcDbLine
 10
116.2499999999999
 20
46.58793757685264
 30
0.0
 11
116.2499999999999
 21
48.11529609429651
 31
0.0
  0
LINE
  5
147
330
EC
100
AcDbEntity
  8
0
 62
     0
100
AcDbLine
 10
116.2499999999999
 20
35.53791687331202
 30
0.0
 11
116.2499999999999
 21
44.98793757778019
 31
0.0
  0
LINE
  5
148
330
EC
100
AcDbEntity
  8
0
 62
     0
100
AcDbLine
 10
116.0624999999999
 20
30.73434161302726
 30
0.0
 11
116.0624999999999
 21
31.73434161302726
 31
0.0
  0
LINE
  5
149
330
EC
100
AcDbEntity
  8
0
 62
     0
100
AcDbLine
 10
116.0624999999999
 20
50.73434161302725
 30
0.0
 11
116.0624999999999
 21
51.73434161302726
 31
0.0
  0
LINE
  5
14A
330
EC
100
AcDbEntity
  8
0
 62
     0
100
AcDbLine
 10
116.0624999999999
 20
34.23389329927631
 30
0.0
 11
116.0624999999999
 21
34.25304788190206
 31
0.0
  0
LINE
  5
14B
330
EC
100
AcDbEntity
  8
0
 62
     0
100
AcDbLine
 10
116.0624999999999
 20
46.91329558864667
 30
0.0
 11
116.0624999999999
 21
47.87062669308522
 31
0.0
  0
LINE
  5
14C
330
EC
100
AcDbEntity
  8
0
 62
     0
100
AcDbLine
 10
116.0624999999999
 20
35.29731832849843
 30
0.0
 11
116.0624999999999
 21
45.31269710405103
 31
0.0
  0
LINE
  5
14D
330
EC
100
AcDbEntity
  8
0
 62
     0
100
AcDbLine
 10
115.8749999999999
 20
30.73434161302726
 30
0.0
 11
115.8749999999999
 21
31.73434161302726
 31
0.0
  0
LINE
  5
14E
330
EC
100
AcDbEntity
  8
0
 62
     0
100
AcDbLine
 10
115.8749999999999
 20
50.73434161302725
 30
0.0
 11
115.8749999999999
 21
51.73434161302726
 31
0.0
  0
LINE
  5
14F
330
EC
100
AcDbEntity
  8
0
 62
     0
100
AcDbLine
 10
115.8749999999999
 20
35.15800657298843
 30
0.0
 11
115.8749999999999
 21
45.63745663032186
 31
0.0
  0
LINE
  5
150
330
EC
100
AcDbEntity
  8
0
 62
     0
100
AcDbLine
 10
115.6874999999999
 20
30.73434161302726
 30
0.0
 11
115.6874999999999
 21
31.73434161302726
 31
0.0
  0
LINE
  5
151
330
EC
100
AcDbEntity
  8
0
 62
     0
100
AcDbLine
 10
115.6874999999999
 20
50.73434161302725
 30
0.0
 11
115.6874999999999
 21
51.73434161302726
 31
0.0
  0
LINE
  5
152
330
EC
100
AcDbEntity
  8
0
 62
     0
100
AcDbLine
 10
115.6874999999999
 20
35.07447046157856
 30
0.0
 11
115.6874999999999
 21
45.96221615659269
 31
0.0
  0
LINE
  5
153
330
EC
100
AcDbEntity
  8
0
 62
     0
100
AcDbLine
 10
115.4999999999999
 20
30.73434161302726
 30
0.0
 11
115.4999999999999
 21
31.73434161302726
 31
0.0
  0
LINE
  5
154
330
EC
100
AcDbEntity
  8
0
 62
     0
100
AcDbLine
 10
115.4999999999999
 20
50.73434161302725
 30
0.0
 11
115.4999999999999
 21
51.73434161302726
 31
0.0
  0
LINE
  5
155
330
EC
100
AcDbEntity
  8
0
 62
     0
100
AcDbLine
 10
115.4999999999999
 20
35.03252279226054
 30
0.0
 11
115.4999999999999
 21
46.28697568286352
 31
0.0
  0
LINE
  5
156
330
EC
100
AcDbEntity
  8
0
 62
     0
100
AcDbLine
 10
115.3124999999999
 20
30.73434161302726
 30
0.0
 11
115.3124999999999
 21
31.73434161302726
 31
0.0
  0
LINE
  5
157
330
EC
100
AcDbEntity
  8
0
 62
     0
100
AcDbLine
 10
115.3124999999999
 20
50.73434161302725
 30
0.0
 11
115.3124999999999
 21
51.73434161302726
 31
0.0
  0
LINE
  5
158
330
EC
100
AcDbEntity
  8
0
 62
     0
100
AcDbLine
 10
115.3124999999999
 20
35.02690536785105
 30
0.0
 11
115.3124999999999
 21
46.61173520913435
 31
0.0
  0
LINE
  5
159
330
EC
100
AcDbEntity
  8
0
 62
     0
100
AcDbLine
 10
115.1249999999999
 20
30.73434161302726
 30
0.0
 11
115.1249999999999
 21
31.73434161302726
 31
0.0
  0
LINE
  5
15A
330
EC
100
AcDbEntity
  8
0
 62
     0
100
AcDbLine
 10
115.1249999999999
 20
50.73434161302725
 30
0.0
 11
115.1249999999999
 21
51.73434161302726
 31
0.0
  0
LINE
  5
15B
330
EC
100
AcDbEntity
  8
0
 62
     0
100
AcDbLine
 10
115.1249999999999
 20
35.05698541235051
 30
0.0
 11
115.1249999999999
 21
46.93649473540518
 31
0.0
  0
LINE
  5
15C
330
EC
100
AcDbEntity
  8
0
 62
     0
100
AcDbLine
 10
114.9374999999999
 20
30.73434161302726
 30
0.0
 11
114.9374999999999
 21
31.73434161302726
 31
0.0
  0
LINE
  5
15D
330
EC
100
AcDbEntity
  8
0
 62
     0
100
AcDbLine
 10
114.9374999999999
 20
50.73434161302725
 30
0.0
 11
114.9374999999999
 21
51.73434161302726
 31
0.0
  0
LINE
  5
15E
330
EC
100
AcDbEntity
  8
0
 62
     0
100
AcDbLine
 10
114.9374999999999
 20
35.1263409750557
 30
0.0
 11
114.9374999999999
 21
47.54073586155272
 31
0.0
  0
LINE
  5
15F
330
EC
100
AcDbEntity
  8
0
 62
     0
100
AcDbLine
 10
114.7499999999999
 20
30.73434161302726
 30
0.0
 11
114.7499999999999
 21
31.73434161302726
 31
0.0
  0
LINE
  5
160
330
EC
100
AcDbEntity
  8
0
 62
     0
100
AcDbLine
 10
114.7499999999999
 20
50.73434161302725
 30
0.0
 11
114.7499999999999
 21
51.73434161302726
 31
0.0
  0
LINE
  5
161
330
EC
100
AcDbEntity
  8
0
 62
     0
100
AcDbLine
 10
114.7499999999999
 20
35.24538639737466
 30
0.0
 11
114.7499999999999
 21
47.21597633515672
 31
0.0
  0
LINE
  5
162
330
EC
100
AcDbEntity
  8
0
 62
     0
100
AcDbLine
 10
114.5624999999999
 20
30.73434161302726
 30
0.0
 11
114.5624999999999
 21
31.73434161302726
 31
0.0
  0
LINE
  5
163
330
EC
100
AcDbEntity
  8
0
 62
     0
100
AcDbLine
 10
114.5624999999999
 20
50.73434161302725
 30
0.0
 11
114.5624999999999
 21
51.73434161302726
 31
0.0
  0
LINE
  5
164
330
EC
100
AcDbEntity
  8
0
 62
     0
100
AcDbLine
 10
114.5624999999999
 20
35.44390461668304
 30
0.0
 11
114.5624999999999
 21
46.89121680876072
 31
0.0
  0
LINE
  5
165
330
EC
100
AcDbEntity
  8
0
 62
     0
100
AcDbLine
 10
114.3749999999999
 20
30.73434161302726
 30
0.0
 11
114.3749999999999
 21
31.73434161302726
 31
0.0
  0
LINE
  5
166
330
EC
100
AcDbEntity
  8
0
 62
     0
100
AcDbLine
 10
114.3749999999999
 20
50.73434161302725
 30
0.0
 11
114.3749999999999
 21
51.73434161302726
 31
0.0
  0
LINE
  5
167
330
EC
100
AcDbEntity
  8
0
 62
     0
100
AcDbLine
 10
114.3749999999999
 20
35.75939714825758
 30
0.0
 11
114.3749999999999
 21
46.56645728236473
 31
0.0
  0
LINE
  5
168
330
EC
100
AcDbEntity
  8
0
 62
     0
100
AcDbLine
 10
114.1874999999999
 20
30.73434161302726
 30
0.0
 11
114.1874999999999
 21
31.73434161302726
 31
0.0
  0
LINE
  5
169
330
EC
100
AcDbEntity
  8
0
 62
     0
100
AcDbLine
 10
114.1874999999999
 20
50.73434161302725
 30
0.0
 11
114.1874999999999
 21
51.73434161302726
 31
0.0
  0
LINE
  5
16A
330
EC
100
AcDbEntity
  8
0
 62
     0
100
AcDbLine
 10
114.1874999999999
 20
36.08415667527249
 30
0.0
 11
114.1874999999999
 21
46.24169775596873
 31
0.0
  0
LINE
  5
16B
330
EC
100
AcDbEntity
  8
0
 62
     0
100
AcDbLine
 10
113.9999999999999
 20
30.73434161302726
 30
0.0
 11
113.9999999999999
 21
31.73434161302726
 31
0.0
  0
LINE
  5
16C
330
EC
100
AcDbEntity
  8
0
 62
     0
100
AcDbLine
 10
113.9999999999999
 20
50.73434161302725
 30
0.0
 11
113.9999999999999
 21
51.73434161302726
 31
0.0
  0
LINE
  5
16D
330
EC
100
AcDbEntity
  8
0
 62
     0
100
AcDbLine
 10
113.9999999999999
 20
36.40891620228741
 30
0.0
 11
113.9999999999999
 21
45.91693822957273
 31
0.0
  0
LINE
  5
16E
330
EC
100
AcDbEntity
  8
0
 62
     0
100
AcDbLine
 10
113.8124999999999
 20
30.73434161302726
 30
0.0
 11
113.8124999999999
 21
31.73434161302726
 31
0.0
  0
LINE
  5
16F
330
EC
100
AcDbEntity
  8
0
 62
     0
100
AcDbLine
 10
113.8124999999999
 20
50.73434161302725
 30
0.0
 11
113.8124999999999
 21
51.73434161302726
 31
0.0
  0
LINE
  5
170
330
EC
100
AcDbEntity
  8
0
 62
     0
100
AcDbLine
 10
113.8124999999999
 20
36.73367572930232
 30
0.0
 11
113.8124999999999
 21
45.59217870317673
 31
0.0
  0
LINE
  5
171
330
EC
100
AcDbEntity
  8
0
 62
     0
100
AcDbLine
 10
113.6249999999999
 20
30.73434161302726
 30
0.0
 11
113.6249999999999
 21
31.73434161302726
 31
0.0
  0
LINE
  5
172
330
EC
100
AcDbEntity
  8
0
 62
     0
100
AcDbLine
 10
113.6249999999999
 20
50.73434161302725
 30
0.0
 11
113.6249999999999
 21
51.73434161302726
 31
0.0
  0
LINE
  5
173
330
EC
100
AcDbEntity
  8
0
 62
     0
100
AcDbLine
 10
113.6249999999999
 20
37.05843525631724
 30
0.0
 11
113.6249999999999
 21
45.26741917678073
 31
0.0
  0
LINE
  5
174
330
EC
100
AcDbEntity
  8
0
 62
     0
100
AcDbLine
 10
113.4374999999999
 20
30.73434161302726
 30
0.0
 11
113.4374999999999
 21
31.73434161302726
 31
0.0
  0
LINE
  5
175
330
EC
100
AcDbEntity
  8
0
 62
     0
100
AcDbLine
 10
113.4374999999999
 20
50.73434161302725
 30
0.0
 11
113.4374999999999
 21
51.73434161302726
 31
0.0
  0
LINE
  5
176
330
EC
100
AcDbEntity
  8
0
 62
     0
100
AcDbLine
 10
113.4374999999999
 20
37.38319478333215
 30
0.0
 11
113.4374999999999
 21
44.94265965038473
 31
0.0
  0
LINE
  5
177
330
EC
100
AcDbEntity
  8
0
 62
     0
100
AcDbLine
 10
113.2499999999999
 20
30.73434161302726
 30
0.0
 11
113.2499999999999
 21
31.73434161302726
 31
0.0
  0
LINE
  5
178
330
EC
100
AcDbEntity
  8
0
 62
     0
100
AcDbLine
 10
113.2499999999999
 20
50.73434161302725
 30
0.0
 11
113.2499999999999
 21
51.73434161302726
 31
0.0
  0
LINE
  5
179
330
EC
100
AcDbEntity
  8
0
 62
     0
100
AcDbLine
 10
113.2499999999999
 20
37.70795431034707
 30
0.0
 11
113.2499999999999
 21
44.61790012398874
 31
0.0
  0
LINE
  5
17A
330
EC
100
AcDbEntity
  8
0
 62
     0
100
AcDbLine
 10
113.0624999999999
 20
30.73434161302726
 30
0.0
 11
113.0624999999999
 21
31.73434161302726
 31
0.0
  0
LINE
  5
17B
330
EC
100
AcDbEntity
  8
0
 62
     0
100
AcDbLine
 10
113.0624999999999
 20
50.73434161302725
 30
0.0
 11
113.0624999999999
 21
51.73434161302726
 31
0.0
  0
LINE
  5
17C
330
EC
100
AcDbEntity
  8
0
 62
     0
100
AcDbLine
 10
113.0624999999999
 20
38.03271383736198
 30
0.0
 11
113.0624999999999
 21
44.29314059759273
 31
0.0
  0
LINE
  5
17D
330
EC
100
AcDbEntity
  8
0
 62
     0
100
AcDbLine
 10
112.8749999999999
 20
30.73434161302726
 30
0.0
 11
112.8749999999999
 21
31.73434161302726
 31
0.0
  0
LINE
  5
17E
330
EC
100
AcDbEntity
  8
0
 62
     0
100
AcDbLine
 10
112.8749999999999
 20
50.73434161302725
 30
0.0
 11
112.8749999999999
 21
51.73434161302726
 31
0.0
  0
LINE
  5
17F
330
EC
100
AcDbEntity
  8
0
 62
     0
100
AcDbLine
 10
112.8749999999999
 20
38.35747336437689
 30
0.0
 11
112.8749999999999
 21
43.96838107119673
 31
0.0
  0
LINE
  5
180
330
EC
100
AcDbEntity
  8
0
 62
     0
100
AcDbLine
 10
112.6874999999999
 20
30.73434161302726
 30
0.0
 11
112.6874999999999
 21
31.73434161302726
 31
0.0
  0
LINE
  5
181
330
EC
100
AcDbEntity
  8
0
 62
     0
100
AcDbLine
 10
112.6874999999999
 20
50.73434161302725
 30
0.0
 11
112.6874999999999
 21
51.73434161302726
 31
0.0
  0
LINE
  5
182
330
EC
100
AcDbEntity
  8
0
 62
     0
100
AcDbLine
 10
112.6874999999999
 20
38.68223289139181
 30
0.0
 11
112.6874999999999
 21
43.64362154480074
 31
0.0
  0
LINE
  5
183
330
EC
100
AcDbEntity
  8
0
 62
     0
100
AcDbLine
 10
112.4999999999999
 20
30.73434161302726
 30
0.0
 11
112.4999999999999
 21
31.73434161302726
 31
0.0
  0
LINE
  5
184
330
EC
100
AcDbEntity
  8
0
 62
     0
100
AcDbLine
 10
112.4999999999999
 20
50.73434161302725
 30
0.0
 11
112.4999999999999
 21
51.73434161302726
 31
0.0
  0
LINE
  5
185
330
EC
100
AcDbEntity
  8
0
 62
     0
100
AcDbLine
 10
112.4999999999999
 20
39.00699241840672
 30
0.0
 11
112.4999999999999
 21
43.31886201840474
 31
0.0
  0
LINE
  5
186
330
EC
100
AcDbEntity
  8
0
 62
     0
100
AcDbLine
 10
112.3124999999999
 20
30.73434161302726
 30
0.0
 11
112.3124999999999
 21
31.73434161302726
 31
0.0
  0
LINE
  5
187
330
EC
100
AcDbEntity
  8
0
 62
     0
100
AcDbLine
 10
112.3124999999999
 20
50.73434161302725
 30
0.0
 11
112.3124999999999
 21
51.73434161302726
 31
0.0
  0
LINE
  5
188
330
EC
100
AcDbEntity
  8
0
 62
     0
100
AcDbLine
 10
112.3124999999999
 20
39.33175194542164
 30
0.0
 11
112.3124999999999
 21
42.99410249200874
 31
0.0
  0
LINE
  5
189
330
EC
100
AcDbEntity
  8
0
 62
     0
100
AcDbLine
 10
112.1249999999999
 20
30.73434161302726
 30
0.0
 11
112.1249999999999
 21
31.73434161302726
 31
0.0
  0
LINE
  5
18A
330
EC
100
AcDbEntity
  8
0
 62
     0
100
AcDbLine
 10
112.1249999999999
 20
50.73434161302725
 30
0.0
 11
112.1249999999999
 21
51.73434161302726
 31
0.0
  0
LINE
  5
18B
330
EC
100
AcDbEntity
  8
0
 62
     0
100
AcDbLine
 10
112.1249999999999
 20
39.65651147243655
 30
0.0
 11
112.1249999999999
 21
42.66934296561275
 31
0.0
  0
LINE
  5
18C
330
EC
100
AcDbEntity
  8
0
 62
     0
100
AcDbLine
 10
111.9374999999999
 20
30.73434161302726
 30
0.0
 11
111.9374999999999
 21
31.73434161302726
 31
0.0
  0
LINE
  5
18D
330
EC
100
AcDbEntity
  8
0
 62
     0
100
AcDbLine
 10
111.9374999999999
 20
50.73434161302725
 30
0.0
 11
111.9374999999999
 21
51.73434161302726
 31
0.0
  0
LINE
  5
18E
330
EC
100
AcDbEntity
  8
0
 62
     0
100
AcDbLine
 10
111.9374999999999
 20
39.98127099945147
 30
0.0
 11
111.9374999999999
 21
42.34458343921675
 31
0.0
  0
LINE
  5
18F
330
EC
100
AcDbEntity
  8
0
 62
     0
100
AcDbLine
 10
111.7499999999999
 20
30.73434161302726
 30
0.0
 11
111.7499999999999
 21
31.73434161302726
 31
0.0
  0
LINE
  5
190
330
EC
100
AcDbEntity
  8
0
 62
     0
100
AcDbLine
 10
111.7499999999999
 20
50.73434161302725
 30
0.0
 11
111.7499999999999
 21
51.73434161302726
 31
0.0
  0
LINE
  5
191
330
EC
100
AcDbEntity
  8
0
 62
     0
100
AcDbLine
 10
111.7499999999999
 20
40.30603052646639
 30
0.0
 11
111.7499999999999
 21
42.01982391282075
 31
0.0
  0
LINE
  5
192
330
EC
100
AcDbEntity
  8
0
 62
     0
100
AcDbLine
 10
111.5624999999999
 20
30.740674914095
 30
0.0
 11
111.5624999999999
 21
31.74492105275434
 31
0.0
  0
LINE
  5
193
330
EC
100
AcDbEntity
  8
0
 62
     0
100
AcDbLine
 10
111.5624999999999
 20
50.72376217330047
 30
0.0
 11
111.5624999999999
 21
51.72800831195969
 31
0.0
  0
LINE
  5
194
330
EC
100
AcDbEntity
  8
0
 62
     0
100
AcDbLine
 10
111.5624999999999
 20
40.6307900534813
 30
0.0
 11
111.5624999999999
 21
41.69506438642475
 31
0.0
  0
LINE
  5
195
330
EC
100
AcDbEntity
  8
0
 62
     0
100
AcDbLine
 10
111.3749999999999
 20
30.76118006092885
 30
0.0
 11
111.3749999999999
 21
31.77951239185461
 31
0.0
  0
LINE
  5
196
330
EC
100
AcDbEntity
  8
0
 62
     0
100
AcDbLine
 10
111.3749999999999
 20
50.6891708342002
 30
0.0
 11
111.3749999999999
 21
51.70750316512584
 31
0.0
  0
LINE
  5
197
330
EC
100
AcDbEntity
  8
0
 62
     0
100
AcDbLine
 10
111.1874999999999
 20
30.79623373596523
 30
0.0
 11
111.1874999999999
 21
31.83993492192459
 31
0.0
  0
LINE
  5
198
330
EC
100
AcDbEntity
  8
0
 62
     0
100
AcDbLine
 10
111.1874999999999
 20
50.62874830413023
 30
0.0
 11
111.1874999999999
 21
51.67244949008946
 31
0.0
  0
LINE
  5
199
330
EC
100
AcDbEntity
  8
0
 62
     0
100
AcDbLine
 10
110.9999999999999
 20
30.84647656709062
 30
0.0
 11
110.9999999999999
 21
31.92977291893484
 31
0.0
  0
LINE
  5
19A
330
EC
100
AcDbEntity
  8
0
 62
     0
100
AcDbLine
 10
110.9999999999999
 20
50.53891030712001
 30
0.0
 11
110.9999999999999
 21
51.62220665896407
 31
0.0
  0
LINE
  5
19B
330
EC
100
AcDbEntity
  8
0
 62
     0
100
AcDbLine
 10
110.8124999999999
 20
30.91289455676685
 30
0.0
 11
110.8124999999999
 21
32.05573377535601
 31
0.0
  0
LINE
  5
19C
330
EC
100
AcDbEntity
  8
0
 62
     0
100
AcDbLine
 10
110.8124999999999
 20
50.41294945069886
 30
0.0
 11
110.8124999999999
 21
51.55578866928784
 31
0.0
  0
LINE
  5
19D
330
EC
100
AcDbEntity
  8
0
 62
     0
100
AcDbLine
 10
110.6249999999999
 20
30.99692772810695
 30
0.0
 11
110.6249999999999
 21
32.23133568461298
 31
0.0
  0
LINE
  5
19E
330
EC
100
AcDbEntity
  8
0
 62
     0
100
AcDbLine
 10
110.6249999999999
 20
50.23734754144197
 30
0.0
 11
110.6249999999999
 21
51.47175549794775
 31
0.0
  0
LINE
  5
19F
330
EC
100
AcDbEntity
  8
0
 62
     0
100
AcDbLine
 10
110.4374999999999
 20
31.10065633870766
 30
0.0
 11
110.4374999999999
 21
32.49096226851445
 31
0.0
  0
LINE
  5
1A0
330
EC
100
AcDbEntity
  8
0
 62
     0
100
AcDbLine
 10
110.4374999999999
 20
49.97772095754063
 30
0.0
 11
110.4374999999999
 21
51.36802688734705
 31
0.0
  0
LINE
  5
1A1
330
EC
100
AcDbEntity
  8
0
 62
     0
100
AcDbLine
 10
110.2499999999999
 20
31.22713153252687
 30
0.0
 11
110.2499999999999
 21
33.06436424023194
 31
0.0
  0
LINE
  5
1A2
330
EC
100
AcDbEntity
  8
0
 62
     0
100
AcDbLine
 10
110.2499999999999
 20
49.40431898582504
 30
0.0
 11
110.2499999999999
 21
51.24155169352786
 31
0.0
  0
LINE
  5
1A3
330
EC
100
AcDbEntity
  8
0
 62
     0
100
AcDbLine
 10
110.0624999999999
 20
31.38100428143419
 30
0.0
 11
110.0624999999999
 21
51.08767894462054
 31
0.0
  0
LINE
  5
1A4
330
EC
100
AcDbEntity
  8
0
 62
     0
100
AcDbLine
 10
109.8749999999999
 20
31.56985558962826
 30
0.0
 11
109.8749999999999
 21
50.89882763642649
 31
0.0
  0
LINE
  5
1A5
330
EC
100
AcDbEntity
  8
0
 62
     0
100
AcDbLine
 10
109.6874999999999
 20
31.80750746726795
 30
0.0
 11
109.6874999999999
 21
50.66117575878685
 31
0.0
  0
LINE
  5
1A6
330
EC
100
AcDbEntity
  8
0
 62
     0
100
AcDbLine
 10
109.4999999999999
 20
32.12488898361093
 30
0.0
 11
109.4999999999999
 21
50.34379424244395
 31
0.0
  0
LINE
  5
1A7
330
EC
100
AcDbEntity
  8
0
 62
     0
100
AcDbLine
 10
109.3124999999999
 20
32.63801779635305
 30
0.0
 11
109.3124999999999
 21
49.83066542970214
 31
0.0
  0
LINE
  5
1A8
330
EC
100
AcDbEntity
  8
0
 62
     0
100
AcDbLine
 10
119.8124999999999
 20
30.73434161302726
 30
0.0
 11
119.8124999999999
 21
31.73434161302726
 31
0.0
  0
LINE
  5
1A9
330
EC
100
AcDbEntity
  8
0
 62
     0
100
AcDbLine
 10
119.8124999999999
 20
50.73434161302725
 30
0.0
 11
119.8124999999999
 21
51.73434161302726
 31
0.0
  0
LINE
  5
1AA
330
EC
100
AcDbEntity
  8
0
 62
     0
100
AcDbLine
 10
119.8124999999999
 20
34.23389329927631
 30
0.0
 11
119.8124999999999
 21
40.08222418853857
 31
0.0
  0
LINE
  5
1AB
330
EC
100
AcDbEntity
  8
0
 62
     0
100
AcDbLine
 10
119.8124999999999
 20
42.36292722007112
 30
0.0
 11
119.8124999999999
 21
48.39196114086594
 31
0.0
  0
LINE
  5
1AC
330
EC
100
AcDbEntity
  8
0
 62
     0
100
AcDbLine
 10
119.9999999999999
 20
30.73434161302726
 30
0.0
 11
119.9999999999999
 21
31.73434161302726
 31
0.0
  0
LINE
  5
1AD
330
EC
100
AcDbEntity
  8
0
 62
     0
100
AcDbLine
 10
119.9999999999999
 20
50.73434161302725
 30
0.0
 11
119.9999999999999
 21
51.73434161302726
 31
0.0
  0
LINE
  5
1AE
330
EC
100
AcDbEntity
  8
0
 62
     0
100
AcDbLine
 10
119.9999999999999
 20
34.23389329927631
 30
0.0
 11
119.9999999999999
 21
40.1624328003386
 31
0.0
  0
LINE
  5
1AF
330
EC
100
AcDbEntity
  8
0
 62
     0
100
AcDbLine
 10
119.9999999999999
 20
42.36292722007112
 30
0.0
 11
119.9999999999999
 21
48.39196114086594
 31
0.0
  0
LINE
  5
1B0
330
EC
100
AcDbEntity
  8
0
 62
     0
100
AcDbLine
 10
120.1874999999999
 20
30.73434161302726
 30
0.0
 11
120.1874999999999
 21
31.73434161302726
 31
0.0
  0
LINE
  5
1B1
330
EC
100
AcDbEntity
  8
0
 62
     0
100
AcDbLine
 10
120.1874999999999
 20
50.73434161302725
 30
0.0
 11
120.1874999999999
 21
51.73434161302726
 31
0.0
  0
LINE
  5
1B2
330
EC
100
AcDbEntity
  8
0
 62
     0
100
AcDbLine
 10
120.1874999999999
 20
34.23389329927631
 30
0.0
 11
120.1874999999999
 21
40.16292722007113
 31
0.0
  0
LINE
  5
1B3
330
EC
100
AcDbEntity
  8
0
 62
     0
100
AcDbLine
 10
120.1874999999999
 20
42.36292722007112
 30
0.0
 11
120.1874999999999
 21
48.39196114086594
 31
0.0
  0
LINE
  5
1B4
330
EC
100
AcDbEntity
  8
0
 62
     0
100
AcDbLine
 10
120.3749999999999
 20
30.73434161302726
 30
0.0
 11
120.3749999999999
 21
31.73434161302726
 31
0.0
  0
LINE
  5
1B5
330
EC
100
AcDbEntity
  8
0
 62
     0
100
AcDbLine
 10
120.3749999999999
 20
50.73434161302725
 30
0.0
 11
120.3749999999999
 21
51.73434161302726
 31
0.0
  0
LINE
  5
1B6
330
EC
100
AcDbEntity
  8
0
 62
     0
100
AcDbLine
 10
120.3749999999999
 20
34.23389329927631
 30
0.0
 11
120.3749999999999
 21
40.16292722007113
 31
0.0
  0
LINE
  5
1B7
330
EC
100
AcDbEntity
  8
0
 62
     0
100
AcDbLine
 10
120.3749999999999
 20
42.36292722007112
 30
0.0
 11
120.3749999999999
 21
48.39196114086594
 31
0.0
  0
LINE
  5
1B8
330
EC
100
AcDbEntity
  8
0
 62
     0
100
AcDbLine
 10
120.5624999999999
 20
30.73434161302726
 30
0.0
 11
120.5624999999999
 21
31.73434161302726
 31
0.0
  0
LINE
  5
1B9
330
EC
100
AcDbEntity
  8
0
 62
     0
100
AcDbLine
 10
120.5624999999999
 20
50.73434161302725
 30
0.0
 11
120.5624999999999
 21
51.73434161302726
 31
0.0
  0
LINE
  5
1BA
330
EC
100
AcDbEntity
  8
0
 62
     0
100
AcDbLine
 10
120.5624999999999
 20
34.23389329927631
 30
0.0
 11
120.5624999999999
 21
40.16292722007113
 31
0.0
  0
LINE
  5
1BB
330
EC
100
AcDbEntity
  8
0
 62
     0
100
AcDbLine
 10
120.5624999999999
 20
42.36292722007112
 30
0.0
 11
120.5624999999999
 21
48.39196114086594
 31
0.0
  0
LINE
  5
1BC
330
EC
100
AcDbEntity
  8
0
 62
     0
100
AcDbLine
 10
120.7499999999999
 20
30.73434161302726
 30
0.0
 11
120.7499999999999
 21
31.73434161302726
 31
0.0
  0
LINE
  5
1BD
330
EC
100
AcDbEntity
  8
0
 62
     0
100
AcDbLine
 10
120.7499999999999
 20
50.73434161302725
 30
0.0
 11
120.7499999999999
 21
51.73434161302726
 31
0.0
  0
LINE
  5
1BE
330
EC
100
AcDbEntity
  8
0
 62
     0
100
AcDbLine
 10
120.7499999999999
 20
34.23389329927631
 30
0.0
 11
120.7499999999999
 21
40.16292722007113
 31
0.0
  0
LINE
  5
1BF
330
EC
100
AcDbEntity
  8
0
 62
     0
100
AcDbLine
 10
120.7499999999999
 20
42.36292722007112
 30
0.0
 11
120.7499999999999
 21
48.39196114086594
 31
0.0
  0
LINE
  5
1C0
330
EC
100
AcDbEntity
  8
0
 62
     0
100
AcDbLine
 10
120.9374999999999
 20
30.73434161302726
 30
0.0
 11
120.9374999999999
 21
31.73434161302726
 31
0.0
  0
LINE
  5
1C1
330
EC
100
AcDbEntity
  8
0
 62
     0
100
AcDbLine
 10
120.9374999999999
 20
50.73434161302725
 30
0.0
 11
120.9374999999999
 21
51.73434161302726
 31
0.0
  0
LINE
  5
1C2
330
EC
100
AcDbEntity
  8
0
 62
     0
100
AcDbLine
 10
120.9374999999999
 20
34.23389329927631
 30
0.0
 11
120.9374999999999
 21
40.16292722007113
 31
0.0
  0
LINE
  5
1C3
330
EC
100
AcDbEntity
  8
0
 62
     0
100
AcDbLine
 10
120.9374999999999
 20
42.36292722007112
 30
0.0
 11
120.9374999999999
 21
48.39196114086594
 31
0.0
  0
LINE
  5
1C4
330
EC
100
AcDbEntity
  8
0
 62
     0
100
AcDbLine
 10
121.1249999999999
 20
30.73434161302726
 30
0.0
 11
121.1249999999999
 21
31.73434161302726
 31
0.0
  0
LINE
  5
1C5
330
EC
100
AcDbEntity
  8
0
 62
     0
100
AcDbLine
 10
121.1249999999999
 20
50.73434161302725
 30
0.0
 11
121.1249999999999
 21
51.73434161302726
 31
0.0
  0
LINE
  5
1C6
330
EC
100
AcDbEntity
  8
0
 62
     0
100
AcDbLine
 10
121.1249999999999
 20
34.23389329927631
 30
0.0
 11
121.1249999999999
 21
40.16292722007113
 31
0.0
  0
LINE
  5
1C7
330
EC
100
AcDbEntity
  8
0
 62
     0
100
AcDbLine
 10
121.1249999999999
 20
42.36292722007112
 30
0.0
 11
121.1249999999999
 21
48.39196114086594
 31
0.0
  0
LINE
  5
1C8
330
EC
100
AcDbEntity
  8
0
 62
     0
100
AcDbLine
 10
121.3124999999999
 20
30.73434161302726
 30
0.0
 11
121.3124999999999
 21
31.73434161302726
 31
0.0
  0
LINE
  5
1C9
330
EC
100
AcDbEntity
  8
0
 62
     0
100
AcDbLine
 10
121.3124999999999
 20
50.73434161302725
 30
0.0
 11
121.3124999999999
 21
51.73434161302726
 31
0.0
  0
LINE
  5
1CA
330
EC
100
AcDbEntity
  8
0
 62
     0
100
AcDbLine
 10
121.3124999999999
 20
34.23389329927631
 30
0.0
 11
121.3124999999999
 21
40.16292722007113
 31
0.0
  0
LINE
  5
1CB
330
EC
100
AcDbEntity
  8
0
 62
     0
100
AcDbLine
 10
121.3124999999999
 20
42.36292722007112
 30
0.0
 11
121.3124999999999
 21
48.39196114086594
 31
0.0
  0
LINE
  5
1CC
330
EC
100
AcDbEntity
  8
0
 62
     0
100
AcDbLine
 10
121.4999999999999
 20
30.73434161302726
 30
0.0
 11
121.4999999999999
 21
31.73434161302726
 31
0.0
  0
LINE
  5
1CD
330
EC
100
AcDbEntity
  8
0
 62
     0
100
AcDbLine
 10
121.4999999999999
 20
50.73434161302725
 30
0.0
 11
121.4999999999999
 21
51.73434161302726
 31
0.0
  0
LINE
  5
1CE
330
EC
100
AcDbEntity
  8
0
 62
     0
100
AcDbLine
 10
121.4999999999999
 20
34.23389329927631
 30
0.0
 11
121.4999999999999
 21
40.16292722007113
 31
0.0
  0
LINE
  5
1CF
330
EC
100
AcDbEntity
  8
0
 62
     0
100
AcDbLine
 10
121.4999999999999
 20
42.36292722007112
 30
0.0
 11
121.4999999999999
 21
48.39196114086594
 31
0.0
  0
LINE
  5
1D0
330
EC
100
AcDbEntity
  8
0
 62
     0
100
AcDbLine
 10
121.6874999999999
 20
30.73434161302726
 30
0.0
 11
121.6874999999999
 21
31.73434161302726
 31
0.0
  0
LINE
  5
1D1
330
EC
100
AcDbEntity
  8
0
 62
     0
100
AcDbLine
 10
121.6874999999999
 20
50.73434161302725
 30
0.0
 11
121.6874999999999
 21
51.73434161302726
 31
0.0
  0
LINE
  5
1D2
330
EC
100
AcDbEntity
  8
0
 62
     0
100
AcDbLine
 10
121.6874999999999
 20
34.23389329927631
 30
0.0
 11
121.6874999999999
 21
40.16292722007113
 31
0.0
  0
LINE
  5
1D3
330
EC
100
AcDbEntity
  8
0
 62
     0
100
AcDbLine
 10
121.6874999999999
 20
42.36292722007112
 30
0.0
 11
121.6874999999999
 21
48.39196114086594
 31
0.0
  0
LINE
  5
1D4
330
EC
100
AcDbEntity
  8
0
 62
     0
100
AcDbLine
 10
121.8749999999999
 20
30.73434161302726
 30
0.0
 11
121.8749999999999
 21
31.73434161302726
 31
0.0
  0
LINE
  5
1D5
330
EC
100
AcDbEntity
  8
0
 62
     0
100
AcDbLine
 10
121.8749999999999
 20
50.73434161302725
 30
0.0
 11
121.8749999999999
 21
51.73434161302726
 31
0.0
  0
LINE
  5
1D6
330
EC
100
AcDbEntity
  8
0
 62
     0
100
AcDbLine
 10
121.8749999999999
 20
34.23389329927631
 30
0.0
 11
121.8749999999999
 21
40.16292722007113
 31
0.0
  0
LINE
  5
1D7
330
EC
100
AcDbEntity
  8
0
 62
     0
100
AcDbLine
 10
121.8749999999999
 20
42.36292722007112
 30
0.0
 11
121.8749999999999
 21
48.39196114086594
 31
0.0
  0
LINE
  5
1D8
330
EC
100
AcDbEntity
  8
0
 62
     0
100
AcDbLine
 10
122.0624999999999
 20
30.73434161302726
 30
0.0
 11
122.0624999999999
 21
31.73434161302726
 31
0.0
  0
LINE
  5
1D9
330
EC
100
AcDbEntity
  8
0
 62
     0
100
AcDbLine
 10
122.0624999999999
 20
50.73434161302725
 30
0.0
 11
122.0624999999999
 21
51.73434161302726
 31
0.0
  0
LINE
  5
1DA
330
EC
100
AcDbEntity
  8
0
 62
     0
100
AcDbLine
 10
122.0624999999999
 20
34.23389329927631
 30
0.0
 11
122.0624999999999
 21
40.16292722007113
 31
0.0
  0
LINE
  5
1DB
330
EC
100
AcDbEntity
  8
0
 62
     0
100
AcDbLine
 10
122.0624999999999
 20
42.36292722007112
 30
0.0
 11
122.0624999999999
 21
48.39196114086594
 31
0.0
  0
LINE
  5
1DC
330
EC
100
AcDbEntity
  8
0
 62
     0
100
AcDbLine
 10
122.2499999999999
 20
30.73434161302726
 30
0.0
 11
122.2499999999999
 21
31.73434161302726
 31
0.0
  0
LINE
  5
1DD
330
EC
100
AcDbEntity
  8
0
 62
     0
100
AcDbLine
 10
122.2499999999999
 20
50.73434161302725
 30
0.0
 11
122.2499999999999
 21
51.73434161302726
 31
0.0
  0
LINE
  5
1DE
330
EC
100
AcDbEntity
  8
0
 62
     0
100
AcDbLine
 10
122.2499999999999
 20
34.23389329927631
 30
0.0
 11
122.2499999999999
 21
40.16292722007113
 31
0.0
  0
LINE
  5
1DF
330
EC
100
AcDbEntity
  8
0
 62
     0
100
AcDbLine
 10
122.2499999999999
 20
42.36292722007112
 30
0.0
 11
122.2499999999999
 21
48.39196114086594
 31
0.0
  0
LINE
  5
1E0
330
EC
100
AcDbEntity
  8
0
 62
     0
100
AcDbLine
 10
122.4374999999999
 20
30.73434161302726
 30
0.0
 11
122.4374999999999
 21
31.73434161302726
 31
0.0
  0
LINE
  5
1E1
330
EC
100
AcDbEntity
  8
0
 62
     0
100
AcDbLine
 10
122.4374999999999
 20
50.73434161302725
 30
0.0
 11
122.4374999999999
 21
51.73434161302726
 31
0.0
  0
LINE
  5
1E2
330
EC
100
AcDbEntity
  8
0
 62
     0
100
AcDbLine
 10
122.4374999999999
 20
34.23389329927631
 30
0.0
 11
122.4374999999999
 21
40.16292722007113
 31
0.0
  0
LINE
  5
1E3
330
EC
100
AcDbEntity
  8
0
 62
     0
100
AcDbLine
 10
122.4374999999999
 20
42.36292722007112
 30
0.0
 11
122.4374999999999
 21
48.39196114086594
 31
0.0
  0
LINE
  5
1E4
330
EC
100
AcDbEntity
  8
0
 62
     0
100
AcDbLine
 10
122.6249999999999
 20
30.73434161302726
 30
0.0
 11
122.6249999999999
 21
31.73434161302726
 31
0.0
  0
LINE
  5
1E5
330
EC
100
AcDbEntity
  8
0
 62
     0
100
AcDbLine
 10
122.6249999999999
 20
50.73434161302725
 30
0.0
 11
122.6249999999999
 21
51.73434161302726
 31
0.0
  0
LINE
  5
1E6
330
EC
100
AcDbEntity
  8
0
 62
     0
100
AcDbLine
 10
122.6249999999999
 20
34.23389329927631
 30
0.0
 11
122.6249999999999
 21
40.16292722007113
 31
0.0
  0
LINE
  5
1E7
330
EC
100
AcDbEntity
  8
0
 62
     0
100
AcDbLine
 10
122.6249999999999
 20
42.36292722007112
 30
0.0
 11
122.6249999999999
 21
48.39196114086594
 31
0.0
  0
LINE
  5
1E8
330
EC
100
AcDbEntity
  8
0
 62
     0
100
AcDbLine
 10
122.8124999999999
 20
30.73434161302726
 30
0.0
 11
122.8124999999999
 21
31.73434161302726
 31
0.0
  0
LINE
  5
1E9
330
EC
100
AcDbEntity
  8
0
 62
     0
100
AcDbLine
 10
122.8124999999999
 20
50.73434161302725
 30
0.0
 11
122.8124999999999
 21
51.73434161302726
 31
0.0
  0
LINE
  5
1EA
330
EC
100
AcDbEntity
  8
0
 62
     0
100
AcDbLine
 10
122.8124999999999
 20
34.23389329927631
 30
0.0
 11
122.8124999999999
 21
40.16292722007113
 31
0.0
  0
LINE
  5
1EB
330
EC
100
AcDbEntity
  8
0
 62
     0
100
AcDbLine
 10
122.8124999999999
 20
42.36292722007112
 30
0.0
 11
122.8124999999999
 21
48.39196114086594
 31
0.0
  0
LINE
  5
1EC
330
EC
100
AcDbEntity
  8
0
 62
     0
100
AcDbLine
 10
122.9999999999999
 20
30.73434161302726
 30
0.0
 11
122.9999999999999
 21
31.73434161302726
 31
0.0
  0
LINE
  5
1ED
330
EC
100
AcDbEntity
  8
0
 62
     0
100
AcDbLine
 10
122.9999999999999
 20
50.73434161302725
 30
0.0
 11
122.9999999999999
 21
51.73434161302726
 31
0.0
  0
LINE
  5
1EE
330
EC
100
AcDbEntity
  8
0
 62
     0
100
AcDbLine
 10
122.9999999999999
 20
34.23389329927631
 30
0.0
 11
122.9999999999999
 21
40.16292722007113
 31
0.0
  0
LINE
  5
1EF
330
EC
100
AcDbEntity
  8
0
 62
     0
100
AcDbLine
 10
122.9999999999999
 20
42.36292722007112
 30
0.0
 11
122.9999999999999
 21
48.39145010178652
 31
0.0
  0
LINE
  5
1F0
330
EC
100
AcDbEntity
  8
0
 62
     0
100
AcDbLine
 10
123.1874999999999
 20
30.73434161302726
 30
0.0
 11
123.1874999999999
 21
31.73434161302726
 31
0.0
  0
LINE
  5
1F1
330
EC
100
AcDbEntity
  8
0
 62
     0
100
AcDbLine
 10
123.1874999999999
 20
50.73434161302725
 30
0.0
 11
123.1874999999999
 21
51.73434161302726
 31
0.0
  0
LINE
  5
1F2
330
EC
100
AcDbEntity
  8
0
 62
     0
100
AcDbLine
 10
123.1874999999999
 20
34.24705839230357
 30
0.0
 11
123.1874999999999
 21
40.16292722007113
 31
0.0
  0
LINE
  5
1F3
330
EC
100
AcDbEntity
  8
0
 62
     0
100
AcDbLine
 10
123.1874999999999
 20
42.36292722007112
 30
0.0
 11
123.1874999999999
 21
48.36758131842096
 31
0.0
  0
LINE
  5
1F4
330
EC
100
AcDbEntity
  8
0
 62
     0
100
AcDbLine
 10
123.3749999999999
 20
30.73434161302726
 30
0.0
 11
123.3749999999999
 21
31.73434161302726
 31
0.0
  0
LINE
  5
1F5
330
EC
100
AcDbEntity
  8
0
 62
     0
100
AcDbLine
 10
123.3749999999999
 20
50.73434161302725
 30
0.0
 11
123.3749999999999
 21
51.73434161302726
 31
0.0
  0
LINE
  5
1F6
330
EC
100
AcDbEntity
  8
0
 62
     0
100
AcDbLine
 10
123.3749999999999
 20
34.29685657824298
 30
0.0
 11
123.3749999999999
 21
40.16292722007113
 31
0.0
  0
LINE
  5
1F7
330
EC
100
AcDbEntity
  8
0
 62
     0
100
AcDbLine
 10
123.3749999999999
 20
42.36292722007112
 30
0.0
 11
123.3749999999999
 21
48.30540450457434
 31
0.0
  0
LINE
  5
1F8
330
EC
100
AcDbEntity
  8
0
 62
     0
100
AcDbLine
 10
123.5624999999999
 20
30.73434161302726
 30
0.0
 11
123.5624999999999
 21
31.73434161302726
 31
0.0
  0
LINE
  5
1F9
330
EC
100
AcDbEntity
  8
0
 62
     0
100
AcDbLine
 10
123.5624999999999
 20
50.73434161302725
 30
0.0
 11
123.5624999999999
 21
51.73434161302726
 31
0.0
  0
LINE
  5
1FA
330
EC
100
AcDbEntity
  8
0
 62
     0
100
AcDbLine
 10
123.5624999999999
 20
34.39013978105555
 30
0.0
 11
123.5624999999999
 21
40.16292722007112
 31
0.0
  0
LINE
  5
1FB
330
EC
100
AcDbEntity
  8
0
 62
     0
100
AcDbLine
 10
123.5624999999999
 20
42.36292722007112
 30
0.0
 11
123.5624999999999
 21
48.19608198163137
 31
0.0
  0
LINE
  5
1FC
330
EC
100
AcDbEntity
  8
0
 62
     0
100
AcDbLine
 10
123.7499999999999
 20
30.73434161302726
 30
0.0
 11
123.7499999999999
 21
31.73434161302726
 31
0.0
  0
LINE
  5
1FD
330
EC
100
AcDbEntity
  8
0
 62
     0
100
AcDbLine
 10
123.7499999999999
 20
50.73434161302725
 30
0.0
 11
123.7499999999999
 21
51.73434161302726
 31
0.0
  0
LINE
  5
1FE
330
EC
100
AcDbEntity
  8
0
 62
     0
100
AcDbLine
 10
123.7499999999999
 20
34.54433570019199
 30
0.0
 11
123.7499999999999
 21
40.16292722007112
 31
0.0
  0
LINE
  5
1FF
330
EC
100
AcDbEntity
  8
0
 62
     0
100
AcDbLine
 10
123.7499999999999
 20
42.36292722007112
 30
0.0
 11
123.7499999999999
 21
48.01528238581408
 31
0.0
  0
LINE
  5
200
330
EC
100
AcDbEntity
  8
0
 62
     0
100
AcDbLine
 10
123.9374999999999
 20
30.73434161302726
 30
0.0
 11
123.9374999999999
 21
31.73434161302726
 31
0.0
  0
LINE
  5
201
330
EC
100
AcDbEntity
  8
0
 62
     0
100
AcDbLine
 10
123.9374999999999
 20
50.73434161302725
 30
0.0
 11
123.9374999999999
 21
51.73434161302726
 31
0.0
  0
LINE
  5
202
330
EC
100
AcDbEntity
  8
0
 62
     0
100
AcDbLine
 10
123.9374999999999
 20
34.81305744647532
 30
0.0
 11
123.9374999999999
 21
40.16292722007112
 31
0.0
  0
LINE
  5
203
330
EC
100
AcDbEntity
  8
0
 62
     0
100
AcDbLine
 10
123.9374999999999
 20
42.36292722007112
 30
0.0
 11
123.9374999999999
 21
47.71279699366689
 31
0.0
  0
LINE
  5
204
330
EC
100
AcDbEntity
  8
0
 62
     0
100
AcDbLine
 10
124.1249999999999
 20
30.73434161302725
 30
0.0
 11
124.1249999999999
 21
31.73434161302725
 31
0.0
  0
LINE
  5
205
330
EC
100
AcDbEntity
  8
0
 62
     0
100
AcDbLine
 10
124.1249999999999
 20
50.73434161302725
 30
0.0
 11
124.1249999999999
 21
51.73434161302726
 31
0.0
  0
LINE
  5
206
330
EC
100
AcDbEntity
  8
0
 62
     0
100
AcDbLine
 10
124.1249999999999
 20
35.13781697289449
 30
0.0
 11
124.1249999999999
 21
40.16292722007112
 31
0.0
  0
LINE
  5
207
330
EC
100
AcDbEntity
  8
0
 62
     0
100
AcDbLine
 10
124.1249999999999
 20
42.36292722007112
 30
0.0
 11
124.1249999999999
 21
47.38803746724773
 31
0.0
  0
LINE
  5
208
330
EC
100
AcDbEntity
  8
0
 62
     0
100
AcDbLine
 10
124.3124999999999
 20
30.73434161302725
 30
0.0
 11
124.3124999999999
 21
31.73434161302725
 31
0.0
  0
LINE
  5
209
330
EC
100
AcDbEntity
  8
0
 62
     0
100
AcDbLine
 10
124.3124999999999
 20
50.73434161302725
 30
0.0
 11
124.3124999999999
 21
51.73434161302726
 31
0.0
  0
LINE
  5
20A
330
EC
100
AcDbEntity
  8
0
 62
     0
100
AcDbLine
 10
124.3124999999999
 20
35.46257649931365
 30
0.0
 11
124.3124999999999
 21
40.16292722007112
 31
0.0
  0
LINE
  5
20B
330
EC
100
AcDbEntity
  8
0
 62
     0
100
AcDbLine
 10
124.3124999999999
 20
42.36292722007112
 30
0.0
 11
124.3124999999999
 21
47.06327794082857
 31
0.0
  0
LINE
  5
20C
330
EC
100
AcDbEntity
  8
0
 62
     0
100
AcDbLine
 10
124.4999999999999
 20
30.73434161302725
 30
0.0
 11
124.4999999999999
 21
31.73434161302725
 31
0.0
  0
LINE
  5
20D
330
EC
100
AcDbEntity
  8
0
 62
     0
100
AcDbLine
 10
124.4999999999999
 20
50.73434161302725
 30
0.0
 11
124.4999999999999
 21
51.73434161302726
 31
0.0
  0
LINE
  5
20E
330
EC
100
AcDbEntity
  8
0
 62
     0
100
AcDbLine
 10
124.4999999999999
 20
35.78733602573282
 30
0.0
 11
124.4999999999999
 21
40.16292722007112
 31
0.0
  0
LINE
  5
20F
330
EC
100
AcDbEntity
  8
0
 62
     0
100
AcDbLine
 10
124.4999999999999
 20
42.36292722007112
 30
0.0
 11
124.4999999999999
 21
46.7385184144094
 31
0.0
  0
LINE
  5
210
330
EC
100
AcDbEntity
  8
0
 62
     0
100
AcDbLine
 10
124.6874999999999
 20
30.73434161302725
 30
0.0
 11
124.6874999999999
 21
31.73434161302725
 31
0.0
  0
LINE
  5
211
330
EC
100
AcDbEntity
  8
0
 62
     0
100
AcDbLine
 10
124.6874999999999
 20
50.73434161302725
 30
0.0
 11
124.6874999999999
 21
51.73434161302726
 31
0.0
  0
LINE
  5
212
330
EC
100
AcDbEntity
  8
0
 62
     0
100
AcDbLine
 10
124.6874999999999
 20
36.11209555215198
 30
0.0
 11
124.6874999999999
 21
40.16292722007112
 31
0.0
  0
LINE
  5
213
330
EC
100
AcDbEntity
  8
0
 62
     0
100
AcDbLine
 10
124.6874999999999
 20
42.36292722007112
 30
0.0
 11
124.6874999999999
 21
46.41375888799024
 31
0.0
  0
LINE
  5
214
330
EC
100
AcDbEntity
  8
0
 62
     0
100
AcDbLine
 10
124.8749999999999
 20
30.73434161302725
 30
0.0
 11
124.8749999999999
 21
31.73434161302725
 31
0.0
  0
LINE
  5
215
330
EC
100
AcDbEntity
  8
0
 62
     0
100
AcDbLine
 10
124.8749999999999
 20
50.73434161302725
 30
0.0
 11
124.8749999999999
 21
51.73434161302726
 31
0.0
  0
LINE
  5
216
330
EC
100
AcDbEntity
  8
0
 62
     0
100
AcDbLine
 10
124.8749999999999
 20
36.43685507857115
 30
0.0
 11
124.8749999999999
 21
40.16292722007112
 31
0.0
  0
LINE
  5
217
330
EC
100
AcDbEntity
  8
0
 62
     0
100
AcDbLine
 10
124.8749999999999
 20
42.36292722007112
 30
0.0
 11
124.8749999999999
 21
46.08899936157107
 31
0.0
  0
LINE
  5
218
330
EC
100
AcDbEntity
  8
0
 62
     0
100
AcDbLine
 10
125.0624999999999
 20
30.73434161302725
 30
0.0
 11
125.0624999999999
 21
31.73434161302725
 31
0.0
  0
LINE
  5
219
330
EC
100
AcDbEntity
  8
0
 62
     0
100
AcDbLine
 10
125.0624999999999
 20
50.73434161302725
 30
0.0
 11
125.0624999999999
 21
51.73434161302726
 31
0.0
  0
LINE
  5
21A
330
EC
100
AcDbEntity
  8
0
 62
     0
100
AcDbLine
 10
125.0624999999999
 20
36.7616146049903
 30
0.0
 11
125.0624999999999
 21
40.16292722007112
 31
0.0
  0
LINE
  5
21B
330
EC
100
AcDbEntity
  8
0
 62
     0
100
AcDbLine
 10
125.0624999999999
 20
42.36292722007112
 30
0.0
 11
125.0624999999999
 21
45.76423983515191
 31
0.0
  0
LINE
  5
21C
330
EC
100
AcDbEntity
  8
0
 62
     0
100
AcDbLine
 10
125.2499999999999
 20
30.73434161302725
 30
0.0
 11
125.2499999999999
 21
31.73434161302725
 31
0.0
  0
LINE
  5
21D
330
EC
100
AcDbEntity
  8
0
 62
     0
100
AcDbLine
 10
125.2499999999999
 20
50.73434161302725
 30
0.0
 11
125.2499999999999
 21
51.73434161302726
 31
0.0
  0
LINE
  5
21E
330
EC
100
AcDbEntity
  8
0
 62
     0
100
AcDbLine
 10
125.2499999999999
 20
37.08637413140947
 30
0.0
 11
125.2499999999999
 21
40.16292722007112
 31
0.0
  0
LINE
  5
21F
330
EC
100
AcDbEntity
  8
0
 62
     0
100
AcDbLine
 10
125.2499999999999
 20
42.36292722007112
 30
0.0
 11
125.2499999999999
 21
45.43948030873274
 31
0.0
  0
LINE
  5
220
330
EC
100
AcDbEntity
  8
0
 62
     0
100
AcDbLine
 10
125.4374999999999
 20
30.73434161302725
 30
0.0
 11
125.4374999999999
 21
31.73434161302725
 31
0.0
  0
LINE
  5
221
330
EC
100
AcDbEntity
  8
0
 62
     0
100
AcDbLine
 10
125.4374999999999
 20
50.73434161302725
 30
0.0
 11
125.4374999999999
 21
51.73434161302726
 31
0.0
  0
LINE
  5
222
330
EC
100
AcDbEntity
  8
0
 62
     0
100
AcDbLine
 10
125.4374999999999
 20
37.41113365782863
 30
0.0
 11
125.4374999999999
 21
40.16292722007112
 31
0.0
  0
LINE
  5
223
330
EC
100
AcDbEntity
  8
0
 62
     0
100
AcDbLine
 10
125.4374999999999
 20
42.36292722007112
 30
0.0
 11
125.4374999999999
 21
45.11472078231358
 31
0.0
  0
LINE
  5
224
330
EC
100
AcDbEntity
  8
0
 62
     0
100
AcDbLine
 10
125.6249999999999
 20
30.73434161302725
 30
0.0
 11
125.6249999999999
 21
31.73434161302725
 31
0.0
  0
LINE
  5
225
330
EC
100
AcDbEntity
  8
0
 62
     0
100
AcDbLine
 10
125.6249999999999
 20
50.73434161302725
 30
0.0
 11
125.6249999999999
 21
51.73434161302726
 31
0.0
  0
LINE
  5
226
330
EC
100
AcDbEntity
  8
0
 62
     0
100
AcDbLine
 10
125.6249999999999
 20
37.7358931842478
 30
0.0
 11
125.6249999999999
 21
40.16292722007112
 31
0.0
  0
LINE
  5
227
330
EC
100
AcDbEntity
  8
0
 62
     0
100
AcDbLine
 10
125.6249999999999
 20
42.36292722007112
 30
0.0
 11
125.6249999999999
 21
44.78996125589442
 31
0.0
  0
LINE
  5
228
330
EC
100
AcDbEntity
  8
0
 62
     0
100
AcDbLine
 10
125.8124999999999
 20
30.73434161302725
 30
0.0
 11
125.8124999999999
 21
31.73434161302725
 31
0.0
  0
LINE
  5
229
330
EC
100
AcDbEntity
  8
0
 62
     0
100
AcDbLine
 10
125.8124999999999
 20
50.73434161302725
 30
0.0
 11
125.8124999999999
 21
51.73434161302726
 31
0.0
  0
LINE
  5
22A
330
EC
100
AcDbEntity
  8
0
 62
     0
100
AcDbLine
 10
125.8124999999999
 20
38.06065271066696
 30
0.0
 11
125.8124999999999
 21
40.16292722007112
 31
0.0
  0
LINE
  5
22B
330
EC
100
AcDbEntity
  8
0
 62
     0
100
AcDbLine
 10
125.8124999999999
 20
42.36292722007112
 30
0.0
 11
125.8124999999999
 21
44.46520172947525
 31
0.0
  0
LINE
  5
22C
330
EC
100
AcDbEntity
  8
0
 62
     0
100
AcDbLine
 10
125.9999999999999
 20
30.73434161302725
 30
0.0
 11
125.9999999999999
 21
31.73434161302725
 31
0.0
  0
LINE
  5
22D
330
EC
100
AcDbEntity
  8
0
 62
     0
100
AcDbLine
 10
125.9999999999999
 20
50.73434161302725
 30
0.0
 11
125.9999999999999
 21
51.73434161302726
 31
0.0
  0
LINE
  5
22E
330
EC
100
AcDbEntity
  8
0
 62
     0
100
AcDbLine
 10
125.9999999999999
 20
38.38541223708613
 30
0.0
 11
125.9999999999999
 21
40.16292722007112
 31
0.0
  0
LINE
  5
22F
330
EC
100
AcDbEntity
  8
0
 62
     0
100
AcDbLine
 10
125.9999999999999
 20
42.36292722007112
 30
0.0
 11
125.9999999999999
 21
44.14044220305608
 31
0.0
  0
LINE
  5
230
330
EC
100
AcDbEntity
  8
0
 62
     0
100
AcDbLine
 10
126.1874999999999
 20
30.73434161302725
 30
0.0
 11
126.1874999999999
 21
31.73434161302725
 31
0.0
  0
LINE
  5
231
330
EC
100
AcDbEntity
  8
0
 62
     0
100
AcDbLine
 10
126.1874999999999
 20
50.73434161302725
 30
0.0
 11
126.1874999999999
 21
51.73434161302726
 31
0.0
  0
LINE
  5
232
330
EC
100
AcDbEntity
  8
0
 62
     0
100
AcDbLine
 10
126.1874999999999
 20
38.71017176350529
 30
0.0
 11
126.1874999999999
 21
40.16292722007112
 31
0.0
  0
LINE
  5
233
330
EC
100
AcDbEntity
  8
0
 62
     0
100
AcDbLine
 10
126.1874999999999
 20
42.36292722007112
 30
0.0
 11
126.1874999999999
 21
43.81568267663692
 31
0.0
  0
LINE
  5
234
330
EC
100
AcDbEntity
  8
0
 62
     0
100
AcDbLine
 10
126.3749999999999
 20
30.73434161302725
 30
0.0
 11
126.3749999999999
 21
31.73434161302725
 31
0.0
  0
LINE
  5
235
330
EC
100
AcDbEntity
  8
0
 62
     0
100
AcDbLine
 10
126.3749999999999
 20
50.73434161302725
 30
0.0
 11
126.3749999999999
 21
51.73434161302726
 31
0.0
  0
LINE
  5
236
330
EC
100
AcDbEntity
  8
0
 62
     0
100
AcDbLine
 10
126.3749999999999
 20
39.03493128992446
 30
0.0
 11
126.3749999999999
 21
40.16292722007112
 31
0.0
  0
LINE
  5
237
330
EC
100
AcDbEntity
  8
0
 62
     0
100
AcDbLine
 10
126.3749999999999
 20
42.36292722007112
 30
0.0
 11
126.3749999999999
 21
43.49092315021776
 31
0.0
  0
LINE
  5
238
330
EC
100
AcDbEntity
  8
0
 62
     0
100
AcDbLine
 10
126.5624999999999
 20
30.73434161302725
 30
0.0
 11
126.5624999999999
 21
31.73434161302725
 31
0.0
  0
LINE
  5
239
330
EC
100
AcDbEntity
  8
0
 62
     0
100
AcDbLine
 10
126.5624999999999
 20
50.73434161302725
 30
0.0
 11
126.5624999999999
 21
51.73434161302726
 31
0.0
  0
LINE
  5
23A
330
EC
100
AcDbEntity
  8
0
 62
     0
100
AcDbLine
 10
126.5624999999999
 20
39.35969081634362
 30
0.0
 11
126.5624999999999
 21
40.16292722007112
 31
0.0
  0
LINE
  5
23B
330
EC
100
AcDbEntity
  8
0
 62
     0
100
AcDbLine
 10
126.5624999999999
 20
42.36292722007112
 30
0.0
 11
126.5624999999999
 21
43.1661636237986
 31
0.0
  0
LINE
  5
23C
330
EC
100
AcDbEntity
  8
0
 62
     0
100
AcDbLine
 10
126.7499999999999
 20
30.73434161302725
 30
0.0
 11
126.7499999999999
 21
31.73434161302725
 31
0.0
  0
LINE
  5
23D
330
EC
100
AcDbEntity
  8
0
 62
     0
100
AcDbLine
 10
126.7499999999999
 20
50.73434161302725
 30
0.0
 11
126.7499999999999
 21
51.73434161302726
 31
0.0
  0
LINE
  5
23E
330
EC
100
AcDbEntity
  8
0
 62
     0
100
AcDbLine
 10
126.7499999999999
 20
39.68445034276278
 30
0.0
 11
126.7499999999999
 21
40.16292722007112
 31
0.0
  0
LINE
  5
23F
330
EC
100
AcDbEntity
  8
0
 62
     0
100
AcDbLine
 10
126.7499999999999
 20
42.36292722007112
 30
0.0
 11
126.7499999999999
 21
42.84140409737942
 31
0.0
  0
LINE
  5
240
330
EC
100
AcDbEntity
  8
0
 62
     0
100
AcDbLine
 10
126.9374999999999
 20
30.73434161302725
 30
0.0
 11
126.9374999999999
 21
31.73434161302725
 31
0.0
  0
LINE
  5
241
330
EC
100
AcDbEntity
  8
0
 62
     0
100
AcDbLine
 10
126.9374999999999
 20
50.73434161302725
 30
0.0
 11
126.9374999999999
 21
51.73434161302726
 31
0.0
  0
LINE
  5
242
330
EC
100
AcDbEntity
  8
0
 62
     0
100
AcDbLine
 10
126.9374999999999
 20
40.00920986918194
 30
0.0
 11
126.9374999999999
 21
40.16292722007112
 31
0.0
  0
LINE
  5
243
330
EC
100
AcDbEntity
  8
0
 62
     0
100
AcDbLine
 10
126.9374999999999
 20
42.36292722007112
 30
0.0
 11
126.9374999999999
 21
42.51664457096026
 31
0.0
  0
LINE
  5
244
330
EC
100
AcDbEntity
  8
0
 62
     0
100
AcDbLine
 10
127.1249999999999
 20
30.73434161302725
 30
0.0
 11
127.1249999999999
 21
31.73434161302725
 31
0.0
  0
LINE
  5
245
330
EC
100
AcDbEntity
  8
0
 62
     0
100
AcDbLine
 10
127.1249999999999
 20
50.73434161302725
 30
0.0
 11
127.1249999999999
 21
51.73434161302726
 31
0.0
  0
LINE
  5
246
330
EC
100
AcDbEntity
  8
0
 62
     0
100
AcDbLine
 10
127.3124999999999
 20
30.73434161302725
 30
0.0
 11
127.3124999999999
 21
31.73434161302725
 31
0.0
  0
LINE
  5
247
330
EC
100
AcDbEntity
  8
0
 62
     0
100
AcDbLine
 10
127.3124999999999
 20
50.73434161302725
 30
0.0
 11
127.3124999999999
 21
51.73434161302726
 31
0.0
  0
LINE
  5
248
330
EC
100
AcDbEntity
  8
0
 62
     0
100
AcDbLine
 10
127.4999999999999
 20
30.73434161302725
 30
0.0
 11
127.4999999999999
 21
31.73434161302725
 31
0.0
  0
LINE
  5
249
330
EC
100
AcDbEntity
  8
0
 62
     0
100
AcDbLine
 10
127.4999999999999
 20
50.73434161302725
 30
0.0
 11
127.4999999999999
 21
51.73434161302726
 31
0.0
  0
LINE
  5
24A
330
EC
100
AcDbEntity
  8
0
 62
     0
100
AcDbLine
 10
127.6874999999999
 20
30.73434161302725
 30
0.0
 11
127.6874999999999
 21
31.73434161302725
 31
0.0
  0
LINE
  5
24B
330
EC
100
AcDbEntity
  8
0
 62
     0
100
AcDbLine
 10
127.6874999999999
 20
50.73434161302725
 30
0.0
 11
127.6874999999999
 21
51.73434161302726
 31
0.0
  0
LINE
  5
24C
330
EC
100
AcDbEntity
  8
0
 62
     0
100
AcDbLine
 10
127.8749999999999
 20
30.73797101226689
 30
0.0
 11
127.8749999999999
 21
31.74039844933573
 31
0.0
  0
LINE
  5
24D
330
EC
100
AcDbEntity
  8
0
 62
     0
100
AcDbLine
 10
127.8749999999999
 20
50.72828477671877
 30
0.0
 11
127.8749999999999
 21
51.73071221378761
 31
0.0
  0
LINE
  5
24E
330
EC
100
AcDbEntity
  8
0
 62
     0
100
AcDbLine
 10
128.0624999999999
 20
30.75518616833917
 30
0.0
 11
128.0624999999999
 21
31.76934614582384
 31
0.0
  0
LINE
  5
24F
330
EC
100
AcDbEntity
  8
0
 62
     0
100
AcDbLine
 10
128.0624999999999
 20
50.69933708023067
 30
0.0
 11
128.0624999999999
 21
51.71349705771533
 31
0.0
  0
LINE
  5
250
330
EC
100
AcDbEntity
  8
0
 62
     0
100
AcDbLine
 10
128.2499999999999
 20
30.78684396001255
 30
0.0
 11
128.2499999999999
 21
31.82358126431013
 31
0.0
  0
LINE
  5
251
330
EC
100
AcDbEntity
  8
0
 62
     0
100
AcDbLine
 10
128.2499999999999
 20
50.64510196174438
 30
0.0
 11
128.2499999999999
 21
51.68183926604196
 31
0.0
  0
LINE
  5
252
330
EC
100
AcDbEntity
  8
0
 62
     0
100
AcDbLine
 10
128.4374999999999
 20
30.83351565013482
 30
0.0
 11
128.4374999999999
 21
31.90619805749631
 31
0.0
  0
LINE
  5
253
330
EC
100
AcDbEntity
  8
0
 62
     0
100
AcDbLine
 10
128.4374999999999
 20
50.5624851685582
 30
0.0
 11
128.4374999999999
 21
51.63516757591969
 31
0.0
  0
LINE
  5
254
330
EC
100
AcDbEntity
  8
0
 62
     0
100
AcDbLine
 10
128.6249999999999
 20
30.89610010567942
 30
0.0
 11
128.6249999999999
 21
32.02298974561454
 31
0.0
  0
LINE
  5
255
330
EC
100
AcDbEntity
  8
0
 62
     0
100
AcDbLine
 10
128.6249999999999
 20
50.44569348043999
 30
0.0
 11
128.6249999999999
 21
51.57258312037509
 31
0.0
  0
LINE
  5
256
330
EC
100
AcDbEntity
  8
0
 62
     0
100
AcDbLine
 10
128.8124999999999
 20
30.9759198434567
 30
0.0
 11
128.8124999999999
 21
32.18530925448431
 31
0.0
  0
LINE
  5
257
330
EC
100
AcDbEntity
  8
0
 62
     0
100
AcDbLine
 10
128.8124999999999
 20
50.28337397157022
 30
0.0
 11
128.8124999999999
 21
51.49276338259781
 31
0.0
  0
LINE
  5
258
330
EC
100
AcDbEntity
  8
0
 62
     0
100
AcDbLine
 10
128.9999999999999
 20
31.07488521572351
 30
0.0
 11
128.9999999999999
 21
32.41993880614599
 31
0.0
  0
LINE
  5
259
330
EC
100
AcDbEntity
  8
0
 62
     0
100
AcDbLine
 10
128.9999999999999
 20
50.04874441990855
 30
0.0
 11
128.9999999999999
 21
51.39379801033101
 31
0.0
  0
LINE
  5
25A
330
EC
100
AcDbEntity
  8
0
 62
     0
100
AcDbLine
 10
129.1874999999999
 20
31.19578269201418
 30
0.0
 11
129.1874999999999
 21
32.83972474257949
 31
0.0
  0
LINE
  5
25B
330
EC
100
AcDbEntity
  8
0
 62
     0
100
AcDbLine
 10
129.1874999999999
 20
49.6289584834751
 30
0.0
 11
129.1874999999999
 21
51.27290053404035
 31
0.0
  0
LINE
  5
25C
330
EC
100
AcDbEntity
  8
0
 62
     0
100
AcDbLine
 10
129.3749999999999
 20
31.34281299388666
 30
0.0
 11
129.3749999999999
 21
51.12587023216786
 31
0.0
  0
LINE
  5
25D
330
EC
100
AcDbEntity
  8
0
 62
     0
100
AcDbLine
 10
129.5624999999999
 20
31.52269735687652
 30
0.0
 11
129.5624999999999
 21
50.94598586917801
 31
0.0
  0
LINE
  5
25E
330
EC
100
AcDbEntity
  8
0
 62
     0
100
AcDbLine
 10
129.7499999999999
 20
31.74731131669846
 30
0.0
 11
129.7499999999999
 21
50.72137190935608
 31
0.0
  0
LINE
  5
25F
330
EC
100
AcDbEntity
  8
0
 62
     0
100
AcDbLine
 10
129.9374999999999
 20
32.0416641022199
 30
0.0
 11
129.9374999999999
 21
50.42701912383464
 31
0.0
  0
LINE
  5
260
330
EC
100
AcDbEntity
  8
0
 62
     0
100
AcDbLine
 10
130.1249999999999
 20
32.48375005474038
 30
0.0
 11
130.1249999999999
 21
49.9849331713142
 31
0.0
  0
ENDBLK
  5
418
330
EC
100
AcDbEntity
  8
0
100
AcDbBlockEnd
  0
BLOCK
  5
1F5D
330
1514
100
AcDbEntity
  8
0
100
AcDbBlockBegin
  2
*D1
 70
     1
 10
0.0
 20
0.0
 30
0.0
  3
*D1
  1

  0
LINE
  5
1F5E
330
1514
100
AcDbEntity
  8
0
  6
BYBLOCK
 62
   180
100
AcDbLine
 10
155.9876555344652
 20
62.32952564251542
 30
0.0
 11
185.5456549783198
 21
62.32952564251541
 31
0.0
  0
LINE
  5
1F5F
330
1514
100
AcDbEntity
  8
0
  6
BYBLOCK
 62
   180
100
AcDbLine
 10
146.3626555344653
 20
207.8295256425154
 30
0.0
 11
185.5456549783198
 21
207.8295256425154
 31
0.0
  0
LINE
  5
1F60
330
1514
100
AcDbEntity
  8
0
  6
BYBLOCK
 62
   180
100
AcDbLine
 10
184.0456549783198
 20
63.82952564251541
 30
0.0
 11
184.0456549783198
 21
206.3295256425154
 31
0.0
  0
SOLID
  5
1F61
330
1514
100
AcDbEntity
  8
0
  6
BYBLOCK
 62
   180
100
AcDbTrace
 10
183.7956549783198
 20
63.82952564251541
 30
0.0
 11
184.2956549783198
 21
63.82952564251541
 31
0.0
 12
184.0456549783198
 22
62.32952564251541
 32
0.0
 13
184.0456549783198
 23
62.32952564251541
 33
0.0
  0
SOLID
  5
1F62
330
1514
100
AcDbEntity
  8
0
  6
BYBLOCK
 62
   180
100
AcDbTrace
 10
183.7956549783198
 20
206.3295256425154
 30
0.0
 11
184.2956549783198
 21
206.3295256425154
 31
0.0
 12
184.0456549783198
 22
207.8295256425154
 32
0.0
 13
184.0456549783198
 23
207.8295256425154
 33
0.0
  0
MTEXT
  5
1F63
330
1514
100
AcDbEntity
  8
0
  6
BYBLOCK
 62
   180
100
AcDbMText
 10
182.2956549783198
 20
147.9605043155031
 30
0.0
 40
2.5
 41
0.0
 71
     5
 72
     1
  1
\A1;58.2
 11
0.0000000000000001
 21
1.0
 31
0.0
1001
ACAD
1000
MTEXTBEGIN
1070
    73
1070
     1
1070
    44
1040
1.0
1070
    74
1070
     0
1000
MTEXTEND
  0
POINT
  5
1F64
330
1514
100
AcDbEntity
  8
DEFPOINTS
  6
BYBLOCK
 62
     0
100
AcDbPoint
 10
155.7876555344652
 20
62.32952564251542
 30
0.0
  0
POINT
  5
1F65
330
1514
100
AcDbEntity
  8
DEFPOINTS
  6
BYBLOCK
 62
     0
100
AcDbPoint
 10
146.1626555344653
 20
207.8295256425154
 30
0.0
  0
POINT
  5
1F66
330
1514
100
AcDbEntity
  8
DEFPOINTS
  6
BYBLOCK
 62
     0
100
AcDbPoint
 10
184.0456549783198
 20
207.8295256425154
 30
0.0
  0
ENDBLK
  5
1F67
330
1514
100
AcDbEntity
  8
0
100
AcDbBlockEnd
  0
BLOCK
  5
1574
330
152C
100
AcDbEntity
  8
0
100
AcDbBlockBegin
  2
*D2
 70
     1
 10
0.0
 20
0.0
 30
0.0
  3
*D2
  1

  0
LINE
  5
1575
330
152C
100
AcDbEntity
  8
0
  6
BYBLOCK
 62
   180
100
AcDbLine
 10
174.010473857146
 20
62.32952564251543
 30
0.0
 11
165.9032161856361
 21
62.32952564251543
 31
0.0
  0
LINE
  5
1576
330
152C
100
AcDbEntity
  8
0
  6
BYBLOCK
 62
   180
100
AcDbLine
 10
144.8195072126384
 20
69.68400618074641
 30
0.0
 11
168.9032161856361
 21
69.68400618074641
 31
0.0
  0
LINE
  5
1577
330
152C
100
AcDbEntity
  8
0
  6
BYBLOCK
 62
   180
100
AcDbLine
 10
167.403216185636
 20
63.82952564251542
 30
0.0
 11
167.403216185636
 21
68.1840061807464
 31
0.0
  0
SOLID
  5
1578
330
152C
100
AcDbEntity
  8
0
  6
BYBLOCK
 62
   180
100
AcDbTrace
 10
167.1532161856361
 20
63.82952564251542
 30
0.0
 11
167.6532161856361
 21
63.82952564251542
 31
0.0
 12
167.403216185636
 22
62.32952564251543
 32
0.0
 13
167.403216185636
 23
62.32952564251543
 33
0.0
  0
SOLID
  5
1579
330
152C
100
AcDbEntity
  8
0
  6
BYBLOCK
 62
   180
100
AcDbTrace
 10
167.1532161856361
 20
68.1840061807464
 30
0.0
 11
167.6532161856361
 21
68.1840061807464
 31
0.0
 12
167.403216185636
 22
69.68400618074641
 32
0.0
 13
167.403216185636
 23
69.68400618074641
 33
0.0
  0
MTEXT
  5
157A
330
152C
100
AcDbEntity
  8
0
  6
BYBLOCK
 62
   180
100
AcDbMText
 10
165.6532161856361
 20
65.7242168794229
 30
0.0
 40
2.5
 41
0.0
 71
     5
 72
     1
  1
\A1;2.9
 11
0.0000000000000001
 21
1.0
 31
0.0
1001
ACAD
1000
MTEXTBEGIN
1070
    73
1070
     1
1070
    44
1040
1.0
1070
    74
1070
     0
1000
MTEXTEND
  0
POINT
  5
157B
330
152C
100
AcDbEntity
  8
DEFPOINTS
  6
BYBLOCK
 62
     0
100
AcDbPoint
 10
174.2104738571459
 20
62.32952564251542
 30
0.0
  0
POINT
  5
157C
330
152C
100
AcDbEntity
  8
DEFPOINTS
  6
BYBLOCK
 62
     0
100
AcDbPoint
 10
144.6195072126384
 20
69.68400618074641
 30
0.0
  0
POINT
  5
157D
330
152C
100
AcDbEntity
  8
DEFPOINTS
  6
BYBLOCK
 62
     0
100
AcDbPoint
 10
167.403216185636
 20
69.68400618074641
 30
0.0
  0
ENDBLK
  5
157E
330
152C
100
AcDbEntity
  8
0
100
AcDbBlockEnd
  0
BLOCK
  5
153A
330
1539
100
AcDbEntity
  8
0
100
AcDbBlockBegin
  2
*D3
 70
     1
 10
0.0
 20
0.0
 30
0.0
  3
*D3
  1

  0
LINE
  5
153B
330
1539
100
AcDbEntity
  8
0
  6
BYBLOCK
 62
   180
100
AcDbLine
 10
108.5376555344647
 20
62.87952564251544
 30
0.0
 11
108.5376555344647
 21
52.33854712615277
 31
0.0
  0
LINE
  5
153C
330
1539
100
AcDbEntity
  8
0
  6
BYBLOCK
 62
   180
100
AcDbLine
 10
156.5376555344653
 20
62.87952564251546
 30
0.0
 11
156.5376555344653
 21
52.33854712615277
 31
0.0
  0
LINE
  5
153D
330
1539
100
AcDbEntity
  8
0
  6
BYBLOCK
 62
   180
100
AcDbLine
 10
110.0376555344647
 20
53.83854712615278
 30
0.0
 11
155.0376555344653
 21
53.83854712615278
 31
0.0
  0
SOLID
  5
153E
330
1539
100
AcDbEntity
  8
0
  6
BYBLOCK
 62
   180
100
AcDbTrace
 10
110.0376555344647
 20
54.08854712615277
 30
0.0
 11
110.0376555344647
 21
53.58854712615277
 31
0.0
 12
108.5376555344647
 22
53.83854712615278
 32
0.0
 13
108.5376555344647
 23
53.83854712615278
 33
0.0
  0
SOLID
  5
153F
330
1539
100
AcDbEntity
  8
0
  6
BYBLOCK
 62
   180
100
AcDbTrace
 10
155.0376555344653
 20
54.08854712615277
 30
0.0
 11
155.0376555344653
 21
53.58854712615277
 31
0.0
 12
156.5376555344653
 22
53.83854712615278
 32
0.0
 13
156.5376555344653
 23
53.83854712615278
 33
0.0
  0
MTEXT
  5
1540
330
1539
100
AcDbEntity
  8
0
  6
BYBLOCK
 62
   180
100
AcDbMText
 10
132.537655534465
 20
55.58854712615278
 30
0.0
 40
2.5
 41
0.0
 71
     5
 72
     1
  1
\A1;19.2
1001
ACAD
1000
MTEXTBEGIN
1070
    73
1070
     1
1070
    44
1040
1.0
1070
    74
1070
     0
1000
MTEXTEND
  0
POINT
  5
1541
330
1539
100
AcDbEntity
  8
DEFPOINTS
  6
BYBLOCK
 62
     0
100
AcDbPoint
 10
108.5376555344647
 20
63.07952564251545
 30
0.0
  0
POINT
  5
1542
330
1539
100
AcDbEntity
  8
DEFPOINTS
  6
BYBLOCK
 62
     0
100
AcDbPoint
 10
156.5376555344653
 20
63.07952564251547
 30
0.0
  0
POINT
  5
1543
330
1539
100
AcDbEntity
  8
DEFPOINTS
  6
BYBLOCK
 62
     0
100
AcDbPoint
 10
156.5376555344653
 20
53.83854712615278
 30
0.0
  0
ENDBLK
  5
1544
330
1539
100
AcDbEntity
  8
0
100
AcDbBlockEnd
  0
BLOCK
  5
1547
330
1546
100
AcDbEntity
  8
0
100
AcDbBlockBegin
  2
*D4
 70
     1
 10
0.0
 20
0.0
 30
0.0
  3
*D4
  1

  0
LINE
  5
1548
330
1546
100
AcDbEntity
  8
0
  6
BYBLOCK
 62
   180
100
AcDbLine
 10
125.8376555344647
 20
65.32952564251539
 30
0.0
 11
99.36117128269927
 21
65.32952564251541
 31
0.0
  0
LINE
  5
1549
330
1546
100
AcDbEntity
  8
0
  6
BYBLOCK
 62
   180
100
AcDbLine
 10
109.0876555344646
 20
62.32952564251542
 30
0.0
 11
99.36117128269927
 21
62.32952564251542
 31
0.0
  0
LINE
  5
154A
330
1546
100
AcDbEntity
  8
0
  6
BYBLOCK
 62
   180
100
AcDbLine
 10
100.8611712826992
 20
66.8295256425154
 30
0.0
 11
100.8611712826992
 21
68.32952564251541
 31
0.0
  0
LINE
  5
154B
330
1546
100
AcDbEntity
  8
0
  6
BYBLOCK
 62
   180
100
AcDbLine
 10
100.8611712826992
 20
60.82952564251542
 30
0.0
 11
100.8611712826992
 21
54.16285897584875
 31
0.0
  0
LINE
  5
154C
330
1546
100
AcDbEntity
  8
0
  6
BYBLOCK
 62
   180
100
AcDbLine
 10
100.8611712826992
 20
65.32952564251541
 30
0.0
 11
100.8611712826992
 21
62.32952564251542
 31
0.0
  0
SOLID
  5
154D
330
1546
100
AcDbEntity
  8
0
  6
BYBLOCK
 62
   180
100
AcDbTrace
 10
100.6111712826992
 20
66.8295256425154
 30
0.0
 11
101.1111712826992
 21
66.8295256425154
 31
0.0
 12
100.8611712826992
 22
65.32952564251541
 32
0.0
 13
100.8611712826992
 23
65.32952564251541
 33
0.0
  0
SOLID
  5
154E
330
1546
100
AcDbEntity
  8
0
  6
BYBLOCK
 62
   180
100
AcDbTrace
 10
100.6111712826992
 20
60.82952564251542
 30
0.0
 11
101.1111712826992
 21
60.82952564251542
 31
0.0
 12
100.8611712826992
 22
62.32952564251542
 32
0.0
 13
100.8611712826992
 23
62.32952564251542
 33
0.0
  0
MTEXT
  5
154F
330
1546
100
AcDbEntity
  8
0
  6
BYBLOCK
 62
   180
100
AcDbMText
 10
99.11117128269928
 20
56.74619230918208
 30
0.0
 40
2.5
 41
0.0
 71
     5
 72
     1
  1
\A1;1.2
 11
0.0000000000000001
 21
1.0
 31
0.0
1001
ACAD
1000
MTEXTBEGIN
1070
    73
1070
     1
1070
    44
1040
1.0
1070
    74
1070
     0
1000
MTEXTEND
  0
POINT
  5
1550
330
1546
100
AcDbEntity
  8
DEFPOINTS
  6
BYBLOCK
 62
     0
100
AcDbPoint
 10
126.0376555344647
 20
65.32952564251539
 30
0.0
  0
POINT
  5
1551
330
1546
100
AcDbEntity
  8
DEFPOINTS
  6
BYBLOCK
 62
     0
100
AcDbPoint
 10
109.2876555344646
 20
62.32952564251542
 30
0.0
  0
POINT
  5
1552
330
1546
100
AcDbEntity
  8
DEFPOINTS
  6
BYBLOCK
 62
     0
100
AcDbPoint
 10
100.8611712826992
 20
62.32952564251542
 30
0.0
  0
ENDBLK
  5
1553
330
1546
100
AcDbEntity
  8
0
100
AcDbBlockEnd
  0
BLOCK
  5
1556
330
1555
100
AcDbEntity
  8
0
100
AcDbBlockBegin
  2
*D5
 70
     1
 10
0.0
 20
0.0
 30
0.0
  3
*D5
  1

  0
LINE
  5
1557
330
1555
100
AcDbEntity
  8
0
  6
BYBLOCK
 62
   180
100
AcDbLine
 10
119.7547161708504
 20
69.59200868434194
 30
0.0
 11
125.35842029951
 21
71.72141625323281
 31
0.0
  0
LINE
  5
1558
330
1555
100
AcDbEntity
  8
0
  6
BYBLOCK
 62
   180
100
AcDbLine
 10
108.5376555344641
 20
65.52952564251537
 30
0.0
 11
108.5376555344595
 21
83.32381342670915
 31
0.0
  0
ARC
  5
1559
330
1555
100
AcDbEntity
  8
0
  6
BYBLOCK
 62
   180
100
AcDbCircle
 10
108.5376555344641
 20
65.32952564251537
 30
0.0
 40
16.49428778419377
100
AcDbArc
 50
26.01909926219823
 51
84.7876917505275
  0
SOLID
  5
155A
330
1555
100
AcDbEntity
  8
0
  6
BYBLOCK
 62
   180
100
AcDbTrace
 10
123.5896282963092
 20
72.664425729523
 30
0.0
 11
123.130795860037
 21
72.46574811270487
 31
0.0
 12
123.9562449286275
 22
71.18858961229737
 32
0.0
 13
123.9562449286275
 23
71.18858961229737
 33
0.0
  0
SOLID
  5
155B
330
1555
100
AcDbEntity
  8
0
  6
BYBLOCK
 62
   180
100
AcDbTrace
 10
110.0247365001033
 20
81.50586657325531
 30
0.0
 11
110.0474716436211
 21
82.00534941905607
 31
0.0
 12
108.5376555344599
 22
81.82381342670915
 32
0.0
 13
108.5376555344599
 23
81.82381342670915
 33
0.0
  0
MTEXT
  5
155C
330
1555
100
AcDbEntity
  8
0
  6
BYBLOCK
 62
   180
100
AcDbMText
 10
118.8966702367095
 20
80.34767636592826
 30
0.0
 40
2.5
 41
0.0
 71
     5
 72
     1
  1
\A1;69.2
 11
0.8231700190798376
 21
-0.567794962718145
 31
0.0
1001
ACAD
1000
MTEXTBEGIN
1070
    73
1070
     1
1070
    44
1040
1.0
1070
    74
1070
     0
1000
MTEXTEND
  0
POINT
  5
155D
330
1555
100
AcDbEntity
  8
DEFPOINTS
  6
BYBLOCK
 62
     0
100
AcDbPoint
 10
120.4283815757689
 20
76.76071821890213
 30
0.0
  0
POINT
  5
155E
330
1555
100
AcDbEntity
  8
DEFPOINTS
  6
BYBLOCK
 62
     0
100
AcDbPoint
 10
108.5376555344647
 20
63.07952564251544
 30
0.0
  0
POINT
  5
155F
330
1555
100
AcDbEntity
  8
DEFPOINTS
  6
BYBLOCK
 62
     0
100
AcDbPoint
 10
109.0212422139965
 20
65.51328858073768
 30
0.0
  0
POINT
  5
1560
330
1555
100
AcDbEntity
  8
DEFPOINTS
  6
BYBLOCK
 62
     0
100
AcDbPoint
 10
119.5677594547327
 20
69.52096513221722
 30
0.0
  0
POINT
  5
1561
330
1555
100
AcDbEntity
  8
DEFPOINTS
  6
BYBLOCK
 62
     0
100
AcDbPoint
 10
108.5376555344643
 20
64.81220089529637
 30
0.0
  0
ENDBLK
  5
1562
330
1555
100
AcDbEntity
  8
0
100
AcDbBlockEnd
  0
BLOCK
  5
1567
330
1566
100
AcDbEntity
  8
0
100
AcDbBlockBegin
  2
*D6
 70
     1
 10
0.0
 20
0.0
 30
0.0
  3
*D6
  1

  0
LINE
  5
1568
330
1566
100
AcDbEntity
  8
0
  6
BYBLOCK
 62
   180
100
AcDbLine
 10
148.8686106350381
 20
82.87913162688147
 30
0.0
 11
145.2728081551102
 21
69.59713648774715
 31
0.0
  0
MTEXT
  5
1569
330
1566
100
AcDbEntity
  8
0
  6
BYBLOCK
 62
   180
100
AcDbMText
 10
146.2321330535535
 20
79.83740334146069
 30
0.0
 40
2.5
 41
0.0
 71
     5
 72
     1
  1
\A1;R1.0
 11
0.2613203769887225
 21
0.965252122800293
 31
0.0
1001
ACAD
1000
MTEXTBEGIN
1070
    73
1070
     1
1070
    44
1040
1.0
1070
    74
1070
     0
1000
MTEXTEND
  0
LINE
  5
156A
330
1566
100
AcDbEntity
  8
0
  6
BYBLOCK
 62
   180
100
AcDbLine
 10
144.6195072126384
 20
67.18400618074638
 30
0.0
 11
145.2728081551102
 21
69.59713648774715
 31
0.0
  0
SOLID
  5
156B
330
1566
100
AcDbEntity
  8
0
  6
BYBLOCK
 62
   180
100
AcDbTrace
 10
145.4234756898932
 20
71.11034476619477
 30
0.0
 11
145.9061017512933
 21
70.97968457770041
 31
0.0
 12
145.2728081551102
 22
69.59713648774715
 32
0.0
 13
145.2728081551102
 23
69.59713648774715
 33
0.0
  0
POINT
  5
156C
330
1566
100
AcDbEntity
  8
DEFPOINTS
  6
BYBLOCK
 62
     0
100
AcDbPoint
 10
145.2728081551102
 20
69.59713648774715
 30
0.0
  0
POINT
  5
156D
330
1566
100
AcDbEntity
  8
DEFPOINTS
  6
BYBLOCK
 62
     0
100
AcDbPoint
 10
144.6195072126384
 20
67.18400618074638
 30
0.0
  0
ENDBLK
  5
156E
330
1566
100
AcDbEntity
  8
0
100
AcDbBlockEnd
  0
BLOCK
  5
1F81
330
157F
100
AcDbEntity
  8
0
100
AcDbBlockBegin
  2
*D7
 70
     1
 10
0.0
 20
0.0
 30
0.0
  3
*D7
  1

  0
LINE
  5
1F82
330
157F
100
AcDbEntity
  8
0
  6
BYBLOCK
 62
   180
100
AcDbLine
 10
173.810473857146
 20
62.32952564251543
 30
0.0
 11
168.7188913717891
 21
62.32952564251543
 31
0.0
  0
LINE
  5
1F83
330
157F
100
AcDbEntity
  8
0
  6
BYBLOCK
 62
   180
100
AcDbLine
 10
141.7376555344652
 20
129.8295256425154
 30
0.0
 11
171.7188913717891
 21
129.8295256425154
 31
0.0
  0
LINE
  5
1F84
330
157F
100
AcDbEntity
  8
0
  6
BYBLOCK
 62
   180
100
AcDbLine
 10
170.2188913717891
 20
63.82952564251542
 30
0.0
 11
170.2188913717891
 21
128.3295256425154
 31
0.0
  0
SOLID
  5
1F85
330
157F
100
AcDbEntity
  8
0
  6
BYBLOCK
 62
   180
100
AcDbTrace
 10
169.9688913717891
 20
63.82952564251542
 30
0.0
 11
170.4688913717891
 21
63.82952564251542
 31
0.0
 12
170.2188913717891
 22
62.32952564251543
 32
0.0
 13
170.2188913717891
 23
62.32952564251543
 33
0.0
  0
SOLID
  5
1F86
330
157F
100
AcDbEntity
  8
0
  6
BYBLOCK
 62
   180
100
AcDbTrace
 10
169.9688913717891
 20
128.3295256425154
 30
0.0
 11
170.4688913717891
 21
128.3295256425154
 31
0.0
 12
170.2188913717891
 22
129.8295256425154
 32
0.0
 13
170.2188913717891
 23
129.8295256425154
 33
0.0
  0
MTEXT
  5
1F87
330
157F
100
AcDbEntity
  8
0
  6
BYBLOCK
 62
   180
100
AcDbMText
 10
168.4688913717891
 20
107.4705967622598
 30
0.0
 40
2.5
 41
0.0
 71
     5
 72
     1
  1
\A1;27.0
 11
0.0000000000000001
 21
1.0
 31
0.0
1001
ACAD
1000
MTEXTBEGIN
1070
    73
1070
     1
1070
    44
1040
1.0
1070
    74
1070
     0
1000
MTEXTEND
  0
POINT
  5
1F88
330
157F
100
AcDbEntity
  8
DEFPOINTS
  6
BYBLOCK
 62
     0
100
AcDbPoint
 10
174.010473857146
 20
62.32952564251543
 30
0.0
  0
POINT
  5
1F89
330
157F
100
AcDbEntity
  8
DEFPOINTS
  6
BYBLOCK
 62
     0
100
AcDbPoint
 10
141.5376555344652
 20
129.8295256425154
 30
0.0
  0
POINT
  5
1F8A
330
157F
100
AcDbEntity
  8
DEFPOINTS
  6
BYBLOCK
 62
     0
100
AcDbPoint
 10
170.2188913717891
 20
129.8295256425154
 30
0.0
  0
ENDBLK
  5
1F8B
330
157F
100
AcDbEntity
  8
0
100
AcDbBlockEnd
  0
BLOCK
  5
15A7
330
158C
100
AcDbEntity
  8
0
100
AcDbBlockBegin
  2
*D8
 70
     1
 10
0.0
 20
0.0
 30
0.0
  3
*D8
  1

  0
LINE
  5
206B
330
158C
100
AcDbEntity
  8
0
 62
   180
100
AcDbLine
 10
119.6731007330398
 20
132.6614265947907
 30
0.0
 11
106.7974950723523
 21
132.6614265947907
 31
0.0
  0
LINE
  5
206C
330
158C
100
AcDbEntity
  8
0
 62
   180
100
AcDbLine
 10
119.6731007330399
 20
126.9976246902401
 30
0.0
 11
106.7974950723523
 21
126.9976246902401
 31
0.0
  0
LINE
  5
206D
330
158C
100
AcDbEntity
  8
0
 62
   180
100
AcDbLine
 10
108.2974950723524
 20
128.4976246902401
 30
0.0
 11
108.2974950723524
 21
131.1614265947907
 31
0.0
  0
LINE
  5
206E
330
158C
100
AcDbEntity
  8
0
 62
   180
100
AcDbLine
 10
108.2974950723524
 20
132.6614265947907
 30
0.0
 11
108.2974950723524
 21
153.2830564643846
 31
0.0
  0
SOLID
  5
206F
330
158C
100
AcDbEntity
  8
0
 62
   180
100
AcDbTrace
 10
108.0474950723523
 20
128.4976246902401
 30
0.0
 11
108.5474950723523
 21
128.4976246902401
 31
0.0
 12
108.2974950723524
 22
126.9976246902401
 32
0.0
 13
108.2974950723524
 23
126.9976246902401
 33
0.0
  0
SOLID
  5
2070
330
158C
100
AcDbEntity
  8
0
 62
   180
100
AcDbTrace
 10
108.0474950723523
 20
131.1614265947907
 30
0.0
 11
108.5474950723523
 21
131.1614265947907
 31
0.0
 12
108.2974950723524
 22
132.6614265947907
 32
0.0
 13
108.2974950723524
 23
132.6614265947907
 33
0.0
  0
MTEXT
  5
2071
330
158C
100
AcDbEntity
  8
0
 62
   180
100
AcDbMText
 10
104.8808284056857
 20
146.3247231310513
 30
0.0
 40
2.5
 41
0.0
 71
     5
 72
     1
  1
\A1;2.3\S+0.2^ -0.3;
 11
0.0000000000000001
 21
1.0
 31
0.0
1001
ACAD
1000
MTEXTBEGIN
1070
    73
1070
     1
1070
    44
1040
1.0
1070
    74
1070
     0
1000
MTEXTEND
  0
POINT
  5
2072
330
158C
100
AcDbEntity
  8
DEFPOINTS
 62
     0
100
AcDbPoint
 10
119.8731007330398
 20
132.6614265947907
 30
0.0
  0
POINT
  5
2073
330
158C
100
AcDbEntity
  8
DEFPOINTS
 62
     0
100
AcDbPoint
 10
119.8731007330399
 20
126.9976246902401
 30
0.0
  0
POINT
  5
2074
330
158C
100
AcDbEntity
  8
DEFPOINTS
 62
     0
100
AcDbPoint
 10
108.2974950723524
 20
126.9976246902401
 30
0.0
  0
ENDBLK
  5
15B1
330
158C
100
AcDbEntity
  8
0
100
AcDbBlockEnd
  0
BLOCK
  5
1751
330
159A
100
AcDbEntity
  8
0
100
AcDbBlockBegin
  2
*D9
 70
     1
 10
0.0
 20
0.0
 30
0.0
  3
*D9
  1

  0
LINE
  5
2061
330
159A
100
AcDbEntity
  8
0
 62
   180
100
AcDbLine
 10
124.3376555344647
 20
124.9545256425154
 30
0.0
 11
95.19637226335024
 21
124.9545256425154
 31
0.0
  0
LINE
  5
2062
330
159A
100
AcDbEntity
  8
0
 62
   180
100
AcDbLine
 10
124.3376555344647
 20
134.7045256425156
 30
0.0
 11
95.19637226335024
 21
134.7045256425156
 31
0.0
  0
LINE
  5
2063
330
159A
100
AcDbEntity
  8
0
 62
   180
100
AcDbLine
 10
96.69637226335025
 20
133.2045256425155
 30
0.0
 11
96.69637226335025
 21
126.4545256425154
 31
0.0
  0
LINE
  5
2064
330
159A
100
AcDbEntity
  8
0
 62
   180
100
AcDbLine
 10
96.69637226335025
 20
124.9545256425154
 30
0.0
 11
96.69637226335025
 21
105.0815313704127
 31
0.0
  0
SOLID
  5
2065
330
159A
100
AcDbEntity
  8
0
 62
   180
100
AcDbTrace
 10
96.44637226335024
 20
133.2045256425155
 30
0.0
 11
96.94637226335025
 21
133.2045256425155
 31
0.0
 12
96.69637226335025
 22
134.7045256425156
 32
0.0
 13
96.69637226335025
 23
134.7045256425156
 33
0.0
  0
SOLID
  5
2066
330
159A
100
AcDbEntity
  8
0
 62
   180
100
AcDbTrace
 10
96.44637226335024
 20
126.4545256425154
 30
0.0
 11
96.94637226335025
 21
126.4545256425154
 31
0.0
 12
96.69637226335025
 22
124.9545256425154
 32
0.0
 13
96.69637226335025
 23
124.9545256425154
 33
0.0
  0
MTEXT
  5
2067
330
159A
100
AcDbEntity
  8
0
 62
   180
100
AcDbMText
 10
93.27970559668354
 20
112.0398647037461
 30
0.0
 40
2.5
 41
0.0
 71
     5
 72
     1
  1
\A1;3.9\S+0.2^ -0.3;
 11
0.0000000000000001
 21
1.0
 31
0.0
1001
ACAD
1000
MTEXTBEGIN
1070
    73
1070
     1
1070
    44
1040
1.0
1070
    74
1070
     0
1000
MTEXTEND
  0
POINT
  5
2068
330
159A
100
AcDbEntity
  8
DEFPOINTS
 62
     0
100
AcDbPoint
 10
124.5376555344647
 20
124.9545256425154
 30
0.0
  0
POINT
  5
2069
330
159A
100
AcDbEntity
  8
DEFPOINTS
 62
     0
100
AcDbPoint
 10
124.5376555344647
 20
134.7045256425156
 30
0.0
  0
POINT
  5
206A
330
159A
100
AcDbEntity
  8
DEFPOINTS
 62
     0
100
AcDbPoint
 10
96.69637226335025
 20
134.7045256425156
 30
0.0
  0
ENDBLK
  5
175B
330
159A
100
AcDbEntity
  8
0
100
AcDbBlockEnd
  0
BLOCK
  5
1FEF
330
15B2
100
AcDbEntity
  8
0
100
AcDbBlockBegin
  2
*D10
 70
     1
 10
0.0
 20
0.0
 30
0.0
  3
*D10
  1

  0
LINE
  5
1FF0
330
15B2
100
AcDbEntity
  8
0
  6
BYBLOCK
 62
   180
100
AcDbLine
 10
124.3376555344647
 20
121.9545256425154
 30
0.0
 11
83.54922167728899
 21
121.9545256425154
 31
0.0
  0
LINE
  5
1FF1
330
15B2
100
AcDbEntity
  8
0
  6
BYBLOCK
 62
   180
100
AcDbLine
 10
124.3376555344722
 20
137.7045256425222
 30
0.0
 11
83.54922167728899
 21
137.7045256425222
 31
0.0
  0
LINE
  5
1FF2
330
15B2
100
AcDbEntity
  8
0
  6
BYBLOCK
 62
   180
100
AcDbLine
 10
85.04922167728899
 20
123.4545256425154
 30
0.0
 11
85.04922167728899
 21
136.2045256425223
 31
0.0
  0
SOLID
  5
1FF3
330
15B2
100
AcDbEntity
  8
0
  6
BYBLOCK
 62
   180
100
AcDbTrace
 10
84.79922167728899
 20
123.4545256425154
 30
0.0
 11
85.299221677289
 21
123.4545256425154
 31
0.0
 12
85.04922167728899
 22
121.9545256425154
 32
0.0
 13
85.04922167728899
 23
121.9545256425154
 33
0.0
  0
SOLID
  5
1FF4
330
15B2
100
AcDbEntity
  8
0
  6
BYBLOCK
 62
   180
100
AcDbTrace
 10
84.79922167728899
 20
136.2045256425223
 30
0.0
 11
85.299221677289
 21
136.2045256425223
 31
0.0
 12
85.04922167728899
 22
137.7045256425222
 32
0.0
 13
85.04922167728899
 23
137.7045256425222
 33
0.0
  0
MTEXT
  5
1FF5
330
15B2
100
AcDbEntity
  8
0
  6
BYBLOCK
 62
   180
100
AcDbMText
 10
83.299221677289
 20
129.8295256425188
 30
0.0
 40
2.5
 41
0.0
 71
     5
 72
     1
  1
\A1;6.3
 11
0.0000000000000001
 21
1.0
 31
0.0
1001
ACAD
1000
MTEXTBEGIN
1070
    73
1070
     1
1070
    44
1040
1.0
1070
    74
1070
     0
1000
MTEXTEND
  0
POINT
  5
1FF6
330
15B2
100
AcDbEntity
  8
DEFPOINTS
  6
BYBLOCK
 62
     0
100
AcDbPoint
 10
124.5376555344647
 20
121.9545256425154
 30
0.0
  0
POINT
  5
1FF7
330
15B2
100
AcDbEntity
  8
DEFPOINTS
  6
BYBLOCK
 62
     0
100
AcDbPoint
 10
124.5376555344722
 20
137.7045256425222
 30
0.0
  0
POINT
  5
1FF8
330
15B2
100
AcDbEntity
  8
DEFPOINTS
  6
BYBLOCK
 62
     0
100
AcDbPoint
 10
85.04922167728899
 20
137.7045256425222
 30
0.0
  0
ENDBLK
  5
1FF9
330
15B2
100
AcDbEntity
  8
0
100
AcDbBlockEnd
  0
BLOCK
  5
15C0
330
15BF
100
AcDbEntity
  8
0
100
AcDbBlockBegin
  2
*D11
 70
     1
 10
0.0
 20
0.0
 30
0.0
  3
*D11
  1

  0
LINE
  5
15C1
330
15BF
100
AcDbEntity
  8
0
  6
BYBLOCK
 62
   180
100
AcDbLine
 10
131.0376555344652
 20
97.83447694850865
 30
0.0
 11
131.0376555344652
 21
88.42939397028795
 31
0.0
  0
LINE
  5
15C2
330
15BF
100
AcDbEntity
  8
0
  6
BYBLOCK
 62
   180
100
AcDbLine
 10
118.3524101004654
 20
104.7769340576655
 30
0.0
 11
118.3524101004654
 21
88.42939397028795
 31
0.0
  0
LINE
  5
15C3
330
15BF
100
AcDbEntity
  8
0
  6
BYBLOCK
 62
   180
100
AcDbLine
 10
129.5376555344652
 20
89.92939397028795
 30
0.0
 11
119.8524101004654
 21
89.92939397028795
 31
0.0
  0
SOLID
  5
15C4
330
15BF
100
AcDbEntity
  8
0
  6
BYBLOCK
 62
   180
100
AcDbTrace
 10
129.5376555344652
 20
90.17939397028795
 30
0.0
 11
129.5376555344652
 21
89.67939397028795
 31
0.0
 12
131.0376555344652
 22
89.92939397028795
 32
0.0
 13
131.0376555344652
 23
89.92939397028795
 33
0.0
  0
SOLID
  5
15C5
330
15BF
100
AcDbEntity
  8
0
  6
BYBLOCK
 62
   180
100
AcDbTrace
 10
119.8524101004654
 20
90.17939397028795
 30
0.0
 11
119.8524101004654
 21
89.67939397028795
 31
0.0
 12
118.3524101004654
 22
89.92939397028795
 32
0.0
 13
118.3524101004654
 23
89.92939397028795
 33
0.0
  0
MTEXT
  5
15C6
330
15BF
100
AcDbEntity
  8
0
  6
BYBLOCK
 62
   180
100
AcDbMText
 10
124.6950328174653
 20
91.67939397028794
 30
0.0
 40
2.5
 41
0.0
 71
     5
 72
     1
  1
\A1;5.1
1001
ACAD
1000
MTEXTBEGIN
1070
    73
1070
     1
1070
    44
1040
1.0
1070
    74
1070
     0
1000
MTEXTEND
  0
POINT
  5
15C7
330
15BF
100
AcDbEntity
  8
DEFPOINTS
  6
BYBLOCK
 62
     0
100
AcDbPoint
 10
131.0376555344652
 20
98.03447694850866
 30
0.0
  0
POINT
  5
15C8
330
15BF
100
AcDbEntity
  8
DEFPOINTS
  6
BYBLOCK
 62
     0
100
AcDbPoint
 10
118.3524101004654
 20
104.9769340576655
 30
0.0
  0
POINT
  5
15C9
330
15BF
100
AcDbEntity
  8
DEFPOINTS
  6
BYBLOCK
 62
     0
100
AcDbPoint
 10
118.3524101004654
 20
89.92939397028795
 30
0.0
  0
ENDBLK
  5
15CA
330
15BF
100
AcDbEntity
  8
0
100
AcDbBlockEnd
  0
BLOCK
  5
15CD
330
15CC
100
AcDbEntity
  8
0
100
AcDbBlockBegin
  2
*D12
 70
     1
 10
0.0
 20
0.0
 30
0.0
  3
*D12
  1

  0
LINE
  5
15CE
330
15CC
100
AcDbEntity
  8
0
  6
BYBLOCK
 62
   180
100
AcDbLine
 10
137.7891076725713
 20
98.03255194170645
 30
0.0
 11
135.5293205082125
 21
101.028207549147
 31
0.0
  0
MTEXT
  5
15CF
330
15CC
100
AcDbEntity
  8
0
  6
BYBLOCK
 62
   180
100
AcDbMText
 10
140.0976279216292
 20
94.97229399438664
 30
0.0
 40
2.5
 41
0.0
 71
     5
 72
     1
  1
\A1;R1.5
 11
0.6022226736672759
 21
-0.7983281601703891
 31
0.0
1001
ACAD
1000
MTEXTBEGIN
1070
    73
1070
     1
1070
    44
1040
1.0
1070
    74
1070
     0
1000
MTEXTEND
  0
SOLID
  5
15D0
330
15CC
100
AcDbEntity
  8
0
  6
BYBLOCK
 62
   180
100
AcDbTrace
 10
136.632236558756
 20
99.98127097730828
 30
0.0
 11
136.2330724786708
 21
99.68015964047465
 31
0.0
 12
135.5293205082125
 22
101.028207549147
 32
0.0
 13
135.5293205082125
 23
101.028207549147
 33
0.0
  0
POINT
  5
15D1
330
15CC
100
AcDbEntity
  8
DEFPOINTS
  6
BYBLOCK
 62
     0
100
AcDbPoint
 10
135.5293205082125
 20
101.028207549147
 30
0.0
  0
POINT
  5
15D2
330
15CC
100
AcDbEntity
  8
DEFPOINTS
  6
BYBLOCK
 62
     0
100
AcDbPoint
 10
137.7876555344646
 20
98.03447694850834
 30
0.0
  0
ENDBLK
  5
15D3
330
15CC
100
AcDbEntity
  8
0
100
AcDbBlockEnd
  0
BLOCK
  5
15D6
330
15D5
100
AcDbEntity
  8
0
100
AcDbBlockBegin
  2
*D13
 70
     1
 10
0.0
 20
0.0
 30
0.0
  3
*D13
  1

  0
LINE
  5
15D7
330
15D5
100
AcDbEntity
  8
0
  6
BYBLOCK
 62
   180
100
AcDbLine
 10
157.3812611416878
 20
110.4367911107825
 30
0.0
 11
146.6716274461812
 21
113.2905647328218
 31
0.0
  0
MTEXT
  5
15D8
330
15D5
100
AcDbEntity
  8
0
  6
BYBLOCK
 62
   180
100
AcDbMText
 10
153.9264642381596
 20
113.1684477143505
 30
0.0
 40
2.5
 41
0.0
 71
     5
 72
     1
  1
\A1;R0.6
 11
0.9662827394442054
 21
-0.2574833343193347
 31
0.0
1001
ACAD
1000
MTEXTBEGIN
1070
    73
1070
     1
1070
    44
1040
1.0
1070
    74
1070
     0
1000
MTEXTEND
  0
LINE
  5
15D9
330
15D5
100
AcDbEntity
  8
0
  6
BYBLOCK
 62
   180
100
AcDbLine
 10
145.2022103358899
 20
113.6821172273652
 30
0.0
 11
146.6716274461812
 21
113.2905647328218
 31
0.0
  0
SOLID
  5
15DA
330
15D5
100
AcDbEntity
  8
0
  6
BYBLOCK
 62
   180
100
AcDbTrace
 10
148.1854223889273
 20
113.1459104162038
 30
0.0
 11
148.0566807217677
 21
112.6627690464817
 31
0.0
 12
146.6716274461812
 22
113.2905647328218
 32
0.0
 13
146.6716274461812
 23
113.2905647328218
 33
0.0
  0
POINT
  5
15DB
330
15D5
100
AcDbEntity
  8
DEFPOINTS
  6
BYBLOCK
 62
     0
100
AcDbPoint
 10
146.6716274461812
 20
113.2905647328218
 30
0.0
  0
POINT
  5
15DC
330
15D5
100
AcDbEntity
  8
DEFPOINTS
  6
BYBLOCK
 62
     0
100
AcDbPoint
 10
145.2022103358899
 20
113.6821172273652
 30
0.0
  0
ENDBLK
  5
15DD
330
15D5
100
AcDbEntity
  8
0
100
AcDbBlockEnd
  0
BLOCK
  5
15E0
330
15DF
100
AcDbEntity
  8
0
100
AcDbBlockBegin
  2
*D14
 70
     1
 10
0.0
 20
0.0
 30
0.0
  3
*D14
  1

  0
LINE
  5
15E1
330
15DF
100
AcDbEntity
  8
0
  6
BYBLOCK
 62
   180
100
AcDbLine
 10
125.1170459418895
 20
121.0330628647159
 30
0.0
 11
128.5000078095579
 21
118.9955477440759
 31
0.0
  0
MTEXT
  5
15E2
330
15DF
100
AcDbEntity
  8
0
  6
BYBLOCK
 62
   180
100
AcDbMText
 10
121.8333080606834
 20
123.0108166340149
 30
0.0
 40
2.5
 41
0.0
 71
     5
 72
     1
  1
\A1;R1.5
 11
0.8566272733581197
 21
-0.5159357659040835
 31
0.0
1001
ACAD
1000
MTEXTBEGIN
1070
    73
1070
     1
1070
    44
1040
1.0
1070
    74
1070
     0
1000
MTEXTEND
  0
SOLID
  5
15E3
330
15DF
100
AcDbEntity
  8
0
  6
BYBLOCK
 62
   180
100
AcDbTrace
 10
127.3440508409968
 20
119.9836082112715
 30
0.0
 11
127.0860829580447
 21
119.5552945745925
 31
0.0
 12
128.5000078095579
 22
118.9955477440759
 32
0.0
 13
128.5000078095579
 23
118.9955477440759
 33
0.0
  0
POINT
  5
15E4
330
15DF
100
AcDbEntity
  8
DEFPOINTS
  6
BYBLOCK
 62
     0
100
AcDbPoint
 10
128.5000078095579
 20
118.9955477440759
 30
0.0
  0
POINT
  5
15E5
330
15DF
100
AcDbEntity
  8
DEFPOINTS
  6
BYBLOCK
 62
     0
100
AcDbPoint
 10
125.2876555344649
 20
120.9303068662162
 30
0.0
  0
ENDBLK
  5
15E6
330
15DF
100
AcDbEntity
  8
0
100
AcDbBlockEnd
  0
BLOCK
  5
15EB
330
15EA
100
AcDbEntity
  8
0
100
AcDbBlockBegin
  2
*D15
 70
     1
 10
0.0
 20
0.0
 30
0.0
  3
*D15
  1

  0
LINE
  5
15EC
330
15EA
100
AcDbEntity
  8
0
  6
BYBLOCK
 62
   180
100
AcDbLine
 10
142.6083049187783
 20
135.3211817437837
 30
0.0
 11
135.1176168716333
 21
130.8714377740777
 31
0.0
  0
MTEXT
  5
15ED
330
15EA
100
AcDbEntity
  8
0
  6
BYBLOCK
 62
   180
100
AcDbMText
 10
145.903999836086
 20
137.2789456356962
 30
0.0
 40
2.5
 41
0.0
 71
     5
 72
     1
  1
\A1;R3.1
 11
0.8597465001672384
 21
0.5107210152815181
 31
0.0
1001
ACAD
1000
MTEXTBEGIN
1070
    73
1070
     1
1070
    44
1040
1.0
1070
    74
1070
     0
1000
MTEXTEND
  0
SOLID
  5
15EE
330
15EA
100
AcDbEntity
  8
0
  6
BYBLOCK
 62
   180
100
AcDbTrace
 10
136.2795563680638
 20
131.8524559220418
 30
0.0
 11
136.5349168757046
 21
131.4225826719582
 31
0.0
 12
135.1176168716333
 22
130.8714377740777
 32
0.0
 13
135.1176168716333
 23
130.8714377740777
 33
0.0
  0
POINT
  5
15EF
330
15EA
100
AcDbEntity
  8
DEFPOINTS
  6
BYBLOCK
 62
     0
100
AcDbPoint
 10
135.1176168716333
 20
130.8714377740777
 30
0.0
  0
POINT
  5
15F0
330
15EA
100
AcDbEntity
  8
DEFPOINTS
  6
BYBLOCK
 62
     0
100
AcDbPoint
 10
141.7806522479319
 20
134.8295256425109
 30
0.0
  0
ENDBLK
  5
15F1
330
15EA
100
AcDbEntity
  8
0
100
AcDbBlockEnd
  0
BLOCK
  5
1600
330
15F3
100
AcDbEntity
  8
0
100
AcDbBlockBegin
  2
*D16
 70
     1
 10
0.0
 20
0.0
 30
0.0
  3
*D16
  1

  0
LINE
  5
1601
330
15F3
100
AcDbEntity
  8
0
  6
BYBLOCK
 62
   180
100
AcDbLine
 10
129.0376555344649
 20
124.9371533372051
 30
0.0
 11
129.0376555344649
 21
123.0121084607394
 31
0.0
  0
LINE
  5
1602
330
15F3
100
AcDbEntity
  8
0
  6
BYBLOCK
 62
   180
100
AcDbLine
 10
136.0376555344649
 20
124.9371533372011
 30
0.0
 11
136.0376555344649
 21
123.0121084607394
 31
0.0
  0
LINE
  5
1603
330
15F3
100
AcDbEntity
  8
0
  6
BYBLOCK
 62
   180
100
AcDbLine
 10
130.5376555344649
 20
124.5121084607394
 30
0.0
 11
134.5376555344649
 21
124.5121084607394
 31
0.0
  0
LINE
  5
1604
330
15F3
100
AcDbEntity
  8
0
  6
BYBLOCK
 62
   180
100
AcDbLine
 10
136.0376555344649
 20
124.5121084607394
 30
0.0
 11
147.7428048929373
 21
124.5121084607394
 31
0.0
  0
SOLID
  5
1605
330
15F3
100
AcDbEntity
  8
0
  6
BYBLOCK
 62
   180
100
AcDbTrace
 10
130.5376555344649
 20
124.7621084607394
 30
0.0
 11
130.5376555344649
 21
124.2621084607394
 31
0.0
 12
129.0376555344649
 22
124.5121084607394
 32
0.0
 13
129.0376555344649
 23
124.5121084607394
 33
0.0
  0
SOLID
  5
1606
330
15F3
100
AcDbEntity
  8
0
  6
BYBLOCK
 62
   180
100
AcDbTrace
 10
134.5376555344649
 20
124.7621084607394
 30
0.0
 11
134.5376555344649
 21
124.2621084607394
 31
0.0
 12
136.0376555344649
 22
124.5121084607394
 32
0.0
 13
136.0376555344649
 23
124.5121084607394
 33
0.0
  0
MTEXT
  5
1607
330
15F3
100
AcDbEntity
  8
0
  6
BYBLOCK
 62
   180
100
AcDbMText
 10
144.7428048929373
 20
126.2621084607394
 30
0.0
 40
2.5
 41
0.0
 71
     5
 72
     1
  1
\A1;2.8
1001
ACAD
1000
MTEXTBEGIN
1070
    73
1070
     1
1070
    44
1040
1.0
1070
    74
1070
     0
1000
MTEXTEND
  0
POINT
  5
1608
330
15F3
100
AcDbEntity
  8
DEFPOINTS
  6
BYBLOCK
 62
     0
100
AcDbPoint
 10
129.0376555344649
 20
125.1371533372051
 30
0.0
  0
POINT
  5
1609
330
15F3
100
AcDbEntity
  8
DEFPOINTS
  6
BYBLOCK
 62
     0
100
AcDbPoint
 10
136.0376555344649
 20
125.1371533372011
 30
0.0
  0
POINT
  5
160A
330
15F3
100
AcDbEntity
  8
DEFPOINTS
  6
BYBLOCK
 62
     0
100
AcDbPoint
 10
136.0376555344649
 20
124.5121084607394
 30
0.0
  0
ENDBLK
  5
160B
330
15F3
100
AcDbEntity
  8
0
100
AcDbBlockEnd
  0
BLOCK
  5
16FF
330
160C
100
AcDbEntity
  8
0
100
AcDbBlockBegin
  2
*D17
 70
     1
 10
0.0
 20
0.0
 30
0.0
  3
*D17
  1

  0
LINE
  5
1700
330
160C
100
AcDbEntity
  8
0
  6
BYBLOCK
 62
   180
100
AcDbLine
 10
134.030652247929
 20
135.0295256425144
 30
0.0
 11
134.030652247929
 21
141.1256488685687
 31
0.0
  0
LINE
  5
1701
330
160C
100
AcDbEntity
  8
0
  6
BYBLOCK
 62
   180
100
AcDbLine
 10
131.0446588210008
 20
135.0295256425109
 30
0.0
 11
131.0446588210008
 21
141.1256488685687
 31
0.0
  0
LINE
  5
1702
330
160C
100
AcDbEntity
  8
0
  6
BYBLOCK
 62
   180
100
AcDbLine
 10
135.530652247929
 20
139.6256488685687
 30
0.0
 11
137.030652247929
 21
139.6256488685687
 31
0.0
  0
LINE
  5
1703
330
160C
100
AcDbEntity
  8
0
  6
BYBLOCK
 62
   180
100
AcDbLine
 10
129.5446588210008
 20
139.6256488685687
 30
0.0
 11
122.8779921543341
 21
139.6256488685687
 31
0.0
  0
LINE
  5
1704
330
160C
100
AcDbEntity
  8
0
  6
BYBLOCK
 62
   180
100
AcDbLine
 10
134.030652247929
 20
139.6256488685687
 30
0.0
 11
131.0446588210008
 21
139.6256488685687
 31
0.0
  0
SOLID
  5
1705
330
160C
100
AcDbEntity
  8
0
  6
BYBLOCK
 62
   180
100
AcDbTrace
 10
135.530652247929
 20
139.8756488685687
 30
0.0
 11
135.530652247929
 21
139.3756488685687
 31
0.0
 12
134.030652247929
 22
139.6256488685687
 32
0.0
 13
134.030652247929
 23
139.6256488685687
 33
0.0
  0
SOLID
  5
1706
330
160C
100
AcDbEntity
  8
0
  6
BYBLOCK
 62
   180
100
AcDbTrace
 10
129.5446588210008
 20
139.8756488685687
 30
0.0
 11
129.5446588210008
 21
139.3756488685687
 31
0.0
 12
131.0446588210008
 22
139.6256488685687
 32
0.0
 13
131.0446588210008
 23
139.6256488685687
 33
0.0
  0
MTEXT
  5
1707
330
160C
100
AcDbEntity
  8
0
  6
BYBLOCK
 62
   180
100
AcDbMText
 10
125.4613254876675
 20
141.3756488685687
 30
0.0
 40
2.5
 41
0.0
 71
     5
 72
     1
  1
\A1;1.2
1001
ACAD
1000
MTEXTBEGIN
1070
    73
1070
     1
1070
    44
1040
1.0
1070
    74
1070
     0
1000
MTEXTEND
  0
POINT
  5
1708
330
160C
100
AcDbEntity
  8
DEFPOINTS
  6
BYBLOCK
 62
     0
100
AcDbPoint
 10
134.030652247929
 20
134.8295256425144
 30
0.0
  0
POINT
  5
1709
330
160C
100
AcDbEntity
  8
DEFPOINTS
  6
BYBLOCK
 62
     0
100
AcDbPoint
 10
131.0446588210008
 20
134.8295256425109
 30
0.0
  0
POINT
  5
170A
330
160C
100
AcDbEntity
  8
DEFPOINTS
  6
BYBLOCK
 62
     0
100
AcDbPoint
 10
131.0446588210008
 20
139.6256488685687
 30
0.0
  0
ENDBLK
  5
170B
330
160C
100
AcDbEntity
  8
0
100
AcDbBlockEnd
  0
BLOCK
  5
161C
330
161B
100
AcDbEntity
  8
0
100
AcDbBlockBegin
  2
*D18
 70
     1
 10
0.0
 20
0.0
 30
0.0
  3
*D18
  1

  0
LINE
  5
161D
330
161B
100
AcDbEntity
  8
0
  6
BYBLOCK
 62
   180
100
AcDbLine
 10
130.2876555344648
 20
152.6295256425154
 30
0.0
 11
130.2876555344648
 21
146.390342153564
 31
0.0
  0
LINE
  5
161E
330
161B
100
AcDbEntity
  8
0
  6
BYBLOCK
 62
   180
100
AcDbLine
 10
134.7876555344652
 20
152.6295256425154
 30
0.0
 11
134.7876555344652
 21
146.390342153564
 31
0.0
  0
LINE
  5
161F
330
161B
100
AcDbEntity
  8
0
  6
BYBLOCK
 62
   180
100
AcDbLine
 10
131.7876555344648
 20
147.890342153564
 30
0.0
 11
133.2876555344652
 21
147.890342153564
 31
0.0
  0
LINE
  5
1620
330
161B
100
AcDbEntity
  8
0
  6
BYBLOCK
 62
   180
100
AcDbLine
 10
134.7876555344652
 20
147.890342153564
 30
0.0
 11
141.4543222011318
 21
147.890342153564
 31
0.0
  0
SOLID
  5
1621
330
161B
100
AcDbEntity
  8
0
  6
BYBLOCK
 62
   180
100
AcDbTrace
 10
131.7876555344648
 20
148.140342153564
 30
0.0
 11
131.7876555344648
 21
147.640342153564
 31
0.0
 12
130.2876555344648
 22
147.890342153564
 32
0.0
 13
130.2876555344648
 23
147.890342153564
 33
0.0
  0
SOLID
  5
1622
330
161B
100
AcDbEntity
  8
0
  6
BYBLOCK
 62
   180
100
AcDbTrace
 10
133.2876555344652
 20
148.140342153564
 30
0.0
 11
133.2876555344652
 21
147.640342153564
 31
0.0
 12
134.7876555344652
 22
147.890342153564
 32
0.0
 13
134.7876555344652
 23
147.890342153564
 33
0.0
  0
MTEXT
  5
1623
330
161B
100
AcDbEntity
  8
0
  6
BYBLOCK
 62
   180
100
AcDbMText
 10
138.8709888677985
 20
149.640342153564
 30
0.0
 40
2.5
 41
0.0
 71
     5
 72
     1
  1
\A1;1.8
1001
ACAD
1000
MTEXTBEGIN
1070
    73
1070
     1
1070
    44
1040
1.0
1070
    74
1070
     0
1000
MTEXTEND
  0
POINT
  5
1624
330
161B
100
AcDbEntity
  8
DEFPOINTS
  6
BYBLOCK
 62
     0
100
AcDbPoint
 10
130.2876555344648
 20
152.8295256425154
 30
0.0
  0
POINT
  5
1625
330
161B
100
AcDbEntity
  8
DEFPOINTS
  6
BYBLOCK
 62
     0
100
AcDbPoint
 10
134.7876555344652
 20
152.8295256425154
 30
0.0
  0
POINT
  5
1626
330
161B
100
AcDbEntity
  8
DEFPOINTS
  6
BYBLOCK
 62
     0
100
AcDbPoint
 10
134.7876555344652
 20
147.890342153564
 30
0.0
  0
ENDBLK
  5
1627
330
161B
100
AcDbEntity
  8
0
100
AcDbBlockEnd
  0
BLOCK
  5
162A
330
1629
100
AcDbEntity
  8
0
100
AcDbBlockBegin
  2
*D19
 70
     1
 10
0.0
 20
0.0
 30
0.0
  3
*D19
  1

  0
LINE
  5
162B
330
1629
100
AcDbEntity
  8
0
  6
BYBLOCK
 62
   180
100
AcDbLine
 10
149.2376555344653
 20
139.0652386146966
 30
0.0
 11
179.9272116793099
 21
139.0652386146966
 31
0.0
  0
LINE
  5
162C
330
1629
100
AcDbEntity
  8
0
  6
BYBLOCK
 62
   180
100
AcDbLine
 10
143.8626555344649
 20
164.3295256425155
 30
0.0
 11
179.9272116793099
 21
164.3295256425155
 31
0.0
  0
LINE
  5
162D
330
1629
100
AcDbEntity
  8
0
  6
BYBLOCK
 62
   180
100
AcDbLine
 10
178.4272116793099
 20
140.5652386146966
 30
0.0
 11
178.4272116793099
 21
162.8295256425155
 31
0.0
  0
SOLID
  5
162E
330
1629
100
AcDbEntity
  8
0
  6
BYBLOCK
 62
   180
100
AcDbTrace
 10
178.1772116793099
 20
140.5652386146966
 30
0.0
 11
178.6772116793099
 21
140.5652386146966
 31
0.0
 12
178.4272116793099
 22
139.0652386146966
 32
0.0
 13
178.4272116793099
 23
139.0652386146966
 33
0.0
  0
SOLID
  5
162F
330
1629
100
AcDbEntity
  8
0
  6
BYBLOCK
 62
   180
100
AcDbTrace
 10
178.1772116793099
 20
162.8295256425155
 30
0.0
 11
178.6772116793099
 21
162.8295256425155
 31
0.0
 12
178.4272116793099
 22
164.3295256425155
 32
0.0
 13
178.4272116793099
 23
164.3295256425155
 33
0.0
  0
MTEXT
  5
1630
330
1629
100
AcDbEntity
  8
0
  6
BYBLOCK
 62
   180
100
AcDbMText
 10
176.6772116793099
 20
151.697382128606
 30
0.0
 40
2.5
 41
0.0
 71
     5
 72
     1
  1
\A1;10.1
 11
0.0000000000000001
 21
1.0
 31
0.0
1001
ACAD
1000
MTEXTBEGIN
1070
    73
1070
     1
1070
    44
1040
1.0
1070
    74
1070
     0
1000
MTEXTEND
  0
POINT
  5
1631
330
1629
100
AcDbEntity
  8
DEFPOINTS
  6
BYBLOCK
 62
     0
100
AcDbPoint
 10
149.0376555344653
 20
139.0652386146966
 30
0.0
  0
POINT
  5
1632
330
1629
100
AcDbEntity
  8
DEFPOINTS
  6
BYBLOCK
 62
     0
100
AcDbPoint
 10
143.6626555344649
 20
164.3295256425155
 30
0.0
  0
POINT
  5
1633
330
1629
100
AcDbEntity
  8
DEFPOINTS
  6
BYBLOCK
 62
     0
100
AcDbPoint
 10
178.4272116793099
 20
164.3295256425155
 30
0.0
  0
ENDBLK
  5
1634
330
1629
100
AcDbEntity
  8
0
100
AcDbBlockEnd
  0
BLOCK
  5
1637
330
1636
100
AcDbEntity
  8
0
100
AcDbBlockBegin
  2
*D20
 70
     1
 10
0.0
 20
0.0
 30
0.0
  3
*D20
  1

  0
LINE
  5
1638
330
1636
100
AcDbEntity
  8
0
  6
BYBLOCK
 62
   180
100
AcDbLine
 10
145.3626555344649
 20
145.0336695933757
 30
0.0
 11
170.583961760603
 21
145.0336695933757
 31
0.0
  0
LINE
  5
1639
330
1636
100
AcDbEntity
  8
0
  6
BYBLOCK
 62
   180
100
AcDbLine
 10
144.0626555344649
 20
164.3295256425155
 30
0.0
 11
170.583961760603
 21
164.3295256425155
 31
0.0
  0
LINE
  5
163A
330
1636
100
AcDbEntity
  8
0
  6
BYBLOCK
 62
   180
100
AcDbLine
 10
169.083961760603
 20
146.5336695933757
 30
0.0
 11
169.083961760603
 21
162.8295256425155
 31
0.0
  0
SOLID
  5
163B
330
1636
100
AcDbEntity
  8
0
  6
BYBLOCK
 62
   180
100
AcDbTrace
 10
168.833961760603
 20
146.5336695933757
 30
0.0
 11
169.333961760603
 21
146.5336695933757
 31
0.0
 12
169.083961760603
 22
145.0336695933757
 32
0.0
 13
169.083961760603
 23
145.0336695933757
 33
0.0
  0
SOLID
  5
163C
330
1636
100
AcDbEntity
  8
0
  6
BYBLOCK
 62
   180
100
AcDbTrace
 10
168.833961760603
 20
162.8295256425155
 30
0.0
 11
169.333961760603
 21
162.8295256425155
 31
0.0
 12
169.083961760603
 22
164.3295256425155
 32
0.0
 13
169.083961760603
 23
164.3295256425155
 33
0.0
  0
MTEXT
  5
163D
330
1636
100
AcDbEntity
  8
0
  6
BYBLOCK
 62
   180
100
AcDbMText
 10
167.333961760603
 20
154.6815976179456
 30
0.0
 40
2.5
 41
0.0
 71
     5
 72
     1
  1
\A1;7.7
 11
0.0000000000000001
 21
1.0
 31
0.0
1001
ACAD
1000
MTEXTBEGIN
1070
    73
1070
     1
1070
    44
1040
1.0
1070
    74
1070
     0
1000
MTEXTEND
  0
POINT
  5
163E
330
1636
100
AcDbEntity
  8
DEFPOINTS
  6
BYBLOCK
 62
     0
100
AcDbPoint
 10
145.1626555344649
 20
145.0336695933757
 30
0.0
  0
POINT
  5
163F
330
1636
100
AcDbEntity
  8
DEFPOINTS
  6
BYBLOCK
 62
     0
100
AcDbPoint
 10
143.8626555344649
 20
164.3295256425155
 30
0.0
  0
POINT
  5
1640
330
1636
100
AcDbEntity
  8
DEFPOINTS
  6
BYBLOCK
 62
     0
100
AcDbPoint
 10
169.083961760603
 20
164.3295256425155
 30
0.0
  0
ENDBLK
  5
1641
330
1636
100
AcDbEntity
  8
0
100
AcDbBlockEnd
  0
BLOCK
  5
1644
330
1643
100
AcDbEntity
  8
0
100
AcDbBlockBegin
  2
*D21
 70
     1
 10
0.0
 20
0.0
 30
0.0
  3
*D21
  1

  0
LINE
  5
1645
330
1643
100
AcDbEntity
  8
0
  6
BYBLOCK
 62
   180
100
AcDbLine
 10
157.5233086475339
 20
164.3295256425155
 30
0.0
 11
161.511530938686
 21
164.3295256425155
 31
0.0
  0
LINE
  5
1646
330
1643
100
AcDbEntity
  8
0
  6
BYBLOCK
 62
   180
100
AcDbLine
 10
142.3626555344648
 20
155.8295256425154
 30
0.0
 11
161.511530938686
 21
155.8295256425154
 31
0.0
  0
LINE
  5
1647
330
1643
100
AcDbEntity
  8
0
  6
BYBLOCK
 62
   180
100
AcDbLine
 10
160.011530938686
 20
162.8295256425155
 30
0.0
 11
160.011530938686
 21
157.3295256425154
 31
0.0
  0
SOLID
  5
1648
330
1643
100
AcDbEntity
  8
0
  6
BYBLOCK
 62
   180
100
AcDbTrace
 10
159.761530938686
 20
162.8295256425155
 30
0.0
 11
160.261530938686
 21
162.8295256425155
 31
0.0
 12
160.011530938686
 22
164.3295256425155
 32
0.0
 13
160.011530938686
 23
164.3295256425155
 33
0.0
  0
SOLID
  5
1649
330
1643
100
AcDbEntity
  8
0
  6
BYBLOCK
 62
   180
100
AcDbTrace
 10
159.761530938686
 20
157.3295256425154
 30
0.0
 11
160.261530938686
 21
157.3295256425154
 31
0.0
 12
160.011530938686
 22
155.8295256425154
 32
0.0
 13
160.011530938686
 23
155.8295256425154
 33
0.0
  0
MTEXT
  5
164A
330
1643
100
AcDbEntity
  8
0
  6
BYBLOCK
 62
   180
100
AcDbMText
 10
158.261530938686
 20
160.0795256425154
 30
0.0
 40
2.5
 41
0.0
 71
     5
 72
     1
  1
\A1;3.4
 11
0.0000000000000001
 21
1.0
 31
0.0
1001
ACAD
1000
MTEXTBEGIN
1070
    73
1070
     1
1070
    44
1040
1.0
1070
    74
1070
     0
1000
MTEXTEND
  0
POINT
  5
164B
330
1643
100
AcDbEntity
  8
DEFPOINTS
  6
BYBLOCK
 62
     0
100
AcDbPoint
 10
157.3233086475339
 20
164.3295256425155
 30
0.0
  0
POINT
  5
164C
330
1643
100
AcDbEntity
  8
DEFPOINTS
  6
BYBLOCK
 62
     0
100
AcDbPoint
 10
142.1626555344648
 20
155.8295256425154
 30
0.0
  0
POINT
  5
164D
330
1643
100
AcDbEntity
  8
DEFPOINTS
  6
BYBLOCK
 62
     0
100
AcDbPoint
 10
160.011530938686
 20
155.8295256425154
 30
0.0
  0
ENDBLK
  5
164E
330
1643
100
AcDbEntity
  8
0
100
AcDbBlockEnd
  0
BLOCK
  5
1679
330
1650
100
AcDbEntity
  8
0
100
AcDbBlockBegin
  2
*D22
 70
     1
 10
0.0
 20
0.0
 30
0.0
  3
*D22
  1

  0
LINE
  5
167A
330
1650
100
AcDbEntity
  8
0
  6
BYBLOCK
 62
   180
100
AcDbLine
 10
152.1370932365754
 20
155.8295256425154
 30
0.0
 11
154.1039046161883
 21
155.8295256425154
 31
0.0
  0
LINE
  5
167B
330
1650
100
AcDbEntity
  8
0
  6
BYBLOCK
 62
   180
100
AcDbLine
 10
142.3626555344648
 20
152.8295256425154
 30
0.0
 11
154.1039046161883
 21
152.8295256425154
 31
0.0
  0
LINE
  5
167C
330
1650
100
AcDbEntity
  8
0
  6
BYBLOCK
 62
   180
100
AcDbLine
 10
152.6039046161883
 20
157.3295256425154
 30
0.0
 11
152.6039046161883
 21
158.8295256425154
 31
0.0
  0
LINE
  5
167D
330
1650
100
AcDbEntity
  8
0
  6
BYBLOCK
 62
   180
100
AcDbLine
 10
152.6039046161883
 20
151.3295256425154
 30
0.0
 11
152.6039046161883
 21
149.8295256425154
 31
0.0
  0
LINE
  5
167E
330
1650
100
AcDbEntity
  8
0
  6
BYBLOCK
 62
   180
100
AcDbLine
 10
152.6039046161883
 20
155.8295256425154
 30
0.0
 11
152.6039046161883
 21
152.8295256425154
 31
0.0
  0
SOLID
  5
167F
330
1650
100
AcDbEntity
  8
0
  6
BYBLOCK
 62
   180
100
AcDbTrace
 10
152.3539046161883
 20
157.3295256425154
 30
0.0
 11
152.8539046161883
 21
157.3295256425154
 31
0.0
 12
152.6039046161883
 22
155.8295256425154
 32
0.0
 13
152.6039046161883
 23
155.8295256425154
 33
0.0
  0
SOLID
  5
1680
330
1650
100
AcDbEntity
  8
0
  6
BYBLOCK
 62
   180
100
AcDbTrace
 10
152.3539046161883
 20
151.3295256425154
 30
0.0
 11
152.8539046161883
 21
151.3295256425154
 31
0.0
 12
152.6039046161883
 22
152.8295256425154
 32
0.0
 13
152.6039046161883
 23
152.8295256425154
 33
0.0
  0
MTEXT
  5
1681
330
1650
100
AcDbEntity
  8
0
  6
BYBLOCK
 62
   180
100
AcDbMText
 10
150.8539046161883
 20
154.3295256425154
 30
0.0
 40
2.5
 41
0.0
 71
     5
 72
     1
  1
\A1;1.2
 11
0.0000000000000001
 21
1.0
 31
0.0
1001
ACAD
1000
MTEXTBEGIN
1070
    73
1070
     1
1070
    44
1040
1.0
1070
    74
1070
     0
1000
MTEXTEND
  0
POINT
  5
1682
330
1650
100
AcDbEntity
  8
DEFPOINTS
  6
BYBLOCK
 62
     0
100
AcDbPoint
 10
151.9370932365754
 20
155.8295256425154
 30
0.0
  0
POINT
  5
1683
330
1650
100
AcDbEntity
  8
DEFPOINTS
  6
BYBLOCK
 62
     0
100
AcDbPoint
 10
142.1626555344648
 20
152.8295256425154
 30
0.0
  0
POINT
  5
1684
330
1650
100
AcDbEntity
  8
DEFPOINTS
  6
BYBLOCK
 62
     0
100
AcDbPoint
 10
152.6039046161883
 20
152.8295256425154
 30
0.0
  0
ENDBLK
  5
1685
330
1650
100
AcDbEntity
  8
0
100
AcDbBlockEnd
  0
BLOCK
  5
1687
330
1686
100
AcDbEntity
  8
0
100
AcDbBlockBegin
  2
*D23
 70
     1
 10
0.0
 20
0.0
 30
0.0
  3
*D23
  1

  0
LINE
  5
1688
330
1686
100
AcDbEntity
  8
0
  6
BYBLOCK
 62
   180
100
AcDbLine
 10
179.7272116793099
 20
164.3295256425155
 30
0.0
 11
176.9272116793099
 21
164.3295256425155
 31
0.0
  0
LINE
  5
1689
330
1686
100
AcDbEntity
  8
0
  6
BYBLOCK
 62
   180
100
AcDbLine
 10
169.597973857146
 20
187.3295256425154
 30
0.0
 11
179.9272116793099
 21
187.3295256425154
 31
0.0
  0
LINE
  5
168A
330
1686
100
AcDbEntity
  8
0
  6
BYBLOCK
 62
   180
100
AcDbLine
 10
178.4272116793099
 20
165.8295256425155
 30
0.0
 11
178.4272116793099
 21
185.8295256425154
 31
0.0
  0
SOLID
  5
168B
330
1686
100
AcDbEntity
  8
0
  6
BYBLOCK
 62
   180
100
AcDbTrace
 10
178.1772116793099
 20
165.8295256425155
 30
0.0
 11
178.6772116793099
 21
165.8295256425155
 31
0.0
 12
178.4272116793099
 22
164.3295256425155
 32
0.0
 13
178.4272116793099
 23
164.3295256425155
 33
0.0
  0
SOLID
  5
168C
330
1686
100
AcDbEntity
  8
0
  6
BYBLOCK
 62
   180
100
AcDbTrace
 10
178.1772116793099
 20
185.8295256425154
 30
0.0
 11
178.6772116793099
 21
185.8295256425154
 31
0.0
 12
178.4272116793099
 22
187.3295256425154
 32
0.0
 13
178.4272116793099
 23
187.3295256425154
 33
0.0
  0
MTEXT
  5
168D
330
1686
100
AcDbEntity
  8
0
  6
BYBLOCK
 62
   180
100
AcDbMText
 10
176.6772116793099
 20
175.8295256425154
 30
0.0
 40
2.5
 41
0.0
 71
     5
 72
     1
  1
\A1;9.2
 11
0.0000000000000001
 21
1.0
 31
0.0
1001
ACAD
1000
MTEXTBEGIN
1070
    73
1070
     1
1070
    44
1040
1.0
1070
    74
1070
     0
1000
MTEXTEND
  0
POINT
  5
168E
330
1686
100
AcDbEntity
  8
DEFPOINTS
  6
BYBLOCK
 62
     0
100
AcDbPoint
 10
179.9272116793099
 20
164.3295256425155
 30
0.0
  0
POINT
  5
168F
330
1686
100
AcDbEntity
  8
DEFPOINTS
  6
BYBLOCK
 62
     0
100
AcDbPoint
 10
169.397973857146
 20
187.3295256425154
 30
0.0
  0
POINT
  5
1690
330
1686
100
AcDbEntity
  8
DEFPOINTS
  6
BYBLOCK
 62
     0
100
AcDbPoint
 10
178.4272116793099
 20
187.3295256425154
 30
0.0
  0
ENDBLK
  5
1691
330
1686
100
AcDbEntity
  8
0
100
AcDbBlockEnd
  0
BLOCK
  5
1694
330
1693
100
AcDbEntity
  8
0
100
AcDbBlockBegin
  2
*D24
 70
     1
 10
0.0
 20
0.0
 30
0.0
  3
*D24
  1

  0
LINE
  5
1695
330
1693
100
AcDbEntity
  8
0
  6
BYBLOCK
 62
   180
100
AcDbLine
 10
146.3626555344653
 20
181.0795256425154
 30
0.0
 11
168.1465927065078
 21
181.0795256425154
 31
0.0
  0
LINE
  5
1696
330
1693
100
AcDbEntity
  8
0
  6
BYBLOCK
 62
   180
100
AcDbLine
 10
169.197973857146
 20
187.3295256425154
 30
0.0
 11
165.1465927065078
 21
187.3295256425154
 31
0.0
  0
LINE
  5
1697
330
1693
100
AcDbEntity
  8
0
  6
BYBLOCK
 62
   180
100
AcDbLine
 10
166.6465927065078
 20
182.5795256425154
 30
0.0
 11
166.6465927065078
 21
185.8295256425154
 31
0.0
  0
SOLID
  5
1698
330
1693
100
AcDbEntity
  8
0
  6
BYBLOCK
 62
   180
100
AcDbTrace
 10
166.3965927065078
 20
182.5795256425154
 30
0.0
 11
166.8965927065078
 21
182.5795256425154
 31
0.0
 12
166.6465927065078
 22
181.0795256425154
 32
0.0
 13
166.6465927065078
 23
181.0795256425154
 33
0.0
  0
SOLID
  5
1699
330
1693
100
AcDbEntity
  8
0
  6
BYBLOCK
 62
   180
100
AcDbTrace
 10
166.3965927065078
 20
185.8295256425154
 30
0.0
 11
166.8965927065078
 21
185.8295256425154
 31
0.0
 12
166.6465927065078
 22
187.3295256425154
 32
0.0
 13
166.6465927065078
 23
187.3295256425154
 33
0.0
  0
MTEXT
  5
169A
330
1693
100
AcDbEntity
  8
0
  6
BYBLOCK
 62
   180
100
AcDbMText
 10
164.8965927065078
 20
184.2045256425154
 30
0.0
 40
2.5
 41
0.0
 71
     5
 72
     1
  1
\A1;2.5
 11
0.0000000000000001
 21
1.0
 31
0.0
1001
ACAD
1000
MTEXTBEGIN
1070
    73
1070
     1
1070
    44
1040
1.0
1070
    74
1070
     0
1000
MTEXTEND
  0
POINT
  5
169B
330
1693
100
AcDbEntity
  8
DEFPOINTS
  6
BYBLOCK
 62
     0
100
AcDbPoint
 10
146.1626555344652
 20
181.0795256425154
 30
0.0
  0
POINT
  5
169C
330
1693
100
AcDbEntity
  8
DEFPOINTS
  6
BYBLOCK
 62
     0
100
AcDbPoint
 10
169.397973857146
 20
187.3295256425154
 30
0.0
  0
POINT
  5
169D
330
1693
100
AcDbEntity
  8
DEFPOINTS
  6
BYBLOCK
 62
     0
100
AcDbPoint
 10
166.6465927065078
 20
187.3295256425154
 30
0.0
  0
ENDBLK
  5
169E
330
1693
100
AcDbEntity
  8
0
100
AcDbBlockEnd
  0
BLOCK
  5
1F2F
330
16A0
100
AcDbEntity
  8
0
100
AcDbBlockBegin
  2
*D25
 70
     1
 10
0.0
 20
0.0
 30
0.0
  3
*D25
  1

  0
LINE
  5
1F30
330
16A0
100
AcDbEntity
  8
0
  6
BYBLOCK
 62
   180
100
AcDbLine
 10
118.1626555344649
 20
186.7795256425154
 30
0.0
 11
118.1626555344649
 21
197.5219339862089
 31
0.0
  0
LINE
  5
1F31
330
16A0
100
AcDbEntity
  8
0
  6
BYBLOCK
 62
   180
100
AcDbLine
 10
146.9126555344652
 20
186.7795256425154
 30
0.0
 11
146.9126555344652
 21
197.5219339862089
 31
0.0
  0
LINE
  5
1F32
330
16A0
100
AcDbEntity
  8
0
  6
BYBLOCK
 62
   180
100
AcDbLine
 10
119.662655534465
 20
196.0219339862089
 30
0.0
 11
145.4126555344652
 21
196.0219339862089
 31
0.0
  0
SOLID
  5
1F33
330
16A0
100
AcDbEntity
  8
0
  6
BYBLOCK
 62
   180
100
AcDbTrace
 10
119.662655534465
 20
196.2719339862089
 30
0.0
 11
119.662655534465
 21
195.7719339862089
 31
0.0
 12
118.1626555344649
 22
196.0219339862089
 32
0.0
 13
118.1626555344649
 23
196.0219339862089
 33
0.0
  0
SOLID
  5
1F34
330
16A0
100
AcDbEntity
  8
0
  6
BYBLOCK
 62
   180
100
AcDbTrace
 10
145.4126555344652
 20
196.2719339862089
 30
0.0
 11
145.4126555344652
 21
195.7719339862089
 31
0.0
 12
146.9126555344652
 22
196.0219339862089
 32
0.0
 13
146.9126555344652
 23
196.0219339862089
 33
0.0
  0
MTEXT
  5
1F35
330
16A0
100
AcDbEntity
  8
0
  6
BYBLOCK
 62
   180
100
AcDbMText
 10
132.436534091415
 20
197.7719339862089
 30
0.0
 40
2.5
 41
0.0
 71
     5
 72
     1
  1
\A1;11.5
1001
ACAD
1000
MTEXTBEGIN
1070
    73
1070
     1
1070
    44
1040
1.0
1070
    74
1070
     0
1000
MTEXTEND
  0
POINT
  5
1F36
330
16A0
100
AcDbEntity
  8
DEFPOINTS
  6
BYBLOCK
 62
     0
100
AcDbPoint
 10
118.1626555344649
 20
186.5795256425154
 30
0.0
  0
POINT
  5
1F37
330
16A0
100
AcDbEntity
  8
DEFPOINTS
  6
BYBLOCK
 62
     0
100
AcDbPoint
 10
146.9126555344652
 20
186.5795256425154
 30
0.0
  0
POINT
  5
1F38
330
16A0
100
AcDbEntity
  8
DEFPOINTS
  6
BYBLOCK
 62
     0
100
AcDbPoint
 10
146.9126555344652
 20
196.0219339862089
 30
0.0
  0
ENDBLK
  5
1F39
330
16A0
100
AcDbEntity
  8
0
100
AcDbBlockEnd
  0
BLOCK
  5
1F22
330
16B8
100
AcDbEntity
  8
0
100
AcDbBlockBegin
  2
*D26
 70
     1
 10
0.0
 20
0.0
 30
0.0
  3
*D26
  1

  0
LINE
  5
1F23
330
16B8
100
AcDbEntity
  8
0
  6
BYBLOCK
 62
   180
100
AcDbLine
 10
131.0376555344647
 20
184.5295256425154
 30
0.0
 11
131.0376555344647
 21
191.6242803627913
 31
0.0
  0
LINE
  5
1F24
330
16B8
100
AcDbEntity
  8
0
  6
BYBLOCK
 62
   180
100
AcDbLine
 10
134.0376555344651
 20
184.5295256425154
 30
0.0
 11
134.0376555344651
 21
191.6242803627913
 31
0.0
  0
LINE
  5
1F25
330
16B8
100
AcDbEntity
  8
0
  6
BYBLOCK
 62
   180
100
AcDbLine
 10
129.5376555344647
 20
190.1242803627912
 30
0.0
 11
128.0376555344647
 21
190.1242803627912
 31
0.0
  0
LINE
  5
1F26
330
16B8
100
AcDbEntity
  8
0
  6
BYBLOCK
 62
   180
100
AcDbLine
 10
135.5376555344651
 20
190.1242803627912
 30
0.0
 11
142.2043222011318
 21
190.1242803627912
 31
0.0
  0
LINE
  5
1F27
330
16B8
100
AcDbEntity
  8
0
  6
BYBLOCK
 62
   180
100
AcDbLine
 10
131.0376555344647
 20
190.1242803627912
 30
0.0
 11
134.0376555344651
 21
190.1242803627912
 31
0.0
  0
SOLID
  5
1F28
330
16B8
100
AcDbEntity
  8
0
  6
BYBLOCK
 62
   180
100
AcDbTrace
 10
129.5376555344647
 20
190.3742803627912
 30
0.0
 11
129.5376555344647
 21
189.8742803627913
 31
0.0
 12
131.0376555344647
 22
190.1242803627912
 32
0.0
 13
131.0376555344647
 23
190.1242803627912
 33
0.0
  0
SOLID
  5
1F29
330
16B8
100
AcDbEntity
  8
0
  6
BYBLOCK
 62
   180
100
AcDbTrace
 10
135.5376555344651
 20
190.3742803627912
 30
0.0
 11
135.5376555344651
 21
189.8742803627913
 31
0.0
 12
134.0376555344651
 22
190.1242803627912
 32
0.0
 13
134.0376555344651
 23
190.1242803627912
 33
0.0
  0
MTEXT
  5
1F2A
330
16B8
100
AcDbEntity
  8
0
  6
BYBLOCK
 62
   180
100
AcDbMText
 10
139.6209888677985
 20
191.8742803627912
 30
0.0
 40
2.5
 41
0.0
 71
     5
 72
     1
  1
\A1;1.2
1001
ACAD
1000
MTEXTBEGIN
1070
    73
1070
     1
1070
    44
1040
1.0
1070
    74
1070
     0
1000
MTEXTEND
  0
POINT
  5
1F2B
330
16B8
100
AcDbEntity
  8
DEFPOINTS
  6
BYBLOCK
 62
     0
100
AcDbPoint
 10
131.0376555344647
 20
184.3295256425154
 30
0.0
  0
POINT
  5
1F2C
330
16B8
100
AcDbEntity
  8
DEFPOINTS
  6
BYBLOCK
 62
     0
100
AcDbPoint
 10
134.0376555344651
 20
184.3295256425154
 30
0.0
  0
POINT
  5
1F2D
330
16B8
100
AcDbEntity
  8
DEFPOINTS
  6
BYBLOCK
 62
     0
100
AcDbPoint
 10
134.0376555344651
 20
190.1242803627912
 30
0.0
  0
ENDBLK
  5
1F2E
330
16B8
100
AcDbEntity
  8
0
100
AcDbBlockEnd
  0
BLOCK
  5
1F8C
330
16C7
100
AcDbEntity
  8
0
100
AcDbBlockBegin
  2
*D27
 70
     1
 10
0.0
 20
0.0
 30
0.0
  3
*D27
  1

  0
LINE
  5
1F8D
330
16C7
100
AcDbEntity
  8
0
  6
BYBLOCK
 62
   180
100
AcDbLine
 10
121.1626555344651
 20
205.0295256425154
 30
0.0
 11
121.1626555344651
 21
213.4646562384475
 31
0.0
  0
LINE
  5
1F8E
330
16C7
100
AcDbEntity
  8
0
  6
BYBLOCK
 62
   180
100
AcDbLine
 10
118.1626555344649
 20
199.2126811180003
 30
0.0
 11
118.1626555344649
 21
213.4646562384475
 31
0.0
  0
LINE
  5
1F8F
330
16C7
100
AcDbEntity
  8
0
  6
BYBLOCK
 62
   180
100
AcDbLine
 10
122.6626555344651
 20
211.9646562384475
 30
0.0
 11
124.1626555344651
 21
211.9646562384475
 31
0.0
  0
LINE
  5
1F90
330
16C7
100
AcDbEntity
  8
0
  6
BYBLOCK
 62
   180
100
AcDbLine
 10
116.6626555344649
 20
211.9646562384475
 30
0.0
 11
109.3352757706976
 21
211.9646562384475
 31
0.0
  0
LINE
  5
1F91
330
16C7
100
AcDbEntity
  8
0
  6
BYBLOCK
 62
   180
100
AcDbLine
 10
121.1626555344651
 20
211.9646562384475
 30
0.0
 11
118.1626555344649
 21
211.9646562384475
 31
0.0
  0
SOLID
  5
1F92
330
16C7
100
AcDbEntity
  8
0
  6
BYBLOCK
 62
   180
100
AcDbTrace
 10
122.6626555344651
 20
212.2146562384475
 30
0.0
 11
122.6626555344651
 21
211.7146562384475
 31
0.0
 12
121.1626555344651
 22
211.9646562384475
 32
0.0
 13
121.1626555344651
 23
211.9646562384475
 33
0.0
  0
SOLID
  5
1F93
330
16C7
100
AcDbEntity
  8
0
  6
BYBLOCK
 62
   180
100
AcDbTrace
 10
116.6626555344649
 20
212.2146562384475
 30
0.0
 11
116.6626555344649
 21
211.7146562384475
 31
0.0
 12
118.1626555344649
 22
211.9646562384475
 32
0.0
 13
118.1626555344649
 23
211.9646562384475
 33
0.0
  0
MTEXT
  5
1F94
330
16C7
100
AcDbEntity
  8
0
  6
BYBLOCK
 62
   180
100
AcDbMText
 10
111.918609104031
 20
213.7146562384475
 30
0.0
 40
2.5
 41
0.0
 71
     5
 72
     1
  1
\A1;1.2
1001
ACAD
1000
MTEXTBEGIN
1070
    73
1070
     1
1070
    44
1040
1.0
1070
    74
1070
     0
1000
MTEXTEND
  0
POINT
  5
1F95
330
16C7
100
AcDbEntity
  8
DEFPOINTS
  6
BYBLOCK
 62
     0
100
AcDbPoint
 10
121.1626555344651
 20
204.8295256425154
 30
0.0
  0
POINT
  5
1F96
330
16C7
100
AcDbEntity
  8
DEFPOINTS
  6
BYBLOCK
 62
     0
100
AcDbPoint
 10
118.1626555344649
 20
199.0126811180003
 30
0.0
  0
POINT
  5
1F97
330
16C7
100
AcDbEntity
  8
DEFPOINTS
  6
BYBLOCK
 62
     0
100
AcDbPoint
 10
118.1626555344649
 20
211.9646562384475
 30
0.0
  0
ENDBLK
  5
1F98
330
16C7
100
AcDbEntity
  8
0
100
AcDbBlockEnd
  0
BLOCK
  5
16D7
330
16D6
100
AcDbEntity
  8
0
100
AcDbBlockBegin
  2
*D28
 70
     1
 10
0.0
 20
0.0
 30
0.0
  3
*D28
  1

  0
LINE
  5
16D8
330
16D6
100
AcDbEntity
  8
0
  6
BYBLOCK
 62
   180
100
AcDbLine
 10
120.4626555344648
 20
164.3295256425155
 30
0.0
 11
108.0973303423445
 21
164.3295256425155
 31
0.0
  0
LINE
  5
16D9
330
16D6
100
AcDbEntity
  8
0
  6
BYBLOCK
 62
   180
100
AcDbLine
 10
118.7126555344649
 20
181.0795256425154
 30
0.0
 11
108.0973303423445
 21
181.0795256425154
 31
0.0
  0
LINE
  5
16DA
330
16D6
100
AcDbEntity
  8
0
  6
BYBLOCK
 62
   180
100
AcDbLine
 10
109.5973303423445
 20
165.8295256425155
 30
0.0
 11
109.5973303423445
 21
179.5795256425154
 31
0.0
  0
SOLID
  5
16DB
330
16D6
100
AcDbEntity
  8
0
  6
BYBLOCK
 62
   180
100
AcDbTrace
 10
109.3473303423445
 20
165.8295256425155
 30
0.0
 11
109.8473303423445
 21
165.8295256425155
 31
0.0
 12
109.5973303423445
 22
164.3295256425155
 32
0.0
 13
109.5973303423445
 23
164.3295256425155
 33
0.0
  0
SOLID
  5
16DC
330
16D6
100
AcDbEntity
  8
0
  6
BYBLOCK
 62
   180
100
AcDbTrace
 10
109.3473303423445
 20
179.5795256425154
 30
0.0
 11
109.8473303423445
 21
179.5795256425154
 31
0.0
 12
109.5973303423445
 22
181.0795256425154
 32
0.0
 13
109.5973303423445
 23
181.0795256425154
 33
0.0
  0
MTEXT
  5
16DD
330
16D6
100
AcDbEntity
  8
0
  6
BYBLOCK
 62
   180
100
AcDbMText
 10
107.8473303423445
 20
172.7045256425154
 30
0.0
 40
2.5
 41
0.0
 71
     5
 72
     1
  1
\A1;6.7
 11
0.0000000000000001
 21
1.0
 31
0.0
1001
ACAD
1000
MTEXTBEGIN
1070
    73
1070
     1
1070
    44
1040
1.0
1070
    74
1070
     0
1000
MTEXTEND
  0
POINT
  5
16DE
330
16D6
100
AcDbEntity
  8
DEFPOINTS
  6
BYBLOCK
 62
     0
100
AcDbPoint
 10
120.6626555344648
 20
164.3295256425155
 30
0.0
  0
POINT
  5
16DF
330
16D6
100
AcDbEntity
  8
DEFPOINTS
  6
BYBLOCK
 62
     0
100
AcDbPoint
 10
118.9126555344649
 20
181.0795256425154
 30
0.0
  0
POINT
  5
16E0
330
16D6
100
AcDbEntity
  8
DEFPOINTS
  6
BYBLOCK
 62
     0
100
AcDbPoint
 10
109.5973303423445
 20
181.0795256425154
 30
0.0
  0
ENDBLK
  5
16E1
330
16D6
100
AcDbEntity
  8
0
100
AcDbBlockEnd
  0
BLOCK
  5
16E4
330
16E3
100
AcDbEntity
  8
0
100
AcDbBlockBegin
  2
*D29
 70
     1
 10
0.0
 20
0.0
 30
0.0
  3
*D29
  1

  0
LINE
  5
16E5
330
16E3
100
AcDbEntity
  8
0
  6
BYBLOCK
 62
   180
100
AcDbLine
 10
134.0376555344651
 20
170.2795256425154
 30
0.0
 11
134.0376555344651
 21
175.9441721982017
 31
0.0
  0
LINE
  5
16E6
330
16E3
100
AcDbEntity
  8
0
  6
BYBLOCK
 62
   180
100
AcDbLine
 10
145.1626555344649
 20
163.7795256425154
 30
0.0
 11
145.1626555344649
 21
175.9441721982017
 31
0.0
  0
LINE
  5
16E7
330
16E3
100
AcDbEntity
  8
0
  6
BYBLOCK
 62
   180
100
AcDbLine
 10
135.5376555344651
 20
174.4441721982017
 30
0.0
 11
143.6626555344649
 21
174.4441721982017
 31
0.0
  0
SOLID
  5
16E8
330
16E3
100
AcDbEntity
  8
0
  6
BYBLOCK
 62
   180
100
AcDbTrace
 10
135.5376555344651
 20
174.6941721982017
 30
0.0
 11
135.5376555344651
 21
174.1941721982017
 31
0.0
 12
134.0376555344651
 22
174.4441721982017
 32
0.0
 13
134.0376555344651
 23
174.4441721982017
 33
0.0
  0
SOLID
  5
16E9
330
16E3
100
AcDbEntity
  8
0
  6
BYBLOCK
 62
   180
100
AcDbTrace
 10
143.6626555344649
 20
174.6941721982017
 30
0.0
 11
143.6626555344649
 21
174.1941721982017
 31
0.0
 12
145.1626555344649
 22
174.4441721982017
 32
0.0
 13
145.1626555344649
 23
174.4441721982017
 33
0.0
  0
MTEXT
  5
16EA
330
16E3
100
AcDbEntity
  8
0
  6
BYBLOCK
 62
   180
100
AcDbMText
 10
139.600155534465
 20
176.1941721982017
 30
0.0
 40
2.5
 41
0.0
 71
     5
 72
     1
  1
\A1;4.5
1001
ACAD
1000
MTEXTBEGIN
1070
    73
1070
     1
1070
    44
1040
1.0
1070
    74
1070
     0
1000
MTEXTEND
  0
POINT
  5
16EB
330
16E3
100
AcDbEntity
  8
DEFPOINTS
  6
BYBLOCK
 62
     0
100
AcDbPoint
 10
134.0376555344651
 20
170.0795256425154
 30
0.0
  0
POINT
  5
16EC
330
16E3
100
AcDbEntity
  8
DEFPOINTS
  6
BYBLOCK
 62
     0
100
AcDbPoint
 10
145.1626555344649
 20
163.5795256425154
 30
0.0
  0
POINT
  5
16ED
330
16E3
100
AcDbEntity
  8
DEFPOINTS
  6
BYBLOCK
 62
     0
100
AcDbPoint
 10
145.1626555344649
 20
174.4441721982017
 30
0.0
  0
ENDBLK
  5
16EE
330
16E3
100
AcDbEntity
  8
0
100
AcDbBlockEnd
  0
BLOCK
  5
16F1
330
16F0
100
AcDbEntity
  8
0
100
AcDbBlockBegin
  2
*D30
 70
     1
 10
0.0
 20
0.0
 30
0.0
  3
*D30
  1

  0
LINE
  5
16F2
330
16F0
100
AcDbEntity
  8
0
  6
BYBLOCK
 62
   180
100
AcDbLine
 10
122.9126555344652
 20
163.7795256425153
 30
0.0
 11
122.9126555344652
 21
175.7203132616959
 31
0.0
  0
LINE
  5
16F3
330
16F0
100
AcDbEntity
  8
0
  6
BYBLOCK
 62
   180
100
AcDbLine
 10
131.0376555344647
 20
170.2795256425154
 30
0.0
 11
131.0376555344647
 21
175.7203132616959
 31
0.0
  0
LINE
  5
16F4
330
16F0
100
AcDbEntity
  8
0
  6
BYBLOCK
 62
   180
100
AcDbLine
 10
124.4126555344652
 20
174.220313261696
 30
0.0
 11
129.5376555344647
 21
174.220313261696
 31
0.0
  0
SOLID
  5
16F5
330
16F0
100
AcDbEntity
  8
0
  6
BYBLOCK
 62
   180
100
AcDbTrace
 10
124.4126555344652
 20
174.4703132616959
 30
0.0
 11
124.4126555344652
 21
173.9703132616959
 31
0.0
 12
122.9126555344652
 22
174.220313261696
 32
0.0
 13
122.9126555344652
 23
174.220313261696
 33
0.0
  0
SOLID
  5
16F6
330
16F0
100
AcDbEntity
  8
0
  6
BYBLOCK
 62
   180
100
AcDbTrace
 10
129.5376555344647
 20
174.4703132616959
 30
0.0
 11
129.5376555344647
 21
173.9703132616959
 31
0.0
 12
131.0376555344647
 22
174.220313261696
 32
0.0
 13
131.0376555344647
 23
174.220313261696
 33
0.0
  0
MTEXT
  5
16F7
330
16F0
100
AcDbEntity
  8
0
  6
BYBLOCK
 62
   180
100
AcDbMText
 10
126.9751555344649
 20
175.9703132616959
 30
0.0
 40
2.5
 41
0.0
 71
     5
 72
     1
  1
\A1;3.3
1001
ACAD
1000
MTEXTBEGIN
1070
    73
1070
     1
1070
    44
1040
1.0
1070
    74
1070
     0
1000
MTEXTEND
  0
POINT
  5
16F8
330
16F0
100
AcDbEntity
  8
DEFPOINTS
  6
BYBLOCK
 62
     0
100
AcDbPoint
 10
122.9126555344652
 20
163.5795256425153
 30
0.0
  0
POINT
  5
16F9
330
16F0
100
AcDbEntity
  8
DEFPOINTS
  6
BYBLOCK
 62
     0
100
AcDbPoint
 10
131.0376555344647
 20
170.0795256425154
 30
0.0
  0
POINT
  5
16FA
330
16F0
100
AcDbEntity
  8
DEFPOINTS
  6
BYBLOCK
 62
     0
100
AcDbPoint
 10
131.0376555344647
 20
174.220313261696
 30
0.0
  0
ENDBLK
  5
16FB
330
16F0
100
AcDbEntity
  8
0
100
AcDbBlockEnd
  0
BLOCK
  5
170D
330
170C
100
AcDbEntity
  8
0
100
AcDbBlockBegin
  2
*D31
 70
     1
 10
0.0
 20
0.0
 30
0.0
  3
*D31
  1

  0
LINE
  5
170E
330
170C
100
AcDbEntity
  8
0
  6
BYBLOCK
 62
   180
100
AcDbLine
 10
122.0946588209979
 20
134.8295256425109
 30
0.0
 11
97.1190152091292
 21
134.8295256425109
 31
0.0
  0
LINE
  5
170F
330
170C
100
AcDbEntity
  8
0
  6
BYBLOCK
 62
   180
100
AcDbLine
 10
114.0799929384046
 20
164.3295256425155
 30
0.0
 11
97.1190152091292
 21
164.3295256425155
 31
0.0
  0
LINE
  5
1710
330
170C
100
AcDbEntity
  8
0
  6
BYBLOCK
 62
   180
100
AcDbLine
 10
98.61901520912921
 20
136.3295256425109
 30
0.0
 11
98.61901520912921
 21
162.8295256425155
 31
0.0
  0
SOLID
  5
1711
330
170C
100
AcDbEntity
  8
0
  6
BYBLOCK
 62
   180
100
AcDbTrace
 10
98.3690152091292
 20
136.3295256425109
 30
0.0
 11
98.86901520912921
 21
136.3295256425109
 31
0.0
 12
98.61901520912921
 22
134.8295256425109
 32
0.0
 13
98.61901520912921
 23
134.8295256425109
 33
0.0
  0
SOLID
  5
1712
330
170C
100
AcDbEntity
  8
0
  6
BYBLOCK
 62
   180
100
AcDbTrace
 10
98.3690152091292
 20
162.8295256425155
 30
0.0
 11
98.86901520912921
 21
162.8295256425155
 31
0.0
 12
98.61901520912921
 22
164.3295256425155
 32
0.0
 13
98.61901520912921
 23
164.3295256425155
 33
0.0
  0
MTEXT
  5
1713
330
170C
100
AcDbEntity
  8
0
  6
BYBLOCK
 62
   180
100
AcDbMText
 10
96.8690152091292
 20
149.5795256425132
 30
0.0
 40
2.5
 41
0.0
 71
     5
 72
     1
  1
\A1;11.8
 11
0.0000000000000001
 21
1.0
 31
0.0
1001
ACAD
1000
MTEXTBEGIN
1070
    73
1070
     1
1070
    44
1040
1.0
1070
    74
1070
     0
1000
MTEXTEND
  0
POINT
  5
1714
330
170C
100
AcDbEntity
  8
DEFPOINTS
  6
BYBLOCK
 62
     0
100
AcDbPoint
 10
122.2946588209979
 20
134.8295256425109
 30
0.0
  0
POINT
  5
1715
330
170C
100
AcDbEntity
  8
DEFPOINTS
  6
BYBLOCK
 62
     0
100
AcDbPoint
 10
114.2799929384046
 20
164.3295256425155
 30
0.0
  0
POINT
  5
1716
330
170C
100
AcDbEntity
  8
DEFPOINTS
  6
BYBLOCK
 62
     0
100
AcDbPoint
 10
98.61901520912921
 20
164.3295256425155
 30
0.0
  0
ENDBLK
  5
1717
330
170C
100
AcDbEntity
  8
0
100
AcDbBlockEnd
  0
BLOCK
  5
171A
330
1719
100
AcDbEntity
  8
0
100
AcDbBlockBegin
  2
*D32
 70
     1
 10
0.0
 20
0.0
 30
0.0
  3
*D32
  1

  0
LINE
  5
171B
330
1719
100
AcDbEntity
  8
0
  6
BYBLOCK
 62
   180
100
AcDbLine
 10
129.0376555344648
 20
129.5439998081939
 30
0.0
 11
129.0376555344648
 21
132.1811386212837
 31
0.0
  0
LINE
  5
171C
330
1719
100
AcDbEntity
  8
0
  6
BYBLOCK
 62
   180
100
AcDbLine
 10
123.2946588209979
 20
133.629525642511
 30
0.0
 11
123.2946588209979
 21
129.1811386212837
 31
0.0
  0
LINE
  5
171D
330
1719
100
AcDbEntity
  8
0
  6
BYBLOCK
 62
   180
100
AcDbLine
 10
127.5376555344648
 20
130.6811386212837
 30
0.0
 11
124.7946588209979
 21
130.6811386212837
 31
0.0
  0
LINE
  5
171E
330
1719
100
AcDbEntity
  8
0
  6
BYBLOCK
 62
   180
100
AcDbLine
 10
123.2946588209979
 20
130.6811386212837
 30
0.0
 11
115.7946588209979
 21
130.6811386212837
 31
0.0
  0
SOLID
  5
171F
330
1719
100
AcDbEntity
  8
0
  6
BYBLOCK
 62
   180
100
AcDbTrace
 10
127.5376555344648
 20
130.9311386212837
 30
0.0
 11
127.5376555344648
 21
130.4311386212837
 31
0.0
 12
129.0376555344648
 22
130.6811386212837
 32
0.0
 13
129.0376555344648
 23
130.6811386212837
 33
0.0
  0
SOLID
  5
1720
330
1719
100
AcDbEntity
  8
0
  6
BYBLOCK
 62
   180
100
AcDbTrace
 10
124.7946588209979
 20
130.9311386212837
 30
0.0
 11
124.7946588209979
 21
130.4311386212837
 31
0.0
 12
123.2946588209979
 22
130.6811386212837
 32
0.0
 13
123.2946588209979
 23
130.6811386212837
 33
0.0
  0
MTEXT
  5
1721
330
1719
100
AcDbEntity
  8
0
  6
BYBLOCK
 62
   180
100
AcDbMText
 10
118.7946588209979
 20
132.4311386212837
 30
0.0
 40
2.5
 41
0.0
 71
     5
 72
     1
  1
\A1;2.3
1001
ACAD
1000
MTEXTBEGIN
1070
    73
1070
     1
1070
    44
1040
1.0
1070
    74
1070
     0
1000
MTEXTEND
  0
POINT
  5
1722
330
1719
100
AcDbEntity
  8
DEFPOINTS
  6
BYBLOCK
 62
     0
100
AcDbPoint
 10
129.0376555344648
 20
129.3439998081939
 30
0.0
  0
POINT
  5
1723
330
1719
100
AcDbEntity
  8
DEFPOINTS
  6
BYBLOCK
 62
     0
100
AcDbPoint
 10
123.2946588209979
 20
133.8295256425109
 30
0.0
  0
POINT
  5
1724
330
1719
100
AcDbEntity
  8
DEFPOINTS
  6
BYBLOCK
 62
     0
100
AcDbPoint
 10
123.2946588209979
 20
130.6811386212837
 30
0.0
  0
ENDBLK
  5
1725
330
1719
100
AcDbEntity
  8
0
100
AcDbBlockEnd
  0
BLOCK
  5
1F68
330
1727
100
AcDbEntity
  8
0
100
AcDbBlockBegin
  2
*D33
 70
     1
 10
0.0
 20
0.0
 30
0.0
  3
*D33
  1

  0
LINE
  5
1F69
330
1727
100
AcDbEntity
  8
0
  6
BYBLOCK
 62
   180
100
AcDbLine
 10
131.0376555344649
 20
81.88200129551203
 30
0.0
 11
131.0376555344649
 21
107.2942182639396
 31
0.0
  0
LINE
  5
1F6A
330
1727
100
AcDbEntity
  8
0
  6
BYBLOCK
 62
   180
100
AcDbLine
 10
134.037655534465
 20
81.88200129551196
 30
0.0
 11
134.037655534465
 21
107.2942182639396
 31
0.0
  0
LINE
  5
1F6B
330
1727
100
AcDbEntity
  8
0
  6
BYBLOCK
 62
   180
100
AcDbLine
 10
129.5376555344649
 20
105.7942182639396
 30
0.0
 11
128.0376555344649
 21
105.7942182639396
 31
0.0
  0
LINE
  5
1F6C
330
1727
100
AcDbEntity
  8
0
  6
BYBLOCK
 62
   180
100
AcDbLine
 10
135.537655534465
 20
105.7942182639396
 30
0.0
 11
142.2043222011317
 21
105.7942182639396
 31
0.0
  0
LINE
  5
1F6D
330
1727
100
AcDbEntity
  8
0
  6
BYBLOCK
 62
   180
100
AcDbLine
 10
131.0376555344649
 20
105.7942182639396
 30
0.0
 11
134.037655534465
 21
105.7942182639396
 31
0.0
  0
SOLID
  5
1F6E
330
1727
100
AcDbEntity
  8
0
  6
BYBLOCK
 62
   180
100
AcDbTrace
 10
129.5376555344649
 20
106.0442182639396
 30
0.0
 11
129.5376555344649
 21
105.5442182639396
 31
0.0
 12
131.0376555344649
 22
105.7942182639396
 32
0.0
 13
131.0376555344649
 23
105.7942182639396
 33
0.0
  0
SOLID
  5
1F6F
330
1727
100
AcDbEntity
  8
0
  6
BYBLOCK
 62
   180
100
AcDbTrace
 10
135.537655534465
 20
106.0442182639396
 30
0.0
 11
135.537655534465
 21
105.5442182639396
 31
0.0
 12
134.037655534465
 22
105.7942182639396
 32
0.0
 13
134.037655534465
 23
105.7942182639396
 33
0.0
  0
MTEXT
  5
1F70
330
1727
100
AcDbEntity
  8
0
  6
BYBLOCK
 62
   180
100
AcDbMText
 10
139.6209888677984
 20
107.5442182639396
 30
0.0
 40
2.5
 41
0.0
 71
     5
 72
     1
  1
\A1;1.2
1001
ACAD
1000
MTEXTBEGIN
1070
    73
1070
     1
1070
    44
1040
1.0
1070
    74
1070
     0
1000
MTEXTEND
  0
POINT
  5
1F71
330
1727
100
AcDbEntity
  8
DEFPOINTS
  6
BYBLOCK
 62
     0
100
AcDbPoint
 10
131.0376555344649
 20
81.68200129551202
 30
0.0
  0
POINT
  5
1F72
330
1727
100
AcDbEntity
  8
DEFPOINTS
  6
BYBLOCK
 62
     0
100
AcDbPoint
 10
134.037655534465
 20
81.68200129551197
 30
0.0
  0
POINT
  5
1F73
330
1727
100
AcDbEntity
  8
DEFPOINTS
  6
BYBLOCK
 62
     0
100
AcDbPoint
 10
134.037655534465
 20
105.7942182639396
 30
0.0
  0
ENDBLK
  5
1F74
330
1727
100
AcDbEntity
  8
0
100
AcDbBlockEnd
  0
BLOCK
  5
1737
330
1736
100
AcDbEntity
  8
0
100
AcDbBlockBegin
  2
*D34
 70
     1
 10
0.0
 20
0.0
 30
0.0
  3
*D34
  1

  0
LINE
  5
1738
330
1736
100
AcDbEntity
  8
0
  6
BYBLOCK
 62
   180
100
AcDbLine
 10
126.0376555344647
 20
65.12952564251539
 30
0.0
 11
126.0376555344647
 21
56.28443347439008
 31
0.0
  0
LINE
  5
1739
330
1736
100
AcDbEntity
  8
0
  6
BYBLOCK
 62
   180
100
AcDbLine
 10
139.0376555344651
 20
65.12952564251539
 30
0.0
 11
139.0376555344651
 21
56.28443347439008
 31
0.0
  0
LINE
  5
173A
330
1736
100
AcDbEntity
  8
0
  6
BYBLOCK
 62
   180
100
AcDbLine
 10
127.5376555344647
 20
57.78443347439008
 30
0.0
 11
137.5376555344651
 21
57.78443347439008
 31
0.0
  0
SOLID
  5
173B
330
1736
100
AcDbEntity
  8
0
  6
BYBLOCK
 62
   180
100
AcDbTrace
 10
127.5376555344647
 20
58.03443347439008
 30
0.0
 11
127.5376555344647
 21
57.53443347439008
 31
0.0
 12
126.0376555344647
 22
57.78443347439008
 32
0.0
 13
126.0376555344647
 23
57.78443347439008
 33
0.0
  0
SOLID
  5
173C
330
1736
100
AcDbEntity
  8
0
  6
BYBLOCK
 62
   180
100
AcDbTrace
 10
137.5376555344651
 20
58.03443347439008
 30
0.0
 11
137.5376555344651
 21
57.53443347439008
 31
0.0
 12
139.0376555344651
 22
57.78443347439008
 32
0.0
 13
139.0376555344651
 23
57.78443347439008
 33
0.0
  0
MTEXT
  5
173D
330
1736
100
AcDbEntity
  8
0
  6
BYBLOCK
 62
   180
100
AcDbMText
 10
132.5376555344649
 20
59.53443347439009
 30
0.0
 40
2.5
 41
0.0
 71
     5
 72
     1
  1
\A1;5.2
1001
ACAD
1000
MTEXTBEGIN
1070
    73
1070
     1
1070
    44
1040
1.0
1070
    74
1070
     0
1000
MTEXTEND
  0
POINT
  5
173E
330
1736
100
AcDbEntity
  8
DEFPOINTS
  6
BYBLOCK
 62
     0
100
AcDbPoint
 10
126.0376555344647
 20
65.32952564251539
 30
0.0
  0
POINT
  5
173F
330
1736
100
AcDbEntity
  8
DEFPOINTS
  6
BYBLOCK
 62
     0
100
AcDbPoint
 10
139.0376555344651
 20
65.32952564251539
 30
0.0
  0
POINT
  5
1740
330
1736
100
AcDbEntity
  8
DEFPOINTS
  6
BYBLOCK
 62
     0
100
AcDbPoint
 10
139.0376555344651
 20
57.78443347439008
 30
0.0
  0
ENDBLK
  5
1741
330
1736
100
AcDbEntity
  8
0
100
AcDbBlockEnd
  0
ENDSEC
  0
SECTION
  2
ENTITIES
  0
POLYLINE
  5
1512
330
2
100
AcDbEntity
  8
0
 62
     0
100
AcDb2dPolyline
 66
     1
 10
0.0
 20
0.0
 30
0.0
 70
     1
  0
VERTEX
  5
2112
330
1512
100
AcDbEntity
  8
0
 62
     0
100
AcDbVertex
100
AcDb2dVertex
 10
186.3979615561311
 20
221.1547331809651
 30
0.0
 42
-0.311432810311793
  0
VERTEX
  5
2113
330
1512
100
AcDbEntity
  8
0
 62
     0
100
AcDbVertex
100
AcDb2dVertex
 10
186.1175264819547
 20
221.348167852778
 30
0.0
  0
VERTEX
  5
2114
330
1512
100
AcDbEntity
  8
0
 62
     0
100
AcDbVertex
100
AcDb2dVertex
 10
184.5144558613628
 20
225.5667747490725
 30
0.0
 42
-0.2883420821559936
  0
VERTEX
  5
2115
330
1512
100
AcDbEntity
  8
0
 62
     0
100
AcDbVertex
100
AcDb2dVertex
 10
184.7242400083568
 20
226.6107419716107
 30
0.0
  0
VERTEX
  5
2116
330
1512
100
AcDbEntity
  8
0
 62
     0
100
AcDbVertex
100
AcDb2dVertex
 10
186.1910316572436
 20
228.1547331809653
 30
0.0
  0
VERTEX
  5
2117
330
1512
100
AcDbEntity
  8
0
 62
     0
100
AcDbVertex
100
AcDb2dVertex
 10
186.1910316572436
 20
230.1547331809653
 30
0.0
  0
VERTEX
  5
2118
330
1512
100
AcDbEntity
  8
0
 62
     0
100
AcDbVertex
100
AcDb2dVertex
 10
164.9090511348463
 20
230.1547331809654
 30
0.0
 42
0.4860244829654535
  0
VERTEX
  5
2119
330
1512
100
AcDbEntity
  8
0
 62
     0
100
AcDbVertex
100
AcDb2dVertex
 10
163.45162549691
 20
228.299894471288
 30
0.0
 42
-0.2816087743963942
  0
VERTEX
  5
211A
330
1512
100
AcDbEntity
  8
0
 62
     0
100
AcDbVertex
100
AcDb2dVertex
 10
162.4481745143864
 20
225.1692220690007
 30
0.0
 42
-0.8471270883829442
  0
VERTEX
  5
211B
330
1512
100
AcDbEntity
  8
0
 62
     0
100
AcDbVertex
100
AcDb2dVertex
 10
161.6645010449986
 20
226.0779882068919
 30
0.0
 42
2.69087345720506
  0
VERTEX
  5
211C
330
1512
100
AcDbEntity
  8
0
 62
     0
100
AcDbVertex
100
AcDb2dVertex
 10
159.1175622694884
 20
226.0779882068919
 30
0.0
 42
-0.8471270883830559
  0
VERTEX
  5
211D
330
1512
100
AcDbEntity
  8
0
 62
     0
100
AcDbVertex
100
AcDb2dVertex
 10
158.3338888001007
 20
225.1692220690007
 30
0.0
 42
-0.2351292073979802
  0
VERTEX
  5
211E
330
1512
100
AcDbEntity
  8
0
 62
     0
100
AcDbVertex
100
AcDb2dVertex
 10
157.2475941643688
 20
227.757958987417
 30
0.0
 42
0.4332519671235986
  0
VERTEX
  5
211F
330
1512
100
AcDbEntity
  8
0
 62
     0
100
AcDbVertex
100
AcDb2dVertex
 10
155.7507191677632
 20
229.3547331809654
 30
0.0
  0
VERTEX
  5
2120
330
1512
100
AcDbEntity
  8
0
 62
     0
100
AcDbVertex
100
AcDb2dVertex
 10
152.3852419909721
 20
229.3547331809653
 30
0.0
 42
-0.1771925827035535
  0
VERTEX
  5
2121
330
1512
100
AcDbEntity
  8
0
 62
     0
100
AcDbVertex
100
AcDb2dVertex
 10
152.1916351968197
 20
229.4255685910783
 30
0.0
 42
0.3658725429714934
  0
VERTEX
  5
2122
330
1512
100
AcDbEntity
  8
0
 62
     0
100
AcDbVertex
100
AcDb2dVertex
 10
148.1904281176688
 20
229.4255685910766
 30
0.0
 42
-0.1771925827035819
  0
VERTEX
  5
2123
330
1512
100
AcDbEntity
  8
0
 62
     0
100
AcDbVertex
100
AcDb2dVertex
 10
147.9968213235149
 20
229.3547331809652
 30
0.0
  0
VERTEX
  5
2124
330
1512
100
AcDbEntity
  8
0
 62
     0
100
AcDbVertex
100
AcDb2dVertex
 10
146.4968213235149
 20
229.3547331809652
 30
0.0
  0
VERTEX
  5
2125
330
1512
100
AcDbEntity
  8
0
 62
     0
100
AcDbVertex
100
AcDb2dVertex
 10
146.496821323515
 20
229.8547331809653
 30
0.0
  0
VERTEX
  5
2126
330
1512
100
AcDbEntity
  8
0
 62
     0
100
AcDbVertex
100
AcDb2dVertex
 10
142.9910316572435
 20
229.8547331809653
 30
0.0
  0
VERTEX
  5
2127
330
1512
100
AcDbEntity
  8
0
 62
     0
100
AcDbVertex
100
AcDb2dVertex
 10
142.9910316572435
 20
226.9047331809654
 30
0.0
  0
VERTEX
  5
2128
330
1512
100
AcDbEntity
  8
0
 62
     0
100
AcDbVertex
100
AcDb2dVertex
 10
146.8213178757035
 20
226.9047331809654
 30
0.0
 42
-0.3756103398964385
  0
VERTEX
  5
2129
330
1512
100
AcDbEntity
  8
0
 62
     0
100
AcDbVertex
100
AcDb2dVertex
 10
147.1186455623098
 20
226.6446862381372
 30
0.0
 42
0.1944936388663131
  0
VERTEX
  5
212A
330
1512
100
AcDbEntity
  8
0
 62
     0
100
AcDbVertex
100
AcDb2dVertex
 10
148.2687927152153
 20
224.62545771847
 30
0.0
 42
-1.000000000000047
  0
VERTEX
  5
212B
330
1512
100
AcDbEntity
  8
0
 62
     0
100
AcDbVertex
100
AcDb2dVertex
 10
147.5247002215269
 20
223.6840086434604
 30
0.0
 42
-0.1465138032023306
  0
VERTEX
  5
212C
330
1512
100
AcDbEntity
  8
0
 62
     0
100
AcDbVertex
100
AcDb2dVertex
 10
146.1093740768994
 20
225.7047331809654
 30
0.0
  0
VERTEX
  5
212D
330
1512
100
AcDbEntity
  8
0
 62
     0
100
AcDbVertex
100
AcDb2dVertex
 10
138.6910316572435
 20
225.7047331809654
 30
0.0
 42
-0.4142135623731229
  0
VERTEX
  5
212E
330
1512
100
AcDbEntity
  8
0
 62
     0
100
AcDbVertex
100
AcDb2dVertex
 10
138.3910316572436
 20
226.0047331809653
 30
0.0
  0
VERTEX
  5
212F
330
1512
100
AcDbEntity
  8
0
 62
     0
100
AcDbVertex
100
AcDb2dVertex
 10
138.3910316572436
 20
226.6047331809654
 30
0.0
 42
-0.4142135623730951
  0
VERTEX
  5
2130
330
1512
100
AcDbEntity
  8
0
 62
     0
100
AcDbVertex
100
AcDb2dVertex
 10
138.6910316572435
 20
226.9047331809654
 30
0.0
  0
VERTEX
  5
2131
330
1512
100
AcDbEntity
  8
0
 62
     0
100
AcDbVertex
100
AcDb2dVertex
 10
141.7910316572436
 20
226.9047331809654
 30
0.0
  0
VERTEX
  5
2132
330
1512
100
AcDbEntity
  8
0
 62
     0
100
AcDbVertex
100
AcDb2dVertex
 10
141.7910316572436
 20
230.1547331809653
 30
0.0
  0
VERTEX
  5
2133
330
1512
100
AcDbEntity
  8
0
 62
     0
100
AcDbVertex
100
AcDb2dVertex
 10
130.3910316572436
 20
230.1547331809653
 30
0.0
  0
VERTEX
  5
2134
330
1512
100
AcDbEntity
  8
0
 62
     0
100
AcDbVertex
100
AcDb2dVertex
 10
130.3910316572436
 20
226.2047331809654
 30
0.0
  0
VERTEX
  5
2135
330
1512
100
AcDbEntity
  8
0
 62
     0
100
AcDbVertex
100
AcDb2dVertex
 10
131.3910316572436
 20
226.2047331809654
 30
0.0
 42
-0.4142135623730951
  0
VERTEX
  5
2136
330
1512
100
AcDbEntity
  8
0
 62
     0
100
AcDbVertex
100
AcDb2dVertex
 10
131.6910316572435
 20
225.9047331809654
 30
0.0
  0
VERTEX
  5
2137
330
1512
100
AcDbEntity
  8
0
 62
     0
100
AcDbVertex
100
AcDb2dVertex
 10
131.6910316572435
 20
225.3047331809653
 30
0.0
 42
-0.4142135623730951
  0
VERTEX
  5
2138
330
1512
100
AcDbEntity
  8
0
 62
     0
100
AcDbVertex
100
AcDb2dVertex
 10
131.3910316572436
 20
225.0047331809653
 30
0.0
  0
VERTEX
  5
2139
330
1512
100
AcDbEntity
  8
0
 62
     0
100
AcDbVertex
100
AcDb2dVertex
 10
129.4910316572435
 20
225.0047331809653
 30
0.0
 42
-0.4142135623731229
  0
VERTEX
  5
213A
330
1512
100
AcDbEntity
  8
0
 62
     0
100
AcDbVertex
100
AcDb2dVertex
 10
129.1910316572435
 20
225.3047331809653
 30
0.0
  0
VERTEX
  5
213B
330
1512
100
AcDbEntity
  8
0
 62
     0
100
AcDbVertex
100
AcDb2dVertex
 10
129.1910316572435
 20
236.2047331809655
 30
0.0
 42
-0.4142135623731229
  0
VERTEX
  5
213C
330
1512
100
AcDbEntity
  8
0
 62
     0
100
AcDbVertex
100
AcDb2dVertex
 10
129.4910316572435
 20
236.5047331809654
 30
0.0
  0
VERTEX
  5
213D
330
1512
100
AcDbEntity
  8
0
 62
     0
100
AcDbVertex
100
AcDb2dVertex
 10
131.3910316572436
 20
236.5047331809655
 30
0.0
 42
-0.4142135623730951
  0
VERTEX
  5
213E
330
1512
100
AcDbEntity
  8
0
 62
     0
100
AcDbVertex
100
AcDb2dVertex
 10
131.6910316572435
 20
236.2047331809655
 30
0.0
  0
VERTEX
  5
213F
330
1512
100
AcDbEntity
  8
0
 62
     0
100
AcDbVertex
100
AcDb2dVertex
 10
131.6910316572435
 20
235.6047331809654
 30
0.0
 42
-0.4142135623730951
  0
VERTEX
  5
2140
330
1512
100
AcDbEntity
  8
0
 62
     0
100
AcDbVertex
100
AcDb2dVertex
 10
131.3910316572436
 20
235.3047331809654
 30
0.0
  0
VERTEX
  5
2141
330
1512
100
AcDbEntity
  8
0
 62
     0
100
AcDbVertex
100
AcDb2dVertex
 10
130.3910316572436
 20
235.3047331809654
 30
0.0
  0
VERTEX
  5
2142
330
1512
100
AcDbEntity
  8
0
 62
     0
100
AcDbVertex
100
AcDb2dVertex
 10
130.3910316572436
 20
231.3547331809654
 30
0.0
  0
VERTEX
  5
2143
330
1512
100
AcDbEntity
  8
0
 62
     0
100
AcDbVertex
100
AcDb2dVertex
 10
141.7910316572436
 20
231.3547331809654
 30
0.0
  0
VERTEX
  5
2144
330
1512
100
AcDbEntity
  8
0
 62
     0
100
AcDbVertex
100
AcDb2dVertex
 10
141.7910316572436
 20
234.6047331809653
 30
0.0
  0
VERTEX
  5
2145
330
1512
100
AcDbEntity
  8
0
 62
     0
100
AcDbVertex
100
AcDb2dVertex
 10
138.6910316572435
 20
234.6047331809653
 30
0.0
 42
-0.4142135623730951
  0
VERTEX
  5
2146
330
1512
100
AcDbEntity
  8
0
 62
     0
100
AcDbVertex
100
AcDb2dVertex
 10
138.3910316572436
 20
234.9047331809653
 30
0.0
  0
VERTEX
  5
2147
330
1512
100
AcDbEntity
  8
0
 62
     0
100
AcDbVertex
100
AcDb2dVertex
 10
138.3910316572435
 20
235.5047331809654
 30
0.0
 42
-0.4142135623731229
  0
VERTEX
  5
2148
330
1512
100
AcDbEntity
  8
0
 62
     0
100
AcDbVertex
100
AcDb2dVertex
 10
138.6910316572435
 20
235.8047331809653
 30
0.0
  0
VERTEX
  5
2149
330
1512
100
AcDbEntity
  8
0
 62
     0
100
AcDbVertex
100
AcDb2dVertex
 10
146.1093740768994
 20
235.8047331809653
 30
0.0
 42
-0.1465138032023307
  0
VERTEX
  5
214A
330
1512
100
AcDbEntity
  8
0
 62
     0
100
AcDbVertex
100
AcDb2dVertex
 10
147.5247002215269
 20
237.8254577184703
 30
0.0
 42
-1.000000000000029
  0
VERTEX
  5
214B
330
1512
100
AcDbEntity
  8
0
 62
     0
100
AcDbVertex
100
AcDb2dVertex
 10
148.2687927152153
 20
236.8840086434607
 30
0.0
 42
0.1944936388663132
  0
VERTEX
  5
214C
330
1512
100
AcDbEntity
  8
0
 62
     0
100
AcDbVertex
100
AcDb2dVertex
 10
147.1186455623098
 20
234.8647801237935
 30
0.0
 42
-0.3756103398964386
  0
VERTEX
  5
214D
330
1512
100
AcDbEntity
  8
0
 62
     0
100
AcDbVertex
100
AcDb2dVertex
 10
146.8213178757035
 20
234.6047331809653
 30
0.0
  0
VERTEX
  5
214E
330
1512
100
AcDbEntity
  8
0
 62
     0
100
AcDbVertex
100
AcDb2dVertex
 10
142.9910316572435
 20
234.6047331809653
 30
0.0
  0
VERTEX
  5
214F
330
1512
100
AcDbEntity
  8
0
 62
     0
100
AcDbVertex
100
AcDb2dVertex
 10
142.9910316572435
 20
231.6547331809654
 30
0.0
  0
VERTEX
  5
2150
330
1512
100
AcDbEntity
  8
0
 62
     0
100
AcDbVertex
100
AcDb2dVertex
 10
146.496821323515
 20
231.6547331809654
 30
0.0
  0
VERTEX
  5
2151
330
1512
100
AcDbEntity
  8
0
 62
     0
100
AcDbVertex
100
AcDb2dVertex
 10
146.496821323515
 20
232.1547331809654
 30
0.0
  0
VERTEX
  5
2152
330
1512
100
AcDbEntity
  8
0
 62
     0
100
AcDbVertex
100
AcDb2dVertex
 10
147.9968213235149
 20
232.1547331809654
 30
0.0
 42
-0.177192582703582
  0
VERTEX
  5
2153
330
1512
100
AcDbEntity
  8
0
 62
     0
100
AcDbVertex
100
AcDb2dVertex
 10
148.1904281176688
 20
232.0838977708541
 30
0.0
 42
0.3658725429714935
  0
VERTEX
  5
2154
330
1512
100
AcDbEntity
  8
0
 62
     0
100
AcDbVertex
100
AcDb2dVertex
 10
152.1916351968197
 20
232.0838977708524
 30
0.0
 42
-0.1771925827035536
  0
VERTEX
  5
2155
330
1512
100
AcDbEntity
  8
0
 62
     0
100
AcDbVertex
100
AcDb2dVertex
 10
152.3852419909721
 20
232.1547331809654
 30
0.0
  0
VERTEX
  5
2156
330
1512
100
AcDbEntity
  8
0
 62
     0
100
AcDbVertex
100
AcDb2dVertex
 10
155.7507191677664
 20
232.1547331809653
 30
0.0
 42
0.4332519671236053
  0
VERTEX
  5
2157
330
1512
100
AcDbEntity
  8
0
 62
     0
100
AcDbVertex
100
AcDb2dVertex
 10
157.247594164372
 20
233.7515073745138
 30
0.0
 42
-0.2351292073979898
  0
VERTEX
  5
2158
330
1512
100
AcDbEntity
  8
0
 62
     0
100
AcDbVertex
100
AcDb2dVertex
 10
158.3338888001006
 20
236.3402442929299
 30
0.0
 42
-0.8471270883830211
  0
VERTEX
  5
2159
330
1512
100
AcDbEntity
  8
0
 62
     0
100
AcDbVertex
100
AcDb2dVertex
 10
159.1175622694885
 20
235.4314781550387
 30
0.0
 42
2.69087345720506
  0
VERTEX
  5
215A
330
1512
100
AcDbEntity
  8
0
 62
     0
100
AcDbVertex
100
AcDb2dVertex
 10
161.6645010449986
 20
235.4314781550387
 30
0.0
 42
-0.8471270883829442
  0
VERTEX
  5
215B
330
1512
100
AcDbEntity
  8
0
 62
     0
100
AcDbVertex
100
AcDb2dVertex
 10
162.4481745143864
 20
236.3402442929299
 30
0.0
 42
-0.2816087743963889
  0
VERTEX
  5
215C
330
1512
100
AcDbEntity
  8
0
 62
     0
100
AcDbVertex
100
AcDb2dVertex
 10
163.4516254969101
 20
233.2095718906427
 30
0.0
 42
0.486024482965448
  0
VERTEX
  5
215D
330
1512
100
AcDbEntity
  8
0
 62
     0
100
AcDbVertex
100
AcDb2dVertex
 10
164.9090511348463
 20
231.3547331809654
 30
0.0
  0
VERTEX
  5
215E
330
1512
100
AcDbEntity
  8
0
 62
     0
100
AcDbVertex
100
AcDb2dVertex
 10
186.1910316572436
 20
231.3547331809654
 30
0.0
  0
VERTEX
  5
215F
330
1512
100
AcDbEntity
  8
0
 62
     0
100
AcDbVertex
100
AcDb2dVertex
 10
186.1910316572436
 20
233.3547331809654
 30
0.0
  0
VERTEX
  5
2160
330
1512
100
AcDbEntity
  8
0
 62
     0
100
AcDbVertex
100
AcDb2dVertex
 10
184.7242400083567
 20
234.89872439032
 30
0.0
 42
-0.2883420821559948
  0
VERTEX
  5
2161
330
1512
100
AcDbEntity
  8
0
 62
     0
100
AcDbVertex
100
AcDb2dVertex
 10
184.5144558613628
 20
235.9426916128583
 30
0.0
  0
VERTEX
  5
2162
330
1512
100
AcDbEntity
  8
0
 62
     0
100
AcDbVertex
100
AcDb2dVertex
 10
186.1175264819547
 20
240.1612985091527
 30
0.0
 42
-0.311432810311793
  0
VERTEX
  5
2163
330
1512
100
AcDbEntity
  8
0
 62
     0
100
AcDbVertex
100
AcDb2dVertex
 10
186.3979615561311
 20
240.3547331809655
 30
0.0
  0
VERTEX
  5
2164
330
1512
100
AcDbEntity
  8
0
 62
     0
100
AcDbVertex
100
AcDb2dVertex
 10
187.0910316572436
 20
240.3547331809655
 30
0.0
 42
-0.4142135623730951
  0
VERTEX
  5
2165
330
1512
100
AcDbEntity
  8
0
 62
     0
100
AcDbVertex
100
AcDb2dVertex
 10
187.3910316572435
 20
240.0547331809655
 30
0.0
  0
VERTEX
  5
2166
330
1512
100
AcDbEntity
  8
0
 62
     0
100
AcDbVertex
100
AcDb2dVertex
 10
187.3910316572435
 20
230.7547331809653
 30
0.0
  0
VERTEX
  5
2167
330
1512
100
AcDbEntity
  8
0
 62
     0
100
AcDbVertex
100
AcDb2dVertex
 10
187.3910316572435
 20
221.4547331809652
 30
0.0
 42
-0.4142135623731506
  0
VERTEX
  5
2168
330
1512
100
AcDbEntity
  8
0
 62
     0
100
AcDbVertex
100
AcDb2dVertex
 10
187.0910316572436
 20
221.1547331809653
 30
0.0
  0
SEQEND
  5
2169
330
1512
100
AcDbEntity
  8
0
 62
     0
  0
ENDSEC
  0
SECTION
  2
OBJECTS
  0
DICTIONARY
  5
44D
330
0
100
AcDbDictionary
  3
ACAD_GROUP
350
44B
  3
ACAD_LAYOUT
350
200F
  3
ACAD_MLINESTYLE
350
44C
  3
ACAD_PLOTSETTINGS
350
2010
1001
ACAD
1000
TREAT_AS_HARD
1070
     0
  0
DICTIONARY
  5
210E
330
2
100
AcDbDictionary
  3
ACAD_LAYOUTSELFREF
350
210F
  0
DICTIONARY
  5
2110
330
E3
100
AcDbDictionary
  3
ACAD_LAYOUTSELFREF
350
2111
  0
DICTIONARY
  5
44B
102
{ACAD_REACTORS
330
44D
102
}
330
44D
100
AcDbDictionary
1001
ACAD
1000
TREAT_AS_HARD
1070
     0
  0
DICTIONARY
  5
200F
102
{ACAD_REACTORS
330
44D
102
}
330
44D
100
AcDbDictionary
1001
ACAD
1000
TREAT_AS_HARD
1070
     0
  0
DICTIONARY
  5
44C
102
{ACAD_REACTORS
330
44D
102
}
330
44D
100
AcDbDictionary
  3
STANDARD
350
44E
1001
ACAD
1000
TREAT_AS_HARD
1070
     0
  0
DICTIONARY
  5
2010
102
{ACAD_REACTORS
330
44D
102
}
330
44D
100
AcDbDictionary
1001
ACAD
1000
TREAT_AS_HARD
1070
     0
  0
XRECORD
  5
210F
102
{ACAD_REACTORS
330
210E
102
}
330
210E
100
AcDbXrecord
340
2
  0
XRECORD
  5
2111
102
{ACAD_REACTORS
330
2110
102
}
330
2110
100
AcDbXrecord
340
E3
  0
MLINESTYLE
  5
44E
102
{ACAD_REACTORS
330
44C
102
}
330
44C
100
AcDbMlineStyle
  2
STANDARD
 70
     0
  3

 62
     0
 51
90.0
 52
90.0
 71
     2
 49
0.5
 62
   256
  6
BYLAYER
 49
-0.5
 62
   256
  6
BYLAYER
  0
ENDSEC
  0
EOF
