  0
SECTION
  2
HEADER
  9
$ACADVER
  1
AC1012
  9
$DWGCODEPAGE
  3
ANSI_1252
  9
$INSBASE
 10
0.0
 20
0.0
 30
0.0
  9
$EXTMIN
 10
149.7381303121308
 20
214.8924216630705
 30
-0.0000000000000053
  9
$EXTMAX
 10
173.2769222173546
 20
235.2144882315379
 30
0.0000000000000099
  9
$LIMMIN
 10
0.0
 20
0.0
  9
$LIMMAX
 10
12.0
 20
9.0
  9
$ORTHOMODE
 70
     1
  9
$REGENMODE
 70
     1
  9
$FILLMODE
 70
     1
  9
$QTEXTMODE
 70
     0
  9
$MIRRTEXT
 70
     1
  9
$DRAGMODE
 70
     2
  9
$LTSCALE
 40
15.0
  9
$OSMODE
 70
    37
  9
$ATTMODE
 70
     1
  9
$TEXTSIZE
 40
0.2
  9
$TRACEWID
 40
0.05
  9
$TEXTSTYLE
  7
STANDARD
  9
$CLAYER
  8
0
  9
$CELTYPE
  6
BYLAYER
  9
$CECOLOR
 62
     0
  9
$CELTSCALE
 40
1.0
  9
$DELOBJ
 70
     1
  9
$DISPSILH
 70
     0
  9
$DIMSCALE
 40
0.0
  9
$DIMASZ
 40
2.0
  9
$DIMEXO
 40
0.625
  9
$DIMDLI
 40
0.38
  9
$DIMRND
 40
0.0
  9
$DIMDLE
 40
0.0
  9
$DIMEXE
 40
0.18
  9
$DIMTP
 40
0.0135
  9
$DIMTM
 40
0.0135
  9
$DIMTXT
 40
0.18
  9
$DIMCEN
 40
0.137
  9
$DIMTSZ
 40
0.0
  9
$DIMTOL
 70
     0
  9
$DIMLIM
 70
     0
  9
$DIMTIH
 70
     0
  9
$DIMTOH
 70
     0
  9
$DIMSE1
 70
     0
  9
$DIMSE2
 70
     0
  9
$DIMTAD
 70
     1
  9
$DIMZIN
 70
     8
  9
$DIMBLK
  1

  9
$DIMASO
 70
     1
  9
$DIMSHO
 70
     1
  9
$DIMPOST
  1

  9
$DIMAPOST
  1

  9
$DIMALT
 70
     0
  9
$DIMALTD
 70
     2
  9
$DIMALTF
 40
25.4
  9
$DIMLFAC
 40
0.333333333333333
  9
$DIMTOFL
 70
     0
  9
$DIMTVP
 40
0.0
  9
$DIMTIX
 70
     0
  9
$DIMSOXD
 70
     0
  9
$DIMSAH
 70
     0
  9
$DIMBLK1
  1

  9
$DIMBLK2
  1

  9
$DIMSTYLE
  2
\U+0130SMAIL_1_5___1
  9
$DIMCLRD
 70
     5
  9
$DIMCLRE
 70
     5
  9
$DIMCLRT
 70
     5
  9
$DIMTFAC
 40
1.0
  9
$DIMGAP
 40
0.5
  9
$DIMJUST
 70
     0
  9
$DIMSD1
 70
     0
  9
$DIMSD2
 70
     0
  9
$DIMTOLJ
 70
     1
  9
$DIMTZIN
 70
     0
  9
$DIMALTZ
 70
     0
  9
$DIMALTTZ
 70
     0
  9
$DIMFIT
 70
     3
  9
$DIMUPT
 70
     0
  9
$DIMUNIT
 70
     2
  9
$DIMDEC
 70
     1
  9
$DIMTDEC
 70
     1
  9
$DIMALTU
 70
     2
  9
$DIMALTTD
 70
     2
  9
$DIMTXSTY
  7
ROMANT
  9
$DIMAUNIT
 70
     0
  9
$LUNITS
 70
     2
  9
$LUPREC
 70
     4
  9
$SKETCHINC
 40
0.1
  9
$FILLETRAD
 40
0.0
  9
$AUNITS
 70
     0
  9
$AUPREC
 70
     0
  9
$MENU
  1
.
  9
$ELEVATION
 40
0.0
  9
$PELEVATION
 40
0.0
  9
$THICKNESS
 40
0.0
  9
$LIMCHECK
 70
     0
  9
$BLIPMODE
 70
     0
  9
$CHAMFERA
 40
0.0
  9
$CHAMFERB
 40
0.0
  9
$CHAMFERC
 40
0.0
  9
$CHAMFERD
 40
0.0
  9
$SKPOLY
 70
     0
  9
$TDCREATE
 40
2452396.589542465
  9
$TDUPDATE
 40
2453544.565802014
  9
$TDINDWG
 40
0.8879940509
  9
$TDUSRTIMER
 40
0.8879939352
  9
$USRTIMER
 70
     1
  9
$ANGBASE
 50
0.0
  9
$ANGDIR
 70
     0
  9
$PDMODE
 70
     0
  9
$PDSIZE
 40
0.0
  9
$PLINEWID
 40
0.0
  9
$COORDS
 70
     1
  9
$SPLFRAME
 70
     0
  9
$SPLINETYPE
 70
     6
  9
$SPLINESEGS
 70
     8
  9
$ATTDIA
 70
     0
  9
$ATTREQ
 70
     1
  9
$HANDLING
 70
-16383
  9
$HANDSEED
  5
4E1E
  9
$SURFTAB1
 70
     6
  9
$SURFTAB2
 70
     6
  9
$SURFTYPE
 70
     6
  9
$SURFU
 70
     6
  9
$SURFV
 70
     6
  9
$UCSNAME
  2

  9
$UCSORG
 10
0.0
 20
0.0
 30
0.0
  9
$UCSXDIR
 10
1.0
 20
0.0
 30
0.0
  9
$UCSYDIR
 10
0.0
 20
1.0
 30
0.0
  9
$PUCSNAME
  2

  9
$PUCSORG
 10
0.0
 20
0.0
 30
0.0
  9
$PUCSXDIR
 10
1.0
 20
0.0
 30
0.0
  9
$PUCSYDIR
 10
0.0
 20
1.0
 30
0.0
  9
$USERI1
 70
     0
  9
$USERI2
 70
     0
  9
$USERI3
 70
     0
  9
$USERI4
 70
     0
  9
$USERI5
 70
     0
  9
$USERR1
 40
0.0
  9
$USERR2
 40
0.0
  9
$USERR3
 40
0.0
  9
$USERR4
 40
0.0
  9
$USERR5
 40
0.0
  9
$WORLDVIEW
 70
     1
  9
$SHADEDGE
 70
     3
  9
$SHADEDIF
 70
    70
  9
$TILEMODE
 70
     1
  9
$MAXACTVP
 70
    64
  9
$PINSBASE
 10
0.0
 20
0.0
 30
0.0
  9
$PLIMCHECK
 70
     0
  9
$PEXTMIN
 10
1.000000000000000E+20
 20
1.000000000000000E+20
 30
1.000000000000000E+20
  9
$PEXTMAX
 10
-1.000000000000000E+20
 20
-1.000000000000000E+20
 30
-1.000000000000000E+20
  9
$PLIMMIN
 10
0.0
 20
0.0
  9
$PLIMMAX
 10
12.0
 20
9.0
  9
$UNITMODE
 70
     0
  9
$VISRETAIN
 70
     1
  9
$PLINEGEN
 70
     0
  9
$PSLTSCALE
 70
     1
  9
$TREEDEPTH
 70
  3020
  9
$PICKSTYLE
 70
     0
  9
$CMLSTYLE
  2
STANDARD
  9
$CMLJUST
 70
     0
  9
$CMLSCALE
 40
1.0
  9
$SAVEIMAGES
 70
     1
  0
ENDSEC
  0
SECTION
  2
CLASSES
  0
CLASS
  1
ACDBDICTIONARYWDFLT
  2
AcDbDictionaryWithDefault
  3
AutoCAD 2000
 90
    32768
280
     0
281
     0
  0
CLASS
  1
ACDBPLACEHOLDER
  2
AcDbPlaceHolder
  3
AutoCAD 2000
 90
    32768
280
     0
281
     0
  0
CLASS
  1
LAYOUT
  2
AcDbLayout
  3
AutoCAD 2000
 90
    32768
280
     0
281
     0
  0
CLASS
  1
DICTIONARYVAR
  2
AcDbDictionaryVar
  3
AutoCAD 2000
 90
    32768
280
     0
281
     0
  0
CLASS
  1
LONG_TRANSACTION
  2
AcDbLongTransaction
  3
AutoCAD 2000
 90
    32768
280
     0
281
     0
  0
CLASS
  1
LWPOLYLINE
  2
AcDbPolyline
  3
AutoCAD 2000
 90
    32768
280
     0
281
     1
  0
CLASS
  1
HATCH
  2
AcDbHatch
  3
AutoCAD 2000
 90
    32768
280
     0
281
     1
  0
CLASS
  1
XRECORD
  2
AcDbXrecord
  3
AutoCAD 2000
 90
    32768
280
     0
281
     0
  0
ENDSEC
  0
SECTION
  2
TABLES
  0
TABLE
  2
VPORT
  5
1A
330
0
100
AcDbSymbolTable
 70
     2
  0
VPORT
  5
4E03
330
1A
100
AcDbSymbolTableRecord
100
AcDbViewportTableRecord
  2
*ACTIVE
 70
     0
 10
0.0
 20
0.0
 11
1.0
 21
1.0
 12
161.5075262647427
 22
225.0534549473042
 13
0.0
 23
0.0
 14
1.0
 24
1.0
 15
0.0
 25
0.0
 16
0.0
 26
0.0
 36
1.0
 17
0.0
 27
0.0
 37
0.0
 40
20.54828623342257
 41
1.762081784386617
 42
50.0
 43
0.0
 44
0.0
 50
0.0
 51
0.0
 71
     0
 72
   100
 73
     1
 74
     1
 75
     0
 76
     1
 77
     0
 78
     0
  0
ENDTAB
  0
TABLE
  2
LTYPE
  5
15
330
0
100
AcDbSymbolTable
 70
     2
  0
LTYPE
  5
16
330
15
100
AcDbSymbolTableRecord
100
AcDbLinetypeTableRecord
  2
BYBLOCK
 70
     0
  3

 72
    65
 73
     0
 40
0.0
  0
LTYPE
  5
17
330
15
100
AcDbSymbolTableRecord
100
AcDbLinetypeTableRecord
  2
BYLAYER
 70
     0
  3

 72
    65
 73
     0
 40
0.0
  0
LTYPE
  5
8
330
15
100
AcDbSymbolTableRecord
100
AcDbLinetypeTableRecord
  2
CONTINUOUS
 70
     0
  3
CONTINUOUS
 72
    65
 73
     0
 40
0.0
  0
LTYPE
  5
4DF9
330
15
100
AcDbSymbolTableRecord
100
AcDbLinetypeTableRecord
  2
HIDDEN
 70
     0
  3
Hidden __ __ __ __ __ __ __ __ __ __ __ __ __ _
 72
    65
 73
     2
 40
9.524999999999998
 49
6.349999999999999
 74
     0
 49
-3.174999999999999
 74
     0
  0
ENDTAB
  0
TABLE
  2
LAYER
  5
10
330
0
100
AcDbSymbolTable
 70
     4
  0
LAYER
  5
4
330
10
100
AcDbSymbolTableRecord
100
AcDbLayerTableRecord
  2
0
 70
     0
 62
     7
  6
CONTINUOUS
  0
LAYER
  5
2D
330
10
100
AcDbSymbolTableRecord
100
AcDbLayerTableRecord
  2
DEFPOINTS
 70
     0
 62
     7
  6
CONTINUOUS
  0
LAYER
  5
42F
330
10
100
AcDbSymbolTableRecord
100
AcDbLayerTableRecord
  2
ANA
 70
     0
 62
   220
  6
CONTINUOUS
  0
LAYER
  5
432
330
10
100
AcDbSymbolTableRecord
100
AcDbLayerTableRecord
  2
ANTET
 70
     0
 62
   220
  6
CONTINUOUS
  0
ENDTAB
  0
TABLE
  2
STYLE
  5
11
330
0
100
AcDbSymbolTable
 70
     2
  0
STYLE
  5
12
330
11
100
AcDbSymbolTableRecord
100
AcDbTextStyleTableRecord
  2
STANDARD
 70
     0
 40
0.0
 41
1.0
 50
0.0
 71
     0
 42
0.2
  3
TIMES.TTF
  4

1001
ACAD
1000
Times New Roman Tur
1071
    41490
  0
STYLE
  5
436
330
11
100
AcDbSymbolTableRecord
100
AcDbTextStyleTableRecord
  2
ROMANT
 70
     0
 40
2.5
 41
1.0
 50
15.0
 71
     0
 42
2.5
  3
C:\ACADR13\COMMON\FONTS\romant.shx
  4

  0
ENDTAB
  0
TABLE
  2
VIEW
  5
18
330
0
100
AcDbSymbolTable
 70
     0
  0
ENDTAB
  0
TABLE
  2
UCS
  5
19
330
0
100
AcDbSymbolTable
 70
     0
  0
ENDTAB
  0
TABLE
  2
APPID
  5
1C
330
0
100
AcDbSymbolTable
 70
     1
  0
APPID
  5
13
330
1C
100
AcDbSymbolTableRecord
100
AcDbRegAppTableRecord
  2
ACAD
 70
     0
  0
ENDTAB
  0
TABLE
  2
DIMSTYLE
  5
1D
330
0
100
AcDbSymbolTable
 70
     2
  0
DIMSTYLE
105
439
330
1D
100
AcDbSymbolTableRecord
100
AcDbDimStyleTableRecord
  2
STANDARD
 70
     0
  3

  4

  5

  6

  7

 40
1.0
 41
0.18
 42
0.0625
 43
0.38
 44
0.18
 45
0.0
 46
0.0
 47
0.0
 48
0.0
140
0.18
141
0.09
142
0.0
143
25.4
144
1.0
145
0.0
146
1.0
147
0.09
 71
     0
 72
     0
 73
     1
 74
     1
 75
     0
 76
     0
 77
     0
 78
     0
170
     0
171
     2
172
     0
173
     0
174
     0
175
     0
176
     0
177
     0
178
     0
270
     2
271
     4
272
     4
273
     2
274
     2
340
12
275
     0
280
     0
281
     0
282
     0
283
     1
284
     0
285
     0
286
     0
287
     3
288
     0
  0
DIMSTYLE
105
1105
330
1D
100
AcDbSymbolTableRecord
100
AcDbDimStyleTableRecord
  2
\U+0130SMAIL_1_5___1
 70
     0
  3

  4

  5

  6

  7

 40
0.0
 41
2.0
 42
0.625
 43
0.38
 44
0.18
 45
0.0
 46
0.0
 47
0.0135
 48
0.0135
140
0.18
141
0.137
142
0.0
143
25.4
144
0.333333333333333
145
0.0
146
1.0
147
0.5
 71
     0
 72
     0
 73
     0
 74
     0
 75
     0
 76
     0
 77
     1
 78
     8
170
     0
171
     2
172
     0
173
     0
174
     0
175
     0
176
     5
177
     5
178
     5
270
     2
271
     1
272
     1
273
     2
274
     2
340
436
275
     0
280
     0
281
     0
282
     0
283
     1
284
     0
285
     0
286
     0
287
     3
288
     0
  0
ENDTAB
  0
TABLE
  2
BLOCK_RECORD
  5
1
330
0
100
AcDbSymbolTable
 70
    15
  0
BLOCK_RECORD
  5
2
102
{ACAD_XDICTIONARY
360
4E04
102
}
330
1
100
AcDbSymbolTableRecord
100
AcDbBlockTableRecord
  2
*MODEL_SPACE
  0
BLOCK_RECORD
  5
C
102
{ACAD_XDICTIONARY
360
4E06
102
}
330
1
100
AcDbSymbolTableRecord
100
AcDbBlockTableRecord
  2
*PAPER_SPACE
  0
BLOCK_RECORD
  5
181
330
1
100
AcDbSymbolTableRecord
100
AcDbBlockTableRecord
  2
*X0
  0
BLOCK_RECORD
  5
4C36
330
1
100
AcDbSymbolTableRecord
100
AcDbBlockTableRecord
  2
*D1
  0
BLOCK_RECORD
  5
4C43
330
1
100
AcDbSymbolTableRecord
100
AcDbBlockTableRecord
  2
*D2
  0
BLOCK_RECORD
  5
4C50
330
1
100
AcDbSymbolTableRecord
100
AcDbBlockTableRecord
  2
*D3
  0
BLOCK_RECORD
  5
4C5D
330
1
100
AcDbSymbolTableRecord
100
AcDbBlockTableRecord
  2
*D4
  0
BLOCK_RECORD
  5
4C6A
330
1
100
AcDbSymbolTableRecord
100
AcDbBlockTableRecord
  2
*D5
  0
BLOCK_RECORD
  5
4C77
330
1
100
AcDbSymbolTableRecord
100
AcDbBlockTableRecord
  2
*D6
  0
BLOCK_RECORD
  5
4C84
330
1
100
AcDbSymbolTableRecord
100
AcDbBlockTableRecord
  2
*D7
  0
BLOCK_RECORD
  5
4C91
330
1
100
AcDbSymbolTableRecord
100
AcDbBlockTableRecord
  2
*D8
  0
BLOCK_RECORD
  5
4C9F
330
1
100
AcDbSymbolTableRecord
100
AcDbBlockTableRecord
  2
*D9
  0
BLOCK_RECORD
  5
4CAC
330
1
100
AcDbSymbolTableRecord
100
AcDbBlockTableRecord
  2
*D10
  0
BLOCK_RECORD
  5
4CB7
330
1
100
AcDbSymbolTableRecord
100
AcDbBlockTableRecord
  2
*D11
  0
BLOCK_RECORD
  5
4D27
330
1
100
AcDbSymbolTableRecord
100
AcDbBlockTableRecord
  2
*D12
  0
BLOCK_RECORD
  5
4D48
330
1
100
AcDbSymbolTableRecord
100
AcDbBlockTableRecord
  2
*D13
  0
BLOCK_RECORD
  5
4D51
330
1
100
AcDbSymbolTableRecord
100
AcDbBlockTableRecord
  2
*D14
  0
ENDTAB
  0
ENDSEC
  0
SECTION
  2
BLOCKS
  0
BLOCK
  5
3
330
2
100
AcDbEntity
  8
0
100
AcDbBlockBegin
  2
*MODEL_SPACE
 70
     0
 10
0.0
 20
0.0
 30
0.0
  3
*MODEL_SPACE
  1

  0
ENDBLK
  5
9
330
2
100
AcDbEntity
  8
0
100
AcDbBlockEnd
  0
BLOCK
  5
D
330
C
100
AcDbEntity
 67
     1
  8
0
100
AcDbBlockBegin
  2
*PAPER_SPACE
 70
     0
 10
0.0
 20
0.0
 30
0.0
  3
*PAPER_SPACE
  1

  0
ENDBLK
  5
E
330
C
100
AcDbEntity
 67
     1
  8
0
100
AcDbBlockEnd
  0
BLOCK
  5
2F6
330
181
100
AcDbEntity
  8
0
100
AcDbBlockBegin
  2
*X0
 70
     1
 10
0.0
 20
0.0
 30
0.0
  3
*X0
  1

  0
LINE
  5
182
330
181
100
AcDbEntity
  8
0
 62
     0
100
AcDbLine
 10
119.6249999999999
 20
30.73434161302726
 30
0.0
 11
119.6249999999999
 21
31.73434161302726
 31
0.0
  0
LINE
  5
183
330
181
100
AcDbEntity
  8
0
 62
     0
100
AcDbLine
 10
119.6249999999999
 20
50.73434161302725
 30
0.0
 11
119.6249999999999
 21
51.73434161302726
 31
0.0
  0
LINE
  5
184
330
181
100
AcDbEntity
  8
0
 62
     0
100
AcDbLine
 10
119.6249999999999
 20
34.23389329927631
 30
0.0
 11
119.6249999999999
 21
39.78358833883456
 31
0.0
  0
LINE
  5
185
330
181
100
AcDbEntity
  8
0
 62
     0
100
AcDbLine
 10
119.6249999999999
 20
42.36292722007112
 30
0.0
 11
119.6249999999999
 21
48.39196114086594
 31
0.0
  0
LINE
  5
186
330
181
100
AcDbEntity
  8
0
 62
     0
100
AcDbLine
 10
119.4374999999999
 20
30.73434161302726
 30
0.0
 11
119.4374999999999
 21
31.73434161302726
 31
0.0
  0
LINE
  5
187
330
181
100
AcDbEntity
  8
0
 62
     0
100
AcDbLine
 10
119.4374999999999
 20
50.73434161302725
 30
0.0
 11
119.4374999999999
 21
51.73434161302726
 31
0.0
  0
LINE
  5
188
330
181
100
AcDbEntity
  8
0
 62
     0
100
AcDbLine
 10
119.4374999999999
 20
34.23389329927631
 30
0.0
 11
119.4374999999999
 21
39.4588288124154
 31
0.0
  0
LINE
  5
189
330
181
100
AcDbEntity
  8
0
 62
     0
100
AcDbLine
 10
119.4374999999999
 20
42.36292722007112
 30
0.0
 11
119.4374999999999
 21
48.39196114086594
 31
0.0
  0
LINE
  5
18A
330
181
100
AcDbEntity
  8
0
 62
     0
100
AcDbLine
 10
119.2499999999999
 20
30.73434161302726
 30
0.0
 11
119.2499999999999
 21
31.73434161302726
 31
0.0
  0
LINE
  5
18B
330
181
100
AcDbEntity
  8
0
 62
     0
100
AcDbLine
 10
119.2499999999999
 20
50.73434161302725
 30
0.0
 11
119.2499999999999
 21
51.73434161302726
 31
0.0
  0
LINE
  5
18C
330
181
100
AcDbEntity
  8
0
 62
     0
100
AcDbLine
 10
119.2499999999999
 20
34.23389329927631
 30
0.0
 11
119.2499999999999
 21
39.13406928599623
 31
0.0
  0
LINE
  5
18D
330
181
100
AcDbEntity
  8
0
 62
     0
100
AcDbLine
 10
119.2499999999999
 20
42.36292722007112
 30
0.0
 11
119.2499999999999
 21
48.39196114086594
 31
0.0
  0
LINE
  5
18E
330
181
100
AcDbEntity
  8
0
 62
     0
100
AcDbLine
 10
119.0624999999999
 20
30.73434161302726
 30
0.0
 11
119.0624999999999
 21
31.73434161302726
 31
0.0
  0
LINE
  5
18F
330
181
100
AcDbEntity
  8
0
 62
     0
100
AcDbLine
 10
119.0624999999999
 20
50.73434161302725
 30
0.0
 11
119.0624999999999
 21
51.73434161302726
 31
0.0
  0
LINE
  5
190
330
181
100
AcDbEntity
  8
0
 62
     0
100
AcDbLine
 10
119.0624999999999
 20
34.23389329927631
 30
0.0
 11
119.0624999999999
 21
38.80930975957706
 31
0.0
  0
LINE
  5
191
330
181
100
AcDbEntity
  8
0
 62
     0
100
AcDbLine
 10
119.0624999999999
 20
42.36292722007112
 30
0.0
 11
119.0624999999999
 21
48.39196114086594
 31
0.0
  0
LINE
  5
192
330
181
100
AcDbEntity
  8
0
 62
     0
100
AcDbLine
 10
118.8749999999999
 20
30.73434161302726
 30
0.0
 11
118.8749999999999
 21
31.73434161302726
 31
0.0
  0
LINE
  5
193
330
181
100
AcDbEntity
  8
0
 62
     0
100
AcDbLine
 10
118.8749999999999
 20
50.73434161302725
 30
0.0
 11
118.8749999999999
 21
51.73434161302726
 31
0.0
  0
LINE
  5
194
330
181
100
AcDbEntity
  8
0
 62
     0
100
AcDbLine
 10
118.8749999999999
 20
34.23389329927631
 30
0.0
 11
118.8749999999999
 21
38.48455023315789
 31
0.0
  0
LINE
  5
195
330
181
100
AcDbEntity
  8
0
 62
     0
100
AcDbLine
 10
118.8749999999999
 20
42.36292722007112
 30
0.0
 11
118.8749999999999
 21
48.39196114086594
 31
0.0
  0
LINE
  5
196
330
181
100
AcDbEntity
  8
0
 62
     0
100
AcDbLine
 10
118.8749999999999
 20
40.08455023785443
 30
0.0
 11
118.8749999999999
 21
40.44130420998858
 31
0.0
  0
LINE
  5
197
330
181
100
AcDbEntity
  8
0
 62
     0
100
AcDbLine
 10
118.6874999999999
 20
30.73434161302726
 30
0.0
 11
118.6874999999999
 21
31.73434161302726
 31
0.0
  0
LINE
  5
198
330
181
100
AcDbEntity
  8
0
 62
     0
100
AcDbLine
 10
118.6874999999999
 20
50.73434161302725
 30
0.0
 11
118.6874999999999
 21
51.73434161302726
 31
0.0
  0
LINE
  5
199
330
181
100
AcDbEntity
  8
0
 62
     0
100
AcDbLine
 10
118.6874999999999
 20
34.23389329927631
 30
0.0
 11
118.6874999999999
 21
38.15979070673873
 31
0.0
  0
LINE
  5
19A
330
181
100
AcDbEntity
  8
0
 62
     0
100
AcDbLine
 10
118.6874999999999
 20
42.41926881554642
 30
0.0
 11
118.6874999999999
 21
48.39196114086594
 31
0.0
  0
LINE
  5
19B
330
181
100
AcDbEntity
  8
0
 62
     0
100
AcDbLine
 10
118.6874999999999
 20
39.75979071181569
 30
0.0
 11
118.6874999999999
 21
40.76606373625941
 31
0.0
  0
LINE
  5
19C
330
181
100
AcDbEntity
  8
0
 62
     0
100
AcDbLine
 10
118.4999999999999
 20
30.73434161302726
 30
0.0
 11
118.4999999999999
 21
31.73434161302726
 31
0.0
  0
LINE
  5
19D
330
181
100
AcDbEntity
  8
0
 62
     0
100
AcDbLine
 10
118.4999999999999
 20
50.73434161302725
 30
0.0
 11
118.4999999999999
 21
51.73434161302726
 31
0.0
  0
LINE
  5
19E
330
181
100
AcDbEntity
  8
0
 62
     0
100
AcDbLine
 10
118.4999999999999
 20
34.23389329927631
 30
0.0
 11
118.4999999999999
 21
37.83503118031956
 31
0.0
  0
LINE
  5
19F
330
181
100
AcDbEntity
  8
0
 62
     0
100
AcDbLine
 10
118.4999999999999
 20
42.69082325982261
 30
0.0
 11
118.4999999999999
 21
48.39196114086594
 31
0.0
  0
LINE
  5
1A0
330
181
100
AcDbEntity
  8
0
 62
     0
100
AcDbLine
 10
118.4999999999999
 20
39.43503118577694
 30
0.0
 11
118.4999999999999
 21
41.09082326253024
 31
0.0
  0
LINE
  5
1A1
330
181
100
AcDbEntity
  8
0
 62
     0
100
AcDbLine
 10
118.3124999999999
 20
30.73434161302726
 30
0.0
 11
118.3124999999999
 21
31.73434161302726
 31
0.0
  0
LINE
  5
1A2
330
181
100
AcDbEntity
  8
0
 62
     0
100
AcDbLine
 10
118.3124999999999
 20
50.73434161302725
 30
0.0
 11
118.3124999999999
 21
51.73434161302726
 31
0.0
  0
LINE
  5
1A3
330
181
100
AcDbEntity
  8
0
 62
     0
100
AcDbLine
 10
118.3124999999999
 20
34.23389329927631
 30
0.0
 11
118.3124999999999
 21
37.51027165390039
 31
0.0
  0
LINE
  5
1A4
330
181
100
AcDbEntity
  8
0
 62
     0
100
AcDbLine
 10
118.3124999999999
 20
43.01558278624178
 30
0.0
 11
118.3124999999999
 21
48.39196114086594
 31
0.0
  0
LINE
  5
1A5
330
181
100
AcDbEntity
  8
0
 62
     0
100
AcDbLine
 10
118.3124999999999
 20
39.1102716597382
 30
0.0
 11
118.3124999999999
 21
41.41558278880107
 31
0.0
  0
LINE
  5
1A6
330
181
100
AcDbEntity
  8
0
 62
     0
100
AcDbLine
 10
118.1249999999999
 20
30.73434161302726
 30
0.0
 11
118.1249999999999
 21
31.73434161302726
 31
0.0
  0
LINE
  5
1A7
330
181
100
AcDbEntity
  8
0
 62
     0
100
AcDbLine
 10
118.1249999999999
 20
50.73434161302725
 30
0.0
 11
118.1249999999999
 21
51.73434161302726
 31
0.0
  0
LINE
  5
1A8
330
181
100
AcDbEntity
  8
0
 62
     0
100
AcDbLine
 10
118.1249999999999
 20
34.23389329927631
 30
0.0
 11
118.1249999999999
 21
37.18551212748122
 31
0.0
  0
LINE
  5
1A9
330
181
100
AcDbEntity
  8
0
 62
     0
100
AcDbLine
 10
118.1249999999999
 20
43.34034231266095
 30
0.0
 11
118.1249999999999
 21
48.39196114086594
 31
0.0
  0
LINE
  5
1AA
330
181
100
AcDbEntity
  8
0
 62
     0
100
AcDbLine
 10
118.1249999999999
 20
38.78551213369945
 30
0.0
 11
118.1249999999999
 21
41.7403423150719
 31
0.0
  0
LINE
  5
1AB
330
181
100
AcDbEntity
  8
0
 62
     0
100
AcDbLine
 10
117.9374999999999
 20
30.73434161302726
 30
0.0
 11
117.9374999999999
 21
31.73434161302726
 31
0.0
  0
LINE
  5
1AC
330
181
100
AcDbEntity
  8
0
 62
     0
100
AcDbLine
 10
117.9374999999999
 20
50.73434161302725
 30
0.0
 11
117.9374999999999
 21
51.73434161302726
 31
0.0
  0
LINE
  5
1AD
330
181
100
AcDbEntity
  8
0
 62
     0
100
AcDbLine
 10
117.9374999999999
 20
34.23389329927631
 30
0.0
 11
117.9374999999999
 21
36.86075260106206
 31
0.0
  0
LINE
  5
1AE
330
181
100
AcDbEntity
  8
0
 62
     0
100
AcDbLine
 10
117.9374999999999
 20
43.66510183908012
 30
0.0
 11
117.9374999999999
 21
48.39196114086594
 31
0.0
  0
LINE
  5
1AF
330
181
100
AcDbEntity
  8
0
 62
     0
100
AcDbLine
 10
117.9374999999999
 20
38.46075260766071
 30
0.0
 11
117.9374999999999
 21
42.06510184134273
 31
0.0
  0
LINE
  5
1B0
330
181
100
AcDbEntity
  8
0
 62
     0
100
AcDbLine
 10
117.7499999999999
 20
30.73434161302726
 30
0.0
 11
117.7499999999999
 21
31.73434161302726
 31
0.0
  0
LINE
  5
1B1
330
181
100
AcDbEntity
  8
0
 62
     0
100
AcDbLine
 10
117.7499999999999
 20
50.73434161302725
 30
0.0
 11
117.7499999999999
 21
51.73434161302726
 31
0.0
  0
LINE
  5
1B2
330
181
100
AcDbEntity
  8
0
 62
     0
100
AcDbLine
 10
117.7499999999999
 20
34.23389329927631
 30
0.0
 11
117.7499999999999
 21
36.53599307464288
 31
0.0
  0
LINE
  5
1B3
330
181
100
AcDbEntity
  8
0
 62
     0
100
AcDbLine
 10
117.7499999999999
 20
43.98986136549929
 30
0.0
 11
117.7499999999999
 21
48.39196114086594
 31
0.0
  0
LINE
  5
1B4
330
181
100
AcDbEntity
  8
0
 62
     0
100
AcDbLine
 10
117.7499999999999
 20
38.13599308162197
 30
0.0
 11
117.7499999999999
 21
42.38986136761356
 31
0.0
  0
LINE
  5
1B5
330
181
100
AcDbEntity
  8
0
 62
     0
100
AcDbLine
 10
117.5624999999999
 20
30.73434161302726
 30
0.0
 11
117.5624999999999
 21
31.73434161302726
 31
0.0
  0
LINE
  5
1B6
330
181
100
AcDbEntity
  8
0
 62
     0
100
AcDbLine
 10
117.5624999999999
 20
50.73434161302725
 30
0.0
 11
117.5624999999999
 21
51.73434161302726
 31
0.0
  0
LINE
  5
1B7
330
181
100
AcDbEntity
  8
0
 62
     0
100
AcDbLine
 10
117.5624999999999
 20
34.23389329927631
 30
0.0
 11
117.5624999999999
 21
36.21123354822372
 31
0.0
  0
LINE
  5
1B8
330
181
100
AcDbEntity
  8
0
 62
     0
100
AcDbLine
 10
117.5624999999999
 20
44.31462089191845
 30
0.0
 11
117.5624999999999
 21
48.39196114086594
 31
0.0
  0
LINE
  5
1B9
330
181
100
AcDbEntity
  8
0
 62
     0
100
AcDbLine
 10
117.5624999999999
 20
37.81123355558323
 30
0.0
 11
117.5624999999999
 21
42.71462089388439
 31
0.0
  0
LINE
  5
1BA
330
181
100
AcDbEntity
  8
0
 62
     0
100
AcDbLine
 10
117.3749999999999
 20
30.73434161302726
 30
0.0
 11
117.3749999999999
 21
31.73434161302726
 31
0.0
  0
LINE
  5
1BB
330
181
100
AcDbEntity
  8
0
 62
     0
100
AcDbLine
 10
117.3749999999999
 20
50.73434161302725
 30
0.0
 11
117.3749999999999
 21
51.73434161302726
 31
0.0
  0
LINE
  5
1BC
330
181
100
AcDbEntity
  8
0
 62
     0
100
AcDbLine
 10
117.3749999999999
 20
34.23389329927631
 30
0.0
 11
117.3749999999999
 21
35.88647402180455
 31
0.0
  0
LINE
  5
1BD
330
181
100
AcDbEntity
  8
0
 62
     0
100
AcDbLine
 10
117.3749999999999
 20
44.63938041833762
 30
0.0
 11
117.3749999999999
 21
48.39196114086594
 31
0.0
  0
LINE
  5
1BE
330
181
100
AcDbEntity
  8
0
 62
     0
100
AcDbLine
 10
117.3749999999999
 20
37.48647402954448
 30
0.0
 11
117.3749999999999
 21
43.03938042015523
 31
0.0
  0
LINE
  5
1BF
330
181
100
AcDbEntity
  8
0
 62
     0
100
AcDbLine
 10
117.1874999999999
 20
30.73434161302726
 30
0.0
 11
117.1874999999999
 21
31.73434161302726
 31
0.0
  0
LINE
  5
1C0
330
181
100
AcDbEntity
  8
0
 62
     0
100
AcDbLine
 10
117.1874999999999
 20
50.73434161302725
 30
0.0
 11
117.1874999999999
 21
51.73434161302726
 31
0.0
  0
LINE
  5
1C1
330
181
100
AcDbEntity
  8
0
 62
     0
100
AcDbLine
 10
117.1874999999999
 20
34.23389329927631
 30
0.0
 11
117.1874999999999
 21
35.56171449538538
 31
0.0
  0
LINE
  5
1C2
330
181
100
AcDbEntity
  8
0
 62
     0
100
AcDbLine
 10
117.1874999999999
 20
44.9641399447568
 30
0.0
 11
117.1874999999999
 21
48.39196114086594
 31
0.0
  0
LINE
  5
1C3
330
181
100
AcDbEntity
  8
0
 62
     0
100
AcDbLine
 10
117.1874999999999
 20
37.16171450350574
 30
0.0
 11
117.1874999999999
 21
43.36413994642605
 31
0.0
  0
LINE
  5
1C4
330
181
100
AcDbEntity
  8
0
 62
     0
100
AcDbLine
 10
116.9999999999999
 20
30.73434161302726
 30
0.0
 11
116.9999999999999
 21
31.73434161302726
 31
0.0
  0
LINE
  5
1C5
330
181
100
AcDbEntity
  8
0
 62
     0
100
AcDbLine
 10
116.9999999999999
 20
50.73434161302725
 30
0.0
 11
116.9999999999999
 21
51.73434161302726
 31
0.0
  0
LINE
  5
1C6
330
181
100
AcDbEntity
  8
0
 62
     0
100
AcDbLine
 10
116.9999999999999
 20
34.23389329927631
 30
0.0
 11
116.9999999999999
 21
35.23695496896622
 31
0.0
  0
LINE
  5
1C7
330
181
100
AcDbEntity
  8
0
 62
     0
100
AcDbLine
 10
116.9999999999999
 20
45.28889947117597
 30
0.0
 11
116.9999999999999
 21
48.39196114086594
 31
0.0
  0
LINE
  5
1C8
330
181
100
AcDbEntity
  8
0
 62
     0
100
AcDbLine
 10
116.9999999999999
 20
36.83695497746699
 30
0.0
 11
116.9999999999999
 21
43.68889947269688
 31
0.0
  0
LINE
  5
1C9
330
181
100
AcDbEntity
  8
0
 62
     0
100
AcDbLine
 10
116.8124999999999
 20
30.73434161302726
 30
0.0
 11
116.8124999999999
 21
31.73434161302726
 31
0.0
  0
LINE
  5
1CA
330
181
100
AcDbEntity
  8
0
 62
     0
100
AcDbLine
 10
116.8124999999999
 20
50.73434161302725
 30
0.0
 11
116.8124999999999
 21
51.73434161302726
 31
0.0
  0
LINE
  5
1CB
330
181
100
AcDbEntity
  8
0
 62
     0
100
AcDbLine
 10
116.8124999999999
 20
34.23389329927631
 30
0.0
 11
116.8124999999999
 21
34.91219544254705
 31
0.0
  0
LINE
  5
1CC
330
181
100
AcDbEntity
  8
0
 62
     0
100
AcDbLine
 10
116.8124999999999
 20
45.61365899759514
 30
0.0
 11
116.8124999999999
 21
48.38373565494333
 31
0.0
  0
LINE
  5
1CD
330
181
100
AcDbEntity
  8
0
 62
     0
100
AcDbLine
 10
116.8124999999999
 20
36.51219545142825
 30
0.0
 11
116.8124999999999
 21
44.01365899896771
 31
0.0
  0
LINE
  5
1CE
330
181
100
AcDbEntity
  8
0
 62
     0
100
AcDbLine
 10
116.6249999999999
 20
30.73434161302726
 30
0.0
 11
116.6249999999999
 21
31.73434161302726
 31
0.0
  0
LINE
  5
1CF
330
181
100
AcDbEntity
  8
0
 62
     0
100
AcDbLine
 10
116.6249999999999
 20
50.73434161302725
 30
0.0
 11
116.6249999999999
 21
51.73434161302726
 31
0.0
  0
LINE
  5
1D0
330
181
100
AcDbEntity
  8
0
 62
     0
100
AcDbLine
 10
116.6249999999999
 20
34.23389329927631
 30
0.0
 11
116.6249999999999
 21
34.59269753062041
 31
0.0
  0
LINE
  5
1D1
330
181
100
AcDbEntity
  8
0
 62
     0
100
AcDbLine
 10
116.6249999999999
 20
45.9384185240143
 30
0.0
 11
116.6249999999999
 21
48.34088760946108
 31
0.0
  0
LINE
  5
1D2
330
181
100
AcDbEntity
  8
0
 62
     0
100
AcDbLine
 10
116.6249999999999
 20
36.18743592538951
 30
0.0
 11
116.6249999999999
 21
44.33841852523854
 31
0.0
  0
LINE
  5
1D3
330
181
100
AcDbEntity
  8
0
 62
     0
100
AcDbLine
 10
116.4374999999999
 20
30.73434161302726
 30
0.0
 11
116.4374999999999
 21
31.73434161302726
 31
0.0
  0
LINE
  5
1D4
330
181
100
AcDbEntity
  8
0
 62
     0
100
AcDbLine
 10
116.4374999999999
 20
50.73434161302725
 30
0.0
 11
116.4374999999999
 21
51.73434161302726
 31
0.0
  0
LINE
  5
1D5
330
181
100
AcDbEntity
  8
0
 62
     0
100
AcDbLine
 10
116.4374999999999
 20
34.23389329927631
 30
0.0
 11
116.4374999999999
 21
34.44874299145622
 31
0.0
  0
LINE
  5
1D6
330
181
100
AcDbEntity
  8
0
 62
     0
100
AcDbLine
 10
116.4374999999999
 20
46.26317805043347
 30
0.0
 11
116.4374999999999
 21
48.25624911302998
 31
0.0
  0
LINE
  5
1D7
330
181
100
AcDbEntity
  8
0
 62
     0
100
AcDbLine
 10
116.4374999999999
 20
35.86267639935076
 30
0.0
 11
116.4374999999999
 21
44.66317805150937
 31
0.0
  0
LINE
  5
1D8
330
181
100
AcDbEntity
  8
0
 62
     0
100
AcDbLine
 10
116.2499999999999
 20
30.73434161302726
 30
0.0
 11
116.2499999999999
 21
31.73434161302726
 31
0.0
  0
LINE
  5
1D9
330
181
100
AcDbEntity
  8
0
 62
     0
100
AcDbLine
 10
116.2499999999999
 20
50.73434161302725
 30
0.0
 11
116.2499999999999
 21
51.73434161302726
 31
0.0
  0
LINE
  5
1DA
330
181
100
AcDbEntity
  8
0
 62
     0
100
AcDbLine
 10
116.2499999999999
 20
34.23389329927631
 30
0.0
 11
116.2499999999999
 21
34.33758771320932
 31
0.0
  0
LINE
  5
1DB
330
181
100
AcDbEntity
  8
0
 62
     0
100
AcDbLine
 10
116.2499999999999
 20
46.58793757685264
 30
0.0
 11
116.2499999999999
 21
48.11529609429651
 31
0.0
  0
LINE
  5
1DC
330
181
100
AcDbEntity
  8
0
 62
     0
100
AcDbLine
 10
116.2499999999999
 20
35.53791687331202
 30
0.0
 11
116.2499999999999
 21
44.98793757778019
 31
0.0
  0
LINE
  5
1DD
330
181
100
AcDbEntity
  8
0
 62
     0
100
AcDbLine
 10
116.0624999999999
 20
30.73434161302726
 30
0.0
 11
116.0624999999999
 21
31.73434161302726
 31
0.0
  0
LINE
  5
1DE
330
181
100
AcDbEntity
  8
0
 62
     0
100
AcDbLine
 10
116.0624999999999
 20
50.73434161302725
 30
0.0
 11
116.0624999999999
 21
51.73434161302726
 31
0.0
  0
LINE
  5
1DF
330
181
100
AcDbEntity
  8
0
 62
     0
100
AcDbLine
 10
116.0624999999999
 20
34.23389329927631
 30
0.0
 11
116.0624999999999
 21
34.25304788190206
 31
0.0
  0
LINE
  5
1E0
330
181
100
AcDbEntity
  8
0
 62
     0
100
AcDbLine
 10
116.0624999999999
 20
46.91329558864667
 30
0.0
 11
116.0624999999999
 21
47.87062669308522
 31
0.0
  0
LINE
  5
1E1
330
181
100
AcDbEntity
  8
0
 62
     0
100
AcDbLine
 10
116.0624999999999
 20
35.29731832849843
 30
0.0
 11
116.0624999999999
 21
45.31269710405103
 31
0.0
  0
LINE
  5
1E2
330
181
100
AcDbEntity
  8
0
 62
     0
100
AcDbLine
 10
115.8749999999999
 20
30.73434161302726
 30
0.0
 11
115.8749999999999
 21
31.73434161302726
 31
0.0
  0
LINE
  5
1E3
330
181
100
AcDbEntity
  8
0
 62
     0
100
AcDbLine
 10
115.8749999999999
 20
50.73434161302725
 30
0.0
 11
115.8749999999999
 21
51.73434161302726
 31
0.0
  0
LINE
  5
1E4
330
181
100
AcDbEntity
  8
0
 62
     0
100
AcDbLine
 10
115.8749999999999
 20
35.15800657298843
 30
0.0
 11
115.8749999999999
 21
45.63745663032186
 31
0.0
  0
LINE
  5
1E5
330
181
100
AcDbEntity
  8
0
 62
     0
100
AcDbLine
 10
115.6874999999999
 20
30.73434161302726
 30
0.0
 11
115.6874999999999
 21
31.73434161302726
 31
0.0
  0
LINE
  5
1E6
330
181
100
AcDbEntity
  8
0
 62
     0
100
AcDbLine
 10
115.6874999999999
 20
50.73434161302725
 30
0.0
 11
115.6874999999999
 21
51.73434161302726
 31
0.0
  0
LINE
  5
1E7
330
181
100
AcDbEntity
  8
0
 62
     0
100
AcDbLine
 10
115.6874999999999
 20
35.07447046157856
 30
0.0
 11
115.6874999999999
 21
45.96221615659269
 31
0.0
  0
LINE
  5
1E8
330
181
100
AcDbEntity
  8
0
 62
     0
100
AcDbLine
 10
115.4999999999999
 20
30.73434161302726
 30
0.0
 11
115.4999999999999
 21
31.73434161302726
 31
0.0
  0
LINE
  5
1E9
330
181
100
AcDbEntity
  8
0
 62
     0
100
AcDbLine
 10
115.4999999999999
 20
50.73434161302725
 30
0.0
 11
115.4999999999999
 21
51.73434161302726
 31
0.0
  0
LINE
  5
1EA
330
181
100
AcDbEntity
  8
0
 62
     0
100
AcDbLine
 10
115.4999999999999
 20
35.03252279226054
 30
0.0
 11
115.4999999999999
 21
46.28697568286352
 31
0.0
  0
LINE
  5
1EB
330
181
100
AcDbEntity
  8
0
 62
     0
100
AcDbLine
 10
115.3124999999999
 20
30.73434161302726
 30
0.0
 11
115.3124999999999
 21
31.73434161302726
 31
0.0
  0
LINE
  5
1EC
330
181
100
AcDbEntity
  8
0
 62
     0
100
AcDbLine
 10
115.3124999999999
 20
50.73434161302725
 30
0.0
 11
115.3124999999999
 21
51.73434161302726
 31
0.0
  0
LINE
  5
1ED
330
181
100
AcDbEntity
  8
0
 62
     0
100
AcDbLine
 10
115.3124999999999
 20
35.02690536785105
 30
0.0
 11
115.3124999999999
 21
46.61173520913435
 31
0.0
  0
LINE
  5
1EE
330
181
100
AcDbEntity
  8
0
 62
     0
100
AcDbLine
 10
115.1249999999999
 20
30.73434161302726
 30
0.0
 11
115.1249999999999
 21
31.73434161302726
 31
0.0
  0
LINE
  5
1EF
330
181
100
AcDbEntity
  8
0
 62
     0
100
AcDbLine
 10
115.1249999999999
 20
50.73434161302725
 30
0.0
 11
115.1249999999999
 21
51.73434161302726
 31
0.0
  0
LINE
  5
1F0
330
181
100
AcDbEntity
  8
0
 62
     0
100
AcDbLine
 10
115.1249999999999
 20
35.05698541235051
 30
0.0
 11
115.1249999999999
 21
46.93649473540518
 31
0.0
  0
LINE
  5
1F1
330
181
100
AcDbEntity
  8
0
 62
     0
100
AcDbLine
 10
114.9374999999999
 20
30.73434161302726
 30
0.0
 11
114.9374999999999
 21
31.73434161302726
 31
0.0
  0
LINE
  5
1F2
330
181
100
AcDbEntity
  8
0
 62
     0
100
AcDbLine
 10
114.9374999999999
 20
50.73434161302725
 30
0.0
 11
114.9374999999999
 21
51.73434161302726
 31
0.0
  0
LINE
  5
1F3
330
181
100
AcDbEntity
  8
0
 62
     0
100
AcDbLine
 10
114.9374999999999
 20
35.1263409750557
 30
0.0
 11
114.9374999999999
 21
47.54073586155272
 31
0.0
  0
LINE
  5
1F4
330
181
100
AcDbEntity
  8
0
 62
     0
100
AcDbLine
 10
114.7499999999999
 20
30.73434161302726
 30
0.0
 11
114.7499999999999
 21
31.73434161302726
 31
0.0
  0
LINE
  5
1F5
330
181
100
AcDbEntity
  8
0
 62
     0
100
AcDbLine
 10
114.7499999999999
 20
50.73434161302725
 30
0.0
 11
114.7499999999999
 21
51.73434161302726
 31
0.0
  0
LINE
  5
1F6
330
181
100
AcDbEntity
  8
0
 62
     0
100
AcDbLine
 10
114.7499999999999
 20
35.24538639737466
 30
0.0
 11
114.7499999999999
 21
47.21597633515672
 31
0.0
  0
LINE
  5
1F7
330
181
100
AcDbEntity
  8
0
 62
     0
100
AcDbLine
 10
114.5624999999999
 20
30.73434161302726
 30
0.0
 11
114.5624999999999
 21
31.73434161302726
 31
0.0
  0
LINE
  5
1F8
330
181
100
AcDbEntity
  8
0
 62
     0
100
AcDbLine
 10
114.5624999999999
 20
50.73434161302725
 30
0.0
 11
114.5624999999999
 21
51.73434161302726
 31
0.0
  0
LINE
  5
1F9
330
181
100
AcDbEntity
  8
0
 62
     0
100
AcDbLine
 10
114.5624999999999
 20
35.44390461668304
 30
0.0
 11
114.5624999999999
 21
46.89121680876072
 31
0.0
  0
LINE
  5
1FA
330
181
100
AcDbEntity
  8
0
 62
     0
100
AcDbLine
 10
114.3749999999999
 20
30.73434161302726
 30
0.0
 11
114.3749999999999
 21
31.73434161302726
 31
0.0
  0
LINE
  5
1FB
330
181
100
AcDbEntity
  8
0
 62
     0
100
AcDbLine
 10
114.3749999999999
 20
50.73434161302725
 30
0.0
 11
114.3749999999999
 21
51.73434161302726
 31
0.0
  0
LINE
  5
1FC
330
181
100
AcDbEntity
  8
0
 62
     0
100
AcDbLine
 10
114.3749999999999
 20
35.75939714825758
 30
0.0
 11
114.3749999999999
 21
46.56645728236473
 31
0.0
  0
LINE
  5
1FD
330
181
100
AcDbEntity
  8
0
 62
     0
100
AcDbLine
 10
114.1874999999999
 20
30.73434161302726
 30
0.0
 11
114.1874999999999
 21
31.73434161302726
 31
0.0
  0
LINE
  5
1FE
330
181
100
AcDbEntity
  8
0
 62
     0
100
AcDbLine
 10
114.1874999999999
 20
50.73434161302725
 30
0.0
 11
114.1874999999999
 21
51.73434161302726
 31
0.0
  0
LINE
  5
1FF
330
181
100
AcDbEntity
  8
0
 62
     0
100
AcDbLine
 10
114.1874999999999
 20
36.08415667527249
 30
0.0
 11
114.1874999999999
 21
46.24169775596873
 31
0.0
  0
LINE
  5
200
330
181
100
AcDbEntity
  8
0
 62
     0
100
AcDbLine
 10
113.9999999999999
 20
30.73434161302726
 30
0.0
 11
113.9999999999999
 21
31.73434161302726
 31
0.0
  0
LINE
  5
201
330
181
100
AcDbEntity
  8
0
 62
     0
100
AcDbLine
 10
113.9999999999999
 20
50.73434161302725
 30
0.0
 11
113.9999999999999
 21
51.73434161302726
 31
0.0
  0
LINE
  5
202
330
181
100
AcDbEntity
  8
0
 62
     0
100
AcDbLine
 10
113.9999999999999
 20
36.40891620228741
 30
0.0
 11
113.9999999999999
 21
45.91693822957273
 31
0.0
  0
LINE
  5
203
330
181
100
AcDbEntity
  8
0
 62
     0
100
AcDbLine
 10
113.8124999999999
 20
30.73434161302726
 30
0.0
 11
113.8124999999999
 21
31.73434161302726
 31
0.0
  0
LINE
  5
204
330
181
100
AcDbEntity
  8
0
 62
     0
100
AcDbLine
 10
113.8124999999999
 20
50.73434161302725
 30
0.0
 11
113.8124999999999
 21
51.73434161302726
 31
0.0
  0
LINE
  5
205
330
181
100
AcDbEntity
  8
0
 62
     0
100
AcDbLine
 10
113.8124999999999
 20
36.73367572930232
 30
0.0
 11
113.8124999999999
 21
45.59217870317673
 31
0.0
  0
LINE
  5
206
330
181
100
AcDbEntity
  8
0
 62
     0
100
AcDbLine
 10
113.6249999999999
 20
30.73434161302726
 30
0.0
 11
113.6249999999999
 21
31.73434161302726
 31
0.0
  0
LINE
  5
207
330
181
100
AcDbEntity
  8
0
 62
     0
100
AcDbLine
 10
113.6249999999999
 20
50.73434161302725
 30
0.0
 11
113.6249999999999
 21
51.73434161302726
 31
0.0
  0
LINE
  5
208
330
181
100
AcDbEntity
  8
0
 62
     0
100
AcDbLine
 10
113.6249999999999
 20
37.05843525631724
 30
0.0
 11
113.6249999999999
 21
45.26741917678073
 31
0.0
  0
LINE
  5
209
330
181
100
AcDbEntity
  8
0
 62
     0
100
AcDbLine
 10
113.4374999999999
 20
30.73434161302726
 30
0.0
 11
113.4374999999999
 21
31.73434161302726
 31
0.0
  0
LINE
  5
20A
330
181
100
AcDbEntity
  8
0
 62
     0
100
AcDbLine
 10
113.4374999999999
 20
50.73434161302725
 30
0.0
 11
113.4374999999999
 21
51.73434161302726
 31
0.0
  0
LINE
  5
20B
330
181
100
AcDbEntity
  8
0
 62
     0
100
AcDbLine
 10
113.4374999999999
 20
37.38319478333215
 30
0.0
 11
113.4374999999999
 21
44.94265965038473
 31
0.0
  0
LINE
  5
20C
330
181
100
AcDbEntity
  8
0
 62
     0
100
AcDbLine
 10
113.2499999999999
 20
30.73434161302726
 30
0.0
 11
113.2499999999999
 21
31.73434161302726
 31
0.0
  0
LINE
  5
20D
330
181
100
AcDbEntity
  8
0
 62
     0
100
AcDbLine
 10
113.2499999999999
 20
50.73434161302725
 30
0.0
 11
113.2499999999999
 21
51.73434161302726
 31
0.0
  0
LINE
  5
20E
330
181
100
AcDbEntity
  8
0
 62
     0
100
AcDbLine
 10
113.2499999999999
 20
37.70795431034707
 30
0.0
 11
113.2499999999999
 21
44.61790012398874
 31
0.0
  0
LINE
  5
20F
330
181
100
AcDbEntity
  8
0
 62
     0
100
AcDbLine
 10
113.0624999999999
 20
30.73434161302726
 30
0.0
 11
113.0624999999999
 21
31.73434161302726
 31
0.0
  0
LINE
  5
210
330
181
100
AcDbEntity
  8
0
 62
     0
100
AcDbLine
 10
113.0624999999999
 20
50.73434161302725
 30
0.0
 11
113.0624999999999
 21
51.73434161302726
 31
0.0
  0
LINE
  5
211
330
181
100
AcDbEntity
  8
0
 62
     0
100
AcDbLine
 10
113.0624999999999
 20
38.03271383736198
 30
0.0
 11
113.0624999999999
 21
44.29314059759273
 31
0.0
  0
LINE
  5
212
330
181
100
AcDbEntity
  8
0
 62
     0
100
AcDbLine
 10
112.8749999999999
 20
30.73434161302726
 30
0.0
 11
112.8749999999999
 21
31.73434161302726
 31
0.0
  0
LINE
  5
213
330
181
100
AcDbEntity
  8
0
 62
     0
100
AcDbLine
 10
112.8749999999999
 20
50.73434161302725
 30
0.0
 11
112.8749999999999
 21
51.73434161302726
 31
0.0
  0
LINE
  5
214
330
181
100
AcDbEntity
  8
0
 62
     0
100
AcDbLine
 10
112.8749999999999
 20
38.35747336437689
 30
0.0
 11
112.8749999999999
 21
43.96838107119673
 31
0.0
  0
LINE
  5
215
330
181
100
AcDbEntity
  8
0
 62
     0
100
AcDbLine
 10
112.6874999999999
 20
30.73434161302726
 30
0.0
 11
112.6874999999999
 21
31.73434161302726
 31
0.0
  0
LINE
  5
216
330
181
100
AcDbEntity
  8
0
 62
     0
100
AcDbLine
 10
112.6874999999999
 20
50.73434161302725
 30
0.0
 11
112.6874999999999
 21
51.73434161302726
 31
0.0
  0
LINE
  5
217
330
181
100
AcDbEntity
  8
0
 62
     0
100
AcDbLine
 10
112.6874999999999
 20
38.68223289139181
 30
0.0
 11
112.6874999999999
 21
43.64362154480074
 31
0.0
  0
LINE
  5
218
330
181
100
AcDbEntity
  8
0
 62
     0
100
AcDbLine
 10
112.4999999999999
 20
30.73434161302726
 30
0.0
 11
112.4999999999999
 21
31.73434161302726
 31
0.0
  0
LINE
  5
219
330
181
100
AcDbEntity
  8
0
 62
     0
100
AcDbLine
 10
112.4999999999999
 20
50.73434161302725
 30
0.0
 11
112.4999999999999
 21
51.73434161302726
 31
0.0
  0
LINE
  5
21A
330
181
100
AcDbEntity
  8
0
 62
     0
100
AcDbLine
 10
112.4999999999999
 20
39.00699241840672
 30
0.0
 11
112.4999999999999
 21
43.31886201840474
 31
0.0
  0
LINE
  5
21B
330
181
100
AcDbEntity
  8
0
 62
     0
100
AcDbLine
 10
112.3124999999999
 20
30.73434161302726
 30
0.0
 11
112.3124999999999
 21
31.73434161302726
 31
0.0
  0
LINE
  5
21C
330
181
100
AcDbEntity
  8
0
 62
     0
100
AcDbLine
 10
112.3124999999999
 20
50.73434161302725
 30
0.0
 11
112.3124999999999
 21
51.73434161302726
 31
0.0
  0
LINE
  5
21D
330
181
100
AcDbEntity
  8
0
 62
     0
100
AcDbLine
 10
112.3124999999999
 20
39.33175194542164
 30
0.0
 11
112.3124999999999
 21
42.99410249200874
 31
0.0
  0
LINE
  5
21E
330
181
100
AcDbEntity
  8
0
 62
     0
100
AcDbLine
 10
112.1249999999999
 20
30.73434161302726
 30
0.0
 11
112.1249999999999
 21
31.73434161302726
 31
0.0
  0
LINE
  5
21F
330
181
100
AcDbEntity
  8
0
 62
     0
100
AcDbLine
 10
112.1249999999999
 20
50.73434161302725
 30
0.0
 11
112.1249999999999
 21
51.73434161302726
 31
0.0
  0
LINE
  5
220
330
181
100
AcDbEntity
  8
0
 62
     0
100
AcDbLine
 10
112.1249999999999
 20
39.65651147243655
 30
0.0
 11
112.1249999999999
 21
42.66934296561275
 31
0.0
  0
LINE
  5
221
330
181
100
AcDbEntity
  8
0
 62
     0
100
AcDbLine
 10
111.9374999999999
 20
30.73434161302726
 30
0.0
 11
111.9374999999999
 21
31.73434161302726
 31
0.0
  0
LINE
  5
222
330
181
100
AcDbEntity
  8
0
 62
     0
100
AcDbLine
 10
111.9374999999999
 20
50.73434161302725
 30
0.0
 11
111.9374999999999
 21
51.73434161302726
 31
0.0
  0
LINE
  5
223
330
181
100
AcDbEntity
  8
0
 62
     0
100
AcDbLine
 10
111.9374999999999
 20
39.98127099945147
 30
0.0
 11
111.9374999999999
 21
42.34458343921675
 31
0.0
  0
LINE
  5
224
330
181
100
AcDbEntity
  8
0
 62
     0
100
AcDbLine
 10
111.7499999999999
 20
30.73434161302726
 30
0.0
 11
111.7499999999999
 21
31.73434161302726
 31
0.0
  0
LINE
  5
225
330
181
100
AcDbEntity
  8
0
 62
     0
100
AcDbLine
 10
111.7499999999999
 20
50.73434161302725
 30
0.0
 11
111.7499999999999
 21
51.73434161302726
 31
0.0
  0
LINE
  5
226
330
181
100
AcDbEntity
  8
0
 62
     0
100
AcDbLine
 10
111.7499999999999
 20
40.30603052646639
 30
0.0
 11
111.7499999999999
 21
42.01982391282075
 31
0.0
  0
LINE
  5
227
330
181
100
AcDbEntity
  8
0
 62
     0
100
AcDbLine
 10
111.5624999999999
 20
30.740674914095
 30
0.0
 11
111.5624999999999
 21
31.74492105275434
 31
0.0
  0
LINE
  5
228
330
181
100
AcDbEntity
  8
0
 62
     0
100
AcDbLine
 10
111.5624999999999
 20
50.72376217330047
 30
0.0
 11
111.5624999999999
 21
51.72800831195969
 31
0.0
  0
LINE
  5
229
330
181
100
AcDbEntity
  8
0
 62
     0
100
AcDbLine
 10
111.5624999999999
 20
40.6307900534813
 30
0.0
 11
111.5624999999999
 21
41.69506438642475
 31
0.0
  0
LINE
  5
22A
330
181
100
AcDbEntity
  8
0
 62
     0
100
AcDbLine
 10
111.3749999999999
 20
30.76118006092885
 30
0.0
 11
111.3749999999999
 21
31.77951239185461
 31
0.0
  0
LINE
  5
22B
330
181
100
AcDbEntity
  8
0
 62
     0
100
AcDbLine
 10
111.3749999999999
 20
50.6891708342002
 30
0.0
 11
111.3749999999999
 21
51.70750316512584
 31
0.0
  0
LINE
  5
22C
330
181
100
AcDbEntity
  8
0
 62
     0
100
AcDbLine
 10
111.1874999999999
 20
30.79623373596523
 30
0.0
 11
111.1874999999999
 21
31.83993492192459
 31
0.0
  0
LINE
  5
22D
330
181
100
AcDbEntity
  8
0
 62
     0
100
AcDbLine
 10
111.1874999999999
 20
50.62874830413023
 30
0.0
 11
111.1874999999999
 21
51.67244949008946
 31
0.0
  0
LINE
  5
22E
330
181
100
AcDbEntity
  8
0
 62
     0
100
AcDbLine
 10
110.9999999999999
 20
30.84647656709062
 30
0.0
 11
110.9999999999999
 21
31.92977291893484
 31
0.0
  0
LINE
  5
22F
330
181
100
AcDbEntity
  8
0
 62
     0
100
AcDbLine
 10
110.9999999999999
 20
50.53891030712001
 30
0.0
 11
110.9999999999999
 21
51.62220665896407
 31
0.0
  0
LINE
  5
230
330
181
100
AcDbEntity
  8
0
 62
     0
100
AcDbLine
 10
110.8124999999999
 20
30.91289455676685
 30
0.0
 11
110.8124999999999
 21
32.05573377535601
 31
0.0
  0
LINE
  5
231
330
181
100
AcDbEntity
  8
0
 62
     0
100
AcDbLine
 10
110.8124999999999
 20
50.41294945069886
 30
0.0
 11
110.8124999999999
 21
51.55578866928784
 31
0.0
  0
LINE
  5
232
330
181
100
AcDbEntity
  8
0
 62
     0
100
AcDbLine
 10
110.6249999999999
 20
30.99692772810695
 30
0.0
 11
110.6249999999999
 21
32.23133568461298
 31
0.0
  0
LINE
  5
233
330
181
100
AcDbEntity
  8
0
 62
     0
100
AcDbLine
 10
110.6249999999999
 20
50.23734754144197
 30
0.0
 11
110.6249999999999
 21
51.47175549794775
 31
0.0
  0
LINE
  5
234
330
181
100
AcDbEntity
  8
0
 62
     0
100
AcDbLine
 10
110.4374999999999
 20
31.10065633870766
 30
0.0
 11
110.4374999999999
 21
32.49096226851445
 31
0.0
  0
LINE
  5
235
330
181
100
AcDbEntity
  8
0
 62
     0
100
AcDbLine
 10
110.4374999999999
 20
49.97772095754063
 30
0.0
 11
110.4374999999999
 21
51.36802688734705
 31
0.0
  0
LINE
  5
236
330
181
100
AcDbEntity
  8
0
 62
     0
100
AcDbLine
 10
110.2499999999999
 20
31.22713153252687
 30
0.0
 11
110.2499999999999
 21
33.06436424023194
 31
0.0
  0
LINE
  5
237
330
181
100
AcDbEntity
  8
0
 62
     0
100
AcDbLine
 10
110.2499999999999
 20
49.40431898582504
 30
0.0
 11
110.2499999999999
 21
51.24155169352786
 31
0.0
  0
LINE
  5
238
330
181
100
AcDbEntity
  8
0
 62
     0
100
AcDbLine
 10
110.0624999999999
 20
31.38100428143419
 30
0.0
 11
110.0624999999999
 21
51.08767894462054
 31
0.0
  0
LINE
  5
239
330
181
100
AcDbEntity
  8
0
 62
     0
100
AcDbLine
 10
109.8749999999999
 20
31.56985558962826
 30
0.0
 11
109.8749999999999
 21
50.89882763642649
 31
0.0
  0
LINE
  5
23A
330
181
100
AcDbEntity
  8
0
 62
     0
100
AcDbLine
 10
109.6874999999999
 20
31.80750746726795
 30
0.0
 11
109.6874999999999
 21
50.66117575878685
 31
0.0
  0
LINE
  5
23B
330
181
100
AcDbEntity
  8
0
 62
     0
100
AcDbLine
 10
109.4999999999999
 20
32.12488898361093
 30
0.0
 11
109.4999999999999
 21
50.34379424244395
 31
0.0
  0
LINE
  5
23C
330
181
100
AcDbEntity
  8
0
 62
     0
100
AcDbLine
 10
109.3124999999999
 20
32.63801779635305
 30
0.0
 11
109.3124999999999
 21
49.83066542970214
 31
0.0
  0
LINE
  5
23D
330
181
100
AcDbEntity
  8
0
 62
     0
100
AcDbLine
 10
119.8124999999999
 20
30.73434161302726
 30
0.0
 11
119.8124999999999
 21
31.73434161302726
 31
0.0
  0
LINE
  5
23E
330
181
100
AcDbEntity
  8
0
 62
     0
100
AcDbLine
 10
119.8124999999999
 20
50.73434161302725
 30
0.0
 11
119.8124999999999
 21
51.73434161302726
 31
0.0
  0
LINE
  5
23F
330
181
100
AcDbEntity
  8
0
 62
     0
100
AcDbLine
 10
119.8124999999999
 20
34.23389329927631
 30
0.0
 11
119.8124999999999
 21
40.08222418853857
 31
0.0
  0
LINE
  5
240
330
181
100
AcDbEntity
  8
0
 62
     0
100
AcDbLine
 10
119.8124999999999
 20
42.36292722007112
 30
0.0
 11
119.8124999999999
 21
48.39196114086594
 31
0.0
  0
LINE
  5
241
330
181
100
AcDbEntity
  8
0
 62
     0
100
AcDbLine
 10
119.9999999999999
 20
30.73434161302726
 30
0.0
 11
119.9999999999999
 21
31.73434161302726
 31
0.0
  0
LINE
  5
242
330
181
100
AcDbEntity
  8
0
 62
     0
100
AcDbLine
 10
119.9999999999999
 20
50.73434161302725
 30
0.0
 11
119.9999999999999
 21
51.73434161302726
 31
0.0
  0
LINE
  5
243
330
181
100
AcDbEntity
  8
0
 62
     0
100
AcDbLine
 10
119.9999999999999
 20
34.23389329927631
 30
0.0
 11
119.9999999999999
 21
40.1624328003386
 31
0.0
  0
LINE
  5
244
330
181
100
AcDbEntity
  8
0
 62
     0
100
AcDbLine
 10
119.9999999999999
 20
42.36292722007112
 30
0.0
 11
119.9999999999999
 21
48.39196114086594
 31
0.0
  0
LINE
  5
245
330
181
100
AcDbEntity
  8
0
 62
     0
100
AcDbLine
 10
120.1874999999999
 20
30.73434161302726
 30
0.0
 11
120.1874999999999
 21
31.73434161302726
 31
0.0
  0
LINE
  5
246
330
181
100
AcDbEntity
  8
0
 62
     0
100
AcDbLine
 10
120.1874999999999
 20
50.73434161302725
 30
0.0
 11
120.1874999999999
 21
51.73434161302726
 31
0.0
  0
LINE
  5
247
330
181
100
AcDbEntity
  8
0
 62
     0
100
AcDbLine
 10
120.1874999999999
 20
34.23389329927631
 30
0.0
 11
120.1874999999999
 21
40.16292722007113
 31
0.0
  0
LINE
  5
248
330
181
100
AcDbEntity
  8
0
 62
     0
100
AcDbLine
 10
120.1874999999999
 20
42.36292722007112
 30
0.0
 11
120.1874999999999
 21
48.39196114086594
 31
0.0
  0
LINE
  5
249
330
181
100
AcDbEntity
  8
0
 62
     0
100
AcDbLine
 10
120.3749999999999
 20
30.73434161302726
 30
0.0
 11
120.3749999999999
 21
31.73434161302726
 31
0.0
  0
LINE
  5
24A
330
181
100
AcDbEntity
  8
0
 62
     0
100
AcDbLine
 10
120.3749999999999
 20
50.73434161302725
 30
0.0
 11
120.3749999999999
 21
51.73434161302726
 31
0.0
  0
LINE
  5
24B
330
181
100
AcDbEntity
  8
0
 62
     0
100
AcDbLine
 10
120.3749999999999
 20
34.23389329927631
 30
0.0
 11
120.3749999999999
 21
40.16292722007113
 31
0.0
  0
LINE
  5
24C
330
181
100
AcDbEntity
  8
0
 62
     0
100
AcDbLine
 10
120.3749999999999
 20
42.36292722007112
 30
0.0
 11
120.3749999999999
 21
48.39196114086594
 31
0.0
  0
LINE
  5
24D
330
181
100
AcDbEntity
  8
0
 62
     0
100
AcDbLine
 10
120.5624999999999
 20
30.73434161302726
 30
0.0
 11
120.5624999999999
 21
31.73434161302726
 31
0.0
  0
LINE
  5
24E
330
181
100
AcDbEntity
  8
0
 62
     0
100
AcDbLine
 10
120.5624999999999
 20
50.73434161302725
 30
0.0
 11
120.5624999999999
 21
51.73434161302726
 31
0.0
  0
LINE
  5
24F
330
181
100
AcDbEntity
  8
0
 62
     0
100
AcDbLine
 10
120.5624999999999
 20
34.23389329927631
 30
0.0
 11
120.5624999999999
 21
40.16292722007113
 31
0.0
  0
LINE
  5
250
330
181
100
AcDbEntity
  8
0
 62
     0
100
AcDbLine
 10
120.5624999999999
 20
42.36292722007112
 30
0.0
 11
120.5624999999999
 21
48.39196114086594
 31
0.0
  0
LINE
  5
251
330
181
100
AcDbEntity
  8
0
 62
     0
100
AcDbLine
 10
120.7499999999999
 20
30.73434161302726
 30
0.0
 11
120.7499999999999
 21
31.73434161302726
 31
0.0
  0
LINE
  5
252
330
181
100
AcDbEntity
  8
0
 62
     0
100
AcDbLine
 10
120.7499999999999
 20
50.73434161302725
 30
0.0
 11
120.7499999999999
 21
51.73434161302726
 31
0.0
  0
LINE
  5
253
330
181
100
AcDbEntity
  8
0
 62
     0
100
AcDbLine
 10
120.7499999999999
 20
34.23389329927631
 30
0.0
 11
120.7499999999999
 21
40.16292722007113
 31
0.0
  0
LINE
  5
254
330
181
100
AcDbEntity
  8
0
 62
     0
100
AcDbLine
 10
120.7499999999999
 20
42.36292722007112
 30
0.0
 11
120.7499999999999
 21
48.39196114086594
 31
0.0
  0
LINE
  5
255
330
181
100
AcDbEntity
  8
0
 62
     0
100
AcDbLine
 10
120.9374999999999
 20
30.73434161302726
 30
0.0
 11
120.9374999999999
 21
31.73434161302726
 31
0.0
  0
LINE
  5
256
330
181
100
AcDbEntity
  8
0
 62
     0
100
AcDbLine
 10
120.9374999999999
 20
50.73434161302725
 30
0.0
 11
120.9374999999999
 21
51.73434161302726
 31
0.0
  0
LINE
  5
257
330
181
100
AcDbEntity
  8
0
 62
     0
100
AcDbLine
 10
120.9374999999999
 20
34.23389329927631
 30
0.0
 11
120.9374999999999
 21
40.16292722007113
 31
0.0
  0
LINE
  5
258
330
181
100
AcDbEntity
  8
0
 62
     0
100
AcDbLine
 10
120.9374999999999
 20
42.36292722007112
 30
0.0
 11
120.9374999999999
 21
48.39196114086594
 31
0.0
  0
LINE
  5
259
330
181
100
AcDbEntity
  8
0
 62
     0
100
AcDbLine
 10
121.1249999999999
 20
30.73434161302726
 30
0.0
 11
121.1249999999999
 21
31.73434161302726
 31
0.0
  0
LINE
  5
25A
330
181
100
AcDbEntity
  8
0
 62
     0
100
AcDbLine
 10
121.1249999999999
 20
50.73434161302725
 30
0.0
 11
121.1249999999999
 21
51.73434161302726
 31
0.0
  0
LINE
  5
25B
330
181
100
AcDbEntity
  8
0
 62
     0
100
AcDbLine
 10
121.1249999999999
 20
34.23389329927631
 30
0.0
 11
121.1249999999999
 21
40.16292722007113
 31
0.0
  0
LINE
  5
25C
330
181
100
AcDbEntity
  8
0
 62
     0
100
AcDbLine
 10
121.1249999999999
 20
42.36292722007112
 30
0.0
 11
121.1249999999999
 21
48.39196114086594
 31
0.0
  0
LINE
  5
25D
330
181
100
AcDbEntity
  8
0
 62
     0
100
AcDbLine
 10
121.3124999999999
 20
30.73434161302726
 30
0.0
 11
121.3124999999999
 21
31.73434161302726
 31
0.0
  0
LINE
  5
25E
330
181
100
AcDbEntity
  8
0
 62
     0
100
AcDbLine
 10
121.3124999999999
 20
50.73434161302725
 30
0.0
 11
121.3124999999999
 21
51.73434161302726
 31
0.0
  0
LINE
  5
25F
330
181
100
AcDbEntity
  8
0
 62
     0
100
AcDbLine
 10
121.3124999999999
 20
34.23389329927631
 30
0.0
 11
121.3124999999999
 21
40.16292722007113
 31
0.0
  0
LINE
  5
260
330
181
100
AcDbEntity
  8
0
 62
     0
100
AcDbLine
 10
121.3124999999999
 20
42.36292722007112
 30
0.0
 11
121.3124999999999
 21
48.39196114086594
 31
0.0
  0
LINE
  5
261
330
181
100
AcDbEntity
  8
0
 62
     0
100
AcDbLine
 10
121.4999999999999
 20
30.73434161302726
 30
0.0
 11
121.4999999999999
 21
31.73434161302726
 31
0.0
  0
LINE
  5
262
330
181
100
AcDbEntity
  8
0
 62
     0
100
AcDbLine
 10
121.4999999999999
 20
50.73434161302725
 30
0.0
 11
121.4999999999999
 21
51.73434161302726
 31
0.0
  0
LINE
  5
263
330
181
100
AcDbEntity
  8
0
 62
     0
100
AcDbLine
 10
121.4999999999999
 20
34.23389329927631
 30
0.0
 11
121.4999999999999
 21
40.16292722007113
 31
0.0
  0
LINE
  5
264
330
181
100
AcDbEntity
  8
0
 62
     0
100
AcDbLine
 10
121.4999999999999
 20
42.36292722007112
 30
0.0
 11
121.4999999999999
 21
48.39196114086594
 31
0.0
  0
LINE
  5
265
330
181
100
AcDbEntity
  8
0
 62
     0
100
AcDbLine
 10
121.6874999999999
 20
30.73434161302726
 30
0.0
 11
121.6874999999999
 21
31.73434161302726
 31
0.0
  0
LINE
  5
266
330
181
100
AcDbEntity
  8
0
 62
     0
100
AcDbLine
 10
121.6874999999999
 20
50.73434161302725
 30
0.0
 11
121.6874999999999
 21
51.73434161302726
 31
0.0
  0
LINE
  5
267
330
181
100
AcDbEntity
  8
0
 62
     0
100
AcDbLine
 10
121.6874999999999
 20
34.23389329927631
 30
0.0
 11
121.6874999999999
 21
40.16292722007113
 31
0.0
  0
LINE
  5
268
330
181
100
AcDbEntity
  8
0
 62
     0
100
AcDbLine
 10
121.6874999999999
 20
42.36292722007112
 30
0.0
 11
121.6874999999999
 21
48.39196114086594
 31
0.0
  0
LINE
  5
269
330
181
100
AcDbEntity
  8
0
 62
     0
100
AcDbLine
 10
121.8749999999999
 20
30.73434161302726
 30
0.0
 11
121.8749999999999
 21
31.73434161302726
 31
0.0
  0
LINE
  5
26A
330
181
100
AcDbEntity
  8
0
 62
     0
100
AcDbLine
 10
121.8749999999999
 20
50.73434161302725
 30
0.0
 11
121.8749999999999
 21
51.73434161302726
 31
0.0
  0
LINE
  5
26B
330
181
100
AcDbEntity
  8
0
 62
     0
100
AcDbLine
 10
121.8749999999999
 20
34.23389329927631
 30
0.0
 11
121.8749999999999
 21
40.16292722007113
 31
0.0
  0
LINE
  5
26C
330
181
100
AcDbEntity
  8
0
 62
     0
100
AcDbLine
 10
121.8749999999999
 20
42.36292722007112
 30
0.0
 11
121.8749999999999
 21
48.39196114086594
 31
0.0
  0
LINE
  5
26D
330
181
100
AcDbEntity
  8
0
 62
     0
100
AcDbLine
 10
122.0624999999999
 20
30.73434161302726
 30
0.0
 11
122.0624999999999
 21
31.73434161302726
 31
0.0
  0
LINE
  5
26E
330
181
100
AcDbEntity
  8
0
 62
     0
100
AcDbLine
 10
122.0624999999999
 20
50.73434161302725
 30
0.0
 11
122.0624999999999
 21
51.73434161302726
 31
0.0
  0
LINE
  5
26F
330
181
100
AcDbEntity
  8
0
 62
     0
100
AcDbLine
 10
122.0624999999999
 20
34.23389329927631
 30
0.0
 11
122.0624999999999
 21
40.16292722007113
 31
0.0
  0
LINE
  5
270
330
181
100
AcDbEntity
  8
0
 62
     0
100
AcDbLine
 10
122.0624999999999
 20
42.36292722007112
 30
0.0
 11
122.0624999999999
 21
48.39196114086594
 31
0.0
  0
LINE
  5
271
330
181
100
AcDbEntity
  8
0
 62
     0
100
AcDbLine
 10
122.2499999999999
 20
30.73434161302726
 30
0.0
 11
122.2499999999999
 21
31.73434161302726
 31
0.0
  0
LINE
  5
272
330
181
100
AcDbEntity
  8
0
 62
     0
100
AcDbLine
 10
122.2499999999999
 20
50.73434161302725
 30
0.0
 11
122.2499999999999
 21
51.73434161302726
 31
0.0
  0
LINE
  5
273
330
181
100
AcDbEntity
  8
0
 62
     0
100
AcDbLine
 10
122.2499999999999
 20
34.23389329927631
 30
0.0
 11
122.2499999999999
 21
40.16292722007113
 31
0.0
  0
LINE
  5
274
330
181
100
AcDbEntity
  8
0
 62
     0
100
AcDbLine
 10
122.2499999999999
 20
42.36292722007112
 30
0.0
 11
122.2499999999999
 21
48.39196114086594
 31
0.0
  0
LINE
  5
275
330
181
100
AcDbEntity
  8
0
 62
     0
100
AcDbLine
 10
122.4374999999999
 20
30.73434161302726
 30
0.0
 11
122.4374999999999
 21
31.73434161302726
 31
0.0
  0
LINE
  5
276
330
181
100
AcDbEntity
  8
0
 62
     0
100
AcDbLine
 10
122.4374999999999
 20
50.73434161302725
 30
0.0
 11
122.4374999999999
 21
51.73434161302726
 31
0.0
  0
LINE
  5
277
330
181
100
AcDbEntity
  8
0
 62
     0
100
AcDbLine
 10
122.4374999999999
 20
34.23389329927631
 30
0.0
 11
122.4374999999999
 21
40.16292722007113
 31
0.0
  0
LINE
  5
278
330
181
100
AcDbEntity
  8
0
 62
     0
100
AcDbLine
 10
122.4374999999999
 20
42.36292722007112
 30
0.0
 11
122.4374999999999
 21
48.39196114086594
 31
0.0
  0
LINE
  5
279
330
181
100
AcDbEntity
  8
0
 62
     0
100
AcDbLine
 10
122.6249999999999
 20
30.73434161302726
 30
0.0
 11
122.6249999999999
 21
31.73434161302726
 31
0.0
  0
LINE
  5
27A
330
181
100
AcDbEntity
  8
0
 62
     0
100
AcDbLine
 10
122.6249999999999
 20
50.73434161302725
 30
0.0
 11
122.6249999999999
 21
51.73434161302726
 31
0.0
  0
LINE
  5
27B
330
181
100
AcDbEntity
  8
0
 62
     0
100
AcDbLine
 10
122.6249999999999
 20
34.23389329927631
 30
0.0
 11
122.6249999999999
 21
40.16292722007113
 31
0.0
  0
LINE
  5
27C
330
181
100
AcDbEntity
  8
0
 62
     0
100
AcDbLine
 10
122.6249999999999
 20
42.36292722007112
 30
0.0
 11
122.6249999999999
 21
48.39196114086594
 31
0.0
  0
LINE
  5
27D
330
181
100
AcDbEntity
  8
0
 62
     0
100
AcDbLine
 10
122.8124999999999
 20
30.73434161302726
 30
0.0
 11
122.8124999999999
 21
31.73434161302726
 31
0.0
  0
LINE
  5
27E
330
181
100
AcDbEntity
  8
0
 62
     0
100
AcDbLine
 10
122.8124999999999
 20
50.73434161302725
 30
0.0
 11
122.8124999999999
 21
51.73434161302726
 31
0.0
  0
LINE
  5
27F
330
181
100
AcDbEntity
  8
0
 62
     0
100
AcDbLine
 10
122.8124999999999
 20
34.23389329927631
 30
0.0
 11
122.8124999999999
 21
40.16292722007113
 31
0.0
  0
LINE
  5
280
330
181
100
AcDbEntity
  8
0
 62
     0
100
AcDbLine
 10
122.8124999999999
 20
42.36292722007112
 30
0.0
 11
122.8124999999999
 21
48.39196114086594
 31
0.0
  0
LINE
  5
281
330
181
100
AcDbEntity
  8
0
 62
     0
100
AcDbLine
 10
122.9999999999999
 20
30.73434161302726
 30
0.0
 11
122.9999999999999
 21
31.73434161302726
 31
0.0
  0
LINE
  5
282
330
181
100
AcDbEntity
  8
0
 62
     0
100
AcDbLine
 10
122.9999999999999
 20
50.73434161302725
 30
0.0
 11
122.9999999999999
 21
51.73434161302726
 31
0.0
  0
LINE
  5
283
330
181
100
AcDbEntity
  8
0
 62
     0
100
AcDbLine
 10
122.9999999999999
 20
34.23389329927631
 30
0.0
 11
122.9999999999999
 21
40.16292722007113
 31
0.0
  0
LINE
  5
284
330
181
100
AcDbEntity
  8
0
 62
     0
100
AcDbLine
 10
122.9999999999999
 20
42.36292722007112
 30
0.0
 11
122.9999999999999
 21
48.39145010178652
 31
0.0
  0
LINE
  5
285
330
181
100
AcDbEntity
  8
0
 62
     0
100
AcDbLine
 10
123.1874999999999
 20
30.73434161302726
 30
0.0
 11
123.1874999999999
 21
31.73434161302726
 31
0.0
  0
LINE
  5
286
330
181
100
AcDbEntity
  8
0
 62
     0
100
AcDbLine
 10
123.1874999999999
 20
50.73434161302725
 30
0.0
 11
123.1874999999999
 21
51.73434161302726
 31
0.0
  0
LINE
  5
287
330
181
100
AcDbEntity
  8
0
 62
     0
100
AcDbLine
 10
123.1874999999999
 20
34.24705839230357
 30
0.0
 11
123.1874999999999
 21
40.16292722007113
 31
0.0
  0
LINE
  5
288
330
181
100
AcDbEntity
  8
0
 62
     0
100
AcDbLine
 10
123.1874999999999
 20
42.36292722007112
 30
0.0
 11
123.1874999999999
 21
48.36758131842096
 31
0.0
  0
LINE
  5
289
330
181
100
AcDbEntity
  8
0
 62
     0
100
AcDbLine
 10
123.3749999999999
 20
30.73434161302726
 30
0.0
 11
123.3749999999999
 21
31.73434161302726
 31
0.0
  0
LINE
  5
28A
330
181
100
AcDbEntity
  8
0
 62
     0
100
AcDbLine
 10
123.3749999999999
 20
50.73434161302725
 30
0.0
 11
123.3749999999999
 21
51.73434161302726
 31
0.0
  0
LINE
  5
28B
330
181
100
AcDbEntity
  8
0
 62
     0
100
AcDbLine
 10
123.3749999999999
 20
34.29685657824298
 30
0.0
 11
123.3749999999999
 21
40.16292722007113
 31
0.0
  0
LINE
  5
28C
330
181
100
AcDbEntity
  8
0
 62
     0
100
AcDbLine
 10
123.3749999999999
 20
42.36292722007112
 30
0.0
 11
123.3749999999999
 21
48.30540450457434
 31
0.0
  0
LINE
  5
28D
330
181
100
AcDbEntity
  8
0
 62
     0
100
AcDbLine
 10
123.5624999999999
 20
30.73434161302726
 30
0.0
 11
123.5624999999999
 21
31.73434161302726
 31
0.0
  0
LINE
  5
28E
330
181
100
AcDbEntity
  8
0
 62
     0
100
AcDbLine
 10
123.5624999999999
 20
50.73434161302725
 30
0.0
 11
123.5624999999999
 21
51.73434161302726
 31
0.0
  0
LINE
  5
28F
330
181
100
AcDbEntity
  8
0
 62
     0
100
AcDbLine
 10
123.5624999999999
 20
34.39013978105555
 30
0.0
 11
123.5624999999999
 21
40.16292722007112
 31
0.0
  0
LINE
  5
290
330
181
100
AcDbEntity
  8
0
 62
     0
100
AcDbLine
 10
123.5624999999999
 20
42.36292722007112
 30
0.0
 11
123.5624999999999
 21
48.19608198163137
 31
0.0
  0
LINE
  5
291
330
181
100
AcDbEntity
  8
0
 62
     0
100
AcDbLine
 10
123.7499999999999
 20
30.73434161302726
 30
0.0
 11
123.7499999999999
 21
31.73434161302726
 31
0.0
  0
LINE
  5
292
330
181
100
AcDbEntity
  8
0
 62
     0
100
AcDbLine
 10
123.7499999999999
 20
50.73434161302725
 30
0.0
 11
123.7499999999999
 21
51.73434161302726
 31
0.0
  0
LINE
  5
293
330
181
100
AcDbEntity
  8
0
 62
     0
100
AcDbLine
 10
123.7499999999999
 20
34.54433570019199
 30
0.0
 11
123.7499999999999
 21
40.16292722007112
 31
0.0
  0
LINE
  5
294
330
181
100
AcDbEntity
  8
0
 62
     0
100
AcDbLine
 10
123.7499999999999
 20
42.36292722007112
 30
0.0
 11
123.7499999999999
 21
48.01528238581408
 31
0.0
  0
LINE
  5
295
330
181
100
AcDbEntity
  8
0
 62
     0
100
AcDbLine
 10
123.9374999999999
 20
30.73434161302726
 30
0.0
 11
123.9374999999999
 21
31.73434161302726
 31
0.0
  0
LINE
  5
296
330
181
100
AcDbEntity
  8
0
 62
     0
100
AcDbLine
 10
123.9374999999999
 20
50.73434161302725
 30
0.0
 11
123.9374999999999
 21
51.73434161302726
 31
0.0
  0
LINE
  5
297
330
181
100
AcDbEntity
  8
0
 62
     0
100
AcDbLine
 10
123.9374999999999
 20
34.81305744647532
 30
0.0
 11
123.9374999999999
 21
40.16292722007112
 31
0.0
  0
LINE
  5
298
330
181
100
AcDbEntity
  8
0
 62
     0
100
AcDbLine
 10
123.9374999999999
 20
42.36292722007112
 30
0.0
 11
123.9374999999999
 21
47.71279699366689
 31
0.0
  0
LINE
  5
299
330
181
100
AcDbEntity
  8
0
 62
     0
100
AcDbLine
 10
124.1249999999999
 20
30.73434161302725
 30
0.0
 11
124.1249999999999
 21
31.73434161302725
 31
0.0
  0
LINE
  5
29A
330
181
100
AcDbEntity
  8
0
 62
     0
100
AcDbLine
 10
124.1249999999999
 20
50.73434161302725
 30
0.0
 11
124.1249999999999
 21
51.73434161302726
 31
0.0
  0
LINE
  5
29B
330
181
100
AcDbEntity
  8
0
 62
     0
100
AcDbLine
 10
124.1249999999999
 20
35.13781697289449
 30
0.0
 11
124.1249999999999
 21
40.16292722007112
 31
0.0
  0
LINE
  5
29C
330
181
100
AcDbEntity
  8
0
 62
     0
100
AcDbLine
 10
124.1249999999999
 20
42.36292722007112
 30
0.0
 11
124.1249999999999
 21
47.38803746724773
 31
0.0
  0
LINE
  5
29D
330
181
100
AcDbEntity
  8
0
 62
     0
100
AcDbLine
 10
124.3124999999999
 20
30.73434161302725
 30
0.0
 11
124.3124999999999
 21
31.73434161302725
 31
0.0
  0
LINE
  5
29E
330
181
100
AcDbEntity
  8
0
 62
     0
100
AcDbLine
 10
124.3124999999999
 20
50.73434161302725
 30
0.0
 11
124.3124999999999
 21
51.73434161302726
 31
0.0
  0
LINE
  5
29F
330
181
100
AcDbEntity
  8
0
 62
     0
100
AcDbLine
 10
124.3124999999999
 20
35.46257649931365
 30
0.0
 11
124.3124999999999
 21
40.16292722007112
 31
0.0
  0
LINE
  5
2A0
330
181
100
AcDbEntity
  8
0
 62
     0
100
AcDbLine
 10
124.3124999999999
 20
42.36292722007112
 30
0.0
 11
124.3124999999999
 21
47.06327794082857
 31
0.0
  0
LINE
  5
2A1
330
181
100
AcDbEntity
  8
0
 62
     0
100
AcDbLine
 10
124.4999999999999
 20
30.73434161302725
 30
0.0
 11
124.4999999999999
 21
31.73434161302725
 31
0.0
  0
LINE
  5
2A2
330
181
100
AcDbEntity
  8
0
 62
     0
100
AcDbLine
 10
124.4999999999999
 20
50.73434161302725
 30
0.0
 11
124.4999999999999
 21
51.73434161302726
 31
0.0
  0
LINE
  5
2A3
330
181
100
AcDbEntity
  8
0
 62
     0
100
AcDbLine
 10
124.4999999999999
 20
35.78733602573282
 30
0.0
 11
124.4999999999999
 21
40.16292722007112
 31
0.0
  0
LINE
  5
2A4
330
181
100
AcDbEntity
  8
0
 62
     0
100
AcDbLine
 10
124.4999999999999
 20
42.36292722007112
 30
0.0
 11
124.4999999999999
 21
46.7385184144094
 31
0.0
  0
LINE
  5
2A5
330
181
100
AcDbEntity
  8
0
 62
     0
100
AcDbLine
 10
124.6874999999999
 20
30.73434161302725
 30
0.0
 11
124.6874999999999
 21
31.73434161302725
 31
0.0
  0
LINE
  5
2A6
330
181
100
AcDbEntity
  8
0
 62
     0
100
AcDbLine
 10
124.6874999999999
 20
50.73434161302725
 30
0.0
 11
124.6874999999999
 21
51.73434161302726
 31
0.0
  0
LINE
  5
2A7
330
181
100
AcDbEntity
  8
0
 62
     0
100
AcDbLine
 10
124.6874999999999
 20
36.11209555215198
 30
0.0
 11
124.6874999999999
 21
40.16292722007112
 31
0.0
  0
LINE
  5
2A8
330
181
100
AcDbEntity
  8
0
 62
     0
100
AcDbLine
 10
124.6874999999999
 20
42.36292722007112
 30
0.0
 11
124.6874999999999
 21
46.41375888799024
 31
0.0
  0
LINE
  5
2A9
330
181
100
AcDbEntity
  8
0
 62
     0
100
AcDbLine
 10
124.8749999999999
 20
30.73434161302725
 30
0.0
 11
124.8749999999999
 21
31.73434161302725
 31
0.0
  0
LINE
  5
2AA
330
181
100
AcDbEntity
  8
0
 62
     0
100
AcDbLine
 10
124.8749999999999
 20
50.73434161302725
 30
0.0
 11
124.8749999999999
 21
51.73434161302726
 31
0.0
  0
LINE
  5
2AB
330
181
100
AcDbEntity
  8
0
 62
     0
100
AcDbLine
 10
124.8749999999999
 20
36.43685507857115
 30
0.0
 11
124.8749999999999
 21
40.16292722007112
 31
0.0
  0
LINE
  5
2AC
330
181
100
AcDbEntity
  8
0
 62
     0
100
AcDbLine
 10
124.8749999999999
 20
42.36292722007112
 30
0.0
 11
124.8749999999999
 21
46.08899936157107
 31
0.0
  0
LINE
  5
2AD
330
181
100
AcDbEntity
  8
0
 62
     0
100
AcDbLine
 10
125.0624999999999
 20
30.73434161302725
 30
0.0
 11
125.0624999999999
 21
31.73434161302725
 31
0.0
  0
LINE
  5
2AE
330
181
100
AcDbEntity
  8
0
 62
     0
100
AcDbLine
 10
125.0624999999999
 20
50.73434161302725
 30
0.0
 11
125.0624999999999
 21
51.73434161302726
 31
0.0
  0
LINE
  5
2AF
330
181
100
AcDbEntity
  8
0
 62
     0
100
AcDbLine
 10
125.0624999999999
 20
36.7616146049903
 30
0.0
 11
125.0624999999999
 21
40.16292722007112
 31
0.0
  0
LINE
  5
2B0
330
181
100
AcDbEntity
  8
0
 62
     0
100
AcDbLine
 10
125.0624999999999
 20
42.36292722007112
 30
0.0
 11
125.0624999999999
 21
45.76423983515191
 31
0.0
  0
LINE
  5
2B1
330
181
100
AcDbEntity
  8
0
 62
     0
100
AcDbLine
 10
125.2499999999999
 20
30.73434161302725
 30
0.0
 11
125.2499999999999
 21
31.73434161302725
 31
0.0
  0
LINE
  5
2B2
330
181
100
AcDbEntity
  8
0
 62
     0
100
AcDbLine
 10
125.2499999999999
 20
50.73434161302725
 30
0.0
 11
125.2499999999999
 21
51.73434161302726
 31
0.0
  0
LINE
  5
2B3
330
181
100
AcDbEntity
  8
0
 62
     0
100
AcDbLine
 10
125.2499999999999
 20
37.08637413140947
 30
0.0
 11
125.2499999999999
 21
40.16292722007112
 31
0.0
  0
LINE
  5
2B4
330
181
100
AcDbEntity
  8
0
 62
     0
100
AcDbLine
 10
125.2499999999999
 20
42.36292722007112
 30
0.0
 11
125.2499999999999
 21
45.43948030873274
 31
0.0
  0
LINE
  5
2B5
330
181
100
AcDbEntity
  8
0
 62
     0
100
AcDbLine
 10
125.4374999999999
 20
30.73434161302725
 30
0.0
 11
125.4374999999999
 21
31.73434161302725
 31
0.0
  0
LINE
  5
2B6
330
181
100
AcDbEntity
  8
0
 62
     0
100
AcDbLine
 10
125.4374999999999
 20
50.73434161302725
 30
0.0
 11
125.4374999999999
 21
51.73434161302726
 31
0.0
  0
LINE
  5
2B7
330
181
100
AcDbEntity
  8
0
 62
     0
100
AcDbLine
 10
125.4374999999999
 20
37.41113365782863
 30
0.0
 11
125.4374999999999
 21
40.16292722007112
 31
0.0
  0
LINE
  5
2B8
330
181
100
AcDbEntity
  8
0
 62
     0
100
AcDbLine
 10
125.4374999999999
 20
42.36292722007112
 30
0.0
 11
125.4374999999999
 21
45.11472078231358
 31
0.0
  0
LINE
  5
2B9
330
181
100
AcDbEntity
  8
0
 62
     0
100
AcDbLine
 10
125.6249999999999
 20
30.73434161302725
 30
0.0
 11
125.6249999999999
 21
31.73434161302725
 31
0.0
  0
LINE
  5
2BA
330
181
100
AcDbEntity
  8
0
 62
     0
100
AcDbLine
 10
125.6249999999999
 20
50.73434161302725
 30
0.0
 11
125.6249999999999
 21
51.73434161302726
 31
0.0
  0
LINE
  5
2BB
330
181
100
AcDbEntity
  8
0
 62
     0
100
AcDbLine
 10
125.6249999999999
 20
37.7358931842478
 30
0.0
 11
125.6249999999999
 21
40.16292722007112
 31
0.0
  0
LINE
  5
2BC
330
181
100
AcDbEntity
  8
0
 62
     0
100
AcDbLine
 10
125.6249999999999
 20
42.36292722007112
 30
0.0
 11
125.6249999999999
 21
44.78996125589442
 31
0.0
  0
LINE
  5
2BD
330
181
100
AcDbEntity
  8
0
 62
     0
100
AcDbLine
 10
125.8124999999999
 20
30.73434161302725
 30
0.0
 11
125.8124999999999
 21
31.73434161302725
 31
0.0
  0
LINE
  5
2BE
330
181
100
AcDbEntity
  8
0
 62
     0
100
AcDbLine
 10
125.8124999999999
 20
50.73434161302725
 30
0.0
 11
125.8124999999999
 21
51.73434161302726
 31
0.0
  0
LINE
  5
2BF
330
181
100
AcDbEntity
  8
0
 62
     0
100
AcDbLine
 10
125.8124999999999
 20
38.06065271066696
 30
0.0
 11
125.8124999999999
 21
40.16292722007112
 31
0.0
  0
LINE
  5
2C0
330
181
100
AcDbEntity
  8
0
 62
     0
100
AcDbLine
 10
125.8124999999999
 20
42.36292722007112
 30
0.0
 11
125.8124999999999
 21
44.46520172947525
 31
0.0
  0
LINE
  5
2C1
330
181
100
AcDbEntity
  8
0
 62
     0
100
AcDbLine
 10
125.9999999999999
 20
30.73434161302725
 30
0.0
 11
125.9999999999999
 21
31.73434161302725
 31
0.0
  0
LINE
  5
2C2
330
181
100
AcDbEntity
  8
0
 62
     0
100
AcDbLine
 10
125.9999999999999
 20
50.73434161302725
 30
0.0
 11
125.9999999999999
 21
51.73434161302726
 31
0.0
  0
LINE
  5
2C3
330
181
100
AcDbEntity
  8
0
 62
     0
100
AcDbLine
 10
125.9999999999999
 20
38.38541223708613
 30
0.0
 11
125.9999999999999
 21
40.16292722007112
 31
0.0
  0
LINE
  5
2C4
330
181
100
AcDbEntity
  8
0
 62
     0
100
AcDbLine
 10
125.9999999999999
 20
42.36292722007112
 30
0.0
 11
125.9999999999999
 21
44.14044220305608
 31
0.0
  0
LINE
  5
2C5
330
181
100
AcDbEntity
  8
0
 62
     0
100
AcDbLine
 10
126.1874999999999
 20
30.73434161302725
 30
0.0
 11
126.1874999999999
 21
31.73434161302725
 31
0.0
  0
LINE
  5
2C6
330
181
100
AcDbEntity
  8
0
 62
     0
100
AcDbLine
 10
126.1874999999999
 20
50.73434161302725
 30
0.0
 11
126.1874999999999
 21
51.73434161302726
 31
0.0
  0
LINE
  5
2C7
330
181
100
AcDbEntity
  8
0
 62
     0
100
AcDbLine
 10
126.1874999999999
 20
38.71017176350529
 30
0.0
 11
126.1874999999999
 21
40.16292722007112
 31
0.0
  0
LINE
  5
2C8
330
181
100
AcDbEntity
  8
0
 62
     0
100
AcDbLine
 10
126.1874999999999
 20
42.36292722007112
 30
0.0
 11
126.1874999999999
 21
43.81568267663692
 31
0.0
  0
LINE
  5
2C9
330
181
100
AcDbEntity
  8
0
 62
     0
100
AcDbLine
 10
126.3749999999999
 20
30.73434161302725
 30
0.0
 11
126.3749999999999
 21
31.73434161302725
 31
0.0
  0
LINE
  5
2CA
330
181
100
AcDbEntity
  8
0
 62
     0
100
AcDbLine
 10
126.3749999999999
 20
50.73434161302725
 30
0.0
 11
126.3749999999999
 21
51.73434161302726
 31
0.0
  0
LINE
  5
2CB
330
181
100
AcDbEntity
  8
0
 62
     0
100
AcDbLine
 10
126.3749999999999
 20
39.03493128992446
 30
0.0
 11
126.3749999999999
 21
40.16292722007112
 31
0.0
  0
LINE
  5
2CC
330
181
100
AcDbEntity
  8
0
 62
     0
100
AcDbLine
 10
126.3749999999999
 20
42.36292722007112
 30
0.0
 11
126.3749999999999
 21
43.49092315021776
 31
0.0
  0
LINE
  5
2CD
330
181
100
AcDbEntity
  8
0
 62
     0
100
AcDbLine
 10
126.5624999999999
 20
30.73434161302725
 30
0.0
 11
126.5624999999999
 21
31.73434161302725
 31
0.0
  0
LINE
  5
2CE
330
181
100
AcDbEntity
  8
0
 62
     0
100
AcDbLine
 10
126.5624999999999
 20
50.73434161302725
 30
0.0
 11
126.5624999999999
 21
51.73434161302726
 31
0.0
  0
LINE
  5
2CF
330
181
100
AcDbEntity
  8
0
 62
     0
100
AcDbLine
 10
126.5624999999999
 20
39.35969081634362
 30
0.0
 11
126.5624999999999
 21
40.16292722007112
 31
0.0
  0
LINE
  5
2D0
330
181
100
AcDbEntity
  8
0
 62
     0
100
AcDbLine
 10
126.5624999999999
 20
42.36292722007112
 30
0.0
 11
126.5624999999999
 21
43.1661636237986
 31
0.0
  0
LINE
  5
2D1
330
181
100
AcDbEntity
  8
0
 62
     0
100
AcDbLine
 10
126.7499999999999
 20
30.73434161302725
 30
0.0
 11
126.7499999999999
 21
31.73434161302725
 31
0.0
  0
LINE
  5
2D2
330
181
100
AcDbEntity
  8
0
 62
     0
100
AcDbLine
 10
126.7499999999999
 20
50.73434161302725
 30
0.0
 11
126.7499999999999
 21
51.73434161302726
 31
0.0
  0
LINE
  5
2D3
330
181
100
AcDbEntity
  8
0
 62
     0
100
AcDbLine
 10
126.7499999999999
 20
39.68445034276278
 30
0.0
 11
126.7499999999999
 21
40.16292722007112
 31
0.0
  0
LINE
  5
2D4
330
181
100
AcDbEntity
  8
0
 62
     0
100
AcDbLine
 10
126.7499999999999
 20
42.36292722007112
 30
0.0
 11
126.7499999999999
 21
42.84140409737942
 31
0.0
  0
LINE
  5
2D5
330
181
100
AcDbEntity
  8
0
 62
     0
100
AcDbLine
 10
126.9374999999999
 20
30.73434161302725
 30
0.0
 11
126.9374999999999
 21
31.73434161302725
 31
0.0
  0
LINE
  5
2D6
330
181
100
AcDbEntity
  8
0
 62
     0
100
AcDbLine
 10
126.9374999999999
 20
50.73434161302725
 30
0.0
 11
126.9374999999999
 21
51.73434161302726
 31
0.0
  0
LINE
  5
2D7
330
181
100
AcDbEntity
  8
0
 62
     0
100
AcDbLine
 10
126.9374999999999
 20
40.00920986918194
 30
0.0
 11
126.9374999999999
 21
40.16292722007112
 31
0.0
  0
LINE
  5
2D8
330
181
100
AcDbEntity
  8
0
 62
     0
100
AcDbLine
 10
126.9374999999999
 20
42.36292722007112
 30
0.0
 11
126.9374999999999
 21
42.51664457096026
 31
0.0
  0
LINE
  5
2D9
330
181
100
AcDbEntity
  8
0
 62
     0
100
AcDbLine
 10
127.1249999999999
 20
30.73434161302725
 30
0.0
 11
127.1249999999999
 21
31.73434161302725
 31
0.0
  0
LINE
  5
2DA
330
181
100
AcDbEntity
  8
0
 62
     0
100
AcDbLine
 10
127.1249999999999
 20
50.73434161302725
 30
0.0
 11
127.1249999999999
 21
51.73434161302726
 31
0.0
  0
LINE
  5
2DB
330
181
100
AcDbEntity
  8
0
 62
     0
100
AcDbLine
 10
127.3124999999999
 20
30.73434161302725
 30
0.0
 11
127.3124999999999
 21
31.73434161302725
 31
0.0
  0
LINE
  5
2DC
330
181
100
AcDbEntity
  8
0
 62
     0
100
AcDbLine
 10
127.3124999999999
 20
50.73434161302725
 30
0.0
 11
127.3124999999999
 21
51.73434161302726
 31
0.0
  0
LINE
  5
2DD
330
181
100
AcDbEntity
  8
0
 62
     0
100
AcDbLine
 10
127.4999999999999
 20
30.73434161302725
 30
0.0
 11
127.4999999999999
 21
31.73434161302725
 31
0.0
  0
LINE
  5
2DE
330
181
100
AcDbEntity
  8
0
 62
     0
100
AcDbLine
 10
127.4999999999999
 20
50.73434161302725
 30
0.0
 11
127.4999999999999
 21
51.73434161302726
 31
0.0
  0
LINE
  5
2DF
330
181
100
AcDbEntity
  8
0
 62
     0
100
AcDbLine
 10
127.6874999999999
 20
30.73434161302725
 30
0.0
 11
127.6874999999999
 21
31.73434161302725
 31
0.0
  0
LINE
  5
2E0
330
181
100
AcDbEntity
  8
0
 62
     0
100
AcDbLine
 10
127.6874999999999
 20
50.73434161302725
 30
0.0
 11
127.6874999999999
 21
51.73434161302726
 31
0.0
  0
LINE
  5
2E1
330
181
100
AcDbEntity
  8
0
 62
     0
100
AcDbLine
 10
127.8749999999999
 20
30.73797101226689
 30
0.0
 11
127.8749999999999
 21
31.74039844933573
 31
0.0
  0
LINE
  5
2E2
330
181
100
AcDbEntity
  8
0
 62
     0
100
AcDbLine
 10
127.8749999999999
 20
50.72828477671877
 30
0.0
 11
127.8749999999999
 21
51.73071221378761
 31
0.0
  0
LINE
  5
2E3
330
181
100
AcDbEntity
  8
0
 62
     0
100
AcDbLine
 10
128.0624999999999
 20
30.75518616833917
 30
0.0
 11
128.0624999999999
 21
31.76934614582384
 31
0.0
  0
LINE
  5
2E4
330
181
100
AcDbEntity
  8
0
 62
     0
100
AcDbLine
 10
128.0624999999999
 20
50.69933708023067
 30
0.0
 11
128.0624999999999
 21
51.71349705771533
 31
0.0
  0
LINE
  5
2E5
330
181
100
AcDbEntity
  8
0
 62
     0
100
AcDbLine
 10
128.2499999999999
 20
30.78684396001255
 30
0.0
 11
128.2499999999999
 21
31.82358126431013
 31
0.0
  0
LINE
  5
2E6
330
181
100
AcDbEntity
  8
0
 62
     0
100
AcDbLine
 10
128.2499999999999
 20
50.64510196174438
 30
0.0
 11
128.2499999999999
 21
51.68183926604196
 31
0.0
  0
LINE
  5
2E7
330
181
100
AcDbEntity
  8
0
 62
     0
100
AcDbLine
 10
128.4374999999999
 20
30.83351565013482
 30
0.0
 11
128.4374999999999
 21
31.90619805749631
 31
0.0
  0
LINE
  5
2E8
330
181
100
AcDbEntity
  8
0
 62
     0
100
AcDbLine
 10
128.4374999999999
 20
50.5624851685582
 30
0.0
 11
128.4374999999999
 21
51.63516757591969
 31
0.0
  0
LINE
  5
2E9
330
181
100
AcDbEntity
  8
0
 62
     0
100
AcDbLine
 10
128.6249999999999
 20
30.89610010567942
 30
0.0
 11
128.6249999999999
 21
32.02298974561454
 31
0.0
  0
LINE
  5
2EA
330
181
100
AcDbEntity
  8
0
 62
     0
100
AcDbLine
 10
128.6249999999999
 20
50.44569348043999
 30
0.0
 11
128.6249999999999
 21
51.57258312037509
 31
0.0
  0
LINE
  5
2EB
330
181
100
AcDbEntity
  8
0
 62
     0
100
AcDbLine
 10
128.8124999999999
 20
30.9759198434567
 30
0.0
 11
128.8124999999999
 21
32.18530925448431
 31
0.0
  0
LINE
  5
2EC
330
181
100
AcDbEntity
  8
0
 62
     0
100
AcDbLine
 10
128.8124999999999
 20
50.28337397157022
 30
0.0
 11
128.8124999999999
 21
51.49276338259781
 31
0.0
  0
LINE
  5
2ED
330
181
100
AcDbEntity
  8
0
 62
     0
100
AcDbLine
 10
128.9999999999999
 20
31.07488521572351
 30
0.0
 11
128.9999999999999
 21
32.41993880614599
 31
0.0
  0
LINE
  5
2EE
330
181
100
AcDbEntity
  8
0
 62
     0
100
AcDbLine
 10
128.9999999999999
 20
50.04874441990855
 30
0.0
 11
128.9999999999999
 21
51.39379801033101
 31
0.0
  0
LINE
  5
2EF
330
181
100
AcDbEntity
  8
0
 62
     0
100
AcDbLine
 10
129.1874999999999
 20
31.19578269201418
 30
0.0
 11
129.1874999999999
 21
32.83972474257949
 31
0.0
  0
LINE
  5
2F0
330
181
100
AcDbEntity
  8
0
 62
     0
100
AcDbLine
 10
129.1874999999999
 20
49.6289584834751
 30
0.0
 11
129.1874999999999
 21
51.27290053404035
 31
0.0
  0
LINE
  5
2F1
330
181
100
AcDbEntity
  8
0
 62
     0
100
AcDbLine
 10
129.3749999999999
 20
31.34281299388666
 30
0.0
 11
129.3749999999999
 21
51.12587023216786
 31
0.0
  0
LINE
  5
2F2
330
181
100
AcDbEntity
  8
0
 62
     0
100
AcDbLine
 10
129.5624999999999
 20
31.52269735687652
 30
0.0
 11
129.5624999999999
 21
50.94598586917801
 31
0.0
  0
LINE
  5
2F3
330
181
100
AcDbEntity
  8
0
 62
     0
100
AcDbLine
 10
129.7499999999999
 20
31.74731131669846
 30
0.0
 11
129.7499999999999
 21
50.72137190935608
 31
0.0
  0
LINE
  5
2F4
330
181
100
AcDbEntity
  8
0
 62
     0
100
AcDbLine
 10
129.9374999999999
 20
32.0416641022199
 30
0.0
 11
129.9374999999999
 21
50.42701912383464
 31
0.0
  0
LINE
  5
2F5
330
181
100
AcDbEntity
  8
0
 62
     0
100
AcDbLine
 10
130.1249999999999
 20
32.48375005474038
 30
0.0
 11
130.1249999999999
 21
49.9849331713142
 31
0.0
  0
ENDBLK
  5
2F7
330
181
100
AcDbEntity
  8
0
100
AcDbBlockEnd
  0
BLOCK
  5
4C40
330
4C36
100
AcDbEntity
  8
0
 62
     0
100
AcDbBlockBegin
  2
*D1
 70
     1
 10
0.0
 20
0.0
 30
0.0
  3
*D1
  1

  0
LINE
  5
4D99
330
4C36
100
AcDbEntity
  8
0
 62
     5
100
AcDbLine
 10
88.56979975742238
 20
175.7302404731388
 30
0.0
 11
51.04755987109259
 21
175.7302404731389
 31
0.0
  0
LINE
  5
4D9A
330
4C36
100
AcDbEntity
  8
0
 62
     5
100
AcDbLine
 10
88.50017876682825
 20
115.7362404731388
 30
0.0
 11
51.04755987109258
 21
115.7362404731388
 31
0.0
  0
LINE
  5
4D9B
330
4C36
100
AcDbEntity
  8
0
 62
     5
100
AcDbLine
 10
51.22755987109258
 20
173.7302404731389
 30
0.0
 11
51.22755987109258
 21
117.7362404731388
 31
0.0
  0
SOLID
  5
4D9C
330
4C36
100
AcDbEntity
  8
0
 62
     5
100
AcDbTrace
 10
50.89422653775925
 20
173.7302404731389
 30
0.0
 11
51.56089320442593
 21
173.7302404731389
 31
0.0
 12
51.22755987109258
 22
175.7302404731389
 32
0.0
 13
51.22755987109258
 23
175.7302404731389
 33
0.0
  0
SOLID
  5
4D9D
330
4C36
100
AcDbEntity
  8
0
 62
     5
100
AcDbTrace
 10
50.89422653775924
 20
117.7362404731388
 30
0.0
 11
51.56089320442592
 21
117.7362404731388
 31
0.0
 12
51.22755987109258
 22
115.7362404731388
 32
0.0
 13
51.22755987109258
 23
115.7362404731388
 33
0.0
  0
MTEXT
  5
4D9E
330
4C36
100
AcDbEntity
  8
0
 62
     5
100
AcDbMText
 10
49.47755987109256
 20
145.7332404731388
 30
0.0
 40
2.5
 41
0.0
 71
     5
 72
     1
  1
\A1;200.3
  7
ROMANT
 11
0.0000000000000001
 21
1.0
 31
0.0
1001
ACAD
1000
MTEXTBEGIN
1070
    73
1070
     1
1070
    44
1040
1.0
1070
    74
1070
     0
1000
MTEXTEND
  0
POINT
  5
4D9F
330
4C36
100
AcDbEntity
  8
DEFPOINTS
 62
     0
100
AcDbPoint
 10
89.19479975742238
 20
175.7302404731388
 30
0.0
  0
POINT
  5
4DA0
330
4C36
100
AcDbEntity
  8
DEFPOINTS
 62
     0
100
AcDbPoint
 10
89.12517876682825
 20
115.7362404731388
 30
0.0
  0
POINT
  5
4DA1
330
4C36
100
AcDbEntity
  8
DEFPOINTS
 62
     0
100
AcDbPoint
 10
51.22755987109258
 20
115.7362404731388
 30
0.0
  0
ENDBLK
  5
4C41
330
4C36
100
AcDbEntity
  8
0
 62
     0
100
AcDbBlockEnd
  0
BLOCK
  5
4C4D
330
4C43
100
AcDbEntity
  8
0
 62
     0
100
AcDbBlockBegin
  2
*D2
 70
     1
 10
0.0
 20
0.0
 30
0.0
  3
*D2
  1

  0
LINE
  5
4D90
330
4C43
100
AcDbEntity
  8
0
 62
     5
100
AcDbLine
 10
152.4884697574225
 20
119.6107904731389
 30
0.0
 11
152.4884697574225
 21
93.39872766151172
 31
0.0
  0
LINE
  5
4D91
330
4C43
100
AcDbEntity
  8
0
 62
     5
100
AcDbLine
 10
83.49536975742259
 20
127.4788101639923
 30
0.0
 11
83.49536975742259
 21
93.39872766151172
 31
0.0
  0
LINE
  5
4D92
330
4C43
100
AcDbEntity
  8
0
 62
     5
100
AcDbLine
 10
150.4884697574225
 20
93.57872766151173
 30
0.0
 11
85.49536975742258
 21
93.57872766151173
 31
0.0
  0
SOLID
  5
4D93
330
4C43
100
AcDbEntity
  8
0
 62
     5
100
AcDbTrace
 10
150.4884697574225
 20
93.91206099484504
 30
0.0
 11
150.4884697574225
 21
93.24539432817839
 31
0.0
 12
152.4884697574225
 22
93.57872766151173
 32
0.0
 13
152.4884697574225
 23
93.57872766151173
 33
0.0
  0
SOLID
  5
4D94
330
4C43
100
AcDbEntity
  8
0
 62
     5
100
AcDbTrace
 10
85.49536975742258
 20
93.91206099484504
 30
0.0
 11
85.49536975742258
 21
93.24539432817839
 31
0.0
 12
83.49536975742259
 22
93.57872766151173
 32
0.0
 13
83.49536975742259
 23
93.57872766151173
 33
0.0
  0
MTEXT
  5
4D95
330
4C43
100
AcDbEntity
  8
0
 62
     5
100
AcDbMText
 10
117.9919197574225
 20
95.32872766151172
 30
0.0
 40
2.5
 41
0.0
 71
     5
 72
     1
  1
\A1;23
  7
ROMANT
1001
ACAD
1000
MTEXTBEGIN
1070
    73
1070
     1
1070
    44
1040
1.0
1070
    74
1070
     0
1000
MTEXTEND
  0
POINT
  5
4D96
330
4C43
100
AcDbEntity
  8
DEFPOINTS
 62
     0
100
AcDbPoint
 10
152.4884697574225
 20
120.2357904731389
 30
0.0
  0
POINT
  5
4D97
330
4C43
100
AcDbEntity
  8
DEFPOINTS
 62
     0
100
AcDbPoint
 10
83.49536975742259
 20
128.1038101639923
 30
0.0
  0
POINT
  5
4D98
330
4C43
100
AcDbEntity
  8
DEFPOINTS
 62
     0
100
AcDbPoint
 10
83.49536975742259
 20
93.57872766151173
 30
0.0
  0
ENDBLK
  5
4C4E
330
4C43
100
AcDbEntity
  8
0
 62
     0
100
AcDbBlockEnd
  0
BLOCK
  5
4C5A
330
4C50
100
AcDbEntity
  8
0
 62
     0
100
AcDbBlockBegin
  2
*D3
 70
     1
 10
0.0
 20
0.0
 30
0.0
  3
*D3
  1

  0
LINE
  5
4D87
330
4C50
100
AcDbEntity
  8
0
 62
     5
100
AcDbLine
 10
119.4917697574225
 20
115.8611654731388
 30
0.0
 11
119.4917697574225
 21
102.9726637977151
 31
0.0
  0
LINE
  5
4D88
330
4C50
100
AcDbEntity
  8
0
 62
     5
100
AcDbLine
 10
83.49536975742259
 20
126.8538101639923
 30
0.0
 11
83.49536975742259
 21
102.9726637977151
 31
0.0
  0
LINE
  5
4D89
330
4C50
100
AcDbEntity
  8
0
 62
     5
100
AcDbLine
 10
117.4917697574225
 20
103.1526637977151
 30
0.0
 11
85.49536975742258
 21
103.1526637977151
 31
0.0
  0
SOLID
  5
4D8A
330
4C50
100
AcDbEntity
  8
0
 62
     5
100
AcDbTrace
 10
117.4917697574225
 20
103.4859971310484
 30
0.0
 11
117.4917697574225
 21
102.8193304643818
 31
0.0
 12
119.4917697574225
 22
103.1526637977151
 32
0.0
 13
119.4917697574225
 23
103.1526637977151
 33
0.0
  0
SOLID
  5
4D8B
330
4C50
100
AcDbEntity
  8
0
 62
     5
100
AcDbTrace
 10
85.49536975742258
 20
103.4859971310484
 30
0.0
 11
85.49536975742258
 21
102.8193304643818
 31
0.0
 12
83.49536975742259
 22
103.1526637977151
 32
0.0
 13
83.49536975742259
 23
103.1526637977151
 33
0.0
  0
MTEXT
  5
4D8C
330
4C50
100
AcDbEntity
  8
0
 62
     5
100
AcDbMText
 10
101.4935697574225
 20
104.9026637977151
 30
0.0
 40
2.5
 41
0.0
 71
     5
 72
     1
  1
\A1;12
  7
ROMANT
1001
ACAD
1000
MTEXTBEGIN
1070
    73
1070
     1
1070
    44
1040
1.0
1070
    74
1070
     0
1000
MTEXTEND
  0
POINT
  5
4D8D
330
4C50
100
AcDbEntity
  8
DEFPOINTS
 62
     0
100
AcDbPoint
 10
119.4917697574225
 20
116.4861654731389
 30
0.0
  0
POINT
  5
4D8E
330
4C50
100
AcDbEntity
  8
DEFPOINTS
 62
     0
100
AcDbPoint
 10
83.49536975742259
 20
127.4788101639923
 30
0.0
  0
POINT
  5
4D8F
330
4C50
100
AcDbEntity
  8
DEFPOINTS
 62
     0
100
AcDbPoint
 10
83.49536975742259
 20
103.1526637977151
 30
0.0
  0
ENDBLK
  5
4C5B
330
4C50
100
AcDbEntity
  8
0
 62
     0
100
AcDbBlockEnd
  0
BLOCK
  5
4C67
330
4C5D
100
AcDbEntity
  8
0
 62
     0
100
AcDbBlockBegin
  2
*D4
 70
     1
 10
0.0
 20
0.0
 30
0.0
  3
*D4
  1

  0
LINE
  5
4DD9
330
4C5D
100
AcDbEntity
  8
0
 62
     5
100
AcDbLine
 10
125.4911697574225
 20
115.1112404731388
 30
0.0
 11
125.4911697574225
 21
102.9726637977151
 31
0.0
  0
LINE
  5
4DDA
330
4C5D
100
AcDbEntity
  8
0
 62
     5
100
AcDbLine
 10
119.4917697574225
 20
115.1112404731388
 30
0.0
 11
119.4917697574225
 21
102.9726637977151
 31
0.0
  0
LINE
  5
4DDB
330
4C5D
100
AcDbEntity
  8
0
 62
     5
100
AcDbLine
 10
123.4911697574225
 20
103.1526637977151
 30
0.0
 11
121.4917697574225
 21
103.1526637977151
 31
0.0
  0
SOLID
  5
4DDC
330
4C5D
100
AcDbEntity
  8
0
 62
     5
100
AcDbTrace
 10
123.4911697574225
 20
103.4859971310484
 30
0.0
 11
123.4911697574225
 21
102.8193304643818
 31
0.0
 12
125.4911697574225
 22
103.1526637977151
 32
0.0
 13
125.4911697574225
 23
103.1526637977151
 33
0.0
  0
SOLID
  5
4DDD
330
4C5D
100
AcDbEntity
  8
0
 62
     5
100
AcDbTrace
 10
121.4917697574225
 20
103.4859971310484
 30
0.0
 11
121.4917697574225
 21
102.8193304643818
 31
0.0
 12
119.4917697574225
 22
103.1526637977151
 32
0.0
 13
119.4917697574225
 23
103.1526637977151
 33
0.0
  0
MTEXT
  5
4DDE
330
4C5D
100
AcDbEntity
  8
0
 62
     5
100
AcDbMText
 10
122.4914697574225
 20
104.9026637977151
 30
0.0
 40
2.5
 41
0.0
 71
     5
 72
     1
  1
\A1;2
  7
ROMANT
1001
ACAD
1000
MTEXTBEGIN
1070
    73
1070
     1
1070
    44
1040
1.0
1070
    74
1070
     0
1000
MTEXTEND
  0
POINT
  5
4DDF
330
4C5D
100
AcDbEntity
  8
DEFPOINTS
 62
     0
100
AcDbPoint
 10
125.4911697574225
 20
115.7362404731388
 30
0.0
  0
POINT
  5
4DE0
330
4C5D
100
AcDbEntity
  8
DEFPOINTS
 62
     0
100
AcDbPoint
 10
119.4917697574225
 20
115.7362404731388
 30
0.0
  0
POINT
  5
4DE1
330
4C5D
100
AcDbEntity
  8
DEFPOINTS
 62
     0
100
AcDbPoint
 10
119.4917697574225
 20
103.1526637977151
 30
0.0
  0
ENDBLK
  5
4C68
330
4C5D
100
AcDbEntity
  8
0
 62
     0
100
AcDbBlockEnd
  0
BLOCK
  5
4C74
330
4C6A
100
AcDbEntity
  8
0
 62
     0
100
AcDbBlockBegin
  2
*D5
 70
     1
 10
0.0
 20
0.0
 30
0.0
  3
*D5
  1

  0
LINE
  5
4DD0
330
4C6A
100
AcDbEntity
  8
0
 62
     5
100
AcDbLine
 10
134.4902697574225
 20
115.1112404731388
 30
0.0
 11
134.4902697574225
 21
102.9726637977151
 31
0.0
  0
LINE
  5
4DD1
330
4C6A
100
AcDbEntity
  8
0
 62
     5
100
AcDbLine
 10
125.4911697574225
 20
115.1112404731388
 30
0.0
 11
125.4911697574225
 21
102.9726637977151
 31
0.0
  0
LINE
  5
4DD2
330
4C6A
100
AcDbEntity
  8
0
 62
     5
100
AcDbLine
 10
132.4902697574225
 20
103.1526637977151
 30
0.0
 11
127.4911697574225
 21
103.1526637977151
 31
0.0
  0
SOLID
  5
4DD3
330
4C6A
100
AcDbEntity
  8
0
 62
     5
100
AcDbTrace
 10
132.4902697574225
 20
103.4859971310484
 30
0.0
 11
132.4902697574225
 21
102.8193304643818
 31
0.0
 12
134.4902697574225
 22
103.1526637977151
 32
0.0
 13
134.4902697574225
 23
103.1526637977151
 33
0.0
  0
SOLID
  5
4DD4
330
4C6A
100
AcDbEntity
  8
0
 62
     5
100
AcDbTrace
 10
127.4911697574225
 20
103.4859971310484
 30
0.0
 11
127.4911697574225
 21
102.8193304643818
 31
0.0
 12
125.4911697574225
 22
103.1526637977151
 32
0.0
 13
125.4911697574225
 23
103.1526637977151
 33
0.0
  0
MTEXT
  5
4DD5
330
4C6A
100
AcDbEntity
  8
0
 62
     5
100
AcDbMText
 10
129.9907197574225
 20
104.9026637977151
 30
0.0
 40
2.5
 41
0.0
 71
     5
 72
     1
  1
\A1;3
  7
ROMANT
1001
ACAD
1000
MTEXTBEGIN
1070
    73
1070
     1
1070
    44
1040
1.0
1070
    74
1070
     0
1000
MTEXTEND
  0
POINT
  5
4DD6
330
4C6A
100
AcDbEntity
  8
DEFPOINTS
 62
     0
100
AcDbPoint
 10
134.4902697574225
 20
115.7362404731388
 30
0.0
  0
POINT
  5
4DD7
330
4C6A
100
AcDbEntity
  8
DEFPOINTS
 62
     0
100
AcDbPoint
 10
125.4911697574225
 20
115.7362404731388
 30
0.0
  0
POINT
  5
4DD8
330
4C6A
100
AcDbEntity
  8
DEFPOINTS
 62
     0
100
AcDbPoint
 10
125.4911697574225
 20
103.1526637977151
 30
0.0
  0
ENDBLK
  5
4C75
330
4C6A
100
AcDbEntity
  8
0
 62
     0
100
AcDbBlockEnd
  0
BLOCK
  5
4C81
330
4C77
100
AcDbEntity
  8
0
 62
     0
100
AcDbBlockBegin
  2
*D6
 70
     1
 10
0.0
 20
0.0
 30
0.0
  3
*D6
  1

  0
LINE
  5
4DE2
330
4C77
100
AcDbEntity
  8
0
 62
     5
100
AcDbLine
 10
140.4896697574225
 20
115.1112404731388
 30
0.0
 11
140.4896697574225
 21
102.9726637977151
 31
0.0
  0
LINE
  5
4DE3
330
4C77
100
AcDbEntity
  8
0
 62
     5
100
AcDbLine
 10
134.4902697574225
 20
115.1112404731388
 30
0.0
 11
134.4902697574225
 21
102.9726637977151
 31
0.0
  0
LINE
  5
4DE4
330
4C77
100
AcDbEntity
  8
0
 62
     5
100
AcDbLine
 10
138.4896697574225
 20
103.1526637977151
 30
0.0
 11
136.4902697574225
 21
103.1526637977151
 31
0.0
  0
SOLID
  5
4DE5
330
4C77
100
AcDbEntity
  8
0
 62
     5
100
AcDbTrace
 10
138.4896697574225
 20
103.4859971310484
 30
0.0
 11
138.4896697574225
 21
102.8193304643818
 31
0.0
 12
140.4896697574225
 22
103.1526637977151
 32
0.0
 13
140.4896697574225
 23
103.1526637977151
 33
0.0
  0
SOLID
  5
4DE6
330
4C77
100
AcDbEntity
  8
0
 62
     5
100
AcDbTrace
 10
136.4902697574225
 20
103.4859971310484
 30
0.0
 11
136.4902697574225
 21
102.8193304643818
 31
0.0
 12
134.4902697574225
 22
103.1526637977151
 32
0.0
 13
134.4902697574225
 23
103.1526637977151
 33
0.0
  0
MTEXT
  5
4DE7
330
4C77
100
AcDbEntity
  8
0
 62
     5
100
AcDbMText
 10
137.4899697574225
 20
104.9026637977151
 30
0.0
 40
2.5
 41
0.0
 71
     5
 72
     1
  1
\A1;2
  7
ROMANT
1001
ACAD
1000
MTEXTBEGIN
1070
    73
1070
     1
1070
    44
1040
1.0
1070
    74
1070
     0
1000
MTEXTEND
  0
POINT
  5
4DE8
330
4C77
100
AcDbEntity
  8
DEFPOINTS
 62
     0
100
AcDbPoint
 10
140.4896697574225
 20
115.7362404731388
 30
0.0
  0
POINT
  5
4DE9
330
4C77
100
AcDbEntity
  8
DEFPOINTS
 62
     0
100
AcDbPoint
 10
134.4902697574225
 20
115.7362404731388
 30
0.0
  0
POINT
  5
4DEA
330
4C77
100
AcDbEntity
  8
DEFPOINTS
 62
     0
100
AcDbPoint
 10
134.4902697574225
 20
103.1526637977151
 30
0.0
  0
ENDBLK
  5
4C82
330
4C77
100
AcDbEntity
  8
0
 62
     0
100
AcDbBlockEnd
  0
BLOCK
  5
4C8E
330
4C84
100
AcDbEntity
  8
0
 62
     0
100
AcDbBlockBegin
  2
*D7
 70
     1
 10
0.0
 20
0.0
 30
0.0
  3
*D7
  1

  0
LINE
  5
4DC7
330
4C84
100
AcDbEntity
  8
0
 62
     5
100
AcDbLine
 10
140.4896697574225
 20
116.6110904731389
 30
0.0
 11
140.4896697574225
 21
102.9726637977151
 31
0.0
  0
LINE
  5
4DC8
330
4C84
100
AcDbEntity
  8
0
 62
     5
100
AcDbLine
 10
152.4884697574225
 20
121.1106404731389
 30
0.0
 11
152.4884697574225
 21
102.9726637977151
 31
0.0
  0
LINE
  5
4DC9
330
4C84
100
AcDbEntity
  8
0
 62
     5
100
AcDbLine
 10
142.4896697574225
 20
103.1526637977151
 30
0.0
 11
150.4884697574225
 21
103.1526637977151
 31
0.0
  0
SOLID
  5
4DCA
330
4C84
100
AcDbEntity
  8
0
 62
     5
100
AcDbTrace
 10
142.4896697574225
 20
103.4859971310484
 30
0.0
 11
142.4896697574225
 21
102.8193304643818
 31
0.0
 12
140.4896697574225
 22
103.1526637977151
 32
0.0
 13
140.4896697574225
 23
103.1526637977151
 33
0.0
  0
SOLID
  5
4DCB
330
4C84
100
AcDbEntity
  8
0
 62
     5
100
AcDbTrace
 10
150.4884697574225
 20
103.4859971310484
 30
0.0
 11
150.4884697574225
 21
102.8193304643818
 31
0.0
 12
152.4884697574225
 22
103.1526637977151
 32
0.0
 13
152.4884697574225
 23
103.1526637977151
 33
0.0
  0
MTEXT
  5
4DCC
330
4C84
100
AcDbEntity
  8
0
 62
     5
100
AcDbMText
 10
146.4890697574225
 20
104.9026637977151
 30
0.0
 40
2.5
 41
0.0
 71
     5
 72
     1
  1
\A1;4
  7
ROMANT
1001
ACAD
1000
MTEXTBEGIN
1070
    73
1070
     1
1070
    44
1040
1.0
1070
    74
1070
     0
1000
MTEXTEND
  0
POINT
  5
4DCD
330
4C84
100
AcDbEntity
  8
DEFPOINTS
 62
     0
100
AcDbPoint
 10
140.4896697574225
 20
117.2360904731389
 30
0.0
  0
POINT
  5
4DCE
330
4C84
100
AcDbEntity
  8
DEFPOINTS
 62
     0
100
AcDbPoint
 10
152.4884697574225
 20
121.7356404731389
 30
0.0
  0
POINT
  5
4DCF
330
4C84
100
AcDbEntity
  8
DEFPOINTS
 62
     0
100
AcDbPoint
 10
152.4884697574225
 20
103.1526637977151
 30
0.0
  0
ENDBLK
  5
4C8F
330
4C84
100
AcDbEntity
  8
0
 62
     0
100
AcDbBlockEnd
  0
BLOCK
  5
4C9C
330
4C91
100
AcDbEntity
  8
0
 62
     0
100
AcDbBlockBegin
  2
*D8
 70
     1
 10
0.0
 20
0.0
 30
0.0
  3
*D8
  1

  0
LINE
  5
4DBD
330
4C91
100
AcDbEntity
  8
0
 62
     5
100
AcDbLine
 10
138.1149697574225
 20
117.2360904731389
 30
0.0
 11
162.5223743296746
 21
117.2360904731388
 31
0.0
  0
LINE
  5
4DBE
330
4C91
100
AcDbEntity
  8
0
 62
     5
100
AcDbLine
 10
145.6142197574226
 20
115.7362404731388
 30
0.0
 11
162.5223743296746
 21
115.7362404731388
 31
0.0
  0
LINE
  5
4DBF
330
4C91
100
AcDbEntity
  8
0
 62
     5
100
AcDbLine
 10
162.3423743296746
 20
119.2360904731389
 30
0.0
 11
162.3423743296746
 21
121.2360904731389
 31
0.0
  0
LINE
  5
4DC0
330
4C91
100
AcDbEntity
  8
0
 62
     5
100
AcDbLine
 10
162.3423743296746
 20
113.7362404731388
 30
0.0
 11
162.3423743296746
 21
105.1939623455996
 31
0.0
  0
SOLID
  5
4DC1
330
4C91
100
AcDbEntity
  8
0
 62
     5
100
AcDbTrace
 10
162.0090409963412
 20
119.2360904731389
 30
0.0
 11
162.6757076630079
 21
119.2360904731389
 31
0.0
 12
162.3423743296746
 22
117.2360904731388
 32
0.0
 13
162.3423743296746
 23
117.2360904731388
 33
0.0
  0
SOLID
  5
4DC2
330
4C91
100
AcDbEntity
  8
0
 62
     5
100
AcDbTrace
 10
162.0090409963412
 20
113.7362404731388
 30
0.0
 11
162.6757076630079
 21
113.7362404731388
 31
0.0
 12
162.3423743296746
 22
115.7362404731388
 32
0.0
 13
162.3423743296746
 23
115.7362404731388
 33
0.0
  0
MTEXT
  5
4DC3
330
4C91
100
AcDbEntity
  8
0
 62
     5
100
AcDbMText
 10
160.5923743296745
 20
108.4651014093692
 30
0.0
 40
2.5
 41
0.0
 71
     5
 72
     1
  1
\A1;0.5
  7
ROMANT
 11
0.0000000000000001
 21
1.0
 31
0.0
1001
ACAD
1000
MTEXTBEGIN
1070
    73
1070
     1
1070
    44
1040
1.0
1070
    74
1070
     0
1000
MTEXTEND
  0
POINT
  5
4DC4
330
4C91
100
AcDbEntity
  8
DEFPOINTS
 62
     0
100
AcDbPoint
 10
137.4899697574225
 20
117.2360904731389
 30
0.0
  0
POINT
  5
4DC5
330
4C91
100
AcDbEntity
  8
DEFPOINTS
 62
     0
100
AcDbPoint
 10
144.9892197574226
 20
115.7362404731388
 30
0.0
  0
POINT
  5
4DC6
330
4C91
100
AcDbEntity
  8
DEFPOINTS
 62
     0
100
AcDbPoint
 10
162.3423743296746
 20
115.7362404731388
 30
0.0
  0
ENDBLK
  5
4C9D
330
4C91
100
AcDbEntity
  8
0
 62
     0
100
AcDbBlockEnd
  0
BLOCK
  5
4CA9
330
4C9F
100
AcDbEntity
  8
0
 62
     0
100
AcDbBlockBegin
  2
*D9
 70
     1
 10
0.0
 20
0.0
 30
0.0
  3
*D9
  1

  0
LINE
  5
4DEB
330
4C9F
100
AcDbEntity
  8
0
 62
     5
100
AcDbLine
 10
153.1134697574225
 20
121.7356404731389
 30
0.0
 11
169.156094477158
 21
121.7356404731388
 31
0.0
  0
LINE
  5
4DEC
330
4C9F
100
AcDbEntity
  8
0
 62
     5
100
AcDbLine
 10
146.2392197574225
 20
115.7362404731388
 30
0.0
 11
169.156094477158
 21
115.7362404731388
 31
0.0
  0
LINE
  5
4DED
330
4C9F
100
AcDbEntity
  8
0
 62
     5
100
AcDbLine
 10
168.976094477158
 20
119.7356404731388
 30
0.0
 11
168.976094477158
 21
117.7362404731388
 31
0.0
  0
SOLID
  5
4DEE
330
4C9F
100
AcDbEntity
  8
0
 62
     5
100
AcDbTrace
 10
168.6427611438247
 20
119.7356404731388
 30
0.0
 11
169.3094278104914
 21
119.7356404731388
 31
0.0
 12
168.976094477158
 22
121.7356404731388
 32
0.0
 13
168.976094477158
 23
121.7356404731388
 33
0.0
  0
SOLID
  5
4DEF
330
4C9F
100
AcDbEntity
  8
0
 62
     5
100
AcDbTrace
 10
168.6427611438247
 20
117.7362404731388
 30
0.0
 11
169.3094278104914
 21
117.7362404731388
 31
0.0
 12
168.976094477158
 22
115.7362404731388
 32
0.0
 13
168.976094477158
 23
115.7362404731388
 33
0.0
  0
MTEXT
  5
4DF0
330
4C9F
100
AcDbEntity
  8
0
 62
     5
100
AcDbMText
 10
167.226094477158
 20
118.7359404731389
 30
0.0
 40
2.5
 41
0.0
 71
     5
 72
     1
  1
\A1;2
  7
ROMANT
 11
0.0000000000000001
 21
1.0
 31
0.0
1001
ACAD
1000
MTEXTBEGIN
1070
    73
1070
     1
1070
    44
1040
1.0
1070
    74
1070
     0
1000
MTEXTEND
  0
POINT
  5
4DF1
330
4C9F
100
AcDbEntity
  8
DEFPOINTS
 62
     0
100
AcDbPoint
 10
152.4884697574225
 20
121.7356404731389
 30
0.0
  0
POINT
  5
4DF2
330
4C9F
100
AcDbEntity
  8
DEFPOINTS
 62
     0
100
AcDbPoint
 10
145.6142197574226
 20
115.7362404731388
 30
0.0
  0
POINT
  5
4DF3
330
4C9F
100
AcDbEntity
  8
DEFPOINTS
 62
     0
100
AcDbPoint
 10
168.976094477158
 20
115.7362404731388
 30
0.0
  0
ENDBLK
  5
4CAA
330
4C9F
100
AcDbEntity
  8
0
 62
     0
100
AcDbBlockEnd
  0
BLOCK
  5
4CB4
330
4CAC
100
AcDbEntity
  8
0
 62
     0
100
AcDbBlockBegin
  2
*D10
 70
     1
 10
0.0
 20
0.0
 30
0.0
  3
*D10
  1

  0
LINE
  5
4DA2
330
4CAC
100
AcDbEntity
  8
0
 62
     5
100
AcDbLine
 10
72.59687074233261
 20
120.4907048704263
 30
0.0
 11
82.1237320672186
 21
122.7645978684806
 31
0.0
  0
MTEXT
  5
4DA3
330
4CAC
100
AcDbEntity
  8
0
 62
     5
100
AcDbMText
 10
75.1449192815194
 20
122.8980365656883
 30
0.0
 40
2.5
 41
0.0
 71
     5
 72
     1
  1
\A1;R7
  7
ROMANT
 11
0.9726774049023594
 21
0.2321608623183755
 31
0.0
1001
ACAD
1000
MTEXTBEGIN
1070
    73
1070
     1
1070
    44
1040
1.0
1070
    74
1070
     0
1000
MTEXTEND
  0
SOLID
  5
4DA4
330
4CAC
100
AcDbEntity
  8
0
 62
     5
100
AcDbTrace
 10
82.04634511311246
 20
123.0888236701147
 30
0.0
 11
82.20111902132471
 21
122.4403720668465
 31
0.0
 12
84.06908687702332
 22
123.2289195931173
 32
0.0
 13
84.06908687702332
 23
123.2289195931173
 33
0.0
  0
LINE
  5
4DA5
330
4CAC
100
AcDbEntity
  8
0
 62
     5
100
AcDbLine
 10
104.3562697574222
 20
128.1038101639923
 30
0.0
 11
104.6302697574222
 21
128.1038101639923
 31
0.0
  0
LINE
  5
4DA6
330
4CAC
100
AcDbEntity
  8
0
 62
     5
100
AcDbLine
 10
104.4932697574222
 20
127.9668101639922
 30
0.0
 11
104.4932697574222
 21
128.2408101639923
 31
0.0
  0
POINT
  5
4DA7
330
4CAC
100
AcDbEntity
  8
DEFPOINTS
 62
     0
100
AcDbPoint
 10
84.06908687702332
 20
123.2289195931173
 30
0.0
  0
POINT
  5
4DA8
330
4CAC
100
AcDbEntity
  8
DEFPOINTS
 62
     0
100
AcDbPoint
 10
104.4932697574222
 20
128.1038101639923
 30
0.0
  0
ENDBLK
  5
4CB5
330
4CAC
100
AcDbEntity
  8
0
 62
     0
100
AcDbBlockEnd
  0
BLOCK
  5
4CBD
330
4CB7
100
AcDbEntity
  8
0
 62
     0
100
AcDbBlockBegin
  2
*D11
 70
     1
 10
0.0
 20
0.0
 30
0.0
  3
*D11
  1

  0
LINE
  5
4DA9
330
4CB7
100
AcDbEntity
  8
0
 62
     5
100
AcDbLine
 10
99.78590140668096
 20
131.7005338265886
 30
0.0
 11
91.77158828399445
 21
124.0448026643445
 31
0.0
  0
MTEXT
  5
4DAA
330
4CB7
100
AcDbEntity
  8
0
 62
     5
100
AcDbMText
 10
96.63906763754923
 20
131.1146387509161
 30
0.0
 40
2.5
 41
0.0
 71
     5
 72
     1
  1
\A1;R1
  7
ROMANT
 11
0.7230984029489136
 21
0.6907450323040556
 31
0.0
1001
ACAD
1000
MTEXTBEGIN
1070
    73
1070
     1
1070
    44
1040
1.0
1070
    74
1070
     0
1000
MTEXTEND
  0
SOLID
  5
4DAB
330
4CB7
100
AcDbEntity
  8
0
 62
     5
100
AcDbTrace
 10
91.5413399398931
 20
124.2858354653275
 30
0.0
 11
92.0018366280958
 21
123.8037698633615
 31
0.0
 12
90.32539147809663
 22
122.6633125997364
 32
0.0
 13
90.32539147809663
 23
122.6633125997364
 33
0.0
  0
POINT
  5
4DAC
330
4CB7
100
AcDbEntity
  8
DEFPOINTS
 62
     0
100
AcDbPoint
 10
90.32539147809663
 20
122.6633125997364
 30
0.0
  0
POINT
  5
4DAD
330
4CB7
100
AcDbEntity
  8
DEFPOINTS
 62
     0
100
AcDbPoint
 10
92.49446975742253
 20
124.7353404731389
 30
0.0
  0
ENDBLK
  5
4CBE
330
4CB7
100
AcDbEntity
  8
0
 62
     0
100
AcDbBlockEnd
  0
BLOCK
  5
4D32
330
4D27
100
AcDbEntity
  8
0
 62
     0
100
AcDbBlockBegin
  2
*D12
 70
     1
 10
0.0
 20
0.0
 30
0.0
  3
*D12
  1

  0
LINE
  5
4DB3
330
4D27
100
AcDbEntity
  8
0
 62
     5
100
AcDbLine
 10
86.25436466101621
 20
171.541138545014
 30
0.0
 11
86.25436466101621
 21
179.7400379921647
 31
0.0
  0
LINE
  5
4DB4
330
4D27
100
AcDbEntity
  8
0
 62
     5
100
AcDbLine
 10
89.49476975742248
 20
176.3552404731389
 30
0.0
 11
89.49476975742248
 21
179.7400379921647
 31
0.0
  0
LINE
  5
4DB5
330
4D27
100
AcDbEntity
  8
0
 62
     5
100
AcDbLine
 10
84.2543646610162
 20
179.5600379921647
 30
0.0
 11
82.25436466101621
 21
179.5600379921647
 31
0.0
  0
LINE
  5
4DB6
330
4D27
100
AcDbEntity
  8
0
 62
     5
100
AcDbLine
 10
91.49476975742249
 20
179.5600379921647
 30
0.0
 11
99.56940464326221
 21
179.5600379921647
 31
0.0
  0
SOLID
  5
4DB7
330
4D27
100
AcDbEntity
  8
0
 62
     5
100
AcDbTrace
 10
84.2543646610162
 20
179.8933713254981
 30
0.0
 11
84.2543646610162
 21
179.2267046588314
 31
0.0
 12
86.25436466101621
 22
179.5600379921647
 32
0.0
 13
86.25436466101621
 23
179.5600379921647
 33
0.0
  0
SOLID
  5
4DB8
330
4D27
100
AcDbEntity
  8
0
 62
     5
100
AcDbTrace
 10
91.49476975742249
 20
179.8933713254981
 30
0.0
 11
91.49476975742249
 21
179.2267046588314
 31
0.0
 12
89.49476975742248
 22
179.5600379921647
 32
0.0
 13
89.49476975742248
 23
179.5600379921647
 33
0.0
  0
MTEXT
  5
4DB9
330
4D27
100
AcDbEntity
  8
0
 62
     5
100
AcDbMText
 10
96.53208720034236
 20
181.3100379921647
 30
0.0
 40
2.5
 41
0.0
 71
     5
 72
     1
  1
\A1;1.1
  7
ROMANT
1001
ACAD
1000
MTEXTBEGIN
1070
    73
1070
     1
1070
    44
1040
1.0
1070
    74
1070
     0
1000
MTEXTEND
  0
POINT
  5
4DBA
330
4D27
100
AcDbEntity
  8
DEFPOINTS
 62
     0
100
AcDbPoint
 10
86.25436466101621
 20
170.916138545014
 30
0.0
  0
POINT
  5
4DBB
330
4D27
100
AcDbEntity
  8
DEFPOINTS
 62
     0
100
AcDbPoint
 10
89.49476975742248
 20
175.7302404731388
 30
0.0
  0
POINT
  5
4DBC
330
4D27
100
AcDbEntity
  8
DEFPOINTS
 62
     0
100
AcDbPoint
 10
89.49476975742248
 20
179.5600379921647
 30
0.0
  0
ENDBLK
  5
4D33
330
4D27
100
AcDbEntity
  8
0
 62
     0
100
AcDbBlockEnd
  0
BLOCK
  5
4D4E
330
4D48
100
AcDbEntity
  8
0
 62
     0
100
AcDbBlockBegin
  2
*D13
 70
     1
 10
0.0
 20
0.0
 30
0.0
  3
*D13
  1

  0
LINE
  5
4DAE
330
4D48
100
AcDbEntity
  8
0
 62
     5
100
AcDbLine
 10
100.8017517985982
 20
165.7554322234835
 30
0.0
 11
88.76898304757693
 21
172.5922983928325
 31
0.0
  0
MTEXT
  5
4DAF
330
4D48
100
AcDbEntity
  8
0
 62
     5
100
AcDbMText
 10
99.08093413684246
 20
168.745935168046
 30
0.0
 40
2.5
 41
0.0
 71
     5
 72
     1
  1
\A1;R2
  7
ROMANT
 11
0.8694545170033062
 21
-0.4940129986777149
 31
0.0
1001
ACAD
1000
MTEXTBEGIN
1070
    73
1070
     1
1070
    44
1040
1.0
1070
    74
1070
     0
1000
MTEXTEND
  0
SOLID
  5
4DB0
330
4D48
100
AcDbEntity
  8
0
 62
     5
100
AcDbTrace
 10
88.93365404713618
 20
172.8821165651669
 30
0.0
 11
88.60431204801768
 21
172.302480220498
 31
0.0
 12
87.03007401357032
 22
173.5803243901879
 32
0.0
 13
87.03007401357032
 23
173.5803243901879
 33
0.0
  0
POINT
  5
4DB1
330
4D48
100
AcDbEntity
  8
DEFPOINTS
 62
     0
100
AcDbPoint
 10
87.03007401357032
 20
173.5803243901879
 30
0.0
  0
POINT
  5
4DB2
330
4D48
100
AcDbEntity
  8
DEFPOINTS
 62
     0
100
AcDbPoint
 10
92.24627944288014
 20
170.6165428059207
 30
0.0
  0
ENDBLK
  5
4D4F
330
4D48
100
AcDbEntity
  8
0
 62
     0
100
AcDbBlockEnd
  0
BLOCK
  5
4D5B
330
4D51
100
AcDbEntity
  8
0
 62
     0
100
AcDbBlockBegin
  2
*D14
 70
     1
 10
0.0
 20
0.0
 30
0.0
  3
*D14
  1

  0
ARC
  5
4D7E
330
4D51
100
AcDbEntity
  8
0
 62
     5
100
AcDbCircle
 10
89.49476975742248
 20
121.7356404731389
 30
0.0
 40
29.66418072030844
100
AcDbArc
 50
3.863692547501288
 51
86.13630745249855
  0
SOLID
  5
4D7F
330
4D51
100
AcDbEntity
  8
0
 62
     5
100
AcDbTrace
 10
119.4246729754789
 20
123.7457406361411
 30
0.0
 11
118.7583852200323
 21
123.723266842816
 31
0.0
 12
119.1589504777309
 22
121.7356404731388
 32
0.0
 13
119.1589504777309
 23
121.7356404731388
 33
0.0
  0
SOLID
  5
4D80
330
4D51
100
AcDbEntity
  8
0
 62
     5
100
AcDbTrace
 10
91.4823961270997
 20
150.9992559357487
 30
0.0
 11
91.50486992042479
 21
151.6655436911953
 31
0.0
 12
89.49476975742253
 22
151.3998211934473
 32
0.0
 13
89.49476975742253
 23
151.3998211934473
 33
0.0
  0
MTEXT
  5
4D81
330
4D51
100
AcDbEntity
  8
0
 62
     5
100
AcDbMText
 10
111.7079499701723
 20
143.9488206858887
 30
0.0
 40
2.5
 41
0.0
 71
     5
 72
     1
  1
\A1;90
  7
ROMANT
 11
0.7071067811865476
 21
-0.7071067811865475
 31
0.0
1001
ACAD
1000
MTEXTBEGIN
1070
    73
1070
     1
1070
    44
1040
1.0
1070
    74
1070
     0
1000
MTEXTEND
  0
POINT
  5
4D82
330
4D51
100
AcDbEntity
  8
DEFPOINTS
 62
     0
100
AcDbPoint
 10
115.1847038436622
 20
136.567730833293
 30
0.0
  0
POINT
  5
4D83
330
4D51
100
AcDbEntity
  8
DEFPOINTS
 62
     0
100
AcDbPoint
 10
89.49476975742248
 20
175.7302404731388
 30
0.0
  0
POINT
  5
4D84
330
4D51
100
AcDbEntity
  8
DEFPOINTS
 62
     0
100
AcDbPoint
 10
92.49446975742239
 20
121.7356404731388
 30
0.0
  0
POINT
  5
4D85
330
4D51
100
AcDbEntity
  8
DEFPOINTS
 62
     0
100
AcDbPoint
 10
152.4884697574225
 20
121.7356404731388
 30
0.0
  0
POINT
  5
4D86
330
4D51
100
AcDbEntity
  8
DEFPOINTS
 62
     0
100
AcDbPoint
 10
89.49476975742248
 20
124.7353404731389
 30
0.0
  0
ENDBLK
  5
4D5C
330
4D51
100
AcDbEntity
  8
0
 62
     0
100
AcDbBlockEnd
  0
ENDSEC
  0
SECTION
  2
ENTITIES
  0
POLYLINE
  5
4C33
330
2
100
AcDbEntity
  8
0
100
AcDb2dPolyline
 66
     1
 10
0.0
 20
0.0
 30
0.0
 70
     1
  0
VERTEX
  5
4E08
330
4C33
100
AcDbEntity
  8
0
100
AcDbVertex
100
AcDb2dVertex
 10
164.0682487756046
 20
215.6136388184246
 30
0.0
  0
VERTEX
  5
4E09
330
4C33
100
AcDbEntity
  8
0
100
AcDbVertex
100
AcDb2dVertex
 10
162.0684487756046
 20
215.6136388184246
 30
0.0
  0
VERTEX
  5
4E0A
330
4C33
100
AcDbEntity
  8
0
100
AcDbVertex
100
AcDb2dVertex
 10
162.0684487756046
 20
215.1136888184246
 30
0.0
  0
VERTEX
  5
4E0B
330
4C33
100
AcDbEntity
  8
0
100
AcDbVertex
100
AcDb2dVertex
 10
151.9462517787398
 20
215.1136888184246
 30
0.0
 42
-0.26157538379983
  0
VERTEX
  5
4E0C
330
4C33
100
AcDbEntity
  8
0
100
AcDbVertex
100
AcDb2dVertex
 10
151.092468945929
 20
215.5931516133771
 30
0.0
 42
-0.1999884205462641
  0
VERTEX
  5
4E0D
330
4C33
100
AcDbEntity
  8
0
100
AcDbVertex
100
AcDb2dVertex
 10
150.2737950256046
 20
220.914331831043
 30
0.0
 42
0.0606024944992206
  0
VERTEX
  5
4E0E
330
4C33
100
AcDbEntity
  8
0
100
AcDbVertex
100
AcDb2dVertex
 10
150.4196137756046
 20
222.1129888184246
 30
0.0
  0
VERTEX
  5
4E0F
330
4C33
100
AcDbEntity
  8
0
100
AcDbVertex
100
AcDb2dVertex
 10
150.9893137434691
 20
233.5069881757163
 30
0.0
 42
-0.2436188449554836
  0
VERTEX
  5
4E10
330
4C33
100
AcDbEntity
  8
0
100
AcDbVertex
100
AcDb2dVertex
 10
151.9159240442808
 20
235.0961501810074
 30
0.0
 42
-0.1421924254784566
  0
VERTEX
  5
4E11
330
4C33
100
AcDbEntity
  8
0
100
AcDbVertex
100
AcDb2dVertex
 10
151.9694587756046
 20
235.1116888184245
 30
0.0
  0
VERTEX
  5
4E12
330
4C33
100
AcDbEntity
  8
0
100
AcDbVertex
100
AcDb2dVertex
 10
152.0694487756045
 20
235.1116888184245
 30
0.0
  0
VERTEX
  5
4E13
330
4C33
100
AcDbEntity
  8
0
100
AcDbVertex
100
AcDb2dVertex
 10
152.0694487756045
 20
218.1133888184246
 30
0.0
 42
0.4142135623730948
  0
VERTEX
  5
4E14
330
4C33
100
AcDbEntity
  8
0
100
AcDbVertex
100
AcDb2dVertex
 10
153.0693487756045
 20
217.1134888184246
 30
0.0
  0
VERTEX
  5
4E15
330
4C33
100
AcDbEntity
  8
0
100
AcDbVertex
100
AcDb2dVertex
 10
173.0673487756046
 20
217.1134888184246
 30
0.0
  0
VERTEX
  5
4E16
330
4C33
100
AcDbEntity
  8
0
100
AcDbVertex
100
AcDb2dVertex
 10
173.0673487756046
 20
216.1135888184245
 30
0.0
 42
-0.4142135623730946
  0
VERTEX
  5
4E17
330
4C33
100
AcDbEntity
  8
0
100
AcDbVertex
100
AcDb2dVertex
 10
172.0674487756046
 20
215.1136888184246
 30
0.0
  0
VERTEX
  5
4E18
330
4C33
100
AcDbEntity
  8
0
100
AcDbVertex
100
AcDb2dVertex
 10
169.0677487756046
 20
215.1136888184246
 30
0.0
  0
VERTEX
  5
4E19
330
4C33
100
AcDbEntity
  8
0
100
AcDbVertex
100
AcDb2dVertex
 10
169.0677487756046
 20
215.6136388184246
 30
0.0
  0
VERTEX
  5
4E1A
330
4C33
100
AcDbEntity
  8
0
100
AcDbVertex
100
AcDb2dVertex
 10
167.0679487756046
 20
215.6136388184246
 30
0.0
  0
VERTEX
  5
4E1B
330
4C33
100
AcDbEntity
  8
0
100
AcDbVertex
100
AcDb2dVertex
 10
167.0679487756046
 20
215.1136888184246
 30
0.0
  0
VERTEX
  5
4E1C
330
4C33
100
AcDbEntity
  8
0
100
AcDbVertex
100
AcDb2dVertex
 10
164.0682487756046
 20
215.1136888184246
 30
0.0
  0
SEQEND
  5
4E1D
330
4C33
100
AcDbEntity
  8
0
  0
ENDSEC
  0
SECTION
  2
OBJECTS
  0
DICTIONARY
  5
7
330
0
100
AcDbDictionary
  3
ACAD_GROUP
350
20
  3
ACAD_LAYOUT
350
B
  3
ACAD_MLINESTYLE
350
21
  3
ACAD_PLOTSETTINGS
350
22
1001
ACAD
1000
TREAT_AS_HARD
1070
     0
  0
DICTIONARY
  5
4E04
330
2
100
AcDbDictionary
  3
ACAD_LAYOUTSELFREF
350
4E05
  0
DICTIONARY
  5
4E06
330
C
100
AcDbDictionary
  3
ACAD_LAYOUTSELFREF
350
4E07
  0
DICTIONARY
  5
20
102
{ACAD_REACTORS
330
7
102
}
330
7
100
AcDbDictionary
1001
ACAD
1000
TREAT_AS_HARD
1070
     0
  0
DICTIONARY
  5
B
102
{ACAD_REACTORS
330
7
102
}
330
7
100
AcDbDictionary
1001
ACAD
1000
TREAT_AS_HARD
1070
     0
  0
DICTIONARY
  5
21
102
{ACAD_REACTORS
330
7
102
}
330
7
100
AcDbDictionary
  3
STANDARD
350
23
1001
ACAD
1000
TREAT_AS_HARD
1070
     0
  0
DICTIONARY
  5
22
102
{ACAD_REACTORS
330
7
102
}
330
7
100
AcDbDictionary
1001
ACAD
1000
TREAT_AS_HARD
1070
     0
  0
XRECORD
  5
4E05
102
{ACAD_REACTORS
330
4E04
102
}
330
4E04
100
AcDbXrecord
340
2
  0
XRECORD
  5
4E07
102
{ACAD_REACTORS
330
4E06
102
}
330
4E06
100
AcDbXrecord
340
C
  0
MLINESTYLE
  5
23
102
{ACAD_REACTORS
330
21
102
}
330
21
100
AcDbMlineStyle
  2
STANDARD
 70
     0
  3

 62
   256
 51
90.0
 52
90.0
 71
     2
 49
0.5
 62
   256
  6
BYLAYER
 49
-0.5
 62
   256
  6
BYLAYER
  0
ENDSEC
  0
EOF
