  0
SECTION
  2
HEADER
  9
$ACADVER
  1
AC1012
  9
$DWGCODEPAGE
  3
ANSI_1252
  9
$INSBASE
 10
0.0
 20
0.0
 30
0.0
  9
$EXTMIN
 10
128.5055820800124
 20
207.2339997374881
 30
-0.0000000000000053
  9
$EXTMAX
 10
177.2461526406539
 20
241.427438730043
 30
0.0000000000000099
  9
$LIMMIN
 10
0.0
 20
0.0
  9
$LIMMAX
 10
12.0
 20
9.0
  9
$ORTHOMODE
 70
     1
  9
$REGENMODE
 70
     1
  9
$FILLMODE
 70
     1
  9
$QTEXTMODE
 70
     0
  9
$MIRRTEXT
 70
     1
  9
$DRAGMODE
 70
     2
  9
$LTSCALE
 40
15.0
  9
$OSMODE
 70
    37
  9
$ATTMODE
 70
     1
  9
$TEXTSIZE
 40
0.2
  9
$TRACEWID
 40
0.05
  9
$TEXTSTYLE
  7
STANDARD
  9
$CLAYER
  8
0
  9
$CELTYPE
  6
BYBLOCK
  9
$CECOLOR
 62
     0
  9
$CELTSCALE
 40
1.0
  9
$DELOBJ
 70
     1
  9
$DISPSILH
 70
     0
  9
$DIMSCALE
 40
0.0
  9
$DIMASZ
 40
2.0
  9
$DIMEXO
 40
0.625
  9
$DIMDLI
 40
0.38
  9
$DIMRND
 40
0.0
  9
$DIMDLE
 40
0.0
  9
$DIMEXE
 40
0.18
  9
$DIMTP
 40
0.0135
  9
$DIMTM
 40
0.0135
  9
$DIMTXT
 40
2.5
  9
$DIMCEN
 40
0.137
  9
$DIMTSZ
 40
0.0
  9
$DIMTOL
 70
     0
  9
$DIMLIM
 70
     0
  9
$DIMTIH
 70
     0
  9
$DIMTOH
 70
     0
  9
$DIMSE1
 70
     0
  9
$DIMSE2
 70
     0
  9
$DIMTAD
 70
     1
  9
$DIMZIN
 70
     8
  9
$DIMBLK
  1

  9
$DIMASO
 70
     1
  9
$DIMSHO
 70
     1
  9
$DIMPOST
  1

  9
$DIMAPOST
  1

  9
$DIMALT
 70
     0
  9
$DIMALTD
 70
     2
  9
$DIMALTF
 40
25.4
  9
$DIMLFAC
 40
0.5
  9
$DIMTOFL
 70
     0
  9
$DIMTVP
 40
0.0
  9
$DIMTIX
 70
     0
  9
$DIMSOXD
 70
     0
  9
$DIMSAH
 70
     0
  9
$DIMBLK1
  1

  9
$DIMBLK2
  1

  9
$DIMSTYLE
  2
\U+0130SMAIL_1_5___1
  9
$DIMCLRD
 70
     5
  9
$DIMCLRE
 70
     5
  9
$DIMCLRT
 70
     5
  9
$DIMTFAC
 40
1.0
  9
$DIMGAP
 40
0.5
  9
$DIMJUST
 70
     0
  9
$DIMSD1
 70
     0
  9
$DIMSD2
 70
     0
  9
$DIMTOLJ
 70
     1
  9
$DIMTZIN
 70
     0
  9
$DIMALTZ
 70
     0
  9
$DIMALTTZ
 70
     0
  9
$DIMFIT
 70
     3
  9
$DIMUPT
 70
     0
  9
$DIMUNIT
 70
     2
  9
$DIMDEC
 70
     3
  9
$DIMTDEC
 70
     3
  9
$DIMALTU
 70
     2
  9
$DIMALTTD
 70
     2
  9
$DIMTXSTY
  7
ROMANT
  9
$DIMAUNIT
 70
     0
  9
$LUNITS
 70
     2
  9
$LUPREC
 70
     4
  9
$SKETCHINC
 40
0.1
  9
$FILLETRAD
 40
0.3
  9
$AUNITS
 70
     0
  9
$AUPREC
 70
     0
  9
$MENU
  1
.
  9
$ELEVATION
 40
0.0
  9
$PELEVATION
 40
0.0
  9
$THICKNESS
 40
0.0
  9
$LIMCHECK
 70
     0
  9
$BLIPMODE
 70
     0
  9
$CHAMFERA
 40
0.0
  9
$CHAMFERB
 40
0.0
  9
$CHAMFERC
 40
0.0
  9
$CHAMFERD
 40
0.0
  9
$SKPOLY
 70
     0
  9
$TDCREATE
 40
2452340.579363391
  9
$TDUPDATE
 40
2453544.607551771
  9
$TDINDWG
 40
0.2746224074
  9
$TDUSRTIMER
 40
0.2746224074
  9
$USRTIMER
 70
     1
  9
$ANGBASE
 50
0.0
  9
$ANGDIR
 70
     0
  9
$PDMODE
 70
     0
  9
$PDSIZE
 40
0.0
  9
$PLINEWID
 40
0.0
  9
$COORDS
 70
     1
  9
$SPLFRAME
 70
     0
  9
$SPLINETYPE
 70
     6
  9
$SPLINESEGS
 70
     8
  9
$ATTDIA
 70
     0
  9
$ATTREQ
 70
     1
  9
$HANDLING
 70
-16383
  9
$HANDSEED
  5
3F85
  9
$SURFTAB1
 70
     6
  9
$SURFTAB2
 70
     6
  9
$SURFTYPE
 70
     6
  9
$SURFU
 70
     6
  9
$SURFV
 70
     6
  9
$UCSNAME
  2

  9
$UCSORG
 10
0.0
 20
0.0
 30
0.0
  9
$UCSXDIR
 10
1.0
 20
0.0
 30
0.0
  9
$UCSYDIR
 10
0.0
 20
1.0
 30
0.0
  9
$PUCSNAME
  2

  9
$PUCSORG
 10
0.0
 20
0.0
 30
0.0
  9
$PUCSXDIR
 10
1.0
 20
0.0
 30
0.0
  9
$PUCSYDIR
 10
0.0
 20
1.0
 30
0.0
  9
$USERI1
 70
     0
  9
$USERI2
 70
     0
  9
$USERI3
 70
     0
  9
$USERI4
 70
     0
  9
$USERI5
 70
     0
  9
$USERR1
 40
0.0
  9
$USERR2
 40
0.0
  9
$USERR3
 40
0.0
  9
$USERR4
 40
0.0
  9
$USERR5
 40
0.0
  9
$WORLDVIEW
 70
     1
  9
$SHADEDGE
 70
     3
  9
$SHADEDIF
 70
    70
  9
$TILEMODE
 70
     1
  9
$MAXACTVP
 70
    64
  9
$PINSBASE
 10
0.0
 20
0.0
 30
0.0
  9
$PLIMCHECK
 70
     0
  9
$PEXTMIN
 10
1.000000000000000E+20
 20
1.000000000000000E+20
 30
1.000000000000000E+20
  9
$PEXTMAX
 10
-1.000000000000000E+20
 20
-1.000000000000000E+20
 30
-1.000000000000000E+20
  9
$PLIMMIN
 10
0.0
 20
0.0
  9
$PLIMMAX
 10
12.0
 20
9.0
  9
$UNITMODE
 70
     0
  9
$VISRETAIN
 70
     1
  9
$PLINEGEN
 70
     0
  9
$PSLTSCALE
 70
     1
  9
$TREEDEPTH
 70
  3020
  9
$PICKSTYLE
 70
     0
  9
$CMLSTYLE
  2
STANDARD
  9
$CMLJUST
 70
     0
  9
$CMLSCALE
 40
1.0
  9
$SAVEIMAGES
 70
     1
  0
ENDSEC
  0
SECTION
  2
CLASSES
  0
CLASS
  1
ACDBDICTIONARYWDFLT
  2
AcDbDictionaryWithDefault
  3
AutoCAD 2000
 90
    32768
280
     0
281
     0
  0
CLASS
  1
ACDBPLACEHOLDER
  2
AcDbPlaceHolder
  3
AutoCAD 2000
 90
    32768
280
     0
281
     0
  0
CLASS
  1
LAYOUT
  2
AcDbLayout
  3
AutoCAD 2000
 90
    32768
280
     0
281
     0
  0
CLASS
  1
DICTIONARYVAR
  2
AcDbDictionaryVar
  3
AutoCAD 2000
 90
    32768
280
     0
281
     0
  0
CLASS
  1
LONG_TRANSACTION
  2
AcDbLongTransaction
  3
AutoCAD 2000
 90
    32768
280
     0
281
     0
  0
CLASS
  1
LWPOLYLINE
  2
AcDbPolyline
  3
AutoCAD 2000
 90
    32768
280
     0
281
     1
  0
CLASS
  1
HATCH
  2
AcDbHatch
  3
AutoCAD 2000
 90
    32768
280
     0
281
     1
  0
CLASS
  1
XRECORD
  2
AcDbXrecord
  3
AutoCAD 2000
 90
    32768
280
     0
281
     0
  0
ENDSEC
  0
SECTION
  2
TABLES
  0
TABLE
  2
VPORT
  5
1A
330
0
100
AcDbSymbolTable
 70
     2
  0
VPORT
  5
3F4D
330
1A
100
AcDbSymbolTableRecord
100
AcDbViewportTableRecord
  2
*ACTIVE
 70
     0
 10
0.0
 20
0.0
 11
1.0
 21
1.0
 12
152.8758673603331
 22
224.3307192337656
 13
0.0
 23
0.0
 14
1.0
 24
1.0
 15
0.0
 25
0.0
 16
0.0
 26
0.0
 36
1.0
 17
0.0
 27
0.0
 37
0.0
 40
34.57407096649797
 41
1.762081784386617
 42
50.0
 43
0.0
 44
0.0
 50
0.0
 51
0.0
 71
     0
 72
   100
 73
     1
 74
     1
 75
     0
 76
     1
 77
     0
 78
     0
  0
ENDTAB
  0
TABLE
  2
LTYPE
  5
15
330
0
100
AcDbSymbolTable
 70
     2
  0
LTYPE
  5
16
330
15
100
AcDbSymbolTableRecord
100
AcDbLinetypeTableRecord
  2
BYBLOCK
 70
     0
  3

 72
    65
 73
     0
 40
0.0
  0
LTYPE
  5
17
330
15
100
AcDbSymbolTableRecord
100
AcDbLinetypeTableRecord
  2
BYLAYER
 70
     0
  3

 72
    65
 73
     0
 40
0.0
  0
LTYPE
  5
8
330
15
100
AcDbSymbolTableRecord
100
AcDbLinetypeTableRecord
  2
CONTINUOUS
 70
     0
  3
CONTINUOUS
 72
    65
 73
     0
 40
0.0
  0
LTYPE
  5
3F39
330
15
100
AcDbSymbolTableRecord
100
AcDbLinetypeTableRecord
  2
HIDDEN
 70
     0
  3
Hidden __ __ __ __ __ __ __ __ __ __ __ __ __ _
 72
    65
 73
     2
 40
9.524999999999998
 49
6.349999999999999
 74
     0
 49
-3.174999999999999
 74
     0
  0
ENDTAB
  0
TABLE
  2
LAYER
  5
10
330
0
100
AcDbSymbolTable
 70
     4
  0
LAYER
  5
4
330
10
100
AcDbSymbolTableRecord
100
AcDbLayerTableRecord
  2
0
 70
     0
 62
     7
  6
CONTINUOUS
  0
LAYER
  5
2D
330
10
100
AcDbSymbolTableRecord
100
AcDbLayerTableRecord
  2
DEFPOINTS
 70
     0
 62
     7
  6
CONTINUOUS
  0
LAYER
  5
42F
330
10
100
AcDbSymbolTableRecord
100
AcDbLayerTableRecord
  2
ANA
 70
     0
 62
   220
  6
CONTINUOUS
  0
LAYER
  5
432
330
10
100
AcDbSymbolTableRecord
100
AcDbLayerTableRecord
  2
ANTET
 70
     0
 62
   220
  6
CONTINUOUS
  0
ENDTAB
  0
TABLE
  2
STYLE
  5
11
330
0
100
AcDbSymbolTable
 70
     3
  0
STYLE
  5
12
330
11
100
AcDbSymbolTableRecord
100
AcDbTextStyleTableRecord
  2
STANDARD
 70
     0
 40
0.0
 41
1.0
 50
0.0
 71
     0
 42
0.2
  3
TIMES.TTF
  4

1001
ACAD
1000
Times New Roman Tur
1071
    41490
  0
STYLE
  5
436
330
11
100
AcDbSymbolTableRecord
100
AcDbTextStyleTableRecord
  2
ROMANT
 70
     0
 40
2.5
 41
1.0
 50
15.0
 71
     0
 42
2.5
  3
C:\ACADR13\COMMON\FONTS\romant.shx
  4

  0
STYLE
  5
3F38
330
11
100
AcDbSymbolTableRecord
100
AcDbTextStyleTableRecord
  2

 70
     1
 40
0.0
 41
1.0
 50
0.0
 71
     0
 42
0.2
  3
ltypeshp.shx
  4

  0
ENDTAB
  0
TABLE
  2
VIEW
  5
18
330
0
100
AcDbSymbolTable
 70
     0
  0
ENDTAB
  0
TABLE
  2
UCS
  5
19
330
0
100
AcDbSymbolTable
 70
     0
  0
ENDTAB
  0
TABLE
  2
APPID
  5
1C
330
0
100
AcDbSymbolTable
 70
     1
  0
APPID
  5
13
330
1C
100
AcDbSymbolTableRecord
100
AcDbRegAppTableRecord
  2
ACAD
 70
     0
  0
ENDTAB
  0
TABLE
  2
DIMSTYLE
  5
1D
330
0
100
AcDbSymbolTable
 70
     2
  0
DIMSTYLE
105
439
330
1D
100
AcDbSymbolTableRecord
100
AcDbDimStyleTableRecord
  2
STANDARD
 70
     0
  3

  4

  5

  6

  7

 40
1.0
 41
0.18
 42
0.0625
 43
0.38
 44
0.18
 45
0.0
 46
0.0
 47
0.0
 48
0.0
140
0.18
141
0.09
142
0.0
143
25.4
144
1.0
145
0.0
146
1.0
147
0.09
 71
     0
 72
     0
 73
     1
 74
     1
 75
     0
 76
     0
 77
     0
 78
     0
170
     0
171
     2
172
     0
173
     0
174
     0
175
     0
176
     0
177
     0
178
     0
270
     2
271
     4
272
     4
273
     2
274
     2
340
12
275
     0
280
     0
281
     0
282
     0
283
     1
284
     0
285
     0
286
     0
287
     3
288
     0
  0
DIMSTYLE
105
1105
330
1D
100
AcDbSymbolTableRecord
100
AcDbDimStyleTableRecord
  2
\U+0130SMAIL_1_5___1
 70
     0
  3

  4

  5

  6

  7

 40
0.0
 41
2.0
 42
0.625
 43
0.38
 44
0.18
 45
0.0
 46
0.0
 47
0.0135
 48
0.0135
140
2.5
141
0.137
142
0.0
143
25.4
144
0.5
145
0.0
146
1.0
147
0.5
 71
     0
 72
     0
 73
     0
 74
     0
 75
     0
 76
     0
 77
     1
 78
     8
170
     0
171
     2
172
     0
173
     0
174
     0
175
     0
176
     5
177
     5
178
     5
270
     2
271
     3
272
     3
273
     2
274
     2
340
436
275
     0
280
     0
281
     0
282
     0
283
     1
284
     0
285
     0
286
     0
287
     3
288
     0
  0
ENDTAB
  0
TABLE
  2
BLOCK_RECORD
  5
1
330
0
100
AcDbSymbolTable
 70
    27
  0
BLOCK_RECORD
  5
2
102
{ACAD_XDICTIONARY
360
3F4E
102
}
330
1
100
AcDbSymbolTableRecord
100
AcDbBlockTableRecord
  2
*MODEL_SPACE
  0
BLOCK_RECORD
  5
C
102
{ACAD_XDICTIONARY
360
3F50
102
}
330
1
100
AcDbSymbolTableRecord
100
AcDbBlockTableRecord
  2
*PAPER_SPACE
  0
BLOCK_RECORD
  5
181
330
1
100
AcDbSymbolTableRecord
100
AcDbBlockTableRecord
  2
*X0
  0
BLOCK_RECORD
  5
3720
330
1
100
AcDbSymbolTableRecord
100
AcDbBlockTableRecord
  2
*D1
  0
BLOCK_RECORD
  5
372D
330
1
100
AcDbSymbolTableRecord
100
AcDbBlockTableRecord
  2
*D2
  0
BLOCK_RECORD
  5
373A
330
1
100
AcDbSymbolTableRecord
100
AcDbBlockTableRecord
  2
*D3
  0
BLOCK_RECORD
  5
3757
330
1
100
AcDbSymbolTableRecord
100
AcDbBlockTableRecord
  2
*D4
  0
BLOCK_RECORD
  5
3765
330
1
100
AcDbSymbolTableRecord
100
AcDbBlockTableRecord
  2
*D5
  0
BLOCK_RECORD
  5
3772
330
1
100
AcDbSymbolTableRecord
100
AcDbBlockTableRecord
  2
*D6
  0
BLOCK_RECORD
  5
37A8
330
1
100
AcDbSymbolTableRecord
100
AcDbBlockTableRecord
  2
*D7
  0
BLOCK_RECORD
  5
37B5
330
1
100
AcDbSymbolTableRecord
100
AcDbBlockTableRecord
  2
*D8
  0
BLOCK_RECORD
  5
37C2
330
1
100
AcDbSymbolTableRecord
100
AcDbBlockTableRecord
  2
*D9
  0
BLOCK_RECORD
  5
37CD
330
1
100
AcDbSymbolTableRecord
100
AcDbBlockTableRecord
  2
*D10
  0
BLOCK_RECORD
  5
37DB
330
1
100
AcDbSymbolTableRecord
100
AcDbBlockTableRecord
  2
*D11
  0
BLOCK_RECORD
  5
37F6
330
1
100
AcDbSymbolTableRecord
100
AcDbBlockTableRecord
  2
*D12
  0
BLOCK_RECORD
  5
382B
330
1
100
AcDbSymbolTableRecord
100
AcDbBlockTableRecord
  2
*D13
  0
BLOCK_RECORD
  5
383A
330
1
100
AcDbSymbolTableRecord
100
AcDbBlockTableRecord
  2
*D14
  0
BLOCK_RECORD
  5
3845
330
1
100
AcDbSymbolTableRecord
100
AcDbBlockTableRecord
  2
*D15
  0
BLOCK_RECORD
  5
384F
330
1
100
AcDbSymbolTableRecord
100
AcDbBlockTableRecord
  2
*D16
  0
BLOCK_RECORD
  5
3868
330
1
100
AcDbSymbolTableRecord
100
AcDbBlockTableRecord
  2
*D17
  0
BLOCK_RECORD
  5
3875
330
1
100
AcDbSymbolTableRecord
100
AcDbBlockTableRecord
  2
*D18
  0
BLOCK_RECORD
  5
3880
330
1
100
AcDbSymbolTableRecord
100
AcDbBlockTableRecord
  2
*D19
  0
BLOCK_RECORD
  5
388B
330
1
100
AcDbSymbolTableRecord
100
AcDbBlockTableRecord
  2
*D20
  0
BLOCK_RECORD
  5
3896
330
1
100
AcDbSymbolTableRecord
100
AcDbBlockTableRecord
  2
*D21
  0
BLOCK_RECORD
  5
3DE5
330
1
100
AcDbSymbolTableRecord
100
AcDbBlockTableRecord
  2
*D22
  0
BLOCK_RECORD
  5
3DF2
330
1
100
AcDbSymbolTableRecord
100
AcDbBlockTableRecord
  2
*D23
  0
BLOCK_RECORD
  5
3DFF
330
1
100
AcDbSymbolTableRecord
100
AcDbBlockTableRecord
  2
*D24
  0
BLOCK_RECORD
  5
3E58
330
1
100
AcDbSymbolTableRecord
100
AcDbBlockTableRecord
  2
*D25
  0
BLOCK_RECORD
  5
3E66
330
1
100
AcDbSymbolTableRecord
100
AcDbBlockTableRecord
  2
*D26
  0
ENDTAB
  0
ENDSEC
  0
SECTION
  2
BLOCKS
  0
BLOCK
  5
3
330
2
100
AcDbEntity
  8
0
100
AcDbBlockBegin
  2
*MODEL_SPACE
 70
     0
 10
0.0
 20
0.0
 30
0.0
  3
*MODEL_SPACE
  1

  0
ENDBLK
  5
9
330
2
100
AcDbEntity
  8
0
100
AcDbBlockEnd
  0
BLOCK
  5
D
330
C
100
AcDbEntity
 67
     1
  8
0
100
AcDbBlockBegin
  2
*PAPER_SPACE
 70
     0
 10
0.0
 20
0.0
 30
0.0
  3
*PAPER_SPACE
  1

  0
ENDBLK
  5
E
330
C
100
AcDbEntity
 67
     1
  8
0
100
AcDbBlockEnd
  0
BLOCK
  5
2F6
330
181
100
AcDbEntity
  8
0
100
AcDbBlockBegin
  2
*X0
 70
     1
 10
0.0
 20
0.0
 30
0.0
  3
*X0
  1

  0
LINE
  5
182
330
181
100
AcDbEntity
  8
0
 62
     0
100
AcDbLine
 10
119.6249999999999
 20
30.73434161302726
 30
0.0
 11
119.6249999999999
 21
31.73434161302726
 31
0.0
  0
LINE
  5
183
330
181
100
AcDbEntity
  8
0
 62
     0
100
AcDbLine
 10
119.6249999999999
 20
50.73434161302725
 30
0.0
 11
119.6249999999999
 21
51.73434161302726
 31
0.0
  0
LINE
  5
184
330
181
100
AcDbEntity
  8
0
 62
     0
100
AcDbLine
 10
119.6249999999999
 20
34.23389329927631
 30
0.0
 11
119.6249999999999
 21
39.78358833883456
 31
0.0
  0
LINE
  5
185
330
181
100
AcDbEntity
  8
0
 62
     0
100
AcDbLine
 10
119.6249999999999
 20
42.36292722007112
 30
0.0
 11
119.6249999999999
 21
48.39196114086594
 31
0.0
  0
LINE
  5
186
330
181
100
AcDbEntity
  8
0
 62
     0
100
AcDbLine
 10
119.4374999999999
 20
30.73434161302726
 30
0.0
 11
119.4374999999999
 21
31.73434161302726
 31
0.0
  0
LINE
  5
187
330
181
100
AcDbEntity
  8
0
 62
     0
100
AcDbLine
 10
119.4374999999999
 20
50.73434161302725
 30
0.0
 11
119.4374999999999
 21
51.73434161302726
 31
0.0
  0
LINE
  5
188
330
181
100
AcDbEntity
  8
0
 62
     0
100
AcDbLine
 10
119.4374999999999
 20
34.23389329927631
 30
0.0
 11
119.4374999999999
 21
39.4588288124154
 31
0.0
  0
LINE
  5
189
330
181
100
AcDbEntity
  8
0
 62
     0
100
AcDbLine
 10
119.4374999999999
 20
42.36292722007112
 30
0.0
 11
119.4374999999999
 21
48.39196114086594
 31
0.0
  0
LINE
  5
18A
330
181
100
AcDbEntity
  8
0
 62
     0
100
AcDbLine
 10
119.2499999999999
 20
30.73434161302726
 30
0.0
 11
119.2499999999999
 21
31.73434161302726
 31
0.0
  0
LINE
  5
18B
330
181
100
AcDbEntity
  8
0
 62
     0
100
AcDbLine
 10
119.2499999999999
 20
50.73434161302725
 30
0.0
 11
119.2499999999999
 21
51.73434161302726
 31
0.0
  0
LINE
  5
18C
330
181
100
AcDbEntity
  8
0
 62
     0
100
AcDbLine
 10
119.2499999999999
 20
34.23389329927631
 30
0.0
 11
119.2499999999999
 21
39.13406928599623
 31
0.0
  0
LINE
  5
18D
330
181
100
AcDbEntity
  8
0
 62
     0
100
AcDbLine
 10
119.2499999999999
 20
42.36292722007112
 30
0.0
 11
119.2499999999999
 21
48.39196114086594
 31
0.0
  0
LINE
  5
18E
330
181
100
AcDbEntity
  8
0
 62
     0
100
AcDbLine
 10
119.0624999999999
 20
30.73434161302726
 30
0.0
 11
119.0624999999999
 21
31.73434161302726
 31
0.0
  0
LINE
  5
18F
330
181
100
AcDbEntity
  8
0
 62
     0
100
AcDbLine
 10
119.0624999999999
 20
50.73434161302725
 30
0.0
 11
119.0624999999999
 21
51.73434161302726
 31
0.0
  0
LINE
  5
190
330
181
100
AcDbEntity
  8
0
 62
     0
100
AcDbLine
 10
119.0624999999999
 20
34.23389329927631
 30
0.0
 11
119.0624999999999
 21
38.80930975957706
 31
0.0
  0
LINE
  5
191
330
181
100
AcDbEntity
  8
0
 62
     0
100
AcDbLine
 10
119.0624999999999
 20
42.36292722007112
 30
0.0
 11
119.0624999999999
 21
48.39196114086594
 31
0.0
  0
LINE
  5
192
330
181
100
AcDbEntity
  8
0
 62
     0
100
AcDbLine
 10
118.8749999999999
 20
30.73434161302726
 30
0.0
 11
118.8749999999999
 21
31.73434161302726
 31
0.0
  0
LINE
  5
193
330
181
100
AcDbEntity
  8
0
 62
     0
100
AcDbLine
 10
118.8749999999999
 20
50.73434161302725
 30
0.0
 11
118.8749999999999
 21
51.73434161302726
 31
0.0
  0
LINE
  5
194
330
181
100
AcDbEntity
  8
0
 62
     0
100
AcDbLine
 10
118.8749999999999
 20
34.23389329927631
 30
0.0
 11
118.8749999999999
 21
38.48455023315789
 31
0.0
  0
LINE
  5
195
330
181
100
AcDbEntity
  8
0
 62
     0
100
AcDbLine
 10
118.8749999999999
 20
42.36292722007112
 30
0.0
 11
118.8749999999999
 21
48.39196114086594
 31
0.0
  0
LINE
  5
196
330
181
100
AcDbEntity
  8
0
 62
     0
100
AcDbLine
 10
118.8749999999999
 20
40.08455023785443
 30
0.0
 11
118.8749999999999
 21
40.44130420998858
 31
0.0
  0
LINE
  5
197
330
181
100
AcDbEntity
  8
0
 62
     0
100
AcDbLine
 10
118.6874999999999
 20
30.73434161302726
 30
0.0
 11
118.6874999999999
 21
31.73434161302726
 31
0.0
  0
LINE
  5
198
330
181
100
AcDbEntity
  8
0
 62
     0
100
AcDbLine
 10
118.6874999999999
 20
50.73434161302725
 30
0.0
 11
118.6874999999999
 21
51.73434161302726
 31
0.0
  0
LINE
  5
199
330
181
100
AcDbEntity
  8
0
 62
     0
100
AcDbLine
 10
118.6874999999999
 20
34.23389329927631
 30
0.0
 11
118.6874999999999
 21
38.15979070673873
 31
0.0
  0
LINE
  5
19A
330
181
100
AcDbEntity
  8
0
 62
     0
100
AcDbLine
 10
118.6874999999999
 20
42.41926881554642
 30
0.0
 11
118.6874999999999
 21
48.39196114086594
 31
0.0
  0
LINE
  5
19B
330
181
100
AcDbEntity
  8
0
 62
     0
100
AcDbLine
 10
118.6874999999999
 20
39.75979071181569
 30
0.0
 11
118.6874999999999
 21
40.76606373625941
 31
0.0
  0
LINE
  5
19C
330
181
100
AcDbEntity
  8
0
 62
     0
100
AcDbLine
 10
118.4999999999999
 20
30.73434161302726
 30
0.0
 11
118.4999999999999
 21
31.73434161302726
 31
0.0
  0
LINE
  5
19D
330
181
100
AcDbEntity
  8
0
 62
     0
100
AcDbLine
 10
118.4999999999999
 20
50.73434161302725
 30
0.0
 11
118.4999999999999
 21
51.73434161302726
 31
0.0
  0
LINE
  5
19E
330
181
100
AcDbEntity
  8
0
 62
     0
100
AcDbLine
 10
118.4999999999999
 20
34.23389329927631
 30
0.0
 11
118.4999999999999
 21
37.83503118031956
 31
0.0
  0
LINE
  5
19F
330
181
100
AcDbEntity
  8
0
 62
     0
100
AcDbLine
 10
118.4999999999999
 20
42.69082325982261
 30
0.0
 11
118.4999999999999
 21
48.39196114086594
 31
0.0
  0
LINE
  5
1A0
330
181
100
AcDbEntity
  8
0
 62
     0
100
AcDbLine
 10
118.4999999999999
 20
39.43503118577694
 30
0.0
 11
118.4999999999999
 21
41.09082326253024
 31
0.0
  0
LINE
  5
1A1
330
181
100
AcDbEntity
  8
0
 62
     0
100
AcDbLine
 10
118.3124999999999
 20
30.73434161302726
 30
0.0
 11
118.3124999999999
 21
31.73434161302726
 31
0.0
  0
LINE
  5
1A2
330
181
100
AcDbEntity
  8
0
 62
     0
100
AcDbLine
 10
118.3124999999999
 20
50.73434161302725
 30
0.0
 11
118.3124999999999
 21
51.73434161302726
 31
0.0
  0
LINE
  5
1A3
330
181
100
AcDbEntity
  8
0
 62
     0
100
AcDbLine
 10
118.3124999999999
 20
34.23389329927631
 30
0.0
 11
118.3124999999999
 21
37.51027165390039
 31
0.0
  0
LINE
  5
1A4
330
181
100
AcDbEntity
  8
0
 62
     0
100
AcDbLine
 10
118.3124999999999
 20
43.01558278624178
 30
0.0
 11
118.3124999999999
 21
48.39196114086594
 31
0.0
  0
LINE
  5
1A5
330
181
100
AcDbEntity
  8
0
 62
     0
100
AcDbLine
 10
118.3124999999999
 20
39.1102716597382
 30
0.0
 11
118.3124999999999
 21
41.41558278880107
 31
0.0
  0
LINE
  5
1A6
330
181
100
AcDbEntity
  8
0
 62
     0
100
AcDbLine
 10
118.1249999999999
 20
30.73434161302726
 30
0.0
 11
118.1249999999999
 21
31.73434161302726
 31
0.0
  0
LINE
  5
1A7
330
181
100
AcDbEntity
  8
0
 62
     0
100
AcDbLine
 10
118.1249999999999
 20
50.73434161302725
 30
0.0
 11
118.1249999999999
 21
51.73434161302726
 31
0.0
  0
LINE
  5
1A8
330
181
100
AcDbEntity
  8
0
 62
     0
100
AcDbLine
 10
118.1249999999999
 20
34.23389329927631
 30
0.0
 11
118.1249999999999
 21
37.18551212748122
 31
0.0
  0
LINE
  5
1A9
330
181
100
AcDbEntity
  8
0
 62
     0
100
AcDbLine
 10
118.1249999999999
 20
43.34034231266095
 30
0.0
 11
118.1249999999999
 21
48.39196114086594
 31
0.0
  0
LINE
  5
1AA
330
181
100
AcDbEntity
  8
0
 62
     0
100
AcDbLine
 10
118.1249999999999
 20
38.78551213369945
 30
0.0
 11
118.1249999999999
 21
41.7403423150719
 31
0.0
  0
LINE
  5
1AB
330
181
100
AcDbEntity
  8
0
 62
     0
100
AcDbLine
 10
117.9374999999999
 20
30.73434161302726
 30
0.0
 11
117.9374999999999
 21
31.73434161302726
 31
0.0
  0
LINE
  5
1AC
330
181
100
AcDbEntity
  8
0
 62
     0
100
AcDbLine
 10
117.9374999999999
 20
50.73434161302725
 30
0.0
 11
117.9374999999999
 21
51.73434161302726
 31
0.0
  0
LINE
  5
1AD
330
181
100
AcDbEntity
  8
0
 62
     0
100
AcDbLine
 10
117.9374999999999
 20
34.23389329927631
 30
0.0
 11
117.9374999999999
 21
36.86075260106206
 31
0.0
  0
LINE
  5
1AE
330
181
100
AcDbEntity
  8
0
 62
     0
100
AcDbLine
 10
117.9374999999999
 20
43.66510183908012
 30
0.0
 11
117.9374999999999
 21
48.39196114086594
 31
0.0
  0
LINE
  5
1AF
330
181
100
AcDbEntity
  8
0
 62
     0
100
AcDbLine
 10
117.9374999999999
 20
38.46075260766071
 30
0.0
 11
117.9374999999999
 21
42.06510184134273
 31
0.0
  0
LINE
  5
1B0
330
181
100
AcDbEntity
  8
0
 62
     0
100
AcDbLine
 10
117.7499999999999
 20
30.73434161302726
 30
0.0
 11
117.7499999999999
 21
31.73434161302726
 31
0.0
  0
LINE
  5
1B1
330
181
100
AcDbEntity
  8
0
 62
     0
100
AcDbLine
 10
117.7499999999999
 20
50.73434161302725
 30
0.0
 11
117.7499999999999
 21
51.73434161302726
 31
0.0
  0
LINE
  5
1B2
330
181
100
AcDbEntity
  8
0
 62
     0
100
AcDbLine
 10
117.7499999999999
 20
34.23389329927631
 30
0.0
 11
117.7499999999999
 21
36.53599307464288
 31
0.0
  0
LINE
  5
1B3
330
181
100
AcDbEntity
  8
0
 62
     0
100
AcDbLine
 10
117.7499999999999
 20
43.98986136549929
 30
0.0
 11
117.7499999999999
 21
48.39196114086594
 31
0.0
  0
LINE
  5
1B4
330
181
100
AcDbEntity
  8
0
 62
     0
100
AcDbLine
 10
117.7499999999999
 20
38.13599308162197
 30
0.0
 11
117.7499999999999
 21
42.38986136761356
 31
0.0
  0
LINE
  5
1B5
330
181
100
AcDbEntity
  8
0
 62
     0
100
AcDbLine
 10
117.5624999999999
 20
30.73434161302726
 30
0.0
 11
117.5624999999999
 21
31.73434161302726
 31
0.0
  0
LINE
  5
1B6
330
181
100
AcDbEntity
  8
0
 62
     0
100
AcDbLine
 10
117.5624999999999
 20
50.73434161302725
 30
0.0
 11
117.5624999999999
 21
51.73434161302726
 31
0.0
  0
LINE
  5
1B7
330
181
100
AcDbEntity
  8
0
 62
     0
100
AcDbLine
 10
117.5624999999999
 20
34.23389329927631
 30
0.0
 11
117.5624999999999
 21
36.21123354822372
 31
0.0
  0
LINE
  5
1B8
330
181
100
AcDbEntity
  8
0
 62
     0
100
AcDbLine
 10
117.5624999999999
 20
44.31462089191845
 30
0.0
 11
117.5624999999999
 21
48.39196114086594
 31
0.0
  0
LINE
  5
1B9
330
181
100
AcDbEntity
  8
0
 62
     0
100
AcDbLine
 10
117.5624999999999
 20
37.81123355558323
 30
0.0
 11
117.5624999999999
 21
42.71462089388439
 31
0.0
  0
LINE
  5
1BA
330
181
100
AcDbEntity
  8
0
 62
     0
100
AcDbLine
 10
117.3749999999999
 20
30.73434161302726
 30
0.0
 11
117.3749999999999
 21
31.73434161302726
 31
0.0
  0
LINE
  5
1BB
330
181
100
AcDbEntity
  8
0
 62
     0
100
AcDbLine
 10
117.3749999999999
 20
50.73434161302725
 30
0.0
 11
117.3749999999999
 21
51.73434161302726
 31
0.0
  0
LINE
  5
1BC
330
181
100
AcDbEntity
  8
0
 62
     0
100
AcDbLine
 10
117.3749999999999
 20
34.23389329927631
 30
0.0
 11
117.3749999999999
 21
35.88647402180455
 31
0.0
  0
LINE
  5
1BD
330
181
100
AcDbEntity
  8
0
 62
     0
100
AcDbLine
 10
117.3749999999999
 20
44.63938041833762
 30
0.0
 11
117.3749999999999
 21
48.39196114086594
 31
0.0
  0
LINE
  5
1BE
330
181
100
AcDbEntity
  8
0
 62
     0
100
AcDbLine
 10
117.3749999999999
 20
37.48647402954448
 30
0.0
 11
117.3749999999999
 21
43.03938042015523
 31
0.0
  0
LINE
  5
1BF
330
181
100
AcDbEntity
  8
0
 62
     0
100
AcDbLine
 10
117.1874999999999
 20
30.73434161302726
 30
0.0
 11
117.1874999999999
 21
31.73434161302726
 31
0.0
  0
LINE
  5
1C0
330
181
100
AcDbEntity
  8
0
 62
     0
100
AcDbLine
 10
117.1874999999999
 20
50.73434161302725
 30
0.0
 11
117.1874999999999
 21
51.73434161302726
 31
0.0
  0
LINE
  5
1C1
330
181
100
AcDbEntity
  8
0
 62
     0
100
AcDbLine
 10
117.1874999999999
 20
34.23389329927631
 30
0.0
 11
117.1874999999999
 21
35.56171449538538
 31
0.0
  0
LINE
  5
1C2
330
181
100
AcDbEntity
  8
0
 62
     0
100
AcDbLine
 10
117.1874999999999
 20
44.9641399447568
 30
0.0
 11
117.1874999999999
 21
48.39196114086594
 31
0.0
  0
LINE
  5
1C3
330
181
100
AcDbEntity
  8
0
 62
     0
100
AcDbLine
 10
117.1874999999999
 20
37.16171450350574
 30
0.0
 11
117.1874999999999
 21
43.36413994642605
 31
0.0
  0
LINE
  5
1C4
330
181
100
AcDbEntity
  8
0
 62
     0
100
AcDbLine
 10
116.9999999999999
 20
30.73434161302726
 30
0.0
 11
116.9999999999999
 21
31.73434161302726
 31
0.0
  0
LINE
  5
1C5
330
181
100
AcDbEntity
  8
0
 62
     0
100
AcDbLine
 10
116.9999999999999
 20
50.73434161302725
 30
0.0
 11
116.9999999999999
 21
51.73434161302726
 31
0.0
  0
LINE
  5
1C6
330
181
100
AcDbEntity
  8
0
 62
     0
100
AcDbLine
 10
116.9999999999999
 20
34.23389329927631
 30
0.0
 11
116.9999999999999
 21
35.23695496896622
 31
0.0
  0
LINE
  5
1C7
330
181
100
AcDbEntity
  8
0
 62
     0
100
AcDbLine
 10
116.9999999999999
 20
45.28889947117597
 30
0.0
 11
116.9999999999999
 21
48.39196114086594
 31
0.0
  0
LINE
  5
1C8
330
181
100
AcDbEntity
  8
0
 62
     0
100
AcDbLine
 10
116.9999999999999
 20
36.83695497746699
 30
0.0
 11
116.9999999999999
 21
43.68889947269688
 31
0.0
  0
LINE
  5
1C9
330
181
100
AcDbEntity
  8
0
 62
     0
100
AcDbLine
 10
116.8124999999999
 20
30.73434161302726
 30
0.0
 11
116.8124999999999
 21
31.73434161302726
 31
0.0
  0
LINE
  5
1CA
330
181
100
AcDbEntity
  8
0
 62
     0
100
AcDbLine
 10
116.8124999999999
 20
50.73434161302725
 30
0.0
 11
116.8124999999999
 21
51.73434161302726
 31
0.0
  0
LINE
  5
1CB
330
181
100
AcDbEntity
  8
0
 62
     0
100
AcDbLine
 10
116.8124999999999
 20
34.23389329927631
 30
0.0
 11
116.8124999999999
 21
34.91219544254705
 31
0.0
  0
LINE
  5
1CC
330
181
100
AcDbEntity
  8
0
 62
     0
100
AcDbLine
 10
116.8124999999999
 20
45.61365899759514
 30
0.0
 11
116.8124999999999
 21
48.38373565494333
 31
0.0
  0
LINE
  5
1CD
330
181
100
AcDbEntity
  8
0
 62
     0
100
AcDbLine
 10
116.8124999999999
 20
36.51219545142825
 30
0.0
 11
116.8124999999999
 21
44.01365899896771
 31
0.0
  0
LINE
  5
1CE
330
181
100
AcDbEntity
  8
0
 62
     0
100
AcDbLine
 10
116.6249999999999
 20
30.73434161302726
 30
0.0
 11
116.6249999999999
 21
31.73434161302726
 31
0.0
  0
LINE
  5
1CF
330
181
100
AcDbEntity
  8
0
 62
     0
100
AcDbLine
 10
116.6249999999999
 20
50.73434161302725
 30
0.0
 11
116.6249999999999
 21
51.73434161302726
 31
0.0
  0
LINE
  5
1D0
330
181
100
AcDbEntity
  8
0
 62
     0
100
AcDbLine
 10
116.6249999999999
 20
34.23389329927631
 30
0.0
 11
116.6249999999999
 21
34.59269753062041
 31
0.0
  0
LINE
  5
1D1
330
181
100
AcDbEntity
  8
0
 62
     0
100
AcDbLine
 10
116.6249999999999
 20
45.9384185240143
 30
0.0
 11
116.6249999999999
 21
48.34088760946108
 31
0.0
  0
LINE
  5
1D2
330
181
100
AcDbEntity
  8
0
 62
     0
100
AcDbLine
 10
116.6249999999999
 20
36.18743592538951
 30
0.0
 11
116.6249999999999
 21
44.33841852523854
 31
0.0
  0
LINE
  5
1D3
330
181
100
AcDbEntity
  8
0
 62
     0
100
AcDbLine
 10
116.4374999999999
 20
30.73434161302726
 30
0.0
 11
116.4374999999999
 21
31.73434161302726
 31
0.0
  0
LINE
  5
1D4
330
181
100
AcDbEntity
  8
0
 62
     0
100
AcDbLine
 10
116.4374999999999
 20
50.73434161302725
 30
0.0
 11
116.4374999999999
 21
51.73434161302726
 31
0.0
  0
LINE
  5
1D5
330
181
100
AcDbEntity
  8
0
 62
     0
100
AcDbLine
 10
116.4374999999999
 20
34.23389329927631
 30
0.0
 11
116.4374999999999
 21
34.44874299145622
 31
0.0
  0
LINE
  5
1D6
330
181
100
AcDbEntity
  8
0
 62
     0
100
AcDbLine
 10
116.4374999999999
 20
46.26317805043347
 30
0.0
 11
116.4374999999999
 21
48.25624911302998
 31
0.0
  0
LINE
  5
1D7
330
181
100
AcDbEntity
  8
0
 62
     0
100
AcDbLine
 10
116.4374999999999
 20
35.86267639935076
 30
0.0
 11
116.4374999999999
 21
44.66317805150937
 31
0.0
  0
LINE
  5
1D8
330
181
100
AcDbEntity
  8
0
 62
     0
100
AcDbLine
 10
116.2499999999999
 20
30.73434161302726
 30
0.0
 11
116.2499999999999
 21
31.73434161302726
 31
0.0
  0
LINE
  5
1D9
330
181
100
AcDbEntity
  8
0
 62
     0
100
AcDbLine
 10
116.2499999999999
 20
50.73434161302725
 30
0.0
 11
116.2499999999999
 21
51.73434161302726
 31
0.0
  0
LINE
  5
1DA
330
181
100
AcDbEntity
  8
0
 62
     0
100
AcDbLine
 10
116.2499999999999
 20
34.23389329927631
 30
0.0
 11
116.2499999999999
 21
34.33758771320932
 31
0.0
  0
LINE
  5
1DB
330
181
100
AcDbEntity
  8
0
 62
     0
100
AcDbLine
 10
116.2499999999999
 20
46.58793757685264
 30
0.0
 11
116.2499999999999
 21
48.11529609429651
 31
0.0
  0
LINE
  5
1DC
330
181
100
AcDbEntity
  8
0
 62
     0
100
AcDbLine
 10
116.2499999999999
 20
35.53791687331202
 30
0.0
 11
116.2499999999999
 21
44.98793757778019
 31
0.0
  0
LINE
  5
1DD
330
181
100
AcDbEntity
  8
0
 62
     0
100
AcDbLine
 10
116.0624999999999
 20
30.73434161302726
 30
0.0
 11
116.0624999999999
 21
31.73434161302726
 31
0.0
  0
LINE
  5
1DE
330
181
100
AcDbEntity
  8
0
 62
     0
100
AcDbLine
 10
116.0624999999999
 20
50.73434161302725
 30
0.0
 11
116.0624999999999
 21
51.73434161302726
 31
0.0
  0
LINE
  5
1DF
330
181
100
AcDbEntity
  8
0
 62
     0
100
AcDbLine
 10
116.0624999999999
 20
34.23389329927631
 30
0.0
 11
116.0624999999999
 21
34.25304788190206
 31
0.0
  0
LINE
  5
1E0
330
181
100
AcDbEntity
  8
0
 62
     0
100
AcDbLine
 10
116.0624999999999
 20
46.91329558864667
 30
0.0
 11
116.0624999999999
 21
47.87062669308522
 31
0.0
  0
LINE
  5
1E1
330
181
100
AcDbEntity
  8
0
 62
     0
100
AcDbLine
 10
116.0624999999999
 20
35.29731832849843
 30
0.0
 11
116.0624999999999
 21
45.31269710405103
 31
0.0
  0
LINE
  5
1E2
330
181
100
AcDbEntity
  8
0
 62
     0
100
AcDbLine
 10
115.8749999999999
 20
30.73434161302726
 30
0.0
 11
115.8749999999999
 21
31.73434161302726
 31
0.0
  0
LINE
  5
1E3
330
181
100
AcDbEntity
  8
0
 62
     0
100
AcDbLine
 10
115.8749999999999
 20
50.73434161302725
 30
0.0
 11
115.8749999999999
 21
51.73434161302726
 31
0.0
  0
LINE
  5
1E4
330
181
100
AcDbEntity
  8
0
 62
     0
100
AcDbLine
 10
115.8749999999999
 20
35.15800657298843
 30
0.0
 11
115.8749999999999
 21
45.63745663032186
 31
0.0
  0
LINE
  5
1E5
330
181
100
AcDbEntity
  8
0
 62
     0
100
AcDbLine
 10
115.6874999999999
 20
30.73434161302726
 30
0.0
 11
115.6874999999999
 21
31.73434161302726
 31
0.0
  0
LINE
  5
1E6
330
181
100
AcDbEntity
  8
0
 62
     0
100
AcDbLine
 10
115.6874999999999
 20
50.73434161302725
 30
0.0
 11
115.6874999999999
 21
51.73434161302726
 31
0.0
  0
LINE
  5
1E7
330
181
100
AcDbEntity
  8
0
 62
     0
100
AcDbLine
 10
115.6874999999999
 20
35.07447046157856
 30
0.0
 11
115.6874999999999
 21
45.96221615659269
 31
0.0
  0
LINE
  5
1E8
330
181
100
AcDbEntity
  8
0
 62
     0
100
AcDbLine
 10
115.4999999999999
 20
30.73434161302726
 30
0.0
 11
115.4999999999999
 21
31.73434161302726
 31
0.0
  0
LINE
  5
1E9
330
181
100
AcDbEntity
  8
0
 62
     0
100
AcDbLine
 10
115.4999999999999
 20
50.73434161302725
 30
0.0
 11
115.4999999999999
 21
51.73434161302726
 31
0.0
  0
LINE
  5
1EA
330
181
100
AcDbEntity
  8
0
 62
     0
100
AcDbLine
 10
115.4999999999999
 20
35.03252279226054
 30
0.0
 11
115.4999999999999
 21
46.28697568286352
 31
0.0
  0
LINE
  5
1EB
330
181
100
AcDbEntity
  8
0
 62
     0
100
AcDbLine
 10
115.3124999999999
 20
30.73434161302726
 30
0.0
 11
115.3124999999999
 21
31.73434161302726
 31
0.0
  0
LINE
  5
1EC
330
181
100
AcDbEntity
  8
0
 62
     0
100
AcDbLine
 10
115.3124999999999
 20
50.73434161302725
 30
0.0
 11
115.3124999999999
 21
51.73434161302726
 31
0.0
  0
LINE
  5
1ED
330
181
100
AcDbEntity
  8
0
 62
     0
100
AcDbLine
 10
115.3124999999999
 20
35.02690536785105
 30
0.0
 11
115.3124999999999
 21
46.61173520913435
 31
0.0
  0
LINE
  5
1EE
330
181
100
AcDbEntity
  8
0
 62
     0
100
AcDbLine
 10
115.1249999999999
 20
30.73434161302726
 30
0.0
 11
115.1249999999999
 21
31.73434161302726
 31
0.0
  0
LINE
  5
1EF
330
181
100
AcDbEntity
  8
0
 62
     0
100
AcDbLine
 10
115.1249999999999
 20
50.73434161302725
 30
0.0
 11
115.1249999999999
 21
51.73434161302726
 31
0.0
  0
LINE
  5
1F0
330
181
100
AcDbEntity
  8
0
 62
     0
100
AcDbLine
 10
115.1249999999999
 20
35.05698541235051
 30
0.0
 11
115.1249999999999
 21
46.93649473540518
 31
0.0
  0
LINE
  5
1F1
330
181
100
AcDbEntity
  8
0
 62
     0
100
AcDbLine
 10
114.9374999999999
 20
30.73434161302726
 30
0.0
 11
114.9374999999999
 21
31.73434161302726
 31
0.0
  0
LINE
  5
1F2
330
181
100
AcDbEntity
  8
0
 62
     0
100
AcDbLine
 10
114.9374999999999
 20
50.73434161302725
 30
0.0
 11
114.9374999999999
 21
51.73434161302726
 31
0.0
  0
LINE
  5
1F3
330
181
100
AcDbEntity
  8
0
 62
     0
100
AcDbLine
 10
114.9374999999999
 20
35.1263409750557
 30
0.0
 11
114.9374999999999
 21
47.54073586155272
 31
0.0
  0
LINE
  5
1F4
330
181
100
AcDbEntity
  8
0
 62
     0
100
AcDbLine
 10
114.7499999999999
 20
30.73434161302726
 30
0.0
 11
114.7499999999999
 21
31.73434161302726
 31
0.0
  0
LINE
  5
1F5
330
181
100
AcDbEntity
  8
0
 62
     0
100
AcDbLine
 10
114.7499999999999
 20
50.73434161302725
 30
0.0
 11
114.7499999999999
 21
51.73434161302726
 31
0.0
  0
LINE
  5
1F6
330
181
100
AcDbEntity
  8
0
 62
     0
100
AcDbLine
 10
114.7499999999999
 20
35.24538639737466
 30
0.0
 11
114.7499999999999
 21
47.21597633515672
 31
0.0
  0
LINE
  5
1F7
330
181
100
AcDbEntity
  8
0
 62
     0
100
AcDbLine
 10
114.5624999999999
 20
30.73434161302726
 30
0.0
 11
114.5624999999999
 21
31.73434161302726
 31
0.0
  0
LINE
  5
1F8
330
181
100
AcDbEntity
  8
0
 62
     0
100
AcDbLine
 10
114.5624999999999
 20
50.73434161302725
 30
0.0
 11
114.5624999999999
 21
51.73434161302726
 31
0.0
  0
LINE
  5
1F9
330
181
100
AcDbEntity
  8
0
 62
     0
100
AcDbLine
 10
114.5624999999999
 20
35.44390461668304
 30
0.0
 11
114.5624999999999
 21
46.89121680876072
 31
0.0
  0
LINE
  5
1FA
330
181
100
AcDbEntity
  8
0
 62
     0
100
AcDbLine
 10
114.3749999999999
 20
30.73434161302726
 30
0.0
 11
114.3749999999999
 21
31.73434161302726
 31
0.0
  0
LINE
  5
1FB
330
181
100
AcDbEntity
  8
0
 62
     0
100
AcDbLine
 10
114.3749999999999
 20
50.73434161302725
 30
0.0
 11
114.3749999999999
 21
51.73434161302726
 31
0.0
  0
LINE
  5
1FC
330
181
100
AcDbEntity
  8
0
 62
     0
100
AcDbLine
 10
114.3749999999999
 20
35.75939714825758
 30
0.0
 11
114.3749999999999
 21
46.56645728236473
 31
0.0
  0
LINE
  5
1FD
330
181
100
AcDbEntity
  8
0
 62
     0
100
AcDbLine
 10
114.1874999999999
 20
30.73434161302726
 30
0.0
 11
114.1874999999999
 21
31.73434161302726
 31
0.0
  0
LINE
  5
1FE
330
181
100
AcDbEntity
  8
0
 62
     0
100
AcDbLine
 10
114.1874999999999
 20
50.73434161302725
 30
0.0
 11
114.1874999999999
 21
51.73434161302726
 31
0.0
  0
LINE
  5
1FF
330
181
100
AcDbEntity
  8
0
 62
     0
100
AcDbLine
 10
114.1874999999999
 20
36.08415667527249
 30
0.0
 11
114.1874999999999
 21
46.24169775596873
 31
0.0
  0
LINE
  5
200
330
181
100
AcDbEntity
  8
0
 62
     0
100
AcDbLine
 10
113.9999999999999
 20
30.73434161302726
 30
0.0
 11
113.9999999999999
 21
31.73434161302726
 31
0.0
  0
LINE
  5
201
330
181
100
AcDbEntity
  8
0
 62
     0
100
AcDbLine
 10
113.9999999999999
 20
50.73434161302725
 30
0.0
 11
113.9999999999999
 21
51.73434161302726
 31
0.0
  0
LINE
  5
202
330
181
100
AcDbEntity
  8
0
 62
     0
100
AcDbLine
 10
113.9999999999999
 20
36.40891620228741
 30
0.0
 11
113.9999999999999
 21
45.91693822957273
 31
0.0
  0
LINE
  5
203
330
181
100
AcDbEntity
  8
0
 62
     0
100
AcDbLine
 10
113.8124999999999
 20
30.73434161302726
 30
0.0
 11
113.8124999999999
 21
31.73434161302726
 31
0.0
  0
LINE
  5
204
330
181
100
AcDbEntity
  8
0
 62
     0
100
AcDbLine
 10
113.8124999999999
 20
50.73434161302725
 30
0.0
 11
113.8124999999999
 21
51.73434161302726
 31
0.0
  0
LINE
  5
205
330
181
100
AcDbEntity
  8
0
 62
     0
100
AcDbLine
 10
113.8124999999999
 20
36.73367572930232
 30
0.0
 11
113.8124999999999
 21
45.59217870317673
 31
0.0
  0
LINE
  5
206
330
181
100
AcDbEntity
  8
0
 62
     0
100
AcDbLine
 10
113.6249999999999
 20
30.73434161302726
 30
0.0
 11
113.6249999999999
 21
31.73434161302726
 31
0.0
  0
LINE
  5
207
330
181
100
AcDbEntity
  8
0
 62
     0
100
AcDbLine
 10
113.6249999999999
 20
50.73434161302725
 30
0.0
 11
113.6249999999999
 21
51.73434161302726
 31
0.0
  0
LINE
  5
208
330
181
100
AcDbEntity
  8
0
 62
     0
100
AcDbLine
 10
113.6249999999999
 20
37.05843525631724
 30
0.0
 11
113.6249999999999
 21
45.26741917678073
 31
0.0
  0
LINE
  5
209
330
181
100
AcDbEntity
  8
0
 62
     0
100
AcDbLine
 10
113.4374999999999
 20
30.73434161302726
 30
0.0
 11
113.4374999999999
 21
31.73434161302726
 31
0.0
  0
LINE
  5
20A
330
181
100
AcDbEntity
  8
0
 62
     0
100
AcDbLine
 10
113.4374999999999
 20
50.73434161302725
 30
0.0
 11
113.4374999999999
 21
51.73434161302726
 31
0.0
  0
LINE
  5
20B
330
181
100
AcDbEntity
  8
0
 62
     0
100
AcDbLine
 10
113.4374999999999
 20
37.38319478333215
 30
0.0
 11
113.4374999999999
 21
44.94265965038473
 31
0.0
  0
LINE
  5
20C
330
181
100
AcDbEntity
  8
0
 62
     0
100
AcDbLine
 10
113.2499999999999
 20
30.73434161302726
 30
0.0
 11
113.2499999999999
 21
31.73434161302726
 31
0.0
  0
LINE
  5
20D
330
181
100
AcDbEntity
  8
0
 62
     0
100
AcDbLine
 10
113.2499999999999
 20
50.73434161302725
 30
0.0
 11
113.2499999999999
 21
51.73434161302726
 31
0.0
  0
LINE
  5
20E
330
181
100
AcDbEntity
  8
0
 62
     0
100
AcDbLine
 10
113.2499999999999
 20
37.70795431034707
 30
0.0
 11
113.2499999999999
 21
44.61790012398874
 31
0.0
  0
LINE
  5
20F
330
181
100
AcDbEntity
  8
0
 62
     0
100
AcDbLine
 10
113.0624999999999
 20
30.73434161302726
 30
0.0
 11
113.0624999999999
 21
31.73434161302726
 31
0.0
  0
LINE
  5
210
330
181
100
AcDbEntity
  8
0
 62
     0
100
AcDbLine
 10
113.0624999999999
 20
50.73434161302725
 30
0.0
 11
113.0624999999999
 21
51.73434161302726
 31
0.0
  0
LINE
  5
211
330
181
100
AcDbEntity
  8
0
 62
     0
100
AcDbLine
 10
113.0624999999999
 20
38.03271383736198
 30
0.0
 11
113.0624999999999
 21
44.29314059759273
 31
0.0
  0
LINE
  5
212
330
181
100
AcDbEntity
  8
0
 62
     0
100
AcDbLine
 10
112.8749999999999
 20
30.73434161302726
 30
0.0
 11
112.8749999999999
 21
31.73434161302726
 31
0.0
  0
LINE
  5
213
330
181
100
AcDbEntity
  8
0
 62
     0
100
AcDbLine
 10
112.8749999999999
 20
50.73434161302725
 30
0.0
 11
112.8749999999999
 21
51.73434161302726
 31
0.0
  0
LINE
  5
214
330
181
100
AcDbEntity
  8
0
 62
     0
100
AcDbLine
 10
112.8749999999999
 20
38.35747336437689
 30
0.0
 11
112.8749999999999
 21
43.96838107119673
 31
0.0
  0
LINE
  5
215
330
181
100
AcDbEntity
  8
0
 62
     0
100
AcDbLine
 10
112.6874999999999
 20
30.73434161302726
 30
0.0
 11
112.6874999999999
 21
31.73434161302726
 31
0.0
  0
LINE
  5
216
330
181
100
AcDbEntity
  8
0
 62
     0
100
AcDbLine
 10
112.6874999999999
 20
50.73434161302725
 30
0.0
 11
112.6874999999999
 21
51.73434161302726
 31
0.0
  0
LINE
  5
217
330
181
100
AcDbEntity
  8
0
 62
     0
100
AcDbLine
 10
112.6874999999999
 20
38.68223289139181
 30
0.0
 11
112.6874999999999
 21
43.64362154480074
 31
0.0
  0
LINE
  5
218
330
181
100
AcDbEntity
  8
0
 62
     0
100
AcDbLine
 10
112.4999999999999
 20
30.73434161302726
 30
0.0
 11
112.4999999999999
 21
31.73434161302726
 31
0.0
  0
LINE
  5
219
330
181
100
AcDbEntity
  8
0
 62
     0
100
AcDbLine
 10
112.4999999999999
 20
50.73434161302725
 30
0.0
 11
112.4999999999999
 21
51.73434161302726
 31
0.0
  0
LINE
  5
21A
330
181
100
AcDbEntity
  8
0
 62
     0
100
AcDbLine
 10
112.4999999999999
 20
39.00699241840672
 30
0.0
 11
112.4999999999999
 21
43.31886201840474
 31
0.0
  0
LINE
  5
21B
330
181
100
AcDbEntity
  8
0
 62
     0
100
AcDbLine
 10
112.3124999999999
 20
30.73434161302726
 30
0.0
 11
112.3124999999999
 21
31.73434161302726
 31
0.0
  0
LINE
  5
21C
330
181
100
AcDbEntity
  8
0
 62
     0
100
AcDbLine
 10
112.3124999999999
 20
50.73434161302725
 30
0.0
 11
112.3124999999999
 21
51.73434161302726
 31
0.0
  0
LINE
  5
21D
330
181
100
AcDbEntity
  8
0
 62
     0
100
AcDbLine
 10
112.3124999999999
 20
39.33175194542164
 30
0.0
 11
112.3124999999999
 21
42.99410249200874
 31
0.0
  0
LINE
  5
21E
330
181
100
AcDbEntity
  8
0
 62
     0
100
AcDbLine
 10
112.1249999999999
 20
30.73434161302726
 30
0.0
 11
112.1249999999999
 21
31.73434161302726
 31
0.0
  0
LINE
  5
21F
330
181
100
AcDbEntity
  8
0
 62
     0
100
AcDbLine
 10
112.1249999999999
 20
50.73434161302725
 30
0.0
 11
112.1249999999999
 21
51.73434161302726
 31
0.0
  0
LINE
  5
220
330
181
100
AcDbEntity
  8
0
 62
     0
100
AcDbLine
 10
112.1249999999999
 20
39.65651147243655
 30
0.0
 11
112.1249999999999
 21
42.66934296561275
 31
0.0
  0
LINE
  5
221
330
181
100
AcDbEntity
  8
0
 62
     0
100
AcDbLine
 10
111.9374999999999
 20
30.73434161302726
 30
0.0
 11
111.9374999999999
 21
31.73434161302726
 31
0.0
  0
LINE
  5
222
330
181
100
AcDbEntity
  8
0
 62
     0
100
AcDbLine
 10
111.9374999999999
 20
50.73434161302725
 30
0.0
 11
111.9374999999999
 21
51.73434161302726
 31
0.0
  0
LINE
  5
223
330
181
100
AcDbEntity
  8
0
 62
     0
100
AcDbLine
 10
111.9374999999999
 20
39.98127099945147
 30
0.0
 11
111.9374999999999
 21
42.34458343921675
 31
0.0
  0
LINE
  5
224
330
181
100
AcDbEntity
  8
0
 62
     0
100
AcDbLine
 10
111.7499999999999
 20
30.73434161302726
 30
0.0
 11
111.7499999999999
 21
31.73434161302726
 31
0.0
  0
LINE
  5
225
330
181
100
AcDbEntity
  8
0
 62
     0
100
AcDbLine
 10
111.7499999999999
 20
50.73434161302725
 30
0.0
 11
111.7499999999999
 21
51.73434161302726
 31
0.0
  0
LINE
  5
226
330
181
100
AcDbEntity
  8
0
 62
     0
100
AcDbLine
 10
111.7499999999999
 20
40.30603052646639
 30
0.0
 11
111.7499999999999
 21
42.01982391282075
 31
0.0
  0
LINE
  5
227
330
181
100
AcDbEntity
  8
0
 62
     0
100
AcDbLine
 10
111.5624999999999
 20
30.740674914095
 30
0.0
 11
111.5624999999999
 21
31.74492105275434
 31
0.0
  0
LINE
  5
228
330
181
100
AcDbEntity
  8
0
 62
     0
100
AcDbLine
 10
111.5624999999999
 20
50.72376217330047
 30
0.0
 11
111.5624999999999
 21
51.72800831195969
 31
0.0
  0
LINE
  5
229
330
181
100
AcDbEntity
  8
0
 62
     0
100
AcDbLine
 10
111.5624999999999
 20
40.6307900534813
 30
0.0
 11
111.5624999999999
 21
41.69506438642475
 31
0.0
  0
LINE
  5
22A
330
181
100
AcDbEntity
  8
0
 62
     0
100
AcDbLine
 10
111.3749999999999
 20
30.76118006092885
 30
0.0
 11
111.3749999999999
 21
31.77951239185461
 31
0.0
  0
LINE
  5
22B
330
181
100
AcDbEntity
  8
0
 62
     0
100
AcDbLine
 10
111.3749999999999
 20
50.6891708342002
 30
0.0
 11
111.3749999999999
 21
51.70750316512584
 31
0.0
  0
LINE
  5
22C
330
181
100
AcDbEntity
  8
0
 62
     0
100
AcDbLine
 10
111.1874999999999
 20
30.79623373596523
 30
0.0
 11
111.1874999999999
 21
31.83993492192459
 31
0.0
  0
LINE
  5
22D
330
181
100
AcDbEntity
  8
0
 62
     0
100
AcDbLine
 10
111.1874999999999
 20
50.62874830413023
 30
0.0
 11
111.1874999999999
 21
51.67244949008946
 31
0.0
  0
LINE
  5
22E
330
181
100
AcDbEntity
  8
0
 62
     0
100
AcDbLine
 10
110.9999999999999
 20
30.84647656709062
 30
0.0
 11
110.9999999999999
 21
31.92977291893484
 31
0.0
  0
LINE
  5
22F
330
181
100
AcDbEntity
  8
0
 62
     0
100
AcDbLine
 10
110.9999999999999
 20
50.53891030712001
 30
0.0
 11
110.9999999999999
 21
51.62220665896407
 31
0.0
  0
LINE
  5
230
330
181
100
AcDbEntity
  8
0
 62
     0
100
AcDbLine
 10
110.8124999999999
 20
30.91289455676685
 30
0.0
 11
110.8124999999999
 21
32.05573377535601
 31
0.0
  0
LINE
  5
231
330
181
100
AcDbEntity
  8
0
 62
     0
100
AcDbLine
 10
110.8124999999999
 20
50.41294945069886
 30
0.0
 11
110.8124999999999
 21
51.55578866928784
 31
0.0
  0
LINE
  5
232
330
181
100
AcDbEntity
  8
0
 62
     0
100
AcDbLine
 10
110.6249999999999
 20
30.99692772810695
 30
0.0
 11
110.6249999999999
 21
32.23133568461298
 31
0.0
  0
LINE
  5
233
330
181
100
AcDbEntity
  8
0
 62
     0
100
AcDbLine
 10
110.6249999999999
 20
50.23734754144197
 30
0.0
 11
110.6249999999999
 21
51.47175549794775
 31
0.0
  0
LINE
  5
234
330
181
100
AcDbEntity
  8
0
 62
     0
100
AcDbLine
 10
110.4374999999999
 20
31.10065633870766
 30
0.0
 11
110.4374999999999
 21
32.49096226851445
 31
0.0
  0
LINE
  5
235
330
181
100
AcDbEntity
  8
0
 62
     0
100
AcDbLine
 10
110.4374999999999
 20
49.97772095754063
 30
0.0
 11
110.4374999999999
 21
51.36802688734705
 31
0.0
  0
LINE
  5
236
330
181
100
AcDbEntity
  8
0
 62
     0
100
AcDbLine
 10
110.2499999999999
 20
31.22713153252687
 30
0.0
 11
110.2499999999999
 21
33.06436424023194
 31
0.0
  0
LINE
  5
237
330
181
100
AcDbEntity
  8
0
 62
     0
100
AcDbLine
 10
110.2499999999999
 20
49.40431898582504
 30
0.0
 11
110.2499999999999
 21
51.24155169352786
 31
0.0
  0
LINE
  5
238
330
181
100
AcDbEntity
  8
0
 62
     0
100
AcDbLine
 10
110.0624999999999
 20
31.38100428143419
 30
0.0
 11
110.0624999999999
 21
51.08767894462054
 31
0.0
  0
LINE
  5
239
330
181
100
AcDbEntity
  8
0
 62
     0
100
AcDbLine
 10
109.8749999999999
 20
31.56985558962826
 30
0.0
 11
109.8749999999999
 21
50.89882763642649
 31
0.0
  0
LINE
  5
23A
330
181
100
AcDbEntity
  8
0
 62
     0
100
AcDbLine
 10
109.6874999999999
 20
31.80750746726795
 30
0.0
 11
109.6874999999999
 21
50.66117575878685
 31
0.0
  0
LINE
  5
23B
330
181
100
AcDbEntity
  8
0
 62
     0
100
AcDbLine
 10
109.4999999999999
 20
32.12488898361093
 30
0.0
 11
109.4999999999999
 21
50.34379424244395
 31
0.0
  0
LINE
  5
23C
330
181
100
AcDbEntity
  8
0
 62
     0
100
AcDbLine
 10
109.3124999999999
 20
32.63801779635305
 30
0.0
 11
109.3124999999999
 21
49.83066542970214
 31
0.0
  0
LINE
  5
23D
330
181
100
AcDbEntity
  8
0
 62
     0
100
AcDbLine
 10
119.8124999999999
 20
30.73434161302726
 30
0.0
 11
119.8124999999999
 21
31.73434161302726
 31
0.0
  0
LINE
  5
23E
330
181
100
AcDbEntity
  8
0
 62
     0
100
AcDbLine
 10
119.8124999999999
 20
50.73434161302725
 30
0.0
 11
119.8124999999999
 21
51.73434161302726
 31
0.0
  0
LINE
  5
23F
330
181
100
AcDbEntity
  8
0
 62
     0
100
AcDbLine
 10
119.8124999999999
 20
34.23389329927631
 30
0.0
 11
119.8124999999999
 21
40.08222418853857
 31
0.0
  0
LINE
  5
240
330
181
100
AcDbEntity
  8
0
 62
     0
100
AcDbLine
 10
119.8124999999999
 20
42.36292722007112
 30
0.0
 11
119.8124999999999
 21
48.39196114086594
 31
0.0
  0
LINE
  5
241
330
181
100
AcDbEntity
  8
0
 62
     0
100
AcDbLine
 10
119.9999999999999
 20
30.73434161302726
 30
0.0
 11
119.9999999999999
 21
31.73434161302726
 31
0.0
  0
LINE
  5
242
330
181
100
AcDbEntity
  8
0
 62
     0
100
AcDbLine
 10
119.9999999999999
 20
50.73434161302725
 30
0.0
 11
119.9999999999999
 21
51.73434161302726
 31
0.0
  0
LINE
  5
243
330
181
100
AcDbEntity
  8
0
 62
     0
100
AcDbLine
 10
119.9999999999999
 20
34.23389329927631
 30
0.0
 11
119.9999999999999
 21
40.1624328003386
 31
0.0
  0
LINE
  5
244
330
181
100
AcDbEntity
  8
0
 62
     0
100
AcDbLine
 10
119.9999999999999
 20
42.36292722007112
 30
0.0
 11
119.9999999999999
 21
48.39196114086594
 31
0.0
  0
LINE
  5
245
330
181
100
AcDbEntity
  8
0
 62
     0
100
AcDbLine
 10
120.1874999999999
 20
30.73434161302726
 30
0.0
 11
120.1874999999999
 21
31.73434161302726
 31
0.0
  0
LINE
  5
246
330
181
100
AcDbEntity
  8
0
 62
     0
100
AcDbLine
 10
120.1874999999999
 20
50.73434161302725
 30
0.0
 11
120.1874999999999
 21
51.73434161302726
 31
0.0
  0
LINE
  5
247
330
181
100
AcDbEntity
  8
0
 62
     0
100
AcDbLine
 10
120.1874999999999
 20
34.23389329927631
 30
0.0
 11
120.1874999999999
 21
40.16292722007113
 31
0.0
  0
LINE
  5
248
330
181
100
AcDbEntity
  8
0
 62
     0
100
AcDbLine
 10
120.1874999999999
 20
42.36292722007112
 30
0.0
 11
120.1874999999999
 21
48.39196114086594
 31
0.0
  0
LINE
  5
249
330
181
100
AcDbEntity
  8
0
 62
     0
100
AcDbLine
 10
120.3749999999999
 20
30.73434161302726
 30
0.0
 11
120.3749999999999
 21
31.73434161302726
 31
0.0
  0
LINE
  5
24A
330
181
100
AcDbEntity
  8
0
 62
     0
100
AcDbLine
 10
120.3749999999999
 20
50.73434161302725
 30
0.0
 11
120.3749999999999
 21
51.73434161302726
 31
0.0
  0
LINE
  5
24B
330
181
100
AcDbEntity
  8
0
 62
     0
100
AcDbLine
 10
120.3749999999999
 20
34.23389329927631
 30
0.0
 11
120.3749999999999
 21
40.16292722007113
 31
0.0
  0
LINE
  5
24C
330
181
100
AcDbEntity
  8
0
 62
     0
100
AcDbLine
 10
120.3749999999999
 20
42.36292722007112
 30
0.0
 11
120.3749999999999
 21
48.39196114086594
 31
0.0
  0
LINE
  5
24D
330
181
100
AcDbEntity
  8
0
 62
     0
100
AcDbLine
 10
120.5624999999999
 20
30.73434161302726
 30
0.0
 11
120.5624999999999
 21
31.73434161302726
 31
0.0
  0
LINE
  5
24E
330
181
100
AcDbEntity
  8
0
 62
     0
100
AcDbLine
 10
120.5624999999999
 20
50.73434161302725
 30
0.0
 11
120.5624999999999
 21
51.73434161302726
 31
0.0
  0
LINE
  5
24F
330
181
100
AcDbEntity
  8
0
 62
     0
100
AcDbLine
 10
120.5624999999999
 20
34.23389329927631
 30
0.0
 11
120.5624999999999
 21
40.16292722007113
 31
0.0
  0
LINE
  5
250
330
181
100
AcDbEntity
  8
0
 62
     0
100
AcDbLine
 10
120.5624999999999
 20
42.36292722007112
 30
0.0
 11
120.5624999999999
 21
48.39196114086594
 31
0.0
  0
LINE
  5
251
330
181
100
AcDbEntity
  8
0
 62
     0
100
AcDbLine
 10
120.7499999999999
 20
30.73434161302726
 30
0.0
 11
120.7499999999999
 21
31.73434161302726
 31
0.0
  0
LINE
  5
252
330
181
100
AcDbEntity
  8
0
 62
     0
100
AcDbLine
 10
120.7499999999999
 20
50.73434161302725
 30
0.0
 11
120.7499999999999
 21
51.73434161302726
 31
0.0
  0
LINE
  5
253
330
181
100
AcDbEntity
  8
0
 62
     0
100
AcDbLine
 10
120.7499999999999
 20
34.23389329927631
 30
0.0
 11
120.7499999999999
 21
40.16292722007113
 31
0.0
  0
LINE
  5
254
330
181
100
AcDbEntity
  8
0
 62
     0
100
AcDbLine
 10
120.7499999999999
 20
42.36292722007112
 30
0.0
 11
120.7499999999999
 21
48.39196114086594
 31
0.0
  0
LINE
  5
255
330
181
100
AcDbEntity
  8
0
 62
     0
100
AcDbLine
 10
120.9374999999999
 20
30.73434161302726
 30
0.0
 11
120.9374999999999
 21
31.73434161302726
 31
0.0
  0
LINE
  5
256
330
181
100
AcDbEntity
  8
0
 62
     0
100
AcDbLine
 10
120.9374999999999
 20
50.73434161302725
 30
0.0
 11
120.9374999999999
 21
51.73434161302726
 31
0.0
  0
LINE
  5
257
330
181
100
AcDbEntity
  8
0
 62
     0
100
AcDbLine
 10
120.9374999999999
 20
34.23389329927631
 30
0.0
 11
120.9374999999999
 21
40.16292722007113
 31
0.0
  0
LINE
  5
258
330
181
100
AcDbEntity
  8
0
 62
     0
100
AcDbLine
 10
120.9374999999999
 20
42.36292722007112
 30
0.0
 11
120.9374999999999
 21
48.39196114086594
 31
0.0
  0
LINE
  5
259
330
181
100
AcDbEntity
  8
0
 62
     0
100
AcDbLine
 10
121.1249999999999
 20
30.73434161302726
 30
0.0
 11
121.1249999999999
 21
31.73434161302726
 31
0.0
  0
LINE
  5
25A
330
181
100
AcDbEntity
  8
0
 62
     0
100
AcDbLine
 10
121.1249999999999
 20
50.73434161302725
 30
0.0
 11
121.1249999999999
 21
51.73434161302726
 31
0.0
  0
LINE
  5
25B
330
181
100
AcDbEntity
  8
0
 62
     0
100
AcDbLine
 10
121.1249999999999
 20
34.23389329927631
 30
0.0
 11
121.1249999999999
 21
40.16292722007113
 31
0.0
  0
LINE
  5
25C
330
181
100
AcDbEntity
  8
0
 62
     0
100
AcDbLine
 10
121.1249999999999
 20
42.36292722007112
 30
0.0
 11
121.1249999999999
 21
48.39196114086594
 31
0.0
  0
LINE
  5
25D
330
181
100
AcDbEntity
  8
0
 62
     0
100
AcDbLine
 10
121.3124999999999
 20
30.73434161302726
 30
0.0
 11
121.3124999999999
 21
31.73434161302726
 31
0.0
  0
LINE
  5
25E
330
181
100
AcDbEntity
  8
0
 62
     0
100
AcDbLine
 10
121.3124999999999
 20
50.73434161302725
 30
0.0
 11
121.3124999999999
 21
51.73434161302726
 31
0.0
  0
LINE
  5
25F
330
181
100
AcDbEntity
  8
0
 62
     0
100
AcDbLine
 10
121.3124999999999
 20
34.23389329927631
 30
0.0
 11
121.3124999999999
 21
40.16292722007113
 31
0.0
  0
LINE
  5
260
330
181
100
AcDbEntity
  8
0
 62
     0
100
AcDbLine
 10
121.3124999999999
 20
42.36292722007112
 30
0.0
 11
121.3124999999999
 21
48.39196114086594
 31
0.0
  0
LINE
  5
261
330
181
100
AcDbEntity
  8
0
 62
     0
100
AcDbLine
 10
121.4999999999999
 20
30.73434161302726
 30
0.0
 11
121.4999999999999
 21
31.73434161302726
 31
0.0
  0
LINE
  5
262
330
181
100
AcDbEntity
  8
0
 62
     0
100
AcDbLine
 10
121.4999999999999
 20
50.73434161302725
 30
0.0
 11
121.4999999999999
 21
51.73434161302726
 31
0.0
  0
LINE
  5
263
330
181
100
AcDbEntity
  8
0
 62
     0
100
AcDbLine
 10
121.4999999999999
 20
34.23389329927631
 30
0.0
 11
121.4999999999999
 21
40.16292722007113
 31
0.0
  0
LINE
  5
264
330
181
100
AcDbEntity
  8
0
 62
     0
100
AcDbLine
 10
121.4999999999999
 20
42.36292722007112
 30
0.0
 11
121.4999999999999
 21
48.39196114086594
 31
0.0
  0
LINE
  5
265
330
181
100
AcDbEntity
  8
0
 62
     0
100
AcDbLine
 10
121.6874999999999
 20
30.73434161302726
 30
0.0
 11
121.6874999999999
 21
31.73434161302726
 31
0.0
  0
LINE
  5
266
330
181
100
AcDbEntity
  8
0
 62
     0
100
AcDbLine
 10
121.6874999999999
 20
50.73434161302725
 30
0.0
 11
121.6874999999999
 21
51.73434161302726
 31
0.0
  0
LINE
  5
267
330
181
100
AcDbEntity
  8
0
 62
     0
100
AcDbLine
 10
121.6874999999999
 20
34.23389329927631
 30
0.0
 11
121.6874999999999
 21
40.16292722007113
 31
0.0
  0
LINE
  5
268
330
181
100
AcDbEntity
  8
0
 62
     0
100
AcDbLine
 10
121.6874999999999
 20
42.36292722007112
 30
0.0
 11
121.6874999999999
 21
48.39196114086594
 31
0.0
  0
LINE
  5
269
330
181
100
AcDbEntity
  8
0
 62
     0
100
AcDbLine
 10
121.8749999999999
 20
30.73434161302726
 30
0.0
 11
121.8749999999999
 21
31.73434161302726
 31
0.0
  0
LINE
  5
26A
330
181
100
AcDbEntity
  8
0
 62
     0
100
AcDbLine
 10
121.8749999999999
 20
50.73434161302725
 30
0.0
 11
121.8749999999999
 21
51.73434161302726
 31
0.0
  0
LINE
  5
26B
330
181
100
AcDbEntity
  8
0
 62
     0
100
AcDbLine
 10
121.8749999999999
 20
34.23389329927631
 30
0.0
 11
121.8749999999999
 21
40.16292722007113
 31
0.0
  0
LINE
  5
26C
330
181
100
AcDbEntity
  8
0
 62
     0
100
AcDbLine
 10
121.8749999999999
 20
42.36292722007112
 30
0.0
 11
121.8749999999999
 21
48.39196114086594
 31
0.0
  0
LINE
  5
26D
330
181
100
AcDbEntity
  8
0
 62
     0
100
AcDbLine
 10
122.0624999999999
 20
30.73434161302726
 30
0.0
 11
122.0624999999999
 21
31.73434161302726
 31
0.0
  0
LINE
  5
26E
330
181
100
AcDbEntity
  8
0
 62
     0
100
AcDbLine
 10
122.0624999999999
 20
50.73434161302725
 30
0.0
 11
122.0624999999999
 21
51.73434161302726
 31
0.0
  0
LINE
  5
26F
330
181
100
AcDbEntity
  8
0
 62
     0
100
AcDbLine
 10
122.0624999999999
 20
34.23389329927631
 30
0.0
 11
122.0624999999999
 21
40.16292722007113
 31
0.0
  0
LINE
  5
270
330
181
100
AcDbEntity
  8
0
 62
     0
100
AcDbLine
 10
122.0624999999999
 20
42.36292722007112
 30
0.0
 11
122.0624999999999
 21
48.39196114086594
 31
0.0
  0
LINE
  5
271
330
181
100
AcDbEntity
  8
0
 62
     0
100
AcDbLine
 10
122.2499999999999
 20
30.73434161302726
 30
0.0
 11
122.2499999999999
 21
31.73434161302726
 31
0.0
  0
LINE
  5
272
330
181
100
AcDbEntity
  8
0
 62
     0
100
AcDbLine
 10
122.2499999999999
 20
50.73434161302725
 30
0.0
 11
122.2499999999999
 21
51.73434161302726
 31
0.0
  0
LINE
  5
273
330
181
100
AcDbEntity
  8
0
 62
     0
100
AcDbLine
 10
122.2499999999999
 20
34.23389329927631
 30
0.0
 11
122.2499999999999
 21
40.16292722007113
 31
0.0
  0
LINE
  5
274
330
181
100
AcDbEntity
  8
0
 62
     0
100
AcDbLine
 10
122.2499999999999
 20
42.36292722007112
 30
0.0
 11
122.2499999999999
 21
48.39196114086594
 31
0.0
  0
LINE
  5
275
330
181
100
AcDbEntity
  8
0
 62
     0
100
AcDbLine
 10
122.4374999999999
 20
30.73434161302726
 30
0.0
 11
122.4374999999999
 21
31.73434161302726
 31
0.0
  0
LINE
  5
276
330
181
100
AcDbEntity
  8
0
 62
     0
100
AcDbLine
 10
122.4374999999999
 20
50.73434161302725
 30
0.0
 11
122.4374999999999
 21
51.73434161302726
 31
0.0
  0
LINE
  5
277
330
181
100
AcDbEntity
  8
0
 62
     0
100
AcDbLine
 10
122.4374999999999
 20
34.23389329927631
 30
0.0
 11
122.4374999999999
 21
40.16292722007113
 31
0.0
  0
LINE
  5
278
330
181
100
AcDbEntity
  8
0
 62
     0
100
AcDbLine
 10
122.4374999999999
 20
42.36292722007112
 30
0.0
 11
122.4374999999999
 21
48.39196114086594
 31
0.0
  0
LINE
  5
279
330
181
100
AcDbEntity
  8
0
 62
     0
100
AcDbLine
 10
122.6249999999999
 20
30.73434161302726
 30
0.0
 11
122.6249999999999
 21
31.73434161302726
 31
0.0
  0
LINE
  5
27A
330
181
100
AcDbEntity
  8
0
 62
     0
100
AcDbLine
 10
122.6249999999999
 20
50.73434161302725
 30
0.0
 11
122.6249999999999
 21
51.73434161302726
 31
0.0
  0
LINE
  5
27B
330
181
100
AcDbEntity
  8
0
 62
     0
100
AcDbLine
 10
122.6249999999999
 20
34.23389329927631
 30
0.0
 11
122.6249999999999
 21
40.16292722007113
 31
0.0
  0
LINE
  5
27C
330
181
100
AcDbEntity
  8
0
 62
     0
100
AcDbLine
 10
122.6249999999999
 20
42.36292722007112
 30
0.0
 11
122.6249999999999
 21
48.39196114086594
 31
0.0
  0
LINE
  5
27D
330
181
100
AcDbEntity
  8
0
 62
     0
100
AcDbLine
 10
122.8124999999999
 20
30.73434161302726
 30
0.0
 11
122.8124999999999
 21
31.73434161302726
 31
0.0
  0
LINE
  5
27E
330
181
100
AcDbEntity
  8
0
 62
     0
100
AcDbLine
 10
122.8124999999999
 20
50.73434161302725
 30
0.0
 11
122.8124999999999
 21
51.73434161302726
 31
0.0
  0
LINE
  5
27F
330
181
100
AcDbEntity
  8
0
 62
     0
100
AcDbLine
 10
122.8124999999999
 20
34.23389329927631
 30
0.0
 11
122.8124999999999
 21
40.16292722007113
 31
0.0
  0
LINE
  5
280
330
181
100
AcDbEntity
  8
0
 62
     0
100
AcDbLine
 10
122.8124999999999
 20
42.36292722007112
 30
0.0
 11
122.8124999999999
 21
48.39196114086594
 31
0.0
  0
LINE
  5
281
330
181
100
AcDbEntity
  8
0
 62
     0
100
AcDbLine
 10
122.9999999999999
 20
30.73434161302726
 30
0.0
 11
122.9999999999999
 21
31.73434161302726
 31
0.0
  0
LINE
  5
282
330
181
100
AcDbEntity
  8
0
 62
     0
100
AcDbLine
 10
122.9999999999999
 20
50.73434161302725
 30
0.0
 11
122.9999999999999
 21
51.73434161302726
 31
0.0
  0
LINE
  5
283
330
181
100
AcDbEntity
  8
0
 62
     0
100
AcDbLine
 10
122.9999999999999
 20
34.23389329927631
 30
0.0
 11
122.9999999999999
 21
40.16292722007113
 31
0.0
  0
LINE
  5
284
330
181
100
AcDbEntity
  8
0
 62
     0
100
AcDbLine
 10
122.9999999999999
 20
42.36292722007112
 30
0.0
 11
122.9999999999999
 21
48.39145010178652
 31
0.0
  0
LINE
  5
285
330
181
100
AcDbEntity
  8
0
 62
     0
100
AcDbLine
 10
123.1874999999999
 20
30.73434161302726
 30
0.0
 11
123.1874999999999
 21
31.73434161302726
 31
0.0
  0
LINE
  5
286
330
181
100
AcDbEntity
  8
0
 62
     0
100
AcDbLine
 10
123.1874999999999
 20
50.73434161302725
 30
0.0
 11
123.1874999999999
 21
51.73434161302726
 31
0.0
  0
LINE
  5
287
330
181
100
AcDbEntity
  8
0
 62
     0
100
AcDbLine
 10
123.1874999999999
 20
34.24705839230357
 30
0.0
 11
123.1874999999999
 21
40.16292722007113
 31
0.0
  0
LINE
  5
288
330
181
100
AcDbEntity
  8
0
 62
     0
100
AcDbLine
 10
123.1874999999999
 20
42.36292722007112
 30
0.0
 11
123.1874999999999
 21
48.36758131842096
 31
0.0
  0
LINE
  5
289
330
181
100
AcDbEntity
  8
0
 62
     0
100
AcDbLine
 10
123.3749999999999
 20
30.73434161302726
 30
0.0
 11
123.3749999999999
 21
31.73434161302726
 31
0.0
  0
LINE
  5
28A
330
181
100
AcDbEntity
  8
0
 62
     0
100
AcDbLine
 10
123.3749999999999
 20
50.73434161302725
 30
0.0
 11
123.3749999999999
 21
51.73434161302726
 31
0.0
  0
LINE
  5
28B
330
181
100
AcDbEntity
  8
0
 62
     0
100
AcDbLine
 10
123.3749999999999
 20
34.29685657824298
 30
0.0
 11
123.3749999999999
 21
40.16292722007113
 31
0.0
  0
LINE
  5
28C
330
181
100
AcDbEntity
  8
0
 62
     0
100
AcDbLine
 10
123.3749999999999
 20
42.36292722007112
 30
0.0
 11
123.3749999999999
 21
48.30540450457434
 31
0.0
  0
LINE
  5
28D
330
181
100
AcDbEntity
  8
0
 62
     0
100
AcDbLine
 10
123.5624999999999
 20
30.73434161302726
 30
0.0
 11
123.5624999999999
 21
31.73434161302726
 31
0.0
  0
LINE
  5
28E
330
181
100
AcDbEntity
  8
0
 62
     0
100
AcDbLine
 10
123.5624999999999
 20
50.73434161302725
 30
0.0
 11
123.5624999999999
 21
51.73434161302726
 31
0.0
  0
LINE
  5
28F
330
181
100
AcDbEntity
  8
0
 62
     0
100
AcDbLine
 10
123.5624999999999
 20
34.39013978105555
 30
0.0
 11
123.5624999999999
 21
40.16292722007112
 31
0.0
  0
LINE
  5
290
330
181
100
AcDbEntity
  8
0
 62
     0
100
AcDbLine
 10
123.5624999999999
 20
42.36292722007112
 30
0.0
 11
123.5624999999999
 21
48.19608198163137
 31
0.0
  0
LINE
  5
291
330
181
100
AcDbEntity
  8
0
 62
     0
100
AcDbLine
 10
123.7499999999999
 20
30.73434161302726
 30
0.0
 11
123.7499999999999
 21
31.73434161302726
 31
0.0
  0
LINE
  5
292
330
181
100
AcDbEntity
  8
0
 62
     0
100
AcDbLine
 10
123.7499999999999
 20
50.73434161302725
 30
0.0
 11
123.7499999999999
 21
51.73434161302726
 31
0.0
  0
LINE
  5
293
330
181
100
AcDbEntity
  8
0
 62
     0
100
AcDbLine
 10
123.7499999999999
 20
34.54433570019199
 30
0.0
 11
123.7499999999999
 21
40.16292722007112
 31
0.0
  0
LINE
  5
294
330
181
100
AcDbEntity
  8
0
 62
     0
100
AcDbLine
 10
123.7499999999999
 20
42.36292722007112
 30
0.0
 11
123.7499999999999
 21
48.01528238581408
 31
0.0
  0
LINE
  5
295
330
181
100
AcDbEntity
  8
0
 62
     0
100
AcDbLine
 10
123.9374999999999
 20
30.73434161302726
 30
0.0
 11
123.9374999999999
 21
31.73434161302726
 31
0.0
  0
LINE
  5
296
330
181
100
AcDbEntity
  8
0
 62
     0
100
AcDbLine
 10
123.9374999999999
 20
50.73434161302725
 30
0.0
 11
123.9374999999999
 21
51.73434161302726
 31
0.0
  0
LINE
  5
297
330
181
100
AcDbEntity
  8
0
 62
     0
100
AcDbLine
 10
123.9374999999999
 20
34.81305744647532
 30
0.0
 11
123.9374999999999
 21
40.16292722007112
 31
0.0
  0
LINE
  5
298
330
181
100
AcDbEntity
  8
0
 62
     0
100
AcDbLine
 10
123.9374999999999
 20
42.36292722007112
 30
0.0
 11
123.9374999999999
 21
47.71279699366689
 31
0.0
  0
LINE
  5
299
330
181
100
AcDbEntity
  8
0
 62
     0
100
AcDbLine
 10
124.1249999999999
 20
30.73434161302725
 30
0.0
 11
124.1249999999999
 21
31.73434161302725
 31
0.0
  0
LINE
  5
29A
330
181
100
AcDbEntity
  8
0
 62
     0
100
AcDbLine
 10
124.1249999999999
 20
50.73434161302725
 30
0.0
 11
124.1249999999999
 21
51.73434161302726
 31
0.0
  0
LINE
  5
29B
330
181
100
AcDbEntity
  8
0
 62
     0
100
AcDbLine
 10
124.1249999999999
 20
35.13781697289449
 30
0.0
 11
124.1249999999999
 21
40.16292722007112
 31
0.0
  0
LINE
  5
29C
330
181
100
AcDbEntity
  8
0
 62
     0
100
AcDbLine
 10
124.1249999999999
 20
42.36292722007112
 30
0.0
 11
124.1249999999999
 21
47.38803746724773
 31
0.0
  0
LINE
  5
29D
330
181
100
AcDbEntity
  8
0
 62
     0
100
AcDbLine
 10
124.3124999999999
 20
30.73434161302725
 30
0.0
 11
124.3124999999999
 21
31.73434161302725
 31
0.0
  0
LINE
  5
29E
330
181
100
AcDbEntity
  8
0
 62
     0
100
AcDbLine
 10
124.3124999999999
 20
50.73434161302725
 30
0.0
 11
124.3124999999999
 21
51.73434161302726
 31
0.0
  0
LINE
  5
29F
330
181
100
AcDbEntity
  8
0
 62
     0
100
AcDbLine
 10
124.3124999999999
 20
35.46257649931365
 30
0.0
 11
124.3124999999999
 21
40.16292722007112
 31
0.0
  0
LINE
  5
2A0
330
181
100
AcDbEntity
  8
0
 62
     0
100
AcDbLine
 10
124.3124999999999
 20
42.36292722007112
 30
0.0
 11
124.3124999999999
 21
47.06327794082857
 31
0.0
  0
LINE
  5
2A1
330
181
100
AcDbEntity
  8
0
 62
     0
100
AcDbLine
 10
124.4999999999999
 20
30.73434161302725
 30
0.0
 11
124.4999999999999
 21
31.73434161302725
 31
0.0
  0
LINE
  5
2A2
330
181
100
AcDbEntity
  8
0
 62
     0
100
AcDbLine
 10
124.4999999999999
 20
50.73434161302725
 30
0.0
 11
124.4999999999999
 21
51.73434161302726
 31
0.0
  0
LINE
  5
2A3
330
181
100
AcDbEntity
  8
0
 62
     0
100
AcDbLine
 10
124.4999999999999
 20
35.78733602573282
 30
0.0
 11
124.4999999999999
 21
40.16292722007112
 31
0.0
  0
LINE
  5
2A4
330
181
100
AcDbEntity
  8
0
 62
     0
100
AcDbLine
 10
124.4999999999999
 20
42.36292722007112
 30
0.0
 11
124.4999999999999
 21
46.7385184144094
 31
0.0
  0
LINE
  5
2A5
330
181
100
AcDbEntity
  8
0
 62
     0
100
AcDbLine
 10
124.6874999999999
 20
30.73434161302725
 30
0.0
 11
124.6874999999999
 21
31.73434161302725
 31
0.0
  0
LINE
  5
2A6
330
181
100
AcDbEntity
  8
0
 62
     0
100
AcDbLine
 10
124.6874999999999
 20
50.73434161302725
 30
0.0
 11
124.6874999999999
 21
51.73434161302726
 31
0.0
  0
LINE
  5
2A7
330
181
100
AcDbEntity
  8
0
 62
     0
100
AcDbLine
 10
124.6874999999999
 20
36.11209555215198
 30
0.0
 11
124.6874999999999
 21
40.16292722007112
 31
0.0
  0
LINE
  5
2A8
330
181
100
AcDbEntity
  8
0
 62
     0
100
AcDbLine
 10
124.6874999999999
 20
42.36292722007112
 30
0.0
 11
124.6874999999999
 21
46.41375888799024
 31
0.0
  0
LINE
  5
2A9
330
181
100
AcDbEntity
  8
0
 62
     0
100
AcDbLine
 10
124.8749999999999
 20
30.73434161302725
 30
0.0
 11
124.8749999999999
 21
31.73434161302725
 31
0.0
  0
LINE
  5
2AA
330
181
100
AcDbEntity
  8
0
 62
     0
100
AcDbLine
 10
124.8749999999999
 20
50.73434161302725
 30
0.0
 11
124.8749999999999
 21
51.73434161302726
 31
0.0
  0
LINE
  5
2AB
330
181
100
AcDbEntity
  8
0
 62
     0
100
AcDbLine
 10
124.8749999999999
 20
36.43685507857115
 30
0.0
 11
124.8749999999999
 21
40.16292722007112
 31
0.0
  0
LINE
  5
2AC
330
181
100
AcDbEntity
  8
0
 62
     0
100
AcDbLine
 10
124.8749999999999
 20
42.36292722007112
 30
0.0
 11
124.8749999999999
 21
46.08899936157107
 31
0.0
  0
LINE
  5
2AD
330
181
100
AcDbEntity
  8
0
 62
     0
100
AcDbLine
 10
125.0624999999999
 20
30.73434161302725
 30
0.0
 11
125.0624999999999
 21
31.73434161302725
 31
0.0
  0
LINE
  5
2AE
330
181
100
AcDbEntity
  8
0
 62
     0
100
AcDbLine
 10
125.0624999999999
 20
50.73434161302725
 30
0.0
 11
125.0624999999999
 21
51.73434161302726
 31
0.0
  0
LINE
  5
2AF
330
181
100
AcDbEntity
  8
0
 62
     0
100
AcDbLine
 10
125.0624999999999
 20
36.7616146049903
 30
0.0
 11
125.0624999999999
 21
40.16292722007112
 31
0.0
  0
LINE
  5
2B0
330
181
100
AcDbEntity
  8
0
 62
     0
100
AcDbLine
 10
125.0624999999999
 20
42.36292722007112
 30
0.0
 11
125.0624999999999
 21
45.76423983515191
 31
0.0
  0
LINE
  5
2B1
330
181
100
AcDbEntity
  8
0
 62
     0
100
AcDbLine
 10
125.2499999999999
 20
30.73434161302725
 30
0.0
 11
125.2499999999999
 21
31.73434161302725
 31
0.0
  0
LINE
  5
2B2
330
181
100
AcDbEntity
  8
0
 62
     0
100
AcDbLine
 10
125.2499999999999
 20
50.73434161302725
 30
0.0
 11
125.2499999999999
 21
51.73434161302726
 31
0.0
  0
LINE
  5
2B3
330
181
100
AcDbEntity
  8
0
 62
     0
100
AcDbLine
 10
125.2499999999999
 20
37.08637413140947
 30
0.0
 11
125.2499999999999
 21
40.16292722007112
 31
0.0
  0
LINE
  5
2B4
330
181
100
AcDbEntity
  8
0
 62
     0
100
AcDbLine
 10
125.2499999999999
 20
42.36292722007112
 30
0.0
 11
125.2499999999999
 21
45.43948030873274
 31
0.0
  0
LINE
  5
2B5
330
181
100
AcDbEntity
  8
0
 62
     0
100
AcDbLine
 10
125.4374999999999
 20
30.73434161302725
 30
0.0
 11
125.4374999999999
 21
31.73434161302725
 31
0.0
  0
LINE
  5
2B6
330
181
100
AcDbEntity
  8
0
 62
     0
100
AcDbLine
 10
125.4374999999999
 20
50.73434161302725
 30
0.0
 11
125.4374999999999
 21
51.73434161302726
 31
0.0
  0
LINE
  5
2B7
330
181
100
AcDbEntity
  8
0
 62
     0
100
AcDbLine
 10
125.4374999999999
 20
37.41113365782863
 30
0.0
 11
125.4374999999999
 21
40.16292722007112
 31
0.0
  0
LINE
  5
2B8
330
181
100
AcDbEntity
  8
0
 62
     0
100
AcDbLine
 10
125.4374999999999
 20
42.36292722007112
 30
0.0
 11
125.4374999999999
 21
45.11472078231358
 31
0.0
  0
LINE
  5
2B9
330
181
100
AcDbEntity
  8
0
 62
     0
100
AcDbLine
 10
125.6249999999999
 20
30.73434161302725
 30
0.0
 11
125.6249999999999
 21
31.73434161302725
 31
0.0
  0
LINE
  5
2BA
330
181
100
AcDbEntity
  8
0
 62
     0
100
AcDbLine
 10
125.6249999999999
 20
50.73434161302725
 30
0.0
 11
125.6249999999999
 21
51.73434161302726
 31
0.0
  0
LINE
  5
2BB
330
181
100
AcDbEntity
  8
0
 62
     0
100
AcDbLine
 10
125.6249999999999
 20
37.7358931842478
 30
0.0
 11
125.6249999999999
 21
40.16292722007112
 31
0.0
  0
LINE
  5
2BC
330
181
100
AcDbEntity
  8
0
 62
     0
100
AcDbLine
 10
125.6249999999999
 20
42.36292722007112
 30
0.0
 11
125.6249999999999
 21
44.78996125589442
 31
0.0
  0
LINE
  5
2BD
330
181
100
AcDbEntity
  8
0
 62
     0
100
AcDbLine
 10
125.8124999999999
 20
30.73434161302725
 30
0.0
 11
125.8124999999999
 21
31.73434161302725
 31
0.0
  0
LINE
  5
2BE
330
181
100
AcDbEntity
  8
0
 62
     0
100
AcDbLine
 10
125.8124999999999
 20
50.73434161302725
 30
0.0
 11
125.8124999999999
 21
51.73434161302726
 31
0.0
  0
LINE
  5
2BF
330
181
100
AcDbEntity
  8
0
 62
     0
100
AcDbLine
 10
125.8124999999999
 20
38.06065271066696
 30
0.0
 11
125.8124999999999
 21
40.16292722007112
 31
0.0
  0
LINE
  5
2C0
330
181
100
AcDbEntity
  8
0
 62
     0
100
AcDbLine
 10
125.8124999999999
 20
42.36292722007112
 30
0.0
 11
125.8124999999999
 21
44.46520172947525
 31
0.0
  0
LINE
  5
2C1
330
181
100
AcDbEntity
  8
0
 62
     0
100
AcDbLine
 10
125.9999999999999
 20
30.73434161302725
 30
0.0
 11
125.9999999999999
 21
31.73434161302725
 31
0.0
  0
LINE
  5
2C2
330
181
100
AcDbEntity
  8
0
 62
     0
100
AcDbLine
 10
125.9999999999999
 20
50.73434161302725
 30
0.0
 11
125.9999999999999
 21
51.73434161302726
 31
0.0
  0
LINE
  5
2C3
330
181
100
AcDbEntity
  8
0
 62
     0
100
AcDbLine
 10
125.9999999999999
 20
38.38541223708613
 30
0.0
 11
125.9999999999999
 21
40.16292722007112
 31
0.0
  0
LINE
  5
2C4
330
181
100
AcDbEntity
  8
0
 62
     0
100
AcDbLine
 10
125.9999999999999
 20
42.36292722007112
 30
0.0
 11
125.9999999999999
 21
44.14044220305608
 31
0.0
  0
LINE
  5
2C5
330
181
100
AcDbEntity
  8
0
 62
     0
100
AcDbLine
 10
126.1874999999999
 20
30.73434161302725
 30
0.0
 11
126.1874999999999
 21
31.73434161302725
 31
0.0
  0
LINE
  5
2C6
330
181
100
AcDbEntity
  8
0
 62
     0
100
AcDbLine
 10
126.1874999999999
 20
50.73434161302725
 30
0.0
 11
126.1874999999999
 21
51.73434161302726
 31
0.0
  0
LINE
  5
2C7
330
181
100
AcDbEntity
  8
0
 62
     0
100
AcDbLine
 10
126.1874999999999
 20
38.71017176350529
 30
0.0
 11
126.1874999999999
 21
40.16292722007112
 31
0.0
  0
LINE
  5
2C8
330
181
100
AcDbEntity
  8
0
 62
     0
100
AcDbLine
 10
126.1874999999999
 20
42.36292722007112
 30
0.0
 11
126.1874999999999
 21
43.81568267663692
 31
0.0
  0
LINE
  5
2C9
330
181
100
AcDbEntity
  8
0
 62
     0
100
AcDbLine
 10
126.3749999999999
 20
30.73434161302725
 30
0.0
 11
126.3749999999999
 21
31.73434161302725
 31
0.0
  0
LINE
  5
2CA
330
181
100
AcDbEntity
  8
0
 62
     0
100
AcDbLine
 10
126.3749999999999
 20
50.73434161302725
 30
0.0
 11
126.3749999999999
 21
51.73434161302726
 31
0.0
  0
LINE
  5
2CB
330
181
100
AcDbEntity
  8
0
 62
     0
100
AcDbLine
 10
126.3749999999999
 20
39.03493128992446
 30
0.0
 11
126.3749999999999
 21
40.16292722007112
 31
0.0
  0
LINE
  5
2CC
330
181
100
AcDbEntity
  8
0
 62
     0
100
AcDbLine
 10
126.3749999999999
 20
42.36292722007112
 30
0.0
 11
126.3749999999999
 21
43.49092315021776
 31
0.0
  0
LINE
  5
2CD
330
181
100
AcDbEntity
  8
0
 62
     0
100
AcDbLine
 10
126.5624999999999
 20
30.73434161302725
 30
0.0
 11
126.5624999999999
 21
31.73434161302725
 31
0.0
  0
LINE
  5
2CE
330
181
100
AcDbEntity
  8
0
 62
     0
100
AcDbLine
 10
126.5624999999999
 20
50.73434161302725
 30
0.0
 11
126.5624999999999
 21
51.73434161302726
 31
0.0
  0
LINE
  5
2CF
330
181
100
AcDbEntity
  8
0
 62
     0
100
AcDbLine
 10
126.5624999999999
 20
39.35969081634362
 30
0.0
 11
126.5624999999999
 21
40.16292722007112
 31
0.0
  0
LINE
  5
2D0
330
181
100
AcDbEntity
  8
0
 62
     0
100
AcDbLine
 10
126.5624999999999
 20
42.36292722007112
 30
0.0
 11
126.5624999999999
 21
43.1661636237986
 31
0.0
  0
LINE
  5
2D1
330
181
100
AcDbEntity
  8
0
 62
     0
100
AcDbLine
 10
126.7499999999999
 20
30.73434161302725
 30
0.0
 11
126.7499999999999
 21
31.73434161302725
 31
0.0
  0
LINE
  5
2D2
330
181
100
AcDbEntity
  8
0
 62
     0
100
AcDbLine
 10
126.7499999999999
 20
50.73434161302725
 30
0.0
 11
126.7499999999999
 21
51.73434161302726
 31
0.0
  0
LINE
  5
2D3
330
181
100
AcDbEntity
  8
0
 62
     0
100
AcDbLine
 10
126.7499999999999
 20
39.68445034276278
 30
0.0
 11
126.7499999999999
 21
40.16292722007112
 31
0.0
  0
LINE
  5
2D4
330
181
100
AcDbEntity
  8
0
 62
     0
100
AcDbLine
 10
126.7499999999999
 20
42.36292722007112
 30
0.0
 11
126.7499999999999
 21
42.84140409737942
 31
0.0
  0
LINE
  5
2D5
330
181
100
AcDbEntity
  8
0
 62
     0
100
AcDbLine
 10
126.9374999999999
 20
30.73434161302725
 30
0.0
 11
126.9374999999999
 21
31.73434161302725
 31
0.0
  0
LINE
  5
2D6
330
181
100
AcDbEntity
  8
0
 62
     0
100
AcDbLine
 10
126.9374999999999
 20
50.73434161302725
 30
0.0
 11
126.9374999999999
 21
51.73434161302726
 31
0.0
  0
LINE
  5
2D7
330
181
100
AcDbEntity
  8
0
 62
     0
100
AcDbLine
 10
126.9374999999999
 20
40.00920986918194
 30
0.0
 11
126.9374999999999
 21
40.16292722007112
 31
0.0
  0
LINE
  5
2D8
330
181
100
AcDbEntity
  8
0
 62
     0
100
AcDbLine
 10
126.9374999999999
 20
42.36292722007112
 30
0.0
 11
126.9374999999999
 21
42.51664457096026
 31
0.0
  0
LINE
  5
2D9
330
181
100
AcDbEntity
  8
0
 62
     0
100
AcDbLine
 10
127.1249999999999
 20
30.73434161302725
 30
0.0
 11
127.1249999999999
 21
31.73434161302725
 31
0.0
  0
LINE
  5
2DA
330
181
100
AcDbEntity
  8
0
 62
     0
100
AcDbLine
 10
127.1249999999999
 20
50.73434161302725
 30
0.0
 11
127.1249999999999
 21
51.73434161302726
 31
0.0
  0
LINE
  5
2DB
330
181
100
AcDbEntity
  8
0
 62
     0
100
AcDbLine
 10
127.3124999999999
 20
30.73434161302725
 30
0.0
 11
127.3124999999999
 21
31.73434161302725
 31
0.0
  0
LINE
  5
2DC
330
181
100
AcDbEntity
  8
0
 62
     0
100
AcDbLine
 10
127.3124999999999
 20
50.73434161302725
 30
0.0
 11
127.3124999999999
 21
51.73434161302726
 31
0.0
  0
LINE
  5
2DD
330
181
100
AcDbEntity
  8
0
 62
     0
100
AcDbLine
 10
127.4999999999999
 20
30.73434161302725
 30
0.0
 11
127.4999999999999
 21
31.73434161302725
 31
0.0
  0
LINE
  5
2DE
330
181
100
AcDbEntity
  8
0
 62
     0
100
AcDbLine
 10
127.4999999999999
 20
50.73434161302725
 30
0.0
 11
127.4999999999999
 21
51.73434161302726
 31
0.0
  0
LINE
  5
2DF
330
181
100
AcDbEntity
  8
0
 62
     0
100
AcDbLine
 10
127.6874999999999
 20
30.73434161302725
 30
0.0
 11
127.6874999999999
 21
31.73434161302725
 31
0.0
  0
LINE
  5
2E0
330
181
100
AcDbEntity
  8
0
 62
     0
100
AcDbLine
 10
127.6874999999999
 20
50.73434161302725
 30
0.0
 11
127.6874999999999
 21
51.73434161302726
 31
0.0
  0
LINE
  5
2E1
330
181
100
AcDbEntity
  8
0
 62
     0
100
AcDbLine
 10
127.8749999999999
 20
30.73797101226689
 30
0.0
 11
127.8749999999999
 21
31.74039844933573
 31
0.0
  0
LINE
  5
2E2
330
181
100
AcDbEntity
  8
0
 62
     0
100
AcDbLine
 10
127.8749999999999
 20
50.72828477671877
 30
0.0
 11
127.8749999999999
 21
51.73071221378761
 31
0.0
  0
LINE
  5
2E3
330
181
100
AcDbEntity
  8
0
 62
     0
100
AcDbLine
 10
128.0624999999999
 20
30.75518616833917
 30
0.0
 11
128.0624999999999
 21
31.76934614582384
 31
0.0
  0
LINE
  5
2E4
330
181
100
AcDbEntity
  8
0
 62
     0
100
AcDbLine
 10
128.0624999999999
 20
50.69933708023067
 30
0.0
 11
128.0624999999999
 21
51.71349705771533
 31
0.0
  0
LINE
  5
2E5
330
181
100
AcDbEntity
  8
0
 62
     0
100
AcDbLine
 10
128.2499999999999
 20
30.78684396001255
 30
0.0
 11
128.2499999999999
 21
31.82358126431013
 31
0.0
  0
LINE
  5
2E6
330
181
100
AcDbEntity
  8
0
 62
     0
100
AcDbLine
 10
128.2499999999999
 20
50.64510196174438
 30
0.0
 11
128.2499999999999
 21
51.68183926604196
 31
0.0
  0
LINE
  5
2E7
330
181
100
AcDbEntity
  8
0
 62
     0
100
AcDbLine
 10
128.4374999999999
 20
30.83351565013482
 30
0.0
 11
128.4374999999999
 21
31.90619805749631
 31
0.0
  0
LINE
  5
2E8
330
181
100
AcDbEntity
  8
0
 62
     0
100
AcDbLine
 10
128.4374999999999
 20
50.5624851685582
 30
0.0
 11
128.4374999999999
 21
51.63516757591969
 31
0.0
  0
LINE
  5
2E9
330
181
100
AcDbEntity
  8
0
 62
     0
100
AcDbLine
 10
128.6249999999999
 20
30.89610010567942
 30
0.0
 11
128.6249999999999
 21
32.02298974561454
 31
0.0
  0
LINE
  5
2EA
330
181
100
AcDbEntity
  8
0
 62
     0
100
AcDbLine
 10
128.6249999999999
 20
50.44569348043999
 30
0.0
 11
128.6249999999999
 21
51.57258312037509
 31
0.0
  0
LINE
  5
2EB
330
181
100
AcDbEntity
  8
0
 62
     0
100
AcDbLine
 10
128.8124999999999
 20
30.9759198434567
 30
0.0
 11
128.8124999999999
 21
32.18530925448431
 31
0.0
  0
LINE
  5
2EC
330
181
100
AcDbEntity
  8
0
 62
     0
100
AcDbLine
 10
128.8124999999999
 20
50.28337397157022
 30
0.0
 11
128.8124999999999
 21
51.49276338259781
 31
0.0
  0
LINE
  5
2ED
330
181
100
AcDbEntity
  8
0
 62
     0
100
AcDbLine
 10
128.9999999999999
 20
31.07488521572351
 30
0.0
 11
128.9999999999999
 21
32.41993880614599
 31
0.0
  0
LINE
  5
2EE
330
181
100
AcDbEntity
  8
0
 62
     0
100
AcDbLine
 10
128.9999999999999
 20
50.04874441990855
 30
0.0
 11
128.9999999999999
 21
51.39379801033101
 31
0.0
  0
LINE
  5
2EF
330
181
100
AcDbEntity
  8
0
 62
     0
100
AcDbLine
 10
129.1874999999999
 20
31.19578269201418
 30
0.0
 11
129.1874999999999
 21
32.83972474257949
 31
0.0
  0
LINE
  5
2F0
330
181
100
AcDbEntity
  8
0
 62
     0
100
AcDbLine
 10
129.1874999999999
 20
49.6289584834751
 30
0.0
 11
129.1874999999999
 21
51.27290053404035
 31
0.0
  0
LINE
  5
2F1
330
181
100
AcDbEntity
  8
0
 62
     0
100
AcDbLine
 10
129.3749999999999
 20
31.34281299388666
 30
0.0
 11
129.3749999999999
 21
51.12587023216786
 31
0.0
  0
LINE
  5
2F2
330
181
100
AcDbEntity
  8
0
 62
     0
100
AcDbLine
 10
129.5624999999999
 20
31.52269735687652
 30
0.0
 11
129.5624999999999
 21
50.94598586917801
 31
0.0
  0
LINE
  5
2F3
330
181
100
AcDbEntity
  8
0
 62
     0
100
AcDbLine
 10
129.7499999999999
 20
31.74731131669846
 30
0.0
 11
129.7499999999999
 21
50.72137190935608
 31
0.0
  0
LINE
  5
2F4
330
181
100
AcDbEntity
  8
0
 62
     0
100
AcDbLine
 10
129.9374999999999
 20
32.0416641022199
 30
0.0
 11
129.9374999999999
 21
50.42701912383464
 31
0.0
  0
LINE
  5
2F5
330
181
100
AcDbEntity
  8
0
 62
     0
100
AcDbLine
 10
130.1249999999999
 20
32.48375005474038
 30
0.0
 11
130.1249999999999
 21
49.9849331713142
 31
0.0
  0
ENDBLK
  5
2F7
330
181
100
AcDbEntity
  8
0
100
AcDbBlockEnd
  0
BLOCK
  5
372A
330
3720
100
AcDbEntity
  8
0
 62
     0
100
AcDbBlockBegin
  2
*D1
 70
     1
 10
0.0
 20
0.0
 30
0.0
  3
*D1
  1

  0
LINE
  5
3CEB
330
3720
100
AcDbEntity
  8
0
  6
BYBLOCK
 62
     5
100
AcDbLine
 10
159.4890040156749
 20
156.2031649003187
 30
0.0
 11
159.4890040156749
 21
185.036851287852
 31
0.0
  0
LINE
  5
3CEC
330
3720
100
AcDbEntity
  8
0
  6
BYBLOCK
 62
     5
100
AcDbLine
 10
120.1890040156749
 20
147.9531686012814
 30
0.0
 11
120.1890040156749
 21
185.036851287852
 31
0.0
  0
LINE
  5
3CED
330
3720
100
AcDbEntity
  8
0
  6
BYBLOCK
 62
     5
100
AcDbLine
 10
157.4890040156749
 20
184.856851287852
 30
0.0
 11
122.1890040156749
 21
184.856851287852
 31
0.0
  0
SOLID
  5
3CEE
330
3720
100
AcDbEntity
  8
0
  6
BYBLOCK
 62
     5
100
AcDbTrace
 10
157.4890040156749
 20
185.1901846211853
 30
0.0
 11
157.4890040156749
 21
184.5235179545186
 31
0.0
 12
159.4890040156749
 22
184.856851287852
 32
0.0
 13
159.4890040156749
 23
184.856851287852
 33
0.0
  0
SOLID
  5
3CEF
330
3720
100
AcDbEntity
  8
0
  6
BYBLOCK
 62
     5
100
AcDbTrace
 10
122.1890040156749
 20
185.1901846211853
 30
0.0
 11
122.1890040156749
 21
184.5235179545186
 31
0.0
 12
120.1890040156749
 22
184.856851287852
 32
0.0
 13
120.1890040156749
 23
184.856851287852
 33
0.0
  0
MTEXT
  5
3CF0
330
3720
100
AcDbEntity
  8
0
  6
BYBLOCK
 62
     5
100
AcDbMText
 10
139.8390040156749
 20
186.606851287852
 30
0.0
 40
2.5
 41
0.0
 71
     5
 72
     1
  1
\A1;19.65
  7
ROMANT
1001
ACAD
1000
MTEXTBEGIN
1070
    73
1070
     1
1070
    44
1040
1.0
1070
    74
1070
     0
1000
MTEXTEND
  0
POINT
  5
3CF1
330
3720
100
AcDbEntity
  8
DEFPOINTS
  6
BYBLOCK
 62
     0
100
AcDbPoint
 10
159.4890040156749
 20
155.5781649003187
 30
0.0
  0
POINT
  5
3CF2
330
3720
100
AcDbEntity
  8
DEFPOINTS
  6
BYBLOCK
 62
     0
100
AcDbPoint
 10
120.1890040156749
 20
147.3281686012814
 30
0.0
  0
POINT
  5
3CF3
330
3720
100
AcDbEntity
  8
DEFPOINTS
  6
BYBLOCK
 62
     0
100
AcDbPoint
 10
120.1890040156749
 20
184.856851287852
 30
0.0
  0
ENDBLK
  5
372B
330
3720
100
AcDbEntity
  8
0
 62
     0
100
AcDbBlockEnd
  0
BLOCK
  5
3737
330
372D
100
AcDbEntity
  8
0
 62
     0
100
AcDbBlockBegin
  2
*D2
 70
     1
 10
0.0
 20
0.0
 30
0.0
  3
*D2
  1

  0
LINE
  5
3CF4
330
372D
100
AcDbEntity
  8
0
  6
BYBLOCK
 62
     5
100
AcDbLine
 10
145.4890040156749
 20
177.1531686012814
 30
0.0
 11
145.4890040156749
 21
180.7637729865613
 31
0.0
  0
LINE
  5
3CF5
330
372D
100
AcDbEntity
  8
0
  6
BYBLOCK
 62
     5
100
AcDbLine
 10
159.4890040156749
 20
156.2031649003187
 30
0.0
 11
159.4890040156749
 21
180.7637729865613
 31
0.0
  0
LINE
  5
3CF6
330
372D
100
AcDbEntity
  8
0
  6
BYBLOCK
 62
     5
100
AcDbLine
 10
147.4890040156749
 20
180.5837729865613
 30
0.0
 11
157.4890040156749
 21
180.5837729865613
 31
0.0
  0
SOLID
  5
3CF7
330
372D
100
AcDbEntity
  8
0
  6
BYBLOCK
 62
     5
100
AcDbTrace
 10
147.4890040156749
 20
180.9171063198947
 30
0.0
 11
147.4890040156749
 21
180.250439653228
 31
0.0
 12
145.4890040156749
 22
180.5837729865613
 32
0.0
 13
145.4890040156749
 23
180.5837729865613
 33
0.0
  0
SOLID
  5
3CF8
330
372D
100
AcDbEntity
  8
0
  6
BYBLOCK
 62
     5
100
AcDbTrace
 10
157.4890040156749
 20
180.9171063198947
 30
0.0
 11
157.4890040156749
 21
180.250439653228
 31
0.0
 12
159.4890040156749
 22
180.5837729865613
 32
0.0
 13
159.4890040156749
 23
180.5837729865613
 33
0.0
  0
MTEXT
  5
3CF9
330
372D
100
AcDbEntity
  8
0
  6
BYBLOCK
 62
     5
100
AcDbMText
 10
152.4890040156749
 20
182.3337729865613
 30
0.0
 40
2.5
 41
0.0
 71
     5
 72
     1
  1
\A1;7
  7
ROMANT
1001
ACAD
1000
MTEXTBEGIN
1070
    73
1070
     1
1070
    44
1040
1.0
1070
    74
1070
     0
1000
MTEXTEND
  0
POINT
  5
3CFA
330
372D
100
AcDbEntity
  8
DEFPOINTS
  6
BYBLOCK
 62
     0
100
AcDbPoint
 10
145.4890040156749
 20
176.5281686012814
 30
0.0
  0
POINT
  5
3CFB
330
372D
100
AcDbEntity
  8
DEFPOINTS
  6
BYBLOCK
 62
     0
100
AcDbPoint
 10
159.4890040156749
 20
155.5781649003187
 30
0.0
  0
POINT
  5
3CFC
330
372D
100
AcDbEntity
  8
DEFPOINTS
  6
BYBLOCK
 62
     0
100
AcDbPoint
 10
159.4890040156749
 20
180.5837729865613
 30
0.0
  0
ENDBLK
  5
3738
330
372D
100
AcDbEntity
  8
0
 62
     0
100
AcDbBlockEnd
  0
BLOCK
  5
3746
330
373A
100
AcDbEntity
  8
0
 62
     0
100
AcDbBlockBegin
  2
*D3
 70
     1
 10
0.0
 20
0.0
 30
0.0
  3
*D3
  1

  0
LINE
  5
3ED4
330
373A
100
AcDbEntity
  8
0
  6
BYBLOCK
 62
     5
100
AcDbLine
 10
159.4890040156749
 20
156.3639344157773
 30
0.0
 11
159.4890040156749
 21
173.4348258922395
 31
0.0
  0
ARC
  5
3ED5
330
373A
100
AcDbEntity
  8
0
  6
BYBLOCK
 62
     5
100
AcDbCircle
 10
159.4890040156749
 20
155.7389344157773
 30
0.0
 40
17.51589147646222
100
AcDbArc
 50
76.90858523452753
 51
83.45429261726376
  0
ARC
  5
3ED6
330
373A
100
AcDbEntity
  8
0
  6
BYBLOCK
 62
     5
100
AcDbCircle
 10
159.4890040156749
 20
155.7389344157773
 30
0.0
 40
17.51589147646222
100
AcDbArc
 50
126.5457073827363
 51
133.0914147654725
  0
SOLID
  5
3ED7
330
373A
100
AcDbEntity
  8
0
  6
BYBLOCK
 62
     5
100
AcDbTrace
 10
161.4667116337031
 20
172.8078542055475
 30
0.0
 11
161.5047723094936
 21
173.4734335241887
 31
0.0
 12
159.4890040156749
 22
173.2548258922395
 32
0.0
 13
159.4890040156749
 23
173.2548258922395
 33
0.0
  0
SOLID
  5
3ED8
330
373A
100
AcDbEntity
  8
0
  6
BYBLOCK
 62
     5
100
AcDbTrace
 10
148.876047910879
 20
170.0895770201447
 30
0.0
 11
149.2417990823193
 21
169.5321987598631
 31
0.0
 12
150.7310582774437
 22
170.9081414043249
 32
0.0
 13
150.7310582774437
 23
170.9081414043249
 33
0.0
  0
MTEXT
  5
3ED9
330
373A
100
AcDbEntity
  8
0
  6
BYBLOCK
 62
     5
100
AcDbMText
 10
154.7260300122021
 20
174.406785203296
 30
0.0
 40
2.5
 41
0.0
 71
     5
 72
     1
  1
\A1;30
  7
ROMANT
 11
0.9689585768883739
 21
0.2472231305409285
 31
0.0
1001
ACAD
1000
MTEXTBEGIN
1070
    73
1070
     1
1070
    44
1040
1.0
1070
    74
1070
     0
1000
MTEXTEND
  0
POINT
  5
3EDA
330
373A
100
AcDbEntity
  8
DEFPOINTS
  6
BYBLOCK
 62
     0
100
AcDbPoint
 10
153.4982163024184
 20
172.1984883826957
 30
0.0
  0
POINT
  5
3EDB
330
373A
100
AcDbEntity
  8
DEFPOINTS
  6
BYBLOCK
 62
     0
100
AcDbPoint
 10
147.0821888739951
 20
177.2281686012815
 30
0.0
  0
POINT
  5
3EDC
330
373A
100
AcDbEntity
  8
DEFPOINTS
  6
BYBLOCK
 62
     0
100
AcDbPoint
 10
159.4890040156749
 20
155.5781649003187
 30
0.0
  0
POINT
  5
3EDD
330
373A
100
AcDbEntity
  8
DEFPOINTS
  6
BYBLOCK
 62
     0
100
AcDbPoint
 10
159.4890040156749
 20
137.4297039312361
 30
0.0
  0
POINT
  5
3EDE
330
373A
100
AcDbEntity
  8
DEFPOINTS
  6
BYBLOCK
 62
     0
100
AcDbPoint
 10
159.4086192579455
 20
155.8781649003187
 30
0.0
  0
ENDBLK
  5
3747
330
373A
100
AcDbEntity
  8
0
 62
     0
100
AcDbBlockEnd
  0
BLOCK
  5
3762
330
3757
100
AcDbEntity
  8
0
 62
     0
100
AcDbBlockBegin
  2
*D4
 70
     1
 10
0.0
 20
0.0
 30
0.0
  3
*D4
  1

  0
LINE
  5
3D08
330
3757
100
AcDbEntity
  8
0
  6
BYBLOCK
 62
     5
100
AcDbLine
 10
153.5579040659703
 20
166.0119008734348
 30
0.0
 11
154.409131034597
 21
164.5375325150005
 31
0.0
  0
LINE
  5
3D09
330
3757
100
AcDbEntity
  8
0
  6
BYBLOCK
 62
     5
100
AcDbLine
 10
149.2277770470482
 20
163.5119008734348
 30
0.0
 11
150.0790040156749
 21
162.0375325150005
 31
0.0
  0
LINE
  5
3D0A
330
3757
100
AcDbEntity
  8
0
  6
BYBLOCK
 62
     5
100
AcDbLine
 10
156.0511818421659
 20
165.6934170876817
 30
0.0
 11
157.7832326497347
 21
166.6934170876817
 31
0.0
  0
LINE
  5
3D0B
330
3757
100
AcDbEntity
  8
0
  6
BYBLOCK
 62
     5
100
AcDbLine
 10
148.256953208106
 20
161.1934170876817
 30
0.0
 11
140.645524696553
 21
156.798956787619
 31
0.0
  0
SOLID
  5
3D0C
330
3757
100
AcDbEntity
  8
0
  6
BYBLOCK
 62
     5
100
AcDbTrace
 10
155.8845151754992
 20
165.9820922222765
 30
0.0
 11
156.2178485088326
 21
165.4047419530869
 31
0.0
 12
154.319131034597
 22
164.6934170876817
 32
0.0
 13
154.319131034597
 23
164.6934170876817
 33
0.0
  0
SOLID
  5
3D0D
330
3757
100
AcDbEntity
  8
0
  6
BYBLOCK
 62
     5
100
AcDbTrace
 10
148.0902865414393
 20
161.4820922222765
 30
0.0
 11
148.4236198747727
 21
160.9047419530869
 31
0.0
 12
149.9890040156749
 22
162.1934170876817
 32
0.0
 13
149.9890040156749
 23
162.1934170876817
 33
0.0
  0
MTEXT
  5
3D0E
330
3757
100
AcDbEntity
  8
0
  6
BYBLOCK
 62
     5
100
AcDbMText
 10
142.7102135485451
 20
160.0117313942731
 30
0.0
 40
2.5
 41
0.0
 71
     5
 72
     1
  1
\A1;2.5
  7
ROMANT
 11
0.866025403784438
 21
0.500000000000001
 31
0.0
1001
ACAD
1000
MTEXTBEGIN
1070
    73
1070
     1
1070
    44
1040
1.0
1070
    74
1070
     0
1000
MTEXTEND
  0
POINT
  5
3D0F
330
3757
100
AcDbEntity
  8
DEFPOINTS
  6
BYBLOCK
 62
     0
100
AcDbPoint
 10
153.2454040659703
 20
166.5531667508
 30
0.0
  0
POINT
  5
3D10
330
3757
100
AcDbEntity
  8
DEFPOINTS
  6
BYBLOCK
 62
     0
100
AcDbPoint
 10
148.9152770470482
 20
164.0531667508001
 30
0.0
  0
POINT
  5
3D11
330
3757
100
AcDbEntity
  8
DEFPOINTS
  6
BYBLOCK
 62
     0
100
AcDbPoint
 10
149.9890040156749
 20
162.1934170876817
 30
0.0
  0
ENDBLK
  5
3763
330
3757
100
AcDbEntity
  8
0
 62
     0
100
AcDbBlockEnd
  0
BLOCK
  5
376F
330
3765
100
AcDbEntity
  8
0
 62
     0
100
AcDbBlockBegin
  2
*D5
 70
     1
 10
0.0
 20
0.0
 30
0.0
  3
*D5
  1

  0
LINE
  5
3ECA
330
3765
100
AcDbEntity
  8
0
  6
BYBLOCK
 62
     5
100
AcDbLine
 10
158.9140040156749
 20
137.9297039312361
 30
0.0
 11
174.6790293317612
 21
137.9297039312361
 31
0.0
  0
LINE
  5
3ECB
330
3765
100
AcDbEntity
  8
0
  6
BYBLOCK
 62
     5
100
AcDbLine
 10
158.9140040156749
 20
130.929703931236
 30
0.0
 11
174.6790293317612
 21
130.929703931236
 31
0.0
  0
LINE
  5
3ECC
330
3765
100
AcDbEntity
  8
0
  6
BYBLOCK
 62
     5
100
AcDbLine
 10
174.4990293317612
 20
132.929703931236
 30
0.0
 11
174.4990293317612
 21
135.9297039312361
 31
0.0
  0
LINE
  5
3ECD
330
3765
100
AcDbEntity
  8
0
  6
BYBLOCK
 62
     5
100
AcDbLine
 10
174.4990293317612
 20
137.9297039312361
 30
0.0
 11
174.4990293317612
 21
161.7500116642663
 31
0.0
  0
SOLID
  5
3ECE
330
3765
100
AcDbEntity
  8
0
  6
BYBLOCK
 62
     5
100
AcDbTrace
 10
174.1656959984279
 20
132.929703931236
 30
0.0
 11
174.8323626650945
 21
132.929703931236
 31
0.0
 12
174.4990293317612
 22
130.929703931236
 32
0.0
 13
174.4990293317612
 23
130.929703931236
 33
0.0
  0
SOLID
  5
3ECF
330
3765
100
AcDbEntity
  8
0
  6
BYBLOCK
 62
     5
100
AcDbTrace
 10
174.1656959984279
 20
135.9297039312361
 30
0.0
 11
174.8323626650945
 21
135.9297039312361
 31
0.0
 12
174.4990293317612
 22
137.9297039312361
 32
0.0
 13
174.4990293317612
 23
137.9297039312361
 33
0.0
  0
MTEXT
  5
3ED0
330
3765
100
AcDbEntity
  8
0
  6
BYBLOCK
 62
     5
100
AcDbMText
 10
172.7490293317612
 20
152.7050630766872
 30
0.0
 40
2.5
 41
0.0
 71
     5
 72
     1
  1
\A1;3.50.25
  7
ROMANT
 11
0.0000000000000001
 21
1.0
 31
0.0
1001
ACAD
1000
MTEXTBEGIN
1070
    73
1070
     1
1070
    44
1040
1.0
1070
    74
1070
     0
1000
MTEXTEND
  0
POINT
  5
3ED1
330
3765
100
AcDbEntity
  8
DEFPOINTS
  6
BYBLOCK
 62
     0
100
AcDbPoint
 10
158.2890040156749
 20
137.9297039312361
 30
0.0
  0
POINT
  5
3ED2
330
3765
100
AcDbEntity
  8
DEFPOINTS
  6
BYBLOCK
 62
     0
100
AcDbPoint
 10
158.2890040156749
 20
130.929703931236
 30
0.0
  0
POINT
  5
3ED3
330
3765
100
AcDbEntity
  8
DEFPOINTS
  6
BYBLOCK
 62
     0
100
AcDbPoint
 10
174.4990293317612
 20
130.929703931236
 30
0.0
  0
ENDBLK
  5
3770
330
3765
100
AcDbEntity
  8
0
 62
     0
100
AcDbBlockEnd
  0
BLOCK
  5
377C
330
3772
100
AcDbEntity
  8
0
 62
     0
100
AcDbBlockBegin
  2
*D6
 70
     1
 10
0.0
 20
0.0
 30
0.0
  3
*D6
  1

  0
LINE
  5
3EB7
330
3772
100
AcDbEntity
  8
0
  6
BYBLOCK
 62
     5
100
AcDbLine
 10
157.5140040156749
 20
142.429703931236
 30
0.0
 11
180.0424255647573
 21
142.429703931236
 31
0.0
  0
LINE
  5
3EB8
330
3772
100
AcDbEntity
  8
0
  6
BYBLOCK
 62
     5
100
AcDbLine
 10
157.5140040156749
 20
126.429703931236
 30
0.0
 11
180.0424255647573
 21
126.429703931236
 31
0.0
  0
LINE
  5
3EB9
330
3772
100
AcDbEntity
  8
0
  6
BYBLOCK
 62
     5
100
AcDbLine
 10
179.8624255647573
 20
140.429703931236
 30
0.0
 11
179.8624255647573
 21
128.429703931236
 31
0.0
  0
SOLID
  5
3EBA
330
3772
100
AcDbEntity
  8
0
  6
BYBLOCK
 62
     5
100
AcDbTrace
 10
179.529092231424
 20
140.429703931236
 30
0.0
 11
180.1957588980907
 21
140.429703931236
 31
0.0
 12
179.8624255647573
 22
142.429703931236
 32
0.0
 13
179.8624255647573
 23
142.429703931236
 33
0.0
  0
SOLID
  5
3EBB
330
3772
100
AcDbEntity
  8
0
  6
BYBLOCK
 62
     5
100
AcDbTrace
 10
179.529092231424
 20
128.429703931236
 30
0.0
 11
180.1957588980907
 21
128.429703931236
 31
0.0
 12
179.8624255647573
 22
126.429703931236
 32
0.0
 13
179.8624255647573
 23
126.429703931236
 33
0.0
  0
MTEXT
  5
3EBC
330
3772
100
AcDbEntity
  8
0
  6
BYBLOCK
 62
     5
100
AcDbMText
 10
178.1124255647573
 20
134.1359925073512
 30
0.0
 40
2.5
 41
0.0
 71
     5
 72
     1
  1
\A1;8
  7
ROMANT
 11
0.0000000000000001
 21
1.0
 31
0.0
1001
ACAD
1000
MTEXTBEGIN
1070
    73
1070
     1
1070
    44
1040
1.0
1070
    74
1070
     0
1000
MTEXTEND
  0
POINT
  5
3EBD
330
3772
100
AcDbEntity
  8
DEFPOINTS
  6
BYBLOCK
 62
     0
100
AcDbPoint
 10
156.8890040156749
 20
142.429703931236
 30
0.0
  0
POINT
  5
3EBE
330
3772
100
AcDbEntity
  8
DEFPOINTS
  6
BYBLOCK
 62
     0
100
AcDbPoint
 10
156.8890040156749
 20
126.429703931236
 30
0.0
  0
POINT
  5
3EBF
330
3772
100
AcDbEntity
  8
DEFPOINTS
  6
BYBLOCK
 62
     0
100
AcDbPoint
 10
179.8624255647573
 20
126.429703931236
 30
0.0
  0
ENDBLK
  5
377D
330
3772
100
AcDbEntity
  8
0
 62
     0
100
AcDbBlockEnd
  0
BLOCK
  5
37B2
330
37A8
100
AcDbEntity
  8
0
 62
     0
100
AcDbBlockBegin
  2
*D7
 70
     1
 10
0.0
 20
0.0
 30
0.0
  3
*D7
  1

  0
LINE
  5
3D2E
330
37A8
100
AcDbEntity
  8
0
  6
BYBLOCK
 62
     5
100
AcDbLine
 10
136.0890040156749
 20
147.9531686012814
 30
0.0
 11
136.0890040156749
 21
163.6491638027867
 31
0.0
  0
LINE
  5
3D2F
330
37A8
100
AcDbEntity
  8
0
  6
BYBLOCK
 62
     5
100
AcDbLine
 10
129.0890040156749
 20
147.9531686012815
 30
0.0
 11
129.0890040156749
 21
163.6491638027867
 31
0.0
  0
LINE
  5
3D30
330
37A8
100
AcDbEntity
  8
0
  6
BYBLOCK
 62
     5
100
AcDbLine
 10
134.0890040156749
 20
163.4691638027867
 30
0.0
 11
131.0890040156749
 21
163.4691638027867
 31
0.0
  0
SOLID
  5
3D31
330
37A8
100
AcDbEntity
  8
0
  6
BYBLOCK
 62
     5
100
AcDbTrace
 10
134.0890040156749
 20
163.80249713612
 30
0.0
 11
134.0890040156749
 21
163.1358304694533
 31
0.0
 12
136.0890040156749
 22
163.4691638027867
 32
0.0
 13
136.0890040156749
 23
163.4691638027867
 33
0.0
  0
SOLID
  5
3D32
330
37A8
100
AcDbEntity
  8
0
  6
BYBLOCK
 62
     5
100
AcDbTrace
 10
131.0890040156749
 20
163.80249713612
 30
0.0
 11
131.0890040156749
 21
163.1358304694533
 31
0.0
 12
129.0890040156749
 22
163.4691638027867
 32
0.0
 13
129.0890040156749
 23
163.4691638027867
 33
0.0
  0
MTEXT
  5
3D33
330
37A8
100
AcDbEntity
  8
0
  6
BYBLOCK
 62
     5
100
AcDbMText
 10
132.5890040156749
 20
165.2191638027867
 30
0.0
 40
2.5
 41
0.0
 71
     5
 72
     1
  1
\A1;3.5
  7
ROMANT
1001
ACAD
1000
MTEXTBEGIN
1070
    73
1070
     1
1070
    44
1040
1.0
1070
    74
1070
     0
1000
MTEXTEND
  0
POINT
  5
3D34
330
37A8
100
AcDbEntity
  8
DEFPOINTS
  6
BYBLOCK
 62
     0
100
AcDbPoint
 10
136.0890040156749
 20
147.3281686012814
 30
0.0
  0
POINT
  5
3D35
330
37A8
100
AcDbEntity
  8
DEFPOINTS
  6
BYBLOCK
 62
     0
100
AcDbPoint
 10
129.0890040156749
 20
147.3281686012815
 30
0.0
  0
POINT
  5
3D36
330
37A8
100
AcDbEntity
  8
DEFPOINTS
  6
BYBLOCK
 62
     0
100
AcDbPoint
 10
129.0890040156749
 20
163.4691638027867
 30
0.0
  0
ENDBLK
  5
37B3
330
37A8
100
AcDbEntity
  8
0
 62
     0
100
AcDbBlockEnd
  0
BLOCK
  5
37BF
330
37B5
100
AcDbEntity
  8
0
 62
     0
100
AcDbBlockBegin
  2
*D8
 70
     1
 10
0.0
 20
0.0
 30
0.0
  3
*D8
  1

  0
LINE
  5
3F1C
330
37B5
100
AcDbEntity
  8
0
  6
BYBLOCK
 62
     5
100
AcDbLine
 10
129.4640040156749
 20
157.7279113372287
 30
0.0
 11
104.2378768215795
 21
157.7279113372287
 31
0.0
  0
LINE
  5
3F1D
330
37B5
100
AcDbEntity
  8
0
  6
BYBLOCK
 62
     5
100
AcDbLine
 10
122.5640040156749
 20
142.3281686012814
 30
0.0
 11
104.2378768215795
 21
142.3281686012814
 31
0.0
  0
LINE
  5
3F1E
330
37B5
100
AcDbEntity
  8
0
  6
BYBLOCK
 62
     5
100
AcDbLine
 10
104.4178768215795
 20
144.3281686012814
 30
0.0
 11
104.4178768215795
 21
155.7279113372287
 31
0.0
  0
LINE
  5
3F1F
330
37B5
100
AcDbEntity
  8
0
  6
BYBLOCK
 62
     5
100
AcDbLine
 10
104.4178768215795
 20
157.7279113372287
 30
0.0
 11
104.4178768215795
 21
177.4669226651557
 31
0.0
  0
SOLID
  5
3F20
330
37B5
100
AcDbEntity
  8
0
  6
BYBLOCK
 62
     5
100
AcDbTrace
 10
104.0845434882462
 20
144.3281686012814
 30
0.0
 11
104.7512101549128
 21
144.3281686012814
 31
0.0
 12
104.4178768215795
 22
142.3281686012814
 32
0.0
 13
104.4178768215795
 23
142.3281686012814
 33
0.0
  0
SOLID
  5
3F21
330
37B5
100
AcDbEntity
  8
0
  6
BYBLOCK
 62
     5
100
AcDbTrace
 10
104.0845434882462
 20
155.7279113372287
 30
0.0
 11
104.7512101549128
 21
155.7279113372287
 31
0.0
 12
104.4178768215795
 22
157.7279113372287
 32
0.0
 13
104.4178768215795
 23
157.7279113372287
 33
0.0
  0
MTEXT
  5
3F22
330
37B5
100
AcDbEntity
  8
0
  6
BYBLOCK
 62
     5
100
AcDbMText
 10
102.6678768215795
 20
168.5974170011923
 30
0.0
 40
2.5
 41
0.0
 71
     5
 72
     1
  1
\A1;7.70.25
  7
ROMANT
 11
0.0000000000000001
 21
1.0
 31
0.0
1001
ACAD
1000
MTEXTBEGIN
1070
    73
1070
     1
1070
    44
1040
1.0
1070
    74
1070
     0
1000
MTEXTEND
  0
POINT
  5
3F23
330
37B5
100
AcDbEntity
  8
DEFPOINTS
  6
BYBLOCK
 62
     0
100
AcDbPoint
 10
130.0890040156749
 20
157.7279113372287
 30
0.0
  0
POINT
  5
3F24
330
37B5
100
AcDbEntity
  8
DEFPOINTS
  6
BYBLOCK
 62
     0
100
AcDbPoint
 10
123.189004015675
 20
142.3281686012814
 30
0.0
  0
POINT
  5
3F25
330
37B5
100
AcDbEntity
  8
DEFPOINTS
  6
BYBLOCK
 62
     0
100
AcDbPoint
 10
104.4178768215795
 20
142.3281686012814
 30
0.0
  0
ENDBLK
  5
37C0
330
37B5
100
AcDbEntity
  8
0
 62
     0
100
AcDbBlockEnd
  0
BLOCK
  5
37CA
330
37C2
100
AcDbEntity
  8
0
 62
     0
100
AcDbBlockBegin
  2
*D9
 70
     1
 10
0.0
 20
0.0
 30
0.0
  3
*D9
  1

  0
LINE
  5
3D40
330
37C2
100
AcDbEntity
  8
0
  6
BYBLOCK
 62
     5
100
AcDbLine
 10
114.1019792701627
 20
131.5235232312891
 30
0.0
 11
120.4398613893039
 21
141.1517808295496
 31
0.0
  0
MTEXT
  5
3D41
330
37C2
100
AcDbEntity
  8
0
  6
BYBLOCK
 62
     5
100
AcDbMText
 10
115.259356084353
 20
136.4645743953029
 30
0.0
 40
2.5
 41
0.0
 71
     5
 72
     1
  1
\A1;R1.5
  7
ROMANT
 11
0.5498285252741947
 21
0.8352775543463407
 31
0.0
1001
ACAD
1000
MTEXTBEGIN
1070
    73
1070
     1
1070
    44
1040
1.0
1070
    74
1070
     0
1000
MTEXTEND
  0
SOLID
  5
3D42
330
37C2
100
AcDbEntity
  8
0
  6
BYBLOCK
 62
     5
100
AcDbTrace
 10
120.1614355378551
 20
141.335057004641
 30
0.0
 11
120.7182872407527
 21
140.9685046544582
 31
0.0
 12
121.5395184398523
 22
142.8223359382423
 32
0.0
 13
121.5395184398523
 23
142.8223359382423
 33
0.0
  0
LINE
  5
3D43
330
37C2
100
AcDbEntity
  8
0
  6
BYBLOCK
 62
     5
100
AcDbLine
 10
123.0520040156748
 20
145.3281686012812
 30
0.0
 11
123.3260040156748
 21
145.3281686012812
 31
0.0
  0
LINE
  5
3D44
330
37C2
100
AcDbEntity
  8
0
  6
BYBLOCK
 62
     5
100
AcDbLine
 10
123.1890040156748
 20
145.1911686012812
 30
0.0
 11
123.1890040156748
 21
145.4651686012812
 31
0.0
  0
POINT
  5
3D45
330
37C2
100
AcDbEntity
  8
DEFPOINTS
  6
BYBLOCK
 62
     0
100
AcDbPoint
 10
121.5395184398523
 20
142.8223359382423
 30
0.0
  0
POINT
  5
3D46
330
37C2
100
AcDbEntity
  8
DEFPOINTS
  6
BYBLOCK
 62
     0
100
AcDbPoint
 10
123.1890040156748
 20
145.3281686012812
 30
0.0
  0
ENDBLK
  5
37CB
330
37C2
100
AcDbEntity
  8
0
 62
     0
100
AcDbBlockEnd
  0
BLOCK
  5
37D8
330
37CD
100
AcDbEntity
  8
0
 62
     0
100
AcDbBlockBegin
  2
*D10
 70
     1
 10
0.0
 20
0.0
 30
0.0
  3
*D10
  1

  0
LINE
  5
3D47
330
37CD
100
AcDbEntity
  8
0
  6
BYBLOCK
 62
     5
100
AcDbLine
 10
129.0890040156749
 20
147.9531686012815
 30
0.0
 11
129.0890040156749
 21
163.8291638027867
 31
0.0
  0
LINE
  5
3D48
330
37CD
100
AcDbEntity
  8
0
  6
BYBLOCK
 62
     5
100
AcDbLine
 10
120.1890040156749
 20
147.9531686012814
 30
0.0
 11
120.1890040156749
 21
163.8291638027867
 31
0.0
  0
LINE
  5
3D49
330
37CD
100
AcDbEntity
  8
0
  6
BYBLOCK
 62
     5
100
AcDbLine
 10
127.0890040156749
 20
163.6491638027867
 30
0.0
 11
122.1890040156749
 21
163.6491638027867
 31
0.0
  0
LINE
  5
3D4A
330
37CD
100
AcDbEntity
  8
0
  6
BYBLOCK
 62
     5
100
AcDbLine
 10
120.1890040156749
 20
163.6491638027867
 30
0.0
 11
109.0914756958574
 21
163.6491638027867
 31
0.0
  0
SOLID
  5
3D4B
330
37CD
100
AcDbEntity
  8
0
  6
BYBLOCK
 62
     5
100
AcDbTrace
 10
127.0890040156749
 20
163.9824971361201
 30
0.0
 11
127.0890040156749
 21
163.3158304694534
 31
0.0
 12
129.0890040156749
 22
163.6491638027867
 32
0.0
 13
129.0890040156749
 23
163.6491638027867
 33
0.0
  0
SOLID
  5
3D4C
330
37CD
100
AcDbEntity
  8
0
  6
BYBLOCK
 62
     5
100
AcDbTrace
 10
122.1890040156749
 20
163.9824971361201
 30
0.0
 11
122.1890040156749
 21
163.3158304694534
 31
0.0
 12
120.1890040156749
 22
163.6491638027867
 32
0.0
 13
120.1890040156749
 23
163.6491638027867
 33
0.0
  0
MTEXT
  5
3D4D
330
37CD
100
AcDbEntity
  8
0
  6
BYBLOCK
 62
     5
100
AcDbMText
 10
113.6402398557661
 20
165.3991638027867
 30
0.0
 40
2.5
 41
0.0
 71
     5
 72
     1
  1
\A1;4.45
  7
ROMANT
1001
ACAD
1000
MTEXTBEGIN
1070
    73
1070
     1
1070
    44
1040
1.0
1070
    74
1070
     0
1000
MTEXTEND
  0
POINT
  5
3D4E
330
37CD
100
AcDbEntity
  8
DEFPOINTS
  6
BYBLOCK
 62
     0
100
AcDbPoint
 10
129.0890040156749
 20
147.3281686012815
 30
0.0
  0
POINT
  5
3D4F
330
37CD
100
AcDbEntity
  8
DEFPOINTS
  6
BYBLOCK
 62
     0
100
AcDbPoint
 10
120.1890040156749
 20
147.3281686012814
 30
0.0
  0
POINT
  5
3D50
330
37CD
100
AcDbEntity
  8
DEFPOINTS
  6
BYBLOCK
 62
     0
100
AcDbPoint
 10
120.1890040156749
 20
163.6491638027867
 30
0.0
  0
ENDBLK
  5
37D9
330
37CD
100
AcDbEntity
  8
0
 62
     0
100
AcDbBlockEnd
  0
BLOCK
  5
37E5
330
37DB
100
AcDbEntity
  8
0
 62
     0
100
AcDbBlockBegin
  2
*D11
 70
     1
 10
0.0
 20
0.0
 30
0.0
  3
*D11
  1

  0
LINE
  5
3D51
330
37DB
100
AcDbEntity
  8
0
  6
BYBLOCK
 62
     5
100
AcDbLine
 10
123.8140040156749
 20
142.3281686012814
 30
0.0
 11
123.5767934827123
 21
142.3281686012814
 31
0.0
  0
LINE
  5
3D52
330
37DB
100
AcDbEntity
  8
0
  6
BYBLOCK
 62
     5
100
AcDbLine
 10
123.8140040156749
 20
114.5281686012814
 30
0.0
 11
123.5767934827123
 21
114.5281686012814
 31
0.0
  0
LINE
  5
3D53
330
37DB
100
AcDbEntity
  8
0
  6
BYBLOCK
 62
     5
100
AcDbLine
 10
123.3967934827123
 20
140.3281686012814
 30
0.0
 11
123.3967934827123
 21
116.5281686012814
 31
0.0
  0
SOLID
  5
3D54
330
37DB
100
AcDbEntity
  8
0
  6
BYBLOCK
 62
     5
100
AcDbTrace
 10
123.063460149379
 20
140.3281686012814
 30
0.0
 11
123.7301268160457
 21
140.3281686012814
 31
0.0
 12
123.3967934827123
 22
142.3281686012814
 32
0.0
 13
123.3967934827123
 23
142.3281686012814
 33
0.0
  0
SOLID
  5
3D55
330
37DB
100
AcDbEntity
  8
0
  6
BYBLOCK
 62
     5
100
AcDbTrace
 10
123.063460149379
 20
116.5281686012814
 30
0.0
 11
123.7301268160457
 21
116.5281686012814
 31
0.0
 12
123.3967934827123
 22
114.5281686012814
 32
0.0
 13
123.3967934827123
 23
114.5281686012814
 33
0.0
  0
MTEXT
  5
3D56
330
37DB
100
AcDbEntity
  8
0
  6
BYBLOCK
 62
     5
100
AcDbMText
 10
121.6467934827123
 20
128.4281686012814
 30
0.0
 40
2.5
 41
0.0
 71
     5
 72
     1
  1
\A1;13.9
  7
ROMANT
 11
0.0000000000000001
 21
1.0
 31
0.0
1001
ACAD
1000
MTEXTBEGIN
1070
    73
1070
     1
1070
    44
1040
1.0
1070
    74
1070
     0
1000
MTEXTEND
  0
POINT
  5
3D57
330
37DB
100
AcDbEntity
  8
DEFPOINTS
  6
BYBLOCK
 62
     0
100
AcDbPoint
 10
123.189004015675
 20
142.3281686012814
 30
0.0
  0
POINT
  5
3D58
330
37DB
100
AcDbEntity
  8
DEFPOINTS
  6
BYBLOCK
 62
     0
100
AcDbPoint
 10
123.1890040156749
 20
114.5281686012814
 30
0.0
  0
POINT
  5
3D59
330
37DB
100
AcDbEntity
  8
DEFPOINTS
  6
BYBLOCK
 62
     0
100
AcDbPoint
 10
123.3967934827123
 20
114.5281686012814
 30
0.0
  0
ENDBLK
  5
37E6
330
37DB
100
AcDbEntity
  8
0
 62
     0
100
AcDbBlockEnd
  0
BLOCK
  5
3800
330
37F6
100
AcDbEntity
  8
0
 62
     0
100
AcDbBlockBegin
  2
*D12
 70
     1
 10
0.0
 20
0.0
 30
0.0
  3
*D12
  1

  0
LINE
  5
3DDB
330
37F6
100
AcDbEntity
  8
0
  6
BYBLOCK
 62
     5
100
AcDbLine
 10
159.5890040156749
 20
125.804703931236
 30
0.0
 11
159.5890040156749
 21
97.7884729872448
 31
0.0
  0
LINE
  5
3DDC
330
37F6
100
AcDbEntity
  8
0
  6
BYBLOCK
 62
     5
100
AcDbLine
 10
62.1890040156749
 20
119.7031686012815
 30
0.0
 11
62.1890040156749
 21
97.7884729872448
 31
0.0
  0
LINE
  5
3DDD
330
37F6
100
AcDbEntity
  8
0
  6
BYBLOCK
 62
     5
100
AcDbLine
 10
157.5890040156749
 20
97.96847298724481
 30
0.0
 11
64.1890040156749
 21
97.96847298724481
 31
0.0
  0
SOLID
  5
3DDE
330
37F6
100
AcDbEntity
  8
0
  6
BYBLOCK
 62
     5
100
AcDbTrace
 10
157.5890040156749
 20
98.30180632057814
 30
0.0
 11
157.5890040156749
 21
97.63513965391148
 31
0.0
 12
159.5890040156749
 22
97.96847298724481
 32
0.0
 13
159.5890040156749
 23
97.96847298724481
 33
0.0
  0
SOLID
  5
3DDF
330
37F6
100
AcDbEntity
  8
0
  6
BYBLOCK
 62
     5
100
AcDbTrace
 10
64.1890040156749
 20
98.30180632057814
 30
0.0
 11
64.1890040156749
 21
97.63513965391148
 31
0.0
 12
62.1890040156749
 22
97.96847298724481
 32
0.0
 13
62.1890040156749
 23
97.96847298724481
 33
0.0
  0
MTEXT
  5
3DE0
330
37F6
100
AcDbEntity
  8
0
  6
BYBLOCK
 62
     5
100
AcDbMText
 10
110.8890040156749
 20
99.71847298724481
 30
0.0
 40
2.5
 41
0.0
 71
     5
 72
     1
  1
\A1;48.7
  7
ROMANT
1001
ACAD
1000
MTEXTBEGIN
1070
    73
1070
     1
1070
    44
1040
1.0
1070
    74
1070
     0
1000
MTEXTEND
  0
POINT
  5
3DE1
330
37F6
100
AcDbEntity
  8
DEFPOINTS
  6
BYBLOCK
 62
     0
100
AcDbPoint
 10
159.5890040156749
 20
126.429703931236
 30
0.0
  0
POINT
  5
3DE2
330
37F6
100
AcDbEntity
  8
DEFPOINTS
  6
BYBLOCK
 62
     0
100
AcDbPoint
 10
62.1890040156749
 20
120.3281686012815
 30
0.0
  0
POINT
  5
3DE3
330
37F6
100
AcDbEntity
  8
DEFPOINTS
  6
BYBLOCK
 62
     0
100
AcDbPoint
 10
62.1890040156749
 20
97.96847298724481
 30
0.0
  0
ENDBLK
  5
3801
330
37F6
100
AcDbEntity
  8
0
 62
     0
100
AcDbBlockEnd
  0
BLOCK
  5
3837
330
382B
100
AcDbEntity
  8
0
 62
     0
100
AcDbBlockBegin
  2
*D13
 70
     1
 10
0.0
 20
0.0
 30
0.0
  3
*D13
  1

  0
LINE
  5
3D6D
330
382B
100
AcDbEntity
  8
0
  6
BYBLOCK
 62
     5
100
AcDbLine
 10
140.3140040156748
 20
109.5281686012814
 30
0.0
 11
166.3917417218208
 21
109.5281686012815
 31
0.0
  0
LINE
  5
3D6E
330
382B
100
AcDbEntity
  8
0
  6
BYBLOCK
 62
     5
100
AcDbLine
 10
159.7302698930401
 20
121.0989988504791
 30
0.0
 11
162.8142532197899
 21
122.8795374543544
 31
0.0
  0
ARC
  5
3D6F
330
382B
100
AcDbEntity
  8
0
  6
BYBLOCK
 62
     5
100
AcDbCircle
 10
139.6890040156748
 20
109.5281686012814
 30
0.0
 40
26.52273770614604
100
AcDbArc
 50
4.32152696135708
 51
25.67847303864282
  0
SOLID
  5
3D70
330
382B
100
AcDbEntity
  8
0
  6
BYBLOCK
 62
     5
100
AcDbTrace
 10
166.4694310483606
 20
111.5393143747396
 30
0.0
 11
165.8032384014801
 21
111.5141787091061
 31
0.0
 12
166.2117417218208
 22
109.5281686012815
 32
0.0
 13
166.2117417218208
 23
109.5281686012815
 33
0.0
  0
SOLID
  5
3D71
330
382B
100
AcDbEntity
  8
0
  6
BYBLOCK
 62
     5
100
AcDbTrace
 10
163.2975994480756
 20
120.8653505886352
 30
0.0
 11
163.8871070369053
 21
121.1766787870958
 31
0.0
 12
162.6583686471087
 22
122.7895374543544
 32
0.0
 13
162.6583686471087
 23
122.7895374543544
 33
0.0
  0
MTEXT
  5
3D72
330
382B
100
AcDbEntity
  8
0
  6
BYBLOCK
 62
     5
100
AcDbMText
 10
166.998371545938
 20
116.8456915768202
 30
0.0
 40
2.5
 41
0.0
 71
     5
 72
     1
  1
\A1;30
  7
ROMANT
 11
0.2588190451025205
 21
-0.9659258262890682
 31
0.0
1001
ACAD
1000
MTEXTBEGIN
1070
    73
1070
     1
1070
    44
1040
1.0
1070
    74
1070
     0
1000
MTEXTEND
  0
POINT
  5
3D73
330
382B
100
AcDbEntity
  8
DEFPOINTS
  6
BYBLOCK
 62
     0
100
AcDbPoint
 10
165.8088017397966
 20
114.1337936706917
 30
0.0
  0
POINT
  5
3D74
330
382B
100
AcDbEntity
  8
DEFPOINTS
  6
BYBLOCK
 62
     0
100
AcDbPoint
 10
159.1890040156749
 20
120.7864988504791
 30
0.0
  0
POINT
  5
3D75
330
382B
100
AcDbEntity
  8
DEFPOINTS
  6
BYBLOCK
 62
     0
100
AcDbPoint
 10
139.5282345002161
 20
109.5281686012814
 30
0.0
  0
POINT
  5
3D76
330
382B
100
AcDbEntity
  8
DEFPOINTS
  6
BYBLOCK
 62
     0
100
AcDbPoint
 10
70.28900401567494
 20
109.5281686012814
 30
0.0
  0
POINT
  5
3D77
330
382B
100
AcDbEntity
  8
DEFPOINTS
  6
BYBLOCK
 62
     0
100
AcDbPoint
 10
139.8282345002161
 20
109.6085533590108
 30
0.0
  0
ENDBLK
  5
3838
330
382B
100
AcDbEntity
  8
0
 62
     0
100
AcDbBlockEnd
  0
BLOCK
  5
3842
330
383A
100
AcDbEntity
  8
0
 62
     0
100
AcDbBlockBegin
  2
*D14
 70
     1
 10
0.0
 20
0.0
 30
0.0
  3
*D14
  1

  0
LINE
  5
3D78
330
383A
100
AcDbEntity
  8
0
  6
BYBLOCK
 62
     5
100
AcDbLine
 10
136.2966268757523
 20
122.8469025804195
 30
0.0
 11
147.5902439193495
 21
125.1547821715508
 31
0.0
  0
MTEXT
  5
3D79
330
383A
100
AcDbEntity
  8
0
  6
BYBLOCK
 62
     5
100
AcDbMText
 10
140.6133074144489
 20
125.5151935732208
 30
0.0
 40
2.5
 41
0.0
 71
     5
 72
     1
  1
\A1;R1.5
  7
ROMANT
 11
0.9797520192650774
 21
0.2002148364782278
 31
0.0
1001
ACAD
1000
MTEXTBEGIN
1070
    73
1070
     1
1070
    44
1040
1.0
1070
    74
1070
     0
1000
MTEXTEND
  0
SOLID
  5
3D7A
330
383A
100
AcDbEntity
  8
0
  6
BYBLOCK
 62
     5
100
AcDbTrace
 10
147.5235056405234
 20
125.4813661779724
 30
0.0
 11
147.6569821981756
 21
124.8281981651291
 31
0.0
 12
149.5497479578796
 22
125.5552118445072
 32
0.0
 13
149.5497479578796
 23
125.5552118445072
 33
0.0
  0
LINE
  5
3D7B
330
383A
100
AcDbEntity
  8
0
  6
BYBLOCK
 62
     5
100
AcDbLine
 10
152.3520040156754
 20
126.155856353942
 30
0.0
 11
152.6260040156754
 21
126.155856353942
 31
0.0
  0
LINE
  5
3D7C
330
383A
100
AcDbEntity
  8
0
  6
BYBLOCK
 62
     5
100
AcDbLine
 10
152.4890040156754
 20
126.018856353942
 30
0.0
 11
152.4890040156754
 21
126.292856353942
 31
0.0
  0
POINT
  5
3D7D
330
383A
100
AcDbEntity
  8
DEFPOINTS
  6
BYBLOCK
 62
     0
100
AcDbPoint
 10
149.5497479578796
 20
125.5552118445072
 30
0.0
  0
POINT
  5
3D7E
330
383A
100
AcDbEntity
  8
DEFPOINTS
  6
BYBLOCK
 62
     0
100
AcDbPoint
 10
152.4890040156754
 20
126.155856353942
 30
0.0
  0
ENDBLK
  5
3843
330
383A
100
AcDbEntity
  8
0
 62
     0
100
AcDbBlockEnd
  0
BLOCK
  5
384B
330
3845
100
AcDbEntity
  8
0
 62
     0
100
AcDbBlockBegin
  2
*D15
 70
     1
 10
0.0
 20
0.0
 30
0.0
  3
*D15
  1

  0
LINE
  5
3D7F
330
3845
100
AcDbEntity
  8
0
  6
BYBLOCK
 62
     5
100
AcDbLine
 10
134.5839368288554
 20
137.2466269675147
 30
0.0
 11
147.4740603951036
 21
139.5004007973045
 31
0.0
  0
MTEXT
  5
3D80
330
3845
100
AcDbEntity
  8
0
  6
BYBLOCK
 62
     5
100
AcDbMText
 10
138.9748543499935
 20
139.7909050611965
 30
0.0
 40
2.5
 41
0.0
 71
     5
 72
     1
  1
\A1;R1.5
  7
ROMANT
 11
0.9850563794286427
 21
0.1722321960230833
 31
0.0
1001
ACAD
1000
MTEXTBEGIN
1070
    73
1070
     1
1070
    44
1040
1.0
1070
    74
1070
     0
1000
MTEXTEND
  0
SOLID
  5
3D81
330
3845
100
AcDbEntity
  8
0
  6
BYBLOCK
 62
     5
100
AcDbTrace
 10
147.4166496630959
 20
139.8287529237807
 30
0.0
 11
147.5314711271113
 21
139.1720486708283
 31
0.0
 12
149.4441731539609
 22
139.8448651893507
 32
0.0
 13
149.4441731539609
 23
139.8448651893507
 33
0.0
  0
POINT
  5
3D82
330
3845
100
AcDbEntity
  8
DEFPOINTS
  6
BYBLOCK
 62
     0
100
AcDbPoint
 10
149.4441731539609
 20
139.8448651893507
 30
0.0
  0
POINT
  5
3D83
330
3845
100
AcDbEntity
  8
DEFPOINTS
  6
BYBLOCK
 62
     0
100
AcDbPoint
 10
146.4890040156749
 20
139.3281686012814
 30
0.0
  0
ENDBLK
  5
384C
330
3845
100
AcDbEntity
  8
0
 62
     0
100
AcDbBlockEnd
  0
BLOCK
  5
385A
330
384F
100
AcDbEntity
  8
0
 62
     0
100
AcDbBlockBegin
  2
*D16
 70
     1
 10
0.0
 20
0.0
 30
0.0
  3
*D16
  1

  0
LINE
  5
3D84
330
384F
100
AcDbEntity
  8
0
  6
BYBLOCK
 62
     5
100
AcDbLine
 10
105.5336192579455
 20
109.5281686012814
 30
0.0
 11
107.9730573526878
 21
109.5281686012814
 31
0.0
  0
LINE
  5
3D85
330
384F
100
AcDbEntity
  8
0
  6
BYBLOCK
 62
     5
100
AcDbLine
 10
107.3637462768678
 20
114.5281686012814
 30
0.0
 11
107.9730573526878
 21
114.5281686012814
 31
0.0
  0
LINE
  5
3D86
330
384F
100
AcDbEntity
  8
0
  6
BYBLOCK
 62
     5
100
AcDbLine
 10
107.7930573526878
 20
111.5281686012814
 30
0.0
 11
107.7930573526878
 21
112.5281686012814
 31
0.0
  0
LINE
  5
3D87
330
384F
100
AcDbEntity
  8
0
  6
BYBLOCK
 62
     5
100
AcDbLine
 10
107.7930573526878
 20
114.5281686012814
 30
0.0
 11
107.7930573526878
 21
123.3170892014068
 31
0.0
  0
SOLID
  5
3D88
330
384F
100
AcDbEntity
  8
0
  6
BYBLOCK
 62
     5
100
AcDbTrace
 10
107.4597240193544
 20
111.5281686012814
 30
0.0
 11
108.1263906860211
 21
111.5281686012814
 31
0.0
 12
107.7930573526878
 22
109.5281686012814
 32
0.0
 13
107.7930573526878
 23
109.5281686012814
 33
0.0
  0
SOLID
  5
3D89
330
384F
100
AcDbEntity
  8
0
  6
BYBLOCK
 62
     5
100
AcDbTrace
 10
107.4597240193544
 20
112.5281686012814
 30
0.0
 11
108.1263906860211
 21
112.5281686012814
 31
0.0
 12
107.7930573526878
 22
114.5281686012814
 32
0.0
 13
107.7930573526878
 23
114.5281686012814
 33
0.0
  0
MTEXT
  5
3D8A
330
384F
100
AcDbEntity
  8
0
  6
BYBLOCK
 62
     5
100
AcDbMText
 10
106.0430573526877
 20
119.9226289013442
 30
0.0
 40
2.5
 41
0.0
 71
     5
 72
     1
  1
\A1;2.5
  7
ROMANT
 11
0.0000000000000001
 21
1.0
 31
0.0
1001
ACAD
1000
MTEXTBEGIN
1070
    73
1070
     1
1070
    44
1040
1.0
1070
    74
1070
     0
1000
MTEXTEND
  0
POINT
  5
3D8B
330
384F
100
AcDbEntity
  8
DEFPOINTS
  6
BYBLOCK
 62
     0
100
AcDbPoint
 10
104.9086192579455
 20
109.5281686012814
 30
0.0
  0
POINT
  5
3D8C
330
384F
100
AcDbEntity
  8
DEFPOINTS
  6
BYBLOCK
 62
     0
100
AcDbPoint
 10
106.7387462768678
 20
114.5281686012814
 30
0.0
  0
POINT
  5
3D8D
330
384F
100
AcDbEntity
  8
DEFPOINTS
  6
BYBLOCK
 62
     0
100
AcDbPoint
 10
107.7930573526878
 20
114.5281686012814
 30
0.0
  0
ENDBLK
  5
385B
330
384F
100
AcDbEntity
  8
0
 62
     0
100
AcDbBlockEnd
  0
BLOCK
  5
3872
330
3868
100
AcDbEntity
  8
0
 62
     0
100
AcDbBlockBegin
  2
*D17
 70
     1
 10
0.0
 20
0.0
 30
0.0
  3
*D17
  1

  0
LINE
  5
3DC0
330
3868
100
AcDbEntity
  8
0
  6
BYBLOCK
 62
     5
100
AcDbLine
 10
69.58900401567493
 20
123.7531686012815
 30
0.0
 11
69.58900401567493
 21
133.4464546097693
 31
0.0
  0
LINE
  5
3DC1
330
3868
100
AcDbEntity
  8
0
  6
BYBLOCK
 62
     5
100
AcDbLine
 10
62.1890040156749
 20
120.9531686012815
 30
0.0
 11
62.1890040156749
 21
133.4464546097693
 31
0.0
  0
LINE
  5
3DC2
330
3868
100
AcDbEntity
  8
0
  6
BYBLOCK
 62
     5
100
AcDbLine
 10
67.58900401567493
 20
133.2664546097693
 30
0.0
 11
64.1890040156749
 21
133.2664546097693
 31
0.0
  0
SOLID
  5
3DC3
330
3868
100
AcDbEntity
  8
0
  6
BYBLOCK
 62
     5
100
AcDbTrace
 10
67.58900401567493
 20
133.5997879431026
 30
0.0
 11
67.58900401567493
 21
132.9331212764359
 31
0.0
 12
69.58900401567493
 22
133.2664546097693
 32
0.0
 13
69.58900401567493
 23
133.2664546097693
 33
0.0
  0
SOLID
  5
3DC4
330
3868
100
AcDbEntity
  8
0
  6
BYBLOCK
 62
     5
100
AcDbTrace
 10
64.1890040156749
 20
133.5997879431026
 30
0.0
 11
64.1890040156749
 21
132.9331212764359
 31
0.0
 12
62.1890040156749
 22
133.2664546097693
 32
0.0
 13
62.1890040156749
 23
133.2664546097693
 33
0.0
  0
MTEXT
  5
3DC5
330
3868
100
AcDbEntity
  8
0
  6
BYBLOCK
 62
     5
100
AcDbMText
 10
65.88900401567491
 20
135.0164546097693
 30
0.0
 40
2.5
 41
0.0
 71
     5
 72
     1
  1
\A1;3.7
  7
ROMANT
1001
ACAD
1000
MTEXTBEGIN
1070
    73
1070
     1
1070
    44
1040
1.0
1070
    74
1070
     0
1000
MTEXTEND
  0
POINT
  5
3DC6
330
3868
100
AcDbEntity
  8
DEFPOINTS
  6
BYBLOCK
 62
     0
100
AcDbPoint
 10
69.58900401567493
 20
123.1281686012815
 30
0.0
  0
POINT
  5
3DC7
330
3868
100
AcDbEntity
  8
DEFPOINTS
  6
BYBLOCK
 62
     0
100
AcDbPoint
 10
62.1890040156749
 20
120.3281686012815
 30
0.0
  0
POINT
  5
3DC8
330
3868
100
AcDbEntity
  8
DEFPOINTS
  6
BYBLOCK
 62
     0
100
AcDbPoint
 10
62.1890040156749
 20
133.2664546097693
 30
0.0
  0
ENDBLK
  5
3873
330
3868
100
AcDbEntity
  8
0
 62
     0
100
AcDbBlockEnd
  0
BLOCK
  5
387D
330
3875
100
AcDbEntity
  8
0
 62
     0
100
AcDbBlockBegin
  2
*D18
 70
     1
 10
0.0
 20
0.0
 30
0.0
  3
*D18
  1

  0
LINE
  5
3D98
330
3875
100
AcDbEntity
  8
0
  6
BYBLOCK
 62
     5
100
AcDbLine
 10
49.7385268952544
 20
126.0803023173968
 30
0.0
 11
60.40154658240496
 21
122.0319073678152
 31
0.0
  0
MTEXT
  5
3D99
330
3875
100
AcDbEntity
  8
0
  6
BYBLOCK
 62
     5
100
AcDbMText
 10
54.75630453219725
 20
126.0471026081802
 30
0.0
 40
2.5
 41
0.0
 71
     5
 72
     1
  1
\A1;R1.4
  7
ROMANT
 11
0.9348869652645699
 21
-0.3549455763612256
 31
0.0
1001
ACAD
1000
MTEXTBEGIN
1070
    73
1070
     1
1070
    44
1040
1.0
1070
    74
1070
     0
1000
MTEXTEND
  0
SOLID
  5
3D9A
330
3875
100
AcDbEntity
  8
0
  6
BYBLOCK
 62
     5
100
AcDbTrace
 10
60.51986177452537
 20
122.3435363562368
 30
0.0
 11
60.28323139028454
 21
121.7202783793937
 31
0.0
 12
62.27132051293409
 22
121.3220162150928
 32
0.0
 13
62.27132051293409
 23
121.3220162150928
 33
0.0
  0
LINE
  5
3D9B
330
3875
100
AcDbEntity
  8
0
  6
BYBLOCK
 62
     5
100
AcDbLine
 10
64.75200401567493
 20
120.3281686012814
 30
0.0
 11
65.02600401567491
 21
120.3281686012814
 31
0.0
  0
LINE
  5
3D9C
330
3875
100
AcDbEntity
  8
0
  6
BYBLOCK
 62
     5
100
AcDbLine
 10
64.88900401567491
 20
120.1911686012814
 30
0.0
 11
64.88900401567491
 21
120.4651686012814
 31
0.0
  0
POINT
  5
3D9D
330
3875
100
AcDbEntity
  8
DEFPOINTS
  6
BYBLOCK
 62
     0
100
AcDbPoint
 10
62.27132051293409
 20
121.3220162150928
 30
0.0
  0
POINT
  5
3D9E
330
3875
100
AcDbEntity
  8
DEFPOINTS
  6
BYBLOCK
 62
     0
100
AcDbPoint
 10
64.88900401567491
 20
120.3281686012814
 30
0.0
  0
ENDBLK
  5
387E
330
3875
100
AcDbEntity
  8
0
 62
     0
100
AcDbBlockEnd
  0
BLOCK
  5
3888
330
3880
100
AcDbEntity
  8
0
 62
     0
100
AcDbBlockBegin
  2
*D19
 70
     1
 10
0.0
 20
0.0
 30
0.0
  3
*D19
  1

  0
LINE
  5
3D9F
330
3880
100
AcDbEntity
  8
0
  6
BYBLOCK
 62
     5
100
AcDbLine
 10
83.37536898765817
 20
134.6145335732648
 30
0.0
 11
75.22453792160765
 21
126.4637025072142
 31
0.0
  0
MTEXT
  5
3DA0
330
3880
100
AcDbEntity
  8
0
  6
BYBLOCK
 62
     5
100
AcDbMText
 10
78.76962336874298
 20
132.4836616885025
 30
0.0
 40
2.5
 41
0.0
 71
     5
 72
     1
  1
\A1;R1.5
  7
ROMANT
 11
0.7071067811865426
 21
0.7071067811865526
 31
0.0
1001
ACAD
1000
MTEXTBEGIN
1070
    73
1070
     1
1070
    44
1040
1.0
1070
    74
1070
     0
1000
MTEXTEND
  0
SOLID
  5
3DA1
330
3880
100
AcDbEntity
  8
0
  6
BYBLOCK
 62
     5
100
AcDbTrace
 10
74.98883566121214
 20
126.6994047676097
 30
0.0
 11
75.46024018200316
 21
126.2280002468187
 31
0.0
 12
73.81032435923455
 22
125.0494889448411
 32
0.0
 13
73.81032435923455
 23
125.0494889448411
 33
0.0
  0
LINE
  5
3DA2
330
3880
100
AcDbEntity
  8
0
  6
BYBLOCK
 62
     5
100
AcDbLine
 10
71.55200401567494
 20
122.9281686012815
 30
0.0
 11
71.82600401567494
 21
122.9281686012814
 31
0.0
  0
LINE
  5
3DA3
330
3880
100
AcDbEntity
  8
0
  6
BYBLOCK
 62
     5
100
AcDbLine
 10
71.68900401567495
 20
122.7911686012814
 30
0.0
 11
71.68900401567494
 21
123.0651686012814
 31
0.0
  0
POINT
  5
3DA4
330
3880
100
AcDbEntity
  8
DEFPOINTS
  6
BYBLOCK
 62
     0
100
AcDbPoint
 10
73.81032435923455
 20
125.0494889448411
 30
0.0
  0
POINT
  5
3DA5
330
3880
100
AcDbEntity
  8
DEFPOINTS
  6
BYBLOCK
 62
     0
100
AcDbPoint
 10
71.68900401567492
 20
122.9281686012814
 30
0.0
  0
ENDBLK
  5
3889
330
3880
100
AcDbEntity
  8
0
 62
     0
100
AcDbBlockEnd
  0
BLOCK
  5
3893
330
388B
100
AcDbEntity
  8
0
 62
     0
100
AcDbBlockBegin
  2
*D20
 70
     1
 10
0.0
 20
0.0
 30
0.0
  3
*D20
  1

  0
LINE
  5
3DA6
330
388B
100
AcDbEntity
  8
0
  6
BYBLOCK
 62
     5
100
AcDbLine
 10
109.6664181029465
 20
160.057199695533
 30
0.0
 11
127.1280899154213
 21
157.2105993222877
 31
0.0
  0
MTEXT
  5
3DA7
330
388B
100
AcDbEntity
  8
0
  6
BYBLOCK
 62
     5
100
AcDbMText
 10
114.6494320156853
 20
161.0179702409178
 30
0.0
 40
2.5
 41
0.0
 71
     5
 72
     1
  1
\A1;R0.5
  7
ROMANT
 11
0.9869713667511375
 21
-0.1608959950197383
 31
0.0
1001
ACAD
1000
MTEXTBEGIN
1070
    73
1070
     1
1070
    44
1040
1.0
1070
    74
1070
     0
1000
MTEXTEND
  0
SOLID
  5
3DA8
330
388B
100
AcDbEntity
  8
0
  6
BYBLOCK
 62
     5
100
AcDbTrace
 10
127.1817219137612
 20
157.5395897778714
 30
0.0
 11
127.0744579170814
 21
156.8816088667039
 31
0.0
 12
129.1020326489236
 22
156.8888073322482
 32
0.0
 13
129.1020326489236
 23
156.8888073322482
 33
0.0
  0
LINE
  5
3DA9
330
388B
100
AcDbEntity
  8
0
  6
BYBLOCK
 62
     5
100
AcDbLine
 10
129.9520040156747
 20
156.7279113372285
 30
0.0
 11
130.2260040156747
 21
156.7279113372285
 31
0.0
  0
LINE
  5
3DAA
330
388B
100
AcDbEntity
  8
0
  6
BYBLOCK
 62
     5
100
AcDbLine
 10
130.0890040156747
 20
156.5909113372285
 30
0.0
 11
130.0890040156747
 21
156.8649113372285
 31
0.0
  0
POINT
  5
3DAB
330
388B
100
AcDbEntity
  8
DEFPOINTS
  6
BYBLOCK
 62
     0
100
AcDbPoint
 10
129.1020326489236
 20
156.8888073322482
 30
0.0
  0
POINT
  5
3DAC
330
388B
100
AcDbEntity
  8
DEFPOINTS
  6
BYBLOCK
 62
     0
100
AcDbPoint
 10
130.0890040156747
 20
156.7279113372285
 30
0.0
  0
ENDBLK
  5
3894
330
388B
100
AcDbEntity
  8
0
 62
     0
100
AcDbBlockEnd
  0
BLOCK
  5
38A0
330
3896
100
AcDbEntity
  8
0
 62
     0
100
AcDbBlockBegin
  2
*D21
 70
     1
 10
0.0
 20
0.0
 30
0.0
  3
*D21
  1

  0
LINE
  5
3EAE
330
3896
100
AcDbEntity
  8
0
  6
BYBLOCK
 62
     5
100
AcDbLine
 10
147.1875736317244
 20
177.5281686012814
 30
0.0
 11
183.4101385642054
 21
177.5281686012814
 31
0.0
  0
LINE
  5
3EAF
330
3896
100
AcDbEntity
  8
0
  6
BYBLOCK
 62
     5
100
AcDbLine
 10
140.1532345002161
 20
109.5281686012814
 30
0.0
 11
183.4101385642054
 21
109.5281686012814
 31
0.0
  0
LINE
  5
3EB0
330
3896
100
AcDbEntity
  8
0
  6
BYBLOCK
 62
     5
100
AcDbLine
 10
183.2301385642054
 20
175.5281686012814
 30
0.0
 11
183.2301385642054
 21
111.5281686012814
 31
0.0
  0
SOLID
  5
3EB1
330
3896
100
AcDbEntity
  8
0
  6
BYBLOCK
 62
     5
100
AcDbTrace
 10
182.896805230872
 20
175.5281686012814
 30
0.0
 11
183.5634718975387
 21
175.5281686012814
 31
0.0
 12
183.2301385642054
 22
177.5281686012814
 32
0.0
 13
183.2301385642054
 23
177.5281686012814
 33
0.0
  0
SOLID
  5
3EB2
330
3896
100
AcDbEntity
  8
0
  6
BYBLOCK
 62
     5
100
AcDbTrace
 10
182.896805230872
 20
111.5281686012814
 30
0.0
 11
183.5634718975387
 21
111.5281686012814
 31
0.0
 12
183.2301385642054
 22
109.5281686012814
 32
0.0
 13
183.2301385642054
 23
109.5281686012814
 33
0.0
  0
MTEXT
  5
3EB3
330
3896
100
AcDbEntity
  8
0
  6
BYBLOCK
 62
     5
100
AcDbMText
 10
181.4801385642054
 20
144.9783360014686
 30
0.0
 40
2.5
 41
0.0
 71
     5
 72
     1
  1
\A1;34
  7
ROMANT
 11
0.0000000000000001
 21
1.0
 31
0.0
1001
ACAD
1000
MTEXTBEGIN
1070
    73
1070
     1
1070
    44
1040
1.0
1070
    74
1070
     0
1000
MTEXTEND
  0
POINT
  5
3EB4
330
3896
100
AcDbEntity
  8
DEFPOINTS
  6
BYBLOCK
 62
     0
100
AcDbPoint
 10
146.5625736317244
 20
177.5281686012814
 30
0.0
  0
POINT
  5
3EB5
330
3896
100
AcDbEntity
  8
DEFPOINTS
  6
BYBLOCK
 62
     0
100
AcDbPoint
 10
139.5282345002161
 20
109.5281686012814
 30
0.0
  0
POINT
  5
3EB6
330
3896
100
AcDbEntity
  8
DEFPOINTS
  6
BYBLOCK
 62
     0
100
AcDbPoint
 10
183.2301385642054
 20
109.5281686012814
 30
0.0
  0
ENDBLK
  5
38A1
330
3896
100
AcDbEntity
  8
0
 62
     0
100
AcDbBlockEnd
  0
BLOCK
  5
3DEF
330
3DE5
100
AcDbEntity
  8
0
 62
     0
100
AcDbBlockBegin
  2
*D22
 70
     1
 10
0.0
 20
0.0
 30
0.0
  3
*D22
  1

  0
LINE
  5
3DE6
330
3DE5
100
AcDbEntity
  8
0
  6
BYBLOCK
 62
     5
100
AcDbLine
 10
68.96400401567493
 20
117.5281686012814
 30
0.0
 11
57.50572446458188
 21
117.5281686012814
 31
0.0
  0
LINE
  5
3DE7
330
3DE5
100
AcDbEntity
  8
0
  6
BYBLOCK
 62
     5
100
AcDbLine
 10
69.56400401567496
 20
109.5281686012813
 30
0.0
 11
57.50572446458187
 21
109.5281686012813
 31
0.0
  0
LINE
  5
3DE8
330
3DE5
100
AcDbEntity
  8
0
  6
BYBLOCK
 62
     5
100
AcDbLine
 10
57.68572446458188
 20
115.5281686012814
 30
0.0
 11
57.68572446458187
 21
111.5281686012813
 31
0.0
  0
SOLID
  5
3DE9
330
3DE5
100
AcDbEntity
  8
0
  6
BYBLOCK
 62
     5
100
AcDbTrace
 10
57.35239113124855
 20
115.5281686012814
 30
0.0
 11
58.01905779791521
 21
115.5281686012814
 31
0.0
 12
57.68572446458188
 22
117.5281686012814
 32
0.0
 13
57.68572446458188
 23
117.5281686012814
 33
0.0
  0
SOLID
  5
3DEA
330
3DE5
100
AcDbEntity
  8
0
  6
BYBLOCK
 62
     5
100
AcDbTrace
 10
57.35239113124854
 20
111.5281686012813
 30
0.0
 11
58.01905779791521
 21
111.5281686012813
 31
0.0
 12
57.68572446458187
 22
109.5281686012813
 32
0.0
 13
57.68572446458187
 23
109.5281686012813
 33
0.0
  0
MTEXT
  5
3DEB
330
3DE5
100
AcDbEntity
  8
0
  6
BYBLOCK
 62
     5
100
AcDbMText
 10
55.93572446458185
 20
113.5281686012814
 30
0.0
 40
2.5
 41
0.0
 71
     5
 72
     1
  1
\A1;4
  7
ROMANT
 11
0.0000000000000001
 21
1.0
 31
0.0
1001
ACAD
1000
MTEXTBEGIN
1070
    73
1070
     1
1070
    44
1040
1.0
1070
    74
1070
     0
1000
MTEXTEND
  0
POINT
  5
3DEC
330
3DE5
100
AcDbEntity
  8
DEFPOINTS
  6
BYBLOCK
 62
     0
100
AcDbPoint
 10
69.58900401567493
 20
117.5281686012814
 30
0.0
  0
POINT
  5
3DED
330
3DE5
100
AcDbEntity
  8
DEFPOINTS
  6
BYBLOCK
 62
     0
100
AcDbPoint
 10
70.18900401567496
 20
109.5281686012813
 30
0.0
  0
POINT
  5
3DEE
330
3DE5
100
AcDbEntity
  8
DEFPOINTS
  6
BYBLOCK
 62
     0
100
AcDbPoint
 10
57.68572446458187
 20
109.5281686012813
 30
0.0
  0
ENDBLK
  5
3DF0
330
3DE5
100
AcDbEntity
  8
0
 62
     0
100
AcDbBlockEnd
  0
BLOCK
  5
3DFC
330
3DF2
100
AcDbEntity
  8
0
 62
     0
100
AcDbBlockBegin
  2
*D23
 70
     1
 10
0.0
 20
0.0
 30
0.0
  3
*D23
  1

  0
LINE
  5
3DF3
330
3DF2
100
AcDbEntity
  8
0
  6
BYBLOCK
 62
     5
100
AcDbLine
 10
74.78900401567486
 20
122.3031686012814
 30
0.0
 11
74.78900401567486
 21
102.1723584502007
 31
0.0
  0
LINE
  5
3DF4
330
3DF2
100
AcDbEntity
  8
0
  6
BYBLOCK
 62
     5
100
AcDbLine
 10
62.1890040156749
 20
119.7031686012815
 30
0.0
 11
62.1890040156749
 21
102.1723584502007
 31
0.0
  0
LINE
  5
3DF5
330
3DF2
100
AcDbEntity
  8
0
  6
BYBLOCK
 62
     5
100
AcDbLine
 10
72.78900401567486
 20
102.3523584502007
 30
0.0
 11
64.1890040156749
 21
102.3523584502007
 31
0.0
  0
SOLID
  5
3DF6
330
3DF2
100
AcDbEntity
  8
0
  6
BYBLOCK
 62
     5
100
AcDbTrace
 10
72.78900401567486
 20
102.6856917835341
 30
0.0
 11
72.78900401567486
 21
102.0190251168674
 31
0.0
 12
74.78900401567486
 22
102.3523584502007
 32
0.0
 13
74.78900401567486
 23
102.3523584502007
 33
0.0
  0
SOLID
  5
3DF7
330
3DF2
100
AcDbEntity
  8
0
  6
BYBLOCK
 62
     5
100
AcDbTrace
 10
64.1890040156749
 20
102.6856917835341
 30
0.0
 11
64.1890040156749
 21
102.0190251168674
 31
0.0
 12
62.1890040156749
 22
102.3523584502007
 32
0.0
 13
62.1890040156749
 23
102.3523584502007
 33
0.0
  0
MTEXT
  5
3DF8
330
3DF2
100
AcDbEntity
  8
0
  6
BYBLOCK
 62
     5
100
AcDbMText
 10
68.48900401567488
 20
104.1023584502007
 30
0.0
 40
2.5
 41
0.0
 71
     5
 72
     1
  1
\A1;6.3
  7
ROMANT
1001
ACAD
1000
MTEXTBEGIN
1070
    73
1070
     1
1070
    44
1040
1.0
1070
    74
1070
     0
1000
MTEXTEND
  0
POINT
  5
3DF9
330
3DF2
100
AcDbEntity
  8
DEFPOINTS
  6
BYBLOCK
 62
     0
100
AcDbPoint
 10
74.78900401567486
 20
122.9281686012814
 30
0.0
  0
POINT
  5
3DFA
330
3DF2
100
AcDbEntity
  8
DEFPOINTS
  6
BYBLOCK
 62
     0
100
AcDbPoint
 10
62.1890040156749
 20
120.3281686012815
 30
0.0
  0
POINT
  5
3DFB
330
3DF2
100
AcDbEntity
  8
DEFPOINTS
  6
BYBLOCK
 62
     0
100
AcDbPoint
 10
62.1890040156749
 20
102.3523584502007
 30
0.0
  0
ENDBLK
  5
3DFD
330
3DF2
100
AcDbEntity
  8
0
 62
     0
100
AcDbBlockEnd
  0
BLOCK
  5
3E0A
330
3DFF
100
AcDbEntity
  8
0
 62
     0
100
AcDbBlockBegin
  2
*D24
 70
     1
 10
0.0
 20
0.0
 30
0.0
  3
*D24
  1

  0
LINE
  5
3E0C
330
3DFF
100
AcDbEntity
  8
0
  6
BYBLOCK
 62
     5
100
AcDbLine
 10
159.5890040156749
 20
138.0547039312362
 30
0.0
 11
159.5890040156749
 21
143.9829912938955
 31
0.0
  0
LINE
  5
3E0D
330
3DFF
100
AcDbEntity
  8
0
  6
BYBLOCK
 62
     5
100
AcDbLine
 10
156.9890040156749
 20
138.0547039312361
 30
0.0
 11
156.9890040156749
 21
143.9829912938955
 31
0.0
  0
LINE
  5
3E0E
330
3DFF
100
AcDbEntity
  8
0
  6
BYBLOCK
 62
     5
100
AcDbLine
 10
154.9890040156749
 20
143.8029912938955
 30
0.0
 11
152.9890040156749
 21
143.8029912938955
 31
0.0
  0
LINE
  5
3E0F
330
3DFF
100
AcDbEntity
  8
0
  6
BYBLOCK
 62
     5
100
AcDbLine
 10
161.5890040156749
 20
143.8029912938955
 30
0.0
 11
170.1631808565987
 21
143.8029912938955
 31
0.0
  0
SOLID
  5
3E10
330
3DFF
100
AcDbEntity
  8
0
  6
BYBLOCK
 62
     5
100
AcDbTrace
 10
154.9890040156749
 20
144.1363246272288
 30
0.0
 11
154.9890040156749
 21
143.4696579605621
 31
0.0
 12
156.9890040156749
 22
143.8029912938955
 32
0.0
 13
156.9890040156749
 23
143.8029912938955
 33
0.0
  0
SOLID
  5
3E11
330
3DFF
100
AcDbEntity
  8
0
  6
BYBLOCK
 62
     5
100
AcDbTrace
 10
161.5890040156749
 20
144.1363246272288
 30
0.0
 11
161.5890040156749
 21
143.4696579605621
 31
0.0
 12
159.5890040156749
 22
143.8029912938955
 32
0.0
 13
159.5890040156749
 23
143.8029912938955
 33
0.0
  0
MTEXT
  5
3E12
330
3DFF
100
AcDbEntity
  8
0
  6
BYBLOCK
 62
     5
100
AcDbMText
 10
166.8760924361368
 20
145.5529912938954
 30
0.0
 40
2.5
 41
0.0
 71
     5
 72
     1
  1
\A1;1.3
  7
ROMANT
1001
ACAD
1000
MTEXTBEGIN
1070
    73
1070
     1
1070
    44
1040
1.0
1070
    74
1070
     0
1000
MTEXTEND
  0
POINT
  5
3E13
330
3DFF
100
AcDbEntity
  8
DEFPOINTS
  6
BYBLOCK
 62
     0
100
AcDbPoint
 10
159.5890040156749
 20
137.4297039312361
 30
0.0
  0
POINT
  5
3E14
330
3DFF
100
AcDbEntity
  8
DEFPOINTS
  6
BYBLOCK
 62
     0
100
AcDbPoint
 10
156.9890040156749
 20
137.4297039312361
 30
0.0
  0
POINT
  5
3E15
330
3DFF
100
AcDbEntity
  8
DEFPOINTS
  6
BYBLOCK
 62
     0
100
AcDbPoint
 10
156.9890040156749
 20
143.8029912938955
 30
0.0
  0
ENDBLK
  5
3E0B
330
3DFF
100
AcDbEntity
  8
0
 62
     0
100
AcDbBlockEnd
  0
BLOCK
  5
3E63
330
3E58
100
AcDbEntity
  8
0
 62
     0
100
AcDbBlockBegin
  2
*D25
 70
     1
 10
0.0
 20
0.0
 30
0.0
  3
*D25
  1

  0
LINE
  5
3E59
330
3E58
100
AcDbEntity
  8
0
  6
BYBLOCK
 62
     5
100
AcDbLine
 10
153.9890040156748
 20
133.804703931236
 30
0.0
 11
153.9890040156748
 21
132.5620124776121
 31
0.0
  0
LINE
  5
3E5A
330
3E58
100
AcDbEntity
  8
0
  6
BYBLOCK
 62
     5
100
AcDbLine
 10
149.589004015675
 20
133.804703931236
 30
0.0
 11
149.589004015675
 21
132.5620124776121
 31
0.0
  0
LINE
  5
3E5B
330
3E58
100
AcDbEntity
  8
0
  6
BYBLOCK
 62
     5
100
AcDbLine
 10
155.9890040156749
 20
132.7420124776121
 30
0.0
 11
157.9890040156749
 21
132.7420124776121
 31
0.0
  0
LINE
  5
3E5C
330
3E58
100
AcDbEntity
  8
0
  6
BYBLOCK
 62
     5
100
AcDbLine
 10
147.589004015675
 20
132.7420124776121
 30
0.0
 11
138.689583030993
 21
132.7420124776121
 31
0.0
  0
SOLID
  5
3E5D
330
3E58
100
AcDbEntity
  8
0
  6
BYBLOCK
 62
     5
100
AcDbTrace
 10
155.9890040156749
 20
133.0753458109454
 30
0.0
 11
155.9890040156749
 21
132.4086791442788
 31
0.0
 12
153.9890040156748
 22
132.7420124776121
 32
0.0
 13
153.9890040156748
 23
132.7420124776121
 33
0.0
  0
SOLID
  5
3E5E
330
3E58
100
AcDbEntity
  8
0
  6
BYBLOCK
 62
     5
100
AcDbTrace
 10
147.589004015675
 20
133.0753458109454
 30
0.0
 11
147.589004015675
 21
132.4086791442788
 31
0.0
 12
149.589004015675
 22
132.7420124776121
 32
0.0
 13
149.589004015675
 23
132.7420124776121
 33
0.0
  0
MTEXT
  5
3E5F
330
3E58
100
AcDbEntity
  8
0
  6
BYBLOCK
 62
     5
100
AcDbMText
 10
142.139293523334
 20
134.4920124776121
 30
0.0
 40
2.5
 41
0.0
 71
     5
 72
     1
  1
\A1;2.2
  7
ROMANT
1001
ACAD
1000
MTEXTBEGIN
1070
    73
1070
     1
1070
    44
1040
1.0
1070
    74
1070
     0
1000
MTEXTEND
  0
POINT
  5
3E60
330
3E58
100
AcDbEntity
  8
DEFPOINTS
  6
BYBLOCK
 62
     0
100
AcDbPoint
 10
153.9890040156748
 20
134.429703931236
 30
0.0
  0
POINT
  5
3E61
330
3E58
100
AcDbEntity
  8
DEFPOINTS
  6
BYBLOCK
 62
     0
100
AcDbPoint
 10
149.589004015675
 20
134.429703931236
 30
0.0
  0
POINT
  5
3E62
330
3E58
100
AcDbEntity
  8
DEFPOINTS
  6
BYBLOCK
 62
     0
100
AcDbPoint
 10
149.589004015675
 20
132.7420124776121
 30
0.0
  0
ENDBLK
  5
3E64
330
3E58
100
AcDbEntity
  8
0
 62
     0
100
AcDbBlockEnd
  0
BLOCK
  5
3E71
330
3E66
100
AcDbEntity
  8
0
 62
     0
100
AcDbBlockBegin
  2
*D26
 70
     1
 10
0.0
 20
0.0
 30
0.0
  3
*D26
  1

  0
LINE
  5
3E67
330
3E66
100
AcDbEntity
  8
0
  6
BYBLOCK
 62
     5
100
AcDbLine
 10
156.9890040156749
 20
125.804703931236
 30
0.0
 11
156.9890040156749
 21
103.6722058715099
 31
0.0
  0
LINE
  5
3E68
330
3E66
100
AcDbEntity
  8
0
  6
BYBLOCK
 62
     5
100
AcDbLine
 10
153.9890040156748
 20
125.804703931236
 30
0.0
 11
153.9890040156748
 21
103.6722058715099
 31
0.0
  0
LINE
  5
3E69
330
3E66
100
AcDbEntity
  8
0
  6
BYBLOCK
 62
     5
100
AcDbLine
 10
158.9890040156749
 20
103.8522058715099
 30
0.0
 11
160.9890040156749
 21
103.8522058715099
 31
0.0
  0
LINE
  5
3E6A
330
3E66
100
AcDbEntity
  8
0
  6
BYBLOCK
 62
     5
100
AcDbLine
 10
151.9890040156749
 20
103.8522058715099
 30
0.0
 11
143.4381786536447
 21
103.8522058715099
 31
0.0
  0
SOLID
  5
3E6B
330
3E66
100
AcDbEntity
  8
0
  6
BYBLOCK
 62
     5
100
AcDbTrace
 10
158.9890040156749
 20
104.1855392048432
 30
0.0
 11
158.9890040156749
 21
103.5188725381765
 31
0.0
 12
156.9890040156749
 22
103.8522058715099
 32
0.0
 13
156.9890040156749
 23
103.8522058715099
 33
0.0
  0
SOLID
  5
3E6C
330
3E66
100
AcDbEntity
  8
0
  6
BYBLOCK
 62
     5
100
AcDbTrace
 10
151.9890040156749
 20
104.1855392048432
 30
0.0
 11
151.9890040156749
 21
103.5188725381765
 31
0.0
 12
153.9890040156748
 22
103.8522058715099
 32
0.0
 13
153.9890040156748
 23
103.8522058715099
 33
0.0
  0
MTEXT
  5
3E6D
330
3E66
100
AcDbEntity
  8
0
  6
BYBLOCK
 62
     5
100
AcDbMText
 10
146.7135913346598
 20
105.6022058715099
 30
0.0
 40
2.5
 41
0.0
 71
     5
 72
     1
  1
\A1;1.5
  7
ROMANT
1001
ACAD
1000
MTEXTBEGIN
1070
    73
1070
     1
1070
    44
1040
1.0
1070
    74
1070
     0
1000
MTEXTEND
  0
POINT
  5
3E6E
330
3E66
100
AcDbEntity
  8
DEFPOINTS
  6
BYBLOCK
 62
     0
100
AcDbPoint
 10
156.9890040156749
 20
126.429703931236
 30
0.0
  0
POINT
  5
3E6F
330
3E66
100
AcDbEntity
  8
DEFPOINTS
  6
BYBLOCK
 62
     0
100
AcDbPoint
 10
153.9890040156748
 20
126.429703931236
 30
0.0
  0
POINT
  5
3E70
330
3E66
100
AcDbEntity
  8
DEFPOINTS
  6
BYBLOCK
 62
     0
100
AcDbPoint
 10
153.9890040156748
 20
103.8522058715099
 30
0.0
  0
ENDBLK
  5
3E72
330
3E66
100
AcDbEntity
  8
0
 62
     0
100
AcDbBlockEnd
  0
ENDSEC
  0
SECTION
  2
ENTITIES
  0
POLYLINE
  5
3B05
330
2
100
AcDbEntity
  8
0
  6
BYBLOCK
 62
     0
100
AcDb2dPolyline
 66
     1
 10
0.0
 20
0.0
 30
0.0
 70
     1
  0
VERTEX
  5
3F52
330
3B05
100
AcDbEntity
  8
0
  6
BYBLOCK
 62
     0
100
AcDbVertex
100
AcDb2dVertex
 10
162.712864333849
 20
231.3704640887802
 30
0.0
  0
VERTEX
  5
3F53
330
3B05
100
AcDbEntity
  8
0
  6
BYBLOCK
 62
     0
100
AcDbVertex
100
AcDb2dVertex
 10
165.527240688736
 20
228.3429771957562
 30
0.0
 42
-0.2031036847088211
  0
VERTEX
  5
3F54
330
3B05
100
AcDbEntity
  8
0
  6
BYBLOCK
 62
     0
100
AcDbVertex
100
AcDb2dVertex
 10
165.6071016851863
 20
228.1229534801302
 30
0.0
  0
VERTEX
  5
3F55
330
3B05
100
AcDbEntity
  8
0
  6
BYBLOCK
 62
     0
100
AcDbVertex
100
AcDb2dVertex
 10
165.5066969991091
 20
226.215076497071
 30
0.0
  0
VERTEX
  5
3F56
330
3B05
100
AcDbEntity
  8
0
  6
BYBLOCK
 62
     0
100
AcDbVertex
100
AcDb2dVertex
 10
174.7066969991091
 20
226.215076497071
 30
0.0
  0
VERTEX
  5
3F57
330
3B05
100
AcDbEntity
  8
0
  6
BYBLOCK
 62
     0
100
AcDbVertex
100
AcDb2dVertex
 10
174.7066969991091
 20
229.6702016655119
 30
0.0
 42
0.1316524975873976
  0
VERTEX
  5
3F58
330
3B05
100
AcDbEntity
  8
0
  6
BYBLOCK
 62
     0
100
AcDbVertex
100
AcDb2dVertex
 10
174.6665046202444
 20
229.8202016655119
 30
0.0
  0
VERTEX
  5
3F59
330
3B05
100
AcDbEntity
  8
0
  6
BYBLOCK
 62
     0
100
AcDbVertex
100
AcDb2dVertex
 10
170.2468893779738
 20
237.4751998150304
 30
0.0
 42
-0.1316524975873977
  0
VERTEX
  5
3F5A
330
3B05
100
AcDbEntity
  8
0
  6
BYBLOCK
 62
     0
100
AcDbVertex
100
AcDb2dVertex
 10
170.2066969991091
 20
237.6251998150304
 30
0.0
  0
VERTEX
  5
3F5B
330
3B05
100
AcDbEntity
  8
0
  6
BYBLOCK
 62
     0
100
AcDbVertex
100
AcDb2dVertex
 10
170.2066969991091
 20
240.815076497071
 30
0.0
 42
-0.4142135623730951
  0
VERTEX
  5
3F5C
330
3B05
100
AcDbEntity
  8
0
  6
BYBLOCK
 62
     0
100
AcDbVertex
100
AcDb2dVertex
 10
170.7066969991091
 20
241.315076497071
 30
0.0
  0
VERTEX
  5
3F5D
330
3B05
100
AcDbEntity
  8
0
  6
BYBLOCK
 62
     0
100
AcDbVertex
100
AcDb2dVertex
 10
170.7434818071339
 20
241.315076497071
 30
0.0
 42
-0.2679491924311208
  0
VERTEX
  5
3F5E
330
3B05
100
AcDbEntity
  8
0
  6
BYBLOCK
 62
     0
100
AcDbVertex
100
AcDb2dVertex
 10
171.0032894282692
 20
241.165076497071
 30
0.0
  0
VERTEX
  5
3F5F
330
3B05
100
AcDbEntity
  8
0
  6
BYBLOCK
 62
     0
100
AcDbVertex
100
AcDb2dVertex
 10
177.1665046202445
 20
230.4900746465896
 30
0.0
 42
-0.1316524975873944
  0
VERTEX
  5
3F60
330
3B05
100
AcDbEntity
  8
0
  6
BYBLOCK
 62
     0
100
AcDbVertex
100
AcDb2dVertex
 10
177.2066969991091
 20
230.3400746465896
 30
0.0
  0
VERTEX
  5
3F61
330
3B05
100
AcDbEntity
  8
0
  6
BYBLOCK
 62
     0
100
AcDbVertex
100
AcDb2dVertex
 10
177.2066969991091
 20
221.5158441620483
 30
0.0
  0
VERTEX
  5
3F62
330
3B05
100
AcDbEntity
  8
0
  6
BYBLOCK
 62
     0
100
AcDbVertex
100
AcDb2dVertex
 10
175.9066969991091
 20
221.5158441620483
 30
0.0
  0
VERTEX
  5
3F63
330
3B05
100
AcDbEntity
  8
0
  6
BYBLOCK
 62
     0
100
AcDbVertex
100
AcDb2dVertex
 10
175.9066969991091
 20
223.7658441620483
 30
0.0
  0
VERTEX
  5
3F64
330
3B05
100
AcDbEntity
  8
0
  6
BYBLOCK
 62
     0
100
AcDbVertex
100
AcDb2dVertex
 10
174.4066969991091
 20
223.7658441620483
 30
0.0
  0
VERTEX
  5
3F65
330
3B05
100
AcDbEntity
  8
0
  6
BYBLOCK
 62
     0
100
AcDbVertex
100
AcDb2dVertex
 10
174.4066969991091
 20
215.7658441620483
 30
0.0
  0
VERTEX
  5
3F66
330
3B05
100
AcDbEntity
  8
0
  6
BYBLOCK
 62
     0
100
AcDbVertex
100
AcDb2dVertex
 10
175.9066969991091
 20
215.7658441620483
 30
0.0
  0
VERTEX
  5
3F67
330
3B05
100
AcDbEntity
  8
0
  6
BYBLOCK
 62
     0
100
AcDbVertex
100
AcDb2dVertex
 10
175.9066969991091
 20
218.0158441620483
 30
0.0
  0
VERTEX
  5
3F68
330
3B05
100
AcDbEntity
  8
0
  6
BYBLOCK
 62
     0
100
AcDbVertex
100
AcDb2dVertex
 10
177.2066969991091
 20
218.0158441620483
 30
0.0
  0
VERTEX
  5
3F69
330
3B05
100
AcDbEntity
  8
0
  6
BYBLOCK
 62
     0
100
AcDbVertex
100
AcDb2dVertex
 10
177.2066969991091
 20
213.2040492428052
 30
0.0
 42
-0.2679491924311647
  0
VERTEX
  5
3F6A
330
3B05
100
AcDbEntity
  8
0
  6
BYBLOCK
 62
     0
100
AcDbVertex
100
AcDb2dVertex
 10
177.0566969991091
 20
212.9442416216698
 30
0.0
  0
VERTEX
  5
3F6B
330
3B05
100
AcDbEntity
  8
0
  6
BYBLOCK
 62
     0
100
AcDbVertex
100
AcDb2dVertex
 10
167.3763122413797
 20
207.3552688759357
 30
0.0
 42
-0.1316524975873945
  0
VERTEX
  5
3F6C
330
3B05
100
AcDbEntity
  8
0
  6
BYBLOCK
 62
     0
100
AcDbVertex
100
AcDb2dVertex
 10
167.2263122413797
 20
207.315076497071
 30
0.0
  0
VERTEX
  5
3F6D
330
3B05
100
AcDbEntity
  8
0
  6
BYBLOCK
 62
     0
100
AcDbVertex
100
AcDb2dVertex
 10
132.5066969991091
 20
207.3150764970709
 30
0.0
 42
-0.4142135623730953
  0
VERTEX
  5
3F6E
330
3B05
100
AcDbEntity
  8
0
  6
BYBLOCK
 62
     0
100
AcDbVertex
100
AcDb2dVertex
 10
132.2066969991091
 20
207.615076497071
 30
0.0
  0
VERTEX
  5
3F6F
330
3B05
100
AcDbEntity
  8
0
  6
BYBLOCK
 62
     0
100
AcDbVertex
100
AcDb2dVertex
 10
132.2066969991091
 20
211.3150764970709
 30
0.0
  0
VERTEX
  5
3F70
330
3B05
100
AcDbEntity
  8
0
  6
BYBLOCK
 62
     0
100
AcDbVertex
100
AcDb2dVertex
 10
129.9066969991091
 20
211.315076497071
 30
0.0
 42
-0.9999999999999998
  0
VERTEX
  5
3F71
330
3B05
100
AcDbEntity
  8
0
  6
BYBLOCK
 62
     0
100
AcDbVertex
100
AcDb2dVertex
 10
129.9066969991091
 20
214.115076497071
 30
0.0
  0
VERTEX
  5
3F72
330
3B05
100
AcDbEntity
  8
0
  6
BYBLOCK
 62
     0
100
AcDbVertex
100
AcDb2dVertex
 10
132.2066969991091
 20
214.115076497071
 30
0.0
  0
VERTEX
  5
3F73
330
3B05
100
AcDbEntity
  8
0
  6
BYBLOCK
 62
     0
100
AcDbVertex
100
AcDb2dVertex
 10
132.2066969991091
 20
215.515076497071
 30
0.0
  0
VERTEX
  5
3F74
330
3B05
100
AcDbEntity
  8
0
  6
BYBLOCK
 62
     0
100
AcDbVertex
100
AcDb2dVertex
 10
133.3066969991091
 20
215.515076497071
 30
0.0
 42
-0.4142135623730951
  0
VERTEX
  5
3F75
330
3B05
100
AcDbEntity
  8
0
  6
BYBLOCK
 62
     0
100
AcDbVertex
100
AcDb2dVertex
 10
134.8066969991091
 20
214.015076497071
 30
0.0
  0
VERTEX
  5
3F76
330
3B05
100
AcDbEntity
  8
0
  6
BYBLOCK
 62
     0
100
AcDbVertex
100
AcDb2dVertex
 10
134.8066969991091
 20
210.115076497071
 30
0.0
 42
0.4142135623730951
  0
VERTEX
  5
3F77
330
3B05
100
AcDbEntity
  8
0
  6
BYBLOCK
 62
     0
100
AcDbVertex
100
AcDb2dVertex
 10
135.1066969991091
 20
209.815076497071
 30
0.0
  0
VERTEX
  5
3F78
330
3B05
100
AcDbEntity
  8
0
  6
BYBLOCK
 62
     0
100
AcDbVertex
100
AcDb2dVertex
 10
166.556439260302
 20
209.815076497071
 30
0.0
 42
0.1316524975873975
  0
VERTEX
  5
3F79
330
3B05
100
AcDbEntity
  8
0
  6
BYBLOCK
 62
     0
100
AcDbVertex
100
AcDb2dVertex
 10
166.706439260302
 20
209.8552688759357
 30
0.0
  0
VERTEX
  5
3F7A
330
3B05
100
AcDbEntity
  8
0
  6
BYBLOCK
 62
     0
100
AcDbVertex
100
AcDb2dVertex
 10
173.2948019952464
 20
213.6590618744747
 30
0.0
 42
0.6482315195104579
  0
VERTEX
  5
3F7B
330
3B05
100
AcDbEntity
  8
0
  6
BYBLOCK
 62
     0
100
AcDbVertex
100
AcDb2dVertex
 10
173.2384511625568
 20
214.2038779752419
 30
0.0
 42
-0.3240049065116679
  0
VERTEX
  5
3F7C
330
3B05
100
AcDbEntity
  8
0
  6
BYBLOCK
 62
     0
100
AcDbVertex
100
AcDb2dVertex
 10
172.2066969991091
 20
215.6289203734016
 30
0.0
  0
VERTEX
  5
3F7D
330
3B05
100
AcDbEntity
  8
0
  6
BYBLOCK
 62
     0
100
AcDbVertex
100
AcDb2dVertex
 10
172.2066969991091
 20
222.215076497071
 30
0.0
 42
0.4142135623730951
  0
VERTEX
  5
3F7E
330
3B05
100
AcDbEntity
  8
0
  6
BYBLOCK
 62
     0
100
AcDbVertex
100
AcDb2dVertex
 10
170.7066969991091
 20
223.715076497071
 30
0.0
  0
VERTEX
  5
3F7F
330
3B05
100
AcDbEntity
  8
0
  6
BYBLOCK
 62
     0
100
AcDbVertex
100
AcDb2dVertex
 10
159.0566969991091
 20
223.715076497071
 30
0.0
 42
-0.4142135623730951
  0
VERTEX
  5
3F80
330
3B05
100
AcDbEntity
  8
0
  6
BYBLOCK
 62
     0
100
AcDbVertex
100
AcDb2dVertex
 10
157.5566969991091
 20
225.215076497071
 30
0.0
  0
VERTEX
  5
3F81
330
3B05
100
AcDbEntity
  8
0
  6
BYBLOCK
 62
     0
100
AcDbVertex
100
AcDb2dVertex
 10
157.5566969991091
 20
226.215076497071
 30
0.0
  0
VERTEX
  5
3F82
330
3B05
100
AcDbEntity
  8
0
  6
BYBLOCK
 62
     0
100
AcDbVertex
100
AcDb2dVertex
 10
162.0066969991091
 20
226.215076497071
 30
0.0
  0
VERTEX
  5
3F83
330
3B05
100
AcDbEntity
  8
0
  6
BYBLOCK
 62
     0
100
AcDbVertex
100
AcDb2dVertex
 10
162.0066969991091
 20
230.9149478650447
 30
0.0
 42
-0.5449436539032595
  0
SEQEND
  5
3F84
330
3B05
100
AcDbEntity
  8
0
  6
BYBLOCK
 62
     0
  0
ENDSEC
  0
SECTION
  2
OBJECTS
  0
DICTIONARY
  5
7
330
0
100
AcDbDictionary
  3
ACAD_GROUP
350
20
  3
ACAD_LAYOUT
350
B
  3
ACAD_MLINESTYLE
350
21
  3
ACAD_PLOTSETTINGS
350
22
1001
ACAD
1000
TREAT_AS_HARD
1070
     0
  0
DICTIONARY
  5
3F4E
330
2
100
AcDbDictionary
  3
ACAD_LAYOUTSELFREF
350
3F4F
  0
DICTIONARY
  5
3F50
330
C
100
AcDbDictionary
  3
ACAD_LAYOUTSELFREF
350
3F51
  0
DICTIONARY
  5
20
102
{ACAD_REACTORS
330
7
102
}
330
7
100
AcDbDictionary
1001
ACAD
1000
TREAT_AS_HARD
1070
     0
  0
DICTIONARY
  5
B
102
{ACAD_REACTORS
330
7
102
}
330
7
100
AcDbDictionary
1001
ACAD
1000
TREAT_AS_HARD
1070
     0
  0
DICTIONARY
  5
21
102
{ACAD_REACTORS
330
7
102
}
330
7
100
AcDbDictionary
  3
STANDARD
350
23
1001
ACAD
1000
TREAT_AS_HARD
1070
     0
  0
DICTIONARY
  5
22
102
{ACAD_REACTORS
330
7
102
}
330
7
100
AcDbDictionary
1001
ACAD
1000
TREAT_AS_HARD
1070
     0
  0
XRECORD
  5
3F4F
102
{ACAD_REACTORS
330
3F4E
102
}
330
3F4E
100
AcDbXrecord
340
2
  0
XRECORD
  5
3F51
102
{ACAD_REACTORS
330
3F50
102
}
330
3F50
100
AcDbXrecord
340
C
  0
MLINESTYLE
  5
23
102
{ACAD_REACTORS
330
21
102
}
330
21
100
AcDbMlineStyle
  2
STANDARD
 70
     0
  3

 62
   256
 51
90.0
 52
90.0
 71
     2
 49
0.5
 62
   256
  6
BYLAYER
 49
-0.5
 62
   256
  6
BYLAYER
  0
ENDSEC
  0
EOF
