  0
SECTION
  2
HEADER
  9
$ACADVER
  1
AC1009
  9
$INSBASE
 10
0.0
 20
0.0
 30
0.0
  9
$EXTMIN
 10
825.81115916582178
 20
628.69592427496775
 30
-0.0015258207003583
  9
$EXTMAX
 10
860.61035305332655
 20
632.45736802539022
 30
0.0000000349246037
  9
$LIMMIN
 10
0.0
 20
0.0
  9
$LIMMAX
 10
420.0
 20
297.0
  9
$ORTHOMODE
 70
     0
  9
$REGENMODE
 70
     1
  9
$FILLMODE
 70
     1
  9
$QTEXTMODE
 70
     0
  9
$MIRRTEXT
 70
     0
  9
$DRAGMODE
 70
     2
  9
$LTSCALE
 40
1.0
  9
$OSMODE
 70
  3071
  9
$ATTMODE
 70
     1
  9
$TEXTSIZE
 40
2.5
  9
$TRACEWID
 40
1.0
  9
$TEXTSTYLE
  7
STANDARD
  9
$CLAYER
  8
0
  9
$CELTYPE
  6
BYLAYER
  9
$CECOLOR
 62
   256
  9
$DIMSCALE
 40
1.0
  9
$DIMASZ
 40
2.5
  9
$DIMEXO
 40
0.625
  9
$DIMDLI
 40
3.75
  9
$DIMRND
 40
0.0
  9
$DIMDLE
 40
0.0
  9
$DIMEXE
 40
1.25
  9
$DIMTP
 40
0.0
  9
$DIMTM
 40
0.0
  9
$DIMTXT
 40
2.5
  9
$DIMCEN
 40
2.5
  9
$DIMTSZ
 40
0.0
  9
$DIMTOL
 70
     0
  9
$DIMLIM
 70
     0
  9
$DIMTIH
 70
     0
  9
$DIMTOH
 70
     0
  9
$DIMSE1
 70
     0
  9
$DIMSE2
 70
     0
  9
$DIMTAD
 70
     1
  9
$DIMZIN
 70
     8
  9
$DIMBLK
  1

  9
$DIMASO
 70
     1
  9
$DIMSHO
 70
     1
  9
$DIMPOST
  1

  9
$DIMAPOST
  1

  9
$DIMALT
 70
     0
  9
$DIMALTD
 70
     3
  9
$DIMALTF
 40
0.03937007874016
  9
$DIMLFAC
 40
1.0
  9
$DIMTOFL
 70
     1
  9
$DIMTVP
 40
0.0
  9
$DIMTIX
 70
     0
  9
$DIMSOXD
 70
     0
  9
$DIMSAH
 70
     0
  9
$DIMBLK1
  1

  9
$DIMBLK2
  1

  9
$DIMSTYLE
  2
ISO-25
  9
$DIMCLRD
 70
     0
  9
$DIMCLRE
 70
     0
  9
$DIMCLRT
 70
     0
  9
$DIMTFAC
 40
1.0
  9
$DIMGAP
 40
0.625
  9
$LUNITS
 70
     2
  9
$LUPREC
 70
     4
  9
$SKETCHINC
 40
1.0
  9
$FILLETRAD
 40
0.0
  9
$AUNITS
 70
     0
  9
$AUPREC
 70
     0
  9
$MENU
  1
.
  9
$ELEVATION
 40
0.0
  9
$PELEVATION
 40
0.0
  9
$THICKNESS
 40
0.0
  9
$LIMCHECK
 70
     0
  9
$BLIPMODE
 70
     0
  9
$CHAMFERA
 40
0.0
  9
$CHAMFERB
 40
0.0
  9
$SKPOLY
 70
     0
  9
$TDCREATE
 40
2454567.5780040738
  9
$TDUPDATE
 40
2454567.5781145021
  9
$TDINDWG
 40
0.0001106134
  9
$TDUSRTIMER
 40
0.0001106134
  9
$USRTIMER
 70
     1
  9
$ANGBASE
 50
0.0
  9
$ANGDIR
 70
     0
  9
$PDMODE
 70
     0
  9
$PDSIZE
 40
0.0
  9
$PLINEWID
 40
0.0
  9
$COORDS
 70
     2
  9
$SPLFRAME
 70
     0
  9
$SPLINETYPE
 70
     6
  9
$SPLINESEGS
 70
     8
  9
$ATTDIA
 70
     0
  9
$ATTREQ
 70
     1
  9
$HANDLING
 70
     1
  9
$HANDSEED
  5
F7
  9
$SURFTAB1
 70
     6
  9
$SURFTAB2
 70
     6
  9
$SURFTYPE
 70
     6
  9
$SURFU
 70
     6
  9
$SURFV
 70
     6
  9
$UCSNAME
  2

  9
$UCSORG
 10
0.0
 20
0.0
 30
0.0
  9
$UCSXDIR
 10
1.0
 20
0.0
 30
0.0
  9
$UCSYDIR
 10
0.0
 20
1.0
 30
0.0
  9
$PUCSNAME
  2

  9
$PUCSORG
 10
0.0
 20
0.0
 30
0.0
  9
$PUCSXDIR
 10
1.0
 20
0.0
 30
0.0
  9
$PUCSYDIR
 10
0.0
 20
1.0
 30
0.0
  9
$USERI1
 70
     0
  9
$USERI2
 70
     0
  9
$USERI3
 70
     0
  9
$USERI4
 70
     0
  9
$USERI5
 70
     0
  9
$USERR1
 40
0.0
  9
$USERR2
 40
0.0
  9
$USERR3
 40
0.0
  9
$USERR4
 40
0.0
  9
$USERR5
 40
0.0
  9
$WORLDVIEW
 70
     1
  9
$SHADEDGE
 70
     3
  9
$SHADEDIF
 70
    70
  9
$TILEMODE
 70
     1
  9
$MAXACTVP
 70
    64
  9
$PLIMCHECK
 70
     0
  9
$PEXTMIN
 10
0.0
 20
0.0
 30
0.0
  9
$PEXTMAX
 10
0.0
 20
0.0
 30
0.0
  9
$PLIMMIN
 10
0.0
 20
0.0
  9
$PLIMMAX
 10
12.0
 20
9.0
  9
$UNITMODE
 70
     0
  9
$VISRETAIN
 70
     1
  9
$PLINEGEN
 70
     0
  9
$PSLTSCALE
 70
     1
  0
ENDSEC
  0
SECTION
  2
TABLES
  0
TABLE
  2
VPORT
 70
     2
  0
VPORT
  2
*ACTIVE
 70
     0
 10
0.0
 20
0.0
 11
1.0
 21
1.0
 12
843.21075610957416
 22
630.57664615017904
 13
0.0
 23
0.0
 14
10.0
 24
10.0
 15
10.0
 25
10.0
 16
0.0
 26
0.0
 36
1.0
 17
0.0
 27
0.0
 37
0.0
 40
14.576626243571789
 41
2.399999999999999
 42
50.0
 43
0.0
 44
0.0
 50
0.0
 51
0.0
 71
     0
 72
  1000
 73
     1
 74
     3
 75
     0
 76
     0
 77
     0
 78
     0
  0
ENDTAB
  0
TABLE
  2
LTYPE
 70
     1
  0
LTYPE
  2
CONTINUOUS
 70
     0
  3
Solid line
 72
    65
 73
     0
 40
0.0
  0
ENDTAB
  0
TABLE
  2
LAYER
 70
     1
  0
LAYER
  2
0
 70
     0
 62
     7
  6
CONTINUOUS
  0
ENDTAB
  0
TABLE
  2
STYLE
 70
     2
  0
STYLE
  2
STANDARD
 70
     0
 40
0.0
 41
1.0
 50
0.0
 71
     0
 42
2.5
  3
txt
  4

  0
STYLE
  2
ROMANT
 70
     0
 40
2.5
 41
1.0
 50
15.0
 71
     0
 42
2.5
  3
romant.shx
  4

  0
ENDTAB
  0
TABLE
  2
VIEW
 70
     0
  0
ENDTAB
  0
TABLE
  2
UCS
 70
     0
  0
ENDTAB
  0
TABLE
  2
APPID
 70
     2
  0
APPID
  2
ACAD
 70
     0
  0
APPID
  2
ACAD_PSEXT
 70
     0
  0
ENDTAB
  0
TABLE
  2
DIMSTYLE
 70
     2
  0
DIMSTYLE
  2
ISO-25
 70
     0
  3

  4

  5

  6

  7

 40
1.0
 41
2.5
 42
0.625
 43
3.75
 44
1.25
 45
0.0
 46
0.0
 47
0.0
 48
0.0
140
2.5
141
2.5
142
0.0
143
0.03937007874016
144
1.0
145
0.0
146
1.0
147
0.625
 71
     0
 72
     0
 73
     0
 74
     0
 75
     0
 76
     0
 77
     1
 78
     8
170
     0
171
     3
172
     1
173
     0
174
     0
175
     0
176
     0
177
     0
178
     0
  0
DIMSTYLE
  2
ISO-25-2
 70
     0
  3

  4

  5

  6

  7

 40
0.8
 41
2.5
 42
0.625
 43
3.75
 44
0.5
 45
0.0
 46
0.0
 47
0.0
 48
0.0
140
2.5
141
0.2
142
0.0
143
0.03937007874016
144
0.25
145
0.0
146
1.0
147
0.2
 71
     0
 72
     0
 73
     0
 74
     0
 75
     0
 76
     0
 77
     1
 78
     8
170
     0
171
     3
172
     0
173
     0
174
     0
175
     0
176
   242
177
   242
178
   242
  0
ENDTAB
  0
ENDSEC
  0
SECTION
  2
BLOCKS
  0
BLOCK
  8
0
  2
$MODEL_SPACE
 70
     0
 10
0.0
 20
0.0
 30
0.0
  3
$MODEL_SPACE
  1

  0
ENDBLK
  5
21
  8
0
  0
BLOCK
 67
     1
  8
0
  2
$PAPER_SPACE
 70
     0
 10
0.0
 20
0.0
 30
0.0
  3
$PAPER_SPACE
  1

  0
ENDBLK
  5
53
 67
     1
  8
0
  0
BLOCK
  8
0
  2
*X2
 70
     1
 10
0.0
 20
0.0
 30
0.0
  3
*X2
  1

  0
LINE
  5
B8
  8
0
 62
     0
 10
33.205555348459427
 20
0.0000002173528628
 30
0.0
 11
34.000000546411911
 21
0.7944454153053471
 31
0.0
  0
LINE
  5
B9
  8
0
 62
     0
 10
32.307529736352478
 20
0.000000217352806
 30
0.0
 11
33.984606969064771
 21
1.677077450065098
 31
0.0
  0
LINE
  5
BA
  8
0
 62
     0
 10
31.40950412424559
 20
0.0000002173528628
 30
0.0
 11
33.726992894283057
 21
2.317488987390333
 31
0.0
  0
LINE
  5
BB
  8
0
 62
     0
 10
30.511478512138641
 20
0.0000002173528628
 30
0.0
 11
33.301417656540821
 21
2.789939361755045
 31
0.0
  0
LINE
  5
BC
  8
0
 62
     0
 10
29.613452900031799
 20
0.000000217352806
 30
0.0
 11
32.717764794412062
 21
3.1043121117330652
 31
0.0
  0
LINE
  5
BD
  8
0
 62
     0
 10
28.715427287924861
 20
0.0000002173528628
 30
0.0
 11
31.90268002466183
 21
3.1872529540898422
 31
0.0
  0
LINE
  5
BE
  8
0
 62
     0
 10
27.817401675817909
 20
0.0000002173528628
 30
0.0
 11
30.285819093526811
 21
2.468417635061769
 31
0.0
  0
LINE
  5
BF
  8
0
 62
     0
 10
26.91937606371102
 20
0.0000002173528628
 30
0.0
 11
29.624031414366421
 21
2.7046555680082629
 31
0.0
  0
LINE
  5
C0
  8
0
 62
     0
 10
26.021350451604121
 20
0.0000002173528628
 30
0.0
 11
29.07524753478322
 21
3.0538973005319572
 31
0.0
  0
LINE
  5
C1
  8
0
 62
     0
 10
25.123324839497229
 20
0.0000002173528628
 30
0.0
 11
28.32320436286966
 21
3.1998797407253501
 31
0.0
  0
LINE
  5
C2
  8
0
 62
     0
 10
24.225299227390281
 20
0.0000002173529197
 30
0.0
 11
26.737424881764071
 21
2.5121258717267092
 31
0.0
  0
LINE
  5
C3
  8
0
 62
     0
 10
23.327273615283389
 20
0.0000002173528628
 30
0.0
 11
25.949808263938621
 21
2.6225348660080949
 31
0.0
  0
LINE
  5
C4
  8
0
 62
     0
 10
22.4292480031765
 20
0.0000002173529197
 30
0.0
 11
25.4245925002839
 21
2.995344714460316
 31
0.0
  0
LINE
  5
C5
  8
0
 62
     0
 10
21.531222391069551
 20
0.0000002173528628
 30
0.0
 11
24.724653763439331
 21
3.193431589722592
 31
0.0
  0
LINE
  5
C6
  8
0
 62
     0
 10
20.63319677896266
 20
0.0000002173528628
 30
0.0
 11
23.516518453733401
 21
2.8833218921236599
 31
0.0
  0
LINE
  5
C7
  8
0
 62
     0
 10
19.735171166855761
 20
0.0000002173529197
 30
0.0
 11
22.28996625823606
 21
2.554795308733218
 31
0.0
  0
LINE
  5
C8
  8
0
 62
     0
 10
18.837145554748808
 20
0.0000002173529197
 30
0.0
 11
21.766442249027591
 21
2.9292969116316949
 31
0.0
  0
LINE
  5
C9
  8
0
 62
     0
 10
17.93911994264187
 20
0.0000002173528628
 30
0.0
 11
21.111542603617181
 21
3.1724228783281769
 31
0.0
  0
LINE
  5
CA
  8
0
 62
     0
 10
17.041094330534971
 20
0.0000002173528628
 30
0.0
 11
20.11906800629362
 21
3.0779738931115039
 31
0.0
  0
LINE
  5
CB
  8
0
 62
     0
 10
16.143068718428019
 20
0.0000002173528628
 30
0.0
 11
18.646447902765711
 21
2.5033794016905508
 31
0.0
  0
LINE
  5
CC
  8
0
 62
     0
 10
15.24504310632113
 20
0.0000002173528628
 30
0.0
 11
18.10125232267518
 21
2.8562094337069079
 31
0.0
  0
LINE
  5
CD
  8
0
 62
     0
 10
14.34701749421418
 20
0.0000002173528628
 30
0.0
 11
17.48658521878281
 21
3.1395679419214839
 31
0.0
  0
LINE
  5
CE
  8
0
 62
     0
 10
13.448991882107229
 20
0.000000217352806
 30
0.0
 11
16.605081034642978
 21
3.156089369888547
 31
0.0
  0
LINE
  5
CF
  8
0
 62
     0
 10
12.5509662700004
 20
0.0000002173529197
 30
0.0
 11
15.02332102289142
 21
2.4723549702439409
 31
0.0
  0
LINE
  5
D0
  8
0
 62
     0
 10
11.652940657893449
 20
0.0000002173528628
 30
0.0
 11
14.429335099036621
 21
2.77639465849603
 31
0.0
  0
LINE
  5
D1
  8
0
 62
     0
 10
10.7549150457865
 20
0.000000217352806
 30
0.0
 11
13.851548777183661
 21
3.0966339487499681
 31
0.0
  0
LINE
  5
D2
  8
0
 62
     0
 10
9.856889433679612
 20
0.0000002173528628
 30
0.0
 11
13.047802834479739
 21
3.1909136181529898
 31
0.0
  0
LINE
  5
D3
  8
0
 62
     0
 10
8.9588638215726633
 20
0.000000217352806
 30
0.0
 11
11.42981172409543
 21
2.4709481198755721
 31
0.0
  0
LINE
  5
D4
  8
0
 62
     0
 10
8.0608382094657713
 20
0.000000217352806
 30
0.0
 11
10.75108319513464
 21
2.690245203021675
 31
0.0
  0
LINE
  5
D5
  8
0
 62
     0
 10
7.1628125973588794
 20
0.0000002173528628
 30
0.0
 11
10.20764280255713
 21
3.0448304225511151
 31
0.0
  0
LINE
  5
D6
  8
0
 62
     0
 10
6.2647869852519298
 20
0.0000002173528628
 30
0.0
 11
9.4647648837867564
 21
3.1999781158876308
 31
0.0
  0
LINE
  5
D7
  8
0
 62
     0
 10
5.3667613731450947
 20
0.0000002173528628
 30
0.0
 11
7.8961053403997994
 21
2.5293441846075662
 31
0.0
  0
LINE
  5
D8
  8
0
 62
     0
 10
4.468735761038146
 20
0.0000002173528628
 30
0.0
 11
7.0791376828519779
 21
2.6104021391666938
 31
0.0
  0
LINE
  5
D9
  8
0
 62
     0
 10
3.570710148931254
 20
0.0000002173528628
 30
0.0
 11
6.5557198507202648
 21
2.9850099191418731
 31
0.0
  0
LINE
  5
DA
  8
0
 62
     0
 10
2.6726845368243062
 20
0.0000002173528628
 30
0.0
 11
5.8635800823350328
 21
3.1908957628635899
 31
0.0
  0
LINE
  5
DB
  8
0
 62
     0
 10
1.774658924717414
 20
0.0000002173528628
 30
0.0
 11
4.709266406744006
 21
2.934607699379455
 31
0.0
  0
LINE
  5
DC
  8
0
 62
     0
 10
0.8766333126105224
 20
0.0000002173529197
 30
0.0
 11
3.4218004062873879
 21
2.5451673110297861
 31
0.0
  0
LINE
  5
DD
  8
0
 62
     0
 10
0.0000005464119681
 20
0.0213930632613142
 30
0.0
 11
2.8963877981946089
 21
2.917780315043955
 31
0.0
  0
LINE
  5
DE
  8
0
 62
     0
 10
0.000000546412025
 20
0.919418675368206
 30
0.0
 11
2.2483715885763891
 21
3.1677897175325711
 31
0.0
  0
LINE
  5
DF
  8
0
 62
     0
 10
0.1047710161236068
 20
1.9222147571867361
 30
0.0
 11
1.277786006578139
 21
3.0952297476412691
 31
0.0
  0
ENDBLK
  5
E1
  8
0
  0
ENDSEC
  0
SECTION
  2
ENTITIES
  0
POLYLINE
  5
92
  8
0
 62
     0
 66
     1
 10
0.0
 20
0.0
 30
0.0
 70
     1
  0
VERTEX
  5
E2
  8
0
 62
     0
 10
829.45197705298131
 20
631.41432226281438
 30
0.0
 42
0.6520388543655092
  0
VERTEX
  5
E3
  8
0
 62
     0
 10
826.27022348155265
 20
630.01178606644351
 30
0.0
  0
VERTEX
  5
E4
  8
0
 62
     0
 10
826.27022348155265
 20
628.71178606644355
 30
0.0
  0
VERTEX
  5
E5
  8
0
 62
     0
 10
860.27022348155265
 20
628.71178606644355
 30
0.0
  0
VERTEX
  5
E6
  8
0
 62
     0
 10
860.27022348155265
 20
630.30267821140274
 30
0.0
 42
0.5985881991171405
  0
VERTEX
  5
E7
  8
0
 62
     0
 10
857.11086991012394
 20
631.41432226281438
 30
0.0
 42
-0.3881118919565898
  0
VERTEX
  5
E8
  8
0
 62
     0
 10
855.89657705298112
 20
631.41432226281438
 30
0.0
 42
0.388111891956588
  0
VERTEX
  5
E9
  8
0
 62
     0
 10
853.33306991012375
 20
631.41432226281438
 30
0.0
 42
-0.3881118919565898
  0
VERTEX
  5
EA
  8
0
 62
     0
 10
852.11877705298105
 20
631.41432226281438
 30
0.0
 42
0.388111891956588
  0
VERTEX
  5
EB
  8
0
 62
     0
 10
849.55526991012403
 20
631.41432226281438
 30
0.0
 42
-0.3881118919565898
  0
VERTEX
  5
EC
  8
0
 62
     0
 10
848.3409770529812
 20
631.41432226281438
 30
0.0
 42
0.3881118919565878
  0
VERTEX
  5
ED
  8
0
 62
     0
 10
845.77746991012395
 20
631.41432226281438
 30
0.0
 42
-0.3881118919565898
  0
VERTEX
  5
EE
  8
0
 62
     0
 10
844.56317705298125
 20
631.41432226281438
 30
0.0
 42
0.3881118919565878
  0
VERTEX
  5
EF
  8
0
 62
     0
 10
841.99966991012423
 20
631.41432226281438
 30
0.0
 42
-0.3881118919565898
  0
VERTEX
  5
F0
  8
0
 62
     0
 10
840.78537705298129
 20
631.41432226281438
 30
0.0
 42
0.3881118919565878
  0
VERTEX
  5
F1
  8
0
 62
     0
 10
838.22186991012404
 20
631.41432226281438
 30
0.0
 42
-0.3881118919565898
  0
VERTEX
  5
F2
  8
0
 62
     0
 10
837.00757705298145
 20
631.41432226281438
 30
0.0
 42
0.3881118919565878
  0
VERTEX
  5
F3
  8
0
 62
     0
 10
834.44406991012409
 20
631.41432226281438
 30
0.0
 42
-0.3881118919565898
  0
VERTEX
  5
F4
  8
0
 62
     0
 10
833.22977705298138
 20
631.41432226281438
 30
0.0
 42
0.3881118919565878
  0
VERTEX
  5
F5
  8
0
 62
     0
 10
830.66626991012413
 20
631.41432226281438
 30
0.0
 42
-0.3881118919565897
  0
SEQEND
  5
F6
  8
0
 62
     0
  0
ENDSEC
  0
EOF
