  0
SECTION
  2
HEADER
  9
$ACADVER
  1
AC1009
  9
$INSBASE
 10
0.0
 20
0.0
 30
0.0
  9
$EXTMIN
 10
602.82074142575811
 20
701.61355741649572
 30
-0.0015258207003583
  9
$EXTMAX
 10
630.53833130111275
 20
733.08732724898414
 30
0.0000000349246037
  9
$LIMMIN
 10
0.0
 20
0.0
  9
$LIMMAX
 10
420.0
 20
297.0
  9
$ORTHOMODE
 70
     0
  9
$REGENMODE
 70
     1
  9
$FILLMODE
 70
     1
  9
$QTEXTMODE
 70
     0
  9
$MIRRTEXT
 70
     0
  9
$DRAGMODE
 70
     2
  9
$LTSCALE
 40
1.0
  9
$OSMODE
 70
  3071
  9
$ATTMODE
 70
     1
  9
$TEXTSIZE
 40
2.5
  9
$TRACEWID
 40
1.0
  9
$TEXTSTYLE
  7
STANDARD
  9
$CLAYER
  8
0
  9
$CELTYPE
  6
BYLAYER
  9
$CECOLOR
 62
   256
  9
$DIMSCALE
 40
1.0
  9
$DIMASZ
 40
2.5
  9
$DIMEXO
 40
0.625
  9
$DIMDLI
 40
3.75
  9
$DIMRND
 40
0.0
  9
$DIMDLE
 40
0.0
  9
$DIMEXE
 40
1.25
  9
$DIMTP
 40
0.0
  9
$DIMTM
 40
0.0
  9
$DIMTXT
 40
2.5
  9
$DIMCEN
 40
2.5
  9
$DIMTSZ
 40
0.0
  9
$DIMTOL
 70
     0
  9
$DIMLIM
 70
     0
  9
$DIMTIH
 70
     0
  9
$DIMTOH
 70
     0
  9
$DIMSE1
 70
     0
  9
$DIMSE2
 70
     0
  9
$DIMTAD
 70
     1
  9
$DIMZIN
 70
     8
  9
$DIMBLK
  1

  9
$DIMASO
 70
     1
  9
$DIMSHO
 70
     1
  9
$DIMPOST
  1

  9
$DIMAPOST
  1

  9
$DIMALT
 70
     0
  9
$DIMALTD
 70
     3
  9
$DIMALTF
 40
0.03937007874016
  9
$DIMLFAC
 40
1.0
  9
$DIMTOFL
 70
     1
  9
$DIMTVP
 40
0.0
  9
$DIMTIX
 70
     0
  9
$DIMSOXD
 70
     0
  9
$DIMSAH
 70
     0
  9
$DIMBLK1
  1

  9
$DIMBLK2
  1

  9
$DIMSTYLE
  2
ISO-25
  9
$DIMCLRD
 70
     0
  9
$DIMCLRE
 70
     0
  9
$DIMCLRT
 70
     0
  9
$DIMTFAC
 40
1.0
  9
$DIMGAP
 40
0.625
  9
$LUNITS
 70
     2
  9
$LUPREC
 70
     4
  9
$SKETCHINC
 40
1.0
  9
$FILLETRAD
 40
0.0
  9
$AUNITS
 70
     0
  9
$AUPREC
 70
     0
  9
$MENU
  1
.
  9
$ELEVATION
 40
0.0
  9
$PELEVATION
 40
0.0
  9
$THICKNESS
 40
0.0
  9
$LIMCHECK
 70
     0
  9
$BLIPMODE
 70
     0
  9
$CHAMFERA
 40
0.0
  9
$CHAMFERB
 40
0.0
  9
$SKPOLY
 70
     0
  9
$TDCREATE
 40
2454648.4029801162
  9
$TDUPDATE
 40
2454648.403098993
  9
$TDINDWG
 40
0.0001190625
  9
$TDUSRTIMER
 40
0.0001190625
  9
$USRTIMER
 70
     1
  9
$ANGBASE
 50
0.0
  9
$ANGDIR
 70
     0
  9
$PDMODE
 70
     0
  9
$PDSIZE
 40
0.0
  9
$PLINEWID
 40
0.0
  9
$COORDS
 70
     2
  9
$SPLFRAME
 70
     0
  9
$SPLINETYPE
 70
     6
  9
$SPLINESEGS
 70
     8
  9
$ATTDIA
 70
     0
  9
$ATTREQ
 70
     1
  9
$HANDLING
 70
     1
  9
$HANDSEED
  5
FE
  9
$SURFTAB1
 70
     6
  9
$SURFTAB2
 70
     6
  9
$SURFTYPE
 70
     6
  9
$SURFU
 70
     6
  9
$SURFV
 70
     6
  9
$UCSNAME
  2

  9
$UCSORG
 10
0.0
 20
0.0
 30
0.0
  9
$UCSXDIR
 10
1.0
 20
0.0
 30
0.0
  9
$UCSYDIR
 10
0.0
 20
1.0
 30
0.0
  9
$PUCSNAME
  2

  9
$PUCSORG
 10
0.0
 20
0.0
 30
0.0
  9
$PUCSXDIR
 10
1.0
 20
0.0
 30
0.0
  9
$PUCSYDIR
 10
0.0
 20
1.0
 30
0.0
  9
$USERI1
 70
     0
  9
$USERI2
 70
     0
  9
$USERI3
 70
     0
  9
$USERI4
 70
     0
  9
$USERI5
 70
     0
  9
$USERR1
 40
0.0
  9
$USERR2
 40
0.0
  9
$USERR3
 40
0.0
  9
$USERR4
 40
0.0
  9
$USERR5
 40
0.0
  9
$WORLDVIEW
 70
     1
  9
$SHADEDGE
 70
     3
  9
$SHADEDIF
 70
    70
  9
$TILEMODE
 70
     1
  9
$MAXACTVP
 70
    64
  9
$PLIMCHECK
 70
     0
  9
$PEXTMIN
 10
0.0
 20
0.0
 30
0.0
  9
$PEXTMAX
 10
0.0
 20
0.0
 30
0.0
  9
$PLIMMIN
 10
0.0
 20
0.0
  9
$PLIMMAX
 10
12.0
 20
9.0
  9
$UNITMODE
 70
     0
  9
$VISRETAIN
 70
     1
  9
$PLINEGEN
 70
     0
  9
$PSLTSCALE
 70
     1
  0
ENDSEC
  0
SECTION
  2
TABLES
  0
TABLE
  2
VPORT
 70
     2
  0
VPORT
  2
*ACTIVE
 70
     0
 10
0.0
 20
0.0
 11
1.0
 21
1.0
 12
616.67953636343555
 22
717.35044233273993
 13
0.0
 23
0.0
 14
10.0
 24
10.0
 15
10.0
 25
10.0
 16
0.0
 26
0.0
 36
1.0
 17
0.0
 27
0.0
 37
0.0
 40
31.814026803650449
 41
2.036101083032491
 42
50.0
 43
0.0
 44
0.0
 50
0.0
 51
0.0
 71
     0
 72
  1000
 73
     1
 74
     3
 75
     0
 76
     0
 77
     0
 78
     0
  0
ENDTAB
  0
TABLE
  2
LTYPE
 70
     1
  0
LTYPE
  2
CONTINUOUS
 70
     0
  3
Solid line
 72
    65
 73
     0
 40
0.0
  0
ENDTAB
  0
TABLE
  2
LAYER
 70
     2
  0
LAYER
  2
0
 70
     0
 62
     7
  6
CONTINUOUS
  0
LAYER
  2
OLÇÜ
 70
     0
 62
     5
  6
CONTINUOUS
  0
ENDTAB
  0
TABLE
  2
STYLE
 70
     4
  0
STYLE
  2
STANDARD
 70
     0
 40
0.0
 41
1.0
 50
0.0
 71
     0
 42
2.5
  3
txt
  4

  0
STYLE
  2
EBRU
 70
     0
 40
0.0
 41
1.0
 50
0.0
 71
     0
 42
200.0
  3
txt
  4

  0
STYLE
  2
2_YUK_3
 70
     0
 40
3.0
 41
1.0
 50
0.0
 71
     0
 42
3.0
  3
txt
  4

  0
STYLE
  2
ROMANT
 70
     0
 40
2.5
 41
1.0
 50
15.0
 71
     0
 42
2.5
  3
romant.shx
  4

  0
ENDTAB
  0
TABLE
  2
VIEW
 70
     0
  0
ENDTAB
  0
TABLE
  2
UCS
 70
     0
  0
ENDTAB
  0
TABLE
  2
APPID
 70
     1
  0
APPID
  2
ACAD
 70
     0
  0
ENDTAB
  0
TABLE
  2
DIMSTYLE
 70
     7
  0
DIMSTYLE
  2
ISO-25
 70
     0
  3

  4

  5

  6

  7

 40
1.0
 41
2.5
 42
0.625
 43
3.75
 44
1.25
 45
0.0
 46
0.0
 47
0.0
 48
0.0
140
2.5
141
2.5
142
0.0
143
0.03937007874016
144
1.0
145
0.0
146
1.0
147
0.625
 71
     0
 72
     0
 73
     0
 74
     0
 75
     0
 76
     0
 77
     1
 78
     8
170
     0
171
     3
172
     1
173
     0
174
     0
175
     0
176
     0
177
     0
178
     0
  0
DIMSTYLE
  2
OLCEK_0_2_AYARLAR
 70
     0
  3

  4
"
  5

  6

  7

 40
1.0
 41
2.5
 42
2.0
 43
10.0
 44
1.0
 45
0.0
 46
0.0
 47
0.1
 48
0.1
140
3.0
141
0.0
142
0.0
143
0.0393701
144
0.2
145
0.0
146
0.71
147
1.5
 71
     0
 72
     0
 73
     0
 74
     1
 75
     0
 76
     0
 77
     1
 78
     8
170
     0
171
     2
172
     1
173
     0
174
     0
175
     0
176
     3
177
     3
178
     7
  0
DIMSTYLE
  2
ISO-25-2
 70
     0
  3

  4

  5

  6

  7

 40
0.8
 41
2.5
 42
0.625
 43
3.75
 44
0.5
 45
0.0
 46
0.0
 47
0.0
 48
0.0
140
2.5
141
0.2
142
0.0
143
0.03937007874016
144
0.33333333333333
145
0.0
146
1.0
147
0.2
 71
     0
 72
     0
 73
     0
 74
     0
 75
     0
 76
     0
 77
     1
 78
     8
170
     0
171
     3
172
     0
173
     0
174
     0
175
     0
176
   242
177
   242
178
   242
  0
DIMSTYLE
  2
ISO-25_1_E_4
 70
     0
  3

  4

  5

  6

  7

 40
1.0
 41
2.5
 42
0.0
 43
3.75
 44
0.3
 45
0.0
 46
0.0
 47
0.0
 48
0.0
140
1.0
141
0.2
142
0.0
143
0.03937007874016
144
0.25
145
0.0
146
1.0
147
0.3
 71
     0
 72
     0
 73
     0
 74
     0
 75
     0
 76
     0
 77
     1
 78
     8
170
     0
171
     3
172
     0
173
     0
174
     0
175
     0
176
   242
177
   242
178
   256
  0
DIMSTYLE
  2
ISO-25_1_E_2
 70
     0
  3

  4

  5

  6

  7

 40
1.0
 41
2.5
 42
0.0
 43
3.75
 44
0.3
 45
0.0
 46
0.0
 47
0.0
 48
0.0
140
1.0
141
0.2
142
0.0
143
0.03937007874016
144
0.5
145
0.0
146
1.0
147
0.3
 71
     0
 72
     0
 73
     0
 74
     0
 75
     0
 76
     0
 77
     1
 78
     8
170
     0
171
     3
172
     0
173
     0
174
     0
175
     0
176
   242
177
   242
178
   256
  0
DIMSTYLE
  2
ISO-25_1_E_3
 70
     0
  3

  4

  5

  6

  7

 40
1.0
 41
2.5
 42
0.0
 43
3.75
 44
0.3
 45
0.0
 46
0.0
 47
0.0
 48
0.0
140
1.0
141
0.2
142
0.0
143
0.03937007874016
144
0.333333333333333
145
0.0
146
1.0
147
0.5
 71
     0
 72
     0
 73
     0
 74
     0
 75
     0
 76
     0
 77
     1
 78
     8
170
     0
171
     3
172
     0
173
     0
174
     0
175
     0
176
   242
177
   242
178
   256
  0
DIMSTYLE
  2
ISO-25_1_E_1
 70
     0
  3

  4

  5

  6

  7

 40
1.0
 41
2.5
 42
0.0
 43
3.75
 44
0.5
 45
0.0
 46
0.0
 47
0.0
 48
0.0
140
1.0
141
0.2
142
0.0
143
0.03937007874016
144
1.0
145
0.0
146
1.0
147
0.4
 71
     0
 72
     0
 73
     0
 74
     0
 75
     0
 76
     0
 77
     1
 78
     8
170
     0
171
     3
172
     0
173
     0
174
     0
175
     0
176
   242
177
   242
178
   242
  0
ENDTAB
  0
ENDSEC
  0
SECTION
  2
BLOCKS
  0
BLOCK
  8
0
  2
$MODEL_SPACE
 70
     0
 10
0.0
 20
0.0
 30
0.0
  3
$MODEL_SPACE
  1

  0
ENDBLK
  5
21
  8
0
  0
BLOCK
 67
     1
  8
0
  2
$PAPER_SPACE
 70
     0
 10
0.0
 20
0.0
 30
0.0
  3
$PAPER_SPACE
  1

  0
ENDBLK
  5
53
 67
     1
  8
0
  0
BLOCK
  8
0
  2
*X2
 70
     1
 10
0.0
 20
0.0
 30
0.0
  3
*X2
  1

  0
LINE
  5
B4
  8
0
 62
     0
 10
3.1043216737234611
 20
0.3325253714742189
 30
0.0
 11
3.6674744664165351
 21
0.8956781641672932
 31
0.0
  0
LINE
  5
B5
  8
0
 62
     0
 10
1.8908914824709759
 20
0.0029786567049541
 30
0.0
 11
3.9999995409486351
 21
2.1120867151826128
 31
0.0
  0
LINE
  5
B6
  8
0
 62
     0
 10
1.179902311318471
 20
0.1758729620356121
 30
0.0
 11
3.9999995409486919
 21
2.9959701916657759
 31
0.0
  0
LINE
  5
B7
  8
0
 62
     0
 10
0.6471357736259052
 20
0.5269899008262087
 30
0.0
 11
3.9999995409486351
 21
3.8798536681489391
 31
0.0
  0
LINE
  5
B8
  8
0
 62
     0
 10
0.2564496173137059
 20
1.0201872209971721
 30
0.0
 11
3.9999995409486351
 21
4.7637371446321586
 31
0.0
  0
LINE
  5
B9
  8
0
 62
     0
 10
25.352379216775439
 20
27.000000296942119
 30
0.0
 11
25.941572471901448
 21
27.589193552068082
 31
0.0
  0
LINE
  5
BA
  8
0
 62
     0
 10
0.0266952219205337
 20
1.674316302087163
 30
0.0
 11
3.9999995409486919
 21
5.6476206211153794
 31
0.0
  0
LINE
  5
BB
  8
0
 62
     0
 10
24.468495740292209
 20
27.000000296942119
 30
0.0
 11
25.72444354256783
 21
28.255948099217729
 31
0.0
  0
LINE
  5
BC
  8
0
 62
     0
 10
-0.000000459051364
 20
2.5315040975985421
 30
0.0
 11
3.9999995409486351
 21
6.5315040975985417
 31
0.0
  0
LINE
  5
BD
  8
0
 62
     0
 10
23.584612263809049
 20
27.000000296942058
 30
0.0
 11
25.393390620106121
 21
28.808778653239191
 31
0.0
  0
LINE
  5
BE
  8
0
 62
     0
 10
-0.000000459051364
 20
3.4153875740816479
 30
0.0
 11
3.9999995409486351
 21
7.4153875740817048
 31
0.0
  0
LINE
  5
BF
  8
0
 62
     0
 10
22.70072878732589
 20
27.000000296942119
 30
0.0
 11
24.966400376966881
 21
29.26567188658311
 31
0.0
  0
LINE
  5
C0
  8
0
 62
     0
 10
-0.0000004590512503
 20
4.2992710505649248
 30
0.0
 11
3.9999995409486919
 21
8.2992710505649256
 31
0.0
  0
LINE
  5
C1
  8
0
 62
     0
 10
21.816845310842659
 20
27.000000296942119
 30
0.0
 11
24.445586267354031
 21
29.62874125345343
 31
0.0
  0
LINE
  5
C2
  8
0
 62
     0
 10
-0.000000459051364
 20
5.1831545270480879
 30
0.0
 11
3.9999995409486351
 21
9.1831545270480888
 31
0.0
  0
LINE
  5
C3
  8
0
 62
     0
 10
20.932961834359499
 20
27.000000296942058
 30
0.0
 11
23.819002962792641
 21
29.88604142537525
 31
0.0
  0
LINE
  5
C4
  8
0
 62
     0
 10
-0.000000459051364
 20
6.067038003531195
 30
0.0
 11
3.9999995409486351
 21
10.06703800353125
 31
0.0
  0
LINE
  5
C5
  8
0
 62
     0
 10
20.04907835787634
 20
27.000000296942119
 30
0.0
 11
23.04868331358
 21
29.999605252645779
 31
0.0
  0
LINE
  5
C6
  8
0
 62
     0
 10
-0.0000004590512503
 20
6.950921480014471
 30
0.0
 11
3.9999995409486919
 21
10.95092148001447
 31
0.0
  0
LINE
  5
C7
  8
0
 62
     0
 10
19.16519488139312
 20
27.000000296942119
 30
0.0
 11
22.16519488139318
 21
30.000000296942119
 31
0.0
  0
LINE
  5
C8
  8
0
 62
     0
 10
-0.000000459051364
 20
7.8348049564976341
 30
0.0
 11
3.9999995409486919
 21
11.83480495649763
 31
0.0
  0
LINE
  5
C9
  8
0
 62
     0
 10
18.28131140490995
 20
27.000000296942058
 30
0.0
 11
21.2813114049099
 21
30.000000296942009
 31
0.0
  0
LINE
  5
CA
  8
0
 62
     0
 10
-0.000000459051364
 20
8.7186884329807413
 30
0.0
 11
3.9999995409486351
 21
12.7186884329808
 31
0.0
  0
LINE
  5
CB
  8
0
 62
     0
 10
17.39742792842679
 20
27.000000296942119
 30
0.0
 11
20.39742792842679
 21
30.000000296942119
 31
0.0
  0
LINE
  5
CC
  8
0
 62
     0
 10
-0.000000459051364
 20
9.6025719094639612
 30
0.0
 11
3.9999995409486919
 21
13.60257190946402
 31
0.0
  0
LINE
  5
CD
  8
0
 62
     0
 10
16.51354445194357
 20
27.000000296942119
 30
0.0
 11
19.51354445194352
 21
30.000000296942058
 31
0.0
  0
LINE
  5
CE
  8
0
 62
     0
 10
-0.000000459051364
 20
10.486455385947179
 30
0.0
 11
3.9999995409486919
 21
14.486455385947179
 31
0.0
  0
LINE
  5
CF
  8
0
 62
     0
 10
15.629660975460411
 20
27.000000296942058
 30
0.0
 11
18.629660975460411
 21
30.000000296942119
 31
0.0
  0
LINE
  5
D0
  8
0
 62
     0
 10
-0.000000459051364
 20
11.370338862430341
 30
0.0
 11
3.6816781284030071
 21
15.05201744988471
 31
0.0
  0
LINE
  5
D1
  8
0
 62
     0
 10
14.745777498977191
 20
27.000000296942119
 30
0.0
 11
17.74577749897713
 21
30.000000296942058
 31
0.0
  0
LINE
  5
D2
  8
0
 62
     0
 10
-0.0000004590514209
 20
12.2542223389135
 30
0.0
 11
3.177300431836044
 21
15.431523229800909
 31
0.0
  0
LINE
  5
D3
  8
0
 62
     0
 10
13.861894022494029
 20
27.000000296942119
 30
0.0
 11
16.861894022493971
 21
30.000000296942058
 31
0.0
  0
LINE
  5
D4
  8
0
 62
     0
 10
-0.000000459051364
 20
13.138105815396729
 30
0.0
 11
2.9999995409486919
 21
16.138105815396731
 31
0.0
  0
LINE
  5
D5
  8
0
 62
     0
 10
12.9780105460108
 20
27.000000296942119
 30
0.0
 11
15.978010546010751
 21
30.000000296942058
 31
0.0
  0
LINE
  5
D6
  8
0
 62
     0
 10
-0.000000459051364
 20
14.021989291879949
 30
0.0
 11
2.9999995409486351
 21
17.021989291879951
 31
0.0
  0
LINE
  5
D7
  8
0
 62
     0
 10
12.094127069527641
 20
27.000000296942119
 30
0.0
 11
15.09412706952758
 21
30.000000296942058
 31
0.0
  0
LINE
  5
D8
  8
0
 62
     0
 10
-0.0000004590514209
 20
14.90587276836305
 30
0.0
 11
2.9999995409486351
 21
17.90587276836311
 31
0.0
  0
LINE
  5
D9
  8
0
 62
     0
 10
11.210243593044479
 20
27.000000296942119
 30
0.0
 11
14.210243593044421
 21
30.000000296942058
 31
0.0
  0
LINE
  5
DA
  8
0
 62
     0
 10
-0.000000459051364
 20
15.78975624484627
 30
0.0
 11
2.9999995409486919
 21
18.78975624484627
 31
0.0
  0
LINE
  5
DB
  8
0
 62
     0
 10
10.32636011656126
 20
27.000000296942119
 30
0.0
 11
13.326360116561149
 21
30.000000296942009
 31
0.0
  0
LINE
  5
DC
  8
0
 62
     0
 10
-0.000000459051364
 20
16.67363972132949
 30
0.0
 11
2.9999995409486351
 21
19.67363972132949
 31
0.0
  0
LINE
  5
DD
  8
0
 62
     0
 10
9.4424766400780982
 20
27.000000296942058
 30
0.0
 11
12.442476640077929
 21
30.000000296941948
 31
0.0
  0
LINE
  5
DE
  8
0
 62
     0
 10
-0.000000459051364
 20
17.5575231978126
 30
0.0
 11
2.9999995409486351
 21
20.55752319781266
 31
0.0
  0
LINE
  5
DF
  8
0
 62
     0
 10
8.558593163594935
 20
27.000000296942119
 30
0.0
 11
11.55859316359482
 21
30.000000296941948
 31
0.0
  0
LINE
  5
E0
  8
0
 62
     0
 10
-0.0000004590512503
 20
18.44140667429588
 30
0.0
 11
2.9999995409485791
 21
21.441406674295759
 31
0.0
  0
LINE
  5
E1
  8
0
 62
     0
 10
7.6747096871117151
 20
27.000000296942119
 30
0.0
 11
10.6747096871116
 21
30.000000296942009
 31
0.0
  0
LINE
  5
E2
  8
0
 62
     0
 10
-0.000000459051364
 20
19.32529015077904
 30
0.0
 11
2.9999995409486351
 21
22.32529015077904
 31
0.0
  0
LINE
  5
E3
  8
0
 62
     0
 10
6.7908262106285511
 20
27.000000296942058
 30
0.0
 11
9.7908262106283814
 21
30.000000296941948
 31
0.0
  0
LINE
  5
E4
  8
0
 62
     0
 10
-0.000000459051364
 20
20.20917362726215
 30
0.0
 11
2.9999995409486351
 21
23.209173627262199
 31
0.0
  0
LINE
  5
E5
  8
0
 62
     0
 10
5.906942734145388
 20
27.000000296942119
 30
0.0
 11
8.9069427341452752
 21
30.000000296941948
 31
0.0
  0
LINE
  5
E6
  8
0
 62
     0
 10
-0.000000459051364
 20
21.093057103745359
 30
0.0
 11
2.9999995409485791
 21
24.093057103745309
 31
0.0
  0
LINE
  5
E7
  8
0
 62
     0
 10
5.023059257662168
 20
27.000000296942119
 30
0.0
 11
8.0230592576620552
 21
30.000000296942009
 31
0.0
  0
LINE
  5
E8
  8
0
 62
     0
 10
-0.000000459051364
 20
21.97694058022859
 30
0.0
 11
2.9999995409486351
 21
24.97694058022859
 31
0.0
  0
LINE
  5
E9
  8
0
 62
     0
 10
-0.000000459051364
 20
22.860824056711689
 30
0.0
 11
7.1391757811788352
 21
30.000000296941948
 31
0.0
  0
LINE
  5
EA
  8
0
 62
     0
 10
-0.000000459051364
 20
23.744707533194909
 30
0.0
 11
6.2552923046956721
 21
30.000000296941948
 31
0.0
  0
LINE
  5
EB
  8
0
 62
     0
 10
-0.000000459051364
 20
24.628591009678139
 30
0.0
 11
5.3714088282125081
 21
30.000000296942009
 31
0.0
  0
LINE
  5
EC
  8
0
 62
     0
 10
0.0294550877509323
 20
25.541930032963592
 30
0.0
 11
4.4580698049270486
 21
29.970544750139709
 31
0.0
  0
LINE
  5
ED
  8
0
 62
     0
 10
0.2946206042287827
 20
26.690979025924658
 30
0.0
 11
3.3090208119659792
 21
29.705379233661859
 31
0.0
  0
ENDBLK
  5
EF
  8
0
  0
ENDSEC
  0
SECTION
  2
ENTITIES
  0
POLYLINE
  5
95
  8
OLÇÜ
 62
     0
 66
     1
 10
0.0
 20
0.0
 30
0.0
 70
     1
  0
VERTEX
  5
F0
  8
OLÇÜ
 62
     0
 10
607.88826991191695
 20
717.04658778911426
 30
0.0
  0
VERTEX
  5
F1
  8
OLÇÜ
 62
     0
 10
607.88826991191695
 20
717.04658778911426
 30
0.0
  0
VERTEX
  5
F2
  8
OLÇÜ
 62
     0
 10
607.88826991191695
 20
704.04658778911426
 30
0.0
 42
-0.4142135623730951
  0
VERTEX
  5
F3
  8
OLÇÜ
 62
     0
 10
605.88826991191695
 20
702.04658778911426
 30
0.0
 42
-0.4142135623730951
  0
VERTEX
  5
F4
  8
OLÇÜ
 62
     0
 10
603.88826991191695
 20
704.04658778911426
 30
0.0
  0
VERTEX
  5
F5
  8
OLÇÜ
 62
     0
 10
603.88826991191695
 20
727.04658778911414
 30
0.0
 42
-0.4142135623730951
  0
VERTEX
  5
F6
  8
OLÇÜ
 62
     0
 10
608.88826991191695
 20
732.04658778911414
 30
0.0
  0
VERTEX
  5
F7
  8
OLÇÜ
 62
     0
 10
626.88826991191695
 20
732.04658778911426
 30
0.0
 42
-0.4142135623730951
  0
VERTEX
  5
F8
  8
OLÇÜ
 62
     0
 10
629.88826991191695
 20
729.04658778911426
 30
0.0
  0
VERTEX
  5
F9
  8
OLÇÜ
 62
     0
 10
629.88826991191695
 20
729.04658778911426
 30
0.0
  0
VERTEX
  5
FA
  8
OLÇÜ
 62
     0
 10
608.88826991191695
 20
729.04658778911426
 30
0.0
 42
0.4142135623730951
  0
VERTEX
  5
FB
  8
OLÇÜ
 62
     0
 10
606.88826991191695
 20
727.04658778911426
 30
0.0
  0
VERTEX
  5
FC
  8
OLÇÜ
 62
     0
 10
606.88826991191695
 20
718.04658778911426
 30
0.0
 42
0.4142135623730951
  0
SEQEND
  5
FD
  8
OLÇÜ
 62
     0
  0
ENDSEC
  0
EOF
