  0
SECTION
  2
HEADER
  9
$ACADVER
  1
AC1009
  9
$INSBASE
 10
0.0
 20
0.0
 30
0.0
  9
$EXTMIN
 10
397.39013815926182
 20
616.23330829366273
 30
-0.0015258207003583
  9
$EXTMAX
 10
431.2600717917785
 20
668.57629506939134
 30
0.0000000349246037
  9
$LIMMIN
 10
0.0
 20
0.0
  9
$LIMMAX
 10
420.0
 20
297.0
  9
$ORTHOMODE
 70
     0
  9
$REGENMODE
 70
     1
  9
$FILLMODE
 70
     1
  9
$QTEXTMODE
 70
     0
  9
$MIRRTEXT
 70
     0
  9
$DRAGMODE
 70
     2
  9
$LTSCALE
 40
1.0
  9
$OSMODE
 70
  3071
  9
$ATTMODE
 70
     1
  9
$TEXTSIZE
 40
2.5
  9
$TRACEWID
 40
1.0
  9
$TEXTSTYLE
  7
STANDARD
  9
$CLAYER
  8
0
  9
$CELTYPE
  6
BYLAYER
  9
$CECOLOR
 62
   256
  9
$DIMSCALE
 40
1.0
  9
$DIMASZ
 40
2.5
  9
$DIMEXO
 40
0.625
  9
$DIMDLI
 40
3.75
  9
$DIMRND
 40
0.0
  9
$DIMDLE
 40
0.0
  9
$DIMEXE
 40
1.25
  9
$DIMTP
 40
0.0
  9
$DIMTM
 40
0.0
  9
$DIMTXT
 40
2.5
  9
$DIMCEN
 40
2.5
  9
$DIMTSZ
 40
0.0
  9
$DIMTOL
 70
     0
  9
$DIMLIM
 70
     0
  9
$DIMTIH
 70
     0
  9
$DIMTOH
 70
     0
  9
$DIMSE1
 70
     0
  9
$DIMSE2
 70
     0
  9
$DIMTAD
 70
     1
  9
$DIMZIN
 70
     8
  9
$DIMBLK
  1

  9
$DIMASO
 70
     1
  9
$DIMSHO
 70
     1
  9
$DIMPOST
  1

  9
$DIMAPOST
  1

  9
$DIMALT
 70
     0
  9
$DIMALTD
 70
     3
  9
$DIMALTF
 40
0.03937007874016
  9
$DIMLFAC
 40
1.0
  9
$DIMTOFL
 70
     1
  9
$DIMTVP
 40
0.0
  9
$DIMTIX
 70
     0
  9
$DIMSOXD
 70
     0
  9
$DIMSAH
 70
     0
  9
$DIMBLK1
  1

  9
$DIMBLK2
  1

  9
$DIMSTYLE
  2
ISO-25
  9
$DIMCLRD
 70
     0
  9
$DIMCLRE
 70
     0
  9
$DIMCLRT
 70
     0
  9
$DIMTFAC
 40
1.0
  9
$DIMGAP
 40
0.625
  9
$LUNITS
 70
     2
  9
$LUPREC
 70
     4
  9
$SKETCHINC
 40
1.0
  9
$FILLETRAD
 40
0.0
  9
$AUNITS
 70
     0
  9
$AUPREC
 70
     0
  9
$MENU
  1
.
  9
$ELEVATION
 40
0.0
  9
$PELEVATION
 40
0.0
  9
$THICKNESS
 40
0.0
  9
$LIMCHECK
 70
     0
  9
$BLIPMODE
 70
     0
  9
$CHAMFERA
 40
0.0
  9
$CHAMFERB
 40
0.0
  9
$SKPOLY
 70
     0
  9
$TDCREATE
 40
2454763.5639670491
  9
$TDUPDATE
 40
2454763.5641468982
  9
$TDINDWG
 40
0.0001800231
  9
$TDUSRTIMER
 40
0.0001800231
  9
$USRTIMER
 70
     1
  9
$ANGBASE
 50
0.0
  9
$ANGDIR
 70
     0
  9
$PDMODE
 70
     0
  9
$PDSIZE
 40
0.0
  9
$PLINEWID
 40
0.0
  9
$COORDS
 70
     1
  9
$SPLFRAME
 70
     0
  9
$SPLINETYPE
 70
     6
  9
$SPLINESEGS
 70
     8
  9
$ATTDIA
 70
     0
  9
$ATTREQ
 70
     1
  9
$HANDLING
 70
     1
  9
$HANDSEED
  5
122
  9
$SURFTAB1
 70
     6
  9
$SURFTAB2
 70
     6
  9
$SURFTYPE
 70
     6
  9
$SURFU
 70
     6
  9
$SURFV
 70
     6
  9
$UCSNAME
  2

  9
$UCSORG
 10
0.0
 20
0.0
 30
0.0
  9
$UCSXDIR
 10
1.0
 20
0.0
 30
0.0
  9
$UCSYDIR
 10
0.0
 20
1.0
 30
0.0
  9
$PUCSNAME
  2

  9
$PUCSORG
 10
0.0
 20
0.0
 30
0.0
  9
$PUCSXDIR
 10
1.0
 20
0.0
 30
0.0
  9
$PUCSYDIR
 10
0.0
 20
1.0
 30
0.0
  9
$USERI1
 70
     0
  9
$USERI2
 70
     0
  9
$USERI3
 70
     0
  9
$USERI4
 70
     0
  9
$USERI5
 70
     0
  9
$USERR1
 40
0.0
  9
$USERR2
 40
0.0
  9
$USERR3
 40
0.0
  9
$USERR4
 40
0.0
  9
$USERR5
 40
0.0
  9
$WORLDVIEW
 70
     1
  9
$SHADEDGE
 70
     3
  9
$SHADEDIF
 70
    70
  9
$TILEMODE
 70
     1
  9
$MAXACTVP
 70
    64
  9
$PLIMCHECK
 70
     0
  9
$PEXTMIN
 10
0.0
 20
0.0
 30
0.0
  9
$PEXTMAX
 10
0.0
 20
0.0
 30
0.0
  9
$PLIMMIN
 10
0.0
 20
0.0
  9
$PLIMMAX
 10
12.0
 20
9.0
  9
$UNITMODE
 70
     0
  9
$VISRETAIN
 70
     1
  9
$PLINEGEN
 70
     0
  9
$PSLTSCALE
 70
     1
  0
ENDSEC
  0
SECTION
  2
TABLES
  0
TABLE
  2
VPORT
 70
     2
  0
VPORT
  2
*ACTIVE
 70
     0
 10
0.0
 20
0.0
 11
1.0
 21
1.0
 12
414.32510497552011
 22
642.40480168152703
 13
0.0
 23
0.0
 14
10.0
 24
10.0
 15
10.0
 25
10.0
 16
0.0
 26
0.0
 36
1.0
 17
0.0
 27
0.0
 37
0.0
 40
52.998640054756613
 41
2.3598326359832629
 42
50.0
 43
0.0
 44
0.0
 50
0.0
 51
0.0
 71
     0
 72
  1000
 73
     1
 74
     3
 75
     0
 76
     0
 77
     0
 78
     0
  0
ENDTAB
  0
TABLE
  2
LTYPE
 70
     1
  0
LTYPE
  2
CONTINUOUS
 70
     0
  3
Solid line
 72
    65
 73
     0
 40
0.0
  0
ENDTAB
  0
TABLE
  2
LAYER
 70
     1
  0
LAYER
  2
0
 70
     0
 62
     7
  6
CONTINUOUS
  0
ENDTAB
  0
TABLE
  2
STYLE
 70
     2
  0
STYLE
  2
STANDARD
 70
     0
 40
0.0
 41
1.0
 50
0.0
 71
     0
 42
2.5
  3
txt
  4

  0
STYLE
  2
ROMANT
 70
     0
 40
2.5
 41
1.0
 50
15.0
 71
     0
 42
2.5
  3
C:\ACADR13\COMMON\FONTS\romant.shx
  4

  0
ENDTAB
  0
TABLE
  2
VIEW
 70
     0
  0
ENDTAB
  0
TABLE
  2
UCS
 70
     0
  0
ENDTAB
  0
TABLE
  2
APPID
 70
     1
  0
APPID
  2
ACAD
 70
     0
  0
ENDTAB
  0
TABLE
  2
DIMSTYLE
 70
     4
  0
DIMSTYLE
  2
ISO-25
 70
     0
  3

  4

  5

  6

  7

 40
1.0
 41
2.5
 42
0.625
 43
3.75
 44
1.25
 45
0.0
 46
0.0
 47
0.0
 48
0.0
140
2.5
141
2.5
142
0.0
143
0.03937007874016
144
1.0
145
0.0
146
1.0
147
0.625
 71
     0
 72
     0
 73
     0
 74
     0
 75
     0
 76
     0
 77
     1
 78
     8
170
     0
171
     3
172
     1
173
     0
174
     0
175
     0
176
     0
177
     0
178
     0
  0
DIMSTYLE
  2
STANDARD
 70
     0
  3

  4

  5

  6

  7

 40
1.0
 41
0.18
 42
0.0625
 43
0.38
 44
0.18
 45
0.0
 46
0.0
 47
0.0
 48
0.0
140
0.18
141
0.09
142
0.0
143
25.399999999999999
144
1.0
145
0.0
146
1.0
147
0.09
 71
     0
 72
     0
 73
     1
 74
     1
 75
     0
 76
     0
 77
     0
 78
     0
170
     0
171
     2
172
     0
173
     0
174
     0
175
     0
176
     0
177
     0
178
     0
  0
DIMSTYLE
  2
ÝSMAIL_1_5___1
 70
     0
  3

  4

  5

  6

  7

 40
0.0
 41
2.0
 42
0.625
 43
0.38
 44
0.18
 45
0.0
 46
0.0
 47
0.0135
 48
0.0135
140
2.5
141
0.137
142
0.0
143
25.399999999999999
144
1.0
145
0.0
146
1.0
147
0.5
 71
     0
 72
     0
 73
     0
 74
     0
 75
     0
 76
     0
 77
     1
 78
     8
170
     0
171
     2
172
     0
173
     0
174
     0
175
     0
176
     5
177
     5
178
     5
  0
DIMSTYLE
  2
ISO-25-2
 70
     0
  3

  4

  5

  6

  7

 40
0.8
 41
2.5
 42
0.625
 43
3.75
 44
0.5
 45
0.0
 46
0.0
 47
0.0
 48
0.0
140
2.5
141
0.2
142
0.0
143
0.03937007874016
144
0.333333333333333
145
0.0
146
1.0
147
0.2
 71
     0
 72
     0
 73
     0
 74
     0
 75
     0
 76
     0
 77
     1
 78
     8
170
     0
171
     3
172
     0
173
     0
174
     0
175
     0
176
   242
177
   242
178
   242
  0
ENDTAB
  0
ENDSEC
  0
SECTION
  2
BLOCKS
  0
BLOCK
  8
0
  2
$MODEL_SPACE
 70
     0
 10
0.0
 20
0.0
 30
0.0
  3
$MODEL_SPACE
  1

  0
ENDBLK
  5
21
  8
0
  0
BLOCK
 67
     1
  8
0
  2
$PAPER_SPACE
 70
     0
 10
0.0
 20
0.0
 30
0.0
  3
$PAPER_SPACE
  1

  0
ENDBLK
  5
53
 67
     1
  8
0
  0
BLOCK
  8
0
  2
*X2
 70
     1
 10
0.0
 20
0.0
 30
0.0
  3
*X2
  1

  0
LINE
  5
A4
  8
0
 62
     0
 10
32.35184963891345
 20
-0.000000042032525
 30
0.0
 11
33.100000139543461
 21
0.748150458597479
 31
0.0
  0
LINE
  5
A5
  8
0
 62
     0
 10
28.10000013956687
 20
0.2382785191554149
 30
0.0
 11
33.10000013955483
 21
5.2382785191433641
 31
0.0
  0
LINE
  5
A6
  8
0
 62
     0
 10
30.100000139666641
 20
6.7284065797897483
 30
0.0
 11
33.100000139566362
 21
9.7284065796894765
 31
0.0
  0
LINE
  5
A7
  8
0
 62
     0
 10
28.881465457309901
 20
9.9999999579674732
 30
0.0
 11
33.100000139577901
 21
14.21853464023547
 31
0.0
  0
LINE
  5
A8
  8
0
 62
     0
 10
30.1000001396668
 20
15.70866270085901
 30
0.0
 11
33.10000013958927
 21
18.708662700781471
 31
0.0
  0
LINE
  5
A9
  8
0
 62
     0
 10
29.901209336240751
 20
19.999999957967471
 30
0.0
 11
33.100000139600873
 21
23.19879076132759
 31
0.0
  0
LINE
  5
AA
  8
0
 62
     0
 10
30.1000001396668
 20
24.688918821928269
 30
0.0
 11
33.100000139612121
 21
27.688918821873699
 31
0.0
  0
LINE
  5
AB
  8
0
 62
     0
 10
28.10000013956687
 20
22.688918821828342
 30
0.0
 11
28.41108127570601
 21
22.999999957967471
 31
0.0
  0
LINE
  5
AC
  8
0
 62
     0
 10
30.10000013966669
 20
29.179046882462789
 30
0.0
 11
33.100000139623717
 21
32.179046882419698
 31
0.0
  0
LINE
  5
AD
  8
0
 62
     0
 10
30.100000139666921
 20
33.669174942997529
 30
0.0
 11
33.100000139635199
 21
36.669174942965931
 31
0.0
  0
LINE
  5
AE
  8
0
 62
     0
 10
26.430825154645621
 20
29.999999957976339
 30
0.0
 11
28.13082515463703
 21
31.699999957967631
 31
0.0
  0
LINE
  5
AF
  8
0
 62
     0
 10
30.100000139666921
 20
38.159303003532052
 30
0.0
 11
33.100000139646681
 21
41.159303003511923
 31
0.0
  0
LINE
  5
B0
  8
0
 62
     0
 10
21.940697094102351
 20
29.999999957967589
 30
0.0
 11
23.64069709410251
 21
31.699999957967631
 31
0.0
  0
LINE
  5
B1
  8
0
 62
     0
 10
19.50000013968042
 20
32.049431064080181
 30
0.0
 11
21.00000013966871
 21
33.549431064068358
 31
0.0
  0
LINE
  5
B2
  8
0
 62
     0
 10
30.1000001396668
 20
42.649431064066441
 30
0.0
 11
33.100000139658171
 21
45.649431064057922
 31
0.0
  0
LINE
  5
B3
  8
0
 62
     0
 10
17.450569033567831
 20
29.999999957967479
 30
0.0
 11
19.150569033567869
 21
31.69999995796752
 31
0.0
  0
LINE
  5
B4
  8
0
 62
     0
 10
19.500000139664621
 20
36.539559124598902
 30
0.0
 11
21.000000139640289
 21
38.039559124574573
 31
0.0
  0
LINE
  5
B5
  8
0
 62
     0
 10
17.46044097311869
 20
34.499999958052967
 30
0.0
 11
19.16044097313204
 21
36.199999958066321
 31
0.0
  0
LINE
  5
B6
  8
0
 62
     0
 10
30.1000001396668
 20
47.139559124601071
 30
0.0
 11
30.16044097314057
 21
47.199999958074841
 31
0.0
  0
LINE
  5
B7
  8
0
 62
     0
 10
12.96044097303308
 20
29.999999957967361
 30
0.0
 11
14.660440973033131
 21
31.69999995796741
 31
0.0
  0
LINE
  5
B8
  8
0
 62
     0
 10
19.500000139629261
 20
41.029687185098162
 30
0.0
 11
21.00000013961176
 21
42.529687185080661
 31
0.0
  0
LINE
  5
B9
  8
0
 62
     0
 10
8.4703129124985708
 20
29.999999957967361
 30
0.0
 11
10.170312912498609
 21
31.69999995796741
 31
0.0
  0
LINE
  5
BA
  8
0
 62
     0
 10
8.4801848519807663
 20
34.499999957984301
 30
0.0
 11
9.4856600384348422
 21
35.505475144438378
 31
0.0
  0
LINE
  5
BB
  8
0
 62
     0
 10
19.500000139594022
 20
45.519815245597563
 30
0.0
 11
20.862714125066528
 21
46.882529231070173
 31
0.0
  0
LINE
  5
BC
  8
0
 62
     0
 10
3.9801848519639398
 20
29.999999957967479
 30
0.0
 11
5.6801848519639861
 21
31.69999995796752
 31
0.0
  0
LINE
  5
BD
  8
0
 62
     0
 10
5.0000001395749223
 20
35.50994330611298
 30
0.0
 11
6.5000001395867448
 21
37.00994330612491
 31
0.0
  0
LINE
  5
BE
  8
0
 62
     0
 10
0.3539894849320717
 20
30.86393265147024
 30
0.0
 11
1.6551126878498501
 21
32.165055854388022
 31
0.0
  0
LINE
  5
BF
  8
0
 62
     0
 10
1.9999287311262599
 20
36.999999958198892
 30
0.0
 11
3.499928731108525
 21
38.499999958181149
 31
0.0
  0
LINE
  5
C0
  8
0
 62
     0
 10
5.0000001396100506
 20
40.000071366682789
 30
0.0
 11
6.5000001396219877
 21
41.500071366694613
 31
0.0
  0
LINE
  5
C1
  8
0
 62
     0
 10
0.0000001395711706
 20
35.000071366643787
 30
0.0
 11
1.5000001395825391
 21
36.50007136665517
 31
0.0
  0
LINE
  5
C2
  8
0
 62
     0
 10
5.0000001396451799
 20
44.490199427252307
 30
0.0
 11
6.5000001396570042
 21
45.990199427264258
 31
0.0
  0
LINE
  5
C3
  8
0
 62
     0
 10
0.0000001396060725
 20
39.490199427213327
 30
0.0
 11
1.5000001396176681
 21
40.990199427224923
 31
0.0
  0
LINE
  5
C4
  8
0
 62
     0
 10
0.0000001396412017
 20
43.980327487782908
 30
0.0
 11
1.5000001396527971
 21
45.480327487794497
 31
0.0
  0
LINE
  5
C5
  8
0
 62
     0
 10
0.0000001396763309
 20
48.470455548352561
 30
0.0
 11
1.5000001396878131
 21
49.970455548364043
 31
0.0
  0
ENDBLK
  5
C7
  8
0
  0
ENDSEC
  0
SECTION
  2
ENTITIES
  0
POLYLINE
  5
94
  8
0
 66
     1
 10
0.0
 20
0.0
 30
0.0
 70
     1
  0
VERTEX
  5
F5
  8
0
 10
425.92976679547741
 20
636.23941340211195
 30
0.0
  0
VERTEX
  5
F6
  8
0
 10
425.92976679547689
 20
639.23941340211195
 30
0.0
  0
VERTEX
  5
F7
  8
0
 10
427.929766795577
 20
639.23941340211195
 30
0.0
  0
VERTEX
  5
F8
  8
0
 10
427.92976679557688
 20
646.23941340213275
 30
0.0
  0
VERTEX
  5
F9
  8
0
 10
421.62976679547751
 20
646.23941340211195
 30
0.0
  0
VERTEX
  5
FA
  8
0
 10
399.82976679545789
 20
646.23941340211195
 30
0.0
 42
-0.4142135623753843
  0
VERTEX
  5
FB
  8
0
 10
397.82976679545789
 20
648.23941340212764
 30
0.0
  0
VERTEX
  5
FC
  8
0
 10
397.82976679560318
 20
666.85941340235865
 30
0.0
 42
-0.3696638133293114
  0
VERTEX
  5
FD
  8
0
 10
399.09899756484549
 20
668.34155562296405
 30
0.0
 42
-0.4602123386312078
  0
VERTEX
  5
FE
  8
0
 10
399.32976679561312
 20
668.14393666021408
 30
0.0
  0
VERTEX
  5
FF
  8
0
 10
399.32976679550848
 20
654.73941340234705
 30
0.0
  0
VERTEX
  5
100
  8
0
 10
402.82976679550859
 20
654.73941340230954
 30
0.0
  0
VERTEX
  5
101
  8
0
 10
402.82976679557061
 20
662.68941340230936
 30
0.0
 42
-1.0000000000000371
  0
VERTEX
  5
102
  8
0
 10
404.32976679557089
 20
662.68941340229765
 30
0.0
  0
VERTEX
  5
103
  8
0
 10
404.32976679549068
 20
652.439413402112
 30
0.0
  0
VERTEX
  5
104
  8
0
 10
406.4797667955774
 20
652.43941340212882
 30
0.0
 42
-1.0000000000000671
  0
VERTEX
  5
105
  8
0
 10
406.47976679559071
 20
650.73941340212866
 30
0.0
  0
VERTEX
  5
106
  8
0
 10
402.82976679547721
 20
650.73941340212912
 30
0.0
  0
VERTEX
  5
107
  8
0
 10
402.8297667954966
 20
653.23941340232045
 30
0.0
  0
VERTEX
  5
108
  8
0
 10
399.3297667954966
 20
653.23941340234705
 30
0.0
  0
VERTEX
  5
109
  8
0
 10
399.32976679546329
 20
648.93941340211973
 30
0.0
 42
0.414213562375351
  0
VERTEX
  5
10A
  8
0
 10
400.32976679546312
 20
647.939413402112
 30
0.0
  0
VERTEX
  5
10B
  8
0
 10
417.3297667955905
 20
647.939413402112
 30
0.0
  0
VERTEX
  5
10C
  8
0
 10
417.3297667955905
 20
650.73941340211195
 30
0.0
  0
VERTEX
  5
10D
  8
0
 10
417.32976679559061
 20
650.73941340221347
 30
0.0
  0
VERTEX
  5
10E
  8
0
 10
415.17976679559058
 20
650.73941340219665
 30
0.0
 42
-0.9999999999999998
  0
VERTEX
  5
10F
  8
0
 10
415.17976679557751
 20
652.43941340219658
 30
0.0
  0
VERTEX
  5
110
  8
0
 10
417.32976679557743
 20
652.43941340221363
 30
0.0
  0
VERTEX
  5
111
  8
0
 10
417.32976679549699
 20
662.68941340221329
 30
0.0
 42
-0.9999999999999998
  0
VERTEX
  5
112
  8
0
 10
418.82976679549722
 20
662.68941340222511
 30
0.0
  0
VERTEX
  5
113
  8
0
 10
418.82976679559061
 20
647.939413402112
 30
0.0
  0
VERTEX
  5
114
  8
0
 10
427.929766795577
 20
647.939413402112
 30
0.0
  0
VERTEX
  5
115
  8
0
 10
427.92976679557688
 20
663.43941340221932
 30
0.0
  0
VERTEX
  5
116
  8
0
 10
429.42976679556853
 20
663.43941340221932
 30
0.0
 42
-0.4142135623738489
  0
VERTEX
  5
117
  8
0
 10
430.92976679556853
 20
661.93941340221545
 30
0.0
  0
VERTEX
  5
118
  8
0
 10
430.9297667954516
 20
616.23941340211195
 30
0.0
  0
VERTEX
  5
119
  8
0
 10
425.92976679547689
 20
616.23941340211195
 30
0.0
  0
VERTEX
  5
11A
  8
0
 10
425.92976679547718
 20
619.23941340211195
 30
0.0
  0
VERTEX
  5
11B
  8
0
 10
427.9297667955766
 20
619.23941340211195
 30
0.0
  0
VERTEX
  5
11C
  8
0
 10
427.92976679557682
 20
626.23941340211195
 30
0.0
  0
VERTEX
  5
11D
  8
0
 10
425.92976679547689
 20
626.23941340211195
 30
0.0
  0
VERTEX
  5
11E
  8
0
 10
425.92976679547729
 20
629.23941340211195
 30
0.0
  0
VERTEX
  5
11F
  8
0
 10
427.92976679557688
 20
629.23941340211195
 30
0.0
  0
VERTEX
  5
120
  8
0
 10
427.929766795577
 20
636.23941340211195
 30
0.0
  0
SEQEND
  5
121
  8
0
  0
ENDSEC
  0
EOF
