  0
SECTION
  2
HEADER
  9
$ACADVER
  1
AC1009
  9
$INSBASE
 10
0.0
 20
0.0
 30
0.0
  9
$EXTMIN
 10
735.19226257595267
 20
498.13302739445697
 30
-0.0015258207003583
  9
$EXTMAX
 10
751.40625136369636
 20
527.86203098956275
 30
0.0000000349246037
  9
$LIMMIN
 10
0.0
 20
0.0
  9
$LIMMAX
 10
420.0
 20
297.0
  9
$ORTHOMODE
 70
     0
  9
$REGENMODE
 70
     1
  9
$FILLMODE
 70
     1
  9
$QTEXTMODE
 70
     0
  9
$MIRRTEXT
 70
     0
  9
$DRAGMODE
 70
     2
  9
$LTSCALE
 40
1.0
  9
$OSMODE
 70
  3071
  9
$ATTMODE
 70
     1
  9
$TEXTSIZE
 40
2.5
  9
$TRACEWID
 40
1.0
  9
$TEXTSTYLE
  7
STANDARD
  9
$CLAYER
  8
0
  9
$CELTYPE
  6
BYLAYER
  9
$CECOLOR
 62
   256
  9
$DIMSCALE
 40
1.0
  9
$DIMASZ
 40
2.5
  9
$DIMEXO
 40
0.625
  9
$DIMDLI
 40
3.75
  9
$DIMRND
 40
0.0
  9
$DIMDLE
 40
0.0
  9
$DIMEXE
 40
1.25
  9
$DIMTP
 40
0.0
  9
$DIMTM
 40
0.0
  9
$DIMTXT
 40
2.5
  9
$DIMCEN
 40
2.5
  9
$DIMTSZ
 40
0.0
  9
$DIMTOL
 70
     0
  9
$DIMLIM
 70
     0
  9
$DIMTIH
 70
     0
  9
$DIMTOH
 70
     0
  9
$DIMSE1
 70
     0
  9
$DIMSE2
 70
     0
  9
$DIMTAD
 70
     1
  9
$DIMZIN
 70
     8
  9
$DIMBLK
  1

  9
$DIMASO
 70
     1
  9
$DIMSHO
 70
     1
  9
$DIMPOST
  1

  9
$DIMAPOST
  1

  9
$DIMALT
 70
     0
  9
$DIMALTD
 70
     3
  9
$DIMALTF
 40
0.03937007874016
  9
$DIMLFAC
 40
1.0
  9
$DIMTOFL
 70
     1
  9
$DIMTVP
 40
0.0
  9
$DIMTIX
 70
     0
  9
$DIMSOXD
 70
     0
  9
$DIMSAH
 70
     0
  9
$DIMBLK1
  1

  9
$DIMBLK2
  1

  9
$DIMSTYLE
  2
ISO-25
  9
$DIMCLRD
 70
     0
  9
$DIMCLRE
 70
     0
  9
$DIMCLRT
 70
     0
  9
$DIMTFAC
 40
1.0
  9
$DIMGAP
 40
0.625
  9
$LUNITS
 70
     2
  9
$LUPREC
 70
     4
  9
$SKETCHINC
 40
1.0
  9
$FILLETRAD
 40
0.0
  9
$AUNITS
 70
     0
  9
$AUPREC
 70
     0
  9
$MENU
  1
.
  9
$ELEVATION
 40
0.0
  9
$PELEVATION
 40
0.0
  9
$THICKNESS
 40
0.0
  9
$LIMCHECK
 70
     0
  9
$BLIPMODE
 70
     0
  9
$CHAMFERA
 40
0.0
  9
$CHAMFERB
 40
0.0
  9
$SKPOLY
 70
     0
  9
$TDCREATE
 40
2455043.6133499308
  9
$TDUPDATE
 40
2455043.613493518
  9
$TDINDWG
 40
0.0001439468
  9
$TDUSRTIMER
 40
0.0001439468
  9
$USRTIMER
 70
     1
  9
$ANGBASE
 50
0.0
  9
$ANGDIR
 70
     0
  9
$PDMODE
 70
     0
  9
$PDSIZE
 40
0.0
  9
$PLINEWID
 40
0.0
  9
$COORDS
 70
     0
  9
$SPLFRAME
 70
     0
  9
$SPLINETYPE
 70
     6
  9
$SPLINESEGS
 70
     8
  9
$ATTDIA
 70
     0
  9
$ATTREQ
 70
     1
  9
$HANDLING
 70
     1
  9
$HANDSEED
  5
1DB
  9
$SURFTAB1
 70
     6
  9
$SURFTAB2
 70
     6
  9
$SURFTYPE
 70
     6
  9
$SURFU
 70
     6
  9
$SURFV
 70
     6
  9
$UCSNAME
  2

  9
$UCSORG
 10
0.0
 20
0.0
 30
0.0
  9
$UCSXDIR
 10
1.0
 20
0.0
 30
0.0
  9
$UCSYDIR
 10
0.0
 20
1.0
 30
0.0
  9
$PUCSNAME
  2

  9
$PUCSORG
 10
0.0
 20
0.0
 30
0.0
  9
$PUCSXDIR
 10
1.0
 20
0.0
 30
0.0
  9
$PUCSYDIR
 10
0.0
 20
1.0
 30
0.0
  9
$USERI1
 70
     0
  9
$USERI2
 70
     0
  9
$USERI3
 70
     0
  9
$USERI4
 70
     0
  9
$USERI5
 70
     0
  9
$USERR1
 40
0.0
  9
$USERR2
 40
0.0
  9
$USERR3
 40
0.0
  9
$USERR4
 40
0.0
  9
$USERR5
 40
0.0
  9
$WORLDVIEW
 70
     1
  9
$SHADEDGE
 70
     3
  9
$SHADEDIF
 70
    70
  9
$TILEMODE
 70
     1
  9
$MAXACTVP
 70
    64
  9
$PLIMCHECK
 70
     0
  9
$PEXTMIN
 10
0.0
 20
0.0
 30
0.0
  9
$PEXTMAX
 10
0.0
 20
0.0
 30
0.0
  9
$PLIMMIN
 10
0.0
 20
0.0
  9
$PLIMMAX
 10
12.0
 20
9.0
  9
$UNITMODE
 70
     0
  9
$VISRETAIN
 70
     1
  9
$PLINEGEN
 70
     0
  9
$PSLTSCALE
 70
     1
  0
ENDSEC
  0
SECTION
  2
TABLES
  0
TABLE
  2
VPORT
 70
     2
  0
VPORT
  2
*ACTIVE
 70
     0
 10
0.0
 20
0.0
 11
1.0
 21
1.0
 12
743.29925696982468
 22
512.99752919200978
 13
0.0
 23
0.0
 14
10.0
 24
10.0
 15
10.0
 25
10.0
 16
0.0
 26
0.0
 36
1.0
 17
0.0
 27
0.0
 37
0.0
 40
30.00133034559525
 41
1.9694189602446479
 42
50.0
 43
0.0
 44
0.0
 50
0.0
 51
0.0
 71
     0
 72
  1000
 73
     1
 74
     3
 75
     0
 76
     0
 77
     0
 78
     0
  0
ENDTAB
  0
TABLE
  2
LTYPE
 70
     1
  0
LTYPE
  2
CONTINUOUS
 70
     0
  3
Solid line
 72
    65
 73
     0
 40
0.0
  0
ENDTAB
  0
TABLE
  2
LAYER
 70
     2
  0
LAYER
  2
0
 70
     0
 62
     7
  6
CONTINUOUS
  0
LAYER
  2
VISIBLE__ISO_
 70
     0
 62
     7
  6
CONTINUOUS
  0
ENDTAB
  0
TABLE
  2
STYLE
 70
     3
  0
STYLE
  2
STANDARD
 70
     0
 40
0.0
 41
1.0
 50
0.0
 71
     0
 42
2.5
  3
txt
  4

  0
STYLE
  2
NOTE_TEXT__ISO_
 70
     0
 40
0.0
 41
1.0
 50
0.0
 71
     0
 42
0.2
  3
txt
  4

  0
STYLE
  2
ROMANT
 70
     0
 40
2.5
 41
1.0
 50
0.0
 71
     0
 42
2.5
  3
romant.shx
  4

  0
ENDTAB
  0
TABLE
  2
VIEW
 70
     0
  0
ENDTAB
  0
TABLE
  2
UCS
 70
     0
  0
ENDTAB
  0
TABLE
  2
APPID
 70
     1
  0
APPID
  2
ACAD
 70
     0
  0
ENDTAB
  0
TABLE
  2
DIMSTYLE
 70
     4
  0
DIMSTYLE
  2
ISO-25
 70
     0
  3

  4

  5

  6

  7

 40
1.0
 41
2.5
 42
0.625
 43
3.75
 44
1.25
 45
0.0
 46
0.0
 47
0.0
 48
0.0
140
2.5
141
2.5
142
0.0
143
0.03937007874016
144
1.0
145
0.0
146
1.0
147
0.625
 71
     0
 72
     0
 73
     0
 74
     0
 75
     0
 76
     0
 77
     1
 78
     8
170
     0
171
     3
172
     1
173
     0
174
     0
175
     0
176
     0
177
     0
178
     0
  0
DIMSTYLE
  2
STANDARD
 70
     0
  3

  4

  5

  6

  7

 40
1.0
 41
0.18
 42
0.0625
 43
0.38
 44
0.18
 45
0.0
 46
0.0
 47
0.0
 48
0.0
140
0.18
141
0.09
142
0.0
143
25.399999999999999
144
1.0
145
0.0
146
1.0
147
0.09
 71
     0
 72
     0
 73
     1
 74
     1
 75
     0
 76
     0
 77
     0
 78
     0
170
     0
171
     2
172
     0
173
     0
174
     0
175
     0
176
     0
177
     0
178
     0
  0
DIMSTYLE
  2
DEFAULT__ISO_
 70
     0
  3

  4

  5

  6

  7

 40
1.0
 41
2.5
 42
0.0
 43
5.9999999999999991
 44
3.1749999999999989
 45
0.00000001
 46
10.0
 47
0.0
 48
0.0
140
2.0
141
0.09
142
0.0
143
1.0
144
1.0
145
0.0
146
1.0
147
0.762
 71
     0
 72
     0
 73
     0
 74
     0
 75
     0
 76
     0
 77
     1
 78
     0
170
     0
171
     3
172
     1
173
     0
174
     0
175
     0
176
   256
177
   256
178
   256
  0
DIMSTYLE
  2
ISO-25_1_E_1
 70
     0
  3

  4

  5

  6

  7

 40
1.0
 41
1.3
 42
0.0
 43
3.75
 44
0.2
 45
0.0
 46
0.0
 47
0.0
 48
0.0
140
1.0
141
0.2
142
0.0
143
0.03937007874016
144
1.0
145
0.0
146
1.0
147
0.7
 71
     0
 72
     0
 73
     0
 74
     0
 75
     0
 76
     0
 77
     1
 78
     8
170
     0
171
     3
172
     0
173
     0
174
     0
175
     0
176
   242
177
   242
178
   242
  0
ENDTAB
  0
ENDSEC
  0
SECTION
  2
BLOCKS
  0
BLOCK
  8
0
  2
$MODEL_SPACE
 70
     0
 10
0.0
 20
0.0
 30
0.0
  3
$MODEL_SPACE
  1

  0
ENDBLK
  5
21
  8
0
  0
BLOCK
 67
     1
  8
0
  2
$PAPER_SPACE
 70
     0
 10
0.0
 20
0.0
 30
0.0
  3
$PAPER_SPACE
  1

  0
ENDBLK
  5
53
 67
     1
  8
0
  0
BLOCK
  8
0
  2
*X2
 70
     1
 10
0.0
 20
0.0
 30
0.0
  3
*X2
  1

  0
LINE
  5
120
  8
0
 62
     0
 10
15.60227225480957
 20
0.0105715356589826
 30
0.0
 11
15.98942897572965
 21
0.3977282565790574
 31
0.0
  0
LINE
  5
121
  8
0
 62
     0
 10
14.24466252812414
 20
0.0000002271339099
 30
0.0
 11
16.000000284254892
 21
1.7553379832646101
 31
0.0
  0
LINE
  5
122
  8
0
 62
     0
 10
12.89762410996366
 20
0.0000002271337962
 30
0.0
 11
16.000000284254838
 21
3.1023764014249759
 31
0.0
  0
LINE
  5
123
  8
0
 62
     0
 10
13.664718193926261
 20
2.1141327292568231
 30
0.0
 11
16.000000284254781
 21
4.4494148195853418
 31
0.0
  0
LINE
  5
124
  8
0
 62
     0
 10
11.55058569180335
 20
0.0000002271339099
 30
0.0
 11
12.98586778375755
 21
1.4352823190881161
 31
0.0
  0
LINE
  5
125
  8
0
 62
     0
 10
13.368553044357039
 20
3.1650059978479699
 30
0.0
 11
16.000000284254838
 21
5.7964532377457649
 31
0.0
  0
LINE
  5
126
  8
0
 62
     0
 10
10.203547273642981
 20
0.0000002271338531
 30
0.0
 11
11.934994515169761
 21
1.7314474686606329
 31
0.0
  0
LINE
  5
127
  8
0
 62
     0
 10
13.23720091043503
 20
4.3806922820862724
 30
0.0
 11
16.000000284254838
 21
7.1434916559060753
 31
0.0
  0
LINE
  5
128
  8
0
 62
     0
 10
8.8565088554826161
 20
0.0000002271338531
 30
0.0
 11
10.71930823092822
 21
1.8627996025794
 31
0.0
  0
LINE
  5
129
  8
0
 62
     0
 10
13.12555107287397
 20
5.6160808626855783
 30
0.0
 11
16.000000284254892
 21
8.4905300740664984
 31
0.0
  0
LINE
  5
12A
  8
0
 62
     0
 10
7.6512136796285404
 20
0.1417434694401436
 30
0.0
 11
9.4839196503288576
 21
1.97444944014046
 31
0.0
  0
LINE
  5
12B
  8
0
 62
     0
 10
11.456720426346401
 20
5.2942886343184341
 30
0.0
 11
16.000000284254781
 21
9.8375684922268078
 31
0.0
  0
LINE
  5
12C
  8
0
 62
     0
 10
7.5000002842548952
 20
1.337568492226864
 30
0.0
 11
9.8057118786960586
 21
3.643280086668085
 31
0.0
  0
LINE
  5
12D
  8
0
 62
     0
 10
10.310890021521169
 20
5.4954966476535674
 30
0.0
 11
12.715393601001489
 21
7.9000002271338872
 31
0.0
  0
LINE
  5
12E
  8
0
 62
     0
 10
14.00000028425489
 20
9.1846069103872292
 30
0.0
 11
15.31539360100146
 21
10.50000022713385
 31
0.0
  0
LINE
  5
12F
  8
0
 62
     0
 10
7.5000002842548952
 20
2.6846069103872869
 30
0.0
 11
9.6045038653608685
 21
4.7891104914932612
 31
0.0
  0
LINE
  5
130
  8
0
 62
     0
 10
7.5000002842548383
 20
4.0316453285475973
 30
0.0
 11
11.36835518284107
 21
7.9000002271338303
 31
0.0
  0
LINE
  5
131
  8
0
 62
     0
 10
7.0587955224696648
 20
4.9374789849228469
 30
0.0
 11
10.00655125142884
 21
7.8852347138820269
 31
0.0
  0
LINE
  5
132
  8
0
 62
     0
 10
2.1213167646807269
 20
0.0000002271339099
 30
0.0
 11
3.0000002842548952
 21
0.8786837467080204
 31
0.0
  0
LINE
  5
133
  8
0
 62
     0
 10
5.8910865020690721
 20
5.1168083826826196
 30
0.0
 11
7.7169318914700957
 21
6.9426537720835881
 31
0.0
  0
LINE
  5
134
  8
0
 62
     0
 10
0.7742783465203047
 20
0.0000002271338531
 30
0.0
 11
3.0000002842548952
 21
2.2257221648684431
 31
0.0
  0
LINE
  5
135
  8
0
 62
     0
 10
4.8950116364265446
 20
5.4677719352004033
 30
0.0
 11
6.4629171843628788
 21
7.0356774831367366
 31
0.0
  0
LINE
  5
136
  8
0
 62
     0
 10
0.0000002842548952
 20
0.572760583028753
 30
0.0
 11
2.6119434328523421
 21
3.1847037316261999
 31
0.0
  0
LINE
  5
137
  8
0
 62
     0
 10
4.0305604956222956
 20
5.9503592125565197
 30
0.0
 11
5.485898863416935
 21
7.4056975803511591
 31
0.0
  0
LINE
  5
138
  8
0
 62
     0
 10
0.0000002842548383
 20
1.919799001189062
 30
0.0
 11
2.5000002842548952
 21
4.4197990011891193
 31
0.0
  0
LINE
  5
139
  8
0
 62
     0
 10
3.2799484061484341
 20
6.5467855412430822
 30
0.0
 11
4.6953981748958986
 21
7.962235309990489
 31
0.0
  0
LINE
  5
13A
  8
0
 62
     0
 10
0.0000002842548383
 20
3.2668374193494851
 30
0.0
 11
2.5000002842548379
 21
5.7668374193494847
 31
0.0
  0
LINE
  5
13B
  8
0
 62
     0
 10
14.512822088517851
 20
19.126697641772861
 30
0.0
 11
16.000000284254892
 21
20.613875837509909
 31
0.0
  0
LINE
  5
13C
  8
0
 62
     0
 10
0.0000002842548952
 20
4.6138758375099078
 30
0.0
 11
4.1144500401045434
 21
8.7283255933595552
 31
0.0
  0
LINE
  5
13D
  8
0
 62
     0
 10
14.000735928634811
 20
19.96164990005019
 30
0.0
 11
16.000000284254838
 21
21.960914255670222
 31
0.0
  0
LINE
  5
13E
  8
0
 62
     0
 10
0.0000002842547815
 20
5.9609142556701613
 30
0.0
 11
3.5756346728402941
 21
9.5365486442556744
 31
0.0
  0
LINE
  5
13F
  8
0
 62
     0
 10
14.00000028425478
 20
21.307952673830531
 30
0.0
 11
16.000000284254838
 21
23.307952673830581
 31
0.0
  0
LINE
  5
140
  8
0
 62
     0
 10
0.0000002842548383
 20
7.3079526738305836
 30
0.0
 11
3.036819305576159
 21
10.3447716951519
 31
0.0
  0
LINE
  5
141
  8
0
 62
     0
 10
12.94500941939771
 20
21.600000227133879
 30
0.0
 11
16.000000284254838
 21
24.654991091991011
 31
0.0
  0
LINE
  5
142
  8
0
 62
     0
 10
0.0000002842548952
 20
8.6549910919910644
 30
0.0
 11
2.5000002842548952
 21
11.154991091991061
 31
0.0
  0
LINE
  5
143
  8
0
 62
     0
 10
11.59797100123745
 20
21.600000227133929
 30
0.0
 11
16.000000284254892
 21
26.002029510151321
 31
0.0
  0
LINE
  5
144
  8
0
 62
     0
 10
0.0000002842548952
 20
10.00202951015137
 30
0.0
 11
2.5000002842548952
 21
12.50202951015137
 31
0.0
  0
LINE
  5
145
  8
0
 62
     0
 10
10.25093258307697
 20
21.600000227133819
 30
0.0
 11
12.771913043072679
 21
24.120980687129531
 31
0.0
  0
LINE
  5
146
  8
0
 62
     0
 10
13.479019824259289
 20
24.828087468316141
 30
0.0
 11
16.000000284254838
 21
27.34906792831168
 31
0.0
  0
LINE
  5
147
  8
0
 62
     0
 10
0.0000002842548383
 20
11.34906792831168
 30
0.0
 11
2.5000002842548952
 21
13.84906792831174
 31
0.0
  0
LINE
  5
148
  8
0
 62
     0
 10
9.3564943206932298
 20
22.052600382910441
 30
0.0
 11
11.50633292115071
 21
24.20243898336798
 31
0.0
  0
LINE
  5
149
  8
0
 62
     0
 10
13.39756152802209
 20
26.09366759023937
 30
0.0
 11
16.000000284254781
 21
28.69610634647205
 31
0.0
  0
LINE
  5
14A
  8
0
 62
     0
 10
0.0000002842548383
 20
12.696106346472099
 30
0.0
 11
2.0269472245857401
 21
14.72305328680301
 31
0.0
  0
LINE
  5
14B
  8
0
 62
     0
 10
8.3979417312631313
 20
22.441086211640769
 30
0.0
 11
9.8468553807856551
 21
23.88999986116329
 31
0.0
  0
LINE
  5
14C
  8
0
 62
     0
 10
13.710000650225931
 20
27.753145130603571
 30
0.0
 11
15.45685574675627
 21
29.50000022713391
 31
0.0
  0
LINE
  5
14D
  8
0
 62
     0
 10
0.0000002842548383
 20
14.043144764632469
 30
0.0
 11
2.500000284254952
 21
16.543144764632579
 31
0.0
  0
LINE
  5
14E
  8
0
 62
     0
 10
7.1760770999790671
 20
22.566259998517008
 30
0.0
 11
9.9323541473214032
 21
25.322537045859288
 31
0.0
  0
LINE
  5
14F
  8
0
 62
     0
 10
12.277463465529481
 20
27.66764636406743
 30
0.0
 11
14.109817328595909
 21
29.50000022713386
 31
0.0
  0
LINE
  5
150
  8
0
 62
     0
 10
0.0000002842548952
 20
15.39018318279278
 30
0.0
 11
2.5000002842548952
 21
17.890183182792839
 31
0.0
  0
LINE
  5
151
  8
0
 62
     0
 10
5.1663182516839461
 20
21.903539568382261
 30
0.0
 11
9.9270592864963874
 21
26.664280603194701
 31
0.0
  0
LINE
  5
152
  8
0
 62
     0
 10
10.93571990819401
 20
27.67294122489233
 30
0.0
 11
12.762778910435481
 21
29.500000227133739
 31
0.0
  0
LINE
  5
153
  8
0
 62
     0
 10
0.0000002842548952
 20
16.737221600953202
 30
0.0
 11
4.2744430318937239
 21
21.011664348592031
 31
0.0
  0
LINE
  5
154
  8
0
 62
     0
 10
7.5000002842548383
 20
25.584260019113572
 30
0.0
 11
9.4778040814862834
 21
27.56206381634502
 31
0.0
  0
LINE
  5
155
  8
0
 62
     0
 10
10.037936695043699
 20
28.122196429902431
 30
0.0
 11
11.415740492275059
 21
29.5000002271338
 31
0.0
  0
LINE
  5
156
  8
0
 62
     0
 10
0.0000002842547815
 20
18.084260019113511
 30
0.0
 11
6.4072980580940557
 21
24.49155779295279
 31
0.0
  0
LINE
  5
157
  8
0
 62
     0
 10
7.5000002842548952
 20
26.931298437273998
 30
0.0
 11
10.06870207411475
 21
29.50000022713386
 31
0.0
  0
LINE
  5
158
  8
0
 62
     0
 10
0.0000002842548952
 20
19.431298437273991
 30
0.0
 11
4.2728690059209384
 21
23.704167158940042
 31
0.0
  0
LINE
  5
159
  8
0
 62
     0
 10
7.5000002842548383
 20
28.278336855434301
 30
0.0
 11
8.7216636559543304
 21
29.5000002271338
 31
0.0
  0
LINE
  5
15A
  8
0
 62
     0
 10
0.0000002842548952
 20
20.778336855434301
 30
0.0
 11
2.5000002842548952
 21
23.278336855434361
 31
0.0
  0
LINE
  5
15B
  8
0
 62
     0
 10
0.0000002842548383
 20
22.125375273594731
 30
0.0
 11
2.5000002842548379
 21
24.625375273594731
 31
0.0
  0
LINE
  5
15C
  8
0
 62
     0
 10
0.0000002842548383
 20
23.472413691755101
 30
0.0
 11
2.5000002842548952
 21
25.97241369175515
 31
0.0
  0
LINE
  5
15D
  8
0
 62
     0
 10
0.0000002842548952
 20
24.81945210991546
 30
0.0
 11
3.0000002842548952
 21
27.81945210991546
 31
0.0
  0
LINE
  5
15E
  8
0
 62
     0
 10
0.0000002842548383
 20
26.166490528075769
 30
0.0
 11
2.9785127642575731
 21
29.145003008078451
 31
0.0
  0
LINE
  5
15F
  8
0
 62
     0
 10
0.0000002842548383
 20
27.513528946236139
 30
0.0
 11
1.986471565152498
 21
29.50000022713386
 31
0.0
  0
LINE
  5
160
  8
0
 62
     0
 10
0.0000002842548952
 20
28.860567364396619
 30
0.0
 11
0.6394331469921326
 21
29.5000002271338
 31
0.0
  0
ENDBLK
  5
162
  8
0
  0
ENDSEC
  0
SECTION
  2
ENTITIES
  0
POLYLINE
  5
95
  8
VISIBLE__ISO_
 66
     1
 10
0.0
 20
0.0
 30
0.0
 70
     1
  0
VERTEX
  5
163
  8
VISIBLE__ISO_
 10
735.79963000367115
 20
527.74358360717827
 30
0.0
 42
0.4142135623730899
  0
VERTEX
  5
164
  8
VISIBLE__ISO_
 10
735.29963000367115
 20
527.24358360717827
 30
0.0
  0
VERTEX
  5
165
  8
VISIBLE__ISO_
 10
735.29963000367115
 20
498.74358360717821
 30
0.0
 42
0.4142135623730951
  0
VERTEX
  5
166
  8
VISIBLE__ISO_
 10
735.79963000367115
 20
498.24358360717832
 30
0.0
  0
VERTEX
  5
167
  8
VISIBLE__ISO_
 10
737.79963000367115
 20
498.24358360717832
 30
0.0
 42
0.4142135623730951
  0
VERTEX
  5
168
  8
VISIBLE__ISO_
 10
738.29963000367115
 20
498.74358360717821
 30
0.0
  0
VERTEX
  5
169
  8
VISIBLE__ISO_
 10
738.29963000367115
 20
500.87755820339379
 30
0.0
 42
0.2679491924311204
  0
VERTEX
  5
16A
  8
VISIBLE__ISO_
 10
738.04963000367115
 20
501.310570905286
 30
0.0
 42
-0.2679491924311121
  0
VERTEX
  5
16B
  8
VISIBLE__ISO_
 10
737.79963000367115
 20
501.74358360717821
 30
0.0
  0
VERTEX
  5
16C
  8
VISIBLE__ISO_
 10
737.79963000367115
 20
505.1274772041678
 30
0.0
 42
-0.7420559691808112
  0
VERTEX
  5
16D
  8
VISIBLE__ISO_
 10
738.16604006253874
 20
505.23841724341293
 30
0.0
  0
VERTEX
  5
16E
  8
VISIBLE__ISO_
 10
738.22340433808654
 20
505.15237083009112
 30
0.0
 42
0.2171265260017394
  0
VERTEX
  5
16F
  8
VISIBLE__ISO_
 10
742.79963000367115
 20
503.17345207860433
 30
0.0
  0
VERTEX
  5
170
  8
VISIBLE__ISO_
 10
742.79963000367115
 20
498.74358360717821
 30
0.0
 42
0.4142135623730951
  0
VERTEX
  5
171
  8
VISIBLE__ISO_
 10
743.29963000367115
 20
498.24358360717832
 30
0.0
  0
VERTEX
  5
172
  8
VISIBLE__ISO_
 10
750.79963000367115
 20
498.24358360717832
 30
0.0
 42
0.4142135623730898
  0
VERTEX
  5
173
  8
VISIBLE__ISO_
 10
751.29963000367115
 20
498.74358360717821
 30
0.0
  0
VERTEX
  5
174
  8
VISIBLE__ISO_
 10
751.29963000367115
 20
508.24358360717821
 30
0.0
 42
0.4142135623730951
  0
VERTEX
  5
175
  8
VISIBLE__ISO_
 10
750.79963000367115
 20
508.74358360717821
 30
0.0
  0
VERTEX
  5
176
  8
VISIBLE__ISO_
 10
750.29963000367115
 20
508.74358360717821
 30
0.0
 42
0.4142135623730951
  0
VERTEX
  5
177
  8
VISIBLE__ISO_
 10
749.29963000367115
 20
507.74358360717821
 30
0.0
  0
VERTEX
  5
178
  8
VISIBLE__ISO_
 10
749.29963000367115
 20
506.14358360717819
 30
0.0
  0
VERTEX
  5
179
  8
VISIBLE__ISO_
 10
745.39082573585711
 20
506.14358360717819
 30
0.0
 42
0.1738978076014239
  0
VERTEX
  5
17A
  8
VISIBLE__ISO_
 10
745.23194143758747
 20
506.08660117053051
 30
0.0
 42
-0.3911543269479246
  0
VERTEX
  5
17B
  8
VISIBLE__ISO_
 10
739.79751227111694
 20
506.3967602060095
 30
0.0
  0
VERTEX
  5
17C
  8
VISIBLE__ISO_
 10
737.79963000367115
 20
509.39358360717819
 30
0.0
  0
VERTEX
  5
17D
  8
VISIBLE__ISO_
 10
737.79963000367115
 20
512.39003021658493
 30
0.0
 42
0.1989123673796506
  0
VERTEX
  5
17E
  8
VISIBLE__ISO_
 10
737.72640669896782
 20
512.56680691188149
 30
0.0
  0
VERTEX
  5
17F
  8
VISIBLE__ISO_
 10
737.29963000367115
 20
512.99358360717827
 30
0.0
  0
VERTEX
  5
180
  8
VISIBLE__ISO_
 10
737.72640669896793
 20
513.42036030247493
 30
0.0
 42
0.1989123673796654
  0
VERTEX
  5
181
  8
VISIBLE__ISO_
 10
737.79963000367127
 20
513.5971369977716
 30
0.0
  0
VERTEX
  5
182
  8
VISIBLE__ISO_
 10
737.79963000367115
 20
516.59358360717818
 30
0.0
  0
VERTEX
  5
183
  8
VISIBLE__ISO_
 10
739.79853232474579
 20
519.59193708879013
 30
0.0
 42
-0.3910514263868808
  0
VERTEX
  5
184
  8
VISIBLE__ISO_
 10
745.23244212195777
 20
519.90058097905717
 30
0.0
 42
0.1739220171448229
  0
VERTEX
  5
185
  8
VISIBLE__ISO_
 10
745.39134456227384
 20
519.84358360717829
 30
0.0
  0
VERTEX
  5
186
  8
VISIBLE__ISO_
 10
749.29963000367115
 20
519.84358360717829
 30
0.0
  0
VERTEX
  5
187
  8
VISIBLE__ISO_
 10
749.29963000367115
 20
518.24358360717815
 30
0.0
 42
0.4142135623730951
  0
VERTEX
  5
188
  8
VISIBLE__ISO_
 10
750.29963000367115
 20
517.24358360717815
 30
0.0
  0
VERTEX
  5
189
  8
VISIBLE__ISO_
 10
750.79963000367115
 20
517.24358360717815
 30
0.0
 42
0.4142135623730951
  0
VERTEX
  5
18A
  8
VISIBLE__ISO_
 10
751.29963000367115
 20
517.74358360717815
 30
0.0
  0
VERTEX
  5
18B
  8
VISIBLE__ISO_
 10
751.29963000367115
 20
527.24358360717827
 30
0.0
 42
0.4142135623730951
  0
VERTEX
  5
18C
  8
VISIBLE__ISO_
 10
750.79963000367115
 20
527.74358360717827
 30
0.0
  0
VERTEX
  5
18D
  8
VISIBLE__ISO_
 10
743.29963000367115
 20
527.74358360717827
 30
0.0
 42
0.4142135623730899
  0
VERTEX
  5
18E
  8
VISIBLE__ISO_
 10
742.79963000367115
 20
527.24358360717827
 30
0.0
  0
VERTEX
  5
18F
  8
VISIBLE__ISO_
 10
742.79963000367115
 20
522.8137151357522
 30
0.0
 42
0.217126526001739
  0
VERTEX
  5
190
  8
VISIBLE__ISO_
 10
738.22340433808654
 20
520.83479638426525
 30
0.0
  0
VERTEX
  5
191
  8
VISIBLE__ISO_
 10
738.16604006253874
 20
520.74874997094355
 30
0.0
 42
-0.7420559691808113
  0
VERTEX
  5
192
  8
VISIBLE__ISO_
 10
737.79963000367115
 20
520.85969001018861
 30
0.0
  0
VERTEX
  5
193
  8
VISIBLE__ISO_
 10
737.79963000367115
 20
524.24358360717815
 30
0.0
 42
-0.2679491924311205
  0
VERTEX
  5
194
  8
VISIBLE__ISO_
 10
738.04963000367115
 20
524.67659630907031
 30
0.0
 42
0.2679491924311205
  0
VERTEX
  5
195
  8
VISIBLE__ISO_
 10
738.29963000367115
 20
525.10960901096257
 30
0.0
  0
VERTEX
  5
196
  8
VISIBLE__ISO_
 10
738.29963000367115
 20
527.24358360717827
 30
0.0
 42
0.4142135623730951
  0
VERTEX
  5
197
  8
VISIBLE__ISO_
 10
737.79963000367115
 20
527.74358360717827
 30
0.0
  0
SEQEND
  5
198
  8
VISIBLE__ISO_
  0
POLYLINE
  5
96
  8
VISIBLE__ISO_
 66
     1
 10
0.0
 20
0.0
 30
0.0
 70
     1
  0
VERTEX
  5
199
  8
VISIBLE__ISO_
 10
745.24942175197225
 20
524.96248048853545
 30
0.0
 42
0.20836333024337
  0
VERTEX
  5
19A
  8
VISIBLE__ISO_
 10
745.24942175196907
 20
523.52468672581961
 30
0.0
 42
-0.3083083640687674
  0
VERTEX
  5
19B
  8
VISIBLE__ISO_
 10
745.19700285675196
 20
523.24806324144572
 30
0.0
  0
VERTEX
  5
19C
  8
VISIBLE__ISO_
 10
744.95862582643917
 20
523.00968621113282
 30
0.0
 42
0.000329848051419
  0
VERTEX
  5
19D
  8
VISIBLE__ISO_
 10
744.96025550995842
 20
523.00712634017054
 30
0.0
 42
1.115303742943631
  0
VERTEX
  5
19E
  8
VISIBLE__ISO_
 10
745.66317273666357
 20
522.30420911346528
 30
0.0
 42
0.0003298480506184
  0
VERTEX
  5
19F
  8
VISIBLE__ISO_
 10
745.66573260762573
 20
522.30257942994615
 30
0.0
  0
VERTEX
  5
1A0
  8
VISIBLE__ISO_
 10
745.90410963793875
 20
522.54095646025917
 30
0.0
 42
-0.3083083640687048
  0
VERTEX
  5
1A1
  8
VISIBLE__ISO_
 10
746.18073312231411
 20
522.59337535547934
 30
0.0
 42
0.2083633302433588
  0
VERTEX
  5
1A2
  8
VISIBLE__ISO_
 10
747.61852688502825
 20
522.59337535547934
 30
0.0
 42
-0.3083083640687132
  0
VERTEX
  5
1A3
  8
VISIBLE__ISO_
 10
747.89515036940361
 20
522.54095646025905
 30
0.0
  0
VERTEX
  5
1A4
  8
VISIBLE__ISO_
 10
748.13352739971674
 20
522.30257942994615
 30
0.0
 42
0.0003298480505145
  0
VERTEX
  5
1A5
  8
VISIBLE__ISO_
 10
748.13608727067867
 20
522.30420911346528
 30
0.0
 42
1.1153037429437349
  0
VERTEX
  5
1A6
  8
VISIBLE__ISO_
 10
748.83900449738405
 20
523.00712634017077
 30
0.0
 42
0.000329848050745
  0
VERTEX
  5
1A7
  8
VISIBLE__ISO_
 10
748.84063418090318
 20
523.00968621113282
 30
0.0
  0
VERTEX
  5
1A8
  8
VISIBLE__ISO_
 10
748.60225715059028
 20
523.24806324144572
 30
0.0
 42
-0.3083083640687233
  0
VERTEX
  5
1A9
  8
VISIBLE__ISO_
 10
748.54983825537306
 20
523.52468672581961
 30
0.0
 42
0.2083633302433736
  0
VERTEX
  5
1AA
  8
VISIBLE__ISO_
 10
748.54983825536999
 20
524.96248048853545
 30
0.0
 42
-0.3083083640687453
  0
VERTEX
  5
1AB
  8
VISIBLE__ISO_
 10
748.60225715059028
 20
525.23910397291081
 30
0.0
  0
VERTEX
  5
1AC
  8
VISIBLE__ISO_
 10
748.84063418090318
 20
525.47748100322372
 30
0.0
 42
0.0003298480509765
  0
VERTEX
  5
1AD
  8
VISIBLE__ISO_
 10
748.83900449738405
 20
525.48004087418565
 30
0.0
 42
1.1153037429436901
  0
VERTEX
  5
1AE
  8
VISIBLE__ISO_
 10
748.13608727067867
 20
526.18295810089126
 30
0.0
 42
0.0003298480511859
  0
VERTEX
  5
1AF
  8
VISIBLE__ISO_
 10
748.13352739971674
 20
526.18458778441016
 30
0.0
  0
VERTEX
  5
1B0
  8
VISIBLE__ISO_
 10
747.89515036940361
 20
525.94621075409725
 30
0.0
 42
-0.3083083640686213
  0
VERTEX
  5
1B1
  8
VISIBLE__ISO_
 10
747.61852688502984
 20
525.89379185888015
 30
0.0
 42
0.2083633302433692
  0
VERTEX
  5
1B2
  8
VISIBLE__ISO_
 10
746.18073312231411
 20
525.89379185887708
 30
0.0
 42
-0.3083083640688881
  0
VERTEX
  5
1B3
  8
VISIBLE__ISO_
 10
745.90410963793875
 20
525.94621075409725
 30
0.0
  0
VERTEX
  5
1B4
  8
VISIBLE__ISO_
 10
745.66573260762573
 20
526.18458778441016
 30
0.0
 42
0.0003298480512919
  0
VERTEX
  5
1B5
  8
VISIBLE__ISO_
 10
745.66317273666357
 20
526.18295810089126
 30
0.0
 42
1.1153037429436901
  0
VERTEX
  5
1B6
  8
VISIBLE__ISO_
 10
744.96025550995807
 20
525.48004087418565
 30
0.0
 42
0.0003298480509757
  0
VERTEX
  5
1B7
  8
VISIBLE__ISO_
 10
744.95862582643917
 20
525.47748100322372
 30
0.0
  0
VERTEX
  5
1B8
  8
VISIBLE__ISO_
 10
745.19700285675196
 20
525.23910397291081
 30
0.0
 42
-0.3083083640687455
  0
SEQEND
  5
1B9
  8
VISIBLE__ISO_
  0
POLYLINE
  5
97
  8
VISIBLE__ISO_
 66
     1
 10
0.0
 20
0.0
 30
0.0
 70
     1
  0
VERTEX
  5
1BA
  8
VISIBLE__ISO_
 10
745.24942175197225
 20
502.462480490161
 30
0.0
 42
0.20836333024337
  0
VERTEX
  5
1BB
  8
VISIBLE__ISO_
 10
745.24942175196907
 20
501.02468672744538
 30
0.0
 42
-0.3083083640687674
  0
VERTEX
  5
1BC
  8
VISIBLE__ISO_
 10
745.19700285675196
 20
500.74806324307139
 30
0.0
  0
VERTEX
  5
1BD
  8
VISIBLE__ISO_
 10
744.95862582643917
 20
500.50968621275848
 30
0.0
 42
0.000329848051419
  0
VERTEX
  5
1BE
  8
VISIBLE__ISO_
 10
744.96025550995842
 20
500.50712634179632
 30
0.0
 42
1.115303742943631
  0
VERTEX
  5
1BF
  8
VISIBLE__ISO_
 10
745.66317273666357
 20
499.80420911509088
 30
0.0
 42
0.0003298480506184
  0
VERTEX
  5
1C0
  8
VISIBLE__ISO_
 10
745.66573260762573
 20
499.80257943157193
 30
0.0
  0
VERTEX
  5
1C1
  8
VISIBLE__ISO_
 10
745.90410963793875
 20
500.04095646188478
 30
0.0
 42
-0.3083083640687048
  0
VERTEX
  5
1C2
  8
VISIBLE__ISO_
 10
746.18073312231411
 20
500.093375357105
 30
0.0
 42
0.2083633302433588
  0
VERTEX
  5
1C3
  8
VISIBLE__ISO_
 10
747.61852688502825
 20
500.093375357105
 30
0.0
 42
-0.3083083640687132
  0
VERTEX
  5
1C4
  8
VISIBLE__ISO_
 10
747.89515036940361
 20
500.04095646188478
 30
0.0
  0
VERTEX
  5
1C5
  8
VISIBLE__ISO_
 10
748.13352739971674
 20
499.80257943157193
 30
0.0
 42
0.0003298480505145
  0
VERTEX
  5
1C6
  8
VISIBLE__ISO_
 10
748.13608727067867
 20
499.80420911509088
 30
0.0
 42
1.1153037429437349
  0
VERTEX
  5
1C7
  8
VISIBLE__ISO_
 10
748.83900449738405
 20
500.50712634179638
 30
0.0
 42
0.000329848050745
  0
VERTEX
  5
1C8
  8
VISIBLE__ISO_
 10
748.84063418090318
 20
500.50968621275848
 30
0.0
  0
VERTEX
  5
1C9
  8
VISIBLE__ISO_
 10
748.60225715059028
 20
500.74806324307139
 30
0.0
 42
-0.3083083640687233
  0
VERTEX
  5
1CA
  8
VISIBLE__ISO_
 10
748.54983825537306
 20
501.02468672744538
 30
0.0
 42
0.2083633302433736
  0
VERTEX
  5
1CB
  8
VISIBLE__ISO_
 10
748.54983825536999
 20
502.46248049016111
 30
0.0
 42
-0.3083083640687453
  0
VERTEX
  5
1CC
  8
VISIBLE__ISO_
 10
748.60225715059028
 20
502.73910397453642
 30
0.0
  0
VERTEX
  5
1CD
  8
VISIBLE__ISO_
 10
748.84063418090318
 20
502.97748100484938
 30
0.0
 42
0.0003298480509765
  0
VERTEX
  5
1CE
  8
VISIBLE__ISO_
 10
748.83900449738405
 20
502.98004087581148
 30
0.0
 42
1.1153037429436901
  0
VERTEX
  5
1CF
  8
VISIBLE__ISO_
 10
748.13608727067867
 20
503.68295810251681
 30
0.0
 42
0.0003298480511859
  0
VERTEX
  5
1D0
  8
VISIBLE__ISO_
 10
748.13352739971674
 20
503.68458778603588
 30
0.0
  0
VERTEX
  5
1D1
  8
VISIBLE__ISO_
 10
747.89515036940361
 20
503.44621075572297
 30
0.0
 42
-0.3083083640686213
  0
VERTEX
  5
1D2
  8
VISIBLE__ISO_
 10
747.61852688502984
 20
503.39379186050581
 30
0.0
 42
0.2083633302433692
  0
VERTEX
  5
1D3
  8
VISIBLE__ISO_
 10
746.18073312231411
 20
503.3937918605028
 30
0.0
 42
-0.3083083640688881
  0
VERTEX
  5
1D4
  8
VISIBLE__ISO_
 10
745.90410963793875
 20
503.44621075572297
 30
0.0
  0
VERTEX
  5
1D5
  8
VISIBLE__ISO_
 10
745.66573260762573
 20
503.68458778603588
 30
0.0
 42
0.0003298480512919
  0
VERTEX
  5
1D6
  8
VISIBLE__ISO_
 10
745.66317273666357
 20
503.68295810251681
 30
0.0
 42
1.1153037429436901
  0
VERTEX
  5
1D7
  8
VISIBLE__ISO_
 10
744.96025550995807
 20
502.98004087581148
 30
0.0
 42
0.0003298480509757
  0
VERTEX
  5
1D8
  8
VISIBLE__ISO_
 10
744.95862582643917
 20
502.97748100484938
 30
0.0
  0
VERTEX
  5
1D9
  8
VISIBLE__ISO_
 10
745.19700285675196
 20
502.73910397453648
 30
0.0
 42
-0.3083083640687455
  0
SEQEND
  5
1DA
  8
VISIBLE__ISO_
  0
ENDSEC
  0
EOF
