  0
SECTION
  2
HEADER
  9
$ACADVER
  1
AC1009
  9
$INSBASE
 10
0.0
 20
0.0
 30
0.0
  9
$EXTMIN
 10
719.5870989835671
 20
448.55447509064629
 30
-0.0015258207003583
  9
$EXTMAX
 10
869.74273831786445
 20
538.69317724240614
 30
0.0000000349246037
  9
$LIMMIN
 10
0.0
 20
0.0
  9
$LIMMAX
 10
420.0
 20
297.0
  9
$ORTHOMODE
 70
     0
  9
$REGENMODE
 70
     1
  9
$FILLMODE
 70
     1
  9
$QTEXTMODE
 70
     0
  9
$MIRRTEXT
 70
     0
  9
$DRAGMODE
 70
     2
  9
$LTSCALE
 40
1.0
  9
$OSMODE
 70
  3071
  9
$ATTMODE
 70
     1
  9
$TEXTSIZE
 40
2.5
  9
$TRACEWID
 40
1.0
  9
$TEXTSTYLE
  7
STANDARD
  9
$CLAYER
  8
0
  9
$CELTYPE
  6
BYLAYER
  9
$CECOLOR
 62
   256
  9
$DIMSCALE
 40
1.0
  9
$DIMASZ
 40
2.5
  9
$DIMEXO
 40
0.625
  9
$DIMDLI
 40
3.75
  9
$DIMRND
 40
0.0
  9
$DIMDLE
 40
0.0
  9
$DIMEXE
 40
1.25
  9
$DIMTP
 40
0.0
  9
$DIMTM
 40
0.0
  9
$DIMTXT
 40
2.5
  9
$DIMCEN
 40
2.5
  9
$DIMTSZ
 40
0.0
  9
$DIMTOL
 70
     0
  9
$DIMLIM
 70
     0
  9
$DIMTIH
 70
     0
  9
$DIMTOH
 70
     0
  9
$DIMSE1
 70
     0
  9
$DIMSE2
 70
     0
  9
$DIMTAD
 70
     1
  9
$DIMZIN
 70
     8
  9
$DIMBLK
  1

  9
$DIMASO
 70
     1
  9
$DIMSHO
 70
     1
  9
$DIMPOST
  1

  9
$DIMAPOST
  1

  9
$DIMALT
 70
     0
  9
$DIMALTD
 70
     3
  9
$DIMALTF
 40
0.03937007874016
  9
$DIMLFAC
 40
1.0
  9
$DIMTOFL
 70
     1
  9
$DIMTVP
 40
0.0
  9
$DIMTIX
 70
     0
  9
$DIMSOXD
 70
     0
  9
$DIMSAH
 70
     0
  9
$DIMBLK1
  1

  9
$DIMBLK2
  1

  9
$DIMSTYLE
  2
ISO-25
  9
$DIMCLRD
 70
     0
  9
$DIMCLRE
 70
     0
  9
$DIMCLRT
 70
     0
  9
$DIMTFAC
 40
1.0
  9
$DIMGAP
 40
0.625
  9
$LUNITS
 70
     2
  9
$LUPREC
 70
     4
  9
$SKETCHINC
 40
1.0
  9
$FILLETRAD
 40
0.0
  9
$AUNITS
 70
     0
  9
$AUPREC
 70
     0
  9
$MENU
  1
.
  9
$ELEVATION
 40
0.0
  9
$PELEVATION
 40
0.0
  9
$THICKNESS
 40
0.0
  9
$LIMCHECK
 70
     0
  9
$BLIPMODE
 70
     0
  9
$CHAMFERA
 40
0.0
  9
$CHAMFERB
 40
0.0
  9
$SKPOLY
 70
     0
  9
$TDCREATE
 40
2455225.6581676039
  9
$TDUPDATE
 40
2455225.6583443172
  9
$TDINDWG
 40
0.0001770718
  9
$TDUSRTIMER
 40
0.0001768866
  9
$USRTIMER
 70
     1
  9
$ANGBASE
 50
0.0
  9
$ANGDIR
 70
     0
  9
$PDMODE
 70
     0
  9
$PDSIZE
 40
0.0
  9
$PLINEWID
 40
0.0
  9
$COORDS
 70
     1
  9
$SPLFRAME
 70
     0
  9
$SPLINETYPE
 70
     6
  9
$SPLINESEGS
 70
     8
  9
$ATTDIA
 70
     0
  9
$ATTREQ
 70
     1
  9
$HANDLING
 70
     1
  9
$HANDSEED
  5
257
  9
$SURFTAB1
 70
     6
  9
$SURFTAB2
 70
     6
  9
$SURFTYPE
 70
     6
  9
$SURFU
 70
     6
  9
$SURFV
 70
     6
  9
$UCSNAME
  2

  9
$UCSORG
 10
0.0
 20
0.0
 30
0.0
  9
$UCSXDIR
 10
1.0
 20
0.0
 30
0.0
  9
$UCSYDIR
 10
0.0
 20
1.0
 30
0.0
  9
$PUCSNAME
  2

  9
$PUCSORG
 10
0.0
 20
0.0
 30
0.0
  9
$PUCSXDIR
 10
1.0
 20
0.0
 30
0.0
  9
$PUCSYDIR
 10
0.0
 20
1.0
 30
0.0
  9
$USERI1
 70
     0
  9
$USERI2
 70
     0
  9
$USERI3
 70
     0
  9
$USERI4
 70
     0
  9
$USERI5
 70
     0
  9
$USERR1
 40
0.0
  9
$USERR2
 40
0.0
  9
$USERR3
 40
0.0
  9
$USERR4
 40
0.0
  9
$USERR5
 40
0.0
  9
$WORLDVIEW
 70
     1
  9
$SHADEDGE
 70
     3
  9
$SHADEDIF
 70
    70
  9
$TILEMODE
 70
     1
  9
$MAXACTVP
 70
    64
  9
$PLIMCHECK
 70
     0
  9
$PEXTMIN
 10
0.0
 20
0.0
 30
0.0
  9
$PEXTMAX
 10
0.0
 20
0.0
 30
0.0
  9
$PLIMMIN
 10
0.0
 20
0.0
  9
$PLIMMAX
 10
12.0
 20
9.0
  9
$UNITMODE
 70
     0
  9
$VISRETAIN
 70
     1
  9
$PLINEGEN
 70
     0
  9
$PSLTSCALE
 70
     1
  0
ENDSEC
  0
SECTION
  2
TABLES
  0
TABLE
  2
VPORT
 70
     2
  0
VPORT
  2
*ACTIVE
 70
     0
 10
0.0
 20
0.0
 11
1.0
 21
1.0
 12
794.66491865071578
 22
493.62382616652621
 13
0.0
 23
0.0
 14
10.0
 24
10.0
 15
10.0
 25
10.0
 16
0.0
 26
0.0
 36
1.0
 17
0.0
 27
0.0
 37
0.0
 40
91.106201638182995
 41
2.0681003584229392
 42
50.0
 43
0.0
 44
0.0
 50
0.0
 51
0.0
 71
     0
 72
  1000
 73
     1
 74
     3
 75
     0
 76
     0
 77
     0
 78
     0
  0
ENDTAB
  0
TABLE
  2
LTYPE
 70
     1
  0
LTYPE
  2
CONTINUOUS
 70
     0
  3
Solid line
 72
    65
 73
     0
 40
0.0
  0
ENDTAB
  0
TABLE
  2
LAYER
 70
     1
  0
LAYER
  2
0
 70
     0
 62
     7
  6
CONTINUOUS
  0
ENDTAB
  0
TABLE
  2
STYLE
 70
     2
  0
STYLE
  2
STANDARD
 70
     0
 40
0.0
 41
1.0
 50
0.0
 71
     0
 42
2.5
  3
txt
  4

  0
STYLE
  2
ROMANT
 70
     0
 40
2.5
 41
1.0
 50
15.0
 71
     0
 42
2.5
  3
romant.shx
  4

  0
ENDTAB
  0
TABLE
  2
VIEW
 70
     0
  0
ENDTAB
  0
TABLE
  2
UCS
 70
     0
  0
ENDTAB
  0
TABLE
  2
APPID
 70
     1
  0
APPID
  2
ACAD
 70
     0
  0
ENDTAB
  0
TABLE
  2
DIMSTYLE
 70
     2
  0
DIMSTYLE
  2
ISO-25
 70
     0
  3

  4

  5

  6

  7

 40
1.0
 41
2.5
 42
0.625
 43
3.75
 44
1.25
 45
0.0
 46
0.0
 47
0.0
 48
0.0
140
2.5
141
2.5
142
0.0
143
0.03937007874016
144
1.0
145
0.0
146
1.0
147
0.625
 71
     0
 72
     0
 73
     0
 74
     0
 75
     0
 76
     0
 77
     1
 78
     8
170
     0
171
     3
172
     1
173
     0
174
     0
175
     0
176
     0
177
     0
178
     0
  0
DIMSTYLE
  2
ISO-25_1_E_1
 70
     0
  3

  4

  5

  6

  7

 40
1.0
 41
2.5
 42
0.0
 43
3.75
 44
0.5
 45
0.0
 46
0.0
 47
0.0
 48
0.0
140
1.0
141
0.2
142
0.0
143
0.03937007874016
144
1.0
145
0.0
146
1.0
147
0.4
 71
     0
 72
     0
 73
     0
 74
     0
 75
     0
 76
     0
 77
     1
 78
     8
170
     0
171
     3
172
     0
173
     0
174
     0
175
     0
176
   242
177
   242
178
   242
  0
ENDTAB
  0
ENDSEC
  0
SECTION
  2
BLOCKS
  0
BLOCK
  8
0
  2
$MODEL_SPACE
 70
     0
 10
0.0
 20
0.0
 30
0.0
  3
$MODEL_SPACE
  1

  0
ENDBLK
  5
21
  8
0
  0
BLOCK
 67
     1
  8
0
  2
$PAPER_SPACE
 70
     0
 10
0.0
 20
0.0
 30
0.0
  3
$PAPER_SPACE
  1

  0
ENDBLK
  5
53
 67
     1
  8
0
  0
BLOCK
  8
0
  2
*X2
 70
     1
 10
0.0
 20
0.0
 30
0.0
  3
*X2
  1

  0
LINE
  5
CB
  8
0
 62
     0
 10
148.62409265151459
 20
29.999999284955489
 30
0.0
 11
149.99999966289269
 21
31.3759062963336
 31
0.0
  0
LINE
  5
CC
  8
0
 62
     0
 10
118.6240926515146
 20
-0.0000007150445072
 30
0.0
 11
119.9999996628929
 21
1.3759062963340509
 31
0.0
  0
LINE
  5
CD
  8
0
 62
     0
 10
147.27705423335391
 20
29.999999284955489
 30
0.0
 11
149.27705423335399
 21
31.999999284955489
 31
0.0
  0
LINE
  5
CE
  8
0
 62
     0
 10
117.27705423335389
 20
-0.0000007150447345
 30
0.0
 11
119.999999662893
 21
2.7229447144943602
 31
0.0
  0
LINE
  5
CF
  8
0
 62
     0
 10
117.99999966289261
 20
2.0699831326544418
 30
0.0
 11
119.9999996628928
 21
4.06998313265467
 31
0.0
  0
LINE
  5
D0
  8
0
 62
     0
 10
145.9300158151936
 20
29.999999284955489
 30
0.0
 11
147.9300158151936
 21
31.999999284955489
 31
0.0
  0
LINE
  5
D1
  8
0
 62
     0
 10
115.9300158151936
 20
-0.0000007150445072
 30
0.0
 11
117.9300158151936
 21
1.999999284955492
 31
0.0
  0
LINE
  5
D2
  8
0
 62
     0
 10
117.99999966289251
 20
3.4170215508147521
 30
0.0
 11
119.9999996628929
 21
5.4170215508149786
 31
0.0
  0
LINE
  5
D3
  8
0
 62
     0
 10
144.5829773970334
 20
29.999999284955489
 30
0.0
 11
146.5829773970334
 21
31.999999284955489
 31
0.0
  0
LINE
  5
D4
  8
0
 62
     0
 10
114.5829773970334
 20
-0.0000007150445072
 30
0.0
 11
116.5829773970334
 21
1.999999284955492
 31
0.0
  0
LINE
  5
D5
  8
0
 62
     0
 10
117.99999966289261
 20
4.7640599689752881
 30
0.0
 11
119.999999662893
 21
6.7640599689755163
 31
0.0
  0
LINE
  5
D6
  8
0
 62
     0
 10
143.23593897887281
 20
29.999999284955258
 30
0.0
 11
145.23593897887281
 21
31.999999284955489
 31
0.0
  0
LINE
  5
D7
  8
0
 62
     0
 10
113.23593897887299
 20
-0.0000007150445072
 30
0.0
 11
115.23593897887299
 21
1.999999284955492
 31
0.0
  0
LINE
  5
D8
  8
0
 62
     0
 10
117.99999966289261
 20
6.1110983871355984
 30
0.0
 11
119.9999996628928
 21
8.1110983871358258
 31
0.0
  0
LINE
  5
D9
  8
0
 62
     0
 10
141.8889005607125
 20
29.999999284955489
 30
0.0
 11
143.8889005607125
 21
31.999999284955489
 31
0.0
  0
LINE
  5
DA
  8
0
 62
     0
 10
111.8889005607125
 20
-0.0000007150445072
 30
0.0
 11
113.8889005607125
 21
1.999999284955492
 31
0.0
  0
LINE
  5
DB
  8
0
 62
     0
 10
117.99999966289271
 20
7.4581368052959069
 30
0.0
 11
119.9999996628929
 21
9.4581368052961352
 31
0.0
  0
LINE
  5
DC
  8
0
 62
     0
 10
140.5418621425523
 20
29.999999284955489
 30
0.0
 11
142.5418621425523
 21
31.999999284955489
 31
0.0
  0
LINE
  5
DD
  8
0
 62
     0
 10
110.54186214255211
 20
-0.0000007150445072
 30
0.0
 11
112.54186214255211
 21
1.999999284955492
 31
0.0
  0
LINE
  5
DE
  8
0
 62
     0
 10
117.99999966289261
 20
8.8051752234562173
 30
0.0
 11
119.9999996628928
 21
10.80517522345667
 31
0.0
  0
LINE
  5
DF
  8
0
 62
     0
 10
139.19482372439211
 20
29.99999928495572
 30
0.0
 11
141.19482372439211
 21
31.99999928495572
 31
0.0
  0
LINE
  5
E0
  8
0
 62
     0
 10
109.1948237243919
 20
-0.0000007150445072
 30
0.0
 11
111.1948237243919
 21
1.999999284955492
 31
0.0
  0
LINE
  5
E1
  8
0
 62
     0
 10
117.99999966289261
 20
10.152213641616751
 30
0.0
 11
119.9999996628928
 21
12.15221364161698
 31
0.0
  0
LINE
  5
E2
  8
0
 62
     0
 10
137.84778530623129
 20
29.999999284955489
 30
0.0
 11
139.84778530623129
 21
31.999999284955489
 31
0.0
  0
LINE
  5
E3
  8
0
 62
     0
 10
107.8477853062311
 20
-0.0000007150445072
 30
0.0
 11
109.8477853062313
 21
1.999999284955492
 31
0.0
  0
LINE
  5
E4
  8
0
 62
     0
 10
117.9999996628928
 20
11.49925205977706
 30
0.0
 11
119.9999996628928
 21
13.499252059777289
 31
0.0
  0
LINE
  5
E5
  8
0
 62
     0
 10
136.50074688807121
 20
29.999999284955489
 30
0.0
 11
138.50074688807121
 21
31.999999284955489
 31
0.0
  0
LINE
  5
E6
  8
0
 62
     0
 10
106.50074688807101
 20
-0.0000007150445072
 30
0.0
 11
108.50074688807101
 21
1.999999284955492
 31
0.0
  0
LINE
  5
E7
  8
0
 62
     0
 10
117.99999966289261
 20
12.846290477937369
 30
0.0
 11
119.9999996628928
 21
14.8462904779376
 31
0.0
  0
LINE
  5
E8
  8
0
 62
     0
 10
135.1537084699107
 20
29.99999928495572
 30
0.0
 11
137.1537084699107
 21
31.99999928495572
 31
0.0
  0
LINE
  5
E9
  8
0
 62
     0
 10
105.1537084699107
 20
-0.0000007150445072
 30
0.0
 11
107.1537084699107
 21
1.999999284955492
 31
0.0
  0
LINE
  5
EA
  8
0
 62
     0
 10
117.99999966289271
 20
14.193328896097681
 30
0.0
 11
119.99999966289271
 21
16.193328896097679
 31
0.0
  0
LINE
  5
EB
  8
0
 62
     0
 10
133.8066700517503
 20
29.999999284955258
 30
0.0
 11
135.8066700517503
 21
31.999999284955269
 31
0.0
  0
LINE
  5
EC
  8
0
 62
     0
 10
103.8066700517503
 20
-0.0000007150447345
 30
0.0
 11
105.8066700517503
 21
1.999999284955265
 31
0.0
  0
LINE
  5
ED
  8
0
 62
     0
 10
117.99999966289261
 20
15.54036731425799
 30
0.0
 11
119.9999996628928
 21
17.540367314258219
 31
0.0
  0
LINE
  5
EE
  8
0
 62
     0
 10
132.45963163358991
 20
29.999999284955489
 30
0.0
 11
134.45963163359011
 21
31.999999284955489
 31
0.0
  0
LINE
  5
EF
  8
0
 62
     0
 10
102.45963163358989
 20
-0.0000007150447345
 30
0.0
 11
104.45963163358989
 21
1.999999284955265
 31
0.0
  0
LINE
  5
F0
  8
0
 62
     0
 10
117.99999966289261
 20
16.887405732418301
 30
0.0
 11
119.99999966289261
 21
18.887405732418301
 31
0.0
  0
LINE
  5
F1
  8
0
 62
     0
 10
131.11259321542951
 20
29.999999284955258
 30
0.0
 11
133.11259321542951
 21
31.999999284955489
 31
0.0
  0
LINE
  5
F2
  8
0
 62
     0
 10
101.1125932154296
 20
-0.0000007150447345
 30
0.0
 11
103.1125932154296
 21
1.999999284955265
 31
0.0
  0
LINE
  5
F3
  8
0
 62
     0
 10
117.99999966289251
 20
18.234444150578842
 30
0.0
 11
119.99999966289271
 21
20.234444150578842
 31
0.0
  0
LINE
  5
F4
  8
0
 62
     0
 10
129.76555479726909
 20
29.999999284955258
 30
0.0
 11
131.76555479726909
 21
31.999999284955269
 31
0.0
  0
LINE
  5
F5
  8
0
 62
     0
 10
99.765554797269374
 20
-0.0000007150445072
 30
0.0
 11
101.7655547972694
 21
1.999999284955492
 31
0.0
  0
LINE
  5
F6
  8
0
 62
     0
 10
117.99999966289261
 20
19.581482568739371
 30
0.0
 11
119.99999966289261
 21
21.581482568739371
 31
0.0
  0
LINE
  5
F7
  8
0
 62
     0
 10
128.41851637910869
 20
29.999999284955489
 30
0.0
 11
130.41851637910869
 21
31.999999284955489
 31
0.0
  0
LINE
  5
F8
  8
0
 62
     0
 10
98.418516379108951
 20
-0.0000007150445072
 30
0.0
 11
100.41851637910869
 21
1.999999284955265
 31
0.0
  0
LINE
  5
F9
  8
0
 62
     0
 10
117.99999966289261
 20
20.928520986899461
 30
0.0
 11
119.99999966289261
 21
22.928520986899681
 31
0.0
  0
LINE
  5
FA
  8
0
 62
     0
 10
127.0714779609484
 20
29.999999284955258
 30
0.0
 11
129.07147796094841
 21
31.999999284955269
 31
0.0
  0
LINE
  5
FB
  8
0
 62
     0
 10
97.071477960948414
 20
-0.0000007150447345
 30
0.0
 11
99.071477960948414
 21
1.999999284955265
 31
0.0
  0
LINE
  5
FC
  8
0
 62
     0
 10
117.99999966289251
 20
22.27555940505999
 30
0.0
 11
119.99999966289271
 21
24.275559405060001
 31
0.0
  0
LINE
  5
FD
  8
0
 62
     0
 10
125.7244395427882
 20
29.999999284955489
 30
0.0
 11
127.7244395427882
 21
31.999999284955489
 31
0.0
  0
LINE
  5
FE
  8
0
 62
     0
 10
95.724439542787991
 20
-0.0000007150445072
 30
0.0
 11
97.724439542788218
 21
1.999999284955492
 31
0.0
  0
LINE
  5
FF
  8
0
 62
     0
 10
117.99999966289261
 20
23.622597823220531
 30
0.0
 11
119.99999966289261
 21
25.622597823220531
 31
0.0
  0
LINE
  5
100
  8
0
 62
     0
 10
124.3774011246275
 20
29.999999284955258
 30
0.0
 11
126.3774011246275
 21
31.999999284955269
 31
0.0
  0
LINE
  5
101
  8
0
 62
     0
 10
94.377401124627795
 20
-0.0000007150445072
 30
0.0
 11
96.377401124627795
 21
1.999999284955492
 31
0.0
  0
LINE
  5
102
  8
0
 62
     0
 10
117.99999966289261
 20
24.969636241380609
 30
0.0
 11
119.99999966289261
 21
26.969636241380609
 31
0.0
  0
LINE
  5
103
  8
0
 62
     0
 10
123.0303627064672
 20
29.999999284955258
 30
0.0
 11
125.0303627064672
 21
31.999999284955269
 31
0.0
  0
LINE
  5
104
  8
0
 62
     0
 10
93.030362706467258
 20
-0.0000007150445072
 30
0.0
 11
95.030362706467258
 21
1.999999284955265
 31
0.0
  0
LINE
  5
105
  8
0
 62
     0
 10
121.68332428830711
 20
29.999999284955489
 30
0.0
 11
123.68332428830711
 21
31.999999284955489
 31
0.0
  0
LINE
  5
106
  8
0
 62
     0
 10
117.9999996628928
 20
26.31667465954115
 30
0.0
 11
119.9999996628928
 21
28.31667465954115
 31
0.0
  0
LINE
  5
107
  8
0
 62
     0
 10
149.68332428830689
 20
57.999999284955493
 30
0.0
 11
149.9999996628928
 21
58.31667465954115
 31
0.0
  0
LINE
  5
108
  8
0
 62
     0
 10
91.683324288306935
 20
-0.0000007150445072
 30
0.0
 11
93.683324288306949
 21
1.999999284955492
 31
0.0
  0
LINE
  5
109
  8
0
 62
     0
 10
117.9999996628928
 20
27.66371307770169
 30
0.0
 11
122.3362858701464
 21
31.999999284955269
 31
0.0
  0
LINE
  5
10A
  8
0
 62
     0
 10
148.33628587014661
 20
57.999999284955493
 30
0.0
 11
149.999999662893
 21
59.663713077701921
 31
0.0
  0
LINE
  5
10B
  8
0
 62
     0
 10
90.336285870146412
 20
-0.0000007150445072
 30
0.0
 11
92.336285870146398
 21
1.999999284955492
 31
0.0
  0
LINE
  5
10C
  8
0
 62
     0
 10
117.99999966289261
 20
29.010751495861768
 30
0.0
 11
120.98930464532209
 21
32.000056478291299
 31
0.0
  0
LINE
  5
10D
  8
0
 62
     0
 10
146.98924745198579
 20
57.999999284955273
 30
0.0
 11
148.9892474519859
 21
59.999999284955258
 31
0.0
  0
LINE
  5
10E
  8
0
 62
     0
 10
88.989247451986117
 20
-0.0000007150447345
 30
0.0
 11
90.989247451986103
 21
1.999999284955265
 31
0.0
  0
LINE
  5
10F
  8
0
 62
     0
 10
117.99999966289261
 20
30.357789914022081
 30
0.0
 11
120.1370016759204
 21
32.494791927049853
 31
0.0
  0
LINE
  5
110
  8
0
 62
     0
 10
145.64220903382579
 20
57.999999284955273
 30
0.0
 11
147.64220903382579
 21
59.999999284955258
 31
0.0
  0
LINE
  5
111
  8
0
 62
     0
 10
87.642209033825793
 20
-0.0000007150447345
 30
0.0
 11
89.642209033825793
 21
1.999999284955492
 31
0.0
  0
LINE
  5
112
  8
0
 62
     0
 10
117.99999966289261
 20
31.704828332182618
 30
0.0
 11
119.9999996628928
 21
33.704828332182849
 31
0.0
  0
LINE
  5
113
  8
0
 62
     0
 10
144.2951706156654
 20
57.999999284955493
 30
0.0
 11
146.29517061566551
 21
59.999999284955493
 31
0.0
  0
LINE
  5
114
  8
0
 62
     0
 10
86.295170615665484
 20
-0.0000007150445072
 30
0.0
 11
88.295170615665484
 21
1.999999284955492
 31
0.0
  0
LINE
  5
115
  8
0
 62
     0
 10
117.99999966289271
 20
33.051866750342917
 30
0.0
 11
119.99999966289271
 21
35.051866750342931
 31
0.0
  0
LINE
  5
116
  8
0
 62
     0
 10
142.94813219750529
 20
57.999999284955493
 30
0.0
 11
144.9481321975048
 21
59.999999284955258
 31
0.0
  0
LINE
  5
117
  8
0
 62
     0
 10
84.948132197505061
 20
-0.0000007150447345
 30
0.0
 11
86.948132197505046
 21
1.999999284955265
 31
0.0
  0
LINE
  5
118
  8
0
 62
     0
 10
117.99999966289261
 20
34.398905168503227
 30
0.0
 11
119.99999966289261
 21
36.398905168503241
 31
0.0
  0
LINE
  5
119
  8
0
 62
     0
 10
141.60109377934461
 20
57.999999284955273
 30
0.0
 11
143.60109377934461
 21
59.999999284955258
 31
0.0
  0
LINE
  5
11A
  8
0
 62
     0
 10
83.601093779344865
 20
-0.0000007150445072
 30
0.0
 11
85.601093779344865
 21
1.999999284955492
 31
0.0
  0
LINE
  5
11B
  8
0
 62
     0
 10
117.99999966289261
 20
35.74594358666377
 30
0.0
 11
119.99999966289261
 21
37.74594358666377
 31
0.0
  0
LINE
  5
11C
  8
0
 62
     0
 10
140.2540553611843
 20
57.999999284955493
 30
0.0
 11
142.2540553611843
 21
59.999999284955493
 31
0.0
  0
LINE
  5
11D
  8
0
 62
     0
 10
82.254055361184328
 20
-0.0000007150445072
 30
0.0
 11
84.254055361184314
 21
1.999999284955492
 31
0.0
  0
LINE
  5
11E
  8
0
 62
     0
 10
117.99999966289271
 20
37.09298200482408
 30
0.0
 11
119.99999966289271
 21
39.09298200482408
 31
0.0
  0
LINE
  5
11F
  8
0
 62
     0
 10
138.9070169430241
 20
57.999999284955493
 30
0.0
 11
140.9070169430241
 21
59.999999284955493
 31
0.0
  0
LINE
  5
120
  8
0
 62
     0
 10
80.907016943023905
 20
-0.0000007150447345
 30
0.0
 11
82.907016943023905
 21
1.999999284955265
 31
0.0
  0
LINE
  5
121
  8
0
 62
     0
 10
117.99999966289261
 20
38.440020422984617
 30
0.0
 11
119.99999966289261
 21
40.44002042298461
 31
0.0
  0
LINE
  5
122
  8
0
 62
     0
 10
137.55997852486371
 20
57.999999284955493
 30
0.0
 11
139.55997852486351
 21
59.999999284955258
 31
0.0
  0
LINE
  5
123
  8
0
 62
     0
 10
79.559978524863709
 20
-0.0000007150445072
 30
0.0
 11
81.559978524863695
 21
1.999999284955492
 31
0.0
  0
LINE
  5
124
  8
0
 62
     0
 10
117.99999966289261
 20
39.787058841144933
 30
0.0
 11
119.99999966289261
 21
41.787058841144919
 31
0.0
  0
LINE
  5
125
  8
0
 62
     0
 10
136.21294010670309
 20
57.999999284955493
 30
0.0
 11
138.21294010670309
 21
59.999999284955493
 31
0.0
  0
LINE
  5
126
  8
0
 62
     0
 10
78.212940106703172
 20
-0.0000007150442798
 30
0.0
 11
80.212940106703172
 21
1.999999284955492
 31
0.0
  0
LINE
  5
127
  8
0
 62
     0
 10
117.99999966289271
 20
41.134097259305229
 30
0.0
 11
119.99999966289271
 21
43.134097259305463
 31
0.0
  0
LINE
  5
128
  8
0
 62
     0
 10
134.86590168854269
 20
57.999999284955493
 30
0.0
 11
136.86590168854269
 21
59.999999284955493
 31
0.0
  0
LINE
  5
129
  8
0
 62
     0
 10
76.865901688542749
 20
-0.0000007150445072
 30
0.0
 11
78.865901688542749
 21
1.999999284955492
 31
0.0
  0
LINE
  5
12A
  8
0
 62
     0
 10
117.99999966289261
 20
42.481135677465772
 30
0.0
 11
119.9999996628928
 21
44.481135677465772
 31
0.0
  0
LINE
  5
12B
  8
0
 62
     0
 10
133.5188632703825
 20
57.999999284955493
 30
0.0
 11
135.5188632703825
 21
59.999999284955493
 31
0.0
  0
LINE
  5
12C
  8
0
 62
     0
 10
75.518863270382326
 20
-0.0000007150445072
 30
0.0
 11
77.518863270382553
 21
1.999999284955492
 31
0.0
  0
LINE
  5
12D
  8
0
 62
     0
 10
117.99999966289261
 20
43.828174095626082
 30
0.0
 11
119.99999966289261
 21
45.828174095626082
 31
0.0
  0
LINE
  5
12E
  8
0
 62
     0
 10
132.17182485222179
 20
57.999999284955493
 30
0.0
 11
134.17182485222199
 21
59.999999284955493
 31
0.0
  0
LINE
  5
12F
  8
0
 62
     0
 10
74.171824852222016
 20
-0.0000007150445072
 30
0.0
 11
76.171824852222016
 21
1.99999928495572
 31
0.0
  0
LINE
  5
130
  8
0
 62
     0
 10
117.9999996628928
 20
45.175212513786391
 30
0.0
 11
119.99999966289261
 21
47.175212513786157
 31
0.0
  0
LINE
  5
131
  8
0
 62
     0
 10
130.82478643406171
 20
57.999999284955273
 30
0.0
 11
132.82478643406171
 21
59.999999284955493
 31
0.0
  0
LINE
  5
132
  8
0
 62
     0
 10
72.824786434061707
 20
-0.0000007150445072
 30
0.0
 11
74.824786434061707
 21
1.999999284955492
 31
0.0
  0
LINE
  5
133
  8
0
 62
     0
 10
117.9999996628928
 20
46.522250931946928
 30
0.0
 11
119.9999996628928
 21
48.522250931946928
 31
0.0
  0
LINE
  5
134
  8
0
 62
     0
 10
129.4777480159014
 20
57.999999284955493
 30
0.0
 11
131.4777480159014
 21
59.999999284955493
 31
0.0
  0
LINE
  5
135
  8
0
 62
     0
 10
71.477748015901398
 20
-0.0000007150445072
 30
0.0
 11
73.47774801590117
 21
1.999999284955492
 31
0.0
  0
LINE
  5
136
  8
0
 62
     0
 10
117.99999966289271
 20
47.86928935010701
 30
0.0
 11
119.99999966289271
 21
49.86928935010701
 31
0.0
  0
LINE
  5
137
  8
0
 62
     0
 10
128.13070959774069
 20
57.999999284955273
 30
0.0
 11
130.13070959774069
 21
59.999999284955258
 31
0.0
  0
LINE
  5
138
  8
0
 62
     0
 10
70.130709597740974
 20
-0.0000007150447345
 30
0.0
 11
72.130709597740974
 21
1.999999284955265
 31
0.0
  0
LINE
  5
139
  8
0
 62
     0
 10
117.99999966289261
 20
49.21632776826732
 30
0.0
 11
119.99999966289261
 21
51.21632776826732
 31
0.0
  0
LINE
  5
13A
  8
0
 62
     0
 10
126.78367117958049
 20
57.999999284955273
 30
0.0
 11
128.78367117958049
 21
59.999999284955258
 31
0.0
  0
LINE
  5
13B
  8
0
 62
     0
 10
68.783671179580764
 20
-0.0000007150445072
 30
0.0
 11
70.783671179580779
 21
1.999999284955492
 31
0.0
  0
LINE
  5
13C
  8
0
 62
     0
 10
117.99999966289261
 20
50.563366186427629
 30
0.0
 11
119.99999966289261
 21
52.563366186427622
 31
0.0
  0
LINE
  5
13D
  8
0
 62
     0
 10
125.4366327614202
 20
57.999999284955273
 30
0.0
 11
127.4366327614202
 21
59.999999284955258
 31
0.0
  0
LINE
  5
13E
  8
0
 62
     0
 10
67.436632761420242
 20
-0.0000007150447345
 30
0.0
 11
69.436632761420242
 21
1.999999284955265
 31
0.0
  0
LINE
  5
13F
  8
0
 62
     0
 10
117.99999966289271
 20
51.910404604588159
 30
0.0
 11
119.99999966289271
 21
53.910404604588173
 31
0.0
  0
LINE
  5
140
  8
0
 62
     0
 10
124.08959434326
 20
57.999999284955493
 30
0.0
 11
126.08959434325961
 21
59.999999284955038
 31
0.0
  0
LINE
  5
141
  8
0
 62
     0
 10
66.089594343259805
 20
-0.0000007150447345
 30
0.0
 11
68.089594343259819
 21
1.999999284955265
 31
0.0
  0
LINE
  5
142
  8
0
 62
     0
 10
117.99999966289261
 20
53.257443022748483
 30
0.0
 11
119.99999966289261
 21
55.257443022748703
 31
0.0
  0
LINE
  5
143
  8
0
 62
     0
 10
122.7425559250994
 20
57.999999284955273
 30
0.0
 11
124.7425559250994
 21
59.999999284955258
 31
0.0
  0
LINE
  5
144
  8
0
 62
     0
 10
64.742555925099623
 20
-0.0000007150445072
 30
0.0
 11
66.742555925099623
 21
1.999999284955492
 31
0.0
  0
LINE
  5
145
  8
0
 62
     0
 10
117.99999966289261
 20
54.604481440908792
 30
0.0
 11
119.99999966289261
 21
56.604481440908778
 31
0.0
  0
LINE
  5
146
  8
0
 62
     0
 10
121.3955175069391
 20
57.999999284955273
 30
0.0
 11
123.3955175069391
 21
59.999999284955258
 31
0.0
  0
LINE
  5
147
  8
0
 62
     0
 10
63.395517506939079
 20
-0.0000007150447345
 30
0.0
 11
65.395517506939086
 21
1.999999284955265
 31
0.0
  0
LINE
  5
148
  8
0
 62
     0
 10
117.99999966289251
 20
55.951519859069322
 30
0.0
 11
122.04847908877861
 21
59.999999284955493
 31
0.0
  0
LINE
  5
149
  8
0
 62
     0
 10
62.048479088778663
 20
-0.0000007150445072
 30
0.0
 11
64.04847908877889
 21
1.999999284955492
 31
0.0
  0
LINE
  5
14A
  8
0
 62
     0
 10
117.99999966289261
 20
57.298558277229851
 30
0.0
 11
120.736720876715
 21
60.035279491052052
 31
0.0
  0
LINE
  5
14B
  8
0
 62
     0
 10
60.70144067061846
 20
-0.0000007150445072
 30
0.0
 11
62.70144067061846
 21
1.999999284955492
 31
0.0
  0
LINE
  5
14C
  8
0
 62
     0
 10
117.99999966289261
 20
58.645596695389941
 30
0.0
 11
120.0480737877724
 21
60.693670820269752
 31
0.0
  0
LINE
  5
14D
  8
0
 62
     0
 10
59.35440225245793
 20
-0.0000007150445072
 30
0.0
 11
61.35440225245793
 21
1.999999284955492
 31
0.0
  0
LINE
  5
14E
  8
0
 62
     0
 10
117.9999996628928
 20
59.992635113550477
 30
0.0
 11
119.9999996628928
 21
61.992635113550477
 31
0.0
  0
LINE
  5
14F
  8
0
 62
     0
 10
58.007363834297621
 20
-0.0000007150445072
 30
0.0
 11
60.007363834297621
 21
1.999999284955492
 31
0.0
  0
LINE
  5
150
  8
0
 62
     0
 10
117.9999996628928
 20
61.339673531711007
 30
0.0
 11
119.9999996628928
 21
63.339673531711007
 31
0.0
  0
LINE
  5
151
  8
0
 62
     0
 10
56.660325416137077
 20
-0.0000007150445072
 30
0.0
 11
58.660325416137091
 21
1.999999284955492
 31
0.0
  0
LINE
  5
152
  8
0
 62
     0
 10
117.99999966289271
 20
62.686711949871103
 30
0.0
 11
119.99999966289271
 21
64.686711949871096
 31
0.0
  0
LINE
  5
153
  8
0
 62
     0
 10
55.313286997976888
 20
-0.0000007150447345
 30
0.0
 11
57.313286997976888
 21
1.999999284955265
 31
0.0
  0
LINE
  5
154
  8
0
 62
     0
 10
117.99999966289261
 20
64.033750368031406
 30
0.0
 11
119.99999966289261
 21
66.033750368031406
 31
0.0
  0
LINE
  5
155
  8
0
 62
     0
 10
53.966248579816458
 20
-0.0000007150447345
 30
0.0
 11
55.966248579816458
 21
1.999999284955492
 31
0.0
  0
LINE
  5
156
  8
0
 62
     0
 10
117.99999966289261
 20
65.380788786191943
 30
0.0
 11
119.9999996628928
 21
67.38078878619217
 31
0.0
  0
LINE
  5
157
  8
0
 62
     0
 10
52.619210161656149
 20
-0.0000007150445072
 30
0.0
 11
54.619210161656149
 21
1.999999284955492
 31
0.0
  0
LINE
  5
158
  8
0
 62
     0
 10
117.99999966289271
 20
66.727827204352252
 30
0.0
 11
119.99999966289271
 21
68.727827204352252
 31
0.0
  0
LINE
  5
159
  8
0
 62
     0
 10
51.272171743495733
 20
-0.0000007150447345
 30
0.0
 11
53.272171743495733
 21
1.999999284955265
 31
0.0
  0
LINE
  5
15A
  8
0
 62
     0
 10
117.99999966289261
 20
68.074865622512561
 30
0.0
 11
119.99999966289261
 21
70.074865622512561
 31
0.0
  0
LINE
  5
15B
  8
0
 62
     0
 10
49.925133325335537
 20
-0.0000007150445072
 30
0.0
 11
51.925133325335537
 21
1.999999284955492
 31
0.0
  0
LINE
  5
15C
  8
0
 62
     0
 10
117.99999966289261
 20
69.421904040673098
 30
0.0
 11
119.99999966289261
 21
71.421904040673098
 31
0.0
  0
LINE
  5
15D
  8
0
 62
     0
 10
48.578094907175
 20
-0.0000007150445072
 30
0.0
 11
50.578094907175
 21
1.999999284955492
 31
0.0
  0
LINE
  5
15E
  8
0
 62
     0
 10
117.99999966289251
 20
70.768942458833408
 30
0.0
 11
119.99999966289271
 21
72.768942458833394
 31
0.0
  0
LINE
  5
15F
  8
0
 62
     0
 10
47.231056489014577
 20
-0.0000007150447345
 30
0.0
 11
49.231056489014577
 21
1.999999284955265
 31
0.0
  0
LINE
  5
160
  8
0
 62
     0
 10
117.99999966289261
 20
72.115980876993945
 30
0.0
 11
119.99999966289261
 21
74.115980876993945
 31
0.0
  0
LINE
  5
161
  8
0
 62
     0
 10
45.884018070854381
 20
-0.0000007150445072
 30
0.0
 11
47.884018070854367
 21
1.999999284955492
 31
0.0
  0
LINE
  5
162
  8
0
 62
     0
 10
117.99999966289261
 20
73.463019295154254
 30
0.0
 11
119.99999966289261
 21
75.463019295154254
 31
0.0
  0
LINE
  5
163
  8
0
 62
     0
 10
44.536979652693837
 20
-0.0000007150442798
 30
0.0
 11
46.536979652693837
 21
1.999999284955492
 31
0.0
  0
LINE
  5
164
  8
0
 62
     0
 10
117.9999996628928
 20
74.810057713314563
 30
0.0
 11
119.9999996628928
 21
76.810057713314791
 31
0.0
  0
LINE
  5
165
  8
0
 62
     0
 10
43.189941234533528
 20
-0.0000007150445072
 30
0.0
 11
45.189941234533528
 21
1.999999284955492
 31
0.0
  0
LINE
  5
166
  8
0
 62
     0
 10
117.99999966289261
 20
76.1570961314751
 30
0.0
 11
119.9999996628928
 21
78.1570961314751
 31
0.0
  0
LINE
  5
167
  8
0
 62
     0
 10
41.842902816372991
 20
-0.0000007150445072
 30
0.0
 11
43.842902816373218
 21
1.999999284955492
 31
0.0
  0
LINE
  5
168
  8
0
 62
     0
 10
117.99999966289261
 20
77.50413454963541
 30
0.0
 11
119.99999966289261
 21
79.50413454963541
 31
0.0
  0
LINE
  5
169
  8
0
 62
     0
 10
40.495864398212682
 20
-0.0000007150445072
 30
0.0
 11
42.495864398212689
 21
1.99999928495572
 31
0.0
  0
LINE
  5
16A
  8
0
 62
     0
 10
117.9999996628928
 20
78.851172967795719
 30
0.0
 11
119.99999966289261
 21
80.851172967795478
 31
0.0
  0
LINE
  5
16B
  8
0
 62
     0
 10
39.148825980052379
 20
-0.0000007150445072
 30
0.0
 11
41.148825980052372
 21
1.999999284955492
 31
0.0
  0
LINE
  5
16C
  8
0
 62
     0
 10
117.99999966289261
 20
80.198211385956014
 30
0.0
 11
119.9999996628928
 21
82.198211385956256
 31
0.0
  0
LINE
  5
16D
  8
0
 62
     0
 10
37.801787561891842
 20
-0.0000007150445072
 30
0.0
 11
39.801787561891842
 21
1.999999284955492
 31
0.0
  0
LINE
  5
16E
  8
0
 62
     0
 10
117.99999966289271
 20
81.545249804116338
 30
0.0
 11
119.99999966289271
 21
83.545249804116338
 31
0.0
  0
LINE
  5
16F
  8
0
 62
     0
 10
36.454749143731647
 20
-0.0000007150447345
 30
0.0
 11
38.454749143731647
 21
1.999999284955265
 31
0.0
  0
LINE
  5
170
  8
0
 62
     0
 10
117.99999966289261
 20
82.892288222276648
 30
0.0
 11
119.99999966289261
 21
84.892288222276633
 31
0.0
  0
LINE
  5
171
  8
0
 62
     0
 10
35.107710725571451
 20
-0.0000007150445072
 30
0.0
 11
37.107710725571451
 21
1.999999284955492
 31
0.0
  0
LINE
  5
172
  8
0
 62
     0
 10
117.99999966289261
 20
84.239326640436957
 30
0.0
 11
119.99999966289261
 21
86.239326640436957
 31
0.0
  0
LINE
  5
173
  8
0
 62
     0
 10
33.760672307410907
 20
-0.0000007150447345
 30
0.0
 11
35.760672307410921
 21
1.999999284955265
 31
0.0
  0
LINE
  5
174
  8
0
 62
     0
 10
117.99999966289271
 20
85.586365058597494
 30
0.0
 11
119.99999966289271
 21
87.586365058597494
 31
0.0
  0
LINE
  5
175
  8
0
 62
     0
 10
32.413633889250491
 20
-0.0000007150447345
 30
0.0
 11
34.413633889250491
 21
1.999999284955265
 31
0.0
  0
LINE
  5
176
  8
0
 62
     0
 10
117.99999966289261
 20
86.933403476757803
 30
0.0
 11
119.99999966289261
 21
88.933403476758031
 31
0.0
  0
LINE
  5
177
  8
0
 62
     0
 10
31.066595471090299
 20
-0.0000007150445072
 30
0.0
 11
33.066595471090302
 21
1.999999284955492
 31
0.0
  0
LINE
  5
178
  8
0
 62
     0
 10
117.71955705293
 20
87.999999284955507
 30
0.0
 11
119.7189574571341
 21
89.999399689159645
 31
0.0
  0
LINE
  5
179
  8
0
 62
     0
 10
30.00059925868868
 20
0.2810414907141876
 30
0.0
 11
31.999999662892609
 21
2.2804418949181118
 31
0.0
  0
LINE
  5
17A
  8
0
 62
     0
 10
116.37251863476951
 20
87.999999284955507
 30
0.0
 11
118.3725186347698
 21
89.99999928495572
 31
0.0
  0
LINE
  5
17B
  8
0
 62
     0
 10
29.999999662892488
 20
1.6274803130784219
 30
0.0
 11
31.999999662892488
 21
3.6274803130784221
 31
0.0
  0
LINE
  5
17C
  8
0
 62
     0
 10
115.0254802166091
 20
87.999999284955507
 30
0.0
 11
117.0254802166091
 21
89.999999284955493
 31
0.0
  0
LINE
  5
17D
  8
0
 62
     0
 10
29.999999662892609
 20
2.974518731238958
 30
0.0
 11
31.999999662892609
 21
4.974518731238958
 31
0.0
  0
LINE
  5
17E
  8
0
 62
     0
 10
113.6784417984488
 20
87.999999284955507
 30
0.0
 11
115.6784417984488
 21
89.999999284955493
 31
0.0
  0
LINE
  5
17F
  8
0
 62
     0
 10
29.999999662892609
 20
4.3215571493992684
 30
0.0
 11
31.999999662892382
 21
6.3215571493992684
 31
0.0
  0
LINE
  5
180
  8
0
 62
     0
 10
112.33140338028851
 20
87.999999284955706
 30
0.0
 11
114.33140338028851
 21
89.99999928495572
 31
0.0
  0
LINE
  5
181
  8
0
 62
     0
 10
29.999999662892609
 20
5.6685955675598052
 30
0.0
 11
31.999999662892609
 21
7.6685955675598052
 31
0.0
  0
LINE
  5
182
  8
0
 62
     0
 10
110.984364962128
 20
87.999999284955507
 30
0.0
 11
112.984364962128
 21
89.999999284955493
 31
0.0
  0
LINE
  5
183
  8
0
 62
     0
 10
29.999999662892609
 20
7.015633985720342
 30
0.0
 11
31.999999662892609
 21
9.015633985720342
 31
0.0
  0
LINE
  5
184
  8
0
 62
     0
 10
109.6373265439675
 20
87.999999284955507
 30
0.0
 11
111.6373265439678
 21
89.999999284955493
 31
0.0
  0
LINE
  5
185
  8
0
 62
     0
 10
29.999999662892488
 20
8.3626724038804241
 30
0.0
 11
31.999999662892719
 21
10.362672403880421
 31
0.0
  0
LINE
  5
186
  8
0
 62
     0
 10
108.29028812580729
 20
87.999999284955507
 30
0.0
 11
110.29028812580729
 21
89.99999928495572
 31
0.0
  0
LINE
  5
187
  8
0
 62
     0
 10
29.999999662892609
 20
9.7097108220409591
 30
0.0
 11
31.999999662892609
 21
11.709710822040959
 31
0.0
  0
LINE
  5
188
  8
0
 62
     0
 10
106.9432497076468
 20
87.999999284955507
 30
0.0
 11
108.943249707647
 21
89.99999928495572
 31
0.0
  0
LINE
  5
189
  8
0
 62
     0
 10
29.999999662892609
 20
11.05674924020127
 30
0.0
 11
31.999999662892609
 21
13.05674924020127
 31
0.0
  0
LINE
  5
18A
  8
0
 62
     0
 10
105.5962112894864
 20
87.999999284955507
 30
0.0
 11
107.5962112894864
 21
89.999999284955493
 31
0.0
  0
LINE
  5
18B
  8
0
 62
     0
 10
29.999999662892719
 20
12.40378765836158
 30
0.0
 11
31.999999662892719
 21
14.40378765836158
 31
0.0
  0
LINE
  5
18C
  8
0
 62
     0
 10
104.24917287132619
 20
87.999999284955507
 30
0.0
 11
106.24917287132619
 21
89.999999284955493
 31
0.0
  0
LINE
  5
18D
  8
0
 62
     0
 10
29.99999966289284
 20
13.75082607652212
 30
0.0
 11
31.999999662892609
 21
15.750826076521889
 31
0.0
  0
LINE
  5
18E
  8
0
 62
     0
 10
102.9021344531656
 20
87.999999284955507
 30
0.0
 11
104.9021344531659
 21
89.99999928495572
 31
0.0
  0
LINE
  5
18F
  8
0
 62
     0
 10
29.999999662892609
 20
15.097864494682421
 30
0.0
 11
31.999999662892609
 21
17.097864494682419
 31
0.0
  0
LINE
  5
190
  8
0
 62
     0
 10
101.55509603500521
 20
87.999999284955265
 30
0.0
 11
103.55509603500521
 21
89.999999284955265
 31
0.0
  0
LINE
  5
191
  8
0
 62
     0
 10
29.999999662892719
 20
16.444902912842728
 30
0.0
 11
31.999999662892488
 21
18.444902912842512
 31
0.0
  0
LINE
  5
192
  8
0
 62
     0
 10
100.208057616845
 20
87.999999284955507
 30
0.0
 11
102.208057616845
 21
89.999999284955493
 31
0.0
  0
LINE
  5
193
  8
0
 62
     0
 10
29.999999662892609
 20
17.791941331003041
 30
0.0
 11
31.999999662892609
 21
19.791941331003041
 31
0.0
  0
LINE
  5
194
  8
0
 62
     0
 10
98.861019198684744
 20
87.999999284955706
 30
0.0
 11
100.8610191986847
 21
89.99999928495572
 31
0.0
  0
LINE
  5
195
  8
0
 62
     0
 10
29.999999662892609
 20
19.138979749163578
 30
0.0
 11
31.999999662892609
 21
21.138979749163578
 31
0.0
  0
LINE
  5
196
  8
0
 62
     0
 10
97.513980780524435
 20
87.999999284955507
 30
0.0
 11
99.513980780524435
 21
89.99999928495572
 31
0.0
  0
LINE
  5
197
  8
0
 62
     0
 10
29.999999662892609
 20
20.48601816732366
 30
0.0
 11
31.999999662892609
 21
22.486018167323891
 31
0.0
  0
LINE
  5
198
  8
0
 62
     0
 10
96.166942362363912
 20
87.999999284955507
 30
0.0
 11
98.166942362363898
 21
89.999999284955493
 31
0.0
  0
LINE
  5
199
  8
0
 62
     0
 10
29.999999662892609
 20
21.833056585484201
 30
0.0
 11
31.999999662892609
 21
23.833056585484432
 31
0.0
  0
LINE
  5
19A
  8
0
 62
     0
 10
94.819903944203688
 20
87.999999284955507
 30
0.0
 11
96.819903944203702
 21
89.999999284955493
 31
0.0
  0
LINE
  5
19B
  8
0
 62
     0
 10
29.999999662892719
 20
23.18009500364451
 30
0.0
 11
31.999999662892488
 21
25.18009500364451
 31
0.0
  0
LINE
  5
19C
  8
0
 62
     0
 10
93.472865526043279
 20
87.999999284955507
 30
0.0
 11
95.472865526043279
 21
89.99999928495572
 31
0.0
  0
LINE
  5
19D
  8
0
 62
     0
 10
29.999999662892609
 20
24.527133421805051
 30
0.0
 11
31.999999662892609
 21
26.527133421805051
 31
0.0
  0
LINE
  5
19E
  8
0
 62
     0
 10
92.125827107882728
 20
87.999999284955507
 30
0.0
 11
94.125827107882742
 21
89.999999284955493
 31
0.0
  0
LINE
  5
19F
  8
0
 62
     0
 10
29.999999662892609
 20
25.874171839965591
 30
0.0
 11
31.999999662892609
 21
27.87417183996536
 31
0.0
  0
LINE
  5
1A0
  8
0
 62
     0
 10
90.778788689722319
 20
87.999999284955507
 30
0.0
 11
92.778788689722319
 21
89.999999284955493
 31
0.0
  0
LINE
  5
1A1
  8
0
 62
     0
 10
29.999999662892719
 20
27.221210258125669
 30
0.0
 11
31.999999662892719
 21
29.221210258125669
 31
0.0
  0
LINE
  5
1A2
  8
0
 62
     0
 10
89.431750271562123
 20
87.999999284955507
 30
0.0
 11
91.431750271562123
 21
89.999999284955493
 31
0.0
  0
LINE
  5
1A3
  8
0
 62
     0
 10
29.999999662892609
 20
28.568248676286199
 30
0.0
 11
31.999999662892829
 21
30.568248676286199
 31
0.0
  0
LINE
  5
1A4
  8
0
 62
     0
 10
88.084711853401359
 20
87.999999284955265
 30
0.0
 11
90.084711853401586
 21
89.999999284955265
 31
0.0
  0
LINE
  5
1A5
  8
0
 62
     0
 10
29.748192822344439
 20
29.663480253898118
 30
0.0
 11
31.999999662892609
 21
31.915287094446288
 31
0.0
  0
LINE
  5
1A6
  8
0
 62
     0
 10
86.737673435241035
 20
87.999999284955265
 30
0.0
 11
88.737673435241064
 21
89.999999284955493
 31
0.0
  0
LINE
  5
1A7
  8
0
 62
     0
 10
28.73767343524128
 20
29.999999284955489
 30
0.0
 11
31.999999662892609
 21
33.262325512606822
 31
0.0
  0
LINE
  5
1A8
  8
0
 62
     0
 10
29.823899329084728
 20
32.43326359695925
 30
0.0
 11
31.999999662892609
 21
34.609363930767131
 31
0.0
  0
LINE
  5
1A9
  8
0
 62
     0
 10
85.390635017080967
 20
87.999999284955507
 30
0.0
 11
87.390635017080967
 21
89.999999284955493
 31
0.0
  0
LINE
  5
1AA
  8
0
 62
     0
 10
27.39063501708074
 20
29.999999284955489
 30
0.0
 11
29.566735350888621
 21
32.176099618763153
 31
0.0
  0
LINE
  5
1AB
  8
0
 62
     0
 10
29.999999662892609
 20
33.956402348927561
 30
0.0
 11
31.999999662892609
 21
35.956402348927547
 31
0.0
  0
LINE
  5
1AC
  8
0
 62
     0
 10
84.043596598920416
 20
87.999999284955365
 30
0.0
 11
86.043596598920658
 21
89.999999284955607
 31
0.0
  0
LINE
  5
1AD
  8
0
 62
     0
 10
26.043596598920431
 20
29.999999284955379
 30
0.0
 11
28.043596598920431
 21
31.999999284955379
 31
0.0
  0
LINE
  5
1AE
  8
0
 62
     0
 10
29.99999966289284
 20
35.303440767087977
 30
0.0
 11
31.999999662892829
 21
37.303440767087977
 31
0.0
  0
LINE
  5
1AF
  8
0
 62
     0
 10
82.696558180760121
 20
87.999999284955265
 30
0.0
 11
84.696558180760107
 21
89.999999284955265
 31
0.0
  0
LINE
  5
1B0
  8
0
 62
     0
 10
24.696558180760348
 20
29.999999284955489
 30
0.0
 11
26.696558180760348
 21
31.999999284955489
 31
0.0
  0
LINE
  5
1B1
  8
0
 62
     0
 10
29.999999662892609
 20
36.650479185248287
 30
0.0
 11
31.999999662892609
 21
38.650479185248287
 31
0.0
  0
LINE
  5
1B2
  8
0
 62
     0
 10
81.349519762599826
 20
87.999999284955507
 30
0.0
 11
83.349519762599812
 21
89.999999284955493
 31
0.0
  0
LINE
  5
1B3
  8
0
 62
     0
 10
23.349519762599812
 20
29.999999284955489
 30
0.0
 11
25.349519762599812
 21
31.999999284955489
 31
0.0
  0
LINE
  5
1B4
  8
0
 62
     0
 10
29.999999662892382
 20
37.99751760340871
 30
0.0
 11
31.999999662892382
 21
39.99751760340871
 31
0.0
  0
LINE
  5
1B5
  8
0
 62
     0
 10
80.002481344439275
 20
87.999999284955365
 30
0.0
 11
82.002481344439516
 21
89.999999284955607
 31
0.0
  0
LINE
  5
1B6
  8
0
 62
     0
 10
22.002481344439278
 20
29.999999284955379
 30
0.0
 11
24.002481344439271
 21
31.999999284955379
 31
0.0
  0
LINE
  5
1B7
  8
0
 62
     0
 10
29.999999662892609
 20
39.34455602156914
 30
0.0
 11
31.999999662892609
 21
41.344556021569133
 31
0.0
  0
LINE
  5
1B8
  8
0
 62
     0
 10
78.655442926279193
 20
87.999999284955507
 30
0.0
 11
80.655442926279193
 21
89.99999928495572
 31
0.0
  0
LINE
  5
1B9
  8
0
 62
     0
 10
20.655442926279189
 20
29.999999284955489
 30
0.0
 11
22.655442926279189
 21
31.999999284955489
 31
0.0
  0
LINE
  5
1BA
  8
0
 62
     0
 10
29.999999662892609
 20
40.691594439729442
 30
0.0
 11
31.999999662892609
 21
42.691594439729663
 31
0.0
  0
LINE
  5
1BB
  8
0
 62
     0
 10
77.308404508118656
 20
87.999999284955507
 30
0.0
 11
79.308404508118656
 21
89.999999284955493
 31
0.0
  0
LINE
  5
1BC
  8
0
 62
     0
 10
19.308404508118649
 20
29.99999928495572
 30
0.0
 11
21.30840450811888
 21
31.99999928495572
 31
0.0
  0
LINE
  5
1BD
  8
0
 62
     0
 10
29.999999662892609
 20
42.038632857889752
 30
0.0
 11
31.999999662892829
 21
44.038632857889752
 31
0.0
  0
LINE
  5
1BE
  8
0
 62
     0
 10
75.961366089958346
 20
87.999999284955507
 30
0.0
 11
77.961366089958574
 21
89.999999284955493
 31
0.0
  0
LINE
  5
1BF
  8
0
 62
     0
 10
17.96136608995835
 20
29.999999284955489
 30
0.0
 11
19.96136608995857
 21
31.999999284955489
 31
0.0
  0
LINE
  5
1C0
  8
0
 62
     0
 10
29.999999662892609
 20
43.385671276050289
 30
0.0
 11
31.999999662892609
 21
45.385671276050289
 31
0.0
  0
LINE
  5
1C1
  8
0
 62
     0
 10
74.614327671798037
 20
87.999999284955507
 30
0.0
 11
76.614327671798037
 21
89.99999928495572
 31
0.0
  0
LINE
  5
1C2
  8
0
 62
     0
 10
16.61432767179803
 20
29.999999284955489
 30
0.0
 11
18.614327671798041
 21
31.999999284955489
 31
0.0
  0
LINE
  5
1C3
  8
0
 62
     0
 10
29.999999662892609
 20
44.732709694210712
 30
0.0
 11
31.999999662892609
 21
46.732709694210712
 31
0.0
  0
LINE
  5
1C4
  8
0
 62
     0
 10
73.2672892536375
 20
87.999999284955365
 30
0.0
 11
75.2672892536375
 21
89.999999284955379
 31
0.0
  0
LINE
  5
1C5
  8
0
 62
     0
 10
15.2672892536375
 20
29.99999928495561
 30
0.0
 11
17.2672892536375
 21
31.99999928495561
 31
0.0
  0
LINE
  5
1C6
  8
0
 62
     0
 10
29.99999966289284
 20
46.079748112370908
 30
0.0
 11
31.999999662892829
 21
48.079748112370908
 31
0.0
  0
LINE
  5
1C7
  8
0
 62
     0
 10
71.920250835477191
 20
87.999999284955507
 30
0.0
 11
73.920250835477191
 21
89.999999284955493
 31
0.0
  0
LINE
  5
1C8
  8
0
 62
     0
 10
13.920250835477191
 20
29.999999284955489
 30
0.0
 11
15.920250835477191
 21
31.999999284955489
 31
0.0
  0
LINE
  5
1C9
  8
0
 62
     0
 10
29.999999662892609
 20
47.42678653053121
 30
0.0
 11
31.999999662892609
 21
49.42678653053121
 31
0.0
  0
LINE
  5
1CA
  8
0
 62
     0
 10
70.573212417316654
 20
87.999999284955507
 30
0.0
 11
72.573212417316881
 21
89.999999284955493
 31
0.0
  0
LINE
  5
1CB
  8
0
 62
     0
 10
12.57321241731688
 20
29.999999284955489
 30
0.0
 11
14.57321241731688
 21
31.999999284955489
 31
0.0
  0
LINE
  5
1CC
  8
0
 62
     0
 10
29.999999662892609
 20
48.77382494869164
 30
0.0
 11
31.999999662892609
 21
50.77382494869164
 31
0.0
  0
LINE
  5
1CD
  8
0
 62
     0
 10
69.226173999156345
 20
87.999999284955365
 30
0.0
 11
71.226173999156345
 21
89.999999284955379
 31
0.0
  0
LINE
  5
1CE
  8
0
 62
     0
 10
11.226173999156339
 20
29.999999284955379
 30
0.0
 11
13.226173999156339
 21
31.99999928495561
 31
0.0
  0
LINE
  5
1CF
  8
0
 62
     0
 10
29.99999966289284
 20
50.120863366852063
 30
0.0
 11
31.999999662892829
 21
52.12086336685207
 31
0.0
  0
LINE
  5
1D0
  8
0
 62
     0
 10
67.879135580996035
 20
87.999999284955265
 30
0.0
 11
69.879135580996035
 21
89.999999284955265
 31
0.0
  0
LINE
  5
1D1
  8
0
 62
     0
 10
9.8791355809962624
 20
29.999999284955489
 30
0.0
 11
11.879135580996261
 21
31.999999284955489
 31
0.0
  0
LINE
  5
1D2
  8
0
 62
     0
 10
29.999999662892609
 20
51.467901785012373
 30
0.0
 11
31.999999662892609
 21
53.467901785012373
 31
0.0
  0
LINE
  5
1D3
  8
0
 62
     0
 10
66.532097162835726
 20
87.999999284955507
 30
0.0
 11
68.532097162835726
 21
89.999999284955493
 31
0.0
  0
LINE
  5
1D4
  8
0
 62
     0
 10
8.5320971628357256
 20
29.999999284955489
 30
0.0
 11
10.53209716283572
 21
31.999999284955489
 31
0.0
  0
LINE
  5
1D5
  8
0
 62
     0
 10
29.999999662892609
 20
52.814940203172789
 30
0.0
 11
31.999999662892609
 21
54.814940203172789
 31
0.0
  0
LINE
  5
1D6
  8
0
 62
     0
 10
65.185058744675189
 20
87.999999284955365
 30
0.0
 11
67.185058744675416
 21
89.999999284955607
 31
0.0
  0
LINE
  5
1D7
  8
0
 62
     0
 10
7.1850587446754162
 20
29.99999928495561
 30
0.0
 11
9.1850587446751888
 21
31.999999284955379
 31
0.0
  0
LINE
  5
1D8
  8
0
 62
     0
 10
29.999999662892609
 20
54.161978621332992
 30
0.0
 11
31.999999662892829
 21
56.161978621333219
 31
0.0
  0
LINE
  5
1D9
  8
0
 62
     0
 10
63.838020326514872
 20
87.999999284955265
 30
0.0
 11
65.838020326514879
 21
89.999999284955265
 31
0.0
  0
LINE
  5
1DA
  8
0
 62
     0
 10
5.8380203265151058
 20
29.99999928495572
 30
0.0
 11
7.8380203265151058
 21
31.999999284955489
 31
0.0
  0
LINE
  5
1DB
  8
0
 62
     0
 10
29.999999662892609
 20
55.509017039493529
 30
0.0
 11
31.999999662892609
 21
57.509017039493521
 31
0.0
  0
LINE
  5
1DC
  8
0
 62
     0
 10
62.49098190835457
 20
87.999999284955507
 30
0.0
 11
64.490981908354556
 21
89.999999284955493
 31
0.0
  0
LINE
  5
1DD
  8
0
 62
     0
 10
4.4909819083547973
 20
29.99999928495572
 30
0.0
 11
6.4909819083547973
 21
31.99999928495572
 31
0.0
  0
LINE
  5
1DE
  8
0
 62
     0
 10
29.999999662892382
 20
56.856055457653831
 30
0.0
 11
31.999999662892382
 21
58.856055457653831
 31
0.0
  0
LINE
  5
1DF
  8
0
 62
     0
 10
61.14394349019426
 20
87.999999284955507
 30
0.0
 11
63.14394349019426
 21
89.999999284955493
 31
0.0
  0
LINE
  5
1E0
  8
0
 62
     0
 10
3.14394349019426
 20
29.99999928495572
 30
0.0
 11
5.1439434901942596
 21
31.99999928495572
 31
0.0
  0
LINE
  5
1E1
  8
0
 62
     0
 10
29.598229579718009
 20
57.80132379263955
 30
0.0
 11
31.999999662892829
 21
60.203093875814382
 31
0.0
  0
LINE
  5
1E2
  8
0
 62
     0
 10
59.796905072033951
 20
87.999999284955507
 30
0.0
 11
61.796905072033951
 21
89.999999284955493
 31
0.0
  0
LINE
  5
1E3
  8
0
 62
     0
 10
1.796905072033951
 20
29.99999928495572
 30
0.0
 11
3.796905072033951
 21
31.99999928495572
 31
0.0
  0
LINE
  5
1E4
  8
0
 62
     0
 10
28.449866653873421
 20
57.999999284955493
 30
0.0
 11
31.999999662892609
 21
61.550132293974912
 31
0.0
  0
LINE
  5
1E5
  8
0
 62
     0
 10
58.449866653873421
 20
87.999999284955507
 30
0.0
 11
60.449866653873407
 21
89.999999284955493
 31
0.0
  0
LINE
  5
1E6
  8
0
 62
     0
 10
0.4498666538734142
 20
29.99999928495572
 30
0.0
 11
2.4498666538734142
 21
31.99999928495572
 31
0.0
  0
LINE
  5
1E7
  8
0
 62
     0
 10
29.994067634188241
 20
60.891238683430629
 30
0.0
 11
31.999999662892609
 21
62.897170712134987
 31
0.0
  0
LINE
  5
1E8
  8
0
 62
     0
 10
27.10282823571265
 20
57.999999284955273
 30
0.0
 11
29.108760264417239
 21
60.00593131365963
 31
0.0
  0
LINE
  5
1E9
  8
0
 62
     0
 10
57.10282823571287
 20
87.999999284955507
 30
0.0
 11
59.102828235712877
 21
89.999999284955493
 31
0.0
  0
LINE
  5
1EA
  8
0
 62
     0
 10
-0.0000003371073944
 20
30.89717071213499
 30
0.0
 11
1.1028282357131041
 21
31.999999284955489
 31
0.0
  0
LINE
  5
1EB
  8
0
 62
     0
 10
29.999999662892609
 20
62.24420913029553
 30
0.0
 11
31.999999662892609
 21
64.244209130295303
 31
0.0
  0
LINE
  5
1EC
  8
0
 62
     0
 10
55.755789817552561
 20
87.999999284955507
 30
0.0
 11
57.755789817552802
 21
89.999999284955493
 31
0.0
  0
LINE
  5
1ED
  8
0
 62
     0
 10
25.755789817552571
 20
57.999999284955273
 30
0.0
 11
27.755789817552571
 21
59.999999284955258
 31
0.0
  0
LINE
  5
1EE
  8
0
 62
     0
 10
29.999999662892609
 20
63.591247548455733
 30
0.0
 11
31.999999662892829
 21
65.591247548455954
 31
0.0
  0
LINE
  5
1EF
  8
0
 62
     0
 10
54.408751399392031
 20
87.999999284955365
 30
0.0
 11
56.408751399392251
 21
89.999999284955379
 31
0.0
  0
LINE
  5
1F0
  8
0
 62
     0
 10
24.408751399392258
 20
57.999999284955372
 30
0.0
 11
26.408751399392258
 21
59.999999284955379
 31
0.0
  0
LINE
  5
1F1
  8
0
 62
     0
 10
29.999999662892609
 20
64.938285966616135
 30
0.0
 11
31.999999662892609
 21
66.938285966616149
 31
0.0
  0
LINE
  5
1F2
  8
0
 62
     0
 10
53.061712981231722
 20
87.999999284955265
 30
0.0
 11
55.061712981231722
 21
89.999999284955493
 31
0.0
  0
LINE
  5
1F3
  8
0
 62
     0
 10
23.061712981231949
 20
57.999999284955493
 30
0.0
 11
25.061712981231949
 21
59.999999284955493
 31
0.0
  0
LINE
  5
1F4
  8
0
 62
     0
 10
29.999999662892609
 20
66.285324384776459
 30
0.0
 11
31.999999662892609
 21
68.285324384776459
 31
0.0
  0
LINE
  5
1F5
  8
0
 62
     0
 10
51.71467456307164
 20
87.999999284955507
 30
0.0
 11
53.71467456307164
 21
89.999999284955493
 31
0.0
  0
LINE
  5
1F6
  8
0
 62
     0
 10
21.714674563071409
 20
57.999999284955273
 30
0.0
 11
23.71467456307164
 21
59.999999284955493
 31
0.0
  0
LINE
  5
1F7
  8
0
 62
     0
 10
29.999999662892609
 20
67.632362802936882
 30
0.0
 11
31.999999662892829
 21
69.632362802937109
 31
0.0
  0
LINE
  5
1F8
  8
0
 62
     0
 10
50.367636144911103
 20
87.999999284955365
 30
0.0
 11
52.367636144911103
 21
89.999999284955379
 31
0.0
  0
LINE
  5
1F9
  8
0
 62
     0
 10
20.367636144911099
 20
57.999999284955372
 30
0.0
 11
22.367636144911099
 21
59.999999284955379
 31
0.0
  0
LINE
  5
1FA
  8
0
 62
     0
 10
29.99999966289284
 20
68.979401221097305
 30
0.0
 11
31.999999662892829
 21
70.979401221097305
 31
0.0
  0
LINE
  5
1FB
  8
0
 62
     0
 10
49.020597726750793
 20
87.999999284955265
 30
0.0
 11
51.0205977267508
 21
89.999999284955265
 31
0.0
  0
LINE
  5
1FC
  8
0
 62
     0
 10
19.02059772675079
 20
57.999999284955493
 30
0.0
 11
21.0205977267508
 21
59.999999284955493
 31
0.0
  0
LINE
  5
1FD
  8
0
 62
     0
 10
29.999999662892609
 20
70.326439639257615
 30
0.0
 11
31.999999662892609
 21
72.326439639257615
 31
0.0
  0
LINE
  5
1FE
  8
0
 62
     0
 10
47.673559308590477
 20
87.999999284955507
 30
0.0
 11
49.673559308590477
 21
89.999999284955493
 31
0.0
  0
LINE
  5
1FF
  8
0
 62
     0
 10
17.67355930859048
 20
57.999999284955493
 30
0.0
 11
19.67355930859048
 21
59.99999928495572
 31
0.0
  0
LINE
  5
200
  8
0
 62
     0
 10
29.999999662892382
 20
71.673478057418038
 30
0.0
 11
31.999999662892382
 21
73.673478057418038
 31
0.0
  0
LINE
  5
201
  8
0
 62
     0
 10
46.32652089042994
 20
87.999999284955365
 30
0.0
 11
48.32652089042994
 21
89.999999284955379
 31
0.0
  0
LINE
  5
202
  8
0
 62
     0
 10
16.326520890430171
 20
57.999999284955607
 30
0.0
 11
18.326520890430171
 21
59.999999284955607
 31
0.0
  0
LINE
  5
203
  8
0
 62
     0
 10
29.99999966289284
 20
73.020516475578461
 30
0.0
 11
31.999999662892829
 21
75.020516475578461
 31
0.0
  0
LINE
  5
204
  8
0
 62
     0
 10
44.979482472269858
 20
87.999999284955507
 30
0.0
 11
46.97948247226963
 21
89.999999284955265
 31
0.0
  0
LINE
  5
205
  8
0
 62
     0
 10
14.979482472269639
 20
57.999999284955493
 30
0.0
 11
16.979482472269641
 21
59.999999284955493
 31
0.0
  0
LINE
  5
206
  8
0
 62
     0
 10
29.999999662892609
 20
74.36755489373877
 30
0.0
 11
31.999999662892609
 21
76.367554893738998
 31
0.0
  0
LINE
  5
207
  8
0
 62
     0
 10
43.632444054109328
 20
87.999999284955507
 30
0.0
 11
45.632444054109328
 21
89.999999284955493
 31
0.0
  0
LINE
  5
208
  8
0
 62
     0
 10
13.63244405410933
 20
57.999999284955493
 30
0.0
 11
15.63244405410933
 21
59.999999284955493
 31
0.0
  0
LINE
  5
209
  8
0
 62
     0
 10
29.99999966289284
 20
75.71459331189908
 30
0.0
 11
31.999999662892829
 21
77.71459331189908
 31
0.0
  0
LINE
  5
20A
  8
0
 62
     0
 10
42.285405635949019
 20
87.999999284955507
 30
0.0
 11
44.285405635949239
 21
89.999999284955493
 31
0.0
  0
LINE
  5
20B
  8
0
 62
     0
 10
12.285405635949241
 20
57.999999284955493
 30
0.0
 11
14.285405635949241
 21
59.999999284955493
 31
0.0
  0
LINE
  5
20C
  8
0
 62
     0
 10
29.99999966289284
 20
77.061631730059617
 30
0.0
 11
31.999999662892609
 21
79.061631730059617
 31
0.0
  0
LINE
  5
20D
  8
0
 62
     0
 10
40.938367217788482
 20
87.999999284955507
 30
0.0
 11
42.938367217788709
 21
89.999999284955493
 31
0.0
  0
LINE
  5
20E
  8
0
 62
     0
 10
10.93836721778894
 20
57.99999928495572
 30
0.0
 11
12.93836721778893
 21
59.99999928495572
 31
0.0
  0
LINE
  5
20F
  8
0
 62
     0
 10
29.999999662892609
 20
78.40867014822004
 30
0.0
 11
31.999999662892609
 21
80.408670148220025
 31
0.0
  0
LINE
  5
210
  8
0
 62
     0
 10
39.591328799628172
 20
87.999999284955365
 30
0.0
 11
41.591328799628172
 21
89.999999284955379
 31
0.0
  0
LINE
  5
211
  8
0
 62
     0
 10
9.5913287996281724
 20
57.999999284955372
 30
0.0
 11
11.591328799628171
 21
59.999999284955379
 31
0.0
  0
LINE
  5
212
  8
0
 62
     0
 10
29.99999966289284
 20
79.755708566380463
 30
0.0
 11
31.999999662892829
 21
81.755708566380235
 31
0.0
  0
LINE
  5
213
  8
0
 62
     0
 10
38.24429038146787
 20
87.999999284955507
 30
0.0
 11
40.244290381467863
 21
89.999999284955493
 31
0.0
  0
LINE
  5
214
  8
0
 62
     0
 10
8.2442903814680903
 20
57.999999284955493
 30
0.0
 11
10.24429038146809
 21
59.999999284955493
 31
0.0
  0
LINE
  5
215
  8
0
 62
     0
 10
29.99999966289284
 20
81.102746984540772
 30
0.0
 11
31.999999662892609
 21
83.102746984540545
 31
0.0
  0
LINE
  5
216
  8
0
 62
     0
 10
36.897251963307333
 20
87.999999284955507
 30
0.0
 11
38.897251963307561
 21
89.999999284955493
 31
0.0
  0
LINE
  5
217
  8
0
 62
     0
 10
6.8972519633075526
 20
57.99999928495572
 30
0.0
 11
8.8972519633075535
 21
59.99999928495572
 31
0.0
  0
LINE
  5
218
  8
0
 62
     0
 10
29.99999966289284
 20
82.449785402701195
 30
0.0
 11
31.999999662892829
 21
84.449785402701195
 31
0.0
  0
LINE
  5
219
  8
0
 62
     0
 10
35.550213545147017
 20
87.999999284955365
 30
0.0
 11
37.550213545147017
 21
89.999999284955379
 31
0.0
  0
LINE
  5
21A
  8
0
 62
     0
 10
5.5502135451472441
 20
57.999999284955607
 30
0.0
 11
7.5502135451472441
 21
59.999999284955607
 31
0.0
  0
LINE
  5
21B
  8
0
 62
     0
 10
29.99999966289284
 20
83.796823820861391
 30
0.0
 11
31.999999662892829
 21
85.796823820861377
 31
0.0
  0
LINE
  5
21C
  8
0
 62
     0
 10
34.203175126986707
 20
87.999999284955265
 30
0.0
 11
36.203175126986707
 21
89.999999284955265
 31
0.0
  0
LINE
  5
21D
  8
0
 62
     0
 10
4.2031751269867073
 20
57.999999284955493
 30
0.0
 11
6.2031751269869337
 21
59.999999284955493
 31
0.0
  0
LINE
  5
21E
  8
0
 62
     0
 10
29.99999966289284
 20
85.143862239021914
 30
0.0
 11
31.999999662892609
 21
87.143862239021701
 31
0.0
  0
LINE
  5
21F
  8
0
 62
     0
 10
32.856136708826398
 20
87.999999284955507
 30
0.0
 11
34.856136708826398
 21
89.999999284955493
 31
0.0
  0
LINE
  5
220
  8
0
 62
     0
 10
2.8561367088263969
 20
57.99999928495572
 30
0.0
 11
4.8561367088263969
 21
59.99999928495572
 31
0.0
  0
LINE
  5
221
  8
0
 62
     0
 10
29.99999966289284
 20
86.490900657182351
 30
0.0
 11
33.509098290665861
 21
89.999999284955379
 31
0.0
  0
LINE
  5
222
  8
0
 62
     0
 10
1.5090982906660879
 20
57.999999284955607
 30
0.0
 11
3.5090982906660879
 21
59.999999284955607
 31
0.0
  0
LINE
  5
223
  8
0
 62
     0
 10
29.99999966289284
 20
87.837939075342547
 30
0.0
 11
32.162059872505552
 21
89.999999284955265
 31
0.0
  0
LINE
  5
224
  8
0
 62
     0
 10
0.1849835432649343
 20
58.022922955714648
 30
0.0
 11
2.1620598725060058
 21
59.99999928495572
 31
0.0
  0
LINE
  5
225
  8
0
 62
     0
 10
29.99999966289284
 20
89.184977493503084
 30
0.0
 11
30.815021454345239
 21
89.999999284955493
 31
0.0
  0
LINE
  5
226
  8
0
 62
     0
 10
-0.0000003371073944
 20
59.184977493503077
 30
0.0
 11
0.815021454345242
 21
59.999999284955493
 31
0.0
  0
ENDBLK
  5
228
  8
0
  0
ENDSEC
  0
SECTION
  2
ENTITIES
  0
ARC
  5
90
  8
0
 10
840.65467667748499
 20
505.62934709440418
 30
0.0
 40
1.0
 50
90.0
 51
180.0
  0
LINE
  5
91
  8
0
 10
839.65467667748499
 20
505.62934709440418
 30
0.0
 11
839.65467667748499
 21
481.62934709440418
 31
0.0
  0
ARC
  5
92
  8
0
 10
840.65467667748499
 20
481.62934709440418
 30
0.0
 40
1.0
 50
180.0
 51
270.0
  0
LINE
  5
93
  8
0
 10
840.65467667748499
 20
480.62934709440418
 30
0.0
 11
869.35467667748514
 21
480.62934709440418
 31
0.0
  0
ARC
  5
94
  8
0
 10
869.35467667748514
 20
480.32934709440423
 30
0.0
 40
0.3000000000000114
 50
359.99999999996749
 51
90.0
  0
LINE
  5
95
  8
0
 10
869.65467667748487
 20
480.329347094404
 30
0.0
 11
869.65467667748487
 21
478.92934709440408
 31
0.0
  0
ARC
  5
96
  8
0
 10
869.35467667748492
 20
478.92934709440431
 30
0.0
 40
0.3000000000000682
 50
270.0000000000216
 51
359.99999999997829
  0
LINE
  5
97
  8
0
 10
869.35467667748514
 20
478.62934709440418
 30
0.0
 11
840.65467667748499
 21
478.62934709440418
 31
0.0
  0
ARC
  5
98
  8
0
 10
840.65467667748499
 20
477.62934709440418
 30
0.0
 40
1.0
 50
90.0
 51
180.0
  0
LINE
  5
99
  8
0
 10
839.65467667748499
 20
477.62934709440418
 30
0.0
 11
839.65467667748521
 21
448.92934709440408
 31
0.0
  0
ARC
  5
9A
  8
0
 10
839.35467667748514
 20
448.92934709440419
 30
0.0
 40
0.3000000000000682
 50
269.99999999997829
 51
359.99999999997829
  0
LINE
  5
9B
  8
0
 10
839.35467667748503
 20
448.62934709440418
 30
0.0
 11
749.95467667748494
 21
448.62934709440418
 31
0.0
  0
ARC
  5
9C
  8
0
 10
749.95467667748494
 20
448.92934709440408
 30
0.0
 40
0.2999999999999545
 50
180.0
 51
270.0
  0
LINE
  5
9D
  8
0
 10
749.65467667748499
 20
448.92934709440408
 30
0.0
 11
749.65467667748499
 21
477.62934709440418
 31
0.0
  0
ARC
  5
9E
  8
0
 10
748.65467667748499
 20
477.62934709440418
 30
0.0
 40
1.0
 50
0.0
 51
90.0
  0
LINE
  5
9F
  8
0
 10
748.65467667748499
 20
478.62934709440418
 30
0.0
 11
719.95467667748494
 21
478.62934709440441
 31
0.0
  0
ARC
  5
A0
  8
0
 10
719.95467667748505
 20
478.92934709440448
 30
0.0
 40
0.3000000000000682
 50
180.00000000002171
 51
269.99999999997829
  0
LINE
  5
A1
  8
0
 10
719.65467667748499
 20
478.92934709440442
 30
0.0
 11
719.65467667748499
 21
480.32934709440423
 31
0.0
  0
ARC
  5
A2
  8
0
 10
719.95467667748505
 20
480.3293470944044
 30
0.0
 40
0.3000000000000682
 50
90.0000000000217
 51
180.00000000003249
  0
LINE
  5
A3
  8
0
 10
719.95467667748494
 20
480.62934709440441
 30
0.0
 11
748.65467667748499
 21
480.62934709440418
 31
0.0
  0
ARC
  5
A4
  8
0
 10
748.65467667748499
 20
481.62934709440418
 30
0.0
 40
1.0
 50
270.0
 51
0.0
  0
LINE
  5
A5
  8
0
 10
749.65467667748499
 20
481.62934709440418
 30
0.0
 11
749.65467667748499
 21
505.62934709440418
 31
0.0
  0
ARC
  5
A6
  8
0
 10
748.65467667748499
 20
505.62934709440418
 30
0.0
 40
1.0
 50
0.0
 51
90.0
  0
LINE
  5
A7
  8
0
 10
748.65467667748499
 20
506.62934709440418
 30
0.0
 11
719.95467667748494
 21
506.62934709440441
 31
0.0
  0
ARC
  5
A8
  8
0
 10
719.95467667748505
 20
506.92934709440442
 30
0.0
 40
0.3000000000000114
 50
179.9999999999674
 51
269.99999999997829
  0
LINE
  5
A9
  8
0
 10
719.65467667748499
 20
506.92934709440459
 30
0.0
 11
719.65467667748499
 21
508.3293470944044
 31
0.0
  0
ARC
  5
AA
  8
0
 10
719.95467667748505
 20
508.3293470944044
 30
0.0
 40
0.3000000000000682
 50
90.0000000000217
 51
179.99999999997829
  0
LINE
  5
AB
  8
0
 10
719.95467667748494
 20
508.62934709440452
 30
0.0
 11
748.65467667748499
 21
508.62934709440418
 31
0.0
  0
ARC
  5
AC
  8
0
 10
748.65467667748499
 20
509.62934709440418
 30
0.0
 40
1.0
 50
270.0
 51
0.0
  0
LINE
  5
AD
  8
0
 10
749.65467667748499
 20
509.62934709440418
 30
0.0
 11
749.6546766774851
 21
538.32934709440417
 31
0.0
  0
ARC
  5
AE
  8
0
 10
749.95467667748505
 20
538.32934709440428
 30
0.0
 40
0.2999999999998408
 50
90.0000000000217
 51
180.00000000002171
  0
LINE
  5
AF
  8
0
 10
749.95467667748494
 20
538.62934709440424
 30
0.0
 11
839.35467667748503
 21
538.62934709440435
 31
0.0
  0
ARC
  5
B0
  8
0
 10
839.35467667748503
 20
538.32934709440451
 30
0.0
 40
0.2999999999999545
 50
0.0
 51
90.0
  0
LINE
  5
B1
  8
0
 10
839.65467667748499
 20
538.32934709440451
 30
0.0
 11
839.65467667748499
 21
509.62934709440418
 31
0.0
  0
ARC
  5
B2
  8
0
 10
840.65467667748499
 20
509.62934709440418
 30
0.0
 40
1.0
 50
180.0
 51
270.0
  0
LINE
  5
B3
  8
0
 10
840.65467667748499
 20
508.62934709440418
 30
0.0
 11
869.35467667748514
 21
508.62934709440418
 31
0.0
  0
ARC
  5
B4
  8
0
 10
869.35467667748514
 20
508.329347094404
 30
0.0
 40
0.3000000000001819
 50
0.0000000000434252
 51
90.0
  0
LINE
  5
B5
  8
0
 10
869.65467667748533
 20
508.32934709440428
 30
0.0
 11
869.65467667748487
 21
506.92934709440442
 31
0.0
  0
ARC
  5
B6
  8
0
 10
869.35467667748492
 20
506.92934709440419
 30
0.0
 40
0.3000000000000682
 50
270.0000000000216
 51
0.0000000000325689
  0
LINE
  5
B7
  8
0
 10
869.35467667748514
 20
506.62934709440418
 30
0.0
 11
840.65467667748499
 21
506.62934709440418
 31
0.0
  0
LINE
  5
B8
  8
0
 10
837.65467667748487
 20
450.62934709440418
 30
0.0
 11
751.65467667748487
 21
450.62934709440418
 31
0.0
  0
LINE
  5
B9
  8
0
 10
751.65467667748487
 20
450.62934709440418
 30
0.0
 11
751.65467667748487
 21
536.62934709440424
 31
0.0
  0
LINE
  5
BA
  8
0
 10
751.65467667748487
 20
536.62934709440424
 30
0.0
 11
837.65467667748487
 21
536.62934709440424
 31
0.0
  0
LINE
  5
BB
  8
0
 10
837.65467667748487
 20
536.62934709440424
 30
0.0
 11
837.65467667748487
 21
450.62934709440418
 31
0.0
  0
ENDSEC
  0
EOF
