  0
SECTION
  2
HEADER
  9
$ACADVER
  1
AC1009
  9
$INSBASE
 10
0.0
 20
0.0
 30
0.0
  9
$EXTMIN
 10
717.63244810238518
 20
394.48938103356562
 30
-0.0015258207003583
  9
$EXTMAX
 10
773.25988908444992
 20
396.86860737515229
 30
0.0000000349246037
  9
$LIMMIN
 10
0.0
 20
0.0
  9
$LIMMAX
 10
420.0
 20
297.0
  9
$ORTHOMODE
 70
     0
  9
$REGENMODE
 70
     1
  9
$FILLMODE
 70
     1
  9
$QTEXTMODE
 70
     0
  9
$MIRRTEXT
 70
     0
  9
$DRAGMODE
 70
     2
  9
$LTSCALE
 40
1.0
  9
$OSMODE
 70
  3071
  9
$ATTMODE
 70
     1
  9
$TEXTSIZE
 40
2.5
  9
$TRACEWID
 40
1.0
  9
$TEXTSTYLE
  7
STANDARD
  9
$CLAYER
  8
0
  9
$CELTYPE
  6
BYLAYER
  9
$CECOLOR
 62
   256
  9
$DIMSCALE
 40
1.0
  9
$DIMASZ
 40
2.5
  9
$DIMEXO
 40
0.625
  9
$DIMDLI
 40
3.75
  9
$DIMRND
 40
0.0
  9
$DIMDLE
 40
0.0
  9
$DIMEXE
 40
1.25
  9
$DIMTP
 40
0.0
  9
$DIMTM
 40
0.0
  9
$DIMTXT
 40
2.5
  9
$DIMCEN
 40
2.5
  9
$DIMTSZ
 40
0.0
  9
$DIMTOL
 70
     0
  9
$DIMLIM
 70
     0
  9
$DIMTIH
 70
     0
  9
$DIMTOH
 70
     0
  9
$DIMSE1
 70
     0
  9
$DIMSE2
 70
     0
  9
$DIMTAD
 70
     1
  9
$DIMZIN
 70
     8
  9
$DIMBLK
  1

  9
$DIMASO
 70
     1
  9
$DIMSHO
 70
     1
  9
$DIMPOST
  1

  9
$DIMAPOST
  1

  9
$DIMALT
 70
     0
  9
$DIMALTD
 70
     3
  9
$DIMALTF
 40
0.03937007874016
  9
$DIMLFAC
 40
1.0
  9
$DIMTOFL
 70
     1
  9
$DIMTVP
 40
0.0
  9
$DIMTIX
 70
     0
  9
$DIMSOXD
 70
     0
  9
$DIMSAH
 70
     0
  9
$DIMBLK1
  1

  9
$DIMBLK2
  1

  9
$DIMSTYLE
  2
ISO-25
  9
$DIMCLRD
 70
     0
  9
$DIMCLRE
 70
     0
  9
$DIMCLRT
 70
     0
  9
$DIMTFAC
 40
1.0
  9
$DIMGAP
 40
0.625
  9
$LUNITS
 70
     2
  9
$LUPREC
 70
     4
  9
$SKETCHINC
 40
1.0
  9
$FILLETRAD
 40
0.0
  9
$AUNITS
 70
     0
  9
$AUPREC
 70
     0
  9
$MENU
  1
.
  9
$ELEVATION
 40
0.0
  9
$PELEVATION
 40
0.0
  9
$THICKNESS
 40
0.0
  9
$LIMCHECK
 70
     0
  9
$BLIPMODE
 70
     0
  9
$CHAMFERA
 40
0.0
  9
$CHAMFERB
 40
0.0
  9
$SKPOLY
 70
     0
  9
$TDCREATE
 40
2455303.6954939351
  9
$TDUPDATE
 40
2455303.6955970139
  9
$TDINDWG
 40
0.0001030787
  9
$TDUSRTIMER
 40
0.0001030787
  9
$USRTIMER
 70
     1
  9
$ANGBASE
 50
0.0
  9
$ANGDIR
 70
     0
  9
$PDMODE
 70
     0
  9
$PDSIZE
 40
0.0
  9
$PLINEWID
 40
0.0
  9
$COORDS
 70
     0
  9
$SPLFRAME
 70
     0
  9
$SPLINETYPE
 70
     6
  9
$SPLINESEGS
 70
     8
  9
$ATTDIA
 70
     0
  9
$ATTREQ
 70
     1
  9
$HANDLING
 70
     1
  9
$HANDSEED
  5
F4
  9
$SURFTAB1
 70
     6
  9
$SURFTAB2
 70
     6
  9
$SURFTYPE
 70
     6
  9
$SURFU
 70
     6
  9
$SURFV
 70
     6
  9
$UCSNAME
  2

  9
$UCSORG
 10
0.0
 20
0.0
 30
0.0
  9
$UCSXDIR
 10
1.0
 20
0.0
 30
0.0
  9
$UCSYDIR
 10
0.0
 20
1.0
 30
0.0
  9
$PUCSNAME
  2

  9
$PUCSORG
 10
0.0
 20
0.0
 30
0.0
  9
$PUCSXDIR
 10
1.0
 20
0.0
 30
0.0
  9
$PUCSYDIR
 10
0.0
 20
1.0
 30
0.0
  9
$USERI1
 70
     0
  9
$USERI2
 70
     0
  9
$USERI3
 70
     0
  9
$USERI4
 70
     0
  9
$USERI5
 70
     0
  9
$USERR1
 40
0.0
  9
$USERR2
 40
0.0
  9
$USERR3
 40
0.0
  9
$USERR4
 40
0.0
  9
$USERR5
 40
0.0
  9
$WORLDVIEW
 70
     1
  9
$SHADEDGE
 70
     3
  9
$SHADEDIF
 70
    70
  9
$TILEMODE
 70
     1
  9
$MAXACTVP
 70
    64
  9
$PLIMCHECK
 70
     0
  9
$PEXTMIN
 10
0.0
 20
0.0
 30
0.0
  9
$PEXTMAX
 10
0.0
 20
0.0
 30
0.0
  9
$PLIMMIN
 10
0.0
 20
0.0
  9
$PLIMMAX
 10
12.0
 20
9.0
  9
$UNITMODE
 70
     0
  9
$VISRETAIN
 70
     1
  9
$PLINEGEN
 70
     0
  9
$PSLTSCALE
 70
     1
  0
ENDSEC
  0
SECTION
  2
TABLES
  0
TABLE
  2
VPORT
 70
     2
  0
VPORT
  2
*ACTIVE
 70
     0
 10
0.0
 20
0.0
 11
1.0
 21
1.0
 12
745.44616859341761
 22
395.6789942043589
 13
0.0
 23
0.0
 14
10.0
 24
10.0
 15
10.0
 25
10.0
 16
0.0
 26
0.0
 36
1.0
 17
0.0
 27
0.0
 37
0.0
 40
27.663939437726022
 41
2.021505376344086
 42
50.0
 43
0.0
 44
0.0
 50
0.0
 51
0.0
 71
     0
 72
  1000
 73
     1
 74
     3
 75
     0
 76
     0
 77
     0
 78
     0
  0
ENDTAB
  0
TABLE
  2
LTYPE
 70
     1
  0
LTYPE
  2
CONTINUOUS
 70
     0
  3
Solid line
 72
    65
 73
     0
 40
0.0
  0
ENDTAB
  0
TABLE
  2
LAYER
 70
     1
  0
LAYER
  2
0
 70
     0
 62
     7
  6
CONTINUOUS
  0
ENDTAB
  0
TABLE
  2
STYLE
 70
     2
  0
STYLE
  2
STANDARD
 70
     0
 40
0.0
 41
1.0
 50
0.0
 71
     0
 42
2.5
  3
txt
  4

  0
STYLE
  2
ROMANT
 70
     0
 40
2.5
 41
1.0
 50
15.0
 71
     0
 42
2.5
  3
romant.shx
  4

  0
ENDTAB
  0
TABLE
  2
VIEW
 70
     0
  0
ENDTAB
  0
TABLE
  2
UCS
 70
     0
  0
ENDTAB
  0
TABLE
  2
APPID
 70
     2
  0
APPID
  2
ACAD
 70
     0
  0
APPID
  2
ACAD_PSEXT
 70
     0
  0
ENDTAB
  0
TABLE
  2
DIMSTYLE
 70
     2
  0
DIMSTYLE
  2
ISO-25
 70
     0
  3

  4

  5

  6

  7

 40
1.0
 41
2.5
 42
0.625
 43
3.75
 44
1.25
 45
0.0
 46
0.0
 47
0.0
 48
0.0
140
2.5
141
2.5
142
0.0
143
0.03937007874016
144
1.0
145
0.0
146
1.0
147
0.625
 71
     0
 72
     0
 73
     0
 74
     0
 75
     0
 76
     0
 77
     1
 78
     8
170
     0
171
     3
172
     1
173
     0
174
     0
175
     0
176
     0
177
     0
178
     0
  0
DIMSTYLE
  2
ISO-25_1_E_1
 70
     0
  3

  4

  5

  6

  7

 40
1.0
 41
2.5
 42
0.0
 43
3.75
 44
0.5
 45
0.0
 46
0.0
 47
0.0
 48
0.0
140
1.0
141
0.2
142
0.0
143
0.03937007874016
144
1.0
145
0.0
146
1.0
147
0.4
 71
     0
 72
     0
 73
     0
 74
     0
 75
     0
 76
     0
 77
     1
 78
     8
170
     0
171
     3
172
     0
173
     0
174
     0
175
     0
176
   242
177
   242
178
   242
  0
ENDTAB
  0
ENDSEC
  0
SECTION
  2
BLOCKS
  0
BLOCK
  8
0
  2
$MODEL_SPACE
 70
     0
 10
0.0
 20
0.0
 30
0.0
  3
$MODEL_SPACE
  1

  0
ENDBLK
  5
21
  8
0
  0
BLOCK
 67
     1
  8
0
  2
$PAPER_SPACE
 70
     0
 10
0.0
 20
0.0
 30
0.0
  3
$PAPER_SPACE
  1

  0
ENDBLK
  5
53
 67
     1
  8
0
  0
BLOCK
  8
0
  2
*X2
 70
     1
 10
0.0
 20
0.0
 30
0.0
  3
*X2
  1

  0
LINE
  5
AB
  8
0
 62
     0
 10
54.01509710620121
 20
-0.0000000065019776
 30
0.0
 11
54.938889144317493
 21
0.9237920316143117
 31
0.0
  0
LINE
  5
AC
  8
0
 62
     0
 10
53.117071494094489
 20
-0.0000000065019776
 30
0.0
 11
54.617579755312811
 21
1.5005082547163511
 31
0.0
  0
LINE
  5
AD
  8
0
 62
     0
 10
52.219045881987313
 20
-0.0000000065019776
 30
0.0
 11
54.0956912888198
 21
1.8766454003305171
 31
0.0
  0
LINE
  5
AE
  8
0
 62
     0
 10
51.321020269880592
 20
-0.0000000065019776
 30
0.0
 11
53.321020269880592
 21
1.9999999934980219
 31
0.0
  0
LINE
  5
AF
  8
0
 62
     0
 10
50.422994657773643
 20
-0.0000000065019776
 30
0.0
 11
52.422994657773643
 21
1.9999999934980219
 31
0.0
  0
LINE
  5
B0
  8
0
 62
     0
 10
49.524969045666687
 20
-0.0000000065019776
 30
0.0
 11
51.524969045666687
 21
1.9999999934980219
 31
0.0
  0
LINE
  5
B1
  8
0
 62
     0
 10
48.626943433559973
 20
-0.0000000065019776
 30
0.0
 11
50.626943433559973
 21
1.9999999934980219
 31
0.0
  0
LINE
  5
B2
  8
0
 62
     0
 10
47.728917821452789
 20
-0.0000000065017502
 30
0.0
 11
49.728917821453017
 21
1.9999999934982491
 31
0.0
  0
LINE
  5
B3
  8
0
 62
     0
 10
46.830892209346068
 20
-0.0000000065019776
 30
0.0
 11
48.830892209346068
 21
1.9999999934980219
 31
0.0
  0
LINE
  5
B4
  8
0
 62
     0
 10
45.932866597239119
 20
-0.0000000065017502
 30
0.0
 11
47.932866597239119
 21
1.9999999934982491
 31
0.0
  0
LINE
  5
B5
  8
0
 62
     0
 10
45.034840985132178
 20
-0.0000000065019776
 30
0.0
 11
47.03484098513217
 21
1.9999999934980219
 31
0.0
  0
LINE
  5
B6
  8
0
 62
     0
 10
44.136815373025001
 20
-0.0000000065019776
 30
0.0
 11
46.136815373024987
 21
1.9999999934980219
 31
0.0
  0
LINE
  5
B7
  8
0
 62
     0
 10
43.23878976091828
 20
-0.0000000065017502
 30
0.0
 11
45.2387897609185
 21
1.9999999934982491
 31
0.0
  0
LINE
  5
B8
  8
0
 62
     0
 10
42.340764148811317
 20
-0.0000000065019776
 30
0.0
 11
44.340764148811331
 21
1.9999999934980219
 31
0.0
  0
LINE
  5
B9
  8
0
 62
     0
 10
41.44273853670461
 20
-0.0000000065017502
 30
0.0
 11
43.442738536704603
 21
1.9999999934982491
 31
0.0
  0
LINE
  5
BA
  8
0
 62
     0
 10
40.544712924597661
 20
-0.0000000065019776
 30
0.0
 11
42.544712924597661
 21
1.9999999934980219
 31
0.0
  0
LINE
  5
BB
  8
0
 62
     0
 10
39.646687312490478
 20
-0.0000000065019776
 30
0.0
 11
41.646687312490478
 21
1.9999999934980219
 31
0.0
  0
LINE
  5
BC
  8
0
 62
     0
 10
38.748661700383771
 20
-0.0000000065019776
 30
0.0
 11
40.748661700383757
 21
1.9999999934980219
 31
0.0
  0
LINE
  5
BD
  8
0
 62
     0
 10
37.850636088276822
 20
-0.0000000065019776
 30
0.0
 11
39.850636088276822
 21
1.9999999934980219
 31
0.0
  0
LINE
  5
BE
  8
0
 62
     0
 10
36.952610476170094
 20
-0.0000000065017502
 30
0.0
 11
38.952610476170101
 21
1.9999999934982491
 31
0.0
  0
LINE
  5
BF
  8
0
 62
     0
 10
36.054584864063152
 20
-0.0000000065019776
 30
0.0
 11
38.054584864063152
 21
1.9999999934980219
 31
0.0
  0
LINE
  5
C0
  8
0
 62
     0
 10
35.156559251955969
 20
-0.0000000065019776
 30
0.0
 11
37.156559251955969
 21
1.9999999934980219
 31
0.0
  0
LINE
  5
C1
  8
0
 62
     0
 10
34.258533639849247
 20
-0.0000000065019776
 30
0.0
 11
36.258533639849247
 21
1.9999999934980219
 31
0.0
  0
LINE
  5
C2
  8
0
 62
     0
 10
33.360508027742071
 20
-0.0000000065019776
 30
0.0
 11
35.360508027742071
 21
1.9999999934982491
 31
0.0
  0
LINE
  5
C3
  8
0
 62
     0
 10
32.46248241563535
 20
-0.0000000065019776
 30
0.0
 11
34.46248241563535
 21
1.9999999934980219
 31
0.0
  0
LINE
  5
C4
  8
0
 62
     0
 10
31.564456803528401
 20
-0.0000000065017502
 30
0.0
 11
33.564456803528401
 21
1.9999999934982491
 31
0.0
  0
LINE
  5
C5
  8
0
 62
     0
 10
30.666431191421449
 20
-0.0000000065019776
 30
0.0
 11
32.666431191421452
 21
1.9999999934980219
 31
0.0
  0
LINE
  5
C6
  8
0
 62
     0
 10
29.768405579314511
 20
-0.0000000065019776
 30
0.0
 11
31.768405579314511
 21
1.9999999934980219
 31
0.0
  0
LINE
  5
C7
  8
0
 62
     0
 10
28.870379967207558
 20
-0.0000000065019776
 30
0.0
 11
30.870379967207558
 21
1.9999999934982491
 31
0.0
  0
LINE
  5
C8
  8
0
 62
     0
 10
27.97235435510084
 20
-0.0000000065019776
 30
0.0
 11
29.97235435510083
 21
1.9999999934980219
 31
0.0
  0
LINE
  5
C9
  8
0
 62
     0
 10
27.074328742993892
 20
-0.0000000065017502
 30
0.0
 11
29.074328742993881
 21
1.9999999934982491
 31
0.0
  0
LINE
  5
CA
  8
0
 62
     0
 10
26.176303130886939
 20
-0.0000000065019776
 30
0.0
 11
28.176303130886939
 21
1.9999999934980219
 31
0.0
  0
LINE
  5
CB
  8
0
 62
     0
 10
25.278277518779991
 20
-0.0000000065019776
 30
0.0
 11
27.278277518779991
 21
1.9999999934980219
 31
0.0
  0
LINE
  5
CC
  8
0
 62
     0
 10
24.380251906673038
 20
-0.0000000065019776
 30
0.0
 11
26.380251906673038
 21
1.9999999934982491
 31
0.0
  0
LINE
  5
CD
  8
0
 62
     0
 10
23.48222629456632
 20
-0.0000000065019776
 30
0.0
 11
25.48222629456632
 21
1.9999999934980219
 31
0.0
  0
LINE
  5
CE
  8
0
 62
     0
 10
22.584200682459372
 20
-0.0000000065017502
 30
0.0
 11
24.584200682459372
 21
1.9999999934982491
 31
0.0
  0
LINE
  5
CF
  8
0
 62
     0
 10
21.686175070352419
 20
-0.0000000065019776
 30
0.0
 11
23.686175070352419
 21
1.9999999934980219
 31
0.0
  0
LINE
  5
D0
  8
0
 62
     0
 10
20.788149458245471
 20
-0.0000000065017502
 30
0.0
 11
22.788149458245471
 21
1.9999999934982491
 31
0.0
  0
LINE
  5
D1
  8
0
 62
     0
 10
19.890123846138518
 20
-0.0000000065019776
 30
0.0
 11
21.890123846138518
 21
1.9999999934980219
 31
0.0
  0
LINE
  5
D2
  8
0
 62
     0
 10
18.99209823403157
 20
-0.0000000065017502
 30
0.0
 11
20.99209823403157
 21
1.9999999934982491
 31
0.0
  0
LINE
  5
D3
  8
0
 62
     0
 10
18.094072621924852
 20
-0.0000000065017502
 30
0.0
 11
20.094072621924852
 21
1.9999999934982491
 31
0.0
  0
LINE
  5
D4
  8
0
 62
     0
 10
17.196047009817669
 20
-0.0000000065019776
 30
0.0
 11
19.196047009817669
 21
1.9999999934980219
 31
0.0
  0
LINE
  5
D5
  8
0
 62
     0
 10
16.298021397710951
 20
-0.0000000065017502
 30
0.0
 11
18.29802139771073
 21
1.9999999934980219
 31
0.0
  0
LINE
  5
D6
  8
0
 62
     0
 10
15.399995785604
 20
-0.0000000065019776
 30
0.0
 11
17.399995785603998
 21
1.9999999934980219
 31
0.0
  0
LINE
  5
D7
  8
0
 62
     0
 10
14.501970173496829
 20
-0.0000000065019776
 30
0.0
 11
16.501970173496829
 21
1.9999999934980219
 31
0.0
  0
LINE
  5
D8
  8
0
 62
     0
 10
13.60394456139033
 20
-0.0000000065017502
 30
0.0
 11
15.60394456139033
 21
1.9999999934982491
 31
0.0
  0
LINE
  5
D9
  8
0
 62
     0
 10
12.705918949283159
 20
-0.0000000065019776
 30
0.0
 11
14.705918949283159
 21
1.9999999934980219
 31
0.0
  0
LINE
  5
DA
  8
0
 62
     0
 10
11.80789333717644
 20
-0.0000000065017502
 30
0.0
 11
13.80789333717621
 21
1.9999999934980219
 31
0.0
  0
LINE
  5
DB
  8
0
 62
     0
 10
10.909867725069491
 20
-0.0000000065019776
 30
0.0
 11
12.909867725069491
 21
1.9999999934980219
 31
0.0
  0
LINE
  5
DC
  8
0
 62
     0
 10
10.011842112962309
 20
-0.0000000065019776
 30
0.0
 11
12.011842112962309
 21
1.9999999934980219
 31
0.0
  0
LINE
  5
DD
  8
0
 62
     0
 10
9.1138165008555916
 20
-0.0000000065019776
 30
0.0
 11
11.11381650085559
 21
1.9999999934980219
 31
0.0
  0
LINE
  5
DE
  8
0
 62
     0
 10
8.2157908887486428
 20
-0.0000000065017502
 30
0.0
 11
10.215790888748639
 21
1.9999999934982491
 31
0.0
  0
LINE
  5
DF
  8
0
 62
     0
 10
7.3177652766419206
 20
-0.0000000065017502
 30
0.0
 11
9.3177652766416941
 21
1.9999999934980219
 31
0.0
  0
LINE
  5
E0
  8
0
 62
     0
 10
6.4197396645349718
 20
-0.0000000065017502
 30
0.0
 11
8.4197396645349727
 21
1.9999999934982491
 31
0.0
  0
LINE
  5
E1
  8
0
 62
     0
 10
5.5217140524277957
 20
-0.0000000065019776
 30
0.0
 11
7.5217140524277957
 21
1.9999999934980219
 31
0.0
  0
LINE
  5
E2
  8
0
 62
     0
 10
4.6236884403210752
 20
-0.0000000065019776
 30
0.0
 11
6.6236884403210752
 21
1.9999999934980219
 31
0.0
  0
LINE
  5
E3
  8
0
 62
     0
 10
3.725662828214126
 20
-0.0000000065017502
 30
0.0
 11
5.7256628282141264
 21
1.9999999934982491
 31
0.0
  0
LINE
  5
E4
  8
0
 62
     0
 10
2.8276372161071772
 20
-0.0000000065019776
 30
0.0
 11
4.8276372161071768
 21
1.9999999934980219
 31
0.0
  0
LINE
  5
E5
  8
0
 62
     0
 10
1.929611604000228
 20
-0.0000000065017502
 30
0.0
 11
3.929611604000228
 21
1.9999999934982491
 31
0.0
  0
LINE
  5
E6
  8
0
 62
     0
 10
1.0315859918932799
 20
-0.0000000065019776
 30
0.0
 11
3.0315859918932802
 21
1.9999999934980219
 31
0.0
  0
LINE
  5
E7
  8
0
 62
     0
 10
0.1654338997382183
 20
0.0318735134501367
 30
0.0
 11
2.133560379786331
 21
1.9999999934980219
 31
0.0
  0
LINE
  5
E8
  8
0
 62
     0
 10
0.0289849436840086
 20
0.7934501695026484
 30
0.0
 11
1.2065504012475681
 21
1.971015627066208
 31
0.0
  0
ENDBLK
  5
EA
  8
0
  0
ENDSEC
  0
SECTION
  2
ENTITIES
  0
ARC
  5
94
  8
0
 10
771.44903383564099
 20
395.05726032599728
 30
0.0
 40
1.5
 50
0.0
 51
90.0
  0
LINE
  5
95
  8
0
 10
772.9490338356411
 20
395.05726032599728
 30
0.0
 11
772.9490338356411
 21
394.857260325997
 31
0.0
  0
ARC
  5
96
  8
0
 10
772.64903383564126
 20
394.85726032599712
 30
0.0
 40
0.2999999999998408
 50
269.99999999997829
 51
359.99999999997829
  0
LINE
  5
97
  8
0
 10
772.64903383564115
 20
394.55726032599728
 30
0.0
 11
718.24903383564083
 21
394.55726032599728
 31
0.0
  0
ARC
  5
98
  8
0
 10
718.24903383564072
 20
394.85726032599712
 30
0.0
 40
0.2999999999998408
 50
180.00000000002171
 51
270.0000000000216
  0
LINE
  5
99
  8
0
 10
717.94903383564088
 20
394.857260325997
 30
0.0
 11
717.94903383564088
 21
395.05726032599728
 31
0.0
  0
ARC
  5
9A
  8
0
 10
719.44903383564088
 20
395.05726032599711
 30
0.0
 40
1.500000000000113
 50
90.000000000004334
 51
179.99999999999559
  0
LINE
  5
9B
  8
0
 10
719.44903383564076
 20
396.55726032599728
 30
0.0
 11
771.44903383564099
 21
396.55726032599728
 31
0.0
  0
ENDSEC
  0
EOF
