  0
SECTION
  2
HEADER
  9
$ACADVER
  1
AC1012
  9
$DWGCODEPAGE
  3
ANSI_1252
  9
$INSBASE
 10
0.0
 20
0.0
 30
0.0
  9
$EXTMIN
 10
1183.026709370735
 20
141.7047767351361
 30
0.0
  9
$EXTMAX
 10
1359.374811489898
 20
195.0028478917551
 30
0.0
  9
$LIMMIN
 10
0.0
 20
0.0
  9
$LIMMAX
 10
420.0
 20
297.0
  9
$ORTHOMODE
 70
     0
  9
$REGENMODE
 70
     1
  9
$FILLMODE
 70
     1
  9
$QTEXTMODE
 70
     0
  9
$MIRRTEXT
 70
     1
  9
$DRAGMODE
 70
     2
  9
$LTSCALE
 40
1.0
  9
$OSMODE
 70
    21
  9
$ATTMODE
 70
     1
  9
$TEXTSIZE
 40
0.2
  9
$TRACEWID
 40
1.0
  9
$TEXTSTYLE
  7
STANDARD
  9
$CLAYER
  8
0
  9
$CELTYPE
  6
BYLAYER
  9
$CECOLOR
 62
   256
  9
$CELTSCALE
 40
1.0
  9
$DELOBJ
 70
     1
  9
$DISPSILH
 70
     0
  9
$DIMSCALE
 40
0.8
  9
$DIMASZ
 40
2.5
  9
$DIMEXO
 40
0.0
  9
$DIMDLI
 40
3.75
  9
$DIMRND
 40
0.0
  9
$DIMDLE
 40
0.0
  9
$DIMEXE
 40
0.0
  9
$DIMTP
 40
0.0
  9
$DIMTM
 40
0.0
  9
$DIMTXT
 40
2.5
  9
$DIMCEN
 40
0.2
  9
$DIMTSZ
 40
0.0
  9
$DIMTOL
 70
     0
  9
$DIMLIM
 70
     0
  9
$DIMTIH
 70
     0
  9
$DIMTOH
 70
     0
  9
$DIMSE1
 70
     0
  9
$DIMSE2
 70
     0
  9
$DIMTAD
 70
     1
  9
$DIMZIN
 70
     8
  9
$DIMBLK
  1

  9
$DIMASO
 70
     1
  9
$DIMSHO
 70
     1
  9
$DIMPOST
  1

  9
$DIMAPOST
  1

  9
$DIMALT
 70
     0
  9
$DIMALTD
 70
     3
  9
$DIMALTF
 40
0.03937007874016
  9
$DIMLFAC
 40
1.0
  9
$DIMTOFL
 70
     0
  9
$DIMTVP
 40
0.0
  9
$DIMTIX
 70
     0
  9
$DIMSOXD
 70
     0
  9
$DIMSAH
 70
     0
  9
$DIMBLK1
  1

  9
$DIMBLK2
  1

  9
$DIMSTYLE
  2
ISO-25-1-1
  9
$DIMCLRD
 70
   242
  9
$DIMCLRE
 70
   242
  9
$DIMCLRT
 70
   242
  9
$DIMTFAC
 40
1.0
  9
$DIMGAP
 40
0.4
  9
$DIMJUST
 70
     0
  9
$DIMSD1
 70
     0
  9
$DIMSD2
 70
     0
  9
$DIMTOLJ
 70
     0
  9
$DIMTZIN
 70
     8
  9
$DIMALTZ
 70
     0
  9
$DIMALTTZ
 70
     0
  9
$DIMFIT
 70
     3
  9
$DIMUPT
 70
     0
  9
$DIMUNIT
 70
     2
  9
$DIMDEC
 70
     1
  9
$DIMTDEC
 70
     1
  9
$DIMALTU
 70
     2
  9
$DIMALTTD
 70
     3
  9
$DIMTXSTY
  7
ROMANT
  9
$DIMAUNIT
 70
     0
  9
$LUNITS
 70
     2
  9
$LUPREC
 70
     4
  9
$SKETCHINC
 40
1.0
  9
$FILLETRAD
 40
0.0
  9
$AUNITS
 70
     0
  9
$AUPREC
 70
     0
  9
$MENU
  1
.
  9
$ELEVATION
 40
0.0
  9
$PELEVATION
 40
0.0
  9
$THICKNESS
 40
0.0
  9
$LIMCHECK
 70
     0
  9
$BLIPMODE
 70
     0
  9
$CHAMFERA
 40
2.5
  9
$CHAMFERB
 40
2.5
  9
$CHAMFERC
 40
0.0
  9
$CHAMFERD
 40
0.0
  9
$SKPOLY
 70
     0
  9
$TDCREATE
 40
2305814.125509386
  9
$TDUPDATE
 40
2454042.419623241
  9
$TDINDWG
 40
0.1225899074
  9
$TDUSRTIMER
 40
0.1225891898
  9
$USRTIMER
 70
     1
  9
$ANGBASE
 50
0.0
  9
$ANGDIR
 70
     0
  9
$PDMODE
 70
     0
  9
$PDSIZE
 40
0.0
  9
$PLINEWID
 40
0.0
  9
$COORDS
 70
     1
  9
$SPLFRAME
 70
     0
  9
$SPLINETYPE
 70
     6
  9
$SPLINESEGS
 70
     8
  9
$ATTDIA
 70
     0
  9
$ATTREQ
 70
     1
  9
$HANDLING
 70
-16383
  9
$HANDSEED
  5
91
  9
$SURFTAB1
 70
     6
  9
$SURFTAB2
 70
     6
  9
$SURFTYPE
 70
     6
  9
$SURFU
 70
     6
  9
$SURFV
 70
     6
  9
$UCSNAME
  2

  9
$UCSORG
 10
0.0
 20
0.0
 30
0.0
  9
$UCSXDIR
 10
1.0
 20
0.0
 30
0.0
  9
$UCSYDIR
 10
0.0
 20
1.0
 30
0.0
  9
$PUCSNAME
  2

  9
$PUCSORG
 10
0.0
 20
0.0
 30
0.0
  9
$PUCSXDIR
 10
1.0
 20
0.0
 30
0.0
  9
$PUCSYDIR
 10
0.0
 20
1.0
 30
0.0
  9
$USERI1
 70
     0
  9
$USERI2
 70
     0
  9
$USERI3
 70
     0
  9
$USERI4
 70
     0
  9
$USERI5
 70
     0
  9
$USERR1
 40
0.0
  9
$USERR2
 40
0.0
  9
$USERR3
 40
0.0
  9
$USERR4
 40
0.0
  9
$USERR5
 40
0.0
  9
$WORLDVIEW
 70
     1
  9
$SHADEDGE
 70
     3
  9
$SHADEDIF
 70
    70
  9
$TILEMODE
 70
     1
  9
$MAXACTVP
 70
    48
  9
$PINSBASE
 10
0.0
 20
0.0
 30
0.0
  9
$PLIMCHECK
 70
     0
  9
$PEXTMIN
 10
0.0
 20
0.0
 30
0.0
  9
$PEXTMAX
 10
231.295807
 20
145.059021
 30
2.0
  9
$PLIMMIN
 10
0.0
 20
0.0
  9
$PLIMMAX
 10
420.0
 20
297.0
  9
$UNITMODE
 70
     0
  9
$VISRETAIN
 70
     0
  9
$PLINEGEN
 70
     0
  9
$PSLTSCALE
 70
     1
  9
$TREEDEPTH
 70
  3020
  9
$PICKSTYLE
 70
     1
  9
$CMLSTYLE
  2
STANDARD
  9
$CMLJUST
 70
     0
  9
$CMLSCALE
 40
1.0
  9
$SAVEIMAGES
 70
     1
  0
ENDSEC
  0
SECTION
  2
CLASSES
  0
CLASS
  1
ACDBDICTIONARYWDFLT
  2
AcDbDictionaryWithDefault
  3
AutoCAD 2000
 90
    32768
280
     0
281
     0
  0
CLASS
  1
ACDBPLACEHOLDER
  2
AcDbPlaceHolder
  3
AutoCAD 2000
 90
    32768
280
     0
281
     0
  0
CLASS
  1
LAYOUT
  2
AcDbLayout
  3
AutoCAD 2000
 90
    32768
280
     0
281
     0
  0
CLASS
  1
DICTIONARYVAR
  2
AcDbDictionaryVar
  3
AutoCAD 2000
 90
    32768
280
     0
281
     0
  0
CLASS
  1
LONG_TRANSACTION
  2
AcDbLongTransaction
  3
AutoCAD 2000
 90
    32768
280
     0
281
     0
  0
CLASS
  1
LWPOLYLINE
  2
AcDbPolyline
  3
AutoCAD 2000
 90
    32768
280
     0
281
     1
  0
CLASS
  1
HATCH
  2
AcDbHatch
  3
AutoCAD 2000
 90
    32768
280
     0
281
     1
  0
CLASS
  1
XRECORD
  2
AcDbXrecord
  3
AutoCAD 2000
 90
    32768
280
     0
281
     0
  0
CLASS
  1
LONG_TRANSACTION
  2
AcDbLongTransaction
  3
AutoCAD 2000
 90
    32768
280
     0
281
     0
  0
CLASS
  1
LWPOLYLINE
  2
AcDbPolyline
  3
AutoCAD 2000
 90
    32768
280
     0
281
     1
  0
CLASS
  1
HATCH
  2
AcDbHatch
  3
AutoCAD 2000
 90
    32768
280
     0
281
     1
  0
CLASS
  1
XRECORD
  2
AcDbXrecord
  3
AutoCAD 2000
 90
    32768
280
     0
281
     0
  0
ENDSEC
  0
SECTION
  2
TABLES
  0
TABLE
  2
VPORT
  5
21
330
0
100
AcDbSymbolTable
 70
     1
  0
VPORT
  5
22
330
21
100
AcDbSymbolTableRecord
100
AcDbViewportTableRecord
  2
*ACTIVE
 70
     0
 10
0.0
 20
0.0
 11
1.0
 21
1.0
 12
1274.89884688541
 22
178.6128065110248
 13
0.0
 23
0.0
 14
1.0
 24
1.0
 15
0.0
 25
0.0
 16
0.0
 26
0.0
 36
1.0
 17
0.0
 27
0.0
 37
0.0
 40
166.251580096198
 41
1.674157303370786
 42
50.0
 43
0.0
 44
0.0
 50
0.0
 51
0.0
 71
     0
 72
   100
 73
     1
 74
     1
 75
     0
 76
     0
 77
     0
 78
     0
  0
ENDTAB
  0
TABLE
  2
LTYPE
  5
1C
330
0
100
AcDbSymbolTable
 70
     1
  0
LTYPE
  5
1D
330
1C
100
AcDbSymbolTableRecord
100
AcDbLinetypeTableRecord
  2
BYBLOCK
 70
     0
  3

 72
    65
 73
     0
 40
0.0
  0
LTYPE
  5
1E
330
1C
100
AcDbSymbolTableRecord
100
AcDbLinetypeTableRecord
  2
BYLAYER
 70
     0
  3

 72
    65
 73
     0
 40
0.0
  0
LTYPE
  5
B
330
1C
100
AcDbSymbolTableRecord
100
AcDbLinetypeTableRecord
  2
CONTINUOUS
 70
     0
  3
Solid line
 72
    65
 73
     0
 40
0.0
  0
ENDTAB
  0
TABLE
  2
LAYER
  5
15
102
{ACAD_XDICTIONARY
360
16
102
}
330
0
100
AcDbSymbolTable
 70
     1
  0
LAYER
  5
6
330
15
100
AcDbSymbolTableRecord
100
AcDbLayerTableRecord
  2
0
 70
     0
 62
     7
  6
CONTINUOUS
  0
ENDTAB
  0
TABLE
  2
STYLE
  5
19
330
0
100
AcDbSymbolTable
 70
     2
  0
STYLE
  5
1A
330
19
100
AcDbSymbolTableRecord
100
AcDbTextStyleTableRecord
  2
STANDARD
 70
     0
 40
0.0
 41
1.0
 50
0.0
 71
     0
 42
0.2
  3
txt
  4

  0
STYLE
  5
29
330
19
100
AcDbSymbolTableRecord
100
AcDbTextStyleTableRecord
  2
ROMANT
 70
     0
 40
2.299999999999998
 41
1.0
 50
15.0
 71
     0
 42
2.0
  3
romant.shx
  4

  0
ENDTAB
  0
TABLE
  2
VIEW
  5
1F
330
0
100
AcDbSymbolTable
 70
     0
  0
ENDTAB
  0
TABLE
  2
UCS
  5
20
330
0
100
AcDbSymbolTable
 70
     0
  0
ENDTAB
  0
TABLE
  2
APPID
  5
23
330
0
100
AcDbSymbolTable
 70
     1
  0
APPID
  5
A
330
23
100
AcDbSymbolTableRecord
100
AcDbRegAppTableRecord
  2
ACAD
 70
     0
  0
ENDTAB
  0
TABLE
  2
DIMSTYLE
  5
24
330
0
100
AcDbSymbolTable
 70
     1
  0
DIMSTYLE
105
2B
330
24
100
AcDbSymbolTableRecord
100
AcDbDimStyleTableRecord
  2
ISO-25-1-1
 70
     0
  3

  4

  5

  6

  7

 40
0.8
 41
2.5
 42
0.0
 43
3.75
 44
0.0
 45
0.0
 46
0.0
 47
0.0
 48
0.0
140
2.5
141
0.2
142
0.0
143
0.03937007874016
144
1.0
145
0.0
146
1.0
147
0.4
 71
     0
 72
     0
 73
     0
 74
     0
 75
     0
 76
     0
 77
     1
 78
     8
170
     0
171
     3
172
     0
173
     0
174
     0
175
     0
176
   242
177
   242
178
   242
270
     2
271
     1
272
     1
273
     2
274
     3
340
29
275
     0
280
     0
281
     0
282
     0
283
     0
284
     8
285
     0
286
     0
287
     3
288
     0
  0
ENDTAB
  0
TABLE
  2
BLOCK_RECORD
  5
1
330
0
100
AcDbSymbolTable
 70
     0
  0
BLOCK_RECORD
  5
2
102
{ACAD_XDICTIONARY
360
3
102
}
330
1
100
AcDbSymbolTableRecord
100
AcDbBlockTableRecord
  2
*MODEL_SPACE
  0
BLOCK_RECORD
  5
F
102
{ACAD_XDICTIONARY
360
10
102
}
330
1
100
AcDbSymbolTableRecord
100
AcDbBlockTableRecord
  2
*PAPER_SPACE
  0
ENDTAB
  0
ENDSEC
  0
SECTION
  2
BLOCKS
  0
BLOCK
  5
5
330
2
100
AcDbEntity
  8
0
100
AcDbBlockBegin
  2
*MODEL_SPACE
 70
     0
 10
0.0
 20
0.0
 30
0.0
  3
*MODEL_SPACE
  1

  0
ENDBLK
  5
C
330
2
100
AcDbEntity
  8
0
100
AcDbBlockEnd
  0
BLOCK
  5
12
330
F
100
AcDbEntity
 67
     1
  8
0
100
AcDbBlockBegin
  2
*PAPER_SPACE
 70
     0
 10
0.0
 20
0.0
 30
0.0
  3
*PAPER_SPACE
  1

  0
ENDBLK
  5
13
330
F
100
AcDbEntity
 67
     1
  8
0
100
AcDbBlockEnd
  0
ENDSEC
  0
SECTION
  2
ENTITIES
  0
LINE
  5
2C
330
2
100
AcDbEntity
  8
0
100
AcDbLine
 10
1359.374811489898
 20
144.0042916983234
 30
0.0
 11
1303.997667582928
 21
164.3509407792535
 31
0.0
  0
ARC
  5
2D
330
2
100
AcDbEntity
  8
0
100
AcDbCircle
 10
1191.388426828219
 20
156.0553046512955
 30
0.0
 40
10.6999737563959
100
AcDbArc
 50
283.6222538268227
 51
322.9419413646219
  0
LINE
  5
2E
330
2
100
AcDbEntity
  8
0
100
AcDbLine
 10
1303.060079692237
 20
162.2450853643336
 30
0.0
 11
1358.581571418679
 21
141.8453928504556
 31
0.0
  0
ARC
  5
2F
330
2
100
AcDbEntity
  8
0
100
AcDbCircle
 10
1191.388416228073
 20
156.0553290857062
 30
0.0
 40
12.99999999999989
100
AcDbArc
 50
271.8902261757953
 51
328.8576511757884
  0
LINE
  5
30
330
2
100
AcDbEntity
  8
0
100
AcDbLine
 10
1193.532480923417
 20
152.4462743465947
 30
0.0
 11
1190.527415715379
 21
145.6967920811254
 31
0.0
  0
LINE
  5
31
330
2
100
AcDbEntity
  8
0
100
AcDbLine
 10
1193.3339465994
 20
146.3456273818467
 30
0.0
 11
1196.569114213275
 21
153.6119277527204
 31
0.0
  0
ARC
  5
32
330
2
100
AcDbEntity
  8
0
100
AcDbCircle
 10
1192.274190881259
 20
144.9190771289575
 30
0.0
 40
1.912083687227368
100
AcDbArc
 50
155.9999851757991
 51
256.1729132749707
  0
ARC
  5
33
330
2
100
AcDbEntity
  8
0
100
AcDbCircle
 10
1193.790718164458
 20
146.1422587130405
 30
0.0
 40
0.4999990780960817
100
AcDbArc
 50
155.9999094048112
 51
283.622571752504
  0
LINE
  5
34
330
2
100
AcDbEntity
  8
0
100
AcDbLine
 10
1358.581571418679
 20
141.8453928504556
 30
0.0
 11
1359.374811489898
 21
144.0042916983234
 31
0.0
  0
ARC
  5
35
330
2
100
AcDbEntity
  8
0
100
AcDbCircle
 10
1212.220100114552
 20
191.3307719768654
 30
0.0
 40
2.999999712322621
100
AcDbArc
 50
10.99998169405562
 51
100.869507657524
  0
ARC
  5
36
330
2
100
AcDbEntity
  8
0
100
AcDbCircle
 10
1248.504794723288
 20
128.2778758834741
 30
0.0
 40
52.91623601513248
100
AcDbArc
 50
129.130224965434
 51
153.8045996763153
  0
LINE
  5
37
330
2
100
AcDbEntity
  8
0
100
AcDbLine
 10
1207.914529492196
 20
168.8855867525194
 30
0.0
 11
1214.699199108865
 21
170.2043911763173
 31
0.0
  0
LINE
  5
38
330
2
100
AcDbEntity
  8
0
100
AcDbLine
 10
1212.345642444399
 20
172.2936933530048
 30
0.0
 11
1209.891573386784
 21
171.8166764118856
 31
0.0
  0
LINE
  5
39
330
2
100
AcDbEntity
  8
0
100
AcDbLine
 10
1210.684189153735
 20
191.5480936792361
 30
0.0
 11
1212.812164387029
 21
191.9534856973898
 31
0.0
  0
LINE
  5
3A
330
2
100
AcDbEntity
  8
0
100
AcDbLine
 10
1211.627241674174
 20
186.6965164343096
 30
0.0
 11
1210.684189153735
 21
191.5480936792361
 31
0.0
  0
LINE
  5
3B
330
2
100
AcDbEntity
  8
0
100
AcDbLine
 10
1209.66399161172
 20
186.3149110820178
 30
0.0
 11
1211.627241674174
 21
186.6965164343096
 31
0.0
  0
LINE
  5
3C
330
2
100
AcDbEntity
  8
0
100
AcDbLine
 10
1211.654381691136
 20
194.276949320364
 30
0.0
 11
1203.292033323084
 21
192.6662991325188
 31
0.0
  0
ARC
  5
3D
330
2
100
AcDbEntity
  8
0
100
AcDbCircle
 10
1250.524562141224
 20
126.2175313464734
 30
0.0
 40
53.53498800000028
100
AcDbArc
 50
72.16164617579396
 51
149.6764461757865
  0
LINE
  5
3E
330
2
100
AcDbEntity
  8
0
100
AcDbLine
 10
1206.316455639075
 20
177.1069953036558
 30
0.0
 11
1207.914529492196
 21
168.8855867525194
 31
0.0
  0
LINE
  5
3F
330
2
100
AcDbEntity
  8
0
100
AcDbLine
 10
1183.026709370735
 20
157.1237484601381
 30
0.0
 11
1186.57584220029
 21
155.5435716161505
 31
0.0
  0
LINE
  5
40
330
2
100
AcDbEntity
  8
0
100
AcDbLine
 10
1196.569114213275
 20
153.6119277527204
 30
0.0
 11
1183.962199312601
 21
159.2248918081302
 31
0.0
  0
LINE
  5
41
330
2
100
AcDbEntity
  8
0
100
AcDbLine
 10
1183.962199312601
 20
159.2248918081302
 30
0.0
 11
1183.026709370735
 21
157.1237484601381
 31
0.0
  0
LINE
  5
42
330
2
100
AcDbEntity
  8
0
100
AcDbLine
 10
1187.525296279865
 20
155.1208471301918
 30
0.0
 11
1193.532480923417
 21
152.4462743465947
 31
0.0
  0
LINE
  5
43
330
2
100
AcDbEntity
  8
0
100
AcDbLine
 10
1198.717569592464
 20
150.1458403513661
 30
0.0
 11
1199.927276299121
 21
149.6072438497191
 31
0.0
  0
LINE
  5
44
330
2
100
AcDbEntity
  8
0
100
AcDbLine
 10
1199.653065635382
 20
152.2469974025384
 30
0.0
 11
1198.717569592464
 21
150.1458403513661
 31
0.0
  0
LINE
  5
45
330
2
100
AcDbEntity
  8
0
100
AcDbLine
 10
1201.023383663994
 20
151.6368920833805
 30
0.0
 11
1199.653065635382
 21
152.2469974025384
 31
0.0
  0
LINE
  5
46
330
2
100
AcDbEntity
  8
0
100
AcDbLine
 10
1202.514922103153
 20
149.3321700803121
 30
0.0
 11
1204.313799145462
 21
153.2464107814346
 31
0.0
  0
LINE
  5
47
330
2
100
AcDbEntity
  8
0
100
AcDbLine
 10
1187.172399080912
 20
155.6061446628172
 30
0.0
 11
1187.525296279865
 21
155.1208471301918
 31
0.0
  0
LINE
  5
48
330
2
100
AcDbEntity
  8
0
100
AcDbLine
 10
1186.57584220029
 20
155.5435716161505
 30
0.0
 11
1187.172399080912
 21
155.6061446628172
 31
0.0
  0
LINE
  5
49
330
2
100
AcDbEntity
  8
0
100
AcDbLine
 10
1208.770523783146
 20
177.5840126515119
 30
0.0
 11
1206.316455639075
 21
177.1069953036558
 31
0.0
  0
LINE
  5
4A
330
2
100
AcDbEntity
  8
0
100
AcDbLine
 10
1209.891573386784
 20
171.8166764118856
 30
0.0
 11
1208.770523783146
 21
177.5840126515119
 31
0.0
  0
LINE
  5
4B
330
2
100
AcDbEntity
  8
0
100
AcDbLine
 10
1208.719502622911
 20
191.1738412893829
 30
0.0
 11
1209.66399161172
 21
186.3149110820178
 31
0.0
  0
LINE
  5
4C
330
2
100
AcDbEntity
  8
0
100
AcDbLine
 10
1207.575205258353
 20
183.9733332378734
 30
0.0
 11
1206.277881663101
 21
190.7086868130171
 31
0.0
  0
LINE
  5
4D
330
2
100
AcDbEntity
  8
0
100
AcDbLine
 10
1203.292033323084
 20
192.6662991325188
 30
0.0
 11
1205.076203221127
 21
183.4875678530471
 31
0.0
  0
LINE
  5
4E
330
2
100
AcDbEntity
  8
0
100
AcDbLine
 10
1205.076203221127
 20
183.4875678530471
 30
0.0
 11
1207.575205258353
 21
183.9733332378734
 31
0.0
  0
LINE
  5
4F
330
2
100
AcDbEntity
  8
0
100
AcDbLine
 10
1206.277881663101
 20
190.7086868130171
 30
0.0
 11
1208.719502622911
 21
191.1738412893829
 31
0.0
  0
LINE
  5
50
330
2
100
AcDbEntity
  8
0
100
AcDbLine
 10
1306.274440044051
 20
169.9452943168253
 30
0.0
 11
1306.211196328002
 21
172.2905008750597
 31
0.0
  0
LINE
  5
51
330
2
100
AcDbEntity
  8
0
100
AcDbLine
 10
1303.576730390191
 20
175.3524315584708
 30
0.0
 11
1304.111768753917
 21
170.2619454508256
 31
0.0
  0
LINE
  5
52
330
2
100
AcDbEntity
  8
0
100
AcDbLine
 10
1288.210859657866
 20
171.2491522091846
 30
0.0
 11
1292.277229893328
 21
180.383262779393
 31
0.0
  0
ARC
  5
53
330
2
100
AcDbEntity
  8
0
100
AcDbCircle
 10
1280.880224514558
 20
171.9953305439136
 30
0.0
 40
0.5000000872663605
100
AcDbArc
 50
155.9999851758088
 51
245.9999751758192
  0
ARC
  5
54
330
2
100
AcDbEntity
  8
0
100
AcDbCircle
 10
1214.794603576216
 20
169.7135770880031
 30
0.0
 40
0.5000004816780134
100
AcDbArc
 50
309.1302249654164
 51
100.9999857294962
  0
LINE
  5
55
330
2
100
AcDbEntity
  8
0
100
AcDbLine
 10
1292.1183399525
 20
168.9621269005872
 30
0.0
 11
1288.464269995404
 21
170.589024796442
 31
0.0
  0
LINE
  5
56
330
2
100
AcDbEntity
  8
0
100
AcDbLine
 10
1280.676855959623
 20
171.5385578234825
 30
0.0
 11
1291.182850417371
 21
166.8609844661405
 31
0.0
  0
ARC
  5
57
330
2
100
AcDbEntity
  8
0
100
AcDbCircle
 10
1288.667638435215
 20
171.045797472851
 30
0.0
 40
0.5000000002248858
100
AcDbArc
 50
156.0017040749267
 51
245.9999851757713
  0
LINE
  5
58
330
2
100
AcDbEntity
  8
0
100
AcDbLine
 10
1303.997667582928
 20
164.3509407792535
 30
0.0
 11
1306.102264928103
 21
169.0779405192996
 31
0.0
  0
ARC
  5
59
330
2
100
AcDbEntity
  8
0
100
AcDbCircle
 10
1298.309782878577
 20
165.6581823651336
 30
0.0
 40
0.4999999999996441
100
AcDbArc
 50
65.999985175802
 51
155.9999751757993
  0
LINE
  5
5A
330
2
100
AcDbEntity
  8
0
100
AcDbLine
 10
1300.731108796955
 20
165.1274560614339
 30
0.0
 11
1298.513151318296
 21
166.1149550413369
 31
0.0
  0
LINE
  5
5B
330
2
100
AcDbEntity
  8
0
100
AcDbLine
 10
1304.111768753917
 20
170.2619454508256
 30
0.0
 11
1302.051397094359
 21
165.6342781578608
 31
0.0
  0
LINE
  5
5C
330
2
100
AcDbEntity
  8
0
100
AcDbLine
 10
1302.810313149733
 20
161.6841009155995
 30
0.0
 11
1303.060079692237
 21
162.2450853643336
 31
0.0
  0
LINE
  5
5D
330
2
100
AcDbEntity
  8
0
100
AcDbLine
 10
1297.577667884219
 20
164.0138263100705
 30
0.0
 11
1302.810313149733
 21
161.6841009155995
 31
0.0
  0
ARC
  5
5E
330
2
100
AcDbEntity
  8
0
100
AcDbCircle
 10
1297.781015199657
 20
164.4705908772341
 30
0.0
 40
0.4999840002558695
100
AcDbArc
 50
155.9999851757608
 51
246.0018186700343
  0
LINE
  5
5F
330
2
100
AcDbEntity
  8
0
100
AcDbLine
 10
1297.853010237868
 20
165.8615508845745
 30
0.0
 11
1297.324257139946
 21
164.6739528092675
 31
0.0
  0
ARC
  5
60
330
2
100
AcDbEntity
  8
0
100
AcDbCircle
 10
1301.137838118392
 20
166.0410211029032
 30
0.0
 40
1.000014912844317
100
AcDbArc
 50
246.0008396061068
 51
335.9999851757875
  0
ARC
  5
61
330
2
100
AcDbEntity
  8
0
100
AcDbCircle
 10
1291.914971455172
 20
168.50535420227
 30
0.0
 40
0.5000000436332463
100
AcDbArc
 50
335.9999851757947
 51
65.99998017577714
  0
LINE
  5
62
330
2
100
AcDbEntity
  8
0
100
AcDbLine
 10
1291.842991533292
 20
167.1143887026246
 30
0.0
 11
1292.371744171237
 21
168.3019857448035
 31
0.0
  0
ARC
  5
63
330
2
100
AcDbEntity
  8
0
100
AcDbCircle
 10
1291.386218857089
 20
167.3177571423435
 30
0.0
 40
0.499999999999318
100
AcDbArc
 50
245.9999851758138
 51
335.9999851758112
  0
ARC
  5
64
330
2
100
AcDbEntity
  8
0
100
AcDbCircle
 10
1304.275251606452
 20
169.8913798249478
 30
0.0
 40
1.99991529357156
100
AcDbArc
 50
335.999985175807
 51
1.54478899075096
  0
ARC
  5
65
330
2
100
AcDbEntity
  8
0
100
AcDbCircle
 10
1250.484775611477
 20
126.129687919779
 30
0.0
 40
55.83237885470987
100
AcDbArc
 50
75.67990148818815
 51
92.51868975019901
  0
LINE
  5
66
330
2
100
AcDbEntity
  8
0
100
AcDbLine
 10
1230.831632399304
 20
178.3887421978663
 30
0.0
 11
1230.041048835694
 21
184.837813460247
 31
0.0
  0
LINE
  5
67
330
2
100
AcDbEntity
  8
0
100
AcDbLine
 10
1245.922140736856
 20
186.7846880553156
 30
0.0
 11
1246.530547770863
 21
181.82184546652
 31
0.0
  0
LINE
  5
68
330
2
100
AcDbEntity
  8
0
100
AcDbLine
 10
1248.031206522435
 20
181.908129340288
 30
0.0
 11
1247.228504912745
 21
188.4560681435243
 31
0.0
  0
LINE
  5
69
330
2
100
AcDbEntity
  8
0
100
AcDbLine
 10
1212.812164387029
 20
191.9534856973898
 30
0.0
 11
1216.477514816974
 21
173.0968435447356
 31
0.0
  0
LINE
  5
6A
330
2
100
AcDbEntity
  8
0
100
AcDbLine
 10
1218.703012448957
 20
173.7015759285119
 30
0.0
 11
1215.164981565393
 21
191.9031979672169
 31
0.0
  0
LINE
  5
6B
330
2
100
AcDbEntity
  8
0
100
AcDbLine
 10
1228.369650037589
 20
186.1441356130491
 30
0.0
 11
1229.389700911792
 21
177.8235248306575
 31
0.0
  0
ARC
  5
6C
330
2
100
AcDbEntity
  8
0
100
AcDbCircle
 10
1250.48475858863
 20
126.1294071750572
 30
0.0
 40
55.8326380000062
100
AcDbArc
 50
94.06123417579605
 51
110.6097341757982
  0
ARC
  5
6D
330
2
100
AcDbEntity
  8
0
100
AcDbCircle
 10
1250.484328201248
 20
126.130160703468
 30
0.0
 40
55.83177585629264
100
AcDbArc
 50
112.1990081872411
 51
122.8158051901379
  0
LINE
  5
6E
330
2
100
AcDbEntity
  8
0
100
AcDbLine
 10
1211.587119657295
 20
176.195950840295
 30
0.0
 11
1212.345642444399
 21
172.2936933530048
 31
0.0
  0
LINE
  5
6F
330
2
100
AcDbEntity
  8
0
100
AcDbLine
 10
1213.55037388719
 20
176.5775630942126
 30
0.0
 11
1211.587119657295
 21
176.195950840295
 31
0.0
  0
LINE
  5
70
330
2
100
AcDbEntity
  8
0
100
AcDbLine
 10
1214.308912311087
 20
172.6753063074236
 30
0.0
 11
1213.55037388719
 21
176.5775630942126
 31
0.0
  0
LINE
  5
71
330
2
100
AcDbEntity
  8
0
100
AcDbLine
 10
1216.477514816974
 20
173.0968435447356
 30
0.0
 11
1214.308912311087
 21
172.6753063074236
 31
0.0
  0
ARC
  5
72
330
2
100
AcDbEntity
  8
0
100
AcDbCircle
 10
1219.684641183241
 20
173.8923867030627
 30
0.0
 40
1.000001861827114
100
AcDbArc
 50
191.0000831115131
 51
302.8342054831365
  0
LINE
  5
73
330
2
100
AcDbEntity
  8
0
100
AcDbLine
 10
1230.041048835694
 20
184.837813460247
 30
0.0
 11
1233.018770880939
 21
185.2028556845913
 31
0.0
  0
LINE
  5
74
330
2
100
AcDbEntity
  8
0
100
AcDbLine
 10
1232.836246808636
 20
186.691692848512
 30
0.0
 11
1228.369650037589
 21
186.1441356130491
 31
0.0
  0
LINE
  5
75
330
2
100
AcDbEntity
  8
0
100
AcDbLine
 10
1233.018770880939
 20
185.2028556845913
 30
0.0
 11
1232.836246808636
 21
186.691692848512
 31
0.0
  0
LINE
  5
76
330
2
100
AcDbEntity
  8
0
100
AcDbLine
 10
1242.94444174974
 20
186.4196607414614
 30
0.0
 11
1245.922140736856
 21
186.7846880553156
 31
0.0
  0
LINE
  5
77
330
2
100
AcDbEntity
  8
0
100
AcDbLine
 10
1242.761904887803
 20
187.9085035996986
 30
0.0
 11
1242.94444174974
 21
186.4196607414614
 31
0.0
  0
LINE
  5
78
330
2
100
AcDbEntity
  8
0
100
AcDbLine
 10
1247.228504912745
 20
188.4560681435243
 30
0.0
 11
1242.761904887803
 21
187.9085035996986
 31
0.0
  0
LINE
  5
79
330
2
100
AcDbEntity
  8
0
100
AcDbLine
 10
1270.323852134138
 20
193.7698968755404
 30
0.0
 11
1264.294295557964
 21
180.2273005050258
 31
0.0
  0
LINE
  5
7A
330
2
100
AcDbEntity
  8
0
100
AcDbLine
 10
1303.495099543174
 20
179.0010957178461
 30
0.0
 11
1270.323852134138
 21
193.7698968755404
 31
0.0
  0
LINE
  5
7B
330
2
100
AcDbEntity
  8
0
100
AcDbLine
 10
1271.489493338157
 20
190.7332361793218
 30
0.0
 11
1289.669290681212
 21
182.6390632730106
 31
0.0
  0
LINE
  5
7C
330
2
100
AcDbEntity
  8
0
100
AcDbLine
 10
1267.016045357866
 20
180.6857145056785
 30
0.0
 11
1271.489493338157
 21
190.7332361793218
 31
0.0
  0
ARC
  5
7D
330
2
100
AcDbEntity
  8
0
100
AcDbCircle
 10
1289.262553801016
 20
181.7255179189038
 30
0.0
 40
1.000000001860737
100
AcDbArc
 50
336.0034803249393
 51
65.99998517577133
  0
LINE
  5
7E
330
2
100
AcDbEntity
  8
0
100
AcDbLine
 10
1290.17612396513
 20
181.3188367674314
 30
0.0
 11
1286.10973501977
 21
172.1846841741371
 31
0.0
  0
LINE
  5
7F
330
2
100
AcDbEntity
  8
0
100
AcDbLine
 10
1270.831225522864
 20
176.4694361735103
 30
0.0
 11
1271.359978178554
 21
177.65703325555
 31
0.0
  0
ARC
  5
80
330
2
100
AcDbEntity
  8
0
100
AcDbCircle
 10
1270.37445284666
 20
176.6728046132291
 30
0.0
 40
0.4999999999995922
100
AcDbArc
 50
245.9999851757993
 51
335.9999851758248
  0
LINE
  5
81
330
2
100
AcDbEntity
  8
0
100
AcDbLine
 10
1269.376081613008
 20
176.5699902322518
 30
0.0
 11
1270.171084406942
 21
176.2160319370259
 31
0.0
  0
LINE
  5
82
330
2
100
AcDbEntity
  8
0
100
AcDbLine
 10
1266.924073795566
 20
177.1788005384714
 30
0.0
 11
1269.376081613008
 21
176.5699902322518
 31
0.0
  0
LINE
  5
83
330
2
100
AcDbEntity
  8
0
100
AcDbLine
 10
1280.952204378829
 20
173.386296021445
 30
0.0
 11
1280.423451758633
 21
172.1986990191271
 31
0.0
  0
ARC
  5
84
330
2
100
AcDbEntity
  8
0
100
AcDbCircle
 10
1281.408970953888
 20
173.1829138783395
 30
0.0
 40
0.5000000002254717
100
AcDbArc
 50
65.99998517577265
 51
155.998266276585
  0
LINE
  5
85
330
2
100
AcDbEntity
  8
0
100
AcDbLine
 10
1285.449575193952
 20
171.9312379145666
 30
0.0
 11
1281.612339393699
 21
173.639686554749
 31
0.0
  0
ARC
  5
86
330
2
100
AcDbEntity
  8
0
100
AcDbCircle
 10
1285.652929596667
 20
172.38804715759
 30
0.0
 40
0.5000276968483894
100
AcDbArc
 50
246.0031587866763
 51
336.0020825341754
  0
ARC
  5
87
330
2
100
AcDbEntity
  8
0
100
AcDbCircle
 10
1267.472811933108
 20
180.4823323629846
 30
0.0
 40
0.5000000002249491
100
AcDbArc
 50
155.9982663281939
 51
245.999985175803
  0
LINE
  5
88
330
2
100
AcDbEntity
  8
0
100
AcDbLine
 10
1271.106567841018
 20
178.3171606682925
 30
0.0
 11
1267.269443493298
 21
180.0255596865755
 31
0.0
  0
ARC
  5
89
330
2
100
AcDbEntity
  8
0
100
AcDbCircle
 10
1270.903219205326
 20
177.8603955943079
 30
0.0
 40
0.4999850002246361
100
AcDbArc
 50
335.9999851757313
 51
66.00170407494471
  0
ARC
  5
8A
330
2
100
AcDbEntity
  8
0
100
AcDbCircle
 10
1301.868313060666
 20
175.3473129062812
 30
0.0
 40
3.999570363646045
100
AcDbArc
 50
5.999971641335513
 51
65.99977012834377
  0
LINE
  5
8B
330
2
100
AcDbEntity
  8
0
100
AcDbLine
 10
1293.597524734019
 20
180.8900995722674
 30
0.0
 11
1302.401160315188
 21
176.9704657472314
 31
0.0
  0
ARC
  5
8C
330
2
100
AcDbEntity
  8
0
100
AcDbCircle
 10
1301.587686556311
 20
175.1433750424173
 30
0.0
 40
1.99999999999984
100
AcDbArc
 50
5.999988175789161
 51
65.99998517579674
  0
LINE
  5
8D
330
2
100
AcDbEntity
  8
0
100
AcDbLine
 10
1306.211196328002
 20
172.2905008750597
 30
0.0
 11
1305.845973566302
 21
175.7653798813728
 31
0.0
  0
ARC
  5
8E
330
2
100
AcDbEntity
  8
0
100
AcDbCircle
 10
1293.190785012929
 20
179.9765616213277
 30
0.0
 40
0.9999943942439857
100
AcDbArc
 50
65.99966394937462
 51
156.0020825438038
  0
ENDSEC
  0
SECTION
  2
OBJECTS
  0
DICTIONARY
  5
9
330
0
100
AcDbDictionary
  3
ACAD_GROUP
350
26
  3
ACAD_LAYOUT
350
E
  3
ACAD_MLINESTYLE
350
27
  3
ACAD_PLOTSETTINGS
350
28
1001
ACAD
1000
TREAT_AS_HARD
1070
     0
1000
TREAT_AS_HARD
1070
     0
  0
DICTIONARY
  5
16
330
15
100
AcDbDictionary
  3
ACAD_LAYERFILTERS
350
17
  3
ACAD_LAYERSTATES
350
18
1001
ACAD
1000
TREAT_AS_HARD
1070
     1
1000
TREAT_AS_HARD
1070
     1
  0
DICTIONARY
  5
3
330
2
100
AcDbDictionary
  3
ACAD_LAYOUTSELFREF
350
8F
1001
ACAD
1000
TREAT_AS_HARD
1070
     1
  0
DICTIONARY
  5
10
330
F
100
AcDbDictionary
  3
ACAD_LAYOUTSELFREF
350
90
1001
ACAD
1000
TREAT_AS_HARD
1070
     1
  0
DICTIONARY
  5
26
102
{ACAD_REACTORS
330
9
102
}
330
9
100
AcDbDictionary
1001
ACAD
1000
TREAT_AS_HARD
1070
     0
1000
TREAT_AS_HARD
1070
     0
  0
DICTIONARY
  5
E
102
{ACAD_REACTORS
330
9
102
}
330
9
100
AcDbDictionary
1001
ACAD
1000
TREAT_AS_HARD
1070
     0
1000
TREAT_AS_HARD
1070
     0
  0
DICTIONARY
  5
27
102
{ACAD_REACTORS
330
9
102
}
330
9
100
AcDbDictionary
  3
STANDARD
350
2A
1001
ACAD
1000
TREAT_AS_HARD
1070
     0
1000
TREAT_AS_HARD
1070
     0
  0
DICTIONARY
  5
28
102
{ACAD_REACTORS
330
9
102
}
330
9
100
AcDbDictionary
1001
ACAD
1000
TREAT_AS_HARD
1070
     0
1000
TREAT_AS_HARD
1070
     0
  0
DICTIONARY
  5
17
102
{ACAD_REACTORS
330
16
102
}
330
16
100
AcDbDictionary
1001
ACAD
1000
TREAT_AS_HARD
1070
     1
1000
TREAT_AS_HARD
1070
     0
  0
DICTIONARY
  5
18
102
{ACAD_REACTORS
330
16
102
}
330
16
100
AcDbDictionary
1001
ACAD
1000
TREAT_AS_HARD
1070
     0
1000
TREAT_AS_HARD
1070
     0
  0
XRECORD
  5
8F
102
{ACAD_REACTORS
330
3
102
}
330
3
100
AcDbXrecord
340
2
  0
XRECORD
  5
90
102
{ACAD_REACTORS
330
10
102
}
330
10
100
AcDbXrecord
340
F
  0
MLINESTYLE
  5
2A
102
{ACAD_REACTORS
330
27
102
}
330
27
100
AcDbMlineStyle
  2
STANDARD
 70
     0
  3

 62
   256
 51
90.0
 52
90.0
 71
     2
 49
0.5
 62
   256
  6
BYLAYER
 49
-0.5
 62
   256
  6
BYLAYER
  0
ENDSEC
  0
EOF
