  0
SECTION
  2
HEADER
  9
$ACADVER
  1
AC1012
  9
$DWGCODEPAGE
  3
ANSI_1252
  9
$INSBASE
 10
0.0
 20
0.0
 30
0.0
  9
$EXTMIN
 10
-220.2217379125106
 20
-279.5075438966542
 30
0.0
  9
$EXTMAX
 10
199.7782620874886
 20
-1.99258231244812
 30
0.0
  9
$LIMMIN
 10
0.0
 20
0.0
  9
$LIMMAX
 10
12.0
 20
9.0
  9
$ORTHOMODE
 70
     0
  9
$REGENMODE
 70
     1
  9
$FILLMODE
 70
     1
  9
$QTEXTMODE
 70
     0
  9
$MIRRTEXT
 70
     1
  9
$DRAGMODE
 70
     2
  9
$LTSCALE
 40
1.0
  9
$OSMODE
 70
    55
  9
$ATTMODE
 70
     1
  9
$TEXTSIZE
 40
0.2
  9
$TRACEWID
 40
0.05
  9
$TEXTSTYLE
  7
STANDARD
  9
$CLAYER
  8
0
  9
$CELTYPE
  6
BYLAYER
  9
$CECOLOR
 62
   256
  9
$CELTSCALE
 40
1.0
  9
$DELOBJ
 70
     1
  9
$DISPSILH
 70
     0
  9
$DIMSCALE
 40
1.0
  9
$DIMASZ
 40
2.5
  9
$DIMEXO
 40
0.625
  9
$DIMDLI
 40
3.5
  9
$DIMRND
 40
0.0
  9
$DIMDLE
 40
0.0
  9
$DIMEXE
 40
0.5
  9
$DIMTP
 40
0.0105
  9
$DIMTM
 40
0.0135000000135
  9
$DIMTXT
 40
2.5
  9
$DIMCEN
 40
2.5
  9
$DIMTSZ
 40
0.0
  9
$DIMTOL
 70
     0
  9
$DIMLIM
 70
     0
  9
$DIMTIH
 70
     0
  9
$DIMTOH
 70
     1
  9
$DIMSE1
 70
     0
  9
$DIMSE2
 70
     0
  9
$DIMTAD
 70
     1
  9
$DIMZIN
 70
     8
  9
$DIMBLK
  1

  9
$DIMASO
 70
     1
  9
$DIMSHO
 70
     1
  9
$DIMPOST
  1

  9
$DIMAPOST
  1

  9
$DIMALT
 70
     0
  9
$DIMALTD
 70
     2
  9
$DIMALTF
 40
25.4
  9
$DIMLFAC
 40
0.666666666666667
  9
$DIMTOFL
 70
     0
  9
$DIMTVP
 40
0.0
  9
$DIMTIX
 70
     0
  9
$DIMSOXD
 70
     0
  9
$DIMSAH
 70
     0
  9
$DIMBLK1
  1

  9
$DIMBLK2
  1

  9
$DIMSTYLE
  2
\U+00DDSMAIL_1_5___1
  9
$DIMCLRD
 70
   242
  9
$DIMCLRE
 70
   242
  9
$DIMCLRT
 70
   242
  9
$DIMTFAC
 40
0.7
  9
$DIMGAP
 40
0.5
  9
$DIMJUST
 70
     0
  9
$DIMSD1
 70
     0
  9
$DIMSD2
 70
     0
  9
$DIMTOLJ
 70
     2
  9
$DIMTZIN
 70
     8
  9
$DIMALTZ
 70
     0
  9
$DIMALTTZ
 70
     0
  9
$DIMFIT
 70
     3
  9
$DIMUPT
 70
     0
  9
$DIMUNIT
 70
     2
  9
$DIMDEC
 70
     2
  9
$DIMTDEC
 70
     2
  9
$DIMALTU
 70
     2
  9
$DIMALTTD
 70
     2
  9
$DIMTXSTY
  7
ROMANT
  9
$DIMAUNIT
 70
     0
  9
$LUNITS
 70
     2
  9
$LUPREC
 70
     4
  9
$SKETCHINC
 40
0.1
  9
$FILLETRAD
 40
0.25
  9
$AUNITS
 70
     0
  9
$AUPREC
 70
     0
  9
$MENU
  1
.
  9
$ELEVATION
 40
0.0
  9
$PELEVATION
 40
0.0
  9
$THICKNESS
 40
0.0
  9
$LIMCHECK
 70
     0
  9
$BLIPMODE
 70
     0
  9
$CHAMFERA
 40
2.2
  9
$CHAMFERB
 40
2.2
  9
$CHAMFERC
 40
0.0
  9
$CHAMFERD
 40
0.0
  9
$SKPOLY
 70
     0
  9
$TDCREATE
 40
2452396.589542465
  9
$TDUPDATE
 40
2454223.374386979
  9
$TDINDWG
 40
5.7147624074
  9
$TDUSRTIMER
 40
5.7147622917
  9
$USRTIMER
 70
     1
  9
$ANGBASE
 50
0.0
  9
$ANGDIR
 70
     0
  9
$PDMODE
 70
     0
  9
$PDSIZE
 40
0.0
  9
$PLINEWID
 40
0.0
  9
$COORDS
 70
     0
  9
$SPLFRAME
 70
     0
  9
$SPLINETYPE
 70
     6
  9
$SPLINESEGS
 70
     8
  9
$ATTDIA
 70
     0
  9
$ATTREQ
 70
     1
  9
$HANDLING
 70
-16383
  9
$HANDSEED
  5
9E
  9
$SURFTAB1
 70
     6
  9
$SURFTAB2
 70
     6
  9
$SURFTYPE
 70
     6
  9
$SURFU
 70
     6
  9
$SURFV
 70
     6
  9
$UCSNAME
  2

  9
$UCSORG
 10
0.0
 20
0.0
 30
0.0
  9
$UCSXDIR
 10
1.0
 20
0.0
 30
0.0
  9
$UCSYDIR
 10
0.0
 20
1.0
 30
0.0
  9
$PUCSNAME
  2

  9
$PUCSORG
 10
0.0
 20
0.0
 30
0.0
  9
$PUCSXDIR
 10
1.0
 20
0.0
 30
0.0
  9
$PUCSYDIR
 10
0.0
 20
1.0
 30
0.0
  9
$USERI1
 70
     0
  9
$USERI2
 70
     0
  9
$USERI3
 70
     0
  9
$USERI4
 70
     0
  9
$USERI5
 70
     0
  9
$USERR1
 40
0.0
  9
$USERR2
 40
0.0
  9
$USERR3
 40
0.0
  9
$USERR4
 40
0.0
  9
$USERR5
 40
0.0
  9
$WORLDVIEW
 70
     1
  9
$SHADEDGE
 70
     3
  9
$SHADEDIF
 70
    70
  9
$TILEMODE
 70
     1
  9
$MAXACTVP
 70
    64
  9
$PINSBASE
 10
0.0
 20
0.0
 30
0.0
  9
$PLIMCHECK
 70
     0
  9
$PEXTMIN
 10
26.66999878883362
 20
20.31999878883361
 30
0.0
  9
$PEXTMAX
 10
240.0299890995025
 20
182.8799890995025
 30
0.0
  9
$PLIMMIN
 10
-6.350006103515625
 20
-6.349999904632567
  9
$PLIMMAX
 10
273.0499877929687
 20
209.5499939918517
  9
$UNITMODE
 70
     0
  9
$VISRETAIN
 70
     1
  9
$PLINEGEN
 70
     0
  9
$PSLTSCALE
 70
     1
  9
$TREEDEPTH
 70
  3020
  9
$PICKSTYLE
 70
     1
  9
$CMLSTYLE
  2
STANDARD
  9
$CMLJUST
 70
     0
  9
$CMLSCALE
 40
1.0
  9
$SAVEIMAGES
 70
     1
  0
ENDSEC
  0
SECTION
  2
CLASSES
  0
CLASS
  1
ACDBDICTIONARYWDFLT
  2
AcDbDictionaryWithDefault
  3
AutoCAD 2000
 90
    32768
280
     0
281
     0
  0
CLASS
  1
ACDBPLACEHOLDER
  2
AcDbPlaceHolder
  3
AutoCAD 2000
 90
    32768
280
     0
281
     0
  0
CLASS
  1
LAYOUT
  2
AcDbLayout
  3
AutoCAD 2000
 90
    32768
280
     0
281
     0
  0
CLASS
  1
DICTIONARYVAR
  2
AcDbDictionaryVar
  3
AutoCAD 2000
 90
    32768
280
     0
281
     0
  0
CLASS
  1
LONG_TRANSACTION
  2
AcDbLongTransaction
  3
AutoCAD 2000
 90
    32768
280
     0
281
     0
  0
CLASS
  1
LWPOLYLINE
  2
AcDbPolyline
  3
AutoCAD 2000
 90
    32768
280
     0
281
     1
  0
CLASS
  1
HATCH
  2
AcDbHatch
  3
AutoCAD 2000
 90
    32768
280
     0
281
     1
  0
CLASS
  1
XRECORD
  2
AcDbXrecord
  3
AutoCAD 2000
 90
    32768
280
     0
281
     0
  0
CLASS
  1
LONG_TRANSACTION
  2
AcDbLongTransaction
  3
AutoCAD 2000
 90
    32768
280
     0
281
     0
  0
CLASS
  1
LWPOLYLINE
  2
AcDbPolyline
  3
AutoCAD 2000
 90
    32768
280
     0
281
     1
  0
CLASS
  1
HATCH
  2
AcDbHatch
  3
AutoCAD 2000
 90
    32768
280
     0
281
     1
  0
CLASS
  1
XRECORD
  2
AcDbXrecord
  3
AutoCAD 2000
 90
    32768
280
     0
281
     0
  0
ENDSEC
  0
SECTION
  2
TABLES
  0
TABLE
  2
VPORT
  5
21
330
0
100
AcDbSymbolTable
 70
     1
  0
VPORT
  5
22
330
21
100
AcDbSymbolTableRecord
100
AcDbViewportTableRecord
  2
*ACTIVE
 70
     0
 10
0.0
 20
0.0
 11
1.0
 21
1.0
 12
151.6466920555012
 22
-69.71533924729988
 13
0.0
 23
0.0
 14
1.0
 24
1.0
 15
0.0
 25
0.0
 16
0.0
 26
0.0
 36
1.0
 17
0.0
 27
0.0
 37
0.0
 40
346.5395119027621
 41
1.481761006289308
 42
50.0
 43
0.0
 44
0.0
 50
0.0
 51
0.0
 71
     0
 72
 20000
 73
     1
 74
     1
 75
     0
 76
     1
 77
     0
 78
     0
  0
ENDTAB
  0
TABLE
  2
LTYPE
  5
1C
330
0
100
AcDbSymbolTable
 70
     1
  0
LTYPE
  5
1D
330
1C
100
AcDbSymbolTableRecord
100
AcDbLinetypeTableRecord
  2
BYBLOCK
 70
     0
  3

 72
    65
 73
     0
 40
0.0
  0
LTYPE
  5
1E
330
1C
100
AcDbSymbolTableRecord
100
AcDbLinetypeTableRecord
  2
BYLAYER
 70
     0
  3

 72
    65
 73
     0
 40
0.0
  0
LTYPE
  5
B
330
1C
100
AcDbSymbolTableRecord
100
AcDbLinetypeTableRecord
  2
CONTINUOUS
 70
     0
  3
CONTINUOUS
 72
    65
 73
     0
 40
0.0
  0
ENDTAB
  0
TABLE
  2
LAYER
  5
15
102
{ACAD_XDICTIONARY
360
16
102
}
330
0
100
AcDbSymbolTable
 70
     1
  0
LAYER
  5
6
330
15
100
AcDbSymbolTableRecord
100
AcDbLayerTableRecord
  2
0
 70
     0
 62
     7
  6
CONTINUOUS
  0
ENDTAB
  0
TABLE
  2
STYLE
  5
19
330
0
100
AcDbSymbolTable
 70
     2
  0
STYLE
  5
1A
330
19
100
AcDbSymbolTableRecord
100
AcDbTextStyleTableRecord
  2
STANDARD
 70
     0
 40
0.0
 41
1.0
 50
0.0
 71
     0
 42
0.2
  3
TIMES.TTF
  4

1001
ACAD
1000
Times New Roman Tur
1071
    41490
  0
STYLE
  5
29
330
19
100
AcDbSymbolTableRecord
100
AcDbTextStyleTableRecord
  2
ROMANT
 70
     0
 40
2.5
 41
1.0
 50
15.0
 71
     0
 42
2.5
  3
C:\ACADR13\COMMON\FONTS\romant.shx
  4

  0
ENDTAB
  0
TABLE
  2
VIEW
  5
1F
330
0
100
AcDbSymbolTable
 70
     0
  0
ENDTAB
  0
TABLE
  2
UCS
  5
20
330
0
100
AcDbSymbolTable
 70
     0
  0
ENDTAB
  0
TABLE
  2
APPID
  5
23
330
0
100
AcDbSymbolTable
 70
     1
  0
APPID
  5
A
330
23
100
AcDbSymbolTableRecord
100
AcDbRegAppTableRecord
  2
ACAD
 70
     0
  0
ENDTAB
  0
TABLE
  2
DIMSTYLE
  5
24
330
0
100
AcDbSymbolTable
 70
     1
  0
DIMSTYLE
105
2B
330
24
100
AcDbSymbolTableRecord
100
AcDbDimStyleTableRecord
  2
\U+00DDSMAIL_1_5___1
 70
     0
  3

  4

  5

  6

  7

 40
0.0
 41
2.0
 42
0.625
 43
0.38
 44
0.18
 45
0.0
 46
0.0
 47
0.0135
 48
0.0135
140
2.5
141
0.137
142
0.0
143
25.4
144
1.0
145
0.0
146
1.0
147
0.5
 71
     0
 72
     0
 73
     0
 74
     0
 75
     0
 76
     0
 77
     1
 78
     8
170
     0
171
     2
172
     0
173
     0
174
     0
175
     0
176
     5
177
     5
178
     5
270
     2
271
     2
272
     2
273
     2
274
     2
340
29
275
     0
280
     0
281
     0
282
     0
283
     1
284
     0
285
     0
286
     0
287
     3
288
     0
  0
ENDTAB
  0
TABLE
  2
BLOCK_RECORD
  5
1
330
0
100
AcDbSymbolTable
 70
     0
  0
BLOCK_RECORD
  5
2
102
{ACAD_XDICTIONARY
360
3
102
}
330
1
100
AcDbSymbolTableRecord
100
AcDbBlockTableRecord
  2
*MODEL_SPACE
  0
BLOCK_RECORD
  5
F
102
{ACAD_XDICTIONARY
360
10
102
}
330
1
100
AcDbSymbolTableRecord
100
AcDbBlockTableRecord
  2
*PAPER_SPACE
  0
ENDTAB
  0
ENDSEC
  0
SECTION
  2
BLOCKS
  0
BLOCK
  5
5
330
2
100
AcDbEntity
  8
0
100
AcDbBlockBegin
  2
*MODEL_SPACE
 70
     0
 10
0.0
 20
0.0
 30
0.0
  3
*MODEL_SPACE
  1

  0
ENDBLK
  5
C
330
2
100
AcDbEntity
  8
0
100
AcDbBlockEnd
  0
BLOCK
  5
12
330
F
100
AcDbEntity
 67
     1
  8
0
100
AcDbBlockBegin
  2
*PAPER_SPACE
 70
     0
 10
0.0
 20
0.0
 30
0.0
  3
*PAPER_SPACE
  1

  0
ENDBLK
  5
13
330
F
100
AcDbEntity
 67
     1
  8
0
100
AcDbBlockEnd
  0
ENDSEC
  0
SECTION
  2
ENTITIES
  0
LINE
  5
2C
330
2
100
AcDbEntity
  8
0
 62
     0
100
AcDbLine
 10
145.2407726032454
 20
-108.2323305579489
 30
0.0
 11
110.43871378539
 21
-108.232330557949
 31
0.0
1001
ACAD
1000
ASC_BOUNDS
1002
{
1070
    19
1005
0
1002
}
  0
LINE
  5
2D
330
2
100
AcDbEntity
  8
0
 62
     0
100
AcDbLine
 10
119.4197431943176
 20
-119.1449339212899
 30
0.0
 11
136.2597431943173
 21
-119.1449339212899
 31
0.0
1001
ACAD
1000
ASC_BOUNDS
1002
{
1070
    19
1005
0
1002
}
  0
LINE
  5
2E
330
2
100
AcDbEntity
  8
0
 62
     0
100
AcDbLine
 10
124.0197431943174
 20
-116.5923305579489
 30
0.0
 11
119.4197431943174
 21
-116.5923305579487
 31
0.0
1001
ACAD
1000
ASC_BOUNDS
1002
{
1070
    19
1005
0
1002
}
  0
LINE
  5
2F
330
2
100
AcDbEntity
  8
0
 62
     0
100
AcDbLine
 10
122.7697431943177
 20
-109.732330557949
 30
0.0
 11
106.2897431943177
 21
-109.7323305579485
 31
0.0
1001
ACAD
1000
ASC_BOUNDS
1002
{
1070
    19
1005
0
1002
}
  0
LINE
  5
30
330
2
100
AcDbEntity
  8
0
 62
     0
100
AcDbLine
 10
119.1397431943174
 20
-115.0923305579486
 30
0.0
 11
122.7697431943177
 21
-115.0923305579488
 31
0.0
1001
ACAD
1000
ASC_BOUNDS
1002
{
1070
    19
1005
0
1002
}
  0
LINE
  5
31
330
2
100
AcDbEntity
  8
0
 62
     0
100
AcDbLine
 10
136.5397431943174
 20
-120.6449339212899
 30
0.0
 11
119.1397431943178
 21
-120.6449339212899
 31
0.0
1001
ACAD
1000
ASC_BOUNDS
1002
{
1070
    19
1005
0
1002
}
  0
LINE
  5
32
330
2
100
AcDbEntity
  8
0
 62
     0
100
AcDbLine
 10
116.4897431943179
 20
-26.21233055794891
 30
0.0
 11
123.3397431943174
 21
-26.21233055794883
 31
0.0
1001
ACAD
1000
ASC_BOUNDS
1002
{
1070
    19
1005
0
1002
}
  0
LINE
  5
33
330
2
100
AcDbEntity
  8
0
 62
     0
100
AcDbLine
 10
120.1515078931949
 20
-30.91233055794916
 30
0.0
 11
121.8397431943174
 21
-30.91233055794916
 31
0.0
1001
ACAD
1000
ASC_BOUNDS
1002
{
1070
    19
1005
0
1002
}
  0
LINE
  5
34
330
2
100
AcDbEntity
  8
0
 62
     0
100
AcDbLine
 10
105.2897431943177
 20
-108.7323305579485
 30
0.0
 11
105.2897431943177
 21
-41.21233055794882
 31
0.0
1001
ACAD
1000
ASC_BOUNDS
1002
{
1070
    19
1005
0
1002
}
  0
LINE
  5
35
330
2
100
AcDbEntity
  8
0
 62
     0
100
AcDbLine
 10
106.7897431943177
 20
-56.96233055794877
 30
0.0
 11
106.7897431943177
 21
-41.21233055794882
 31
0.0
1001
ACAD
1000
ASC_BOUNDS
1002
{
1070
    19
1005
0
1002
}
  0
LINE
  5
36
330
2
100
AcDbEntity
  8
0
 62
     0
100
AcDbLine
 10
106.7897431943179
 20
-104.586959819716
 30
0.0
 11
106.7897431943177
 21
-60.96233055794883
 31
0.0
1001
ACAD
1000
ASC_BOUNDS
1002
{
1070
    19
1005
0
1002
}
  0
LINE
  5
37
330
2
100
AcDbEntity
  8
0
 62
     0
100
AcDbLine
 10
119.1697431943175
 20
-116.8423305579487
 30
0.0
 11
119.1697431943177
 21
-118.89493392129
 31
0.0
1001
ACAD
1000
ASC_BOUNDS
1002
{
1070
    19
1005
0
1002
}
  0
LINE
  5
38
330
2
100
AcDbEntity
  8
0
 62
     0
100
AcDbLine
 10
117.6697431943177
 20
-119.17493392129
 30
0.0
 11
117.6697431943175
 21
-116.562330557949
 31
0.0
1001
ACAD
1000
ASC_BOUNDS
1002
{
1070
    19
1005
0
1002
}
  0
ARC
  5
39
330
2
100
AcDbEntity
  8
0
 62
     0
100
AcDbCircle
 10
119.4197431943176
 20
-118.89493392129
 30
0.0
 40
0.25
100
AcDbArc
 50
180.0
 51
270.0
1001
ACAD
1000
ASC_BOUNDS
1002
{
1070
    19
1005
0
1002
}
  0
ARC
  5
3A
330
2
100
AcDbEntity
  8
0
 62
     0
100
AcDbCircle
 10
119.1397431943177
 20
-119.1749339212899
 30
0.0
 40
1.470000000000084
100
AcDbArc
 50
180.0000000000071
 51
270.0000000000011
1001
ACAD
1000
ASC_BOUNDS
1002
{
1070
    19
1005
0
1002
}
  0
ARC
  5
3B
330
2
100
AcDbEntity
  8
0
 62
     0
100
AcDbCircle
 10
119.4197431943174
 20
-116.8423305579487
 30
0.0
 40
0.25
100
AcDbArc
 50
90.0
 51
180.0
1001
ACAD
1000
ASC_BOUNDS
1002
{
1070
    19
1005
0
1002
}
  0
ARC
  5
3C
330
2
100
AcDbEntity
  8
0
 62
     0
100
AcDbCircle
 10
119.1397431943176
 20
-116.5623305579487
 30
0.0
 40
1.470000000000027
100
AcDbArc
 50
90.000000000005
 51
180.0000000000116
1001
ACAD
1000
ASC_BOUNDS
1002
{
1070
    19
1005
0
1002
}
  0
ARC
  5
3D
330
2
100
AcDbEntity
  8
0
 62
     0
100
AcDbCircle
 10
108.5396692207105
 20
-106.4843868440576
 30
0.0
 40
1.250000000001411
100
AcDbArc
 50
80.84323880568764
 51
9.15676119411705
1001
ACAD
1000
ASC_BOUNDS
1002
{
1070
    19
1005
0
1002
}
  0
ARC
  5
3E
330
2
100
AcDbEntity
  8
0
 62
     0
100
AcDbCircle
 10
108.5396692207128
 20
-106.4843868440561
 30
0.0
 40
2.250000000001743
100
AcDbArc
 50
320.8159343549056
 51
20.53210037073609
1001
ACAD
1000
ASC_BOUNDS
1002
{
1070
    19
1005
0
1002
}
  0
ARC
  5
3F
330
2
100
AcDbEntity
  8
0
 62
     0
100
AcDbCircle
 10
106.2897431943177
 20
-108.7323305579484
 30
0.0
 40
1.000000000000042
100
AcDbArc
 50
180.0000000000024
 51
270.0000000000024
1001
ACAD
1000
ASC_BOUNDS
1002
{
1070
    19
1005
0
1002
}
  0
ARC
  5
40
330
2
100
AcDbEntity
  8
0
 62
     0
100
AcDbCircle
 10
110.4387137853899
 20
-108.0323305579488
 30
0.0
 40
0.200000000000216
100
AcDbArc
 50
140.8159343550071
 51
270.0000000000447
1001
ACAD
1000
ASC_BOUNDS
1002
{
1070
    19
1005
0
1002
}
  0
ARC
  5
41
330
2
100
AcDbEntity
  8
0
 62
     0
100
AcDbCircle
 10
108.5396692207118
 20
-106.4843868440594
 30
0.0
 40
2.250000000000194
100
AcDbArc
 50
69.46789962917531
 51
129.2438991652684
1001
ACAD
1000
ASC_BOUNDS
1002
{
1070
    19
1005
0
1002
}
  0
ARC
  5
42
330
2
100
AcDbEntity
  8
0
 62
     0
100
AcDbCircle
 10
106.989743194318
 20
-104.586959819716
 30
0.0
 40
0.2000000000001838
100
AcDbArc
 50
180.0000000000203
 51
309.2438991652922
1001
ACAD
1000
ASC_BOUNDS
1002
{
1070
    19
1005
0
1002
}
  0
ARC
  5
43
330
2
100
AcDbEntity
  8
0
 62
     0
100
AcDbCircle
 10
109.2586700330352
 20
-104.5646113801351
 30
0.0
 40
0.1999999999983114
100
AcDbArc
 50
315.0000000003252
 51
69.46789962950551
1001
ACAD
1000
ASC_BOUNDS
1002
{
1070
    19
1005
0
1002
}
  0
LINE
  5
44
330
2
100
AcDbEntity
  8
0
 62
     0
100
AcDbLine
 10
108.9118380531025
 20
-105.1942860725399
 30
0.0
 11
109.4000913892722
 21
-104.7060327363704
 31
0.0
1001
ACAD
1000
ASC_BOUNDS
1002
{
1070
    19
1005
0
1002
}
  0
ARC
  5
45
330
2
100
AcDbEntity
  8
0
 62
     0
100
AcDbCircle
 10
108.7704166968653
 20
-105.0528647163027
 30
0.0
 40
0.1999999999999089
100
AcDbArc
 50
260.8432388057934
 51
314.9999999999885
1001
ACAD
1000
ASC_BOUNDS
1002
{
1070
    19
1005
0
1002
}
  0
ARC
  5
46
330
2
100
AcDbEntity
  8
0
 62
     0
100
AcDbCircle
 10
109.971191348468
 20
-106.2536393679095
 30
0.0
 40
0.200000000001326
100
AcDbArc
 50
134.9999999991853
 51
189.1567611934149
1001
ACAD
1000
ASC_BOUNDS
1002
{
1070
    19
1005
0
1002
}
  0
LINE
  5
47
330
2
100
AcDbEntity
  8
0
 62
     0
100
AcDbLine
 10
110.3180233284014
 20
-105.6239646754997
 30
0.0
 11
109.8297699922317
 21
-106.1122180116693
 31
0.0
1001
ACAD
1000
ASC_BOUNDS
1002
{
1070
    19
1005
0
1002
}
  0
ARC
  5
48
330
2
100
AcDbEntity
  8
0
 62
     0
100
AcDbCircle
 10
110.4594446846386
 20
-105.765386031737
 30
0.0
 40
0.1999999999999827
100
AcDbArc
 50
20.53210037080154
 51
134.9999999999913
1001
ACAD
1000
ASC_BOUNDS
1002
{
1070
    19
1005
0
1002
}
  0
LINE
  5
49
330
2
100
AcDbEntity
  8
0
 62
     0
100
AcDbLine
 10
108.2897431943179
 20
-58.16233055794885
 30
0.0
 11
108.2897431943179
 21
-56.96233055794882
 31
0.0
1001
ACAD
1000
ASC_BOUNDS
1002
{
1070
    19
1005
0
1002
}
  0
LINE
  5
4A
330
2
100
AcDbEntity
  8
0
 62
     0
100
AcDbLine
 10
106.7897431943179
 20
-58.16233055794885
 30
0.0
 11
108.2897431943179
 21
-58.16233055794885
 31
0.0
1001
ACAD
1000
ASC_BOUNDS
1002
{
1070
    19
1005
0
1002
}
  0
LINE
  5
4B
330
2
100
AcDbEntity
  8
0
 62
     0
100
AcDbLine
 10
106.7897431943177
 20
-59.76233055794896
 30
0.0
 11
106.7897431943179
 21
-58.16233055794885
 31
0.0
1001
ACAD
1000
ASC_BOUNDS
1002
{
1070
    19
1005
0
1002
}
  0
LINE
  5
4C
330
2
100
AcDbEntity
  8
0
 62
     0
100
AcDbLine
 10
108.2897431943179
 20
-59.76233055794896
 30
0.0
 11
106.7897431943177
 21
-59.76233055794896
 31
0.0
1001
ACAD
1000
ASC_BOUNDS
1002
{
1070
    19
1005
0
1002
}
  0
LINE
  5
4D
330
2
100
AcDbEntity
  8
0
 62
     0
100
AcDbLine
 10
108.2897431943179
 20
-60.96233055794883
 30
0.0
 11
108.2897431943179
 21
-59.76233055794896
 31
0.0
1001
ACAD
1000
ASC_BOUNDS
1002
{
1070
    19
1005
0
1002
}
  0
LINE
  5
4E
330
2
100
AcDbEntity
  8
0
 62
     0
100
AcDbLine
 10
106.7897431943177
 20
-60.96233055794883
 30
0.0
 11
108.2897431943179
 21
-60.96233055794883
 31
0.0
1001
ACAD
1000
ASC_BOUNDS
1002
{
1070
    19
1005
0
1002
}
  0
LINE
  5
4F
330
2
100
AcDbEntity
  8
0
 62
     0
100
AcDbLine
 10
108.2897431943179
 20
-56.96233055794882
 30
0.0
 11
106.7897431943177
 21
-56.96233055794877
 31
0.0
1001
ACAD
1000
ASC_BOUNDS
1002
{
1070
    19
1005
0
1002
}
  0
ARC
  5
50
330
2
100
AcDbEntity
  8
0
 62
     0
100
AcDbCircle
 10
116.4897431943177
 20
-37.41233055794899
 30
0.0
 40
11.20000000000008
100
AcDbArc
 50
89.99999999999943
 51
179.9999999999992
1001
ACAD
1000
ASC_BOUNDS
1002
{
1070
    19
1005
0
1002
}
  0
ARC
  5
51
330
2
100
AcDbEntity
  8
0
 62
     0
100
AcDbCircle
 10
116.4897431943177
 20
-37.41233055794899
 30
0.0
 40
9.700000000000088
100
AcDbArc
 50
89.99999999999934
 51
179.9999999999991
1001
ACAD
1000
ASC_BOUNDS
1002
{
1070
    19
1005
0
1002
}
  0
LINE
  5
52
330
2
100
AcDbEntity
  8
0
 62
     0
100
AcDbLine
 10
105.2897431943177
 20
-41.21233055794882
 30
0.0
 11
105.2897431943177
 21
-37.41233055794884
 31
0.0
1001
ACAD
1000
ASC_BOUNDS
1002
{
1070
    19
1005
0
1002
}
  0
LINE
  5
53
330
2
100
AcDbEntity
  8
0
 62
     0
100
AcDbLine
 10
106.7897431943177
 20
-41.21233055794882
 30
0.0
 11
106.7897431943177
 21
-37.41233055794884
 31
0.0
1001
ACAD
1000
ASC_BOUNDS
1002
{
1070
    19
1005
0
1002
}
  0
LINE
  5
54
330
2
100
AcDbEntity
  8
0
 62
     0
100
AcDbLine
 10
119.8515078931949
 20
-27.71233055794882
 30
0.0
 11
119.8515078931949
 21
-30.91233055794916
 31
0.0
1001
ACAD
1000
ASC_BOUNDS
1002
{
1070
    19
1005
0
1002
}
  0
LINE
  5
55
330
2
100
AcDbEntity
  8
0
 62
     0
100
AcDbLine
 10
119.8515078931949
 20
-30.91233055794916
 30
0.0
 11
120.1515078931949
 21
-30.91233055794916
 31
0.0
1001
ACAD
1000
ASC_BOUNDS
1002
{
1070
    19
1005
0
1002
}
  0
LINE
  5
56
330
2
100
AcDbEntity
  8
0
 62
     0
100
AcDbLine
 10
116.4897431943179
 20
-27.7123305579489
 30
0.0
 11
119.8515078931949
 21
-27.71233055794882
 31
0.0
1001
ACAD
1000
ASC_BOUNDS
1002
{
1070
    19
1005
0
1002
}
  0
LINE
  5
57
330
2
100
AcDbEntity
  8
0
 62
     0
100
AcDbLine
 10
150.3897431943173
 20
-29.21233055794882
 30
0.0
 11
150.3897431943173
 21
-108.7323305579489
 31
0.0
1001
ACAD
1000
ASC_BOUNDS
1002
{
1070
    19
1005
0
1002
}
  0
LINE
  5
58
330
2
100
AcDbEntity
  8
0
 62
     0
100
AcDbLine
 10
148.8897431943172
 20
-31.35770129618165
 30
0.0
 11
148.8897431943173
 21
-56.96233055794877
 31
0.0
1001
ACAD
1000
ASC_BOUNDS
1002
{
1070
    19
1005
0
1002
}
  0
LINE
  5
59
330
2
100
AcDbEntity
  8
0
 62
     0
100
AcDbLine
 10
148.8897431943173
 20
-60.96233055794883
 30
0.0
 11
148.8897431943172
 21
-104.586959819716
 31
0.0
1001
ACAD
1000
ASC_BOUNDS
1002
{
1070
    19
1005
0
1002
}
  0
LINE
  5
5A
330
2
100
AcDbEntity
  8
0
 62
     0
100
AcDbLine
 10
124.2697431943178
 20
-109.7323305579489
 30
0.0
 11
124.2697431943176
 21
-116.3423305579489
 31
0.0
1001
ACAD
1000
ASC_BOUNDS
1002
{
1070
    19
1005
0
1002
}
  0
LINE
  5
5B
330
2
100
AcDbEntity
  8
0
 62
     0
100
AcDbLine
 10
131.4097431943173
 20
-116.342330557949
 30
0.0
 11
131.4097431943177
 21
-109.7323305579489
 31
0.0
1001
ACAD
1000
ASC_BOUNDS
1002
{
1070
    19
1005
0
1002
}
  0
LINE
  5
5C
330
2
100
AcDbEntity
  8
0
 62
     0
100
AcDbLine
 10
122.7697431943177
 20
-115.0923305579488
 30
0.0
 11
122.7697431943177
 21
-109.732330557949
 31
0.0
1001
ACAD
1000
ASC_BOUNDS
1002
{
1070
    19
1005
0
1002
}
  0
LINE
  5
5D
330
2
100
AcDbEntity
  8
0
 62
     0
100
AcDbLine
 10
132.9097431943177
 20
-109.732330557949
 30
0.0
 11
132.9097431943174
 21
-115.092330557949
 31
0.0
1001
ACAD
1000
ASC_BOUNDS
1002
{
1070
    19
1005
0
1002
}
  0
ARC
  5
5E
330
2
100
AcDbEntity
  8
0
 62
     0
100
AcDbCircle
 10
136.5397431943174
 20
-119.17493392129
 30
0.0
 40
1.469999999999942
100
AcDbArc
 50
269.9999999999977
 51
0.000000000004985
1001
ACAD
1000
ASC_BOUNDS
1002
{
1070
    19
1005
0
1002
}
  0
ARC
  5
5F
330
2
100
AcDbEntity
  8
0
 62
     0
100
AcDbCircle
 10
136.5397431943174
 20
-116.562330557949
 30
0.0
 40
1.469999999999984
100
AcDbArc
 50
359.9999999999994
 51
90.0000000000011
1001
ACAD
1000
ASC_BOUNDS
1002
{
1070
    19
1005
0
1002
}
  0
ARC
  5
60
330
2
100
AcDbEntity
  8
0
 62
     0
100
AcDbCircle
 10
124.0197431943176
 20
-116.3423305579488
 30
0.0
 40
0.2500000000000995
100
AcDbArc
 50
269.9999999999771
 51
359.9999999999772
1001
ACAD
1000
ASC_BOUNDS
1002
{
1070
    19
1005
0
1002
}
  0
LINE
  5
61
330
2
100
AcDbEntity
  8
0
 62
     0
100
AcDbLine
 10
136.5097431943173
 20
-118.89493392129
 30
0.0
 11
136.5097431943173
 21
-116.842330557949
 31
0.0
1001
ACAD
1000
ASC_BOUNDS
1002
{
1070
    19
1005
0
1002
}
  0
ARC
  5
62
330
2
100
AcDbEntity
  8
0
 62
     0
100
AcDbCircle
 10
136.2597431943173
 20
-118.89493392129
 30
0.0
 40
0.25
100
AcDbArc
 50
270.0
 51
0.0
1001
ACAD
1000
ASC_BOUNDS
1002
{
1070
    19
1005
0
1002
}
  0
LINE
  5
63
330
2
100
AcDbEntity
  8
0
 62
     0
100
AcDbLine
 10
136.2597431943173
 20
-116.592330557949
 30
0.0
 11
131.6597431943174
 21
-116.592330557949
 31
0.0
1001
ACAD
1000
ASC_BOUNDS
1002
{
1070
    19
1005
0
1002
}
  0
LINE
  5
64
330
2
100
AcDbEntity
  8
0
 62
     0
100
AcDbLine
 10
132.9097431943174
 20
-115.092330557949
 30
0.0
 11
136.5397431943174
 21
-115.092330557949
 31
0.0
1001
ACAD
1000
ASC_BOUNDS
1002
{
1070
    19
1005
0
1002
}
  0
ARC
  5
65
330
2
100
AcDbEntity
  8
0
 62
     0
100
AcDbCircle
 10
131.6597431943174
 20
-116.342330557949
 30
0.0
 40
0.25
100
AcDbArc
 50
180.0
 51
270.0
1001
ACAD
1000
ASC_BOUNDS
1002
{
1070
    19
1005
0
1002
}
  0
ARC
  5
66
330
2
100
AcDbEntity
  8
0
 62
     0
100
AcDbCircle
 10
136.2597431943173
 20
-116.842330557949
 30
0.0
 40
0.25
100
AcDbArc
 50
0.0
 51
90.0
1001
ACAD
1000
ASC_BOUNDS
1002
{
1070
    19
1005
0
1002
}
  0
LINE
  5
67
330
2
100
AcDbEntity
  8
0
 62
     0
100
AcDbLine
 10
138.0097431943174
 20
-116.562330557949
 30
0.0
 11
138.0097431943174
 21
-119.1749339212899
 31
0.0
1001
ACAD
1000
ASC_BOUNDS
1002
{
1070
    19
1005
0
1002
}
  0
LINE
  5
68
330
2
100
AcDbEntity
  8
0
 62
     0
100
AcDbLine
 10
149.3897431943173
 20
-109.7323305579489
 30
0.0
 11
132.9097431943177
 21
-109.732330557949
 31
0.0
1001
ACAD
1000
ASC_BOUNDS
1002
{
1070
    19
1005
0
1002
}
  0
LINE
  5
69
330
2
100
AcDbEntity
  8
0
 62
     0
100
AcDbLine
 10
131.4097431943177
 20
-109.7323305579489
 30
0.0
 11
124.2697431943178
 21
-109.7323305579489
 31
0.0
1001
ACAD
1000
ASC_BOUNDS
1002
{
1070
    19
1005
0
1002
}
  0
LINE
  5
6A
330
2
100
AcDbEntity
  8
0
 62
     0
100
AcDbLine
 10
145.8497163964036
 20
-106.1122180116693
 30
0.0
 11
145.3614630602341
 21
-105.6239646754997
 31
0.0
1001
ACAD
1000
ASC_BOUNDS
1002
{
1070
    19
1005
0
1002
}
  0
ARC
  5
6B
330
2
100
AcDbEntity
  8
0
 62
     0
100
AcDbCircle
 10
147.1398171679233
 20
-106.4843868440598
 30
0.0
 40
2.250000000000263
100
AcDbArc
 50
159.4678996291809
 51
219.184065645012
1001
ACAD
1000
ASC_BOUNDS
1002
{
1070
    19
1005
0
1002
}
  0
ARC
  5
6C
330
2
100
AcDbEntity
  8
0
 62
     0
100
AcDbCircle
 10
145.2407726032455
 20
-108.0323305579489
 30
0.0
 40
0.1999999999999774
100
AcDbArc
 50
269.9999999999592
 51
39.18406564499731
1001
ACAD
1000
ASC_BOUNDS
1002
{
1070
    19
1005
0
1002
}
  0
ARC
  5
6D
330
2
100
AcDbEntity
  8
0
 62
     0
100
AcDbCircle
 10
145.2200417039988
 20
-105.7653860317366
 30
0.0
 40
0.1999999999983315
100
AcDbArc
 50
45.00000000031378
 51
159.4678996295078
1001
ACAD
1000
ASC_BOUNDS
1002
{
1070
    19
1005
0
1002
}
  0
ARC
  5
6E
330
2
100
AcDbEntity
  8
0
 62
     0
100
AcDbCircle
 10
147.1398171679215
 20
-106.4843868440611
 30
0.0
 40
1.250000000001412
100
AcDbArc
 50
170.8432388056989
 51
99.15676119412957
1001
ACAD
1000
ASC_BOUNDS
1002
{
1070
    19
1005
0
1002
}
  0
ARC
  5
6F
330
2
100
AcDbEntity
  8
0
 62
     0
100
AcDbCircle
 10
149.3897431943173
 20
-108.7323305579488
 30
0.0
 40
1.000000000000028
100
AcDbArc
 50
270.0000000000049
 51
359.9999999999983
1001
ACAD
1000
ASC_BOUNDS
1002
{
1070
    19
1005
0
1002
}
  0
ARC
  5
70
330
2
100
AcDbEntity
  8
0
 62
     0
100
AcDbCircle
 10
145.7082950401665
 20
-106.2536393679067
 30
0.0
 40
0.1999999999999795
100
AcDbArc
 50
350.8432388058214
 51
45.00000000004894
1001
ACAD
1000
ASC_BOUNDS
1002
{
1070
    19
1005
0
1002
}
  0
ARC
  5
71
330
2
100
AcDbEntity
  8
0
 62
     0
100
AcDbCircle
 10
146.9090696917733
 20
-105.0528647163036
 30
0.0
 40
0.2000000000014064
100
AcDbArc
 50
224.999999999191
 51
279.1567611933869
1001
ACAD
1000
ASC_BOUNDS
1002
{
1070
    19
1005
0
1002
}
  0
LINE
  5
72
330
2
100
AcDbEntity
  8
0
 62
     0
100
AcDbLine
 10
146.2793949993633
 20
-104.7060327363705
 30
0.0
 11
146.767648335533
 21
-105.1942860725399
 31
0.0
1001
ACAD
1000
ASC_BOUNDS
1002
{
1070
    19
1005
0
1002
}
  0
ARC
  5
73
330
2
100
AcDbEntity
  8
0
 62
     0
100
AcDbCircle
 10
146.4208163556007
 20
-104.5646113801331
 30
0.0
 40
0.2000000000000492
100
AcDbArc
 50
110.5321003708291
 51
225.0000000000057
1001
ACAD
1000
ASC_BOUNDS
1002
{
1070
    19
1005
0
1002
}
  0
ARC
  5
74
330
2
100
AcDbEntity
  8
0
 62
     0
100
AcDbCircle
 10
147.1398171679198
 20
-106.4843868440588
 30
0.0
 40
2.250000000001631
100
AcDbArc
 50
50.75610083464786
 51
110.5321003707412
1001
ACAD
1000
ASC_BOUNDS
1002
{
1070
    19
1005
0
1002
}
  0
ARC
  5
75
330
2
100
AcDbEntity
  8
0
 62
     0
100
AcDbCircle
 10
148.689743194317
 20
-104.5869598197161
 30
0.0
 40
0.2000000000001876
100
AcDbArc
 50
230.7561008347567
 51
0.0000000000284978
1001
ACAD
1000
ASC_BOUNDS
1002
{
1070
    19
1005
0
1002
}
  0
LINE
  5
76
330
2
100
AcDbEntity
  8
0
 62
     0
100
AcDbLine
 10
147.3897431943171
 20
-60.96233055794883
 30
0.0
 11
148.8897431943173
 21
-60.96233055794883
 31
0.0
1001
ACAD
1000
ASC_BOUNDS
1002
{
1070
    19
1005
0
1002
}
  0
LINE
  5
77
330
2
100
AcDbEntity
  8
0
 62
     0
100
AcDbLine
 10
147.3897431943171
 20
-59.76233055794896
 30
0.0
 11
147.3897431943171
 21
-60.96233055794883
 31
0.0
1001
ACAD
1000
ASC_BOUNDS
1002
{
1070
    19
1005
0
1002
}
  0
LINE
  5
78
330
2
100
AcDbEntity
  8
0
 62
     0
100
AcDbLine
 10
148.8897431943173
 20
-59.76233055794896
 30
0.0
 11
147.3897431943171
 21
-59.76233055794896
 31
0.0
1001
ACAD
1000
ASC_BOUNDS
1002
{
1070
    19
1005
0
1002
}
  0
LINE
  5
79
330
2
100
AcDbEntity
  8
0
 62
     0
100
AcDbLine
 10
148.8897431943172
 20
-58.16233055794885
 30
0.0
 11
148.8897431943173
 21
-59.76233055794896
 31
0.0
1001
ACAD
1000
ASC_BOUNDS
1002
{
1070
    19
1005
0
1002
}
  0
LINE
  5
7A
330
2
100
AcDbEntity
  8
0
 62
     0
100
AcDbLine
 10
147.3897431943171
 20
-58.16233055794885
 30
0.0
 11
148.8897431943172
 21
-58.16233055794885
 31
0.0
1001
ACAD
1000
ASC_BOUNDS
1002
{
1070
    19
1005
0
1002
}
  0
LINE
  5
7B
330
2
100
AcDbEntity
  8
0
 62
     0
100
AcDbLine
 10
147.3897431943171
 20
-56.96233055794882
 30
0.0
 11
147.3897431943171
 21
-58.16233055794885
 31
0.0
1001
ACAD
1000
ASC_BOUNDS
1002
{
1070
    19
1005
0
1002
}
  0
LINE
  5
7C
330
2
100
AcDbEntity
  8
0
 62
     0
100
AcDbLine
 10
148.8897431943173
 20
-56.96233055794877
 30
0.0
 11
147.3897431943171
 21
-56.96233055794882
 31
0.0
1001
ACAD
1000
ASC_BOUNDS
1002
{
1070
    19
1005
0
1002
}
  0
LINE
  5
7D
330
2
100
AcDbEntity
  8
0
 62
     0
100
AcDbLine
 10
132.3397431943174
 20
-26.21233055794883
 30
0.0
 11
147.3897431943171
 21
-26.21233055794883
 31
0.0
1001
ACAD
1000
ASC_BOUNDS
1002
{
1070
    19
1005
0
1002
}
  0
LINE
  5
7E
330
2
100
AcDbEntity
  8
0
 62
     0
100
AcDbLine
 10
135.8397431943176
 20
-27.71233055794877
 30
0.0
 11
145.2407726032454
 21
-27.71233055794877
 31
0.0
1001
ACAD
1000
ASC_BOUNDS
1002
{
1070
    19
1005
0
1002
}
  0
LINE
  5
7F
330
2
100
AcDbEntity
  8
0
 62
     0
100
AcDbLine
 10
133.8515078931949
 20
-34.32201212978765
 30
0.0
 11
133.8515078931949
 21
-30.91233055794927
 31
0.0
1001
ACAD
1000
ASC_BOUNDS
1002
{
1070
    19
1005
0
1002
}
  0
LINE
  5
80
330
2
100
AcDbEntity
  8
0
 62
     0
100
AcDbLine
 10
121.8397431943174
 20
-30.91233055794916
 30
0.0
 11
121.8397431943174
 21
-34.32201212978765
 31
0.0
1001
ACAD
1000
ASC_BOUNDS
1002
{
1070
    19
1005
0
1002
}
  0
LINE
  5
81
330
2
100
AcDbEntity
  8
0
 62
     0
100
AcDbLine
 10
121.8397431943174
 20
-34.32201212978765
 30
0.0
 11
133.8515078931949
 21
-34.32201212978765
 31
0.0
1001
ACAD
1000
ASC_BOUNDS
1002
{
1070
    19
1005
0
1002
}
  0
LINE
  5
82
330
2
100
AcDbEntity
  8
0
 62
     0
100
AcDbLine
 10
123.3397431943174
 20
-32.82201212978765
 30
0.0
 11
132.3515078931949
 21
-32.82201212978765
 31
0.0
1001
ACAD
1000
ASC_BOUNDS
1002
{
1070
    19
1005
0
1002
}
  0
LINE
  5
83
330
2
100
AcDbEntity
  8
0
 62
     0
100
AcDbLine
 10
121.351507893195
 20
-27.56233055794885
 30
0.0
 11
121.351507893195
 21
-29.56233055794885
 31
0.0
1001
ACAD
1000
ASC_BOUNDS
1002
{
1070
    19
1005
0
1002
}
  0
LINE
  5
84
330
2
100
AcDbEntity
  8
0
 62
     0
100
AcDbLine
 10
123.3397431943174
 20
-29.56233055794896
 30
0.0
 11
123.3397431943174
 21
-32.82201212978765
 31
0.0
1001
ACAD
1000
ASC_BOUNDS
1002
{
1070
    19
1005
0
1002
}
  0
LINE
  5
85
330
2
100
AcDbEntity
  8
0
 62
     0
100
AcDbLine
 10
121.351507893195
 20
-29.56233055794885
 30
0.0
 11
123.3397431943174
 21
-29.56233055794896
 31
0.0
1001
ACAD
1000
ASC_BOUNDS
1002
{
1070
    19
1005
0
1002
}
  0
LINE
  5
86
330
2
100
AcDbEntity
  8
0
 62
     0
100
AcDbLine
 10
123.3397431943174
 20
-27.56233055794877
 30
0.0
 11
121.351507893195
 21
-27.56233055794885
 31
0.0
1001
ACAD
1000
ASC_BOUNDS
1002
{
1070
    19
1005
0
1002
}
  0
LINE
  5
87
330
2
100
AcDbEntity
  8
0
 62
     0
100
AcDbLine
 10
123.3397431943174
 20
-26.21233055794883
 30
0.0
 11
123.3397431943174
 21
-27.56233055794877
 31
0.0
1001
ACAD
1000
ASC_BOUNDS
1002
{
1070
    19
1005
0
1002
}
  0
LINE
  5
88
330
2
100
AcDbEntity
  8
0
 62
     0
100
AcDbLine
 10
134.3397431943174
 20
-29.56233055794885
 30
0.0
 11
134.3397431943174
 21
-27.56233055794885
 31
0.0
1001
ACAD
1000
ASC_BOUNDS
1002
{
1070
    19
1005
0
1002
}
  0
LINE
  5
89
330
2
100
AcDbEntity
  8
0
 62
     0
100
AcDbLine
 10
135.8397431943174
 20
-30.91233055794916
 30
0.0
 11
135.8397431943176
 21
-27.71233055794877
 31
0.0
1001
ACAD
1000
ASC_BOUNDS
1002
{
1070
    19
1005
0
1002
}
  0
LINE
  5
8A
330
2
100
AcDbEntity
  8
0
 62
     0
100
AcDbLine
 10
132.3515078931949
 20
-29.56233055794896
 30
0.0
 11
134.3397431943174
 21
-29.56233055794885
 31
0.0
1001
ACAD
1000
ASC_BOUNDS
1002
{
1070
    19
1005
0
1002
}
  0
LINE
  5
8B
330
2
100
AcDbEntity
  8
0
 62
     0
100
AcDbLine
 10
132.3515078931949
 20
-32.82201212978765
 30
0.0
 11
132.3515078931949
 21
-29.56233055794896
 31
0.0
1001
ACAD
1000
ASC_BOUNDS
1002
{
1070
    19
1005
0
1002
}
  0
LINE
  5
8C
330
2
100
AcDbEntity
  8
0
 62
     0
100
AcDbLine
 10
135.5397431943174
 20
-30.91233055794916
 30
0.0
 11
135.8397431943174
 21
-30.91233055794916
 31
0.0
1001
ACAD
1000
ASC_BOUNDS
1002
{
1070
    19
1005
0
1002
}
  0
LINE
  5
8D
330
2
100
AcDbEntity
  8
0
 62
     0
100
AcDbLine
 10
133.8515078931949
 20
-30.91233055794927
 30
0.0
 11
135.5397431943174
 21
-30.91233055794916
 31
0.0
1001
ACAD
1000
ASC_BOUNDS
1002
{
1070
    19
1005
0
1002
}
  0
LINE
  5
8E
330
2
100
AcDbEntity
  8
0
 62
     0
100
AcDbLine
 10
134.3397431943174
 20
-27.56233055794885
 30
0.0
 11
132.3397431943174
 21
-27.56233055794877
 31
0.0
1001
ACAD
1000
ASC_BOUNDS
1002
{
1070
    19
1005
0
1002
}
  0
LINE
  5
8F
330
2
100
AcDbEntity
  8
0
 62
     0
100
AcDbLine
 10
132.3397431943174
 20
-27.56233055794877
 30
0.0
 11
132.3397431943174
 21
-26.21233055794883
 31
0.0
1001
ACAD
1000
ASC_BOUNDS
1002
{
1070
    19
1005
0
1002
}
  0
LINE
  5
90
330
2
100
AcDbEntity
  8
0
 62
     0
100
AcDbLine
 10
145.3614630602341
 20
-30.32069644039796
 30
0.0
 11
145.8497163964036
 21
-29.83244310422856
 31
0.0
1001
ACAD
1000
ASC_BOUNDS
1002
{
1070
    19
1005
0
1002
}
  0
ARC
  5
91
330
2
100
AcDbEntity
  8
0
 62
     0
100
AcDbCircle
 10
147.1398171679233
 20
-29.46027427183796
 30
0.0
 40
2.250000000000293
100
AcDbArc
 50
140.8159343549881
 51
200.5321003708188
1001
ACAD
1000
ASC_BOUNDS
1002
{
1070
    19
1005
0
1002
}
  0
ARC
  5
92
330
2
100
AcDbEntity
  8
0
 62
     0
100
AcDbCircle
 10
145.2200417039987
 20
-30.17927508416111
 30
0.0
 40
0.1999999999982816
100
AcDbArc
 50
200.5321003705102
 51
314.9999999997042
1001
ACAD
1000
ASC_BOUNDS
1002
{
1070
    19
1005
0
1002
}
  0
ARC
  5
93
330
2
100
AcDbEntity
  8
0
 62
     0
100
AcDbCircle
 10
145.2407726032455
 20
-27.91233055794879
 30
0.0
 40
0.2000000000000206
100
AcDbArc
 50
320.8159343549991
 51
90.00000000003257
1001
ACAD
1000
ASC_BOUNDS
1002
{
1070
    19
1005
0
1002
}
  0
ARC
  5
94
330
2
100
AcDbEntity
  8
0
 62
     0
100
AcDbCircle
 10
147.3897431943172
 20
-29.21233055794889
 30
0.0
 40
3.000000000000071
100
AcDbArc
 50
0.000000000001357
 51
90.00000000000108
1001
ACAD
1000
ASC_BOUNDS
1002
{
1070
    19
1005
0
1002
}
  0
ARC
  5
95
330
2
100
AcDbEntity
  8
0
 62
     0
100
AcDbCircle
 10
148.689743194317
 20
-31.35770129618157
 30
0.0
 40
0.2000000000001869
100
AcDbArc
 50
359.9999999999776
 51
129.2438991652547
1001
ACAD
1000
ASC_BOUNDS
1002
{
1070
    19
1005
0
1002
}
  0
ARC
  5
96
330
2
100
AcDbEntity
  8
0
 62
     0
100
AcDbCircle
 10
147.1398171679198
 20
-29.46027427183895
 30
0.0
 40
2.250000000001643
100
AcDbArc
 50
249.4678996292579
 51
309.243899165351
1001
ACAD
1000
ASC_BOUNDS
1002
{
1070
    19
1005
0
1002
}
  0
ARC
  5
97
330
2
100
AcDbEntity
  8
0
 62
     0
100
AcDbCircle
 10
146.4208163556007
 20
-31.3800497357646
 30
0.0
 40
0.2000000000000549
100
AcDbArc
 50
134.9999999999985
 51
249.4678996291712
1001
ACAD
1000
ASC_BOUNDS
1002
{
1070
    19
1005
0
1002
}
  0
LINE
  5
98
330
2
100
AcDbEntity
  8
0
 62
     0
100
AcDbLine
 10
146.767648335533
 20
-30.75037504335773
 30
0.0
 11
146.2793949993633
 21
-31.23862837952724
 31
0.0
1001
ACAD
1000
ASC_BOUNDS
1002
{
1070
    19
1005
0
1002
}
  0
ARC
  5
99
330
2
100
AcDbEntity
  8
0
 62
     0
100
AcDbCircle
 10
146.9090696917731
 20
-30.89179639959409
 30
0.0
 40
0.2000000000013743
100
AcDbArc
 50
80.8432388065786
 51
135.000000000775
1001
ACAD
1000
ASC_BOUNDS
1002
{
1070
    19
1005
0
1002
}
  0
ARC
  5
9A
330
2
100
AcDbEntity
  8
0
 62
     0
100
AcDbCircle
 10
147.1398171679216
 20
-29.46027427183661
 30
0.0
 40
1.250000000001446
100
AcDbArc
 50
260.8432388058693
 51
189.1567611942988
1001
ACAD
1000
ASC_BOUNDS
1002
{
1070
    19
1005
0
1002
}
  0
ARC
  5
9B
330
2
100
AcDbEntity
  8
0
 62
     0
100
AcDbCircle
 10
145.7082950401664
 20
-29.69102174799109
 30
0.0
 40
0.200000000000075
100
AcDbArc
 50
314.9999999999582
 51
9.156761194188751
1001
ACAD
1000
ASC_BOUNDS
1002
{
1070
    19
1005
0
1002
}
  0
ENDSEC
  0
SECTION
  2
OBJECTS
  0
DICTIONARY
  5
9
330
0
100
AcDbDictionary
  3
ACAD_GROUP
350
26
  3
ACAD_LAYOUT
350
E
  3
ACAD_MLINESTYLE
350
27
  3
ACAD_PLOTSETTINGS
350
28
1001
ACAD
1000
TREAT_AS_HARD
1070
     0
1000
TREAT_AS_HARD
1070
     0
  0
DICTIONARY
  5
16
330
15
100
AcDbDictionary
  3
ACAD_LAYERFILTERS
350
17
  3
ACAD_LAYERSTATES
350
18
1001
ACAD
1000
TREAT_AS_HARD
1070
     1
1000
TREAT_AS_HARD
1070
     1
  0
DICTIONARY
  5
3
330
2
100
AcDbDictionary
  3
ACAD_LAYOUTSELFREF
350
9C
1001
ACAD
1000
TREAT_AS_HARD
1070
     1
  0
DICTIONARY
  5
10
330
F
100
AcDbDictionary
  3
ACAD_LAYOUTSELFREF
350
9D
1001
ACAD
1000
TREAT_AS_HARD
1070
     1
  0
DICTIONARY
  5
26
102
{ACAD_REACTORS
330
9
102
}
330
9
100
AcDbDictionary
1001
ACAD
1000
TREAT_AS_HARD
1070
     0
1000
TREAT_AS_HARD
1070
     0
  0
DICTIONARY
  5
E
102
{ACAD_REACTORS
330
9
102
}
330
9
100
AcDbDictionary
1001
ACAD
1000
TREAT_AS_HARD
1070
     0
1000
TREAT_AS_HARD
1070
     0
  0
DICTIONARY
  5
27
102
{ACAD_REACTORS
330
9
102
}
330
9
100
AcDbDictionary
  3
STANDARD
350
2A
1001
ACAD
1000
TREAT_AS_HARD
1070
     0
1000
TREAT_AS_HARD
1070
     0
  0
DICTIONARY
  5
28
102
{ACAD_REACTORS
330
9
102
}
330
9
100
AcDbDictionary
1001
ACAD
1000
TREAT_AS_HARD
1070
     0
1000
TREAT_AS_HARD
1070
     0
  0
DICTIONARY
  5
17
102
{ACAD_REACTORS
330
16
102
}
330
16
100
AcDbDictionary
1001
ACAD
1000
TREAT_AS_HARD
1070
     1
1000
TREAT_AS_HARD
1070
     0
  0
DICTIONARY
  5
18
102
{ACAD_REACTORS
330
16
102
}
330
16
100
AcDbDictionary
1001
ACAD
1000
TREAT_AS_HARD
1070
     0
1000
TREAT_AS_HARD
1070
     0
  0
XRECORD
  5
9C
102
{ACAD_REACTORS
330
3
102
}
330
3
100
AcDbXrecord
340
2
  0
XRECORD
  5
9D
102
{ACAD_REACTORS
330
10
102
}
330
10
100
AcDbXrecord
340
F
  0
MLINESTYLE
  5
2A
102
{ACAD_REACTORS
330
27
102
}
330
27
100
AcDbMlineStyle
  2
STANDARD
 70
     0
  3

 62
   256
 51
90.0
 52
90.0
 71
     2
 49
0.5
 62
   256
  6
BYLAYER
 49
-0.5
 62
   256
  6
BYLAYER
  0
ENDSEC
  0
EOF
