  0
SECTION
  2
HEADER
  9
$ACADVER
  1
AC1009
  9
$INSBASE
 10
0.0
 20
0.0
 30
0.0
  9
$EXTMIN
 10
985.00305388239576
 20
493.75978215010798
 30
-0.0015258207003583
  9
$EXTMAX
 10
1015.1879899520291
 20
513.26944064054351
 30
0.0000000349246037
  9
$LIMMIN
 10
0.0
 20
0.0
  9
$LIMMAX
 10
420.0
 20
297.0
  9
$ORTHOMODE
 70
     0
  9
$REGENMODE
 70
     1
  9
$FILLMODE
 70
     1
  9
$QTEXTMODE
 70
     0
  9
$MIRRTEXT
 70
     0
  9
$DRAGMODE
 70
     2
  9
$LTSCALE
 40
1.0
  9
$OSMODE
 70
  3071
  9
$ATTMODE
 70
     1
  9
$TEXTSIZE
 40
2.5
  9
$TRACEWID
 40
1.0
  9
$TEXTSTYLE
  7
STANDARD
  9
$CLAYER
  8
0
  9
$CELTYPE
  6
BYLAYER
  9
$CECOLOR
 62
   256
  9
$DIMSCALE
 40
1.0
  9
$DIMASZ
 40
2.5
  9
$DIMEXO
 40
0.625
  9
$DIMDLI
 40
3.75
  9
$DIMRND
 40
0.0
  9
$DIMDLE
 40
0.0
  9
$DIMEXE
 40
1.25
  9
$DIMTP
 40
0.0
  9
$DIMTM
 40
0.0
  9
$DIMTXT
 40
2.5
  9
$DIMCEN
 40
2.5
  9
$DIMTSZ
 40
0.0
  9
$DIMTOL
 70
     0
  9
$DIMLIM
 70
     0
  9
$DIMTIH
 70
     0
  9
$DIMTOH
 70
     0
  9
$DIMSE1
 70
     0
  9
$DIMSE2
 70
     0
  9
$DIMTAD
 70
     1
  9
$DIMZIN
 70
     8
  9
$DIMBLK
  1

  9
$DIMASO
 70
     1
  9
$DIMSHO
 70
     1
  9
$DIMPOST
  1

  9
$DIMAPOST
  1

  9
$DIMALT
 70
     0
  9
$DIMALTD
 70
     3
  9
$DIMALTF
 40
0.03937007874016
  9
$DIMLFAC
 40
1.0
  9
$DIMTOFL
 70
     1
  9
$DIMTVP
 40
0.0
  9
$DIMTIX
 70
     0
  9
$DIMSOXD
 70
     0
  9
$DIMSAH
 70
     0
  9
$DIMBLK1
  1

  9
$DIMBLK2
  1

  9
$DIMSTYLE
  2
ISO-25
  9
$DIMCLRD
 70
     0
  9
$DIMCLRE
 70
     0
  9
$DIMCLRT
 70
     0
  9
$DIMTFAC
 40
1.0
  9
$DIMGAP
 40
0.625
  9
$LUNITS
 70
     2
  9
$LUPREC
 70
     4
  9
$SKETCHINC
 40
1.0
  9
$FILLETRAD
 40
0.0
  9
$AUNITS
 70
     0
  9
$AUPREC
 70
     0
  9
$MENU
  1
.
  9
$ELEVATION
 40
0.0
  9
$PELEVATION
 40
0.0
  9
$THICKNESS
 40
0.0
  9
$LIMCHECK
 70
     0
  9
$BLIPMODE
 70
     0
  9
$CHAMFERA
 40
0.0
  9
$CHAMFERB
 40
0.0
  9
$SKPOLY
 70
     0
  9
$TDCREATE
 40
2455575.4293670021
  9
$TDUPDATE
 40
2455575.429476771
  9
$TDINDWG
 40
0.0001099537
  9
$TDUSRTIMER
 40
0.0001099537
  9
$USRTIMER
 70
     1
  9
$ANGBASE
 50
0.0
  9
$ANGDIR
 70
     0
  9
$PDMODE
 70
     0
  9
$PDSIZE
 40
0.0
  9
$PLINEWID
 40
0.0
  9
$COORDS
 70
     1
  9
$SPLFRAME
 70
     0
  9
$SPLINETYPE
 70
     6
  9
$SPLINESEGS
 70
     8
  9
$ATTDIA
 70
     0
  9
$ATTREQ
 70
     1
  9
$HANDLING
 70
     1
  9
$HANDSEED
  5
1A1
  9
$SURFTAB1
 70
     6
  9
$SURFTAB2
 70
     6
  9
$SURFTYPE
 70
     6
  9
$SURFU
 70
     6
  9
$SURFV
 70
     6
  9
$UCSNAME
  2

  9
$UCSORG
 10
0.0
 20
0.0
 30
0.0
  9
$UCSXDIR
 10
1.0
 20
0.0
 30
0.0
  9
$UCSYDIR
 10
0.0
 20
1.0
 30
0.0
  9
$PUCSNAME
  2

  9
$PUCSORG
 10
0.0
 20
0.0
 30
0.0
  9
$PUCSXDIR
 10
1.0
 20
0.0
 30
0.0
  9
$PUCSYDIR
 10
0.0
 20
1.0
 30
0.0
  9
$USERI1
 70
     0
  9
$USERI2
 70
     0
  9
$USERI3
 70
     0
  9
$USERI4
 70
     0
  9
$USERI5
 70
     0
  9
$USERR1
 40
0.0
  9
$USERR2
 40
0.0
  9
$USERR3
 40
0.0
  9
$USERR4
 40
0.0
  9
$USERR5
 40
0.0
  9
$WORLDVIEW
 70
     1
  9
$SHADEDGE
 70
     3
  9
$SHADEDIF
 70
    70
  9
$TILEMODE
 70
     1
  9
$MAXACTVP
 70
    64
  9
$PLIMCHECK
 70
     0
  9
$PEXTMIN
 10
0.0
 20
0.0
 30
0.0
  9
$PEXTMAX
 10
0.0
 20
0.0
 30
0.0
  9
$PLIMMIN
 10
0.0
 20
0.0
  9
$PLIMMAX
 10
12.0
 20
9.0
  9
$UNITMODE
 70
     0
  9
$VISRETAIN
 70
     1
  9
$PLINEGEN
 70
     0
  9
$PSLTSCALE
 70
     1
  0
ENDSEC
  0
SECTION
  2
TABLES
  0
TABLE
  2
VPORT
 70
     2
  0
VPORT
  2
*ACTIVE
 70
     0
 10
0.0
 20
0.0
 11
1.0
 21
1.0
 12
1000.095521917212
 22
503.5146113953258
 13
0.0
 23
0.0
 14
10.0
 24
10.0
 15
10.0
 25
10.0
 16
0.0
 26
0.0
 36
1.0
 17
0.0
 27
0.0
 37
0.0
 40
19.719064484966051
 41
2.021505376344086
 42
50.0
 43
0.0
 44
0.0
 50
0.0
 51
0.0
 71
     0
 72
  1000
 73
     1
 74
     3
 75
     0
 76
     0
 77
     0
 78
     0
  0
ENDTAB
  0
TABLE
  2
LTYPE
 70
     1
  0
LTYPE
  2
CONTINUOUS
 70
     0
  3
Solid line
 72
    65
 73
     0
 40
0.0
  0
ENDTAB
  0
TABLE
  2
LAYER
 70
     2
  0
LAYER
  2
0
 70
     0
 62
     7
  6
CONTINUOUS
  0
LAYER
  2
OLÇÜ
 70
     0
 62
     5
  6
CONTINUOUS
  0
ENDTAB
  0
TABLE
  2
STYLE
 70
     3
  0
STYLE
  2
STANDARD
 70
     0
 40
0.0
 41
1.0
 50
0.0
 71
     0
 42
2.5
  3
txt
  4

  0
STYLE
  2
EBRU
 70
     0
 40
0.0
 41
1.0
 50
0.0
 71
     0
 42
200.0
  3
txt
  4

  0
STYLE
  2
ROMANT
 70
     0
 40
2.5
 41
1.0
 50
15.0
 71
     0
 42
2.5
  3
romant.shx
  4

  0
ENDTAB
  0
TABLE
  2
VIEW
 70
     0
  0
ENDTAB
  0
TABLE
  2
UCS
 70
     0
  0
ENDTAB
  0
TABLE
  2
APPID
 70
     1
  0
APPID
  2
ACAD
 70
     0
  0
ENDTAB
  0
TABLE
  2
DIMSTYLE
 70
     6
  0
DIMSTYLE
  2
ISO-25
 70
     0
  3

  4

  5

  6

  7

 40
1.0
 41
2.5
 42
0.625
 43
3.75
 44
1.25
 45
0.0
 46
0.0
 47
0.0
 48
0.0
140
2.5
141
2.5
142
0.0
143
0.03937007874016
144
1.0
145
0.0
146
1.0
147
0.625
 71
     0
 72
     0
 73
     0
 74
     0
 75
     0
 76
     0
 77
     1
 78
     8
170
     0
171
     3
172
     1
173
     0
174
     0
175
     0
176
     0
177
     0
178
     0
  0
DIMSTYLE
  2
ISO-25-2
 70
     0
  3

  4

  5

  6

  7

 40
0.8
 41
2.5
 42
0.625
 43
3.75
 44
0.5
 45
0.0
 46
0.0
 47
0.0
 48
0.0
140
2.5
141
0.2
142
0.0
143
0.03937007874016
144
1.0
145
0.0
146
1.0
147
0.2
 71
     0
 72
     0
 73
     0
 74
     0
 75
     0
 76
     0
 77
     1
 78
     8
170
     0
171
     3
172
     0
173
     0
174
     0
175
     0
176
   242
177
   242
178
   242
  0
DIMSTYLE
  2
ISO-25_1_E_4
 70
     0
  3

  4

  5

  6

  7

 40
1.0
 41
2.5
 42
0.0
 43
3.75
 44
0.3
 45
0.0
 46
0.0
 47
0.0
 48
0.0
140
1.0
141
0.2
142
0.0
143
0.03937007874016
144
0.25
145
0.0
146
1.0
147
0.3
 71
     0
 72
     0
 73
     0
 74
     0
 75
     0
 76
     0
 77
     1
 78
     8
170
     0
171
     3
172
     0
173
     0
174
     0
175
     0
176
   242
177
   242
178
   256
  0
DIMSTYLE
  2
ISO-25_1_E_2
 70
     0
  3

  4

  5

  6

  7

 40
1.0
 41
2.5
 42
0.0
 43
3.75
 44
0.3
 45
0.0
 46
0.0
 47
0.0
 48
0.0
140
1.0
141
0.2
142
0.0
143
0.03937007874016
144
0.5
145
0.0
146
1.0
147
0.3
 71
     0
 72
     0
 73
     0
 74
     0
 75
     0
 76
     0
 77
     1
 78
     8
170
     0
171
     3
172
     0
173
     0
174
     0
175
     0
176
   242
177
   242
178
   256
  0
DIMSTYLE
  2
ISO-25_1_E_3
 70
     0
  3

  4

  5

  6

  7

 40
1.0
 41
2.5
 42
0.0
 43
3.75
 44
0.3
 45
0.0
 46
0.0
 47
0.0
 48
0.0
140
1.0
141
0.2
142
0.0
143
0.03937007874016
144
0.333333333333333
145
0.0
146
1.0
147
0.5
 71
     0
 72
     0
 73
     0
 74
     0
 75
     0
 76
     0
 77
     1
 78
     8
170
     0
171
     3
172
     0
173
     0
174
     0
175
     0
176
   242
177
   242
178
   256
  0
DIMSTYLE
  2
ISO-25_1_E_1
 70
     0
  3

  4

  5

  6

  7

 40
1.0
 41
2.5
 42
0.0
 43
3.75
 44
0.5
 45
0.0
 46
0.0
 47
0.0
 48
0.0
140
1.0
141
0.2
142
0.0
143
0.03937007874016
144
0.25
145
0.0
146
1.0
147
0.4
 71
     0
 72
     0
 73
     0
 74
     0
 75
     0
 76
     0
 77
     1
 78
     8
170
     0
171
     3
172
     0
173
     0
174
     0
175
     0
176
   242
177
   242
178
   242
  0
ENDTAB
  0
ENDSEC
  0
SECTION
  2
BLOCKS
  0
BLOCK
  8
0
  2
$MODEL_SPACE
 70
     0
 10
0.0
 20
0.0
 30
0.0
  3
$MODEL_SPACE
  1

  0
ENDBLK
  5
21
  8
0
  0
BLOCK
 67
     1
  8
0
  2
$PAPER_SPACE
 70
     0
 10
0.0
 20
0.0
 30
0.0
  3
$PAPER_SPACE
  1

  0
ENDBLK
  5
53
 67
     1
  8
0
  0
BLOCK
  8
0
  2
*X2
 70
     1
 10
0.0
 20
0.0
 30
0.0
  3
*X2
  1

  0
LINE
  5
10C
  8
0
 62
     0
 10
27.783249259928311
 20
4.3082239977541121
 30
0.0
 11
29.591577066853009
 21
6.1165518046788057
 31
0.0
  0
LINE
  5
10D
  8
0
 62
     0
 10
26.007067791754249
 20
4.2998094825462649
 30
0.0
 11
29.599990689981269
 21
7.892732380773281
 31
0.0
  0
LINE
  5
10E
  8
0
 62
     0
 10
27.399993741739191
 20
7.4605023854976471
 30
0.0
 11
29.599990689981269
 21
9.6604993337397218
 31
0.0
  0
LINE
  5
10F
  8
0
 62
     0
 10
24.239299848790331
 20
4.2998084925487774
 30
0.0
 11
26.739301730867279
 21
6.7998103746257348
 31
0.0
  0
LINE
  5
110
  8
0
 62
     0
 10
27.399993741739191
 20
9.2282693384640861
 30
0.0
 11
29.599990689981269
 21
11.42826628670616
 31
0.0
  0
LINE
  5
111
  8
0
 62
     0
 10
22.471531905826279
 20
4.2998075025511753
 30
0.0
 11
24.97153477790096
 21
6.7998103746258494
 31
0.0
  0
LINE
  5
112
  8
0
 62
     0
 10
26.29998763822357
 20
9.8960301879146755
 30
0.0
 11
29.599990689981269
 21
13.196033239672371
 31
0.0
  0
LINE
  5
113
  8
0
 62
     0
 10
20.703763962862698
 20
4.2998065125537996
 30
0.0
 11
23.20376782493463
 21
6.7998103746257348
 31
0.0
  0
LINE
  5
114
  8
0
 62
     0
 10
26.299987638223339
 20
11.663797140881
 30
0.0
 11
27.213226818449812
 21
12.577036321107469
 31
0.0
  0
LINE
  5
115
  8
0
 62
     0
 10
28.299987638223449
 20
13.66379714088111
 30
0.0
 11
29.599990689981151
 21
14.963800192638811
 31
0.0
  0
LINE
  5
116
  8
0
 62
     0
 10
18.935996019898539
 20
4.2998055225561984
 30
0.0
 11
21.43600087196808
 21
6.7998103746257348
 31
0.0
  0
LINE
  5
117
  8
0
 62
     0
 10
28.299987638223449
 20
15.43156409384744
 30
0.0
 11
29.599990689981269
 21
16.731567145605251
 31
0.0
  0
LINE
  5
118
  8
0
 62
     0
 10
17.168228076934948
 20
4.2998045325589374
 30
0.0
 11
19.66823391900186
 21
6.7998103746258494
 31
0.0
  0
LINE
  5
119
  8
0
 62
     0
 10
15.40046013397102
 20
4.2998035425612207
 30
0.0
 11
17.90046696603553
 21
6.7998103746257348
 31
0.0
  0
LINE
  5
11A
  8
0
 62
     0
 10
28.299987638223449
 20
17.199331046813541
 30
0.0
 11
29.49559888758472
 21
18.394942296174921
 31
0.0
  0
LINE
  5
11B
  8
0
 62
     0
 10
11.224887415425311
 20
0.1242308240155125
 30
0.0
 11
13.67557279647928
 21
2.574916205069484
 31
0.0
  0
LINE
  5
11C
  8
0
 62
     0
 10
26.29998763822346
 20
16.967097999780091
 30
0.0
 11
28.132700013069321
 21
18.79981037462608
 31
0.0
  0
LINE
  5
11D
  8
0
 62
     0
 10
9.4400013248834966
 20
0.1071116864402484
 30
0.0
 11
16.13270001306898
 21
6.7998103746257348
 31
0.0
  0
LINE
  5
11E
  8
0
 62
     0
 10
11.843471588844629
 20
4.2783489033675997
 30
0.0
 11
14.69998153470806
 21
7.1348588492311356
 31
0.0
  0
LINE
  5
11F
  8
0
 62
     0
 10
8.2373202124939553
 20
0.6721975270170333
 30
0.0
 11
9.5214504567253471
 21
1.9563277712484251
 31
0.0
  0
LINE
  5
120
  8
0
 62
     0
 10
12.499984586465979
 20
6.7026288539552752
 30
0.0
 11
14.699981534708281
 21
8.9026258021975764
 31
0.0
  0
LINE
  5
121
  8
0
 62
     0
 10
15.097166107136671
 20
9.299810374625963
 30
0.0
 11
15.79998763822368
 21
10.00263190571297
 31
0.0
  0
LINE
  5
122
  8
0
 62
     0
 10
7.3750278110494492
 20
1.577672078538739
 30
0.0
 11
8.6672788242943852
 21
2.8699230917836749
 31
0.0
  0
LINE
  5
123
  8
0
 62
     0
 10
12.49998458646575
 20
8.4703958069216014
 30
0.0
 11
15.79998763822368
 21
11.770398858679521
 31
0.0
  0
LINE
  5
124
  8
0
 62
     0
 10
6.5018694097042271
 20
2.4722806301600708
 30
0.0
 11
9.2858861303254798
 21
5.2562973507813231
 31
0.0
  0
LINE
  5
125
  8
0
 62
     0
 10
12.499984586465869
 20
10.23816275988804
 30
0.0
 11
14.361635252961371
 21
12.09981342638355
 31
0.0
  0
LINE
  5
126
  8
0
 62
     0
 10
14.89738970294399
 20
12.63556787636616
 30
0.0
 11
15.461626097688169
 21
13.19980427111034
 31
0.0
  0
LINE
  5
127
  8
0
 62
     0
 10
4.7616283346044384
 20
2.4998065080266079
 30
0.0
 11
8.2910538752025786
 21
6.029232048624749
 31
0.0
  0
LINE
  5
128
  8
0
 62
     0
 10
6.9999998452547061
 20
6.5059449716432018
 30
0.0
 11
7.9999383676561129
 21
7.5058834940446104
 31
0.0
  0
LINE
  5
129
  8
0
 62
     0
 10
12.499984586465869
 20
12.005929712854369
 30
0.0
 11
13.79998763822357
 21
13.305932764612059
 31
0.0
  0
LINE
  5
12A
  8
0
 62
     0
 10
2.9938616842847519
 20
2.4998068106732481
 30
0.0
 11
4.993862196479653
 21
4.4998073228681497
 31
0.0
  0
LINE
  5
12B
  8
0
 62
     0
 10
12.49998458646553
 20
13.773696665820349
 30
0.0
 11
13.79998763822368
 21
15.07369971757862
 31
0.0
  0
LINE
  5
12C
  8
0
 62
     0
 10
15.145151388230831
 20
16.418863467585759
 30
0.0
 11
15.79998763822368
 21
17.07369971757862
 31
0.0
  0
LINE
  5
12D
  8
0
 62
     0
 10
1.226095033965179
 20
2.4998071133201161
 30
0.0
 11
3.2260952435132131
 21
4.4998073228681497
 31
0.0
  0
LINE
  5
12E
  8
0
 62
     0
 10
12.49998458646553
 20
15.541463618786789
 30
0.0
 11
13.79998763822368
 21
16.841466670544829
 31
0.0
  0
LINE
  5
12F
  8
0
 62
     0
 10
14.45832829054677
 20
17.49980732286792
 30
0.0
 11
15.632098845185739
 21
18.673577877507
 31
0.0
  0
LINE
  5
130
  8
0
 62
     0
 10
0.0340285725289959
 20
3.0755076048502579
 30
0.0
 11
1.799987638223342
 21
4.8414666705446052
 31
0.0
  0
LINE
  5
131
  8
0
 62
     0
 10
12.49998458646564
 20
17.309230571753229
 30
0.0
 11
13.99056438933837
 21
18.799810374625959
 31
0.0
  0
LINE
  5
132
  8
0
 62
     0
 10
0.0016016826122041
 20
4.8108476678997931
 30
0.0
 11
1.7999876382234561
 21
6.6092336235110452
 31
0.0
  0
LINE
  5
133
  8
0
 62
     0
 10
0.0012046742261873
 20
6.5782176124801017
 30
0.0
 11
1.799987638223342
 21
8.3770005764773714
 31
0.0
  0
LINE
  5
134
  8
0
 62
     0
 10
0.0008076658398295
 20
8.3455875570601847
 30
0.0
 11
2.9999998452547061
 21
11.34477973647506
 31
0.0
  0
LINE
  5
135
  8
0
 62
     0
 10
0.0004106574536991
 20
10.112957501640381
 30
0.0
 11
2.9999998452547061
 21
13.11254668944127
 31
0.0
  0
LINE
  5
136
  8
0
 62
     0
 10
0.0000136490675686
 20
11.88032744622069
 30
0.0
 11
2.999999845254592
 21
14.88031364240771
 31
0.0
  0
LINE
  5
137
  8
0
 62
     0
 10
0.1635927890481525
 20
13.8116735391676
 30
0.0
 11
2.9999998452547061
 21
16.64808059537415
 31
0.0
  0
LINE
  5
138
  8
0
 62
     0
 10
0.3330786854272674
 20
15.74892638851315
 30
0.0
 11
2.9240931942490529
 21
18.339940897334941
 31
0.0
  0
LINE
  5
139
  8
0
 62
     0
 10
0.5025645818062685
 20
17.686179237858589
 30
0.0
 11
1.6161955043604621
 21
18.79981016041279
 31
0.0
  0
ENDBLK
  5
13B
  8
0
  0
BLOCK
  8
0
  2
*U3
 70
     1
 10
0.0
 20
0.0
 30
0.0
  3
*U3
  1

  0
LINE
  5
13D
  8
OLÇÜ
 62
     0
 10
27.599990689981269
 20
4.2998103746258494
 30
0.0
 11
15.2539060295287
 21
4.2998034604870554
 31
0.0
  0
ARC
  5
13E
  8
OLÇÜ
 62
     0
 10
27.599990689981269
 20
6.2998103746258494
 30
0.0
 40
2.0
 50
270.0
 51
0.0
  0
ARC
  5
13F
  8
OLÇÜ
 62
     0
 10
15.253906095254701
 20
2.796163524039911
 30
0.0
 40
1.5036399364471451
 50
90.000002504470814
 51
171.91599808821309
  0
LINE
  5
140
  8
OLÇÜ
 62
     0
 10
29.599990689981329
 20
17.999810374626119
 30
0.0
 11
29.599990689981269
 21
6.2998103746258494
 31
0.0
  0
ARC
  5
141
  8
OLÇÜ
 62
     0
 10
10.29998646737408
 20
3.4998171531209432
 30
0.0
 40
3.5000035469908299
 50
206.38797004230551
 51
351.91571201852781
  0
ARC
  5
142
  8
OLÇÜ
 62
     0
 10
28.799990689981311
 20
17.999810374626119
 30
0.0
 40
0.8
 50
0.0
 51
90.0
  0
ARC
  5
143
  8
OLÇÜ
 62
     0
 10
6.2688597085361826
 20
1.499807322868036
 30
0.0
 40
0.9999989271164084
 50
26.38776308968572
 51
90.000043485624317
  0
LINE
  5
144
  8
OLÇÜ
 62
     0
 10
27.09998763822307
 20
18.799810374625729
 30
0.0
 11
28.799990689981311
 21
18.79981037462608
 31
0.0
  0
LINE
  5
145
  8
OLÇÜ
 62
     0
 10
6.268858949569676
 20
2.4998062499842031
 30
0.0
 11
0.8019409943417485
 21
2.4998071859366742
 31
0.0
  0
ARC
  5
146
  8
OLÇÜ
 62
     0
 10
27.09998763822318
 20
17.999810374625781
 30
0.0
 40
0.8
 50
90.000000000008129
 51
180.0
  0
ARC
  5
147
  8
OLÇÜ
 62
     0
 10
0.8019411313041474
 20
3.2998071859366291
 30
0.0
 40
0.8
 50
180.0128704828627
 51
269.9999901907907
  0
LINE
  5
148
  8
OLÇÜ
 62
     0
 10
26.29998763822357
 20
16.699816478141649
 30
0.0
 11
26.299987638223229
 21
17.999810374625781
 31
0.0
  0
LINE
  5
149
  8
OLÇÜ
 62
     0
 10
0.0019411514880403
 20
3.2996274800963188
 30
0.0
 11
-0.0000001547452939
 21
11.941778148063349
 31
0.0
  0
ARC
  5
14A
  8
OLÇÜ
 62
     0
 10
26.599987638223642
 20
16.699816478141539
 30
0.0
 40
0.3000000000000682
 50
179.99999999997829
 51
269.99999999995651
  0
LINE
  5
14B
  8
OLÇÜ
 62
     0
 10
-0.0000001547452939
 20
11.941778148063349
 30
0.0
 11
0.5201308747580243
 21
17.886964977557451
 31
0.0
  0
LINE
  5
14C
  8
OLÇÜ
 62
     0
 10
26.849631655329631
 20
16.399816478141471
 30
0.0
 11
26.599987638223411
 21
16.399816478141471
 31
0.0
  0
ARC
  5
14D
  8
OLÇÜ
 62
     0
 10
1.5163256517109851
 20
17.799810136207149
 30
0.0
 40
0.9999999999995782
 50
90.000013887096813
 51
175.00005184354049
  0
ARC
  5
14E
  8
OLÇÜ
 62
     0
 10
26.8496316553294
 20
16.699816478141649
 30
0.0
 40
0.3000000000001346
 50
270.00000000004343
 51
349.69614488876999
  0
LINE
  5
14F
  8
OLÇÜ
 62
     0
 10
1.5163254093354219
 20
18.799810136206698
 30
0.0
 11
2.1999996513538909
 21
18.799810301912771
 31
0.0
  0
LINE
  5
150
  8
OLÇÜ
 62
     0
 10
27.29998763822346
 20
17.49980732286803
 30
0.0
 11
27.1447935568624
 21
16.64615595369855
 31
0.0
  0
ARC
  5
151
  8
OLÇÜ
 62
     0
 10
2.1999998452547511
 20
17.99981030191282
 30
0.0
 40
0.8
 50
0.0
 51
90.000013887126158
  0
LINE
  5
152
  8
OLÇÜ
 62
     0
 10
28.299987638223449
 20
17.49980732286803
 30
0.0
 11
27.29998763822346
 21
17.49980732286803
 31
0.0
  0
LINE
  5
153
  8
OLÇÜ
 62
     0
 10
2.999999845254762
 20
17.99981030191282
 30
0.0
 11
2.9999998452547061
 21
10.614013627201301
 31
0.0
  0
LINE
  5
154
  8
OLÇÜ
 62
     0
 10
28.299987638223449
 20
12.09981342638366
 30
0.0
 11
28.299987638223449
 21
17.49980732286803
 31
0.0
  0
ARC
  5
155
  8
OLÇÜ
 62
     0
 10
1.999999845254933
 20
10.61401362720119
 30
0.0
 40
0.9999999999997726
 50
314.99938526088943
 51
0.0000000000064748
  0
LINE
  5
156
  8
OLÇÜ
 62
     0
 10
27.29998763822346
 20
12.09981342638366
 30
0.0
 11
28.299987638223449
 21
12.09981342638366
 31
0.0
  0
LINE
  5
157
  8
OLÇÜ
 62
     0
 10
2.7070990396953221
 20
9.9068992593502117
 30
0.0
 11
1.7999876382234561
 21
8.9998073228680369
 31
0.0
  0
LINE
  5
158
  8
OLÇÜ
 62
     0
 10
27.144790614014539
 20
12.953465724030821
 30
0.0
 11
27.29998763822346
 21
12.09981342638366
 31
0.0
  0
LINE
  5
159
  8
OLÇÜ
 62
     0
 10
1.7999876382234561
 20
8.9998073228680369
 30
0.0
 11
1.7999876382234561
 21
4.7998073228682179
 31
0.0
  0
ARC
  5
15A
  8
OLÇÜ
 62
     0
 10
26.849628881280751
 20
12.89980427111027
 30
0.0
 40
0.2999999999999545
 50
10.304035344031711
 51
90.0
  0
ARC
  5
15B
  8
OLÇÜ
 62
     0
 10
2.0999876382236371
 20
4.7998073228682179
 30
0.0
 40
0.3000000000001819
 50
180.0
 51
269.99999999995651
  0
LINE
  5
15C
  8
OLÇÜ
 62
     0
 10
26.599987638223411
 20
13.19980427111056
 30
0.0
 11
26.849628881280751
 21
13.199804271110221
 31
0.0
  0
LINE
  5
15D
  8
OLÇÜ
 62
     0
 10
2.0999876382234102
 20
4.499807322868036
 30
0.0
 11
5.9999998452547061
 21
4.499807322868036
 31
0.0
  0
ARC
  5
15E
  8
OLÇÜ
 62
     0
 10
26.599987638223642
 20
12.89980427111038
 30
0.0
 40
0.3000000000001819
 50
90.000000000043414
 51
180.00000000002171
  0
ARC
  5
15F
  8
OLÇÜ
 62
     0
 10
5.9999998452547061
 20
5.499807322868036
 30
0.0
 40
1.0
 50
270.0
 51
0.0
  0
LINE
  5
160
  8
OLÇÜ
 62
     0
 10
26.29998763822357
 20
9.5998103746260313
 30
0.0
 11
26.29998763822346
 21
12.89980427111027
 31
0.0
  0
LINE
  5
161
  8
OLÇÜ
 62
     0
 10
6.9999998452547061
 20
5.499807322868036
 30
0.0
 11
6.9999998452547061
 21
7.4998103746258939
 31
0.0
  0
ARC
  5
162
  8
OLÇÜ
 62
     0
 10
26.599987638223642
 20
9.5998103746259176
 30
0.0
 40
0.3000000000000682
 50
179.99999999997829
 51
269.99999999995651
  0
ARC
  5
163
  8
OLÇÜ
 62
     0
 10
7.2999998452548871
 20
7.4998103746260076
 30
0.0
 40
0.3000000000001819
 50
90.000000000043414
 51
180.00000000002171
  0
LINE
  5
164
  8
OLÇÜ
 62
     0
 10
27.399993741739081
 20
9.2998103746258494
 30
0.0
 11
26.599987638223411
 21
9.2998103746258494
 31
0.0
  0
LINE
  5
165
  8
OLÇÜ
 62
     0
 10
7.2999998452546597
 20
7.7998103746261904
 30
0.0
 11
7.6999998452547507
 21
7.7998103746260758
 31
0.0
  0
LINE
  5
166
  8
OLÇÜ
 62
     0
 10
27.399993741739081
 20
6.7998103746258494
 30
0.0
 11
27.399993741739081
 21
9.2998103746258494
 31
0.0
  0
ARC
  5
167
  8
OLÇÜ
 62
     0
 10
7.6999998452545242
 20
7.4998103746260076
 30
0.0
 40
0.3000000000000682
 50
359.99999999997829
 51
89.999999999956515
  0
LINE
  5
168
  8
OLÇÜ
 62
     0
 10
21.349990689981269
 20
6.7998103746258494
 30
0.0
 11
27.399993741739081
 21
6.7998103746258494
 31
0.0
  0
LINE
  5
169
  8
OLÇÜ
 62
     0
 10
7.9999998452545924
 20
7.4998103746258939
 30
0.0
 11
7.9999998452547061
 21
6.483480418571161
 31
0.0
  0
LINE
  5
16A
  8
OLÇÜ
 62
     0
 10
21.049987638223449
 20
6.499807322868036
 30
0.0
 11
21.349990689981269
 21
6.7998103746258494
 31
0.0
  0
ARC
  5
16B
  8
OLÇÜ
 62
     0
 10
8.4999998452547061
 20
6.483480418571161
 30
0.0
 40
0.5
 50
180.0
 51
261.5378924198572
  0
LINE
  5
16C
  8
OLÇÜ
 62
     0
 10
20.749999845254699
 20
6.7998103746258494
 30
0.0
 11
21.049987638223449
 21
6.499807322868036
 31
0.0
  0
ARC
  5
16D
  8
OLÇÜ
 62
     0
 10
8.2792669017105691
 20
4.9998103178971851
 30
0.0
 40
0.9999999999999562
 50
30.000273116534469
 51
81.537892419842379
  0
LINE
  5
16E
  8
OLÇÜ
 62
     0
 10
14.69998153470806
 20
6.7998103746258494
 30
0.0
 11
20.749999845254699
 21
6.7998103746258494
 31
0.0
  0
LINE
  5
16F
  8
OLÇÜ
 62
     0
 10
9.1452899220937525
 20
5.4998144460464573
 30
0.0
 11
9.4125843578945023
 21
5.0368519991548046
 31
0.0
  0
LINE
  5
170
  8
OLÇÜ
 62
     0
 10
14.69998153470806
 20
9.2998103746258494
 30
0.0
 11
14.69998153470806
 21
6.7998103746258494
 31
0.0
  0
ARC
  5
171
  8
OLÇÜ
 62
     0
 10
9.1527774517796843
 20
4.88685076070999
 30
0.0
 40
0.2999999999998871
 50
309.59510525939368
 51
30.00027311655311
  0
LINE
  5
172
  8
OLÇÜ
 62
     0
 10
15.499987638223731
 20
9.2998103746260767
 30
0.0
 11
14.69998153470806
 21
9.2998103746258494
 31
0.0
  0
ARC
  5
173
  8
OLÇÜ
 62
     0
 10
10.30002214514502
 20
3.4998289102908302
 30
0.0
 40
1.499999999998749
 50
129.5951052590332
 51
143.75846334160599
  0
ARC
  5
174
  8
OLÇÜ
 62
     0
 10
15.499987638223731
 20
9.5998103746260313
 30
0.0
 40
0.2999999999999545
 50
270.0
 51
0.0
  0
ARC
  5
175
  8
OLÇÜ
 62
     0
 10
8.8482664468174335
 20
4.563970530875963
 30
0.0
 40
0.299997776746605
 50
285.9275093781103
 51
323.75846334195103
  0
LINE
  5
176
  8
OLÇÜ
 62
     0
 10
15.799987638223801
 20
12.89980427111027
 30
0.0
 11
15.79998763822368
 21
9.5998103746260313
 31
0.0
  0
ARC
  5
177
  8
OLÇÜ
 62
     0
 10
8.8482884100526462
 20
4.5640825184882479
 30
0.0
 40
0.3000994424244507
 50
248.1009875743564
 51
285.91760969410558
  0
ARC
  5
178
  8
OLÇÜ
 62
     0
 10
15.499987638223731
 20
12.89980427111038
 30
0.0
 40
0.3000000000000682
 50
359.99999999997829
 51
90.0
  0
ARC
  5
179
  8
OLÇÜ
 62
     0
 10
10.2999232590389
 20
3.4997994574595159
 30
0.0
 40
1.749934880599691
 50
153.31616126772221
 51
206.68283724839841
  0
LINE
  5
17A
  8
OLÇÜ
 62
     0
 10
15.250346395166391
 20
13.19980427111034
 30
0.0
 11
15.499987638223731
 21
13.19980427111045
 31
0.0
  0
ARC
  5
17B
  8
OLÇÜ
 62
     0
 10
8.8482406023404092
 20
2.4356905752601961
 30
0.0
 40
0.2999504827087422
 50
74.066767139722316
 51
111.90343579917121
  0
ARC
  5
17C
  8
OLÇÜ
 62
     0
 10
15.250346395166609
 20
12.89980427111027
 30
0.0
 40
0.300000000000096
 50
90.000000000043414
 51
169.69596465597411
  0
ARC
  5
17D
  8
OLÇÜ
 62
     0
 10
8.8482511880281436
 20
2.435628856070934
 30
0.0
 40
0.3000069260600231
 50
36.243252046074289
 51
74.07194693606381
  0
LINE
  5
17E
  8
OLÇÜ
 62
     0
 10
14.79998763822368
 20
12.09981342638366
 30
0.0
 11
14.955184662432661
 21
12.953465724030821
 31
0.0
  0
ARC
  5
17F
  8
OLÇÜ
 62
     0
 10
10.29998240524878
 20
3.4998193497411871
 30
0.0
 40
1.500000000001974
 50
216.24325204607311
 51
233.757907588233
  0
LINE
  5
180
  8
OLÇÜ
 62
     0
 10
13.79998763822368
 20
12.09981342638366
 30
0.0
 11
14.79998763822368
 21
12.09981342638366
 31
0.0
  0
ARC
  5
181
  8
OLÇÜ
 62
     0
 10
9.2358450251986142
 20
2.048091313787153
 30
0.0
 40
0.2999729592664439
 50
15.925034997582641
 51
53.758771999825562
  0
LINE
  5
182
  8
OLÇÜ
 62
     0
 10
13.79998763822368
 20
17.49980732286803
 30
0.0
 11
13.79998763822368
 21
12.09981342638366
 31
0.0
  0
ARC
  5
183
  8
OLÇÜ
 62
     0
 10
9.2358244302158692
 20
2.0480708726724961
 30
0.0
 40
0.2999983727930067
 50
338.09777944938639
 51
15.927709918311599
  0
LINE
  5
184
  8
OLÇÜ
 62
     0
 10
14.79998763822368
 20
17.49980732286803
 30
0.0
 11
13.79998763822368
 21
17.49980732286803
 31
0.0
  0
ARC
  5
185
  8
OLÇÜ
 62
     0
 10
10.29999611367157
 20
3.4997828220525662
 30
0.0
 40
1.7499789237366099
 50
243.3173013749649
 51
296.68285854176509
  0
LINE
  5
186
  8
OLÇÜ
 62
     0
 10
14.955181719584569
 20
16.64615595369855
 30
0.0
 11
14.79998763822368
 21
17.49980732286803
 31
0.0
  0
ARC
  5
187
  8
OLÇÜ
 62
     0
 10
11.364256335918521
 20
2.0480989606762701
 30
0.0
 40
0.3000861312681847
 50
180.00506742828969
 51
201.9008127263769
  0
ARC
  5
188
  8
OLÇÜ
 62
     0
 10
15.250343621117279
 20
16.699816478141539
 30
0.0
 40
0.2999999999998408
 50
190.30385511121841
 51
270.00000000004343
  0
ARC
  5
189
  8
OLÇÜ
 62
     0
 10
11.36418136380985
 20
2.0480708726729508
 30
0.0
 40
0.3000111579898546
 50
164.07270030911619
 51
179.9997044806708
  0
LINE
  5
18A
  8
OLÇÜ
 62
     0
 10
15.499987638223731
 20
16.399816478141702
 30
0.0
 11
15.25034362111751
 21
16.399816478141702
 31
0.0
  0
ARC
  5
18B
  8
OLÇÜ
 62
     0
 10
11.364172214938661
 20
2.0480646782511931
 30
0.0
 40
0.300004060314514
 50
126.2427577820647
 51
164.07108320885979
  0
ARC
  5
18C
  8
OLÇÜ
 62
     0
 10
15.499987638223731
 20
16.699816478141649
 30
0.0
 40
0.2999999999999545
 50
270.0
 51
0.0
  0
ARC
  5
18D
  8
OLÇÜ
 62
     0
 10
10.30000104261762
 20
3.4998065055543739
 30
0.0
 40
1.500000000000056
 50
306.24251607092401
 51
323.75721106730953
  0
LINE
  5
18E
  8
OLÇÜ
 62
     0
 10
15.79998763822368
 20
18.299810374625849
 30
0.0
 11
15.79998763822368
 21
16.699816478141649
 31
0.0
  0
ARC
  5
18F
  8
OLÇÜ
 62
     0
 10
11.75178118248982
 20
2.435586811116309
 30
0.0
 40
0.3000636469241961
 50
105.93247084806821
 51
143.7554588191465
  0
ARC
  5
190
  8
OLÇÜ
 62
     0
 10
15.29998763822368
 20
18.299810374625849
 30
0.0
 40
0.5
 50
0.0
 51
90.0
  0
ARC
  5
191
  8
OLÇÜ
 62
     0
 10
11.75172685786538
 20
2.4357477589857122
 30
0.0
 40
0.2998939694927654
 50
68.090174371737774
 51
105.9309315448875
  0
LINE
  5
192
  8
OLÇÜ
 62
     0
 10
13.499984586465869
 20
18.799810374625849
 30
0.0
 11
15.29998763822368
 21
18.799810374625849
 31
0.0
  0
ARC
  5
193
  8
OLÇÜ
 62
     0
 10
10.299987638223451
 20
3.499807322868036
 30
0.0
 40
1.7500013113021451
 50
333.31768443580381
 51
26.682291129394489
  0
ARC
  5
194
  8
OLÇÜ
 62
     0
 10
13.49998458646564
 20
17.799810374625849
 30
0.0
 40
1.0
 50
89.999999999986969
 51
179.99999999999349
  0
ARC
  5
195
  8
OLÇÜ
 62
     0
 10
11.751763239993579
 20
4.5637129595894521
 30
0.0
 40
0.2997383289343181
 50
269.99526944883849
 51
291.91436458737792
  0
LINE
  5
196
  8
OLÇÜ
 62
     0
 10
12.49998458646575
 20
6.4651157778037032
 30
0.0
 11
12.49998458646564
 21
17.799810374625959
 31
0.0
  0
ARC
  5
197
  8
OLÇÜ
 62
     0
 10
11.751795020578349
 20
4.56424078763132
 30
0.0
 40
0.300266161275533
 50
254.07568239023951
 51
269.98921350017582
  0
ARC
  5
198
  8
OLÇÜ
 62
     0
 10
11.99998458646564
 20
6.4651157778037032
 30
0.0
 40
0.5000000000000932
 50
282.34660609315
 51
0.0
  0
ARC
  5
199
  8
OLÇÜ
 62
     0
 10
11.75165802796141
 20
4.5639049748007201
 30
0.0
 40
0.29990565158877
 50
216.23918841542229
 51
254.08324770396871
  0
ARC
  5
19A
  8
OLÇÜ
 62
     0
 10
12.32072219697579
 20
4.9998078288710976
 30
0.0
 40
1.0000000000003
 50
102.3466060931554
 51
149.99831056887379
  0
ARC
  5
19B
  8
OLÇÜ
 62
     0
 10
10.29997387961407
 20
3.4998215724600641
 30
0.0
 40
1.5000000000093441
 50
36.241828343535722
 51
50.405166648965363
  0
LINE
  5
19C
  8
OLÇÜ
 62
     0
 10
11.321044767129701
 20
5.268331492789911
 30
0.0
 11
11.454711536635379
 21
5.4998333643964079
 31
0.0
  0
ARC
  5
19D
  8
OLÇÜ
 62
     0
 10
11.447211990589491
 20
4.8868488673396078
 30
0.0
 40
0.2999999999949158
 50
150.00114323812929
 51
230.40516664986211
  0
LINE
  5
19E
  8
OLÇÜ
 62
     0
 10
11.18740137651986
 20
5.0368436832957277
 30
0.0
 11
11.321044767129701
 21
5.268331492789911
 31
0.0
  0
ENDBLK
  5
1A0
  8
0
  0
ENDSEC
  0
SECTION
  2
ENTITIES
  0
LINE
  5
9B
  8
OLÇÜ
 62
     0
 10
1012.77151628274
 20
498.55248274874361
 30
0.0
 11
1000.425431622288
 21
498.55247583460482
 31
0.0
  0
ARC
  5
9C
  8
OLÇÜ
 62
     0
 10
1012.77151628274
 20
500.55248274874361
 30
0.0
 40
2.0
 50
270.0
 51
0.0
  0
ARC
  5
9D
  8
OLÇÜ
 62
     0
 10
1000.425431688014
 20
497.04883589815762
 30
0.0
 40
1.5036399364471451
 50
90.000002504470814
 51
171.9159980882128
  0
LINE
  5
9E
  8
OLÇÜ
 62
     0
 10
1014.77151628274
 20
512.25248274874377
 30
0.0
 11
1014.77151628274
 21
500.55248274874361
 31
0.0
  0
ARC
  5
9F
  8
OLÇÜ
 62
     0
 10
995.47151206013325
 20
497.75248952723871
 30
0.0
 40
3.5000035469908299
 50
206.38797004230591
 51
351.91571201852793
  0
ARC
  5
A0
  8
OLÇÜ
 62
     0
 10
1013.97151628274
 20
512.25248274874377
 30
0.0
 40
0.8
 50
0.0
 51
90.0
  0
ARC
  5
A1
  8
OLÇÜ
 62
     0
 10
991.44038530129535
 20
495.7524796969858
 30
0.0
 40
0.9999989271164084
 50
26.38776308968427
 51
90.000043485624303
  0
LINE
  5
A2
  8
OLÇÜ
 62
     0
 10
1012.271513230982
 20
513.0524827487435
 30
0.0
 11
1013.97151628274
 21
513.05248274874384
 31
0.0
  0
LINE
  5
A3
  8
OLÇÜ
 62
     0
 10
991.44038454232896
 20
496.75247862410191
 30
0.0
 11
985.97346658710114
 21
496.75247956005438
 31
0.0
  0
ARC
  5
A4
  8
OLÇÜ
 62
     0
 10
1012.271513230982
 20
512.25248274874355
 30
0.0
 40
0.8
 50
90.000000000008129
 51
180.0
  0
ARC
  5
A5
  8
OLÇÜ
 62
     0
 10
985.97346672406331
 20
497.55247956005428
 30
0.0
 40
0.8
 50
180.0128704828627
 51
269.9999901907907
  0
LINE
  5
A6
  8
OLÇÜ
 62
     0
 10
1011.471513230983
 20
510.95248885225942
 30
0.0
 11
1011.4715132309821
 21
512.25248274874355
 31
0.0
  0
LINE
  5
A7
  8
OLÇÜ
 62
     0
 10
985.17346674424732
 20
497.55229985421408
 30
0.0
 11
985.17152543801399
 21
506.19445052218111
 31
0.0
  0
ARC
  5
A8
  8
OLÇÜ
 62
     0
 10
1011.771513230983
 20
510.95248885225919
 30
0.0
 40
0.3000000000000682
 50
179.99999999997829
 51
269.99999999995651
  0
LINE
  5
A9
  8
OLÇÜ
 62
     0
 10
985.17152543801399
 20
506.19445052218111
 30
0.0
 11
985.69165646751719
 21
512.13963735167522
 31
0.0
  0
LINE
  5
AA
  8
OLÇÜ
 62
     0
 10
1012.021157248089
 20
510.65248885225918
 30
0.0
 11
1011.771513230983
 21
510.65248885225918
 31
0.0
  0
ARC
  5
AB
  8
OLÇÜ
 62
     0
 10
986.68785124447027
 20
512.05248251032492
 30
0.0
 40
0.9999999999995782
 50
90.000013887096813
 51
175.00005184354049
  0
ARC
  5
AC
  8
OLÇÜ
 62
     0
 10
1012.021157248089
 20
510.95248885225942
 30
0.0
 40
0.3000000000001346
 50
270.00000000004343
 51
349.69614488876999
  0
LINE
  5
AD
  8
OLÇÜ
 62
     0
 10
986.6878510020947
 20
513.05248251032435
 30
0.0
 11
987.37152524411306
 21
513.05248267603054
 31
0.0
  0
LINE
  5
AE
  8
OLÇÜ
 62
     0
 10
1012.4715132309821
 20
511.7524796969858
 30
0.0
 11
1012.316319149621
 21
510.89882832781632
 31
0.0
  0
ARC
  5
AF
  8
OLÇÜ
 62
     0
 10
987.37152543801403
 20
512.25248267603047
 30
0.0
 40
0.8
 50
0.0
 51
90.000013887126158
  0
LINE
  5
B0
  8
OLÇÜ
 62
     0
 10
1013.471513230983
 20
511.7524796969858
 30
0.0
 11
1012.4715132309821
 21
511.7524796969858
 31
0.0
  0
LINE
  5
B1
  8
OLÇÜ
 62
     0
 10
988.17152543801387
 20
512.25248267603047
 30
0.0
 11
988.17152543801387
 21
504.86668600131912
 31
0.0
  0
LINE
  5
B2
  8
OLÇÜ
 62
     0
 10
1013.471513230983
 20
506.35248580050143
 30
0.0
 11
1013.471513230983
 21
511.7524796969858
 31
0.0
  0
ARC
  5
B3
  8
OLÇÜ
 62
     0
 10
987.1715254380141
 20
504.8666860013189
 30
0.0
 40
0.9999999999997726
 50
314.99938526088943
 51
0.0000000000064748
  0
LINE
  5
B4
  8
OLÇÜ
 62
     0
 10
1012.4715132309821
 20
506.35248580050143
 30
0.0
 11
1013.471513230983
 21
506.35248580050143
 31
0.0
  0
LINE
  5
B5
  8
OLÇÜ
 62
     0
 10
987.8786246324546
 20
504.15957163346792
 30
0.0
 11
986.97151323098285
 21
503.2524796969858
 31
0.0
  0
LINE
  5
B6
  8
OLÇÜ
 62
     0
 10
1012.316316206774
 20
507.20613809814859
 30
0.0
 11
1012.4715132309821
 21
506.35248580050143
 31
0.0
  0
LINE
  5
B7
  8
OLÇÜ
 62
     0
 10
986.97151323098285
 20
503.2524796969858
 30
0.0
 11
986.97151323098285
 21
499.05247969698593
 31
0.0
  0
ARC
  5
B8
  8
OLÇÜ
 62
     0
 10
1012.02115447404
 20
507.15247664522798
 30
0.0
 40
0.2999999999999545
 50
10.30403534403365
 51
90.0
  0
ARC
  5
B9
  8
OLÇÜ
 62
     0
 10
987.27151323098303
 20
499.05247969698593
 30
0.0
 40
0.3000000000001819
 50
180.0
 51
269.99999999995651
  0
LINE
  5
BA
  8
OLÇÜ
 62
     0
 10
1011.771513230983
 20
507.45247664522827
 30
0.0
 11
1012.02115447404
 21
507.45247664522788
 31
0.0
  0
LINE
  5
BB
  8
OLÇÜ
 62
     0
 10
987.27151323098258
 20
498.75247969698569
 30
0.0
 11
991.17152543801387
 21
498.75247969698569
 31
0.0
  0
ARC
  5
BC
  8
OLÇÜ
 62
     0
 10
1011.771513230983
 20
507.15247664522809
 30
0.0
 40
0.3000000000001819
 50
90.000000000043414
 51
180.00000000002171
  0
ARC
  5
BD
  8
OLÇÜ
 62
     0
 10
991.17152543801387
 20
499.7524796969858
 30
0.0
 40
1.0
 50
270.0
 51
0.0
  0
LINE
  5
BE
  8
OLÇÜ
 62
     0
 10
1011.471513230983
 20
503.8524827487438
 30
0.0
 11
1011.471513230983
 21
507.15247664522798
 31
0.0
  0
LINE
  5
BF
  8
OLÇÜ
 62
     0
 10
992.17152543801399
 20
499.7524796969858
 30
0.0
 11
992.17152543801399
 21
501.7524827487436
 31
0.0
  0
ARC
  5
C0
  8
OLÇÜ
 62
     0
 10
1011.771513230983
 20
503.85248274874363
 30
0.0
 40
0.3000000000000682
 50
179.99999999997829
 51
269.99999999995651
  0
ARC
  5
C1
  8
OLÇÜ
 62
     0
 10
992.47152543801417
 20
501.75248274874372
 30
0.0
 40
0.3000000000001819
 50
90.000000000043414
 51
180.00000000002171
  0
LINE
  5
C2
  8
OLÇÜ
 62
     0
 10
1012.571519334498
 20
503.55248274874361
 30
0.0
 11
1011.771513230983
 21
503.55248274874361
 31
0.0
  0
LINE
  5
C3
  8
OLÇÜ
 62
     0
 10
992.47152543801394
 20
502.0524827487439
 30
0.0
 11
992.87152543801403
 21
502.05248274874378
 31
0.0
  0
LINE
  5
C4
  8
OLÇÜ
 62
     0
 10
1012.571519334498
 20
501.05248274874361
 30
0.0
 11
1012.571519334498
 21
503.55248274874361
 31
0.0
  0
ARC
  5
C5
  8
OLÇÜ
 62
     0
 10
992.8715254380138
 20
501.75248274874372
 30
0.0
 40
0.3000000000000682
 50
359.99999999997829
 51
89.999999999956515
  0
LINE
  5
C6
  8
OLÇÜ
 62
     0
 10
1006.52151628274
 20
501.05248274874361
 30
0.0
 11
1012.571519334498
 21
501.05248274874361
 31
0.0
  0
LINE
  5
C7
  8
OLÇÜ
 62
     0
 10
993.17152543801376
 20
501.7524827487436
 30
0.0
 11
993.17152543801399
 21
500.73615279268893
 31
0.0
  0
LINE
  5
C8
  8
OLÇÜ
 62
     0
 10
1006.221513230983
 20
500.7524796969858
 30
0.0
 11
1006.52151628274
 21
501.05248274874361
 31
0.0
  0
ARC
  5
C9
  8
OLÇÜ
 62
     0
 10
993.67152543801387
 20
500.73615279268893
 30
0.0
 40
0.5
 50
180.0
 51
261.5378924198572
  0
LINE
  5
CA
  8
OLÇÜ
 62
     0
 10
1005.921525438014
 20
501.05248274874361
 30
0.0
 11
1006.221513230983
 21
500.7524796969858
 31
0.0
  0
ARC
  5
CB
  8
OLÇÜ
 62
     0
 10
993.45079249446985
 20
499.25248269201489
 30
0.0
 40
0.9999999999999562
 50
30.000273116534469
 51
81.537892419842379
  0
LINE
  5
CC
  8
OLÇÜ
 62
     0
 10
999.87150712746734
 20
501.05248274874361
 30
0.0
 11
1005.921525438014
 21
501.05248274874361
 31
0.0
  0
LINE
  5
CD
  8
OLÇÜ
 62
     0
 10
994.31681551485303
 20
499.75248682016422
 30
0.0
 11
994.58410995065367
 21
499.28952437327251
 31
0.0
  0
LINE
  5
CE
  8
OLÇÜ
 62
     0
 10
999.87150712746734
 20
503.55248274874361
 30
0.0
 11
999.87150712746734
 21
501.05248274874361
 31
0.0
  0
ARC
  5
CF
  8
OLÇÜ
 62
     0
 10
994.32430304453885
 20
499.1395231348277
 30
0.0
 40
0.2999999999998871
 50
309.59510525939368
 51
30.00027311655311
  0
LINE
  5
D0
  8
OLÇÜ
 62
     0
 10
1000.671513230983
 20
503.55248274874378
 30
0.0
 11
999.87150712746734
 21
503.55248274874361
 31
0.0
  0
ARC
  5
D1
  8
OLÇÜ
 62
     0
 10
995.4715477379043
 20
497.75250128440848
 30
0.0
 40
1.499999999998749
 50
129.5951052590332
 51
143.75846334160599
  0
ARC
  5
D2
  8
OLÇÜ
 62
     0
 10
1000.671513230983
 20
503.8524827487438
 30
0.0
 40
0.2999999999999545
 50
270.0
 51
0.0
  0
ARC
  5
D3
  8
OLÇÜ
 62
     0
 10
994.01979203957671
 20
498.81664290499373
 30
0.0
 40
0.299997776746605
 50
285.9275093781103
 51
323.75846334195103
  0
LINE
  5
D4
  8
OLÇÜ
 62
     0
 10
1000.971513230983
 20
507.15247664522798
 30
0.0
 11
1000.971513230983
 21
503.8524827487438
 31
0.0
  0
ARC
  5
D5
  8
OLÇÜ
 62
     0
 10
994.01981400281193
 20
498.8167548926059
 30
0.0
 40
0.3000994424244507
 50
248.10098757434639
 51
285.91760969410558
  0
ARC
  5
D6
  8
OLÇÜ
 62
     0
 10
1000.671513230983
 20
507.15247664522809
 30
0.0
 40
0.3000000000000682
 50
359.99999999997829
 51
90.0
  0
ARC
  5
D7
  8
OLÇÜ
 62
     0
 10
995.47144885179819
 20
497.75247183157722
 30
0.0
 40
1.749934880599691
 50
153.316161267723
 51
206.68283724839841
  0
LINE
  5
D8
  8
OLÇÜ
 62
     0
 10
1000.421871987925
 20
507.4524766452281
 30
0.0
 11
1000.671513230983
 21
507.45247664522822
 31
0.0
  0
ARC
  5
D9
  8
OLÇÜ
 62
     0
 10
994.01976619509958
 20
496.6883629493779
 30
0.0
 40
0.2999504827087422
 50
74.066767139722316
 51
111.90343579917121
  0
ARC
  5
DA
  8
OLÇÜ
 62
     0
 10
1000.421871987926
 20
507.15247664522798
 30
0.0
 40
0.300000000000096
 50
90.000000000043414
 51
169.69596465597411
  0
ARC
  5
DB
  8
OLÇÜ
 62
     0
 10
994.01977678078731
 20
496.68830123018859
 30
0.0
 40
0.3000069260600231
 50
36.243252046080713
 51
74.07194693606381
  0
LINE
  5
DC
  8
OLÇÜ
 62
     0
 10
999.97151323098285
 20
506.35248580050143
 30
0.0
 11
1000.1267102551921
 21
507.20613809814859
 31
0.0
  0
ARC
  5
DD
  8
OLÇÜ
 62
     0
 10
995.47150799800806
 20
497.7524917238589
 30
0.0
 40
1.500000000001974
 50
216.2432520460718
 51
233.757907588233
  0
LINE
  5
DE
  8
OLÇÜ
 62
     0
 10
998.97151323098285
 20
506.35248580050143
 30
0.0
 11
999.97151323098285
 21
506.35248580050143
 31
0.0
  0
ARC
  5
DF
  8
OLÇÜ
 62
     0
 10
994.40737061795778
 20
496.30076368790492
 30
0.0
 40
0.2999729592664439
 50
15.925034997582641
 51
53.758771999825562
  0
LINE
  5
E0
  8
OLÇÜ
 62
     0
 10
998.97151323098285
 20
511.7524796969858
 30
0.0
 11
998.97151323098285
 21
506.35248580050143
 31
0.0
  0
ARC
  5
E1
  8
OLÇÜ
 62
     0
 10
994.40735002297515
 20
496.3007432467902
 30
0.0
 40
0.2999983727930067
 50
338.09777944938639
 51
15.927709918311599
  0
LINE
  5
E2
  8
OLÇÜ
 62
     0
 10
999.97151323098285
 20
511.7524796969858
 30
0.0
 11
998.97151323098285
 21
511.7524796969858
 31
0.0
  0
ARC
  5
E3
  8
OLÇÜ
 62
     0
 10
995.47152170643085
 20
497.75245519617027
 30
0.0
 40
1.7499789237366099
 50
243.3173013749649
 51
296.68285854176679
  0
LINE
  5
E4
  8
OLÇÜ
 62
     0
 10
1000.126707312344
 20
510.89882832781632
 30
0.0
 11
999.97151323098285
 21
511.7524796969858
 31
0.0
  0
ARC
  5
E5
  8
OLÇÜ
 62
     0
 10
996.53578192867769
 20
496.30077133479398
 30
0.0
 40
0.3000861312681847
 50
180.00506742828969
 51
201.90081272638091
  0
ARC
  5
E6
  8
OLÇÜ
 62
     0
 10
1000.421869213876
 20
510.95248885225919
 30
0.0
 40
0.2999999999998408
 50
190.30385511121639
 51
270.00000000004343
  0
ARC
  5
E7
  8
OLÇÜ
 62
     0
 10
996.53570695656913
 20
496.3007432467906
 30
0.0
 40
0.3000111579898546
 50
164.07270030911619
 51
179.9997044806708
  0
LINE
  5
E8
  8
OLÇÜ
 62
     0
 10
1000.671513230983
 20
510.65248885225941
 30
0.0
 11
1000.421869213877
 21
510.65248885225941
 31
0.0
  0
ARC
  5
E9
  8
OLÇÜ
 62
     0
 10
996.53569780769794
 20
496.30073705236902
 30
0.0
 40
0.300004060314514
 50
126.2427577820559
 51
164.07108320885979
  0
ARC
  5
EA
  8
OLÇÜ
 62
     0
 10
1000.671513230983
 20
510.95248885225942
 30
0.0
 40
0.2999999999999545
 50
270.0
 51
0.0
  0
ARC
  5
EB
  8
OLÇÜ
 62
     0
 10
995.4715266353769
 20
497.75247887967208
 30
0.0
 40
1.500000000000056
 50
306.24251607092577
 51
323.75721106730958
  0
LINE
  5
EC
  8
OLÇÜ
 62
     0
 10
1000.971513230983
 20
512.55248274874361
 30
0.0
 11
1000.971513230983
 21
510.95248885225942
 31
0.0
  0
ARC
  5
ED
  8
OLÇÜ
 62
     0
 10
996.92330677524899
 20
496.68825918523402
 30
0.0
 40
0.3000636469241961
 50
105.93247084806821
 51
143.7554588191465
  0
ARC
  5
EE
  8
OLÇÜ
 62
     0
 10
1000.471513230983
 20
512.55248274874361
 30
0.0
 40
0.5
 50
0.0
 51
90.0
  0
ARC
  5
EF
  8
OLÇÜ
 62
     0
 10
996.92325245062455
 20
496.68842013310342
 30
0.0
 40
0.2998939694927654
 50
68.09017437174785
 51
105.9309315448875
  0
LINE
  5
F0
  8
OLÇÜ
 62
     0
 10
998.67151017922515
 20
513.05248274874361
 30
0.0
 11
1000.471513230983
 21
513.05248274874361
 31
0.0
  0
ARC
  5
F1
  8
OLÇÜ
 62
     0
 10
995.47151323098274
 20
497.75247969698569
 30
0.0
 40
1.7500013113021451
 50
333.3176844358029
 51
26.682291129394489
  0
ARC
  5
F2
  8
OLÇÜ
 62
     0
 10
998.67151017922492
 20
512.05248274874361
 30
0.0
 40
1.0
 50
89.999999999986969
 51
179.99999999999349
  0
ARC
  5
F3
  8
OLÇÜ
 62
     0
 10
996.92328883275275
 20
498.81638533370722
 30
0.0
 40
0.2997383289343181
 50
269.99526944883849
 51
291.91436458737792
  0
LINE
  5
F4
  8
OLÇÜ
 62
     0
 10
997.67151017922492
 20
500.71778815192141
 30
0.0
 11
997.67151017922492
 21
512.05248274874373
 31
0.0
  0
ARC
  5
F5
  8
OLÇÜ
 62
     0
 10
996.92332061333764
 20
498.81691316174908
 30
0.0
 40
0.300266161275533
 50
254.07568239023951
 51
269.98921350017582
  0
ARC
  5
F6
  8
OLÇÜ
 62
     0
 10
997.17151017922481
 20
500.71778815192141
 30
0.0
 40
0.5000000000000932
 50
282.34660609315631
 51
0.0
  0
ARC
  5
F7
  8
OLÇÜ
 62
     0
 10
996.92318362072069
 20
498.81657734891849
 30
0.0
 40
0.29990565158877
 50
216.23918841542229
 51
254.08324770396871
  0
ARC
  5
F8
  8
OLÇÜ
 62
     0
 10
997.49224778973507
 20
499.25248020298892
 30
0.0
 40
1.0000000000003
 50
102.3466060931522
 51
149.99831056887379
  0
ARC
  5
F9
  8
OLÇÜ
 62
     0
 10
995.47149947237335
 20
497.75249394657777
 30
0.0
 40
1.5000000000093441
 50
36.241828343535722
 51
50.405166648965363
  0
LINE
  5
FA
  8
OLÇÜ
 62
     0
 10
996.49257035988899
 20
499.52100386690762
 30
0.0
 11
996.62623712939467
 21
499.75250573851412
 31
0.0
  0
ARC
  5
FB
  8
OLÇÜ
 62
     0
 10
996.61873758334877
 20
499.13952124145732
 30
0.0
 40
0.2999999999949158
 50
150.00114323813469
 51
230.40516664986211
  0
LINE
  5
FC
  8
OLÇÜ
 62
     0
 10
996.35892696927908
 20
499.28951605741349
 30
0.0
 11
996.49257035988899
 21
499.52100386690762
 31
0.0
  0
ENDSEC
  0
EOF
