  0
SECTION
  2
HEADER
  9
$ACADVER
  1
AC1009
  9
$INSBASE
 10
0.0
 20
0.0
 30
0.0
  9
$EXTMIN
 10
816.99920847196961
 20
689.98933560120554
 30
-0.0015258207003583
  9
$EXTMAX
 10
917.13501132225508
 20
771.65345888567799
 30
0.0000000349246037
  9
$LIMMIN
 10
0.0
 20
0.0
  9
$LIMMAX
 10
420.0
 20
297.0
  9
$ORTHOMODE
 70
     0
  9
$REGENMODE
 70
     1
  9
$FILLMODE
 70
     1
  9
$QTEXTMODE
 70
     0
  9
$MIRRTEXT
 70
     0
  9
$DRAGMODE
 70
     2
  9
$LTSCALE
 40
1.0
  9
$OSMODE
 70
  3071
  9
$ATTMODE
 70
     1
  9
$TEXTSIZE
 40
2.5
  9
$TRACEWID
 40
1.0
  9
$TEXTSTYLE
  7
STANDARD
  9
$CLAYER
  8
0
  9
$CELTYPE
  6
BYLAYER
  9
$CECOLOR
 62
   256
  9
$DIMSCALE
 40
1.0
  9
$DIMASZ
 40
2.5
  9
$DIMEXO
 40
0.625
  9
$DIMDLI
 40
3.75
  9
$DIMRND
 40
0.0
  9
$DIMDLE
 40
0.0
  9
$DIMEXE
 40
1.25
  9
$DIMTP
 40
0.0
  9
$DIMTM
 40
0.0
  9
$DIMTXT
 40
2.5
  9
$DIMCEN
 40
2.5
  9
$DIMTSZ
 40
0.0
  9
$DIMTOL
 70
     0
  9
$DIMLIM
 70
     0
  9
$DIMTIH
 70
     0
  9
$DIMTOH
 70
     0
  9
$DIMSE1
 70
     0
  9
$DIMSE2
 70
     0
  9
$DIMTAD
 70
     1
  9
$DIMZIN
 70
     8
  9
$DIMBLK
  1

  9
$DIMASO
 70
     1
  9
$DIMSHO
 70
     1
  9
$DIMPOST
  1

  9
$DIMAPOST
  1

  9
$DIMALT
 70
     0
  9
$DIMALTD
 70
     3
  9
$DIMALTF
 40
0.03937007874016
  9
$DIMLFAC
 40
1.0
  9
$DIMTOFL
 70
     1
  9
$DIMTVP
 40
0.0
  9
$DIMTIX
 70
     0
  9
$DIMSOXD
 70
     0
  9
$DIMSAH
 70
     0
  9
$DIMBLK1
  1

  9
$DIMBLK2
  1

  9
$DIMSTYLE
  2
ISO-25
  9
$DIMCLRD
 70
     0
  9
$DIMCLRE
 70
     0
  9
$DIMCLRT
 70
     0
  9
$DIMTFAC
 40
1.0
  9
$DIMGAP
 40
0.625
  9
$LUNITS
 70
     2
  9
$LUPREC
 70
     4
  9
$SKETCHINC
 40
1.0
  9
$FILLETRAD
 40
0.0
  9
$AUNITS
 70
     0
  9
$AUPREC
 70
     0
  9
$MENU
  1
.
  9
$ELEVATION
 40
0.0
  9
$PELEVATION
 40
0.0
  9
$THICKNESS
 40
0.0
  9
$LIMCHECK
 70
     0
  9
$BLIPMODE
 70
     0
  9
$CHAMFERA
 40
0.0
  9
$CHAMFERB
 40
0.0
  9
$SKPOLY
 70
     0
  9
$TDCREATE
 40
2454525.7309349081
  9
$TDUPDATE
 40
2454525.7328611459
  9
$TDINDWG
 40
0.0019267824
  9
$TDUSRTIMER
 40
0.0019267824
  9
$USRTIMER
 70
     1
  9
$ANGBASE
 50
0.0
  9
$ANGDIR
 70
     0
  9
$PDMODE
 70
     0
  9
$PDSIZE
 40
0.0
  9
$PLINEWID
 40
0.0
  9
$COORDS
 70
     2
  9
$SPLFRAME
 70
     0
  9
$SPLINETYPE
 70
     6
  9
$SPLINESEGS
 70
     8
  9
$ATTDIA
 70
     0
  9
$ATTREQ
 70
     1
  9
$HANDLING
 70
     1
  9
$HANDSEED
  5
385
  9
$SURFTAB1
 70
     6
  9
$SURFTAB2
 70
     6
  9
$SURFTYPE
 70
     6
  9
$SURFU
 70
     6
  9
$SURFV
 70
     6
  9
$UCSNAME
  2

  9
$UCSORG
 10
0.0
 20
0.0
 30
0.0
  9
$UCSXDIR
 10
1.0
 20
0.0
 30
0.0
  9
$UCSYDIR
 10
0.0
 20
1.0
 30
0.0
  9
$PUCSNAME
  2

  9
$PUCSORG
 10
0.0
 20
0.0
 30
0.0
  9
$PUCSXDIR
 10
1.0
 20
0.0
 30
0.0
  9
$PUCSYDIR
 10
0.0
 20
1.0
 30
0.0
  9
$USERI1
 70
     0
  9
$USERI2
 70
     0
  9
$USERI3
 70
     0
  9
$USERI4
 70
     0
  9
$USERI5
 70
     0
  9
$USERR1
 40
0.0
  9
$USERR2
 40
0.0
  9
$USERR3
 40
0.0
  9
$USERR4
 40
0.0
  9
$USERR5
 40
0.0
  9
$WORLDVIEW
 70
     1
  9
$SHADEDGE
 70
     3
  9
$SHADEDIF
 70
    70
  9
$TILEMODE
 70
     1
  9
$MAXACTVP
 70
    64
  9
$PLIMCHECK
 70
     0
  9
$PEXTMIN
 10
0.0
 20
0.0
 30
0.0
  9
$PEXTMAX
 10
0.0
 20
0.0
 30
0.0
  9
$PLIMMIN
 10
0.0
 20
0.0
  9
$PLIMMAX
 10
12.0
 20
9.0
  9
$UNITMODE
 70
     0
  9
$VISRETAIN
 70
     1
  9
$PLINEGEN
 70
     0
  9
$PSLTSCALE
 70
     1
  0
ENDSEC
  0
SECTION
  2
TABLES
  0
TABLE
  2
VPORT
 70
     2
  0
VPORT
  2
*ACTIVE
 70
     0
 10
0.0
 20
0.0
 11
1.0
 21
1.0
 12
867.06710989711246
 22
730.82139724344165
 13
0.0
 23
0.0
 14
10.0
 24
10.0
 15
10.0
 25
10.0
 16
0.0
 26
0.0
 36
1.0
 17
0.0
 27
0.0
 37
0.0
 40
82.695670104908004
 41
1.839662447257383
 42
50.0
 43
0.0
 44
0.0
 50
0.0
 51
0.0
 71
     0
 72
  1000
 73
     1
 74
     3
 75
     0
 76
     0
 77
     0
 78
     0
  0
ENDTAB
  0
TABLE
  2
LTYPE
 70
     2
  0
LTYPE
  2
CONTINUOUS
 70
     0
  3
Solid line
 72
    65
 73
     0
 40
0.0
  0
LTYPE
  2
HIDDEN
 70
     0
  3
Hidden __ __ __ __ __ __ __ __ __ __ __ __ __ _
 72
    65
 73
     2
 40
9.5249999999999986
 49
6.3499999999999988
 49
-3.1749999999999989
  0
ENDTAB
  0
TABLE
  2
LAYER
 70
     1
  0
LAYER
  2
0
 70
     0
 62
     7
  6
CONTINUOUS
  0
ENDTAB
  0
TABLE
  2
STYLE
 70
     3
  0
STYLE
  2
STANDARD
 70
     0
 40
0.0
 41
1.0
 50
0.0
 71
     0
 42
2.5
  3
txt
  4

  0
STYLE
  2
ROMANT
 70
     0
 40
3.0
 41
1.0
 50
0.0
 71
     0
 42
2.5
  3
romant.shx
  4

  0
STYLE
  2
STYLE1
 70
     0
 40
0.0
 41
1.0
 50
15.0
 71
     0
 42
0.2
  3
romant.shx
  4

  0
ENDTAB
  0
TABLE
  2
VIEW
 70
     0
  0
ENDTAB
  0
TABLE
  2
UCS
 70
     0
  0
ENDTAB
  0
TABLE
  2
APPID
 70
     3
  0
APPID
  2
ACAD
 70
     0
  0
APPID
  2
ACAD_PSEXT
 70
     0
  0
APPID
  2
DCO15
 70
     0
  0
ENDTAB
  0
TABLE
  2
DIMSTYLE
 70
     6
  0
DIMSTYLE
  2
ISO-25
 70
     0
  3

  4

  5

  6

  7

 40
1.0
 41
2.5
 42
0.625
 43
3.75
 44
1.25
 45
0.0
 46
0.0
 47
0.0
 48
0.0
140
2.5
141
2.5
142
0.0
143
0.03937007874016
144
1.0
145
0.0
146
1.0
147
0.625
 71
     0
 72
     0
 73
     0
 74
     0
 75
     0
 76
     0
 77
     1
 78
     8
170
     0
171
     3
172
     1
173
     0
174
     0
175
     0
176
     0
177
     0
178
     0
  0
DIMSTYLE
  2
ISO-25_1_E_1
 70
     0
  3

  4

  5

  6

  7

 40
1.0
 41
1.3
 42
0.0
 43
3.75
 44
0.2
 45
0.0
 46
0.0
 47
0.0
 48
0.0
140
1.0
141
0.2
142
0.0
143
0.03937007874016
144
1.0
145
0.0
146
1.0
147
0.7
 71
     0
 72
     0
 73
     0
 74
     0
 75
     0
 76
     0
 77
     1
 78
     8
170
     0
171
     3
172
     0
173
     0
174
     0
175
     0
176
   242
177
   242
178
   242
  0
DIMSTYLE
  2
ÝSMAIL_1_5___1
 70
     0
  3

  4

  5

  6

  7

 40
0.0
 41
2.0
 42
0.625
 43
0.38
 44
0.18
 45
0.0
 46
0.0
 47
0.0
 48
0.0
140
2.5
141
0.137
142
0.0
143
25.399999999999999
144
0.6666600000000001
145
0.0
146
1.0
147
0.5
 71
     0
 72
     0
 73
     0
 74
     0
 75
     0
 76
     0
 77
     1
 78
     8
170
     0
171
     2
172
     0
173
     0
174
     0
175
     0
176
   242
177
   256
178
   256
  0
DIMSTYLE
  2
ISO-25_1_E_4
 70
     0
  3

  4

  5

  6

  7

 40
1.0
 41
2.5
 42
0.0
 43
3.75
 44
0.3
 45
0.0
 46
0.0
 47
0.0
 48
0.0
140
1.0
141
0.2
142
0.0
143
0.03937007874016
144
0.25
145
0.0
146
1.0
147
0.5
 71
     0
 72
     0
 73
     0
 74
     0
 75
     0
 76
     0
 77
     1
 78
     8
170
     0
171
     3
172
     0
173
     0
174
     0
175
     0
176
   242
177
   242
178
   256
  0
DIMSTYLE
  2
ÝSMAIL_1_4
 70
     0
  3

  4

  5

  6

  7

 40
0.8
 41
2.0
 42
0.0
 43
0.38
 44
0.0
 45
0.0
 46
0.0
 47
0.0135
 48
0.0135
140
3.7999999999999989
141
0.137
142
0.0
143
25.399999999999999
144
1.0
145
0.0
146
1.0
147
0.5
 71
     0
 72
     0
 73
     0
 74
     0
 75
     0
 76
     0
 77
     1
 78
     8
170
     0
171
     2
172
     0
173
     0
174
     0
175
     0
176
   242
177
   242
178
   242
  0
DIMSTYLE
  2
ISO-25_1_E_2
 70
     0
  3

  4

  5

  6

  7

 40
1.0
 41
2.2999999999999989
 42
0.0
 43
3.75
 44
0.0
 45
0.0
 46
0.0
 47
0.0
 48
0.0
140
1.0
141
0.2
142
0.0
143
0.03937007874016
144
0.3333333333333333
145
0.0
146
1.0
147
0.2
 71
     0
 72
     0
 73
     0
 74
     0
 75
     0
 76
     0
 77
     1
 78
     8
170
     0
171
     3
172
     0
173
     0
174
     0
175
     0
176
   242
177
   242
178
   256
  0
ENDTAB
  0
ENDSEC
  0
SECTION
  2
BLOCKS
  0
BLOCK
  8
0
  2
$MODEL_SPACE
 70
     0
 10
0.0
 20
0.0
 30
0.0
  3
$MODEL_SPACE
  1

  0
ENDBLK
  5
21
  8
0
  0
BLOCK
 67
     1
  8
0
  2
$PAPER_SPACE
 70
     0
 10
0.0
 20
0.0
 30
0.0
  3
$PAPER_SPACE
  1

  0
ENDBLK
  5
53
 67
     1
  8
0
  0
BLOCK
  8
0
  2
*U2
 70
     1
 10
0.0
 20
0.0
 30
0.0
  3
*U2
  1

  0
ARC
  5
1B5
  8
0
 62
     0
 10
89.000000438904408
 20
68.500000173293301
 30
0.0
 40
2.0
 50
180.0
 51
270.0
  0
LINE
  5
1B6
  8
0
 62
     0
 10
87.000000438904394
 20
77.000000173292847
 30
0.0
 11
87.000000438904394
 21
68.500000173293301
 31
0.0
  0
LINE
  5
1B7
  8
0
 62
     0
 10
94.000000438903953
 20
66.500000173293301
 30
0.0
 11
89.000000438904408
 21
66.500000173293301
 31
0.0
  0
ARC
  5
1B8
  8
0
 62
     0
 10
84.000000438904408
 20
77.000000173292847
 30
0.0
 40
3.0
 50
0.0
 51
90.0
  0
ARC
  5
1B9
  8
0
 62
     0
 10
94.000000438903953
 20
61.500000173293301
 30
0.0
 40
5.0
 50
0.0
 51
90.0
  0
LINE
  5
1BA
  8
0
 62
     0
 10
0.4000004389049537
 20
80.000000173292406
 30
0.0
 11
84.000000438904408
 21
80.000000173292847
 31
0.0
  0
LINE
  5
1BB
  8
0
 62
     0
 10
99.000000438903953
 20
61.500000173293301
 30
0.0
 11
99.000000438904408
 21
5.0000001732928459
 31
0.0
  0
ARC
  5
1BC
  8
0
 62
     0
 10
0.4000004389049537
 20
79.600000173292756
 30
0.0
 40
0.4
 50
90.0
 51
180.0
  0
ARC
  5
1BD
  8
0
 62
     0
 10
94.000000438904408
 20
5.0000001732928459
 30
0.0
 40
5.0
 50
270.0
 51
0.0
  0
LINE
  5
1BE
  8
0
 62
     0
 10
0.0000004389053174
 20
65.400000173292938
 30
0.0
 11
0.0000004389048627
 21
79.600000173292756
 31
0.0
  0
LINE
  5
1BF
  8
0
 62
     0
 10
94.000000438904408
 20
0.0000001732928467
 30
0.0
 11
91.400000438904499
 21
0.0000001732928467
 31
0.0
  0
ARC
  5
1C0
  8
0
 62
     0
 10
0.4000004389054084
 20
65.400000173292938
 30
0.0
 40
0.4
 50
180.0
 51
270.0
  0
ARC
  5
1C1
  8
0
 62
     0
 10
91.400000438904499
 20
0.400000173292483
 30
0.0
 40
0.4
 50
180.0
 51
270.0
  0
LINE
  5
1C2
  8
0
 62
     0
 10
0.4000004389054084
 20
65.000000173293301
 30
0.0
 11
0.8000004389054993
 21
65.000000173293301
 31
0.0
  0
LINE
  5
1C3
  8
0
 62
     0
 10
91.000000438904877
 20
0.400000173292483
 30
0.0
 11
91.000000438904877
 21
0.6000001732927558
 31
0.0
  0
ARC
  5
1C4
  8
0
 62
     0
 10
0.8000004389050445
 20
65.400000173292938
 30
0.0
 40
0.4
 50
270.0000000000652
 51
0.0
  0
ARC
  5
1C5
  8
0
 62
     0
 10
91.400000438904499
 20
0.6000001732927558
 30
0.0
 40
0.4
 50
90.0
 51
180.0
  0
LINE
  5
1C6
  8
0
 62
     0
 10
1.2000004389051351
 20
65.400000173292938
 30
0.0
 11
1.2000004389051351
 21
66.100000173292756
 31
0.0
  0
LINE
  5
1C7
  8
0
 62
     0
 10
91.400000438904499
 20
1.0000001732928461
 30
0.0
 11
91.600000438904772
 21
1.0000001732928461
 31
0.0
  0
ARC
  5
1C8
  8
0
 62
     0
 10
1.600000438905226
 20
66.100000173292756
 30
0.0
 40
0.4
 50
90.0
 51
180.0
  0
ARC
  5
1C9
  8
0
 62
     0
 10
91.600000438904772
 20
1.4000001732924821
 30
0.0
 40
0.4
 50
270.0
 51
0.0
  0
LINE
  5
1CA
  8
0
 62
     0
 10
1.600000438905226
 20
66.500000173292392
 30
0.0
 11
5.7500004389053174
 21
66.500000173292392
 31
0.0
  0
LINE
  5
1CB
  8
0
 62
     0
 10
92.000000438904863
 20
1.4000001732924821
 30
0.0
 11
92.000000438904394
 21
5.3500001732927549
 31
0.0
  0
ARC
  5
1CC
  8
0
 62
     0
 10
5.7500004389053174
 20
67.000000173292392
 30
0.0
 40
0.5
 50
270.0
 51
0.0000000000521183
  0
ARC
  5
1CD
  8
0
 62
     0
 10
92.400000438904499
 20
5.3500001732927549
 30
0.0
 40
0.4
 50
90.0
 51
180.0
  0
LINE
  5
1CE
  8
0
 62
     0
 10
6.2500004389053174
 20
67.000000173292847
 30
0.0
 11
6.2500004389053174
 21
67.500000173292392
 31
0.0
  0
LINE
  5
1CF
  8
0
 62
     0
 10
93.600000438904317
 20
5.7500001732928459
 30
0.0
 11
92.400000438904499
 21
5.7500001732928459
 31
0.0
  0
ARC
  5
1D0
  8
0
 62
     0
 10
5.7500004389053174
 20
67.500000173292392
 30
0.0
 40
0.5
 50
0.0
 51
90.0
  0
ARC
  5
1D1
  8
0
 62
     0
 10
93.600000438904786
 20
5.3500001732927549
 30
0.0
 40
0.4
 50
0.0
 51
90.000000000065128
  0
LINE
  5
1D2
  8
0
 62
     0
 10
5.7500004389053174
 20
68.000000173292392
 30
0.0
 11
2.0000004389048618
 21
68.000000173292392
 31
0.0
  0
LINE
  5
1D3
  8
0
 62
     0
 10
94.000000438904408
 20
5.1500001732929368
 30
0.0
 11
94.000000438904408
 21
5.3500001732927549
 31
0.0
  0
ARC
  5
1D4
  8
0
 62
     0
 10
2.0000004389048618
 20
68.500000173292392
 30
0.0
 40
0.5
 50
180.0
 51
270.0
  0
ARC
  5
1D5
  8
0
 62
     0
 10
93.600000438904786
 20
5.1500001732929368
 30
0.0
 40
0.4
 50
269.99999999993491
 51
0.0
  0
LINE
  5
1D6
  8
0
 62
     0
 10
1.500000438904862
 20
68.500000173292392
 30
0.0
 11
1.500000438904862
 21
78.000000173292392
 31
0.0
  0
LINE
  5
1D7
  8
0
 62
     0
 10
93.600000438904317
 20
4.7500001732928459
 30
0.0
 11
93.400000438904954
 21
4.7500001732928459
 31
0.0
  0
ARC
  5
1D8
  8
0
 62
     0
 10
2.0000004389048618
 20
78.000000173292392
 30
0.0
 40
0.5
 50
90.0
 51
180.0
  0
ARC
  5
1D9
  8
0
 62
     0
 10
93.400000438904499
 20
4.3500001732927549
 30
0.0
 40
0.4
 50
89.999999999934857
 51
180.0
  0
LINE
  5
1DA
  8
0
 62
     0
 10
2.0000004389048618
 20
78.500000173292392
 30
0.0
 11
21.000000438905321
 21
78.500000173292392
 31
0.0
  0
LINE
  5
1DB
  8
0
 62
     0
 10
93.000000438904863
 20
4.3500001732927549
 30
0.0
 11
93.000000438904863
 21
1.4000001732924821
 31
0.0
  0
LINE
  5
1DC
  8
0
 62
     0
 10
21.000000438905321
 20
78.500000173292392
 30
0.0
 11
21.000000438905321
 21
68.500000173292392
 31
0.0
  0
ARC
  5
1DD
  8
0
 62
     0
 10
93.400000438904954
 20
1.4000001732924821
 30
0.0
 40
0.4
 50
180.0
 51
269.99999999993491
  0
ARC
  5
1DE
  8
0
 62
     0
 10
20.500000438905321
 20
68.500000173292392
 30
0.0
 40
0.5
 50
270.0
 51
0.0
  0
LINE
  5
1DF
  8
0
 62
     0
 10
93.400000438904499
 20
1.0000001732928461
 30
0.0
 11
93.500000438904408
 21
1.0000001732928461
 31
0.0
  0
LINE
  5
1E0
  8
0
 62
     0
 10
20.500000438905321
 20
68.000000173292392
 30
0.0
 11
16.750000438905321
 21
68.000000173292392
 31
0.0
  0
ARC
  5
1E1
  8
0
 62
     0
 10
93.985853209394463
 20
4.9846658064916483
 30
0.0
 40
4.014176518663354
 50
263.04820522998
 51
0.2188734431590689
  0
ARC
  5
1E2
  8
0
 62
     0
 10
16.750000438905321
 20
67.500000173292392
 30
0.0
 40
0.5
 50
90.0
 51
180.0
  0
LINE
  5
1E3
  8
0
 62
     0
 10
98.000000438904422
 20
5.0000001732928459
 30
0.0
 11
98.000000438904422
 21
7.2500001732923911
 31
0.0
  0
LINE
  5
1E4
  8
0
 62
     0
 10
16.250000438905321
 20
67.500000173292392
 30
0.0
 11
16.250000438905321
 21
67.000000173292392
 31
0.0
  0
ARC
  5
1E5
  8
0
 62
     0
 10
96.000000438904408
 20
7.2500001732928459
 30
0.0
 40
2.0
 50
359.99999999998698
 51
89.999999999986969
  0
ARC
  5
1E6
  8
0
 62
     0
 10
16.750000438905321
 20
67.000000173292392
 30
0.0
 40
0.5
 50
180.0
 51
270.0
  0
LINE
  5
1E7
  8
0
 62
     0
 10
94.400000438904485
 20
9.2500001732928467
 30
0.0
 11
96.000000438904877
 21
9.2500001732928467
 31
0.0
  0
LINE
  5
1E8
  8
0
 62
     0
 10
16.750000438905321
 20
66.500000173292392
 30
0.0
 11
20.900000438905408
 21
66.500000173292392
 31
0.0
  0
ARC
  5
1E9
  8
0
 62
     0
 10
94.400000438904485
 20
8.8500001732927558
 30
0.0
 40
0.4
 50
90.0
 51
180.0
  0
ARC
  5
1EA
  8
0
 62
     0
 10
20.900000438905408
 20
66.100000173292301
 30
0.0
 40
0.4
 50
0.0
 51
90.0
  0
LINE
  5
1EB
  8
0
 62
     0
 10
94.000000438904863
 20
8.8500001732927558
 30
0.0
 11
94.000000438904863
 21
8.6500001732924812
 31
0.0
  0
LINE
  5
1EC
  8
0
 62
     0
 10
21.300000438905041
 20
65.400000173293392
 30
0.0
 11
21.300000438905041
 21
66.100000173292301
 31
0.0
  0
ARC
  5
1ED
  8
0
 62
     0
 10
93.600000438904786
 20
8.6500001732924812
 30
0.0
 40
0.4
 50
270.0
 51
0.0
  0
ARC
  5
1EE
  8
0
 62
     0
 10
21.700000438905139
 20
65.400000173293392
 30
0.0
 40
0.4
 50
180.0
 51
270.0
  0
LINE
  5
1EF
  8
0
 62
     0
 10
92.400000438904499
 20
8.2500001732923902
 30
0.0
 11
93.600000438904786
 21
8.2500001732928467
 31
0.0
  0
LINE
  5
1F0
  8
0
 62
     0
 10
21.700000438905139
 20
65.000000173293301
 30
0.0
 11
22.10000043890523
 21
65.000000173293301
 31
0.0
  0
ARC
  5
1F1
  8
0
 62
     0
 10
92.400000438904499
 20
8.6500001732924812
 30
0.0
 40
0.4
 50
180.0
 51
270.0
  0
ARC
  5
1F2
  8
0
 62
     0
 10
22.10000043890523
 20
65.400000173293392
 30
0.0
 40
0.4
 50
270.0
 51
0.0
  0
LINE
  5
1F3
  8
0
 62
     0
 10
92.000000438904394
 20
8.6500001732924812
 30
0.0
 11
92.000000438904863
 21
12.60000017329275
 31
0.0
  0
LINE
  5
1F4
  8
0
 62
     0
 10
22.500000438905321
 20
67.000000173292392
 30
0.0
 11
22.500000438905321
 21
65.400000173293392
 31
0.0
  0
ARC
  5
1F5
  8
0
 62
     0
 10
91.600000438904772
 20
12.60000017329275
 30
0.0
 40
0.4
 50
0.0
 51
90.0
  0
LINE
  5
1F6
  8
0
 62
     0
 10
22.500000438905321
 20
67.000000173292392
 30
0.0
 11
22.500000438905321
 21
78.500000173292392
 31
0.0
  0
LINE
  5
1F7
  8
0
 62
     0
 10
91.600000438904772
 20
13.00000017329284
 30
0.0
 11
91.400000438904499
 21
13.00000017329284
 31
0.0
  0
LINE
  5
1F8
  8
0
 62
     0
 10
22.500000438905321
 20
78.500000173292392
 30
0.0
 11
33.000000438904408
 21
78.500000173292392
 31
0.0
  0
ARC
  5
1F9
  8
0
 62
     0
 10
91.400000438904499
 20
13.400000173292479
 30
0.0
 40
0.4
 50
180.0
 51
270.0
  0
LINE
  5
1FA
  8
0
 62
     0
 10
33.00000043890487
 20
65.400000173293392
 30
0.0
 11
33.000000438904408
 21
78.500000173292392
 31
0.0
  0
LINE
  5
1FB
  8
0
 62
     0
 10
91.000000438904877
 20
13.400000173292479
 30
0.0
 11
91.000000438904877
 21
13.60000017329275
 31
0.0
  0
ARC
  5
1FC
  8
0
 62
     0
 10
33.400000438904499
 20
65.400000173293392
 30
0.0
 40
0.4
 50
180.0
 51
270.0
  0
ARC
  5
1FD
  8
0
 62
     0
 10
91.400000438904499
 20
13.60000017329275
 30
0.0
 40
0.4
 50
90.0
 51
180.0
  0
LINE
  5
1FE
  8
0
 62
     0
 10
33.400000438904499
 20
65.000000173293301
 30
0.0
 11
33.80000043890459
 21
65.000000173293301
 31
0.0
  0
LINE
  5
1FF
  8
0
 62
     0
 10
91.400000438904499
 20
14.00000017329285
 30
0.0
 11
93.600000438904317
 21
14.00000017329285
 31
0.0
  0
ARC
  5
200
  8
0
 62
     0
 10
33.80000043890459
 20
65.400000173293392
 30
0.0
 40
0.4
 50
270.0
 51
0.0
  0
ARC
  5
201
  8
0
 62
     0
 10
93.600000438904317
 20
13.60000017329275
 30
0.0
 40
0.4
 50
0.0
 51
90.0
  0
LINE
  5
202
  8
0
 62
     0
 10
34.200000438904681
 20
65.400000173293392
 30
0.0
 11
34.200000438904681
 21
66.100000173292756
 31
0.0
  0
LINE
  5
203
  8
0
 62
     0
 10
94.000000438904408
 20
13.60000017329275
 30
0.0
 11
94.000000438904408
 21
11.150000173292479
 31
0.0
  0
ARC
  5
204
  8
0
 62
     0
 10
34.600000438904772
 20
66.100000173292756
 30
0.0
 40
0.4
 50
90.0
 51
180.0
  0
ARC
  5
205
  8
0
 62
     0
 10
94.400000438904485
 20
11.150000173292479
 30
0.0
 40
0.4
 50
180.0
 51
270.0
  0
LINE
  5
206
  8
0
 62
     0
 10
34.600000438904772
 20
66.500000173292392
 30
0.0
 11
38.750000438904863
 21
66.500000173292392
 31
0.0
  0
LINE
  5
207
  8
0
 62
     0
 10
94.400000438904485
 20
10.75000017329284
 30
0.0
 11
96.600000438904772
 21
10.75000017329284
 31
0.0
  0
ARC
  5
208
  8
0
 62
     0
 10
38.750000438904863
 20
67.000000173292392
 30
0.0
 40
0.5
 50
270.0
 51
0.0000000000521183
  0
ARC
  5
209
  8
0
 62
     0
 10
96.600000438904772
 20
11.150000173292479
 30
0.0
 40
0.4
 50
270.0
 51
0.0
  0
LINE
  5
20A
  8
0
 62
     0
 10
39.250000438904863
 20
67.000000173292847
 30
0.0
 11
39.250000438904863
 21
67.500000173292392
 31
0.0
  0
LINE
  5
20B
  8
0
 62
     0
 10
97.000000438904863
 20
13.96039236785554
 30
0.0
 11
97.000000438904863
 21
11.150000173292479
 31
0.0
  0
ARC
  5
20C
  8
0
 62
     0
 10
38.750000438904863
 20
67.500000173292392
 30
0.0
 40
0.5
 50
0.0
 51
90.0
  0
ARC
  5
20D
  8
0
 62
     0
 10
97.400000438904499
 20
13.96039236785554
 30
0.0
 40
0.4
 50
168.6900675259798
 51
180.0
  0
LINE
  5
20E
  8
0
 62
     0
 10
38.750000438904863
 20
68.000000173292392
 30
0.0
 11
35.000000438904408
 21
68.000000173292392
 31
0.0
  0
LINE
  5
20F
  8
0
 62
     0
 10
97.007768168628445
 20
14.03883882191076
 30
0.0
 11
97.500000438904877
 21
16.50000017329285
 31
0.0
  0
ARC
  5
210
  8
0
 62
     0
 10
35.000000438904408
 20
68.500000173292392
 30
0.0
 40
0.5
 50
180.0
 51
270.0
  0
LINE
  5
211
  8
0
 62
     0
 10
97.500000438904877
 20
16.50000017329285
 30
0.0
 11
97.500000438904877
 21
38.250000173292392
 31
0.0
  0
LINE
  5
212
  8
0
 62
     0
 10
34.500000438904408
 20
68.500000173292392
 30
0.0
 11
34.500000438903953
 21
78.500000173292847
 31
0.0
  0
LINE
  5
213
  8
0
 62
     0
 10
97.000000438904863
 20
40.750000173292392
 30
0.0
 11
97.500000438904877
 21
38.250000173292392
 31
0.0
  0
LINE
  5
214
  8
0
 62
     0
 10
34.500000438903953
 20
78.500000173292847
 30
0.0
 11
53.500000438904863
 21
78.500000173292847
 31
0.0
  0
LINE
  5
215
  8
0
 62
     0
 10
97.000000438904863
 20
40.750000173292392
 30
0.0
 11
97.000000438904863
 21
45.250000173292392
 31
0.0
  0
ARC
  5
216
  8
0
 62
     0
 10
53.500000438904863
 20
78.000000173292847
 30
0.0
 40
0.5
 50
0.0
 51
90.0
  0
ARC
  5
217
  8
0
 62
     0
 10
96.500000438904863
 20
45.250000173292392
 30
0.0
 40
0.5
 50
0.0
 51
90.0
  0
LINE
  5
218
  8
0
 62
     0
 10
54.000000438904863
 20
78.000000173292847
 30
0.0
 11
54.000000438904863
 21
68.500000173292392
 31
0.0
  0
LINE
  5
219
  8
0
 62
     0
 10
94.500000438904394
 20
45.750000173292392
 30
0.0
 11
96.500000438904863
 21
45.750000173292392
 31
0.0
  0
ARC
  5
21A
  8
0
 62
     0
 10
53.500000438904863
 20
68.500000173292392
 30
0.0
 40
0.5
 50
270.0
 51
0.0
  0
ARC
  5
21B
  8
0
 62
     0
 10
94.500000438904394
 20
45.250000173292392
 30
0.0
 40
0.5
 50
90.0
 51
180.0
  0
LINE
  5
21C
  8
0
 62
     0
 10
53.500000438904863
 20
68.000000173292392
 30
0.0
 11
49.750000438904408
 21
68.000000173292392
 31
0.0
  0
LINE
  5
21D
  8
0
 62
     0
 10
94.000000438904408
 20
45.250000173292392
 30
0.0
 11
94.000000438904863
 21
41.250000173292392
 31
0.0
  0
ARC
  5
21E
  8
0
 62
     0
 10
49.750000438904408
 20
67.500000173292392
 30
0.0
 40
0.5
 50
90.0
 51
180.0
  0
ARC
  5
21F
  8
0
 62
     0
 10
93.500000438904877
 20
41.250000173292392
 30
0.0
 40
0.5
 50
270.0
 51
0.0
  0
LINE
  5
220
  8
0
 62
     0
 10
49.250000438904408
 20
67.500000173292392
 30
0.0
 11
49.250000438904408
 21
67.000000173292392
 31
0.0
  0
LINE
  5
221
  8
0
 62
     0
 10
93.500000438904877
 20
40.750000173292392
 30
0.0
 11
93.000000438904394
 21
40.75000017329284
 31
0.0
  0
ARC
  5
222
  8
0
 62
     0
 10
49.750000438904408
 20
67.000000173292392
 30
0.0
 40
0.5
 50
180.0
 51
270.0
  0
ARC
  5
223
  8
0
 62
     0
 10
93.000000438904394
 20
41.25000017329284
 30
0.0
 40
0.5
 50
180.0
 51
270.0
  0
LINE
  5
224
  8
0
 62
     0
 10
49.750000438904408
 20
66.500000173292392
 30
0.0
 11
53.900000438904947
 21
66.500000173291937
 31
0.0
  0
LINE
  5
225
  8
0
 62
     0
 10
92.500000438904408
 20
41.25000017329284
 30
0.0
 11
92.500000438904408
 21
46.750000173292392
 31
0.0
  0
ARC
  5
226
  8
0
 62
     0
 10
53.900000438904947
 20
66.100000173291846
 30
0.0
 40
0.4
 50
0.0
 51
90.0
  0
ARC
  5
227
  8
0
 62
     0
 10
93.000000438904394
 20
46.750000173292392
 30
0.0
 40
0.5
 50
90.0
 51
180.0
  0
LINE
  5
228
  8
0
 62
     0
 10
54.300000438904583
 20
65.400000173293392
 30
0.0
 11
54.300000438904583
 21
66.100000173291846
 31
0.0
  0
LINE
  5
229
  8
0
 62
     0
 10
93.000000438904394
 20
47.250000173292392
 30
0.0
 11
97.500000438904877
 21
47.250000173292392
 31
0.0
  0
ARC
  5
22A
  8
0
 62
     0
 10
54.700000438904681
 20
65.400000173293392
 30
0.0
 40
0.4
 50
180.0
 51
269.99999999993491
  0
LINE
  5
22B
  8
0
 62
     0
 10
97.500000438904877
 20
47.250000173292392
 30
0.0
 11
97.500000438904408
 21
61.000000173293301
 31
0.0
  0
LINE
  5
22C
  8
0
 62
     0
 10
54.700000438904219
 20
65.000000173293301
 30
0.0
 11
55.100000438904772
 21
65.000000173292847
 31
0.0
  0
ARC
  5
22D
  8
0
 62
     0
 10
93.500000438904408
 20
61.000000173293301
 30
0.0
 40
4.0
 50
0.0
 51
90.0
  0
ARC
  5
22E
  8
0
 62
     0
 10
55.100000438904772
 20
65.400000173292938
 30
0.0
 40
0.4
 50
270.0
 51
0.0
  0
LINE
  5
22F
  8
0
 62
     0
 10
87.500000438904848
 20
65.000000173293301
 30
0.0
 11
93.500000438904408
 21
65.000000173293301
 31
0.0
  0
LINE
  5
230
  8
0
 62
     0
 10
55.500000438904863
 20
67.000000173292392
 30
0.0
 11
55.500000438904863
 21
65.400000173292938
 31
0.0
  0
ARC
  5
231
  8
0
 62
     0
 10
87.500000438904848
 20
67.000000173293301
 30
0.0
 40
2.0
 50
180.0
 51
270.0
  0
LINE
  5
232
  8
0
 62
     0
 10
55.500000438904863
 20
67.000000173292392
 30
0.0
 11
55.500000438904863
 21
78.000000173292392
 31
0.0
  0
LINE
  5
233
  8
0
 62
     0
 10
85.500000438904863
 20
67.000000173293301
 30
0.0
 11
85.500000438904863
 21
76.500000173292847
 31
0.0
  0
ARC
  5
234
  8
0
 62
     0
 10
56.000000438904863
 20
78.000000173292392
 30
0.0
 40
0.5
 50
90.0
 51
180.0
  0
ARC
  5
235
  8
0
 62
     0
 10
83.500000438904877
 20
76.500000173292847
 30
0.0
 40
2.0
 50
0.0
 51
90.0
  0
LINE
  5
236
  8
0
 62
     0
 10
56.000000438904863
 20
78.500000173292392
 30
0.0
 11
60.500000438904408
 21
78.500000173292847
 31
0.0
  0
LINE
  5
237
  8
0
 62
     0
 10
60.500000438904408
 20
78.500000173292847
 30
0.0
 11
83.500000438904877
 21
78.500000173292847
 31
0.0
  0
ENDBLK
  5
239
  8
0
  0
BLOCK
  8
0
  2
*X3
 70
     1
 10
0.0
 20
0.0
 30
0.0
  3
*X3
  1

  0
LINE
  5
23B
  8
0
 62
     0
 10
86.890010143657477
 20
77.804887684956611
 30
0.0
 11
84.804887950568173
 21
79.89000987804593
 31
0.0
  0
LINE
  5
23C
  8
0
 62
     0
 10
87.000000438904863
 20
76.347858971549158
 30
0.0
 11
83.347859237161174
 21
80.000000173292847
 31
0.0
  0
LINE
  5
23D
  8
0
 62
     0
 10
87.000000438904394
 20
75.000820553389076
 30
0.0
 11
85.500000270579676
 21
76.500820721713808
 31
0.0
  0
LINE
  5
23E
  8
0
 62
     0
 10
83.500820987325824
 20
78.500000004967205
 30
0.0
 11
82.000820819000623
 21
80.000000173292847
 31
0.0
  0
LINE
  5
23F
  8
0
 62
     0
 10
98.641393589462965
 20
63.359427402830534
 30
0.0
 11
95.85942766844073
 21
66.141393323852753
 31
0.0
  0
LINE
  5
240
  8
0
 62
     0
 10
87.000000438904394
 20
73.653782135228994
 30
0.0
 11
85.500000438904863
 21
75.153782135228539
 31
0.0
  0
LINE
  5
241
  8
0
 62
     0
 10
82.15378240084101
 20
78.500000173292392
 30
0.0
 11
80.653782400840555
 21
80.000000173292847
 31
0.0
  0
LINE
  5
242
  8
0
 62
     0
 10
98.997559276519041
 20
61.65622329761436
 30
0.0
 11
94.156223563224557
 21
66.497559010908844
 31
0.0
  0
LINE
  5
243
  8
0
 62
     0
 10
87.000000438904394
 20
72.306743717068002
 30
0.0
 11
85.500000438904863
 21
73.806743717067548
 31
0.0
  0
LINE
  5
244
  8
0
 62
     0
 10
94.412129733495021
 20
64.894614422477389
 30
0.0
 11
92.806743982679563
 21
66.500000173292847
 31
0.0
  0
LINE
  5
245
  8
0
 62
     0
 10
80.806743982680004
 20
78.500000173292392
 30
0.0
 11
79.306743982679563
 21
80.000000173292847
 31
0.0
  0
LINE
  5
246
  8
0
 62
     0
 10
99.000000438903513
 20
60.306743717068912
 30
0.0
 11
97.394614688088495
 21
61.912129467883908
 31
0.0
  0
LINE
  5
247
  8
0
 62
     0
 10
87.000000438903953
 20
70.959705298908375
 30
0.0
 11
85.500000438904863
 21
72.459705298907465
 31
0.0
  0
LINE
  5
248
  8
0
 62
     0
 10
92.959705564519027
 20
65.000000173292847
 30
0.0
 11
91.459705564519467
 21
66.500000173292847
 31
0.0
  0
LINE
  5
249
  8
0
 62
     0
 10
79.459705564519481
 20
78.500000173292847
 30
0.0
 11
77.959705564519936
 21
80.000000173292406
 31
0.0
  0
LINE
  5
24A
  8
0
 62
     0
 10
99.000000438903953
 20
58.959705298908382
 30
0.0
 11
97.500000438903953
 21
60.45970529890792
 31
0.0
  0
LINE
  5
24B
  8
0
 62
     0
 10
87.000000438904394
 20
69.612666880747824
 30
0.0
 11
85.500000438904863
 21
71.112666880747383
 31
0.0
  0
LINE
  5
24C
  8
0
 62
     0
 10
91.612667146358945
 20
65.000000173293301
 30
0.0
 11
90.112667146358945
 21
66.500000173292847
 31
0.0
  0
LINE
  5
24D
  8
0
 62
     0
 10
78.112667146359854
 20
78.500000173292392
 30
0.0
 11
76.612667146359399
 21
80.000000173292847
 31
0.0
  0
LINE
  5
24E
  8
0
 62
     0
 10
99.000000438903953
 20
57.6126668807483
 30
0.0
 11
97.500000438904408
 21
59.112666880747838
 31
0.0
  0
LINE
  5
24F
  8
0
 62
     0
 10
87.015695350343321
 20
68.249933551148374
 30
0.0
 11
85.500000438905317
 21
69.765628462586392
 31
0.0
  0
LINE
  5
250
  8
0
 62
     0
 10
90.265628728198408
 20
65.000000173292847
 30
0.0
 11
88.749933816759494
 21
66.515695084732215
 31
0.0
  0
LINE
  5
251
  8
0
 62
     0
 10
76.765628728199317
 20
78.500000173292392
 30
0.0
 11
75.265628728198863
 21
80.000000173292847
 31
0.0
  0
LINE
  5
252
  8
0
 62
     0
 10
99.000000438903953
 20
56.265628462587749
 30
0.0
 11
97.500000438904408
 21
57.765628462586839
 31
0.0
  0
LINE
  5
253
  8
0
 62
     0
 10
88.918590310037885
 20
65.000000173293301
 30
0.0
 11
85.500000438904394
 21
68.418590044426765
 31
0.0
  0
LINE
  5
254
  8
0
 62
     0
 10
75.41859031003878
 20
78.500000173292392
 30
0.0
 11
73.91859031003878
 21
80.000000173292406
 31
0.0
  0
LINE
  5
255
  8
0
 62
     0
 10
99.000000438903513
 20
54.918590044427667
 30
0.0
 11
97.500000438904408
 21
56.418590044426757
 31
0.0
  0
LINE
  5
256
  8
0
 62
     0
 10
87.571551891877334
 20
65.000000173293301
 30
0.0
 11
85.500000438904863
 21
67.071551626266228
 31
0.0
  0
LINE
  5
257
  8
0
 62
     0
 10
74.071551891878698
 20
78.500000173292392
 30
0.0
 11
72.571551891878244
 21
80.000000173292847
 31
0.0
  0
LINE
  5
258
  8
0
 62
     0
 10
99.000000438903953
 20
53.571551626267137
 30
0.0
 11
97.500000438904408
 21
55.071551626266682
 31
0.0
  0
LINE
  5
259
  8
0
 62
     0
 10
72.724513473718162
 20
78.500000173292392
 30
0.0
 11
71.224513473718162
 21
80.000000173292406
 31
0.0
  0
LINE
  5
25A
  8
0
 62
     0
 10
99.000000438903953
 20
52.2245132081066
 30
0.0
 11
97.500000438904877
 21
53.724513208105691
 31
0.0
  0
LINE
  5
25B
  8
0
 62
     0
 10
71.377475055557625
 20
78.500000173292392
 30
0.0
 11
69.877475055557625
 21
80.000000173292406
 31
0.0
  0
LINE
  5
25C
  8
0
 62
     0
 10
99.000000438903513
 20
50.877474789946518
 30
0.0
 11
97.500000438904408
 21
52.377474789945609
 31
0.0
  0
LINE
  5
25D
  8
0
 62
     0
 10
70.030436637397088
 20
78.500000173292392
 30
0.0
 11
68.530436637397074
 21
80.000000173292847
 31
0.0
  0
LINE
  5
25E
  8
0
 62
     0
 10
99.000000438903953
 20
49.530436371785981
 30
0.0
 11
97.500000438904408
 21
51.030436371785527
 31
0.0
  0
LINE
  5
25F
  8
0
 62
     0
 10
68.683398219237006
 20
78.500000173292392
 30
0.0
 11
67.183398219237006
 21
80.000000173291937
 31
0.0
  0
LINE
  5
260
  8
0
 62
     0
 10
99.000000438903953
 20
48.183397953625438
 30
0.0
 11
97.500000438904877
 21
49.683397953624528
 31
0.0
  0
LINE
  5
261
  8
0
 62
     0
 10
67.336359801076924
 20
78.500000173292392
 30
0.0
 11
65.836359801076924
 21
80.000000173292406
 31
0.0
  0
LINE
  5
262
  8
0
 62
     0
 10
99.000000438903953
 20
46.836359535465363
 30
0.0
 11
97.500000438904877
 21
48.336359535463998
 31
0.0
  0
LINE
  5
263
  8
0
 62
     0
 10
65.989321382915932
 20
78.500000173292392
 30
0.0
 11
64.489321382915932
 21
80.000000173292847
 31
0.0
  0
LINE
  5
264
  8
0
 62
     0
 10
99.000000438903953
 20
45.489321117304819
 30
0.0
 11
97.239321382916387
 21
47.250000173292392
 31
0.0
  0
LINE
  5
265
  8
0
 62
     0
 10
64.64228296475585
 20
78.500000173292847
 30
0.0
 11
63.14228296475585
 21
80.000000173292406
 31
0.0
  0
LINE
  5
266
  8
0
 62
     0
 10
99.000000438904408
 20
44.142282699144289
 30
0.0
 11
95.892282964756305
 21
47.250000173292392
 31
0.0
  0
LINE
  5
267
  8
0
 62
     0
 10
96.045244546595768
 20
45.750000173291937
 30
0.0
 11
94.545244546595313
 21
47.25000017329193
 31
0.0
  0
LINE
  5
268
  8
0
 62
     0
 10
63.295244546595313
 20
78.500000173292392
 30
0.0
 11
61.79524454659532
 21
80.000000173292406
 31
0.0
  0
LINE
  5
269
  8
0
 62
     0
 10
99.000000438903513
 20
42.795244280984207
 30
0.0
 11
97.000000438904394
 21
44.79524428098329
 31
0.0
  0
LINE
  5
26A
  8
0
 62
     0
 10
94.698206128435231
 20
45.750000173292392
 30
0.0
 11
93.198206128435231
 21
47.250000173292392
 31
0.0
  0
LINE
  5
26B
  8
0
 62
     0
 10
61.948206128434776
 20
78.500000173292847
 30
0.0
 11
60.448206128434769
 21
80.000000173292847
 31
0.0
  0
LINE
  5
26C
  8
0
 62
     0
 10
99.000000438903953
 20
41.448205862823663
 30
0.0
 11
97.000000438904394
 21
43.448205862822761
 31
0.0
  0
LINE
  5
26D
  8
0
 62
     0
 10
94.000000438904408
 20
45.101167444662678
 30
0.0
 11
92.500000438904408
 21
46.601167444662671
 31
0.0
  0
LINE
  5
26E
  8
0
 62
     0
 10
60.601167710274702
 20
78.500000173292392
 30
0.0
 11
59.101167710274687
 21
80.000000173292406
 31
0.0
  0
LINE
  5
26F
  8
0
 62
     0
 10
99.000000438904408
 20
40.101167444662678
 30
0.0
 11
97.000000438904863
 21
42.101167444662217
 31
0.0
  0
LINE
  5
270
  8
0
 62
     0
 10
94.000000438904408
 20
43.754129026502603
 30
0.0
 11
92.500000438904408
 21
45.254129026502589
 31
0.0
  0
LINE
  5
271
  8
0
 62
     0
 10
59.254129292114612
 20
78.500000173292392
 30
0.0
 11
57.754129292114612
 21
80.000000173292406
 31
0.0
  0
LINE
  5
272
  8
0
 62
     0
 10
99.000000438903953
 20
38.754129026503051
 30
0.0
 11
97.000000438904863
 21
40.75412902650168
 31
0.0
  0
LINE
  5
273
  8
0
 62
     0
 10
94.000000438904408
 20
42.407090608342052
 30
0.0
 11
92.500000438904408
 21
43.90709060834206
 31
0.0
  0
LINE
  5
274
  8
0
 62
     0
 10
57.907090873953621
 20
78.500000173292847
 30
0.0
 11
56.407090873953621
 21
80.000000173292406
 31
0.0
  0
LINE
  5
275
  8
0
 62
     0
 10
99.000000438903953
 20
37.407090608342521
 30
0.0
 11
97.335727830142332
 21
39.071363217104143
 31
0.0
  0
LINE
  5
276
  8
0
 62
     0
 10
93.972779396518476
 20
41.087273232567888
 30
0.0
 11
92.500000438904408
 21
42.560052190181523
 31
0.0
  0
LINE
  5
277
  8
0
 62
     0
 10
56.560052455793993
 20
78.500000173292392
 30
0.0
 11
55.060052455793539
 21
80.000000173292847
 31
0.0
  0
LINE
  5
278
  8
0
 62
     0
 10
99.000000438904408
 20
36.060052190181977
 30
0.0
 11
97.500000438904877
 21
37.560052190181523
 31
0.0
  0
LINE
  5
279
  8
0
 62
     0
 10
92.961532022177835
 20
40.751482188747559
 30
0.0
 11
92.50148245435912
 21
41.211531756566274
 31
0.0
  0
LINE
  5
27A
  8
0
 62
     0
 10
55.533382337694547
 20
78.179631873230846
 30
0.0
 11
53.71301403763254
 21
80.000000173292406
 31
0.0
  0
LINE
  5
27B
  8
0
 62
     0
 10
99.000000438903513
 20
34.713013772021441
 30
0.0
 11
97.500000438904877
 21
36.213013772020531
 31
0.0
  0
LINE
  5
27C
  8
0
 62
     0
 10
55.500000438904863
 20
76.865975353860449
 30
0.0
 11
52.365975619472458
 21
80.000000173292847
 31
0.0
  0
LINE
  5
27D
  8
0
 62
     0
 10
99.000000438903953
 20
33.365975353861359
 30
0.0
 11
97.500000438904877
 21
34.865975353860449
 31
0.0
  0
LINE
  5
27E
  8
0
 62
     0
 10
55.500000438904863
 20
75.518936935699912
 30
0.0
 11
54.000000438905317
 21
77.018936935699458
 31
0.0
  0
LINE
  5
27F
  8
0
 62
     0
 10
52.51893720131239
 20
78.500000173292392
 30
0.0
 11
51.018937201312383
 21
80.000000173292406
 31
0.0
  0
LINE
  5
280
  8
0
 62
     0
 10
99.000000438904408
 20
32.018936935700367
 30
0.0
 11
97.500000438904877
 21
33.518936935699912
 31
0.0
  0
LINE
  5
281
  8
0
 62
     0
 10
55.500000438904863
 20
74.17189851753983
 30
0.0
 11
54.000000438904863
 21
75.67189851753983
 31
0.0
  0
LINE
  5
282
  8
0
 62
     0
 10
51.171898783152301
 20
78.500000173292392
 30
0.0
 11
49.671898783151853
 21
80.000000173292847
 31
0.0
  0
LINE
  5
283
  8
0
 62
     0
 10
99.000000438903953
 20
30.671898517540289
 30
0.0
 11
97.500000438905317
 21
32.171898517539383
 31
0.0
  0
LINE
  5
284
  8
0
 62
     0
 10
55.500000438904863
 20
72.824860099379293
 30
0.0
 11
54.000000438904863
 21
74.324860099379293
 31
0.0
  0
LINE
  5
285
  8
0
 62
     0
 10
49.824860364991309
 20
78.500000173292847
 30
0.0
 11
48.324860364991757
 21
80.000000173292406
 31
0.0
  0
LINE
  5
286
  8
0
 62
     0
 10
99.000000438903953
 20
29.324860099380199
 30
0.0
 11
97.500000438904408
 21
30.824860099379752
 31
0.0
  0
LINE
  5
287
  8
0
 62
     0
 10
55.500000438904863
 20
71.477821681219211
 30
0.0
 11
54.000000438904401
 21
72.977821681219666
 31
0.0
  0
LINE
  5
288
  8
0
 62
     0
 10
48.477821946831682
 20
78.500000173292392
 30
0.0
 11
46.977821946831227
 21
80.000000173292847
 31
0.0
  0
LINE
  5
289
  8
0
 62
     0
 10
99.000000438904408
 20
27.97782168121967
 30
0.0
 11
97.500000438904877
 21
29.477821681219211
 31
0.0
  0
LINE
  5
28A
  8
0
 62
     0
 10
55.500000438904408
 20
70.130783263058674
 30
0.0
 11
54.000000438904401
 21
71.630783263058674
 31
0.0
  0
LINE
  5
28B
  8
0
 62
     0
 10
47.13078352867069
 20
78.500000173292392
 30
0.0
 11
45.630783528670229
 21
80.000000173292847
 31
0.0
  0
LINE
  5
28C
  8
0
 62
     0
 10
99.000000438903953
 20
26.630783263059129
 30
0.0
 11
97.500000438904877
 21
28.13078326305822
 31
0.0
  0
LINE
  5
28D
  8
0
 62
     0
 10
55.500000438904408
 20
68.783744844898592
 30
0.0
 11
54.000000438904863
 21
70.283744844898123
 31
0.0
  0
LINE
  5
28E
  8
0
 62
     0
 10
45.783745110510147
 20
78.500000173292847
 30
0.0
 11
44.283745110510601
 21
80.000000173292406
 31
0.0
  0
LINE
  5
28F
  8
0
 62
     0
 10
99.000000438903953
 20
25.283744844899051
 30
0.0
 11
97.500000438904408
 21
26.7837448448986
 31
0.0
  0
LINE
  5
290
  8
0
 62
     0
 10
55.500000438904863
 20
67.436706426738056
 30
0.0
 11
54.000000438904401
 21
68.936706426738056
 31
0.0
  0
LINE
  5
291
  8
0
 62
     0
 10
44.436706692350533
 20
78.500000173292392
 30
0.0
 11
42.936706692350519
 21
80.000000173292406
 31
0.0
  0
LINE
  5
292
  8
0
 62
     0
 10
99.000000438904408
 20
23.93670642673851
 30
0.0
 11
97.500000438904877
 21
25.436706426738059
 31
0.0
  0
LINE
  5
293
  8
0
 62
     0
 10
55.500000438904863
 20
66.089668008577519
 30
0.0
 11
53.58276990254717
 21
68.006898544935211
 31
0.0
  0
LINE
  5
294
  8
0
 62
     0
 10
43.089668274189982
 20
78.500000173292392
 30
0.0
 11
41.589668274190437
 21
80.000000173291937
 31
0.0
  0
LINE
  5
295
  8
0
 62
     0
 10
99.000000438904408
 20
22.58966800857797
 30
0.0
 11
97.500000438904877
 21
24.089668008577519
 31
0.0
  0
LINE
  5
296
  8
0
 62
     0
 10
53.742629856030362
 20
66.500000173291482
 30
0.0
 11
52.242629856029453
 21
68.000000173292392
 31
0.0
  0
LINE
  5
297
  8
0
 62
     0
 10
55.22318832144083
 20
65.019441707881015
 30
0.0
 11
54.300000438904583
 21
65.942629590417255
 31
0.0
  0
LINE
  5
298
  8
0
 62
     0
 10
41.742629856029453
 20
78.500000173292392
 30
0.0
 11
40.242629856029453
 21
80.000000173292406
 31
0.0
  0
LINE
  5
299
  8
0
 62
     0
 10
99.000000438903953
 20
21.24262959041744
 30
0.0
 11
97.500000438904408
 21
22.74262959041744
 31
0.0
  0
LINE
  5
29A
  8
0
 62
     0
 10
52.395591437869832
 20
66.500000173291937
 30
0.0
 11
50.895591437868923
 21
68.000000173292847
 31
0.0
  0
LINE
  5
29B
  8
0
 62
     0
 10
40.395591437869371
 20
78.500000173292392
 30
0.0
 11
38.895591437869371
 21
80.000000173291937
 31
0.0
  0
LINE
  5
29C
  8
0
 62
     0
 10
99.000000438904408
 20
19.895591172257351
 30
0.0
 11
97.500000438904877
 21
21.3955911722569
 31
0.0
  0
LINE
  5
29D
  8
0
 62
     0
 10
51.048553019709281
 20
66.500000173291937
 30
0.0
 11
49.578782440552907
 21
67.969770752448312
 31
0.0
  0
LINE
  5
29E
  8
0
 62
     0
 10
39.048553019708827
 20
78.500000173292392
 30
0.0
 11
37.548553019709288
 21
80.000000173291937
 31
0.0
  0
LINE
  5
29F
  8
0
 62
     0
 10
99.000000438904408
 20
18.54855275409636
 30
0.0
 11
97.500000438904877
 21
20.04855275409636
 31
0.0
  0
LINE
  5
2A0
  8
0
 62
     0
 10
49.698896090525068
 20
66.502618684315621
 30
0.0
 11
49.252618949927182
 21
66.948895824913507
 31
0.0
  0
LINE
  5
2A1
  8
0
 62
     0
 10
37.701514601548297
 20
78.500000173292392
 30
0.0
 11
36.201514601548297
 21
80.000000173291937
 31
0.0
  0
LINE
  5
2A2
  8
0
 62
     0
 10
99.000000438903953
 20
17.201514335936281
 30
0.0
 11
97.500000438904408
 21
18.701514335936281
 31
0.0
  0
LINE
  5
2A3
  8
0
 62
     0
 10
36.35447618338776
 20
78.500000173292392
 30
0.0
 11
34.854476183388222
 21
80.000000173292406
 31
0.0
  0
LINE
  5
2A4
  8
0
 62
     0
 10
99.000000438904408
 20
15.854475917776201
 30
0.0
 11
97.500000438904408
 21
17.354475917775741
 31
0.0
  0
LINE
  5
2A5
  8
0
 62
     0
 10
35.007437765227678
 20
78.500000173292392
 30
0.0
 11
33.507437765227678
 21
80.000000173291937
 31
0.0
  0
LINE
  5
2A6
  8
0
 62
     0
 10
99.000000438904408
 20
14.50743749961566
 30
0.0
 11
97.417906659958589
 21
16.089531278561481
 31
0.0
  0
LINE
  5
2A7
  8
0
 62
     0
 10
34.500000438903953
 20
77.660399081456035
 30
0.0
 11
32.160399347067603
 21
80.000000173292406
 31
0.0
  0
LINE
  5
2A8
  8
0
 62
     0
 10
99.000000438904863
 20
13.16039908145512
 30
0.0
 11
97.193400256931923
 21
14.966999263428081
 31
0.0
  0
LINE
  5
2A9
  8
0
 62
     0
 10
34.500000438903953
 20
76.313360663295484
 30
0.0
 11
33.000000438904408
 21
77.813360663295043
 31
0.0
  0
LINE
  5
2AA
  8
0
 62
     0
 10
32.313360928906611
 20
78.500000173292392
 30
0.0
 11
30.813360928907059
 21
80.000000173292406
 31
0.0
  0
LINE
  5
2AB
  8
0
 62
     0
 10
99.000000438904408
 20
11.81336066329504
 30
0.0
 11
97.000000438904863
 21
13.81336066329459
 31
0.0
  0
LINE
  5
2AC
  8
0
 62
     0
 10
34.500000438904408
 20
74.966322245134961
 30
0.0
 11
33.000000438904408
 21
76.466322245134961
 31
0.0
  0
LINE
  5
2AD
  8
0
 62
     0
 10
30.966322510746981
 20
78.500000173292392
 30
0.0
 11
29.466322510746519
 21
80.000000173292406
 31
0.0
  0
LINE
  5
2AE
  8
0
 62
     0
 10
99.000000438904408
 20
10.466322245134959
 30
0.0
 11
97.000000438904863
 21
12.466322245134499
 31
0.0
  0
LINE
  5
2AF
  8
0
 62
     0
 10
34.500000438903498
 20
73.619283826974879
 30
0.0
 11
33.00000043890396
 21
75.119283826974424
 31
0.0
  0
LINE
  5
2B0
  8
0
 62
     0
 10
29.619284092585989
 20
78.500000173292392
 30
0.0
 11
28.119284092585978
 21
80.000000173292406
 31
0.0
  0
LINE
  5
2B1
  8
0
 62
     0
 10
99.000000438904408
 20
9.1192838269739696
 30
0.0
 11
96.998902378180901
 21
11.120381887697469
 31
0.0
  0
LINE
  5
2B2
  8
0
 62
     0
 10
39.24948198453194
 20
67.522763863186356
 30
0.0
 11
38.772764128798372
 21
67.999481718919924
 31
0.0
  0
LINE
  5
2B3
  8
0
 62
     0
 10
34.500000438903953
 20
72.272245408814342
 30
0.0
 11
33.000000438904408
 21
73.772245408813887
 31
0.0
  0
LINE
  5
2B4
  8
0
 62
     0
 10
94.000000438904408
 20
12.772245408813889
 30
0.0
 11
92.772245674425434
 21
14.00000017329285
 31
0.0
  0
LINE
  5
2B5
  8
0
 62
     0
 10
28.272245674425449
 20
78.500000173292847
 30
0.0
 11
26.7722456744259
 21
80.000000173292406
 31
0.0
  0
LINE
  5
2B6
  8
0
 62
     0
 10
99.000000438904408
 20
7.7722454088138866
 30
0.0
 11
96.022245674425449
 21
10.75000017329284
 31
0.0
  0
LINE
  5
2B7
  8
0
 62
     0
 10
38.901653759426608
 20
66.52355367013115
 30
0.0
 11
37.425207256265821
 21
68.000000173291923
 31
0.0
  0
LINE
  5
2B8
  8
0
 62
     0
 10
94.000000438904408
 20
11.425206990653351
 30
0.0
 11
91.425207256265367
 21
14.00000017329239
 31
0.0
  0
LINE
  5
2B9
  8
0
 62
     0
 10
34.500000438904408
 20
70.925206990653351
 30
0.0
 11
33.00000043890487
 21
72.425206990652896
 31
0.0
  0
LINE
  5
2BA
  8
0
 62
     0
 10
96.183657596181092
 20
9.2415498333766664
 30
0.0
 11
94.675207256265836
 21
10.750000173291941
 31
0.0
  0
LINE
  5
2BB
  8
0
 62
     0
 10
26.925207256265821
 20
78.500000173291923
 30
0.0
 11
25.42520725626537
 21
80.000000173292406
 31
0.0
  0
LINE
  5
2BC
  8
0
 62
     0
 10
99.000000438904408
 20
6.4252069906533498
 30
0.0
 11
97.991550098988228
 21
7.433657330569531
 31
0.0
  0
LINE
  5
2BD
  8
0
 62
     0
 10
37.578168838105292
 20
66.500000173292392
 30
0.0
 11
36.078168838105277
 21
68.000000173291923
 31
0.0
  0
LINE
  5
2BE
  8
0
 62
     0
 10
34.500000438904863
 20
69.578168572492814
 30
0.0
 11
33.000000438905317
 21
71.078168572492359
 31
0.0
  0
LINE
  5
2BF
  8
0
 62
     0
 10
94.828168838104844
 20
9.2500001732928467
 30
0.0
 11
92.000000438904863
 21
12.07816857249281
 31
0.0
  0
LINE
  5
2C0
  8
0
 62
     0
 10
25.578168838105292
 20
78.500000173292392
 30
0.0
 11
24.078168838105739
 21
80.000000173291937
 31
0.0
  0
LINE
  5
2C1
  8
0
 62
     0
 10
99.000000438904863
 20
5.0781685724928129
 30
0.0
 11
98.000000438904422
 21
6.0781685724932677
 31
0.0
  0
LINE
  5
2C2
  8
0
 62
     0
 10
36.231130419944748
 20
66.500000173292392
 30
0.0
 11
33.000000438904408
 21
69.731130154332732
 31
0.0
  0
LINE
  5
2C3
  8
0
 62
     0
 10
94.000000438904863
 20
8.731130154332277
 30
0.0
 11
92.000000438904394
 21
10.73113015433273
 31
0.0
  0
LINE
  5
2C4
  8
0
 62
     0
 10
24.231130419944751
 20
78.500000173292392
 30
0.0
 11
22.731130419944751
 21
80.000000173292406
 31
0.0
  0
LINE
  5
2C5
  8
0
 62
     0
 10
98.868841518321915
 20
3.8622890749152239
 30
0.0
 11
97.99248369165889
 21
4.7386469015782486
 31
0.0
  0
LINE
  5
2C6
  8
0
 62
     0
 10
34.884092001784673
 20
66.500000173292392
 30
0.0
 11
33.00000043890487
 21
68.384091736172195
 31
0.0
  0
LINE
  5
2C7
  8
0
 62
     0
 10
93.134092001784211
 20
8.2500001732928467
 30
0.0
 11
92.000000438904394
 21
9.3840917361726497
 31
0.0
  0
LINE
  5
2C8
  8
0
 62
     0
 10
22.884092001784669
 20
78.500000173292392
 30
0.0
 11
21.384092001784659
 21
80.000000173292406
 31
0.0
  0
LINE
  5
2C9
  8
0
 62
     0
 10
98.520563436005446
 20
2.8635287390716249
 30
0.0
 11
97.761778304679865
 21
3.622313870396737
 31
0.0
  0
LINE
  5
2CA
  8
0
 62
     0
 10
34.200000438904681
 20
65.837053318011385
 30
0.0
 11
33.00000043890487
 21
67.037053318011203
 31
0.0
  0
LINE
  5
2CB
  8
0
 62
     0
 10
22.500000438904859
 20
77.537053318011203
 30
0.0
 11
20.037053583624129
 21
80.000000173291937
 31
0.0
  0
LINE
  5
2CC
  8
0
 62
     0
 10
98.015830285753495
 20
2.0212234711625561
 30
0.0
 11
97.30702884114045
 21
2.7300249157756289
 31
0.0
  0
LINE
  5
2CD
  8
0
 62
     0
 10
33.690015165462682
 20
65.000000173293301
 30
0.0
 11
33.00000043890487
 21
65.690014899851121
 31
0.0
  0
LINE
  5
2CE
  8
0
 62
     0
 10
22.500000438905321
 20
76.190014899850667
 30
0.0
 11
21.000000438904859
 21
77.690014899851121
 31
0.0
  0
LINE
  5
2CF
  8
0
 62
     0
 10
93.851255809719063
 20
4.8387595290369063
 30
0.0
 11
92.940015165463137
 21
5.7500001732928459
 31
0.0
  0
LINE
  5
2D0
  8
0
 62
     0
 10
20.19001516546405
 20
78.500000173291923
 30
0.0
 11
18.690015165463588
 21
80.000000173292406
 31
0.0
  0
LINE
  5
2D1
  8
0
 62
     0
 10
97.377142749005543
 20
1.3128725897504401
 30
0.0
 11
96.680585671187146
 21
2.0094296675688379
 31
0.0
  0
LINE
  5
2D2
  8
0
 62
     0
 10
22.500000438905769
 20
74.842976481689675
 30
0.0
 11
21.000000438905321
 21
76.34297648169013
 31
0.0
  0
LINE
  5
2D3
  8
0
 62
     0
 10
93.000000438904863
 20
4.3429764816905836
 30
0.0
 11
92.000000438904394
 21
5.3429764816910392
 31
0.0
  0
LINE
  5
2D4
  8
0
 62
     0
 10
18.84297674730351
 20
78.500000173291923
 30
0.0
 11
17.34297674730351
 21
80.000000173291937
 31
0.0
  0
LINE
  5
2D5
  8
0
 62
     0
 10
96.608575749602551
 20
0.7344011709928964
 30
0.0
 11
95.891380461589065
 21
1.451596459006395
 31
0.0
  0
LINE
  5
2D6
  8
0
 62
     0
 10
22.500000438905321
 20
73.495938063530048
 30
0.0
 11
21.000000438905321
 21
74.995938063530033
 31
0.0
  0
LINE
  5
2D7
  8
0
 62
     0
 10
93.000000438904863
 20
2.9959380635300472
 30
0.0
 11
92.000000438904394
 21
3.995938063530502
 31
0.0
  0
LINE
  5
2D8
  8
0
 62
     0
 10
17.495938329143421
 20
78.500000173291923
 30
0.0
 11
15.99593832914343
 21
80.000000173291937
 31
0.0
  0
LINE
  5
2D9
  8
0
 62
     0
 10
95.698579124396915
 20
0.2973593780384362
 30
0.0
 11
94.916159745715049
 21
1.079778756720315
 31
0.0
  0
LINE
  5
2DA
  8
0
 62
     0
 10
22.500000438905321
 20
72.148899645369511
 30
0.0
 11
21.000000438904859
 21
73.648899645369511
 31
0.0
  0
LINE
  5
2DB
  8
0
 62
     0
 10
93.000000438904863
 20
1.6488996453699649
 30
0.0
 11
92.000000438904394
 21
2.6488996453704199
 31
0.0
  0
LINE
  5
2DC
  8
0
 62
     0
 10
16.148899910982891
 20
78.500000173291923
 30
0.0
 11
14.648899910982429
 21
80.000000173292406
 31
0.0
  0
LINE
  5
2DD
  8
0
 62
     0
 10
94.611380573962379
 20
0.037519510311995
 30
0.0
 11
93.665616755990413
 21
0.9832833282844148
 31
0.0
  0
LINE
  5
2DE
  8
0
 62
     0
 10
22.500000438904859
 20
70.801861227209429
 30
0.0
 11
21.000000438905321
 21
72.301861227209429
 31
0.0
  0
LINE
  5
2DF
  8
0
 62
     0
 10
14.801861492822351
 20
78.500000173292392
 30
0.0
 11
13.301861492822351
 21
80.000000173292406
 31
0.0
  0
LINE
  5
2E0
  8
0
 62
     0
 10
93.301861492821885
 20
0.0000001732928467
 30
0.0
 11
91.990137939073065
 21
1.3117237270416799
 31
0.0
  0
LINE
  5
2E1
  8
0
 62
     0
 10
22.500000438904859
 20
69.454822809048892
 30
0.0
 11
21.000000438904859
 21
70.954822809048892
 31
0.0
  0
LINE
  5
2E2
  8
0
 62
     0
 10
13.454823074661819
 20
78.500000173291923
 30
0.0
 11
11.954823074661819
 21
80.000000173291937
 31
0.0
  0
LINE
  5
2E3
  8
0
 62
     0
 10
91.954823074660908
 20
0.0000001732928467
 30
0.0
 11
91.095472487719235
 21
0.8593507602345198
 31
0.0
  0
LINE
  5
2E4
  8
0
 62
     0
 10
12.107784656501281
 20
78.500000173291923
 30
0.0
 11
10.607784656501281
 21
80.000000173292406
 31
0.0
  0
LINE
  5
2E5
  8
0
 62
     0
 10
22.500000438905321
 20
68.107784390888355
 30
0.0
 11
21.000000438904859
 21
69.607784390888355
 31
0.0
  0
LINE
  5
2E6
  8
0
 62
     0
 10
10.7607462383412
 20
78.500000173292392
 30
0.0
 11
9.2607462383411985
 21
80.000000173292406
 31
0.0
  0
LINE
  5
2E7
  8
0
 62
     0
 10
22.500000438904859
 20
66.760745972728273
 30
0.0
 11
20.959011295985871
 21
68.301735115647716
 31
0.0
  0
LINE
  5
2E8
  8
0
 62
     0
 10
9.4137078201806617
 20
78.500000173291923
 30
0.0
 11
7.9137078201811164
 21
80.000000173291937
 31
0.0
  0
LINE
  5
2E9
  8
0
 62
     0
 10
22.500000438905321
 20
65.413707554567736
 30
0.0
 11
19.913707820181109
 21
68.000000173291923
 31
0.0
  0
LINE
  5
2EA
  8
0
 62
     0
 10
20.06666940202058
 20
66.500000173291937
 30
0.0
 11
18.566669402020121
 21
68.000000173292392
 31
0.0
  0
LINE
  5
2EB
  8
0
 62
     0
 10
8.0666694020201248
 20
78.500000173292392
 30
0.0
 11
6.5666694020205787
 21
80.000000173291937
 31
0.0
  0
LINE
  5
2EC
  8
0
 62
     0
 10
21.527619072224748
 20
65.039050503087765
 30
0.0
 11
21.339050768699511
 21
65.227618806613009
 31
0.0
  0
LINE
  5
2ED
  8
0
 62
     0
 10
6.7196309838600419
 20
78.500000173292392
 30
0.0
 11
5.2196309838600419
 21
80.000000173291937
 31
0.0
  0
LINE
  5
2EE
  8
0
 62
     0
 10
18.719630983860039
 20
66.500000173292392
 30
0.0
 11
17.219630983859592
 21
68.000000173292847
 31
0.0
  0
LINE
  5
2EF
  8
0
 62
     0
 10
5.3725925656999598
 20
78.500000173292392
 30
0.0
 11
3.8725925656999598
 21
80.000000173292406
 31
0.0
  0
LINE
  5
2F0
  8
0
 62
     0
 10
17.372592565699961
 20
66.500000173292392
 30
0.0
 11
16.26231351899014
 21
67.610279220002212
 31
0.0
  0
LINE
  5
2F1
  8
0
 62
     0
 10
4.0255541475389691
 20
78.500000173292392
 30
0.0
 11
2.5255541475389691
 21
80.000000173291937
 31
0.0
  0
LINE
  5
2F2
  8
0
 62
     0
 10
2.678515729378887
 20
78.500000173292392
 30
0.0
 11
1.178515729378887
 21
80.000000173292406
 31
0.0
  0
LINE
  5
2F3
  8
0
 62
     0
 10
1.572373197017896
 20
78.259104287492846
 30
0.0
 11
0.0457388956933755
 21
79.785738588817367
 31
0.0
  0
LINE
  5
2F4
  8
0
 62
     0
 10
1.500000438904862
 20
76.984438627445783
 30
0.0
 11
0.0000004389053174
 21
78.484438627445343
 31
0.0
  0
LINE
  5
2F5
  8
0
 62
     0
 10
1.500000438904862
 20
75.637400209285261
 30
0.0
 11
0.0000004389044079
 21
77.137400209285261
 31
0.0
  0
LINE
  5
2F6
  8
0
 62
     0
 10
1.500000438904862
 20
74.290361791125179
 30
0.0
 11
0.0000004389053174
 21
75.790361791124724
 31
0.0
  0
LINE
  5
2F7
  8
0
 62
     0
 10
1.500000438904407
 20
72.943323372964642
 30
0.0
 11
0.0000004389048627
 21
74.443323372964187
 31
0.0
  0
LINE
  5
2F8
  8
0
 62
     0
 10
1.500000438904407
 20
71.59628495480456
 30
0.0
 11
0.0000004389048627
 21
73.096284954804105
 31
0.0
  0
LINE
  5
2F9
  8
0
 62
     0
 10
6.2313987501611328
 20
66.864886643547834
 30
0.0
 11
5.0962852204165747
 21
68.000000173292392
 31
0.0
  0
LINE
  5
2FA
  8
0
 62
     0
 10
1.500000438904862
 20
70.249246536643554
 30
0.0
 11
0.0000004389053174
 21
71.749246536643113
 31
0.0
  0
LINE
  5
2FB
  8
0
 62
     0
 10
5.2492468022564926
 20
66.500000173291937
 30
0.0
 11
3.7492468022564931
 21
68.000000173291923
 31
0.0
  0
LINE
  5
2FC
  8
0
 62
     0
 10
1.500000438904862
 20
68.902208118483486
 30
0.0
 11
0.0000004389053174
 21
70.402208118483031
 31
0.0
  0
LINE
  5
2FD
  8
0
 62
     0
 10
3.9022083840959558
 20
66.500000173292392
 30
0.0
 11
2.4022083840959558
 21
68.000000173292392
 31
0.0
  0
LINE
  5
2FE
  8
0
 62
     0
 10
2.555169965935419
 20
66.500000173292392
 30
0.0
 11
0.0000004389048627
 21
69.055169700322935
 31
0.0
  0
LINE
  5
2FF
  8
0
 62
     0
 10
1.3212525013227601
 20
66.386879219744969
 30
0.0
 11
0.0000004389053174
 21
67.708131282162412
 31
0.0
  0
LINE
  5
300
  8
0
 62
     0
 10
1.1516782768048861
 20
65.209415026101851
 30
0.0
 11
0.0000004389048627
 21
66.361092864001876
 31
0.0
  0
ENDBLK
  5
302
  8
0
  0
ENDSEC
  0
SECTION
  2
ENTITIES
  0
POLYLINE
  5
1A1
  8
0
 62
     0
 66
     1
 10
0.0
 20
0.0
 30
0.0
 70
     1
  0
VERTEX
  5
303
  8
0
 62
     0
 10
904.09400302373933
 20
759.52882288187868
 30
0.0
 42
0.4142135623730951
  0
VERTEX
  5
304
  8
0
 62
     0
 10
906.09400302373933
 20
757.5288228818788
 30
0.0
  0
VERTEX
  5
305
  8
0
 62
     0
 10
911.09400302373876
 20
757.5288228818788
 30
0.0
 42
-0.4142135623730951
  0
VERTEX
  5
306
  8
0
 62
     0
 10
916.09400302373888
 20
752.52882288187868
 30
0.0
  0
VERTEX
  5
307
  8
0
 62
     0
 10
916.09400302373933
 20
696.02882288187834
 30
0.0
 42
-0.4142135623730951
  0
VERTEX
  5
308
  8
0
 62
     0
 10
911.09400302373945
 20
691.02882288187834
 30
0.0
  0
VERTEX
  5
309
  8
0
 62
     0
 10
908.49400302373942
 20
691.02882288187834
 30
0.0
 42
-0.4142135623730951
  0
VERTEX
  5
30A
  8
0
 62
     0
 10
908.09400302373945
 20
691.42882288187786
 30
0.0
  0
VERTEX
  5
30B
  8
0
 62
     0
 10
908.09400302373979
 20
691.62882288187825
 30
0.0
 42
-0.4142135623730951
  0
VERTEX
  5
30C
  8
0
 62
     0
 10
908.49400302373942
 20
692.02882288187823
 30
0.0
  0
VERTEX
  5
30D
  8
0
 62
     0
 10
908.69400302373958
 20
692.02882288187834
 30
0.0
 42
0.4142135623730951
  0
VERTEX
  5
30E
  8
0
 62
     0
 10
909.09400302373956
 20
692.42882288187786
 30
0.0
  0
VERTEX
  5
30F
  8
0
 62
     0
 10
909.09400302373922
 20
696.37882288187825
 30
0.0
 42
-0.4142135623730951
  0
VERTEX
  5
310
  8
0
 62
     0
 10
909.49400302373942
 20
696.77882288187823
 30
0.0
  0
VERTEX
  5
311
  8
0
 62
     0
 10
910.69400302373924
 20
696.77882288187834
 30
0.0
 42
-0.4142135623734279
  0
VERTEX
  5
312
  8
0
 62
     0
 10
911.09400302373967
 20
696.37882288187825
 30
0.0
  0
VERTEX
  5
313
  8
0
 62
     0
 10
911.09400302373945
 20
696.17882288187843
 30
0.0
 42
-0.414213562373428
  0
VERTEX
  5
314
  8
0
 62
     0
 10
910.69400302373924
 20
695.77882288187845
 30
0.0
  0
VERTEX
  5
315
  8
0
 62
     0
 10
910.49400302373988
 20
695.77882288187834
 30
0.0
 42
0.414213562373428
  0
VERTEX
  5
316
  8
0
 62
     0
 10
910.09400302373945
 20
695.37882288187825
 30
0.0
  0
VERTEX
  5
317
  8
0
 62
     0
 10
910.09400302373967
 20
692.42882288187786
 30
0.0
 42
0.4142135623727621
  0
VERTEX
  5
318
  8
0
 62
     0
 10
910.49400302373931
 20
692.028822881878
 30
0.0
  0
VERTEX
  5
319
  8
0
 62
     0
 10
910.59400302373933
 20
692.02882288187834
 30
0.0
 42
0.4513632460850441
  0
VERTEX
  5
31A
  8
0
 62
     0
 10
915.09400302373945
 20
696.02882288187834
 30
0.0
  0
VERTEX
  5
31B
  8
0
 62
     0
 10
915.09400302373933
 20
698.27882288187789
 30
0.0
 42
0.4142135623730951
  0
VERTEX
  5
31C
  8
0
 62
     0
 10
913.09400302373967
 20
700.27882288187834
 30
0.0
  0
VERTEX
  5
31D
  8
0
 62
     0
 10
911.49400302373931
 20
700.27882288187834
 30
0.0
 42
0.4142135623730951
  0
VERTEX
  5
31E
  8
0
 62
     0
 10
911.09400302373945
 20
699.87882288187825
 30
0.0
  0
VERTEX
  5
31F
  8
0
 62
     0
 10
911.09400302373967
 20
699.67882288187786
 30
0.0
 42
-0.4142135623730951
  0
VERTEX
  5
320
  8
0
 62
     0
 10
910.69400302373958
 20
699.27882288187789
 30
0.0
  0
VERTEX
  5
321
  8
0
 62
     0
 10
909.49400302373942
 20
699.27882288187789
 30
0.0
 42
-0.4142135623730951
  0
VERTEX
  5
322
  8
0
 62
     0
 10
909.09400302373945
 20
699.67882288187786
 30
0.0
  0
VERTEX
  5
323
  8
0
 62
     0
 10
909.09400302373979
 20
703.62882288187825
 30
0.0
 42
0.4142135623730951
  0
VERTEX
  5
324
  8
0
 62
     0
 10
908.69400302373958
 20
704.02882288187823
 30
0.0
  0
VERTEX
  5
325
  8
0
 62
     0
 10
908.49400302373942
 20
704.02882288187834
 30
0.0
 42
-0.4142135623730951
  0
VERTEX
  5
326
  8
0
 62
     0
 10
908.09400302373945
 20
704.42882288187786
 30
0.0
  0
VERTEX
  5
327
  8
0
 62
     0
 10
908.09400302373979
 20
704.62882288187825
 30
0.0
 42
-0.4142135623730951
  0
VERTEX
  5
328
  8
0
 62
     0
 10
908.49400302373942
 20
705.02882288187823
 30
0.0
  0
VERTEX
  5
329
  8
0
 62
     0
 10
910.69400302373924
 20
705.02882288187834
 30
0.0
 42
-0.4142135623730951
  0
VERTEX
  5
32A
  8
0
 62
     0
 10
911.09400302373922
 20
704.62882288187825
 30
0.0
  0
VERTEX
  5
32B
  8
0
 62
     0
 10
911.09400302373945
 20
702.17882288187786
 30
0.0
 42
0.4142135623730951
  0
VERTEX
  5
32C
  8
0
 62
     0
 10
911.49400302373931
 20
701.778822881878
 30
0.0
  0
VERTEX
  5
32D
  8
0
 62
     0
 10
913.6940030237397
 20
701.77882288187834
 30
0.0
 42
0.4142135623730951
  0
VERTEX
  5
32E
  8
0
 62
     0
 10
914.09400302373967
 20
702.17882288187786
 30
0.0
  0
VERTEX
  5
32F
  8
0
 62
     0
 10
914.09400302373979
 20
704.98921507644104
 30
0.0
 42
-0.0493889890212123
  0
VERTEX
  5
330
  8
0
 62
     0
 10
914.10177075346292
 20
705.06766153049625
 30
0.0
  0
VERTEX
  5
331
  8
0
 62
     0
 10
914.59400302373967
 20
707.52882288187834
 30
0.0
  0
VERTEX
  5
332
  8
0
 62
     0
 10
914.59400302373967
 20
729.27882288187777
 30
0.0
  0
VERTEX
  5
333
  8
0
 62
     0
 10
914.09400302373979
 20
731.77882288187789
 30
0.0
  0
VERTEX
  5
334
  8
0
 62
     0
 10
914.09400302373979
 20
736.27882288187789
 30
0.0
 42
0.4142135623730951
  0
VERTEX
  5
335
  8
0
 62
     0
 10
913.59400302373979
 20
736.77882288187789
 30
0.0
  0
VERTEX
  5
336
  8
0
 62
     0
 10
911.59400302373933
 20
736.77882288187789
 30
0.0
 42
0.4142135623730951
  0
VERTEX
  5
337
  8
0
 62
     0
 10
911.09400302373945
 20
736.27882288187789
 30
0.0
  0
VERTEX
  5
338
  8
0
 62
     0
 10
911.09400302373967
 20
732.27882288187789
 30
0.0
 42
-0.4142135623730951
  0
VERTEX
  5
339
  8
0
 62
     0
 10
910.59400302373979
 20
731.77882288187789
 30
0.0
  0
VERTEX
  5
33A
  8
0
 62
     0
 10
910.09400302373945
 20
731.77882288187834
 30
0.0
 42
-0.4142135623730951
  0
VERTEX
  5
33B
  8
0
 62
     0
 10
909.59400302373933
 20
732.27882288187834
 30
0.0
  0
VERTEX
  5
33C
  8
0
 62
     0
 10
909.59400302373933
 20
737.77882288187777
 30
0.0
 42
-0.4142135623730951
  0
VERTEX
  5
33D
  8
0
 62
     0
 10
910.09400302373945
 20
738.27882288187777
 30
0.0
  0
VERTEX
  5
33E
  8
0
 62
     0
 10
914.59400302373967
 20
738.27882288187777
 30
0.0
  0
VERTEX
  5
33F
  8
0
 62
     0
 10
914.59400302373945
 20
752.02882288187868
 30
0.0
 42
0.4142135623730951
  0
VERTEX
  5
340
  8
0
 62
     0
 10
910.59400302373933
 20
756.02882288187868
 30
0.0
  0
VERTEX
  5
341
  8
0
 62
     0
 10
904.59400302373979
 20
756.02882288187868
 30
0.0
 42
-0.4142135623730951
  0
VERTEX
  5
342
  8
0
 62
     0
 10
902.59400302373979
 20
758.0288228818788
 30
0.0
  0
VERTEX
  5
343
  8
0
 62
     0
 10
902.59400302373979
 20
767.52882288187834
 30
0.0
 42
0.4142135623730951
  0
VERTEX
  5
344
  8
0
 62
     0
 10
900.59400302373967
 20
769.52882288187834
 30
0.0
  0
VERTEX
  5
345
  8
0
 62
     0
 10
877.59400302373933
 20
769.52882288187834
 30
0.0
  0
VERTEX
  5
346
  8
0
 62
     0
 10
873.09400302373979
 20
769.52882288187777
 30
0.0
 42
0.4142135623730951
  0
VERTEX
  5
347
  8
0
 62
     0
 10
872.59400302373967
 20
769.02882288187777
 30
0.0
  0
VERTEX
  5
348
  8
0
 62
     0
 10
872.59400302373956
 20
756.42882288187843
 30
0.0
 42
-0.4142135623730951
  0
VERTEX
  5
349
  8
0
 62
     0
 10
872.19400302373958
 20
756.02882288187834
 30
0.0
  0
VERTEX
  5
34A
  8
0
 62
     0
 10
871.79400302373915
 20
756.02882288187891
 30
0.0
 42
-0.4142135623727621
  0
VERTEX
  5
34B
  8
0
 62
     0
 10
871.39400302373951
 20
756.42882288187889
 30
0.0
  0
VERTEX
  5
34C
  8
0
 62
     0
 10
871.39400302373986
 20
757.12882288187734
 30
0.0
 42
0.4142135623730951
  0
VERTEX
  5
34D
  8
0
 62
     0
 10
870.99400302373988
 20
757.52882288187743
 30
0.0
  0
VERTEX
  5
34E
  8
0
 62
     0
 10
866.84400302373933
 20
757.52882288187777
 30
0.0
 42
-0.4142135623730951
  0
VERTEX
  5
34F
  8
0
 62
     0
 10
866.34400302373945
 20
758.02882288187789
 30
0.0
  0
VERTEX
  5
350
  8
0
 62
     0
 10
866.34400302373945
 20
758.52882288187789
 30
0.0
 42
-0.4142135623730951
  0
VERTEX
  5
351
  8
0
 62
     0
 10
866.84400302373933
 20
759.02882288187789
 30
0.0
  0
VERTEX
  5
352
  8
0
 62
     0
 10
870.59400302373979
 20
759.02882288187789
 30
0.0
 42
0.4142135623730951
  0
VERTEX
  5
353
  8
0
 62
     0
 10
871.09400302373967
 20
759.52882288187789
 30
0.0
  0
VERTEX
  5
354
  8
0
 62
     0
 10
871.09400302373967
 20
769.02882288187834
 30
0.0
 42
0.4142135623730951
  0
VERTEX
  5
355
  8
0
 62
     0
 10
870.59400302373979
 20
769.52882288187834
 30
0.0
  0
VERTEX
  5
356
  8
0
 62
     0
 10
851.59400302373876
 20
769.52882288187834
 30
0.0
  0
VERTEX
  5
357
  8
0
 62
     0
 10
851.59400302373933
 20
759.52882288187789
 30
0.0
 42
0.4142135623730951
  0
VERTEX
  5
358
  8
0
 62
     0
 10
852.09400302373945
 20
759.02882288187789
 30
0.0
  0
VERTEX
  5
359
  8
0
 62
     0
 10
855.84400302373967
 20
759.02882288187789
 30
0.0
 42
-0.4142135623730951
  0
VERTEX
  5
35A
  8
0
 62
     0
 10
856.34400302373979
 20
758.52882288187789
 30
0.0
  0
VERTEX
  5
35B
  8
0
 62
     0
 10
856.34400302373979
 20
758.02882288187834
 30
0.0
 42
-0.4142135623733615
  0
VERTEX
  5
35C
  8
0
 62
     0
 10
855.84400302373967
 20
757.52882288187777
 30
0.0
  0
VERTEX
  5
35D
  8
0
 62
     0
 10
851.69400302373958
 20
757.52882288187823
 30
0.0
 42
0.4142135623730951
  0
VERTEX
  5
35E
  8
0
 62
     0
 10
851.29400302373961
 20
757.12882288187825
 30
0.0
  0
VERTEX
  5
35F
  8
0
 62
     0
 10
851.29400302373949
 20
756.42882288187889
 30
0.0
 42
-0.4142135623730951
  0
VERTEX
  5
360
  8
0
 62
     0
 10
850.89400302373951
 20
756.02882288187868
 30
0.0
  0
VERTEX
  5
361
  8
0
 62
     0
 10
850.49400302373942
 20
756.02882288187891
 30
0.0
 42
-0.4142135623730951
  0
VERTEX
  5
362
  8
0
 62
     0
 10
850.09400302373979
 20
756.42882288187889
 30
0.0
  0
VERTEX
  5
363
  8
0
 62
     0
 10
850.09400302373922
 20
769.52882288187777
 30
0.0
  0
VERTEX
  5
364
  8
0
 62
     0
 10
839.59400302374036
 20
769.52882288187777
 30
0.0
  0
VERTEX
  5
365
  8
0
 62
     0
 10
839.59400302374013
 20
756.42882288187889
 30
0.0
 42
-0.4142135623730951
  0
VERTEX
  5
366
  8
0
 62
     0
 10
839.19400302374015
 20
756.02882288187868
 30
0.0
  0
VERTEX
  5
367
  8
0
 62
     0
 10
838.79400302373995
 20
756.02882288187891
 30
0.0
 42
-0.4142135623730951
  0
VERTEX
  5
368
  8
0
 62
     0
 10
838.39400302373986
 20
756.42882288187889
 30
0.0
  0
VERTEX
  5
369
  8
0
 62
     0
 10
838.3940030237402
 20
757.1288228818778
 30
0.0
 42
0.4142135623730951
  0
VERTEX
  5
36A
  8
0
 62
     0
 10
837.99400302374033
 20
757.52882288187777
 30
0.0
  0
VERTEX
  5
36B
  8
0
 62
     0
 10
833.84400302374024
 20
757.52882288187777
 30
0.0
 42
-0.4142135623730951
  0
VERTEX
  5
36C
  8
0
 62
     0
 10
833.34400302374036
 20
758.02882288187789
 30
0.0
  0
VERTEX
  5
36D
  8
0
 62
     0
 10
833.34400302374036
 20
758.52882288187789
 30
0.0
 42
-0.4142135623730951
  0
VERTEX
  5
36E
  8
0
 62
     0
 10
833.84400302374024
 20
759.02882288187789
 30
0.0
  0
VERTEX
  5
36F
  8
0
 62
     0
 10
837.59400302374013
 20
759.02882288187789
 30
0.0
 42
0.4142135623730951
  0
VERTEX
  5
370
  8
0
 62
     0
 10
838.09400302374024
 20
759.52882288187789
 30
0.0
  0
VERTEX
  5
371
  8
0
 62
     0
 10
838.09400302374024
 20
769.52882288187777
 30
0.0
  0
VERTEX
  5
372
  8
0
 62
     0
 10
819.09400302373967
 20
769.52882288187777
 30
0.0
 42
0.4142135623730951
  0
VERTEX
  5
373
  8
0
 62
     0
 10
818.59400302373979
 20
769.02882288187777
 30
0.0
  0
VERTEX
  5
374
  8
0
 62
     0
 10
818.59400302373979
 20
759.52882288187789
 30
0.0
 42
0.4142135623730951
  0
VERTEX
  5
375
  8
0
 62
     0
 10
819.09400302373967
 20
759.02882288187789
 30
0.0
  0
VERTEX
  5
376
  8
0
 62
     0
 10
822.84400302374024
 20
759.02882288187789
 30
0.0
 42
-0.4142135623730951
  0
VERTEX
  5
377
  8
0
 62
     0
 10
823.34400302374013
 20
758.52882288187789
 30
0.0
  0
VERTEX
  5
378
  8
0
 62
     0
 10
823.34400302374013
 20
758.02882288187834
 30
0.0
 42
-0.4142135623733615
  0
VERTEX
  5
379
  8
0
 62
     0
 10
822.84400302374024
 20
757.52882288187777
 30
0.0
  0
VERTEX
  5
37A
  8
0
 62
     0
 10
818.69400302374015
 20
757.52882288187823
 30
0.0
 42
0.4142135623730951
  0
VERTEX
  5
37B
  8
0
 62
     0
 10
818.29400302373995
 20
757.12882288187825
 30
0.0
  0
VERTEX
  5
37C
  8
0
 62
     0
 10
818.29400302373995
 20
756.42882288187843
 30
0.0
 42
-0.4142135623727621
  0
VERTEX
  5
37D
  8
0
 62
     0
 10
817.89400302374042
 20
756.02882288187868
 30
0.0
  0
VERTEX
  5
37E
  8
0
 62
     0
 10
817.49400302374033
 20
756.02882288187845
 30
0.0
 42
-0.4142135623730951
  0
VERTEX
  5
37F
  8
0
 62
     0
 10
817.09400302374013
 20
756.42882288187843
 30
0.0
  0
VERTEX
  5
380
  8
0
 62
     0
 10
817.09400302374002
 20
770.62882288187825
 30
0.0
 42
-0.4142135623730951
  0
VERTEX
  5
381
  8
0
 62
     0
 10
817.49400302373988
 20
771.02882288187789
 30
0.0
  0
VERTEX
  5
382
  8
0
 62
     0
 10
901.09400302373922
 20
771.02882288187834
 30
0.0
 42
-0.4142135623730951
  0
VERTEX
  5
383
  8
0
 62
     0
 10
904.09400302373933
 20
768.02882288187834
 30
0.0
  0
SEQEND
  5
384
  8
0
 62
     0
  0
ENDSEC
  0
EOF
