  0
SECTION
  2
HEADER
  9
$ACADVER
  1
AC1009
  9
$INSBASE
 10
0.0
 20
0.0
 30
0.0
  9
$EXTMIN
 10
1.1262459714305351
 20
0.7241911597548097
 30
0.0
  9
$EXTMAX
 10
11.4262459714311699
 20
24.1241911597551315
 30
0.0
  9
$LIMMIN
 10
0.0
 20
0.0
  9
$LIMMAX
 10
420.0
 20
297.0
  9
$ORTHOMODE
 70
     0
  9
$REGENMODE
 70
     1
  9
$FILLMODE
 70
     1
  9
$QTEXTMODE
 70
     0
  9
$MIRRTEXT
 70
     0
  9
$DRAGMODE
 70
     2
  9
$LTSCALE
 40
1.0
  9
$OSMODE
 70
  4095
  9
$ATTMODE
 70
     1
  9
$TEXTSIZE
 40
2.5
  9
$TRACEWID
 40
1.0
  9
$TEXTSTYLE
  7
STANDARD
  9
$CLAYER
  8
0
  9
$CELTYPE
  6
BYLAYER
  9
$CECOLOR
 62
   256
  9
$DIMSCALE
 40
1.0
  9
$DIMASZ
 40
2.5
  9
$DIMEXO
 40
0.625
  9
$DIMDLI
 40
3.75
  9
$DIMRND
 40
0.0
  9
$DIMDLE
 40
0.0
  9
$DIMEXE
 40
1.25
  9
$DIMTP
 40
0.0
  9
$DIMTM
 40
0.0
  9
$DIMTXT
 40
2.5
  9
$DIMCEN
 40
2.5
  9
$DIMTSZ
 40
0.0
  9
$DIMTOL
 70
     0
  9
$DIMLIM
 70
     0
  9
$DIMTIH
 70
     0
  9
$DIMTOH
 70
     0
  9
$DIMSE1
 70
     0
  9
$DIMSE2
 70
     0
  9
$DIMTAD
 70
     1
  9
$DIMZIN
 70
     8
  9
$DIMBLK
  1

  9
$DIMASO
 70
     1
  9
$DIMSHO
 70
     1
  9
$DIMPOST
  1

  9
$DIMAPOST
  1

  9
$DIMALT
 70
     0
  9
$DIMALTD
 70
     3
  9
$DIMALTF
 40
0.03937007874016
  9
$DIMLFAC
 40
1.0
  9
$DIMTOFL
 70
     1
  9
$DIMTVP
 40
0.0
  9
$DIMTIX
 70
     0
  9
$DIMSOXD
 70
     0
  9
$DIMSAH
 70
     0
  9
$DIMBLK1
  1

  9
$DIMBLK2
  1

  9
$DIMSTYLE
  2
ISO-25
  9
$DIMCLRD
 70
     0
  9
$DIMCLRE
 70
     0
  9
$DIMCLRT
 70
     0
  9
$DIMTFAC
 40
1.0
  9
$DIMGAP
 40
0.625
  9
$LUNITS
 70
     2
  9
$LUPREC
 70
     4
  9
$SKETCHINC
 40
1.0
  9
$FILLETRAD
 40
0.0
  9
$AUNITS
 70
     0
  9
$AUPREC
 70
     0
  9
$MENU
  1
.
  9
$ELEVATION
 40
0.0
  9
$PELEVATION
 40
0.0
  9
$THICKNESS
 40
0.0
  9
$LIMCHECK
 70
     0
  9
$BLIPMODE
 70
     0
  9
$CHAMFERA
 40
0.0
  9
$CHAMFERB
 40
0.0
  9
$SKPOLY
 70
     0
  9
$TDCREATE
 40
2459087.584664351772517
  9
$TDUPDATE
 40
2459087.5853125001303852
  9
$TDINDWG
 40
0.0006597222
  9
$TDUSRTIMER
 40
0.0006597222
  9
$USRTIMER
 70
     1
  9
$ANGBASE
 50
0.0
  9
$ANGDIR
 70
     0
  9
$PDMODE
 70
     0
  9
$PDSIZE
 40
0.0
  9
$PLINEWID
 40
0.0
  9
$COORDS
 70
     1
  9
$SPLFRAME
 70
     0
  9
$SPLINETYPE
 70
     6
  9
$SPLINESEGS
 70
     8
  9
$ATTDIA
 70
     1
  9
$ATTREQ
 70
     1
  9
$HANDLING
 70
     1
  9
$HANDSEED
  5
339
  9
$SURFTAB1
 70
     6
  9
$SURFTAB2
 70
     6
  9
$SURFTYPE
 70
     6
  9
$SURFU
 70
     6
  9
$SURFV
 70
     6
  9
$UCSNAME
  2

  9
$UCSORG
 10
0.0
 20
0.0
 30
0.0
  9
$UCSXDIR
 10
1.0
 20
0.0
 30
0.0
  9
$UCSYDIR
 10
0.0
 20
1.0
 30
0.0
  9
$PUCSNAME
  2

  9
$PUCSORG
 10
0.0
 20
0.0
 30
0.0
  9
$PUCSXDIR
 10
1.0
 20
0.0
 30
0.0
  9
$PUCSYDIR
 10
0.0
 20
1.0
 30
0.0
  9
$USERI1
 70
     0
  9
$USERI2
 70
     0
  9
$USERI3
 70
     0
  9
$USERI4
 70
     0
  9
$USERI5
 70
     0
  9
$USERR1
 40
0.0
  9
$USERR2
 40
0.0
  9
$USERR3
 40
0.0
  9
$USERR4
 40
0.0
  9
$USERR5
 40
0.0
  9
$WORLDVIEW
 70
     1
  9
$SHADEDGE
 70
     3
  9
$SHADEDIF
 70
    70
  9
$TILEMODE
 70
     1
  9
$MAXACTVP
 70
    64
  9
$PLIMCHECK
 70
     0
  9
$PEXTMIN
 10
0.0
 20
0.0
 30
0.0
  9
$PEXTMAX
 10
0.0
 20
0.0
 30
0.0
  9
$PLIMMIN
 10
0.0
 20
0.0
  9
$PLIMMAX
 10
12.0
 20
9.0
  9
$UNITMODE
 70
     0
  9
$VISRETAIN
 70
     1
  9
$PLINEGEN
 70
     0
  9
$PSLTSCALE
 70
     1
  0
ENDSEC
  0
SECTION
  2
TABLES
  0
TABLE
  2
VPORT
 70
     1
  0
VPORT
  2
*ACTIVE
 70
     0
 10
0.0
 20
0.0
 11
1.0
 21
1.0
 12
6.2762459714308534
 22
12.4241911597549706
 13
0.0
 23
0.0
 14
10.0
 24
10.0
 15
10.0
 25
10.0
 16
0.0
 26
0.0
 36
1.0
 17
0.0
 27
0.0
 37
0.0
 40
23.5757196495622701
 41
2.0388471177944858
 42
50.0
 43
0.0
 44
0.0
 50
0.0
 51
0.0
 71
     0
 72
  1000
 73
     1
 74
     3
 75
     0
 76
     0
 77
     0
 78
     0
  0
ENDTAB
  0
TABLE
  2
LTYPE
 70
     1
  0
LTYPE
  2
CONTINUOUS
 70
     0
  3
Solid line
 72
    65
 73
     0
 40
0.0
  0
ENDTAB
  0
TABLE
  2
LAYER
 70
     1
  0
LAYER
  2
0
 70
     0
 62
     7
  6
CONTINUOUS
  0
ENDTAB
  0
TABLE
  2
STYLE
 70
     3
  0
STYLE
  2
STANDARD
 70
     0
 40
0.0
 41
1.0
 50
0.0
 71
     0
 42
2.5
  3
txt
  4

  0
STYLE
  2
ANNOTATIVE
 70
     0
 40
0.0
 41
1.0
 50
0.0
 71
     0
 42
2.5
  3
txt
  4

  0
STYLE
  2
ROMANT
 70
     0
 40
2.2000000000000002
 41
1.0
 50
0.0
 71
     0
 42
2.5
  3
romant.shx
  4

  0
ENDTAB
  0
TABLE
  2
VIEW
 70
     0
  0
ENDTAB
  0
TABLE
  2
UCS
 70
     0
  0
ENDTAB
  0
TABLE
  2
APPID
 70
     8
  0
APPID
  2
ACAD
 70
     0
  0
APPID
  2
ACAD_PSEXT
 70
     0
  0
APPID
  2
ACADANNOPO
 70
     0
  0
APPID
  2
ACADANNOTATIVE
 70
     0
  0
APPID
  2
ACAD_DSTYLE_DIMJAG
 70
     0
  0
APPID
  2
ACAD_DSTYLE_DIMTALN
 70
     0
  0
APPID
  2
ACAD_MLEADERVER
 70
     0
  0
APPID
  2
ACAD_NAV_VCDISPLAY
 70
     0
  0
ENDTAB
  0
TABLE
  2
DIMSTYLE
 70
     4
  0
DIMSTYLE
  2
STANDARD
 70
     0
  3

  4

  5

  6

  7

 40
1.0
 41
0.18
 42
0.0625
 43
0.38
 44
0.18
 45
0.0
 46
0.0
 47
0.0
 48
0.0
140
0.18
141
0.09
142
0.0
143
25.3999999999999986
144
1.0
145
0.0
146
1.0
147
0.09
 71
     0
 72
     0
 73
     1
 74
     1
 75
     0
 76
     0
 77
     0
 78
     0
170
     0
171
     2
172
     0
173
     0
174
     0
175
     0
176
     0
177
     0
178
     0
  0
DIMSTYLE
  2
ANNOTATIVE
 70
     0
  3

  4

  5

  6

  7

 40
0.0
 41
2.5
 42
0.625
 43
3.75
 44
1.25
 45
0.0
 46
0.0
 47
0.0
 48
0.0
140
2.5
141
2.5
142
0.0
143
0.03937007874016
144
1.0
145
0.0
146
1.0
147
0.625
 71
     0
 72
     0
 73
     0
 74
     0
 75
     0
 76
     0
 77
     1
 78
     8
170
     0
171
     3
172
     1
173
     0
174
     0
175
     0
176
     0
177
     0
178
     0
  0
DIMSTYLE
  2
ISO-25
 70
     0
  3

  4

  5

  6

  7

 40
1.0
 41
2.5
 42
0.625
 43
3.75
 44
1.25
 45
0.0
 46
0.0
 47
0.0
 48
0.0
140
2.5
141
2.5
142
0.0
143
0.03937007874016
144
1.0
145
0.0
146
1.0
147
0.625
 71
     0
 72
     0
 73
     0
 74
     0
 75
     0
 76
     0
 77
     1
 78
     8
170
     0
171
     3
172
     1
173
     0
174
     0
175
     0
176
     0
177
     0
178
     0
  0
DIMSTYLE
  2
MELÝH_A3
 70
     0
  3

  4

  5

  6

  7

 40
1.0
 41
1.3
 42
0.0
 43
3.75
 44
0.2
 45
0.0
 46
0.0
 47
0.0
 48
0.0
140
1.0
141
0.2
142
0.0
143
0.03937007874016
144
1.0
145
0.0
146
1.0
147
0.7
 71
     0
 72
     0
 73
     0
 74
     0
 75
     0
 76
     0
 77
     1
 78
     8
170
     0
171
     3
172
     0
173
     0
174
     0
175
     0
176
   242
177
   242
178
   242
  0
ENDTAB
  0
ENDSEC
  0
SECTION
  2
BLOCKS
  0
BLOCK
  8
0
  2
$MODEL_SPACE
 70
     0
 10
0.0
 20
0.0
 30
0.0
  3
$MODEL_SPACE
  1

  0
ENDBLK
  5
21
  8
0
  0
BLOCK
 67
     1
  8
0
  2
$PAPER_SPACE
 70
     0
 10
0.0
 20
0.0
 30
0.0
  3
$PAPER_SPACE
  1

  0
ENDBLK
  5
D5
 67
     1
  8
0
  0
BLOCK
  8
0
  2
*U2
 70
     1
 10
0.0
 20
0.0
 30
0.0
  3
*U2
  1

  0
ARC
  5
301
  8
0
 10
0.2500008063711903
 20
0.2499999247270352
 30
0.0
 40
0.2500000000002274
 50
180.000000000104194
 51
269.999999999687418
  0
LINE
  5
302
  8
0
 10
2.4000008063705991
 20
-0.000000075274329
 30
0.0
 11
0.250000806369826
 21
-0.0000000752731921
 31
0.0
  0
ARC
  5
303
  8
0
 10
2.4000008063715081
 20
0.2499999247247615
 30
0.0
 40
0.2499999999990905
 50
269.9999999995831104
 51
0.0
  0
LINE
  5
304
  8
0
 10
2.6500008063712812
 20
0.74999992472749
 30
0.0
 11
2.6500008063705991
 21
0.249999924725671
 31
0.0
  0
ARC
  5
305
  8
0
 10
2.400000806372645
 20
0.7499999247279447
 30
0.0
 40
0.2499999999986358
 50
359.999999999895806
 51
90.0000000004689724
  0
LINE
  5
306
  8
0
 10
1.6500008063724181
 20
0.9999999247252161
 30
0.0
 11
2.4000008063705991
 21
0.9999999247265805
 31
0.0
  0
ARC
  5
307
  8
0
 10
1.650000806371281
 20
1.249999924725443
 30
0.0
 40
0.2500000000002274
 50
180.0
 51
270.0000000003126956
  0
LINE
  5
308
  8
0
 10
1.400000806371053
 20
3.2499999247274891
 30
0.0
 11
1.400000806371053
 21
1.249999924725671
 31
0.0
  0
ARC
  5
309
  8
0
 10
1.6500008063701439
 20
3.249999924728399
 30
0.0
 40
0.2499999999990905
 50
89.9999999997915552
 51
180.000000000208388
  0
LINE
  5
30A
  8
0
 10
3.2500008063705081
 20
3.4999999247265801
 30
0.0
 11
1.650000806371053
 21
3.4999999247274891
 31
0.0
  0
ARC
  5
30B
  8
0
 10
3.2500008063714172
 20
3.749999924725671
 30
0.0
 40
0.2499999999990905
 50
269.9999999995831104
 51
0.0
  0
LINE
  5
30C
  8
0
 10
3.500000806370962
 20
5.249999924725671
 30
0.0
 11
3.5000008063705081
 21
3.7499999247265801
 31
0.0
  0
ARC
  5
30D
  8
0
 10
3.2500008063702799
 20
5.249999924724988
 30
0.0
 40
0.2500000000006821
 50
0.0000000001563306
 51
89.9999999998436664
  0
LINE
  5
30E
  8
0
 10
3.0900008063713349
 20
5.4999999247265796
 30
0.0
 11
3.250000806370962
 21
5.499999924725671
 31
0.0
  0
ARC
  5
30F
  8
0
 10
3.090000806370198
 20
5.2499999247274891
 30
0.0
 40
0.2499999999990905
 50
89.9999999995310134
 51
180.0
  0
LINE
  5
310
  8
0
 10
2.8400008063706532
 20
4.4999999247265796
 30
0.0
 11
2.840000806371108
 21
5.2499999247265796
 31
0.0
  0
LINE
  5
311
  8
0
 10
1.340000806370653
 20
4.4999999247265796
 30
0.0
 11
2.8400008063706532
 21
4.4999999247265796
 31
0.0
  0
LINE
  5
312
  8
0
 10
1.340000806370653
 20
6.1099999247253427
 30
0.0
 11
1.340000806370653
 21
4.4999999247265796
 31
0.0
  0
ARC
  5
313
  8
0
 10
1.0900008063699711
 20
6.1099999247255701
 30
0.0
 40
0.2500000000006821
 50
359.9999999999478746
 51
89.9999999997394866
  0
LINE
  5
314
  8
0
 10
1.000000806370962
 20
6.3599999247271617
 30
0.0
 11
1.090000806371108
 21
6.3599999247262531
 31
0.0
  0
LINE
  5
315
  8
0
 10
1.0000008063707351
 20
20.1499999247253108
 30
0.0
 11
1.000000806370962
 21
6.3599999247271617
 31
0.0
  0
ARC
  5
316
  8
0
 10
1.2500008063705079
 20
20.1499999247259893
 30
0.0
 40
0.249999999999763
 50
113.578178478145901
 51
180.000000000156291
  0
ARC
  5
317
  8
0
 10
1.050000806373645
 20
20.6082574942202008
 30
0.0
 40
0.2499999999977263
 50
293.5781784777248049
 51
0.0
  0
LINE
  5
318
  8
0
 10
1.3000008063715991
 20
21.3999999247262203
 30
0.0
 11
1.3000008063713719
 21
20.6082574942202008
 31
0.0
  0
ARC
  5
319
  8
0
 10
2.3000008063704618
 20
21.39999992472735
 30
0.0
 40
0.9999999999988631
 50
90.0
 51
180.0000000000651141
  0
LINE
  5
31A
  8
0
 10
3.500000806370962
 20
22.3999999247271191
 30
0.0
 11
2.3000008063704618
 21
22.3999999247262203
 31
0.0
  0
LINE
  5
31B
  8
0
 10
3.5000008063711898
 20
20.6499999247271298
 30
0.0
 11
3.500000806370962
 21
22.3999999247271191
 31
0.0
  0
ARC
  5
31C
  8
0
 10
3.7500008063723271
 20
20.64999992472735
 30
0.0
 40
0.2500000000011369
 50
180.000000000052097
 51
269.999999999687418
  0
LINE
  5
31D
  8
0
 10
4.250000806370962
 20
20.3999999247262203
 30
0.0
 11
3.750000806370962
 21
20.3999999247262203
 31
0.0
  0
ARC
  5
31E
  8
0
 10
4.2500008063700534
 20
20.64999992472735
 30
0.0
 40
0.2500000000011369
 50
270.000000000469015
 51
0.0
  0
LINE
  5
31F
  8
0
 10
4.500000806370962
 20
22.3999999247271191
 30
0.0
 11
4.5000008063711903
 21
20.6499999247262203
 31
0.0
  0
LINE
  5
320
  8
0
 10
8.3000008063709174
 20
22.3999999247262203
 30
0.0
 11
4.500000806370962
 21
22.3999999247271191
 31
0.0
  0
ARC
  5
321
  8
0
 10
8.3000008063704627
 20
21.3999999247257584
 30
0.0
 40
1.0000000000004541
 50
0.0
 51
89.9999999999478888
  0
LINE
  5
322
  8
0
 10
9.3000008063711448
 20
4.7499999247302176
 30
0.0
 11
9.3000008063709174
 21
21.3999999247262203
 31
0.0
  0
ARC
  5
323
  8
0
 10
9.0500008063704627
 20
4.7499999247308997
 30
0.0
 40
0.2500000000006821
 50
270.0000000001563194
 51
359.9999999998436806
  0
LINE
  5
324
  8
0
 10
8.2500008063705081
 20
4.4999999247293081
 30
0.0
 11
9.0500008063711448
 21
4.4999999247302176
 31
0.0
  0
ARC
  5
325
  8
0
 10
8.2500008063711903
 20
4.249999924728626
 30
0.0
 40
0.2500000000006821
 50
90.0000000003126672
 51
180.0
  0
LINE
  5
326
  8
0
 10
8.0000008063705081
 20
3.7499999247274891
 30
0.0
 11
8.0000008063705081
 21
4.2499999247293081
 31
0.0
  0
ARC
  5
327
  8
0
 10
8.2500008063711903
 20
3.7499999247281721
 30
0.0
 40
0.2500000000006821
 50
180.000000000156291
 51
269.9999999998436806
  0
LINE
  5
328
  8
0
 10
8.6500008063721907
 20
3.4999999247252158
 30
0.0
 11
8.2500008063705081
 21
3.4999999247274891
 31
0.0
  0
ARC
  5
329
  8
0
 10
8.6500008063710538
 20
3.2499999247252158
 30
0.0
 40
0.25
 50
0.0
 51
89.9999999996352216
  0
LINE
  5
32A
  8
0
 10
8.9000008063705991
 20
1.249999924725671
 30
0.0
 11
8.9000008063710538
 21
3.249999924725671
 31
0.0
  0
ARC
  5
32B
  8
0
 10
8.6500008063715086
 20
1.2499999247247611
 30
0.0
 40
0.2499999999990905
 50
269.999999999791612
 51
0.0000000002084732
  0
LINE
  5
32C
  8
0
 10
7.900000806371053
 20
0.9999999247265805
 30
0.0
 11
8.6500008063705991
 21
0.999999924725671
 31
0.0
  0
ARC
  5
32D
  8
0
 10
7.9000008063701443
 20
0.74999992472749
 30
0.0
 40
0.2499999999990905
 50
89.9999999995831246
 51
180.0
  0
LINE
  5
32E
  8
0
 10
7.6500008063705991
 20
0.2499999247247615
 30
0.0
 11
7.650000806371053
 21
0.7499999247265805
 31
0.0
  0
ARC
  5
32F
  8
0
 10
7.900000806369234
 20
0.2499999247243068
 30
0.0
 40
0.2499999999986358
 50
179.9999999998956923
 51
270.0000000004168896
  0
LINE
  5
330
  8
0
 10
10.0500008063709192
 20
-0.0000000752731921
 30
0.0
 11
7.900000806371053
 21
-0.000000075274329
 31
0.0
  0
ARC
  5
331
  8
0
 10
10.0500008063704591
 20
0.24999992472749
 30
0.0
 40
0.2500000000006821
 50
270.0000000003126956
 51
0.0
  0
LINE
  5
332
  8
0
 10
10.3000008063711395
 20
21.3999999247262203
 30
0.0
 11
10.3000008063711395
 21
0.2499999247265805
 31
0.0
  0
ARC
  5
333
  8
0
 10
8.3000008063715995
 20
21.3999999247257584
 30
0.0
 40
1.999999999999545
 50
0.0000000000130276
 51
90.0000000000195257
  0
LINE
  5
334
  8
0
 10
2.000000806370962
 20
23.3999999247259893
 30
0.0
 11
8.3000008063709174
 21
23.3999999247253108
 31
0.0
  0
ARC
  5
335
  8
0
 10
2.000000806370053
 20
21.3999999247264405
 30
0.0
 40
1.999999999999545
 50
89.9999999999934914
 51
180.0
  0
LINE
  5
336
  8
0
 10
0.0000008063709629
 20
0.2499999247265805
 30
0.0
 11
0.0000008063705081
 21
21.3999999247271298
 31
0.0
  0
ENDBLK
  5
338
  8
0
  0
ENDSEC
  0
SECTION
  2
ENTITIES
  0
ARC
  5
276
  8
0
 10
1.376245971431217
 20
0.9741911597561738
 30
0.0
 40
0.2500000000002274
 50
180.000000000104194
 51
269.999999999687418
  0
LINE
  5
277
  8
0
 10
3.526245971430626
 20
0.7241911597548097
 30
0.0
 11
1.3762459714298521
 21
0.7241911597559465
 31
0.0
  0
ARC
  5
278
  8
0
 10
3.5262459714315351
 20
0.9741911597539001
 30
0.0
 40
0.2499999999990905
 50
269.9999999995831104
 51
0.0
  0
LINE
  5
279
  8
0
 10
3.7762459714313081
 20
1.474191159756628
 30
0.0
 11
3.776245971430626
 21
0.9741911597548096
 31
0.0
  0
ARC
  5
27A
  8
0
 10
3.5262459714326719
 20
1.4741911597570829
 30
0.0
 40
0.2499999999986358
 50
359.999999999895806
 51
90.0000000004689724
  0
LINE
  5
27B
  8
0
 10
2.776245971432445
 20
1.724191159754354
 30
0.0
 11
3.526245971430626
 21
1.7241911597557189
 31
0.0
  0
ARC
  5
27C
  8
0
 10
2.7762459714313081
 20
1.974191159754582
 30
0.0
 40
0.2500000000002274
 50
180.0
 51
270.0000000003126956
  0
LINE
  5
27D
  8
0
 10
2.5262459714310799
 20
3.9741911597566282
 30
0.0
 11
2.5262459714310799
 21
1.974191159754809
 31
0.0
  0
ARC
  5
27E
  8
0
 10
2.7762459714301708
 20
3.9741911597575381
 30
0.0
 40
0.2499999999990905
 50
89.9999999997915552
 51
180.000000000208388
  0
LINE
  5
27F
  8
0
 10
4.3762459714305351
 20
4.2241911597557191
 30
0.0
 11
2.7762459714310799
 21
4.2241911597566277
 31
0.0
  0
ARC
  5
280
  8
0
 10
4.3762459714314437
 20
4.4741911597548087
 30
0.0
 40
0.2499999999990905
 50
269.9999999995831104
 51
0.0
  0
LINE
  5
281
  8
0
 10
4.6262459714309889
 20
5.9741911597548087
 30
0.0
 11
4.6262459714305351
 21
4.4741911597557191
 31
0.0
  0
ARC
  5
282
  8
0
 10
4.3762459714303068
 20
5.9741911597541266
 30
0.0
 40
0.2500000000006821
 50
0.0000000001563306
 51
89.9999999998436664
  0
LINE
  5
283
  8
0
 10
4.2162459714313618
 20
6.2241911597557191
 30
0.0
 11
4.3762459714309889
 21
6.2241911597548087
 31
0.0
  0
ARC
  5
284
  8
0
 10
4.2162459714302249
 20
5.9741911597566277
 30
0.0
 40
0.2499999999990905
 50
89.9999999995310134
 51
180.0
  0
LINE
  5
285
  8
0
 10
3.9662459714306801
 20
5.2241911597557191
 30
0.0
 11
3.9662459714311349
 21
5.9741911597557191
 31
0.0
  0
LINE
  5
286
  8
0
 10
2.4662459714306801
 20
5.2241911597557191
 30
0.0
 11
3.9662459714306801
 21
5.2241911597557191
 31
0.0
  0
LINE
  5
287
  8
0
 10
2.4662459714306801
 20
6.8341911597544822
 30
0.0
 11
2.4662459714306801
 21
5.2241911597557191
 31
0.0
  0
ARC
  5
288
  8
0
 10
2.216245971429998
 20
6.8341911597547087
 30
0.0
 40
0.2500000000006821
 50
359.9999999999478746
 51
89.999999999739444
  0
LINE
  5
289
  8
0
 10
2.1262459714309889
 20
7.0841911597563012
 30
0.0
 11
2.2162459714311349
 21
7.0841911597553908
 31
0.0
  0
LINE
  5
28A
  8
0
 10
2.126245971430762
 20
20.8741911597544387
 30
0.0
 11
2.1262459714309889
 21
7.0841911597563012
 31
0.0
  0
ARC
  5
28B
  8
0
 10
2.3762459714305351
 20
20.8741911597551315
 30
0.0
 40
0.249999999999763
 50
113.5781784781488994
 51
180.000000000156291
  0
ARC
  5
28C
  8
0
 10
2.1762459714336719
 20
21.3324487292493394
 30
0.0
 40
0.2499999999977263
 50
293.5781784777229859
 51
0.0
  0
LINE
  5
28D
  8
0
 10
2.426245971431626
 20
22.1241911597553482
 30
0.0
 11
2.4262459714313991
 21
21.3324487292493394
 31
0.0
  0
ARC
  5
28E
  8
0
 10
3.4262459714304891
 20
22.1241911597564886
 30
0.0
 40
0.9999999999988631
 50
90.0
 51
180.0000000000651141
  0
LINE
  5
28F
  8
0
 10
4.6262459714309889
 20
23.1241911597562684
 30
0.0
 11
3.4262459714304891
 21
23.1241911597553589
 31
0.0
  0
LINE
  5
290
  8
0
 10
4.6262459714312172
 20
21.3741911597562613
 30
0.0
 11
4.6262459714309889
 21
23.1241911597562684
 31
0.0
  0
ARC
  5
291
  8
0
 10
4.8762459714323541
 20
21.3741911597564886
 30
0.0
 40
0.2500000000011369
 50
180.000000000052097
 51
269.999999999687418
  0
LINE
  5
292
  8
0
 10
5.3762459714309889
 20
21.1241911597553482
 30
0.0
 11
4.8762459714309889
 21
21.1241911597553482
 31
0.0
  0
ARC
  5
293
  8
0
 10
5.3762459714300803
 20
21.3741911597564886
 30
0.0
 40
0.2500000000011369
 50
270.000000000469015
 51
0.0
  0
LINE
  5
294
  8
0
 10
5.6262459714309889
 20
23.1241911597562684
 30
0.0
 11
5.6262459714312172
 21
21.3741911597553589
 31
0.0
  0
LINE
  5
295
  8
0
 10
9.4262459714309443
 20
23.1241911597553589
 30
0.0
 11
5.6262459714309889
 21
23.1241911597562684
 31
0.0
  0
ARC
  5
296
  8
0
 10
9.4262459714304896
 20
22.1241911597549006
 30
0.0
 40
1.0000000000004541
 50
0.0
 51
89.9999999999478888
  0
LINE
  5
297
  8
0
 10
10.4262459714311699
 20
5.4741911597593571
 30
0.0
 11
10.4262459714309408
 21
22.1241911597553482
 31
0.0
  0
ARC
  5
298
  8
0
 10
10.1762459714304896
 20
5.4741911597600392
 30
0.0
 40
0.2500000000006821
 50
270.0000000001563194
 51
359.9999999998436806
  0
LINE
  5
299
  8
0
 10
9.3762459714305351
 20
5.2241911597584467
 30
0.0
 11
10.1762459714311699
 21
5.2241911597593571
 31
0.0
  0
ARC
  5
29A
  8
0
 10
9.3762459714312172
 20
4.9741911597577646
 30
0.0
 40
0.2500000000006821
 50
90.0000000003126672
 51
180.0
  0
LINE
  5
29B
  8
0
 10
9.1262459714305351
 20
4.4741911597566277
 30
0.0
 11
9.1262459714305351
 21
4.9741911597584467
 31
0.0
  0
ARC
  5
29C
  8
0
 10
9.3762459714312172
 20
4.4741911597573099
 30
0.0
 40
0.2500000000006821
 50
180.000000000156291
 51
269.9999999998436806
  0
LINE
  5
29D
  8
0
 10
9.7762459714322176
 20
4.224191159754354
 30
0.0
 11
9.3762459714305351
 21
4.2241911597566277
 31
0.0
  0
ARC
  5
29E
  8
0
 10
9.7762459714310808
 20
3.974191159754354
 30
0.0
 40
0.25
 50
0.0
 51
89.9999999996352216
  0
LINE
  5
29F
  8
0
 10
10.0262459714306207
 20
1.974191159754809
 30
0.0
 11
10.0262459714310808
 21
3.9741911597548092
 31
0.0
  0
ARC
  5
2A0
  8
0
 10
9.7762459714315355
 20
1.9741911597538999
 30
0.0
 40
0.2499999999990905
 50
269.999999999791612
 51
0.0000000002084408
  0
LINE
  5
2A1
  8
0
 10
9.0262459714310808
 20
1.7241911597557189
 30
0.0
 11
9.776245971430626
 21
1.724191159754809
 31
0.0
  0
ARC
  5
2A2
  8
0
 10
9.0262459714301713
 20
1.474191159756628
 30
0.0
 40
0.2499999999990905
 50
89.9999999995831246
 51
180.0
  0
LINE
  5
2A3
  8
0
 10
8.776245971430626
 20
0.9741911597539001
 30
0.0
 11
8.7762459714310808
 21
1.4741911597557189
 31
0.0
  0
ARC
  5
2A4
  8
0
 10
9.0262459714292618
 20
0.9741911597534453
 30
0.0
 40
0.2499999999986358
 50
179.9999999998956923
 51
270.0000000004168896
  0
LINE
  5
2A5
  8
0
 10
11.1762459714309408
 20
0.7241911597559465
 30
0.0
 11
9.0262459714310808
 21
0.7241911597548097
 31
0.0
  0
ARC
  5
2A6
  8
0
 10
11.1762459714304896
 20
0.9741911597566286
 30
0.0
 40
0.2500000000006821
 50
270.0000000003126956
 51
0.0
  0
LINE
  5
2A7
  8
0
 10
11.4262459714311699
 20
22.1241911597553482
 30
0.0
 11
11.4262459714311699
 21
0.9741911597557191
 31
0.0
  0
ARC
  5
2A8
  8
0
 10
9.4262459714316265
 20
22.1241911597549006
 30
0.0
 40
1.999999999999545
 50
0.0000000000130276
 51
90.0000000000130314
  0
LINE
  5
2A9
  8
0
 10
3.1262459714309889
 20
24.1241911597551315
 30
0.0
 11
9.4262459714309443
 21
24.1241911597544494
 31
0.0
  0
ARC
  5
2AA
  8
0
 10
3.1262459714300799
 20
22.1241911597555792
 30
0.0
 40
1.999999999999545
 50
89.9999999999869686
 51
180.0
  0
LINE
  5
2AB
  8
0
 10
1.1262459714309889
 20
0.9741911597557191
 30
0.0
 11
1.1262459714305351
 21
22.1241911597562684
 31
0.0
  0
ENDSEC
  0
EOF
