  0
SECTION
  2
HEADER
  9
$ACADVER
  1
AC1009
  9
$INSBASE
 10
0.0
 20
0.0
 30
0.0
  9
$EXTMIN
 10
4.5418897577033022
 20
4.805420970668365
 30
0.0
  9
$EXTMAX
 10
244.5418897577035011
 20
99.805420970668365
 30
0.0
  9
$LIMMIN
 10
0.0
 20
0.0
  9
$LIMMAX
 10
420.0
 20
297.0
  9
$ORTHOMODE
 70
     0
  9
$REGENMODE
 70
     1
  9
$FILLMODE
 70
     1
  9
$QTEXTMODE
 70
     0
  9
$MIRRTEXT
 70
     0
  9
$DRAGMODE
 70
     2
  9
$LTSCALE
 40
1.0
  9
$OSMODE
 70
  4095
  9
$ATTMODE
 70
     1
  9
$TEXTSIZE
 40
2.5
  9
$TRACEWID
 40
1.0
  9
$TEXTSTYLE
  7
STANDARD
  9
$CLAYER
  8
0
  9
$CELTYPE
  6
BYLAYER
  9
$CECOLOR
 62
   256
  9
$DIMSCALE
 40
1.0
  9
$DIMASZ
 40
2.5
  9
$DIMEXO
 40
0.625
  9
$DIMDLI
 40
3.75
  9
$DIMRND
 40
0.0
  9
$DIMDLE
 40
0.0
  9
$DIMEXE
 40
1.25
  9
$DIMTP
 40
0.0
  9
$DIMTM
 40
0.0
  9
$DIMTXT
 40
2.5
  9
$DIMCEN
 40
2.5
  9
$DIMTSZ
 40
0.0
  9
$DIMTOL
 70
     0
  9
$DIMLIM
 70
     0
  9
$DIMTIH
 70
     0
  9
$DIMTOH
 70
     0
  9
$DIMSE1
 70
     0
  9
$DIMSE2
 70
     0
  9
$DIMTAD
 70
     1
  9
$DIMZIN
 70
     8
  9
$DIMBLK
  1

  9
$DIMASO
 70
     1
  9
$DIMSHO
 70
     1
  9
$DIMPOST
  1

  9
$DIMAPOST
  1

  9
$DIMALT
 70
     0
  9
$DIMALTD
 70
     3
  9
$DIMALTF
 40
0.03937007874016
  9
$DIMLFAC
 40
1.0
  9
$DIMTOFL
 70
     1
  9
$DIMTVP
 40
0.0
  9
$DIMTIX
 70
     0
  9
$DIMSOXD
 70
     0
  9
$DIMSAH
 70
     0
  9
$DIMBLK1
  1

  9
$DIMBLK2
  1

  9
$DIMSTYLE
  2
ISO-25
  9
$DIMCLRD
 70
     0
  9
$DIMCLRE
 70
     0
  9
$DIMCLRT
 70
     0
  9
$DIMTFAC
 40
1.0
  9
$DIMGAP
 40
0.625
  9
$LUNITS
 70
     2
  9
$LUPREC
 70
     4
  9
$SKETCHINC
 40
1.0
  9
$FILLETRAD
 40
0.0
  9
$AUNITS
 70
     0
  9
$AUPREC
 70
     0
  9
$MENU
  1
.
  9
$ELEVATION
 40
0.0
  9
$PELEVATION
 40
0.0
  9
$THICKNESS
 40
0.0
  9
$LIMCHECK
 70
     0
  9
$BLIPMODE
 70
     0
  9
$CHAMFERA
 40
0.0
  9
$CHAMFERB
 40
0.0
  9
$SKPOLY
 70
     0
  9
$TDCREATE
 40
2459125.4499884261749685
  9
$TDUPDATE
 40
2459125.4506597220897675
  9
$TDINDWG
 40
0.0006712963
  9
$TDUSRTIMER
 40
0.0006712963
  9
$USRTIMER
 70
     1
  9
$ANGBASE
 50
0.0
  9
$ANGDIR
 70
     0
  9
$PDMODE
 70
     0
  9
$PDSIZE
 40
0.0
  9
$PLINEWID
 40
0.0
  9
$COORDS
 70
     1
  9
$SPLFRAME
 70
     0
  9
$SPLINETYPE
 70
     6
  9
$SPLINESEGS
 70
     8
  9
$ATTDIA
 70
     1
  9
$ATTREQ
 70
     1
  9
$HANDLING
 70
     1
  9
$HANDSEED
  5
306
  9
$SURFTAB1
 70
     6
  9
$SURFTAB2
 70
     6
  9
$SURFTYPE
 70
     6
  9
$SURFU
 70
     6
  9
$SURFV
 70
     6
  9
$UCSNAME
  2

  9
$UCSORG
 10
0.0
 20
0.0
 30
0.0
  9
$UCSXDIR
 10
1.0
 20
0.0
 30
0.0
  9
$UCSYDIR
 10
0.0
 20
1.0
 30
0.0
  9
$PUCSNAME
  2

  9
$PUCSORG
 10
0.0
 20
0.0
 30
0.0
  9
$PUCSXDIR
 10
1.0
 20
0.0
 30
0.0
  9
$PUCSYDIR
 10
0.0
 20
1.0
 30
0.0
  9
$USERI1
 70
     0
  9
$USERI2
 70
     0
  9
$USERI3
 70
     0
  9
$USERI4
 70
     0
  9
$USERI5
 70
     0
  9
$USERR1
 40
0.0
  9
$USERR2
 40
0.0
  9
$USERR3
 40
0.0
  9
$USERR4
 40
0.0
  9
$USERR5
 40
0.0
  9
$WORLDVIEW
 70
     1
  9
$SHADEDGE
 70
     3
  9
$SHADEDIF
 70
    70
  9
$TILEMODE
 70
     1
  9
$MAXACTVP
 70
    64
  9
$PLIMCHECK
 70
     0
  9
$PEXTMIN
 10
0.0
 20
0.0
 30
0.0
  9
$PEXTMAX
 10
0.0
 20
0.0
 30
0.0
  9
$PLIMMIN
 10
0.0
 20
0.0
  9
$PLIMMAX
 10
12.0
 20
9.0
  9
$UNITMODE
 70
     0
  9
$VISRETAIN
 70
     1
  9
$PLINEGEN
 70
     0
  9
$PSLTSCALE
 70
     1
  0
ENDSEC
  0
SECTION
  2
TABLES
  0
TABLE
  2
VPORT
 70
     1
  0
VPORT
  2
*ACTIVE
 70
     0
 10
0.0
 20
0.0
 11
1.0
 21
1.0
 12
124.5418897577034016
 22
52.3054209706683721
 13
0.0
 23
0.0
 14
10.0
 24
10.0
 15
10.0
 25
10.0
 16
0.0
 26
0.0
 36
1.0
 17
0.0
 27
0.0
 37
0.0
 40
118.1471404688826965
 41
2.0388471177944858
 42
50.0
 43
0.0
 44
0.0
 50
0.0
 51
0.0
 71
     0
 72
  1000
 73
     1
 74
     3
 75
     0
 76
     0
 77
     0
 78
     0
  0
ENDTAB
  0
TABLE
  2
LTYPE
 70
     1
  0
LTYPE
  2
CONTINUOUS
 70
     0
  3
Solid line
 72
    65
 73
     0
 40
0.0
  0
ENDTAB
  0
TABLE
  2
LAYER
 70
     1
  0
LAYER
  2
0
 70
     0
 62
     7
  6
CONTINUOUS
  0
ENDTAB
  0
TABLE
  2
STYLE
 70
     3
  0
STYLE
  2
STANDARD
 70
     0
 40
0.0
 41
1.0
 50
0.0
 71
     0
 42
2.5
  3
txt
  4

  0
STYLE
  2
ANNOTATIVE
 70
     0
 40
0.0
 41
1.0
 50
0.0
 71
     0
 42
2.5
  3
txt
  4

  0
STYLE
  2
ROMANT
 70
     0
 40
2.2000000000000002
 41
1.0
 50
0.0
 71
     0
 42
2.5
  3
romant.shx
  4

  0
ENDTAB
  0
TABLE
  2
VIEW
 70
     0
  0
ENDTAB
  0
TABLE
  2
UCS
 70
     0
  0
ENDTAB
  0
TABLE
  2
APPID
 70
     9
  0
APPID
  2
ACAD
 70
     0
  0
APPID
  2
ACAD_PSEXT
 70
     0
  0
APPID
  2
ACADANNOPO
 70
     0
  0
APPID
  2
ACADANNOTATIVE
 70
     0
  0
APPID
  2
ACAD_DSTYLE_DIMJAG
 70
     0
  0
APPID
  2
ACAD_DSTYLE_DIMTALN
 70
     0
  0
APPID
  2
ACAD_MLEADERVER
 70
     0
  0
APPID
  2
ACAD_NAV_VCDISPLAY
 70
     0
  0
APPID
  2
ACAD_STEPID
 70
     0
  0
ENDTAB
  0
TABLE
  2
DIMSTYLE
 70
     4
  0
DIMSTYLE
  2
STANDARD
 70
     0
  3

  4

  5

  6

  7

 40
1.0
 41
0.18
 42
0.0625
 43
0.38
 44
0.18
 45
0.0
 46
0.0
 47
0.0
 48
0.0
140
0.18
141
0.09
142
0.0
143
25.3999999999999986
144
1.0
145
0.0
146
1.0
147
0.09
 71
     0
 72
     0
 73
     1
 74
     1
 75
     0
 76
     0
 77
     0
 78
     0
170
     0
171
     2
172
     0
173
     0
174
     0
175
     0
176
     0
177
     0
178
     0
  0
DIMSTYLE
  2
ANNOTATIVE
 70
     0
  3

  4

  5

  6

  7

 40
0.0
 41
2.5
 42
0.625
 43
3.75
 44
1.25
 45
0.0
 46
0.0
 47
0.0
 48
0.0
140
2.5
141
2.5
142
0.0
143
0.03937007874016
144
1.0
145
0.0
146
1.0
147
0.625
 71
     0
 72
     0
 73
     0
 74
     0
 75
     0
 76
     0
 77
     1
 78
     8
170
     0
171
     3
172
     1
173
     0
174
     0
175
     0
176
     0
177
     0
178
     0
  0
DIMSTYLE
  2
ISO-25
 70
     0
  3

  4

  5

  6

  7

 40
1.0
 41
2.5
 42
0.625
 43
3.75
 44
1.25
 45
0.0
 46
0.0
 47
0.0
 48
0.0
140
2.5
141
2.5
142
0.0
143
0.03937007874016
144
1.0
145
0.0
146
1.0
147
0.625
 71
     0
 72
     0
 73
     0
 74
     0
 75
     0
 76
     0
 77
     1
 78
     8
170
     0
171
     3
172
     1
173
     0
174
     0
175
     0
176
     0
177
     0
178
     0
  0
DIMSTYLE
  2
MELÝH_A3
 70
     0
  3

  4

  5

  6

  7

 40
1.0
 41
1.3
 42
0.0
 43
3.75
 44
0.2
 45
0.0
 46
0.0
 47
0.0
 48
0.0
140
1.0
141
0.2
142
0.0
143
0.03937007874016
144
1.0
145
0.0
146
1.0
147
0.7
 71
     0
 72
     0
 73
     0
 74
     0
 75
     0
 76
     0
 77
     1
 78
     8
170
     0
171
     3
172
     0
173
     0
174
     0
175
     0
176
   242
177
   242
178
   242
  0
ENDTAB
  0
ENDSEC
  0
SECTION
  2
BLOCKS
  0
BLOCK
  8
0
  2
$MODEL_SPACE
 70
     0
 10
0.0
 20
0.0
 30
0.0
  3
$MODEL_SPACE
  1

  0
ENDBLK
  5
21
  8
0
  0
BLOCK
 67
     1
  8
0
  2
$PAPER_SPACE
 70
     0
 10
0.0
 20
0.0
 30
0.0
  3
$PAPER_SPACE
  1

  0
ENDBLK
  5
D5
 67
     1
  8
0
  0
BLOCK
  8
0
  2
*U2
 70
     1
 10
0.0
 20
0.0
 30
0.0
  3
*U2
  1

  0
LINE
  5
2E8
  8
0
 10
0.9999991590975696
 20
69.000000167406597
 30
0.0
 11
0.9999991590975696
 21
2.000000167406597
 31
0.0
  0
ARC
  5
2E9
  8
0
 10
2.999999159097114
 20
2.0000001674061418
 30
0.0
 40
1.999999999999545
 50
180.0
 51
270.0000000000259774
  0
LINE
  5
2EA
  8
0
 10
2.9999991590975692
 20
0.000000167406597
 30
0.0
 11
238.9999991590975128
 21
0.000000167406597
 31
0.0
  0
ARC
  5
2EB
  8
0
 10
238.9999991590975128
 20
2.0000001674063692
 30
0.0
 40
1.999999999999772
 50
270.0
 51
0.0000000000064748
  0
LINE
  5
2EC
  8
0
 10
240.9999991590973138
 20
2.000000167406597
 30
0.0
 11
240.9999991590975128
 21
94.000000167406597
 31
0.0
  0
ARC
  5
2ED
  8
0
 10
239.999999159097797
 20
94.000000167406597
 30
0.0
 40
0.9999999999997726
 50
0.0
 51
90.0000000000130314
  0
LINE
  5
2EE
  8
0
 10
239.9999991590975981
 20
95.0000001674061423
 30
0.0
 11
231.9999991590975981
 21
95.000000167406597
 31
0.0
  0
ARC
  5
2EF
  8
0
 10
231.9999991590973138
 20
94.000000167406597
 30
0.0
 40
1.0
 50
89.9999999999869686
 51
179.9999999999739089
  0
LINE
  5
2F0
  8
0
 10
230.9999991590973991
 20
94.0000001674070518
 30
0.0
 11
230.9999991590975981
 21
73.000000167406597
 31
0.0
  0
ARC
  5
2F1
  8
0
 10
227.999999159097996
 20
73.000000167406597
 30
0.0
 40
2.9999999999995448
 50
269.999999999991303
 51
0.0
  0
LINE
  5
2F2
  8
0
 10
227.9999991590975981
 20
70.0000001674070518
 30
0.0
 11
226.9999991590975981
 21
70.000000167406597
 31
0.0
  0
ARC
  5
2F3
  8
0
 10
226.9999991590973991
 20
69.000000167406597
 30
0.0
 40
1.0
 50
89.9999999999869686
 51
179.9999999999739089
  0
LINE
  5
2F4
  8
0
 10
225.9999991590973138
 20
69.0000001674070518
 30
0.0
 11
225.9999991590975981
 21
34.1386160712063429
 31
0.0
  0
ARC
  5
2F5
  8
0
 10
217.999999159097996
 20
34.1386160712056608
 30
0.0
 40
7.9999999999995453
 50
284.9999999999939746
 51
0.0
  0
LINE
  5
2F6
  8
0
 10
220.070551519917899
 20
26.4112094608935912
 30
0.0
 11
189.6968234634977932
 21
18.2725935571065712
 31
0.0
  0
ARC
  5
2F7
  8
0
 10
187.6262711026392935
 20
26.0000001673424812
 30
0.0
 40
7.9999999999358957
 50
270.0000000004184812
 51
285.0000000004073968
  0
LINE
  5
2F8
  8
0
 10
187.6262711026977001
 20
18.0000001674066006
 30
0.0
 11
54.373727215497631
 21
18.0000001674066006
 31
0.0
  0
ARC
  5
2F9
  8
0
 10
54.3737272154965012
 20
26.0000001673979604
 30
0.0
 40
7.9999999999913589
 50
255.0000000000918021
 51
270.0000000000080718
  0
LINE
  5
2FA
  8
0
 10
52.3031748546909512
 20
18.2725935570904312
 30
0.0
 11
21.9294467982977004
 21
26.4112094609063206
 31
0.0
  0
ARC
  5
2FB
  8
0
 10
23.9999991590996196
 20
34.138616071225897
 30
0.0
 40
8.0000000000020641
 50
180.0000000001400053
 51
255.0000000001392948
  0
LINE
  5
2FC
  8
0
 10
15.9999991590975696
 20
34.1386160712063429
 30
0.0
 11
15.9999991590975696
 21
94.000000167406597
 31
0.0
  0
ARC
  5
2FD
  8
0
 10
14.9999991590984791
 20
94.0000001674070518
 30
0.0
 40
0.9999999999990905
 50
0.0
 51
90.0000000000781455
  0
LINE
  5
2FE
  8
0
 10
14.9999991590975696
 20
95.0000001674061423
 30
0.0
 11
6.9999991590975688
 21
95.000000167406597
 31
0.0
  0
ARC
  5
2FF
  8
0
 10
6.9999991590973423
 20
94.000000167406597
 30
0.0
 40
1.0
 50
89.9999999999869686
 51
179.9999999999739089
  0
LINE
  5
300
  8
0
 10
5.9999991590973423
 20
94.0000001674070518
 30
0.0
 11
5.9999991590975688
 21
73.000000167406597
 31
0.0
  0
ARC
  5
301
  8
0
 10
2.9999991590980239
 20
73.000000167406597
 30
0.0
 40
2.9999999999995448
 50
269.999999999991303
 51
0.0
  0
LINE
  5
302
  8
0
 10
2.9999991590975692
 20
70.0000001674070518
 30
0.0
 11
1.999999159097569
 21
70.000000167406597
 31
0.0
  0
ARC
  5
303
  8
0
 10
1.999999159097342
 20
69.000000167406597
 30
0.0
 40
1.0
 50
89.9999999999869686
 51
180.0
  0
ENDBLK
  5
305
  8
0
  0
ENDSEC
  0
SECTION
  2
ENTITIES
  0
LINE
  5
277
  8
0
 10
4.5418897577035287
 20
73.805420970668365
 30
0.0
 11
4.5418897577035287
 21
6.805420970668365
 31
0.0
1001
ACAD_STEPID
1071
        2
  0
ARC
  5
278
  8
0
 10
6.5418897577030739
 20
6.8054209706679103
 30
0.0
 40
1.999999999999545
 50
180.0
 51
270.0000000000259774
1001
ACAD_STEPID
1071
        2
  0
LINE
  5
279
  8
0
 10
6.5418897577035287
 20
4.805420970668365
 30
0.0
 11
242.5418897577035011
 21
4.805420970668365
 31
0.0
1001
ACAD_STEPID
1071
        2
  0
ARC
  5
27A
  8
0
 10
242.5418897577035011
 20
6.8054209706681368
 30
0.0
 40
1.999999999999772
 50
270.0
 51
0.0
1001
ACAD_STEPID
1071
        2
  0
LINE
  5
27B
  8
0
 10
244.5418897577033022
 20
6.805420970668365
 30
0.0
 11
244.5418897577035011
 21
98.805420970668365
 31
0.0
1001
ACAD_STEPID
1071
        2
  0
ARC
  5
27C
  8
0
 10
243.5418897577037001
 20
98.805420970668365
 30
0.0
 40
0.9999999999997726
 50
0.0
 51
90.0000000000130314
1001
ACAD_STEPID
1071
        2
  0
LINE
  5
27D
  8
0
 10
243.5418897577035011
 20
99.8054209706679103
 30
0.0
 11
235.5418897577035011
 21
99.805420970668365
 31
0.0
1001
ACAD_STEPID
1071
        2
  0
ARC
  5
27E
  8
0
 10
235.5418897577033022
 20
98.805420970668365
 30
0.0
 40
1.0
 50
89.9999999999869686
 51
179.9999999999739089
1001
ACAD_STEPID
1071
        2
  0
LINE
  5
27F
  8
0
 10
234.5418897577033022
 20
98.8054209706688198
 30
0.0
 11
234.5418897577035011
 21
77.805420970668365
 31
0.0
1001
ACAD_STEPID
1071
        2
  0
ARC
  5
280
  8
0
 10
231.5418897577040127
 20
77.805420970668365
 30
0.0
 40
2.9999999999995448
 50
269.9999999999869829
 51
0.0
1001
ACAD_STEPID
1071
        2
  0
LINE
  5
281
  8
0
 10
231.5418897577035864
 20
74.8054209706688198
 30
0.0
 11
230.5418897577035011
 21
74.805420970668365
 31
0.0
1001
ACAD_STEPID
1071
        2
  0
ARC
  5
282
  8
0
 10
230.5418897577033022
 20
73.805420970668365
 30
0.0
 40
1.0
 50
89.9999999999869686
 51
179.9999999999739089
1001
ACAD_STEPID
1071
        2
  0
LINE
  5
283
  8
0
 10
229.5418897577033022
 20
73.8054209706688198
 30
0.0
 11
229.5418897577035011
 21
38.9440368744681109
 31
0.0
1001
ACAD_STEPID
1071
        2
  0
ARC
  5
284
  8
0
 10
221.5418897577040127
 20
38.9440368744674288
 30
0.0
 40
7.9999999999995453
 50
284.9999999999943725
 51
0.0
1001
ACAD_STEPID
1071
        2
  0
LINE
  5
285
  8
0
 10
223.612442118523802
 20
31.2166302641553592
 30
0.0
 11
193.2387140621036963
 21
23.0780143603683392
 31
0.0
1001
ACAD_STEPID
1071
        2
  0
ARC
  5
286
  8
0
 10
191.1681617012451966
 20
30.8054209706042492
 30
0.0
 40
7.9999999999358957
 50
270.0000000004168896
 51
285.0000000004114895
1001
ACAD_STEPID
1071
        2
  0
LINE
  5
287
  8
0
 10
191.1681617013036885
 20
22.8054209706683615
 30
0.0
 11
57.915617814103598
 21
22.8054209706683615
 31
0.0
1001
ACAD_STEPID
1071
        2
  0
ARC
  5
288
  8
0
 10
57.9156178141024611
 20
30.8054209706597213
 30
0.0
 40
7.9999999999913589
 50
255.0000000000877947
 51
270.0000000000130171
1001
ACAD_STEPID
1071
        2
  0
LINE
  5
289
  8
0
 10
55.8450654532969111
 20
23.0780143603521992
 30
0.0
 11
25.4713373969036603
 21
31.2166302641680886
 31
0.0
1001
ACAD_STEPID
1071
        2
  0
ARC
  5
28A
  8
0
 10
27.5418897577055795
 20
38.9440368744876722
 30
0.0
 40
8.0000000000020641
 50
180.0000000001433023
 51
255.0000000001415117
1001
ACAD_STEPID
1071
        2
  0
LINE
  5
28B
  8
0
 10
19.5418897577035295
 20
38.9440368744681109
 30
0.0
 11
19.5418897577035295
 21
98.805420970668365
 31
0.0
1001
ACAD_STEPID
1071
        2
  0
ARC
  5
28C
  8
0
 10
18.541889757704439
 20
98.8054209706688198
 30
0.0
 40
0.9999999999990905
 50
0.0
 51
90.0000000000781455
1001
ACAD_STEPID
1071
        2
  0
LINE
  5
28D
  8
0
 10
18.5418897577035295
 20
99.8054209706679103
 30
0.0
 11
10.5418897577035295
 21
99.805420970668365
 31
0.0
1001
ACAD_STEPID
1071
        2
  0
ARC
  5
28E
  8
0
 10
10.5418897577033004
 20
98.805420970668365
 30
0.0
 40
1.0
 50
89.9999999999869686
 51
179.9999999999739089
1001
ACAD_STEPID
1071
        2
  0
LINE
  5
28F
  8
0
 10
9.5418897577033022
 20
98.8054209706688198
 30
0.0
 11
9.5418897577035295
 21
77.805420970668365
 31
0.0
1001
ACAD_STEPID
1071
        2
  0
ARC
  5
290
  8
0
 10
6.5418897577039843
 20
77.805420970668365
 30
0.0
 40
2.9999999999995448
 50
269.9999999999869829
 51
0.0
1001
ACAD_STEPID
1071
        2
  0
LINE
  5
291
  8
0
 10
6.5418897577035287
 20
74.8054209706688198
 30
0.0
 11
5.5418897577035287
 21
74.805420970668365
 31
0.0
1001
ACAD_STEPID
1071
        2
  0
ARC
  5
292
  8
0
 10
5.5418897577033022
 20
73.805420970668365
 30
0.0
 40
1.0
 50
89.9999999999869686
 51
180.0
1001
ACAD_STEPID
1071
        2
  0
ENDSEC
  0
EOF
