  0
SECTION
  2
HEADER
  9
$ACADVER
  1
AC1009
  9
$INSBASE
 10
0.0
 20
0.0
 30
0.0
  9
$EXTMIN
 10
7.1640315084595443
 20
7.3775192403858512
 30
0.0
  9
$EXTMAX
 10
197.1643951164747079
 20
93.377890561213917
 30
0.0
  9
$LIMMIN
 10
0.0
 20
0.0
  9
$LIMMAX
 10
420.0
 20
297.0
  9
$ORTHOMODE
 70
     0
  9
$REGENMODE
 70
     1
  9
$FILLMODE
 70
     1
  9
$QTEXTMODE
 70
     0
  9
$MIRRTEXT
 70
     0
  9
$DRAGMODE
 70
     2
  9
$LTSCALE
 40
1.0
  9
$OSMODE
 70
  4095
  9
$ATTMODE
 70
     1
  9
$TEXTSIZE
 40
2.5
  9
$TRACEWID
 40
1.0
  9
$TEXTSTYLE
  7
STANDARD
  9
$CLAYER
  8
0
  9
$CELTYPE
  6
BYLAYER
  9
$CECOLOR
 62
   256
  9
$DIMSCALE
 40
1.0
  9
$DIMASZ
 40
2.5
  9
$DIMEXO
 40
0.625
  9
$DIMDLI
 40
3.75
  9
$DIMRND
 40
0.0
  9
$DIMDLE
 40
0.0
  9
$DIMEXE
 40
1.25
  9
$DIMTP
 40
0.0
  9
$DIMTM
 40
0.0
  9
$DIMTXT
 40
2.5
  9
$DIMCEN
 40
2.5
  9
$DIMTSZ
 40
0.0
  9
$DIMTOL
 70
     0
  9
$DIMLIM
 70
     0
  9
$DIMTIH
 70
     0
  9
$DIMTOH
 70
     0
  9
$DIMSE1
 70
     0
  9
$DIMSE2
 70
     0
  9
$DIMTAD
 70
     1
  9
$DIMZIN
 70
     8
  9
$DIMBLK
  1

  9
$DIMASO
 70
     1
  9
$DIMSHO
 70
     1
  9
$DIMPOST
  1

  9
$DIMAPOST
  1

  9
$DIMALT
 70
     0
  9
$DIMALTD
 70
     3
  9
$DIMALTF
 40
0.03937007874016
  9
$DIMLFAC
 40
1.0
  9
$DIMTOFL
 70
     1
  9
$DIMTVP
 40
0.0
  9
$DIMTIX
 70
     0
  9
$DIMSOXD
 70
     0
  9
$DIMSAH
 70
     0
  9
$DIMBLK1
  1

  9
$DIMBLK2
  1

  9
$DIMSTYLE
  2
ISO-25
  9
$DIMCLRD
 70
     0
  9
$DIMCLRE
 70
     0
  9
$DIMCLRT
 70
     0
  9
$DIMTFAC
 40
1.0
  9
$DIMGAP
 40
0.625
  9
$LUNITS
 70
     2
  9
$LUPREC
 70
     4
  9
$SKETCHINC
 40
1.0
  9
$FILLETRAD
 40
0.0
  9
$AUNITS
 70
     0
  9
$AUPREC
 70
     0
  9
$MENU
  1
.
  9
$ELEVATION
 40
0.0
  9
$PELEVATION
 40
0.0
  9
$THICKNESS
 40
0.0
  9
$LIMCHECK
 70
     0
  9
$BLIPMODE
 70
     0
  9
$CHAMFERA
 40
0.0
  9
$CHAMFERB
 40
0.0
  9
$SKPOLY
 70
     0
  9
$TDCREATE
 40
2459187.7012499999254942
  9
$TDUPDATE
 40
2459187.7020717589184642
  9
$TDINDWG
 40
0.0008217593
  9
$TDUSRTIMER
 40
0.0008217593
  9
$USRTIMER
 70
     1
  9
$ANGBASE
 50
0.0
  9
$ANGDIR
 70
     0
  9
$PDMODE
 70
     0
  9
$PDSIZE
 40
0.0
  9
$PLINEWID
 40
0.0
  9
$COORDS
 70
     0
  9
$SPLFRAME
 70
     0
  9
$SPLINETYPE
 70
     6
  9
$SPLINESEGS
 70
     8
  9
$ATTDIA
 70
     1
  9
$ATTREQ
 70
     1
  9
$HANDLING
 70
     1
  9
$HANDSEED
  5
33A
  9
$SURFTAB1
 70
     6
  9
$SURFTAB2
 70
     6
  9
$SURFTYPE
 70
     6
  9
$SURFU
 70
     6
  9
$SURFV
 70
     6
  9
$UCSNAME
  2

  9
$UCSORG
 10
0.0
 20
0.0
 30
0.0
  9
$UCSXDIR
 10
1.0
 20
0.0
 30
0.0
  9
$UCSYDIR
 10
0.0
 20
1.0
 30
0.0
  9
$PUCSNAME
  2

  9
$PUCSORG
 10
0.0
 20
0.0
 30
0.0
  9
$PUCSXDIR
 10
1.0
 20
0.0
 30
0.0
  9
$PUCSYDIR
 10
0.0
 20
1.0
 30
0.0
  9
$USERI1
 70
     0
  9
$USERI2
 70
     0
  9
$USERI3
 70
     0
  9
$USERI4
 70
     0
  9
$USERI5
 70
     0
  9
$USERR1
 40
0.0
  9
$USERR2
 40
0.0
  9
$USERR3
 40
0.0
  9
$USERR4
 40
0.0
  9
$USERR5
 40
0.0
  9
$WORLDVIEW
 70
     1
  9
$SHADEDGE
 70
     3
  9
$SHADEDIF
 70
    70
  9
$TILEMODE
 70
     1
  9
$MAXACTVP
 70
    64
  9
$PLIMCHECK
 70
     0
  9
$PEXTMIN
 10
0.0
 20
0.0
 30
0.0
  9
$PEXTMAX
 10
0.0
 20
0.0
 30
0.0
  9
$PLIMMIN
 10
0.0
 20
0.0
  9
$PLIMMAX
 10
12.0
 20
9.0
  9
$UNITMODE
 70
     0
  9
$VISRETAIN
 70
     1
  9
$PLINEGEN
 70
     0
  9
$PSLTSCALE
 70
     1
  0
ENDSEC
  0
SECTION
  2
TABLES
  0
TABLE
  2
VPORT
 70
     1
  0
VPORT
  2
*ACTIVE
 70
     0
 10
0.0
 20
0.0
 11
1.0
 21
1.0
 12
102.1642133124670977
 22
50.3777049007998912
 13
0.0
 23
0.0
 14
10.0
 24
10.0
 15
10.0
 25
10.0
 16
0.0
 26
0.0
 36
1.0
 17
0.0
 27
0.0
 37
0.0
 40
93.5333318680622341
 41
2.0388471177944858
 42
50.0
 43
0.0
 44
0.0
 50
0.0
 51
0.0
 71
     0
 72
  1000
 73
     1
 74
     3
 75
     0
 76
     0
 77
     0
 78
     0
  0
ENDTAB
  0
TABLE
  2
LTYPE
 70
     1
  0
LTYPE
  2
CONTINUOUS
 70
     0
  3
Solid line
 72
    65
 73
     0
 40
0.0
  0
ENDTAB
  0
TABLE
  2
LAYER
 70
     1
  0
LAYER
  2
0
 70
     0
 62
     7
  6
CONTINUOUS
  0
ENDTAB
  0
TABLE
  2
STYLE
 70
     3
  0
STYLE
  2
STANDARD
 70
     0
 40
0.0
 41
1.0
 50
0.0
 71
     0
 42
2.5
  3
txt
  4

  0
STYLE
  2
ANNOTATIVE
 70
     0
 40
0.0
 41
1.0
 50
0.0
 71
     0
 42
2.5
  3
txt
  4

  0
STYLE
  2
ROMANT
 70
     0
 40
2.2000000000000002
 41
1.0
 50
0.0
 71
     0
 42
2.5
  3
romant.shx
  4

  0
ENDTAB
  0
TABLE
  2
VIEW
 70
     0
  0
ENDTAB
  0
TABLE
  2
UCS
 70
     0
  0
ENDTAB
  0
TABLE
  2
APPID
 70
     9
  0
APPID
  2
ACAD
 70
     0
  0
APPID
  2
ACAD_PSEXT
 70
     0
  0
APPID
  2
ACADANNOPO
 70
     0
  0
APPID
  2
ACADANNOTATIVE
 70
     0
  0
APPID
  2
ACAD_DSTYLE_DIMJAG
 70
     0
  0
APPID
  2
ACAD_DSTYLE_DIMTALN
 70
     0
  0
APPID
  2
ACAD_MLEADERVER
 70
     0
  0
APPID
  2
ACAD_NAV_VCDISPLAY
 70
     0
  0
APPID
  2
ACAD_STEPID
 70
     0
  0
ENDTAB
  0
TABLE
  2
DIMSTYLE
 70
     4
  0
DIMSTYLE
  2
STANDARD
 70
     0
  3

  4

  5

  6

  7

 40
1.0
 41
0.18
 42
0.0625
 43
0.38
 44
0.18
 45
0.0
 46
0.0
 47
0.0
 48
0.0
140
0.18
141
0.09
142
0.0
143
25.3999999999999986
144
1.0
145
0.0
146
1.0
147
0.09
 71
     0
 72
     0
 73
     1
 74
     1
 75
     0
 76
     0
 77
     0
 78
     0
170
     0
171
     2
172
     0
173
     0
174
     0
175
     0
176
     0
177
     0
178
     0
  0
DIMSTYLE
  2
ANNOTATIVE
 70
     0
  3

  4

  5

  6

  7

 40
0.0
 41
2.5
 42
0.625
 43
3.75
 44
1.25
 45
0.0
 46
0.0
 47
0.0
 48
0.0
140
2.5
141
2.5
142
0.0
143
0.03937007874016
144
1.0
145
0.0
146
1.0
147
0.625
 71
     0
 72
     0
 73
     0
 74
     0
 75
     0
 76
     0
 77
     1
 78
     8
170
     0
171
     3
172
     1
173
     0
174
     0
175
     0
176
     0
177
     0
178
     0
  0
DIMSTYLE
  2
ISO-25
 70
     0
  3

  4

  5

  6

  7

 40
1.0
 41
2.5
 42
0.625
 43
3.75
 44
1.25
 45
0.0
 46
0.0
 47
0.0
 48
0.0
140
2.5
141
2.5
142
0.0
143
0.03937007874016
144
1.0
145
0.0
146
1.0
147
0.625
 71
     0
 72
     0
 73
     0
 74
     0
 75
     0
 76
     0
 77
     1
 78
     8
170
     0
171
     3
172
     1
173
     0
174
     0
175
     0
176
     0
177
     0
178
     0
  0
DIMSTYLE
  2
MELÝH_A3
 70
     0
  3

  4

  5

  6

  7

 40
1.0
 41
1.3
 42
0.0
 43
3.75
 44
0.2
 45
0.0
 46
0.0
 47
0.0
 48
0.0
140
1.0
141
0.2
142
0.0
143
0.03937007874016
144
1.0
145
0.0
146
1.0
147
0.7
 71
     0
 72
     0
 73
     0
 74
     0
 75
     0
 76
     0
 77
     1
 78
     8
170
     0
171
     3
172
     0
173
     0
174
     0
175
     0
176
   242
177
   242
178
   242
  0
ENDTAB
  0
ENDSEC
  0
SECTION
  2
BLOCKS
  0
BLOCK
  8
0
  2
$MODEL_SPACE
 70
     0
 10
0.0
 20
0.0
 30
0.0
  3
$MODEL_SPACE
  1

  0
ENDBLK
  5
21
  8
0
  0
BLOCK
 67
     1
  8
0
  2
$PAPER_SPACE
 70
     0
 10
0.0
 20
0.0
 30
0.0
  3
$PAPER_SPACE
  1

  0
ENDBLK
  5
D5
 67
     1
  8
0
  0
BLOCK
  8
0
  2
*U2
 70
     1
 10
0.0
 20
0.0
 30
0.0
  3
*U2
  1

  0
ARC
  5
302
  8
0
 10
139.7503522457664076
 20
0.5174738394011911
 30
0.0
 40
0.249999999999776
 50
270.0000094339278007
 51
359.9978783254850896
  0
LINE
  5
303
  8
0
 10
140.0003522455945131
 20
0.5174645818497084
 30
0.0
 11
140.0003911260209861
 21
1.5674297192233551
 31
0.0
  0
ARC
  5
304
  8
0
 10
140.2003982261580859
 20
1.5674260161652001
 30
0.0
 40
0.2000071001713802
 50
89.9999999999941451
 51
179.9989391897661051
  0
LINE
  5
305
  8
0
 10
140.2003982261585122
 20
1.767433116336633
 30
0.0
 11
140.2003677085803872
 21
1.76745348198483
 31
0.0
  0
LINE
  5
306
  8
0
 10
140.2003677085803872
 20
1.76745348198483
 30
0.0
 11
169.8003585533068929
 21
1.767433116336633
 31
0.0
  0
ARC
  5
307
  8
0
 10
169.8003585533068929
 20
1.567426016164972
 30
0.0
 40
0.2000071001716606
 50
359.9999999998697149
 51
90.0
  0
LINE
  5
308
  8
0
 10
170.0003656534786103
 20
1.567426016164517
 30
0.0
 11
170.0003707603381997
 21
1.567456533742642
 31
0.0
  0
LINE
  5
309
  8
0
 10
170.0003707603381997
 20
1.567456533742642
 30
0.0
 11
170.0003756351001982
 21
0.5174726869572625
 31
0.0
  0
ARC
  5
30A
  8
0
 10
170.2503756350974982
 20
0.5174738476328004
 30
0.0
 40
0.2499999999999658
 50
180.0002660063296958
 51
269.9999999990907895
  0
LINE
  5
30B
  8
0
 10
170.2503756350974982
 20
0.2674738476328002
 30
0.0
 11
189.7503630475252976
 21
0.2674738476328002
 31
0.0
  0
ARC
  5
30C
  8
0
 10
189.7503630475270882
 20
0.5174738476309813
 30
0.0
 40
0.249999999998181
 50
269.9999999995831104
 51
0.0029862393001601
  0
LINE
  5
30D
  8
0
 10
190.0003630471856013
 20
0.5174868775579853
 30
0.0
 11
190.0003378961986868
 21
1.000048874177764
 31
0.0
  0
ARC
  5
30E
  8
0
 10
189.0002792076043079
 20
1.000058462454489
 30
0.0
 40
1.0000586886403999
 50
359.9994506644936791
 51
74.9999946336709797
  0
LINE
  5
30F
  8
0
 10
189.2591135329194003
 20
1.966040953374431
 30
0.0
 11
173.3334870291824075
 21
6.2333311411455261
 31
0.0
  0
ARC
  5
310
  8
0
 10
173.0743148521337105
 20
5.2660954497514458
 30
0.0
 40
1.0013566298091381
 50
74.9998809157919766
 51
89.9999999999219398
  0
LINE
  5
311
  8
0
 10
173.0743148521351031
 20
6.2674520795605977
 30
0.0
 11
168.2503715010061001
 21
6.2674333108291194
 31
0.0
  0
ARC
  5
312
  8
0
 10
168.2503724736920958
 20
6.0174333108311648
 30
0.0
 40
0.2499999999998459
 50
90.0002229231963611
 51
179.9961101019499097
  0
LINE
  5
313
  8
0
 10
168.0003724742682039
 20
6.0174502837132868
 30
0.0
 11
168.0003351358936925
 21
5.4674792453888577
 31
0.0
  0
ARC
  5
314
  8
0
 10
167.8003280357270057
 20
5.4674809478067337
 30
0.0
 40
0.2000071001739037
 50
270.000000000626585
 51
359.9995123106227197
  0
LINE
  5
315
  8
0
 10
167.8003280357287963
 20
5.2674738476328002
 30
0.0
 11
167.8003585533068929
 21
5.2674534819848304
 31
0.0
  0
LINE
  5
316
  8
0
 10
167.8003585533068929
 20
5.2674534819848304
 30
0.0
 11
148.2004134849476031
 21
5.2674738476330267
 31
0.0
  0
ARC
  5
317
  8
0
 10
148.2004134849476031
 20
5.4674809478046882
 30
0.0
 40
0.2000071001716606
 50
179.9999999998696865
 51
270.0
  0
LINE
  5
318
  8
0
 10
148.0004063847759141
 20
5.467480947805142
 30
0.0
 11
148.0003707603381997
 21
5.467450430227017
 31
0.0
  0
LINE
  5
319
  8
0
 10
148.0003707603381997
 20
5.467450430227017
 30
0.0
 11
148.0003381034221093
 21
6.0174479604561384
 31
0.0
  0
ARC
  5
31A
  8
0
 10
147.7503381038636121
 20
6.0174331163373154
 30
0.0
 40
0.2499999999991361
 50
0.0034020214473068
 51
90.0000000002171419
  0
LINE
  5
31B
  8
0
 10
147.7503381038627026
 20
6.267433116336405
 30
0.0
 11
128.2503877324880079
 21
6.267433116336405
 31
0.0
  0
ARC
  5
31C
  8
0
 10
128.2503877324892869
 20
6.0174331163350407
 30
0.0
 40
0.2500000000013642
 50
90.0000000003126672
 51
179.9961101242531072
  0
LINE
  5
31D
  8
0
 10
128.0003877330640876
 20
6.0174500891198468
 30
0.0
 11
128.0003503945744967
 21
5.4674741587384679
 31
0.0
  0
ARC
  5
31E
  8
0
 10
127.8003432945170061
 20
5.4674809478053703
 30
0.0
 40
0.2000071001727434
 50
270.0000000002921183
 51
359.9980551446737991
  0
LINE
  5
31F
  8
0
 10
127.8003432945179014
 20
5.267473847632572
 30
0.0
 11
127.800373812095998
 21
5.2674534819848304
 31
0.0
  0
LINE
  5
320
  8
0
 10
127.800373812095998
 20
5.2674534819848304
 30
0.0
 11
108.200398226158498
 21
5.2674738476330267
 31
0.0
  0
ARC
  5
321
  8
0
 10
108.200398226158498
 20
5.4674809478046882
 30
0.0
 40
0.2000071001716606
 50
179.9999999998696865
 51
270.0
  0
LINE
  5
322
  8
0
 10
108.0003911259867948
 20
5.467480947805142
 30
0.0
 11
108.0003707603381997
 21
5.467450430227017
 31
0.0
  0
LINE
  5
323
  8
0
 10
108.0003707603381997
 20
5.467450430227017
 30
0.0
 11
108.0003520913674038
 21
6.0174416023694439
 31
0.0
  0
ARC
  5
324
  8
0
 10
107.7503520915115018
 20
6.0174331163373154
 30
0.0
 40
0.2499999999998706
 50
0.0019448553262191
 51
89.9999999991887734
  0
LINE
  5
325
  8
0
 10
107.7503520915151967
 20
6.2674331163373154
 30
0.0
 11
88.2503877322669723
 21
6.2674331166049342
 31
0.0
  0
ARC
  5
326
  8
0
 10
88.2503877322642438
 20
6.0174331166037973
 30
0.0
 40
0.2500000000011369
 50
89.9999999993746798
 51
179.9961101757380106
  0
LINE
  5
327
  8
0
 10
88.0003877328390445
 20
6.0174500891639582
 30
0.0
 11
88.0003503948437356
 21
5.4674741588280531
 31
0.0
  0
ARC
  5
328
  8
0
 10
87.8003432945179156
 20
5.467480947805142
 30
0.0
 40
0.2000071004410413
 50
270.0000000001617195
 51
359.9980551705351104
  0
LINE
  5
329
  8
0
 10
87.8003432945179156
 20
5.267473847364271
 30
0.0
 11
87.8003738120960406
 21
5.2674534819848304
 31
0.0
  0
LINE
  5
32A
  8
0
 10
87.8003738120960406
 20
5.2674534819848304
 30
0.0
 11
68.2003982261585406
 21
5.2674738473638172
 31
0.0
  0
ARC
  5
32B
  8
0
 10
68.2003982261585406
 20
5.467480947805142
 30
0.0
 40
0.2000071004413257
 50
180.0
 51
270.0
  0
LINE
  5
32C
  8
0
 10
68.0003911257172149
 20
5.467480947805142
 30
0.0
 11
68.0003707603382281
 21
5.467450430227017
 31
0.0
  0
LINE
  5
32D
  8
0
 10
68.0003707603382281
 20
5.467450430227017
 30
0.0
 11
68.0003520916134221
 21
6.017441622179831
 31
0.0
  0
ARC
  5
32E
  8
0
 10
67.7503520917566533
 20
6.0174331362595694
 30
0.0
 40
0.2500000000007763
 50
0.001944829652332
 51
89.9999774736819802
  0
LINE
  5
32F
  8
0
 10
67.7503521900462147
 20
6.267433136260478
 30
0.0
 11
16.0696811408633913
 21
6.2674534547352323
 31
0.0
  0
ARC
  5
330
  8
0
 10
16.0009963706897906
 20
16.2680790923366203
 30
0.0
 40
10.0008614999460903
 50
180.3935266688212948
 51
270.3935039381788101
  0
LINE
  5
331
  8
0
 10
6.0003707603382281
 20
16.1993903546692692
 30
0.0
 11
6.0003707603382281
 21
86.0174458525902992
 31
0.0
  0
ARC
  5
332
  8
0
 10
5.7503707603382281
 20
86.0174458525902992
 30
0.0
 40
0.25
 50
0.0
 51
90.0
  0
LINE
  5
333
  8
0
 10
5.7503707603382281
 20
86.2674458525902992
 30
0.0
 11
0.2503707603382281
 21
86.2674458525902992
 31
0.0
  0
ARC
  5
334
  8
0
 10
0.2503707603382281
 20
86.0174458525902992
 30
0.0
 40
0.25
 50
90.0
 51
180.0
  0
LINE
  5
335
  8
0
 10
0.0003707603382281
 20
86.0174458525902992
 30
0.0
 11
0.0003707603382281
 21
16.3774628050518913
 31
0.0
  0
ARC
  5
336
  8
0
 10
16.0013778404172591
 20
16.2684529326693301
 30
0.0
 40
16.0013784009071003
 50
179.6096677567896904
 51
270.394321877321488
  0
LINE
  5
337
  8
0
 10
16.1115018986788492
 20
0.2674534819848304
 30
0.0
 11
139.7503522869297115
 21
0.2674738394014184
 31
0.0
  0
ENDBLK
  5
339
  8
0
  0
ENDSEC
  0
SECTION
  2
ENTITIES
  0
ARC
  5
277
  8
0
 10
146.9143843147157895
 20
7.627918548024808
 30
0.0
 40
0.249999999999776
 50
270.0000094339278007
 51
359.9978783254850896
1001
ACAD_STEPID
1071
        2
  0
LINE
  5
278
  8
0
 10
147.164384314543895
 20
7.6279092904733261
 30
0.0
 11
147.1644231949703112
 21
8.677874427846973
 31
0.0
1001
ACAD_STEPID
1071
        2
  0
ARC
  5
279
  8
0
 10
147.364430295107411
 20
8.6778707247888178
 30
0.0
 40
0.2000071001713802
 50
90.0
 51
179.9989391897684072
1001
ACAD_STEPID
1071
        2
  0
LINE
  5
27A
  8
0
 10
147.3644302951078942
 20
8.877877824960251
 30
0.0
 11
147.3643997775297976
 21
8.8778981906084482
 31
0.0
1001
ACAD_STEPID
1071
        2
  0
LINE
  5
27B
  8
0
 10
147.3643997775297976
 20
8.8778981906084482
 30
0.0
 11
176.9643906222563032
 21
8.877877824960251
 31
0.0
1001
ACAD_STEPID
1071
        2
  0
ARC
  5
27C
  8
0
 10
176.9643906222563032
 20
8.6778707247885905
 30
0.0
 40
0.2000071001716606
 50
359.9999999998697149
 51
90.0
1001
ACAD_STEPID
1071
        2
  0
LINE
  5
27D
  8
0
 10
177.1643977224279922
 20
8.6778707247881357
 30
0.0
 11
177.1644028292876101
 21
8.6779012423662607
 31
0.0
1001
ACAD_STEPID
1071
        2
  0
LINE
  5
27E
  8
0
 10
177.1644028292876101
 20
8.6779012423662607
 30
0.0
 11
177.1644077040496086
 21
7.6279173955808801
 31
0.0
1001
ACAD_STEPID
1071
        2
  0
ARC
  5
27F
  8
0
 10
177.4144077040469085
 20
7.627918556256418
 30
0.0
 40
0.2499999999999658
 50
180.0002660063269104
 51
269.9999999990881179
1001
ACAD_STEPID
1071
        2
  0
LINE
  5
280
  8
0
 10
177.4144077040469085
 20
7.377918556256418
 30
0.0
 11
196.9143951164747079
 21
7.377918556256418
 31
0.0
1001
ACAD_STEPID
1071
        2
  0
ARC
  5
281
  8
0
 10
196.9143951164764985
 20
7.627918556254599
 30
0.0
 40
0.249999999998181
 50
269.9999999995831104
 51
0.0029862393001294
1001
ACAD_STEPID
1071
        2
  0
LINE
  5
282
  8
0
 10
197.1643951161350117
 20
7.6279315861816031
 30
0.0
 11
197.1643699651480972
 21
8.1104935828013822
 31
0.0
1001
ACAD_STEPID
1071
        2
  0
ARC
  5
283
  8
0
 10
196.1643112765536898
 20
8.1105031710781077
 30
0.0
 40
1.0000586886403999
 50
359.9994506644931107
 51
74.9999946336707097
1001
ACAD_STEPID
1071
        2
  0
LINE
  5
284
  8
0
 10
196.423145601868697
 20
9.0764856619980492
 30
0.0
 11
180.4975190981317041
 21
13.3437758497691394
 31
0.0
1001
ACAD_STEPID
1071
        2
  0
ARC
  5
285
  8
0
 10
180.2383469210830924
 20
12.3765401583750592
 30
0.0
 40
1.0013566298091381
 50
74.999880915793284
 51
89.9999999999218403
1001
ACAD_STEPID
1071
        2
  0
LINE
  5
286
  8
0
 10
180.2383469210845135
 20
13.3778967881842199
 30
0.0
 11
175.4144035699555104
 21
13.3778780194527407
 31
0.0
1001
ACAD_STEPID
1071
        2
  0
ARC
  5
287
  8
0
 10
175.4144045426413925
 20
13.1278780194547799
 30
0.0
 40
0.2499999999998459
 50
90.0002229231963611
 51
179.9961101019499949
1001
ACAD_STEPID
1071
        2
  0
LINE
  5
288
  8
0
 10
175.1644045432175858
 20
13.1278949923369002
 30
0.0
 11
175.1643672048429892
 21
12.5779239540124692
 31
0.0
1001
ACAD_STEPID
1071
        2
  0
ARC
  5
289
  8
0
 10
174.9643601046763877
 20
12.5779256564303505
 30
0.0
 40
0.2000071001739037
 50
270.0000000006252776
 51
359.999512310621526
1001
ACAD_STEPID
1071
        2
  0
LINE
  5
28A
  8
0
 10
174.9643601046782067
 20
12.3779185562564198
 30
0.0
 11
174.9643906222563032
 21
12.37789819060845
 31
0.0
1001
ACAD_STEPID
1071
        2
  0
LINE
  5
28B
  8
0
 10
174.9643906222563032
 20
12.37789819060845
 30
0.0
 11
155.3644455538970135
 21
12.3779185562566401
 31
0.0
1001
ACAD_STEPID
1071
        2
  0
ARC
  5
28C
  8
0
 10
155.3644455538970135
 20
12.5779256564283006
 30
0.0
 40
0.2000071001716606
 50
179.9999999998696865
 51
270.0
1001
ACAD_STEPID
1071
        2
  0
LINE
  5
28D
  8
0
 10
155.1644384537252961
 20
12.5779256564287607
 30
0.0
 11
155.1644028292876101
 21
12.5778951388506304
 31
0.0
1001
ACAD_STEPID
1071
        2
  0
LINE
  5
28E
  8
0
 10
155.1644028292876101
 20
12.5778951388506304
 30
0.0
 11
155.1643701723714912
 21
13.1278926690797508
 31
0.0
1001
ACAD_STEPID
1071
        2
  0
ARC
  5
28F
  8
0
 10
154.914370172812994
 20
13.1278778249609296
 30
0.0
 40
0.2499999999991361
 50
0.0034020214451121
 51
90.0000000002214477
1001
ACAD_STEPID
1071
        2
  0
LINE
  5
290
  8
0
 10
154.914370172812113
 20
13.3778778249600201
 30
0.0
 11
135.4144198014373046
 21
13.3778778249600201
 31
0.0
1001
ACAD_STEPID
1071
        2
  0
ARC
  5
291
  8
0
 10
135.4144198014386973
 20
13.1278778249586594
 30
0.0
 40
0.2500000000013642
 50
90.0000000003126672
 51
179.9961101242531072
1001
ACAD_STEPID
1071
        2
  0
LINE
  5
292
  8
0
 10
135.1644198020134979
 20
13.1278947977434601
 30
0.0
 11
135.1643824635239071
 21
12.5779188673620901
 31
0.0
1001
ACAD_STEPID
1071
        2
  0
ARC
  5
293
  8
0
 10
134.9643753634663881
 20
12.5779256564289899
 30
0.0
 40
0.2000071001727434
 50
270.0000000002866045
 51
359.9980551446768118
1001
ACAD_STEPID
1071
        2
  0
LINE
  5
294
  8
0
 10
134.9643753634672976
 20
12.3779185562561906
 30
0.0
 11
134.9644058810453942
 21
12.37789819060845
 31
0.0
1001
ACAD_STEPID
1071
        2
  0
LINE
  5
295
  8
0
 10
134.9644058810453942
 20
12.37789819060845
 30
0.0
 11
115.3644302951078942
 21
12.3779185562566401
 31
0.0
1001
ACAD_STEPID
1071
        2
  0
ARC
  5
296
  8
0
 10
115.3644302951078942
 20
12.5779256564283006
 30
0.0
 40
0.2000071001716606
 50
179.9999999998696865
 51
270.0
1001
ACAD_STEPID
1071
        2
  0
LINE
  5
297
  8
0
 10
115.1644231949362052
 20
12.5779256564287607
 30
0.0
 11
115.1644028292875959
 21
12.5778951388506304
 31
0.0
1001
ACAD_STEPID
1071
        2
  0
LINE
  5
298
  8
0
 10
115.1644028292875959
 20
12.5778951388506304
 30
0.0
 11
115.1643841603167999
 21
13.1278863109930608
 31
0.0
1001
ACAD_STEPID
1071
        2
  0
ARC
  5
299
  8
0
 10
114.914384160460898
 20
13.1278778249609296
 30
0.0
 40
0.2499999999998706
 50
0.0019448553232322
 51
89.9999999991922977
1001
ACAD_STEPID
1071
        2
  0
LINE
  5
29A
  8
0
 10
114.9143841604644933
 20
13.3778778249609296
 30
0.0
 11
95.4144198012163542
 21
13.3778778252285502
 31
0.0
1001
ACAD_STEPID
1071
        2
  0
ARC
  5
29B
  8
0
 10
95.4144198012136258
 20
13.1278778252274098
 30
0.0
 40
0.2500000000011369
 50
89.9999999993746798
 51
179.9961101757380106
1001
ACAD_STEPID
1071
        2
  0
LINE
  5
29C
  8
0
 10
95.1644198017884264
 20
13.1278947977875706
 30
0.0
 11
95.1643824637931175
 21
12.57791886745167
 31
0.0
1001
ACAD_STEPID
1071
        2
  0
ARC
  5
29D
  8
0
 10
94.9643753634672976
 20
12.5779256564287607
 30
0.0
 40
0.2000071004410413
 50
270.0000000001563194
 51
359.9980551705364746
1001
ACAD_STEPID
1071
        2
  0
LINE
  5
29E
  8
0
 10
94.9643753634672976
 20
12.3779185559878897
 30
0.0
 11
94.9644058810454226
 21
12.37789819060845
 31
0.0
1001
ACAD_STEPID
1071
        2
  0
LINE
  5
29F
  8
0
 10
94.9644058810454226
 20
12.37789819060845
 30
0.0
 11
75.3644302951079226
 21
12.3779185559874296
 31
0.0
1001
ACAD_STEPID
1071
        2
  0
ARC
  5
2A0
  8
0
 10
75.3644302951079226
 20
12.5779256564287607
 30
0.0
 40
0.2000071004413257
 50
180.0
 51
270.0
1001
ACAD_STEPID
1071
        2
  0
LINE
  5
2A1
  8
0
 10
75.1644231946665968
 20
12.5779256564287607
 30
0.0
 11
75.1644028292876101
 21
12.5778951388506304
 31
0.0
1001
ACAD_STEPID
1071
        2
  0
LINE
  5
2A2
  8
0
 10
75.1644028292876101
 20
12.5778951388506304
 30
0.0
 11
75.164384160562804
 21
13.1278863308034506
 31
0.0
1001
ACAD_STEPID
1071
        2
  0
ARC
  5
2A3
  8
0
 10
74.9143841607060494
 20
13.1278778448831908
 30
0.0
 40
0.2500000000007763
 50
0.0019448296524411
 51
89.9999774736820797
1001
ACAD_STEPID
1071
        2
  0
LINE
  5
2A4
  8
0
 10
74.9143842589955966
 20
13.3778778448841003
 30
0.0
 11
23.2337132098127803
 21
13.3778981633588501
 31
0.0
1001
ACAD_STEPID
1071
        2
  0
ARC
  5
2A5
  8
0
 10
23.165028439639169
 20
23.3785238009602416
 30
0.0
 40
10.0008614999460903
 50
180.393526668820698
 51
270.3935039381767069
1001
ACAD_STEPID
1071
        2
  0
LINE
  5
2A6
  8
0
 10
13.1644028292876101
 20
23.3098350632928906
 30
0.0
 11
13.1644028292876101
 21
93.127890561213917
 31
0.0
1001
ACAD_STEPID
1071
        2
  0
ARC
  5
2A7
  8
0
 10
12.9144028292876101
 20
93.127890561213917
 30
0.0
 40
0.25
 50
0.0
 51
90.0
1001
ACAD_STEPID
1071
        2
  0
LINE
  5
2A8
  8
0
 10
12.9144028292876101
 20
93.377890561213917
 30
0.0
 11
7.4144028292876101
 21
93.377890561213917
 31
0.0
1001
ACAD_STEPID
1071
        2
  0
ARC
  5
2A9
  8
0
 10
7.4144028292876101
 20
93.127890561213917
 30
0.0
 40
0.25
 50
90.0
 51
180.0
1001
ACAD_STEPID
1071
        2
  0
LINE
  5
2AA
  8
0
 10
7.1644028292876101
 20
93.127890561213917
 30
0.0
 11
7.1644028292876101
 21
23.4879075136755091
 31
0.0
1001
ACAD_STEPID
1071
        2
  0
ARC
  5
2AB
  8
0
 10
23.165409909366641
 20
23.3788976412929514
 30
0.0
 40
16.0013784009071003
 50
179.6096677567880135
 51
270.3943218773242165
1001
ACAD_STEPID
1071
        2
  0
LINE
  5
2AC
  8
0
 10
23.2755339676282311
 20
7.3778981906084482
 30
0.0
 11
146.9143843558790081
 21
7.3779185480250362
 31
0.0
1001
ACAD_STEPID
1071
        2
  0
ENDSEC
  0
EOF
